<svg xmlns="http://www.w3.org/2000/svg" xmlns:xlink="http://www.w3.org/1999/xlink" version="1.1" width="57.6000000000" height="7.2000000000">
  <title><![CDATA[Arrows Orange]]></title>
  <g transform=" scale(1.000000) ">
    <path xmlns="http://www.w3.org/2000/svg" d="  M16.7359,1.9581 C1.3816,1.9581 1.3816,1.9581 1.3816,1.9581 C0.5379,1.9581 -0.1370,2.6330 -0.1370,3.4766 C-0.1370,4.3203 0.5379,5.1639 1.3816,5.1639 C16.7359,5.1639 16.7359,5.1639 16.7359,5.1639 C16.7359,8.3698 16.7359,8.3698 16.7359,8.3698 C23.1476,3.6453 23.1476,3.6453 23.1476,3.6453 C16.7359,-1.2478 16.7359,-1.2478 16.7359,-1.2478 C16.7359,1.9581 16.7359,1.9581 16.7359,1.9581 Z" style="fill-rule: evenodd; fill: #f9461b; "/>
    <path xmlns="http://www.w3.org/2000/svg" d="  M56.2184,2.1268 C40.8641,2.1268 40.8641,2.1268 40.8641,2.1268 C40.8641,-1.2478 40.8641,-1.2478 40.8641,-1.2478 C34.4524,3.4766 34.4524,3.4766 34.4524,3.4766 C40.8641,8.3698 40.8641,8.3698 40.8641,8.3698 C40.8641,5.1639 40.8641,5.1639 40.8641,5.1639 C56.2184,5.1639 56.2184,5.1639 56.2184,5.1639 C57.0621,5.1639 57.7370,4.4890 57.7370,3.6453 C57.7370,2.8017 57.0621,2.1268 56.2184,2.1268 Z" style="fill-rule: evenodd; fill: #f9461b; "/>
    <path xmlns="http://www.w3.org/2000/svg" d="  M28.8844,9.2134 C23.9912,15.6251 23.9912,15.6251 23.9912,15.6251 C27.1971,15.6251 27.1971,15.6251 27.1971,15.6251 C27.1971,30.9794 27.1971,30.9794 27.1971,30.9794 C27.1971,31.8231 27.8720,32.4980 28.7156,32.4980 C29.5593,32.4980 30.4029,31.8231 30.4029,30.9794 C30.4029,15.6251 30.4029,15.6251 30.4029,15.6251 C33.6088,15.6251 33.6088,15.6251 33.6088,15.6251 C28.8844,9.2134 28.8844,9.2134 28.8844,9.2134 Z" style="fill-rule: evenodd; fill: #f9461b; "/>
    <path xmlns="http://www.w3.org/2000/svg" d="  M30.4029,-23.8575 C30.4029,-24.7011 29.7280,-25.3760 28.8844,-25.3760 C28.0407,-25.3760 27.3658,-24.7011 27.3658,-23.8575 C27.3658,-8.5031 27.3658,-8.5031 27.3658,-8.5031 C23.9912,-8.5031 23.9912,-8.5031 23.9912,-8.5031 C28.7156,-2.0914 28.7156,-2.0914 28.7156,-2.0914 C33.6088,-8.5031 33.6088,-8.5031 33.6088,-8.5031 C30.4029,-8.5031 30.4029,-8.5031 30.4029,-8.5031 C30.4029,-23.8575 30.4029,-23.8575 30.4029,-23.8575 Z" style="fill-rule: evenodd; fill: #f9461b; "/>
    <text xmlns="http://www.w3.org/2000/svg" x="-16.2800" y="3.5610">
      <tspan font-family="Arial" font-size="4.5000" fill="#000000" fill-opacity="1.0000" stroke-opacity="1.0000">
Arrows</tspan>
    </text>
    <!--converted by libvisio2svg-->
  </g>
</svg>
