<svg xmlns="http://www.w3.org/2000/svg" xmlns:xlink="http://www.w3.org/1999/xlink" version="1.1" width="57.6000000000" height="7.2000000000">
  <title><![CDATA[Arrows Blue]]></title>
  <g transform=" scale(1.000000) ">
    <path xmlns="http://www.w3.org/2000/svg" d="  M16.6984,1.9956 C1.3441,1.9956 1.3441,1.9956 1.3441,1.9956 C0.5004,1.9956 -0.1745,2.6705 -0.1745,3.5141 C-0.1745,4.3578 0.5004,5.2014 1.3441,5.2014 C16.6984,5.2014 16.6984,5.2014 16.6984,5.2014 C16.6984,8.4073 16.6984,8.4073 16.6984,8.4073 C23.1101,3.6828 23.1101,3.6828 23.1101,3.6828 C16.6984,-1.2103 16.6984,-1.2103 16.6984,-1.2103 C16.6984,1.9956 16.6984,1.9956 16.6984,1.9956 Z" style="fill-rule: evenodd; fill: #009fda; "/>
    <path xmlns="http://www.w3.org/2000/svg" d="  M56.1809,1.9956 C40.8266,1.9956 40.8266,1.9956 40.8266,1.9956 C40.8266,-1.2103 40.8266,-1.2103 40.8266,-1.2103 C34.4149,3.5141 34.4149,3.5141 34.4149,3.5141 C40.8266,8.4073 40.8266,8.4073 40.8266,8.4073 C40.8266,5.2014 40.8266,5.2014 40.8266,5.2014 C56.1809,5.2014 56.1809,5.2014 56.1809,5.2014 C57.0246,5.2014 57.6995,4.5265 57.6995,3.6828 C57.6995,2.8392 57.0246,1.9956 56.1809,1.9956 Z" style="fill-rule: evenodd; fill: #009fda; "/>
    <path xmlns="http://www.w3.org/2000/svg" d="  M28.8469,9.2509 C23.9537,15.6626 23.9537,15.6626 23.9537,15.6626 C27.1596,15.6626 27.1596,15.6626 27.1596,15.6626 C27.1596,31.0169 27.1596,31.0169 27.1596,31.0169 C27.1596,31.8606 27.8345,32.5355 28.6781,32.5355 C29.5218,32.5355 30.3654,31.8606 30.3654,31.0169 C30.3654,15.6626 30.3654,15.6626 30.3654,15.6626 C33.5713,15.6626 33.5713,15.6626 33.5713,15.6626 C28.8469,9.2509 28.8469,9.2509 28.8469,9.2509 Z" style="fill-rule: evenodd; fill: #009fda; "/>
    <path xmlns="http://www.w3.org/2000/svg" d="  M30.3654,-23.8200 C30.3654,-24.6636 29.6905,-25.3385 28.8469,-25.3385 C28.0032,-25.3385 27.3283,-24.6636 27.3283,-23.8200 C27.3283,-8.4656 27.3283,-8.4656 27.3283,-8.4656 C23.9537,-8.4656 23.9537,-8.4656 23.9537,-8.4656 C28.6781,-2.0539 28.6781,-2.0539 28.6781,-2.0539 C33.5713,-8.4656 33.5713,-8.4656 33.5713,-8.4656 C30.3654,-8.4656 30.3654,-8.4656 30.3654,-8.4656 C30.3654,-23.8200 30.3654,-23.8200 30.3654,-23.8200 Z" style="fill-rule: evenodd; fill: #009fda; "/>
    <text xmlns="http://www.w3.org/2000/svg" x="-16.3175" y="3.3000">
      <tspan font-family="Arial" font-size="4.5000" fill="#000000" fill-opacity="1.0000" stroke-opacity="1.0000">
Arrows</tspan>
    </text>
    <!--converted by libvisio2svg-->
  </g>
</svg>
