<svg xmlns="http://www.w3.org/2000/svg" xmlns:xlink="http://www.w3.org/1999/xlink" version="1.1" width="53.8583000000" height="27.2058000000">
  <title><![CDATA[Cloud]]></title>
  <g transform=" scale(1.000000) ">
    <text xmlns="http://www.w3.org/2000/svg" x="21.0503" y="27.2058">
      <tspan font-family="Arial" font-size="4.5000" fill="#000000" fill-opacity="1.0000" stroke-opacity="1.0000">
Cloud</tspan>
    </text>
    <!--converted by libvisio2svg-->
    <g transform=" translate(-1.167200,-1.138600) ">
      <!--emf-blob start-->
      <g transform="translate(0.9221, 0.9221)">
        <g transform="matrix(0.0625 0.0000 0.0000 0.0625 0.0000 0.0000)">
          <path d="M 672.2451,125.4120 C 666.7122,125.4120 661.1793,124.4898 655.6464,124.4898 C 646.4250,71.9275 589.2519,26.7423 517.3244,18.4429 C 458.3070,11.9879 404.8225,30.4308 375.3138,63.6281 C 358.7151,57.1731 341.1943,52.5624 322.7514,50.7181 C 252.6682,42.4188 189.9623,71.0053 165.9864,117.1127 C 88.5261,114.3462 23.9758,156.7650 17.5208,215.7824 C 10.1436,279.4105 72.8496,338.4279 157.6871,347.6494 C 181.6629,350.4158 204.7166,348.5715 225.9260,343.9608 C 248.0575,381.7688 295.0870,411.2775 352.2601,417.7325 C 402.0560,423.2654 448.1634,410.3554 479.5164,386.3795 C 503.4922,402.9782 533.0009,414.0439 567.1203,418.6547 C 639.0478,426.0319 702.6759,396.5232 725.7296,348.5715 C 772.7591,333.8172 806.8785,300.6199 811.4893,258.2011 C 818.8664,194.5730 756.1604,135.5556 672.2451,125.4120 " fill="#FFFFFF" stroke="none"/>
        </g>
        <g transform="matrix(1.0000 0.0000 0.0000 1.0000 0.0000 0.0000)">
</g>
        <g transform="matrix(0.0625 0.0000 0.0000 0.0625 0.0000 0.0000)">
          <path d="M 672.2451,125.4120 M 672.2451,125.4120 C 666.7122,125.4120 661.1793,124.4898 655.6464,124.4898 C 646.4250,71.9275 589.2519,26.7423 517.3244,18.4429 C 458.3070,11.9879 404.8225,30.4308 375.3138,63.6281 C 358.7151,57.1731 341.1943,52.5624 322.7514,50.7181 C 252.6682,42.4188 189.9623,71.0053 165.9864,117.1127 C 88.5261,114.3462 23.9758,156.7650 17.5208,215.7824 C 10.1436,279.4105 72.8496,338.4279 157.6871,347.6494 C 181.6629,350.4158 204.7166,348.5715 225.9260,343.9608 C 248.0575,381.7688 295.0870,411.2775 352.2601,417.7325 C 402.0560,423.2654 448.1634,410.3554 479.5164,386.3795 C 503.4922,402.9782 533.0009,414.0439 567.1203,418.6547 C 639.0478,426.0319 702.6759,396.5232 725.7296,348.5715 C 772.7591,333.8172 806.8785,300.6199 811.4893,258.2011 C 818.8664,194.5730 756.1604,135.5556 672.2451,125.4120 " stroke="#0054A6" stroke-width="9.2215" stroke-linecap="round" stroke-linejoin="round" fill="none"/>
        </g>
        <g transform="matrix(1.0000 0.0000 0.0000 1.0000 0.0000 0.0000)">
</g>
      </g>
      <!--emf-blob end-->
    </g>
  </g>
</svg>
