<svg xmlns="http://www.w3.org/2000/svg" xmlns:xlink="http://www.w3.org/1999/xlink" version="1.1" width="30.4457000000" height="41.5488000000">
  <title><![CDATA[Database]]></title>
  <g transform=" scale(1.000000) ">
    <text xmlns="http://www.w3.org/2000/svg" x="5.5911" y="41.5488">
      <tspan font-family="Arial" font-size="4.5000" fill="#000000" fill-opacity="1.0000" stroke-opacity="1.0000">
Database</tspan>
    </text>
    <!--converted by libvisio2svg-->
    <g transform=" translate(-1.178100,-1.185200) ">
      <!--emf-blob start-->
      <g transform="translate(0.9629, 0.9629)">
        <path d="M 30.8143,20.2219 L 30.8143,20.2219 L 30.8143,20.2219 Z M 30.8143,20.2219 L 30.8143,5.7777 L 1.9259,5.7777 L 1.9259,6.7406 L 1.9259,9.6295 L 1.9259,13.4813 L 1.9259,20.2219 L 1.9259,21.1848 L 1.9259,22.1478 L 1.9259,22.1478 C 1.9259,22.1478 1.9259,22.1478 1.9259,22.1478 L 1.9259,25.0366 L 1.9259,29.8514 L 1.9259,36.5920 C 1.9259,40.4438 9.6295,41.4067 16.3701,41.4067 C 23.1107,41.4067 30.8143,40.4438 30.8143,36.5920 L 30.8143,20.2219 L 30.8143,20.2219 Z " fill="none" stroke="none"/>
        <defs>
          <clipPath id="clip-1096689772">
            <path d="M 30.8143,20.2219 L 30.8143,20.2219 L 30.8143,20.2219 M 30.8143,20.2219 L 30.8143,5.7777 L 1.9259,5.7777 L 1.9259,6.7406 L 1.9259,9.6295 L 1.9259,13.4813 L 1.9259,20.2219 L 1.9259,21.1848 L 1.9259,22.1478 L 1.9259,22.1478 C 1.9259,22.1478 1.9259,22.1478 1.9259,22.1478 L 1.9259,25.0366 L 1.9259,29.8514 L 1.9259,36.5920 C 1.9259,40.4438 9.6295,41.4067 16.3701,41.4067 C 23.1107,41.4067 30.8143,40.4438 30.8143,36.5920 L 30.8143,20.2219 L 30.8143,20.2219 Z"/>
          </clipPath>
        </defs>
        <path clip-path="url(#clip-1096689772)" d="M 0.9629,4.8147 L 0.9629,41.4067 L 1.9259,41.4067 L 1.9259,4.8147 L 0.9629,4.8147 Z" stroke-width="1px" stroke="#5A5A5A" fill="#5A5A5A"/>
        <path clip-path="url(#clip-1096689772)" d="M 1.9259,4.8147 L 1.9259,41.4067 L 2.8888,41.4067 L 2.8888,4.8147 L 1.9259,4.8147 Z" stroke-width="1px" stroke="#606060" fill="#606060"/>
        <path clip-path="url(#clip-1096689772)" d="M 2.8888,4.8147 L 2.8888,41.4067 L 3.8518,41.4067 L 3.8518,4.8147 L 2.8888,4.8147 Z" stroke-width="1px" stroke="#686868" fill="#686868"/>
        <path clip-path="url(#clip-1096689772)" d="M 3.8518,4.8147 L 3.8518,41.4067 L 4.8147,41.4067 L 4.8147,4.8147 L 3.8518,4.8147 Z" stroke-width="1px" stroke="#6F6F6F" fill="#6F6F6F"/>
        <path clip-path="url(#clip-1096689772)" d="M 4.8147,4.8147 L 4.8147,41.4067 L 5.7777,41.4067 L 5.7777,4.8147 L 4.8147,4.8147 Z" stroke-width="1px" stroke="#767676" fill="#767676"/>
        <path clip-path="url(#clip-1096689772)" d="M 5.7777,4.8147 L 5.7777,41.4067 L 6.7406,41.4067 L 6.7406,4.8147 L 5.7777,4.8147 Z" stroke-width="1px" stroke="#7E7E7E" fill="#7E7E7E"/>
        <path clip-path="url(#clip-1096689772)" d="M 6.7406,4.8147 L 6.7406,41.4067 L 7.7036,41.4067 L 7.7036,4.8147 L 6.7406,4.8147 Z" stroke-width="1px" stroke="#868686" fill="#868686"/>
        <path clip-path="url(#clip-1096689772)" d="M 7.7036,4.8147 L 7.7036,41.4067 L 8.6665,41.4067 L 8.6665,4.8147 L 7.7036,4.8147 Z" stroke-width="1px" stroke="#8D8D8D" fill="#8D8D8D"/>
        <path clip-path="url(#clip-1096689772)" d="M 8.6665,4.8147 L 8.6665,41.4067 L 9.6295,41.4067 L 9.6295,4.8147 L 8.6665,4.8147 Z" stroke-width="1px" stroke="#959595" fill="#959595"/>
        <path clip-path="url(#clip-1096689772)" d="M 9.6295,4.8147 L 9.6295,41.4067 L 10.5924,41.4067 L 10.5924,4.8147 L 9.6295,4.8147 Z" stroke-width="1px" stroke="#9D9D9D" fill="#9D9D9D"/>
        <path clip-path="url(#clip-1096689772)" d="M 10.5924,4.8147 L 10.5924,41.4067 L 11.5554,41.4067 L 11.5554,4.8147 L 10.5924,4.8147 Z" stroke-width="1px" stroke="#A4A4A4" fill="#A4A4A4"/>
        <path clip-path="url(#clip-1096689772)" d="M 11.5554,4.8147 L 11.5554,41.4067 L 12.5183,41.4067 L 12.5183,4.8147 L 11.5554,4.8147 Z" stroke-width="1px" stroke="#ACACAC" fill="#ACACAC"/>
        <path clip-path="url(#clip-1096689772)" d="M 12.5183,4.8147 L 12.5183,41.4067 L 13.4813,41.4067 L 13.4813,4.8147 L 12.5183,4.8147 Z" stroke-width="1px" stroke="#B3B3B3" fill="#B3B3B3"/>
        <path clip-path="url(#clip-1096689772)" d="M 13.4813,4.8147 L 13.4813,41.4067 L 14.4442,41.4067 L 14.4442,4.8147 L 13.4813,4.8147 Z" stroke-width="1px" stroke="#BBBBBB" fill="#BBBBBB"/>
        <path clip-path="url(#clip-1096689772)" d="M 14.4442,4.8147 L 14.4442,41.4067 L 15.4072,41.4067 L 15.4072,4.8147 L 14.4442,4.8147 Z" stroke-width="1px" stroke="#C3C3C3" fill="#C3C3C3"/>
        <path clip-path="url(#clip-1096689772)" d="M 15.4072,4.8147 L 15.4072,41.4067 L 16.3701,41.4067 L 16.3701,4.8147 L 15.4072,4.8147 Z" stroke-width="1px" stroke="#CACACA" fill="#CACACA"/>
        <path clip-path="url(#clip-1096689772)" d="M 16.3701,4.8147 L 16.3701,41.4067 L 17.3330,41.4067 L 17.3330,4.8147 L 16.3701,4.8147 Z" stroke-width="1px" stroke="#C8C8C8" fill="#C8C8C8"/>
        <path clip-path="url(#clip-1096689772)" d="M 17.3330,4.8147 L 17.3330,41.4067 L 18.2960,41.4067 L 18.2960,4.8147 L 17.3330,4.8147 Z" stroke-width="1px" stroke="#C1C1C1" fill="#C1C1C1"/>
        <path clip-path="url(#clip-1096689772)" d="M 18.2960,4.8147 L 18.2960,41.4067 L 19.2589,41.4067 L 19.2589,4.8147 L 18.2960,4.8147 Z" stroke-width="1px" stroke="#B9B9B9" fill="#B9B9B9"/>
        <path clip-path="url(#clip-1096689772)" d="M 19.2589,4.8147 L 19.2589,41.4067 L 20.2219,41.4067 L 20.2219,4.8147 L 19.2589,4.8147 Z" stroke-width="1px" stroke="#B2B2B2" fill="#B2B2B2"/>
        <path clip-path="url(#clip-1096689772)" d="M 20.2219,4.8147 L 20.2219,41.4067 L 21.1848,41.4067 L 21.1848,4.8147 L 20.2219,4.8147 Z" stroke-width="1px" stroke="#AAAAAA" fill="#AAAAAA"/>
        <path clip-path="url(#clip-1096689772)" d="M 21.1848,4.8147 L 21.1848,41.4067 L 22.1478,41.4067 L 22.1478,4.8147 L 21.1848,4.8147 Z" stroke-width="1px" stroke="#A3A3A3" fill="#A3A3A3"/>
        <path clip-path="url(#clip-1096689772)" d="M 22.1478,4.8147 L 22.1478,41.4067 L 23.1107,41.4067 L 23.1107,4.8147 L 22.1478,4.8147 Z" stroke-width="1px" stroke="#9B9B9B" fill="#9B9B9B"/>
        <path clip-path="url(#clip-1096689772)" d="M 23.1107,4.8147 L 23.1107,41.4067 L 24.0737,41.4067 L 24.0737,4.8147 L 23.1107,4.8147 Z" stroke-width="1px" stroke="#939393" fill="#939393"/>
        <path clip-path="url(#clip-1096689772)" d="M 24.0737,4.8147 L 24.0737,41.4067 L 25.0366,41.4067 L 25.0366,4.8147 L 24.0737,4.8147 Z" stroke-width="1px" stroke="#8C8C8C" fill="#8C8C8C"/>
        <path clip-path="url(#clip-1096689772)" d="M 25.0366,4.8147 L 25.0366,41.4067 L 25.9996,41.4067 L 25.9996,4.8147 L 25.0366,4.8147 Z" stroke-width="1px" stroke="#848484" fill="#848484"/>
        <path clip-path="url(#clip-1096689772)" d="M 25.9996,4.8147 L 25.9996,41.4067 L 26.9625,41.4067 L 26.9625,4.8147 L 25.9996,4.8147 Z" stroke-width="1px" stroke="#7C7C7C" fill="#7C7C7C"/>
        <path clip-path="url(#clip-1096689772)" d="M 26.9625,4.8147 L 26.9625,41.4067 L 27.9255,41.4067 L 27.9255,4.8147 L 26.9625,4.8147 Z" stroke-width="1px" stroke="#757575" fill="#757575"/>
        <path clip-path="url(#clip-1096689772)" d="M 27.9255,4.8147 L 27.9255,41.4067 L 28.8884,41.4067 L 28.8884,4.8147 L 27.9255,4.8147 Z" stroke-width="1px" stroke="#6D6D6D" fill="#6D6D6D"/>
        <path clip-path="url(#clip-1096689772)" d="M 28.8884,4.8147 L 28.8884,41.4067 L 29.8514,41.4067 L 29.8514,4.8147 L 28.8884,4.8147 Z" stroke-width="1px" stroke="#666666" fill="#666666"/>
        <path clip-path="url(#clip-1096689772)" d="M 29.8514,4.8147 L 29.8514,41.4067 L 30.8143,41.4067 L 30.8143,4.8147 L 29.8514,4.8147 Z" stroke-width="1px" stroke="#5E5E5E" fill="#5E5E5E"/>
        <g transform="matrix(0.0625 0.0000 0.0000 0.0625 0.0000 0.0000)">
          <path d="M 487.2512,317.7725 L 487.2512,317.7725 M 487.2512,317.7725 L 487.2512,80.8876 L 18.2960,80.8876 L 18.2960,96.2947 L 18.2960,141.5532 L 18.2960,215.7001 L 18.2960,319.6984 L 18.2960,332.2167 L 18.2960,344.7350 L 18.2960,344.7350 C 18.2960,345.6980 18.2960,346.6609 18.2960,347.6239 L 18.2960,398.6601 L 18.2960,476.6588 L 18.2960,581.6200 C 18.2960,634.5821 139.6273,658.6558 253.2551,658.6558 C 365.9199,658.6558 487.2512,634.5821 487.2512,581.6200 L 487.2512,317.7725 " stroke="#0054A6" stroke-width="7.7036" stroke-linecap="round" stroke-linejoin="round" fill="none"/>
        </g>
        <g transform="matrix(1.0000 0.0000 0.0000 1.0000 0.0000 0.0000)">
          <path d="M 11.5554,11.5554 C 10.5924,11.5554 9.6295,11.5554 8.6665,11.5554 L 8.6665,14.4442 C 9.6295,14.4442 10.5924,14.4442 11.5554,14.4442 L 11.5554,11.5554 Z M 17.3330,11.5554 C 17.3330,11.5554 16.3701,11.5554 16.3701,11.5554 C 15.4072,11.5554 15.4072,11.5554 14.4442,11.5554 L 14.4442,14.4442 C 15.4072,14.4442 15.4072,14.4442 16.3701,14.4442 C 16.3701,14.4442 17.3330,14.4442 17.3330,14.4442 L 17.3330,11.5554 Z M 5.7777,16.3701 C 4.8147,16.3701 3.8518,16.3701 2.8888,15.4072 L 2.8888,18.2960 C 3.8518,19.2589 4.8147,19.2589 5.7777,19.2589 L 5.7777,16.3701 Z M 5.7777,10.5924 C 4.8147,10.5924 3.8518,10.5924 2.8888,9.6295 L 2.8888,12.5183 C 3.8518,12.5183 4.8147,13.4813 5.7777,13.4813 L 5.7777,10.5924 Z M 11.5554,17.3330 C 10.5924,17.3330 9.6295,17.3330 8.6665,17.3330 L 8.6665,20.2219 C 9.6295,20.2219 10.5924,20.2219 11.5554,20.2219 L 11.5554,17.3330 Z M 17.3330,18.2960 C 17.3330,18.2960 16.3701,18.2960 16.3701,18.2960 C 15.4072,18.2960 15.4072,18.2960 14.4442,18.2960 L 14.4442,20.2219 C 15.4072,20.2219 15.4072,20.2219 16.3701,20.2219 C 16.3701,20.2219 17.3330,20.2219 17.3330,20.2219 L 17.3330,18.2960 Z M 5.7777,23.1107 C 4.8147,22.1478 3.8518,22.1478 2.8888,21.1848 L 2.8888,24.0737 C 3.8518,25.0366 4.8147,25.0366 5.7777,25.0366 L 5.7777,23.1107 Z M 11.5554,24.0737 C 10.5924,23.1107 9.6295,23.1107 8.6665,23.1107 L 8.6665,25.9996 C 9.6295,25.9996 10.5924,25.9996 11.5554,25.9996 L 11.5554,24.0737 Z M 17.3330,24.0737 C 17.3330,24.0737 16.3701,24.0737 16.3701,24.0737 C 15.4072,24.0737 15.4072,24.0737 14.4442,24.0737 L 14.4442,25.9996 C 15.4072,26.9625 15.4072,26.9625 16.3701,26.9625 C 16.3701,26.9625 17.3330,26.9625 17.3330,25.9996 L 17.3330,24.0737 Z M 17.3330,29.8514 C 17.3330,29.8514 16.3701,29.8514 16.3701,29.8514 C 15.4072,29.8514 15.4072,29.8514 14.4442,29.8514 L 14.4442,32.7402 C 15.4072,32.7402 15.4072,32.7402 16.3701,32.7402 C 16.3701,32.7402 17.3330,32.7402 17.3330,32.7402 L 17.3330,29.8514 Z M 11.5554,35.6290 C 10.5924,35.6290 9.6295,35.6290 8.6665,35.6290 L 8.6665,37.5549 C 9.6295,38.5179 10.5924,38.5179 11.5554,38.5179 L 11.5554,35.6290 Z M 11.5554,29.8514 C 10.5924,29.8514 9.6295,29.8514 8.6665,28.8884 L 8.6665,31.7773 C 9.6295,31.7773 10.5924,31.7773 11.5554,32.7402 L 11.5554,29.8514 Z M 17.3330,35.6290 C 17.3330,35.6290 16.3701,35.6290 16.3701,35.6290 C 15.4072,35.6290 15.4072,35.6290 14.4442,35.6290 L 14.4442,38.5179 C 15.4072,38.5179 15.4072,38.5179 16.3701,38.5179 C 16.3701,38.5179 17.3330,38.5179 17.3330,38.5179 L 17.3330,35.6290 Z M 5.7777,34.6661 C 4.8147,34.6661 3.8518,33.7031 2.8888,33.7031 L 2.8888,36.5920 C 3.8518,36.5920 4.8147,36.5920 5.7777,37.5549 L 5.7777,34.6661 Z M 5.7777,28.8884 C 4.8147,27.9255 3.8518,27.9255 2.8888,27.9255 L 2.8888,29.8514 C 3.8518,30.8143 4.8147,30.8143 5.7777,31.7773 L 5.7777,28.8884 Z M 23.1107,11.5554 C 22.1478,11.5554 21.1848,11.5554 20.2219,11.5554 L 20.2219,14.4442 C 21.1848,14.4442 22.1478,14.4442 23.1107,14.4442 L 23.1107,11.5554 Z M 25.9996,13.4813 C 27.9255,13.4813 28.8884,12.5183 28.8884,12.5183 L 28.8884,9.6295 C 28.8884,10.5924 27.9255,10.5924 25.9996,10.5924 L 25.9996,13.4813 Z M 25.9996,16.3701 L 25.9996,19.2589 C 27.9255,19.2589 28.8884,19.2589 28.8884,18.2960 L 28.8884,15.4072 C 28.8884,16.3701 27.9255,16.3701 25.9996,16.3701 Z M 23.1107,17.3330 C 22.1478,17.3330 21.1848,17.3330 20.2219,17.3330 L 20.2219,20.2219 C 21.1848,20.2219 22.1478,20.2219 23.1107,20.2219 L 23.1107,17.3330 Z M 25.9996,23.1107 L 25.9996,25.0366 C 27.9255,25.0366 28.8884,25.0366 28.8884,24.0737 L 28.8884,21.1848 C 28.8884,22.1478 27.9255,22.1478 25.9996,23.1107 Z M 23.1107,23.1107 C 22.1478,23.1107 21.1848,23.1107 20.2219,24.0737 L 20.2219,25.9996 C 21.1848,25.9996 22.1478,25.9996 23.1107,25.9996 L 23.1107,23.1107 Z M 25.9996,28.8884 L 25.9996,31.7773 C 27.9255,30.8143 28.8884,30.8143 28.8884,29.8514 L 28.8884,27.9255 C 28.8884,27.9255 27.9255,28.8884 25.9996,28.8884 Z M 23.1107,28.8884 C 22.1478,29.8514 21.1848,29.8514 20.2219,29.8514 L 20.2219,32.7402 C 21.1848,31.7773 22.1478,31.7773 23.1107,31.7773 L 23.1107,28.8884 Z M 23.1107,35.6290 C 22.1478,35.6290 21.1848,35.6290 20.2219,35.6290 L 20.2219,38.5179 C 21.1848,38.5179 22.1478,38.5179 23.1107,37.5549 L 23.1107,35.6290 Z M 25.9996,34.6661 L 25.9996,37.5549 C 27.9255,36.5920 28.8884,36.5920 28.8884,36.5920 L 28.8884,33.7031 C 28.8884,33.7031 27.9255,34.6661 25.9996,34.6661 Z " fill="none" stroke="none"/>
          <defs>
            <clipPath id="clip-2086206725">
              <path d="M 11.5554,11.5554 C 10.5924,11.5554 9.6295,11.5554 8.6665,11.5554 L 8.6665,14.4442 C 9.6295,14.4442 10.5924,14.4442 11.5554,14.4442 L 11.5554,11.5554 M 17.3330,11.5554 C 17.3330,11.5554 16.3701,11.5554 16.3701,11.5554 C 15.4072,11.5554 15.4072,11.5554 14.4442,11.5554 L 14.4442,14.4442 C 15.4072,14.4442 15.4072,14.4442 16.3701,14.4442 C 16.3701,14.4442 17.3330,14.4442 17.3330,14.4442 L 17.3330,11.5554 M 5.7777,16.3701 C 4.8147,16.3701 3.8518,16.3701 2.8888,15.4072 L 2.8888,18.2960 C 3.8518,19.2589 4.8147,19.2589 5.7777,19.2589 L 5.7777,16.3701 M 5.7777,10.5924 C 4.8147,10.5924 3.8518,10.5924 2.8888,9.6295 L 2.8888,12.5183 C 3.8518,12.5183 4.8147,13.4813 5.7777,13.4813 L 5.7777,10.5924 M 11.5554,17.3330 C 10.5924,17.3330 9.6295,17.3330 8.6665,17.3330 L 8.6665,20.2219 C 9.6295,20.2219 10.5924,20.2219 11.5554,20.2219 L 11.5554,17.3330 M 17.3330,18.2960 C 17.3330,18.2960 16.3701,18.2960 16.3701,18.2960 C 15.4072,18.2960 15.4072,18.2960 14.4442,18.2960 L 14.4442,20.2219 C 15.4072,20.2219 15.4072,20.2219 16.3701,20.2219 C 16.3701,20.2219 17.3330,20.2219 17.3330,20.2219 L 17.3330,18.2960 M 5.7777,23.1107 C 4.8147,22.1478 3.8518,22.1478 2.8888,21.1848 L 2.8888,24.0737 C 3.8518,25.0366 4.8147,25.0366 5.7777,25.0366 L 5.7777,23.1107 M 11.5554,24.0737 C 10.5924,23.1107 9.6295,23.1107 8.6665,23.1107 L 8.6665,25.9996 C 9.6295,25.9996 10.5924,25.9996 11.5554,25.9996 L 11.5554,24.0737 M 17.3330,24.0737 C 17.3330,24.0737 16.3701,24.0737 16.3701,24.0737 C 15.4072,24.0737 15.4072,24.0737 14.4442,24.0737 L 14.4442,25.9996 C 15.4072,26.9625 15.4072,26.9625 16.3701,26.9625 C 16.3701,26.9625 17.3330,26.9625 17.3330,25.9996 L 17.3330,24.0737 M 17.3330,29.8514 C 17.3330,29.8514 16.3701,29.8514 16.3701,29.8514 C 15.4072,29.8514 15.4072,29.8514 14.4442,29.8514 L 14.4442,32.7402 C 15.4072,32.7402 15.4072,32.7402 16.3701,32.7402 C 16.3701,32.7402 17.3330,32.7402 17.3330,32.7402 L 17.3330,29.8514 M 11.5554,35.6290 C 10.5924,35.6290 9.6295,35.6290 8.6665,35.6290 L 8.6665,37.5549 C 9.6295,38.5179 10.5924,38.5179 11.5554,38.5179 L 11.5554,35.6290 M 11.5554,29.8514 C 10.5924,29.8514 9.6295,29.8514 8.6665,28.8884 L 8.6665,31.7773 C 9.6295,31.7773 10.5924,31.7773 11.5554,32.7402 L 11.5554,29.8514 M 17.3330,35.6290 C 17.3330,35.6290 16.3701,35.6290 16.3701,35.6290 C 15.4072,35.6290 15.4072,35.6290 14.4442,35.6290 L 14.4442,38.5179 C 15.4072,38.5179 15.4072,38.5179 16.3701,38.5179 C 16.3701,38.5179 17.3330,38.5179 17.3330,38.5179 L 17.3330,35.6290 M 5.7777,34.6661 C 4.8147,34.6661 3.8518,33.7031 2.8888,33.7031 L 2.8888,36.5920 C 3.8518,36.5920 4.8147,36.5920 5.7777,37.5549 L 5.7777,34.6661 M 5.7777,28.8884 C 4.8147,27.9255 3.8518,27.9255 2.8888,27.9255 L 2.8888,29.8514 C 3.8518,30.8143 4.8147,30.8143 5.7777,31.7773 L 5.7777,28.8884 M 23.1107,11.5554 C 22.1478,11.5554 21.1848,11.5554 20.2219,11.5554 L 20.2219,14.4442 C 21.1848,14.4442 22.1478,14.4442 23.1107,14.4442 L 23.1107,11.5554 M 25.9996,13.4813 C 27.9255,13.4813 28.8884,12.5183 28.8884,12.5183 L 28.8884,9.6295 C 28.8884,10.5924 27.9255,10.5924 25.9996,10.5924 L 25.9996,13.4813 M 25.9996,16.3701 L 25.9996,19.2589 C 27.9255,19.2589 28.8884,19.2589 28.8884,18.2960 L 28.8884,15.4072 C 28.8884,16.3701 27.9255,16.3701 25.9996,16.3701 M 23.1107,17.3330 C 22.1478,17.3330 21.1848,17.3330 20.2219,17.3330 L 20.2219,20.2219 C 21.1848,20.2219 22.1478,20.2219 23.1107,20.2219 L 23.1107,17.3330 M 25.9996,23.1107 L 25.9996,25.0366 C 27.9255,25.0366 28.8884,25.0366 28.8884,24.0737 L 28.8884,21.1848 C 28.8884,22.1478 27.9255,22.1478 25.9996,23.1107 M 23.1107,23.1107 C 22.1478,23.1107 21.1848,23.1107 20.2219,24.0737 L 20.2219,25.9996 C 21.1848,25.9996 22.1478,25.9996 23.1107,25.9996 L 23.1107,23.1107 M 25.9996,28.8884 L 25.9996,31.7773 C 27.9255,30.8143 28.8884,30.8143 28.8884,29.8514 L 28.8884,27.9255 C 28.8884,27.9255 27.9255,28.8884 25.9996,28.8884 M 23.1107,28.8884 C 22.1478,29.8514 21.1848,29.8514 20.2219,29.8514 L 20.2219,32.7402 C 21.1848,31.7773 22.1478,31.7773 23.1107,31.7773 L 23.1107,28.8884 M 23.1107,35.6290 C 22.1478,35.6290 21.1848,35.6290 20.2219,35.6290 L 20.2219,38.5179 C 21.1848,38.5179 22.1478,38.5179 23.1107,37.5549 L 23.1107,35.6290 M 25.9996,34.6661 L 25.9996,37.5549 C 27.9255,36.5920 28.8884,36.5920 28.8884,36.5920 L 28.8884,33.7031 C 28.8884,33.7031 27.9255,34.6661 25.9996,34.6661 Z"/>
            </clipPath>
          </defs>
          <path clip-path="url(#clip-2086206725)" d="M 1.9259,8.6665 L 1.9259,37.5549 L 2.8888,37.5549 L 2.8888,8.6665 L 1.9259,8.6665 Z" stroke-width="1px" stroke="#2A5487" fill="#2A5487"/>
          <path clip-path="url(#clip-2086206725)" d="M 2.8888,8.6665 L 2.8888,37.5549 L 3.8518,37.5549 L 3.8518,8.6665 L 2.8888,8.6665 Z" stroke-width="1px" stroke="#295283" fill="#295283"/>
          <path clip-path="url(#clip-2086206725)" d="M 3.8518,8.6665 L 3.8518,37.5549 L 4.8147,37.5549 L 4.8147,8.6665 L 3.8518,8.6665 Z" stroke-width="1px" stroke="#2B5689" fill="#2B5689"/>
          <path clip-path="url(#clip-2086206725)" d="M 4.8147,8.6665 L 4.8147,37.5549 L 5.7777,37.5549 L 5.7777,8.6665 L 4.8147,8.6665 Z" stroke-width="1px" stroke="#2D5A8F" fill="#2D5A8F"/>
          <path clip-path="url(#clip-2086206725)" d="M 5.7777,8.6665 L 5.7777,37.5549 L 6.7406,37.5549 L 6.7406,8.6665 L 5.7777,8.6665 Z" stroke-width="1px" stroke="#305D95" fill="#305D95"/>
          <path clip-path="url(#clip-2086206725)" d="M 6.7406,8.6665 L 6.7406,37.5549 L 7.7036,37.5549 L 7.7036,8.6665 L 6.7406,8.6665 Z" stroke-width="1px" stroke="#32619A" fill="#32619A"/>
          <path clip-path="url(#clip-2086206725)" d="M 7.7036,8.6665 L 7.7036,37.5549 L 8.6665,37.5549 L 8.6665,8.6665 L 7.7036,8.6665 Z" stroke-width="1px" stroke="#3466A0" fill="#3466A0"/>
          <path clip-path="url(#clip-2086206725)" d="M 8.6665,8.6665 L 8.6665,37.5549 L 9.6295,37.5549 L 9.6295,8.6665 L 8.6665,8.6665 Z" stroke-width="1px" stroke="#376AA6" fill="#376AA6"/>
          <path clip-path="url(#clip-2086206725)" d="M 9.6295,8.6665 L 9.6295,37.5549 L 10.5924,37.5549 L 10.5924,8.6665 L 9.6295,8.6665 Z" stroke-width="1px" stroke="#396EAC" fill="#396EAC"/>
          <path clip-path="url(#clip-2086206725)" d="M 10.5924,8.6665 L 10.5924,37.5549 L 11.5554,37.5549 L 11.5554,8.6665 L 10.5924,8.6665 Z" stroke-width="1px" stroke="#3B71B1" fill="#3B71B1"/>
          <path clip-path="url(#clip-2086206725)" d="M 11.5554,8.6665 L 11.5554,37.5549 L 12.5183,37.5549 L 12.5183,8.6665 L 11.5554,8.6665 Z" stroke-width="1px" stroke="#3E75B7" fill="#3E75B7"/>
          <path clip-path="url(#clip-2086206725)" d="M 12.5183,8.6665 L 12.5183,37.5549 L 13.4813,37.5549 L 13.4813,8.6665 L 12.5183,8.6665 Z" stroke-width="1px" stroke="#4079BD" fill="#4079BD"/>
          <path clip-path="url(#clip-2086206725)" d="M 13.4813,8.6665 L 13.4813,37.5549 L 14.4442,37.5549 L 14.4442,8.6665 L 13.4813,8.6665 Z" stroke-width="1px" stroke="#427DC2" fill="#427DC2"/>
          <path clip-path="url(#clip-2086206725)" d="M 14.4442,8.6665 L 14.4442,37.5549 L 15.4072,37.5549 L 15.4072,8.6665 L 14.4442,8.6665 Z" stroke-width="1px" stroke="#4580C8" fill="#4580C8"/>
          <path clip-path="url(#clip-2086206725)" d="M 15.4072,8.6665 L 15.4072,37.5549 L 16.3701,37.5549 L 16.3701,8.6665 L 15.4072,8.6665 Z" stroke-width="1px" stroke="#4784CE" fill="#4784CE"/>
          <path clip-path="url(#clip-2086206725)" d="M 16.3701,8.6665 L 16.3701,37.5549 L 17.3330,37.5549 L 17.3330,8.6665 L 16.3701,8.6665 Z" stroke-width="1px" stroke="#4783CC" fill="#4783CC"/>
          <path clip-path="url(#clip-2086206725)" d="M 17.3330,8.6665 L 17.3330,37.5549 L 18.2960,37.5549 L 18.2960,8.6665 L 17.3330,8.6665 Z" stroke-width="1px" stroke="#447FC7" fill="#447FC7"/>
          <path clip-path="url(#clip-2086206725)" d="M 18.2960,8.6665 L 18.2960,37.5549 L 19.2589,37.5549 L 19.2589,8.6665 L 18.2960,8.6665 Z" stroke-width="1px" stroke="#427CC1" fill="#427CC1"/>
          <path clip-path="url(#clip-2086206725)" d="M 19.2589,8.6665 L 19.2589,37.5549 L 20.2219,37.5549 L 20.2219,8.6665 L 19.2589,8.6665 Z" stroke-width="1px" stroke="#4078BC" fill="#4078BC"/>
          <path clip-path="url(#clip-2086206725)" d="M 20.2219,8.6665 L 20.2219,37.5549 L 21.1848,37.5549 L 21.1848,8.6665 L 20.2219,8.6665 Z" stroke-width="1px" stroke="#3D74B6" fill="#3D74B6"/>
          <path clip-path="url(#clip-2086206725)" d="M 21.1848,8.6665 L 21.1848,37.5549 L 22.1478,37.5549 L 22.1478,8.6665 L 21.1848,8.6665 Z" stroke-width="1px" stroke="#3B70B0" fill="#3B70B0"/>
          <path clip-path="url(#clip-2086206725)" d="M 22.1478,8.6665 L 22.1478,37.5549 L 23.1107,37.5549 L 23.1107,8.6665 L 22.1478,8.6665 Z" stroke-width="1px" stroke="#386DAA" fill="#386DAA"/>
          <path clip-path="url(#clip-2086206725)" d="M 23.1107,8.6665 L 23.1107,37.5549 L 24.0737,37.5549 L 24.0737,8.6665 L 23.1107,8.6665 Z" stroke-width="1px" stroke="#3669A4" fill="#3669A4"/>
          <path clip-path="url(#clip-2086206725)" d="M 24.0737,8.6665 L 24.0737,37.5549 L 25.0366,37.5549 L 25.0366,8.6665 L 24.0737,8.6665 Z" stroke-width="1px" stroke="#34659E" fill="#34659E"/>
          <path clip-path="url(#clip-2086206725)" d="M 25.0366,8.6665 L 25.0366,37.5549 L 25.9996,37.5549 L 25.9996,8.6665 L 25.0366,8.6665 Z" stroke-width="1px" stroke="#316099" fill="#316099"/>
          <path clip-path="url(#clip-2086206725)" d="M 25.9996,8.6665 L 25.9996,37.5549 L 26.9625,37.5549 L 26.9625,8.6665 L 25.9996,8.6665 Z" stroke-width="1px" stroke="#2F5D94" fill="#2F5D94"/>
          <path clip-path="url(#clip-2086206725)" d="M 26.9625,8.6665 L 26.9625,37.5549 L 27.9255,37.5549 L 27.9255,8.6665 L 26.9625,8.6665 Z" stroke-width="1px" stroke="#2D598E" fill="#2D598E"/>
          <path clip-path="url(#clip-2086206725)" d="M 27.9255,8.6665 L 27.9255,37.5549 L 28.8884,37.5549 L 28.8884,8.6665 L 27.9255,8.6665 Z" stroke-width="1px" stroke="#2A5588" fill="#2A5588"/>
        </g>
        <g transform="matrix(0.0625 0.0000 0.0000 0.0625 0.0000 0.0000)">
          <path d="M 182.9599,181.0340 C 167.5528,180.0711 152.1456,178.1452 136.7385,176.2193 L 136.7385,219.5519 C 152.1456,221.4778 167.5528,223.4037 182.9599,224.3667 L 182.9599,181.0340 M 276.3658,183.9229 C 266.7363,183.9229 259.0328,183.9229 253.2551,183.9229 C 246.5144,183.9229 238.8109,183.9229 229.1814,183.9229 L 229.1814,226.2926 C 238.8109,227.2555 246.5144,227.2555 253.2551,227.2555 C 259.0328,227.2555 266.7363,227.2555 276.3658,226.2926 L 276.3658,183.9229 M 89.5541,261.9216 C 72.2210,257.1069 55.8509,251.3292 43.3326,243.6256 L 43.3326,286.9582 C 55.8509,294.6618 72.2210,300.4395 89.5541,305.2542 L 89.5541,261.9216 M 89.5541,167.5528 C 72.2210,162.7381 55.8509,155.9974 43.3326,149.2568 L 43.3326,191.6265 C 55.8509,199.3300 72.2210,206.0707 89.5541,209.9225 L 89.5541,167.5528 M 182.9599,276.3658 C 167.5528,275.4029 152.1456,273.4770 136.7385,271.5511 L 136.7385,314.8837 C 152.1456,316.8096 167.5528,318.7355 182.9599,319.6984 L 182.9599,276.3658 M 276.3658,278.2917 C 266.7363,279.2546 259.0328,279.2546 253.2551,279.2546 C 246.5144,279.2546 238.8109,279.2546 229.1814,278.2917 L 229.1814,321.6243 C 238.8109,321.6243 246.5144,321.6243 253.2551,321.6243 C 259.0328,321.6243 266.7363,321.6243 276.3658,321.6243 L 276.3658,278.2917 M 89.5541,357.2534 C 72.2210,352.4386 55.8509,346.6609 43.3326,338.9574 L 43.3326,382.2900 C 55.8509,389.9936 72.2210,395.7712 89.5541,400.5860 L 89.5541,357.2534 M 182.9599,371.6976 C 167.5528,370.7346 152.1456,368.8087 136.7385,366.8828 L 136.7385,409.2525 C 152.1456,412.1413 167.5528,413.1043 182.9599,415.0302 L 182.9599,371.6976 M 276.3658,373.6235 C 266.7363,373.6235 259.0328,373.6235 253.2551,373.6235 C 246.5144,373.6235 238.8109,373.6235 229.1814,373.6235 L 229.1814,416.9561 C 238.8109,416.9561 246.5144,416.9561 253.2551,416.9561 C 259.0328,416.9561 266.7363,416.9561 276.3658,416.9561 L 276.3658,373.6235 M 276.3658,468.9552 C 266.7363,468.9552 259.0328,468.9552 253.2551,468.9552 C 246.5144,468.9552 238.8109,468.9552 229.1814,468.9552 L 229.1814,512.2878 C 238.8109,512.2878 246.5144,512.2878 253.2551,512.2878 C 259.0328,512.2878 266.7363,512.2878 276.3658,512.2878 L 276.3658,468.9552 M 182.9599,561.3981 C 167.5528,560.4352 152.1456,558.5093 136.7385,556.5834 L 136.7385,599.9160 C 152.1456,601.8419 167.5528,603.7678 182.9599,604.7308 L 182.9599,561.3981 M 182.9599,467.0293 C 167.5528,465.1034 152.1456,464.1405 136.7385,461.2516 L 136.7385,504.5843 C 152.1456,506.5102 167.5528,508.4360 182.9599,509.3990 L 182.9599,467.0293 M 276.3658,564.2870 C 266.7363,564.2870 259.0328,564.2870 253.2551,564.2870 C 246.5144,564.2870 238.8109,564.2870 229.1814,564.2870 L 229.1814,606.6566 C 238.8109,607.6196 246.5144,607.6196 253.2551,607.6196 C 259.0328,607.6196 266.7363,607.6196 276.3658,606.6566 L 276.3658,564.2870 M 89.5541,547.9169 C 72.2210,543.1021 55.8509,536.3615 43.3326,528.6579 L 43.3326,571.9906 C 55.8509,579.6941 72.2210,585.4718 89.5541,590.2865 L 89.5541,547.9169 M 89.5541,452.5851 C 72.2210,447.7704 55.8509,441.9927 43.3326,434.2891 L 43.3326,476.6588 C 55.8509,484.3624 72.2210,491.1030 89.5541,495.9177 L 89.5541,452.5851 M 369.7717,176.2193 C 353.4016,178.1452 337.9944,180.0711 322.5873,181.0340 L 322.5873,224.3667 C 337.9944,223.4037 353.4016,221.4778 369.7717,219.5519 L 369.7717,176.2193 M 415.9931,209.9225 C 434.2891,206.0707 449.6963,199.3300 462.2146,191.6265 L 462.2146,149.2568 C 449.6963,156.9604 434.2891,162.7381 415.9931,167.5528 L 415.9931,209.9225 M 415.9931,261.9216 L 415.9931,305.2542 C 434.2891,300.4395 449.6963,294.6618 462.2146,286.9582 L 462.2146,243.6256 C 449.6963,251.3292 434.2891,258.0698 415.9931,261.9216 M 369.7717,271.5511 C 353.4016,273.4770 337.9944,275.4029 322.5873,276.3658 L 322.5873,319.6984 C 337.9944,318.7355 353.4016,316.8096 369.7717,314.8837 L 369.7717,271.5511 M 415.9931,357.2534 L 415.9931,400.5860 C 434.2891,395.7712 449.6963,389.9936 462.2146,382.2900 L 462.2146,338.9574 C 449.6963,346.6609 434.2891,352.4386 415.9931,357.2534 M 369.7717,366.8828 C 353.4016,368.8087 337.9944,370.7346 322.5873,371.6976 L 322.5873,415.0302 C 337.9944,413.1043 353.4016,412.1413 369.7717,409.2525 L 369.7717,366.8828 M 415.9931,452.5851 L 415.9931,495.9177 C 434.2891,491.1030 449.6963,485.3253 462.2146,477.6217 L 462.2146,434.2891 C 449.6963,441.9927 434.2891,447.7704 415.9931,452.5851 M 369.7717,461.2516 C 353.4016,464.1405 337.9944,465.1034 322.5873,467.0293 L 322.5873,509.3990 C 337.9944,508.4360 353.4016,506.5102 369.7717,504.5843 L 369.7717,461.2516 M 369.7717,556.5834 C 353.4016,558.5093 337.9944,560.4352 322.5873,561.3981 L 322.5873,604.7308 C 337.9944,603.7678 353.4016,601.8419 369.7717,599.9160 L 369.7717,556.5834 M 415.9931,547.9169 L 415.9931,590.2865 C 434.2891,585.4718 449.6963,579.6941 462.2146,571.9906 L 462.2146,529.6209 C 449.6963,537.3245 434.2891,543.1021 415.9931,547.9169 " stroke="#3F618B" stroke-width="0.9629" stroke-linecap="round" stroke-linejoin="round" fill="none"/>
        </g>
        <g transform="matrix(1.0000 0.0000 0.0000 1.0000 0.0000 0.0000)">
          <path d="M 1.9259,5.7777 C 1.9259,8.6665 12.5183,9.6295 16.3701,9.6295 C 19.2589,9.6295 30.8143,8.6665 30.8143,5.7777 C 30.8143,1.9259 19.2589,1.9259 16.3701,1.9259 C 12.5183,1.9259 1.9259,1.9259 1.9259,5.7777 " fill="none" stroke="none"/>
          <defs>
            <clipPath id="clip-601385644">
              <path d="M 1.9259,5.7777 C 1.9259,8.6665 12.5183,9.6295 16.3701,9.6295 C 19.2589,9.6295 30.8143,8.6665 30.8143,5.7777 C 30.8143,1.9259 19.2589,1.9259 16.3701,1.9259 C 12.5183,1.9259 1.9259,1.9259 1.9259,5.7777 Z"/>
            </clipPath>
          </defs>
          <path clip-path="url(#clip-601385644)" d="M 0.9629,0.9629 L 0.9629,9.6295 L 1.9259,9.6295 L 1.9259,0.9629 L 0.9629,0.9629 Z" stroke-width="1px" stroke="#B3B3B3" fill="#B3B3B3"/>
          <path clip-path="url(#clip-601385644)" d="M 1.9259,0.9629 L 1.9259,9.6295 L 2.8888,9.6295 L 2.8888,0.9629 L 1.9259,0.9629 Z" stroke-width="1px" stroke="#5C5C5C" fill="#5C5C5C"/>
          <path clip-path="url(#clip-601385644)" d="M 2.8888,0.9629 L 2.8888,9.6295 L 3.8518,9.6295 L 3.8518,0.9629 L 2.8888,0.9629 Z" stroke-width="1px" stroke="#5F5F5F" fill="#5F5F5F"/>
          <path clip-path="url(#clip-601385644)" d="M 3.8518,0.9629 L 3.8518,9.6295 L 4.8147,9.6295 L 4.8147,0.9629 L 3.8518,0.9629 Z" stroke-width="1px" stroke="#616161" fill="#616161"/>
          <path clip-path="url(#clip-601385644)" d="M 4.8147,0.9629 L 4.8147,9.6295 L 5.7777,9.6295 L 5.7777,0.9629 L 4.8147,0.9629 Z" stroke-width="1px" stroke="#646464" fill="#646464"/>
          <path clip-path="url(#clip-601385644)" d="M 5.7777,0.9629 L 5.7777,9.6295 L 6.7406,9.6295 L 6.7406,0.9629 L 5.7777,0.9629 Z" stroke-width="1px" stroke="#676767" fill="#676767"/>
          <path clip-path="url(#clip-601385644)" d="M 6.7406,0.9629 L 6.7406,9.6295 L 7.7036,9.6295 L 7.7036,0.9629 L 6.7406,0.9629 Z" stroke-width="1px" stroke="#6A6A6A" fill="#6A6A6A"/>
          <path clip-path="url(#clip-601385644)" d="M 7.7036,0.9629 L 7.7036,9.6295 L 8.6665,9.6295 L 8.6665,0.9629 L 7.7036,0.9629 Z" stroke-width="1px" stroke="#6E6E6E" fill="#6E6E6E"/>
          <path clip-path="url(#clip-601385644)" d="M 8.6665,0.9629 L 8.6665,9.6295 L 9.6295,9.6295 L 9.6295,0.9629 L 8.6665,0.9629 Z" stroke-width="1px" stroke="#717171" fill="#717171"/>
          <path clip-path="url(#clip-601385644)" d="M 9.6295,0.9629 L 9.6295,9.6295 L 10.5924,9.6295 L 10.5924,0.9629 L 9.6295,0.9629 Z" stroke-width="1px" stroke="#737373" fill="#737373"/>
          <path clip-path="url(#clip-601385644)" d="M 10.5924,0.9629 L 10.5924,9.6295 L 11.5554,9.6295 L 11.5554,0.9629 L 10.5924,0.9629 Z" stroke-width="1px" stroke="#767676" fill="#767676"/>
          <path clip-path="url(#clip-601385644)" d="M 11.5554,0.9629 L 11.5554,9.6295 L 12.5183,9.6295 L 12.5183,0.9629 L 11.5554,0.9629 Z" stroke-width="1px" stroke="#797979" fill="#797979"/>
          <path clip-path="url(#clip-601385644)" d="M 12.5183,0.9629 L 12.5183,9.6295 L 13.4813,9.6295 L 13.4813,0.9629 L 12.5183,0.9629 Z" stroke-width="1px" stroke="#7C7C7C" fill="#7C7C7C"/>
          <path clip-path="url(#clip-601385644)" d="M 13.4813,0.9629 L 13.4813,9.6295 L 14.4442,9.6295 L 14.4442,0.9629 L 13.4813,0.9629 Z" stroke-width="1px" stroke="#7F7F7F" fill="#7F7F7F"/>
          <path clip-path="url(#clip-601385644)" d="M 14.4442,0.9629 L 14.4442,9.6295 L 15.4072,9.6295 L 15.4072,0.9629 L 14.4442,0.9629 Z" stroke-width="1px" stroke="#828282" fill="#828282"/>
          <path clip-path="url(#clip-601385644)" d="M 15.4072,0.9629 L 15.4072,9.6295 L 16.3701,9.6295 L 16.3701,0.9629 L 15.4072,0.9629 Z" stroke-width="1px" stroke="#858585" fill="#858585"/>
          <path clip-path="url(#clip-601385644)" d="M 16.3701,0.9629 L 16.3701,9.6295 L 17.3330,9.6295 L 17.3330,0.9629 L 16.3701,0.9629 Z" stroke-width="1px" stroke="#888888" fill="#888888"/>
          <path clip-path="url(#clip-601385644)" d="M 17.3330,0.9629 L 17.3330,9.6295 L 18.2960,9.6295 L 18.2960,0.9629 L 17.3330,0.9629 Z" stroke-width="1px" stroke="#8B8B8B" fill="#8B8B8B"/>
          <path clip-path="url(#clip-601385644)" d="M 18.2960,0.9629 L 18.2960,9.6295 L 19.2589,9.6295 L 19.2589,0.9629 L 18.2960,0.9629 Z" stroke-width="1px" stroke="#8E8E8E" fill="#8E8E8E"/>
          <path clip-path="url(#clip-601385644)" d="M 19.2589,0.9629 L 19.2589,9.6295 L 20.2219,9.6295 L 20.2219,0.9629 L 19.2589,0.9629 Z" stroke-width="1px" stroke="#909090" fill="#909090"/>
          <path clip-path="url(#clip-601385644)" d="M 20.2219,0.9629 L 20.2219,9.6295 L 21.1848,9.6295 L 21.1848,0.9629 L 20.2219,0.9629 Z" stroke-width="1px" stroke="#949494" fill="#949494"/>
          <path clip-path="url(#clip-601385644)" d="M 21.1848,0.9629 L 21.1848,9.6295 L 22.1478,9.6295 L 22.1478,0.9629 L 21.1848,0.9629 Z" stroke-width="1px" stroke="#979797" fill="#979797"/>
          <path clip-path="url(#clip-601385644)" d="M 22.1478,0.9629 L 22.1478,9.6295 L 23.1107,9.6295 L 23.1107,0.9629 L 22.1478,0.9629 Z" stroke-width="1px" stroke="#9A9A9A" fill="#9A9A9A"/>
          <path clip-path="url(#clip-601385644)" d="M 23.1107,0.9629 L 23.1107,9.6295 L 24.0737,9.6295 L 24.0737,0.9629 L 23.1107,0.9629 Z" stroke-width="1px" stroke="#9D9D9D" fill="#9D9D9D"/>
          <path clip-path="url(#clip-601385644)" d="M 24.0737,0.9629 L 24.0737,9.6295 L 25.0366,9.6295 L 25.0366,0.9629 L 24.0737,0.9629 Z" stroke-width="1px" stroke="#A0A0A0" fill="#A0A0A0"/>
          <path clip-path="url(#clip-601385644)" d="M 25.0366,0.9629 L 25.0366,9.6295 L 25.9996,9.6295 L 25.9996,0.9629 L 25.0366,0.9629 Z" stroke-width="1px" stroke="#A2A2A2" fill="#A2A2A2"/>
          <path clip-path="url(#clip-601385644)" d="M 25.9996,0.9629 L 25.9996,9.6295 L 26.9625,9.6295 L 26.9625,0.9629 L 25.9996,0.9629 Z" stroke-width="1px" stroke="#A5A5A5" fill="#A5A5A5"/>
          <path clip-path="url(#clip-601385644)" d="M 26.9625,0.9629 L 26.9625,9.6295 L 27.9255,9.6295 L 27.9255,0.9629 L 26.9625,0.9629 Z" stroke-width="1px" stroke="#A9A9A9" fill="#A9A9A9"/>
          <path clip-path="url(#clip-601385644)" d="M 27.9255,0.9629 L 27.9255,9.6295 L 28.8884,9.6295 L 28.8884,0.9629 L 27.9255,0.9629 Z" stroke-width="1px" stroke="#ABABAB" fill="#ABABAB"/>
          <path clip-path="url(#clip-601385644)" d="M 28.8884,0.9629 L 28.8884,9.6295 L 29.8514,9.6295 L 29.8514,0.9629 L 28.8884,0.9629 Z" stroke-width="1px" stroke="#AEAEAE" fill="#AEAEAE"/>
          <path clip-path="url(#clip-601385644)" d="M 29.8514,0.9629 L 29.8514,9.6295 L 30.8143,9.6295 L 30.8143,0.9629 L 29.8514,0.9629 Z" stroke-width="1px" stroke="#B1B1B1" fill="#B1B1B1"/>
        </g>
        <g transform="matrix(0.0625 0.0000 0.0000 0.0625 0.0000 0.0000)">
          <path d="M 29.8514,0.9629 M 18.2960,80.8876 C 18.2960,138.6644 197.4041,143.4791 253.2551,143.4791 C 308.1431,143.4791 487.2512,138.6644 487.2512,80.8876 C 487.2512,23.1107 308.1431,18.2960 253.2551,18.2960 C 197.4041,18.2960 18.2960,23.1107 18.2960,80.8876 " stroke="#0054A6" stroke-width="7.7036" stroke-linecap="round" stroke-linejoin="round" fill="none"/>
        </g>
        <g transform="matrix(1.0000 0.0000 0.0000 1.0000 0.0000 0.0000)">
</g>
      </g>
      <!--emf-blob end-->
    </g>
  </g>
</svg>
