<svg xmlns="http://www.w3.org/2000/svg" xmlns:xlink="http://www.w3.org/1999/xlink" version="1.1" width="53.8583000000" height="31.1291000000">
  <title><![CDATA[Data Motion right]]></title>
  <g transform=" scale(1.000000) ">
    <text xmlns="http://www.w3.org/2000/svg" x="9.7960" y="31.1291">
      <tspan font-family="Arial" font-size="4.5000" fill="#000000" fill-opacity="1.0000" stroke-opacity="1.0000">
Data Motion right</tspan>
    </text>
    <!--converted by libvisio2svg-->
    <g transform=" translate(-1.128600,-1.164000) ">
      <!--emf-blob start-->
      <g transform="translate(0.9549, 0.9549)">
        <g transform="matrix(0.0625 0.0000 0.0000 0.0625 0.0000 0.0000)">
          <path d="M 358.0768,324.6563 L 401.0460,341.8440 L 462.1578,338.0245 L 462.1578,479.3455 L 518.4952,493.6685 L 762.9423,255.9055 L 518.4952,18.1426 L 462.1578,37.2400 L 462.1578,178.5610 L 401.0460,171.8769 L 358.0768,190.9743 L 357.1219,325.6112 L 358.0768,324.6563 Z" stroke-width="1px" stroke="#0054A6" fill="#0054A6"/>
        </g>
        <g transform="matrix(1.0000 0.0000 0.0000 1.0000 0.0000 0.0000)">
</g>
        <g transform="matrix(0.0625 0.0000 0.0000 0.0625 0.0000 0.0000)">
          <path d="M 358.0768,324.6563 L 401.0460,341.8440 L 462.1578,338.0245 L 462.1578,479.3455 L 518.4952,493.6685 L 762.9423,255.9055 L 518.4952,18.1426 L 462.1578,37.2400 L 462.1578,178.5610 L 401.0460,171.8769 L 358.0768,190.9743 L 357.1219,325.6112 " stroke="#0054A6" stroke-width="8.5938" stroke-linecap="round" stroke-linejoin="round" fill="none"/>
        </g>
        <g transform="matrix(1.0000 0.0000 0.0000 1.0000 0.0000 0.0000)">
</g>
        <g transform="matrix(0.0625 0.0000 0.0000 0.0625 0.0000 0.0000)">
          <path d="M 285.5066,171.8769 L 242.5373,193.8389 L 242.5373,325.6112 L 285.5066,341.8440 L 338.9794,340.8891 L 338.9794,173.7866 L 285.5066,171.8769 Z" stroke-width="1px" stroke="#0054A6" fill="#0054A6"/>
        </g>
        <g transform="matrix(1.0000 0.0000 0.0000 1.0000 0.0000 0.0000)">
</g>
        <g transform="matrix(0.0625 0.0000 0.0000 0.0625 0.0000 0.0000)">
          <path d="M 285.5066,171.8769 L 242.5373,193.8389 L 242.5373,325.6112 L 285.5066,341.8440 L 338.9794,340.8891 L 338.9794,173.7866 L 285.5066,171.8769 Z" stroke="#0054A6" stroke-width="8.5938" stroke-linecap="round" stroke-linejoin="round" fill="none"/>
        </g>
        <g transform="matrix(1.0000 0.0000 0.0000 1.0000 0.0000 0.0000)">
</g>
        <g transform="matrix(0.0625 0.0000 0.0000 0.0625 0.0000 0.0000)">
          <path d="M 173.7866,171.8769 L 129.8625,194.7938 L 129.8625,325.6112 L 173.7866,342.7988 L 227.2594,341.8440 L 227.2594,174.7415 L 173.7866,171.8769 Z" stroke-width="1px" stroke="#0054A6" fill="#0054A6"/>
        </g>
        <g transform="matrix(1.0000 0.0000 0.0000 1.0000 0.0000 0.0000)">
</g>
        <g transform="matrix(0.0625 0.0000 0.0000 0.0625 0.0000 0.0000)">
          <path d="M 173.7866,171.8769 L 129.8625,194.7938 L 129.8625,325.6112 L 173.7866,342.7988 L 227.2594,341.8440 L 227.2594,174.7415 L 173.7866,171.8769 Z" stroke="#0054A6" stroke-width="8.5938" stroke-linecap="round" stroke-linejoin="round" fill="none"/>
        </g>
        <g transform="matrix(1.0000 0.0000 0.0000 1.0000 0.0000 0.0000)">
</g>
        <g transform="matrix(0.0625 0.0000 0.0000 0.0625 0.0000 0.0000)">
          <path d="M 62.0666,171.8769 L 18.1426,193.8389 L 18.1426,325.6112 L 62.0666,341.8440 L 114.5846,340.8891 L 114.5846,173.7866 L 62.0666,171.8769 Z" stroke-width="1px" stroke="#0054A6" fill="#0054A6"/>
        </g>
        <g transform="matrix(1.0000 0.0000 0.0000 1.0000 0.0000 0.0000)">
</g>
        <g transform="matrix(0.0625 0.0000 0.0000 0.0625 0.0000 0.0000)">
          <path d="M 62.0666,171.8769 L 18.1426,193.8389 L 18.1426,325.6112 L 62.0666,341.8440 L 114.5846,340.8891 L 114.5846,173.7866 L 62.0666,171.8769 Z" stroke="#0054A6" stroke-width="8.5938" stroke-linecap="round" stroke-linejoin="round" fill="none"/>
        </g>
        <g transform="matrix(1.0000 0.0000 0.0000 1.0000 0.0000 0.0000)">
          <path d="M 9.5487,21.9620 L 3.8195,21.9620 L 3.8195,11.4585 L 9.5487,11.4585 L 9.5487,21.9620 Z M 17.1877,21.9620 L 11.4585,21.9620 L 11.4585,11.4585 L 17.1877,11.4585 L 17.1877,21.9620 Z M 23.8718,21.9620 L 18.1426,21.9620 L 18.1426,11.4585 L 23.8718,11.4585 L 23.8718,21.9620 Z M 25.7815,21.9620 L 25.7815,11.4585 L 32.4656,11.4585 L 32.4656,1.9097 L 53.4728,16.2328 L 32.4656,31.5108 L 32.4656,21.9620 L 25.7815,21.9620 Z " fill="none" stroke="none"/>
          <defs>
            <clipPath id="clip-780821396">
              <path d="M 9.5487,21.9620 L 3.8195,21.9620 L 3.8195,11.4585 L 9.5487,11.4585 L 9.5487,21.9620 Z M 17.1877,21.9620 L 11.4585,21.9620 L 11.4585,11.4585 L 17.1877,11.4585 L 17.1877,21.9620 Z M 23.8718,21.9620 L 18.1426,21.9620 L 18.1426,11.4585 L 23.8718,11.4585 L 23.8718,21.9620 Z M 25.7815,21.9620 L 25.7815,11.4585 L 32.4656,11.4585 L 32.4656,1.9097 L 53.4728,16.2328 L 32.4656,31.5108 L 32.4656,21.9620 L 25.7815,21.9620 Z Z"/>
            </clipPath>
          </defs>
          <path clip-path="url(#clip-780821396)" d="M 3.8195,0.9549 L 3.8195,1.9097 L 52.5179,1.9097 L 52.5179,0.9549 L 3.8195,0.9549 Z" stroke-width="1px" stroke="#64B5E6" fill="#64B5E6"/>
          <path clip-path="url(#clip-780821396)" d="M 3.8195,1.9097 L 3.8195,2.8646 L 52.5179,2.8646 L 52.5179,1.9097 L 3.8195,1.9097 Z" stroke-width="1px" stroke="#048CCE" fill="#048CCE"/>
          <path clip-path="url(#clip-780821396)" d="M 3.8195,2.8646 L 3.8195,3.8195 L 52.5179,3.8195 L 52.5179,2.8646 L 3.8195,2.8646 Z" stroke-width="1px" stroke="#078ECF" fill="#078ECF"/>
          <path clip-path="url(#clip-780821396)" d="M 3.8195,3.8195 L 3.8195,4.7744 L 52.5179,4.7744 L 52.5179,3.8195 L 3.8195,3.8195 Z" stroke-width="1px" stroke="#0A8FCF" fill="#0A8FCF"/>
          <path clip-path="url(#clip-780821396)" d="M 3.8195,4.7744 L 3.8195,5.7292 L 52.5179,5.7292 L 52.5179,4.7744 L 3.8195,4.7744 Z" stroke-width="1px" stroke="#0D90D0" fill="#0D90D0"/>
          <path clip-path="url(#clip-780821396)" d="M 3.8195,5.7292 L 3.8195,6.6841 L 52.5179,6.6841 L 52.5179,5.7292 L 3.8195,5.7292 Z" stroke-width="1px" stroke="#1091D1" fill="#1091D1"/>
          <path clip-path="url(#clip-780821396)" d="M 3.8195,6.6841 L 3.8195,7.6390 L 52.5179,7.6390 L 52.5179,6.6841 L 3.8195,6.6841 Z" stroke-width="1px" stroke="#1493D2" fill="#1493D2"/>
          <path clip-path="url(#clip-780821396)" d="M 3.8195,7.6390 L 3.8195,8.5938 L 52.5179,8.5938 L 52.5179,7.6390 L 3.8195,7.6390 Z" stroke-width="1px" stroke="#1795D3" fill="#1795D3"/>
          <path clip-path="url(#clip-780821396)" d="M 3.8195,8.5938 L 3.8195,9.5487 L 52.5179,9.5487 L 52.5179,8.5938 L 3.8195,8.5938 Z" stroke-width="1px" stroke="#1A96D3" fill="#1A96D3"/>
          <path clip-path="url(#clip-780821396)" d="M 3.8195,9.5487 L 3.8195,10.5036 L 52.5179,10.5036 L 52.5179,9.5487 L 3.8195,9.5487 Z" stroke-width="1px" stroke="#1D97D4" fill="#1D97D4"/>
          <path clip-path="url(#clip-780821396)" d="M 3.8195,10.5036 L 3.8195,11.4585 L 52.5179,11.4585 L 52.5179,10.5036 L 3.8195,10.5036 Z" stroke-width="1px" stroke="#2098D5" fill="#2098D5"/>
          <path clip-path="url(#clip-780821396)" d="M 3.8195,11.4585 L 3.8195,12.4133 L 52.5179,12.4133 L 52.5179,11.4585 L 3.8195,11.4585 Z" stroke-width="1px" stroke="#239AD6" fill="#239AD6"/>
          <path clip-path="url(#clip-780821396)" d="M 3.8195,12.4133 L 3.8195,13.3682 L 52.5179,13.3682 L 52.5179,12.4133 L 3.8195,12.4133 Z" stroke-width="1px" stroke="#279BD6" fill="#279BD6"/>
          <path clip-path="url(#clip-780821396)" d="M 3.8195,13.3682 L 3.8195,14.3231 L 52.5179,14.3231 L 52.5179,13.3682 L 3.8195,13.3682 Z" stroke-width="1px" stroke="#2A9CD7" fill="#2A9CD7"/>
          <path clip-path="url(#clip-780821396)" d="M 3.8195,14.3231 L 3.8195,15.2779 L 52.5179,15.2779 L 52.5179,14.3231 L 3.8195,14.3231 Z" stroke-width="1px" stroke="#2D9DD8" fill="#2D9DD8"/>
          <path clip-path="url(#clip-780821396)" d="M 3.8195,15.2779 L 3.8195,16.2328 L 52.5179,16.2328 L 52.5179,15.2779 L 3.8195,15.2779 Z" stroke-width="1px" stroke="#309FD9" fill="#309FD9"/>
          <path clip-path="url(#clip-780821396)" d="M 3.8195,16.2328 L 3.8195,17.1877 L 52.5179,17.1877 L 52.5179,16.2328 L 3.8195,16.2328 Z" stroke-width="1px" stroke="#34A0DA" fill="#34A0DA"/>
          <path clip-path="url(#clip-780821396)" d="M 3.8195,17.1877 L 3.8195,18.1426 L 52.5179,18.1426 L 52.5179,17.1877 L 3.8195,17.1877 Z" stroke-width="1px" stroke="#37A2DB" fill="#37A2DB"/>
          <path clip-path="url(#clip-780821396)" d="M 3.8195,18.1426 L 3.8195,19.0974 L 52.5179,19.0974 L 52.5179,18.1426 L 3.8195,18.1426 Z" stroke-width="1px" stroke="#3AA3DB" fill="#3AA3DB"/>
          <path clip-path="url(#clip-780821396)" d="M 3.8195,19.0974 L 3.8195,20.0523 L 52.5179,20.0523 L 52.5179,19.0974 L 3.8195,19.0974 Z" stroke-width="1px" stroke="#3DA4DC" fill="#3DA4DC"/>
          <path clip-path="url(#clip-780821396)" d="M 3.8195,20.0523 L 3.8195,21.0072 L 52.5179,21.0072 L 52.5179,20.0523 L 3.8195,20.0523 Z" stroke-width="1px" stroke="#40A6DD" fill="#40A6DD"/>
          <path clip-path="url(#clip-780821396)" d="M 3.8195,21.0072 L 3.8195,21.9620 L 52.5179,21.9620 L 52.5179,21.0072 L 3.8195,21.0072 Z" stroke-width="1px" stroke="#43A7DE" fill="#43A7DE"/>
          <path clip-path="url(#clip-780821396)" d="M 3.8195,21.9620 L 3.8195,22.9169 L 52.5179,22.9169 L 52.5179,21.9620 L 3.8195,21.9620 Z" stroke-width="1px" stroke="#46A9DE" fill="#46A9DE"/>
          <path clip-path="url(#clip-780821396)" d="M 3.8195,22.9169 L 3.8195,23.8718 L 52.5179,23.8718 L 52.5179,22.9169 L 3.8195,22.9169 Z" stroke-width="1px" stroke="#4AAAE0" fill="#4AAAE0"/>
          <path clip-path="url(#clip-780821396)" d="M 3.8195,23.8718 L 3.8195,24.8267 L 52.5179,24.8267 L 52.5179,23.8718 L 3.8195,23.8718 Z" stroke-width="1px" stroke="#4DACE0" fill="#4DACE0"/>
          <path clip-path="url(#clip-780821396)" d="M 3.8195,24.8267 L 3.8195,25.7815 L 52.5179,25.7815 L 52.5179,24.8267 L 3.8195,24.8267 Z" stroke-width="1px" stroke="#50ADE1" fill="#50ADE1"/>
          <path clip-path="url(#clip-780821396)" d="M 3.8195,25.7815 L 3.8195,26.7364 L 52.5179,26.7364 L 52.5179,25.7815 L 3.8195,25.7815 Z" stroke-width="1px" stroke="#53AEE2" fill="#53AEE2"/>
          <path clip-path="url(#clip-780821396)" d="M 3.8195,26.7364 L 3.8195,27.6913 L 52.5179,27.6913 L 52.5179,26.7364 L 3.8195,26.7364 Z" stroke-width="1px" stroke="#57AFE3" fill="#57AFE3"/>
          <path clip-path="url(#clip-780821396)" d="M 3.8195,27.6913 L 3.8195,28.6461 L 52.5179,28.6461 L 52.5179,27.6913 L 3.8195,27.6913 Z" stroke-width="1px" stroke="#5AB1E3" fill="#5AB1E3"/>
          <path clip-path="url(#clip-780821396)" d="M 3.8195,28.6461 L 3.8195,29.6010 L 52.5179,29.6010 L 52.5179,28.6461 L 3.8195,28.6461 Z" stroke-width="1px" stroke="#5DB2E4" fill="#5DB2E4"/>
          <path clip-path="url(#clip-780821396)" d="M 3.8195,29.6010 L 3.8195,30.5559 L 52.5179,30.5559 L 52.5179,29.6010 L 3.8195,29.6010 Z" stroke-width="1px" stroke="#60B3E5" fill="#60B3E5"/>
          <path clip-path="url(#clip-780821396)" d="M 3.8195,30.5559 L 3.8195,31.5108 L 52.5179,31.5108 L 52.5179,30.5559 L 3.8195,30.5559 Z" stroke-width="1px" stroke="#63B5E6" fill="#63B5E6"/>
        </g>
        <g transform="matrix(0.0625 0.0000 0.0000 0.0625 0.0000 0.0000)">
          <path d="M 152.7794,341.8440 L 62.0666,341.8440 L 62.0666,171.8769 L 152.7794,171.8769 L 152.7794,341.8440 M 264.4994,342.7988 L 173.7866,342.7988 L 173.7866,171.8769 L 264.4994,171.8769 L 264.4994,342.7988 M 376.2193,341.8440 L 285.5066,341.8440 L 285.5066,171.8769 L 376.2193,171.8769 L 376.2193,341.8440 M 401.0460,341.8440 L 401.0460,171.8769 L 519.4501,171.8769 L 519.4501,18.1426 L 841.2417,254.9507 L 519.4501,493.6685 L 519.4501,341.8440 L 401.0460,341.8440 " stroke="#0054A6" stroke-width="8.5938" stroke-linecap="round" stroke-linejoin="round" fill="none"/>
        </g>
        <g transform="matrix(1.0000 0.0000 0.0000 1.0000 0.0000 0.0000)">
</g>
        <g transform="matrix(0.0625 0.0000 0.0000 0.0625 0.0000 0.0000)">
          <path d="M 105.9907,298.8748 C 99.3066,298.8748 93.5774,296.9650 89.7579,293.1455 C 84.9836,289.3260 82.1189,284.5517 80.2092,277.8676 C 78.2995,272.1384 77.3446,265.4543 77.3446,256.8604 C 77.3446,244.4471 79.2543,233.9435 84.9836,226.3045 C 87.8482,222.4850 90.7128,219.6204 94.5323,217.7107 C 98.3518,215.8009 103.1261,214.8461 106.9456,214.8461 C 113.6297,214.8461 119.3589,216.7558 124.1333,220.5753 C 127.9528,224.3948 130.8174,229.1691 132.7271,234.8984 C 135.5917,240.6276 136.5466,248.2666 136.5466,255.9055 C 136.5466,268.3189 133.6820,278.8225 128.9076,286.4614 C 126.0430,290.2809 123.1784,294.1004 119.3589,296.0101 C 115.5394,297.9199 110.7651,298.8748 105.9907,298.8748 Z M 106.9456,232.0338 C 105.0359,232.0338 104.0810,232.0338 103.1261,232.9886 C 102.1712,234.8984 100.2615,237.7630 99.3066,241.5825 C 97.3969,245.4020 97.3969,251.1312 97.3969,256.8604 C 97.3969,265.4543 98.3518,272.1384 100.2615,275.9578 C 101.2164,277.8676 102.1712,279.7773 103.1261,279.7773 C 104.0810,280.7322 105.0359,281.6871 106.9456,281.6871 C 107.9005,281.6871 108.8553,280.7322 109.8102,279.7773 C 110.7651,278.8225 112.6748,277.8676 112.6748,275.9578 C 114.5846,273.0932 114.5846,270.2286 115.5394,266.4091 C 115.5394,262.5896 116.4943,259.7250 116.4943,256.8604 C 116.4943,250.1763 115.5394,244.4471 113.6297,239.6727 C 112.6748,236.8081 111.7200,234.8984 110.7651,232.9886 C 109.8102,232.9886 108.8553,232.9886 108.8553,232.9886 C 107.9005,232.0338 106.9456,232.0338 106.9456,232.0338 Z " fill="#FFFFFF" stroke="none"/>
        </g>
        <g transform="matrix(1.0000 0.0000 0.0000 1.0000 0.0000 0.0000)">
</g>
        <g transform="matrix(0.0625 0.0000 0.0000 0.0625 0.0000 0.0000)">
          <path d="M 105.9907,298.8748 C 99.3066,298.8748 93.5774,296.9650 89.7579,293.1455 C 84.9836,289.3260 82.1189,284.5517 80.2092,277.8676 C 78.2995,272.1384 77.3446,265.4543 77.3446,256.8604 C 77.3446,244.4471 79.2543,233.9435 84.9836,226.3045 C 87.8482,222.4850 90.7128,219.6204 94.5323,217.7107 C 98.3518,215.8009 103.1261,214.8461 106.9456,214.8461 C 113.6297,214.8461 119.3589,216.7558 124.1333,220.5753 C 127.9528,224.3948 130.8174,229.1691 132.7271,234.8984 C 135.5917,240.6276 136.5466,248.2666 136.5466,255.9055 C 136.5466,268.3189 133.6820,278.8225 128.9076,286.4614 C 126.0430,290.2809 123.1784,294.1004 119.3589,296.0101 C 115.5394,297.9199 110.7651,298.8748 105.9907,298.8748 Z M 106.9456,232.0338 C 105.0359,232.0338 104.0810,232.0338 103.1261,232.9886 C 102.1712,234.8984 100.2615,237.7630 99.3066,241.5825 C 97.3969,245.4020 97.3969,251.1312 97.3969,256.8604 C 97.3969,265.4543 98.3518,272.1384 100.2615,275.9578 C 101.2164,277.8676 102.1712,279.7773 103.1261,279.7773 C 104.0810,280.7322 105.0359,281.6871 106.9456,281.6871 C 107.9005,281.6871 108.8553,280.7322 109.8102,279.7773 C 110.7651,278.8225 112.6748,277.8676 112.6748,275.9578 C 114.5846,273.0932 114.5846,270.2286 115.5394,266.4091 C 115.5394,262.5896 116.4943,259.7250 116.4943,256.8604 C 116.4943,250.1763 115.5394,244.4471 113.6297,239.6727 C 112.6748,236.8081 111.7200,234.8984 110.7651,232.9886 C 109.8102,232.9886 108.8553,232.9886 108.8553,232.9886 C 107.9005,232.0338 106.9456,232.0338 106.9456,232.0338 Z " stroke="#0054A6" stroke-width="2.8646" stroke-linecap="round" stroke-linejoin="round" fill="none"/>
        </g>
        <g transform="matrix(1.0000 0.0000 0.0000 1.0000 0.0000 0.0000)">
</g>
        <g transform="matrix(0.0625 0.0000 0.0000 0.0625 0.0000 0.0000)">
          <path d="M 453.5639,298.8748 C 446.8798,298.8748 441.1506,296.9650 436.3762,293.1455 C 432.5568,289.3260 429.6921,284.5517 427.7824,277.8676 C 424.9178,272.1384 423.9629,265.4543 423.9629,256.8604 C 423.9629,244.4471 426.8275,233.9435 432.5568,226.3045 C 434.4665,222.4850 438.2860,219.6204 442.1055,217.7107 C 445.9250,215.8009 449.7444,214.8461 454.5188,214.8461 C 461.2029,214.8461 466.9321,216.7558 470.7516,220.5753 C 475.5260,224.3948 478.3906,229.1691 480.3003,234.8984 C 482.2101,240.6276 483.1649,248.2666 483.1649,255.9055 C 483.1649,268.3189 481.2552,278.8225 476.4808,286.4614 C 473.6162,290.2809 470.7516,294.1004 466.9321,296.0101 C 462.1578,297.9199 458.3383,298.8748 453.5639,298.8748 Z M 453.5639,232.0338 C 452.6091,232.0338 451.6542,232.0338 450.6993,232.9886 C 448.7896,234.8984 447.8347,237.7630 445.9250,241.5825 C 444.9701,245.4020 444.0152,251.1312 444.0152,256.8604 C 444.0152,265.4543 445.9250,272.1384 447.8347,275.9578 C 448.7896,277.8676 449.7444,279.7773 450.6993,279.7773 C 451.6542,280.7322 452.6091,281.6871 453.5639,281.6871 C 455.4737,281.6871 456.4285,280.7322 457.3834,279.7773 C 458.3383,278.8225 459.2932,277.8676 460.2480,275.9578 C 461.2029,273.0932 462.1578,270.2286 463.1126,266.4091 C 463.1126,262.5896 463.1126,259.7250 463.1126,256.8604 C 463.1126,250.1763 463.1126,244.4471 461.2029,239.6727 C 460.2480,236.8081 459.2932,234.8984 457.3834,232.9886 C 457.3834,232.9886 456.4285,232.9886 455.4737,232.9886 C 455.4737,232.0338 454.5188,232.0338 453.5639,232.0338 Z " fill="#FFFFFF" stroke="none"/>
        </g>
        <g transform="matrix(1.0000 0.0000 0.0000 1.0000 0.0000 0.0000)">
</g>
        <g transform="matrix(0.0625 0.0000 0.0000 0.0625 0.0000 0.0000)">
          <path d="M 453.5639,298.8748 C 446.8798,298.8748 441.1506,296.9650 436.3762,293.1455 C 432.5568,289.3260 429.6921,284.5517 427.7824,277.8676 C 424.9178,272.1384 423.9629,265.4543 423.9629,256.8604 C 423.9629,244.4471 426.8275,233.9435 432.5568,226.3045 C 434.4665,222.4850 438.2860,219.6204 442.1055,217.7107 C 445.9250,215.8009 449.7444,214.8461 454.5188,214.8461 C 461.2029,214.8461 466.9321,216.7558 470.7516,220.5753 C 475.5260,224.3948 478.3906,229.1691 480.3003,234.8984 C 482.2101,240.6276 483.1649,248.2666 483.1649,255.9055 C 483.1649,268.3189 481.2552,278.8225 476.4808,286.4614 C 473.6162,290.2809 470.7516,294.1004 466.9321,296.0101 C 462.1578,297.9199 458.3383,298.8748 453.5639,298.8748 Z M 453.5639,232.0338 C 452.6091,232.0338 451.6542,232.0338 450.6993,232.9886 C 448.7896,234.8984 447.8347,237.7630 445.9250,241.5825 C 444.9701,245.4020 444.0152,251.1312 444.0152,256.8604 C 444.0152,265.4543 445.9250,272.1384 447.8347,275.9578 C 448.7896,277.8676 449.7444,279.7773 450.6993,279.7773 C 451.6542,280.7322 452.6091,281.6871 453.5639,281.6871 C 455.4737,281.6871 456.4285,280.7322 457.3834,279.7773 C 458.3383,278.8225 459.2932,277.8676 460.2480,275.9578 C 461.2029,273.0932 462.1578,270.2286 463.1126,266.4091 C 463.1126,262.5896 463.1126,259.7250 463.1126,256.8604 C 463.1126,250.1763 463.1126,244.4471 461.2029,239.6727 C 460.2480,236.8081 459.2932,234.8984 457.3834,232.9886 C 457.3834,232.9886 456.4285,232.9886 455.4737,232.9886 C 455.4737,232.0338 454.5188,232.0338 453.5639,232.0338 Z " stroke="#0054A6" stroke-width="2.8646" stroke-linecap="round" stroke-linejoin="round" fill="none"/>
        </g>
        <g transform="matrix(1.0000 0.0000 0.0000 1.0000 0.0000 0.0000)">
</g>
        <g transform="matrix(0.0625 0.0000 0.0000 0.0625 0.0000 0.0000)">
          <path d="M 326.5660,297.9199 L 346.6183,297.9199 L 346.6183,215.8009 L 332.2953,215.8009 L 311.2881,227.2594 L 315.1076,244.4471 L 326.5660,238.7179 L 326.5660,297.9199 Z" stroke-width="1px" stroke="#FFFFFF" fill="#FFFFFF"/>
        </g>
        <g transform="matrix(1.0000 0.0000 0.0000 1.0000 0.0000 0.0000)">
</g>
        <g transform="matrix(0.0625 0.0000 0.0000 0.0625 0.0000 0.0000)">
          <path d="M 326.5660,297.9199 L 346.6183,297.9199 L 346.6183,215.8009 L 332.2953,215.8009 L 311.2881,227.2594 L 315.1076,244.4471 L 326.5660,238.7179 L 326.5660,297.9199 Z" stroke="#0054A6" stroke-width="2.8646" stroke-linecap="round" stroke-linejoin="round" fill="none"/>
        </g>
        <g transform="matrix(1.0000 0.0000 0.0000 1.0000 0.0000 0.0000)">
</g>
        <g transform="matrix(0.0625 0.0000 0.0000 0.0625 0.0000 0.0000)">
          <path d="M 552.8706,298.8748 C 546.1865,298.8748 540.4572,296.9650 536.6377,293.1455 C 531.8634,289.3260 528.9988,284.5517 527.0890,277.8676 C 525.1793,272.1384 524.2244,265.4543 523.2695,256.8604 C 523.2695,244.4471 526.1342,233.9435 531.8634,226.3045 C 534.7280,222.4850 537.5926,219.6204 541.4121,217.7107 C 545.2316,215.8009 549.0511,214.8461 553.8254,214.8461 C 560.5095,214.8461 566.2388,216.7558 571.0131,220.5753 C 574.8326,224.3948 577.6972,229.1691 579.6070,234.8984 C 581.5167,240.6276 582.4716,248.2666 582.4716,255.9055 C 582.4716,268.3189 580.5618,278.8225 575.7875,286.4614 C 572.9229,290.2809 570.0582,294.1004 566.2388,296.0101 C 562.4193,297.9199 557.6449,298.8748 552.8706,298.8748 Z M 552.8706,232.0338 C 551.9157,232.0338 550.9608,232.0338 550.0059,232.9886 C 549.0511,234.8984 547.1413,237.7630 546.1865,241.5825 C 544.2767,245.4020 544.2767,251.1312 544.2767,256.8604 C 544.2767,265.4543 545.2316,272.1384 547.1413,275.9578 C 548.0962,277.8676 549.0511,279.7773 550.0059,279.7773 C 550.9608,280.7322 551.9157,281.6871 552.8706,281.6871 C 554.7803,281.6871 555.7352,280.7322 556.6900,279.7773 C 557.6449,278.8225 558.5998,277.8676 559.5547,275.9578 C 561.4644,273.0932 561.4644,270.2286 562.4193,266.4091 C 562.4193,262.5896 562.4193,259.7250 562.4193,256.8604 C 562.4193,250.1763 562.4193,244.4471 560.5095,239.6727 C 559.5547,236.8081 558.5998,234.8984 556.6900,232.9886 C 556.6900,232.9886 555.7352,232.9886 555.7352,232.9886 C 554.7803,232.0338 553.8254,232.0338 552.8706,232.0338 Z " fill="#FFFFFF" stroke="none"/>
        </g>
        <g transform="matrix(1.0000 0.0000 0.0000 1.0000 0.0000 0.0000)">
</g>
        <g transform="matrix(0.0625 0.0000 0.0000 0.0625 0.0000 0.0000)">
          <path d="M 552.8706,298.8748 C 546.1865,298.8748 540.4572,296.9650 536.6377,293.1455 C 531.8634,289.3260 528.9988,284.5517 527.0890,277.8676 C 525.1793,272.1384 524.2244,265.4543 523.2695,256.8604 C 523.2695,244.4471 526.1342,233.9435 531.8634,226.3045 C 534.7280,222.4850 537.5926,219.6204 541.4121,217.7107 C 545.2316,215.8009 549.0511,214.8461 553.8254,214.8461 C 560.5095,214.8461 566.2388,216.7558 571.0131,220.5753 C 574.8326,224.3948 577.6972,229.1691 579.6070,234.8984 C 581.5167,240.6276 582.4716,248.2666 582.4716,255.9055 C 582.4716,268.3189 580.5618,278.8225 575.7875,286.4614 C 572.9229,290.2809 570.0582,294.1004 566.2388,296.0101 C 562.4193,297.9199 557.6449,298.8748 552.8706,298.8748 Z M 552.8706,232.0338 C 551.9157,232.0338 550.9608,232.0338 550.0059,232.9886 C 549.0511,234.8984 547.1413,237.7630 546.1865,241.5825 C 544.2767,245.4020 544.2767,251.1312 544.2767,256.8604 C 544.2767,265.4543 545.2316,272.1384 547.1413,275.9578 C 548.0962,277.8676 549.0511,279.7773 550.0059,279.7773 C 550.9608,280.7322 551.9157,281.6871 552.8706,281.6871 C 554.7803,281.6871 555.7352,280.7322 556.6900,279.7773 C 557.6449,278.8225 558.5998,277.8676 559.5547,275.9578 C 561.4644,273.0932 561.4644,270.2286 562.4193,266.4091 C 562.4193,262.5896 562.4193,259.7250 562.4193,256.8604 C 562.4193,250.1763 562.4193,244.4471 560.5095,239.6727 C 559.5547,236.8081 558.5998,234.8984 556.6900,232.9886 C 556.6900,232.9886 555.7352,232.9886 555.7352,232.9886 C 554.7803,232.0338 553.8254,232.0338 552.8706,232.0338 Z " stroke="#0054A6" stroke-width="2.8646" stroke-linecap="round" stroke-linejoin="round" fill="none"/>
        </g>
        <g transform="matrix(1.0000 0.0000 0.0000 1.0000 0.0000 0.0000)">
</g>
        <g transform="matrix(0.0625 0.0000 0.0000 0.0625 0.0000 0.0000)">
          <path d="M 739.0705,298.8748 C 732.3864,298.8748 726.6572,296.9650 721.8828,293.1455 C 718.0633,289.3260 715.1987,284.5517 713.2890,277.8676 C 711.3792,272.1384 709.4695,265.4543 709.4695,256.8604 C 709.4695,244.4471 712.3341,233.9435 718.0633,226.3045 C 720.9279,222.4850 723.7925,219.6204 727.6120,217.7107 C 731.4315,215.8009 735.2510,214.8461 740.0254,214.8461 C 746.7095,214.8461 752.4387,216.7558 756.2582,220.5753 C 761.0325,224.3948 763.8971,229.1691 765.8069,234.8984 C 767.7166,240.6276 768.6715,248.2666 768.6715,255.9055 C 768.6715,268.3189 766.7618,278.8225 761.9874,286.4614 C 759.1228,290.2809 756.2582,294.1004 752.4387,296.0101 C 748.6192,297.9199 743.8448,298.8748 739.0705,298.8748 Z M 739.0705,232.0338 C 738.1156,232.0338 737.1607,232.0338 736.2059,232.9886 C 734.2961,234.8984 733.3413,237.7630 731.4315,241.5825 C 730.4766,245.4020 729.5218,251.1312 729.5218,256.8604 C 729.5218,265.4543 731.4315,272.1384 733.3413,275.9578 C 734.2961,277.8676 735.2510,279.7773 736.2059,279.7773 C 737.1607,280.7322 738.1156,281.6871 739.0705,281.6871 C 740.9802,281.6871 741.9351,280.7322 742.8900,279.7773 C 743.8448,278.8225 744.7997,277.8676 745.7546,275.9578 C 746.7095,273.0932 747.6643,270.2286 748.6192,266.4091 C 748.6192,262.5896 748.6192,259.7250 748.6192,256.8604 C 748.6192,250.1763 748.6192,244.4471 746.7095,239.6727 C 745.7546,236.8081 744.7997,234.8984 742.8900,232.9886 C 742.8900,232.9886 741.9351,232.9886 741.9351,232.9886 C 740.9802,232.0338 740.0254,232.0338 739.0705,232.0338 Z " fill="#FFFFFF" stroke="none"/>
        </g>
        <g transform="matrix(1.0000 0.0000 0.0000 1.0000 0.0000 0.0000)">
</g>
        <g transform="matrix(0.0625 0.0000 0.0000 0.0625 0.0000 0.0000)">
          <path d="M 739.0705,298.8748 C 732.3864,298.8748 726.6572,296.9650 721.8828,293.1455 C 718.0633,289.3260 715.1987,284.5517 713.2890,277.8676 C 711.3792,272.1384 709.4695,265.4543 709.4695,256.8604 C 709.4695,244.4471 712.3341,233.9435 718.0633,226.3045 C 720.9279,222.4850 723.7925,219.6204 727.6120,217.7107 C 731.4315,215.8009 735.2510,214.8461 740.0254,214.8461 C 746.7095,214.8461 752.4387,216.7558 756.2582,220.5753 C 761.0325,224.3948 763.8971,229.1691 765.8069,234.8984 C 767.7166,240.6276 768.6715,248.2666 768.6715,255.9055 C 768.6715,268.3189 766.7618,278.8225 761.9874,286.4614 C 759.1228,290.2809 756.2582,294.1004 752.4387,296.0101 C 748.6192,297.9199 743.8448,298.8748 739.0705,298.8748 Z M 739.0705,232.0338 C 738.1156,232.0338 737.1607,232.0338 736.2059,232.9886 C 734.2961,234.8984 733.3413,237.7630 731.4315,241.5825 C 730.4766,245.4020 729.5218,251.1312 729.5218,256.8604 C 729.5218,265.4543 731.4315,272.1384 733.3413,275.9578 C 734.2961,277.8676 735.2510,279.7773 736.2059,279.7773 C 737.1607,280.7322 738.1156,281.6871 739.0705,281.6871 C 740.9802,281.6871 741.9351,280.7322 742.8900,279.7773 C 743.8448,278.8225 744.7997,277.8676 745.7546,275.9578 C 746.7095,273.0932 747.6643,270.2286 748.6192,266.4091 C 748.6192,262.5896 748.6192,259.7250 748.6192,256.8604 C 748.6192,250.1763 748.6192,244.4471 746.7095,239.6727 C 745.7546,236.8081 744.7997,234.8984 742.8900,232.9886 C 742.8900,232.9886 741.9351,232.9886 741.9351,232.9886 C 740.9802,232.0338 740.0254,232.0338 739.0705,232.0338 Z " stroke="#0054A6" stroke-width="2.8646" stroke-linecap="round" stroke-linejoin="round" fill="none"/>
        </g>
        <g transform="matrix(1.0000 0.0000 0.0000 1.0000 0.0000 0.0000)">
</g>
        <g transform="matrix(0.0625 0.0000 0.0000 0.0625 0.0000 0.0000)">
          <path d="M 637.8541,297.9199 L 657.9064,297.9199 L 657.9064,215.8009 L 643.5833,215.8009 L 622.5762,227.2594 L 627.3505,244.4471 L 637.8541,238.7179 L 637.8541,297.9199 Z" stroke-width="1px" stroke="#FFFFFF" fill="#FFFFFF"/>
        </g>
        <g transform="matrix(1.0000 0.0000 0.0000 1.0000 0.0000 0.0000)">
</g>
        <g transform="matrix(0.0625 0.0000 0.0000 0.0625 0.0000 0.0000)">
          <path d="M 637.8541,297.9199 L 657.9064,297.9199 L 657.9064,215.8009 L 643.5833,215.8009 L 622.5762,227.2594 L 627.3505,244.4471 L 637.8541,238.7179 L 637.8541,297.9199 Z" stroke="#0054A6" stroke-width="2.8646" stroke-linecap="round" stroke-linejoin="round" fill="none"/>
        </g>
        <g transform="matrix(1.0000 0.0000 0.0000 1.0000 0.0000 0.0000)">
</g>
        <g transform="matrix(0.0625 0.0000 0.0000 0.0625 0.0000 0.0000)">
          <path d="M 212.9363,297.9199 L 232.9886,297.9199 L 232.9886,215.8009 L 218.6656,215.8009 L 197.6584,227.2594 L 202.4327,244.4471 L 212.9363,238.7179 L 212.9363,297.9199 Z" stroke-width="1px" stroke="#FFFFFF" fill="#FFFFFF"/>
        </g>
        <g transform="matrix(1.0000 0.0000 0.0000 1.0000 0.0000 0.0000)">
</g>
        <g transform="matrix(0.0625 0.0000 0.0000 0.0625 0.0000 0.0000)">
          <path d="M 212.9363,297.9199 L 232.9886,297.9199 L 232.9886,215.8009 L 218.6656,215.8009 L 197.6584,227.2594 L 202.4327,244.4471 L 212.9363,238.7179 L 212.9363,297.9199 Z" stroke="#0054A6" stroke-width="2.8646" stroke-linecap="round" stroke-linejoin="round" fill="none"/>
        </g>
        <g transform="matrix(1.0000 0.0000 0.0000 1.0000 0.0000 0.0000)">
</g>
      </g>
      <!--emf-blob end-->
    </g>
  </g>
</svg>
