<svg xmlns="http://www.w3.org/2000/svg" xmlns:xlink="http://www.w3.org/1999/xlink" version="1.1" width="53.8583000000" height="31.1291000000">
  <title><![CDATA[Data Motion left]]></title>
  <g transform=" scale(1.000000) ">
    <text xmlns="http://www.w3.org/2000/svg" x="11.1714" y="31.1291">
      <tspan font-family="Arial" font-size="4.5000" fill="#000000" fill-opacity="1.0000" stroke-opacity="1.0000">
Data Motion left</tspan>
    </text>
    <!--converted by libvisio2svg-->
    <g transform=" translate(-1.128600,-1.164000) ">
      <!--emf-blob start-->
      <g transform="translate(0.9549, 0.9549)">
        <g transform="matrix(0.0625 0.0000 0.0000 0.0625 0.0000 0.0000)">
          <path d="M 502.2624,325.6112 L 501.3075,190.9743 L 458.3383,171.8769 L 397.2265,178.5610 L 397.2265,37.2400 L 340.8891,18.1426 L 95.4871,255.9055 L 340.8891,493.6685 L 397.2265,479.3455 L 397.2265,338.0245 L 458.3383,341.8440 L 501.3075,324.6563 L 502.2624,325.6112 Z" stroke-width="1px" stroke="#0054A6" fill="#0054A6"/>
        </g>
        <g transform="matrix(1.0000 0.0000 0.0000 1.0000 0.0000 0.0000)">
</g>
        <g transform="matrix(0.0625 0.0000 0.0000 0.0625 0.0000 0.0000)">
          <path d="M 502.2624,325.6112 L 501.3075,190.9743 L 458.3383,171.8769 L 397.2265,178.5610 L 397.2265,37.2400 L 340.8891,18.1426 L 95.4871,255.9055 L 340.8891,493.6685 L 397.2265,479.3455 L 397.2265,338.0245 L 458.3383,341.8440 L 501.3075,324.6563 " stroke="#0054A6" stroke-width="8.5938" stroke-linecap="round" stroke-linejoin="round" fill="none"/>
        </g>
        <g transform="matrix(1.0000 0.0000 0.0000 1.0000 0.0000 0.0000)">
</g>
        <g transform="matrix(0.0625 0.0000 0.0000 0.0625 0.0000 0.0000)">
          <path d="M 573.8777,171.8769 L 520.4049,173.7866 L 520.4049,340.8891 L 573.8777,341.8440 L 616.8469,325.6112 L 616.8469,193.8389 L 573.8777,171.8769 Z" stroke-width="1px" stroke="#0054A6" fill="#0054A6"/>
        </g>
        <g transform="matrix(1.0000 0.0000 0.0000 1.0000 0.0000 0.0000)">
</g>
        <g transform="matrix(0.0625 0.0000 0.0000 0.0625 0.0000 0.0000)">
          <path d="M 573.8777,171.8769 L 520.4049,173.7866 L 520.4049,340.8891 L 573.8777,341.8440 L 616.8469,325.6112 L 616.8469,193.8389 L 573.8777,171.8769 Z" stroke="#0054A6" stroke-width="8.5938" stroke-linecap="round" stroke-linejoin="round" fill="none"/>
        </g>
        <g transform="matrix(1.0000 0.0000 0.0000 1.0000 0.0000 0.0000)">
</g>
        <g transform="matrix(0.0625 0.0000 0.0000 0.0625 0.0000 0.0000)">
          <path d="M 685.5977,171.8769 L 632.1249,174.7415 L 632.1249,341.8440 L 685.5977,342.7988 L 729.5218,325.6112 L 729.5218,194.7938 L 685.5977,171.8769 Z" stroke-width="1px" stroke="#0054A6" fill="#0054A6"/>
        </g>
        <g transform="matrix(1.0000 0.0000 0.0000 1.0000 0.0000 0.0000)">
</g>
        <g transform="matrix(0.0625 0.0000 0.0000 0.0625 0.0000 0.0000)">
          <path d="M 685.5977,171.8769 L 632.1249,174.7415 L 632.1249,341.8440 L 685.5977,342.7988 L 729.5218,325.6112 L 729.5218,194.7938 L 685.5977,171.8769 Z" stroke="#0054A6" stroke-width="8.5938" stroke-linecap="round" stroke-linejoin="round" fill="none"/>
        </g>
        <g transform="matrix(1.0000 0.0000 0.0000 1.0000 0.0000 0.0000)">
</g>
        <g transform="matrix(0.0625 0.0000 0.0000 0.0625 0.0000 0.0000)">
          <path d="M 797.3176,171.8769 L 744.7997,173.7866 L 744.7997,340.8891 L 797.3176,341.8440 L 841.2417,325.6112 L 841.2417,193.8389 L 797.3176,171.8769 Z" stroke-width="1px" stroke="#0054A6" fill="#0054A6"/>
        </g>
        <g transform="matrix(1.0000 0.0000 0.0000 1.0000 0.0000 0.0000)">
</g>
        <g transform="matrix(0.0625 0.0000 0.0000 0.0625 0.0000 0.0000)">
          <path d="M 797.3176,171.8769 L 744.7997,173.7866 L 744.7997,340.8891 L 797.3176,341.8440 L 841.2417,325.6112 L 841.2417,193.8389 L 797.3176,171.8769 Z" stroke="#0054A6" stroke-width="8.5938" stroke-linecap="round" stroke-linejoin="round" fill="none"/>
        </g>
        <g transform="matrix(1.0000 0.0000 0.0000 1.0000 0.0000 0.0000)">
          <path d="M 44.8790,21.9620 L 50.6082,21.9620 L 50.6082,11.4585 L 44.8790,11.4585 L 44.8790,21.9620 Z M 37.2400,21.9620 L 42.9692,21.9620 L 42.9692,11.4585 L 37.2400,11.4585 L 37.2400,21.9620 Z M 30.5559,21.9620 L 36.2851,21.9620 L 36.2851,11.4585 L 30.5559,11.4585 L 30.5559,21.9620 Z M 28.6461,21.9620 L 28.6461,11.4585 L 21.9620,11.4585 L 21.9620,1.9097 L 1.9097,16.2328 L 21.9620,31.5108 L 21.9620,21.9620 L 28.6461,21.9620 Z " fill="none" stroke="none"/>
          <defs>
            <clipPath id="clip-1389867269">
              <path d="M 44.8790,21.9620 L 50.6082,21.9620 L 50.6082,11.4585 L 44.8790,11.4585 L 44.8790,21.9620 Z M 37.2400,21.9620 L 42.9692,21.9620 L 42.9692,11.4585 L 37.2400,11.4585 L 37.2400,21.9620 Z M 30.5559,21.9620 L 36.2851,21.9620 L 36.2851,11.4585 L 30.5559,11.4585 L 30.5559,21.9620 Z M 28.6461,21.9620 L 28.6461,11.4585 L 21.9620,11.4585 L 21.9620,1.9097 L 1.9097,16.2328 L 21.9620,31.5108 L 21.9620,21.9620 L 28.6461,21.9620 Z Z"/>
            </clipPath>
          </defs>
          <path clip-path="url(#clip-1389867269)" d="M 0.9549,0.9549 L 0.9549,1.9097 L 49.6533,1.9097 L 49.6533,0.9549 L 0.9549,0.9549 Z" stroke-width="1px" stroke="#64B5E6" fill="#64B5E6"/>
          <path clip-path="url(#clip-1389867269)" d="M 0.9549,1.9097 L 0.9549,2.8646 L 49.6533,2.8646 L 49.6533,1.9097 L 0.9549,1.9097 Z" stroke-width="1px" stroke="#048CCE" fill="#048CCE"/>
          <path clip-path="url(#clip-1389867269)" d="M 0.9549,2.8646 L 0.9549,3.8195 L 49.6533,3.8195 L 49.6533,2.8646 L 0.9549,2.8646 Z" stroke-width="1px" stroke="#078ECF" fill="#078ECF"/>
          <path clip-path="url(#clip-1389867269)" d="M 0.9549,3.8195 L 0.9549,4.7744 L 49.6533,4.7744 L 49.6533,3.8195 L 0.9549,3.8195 Z" stroke-width="1px" stroke="#0A8FCF" fill="#0A8FCF"/>
          <path clip-path="url(#clip-1389867269)" d="M 0.9549,4.7744 L 0.9549,5.7292 L 49.6533,5.7292 L 49.6533,4.7744 L 0.9549,4.7744 Z" stroke-width="1px" stroke="#0D90D0" fill="#0D90D0"/>
          <path clip-path="url(#clip-1389867269)" d="M 0.9549,5.7292 L 0.9549,6.6841 L 49.6533,6.6841 L 49.6533,5.7292 L 0.9549,5.7292 Z" stroke-width="1px" stroke="#1091D1" fill="#1091D1"/>
          <path clip-path="url(#clip-1389867269)" d="M 0.9549,6.6841 L 0.9549,7.6390 L 49.6533,7.6390 L 49.6533,6.6841 L 0.9549,6.6841 Z" stroke-width="1px" stroke="#1493D2" fill="#1493D2"/>
          <path clip-path="url(#clip-1389867269)" d="M 0.9549,7.6390 L 0.9549,8.5938 L 49.6533,8.5938 L 49.6533,7.6390 L 0.9549,7.6390 Z" stroke-width="1px" stroke="#1795D3" fill="#1795D3"/>
          <path clip-path="url(#clip-1389867269)" d="M 0.9549,8.5938 L 0.9549,9.5487 L 49.6533,9.5487 L 49.6533,8.5938 L 0.9549,8.5938 Z" stroke-width="1px" stroke="#1A96D3" fill="#1A96D3"/>
          <path clip-path="url(#clip-1389867269)" d="M 0.9549,9.5487 L 0.9549,10.5036 L 49.6533,10.5036 L 49.6533,9.5487 L 0.9549,9.5487 Z" stroke-width="1px" stroke="#1D97D4" fill="#1D97D4"/>
          <path clip-path="url(#clip-1389867269)" d="M 0.9549,10.5036 L 0.9549,11.4585 L 49.6533,11.4585 L 49.6533,10.5036 L 0.9549,10.5036 Z" stroke-width="1px" stroke="#2098D5" fill="#2098D5"/>
          <path clip-path="url(#clip-1389867269)" d="M 0.9549,11.4585 L 0.9549,12.4133 L 49.6533,12.4133 L 49.6533,11.4585 L 0.9549,11.4585 Z" stroke-width="1px" stroke="#239AD6" fill="#239AD6"/>
          <path clip-path="url(#clip-1389867269)" d="M 0.9549,12.4133 L 0.9549,13.3682 L 49.6533,13.3682 L 49.6533,12.4133 L 0.9549,12.4133 Z" stroke-width="1px" stroke="#279BD6" fill="#279BD6"/>
          <path clip-path="url(#clip-1389867269)" d="M 0.9549,13.3682 L 0.9549,14.3231 L 49.6533,14.3231 L 49.6533,13.3682 L 0.9549,13.3682 Z" stroke-width="1px" stroke="#2A9CD7" fill="#2A9CD7"/>
          <path clip-path="url(#clip-1389867269)" d="M 0.9549,14.3231 L 0.9549,15.2779 L 49.6533,15.2779 L 49.6533,14.3231 L 0.9549,14.3231 Z" stroke-width="1px" stroke="#2D9DD8" fill="#2D9DD8"/>
          <path clip-path="url(#clip-1389867269)" d="M 0.9549,15.2779 L 0.9549,16.2328 L 49.6533,16.2328 L 49.6533,15.2779 L 0.9549,15.2779 Z" stroke-width="1px" stroke="#309FD9" fill="#309FD9"/>
          <path clip-path="url(#clip-1389867269)" d="M 0.9549,16.2328 L 0.9549,17.1877 L 49.6533,17.1877 L 49.6533,16.2328 L 0.9549,16.2328 Z" stroke-width="1px" stroke="#34A0DA" fill="#34A0DA"/>
          <path clip-path="url(#clip-1389867269)" d="M 0.9549,17.1877 L 0.9549,18.1426 L 49.6533,18.1426 L 49.6533,17.1877 L 0.9549,17.1877 Z" stroke-width="1px" stroke="#37A2DB" fill="#37A2DB"/>
          <path clip-path="url(#clip-1389867269)" d="M 0.9549,18.1426 L 0.9549,19.0974 L 49.6533,19.0974 L 49.6533,18.1426 L 0.9549,18.1426 Z" stroke-width="1px" stroke="#3AA3DB" fill="#3AA3DB"/>
          <path clip-path="url(#clip-1389867269)" d="M 0.9549,19.0974 L 0.9549,20.0523 L 49.6533,20.0523 L 49.6533,19.0974 L 0.9549,19.0974 Z" stroke-width="1px" stroke="#3DA4DC" fill="#3DA4DC"/>
          <path clip-path="url(#clip-1389867269)" d="M 0.9549,20.0523 L 0.9549,21.0072 L 49.6533,21.0072 L 49.6533,20.0523 L 0.9549,20.0523 Z" stroke-width="1px" stroke="#40A6DD" fill="#40A6DD"/>
          <path clip-path="url(#clip-1389867269)" d="M 0.9549,21.0072 L 0.9549,21.9620 L 49.6533,21.9620 L 49.6533,21.0072 L 0.9549,21.0072 Z" stroke-width="1px" stroke="#43A7DE" fill="#43A7DE"/>
          <path clip-path="url(#clip-1389867269)" d="M 0.9549,21.9620 L 0.9549,22.9169 L 49.6533,22.9169 L 49.6533,21.9620 L 0.9549,21.9620 Z" stroke-width="1px" stroke="#46A9DE" fill="#46A9DE"/>
          <path clip-path="url(#clip-1389867269)" d="M 0.9549,22.9169 L 0.9549,23.8718 L 49.6533,23.8718 L 49.6533,22.9169 L 0.9549,22.9169 Z" stroke-width="1px" stroke="#4AAAE0" fill="#4AAAE0"/>
          <path clip-path="url(#clip-1389867269)" d="M 0.9549,23.8718 L 0.9549,24.8267 L 49.6533,24.8267 L 49.6533,23.8718 L 0.9549,23.8718 Z" stroke-width="1px" stroke="#4DACE0" fill="#4DACE0"/>
          <path clip-path="url(#clip-1389867269)" d="M 0.9549,24.8267 L 0.9549,25.7815 L 49.6533,25.7815 L 49.6533,24.8267 L 0.9549,24.8267 Z" stroke-width="1px" stroke="#50ADE1" fill="#50ADE1"/>
          <path clip-path="url(#clip-1389867269)" d="M 0.9549,25.7815 L 0.9549,26.7364 L 49.6533,26.7364 L 49.6533,25.7815 L 0.9549,25.7815 Z" stroke-width="1px" stroke="#53AEE2" fill="#53AEE2"/>
          <path clip-path="url(#clip-1389867269)" d="M 0.9549,26.7364 L 0.9549,27.6913 L 49.6533,27.6913 L 49.6533,26.7364 L 0.9549,26.7364 Z" stroke-width="1px" stroke="#57AFE3" fill="#57AFE3"/>
          <path clip-path="url(#clip-1389867269)" d="M 0.9549,27.6913 L 0.9549,28.6461 L 49.6533,28.6461 L 49.6533,27.6913 L 0.9549,27.6913 Z" stroke-width="1px" stroke="#5AB1E3" fill="#5AB1E3"/>
          <path clip-path="url(#clip-1389867269)" d="M 0.9549,28.6461 L 0.9549,29.6010 L 49.6533,29.6010 L 49.6533,28.6461 L 0.9549,28.6461 Z" stroke-width="1px" stroke="#5DB2E4" fill="#5DB2E4"/>
          <path clip-path="url(#clip-1389867269)" d="M 0.9549,29.6010 L 0.9549,30.5559 L 49.6533,30.5559 L 49.6533,29.6010 L 0.9549,29.6010 Z" stroke-width="1px" stroke="#60B3E5" fill="#60B3E5"/>
          <path clip-path="url(#clip-1389867269)" d="M 0.9549,30.5559 L 0.9549,31.5108 L 49.6533,31.5108 L 49.6533,30.5559 L 0.9549,30.5559 Z" stroke-width="1px" stroke="#63B5E6" fill="#63B5E6"/>
        </g>
        <g transform="matrix(0.0625 0.0000 0.0000 0.0625 0.0000 0.0000)">
          <path d="M 706.6049,341.8440 L 797.3176,341.8440 L 797.3176,171.8769 L 706.6049,171.8769 L 706.6049,341.8440 M 594.8849,342.7988 L 685.5977,342.7988 L 685.5977,171.8769 L 594.8849,171.8769 L 594.8849,342.7988 M 483.1649,341.8440 L 573.8777,341.8440 L 573.8777,171.8769 L 483.1649,171.8769 L 483.1649,341.8440 M 458.3383,341.8440 L 458.3383,171.8769 L 339.9342,171.8769 L 339.9342,18.1426 L 18.1426,254.9507 L 339.9342,493.6685 L 339.9342,341.8440 L 458.3383,341.8440 " stroke="#0054A6" stroke-width="8.5938" stroke-linecap="round" stroke-linejoin="round" fill="none"/>
        </g>
        <g transform="matrix(1.0000 0.0000 0.0000 1.0000 0.0000 0.0000)">
</g>
        <g transform="matrix(0.0625 0.0000 0.0000 0.0625 0.0000 0.0000)">
          <path d="M 115.5394,298.8748 C 108.8553,298.8748 103.1261,296.9650 99.3066,293.1455 C 94.5323,289.3260 91.6677,284.5517 89.7579,277.8676 C 87.8482,272.1384 86.8933,265.4543 86.8933,256.8604 C 86.8933,244.4471 88.8030,233.9435 94.5323,226.3045 C 97.3969,222.4850 100.2615,219.6204 104.0810,217.7107 C 107.9005,215.8009 112.6748,214.8461 116.4943,214.8461 C 123.1784,214.8461 128.9076,216.7558 133.6820,220.5753 C 137.5015,224.3948 140.3661,229.1691 142.2758,234.8984 C 145.1405,240.6276 146.0953,248.2666 146.0953,255.9055 C 146.0953,268.3189 143.2307,278.8225 138.4564,286.4614 C 135.5917,290.2809 132.7271,294.1004 128.9076,296.0101 C 125.0882,297.9199 120.3138,298.8748 115.5394,298.8748 Z M 116.4943,232.0338 C 114.5846,232.0338 113.6297,232.0338 112.6748,232.9886 C 111.7200,234.8984 109.8102,237.7630 108.8553,241.5825 C 106.9456,245.4020 106.9456,251.1312 106.9456,256.8604 C 106.9456,265.4543 107.9005,272.1384 109.8102,275.9578 C 110.7651,277.8676 111.7200,279.7773 112.6748,279.7773 C 113.6297,280.7322 114.5846,281.6871 116.4943,281.6871 C 117.4492,281.6871 118.4041,280.7322 119.3589,279.7773 C 120.3138,278.8225 122.2235,277.8676 122.2235,275.9578 C 124.1333,273.0932 124.1333,270.2286 125.0882,266.4091 C 125.0882,262.5896 126.0430,259.7250 126.0430,256.8604 C 126.0430,250.1763 125.0882,244.4471 123.1784,239.6727 C 122.2235,236.8081 121.2687,234.8984 120.3138,232.9886 C 119.3589,232.9886 118.4041,232.9886 118.4041,232.9886 C 117.4492,232.0338 116.4943,232.0338 116.4943,232.0338 Z " fill="#FFFFFF" stroke="none"/>
        </g>
        <g transform="matrix(1.0000 0.0000 0.0000 1.0000 0.0000 0.0000)">
</g>
        <g transform="matrix(0.0625 0.0000 0.0000 0.0625 0.0000 0.0000)">
          <path d="M 115.5394,298.8748 C 108.8553,298.8748 103.1261,296.9650 99.3066,293.1455 C 94.5323,289.3260 91.6677,284.5517 89.7579,277.8676 C 87.8482,272.1384 86.8933,265.4543 86.8933,256.8604 C 86.8933,244.4471 88.8030,233.9435 94.5323,226.3045 C 97.3969,222.4850 100.2615,219.6204 104.0810,217.7107 C 107.9005,215.8009 112.6748,214.8461 116.4943,214.8461 C 123.1784,214.8461 128.9076,216.7558 133.6820,220.5753 C 137.5015,224.3948 140.3661,229.1691 142.2758,234.8984 C 145.1405,240.6276 146.0953,248.2666 146.0953,255.9055 C 146.0953,268.3189 143.2307,278.8225 138.4564,286.4614 C 135.5917,290.2809 132.7271,294.1004 128.9076,296.0101 C 125.0882,297.9199 120.3138,298.8748 115.5394,298.8748 Z M 116.4943,232.0338 C 114.5846,232.0338 113.6297,232.0338 112.6748,232.9886 C 111.7200,234.8984 109.8102,237.7630 108.8553,241.5825 C 106.9456,245.4020 106.9456,251.1312 106.9456,256.8604 C 106.9456,265.4543 107.9005,272.1384 109.8102,275.9578 C 110.7651,277.8676 111.7200,279.7773 112.6748,279.7773 C 113.6297,280.7322 114.5846,281.6871 116.4943,281.6871 C 117.4492,281.6871 118.4041,280.7322 119.3589,279.7773 C 120.3138,278.8225 122.2235,277.8676 122.2235,275.9578 C 124.1333,273.0932 124.1333,270.2286 125.0882,266.4091 C 125.0882,262.5896 126.0430,259.7250 126.0430,256.8604 C 126.0430,250.1763 125.0882,244.4471 123.1784,239.6727 C 122.2235,236.8081 121.2687,234.8984 120.3138,232.9886 C 119.3589,232.9886 118.4041,232.9886 118.4041,232.9886 C 117.4492,232.0338 116.4943,232.0338 116.4943,232.0338 Z " stroke="#0054A6" stroke-width="2.8646" stroke-linecap="round" stroke-linejoin="round" fill="none"/>
        </g>
        <g transform="matrix(1.0000 0.0000 0.0000 1.0000 0.0000 0.0000)">
</g>
        <g transform="matrix(0.0625 0.0000 0.0000 0.0625 0.0000 0.0000)">
          <path d="M 214.8461,298.8748 C 209.1168,298.8748 203.3876,296.9650 198.6133,293.1455 C 194.7938,289.3260 190.9743,284.5517 189.0645,277.8676 C 187.1548,272.1384 186.1999,265.4543 186.1999,256.8604 C 186.1999,244.4471 189.0645,233.9435 193.8389,226.3045 C 196.7035,222.4850 199.5681,219.6204 203.3876,217.7107 C 207.2071,215.8009 211.9815,214.8461 215.8009,214.8461 C 222.4850,214.8461 228.2143,216.7558 232.9886,220.5753 C 236.8081,224.3948 239.6727,229.1691 242.5373,234.8984 C 244.4471,240.6276 245.4020,248.2666 245.4020,255.9055 C 245.4020,268.3189 242.5373,278.8225 237.7630,286.4614 C 235.8532,290.2809 232.0338,294.1004 228.2143,296.0101 C 224.3948,297.9199 219.6204,298.8748 214.8461,298.8748 Z M 215.8009,232.0338 C 214.8461,232.0338 213.8912,232.0338 212.9363,232.9886 C 211.0266,234.8984 209.1168,237.7630 208.1620,241.5825 C 207.2071,245.4020 206.2522,251.1312 206.2522,256.8604 C 206.2522,265.4543 207.2071,272.1384 209.1168,275.9578 C 210.0717,277.8676 211.0266,279.7773 212.9363,279.7773 C 213.8912,280.7322 214.8461,281.6871 215.8009,281.6871 C 216.7558,281.6871 217.7107,280.7322 218.6656,279.7773 C 220.5753,278.8225 221.5302,277.8676 222.4850,275.9578 C 223.4399,273.0932 224.3948,270.2286 224.3948,266.4091 C 225.3497,262.5896 225.3497,259.7250 225.3497,256.8604 C 225.3497,250.1763 224.3948,244.4471 223.4399,239.6727 C 222.4850,236.8081 220.5753,234.8984 219.6204,232.9886 C 218.6656,232.9886 218.6656,232.9886 217.7107,232.9886 C 216.7558,232.0338 216.7558,232.0338 215.8009,232.0338 Z " fill="#FFFFFF" stroke="none"/>
        </g>
        <g transform="matrix(1.0000 0.0000 0.0000 1.0000 0.0000 0.0000)">
</g>
        <g transform="matrix(0.0625 0.0000 0.0000 0.0625 0.0000 0.0000)">
          <path d="M 214.8461,298.8748 C 209.1168,298.8748 203.3876,296.9650 198.6133,293.1455 C 194.7938,289.3260 190.9743,284.5517 189.0645,277.8676 C 187.1548,272.1384 186.1999,265.4543 186.1999,256.8604 C 186.1999,244.4471 189.0645,233.9435 193.8389,226.3045 C 196.7035,222.4850 199.5681,219.6204 203.3876,217.7107 C 207.2071,215.8009 211.9815,214.8461 215.8009,214.8461 C 222.4850,214.8461 228.2143,216.7558 232.9886,220.5753 C 236.8081,224.3948 239.6727,229.1691 242.5373,234.8984 C 244.4471,240.6276 245.4020,248.2666 245.4020,255.9055 C 245.4020,268.3189 242.5373,278.8225 237.7630,286.4614 C 235.8532,290.2809 232.0338,294.1004 228.2143,296.0101 C 224.3948,297.9199 219.6204,298.8748 214.8461,298.8748 Z M 215.8009,232.0338 C 214.8461,232.0338 213.8912,232.0338 212.9363,232.9886 C 211.0266,234.8984 209.1168,237.7630 208.1620,241.5825 C 207.2071,245.4020 206.2522,251.1312 206.2522,256.8604 C 206.2522,265.4543 207.2071,272.1384 209.1168,275.9578 C 210.0717,277.8676 211.0266,279.7773 212.9363,279.7773 C 213.8912,280.7322 214.8461,281.6871 215.8009,281.6871 C 216.7558,281.6871 217.7107,280.7322 218.6656,279.7773 C 220.5753,278.8225 221.5302,277.8676 222.4850,275.9578 C 223.4399,273.0932 224.3948,270.2286 224.3948,266.4091 C 225.3497,262.5896 225.3497,259.7250 225.3497,256.8604 C 225.3497,250.1763 224.3948,244.4471 223.4399,239.6727 C 222.4850,236.8081 220.5753,234.8984 219.6204,232.9886 C 218.6656,232.9886 218.6656,232.9886 217.7107,232.9886 C 216.7558,232.0338 216.7558,232.0338 215.8009,232.0338 Z " stroke="#0054A6" stroke-width="2.8646" stroke-linecap="round" stroke-linejoin="round" fill="none"/>
        </g>
        <g transform="matrix(1.0000 0.0000 0.0000 1.0000 0.0000 0.0000)">
</g>
        <g transform="matrix(0.0625 0.0000 0.0000 0.0625 0.0000 0.0000)">
          <path d="M 299.8296,297.9199 L 319.8819,297.9199 L 319.8819,215.8009 L 305.5589,215.8009 L 284.5517,227.2594 L 289.3260,244.4471 L 299.8296,238.7179 L 299.8296,297.9199 Z" stroke-width="1px" stroke="#FFFFFF" fill="#FFFFFF"/>
        </g>
        <g transform="matrix(1.0000 0.0000 0.0000 1.0000 0.0000 0.0000)">
</g>
        <g transform="matrix(0.0625 0.0000 0.0000 0.0625 0.0000 0.0000)">
          <path d="M 299.8296,297.9199 L 319.8819,297.9199 L 319.8819,215.8009 L 305.5589,215.8009 L 284.5517,227.2594 L 289.3260,244.4471 L 299.8296,238.7179 L 299.8296,297.9199 Z" stroke="#0054A6" stroke-width="2.8646" stroke-linecap="round" stroke-linejoin="round" fill="none"/>
        </g>
        <g transform="matrix(1.0000 0.0000 0.0000 1.0000 0.0000 0.0000)">
</g>
        <g transform="matrix(0.0625 0.0000 0.0000 0.0625 0.0000 0.0000)">
          <path d="M 401.0460,298.8748 C 394.3619,298.8748 388.6327,296.9650 384.8132,293.1455 C 380.0388,289.3260 377.1742,284.5517 375.2645,277.8676 C 373.3547,272.1384 372.3999,265.4543 372.3999,256.8604 C 372.3999,244.4471 374.3096,233.9435 380.0388,226.3045 C 382.9034,222.4850 385.7681,219.6204 389.5875,217.7107 C 393.4070,215.8009 398.1814,214.8461 402.0009,214.8461 C 408.6850,214.8461 414.4142,216.7558 419.1886,220.5753 C 423.0080,224.3948 425.8727,229.1691 427.7824,234.8984 C 430.6470,240.6276 431.6019,248.2666 431.6019,255.9055 C 431.6019,268.3189 428.7373,278.8225 423.9629,286.4614 C 421.0983,290.2809 418.2337,294.1004 414.4142,296.0101 C 410.5947,297.9199 405.8204,298.8748 401.0460,298.8748 Z M 402.0009,232.0338 C 400.0911,232.0338 399.1363,232.0338 398.1814,232.9886 C 397.2265,234.8984 395.3168,237.7630 394.3619,241.5825 C 392.4522,245.4020 392.4522,251.1312 392.4522,256.8604 C 392.4522,265.4543 393.4070,272.1384 395.3168,275.9578 C 396.2716,277.8676 397.2265,279.7773 398.1814,279.7773 C 399.1363,280.7322 400.0911,281.6871 402.0009,281.6871 C 402.9557,281.6871 403.9106,280.7322 404.8655,279.7773 C 405.8204,278.8225 407.7301,277.8676 407.7301,275.9578 C 409.6398,273.0932 409.6398,270.2286 410.5947,266.4091 C 410.5947,262.5896 411.5496,259.7250 411.5496,256.8604 C 411.5496,250.1763 410.5947,244.4471 408.6850,239.6727 C 407.7301,236.8081 406.7752,234.8984 405.8204,232.9886 C 404.8655,232.9886 403.9106,232.9886 403.9106,232.9886 C 402.9557,232.0338 402.0009,232.0338 402.0009,232.0338 Z " fill="#FFFFFF" stroke="none"/>
        </g>
        <g transform="matrix(1.0000 0.0000 0.0000 1.0000 0.0000 0.0000)">
</g>
        <g transform="matrix(0.0625 0.0000 0.0000 0.0625 0.0000 0.0000)">
          <path d="M 401.0460,298.8748 C 394.3619,298.8748 388.6327,296.9650 384.8132,293.1455 C 380.0388,289.3260 377.1742,284.5517 375.2645,277.8676 C 373.3547,272.1384 372.3999,265.4543 372.3999,256.8604 C 372.3999,244.4471 374.3096,233.9435 380.0388,226.3045 C 382.9034,222.4850 385.7681,219.6204 389.5875,217.7107 C 393.4070,215.8009 398.1814,214.8461 402.0009,214.8461 C 408.6850,214.8461 414.4142,216.7558 419.1886,220.5753 C 423.0080,224.3948 425.8727,229.1691 427.7824,234.8984 C 430.6470,240.6276 431.6019,248.2666 431.6019,255.9055 C 431.6019,268.3189 428.7373,278.8225 423.9629,286.4614 C 421.0983,290.2809 418.2337,294.1004 414.4142,296.0101 C 410.5947,297.9199 405.8204,298.8748 401.0460,298.8748 Z M 402.0009,232.0338 C 400.0911,232.0338 399.1363,232.0338 398.1814,232.9886 C 397.2265,234.8984 395.3168,237.7630 394.3619,241.5825 C 392.4522,245.4020 392.4522,251.1312 392.4522,256.8604 C 392.4522,265.4543 393.4070,272.1384 395.3168,275.9578 C 396.2716,277.8676 397.2265,279.7773 398.1814,279.7773 C 399.1363,280.7322 400.0911,281.6871 402.0009,281.6871 C 402.9557,281.6871 403.9106,280.7322 404.8655,279.7773 C 405.8204,278.8225 407.7301,277.8676 407.7301,275.9578 C 409.6398,273.0932 409.6398,270.2286 410.5947,266.4091 C 410.5947,262.5896 411.5496,259.7250 411.5496,256.8604 C 411.5496,250.1763 410.5947,244.4471 408.6850,239.6727 C 407.7301,236.8081 406.7752,234.8984 405.8204,232.9886 C 404.8655,232.9886 403.9106,232.9886 403.9106,232.9886 C 402.9557,232.0338 402.0009,232.0338 402.0009,232.0338 Z " stroke="#0054A6" stroke-width="2.8646" stroke-linecap="round" stroke-linejoin="round" fill="none"/>
        </g>
        <g transform="matrix(1.0000 0.0000 0.0000 1.0000 0.0000 0.0000)">
</g>
        <g transform="matrix(0.0625 0.0000 0.0000 0.0625 0.0000 0.0000)">
          <path d="M 528.0439,298.8748 C 522.3147,298.8748 516.5854,296.9650 511.8111,293.1455 C 507.9916,289.3260 504.1721,284.5517 502.2624,277.8676 C 500.3526,272.1384 499.3978,265.4543 499.3978,256.8604 C 499.3978,244.4471 502.2624,233.9435 507.0367,226.3045 C 509.9013,222.4850 512.7660,219.6204 516.5854,217.7107 C 520.4049,215.8009 525.1793,214.8461 528.9988,214.8461 C 535.6829,214.8461 541.4121,216.7558 546.1865,220.5753 C 550.0059,224.3948 552.8706,229.1691 555.7352,234.8984 C 557.6449,240.6276 558.5998,248.2666 558.5998,255.9055 C 558.5998,268.3189 555.7352,278.8225 550.9608,286.4614 C 549.0511,290.2809 545.2316,294.1004 541.4121,296.0101 C 537.5926,297.9199 532.8183,298.8748 528.0439,298.8748 Z M 528.9988,232.0338 C 528.0439,232.0338 527.0890,232.0338 526.1342,232.9886 C 524.2244,234.8984 522.3147,237.7630 521.3598,241.5825 C 520.4049,245.4020 519.4501,251.1312 519.4501,256.8604 C 519.4501,265.4543 520.4049,272.1384 522.3147,275.9578 C 523.2695,277.8676 524.2244,279.7773 525.1793,279.7773 C 527.0890,280.7322 528.0439,281.6871 528.9988,281.6871 C 529.9536,281.6871 530.9085,280.7322 531.8634,279.7773 C 533.7731,278.8225 534.7280,277.8676 535.6829,275.9578 C 536.6377,273.0932 537.5926,270.2286 537.5926,266.4091 C 538.5475,262.5896 538.5475,259.7250 538.5475,256.8604 C 538.5475,250.1763 537.5926,244.4471 535.6829,239.6727 C 534.7280,236.8081 533.7731,234.8984 532.8183,232.9886 C 531.8634,232.9886 531.8634,232.9886 530.9085,232.9886 C 529.9536,232.0338 529.9536,232.0338 528.9988,232.0338 Z " fill="#FFFFFF" stroke="none"/>
        </g>
        <g transform="matrix(1.0000 0.0000 0.0000 1.0000 0.0000 0.0000)">
</g>
        <g transform="matrix(0.0625 0.0000 0.0000 0.0625 0.0000 0.0000)">
          <path d="M 528.0439,298.8748 C 522.3147,298.8748 516.5854,296.9650 511.8111,293.1455 C 507.9916,289.3260 504.1721,284.5517 502.2624,277.8676 C 500.3526,272.1384 499.3978,265.4543 499.3978,256.8604 C 499.3978,244.4471 502.2624,233.9435 507.0367,226.3045 C 509.9013,222.4850 512.7660,219.6204 516.5854,217.7107 C 520.4049,215.8009 525.1793,214.8461 528.9988,214.8461 C 535.6829,214.8461 541.4121,216.7558 546.1865,220.5753 C 550.0059,224.3948 552.8706,229.1691 555.7352,234.8984 C 557.6449,240.6276 558.5998,248.2666 558.5998,255.9055 C 558.5998,268.3189 555.7352,278.8225 550.9608,286.4614 C 549.0511,290.2809 545.2316,294.1004 541.4121,296.0101 C 537.5926,297.9199 532.8183,298.8748 528.0439,298.8748 Z M 528.9988,232.0338 C 528.0439,232.0338 527.0890,232.0338 526.1342,232.9886 C 524.2244,234.8984 522.3147,237.7630 521.3598,241.5825 C 520.4049,245.4020 519.4501,251.1312 519.4501,256.8604 C 519.4501,265.4543 520.4049,272.1384 522.3147,275.9578 C 523.2695,277.8676 524.2244,279.7773 525.1793,279.7773 C 527.0890,280.7322 528.0439,281.6871 528.9988,281.6871 C 529.9536,281.6871 530.9085,280.7322 531.8634,279.7773 C 533.7731,278.8225 534.7280,277.8676 535.6829,275.9578 C 536.6377,273.0932 537.5926,270.2286 537.5926,266.4091 C 538.5475,262.5896 538.5475,259.7250 538.5475,256.8604 C 538.5475,250.1763 537.5926,244.4471 535.6829,239.6727 C 534.7280,236.8081 533.7731,234.8984 532.8183,232.9886 C 531.8634,232.9886 531.8634,232.9886 530.9085,232.9886 C 529.9536,232.0338 529.9536,232.0338 528.9988,232.0338 Z " stroke="#0054A6" stroke-width="2.8646" stroke-linecap="round" stroke-linejoin="round" fill="none"/>
        </g>
        <g transform="matrix(1.0000 0.0000 0.0000 1.0000 0.0000 0.0000)">
</g>
        <g transform="matrix(0.0625 0.0000 0.0000 0.0625 0.0000 0.0000)">
          <path d="M 634.9895,297.9199 L 655.0418,297.9199 L 655.0418,215.8009 L 640.7187,215.8009 L 619.7116,227.2594 L 624.4859,244.4471 L 634.9895,238.7179 L 634.9895,297.9199 Z" stroke-width="1px" stroke="#FFFFFF" fill="#FFFFFF"/>
        </g>
        <g transform="matrix(1.0000 0.0000 0.0000 1.0000 0.0000 0.0000)">
</g>
        <g transform="matrix(0.0625 0.0000 0.0000 0.0625 0.0000 0.0000)">
          <path d="M 634.9895,297.9199 L 655.0418,297.9199 L 655.0418,215.8009 L 640.7187,215.8009 L 619.7116,227.2594 L 624.4859,244.4471 L 634.9895,238.7179 L 634.9895,297.9199 Z" stroke="#0054A6" stroke-width="2.8646" stroke-linecap="round" stroke-linejoin="round" fill="none"/>
        </g>
        <g transform="matrix(1.0000 0.0000 0.0000 1.0000 0.0000 0.0000)">
</g>
        <g transform="matrix(0.0625 0.0000 0.0000 0.0625 0.0000 0.0000)">
          <path d="M 748.6192,297.9199 L 768.6715,297.9199 L 768.6715,215.8009 L 754.3484,215.8009 L 733.3413,227.2594 L 738.1156,244.4471 L 748.6192,238.7179 L 748.6192,297.9199 Z" stroke-width="1px" stroke="#FFFFFF" fill="#FFFFFF"/>
        </g>
        <g transform="matrix(1.0000 0.0000 0.0000 1.0000 0.0000 0.0000)">
</g>
        <g transform="matrix(0.0625 0.0000 0.0000 0.0625 0.0000 0.0000)">
          <path d="M 748.6192,297.9199 L 768.6715,297.9199 L 768.6715,215.8009 L 754.3484,215.8009 L 733.3413,227.2594 L 738.1156,244.4471 L 748.6192,238.7179 L 748.6192,297.9199 Z" stroke="#0054A6" stroke-width="2.8646" stroke-linecap="round" stroke-linejoin="round" fill="none"/>
        </g>
        <g transform="matrix(1.0000 0.0000 0.0000 1.0000 0.0000 0.0000)">
</g>
      </g>
      <!--emf-blob end-->
    </g>
  </g>
</svg>
