<svg xmlns="http://www.w3.org/2000/svg" xmlns:xlink="http://www.w3.org/1999/xlink" version="1.1" width="47.8488000000" height="32.4000000000">
  <title><![CDATA[Document V1]]></title>
  <g transform=" scale(1.000000) ">
    <text xmlns="http://www.w3.org/2000/svg" x="8.0404" y="32.3999" transform="rotate(0.0002, 23.9244, 36.0999)">
      <tspan font-family="Arial" font-size="4.5000" fill="#000000" fill-opacity="1.0000" stroke-opacity="1.0000">
Generic App V1</tspan>
    </text>
    <!--converted by libvisio2svg-->
    <g transform=" translate(23.9245, 15.8738)  scale(1, 1)  rotate(0.0002)  translate(-23.9245, -15.8738)  translate(-1.119600,-1.771900) ">
      <!--emf-blob start-->
      <g transform="translate(-0.0000, -0.0000)">
        <g transform="matrix(0.0625 0.0000 0.0000 0.0625 0.0000 0.0000)">
          <path d="M 18.0318,18.0318 L 18.0318,548.9667 L 785.3830,548.9667 L 785.3830,18.0318 L 18.0318,18.0318 Z" stroke-width="1px" stroke="#1A1A1A" fill="#1A1A1A"/>
        </g>
        <g transform="matrix(1.0000 0.0000 0.0000 1.0000 0.0000 0.0000)">
</g>
        <g transform="matrix(0.0625 0.0000 0.0000 0.0625 0.0000 0.0000)">
          <path d="M 393.6933,36.0635 L 36.0635,36.0635 L 36.0635,530.9349 L 768.3530,530.9349 L 768.3530,36.0635 L 393.6933,36.0635 Z" stroke-width="1px" stroke="#F2F2F2" fill="#F2F2F2"/>
        </g>
        <g transform="matrix(1.0000 0.0000 0.0000 1.0000 0.0000 0.0000)">
</g>
        <g transform="matrix(0.0625 0.0000 0.0000 0.0625 0.0000 0.0000)">
          <path d="M 36.0635,81.1429 L 36.0635,209.3687 L 768.3530,209.3687 L 768.3530,81.1429 L 36.0635,81.1429 Z" stroke-width="1px" stroke="#1C75BC" fill="#1C75BC"/>
        </g>
        <g transform="matrix(1.0000 0.0000 0.0000 1.0000 0.0000 0.0000)">
</g>
        <g transform="matrix(0.0625 0.0000 0.0000 0.0625 0.0000 0.0000)">
          <path d="M 29.0512,76.1341 L 777.3689,76.1341 L 777.3689,27.0476 L 29.0512,27.0476 L 29.0512,76.1341 " stroke="#1A1A1A" stroke-width="13.0229" stroke-linecap="round" stroke-linejoin="round" fill="none"/>
        </g>
        <g transform="matrix(1.0000 0.0000 0.0000 1.0000 0.0000 0.0000)">
</g>
        <g transform="matrix(0.0625 0.0000 0.0000 0.0625 0.0000 0.0000)">
          <path d="M 74.1305,337.5945 L 466.8220,337.5945 L 466.8220,319.5627 L 74.1305,319.5627 L 74.1305,337.5945 Z M 74.1305,291.5133 L 466.8220,291.5133 L 466.8220,273.4816 L 74.1305,273.4816 L 74.1305,291.5133 Z M 74.1305,475.8379 L 466.8220,475.8379 L 466.8220,458.8079 L 74.1305,458.8079 L 74.1305,475.8379 Z M 74.1305,429.7568 L 466.8220,429.7568 L 466.8220,412.7268 L 74.1305,412.7268 L 74.1305,429.7568 Z M 74.1305,383.6756 L 466.8220,383.6756 L 466.8220,365.6439 L 74.1305,365.6439 L 74.1305,383.6756 Z " fill="#1A1A1A" stroke-width="1px" stroke="#1A1A1A"/>
        </g>
        <g transform="matrix(1.0000 0.0000 0.0000 1.0000 0.0000 0.0000)">
</g>
        <g transform="matrix(0.0625 0.0000 0.0000 0.0625 0.0000 0.0000)">
          <path d="M 516.9102,337.5945 L 701.2348,337.5945 L 701.2348,319.5627 L 516.9102,319.5627 L 516.9102,337.5945 Z M 516.9102,291.5133 L 701.2348,291.5133 L 701.2348,273.4816 L 516.9102,273.4816 L 516.9102,291.5133 Z M 516.9102,475.8379 L 701.2348,475.8379 L 701.2348,458.8079 L 516.9102,458.8079 L 516.9102,475.8379 Z M 516.9102,429.7568 L 701.2348,429.7568 L 701.2348,412.7268 L 516.9102,412.7268 L 516.9102,429.7568 Z M 516.9102,383.6756 L 701.2348,383.6756 L 701.2348,365.6439 L 516.9102,365.6439 L 516.9102,383.6756 Z " fill="#808080" stroke-width="1px" stroke="#808080"/>
        </g>
        <g transform="matrix(1.0000 0.0000 0.0000 1.0000 0.0000 0.0000)">
</g>
      </g>
      <!--emf-blob end-->
    </g>
  </g>
</svg>
