<svg xmlns="http://www.w3.org/2000/svg" xmlns:xlink="http://www.w3.org/1999/xlink" version="1.1" width="20.9128000000" height="24.3809000000">
  <title><![CDATA[Email V2]]></title>
  <g transform=" scale(1.000000) ">
    <!--converted by libvisio2svg-->
    <g transform=" translate(-1.167900,-1.156100) ">
      <!--emf-blob start-->
      <g transform="translate(0.9286, -0.9286)">
        <g transform="matrix(0.0625 0.0000 0.0000 0.0625 0.0000 0.0000)">
          <path d="M 17.6439,177.3679 L 17.6439,379.8089 L 328.7343,379.8089 L 328.7343,177.3679 L 17.6439,177.3679 Z" stroke-width="1px" stroke="#FFFFFF" fill="#FFFFFF"/>
        </g>
        <g transform="matrix(1.0000 0.0000 0.0000 1.0000 0.0000 0.0000)">
</g>
        <g transform="matrix(0.0625 0.0000 0.0000 0.0625 0.0000 0.0000)">
          <path d="M 17.6439,177.3679 L 17.6439,379.8089 L 328.7343,379.8089 L 328.7343,177.3679 L 17.6439,177.3679 Z" stroke="#1A1A1A" stroke-width="9.2863" stroke-linecap="round" stroke-linejoin="round" fill="none"/>
        </g>
        <g transform="matrix(1.0000 0.0000 0.0000 1.0000 0.0000 0.0000)">
</g>
        <g transform="matrix(0.0625 0.0000 0.0000 0.0625 0.0000 0.0000)">
          <path d="M 169.0103,70.5757 L 20.4298,175.5107 L 327.8057,175.5107 L 178.2966,70.5757 C 177.3679,69.6471 175.5107,68.7185 173.6534,68.7185 C 171.7962,68.7185 170.8676,69.6471 169.0103,70.5757 Z " fill="#FFFFFF" stroke="none"/>
        </g>
        <g transform="matrix(1.0000 0.0000 0.0000 1.0000 0.0000 0.0000)">
</g>
        <g transform="matrix(0.0625 0.0000 0.0000 0.0625 0.0000 0.0000)">
          <path d="M 169.0103,70.5757 L 20.4298,175.5107 L 327.8057,175.5107 L 178.2966,70.5757 C 177.3679,69.6471 175.5107,68.7185 173.6534,68.7185 C 171.7962,68.7185 170.8676,69.6471 169.0103,70.5757 Z " stroke="#1A1A1A" stroke-width="9.2863" stroke-linecap="round" stroke-linejoin="round" fill="none"/>
        </g>
        <g transform="matrix(1.0000 0.0000 0.0000 1.0000 0.0000 0.0000)">
</g>
        <g transform="matrix(0.0625 0.0000 0.0000 0.0625 0.0000 0.0000)">
          <path d="M 19.5012,192.2260 L 19.5012,378.8802 L 117.9358,278.5884 L 19.5012,192.2260 Z" stroke-width="1px" stroke="#FFFFFF" fill="#FFFFFF"/>
        </g>
        <g transform="matrix(1.0000 0.0000 0.0000 1.0000 0.0000 0.0000)">
</g>
        <g transform="matrix(0.0625 0.0000 0.0000 0.0625 0.0000 0.0000)">
          <path d="M 19.5012,192.2260 L 19.5012,378.8802 L 117.9358,278.5884 L 19.5012,192.2260 Z" stroke="#1A1A1A" stroke-width="9.2863" stroke-linecap="round" stroke-linejoin="round" fill="none"/>
        </g>
        <g transform="matrix(1.0000 0.0000 0.0000 1.0000 0.0000 0.0000)">
</g>
        <g transform="matrix(0.0625 0.0000 0.0000 0.0625 0.0000 0.0000)">
          <path d="M 327.8057,379.8089 L 327.8057,191.2974 L 229.3711,276.7311 L 327.8057,379.8089 Z" stroke-width="1px" stroke="#FFFFFF" fill="#FFFFFF"/>
        </g>
        <g transform="matrix(1.0000 0.0000 0.0000 1.0000 0.0000 0.0000)">
</g>
        <g transform="matrix(0.0625 0.0000 0.0000 0.0625 0.0000 0.0000)">
          <path d="M 327.8057,379.8089 L 327.8057,191.2974 L 229.3711,276.7311 L 327.8057,379.8089 Z" stroke="#1A1A1A" stroke-width="9.2863" stroke-linecap="round" stroke-linejoin="round" fill="none"/>
        </g>
        <g transform="matrix(1.0000 0.0000 0.0000 1.0000 0.0000 0.0000)">
</g>
        <g transform="matrix(0.0625 0.0000 0.0000 0.0625 0.0000 0.0000)">
          <path d="M 291.5892,102.1491 L 207.0840,16.7153 L 59.4322,16.7153 L 59.4322,333.3775 L 291.5892,333.3775 L 291.5892,102.1491 Z" stroke-width="1px" stroke="#1A1A1A" fill="#1A1A1A"/>
        </g>
        <g transform="matrix(1.0000 0.0000 0.0000 1.0000 0.0000 0.0000)">
</g>
        <g transform="matrix(0.0625 0.0000 0.0000 0.0625 0.0000 0.0000)">
          <path d="M 196.8691,27.8588 L 69.6471,27.8588 L 69.6471,323.1625 L 281.3743,323.1625 L 281.3743,112.3640 L 196.8691,112.3640 L 196.8691,27.8588 Z" stroke-width="1px" stroke="#FFFFFF" fill="#FFFFFF"/>
        </g>
        <g transform="matrix(1.0000 0.0000 0.0000 1.0000 0.0000 0.0000)">
</g>
        <g transform="matrix(0.0625 0.0000 0.0000 0.0625 0.0000 0.0000)">
          <path d="M 101.2205,59.4322 L 101.2205,69.6471 L 164.3672,69.6471 L 164.3672,59.4322 L 101.2205,59.4322 Z" stroke-width="1px" stroke="#1A1A1A" fill="#1A1A1A"/>
        </g>
        <g transform="matrix(1.0000 0.0000 0.0000 1.0000 0.0000 0.0000)">
</g>
        <g transform="matrix(0.0625 0.0000 0.0000 0.0625 0.0000 0.0000)">
          <path d="M 101.2205,101.2205 L 101.2205,111.4354 L 164.3672,111.4354 L 164.3672,101.2205 L 101.2205,101.2205 Z" stroke-width="1px" stroke="#1A1A1A" fill="#1A1A1A"/>
        </g>
        <g transform="matrix(1.0000 0.0000 0.0000 1.0000 0.0000 0.0000)">
</g>
        <g transform="matrix(0.0625 0.0000 0.0000 0.0625 0.0000 0.0000)">
          <path d="M 101.2205,143.0087 L 101.2205,154.1522 L 248.8723,154.1522 L 248.8723,143.0087 L 101.2205,143.0087 Z" stroke-width="1px" stroke="#1A1A1A" fill="#1A1A1A"/>
        </g>
        <g transform="matrix(1.0000 0.0000 0.0000 1.0000 0.0000 0.0000)">
</g>
        <g transform="matrix(0.0625 0.0000 0.0000 0.0625 0.0000 0.0000)">
          <path d="M 101.2205,185.7256 L 101.2205,195.9405 L 248.8723,195.9405 L 248.8723,185.7256 L 101.2205,185.7256 Z" stroke-width="1px" stroke="#1A1A1A" fill="#1A1A1A"/>
        </g>
        <g transform="matrix(1.0000 0.0000 0.0000 1.0000 0.0000 0.0000)">
</g>
        <g transform="matrix(0.0625 0.0000 0.0000 0.0625 0.0000 0.0000)">
          <path d="M 101.2205,227.5139 L 101.2205,238.6574 L 248.8723,238.6574 L 248.8723,227.5139 L 101.2205,227.5139 Z" stroke-width="1px" stroke="#1A1A1A" fill="#1A1A1A"/>
        </g>
        <g transform="matrix(1.0000 0.0000 0.0000 1.0000 0.0000 0.0000)">
</g>
      </g>
      <!--emf-blob end-->
    </g>
  </g>
</svg>
