<svg xmlns="http://www.w3.org/2000/svg" xmlns:xlink="http://www.w3.org/1999/xlink" version="1.1" width="31.1811000000" height="28.3465000000">
  <title><![CDATA[Email V1]]></title>
  <g transform=" scale(1.000000) ">
    <text xmlns="http://www.w3.org/2000/svg" x="6.5873" y="28.3465">
      <tspan font-family="Arial" font-size="4.5000" fill="#000000" fill-opacity="1.0000" stroke-opacity="1.0000">
Email V1</tspan>
    </text>
    <!--converted by libvisio2svg-->
    <g transform=" translate(-1.138600,-1.134800) ">
      <!--emf-blob start-->
      <g transform="translate(-0.0000, -0.0000)">
        <path d="M 4.9231,29.5387 C 4.9231,29.5387 4.9231,29.5387 4.9231,29.5387 L 4.9231,29.5387 L 31.5080,29.5387 C 31.5080,29.5387 32.4926,29.5387 32.4926,28.5541 C 32.4926,28.5541 32.4926,28.5541 32.4926,28.5541 L 32.4926,28.5541 L 32.4926,1.9692 C 32.4926,1.9692 32.4926,1.9692 32.4926,1.9692 C 32.4926,1.9692 31.5080,1.9692 31.5080,1.9692 L 31.5080,1.9692 L 4.9231,1.9692 C 4.9231,1.9692 4.9231,1.9692 4.9231,1.9692 C 4.9231,1.9692 3.9385,1.9692 3.9385,1.9692 L 3.9385,1.9692 L 3.9385,28.5541 C 3.9385,28.5541 4.9231,29.5387 4.9231,29.5387 Z " fill="none" stroke="none"/>
        <defs>
          <clipPath id="clip-1973387981">
            <path d="M 4.9231,29.5387 C 4.9231,29.5387 4.9231,29.5387 4.9231,29.5387 L 4.9231,29.5387 L 31.5080,29.5387 C 31.5080,29.5387 32.4926,29.5387 32.4926,28.5541 C 32.4926,28.5541 32.4926,28.5541 32.4926,28.5541 L 32.4926,28.5541 L 32.4926,1.9692 C 32.4926,1.9692 32.4926,1.9692 32.4926,1.9692 C 32.4926,1.9692 31.5080,1.9692 31.5080,1.9692 L 31.5080,1.9692 L 4.9231,1.9692 C 4.9231,1.9692 4.9231,1.9692 4.9231,1.9692 C 4.9231,1.9692 3.9385,1.9692 3.9385,1.9692 L 3.9385,1.9692 L 3.9385,28.5541 C 3.9385,28.5541 4.9231,29.5387 4.9231,29.5387 Z"/>
          </clipPath>
        </defs>
        <path clip-path="url(#clip-1973387981)" d="M 3.9385,0.9846 L 3.9385,1.9692 L 32.4926,1.9692 L 32.4926,0.9846 L 3.9385,0.9846 Z" stroke-width="1px" stroke="#E5E5E5" fill="#E5E5E5"/>
        <path clip-path="url(#clip-1973387981)" d="M 3.9385,1.9692 L 3.9385,2.9539 L 32.4926,2.9539 L 32.4926,1.9692 L 3.9385,1.9692 Z" stroke-width="1px" stroke="#6A6A6A" fill="#6A6A6A"/>
        <path clip-path="url(#clip-1973387981)" d="M 3.9385,2.9539 L 3.9385,3.9385 L 32.4926,3.9385 L 32.4926,2.9539 L 3.9385,2.9539 Z" stroke-width="1px" stroke="#6E6E6E" fill="#6E6E6E"/>
        <path clip-path="url(#clip-1973387981)" d="M 3.9385,3.9385 L 3.9385,4.9231 L 32.4926,4.9231 L 32.4926,3.9385 L 3.9385,3.9385 Z" stroke-width="1px" stroke="#737373" fill="#737373"/>
        <path clip-path="url(#clip-1973387981)" d="M 3.9385,4.9231 L 3.9385,5.9077 L 32.4926,5.9077 L 32.4926,4.9231 L 3.9385,4.9231 Z" stroke-width="1px" stroke="#777777" fill="#777777"/>
        <path clip-path="url(#clip-1973387981)" d="M 3.9385,5.9077 L 3.9385,6.8924 L 32.4926,6.8924 L 32.4926,5.9077 L 3.9385,5.9077 Z" stroke-width="1px" stroke="#7C7C7C" fill="#7C7C7C"/>
        <path clip-path="url(#clip-1973387981)" d="M 3.9385,6.8924 L 3.9385,7.8770 L 32.4926,7.8770 L 32.4926,6.8924 L 3.9385,6.8924 Z" stroke-width="1px" stroke="#808080" fill="#808080"/>
        <path clip-path="url(#clip-1973387981)" d="M 3.9385,7.8770 L 3.9385,8.8616 L 32.4926,8.8616 L 32.4926,7.8770 L 3.9385,7.8770 Z" stroke-width="1px" stroke="#858585" fill="#858585"/>
        <path clip-path="url(#clip-1973387981)" d="M 3.9385,8.8616 L 3.9385,9.8462 L 32.4926,9.8462 L 32.4926,8.8616 L 3.9385,8.8616 Z" stroke-width="1px" stroke="#898989" fill="#898989"/>
        <path clip-path="url(#clip-1973387981)" d="M 3.9385,9.8462 L 3.9385,10.8309 L 32.4926,10.8309 L 32.4926,9.8462 L 3.9385,9.8462 Z" stroke-width="1px" stroke="#8E8E8E" fill="#8E8E8E"/>
        <path clip-path="url(#clip-1973387981)" d="M 3.9385,10.8309 L 3.9385,11.8155 L 32.4926,11.8155 L 32.4926,10.8309 L 3.9385,10.8309 Z" stroke-width="1px" stroke="#929292" fill="#929292"/>
        <path clip-path="url(#clip-1973387981)" d="M 3.9385,11.8155 L 3.9385,12.8001 L 32.4926,12.8001 L 32.4926,11.8155 L 3.9385,11.8155 Z" stroke-width="1px" stroke="#979797" fill="#979797"/>
        <path clip-path="url(#clip-1973387981)" d="M 3.9385,12.8001 L 3.9385,13.7847 L 32.4926,13.7847 L 32.4926,12.8001 L 3.9385,12.8001 Z" stroke-width="1px" stroke="#9C9C9C" fill="#9C9C9C"/>
        <path clip-path="url(#clip-1973387981)" d="M 3.9385,13.7847 L 3.9385,14.7694 L 32.4926,14.7694 L 32.4926,13.7847 L 3.9385,13.7847 Z" stroke-width="1px" stroke="#A0A0A0" fill="#A0A0A0"/>
        <path clip-path="url(#clip-1973387981)" d="M 3.9385,14.7694 L 3.9385,15.7540 L 32.4926,15.7540 L 32.4926,14.7694 L 3.9385,14.7694 Z" stroke-width="1px" stroke="#A5A5A5" fill="#A5A5A5"/>
        <path clip-path="url(#clip-1973387981)" d="M 3.9385,15.7540 L 3.9385,16.7386 L 32.4926,16.7386 L 32.4926,15.7540 L 3.9385,15.7540 Z" stroke-width="1px" stroke="#A9A9A9" fill="#A9A9A9"/>
        <path clip-path="url(#clip-1973387981)" d="M 3.9385,16.7386 L 3.9385,17.7232 L 32.4926,17.7232 L 32.4926,16.7386 L 3.9385,16.7386 Z" stroke-width="1px" stroke="#AEAEAE" fill="#AEAEAE"/>
        <path clip-path="url(#clip-1973387981)" d="M 3.9385,17.7232 L 3.9385,18.7078 L 32.4926,18.7078 L 32.4926,17.7232 L 3.9385,17.7232 Z" stroke-width="1px" stroke="#B2B2B2" fill="#B2B2B2"/>
        <path clip-path="url(#clip-1973387981)" d="M 3.9385,18.7078 L 3.9385,19.6925 L 32.4926,19.6925 L 32.4926,18.7078 L 3.9385,18.7078 Z" stroke-width="1px" stroke="#B7B7B7" fill="#B7B7B7"/>
        <path clip-path="url(#clip-1973387981)" d="M 3.9385,19.6925 L 3.9385,20.6771 L 32.4926,20.6771 L 32.4926,19.6925 L 3.9385,19.6925 Z" stroke-width="1px" stroke="#BBBBBB" fill="#BBBBBB"/>
        <path clip-path="url(#clip-1973387981)" d="M 3.9385,20.6771 L 3.9385,21.6617 L 32.4926,21.6617 L 32.4926,20.6771 L 3.9385,20.6771 Z" stroke-width="1px" stroke="#C0C0C0" fill="#C0C0C0"/>
        <path clip-path="url(#clip-1973387981)" d="M 3.9385,21.6617 L 3.9385,22.6463 L 32.4926,22.6463 L 32.4926,21.6617 L 3.9385,21.6617 Z" stroke-width="1px" stroke="#C4C4C4" fill="#C4C4C4"/>
        <path clip-path="url(#clip-1973387981)" d="M 3.9385,22.6463 L 3.9385,23.6310 L 32.4926,23.6310 L 32.4926,22.6463 L 3.9385,22.6463 Z" stroke-width="1px" stroke="#C9C9C9" fill="#C9C9C9"/>
        <path clip-path="url(#clip-1973387981)" d="M 3.9385,23.6310 L 3.9385,24.6156 L 32.4926,24.6156 L 32.4926,23.6310 L 3.9385,23.6310 Z" stroke-width="1px" stroke="#CDCDCD" fill="#CDCDCD"/>
        <path clip-path="url(#clip-1973387981)" d="M 3.9385,24.6156 L 3.9385,25.6002 L 32.4926,25.6002 L 32.4926,24.6156 L 3.9385,24.6156 Z" stroke-width="1px" stroke="#D2D2D2" fill="#D2D2D2"/>
        <path clip-path="url(#clip-1973387981)" d="M 3.9385,25.6002 L 3.9385,26.5848 L 32.4926,26.5848 L 32.4926,25.6002 L 3.9385,25.6002 Z" stroke-width="1px" stroke="#D6D6D6" fill="#D6D6D6"/>
        <path clip-path="url(#clip-1973387981)" d="M 3.9385,26.5848 L 3.9385,27.5695 L 32.4926,27.5695 L 32.4926,26.5848 L 3.9385,26.5848 Z" stroke-width="1px" stroke="#DBDBDB" fill="#DBDBDB"/>
        <path clip-path="url(#clip-1973387981)" d="M 3.9385,27.5695 L 3.9385,28.5541 L 32.4926,28.5541 L 32.4926,27.5695 L 3.9385,27.5695 Z" stroke-width="1px" stroke="#DFDFDF" fill="#DFDFDF"/>
        <path clip-path="url(#clip-1973387981)" d="M 3.9385,28.5541 L 3.9385,29.5387 L 32.4926,29.5387 L 32.4926,28.5541 L 3.9385,28.5541 Z" stroke-width="1px" stroke="#E4E4E4" fill="#E4E4E4"/>
        <g transform="matrix(0.0625 0.0000 0.0000 0.0625 0.0000 0.0000)">
          <path d="M 70.8929,463.7577 C 72.8621,464.7423 74.8314,465.7269 76.8006,465.7269 L 76.8006,465.7269 L 496.2503,465.7269 C 504.1272,465.7269 510.0350,459.8192 510.0350,451.9422 C 510.0350,451.9422 510.0350,451.9422 510.0350,451.9422 L 510.0350,451.9422 L 510.0350,31.5080 C 510.0350,31.5080 510.0350,31.5080 510.0350,30.5233 C 509.0504,23.6310 503.1426,18.7078 496.2503,18.7078 L 496.2503,18.7078 L 76.8006,18.7078 C 73.8468,18.7078 71.8775,18.7078 69.9083,20.6771 C 65.9698,22.6463 63.0159,27.5695 63.0159,31.5080 L 63.0159,31.5080 L 63.0159,451.9422 C 63.0159,456.8653 65.9698,461.7884 70.8929,463.7577 " stroke="#0054A6" stroke-width="6.8924" stroke-linecap="round" stroke-linejoin="round" fill="none"/>
        </g>
        <g transform="matrix(1.0000 0.0000 0.0000 1.0000 0.0000 0.0000)">
          <path d="M 4.9231,29.5387 C 4.9231,29.5387 3.9385,28.5541 3.9385,28.5541 L 3.9385,28.5541 L 3.9385,1.9692 C 3.9385,1.9692 4.9231,1.9692 4.9231,1.9692 L 4.9231,1.9692 L 1.9692,2.9539 C 1.9692,3.9385 1.9692,3.9385 1.9692,3.9385 L 1.9692,3.9385 L 1.9692,27.5695 C 1.9692,27.5695 1.9692,27.5695 1.9692,27.5695 L 1.9692,27.5695 L 4.9231,29.5387 Z " fill="none" stroke="none"/>
          <defs>
            <clipPath id="clip-1642548899">
              <path d="M 4.9231,29.5387 C 4.9231,29.5387 3.9385,28.5541 3.9385,28.5541 L 3.9385,28.5541 L 3.9385,1.9692 C 3.9385,1.9692 4.9231,1.9692 4.9231,1.9692 L 4.9231,1.9692 L 1.9692,2.9539 C 1.9692,3.9385 1.9692,3.9385 1.9692,3.9385 L 1.9692,3.9385 L 1.9692,27.5695 C 1.9692,27.5695 1.9692,27.5695 1.9692,27.5695 L 1.9692,27.5695 L 4.9231,29.5387 Z"/>
            </clipPath>
          </defs>
          <path clip-path="url(#clip-1642548899)" d="M 0.9846,0.9846 L 0.9846,1.9692 L 4.9231,1.9692 L 4.9231,0.9846 L 0.9846,0.9846 Z" stroke-width="1px" stroke="#999999" fill="#999999"/>
          <path clip-path="url(#clip-1642548899)" d="M 0.9846,1.9692 L 0.9846,2.9539 L 4.9231,2.9539 L 4.9231,1.9692 L 0.9846,1.9692 Z" stroke-width="1px" stroke="#5B5B5B" fill="#5B5B5B"/>
          <path clip-path="url(#clip-1642548899)" d="M 0.9846,2.9539 L 0.9846,3.9385 L 4.9231,3.9385 L 4.9231,2.9539 L 0.9846,2.9539 Z" stroke-width="1px" stroke="#5D5D5D" fill="#5D5D5D"/>
          <path clip-path="url(#clip-1642548899)" d="M 0.9846,3.9385 L 0.9846,4.9231 L 4.9231,4.9231 L 4.9231,3.9385 L 0.9846,3.9385 Z" stroke-width="1px" stroke="#5F5F5F" fill="#5F5F5F"/>
          <path clip-path="url(#clip-1642548899)" d="M 0.9846,4.9231 L 0.9846,5.9077 L 4.9231,5.9077 L 4.9231,4.9231 L 0.9846,4.9231 Z" stroke-width="1px" stroke="#626262" fill="#626262"/>
          <path clip-path="url(#clip-1642548899)" d="M 0.9846,5.9077 L 0.9846,6.8924 L 4.9231,6.8924 L 4.9231,5.9077 L 0.9846,5.9077 Z" stroke-width="1px" stroke="#646464" fill="#646464"/>
          <path clip-path="url(#clip-1642548899)" d="M 0.9846,6.8924 L 0.9846,7.8770 L 4.9231,7.8770 L 4.9231,6.8924 L 0.9846,6.8924 Z" stroke-width="1px" stroke="#666666" fill="#666666"/>
          <path clip-path="url(#clip-1642548899)" d="M 0.9846,7.8770 L 0.9846,8.8616 L 4.9231,8.8616 L 4.9231,7.8770 L 0.9846,7.8770 Z" stroke-width="1px" stroke="#686868" fill="#686868"/>
          <path clip-path="url(#clip-1642548899)" d="M 0.9846,8.8616 L 0.9846,9.8462 L 4.9231,9.8462 L 4.9231,8.8616 L 0.9846,8.8616 Z" stroke-width="1px" stroke="#6B6B6B" fill="#6B6B6B"/>
          <path clip-path="url(#clip-1642548899)" d="M 0.9846,9.8462 L 0.9846,10.8309 L 4.9231,10.8309 L 4.9231,9.8462 L 0.9846,9.8462 Z" stroke-width="1px" stroke="#6D6D6D" fill="#6D6D6D"/>
          <path clip-path="url(#clip-1642548899)" d="M 0.9846,10.8309 L 0.9846,11.8155 L 4.9231,11.8155 L 4.9231,10.8309 L 0.9846,10.8309 Z" stroke-width="1px" stroke="#6F6F6F" fill="#6F6F6F"/>
          <path clip-path="url(#clip-1642548899)" d="M 0.9846,11.8155 L 0.9846,12.8001 L 4.9231,12.8001 L 4.9231,11.8155 L 0.9846,11.8155 Z" stroke-width="1px" stroke="#717171" fill="#717171"/>
          <path clip-path="url(#clip-1642548899)" d="M 0.9846,12.8001 L 0.9846,13.7847 L 4.9231,13.7847 L 4.9231,12.8001 L 0.9846,12.8001 Z" stroke-width="1px" stroke="#747474" fill="#747474"/>
          <path clip-path="url(#clip-1642548899)" d="M 0.9846,13.7847 L 0.9846,14.7694 L 4.9231,14.7694 L 4.9231,13.7847 L 0.9846,13.7847 Z" stroke-width="1px" stroke="#767676" fill="#767676"/>
          <path clip-path="url(#clip-1642548899)" d="M 0.9846,14.7694 L 0.9846,15.7540 L 4.9231,15.7540 L 4.9231,14.7694 L 0.9846,14.7694 Z" stroke-width="1px" stroke="#797979" fill="#797979"/>
          <path clip-path="url(#clip-1642548899)" d="M 0.9846,15.7540 L 0.9846,16.7386 L 4.9231,16.7386 L 4.9231,15.7540 L 0.9846,15.7540 Z" stroke-width="1px" stroke="#7C7C7C" fill="#7C7C7C"/>
          <path clip-path="url(#clip-1642548899)" d="M 0.9846,16.7386 L 0.9846,17.7232 L 4.9231,17.7232 L 4.9231,16.7386 L 0.9846,16.7386 Z" stroke-width="1px" stroke="#7E7E7E" fill="#7E7E7E"/>
          <path clip-path="url(#clip-1642548899)" d="M 0.9846,17.7232 L 0.9846,18.7078 L 4.9231,18.7078 L 4.9231,17.7232 L 0.9846,17.7232 Z" stroke-width="1px" stroke="#808080" fill="#808080"/>
          <path clip-path="url(#clip-1642548899)" d="M 0.9846,18.7078 L 0.9846,19.6925 L 4.9231,19.6925 L 4.9231,18.7078 L 0.9846,18.7078 Z" stroke-width="1px" stroke="#828282" fill="#828282"/>
          <path clip-path="url(#clip-1642548899)" d="M 0.9846,19.6925 L 0.9846,20.6771 L 4.9231,20.6771 L 4.9231,19.6925 L 0.9846,19.6925 Z" stroke-width="1px" stroke="#858585" fill="#858585"/>
          <path clip-path="url(#clip-1642548899)" d="M 0.9846,20.6771 L 0.9846,21.6617 L 4.9231,21.6617 L 4.9231,20.6771 L 0.9846,20.6771 Z" stroke-width="1px" stroke="#878787" fill="#878787"/>
          <path clip-path="url(#clip-1642548899)" d="M 0.9846,21.6617 L 0.9846,22.6463 L 4.9231,22.6463 L 4.9231,21.6617 L 0.9846,21.6617 Z" stroke-width="1px" stroke="#898989" fill="#898989"/>
          <path clip-path="url(#clip-1642548899)" d="M 0.9846,22.6463 L 0.9846,23.6310 L 4.9231,23.6310 L 4.9231,22.6463 L 0.9846,22.6463 Z" stroke-width="1px" stroke="#8B8B8B" fill="#8B8B8B"/>
          <path clip-path="url(#clip-1642548899)" d="M 0.9846,23.6310 L 0.9846,24.6156 L 4.9231,24.6156 L 4.9231,23.6310 L 0.9846,23.6310 Z" stroke-width="1px" stroke="#8E8E8E" fill="#8E8E8E"/>
          <path clip-path="url(#clip-1642548899)" d="M 0.9846,24.6156 L 0.9846,25.6002 L 4.9231,25.6002 L 4.9231,24.6156 L 0.9846,24.6156 Z" stroke-width="1px" stroke="#909090" fill="#909090"/>
          <path clip-path="url(#clip-1642548899)" d="M 0.9846,25.6002 L 0.9846,26.5848 L 4.9231,26.5848 L 4.9231,25.6002 L 0.9846,25.6002 Z" stroke-width="1px" stroke="#929292" fill="#929292"/>
          <path clip-path="url(#clip-1642548899)" d="M 0.9846,26.5848 L 0.9846,27.5695 L 4.9231,27.5695 L 4.9231,26.5848 L 0.9846,26.5848 Z" stroke-width="1px" stroke="#959595" fill="#959595"/>
          <path clip-path="url(#clip-1642548899)" d="M 0.9846,27.5695 L 0.9846,28.5541 L 4.9231,28.5541 L 4.9231,27.5695 L 0.9846,27.5695 Z" stroke-width="1px" stroke="#979797" fill="#979797"/>
          <path clip-path="url(#clip-1642548899)" d="M 0.9846,28.5541 L 0.9846,29.5387 L 4.9231,29.5387 L 4.9231,28.5541 L 0.9846,28.5541 Z" stroke-width="1px" stroke="#999999" fill="#999999"/>
        </g>
        <g transform="matrix(0.0625 0.0000 0.0000 0.0625 0.0000 0.0000)">
          <path d="M 70.8929,463.7577 C 65.9698,461.7884 63.0159,456.8653 63.0159,451.9422 L 63.0159,451.9422 L 63.0159,31.5080 C 63.0159,27.5695 65.9698,22.6463 69.9083,20.6771 L 69.9083,20.6771 L 25.6002,46.2773 C 20.6771,48.2466 18.7078,53.1697 18.7078,58.0928 L 18.7078,58.0928 L 18.7078,429.2959 C 18.7078,434.2190 21.6617,439.1421 25.6002,441.1113 L 25.6002,441.1113 L 70.8929,463.7577 " stroke="#0054A6" stroke-width="6.8924" stroke-linecap="round" stroke-linejoin="round" fill="none"/>
        </g>
        <g transform="matrix(1.0000 0.0000 0.0000 1.0000 0.0000 0.0000)">
</g>
        <g transform="matrix(0.0625 0.0000 0.0000 0.0625 0.0000 0.0000)">
          <path d="M 129.9703,219.5710 L 129.9703,434.2190 L 459.8192,434.2190 L 459.8192,219.5710 L 129.9703,219.5710 Z" stroke-width="1px" stroke="#FFFFFF" fill="#FFFFFF"/>
        </g>
        <g transform="matrix(1.0000 0.0000 0.0000 1.0000 0.0000 0.0000)">
</g>
        <g transform="matrix(0.0625 0.0000 0.0000 0.0625 0.0000 0.0000)">
          <path d="M 129.9703,219.5710 L 129.9703,434.2190 L 459.8192,434.2190 L 459.8192,219.5710 L 129.9703,219.5710 Z" stroke="#1A1A1A" stroke-width="9.8462" stroke-linecap="round" stroke-linejoin="round" fill="none"/>
        </g>
        <g transform="matrix(1.0000 0.0000 0.0000 1.0000 0.0000 0.0000)">
</g>
        <g transform="matrix(0.0625 0.0000 0.0000 0.0625 0.0000 0.0000)">
          <path d="M 290.4639,106.3393 L 132.9242,217.6018 L 457.8499,217.6018 L 300.3102,106.3393 C 299.3256,105.3547 297.3563,104.3701 295.3871,104.3701 C 293.4178,104.3701 291.4486,105.3547 290.4639,106.3393 Z " fill="#FFFFFF" stroke="none"/>
        </g>
        <g transform="matrix(1.0000 0.0000 0.0000 1.0000 0.0000 0.0000)">
</g>
        <g transform="matrix(0.0625 0.0000 0.0000 0.0625 0.0000 0.0000)">
          <path d="M 290.4639,106.3393 L 132.9242,217.6018 L 457.8499,217.6018 L 300.3102,106.3393 C 299.3256,105.3547 297.3563,104.3701 295.3871,104.3701 C 293.4178,104.3701 291.4486,105.3547 290.4639,106.3393 Z " stroke="#1A1A1A" stroke-width="9.8462" stroke-linecap="round" stroke-linejoin="round" fill="none"/>
        </g>
        <g transform="matrix(1.0000 0.0000 0.0000 1.0000 0.0000 0.0000)">
</g>
        <g transform="matrix(0.0625 0.0000 0.0000 0.0625 0.0000 0.0000)">
          <path d="M 130.9549,235.3250 L 130.9549,433.2344 L 236.3096,326.8950 L 130.9549,235.3250 Z" stroke-width="1px" stroke="#FFFFFF" fill="#FFFFFF"/>
        </g>
        <g transform="matrix(1.0000 0.0000 0.0000 1.0000 0.0000 0.0000)">
</g>
        <g transform="matrix(0.0625 0.0000 0.0000 0.0625 0.0000 0.0000)">
          <path d="M 130.9549,235.3250 L 130.9549,433.2344 L 236.3096,326.8950 L 130.9549,235.3250 Z" stroke="#1A1A1A" stroke-width="9.8462" stroke-linecap="round" stroke-linejoin="round" fill="none"/>
        </g>
        <g transform="matrix(1.0000 0.0000 0.0000 1.0000 0.0000 0.0000)">
</g>
        <g transform="matrix(0.0625 0.0000 0.0000 0.0625 0.0000 0.0000)">
          <path d="M 458.8346,434.2190 L 458.8346,234.3404 L 354.4645,324.9258 L 458.8346,434.2190 Z" stroke-width="1px" stroke="#FFFFFF" fill="#FFFFFF"/>
        </g>
        <g transform="matrix(1.0000 0.0000 0.0000 1.0000 0.0000 0.0000)">
</g>
        <g transform="matrix(0.0625 0.0000 0.0000 0.0625 0.0000 0.0000)">
          <path d="M 458.8346,434.2190 L 458.8346,234.3404 L 354.4645,324.9258 L 458.8346,434.2190 Z" stroke="#1A1A1A" stroke-width="9.8462" stroke-linecap="round" stroke-linejoin="round" fill="none"/>
        </g>
        <g transform="matrix(1.0000 0.0000 0.0000 1.0000 0.0000 0.0000)">
</g>
        <g transform="matrix(0.0625 0.0000 0.0000 0.0625 0.0000 0.0000)">
          <path d="M 420.4342,139.8165 L 329.8489,50.2158 L 174.2784,50.2158 L 174.2784,384.9878 L 420.4342,384.9878 L 420.4342,139.8165 Z" stroke-width="1px" stroke="#1A1A1A" fill="#1A1A1A"/>
        </g>
        <g transform="matrix(1.0000 0.0000 0.0000 1.0000 0.0000 0.0000)">
</g>
        <g transform="matrix(0.0625 0.0000 0.0000 0.0625 0.0000 0.0000)">
          <path d="M 320.0026,61.0467 L 185.1092,61.0467 L 185.1092,374.1569 L 409.6034,374.1569 L 409.6034,150.6474 L 320.0026,150.6474 L 320.0026,61.0467 Z" stroke-width="1px" stroke="#FFFFFF" fill="#FFFFFF"/>
        </g>
        <g transform="matrix(1.0000 0.0000 0.0000 1.0000 0.0000 0.0000)">
</g>
        <g transform="matrix(0.0625 0.0000 0.0000 0.0625 0.0000 0.0000)">
          <path d="M 218.5864,94.5239 L 218.5864,105.3547 L 285.5408,105.3547 L 285.5408,94.5239 L 218.5864,94.5239 Z" stroke-width="1px" stroke="#1A1A1A" fill="#1A1A1A"/>
        </g>
        <g transform="matrix(1.0000 0.0000 0.0000 1.0000 0.0000 0.0000)">
</g>
        <g transform="matrix(0.0625 0.0000 0.0000 0.0625 0.0000 0.0000)">
          <path d="M 218.5864,138.8319 L 218.5864,149.6628 L 285.5408,149.6628 L 285.5408,138.8319 L 218.5864,138.8319 Z" stroke-width="1px" stroke="#1A1A1A" fill="#1A1A1A"/>
        </g>
        <g transform="matrix(1.0000 0.0000 0.0000 1.0000 0.0000 0.0000)">
</g>
        <g transform="matrix(0.0625 0.0000 0.0000 0.0625 0.0000 0.0000)">
          <path d="M 218.5864,183.1400 L 218.5864,194.9555 L 375.1416,194.9555 L 375.1416,183.1400 L 218.5864,183.1400 Z" stroke-width="1px" stroke="#1A1A1A" fill="#1A1A1A"/>
        </g>
        <g transform="matrix(1.0000 0.0000 0.0000 1.0000 0.0000 0.0000)">
</g>
        <g transform="matrix(0.0625 0.0000 0.0000 0.0625 0.0000 0.0000)">
          <path d="M 218.5864,228.4327 L 218.5864,239.2635 L 375.1416,239.2635 L 375.1416,228.4327 L 218.5864,228.4327 Z" stroke-width="1px" stroke="#1A1A1A" fill="#1A1A1A"/>
        </g>
        <g transform="matrix(1.0000 0.0000 0.0000 1.0000 0.0000 0.0000)">
</g>
        <g transform="matrix(0.0625 0.0000 0.0000 0.0625 0.0000 0.0000)">
          <path d="M 218.5864,272.7407 L 218.5864,284.5562 L 375.1416,284.5562 L 375.1416,272.7407 L 218.5864,272.7407 Z" stroke-width="1px" stroke="#1A1A1A" fill="#1A1A1A"/>
        </g>
        <g transform="matrix(1.0000 0.0000 0.0000 1.0000 0.0000 0.0000)">
</g>
      </g>
      <!--emf-blob end-->
    </g>
  </g>
</svg>
