<svg xmlns="http://www.w3.org/2000/svg" xmlns:xlink="http://www.w3.org/1999/xlink" version="1.1" width="48.4157000000" height="27.2370000000">
  <title><![CDATA[Guage High]]></title>
  <g transform=" scale(1.000000) ">
    <text xmlns="http://www.w3.org/2000/svg" x="12.1998" y="27.2370">
      <tspan font-family="Arial" font-size="4.5000" fill="#000000" fill-opacity="1.0000" stroke-opacity="1.0000">
Guage High</tspan>
    </text>
    <!--converted by libvisio2svg-->
    <g transform=" translate(-1.125000,-1.118000) ">
      <!--emf-blob start-->
      <g transform="translate(0.9263, 0.9263)">
        <path d="M 36.1253,6.4840 L 33.3465,4.6315 C 30.5676,2.7789 26.8624,1.8526 22.2310,1.8526 C 11.1155,1.8526 1.8526,11.1155 1.8526,22.2310 L 1.8526,22.2310 L 4.6315,24.0835 L 14.8206,24.0835 C 14.8206,18.5258 19.4521,13.8944 25.0098,13.8944 C 26.8624,13.8944 27.7887,13.8944 29.6413,14.8206 C 31.4939,16.6732 33.3465,19.4521 33.3465,22.2310 L 33.3465,22.2310 L 36.1253,24.0835 L 46.3145,24.0835 C 46.3145,16.6732 42.6094,10.1892 36.1253,6.4840 Z " fill="none" stroke="none"/>
        <defs>
          <clipPath id="clip-246247255">
            <path d="M 36.1253,6.4840 L 33.3465,4.6315 C 30.5676,2.7789 26.8624,1.8526 22.2310,1.8526 C 11.1155,1.8526 1.8526,11.1155 1.8526,22.2310 L 1.8526,22.2310 L 4.6315,24.0835 L 14.8206,24.0835 C 14.8206,18.5258 19.4521,13.8944 25.0098,13.8944 C 26.8624,13.8944 27.7887,13.8944 29.6413,14.8206 C 31.4939,16.6732 33.3465,19.4521 33.3465,22.2310 L 33.3465,22.2310 L 36.1253,24.0835 L 46.3145,24.0835 C 46.3145,16.6732 42.6094,10.1892 36.1253,6.4840 Z"/>
          </clipPath>
        </defs>
        <path clip-path="url(#clip-246247255)" d="M 0.9263,0.9263 L 0.9263,24.0835 L 1.8526,24.0835 L 1.8526,0.9263 L 0.9263,0.9263 Z" stroke-width="1px" stroke="#56BCEB" fill="#56BCEB"/>
        <path clip-path="url(#clip-246247255)" d="M 1.8526,0.9263 L 1.8526,24.0835 L 2.7789,24.0835 L 2.7789,0.9263 L 1.8526,0.9263 Z" stroke-width="1px" stroke="#0178C1" fill="#0178C1"/>
        <path clip-path="url(#clip-246247255)" d="M 2.7789,0.9263 L 2.7789,24.0835 L 3.7052,24.0835 L 3.7052,0.9263 L 2.7789,0.9263 Z" stroke-width="1px" stroke="#0379C2" fill="#0379C2"/>
        <path clip-path="url(#clip-246247255)" d="M 3.7052,0.9263 L 3.7052,24.0835 L 4.6315,24.0835 L 4.6315,0.9263 L 3.7052,0.9263 Z" stroke-width="1px" stroke="#057BC3" fill="#057BC3"/>
        <path clip-path="url(#clip-246247255)" d="M 4.6315,0.9263 L 4.6315,24.0835 L 5.5577,24.0835 L 5.5577,0.9263 L 4.6315,0.9263 Z" stroke-width="1px" stroke="#077CC4" fill="#077CC4"/>
        <path clip-path="url(#clip-246247255)" d="M 5.5577,0.9263 L 5.5577,24.0835 L 6.4840,24.0835 L 6.4840,0.9263 L 5.5577,0.9263 Z" stroke-width="1px" stroke="#097EC4" fill="#097EC4"/>
        <path clip-path="url(#clip-246247255)" d="M 6.4840,0.9263 L 6.4840,24.0835 L 7.4103,24.0835 L 7.4103,0.9263 L 6.4840,0.9263 Z" stroke-width="1px" stroke="#0B80C5" fill="#0B80C5"/>
        <path clip-path="url(#clip-246247255)" d="M 7.4103,0.9263 L 7.4103,24.0835 L 8.3366,24.0835 L 8.3366,0.9263 L 7.4103,0.9263 Z" stroke-width="1px" stroke="#0C81C6" fill="#0C81C6"/>
        <path clip-path="url(#clip-246247255)" d="M 8.3366,0.9263 L 8.3366,24.0835 L 9.2629,24.0835 L 9.2629,0.9263 L 8.3366,0.9263 Z" stroke-width="1px" stroke="#0E82C7" fill="#0E82C7"/>
        <path clip-path="url(#clip-246247255)" d="M 9.2629,0.9263 L 9.2629,24.0835 L 10.1892,24.0835 L 10.1892,0.9263 L 9.2629,0.9263 Z" stroke-width="1px" stroke="#1084C8" fill="#1084C8"/>
        <path clip-path="url(#clip-246247255)" d="M 10.1892,0.9263 L 10.1892,24.0835 L 11.1155,24.0835 L 11.1155,0.9263 L 10.1892,0.9263 Z" stroke-width="1px" stroke="#1285C9" fill="#1285C9"/>
        <path clip-path="url(#clip-246247255)" d="M 11.1155,0.9263 L 11.1155,24.0835 L 12.0418,24.0835 L 12.0418,0.9263 L 11.1155,0.9263 Z" stroke-width="1px" stroke="#1386CA" fill="#1386CA"/>
        <path clip-path="url(#clip-246247255)" d="M 12.0418,0.9263 L 12.0418,24.0835 L 12.9681,24.0835 L 12.9681,0.9263 L 12.0418,0.9263 Z" stroke-width="1px" stroke="#1588CB" fill="#1588CB"/>
        <path clip-path="url(#clip-246247255)" d="M 12.9681,0.9263 L 12.9681,24.0835 L 13.8944,24.0835 L 13.8944,0.9263 L 12.9681,0.9263 Z" stroke-width="1px" stroke="#1789CB" fill="#1789CB"/>
        <path clip-path="url(#clip-246247255)" d="M 13.8944,0.9263 L 13.8944,24.0835 L 14.8206,24.0835 L 14.8206,0.9263 L 13.8944,0.9263 Z" stroke-width="1px" stroke="#198BCC" fill="#198BCC"/>
        <path clip-path="url(#clip-246247255)" d="M 14.8206,0.9263 L 14.8206,24.0835 L 15.7469,24.0835 L 15.7469,0.9263 L 14.8206,0.9263 Z" stroke-width="1px" stroke="#1B8DCD" fill="#1B8DCD"/>
        <path clip-path="url(#clip-246247255)" d="M 15.7469,0.9263 L 15.7469,24.0835 L 16.6732,24.0835 L 16.6732,0.9263 L 15.7469,0.9263 Z" stroke-width="1px" stroke="#1C8ECE" fill="#1C8ECE"/>
        <path clip-path="url(#clip-246247255)" d="M 16.6732,0.9263 L 16.6732,24.0835 L 17.5995,24.0835 L 17.5995,0.9263 L 16.6732,0.9263 Z" stroke-width="1px" stroke="#1E8FCF" fill="#1E8FCF"/>
        <path clip-path="url(#clip-246247255)" d="M 17.5995,0.9263 L 17.5995,24.0835 L 18.5258,24.0835 L 18.5258,0.9263 L 17.5995,0.9263 Z" stroke-width="1px" stroke="#1F91D0" fill="#1F91D0"/>
        <path clip-path="url(#clip-246247255)" d="M 18.5258,0.9263 L 18.5258,24.0835 L 19.4521,24.0835 L 19.4521,0.9263 L 18.5258,0.9263 Z" stroke-width="1px" stroke="#2192D1" fill="#2192D1"/>
        <path clip-path="url(#clip-246247255)" d="M 19.4521,0.9263 L 19.4521,24.0835 L 20.3784,24.0835 L 20.3784,0.9263 L 19.4521,0.9263 Z" stroke-width="1px" stroke="#2393D2" fill="#2393D2"/>
        <path clip-path="url(#clip-246247255)" d="M 20.3784,0.9263 L 20.3784,24.0835 L 21.3047,24.0835 L 21.3047,0.9263 L 20.3784,0.9263 Z" stroke-width="1px" stroke="#2595D3" fill="#2595D3"/>
        <path clip-path="url(#clip-246247255)" d="M 21.3047,0.9263 L 21.3047,24.0835 L 22.2310,24.0835 L 22.2310,0.9263 L 21.3047,0.9263 Z" stroke-width="1px" stroke="#2796D4" fill="#2796D4"/>
        <path clip-path="url(#clip-246247255)" d="M 22.2310,0.9263 L 22.2310,24.0835 L 23.1573,24.0835 L 23.1573,0.9263 L 22.2310,0.9263 Z" stroke-width="1px" stroke="#2998D5" fill="#2998D5"/>
        <path clip-path="url(#clip-246247255)" d="M 23.1573,0.9263 L 23.1573,24.0835 L 24.0835,24.0835 L 24.0835,0.9263 L 23.1573,0.9263 Z" stroke-width="1px" stroke="#2A99D6" fill="#2A99D6"/>
        <path clip-path="url(#clip-246247255)" d="M 24.0835,0.9263 L 24.0835,24.0835 L 25.0098,24.0835 L 25.0098,0.9263 L 24.0835,0.9263 Z" stroke-width="1px" stroke="#2C9BD6" fill="#2C9BD6"/>
        <path clip-path="url(#clip-246247255)" d="M 25.0098,0.9263 L 25.0098,24.0835 L 25.9361,24.0835 L 25.9361,0.9263 L 25.0098,0.9263 Z" stroke-width="1px" stroke="#2E9CD7" fill="#2E9CD7"/>
        <path clip-path="url(#clip-246247255)" d="M 25.9361,0.9263 L 25.9361,24.0835 L 26.8624,24.0835 L 26.8624,0.9263 L 25.9361,0.9263 Z" stroke-width="1px" stroke="#2F9DD8" fill="#2F9DD8"/>
        <path clip-path="url(#clip-246247255)" d="M 26.8624,0.9263 L 26.8624,24.0835 L 27.7887,24.0835 L 27.7887,0.9263 L 26.8624,0.9263 Z" stroke-width="1px" stroke="#319FD9" fill="#319FD9"/>
        <path clip-path="url(#clip-246247255)" d="M 27.7887,0.9263 L 27.7887,24.0835 L 28.7150,24.0835 L 28.7150,0.9263 L 27.7887,0.9263 Z" stroke-width="1px" stroke="#33A0DA" fill="#33A0DA"/>
        <path clip-path="url(#clip-246247255)" d="M 28.7150,0.9263 L 28.7150,24.0835 L 29.6413,24.0835 L 29.6413,0.9263 L 28.7150,0.9263 Z" stroke-width="1px" stroke="#35A1DB" fill="#35A1DB"/>
        <path clip-path="url(#clip-246247255)" d="M 29.6413,0.9263 L 29.6413,24.0835 L 30.5676,24.0835 L 30.5676,0.9263 L 29.6413,0.9263 Z" stroke-width="1px" stroke="#37A3DC" fill="#37A3DC"/>
        <path clip-path="url(#clip-246247255)" d="M 30.5676,0.9263 L 30.5676,24.0835 L 31.4939,24.0835 L 31.4939,0.9263 L 30.5676,0.9263 Z" stroke-width="1px" stroke="#39A4DD" fill="#39A4DD"/>
        <path clip-path="url(#clip-246247255)" d="M 31.4939,0.9263 L 31.4939,24.0835 L 32.4202,24.0835 L 32.4202,0.9263 L 31.4939,0.9263 Z" stroke-width="1px" stroke="#3AA5DE" fill="#3AA5DE"/>
        <path clip-path="url(#clip-246247255)" d="M 32.4202,0.9263 L 32.4202,24.0835 L 33.3465,24.0835 L 33.3465,0.9263 L 32.4202,0.9263 Z" stroke-width="1px" stroke="#3CA7DE" fill="#3CA7DE"/>
        <path clip-path="url(#clip-246247255)" d="M 33.3465,0.9263 L 33.3465,24.0835 L 34.2727,24.0835 L 34.2727,0.9263 L 33.3465,0.9263 Z" stroke-width="1px" stroke="#3EA9DF" fill="#3EA9DF"/>
        <path clip-path="url(#clip-246247255)" d="M 34.2727,0.9263 L 34.2727,24.0835 L 35.1990,24.0835 L 35.1990,0.9263 L 34.2727,0.9263 Z" stroke-width="1px" stroke="#40AAE0" fill="#40AAE0"/>
        <path clip-path="url(#clip-246247255)" d="M 35.1990,0.9263 L 35.1990,24.0835 L 36.1253,24.0835 L 36.1253,0.9263 L 35.1990,0.9263 Z" stroke-width="1px" stroke="#42ACE1" fill="#42ACE1"/>
        <path clip-path="url(#clip-246247255)" d="M 36.1253,0.9263 L 36.1253,24.0835 L 37.0516,24.0835 L 37.0516,0.9263 L 36.1253,0.9263 Z" stroke-width="1px" stroke="#44ADE2" fill="#44ADE2"/>
        <path clip-path="url(#clip-246247255)" d="M 37.0516,0.9263 L 37.0516,24.0835 L 37.9779,24.0835 L 37.9779,0.9263 L 37.0516,0.9263 Z" stroke-width="1px" stroke="#45AEE2" fill="#45AEE2"/>
        <path clip-path="url(#clip-246247255)" d="M 37.9779,0.9263 L 37.9779,24.0835 L 38.9042,24.0835 L 38.9042,0.9263 L 37.9779,0.9263 Z" stroke-width="1px" stroke="#47B0E3" fill="#47B0E3"/>
        <path clip-path="url(#clip-246247255)" d="M 38.9042,0.9263 L 38.9042,24.0835 L 39.8305,24.0835 L 39.8305,0.9263 L 38.9042,0.9263 Z" stroke-width="1px" stroke="#48B1E4" fill="#48B1E4"/>
        <path clip-path="url(#clip-246247255)" d="M 39.8305,0.9263 L 39.8305,24.0835 L 40.7568,24.0835 L 40.7568,0.9263 L 39.8305,0.9263 Z" stroke-width="1px" stroke="#4AB2E5" fill="#4AB2E5"/>
        <path clip-path="url(#clip-246247255)" d="M 40.7568,0.9263 L 40.7568,24.0835 L 41.6831,24.0835 L 41.6831,0.9263 L 40.7568,0.9263 Z" stroke-width="1px" stroke="#4CB4E6" fill="#4CB4E6"/>
        <path clip-path="url(#clip-246247255)" d="M 41.6831,0.9263 L 41.6831,24.0835 L 42.6094,24.0835 L 42.6094,0.9263 L 41.6831,0.9263 Z" stroke-width="1px" stroke="#4EB5E7" fill="#4EB5E7"/>
        <path clip-path="url(#clip-246247255)" d="M 42.6094,0.9263 L 42.6094,24.0835 L 43.5356,24.0835 L 43.5356,0.9263 L 42.6094,0.9263 Z" stroke-width="1px" stroke="#50B7E8" fill="#50B7E8"/>
        <path clip-path="url(#clip-246247255)" d="M 43.5356,0.9263 L 43.5356,24.0835 L 44.4619,24.0835 L 44.4619,0.9263 L 43.5356,0.9263 Z" stroke-width="1px" stroke="#52B9E8" fill="#52B9E8"/>
        <path clip-path="url(#clip-246247255)" d="M 44.4619,0.9263 L 44.4619,24.0835 L 45.3882,24.0835 L 45.3882,0.9263 L 44.4619,0.9263 Z" stroke-width="1px" stroke="#53BAE9" fill="#53BAE9"/>
        <path clip-path="url(#clip-246247255)" d="M 45.3882,0.9263 L 45.3882,24.0835 L 46.3145,24.0835 L 46.3145,0.9263 L 45.3882,0.9263 Z" stroke-width="1px" stroke="#55BBEA" fill="#55BBEA"/>
        <g transform="matrix(0.0625 0.0000 0.0000 0.0625 0.0000 0.0000)">
          <path d="M 578.0052,98.1868 L 532.6169,69.4718 C 478.8921,35.1990 416.8306,17.5995 353.8429,17.5995 C 167.6585,17.5995 17.5995,168.5848 17.5995,353.8429 L 17.5995,353.8429 L 62.9877,382.5579 L 230.6463,382.5579 C 230.6463,289.9289 306.6021,213.9731 399.2311,213.9731 C 421.4621,213.9731 443.6931,218.6045 464.9977,227.8674 C 501.1231,259.3613 521.5015,305.6758 521.5015,353.8429 L 521.5015,353.8429 L 566.8897,382.5579 L 735.4745,382.5579 C 735.4745,266.7716 676.1919,159.3219 578.0052,98.1868 " stroke="#0054A6" stroke-width="9.2629" stroke-linecap="round" stroke-linejoin="round" fill="none"/>
        </g>
        <g transform="matrix(1.0000 0.0000 0.0000 1.0000 0.0000 0.0000)">
          <path d="M 14.8206,6.4840 C 8.3366,10.1892 4.6315,16.6732 4.6315,24.0835 L 4.6315,24.0835 L 14.8206,24.0835 C 14.8206,20.3784 16.6732,16.6732 20.3784,14.8206 L 20.3784,14.8206 L 14.8206,6.4840 Z " fill="none" stroke="none"/>
          <defs>
            <clipPath id="clip-1858721860">
              <path d="M 14.8206,6.4840 C 8.3366,10.1892 4.6315,16.6732 4.6315,24.0835 L 4.6315,24.0835 L 14.8206,24.0835 C 14.8206,20.3784 16.6732,16.6732 20.3784,14.8206 L 20.3784,14.8206 L 14.8206,6.4840 Z"/>
            </clipPath>
          </defs>
          <path clip-path="url(#clip-1858721860)" d="M 3.7052,5.5577 L 3.7052,24.0835 L 4.6315,24.0835 L 4.6315,5.5577 L 3.7052,5.5577 Z" stroke-width="1px" stroke="#B4B4B4" fill="#B4B4B4"/>
          <path clip-path="url(#clip-1858721860)" d="M 4.6315,5.5577 L 4.6315,24.0835 L 5.5577,24.0835 L 5.5577,5.5577 L 4.6315,5.5577 Z" stroke-width="1px" stroke="#E4E4E4" fill="#E4E4E4"/>
          <path clip-path="url(#clip-1858721860)" d="M 5.5577,5.5577 L 5.5577,24.0835 L 6.4840,24.0835 L 6.4840,5.5577 L 5.5577,5.5577 Z" stroke-width="1px" stroke="#E1E1E1" fill="#E1E1E1"/>
          <path clip-path="url(#clip-1858721860)" d="M 6.4840,5.5577 L 6.4840,24.0835 L 7.4103,24.0835 L 7.4103,5.5577 L 6.4840,5.5577 Z" stroke-width="1px" stroke="#DEDEDE" fill="#DEDEDE"/>
          <path clip-path="url(#clip-1858721860)" d="M 7.4103,5.5577 L 7.4103,24.0835 L 8.3366,24.0835 L 8.3366,5.5577 L 7.4103,5.5577 Z" stroke-width="1px" stroke="#DADADA" fill="#DADADA"/>
          <path clip-path="url(#clip-1858721860)" d="M 8.3366,5.5577 L 8.3366,24.0835 L 9.2629,24.0835 L 9.2629,5.5577 L 8.3366,5.5577 Z" stroke-width="1px" stroke="#D8D8D8" fill="#D8D8D8"/>
          <path clip-path="url(#clip-1858721860)" d="M 9.2629,5.5577 L 9.2629,24.0835 L 10.1892,24.0835 L 10.1892,5.5577 L 9.2629,5.5577 Z" stroke-width="1px" stroke="#D5D5D5" fill="#D5D5D5"/>
          <path clip-path="url(#clip-1858721860)" d="M 10.1892,5.5577 L 10.1892,24.0835 L 11.1155,24.0835 L 11.1155,5.5577 L 10.1892,5.5577 Z" stroke-width="1px" stroke="#D2D2D2" fill="#D2D2D2"/>
          <path clip-path="url(#clip-1858721860)" d="M 11.1155,5.5577 L 11.1155,24.0835 L 12.0418,24.0835 L 12.0418,5.5577 L 11.1155,5.5577 Z" stroke-width="1px" stroke="#CFCFCF" fill="#CFCFCF"/>
          <path clip-path="url(#clip-1858721860)" d="M 12.0418,5.5577 L 12.0418,24.0835 L 12.9681,24.0835 L 12.9681,5.5577 L 12.0418,5.5577 Z" stroke-width="1px" stroke="#CCCCCC" fill="#CCCCCC"/>
          <path clip-path="url(#clip-1858721860)" d="M 12.9681,5.5577 L 12.9681,24.0835 L 13.8944,24.0835 L 13.8944,5.5577 L 12.9681,5.5577 Z" stroke-width="1px" stroke="#C8C8C8" fill="#C8C8C8"/>
          <path clip-path="url(#clip-1858721860)" d="M 13.8944,5.5577 L 13.8944,24.0835 L 14.8206,24.0835 L 14.8206,5.5577 L 13.8944,5.5577 Z" stroke-width="1px" stroke="#C6C6C6" fill="#C6C6C6"/>
          <path clip-path="url(#clip-1858721860)" d="M 14.8206,5.5577 L 14.8206,24.0835 L 15.7469,24.0835 L 15.7469,5.5577 L 14.8206,5.5577 Z" stroke-width="1px" stroke="#C3C3C3" fill="#C3C3C3"/>
          <path clip-path="url(#clip-1858721860)" d="M 15.7469,5.5577 L 15.7469,24.0835 L 16.6732,24.0835 L 16.6732,5.5577 L 15.7469,5.5577 Z" stroke-width="1px" stroke="#C0C0C0" fill="#C0C0C0"/>
          <path clip-path="url(#clip-1858721860)" d="M 16.6732,5.5577 L 16.6732,24.0835 L 17.5995,24.0835 L 17.5995,5.5577 L 16.6732,5.5577 Z" stroke-width="1px" stroke="#BDBDBD" fill="#BDBDBD"/>
          <path clip-path="url(#clip-1858721860)" d="M 17.5995,5.5577 L 17.5995,24.0835 L 18.5258,24.0835 L 18.5258,5.5577 L 17.5995,5.5577 Z" stroke-width="1px" stroke="#B9B9B9" fill="#B9B9B9"/>
          <path clip-path="url(#clip-1858721860)" d="M 18.5258,5.5577 L 18.5258,24.0835 L 19.4521,24.0835 L 19.4521,5.5577 L 18.5258,5.5577 Z" stroke-width="1px" stroke="#B6B6B6" fill="#B6B6B6"/>
        </g>
        <g transform="matrix(0.0625 0.0000 0.0000 0.0625 0.0000 0.0000)">
          <path d="M 230.6463,90.7765 C 126.9018,150.9853 62.9877,262.1402 62.9877,382.5579 L 62.9877,382.5579 L 230.6463,382.5579 C 230.6463,322.3490 263.0665,266.7716 314.9387,237.1303 L 314.9387,237.1303 L 230.6463,90.7765 " stroke="#0054A6" stroke-width="9.2629" stroke-linecap="round" stroke-linejoin="round" fill="none"/>
        </g>
        <g transform="matrix(1.0000 0.0000 0.0000 1.0000 0.0000 0.0000)">
          <path d="M 36.1253,6.4840 L 30.5676,14.8206 C 34.2727,16.6732 36.1253,20.3784 36.1253,24.0835 L 36.1253,24.0835 L 46.3145,24.0835 C 46.3145,16.6732 42.6094,10.1892 36.1253,6.4840 Z " fill="none" stroke="none"/>
          <defs>
            <clipPath id="clip-1548348142">
              <path d="M 36.1253,6.4840 L 30.5676,14.8206 C 34.2727,16.6732 36.1253,20.3784 36.1253,24.0835 L 36.1253,24.0835 L 46.3145,24.0835 C 46.3145,16.6732 42.6094,10.1892 36.1253,6.4840 Z"/>
            </clipPath>
          </defs>
          <path clip-path="url(#clip-1548348142)" d="M 29.6413,5.5577 L 29.6413,24.0835 L 30.5676,24.0835 L 30.5676,5.5577 L 29.6413,5.5577 Z" stroke-width="1px" stroke="#B5B5B5" fill="#B5B5B5"/>
          <path clip-path="url(#clip-1548348142)" d="M 30.5676,5.5577 L 30.5676,24.0835 L 31.4939,24.0835 L 31.4939,5.5577 L 30.5676,5.5577 Z" stroke-width="1px" stroke="#E5E5E5" fill="#E5E5E5"/>
          <path clip-path="url(#clip-1548348142)" d="M 31.4939,5.5577 L 31.4939,24.0835 L 32.4202,24.0835 L 32.4202,5.5577 L 31.4939,5.5577 Z" stroke-width="1px" stroke="#E2E2E2" fill="#E2E2E2"/>
          <path clip-path="url(#clip-1548348142)" d="M 32.4202,5.5577 L 32.4202,24.0835 L 33.3465,24.0835 L 33.3465,5.5577 L 32.4202,5.5577 Z" stroke-width="1px" stroke="#DFDFDF" fill="#DFDFDF"/>
          <path clip-path="url(#clip-1548348142)" d="M 33.3465,5.5577 L 33.3465,24.0835 L 34.2727,24.0835 L 34.2727,5.5577 L 33.3465,5.5577 Z" stroke-width="1px" stroke="#DBDBDB" fill="#DBDBDB"/>
          <path clip-path="url(#clip-1548348142)" d="M 34.2727,5.5577 L 34.2727,24.0835 L 35.1990,24.0835 L 35.1990,5.5577 L 34.2727,5.5577 Z" stroke-width="1px" stroke="#D9D9D9" fill="#D9D9D9"/>
          <path clip-path="url(#clip-1548348142)" d="M 35.1990,5.5577 L 35.1990,24.0835 L 36.1253,24.0835 L 36.1253,5.5577 L 35.1990,5.5577 Z" stroke-width="1px" stroke="#D6D6D6" fill="#D6D6D6"/>
          <path clip-path="url(#clip-1548348142)" d="M 36.1253,5.5577 L 36.1253,24.0835 L 37.0516,24.0835 L 37.0516,5.5577 L 36.1253,5.5577 Z" stroke-width="1px" stroke="#D3D3D3" fill="#D3D3D3"/>
          <path clip-path="url(#clip-1548348142)" d="M 37.0516,5.5577 L 37.0516,24.0835 L 37.9779,24.0835 L 37.9779,5.5577 L 37.0516,5.5577 Z" stroke-width="1px" stroke="#D0D0D0" fill="#D0D0D0"/>
          <path clip-path="url(#clip-1548348142)" d="M 37.9779,5.5577 L 37.9779,24.0835 L 38.9042,24.0835 L 38.9042,5.5577 L 37.9779,5.5577 Z" stroke-width="1px" stroke="#CDCDCD" fill="#CDCDCD"/>
          <path clip-path="url(#clip-1548348142)" d="M 38.9042,5.5577 L 38.9042,24.0835 L 39.8305,24.0835 L 39.8305,5.5577 L 38.9042,5.5577 Z" stroke-width="1px" stroke="#CACACA" fill="#CACACA"/>
          <path clip-path="url(#clip-1548348142)" d="M 39.8305,5.5577 L 39.8305,24.0835 L 40.7568,24.0835 L 40.7568,5.5577 L 39.8305,5.5577 Z" stroke-width="1px" stroke="#C7C7C7" fill="#C7C7C7"/>
          <path clip-path="url(#clip-1548348142)" d="M 40.7568,5.5577 L 40.7568,24.0835 L 41.6831,24.0835 L 41.6831,5.5577 L 40.7568,5.5577 Z" stroke-width="1px" stroke="#C4C4C4" fill="#C4C4C4"/>
          <path clip-path="url(#clip-1548348142)" d="M 41.6831,5.5577 L 41.6831,24.0835 L 42.6094,24.0835 L 42.6094,5.5577 L 41.6831,5.5577 Z" stroke-width="1px" stroke="#C1C1C1" fill="#C1C1C1"/>
          <path clip-path="url(#clip-1548348142)" d="M 42.6094,5.5577 L 42.6094,24.0835 L 43.5356,24.0835 L 43.5356,5.5577 L 42.6094,5.5577 Z" stroke-width="1px" stroke="#BEBEBE" fill="#BEBEBE"/>
          <path clip-path="url(#clip-1548348142)" d="M 43.5356,5.5577 L 43.5356,24.0835 L 44.4619,24.0835 L 44.4619,5.5577 L 43.5356,5.5577 Z" stroke-width="1px" stroke="#BBBBBB" fill="#BBBBBB"/>
          <path clip-path="url(#clip-1548348142)" d="M 44.4619,5.5577 L 44.4619,24.0835 L 45.3882,24.0835 L 45.3882,5.5577 L 44.4619,5.5577 Z" stroke-width="1px" stroke="#B8B8B8" fill="#B8B8B8"/>
        </g>
        <g transform="matrix(0.0625 0.0000 0.0000 0.0625 0.0000 0.0000)">
          <path d="M 566.8897,90.7765 L 483.5235,237.1303 C 535.3958,266.7716 566.8897,322.3490 566.8897,382.5579 L 566.8897,382.5579 L 735.4745,382.5579 C 735.4745,262.1402 671.5605,150.9853 566.8897,90.7765 " stroke="#0054A6" stroke-width="9.2629" stroke-linecap="round" stroke-linejoin="round" fill="none"/>
        </g>
        <g transform="matrix(1.0000 0.0000 0.0000 1.0000 0.0000 0.0000)">
          <path d="M 36.1253,6.4840 C 32.4202,4.6315 28.7150,3.7052 25.0098,3.7052 C 21.3047,3.7052 17.5995,4.6315 14.8206,6.4840 L 14.8206,6.4840 L 20.3784,14.8206 C 23.1573,12.9681 27.7887,12.9681 30.5676,14.8206 L 30.5676,14.8206 L 36.1253,6.4840 Z " fill="none" stroke="none"/>
          <defs>
            <clipPath id="clip-105575579">
              <path d="M 36.1253,6.4840 C 32.4202,4.6315 28.7150,3.7052 25.0098,3.7052 C 21.3047,3.7052 17.5995,4.6315 14.8206,6.4840 L 14.8206,6.4840 L 20.3784,14.8206 C 23.1573,12.9681 27.7887,12.9681 30.5676,14.8206 L 30.5676,14.8206 L 36.1253,6.4840 Z"/>
            </clipPath>
          </defs>
          <path clip-path="url(#clip-105575579)" d="M 13.8944,2.7789 L 13.8944,14.8206 L 14.8206,14.8206 L 14.8206,2.7789 L 13.8944,2.7789 Z" stroke-width="1px" stroke="#B4B4B4" fill="#B4B4B4"/>
          <path clip-path="url(#clip-105575579)" d="M 14.8206,2.7789 L 14.8206,14.8206 L 15.7469,14.8206 L 15.7469,2.7789 L 14.8206,2.7789 Z" stroke-width="1px" stroke="#E5E5E5" fill="#E5E5E5"/>
          <path clip-path="url(#clip-105575579)" d="M 15.7469,2.7789 L 15.7469,14.8206 L 16.6732,14.8206 L 16.6732,2.7789 L 15.7469,2.7789 Z" stroke-width="1px" stroke="#E3E3E3" fill="#E3E3E3"/>
          <path clip-path="url(#clip-105575579)" d="M 16.6732,2.7789 L 16.6732,14.8206 L 17.5995,14.8206 L 17.5995,2.7789 L 16.6732,2.7789 Z" stroke-width="1px" stroke="#E1E1E1" fill="#E1E1E1"/>
          <path clip-path="url(#clip-105575579)" d="M 17.5995,2.7789 L 17.5995,14.8206 L 18.5258,14.8206 L 18.5258,2.7789 L 17.5995,2.7789 Z" stroke-width="1px" stroke="#DEDEDE" fill="#DEDEDE"/>
          <path clip-path="url(#clip-105575579)" d="M 18.5258,2.7789 L 18.5258,14.8206 L 19.4521,14.8206 L 19.4521,2.7789 L 18.5258,2.7789 Z" stroke-width="1px" stroke="#DCDCDC" fill="#DCDCDC"/>
          <path clip-path="url(#clip-105575579)" d="M 19.4521,2.7789 L 19.4521,14.8206 L 20.3784,14.8206 L 20.3784,2.7789 L 19.4521,2.7789 Z" stroke-width="1px" stroke="#DADADA" fill="#DADADA"/>
          <path clip-path="url(#clip-105575579)" d="M 20.3784,2.7789 L 20.3784,14.8206 L 21.3047,14.8206 L 21.3047,2.7789 L 20.3784,2.7789 Z" stroke-width="1px" stroke="#D7D7D7" fill="#D7D7D7"/>
          <path clip-path="url(#clip-105575579)" d="M 21.3047,2.7789 L 21.3047,14.8206 L 22.2310,14.8206 L 22.2310,2.7789 L 21.3047,2.7789 Z" stroke-width="1px" stroke="#D5D5D5" fill="#D5D5D5"/>
          <path clip-path="url(#clip-105575579)" d="M 22.2310,2.7789 L 22.2310,14.8206 L 23.1573,14.8206 L 23.1573,2.7789 L 22.2310,2.7789 Z" stroke-width="1px" stroke="#D3D3D3" fill="#D3D3D3"/>
          <path clip-path="url(#clip-105575579)" d="M 23.1573,2.7789 L 23.1573,14.8206 L 24.0835,14.8206 L 24.0835,2.7789 L 23.1573,2.7789 Z" stroke-width="1px" stroke="#D1D1D1" fill="#D1D1D1"/>
          <path clip-path="url(#clip-105575579)" d="M 24.0835,2.7789 L 24.0835,14.8206 L 25.0098,14.8206 L 25.0098,2.7789 L 24.0835,2.7789 Z" stroke-width="1px" stroke="#CFCFCF" fill="#CFCFCF"/>
          <path clip-path="url(#clip-105575579)" d="M 25.0098,2.7789 L 25.0098,14.8206 L 25.9361,14.8206 L 25.9361,2.7789 L 25.0098,2.7789 Z" stroke-width="1px" stroke="#CDCDCD" fill="#CDCDCD"/>
          <path clip-path="url(#clip-105575579)" d="M 25.9361,2.7789 L 25.9361,14.8206 L 26.8624,14.8206 L 26.8624,2.7789 L 25.9361,2.7789 Z" stroke-width="1px" stroke="#CACACA" fill="#CACACA"/>
          <path clip-path="url(#clip-105575579)" d="M 26.8624,2.7789 L 26.8624,14.8206 L 27.7887,14.8206 L 27.7887,2.7789 L 26.8624,2.7789 Z" stroke-width="1px" stroke="#C8C8C8" fill="#C8C8C8"/>
          <path clip-path="url(#clip-105575579)" d="M 27.7887,2.7789 L 27.7887,14.8206 L 28.7150,14.8206 L 28.7150,2.7789 L 27.7887,2.7789 Z" stroke-width="1px" stroke="#C5C5C5" fill="#C5C5C5"/>
          <path clip-path="url(#clip-105575579)" d="M 28.7150,2.7789 L 28.7150,14.8206 L 29.6413,14.8206 L 29.6413,2.7789 L 28.7150,2.7789 Z" stroke-width="1px" stroke="#C3C3C3" fill="#C3C3C3"/>
          <path clip-path="url(#clip-105575579)" d="M 29.6413,2.7789 L 29.6413,14.8206 L 30.5676,14.8206 L 30.5676,2.7789 L 29.6413,2.7789 Z" stroke-width="1px" stroke="#C1C1C1" fill="#C1C1C1"/>
          <path clip-path="url(#clip-105575579)" d="M 30.5676,2.7789 L 30.5676,14.8206 L 31.4939,14.8206 L 31.4939,2.7789 L 30.5676,2.7789 Z" stroke-width="1px" stroke="#BFBFBF" fill="#BFBFBF"/>
          <path clip-path="url(#clip-105575579)" d="M 31.4939,2.7789 L 31.4939,14.8206 L 32.4202,14.8206 L 32.4202,2.7789 L 31.4939,2.7789 Z" stroke-width="1px" stroke="#BDBDBD" fill="#BDBDBD"/>
          <path clip-path="url(#clip-105575579)" d="M 32.4202,2.7789 L 32.4202,14.8206 L 33.3465,14.8206 L 33.3465,2.7789 L 32.4202,2.7789 Z" stroke-width="1px" stroke="#BABABA" fill="#BABABA"/>
          <path clip-path="url(#clip-105575579)" d="M 33.3465,2.7789 L 33.3465,14.8206 L 34.2727,14.8206 L 34.2727,2.7789 L 33.3465,2.7789 Z" stroke-width="1px" stroke="#B8B8B8" fill="#B8B8B8"/>
          <path clip-path="url(#clip-105575579)" d="M 34.2727,2.7789 L 34.2727,14.8206 L 35.1990,14.8206 L 35.1990,2.7789 L 34.2727,2.7789 Z" stroke-width="1px" stroke="#B6B6B6" fill="#B6B6B6"/>
        </g>
        <g transform="matrix(0.0625 0.0000 0.0000 0.0625 0.0000 0.0000)">
          <path d="M 566.8897,90.7765 C 515.9437,62.0615 458.5137,46.3145 399.2311,46.3145 C 339.9485,46.3145 282.5185,62.0615 230.6463,90.7765 L 230.6463,90.7765 L 314.9387,237.1303 C 366.8110,206.5627 431.6513,206.5627 483.5235,237.1303 L 483.5235,237.1303 L 566.8897,90.7765 " stroke="#0054A6" stroke-width="9.2629" stroke-linecap="round" stroke-linejoin="round" fill="none"/>
        </g>
        <g transform="matrix(1.0000 0.0000 0.0000 1.0000 0.0000 0.0000)">
</g>
        <g transform="matrix(0.0625 0.0000 0.0000 0.0625 0.0000 0.0000)">
          <path d="M 543.7324,98.1868 C 499.2705,75.0295 449.2508,62.9877 399.2311,62.9877 C 349.2115,62.9877 299.1918,75.0295 254.7298,98.1868 L 254.7298,98.1868 L 321.4227,214.8994 C 370.5161,191.7421 427.9461,191.7421 477.0395,214.8994 L 477.0395,214.8994 L 543.7324,98.1868 Z " fill="#74A5D8" stroke="none"/>
        </g>
        <g transform="matrix(1.0000 0.0000 0.0000 1.0000 0.0000 0.0000)">
</g>
        <g transform="matrix(0.0625 0.0000 0.0000 0.0625 0.0000 0.0000)">
          <path d="M 543.7324,98.1868 C 499.2705,75.0295 449.2508,62.9877 399.2311,62.9877 C 349.2115,62.9877 299.1918,75.0295 254.7298,98.1868 L 254.7298,98.1868 L 321.4227,214.8994 C 370.5161,191.7421 427.9461,191.7421 477.0395,214.8994 L 477.0395,214.8994 L 543.7324,98.1868 Z " stroke="#0054A6" stroke-width="5.5577" stroke-linecap="round" stroke-linejoin="round" fill="none"/>
        </g>
        <g transform="matrix(1.0000 0.0000 0.0000 1.0000 0.0000 0.0000)">
</g>
        <g transform="matrix(0.0625 0.0000 0.0000 0.0625 0.0000 0.0000)">
          <path d="M 225.0885,114.8600 C 139.8698,170.4374 85.2187,263.9927 80.5873,365.8847 L 80.5873,365.8847 L 214.8994,365.8847 C 219.5308,312.1598 248.2458,263.0665 292.7077,231.5726 L 292.7077,231.5726 L 225.0885,114.8600 Z " fill="#A5D2ED" stroke="none"/>
        </g>
        <g transform="matrix(1.0000 0.0000 0.0000 1.0000 0.0000 0.0000)">
</g>
        <g transform="matrix(0.0625 0.0000 0.0000 0.0625 0.0000 0.0000)">
          <path d="M 225.0885,114.8600 C 139.8698,170.4374 85.2187,263.9927 80.5873,365.8847 L 80.5873,365.8847 L 214.8994,365.8847 C 219.5308,312.1598 248.2458,263.0665 292.7077,231.5726 L 292.7077,231.5726 L 225.0885,114.8600 Z " stroke="#0054A6" stroke-width="5.5577" stroke-linecap="round" stroke-linejoin="round" fill="none"/>
        </g>
        <g transform="matrix(1.0000 0.0000 0.0000 1.0000 0.0000 0.0000)">
</g>
        <g transform="matrix(0.0625 0.0000 0.0000 0.0625 0.0000 0.0000)">
          <path d="M 573.3737,114.8600 L 505.7545,231.5726 C 550.2165,263.0665 578.0052,312.1598 583.5629,365.8847 L 583.5629,365.8847 L 717.8750,365.8847 C 713.2435,263.9927 658.5924,170.4374 573.3737,114.8600 Z " fill="#0077C0" stroke="none"/>
        </g>
        <g transform="matrix(1.0000 0.0000 0.0000 1.0000 0.0000 0.0000)">
</g>
        <g transform="matrix(0.0625 0.0000 0.0000 0.0625 0.0000 0.0000)">
          <path d="M 573.3737,114.8600 L 505.7545,231.5726 C 550.2165,263.0665 578.0052,312.1598 583.5629,365.8847 L 583.5629,365.8847 L 717.8750,365.8847 C 713.2435,263.9927 658.5924,170.4374 573.3737,114.8600 Z " stroke="#0054A6" stroke-width="5.5577" stroke-linecap="round" stroke-linejoin="round" fill="none"/>
        </g>
        <g transform="matrix(1.0000 0.0000 0.0000 1.0000 0.0000 0.0000)">
</g>
        <g transform="matrix(0.0625 0.0000 0.0000 0.0625 0.0000 0.0000)">
          <path d="M 421.4621,390.8945 L 649.3295,264.9190 C 653.0347,262.1402 660.4450,263.0665 656.7398,252.8773 C 654.8873,247.3195 648.4032,236.2040 637.2877,238.0566 L 381.6316,280.6660 C 343.6537,289.9289 326.0542,336.2434 334.3908,359.4006 C 342.7274,382.5579 386.2631,409.4203 421.4621,390.8945 Z M 366.8110,351.0640 C 360.3269,333.4645 369.5898,314.0124 386.2631,308.4547 C 403.8626,301.9706 423.3147,311.2335 428.8724,328.8331 C 435.3565,346.4326 427.0198,365.8847 409.4203,371.4424 C 392.7471,377.9265 373.2950,368.6635 366.8110,351.0640 Z " fill="#1A1A1A" stroke="none"/>
        </g>
        <g transform="matrix(1.0000 0.0000 0.0000 1.0000 0.0000 0.0000)">
</g>
        <g transform="matrix(0.0625 0.0000 0.0000 0.0625 0.0000 0.0000)">
          <path d="M 421.4621,390.8945 L 649.3295,264.9190 C 653.0347,262.1402 660.4450,263.0665 656.7398,252.8773 C 654.8873,247.3195 648.4032,236.2040 637.2877,238.0566 L 381.6316,280.6660 C 343.6537,289.9289 326.0542,336.2434 334.3908,359.4006 C 342.7274,382.5579 386.2631,409.4203 421.4621,390.8945 Z M 366.8110,351.0640 C 360.3269,333.4645 369.5898,314.0124 386.2631,308.4547 C 403.8626,301.9706 423.3147,311.2335 428.8724,328.8331 C 435.3565,346.4326 427.0198,365.8847 409.4203,371.4424 C 392.7471,377.9265 373.2950,368.6635 366.8110,351.0640 Z " stroke="#1A1A1A" stroke-width="9.2629" stroke-linecap="round" stroke-linejoin="round" fill="none"/>
        </g>
        <g transform="matrix(1.0000 0.0000 0.0000 1.0000 0.0000 0.0000)">
          <path d="M 26.8624,25.9361 L 40.7568,17.5995 C 41.6831,16.6732 41.6831,16.6732 41.6831,16.6732 C 41.6831,15.7469 40.7568,15.7469 40.7568,15.7469 L 24.0835,18.5258 C 22.2310,19.4521 21.3047,22.2310 21.3047,23.1573 C 22.2310,25.0098 25.0098,26.8624 26.8624,25.9361 Z M 23.1573,23.1573 C 23.1573,22.2310 24.0835,20.3784 25.0098,20.3784 C 25.9361,19.4521 26.8624,20.3784 27.7887,21.3047 C 27.7887,22.2310 26.8624,24.0835 25.9361,24.0835 C 25.0098,25.0098 24.0835,24.0835 23.1573,23.1573 Z " fill="none" stroke="none"/>
          <defs>
            <clipPath id="clip-964445884">
              <path d="M 26.8624,25.9361 L 40.7568,17.5995 C 41.6831,16.6732 41.6831,16.6732 41.6831,16.6732 C 41.6831,15.7469 40.7568,15.7469 40.7568,15.7469 L 24.0835,18.5258 C 22.2310,19.4521 21.3047,22.2310 21.3047,23.1573 C 22.2310,25.0098 25.0098,26.8624 26.8624,25.9361 M 23.1573,23.1573 C 23.1573,22.2310 24.0835,20.3784 25.0098,20.3784 C 25.9361,19.4521 26.8624,20.3784 27.7887,21.3047 C 27.7887,22.2310 26.8624,24.0835 25.9361,24.0835 C 25.0098,25.0098 24.0835,24.0835 23.1573,23.1573 Z"/>
            </clipPath>
          </defs>
          <path clip-path="url(#clip-964445884)" d="M 20.3784,14.8206 L 20.3784,15.7469 L 41.6831,15.7469 L 41.6831,14.8206 L 20.3784,14.8206 Z" stroke-width="1px" stroke="#6D6D6D" fill="#6D6D6D"/>
          <path clip-path="url(#clip-964445884)" d="M 20.3784,15.7469 L 20.3784,16.6732 L 41.6831,16.6732 L 41.6831,15.7469 L 20.3784,15.7469 Z" stroke-width="1px" stroke="#BEBEBE" fill="#BEBEBE"/>
          <path clip-path="url(#clip-964445884)" d="M 20.3784,16.6732 L 20.3784,17.5995 L 41.6831,17.5995 L 41.6831,16.6732 L 20.3784,16.6732 Z" stroke-width="1px" stroke="#B7B7B7" fill="#B7B7B7"/>
          <path clip-path="url(#clip-964445884)" d="M 20.3784,17.5995 L 20.3784,18.5258 L 41.6831,18.5258 L 41.6831,17.5995 L 20.3784,17.5995 Z" stroke-width="1px" stroke="#AFAFAF" fill="#AFAFAF"/>
          <path clip-path="url(#clip-964445884)" d="M 20.3784,18.5258 L 20.3784,19.4521 L 41.6831,19.4521 L 41.6831,18.5258 L 20.3784,18.5258 Z" stroke-width="1px" stroke="#A8A8A8" fill="#A8A8A8"/>
          <path clip-path="url(#clip-964445884)" d="M 20.3784,19.4521 L 20.3784,20.3784 L 41.6831,20.3784 L 41.6831,19.4521 L 20.3784,19.4521 Z" stroke-width="1px" stroke="#9F9F9F" fill="#9F9F9F"/>
          <path clip-path="url(#clip-964445884)" d="M 20.3784,20.3784 L 20.3784,21.3047 L 41.6831,21.3047 L 41.6831,20.3784 L 20.3784,20.3784 Z" stroke-width="1px" stroke="#989898" fill="#989898"/>
          <path clip-path="url(#clip-964445884)" d="M 20.3784,21.3047 L 20.3784,22.2310 L 41.6831,22.2310 L 41.6831,21.3047 L 20.3784,21.3047 Z" stroke-width="1px" stroke="#909090" fill="#909090"/>
          <path clip-path="url(#clip-964445884)" d="M 20.3784,22.2310 L 20.3784,23.1573 L 41.6831,23.1573 L 41.6831,22.2310 L 20.3784,22.2310 Z" stroke-width="1px" stroke="#888888" fill="#888888"/>
          <path clip-path="url(#clip-964445884)" d="M 20.3784,23.1573 L 20.3784,24.0835 L 41.6831,24.0835 L 41.6831,23.1573 L 20.3784,23.1573 Z" stroke-width="1px" stroke="#818181" fill="#818181"/>
          <path clip-path="url(#clip-964445884)" d="M 20.3784,24.0835 L 20.3784,25.0098 L 41.6831,25.0098 L 41.6831,24.0835 L 20.3784,24.0835 Z" stroke-width="1px" stroke="#797979" fill="#797979"/>
          <path clip-path="url(#clip-964445884)" d="M 20.3784,25.0098 L 20.3784,25.9361 L 41.6831,25.9361 L 41.6831,25.0098 L 20.3784,25.0098 Z" stroke-width="1px" stroke="#717171" fill="#717171"/>
        </g>
        <g transform="matrix(0.0625 0.0000 0.0000 0.0625 0.0000 0.0000)">
          <path d="M 426.0935,403.8626 L 652.1084,270.4768 C 656.7398,267.6979 658.5924,263.0665 656.7398,257.5087 C 654.8873,251.9510 650.2558,249.1721 644.6981,250.0984 L 385.3368,292.7077 C 347.3589,301.9706 329.7594,346.4326 338.0960,369.5898 C 346.4326,392.7471 389.9682,421.4621 426.0935,403.8626 M 369.5898,361.2532 C 364.0321,343.6537 372.3687,324.2016 389.9682,317.7176 C 406.6415,311.2335 426.0935,320.4965 432.5776,339.0223 C 439.0616,356.6218 429.7987,375.1476 413.1255,381.6316 C 395.5260,388.1156 376.0739,378.8527 369.5898,361.2532 " stroke="#1A1A1A" stroke-width="9.2629" stroke-linecap="round" stroke-linejoin="round" fill="none"/>
        </g>
        <g transform="matrix(1.0000 0.0000 0.0000 1.0000 0.0000 0.0000)">
</g>
      </g>
      <!--emf-blob end-->
    </g>
  </g>
</svg>
