<svg xmlns="http://www.w3.org/2000/svg" xmlns:xlink="http://www.w3.org/1999/xlink" version="1.1" width="48.4157000000" height="27.3136000000">
  <title><![CDATA[Guage Low]]></title>
  <g transform=" scale(1.000000) ">
    <text xmlns="http://www.w3.org/2000/svg" x="12.6997" y="27.3136">
      <tspan font-family="Arial" font-size="4.5000" fill="#000000" fill-opacity="1.0000" stroke-opacity="1.0000">
Guage Low</tspan>
    </text>
    <!--converted by libvisio2svg-->
    <g transform=" translate(-1.145900,-1.126400) ">
      <!--emf-blob start-->
      <g transform="translate(0.9290, 0.9290)">
        <path d="M 36.2323,6.5032 L 33.4452,4.6452 C 30.6581,2.7871 26.9419,1.8581 22.2968,1.8581 C 11.1484,1.8581 1.8581,11.1484 1.8581,22.2968 L 1.8581,22.2968 L 4.6452,24.1548 L 14.8645,24.1548 C 14.8645,18.5806 19.5097,13.9355 25.0839,13.9355 C 26.9419,13.9355 27.8710,13.9355 29.7290,14.8645 C 31.5871,16.7226 33.4452,19.5097 33.4452,22.2968 L 33.4452,22.2968 L 36.2323,24.1548 L 46.4516,24.1548 C 46.4516,16.7226 42.7355,10.2194 36.2323,6.5032 Z " fill="none" stroke="none"/>
        <defs>
          <clipPath id="clip-1371499336">
            <path d="M 36.2323,6.5032 L 33.4452,4.6452 C 30.6581,2.7871 26.9419,1.8581 22.2968,1.8581 C 11.1484,1.8581 1.8581,11.1484 1.8581,22.2968 L 1.8581,22.2968 L 4.6452,24.1548 L 14.8645,24.1548 C 14.8645,18.5806 19.5097,13.9355 25.0839,13.9355 C 26.9419,13.9355 27.8710,13.9355 29.7290,14.8645 C 31.5871,16.7226 33.4452,19.5097 33.4452,22.2968 L 33.4452,22.2968 L 36.2323,24.1548 L 46.4516,24.1548 C 46.4516,16.7226 42.7355,10.2194 36.2323,6.5032 Z"/>
          </clipPath>
        </defs>
        <path clip-path="url(#clip-1371499336)" d="M 0.9290,0.9290 L 0.9290,24.1548 L 1.8581,24.1548 L 1.8581,0.9290 L 0.9290,0.9290 Z" stroke-width="1px" stroke="#56BCEB" fill="#56BCEB"/>
        <path clip-path="url(#clip-1371499336)" d="M 1.8581,0.9290 L 1.8581,24.1548 L 2.7871,24.1548 L 2.7871,0.9290 L 1.8581,0.9290 Z" stroke-width="1px" stroke="#0178C1" fill="#0178C1"/>
        <path clip-path="url(#clip-1371499336)" d="M 2.7871,0.9290 L 2.7871,24.1548 L 3.7161,24.1548 L 3.7161,0.9290 L 2.7871,0.9290 Z" stroke-width="1px" stroke="#0379C2" fill="#0379C2"/>
        <path clip-path="url(#clip-1371499336)" d="M 3.7161,0.9290 L 3.7161,24.1548 L 4.6452,24.1548 L 4.6452,0.9290 L 3.7161,0.9290 Z" stroke-width="1px" stroke="#057BC3" fill="#057BC3"/>
        <path clip-path="url(#clip-1371499336)" d="M 4.6452,0.9290 L 4.6452,24.1548 L 5.5742,24.1548 L 5.5742,0.9290 L 4.6452,0.9290 Z" stroke-width="1px" stroke="#077CC4" fill="#077CC4"/>
        <path clip-path="url(#clip-1371499336)" d="M 5.5742,0.9290 L 5.5742,24.1548 L 6.5032,24.1548 L 6.5032,0.9290 L 5.5742,0.9290 Z" stroke-width="1px" stroke="#097EC4" fill="#097EC4"/>
        <path clip-path="url(#clip-1371499336)" d="M 6.5032,0.9290 L 6.5032,24.1548 L 7.4323,24.1548 L 7.4323,0.9290 L 6.5032,0.9290 Z" stroke-width="1px" stroke="#0B80C5" fill="#0B80C5"/>
        <path clip-path="url(#clip-1371499336)" d="M 7.4323,0.9290 L 7.4323,24.1548 L 8.3613,24.1548 L 8.3613,0.9290 L 7.4323,0.9290 Z" stroke-width="1px" stroke="#0C81C6" fill="#0C81C6"/>
        <path clip-path="url(#clip-1371499336)" d="M 8.3613,0.9290 L 8.3613,24.1548 L 9.2903,24.1548 L 9.2903,0.9290 L 8.3613,0.9290 Z" stroke-width="1px" stroke="#0E82C7" fill="#0E82C7"/>
        <path clip-path="url(#clip-1371499336)" d="M 9.2903,0.9290 L 9.2903,24.1548 L 10.2194,24.1548 L 10.2194,0.9290 L 9.2903,0.9290 Z" stroke-width="1px" stroke="#1084C8" fill="#1084C8"/>
        <path clip-path="url(#clip-1371499336)" d="M 10.2194,0.9290 L 10.2194,24.1548 L 11.1484,24.1548 L 11.1484,0.9290 L 10.2194,0.9290 Z" stroke-width="1px" stroke="#1285C9" fill="#1285C9"/>
        <path clip-path="url(#clip-1371499336)" d="M 11.1484,0.9290 L 11.1484,24.1548 L 12.0774,24.1548 L 12.0774,0.9290 L 11.1484,0.9290 Z" stroke-width="1px" stroke="#1386CA" fill="#1386CA"/>
        <path clip-path="url(#clip-1371499336)" d="M 12.0774,0.9290 L 12.0774,24.1548 L 13.0065,24.1548 L 13.0065,0.9290 L 12.0774,0.9290 Z" stroke-width="1px" stroke="#1588CB" fill="#1588CB"/>
        <path clip-path="url(#clip-1371499336)" d="M 13.0065,0.9290 L 13.0065,24.1548 L 13.9355,24.1548 L 13.9355,0.9290 L 13.0065,0.9290 Z" stroke-width="1px" stroke="#1789CB" fill="#1789CB"/>
        <path clip-path="url(#clip-1371499336)" d="M 13.9355,0.9290 L 13.9355,24.1548 L 14.8645,24.1548 L 14.8645,0.9290 L 13.9355,0.9290 Z" stroke-width="1px" stroke="#198BCC" fill="#198BCC"/>
        <path clip-path="url(#clip-1371499336)" d="M 14.8645,0.9290 L 14.8645,24.1548 L 15.7935,24.1548 L 15.7935,0.9290 L 14.8645,0.9290 Z" stroke-width="1px" stroke="#1B8DCD" fill="#1B8DCD"/>
        <path clip-path="url(#clip-1371499336)" d="M 15.7935,0.9290 L 15.7935,24.1548 L 16.7226,24.1548 L 16.7226,0.9290 L 15.7935,0.9290 Z" stroke-width="1px" stroke="#1C8ECE" fill="#1C8ECE"/>
        <path clip-path="url(#clip-1371499336)" d="M 16.7226,0.9290 L 16.7226,24.1548 L 17.6516,24.1548 L 17.6516,0.9290 L 16.7226,0.9290 Z" stroke-width="1px" stroke="#1E8FCF" fill="#1E8FCF"/>
        <path clip-path="url(#clip-1371499336)" d="M 17.6516,0.9290 L 17.6516,24.1548 L 18.5806,24.1548 L 18.5806,0.9290 L 17.6516,0.9290 Z" stroke-width="1px" stroke="#1F91D0" fill="#1F91D0"/>
        <path clip-path="url(#clip-1371499336)" d="M 18.5806,0.9290 L 18.5806,24.1548 L 19.5097,24.1548 L 19.5097,0.9290 L 18.5806,0.9290 Z" stroke-width="1px" stroke="#2192D1" fill="#2192D1"/>
        <path clip-path="url(#clip-1371499336)" d="M 19.5097,0.9290 L 19.5097,24.1548 L 20.4387,24.1548 L 20.4387,0.9290 L 19.5097,0.9290 Z" stroke-width="1px" stroke="#2393D2" fill="#2393D2"/>
        <path clip-path="url(#clip-1371499336)" d="M 20.4387,0.9290 L 20.4387,24.1548 L 21.3677,24.1548 L 21.3677,0.9290 L 20.4387,0.9290 Z" stroke-width="1px" stroke="#2595D3" fill="#2595D3"/>
        <path clip-path="url(#clip-1371499336)" d="M 21.3677,0.9290 L 21.3677,24.1548 L 22.2968,24.1548 L 22.2968,0.9290 L 21.3677,0.9290 Z" stroke-width="1px" stroke="#2796D4" fill="#2796D4"/>
        <path clip-path="url(#clip-1371499336)" d="M 22.2968,0.9290 L 22.2968,24.1548 L 23.2258,24.1548 L 23.2258,0.9290 L 22.2968,0.9290 Z" stroke-width="1px" stroke="#2998D5" fill="#2998D5"/>
        <path clip-path="url(#clip-1371499336)" d="M 23.2258,0.9290 L 23.2258,24.1548 L 24.1548,24.1548 L 24.1548,0.9290 L 23.2258,0.9290 Z" stroke-width="1px" stroke="#2A99D6" fill="#2A99D6"/>
        <path clip-path="url(#clip-1371499336)" d="M 24.1548,0.9290 L 24.1548,24.1548 L 25.0839,24.1548 L 25.0839,0.9290 L 24.1548,0.9290 Z" stroke-width="1px" stroke="#2C9BD6" fill="#2C9BD6"/>
        <path clip-path="url(#clip-1371499336)" d="M 25.0839,0.9290 L 25.0839,24.1548 L 26.0129,24.1548 L 26.0129,0.9290 L 25.0839,0.9290 Z" stroke-width="1px" stroke="#2E9CD7" fill="#2E9CD7"/>
        <path clip-path="url(#clip-1371499336)" d="M 26.0129,0.9290 L 26.0129,24.1548 L 26.9419,24.1548 L 26.9419,0.9290 L 26.0129,0.9290 Z" stroke-width="1px" stroke="#2F9DD8" fill="#2F9DD8"/>
        <path clip-path="url(#clip-1371499336)" d="M 26.9419,0.9290 L 26.9419,24.1548 L 27.8710,24.1548 L 27.8710,0.9290 L 26.9419,0.9290 Z" stroke-width="1px" stroke="#319FD9" fill="#319FD9"/>
        <path clip-path="url(#clip-1371499336)" d="M 27.8710,0.9290 L 27.8710,24.1548 L 28.8000,24.1548 L 28.8000,0.9290 L 27.8710,0.9290 Z" stroke-width="1px" stroke="#33A0DA" fill="#33A0DA"/>
        <path clip-path="url(#clip-1371499336)" d="M 28.8000,0.9290 L 28.8000,24.1548 L 29.7290,24.1548 L 29.7290,0.9290 L 28.8000,0.9290 Z" stroke-width="1px" stroke="#35A1DB" fill="#35A1DB"/>
        <path clip-path="url(#clip-1371499336)" d="M 29.7290,0.9290 L 29.7290,24.1548 L 30.6581,24.1548 L 30.6581,0.9290 L 29.7290,0.9290 Z" stroke-width="1px" stroke="#37A3DC" fill="#37A3DC"/>
        <path clip-path="url(#clip-1371499336)" d="M 30.6581,0.9290 L 30.6581,24.1548 L 31.5871,24.1548 L 31.5871,0.9290 L 30.6581,0.9290 Z" stroke-width="1px" stroke="#39A4DD" fill="#39A4DD"/>
        <path clip-path="url(#clip-1371499336)" d="M 31.5871,0.9290 L 31.5871,24.1548 L 32.5161,24.1548 L 32.5161,0.9290 L 31.5871,0.9290 Z" stroke-width="1px" stroke="#3AA5DE" fill="#3AA5DE"/>
        <path clip-path="url(#clip-1371499336)" d="M 32.5161,0.9290 L 32.5161,24.1548 L 33.4452,24.1548 L 33.4452,0.9290 L 32.5161,0.9290 Z" stroke-width="1px" stroke="#3CA7DE" fill="#3CA7DE"/>
        <path clip-path="url(#clip-1371499336)" d="M 33.4452,0.9290 L 33.4452,24.1548 L 34.3742,24.1548 L 34.3742,0.9290 L 33.4452,0.9290 Z" stroke-width="1px" stroke="#3EA9DF" fill="#3EA9DF"/>
        <path clip-path="url(#clip-1371499336)" d="M 34.3742,0.9290 L 34.3742,24.1548 L 35.3032,24.1548 L 35.3032,0.9290 L 34.3742,0.9290 Z" stroke-width="1px" stroke="#40AAE0" fill="#40AAE0"/>
        <path clip-path="url(#clip-1371499336)" d="M 35.3032,0.9290 L 35.3032,24.1548 L 36.2323,24.1548 L 36.2323,0.9290 L 35.3032,0.9290 Z" stroke-width="1px" stroke="#42ACE1" fill="#42ACE1"/>
        <path clip-path="url(#clip-1371499336)" d="M 36.2323,0.9290 L 36.2323,24.1548 L 37.1613,24.1548 L 37.1613,0.9290 L 36.2323,0.9290 Z" stroke-width="1px" stroke="#44ADE2" fill="#44ADE2"/>
        <path clip-path="url(#clip-1371499336)" d="M 37.1613,0.9290 L 37.1613,24.1548 L 38.0903,24.1548 L 38.0903,0.9290 L 37.1613,0.9290 Z" stroke-width="1px" stroke="#45AEE2" fill="#45AEE2"/>
        <path clip-path="url(#clip-1371499336)" d="M 38.0903,0.9290 L 38.0903,24.1548 L 39.0194,24.1548 L 39.0194,0.9290 L 38.0903,0.9290 Z" stroke-width="1px" stroke="#47B0E3" fill="#47B0E3"/>
        <path clip-path="url(#clip-1371499336)" d="M 39.0194,0.9290 L 39.0194,24.1548 L 39.9484,24.1548 L 39.9484,0.9290 L 39.0194,0.9290 Z" stroke-width="1px" stroke="#48B1E4" fill="#48B1E4"/>
        <path clip-path="url(#clip-1371499336)" d="M 39.9484,0.9290 L 39.9484,24.1548 L 40.8774,24.1548 L 40.8774,0.9290 L 39.9484,0.9290 Z" stroke-width="1px" stroke="#4AB2E5" fill="#4AB2E5"/>
        <path clip-path="url(#clip-1371499336)" d="M 40.8774,0.9290 L 40.8774,24.1548 L 41.8065,24.1548 L 41.8065,0.9290 L 40.8774,0.9290 Z" stroke-width="1px" stroke="#4CB4E6" fill="#4CB4E6"/>
        <path clip-path="url(#clip-1371499336)" d="M 41.8065,0.9290 L 41.8065,24.1548 L 42.7355,24.1548 L 42.7355,0.9290 L 41.8065,0.9290 Z" stroke-width="1px" stroke="#4EB5E7" fill="#4EB5E7"/>
        <path clip-path="url(#clip-1371499336)" d="M 42.7355,0.9290 L 42.7355,24.1548 L 43.6645,24.1548 L 43.6645,0.9290 L 42.7355,0.9290 Z" stroke-width="1px" stroke="#50B7E8" fill="#50B7E8"/>
        <path clip-path="url(#clip-1371499336)" d="M 43.6645,0.9290 L 43.6645,24.1548 L 44.5935,24.1548 L 44.5935,0.9290 L 43.6645,0.9290 Z" stroke-width="1px" stroke="#52B9E8" fill="#52B9E8"/>
        <path clip-path="url(#clip-1371499336)" d="M 44.5935,0.9290 L 44.5935,24.1548 L 45.5226,24.1548 L 45.5226,0.9290 L 44.5935,0.9290 Z" stroke-width="1px" stroke="#53BAE9" fill="#53BAE9"/>
        <path clip-path="url(#clip-1371499336)" d="M 45.5226,0.9290 L 45.5226,24.1548 L 46.4516,24.1548 L 46.4516,0.9290 L 45.5226,0.9290 Z" stroke-width="1px" stroke="#55BBEA" fill="#55BBEA"/>
        <g transform="matrix(0.0625 0.0000 0.0000 0.0625 0.0000 0.0000)">
          <path d="M 579.7161,98.4774 L 534.1935,69.6774 C 480.3097,35.3032 418.0645,17.6516 354.8903,17.6516 C 168.1548,17.6516 17.6516,169.0839 17.6516,354.8903 L 17.6516,354.8903 L 63.1742,383.6903 L 231.3290,383.6903 C 231.3290,290.7871 307.5097,214.6065 400.4129,214.6065 C 422.7097,214.6065 445.0065,219.2516 466.3742,228.5419 C 502.6065,260.1290 523.0452,306.5806 523.0452,354.8903 L 523.0452,354.8903 L 568.5677,383.6903 L 737.6516,383.6903 C 737.6516,267.5613 678.1935,159.7935 579.7161,98.4774 " stroke="#0054A6" stroke-width="9.2903" stroke-linecap="round" stroke-linejoin="round" fill="none"/>
        </g>
        <g transform="matrix(1.0000 0.0000 0.0000 1.0000 0.0000 0.0000)">
          <path d="M 14.8645,6.5032 C 8.3613,10.2194 4.6452,16.7226 4.6452,24.1548 L 4.6452,24.1548 L 14.8645,24.1548 C 14.8645,20.4387 16.7226,16.7226 20.4387,14.8645 L 20.4387,14.8645 L 14.8645,6.5032 Z " fill="none" stroke="none"/>
          <defs>
            <clipPath id="clip-2114937732">
              <path d="M 14.8645,6.5032 C 8.3613,10.2194 4.6452,16.7226 4.6452,24.1548 L 4.6452,24.1548 L 14.8645,24.1548 C 14.8645,20.4387 16.7226,16.7226 20.4387,14.8645 L 20.4387,14.8645 L 14.8645,6.5032 Z"/>
            </clipPath>
          </defs>
          <path clip-path="url(#clip-2114937732)" d="M 3.7161,5.5742 L 3.7161,24.1548 L 4.6452,24.1548 L 4.6452,5.5742 L 3.7161,5.5742 Z" stroke-width="1px" stroke="#B4B4B4" fill="#B4B4B4"/>
          <path clip-path="url(#clip-2114937732)" d="M 4.6452,5.5742 L 4.6452,24.1548 L 5.5742,24.1548 L 5.5742,5.5742 L 4.6452,5.5742 Z" stroke-width="1px" stroke="#E4E4E4" fill="#E4E4E4"/>
          <path clip-path="url(#clip-2114937732)" d="M 5.5742,5.5742 L 5.5742,24.1548 L 6.5032,24.1548 L 6.5032,5.5742 L 5.5742,5.5742 Z" stroke-width="1px" stroke="#E1E1E1" fill="#E1E1E1"/>
          <path clip-path="url(#clip-2114937732)" d="M 6.5032,5.5742 L 6.5032,24.1548 L 7.4323,24.1548 L 7.4323,5.5742 L 6.5032,5.5742 Z" stroke-width="1px" stroke="#DEDEDE" fill="#DEDEDE"/>
          <path clip-path="url(#clip-2114937732)" d="M 7.4323,5.5742 L 7.4323,24.1548 L 8.3613,24.1548 L 8.3613,5.5742 L 7.4323,5.5742 Z" stroke-width="1px" stroke="#DADADA" fill="#DADADA"/>
          <path clip-path="url(#clip-2114937732)" d="M 8.3613,5.5742 L 8.3613,24.1548 L 9.2903,24.1548 L 9.2903,5.5742 L 8.3613,5.5742 Z" stroke-width="1px" stroke="#D8D8D8" fill="#D8D8D8"/>
          <path clip-path="url(#clip-2114937732)" d="M 9.2903,5.5742 L 9.2903,24.1548 L 10.2194,24.1548 L 10.2194,5.5742 L 9.2903,5.5742 Z" stroke-width="1px" stroke="#D5D5D5" fill="#D5D5D5"/>
          <path clip-path="url(#clip-2114937732)" d="M 10.2194,5.5742 L 10.2194,24.1548 L 11.1484,24.1548 L 11.1484,5.5742 L 10.2194,5.5742 Z" stroke-width="1px" stroke="#D2D2D2" fill="#D2D2D2"/>
          <path clip-path="url(#clip-2114937732)" d="M 11.1484,5.5742 L 11.1484,24.1548 L 12.0774,24.1548 L 12.0774,5.5742 L 11.1484,5.5742 Z" stroke-width="1px" stroke="#CFCFCF" fill="#CFCFCF"/>
          <path clip-path="url(#clip-2114937732)" d="M 12.0774,5.5742 L 12.0774,24.1548 L 13.0065,24.1548 L 13.0065,5.5742 L 12.0774,5.5742 Z" stroke-width="1px" stroke="#CCCCCC" fill="#CCCCCC"/>
          <path clip-path="url(#clip-2114937732)" d="M 13.0065,5.5742 L 13.0065,24.1548 L 13.9355,24.1548 L 13.9355,5.5742 L 13.0065,5.5742 Z" stroke-width="1px" stroke="#C8C8C8" fill="#C8C8C8"/>
          <path clip-path="url(#clip-2114937732)" d="M 13.9355,5.5742 L 13.9355,24.1548 L 14.8645,24.1548 L 14.8645,5.5742 L 13.9355,5.5742 Z" stroke-width="1px" stroke="#C6C6C6" fill="#C6C6C6"/>
          <path clip-path="url(#clip-2114937732)" d="M 14.8645,5.5742 L 14.8645,24.1548 L 15.7935,24.1548 L 15.7935,5.5742 L 14.8645,5.5742 Z" stroke-width="1px" stroke="#C3C3C3" fill="#C3C3C3"/>
          <path clip-path="url(#clip-2114937732)" d="M 15.7935,5.5742 L 15.7935,24.1548 L 16.7226,24.1548 L 16.7226,5.5742 L 15.7935,5.5742 Z" stroke-width="1px" stroke="#C0C0C0" fill="#C0C0C0"/>
          <path clip-path="url(#clip-2114937732)" d="M 16.7226,5.5742 L 16.7226,24.1548 L 17.6516,24.1548 L 17.6516,5.5742 L 16.7226,5.5742 Z" stroke-width="1px" stroke="#BDBDBD" fill="#BDBDBD"/>
          <path clip-path="url(#clip-2114937732)" d="M 17.6516,5.5742 L 17.6516,24.1548 L 18.5806,24.1548 L 18.5806,5.5742 L 17.6516,5.5742 Z" stroke-width="1px" stroke="#B9B9B9" fill="#B9B9B9"/>
          <path clip-path="url(#clip-2114937732)" d="M 18.5806,5.5742 L 18.5806,24.1548 L 19.5097,24.1548 L 19.5097,5.5742 L 18.5806,5.5742 Z" stroke-width="1px" stroke="#B6B6B6" fill="#B6B6B6"/>
        </g>
        <g transform="matrix(0.0625 0.0000 0.0000 0.0625 0.0000 0.0000)">
          <path d="M 231.3290,91.0452 C 127.2774,151.4323 63.1742,262.9161 63.1742,383.6903 L 63.1742,383.6903 L 231.3290,383.6903 C 231.3290,323.3032 263.8452,267.5613 315.8710,237.8323 L 315.8710,237.8323 L 231.3290,91.0452 " stroke="#0054A6" stroke-width="9.2903" stroke-linecap="round" stroke-linejoin="round" fill="none"/>
        </g>
        <g transform="matrix(1.0000 0.0000 0.0000 1.0000 0.0000 0.0000)">
          <path d="M 36.2323,6.5032 L 30.6581,14.8645 C 34.3742,16.7226 36.2323,20.4387 36.2323,24.1548 L 36.2323,24.1548 L 46.4516,24.1548 C 46.4516,16.7226 42.7355,10.2194 36.2323,6.5032 Z " fill="none" stroke="none"/>
          <defs>
            <clipPath id="clip-726371155">
              <path d="M 36.2323,6.5032 L 30.6581,14.8645 C 34.3742,16.7226 36.2323,20.4387 36.2323,24.1548 L 36.2323,24.1548 L 46.4516,24.1548 C 46.4516,16.7226 42.7355,10.2194 36.2323,6.5032 Z"/>
            </clipPath>
          </defs>
          <path clip-path="url(#clip-726371155)" d="M 29.7290,5.5742 L 29.7290,24.1548 L 30.6581,24.1548 L 30.6581,5.5742 L 29.7290,5.5742 Z" stroke-width="1px" stroke="#B5B5B5" fill="#B5B5B5"/>
          <path clip-path="url(#clip-726371155)" d="M 30.6581,5.5742 L 30.6581,24.1548 L 31.5871,24.1548 L 31.5871,5.5742 L 30.6581,5.5742 Z" stroke-width="1px" stroke="#E5E5E5" fill="#E5E5E5"/>
          <path clip-path="url(#clip-726371155)" d="M 31.5871,5.5742 L 31.5871,24.1548 L 32.5161,24.1548 L 32.5161,5.5742 L 31.5871,5.5742 Z" stroke-width="1px" stroke="#E2E2E2" fill="#E2E2E2"/>
          <path clip-path="url(#clip-726371155)" d="M 32.5161,5.5742 L 32.5161,24.1548 L 33.4452,24.1548 L 33.4452,5.5742 L 32.5161,5.5742 Z" stroke-width="1px" stroke="#DFDFDF" fill="#DFDFDF"/>
          <path clip-path="url(#clip-726371155)" d="M 33.4452,5.5742 L 33.4452,24.1548 L 34.3742,24.1548 L 34.3742,5.5742 L 33.4452,5.5742 Z" stroke-width="1px" stroke="#DBDBDB" fill="#DBDBDB"/>
          <path clip-path="url(#clip-726371155)" d="M 34.3742,5.5742 L 34.3742,24.1548 L 35.3032,24.1548 L 35.3032,5.5742 L 34.3742,5.5742 Z" stroke-width="1px" stroke="#D9D9D9" fill="#D9D9D9"/>
          <path clip-path="url(#clip-726371155)" d="M 35.3032,5.5742 L 35.3032,24.1548 L 36.2323,24.1548 L 36.2323,5.5742 L 35.3032,5.5742 Z" stroke-width="1px" stroke="#D6D6D6" fill="#D6D6D6"/>
          <path clip-path="url(#clip-726371155)" d="M 36.2323,5.5742 L 36.2323,24.1548 L 37.1613,24.1548 L 37.1613,5.5742 L 36.2323,5.5742 Z" stroke-width="1px" stroke="#D3D3D3" fill="#D3D3D3"/>
          <path clip-path="url(#clip-726371155)" d="M 37.1613,5.5742 L 37.1613,24.1548 L 38.0903,24.1548 L 38.0903,5.5742 L 37.1613,5.5742 Z" stroke-width="1px" stroke="#D0D0D0" fill="#D0D0D0"/>
          <path clip-path="url(#clip-726371155)" d="M 38.0903,5.5742 L 38.0903,24.1548 L 39.0194,24.1548 L 39.0194,5.5742 L 38.0903,5.5742 Z" stroke-width="1px" stroke="#CDCDCD" fill="#CDCDCD"/>
          <path clip-path="url(#clip-726371155)" d="M 39.0194,5.5742 L 39.0194,24.1548 L 39.9484,24.1548 L 39.9484,5.5742 L 39.0194,5.5742 Z" stroke-width="1px" stroke="#CACACA" fill="#CACACA"/>
          <path clip-path="url(#clip-726371155)" d="M 39.9484,5.5742 L 39.9484,24.1548 L 40.8774,24.1548 L 40.8774,5.5742 L 39.9484,5.5742 Z" stroke-width="1px" stroke="#C7C7C7" fill="#C7C7C7"/>
          <path clip-path="url(#clip-726371155)" d="M 40.8774,5.5742 L 40.8774,24.1548 L 41.8065,24.1548 L 41.8065,5.5742 L 40.8774,5.5742 Z" stroke-width="1px" stroke="#C4C4C4" fill="#C4C4C4"/>
          <path clip-path="url(#clip-726371155)" d="M 41.8065,5.5742 L 41.8065,24.1548 L 42.7355,24.1548 L 42.7355,5.5742 L 41.8065,5.5742 Z" stroke-width="1px" stroke="#C1C1C1" fill="#C1C1C1"/>
          <path clip-path="url(#clip-726371155)" d="M 42.7355,5.5742 L 42.7355,24.1548 L 43.6645,24.1548 L 43.6645,5.5742 L 42.7355,5.5742 Z" stroke-width="1px" stroke="#BEBEBE" fill="#BEBEBE"/>
          <path clip-path="url(#clip-726371155)" d="M 43.6645,5.5742 L 43.6645,24.1548 L 44.5935,24.1548 L 44.5935,5.5742 L 43.6645,5.5742 Z" stroke-width="1px" stroke="#BBBBBB" fill="#BBBBBB"/>
          <path clip-path="url(#clip-726371155)" d="M 44.5935,5.5742 L 44.5935,24.1548 L 45.5226,24.1548 L 45.5226,5.5742 L 44.5935,5.5742 Z" stroke-width="1px" stroke="#B8B8B8" fill="#B8B8B8"/>
        </g>
        <g transform="matrix(0.0625 0.0000 0.0000 0.0625 0.0000 0.0000)">
          <path d="M 568.5677,91.0452 L 484.9548,237.8323 C 536.9806,267.5613 568.5677,323.3032 568.5677,383.6903 L 568.5677,383.6903 L 737.6516,383.6903 C 737.6516,262.9161 673.5484,151.4323 568.5677,91.0452 " stroke="#0054A6" stroke-width="9.2903" stroke-linecap="round" stroke-linejoin="round" fill="none"/>
        </g>
        <g transform="matrix(1.0000 0.0000 0.0000 1.0000 0.0000 0.0000)">
          <path d="M 36.2323,6.5032 C 32.5161,4.6452 28.8000,3.7161 25.0839,3.7161 C 21.3677,3.7161 17.6516,4.6452 14.8645,6.5032 L 14.8645,6.5032 L 20.4387,14.8645 C 23.2258,13.0065 27.8710,13.0065 30.6581,14.8645 L 30.6581,14.8645 L 36.2323,6.5032 Z " fill="none" stroke="none"/>
          <defs>
            <clipPath id="clip-1927495994">
              <path d="M 36.2323,6.5032 C 32.5161,4.6452 28.8000,3.7161 25.0839,3.7161 C 21.3677,3.7161 17.6516,4.6452 14.8645,6.5032 L 14.8645,6.5032 L 20.4387,14.8645 C 23.2258,13.0065 27.8710,13.0065 30.6581,14.8645 L 30.6581,14.8645 L 36.2323,6.5032 Z"/>
            </clipPath>
          </defs>
          <path clip-path="url(#clip-1927495994)" d="M 13.9355,2.7871 L 13.9355,14.8645 L 14.8645,14.8645 L 14.8645,2.7871 L 13.9355,2.7871 Z" stroke-width="1px" stroke="#B4B4B4" fill="#B4B4B4"/>
          <path clip-path="url(#clip-1927495994)" d="M 14.8645,2.7871 L 14.8645,14.8645 L 15.7935,14.8645 L 15.7935,2.7871 L 14.8645,2.7871 Z" stroke-width="1px" stroke="#E5E5E5" fill="#E5E5E5"/>
          <path clip-path="url(#clip-1927495994)" d="M 15.7935,2.7871 L 15.7935,14.8645 L 16.7226,14.8645 L 16.7226,2.7871 L 15.7935,2.7871 Z" stroke-width="1px" stroke="#E3E3E3" fill="#E3E3E3"/>
          <path clip-path="url(#clip-1927495994)" d="M 16.7226,2.7871 L 16.7226,14.8645 L 17.6516,14.8645 L 17.6516,2.7871 L 16.7226,2.7871 Z" stroke-width="1px" stroke="#E1E1E1" fill="#E1E1E1"/>
          <path clip-path="url(#clip-1927495994)" d="M 17.6516,2.7871 L 17.6516,14.8645 L 18.5806,14.8645 L 18.5806,2.7871 L 17.6516,2.7871 Z" stroke-width="1px" stroke="#DEDEDE" fill="#DEDEDE"/>
          <path clip-path="url(#clip-1927495994)" d="M 18.5806,2.7871 L 18.5806,14.8645 L 19.5097,14.8645 L 19.5097,2.7871 L 18.5806,2.7871 Z" stroke-width="1px" stroke="#DCDCDC" fill="#DCDCDC"/>
          <path clip-path="url(#clip-1927495994)" d="M 19.5097,2.7871 L 19.5097,14.8645 L 20.4387,14.8645 L 20.4387,2.7871 L 19.5097,2.7871 Z" stroke-width="1px" stroke="#DADADA" fill="#DADADA"/>
          <path clip-path="url(#clip-1927495994)" d="M 20.4387,2.7871 L 20.4387,14.8645 L 21.3677,14.8645 L 21.3677,2.7871 L 20.4387,2.7871 Z" stroke-width="1px" stroke="#D7D7D7" fill="#D7D7D7"/>
          <path clip-path="url(#clip-1927495994)" d="M 21.3677,2.7871 L 21.3677,14.8645 L 22.2968,14.8645 L 22.2968,2.7871 L 21.3677,2.7871 Z" stroke-width="1px" stroke="#D5D5D5" fill="#D5D5D5"/>
          <path clip-path="url(#clip-1927495994)" d="M 22.2968,2.7871 L 22.2968,14.8645 L 23.2258,14.8645 L 23.2258,2.7871 L 22.2968,2.7871 Z" stroke-width="1px" stroke="#D3D3D3" fill="#D3D3D3"/>
          <path clip-path="url(#clip-1927495994)" d="M 23.2258,2.7871 L 23.2258,14.8645 L 24.1548,14.8645 L 24.1548,2.7871 L 23.2258,2.7871 Z" stroke-width="1px" stroke="#D1D1D1" fill="#D1D1D1"/>
          <path clip-path="url(#clip-1927495994)" d="M 24.1548,2.7871 L 24.1548,14.8645 L 25.0839,14.8645 L 25.0839,2.7871 L 24.1548,2.7871 Z" stroke-width="1px" stroke="#CFCFCF" fill="#CFCFCF"/>
          <path clip-path="url(#clip-1927495994)" d="M 25.0839,2.7871 L 25.0839,14.8645 L 26.0129,14.8645 L 26.0129,2.7871 L 25.0839,2.7871 Z" stroke-width="1px" stroke="#CDCDCD" fill="#CDCDCD"/>
          <path clip-path="url(#clip-1927495994)" d="M 26.0129,2.7871 L 26.0129,14.8645 L 26.9419,14.8645 L 26.9419,2.7871 L 26.0129,2.7871 Z" stroke-width="1px" stroke="#CACACA" fill="#CACACA"/>
          <path clip-path="url(#clip-1927495994)" d="M 26.9419,2.7871 L 26.9419,14.8645 L 27.8710,14.8645 L 27.8710,2.7871 L 26.9419,2.7871 Z" stroke-width="1px" stroke="#C8C8C8" fill="#C8C8C8"/>
          <path clip-path="url(#clip-1927495994)" d="M 27.8710,2.7871 L 27.8710,14.8645 L 28.8000,14.8645 L 28.8000,2.7871 L 27.8710,2.7871 Z" stroke-width="1px" stroke="#C5C5C5" fill="#C5C5C5"/>
          <path clip-path="url(#clip-1927495994)" d="M 28.8000,2.7871 L 28.8000,14.8645 L 29.7290,14.8645 L 29.7290,2.7871 L 28.8000,2.7871 Z" stroke-width="1px" stroke="#C3C3C3" fill="#C3C3C3"/>
          <path clip-path="url(#clip-1927495994)" d="M 29.7290,2.7871 L 29.7290,14.8645 L 30.6581,14.8645 L 30.6581,2.7871 L 29.7290,2.7871 Z" stroke-width="1px" stroke="#C1C1C1" fill="#C1C1C1"/>
          <path clip-path="url(#clip-1927495994)" d="M 30.6581,2.7871 L 30.6581,14.8645 L 31.5871,14.8645 L 31.5871,2.7871 L 30.6581,2.7871 Z" stroke-width="1px" stroke="#BFBFBF" fill="#BFBFBF"/>
          <path clip-path="url(#clip-1927495994)" d="M 31.5871,2.7871 L 31.5871,14.8645 L 32.5161,14.8645 L 32.5161,2.7871 L 31.5871,2.7871 Z" stroke-width="1px" stroke="#BDBDBD" fill="#BDBDBD"/>
          <path clip-path="url(#clip-1927495994)" d="M 32.5161,2.7871 L 32.5161,14.8645 L 33.4452,14.8645 L 33.4452,2.7871 L 32.5161,2.7871 Z" stroke-width="1px" stroke="#BABABA" fill="#BABABA"/>
          <path clip-path="url(#clip-1927495994)" d="M 33.4452,2.7871 L 33.4452,14.8645 L 34.3742,14.8645 L 34.3742,2.7871 L 33.4452,2.7871 Z" stroke-width="1px" stroke="#B8B8B8" fill="#B8B8B8"/>
          <path clip-path="url(#clip-1927495994)" d="M 34.3742,2.7871 L 34.3742,14.8645 L 35.3032,14.8645 L 35.3032,2.7871 L 34.3742,2.7871 Z" stroke-width="1px" stroke="#B6B6B6" fill="#B6B6B6"/>
        </g>
        <g transform="matrix(0.0625 0.0000 0.0000 0.0625 0.0000 0.0000)">
          <path d="M 568.5677,91.0452 C 517.4710,62.2452 459.8710,46.4516 400.4129,46.4516 C 340.9548,46.4516 283.3548,62.2452 231.3290,91.0452 L 231.3290,91.0452 L 315.8710,237.8323 C 367.8968,207.1742 432.9290,207.1742 484.9548,237.8323 L 484.9548,237.8323 L 568.5677,91.0452 " stroke="#0054A6" stroke-width="9.2903" stroke-linecap="round" stroke-linejoin="round" fill="none"/>
        </g>
        <g transform="matrix(1.0000 0.0000 0.0000 1.0000 0.0000 0.0000)">
</g>
        <g transform="matrix(0.0625 0.0000 0.0000 0.0625 0.0000 0.0000)">
          <path d="M 545.3419,98.4774 C 500.7484,75.2516 450.5806,63.1742 400.4129,63.1742 C 350.2452,63.1742 300.0774,75.2516 255.4839,98.4774 L 255.4839,98.4774 L 322.3742,215.5355 C 371.6129,192.3097 429.2129,192.3097 478.4516,215.5355 L 478.4516,215.5355 L 545.3419,98.4774 Z " fill="#74A5D8" stroke="none"/>
        </g>
        <g transform="matrix(1.0000 0.0000 0.0000 1.0000 0.0000 0.0000)">
</g>
        <g transform="matrix(0.0625 0.0000 0.0000 0.0625 0.0000 0.0000)">
          <path d="M 545.3419,98.4774 C 500.7484,75.2516 450.5806,63.1742 400.4129,63.1742 C 350.2452,63.1742 300.0774,75.2516 255.4839,98.4774 L 255.4839,98.4774 L 322.3742,215.5355 C 371.6129,192.3097 429.2129,192.3097 478.4516,215.5355 L 478.4516,215.5355 L 545.3419,98.4774 Z " stroke="#0054A6" stroke-width="5.5742" stroke-linecap="round" stroke-linejoin="round" fill="none"/>
        </g>
        <g transform="matrix(1.0000 0.0000 0.0000 1.0000 0.0000 0.0000)">
</g>
        <g transform="matrix(0.0625 0.0000 0.0000 0.0625 0.0000 0.0000)">
          <path d="M 225.7548,115.2000 C 140.2839,170.9419 85.4710,264.7742 80.8258,366.9677 L 80.8258,366.9677 L 215.5355,366.9677 C 220.1806,313.0839 248.9806,263.8452 293.5742,232.2581 L 293.5742,232.2581 L 225.7548,115.2000 Z " fill="#A5D2ED" stroke="none"/>
        </g>
        <g transform="matrix(1.0000 0.0000 0.0000 1.0000 0.0000 0.0000)">
</g>
        <g transform="matrix(0.0625 0.0000 0.0000 0.0625 0.0000 0.0000)">
          <path d="M 225.7548,115.2000 C 140.2839,170.9419 85.4710,264.7742 80.8258,366.9677 L 80.8258,366.9677 L 215.5355,366.9677 C 220.1806,313.0839 248.9806,263.8452 293.5742,232.2581 L 293.5742,232.2581 L 225.7548,115.2000 Z " stroke="#0054A6" stroke-width="5.5742" stroke-linecap="round" stroke-linejoin="round" fill="none"/>
        </g>
        <g transform="matrix(1.0000 0.0000 0.0000 1.0000 0.0000 0.0000)">
</g>
        <g transform="matrix(0.0625 0.0000 0.0000 0.0625 0.0000 0.0000)">
          <path d="M 575.0710,115.2000 L 507.2516,232.2581 C 551.8452,263.8452 579.7161,313.0839 585.2903,366.9677 L 585.2903,366.9677 L 720.0000,366.9677 C 715.3548,264.7742 660.5419,170.9419 575.0710,115.2000 Z " fill="#0077C0" stroke="none"/>
        </g>
        <g transform="matrix(1.0000 0.0000 0.0000 1.0000 0.0000 0.0000)">
</g>
        <g transform="matrix(0.0625 0.0000 0.0000 0.0625 0.0000 0.0000)">
          <path d="M 575.0710,115.2000 L 507.2516,232.2581 C 551.8452,263.8452 579.7161,313.0839 585.2903,366.9677 L 585.2903,366.9677 L 720.0000,366.9677 C 715.3548,264.7742 660.5419,170.9419 575.0710,115.2000 Z " stroke="#0054A6" stroke-width="5.5742" stroke-linecap="round" stroke-linejoin="round" fill="none"/>
        </g>
        <g transform="matrix(1.0000 0.0000 0.0000 1.0000 0.0000 0.0000)">
</g>
        <g transform="matrix(0.0625 0.0000 0.0000 0.0625 0.0000 0.0000)">
          <path d="M 473.8065,369.7548 C 482.1677,347.4581 479.3806,299.1484 413.4194,288.0000 L 164.4387,248.9806 C 158.8645,248.0516 154.2194,251.7677 152.3613,257.3419 C 150.5032,262.9161 151.4323,267.5613 156.0774,270.3484 L 382.7613,400.4129 C 418.0645,418.0645 465.4452,392.9806 473.8065,369.7548 Z M 394.8387,381.8323 C 377.1871,375.3290 368.8258,356.7484 374.4000,339.0968 C 380.9032,322.3742 400.4129,313.0839 417.1355,319.5871 C 434.7871,326.0903 443.1484,344.6710 436.6452,362.3226 C 431.0710,379.0452 411.5613,388.3355 394.8387,381.8323 Z " fill="#1A1A1A" stroke="none"/>
        </g>
        <g transform="matrix(1.0000 0.0000 0.0000 1.0000 0.0000 0.0000)">
</g>
        <g transform="matrix(0.0625 0.0000 0.0000 0.0625 0.0000 0.0000)">
          <path d="M 473.8065,369.7548 C 482.1677,347.4581 479.3806,299.1484 413.4194,288.0000 L 164.4387,248.9806 C 158.8645,248.0516 154.2194,251.7677 152.3613,257.3419 C 150.5032,262.9161 151.4323,267.5613 156.0774,270.3484 L 382.7613,400.4129 C 418.0645,418.0645 465.4452,392.9806 473.8065,369.7548 Z M 394.8387,381.8323 C 377.1871,375.3290 368.8258,356.7484 374.4000,339.0968 C 380.9032,322.3742 400.4129,313.0839 417.1355,319.5871 C 434.7871,326.0903 443.1484,344.6710 436.6452,362.3226 C 431.0710,379.0452 411.5613,388.3355 394.8387,381.8323 Z " stroke="#1A1A1A" stroke-width="9.2903" stroke-linecap="round" stroke-linejoin="round" fill="none"/>
        </g>
        <g transform="matrix(1.0000 0.0000 0.0000 1.0000 0.0000 0.0000)">
          <path d="M 30.6581,24.1548 C 30.6581,22.2968 29.7290,19.5097 27.8710,19.5097 L 11.1484,16.7226 C 11.1484,16.7226 11.1484,16.7226 10.2194,16.7226 C 10.2194,16.7226 10.2194,17.6516 11.1484,17.6516 L 25.0839,26.0129 C 26.9419,26.9419 29.7290,25.0839 30.6581,24.1548 Z M 26.0129,24.1548 C 25.0839,24.1548 24.1548,23.2258 24.1548,21.3677 C 25.0839,20.4387 26.0129,20.4387 26.9419,20.4387 C 27.8710,21.3677 28.8000,22.2968 28.8000,23.2258 C 27.8710,24.1548 26.9419,25.0839 26.0129,24.1548 Z " fill="none" stroke="none"/>
          <defs>
            <clipPath id="clip-292218004">
              <path d="M 30.6581,24.1548 C 30.6581,22.2968 29.7290,19.5097 27.8710,19.5097 L 11.1484,16.7226 C 11.1484,16.7226 11.1484,16.7226 10.2194,16.7226 C 10.2194,16.7226 10.2194,17.6516 11.1484,17.6516 L 25.0839,26.0129 C 26.9419,26.9419 29.7290,25.0839 30.6581,24.1548 M 26.0129,24.1548 C 25.0839,24.1548 24.1548,23.2258 24.1548,21.3677 C 25.0839,20.4387 26.0129,20.4387 26.9419,20.4387 C 27.8710,21.3677 28.8000,22.2968 28.8000,23.2258 C 27.8710,24.1548 26.9419,25.0839 26.0129,24.1548 Z"/>
            </clipPath>
          </defs>
          <path clip-path="url(#clip-292218004)" d="M 9.2903,15.7935 L 9.2903,16.7226 L 30.6581,16.7226 L 30.6581,15.7935 L 9.2903,15.7935 Z" stroke-width="1px" stroke="#666666" fill="#666666"/>
          <path clip-path="url(#clip-292218004)" d="M 9.2903,16.7226 L 9.2903,17.6516 L 30.6581,17.6516 L 30.6581,16.7226 L 9.2903,16.7226 Z" stroke-width="1px" stroke="#B8B8B8" fill="#B8B8B8"/>
          <path clip-path="url(#clip-292218004)" d="M 9.2903,17.6516 L 9.2903,18.5806 L 30.6581,18.5806 L 30.6581,17.6516 L 9.2903,17.6516 Z" stroke-width="1px" stroke="#B1B1B1" fill="#B1B1B1"/>
          <path clip-path="url(#clip-292218004)" d="M 9.2903,18.5806 L 9.2903,19.5097 L 30.6581,19.5097 L 30.6581,18.5806 L 9.2903,18.5806 Z" stroke-width="1px" stroke="#A9A9A9" fill="#A9A9A9"/>
          <path clip-path="url(#clip-292218004)" d="M 9.2903,19.5097 L 9.2903,20.4387 L 30.6581,20.4387 L 30.6581,19.5097 L 9.2903,19.5097 Z" stroke-width="1px" stroke="#A1A1A1" fill="#A1A1A1"/>
          <path clip-path="url(#clip-292218004)" d="M 9.2903,20.4387 L 9.2903,21.3677 L 30.6581,21.3677 L 30.6581,20.4387 L 9.2903,20.4387 Z" stroke-width="1px" stroke="#999999" fill="#999999"/>
          <path clip-path="url(#clip-292218004)" d="M 9.2903,21.3677 L 9.2903,22.2968 L 30.6581,22.2968 L 30.6581,21.3677 L 9.2903,21.3677 Z" stroke-width="1px" stroke="#919191" fill="#919191"/>
          <path clip-path="url(#clip-292218004)" d="M 9.2903,22.2968 L 9.2903,23.2258 L 30.6581,23.2258 L 30.6581,22.2968 L 9.2903,22.2968 Z" stroke-width="1px" stroke="#898989" fill="#898989"/>
          <path clip-path="url(#clip-292218004)" d="M 9.2903,23.2258 L 9.2903,24.1548 L 30.6581,24.1548 L 30.6581,23.2258 L 9.2903,23.2258 Z" stroke-width="1px" stroke="#818181" fill="#818181"/>
          <path clip-path="url(#clip-292218004)" d="M 9.2903,24.1548 L 9.2903,25.0839 L 30.6581,25.0839 L 30.6581,24.1548 L 9.2903,24.1548 Z" stroke-width="1px" stroke="#7A7A7A" fill="#7A7A7A"/>
          <path clip-path="url(#clip-292218004)" d="M 9.2903,25.0839 L 9.2903,26.0129 L 30.6581,26.0129 L 30.6581,25.0839 L 9.2903,25.0839 Z" stroke-width="1px" stroke="#717171" fill="#717171"/>
          <path clip-path="url(#clip-292218004)" d="M 9.2903,26.0129 L 9.2903,26.9419 L 30.6581,26.9419 L 30.6581,26.0129 L 9.2903,26.0129 Z" stroke-width="1px" stroke="#6A6A6A" fill="#6A6A6A"/>
        </g>
        <g transform="matrix(0.0625 0.0000 0.0000 0.0625 0.0000 0.0000)">
          <path d="M 481.2387,373.4710 C 489.6000,351.1742 471.0194,307.5097 432.9290,298.2194 L 175.5871,254.5548 C 170.0129,253.6258 165.3677,256.4129 163.5097,261.0581 C 161.6516,266.6323 163.5097,271.2774 168.1548,274.0645 L 393.9097,405.9871 C 429.2129,423.6387 472.8774,396.6968 481.2387,373.4710 M 406.9161,384.6194 C 389.2645,379.0452 380.9032,359.5355 386.4774,342.8129 C 392.9806,325.1613 412.4903,316.8000 429.2129,322.3742 C 446.8645,328.8774 455.2258,348.3871 448.7226,365.1097 C 443.1484,382.7613 423.6387,391.1226 406.9161,384.6194 " stroke="#1A1A1A" stroke-width="9.2903" stroke-linecap="round" stroke-linejoin="round" fill="none"/>
        </g>
        <g transform="matrix(1.0000 0.0000 0.0000 1.0000 0.0000 0.0000)">
</g>
      </g>
      <!--emf-blob end-->
    </g>
  </g>
</svg>
