<svg xmlns="http://www.w3.org/2000/svg" xmlns:xlink="http://www.w3.org/1999/xlink" version="1.1" width="48.4157000000" height="24.6047000000">
  <title><![CDATA[Guage no point color 2]]></title>
  <g transform=" scale(1.000000) ">
    <text xmlns="http://www.w3.org/2000/svg" x="3.3185" y="24.6047">
      <tspan font-family="Arial" font-size="4.5000" fill="#000000" fill-opacity="1.0000" stroke-opacity="1.0000">
Guage no point color</tspan>
    </text>
    <!--converted by libvisio2svg-->
    <g transform=" translate(-1.155900,-1.165700) ">
      <!--emf-blob start-->
      <g transform="translate(0.9276, 0.9276)">
        <path d="M 36.1769,6.4933 L 33.3941,4.6381 C 30.6113,2.7828 26.9008,1.8552 22.2627,1.8552 C 11.1314,1.8552 1.8552,11.1314 1.8552,22.2627 L 1.8552,22.2627 L 4.6381,24.1180 L 14.8418,24.1180 C 14.8418,18.5523 19.4799,13.9142 25.0456,13.9142 C 26.9008,13.9142 27.8284,13.9142 29.6836,14.8418 C 31.5389,16.6970 33.3941,19.4799 33.3941,22.2627 L 33.3941,22.2627 L 36.1769,24.1180 L 46.3807,24.1180 C 46.3807,16.6970 42.6702,10.2038 36.1769,6.4933 Z " fill="none" stroke="none"/>
        <defs>
          <clipPath id="clip-648031326">
            <path d="M 36.1769,6.4933 L 33.3941,4.6381 C 30.6113,2.7828 26.9008,1.8552 22.2627,1.8552 C 11.1314,1.8552 1.8552,11.1314 1.8552,22.2627 L 1.8552,22.2627 L 4.6381,24.1180 L 14.8418,24.1180 C 14.8418,18.5523 19.4799,13.9142 25.0456,13.9142 C 26.9008,13.9142 27.8284,13.9142 29.6836,14.8418 C 31.5389,16.6970 33.3941,19.4799 33.3941,22.2627 L 33.3941,22.2627 L 36.1769,24.1180 L 46.3807,24.1180 C 46.3807,16.6970 42.6702,10.2038 36.1769,6.4933 Z"/>
          </clipPath>
        </defs>
        <path clip-path="url(#clip-648031326)" d="M 0.9276,0.9276 L 0.9276,24.1180 L 1.8552,24.1180 L 1.8552,0.9276 L 0.9276,0.9276 Z" stroke-width="1px" stroke="#56BCEB" fill="#56BCEB"/>
        <path clip-path="url(#clip-648031326)" d="M 1.8552,0.9276 L 1.8552,24.1180 L 2.7828,24.1180 L 2.7828,0.9276 L 1.8552,0.9276 Z" stroke-width="1px" stroke="#0178C1" fill="#0178C1"/>
        <path clip-path="url(#clip-648031326)" d="M 2.7828,0.9276 L 2.7828,24.1180 L 3.7105,24.1180 L 3.7105,0.9276 L 2.7828,0.9276 Z" stroke-width="1px" stroke="#0379C2" fill="#0379C2"/>
        <path clip-path="url(#clip-648031326)" d="M 3.7105,0.9276 L 3.7105,24.1180 L 4.6381,24.1180 L 4.6381,0.9276 L 3.7105,0.9276 Z" stroke-width="1px" stroke="#057BC3" fill="#057BC3"/>
        <path clip-path="url(#clip-648031326)" d="M 4.6381,0.9276 L 4.6381,24.1180 L 5.5657,24.1180 L 5.5657,0.9276 L 4.6381,0.9276 Z" stroke-width="1px" stroke="#077CC4" fill="#077CC4"/>
        <path clip-path="url(#clip-648031326)" d="M 5.5657,0.9276 L 5.5657,24.1180 L 6.4933,24.1180 L 6.4933,0.9276 L 5.5657,0.9276 Z" stroke-width="1px" stroke="#097EC4" fill="#097EC4"/>
        <path clip-path="url(#clip-648031326)" d="M 6.4933,0.9276 L 6.4933,24.1180 L 7.4209,24.1180 L 7.4209,0.9276 L 6.4933,0.9276 Z" stroke-width="1px" stroke="#0B80C5" fill="#0B80C5"/>
        <path clip-path="url(#clip-648031326)" d="M 7.4209,0.9276 L 7.4209,24.1180 L 8.3485,24.1180 L 8.3485,0.9276 L 7.4209,0.9276 Z" stroke-width="1px" stroke="#0C81C6" fill="#0C81C6"/>
        <path clip-path="url(#clip-648031326)" d="M 8.3485,0.9276 L 8.3485,24.1180 L 9.2761,24.1180 L 9.2761,0.9276 L 8.3485,0.9276 Z" stroke-width="1px" stroke="#0E82C7" fill="#0E82C7"/>
        <path clip-path="url(#clip-648031326)" d="M 9.2761,0.9276 L 9.2761,24.1180 L 10.2038,24.1180 L 10.2038,0.9276 L 9.2761,0.9276 Z" stroke-width="1px" stroke="#1084C8" fill="#1084C8"/>
        <path clip-path="url(#clip-648031326)" d="M 10.2038,0.9276 L 10.2038,24.1180 L 11.1314,24.1180 L 11.1314,0.9276 L 10.2038,0.9276 Z" stroke-width="1px" stroke="#1285C9" fill="#1285C9"/>
        <path clip-path="url(#clip-648031326)" d="M 11.1314,0.9276 L 11.1314,24.1180 L 12.0590,24.1180 L 12.0590,0.9276 L 11.1314,0.9276 Z" stroke-width="1px" stroke="#1386CA" fill="#1386CA"/>
        <path clip-path="url(#clip-648031326)" d="M 12.0590,0.9276 L 12.0590,24.1180 L 12.9866,24.1180 L 12.9866,0.9276 L 12.0590,0.9276 Z" stroke-width="1px" stroke="#1588CB" fill="#1588CB"/>
        <path clip-path="url(#clip-648031326)" d="M 12.9866,0.9276 L 12.9866,24.1180 L 13.9142,24.1180 L 13.9142,0.9276 L 12.9866,0.9276 Z" stroke-width="1px" stroke="#1789CB" fill="#1789CB"/>
        <path clip-path="url(#clip-648031326)" d="M 13.9142,0.9276 L 13.9142,24.1180 L 14.8418,24.1180 L 14.8418,0.9276 L 13.9142,0.9276 Z" stroke-width="1px" stroke="#198BCC" fill="#198BCC"/>
        <path clip-path="url(#clip-648031326)" d="M 14.8418,0.9276 L 14.8418,24.1180 L 15.7694,24.1180 L 15.7694,0.9276 L 14.8418,0.9276 Z" stroke-width="1px" stroke="#1B8DCD" fill="#1B8DCD"/>
        <path clip-path="url(#clip-648031326)" d="M 15.7694,0.9276 L 15.7694,24.1180 L 16.6970,24.1180 L 16.6970,0.9276 L 15.7694,0.9276 Z" stroke-width="1px" stroke="#1C8ECE" fill="#1C8ECE"/>
        <path clip-path="url(#clip-648031326)" d="M 16.6970,0.9276 L 16.6970,24.1180 L 17.6247,24.1180 L 17.6247,0.9276 L 16.6970,0.9276 Z" stroke-width="1px" stroke="#1E8FCF" fill="#1E8FCF"/>
        <path clip-path="url(#clip-648031326)" d="M 17.6247,0.9276 L 17.6247,24.1180 L 18.5523,24.1180 L 18.5523,0.9276 L 17.6247,0.9276 Z" stroke-width="1px" stroke="#1F91D0" fill="#1F91D0"/>
        <path clip-path="url(#clip-648031326)" d="M 18.5523,0.9276 L 18.5523,24.1180 L 19.4799,24.1180 L 19.4799,0.9276 L 18.5523,0.9276 Z" stroke-width="1px" stroke="#2192D1" fill="#2192D1"/>
        <path clip-path="url(#clip-648031326)" d="M 19.4799,0.9276 L 19.4799,24.1180 L 20.4075,24.1180 L 20.4075,0.9276 L 19.4799,0.9276 Z" stroke-width="1px" stroke="#2393D2" fill="#2393D2"/>
        <path clip-path="url(#clip-648031326)" d="M 20.4075,0.9276 L 20.4075,24.1180 L 21.3351,24.1180 L 21.3351,0.9276 L 20.4075,0.9276 Z" stroke-width="1px" stroke="#2595D3" fill="#2595D3"/>
        <path clip-path="url(#clip-648031326)" d="M 21.3351,0.9276 L 21.3351,24.1180 L 22.2627,24.1180 L 22.2627,0.9276 L 21.3351,0.9276 Z" stroke-width="1px" stroke="#2796D4" fill="#2796D4"/>
        <path clip-path="url(#clip-648031326)" d="M 22.2627,0.9276 L 22.2627,24.1180 L 23.1903,24.1180 L 23.1903,0.9276 L 22.2627,0.9276 Z" stroke-width="1px" stroke="#2998D5" fill="#2998D5"/>
        <path clip-path="url(#clip-648031326)" d="M 23.1903,0.9276 L 23.1903,24.1180 L 24.1180,24.1180 L 24.1180,0.9276 L 23.1903,0.9276 Z" stroke-width="1px" stroke="#2A99D6" fill="#2A99D6"/>
        <path clip-path="url(#clip-648031326)" d="M 24.1180,0.9276 L 24.1180,24.1180 L 25.0456,24.1180 L 25.0456,0.9276 L 24.1180,0.9276 Z" stroke-width="1px" stroke="#2C9BD6" fill="#2C9BD6"/>
        <path clip-path="url(#clip-648031326)" d="M 25.0456,0.9276 L 25.0456,24.1180 L 25.9732,24.1180 L 25.9732,0.9276 L 25.0456,0.9276 Z" stroke-width="1px" stroke="#2E9CD7" fill="#2E9CD7"/>
        <path clip-path="url(#clip-648031326)" d="M 25.9732,0.9276 L 25.9732,24.1180 L 26.9008,24.1180 L 26.9008,0.9276 L 25.9732,0.9276 Z" stroke-width="1px" stroke="#2F9DD8" fill="#2F9DD8"/>
        <path clip-path="url(#clip-648031326)" d="M 26.9008,0.9276 L 26.9008,24.1180 L 27.8284,24.1180 L 27.8284,0.9276 L 26.9008,0.9276 Z" stroke-width="1px" stroke="#319FD9" fill="#319FD9"/>
        <path clip-path="url(#clip-648031326)" d="M 27.8284,0.9276 L 27.8284,24.1180 L 28.7560,24.1180 L 28.7560,0.9276 L 27.8284,0.9276 Z" stroke-width="1px" stroke="#33A0DA" fill="#33A0DA"/>
        <path clip-path="url(#clip-648031326)" d="M 28.7560,0.9276 L 28.7560,24.1180 L 29.6836,24.1180 L 29.6836,0.9276 L 28.7560,0.9276 Z" stroke-width="1px" stroke="#35A1DB" fill="#35A1DB"/>
        <path clip-path="url(#clip-648031326)" d="M 29.6836,0.9276 L 29.6836,24.1180 L 30.6113,24.1180 L 30.6113,0.9276 L 29.6836,0.9276 Z" stroke-width="1px" stroke="#37A3DC" fill="#37A3DC"/>
        <path clip-path="url(#clip-648031326)" d="M 30.6113,0.9276 L 30.6113,24.1180 L 31.5389,24.1180 L 31.5389,0.9276 L 30.6113,0.9276 Z" stroke-width="1px" stroke="#39A4DD" fill="#39A4DD"/>
        <path clip-path="url(#clip-648031326)" d="M 31.5389,0.9276 L 31.5389,24.1180 L 32.4665,24.1180 L 32.4665,0.9276 L 31.5389,0.9276 Z" stroke-width="1px" stroke="#3AA5DE" fill="#3AA5DE"/>
        <path clip-path="url(#clip-648031326)" d="M 32.4665,0.9276 L 32.4665,24.1180 L 33.3941,24.1180 L 33.3941,0.9276 L 32.4665,0.9276 Z" stroke-width="1px" stroke="#3CA7DE" fill="#3CA7DE"/>
        <path clip-path="url(#clip-648031326)" d="M 33.3941,0.9276 L 33.3941,24.1180 L 34.3217,24.1180 L 34.3217,0.9276 L 33.3941,0.9276 Z" stroke-width="1px" stroke="#3EA9DF" fill="#3EA9DF"/>
        <path clip-path="url(#clip-648031326)" d="M 34.3217,0.9276 L 34.3217,24.1180 L 35.2493,24.1180 L 35.2493,0.9276 L 34.3217,0.9276 Z" stroke-width="1px" stroke="#40AAE0" fill="#40AAE0"/>
        <path clip-path="url(#clip-648031326)" d="M 35.2493,0.9276 L 35.2493,24.1180 L 36.1769,24.1180 L 36.1769,0.9276 L 35.2493,0.9276 Z" stroke-width="1px" stroke="#42ACE1" fill="#42ACE1"/>
        <path clip-path="url(#clip-648031326)" d="M 36.1769,0.9276 L 36.1769,24.1180 L 37.1046,24.1180 L 37.1046,0.9276 L 36.1769,0.9276 Z" stroke-width="1px" stroke="#44ADE2" fill="#44ADE2"/>
        <path clip-path="url(#clip-648031326)" d="M 37.1046,0.9276 L 37.1046,24.1180 L 38.0322,24.1180 L 38.0322,0.9276 L 37.1046,0.9276 Z" stroke-width="1px" stroke="#45AEE2" fill="#45AEE2"/>
        <path clip-path="url(#clip-648031326)" d="M 38.0322,0.9276 L 38.0322,24.1180 L 38.9598,24.1180 L 38.9598,0.9276 L 38.0322,0.9276 Z" stroke-width="1px" stroke="#47B0E3" fill="#47B0E3"/>
        <path clip-path="url(#clip-648031326)" d="M 38.9598,0.9276 L 38.9598,24.1180 L 39.8874,24.1180 L 39.8874,0.9276 L 38.9598,0.9276 Z" stroke-width="1px" stroke="#48B1E4" fill="#48B1E4"/>
        <path clip-path="url(#clip-648031326)" d="M 39.8874,0.9276 L 39.8874,24.1180 L 40.8150,24.1180 L 40.8150,0.9276 L 39.8874,0.9276 Z" stroke-width="1px" stroke="#4AB2E5" fill="#4AB2E5"/>
        <path clip-path="url(#clip-648031326)" d="M 40.8150,0.9276 L 40.8150,24.1180 L 41.7426,24.1180 L 41.7426,0.9276 L 40.8150,0.9276 Z" stroke-width="1px" stroke="#4CB4E6" fill="#4CB4E6"/>
        <path clip-path="url(#clip-648031326)" d="M 41.7426,0.9276 L 41.7426,24.1180 L 42.6702,24.1180 L 42.6702,0.9276 L 41.7426,0.9276 Z" stroke-width="1px" stroke="#4EB5E7" fill="#4EB5E7"/>
        <path clip-path="url(#clip-648031326)" d="M 42.6702,0.9276 L 42.6702,24.1180 L 43.5978,24.1180 L 43.5978,0.9276 L 42.6702,0.9276 Z" stroke-width="1px" stroke="#50B7E8" fill="#50B7E8"/>
        <path clip-path="url(#clip-648031326)" d="M 43.5978,0.9276 L 43.5978,24.1180 L 44.5255,24.1180 L 44.5255,0.9276 L 43.5978,0.9276 Z" stroke-width="1px" stroke="#52B9E8" fill="#52B9E8"/>
        <path clip-path="url(#clip-648031326)" d="M 44.5255,0.9276 L 44.5255,24.1180 L 45.4531,24.1180 L 45.4531,0.9276 L 44.5255,0.9276 Z" stroke-width="1px" stroke="#53BAE9" fill="#53BAE9"/>
        <path clip-path="url(#clip-648031326)" d="M 45.4531,0.9276 L 45.4531,24.1180 L 46.3807,24.1180 L 46.3807,0.9276 L 45.4531,0.9276 Z" stroke-width="1px" stroke="#55BBEA" fill="#55BBEA"/>
        <g transform="matrix(0.0625 0.0000 0.0000 0.0625 0.0000 0.0000)">
          <path d="M 578.8310,98.3271 L 533.3779,69.5710 C 479.5763,35.2493 417.4262,17.6247 354.3485,17.6247 C 167.8981,17.6247 17.6247,168.8257 17.6247,354.3485 L 17.6247,354.3485 L 63.0777,383.1045 L 230.9758,383.1045 C 230.9758,290.3431 307.0402,214.2788 399.8015,214.2788 C 422.0643,214.2788 444.3270,218.9169 465.6621,228.1930 C 501.8391,259.7319 522.2466,306.1126 522.2466,354.3485 L 522.2466,354.3485 L 567.6996,383.1045 L 736.5254,383.1045 C 736.5254,267.1528 677.1581,159.5496 578.8310,98.3271 " stroke="#0054A6" stroke-width="9.2761" stroke-linecap="round" stroke-linejoin="round" fill="none"/>
        </g>
        <g transform="matrix(1.0000 0.0000 0.0000 1.0000 0.0000 0.0000)">
          <path d="M 14.8418,6.4933 C 8.3485,10.2038 4.6381,16.6970 4.6381,24.1180 L 4.6381,24.1180 L 14.8418,24.1180 C 14.8418,20.4075 16.6970,16.6970 20.4075,14.8418 L 20.4075,14.8418 L 14.8418,6.4933 Z " fill="none" stroke="none"/>
          <defs>
            <clipPath id="clip-1411154259">
              <path d="M 14.8418,6.4933 C 8.3485,10.2038 4.6381,16.6970 4.6381,24.1180 L 4.6381,24.1180 L 14.8418,24.1180 C 14.8418,20.4075 16.6970,16.6970 20.4075,14.8418 L 20.4075,14.8418 L 14.8418,6.4933 Z"/>
            </clipPath>
          </defs>
          <path clip-path="url(#clip-1411154259)" d="M 3.7105,5.5657 L 3.7105,24.1180 L 4.6381,24.1180 L 4.6381,5.5657 L 3.7105,5.5657 Z" stroke-width="1px" stroke="#B4B4B4" fill="#B4B4B4"/>
          <path clip-path="url(#clip-1411154259)" d="M 4.6381,5.5657 L 4.6381,24.1180 L 5.5657,24.1180 L 5.5657,5.5657 L 4.6381,5.5657 Z" stroke-width="1px" stroke="#E4E4E4" fill="#E4E4E4"/>
          <path clip-path="url(#clip-1411154259)" d="M 5.5657,5.5657 L 5.5657,24.1180 L 6.4933,24.1180 L 6.4933,5.5657 L 5.5657,5.5657 Z" stroke-width="1px" stroke="#E1E1E1" fill="#E1E1E1"/>
          <path clip-path="url(#clip-1411154259)" d="M 6.4933,5.5657 L 6.4933,24.1180 L 7.4209,24.1180 L 7.4209,5.5657 L 6.4933,5.5657 Z" stroke-width="1px" stroke="#DEDEDE" fill="#DEDEDE"/>
          <path clip-path="url(#clip-1411154259)" d="M 7.4209,5.5657 L 7.4209,24.1180 L 8.3485,24.1180 L 8.3485,5.5657 L 7.4209,5.5657 Z" stroke-width="1px" stroke="#DADADA" fill="#DADADA"/>
          <path clip-path="url(#clip-1411154259)" d="M 8.3485,5.5657 L 8.3485,24.1180 L 9.2761,24.1180 L 9.2761,5.5657 L 8.3485,5.5657 Z" stroke-width="1px" stroke="#D8D8D8" fill="#D8D8D8"/>
          <path clip-path="url(#clip-1411154259)" d="M 9.2761,5.5657 L 9.2761,24.1180 L 10.2038,24.1180 L 10.2038,5.5657 L 9.2761,5.5657 Z" stroke-width="1px" stroke="#D5D5D5" fill="#D5D5D5"/>
          <path clip-path="url(#clip-1411154259)" d="M 10.2038,5.5657 L 10.2038,24.1180 L 11.1314,24.1180 L 11.1314,5.5657 L 10.2038,5.5657 Z" stroke-width="1px" stroke="#D2D2D2" fill="#D2D2D2"/>
          <path clip-path="url(#clip-1411154259)" d="M 11.1314,5.5657 L 11.1314,24.1180 L 12.0590,24.1180 L 12.0590,5.5657 L 11.1314,5.5657 Z" stroke-width="1px" stroke="#CFCFCF" fill="#CFCFCF"/>
          <path clip-path="url(#clip-1411154259)" d="M 12.0590,5.5657 L 12.0590,24.1180 L 12.9866,24.1180 L 12.9866,5.5657 L 12.0590,5.5657 Z" stroke-width="1px" stroke="#CCCCCC" fill="#CCCCCC"/>
          <path clip-path="url(#clip-1411154259)" d="M 12.9866,5.5657 L 12.9866,24.1180 L 13.9142,24.1180 L 13.9142,5.5657 L 12.9866,5.5657 Z" stroke-width="1px" stroke="#C8C8C8" fill="#C8C8C8"/>
          <path clip-path="url(#clip-1411154259)" d="M 13.9142,5.5657 L 13.9142,24.1180 L 14.8418,24.1180 L 14.8418,5.5657 L 13.9142,5.5657 Z" stroke-width="1px" stroke="#C6C6C6" fill="#C6C6C6"/>
          <path clip-path="url(#clip-1411154259)" d="M 14.8418,5.5657 L 14.8418,24.1180 L 15.7694,24.1180 L 15.7694,5.5657 L 14.8418,5.5657 Z" stroke-width="1px" stroke="#C3C3C3" fill="#C3C3C3"/>
          <path clip-path="url(#clip-1411154259)" d="M 15.7694,5.5657 L 15.7694,24.1180 L 16.6970,24.1180 L 16.6970,5.5657 L 15.7694,5.5657 Z" stroke-width="1px" stroke="#C0C0C0" fill="#C0C0C0"/>
          <path clip-path="url(#clip-1411154259)" d="M 16.6970,5.5657 L 16.6970,24.1180 L 17.6247,24.1180 L 17.6247,5.5657 L 16.6970,5.5657 Z" stroke-width="1px" stroke="#BDBDBD" fill="#BDBDBD"/>
          <path clip-path="url(#clip-1411154259)" d="M 17.6247,5.5657 L 17.6247,24.1180 L 18.5523,24.1180 L 18.5523,5.5657 L 17.6247,5.5657 Z" stroke-width="1px" stroke="#B9B9B9" fill="#B9B9B9"/>
          <path clip-path="url(#clip-1411154259)" d="M 18.5523,5.5657 L 18.5523,24.1180 L 19.4799,24.1180 L 19.4799,5.5657 L 18.5523,5.5657 Z" stroke-width="1px" stroke="#B6B6B6" fill="#B6B6B6"/>
        </g>
        <g transform="matrix(0.0625 0.0000 0.0000 0.0625 0.0000 0.0000)">
          <path d="M 230.9758,90.9062 C 127.0831,151.2010 63.0777,262.5147 63.0777,383.1045 L 63.0777,383.1045 L 230.9758,383.1045 C 230.9758,322.8096 263.4423,267.1528 315.3887,237.4691 L 315.3887,237.4691 L 230.9758,90.9062 " stroke="#0054A6" stroke-width="9.2761" stroke-linecap="round" stroke-linejoin="round" fill="none"/>
        </g>
        <g transform="matrix(1.0000 0.0000 0.0000 1.0000 0.0000 0.0000)">
          <path d="M 36.1769,6.4933 L 30.6113,14.8418 C 34.3217,16.6970 36.1769,20.4075 36.1769,24.1180 L 36.1769,24.1180 L 46.3807,24.1180 C 46.3807,16.6970 42.6702,10.2038 36.1769,6.4933 Z " fill="none" stroke="none"/>
          <defs>
            <clipPath id="clip-1737518944">
              <path d="M 36.1769,6.4933 L 30.6113,14.8418 C 34.3217,16.6970 36.1769,20.4075 36.1769,24.1180 L 36.1769,24.1180 L 46.3807,24.1180 C 46.3807,16.6970 42.6702,10.2038 36.1769,6.4933 Z"/>
            </clipPath>
          </defs>
          <path clip-path="url(#clip-1737518944)" d="M 29.6836,5.5657 L 29.6836,24.1180 L 30.6113,24.1180 L 30.6113,5.5657 L 29.6836,5.5657 Z" stroke-width="1px" stroke="#B5B5B5" fill="#B5B5B5"/>
          <path clip-path="url(#clip-1737518944)" d="M 30.6113,5.5657 L 30.6113,24.1180 L 31.5389,24.1180 L 31.5389,5.5657 L 30.6113,5.5657 Z" stroke-width="1px" stroke="#E5E5E5" fill="#E5E5E5"/>
          <path clip-path="url(#clip-1737518944)" d="M 31.5389,5.5657 L 31.5389,24.1180 L 32.4665,24.1180 L 32.4665,5.5657 L 31.5389,5.5657 Z" stroke-width="1px" stroke="#E2E2E2" fill="#E2E2E2"/>
          <path clip-path="url(#clip-1737518944)" d="M 32.4665,5.5657 L 32.4665,24.1180 L 33.3941,24.1180 L 33.3941,5.5657 L 32.4665,5.5657 Z" stroke-width="1px" stroke="#DFDFDF" fill="#DFDFDF"/>
          <path clip-path="url(#clip-1737518944)" d="M 33.3941,5.5657 L 33.3941,24.1180 L 34.3217,24.1180 L 34.3217,5.5657 L 33.3941,5.5657 Z" stroke-width="1px" stroke="#DBDBDB" fill="#DBDBDB"/>
          <path clip-path="url(#clip-1737518944)" d="M 34.3217,5.5657 L 34.3217,24.1180 L 35.2493,24.1180 L 35.2493,5.5657 L 34.3217,5.5657 Z" stroke-width="1px" stroke="#D9D9D9" fill="#D9D9D9"/>
          <path clip-path="url(#clip-1737518944)" d="M 35.2493,5.5657 L 35.2493,24.1180 L 36.1769,24.1180 L 36.1769,5.5657 L 35.2493,5.5657 Z" stroke-width="1px" stroke="#D6D6D6" fill="#D6D6D6"/>
          <path clip-path="url(#clip-1737518944)" d="M 36.1769,5.5657 L 36.1769,24.1180 L 37.1046,24.1180 L 37.1046,5.5657 L 36.1769,5.5657 Z" stroke-width="1px" stroke="#D3D3D3" fill="#D3D3D3"/>
          <path clip-path="url(#clip-1737518944)" d="M 37.1046,5.5657 L 37.1046,24.1180 L 38.0322,24.1180 L 38.0322,5.5657 L 37.1046,5.5657 Z" stroke-width="1px" stroke="#D0D0D0" fill="#D0D0D0"/>
          <path clip-path="url(#clip-1737518944)" d="M 38.0322,5.5657 L 38.0322,24.1180 L 38.9598,24.1180 L 38.9598,5.5657 L 38.0322,5.5657 Z" stroke-width="1px" stroke="#CDCDCD" fill="#CDCDCD"/>
          <path clip-path="url(#clip-1737518944)" d="M 38.9598,5.5657 L 38.9598,24.1180 L 39.8874,24.1180 L 39.8874,5.5657 L 38.9598,5.5657 Z" stroke-width="1px" stroke="#CACACA" fill="#CACACA"/>
          <path clip-path="url(#clip-1737518944)" d="M 39.8874,5.5657 L 39.8874,24.1180 L 40.8150,24.1180 L 40.8150,5.5657 L 39.8874,5.5657 Z" stroke-width="1px" stroke="#C7C7C7" fill="#C7C7C7"/>
          <path clip-path="url(#clip-1737518944)" d="M 40.8150,5.5657 L 40.8150,24.1180 L 41.7426,24.1180 L 41.7426,5.5657 L 40.8150,5.5657 Z" stroke-width="1px" stroke="#C4C4C4" fill="#C4C4C4"/>
          <path clip-path="url(#clip-1737518944)" d="M 41.7426,5.5657 L 41.7426,24.1180 L 42.6702,24.1180 L 42.6702,5.5657 L 41.7426,5.5657 Z" stroke-width="1px" stroke="#C1C1C1" fill="#C1C1C1"/>
          <path clip-path="url(#clip-1737518944)" d="M 42.6702,5.5657 L 42.6702,24.1180 L 43.5978,24.1180 L 43.5978,5.5657 L 42.6702,5.5657 Z" stroke-width="1px" stroke="#BEBEBE" fill="#BEBEBE"/>
          <path clip-path="url(#clip-1737518944)" d="M 43.5978,5.5657 L 43.5978,24.1180 L 44.5255,24.1180 L 44.5255,5.5657 L 43.5978,5.5657 Z" stroke-width="1px" stroke="#BBBBBB" fill="#BBBBBB"/>
          <path clip-path="url(#clip-1737518944)" d="M 44.5255,5.5657 L 44.5255,24.1180 L 45.4531,24.1180 L 45.4531,5.5657 L 44.5255,5.5657 Z" stroke-width="1px" stroke="#B8B8B8" fill="#B8B8B8"/>
        </g>
        <g transform="matrix(0.0625 0.0000 0.0000 0.0625 0.0000 0.0000)">
          <path d="M 567.6996,90.9062 L 484.2144,237.4691 C 536.1608,267.1528 567.6996,322.8096 567.6996,383.1045 L 567.6996,383.1045 L 736.5254,383.1045 C 736.5254,262.5147 672.5200,151.2010 567.6996,90.9062 " stroke="#0054A6" stroke-width="9.2761" stroke-linecap="round" stroke-linejoin="round" fill="none"/>
        </g>
        <g transform="matrix(1.0000 0.0000 0.0000 1.0000 0.0000 0.0000)">
          <path d="M 36.1769,6.4933 C 32.4665,4.6381 28.7560,3.7105 25.0456,3.7105 C 21.3351,3.7105 17.6247,4.6381 14.8418,6.4933 L 14.8418,6.4933 L 20.4075,14.8418 C 23.1903,12.9866 27.8284,12.9866 30.6113,14.8418 L 30.6113,14.8418 L 36.1769,6.4933 Z " fill="none" stroke="none"/>
          <defs>
            <clipPath id="clip-282828202">
              <path d="M 36.1769,6.4933 C 32.4665,4.6381 28.7560,3.7105 25.0456,3.7105 C 21.3351,3.7105 17.6247,4.6381 14.8418,6.4933 L 14.8418,6.4933 L 20.4075,14.8418 C 23.1903,12.9866 27.8284,12.9866 30.6113,14.8418 L 30.6113,14.8418 L 36.1769,6.4933 Z"/>
            </clipPath>
          </defs>
          <path clip-path="url(#clip-282828202)" d="M 13.9142,2.7828 L 13.9142,14.8418 L 14.8418,14.8418 L 14.8418,2.7828 L 13.9142,2.7828 Z" stroke-width="1px" stroke="#B4B4B4" fill="#B4B4B4"/>
          <path clip-path="url(#clip-282828202)" d="M 14.8418,2.7828 L 14.8418,14.8418 L 15.7694,14.8418 L 15.7694,2.7828 L 14.8418,2.7828 Z" stroke-width="1px" stroke="#E5E5E5" fill="#E5E5E5"/>
          <path clip-path="url(#clip-282828202)" d="M 15.7694,2.7828 L 15.7694,14.8418 L 16.6970,14.8418 L 16.6970,2.7828 L 15.7694,2.7828 Z" stroke-width="1px" stroke="#E3E3E3" fill="#E3E3E3"/>
          <path clip-path="url(#clip-282828202)" d="M 16.6970,2.7828 L 16.6970,14.8418 L 17.6247,14.8418 L 17.6247,2.7828 L 16.6970,2.7828 Z" stroke-width="1px" stroke="#E1E1E1" fill="#E1E1E1"/>
          <path clip-path="url(#clip-282828202)" d="M 17.6247,2.7828 L 17.6247,14.8418 L 18.5523,14.8418 L 18.5523,2.7828 L 17.6247,2.7828 Z" stroke-width="1px" stroke="#DEDEDE" fill="#DEDEDE"/>
          <path clip-path="url(#clip-282828202)" d="M 18.5523,2.7828 L 18.5523,14.8418 L 19.4799,14.8418 L 19.4799,2.7828 L 18.5523,2.7828 Z" stroke-width="1px" stroke="#DCDCDC" fill="#DCDCDC"/>
          <path clip-path="url(#clip-282828202)" d="M 19.4799,2.7828 L 19.4799,14.8418 L 20.4075,14.8418 L 20.4075,2.7828 L 19.4799,2.7828 Z" stroke-width="1px" stroke="#DADADA" fill="#DADADA"/>
          <path clip-path="url(#clip-282828202)" d="M 20.4075,2.7828 L 20.4075,14.8418 L 21.3351,14.8418 L 21.3351,2.7828 L 20.4075,2.7828 Z" stroke-width="1px" stroke="#D7D7D7" fill="#D7D7D7"/>
          <path clip-path="url(#clip-282828202)" d="M 21.3351,2.7828 L 21.3351,14.8418 L 22.2627,14.8418 L 22.2627,2.7828 L 21.3351,2.7828 Z" stroke-width="1px" stroke="#D5D5D5" fill="#D5D5D5"/>
          <path clip-path="url(#clip-282828202)" d="M 22.2627,2.7828 L 22.2627,14.8418 L 23.1903,14.8418 L 23.1903,2.7828 L 22.2627,2.7828 Z" stroke-width="1px" stroke="#D3D3D3" fill="#D3D3D3"/>
          <path clip-path="url(#clip-282828202)" d="M 23.1903,2.7828 L 23.1903,14.8418 L 24.1180,14.8418 L 24.1180,2.7828 L 23.1903,2.7828 Z" stroke-width="1px" stroke="#D1D1D1" fill="#D1D1D1"/>
          <path clip-path="url(#clip-282828202)" d="M 24.1180,2.7828 L 24.1180,14.8418 L 25.0456,14.8418 L 25.0456,2.7828 L 24.1180,2.7828 Z" stroke-width="1px" stroke="#CFCFCF" fill="#CFCFCF"/>
          <path clip-path="url(#clip-282828202)" d="M 25.0456,2.7828 L 25.0456,14.8418 L 25.9732,14.8418 L 25.9732,2.7828 L 25.0456,2.7828 Z" stroke-width="1px" stroke="#CDCDCD" fill="#CDCDCD"/>
          <path clip-path="url(#clip-282828202)" d="M 25.9732,2.7828 L 25.9732,14.8418 L 26.9008,14.8418 L 26.9008,2.7828 L 25.9732,2.7828 Z" stroke-width="1px" stroke="#CACACA" fill="#CACACA"/>
          <path clip-path="url(#clip-282828202)" d="M 26.9008,2.7828 L 26.9008,14.8418 L 27.8284,14.8418 L 27.8284,2.7828 L 26.9008,2.7828 Z" stroke-width="1px" stroke="#C8C8C8" fill="#C8C8C8"/>
          <path clip-path="url(#clip-282828202)" d="M 27.8284,2.7828 L 27.8284,14.8418 L 28.7560,14.8418 L 28.7560,2.7828 L 27.8284,2.7828 Z" stroke-width="1px" stroke="#C5C5C5" fill="#C5C5C5"/>
          <path clip-path="url(#clip-282828202)" d="M 28.7560,2.7828 L 28.7560,14.8418 L 29.6836,14.8418 L 29.6836,2.7828 L 28.7560,2.7828 Z" stroke-width="1px" stroke="#C3C3C3" fill="#C3C3C3"/>
          <path clip-path="url(#clip-282828202)" d="M 29.6836,2.7828 L 29.6836,14.8418 L 30.6113,14.8418 L 30.6113,2.7828 L 29.6836,2.7828 Z" stroke-width="1px" stroke="#C1C1C1" fill="#C1C1C1"/>
          <path clip-path="url(#clip-282828202)" d="M 30.6113,2.7828 L 30.6113,14.8418 L 31.5389,14.8418 L 31.5389,2.7828 L 30.6113,2.7828 Z" stroke-width="1px" stroke="#BFBFBF" fill="#BFBFBF"/>
          <path clip-path="url(#clip-282828202)" d="M 31.5389,2.7828 L 31.5389,14.8418 L 32.4665,14.8418 L 32.4665,2.7828 L 31.5389,2.7828 Z" stroke-width="1px" stroke="#BDBDBD" fill="#BDBDBD"/>
          <path clip-path="url(#clip-282828202)" d="M 32.4665,2.7828 L 32.4665,14.8418 L 33.3941,14.8418 L 33.3941,2.7828 L 32.4665,2.7828 Z" stroke-width="1px" stroke="#BABABA" fill="#BABABA"/>
          <path clip-path="url(#clip-282828202)" d="M 33.3941,2.7828 L 33.3941,14.8418 L 34.3217,14.8418 L 34.3217,2.7828 L 33.3941,2.7828 Z" stroke-width="1px" stroke="#B8B8B8" fill="#B8B8B8"/>
          <path clip-path="url(#clip-282828202)" d="M 34.3217,2.7828 L 34.3217,14.8418 L 35.2493,14.8418 L 35.2493,2.7828 L 34.3217,2.7828 Z" stroke-width="1px" stroke="#B6B6B6" fill="#B6B6B6"/>
        </g>
        <g transform="matrix(0.0625 0.0000 0.0000 0.0625 0.0000 0.0000)">
          <path d="M 567.6996,90.9062 C 516.6809,62.1501 459.1688,46.3807 399.8015,46.3807 C 340.4343,46.3807 282.9222,62.1501 230.9758,90.9062 L 230.9758,90.9062 L 315.3887,237.4691 C 367.3351,206.8579 432.2680,206.8579 484.2144,237.4691 L 484.2144,237.4691 L 567.6996,90.9062 " stroke="#0054A6" stroke-width="9.2761" stroke-linecap="round" stroke-linejoin="round" fill="none"/>
        </g>
        <g transform="matrix(1.0000 0.0000 0.0000 1.0000 0.0000 0.0000)">
</g>
        <g transform="matrix(0.0625 0.0000 0.0000 0.0625 0.0000 0.0000)">
          <path d="M 544.5093,98.3271 C 499.9838,75.1367 449.8927,63.0777 399.8015,63.0777 C 349.7104,63.0777 299.6193,75.1367 255.0938,98.3271 L 255.0938,98.3271 L 321.8820,215.2064 C 371.0455,192.0161 428.5576,192.0161 477.7211,215.2064 L 477.7211,215.2064 L 544.5093,98.3271 Z " fill="#FBB040" stroke="none"/>
        </g>
        <g transform="matrix(1.0000 0.0000 0.0000 1.0000 0.0000 0.0000)">
</g>
        <g transform="matrix(0.0625 0.0000 0.0000 0.0625 0.0000 0.0000)">
          <path d="M 544.5093,98.3271 C 499.9838,75.1367 449.8927,63.0777 399.8015,63.0777 C 349.7104,63.0777 299.6193,75.1367 255.0938,98.3271 L 255.0938,98.3271 L 321.8820,215.2064 C 371.0455,192.0161 428.5576,192.0161 477.7211,215.2064 L 477.7211,215.2064 L 544.5093,98.3271 Z " stroke="#0054A6" stroke-width="5.5657" stroke-linecap="round" stroke-linejoin="round" fill="none"/>
        </g>
        <g transform="matrix(1.0000 0.0000 0.0000 1.0000 0.0000 0.0000)">
</g>
        <g transform="matrix(0.0625 0.0000 0.0000 0.0625 0.0000 0.0000)">
          <path d="M 574.1929,115.0241 C 659.5334,170.6809 714.2626,264.3699 718.9007,366.4074 L 718.9007,366.4074 L 584.3967,366.4074 C 578.8310,312.6058 551.0026,263.4423 506.4771,231.9034 L 506.4771,231.9034 L 574.1929,115.0241 Z " fill="#74B74A" stroke="none"/>
        </g>
        <g transform="matrix(1.0000 0.0000 0.0000 1.0000 0.0000 0.0000)">
</g>
        <g transform="matrix(0.0625 0.0000 0.0000 0.0625 0.0000 0.0000)">
          <path d="M 574.1929,115.0241 C 659.5334,170.6809 714.2626,264.3699 718.9007,366.4074 L 718.9007,366.4074 L 584.3967,366.4074 C 578.8310,312.6058 551.0026,263.4423 506.4771,231.9034 L 506.4771,231.9034 L 574.1929,115.0241 Z " stroke="#0054A6" stroke-width="5.5657" stroke-linecap="round" stroke-linejoin="round" fill="none"/>
        </g>
        <g transform="matrix(1.0000 0.0000 0.0000 1.0000 0.0000 0.0000)">
</g>
        <g transform="matrix(0.0625 0.0000 0.0000 0.0625 0.0000 0.0000)">
          <path d="M 225.4102,115.0241 L 293.1260,231.9034 C 248.6005,263.4423 219.8445,312.6058 215.2064,366.4074 L 215.2064,366.4074 L 80.7024,366.4074 C 85.3405,264.3699 140.0697,170.6809 225.4102,115.0241 Z " fill="#E44145" stroke="none"/>
        </g>
        <g transform="matrix(1.0000 0.0000 0.0000 1.0000 0.0000 0.0000)">
</g>
        <g transform="matrix(0.0625 0.0000 0.0000 0.0625 0.0000 0.0000)">
          <path d="M 225.4102,115.0241 L 293.1260,231.9034 C 248.6005,263.4423 219.8445,312.6058 215.2064,366.4074 L 215.2064,366.4074 L 80.7024,366.4074 C 85.3405,264.3699 140.0697,170.6809 225.4102,115.0241 Z " stroke="#0054A6" stroke-width="5.5657" stroke-linecap="round" stroke-linejoin="round" fill="none"/>
        </g>
        <g transform="matrix(1.0000 0.0000 0.0000 1.0000 0.0000 0.0000)">
</g>
      </g>
      <!--emf-blob end-->
    </g>
  </g>
</svg>
