<svg xmlns="http://www.w3.org/2000/svg" xmlns:xlink="http://www.w3.org/1999/xlink" version="1.1" width="48.4157000000" height="28.3922000000">
  <title><![CDATA[Guage Med]]></title>
  <g transform=" scale(1.000000) ">
    <text xmlns="http://www.w3.org/2000/svg" x="12.4503" y="28.3922">
      <tspan font-family="Arial" font-size="4.5000" fill="#000000" fill-opacity="1.0000" stroke-opacity="1.0000">
Guage Med</tspan>
    </text>
    <!--converted by libvisio2svg-->
    <g transform=" translate(-1.163900,-1.165400) ">
      <!--emf-blob start-->
      <g transform="translate(0.9594, 0.9594)">
        <path d="M 37.4147,6.7155 L 34.5366,4.7968 C 31.6586,2.8780 27.8211,1.9187 23.0244,1.9187 C 11.5122,1.9187 1.9187,11.5122 1.9187,23.0244 L 1.9187,23.0244 L 4.7968,24.9431 L 15.3496,24.9431 C 15.3496,19.1870 20.1464,14.3902 25.9025,14.3902 C 27.8211,14.3902 28.7805,14.3902 30.6992,15.3496 C 32.6179,17.2683 34.5366,20.1464 34.5366,23.0244 L 34.5366,23.0244 L 37.4147,24.9431 L 47.9675,24.9431 C 47.9675,17.2683 44.1301,10.5529 37.4147,6.7155 Z " fill="none" stroke="none"/>
        <defs>
          <clipPath id="clip-882160379">
            <path d="M 37.4147,6.7155 L 34.5366,4.7968 C 31.6586,2.8780 27.8211,1.9187 23.0244,1.9187 C 11.5122,1.9187 1.9187,11.5122 1.9187,23.0244 L 1.9187,23.0244 L 4.7968,24.9431 L 15.3496,24.9431 C 15.3496,19.1870 20.1464,14.3902 25.9025,14.3902 C 27.8211,14.3902 28.7805,14.3902 30.6992,15.3496 C 32.6179,17.2683 34.5366,20.1464 34.5366,23.0244 L 34.5366,23.0244 L 37.4147,24.9431 L 47.9675,24.9431 C 47.9675,17.2683 44.1301,10.5529 37.4147,6.7155 Z"/>
          </clipPath>
        </defs>
        <path clip-path="url(#clip-882160379)" d="M 0.9594,0.9594 L 0.9594,24.9431 L 1.9187,24.9431 L 1.9187,0.9594 L 0.9594,0.9594 Z" stroke-width="1px" stroke="#56BCEB" fill="#56BCEB"/>
        <path clip-path="url(#clip-882160379)" d="M 1.9187,0.9594 L 1.9187,24.9431 L 2.8780,24.9431 L 2.8780,0.9594 L 1.9187,0.9594 Z" stroke-width="1px" stroke="#0178C1" fill="#0178C1"/>
        <path clip-path="url(#clip-882160379)" d="M 2.8780,0.9594 L 2.8780,24.9431 L 3.8374,24.9431 L 3.8374,0.9594 L 2.8780,0.9594 Z" stroke-width="1px" stroke="#0379C2" fill="#0379C2"/>
        <path clip-path="url(#clip-882160379)" d="M 3.8374,0.9594 L 3.8374,24.9431 L 4.7968,24.9431 L 4.7968,0.9594 L 3.8374,0.9594 Z" stroke-width="1px" stroke="#057BC3" fill="#057BC3"/>
        <path clip-path="url(#clip-882160379)" d="M 4.7968,0.9594 L 4.7968,24.9431 L 5.7561,24.9431 L 5.7561,0.9594 L 4.7968,0.9594 Z" stroke-width="1px" stroke="#077CC4" fill="#077CC4"/>
        <path clip-path="url(#clip-882160379)" d="M 5.7561,0.9594 L 5.7561,24.9431 L 6.7155,24.9431 L 6.7155,0.9594 L 5.7561,0.9594 Z" stroke-width="1px" stroke="#097EC4" fill="#097EC4"/>
        <path clip-path="url(#clip-882160379)" d="M 6.7155,0.9594 L 6.7155,24.9431 L 7.6748,24.9431 L 7.6748,0.9594 L 6.7155,0.9594 Z" stroke-width="1px" stroke="#0B80C5" fill="#0B80C5"/>
        <path clip-path="url(#clip-882160379)" d="M 7.6748,0.9594 L 7.6748,24.9431 L 8.6341,24.9431 L 8.6341,0.9594 L 7.6748,0.9594 Z" stroke-width="1px" stroke="#0C81C6" fill="#0C81C6"/>
        <path clip-path="url(#clip-882160379)" d="M 8.6341,0.9594 L 8.6341,24.9431 L 9.5935,24.9431 L 9.5935,0.9594 L 8.6341,0.9594 Z" stroke-width="1px" stroke="#0E82C7" fill="#0E82C7"/>
        <path clip-path="url(#clip-882160379)" d="M 9.5935,0.9594 L 9.5935,24.9431 L 10.5529,24.9431 L 10.5529,0.9594 L 9.5935,0.9594 Z" stroke-width="1px" stroke="#1084C8" fill="#1084C8"/>
        <path clip-path="url(#clip-882160379)" d="M 10.5529,0.9594 L 10.5529,24.9431 L 11.5122,24.9431 L 11.5122,0.9594 L 10.5529,0.9594 Z" stroke-width="1px" stroke="#1285C9" fill="#1285C9"/>
        <path clip-path="url(#clip-882160379)" d="M 11.5122,0.9594 L 11.5122,24.9431 L 12.4716,24.9431 L 12.4716,0.9594 L 11.5122,0.9594 Z" stroke-width="1px" stroke="#1386CA" fill="#1386CA"/>
        <path clip-path="url(#clip-882160379)" d="M 12.4716,0.9594 L 12.4716,24.9431 L 13.4309,24.9431 L 13.4309,0.9594 L 12.4716,0.9594 Z" stroke-width="1px" stroke="#1588CB" fill="#1588CB"/>
        <path clip-path="url(#clip-882160379)" d="M 13.4309,0.9594 L 13.4309,24.9431 L 14.3902,24.9431 L 14.3902,0.9594 L 13.4309,0.9594 Z" stroke-width="1px" stroke="#1789CB" fill="#1789CB"/>
        <path clip-path="url(#clip-882160379)" d="M 14.3902,0.9594 L 14.3902,24.9431 L 15.3496,24.9431 L 15.3496,0.9594 L 14.3902,0.9594 Z" stroke-width="1px" stroke="#198BCC" fill="#198BCC"/>
        <path clip-path="url(#clip-882160379)" d="M 15.3496,0.9594 L 15.3496,24.9431 L 16.3089,24.9431 L 16.3089,0.9594 L 15.3496,0.9594 Z" stroke-width="1px" stroke="#1B8DCD" fill="#1B8DCD"/>
        <path clip-path="url(#clip-882160379)" d="M 16.3089,0.9594 L 16.3089,24.9431 L 17.2683,24.9431 L 17.2683,0.9594 L 16.3089,0.9594 Z" stroke-width="1px" stroke="#1C8ECE" fill="#1C8ECE"/>
        <path clip-path="url(#clip-882160379)" d="M 17.2683,0.9594 L 17.2683,24.9431 L 18.2277,24.9431 L 18.2277,0.9594 L 17.2683,0.9594 Z" stroke-width="1px" stroke="#1E8FCF" fill="#1E8FCF"/>
        <path clip-path="url(#clip-882160379)" d="M 18.2277,0.9594 L 18.2277,24.9431 L 19.1870,24.9431 L 19.1870,0.9594 L 18.2277,0.9594 Z" stroke-width="1px" stroke="#1F91D0" fill="#1F91D0"/>
        <path clip-path="url(#clip-882160379)" d="M 19.1870,0.9594 L 19.1870,24.9431 L 20.1464,24.9431 L 20.1464,0.9594 L 19.1870,0.9594 Z" stroke-width="1px" stroke="#2192D1" fill="#2192D1"/>
        <path clip-path="url(#clip-882160379)" d="M 20.1464,0.9594 L 20.1464,24.9431 L 21.1057,24.9431 L 21.1057,0.9594 L 20.1464,0.9594 Z" stroke-width="1px" stroke="#2393D2" fill="#2393D2"/>
        <path clip-path="url(#clip-882160379)" d="M 21.1057,0.9594 L 21.1057,24.9431 L 22.0650,24.9431 L 22.0650,0.9594 L 21.1057,0.9594 Z" stroke-width="1px" stroke="#2595D3" fill="#2595D3"/>
        <path clip-path="url(#clip-882160379)" d="M 22.0650,0.9594 L 22.0650,24.9431 L 23.0244,24.9431 L 23.0244,0.9594 L 22.0650,0.9594 Z" stroke-width="1px" stroke="#2796D4" fill="#2796D4"/>
        <path clip-path="url(#clip-882160379)" d="M 23.0244,0.9594 L 23.0244,24.9431 L 23.9838,24.9431 L 23.9838,0.9594 L 23.0244,0.9594 Z" stroke-width="1px" stroke="#2998D5" fill="#2998D5"/>
        <path clip-path="url(#clip-882160379)" d="M 23.9838,0.9594 L 23.9838,24.9431 L 24.9431,24.9431 L 24.9431,0.9594 L 23.9838,0.9594 Z" stroke-width="1px" stroke="#2A99D6" fill="#2A99D6"/>
        <path clip-path="url(#clip-882160379)" d="M 24.9431,0.9594 L 24.9431,24.9431 L 25.9025,24.9431 L 25.9025,0.9594 L 24.9431,0.9594 Z" stroke-width="1px" stroke="#2C9BD6" fill="#2C9BD6"/>
        <path clip-path="url(#clip-882160379)" d="M 25.9025,0.9594 L 25.9025,24.9431 L 26.8618,24.9431 L 26.8618,0.9594 L 25.9025,0.9594 Z" stroke-width="1px" stroke="#2E9CD7" fill="#2E9CD7"/>
        <path clip-path="url(#clip-882160379)" d="M 26.8618,0.9594 L 26.8618,24.9431 L 27.8211,24.9431 L 27.8211,0.9594 L 26.8618,0.9594 Z" stroke-width="1px" stroke="#2F9DD8" fill="#2F9DD8"/>
        <path clip-path="url(#clip-882160379)" d="M 27.8211,0.9594 L 27.8211,24.9431 L 28.7805,24.9431 L 28.7805,0.9594 L 27.8211,0.9594 Z" stroke-width="1px" stroke="#319FD9" fill="#319FD9"/>
        <path clip-path="url(#clip-882160379)" d="M 28.7805,0.9594 L 28.7805,24.9431 L 29.7399,24.9431 L 29.7399,0.9594 L 28.7805,0.9594 Z" stroke-width="1px" stroke="#33A0DA" fill="#33A0DA"/>
        <path clip-path="url(#clip-882160379)" d="M 29.7399,0.9594 L 29.7399,24.9431 L 30.6992,24.9431 L 30.6992,0.9594 L 29.7399,0.9594 Z" stroke-width="1px" stroke="#35A1DB" fill="#35A1DB"/>
        <path clip-path="url(#clip-882160379)" d="M 30.6992,0.9594 L 30.6992,24.9431 L 31.6586,24.9431 L 31.6586,0.9594 L 30.6992,0.9594 Z" stroke-width="1px" stroke="#37A3DC" fill="#37A3DC"/>
        <path clip-path="url(#clip-882160379)" d="M 31.6586,0.9594 L 31.6586,24.9431 L 32.6179,24.9431 L 32.6179,0.9594 L 31.6586,0.9594 Z" stroke-width="1px" stroke="#39A4DD" fill="#39A4DD"/>
        <path clip-path="url(#clip-882160379)" d="M 32.6179,0.9594 L 32.6179,24.9431 L 33.5772,24.9431 L 33.5772,0.9594 L 32.6179,0.9594 Z" stroke-width="1px" stroke="#3AA5DE" fill="#3AA5DE"/>
        <path clip-path="url(#clip-882160379)" d="M 33.5772,0.9594 L 33.5772,24.9431 L 34.5366,24.9431 L 34.5366,0.9594 L 33.5772,0.9594 Z" stroke-width="1px" stroke="#3CA7DE" fill="#3CA7DE"/>
        <path clip-path="url(#clip-882160379)" d="M 34.5366,0.9594 L 34.5366,24.9431 L 35.4960,24.9431 L 35.4960,0.9594 L 34.5366,0.9594 Z" stroke-width="1px" stroke="#3EA9DF" fill="#3EA9DF"/>
        <path clip-path="url(#clip-882160379)" d="M 35.4960,0.9594 L 35.4960,24.9431 L 36.4553,24.9431 L 36.4553,0.9594 L 35.4960,0.9594 Z" stroke-width="1px" stroke="#40AAE0" fill="#40AAE0"/>
        <path clip-path="url(#clip-882160379)" d="M 36.4553,0.9594 L 36.4553,24.9431 L 37.4147,24.9431 L 37.4147,0.9594 L 36.4553,0.9594 Z" stroke-width="1px" stroke="#42ACE1" fill="#42ACE1"/>
        <path clip-path="url(#clip-882160379)" d="M 37.4147,0.9594 L 37.4147,24.9431 L 38.3740,24.9431 L 38.3740,0.9594 L 37.4147,0.9594 Z" stroke-width="1px" stroke="#44ADE2" fill="#44ADE2"/>
        <path clip-path="url(#clip-882160379)" d="M 38.3740,0.9594 L 38.3740,24.9431 L 39.3334,24.9431 L 39.3334,0.9594 L 38.3740,0.9594 Z" stroke-width="1px" stroke="#45AEE2" fill="#45AEE2"/>
        <path clip-path="url(#clip-882160379)" d="M 39.3334,0.9594 L 39.3334,24.9431 L 40.2927,24.9431 L 40.2927,0.9594 L 39.3334,0.9594 Z" stroke-width="1px" stroke="#47B0E3" fill="#47B0E3"/>
        <path clip-path="url(#clip-882160379)" d="M 40.2927,0.9594 L 40.2927,24.9431 L 41.2521,24.9431 L 41.2521,0.9594 L 40.2927,0.9594 Z" stroke-width="1px" stroke="#48B1E4" fill="#48B1E4"/>
        <path clip-path="url(#clip-882160379)" d="M 41.2521,0.9594 L 41.2521,24.9431 L 42.2114,24.9431 L 42.2114,0.9594 L 41.2521,0.9594 Z" stroke-width="1px" stroke="#4AB2E5" fill="#4AB2E5"/>
        <path clip-path="url(#clip-882160379)" d="M 42.2114,0.9594 L 42.2114,24.9431 L 43.1707,24.9431 L 43.1707,0.9594 L 42.2114,0.9594 Z" stroke-width="1px" stroke="#4CB4E6" fill="#4CB4E6"/>
        <path clip-path="url(#clip-882160379)" d="M 43.1707,0.9594 L 43.1707,24.9431 L 44.1301,24.9431 L 44.1301,0.9594 L 43.1707,0.9594 Z" stroke-width="1px" stroke="#4EB5E7" fill="#4EB5E7"/>
        <path clip-path="url(#clip-882160379)" d="M 44.1301,0.9594 L 44.1301,24.9431 L 45.0894,24.9431 L 45.0894,0.9594 L 44.1301,0.9594 Z" stroke-width="1px" stroke="#50B7E8" fill="#50B7E8"/>
        <path clip-path="url(#clip-882160379)" d="M 45.0894,0.9594 L 45.0894,24.9431 L 46.0488,24.9431 L 46.0488,0.9594 L 45.0894,0.9594 Z" stroke-width="1px" stroke="#52B9E8" fill="#52B9E8"/>
        <path clip-path="url(#clip-882160379)" d="M 46.0488,0.9594 L 46.0488,24.9431 L 47.0082,24.9431 L 47.0082,0.9594 L 46.0488,0.9594 Z" stroke-width="1px" stroke="#53BAE9" fill="#53BAE9"/>
        <path clip-path="url(#clip-882160379)" d="M 47.0082,0.9594 L 47.0082,24.9431 L 47.9675,24.9431 L 47.9675,0.9594 L 47.0082,0.9594 Z" stroke-width="1px" stroke="#55BBEA" fill="#55BBEA"/>
        <g transform="matrix(0.0625 0.0000 0.0000 0.0625 0.0000 0.0000)">
          <path d="M 598.6344,101.6911 L 551.6263,71.9513 C 495.9839,36.4553 431.7075,18.2277 366.4717,18.2277 C 173.6423,18.2277 18.2277,174.6017 18.2277,366.4717 L 18.2277,366.4717 L 65.2358,396.2115 L 238.8782,396.2115 C 238.8782,300.2765 317.5448,221.6098 413.4798,221.6098 C 436.5043,221.6098 459.5287,226.4066 481.5937,236.0001 C 519.0084,268.6180 540.1141,316.5855 540.1141,366.4717 L 540.1141,366.4717 L 587.1222,396.2115 L 761.7239,396.2115 C 761.7239,276.2928 700.3255,165.0082 598.6344,101.6911 " stroke="#0054A6" stroke-width="9.5935" stroke-linecap="round" stroke-linejoin="round" fill="none"/>
        </g>
        <g transform="matrix(1.0000 0.0000 0.0000 1.0000 0.0000 0.0000)">
          <path d="M 15.3496,6.7155 C 8.6341,10.5529 4.7968,17.2683 4.7968,24.9431 L 4.7968,24.9431 L 15.3496,24.9431 C 15.3496,21.1057 17.2683,17.2683 21.1057,15.3496 L 21.1057,15.3496 L 15.3496,6.7155 Z " fill="none" stroke="none"/>
          <defs>
            <clipPath id="clip-11614769">
              <path d="M 15.3496,6.7155 C 8.6341,10.5529 4.7968,17.2683 4.7968,24.9431 L 4.7968,24.9431 L 15.3496,24.9431 C 15.3496,21.1057 17.2683,17.2683 21.1057,15.3496 L 21.1057,15.3496 L 15.3496,6.7155 Z"/>
            </clipPath>
          </defs>
          <path clip-path="url(#clip-11614769)" d="M 3.8374,5.7561 L 3.8374,24.9431 L 4.7968,24.9431 L 4.7968,5.7561 L 3.8374,5.7561 Z" stroke-width="1px" stroke="#B4B4B4" fill="#B4B4B4"/>
          <path clip-path="url(#clip-11614769)" d="M 4.7968,5.7561 L 4.7968,24.9431 L 5.7561,24.9431 L 5.7561,5.7561 L 4.7968,5.7561 Z" stroke-width="1px" stroke="#E4E4E4" fill="#E4E4E4"/>
          <path clip-path="url(#clip-11614769)" d="M 5.7561,5.7561 L 5.7561,24.9431 L 6.7155,24.9431 L 6.7155,5.7561 L 5.7561,5.7561 Z" stroke-width="1px" stroke="#E1E1E1" fill="#E1E1E1"/>
          <path clip-path="url(#clip-11614769)" d="M 6.7155,5.7561 L 6.7155,24.9431 L 7.6748,24.9431 L 7.6748,5.7561 L 6.7155,5.7561 Z" stroke-width="1px" stroke="#DEDEDE" fill="#DEDEDE"/>
          <path clip-path="url(#clip-11614769)" d="M 7.6748,5.7561 L 7.6748,24.9431 L 8.6341,24.9431 L 8.6341,5.7561 L 7.6748,5.7561 Z" stroke-width="1px" stroke="#DADADA" fill="#DADADA"/>
          <path clip-path="url(#clip-11614769)" d="M 8.6341,5.7561 L 8.6341,24.9431 L 9.5935,24.9431 L 9.5935,5.7561 L 8.6341,5.7561 Z" stroke-width="1px" stroke="#D8D8D8" fill="#D8D8D8"/>
          <path clip-path="url(#clip-11614769)" d="M 9.5935,5.7561 L 9.5935,24.9431 L 10.5529,24.9431 L 10.5529,5.7561 L 9.5935,5.7561 Z" stroke-width="1px" stroke="#D5D5D5" fill="#D5D5D5"/>
          <path clip-path="url(#clip-11614769)" d="M 10.5529,5.7561 L 10.5529,24.9431 L 11.5122,24.9431 L 11.5122,5.7561 L 10.5529,5.7561 Z" stroke-width="1px" stroke="#D2D2D2" fill="#D2D2D2"/>
          <path clip-path="url(#clip-11614769)" d="M 11.5122,5.7561 L 11.5122,24.9431 L 12.4716,24.9431 L 12.4716,5.7561 L 11.5122,5.7561 Z" stroke-width="1px" stroke="#CFCFCF" fill="#CFCFCF"/>
          <path clip-path="url(#clip-11614769)" d="M 12.4716,5.7561 L 12.4716,24.9431 L 13.4309,24.9431 L 13.4309,5.7561 L 12.4716,5.7561 Z" stroke-width="1px" stroke="#CCCCCC" fill="#CCCCCC"/>
          <path clip-path="url(#clip-11614769)" d="M 13.4309,5.7561 L 13.4309,24.9431 L 14.3902,24.9431 L 14.3902,5.7561 L 13.4309,5.7561 Z" stroke-width="1px" stroke="#C8C8C8" fill="#C8C8C8"/>
          <path clip-path="url(#clip-11614769)" d="M 14.3902,5.7561 L 14.3902,24.9431 L 15.3496,24.9431 L 15.3496,5.7561 L 14.3902,5.7561 Z" stroke-width="1px" stroke="#C6C6C6" fill="#C6C6C6"/>
          <path clip-path="url(#clip-11614769)" d="M 15.3496,5.7561 L 15.3496,24.9431 L 16.3089,24.9431 L 16.3089,5.7561 L 15.3496,5.7561 Z" stroke-width="1px" stroke="#C3C3C3" fill="#C3C3C3"/>
          <path clip-path="url(#clip-11614769)" d="M 16.3089,5.7561 L 16.3089,24.9431 L 17.2683,24.9431 L 17.2683,5.7561 L 16.3089,5.7561 Z" stroke-width="1px" stroke="#C0C0C0" fill="#C0C0C0"/>
          <path clip-path="url(#clip-11614769)" d="M 17.2683,5.7561 L 17.2683,24.9431 L 18.2277,24.9431 L 18.2277,5.7561 L 17.2683,5.7561 Z" stroke-width="1px" stroke="#BDBDBD" fill="#BDBDBD"/>
          <path clip-path="url(#clip-11614769)" d="M 18.2277,5.7561 L 18.2277,24.9431 L 19.1870,24.9431 L 19.1870,5.7561 L 18.2277,5.7561 Z" stroke-width="1px" stroke="#B9B9B9" fill="#B9B9B9"/>
          <path clip-path="url(#clip-11614769)" d="M 19.1870,5.7561 L 19.1870,24.9431 L 20.1464,24.9431 L 20.1464,5.7561 L 19.1870,5.7561 Z" stroke-width="1px" stroke="#B6B6B6" fill="#B6B6B6"/>
        </g>
        <g transform="matrix(0.0625 0.0000 0.0000 0.0625 0.0000 0.0000)">
          <path d="M 238.8782,94.0163 C 131.4309,156.3741 65.2358,271.4961 65.2358,396.2115 L 65.2358,396.2115 L 238.8782,396.2115 C 238.8782,333.8538 272.4554,276.2928 326.1790,245.5936 L 326.1790,245.5936 L 238.8782,94.0163 " stroke="#0054A6" stroke-width="9.5935" stroke-linecap="round" stroke-linejoin="round" fill="none"/>
        </g>
        <g transform="matrix(1.0000 0.0000 0.0000 1.0000 0.0000 0.0000)">
          <path d="M 37.4147,6.7155 L 31.6586,15.3496 C 35.4960,17.2683 37.4147,21.1057 37.4147,24.9431 L 37.4147,24.9431 L 47.9675,24.9431 C 47.9675,17.2683 44.1301,10.5529 37.4147,6.7155 Z " fill="none" stroke="none"/>
          <defs>
            <clipPath id="clip-1682085273">
              <path d="M 37.4147,6.7155 L 31.6586,15.3496 C 35.4960,17.2683 37.4147,21.1057 37.4147,24.9431 L 37.4147,24.9431 L 47.9675,24.9431 C 47.9675,17.2683 44.1301,10.5529 37.4147,6.7155 Z"/>
            </clipPath>
          </defs>
          <path clip-path="url(#clip-1682085273)" d="M 30.6992,5.7561 L 30.6992,24.9431 L 31.6586,24.9431 L 31.6586,5.7561 L 30.6992,5.7561 Z" stroke-width="1px" stroke="#B5B5B5" fill="#B5B5B5"/>
          <path clip-path="url(#clip-1682085273)" d="M 31.6586,5.7561 L 31.6586,24.9431 L 32.6179,24.9431 L 32.6179,5.7561 L 31.6586,5.7561 Z" stroke-width="1px" stroke="#E5E5E5" fill="#E5E5E5"/>
          <path clip-path="url(#clip-1682085273)" d="M 32.6179,5.7561 L 32.6179,24.9431 L 33.5772,24.9431 L 33.5772,5.7561 L 32.6179,5.7561 Z" stroke-width="1px" stroke="#E2E2E2" fill="#E2E2E2"/>
          <path clip-path="url(#clip-1682085273)" d="M 33.5772,5.7561 L 33.5772,24.9431 L 34.5366,24.9431 L 34.5366,5.7561 L 33.5772,5.7561 Z" stroke-width="1px" stroke="#DFDFDF" fill="#DFDFDF"/>
          <path clip-path="url(#clip-1682085273)" d="M 34.5366,5.7561 L 34.5366,24.9431 L 35.4960,24.9431 L 35.4960,5.7561 L 34.5366,5.7561 Z" stroke-width="1px" stroke="#DBDBDB" fill="#DBDBDB"/>
          <path clip-path="url(#clip-1682085273)" d="M 35.4960,5.7561 L 35.4960,24.9431 L 36.4553,24.9431 L 36.4553,5.7561 L 35.4960,5.7561 Z" stroke-width="1px" stroke="#D9D9D9" fill="#D9D9D9"/>
          <path clip-path="url(#clip-1682085273)" d="M 36.4553,5.7561 L 36.4553,24.9431 L 37.4147,24.9431 L 37.4147,5.7561 L 36.4553,5.7561 Z" stroke-width="1px" stroke="#D6D6D6" fill="#D6D6D6"/>
          <path clip-path="url(#clip-1682085273)" d="M 37.4147,5.7561 L 37.4147,24.9431 L 38.3740,24.9431 L 38.3740,5.7561 L 37.4147,5.7561 Z" stroke-width="1px" stroke="#D3D3D3" fill="#D3D3D3"/>
          <path clip-path="url(#clip-1682085273)" d="M 38.3740,5.7561 L 38.3740,24.9431 L 39.3334,24.9431 L 39.3334,5.7561 L 38.3740,5.7561 Z" stroke-width="1px" stroke="#D0D0D0" fill="#D0D0D0"/>
          <path clip-path="url(#clip-1682085273)" d="M 39.3334,5.7561 L 39.3334,24.9431 L 40.2927,24.9431 L 40.2927,5.7561 L 39.3334,5.7561 Z" stroke-width="1px" stroke="#CDCDCD" fill="#CDCDCD"/>
          <path clip-path="url(#clip-1682085273)" d="M 40.2927,5.7561 L 40.2927,24.9431 L 41.2521,24.9431 L 41.2521,5.7561 L 40.2927,5.7561 Z" stroke-width="1px" stroke="#CACACA" fill="#CACACA"/>
          <path clip-path="url(#clip-1682085273)" d="M 41.2521,5.7561 L 41.2521,24.9431 L 42.2114,24.9431 L 42.2114,5.7561 L 41.2521,5.7561 Z" stroke-width="1px" stroke="#C7C7C7" fill="#C7C7C7"/>
          <path clip-path="url(#clip-1682085273)" d="M 42.2114,5.7561 L 42.2114,24.9431 L 43.1707,24.9431 L 43.1707,5.7561 L 42.2114,5.7561 Z" stroke-width="1px" stroke="#C4C4C4" fill="#C4C4C4"/>
          <path clip-path="url(#clip-1682085273)" d="M 43.1707,5.7561 L 43.1707,24.9431 L 44.1301,24.9431 L 44.1301,5.7561 L 43.1707,5.7561 Z" stroke-width="1px" stroke="#C1C1C1" fill="#C1C1C1"/>
          <path clip-path="url(#clip-1682085273)" d="M 44.1301,5.7561 L 44.1301,24.9431 L 45.0894,24.9431 L 45.0894,5.7561 L 44.1301,5.7561 Z" stroke-width="1px" stroke="#BEBEBE" fill="#BEBEBE"/>
          <path clip-path="url(#clip-1682085273)" d="M 45.0894,5.7561 L 45.0894,24.9431 L 46.0488,24.9431 L 46.0488,5.7561 L 45.0894,5.7561 Z" stroke-width="1px" stroke="#BBBBBB" fill="#BBBBBB"/>
          <path clip-path="url(#clip-1682085273)" d="M 46.0488,5.7561 L 46.0488,24.9431 L 47.0082,24.9431 L 47.0082,5.7561 L 46.0488,5.7561 Z" stroke-width="1px" stroke="#B8B8B8" fill="#B8B8B8"/>
        </g>
        <g transform="matrix(0.0625 0.0000 0.0000 0.0625 0.0000 0.0000)">
          <path d="M 587.1222,94.0163 L 500.7807,245.5936 C 554.5043,276.2928 587.1222,333.8538 587.1222,396.2115 L 587.1222,396.2115 L 761.7239,396.2115 C 761.7239,271.4961 695.5288,156.3741 587.1222,94.0163 " stroke="#0054A6" stroke-width="9.5935" stroke-linecap="round" stroke-linejoin="round" fill="none"/>
        </g>
        <g transform="matrix(1.0000 0.0000 0.0000 1.0000 0.0000 0.0000)">
          <path d="M 37.4147,6.7155 C 33.5772,4.7968 29.7399,3.8374 25.9025,3.8374 C 22.0650,3.8374 18.2277,4.7968 15.3496,6.7155 L 15.3496,6.7155 L 21.1057,15.3496 C 23.9838,13.4309 28.7805,13.4309 31.6586,15.3496 L 31.6586,15.3496 L 37.4147,6.7155 Z " fill="none" stroke="none"/>
          <defs>
            <clipPath id="clip-1662981776">
              <path d="M 37.4147,6.7155 C 33.5772,4.7968 29.7399,3.8374 25.9025,3.8374 C 22.0650,3.8374 18.2277,4.7968 15.3496,6.7155 L 15.3496,6.7155 L 21.1057,15.3496 C 23.9838,13.4309 28.7805,13.4309 31.6586,15.3496 L 31.6586,15.3496 L 37.4147,6.7155 Z"/>
            </clipPath>
          </defs>
          <path clip-path="url(#clip-1662981776)" d="M 14.3902,2.8780 L 14.3902,15.3496 L 15.3496,15.3496 L 15.3496,2.8780 L 14.3902,2.8780 Z" stroke-width="1px" stroke="#B4B4B4" fill="#B4B4B4"/>
          <path clip-path="url(#clip-1662981776)" d="M 15.3496,2.8780 L 15.3496,15.3496 L 16.3089,15.3496 L 16.3089,2.8780 L 15.3496,2.8780 Z" stroke-width="1px" stroke="#E5E5E5" fill="#E5E5E5"/>
          <path clip-path="url(#clip-1662981776)" d="M 16.3089,2.8780 L 16.3089,15.3496 L 17.2683,15.3496 L 17.2683,2.8780 L 16.3089,2.8780 Z" stroke-width="1px" stroke="#E3E3E3" fill="#E3E3E3"/>
          <path clip-path="url(#clip-1662981776)" d="M 17.2683,2.8780 L 17.2683,15.3496 L 18.2277,15.3496 L 18.2277,2.8780 L 17.2683,2.8780 Z" stroke-width="1px" stroke="#E1E1E1" fill="#E1E1E1"/>
          <path clip-path="url(#clip-1662981776)" d="M 18.2277,2.8780 L 18.2277,15.3496 L 19.1870,15.3496 L 19.1870,2.8780 L 18.2277,2.8780 Z" stroke-width="1px" stroke="#DEDEDE" fill="#DEDEDE"/>
          <path clip-path="url(#clip-1662981776)" d="M 19.1870,2.8780 L 19.1870,15.3496 L 20.1464,15.3496 L 20.1464,2.8780 L 19.1870,2.8780 Z" stroke-width="1px" stroke="#DCDCDC" fill="#DCDCDC"/>
          <path clip-path="url(#clip-1662981776)" d="M 20.1464,2.8780 L 20.1464,15.3496 L 21.1057,15.3496 L 21.1057,2.8780 L 20.1464,2.8780 Z" stroke-width="1px" stroke="#DADADA" fill="#DADADA"/>
          <path clip-path="url(#clip-1662981776)" d="M 21.1057,2.8780 L 21.1057,15.3496 L 22.0650,15.3496 L 22.0650,2.8780 L 21.1057,2.8780 Z" stroke-width="1px" stroke="#D7D7D7" fill="#D7D7D7"/>
          <path clip-path="url(#clip-1662981776)" d="M 22.0650,2.8780 L 22.0650,15.3496 L 23.0244,15.3496 L 23.0244,2.8780 L 22.0650,2.8780 Z" stroke-width="1px" stroke="#D5D5D5" fill="#D5D5D5"/>
          <path clip-path="url(#clip-1662981776)" d="M 23.0244,2.8780 L 23.0244,15.3496 L 23.9838,15.3496 L 23.9838,2.8780 L 23.0244,2.8780 Z" stroke-width="1px" stroke="#D3D3D3" fill="#D3D3D3"/>
          <path clip-path="url(#clip-1662981776)" d="M 23.9838,2.8780 L 23.9838,15.3496 L 24.9431,15.3496 L 24.9431,2.8780 L 23.9838,2.8780 Z" stroke-width="1px" stroke="#D1D1D1" fill="#D1D1D1"/>
          <path clip-path="url(#clip-1662981776)" d="M 24.9431,2.8780 L 24.9431,15.3496 L 25.9025,15.3496 L 25.9025,2.8780 L 24.9431,2.8780 Z" stroke-width="1px" stroke="#CFCFCF" fill="#CFCFCF"/>
          <path clip-path="url(#clip-1662981776)" d="M 25.9025,2.8780 L 25.9025,15.3496 L 26.8618,15.3496 L 26.8618,2.8780 L 25.9025,2.8780 Z" stroke-width="1px" stroke="#CDCDCD" fill="#CDCDCD"/>
          <path clip-path="url(#clip-1662981776)" d="M 26.8618,2.8780 L 26.8618,15.3496 L 27.8211,15.3496 L 27.8211,2.8780 L 26.8618,2.8780 Z" stroke-width="1px" stroke="#CACACA" fill="#CACACA"/>
          <path clip-path="url(#clip-1662981776)" d="M 27.8211,2.8780 L 27.8211,15.3496 L 28.7805,15.3496 L 28.7805,2.8780 L 27.8211,2.8780 Z" stroke-width="1px" stroke="#C8C8C8" fill="#C8C8C8"/>
          <path clip-path="url(#clip-1662981776)" d="M 28.7805,2.8780 L 28.7805,15.3496 L 29.7399,15.3496 L 29.7399,2.8780 L 28.7805,2.8780 Z" stroke-width="1px" stroke="#C5C5C5" fill="#C5C5C5"/>
          <path clip-path="url(#clip-1662981776)" d="M 29.7399,2.8780 L 29.7399,15.3496 L 30.6992,15.3496 L 30.6992,2.8780 L 29.7399,2.8780 Z" stroke-width="1px" stroke="#C3C3C3" fill="#C3C3C3"/>
          <path clip-path="url(#clip-1662981776)" d="M 30.6992,2.8780 L 30.6992,15.3496 L 31.6586,15.3496 L 31.6586,2.8780 L 30.6992,2.8780 Z" stroke-width="1px" stroke="#C1C1C1" fill="#C1C1C1"/>
          <path clip-path="url(#clip-1662981776)" d="M 31.6586,2.8780 L 31.6586,15.3496 L 32.6179,15.3496 L 32.6179,2.8780 L 31.6586,2.8780 Z" stroke-width="1px" stroke="#BFBFBF" fill="#BFBFBF"/>
          <path clip-path="url(#clip-1662981776)" d="M 32.6179,2.8780 L 32.6179,15.3496 L 33.5772,15.3496 L 33.5772,2.8780 L 32.6179,2.8780 Z" stroke-width="1px" stroke="#BDBDBD" fill="#BDBDBD"/>
          <path clip-path="url(#clip-1662981776)" d="M 33.5772,2.8780 L 33.5772,15.3496 L 34.5366,15.3496 L 34.5366,2.8780 L 33.5772,2.8780 Z" stroke-width="1px" stroke="#BABABA" fill="#BABABA"/>
          <path clip-path="url(#clip-1662981776)" d="M 34.5366,2.8780 L 34.5366,15.3496 L 35.4960,15.3496 L 35.4960,2.8780 L 34.5366,2.8780 Z" stroke-width="1px" stroke="#B8B8B8" fill="#B8B8B8"/>
          <path clip-path="url(#clip-1662981776)" d="M 35.4960,2.8780 L 35.4960,15.3496 L 36.4553,15.3496 L 36.4553,2.8780 L 35.4960,2.8780 Z" stroke-width="1px" stroke="#B6B6B6" fill="#B6B6B6"/>
        </g>
        <g transform="matrix(0.0625 0.0000 0.0000 0.0625 0.0000 0.0000)">
          <path d="M 587.1222,94.0163 C 534.3580,64.2764 474.8783,47.9675 413.4798,47.9675 C 352.0815,47.9675 292.6018,64.2764 238.8782,94.0163 L 238.8782,94.0163 L 326.1790,245.5936 C 379.9026,213.9351 447.0571,213.9351 500.7807,245.5936 L 500.7807,245.5936 L 587.1222,94.0163 " stroke="#0054A6" stroke-width="9.5935" stroke-linecap="round" stroke-linejoin="round" fill="none"/>
        </g>
        <g transform="matrix(1.0000 0.0000 0.0000 1.0000 0.0000 0.0000)">
</g>
        <g transform="matrix(0.0625 0.0000 0.0000 0.0625 0.0000 0.0000)">
          <path d="M 563.1385,101.6911 C 517.0897,77.7074 465.2848,65.2358 413.4798,65.2358 C 361.6750,65.2358 309.8700,77.7074 263.8213,101.6911 L 263.8213,101.6911 L 332.8945,222.5692 C 383.7400,198.5855 443.2197,198.5855 494.0652,222.5692 L 494.0652,222.5692 L 563.1385,101.6911 Z " fill="#74A5D8" stroke="none"/>
        </g>
        <g transform="matrix(1.0000 0.0000 0.0000 1.0000 0.0000 0.0000)">
</g>
        <g transform="matrix(0.0625 0.0000 0.0000 0.0625 0.0000 0.0000)">
          <path d="M 563.1385,101.6911 C 517.0897,77.7074 465.2848,65.2358 413.4798,65.2358 C 361.6750,65.2358 309.8700,77.7074 263.8213,101.6911 L 263.8213,101.6911 L 332.8945,222.5692 C 383.7400,198.5855 443.2197,198.5855 494.0652,222.5692 L 494.0652,222.5692 L 563.1385,101.6911 Z " stroke="#0054A6" stroke-width="5.7561" stroke-linecap="round" stroke-linejoin="round" fill="none"/>
        </g>
        <g transform="matrix(1.0000 0.0000 0.0000 1.0000 0.0000 0.0000)">
</g>
        <g transform="matrix(0.0625 0.0000 0.0000 0.0625 0.0000 0.0000)">
          <path d="M 233.1221,118.9594 C 144.8619,176.5204 88.2602,273.4148 83.4635,378.9433 L 83.4635,378.9433 L 222.5692,378.9433 C 227.3659,323.3010 257.1058,272.4554 303.1546,239.8375 L 303.1546,239.8375 L 233.1221,118.9594 Z " fill="#A5D2ED" stroke="none"/>
        </g>
        <g transform="matrix(1.0000 0.0000 0.0000 1.0000 0.0000 0.0000)">
</g>
        <g transform="matrix(0.0625 0.0000 0.0000 0.0625 0.0000 0.0000)">
          <path d="M 233.1221,118.9594 C 144.8619,176.5204 88.2602,273.4148 83.4635,378.9433 L 83.4635,378.9433 L 222.5692,378.9433 C 227.3659,323.3010 257.1058,272.4554 303.1546,239.8375 L 303.1546,239.8375 L 233.1221,118.9594 Z " stroke="#0054A6" stroke-width="5.7561" stroke-linecap="round" stroke-linejoin="round" fill="none"/>
        </g>
        <g transform="matrix(1.0000 0.0000 0.0000 1.0000 0.0000 0.0000)">
</g>
        <g transform="matrix(0.0625 0.0000 0.0000 0.0625 0.0000 0.0000)">
          <path d="M 593.8377,118.9594 L 523.8051,239.8375 C 569.8539,272.4554 598.6344,323.3010 604.3905,378.9433 L 604.3905,378.9433 L 743.4963,378.9433 C 738.6995,273.4148 682.0978,176.5204 593.8377,118.9594 Z " fill="#0077C0" stroke="none"/>
        </g>
        <g transform="matrix(1.0000 0.0000 0.0000 1.0000 0.0000 0.0000)">
</g>
        <g transform="matrix(0.0625 0.0000 0.0000 0.0625 0.0000 0.0000)">
          <path d="M 593.8377,118.9594 L 523.8051,239.8375 C 569.8539,272.4554 598.6344,323.3010 604.3905,378.9433 L 604.3905,378.9433 L 743.4963,378.9433 C 738.6995,273.4148 682.0978,176.5204 593.8377,118.9594 Z " stroke="#0054A6" stroke-width="5.7561" stroke-linecap="round" stroke-linejoin="round" fill="none"/>
        </g>
        <g transform="matrix(1.0000 0.0000 0.0000 1.0000 0.0000 0.0000)">
</g>
        <g transform="matrix(0.0625 0.0000 0.0000 0.0625 0.0000 0.0000)">
          <path d="M 457.6100,380.8620 L 416.3579,118.0001 C 415.3986,112.2439 418.2766,106.4879 406.7644,106.4879 C 401.0083,106.4879 389.4961,108.4066 386.6181,119.9188 L 339.6099,380.8620 C 335.7725,421.1547 373.1872,453.7726 398.1302,453.7726 C 423.0734,453.7726 462.4067,421.1547 457.6100,380.8620 Z M 401.0083,420.1953 C 382.7807,420.1953 367.4311,404.8457 367.4311,385.6587 C 367.4311,367.4311 382.7807,352.0815 401.0083,352.0815 C 420.1953,352.0815 435.5449,367.4311 435.5449,385.6587 C 435.5449,404.8457 420.1953,420.1953 401.0083,420.1953 Z " fill="#1A1A1A" stroke="none"/>
        </g>
        <g transform="matrix(1.0000 0.0000 0.0000 1.0000 0.0000 0.0000)">
</g>
        <g transform="matrix(0.0625 0.0000 0.0000 0.0625 0.0000 0.0000)">
          <path d="M 457.6100,380.8620 L 416.3579,118.0001 C 415.3986,112.2439 418.2766,106.4879 406.7644,106.4879 C 401.0083,106.4879 389.4961,108.4066 386.6181,119.9188 L 339.6099,380.8620 C 335.7725,421.1547 373.1872,453.7726 398.1302,453.7726 C 423.0734,453.7726 462.4067,421.1547 457.6100,380.8620 Z M 401.0083,420.1953 C 382.7807,420.1953 367.4311,404.8457 367.4311,385.6587 C 367.4311,367.4311 382.7807,352.0815 401.0083,352.0815 C 420.1953,352.0815 435.5449,367.4311 435.5449,385.6587 C 435.5449,404.8457 420.1953,420.1953 401.0083,420.1953 Z " stroke="#1A1A1A" stroke-width="9.5935" stroke-linecap="round" stroke-linejoin="round" fill="none"/>
        </g>
        <g transform="matrix(1.0000 0.0000 0.0000 1.0000 0.0000 0.0000)">
          <path d="M 29.7399,23.9838 L 26.8618,7.6748 C 26.8618,7.6748 26.8618,6.7155 25.9025,6.7155 C 25.9025,6.7155 25.9025,7.6748 25.9025,7.6748 L 22.0650,23.9838 C 22.0650,26.8618 23.9838,28.7805 25.9025,28.7805 C 27.8211,28.7805 29.7399,26.8618 29.7399,23.9838 Z M 25.9025,26.8618 C 24.9431,26.8618 23.9838,25.9025 23.9838,24.9431 C 23.9838,23.0244 24.9431,22.0650 25.9025,22.0650 C 26.8618,22.0650 27.8211,23.0244 27.8211,24.9431 C 27.8211,25.9025 26.8618,26.8618 25.9025,26.8618 Z " fill="none" stroke="none"/>
          <defs>
            <clipPath id="clip-630668850">
              <path d="M 29.7399,23.9838 L 26.8618,7.6748 C 26.8618,7.6748 26.8618,6.7155 25.9025,6.7155 C 25.9025,6.7155 25.9025,7.6748 25.9025,7.6748 L 22.0650,23.9838 C 22.0650,26.8618 23.9838,28.7805 25.9025,28.7805 C 27.8211,28.7805 29.7399,26.8618 29.7399,23.9838 M 25.9025,26.8618 C 24.9431,26.8618 23.9838,25.9025 23.9838,24.9431 C 23.9838,23.0244 24.9431,22.0650 25.9025,22.0650 C 26.8618,22.0650 27.8211,23.0244 27.8211,24.9431 C 27.8211,25.9025 26.8618,26.8618 25.9025,26.8618 Z"/>
            </clipPath>
          </defs>
          <path clip-path="url(#clip-630668850)" d="M 21.1057,6.7155 L 21.1057,7.6748 L 29.7399,7.6748 L 29.7399,6.7155 L 21.1057,6.7155 Z" stroke-width="1px" stroke="#C0C0C0" fill="#C0C0C0"/>
          <path clip-path="url(#clip-630668850)" d="M 21.1057,7.6748 L 21.1057,8.6341 L 29.7399,8.6341 L 29.7399,7.6748 L 21.1057,7.6748 Z" stroke-width="1px" stroke="#BCBCBC" fill="#BCBCBC"/>
          <path clip-path="url(#clip-630668850)" d="M 21.1057,8.6341 L 21.1057,9.5935 L 29.7399,9.5935 L 29.7399,8.6341 L 21.1057,8.6341 Z" stroke-width="1px" stroke="#B8B8B8" fill="#B8B8B8"/>
          <path clip-path="url(#clip-630668850)" d="M 21.1057,9.5935 L 21.1057,10.5529 L 29.7399,10.5529 L 29.7399,9.5935 L 21.1057,9.5935 Z" stroke-width="1px" stroke="#B4B4B4" fill="#B4B4B4"/>
          <path clip-path="url(#clip-630668850)" d="M 21.1057,10.5529 L 21.1057,11.5122 L 29.7399,11.5122 L 29.7399,10.5529 L 21.1057,10.5529 Z" stroke-width="1px" stroke="#B0B0B0" fill="#B0B0B0"/>
          <path clip-path="url(#clip-630668850)" d="M 21.1057,11.5122 L 21.1057,12.4716 L 29.7399,12.4716 L 29.7399,11.5122 L 21.1057,11.5122 Z" stroke-width="1px" stroke="#ACACAC" fill="#ACACAC"/>
          <path clip-path="url(#clip-630668850)" d="M 21.1057,12.4716 L 21.1057,13.4309 L 29.7399,13.4309 L 29.7399,12.4716 L 21.1057,12.4716 Z" stroke-width="1px" stroke="#A8A8A8" fill="#A8A8A8"/>
          <path clip-path="url(#clip-630668850)" d="M 21.1057,13.4309 L 21.1057,14.3902 L 29.7399,14.3902 L 29.7399,13.4309 L 21.1057,13.4309 Z" stroke-width="1px" stroke="#A4A4A4" fill="#A4A4A4"/>
          <path clip-path="url(#clip-630668850)" d="M 21.1057,14.3902 L 21.1057,15.3496 L 29.7399,15.3496 L 29.7399,14.3902 L 21.1057,14.3902 Z" stroke-width="1px" stroke="#A0A0A0" fill="#A0A0A0"/>
          <path clip-path="url(#clip-630668850)" d="M 21.1057,15.3496 L 21.1057,16.3089 L 29.7399,16.3089 L 29.7399,15.3496 L 21.1057,15.3496 Z" stroke-width="1px" stroke="#9C9C9C" fill="#9C9C9C"/>
          <path clip-path="url(#clip-630668850)" d="M 21.1057,16.3089 L 21.1057,17.2683 L 29.7399,17.2683 L 29.7399,16.3089 L 21.1057,16.3089 Z" stroke-width="1px" stroke="#989898" fill="#989898"/>
          <path clip-path="url(#clip-630668850)" d="M 21.1057,17.2683 L 21.1057,18.2277 L 29.7399,18.2277 L 29.7399,17.2683 L 21.1057,17.2683 Z" stroke-width="1px" stroke="#949494" fill="#949494"/>
          <path clip-path="url(#clip-630668850)" d="M 21.1057,18.2277 L 21.1057,19.1870 L 29.7399,19.1870 L 29.7399,18.2277 L 21.1057,18.2277 Z" stroke-width="1px" stroke="#909090" fill="#909090"/>
          <path clip-path="url(#clip-630668850)" d="M 21.1057,19.1870 L 21.1057,20.1464 L 29.7399,20.1464 L 29.7399,19.1870 L 21.1057,19.1870 Z" stroke-width="1px" stroke="#8C8C8C" fill="#8C8C8C"/>
          <path clip-path="url(#clip-630668850)" d="M 21.1057,20.1464 L 21.1057,21.1057 L 29.7399,21.1057 L 29.7399,20.1464 L 21.1057,20.1464 Z" stroke-width="1px" stroke="#888888" fill="#888888"/>
          <path clip-path="url(#clip-630668850)" d="M 21.1057,21.1057 L 21.1057,22.0650 L 29.7399,22.0650 L 29.7399,21.1057 L 21.1057,21.1057 Z" stroke-width="1px" stroke="#848484" fill="#848484"/>
          <path clip-path="url(#clip-630668850)" d="M 21.1057,22.0650 L 21.1057,23.0244 L 29.7399,23.0244 L 29.7399,22.0650 L 21.1057,22.0650 Z" stroke-width="1px" stroke="#808080" fill="#808080"/>
          <path clip-path="url(#clip-630668850)" d="M 21.1057,23.0244 L 21.1057,23.9838 L 29.7399,23.9838 L 29.7399,23.0244 L 21.1057,23.0244 Z" stroke-width="1px" stroke="#7D7D7D" fill="#7D7D7D"/>
          <path clip-path="url(#clip-630668850)" d="M 21.1057,23.9838 L 21.1057,24.9431 L 29.7399,24.9431 L 29.7399,23.9838 L 21.1057,23.9838 Z" stroke-width="1px" stroke="#787878" fill="#787878"/>
          <path clip-path="url(#clip-630668850)" d="M 21.1057,24.9431 L 21.1057,25.9025 L 29.7399,25.9025 L 29.7399,24.9431 L 21.1057,24.9431 Z" stroke-width="1px" stroke="#747474" fill="#747474"/>
          <path clip-path="url(#clip-630668850)" d="M 21.1057,25.9025 L 21.1057,26.8618 L 29.7399,26.8618 L 29.7399,25.9025 L 21.1057,25.9025 Z" stroke-width="1px" stroke="#707070" fill="#707070"/>
          <path clip-path="url(#clip-630668850)" d="M 21.1057,26.8618 L 21.1057,27.8211 L 29.7399,27.8211 L 29.7399,26.8618 L 21.1057,26.8618 Z" stroke-width="1px" stroke="#6D6D6D" fill="#6D6D6D"/>
          <path clip-path="url(#clip-630668850)" d="M 21.1057,27.8211 L 21.1057,28.7805 L 29.7399,28.7805 L 29.7399,27.8211 L 21.1057,27.8211 Z" stroke-width="1px" stroke="#686868" fill="#686868"/>
        </g>
        <g transform="matrix(0.0625 0.0000 0.0000 0.0625 0.0000 0.0000)">
          <path d="M 471.0409,381.8213 L 422.1140,116.0814 C 421.1547,111.2846 417.3173,107.4472 411.5611,107.4472 C 405.8050,107.4472 401.9676,111.2846 401.0083,116.0814 L 352.0815,381.8213 C 348.2441,422.1140 383.7400,454.7319 408.6831,454.7319 C 433.6262,454.7319 475.8376,422.1140 471.0409,381.8213 M 411.5611,420.1953 C 392.3742,420.1953 377.9839,404.8457 377.9839,386.6181 C 377.9839,367.4311 392.3742,352.0815 411.5611,352.0815 C 430.7482,352.0815 446.0978,367.4311 446.0978,386.6181 C 446.0978,404.8457 430.7482,420.1953 411.5611,420.1953 " stroke="#1A1A1A" stroke-width="9.5935" stroke-linecap="round" stroke-linejoin="round" fill="none"/>
        </g>
        <g transform="matrix(1.0000 0.0000 0.0000 1.0000 0.0000 0.0000)">
</g>
      </g>
      <!--emf-blob end-->
    </g>
  </g>
</svg>
