<svg xmlns="http://www.w3.org/2000/svg" xmlns:xlink="http://www.w3.org/1999/xlink" version="1.1" width="47.8488000000" height="32.4000000000">
  <title><![CDATA[Linux App V1]]></title>
  <g transform=" scale(1.000000) ">
    <text xmlns="http://www.w3.org/2000/svg" x="10.5398" y="32.3999" transform="rotate(0.0002, 23.9244, 36.0999)">
      <tspan font-family="Arial" font-size="4.5000" fill="#000000" fill-opacity="1.0000" stroke-opacity="1.0000">
Linux App V1</tspan>
    </text>
    <!--converted by libvisio2svg-->
    <g transform=" translate(23.9525, 15.9306)  scale(1, 1)  rotate(0.0002)  translate(-23.9525, -15.9306)  translate(-1.176600,-1.800100) ">
      <!--emf-blob start-->
      <g transform="translate(0.9332, 0.9332)">
        <g transform="matrix(0.0625 0.0000 0.0000 0.0625 0.0000 0.0000)">
          <path d="M 18.6639,18.6639 L 18.6639,512.3239 L 733.4911,512.3239 L 733.4911,18.6639 L 18.6639,18.6639 Z" stroke-width="1px" stroke="#FFFFFF" fill="#FFFFFF"/>
        </g>
        <g transform="matrix(1.0000 0.0000 0.0000 1.0000 0.0000 0.0000)">
</g>
        <g transform="matrix(0.0625 0.0000 0.0000 0.0625 0.0000 0.0000)">
          <path d="M 18.6639,512.3239 L 733.4911,512.3239 L 733.4911,18.6639 L 18.6639,18.6639 L 18.6639,512.3239 Z" stroke="#0054A6" stroke-width="22.3967" stroke-linecap="round" stroke-linejoin="round" fill="none"/>
        </g>
        <g transform="matrix(1.0000 0.0000 0.0000 1.0000 0.0000 0.0000)">
</g>
        <g transform="matrix(0.0625 0.0000 0.0000 0.0625 0.0000 0.0000)">
          <path d="M 39.1942,41.0606 L 39.1942,82.1211 L 711.0944,82.1211 L 711.0944,41.0606 L 39.1942,41.0606 Z" stroke-width="1px" stroke="#1A1A1A" fill="#1A1A1A"/>
        </g>
        <g transform="matrix(1.0000 0.0000 0.0000 1.0000 0.0000 0.0000)">
</g>
        <g transform="matrix(0.0625 0.0000 0.0000 0.0625 0.0000 0.0000)">
          <path d="M 674.6998,49.4593 L 674.6998,74.6556 L 699.8961,74.6556 L 699.8961,49.4593 L 674.6998,49.4593 Z" stroke-width="1px" stroke="#FFFFFF" fill="#FFFFFF"/>
        </g>
        <g transform="matrix(1.0000 0.0000 0.0000 1.0000 0.0000 0.0000)">
</g>
        <g transform="matrix(0.0625 0.0000 0.0000 0.0625 0.0000 0.0000)">
          <path d="M 421.8040,144.6452 C 415.2717,99.8518 364.8791,100.7850 364.8791,100.7850 C 301.4219,104.5178 313.5534,176.3738 317.2862,205.3028 C 320.0858,233.2987 298.6223,251.0294 298.6223,251.0294 C 291.1568,257.5617 281.8248,271.5597 278.0920,287.4240 C 277.1588,292.0900 276.2256,295.8227 274.3593,299.5555 C 269.6933,310.7538 264.0941,318.2194 264.0941,318.2194 C 241.6974,344.3489 274.3593,376.0775 274.3593,376.0775 C 274.3593,376.0775 292.0900,412.4721 293.0231,414.3385 C 294.8895,416.2049 317.2862,451.6663 317.2862,451.6663 C 328.4845,443.2675 366.7455,437.6683 394.7414,442.3343 C 421.8040,446.0671 434.8687,432.0692 434.8687,432.0692 L 454.4658,395.6746 L 481.5285,357.4136 C 490.8604,335.9501 489.9272,287.4240 452.5994,248.2298 C 416.2049,209.0356 427.4032,185.7058 421.8040,144.6452 Z " fill="#1A1A1A" stroke="none"/>
        </g>
        <g transform="matrix(1.0000 0.0000 0.0000 1.0000 0.0000 0.0000)">
</g>
        <g transform="matrix(0.0625 0.0000 0.0000 0.0625 0.0000 0.0000)">
          <path d="M 334.0837,153.0439 C 334.0837,153.0439 313.5534,156.7767 329.4177,196.9041 C 329.4177,196.9041 334.0837,220.2340 323.8186,234.2319 C 323.8186,234.2319 307.9543,254.7622 309.8207,278.0920 C 309.8207,278.0920 277.1588,307.0211 288.3572,351.8144 L 321.0190,378.8771 C 321.0190,378.8771 340.6161,391.9418 324.7518,402.2069 C 324.7518,402.2069 321.9522,405.9397 316.3530,404.0733 C 316.3530,404.0733 320.0858,426.4700 356.4804,424.6036 C 356.4804,424.6036 391.0086,426.4700 419.0044,392.8750 L 433.9356,353.6808 C 433.9356,353.6808 444.2007,293.9563 416.2049,267.8269 C 416.2049,267.8269 413.4053,237.9647 399.4073,225.8331 C 399.4073,225.8331 399.4073,215.5680 392.8750,209.9688 L 391.0086,193.1713 C 391.0086,193.1713 399.4073,187.5721 395.6746,167.0419 C 395.6746,167.0419 391.9418,148.3780 375.1443,152.1107 C 375.1443,152.1107 352.7476,160.5095 370.4783,186.6389 C 370.4783,186.6389 360.2132,181.9730 346.2152,184.7726 C 346.2152,184.7726 355.5472,153.0439 334.0837,153.0439 Z " fill="#FFFFFF" stroke="none"/>
        </g>
        <g transform="matrix(1.0000 0.0000 0.0000 1.0000 0.0000 0.0000)">
</g>
        <g transform="matrix(0.0625 0.0000 0.0000 0.0625 0.0000 0.0000)">
          <path d="M 336.8833,189.4385 C 340.6161,189.4385 343.4157,183.8394 342.4825,176.3738 C 341.5493,169.8414 337.8165,165.1755 334.0837,165.1755 C 329.4177,166.1087 326.6182,171.7078 327.5514,178.2402 C 328.4845,184.7726 332.2173,190.3717 336.8833,189.4385 " fill="#1A1A1A" stroke="none"/>
        </g>
        <g transform="matrix(1.0000 0.0000 0.0000 1.0000 0.0000 0.0000)">
</g>
        <g transform="matrix(0.0625 0.0000 0.0000 0.0625 0.0000 0.0000)">
          <path d="M 378.8771,187.5721 C 383.5430,187.5721 387.2758,182.9062 387.2758,175.4406 C 387.2758,168.9082 383.5430,163.3091 378.8771,163.3091 C 374.2111,163.3091 370.4783,168.9082 370.4783,175.4406 C 370.4783,182.9062 374.2111,187.5721 378.8771,187.5721 " fill="#1A1A1A" stroke="none"/>
        </g>
        <g transform="matrix(1.0000 0.0000 0.0000 1.0000 0.0000 0.0000)">
</g>
        <g transform="matrix(0.0625 0.0000 0.0000 0.0625 0.0000 0.0000)">
          <path d="M 462.8646,447.9335 C 474.0629,433.9356 502.9920,420.8708 508.5911,418.0712 C 509.5243,418.0712 509.5243,418.0712 509.5243,418.0712 C 509.5243,418.0712 519.7895,411.5389 516.0567,402.2069 C 514.1903,398.4742 509.5243,393.8082 499.2592,390.0754 C 499.2592,390.0754 488.9940,380.7435 487.1277,362.0796 C 487.1277,352.7476 470.3301,345.2821 447.9335,360.2132 C 447.9335,360.2132 443.2675,363.9459 434.8687,355.5472 C 426.4700,347.1484 416.2049,354.6140 416.2049,365.8123 C 416.2049,365.8123 419.0044,396.6078 413.4053,435.8019 C 413.4053,435.8019 410.6057,452.5994 425.5368,459.1318 C 425.5368,459.1318 445.1339,469.3970 462.8646,447.9335 " fill="#F4BD18" stroke="none"/>
        </g>
        <g transform="matrix(1.0000 0.0000 0.0000 1.0000 0.0000 0.0000)">
</g>
        <g transform="matrix(0.0625 0.0000 0.0000 0.0625 0.0000 0.0000)">
          <path d="M 462.8646,447.9335 M 462.8646,447.9335 C 474.0629,433.9356 502.9920,420.8708 508.5911,418.0712 C 509.5243,418.0712 509.5243,418.0712 509.5243,418.0712 C 509.5243,418.0712 519.7895,411.5389 516.0567,402.2069 C 514.1903,398.4742 509.5243,393.8082 499.2592,390.0754 C 499.2592,390.0754 488.9940,380.7435 487.1277,362.0796 C 487.1277,352.7476 470.3301,345.2821 447.9335,360.2132 C 447.9335,360.2132 443.2675,363.9459 434.8687,355.5472 C 426.4700,347.1484 416.2049,354.6140 416.2049,365.8123 C 416.2049,365.8123 419.0044,396.6078 413.4053,435.8019 C 413.4053,435.8019 410.6057,452.5994 425.5368,459.1318 C 425.5368,459.1318 445.1339,469.3970 462.8646,447.9335 " stroke="#1A1A1A" stroke-width="3.7328" stroke-linecap="round" stroke-linejoin="round" fill="none"/>
        </g>
        <g transform="matrix(1.0000 0.0000 0.0000 1.0000 0.0000 0.0000)">
</g>
        <g transform="matrix(0.0625 0.0000 0.0000 0.0625 0.0000 0.0000)">
          <path d="M 446.0671,377.0107 C 471.2633,384.4762 482.4617,355.5472 482.4617,355.5472 C 452.5994,332.2173 440.4679,349.0148 440.4679,349.0148 C 430.2028,368.6119 446.0671,377.0107 446.0671,377.0107 " fill="#1A1A1A" stroke="none"/>
        </g>
        <g transform="matrix(1.0000 0.0000 0.0000 1.0000 0.0000 0.0000)">
</g>
        <g transform="matrix(0.0625 0.0000 0.0000 0.0625 0.0000 0.0000)">
          <path d="M 289.2904,456.3322 C 318.2194,468.4638 325.6850,448.8667 325.6850,448.8667 C 333.1505,445.1339 331.2841,434.8687 331.2841,434.8687 C 326.6182,413.4053 283.6912,357.4136 283.6912,357.4136 C 277.1588,347.1484 259.4281,341.5493 256.6286,354.6140 C 252.8958,367.6787 247.2966,366.7455 247.2966,366.7455 C 216.5012,364.8791 217.4344,377.9439 221.1672,389.1422 C 224.8999,403.1401 222.1003,411.5389 222.1003,411.5389 C 208.1024,432.0692 224.8999,436.7351 224.8999,436.7351 C 224.8999,436.7351 260.3613,443.2675 289.2904,456.3322 " fill="#F4BD18" stroke="none"/>
        </g>
        <g transform="matrix(1.0000 0.0000 0.0000 1.0000 0.0000 0.0000)">
</g>
        <g transform="matrix(0.0625 0.0000 0.0000 0.0625 0.0000 0.0000)">
          <path d="M 289.2904,456.3322 M 289.2904,456.3322 C 318.2194,468.4638 325.6850,448.8667 325.6850,448.8667 C 333.1505,445.1339 331.2841,434.8687 331.2841,434.8687 C 326.6182,413.4053 283.6912,357.4136 283.6912,357.4136 C 277.1588,347.1484 259.4281,341.5493 256.6286,354.6140 C 252.8958,367.6787 247.2966,366.7455 247.2966,366.7455 C 216.5012,364.8791 217.4344,377.9439 221.1672,389.1422 C 224.8999,403.1401 222.1003,411.5389 222.1003,411.5389 C 208.1024,432.0692 224.8999,436.7351 224.8999,436.7351 C 224.8999,436.7351 260.3613,443.2675 289.2904,456.3322 " stroke="#1A1A1A" stroke-width="3.7328" stroke-linecap="round" stroke-linejoin="round" fill="none"/>
        </g>
        <g transform="matrix(1.0000 0.0000 0.0000 1.0000 0.0000 0.0000)">
</g>
        <g transform="matrix(0.0625 0.0000 0.0000 0.0625 0.0000 0.0000)">
          <path d="M 340.6161,183.8394 C 340.6161,183.8394 311.6870,199.7037 326.6182,207.1692 C 326.6182,207.1692 334.0837,216.5012 336.8833,223.0335 C 339.6829,228.6327 358.3468,239.8310 374.2111,223.9667 C 374.2111,223.9667 385.4094,213.7016 394.7414,210.9020 C 394.7414,210.9020 405.9397,196.9041 389.1422,191.3049 C 389.1422,191.3049 382.6098,189.4385 377.9439,187.5721 C 377.9439,187.5721 358.3468,172.6410 340.6161,183.8394 " fill="#F4BD18" stroke="none"/>
        </g>
        <g transform="matrix(1.0000 0.0000 0.0000 1.0000 0.0000 0.0000)">
</g>
        <g transform="matrix(0.0625 0.0000 0.0000 0.0625 0.0000 0.0000)">
          <path d="M 340.6161,183.8394 M 340.6161,183.8394 C 340.6161,183.8394 311.6870,199.7037 326.6182,207.1692 C 326.6182,207.1692 334.0837,216.5012 336.8833,223.0335 C 339.6829,228.6327 358.3468,239.8310 374.2111,223.9667 C 374.2111,223.9667 385.4094,213.7016 394.7414,210.9020 C 394.7414,210.9020 405.9397,196.9041 389.1422,191.3049 C 389.1422,191.3049 382.6098,189.4385 377.9439,187.5721 C 377.9439,187.5721 358.3468,172.6410 340.6161,183.8394 " stroke="#1A1A1A" stroke-width="3.7328" stroke-linecap="round" stroke-linejoin="round" fill="none"/>
        </g>
        <g transform="matrix(1.0000 0.0000 0.0000 1.0000 0.0000 0.0000)">
</g>
        <g transform="matrix(0.0625 0.0000 0.0000 0.0625 0.0000 0.0000)">
          <path d="M 340.6161,183.8394 M 326.6182,207.1692 C 326.6182,207.1692 335.0169,216.5012 348.0816,216.5012 C 348.0816,216.5012 372.3447,215.5680 387.2758,199.7037 " stroke="#1A1A1A" stroke-width="2.7996" stroke-linecap="round" stroke-linejoin="round" fill="none"/>
        </g>
        <g transform="matrix(1.0000 0.0000 0.0000 1.0000 0.0000 0.0000)">
</g>
      </g>
      <!--emf-blob end-->
    </g>
  </g>
</svg>
