<svg xmlns="http://www.w3.org/2000/svg" xmlns:xlink="http://www.w3.org/1999/xlink" version="1.1" width="48.2400000000" height="57.6000000000">
  <title><![CDATA[Log]]></title>
  <g transform=" scale(1.000000) ">
    <text xmlns="http://www.w3.org/2000/svg" x="20.4380" y="57.6000">
      <tspan font-family="Arial" font-size="4.5000" fill="#000000" fill-opacity="1.0000" stroke-opacity="1.0000">
Log</tspan>
    </text>
    <!--converted by libvisio2svg-->
    <g transform=" translate(-1.164600,-1.119700) ">
      <!--emf-blob start-->
      <g transform="translate(-1.0317, -1.0317)">
        <g transform="matrix(0.0625 0.0000 0.0000 0.0625 0.0000 0.0000)">
          <path d="M 18.5708,18.5708 L 18.5708,970.8427 L 820.2125,970.8427 L 820.2125,18.5708 L 18.5708,18.5708 Z" stroke-width="1px" stroke="#1A1A1A" fill="#1A1A1A"/>
        </g>
        <g transform="matrix(1.0000 0.0000 0.0000 1.0000 0.0000 0.0000)">
</g>
        <g transform="matrix(0.0625 0.0000 0.0000 0.0625 0.0000 0.0000)">
          <path d="M 58.8077,58.8077 L 58.8077,930.6058 L 779.9756,930.6058 L 779.9756,58.8077 L 58.8077,58.8077 Z" stroke-width="1px" stroke="#E6E6E6" fill="#E6E6E6"/>
        </g>
        <g transform="matrix(1.0000 0.0000 0.0000 1.0000 0.0000 0.0000)">
</g>
        <g transform="matrix(0.0625 0.0000 0.0000 0.0625 0.0000 0.0000)">
          <path d="M 58.8077,930.6058 L 779.9756,930.6058 L 779.9756,58.8077 L 58.8077,58.8077 L 58.8077,930.6058 Z" stroke="#1A1A1A" stroke-width="7.2220" stroke-linecap="round" stroke-linejoin="round" fill="none"/>
        </g>
        <g transform="matrix(1.0000 0.0000 0.0000 1.0000 0.0000 0.0000)">
</g>
        <g transform="matrix(0.0625 0.0000 0.0000 0.0625 0.0000 0.0000)">
          <path d="M 83.5688,82.5371 L 83.5688,904.8130 L 141.3448,904.8130 L 141.3448,82.5371 L 83.5688,82.5371 Z" stroke-width="1px" stroke="#666666" fill="#666666"/>
        </g>
        <g transform="matrix(1.0000 0.0000 0.0000 1.0000 0.0000 0.0000)">
</g>
        <g transform="matrix(0.0625 0.0000 0.0000 0.0625 0.0000 0.0000)">
          <path d="M 84.6005,137.2179 L 84.6005,552.9986 L 140.3131,552.9986 L 140.3131,137.2179 L 84.6005,137.2179 Z" stroke-width="1px" stroke="#1A1A1A" fill="#1A1A1A"/>
        </g>
        <g transform="matrix(1.0000 0.0000 0.0000 1.0000 0.0000 0.0000)">
</g>
        <g transform="matrix(0.0625 0.0000 0.0000 0.0625 0.0000 0.0000)">
          <path d="M 84.6005,344.5924 L 140.3131,344.5924 L 140.3131,334.2753 L 84.6005,334.2753 L 84.6005,344.5924 Z M 84.6005,293.0067 L 140.3131,293.0067 L 140.3131,282.6896 L 84.6005,282.6896 L 84.6005,293.0067 Z M 84.6005,242.4527 L 140.3131,242.4527 L 140.3131,231.1039 L 84.6005,231.1039 L 84.6005,242.4527 Z M 84.6005,190.8671 L 140.3131,190.8671 L 140.3131,179.5182 L 84.6005,179.5182 L 84.6005,190.8671 Z M 84.6005,498.3178 L 140.3131,498.3178 L 140.3131,488.0006 L 84.6005,488.0006 L 84.6005,498.3178 Z M 84.6005,446.7321 L 140.3131,446.7321 L 140.3131,436.4149 L 84.6005,436.4149 L 84.6005,446.7321 Z M 84.6005,396.1781 L 140.3131,396.1781 L 140.3131,384.8292 L 84.6005,384.8292 L 84.6005,396.1781 Z " fill="#4D4D4D" stroke-width="1px" stroke="#4D4D4D"/>
        </g>
        <g transform="matrix(1.0000 0.0000 0.0000 1.0000 0.0000 0.0000)">
</g>
        <g transform="matrix(0.0625 0.0000 0.0000 0.0625 0.0000 0.0000)">
          <path d="M 197.0573,347.6875 L 711.8825,347.6875 L 711.8825,328.0850 L 197.0573,328.0850 L 197.0573,347.6875 Z M 197.0573,205.3110 L 711.8825,205.3110 L 711.8825,186.7402 L 197.0573,186.7402 L 197.0573,205.3110 Z M 197.0573,631.4088 L 711.8825,631.4088 L 711.8825,611.8063 L 197.0573,611.8063 L 197.0573,631.4088 Z M 197.0573,489.0323 L 711.8825,489.0323 L 711.8825,470.4615 L 197.0573,470.4615 L 197.0573,489.0323 Z M 197.0573,772.7536 L 711.8825,772.7536 L 711.8825,754.1828 L 197.0573,754.1828 L 197.0573,772.7536 Z " fill="#4D4D4D" stroke-width="1px" stroke="#4D4D4D"/>
        </g>
        <g transform="matrix(1.0000 0.0000 0.0000 1.0000 0.0000 0.0000)">
</g>
      </g>
      <!--emf-blob end-->
    </g>
  </g>
</svg>
