<svg xmlns="http://www.w3.org/2000/svg" xmlns:xlink="http://www.w3.org/1999/xlink" version="1.1" width="45.3543000000" height="7.2000000000">
  <title><![CDATA[Moveable Pointer]]></title>
  <g transform=" scale(1.000000) ">
    <!--converted by libvisio2svg-->
    <g transform=" translate(22.4176, -3.6365)  scale(1, 1)  rotate(-1.1369)  translate(-22.4176, 3.6365)  translate(16.972800,-16.161500) ">
      <!--emf-blob start-->
      <g transform="translate(0.8377, 0.8377)">
        <g transform="matrix(0.0625 0.0000 0.0000 0.0625 0.0000 0.0000)">
          <path d="M 118.9479,255.4868 L 82.9285,25.9675 C 82.0908,21.7792 84.6038,15.9156 74.5519,15.9156 C 69.5259,15.9156 59.4740,17.5909 56.9610,27.6428 L 15.9156,255.4868 C 12.5649,290.6686 45.2337,319.1490 67.0129,319.1490 C 88.7921,319.1490 123.1362,290.6686 118.9479,255.4868 Z M 69.5259,289.8309 C 53.6103,289.8309 40.2078,276.4283 40.2078,259.6751 C 40.2078,243.7595 53.6103,230.3569 69.5259,230.3569 C 86.2791,230.3569 99.6817,243.7595 99.6817,259.6751 C 99.6817,276.4283 86.2791,289.8309 69.5259,289.8309 Z " fill="#1A1A1A" stroke="none"/>
        </g>
        <g transform="matrix(1.0000 0.0000 0.0000 1.0000 0.0000 0.0000)">
</g>
        <g transform="matrix(0.0625 0.0000 0.0000 0.0625 0.0000 0.0000)">
          <path d="M 118.9479,255.4868 L 82.9285,25.9675 C 82.0908,21.7792 84.6038,15.9156 74.5519,15.9156 C 69.5259,15.9156 59.4740,17.5909 56.9610,27.6428 L 15.9156,255.4868 C 12.5649,290.6686 45.2337,319.1490 67.0129,319.1490 C 88.7921,319.1490 123.1362,290.6686 118.9479,255.4868 Z M 69.5259,289.8309 C 53.6103,289.8309 40.2078,276.4283 40.2078,259.6751 C 40.2078,243.7595 53.6103,230.3569 69.5259,230.3569 C 86.2791,230.3569 99.6817,243.7595 99.6817,259.6751 C 99.6817,276.4283 86.2791,289.8309 69.5259,289.8309 Z " stroke="#1A1A1A" stroke-width="8.3766" stroke-linecap="round" stroke-linejoin="round" fill="none"/>
        </g>
        <g transform="matrix(1.0000 0.0000 0.0000 1.0000 0.0000 0.0000)">
          <path d="M 8.3766,16.7532 L 5.8636,1.6753 C 5.8636,1.6753 5.8636,1.6753 5.0260,1.6753 C 5.0260,1.6753 5.0260,1.6753 5.0260,1.6753 L 1.6753,16.7532 C 1.6753,18.4286 4.1883,20.1039 5.0260,20.1039 C 6.7013,20.1039 8.3766,18.4286 8.3766,16.7532 Z M 5.0260,18.4286 C 4.1883,18.4286 3.3506,17.5909 3.3506,16.7532 C 3.3506,15.9156 4.1883,15.0779 5.0260,15.0779 C 6.7013,15.0779 7.5390,15.9156 7.5390,16.7532 C 7.5390,17.5909 6.7013,18.4286 5.0260,18.4286 Z " fill="none" stroke="none"/>
          <defs>
            <clipPath id="clip-110613202">
              <path d="M 8.3766,16.7532 L 5.8636,1.6753 C 5.8636,1.6753 5.8636,1.6753 5.0260,1.6753 C 5.0260,1.6753 5.0260,1.6753 5.0260,1.6753 L 1.6753,16.7532 C 1.6753,18.4286 4.1883,20.1039 5.0260,20.1039 C 6.7013,20.1039 8.3766,18.4286 8.3766,16.7532 M 5.0260,18.4286 C 4.1883,18.4286 3.3506,17.5909 3.3506,16.7532 C 3.3506,15.9156 4.1883,15.0779 5.0260,15.0779 C 6.7013,15.0779 7.5390,15.9156 7.5390,16.7532 C 7.5390,17.5909 6.7013,18.4286 5.0260,18.4286 Z"/>
            </clipPath>
          </defs>
          <path clip-path="url(#clip-110613202)" d="M 0.8377,0.8377 L 0.8377,1.6753 L 8.3766,1.6753 L 8.3766,0.8377 L 0.8377,0.8377 Z" stroke-width="1px" stroke="#676767" fill="#676767"/>
          <path clip-path="url(#clip-110613202)" d="M 0.8377,1.6753 L 0.8377,2.5130 L 8.3766,2.5130 L 8.3766,1.6753 L 0.8377,1.6753 Z" stroke-width="1px" stroke="#BDBDBD" fill="#BDBDBD"/>
          <path clip-path="url(#clip-110613202)" d="M 0.8377,2.5130 L 0.8377,3.3506 L 8.3766,3.3506 L 8.3766,2.5130 L 0.8377,2.5130 Z" stroke-width="1px" stroke="#B9B9B9" fill="#B9B9B9"/>
          <path clip-path="url(#clip-110613202)" d="M 0.8377,3.3506 L 0.8377,4.1883 L 8.3766,4.1883 L 8.3766,3.3506 L 0.8377,3.3506 Z" stroke-width="1px" stroke="#B5B5B5" fill="#B5B5B5"/>
          <path clip-path="url(#clip-110613202)" d="M 0.8377,4.1883 L 0.8377,5.0260 L 8.3766,5.0260 L 8.3766,4.1883 L 0.8377,4.1883 Z" stroke-width="1px" stroke="#B1B1B1" fill="#B1B1B1"/>
          <path clip-path="url(#clip-110613202)" d="M 0.8377,5.0260 L 0.8377,5.8636 L 8.3766,5.8636 L 8.3766,5.0260 L 0.8377,5.0260 Z" stroke-width="1px" stroke="#ADADAD" fill="#ADADAD"/>
          <path clip-path="url(#clip-110613202)" d="M 0.8377,5.8636 L 0.8377,6.7013 L 8.3766,6.7013 L 8.3766,5.8636 L 0.8377,5.8636 Z" stroke-width="1px" stroke="#AAAAAA" fill="#AAAAAA"/>
          <path clip-path="url(#clip-110613202)" d="M 0.8377,6.7013 L 0.8377,7.5390 L 8.3766,7.5390 L 8.3766,6.7013 L 0.8377,6.7013 Z" stroke-width="1px" stroke="#A5A5A5" fill="#A5A5A5"/>
          <path clip-path="url(#clip-110613202)" d="M 0.8377,7.5390 L 0.8377,8.3766 L 8.3766,8.3766 L 8.3766,7.5390 L 0.8377,7.5390 Z" stroke-width="1px" stroke="#A1A1A1" fill="#A1A1A1"/>
          <path clip-path="url(#clip-110613202)" d="M 0.8377,8.3766 L 0.8377,9.2143 L 8.3766,9.2143 L 8.3766,8.3766 L 0.8377,8.3766 Z" stroke-width="1px" stroke="#9D9D9D" fill="#9D9D9D"/>
          <path clip-path="url(#clip-110613202)" d="M 0.8377,9.2143 L 0.8377,10.0519 L 8.3766,10.0519 L 8.3766,9.2143 L 0.8377,9.2143 Z" stroke-width="1px" stroke="#999999" fill="#999999"/>
          <path clip-path="url(#clip-110613202)" d="M 0.8377,10.0519 L 0.8377,10.8896 L 8.3766,10.8896 L 8.3766,10.0519 L 0.8377,10.0519 Z" stroke-width="1px" stroke="#959595" fill="#959595"/>
          <path clip-path="url(#clip-110613202)" d="M 0.8377,10.8896 L 0.8377,11.7273 L 8.3766,11.7273 L 8.3766,10.8896 L 0.8377,10.8896 Z" stroke-width="1px" stroke="#919191" fill="#919191"/>
          <path clip-path="url(#clip-110613202)" d="M 0.8377,11.7273 L 0.8377,12.5649 L 8.3766,12.5649 L 8.3766,11.7273 L 0.8377,11.7273 Z" stroke-width="1px" stroke="#8D8D8D" fill="#8D8D8D"/>
          <path clip-path="url(#clip-110613202)" d="M 0.8377,12.5649 L 0.8377,13.4026 L 8.3766,13.4026 L 8.3766,12.5649 L 0.8377,12.5649 Z" stroke-width="1px" stroke="#898989" fill="#898989"/>
          <path clip-path="url(#clip-110613202)" d="M 0.8377,13.4026 L 0.8377,14.2402 L 8.3766,14.2402 L 8.3766,13.4026 L 0.8377,13.4026 Z" stroke-width="1px" stroke="#858585" fill="#858585"/>
          <path clip-path="url(#clip-110613202)" d="M 0.8377,14.2402 L 0.8377,15.0779 L 8.3766,15.0779 L 8.3766,14.2402 L 0.8377,14.2402 Z" stroke-width="1px" stroke="#818181" fill="#818181"/>
          <path clip-path="url(#clip-110613202)" d="M 0.8377,15.0779 L 0.8377,15.9156 L 8.3766,15.9156 L 8.3766,15.0779 L 0.8377,15.0779 Z" stroke-width="1px" stroke="#7E7E7E" fill="#7E7E7E"/>
          <path clip-path="url(#clip-110613202)" d="M 0.8377,15.9156 L 0.8377,16.7532 L 8.3766,16.7532 L 8.3766,15.9156 L 0.8377,15.9156 Z" stroke-width="1px" stroke="#7A7A7A" fill="#7A7A7A"/>
          <path clip-path="url(#clip-110613202)" d="M 0.8377,16.7532 L 0.8377,17.5909 L 8.3766,17.5909 L 8.3766,16.7532 L 0.8377,16.7532 Z" stroke-width="1px" stroke="#757575" fill="#757575"/>
          <path clip-path="url(#clip-110613202)" d="M 0.8377,17.5909 L 0.8377,18.4286 L 8.3766,18.4286 L 8.3766,17.5909 L 0.8377,17.5909 Z" stroke-width="1px" stroke="#717171" fill="#717171"/>
          <path clip-path="url(#clip-110613202)" d="M 0.8377,18.4286 L 0.8377,19.2662 L 8.3766,19.2662 L 8.3766,18.4286 L 0.8377,18.4286 Z" stroke-width="1px" stroke="#6D6D6D" fill="#6D6D6D"/>
          <path clip-path="url(#clip-110613202)" d="M 0.8377,19.2662 L 0.8377,20.1039 L 8.3766,20.1039 L 8.3766,19.2662 L 0.8377,19.2662 Z" stroke-width="1px" stroke="#6A6A6A" fill="#6A6A6A"/>
        </g>
        <g transform="matrix(0.0625 0.0000 0.0000 0.0625 0.0000 0.0000)">
          <path d="M 130.6752,256.3244 L 87.9545,25.1298 C 87.1168,20.1039 83.7662,17.5909 78.7402,17.5909 C 73.7142,17.5909 70.3636,20.1039 69.5259,25.1298 L 27.6428,256.3244 C 23.4545,291.5062 54.4480,319.9867 76.2272,319.9867 C 98.0064,319.9867 134.8635,291.5062 130.6752,256.3244 M 78.7402,289.8309 C 62.8246,289.8309 49.4220,277.2660 49.4220,260.5127 C 49.4220,243.7595 62.8246,230.3569 78.7402,230.3569 C 95.4934,230.3569 108.8960,243.7595 108.8960,260.5127 C 108.8960,277.2660 95.4934,289.8309 78.7402,289.8309 " stroke="#1A1A1A" stroke-width="8.3766" stroke-linecap="round" stroke-linejoin="round" fill="none"/>
        </g>
        <g transform="matrix(1.0000 0.0000 0.0000 1.0000 0.0000 0.0000)">
</g>
      </g>
      <!--emf-blob end-->
    </g>
  </g>
</svg>
