<svg xmlns="http://www.w3.org/2000/svg" xmlns:xlink="http://www.w3.org/1999/xlink" version="1.1" width="32.0315000000" height="56.6100000000">
  <title><![CDATA[MultiStore]]></title>
  <g transform=" scale(1.000000) ">
    <text xmlns="http://www.w3.org/2000/svg" x="5.8875" y="56.6100">
      <tspan font-family="Arial" font-size="4.5000" fill="#000000" fill-opacity="1.0000" stroke-opacity="1.0000">
MultiStore</tspan>
    </text>
    <!--converted by libvisio2svg-->
    <g transform=" translate(-1.158000,-1.206100) ">
      <!--emf-blob start-->
      <g transform="translate(0.9543, 0.9543)">
        <path d="M 32.4472,2.8630 C 32.4472,1.9087 31.4929,1.9087 29.5842,1.9087 L 7.6346,1.9087 C 5.7260,1.9087 4.7717,1.9087 4.7717,2.8630 L 4.7717,54.3968 C 4.7717,55.3512 5.7260,55.3512 6.6803,55.3512 C 7.6346,55.3512 7.6346,55.3512 7.6346,55.3512 L 29.5842,55.3512 C 31.4929,55.3512 32.4472,55.3512 32.4472,54.3968 L 32.4472,2.8630 Z " fill="none" stroke="none"/>
        <defs>
          <clipPath id="clip-776532036">
            <path d="M 32.4472,2.8630 C 32.4472,1.9087 31.4929,1.9087 29.5842,1.9087 L 7.6346,1.9087 C 5.7260,1.9087 4.7717,1.9087 4.7717,2.8630 L 4.7717,54.3968 C 4.7717,55.3512 5.7260,55.3512 6.6803,55.3512 C 7.6346,55.3512 7.6346,55.3512 7.6346,55.3512 L 29.5842,55.3512 C 31.4929,55.3512 32.4472,55.3512 32.4472,54.3968 L 32.4472,2.8630 Z"/>
          </clipPath>
        </defs>
        <path clip-path="url(#clip-776532036)" d="M 3.8173,0.9543 L 3.8173,1.9087 L 31.4929,1.9087 L 31.4929,0.9543 L 3.8173,0.9543 Z" stroke-width="1px" stroke="#64B5E6" fill="#64B5E6"/>
        <path clip-path="url(#clip-776532036)" d="M 3.8173,1.9087 L 3.8173,2.8630 L 31.4929,2.8630 L 31.4929,1.9087 L 3.8173,1.9087 Z" stroke-width="1px" stroke="#1E88CD" fill="#1E88CD"/>
        <path clip-path="url(#clip-776532036)" d="M 3.8173,2.8630 L 3.8173,3.8173 L 31.4929,3.8173 L 31.4929,2.8630 L 3.8173,2.8630 Z" stroke-width="1px" stroke="#1F89CE" fill="#1F89CE"/>
        <path clip-path="url(#clip-776532036)" d="M 3.8173,3.8173 L 3.8173,4.7717 L 31.4929,4.7717 L 31.4929,3.8173 L 3.8173,3.8173 Z" stroke-width="1px" stroke="#2089CF" fill="#2089CF"/>
        <path clip-path="url(#clip-776532036)" d="M 3.8173,4.7717 L 3.8173,5.7260 L 31.4929,5.7260 L 31.4929,4.7717 L 3.8173,4.7717 Z" stroke-width="1px" stroke="#218ACF" fill="#218ACF"/>
        <path clip-path="url(#clip-776532036)" d="M 3.8173,5.7260 L 3.8173,6.6803 L 31.4929,6.6803 L 31.4929,5.7260 L 3.8173,5.7260 Z" stroke-width="1px" stroke="#238BCF" fill="#238BCF"/>
        <path clip-path="url(#clip-776532036)" d="M 3.8173,6.6803 L 3.8173,7.6346 L 31.4929,7.6346 L 31.4929,6.6803 L 3.8173,6.6803 Z" stroke-width="1px" stroke="#248CD0" fill="#248CD0"/>
        <path clip-path="url(#clip-776532036)" d="M 3.8173,7.6346 L 3.8173,8.5890 L 31.4929,8.5890 L 31.4929,7.6346 L 3.8173,7.6346 Z" stroke-width="1px" stroke="#268DD0" fill="#268DD0"/>
        <path clip-path="url(#clip-776532036)" d="M 3.8173,8.5890 L 3.8173,9.5433 L 31.4929,9.5433 L 31.4929,8.5890 L 3.8173,8.5890 Z" stroke-width="1px" stroke="#278ED0" fill="#278ED0"/>
        <path clip-path="url(#clip-776532036)" d="M 3.8173,9.5433 L 3.8173,10.4976 L 31.4929,10.4976 L 31.4929,9.5433 L 3.8173,9.5433 Z" stroke-width="1px" stroke="#288ED1" fill="#288ED1"/>
        <path clip-path="url(#clip-776532036)" d="M 3.8173,10.4976 L 3.8173,11.4520 L 31.4929,11.4520 L 31.4929,10.4976 L 3.8173,10.4976 Z" stroke-width="1px" stroke="#298FD2" fill="#298FD2"/>
        <path clip-path="url(#clip-776532036)" d="M 3.8173,11.4520 L 3.8173,12.4063 L 31.4929,12.4063 L 31.4929,11.4520 L 3.8173,11.4520 Z" stroke-width="1px" stroke="#2A90D2" fill="#2A90D2"/>
        <path clip-path="url(#clip-776532036)" d="M 3.8173,12.4063 L 3.8173,13.3606 L 31.4929,13.3606 L 31.4929,12.4063 L 3.8173,12.4063 Z" stroke-width="1px" stroke="#2C91D2" fill="#2C91D2"/>
        <path clip-path="url(#clip-776532036)" d="M 3.8173,13.3606 L 3.8173,14.3150 L 31.4929,14.3150 L 31.4929,13.3606 L 3.8173,13.3606 Z" stroke-width="1px" stroke="#2D92D3" fill="#2D92D3"/>
        <path clip-path="url(#clip-776532036)" d="M 3.8173,14.3150 L 3.8173,15.2693 L 31.4929,15.2693 L 31.4929,14.3150 L 3.8173,14.3150 Z" stroke-width="1px" stroke="#2F93D3" fill="#2F93D3"/>
        <path clip-path="url(#clip-776532036)" d="M 3.8173,15.2693 L 3.8173,16.2236 L 31.4929,16.2236 L 31.4929,15.2693 L 3.8173,15.2693 Z" stroke-width="1px" stroke="#3093D3" fill="#3093D3"/>
        <path clip-path="url(#clip-776532036)" d="M 3.8173,16.2236 L 3.8173,17.1779 L 31.4929,17.1779 L 31.4929,16.2236 L 3.8173,16.2236 Z" stroke-width="1px" stroke="#3194D4" fill="#3194D4"/>
        <path clip-path="url(#clip-776532036)" d="M 3.8173,17.1779 L 3.8173,18.1323 L 31.4929,18.1323 L 31.4929,17.1779 L 3.8173,17.1779 Z" stroke-width="1px" stroke="#3295D5" fill="#3295D5"/>
        <path clip-path="url(#clip-776532036)" d="M 3.8173,18.1323 L 3.8173,19.0866 L 31.4929,19.0866 L 31.4929,18.1323 L 3.8173,18.1323 Z" stroke-width="1px" stroke="#3395D5" fill="#3395D5"/>
        <path clip-path="url(#clip-776532036)" d="M 3.8173,19.0866 L 3.8173,20.0409 L 31.4929,20.0409 L 31.4929,19.0866 L 3.8173,19.0866 Z" stroke-width="1px" stroke="#3596D5" fill="#3596D5"/>
        <path clip-path="url(#clip-776532036)" d="M 3.8173,20.0409 L 3.8173,20.9953 L 31.4929,20.9953 L 31.4929,20.0409 L 3.8173,20.0409 Z" stroke-width="1px" stroke="#3697D6" fill="#3697D6"/>
        <path clip-path="url(#clip-776532036)" d="M 3.8173,20.9953 L 3.8173,21.9496 L 31.4929,21.9496 L 31.4929,20.9953 L 3.8173,20.9953 Z" stroke-width="1px" stroke="#3798D6" fill="#3798D6"/>
        <path clip-path="url(#clip-776532036)" d="M 3.8173,21.9496 L 3.8173,22.9039 L 31.4929,22.9039 L 31.4929,21.9496 L 3.8173,21.9496 Z" stroke-width="1px" stroke="#3999D6" fill="#3999D6"/>
        <path clip-path="url(#clip-776532036)" d="M 3.8173,22.9039 L 3.8173,23.8583 L 31.4929,23.8583 L 31.4929,22.9039 L 3.8173,22.9039 Z" stroke-width="1px" stroke="#3A99D7" fill="#3A99D7"/>
        <path clip-path="url(#clip-776532036)" d="M 3.8173,23.8583 L 3.8173,24.8126 L 31.4929,24.8126 L 31.4929,23.8583 L 3.8173,23.8583 Z" stroke-width="1px" stroke="#3B9AD7" fill="#3B9AD7"/>
        <path clip-path="url(#clip-776532036)" d="M 3.8173,24.8126 L 3.8173,25.7669 L 31.4929,25.7669 L 31.4929,24.8126 L 3.8173,24.8126 Z" stroke-width="1px" stroke="#3C9BD8" fill="#3C9BD8"/>
        <path clip-path="url(#clip-776532036)" d="M 3.8173,25.7669 L 3.8173,26.7213 L 31.4929,26.7213 L 31.4929,25.7669 L 3.8173,25.7669 Z" stroke-width="1px" stroke="#3D9CD9" fill="#3D9CD9"/>
        <path clip-path="url(#clip-776532036)" d="M 3.8173,26.7213 L 3.8173,27.6756 L 31.4929,27.6756 L 31.4929,26.7213 L 3.8173,26.7213 Z" stroke-width="1px" stroke="#3F9DD9" fill="#3F9DD9"/>
        <path clip-path="url(#clip-776532036)" d="M 3.8173,27.6756 L 3.8173,28.6299 L 31.4929,28.6299 L 31.4929,27.6756 L 3.8173,27.6756 Z" stroke-width="1px" stroke="#409EDA" fill="#409EDA"/>
        <path clip-path="url(#clip-776532036)" d="M 3.8173,28.6299 L 3.8173,29.5842 L 31.4929,29.5842 L 31.4929,28.6299 L 3.8173,28.6299 Z" stroke-width="1px" stroke="#429EDA" fill="#429EDA"/>
        <path clip-path="url(#clip-776532036)" d="M 3.8173,29.5842 L 3.8173,30.5386 L 31.4929,30.5386 L 31.4929,29.5842 L 3.8173,29.5842 Z" stroke-width="1px" stroke="#439FDA" fill="#439FDA"/>
        <path clip-path="url(#clip-776532036)" d="M 3.8173,30.5386 L 3.8173,31.4929 L 31.4929,31.4929 L 31.4929,30.5386 L 3.8173,30.5386 Z" stroke-width="1px" stroke="#44A0DB" fill="#44A0DB"/>
        <path clip-path="url(#clip-776532036)" d="M 3.8173,31.4929 L 3.8173,32.4472 L 31.4929,32.4472 L 31.4929,31.4929 L 3.8173,31.4929 Z" stroke-width="1px" stroke="#45A1DB" fill="#45A1DB"/>
        <path clip-path="url(#clip-776532036)" d="M 3.8173,32.4472 L 3.8173,33.4016 L 31.4929,33.4016 L 31.4929,32.4472 L 3.8173,32.4472 Z" stroke-width="1px" stroke="#46A2DC" fill="#46A2DC"/>
        <path clip-path="url(#clip-776532036)" d="M 3.8173,33.4016 L 3.8173,34.3559 L 31.4929,34.3559 L 31.4929,33.4016 L 3.8173,33.4016 Z" stroke-width="1px" stroke="#47A3DC" fill="#47A3DC"/>
        <path clip-path="url(#clip-776532036)" d="M 3.8173,34.3559 L 3.8173,35.3102 L 31.4929,35.3102 L 31.4929,34.3559 L 3.8173,34.3559 Z" stroke-width="1px" stroke="#48A4DD" fill="#48A4DD"/>
        <path clip-path="url(#clip-776532036)" d="M 3.8173,35.3102 L 3.8173,36.2646 L 31.4929,36.2646 L 31.4929,35.3102 L 3.8173,35.3102 Z" stroke-width="1px" stroke="#4AA4DD" fill="#4AA4DD"/>
        <path clip-path="url(#clip-776532036)" d="M 3.8173,36.2646 L 3.8173,37.2189 L 31.4929,37.2189 L 31.4929,36.2646 L 3.8173,36.2646 Z" stroke-width="1px" stroke="#4BA5DD" fill="#4BA5DD"/>
        <path clip-path="url(#clip-776532036)" d="M 3.8173,37.2189 L 3.8173,38.1732 L 31.4929,38.1732 L 31.4929,37.2189 L 3.8173,37.2189 Z" stroke-width="1px" stroke="#4CA6DE" fill="#4CA6DE"/>
        <path clip-path="url(#clip-776532036)" d="M 3.8173,38.1732 L 3.8173,39.1276 L 31.4929,39.1276 L 31.4929,38.1732 L 3.8173,38.1732 Z" stroke-width="1px" stroke="#4EA7DE" fill="#4EA7DE"/>
        <path clip-path="url(#clip-776532036)" d="M 3.8173,39.1276 L 3.8173,40.0819 L 31.4929,40.0819 L 31.4929,39.1276 L 3.8173,39.1276 Z" stroke-width="1px" stroke="#4FA8DF" fill="#4FA8DF"/>
        <path clip-path="url(#clip-776532036)" d="M 3.8173,40.0819 L 3.8173,41.0362 L 31.4929,41.0362 L 31.4929,40.0819 L 3.8173,40.0819 Z" stroke-width="1px" stroke="#50A9DF" fill="#50A9DF"/>
        <path clip-path="url(#clip-776532036)" d="M 3.8173,41.0362 L 3.8173,41.9905 L 31.4929,41.9905 L 31.4929,41.0362 L 3.8173,41.0362 Z" stroke-width="1px" stroke="#51A9E0" fill="#51A9E0"/>
        <path clip-path="url(#clip-776532036)" d="M 3.8173,41.9905 L 3.8173,42.9449 L 31.4929,42.9449 L 31.4929,41.9905 L 3.8173,41.9905 Z" stroke-width="1px" stroke="#52AAE0" fill="#52AAE0"/>
        <path clip-path="url(#clip-776532036)" d="M 3.8173,42.9449 L 3.8173,43.8992 L 31.4929,43.8992 L 31.4929,42.9449 L 3.8173,42.9449 Z" stroke-width="1px" stroke="#54ABE0" fill="#54ABE0"/>
        <path clip-path="url(#clip-776532036)" d="M 3.8173,43.8992 L 3.8173,44.8535 L 31.4929,44.8535 L 31.4929,43.8992 L 3.8173,43.8992 Z" stroke-width="1px" stroke="#55ABE1" fill="#55ABE1"/>
        <path clip-path="url(#clip-776532036)" d="M 3.8173,44.8535 L 3.8173,45.8079 L 31.4929,45.8079 L 31.4929,44.8535 L 3.8173,44.8535 Z" stroke-width="1px" stroke="#57ACE1" fill="#57ACE1"/>
        <path clip-path="url(#clip-776532036)" d="M 3.8173,45.8079 L 3.8173,46.7622 L 31.4929,46.7622 L 31.4929,45.8079 L 3.8173,45.8079 Z" stroke-width="1px" stroke="#58ADE1" fill="#58ADE1"/>
        <path clip-path="url(#clip-776532036)" d="M 3.8173,46.7622 L 3.8173,47.7165 L 31.4929,47.7165 L 31.4929,46.7622 L 3.8173,46.7622 Z" stroke-width="1px" stroke="#59AEE2" fill="#59AEE2"/>
        <path clip-path="url(#clip-776532036)" d="M 3.8173,47.7165 L 3.8173,48.6709 L 31.4929,48.6709 L 31.4929,47.7165 L 3.8173,47.7165 Z" stroke-width="1px" stroke="#5AAEE3" fill="#5AAEE3"/>
        <path clip-path="url(#clip-776532036)" d="M 3.8173,48.6709 L 3.8173,49.6252 L 31.4929,49.6252 L 31.4929,48.6709 L 3.8173,48.6709 Z" stroke-width="1px" stroke="#5BAFE3" fill="#5BAFE3"/>
        <path clip-path="url(#clip-776532036)" d="M 3.8173,49.6252 L 3.8173,50.5795 L 31.4929,50.5795 L 31.4929,49.6252 L 3.8173,49.6252 Z" stroke-width="1px" stroke="#5DB0E3" fill="#5DB0E3"/>
        <path clip-path="url(#clip-776532036)" d="M 3.8173,50.5795 L 3.8173,51.5338 L 31.4929,51.5338 L 31.4929,50.5795 L 3.8173,50.5795 Z" stroke-width="1px" stroke="#5EB1E4" fill="#5EB1E4"/>
        <path clip-path="url(#clip-776532036)" d="M 3.8173,51.5338 L 3.8173,52.4882 L 31.4929,52.4882 L 31.4929,51.5338 L 3.8173,51.5338 Z" stroke-width="1px" stroke="#60B2E4" fill="#60B2E4"/>
        <path clip-path="url(#clip-776532036)" d="M 3.8173,52.4882 L 3.8173,53.4425 L 31.4929,53.4425 L 31.4929,52.4882 L 3.8173,52.4882 Z" stroke-width="1px" stroke="#61B3E4" fill="#61B3E4"/>
        <path clip-path="url(#clip-776532036)" d="M 3.8173,53.4425 L 3.8173,54.3968 L 31.4929,54.3968 L 31.4929,53.4425 L 3.8173,53.4425 Z" stroke-width="1px" stroke="#62B3E5" fill="#62B3E5"/>
        <path clip-path="url(#clip-776532036)" d="M 3.8173,54.3968 L 3.8173,55.3512 L 31.4929,55.3512 L 31.4929,54.3968 L 3.8173,54.3968 Z" stroke-width="1px" stroke="#63B4E6" fill="#63B4E6"/>
        <g transform="matrix(0.0625 0.0000 0.0000 0.0625 0.0000 0.0000)">
          <path d="M 507.7039,39.1276 C 507.7039,27.6756 490.5259,18.1323 470.4850,18.1323 L 111.6567,18.1323 C 91.6157,18.1323 74.4378,27.6756 74.4378,39.1276 L 74.4378,861.7605 C 74.4378,873.2125 88.7527,881.8014 106.8850,882.7558 C 108.7937,882.7558 109.7480,883.7101 111.6567,883.7101 L 470.4850,883.7101 C 490.5259,883.7101 507.7039,874.1668 507.7039,861.7605 L 507.7039,39.1276 " stroke="#0054A6" stroke-width="11.4520" stroke-linecap="round" stroke-linejoin="round" fill="none"/>
        </g>
        <g transform="matrix(1.0000 0.0000 0.0000 1.0000 0.0000 0.0000)">
</g>
        <g transform="matrix(0.0625 0.0000 0.0000 0.0625 0.0000 0.0000)">
          <path d="M 343.5590,458.0787 C 343.5590,444.7180 343.5590,433.2661 343.5590,421.8141 C 343.5590,390.3212 316.8377,366.4629 285.3448,366.4629 C 253.8519,366.4629 228.0850,390.3212 228.0850,421.8141 C 228.0850,431.3574 228.0850,445.6724 228.0850,457.1243 L 213.7700,457.1243 C 206.1354,457.1243 198.5008,462.8503 198.5008,470.4850 L 198.5008,609.8172 C 198.5008,617.4519 204.2267,623.1779 211.8614,623.1779 L 358.8283,623.1779 C 365.5086,623.1779 372.1889,617.4519 372.1889,609.8172 L 372.1889,475.2566 C 372.1889,468.5763 365.5086,458.0787 358.8283,458.0787 L 343.5590,458.0787 Z M 285.3448,392.2299 C 307.2944,392.2299 314.9291,401.7732 314.9291,421.8141 C 314.9291,433.2661 314.9291,444.7180 315.8834,458.0787 L 256.7149,458.0787 C 256.7149,445.6724 255.7606,431.3574 255.7606,421.8141 C 255.7606,401.7732 263.3952,392.2299 285.3448,392.2299 Z " fill="#FFFFFF" stroke="none"/>
        </g>
        <g transform="matrix(1.0000 0.0000 0.0000 1.0000 0.0000 0.0000)">
</g>
        <g transform="matrix(0.0625 0.0000 0.0000 0.0625 0.0000 0.0000)">
          <path d="M 343.5590,458.0787 C 343.5590,444.7180 343.5590,433.2661 343.5590,421.8141 C 343.5590,390.3212 316.8377,366.4629 285.3448,366.4629 C 253.8519,366.4629 228.0850,390.3212 228.0850,421.8141 C 228.0850,431.3574 228.0850,445.6724 228.0850,457.1243 L 213.7700,457.1243 C 206.1354,457.1243 198.5008,462.8503 198.5008,470.4850 L 198.5008,609.8172 C 198.5008,617.4519 204.2267,623.1779 211.8614,623.1779 L 358.8283,623.1779 C 365.5086,623.1779 372.1889,617.4519 372.1889,609.8172 L 372.1889,475.2566 C 372.1889,468.5763 365.5086,458.0787 358.8283,458.0787 L 343.5590,458.0787 Z M 285.3448,392.2299 C 307.2944,392.2299 314.9291,401.7732 314.9291,421.8141 C 314.9291,433.2661 314.9291,444.7180 315.8834,458.0787 L 256.7149,458.0787 C 256.7149,445.6724 255.7606,431.3574 255.7606,421.8141 C 255.7606,401.7732 263.3952,392.2299 285.3448,392.2299 Z " stroke="#0054A6" stroke-width="8.5890" stroke-linecap="round" stroke-linejoin="round" fill="none"/>
        </g>
        <g transform="matrix(1.0000 0.0000 0.0000 1.0000 0.0000 0.0000)">
</g>
        <g transform="matrix(0.0625 0.0000 0.0000 0.0625 0.0000 0.0000)">
          <path d="M 334.9700,181.3228 C 325.4267,181.3228 316.8377,177.5055 310.1574,171.7795 C 304.4314,167.0078 299.6598,159.3732 296.7968,149.8299 C 293.9338,141.2409 292.0251,130.7433 292.0251,119.2913 C 292.0251,100.2047 295.8425,84.9354 303.4771,73.4835 C 307.2944,67.7575 312.0661,63.9401 317.7921,61.0772 C 323.5181,58.2142 330.1984,56.3055 336.8787,56.3055 C 345.4677,56.3055 354.0566,59.1685 360.7369,64.8945 C 367.4173,70.6205 371.2346,77.3008 375.0519,86.8441 C 377.9149,95.4331 378.8692,105.9307 378.8692,117.3827 C 378.8692,136.4693 376.0062,151.7386 368.3716,162.2362 C 364.5543,167.9622 359.7826,172.7338 354.0566,176.5512 C 348.3307,179.4141 341.6503,181.3228 334.9700,181.3228 Z M 335.9244,82.0724 C 334.0157,82.0724 332.1070,83.0268 331.1527,83.9811 C 328.2897,85.8897 326.3810,89.7071 324.4724,96.3874 C 322.5637,102.1134 321.6094,109.7480 321.6094,119.2913 C 321.6094,131.6976 323.5181,141.2409 326.3810,146.9669 C 328.2897,149.8299 329.2440,151.7386 331.1527,153.6472 C 332.1070,154.6015 334.0157,154.6015 335.9244,154.6015 C 337.8330,154.6015 339.7417,154.6015 340.6960,152.6929 C 342.6047,151.7386 343.5590,149.8299 345.4677,146.9669 C 346.4220,143.1496 348.3307,137.4236 348.3307,132.6519 C 349.2850,127.8803 349.2850,122.1543 349.2850,118.3370 C 349.2850,109.7480 348.3307,100.2047 346.4220,93.5244 C 344.5133,88.7527 342.6047,85.8897 340.6960,83.9811 C 340.6960,83.9811 339.7417,83.0268 338.7873,83.0268 C 337.8330,83.0268 336.8787,82.0724 335.9244,82.0724 Z " fill="#FFFFFF" stroke="none"/>
        </g>
        <g transform="matrix(1.0000 0.0000 0.0000 1.0000 0.0000 0.0000)">
</g>
        <g transform="matrix(0.0625 0.0000 0.0000 0.0625 0.0000 0.0000)">
          <path d="M 334.9700,181.3228 C 325.4267,181.3228 316.8377,177.5055 310.1574,171.7795 C 304.4314,167.0078 299.6598,159.3732 296.7968,149.8299 C 293.9338,141.2409 292.0251,130.7433 292.0251,119.2913 C 292.0251,100.2047 295.8425,84.9354 303.4771,73.4835 C 307.2944,67.7575 312.0661,63.9401 317.7921,61.0772 C 323.5181,58.2142 330.1984,56.3055 336.8787,56.3055 C 345.4677,56.3055 354.0566,59.1685 360.7369,64.8945 C 367.4173,70.6205 371.2346,77.3008 375.0519,86.8441 C 377.9149,95.4331 378.8692,105.9307 378.8692,117.3827 C 378.8692,136.4693 376.0062,151.7386 368.3716,162.2362 C 364.5543,167.9622 359.7826,172.7338 354.0566,176.5512 C 348.3307,179.4141 341.6503,181.3228 334.9700,181.3228 Z M 335.9244,82.0724 C 334.0157,82.0724 332.1070,83.0268 331.1527,83.9811 C 328.2897,85.8897 326.3810,89.7071 324.4724,96.3874 C 322.5637,102.1134 321.6094,109.7480 321.6094,119.2913 C 321.6094,131.6976 323.5181,141.2409 326.3810,146.9669 C 328.2897,149.8299 329.2440,151.7386 331.1527,153.6472 C 332.1070,154.6015 334.0157,154.6015 335.9244,154.6015 C 337.8330,154.6015 339.7417,154.6015 340.6960,152.6929 C 342.6047,151.7386 343.5590,149.8299 345.4677,146.9669 C 346.4220,143.1496 348.3307,137.4236 348.3307,132.6519 C 349.2850,127.8803 349.2850,122.1543 349.2850,118.3370 C 349.2850,109.7480 348.3307,100.2047 346.4220,93.5244 C 344.5133,88.7527 342.6047,85.8897 340.6960,83.9811 C 340.6960,83.9811 339.7417,83.0268 338.7873,83.0268 C 337.8330,83.0268 336.8787,82.0724 335.9244,82.0724 Z " stroke="#0054A6" stroke-width="4.7717" stroke-linecap="round" stroke-linejoin="round" fill="none"/>
        </g>
        <g transform="matrix(1.0000 0.0000 0.0000 1.0000 0.0000 0.0000)">
</g>
        <g transform="matrix(0.0625 0.0000 0.0000 0.0625 0.0000 0.0000)">
          <path d="M 425.6314,181.3228 L 455.2157,181.3228 L 455.2157,56.3055 L 434.2204,56.3055 L 402.7275,74.4378 L 409.4078,100.2047 L 425.6314,90.6614 L 425.6314,181.3228 Z" stroke-width="1px" stroke="#FFFFFF" fill="#FFFFFF"/>
        </g>
        <g transform="matrix(1.0000 0.0000 0.0000 1.0000 0.0000 0.0000)">
</g>
        <g transform="matrix(0.0625 0.0000 0.0000 0.0625 0.0000 0.0000)">
          <path d="M 425.6314,181.3228 L 455.2157,181.3228 L 455.2157,56.3055 L 434.2204,56.3055 L 402.7275,74.4378 L 409.4078,100.2047 L 425.6314,90.6614 L 425.6314,181.3228 Z" stroke="#0054A6" stroke-width="4.7717" stroke-linecap="round" stroke-linejoin="round" fill="none"/>
        </g>
        <g transform="matrix(1.0000 0.0000 0.0000 1.0000 0.0000 0.0000)">
</g>
        <g transform="matrix(0.0625 0.0000 0.0000 0.0625 0.0000 0.0000)">
          <path d="M 147.9212,181.3228 C 138.3779,181.3228 129.7890,177.5055 123.1086,171.7795 C 117.3827,167.0078 112.6110,159.3732 109.7480,149.8299 C 106.8850,141.2409 104.9764,130.7433 104.9764,119.2913 C 104.9764,100.2047 108.7937,84.9354 116.4283,73.4835 C 120.2456,67.7575 125.0173,63.9401 130.7433,61.0772 C 136.4693,58.2142 143.1496,56.3055 149.8299,56.3055 C 158.4189,56.3055 167.0078,59.1685 173.6882,64.8945 C 180.3685,70.6205 184.1858,77.3008 188.0031,86.8441 C 190.8661,95.4331 191.8204,105.9307 191.8204,117.3827 C 191.8204,136.4693 188.9574,151.7386 181.3228,162.2362 C 177.5055,167.9622 172.7338,172.7338 167.0078,176.5512 C 161.2819,179.4141 154.6015,181.3228 147.9212,181.3228 Z M 148.8756,82.0724 C 146.9669,82.0724 145.0582,83.0268 144.1039,83.9811 C 141.2409,85.8897 139.3323,89.7071 137.4236,96.3874 C 135.5149,102.1134 134.5606,109.7480 134.5606,119.2913 C 134.5606,131.6976 136.4693,141.2409 139.3323,146.9669 C 141.2409,149.8299 142.1953,151.7386 144.1039,153.6472 C 145.0582,154.6015 146.9669,154.6015 148.8756,154.6015 C 150.7842,154.6015 152.6929,154.6015 153.6472,152.6929 C 155.5559,151.7386 156.5102,149.8299 158.4189,146.9669 C 159.3732,143.1496 161.2819,137.4236 161.2819,132.6519 C 162.2362,127.8803 162.2362,122.1543 162.2362,118.3370 C 162.2362,109.7480 161.2819,100.2047 159.3732,93.5244 C 158.4189,88.7527 155.5559,85.8897 153.6472,83.9811 C 153.6472,83.9811 152.6929,83.0268 151.7386,83.0268 C 150.7842,83.0268 149.8299,82.0724 148.8756,82.0724 Z " fill="#FFFFFF" stroke="none"/>
        </g>
        <g transform="matrix(1.0000 0.0000 0.0000 1.0000 0.0000 0.0000)">
</g>
        <g transform="matrix(0.0625 0.0000 0.0000 0.0625 0.0000 0.0000)">
          <path d="M 147.9212,181.3228 C 138.3779,181.3228 129.7890,177.5055 123.1086,171.7795 C 117.3827,167.0078 112.6110,159.3732 109.7480,149.8299 C 106.8850,141.2409 104.9764,130.7433 104.9764,119.2913 C 104.9764,100.2047 108.7937,84.9354 116.4283,73.4835 C 120.2456,67.7575 125.0173,63.9401 130.7433,61.0772 C 136.4693,58.2142 143.1496,56.3055 149.8299,56.3055 C 158.4189,56.3055 167.0078,59.1685 173.6882,64.8945 C 180.3685,70.6205 184.1858,77.3008 188.0031,86.8441 C 190.8661,95.4331 191.8204,105.9307 191.8204,117.3827 C 191.8204,136.4693 188.9574,151.7386 181.3228,162.2362 C 177.5055,167.9622 172.7338,172.7338 167.0078,176.5512 C 161.2819,179.4141 154.6015,181.3228 147.9212,181.3228 Z M 148.8756,82.0724 C 146.9669,82.0724 145.0582,83.0268 144.1039,83.9811 C 141.2409,85.8897 139.3323,89.7071 137.4236,96.3874 C 135.5149,102.1134 134.5606,109.7480 134.5606,119.2913 C 134.5606,131.6976 136.4693,141.2409 139.3323,146.9669 C 141.2409,149.8299 142.1953,151.7386 144.1039,153.6472 C 145.0582,154.6015 146.9669,154.6015 148.8756,154.6015 C 150.7842,154.6015 152.6929,154.6015 153.6472,152.6929 C 155.5559,151.7386 156.5102,149.8299 158.4189,146.9669 C 159.3732,143.1496 161.2819,137.4236 161.2819,132.6519 C 162.2362,127.8803 162.2362,122.1543 162.2362,118.3370 C 162.2362,109.7480 161.2819,100.2047 159.3732,93.5244 C 158.4189,88.7527 155.5559,85.8897 153.6472,83.9811 C 153.6472,83.9811 152.6929,83.0268 151.7386,83.0268 C 150.7842,83.0268 149.8299,82.0724 148.8756,82.0724 Z " stroke="#0054A6" stroke-width="4.7717" stroke-linecap="round" stroke-linejoin="round" fill="none"/>
        </g>
        <g transform="matrix(1.0000 0.0000 0.0000 1.0000 0.0000 0.0000)">
</g>
        <g transform="matrix(0.0625 0.0000 0.0000 0.0625 0.0000 0.0000)">
          <path d="M 238.5826,181.3228 L 268.1669,181.3228 L 268.1669,56.3055 L 247.1716,56.3055 L 215.6787,74.4378 L 222.3590,100.2047 L 238.5826,90.6614 L 238.5826,181.3228 Z" stroke-width="1px" stroke="#FFFFFF" fill="#FFFFFF"/>
        </g>
        <g transform="matrix(1.0000 0.0000 0.0000 1.0000 0.0000 0.0000)">
</g>
        <g transform="matrix(0.0625 0.0000 0.0000 0.0625 0.0000 0.0000)">
          <path d="M 238.5826,181.3228 L 268.1669,181.3228 L 268.1669,56.3055 L 247.1716,56.3055 L 215.6787,74.4378 L 222.3590,100.2047 L 238.5826,90.6614 L 238.5826,181.3228 Z" stroke="#0054A6" stroke-width="4.7717" stroke-linecap="round" stroke-linejoin="round" fill="none"/>
        </g>
        <g transform="matrix(1.0000 0.0000 0.0000 1.0000 0.0000 0.0000)">
</g>
        <g transform="matrix(0.0625 0.0000 0.0000 0.0625 0.0000 0.0000)">
          <path d="M 241.4456,323.5181 C 231.9023,323.5181 223.3133,320.6551 216.6330,314.9291 C 210.9071,309.2031 206.1354,301.5685 203.2724,292.9795 C 200.4094,284.3905 198.5008,273.8929 198.5008,262.4409 C 198.5008,243.3543 202.3181,227.1307 209.9527,216.6330 C 213.7700,210.9071 218.5417,206.1354 224.2677,203.2724 C 229.9937,200.4094 236.6740,199.4551 243.3543,199.4551 C 251.9433,199.4551 260.5322,202.3181 267.2126,208.0441 C 273.8929,212.8157 277.7102,220.4504 281.5275,229.0393 C 284.3905,238.5826 285.3448,249.0803 285.3448,260.5322 C 285.3448,278.6645 282.4818,293.9338 274.8472,305.3858 C 271.0299,311.1118 266.2582,315.8834 260.5322,318.7464 C 254.8063,322.5637 248.1259,323.5181 241.4456,323.5181 Z M 242.4000,225.2220 C 240.4913,225.2220 238.5826,226.1763 237.6283,227.1307 C 234.7653,229.0393 232.8567,232.8567 230.9480,238.5826 C 229.0393,245.2630 228.0850,252.8976 228.0850,262.4409 C 228.0850,274.8472 229.9937,284.3905 232.8567,290.1165 C 234.7653,292.9795 235.7196,294.8881 237.6283,295.8425 C 238.5826,297.7511 240.4913,297.7511 242.4000,297.7511 C 244.3086,297.7511 246.2173,296.7968 247.1716,295.8425 C 249.0803,294.8881 250.0346,292.0251 251.9433,289.1622 C 252.8976,286.2992 254.8063,280.5732 254.8063,275.8015 C 255.7606,271.0299 255.7606,265.3039 255.7606,261.4866 C 255.7606,251.9433 254.8063,242.4000 252.8976,235.7196 C 250.9889,231.9023 249.0803,229.0393 247.1716,227.1307 C 247.1716,226.1763 246.2173,226.1763 245.2630,226.1763 C 244.3086,225.2220 243.3543,225.2220 242.4000,225.2220 Z " fill="#FFFFFF" stroke="none"/>
        </g>
        <g transform="matrix(1.0000 0.0000 0.0000 1.0000 0.0000 0.0000)">
</g>
        <g transform="matrix(0.0625 0.0000 0.0000 0.0625 0.0000 0.0000)">
          <path d="M 241.4456,323.5181 C 231.9023,323.5181 223.3133,320.6551 216.6330,314.9291 C 210.9071,309.2031 206.1354,301.5685 203.2724,292.9795 C 200.4094,284.3905 198.5008,273.8929 198.5008,262.4409 C 198.5008,243.3543 202.3181,227.1307 209.9527,216.6330 C 213.7700,210.9071 218.5417,206.1354 224.2677,203.2724 C 229.9937,200.4094 236.6740,199.4551 243.3543,199.4551 C 251.9433,199.4551 260.5322,202.3181 267.2126,208.0441 C 273.8929,212.8157 277.7102,220.4504 281.5275,229.0393 C 284.3905,238.5826 285.3448,249.0803 285.3448,260.5322 C 285.3448,278.6645 282.4818,293.9338 274.8472,305.3858 C 271.0299,311.1118 266.2582,315.8834 260.5322,318.7464 C 254.8063,322.5637 248.1259,323.5181 241.4456,323.5181 Z M 242.4000,225.2220 C 240.4913,225.2220 238.5826,226.1763 237.6283,227.1307 C 234.7653,229.0393 232.8567,232.8567 230.9480,238.5826 C 229.0393,245.2630 228.0850,252.8976 228.0850,262.4409 C 228.0850,274.8472 229.9937,284.3905 232.8567,290.1165 C 234.7653,292.9795 235.7196,294.8881 237.6283,295.8425 C 238.5826,297.7511 240.4913,297.7511 242.4000,297.7511 C 244.3086,297.7511 246.2173,296.7968 247.1716,295.8425 C 249.0803,294.8881 250.0346,292.0251 251.9433,289.1622 C 252.8976,286.2992 254.8063,280.5732 254.8063,275.8015 C 255.7606,271.0299 255.7606,265.3039 255.7606,261.4866 C 255.7606,251.9433 254.8063,242.4000 252.8976,235.7196 C 250.9889,231.9023 249.0803,229.0393 247.1716,227.1307 C 247.1716,226.1763 246.2173,226.1763 245.2630,226.1763 C 244.3086,225.2220 243.3543,225.2220 242.4000,225.2220 Z " stroke="#0054A6" stroke-width="4.7717" stroke-linecap="round" stroke-linejoin="round" fill="none"/>
        </g>
        <g transform="matrix(1.0000 0.0000 0.0000 1.0000 0.0000 0.0000)">
</g>
        <g transform="matrix(0.0625 0.0000 0.0000 0.0625 0.0000 0.0000)">
          <path d="M 332.1070,323.5181 L 361.6913,323.5181 L 361.6913,199.4551 L 340.6960,199.4551 L 309.2031,217.5874 L 315.8834,242.4000 L 332.1070,233.8110 L 332.1070,323.5181 Z" stroke-width="1px" stroke="#FFFFFF" fill="#FFFFFF"/>
        </g>
        <g transform="matrix(1.0000 0.0000 0.0000 1.0000 0.0000 0.0000)">
</g>
        <g transform="matrix(0.0625 0.0000 0.0000 0.0625 0.0000 0.0000)">
          <path d="M 332.1070,323.5181 L 361.6913,323.5181 L 361.6913,199.4551 L 340.6960,199.4551 L 309.2031,217.5874 L 315.8834,242.4000 L 332.1070,233.8110 L 332.1070,323.5181 Z" stroke="#0054A6" stroke-width="4.7717" stroke-linecap="round" stroke-linejoin="round" fill="none"/>
        </g>
        <g transform="matrix(1.0000 0.0000 0.0000 1.0000 0.0000 0.0000)">
</g>
        <g transform="matrix(0.0625 0.0000 0.0000 0.0625 0.0000 0.0000)">
          <path d="M 428.4944,323.5181 C 418.9511,323.5181 410.3621,320.6551 403.6818,314.9291 C 397.9558,309.2031 393.1842,301.5685 390.3212,292.9795 C 387.4582,284.3905 385.5495,273.8929 385.5495,262.4409 C 385.5495,243.3543 389.3669,227.1307 397.0015,216.6330 C 400.8188,210.9071 405.5905,206.1354 411.3165,203.2724 C 417.0425,200.4094 423.7228,199.4551 430.4031,199.4551 C 438.9921,199.4551 447.5810,202.3181 454.2613,208.0441 C 460.9417,212.8157 464.7590,220.4504 468.5763,229.0393 C 471.4393,238.5826 472.3936,249.0803 472.3936,260.5322 C 472.3936,278.6645 469.5306,293.9338 461.8960,305.3858 C 458.0787,311.1118 453.3070,315.8834 447.5810,318.7464 C 441.8550,322.5637 435.1747,323.5181 428.4944,323.5181 Z M 429.4487,225.2220 C 427.5401,225.2220 425.6314,226.1763 424.6771,227.1307 C 421.8141,229.0393 419.9054,232.8567 417.9968,238.5826 C 416.0881,245.2630 415.1338,252.8976 415.1338,262.4409 C 415.1338,274.8472 417.0425,284.3905 419.9054,290.1165 C 421.8141,292.9795 422.7684,294.8881 424.6771,295.8425 C 425.6314,297.7511 427.5401,297.7511 429.4487,297.7511 C 431.3574,297.7511 433.2661,296.7968 434.2204,295.8425 C 436.1291,294.8881 437.0834,292.0251 438.9921,289.1622 C 439.9464,286.2992 441.8550,280.5732 441.8550,275.8015 C 442.8094,271.0299 442.8094,265.3039 442.8094,261.4866 C 442.8094,251.9433 441.8550,242.4000 439.9464,235.7196 C 438.0377,231.9023 436.1291,229.0393 434.2204,227.1307 C 434.2204,226.1763 433.2661,226.1763 432.3117,226.1763 C 431.3574,225.2220 430.4031,225.2220 429.4487,225.2220 Z " fill="#FFFFFF" stroke="none"/>
        </g>
        <g transform="matrix(1.0000 0.0000 0.0000 1.0000 0.0000 0.0000)">
</g>
        <g transform="matrix(0.0625 0.0000 0.0000 0.0625 0.0000 0.0000)">
          <path d="M 428.4944,323.5181 C 418.9511,323.5181 410.3621,320.6551 403.6818,314.9291 C 397.9558,309.2031 393.1842,301.5685 390.3212,292.9795 C 387.4582,284.3905 385.5495,273.8929 385.5495,262.4409 C 385.5495,243.3543 389.3669,227.1307 397.0015,216.6330 C 400.8188,210.9071 405.5905,206.1354 411.3165,203.2724 C 417.0425,200.4094 423.7228,199.4551 430.4031,199.4551 C 438.9921,199.4551 447.5810,202.3181 454.2613,208.0441 C 460.9417,212.8157 464.7590,220.4504 468.5763,229.0393 C 471.4393,238.5826 472.3936,249.0803 472.3936,260.5322 C 472.3936,278.6645 469.5306,293.9338 461.8960,305.3858 C 458.0787,311.1118 453.3070,315.8834 447.5810,318.7464 C 441.8550,322.5637 435.1747,323.5181 428.4944,323.5181 Z M 429.4487,225.2220 C 427.5401,225.2220 425.6314,226.1763 424.6771,227.1307 C 421.8141,229.0393 419.9054,232.8567 417.9968,238.5826 C 416.0881,245.2630 415.1338,252.8976 415.1338,262.4409 C 415.1338,274.8472 417.0425,284.3905 419.9054,290.1165 C 421.8141,292.9795 422.7684,294.8881 424.6771,295.8425 C 425.6314,297.7511 427.5401,297.7511 429.4487,297.7511 C 431.3574,297.7511 433.2661,296.7968 434.2204,295.8425 C 436.1291,294.8881 437.0834,292.0251 438.9921,289.1622 C 439.9464,286.2992 441.8550,280.5732 441.8550,275.8015 C 442.8094,271.0299 442.8094,265.3039 442.8094,261.4866 C 442.8094,251.9433 441.8550,242.4000 439.9464,235.7196 C 438.0377,231.9023 436.1291,229.0393 434.2204,227.1307 C 434.2204,226.1763 433.2661,226.1763 432.3117,226.1763 C 431.3574,225.2220 430.4031,225.2220 429.4487,225.2220 Z " stroke="#0054A6" stroke-width="4.7717" stroke-linecap="round" stroke-linejoin="round" fill="none"/>
        </g>
        <g transform="matrix(1.0000 0.0000 0.0000 1.0000 0.0000 0.0000)">
</g>
        <g transform="matrix(0.0625 0.0000 0.0000 0.0625 0.0000 0.0000)">
          <path d="M 145.0582,323.5181 L 174.6425,323.5181 L 174.6425,199.4551 L 153.6472,199.4551 L 122.1543,217.5874 L 128.8346,242.4000 L 145.0582,233.8110 L 145.0582,323.5181 Z" stroke-width="1px" stroke="#FFFFFF" fill="#FFFFFF"/>
        </g>
        <g transform="matrix(1.0000 0.0000 0.0000 1.0000 0.0000 0.0000)">
</g>
        <g transform="matrix(0.0625 0.0000 0.0000 0.0625 0.0000 0.0000)">
          <path d="M 145.0582,323.5181 L 174.6425,323.5181 L 174.6425,199.4551 L 153.6472,199.4551 L 122.1543,217.5874 L 128.8346,242.4000 L 145.0582,233.8110 L 145.0582,323.5181 Z" stroke="#0054A6" stroke-width="4.7717" stroke-linecap="round" stroke-linejoin="round" fill="none"/>
        </g>
        <g transform="matrix(1.0000 0.0000 0.0000 1.0000 0.0000 0.0000)">
</g>
        <g transform="matrix(0.0625 0.0000 0.0000 0.0625 0.0000 0.0000)">
          <path d="M 346.4220,694.7526 L 170.8252,694.7526 L 170.8252,665.1684 L 111.6567,709.0676 L 170.8252,752.0125 L 170.8252,722.4282 L 346.4220,722.4282 C 354.0566,722.4282 360.7369,716.7022 360.7369,709.0676 C 360.7369,700.4786 354.0566,694.7526 346.4220,694.7526 Z " fill="#FFFFFF" stroke="none"/>
        </g>
        <g transform="matrix(1.0000 0.0000 0.0000 1.0000 0.0000 0.0000)">
</g>
        <g transform="matrix(0.0625 0.0000 0.0000 0.0625 0.0000 0.0000)">
          <path d="M 346.4220,694.7526 L 170.8252,694.7526 L 170.8252,665.1684 L 111.6567,709.0676 L 170.8252,752.0125 L 170.8252,722.4282 L 346.4220,722.4282 C 354.0566,722.4282 360.7369,716.7022 360.7369,709.0676 C 360.7369,700.4786 354.0566,694.7526 346.4220,694.7526 Z " stroke="#0054A6" stroke-width="8.5890" stroke-linecap="round" stroke-linejoin="round" fill="none"/>
        </g>
        <g transform="matrix(1.0000 0.0000 0.0000 1.0000 0.0000 0.0000)">
</g>
        <g transform="matrix(0.0625 0.0000 0.0000 0.0625 0.0000 0.0000)">
          <path d="M 232.8567,818.8156 L 409.4078,818.8156 L 409.4078,848.3999 L 468.5763,804.5007 L 409.4078,760.6015 L 409.4078,790.1857 L 232.8567,790.1857 C 225.2220,790.1857 219.4960,796.8660 219.4960,804.5007 C 219.4960,812.1353 225.2220,818.8156 232.8567,818.8156 Z " fill="#FFFFFF" stroke="none"/>
        </g>
        <g transform="matrix(1.0000 0.0000 0.0000 1.0000 0.0000 0.0000)">
</g>
        <g transform="matrix(0.0625 0.0000 0.0000 0.0625 0.0000 0.0000)">
          <path d="M 232.8567,818.8156 L 409.4078,818.8156 L 409.4078,848.3999 L 468.5763,804.5007 L 409.4078,760.6015 L 409.4078,790.1857 L 232.8567,790.1857 C 225.2220,790.1857 219.4960,796.8660 219.4960,804.5007 C 219.4960,812.1353 225.2220,818.8156 232.8567,818.8156 Z " stroke="#0054A6" stroke-width="8.5890" stroke-linecap="round" stroke-linejoin="round" fill="none"/>
        </g>
        <g transform="matrix(1.0000 0.0000 0.0000 1.0000 0.0000 0.0000)">
</g>
        <g transform="matrix(0.0625 0.0000 0.0000 0.0625 0.0000 0.0000)">
          <path d="M 286.2992,491.4802 C 273.8929,491.4802 263.3952,501.0235 263.3952,513.4298 C 263.3952,521.0645 268.1669,527.7448 273.8929,531.5621 L 269.1212,574.5070 C 269.1212,580.2330 272.9385,584.0503 277.7102,584.0503 L 293.9338,584.0503 C 298.7055,584.0503 302.5228,580.2330 302.5228,574.5070 L 297.7511,531.5621 C 303.4771,527.7448 308.2488,521.0645 308.2488,513.4298 C 308.2488,501.0235 297.7511,491.4802 286.2992,491.4802 Z " fill="#0054A6" stroke="none"/>
        </g>
        <g transform="matrix(1.0000 0.0000 0.0000 1.0000 0.0000 0.0000)">
          <path d="M 5.7260,1.9087 L 2.8630,3.8173 C 1.9087,3.8173 1.9087,4.7717 1.9087,5.7260 L 1.9087,5.7260 L 1.9087,51.5338 C 1.9087,52.4882 1.9087,53.4425 2.8630,53.4425 L 2.8630,53.4425 L 5.7260,55.3512 C 5.7260,54.3968 4.7717,54.3968 4.7717,54.3968 L 4.7717,2.8630 C 4.7717,2.8630 5.7260,1.9087 5.7260,1.9087 Z " fill="none" stroke="none"/>
          <defs>
            <clipPath id="clip-1238433452">
              <path d="M 5.7260,1.9087 L 2.8630,3.8173 C 1.9087,3.8173 1.9087,4.7717 1.9087,5.7260 L 1.9087,5.7260 L 1.9087,51.5338 C 1.9087,52.4882 1.9087,53.4425 2.8630,53.4425 L 2.8630,53.4425 L 5.7260,55.3512 C 5.7260,54.3968 4.7717,54.3968 4.7717,54.3968 L 4.7717,2.8630 C 4.7717,2.8630 5.7260,1.9087 5.7260,1.9087 Z"/>
            </clipPath>
          </defs>
          <path clip-path="url(#clip-1238433452)" d="M 0.9543,0.9543 L 0.9543,1.9087 L 5.7260,1.9087 L 5.7260,0.9543 L 0.9543,0.9543 Z" stroke-width="1px" stroke="#63B4E6" fill="#63B4E6"/>
          <path clip-path="url(#clip-1238433452)" d="M 0.9543,1.9087 L 0.9543,2.8630 L 5.7260,2.8630 L 5.7260,1.9087 L 0.9543,1.9087 Z" stroke-width="1px" stroke="#0D87C2" fill="#0D87C2"/>
          <path clip-path="url(#clip-1238433452)" d="M 0.9543,2.8630 L 0.9543,3.8173 L 5.7260,3.8173 L 5.7260,2.8630 L 0.9543,2.8630 Z" stroke-width="1px" stroke="#0E88C3" fill="#0E88C3"/>
          <path clip-path="url(#clip-1238433452)" d="M 0.9543,3.8173 L 0.9543,4.7717 L 5.7260,4.7717 L 5.7260,3.8173 L 0.9543,3.8173 Z" stroke-width="1px" stroke="#1089C3" fill="#1089C3"/>
          <path clip-path="url(#clip-1238433452)" d="M 0.9543,4.7717 L 0.9543,5.7260 L 5.7260,5.7260 L 5.7260,4.7717 L 0.9543,4.7717 Z" stroke-width="1px" stroke="#128AC4" fill="#128AC4"/>
          <path clip-path="url(#clip-1238433452)" d="M 0.9543,5.7260 L 0.9543,6.6803 L 5.7260,6.6803 L 5.7260,5.7260 L 0.9543,5.7260 Z" stroke-width="1px" stroke="#138BC5" fill="#138BC5"/>
          <path clip-path="url(#clip-1238433452)" d="M 0.9543,6.6803 L 0.9543,7.6346 L 5.7260,7.6346 L 5.7260,6.6803 L 0.9543,6.6803 Z" stroke-width="1px" stroke="#158CC6" fill="#158CC6"/>
          <path clip-path="url(#clip-1238433452)" d="M 0.9543,7.6346 L 0.9543,8.5890 L 5.7260,8.5890 L 5.7260,7.6346 L 0.9543,7.6346 Z" stroke-width="1px" stroke="#168CC6" fill="#168CC6"/>
          <path clip-path="url(#clip-1238433452)" d="M 0.9543,8.5890 L 0.9543,9.5433 L 5.7260,9.5433 L 5.7260,8.5890 L 0.9543,8.5890 Z" stroke-width="1px" stroke="#188DC7" fill="#188DC7"/>
          <path clip-path="url(#clip-1238433452)" d="M 0.9543,9.5433 L 0.9543,10.4976 L 5.7260,10.4976 L 5.7260,9.5433 L 0.9543,9.5433 Z" stroke-width="1px" stroke="#198EC8" fill="#198EC8"/>
          <path clip-path="url(#clip-1238433452)" d="M 0.9543,10.4976 L 0.9543,11.4520 L 5.7260,11.4520 L 5.7260,10.4976 L 0.9543,10.4976 Z" stroke-width="1px" stroke="#1B8FC8" fill="#1B8FC8"/>
          <path clip-path="url(#clip-1238433452)" d="M 0.9543,11.4520 L 0.9543,12.4063 L 5.7260,12.4063 L 5.7260,11.4520 L 0.9543,11.4520 Z" stroke-width="1px" stroke="#1D90C9" fill="#1D90C9"/>
          <path clip-path="url(#clip-1238433452)" d="M 0.9543,12.4063 L 0.9543,13.3606 L 5.7260,13.3606 L 5.7260,12.4063 L 0.9543,12.4063 Z" stroke-width="1px" stroke="#1E91CA" fill="#1E91CA"/>
          <path clip-path="url(#clip-1238433452)" d="M 0.9543,13.3606 L 0.9543,14.3150 L 5.7260,14.3150 L 5.7260,13.3606 L 0.9543,13.3606 Z" stroke-width="1px" stroke="#2092CA" fill="#2092CA"/>
          <path clip-path="url(#clip-1238433452)" d="M 0.9543,14.3150 L 0.9543,15.2693 L 5.7260,15.2693 L 5.7260,14.3150 L 0.9543,14.3150 Z" stroke-width="1px" stroke="#2193CB" fill="#2193CB"/>
          <path clip-path="url(#clip-1238433452)" d="M 0.9543,15.2693 L 0.9543,16.2236 L 5.7260,16.2236 L 5.7260,15.2693 L 0.9543,15.2693 Z" stroke-width="1px" stroke="#2393CB" fill="#2393CB"/>
          <path clip-path="url(#clip-1238433452)" d="M 0.9543,16.2236 L 0.9543,17.1779 L 5.7260,17.1779 L 5.7260,16.2236 L 0.9543,16.2236 Z" stroke-width="1px" stroke="#2494CC" fill="#2494CC"/>
          <path clip-path="url(#clip-1238433452)" d="M 0.9543,17.1779 L 0.9543,18.1323 L 5.7260,18.1323 L 5.7260,17.1779 L 0.9543,17.1779 Z" stroke-width="1px" stroke="#2694CC" fill="#2694CC"/>
          <path clip-path="url(#clip-1238433452)" d="M 0.9543,18.1323 L 0.9543,19.0866 L 5.7260,19.0866 L 5.7260,18.1323 L 0.9543,18.1323 Z" stroke-width="1px" stroke="#2895CD" fill="#2895CD"/>
          <path clip-path="url(#clip-1238433452)" d="M 0.9543,19.0866 L 0.9543,20.0409 L 5.7260,20.0409 L 5.7260,19.0866 L 0.9543,19.0866 Z" stroke-width="1px" stroke="#2996CE" fill="#2996CE"/>
          <path clip-path="url(#clip-1238433452)" d="M 0.9543,20.0409 L 0.9543,20.9953 L 5.7260,20.9953 L 5.7260,20.0409 L 0.9543,20.0409 Z" stroke-width="1px" stroke="#2B97CF" fill="#2B97CF"/>
          <path clip-path="url(#clip-1238433452)" d="M 0.9543,20.9953 L 0.9543,21.9496 L 5.7260,21.9496 L 5.7260,20.9953 L 0.9543,20.9953 Z" stroke-width="1px" stroke="#2C98D0" fill="#2C98D0"/>
          <path clip-path="url(#clip-1238433452)" d="M 0.9543,21.9496 L 0.9543,22.9039 L 5.7260,22.9039 L 5.7260,21.9496 L 0.9543,21.9496 Z" stroke-width="1px" stroke="#2E98D0" fill="#2E98D0"/>
          <path clip-path="url(#clip-1238433452)" d="M 0.9543,22.9039 L 0.9543,23.8583 L 5.7260,23.8583 L 5.7260,22.9039 L 0.9543,22.9039 Z" stroke-width="1px" stroke="#3099D1" fill="#3099D1"/>
          <path clip-path="url(#clip-1238433452)" d="M 0.9543,23.8583 L 0.9543,24.8126 L 5.7260,24.8126 L 5.7260,23.8583 L 0.9543,23.8583 Z" stroke-width="1px" stroke="#319AD1" fill="#319AD1"/>
          <path clip-path="url(#clip-1238433452)" d="M 0.9543,24.8126 L 0.9543,25.7669 L 5.7260,25.7669 L 5.7260,24.8126 L 0.9543,24.8126 Z" stroke-width="1px" stroke="#339BD2" fill="#339BD2"/>
          <path clip-path="url(#clip-1238433452)" d="M 0.9543,25.7669 L 0.9543,26.7213 L 5.7260,26.7213 L 5.7260,25.7669 L 0.9543,25.7669 Z" stroke-width="1px" stroke="#349CD3" fill="#349CD3"/>
          <path clip-path="url(#clip-1238433452)" d="M 0.9543,26.7213 L 0.9543,27.6756 L 5.7260,27.6756 L 5.7260,26.7213 L 0.9543,26.7213 Z" stroke-width="1px" stroke="#369DD3" fill="#369DD3"/>
          <path clip-path="url(#clip-1238433452)" d="M 0.9543,27.6756 L 0.9543,28.6299 L 5.7260,28.6299 L 5.7260,27.6756 L 0.9543,27.6756 Z" stroke-width="1px" stroke="#379ED4" fill="#379ED4"/>
          <path clip-path="url(#clip-1238433452)" d="M 0.9543,28.6299 L 0.9543,29.5842 L 5.7260,29.5842 L 5.7260,28.6299 L 0.9543,28.6299 Z" stroke-width="1px" stroke="#399ED4" fill="#399ED4"/>
          <path clip-path="url(#clip-1238433452)" d="M 0.9543,29.5842 L 0.9543,30.5386 L 5.7260,30.5386 L 5.7260,29.5842 L 0.9543,29.5842 Z" stroke-width="1px" stroke="#3B9FD5" fill="#3B9FD5"/>
          <path clip-path="url(#clip-1238433452)" d="M 0.9543,30.5386 L 0.9543,31.4929 L 5.7260,31.4929 L 5.7260,30.5386 L 0.9543,30.5386 Z" stroke-width="1px" stroke="#3CA0D5" fill="#3CA0D5"/>
          <path clip-path="url(#clip-1238433452)" d="M 0.9543,31.4929 L 0.9543,32.4472 L 5.7260,32.4472 L 5.7260,31.4929 L 0.9543,31.4929 Z" stroke-width="1px" stroke="#3EA1D6" fill="#3EA1D6"/>
          <path clip-path="url(#clip-1238433452)" d="M 0.9543,32.4472 L 0.9543,33.4016 L 5.7260,33.4016 L 5.7260,32.4472 L 0.9543,32.4472 Z" stroke-width="1px" stroke="#40A2D7" fill="#40A2D7"/>
          <path clip-path="url(#clip-1238433452)" d="M 0.9543,33.4016 L 0.9543,34.3559 L 5.7260,34.3559 L 5.7260,33.4016 L 0.9543,33.4016 Z" stroke-width="1px" stroke="#41A3D8" fill="#41A3D8"/>
          <path clip-path="url(#clip-1238433452)" d="M 0.9543,34.3559 L 0.9543,35.3102 L 5.7260,35.3102 L 5.7260,34.3559 L 0.9543,34.3559 Z" stroke-width="1px" stroke="#42A4D9" fill="#42A4D9"/>
          <path clip-path="url(#clip-1238433452)" d="M 0.9543,35.3102 L 0.9543,36.2646 L 5.7260,36.2646 L 5.7260,35.3102 L 0.9543,35.3102 Z" stroke-width="1px" stroke="#44A5D9" fill="#44A5D9"/>
          <path clip-path="url(#clip-1238433452)" d="M 0.9543,36.2646 L 0.9543,37.2189 L 5.7260,37.2189 L 5.7260,36.2646 L 0.9543,36.2646 Z" stroke-width="1px" stroke="#46A5DA" fill="#46A5DA"/>
          <path clip-path="url(#clip-1238433452)" d="M 0.9543,37.2189 L 0.9543,38.1732 L 5.7260,38.1732 L 5.7260,37.2189 L 0.9543,37.2189 Z" stroke-width="1px" stroke="#47A6DA" fill="#47A6DA"/>
          <path clip-path="url(#clip-1238433452)" d="M 0.9543,38.1732 L 0.9543,39.1276 L 5.7260,39.1276 L 5.7260,38.1732 L 0.9543,38.1732 Z" stroke-width="1px" stroke="#49A7DB" fill="#49A7DB"/>
          <path clip-path="url(#clip-1238433452)" d="M 0.9543,39.1276 L 0.9543,40.0819 L 5.7260,40.0819 L 5.7260,39.1276 L 0.9543,39.1276 Z" stroke-width="1px" stroke="#4BA8DC" fill="#4BA8DC"/>
          <path clip-path="url(#clip-1238433452)" d="M 0.9543,40.0819 L 0.9543,41.0362 L 5.7260,41.0362 L 5.7260,40.0819 L 0.9543,40.0819 Z" stroke-width="1px" stroke="#4CA9DC" fill="#4CA9DC"/>
          <path clip-path="url(#clip-1238433452)" d="M 0.9543,41.0362 L 0.9543,41.9905 L 5.7260,41.9905 L 5.7260,41.0362 L 0.9543,41.0362 Z" stroke-width="1px" stroke="#4DAADD" fill="#4DAADD"/>
          <path clip-path="url(#clip-1238433452)" d="M 0.9543,41.9905 L 0.9543,42.9449 L 5.7260,42.9449 L 5.7260,41.9905 L 0.9543,41.9905 Z" stroke-width="1px" stroke="#4FAADD" fill="#4FAADD"/>
          <path clip-path="url(#clip-1238433452)" d="M 0.9543,42.9449 L 0.9543,43.8992 L 5.7260,43.8992 L 5.7260,42.9449 L 0.9543,42.9449 Z" stroke-width="1px" stroke="#51ABDE" fill="#51ABDE"/>
          <path clip-path="url(#clip-1238433452)" d="M 0.9543,43.8992 L 0.9543,44.8535 L 5.7260,44.8535 L 5.7260,43.8992 L 0.9543,43.8992 Z" stroke-width="1px" stroke="#53ACDF" fill="#53ACDF"/>
          <path clip-path="url(#clip-1238433452)" d="M 0.9543,44.8535 L 0.9543,45.8079 L 5.7260,45.8079 L 5.7260,44.8535 L 0.9543,44.8535 Z" stroke-width="1px" stroke="#54ACDF" fill="#54ACDF"/>
          <path clip-path="url(#clip-1238433452)" d="M 0.9543,45.8079 L 0.9543,46.7622 L 5.7260,46.7622 L 5.7260,45.8079 L 0.9543,45.8079 Z" stroke-width="1px" stroke="#56ADE0" fill="#56ADE0"/>
          <path clip-path="url(#clip-1238433452)" d="M 0.9543,46.7622 L 0.9543,47.7165 L 5.7260,47.7165 L 5.7260,46.7622 L 0.9543,46.7622 Z" stroke-width="1px" stroke="#57AEE1" fill="#57AEE1"/>
          <path clip-path="url(#clip-1238433452)" d="M 0.9543,47.7165 L 0.9543,48.6709 L 5.7260,48.6709 L 5.7260,47.7165 L 0.9543,47.7165 Z" stroke-width="1px" stroke="#59AFE2" fill="#59AFE2"/>
          <path clip-path="url(#clip-1238433452)" d="M 0.9543,48.6709 L 0.9543,49.6252 L 5.7260,49.6252 L 5.7260,48.6709 L 0.9543,48.6709 Z" stroke-width="1px" stroke="#5AB0E2" fill="#5AB0E2"/>
          <path clip-path="url(#clip-1238433452)" d="M 0.9543,49.6252 L 0.9543,50.5795 L 5.7260,50.5795 L 5.7260,49.6252 L 0.9543,49.6252 Z" stroke-width="1px" stroke="#5CB0E3" fill="#5CB0E3"/>
          <path clip-path="url(#clip-1238433452)" d="M 0.9543,50.5795 L 0.9543,51.5338 L 5.7260,51.5338 L 5.7260,50.5795 L 0.9543,50.5795 Z" stroke-width="1px" stroke="#5EB1E4" fill="#5EB1E4"/>
          <path clip-path="url(#clip-1238433452)" d="M 0.9543,51.5338 L 0.9543,52.4882 L 5.7260,52.4882 L 5.7260,51.5338 L 0.9543,51.5338 Z" stroke-width="1px" stroke="#5FB2E4" fill="#5FB2E4"/>
          <path clip-path="url(#clip-1238433452)" d="M 0.9543,52.4882 L 0.9543,53.4425 L 5.7260,53.4425 L 5.7260,52.4882 L 0.9543,52.4882 Z" stroke-width="1px" stroke="#61B3E5" fill="#61B3E5"/>
          <path clip-path="url(#clip-1238433452)" d="M 0.9543,53.4425 L 0.9543,54.3968 L 5.7260,54.3968 L 5.7260,53.4425 L 0.9543,53.4425 Z" stroke-width="1px" stroke="#62B4E5" fill="#62B4E5"/>
        </g>
        <g transform="matrix(0.0625 0.0000 0.0000 0.0625 0.0000 0.0000)">
          <path d="M 83.0268,25.7669 L 35.3102,53.4425 C 24.8126,59.1685 18.1323,70.6205 18.1323,83.0268 L 18.1323,83.0268 L 18.1323,817.8613 C 18.1323,830.2676 24.8126,841.7195 35.3102,848.3999 L 35.3102,848.3999 L 82.0724,875.1211 C 77.3008,871.3038 74.4378,866.5321 74.4378,861.7605 L 74.4378,39.1276 C 74.4378,34.3559 77.3008,29.5842 83.0268,25.7669 " stroke="#0054A6" stroke-width="11.4520" stroke-linecap="round" stroke-linejoin="round" fill="none"/>
        </g>
        <g transform="matrix(1.0000 0.0000 0.0000 1.0000 0.0000 0.0000)">
</g>
      </g>
      <!--emf-blob end-->
    </g>
  </g>
</svg>
