<svg xmlns="http://www.w3.org/2000/svg" xmlns:xlink="http://www.w3.org/1999/xlink" version="1.1" width="47.8488000000" height="32.4000000000">
  <title><![CDATA[Oracle OS V1]]></title>
  <g transform=" scale(1.000000) ">
    <text xmlns="http://www.w3.org/2000/svg" x="10.0443" y="32.3999" transform="rotate(0.0002, 23.9244, 36.0999)">
      <tspan font-family="Arial" font-size="4.5000" fill="#000000" fill-opacity="1.0000" stroke-opacity="1.0000">
Oracle OS V1</tspan>
    </text>
    <!--converted by libvisio2svg-->
    <g transform=" translate(23.9725, 15.8739)  scale(1, 1)  rotate(0.0002)  translate(-23.9725, -15.8739)  translate(-1.156700,-1.856800) ">
      <!--emf-blob start-->
      <g transform="translate(0.9332, 0.9332)">
        <g transform="matrix(0.0625 0.0000 0.0000 0.0625 0.0000 0.0000)">
          <path d="M 18.6639,18.6639 L 18.6639,512.3239 L 733.4911,512.3239 L 733.4911,18.6639 L 18.6639,18.6639 Z" stroke-width="1px" stroke="#FFFFFF" fill="#FFFFFF"/>
        </g>
        <g transform="matrix(1.0000 0.0000 0.0000 1.0000 0.0000 0.0000)">
</g>
        <g transform="matrix(0.0625 0.0000 0.0000 0.0625 0.0000 0.0000)">
          <path d="M 18.6639,512.3239 L 733.4911,512.3239 L 733.4911,18.6639 L 18.6639,18.6639 L 18.6639,512.3239 Z" stroke="#0054A6" stroke-width="22.3967" stroke-linecap="round" stroke-linejoin="round" fill="none"/>
        </g>
        <g transform="matrix(1.0000 0.0000 0.0000 1.0000 0.0000 0.0000)">
</g>
        <g transform="matrix(0.0625 0.0000 0.0000 0.0625 0.0000 0.0000)">
          <path d="M 39.1942,41.0606 L 39.1942,82.1211 L 711.0944,82.1211 L 711.0944,41.0606 L 39.1942,41.0606 Z" stroke-width="1px" stroke="#1A1A1A" fill="#1A1A1A"/>
        </g>
        <g transform="matrix(1.0000 0.0000 0.0000 1.0000 0.0000 0.0000)">
</g>
        <g transform="matrix(0.0625 0.0000 0.0000 0.0625 0.0000 0.0000)">
          <path d="M 674.6998,49.4593 L 674.6998,74.6556 L 699.8961,74.6556 L 699.8961,49.4593 L 674.6998,49.4593 Z" stroke-width="1px" stroke="#FFFFFF" fill="#FFFFFF"/>
        </g>
        <g transform="matrix(1.0000 0.0000 0.0000 1.0000 0.0000 0.0000)">
</g>
        <g transform="matrix(0.0625 0.0000 0.0000 0.0625 0.0000 0.0000)">
          <path d="M 281.8248,226.7663 L 233.2987,226.7663 L 233.2987,317.2862 L 252.8958,317.2862 L 252.8958,281.8248 L 273.4261,281.8248 C 282.7580,281.8248 286.4908,286.4908 288.3572,295.8227 C 289.2904,303.2883 289.2904,311.6870 291.1568,317.2862 L 311.6870,317.2862 C 307.9543,312.6202 307.9543,301.4219 307.0211,295.8227 C 307.0211,286.4908 304.2215,277.1588 293.9563,274.3593 C 304.2215,270.6265 308.8875,262.2277 308.8875,251.9626 C 308.8875,237.9647 298.6223,226.7663 281.8248,226.7663 Z M 275.2924,267.8269 L 252.8958,267.8269 L 252.8958,242.6306 L 275.2924,242.6306 C 283.6912,242.6306 288.3572,246.3634 288.3572,254.7622 C 288.3572,264.0941 283.6912,267.8269 275.2924,267.8269 Z M 348.0816,282.7580 L 359.2800,249.1630 L 371.4115,282.7580 L 348.0816,282.7580 Z M 349.9480,226.7663 L 315.4198,317.2862 L 335.0169,317.2862 L 342.4825,297.6891 L 376.0775,297.6891 L 383.5430,317.2862 L 404.0733,317.2862 L 370.4783,226.7663 L 349.9480,226.7663 Z M 491.7936,257.5617 C 489.9272,236.0983 473.1297,224.8999 452.5994,224.8999 C 424.6036,224.8999 407.8061,245.4302 407.8061,272.4929 C 407.8061,298.6223 424.6036,320.0858 452.5994,320.0858 C 474.9961,320.0858 490.8604,305.1547 492.7268,282.7580 L 473.1297,282.7580 C 472.1965,294.8895 464.7310,303.2883 452.5994,303.2883 C 434.8687,303.2883 428.3364,287.4240 428.3364,272.4929 C 428.3364,256.6286 434.8687,241.6974 452.5994,241.6974 C 462.8646,241.6974 471.2633,248.2298 472.1965,257.5617 L 491.7936,257.5617 Z M 472.1965,257.5617 L 472.1965,257.5617 L 472.1965,257.5617 Z M 506.7247,226.7663 L 506.7247,317.2862 L 570.1820,317.2862 L 570.1820,300.4887 L 526.3218,300.4887 L 526.3218,226.7663 L 506.7247,226.7663 Z M 581.3803,226.7663 L 581.3803,317.2862 L 650.4367,317.2862 L 650.4367,300.4887 L 601.9106,300.4887 L 601.9106,278.0920 L 645.7708,278.0920 L 645.7708,263.1609 L 601.9106,263.1609 L 601.9106,243.5638 L 649.5035,243.5638 L 649.5035,226.7663 L 581.3803,226.7663 L 581.3803,226.7663 Z M 167.9751,320.0858 C 201.5701,320.0858 221.1672,293.9563 221.1672,262.2277 C 221.1672,230.4991 201.5701,203.4365 167.9751,203.4365 C 135.3132,203.4365 114.7830,230.4991 114.7830,262.2277 C 114.7830,293.9563 135.3132,320.0858 167.9751,320.0858 Z M 167.9751,304.2215 C 144.6452,304.2215 134.3800,283.6912 134.3800,262.2277 C 134.3800,240.7642 144.6452,219.3008 167.9751,219.3008 C 192.2381,219.3008 202.5033,240.7642 202.5033,262.2277 C 202.5033,283.6912 192.2381,304.2215 167.9751,304.2215 Z " fill="#333333" stroke="none"/>
        </g>
        <g transform="matrix(1.0000 0.0000 0.0000 1.0000 0.0000 0.0000)">
</g>
      </g>
      <!--emf-blob end-->
    </g>
  </g>
</svg>
