<svg xmlns="http://www.w3.org/2000/svg" xmlns:xlink="http://www.w3.org/1999/xlink" version="1.1" width="82.5354000000" height="48.4683000000">
  <title><![CDATA[Original and Clone]]></title>
  <g transform=" scale(1.000000) ">
    <text xmlns="http://www.w3.org/2000/svg" x="22.6316" y="48.4683">
      <tspan font-family="Arial" font-size="4.5000" fill="#000000" fill-opacity="1.0000" stroke-opacity="1.0000">
Original and Clone</tspan>
    </text>
    <!--converted by libvisio2svg-->
    <g transform=" translate(-1.154600,-1.170100) ">
      <!--emf-blob start-->
      <g transform="translate(0.9584, 0.9584)">
        <path d="M 36.4204,40.2541 L 36.4204,40.2541 L 36.4204,6.7090 L 1.9169,6.7090 L 1.9169,41.2126 C 1.9169,41.2126 1.9169,40.2541 1.9169,40.2541 C 1.9169,46.0047 10.5428,47.9216 19.1686,47.9216 C 26.8361,47.9216 36.4204,46.0047 36.4204,40.2541 C 36.4204,40.2541 36.4204,40.2541 36.4204,40.2541 Z " fill="none" stroke="none"/>
        <defs>
          <clipPath id="clip-937370163">
            <path d="M 36.4204,40.2541 L 36.4204,40.2541 L 36.4204,6.7090 L 1.9169,6.7090 L 1.9169,41.2126 C 1.9169,41.2126 1.9169,40.2541 1.9169,40.2541 C 1.9169,46.0047 10.5428,47.9216 19.1686,47.9216 C 26.8361,47.9216 36.4204,46.0047 36.4204,40.2541 C 36.4204,40.2541 36.4204,40.2541 36.4204,40.2541 Z"/>
          </clipPath>
        </defs>
        <path clip-path="url(#clip-937370163)" d="M 0.9584,5.7506 L 0.9584,47.9216 L 1.9169,47.9216 L 1.9169,5.7506 L 0.9584,5.7506 Z" stroke-width="1px" stroke="#4F4F4F" fill="#4F4F4F"/>
        <path clip-path="url(#clip-937370163)" d="M 1.9169,5.7506 L 1.9169,47.9216 L 2.8753,47.9216 L 2.8753,5.7506 L 1.9169,5.7506 Z" stroke-width="1px" stroke="#545454" fill="#545454"/>
        <path clip-path="url(#clip-937370163)" d="M 2.8753,5.7506 L 2.8753,47.9216 L 3.8337,47.9216 L 3.8337,5.7506 L 2.8753,5.7506 Z" stroke-width="1px" stroke="#5C5C5C" fill="#5C5C5C"/>
        <path clip-path="url(#clip-937370163)" d="M 3.8337,5.7506 L 3.8337,47.9216 L 4.7922,47.9216 L 4.7922,5.7506 L 3.8337,5.7506 Z" stroke-width="1px" stroke="#656565" fill="#656565"/>
        <path clip-path="url(#clip-937370163)" d="M 4.7922,5.7506 L 4.7922,47.9216 L 5.7506,47.9216 L 5.7506,5.7506 L 4.7922,5.7506 Z" stroke-width="1px" stroke="#6D6D6D" fill="#6D6D6D"/>
        <path clip-path="url(#clip-937370163)" d="M 5.7506,5.7506 L 5.7506,47.9216 L 6.7090,47.9216 L 6.7090,5.7506 L 5.7506,5.7506 Z" stroke-width="1px" stroke="#767676" fill="#767676"/>
        <path clip-path="url(#clip-937370163)" d="M 6.7090,5.7506 L 6.7090,47.9216 L 7.6675,47.9216 L 7.6675,5.7506 L 6.7090,5.7506 Z" stroke-width="1px" stroke="#7E7E7E" fill="#7E7E7E"/>
        <path clip-path="url(#clip-937370163)" d="M 7.6675,5.7506 L 7.6675,47.9216 L 8.6259,47.9216 L 8.6259,5.7506 L 7.6675,5.7506 Z" stroke-width="1px" stroke="#878787" fill="#878787"/>
        <path clip-path="url(#clip-937370163)" d="M 8.6259,5.7506 L 8.6259,47.9216 L 9.5843,47.9216 L 9.5843,5.7506 L 8.6259,5.7506 Z" stroke-width="1px" stroke="#909090" fill="#909090"/>
        <path clip-path="url(#clip-937370163)" d="M 9.5843,5.7506 L 9.5843,47.9216 L 10.5428,47.9216 L 10.5428,5.7506 L 9.5843,5.7506 Z" stroke-width="1px" stroke="#989898" fill="#989898"/>
        <path clip-path="url(#clip-937370163)" d="M 10.5428,5.7506 L 10.5428,47.9216 L 11.5012,47.9216 L 11.5012,5.7506 L 10.5428,5.7506 Z" stroke-width="1px" stroke="#A1A1A1" fill="#A1A1A1"/>
        <path clip-path="url(#clip-937370163)" d="M 11.5012,5.7506 L 11.5012,47.9216 L 12.4596,47.9216 L 12.4596,5.7506 L 11.5012,5.7506 Z" stroke-width="1px" stroke="#A9A9A9" fill="#A9A9A9"/>
        <path clip-path="url(#clip-937370163)" d="M 12.4596,5.7506 L 12.4596,47.9216 L 13.4180,47.9216 L 13.4180,5.7506 L 12.4596,5.7506 Z" stroke-width="1px" stroke="#B2B2B2" fill="#B2B2B2"/>
        <path clip-path="url(#clip-937370163)" d="M 13.4180,5.7506 L 13.4180,47.9216 L 14.3765,47.9216 L 14.3765,5.7506 L 13.4180,5.7506 Z" stroke-width="1px" stroke="#BABABA" fill="#BABABA"/>
        <path clip-path="url(#clip-937370163)" d="M 14.3765,5.7506 L 14.3765,47.9216 L 15.3349,47.9216 L 15.3349,5.7506 L 14.3765,5.7506 Z" stroke-width="1px" stroke="#C3C3C3" fill="#C3C3C3"/>
        <path clip-path="url(#clip-937370163)" d="M 15.3349,5.7506 L 15.3349,47.9216 L 16.2933,47.9216 L 16.2933,5.7506 L 15.3349,5.7506 Z" stroke-width="1px" stroke="#CBCBCB" fill="#CBCBCB"/>
        <path clip-path="url(#clip-937370163)" d="M 16.2933,5.7506 L 16.2933,47.9216 L 17.2518,47.9216 L 17.2518,5.7506 L 16.2933,5.7506 Z" stroke-width="1px" stroke="#D4D4D4" fill="#D4D4D4"/>
        <path clip-path="url(#clip-937370163)" d="M 17.2518,5.7506 L 17.2518,47.9216 L 18.2102,47.9216 L 18.2102,5.7506 L 17.2518,5.7506 Z" stroke-width="1px" stroke="#DCDCDC" fill="#DCDCDC"/>
        <path clip-path="url(#clip-937370163)" d="M 18.2102,5.7506 L 18.2102,47.9216 L 19.1686,47.9216 L 19.1686,5.7506 L 18.2102,5.7506 Z" stroke-width="1px" stroke="#E5E5E5" fill="#E5E5E5"/>
        <path clip-path="url(#clip-937370163)" d="M 19.1686,5.7506 L 19.1686,47.9216 L 20.1271,47.9216 L 20.1271,5.7506 L 19.1686,5.7506 Z" stroke-width="1px" stroke="#DFDFDF" fill="#DFDFDF"/>
        <path clip-path="url(#clip-937370163)" d="M 20.1271,5.7506 L 20.1271,47.9216 L 21.0855,47.9216 L 21.0855,5.7506 L 20.1271,5.7506 Z" stroke-width="1px" stroke="#D7D7D7" fill="#D7D7D7"/>
        <path clip-path="url(#clip-937370163)" d="M 21.0855,5.7506 L 21.0855,47.9216 L 22.0439,47.9216 L 22.0439,5.7506 L 21.0855,5.7506 Z" stroke-width="1px" stroke="#CECECE" fill="#CECECE"/>
        <path clip-path="url(#clip-937370163)" d="M 22.0439,5.7506 L 22.0439,47.9216 L 23.0024,47.9216 L 23.0024,5.7506 L 22.0439,5.7506 Z" stroke-width="1px" stroke="#C6C6C6" fill="#C6C6C6"/>
        <path clip-path="url(#clip-937370163)" d="M 23.0024,5.7506 L 23.0024,47.9216 L 23.9608,47.9216 L 23.9608,5.7506 L 23.0024,5.7506 Z" stroke-width="1px" stroke="#BDBDBD" fill="#BDBDBD"/>
        <path clip-path="url(#clip-937370163)" d="M 23.9608,5.7506 L 23.9608,47.9216 L 24.9192,47.9216 L 24.9192,5.7506 L 23.9608,5.7506 Z" stroke-width="1px" stroke="#B5B5B5" fill="#B5B5B5"/>
        <path clip-path="url(#clip-937370163)" d="M 24.9192,5.7506 L 24.9192,47.9216 L 25.8777,47.9216 L 25.8777,5.7506 L 24.9192,5.7506 Z" stroke-width="1px" stroke="#ACACAC" fill="#ACACAC"/>
        <path clip-path="url(#clip-937370163)" d="M 25.8777,5.7506 L 25.8777,47.9216 L 26.8361,47.9216 L 26.8361,5.7506 L 25.8777,5.7506 Z" stroke-width="1px" stroke="#A4A4A4" fill="#A4A4A4"/>
        <path clip-path="url(#clip-937370163)" d="M 26.8361,5.7506 L 26.8361,47.9216 L 27.7945,47.9216 L 27.7945,5.7506 L 26.8361,5.7506 Z" stroke-width="1px" stroke="#9B9B9B" fill="#9B9B9B"/>
        <path clip-path="url(#clip-937370163)" d="M 27.7945,5.7506 L 27.7945,47.9216 L 28.7530,47.9216 L 28.7530,5.7506 L 27.7945,5.7506 Z" stroke-width="1px" stroke="#939393" fill="#939393"/>
        <path clip-path="url(#clip-937370163)" d="M 28.7530,5.7506 L 28.7530,47.9216 L 29.7114,47.9216 L 29.7114,5.7506 L 28.7530,5.7506 Z" stroke-width="1px" stroke="#8A8A8A" fill="#8A8A8A"/>
        <path clip-path="url(#clip-937370163)" d="M 29.7114,5.7506 L 29.7114,47.9216 L 30.6698,47.9216 L 30.6698,5.7506 L 29.7114,5.7506 Z" stroke-width="1px" stroke="#818181" fill="#818181"/>
        <path clip-path="url(#clip-937370163)" d="M 30.6698,5.7506 L 30.6698,47.9216 L 31.6283,47.9216 L 31.6283,5.7506 L 30.6698,5.7506 Z" stroke-width="1px" stroke="#797979" fill="#797979"/>
        <path clip-path="url(#clip-937370163)" d="M 31.6283,5.7506 L 31.6283,47.9216 L 32.5867,47.9216 L 32.5867,5.7506 L 31.6283,5.7506 Z" stroke-width="1px" stroke="#707070" fill="#707070"/>
        <path clip-path="url(#clip-937370163)" d="M 32.5867,5.7506 L 32.5867,47.9216 L 33.5451,47.9216 L 33.5451,5.7506 L 32.5867,5.7506 Z" stroke-width="1px" stroke="#686868" fill="#686868"/>
        <path clip-path="url(#clip-937370163)" d="M 33.5451,5.7506 L 33.5451,47.9216 L 34.5036,47.9216 L 34.5036,5.7506 L 33.5451,5.7506 Z" stroke-width="1px" stroke="#5F5F5F" fill="#5F5F5F"/>
        <path clip-path="url(#clip-937370163)" d="M 34.5036,5.7506 L 34.5036,47.9216 L 35.4620,47.9216 L 35.4620,5.7506 L 34.5036,5.7506 Z" stroke-width="1px" stroke="#575757" fill="#575757"/>
        <g transform="matrix(0.0625 0.0000 0.0000 0.0625 0.0000 0.0000)">
          <path d="M 570.2671,634.4820 L 570.2671,634.4820 L 570.2671,95.8432 L 18.2102,99.6769 L 19.1686,654.6091 C 19.1686,654.6091 18.2102,634.4820 18.2102,634.4820 C 18.2102,722.6578 161.0166,761.9535 294.2386,761.9535 C 427.4607,761.9535 570.2671,722.6578 570.2671,634.4820 C 570.2671,634.4820 570.2671,634.4820 570.2671,634.4820 " stroke="#0054A6" stroke-width="11.5012" stroke-linecap="round" stroke-linejoin="round" fill="none"/>
        </g>
        <g transform="matrix(1.0000 0.0000 0.0000 1.0000 0.0000 0.0000)">
          <path d="M 1.9169,5.7506 C 1.9169,10.5428 14.3765,10.5428 19.1686,10.5428 C 23.0024,10.5428 36.4204,10.5428 36.4204,5.7506 C 36.4204,1.9169 23.0024,1.9169 19.1686,1.9169 C 14.3765,1.9169 1.9169,1.9169 1.9169,5.7506 " fill="none" stroke="none"/>
          <defs>
            <clipPath id="clip-2058657199">
              <path d="M 1.9169,5.7506 C 1.9169,10.5428 14.3765,10.5428 19.1686,10.5428 C 23.0024,10.5428 36.4204,10.5428 36.4204,5.7506 C 36.4204,1.9169 23.0024,1.9169 19.1686,1.9169 C 14.3765,1.9169 1.9169,1.9169 1.9169,5.7506 Z"/>
            </clipPath>
          </defs>
          <path clip-path="url(#clip-2058657199)" d="M 0.9584,0.9584 L 0.9584,10.5428 L 1.9169,10.5428 L 1.9169,0.9584 L 0.9584,0.9584 Z" stroke-width="1px" stroke="#A6A6A6" fill="#A6A6A6"/>
          <path clip-path="url(#clip-2058657199)" d="M 1.9169,0.9584 L 1.9169,10.5428 L 2.8753,10.5428 L 2.8753,0.9584 L 1.9169,0.9584 Z" stroke-width="1px" stroke="#5B5B5B" fill="#5B5B5B"/>
          <path clip-path="url(#clip-2058657199)" d="M 2.8753,0.9584 L 2.8753,10.5428 L 3.8337,10.5428 L 3.8337,0.9584 L 2.8753,0.9584 Z" stroke-width="1px" stroke="#5D5D5D" fill="#5D5D5D"/>
          <path clip-path="url(#clip-2058657199)" d="M 3.8337,0.9584 L 3.8337,10.5428 L 4.7922,10.5428 L 4.7922,0.9584 L 3.8337,0.9584 Z" stroke-width="1px" stroke="#5F5F5F" fill="#5F5F5F"/>
          <path clip-path="url(#clip-2058657199)" d="M 4.7922,0.9584 L 4.7922,10.5428 L 5.7506,10.5428 L 5.7506,0.9584 L 4.7922,0.9584 Z" stroke-width="1px" stroke="#626262" fill="#626262"/>
          <path clip-path="url(#clip-2058657199)" d="M 5.7506,0.9584 L 5.7506,10.5428 L 6.7090,10.5428 L 6.7090,0.9584 L 5.7506,0.9584 Z" stroke-width="1px" stroke="#646464" fill="#646464"/>
          <path clip-path="url(#clip-2058657199)" d="M 6.7090,0.9584 L 6.7090,10.5428 L 7.6675,10.5428 L 7.6675,0.9584 L 6.7090,0.9584 Z" stroke-width="1px" stroke="#656565" fill="#656565"/>
          <path clip-path="url(#clip-2058657199)" d="M 7.6675,0.9584 L 7.6675,10.5428 L 8.6259,10.5428 L 8.6259,0.9584 L 7.6675,0.9584 Z" stroke-width="1px" stroke="#676767" fill="#676767"/>
          <path clip-path="url(#clip-2058657199)" d="M 8.6259,0.9584 L 8.6259,10.5428 L 9.5843,10.5428 L 9.5843,0.9584 L 8.6259,0.9584 Z" stroke-width="1px" stroke="#696969" fill="#696969"/>
          <path clip-path="url(#clip-2058657199)" d="M 9.5843,0.9584 L 9.5843,10.5428 L 10.5428,10.5428 L 10.5428,0.9584 L 9.5843,0.9584 Z" stroke-width="1px" stroke="#6C6C6C" fill="#6C6C6C"/>
          <path clip-path="url(#clip-2058657199)" d="M 10.5428,0.9584 L 10.5428,10.5428 L 11.5012,10.5428 L 11.5012,0.9584 L 10.5428,0.9584 Z" stroke-width="1px" stroke="#6E6E6E" fill="#6E6E6E"/>
          <path clip-path="url(#clip-2058657199)" d="M 11.5012,0.9584 L 11.5012,10.5428 L 12.4596,10.5428 L 12.4596,0.9584 L 11.5012,0.9584 Z" stroke-width="1px" stroke="#707070" fill="#707070"/>
          <path clip-path="url(#clip-2058657199)" d="M 12.4596,0.9584 L 12.4596,10.5428 L 13.4180,10.5428 L 13.4180,0.9584 L 12.4596,0.9584 Z" stroke-width="1px" stroke="#727272" fill="#727272"/>
          <path clip-path="url(#clip-2058657199)" d="M 13.4180,0.9584 L 13.4180,10.5428 L 14.3765,10.5428 L 14.3765,0.9584 L 13.4180,0.9584 Z" stroke-width="1px" stroke="#747474" fill="#747474"/>
          <path clip-path="url(#clip-2058657199)" d="M 14.3765,0.9584 L 14.3765,10.5428 L 15.3349,10.5428 L 15.3349,0.9584 L 14.3765,0.9584 Z" stroke-width="1px" stroke="#777777" fill="#777777"/>
          <path clip-path="url(#clip-2058657199)" d="M 15.3349,0.9584 L 15.3349,10.5428 L 16.2933,10.5428 L 16.2933,0.9584 L 15.3349,0.9584 Z" stroke-width="1px" stroke="#797979" fill="#797979"/>
          <path clip-path="url(#clip-2058657199)" d="M 16.2933,0.9584 L 16.2933,10.5428 L 17.2518,10.5428 L 17.2518,0.9584 L 16.2933,0.9584 Z" stroke-width="1px" stroke="#7B7B7B" fill="#7B7B7B"/>
          <path clip-path="url(#clip-2058657199)" d="M 17.2518,0.9584 L 17.2518,10.5428 L 18.2102,10.5428 L 18.2102,0.9584 L 17.2518,0.9584 Z" stroke-width="1px" stroke="#7D7D7D" fill="#7D7D7D"/>
          <path clip-path="url(#clip-2058657199)" d="M 18.2102,0.9584 L 18.2102,10.5428 L 19.1686,10.5428 L 19.1686,0.9584 L 18.2102,0.9584 Z" stroke-width="1px" stroke="#808080" fill="#808080"/>
          <path clip-path="url(#clip-2058657199)" d="M 19.1686,0.9584 L 19.1686,10.5428 L 20.1271,10.5428 L 20.1271,0.9584 L 19.1686,0.9584 Z" stroke-width="1px" stroke="#818181" fill="#818181"/>
          <path clip-path="url(#clip-2058657199)" d="M 20.1271,0.9584 L 20.1271,10.5428 L 21.0855,10.5428 L 21.0855,0.9584 L 20.1271,0.9584 Z" stroke-width="1px" stroke="#838383" fill="#838383"/>
          <path clip-path="url(#clip-2058657199)" d="M 21.0855,0.9584 L 21.0855,10.5428 L 22.0439,10.5428 L 22.0439,0.9584 L 21.0855,0.9584 Z" stroke-width="1px" stroke="#858585" fill="#858585"/>
          <path clip-path="url(#clip-2058657199)" d="M 22.0439,0.9584 L 22.0439,10.5428 L 23.0024,10.5428 L 23.0024,0.9584 L 22.0439,0.9584 Z" stroke-width="1px" stroke="#878787" fill="#878787"/>
          <path clip-path="url(#clip-2058657199)" d="M 23.0024,0.9584 L 23.0024,10.5428 L 23.9608,10.5428 L 23.9608,0.9584 L 23.0024,0.9584 Z" stroke-width="1px" stroke="#8A8A8A" fill="#8A8A8A"/>
          <path clip-path="url(#clip-2058657199)" d="M 23.9608,0.9584 L 23.9608,10.5428 L 24.9192,10.5428 L 24.9192,0.9584 L 23.9608,0.9584 Z" stroke-width="1px" stroke="#8C8C8C" fill="#8C8C8C"/>
          <path clip-path="url(#clip-2058657199)" d="M 24.9192,0.9584 L 24.9192,10.5428 L 25.8777,10.5428 L 25.8777,0.9584 L 24.9192,0.9584 Z" stroke-width="1px" stroke="#8E8E8E" fill="#8E8E8E"/>
          <path clip-path="url(#clip-2058657199)" d="M 25.8777,0.9584 L 25.8777,10.5428 L 26.8361,10.5428 L 26.8361,0.9584 L 25.8777,0.9584 Z" stroke-width="1px" stroke="#909090" fill="#909090"/>
          <path clip-path="url(#clip-2058657199)" d="M 26.8361,0.9584 L 26.8361,10.5428 L 27.7945,10.5428 L 27.7945,0.9584 L 26.8361,0.9584 Z" stroke-width="1px" stroke="#939393" fill="#939393"/>
          <path clip-path="url(#clip-2058657199)" d="M 27.7945,0.9584 L 27.7945,10.5428 L 28.7530,10.5428 L 28.7530,0.9584 L 27.7945,0.9584 Z" stroke-width="1px" stroke="#959595" fill="#959595"/>
          <path clip-path="url(#clip-2058657199)" d="M 28.7530,0.9584 L 28.7530,10.5428 L 29.7114,10.5428 L 29.7114,0.9584 L 28.7530,0.9584 Z" stroke-width="1px" stroke="#979797" fill="#979797"/>
          <path clip-path="url(#clip-2058657199)" d="M 29.7114,0.9584 L 29.7114,10.5428 L 30.6698,10.5428 L 30.6698,0.9584 L 29.7114,0.9584 Z" stroke-width="1px" stroke="#999999" fill="#999999"/>
          <path clip-path="url(#clip-2058657199)" d="M 30.6698,0.9584 L 30.6698,10.5428 L 31.6283,10.5428 L 31.6283,0.9584 L 30.6698,0.9584 Z" stroke-width="1px" stroke="#9B9B9B" fill="#9B9B9B"/>
          <path clip-path="url(#clip-2058657199)" d="M 31.6283,0.9584 L 31.6283,10.5428 L 32.5867,10.5428 L 32.5867,0.9584 L 31.6283,0.9584 Z" stroke-width="1px" stroke="#9D9D9D" fill="#9D9D9D"/>
          <path clip-path="url(#clip-2058657199)" d="M 32.5867,0.9584 L 32.5867,10.5428 L 33.5451,10.5428 L 33.5451,0.9584 L 32.5867,0.9584 Z" stroke-width="1px" stroke="#9F9F9F" fill="#9F9F9F"/>
          <path clip-path="url(#clip-2058657199)" d="M 33.5451,0.9584 L 33.5451,10.5428 L 34.5036,10.5428 L 34.5036,0.9584 L 33.5451,0.9584 Z" stroke-width="1px" stroke="#A1A1A1" fill="#A1A1A1"/>
          <path clip-path="url(#clip-2058657199)" d="M 34.5036,0.9584 L 34.5036,10.5428 L 35.4620,10.5428 L 35.4620,0.9584 L 34.5036,0.9584 Z" stroke-width="1px" stroke="#A3A3A3" fill="#A3A3A3"/>
        </g>
        <g transform="matrix(0.0625 0.0000 0.0000 0.0625 0.0000 0.0000)">
          <path d="M 34.5036,0.9584 M 18.2102,90.0926 C 18.2102,157.1829 230.0237,161.9750 294.2386,161.9750 C 359.4120,161.9750 570.2671,157.1829 570.2671,90.0926 C 570.2671,23.0024 359.4120,18.2102 294.2386,18.2102 C 230.0237,18.2102 18.2102,23.0024 18.2102,90.0926 " stroke="#0054A6" stroke-width="11.5012" stroke-linecap="round" stroke-linejoin="round" fill="none"/>
        </g>
        <g transform="matrix(1.0000 0.0000 0.0000 1.0000 0.0000 0.0000)">
</g>
        <g transform="matrix(0.0625 0.0000 0.0000 0.0625 0.0000 0.0000)">
          <path d="M 740.8680,640.2326 L 749.4939,668.9856 L 748.5355,667.0687 L 758.1198,679.5283 C 760.9951,682.4036 760.0366,687.1958 757.1613,690.0711 C 753.3276,692.9464 748.5355,691.9880 745.6602,689.1127 L 736.0758,675.6946 C 736.0758,675.6946 735.1174,674.7362 735.1174,673.7777 L 726.4915,645.0248 C 725.5331,641.1911 727.4499,636.3989 731.2837,635.4405 C 735.1174,634.4820 739.9096,636.3989 740.8680,640.2326 Z M 790.7065,707.3229 L 794.5402,710.1982 L 793.5818,709.2397 L 829.0437,726.4915 L 827.1269,726.4915 L 829.0437,726.4915 C 833.8359,727.4499 835.7528,732.2421 834.7943,736.0758 C 833.8359,739.9096 830.0022,742.7849 826.1684,741.8264 L 823.2932,740.8680 C 823.2932,740.8680 822.3347,740.8680 822.3347,740.8680 L 786.8727,723.6162 C 786.8727,722.6578 785.9143,722.6578 785.9143,722.6578 L 782.0806,719.7825 C 778.2468,717.8656 777.2884,713.0735 780.1637,709.2397 C 783.0390,706.3644 787.8312,705.4060 790.7065,707.3229 Z M 874.0901,737.9927 L 913.3858,748.5355 L 912.4273,747.5770 L 917.2195,748.5355 C 922.0117,748.5355 924.8870,752.3692 924.8870,756.2029 C 923.9285,760.9951 921.0532,763.8704 916.2611,763.8704 L 911.4689,762.9119 C 910.5105,762.9119 910.5105,762.9119 909.5520,762.9119 L 870.2563,753.3276 C 866.4226,752.3692 863.5473,747.5770 864.5057,743.7433 C 865.4642,739.9096 870.2563,737.0343 874.0901,737.9927 Z M 963.2242,751.4107 L 1009.2290,754.2860 C 1013.0627,755.2445 1016.8964,759.0782 1015.9380,762.9119 C 1015.9380,766.7457 1012.1043,770.5794 1008.2705,769.6210 L 962.2658,766.7457 C 958.4321,766.7457 954.5983,762.9119 955.5568,759.0782 C 955.5568,754.2860 959.3905,751.4107 963.2242,751.4107 Z M 1054.2753,751.4107 L 1100.2800,747.5770 C 1104.1138,747.5770 1107.9475,750.4523 1107.9475,754.2860 C 1107.9475,759.0782 1105.0722,762.9119 1101.2385,762.9119 L 1055.2337,766.7457 C 1051.4000,766.7457 1047.5663,763.8704 1046.6078,759.0782 C 1046.6078,755.2445 1049.4831,751.4107 1054.2753,751.4107 Z M 1144.3679,739.9096 L 1152.9938,737.9927 L 1187.4973,726.4915 C 1191.3311,725.5331 1196.1232,727.4499 1197.0817,731.2837 C 1198.0401,736.0758 1196.1232,739.9096 1192.2895,740.8680 L 1155.8691,752.3692 L 1147.2432,754.2860 C 1143.4095,755.2445 1138.6173,752.3692 1137.6589,748.5355 C 1137.6589,744.7017 1139.5757,739.9096 1144.3679,739.9096 Z M 1228.7099,708.2813 L 1229.6684,707.3229 L 1227.7515,708.2813 L 1255.5460,686.2374 L 1254.5876,688.1542 L 1259.3797,680.4868 C 1261.2966,677.6115 1266.0888,675.6946 1269.9225,678.5699 C 1273.7562,680.4868 1274.7147,685.2789 1271.8394,689.1127 L 1267.0472,696.7801 C 1267.0472,697.7386 1266.0888,697.7386 1265.1303,698.6970 L 1237.3358,720.7409 C 1237.3358,720.7409 1236.3774,720.7409 1236.3774,721.6994 L 1234.4605,721.6994 C 1230.6268,723.6162 1226.7931,722.6578 1224.8762,718.8241 C 1222.9593,714.9903 1224.8762,710.1982 1228.7099,708.2813 Z M 1275.6731,641.1911 L 1277.5900,633.5236 C 1278.5484,628.7314 1282.3821,626.8146 1286.2158,627.7730 C 1290.0496,628.7314 1292.9249,632.5652 1291.9664,636.3989 L 1290.0496,645.0248 C 1289.0911,648.8585 1285.2574,651.7338 1281.4237,650.7754 C 1277.5900,649.8169 1274.7147,645.9832 1275.6731,641.1911 Z M 1276.6315,634.4820 L 1276.6315,597.1032 C 1276.6315,593.2695 1280.4653,589.4357 1284.2990,589.4357 C 1289.0911,589.4357 1291.9664,593.2695 1291.9664,597.1032 L 1291.9664,634.4820 C 1291.9664,639.2742 1289.0911,642.1495 1284.2990,642.1495 C 1280.4653,642.1495 1276.6315,639.2742 1276.6315,634.4820 Z M 1276.6315,551.0984 L 1276.6315,505.0937 C 1276.6315,501.2600 1280.4653,497.4262 1284.2990,497.4262 C 1289.0911,497.4262 1291.9664,501.2600 1291.9664,505.0937 L 1291.9664,551.0984 C 1291.9664,555.8906 1289.0911,558.7659 1284.2990,558.7659 C 1280.4653,558.7659 1276.6315,555.8906 1276.6315,551.0984 Z M 1276.6315,459.0890 L 1276.6315,413.0842 C 1276.6315,409.2505 1280.4653,405.4168 1284.2990,405.4168 C 1289.0911,405.4168 1291.9664,409.2505 1291.9664,413.0842 L 1291.9664,459.0890 C 1291.9664,463.8811 1289.0911,466.7564 1284.2990,466.7564 C 1280.4653,466.7564 1276.6315,463.8811 1276.6315,459.0890 Z M 1276.6315,367.0795 L 1276.6315,321.0747 C 1276.6315,317.2410 1280.4653,313.4073 1284.2990,313.4073 C 1289.0911,313.4073 1291.9664,317.2410 1291.9664,321.0747 L 1291.9664,367.0795 C 1291.9664,371.8716 1289.0911,374.7469 1284.2990,374.7469 C 1280.4653,374.7469 1276.6315,371.8716 1276.6315,367.0795 Z M 1276.6315,275.0700 L 1276.6315,229.0653 C 1276.6315,225.2315 1280.4653,221.3978 1284.2990,221.3978 C 1289.0911,221.3978 1291.9664,225.2315 1291.9664,229.0653 L 1291.9664,275.0700 C 1291.9664,279.8622 1289.0911,282.7375 1284.2990,282.7375 C 1280.4653,282.7375 1276.6315,279.8622 1276.6315,275.0700 Z M 1276.6315,183.0605 L 1276.6315,137.0558 C 1276.6315,133.2221 1280.4653,129.3883 1284.2990,129.3883 C 1289.0911,129.3883 1291.9664,133.2221 1291.9664,137.0558 L 1291.9664,183.0605 C 1291.9664,187.8527 1289.0911,190.7280 1284.2990,190.7280 C 1280.4653,190.7280 1276.6315,187.8527 1276.6315,183.0605 Z M 1290.0496,104.4691 L 1286.2158,113.0950 C 1285.2574,114.0534 1285.2574,115.0118 1284.2990,115.0118 L 1272.7978,125.5546 C 1271.8394,126.5130 1271.8394,126.5130 1270.8809,127.4715 L 1251.7123,136.0974 C 1247.8786,138.0142 1244.0448,137.0558 1242.1280,133.2221 C 1240.2111,129.3883 1241.1695,124.5962 1245.0033,122.6793 L 1264.1719,113.0950 L 1262.2550,115.0118 L 1273.7562,104.4691 L 1271.8394,106.3860 L 1275.6731,97.7601 C 1277.5900,93.9263 1281.4237,92.0095 1286.2158,93.9263 C 1290.0496,95.8432 1291.0080,99.6769 1290.0496,104.4691 Z M 1206.6660,151.4323 L 1181.7467,157.1829 L 1161.6197,160.0582 C 1156.8275,161.0166 1152.9938,158.1413 1152.9938,154.3076 C 1152.0354,149.5154 1154.9107,145.6817 1158.7444,144.7232 L 1178.8715,142.8064 L 1203.7907,137.0558 C 1207.6244,136.0974 1211.4581,138.0142 1212.4166,142.8064 C 1213.3750,146.6401 1211.4581,150.4738 1206.6660,151.4323 Z M 1114.6565,165.8087 L 1068.6518,168.6840 C 1064.8180,168.6840 1060.9843,165.8087 1060.9843,161.0166 C 1060.9843,157.1829 1063.8596,153.3491 1068.6518,153.3491 L 1113.6981,150.4738 C 1118.4902,150.4738 1122.3240,153.3491 1122.3240,158.1413 C 1122.3240,161.9750 1119.4487,165.8087 1114.6565,165.8087 Z M 1022.6470,169.6425 L 1008.2705,169.6425 L 979.5176,169.6425 L 976.6423,169.6425 C 971.8501,169.6425 968.9748,165.8087 968.9748,161.9750 C 968.9748,157.1829 972.8086,154.3076 976.6423,154.3076 L 979.5176,154.3076 L 1008.2705,154.3076 L 1022.6470,154.3076 C 1026.4808,154.3076 1030.3145,158.1413 1030.3145,161.9750 C 1030.3145,166.7672 1026.4808,169.6425 1022.6470,169.6425 Z M 929.6791,166.7672 L 884.6328,162.9335 C 879.8406,162.9335 876.9653,159.0997 876.9653,154.3076 C 877.9238,150.4738 881.7575,147.5985 885.5912,147.5985 L 931.5960,151.4323 C 935.4297,152.3907 939.2634,156.2244 938.3050,160.0582 C 938.3050,163.8919 934.4713,167.7256 929.6791,166.7672 Z M 837.6696,157.1829 L 811.7920,152.3907 L 792.6233,146.6401 C 787.8312,145.6817 785.9143,140.8895 786.8727,137.0558 C 788.7896,133.2221 792.6233,130.3468 797.4155,132.2636 L 814.6673,138.0142 L 840.5449,141.8479 C 844.3787,142.8064 847.2540,146.6401 847.2540,151.4323 C 846.2955,155.2660 842.4618,158.1413 837.6696,157.1829 Z M 749.4939,128.4299 L 745.6602,126.5130 C 744.7017,125.5546 743.7433,124.5962 742.7849,123.6377 L 728.4084,104.4691 L 734.1590,107.3444 L 732.2421,107.3444 L 739.9096,99.6769 L 739.9096,115.9703 C 740.8680,120.7624 737.0343,123.6377 733.2005,123.6377 C 728.4084,123.6377 725.5331,120.7624 724.5746,115.9703 L 724.5746,99.6769 C 724.5746,97.7601 725.5331,95.8432 727.4499,94.8848 C 728.4084,92.9679 730.3252,92.0095 732.2421,92.0095 L 734.1590,92.0095 C 737.0343,92.0095 738.9511,93.9263 740.8680,95.8432 L 755.2445,115.0118 L 752.3692,112.1366 L 756.2029,114.0534 C 760.0366,115.9703 760.9951,120.7624 759.0782,124.5962 C 757.1613,128.4299 752.3692,130.3468 749.4939,128.4299 Z M 740.8680,161.9750 L 740.8680,207.9798 C 740.8680,212.7719 737.0343,215.6472 733.2005,215.6472 C 728.4084,215.6472 725.5331,212.7719 725.5331,207.9798 L 725.5331,161.9750 C 725.5331,158.1413 728.4084,154.3076 733.2005,154.3076 C 737.0343,154.3076 740.8680,158.1413 740.8680,161.9750 Z M 740.8680,253.9845 L 740.8680,299.9892 C 740.8680,304.7814 737.0343,307.6567 733.2005,307.6567 C 728.4084,307.6567 725.5331,304.7814 725.5331,299.9892 L 725.5331,253.9845 C 725.5331,250.1508 728.4084,246.3170 733.2005,246.3170 C 737.0343,246.3170 740.8680,250.1508 740.8680,253.9845 Z M 740.8680,345.9940 L 740.8680,391.9987 C 740.8680,396.7909 737.0343,399.6662 733.2005,399.6662 C 729.3668,399.6662 725.5331,396.7909 725.5331,391.9987 L 725.5331,345.9940 C 725.5331,342.1603 728.4084,338.3265 733.2005,338.3265 C 737.0343,338.3265 740.8680,342.1603 740.8680,345.9940 Z M 740.8680,438.0035 L 740.8680,484.0082 C 740.8680,488.8004 737.9927,491.6757 733.2005,491.6757 C 729.3668,491.6757 725.5331,488.8004 725.5331,484.0082 L 725.5331,438.0035 C 725.5331,434.1697 729.3668,430.3360 733.2005,430.3360 C 737.0343,430.3360 740.8680,434.1697 740.8680,438.0035 Z M 740.8680,530.0129 L 740.8680,576.0177 C 740.8680,580.8098 737.9927,583.6851 733.2005,583.6851 C 729.3668,583.6851 725.5331,580.8098 725.5331,576.0177 L 725.5331,530.0129 C 725.5331,526.1792 729.3668,522.3455 733.2005,522.3455 C 737.9927,522.3455 740.8680,526.1792 740.8680,530.0129 Z M 740.8680,622.0224 L 740.8680,642.1495 C 740.8680,646.9417 737.9927,649.8169 733.2005,649.8169 C 729.3668,649.8169 725.5331,646.9417 725.5331,642.1495 L 725.5331,622.0224 C 725.5331,618.1887 729.3668,614.3550 733.2005,614.3550 C 737.9927,614.3550 740.8680,618.1887 740.8680,622.0224 Z M 740.8680,95.8432 L 755.2445,115.0118 L 752.3692,112.1366 L 772.4963,122.6793 C 775.3715,124.5962 777.2884,129.3883 775.3715,133.2221 C 773.4547,137.0558 768.6625,138.0142 764.8288,136.0974 L 745.6602,126.5130 C 744.7017,125.5546 743.7433,124.5962 742.7849,123.6377 L 728.4084,104.4691 C 725.5331,101.5938 726.4915,96.8016 730.3252,93.9263 C 733.2005,91.0510 737.9927,92.0095 740.8680,95.8432 Z M 813.7088,137.0558 L 815.6257,138.0142 L 857.7967,145.6817 L 857.7967,145.6817 C 861.6304,145.6817 865.4642,149.5154 864.5057,153.3491 C 864.5057,158.1413 860.6720,161.0166 856.8383,161.0166 L 854.9214,160.0582 L 810.8335,152.3907 L 809.8751,152.3907 C 805.0829,150.4738 803.1661,146.6401 804.1245,142.8064 C 806.0414,138.0142 809.8751,136.0974 813.7088,137.0558 Z M 903.8014,149.5154 L 943.0972,153.3491 L 948.8478,153.3491 C 953.6399,153.3491 956.5152,157.1829 956.5152,161.0166 C 956.5152,165.8087 952.6815,168.6840 947.8893,168.6840 L 942.1387,167.7256 L 901.8846,164.8503 C 898.0509,163.8919 895.1756,160.0582 895.1756,156.2244 C 895.1756,152.3907 899.0093,148.5570 903.8014,149.5154 Z M 994.8525,154.3076 L 1008.2705,154.3076 L 1030.3145,154.3076 L 1040.8572,154.3076 C 1044.6910,154.3076 1048.5247,157.1829 1048.5247,161.9750 C 1048.5247,165.8087 1045.6494,169.6425 1040.8572,169.6425 L 1030.3145,169.6425 L 1008.2705,169.6425 L 994.8525,169.6425 C 990.0603,169.6425 987.1850,166.7672 987.1850,161.9750 C 987.1850,158.1413 990.0603,154.3076 994.8525,154.3076 Z M 1085.9035,152.3907 L 1125.1993,149.5154 L 1131.9083,149.5154 C 1135.7420,148.5570 1139.5757,151.4323 1140.5342,155.2660 C 1140.5342,160.0582 1137.6589,163.8919 1133.8251,163.8919 L 1126.1577,164.8503 L 1086.8620,167.7256 C 1083.0282,167.7256 1079.1945,164.8503 1079.1945,160.0582 C 1079.1945,156.2244 1082.0698,152.3907 1085.9035,152.3907 Z M 1176.9546,142.8064 L 1178.8715,142.8064 L 1221.0425,132.2636 C 1225.8346,131.3052 1229.6684,134.1805 1230.6268,138.0142 C 1231.5852,142.8064 1228.7099,146.6401 1224.8762,147.5985 L 1181.7467,157.1829 L 1178.8715,158.1413 C 1175.0377,158.1413 1171.2040,155.2660 1170.2456,151.4323 C 1170.2456,147.5985 1173.1209,142.8064 1176.9546,142.8064 Z M 1261.2966,115.0118 L 1264.1719,113.0950 L 1262.2550,115.0118 L 1273.7562,104.4691 L 1271.8394,106.3860 L 1277.5900,92.9679 L 1276.6315,95.8432 L 1276.6315,90.0926 L 1277.5900,93.9263 L 1274.7147,87.2173 C 1272.7978,83.3836 1274.7147,78.5914 1278.5484,76.6746 C 1282.3821,75.7161 1287.1743,76.6746 1289.0911,80.5083 L 1291.9664,87.2173 C 1291.9664,88.1758 1291.9664,89.1342 1291.9664,90.0926 L 1291.9664,95.8432 C 1291.9664,97.7601 1291.9664,98.7185 1291.9664,99.6769 L 1286.2158,113.0950 C 1285.2574,114.0534 1285.2574,115.0118 1284.2990,115.0118 L 1272.7978,125.5546 C 1271.8394,126.5130 1271.8394,126.5130 1270.8809,127.4715 L 1268.0056,128.4299 C 1264.1719,130.3468 1259.3797,128.4299 1258.4213,124.5962 C 1256.5045,120.7624 1257.4629,116.9287 1261.2966,115.0118 Z M 1246.9201,57.5059 L 1246.9201,57.5059 L 1248.8370,58.4644 L 1212.4166,46.0047 L 1206.6660,45.0463 C 1201.8738,44.0879 1198.9985,39.2957 1199.9570,35.4620 C 1200.9154,31.6283 1205.7076,28.7530 1209.5413,29.7114 L 1217.2087,31.6283 L 1253.6292,44.0879 C 1254.5876,44.0879 1255.5460,45.0463 1255.5460,45.0463 L 1256.5045,45.0463 C 1259.3797,47.9216 1260.3382,52.7138 1257.4629,55.5891 C 1255.5460,59.4228 1250.7539,60.3812 1246.9201,57.5059 Z M 1161.6197,36.4204 L 1116.5734,31.6283 C 1111.7812,31.6283 1108.9059,27.7945 1108.9059,23.0024 C 1109.8643,19.1686 1113.6981,16.2933 1117.5318,16.2933 L 1163.5365,21.0855 C 1167.3703,21.0855 1171.2040,24.9192 1170.2456,28.7530 C 1170.2456,33.5451 1166.4118,36.4204 1161.6197,36.4204 Z M 1070.5686,27.7945 L 1038.9404,25.8777 L 1025.5223,25.8777 C 1020.7302,25.8777 1017.8549,23.0024 1017.8549,18.2102 C 1017.8549,14.3765 1020.7302,10.5428 1025.5223,10.5428 L 1039.8988,10.5428 L 1071.5271,12.4596 C 1075.3608,12.4596 1079.1945,16.2933 1079.1945,20.1271 C 1078.2361,24.9192 1075.3608,27.7945 1070.5686,27.7945 Z M 979.5176,25.8777 L 977.6007,25.8777 L 939.2634,27.7945 L 933.5128,28.7530 C 929.6791,28.7530 925.8454,25.8777 925.8454,22.0439 C 924.8870,17.2518 928.7207,13.4180 932.5544,13.4180 L 938.3050,12.4596 L 977.6007,10.5428 L 979.5176,10.5428 C 983.3513,10.5428 987.1850,14.3765 987.1850,18.2102 C 987.1850,23.0024 983.3513,25.8777 979.5176,25.8777 Z M 888.4665,32.5867 L 847.2540,36.4204 L 843.4202,37.3789 C 839.5865,38.3373 834.7943,36.4204 833.8359,31.6283 C 832.8775,27.7945 835.7528,23.9608 840.5449,23.0024 L 846.2955,22.0439 L 886.5497,18.2102 C 891.3418,17.2518 894.2171,20.1271 895.1756,24.9192 C 895.1756,28.7530 892.3003,32.5867 888.4665,32.5867 Z M 799.3324,47.9216 L 769.6210,58.4644 L 771.5378,57.5059 L 760.0366,66.1318 C 756.2029,68.0487 751.4107,67.0902 749.4939,64.2149 C 746.6186,60.3812 747.5770,55.5891 751.4107,52.7138 L 762.9119,45.0463 C 763.8704,44.0879 763.8704,44.0879 764.8288,44.0879 L 794.5402,33.5451 C 798.3739,32.5867 803.1661,34.5036 804.1245,38.3373 C 806.0414,42.1710 803.1661,46.9632 799.3324,47.9216 Z M 741.8264,94.8848 L 741.8264,98.7185 C 742.7849,102.5522 739.9096,106.3860 736.0758,107.3444 C 732.2421,108.3028 727.4499,105.4275 727.4499,101.5938 L 726.4915,97.7601 C 725.5331,93.9263 728.4084,90.0926 732.2421,89.1342 C 736.0758,88.1758 740.8680,91.0510 741.8264,94.8848 Z " fill="#0054A6" stroke="#0054A6" stroke-width="15.3349" stroke-linecap="butt" stroke-linejoin="bevel"/>
        </g>
        <g transform="matrix(1.0000 0.0000 0.0000 1.0000 0.0000 0.0000)">
</g>
      </g>
      <!--emf-blob end-->
    </g>
  </g>
</svg>
