<svg xmlns="http://www.w3.org/2000/svg" xmlns:xlink="http://www.w3.org/1999/xlink" version="1.1" width="23.6413000000" height="29.8164000000">
  <title><![CDATA[Permission list]]></title>
  <g transform=" scale(1.000000) ">
    <text xmlns="http://www.w3.org/2000/svg" x="-2.6824" y="29.8164">
      <tspan font-family="Arial" font-size="4.5000" fill="#000000" fill-opacity="1.0000" stroke-opacity="1.0000">
Permission list</tspan>
    </text>
    <!--converted by libvisio2svg-->
    <g transform=" translate(-1.160500,-1.169800) ">
      <!--emf-blob start-->
      <g transform="translate(-0.0000, -0.0000)">
        <defs>
          <clipPath id="clip-1876855542">
            <path d="M 1.9213,4.8031 L 2.8819,4.8031 L 2.8819,29.7795 L 1.9213,29.7795 L 1.9213,4.8031 Z Z"/>
          </clipPath>
        </defs>
        <path clip-path="url(#clip-1876855542)" d="M 0.9606,3.8425 L 0.9606,4.8031 L 2.8819,4.8031 L 2.8819,3.8425 L 0.9606,3.8425 Z" stroke-width="1px" stroke="#C0C0C0" fill="#C0C0C0"/>
        <path clip-path="url(#clip-1876855542)" d="M 0.9606,4.8031 L 0.9606,5.7638 L 2.8819,5.7638 L 2.8819,4.8031 L 0.9606,4.8031 Z" stroke-width="1px" stroke="#515151" fill="#515151"/>
        <path clip-path="url(#clip-1876855542)" d="M 0.9606,5.7638 L 0.9606,6.7244 L 2.8819,6.7244 L 2.8819,5.7638 L 0.9606,5.7638 Z" stroke-width="1px" stroke="#555555" fill="#555555"/>
        <path clip-path="url(#clip-1876855542)" d="M 0.9606,6.7244 L 0.9606,7.6850 L 2.8819,7.6850 L 2.8819,6.7244 L 0.9606,6.7244 Z" stroke-width="1px" stroke="#595959" fill="#595959"/>
        <path clip-path="url(#clip-1876855542)" d="M 0.9606,7.6850 L 0.9606,8.6457 L 2.8819,8.6457 L 2.8819,7.6850 L 0.9606,7.6850 Z" stroke-width="1px" stroke="#5E5E5E" fill="#5E5E5E"/>
        <path clip-path="url(#clip-1876855542)" d="M 0.9606,8.6457 L 0.9606,9.6063 L 2.8819,9.6063 L 2.8819,8.6457 L 0.9606,8.6457 Z" stroke-width="1px" stroke="#636363" fill="#636363"/>
        <path clip-path="url(#clip-1876855542)" d="M 0.9606,9.6063 L 0.9606,10.5669 L 2.8819,10.5669 L 2.8819,9.6063 L 0.9606,9.6063 Z" stroke-width="1px" stroke="#676767" fill="#676767"/>
        <path clip-path="url(#clip-1876855542)" d="M 0.9606,10.5669 L 0.9606,11.5276 L 2.8819,11.5276 L 2.8819,10.5669 L 0.9606,10.5669 Z" stroke-width="1px" stroke="#6B6B6B" fill="#6B6B6B"/>
        <path clip-path="url(#clip-1876855542)" d="M 0.9606,11.5276 L 0.9606,12.4882 L 2.8819,12.4882 L 2.8819,11.5276 L 0.9606,11.5276 Z" stroke-width="1px" stroke="#6F6F6F" fill="#6F6F6F"/>
        <path clip-path="url(#clip-1876855542)" d="M 0.9606,12.4882 L 0.9606,13.4488 L 2.8819,13.4488 L 2.8819,12.4882 L 0.9606,12.4882 Z" stroke-width="1px" stroke="#737373" fill="#737373"/>
        <path clip-path="url(#clip-1876855542)" d="M 0.9606,13.4488 L 0.9606,14.4094 L 2.8819,14.4094 L 2.8819,13.4488 L 0.9606,13.4488 Z" stroke-width="1px" stroke="#787878" fill="#787878"/>
        <path clip-path="url(#clip-1876855542)" d="M 0.9606,14.4094 L 0.9606,15.3701 L 2.8819,15.3701 L 2.8819,14.4094 L 0.9606,14.4094 Z" stroke-width="1px" stroke="#7C7C7C" fill="#7C7C7C"/>
        <path clip-path="url(#clip-1876855542)" d="M 0.9606,15.3701 L 0.9606,16.3307 L 2.8819,16.3307 L 2.8819,15.3701 L 0.9606,15.3701 Z" stroke-width="1px" stroke="#808080" fill="#808080"/>
        <path clip-path="url(#clip-1876855542)" d="M 0.9606,16.3307 L 0.9606,17.2913 L 2.8819,17.2913 L 2.8819,16.3307 L 0.9606,16.3307 Z" stroke-width="1px" stroke="#858585" fill="#858585"/>
        <path clip-path="url(#clip-1876855542)" d="M 0.9606,17.2913 L 0.9606,18.2520 L 2.8819,18.2520 L 2.8819,17.2913 L 0.9606,17.2913 Z" stroke-width="1px" stroke="#898989" fill="#898989"/>
        <path clip-path="url(#clip-1876855542)" d="M 0.9606,18.2520 L 0.9606,19.2126 L 2.8819,19.2126 L 2.8819,18.2520 L 0.9606,18.2520 Z" stroke-width="1px" stroke="#8E8E8E" fill="#8E8E8E"/>
        <path clip-path="url(#clip-1876855542)" d="M 0.9606,19.2126 L 0.9606,20.1732 L 2.8819,20.1732 L 2.8819,19.2126 L 0.9606,19.2126 Z" stroke-width="1px" stroke="#929292" fill="#929292"/>
        <path clip-path="url(#clip-1876855542)" d="M 0.9606,20.1732 L 0.9606,21.1339 L 2.8819,21.1339 L 2.8819,20.1732 L 0.9606,20.1732 Z" stroke-width="1px" stroke="#969696" fill="#969696"/>
        <path clip-path="url(#clip-1876855542)" d="M 0.9606,21.1339 L 0.9606,22.0945 L 2.8819,22.0945 L 2.8819,21.1339 L 0.9606,21.1339 Z" stroke-width="1px" stroke="#9A9A9A" fill="#9A9A9A"/>
        <path clip-path="url(#clip-1876855542)" d="M 0.9606,22.0945 L 0.9606,23.0551 L 2.8819,23.0551 L 2.8819,22.0945 L 0.9606,22.0945 Z" stroke-width="1px" stroke="#9E9E9E" fill="#9E9E9E"/>
        <path clip-path="url(#clip-1876855542)" d="M 0.9606,23.0551 L 0.9606,24.0157 L 2.8819,24.0157 L 2.8819,23.0551 L 0.9606,23.0551 Z" stroke-width="1px" stroke="#A2A2A2" fill="#A2A2A2"/>
        <path clip-path="url(#clip-1876855542)" d="M 0.9606,24.0157 L 0.9606,24.9764 L 2.8819,24.9764 L 2.8819,24.0157 L 0.9606,24.0157 Z" stroke-width="1px" stroke="#A7A7A7" fill="#A7A7A7"/>
        <path clip-path="url(#clip-1876855542)" d="M 0.9606,24.9764 L 0.9606,25.9370 L 2.8819,25.9370 L 2.8819,24.9764 L 0.9606,24.9764 Z" stroke-width="1px" stroke="#ABABAB" fill="#ABABAB"/>
        <path clip-path="url(#clip-1876855542)" d="M 0.9606,25.9370 L 0.9606,26.8976 L 2.8819,26.8976 L 2.8819,25.9370 L 0.9606,25.9370 Z" stroke-width="1px" stroke="#B0B0B0" fill="#B0B0B0"/>
        <path clip-path="url(#clip-1876855542)" d="M 0.9606,26.8976 L 0.9606,27.8583 L 2.8819,27.8583 L 2.8819,26.8976 L 0.9606,26.8976 Z" stroke-width="1px" stroke="#B4B4B4" fill="#B4B4B4"/>
        <path clip-path="url(#clip-1876855542)" d="M 0.9606,27.8583 L 0.9606,28.8189 L 2.8819,28.8189 L 2.8819,27.8583 L 0.9606,27.8583 Z" stroke-width="1px" stroke="#B8B8B8" fill="#B8B8B8"/>
        <path clip-path="url(#clip-1876855542)" d="M 0.9606,28.8189 L 0.9606,29.7795 L 2.8819,29.7795 L 2.8819,28.8189 L 0.9606,28.8189 Z" stroke-width="1px" stroke="#BDBDBD" fill="#BDBDBD"/>
        <g transform="matrix(0.0625 0.0000 0.0000 0.0625 0.0000 0.0000)">
          <path d="M 47.0709,474.5510 C 43.2283,471.6691 41.3071,466.8660 41.3071,462.0629 L 41.3071,72.0472 C 41.3071,69.1653 42.2677,65.3228 45.1496,62.4409 L 45.1496,62.4409 L 24.9764,76.8504 C 20.1732,79.7323 18.2520,84.5354 18.2520,89.3386 L 18.2520,89.3386 L 18.2520,450.5353 C 18.2520,456.2991 21.1339,462.0629 26.8976,464.9447 L 26.8976,464.9447 L 47.0709,474.5510 " stroke="#1A1A1A" stroke-width="5.7638" stroke-linecap="round" stroke-linejoin="round" fill="none"/>
        </g>
        <g transform="matrix(1.0000 0.0000 0.0000 1.0000 0.0000 0.0000)">
          <path d="M 3.8425,29.7795 L 22.0945,29.7795 C 23.0551,29.7795 23.0551,29.7795 23.0551,29.7795 C 23.0551,29.7795 23.0551,29.7795 23.0551,29.7795 L 23.0551,29.7795 L 23.0551,4.8031 C 23.0551,4.8031 23.0551,3.8425 22.0945,3.8425 C 22.0945,3.8425 22.0945,3.8425 22.0945,3.8425 L 3.8425,3.8425 C 3.8425,3.8425 2.8819,4.8031 2.8819,4.8031 L 2.8819,4.8031 L 2.8819,29.7795 C 2.8819,29.7795 3.8425,29.7795 3.8425,29.7795 Z " fill="none" stroke="none"/>
          <defs>
            <clipPath id="clip-1069755936">
              <path d="M 3.8425,29.7795 L 22.0945,29.7795 C 23.0551,29.7795 23.0551,29.7795 23.0551,29.7795 C 23.0551,29.7795 23.0551,29.7795 23.0551,29.7795 L 23.0551,29.7795 L 23.0551,4.8031 C 23.0551,4.8031 23.0551,3.8425 22.0945,3.8425 C 22.0945,3.8425 22.0945,3.8425 22.0945,3.8425 L 3.8425,3.8425 C 3.8425,3.8425 2.8819,4.8031 2.8819,4.8031 L 2.8819,4.8031 L 2.8819,29.7795 C 2.8819,29.7795 3.8425,29.7795 3.8425,29.7795 Z"/>
            </clipPath>
          </defs>
          <path clip-path="url(#clip-1069755936)" d="M 1.9213,2.8819 L 1.9213,3.8425 L 22.0945,3.8425 L 22.0945,2.8819 L 1.9213,2.8819 Z" stroke-width="1px" stroke="#E2E2E2" fill="#E2E2E2"/>
          <path clip-path="url(#clip-1069755936)" d="M 1.9213,3.8425 L 1.9213,4.8031 L 22.0945,4.8031 L 22.0945,3.8425 L 1.9213,3.8425 Z" stroke-width="1px" stroke="#4E4E4E" fill="#4E4E4E"/>
          <path clip-path="url(#clip-1069755936)" d="M 1.9213,4.8031 L 1.9213,5.7638 L 22.0945,5.7638 L 22.0945,4.8031 L 1.9213,4.8031 Z" stroke-width="1px" stroke="#545454" fill="#545454"/>
          <path clip-path="url(#clip-1069755936)" d="M 1.9213,5.7638 L 1.9213,6.7244 L 22.0945,6.7244 L 22.0945,5.7638 L 1.9213,5.7638 Z" stroke-width="1px" stroke="#5A5A5A" fill="#5A5A5A"/>
          <path clip-path="url(#clip-1069755936)" d="M 1.9213,6.7244 L 1.9213,7.6850 L 22.0945,7.6850 L 22.0945,6.7244 L 1.9213,6.7244 Z" stroke-width="1px" stroke="#5F5F5F" fill="#5F5F5F"/>
          <path clip-path="url(#clip-1069755936)" d="M 1.9213,7.6850 L 1.9213,8.6457 L 22.0945,8.6457 L 22.0945,7.6850 L 1.9213,7.6850 Z" stroke-width="1px" stroke="#656565" fill="#656565"/>
          <path clip-path="url(#clip-1069755936)" d="M 1.9213,8.6457 L 1.9213,9.6063 L 22.0945,9.6063 L 22.0945,8.6457 L 1.9213,8.6457 Z" stroke-width="1px" stroke="#6B6B6B" fill="#6B6B6B"/>
          <path clip-path="url(#clip-1069755936)" d="M 1.9213,9.6063 L 1.9213,10.5669 L 22.0945,10.5669 L 22.0945,9.6063 L 1.9213,9.6063 Z" stroke-width="1px" stroke="#707070" fill="#707070"/>
          <path clip-path="url(#clip-1069755936)" d="M 1.9213,10.5669 L 1.9213,11.5276 L 22.0945,11.5276 L 22.0945,10.5669 L 1.9213,10.5669 Z" stroke-width="1px" stroke="#767676" fill="#767676"/>
          <path clip-path="url(#clip-1069755936)" d="M 1.9213,11.5276 L 1.9213,12.4882 L 22.0945,12.4882 L 22.0945,11.5276 L 1.9213,11.5276 Z" stroke-width="1px" stroke="#7B7B7B" fill="#7B7B7B"/>
          <path clip-path="url(#clip-1069755936)" d="M 1.9213,12.4882 L 1.9213,13.4488 L 22.0945,13.4488 L 22.0945,12.4882 L 1.9213,12.4882 Z" stroke-width="1px" stroke="#818181" fill="#818181"/>
          <path clip-path="url(#clip-1069755936)" d="M 1.9213,13.4488 L 1.9213,14.4094 L 22.0945,14.4094 L 22.0945,13.4488 L 1.9213,13.4488 Z" stroke-width="1px" stroke="#868686" fill="#868686"/>
          <path clip-path="url(#clip-1069755936)" d="M 1.9213,14.4094 L 1.9213,15.3701 L 22.0945,15.3701 L 22.0945,14.4094 L 1.9213,14.4094 Z" stroke-width="1px" stroke="#8C8C8C" fill="#8C8C8C"/>
          <path clip-path="url(#clip-1069755936)" d="M 1.9213,15.3701 L 1.9213,16.3307 L 22.0945,16.3307 L 22.0945,15.3701 L 1.9213,15.3701 Z" stroke-width="1px" stroke="#929292" fill="#929292"/>
          <path clip-path="url(#clip-1069755936)" d="M 1.9213,16.3307 L 1.9213,17.2913 L 22.0945,17.2913 L 22.0945,16.3307 L 1.9213,16.3307 Z" stroke-width="1px" stroke="#989898" fill="#989898"/>
          <path clip-path="url(#clip-1069755936)" d="M 1.9213,17.2913 L 1.9213,18.2520 L 22.0945,18.2520 L 22.0945,17.2913 L 1.9213,17.2913 Z" stroke-width="1px" stroke="#9D9D9D" fill="#9D9D9D"/>
          <path clip-path="url(#clip-1069755936)" d="M 1.9213,18.2520 L 1.9213,19.2126 L 22.0945,19.2126 L 22.0945,18.2520 L 1.9213,18.2520 Z" stroke-width="1px" stroke="#A3A3A3" fill="#A3A3A3"/>
          <path clip-path="url(#clip-1069755936)" d="M 1.9213,19.2126 L 1.9213,20.1732 L 22.0945,20.1732 L 22.0945,19.2126 L 1.9213,19.2126 Z" stroke-width="1px" stroke="#A8A8A8" fill="#A8A8A8"/>
          <path clip-path="url(#clip-1069755936)" d="M 1.9213,20.1732 L 1.9213,21.1339 L 22.0945,21.1339 L 22.0945,20.1732 L 1.9213,20.1732 Z" stroke-width="1px" stroke="#AEAEAE" fill="#AEAEAE"/>
          <path clip-path="url(#clip-1069755936)" d="M 1.9213,21.1339 L 1.9213,22.0945 L 22.0945,22.0945 L 22.0945,21.1339 L 1.9213,21.1339 Z" stroke-width="1px" stroke="#B4B4B4" fill="#B4B4B4"/>
          <path clip-path="url(#clip-1069755936)" d="M 1.9213,22.0945 L 1.9213,23.0551 L 22.0945,23.0551 L 22.0945,22.0945 L 1.9213,22.0945 Z" stroke-width="1px" stroke="#B9B9B9" fill="#B9B9B9"/>
          <path clip-path="url(#clip-1069755936)" d="M 1.9213,23.0551 L 1.9213,24.0157 L 22.0945,24.0157 L 22.0945,23.0551 L 1.9213,23.0551 Z" stroke-width="1px" stroke="#BFBFBF" fill="#BFBFBF"/>
          <path clip-path="url(#clip-1069755936)" d="M 1.9213,24.0157 L 1.9213,24.9764 L 22.0945,24.9764 L 22.0945,24.0157 L 1.9213,24.0157 Z" stroke-width="1px" stroke="#C4C4C4" fill="#C4C4C4"/>
          <path clip-path="url(#clip-1069755936)" d="M 1.9213,24.9764 L 1.9213,25.9370 L 22.0945,25.9370 L 22.0945,24.9764 L 1.9213,24.9764 Z" stroke-width="1px" stroke="#CACACA" fill="#CACACA"/>
          <path clip-path="url(#clip-1069755936)" d="M 1.9213,25.9370 L 1.9213,26.8976 L 22.0945,26.8976 L 22.0945,25.9370 L 1.9213,25.9370 Z" stroke-width="1px" stroke="#D0D0D0" fill="#D0D0D0"/>
          <path clip-path="url(#clip-1069755936)" d="M 1.9213,26.8976 L 1.9213,27.8583 L 22.0945,27.8583 L 22.0945,26.8976 L 1.9213,26.8976 Z" stroke-width="1px" stroke="#D5D5D5" fill="#D5D5D5"/>
          <path clip-path="url(#clip-1069755936)" d="M 1.9213,27.8583 L 1.9213,28.8189 L 22.0945,28.8189 L 22.0945,27.8583 L 1.9213,27.8583 Z" stroke-width="1px" stroke="#DBDBDB" fill="#DBDBDB"/>
          <path clip-path="url(#clip-1069755936)" d="M 1.9213,28.8189 L 1.9213,29.7795 L 22.0945,29.7795 L 22.0945,28.8189 L 1.9213,28.8189 Z" stroke-width="1px" stroke="#E0E0E0" fill="#E0E0E0"/>
        </g>
        <g transform="matrix(0.0625 0.0000 0.0000 0.0625 0.0000 0.0000)">
          <path d="M 55.7165,476.4723 L 347.7479,476.4723 C 355.4330,476.4723 362.1574,470.7085 362.1574,462.0629 C 362.1574,462.0629 362.1574,462.0629 362.1574,462.0629 L 362.1574,462.0629 L 362.1574,72.0472 C 362.1574,64.3622 355.4330,57.6378 347.7479,57.6378 C 347.7479,57.6378 347.7479,57.6378 347.7479,57.6378 L 55.7165,57.6378 C 48.0315,57.6378 41.3071,64.3622 41.3071,72.0472 L 41.3071,72.0472 L 41.3071,462.0629 C 41.3071,470.7085 48.0315,476.4723 55.7165,476.4723 " stroke="#1A1A1A" stroke-width="5.7638" stroke-linecap="round" stroke-linejoin="round" fill="none"/>
        </g>
        <g transform="matrix(1.0000 0.0000 0.0000 1.0000 0.0000 0.0000)">
          <path d="M 24.0157,26.8976 L 22.0945,3.8425 L 4.8031,4.8031 L 6.7244,28.8189 L 24.0157,26.8976 " fill="none" stroke="none"/>
          <defs>
            <clipPath id="clip-1237379107">
              <path d="M 24.0157,26.8976 L 22.0945,3.8425 L 4.8031,4.8031 L 6.7244,28.8189 L 24.0157,26.8976 Z"/>
            </clipPath>
          </defs>
          <path clip-path="url(#clip-1237379107)" d="M 3.8425,2.8819 L 3.8425,3.8425 L 24.0157,3.8425 L 24.0157,2.8819 L 3.8425,2.8819 Z" stroke-width="1px" stroke="#00B0D8" fill="#00B0D8"/>
          <path clip-path="url(#clip-1237379107)" d="M 3.8425,3.8425 L 3.8425,4.8031 L 24.0157,4.8031 L 24.0157,3.8425 L 3.8425,3.8425 Z" stroke-width="1px" stroke="#1B77BD" fill="#1B77BD"/>
          <path clip-path="url(#clip-1237379107)" d="M 3.8425,4.8031 L 3.8425,5.7638 L 24.0157,5.7638 L 24.0157,4.8031 L 3.8425,4.8031 Z" stroke-width="1px" stroke="#1A7ABE" fill="#1A7ABE"/>
          <path clip-path="url(#clip-1237379107)" d="M 3.8425,5.7638 L 3.8425,6.7244 L 24.0157,6.7244 L 24.0157,5.7638 L 3.8425,5.7638 Z" stroke-width="1px" stroke="#197BC0" fill="#197BC0"/>
          <path clip-path="url(#clip-1237379107)" d="M 3.8425,6.7244 L 3.8425,7.6850 L 24.0157,7.6850 L 24.0157,6.7244 L 3.8425,6.7244 Z" stroke-width="1px" stroke="#187EC0" fill="#187EC0"/>
          <path clip-path="url(#clip-1237379107)" d="M 3.8425,7.6850 L 3.8425,8.6457 L 24.0157,8.6457 L 24.0157,7.6850 L 3.8425,7.6850 Z" stroke-width="1px" stroke="#1780C1" fill="#1780C1"/>
          <path clip-path="url(#clip-1237379107)" d="M 3.8425,8.6457 L 3.8425,9.6063 L 24.0157,9.6063 L 24.0157,8.6457 L 3.8425,8.6457 Z" stroke-width="1px" stroke="#1682C2" fill="#1682C2"/>
          <path clip-path="url(#clip-1237379107)" d="M 3.8425,9.6063 L 3.8425,10.5669 L 24.0157,10.5669 L 24.0157,9.6063 L 3.8425,9.6063 Z" stroke-width="1px" stroke="#1585C3" fill="#1585C3"/>
          <path clip-path="url(#clip-1237379107)" d="M 3.8425,10.5669 L 3.8425,11.5276 L 24.0157,11.5276 L 24.0157,10.5669 L 3.8425,10.5669 Z" stroke-width="1px" stroke="#1386C5" fill="#1386C5"/>
          <path clip-path="url(#clip-1237379107)" d="M 3.8425,11.5276 L 3.8425,12.4882 L 24.0157,12.4882 L 24.0157,11.5276 L 3.8425,11.5276 Z" stroke-width="1px" stroke="#1389C6" fill="#1389C6"/>
          <path clip-path="url(#clip-1237379107)" d="M 3.8425,12.4882 L 3.8425,13.4488 L 24.0157,13.4488 L 24.0157,12.4882 L 3.8425,12.4882 Z" stroke-width="1px" stroke="#128BC7" fill="#128BC7"/>
          <path clip-path="url(#clip-1237379107)" d="M 3.8425,13.4488 L 3.8425,14.4094 L 24.0157,14.4094 L 24.0157,13.4488 L 3.8425,13.4488 Z" stroke-width="1px" stroke="#118DC8" fill="#118DC8"/>
          <path clip-path="url(#clip-1237379107)" d="M 3.8425,14.4094 L 3.8425,15.3701 L 24.0157,15.3701 L 24.0157,14.4094 L 3.8425,14.4094 Z" stroke-width="1px" stroke="#1090C8" fill="#1090C8"/>
          <path clip-path="url(#clip-1237379107)" d="M 3.8425,15.3701 L 3.8425,16.3307 L 24.0157,16.3307 L 24.0157,15.3701 L 3.8425,15.3701 Z" stroke-width="1px" stroke="#0E92CA" fill="#0E92CA"/>
          <path clip-path="url(#clip-1237379107)" d="M 3.8425,16.3307 L 3.8425,17.2913 L 24.0157,17.2913 L 24.0157,16.3307 L 3.8425,16.3307 Z" stroke-width="1px" stroke="#0D94CB" fill="#0D94CB"/>
          <path clip-path="url(#clip-1237379107)" d="M 3.8425,17.2913 L 3.8425,18.2520 L 24.0157,18.2520 L 24.0157,17.2913 L 3.8425,17.2913 Z" stroke-width="1px" stroke="#0C96CC" fill="#0C96CC"/>
          <path clip-path="url(#clip-1237379107)" d="M 3.8425,18.2520 L 3.8425,19.2126 L 24.0157,19.2126 L 24.0157,18.2520 L 3.8425,18.2520 Z" stroke-width="1px" stroke="#0B98CD" fill="#0B98CD"/>
          <path clip-path="url(#clip-1237379107)" d="M 3.8425,19.2126 L 3.8425,20.1732 L 24.0157,20.1732 L 24.0157,19.2126 L 3.8425,19.2126 Z" stroke-width="1px" stroke="#0B9BCE" fill="#0B9BCE"/>
          <path clip-path="url(#clip-1237379107)" d="M 3.8425,20.1732 L 3.8425,21.1339 L 24.0157,21.1339 L 24.0157,20.1732 L 3.8425,20.1732 Z" stroke-width="1px" stroke="#099DCF" fill="#099DCF"/>
          <path clip-path="url(#clip-1237379107)" d="M 3.8425,21.1339 L 3.8425,22.0945 L 24.0157,22.0945 L 24.0157,21.1339 L 3.8425,21.1339 Z" stroke-width="1px" stroke="#089FD0" fill="#089FD0"/>
          <path clip-path="url(#clip-1237379107)" d="M 3.8425,22.0945 L 3.8425,23.0551 L 24.0157,23.0551 L 24.0157,22.0945 L 3.8425,22.0945 Z" stroke-width="1px" stroke="#07A1D1" fill="#07A1D1"/>
          <path clip-path="url(#clip-1237379107)" d="M 3.8425,23.0551 L 3.8425,24.0157 L 24.0157,24.0157 L 24.0157,23.0551 L 3.8425,23.0551 Z" stroke-width="1px" stroke="#06A4D2" fill="#06A4D2"/>
          <path clip-path="url(#clip-1237379107)" d="M 3.8425,24.0157 L 3.8425,24.9764 L 24.0157,24.9764 L 24.0157,24.0157 L 3.8425,24.0157 Z" stroke-width="1px" stroke="#05A6D3" fill="#05A6D3"/>
          <path clip-path="url(#clip-1237379107)" d="M 3.8425,24.9764 L 3.8425,25.9370 L 24.0157,25.9370 L 24.0157,24.9764 L 3.8425,24.9764 Z" stroke-width="1px" stroke="#04A8D5" fill="#04A8D5"/>
          <path clip-path="url(#clip-1237379107)" d="M 3.8425,25.9370 L 3.8425,26.8976 L 24.0157,26.8976 L 24.0157,25.9370 L 3.8425,25.9370 Z" stroke-width="1px" stroke="#03AAD5" fill="#03AAD5"/>
          <path clip-path="url(#clip-1237379107)" d="M 3.8425,26.8976 L 3.8425,27.8583 L 24.0157,27.8583 L 24.0157,26.8976 L 3.8425,26.8976 Z" stroke-width="1px" stroke="#02ACD6" fill="#02ACD6"/>
          <path clip-path="url(#clip-1237379107)" d="M 3.8425,27.8583 L 3.8425,28.8189 L 24.0157,28.8189 L 24.0157,27.8583 L 3.8425,27.8583 Z" stroke-width="1px" stroke="#01AFD7" fill="#01AFD7"/>
        </g>
        <g transform="matrix(0.0625 0.0000 0.0000 0.0625 0.0000 0.0000)">
          <path d="M 381.3700,431.3227 L 348.7086,47.0709 L 66.2834,72.0472 L 98.9449,455.3384 L 381.3700,431.3227 " stroke="#0054A6" stroke-width="10.5669" stroke-linecap="round" stroke-linejoin="round" fill="none"/>
        </g>
        <g transform="matrix(1.0000 0.0000 0.0000 1.0000 0.0000 0.0000)">
</g>
        <g transform="matrix(0.0625 0.0000 0.0000 0.0625 0.0000 0.0000)">
          <path d="M 128.7244,379.4487 L 149.8582,400.5826 L 183.4803,359.2755 " stroke="#E6E6E6" stroke-width="10.5669" stroke-linecap="round" stroke-linejoin="round" fill="none"/>
        </g>
        <g transform="matrix(1.0000 0.0000 0.0000 1.0000 0.0000 0.0000)">
</g>
        <g transform="matrix(0.0625 0.0000 0.0000 0.0625 0.0000 0.0000)">
          <path d="M 124.8819,317.9684 L 146.0157,340.0629 L 179.6377,297.7952 " stroke="#E6E6E6" stroke-width="10.5669" stroke-linecap="round" stroke-linejoin="round" fill="none"/>
        </g>
        <g transform="matrix(1.0000 0.0000 0.0000 1.0000 0.0000 0.0000)">
</g>
        <g transform="matrix(0.0625 0.0000 0.0000 0.0625 0.0000 0.0000)">
          <path d="M 122.0000,256.4881 L 143.1338,278.5826 L 176.7559,236.3149 " stroke="#E6E6E6" stroke-width="10.5669" stroke-linecap="round" stroke-linejoin="round" fill="none"/>
        </g>
        <g transform="matrix(1.0000 0.0000 0.0000 1.0000 0.0000 0.0000)">
</g>
        <g transform="matrix(0.0625 0.0000 0.0000 0.0625 0.0000 0.0000)">
          <path d="M 114.3149,195.0078 L 135.4488,217.1023 L 168.1102,174.8346 " stroke="#E6E6E6" stroke-width="10.5669" stroke-linecap="round" stroke-linejoin="round" fill="none"/>
        </g>
        <g transform="matrix(1.0000 0.0000 0.0000 1.0000 0.0000 0.0000)">
</g>
        <g transform="matrix(0.0625 0.0000 0.0000 0.0625 0.0000 0.0000)">
          <path d="M 114.3149,133.5275 L 135.4488,155.6220 L 168.1102,113.3543 " stroke="#E6E6E6" stroke-width="10.5669" stroke-linecap="round" stroke-linejoin="round" fill="none"/>
        </g>
        <g transform="matrix(1.0000 0.0000 0.0000 1.0000 0.0000 0.0000)">
</g>
        <g transform="matrix(0.0625 0.0000 0.0000 0.0625 0.0000 0.0000)">
          <path d="M 331.4172,188.2834 L 330.4566,177.7165 L 179.6377,190.2047 L 180.5984,200.7716 L 331.4172,188.2834 Z" stroke-width="1px" stroke="#E6E6E6" fill="#E6E6E6"/>
        </g>
        <g transform="matrix(1.0000 0.0000 0.0000 1.0000 0.0000 0.0000)">
</g>
        <g transform="matrix(0.0625 0.0000 0.0000 0.0625 0.0000 0.0000)">
          <path d="M 331.4172,127.7637 L 330.4566,116.2362 L 179.6377,128.7244 L 180.5984,139.2913 L 331.4172,127.7637 Z" stroke-width="1px" stroke="#E6E6E6" fill="#E6E6E6"/>
        </g>
        <g transform="matrix(1.0000 0.0000 0.0000 1.0000 0.0000 0.0000)">
</g>
        <g transform="matrix(0.0625 0.0000 0.0000 0.0625 0.0000 0.0000)">
          <path d="M 339.1023,249.7637 L 338.1416,239.1968 L 188.2834,251.6850 L 189.2440,262.2519 L 339.1023,249.7637 Z" stroke-width="1px" stroke="#E6E6E6" fill="#E6E6E6"/>
        </g>
        <g transform="matrix(1.0000 0.0000 0.0000 1.0000 0.0000 0.0000)">
</g>
        <g transform="matrix(0.0625 0.0000 0.0000 0.0625 0.0000 0.0000)">
          <path d="M 341.9841,311.2440 L 341.0235,300.6771 L 191.1653,313.1653 L 192.1259,323.7322 L 341.9841,311.2440 Z" stroke-width="1px" stroke="#E6E6E6" fill="#E6E6E6"/>
        </g>
        <g transform="matrix(1.0000 0.0000 0.0000 1.0000 0.0000 0.0000)">
</g>
        <g transform="matrix(0.0625 0.0000 0.0000 0.0625 0.0000 0.0000)">
          <path d="M 345.8267,372.7243 L 344.8660,362.1574 L 195.0078,374.6456 L 195.9684,385.2125 L 345.8267,372.7243 Z" stroke-width="1px" stroke="#E6E6E6" fill="#E6E6E6"/>
        </g>
        <g transform="matrix(1.0000 0.0000 0.0000 1.0000 0.0000 0.0000)">
</g>
        <g transform="matrix(0.0625 0.0000 0.0000 0.0625 0.0000 0.0000)">
          <path d="M 162.3464,62.4409 C 162.3464,62.4409 147.9370,68.2047 147.9370,76.8504 L 223.8267,76.8504 L 298.7558,76.8504 C 298.7558,68.2047 284.3464,62.4409 284.3464,62.4409 L 244.9606,48.0315 L 244.9606,38.4252 L 269.9369,27.8583 L 269.9369,18.2520 L 176.7559,18.2520 L 176.7559,27.8583 L 201.7322,38.4252 L 201.7322,48.0315 L 162.3464,62.4409 Z " fill="#FFFFFF" stroke="none"/>
        </g>
        <g transform="matrix(1.0000 0.0000 0.0000 1.0000 0.0000 0.0000)">
</g>
        <g transform="matrix(0.0625 0.0000 0.0000 0.0625 0.0000 0.0000)">
          <path d="M 162.3464,62.4409 C 162.3464,62.4409 147.9370,68.2047 147.9370,76.8504 L 223.8267,76.8504 L 298.7558,76.8504 C 298.7558,68.2047 284.3464,62.4409 284.3464,62.4409 L 244.9606,48.0315 L 244.9606,38.4252 L 269.9369,27.8583 L 269.9369,18.2520 L 176.7559,18.2520 L 176.7559,27.8583 L 201.7322,38.4252 L 201.7322,48.0315 L 162.3464,62.4409 Z " stroke="#1A1A1A" stroke-width="5.7638" stroke-linecap="round" stroke-linejoin="round" fill="none"/>
        </g>
        <g transform="matrix(1.0000 0.0000 0.0000 1.0000 0.0000 0.0000)">
</g>
      </g>
      <!--emf-blob end-->
    </g>
  </g>
</svg>
