<svg xmlns="http://www.w3.org/2000/svg" xmlns:xlink="http://www.w3.org/1999/xlink" version="1.1" width="47.8488000000" height="32.4000000000">
  <title><![CDATA[SAP App V1]]></title>
  <g transform=" scale(1.000000) ">
    <!--converted by libvisio2svg-->
    <g transform=" translate(23.9533, 15.8739)  scale(1, 1)  rotate(0.0002)  translate(-23.9533, -15.8739)  translate(-1.175900,-1.856800) ">
      <!--emf-blob start-->
      <g transform="translate(0.9332, 0.9332)">
        <g transform="matrix(0.0625 0.0000 0.0000 0.0625 0.0000 0.0000)">
          <path d="M 18.6639,18.6639 L 18.6639,512.3239 L 733.4911,512.3239 L 733.4911,18.6639 L 18.6639,18.6639 Z" stroke-width="1px" stroke="#FFFFFF" fill="#FFFFFF"/>
        </g>
        <g transform="matrix(1.0000 0.0000 0.0000 1.0000 0.0000 0.0000)">
</g>
        <g transform="matrix(0.0625 0.0000 0.0000 0.0625 0.0000 0.0000)">
          <path d="M 18.6639,512.3239 L 733.4911,512.3239 L 733.4911,18.6639 L 18.6639,18.6639 L 18.6639,512.3239 Z" stroke="#0054A6" stroke-width="22.3967" stroke-linecap="round" stroke-linejoin="round" fill="none"/>
        </g>
        <g transform="matrix(1.0000 0.0000 0.0000 1.0000 0.0000 0.0000)">
</g>
        <g transform="matrix(0.0625 0.0000 0.0000 0.0625 0.0000 0.0000)">
          <path d="M 39.1942,41.0606 L 39.1942,82.1211 L 711.0944,82.1211 L 711.0944,41.0606 L 39.1942,41.0606 Z" stroke-width="1px" stroke="#1A1A1A" fill="#1A1A1A"/>
        </g>
        <g transform="matrix(1.0000 0.0000 0.0000 1.0000 0.0000 0.0000)">
</g>
        <g transform="matrix(0.0625 0.0000 0.0000 0.0625 0.0000 0.0000)">
          <path d="M 674.6998,49.4593 L 674.6998,74.6556 L 699.8961,74.6556 L 699.8961,49.4593 L 674.6998,49.4593 Z" stroke-width="1px" stroke="#FFFFFF" fill="#FFFFFF"/>
        </g>
        <g transform="matrix(1.0000 0.0000 0.0000 1.0000 0.0000 0.0000)">
</g>
        <g transform="matrix(0.0625 0.0000 0.0000 0.0625 0.0000 0.0000)">
          <path d="M 145.5784,322.8854 C 145.5784,349.9480 167.0419,360.2132 190.3717,360.2132 C 206.2360,360.2132 229.5659,355.5472 229.5659,335.0169 C 229.5659,312.6202 199.7037,309.8207 169.8414,301.4219 C 139.9792,293.9563 109.1838,281.8248 109.1838,244.4970 C 109.1838,202.5033 148.3780,182.9062 185.7058,182.9062 C 227.6995,182.9062 265.9605,201.5701 265.9605,248.2298 L 223.0335,248.2298 C 222.1003,223.9667 204.3696,217.4344 182.9062,217.4344 C 168.9082,217.4344 153.0439,223.0335 153.0439,240.7642 C 153.0439,255.6954 162.3759,257.5617 212.7684,270.6265 C 227.6995,274.3593 273.4261,283.6912 273.4261,329.4177 C 273.4261,366.7455 243.5638,394.7414 188.5053,394.7414 C 144.6452,394.7414 102.6514,372.3447 102.6514,322.8854 L 145.5784,322.8854 L 145.5784,322.8854 Z M 349.0148,187.5721 L 394.7414,187.5721 L 470.3301,390.0754 L 423.6704,390.0754 L 408.7393,344.3489 L 333.1505,344.3489 L 317.2862,390.0754 L 272.4929,390.0754 L 349.0148,187.5721 Z M 344.3489,311.6870 L 397.5410,311.6870 L 371.4115,237.9647 L 371.4115,237.9647 L 344.3489,311.6870 Z M 482.4617,187.5721 L 572.9816,187.5721 C 623.3741,187.5721 642.9712,219.3008 642.9712,252.8958 C 642.9712,285.5576 623.3741,317.2862 572.9816,317.2862 L 526.3218,317.2862 L 526.3218,390.0754 L 482.4617,390.0754 L 482.4617,187.5721 L 482.4617,187.5721 Z M 526.3218,282.7580 L 560.8500,282.7580 C 581.3803,282.7580 600.0442,278.0920 600.0442,252.8958 C 600.0442,226.7663 581.3803,222.1003 560.8500,222.1003 L 526.3218,222.1003 L 526.3218,282.7580 Z " fill="#4D4D4D" stroke="none"/>
        </g>
        <g transform="matrix(1.0000 0.0000 0.0000 1.0000 0.0000 0.0000)">
</g>
      </g>
      <!--emf-blob end-->
    </g>
  </g>
</svg>
