<svg xmlns="http://www.w3.org/2000/svg" xmlns:xlink="http://www.w3.org/1999/xlink" version="1.1" width="53.8583000000" height="34.0955000000">
  <title><![CDATA[SnapLock Data Flow]]></title>
  <g transform=" scale(1.000000) ">
    <text xmlns="http://www.w3.org/2000/svg" x="6.1683" y="34.0955">
      <tspan font-family="Arial" font-size="4.5000" fill="#000000" fill-opacity="1.0000" stroke-opacity="1.0000">
SnapLock Data Flow</tspan>
    </text>
    <!--converted by libvisio2svg-->
    <g transform=" translate(-1.174400,-1.175600) ">
      <!--emf-blob start-->
      <g transform="translate(0.9586, 0.9586)">
        <g transform="matrix(0.0625 0.0000 0.0000 0.0625 0.0000 0.0000)">
          <path d="M 312.4899,370.0033 L 361.3763,374.7961 L 427.5168,370.0033 L 427.5168,526.2483 L 489.8231,541.5852 L 759.1779,279.8989 L 489.8231,18.2126 L 427.5168,39.3009 L 427.5168,194.5873 L 361.3763,186.9188 L 312.4899,194.5873 L 312.4899,370.0033 Z" stroke-width="1px" stroke="#0054A6" fill="#0054A6"/>
        </g>
        <g transform="matrix(1.0000 0.0000 0.0000 1.0000 0.0000 0.0000)">
</g>
        <g transform="matrix(0.0625 0.0000 0.0000 0.0625 0.0000 0.0000)">
          <path d="M 312.4899,370.0033 L 361.3763,374.7961 L 427.5168,370.0033 L 427.5168,526.2483 L 489.8231,541.5852 L 759.1779,279.8989 L 489.8231,18.2126 L 427.5168,39.3009 L 427.5168,194.5873 L 361.3763,186.9188 L 312.4899,194.5873 L 312.4899,370.0033 Z" stroke="#0054A6" stroke-width="11.5027" stroke-linecap="round" stroke-linejoin="round" fill="none"/>
        </g>
        <g transform="matrix(1.0000 0.0000 0.0000 1.0000 0.0000 0.0000)">
</g>
        <g transform="matrix(0.0625 0.0000 0.0000 0.0625 0.0000 0.0000)">
          <path d="M 264.5620,186.9188 L 216.6341,194.5873 L 216.6341,370.0033 L 264.5620,374.7961 L 323.0340,372.8790 L 323.0340,189.7945 L 264.5620,186.9188 Z" stroke-width="1px" stroke="#0054A6" fill="#0054A6"/>
        </g>
        <g transform="matrix(1.0000 0.0000 0.0000 1.0000 0.0000 0.0000)">
</g>
        <g transform="matrix(0.0625 0.0000 0.0000 0.0625 0.0000 0.0000)">
          <path d="M 264.5620,186.9188 L 216.6341,194.5873 L 216.6341,370.0033 L 264.5620,374.7961 L 323.0340,372.8790 L 323.0340,189.7945 L 264.5620,186.9188 Z" stroke="#0054A6" stroke-width="11.5027" stroke-linecap="round" stroke-linejoin="round" fill="none"/>
        </g>
        <g transform="matrix(1.0000 0.0000 0.0000 1.0000 0.0000 0.0000)">
</g>
        <g transform="matrix(0.0625 0.0000 0.0000 0.0625 0.0000 0.0000)">
          <path d="M 165.8305,186.9188 L 116.9441,194.5873 L 116.9441,370.0033 L 165.8305,374.7961 L 223.3440,372.8790 L 223.3440,189.7945 L 165.8305,186.9188 Z" stroke-width="1px" stroke="#0054A6" fill="#0054A6"/>
        </g>
        <g transform="matrix(1.0000 0.0000 0.0000 1.0000 0.0000 0.0000)">
</g>
        <g transform="matrix(0.0625 0.0000 0.0000 0.0625 0.0000 0.0000)">
          <path d="M 165.8305,186.9188 L 116.9441,194.5873 L 116.9441,370.0033 L 165.8305,374.7961 L 223.3440,372.8790 L 223.3440,189.7945 L 165.8305,186.9188 Z" stroke="#0054A6" stroke-width="11.5027" stroke-linecap="round" stroke-linejoin="round" fill="none"/>
        </g>
        <g transform="matrix(1.0000 0.0000 0.0000 1.0000 0.0000 0.0000)">
</g>
        <g transform="matrix(0.0625 0.0000 0.0000 0.0625 0.0000 0.0000)">
          <path d="M 66.1405,186.9188 L 18.2126,194.5873 L 18.2126,370.0033 L 66.1405,374.7961 L 124.6125,372.8790 L 124.6125,189.7945 L 66.1405,186.9188 Z" stroke-width="1px" stroke="#0054A6" fill="#0054A6"/>
        </g>
        <g transform="matrix(1.0000 0.0000 0.0000 1.0000 0.0000 0.0000)">
</g>
        <g transform="matrix(0.0625 0.0000 0.0000 0.0625 0.0000 0.0000)">
          <path d="M 66.1405,186.9188 L 18.2126,194.5873 L 18.2126,370.0033 L 66.1405,374.7961 L 124.6125,372.8790 L 124.6125,189.7945 L 66.1405,186.9188 Z" stroke="#0054A6" stroke-width="11.5027" stroke-linecap="round" stroke-linejoin="round" fill="none"/>
        </g>
        <g transform="matrix(1.0000 0.0000 0.0000 1.0000 0.0000 0.0000)">
          <path d="M 23.0054,23.9639 L 30.6739,23.9639 L 30.6739,34.5081 L 53.6792,18.2126 L 30.6739,1.9171 L 30.6739,12.4613 L 23.0054,12.4613 L 23.0054,23.9639 Z M 17.2540,23.9639 L 20.1297,23.9639 L 20.1297,12.4613 L 17.2540,12.4613 L 17.2540,23.9639 Z M 10.5441,23.9639 L 14.3784,23.9639 L 14.3784,12.4613 L 10.5441,12.4613 L 10.5441,23.9639 Z M 4.7928,23.9639 L 8.6270,23.9639 L 8.6270,12.4613 L 4.7928,12.4613 L 4.7928,23.9639 Z " fill="none" stroke="none"/>
          <defs>
            <clipPath id="clip-1918502651">
              <path d="M 23.0054,23.9639 L 30.6739,23.9639 L 30.6739,34.5081 L 53.6792,18.2126 L 30.6739,1.9171 L 30.6739,12.4613 L 23.0054,12.4613 L 23.0054,23.9639 Z M 17.2540,23.9639 L 20.1297,23.9639 L 20.1297,12.4613 L 17.2540,12.4613 L 17.2540,23.9639 Z M 10.5441,23.9639 L 14.3784,23.9639 L 14.3784,12.4613 L 10.5441,12.4613 L 10.5441,23.9639 Z M 4.7928,23.9639 L 8.6270,23.9639 L 8.6270,12.4613 L 4.7928,12.4613 L 4.7928,23.9639 Z Z"/>
            </clipPath>
          </defs>
          <path clip-path="url(#clip-1918502651)" d="M 3.8342,0.9586 L 3.8342,1.9171 L 52.7207,1.9171 L 52.7207,0.9586 L 3.8342,0.9586 Z" stroke-width="1px" stroke="#67B6DC" fill="#67B6DC"/>
          <path clip-path="url(#clip-1918502651)" d="M 3.8342,1.9171 L 3.8342,2.8757 L 52.7207,2.8757 L 52.7207,1.9171 L 3.8342,1.9171 Z" stroke-width="1px" stroke="#3D8FC6" fill="#3D8FC6"/>
          <path clip-path="url(#clip-1918502651)" d="M 3.8342,2.8757 L 3.8342,3.8342 L 52.7207,3.8342 L 52.7207,2.8757 L 3.8342,2.8757 Z" stroke-width="1px" stroke="#3F91C7" fill="#3F91C7"/>
          <path clip-path="url(#clip-1918502651)" d="M 3.8342,3.8342 L 3.8342,4.7928 L 52.7207,4.7928 L 52.7207,3.8342 L 3.8342,3.8342 Z" stroke-width="1px" stroke="#4092C8" fill="#4092C8"/>
          <path clip-path="url(#clip-1918502651)" d="M 3.8342,4.7928 L 3.8342,5.7513 L 52.7207,5.7513 L 52.7207,4.7928 L 3.8342,4.7928 Z" stroke-width="1px" stroke="#4193C9" fill="#4193C9"/>
          <path clip-path="url(#clip-1918502651)" d="M 3.8342,5.7513 L 3.8342,6.7099 L 52.7207,6.7099 L 52.7207,5.7513 L 3.8342,5.7513 Z" stroke-width="1px" stroke="#4294C9" fill="#4294C9"/>
          <path clip-path="url(#clip-1918502651)" d="M 3.8342,6.7099 L 3.8342,7.6685 L 52.7207,7.6685 L 52.7207,6.7099 L 3.8342,6.7099 Z" stroke-width="1px" stroke="#4395CA" fill="#4395CA"/>
          <path clip-path="url(#clip-1918502651)" d="M 3.8342,7.6685 L 3.8342,8.6270 L 52.7207,8.6270 L 52.7207,7.6685 L 3.8342,7.6685 Z" stroke-width="1px" stroke="#4596CA" fill="#4596CA"/>
          <path clip-path="url(#clip-1918502651)" d="M 3.8342,8.6270 L 3.8342,9.5856 L 52.7207,9.5856 L 52.7207,8.6270 L 3.8342,8.6270 Z" stroke-width="1px" stroke="#4697CB" fill="#4697CB"/>
          <path clip-path="url(#clip-1918502651)" d="M 3.8342,9.5856 L 3.8342,10.5441 L 52.7207,10.5441 L 52.7207,9.5856 L 3.8342,9.5856 Z" stroke-width="1px" stroke="#4798CC" fill="#4798CC"/>
          <path clip-path="url(#clip-1918502651)" d="M 3.8342,10.5441 L 3.8342,11.5027 L 52.7207,11.5027 L 52.7207,10.5441 L 3.8342,10.5441 Z" stroke-width="1px" stroke="#489ACD" fill="#489ACD"/>
          <path clip-path="url(#clip-1918502651)" d="M 3.8342,11.5027 L 3.8342,12.4613 L 52.7207,12.4613 L 52.7207,11.5027 L 3.8342,11.5027 Z" stroke-width="1px" stroke="#499BCD" fill="#499BCD"/>
          <path clip-path="url(#clip-1918502651)" d="M 3.8342,12.4613 L 3.8342,13.4198 L 52.7207,13.4198 L 52.7207,12.4613 L 3.8342,12.4613 Z" stroke-width="1px" stroke="#4B9CCE" fill="#4B9CCE"/>
          <path clip-path="url(#clip-1918502651)" d="M 3.8342,13.4198 L 3.8342,14.3784 L 52.7207,14.3784 L 52.7207,13.4198 L 3.8342,13.4198 Z" stroke-width="1px" stroke="#4C9DCE" fill="#4C9DCE"/>
          <path clip-path="url(#clip-1918502651)" d="M 3.8342,14.3784 L 3.8342,15.3369 L 52.7207,15.3369 L 52.7207,14.3784 L 3.8342,14.3784 Z" stroke-width="1px" stroke="#4E9FCF" fill="#4E9FCF"/>
          <path clip-path="url(#clip-1918502651)" d="M 3.8342,15.3369 L 3.8342,16.2955 L 52.7207,16.2955 L 52.7207,15.3369 L 3.8342,15.3369 Z" stroke-width="1px" stroke="#4FA0D0" fill="#4FA0D0"/>
          <path clip-path="url(#clip-1918502651)" d="M 3.8342,16.2955 L 3.8342,17.2540 L 52.7207,17.2540 L 52.7207,16.2955 L 3.8342,16.2955 Z" stroke-width="1px" stroke="#50A1D0" fill="#50A1D0"/>
          <path clip-path="url(#clip-1918502651)" d="M 3.8342,17.2540 L 3.8342,18.2126 L 52.7207,18.2126 L 52.7207,17.2540 L 3.8342,17.2540 Z" stroke-width="1px" stroke="#52A2D1" fill="#52A2D1"/>
          <path clip-path="url(#clip-1918502651)" d="M 3.8342,18.2126 L 3.8342,19.1712 L 52.7207,19.1712 L 52.7207,18.2126 L 3.8342,18.2126 Z" stroke-width="1px" stroke="#53A3D1" fill="#53A3D1"/>
          <path clip-path="url(#clip-1918502651)" d="M 3.8342,19.1712 L 3.8342,20.1297 L 52.7207,20.1297 L 52.7207,19.1712 L 3.8342,19.1712 Z" stroke-width="1px" stroke="#54A5D2" fill="#54A5D2"/>
          <path clip-path="url(#clip-1918502651)" d="M 3.8342,20.1297 L 3.8342,21.0883 L 52.7207,21.0883 L 52.7207,20.1297 L 3.8342,20.1297 Z" stroke-width="1px" stroke="#55A6D3" fill="#55A6D3"/>
          <path clip-path="url(#clip-1918502651)" d="M 3.8342,21.0883 L 3.8342,22.0468 L 52.7207,22.0468 L 52.7207,21.0883 L 3.8342,21.0883 Z" stroke-width="1px" stroke="#56A7D4" fill="#56A7D4"/>
          <path clip-path="url(#clip-1918502651)" d="M 3.8342,22.0468 L 3.8342,23.0054 L 52.7207,23.0054 L 52.7207,22.0468 L 3.8342,22.0468 Z" stroke-width="1px" stroke="#58A8D4" fill="#58A8D4"/>
          <path clip-path="url(#clip-1918502651)" d="M 3.8342,23.0054 L 3.8342,23.9639 L 52.7207,23.9639 L 52.7207,23.0054 L 3.8342,23.0054 Z" stroke-width="1px" stroke="#59A9D5" fill="#59A9D5"/>
          <path clip-path="url(#clip-1918502651)" d="M 3.8342,23.9639 L 3.8342,24.9225 L 52.7207,24.9225 L 52.7207,23.9639 L 3.8342,23.9639 Z" stroke-width="1px" stroke="#5AAAD5" fill="#5AAAD5"/>
          <path clip-path="url(#clip-1918502651)" d="M 3.8342,24.9225 L 3.8342,25.8811 L 52.7207,25.8811 L 52.7207,24.9225 L 3.8342,24.9225 Z" stroke-width="1px" stroke="#5BABD6" fill="#5BABD6"/>
          <path clip-path="url(#clip-1918502651)" d="M 3.8342,25.8811 L 3.8342,26.8396 L 52.7207,26.8396 L 52.7207,25.8811 L 3.8342,25.8811 Z" stroke-width="1px" stroke="#5CACD7" fill="#5CACD7"/>
          <path clip-path="url(#clip-1918502651)" d="M 3.8342,26.8396 L 3.8342,27.7982 L 52.7207,27.7982 L 52.7207,26.8396 L 3.8342,26.8396 Z" stroke-width="1px" stroke="#5EAED8" fill="#5EAED8"/>
          <path clip-path="url(#clip-1918502651)" d="M 3.8342,27.7982 L 3.8342,28.7567 L 52.7207,28.7567 L 52.7207,27.7982 L 3.8342,27.7982 Z" stroke-width="1px" stroke="#5FAFD8" fill="#5FAFD8"/>
          <path clip-path="url(#clip-1918502651)" d="M 3.8342,28.7567 L 3.8342,29.7153 L 52.7207,29.7153 L 52.7207,28.7567 L 3.8342,28.7567 Z" stroke-width="1px" stroke="#61B0D9" fill="#61B0D9"/>
          <path clip-path="url(#clip-1918502651)" d="M 3.8342,29.7153 L 3.8342,30.6739 L 52.7207,30.6739 L 52.7207,29.7153 L 3.8342,29.7153 Z" stroke-width="1px" stroke="#62B1D9" fill="#62B1D9"/>
          <path clip-path="url(#clip-1918502651)" d="M 3.8342,30.6739 L 3.8342,31.6324 L 52.7207,31.6324 L 52.7207,30.6739 L 3.8342,30.6739 Z" stroke-width="1px" stroke="#63B2DA" fill="#63B2DA"/>
          <path clip-path="url(#clip-1918502651)" d="M 3.8342,31.6324 L 3.8342,32.5910 L 52.7207,32.5910 L 52.7207,31.6324 L 3.8342,31.6324 Z" stroke-width="1px" stroke="#64B4DB" fill="#64B4DB"/>
          <path clip-path="url(#clip-1918502651)" d="M 3.8342,32.5910 L 3.8342,33.5495 L 52.7207,33.5495 L 52.7207,32.5910 L 3.8342,32.5910 Z" stroke-width="1px" stroke="#65B5DB" fill="#65B5DB"/>
          <path clip-path="url(#clip-1918502651)" d="M 3.8342,33.5495 L 3.8342,34.5081 L 52.7207,34.5081 L 52.7207,33.5495 L 3.8342,33.5495 Z" stroke-width="1px" stroke="#67B6DC" fill="#67B6DC"/>
        </g>
        <g transform="matrix(0.0625 0.0000 0.0000 0.0625 0.0000 0.0000)">
          <path d="M 361.3763,374.7961 L 490.7816,374.7961 L 490.7816,540.6267 L 844.4895,277.9818 L 490.7816,18.2126 L 490.7816,186.9188 L 361.3763,186.9188 L 361.3763,374.7961 M 264.5620,374.7961 L 323.0340,374.7961 L 323.0340,186.9188 L 264.5620,186.9188 L 264.5620,374.7961 M 165.8305,374.7961 L 223.3440,374.7961 L 223.3440,186.9188 L 165.8305,186.9188 L 165.8305,374.7961 M 66.1405,374.7961 L 124.6125,374.7961 L 124.6125,186.9188 L 66.1405,186.9188 L 66.1405,374.7961 " stroke="#0054A6" stroke-width="11.5027" stroke-linecap="round" stroke-linejoin="round" fill="none"/>
        </g>
        <g transform="matrix(1.0000 0.0000 0.0000 1.0000 0.0000 0.0000)">
</g>
        <g transform="matrix(0.0625 0.0000 0.0000 0.0625 0.0000 0.0000)">
          <path d="M 654.6950,340.2881 C 654.6950,346.9980 545.4194,365.2106 538.7095,365.2106 L 522.4141,359.4592 C 514.7456,356.5835 510.9114,351.7907 510.9114,345.0808 L 510.9114,237.7224 C 510.9114,231.0125 515.7041,225.2611 522.4141,225.2611 L 557.8807,226.2197 L 575.1347,229.0953 C 581.8446,229.0953 654.6950,233.8881 654.6950,239.6395 L 654.6950,340.2881 L 654.6950,340.2881 Z " fill="#1A1A1A" stroke="none"/>
        </g>
        <g transform="matrix(1.0000 0.0000 0.0000 1.0000 0.0000 0.0000)">
</g>
        <g transform="matrix(0.0625 0.0000 0.0000 0.0625 0.0000 0.0000)">
          <path d="M 654.6950,340.2881 C 654.6950,346.9980 545.4194,365.2106 538.7095,365.2106 L 522.4141,359.4592 C 514.7456,356.5835 510.9114,351.7907 510.9114,345.0808 L 510.9114,237.7224 C 510.9114,231.0125 515.7041,225.2611 522.4141,225.2611 L 557.8807,226.2197 L 575.1347,229.0953 C 581.8446,229.0953 654.6950,233.8881 654.6950,239.6395 L 654.6950,340.2881 L 654.6950,340.2881 Z " stroke="#1A1A1A" stroke-width="4.7928" stroke-linecap="butt" stroke-linejoin="miter" stroke-miterlimit="1.9171" fill="none"/>
        </g>
        <g transform="matrix(1.0000 0.0000 0.0000 1.0000 0.0000 0.0000)">
</g>
        <g transform="matrix(0.0625 0.0000 0.0000 0.0625 0.0000 0.0000)">
          <path d="M 650.8608,199.3800 C 650.8608,173.4990 628.8140,152.4107 601.9744,152.4107 C 575.1347,152.4107 552.1293,173.4990 552.1293,199.3800 C 552.1293,209.9242 552.1293,226.2197 552.1293,237.7224 L 568.4248,237.7224 C 568.4248,225.2611 568.4248,209.9242 568.4248,199.3800 C 568.4248,183.0846 582.8032,168.7062 601.9744,168.7062 C 620.1870,168.7062 634.5653,183.0846 634.5653,199.3800 C 634.5653,209.9242 635.5239,225.2611 635.5239,237.7224 L 651.8194,237.7224 C 651.8194,225.2611 650.8608,209.9242 650.8608,199.3800 Z " fill="#1A1A1A" stroke="none"/>
        </g>
        <g transform="matrix(1.0000 0.0000 0.0000 1.0000 0.0000 0.0000)">
</g>
        <g transform="matrix(0.0625 0.0000 0.0000 0.0625 0.0000 0.0000)">
          <path d="M 650.8608,199.3800 C 650.8608,173.4990 628.8140,152.4107 601.9744,152.4107 C 575.1347,152.4107 552.1293,173.4990 552.1293,199.3800 C 552.1293,209.9242 552.1293,226.2197 552.1293,237.7224 L 568.4248,237.7224 C 568.4248,225.2611 568.4248,209.9242 568.4248,199.3800 C 568.4248,183.0846 582.8032,168.7062 601.9744,168.7062 C 620.1870,168.7062 634.5653,183.0846 634.5653,199.3800 C 634.5653,209.9242 635.5239,225.2611 635.5239,237.7224 L 651.8194,237.7224 C 651.8194,225.2611 650.8608,209.9242 650.8608,199.3800 Z " stroke="#1A1A1A" stroke-width="4.7928" stroke-linecap="butt" stroke-linejoin="miter" stroke-miterlimit="1.9171" fill="none"/>
        </g>
        <g transform="matrix(1.0000 0.0000 0.0000 1.0000 0.0000 0.0000)">
</g>
        <g transform="matrix(0.0625 0.0000 0.0000 0.0625 0.0000 0.0000)">
          <path d="M 679.6175,227.1782 L 654.6950,227.1782 L 654.6950,198.4215 C 654.6950,173.4990 635.5239,153.3693 610.6014,153.3693 C 585.6789,153.3693 565.5492,173.4990 565.5492,198.4215 L 565.5492,227.1782 L 541.5852,227.1782 C 535.8339,227.1782 530.0825,231.9710 530.0825,236.7638 L 530.0825,355.6250 C 530.0825,361.3763 535.8339,366.1691 541.5852,366.1691 L 679.6175,366.1691 C 685.3689,366.1691 690.1617,361.3763 690.1617,355.6250 L 690.1617,236.7638 C 690.1617,231.9710 685.3689,227.1782 679.6175,227.1782 Z M 585.6789,197.4629 C 585.6789,183.0846 596.2230,171.5819 610.6014,171.5819 C 624.0212,171.5819 635.5239,183.0846 635.5239,197.4629 L 635.5239,227.1782 L 585.6789,227.1782 L 585.6789,197.4629 L 585.6789,197.4629 Z " fill="#CCCCCC" stroke="none"/>
        </g>
        <g transform="matrix(1.0000 0.0000 0.0000 1.0000 0.0000 0.0000)">
</g>
        <g transform="matrix(0.0625 0.0000 0.0000 0.0625 0.0000 0.0000)">
          <path d="M 679.6175,227.1782 L 654.6950,227.1782 L 654.6950,198.4215 C 654.6950,173.4990 635.5239,153.3693 610.6014,153.3693 C 585.6789,153.3693 565.5492,173.4990 565.5492,198.4215 L 565.5492,227.1782 L 541.5852,227.1782 C 535.8339,227.1782 530.0825,231.9710 530.0825,236.7638 L 530.0825,355.6250 C 530.0825,361.3763 535.8339,366.1691 541.5852,366.1691 L 679.6175,366.1691 C 685.3689,366.1691 690.1617,361.3763 690.1617,355.6250 L 690.1617,236.7638 C 690.1617,231.9710 685.3689,227.1782 679.6175,227.1782 Z M 585.6789,197.4629 C 585.6789,183.0846 596.2230,171.5819 610.6014,171.5819 C 624.0212,171.5819 635.5239,183.0846 635.5239,197.4629 L 635.5239,227.1782 L 585.6789,227.1782 L 585.6789,197.4629 L 585.6789,197.4629 Z " stroke="#1A1A1A" stroke-width="4.7928" stroke-linecap="round" stroke-linejoin="round" fill="none"/>
        </g>
        <g transform="matrix(1.0000 0.0000 0.0000 1.0000 0.0000 0.0000)">
</g>
        <g transform="matrix(0.0625 0.0000 0.0000 0.0625 0.0000 0.0000)">
          <path d="M 630.7311,270.3133 C 630.7311,258.8106 622.1041,250.1836 610.6014,250.1836 C 599.0987,250.1836 589.5131,258.8106 589.5131,270.3133 C 589.5131,277.9818 593.3473,283.7331 599.0987,287.5674 L 594.3059,328.7854 C 594.3059,332.6196 598.1401,336.4538 602.9329,336.4538 L 618.2698,336.4538 C 622.1041,336.4538 625.9383,332.6196 625.9383,328.7854 L 622.1041,287.5674 C 626.8969,283.7331 630.7311,277.9818 630.7311,270.3133 Z " fill="#1A1A1A" stroke="none"/>
        </g>
        <g transform="matrix(1.0000 0.0000 0.0000 1.0000 0.0000 0.0000)">
</g>
      </g>
      <!--emf-blob end-->
    </g>
  </g>
</svg>
