<svg xmlns="http://www.w3.org/2000/svg" xmlns:xlink="http://www.w3.org/1999/xlink" version="1.1" width="53.8583000000" height="34.0951000000">
  <title><![CDATA[SnapVault Data Flow]]></title>
  <g transform=" scale(1.000000) ">
    <text xmlns="http://www.w3.org/2000/svg" x="5.7925" y="34.0951">
      <tspan font-family="Arial" font-size="4.5000" fill="#000000" fill-opacity="1.0000" stroke-opacity="1.0000">
SnapVault Data Flow</tspan>
    </text>
    <!--converted by libvisio2svg-->
    <g transform=" translate(-1.174400,-1.175900) ">
      <!--emf-blob start-->
      <g transform="translate(0.9586, 0.9586)">
        <g transform="matrix(0.0625 0.0000 0.0000 0.0625 0.0000 0.0000)">
          <path d="M 66.1405,186.9188 L 18.2126,194.5873 L 18.2126,370.0033 L 66.1405,374.7961 L 124.6125,372.8790 L 124.6125,189.7945 L 66.1405,186.9188 Z" stroke-width="1px" stroke="#0054A6" fill="#0054A6"/>
        </g>
        <g transform="matrix(1.0000 0.0000 0.0000 1.0000 0.0000 0.0000)">
</g>
        <g transform="matrix(0.0625 0.0000 0.0000 0.0625 0.0000 0.0000)">
          <path d="M 66.1405,186.9188 L 18.2126,194.5873 L 18.2126,370.0033 L 66.1405,374.7961 L 124.6125,372.8790 L 124.6125,189.7945 L 66.1405,186.9188 Z" stroke="#0054A6" stroke-width="11.5027" stroke-linecap="round" stroke-linejoin="round" fill="none"/>
        </g>
        <g transform="matrix(1.0000 0.0000 0.0000 1.0000 0.0000 0.0000)">
</g>
        <g transform="matrix(0.0625 0.0000 0.0000 0.0625 0.0000 0.0000)">
          <path d="M 165.8305,186.9188 L 116.9441,194.5873 L 116.9441,370.0033 L 165.8305,374.7961 L 223.3440,372.8790 L 223.3440,189.7945 L 165.8305,186.9188 Z" stroke-width="1px" stroke="#0054A6" fill="#0054A6"/>
        </g>
        <g transform="matrix(1.0000 0.0000 0.0000 1.0000 0.0000 0.0000)">
</g>
        <g transform="matrix(0.0625 0.0000 0.0000 0.0625 0.0000 0.0000)">
          <path d="M 165.8305,186.9188 L 116.9441,194.5873 L 116.9441,370.0033 L 165.8305,374.7961 L 223.3440,372.8790 L 223.3440,189.7945 L 165.8305,186.9188 Z" stroke="#0054A6" stroke-width="11.5027" stroke-linecap="round" stroke-linejoin="round" fill="none"/>
        </g>
        <g transform="matrix(1.0000 0.0000 0.0000 1.0000 0.0000 0.0000)">
</g>
        <g transform="matrix(0.0625 0.0000 0.0000 0.0625 0.0000 0.0000)">
          <path d="M 264.5620,186.9188 L 216.6341,194.5873 L 216.6341,370.0033 L 264.5620,374.7961 L 323.0340,372.8790 L 323.0340,189.7945 L 264.5620,186.9188 Z" stroke-width="1px" stroke="#0054A6" fill="#0054A6"/>
        </g>
        <g transform="matrix(1.0000 0.0000 0.0000 1.0000 0.0000 0.0000)">
</g>
        <g transform="matrix(0.0625 0.0000 0.0000 0.0625 0.0000 0.0000)">
          <path d="M 264.5620,186.9188 L 216.6341,194.5873 L 216.6341,370.0033 L 264.5620,374.7961 L 323.0340,372.8790 L 323.0340,189.7945 L 264.5620,186.9188 Z" stroke="#0054A6" stroke-width="11.5027" stroke-linecap="round" stroke-linejoin="round" fill="none"/>
        </g>
        <g transform="matrix(1.0000 0.0000 0.0000 1.0000 0.0000 0.0000)">
</g>
        <g transform="matrix(0.0625 0.0000 0.0000 0.0625 0.0000 0.0000)">
          <path d="M 312.4899,370.0033 L 361.3763,374.7961 L 427.5168,370.0033 L 427.5168,525.2897 L 489.8231,541.5852 L 759.1779,279.8989 L 489.8231,18.2126 L 427.5168,39.3009 L 427.5168,194.5873 L 361.3763,186.9188 L 312.4899,194.5873 L 312.4899,370.0033 Z" stroke-width="1px" stroke="#0054A6" fill="#0054A6"/>
        </g>
        <g transform="matrix(1.0000 0.0000 0.0000 1.0000 0.0000 0.0000)">
</g>
        <g transform="matrix(0.0625 0.0000 0.0000 0.0625 0.0000 0.0000)">
          <path d="M 312.4899,370.0033 L 361.3763,374.7961 L 427.5168,370.0033 L 427.5168,525.2897 L 489.8231,541.5852 L 759.1779,279.8989 L 489.8231,18.2126 L 427.5168,39.3009 L 427.5168,194.5873 L 361.3763,186.9188 L 312.4899,194.5873 L 312.4899,370.0033 Z" stroke="#0054A6" stroke-width="11.5027" stroke-linecap="round" stroke-linejoin="round" fill="none"/>
        </g>
        <g transform="matrix(1.0000 0.0000 0.0000 1.0000 0.0000 0.0000)">
</g>
        <g transform="matrix(0.0625 0.0000 0.0000 0.0625 0.0000 0.0000)">
          <path d="M 66.1405,186.9188 L 66.1405,374.7961 L 124.6125,374.7961 L 124.6125,186.9188 L 66.1405,186.9188 Z" stroke-width="1px" stroke="#6CB33F" fill="#6CB33F"/>
        </g>
        <g transform="matrix(1.0000 0.0000 0.0000 1.0000 0.0000 0.0000)">
</g>
        <g transform="matrix(0.0625 0.0000 0.0000 0.0625 0.0000 0.0000)">
          <path d="M 66.1405,374.7961 L 124.6125,374.7961 L 124.6125,186.9188 L 66.1405,186.9188 L 66.1405,374.7961 Z" stroke="#0054A6" stroke-width="11.5027" stroke-linecap="round" stroke-linejoin="round" fill="none"/>
        </g>
        <g transform="matrix(1.0000 0.0000 0.0000 1.0000 0.0000 0.0000)">
</g>
        <g transform="matrix(0.0625 0.0000 0.0000 0.0625 0.0000 0.0000)">
          <path d="M 165.8305,186.9188 L 165.8305,374.7961 L 223.3440,374.7961 L 223.3440,186.9188 L 165.8305,186.9188 Z" stroke-width="1px" stroke="#6CB33F" fill="#6CB33F"/>
        </g>
        <g transform="matrix(1.0000 0.0000 0.0000 1.0000 0.0000 0.0000)">
</g>
        <g transform="matrix(0.0625 0.0000 0.0000 0.0625 0.0000 0.0000)">
          <path d="M 165.8305,374.7961 L 223.3440,374.7961 L 223.3440,186.9188 L 165.8305,186.9188 L 165.8305,374.7961 Z" stroke="#0054A6" stroke-width="11.5027" stroke-linecap="round" stroke-linejoin="round" fill="none"/>
        </g>
        <g transform="matrix(1.0000 0.0000 0.0000 1.0000 0.0000 0.0000)">
</g>
        <g transform="matrix(0.0625 0.0000 0.0000 0.0625 0.0000 0.0000)">
          <path d="M 264.5620,186.9188 L 264.5620,374.7961 L 323.0340,374.7961 L 323.0340,186.9188 L 264.5620,186.9188 Z" stroke-width="1px" stroke="#6CB33F" fill="#6CB33F"/>
        </g>
        <g transform="matrix(1.0000 0.0000 0.0000 1.0000 0.0000 0.0000)">
</g>
        <g transform="matrix(0.0625 0.0000 0.0000 0.0625 0.0000 0.0000)">
          <path d="M 264.5620,374.7961 L 323.0340,374.7961 L 323.0340,186.9188 L 264.5620,186.9188 L 264.5620,374.7961 Z" stroke="#0054A6" stroke-width="11.5027" stroke-linecap="round" stroke-linejoin="round" fill="none"/>
        </g>
        <g transform="matrix(1.0000 0.0000 0.0000 1.0000 0.0000 0.0000)">
</g>
        <g transform="matrix(0.0625 0.0000 0.0000 0.0625 0.0000 0.0000)">
          <path d="M 361.3763,374.7961 L 490.7816,374.7961 L 490.7816,540.6267 L 844.4895,277.9818 L 490.7816,18.2126 L 490.7816,186.9188 L 361.3763,186.9188 L 361.3763,374.7961 Z" stroke-width="1px" stroke="#6CB33F" fill="#6CB33F"/>
        </g>
        <g transform="matrix(1.0000 0.0000 0.0000 1.0000 0.0000 0.0000)">
</g>
        <g transform="matrix(0.0625 0.0000 0.0000 0.0625 0.0000 0.0000)">
          <path d="M 361.3763,374.7961 L 490.7816,374.7961 L 490.7816,540.6267 L 844.4895,277.9818 L 490.7816,18.2126 L 490.7816,186.9188 L 361.3763,186.9188 L 361.3763,374.7961 Z" stroke="#0054A6" stroke-width="11.5027" stroke-linecap="round" stroke-linejoin="round" fill="none"/>
        </g>
        <g transform="matrix(1.0000 0.0000 0.0000 1.0000 0.0000 0.0000)">
</g>
      </g>
      <!--emf-blob end-->
    </g>
  </g>
</svg>
