<svg xmlns="http://www.w3.org/2000/svg" xmlns:xlink="http://www.w3.org/1999/xlink" version="1.1" width="53.8583000000" height="50.2519000000">
  <title><![CDATA[SQL Database]]></title>
  <g transform=" scale(1.000000) ">
    <text xmlns="http://www.w3.org/2000/svg" x="11.5918" y="50.2519">
      <tspan font-family="Arial" font-size="4.5000" fill="#000000" fill-opacity="1.0000" stroke-opacity="1.0000">
SQL Database</tspan>
    </text>
    <!--converted by libvisio2svg-->
    <g transform=" translate(-1.709600,-1.159400) ">
      <!--emf-blob start-->
      <g transform="translate(0.9687, 0.9687)">
        <path d="M 1.9373,8.7180 C 1.9373,8.7180 1.9373,37.7780 1.9373,37.7780 C 1.9373,46.4960 15.4987,50.3707 28.0913,50.3707 C 40.6840,50.3707 53.2767,46.4960 53.2767,37.7780 L 54.2454,8.7180 L 1.9373,8.7180 Z " fill="none" stroke="none"/>
        <defs>
          <clipPath id="clip-1369321801">
            <path d="M 1.9373,8.7180 C 1.9373,8.7180 1.9373,37.7780 1.9373,37.7780 C 1.9373,46.4960 15.4987,50.3707 28.0913,50.3707 C 40.6840,50.3707 53.2767,46.4960 53.2767,37.7780 L 54.2454,8.7180 L 1.9373,8.7180 Z"/>
          </clipPath>
        </defs>
        <path clip-path="url(#clip-1369321801)" d="M 0.9687,7.7493 L 0.9687,50.3707 L 1.9373,50.3707 L 1.9373,7.7493 L 0.9687,7.7493 Z" stroke-width="1px" stroke="#5A5A5A" fill="#5A5A5A"/>
        <path clip-path="url(#clip-1369321801)" d="M 1.9373,7.7493 L 1.9373,50.3707 L 2.9060,50.3707 L 2.9060,7.7493 L 1.9373,7.7493 Z" stroke-width="1px" stroke="#5D5D5D" fill="#5D5D5D"/>
        <path clip-path="url(#clip-1369321801)" d="M 2.9060,7.7493 L 2.9060,50.3707 L 3.8747,50.3707 L 3.8747,7.7493 L 2.9060,7.7493 Z" stroke-width="1px" stroke="#616161" fill="#616161"/>
        <path clip-path="url(#clip-1369321801)" d="M 3.8747,7.7493 L 3.8747,50.3707 L 4.8433,50.3707 L 4.8433,7.7493 L 3.8747,7.7493 Z" stroke-width="1px" stroke="#666666" fill="#666666"/>
        <path clip-path="url(#clip-1369321801)" d="M 4.8433,7.7493 L 4.8433,50.3707 L 5.8120,50.3707 L 5.8120,7.7493 L 4.8433,7.7493 Z" stroke-width="1px" stroke="#6A6A6A" fill="#6A6A6A"/>
        <path clip-path="url(#clip-1369321801)" d="M 5.8120,7.7493 L 5.8120,50.3707 L 6.7807,50.3707 L 6.7807,7.7493 L 5.8120,7.7493 Z" stroke-width="1px" stroke="#6E6E6E" fill="#6E6E6E"/>
        <path clip-path="url(#clip-1369321801)" d="M 6.7807,7.7493 L 6.7807,50.3707 L 7.7493,50.3707 L 7.7493,7.7493 L 6.7807,7.7493 Z" stroke-width="1px" stroke="#727272" fill="#727272"/>
        <path clip-path="url(#clip-1369321801)" d="M 7.7493,7.7493 L 7.7493,50.3707 L 8.7180,50.3707 L 8.7180,7.7493 L 7.7493,7.7493 Z" stroke-width="1px" stroke="#767676" fill="#767676"/>
        <path clip-path="url(#clip-1369321801)" d="M 8.7180,7.7493 L 8.7180,50.3707 L 9.6867,50.3707 L 9.6867,7.7493 L 8.7180,7.7493 Z" stroke-width="1px" stroke="#7B7B7B" fill="#7B7B7B"/>
        <path clip-path="url(#clip-1369321801)" d="M 9.6867,7.7493 L 9.6867,50.3707 L 10.6553,50.3707 L 10.6553,7.7493 L 9.6867,7.7493 Z" stroke-width="1px" stroke="#7F7F7F" fill="#7F7F7F"/>
        <path clip-path="url(#clip-1369321801)" d="M 10.6553,7.7493 L 10.6553,50.3707 L 11.6240,50.3707 L 11.6240,7.7493 L 10.6553,7.7493 Z" stroke-width="1px" stroke="#848484" fill="#848484"/>
        <path clip-path="url(#clip-1369321801)" d="M 11.6240,7.7493 L 11.6240,50.3707 L 12.5927,50.3707 L 12.5927,7.7493 L 11.6240,7.7493 Z" stroke-width="1px" stroke="#888888" fill="#888888"/>
        <path clip-path="url(#clip-1369321801)" d="M 12.5927,7.7493 L 12.5927,50.3707 L 13.5613,50.3707 L 13.5613,7.7493 L 12.5927,7.7493 Z" stroke-width="1px" stroke="#8C8C8C" fill="#8C8C8C"/>
        <path clip-path="url(#clip-1369321801)" d="M 13.5613,7.7493 L 13.5613,50.3707 L 14.5300,50.3707 L 14.5300,7.7493 L 13.5613,7.7493 Z" stroke-width="1px" stroke="#909090" fill="#909090"/>
        <path clip-path="url(#clip-1369321801)" d="M 14.5300,7.7493 L 14.5300,50.3707 L 15.4987,50.3707 L 15.4987,7.7493 L 14.5300,7.7493 Z" stroke-width="1px" stroke="#959595" fill="#959595"/>
        <path clip-path="url(#clip-1369321801)" d="M 15.4987,7.7493 L 15.4987,50.3707 L 16.4673,50.3707 L 16.4673,7.7493 L 15.4987,7.7493 Z" stroke-width="1px" stroke="#999999" fill="#999999"/>
        <path clip-path="url(#clip-1369321801)" d="M 16.4673,7.7493 L 16.4673,50.3707 L 17.4360,50.3707 L 17.4360,7.7493 L 16.4673,7.7493 Z" stroke-width="1px" stroke="#9D9D9D" fill="#9D9D9D"/>
        <path clip-path="url(#clip-1369321801)" d="M 17.4360,7.7493 L 17.4360,50.3707 L 18.4047,50.3707 L 18.4047,7.7493 L 17.4360,7.7493 Z" stroke-width="1px" stroke="#A2A2A2" fill="#A2A2A2"/>
        <path clip-path="url(#clip-1369321801)" d="M 18.4047,7.7493 L 18.4047,50.3707 L 19.3733,50.3707 L 19.3733,7.7493 L 18.4047,7.7493 Z" stroke-width="1px" stroke="#A6A6A6" fill="#A6A6A6"/>
        <path clip-path="url(#clip-1369321801)" d="M 19.3733,7.7493 L 19.3733,50.3707 L 20.3420,50.3707 L 20.3420,7.7493 L 19.3733,7.7493 Z" stroke-width="1px" stroke="#AAAAAA" fill="#AAAAAA"/>
        <path clip-path="url(#clip-1369321801)" d="M 20.3420,7.7493 L 20.3420,50.3707 L 21.3107,50.3707 L 21.3107,7.7493 L 20.3420,7.7493 Z" stroke-width="1px" stroke="#AEAEAE" fill="#AEAEAE"/>
        <path clip-path="url(#clip-1369321801)" d="M 21.3107,7.7493 L 21.3107,50.3707 L 22.2793,50.3707 L 22.2793,7.7493 L 21.3107,7.7493 Z" stroke-width="1px" stroke="#B3B3B3" fill="#B3B3B3"/>
        <path clip-path="url(#clip-1369321801)" d="M 22.2793,7.7493 L 22.2793,50.3707 L 23.2480,50.3707 L 23.2480,7.7493 L 22.2793,7.7493 Z" stroke-width="1px" stroke="#B7B7B7" fill="#B7B7B7"/>
        <path clip-path="url(#clip-1369321801)" d="M 23.2480,7.7493 L 23.2480,50.3707 L 24.2167,50.3707 L 24.2167,7.7493 L 23.2480,7.7493 Z" stroke-width="1px" stroke="#BCBCBC" fill="#BCBCBC"/>
        <path clip-path="url(#clip-1369321801)" d="M 24.2167,7.7493 L 24.2167,50.3707 L 25.1853,50.3707 L 25.1853,7.7493 L 24.2167,7.7493 Z" stroke-width="1px" stroke="#C0C0C0" fill="#C0C0C0"/>
        <path clip-path="url(#clip-1369321801)" d="M 25.1853,7.7493 L 25.1853,50.3707 L 26.1540,50.3707 L 26.1540,7.7493 L 25.1853,7.7493 Z" stroke-width="1px" stroke="#C4C4C4" fill="#C4C4C4"/>
        <path clip-path="url(#clip-1369321801)" d="M 26.1540,7.7493 L 26.1540,50.3707 L 27.1227,50.3707 L 27.1227,7.7493 L 26.1540,7.7493 Z" stroke-width="1px" stroke="#C8C8C8" fill="#C8C8C8"/>
        <path clip-path="url(#clip-1369321801)" d="M 27.1227,7.7493 L 27.1227,50.3707 L 28.0913,50.3707 L 28.0913,7.7493 L 27.1227,7.7493 Z" stroke-width="1px" stroke="#CDCDCD" fill="#CDCDCD"/>
        <path clip-path="url(#clip-1369321801)" d="M 28.0913,7.7493 L 28.0913,50.3707 L 29.0600,50.3707 L 29.0600,7.7493 L 28.0913,7.7493 Z" stroke-width="1px" stroke="#C9C9C9" fill="#C9C9C9"/>
        <path clip-path="url(#clip-1369321801)" d="M 29.0600,7.7493 L 29.0600,50.3707 L 30.0287,50.3707 L 30.0287,7.7493 L 29.0600,7.7493 Z" stroke-width="1px" stroke="#C5C5C5" fill="#C5C5C5"/>
        <path clip-path="url(#clip-1369321801)" d="M 30.0287,7.7493 L 30.0287,50.3707 L 30.9974,50.3707 L 30.9974,7.7493 L 30.0287,7.7493 Z" stroke-width="1px" stroke="#C1C1C1" fill="#C1C1C1"/>
        <path clip-path="url(#clip-1369321801)" d="M 30.9974,7.7493 L 30.9974,50.3707 L 31.9660,50.3707 L 31.9660,7.7493 L 30.9974,7.7493 Z" stroke-width="1px" stroke="#BDBDBD" fill="#BDBDBD"/>
        <path clip-path="url(#clip-1369321801)" d="M 31.9660,7.7493 L 31.9660,50.3707 L 32.9347,50.3707 L 32.9347,7.7493 L 31.9660,7.7493 Z" stroke-width="1px" stroke="#B8B8B8" fill="#B8B8B8"/>
        <path clip-path="url(#clip-1369321801)" d="M 32.9347,7.7493 L 32.9347,50.3707 L 33.9034,50.3707 L 33.9034,7.7493 L 32.9347,7.7493 Z" stroke-width="1px" stroke="#B4B4B4" fill="#B4B4B4"/>
        <path clip-path="url(#clip-1369321801)" d="M 33.9034,7.7493 L 33.9034,50.3707 L 34.8720,50.3707 L 34.8720,7.7493 L 33.9034,7.7493 Z" stroke-width="1px" stroke="#AFAFAF" fill="#AFAFAF"/>
        <path clip-path="url(#clip-1369321801)" d="M 34.8720,7.7493 L 34.8720,50.3707 L 35.8407,50.3707 L 35.8407,7.7493 L 34.8720,7.7493 Z" stroke-width="1px" stroke="#ABABAB" fill="#ABABAB"/>
        <path clip-path="url(#clip-1369321801)" d="M 35.8407,7.7493 L 35.8407,50.3707 L 36.8094,50.3707 L 36.8094,7.7493 L 35.8407,7.7493 Z" stroke-width="1px" stroke="#A7A7A7" fill="#A7A7A7"/>
        <path clip-path="url(#clip-1369321801)" d="M 36.8094,7.7493 L 36.8094,50.3707 L 37.7780,50.3707 L 37.7780,7.7493 L 36.8094,7.7493 Z" stroke-width="1px" stroke="#A3A3A3" fill="#A3A3A3"/>
        <path clip-path="url(#clip-1369321801)" d="M 37.7780,7.7493 L 37.7780,50.3707 L 38.7467,50.3707 L 38.7467,7.7493 L 37.7780,7.7493 Z" stroke-width="1px" stroke="#9E9E9E" fill="#9E9E9E"/>
        <path clip-path="url(#clip-1369321801)" d="M 38.7467,7.7493 L 38.7467,50.3707 L 39.7154,50.3707 L 39.7154,7.7493 L 38.7467,7.7493 Z" stroke-width="1px" stroke="#9A9A9A" fill="#9A9A9A"/>
        <path clip-path="url(#clip-1369321801)" d="M 39.7154,7.7493 L 39.7154,50.3707 L 40.6840,50.3707 L 40.6840,7.7493 L 39.7154,7.7493 Z" stroke-width="1px" stroke="#969696" fill="#969696"/>
        <path clip-path="url(#clip-1369321801)" d="M 40.6840,7.7493 L 40.6840,50.3707 L 41.6527,50.3707 L 41.6527,7.7493 L 40.6840,7.7493 Z" stroke-width="1px" stroke="#919191" fill="#919191"/>
        <path clip-path="url(#clip-1369321801)" d="M 41.6527,7.7493 L 41.6527,50.3707 L 42.6214,50.3707 L 42.6214,7.7493 L 41.6527,7.7493 Z" stroke-width="1px" stroke="#8D8D8D" fill="#8D8D8D"/>
        <path clip-path="url(#clip-1369321801)" d="M 42.6214,7.7493 L 42.6214,50.3707 L 43.5900,50.3707 L 43.5900,7.7493 L 42.6214,7.7493 Z" stroke-width="1px" stroke="#898989" fill="#898989"/>
        <path clip-path="url(#clip-1369321801)" d="M 43.5900,7.7493 L 43.5900,50.3707 L 44.5587,50.3707 L 44.5587,7.7493 L 43.5900,7.7493 Z" stroke-width="1px" stroke="#858585" fill="#858585"/>
        <path clip-path="url(#clip-1369321801)" d="M 44.5587,7.7493 L 44.5587,50.3707 L 45.5274,50.3707 L 45.5274,7.7493 L 44.5587,7.7493 Z" stroke-width="1px" stroke="#808080" fill="#808080"/>
        <path clip-path="url(#clip-1369321801)" d="M 45.5274,7.7493 L 45.5274,50.3707 L 46.4960,50.3707 L 46.4960,7.7493 L 45.5274,7.7493 Z" stroke-width="1px" stroke="#7C7C7C" fill="#7C7C7C"/>
        <path clip-path="url(#clip-1369321801)" d="M 46.4960,7.7493 L 46.4960,50.3707 L 47.4647,50.3707 L 47.4647,7.7493 L 46.4960,7.7493 Z" stroke-width="1px" stroke="#777777" fill="#777777"/>
        <path clip-path="url(#clip-1369321801)" d="M 47.4647,7.7493 L 47.4647,50.3707 L 48.4334,50.3707 L 48.4334,7.7493 L 47.4647,7.7493 Z" stroke-width="1px" stroke="#737373" fill="#737373"/>
        <path clip-path="url(#clip-1369321801)" d="M 48.4334,7.7493 L 48.4334,50.3707 L 49.4020,50.3707 L 49.4020,7.7493 L 48.4334,7.7493 Z" stroke-width="1px" stroke="#6F6F6F" fill="#6F6F6F"/>
        <path clip-path="url(#clip-1369321801)" d="M 49.4020,7.7493 L 49.4020,50.3707 L 50.3707,50.3707 L 50.3707,7.7493 L 49.4020,7.7493 Z" stroke-width="1px" stroke="#6B6B6B" fill="#6B6B6B"/>
        <path clip-path="url(#clip-1369321801)" d="M 50.3707,7.7493 L 50.3707,50.3707 L 51.3394,50.3707 L 51.3394,7.7493 L 50.3707,7.7493 Z" stroke-width="1px" stroke="#676767" fill="#676767"/>
        <path clip-path="url(#clip-1369321801)" d="M 51.3394,7.7493 L 51.3394,50.3707 L 52.3080,50.3707 L 52.3080,7.7493 L 51.3394,7.7493 Z" stroke-width="1px" stroke="#626262" fill="#626262"/>
        <path clip-path="url(#clip-1369321801)" d="M 52.3080,7.7493 L 52.3080,50.3707 L 53.2767,50.3707 L 53.2767,7.7493 L 52.3080,7.7493 Z" stroke-width="1px" stroke="#5E5E5E" fill="#5E5E5E"/>
        <g transform="matrix(0.0625 0.0000 0.0000 0.0625 0.0000 0.0000)">
          <path d="M 19.3733,133.6761 C 19.3733,133.6761 18.4047,603.4797 18.4047,603.4797 C 18.4047,737.1558 235.3861,798.1818 435.9003,798.1818 C 637.3830,798.1818 853.3958,737.1558 853.3958,603.4797 L 853.3958,127.8641 L 19.3733,133.6761 " stroke="#0054A6" stroke-width="11.6240" stroke-linecap="round" stroke-linejoin="round" fill="none"/>
        </g>
        <g transform="matrix(1.0000 0.0000 0.0000 1.0000 0.0000 0.0000)">
          <path d="M 1.9373,8.7180 C 1.9373,14.5300 21.3107,15.4987 28.0913,15.4987 C 33.9034,15.4987 54.2454,14.5300 54.2454,8.7180 C 54.2454,1.9373 33.9034,1.9373 28.0913,1.9373 C 21.3107,1.9373 1.9373,1.9373 1.9373,8.7180 " fill="none" stroke="none"/>
          <defs>
            <clipPath id="clip-745425661">
              <path d="M 1.9373,8.7180 C 1.9373,14.5300 21.3107,15.4987 28.0913,15.4987 C 33.9034,15.4987 54.2454,14.5300 54.2454,8.7180 C 54.2454,1.9373 33.9034,1.9373 28.0913,1.9373 C 21.3107,1.9373 1.9373,1.9373 1.9373,8.7180 Z"/>
            </clipPath>
          </defs>
          <path clip-path="url(#clip-745425661)" d="M 0.9687,0.9687 L 0.9687,15.4987 L 1.9373,15.4987 L 1.9373,0.9687 L 0.9687,0.9687 Z" stroke-width="1px" stroke="#B3B3B3" fill="#B3B3B3"/>
          <path clip-path="url(#clip-745425661)" d="M 1.9373,0.9687 L 1.9373,15.4987 L 2.9060,15.4987 L 2.9060,0.9687 L 1.9373,0.9687 Z" stroke-width="1px" stroke="#5A5A5A" fill="#5A5A5A"/>
          <path clip-path="url(#clip-745425661)" d="M 2.9060,0.9687 L 2.9060,15.4987 L 3.8747,15.4987 L 3.8747,0.9687 L 2.9060,0.9687 Z" stroke-width="1px" stroke="#5C5C5C" fill="#5C5C5C"/>
          <path clip-path="url(#clip-745425661)" d="M 3.8747,0.9687 L 3.8747,15.4987 L 4.8433,15.4987 L 4.8433,0.9687 L 3.8747,0.9687 Z" stroke-width="1px" stroke="#5E5E5E" fill="#5E5E5E"/>
          <path clip-path="url(#clip-745425661)" d="M 4.8433,0.9687 L 4.8433,15.4987 L 5.8120,15.4987 L 5.8120,0.9687 L 4.8433,0.9687 Z" stroke-width="1px" stroke="#606060" fill="#606060"/>
          <path clip-path="url(#clip-745425661)" d="M 5.8120,0.9687 L 5.8120,15.4987 L 6.7807,15.4987 L 6.7807,0.9687 L 5.8120,0.9687 Z" stroke-width="1px" stroke="#616161" fill="#616161"/>
          <path clip-path="url(#clip-745425661)" d="M 6.7807,0.9687 L 6.7807,15.4987 L 7.7493,15.4987 L 7.7493,0.9687 L 6.7807,0.9687 Z" stroke-width="1px" stroke="#636363" fill="#636363"/>
          <path clip-path="url(#clip-745425661)" d="M 7.7493,0.9687 L 7.7493,15.4987 L 8.7180,15.4987 L 8.7180,0.9687 L 7.7493,0.9687 Z" stroke-width="1px" stroke="#646464" fill="#646464"/>
          <path clip-path="url(#clip-745425661)" d="M 8.7180,0.9687 L 8.7180,15.4987 L 9.6867,15.4987 L 9.6867,0.9687 L 8.7180,0.9687 Z" stroke-width="1px" stroke="#666666" fill="#666666"/>
          <path clip-path="url(#clip-745425661)" d="M 9.6867,0.9687 L 9.6867,15.4987 L 10.6553,15.4987 L 10.6553,0.9687 L 9.6867,0.9687 Z" stroke-width="1px" stroke="#686868" fill="#686868"/>
          <path clip-path="url(#clip-745425661)" d="M 10.6553,0.9687 L 10.6553,15.4987 L 11.6240,15.4987 L 11.6240,0.9687 L 10.6553,0.9687 Z" stroke-width="1px" stroke="#6A6A6A" fill="#6A6A6A"/>
          <path clip-path="url(#clip-745425661)" d="M 11.6240,0.9687 L 11.6240,15.4987 L 12.5927,15.4987 L 12.5927,0.9687 L 11.6240,0.9687 Z" stroke-width="1px" stroke="#6B6B6B" fill="#6B6B6B"/>
          <path clip-path="url(#clip-745425661)" d="M 12.5927,0.9687 L 12.5927,15.4987 L 13.5613,15.4987 L 13.5613,0.9687 L 12.5927,0.9687 Z" stroke-width="1px" stroke="#6D6D6D" fill="#6D6D6D"/>
          <path clip-path="url(#clip-745425661)" d="M 13.5613,0.9687 L 13.5613,15.4987 L 14.5300,15.4987 L 14.5300,0.9687 L 13.5613,0.9687 Z" stroke-width="1px" stroke="#6F6F6F" fill="#6F6F6F"/>
          <path clip-path="url(#clip-745425661)" d="M 14.5300,0.9687 L 14.5300,15.4987 L 15.4987,15.4987 L 15.4987,0.9687 L 14.5300,0.9687 Z" stroke-width="1px" stroke="#717171" fill="#717171"/>
          <path clip-path="url(#clip-745425661)" d="M 15.4987,0.9687 L 15.4987,15.4987 L 16.4673,15.4987 L 16.4673,0.9687 L 15.4987,0.9687 Z" stroke-width="1px" stroke="#727272" fill="#727272"/>
          <path clip-path="url(#clip-745425661)" d="M 16.4673,0.9687 L 16.4673,15.4987 L 17.4360,15.4987 L 17.4360,0.9687 L 16.4673,0.9687 Z" stroke-width="1px" stroke="#737373" fill="#737373"/>
          <path clip-path="url(#clip-745425661)" d="M 17.4360,0.9687 L 17.4360,15.4987 L 18.4047,15.4987 L 18.4047,0.9687 L 17.4360,0.9687 Z" stroke-width="1px" stroke="#757575" fill="#757575"/>
          <path clip-path="url(#clip-745425661)" d="M 18.4047,0.9687 L 18.4047,15.4987 L 19.3733,15.4987 L 19.3733,0.9687 L 18.4047,0.9687 Z" stroke-width="1px" stroke="#777777" fill="#777777"/>
          <path clip-path="url(#clip-745425661)" d="M 19.3733,0.9687 L 19.3733,15.4987 L 20.3420,15.4987 L 20.3420,0.9687 L 19.3733,0.9687 Z" stroke-width="1px" stroke="#797979" fill="#797979"/>
          <path clip-path="url(#clip-745425661)" d="M 20.3420,0.9687 L 20.3420,15.4987 L 21.3107,15.4987 L 21.3107,0.9687 L 20.3420,0.9687 Z" stroke-width="1px" stroke="#7A7A7A" fill="#7A7A7A"/>
          <path clip-path="url(#clip-745425661)" d="M 21.3107,0.9687 L 21.3107,15.4987 L 22.2793,15.4987 L 22.2793,0.9687 L 21.3107,0.9687 Z" stroke-width="1px" stroke="#7C7C7C" fill="#7C7C7C"/>
          <path clip-path="url(#clip-745425661)" d="M 22.2793,0.9687 L 22.2793,15.4987 L 23.2480,15.4987 L 23.2480,0.9687 L 22.2793,0.9687 Z" stroke-width="1px" stroke="#7D7D7D" fill="#7D7D7D"/>
          <path clip-path="url(#clip-745425661)" d="M 23.2480,0.9687 L 23.2480,15.4987 L 24.2167,15.4987 L 24.2167,0.9687 L 23.2480,0.9687 Z" stroke-width="1px" stroke="#7F7F7F" fill="#7F7F7F"/>
          <path clip-path="url(#clip-745425661)" d="M 24.2167,0.9687 L 24.2167,15.4987 L 25.1853,15.4987 L 25.1853,0.9687 L 24.2167,0.9687 Z" stroke-width="1px" stroke="#808080" fill="#808080"/>
          <path clip-path="url(#clip-745425661)" d="M 25.1853,0.9687 L 25.1853,15.4987 L 26.1540,15.4987 L 26.1540,0.9687 L 25.1853,0.9687 Z" stroke-width="1px" stroke="#828282" fill="#828282"/>
          <path clip-path="url(#clip-745425661)" d="M 26.1540,0.9687 L 26.1540,15.4987 L 27.1227,15.4987 L 27.1227,0.9687 L 26.1540,0.9687 Z" stroke-width="1px" stroke="#848484" fill="#848484"/>
          <path clip-path="url(#clip-745425661)" d="M 27.1227,0.9687 L 27.1227,15.4987 L 28.0913,15.4987 L 28.0913,0.9687 L 27.1227,0.9687 Z" stroke-width="1px" stroke="#868686" fill="#868686"/>
          <path clip-path="url(#clip-745425661)" d="M 28.0913,0.9687 L 28.0913,15.4987 L 29.0600,15.4987 L 29.0600,0.9687 L 28.0913,0.9687 Z" stroke-width="1px" stroke="#888888" fill="#888888"/>
          <path clip-path="url(#clip-745425661)" d="M 29.0600,0.9687 L 29.0600,15.4987 L 30.0287,15.4987 L 30.0287,0.9687 L 29.0600,0.9687 Z" stroke-width="1px" stroke="#898989" fill="#898989"/>
          <path clip-path="url(#clip-745425661)" d="M 30.0287,0.9687 L 30.0287,15.4987 L 30.9974,15.4987 L 30.9974,0.9687 L 30.0287,0.9687 Z" stroke-width="1px" stroke="#8B8B8B" fill="#8B8B8B"/>
          <path clip-path="url(#clip-745425661)" d="M 30.9974,0.9687 L 30.9974,15.4987 L 31.9660,15.4987 L 31.9660,0.9687 L 30.9974,0.9687 Z" stroke-width="1px" stroke="#8D8D8D" fill="#8D8D8D"/>
          <path clip-path="url(#clip-745425661)" d="M 31.9660,0.9687 L 31.9660,15.4987 L 32.9347,15.4987 L 32.9347,0.9687 L 31.9660,0.9687 Z" stroke-width="1px" stroke="#8E8E8E" fill="#8E8E8E"/>
          <path clip-path="url(#clip-745425661)" d="M 32.9347,0.9687 L 32.9347,15.4987 L 33.9034,15.4987 L 33.9034,0.9687 L 32.9347,0.9687 Z" stroke-width="1px" stroke="#909090" fill="#909090"/>
          <path clip-path="url(#clip-745425661)" d="M 33.9034,0.9687 L 33.9034,15.4987 L 34.8720,15.4987 L 34.8720,0.9687 L 33.9034,0.9687 Z" stroke-width="1px" stroke="#919191" fill="#919191"/>
          <path clip-path="url(#clip-745425661)" d="M 34.8720,0.9687 L 34.8720,15.4987 L 35.8407,15.4987 L 35.8407,0.9687 L 34.8720,0.9687 Z" stroke-width="1px" stroke="#939393" fill="#939393"/>
          <path clip-path="url(#clip-745425661)" d="M 35.8407,0.9687 L 35.8407,15.4987 L 36.8094,15.4987 L 36.8094,0.9687 L 35.8407,0.9687 Z" stroke-width="1px" stroke="#959595" fill="#959595"/>
          <path clip-path="url(#clip-745425661)" d="M 36.8094,0.9687 L 36.8094,15.4987 L 37.7780,15.4987 L 37.7780,0.9687 L 36.8094,0.9687 Z" stroke-width="1px" stroke="#979797" fill="#979797"/>
          <path clip-path="url(#clip-745425661)" d="M 37.7780,0.9687 L 37.7780,15.4987 L 38.7467,15.4987 L 38.7467,0.9687 L 37.7780,0.9687 Z" stroke-width="1px" stroke="#989898" fill="#989898"/>
          <path clip-path="url(#clip-745425661)" d="M 38.7467,0.9687 L 38.7467,15.4987 L 39.7154,15.4987 L 39.7154,0.9687 L 38.7467,0.9687 Z" stroke-width="1px" stroke="#9A9A9A" fill="#9A9A9A"/>
          <path clip-path="url(#clip-745425661)" d="M 39.7154,0.9687 L 39.7154,15.4987 L 40.6840,15.4987 L 40.6840,0.9687 L 39.7154,0.9687 Z" stroke-width="1px" stroke="#9C9C9C" fill="#9C9C9C"/>
          <path clip-path="url(#clip-745425661)" d="M 40.6840,0.9687 L 40.6840,15.4987 L 41.6527,15.4987 L 41.6527,0.9687 L 40.6840,0.9687 Z" stroke-width="1px" stroke="#9E9E9E" fill="#9E9E9E"/>
          <path clip-path="url(#clip-745425661)" d="M 41.6527,0.9687 L 41.6527,15.4987 L 42.6214,15.4987 L 42.6214,0.9687 L 41.6527,0.9687 Z" stroke-width="1px" stroke="#9F9F9F" fill="#9F9F9F"/>
          <path clip-path="url(#clip-745425661)" d="M 42.6214,0.9687 L 42.6214,15.4987 L 43.5900,15.4987 L 43.5900,0.9687 L 42.6214,0.9687 Z" stroke-width="1px" stroke="#A1A1A1" fill="#A1A1A1"/>
          <path clip-path="url(#clip-745425661)" d="M 43.5900,0.9687 L 43.5900,15.4987 L 44.5587,15.4987 L 44.5587,0.9687 L 43.5900,0.9687 Z" stroke-width="1px" stroke="#A2A2A2" fill="#A2A2A2"/>
          <path clip-path="url(#clip-745425661)" d="M 44.5587,0.9687 L 44.5587,15.4987 L 45.5274,15.4987 L 45.5274,0.9687 L 44.5587,0.9687 Z" stroke-width="1px" stroke="#A4A4A4" fill="#A4A4A4"/>
          <path clip-path="url(#clip-745425661)" d="M 45.5274,0.9687 L 45.5274,15.4987 L 46.4960,15.4987 L 46.4960,0.9687 L 45.5274,0.9687 Z" stroke-width="1px" stroke="#A6A6A6" fill="#A6A6A6"/>
          <path clip-path="url(#clip-745425661)" d="M 46.4960,0.9687 L 46.4960,15.4987 L 47.4647,15.4987 L 47.4647,0.9687 L 46.4960,0.9687 Z" stroke-width="1px" stroke="#A7A7A7" fill="#A7A7A7"/>
          <path clip-path="url(#clip-745425661)" d="M 47.4647,0.9687 L 47.4647,15.4987 L 48.4334,15.4987 L 48.4334,0.9687 L 47.4647,0.9687 Z" stroke-width="1px" stroke="#A9A9A9" fill="#A9A9A9"/>
          <path clip-path="url(#clip-745425661)" d="M 48.4334,0.9687 L 48.4334,15.4987 L 49.4020,15.4987 L 49.4020,0.9687 L 48.4334,0.9687 Z" stroke-width="1px" stroke="#ABABAB" fill="#ABABAB"/>
          <path clip-path="url(#clip-745425661)" d="M 49.4020,0.9687 L 49.4020,15.4987 L 50.3707,15.4987 L 50.3707,0.9687 L 49.4020,0.9687 Z" stroke-width="1px" stroke="#ACACAC" fill="#ACACAC"/>
          <path clip-path="url(#clip-745425661)" d="M 50.3707,0.9687 L 50.3707,15.4987 L 51.3394,15.4987 L 51.3394,0.9687 L 50.3707,0.9687 Z" stroke-width="1px" stroke="#AEAEAE" fill="#AEAEAE"/>
          <path clip-path="url(#clip-745425661)" d="M 51.3394,0.9687 L 51.3394,15.4987 L 52.3080,15.4987 L 52.3080,0.9687 L 51.3394,0.9687 Z" stroke-width="1px" stroke="#AFAFAF" fill="#AFAFAF"/>
          <path clip-path="url(#clip-745425661)" d="M 52.3080,0.9687 L 52.3080,15.4987 L 53.2767,15.4987 L 53.2767,0.9687 L 52.3080,0.9687 Z" stroke-width="1px" stroke="#B1B1B1" fill="#B1B1B1"/>
        </g>
        <g transform="matrix(0.0625 0.0000 0.0000 0.0625 0.0000 0.0000)">
          <path d="M 52.3080,0.9687 M 18.4047,126.8954 C 18.4047,227.6368 338.0649,236.3548 435.9003,236.3548 C 533.7356,236.3548 853.3958,227.6368 853.3958,126.8954 C 853.3958,26.1540 533.7356,18.4047 435.9003,18.4047 C 338.0649,18.4047 18.4047,26.1540 18.4047,126.8954 " stroke="#0054A6" stroke-width="11.6240" stroke-linecap="round" stroke-linejoin="round" fill="none"/>
        </g>
        <g transform="matrix(1.0000 0.0000 0.0000 1.0000 0.0000 0.0000)">
</g>
        <g transform="matrix(0.0625 0.0000 0.0000 0.0625 0.0000 0.0000)">
          <path d="M 235.3861,542.4537 C 246.0415,552.1403 260.5715,559.8897 277.0388,563.7643 C 300.2868,567.6390 314.8169,556.9837 314.8169,538.5790 C 314.8169,522.1116 305.1302,510.4876 279.9448,496.9263 C 250.8848,481.4276 233.4488,461.0856 233.4488,435.9003 C 233.4488,407.8089 255.7282,392.3102 290.6002,398.1222 C 309.0048,401.9969 322.5662,407.8089 330.3155,413.6209 C 328.3782,419.4329 326.4409,425.2449 324.5035,431.0569 C 318.6915,427.1823 307.0675,420.4016 290.6002,417.4956 C 265.4148,413.6209 256.6968,426.2136 256.6968,438.8063 C 256.6968,455.2736 267.3522,465.9289 292.5375,480.4590 C 322.5662,496.9263 338.0649,513.3936 338.0649,539.5477 C 338.0649,567.6390 317.7229,590.8870 275.1015,582.1690 C 257.6655,579.2630 239.2608,569.5763 229.5741,560.8583 C 231.5115,555.0463 233.4488,549.2343 235.3861,542.4537 " fill="#0054A6" stroke="none"/>
        </g>
        <g transform="matrix(1.0000 0.0000 0.0000 1.0000 0.0000 0.0000)">
</g>
        <g transform="matrix(0.0625 0.0000 0.0000 0.0625 0.0000 0.0000)">
          <path d="M 526.9550,618.9784 C 502.7383,615.1037 478.5216,608.3230 458.1796,601.5424 C 453.3363,600.5737 450.4303,598.6364 446.5556,598.6364 C 402.9656,597.6677 366.1562,561.8270 366.1562,503.7070 C 366.1562,445.5869 401.9969,411.6836 451.3989,411.6836 C 500.8010,411.6836 532.7670,445.5869 532.7670,499.8323 C 532.7670,546.3283 511.4563,578.2943 481.4276,589.9183 C 481.4276,589.9183 481.4276,590.8870 481.4276,590.8870 C 498.8636,594.7617 519.2056,597.6677 533.7356,599.6050 C 531.7983,606.3857 529.8610,612.1977 526.9550,618.9784 Z M 507.5816,502.7383 C 507.5816,465.9289 489.1770,430.0883 450.4303,431.0569 C 410.7149,431.0569 391.3416,464.9603 391.3416,504.6756 C 391.3416,543.4223 412.6522,580.2317 449.4616,580.2317 C 487.2396,580.2317 507.5816,543.4223 507.5816,502.7383 Z " fill="#0054A6" stroke="none"/>
        </g>
        <g transform="matrix(1.0000 0.0000 0.0000 1.0000 0.0000 0.0000)">
</g>
        <g transform="matrix(0.0625 0.0000 0.0000 0.0625 0.0000 0.0000)">
          <path d="M 569.5763,406.8402 C 577.3257,405.8716 585.0750,404.9029 593.7930,403.9342 C 593.7930,458.1796 593.7930,511.4563 593.7930,565.7017 C 618.9784,561.8270 645.1324,556.0150 670.3177,550.2030 C 670.3177,556.9837 670.3177,563.7643 670.3177,569.5763 C 637.3830,578.2943 603.4797,584.1063 569.5763,587.9810 C 569.5763,527.9236 569.5763,467.8663 569.5763,406.8402 " fill="#0054A6" stroke="none"/>
        </g>
        <g transform="matrix(1.0000 0.0000 0.0000 1.0000 0.0000 0.0000)">
</g>
        <g transform="matrix(0.0625 0.0000 0.0000 0.0625 0.0000 0.0000)">
          <path d="M 138.5194,301.2555 C 123.0207,295.4435 109.4594,288.6628 96.8667,281.8822 L 96.8667,231.5115 C 109.4594,237.3235 123.9894,243.1355 138.5194,247.9788 L 138.5194,301.2555 Z " fill="#0054A6" stroke="none"/>
        </g>
        <g transform="matrix(1.0000 0.0000 0.0000 1.0000 0.0000 0.0000)">
</g>
        <g transform="matrix(0.0625 0.0000 0.0000 0.0625 0.0000 0.0000)">
          <path d="M 138.5194,679.0357 C 123.0207,672.2551 109.4594,665.4744 96.8667,658.6937 L 96.8667,609.2917 C 109.4594,615.1037 123.9894,619.9470 138.5194,625.7590 L 138.5194,679.0357 Z " fill="#0054A6" stroke="none"/>
        </g>
        <g transform="matrix(1.0000 0.0000 0.0000 1.0000 0.0000 0.0000)">
</g>
        <g transform="matrix(0.0625 0.0000 0.0000 0.0625 0.0000 0.0000)">
          <path d="M 731.3438,301.2555 C 746.8424,295.4435 761.3725,288.6628 773.9651,281.8822 L 773.9651,231.5115 C 761.3725,237.3235 746.8424,243.1355 731.3438,247.9788 L 731.3438,301.2555 Z " fill="#0054A6" stroke="none"/>
        </g>
        <g transform="matrix(1.0000 0.0000 0.0000 1.0000 0.0000 0.0000)">
</g>
        <g transform="matrix(0.0625 0.0000 0.0000 0.0625 0.0000 0.0000)">
          <path d="M 731.3438,679.0357 C 746.8424,672.2551 761.3725,665.4744 773.9651,658.6937 L 773.9651,609.2917 C 761.3725,615.1037 746.8424,619.9470 731.3438,625.7590 L 731.3438,679.0357 Z " fill="#0054A6" stroke="none"/>
        </g>
        <g transform="matrix(1.0000 0.0000 0.0000 1.0000 0.0000 0.0000)">
</g>
        <g transform="matrix(0.0625 0.0000 0.0000 0.0625 0.0000 0.0000)">
          <path d="M 211.1695,270.2582 C 226.6681,274.1328 242.1668,278.0075 258.6342,280.9135 L 258.6342,335.1589 C 242.1668,331.2842 226.6681,326.4409 211.1695,321.5975 C 211.1695,321.5975 211.1695,270.2582 211.1695,270.2582 Z " fill="#0054A6" stroke="none"/>
        </g>
        <g transform="matrix(1.0000 0.0000 0.0000 1.0000 0.0000 0.0000)">
</g>
        <g transform="matrix(0.0625 0.0000 0.0000 0.0625 0.0000 0.0000)">
          <path d="M 211.1695,659.6624 C 226.6681,663.5371 242.1668,667.4117 258.6342,670.3177 L 258.6342,723.5944 C 242.1668,719.7198 226.6681,714.8764 211.1695,710.0331 C 211.1695,710.0331 211.1695,659.6624 211.1695,659.6624 Z " fill="#0054A6" stroke="none"/>
        </g>
        <g transform="matrix(1.0000 0.0000 0.0000 1.0000 0.0000 0.0000)">
</g>
        <g transform="matrix(0.0625 0.0000 0.0000 0.0625 0.0000 0.0000)">
          <path d="M 388.4356,293.5062 C 373.9056,293.5062 358.4069,293.5062 341.9395,292.5375 L 341.9395,346.7829 C 357.4382,346.7829 373.9056,346.7829 389.4042,346.7829 C 389.4042,346.7829 389.4042,293.5062 388.4356,293.5062 Z " fill="#0054A6" stroke="none"/>
        </g>
        <g transform="matrix(1.0000 0.0000 0.0000 1.0000 0.0000 0.0000)">
</g>
        <g transform="matrix(0.0625 0.0000 0.0000 0.0625 0.0000 0.0000)">
          <path d="M 388.4356,687.7537 C 373.9056,687.7537 358.4069,687.7537 341.9395,687.7537 L 341.9395,741.0304 C 357.4382,741.9991 373.9056,741.9991 389.4042,741.0304 C 389.4042,741.0304 389.4042,687.7537 388.4356,687.7537 Z " fill="#0054A6" stroke="none"/>
        </g>
        <g transform="matrix(1.0000 0.0000 0.0000 1.0000 0.0000 0.0000)">
</g>
        <g transform="matrix(0.0625 0.0000 0.0000 0.0625 0.0000 0.0000)">
          <path d="M 481.4276,293.5062 C 496.9263,293.5062 512.4250,293.5062 528.8923,292.5375 L 528.8923,346.7829 C 513.3936,346.7829 496.9263,346.7829 481.4276,346.7829 C 481.4276,346.7829 481.4276,293.5062 481.4276,293.5062 Z " fill="#0054A6" stroke="none"/>
        </g>
        <g transform="matrix(1.0000 0.0000 0.0000 1.0000 0.0000 0.0000)">
</g>
        <g transform="matrix(0.0625 0.0000 0.0000 0.0625 0.0000 0.0000)">
          <path d="M 481.4276,687.7537 C 496.9263,687.7537 512.4250,687.7537 528.8923,687.7537 L 528.8923,741.0304 C 513.3936,741.9991 496.9263,741.9991 481.4276,741.0304 C 481.4276,741.0304 481.4276,687.7537 481.4276,687.7537 Z " fill="#0054A6" stroke="none"/>
        </g>
        <g transform="matrix(1.0000 0.0000 0.0000 1.0000 0.0000 0.0000)">
</g>
        <g transform="matrix(0.0625 0.0000 0.0000 0.0625 0.0000 0.0000)">
          <path d="M 612.1977,278.0075 C 627.6964,277.0388 643.1950,275.1015 658.6937,272.1955 L 658.6937,326.4409 C 643.1950,328.3782 627.6964,331.2842 612.1977,333.2215 C 612.1977,333.2215 612.1977,278.0075 612.1977,278.0075 Z " fill="#0054A6" stroke="none"/>
        </g>
        <g transform="matrix(1.0000 0.0000 0.0000 1.0000 0.0000 0.0000)">
</g>
        <g transform="matrix(0.0625 0.0000 0.0000 0.0625 0.0000 0.0000)">
          <path d="M 612.1977,667.4117 C 627.6964,665.4744 643.1950,663.5371 658.6937,661.5997 L 658.6937,714.8764 C 643.1950,717.7824 627.6964,719.7198 612.1977,721.6571 C 612.1977,721.6571 612.1977,667.4117 612.1977,667.4117 Z " fill="#0054A6" stroke="none"/>
        </g>
        <g transform="matrix(1.0000 0.0000 0.0000 1.0000 0.0000 0.0000)">
</g>
      </g>
      <!--emf-blob end-->
    </g>
  </g>
</svg>
