<svg xmlns="http://www.w3.org/2000/svg" xmlns:xlink="http://www.w3.org/1999/xlink" version="1.1" width="86.4000000000" height="7.2000000000">
  <title><![CDATA[Turn left]]></title>
  <g transform=" scale(1.000000) ">
    <path xmlns="http://www.w3.org/2000/svg" d="  M0.1417,-17.0660 L5.9528,-12.6723 L0.0000,-10.9715 L0.1417,-17.0660 Z" style="fill-rule: evenodd; fill: #009fda; "/>
    <path xmlns="http://www.w3.org/2000/svg" d="  M89.2913,14.2569 C89.2913,23.7529 86.5984,32.9655 81.4961,40.9025 C81.0709,41.4695 80.3622,41.6112 79.7953,41.3277 C79.2283,40.9025 79.0866,40.1939 79.5118,39.6270 C84.4724,32.1151 87.0236,23.3277 87.0236,14.2569 C87.0236,-11.3967 66.1890,-32.2313 40.5354,-32.2313 C25.7953,-32.2313 12.1890,-25.4282 3.2598,-13.5226 C2.9764,-12.9557 2.1260,-12.9557 1.7008,-13.2392 C1.1339,-13.6644 0.9921,-14.3730 1.4173,-14.9400 C10.7717,-27.4124 24.9449,-34.4990 40.5354,-34.4990 C67.4646,-34.4990 89.2913,-12.6723 89.2913,14.2569 Z" style="fill-rule: evenodd; fill: #009fda; "/>
    <text xmlns="http://www.w3.org/2000/svg" x="-24.9200" y="3.4875">
      <tspan font-family="Arial" font-size="4.5000" fill="#000000" fill-opacity="1.0000" stroke-opacity="1.0000">
Turn</tspan>
    </text>
    <!--converted by libvisio2svg-->
  </g>
</svg>
