<svg xmlns="http://www.w3.org/2000/svg" xmlns:xlink="http://www.w3.org/1999/xlink" version="1.1" width="86.4000000000" height="7.2000000000">
  <title><![CDATA[Turn right]]></title>
  <g transform=" scale(1.000000) ">
    <path xmlns="http://www.w3.org/2000/svg" d="  M87.7039,-17.0660 L81.8929,-12.6723 L87.8457,-10.9715 L87.7039,-17.0660 Z" style="fill-rule: evenodd; fill: #009fda; "/>
    <path xmlns="http://www.w3.org/2000/svg" d="  M-1.4457,14.2569 C-1.4457,23.7529 1.2472,32.9655 6.3496,40.9025 C6.7748,41.4695 7.4835,41.6112 8.0504,41.3277 C8.6173,40.9025 8.7591,40.1939 8.3339,39.6270 C3.3732,32.1151 0.8220,23.3277 0.8220,14.2569 C0.8220,-11.3967 21.6567,-32.2313 47.3102,-32.2313 C62.0504,-32.2313 75.6567,-25.4282 84.5858,-13.5226 C84.8693,-12.9557 85.7197,-12.9557 86.1449,-13.2392 C86.7118,-13.6644 86.8535,-14.3730 86.4283,-14.9400 C77.0740,-27.4124 62.9008,-34.4990 47.3102,-34.4990 C20.3811,-34.4990 -1.4457,-12.6723 -1.4457,14.2569 Z" style="fill-rule: evenodd; fill: #009fda; "/>
    <text xmlns="http://www.w3.org/2000/svg" x="-24.9200" y="3.4875">
      <tspan font-family="Arial" font-size="4.5000" fill="#000000" fill-opacity="1.0000" stroke-opacity="1.0000">
Turn</tspan>
    </text>
    <!--converted by libvisio2svg-->
  </g>
</svg>
