<svg xmlns="http://www.w3.org/2000/svg" xmlns:xlink="http://www.w3.org/1999/xlink" version="1.1" width="31.1811000000" height="28.3465000000">
  <title><![CDATA[UserAccess Verified users]]></title>
  <g transform=" scale(1.000000) ">
    <text xmlns="http://www.w3.org/2000/svg" x="-10.7931" y="28.3465">
      <tspan font-family="Arial" font-size="4.5000" fill="#000000" fill-opacity="1.0000" stroke-opacity="1.0000">
UserAccess Verified users</tspan>
    </text>
    <!--converted by libvisio2svg-->
    <g transform=" translate(-1.138600,-1.134800) ">
      <!--emf-blob start-->
      <g transform="translate(-0.0000, -0.0000)">
        <path d="M 4.9231,29.5387 C 4.9231,29.5387 3.9385,28.5541 3.9385,28.5541 L 3.9385,28.5541 L 3.9385,1.9692 C 3.9385,1.9692 4.9231,1.9692 4.9231,1.9692 L 4.9231,1.9692 L 1.9692,2.9539 C 1.9692,3.9385 1.9692,3.9385 1.9692,3.9385 L 1.9692,3.9385 L 1.9692,27.5695 C 1.9692,27.5695 1.9692,27.5695 1.9692,27.5695 L 1.9692,27.5695 L 4.9231,29.5387 Z " fill="none" stroke="none"/>
        <defs>
          <clipPath id="clip-1665947468">
            <path d="M 4.9231,29.5387 C 4.9231,29.5387 3.9385,28.5541 3.9385,28.5541 L 3.9385,28.5541 L 3.9385,1.9692 C 3.9385,1.9692 4.9231,1.9692 4.9231,1.9692 L 4.9231,1.9692 L 1.9692,2.9539 C 1.9692,3.9385 1.9692,3.9385 1.9692,3.9385 L 1.9692,3.9385 L 1.9692,27.5695 C 1.9692,27.5695 1.9692,27.5695 1.9692,27.5695 L 1.9692,27.5695 L 4.9231,29.5387 Z"/>
          </clipPath>
        </defs>
        <path clip-path="url(#clip-1665947468)" d="M 0.9846,0.9846 L 0.9846,1.9692 L 4.9231,1.9692 L 4.9231,0.9846 L 0.9846,0.9846 Z" stroke-width="1px" stroke="#63B5E6" fill="#63B5E6"/>
        <path clip-path="url(#clip-1665947468)" d="M 0.9846,1.9692 L 0.9846,2.9539 L 4.9231,2.9539 L 4.9231,1.9692 L 0.9846,1.9692 Z" stroke-width="1px" stroke="#0F88C3" fill="#0F88C3"/>
        <path clip-path="url(#clip-1665947468)" d="M 0.9846,2.9539 L 0.9846,3.9385 L 4.9231,3.9385 L 4.9231,2.9539 L 0.9846,2.9539 Z" stroke-width="1px" stroke="#128AC4" fill="#128AC4"/>
        <path clip-path="url(#clip-1665947468)" d="M 0.9846,3.9385 L 0.9846,4.9231 L 4.9231,4.9231 L 4.9231,3.9385 L 0.9846,3.9385 Z" stroke-width="1px" stroke="#158CC6" fill="#158CC6"/>
        <path clip-path="url(#clip-1665947468)" d="M 0.9846,4.9231 L 0.9846,5.9077 L 4.9231,5.9077 L 4.9231,4.9231 L 0.9846,4.9231 Z" stroke-width="1px" stroke="#188DC7" fill="#188DC7"/>
        <path clip-path="url(#clip-1665947468)" d="M 0.9846,5.9077 L 0.9846,6.8924 L 4.9231,6.8924 L 4.9231,5.9077 L 0.9846,5.9077 Z" stroke-width="1px" stroke="#1B8FC8" fill="#1B8FC8"/>
        <path clip-path="url(#clip-1665947468)" d="M 0.9846,6.8924 L 0.9846,7.8770 L 4.9231,7.8770 L 4.9231,6.8924 L 0.9846,6.8924 Z" stroke-width="1px" stroke="#1E91CA" fill="#1E91CA"/>
        <path clip-path="url(#clip-1665947468)" d="M 0.9846,7.8770 L 0.9846,8.8616 L 4.9231,8.8616 L 4.9231,7.8770 L 0.9846,7.8770 Z" stroke-width="1px" stroke="#2192CB" fill="#2192CB"/>
        <path clip-path="url(#clip-1665947468)" d="M 0.9846,8.8616 L 0.9846,9.8462 L 4.9231,9.8462 L 4.9231,8.8616 L 0.9846,8.8616 Z" stroke-width="1px" stroke="#2494CC" fill="#2494CC"/>
        <path clip-path="url(#clip-1665947468)" d="M 0.9846,9.8462 L 0.9846,10.8309 L 4.9231,10.8309 L 4.9231,9.8462 L 0.9846,9.8462 Z" stroke-width="1px" stroke="#2895CD" fill="#2895CD"/>
        <path clip-path="url(#clip-1665947468)" d="M 0.9846,10.8309 L 0.9846,11.8155 L 4.9231,11.8155 L 4.9231,10.8309 L 0.9846,10.8309 Z" stroke-width="1px" stroke="#2B97CF" fill="#2B97CF"/>
        <path clip-path="url(#clip-1665947468)" d="M 0.9846,11.8155 L 0.9846,12.8001 L 4.9231,12.8001 L 4.9231,11.8155 L 0.9846,11.8155 Z" stroke-width="1px" stroke="#2E98D0" fill="#2E98D0"/>
        <path clip-path="url(#clip-1665947468)" d="M 0.9846,12.8001 L 0.9846,13.7847 L 4.9231,13.7847 L 4.9231,12.8001 L 0.9846,12.8001 Z" stroke-width="1px" stroke="#319AD1" fill="#319AD1"/>
        <path clip-path="url(#clip-1665947468)" d="M 0.9846,13.7847 L 0.9846,14.7694 L 4.9231,14.7694 L 4.9231,13.7847 L 0.9846,13.7847 Z" stroke-width="1px" stroke="#349CD2" fill="#349CD2"/>
        <path clip-path="url(#clip-1665947468)" d="M 0.9846,14.7694 L 0.9846,15.7540 L 4.9231,15.7540 L 4.9231,14.7694 L 0.9846,14.7694 Z" stroke-width="1px" stroke="#379DD4" fill="#379DD4"/>
        <path clip-path="url(#clip-1665947468)" d="M 0.9846,15.7540 L 0.9846,16.7386 L 4.9231,16.7386 L 4.9231,15.7540 L 0.9846,15.7540 Z" stroke-width="1px" stroke="#3A9FD5" fill="#3A9FD5"/>
        <path clip-path="url(#clip-1665947468)" d="M 0.9846,16.7386 L 0.9846,17.7232 L 4.9231,17.7232 L 4.9231,16.7386 L 0.9846,16.7386 Z" stroke-width="1px" stroke="#3EA1D6" fill="#3EA1D6"/>
        <path clip-path="url(#clip-1665947468)" d="M 0.9846,17.7232 L 0.9846,18.7078 L 4.9231,18.7078 L 4.9231,17.7232 L 0.9846,17.7232 Z" stroke-width="1px" stroke="#41A3D8" fill="#41A3D8"/>
        <path clip-path="url(#clip-1665947468)" d="M 0.9846,18.7078 L 0.9846,19.6925 L 4.9231,19.6925 L 4.9231,18.7078 L 0.9846,18.7078 Z" stroke-width="1px" stroke="#43A4D9" fill="#43A4D9"/>
        <path clip-path="url(#clip-1665947468)" d="M 0.9846,19.6925 L 0.9846,20.6771 L 4.9231,20.6771 L 4.9231,19.6925 L 0.9846,19.6925 Z" stroke-width="1px" stroke="#47A6DA" fill="#47A6DA"/>
        <path clip-path="url(#clip-1665947468)" d="M 0.9846,20.6771 L 0.9846,21.6617 L 4.9231,21.6617 L 4.9231,20.6771 L 0.9846,20.6771 Z" stroke-width="1px" stroke="#4AA8DB" fill="#4AA8DB"/>
        <path clip-path="url(#clip-1665947468)" d="M 0.9846,21.6617 L 0.9846,22.6463 L 4.9231,22.6463 L 4.9231,21.6617 L 0.9846,21.6617 Z" stroke-width="1px" stroke="#4DA9DD" fill="#4DA9DD"/>
        <path clip-path="url(#clip-1665947468)" d="M 0.9846,22.6463 L 0.9846,23.6310 L 4.9231,23.6310 L 4.9231,22.6463 L 0.9846,22.6463 Z" stroke-width="1px" stroke="#50ABDE" fill="#50ABDE"/>
        <path clip-path="url(#clip-1665947468)" d="M 0.9846,23.6310 L 0.9846,24.6156 L 4.9231,24.6156 L 4.9231,23.6310 L 0.9846,23.6310 Z" stroke-width="1px" stroke="#54ACDF" fill="#54ACDF"/>
        <path clip-path="url(#clip-1665947468)" d="M 0.9846,24.6156 L 0.9846,25.6002 L 4.9231,25.6002 L 4.9231,24.6156 L 0.9846,24.6156 Z" stroke-width="1px" stroke="#56ADE0" fill="#56ADE0"/>
        <path clip-path="url(#clip-1665947468)" d="M 0.9846,25.6002 L 0.9846,26.5848 L 4.9231,26.5848 L 4.9231,25.6002 L 0.9846,25.6002 Z" stroke-width="1px" stroke="#59AFE2" fill="#59AFE2"/>
        <path clip-path="url(#clip-1665947468)" d="M 0.9846,26.5848 L 0.9846,27.5695 L 4.9231,27.5695 L 4.9231,26.5848 L 0.9846,26.5848 Z" stroke-width="1px" stroke="#5DB1E3" fill="#5DB1E3"/>
        <path clip-path="url(#clip-1665947468)" d="M 0.9846,27.5695 L 0.9846,28.5541 L 4.9231,28.5541 L 4.9231,27.5695 L 0.9846,27.5695 Z" stroke-width="1px" stroke="#60B3E4" fill="#60B3E4"/>
        <path clip-path="url(#clip-1665947468)" d="M 0.9846,28.5541 L 0.9846,29.5387 L 4.9231,29.5387 L 4.9231,28.5541 L 0.9846,28.5541 Z" stroke-width="1px" stroke="#63B4E6" fill="#63B4E6"/>
        <g transform="matrix(0.0625 0.0000 0.0000 0.0625 0.0000 0.0000)">
          <path d="M 70.8929,463.7577 C 65.9698,461.7884 63.0159,456.8653 63.0159,451.9422 L 63.0159,451.9422 L 63.0159,31.5080 C 63.0159,27.5695 65.9698,22.6463 69.9083,20.6771 L 69.9083,20.6771 L 25.6002,46.2773 C 20.6771,48.2466 18.7078,53.1697 18.7078,58.0928 L 18.7078,58.0928 L 18.7078,429.2959 C 18.7078,434.2190 21.6617,439.1421 25.6002,441.1113 L 25.6002,441.1113 L 70.8929,463.7577 " stroke="#0054A6" stroke-width="6.8924" stroke-linecap="round" stroke-linejoin="round" fill="none"/>
        </g>
        <g transform="matrix(1.0000 0.0000 0.0000 1.0000 0.0000 0.0000)">
          <path d="M 4.9231,29.5387 C 4.9231,29.5387 4.9231,29.5387 4.9231,29.5387 L 4.9231,29.5387 L 31.5080,29.5387 C 31.5080,29.5387 32.4926,29.5387 32.4926,28.5541 C 32.4926,28.5541 32.4926,28.5541 32.4926,28.5541 L 32.4926,28.5541 L 32.4926,1.9692 C 32.4926,1.9692 32.4926,1.9692 32.4926,1.9692 C 32.4926,1.9692 31.5080,1.9692 31.5080,1.9692 L 31.5080,1.9692 L 4.9231,1.9692 C 4.9231,1.9692 4.9231,1.9692 4.9231,1.9692 C 4.9231,1.9692 3.9385,1.9692 3.9385,1.9692 L 3.9385,1.9692 L 3.9385,28.5541 C 3.9385,28.5541 4.9231,29.5387 4.9231,29.5387 Z " fill="none" stroke="none"/>
          <defs>
            <clipPath id="clip-619290071">
              <path d="M 4.9231,29.5387 C 4.9231,29.5387 4.9231,29.5387 4.9231,29.5387 L 4.9231,29.5387 L 31.5080,29.5387 C 31.5080,29.5387 32.4926,29.5387 32.4926,28.5541 C 32.4926,28.5541 32.4926,28.5541 32.4926,28.5541 L 32.4926,28.5541 L 32.4926,1.9692 C 32.4926,1.9692 32.4926,1.9692 32.4926,1.9692 C 32.4926,1.9692 31.5080,1.9692 31.5080,1.9692 L 31.5080,1.9692 L 4.9231,1.9692 C 4.9231,1.9692 4.9231,1.9692 4.9231,1.9692 C 4.9231,1.9692 3.9385,1.9692 3.9385,1.9692 L 3.9385,1.9692 L 3.9385,28.5541 C 3.9385,28.5541 4.9231,29.5387 4.9231,29.5387 Z"/>
            </clipPath>
          </defs>
          <path clip-path="url(#clip-619290071)" d="M 3.9385,0.9846 L 3.9385,1.9692 L 32.4926,1.9692 L 32.4926,0.9846 L 3.9385,0.9846 Z" stroke-width="1px" stroke="#64B5E6" fill="#64B5E6"/>
          <path clip-path="url(#clip-619290071)" d="M 3.9385,1.9692 L 3.9385,2.9539 L 32.4926,2.9539 L 32.4926,1.9692 L 3.9385,1.9692 Z" stroke-width="1px" stroke="#1F88CE" fill="#1F88CE"/>
          <path clip-path="url(#clip-619290071)" d="M 3.9385,2.9539 L 3.9385,3.9385 L 32.4926,3.9385 L 32.4926,2.9539 L 3.9385,2.9539 Z" stroke-width="1px" stroke="#218ACF" fill="#218ACF"/>
          <path clip-path="url(#clip-619290071)" d="M 3.9385,3.9385 L 3.9385,4.9231 L 32.4926,4.9231 L 32.4926,3.9385 L 3.9385,3.9385 Z" stroke-width="1px" stroke="#248CD0" fill="#248CD0"/>
          <path clip-path="url(#clip-619290071)" d="M 3.9385,4.9231 L 3.9385,5.9077 L 32.4926,5.9077 L 32.4926,4.9231 L 3.9385,4.9231 Z" stroke-width="1px" stroke="#278ED0" fill="#278ED0"/>
          <path clip-path="url(#clip-619290071)" d="M 3.9385,5.9077 L 3.9385,6.8924 L 32.4926,6.8924 L 32.4926,5.9077 L 3.9385,5.9077 Z" stroke-width="1px" stroke="#298FD1" fill="#298FD1"/>
          <path clip-path="url(#clip-619290071)" d="M 3.9385,6.8924 L 3.9385,7.8770 L 32.4926,7.8770 L 32.4926,6.8924 L 3.9385,6.8924 Z" stroke-width="1px" stroke="#2C91D2" fill="#2C91D2"/>
          <path clip-path="url(#clip-619290071)" d="M 3.9385,7.8770 L 3.9385,8.8616 L 32.4926,8.8616 L 32.4926,7.8770 L 3.9385,7.8770 Z" stroke-width="1px" stroke="#2E93D3" fill="#2E93D3"/>
          <path clip-path="url(#clip-619290071)" d="M 3.9385,8.8616 L 3.9385,9.8462 L 32.4926,9.8462 L 32.4926,8.8616 L 3.9385,8.8616 Z" stroke-width="1px" stroke="#3194D4" fill="#3194D4"/>
          <path clip-path="url(#clip-619290071)" d="M 3.9385,9.8462 L 3.9385,10.8309 L 32.4926,10.8309 L 32.4926,9.8462 L 3.9385,9.8462 Z" stroke-width="1px" stroke="#3395D5" fill="#3395D5"/>
          <path clip-path="url(#clip-619290071)" d="M 3.9385,10.8309 L 3.9385,11.8155 L 32.4926,11.8155 L 32.4926,10.8309 L 3.9385,10.8309 Z" stroke-width="1px" stroke="#3697D6" fill="#3697D6"/>
          <path clip-path="url(#clip-619290071)" d="M 3.9385,11.8155 L 3.9385,12.8001 L 32.4926,12.8001 L 32.4926,11.8155 L 3.9385,11.8155 Z" stroke-width="1px" stroke="#3898D6" fill="#3898D6"/>
          <path clip-path="url(#clip-619290071)" d="M 3.9385,12.8001 L 3.9385,13.7847 L 32.4926,13.7847 L 32.4926,12.8001 L 3.9385,12.8001 Z" stroke-width="1px" stroke="#3B9AD7" fill="#3B9AD7"/>
          <path clip-path="url(#clip-619290071)" d="M 3.9385,13.7847 L 3.9385,14.7694 L 32.4926,14.7694 L 32.4926,13.7847 L 3.9385,13.7847 Z" stroke-width="1px" stroke="#3D9CD9" fill="#3D9CD9"/>
          <path clip-path="url(#clip-619290071)" d="M 3.9385,14.7694 L 3.9385,15.7540 L 32.4926,15.7540 L 32.4926,14.7694 L 3.9385,14.7694 Z" stroke-width="1px" stroke="#409DDA" fill="#409DDA"/>
          <path clip-path="url(#clip-619290071)" d="M 3.9385,15.7540 L 3.9385,16.7386 L 32.4926,16.7386 L 32.4926,15.7540 L 3.9385,15.7540 Z" stroke-width="1px" stroke="#439FDA" fill="#439FDA"/>
          <path clip-path="url(#clip-619290071)" d="M 3.9385,16.7386 L 3.9385,17.7232 L 32.4926,17.7232 L 32.4926,16.7386 L 3.9385,16.7386 Z" stroke-width="1px" stroke="#45A1DB" fill="#45A1DB"/>
          <path clip-path="url(#clip-619290071)" d="M 3.9385,17.7232 L 3.9385,18.7078 L 32.4926,18.7078 L 32.4926,17.7232 L 3.9385,17.7232 Z" stroke-width="1px" stroke="#47A3DC" fill="#47A3DC"/>
          <path clip-path="url(#clip-619290071)" d="M 3.9385,18.7078 L 3.9385,19.6925 L 32.4926,19.6925 L 32.4926,18.7078 L 3.9385,18.7078 Z" stroke-width="1px" stroke="#49A4DD" fill="#49A4DD"/>
          <path clip-path="url(#clip-619290071)" d="M 3.9385,19.6925 L 3.9385,20.6771 L 32.4926,20.6771 L 32.4926,19.6925 L 3.9385,19.6925 Z" stroke-width="1px" stroke="#4CA6DE" fill="#4CA6DE"/>
          <path clip-path="url(#clip-619290071)" d="M 3.9385,20.6771 L 3.9385,21.6617 L 32.4926,21.6617 L 32.4926,20.6771 L 3.9385,20.6771 Z" stroke-width="1px" stroke="#4FA8DE" fill="#4FA8DE"/>
          <path clip-path="url(#clip-619290071)" d="M 3.9385,21.6617 L 3.9385,22.6463 L 32.4926,22.6463 L 32.4926,21.6617 L 3.9385,21.6617 Z" stroke-width="1px" stroke="#51A9E0" fill="#51A9E0"/>
          <path clip-path="url(#clip-619290071)" d="M 3.9385,22.6463 L 3.9385,23.6310 L 32.4926,23.6310 L 32.4926,22.6463 L 3.9385,22.6463 Z" stroke-width="1px" stroke="#54ABE0" fill="#54ABE0"/>
          <path clip-path="url(#clip-619290071)" d="M 3.9385,23.6310 L 3.9385,24.6156 L 32.4926,24.6156 L 32.4926,23.6310 L 3.9385,23.6310 Z" stroke-width="1px" stroke="#56ACE1" fill="#56ACE1"/>
          <path clip-path="url(#clip-619290071)" d="M 3.9385,24.6156 L 3.9385,25.6002 L 32.4926,25.6002 L 32.4926,24.6156 L 3.9385,24.6156 Z" stroke-width="1px" stroke="#59ADE2" fill="#59ADE2"/>
          <path clip-path="url(#clip-619290071)" d="M 3.9385,25.6002 L 3.9385,26.5848 L 32.4926,26.5848 L 32.4926,25.6002 L 3.9385,25.6002 Z" stroke-width="1px" stroke="#5BAFE3" fill="#5BAFE3"/>
          <path clip-path="url(#clip-619290071)" d="M 3.9385,26.5848 L 3.9385,27.5695 L 32.4926,27.5695 L 32.4926,26.5848 L 3.9385,26.5848 Z" stroke-width="1px" stroke="#5EB1E4" fill="#5EB1E4"/>
          <path clip-path="url(#clip-619290071)" d="M 3.9385,27.5695 L 3.9385,28.5541 L 32.4926,28.5541 L 32.4926,27.5695 L 3.9385,27.5695 Z" stroke-width="1px" stroke="#61B2E4" fill="#61B2E4"/>
          <path clip-path="url(#clip-619290071)" d="M 3.9385,28.5541 L 3.9385,29.5387 L 32.4926,29.5387 L 32.4926,28.5541 L 3.9385,28.5541 Z" stroke-width="1px" stroke="#63B4E5" fill="#63B4E5"/>
        </g>
        <g transform="matrix(0.0625 0.0000 0.0000 0.0625 0.0000 0.0000)">
          <path d="M 70.8929,463.7577 C 72.8621,464.7423 74.8314,465.7269 76.8006,465.7269 L 76.8006,465.7269 L 496.2503,465.7269 C 504.1272,465.7269 510.0350,459.8192 510.0350,451.9422 C 510.0350,451.9422 510.0350,451.9422 510.0350,451.9422 L 510.0350,451.9422 L 510.0350,31.5080 C 510.0350,31.5080 510.0350,31.5080 510.0350,30.5233 C 509.0504,23.6310 503.1426,18.7078 496.2503,18.7078 L 496.2503,18.7078 L 76.8006,18.7078 C 73.8468,18.7078 71.8775,18.7078 69.9083,20.6771 C 65.9698,22.6463 63.0159,27.5695 63.0159,31.5080 L 63.0159,31.5080 L 63.0159,451.9422 C 63.0159,456.8653 65.9698,461.7884 70.8929,463.7577 " stroke="#0054A6" stroke-width="6.8924" stroke-linecap="round" stroke-linejoin="round" fill="none"/>
        </g>
        <g transform="matrix(1.0000 0.0000 0.0000 1.0000 0.0000 0.0000)">
</g>
        <g transform="matrix(0.0625 0.0000 0.0000 0.0625 0.0000 0.0000)">
          <path d="M 336.7412,250.0944 L 351.5106,250.0944 L 364.3107,242.2174 L 369.2338,139.8165 C 369.2338,120.1241 352.4952,104.3701 332.8028,104.3701 L 303.2640,104.3701 C 322.9565,89.6007 326.8950,62.0313 312.1257,43.3234 C 297.3563,23.6310 269.7868,19.6925 251.0790,34.4618 C 231.3865,49.2312 227.4480,76.8006 242.2174,95.5085 C 244.1866,99.4470 247.1405,102.4008 251.0790,104.3701 L 251.0790,104.3701 L 223.5095,104.3701 C 203.8171,104.3701 188.0631,120.1241 188.0631,139.8165 L 188.0631,139.8165 L 188.0631,250.0944 L 220.5557,250.0944 L 220.5557,458.8346 L 336.7412,458.8346 L 336.7412,250.0944 Z " fill="#404040" stroke="none"/>
        </g>
        <g transform="matrix(1.0000 0.0000 0.0000 1.0000 0.0000 0.0000)">
</g>
        <g transform="matrix(0.0625 0.0000 0.0000 0.0625 0.0000 0.0000)">
          <path d="M 303.2640,69.9083 C 303.2640,55.1389 290.4639,43.3234 276.6792,43.3234 C 262.8945,43.3234 250.0944,55.1389 250.0944,69.9083 C 250.0944,83.6930 262.8945,96.4931 276.6792,96.4931 C 290.4639,96.4931 303.2640,83.6930 303.2640,69.9083 " fill="#FFFFFF" stroke="none"/>
        </g>
        <g transform="matrix(1.0000 0.0000 0.0000 1.0000 0.0000 0.0000)">
</g>
        <g transform="matrix(0.0625 0.0000 0.0000 0.0625 0.0000 0.0000)">
          <path d="M 286.5254,441.1113 L 319.0180,441.1113 L 319.0180,238.2789 L 336.7412,238.2789 L 351.5106,238.2789 L 351.5106,139.8165 C 351.5106,133.9088 348.5567,129.9703 343.6336,126.0318 C 339.6951,121.1087 333.7874,121.1087 327.8796,121.1087 L 229.4173,121.1087 C 222.5249,121.1087 216.6172,121.1087 212.6787,126.0318 C 207.7556,129.9703 205.7863,133.9088 205.7863,139.8165 L 205.7863,233.3558 L 238.2789,233.3558 L 238.2789,441.1113 L 267.8176,441.1113 L 267.8176,321.9719 L 286.5254,321.9719 L 286.5254,441.1113 Z M 336.7412,238.2789 L 336.7412,238.2789 L 336.7412,238.2789 Z " fill="#FFFFFF" stroke="none"/>
        </g>
        <g transform="matrix(1.0000 0.0000 0.0000 1.0000 0.0000 0.0000)">
</g>
        <g transform="matrix(0.0625 0.0000 0.0000 0.0625 0.0000 0.0000)">
          <path d="M 471.6347,99.4470 L 414.5265,57.1082 L 222.5249,311.1410 L 154.5859,236.3096 L 101.4162,299.3256 L 220.5557,430.2805 L 471.6347,99.4470 Z" stroke-width="1px" stroke="#74B74A" fill="#74B74A"/>
        </g>
        <g transform="matrix(1.0000 0.0000 0.0000 1.0000 0.0000 0.0000)">
</g>
        <g transform="matrix(0.0625 0.0000 0.0000 0.0625 0.0000 0.0000)">
          <path d="M 471.6347,99.4470 L 414.5265,57.1082 L 222.5249,311.1410 L 154.5859,236.3096 L 101.4162,299.3256 L 220.5557,430.2805 L 471.6347,99.4470 Z" stroke="#0054A6" stroke-width="10.8309" stroke-linecap="round" stroke-linejoin="round" fill="none"/>
        </g>
        <g transform="matrix(1.0000 0.0000 0.0000 1.0000 0.0000 0.0000)">
</g>
      </g>
      <!--emf-blob end-->
    </g>
  </g>
</svg>
