<svg xmlns="http://www.w3.org/2000/svg" xmlns:xlink="http://www.w3.org/1999/xlink" version="1.1" width="47.8488000000" height="32.4000000000">
  <title><![CDATA[Windows App V1]]></title>
  <g transform=" scale(1.000000) ">
    <text xmlns="http://www.w3.org/2000/svg" x="6.7912" y="32.3999" transform="rotate(0.0002, 23.9244, 36.0999)">
      <tspan font-family="Arial" font-size="4.5000" fill="#000000" fill-opacity="1.0000" stroke-opacity="1.0000">
Windows App V1</tspan>
    </text>
    <!--converted by libvisio2svg-->
    <g transform=" translate(23.9295, 15.9306)  scale(1, 1)  rotate(0.0002)  translate(-23.9295, -15.9306)  translate(-1.199700,-1.800100) ">
      <!--emf-blob start-->
      <g transform="translate(0.9332, 0.9332)">
        <g transform="matrix(0.0625 0.0000 0.0000 0.0625 0.0000 0.0000)">
          <path d="M 18.6639,18.6639 L 18.6639,512.3239 L 733.4911,512.3239 L 733.4911,18.6639 L 18.6639,18.6639 Z" stroke-width="1px" stroke="#FFFFFF" fill="#FFFFFF"/>
        </g>
        <g transform="matrix(1.0000 0.0000 0.0000 1.0000 0.0000 0.0000)">
</g>
        <g transform="matrix(0.0625 0.0000 0.0000 0.0625 0.0000 0.0000)">
          <path d="M 18.6639,512.3239 L 733.4911,512.3239 L 733.4911,18.6639 L 18.6639,18.6639 L 18.6639,512.3239 Z" stroke="#0054A6" stroke-width="22.3967" stroke-linecap="round" stroke-linejoin="round" fill="none"/>
        </g>
        <g transform="matrix(1.0000 0.0000 0.0000 1.0000 0.0000 0.0000)">
</g>
        <g transform="matrix(0.0625 0.0000 0.0000 0.0625 0.0000 0.0000)">
          <path d="M 39.1942,41.0606 L 39.1942,82.1211 L 711.0944,82.1211 L 711.0944,41.0606 L 39.1942,41.0606 Z" stroke-width="1px" stroke="#1A1A1A" fill="#1A1A1A"/>
        </g>
        <g transform="matrix(1.0000 0.0000 0.0000 1.0000 0.0000 0.0000)">
</g>
        <g transform="matrix(0.0625 0.0000 0.0000 0.0625 0.0000 0.0000)">
          <path d="M 674.6998,49.4593 L 674.6998,74.6556 L 699.8961,74.6556 L 699.8961,49.4593 L 674.6998,49.4593 Z" stroke-width="1px" stroke="#FFFFFF" fill="#FFFFFF"/>
        </g>
        <g transform="matrix(1.0000 0.0000 0.0000 1.0000 0.0000 0.0000)">
</g>
        <g transform="matrix(0.0625 0.0000 0.0000 0.0625 0.0000 0.0000)">
          <path d="M 527.2550,307.0211 C 527.2550,307.0211 434.8687,346.2152 374.2111,293.9563 L 333.1505,430.2028 C 333.1505,430.2028 398.4742,484.3281 489.9272,441.4011 L 527.2550,307.0211 Z " fill="#FBB040" stroke="none"/>
        </g>
        <g transform="matrix(1.0000 0.0000 0.0000 1.0000 0.0000 0.0000)">
</g>
        <g transform="matrix(0.0625 0.0000 0.0000 0.0625 0.0000 0.0000)">
          <path d="M 358.3468,283.6912 C 358.3468,283.6912 298.6223,234.2319 211.8352,276.2256 L 171.7078,411.5389 C 171.7078,411.5389 244.4970,368.6119 317.2862,419.0044 L 358.3468,283.6912 Z " fill="#1C75BC" stroke="none"/>
        </g>
        <g transform="matrix(1.0000 0.0000 0.0000 1.0000 0.0000 0.0000)">
</g>
        <g transform="matrix(0.0625 0.0000 0.0000 0.0625 0.0000 0.0000)">
          <path d="M 404.0733,128.7809 C 404.0733,128.7809 344.3489,79.3216 257.5617,121.3153 L 217.4344,257.5617 C 217.4344,257.5617 291.1568,213.7016 363.0128,265.0273 L 404.0733,128.7809 Z " fill="#E44145" stroke="none"/>
        </g>
        <g transform="matrix(1.0000 0.0000 0.0000 1.0000 0.0000 0.0000)">
</g>
        <g transform="matrix(0.0625 0.0000 0.0000 0.0625 0.0000 0.0000)">
          <path d="M 570.1820,153.0439 C 570.1820,153.0439 477.7957,192.2381 417.1380,139.9792 L 377.0107,275.2924 C 377.0107,275.2924 442.3343,329.4177 533.7874,286.4908 L 570.1820,153.0439 Z " fill="#74B74A" stroke="none"/>
        </g>
        <g transform="matrix(1.0000 0.0000 0.0000 1.0000 0.0000 0.0000)">
</g>
        <g transform="matrix(0.0625 0.0000 0.0000 0.0625 0.0000 0.0000)">
          <path d="M 534.7206,433.9356 C 541.2529,433.9356 547.7853,427.4032 547.7853,419.9376 C 547.7853,412.4721 541.2529,406.8729 534.7206,406.8729 C 527.2550,406.8729 520.7227,412.4721 520.7227,419.9376 C 520.7227,427.4032 527.2550,433.9356 534.7206,433.9356 " fill="#666666" stroke="none"/>
        </g>
        <g transform="matrix(1.0000 0.0000 0.0000 1.0000 0.0000 0.0000)">
</g>
      </g>
      <!--emf-blob end-->
    </g>
  </g>
</svg>
