<svg xmlns="http://www.w3.org/2000/svg" xmlns:xlink="http://www.w3.org/1999/xlink" version="1.1" width="3.8250000000" height="16.6500000000">
  <title><![CDATA[Module Slot Cover]]></title>
  <g transform=" scale(1.000000) ">
    <!--converted by libvisio2svg-->
    <g transform=" translate(-2.061000,-0.148500) ">
      <!--emf-blob start-->
      <g transform="translate(-0.0000, -0.0000)">
        <g transform="matrix(0.0625 0.0000 0.0000 0.0625 0.0000 0.0000)">
          <path d="M 11.6165,268.6045 L 54.3355,268.6045 C 59.4317,268.6045 63.5537,264.4825 63.5537,259.3862 C 63.5537,259.3862 63.5537,259.3862 63.5537,259.3862 L 63.5537,11.6165 C 63.5537,6.5203 59.4317,2.3983 54.3355,2.3983 L 54.3355,2.3983 L 11.6165,2.3983 C 6.5203,2.3983 2.3983,6.5203 2.3983,11.6165 L 2.3983,11.6165 L 2.3983,259.3862 C 2.3983,264.4825 6.5203,268.6045 11.6165,268.6045 Z " fill="#BFBFBF" stroke="none"/>
        </g>
        <g transform="matrix(1.0000 0.0000 0.0000 1.0000 0.0000 0.0000)">
</g>
        <g transform="matrix(0.0625 0.0000 0.0000 0.0625 0.0000 0.0000)">
          <path d="M 11.6165,268.6045 L 54.3355,268.6045 C 59.4317,268.6045 63.5537,264.4825 63.5537,259.3862 C 63.5537,259.3862 63.5537,259.3862 63.5537,259.3862 L 63.5537,11.6165 C 63.5537,6.5203 59.4317,2.3983 54.3355,2.3983 L 54.3355,2.3983 L 11.6165,2.3983 C 6.5203,2.3983 2.3983,6.5203 2.3983,11.6165 L 2.3983,11.6165 L 2.3983,259.3862 C 2.3983,264.4825 6.5203,268.6045 11.6165,268.6045 Z " stroke="#8C8C8C" stroke-width="1.1242" stroke-linecap="round" stroke-linejoin="round" fill="none"/>
        </g>
        <g transform="matrix(1.0000 0.0000 0.0000 1.0000 0.0000 0.0000)">
</g>
        <g transform="matrix(0.0625 0.0000 0.0000 0.0625 0.0000 0.0000)">
          <path d="M 53.9607,179.0447 C 58.7572,179.0447 62.5795,175.1475 62.5795,170.3510 C 62.5795,165.6295 58.7572,161.7323 53.9607,161.7323 C 49.1642,161.7323 45.3420,165.6295 45.3420,170.3510 C 45.3420,175.1475 49.1642,179.0447 53.9607,179.0447 " fill="#262626" stroke="none"/>
        </g>
        <g transform="matrix(1.0000 0.0000 0.0000 1.0000 0.0000 0.0000)">
</g>
        <g transform="matrix(0.0625 0.0000 0.0000 0.0625 0.0000 0.0000)">
          <path d="M 53.9607,179.0447 M 53.9607,179.0447 C 58.7572,179.0447 62.5795,175.1475 62.5795,170.3510 C 62.5795,165.6295 58.7572,161.7323 53.9607,161.7323 C 49.1642,161.7323 45.3420,165.6295 45.3420,170.3510 C 45.3420,175.1475 49.1642,179.0447 53.9607,179.0447 " stroke="#BFBFBF" stroke-width="0.3747" stroke-linecap="round" stroke-linejoin="round" fill="none"/>
        </g>
        <g transform="matrix(1.0000 0.0000 0.0000 1.0000 0.0000 0.0000)">
</g>
        <g transform="matrix(0.0625 0.0000 0.0000 0.0625 0.0000 0.0000)">
          <path d="M 53.9607,201.2285 C 58.7572,201.2285 62.5795,197.4063 62.5795,192.6098 C 62.5795,187.8883 58.7572,183.9911 53.9607,183.9911 C 49.1642,183.9911 45.3420,187.8883 45.3420,192.6098 C 45.3420,197.4063 49.1642,201.2285 53.9607,201.2285 " fill="#262626" stroke="none"/>
        </g>
        <g transform="matrix(1.0000 0.0000 0.0000 1.0000 0.0000 0.0000)">
</g>
        <g transform="matrix(0.0625 0.0000 0.0000 0.0625 0.0000 0.0000)">
          <path d="M 53.9607,201.2285 M 53.9607,201.2285 C 58.7572,201.2285 62.5795,197.4063 62.5795,192.6098 C 62.5795,187.8883 58.7572,183.9911 53.9607,183.9911 C 49.1642,183.9911 45.3420,187.8883 45.3420,192.6098 C 45.3420,197.4063 49.1642,201.2285 53.9607,201.2285 " stroke="#BFBFBF" stroke-width="0.3747" stroke-linecap="round" stroke-linejoin="round" fill="none"/>
        </g>
        <g transform="matrix(1.0000 0.0000 0.0000 1.0000 0.0000 0.0000)">
</g>
        <g transform="matrix(0.0625 0.0000 0.0000 0.0625 0.0000 0.0000)">
          <path d="M 53.9607,223.4873 C 58.7572,223.4873 62.5795,219.6651 62.5795,214.8686 C 62.5795,210.0721 58.7572,206.2499 53.9607,206.2499 C 49.1642,206.2499 45.3420,210.0721 45.3420,214.8686 C 45.3420,219.6651 49.1642,223.4873 53.9607,223.4873 " fill="#262626" stroke="none"/>
        </g>
        <g transform="matrix(1.0000 0.0000 0.0000 1.0000 0.0000 0.0000)">
</g>
        <g transform="matrix(0.0625 0.0000 0.0000 0.0625 0.0000 0.0000)">
          <path d="M 53.9607,223.4873 M 53.9607,223.4873 C 58.7572,223.4873 62.5795,219.6651 62.5795,214.8686 C 62.5795,210.0721 58.7572,206.2499 53.9607,206.2499 C 49.1642,206.2499 45.3420,210.0721 45.3420,214.8686 C 45.3420,219.6651 49.1642,223.4873 53.9607,223.4873 " stroke="#BFBFBF" stroke-width="0.3747" stroke-linecap="round" stroke-linejoin="round" fill="none"/>
        </g>
        <g transform="matrix(1.0000 0.0000 0.0000 1.0000 0.0000 0.0000)">
</g>
        <g transform="matrix(0.0625 0.0000 0.0000 0.0625 0.0000 0.0000)">
          <path d="M 53.9607,112.2683 C 58.7572,112.2683 62.5795,108.3711 62.5795,103.6496 C 62.5795,98.8531 58.7572,95.0308 53.9607,95.0308 C 49.1642,95.0308 45.3420,98.8531 45.3420,103.6496 C 45.3420,108.3711 49.1642,112.2683 53.9607,112.2683 " fill="#262626" stroke="none"/>
        </g>
        <g transform="matrix(1.0000 0.0000 0.0000 1.0000 0.0000 0.0000)">
</g>
        <g transform="matrix(0.0625 0.0000 0.0000 0.0625 0.0000 0.0000)">
          <path d="M 53.9607,112.2683 M 53.9607,112.2683 C 58.7572,112.2683 62.5795,108.3711 62.5795,103.6496 C 62.5795,98.8531 58.7572,95.0308 53.9607,95.0308 C 49.1642,95.0308 45.3420,98.8531 45.3420,103.6496 C 45.3420,108.3711 49.1642,112.2683 53.9607,112.2683 " stroke="#BFBFBF" stroke-width="0.3747" stroke-linecap="round" stroke-linejoin="round" fill="none"/>
        </g>
        <g transform="matrix(1.0000 0.0000 0.0000 1.0000 0.0000 0.0000)">
</g>
        <g transform="matrix(0.0625 0.0000 0.0000 0.0625 0.0000 0.0000)">
          <path d="M 53.9607,134.5271 C 58.7572,134.5271 62.5795,130.6299 62.5795,125.9084 C 62.5795,121.1119 58.7572,117.2147 53.9607,117.2147 C 49.1642,117.2147 45.3420,121.1119 45.3420,125.9084 C 45.3420,130.6299 49.1642,134.5271 53.9607,134.5271 " fill="#262626" stroke="none"/>
        </g>
        <g transform="matrix(1.0000 0.0000 0.0000 1.0000 0.0000 0.0000)">
</g>
        <g transform="matrix(0.0625 0.0000 0.0000 0.0625 0.0000 0.0000)">
          <path d="M 53.9607,134.5271 M 53.9607,134.5271 C 58.7572,134.5271 62.5795,130.6299 62.5795,125.9084 C 62.5795,121.1119 58.7572,117.2147 53.9607,117.2147 C 49.1642,117.2147 45.3420,121.1119 45.3420,125.9084 C 45.3420,130.6299 49.1642,134.5271 53.9607,134.5271 " stroke="#BFBFBF" stroke-width="0.3747" stroke-linecap="round" stroke-linejoin="round" fill="none"/>
        </g>
        <g transform="matrix(1.0000 0.0000 0.0000 1.0000 0.0000 0.0000)">
</g>
        <g transform="matrix(0.0625 0.0000 0.0000 0.0625 0.0000 0.0000)">
          <path d="M 53.9607,156.7859 C 58.7572,156.7859 62.5795,152.8887 62.5795,148.0922 C 62.5795,143.3707 58.7572,139.4735 53.9607,139.4735 C 49.1642,139.4735 45.3420,143.3707 45.3420,148.0922 C 45.3420,152.8887 49.1642,156.7859 53.9607,156.7859 " fill="#262626" stroke="none"/>
        </g>
        <g transform="matrix(1.0000 0.0000 0.0000 1.0000 0.0000 0.0000)">
</g>
        <g transform="matrix(0.0625 0.0000 0.0000 0.0625 0.0000 0.0000)">
          <path d="M 53.9607,156.7859 M 53.9607,156.7859 C 58.7572,156.7859 62.5795,152.8887 62.5795,148.0922 C 62.5795,143.3707 58.7572,139.4735 53.9607,139.4735 C 49.1642,139.4735 45.3420,143.3707 45.3420,148.0922 C 45.3420,152.8887 49.1642,156.7859 53.9607,156.7859 " stroke="#BFBFBF" stroke-width="0.3747" stroke-linecap="round" stroke-linejoin="round" fill="none"/>
        </g>
        <g transform="matrix(1.0000 0.0000 0.0000 1.0000 0.0000 0.0000)">
</g>
        <g transform="matrix(0.0625 0.0000 0.0000 0.0625 0.0000 0.0000)">
          <path d="M 53.9607,23.3080 C 58.7572,23.3080 62.5795,19.4109 62.5795,14.6144 C 62.5795,9.8928 58.7572,5.9956 53.9607,5.9956 C 49.1642,5.9956 45.3420,9.8928 45.3420,14.6144 C 45.3420,19.4109 49.1642,23.3080 53.9607,23.3080 " fill="#262626" stroke="none"/>
        </g>
        <g transform="matrix(1.0000 0.0000 0.0000 1.0000 0.0000 0.0000)">
</g>
        <g transform="matrix(0.0625 0.0000 0.0000 0.0625 0.0000 0.0000)">
          <path d="M 53.9607,23.3080 M 53.9607,23.3080 C 58.7572,23.3080 62.5795,19.4109 62.5795,14.6144 C 62.5795,9.8928 58.7572,5.9956 53.9607,5.9956 C 49.1642,5.9956 45.3420,9.8928 45.3420,14.6144 C 45.3420,19.4109 49.1642,23.3080 53.9607,23.3080 " stroke="#BFBFBF" stroke-width="0.3747" stroke-linecap="round" stroke-linejoin="round" fill="none"/>
        </g>
        <g transform="matrix(1.0000 0.0000 0.0000 1.0000 0.0000 0.0000)">
</g>
        <g transform="matrix(0.0625 0.0000 0.0000 0.0625 0.0000 0.0000)">
          <path d="M 53.9607,67.7507 C 58.7572,67.7507 62.5795,63.9285 62.5795,59.1320 C 62.5795,54.3355 58.7572,50.5132 53.9607,50.5132 C 49.1642,50.5132 45.3420,54.3355 45.3420,59.1320 C 45.3420,63.9285 49.1642,67.7507 53.9607,67.7507 " fill="#262626" stroke="none"/>
        </g>
        <g transform="matrix(1.0000 0.0000 0.0000 1.0000 0.0000 0.0000)">
</g>
        <g transform="matrix(0.0625 0.0000 0.0000 0.0625 0.0000 0.0000)">
          <path d="M 53.9607,67.7507 M 53.9607,67.7507 C 58.7572,67.7507 62.5795,63.9285 62.5795,59.1320 C 62.5795,54.3355 58.7572,50.5132 53.9607,50.5132 C 49.1642,50.5132 45.3420,54.3355 45.3420,59.1320 C 45.3420,63.9285 49.1642,67.7507 53.9607,67.7507 " stroke="#BFBFBF" stroke-width="0.3747" stroke-linecap="round" stroke-linejoin="round" fill="none"/>
        </g>
        <g transform="matrix(1.0000 0.0000 0.0000 1.0000 0.0000 0.0000)">
</g>
        <g transform="matrix(0.0625 0.0000 0.0000 0.0625 0.0000 0.0000)">
          <path d="M 53.9607,90.0095 C 58.7572,90.0095 62.5795,86.1873 62.5795,81.3908 C 62.5795,76.5943 58.7572,72.7720 53.9607,72.7720 C 49.1642,72.7720 45.3420,76.5943 45.3420,81.3908 C 45.3420,86.1873 49.1642,90.0095 53.9607,90.0095 " fill="#262626" stroke="none"/>
        </g>
        <g transform="matrix(1.0000 0.0000 0.0000 1.0000 0.0000 0.0000)">
</g>
        <g transform="matrix(0.0625 0.0000 0.0000 0.0625 0.0000 0.0000)">
          <path d="M 53.9607,90.0095 M 53.9607,90.0095 C 58.7572,90.0095 62.5795,86.1873 62.5795,81.3908 C 62.5795,76.5943 58.7572,72.7720 53.9607,72.7720 C 49.1642,72.7720 45.3420,76.5943 45.3420,81.3908 C 45.3420,86.1873 49.1642,90.0095 53.9607,90.0095 " stroke="#BFBFBF" stroke-width="0.3747" stroke-linecap="round" stroke-linejoin="round" fill="none"/>
        </g>
        <g transform="matrix(1.0000 0.0000 0.0000 1.0000 0.0000 0.0000)">
</g>
        <g transform="matrix(0.0625 0.0000 0.0000 0.0625 0.0000 0.0000)">
          <path d="M 53.9607,45.4919 C 58.7572,45.4919 62.5795,41.6697 62.5795,36.8732 C 62.5795,32.1516 58.7572,28.2544 53.9607,28.2544 C 49.1642,28.2544 45.3420,32.1516 45.3420,36.8732 C 45.3420,41.6697 49.1642,45.4919 53.9607,45.4919 " fill="#262626" stroke="none"/>
        </g>
        <g transform="matrix(1.0000 0.0000 0.0000 1.0000 0.0000 0.0000)">
</g>
        <g transform="matrix(0.0625 0.0000 0.0000 0.0625 0.0000 0.0000)">
          <path d="M 53.9607,45.4919 M 53.9607,45.4919 C 58.7572,45.4919 62.5795,41.6697 62.5795,36.8732 C 62.5795,32.1516 58.7572,28.2544 53.9607,28.2544 C 49.1642,28.2544 45.3420,32.1516 45.3420,36.8732 C 45.3420,41.6697 49.1642,45.4919 53.9607,45.4919 " stroke="#BFBFBF" stroke-width="0.3747" stroke-linecap="round" stroke-linejoin="round" fill="none"/>
        </g>
        <g transform="matrix(1.0000 0.0000 0.0000 1.0000 0.0000 0.0000)">
</g>
        <g transform="matrix(0.0625 0.0000 0.0000 0.0625 0.0000 0.0000)">
          <path d="M 11.9913,179.0447 C 16.7878,179.0447 20.6100,175.1475 20.6100,170.3510 C 20.6100,165.6295 16.7878,161.7323 11.9913,161.7323 C 7.2697,161.7323 3.3725,165.6295 3.3725,170.3510 C 3.3725,175.1475 7.2697,179.0447 11.9913,179.0447 " fill="#262626" stroke="none"/>
        </g>
        <g transform="matrix(1.0000 0.0000 0.0000 1.0000 0.0000 0.0000)">
</g>
        <g transform="matrix(0.0625 0.0000 0.0000 0.0625 0.0000 0.0000)">
          <path d="M 11.9913,179.0447 M 11.9913,179.0447 C 16.7878,179.0447 20.6100,175.1475 20.6100,170.3510 C 20.6100,165.6295 16.7878,161.7323 11.9913,161.7323 C 7.2697,161.7323 3.3725,165.6295 3.3725,170.3510 C 3.3725,175.1475 7.2697,179.0447 11.9913,179.0447 " stroke="#BFBFBF" stroke-width="0.3747" stroke-linecap="round" stroke-linejoin="round" fill="none"/>
        </g>
        <g transform="matrix(1.0000 0.0000 0.0000 1.0000 0.0000 0.0000)">
</g>
        <g transform="matrix(0.0625 0.0000 0.0000 0.0625 0.0000 0.0000)">
          <path d="M 11.9913,201.2285 C 16.7878,201.2285 20.6100,197.4063 20.6100,192.6098 C 20.6100,187.8883 16.7878,183.9911 11.9913,183.9911 C 7.2697,183.9911 3.3725,187.8883 3.3725,192.6098 C 3.3725,197.4063 7.2697,201.2285 11.9913,201.2285 " fill="#262626" stroke="none"/>
        </g>
        <g transform="matrix(1.0000 0.0000 0.0000 1.0000 0.0000 0.0000)">
</g>
        <g transform="matrix(0.0625 0.0000 0.0000 0.0625 0.0000 0.0000)">
          <path d="M 11.9913,201.2285 M 11.9913,201.2285 C 16.7878,201.2285 20.6100,197.4063 20.6100,192.6098 C 20.6100,187.8883 16.7878,183.9911 11.9913,183.9911 C 7.2697,183.9911 3.3725,187.8883 3.3725,192.6098 C 3.3725,197.4063 7.2697,201.2285 11.9913,201.2285 " stroke="#BFBFBF" stroke-width="0.3747" stroke-linecap="round" stroke-linejoin="round" fill="none"/>
        </g>
        <g transform="matrix(1.0000 0.0000 0.0000 1.0000 0.0000 0.0000)">
</g>
        <g transform="matrix(0.0625 0.0000 0.0000 0.0625 0.0000 0.0000)">
          <path d="M 11.9913,223.4873 C 16.7878,223.4873 20.6100,219.6651 20.6100,214.8686 C 20.6100,210.0721 16.7878,206.2499 11.9913,206.2499 C 7.2697,206.2499 3.3725,210.0721 3.3725,214.8686 C 3.3725,219.6651 7.2697,223.4873 11.9913,223.4873 " fill="#262626" stroke="none"/>
        </g>
        <g transform="matrix(1.0000 0.0000 0.0000 1.0000 0.0000 0.0000)">
</g>
        <g transform="matrix(0.0625 0.0000 0.0000 0.0625 0.0000 0.0000)">
          <path d="M 11.9913,223.4873 M 11.9913,223.4873 C 16.7878,223.4873 20.6100,219.6651 20.6100,214.8686 C 20.6100,210.0721 16.7878,206.2499 11.9913,206.2499 C 7.2697,206.2499 3.3725,210.0721 3.3725,214.8686 C 3.3725,219.6651 7.2697,223.4873 11.9913,223.4873 " stroke="#BFBFBF" stroke-width="0.3747" stroke-linecap="round" stroke-linejoin="round" fill="none"/>
        </g>
        <g transform="matrix(1.0000 0.0000 0.0000 1.0000 0.0000 0.0000)">
</g>
        <g transform="matrix(0.0625 0.0000 0.0000 0.0625 0.0000 0.0000)">
          <path d="M 11.9913,112.2683 C 16.7878,112.2683 20.6100,108.3711 20.6100,103.6496 C 20.6100,98.8531 16.7878,95.0308 11.9913,95.0308 C 7.2697,95.0308 3.3725,98.8531 3.3725,103.6496 C 3.3725,108.3711 7.2697,112.2683 11.9913,112.2683 " fill="#262626" stroke="none"/>
        </g>
        <g transform="matrix(1.0000 0.0000 0.0000 1.0000 0.0000 0.0000)">
</g>
        <g transform="matrix(0.0625 0.0000 0.0000 0.0625 0.0000 0.0000)">
          <path d="M 11.9913,112.2683 M 11.9913,112.2683 C 16.7878,112.2683 20.6100,108.3711 20.6100,103.6496 C 20.6100,98.8531 16.7878,95.0308 11.9913,95.0308 C 7.2697,95.0308 3.3725,98.8531 3.3725,103.6496 C 3.3725,108.3711 7.2697,112.2683 11.9913,112.2683 " stroke="#BFBFBF" stroke-width="0.3747" stroke-linecap="round" stroke-linejoin="round" fill="none"/>
        </g>
        <g transform="matrix(1.0000 0.0000 0.0000 1.0000 0.0000 0.0000)">
</g>
        <g transform="matrix(0.0625 0.0000 0.0000 0.0625 0.0000 0.0000)">
          <path d="M 11.9913,134.5271 C 16.7878,134.5271 20.6100,130.6299 20.6100,125.9084 C 20.6100,121.1119 16.7878,117.2147 11.9913,117.2147 C 7.2697,117.2147 3.3725,121.1119 3.3725,125.9084 C 3.3725,130.6299 7.2697,134.5271 11.9913,134.5271 " fill="#262626" stroke="none"/>
        </g>
        <g transform="matrix(1.0000 0.0000 0.0000 1.0000 0.0000 0.0000)">
</g>
        <g transform="matrix(0.0625 0.0000 0.0000 0.0625 0.0000 0.0000)">
          <path d="M 11.9913,134.5271 M 11.9913,134.5271 C 16.7878,134.5271 20.6100,130.6299 20.6100,125.9084 C 20.6100,121.1119 16.7878,117.2147 11.9913,117.2147 C 7.2697,117.2147 3.3725,121.1119 3.3725,125.9084 C 3.3725,130.6299 7.2697,134.5271 11.9913,134.5271 " stroke="#BFBFBF" stroke-width="0.3747" stroke-linecap="round" stroke-linejoin="round" fill="none"/>
        </g>
        <g transform="matrix(1.0000 0.0000 0.0000 1.0000 0.0000 0.0000)">
</g>
        <g transform="matrix(0.0625 0.0000 0.0000 0.0625 0.0000 0.0000)">
          <path d="M 11.9913,156.7859 C 16.7878,156.7859 20.6100,152.8887 20.6100,148.0922 C 20.6100,143.3707 16.7878,139.4735 11.9913,139.4735 C 7.2697,139.4735 3.3725,143.3707 3.3725,148.0922 C 3.3725,152.8887 7.2697,156.7859 11.9913,156.7859 " fill="#262626" stroke="none"/>
        </g>
        <g transform="matrix(1.0000 0.0000 0.0000 1.0000 0.0000 0.0000)">
</g>
        <g transform="matrix(0.0625 0.0000 0.0000 0.0625 0.0000 0.0000)">
          <path d="M 11.9913,156.7859 M 11.9913,156.7859 C 16.7878,156.7859 20.6100,152.8887 20.6100,148.0922 C 20.6100,143.3707 16.7878,139.4735 11.9913,139.4735 C 7.2697,139.4735 3.3725,143.3707 3.3725,148.0922 C 3.3725,152.8887 7.2697,156.7859 11.9913,156.7859 " stroke="#BFBFBF" stroke-width="0.3747" stroke-linecap="round" stroke-linejoin="round" fill="none"/>
        </g>
        <g transform="matrix(1.0000 0.0000 0.0000 1.0000 0.0000 0.0000)">
</g>
        <g transform="matrix(0.0625 0.0000 0.0000 0.0625 0.0000 0.0000)">
          <path d="M 11.9913,23.3080 C 16.7878,23.3080 20.6100,19.4109 20.6100,14.6144 C 20.6100,9.8928 16.7878,5.9956 11.9913,5.9956 C 7.2697,5.9956 3.3725,9.8928 3.3725,14.6144 C 3.3725,19.4109 7.2697,23.3080 11.9913,23.3080 " fill="#262626" stroke="none"/>
        </g>
        <g transform="matrix(1.0000 0.0000 0.0000 1.0000 0.0000 0.0000)">
</g>
        <g transform="matrix(0.0625 0.0000 0.0000 0.0625 0.0000 0.0000)">
          <path d="M 11.9913,23.3080 M 11.9913,23.3080 C 16.7878,23.3080 20.6100,19.4109 20.6100,14.6144 C 20.6100,9.8928 16.7878,5.9956 11.9913,5.9956 C 7.2697,5.9956 3.3725,9.8928 3.3725,14.6144 C 3.3725,19.4109 7.2697,23.3080 11.9913,23.3080 " stroke="#BFBFBF" stroke-width="0.3747" stroke-linecap="round" stroke-linejoin="round" fill="none"/>
        </g>
        <g transform="matrix(1.0000 0.0000 0.0000 1.0000 0.0000 0.0000)">
</g>
        <g transform="matrix(0.0625 0.0000 0.0000 0.0625 0.0000 0.0000)">
          <path d="M 11.9913,67.7507 C 16.7878,67.7507 20.6100,63.9285 20.6100,59.1320 C 20.6100,54.3355 16.7878,50.5132 11.9913,50.5132 C 7.2697,50.5132 3.3725,54.3355 3.3725,59.1320 C 3.3725,63.9285 7.2697,67.7507 11.9913,67.7507 " fill="#262626" stroke="none"/>
        </g>
        <g transform="matrix(1.0000 0.0000 0.0000 1.0000 0.0000 0.0000)">
</g>
        <g transform="matrix(0.0625 0.0000 0.0000 0.0625 0.0000 0.0000)">
          <path d="M 11.9913,67.7507 M 11.9913,67.7507 C 16.7878,67.7507 20.6100,63.9285 20.6100,59.1320 C 20.6100,54.3355 16.7878,50.5132 11.9913,50.5132 C 7.2697,50.5132 3.3725,54.3355 3.3725,59.1320 C 3.3725,63.9285 7.2697,67.7507 11.9913,67.7507 " stroke="#BFBFBF" stroke-width="0.3747" stroke-linecap="round" stroke-linejoin="round" fill="none"/>
        </g>
        <g transform="matrix(1.0000 0.0000 0.0000 1.0000 0.0000 0.0000)">
</g>
        <g transform="matrix(0.0625 0.0000 0.0000 0.0625 0.0000 0.0000)">
          <path d="M 11.9913,90.0095 C 16.7878,90.0095 20.6100,86.1873 20.6100,81.3908 C 20.6100,76.5943 16.7878,72.7720 11.9913,72.7720 C 7.2697,72.7720 3.3725,76.5943 3.3725,81.3908 C 3.3725,86.1873 7.2697,90.0095 11.9913,90.0095 " fill="#262626" stroke="none"/>
        </g>
        <g transform="matrix(1.0000 0.0000 0.0000 1.0000 0.0000 0.0000)">
</g>
        <g transform="matrix(0.0625 0.0000 0.0000 0.0625 0.0000 0.0000)">
          <path d="M 11.9913,90.0095 M 11.9913,90.0095 C 16.7878,90.0095 20.6100,86.1873 20.6100,81.3908 C 20.6100,76.5943 16.7878,72.7720 11.9913,72.7720 C 7.2697,72.7720 3.3725,76.5943 3.3725,81.3908 C 3.3725,86.1873 7.2697,90.0095 11.9913,90.0095 " stroke="#BFBFBF" stroke-width="0.3747" stroke-linecap="round" stroke-linejoin="round" fill="none"/>
        </g>
        <g transform="matrix(1.0000 0.0000 0.0000 1.0000 0.0000 0.0000)">
</g>
        <g transform="matrix(0.0625 0.0000 0.0000 0.0625 0.0000 0.0000)">
          <path d="M 11.9913,45.4919 C 16.7878,45.4919 20.6100,41.6697 20.6100,36.8732 C 20.6100,32.1516 16.7878,28.2544 11.9913,28.2544 C 7.2697,28.2544 3.3725,32.1516 3.3725,36.8732 C 3.3725,41.6697 7.2697,45.4919 11.9913,45.4919 " fill="#262626" stroke="none"/>
        </g>
        <g transform="matrix(1.0000 0.0000 0.0000 1.0000 0.0000 0.0000)">
</g>
        <g transform="matrix(0.0625 0.0000 0.0000 0.0625 0.0000 0.0000)">
          <path d="M 11.9913,45.4919 M 11.9913,45.4919 C 16.7878,45.4919 20.6100,41.6697 20.6100,36.8732 C 20.6100,32.1516 16.7878,28.2544 11.9913,28.2544 C 7.2697,28.2544 3.3725,32.1516 3.3725,36.8732 C 3.3725,41.6697 7.2697,45.4919 11.9913,45.4919 " stroke="#BFBFBF" stroke-width="0.3747" stroke-linecap="round" stroke-linejoin="round" fill="none"/>
        </g>
        <g transform="matrix(1.0000 0.0000 0.0000 1.0000 0.0000 0.0000)">
</g>
        <g transform="matrix(0.0625 0.0000 0.0000 0.0625 0.0000 0.0000)">
          <path d="M 32.9760,191.4856 C 37.7725,191.4856 41.5947,187.5885 41.5947,182.7920 C 41.5947,178.0704 37.7725,174.1732 32.9760,174.1732 C 28.2544,174.1732 24.3573,178.0704 24.3573,182.7920 C 24.3573,187.5885 28.2544,191.4856 32.9760,191.4856 " fill="#262626" stroke="none"/>
        </g>
        <g transform="matrix(1.0000 0.0000 0.0000 1.0000 0.0000 0.0000)">
</g>
        <g transform="matrix(0.0625 0.0000 0.0000 0.0625 0.0000 0.0000)">
          <path d="M 32.9760,191.4856 M 32.9760,191.4856 C 37.7725,191.4856 41.5947,187.5885 41.5947,182.7920 C 41.5947,178.0704 37.7725,174.1732 32.9760,174.1732 C 28.2544,174.1732 24.3573,178.0704 24.3573,182.7920 C 24.3573,187.5885 28.2544,191.4856 32.9760,191.4856 " stroke="#BFBFBF" stroke-width="0.3747" stroke-linecap="round" stroke-linejoin="round" fill="none"/>
        </g>
        <g transform="matrix(1.0000 0.0000 0.0000 1.0000 0.0000 0.0000)">
</g>
        <g transform="matrix(0.0625 0.0000 0.0000 0.0625 0.0000 0.0000)">
          <path d="M 32.9760,213.6695 C 37.7725,213.6695 41.5947,209.8473 41.5947,205.0508 C 41.5947,200.3292 37.7725,196.4320 32.9760,196.4320 C 28.2544,196.4320 24.3573,200.3292 24.3573,205.0508 C 24.3573,209.8473 28.2544,213.6695 32.9760,213.6695 " fill="#262626" stroke="none"/>
        </g>
        <g transform="matrix(1.0000 0.0000 0.0000 1.0000 0.0000 0.0000)">
</g>
        <g transform="matrix(0.0625 0.0000 0.0000 0.0625 0.0000 0.0000)">
          <path d="M 32.9760,213.6695 M 32.9760,213.6695 C 37.7725,213.6695 41.5947,209.8473 41.5947,205.0508 C 41.5947,200.3292 37.7725,196.4320 32.9760,196.4320 C 28.2544,196.4320 24.3573,200.3292 24.3573,205.0508 C 24.3573,209.8473 28.2544,213.6695 32.9760,213.6695 " stroke="#BFBFBF" stroke-width="0.3747" stroke-linecap="round" stroke-linejoin="round" fill="none"/>
        </g>
        <g transform="matrix(1.0000 0.0000 0.0000 1.0000 0.0000 0.0000)">
</g>
        <g transform="matrix(0.0625 0.0000 0.0000 0.0625 0.0000 0.0000)">
          <path d="M 32.9760,235.9283 C 37.7725,235.9283 41.5947,232.1061 41.5947,227.3096 C 41.5947,222.5880 37.7725,218.6908 32.9760,218.6908 C 28.2544,218.6908 24.3573,222.5880 24.3573,227.3096 C 24.3573,232.1061 28.2544,235.9283 32.9760,235.9283 " fill="#262626" stroke="none"/>
        </g>
        <g transform="matrix(1.0000 0.0000 0.0000 1.0000 0.0000 0.0000)">
</g>
        <g transform="matrix(0.0625 0.0000 0.0000 0.0625 0.0000 0.0000)">
          <path d="M 32.9760,235.9283 M 32.9760,235.9283 C 37.7725,235.9283 41.5947,232.1061 41.5947,227.3096 C 41.5947,222.5880 37.7725,218.6908 32.9760,218.6908 C 28.2544,218.6908 24.3573,222.5880 24.3573,227.3096 C 24.3573,232.1061 28.2544,235.9283 32.9760,235.9283 " stroke="#BFBFBF" stroke-width="0.3747" stroke-linecap="round" stroke-linejoin="round" fill="none"/>
        </g>
        <g transform="matrix(1.0000 0.0000 0.0000 1.0000 0.0000 0.0000)">
</g>
        <g transform="matrix(0.0625 0.0000 0.0000 0.0625 0.0000 0.0000)">
          <path d="M 32.9760,124.7092 C 37.7725,124.7092 41.5947,120.8121 41.5947,116.0905 C 41.5947,111.2940 37.7725,107.4718 32.9760,107.4718 C 28.2544,107.4718 24.3573,111.2940 24.3573,116.0905 C 24.3573,120.8121 28.2544,124.7092 32.9760,124.7092 " fill="#262626" stroke="none"/>
        </g>
        <g transform="matrix(1.0000 0.0000 0.0000 1.0000 0.0000 0.0000)">
</g>
        <g transform="matrix(0.0625 0.0000 0.0000 0.0625 0.0000 0.0000)">
          <path d="M 32.9760,124.7092 M 32.9760,124.7092 C 37.7725,124.7092 41.5947,120.8121 41.5947,116.0905 C 41.5947,111.2940 37.7725,107.4718 32.9760,107.4718 C 28.2544,107.4718 24.3573,111.2940 24.3573,116.0905 C 24.3573,120.8121 28.2544,124.7092 32.9760,124.7092 " stroke="#BFBFBF" stroke-width="0.3747" stroke-linecap="round" stroke-linejoin="round" fill="none"/>
        </g>
        <g transform="matrix(1.0000 0.0000 0.0000 1.0000 0.0000 0.0000)">
</g>
        <g transform="matrix(0.0625 0.0000 0.0000 0.0625 0.0000 0.0000)">
          <path d="M 32.9760,146.9680 C 37.7725,146.9680 41.5947,143.0709 41.5947,138.3493 C 41.5947,133.5528 37.7725,129.7306 32.9760,129.7306 C 28.2544,129.7306 24.3573,133.5528 24.3573,138.3493 C 24.3573,143.0709 28.2544,146.9680 32.9760,146.9680 " fill="#262626" stroke="none"/>
        </g>
        <g transform="matrix(1.0000 0.0000 0.0000 1.0000 0.0000 0.0000)">
</g>
        <g transform="matrix(0.0625 0.0000 0.0000 0.0625 0.0000 0.0000)">
          <path d="M 32.9760,146.9680 M 32.9760,146.9680 C 37.7725,146.9680 41.5947,143.0709 41.5947,138.3493 C 41.5947,133.5528 37.7725,129.7306 32.9760,129.7306 C 28.2544,129.7306 24.3573,133.5528 24.3573,138.3493 C 24.3573,143.0709 28.2544,146.9680 32.9760,146.9680 " stroke="#BFBFBF" stroke-width="0.3747" stroke-linecap="round" stroke-linejoin="round" fill="none"/>
        </g>
        <g transform="matrix(1.0000 0.0000 0.0000 1.0000 0.0000 0.0000)">
</g>
        <g transform="matrix(0.0625 0.0000 0.0000 0.0625 0.0000 0.0000)">
          <path d="M 32.9760,169.2268 C 37.7725,169.2268 41.5947,165.3297 41.5947,160.6081 C 41.5947,155.8116 37.7725,151.9144 32.9760,151.9144 C 28.2544,151.9144 24.3573,155.8116 24.3573,160.6081 C 24.3573,165.3297 28.2544,169.2268 32.9760,169.2268 " fill="#262626" stroke="none"/>
        </g>
        <g transform="matrix(1.0000 0.0000 0.0000 1.0000 0.0000 0.0000)">
</g>
        <g transform="matrix(0.0625 0.0000 0.0000 0.0625 0.0000 0.0000)">
          <path d="M 32.9760,169.2268 M 32.9760,169.2268 C 37.7725,169.2268 41.5947,165.3297 41.5947,160.6081 C 41.5947,155.8116 37.7725,151.9144 32.9760,151.9144 C 28.2544,151.9144 24.3573,155.8116 24.3573,160.6081 C 24.3573,165.3297 28.2544,169.2268 32.9760,169.2268 " stroke="#BFBFBF" stroke-width="0.3747" stroke-linecap="round" stroke-linejoin="round" fill="none"/>
        </g>
        <g transform="matrix(1.0000 0.0000 0.0000 1.0000 0.0000 0.0000)">
</g>
        <g transform="matrix(0.0625 0.0000 0.0000 0.0625 0.0000 0.0000)">
          <path d="M 32.9760,35.7490 C 37.7725,35.7490 41.5947,31.8518 41.5947,27.0553 C 41.5947,22.3337 37.7725,18.4366 32.9760,18.4366 C 28.2544,18.4366 24.3573,22.3337 24.3573,27.0553 C 24.3573,31.8518 28.2544,35.7490 32.9760,35.7490 " fill="#262626" stroke="none"/>
        </g>
        <g transform="matrix(1.0000 0.0000 0.0000 1.0000 0.0000 0.0000)">
</g>
        <g transform="matrix(0.0625 0.0000 0.0000 0.0625 0.0000 0.0000)">
          <path d="M 32.9760,35.7490 M 32.9760,35.7490 C 37.7725,35.7490 41.5947,31.8518 41.5947,27.0553 C 41.5947,22.3337 37.7725,18.4366 32.9760,18.4366 C 28.2544,18.4366 24.3573,22.3337 24.3573,27.0553 C 24.3573,31.8518 28.2544,35.7490 32.9760,35.7490 " stroke="#BFBFBF" stroke-width="0.3747" stroke-linecap="round" stroke-linejoin="round" fill="none"/>
        </g>
        <g transform="matrix(1.0000 0.0000 0.0000 1.0000 0.0000 0.0000)">
</g>
        <g transform="matrix(0.0625 0.0000 0.0000 0.0625 0.0000 0.0000)">
          <path d="M 32.9760,80.1916 C 37.7725,80.1916 41.5947,76.3694 41.5947,71.5729 C 41.5947,66.8513 37.7725,62.9542 32.9760,62.9542 C 28.2544,62.9542 24.3573,66.8513 24.3573,71.5729 C 24.3573,76.3694 28.2544,80.1916 32.9760,80.1916 " fill="#262626" stroke="none"/>
        </g>
        <g transform="matrix(1.0000 0.0000 0.0000 1.0000 0.0000 0.0000)">
</g>
        <g transform="matrix(0.0625 0.0000 0.0000 0.0625 0.0000 0.0000)">
          <path d="M 32.9760,80.1916 M 32.9760,80.1916 C 37.7725,80.1916 41.5947,76.3694 41.5947,71.5729 C 41.5947,66.8513 37.7725,62.9542 32.9760,62.9542 C 28.2544,62.9542 24.3573,66.8513 24.3573,71.5729 C 24.3573,76.3694 28.2544,80.1916 32.9760,80.1916 " stroke="#BFBFBF" stroke-width="0.3747" stroke-linecap="round" stroke-linejoin="round" fill="none"/>
        </g>
        <g transform="matrix(1.0000 0.0000 0.0000 1.0000 0.0000 0.0000)">
</g>
        <g transform="matrix(0.0625 0.0000 0.0000 0.0625 0.0000 0.0000)">
          <path d="M 32.9760,102.4504 C 37.7725,102.4504 41.5947,98.6282 41.5947,93.8317 C 41.5947,89.0352 37.7725,85.2130 32.9760,85.2130 C 28.2544,85.2130 24.3573,89.0352 24.3573,93.8317 C 24.3573,98.6282 28.2544,102.4504 32.9760,102.4504 " fill="#262626" stroke="none"/>
        </g>
        <g transform="matrix(1.0000 0.0000 0.0000 1.0000 0.0000 0.0000)">
</g>
        <g transform="matrix(0.0625 0.0000 0.0000 0.0625 0.0000 0.0000)">
          <path d="M 32.9760,102.4504 M 32.9760,102.4504 C 37.7725,102.4504 41.5947,98.6282 41.5947,93.8317 C 41.5947,89.0352 37.7725,85.2130 32.9760,85.2130 C 28.2544,85.2130 24.3573,89.0352 24.3573,93.8317 C 24.3573,98.6282 28.2544,102.4504 32.9760,102.4504 " stroke="#BFBFBF" stroke-width="0.3747" stroke-linecap="round" stroke-linejoin="round" fill="none"/>
        </g>
        <g transform="matrix(1.0000 0.0000 0.0000 1.0000 0.0000 0.0000)">
</g>
        <g transform="matrix(0.0625 0.0000 0.0000 0.0625 0.0000 0.0000)">
          <path d="M 32.9760,58.0078 C 37.7725,58.0078 41.5947,54.1106 41.5947,49.3141 C 41.5947,44.5925 37.7725,40.6954 32.9760,40.6954 C 28.2544,40.6954 24.3573,44.5925 24.3573,49.3141 C 24.3573,54.1106 28.2544,58.0078 32.9760,58.0078 " fill="#262626" stroke="none"/>
        </g>
        <g transform="matrix(1.0000 0.0000 0.0000 1.0000 0.0000 0.0000)">
</g>
        <g transform="matrix(0.0625 0.0000 0.0000 0.0625 0.0000 0.0000)">
          <path d="M 32.9760,58.0078 M 32.9760,58.0078 C 37.7725,58.0078 41.5947,54.1106 41.5947,49.3141 C 41.5947,44.5925 37.7725,40.6954 32.9760,40.6954 C 28.2544,40.6954 24.3573,44.5925 24.3573,49.3141 C 24.3573,54.1106 28.2544,58.0078 32.9760,58.0078 " stroke="#BFBFBF" stroke-width="0.3747" stroke-linecap="round" stroke-linejoin="round" fill="none"/>
        </g>
        <g transform="matrix(1.0000 0.0000 0.0000 1.0000 0.0000 0.0000)">
</g>
        <g transform="matrix(0.0625 0.0000 0.0000 0.0625 0.0000 0.0000)">
          <path d="M 23.9825,267.7052 C 29.0039,262.9087 36.9481,262.9087 41.9695,267.7052 L 41.9695,267.7052 L 23.9825,267.7052 Z " fill="#000000" stroke="none"/>
        </g>
        <g transform="matrix(1.0000 0.0000 0.0000 1.0000 0.0000 0.0000)">
</g>
        <g transform="matrix(0.0625 0.0000 0.0000 0.0625 0.0000 0.0000)">
          <path d="M 23.9825,267.7052 C 29.0039,262.9087 36.9481,262.9087 41.9695,267.7052 L 41.9695,267.7052 L 23.9825,267.7052 Z " stroke="#000000" stroke-width="0.3747" stroke-linecap="round" stroke-linejoin="round" fill="none"/>
        </g>
        <g transform="matrix(1.0000 0.0000 0.0000 1.0000 0.0000 0.0000)">
</g>
      </g>
      <!--emf-blob end-->
    </g>
  </g>
</svg>
