<svg xmlns="http://www.w3.org/2000/svg" xmlns:xlink="http://www.w3.org/1999/xlink" version="1.1" width="22.1138000000" height="4.8656000000">
  <title><![CDATA[UCSB-B200 SFF HD]]></title>
  <g transform=" scale(1.000000) ">
    <!--converted by libvisio2svg-->
    <g transform=" translate(-0.148500,2.284300) ">
      <!--emf-blob start-->
      <g transform="translate(-0.0000, -0.0000)">
        <g transform="matrix(0.0625 0.0000 0.0000 0.0625 0.0000 0.0000)">
          <path d="M 1.8049,1.8049 L 1.8049,79.8667 L 356.6175,79.8667 L 356.6175,1.8049 L 1.8049,1.8049 Z" stroke-width="1px" stroke="#000000" fill="#000000"/>
        </g>
        <g transform="matrix(1.0000 0.0000 0.0000 1.0000 0.0000 0.0000)">
</g>
        <g transform="matrix(0.0625 0.0000 0.0000 0.0625 0.0000 0.0000)">
          <path d="M 1.8049,79.8667 L 356.6175,79.8667 L 356.6175,1.8049 L 1.8049,1.8049 L 1.8049,79.8667 Z" stroke="#000000" stroke-width="1.2033" stroke-linecap="round" stroke-linejoin="round" fill="none"/>
        </g>
        <g transform="matrix(1.0000 0.0000 0.0000 1.0000 0.0000 0.0000)">
</g>
        <g transform="matrix(0.0625 0.0000 0.0000 0.0625 0.0000 0.0000)">
          <path d="M 251.6327,5.4147 L 251.6327,77.6106 L 311.7959,77.6106 L 311.7959,5.4147 L 251.6327,5.4147 Z" stroke-width="1px" stroke="#404040" fill="#404040"/>
        </g>
        <g transform="matrix(1.0000 0.0000 0.0000 1.0000 0.0000 0.0000)">
</g>
        <g transform="matrix(0.0625 0.0000 0.0000 0.0625 0.0000 0.0000)">
          <path d="M 251.6327,77.6106 L 311.7959,77.6106 L 311.7959,5.4147 L 251.6327,5.4147 L 251.6327,77.6106 Z" stroke="#A6A6A6" stroke-width="1.2033" stroke-linecap="round" stroke-linejoin="round" fill="none"/>
        </g>
        <g transform="matrix(1.0000 0.0000 0.0000 1.0000 0.0000 0.0000)">
</g>
        <g transform="matrix(0.0625 0.0000 0.0000 0.0625 0.0000 0.0000)">
          <path d="M 49.4842,7.2196 L 49.4842,74.9032 L 139.7291,74.9032 L 139.7291,7.2196 L 49.4842,7.2196 Z" stroke-width="1px" stroke="#F2F2F2" fill="#F2F2F2"/>
        </g>
        <g transform="matrix(1.0000 0.0000 0.0000 1.0000 0.0000 0.0000)">
</g>
        <g transform="matrix(0.0625 0.0000 0.0000 0.0625 0.0000 0.0000)">
          <path d="M 49.4842,74.9032 L 139.7291,74.9032 L 139.7291,7.2196 L 49.4842,7.2196 L 49.4842,74.9032 Z" stroke="#000000" stroke-width="1.2033" stroke-linecap="round" stroke-linejoin="round" fill="none"/>
        </g>
        <g transform="matrix(1.0000 0.0000 0.0000 1.0000 0.0000 0.0000)">
</g>
        <g transform="matrix(0.0625 0.0000 0.0000 0.0625 0.0000 0.0000)">
          <path d="M 49.4842,5.4147 L 49.4842,12.6343 L 311.1943,12.6343 L 311.1943,5.4147 L 49.4842,5.4147 Z" stroke-width="1px" stroke="#3F3F3F" fill="#3F3F3F"/>
        </g>
        <g transform="matrix(1.0000 0.0000 0.0000 1.0000 0.0000 0.0000)">
</g>
        <g transform="matrix(0.0625 0.0000 0.0000 0.0625 0.0000 0.0000)">
          <path d="M 49.4842,12.6343 L 311.1943,12.6343 L 311.1943,5.4147 L 49.4842,5.4147 L 49.4842,12.6343 Z" stroke="#262626" stroke-width="1.2033" stroke-linecap="round" stroke-linejoin="round" fill="none"/>
        </g>
        <g transform="matrix(1.0000 0.0000 0.0000 1.0000 0.0000 0.0000)">
</g>
        <g transform="matrix(0.0625 0.0000 0.0000 0.0625 0.0000 0.0000)">
          <path d="M 49.4842,70.3910 L 49.4842,77.6106 L 311.1943,77.6106 L 311.1943,70.3910 L 49.4842,70.3910 Z" stroke-width="1px" stroke="#BFBFBF" fill="#BFBFBF"/>
        </g>
        <g transform="matrix(1.0000 0.0000 0.0000 1.0000 0.0000 0.0000)">
</g>
        <g transform="matrix(0.0625 0.0000 0.0000 0.0625 0.0000 0.0000)">
          <path d="M 49.4842,77.6106 L 311.1943,77.6106 L 311.1943,70.3910 L 49.4842,70.3910 L 49.4842,77.6106 Z" stroke="#A6A6A6" stroke-width="1.2033" stroke-linecap="round" stroke-linejoin="round" fill="none"/>
        </g>
        <g transform="matrix(1.0000 0.0000 0.0000 1.0000 0.0000 0.0000)">
</g>
        <g transform="matrix(0.0625 0.0000 0.0000 0.0625 0.0000 0.0000)">
          <path d="M 282.0151,32.4129 L 290.2123,27.6751 L 290.2123,18.2746 L 282.0151,13.5367 L 273.8179,18.2746 L 273.8179,27.6751 L 282.0151,32.4129 Z M 301.7938,32.4129 L 309.9910,27.6751 L 309.9910,18.2746 L 301.7938,13.5367 L 293.5965,18.2746 L 293.5965,27.6751 L 301.7938,32.4129 Z M 282.0151,66.6308 L 290.2123,61.8929 L 290.2123,52.4172 L 282.0151,47.6794 L 273.8179,52.4172 L 273.8179,61.8929 L 282.0151,66.6308 Z M 301.7938,66.6308 L 309.9910,61.8929 L 309.9910,52.4172 L 301.7938,47.6794 L 293.5965,52.4172 L 293.5965,61.8929 L 301.7938,66.6308 Z M 262.2364,66.6308 L 270.4337,61.8929 L 270.4337,52.4172 L 262.2364,47.6794 L 254.0392,52.4172 L 254.0392,61.8929 L 262.2364,66.6308 Z M 272.2386,49.4842 L 280.4358,44.7464 L 280.4358,35.3459 L 272.2386,30.6080 L 264.0413,35.3459 L 264.0413,44.7464 L 272.2386,49.4842 Z M 292.0172,49.4842 L 300.2145,44.7464 L 300.2145,35.3459 L 292.0172,30.6080 L 283.8200,35.3459 L 283.8200,44.7464 L 292.0172,49.4842 Z " fill="#000000" stroke-width="1px" stroke="#000000"/>
        </g>
        <g transform="matrix(1.0000 0.0000 0.0000 1.0000 0.0000 0.0000)">
</g>
        <g transform="matrix(0.0625 0.0000 0.0000 0.0625 0.0000 0.0000)">
          <path d="M 311.1943,5.2643 L 311.1943,77.3849 L 351.8044,77.3849 L 351.8044,5.2643 L 311.1943,5.2643 Z" stroke-width="1px" stroke="#A6A6A6" fill="#A6A6A6"/>
        </g>
        <g transform="matrix(1.0000 0.0000 0.0000 1.0000 0.0000 0.0000)">
</g>
        <g transform="matrix(0.0625 0.0000 0.0000 0.0625 0.0000 0.0000)">
          <path d="M 311.1943,77.3849 L 351.8044,77.3849 L 351.8044,5.2643 L 311.1943,5.2643 L 311.1943,77.3849 Z" stroke="#A6A6A6" stroke-width="1.2033" stroke-linecap="round" stroke-linejoin="round" fill="none"/>
        </g>
        <g transform="matrix(1.0000 0.0000 0.0000 1.0000 0.0000 0.0000)">
</g>
        <g transform="matrix(0.0625 0.0000 0.0000 0.0625 0.0000 0.0000)">
          <path d="M 315.9321,75.1288 L 347.1418,75.1288 C 348.7211,75.1288 349.9995,73.8504 349.9995,72.2711 L 349.9995,9.9269 C 349.9995,8.3476 348.7211,7.0692 347.1418,7.0692 L 315.9321,7.0692 C 314.2776,7.0692 312.9992,8.3476 312.9992,9.9269 L 312.9992,72.2711 C 312.9992,73.8504 314.2776,75.1288 315.9321,75.1288 Z " fill="#BFBFBF" stroke="none"/>
        </g>
        <g transform="matrix(1.0000 0.0000 0.0000 1.0000 0.0000 0.0000)">
</g>
        <g transform="matrix(0.0625 0.0000 0.0000 0.0625 0.0000 0.0000)">
          <path d="M 315.9321,75.1288 L 347.1418,75.1288 C 348.7211,75.1288 349.9995,73.8504 349.9995,72.2711 L 349.9995,9.9269 C 349.9995,8.3476 348.7211,7.0692 347.1418,7.0692 L 315.9321,7.0692 C 314.2776,7.0692 312.9992,8.3476 312.9992,9.9269 L 312.9992,72.2711 C 312.9992,73.8504 314.2776,75.1288 315.9321,75.1288 Z " stroke="#7F7F7F" stroke-width="1.2033" stroke-linecap="round" stroke-linejoin="round" fill="none"/>
        </g>
        <g transform="matrix(1.0000 0.0000 0.0000 1.0000 0.0000 0.0000)">
</g>
        <g transform="matrix(0.0625 0.0000 0.0000 0.0625 0.0000 0.0000)">
          <path d="M 5.7155,5.2643 L 5.7155,77.3849 L 51.2891,77.3849 L 51.2891,5.2643 L 5.7155,5.2643 Z" stroke-width="1px" stroke="#A6A6A6" fill="#A6A6A6"/>
        </g>
        <g transform="matrix(1.0000 0.0000 0.0000 1.0000 0.0000 0.0000)">
</g>
        <g transform="matrix(0.0625 0.0000 0.0000 0.0625 0.0000 0.0000)">
          <path d="M 5.7155,77.3849 L 51.2891,77.3849 L 51.2891,5.2643 L 5.7155,5.2643 L 5.7155,77.3849 Z" stroke="#A6A6A6" stroke-width="1.2033" stroke-linecap="round" stroke-linejoin="round" fill="none"/>
        </g>
        <g transform="matrix(1.0000 0.0000 0.0000 1.0000 0.0000 0.0000)">
</g>
        <g transform="matrix(0.0625 0.0000 0.0000 0.0625 0.0000 0.0000)">
          <path d="M 10.4534,75.1288 L 46.6265,75.1288 C 48.2058,75.1288 49.4842,73.8504 49.4842,72.2711 L 49.4842,9.9269 C 49.4842,8.3476 48.2058,7.0692 46.6265,7.0692 L 10.4534,7.0692 C 8.7989,7.0692 7.5204,8.3476 7.5204,9.9269 L 7.5204,72.2711 C 7.5204,73.8504 8.7989,75.1288 10.4534,75.1288 Z " fill="#BFBFBF" stroke="none"/>
        </g>
        <g transform="matrix(1.0000 0.0000 0.0000 1.0000 0.0000 0.0000)">
</g>
        <g transform="matrix(0.0625 0.0000 0.0000 0.0625 0.0000 0.0000)">
          <path d="M 10.4534,75.1288 L 46.6265,75.1288 C 48.2058,75.1288 49.4842,73.8504 49.4842,72.2711 L 49.4842,9.9269 C 49.4842,8.3476 48.2058,7.0692 46.6265,7.0692 L 10.4534,7.0692 C 8.7989,7.0692 7.5204,8.3476 7.5204,9.9269 L 7.5204,72.2711 C 7.5204,73.8504 8.7989,75.1288 10.4534,75.1288 Z " stroke="#7F7F7F" stroke-width="1.2033" stroke-linecap="round" stroke-linejoin="round" fill="none"/>
        </g>
        <g transform="matrix(1.0000 0.0000 0.0000 1.0000 0.0000 0.0000)">
</g>
        <g transform="matrix(0.0625 0.0000 0.0000 0.0625 0.0000 0.0000)">
          <path d="M 109.8731,32.4129 L 118.0703,27.6751 L 118.0703,18.2746 L 109.8731,13.5367 L 101.6758,18.2746 L 101.6758,27.6751 L 109.8731,32.4129 Z" stroke-width="1px" stroke="#000000" fill="#000000"/>
        </g>
        <g transform="matrix(1.0000 0.0000 0.0000 1.0000 0.0000 0.0000)">
</g>
        <g transform="matrix(0.0625 0.0000 0.0000 0.0625 0.0000 0.0000)">
          <path d="M 109.8731,66.6308 L 118.0703,61.8929 L 118.0703,52.4172 L 109.8731,47.6794 L 101.6758,52.4172 L 101.6758,61.8929 L 109.8731,66.6308 Z" stroke-width="1px" stroke="#000000" fill="#000000"/>
        </g>
        <g transform="matrix(1.0000 0.0000 0.0000 1.0000 0.0000 0.0000)">
</g>
        <g transform="matrix(0.0625 0.0000 0.0000 0.0625 0.0000 0.0000)">
          <path d="M 100.1718,49.4842 L 108.3690,44.7464 L 108.3690,35.3459 L 100.1718,30.6080 L 91.9745,35.3459 L 91.9745,44.7464 L 100.1718,49.4842 Z" stroke-width="1px" stroke="#000000" fill="#000000"/>
        </g>
        <g transform="matrix(1.0000 0.0000 0.0000 1.0000 0.0000 0.0000)">
</g>
        <g transform="matrix(0.0625 0.0000 0.0000 0.0625 0.0000 0.0000)">
          <path d="M 90.0944,32.4129 L 98.2917,27.6751 L 98.2917,18.2746 L 90.0944,13.5367 L 81.8972,18.2746 L 81.8972,27.6751 L 90.0944,32.4129 Z" stroke-width="1px" stroke="#000000" fill="#000000"/>
        </g>
        <g transform="matrix(1.0000 0.0000 0.0000 1.0000 0.0000 0.0000)">
</g>
        <g transform="matrix(0.0625 0.0000 0.0000 0.0625 0.0000 0.0000)">
          <path d="M 90.0944,66.6308 L 98.2917,61.8929 L 98.2917,52.4172 L 90.0944,47.6794 L 81.8972,52.4172 L 81.8972,61.8929 L 90.0944,66.6308 Z" stroke-width="1px" stroke="#000000" fill="#000000"/>
        </g>
        <g transform="matrix(1.0000 0.0000 0.0000 1.0000 0.0000 0.0000)">
</g>
        <g transform="matrix(0.0625 0.0000 0.0000 0.0625 0.0000 0.0000)">
          <path d="M 80.3931,49.4842 L 88.5903,44.7464 L 88.5903,35.3459 L 80.3931,30.6080 L 72.1959,35.3459 L 72.1959,44.7464 L 80.3931,49.4842 Z" stroke-width="1px" stroke="#000000" fill="#000000"/>
        </g>
        <g transform="matrix(1.0000 0.0000 0.0000 1.0000 0.0000 0.0000)">
</g>
        <g transform="matrix(0.0625 0.0000 0.0000 0.0625 0.0000 0.0000)">
          <path d="M 70.1654,32.4129 L 78.3626,27.6751 L 78.3626,18.2746 L 70.1654,13.5367 L 61.9681,18.2746 L 61.9681,27.6751 L 70.1654,32.4129 Z" stroke-width="1px" stroke="#000000" fill="#000000"/>
        </g>
        <g transform="matrix(1.0000 0.0000 0.0000 1.0000 0.0000 0.0000)">
</g>
        <g transform="matrix(0.0625 0.0000 0.0000 0.0625 0.0000 0.0000)">
          <path d="M 70.1654,66.6308 L 78.3626,61.8929 L 78.3626,52.4172 L 70.1654,47.6794 L 61.9681,52.4172 L 61.9681,61.8929 L 70.1654,66.6308 Z" stroke-width="1px" stroke="#000000" fill="#000000"/>
        </g>
        <g transform="matrix(1.0000 0.0000 0.0000 1.0000 0.0000 0.0000)">
</g>
        <g transform="matrix(0.0625 0.0000 0.0000 0.0625 0.0000 0.0000)">
          <path d="M 60.4640,49.4842 L 68.6613,44.7464 L 68.6613,35.3459 L 60.4640,30.6080 L 52.2668,35.3459 L 52.2668,44.7464 L 60.4640,49.4842 Z" stroke-width="1px" stroke="#000000" fill="#000000"/>
        </g>
        <g transform="matrix(1.0000 0.0000 0.0000 1.0000 0.0000 0.0000)">
</g>
        <g transform="matrix(0.0625 0.0000 0.0000 0.0625 0.0000 0.0000)">
          <path d="M 111.7532,15.8680 L 111.7532,66.4052 L 137.4730,66.4052 L 137.4730,15.8680 L 111.7532,15.8680 Z" stroke-width="1px" stroke="#BFBFBF" fill="#BFBFBF"/>
        </g>
        <g transform="matrix(1.0000 0.0000 0.0000 1.0000 0.0000 0.0000)">
</g>
        <g transform="matrix(0.0625 0.0000 0.0000 0.0625 0.0000 0.0000)">
          <path d="M 111.7532,66.4052 L 137.4730,66.4052 L 137.4730,15.8680 L 111.7532,15.8680 L 111.7532,66.4052 Z" stroke="#7F7F7F" stroke-width="1.2033" stroke-linecap="round" stroke-linejoin="round" fill="none"/>
        </g>
        <g transform="matrix(1.0000 0.0000 0.0000 1.0000 0.0000 0.0000)">
</g>
        <g transform="matrix(0.0625 0.0000 0.0000 0.0625 0.0000 0.0000)">
          <path d="M 137.9242,5.2643 L 137.9242,77.3849 L 251.6327,77.3849 L 251.6327,5.2643 L 137.9242,5.2643 Z" stroke-width="1px" stroke="#A6A6A6" fill="#A6A6A6"/>
        </g>
        <g transform="matrix(1.0000 0.0000 0.0000 1.0000 0.0000 0.0000)">
</g>
        <g transform="matrix(0.0625 0.0000 0.0000 0.0625 0.0000 0.0000)">
          <path d="M 137.9242,77.3849 L 251.6327,77.3849 L 251.6327,5.2643 L 137.9242,5.2643 L 137.9242,77.3849 Z" stroke="#A6A6A6" stroke-width="1.2033" stroke-linecap="round" stroke-linejoin="round" fill="none"/>
        </g>
        <g transform="matrix(1.0000 0.0000 0.0000 1.0000 0.0000 0.0000)">
</g>
        <g transform="matrix(0.0625 0.0000 0.0000 0.0625 0.0000 0.0000)">
          <path d="M 142.6620,75.1288 L 246.9700,75.1288 C 248.5493,75.1288 249.8278,73.8504 249.8278,72.2711 L 249.8278,9.9269 C 249.8278,8.3476 248.5493,7.0692 246.9700,7.0692 L 142.6620,7.0692 C 141.0076,7.0692 139.7291,8.3476 139.7291,9.9269 L 139.7291,72.2711 C 139.7291,73.8504 141.0076,75.1288 142.6620,75.1288 Z " fill="#BFBFBF" stroke="none"/>
        </g>
        <g transform="matrix(1.0000 0.0000 0.0000 1.0000 0.0000 0.0000)">
</g>
        <g transform="matrix(0.0625 0.0000 0.0000 0.0625 0.0000 0.0000)">
          <path d="M 142.6620,75.1288 L 246.9700,75.1288 C 248.5493,75.1288 249.8278,73.8504 249.8278,72.2711 L 249.8278,9.9269 C 249.8278,8.3476 248.5493,7.0692 246.9700,7.0692 L 142.6620,7.0692 C 141.0076,7.0692 139.7291,8.3476 139.7291,9.9269 L 139.7291,72.2711 C 139.7291,73.8504 141.0076,75.1288 142.6620,75.1288 Z " stroke="#7F7F7F" stroke-width="1.2033" stroke-linecap="round" stroke-linejoin="round" fill="none"/>
        </g>
        <g transform="matrix(1.0000 0.0000 0.0000 1.0000 0.0000 0.0000)">
</g>
      </g>
      <!--emf-blob end-->
    </g>
  </g>
</svg>
