<svg xmlns="http://www.w3.org/2000/svg" xmlns:xlink="http://www.w3.org/1999/xlink" version="1.1" width="27.3451000000" height="3.8250000000">
  <title><![CDATA[UCSC-PCIE-ITG]]></title>
  <g transform=" scale(1.000000) ">
    <!--converted by libvisio2svg-->
    <g transform=" translate(-0.150000,1.762500) ">
      <!--emf-blob start-->
      <g transform="translate(0.1422, 0.1422)">
        <g transform="matrix(0.0625 0.0000 0.0000 0.0625 0.0000 0.0000)">
          <path d="M 8.5345,59.7414 L 409.7974,59.7414 C 413.5668,59.7414 416.6250,56.6832 416.6250,52.9138 L 416.6250,8.5345 C 416.6250,4.7651 413.5668,1.7069 409.7974,1.7069 L 8.5345,1.7069 C 4.7651,1.7069 1.7069,4.7651 1.7069,8.5345 L 1.7069,52.9138 C 1.7069,56.6832 4.7651,59.7414 8.5345,59.7414 Z " fill="#D8D8D8" stroke="none"/>
        </g>
        <g transform="matrix(1.0000 0.0000 0.0000 1.0000 0.0000 0.0000)">
</g>
        <g transform="matrix(0.0625 0.0000 0.0000 0.0625 0.0000 0.0000)">
          <path d="M 8.5345,59.7414 L 409.7974,59.7414 C 413.5668,59.7414 416.6250,56.6832 416.6250,52.9138 L 416.6250,8.5345 C 416.6250,4.7651 413.5668,1.7069 409.7974,1.7069 L 8.5345,1.7069 C 4.7651,1.7069 1.7069,4.7651 1.7069,8.5345 L 1.7069,52.9138 C 1.7069,56.6832 4.7651,59.7414 8.5345,59.7414 Z " stroke="#A5A5A5" stroke-width="1.1379" stroke-linecap="butt" stroke-linejoin="miter" stroke-miterlimit="0.1422" fill="none"/>
        </g>
        <g transform="matrix(1.0000 0.0000 0.0000 1.0000 0.0000 0.0000)">
</g>
        <g transform="matrix(0.0625 0.0000 0.0000 0.0625 0.0000 0.0000)">
          <path d="M 59.9547,33.9957 L 59.9547,27.1681 L 66.5690,27.1681 L 66.5690,33.9957 L 59.9547,33.9957 Z" stroke="#3F3F3F" stroke-width="1.1379" stroke-linecap="round" stroke-linejoin="round" fill="none"/>
          <path d="M 56.4698,25.4612 L 56.4698,19.0603 " stroke="#3F3F3F" stroke-width="1.1379" stroke-linecap="round" stroke-linejoin="round" fill="none"/>
          <path d="M 56.4698,42.4591 L 56.4698,35.7026 L 52.7716,35.7026 " stroke="#3F3F3F" stroke-width="1.1379" stroke-linecap="round" stroke-linejoin="round" fill="none"/>
          <path d="M 56.4698,30.5819 L 59.9547,30.5819 " stroke="#3F3F3F" stroke-width="1.1379" stroke-linecap="round" stroke-linejoin="round" fill="none"/>
          <path d="M 56.4698,35.7026 L 56.4698,25.4612 L 52.7716,25.4612 " stroke="#3F3F3F" stroke-width="1.1379" stroke-linecap="round" stroke-linejoin="round" fill="none"/>
          <path d="M 46.0862,39.1875 L 46.0862,32.3599 L 52.7716,32.3599 L 52.7716,39.1875 L 46.0862,39.1875 Z" stroke="#3F3F3F" stroke-width="1.1379" stroke-linecap="round" stroke-linejoin="round" fill="none"/>
          <path d="M 46.0862,29.0172 L 46.0862,22.1897 L 52.7716,22.1897 L 52.7716,29.0172 L 46.0862,29.0172 Z" stroke="#3F3F3F" stroke-width="1.1379" stroke-linecap="round" stroke-linejoin="round" fill="none"/>
        </g>
        <g transform="matrix(1.0000 0.0000 0.0000 1.0000 0.0000 0.0000)">
          <path d="M 9.4591,0.2845 L 9.4591,0.3556 L 14.3664,0.3556 L 14.3664,0.2845 L 9.4591,0.2845 Z" stroke-width="1px" stroke="#A6A6A6" fill="#A6A6A6"/>
          <path d="M 9.4591,0.3556 L 9.4591,0.4267 L 14.3664,0.4267 L 14.3664,0.3556 L 9.4591,0.3556 Z" stroke-width="1px" stroke="#A8A8A8" fill="#A8A8A8"/>
          <path d="M 9.4591,0.4267 L 9.4591,0.4978 L 14.3664,0.4978 L 14.3664,0.4267 L 9.4591,0.4267 Z" stroke-width="1px" stroke="#AAAAAA" fill="#AAAAAA"/>
          <path d="M 9.4591,0.4978 L 9.4591,0.5690 L 14.3664,0.5690 L 14.3664,0.4978 L 9.4591,0.4978 Z" stroke-width="1px" stroke="#ADADAD" fill="#ADADAD"/>
          <path d="M 9.4591,0.5690 L 9.4591,0.6401 L 14.3664,0.6401 L 14.3664,0.5690 L 9.4591,0.5690 Z" stroke-width="1px" stroke="#AFAFAF" fill="#AFAFAF"/>
          <path d="M 9.4591,0.6401 L 9.4591,0.7112 L 14.3664,0.7112 L 14.3664,0.6401 L 9.4591,0.6401 Z" stroke-width="1px" stroke="#B2B2B2" fill="#B2B2B2"/>
          <path d="M 9.4591,0.7112 L 9.4591,0.7823 L 14.3664,0.7823 L 14.3664,0.7112 L 9.4591,0.7112 Z" stroke-width="1px" stroke="#B4B4B4" fill="#B4B4B4"/>
          <path d="M 9.4591,0.7823 L 9.4591,0.8534 L 14.3664,0.8534 L 14.3664,0.7823 L 9.4591,0.7823 Z" stroke-width="1px" stroke="#B6B6B6" fill="#B6B6B6"/>
          <path d="M 9.4591,0.8534 L 9.4591,0.9246 L 14.3664,0.9246 L 14.3664,0.8534 L 9.4591,0.8534 Z" stroke-width="1px" stroke="#B8B8B8" fill="#B8B8B8"/>
          <path d="M 9.4591,0.9246 L 9.4591,0.9957 L 14.3664,0.9957 L 14.3664,0.9246 L 9.4591,0.9246 Z" stroke-width="1px" stroke="#BABABA" fill="#BABABA"/>
          <path d="M 9.4591,0.9957 L 9.4591,1.0668 L 14.3664,1.0668 L 14.3664,0.9957 L 9.4591,0.9957 Z" stroke-width="1px" stroke="#BDBDBD" fill="#BDBDBD"/>
          <path d="M 9.4591,1.0668 L 9.4591,1.1379 L 14.3664,1.1379 L 14.3664,1.0668 L 9.4591,1.0668 Z" stroke-width="1px" stroke="#BFBFBF" fill="#BFBFBF"/>
          <path d="M 9.4591,1.1379 L 9.4591,1.2091 L 14.3664,1.2091 L 14.3664,1.1379 L 9.4591,1.1379 Z" stroke-width="1px" stroke="#C1C1C1" fill="#C1C1C1"/>
          <path d="M 9.4591,1.2091 L 9.4591,1.2802 L 14.3664,1.2802 L 14.3664,1.2091 L 9.4591,1.2091 Z" stroke-width="1px" stroke="#C3C3C3" fill="#C3C3C3"/>
          <path d="M 9.4591,1.2802 L 9.4591,1.3513 L 14.3664,1.3513 L 14.3664,1.2802 L 9.4591,1.2802 Z" stroke-width="1px" stroke="#C6C6C6" fill="#C6C6C6"/>
          <path d="M 9.4591,1.3513 L 9.4591,1.4224 L 14.3664,1.4224 L 14.3664,1.3513 L 9.4591,1.3513 Z" stroke-width="1px" stroke="#C8C8C8" fill="#C8C8C8"/>
          <path d="M 9.4591,1.4224 L 9.4591,1.4935 L 14.3664,1.4935 L 14.3664,1.4224 L 9.4591,1.4224 Z" stroke-width="1px" stroke="#CACACA" fill="#CACACA"/>
          <path d="M 9.4591,1.4935 L 9.4591,1.5647 L 14.3664,1.5647 L 14.3664,1.4935 L 9.4591,1.4935 Z" stroke-width="1px" stroke="#CDCDCD" fill="#CDCDCD"/>
          <path d="M 9.4591,1.5647 L 9.4591,1.6358 L 14.3664,1.6358 L 14.3664,1.5647 L 9.4591,1.5647 Z" stroke-width="1px" stroke="#CFCFCF" fill="#CFCFCF"/>
          <path d="M 9.4591,1.6358 L 9.4591,1.7069 L 14.3664,1.7069 L 14.3664,1.6358 L 9.4591,1.6358 Z" stroke-width="1px" stroke="#D1D1D1" fill="#D1D1D1"/>
          <path d="M 9.4591,1.7069 L 9.4591,1.7780 L 14.3664,1.7780 L 14.3664,1.7069 L 9.4591,1.7069 Z" stroke-width="1px" stroke="#D3D3D3" fill="#D3D3D3"/>
          <path d="M 9.4591,1.7780 L 9.4591,1.8491 L 14.3664,1.8491 L 14.3664,1.7780 L 9.4591,1.7780 Z" stroke-width="1px" stroke="#D6D6D6" fill="#D6D6D6"/>
          <path d="M 9.4591,1.8491 L 9.4591,1.9914 L 14.3664,1.9914 L 14.3664,1.8491 L 9.4591,1.8491 Z" stroke-width="1px" stroke="#D8D8D8" fill="#D8D8D8"/>
          <path d="M 9.4591,1.9914 L 9.4591,2.0625 L 14.3664,2.0625 L 14.3664,1.9914 L 9.4591,1.9914 Z" stroke-width="1px" stroke="#D5D5D5" fill="#D5D5D5"/>
          <path d="M 9.4591,2.0625 L 9.4591,2.1336 L 14.3664,2.1336 L 14.3664,2.0625 L 9.4591,2.0625 Z" stroke-width="1px" stroke="#D3D3D3" fill="#D3D3D3"/>
          <path d="M 9.4591,2.1336 L 9.4591,2.2047 L 14.3664,2.2047 L 14.3664,2.1336 L 9.4591,2.1336 Z" stroke-width="1px" stroke="#D1D1D1" fill="#D1D1D1"/>
          <path d="M 9.4591,2.2047 L 9.4591,2.2759 L 14.3664,2.2759 L 14.3664,2.2047 L 9.4591,2.2047 Z" stroke-width="1px" stroke="#CECECE" fill="#CECECE"/>
          <path d="M 9.4591,2.2759 L 9.4591,2.3470 L 14.3664,2.3470 L 14.3664,2.2759 L 9.4591,2.2759 Z" stroke-width="1px" stroke="#CCCCCC" fill="#CCCCCC"/>
          <path d="M 9.4591,2.3470 L 9.4591,2.4181 L 14.3664,2.4181 L 14.3664,2.3470 L 9.4591,2.3470 Z" stroke-width="1px" stroke="#CACACA" fill="#CACACA"/>
          <path d="M 9.4591,2.4181 L 9.4591,2.4892 L 14.3664,2.4892 L 14.3664,2.4181 L 9.4591,2.4181 Z" stroke-width="1px" stroke="#C8C8C8" fill="#C8C8C8"/>
          <path d="M 9.4591,2.4892 L 9.4591,2.5603 L 14.3664,2.5603 L 14.3664,2.4892 L 9.4591,2.4892 Z" stroke-width="1px" stroke="#C5C5C5" fill="#C5C5C5"/>
          <path d="M 9.4591,2.5603 L 9.4591,2.6315 L 14.3664,2.6315 L 14.3664,2.5603 L 9.4591,2.5603 Z" stroke-width="1px" stroke="#C3C3C3" fill="#C3C3C3"/>
          <path d="M 9.4591,2.6315 L 9.4591,2.7026 L 14.3664,2.7026 L 14.3664,2.6315 L 9.4591,2.6315 Z" stroke-width="1px" stroke="#C1C1C1" fill="#C1C1C1"/>
          <path d="M 9.4591,2.7026 L 9.4591,2.7737 L 14.3664,2.7737 L 14.3664,2.7026 L 9.4591,2.7026 Z" stroke-width="1px" stroke="#BEBEBE" fill="#BEBEBE"/>
          <path d="M 9.4591,2.7737 L 9.4591,2.8448 L 14.3664,2.8448 L 14.3664,2.7737 L 9.4591,2.7737 Z" stroke-width="1px" stroke="#BCBCBC" fill="#BCBCBC"/>
          <path d="M 9.4591,2.8448 L 9.4591,2.9159 L 14.3664,2.9159 L 14.3664,2.8448 L 9.4591,2.8448 Z" stroke-width="1px" stroke="#BABABA" fill="#BABABA"/>
          <path d="M 9.4591,2.9159 L 9.4591,2.9871 L 14.3664,2.9871 L 14.3664,2.9159 L 9.4591,2.9159 Z" stroke-width="1px" stroke="#B7B7B7" fill="#B7B7B7"/>
          <path d="M 9.4591,2.9871 L 9.4591,3.0582 L 14.3664,3.0582 L 14.3664,2.9871 L 9.4591,2.9871 Z" stroke-width="1px" stroke="#B5B5B5" fill="#B5B5B5"/>
          <path d="M 9.4591,3.0582 L 9.4591,3.1293 L 14.3664,3.1293 L 14.3664,3.0582 L 9.4591,3.0582 Z" stroke-width="1px" stroke="#B3B3B3" fill="#B3B3B3"/>
          <path d="M 9.4591,3.1293 L 9.4591,3.2004 L 14.3664,3.2004 L 14.3664,3.1293 L 9.4591,3.1293 Z" stroke-width="1px" stroke="#B0B0B0" fill="#B0B0B0"/>
          <path d="M 9.4591,3.2004 L 9.4591,3.2716 L 14.3664,3.2716 L 14.3664,3.2004 L 9.4591,3.2004 Z" stroke-width="1px" stroke="#AEAEAE" fill="#AEAEAE"/>
          <path d="M 9.4591,3.2716 L 9.4591,3.3427 L 14.3664,3.3427 L 14.3664,3.2716 L 9.4591,3.2716 Z" stroke-width="1px" stroke="#ACACAC" fill="#ACACAC"/>
          <path d="M 9.4591,3.3427 L 9.4591,3.4138 L 14.3664,3.4138 L 14.3664,3.3427 L 9.4591,3.3427 Z" stroke-width="1px" stroke="#A9A9A9" fill="#A9A9A9"/>
          <path d="M 9.4591,3.4138 L 9.4591,3.4849 L 14.3664,3.4849 L 14.3664,3.4138 L 9.4591,3.4138 Z" stroke-width="1px" stroke="#A7A7A7" fill="#A7A7A7"/>
        </g>
        <g transform="matrix(0.0625 0.0000 0.0000 0.0625 0.0000 0.0000)">
          <path d="M 151.9138,5.1207 L 151.9138,56.2565 L 230.4310,56.2565 L 230.4310,5.1207 L 151.9138,5.1207 Z" stroke="#404040" stroke-width="1.8491" stroke-linecap="round" stroke-linejoin="round" fill="none"/>
        </g>
        <g transform="matrix(1.0000 0.0000 0.0000 1.0000 0.0000 0.0000)">
</g>
        <g transform="matrix(0.0625 0.0000 0.0000 0.0625 0.0000 0.0000)">
          <path d="M 201.4138,56.3276 L 201.4138,53.2694 C 201.4138,52.7004 201.9116,52.2026 202.4806,52.2026 L 204.6853,52.2026 C 205.2543,52.2026 205.6810,51.7047 205.6810,51.1358 L 205.6810,45.5172 C 205.6810,44.8772 206.1789,44.4504 206.7478,44.4504 L 217.4871,44.4504 C 218.0560,44.4504 218.4828,43.9526 218.4828,43.3125 L 218.4828,11.2371 C 218.4828,10.6681 218.0560,10.1703 217.4871,10.1703 L 164.9289,10.1703 C 164.3599,10.1703 163.8621,10.6681 163.8621,11.2371 L 163.8621,43.3125 C 163.8621,43.9526 164.3599,44.4504 164.9289,44.4504 L 175.9526,44.4504 C 176.5216,44.4504 176.9483,44.8772 176.9483,45.5172 L 176.9483,51.1358 C 176.9483,51.7047 177.4461,52.2026 178.0151,52.2026 L 179.9353,52.2026 C 180.5043,52.2026 180.9310,52.7004 180.9310,53.2694 L 180.9310,56.3276 L 201.4138,56.3276 Z " fill="#000000" stroke="none"/>
        </g>
        <g transform="matrix(1.0000 0.0000 0.0000 1.0000 0.0000 0.0000)">
</g>
        <g transform="matrix(0.0625 0.0000 0.0000 0.0625 0.0000 0.0000)">
          <path d="M 205.3966,11.8060 L 205.3966,16.9978 L 208.2414,16.9978 L 208.2414,11.8060 L 205.3966,11.8060 Z" stroke-width="1px" stroke="#856427" fill="#856427"/>
        </g>
        <g transform="matrix(1.0000 0.0000 0.0000 1.0000 0.0000 0.0000)">
</g>
        <g transform="matrix(0.0625 0.0000 0.0000 0.0625 0.0000 0.0000)">
          <path d="M 200.9159,11.8060 L 200.9159,16.9978 L 203.7608,16.9978 L 203.7608,11.8060 L 200.9159,11.8060 Z" stroke-width="1px" stroke="#856427" fill="#856427"/>
        </g>
        <g transform="matrix(1.0000 0.0000 0.0000 1.0000 0.0000 0.0000)">
</g>
        <g transform="matrix(0.0625 0.0000 0.0000 0.0625 0.0000 0.0000)">
          <path d="M 192.0259,11.8060 L 192.0259,16.9978 L 194.8707,16.9978 L 194.8707,11.8060 L 192.0259,11.8060 Z" stroke-width="1px" stroke="#856427" fill="#856427"/>
        </g>
        <g transform="matrix(1.0000 0.0000 0.0000 1.0000 0.0000 0.0000)">
</g>
        <g transform="matrix(0.0625 0.0000 0.0000 0.0625 0.0000 0.0000)">
          <path d="M 196.5065,11.8060 L 196.5065,16.9978 L 199.2802,16.9978 L 199.2802,11.8060 L 196.5065,11.8060 Z" stroke-width="1px" stroke="#856427" fill="#856427"/>
        </g>
        <g transform="matrix(1.0000 0.0000 0.0000 1.0000 0.0000 0.0000)">
</g>
        <g transform="matrix(0.0625 0.0000 0.0000 0.0625 0.0000 0.0000)">
          <path d="M 187.5453,11.8060 L 187.5453,16.9978 L 190.3901,16.9978 L 190.3901,11.8060 L 187.5453,11.8060 Z" stroke-width="1px" stroke="#856427" fill="#856427"/>
        </g>
        <g transform="matrix(1.0000 0.0000 0.0000 1.0000 0.0000 0.0000)">
</g>
        <g transform="matrix(0.0625 0.0000 0.0000 0.0625 0.0000 0.0000)">
          <path d="M 183.1358,11.8060 L 183.1358,16.9978 L 185.9095,16.9978 L 185.9095,11.8060 L 183.1358,11.8060 Z" stroke-width="1px" stroke="#856427" fill="#856427"/>
        </g>
        <g transform="matrix(1.0000 0.0000 0.0000 1.0000 0.0000 0.0000)">
</g>
        <g transform="matrix(0.0625 0.0000 0.0000 0.0625 0.0000 0.0000)">
          <path d="M 178.6552,11.8060 L 178.6552,16.9978 L 181.5000,16.9978 L 181.5000,11.8060 L 178.6552,11.8060 Z" stroke-width="1px" stroke="#856427" fill="#856427"/>
        </g>
        <g transform="matrix(1.0000 0.0000 0.0000 1.0000 0.0000 0.0000)">
</g>
        <g transform="matrix(0.0625 0.0000 0.0000 0.0625 0.0000 0.0000)">
          <path d="M 174.1746,11.8060 L 174.1746,16.9978 L 177.0194,16.9978 L 177.0194,11.8060 L 174.1746,11.8060 Z" stroke-width="1px" stroke="#856427" fill="#856427"/>
        </g>
        <g transform="matrix(1.0000 0.0000 0.0000 1.0000 0.0000 0.0000)">
</g>
        <g transform="matrix(0.0625 0.0000 0.0000 0.0625 0.0000 0.0000)">
          <path d="M 217.9849,8.5345 L 217.9849,25.6034 L 226.5194,25.6034 L 226.5194,8.5345 L 217.9849,8.5345 Z" stroke-width="1px" stroke="#404040" fill="#404040"/>
        </g>
        <g transform="matrix(1.0000 0.0000 0.0000 1.0000 0.0000 0.0000)">
</g>
        <g transform="matrix(0.0625 0.0000 0.0000 0.0625 0.0000 0.0000)">
          <path d="M 217.9849,8.5345 L 217.9849,25.6034 L 226.5194,25.6034 L 226.5194,8.5345 L 217.9849,8.5345 Z" stroke="#262626" stroke-width="1.1379" stroke-linecap="round" stroke-linejoin="round" fill="none"/>
        </g>
        <g transform="matrix(1.0000 0.0000 0.0000 1.0000 0.0000 0.0000)">
</g>
        <g transform="matrix(0.0625 0.0000 0.0000 0.0625 0.0000 0.0000)">
          <path d="M 164.2177,25.6034 L 164.2177,8.5345 L 155.6832,8.5345 L 155.6832,25.6034 L 164.2177,25.6034 Z" stroke-width="1px" stroke="#404040" fill="#404040"/>
        </g>
        <g transform="matrix(1.0000 0.0000 0.0000 1.0000 0.0000 0.0000)">
</g>
        <g transform="matrix(0.0625 0.0000 0.0000 0.0625 0.0000 0.0000)">
          <path d="M 164.2177,25.6034 L 164.2177,8.5345 L 155.6832,8.5345 L 155.6832,25.6034 L 164.2177,25.6034 Z" stroke="#262626" stroke-width="1.1379" stroke-linecap="round" stroke-linejoin="round" fill="none"/>
        </g>
        <g transform="matrix(1.0000 0.0000 0.0000 1.0000 0.0000 0.0000)">
          <path d="M 15.2198,0.2845 L 15.2198,0.3556 L 20.1272,0.3556 L 20.1272,0.2845 L 15.2198,0.2845 Z" stroke-width="1px" stroke="#A6A6A6" fill="#A6A6A6"/>
          <path d="M 15.2198,0.3556 L 15.2198,0.4267 L 20.1272,0.4267 L 20.1272,0.3556 L 15.2198,0.3556 Z" stroke-width="1px" stroke="#A8A8A8" fill="#A8A8A8"/>
          <path d="M 15.2198,0.4267 L 15.2198,0.4978 L 20.1272,0.4978 L 20.1272,0.4267 L 15.2198,0.4267 Z" stroke-width="1px" stroke="#AAAAAA" fill="#AAAAAA"/>
          <path d="M 15.2198,0.4978 L 15.2198,0.5690 L 20.1272,0.5690 L 20.1272,0.4978 L 15.2198,0.4978 Z" stroke-width="1px" stroke="#ADADAD" fill="#ADADAD"/>
          <path d="M 15.2198,0.5690 L 15.2198,0.6401 L 20.1272,0.6401 L 20.1272,0.5690 L 15.2198,0.5690 Z" stroke-width="1px" stroke="#AFAFAF" fill="#AFAFAF"/>
          <path d="M 15.2198,0.6401 L 15.2198,0.7112 L 20.1272,0.7112 L 20.1272,0.6401 L 15.2198,0.6401 Z" stroke-width="1px" stroke="#B2B2B2" fill="#B2B2B2"/>
          <path d="M 15.2198,0.7112 L 15.2198,0.7823 L 20.1272,0.7823 L 20.1272,0.7112 L 15.2198,0.7112 Z" stroke-width="1px" stroke="#B4B4B4" fill="#B4B4B4"/>
          <path d="M 15.2198,0.7823 L 15.2198,0.8534 L 20.1272,0.8534 L 20.1272,0.7823 L 15.2198,0.7823 Z" stroke-width="1px" stroke="#B6B6B6" fill="#B6B6B6"/>
          <path d="M 15.2198,0.8534 L 15.2198,0.9246 L 20.1272,0.9246 L 20.1272,0.8534 L 15.2198,0.8534 Z" stroke-width="1px" stroke="#B8B8B8" fill="#B8B8B8"/>
          <path d="M 15.2198,0.9246 L 15.2198,0.9957 L 20.1272,0.9957 L 20.1272,0.9246 L 15.2198,0.9246 Z" stroke-width="1px" stroke="#BABABA" fill="#BABABA"/>
          <path d="M 15.2198,0.9957 L 15.2198,1.0668 L 20.1272,1.0668 L 20.1272,0.9957 L 15.2198,0.9957 Z" stroke-width="1px" stroke="#BDBDBD" fill="#BDBDBD"/>
          <path d="M 15.2198,1.0668 L 15.2198,1.1379 L 20.1272,1.1379 L 20.1272,1.0668 L 15.2198,1.0668 Z" stroke-width="1px" stroke="#BFBFBF" fill="#BFBFBF"/>
          <path d="M 15.2198,1.1379 L 15.2198,1.2091 L 20.1272,1.2091 L 20.1272,1.1379 L 15.2198,1.1379 Z" stroke-width="1px" stroke="#C1C1C1" fill="#C1C1C1"/>
          <path d="M 15.2198,1.2091 L 15.2198,1.2802 L 20.1272,1.2802 L 20.1272,1.2091 L 15.2198,1.2091 Z" stroke-width="1px" stroke="#C3C3C3" fill="#C3C3C3"/>
          <path d="M 15.2198,1.2802 L 15.2198,1.3513 L 20.1272,1.3513 L 20.1272,1.2802 L 15.2198,1.2802 Z" stroke-width="1px" stroke="#C6C6C6" fill="#C6C6C6"/>
          <path d="M 15.2198,1.3513 L 15.2198,1.4224 L 20.1272,1.4224 L 20.1272,1.3513 L 15.2198,1.3513 Z" stroke-width="1px" stroke="#C8C8C8" fill="#C8C8C8"/>
          <path d="M 15.2198,1.4224 L 15.2198,1.4935 L 20.1272,1.4935 L 20.1272,1.4224 L 15.2198,1.4224 Z" stroke-width="1px" stroke="#CACACA" fill="#CACACA"/>
          <path d="M 15.2198,1.4935 L 15.2198,1.5647 L 20.1272,1.5647 L 20.1272,1.4935 L 15.2198,1.4935 Z" stroke-width="1px" stroke="#CDCDCD" fill="#CDCDCD"/>
          <path d="M 15.2198,1.5647 L 15.2198,1.6358 L 20.1272,1.6358 L 20.1272,1.5647 L 15.2198,1.5647 Z" stroke-width="1px" stroke="#CFCFCF" fill="#CFCFCF"/>
          <path d="M 15.2198,1.6358 L 15.2198,1.7069 L 20.1272,1.7069 L 20.1272,1.6358 L 15.2198,1.6358 Z" stroke-width="1px" stroke="#D1D1D1" fill="#D1D1D1"/>
          <path d="M 15.2198,1.7069 L 15.2198,1.7780 L 20.1272,1.7780 L 20.1272,1.7069 L 15.2198,1.7069 Z" stroke-width="1px" stroke="#D3D3D3" fill="#D3D3D3"/>
          <path d="M 15.2198,1.7780 L 15.2198,1.8491 L 20.1272,1.8491 L 20.1272,1.7780 L 15.2198,1.7780 Z" stroke-width="1px" stroke="#D6D6D6" fill="#D6D6D6"/>
          <path d="M 15.2198,1.8491 L 15.2198,1.9914 L 20.1272,1.9914 L 20.1272,1.8491 L 15.2198,1.8491 Z" stroke-width="1px" stroke="#D8D8D8" fill="#D8D8D8"/>
          <path d="M 15.2198,1.9914 L 15.2198,2.0625 L 20.1272,2.0625 L 20.1272,1.9914 L 15.2198,1.9914 Z" stroke-width="1px" stroke="#D5D5D5" fill="#D5D5D5"/>
          <path d="M 15.2198,2.0625 L 15.2198,2.1336 L 20.1272,2.1336 L 20.1272,2.0625 L 15.2198,2.0625 Z" stroke-width="1px" stroke="#D3D3D3" fill="#D3D3D3"/>
          <path d="M 15.2198,2.1336 L 15.2198,2.2047 L 20.1272,2.2047 L 20.1272,2.1336 L 15.2198,2.1336 Z" stroke-width="1px" stroke="#D1D1D1" fill="#D1D1D1"/>
          <path d="M 15.2198,2.2047 L 15.2198,2.2759 L 20.1272,2.2759 L 20.1272,2.2047 L 15.2198,2.2047 Z" stroke-width="1px" stroke="#CECECE" fill="#CECECE"/>
          <path d="M 15.2198,2.2759 L 15.2198,2.3470 L 20.1272,2.3470 L 20.1272,2.2759 L 15.2198,2.2759 Z" stroke-width="1px" stroke="#CCCCCC" fill="#CCCCCC"/>
          <path d="M 15.2198,2.3470 L 15.2198,2.4181 L 20.1272,2.4181 L 20.1272,2.3470 L 15.2198,2.3470 Z" stroke-width="1px" stroke="#CACACA" fill="#CACACA"/>
          <path d="M 15.2198,2.4181 L 15.2198,2.4892 L 20.1272,2.4892 L 20.1272,2.4181 L 15.2198,2.4181 Z" stroke-width="1px" stroke="#C8C8C8" fill="#C8C8C8"/>
          <path d="M 15.2198,2.4892 L 15.2198,2.5603 L 20.1272,2.5603 L 20.1272,2.4892 L 15.2198,2.4892 Z" stroke-width="1px" stroke="#C5C5C5" fill="#C5C5C5"/>
          <path d="M 15.2198,2.5603 L 15.2198,2.6315 L 20.1272,2.6315 L 20.1272,2.5603 L 15.2198,2.5603 Z" stroke-width="1px" stroke="#C3C3C3" fill="#C3C3C3"/>
          <path d="M 15.2198,2.6315 L 15.2198,2.7026 L 20.1272,2.7026 L 20.1272,2.6315 L 15.2198,2.6315 Z" stroke-width="1px" stroke="#C1C1C1" fill="#C1C1C1"/>
          <path d="M 15.2198,2.7026 L 15.2198,2.7737 L 20.1272,2.7737 L 20.1272,2.7026 L 15.2198,2.7026 Z" stroke-width="1px" stroke="#BEBEBE" fill="#BEBEBE"/>
          <path d="M 15.2198,2.7737 L 15.2198,2.8448 L 20.1272,2.8448 L 20.1272,2.7737 L 15.2198,2.7737 Z" stroke-width="1px" stroke="#BCBCBC" fill="#BCBCBC"/>
          <path d="M 15.2198,2.8448 L 15.2198,2.9159 L 20.1272,2.9159 L 20.1272,2.8448 L 15.2198,2.8448 Z" stroke-width="1px" stroke="#BABABA" fill="#BABABA"/>
          <path d="M 15.2198,2.9159 L 15.2198,2.9871 L 20.1272,2.9871 L 20.1272,2.9159 L 15.2198,2.9159 Z" stroke-width="1px" stroke="#B7B7B7" fill="#B7B7B7"/>
          <path d="M 15.2198,2.9871 L 15.2198,3.0582 L 20.1272,3.0582 L 20.1272,2.9871 L 15.2198,2.9871 Z" stroke-width="1px" stroke="#B5B5B5" fill="#B5B5B5"/>
          <path d="M 15.2198,3.0582 L 15.2198,3.1293 L 20.1272,3.1293 L 20.1272,3.0582 L 15.2198,3.0582 Z" stroke-width="1px" stroke="#B3B3B3" fill="#B3B3B3"/>
          <path d="M 15.2198,3.1293 L 15.2198,3.2004 L 20.1272,3.2004 L 20.1272,3.1293 L 15.2198,3.1293 Z" stroke-width="1px" stroke="#B0B0B0" fill="#B0B0B0"/>
          <path d="M 15.2198,3.2004 L 15.2198,3.2716 L 20.1272,3.2716 L 20.1272,3.2004 L 15.2198,3.2004 Z" stroke-width="1px" stroke="#AEAEAE" fill="#AEAEAE"/>
          <path d="M 15.2198,3.2716 L 15.2198,3.3427 L 20.1272,3.3427 L 20.1272,3.2716 L 15.2198,3.2716 Z" stroke-width="1px" stroke="#ACACAC" fill="#ACACAC"/>
          <path d="M 15.2198,3.3427 L 15.2198,3.4138 L 20.1272,3.4138 L 20.1272,3.3427 L 15.2198,3.3427 Z" stroke-width="1px" stroke="#A9A9A9" fill="#A9A9A9"/>
          <path d="M 15.2198,3.4138 L 15.2198,3.4849 L 20.1272,3.4849 L 20.1272,3.4138 L 15.2198,3.4138 Z" stroke-width="1px" stroke="#A7A7A7" fill="#A7A7A7"/>
        </g>
        <g transform="matrix(0.0625 0.0000 0.0000 0.0625 0.0000 0.0000)">
          <path d="M 244.0862,5.1207 L 244.0862,56.2565 L 322.6034,56.2565 L 322.6034,5.1207 L 244.0862,5.1207 Z" stroke="#404040" stroke-width="1.8491" stroke-linecap="round" stroke-linejoin="round" fill="none"/>
        </g>
        <g transform="matrix(1.0000 0.0000 0.0000 1.0000 0.0000 0.0000)">
</g>
        <g transform="matrix(0.0625 0.0000 0.0000 0.0625 0.0000 0.0000)">
          <path d="M 293.5862,56.3276 L 293.5862,53.2694 C 293.5862,52.7004 294.0841,52.2026 294.6530,52.2026 L 296.8578,52.2026 C 297.4267,52.2026 297.8534,51.7047 297.8534,51.1358 L 297.8534,45.5172 C 297.8534,44.8772 298.3513,44.4504 298.9203,44.4504 L 309.6595,44.4504 C 310.2284,44.4504 310.6552,43.9526 310.6552,43.3125 L 310.6552,11.2371 C 310.6552,10.6681 310.2284,10.1703 309.6595,10.1703 L 257.1013,10.1703 C 256.5323,10.1703 256.0345,10.6681 256.0345,11.2371 L 256.0345,43.3125 C 256.0345,43.9526 256.5323,44.4504 257.1013,44.4504 L 268.1250,44.4504 C 268.6940,44.4504 269.1207,44.8772 269.1207,45.5172 L 269.1207,51.1358 C 269.1207,51.7047 269.6185,52.2026 270.1875,52.2026 L 272.1078,52.2026 C 272.6767,52.2026 273.1034,52.7004 273.1034,53.2694 L 273.1034,56.3276 L 293.5862,56.3276 Z " fill="#000000" stroke="none"/>
        </g>
        <g transform="matrix(1.0000 0.0000 0.0000 1.0000 0.0000 0.0000)">
</g>
        <g transform="matrix(0.0625 0.0000 0.0000 0.0625 0.0000 0.0000)">
          <path d="M 297.5690,11.8060 L 297.5690,16.9978 L 300.4138,16.9978 L 300.4138,11.8060 L 297.5690,11.8060 Z" stroke-width="1px" stroke="#856427" fill="#856427"/>
        </g>
        <g transform="matrix(1.0000 0.0000 0.0000 1.0000 0.0000 0.0000)">
</g>
        <g transform="matrix(0.0625 0.0000 0.0000 0.0625 0.0000 0.0000)">
          <path d="M 293.0884,11.8060 L 293.0884,16.9978 L 295.9332,16.9978 L 295.9332,11.8060 L 293.0884,11.8060 Z" stroke-width="1px" stroke="#856427" fill="#856427"/>
        </g>
        <g transform="matrix(1.0000 0.0000 0.0000 1.0000 0.0000 0.0000)">
</g>
        <g transform="matrix(0.0625 0.0000 0.0000 0.0625 0.0000 0.0000)">
          <path d="M 284.1983,11.8060 L 284.1983,16.9978 L 287.0431,16.9978 L 287.0431,11.8060 L 284.1983,11.8060 Z" stroke-width="1px" stroke="#856427" fill="#856427"/>
        </g>
        <g transform="matrix(1.0000 0.0000 0.0000 1.0000 0.0000 0.0000)">
</g>
        <g transform="matrix(0.0625 0.0000 0.0000 0.0625 0.0000 0.0000)">
          <path d="M 288.6789,11.8060 L 288.6789,16.9978 L 291.4526,16.9978 L 291.4526,11.8060 L 288.6789,11.8060 Z" stroke-width="1px" stroke="#856427" fill="#856427"/>
        </g>
        <g transform="matrix(1.0000 0.0000 0.0000 1.0000 0.0000 0.0000)">
</g>
        <g transform="matrix(0.0625 0.0000 0.0000 0.0625 0.0000 0.0000)">
          <path d="M 279.7177,11.8060 L 279.7177,16.9978 L 282.5625,16.9978 L 282.5625,11.8060 L 279.7177,11.8060 Z" stroke-width="1px" stroke="#856427" fill="#856427"/>
        </g>
        <g transform="matrix(1.0000 0.0000 0.0000 1.0000 0.0000 0.0000)">
</g>
        <g transform="matrix(0.0625 0.0000 0.0000 0.0625 0.0000 0.0000)">
          <path d="M 275.3082,11.8060 L 275.3082,16.9978 L 278.0819,16.9978 L 278.0819,11.8060 L 275.3082,11.8060 Z" stroke-width="1px" stroke="#856427" fill="#856427"/>
        </g>
        <g transform="matrix(1.0000 0.0000 0.0000 1.0000 0.0000 0.0000)">
</g>
        <g transform="matrix(0.0625 0.0000 0.0000 0.0625 0.0000 0.0000)">
          <path d="M 270.8276,11.8060 L 270.8276,16.9978 L 273.6724,16.9978 L 273.6724,11.8060 L 270.8276,11.8060 Z" stroke-width="1px" stroke="#856427" fill="#856427"/>
        </g>
        <g transform="matrix(1.0000 0.0000 0.0000 1.0000 0.0000 0.0000)">
</g>
        <g transform="matrix(0.0625 0.0000 0.0000 0.0625 0.0000 0.0000)">
          <path d="M 266.3470,11.8060 L 266.3470,16.9978 L 269.1918,16.9978 L 269.1918,11.8060 L 266.3470,11.8060 Z" stroke-width="1px" stroke="#856427" fill="#856427"/>
        </g>
        <g transform="matrix(1.0000 0.0000 0.0000 1.0000 0.0000 0.0000)">
</g>
        <g transform="matrix(0.0625 0.0000 0.0000 0.0625 0.0000 0.0000)">
          <path d="M 310.1573,8.5345 L 310.1573,25.6034 L 318.6918,25.6034 L 318.6918,8.5345 L 310.1573,8.5345 Z" stroke-width="1px" stroke="#404040" fill="#404040"/>
        </g>
        <g transform="matrix(1.0000 0.0000 0.0000 1.0000 0.0000 0.0000)">
</g>
        <g transform="matrix(0.0625 0.0000 0.0000 0.0625 0.0000 0.0000)">
          <path d="M 310.1573,8.5345 L 310.1573,25.6034 L 318.6918,25.6034 L 318.6918,8.5345 L 310.1573,8.5345 Z" stroke="#262626" stroke-width="1.1379" stroke-linecap="round" stroke-linejoin="round" fill="none"/>
        </g>
        <g transform="matrix(1.0000 0.0000 0.0000 1.0000 0.0000 0.0000)">
</g>
        <g transform="matrix(0.0625 0.0000 0.0000 0.0625 0.0000 0.0000)">
          <path d="M 256.3901,25.6034 L 256.3901,8.5345 L 247.8556,8.5345 L 247.8556,25.6034 L 256.3901,25.6034 Z" stroke-width="1px" stroke="#404040" fill="#404040"/>
        </g>
        <g transform="matrix(1.0000 0.0000 0.0000 1.0000 0.0000 0.0000)">
</g>
        <g transform="matrix(0.0625 0.0000 0.0000 0.0625 0.0000 0.0000)">
          <path d="M 256.3901,25.6034 L 256.3901,8.5345 L 247.8556,8.5345 L 247.8556,25.6034 L 256.3901,25.6034 Z" stroke="#262626" stroke-width="1.1379" stroke-linecap="round" stroke-linejoin="round" fill="none"/>
        </g>
        <g transform="matrix(1.0000 0.0000 0.0000 1.0000 0.0000 0.0000)">
</g>
      </g>
      <!--emf-blob end-->
    </g>
  </g>
</svg>
