<svg xmlns="http://www.w3.org/2000/svg" xmlns:xlink="http://www.w3.org/1999/xlink" version="1.1" width="27.3451000000" height="3.8250000000">
  <title><![CDATA[UCSW-PCIE-MX2GIB]]></title>
  <g transform=" scale(1.000000) ">
    <!--converted by libvisio2svg-->
    <g transform=" translate(-0.150000,1.762500) ">
      <!--emf-blob start-->
      <g transform="translate(0.1422, 0.1422)">
        <g transform="matrix(0.0625 0.0000 0.0000 0.0625 0.0000 0.0000)">
          <path d="M 8.5345,59.7414 L 409.7974,59.7414 C 413.5668,59.7414 416.6250,56.6832 416.6250,52.9138 L 416.6250,8.5345 C 416.6250,4.7651 413.5668,1.7069 409.7974,1.7069 L 8.5345,1.7069 C 4.7651,1.7069 1.7069,4.7651 1.7069,8.5345 L 1.7069,52.9138 C 1.7069,56.6832 4.7651,59.7414 8.5345,59.7414 Z " fill="#D8D8D8" stroke="none"/>
        </g>
        <g transform="matrix(1.0000 0.0000 0.0000 1.0000 0.0000 0.0000)">
</g>
        <g transform="matrix(0.0625 0.0000 0.0000 0.0625 0.0000 0.0000)">
          <path d="M 8.5345,59.7414 L 409.7974,59.7414 C 413.5668,59.7414 416.6250,56.6832 416.6250,52.9138 L 416.6250,8.5345 C 416.6250,4.7651 413.5668,1.7069 409.7974,1.7069 L 8.5345,1.7069 C 4.7651,1.7069 1.7069,4.7651 1.7069,8.5345 L 1.7069,52.9138 C 1.7069,56.6832 4.7651,59.7414 8.5345,59.7414 Z " stroke="#A5A5A5" stroke-width="1.1379" stroke-linecap="butt" stroke-linejoin="miter" stroke-miterlimit="0.1422" fill="none"/>
        </g>
        <g transform="matrix(1.0000 0.0000 0.0000 1.0000 0.0000 0.0000)">
</g>
        <g transform="matrix(0.0625 0.0000 0.0000 0.0625 0.0000 0.0000)">
          <path d="M 201.8405,53.6961 C 201.8405,56.3987 204.0453,58.6746 206.8190,58.6746 C 209.5216,58.6746 211.7263,56.3987 211.7263,53.6961 C 211.7263,50.9935 209.5216,48.7177 206.8190,48.7177 C 204.0453,48.7177 201.8405,50.9935 201.8405,53.6961 " fill="#262626" stroke="none"/>
        </g>
        <g transform="matrix(1.0000 0.0000 0.0000 1.0000 0.0000 0.0000)">
</g>
        <g transform="matrix(0.0625 0.0000 0.0000 0.0625 0.0000 0.0000)">
          <path d="M 201.8405,53.6961 M 201.8405,53.6961 C 201.8405,56.3987 204.0453,58.6746 206.8190,58.6746 C 209.5216,58.6746 211.7263,56.3987 211.7263,53.6961 C 211.7263,50.9935 209.5216,48.7177 206.8190,48.7177 C 204.0453,48.7177 201.8405,50.9935 201.8405,53.6961 " stroke="#BFBFBF" stroke-width="1.1379" stroke-linecap="round" stroke-linejoin="round" fill="none"/>
        </g>
        <g transform="matrix(1.0000 0.0000 0.0000 1.0000 0.0000 0.0000)">
</g>
        <g transform="matrix(0.0625 0.0000 0.0000 0.0625 0.0000 0.0000)">
          <path d="M 201.8405,42.1034 C 201.8405,44.8060 204.0453,47.0108 206.8190,47.0108 C 209.5216,47.0108 211.7263,44.8060 211.7263,42.1034 C 211.7263,39.3297 209.5216,37.1250 206.8190,37.1250 C 204.0453,37.1250 201.8405,39.3297 201.8405,42.1034 " fill="#262626" stroke="none"/>
        </g>
        <g transform="matrix(1.0000 0.0000 0.0000 1.0000 0.0000 0.0000)">
</g>
        <g transform="matrix(0.0625 0.0000 0.0000 0.0625 0.0000 0.0000)">
          <path d="M 201.8405,42.1034 M 201.8405,42.1034 C 201.8405,44.8060 204.0453,47.0108 206.8190,47.0108 C 209.5216,47.0108 211.7263,44.8060 211.7263,42.1034 C 211.7263,39.3297 209.5216,37.1250 206.8190,37.1250 C 204.0453,37.1250 201.8405,39.3297 201.8405,42.1034 " stroke="#BFBFBF" stroke-width="1.1379" stroke-linecap="round" stroke-linejoin="round" fill="none"/>
        </g>
        <g transform="matrix(1.0000 0.0000 0.0000 1.0000 0.0000 0.0000)">
</g>
        <g transform="matrix(0.0625 0.0000 0.0000 0.0625 0.0000 0.0000)">
          <path d="M 201.8405,30.5108 C 201.8405,33.2134 204.0453,35.4181 206.8190,35.4181 C 209.5216,35.4181 211.7263,33.2134 211.7263,30.5108 C 211.7263,27.7371 209.5216,25.5323 206.8190,25.5323 C 204.0453,25.5323 201.8405,27.7371 201.8405,30.5108 " fill="#262626" stroke="none"/>
        </g>
        <g transform="matrix(1.0000 0.0000 0.0000 1.0000 0.0000 0.0000)">
</g>
        <g transform="matrix(0.0625 0.0000 0.0000 0.0625 0.0000 0.0000)">
          <path d="M 201.8405,30.5108 M 201.8405,30.5108 C 201.8405,33.2134 204.0453,35.4181 206.8190,35.4181 C 209.5216,35.4181 211.7263,33.2134 211.7263,30.5108 C 211.7263,27.7371 209.5216,25.5323 206.8190,25.5323 C 204.0453,25.5323 201.8405,27.7371 201.8405,30.5108 " stroke="#BFBFBF" stroke-width="1.1379" stroke-linecap="round" stroke-linejoin="round" fill="none"/>
        </g>
        <g transform="matrix(1.0000 0.0000 0.0000 1.0000 0.0000 0.0000)">
</g>
        <g transform="matrix(0.0625 0.0000 0.0000 0.0625 0.0000 0.0000)">
          <path d="M 201.8405,18.8470 C 201.8405,21.6207 204.0453,23.8254 206.8190,23.8254 C 209.5216,23.8254 211.7263,21.6207 211.7263,18.8470 C 211.7263,16.1444 209.5216,13.9397 206.8190,13.9397 C 204.0453,13.9397 201.8405,16.1444 201.8405,18.8470 " fill="#262626" stroke="none"/>
        </g>
        <g transform="matrix(1.0000 0.0000 0.0000 1.0000 0.0000 0.0000)">
</g>
        <g transform="matrix(0.0625 0.0000 0.0000 0.0625 0.0000 0.0000)">
          <path d="M 201.8405,18.8470 M 201.8405,18.8470 C 201.8405,21.6207 204.0453,23.8254 206.8190,23.8254 C 209.5216,23.8254 211.7263,21.6207 211.7263,18.8470 C 211.7263,16.1444 209.5216,13.9397 206.8190,13.9397 C 204.0453,13.9397 201.8405,16.1444 201.8405,18.8470 " stroke="#BFBFBF" stroke-width="1.1379" stroke-linecap="round" stroke-linejoin="round" fill="none"/>
        </g>
        <g transform="matrix(1.0000 0.0000 0.0000 1.0000 0.0000 0.0000)">
</g>
        <g transform="matrix(0.0625 0.0000 0.0000 0.0625 0.0000 0.0000)">
          <path d="M 109.0991,18.8470 L 109.0991,53.1272 C 109.0991,54.3362 110.0948,55.2608 111.3039,55.2608 L 188.6121,55.2608 C 189.8211,55.2608 190.8168,54.3362 190.8168,53.1272 L 190.8168,18.8470 C 190.8168,17.6379 189.8211,16.7134 188.6121,16.7134 L 111.3039,16.7134 C 110.0948,16.7134 109.0991,17.6379 109.0991,18.8470 Z " fill="#5F5F5F" stroke="none"/>
        </g>
        <g transform="matrix(1.0000 0.0000 0.0000 1.0000 0.0000 0.0000)">
</g>
        <g transform="matrix(0.0625 0.0000 0.0000 0.0625 0.0000 0.0000)">
          <path d="M 109.0991,18.8470 L 109.0991,53.1272 C 109.0991,54.3362 110.0948,55.2608 111.3039,55.2608 L 188.6121,55.2608 C 189.8211,55.2608 190.8168,54.3362 190.8168,53.1272 L 190.8168,18.8470 C 190.8168,17.6379 189.8211,16.7134 188.6121,16.7134 L 111.3039,16.7134 C 110.0948,16.7134 109.0991,17.6379 109.0991,18.8470 Z " stroke="#000000" stroke-width="1.1379" stroke-linecap="round" stroke-linejoin="round" fill="none"/>
        </g>
        <g transform="matrix(1.0000 0.0000 0.0000 1.0000 0.0000 0.0000)">
</g>
        <g transform="matrix(0.0625 0.0000 0.0000 0.0625 0.0000 0.0000)">
          <path d="M 109.9526,49.3578 L 109.9526,51.4203 C 109.9526,52.6293 110.9483,53.5539 112.1573,53.5539 L 187.9720,53.5539 C 189.1810,53.5539 190.1767,52.6293 190.1767,51.4203 L 190.1767,49.3578 C 190.1767,48.1487 189.1810,47.1530 187.9720,47.1530 L 112.1573,47.1530 C 110.9483,47.1530 109.9526,48.1487 109.9526,49.3578 Z " fill="#808080" stroke="none"/>
        </g>
        <g transform="matrix(1.0000 0.0000 0.0000 1.0000 0.0000 0.0000)">
</g>
        <g transform="matrix(0.0625 0.0000 0.0000 0.0625 0.0000 0.0000)">
          <path d="M 109.9526,49.3578 L 109.9526,51.4203 C 109.9526,52.6293 110.9483,53.5539 112.1573,53.5539 L 187.9720,53.5539 C 189.1810,53.5539 190.1767,52.6293 190.1767,51.4203 L 190.1767,49.3578 C 190.1767,48.1487 189.1810,47.1530 187.9720,47.1530 L 112.1573,47.1530 C 110.9483,47.1530 109.9526,48.1487 109.9526,49.3578 Z " stroke="#000000" stroke-width="1.1379" stroke-linecap="round" stroke-linejoin="round" fill="none"/>
        </g>
        <g transform="matrix(1.0000 0.0000 0.0000 1.0000 0.0000 0.0000)">
</g>
        <g transform="matrix(0.0625 0.0000 0.0000 0.0625 0.0000 0.0000)">
          <path d="M 177.1616,53.5539 C 177.1616,54.2651 177.7306,54.8341 178.4418,54.8341 L 186.5496,54.8341 C 187.2608,54.8341 187.8297,54.2651 187.8297,53.5539 C 187.8297,52.9138 187.2608,52.2737 186.5496,52.2737 L 178.4418,52.2737 C 177.7306,52.2737 177.1616,52.9138 177.1616,53.5539 Z " fill="#866B00" stroke="none"/>
        </g>
        <g transform="matrix(1.0000 0.0000 0.0000 1.0000 0.0000 0.0000)">
</g>
        <g transform="matrix(0.0625 0.0000 0.0000 0.0625 0.0000 0.0000)">
          <path d="M 177.1616,53.5539 C 177.1616,54.2651 177.7306,54.8341 178.4418,54.8341 L 186.5496,54.8341 C 187.2608,54.8341 187.8297,54.2651 187.8297,53.5539 C 187.8297,52.9138 187.2608,52.2737 186.5496,52.2737 L 178.4418,52.2737 C 177.7306,52.2737 177.1616,52.9138 177.1616,53.5539 Z " stroke="#000000" stroke-width="1.1379" stroke-linecap="round" stroke-linejoin="round" fill="none"/>
        </g>
        <g transform="matrix(1.0000 0.0000 0.0000 1.0000 0.0000 0.0000)">
</g>
        <g transform="matrix(0.0625 0.0000 0.0000 0.0625 0.0000 0.0000)">
          <path d="M 164.1466,53.5539 C 164.1466,54.2651 164.7155,54.8341 165.4267,54.8341 L 173.5345,54.8341 C 174.2457,54.8341 174.8147,54.2651 174.8147,53.5539 C 174.8147,52.9138 174.2457,52.2737 173.5345,52.2737 L 165.4267,52.2737 C 164.7155,52.2737 164.1466,52.9138 164.1466,53.5539 Z " fill="#866B00" stroke="none"/>
        </g>
        <g transform="matrix(1.0000 0.0000 0.0000 1.0000 0.0000 0.0000)">
</g>
        <g transform="matrix(0.0625 0.0000 0.0000 0.0625 0.0000 0.0000)">
          <path d="M 164.1466,53.5539 C 164.1466,54.2651 164.7155,54.8341 165.4267,54.8341 L 173.5345,54.8341 C 174.2457,54.8341 174.8147,54.2651 174.8147,53.5539 C 174.8147,52.9138 174.2457,52.2737 173.5345,52.2737 L 165.4267,52.2737 C 164.7155,52.2737 164.1466,52.9138 164.1466,53.5539 Z " stroke="#000000" stroke-width="1.1379" stroke-linecap="round" stroke-linejoin="round" fill="none"/>
        </g>
        <g transform="matrix(1.0000 0.0000 0.0000 1.0000 0.0000 0.0000)">
</g>
        <g transform="matrix(0.0625 0.0000 0.0000 0.0625 0.0000 0.0000)">
          <path d="M 151.1315,53.5539 C 151.1315,54.2651 151.7004,54.8341 152.4116,54.8341 L 160.5194,54.8341 C 161.2306,54.8341 161.7996,54.2651 161.7996,53.5539 C 161.7996,52.9138 161.2306,52.2737 160.5194,52.2737 L 152.4116,52.2737 C 151.7004,52.2737 151.1315,52.9138 151.1315,53.5539 Z " fill="#866B00" stroke="none"/>
        </g>
        <g transform="matrix(1.0000 0.0000 0.0000 1.0000 0.0000 0.0000)">
</g>
        <g transform="matrix(0.0625 0.0000 0.0000 0.0625 0.0000 0.0000)">
          <path d="M 151.1315,53.5539 C 151.1315,54.2651 151.7004,54.8341 152.4116,54.8341 L 160.5194,54.8341 C 161.2306,54.8341 161.7996,54.2651 161.7996,53.5539 C 161.7996,52.9138 161.2306,52.2737 160.5194,52.2737 L 152.4116,52.2737 C 151.7004,52.2737 151.1315,52.9138 151.1315,53.5539 Z " stroke="#000000" stroke-width="1.1379" stroke-linecap="round" stroke-linejoin="round" fill="none"/>
        </g>
        <g transform="matrix(1.0000 0.0000 0.0000 1.0000 0.0000 0.0000)">
</g>
        <g transform="matrix(0.0625 0.0000 0.0000 0.0625 0.0000 0.0000)">
          <path d="M 138.1164,53.5539 C 138.1164,54.2651 138.6853,54.8341 139.3966,54.8341 L 147.5043,54.8341 C 148.2155,54.8341 148.7845,54.2651 148.7845,53.5539 C 148.7845,52.9138 148.2155,52.2737 147.5043,52.2737 L 139.3966,52.2737 C 138.6853,52.2737 138.1164,52.9138 138.1164,53.5539 Z " fill="#866B00" stroke="none"/>
        </g>
        <g transform="matrix(1.0000 0.0000 0.0000 1.0000 0.0000 0.0000)">
</g>
        <g transform="matrix(0.0625 0.0000 0.0000 0.0625 0.0000 0.0000)">
          <path d="M 138.1164,53.5539 C 138.1164,54.2651 138.6853,54.8341 139.3966,54.8341 L 147.5043,54.8341 C 148.2155,54.8341 148.7845,54.2651 148.7845,53.5539 C 148.7845,52.9138 148.2155,52.2737 147.5043,52.2737 L 139.3966,52.2737 C 138.6853,52.2737 138.1164,52.9138 138.1164,53.5539 Z " stroke="#000000" stroke-width="1.1379" stroke-linecap="round" stroke-linejoin="round" fill="none"/>
        </g>
        <g transform="matrix(1.0000 0.0000 0.0000 1.0000 0.0000 0.0000)">
</g>
        <g transform="matrix(0.0625 0.0000 0.0000 0.0625 0.0000 0.0000)">
          <path d="M 125.1013,53.5539 C 125.1013,54.2651 125.6703,54.8341 126.3815,54.8341 L 134.4892,54.8341 C 135.2004,54.8341 135.7694,54.2651 135.7694,53.5539 C 135.7694,52.9138 135.2004,52.2737 134.4892,52.2737 L 126.3815,52.2737 C 125.6703,52.2737 125.1013,52.9138 125.1013,53.5539 Z " fill="#866B00" stroke="none"/>
        </g>
        <g transform="matrix(1.0000 0.0000 0.0000 1.0000 0.0000 0.0000)">
</g>
        <g transform="matrix(0.0625 0.0000 0.0000 0.0625 0.0000 0.0000)">
          <path d="M 125.1013,53.5539 C 125.1013,54.2651 125.6703,54.8341 126.3815,54.8341 L 134.4892,54.8341 C 135.2004,54.8341 135.7694,54.2651 135.7694,53.5539 C 135.7694,52.9138 135.2004,52.2737 134.4892,52.2737 L 126.3815,52.2737 C 125.6703,52.2737 125.1013,52.9138 125.1013,53.5539 Z " stroke="#000000" stroke-width="1.1379" stroke-linecap="round" stroke-linejoin="round" fill="none"/>
        </g>
        <g transform="matrix(1.0000 0.0000 0.0000 1.0000 0.0000 0.0000)">
</g>
        <g transform="matrix(0.0625 0.0000 0.0000 0.0625 0.0000 0.0000)">
          <path d="M 112.0862,53.5539 C 112.0862,54.2651 112.6552,54.8341 113.3664,54.8341 L 121.4741,54.8341 C 122.1853,54.8341 122.7543,54.2651 122.7543,53.5539 C 122.7543,52.9138 122.1853,52.2737 121.4741,52.2737 L 113.3664,52.2737 C 112.6552,52.2737 112.0862,52.9138 112.0862,53.5539 Z " fill="#866B00" stroke="none"/>
        </g>
        <g transform="matrix(1.0000 0.0000 0.0000 1.0000 0.0000 0.0000)">
</g>
        <g transform="matrix(0.0625 0.0000 0.0000 0.0625 0.0000 0.0000)">
          <path d="M 112.0862,53.5539 C 112.0862,54.2651 112.6552,54.8341 113.3664,54.8341 L 121.4741,54.8341 C 122.1853,54.8341 122.7543,54.2651 122.7543,53.5539 C 122.7543,52.9138 122.1853,52.2737 121.4741,52.2737 L 113.3664,52.2737 C 112.6552,52.2737 112.0862,52.9138 112.0862,53.5539 Z " stroke="#000000" stroke-width="1.1379" stroke-linecap="round" stroke-linejoin="round" fill="none"/>
        </g>
        <g transform="matrix(1.0000 0.0000 0.0000 1.0000 0.0000 0.0000)">
</g>
        <g transform="matrix(0.0625 0.0000 0.0000 0.0625 0.0000 0.0000)">
          <path d="M 160.3060,18.9892 C 160.3060,20.1983 161.2306,21.1228 162.4397,21.1228 L 170.1207,21.1228 C 171.2586,21.1228 172.2543,20.1983 172.2543,18.9892 C 172.2543,17.8513 171.2586,16.8556 170.1207,16.8556 L 162.4397,16.8556 C 161.2306,16.8556 160.3060,17.8513 160.3060,18.9892 Z " fill="#866B00" stroke="none"/>
        </g>
        <g transform="matrix(1.0000 0.0000 0.0000 1.0000 0.0000 0.0000)">
</g>
        <g transform="matrix(0.0625 0.0000 0.0000 0.0625 0.0000 0.0000)">
          <path d="M 160.3060,18.9892 C 160.3060,20.1983 161.2306,21.1228 162.4397,21.1228 L 170.1207,21.1228 C 171.2586,21.1228 172.2543,20.1983 172.2543,18.9892 C 172.2543,17.8513 171.2586,16.8556 170.1207,16.8556 L 162.4397,16.8556 C 161.2306,16.8556 160.3060,17.8513 160.3060,18.9892 Z " stroke="#000000" stroke-width="1.1379" stroke-linecap="round" stroke-linejoin="round" fill="none"/>
        </g>
        <g transform="matrix(1.0000 0.0000 0.0000 1.0000 0.0000 0.0000)">
</g>
        <g transform="matrix(0.0625 0.0000 0.0000 0.0625 0.0000 0.0000)">
          <path d="M 127.8750,18.9892 C 127.8750,20.1983 128.7996,21.1228 130.0086,21.1228 L 137.6897,21.1228 C 138.8276,21.1228 139.8233,20.1983 139.8233,18.9892 C 139.8233,17.8513 138.8276,16.8556 137.6897,16.8556 L 130.0086,16.8556 C 128.7996,16.8556 127.8750,17.8513 127.8750,18.9892 Z " fill="#866B00" stroke="none"/>
        </g>
        <g transform="matrix(1.0000 0.0000 0.0000 1.0000 0.0000 0.0000)">
</g>
        <g transform="matrix(0.0625 0.0000 0.0000 0.0625 0.0000 0.0000)">
          <path d="M 127.8750,18.9892 C 127.8750,20.1983 128.7996,21.1228 130.0086,21.1228 L 137.6897,21.1228 C 138.8276,21.1228 139.8233,20.1983 139.8233,18.9892 C 139.8233,17.8513 138.8276,16.8556 137.6897,16.8556 L 130.0086,16.8556 C 128.7996,16.8556 127.8750,17.8513 127.8750,18.9892 Z " stroke="#000000" stroke-width="1.1379" stroke-linecap="round" stroke-linejoin="round" fill="none"/>
        </g>
        <g transform="matrix(1.0000 0.0000 0.0000 1.0000 0.0000 0.0000)">
</g>
        <g transform="matrix(0.0625 0.0000 0.0000 0.0625 0.0000 0.0000)">
          <path d="M 177.1616,18.1358 C 177.1616,18.8470 177.7306,19.4159 178.4418,19.4159 L 186.5496,19.4159 C 187.2608,19.4159 187.8297,18.8470 187.8297,18.1358 C 187.8297,17.4957 187.2608,16.8556 186.5496,16.8556 L 178.4418,16.8556 C 177.7306,16.8556 177.1616,17.4957 177.1616,18.1358 Z " fill="#866B00" stroke="none"/>
        </g>
        <g transform="matrix(1.0000 0.0000 0.0000 1.0000 0.0000 0.0000)">
</g>
        <g transform="matrix(0.0625 0.0000 0.0000 0.0625 0.0000 0.0000)">
          <path d="M 177.1616,18.1358 C 177.1616,18.8470 177.7306,19.4159 178.4418,19.4159 L 186.5496,19.4159 C 187.2608,19.4159 187.8297,18.8470 187.8297,18.1358 C 187.8297,17.4957 187.2608,16.8556 186.5496,16.8556 L 178.4418,16.8556 C 177.7306,16.8556 177.1616,17.4957 177.1616,18.1358 Z " stroke="#000000" stroke-width="1.1379" stroke-linecap="round" stroke-linejoin="round" fill="none"/>
        </g>
        <g transform="matrix(1.0000 0.0000 0.0000 1.0000 0.0000 0.0000)">
</g>
        <g transform="matrix(0.0625 0.0000 0.0000 0.0625 0.0000 0.0000)">
          <path d="M 164.1466,18.1358 C 164.1466,18.8470 164.7155,19.4159 165.4267,19.4159 L 173.5345,19.4159 C 174.2457,19.4159 174.8147,18.8470 174.8147,18.1358 C 174.8147,17.4957 174.2457,16.8556 173.5345,16.8556 L 165.4267,16.8556 C 164.7155,16.8556 164.1466,17.4957 164.1466,18.1358 Z " fill="#866B00" stroke="none"/>
        </g>
        <g transform="matrix(1.0000 0.0000 0.0000 1.0000 0.0000 0.0000)">
</g>
        <g transform="matrix(0.0625 0.0000 0.0000 0.0625 0.0000 0.0000)">
          <path d="M 164.1466,18.1358 C 164.1466,18.8470 164.7155,19.4159 165.4267,19.4159 L 173.5345,19.4159 C 174.2457,19.4159 174.8147,18.8470 174.8147,18.1358 C 174.8147,17.4957 174.2457,16.8556 173.5345,16.8556 L 165.4267,16.8556 C 164.7155,16.8556 164.1466,17.4957 164.1466,18.1358 Z " stroke="#000000" stroke-width="1.1379" stroke-linecap="round" stroke-linejoin="round" fill="none"/>
        </g>
        <g transform="matrix(1.0000 0.0000 0.0000 1.0000 0.0000 0.0000)">
</g>
        <g transform="matrix(0.0625 0.0000 0.0000 0.0625 0.0000 0.0000)">
          <path d="M 151.1315,18.1358 C 151.1315,18.8470 151.7004,19.4159 152.4116,19.4159 L 160.5194,19.4159 C 161.2306,19.4159 161.7996,18.8470 161.7996,18.1358 C 161.7996,17.4957 161.2306,16.8556 160.5194,16.8556 L 152.4116,16.8556 C 151.7004,16.8556 151.1315,17.4957 151.1315,18.1358 Z " fill="#866B00" stroke="none"/>
        </g>
        <g transform="matrix(1.0000 0.0000 0.0000 1.0000 0.0000 0.0000)">
</g>
        <g transform="matrix(0.0625 0.0000 0.0000 0.0625 0.0000 0.0000)">
          <path d="M 151.1315,18.1358 C 151.1315,18.8470 151.7004,19.4159 152.4116,19.4159 L 160.5194,19.4159 C 161.2306,19.4159 161.7996,18.8470 161.7996,18.1358 C 161.7996,17.4957 161.2306,16.8556 160.5194,16.8556 L 152.4116,16.8556 C 151.7004,16.8556 151.1315,17.4957 151.1315,18.1358 Z " stroke="#000000" stroke-width="1.1379" stroke-linecap="round" stroke-linejoin="round" fill="none"/>
        </g>
        <g transform="matrix(1.0000 0.0000 0.0000 1.0000 0.0000 0.0000)">
</g>
        <g transform="matrix(0.0625 0.0000 0.0000 0.0625 0.0000 0.0000)">
          <path d="M 138.1164,18.1358 C 138.1164,18.8470 138.6853,19.4159 139.3966,19.4159 L 147.5043,19.4159 C 148.2155,19.4159 148.7845,18.8470 148.7845,18.1358 C 148.7845,17.4957 148.2155,16.8556 147.5043,16.8556 L 139.3966,16.8556 C 138.6853,16.8556 138.1164,17.4957 138.1164,18.1358 Z " fill="#866B00" stroke="none"/>
        </g>
        <g transform="matrix(1.0000 0.0000 0.0000 1.0000 0.0000 0.0000)">
</g>
        <g transform="matrix(0.0625 0.0000 0.0000 0.0625 0.0000 0.0000)">
          <path d="M 138.1164,18.1358 C 138.1164,18.8470 138.6853,19.4159 139.3966,19.4159 L 147.5043,19.4159 C 148.2155,19.4159 148.7845,18.8470 148.7845,18.1358 C 148.7845,17.4957 148.2155,16.8556 147.5043,16.8556 L 139.3966,16.8556 C 138.6853,16.8556 138.1164,17.4957 138.1164,18.1358 Z " stroke="#000000" stroke-width="1.1379" stroke-linecap="round" stroke-linejoin="round" fill="none"/>
        </g>
        <g transform="matrix(1.0000 0.0000 0.0000 1.0000 0.0000 0.0000)">
</g>
        <g transform="matrix(0.0625 0.0000 0.0000 0.0625 0.0000 0.0000)">
          <path d="M 125.1013,18.1358 C 125.1013,18.8470 125.6703,19.4159 126.3815,19.4159 L 134.4892,19.4159 C 135.2004,19.4159 135.7694,18.8470 135.7694,18.1358 C 135.7694,17.4957 135.2004,16.8556 134.4892,16.8556 L 126.3815,16.8556 C 125.6703,16.8556 125.1013,17.4957 125.1013,18.1358 Z " fill="#866B00" stroke="none"/>
        </g>
        <g transform="matrix(1.0000 0.0000 0.0000 1.0000 0.0000 0.0000)">
</g>
        <g transform="matrix(0.0625 0.0000 0.0000 0.0625 0.0000 0.0000)">
          <path d="M 125.1013,18.1358 C 125.1013,18.8470 125.6703,19.4159 126.3815,19.4159 L 134.4892,19.4159 C 135.2004,19.4159 135.7694,18.8470 135.7694,18.1358 C 135.7694,17.4957 135.2004,16.8556 134.4892,16.8556 L 126.3815,16.8556 C 125.6703,16.8556 125.1013,17.4957 125.1013,18.1358 Z " stroke="#000000" stroke-width="1.1379" stroke-linecap="round" stroke-linejoin="round" fill="none"/>
        </g>
        <g transform="matrix(1.0000 0.0000 0.0000 1.0000 0.0000 0.0000)">
</g>
        <g transform="matrix(0.0625 0.0000 0.0000 0.0625 0.0000 0.0000)">
          <path d="M 112.0862,18.1358 C 112.0862,18.8470 112.6552,19.4159 113.3664,19.4159 L 121.4741,19.4159 C 122.1853,19.4159 122.7543,18.8470 122.7543,18.1358 C 122.7543,17.4957 122.1853,16.8556 121.4741,16.8556 L 113.3664,16.8556 C 112.6552,16.8556 112.0862,17.4957 112.0862,18.1358 Z " fill="#866B00" stroke="none"/>
        </g>
        <g transform="matrix(1.0000 0.0000 0.0000 1.0000 0.0000 0.0000)">
</g>
        <g transform="matrix(0.0625 0.0000 0.0000 0.0625 0.0000 0.0000)">
          <path d="M 112.0862,18.1358 C 112.0862,18.8470 112.6552,19.4159 113.3664,19.4159 L 121.4741,19.4159 C 122.1853,19.4159 122.7543,18.8470 122.7543,18.1358 C 122.7543,17.4957 122.1853,16.8556 121.4741,16.8556 L 113.3664,16.8556 C 112.6552,16.8556 112.0862,17.4957 112.0862,18.1358 Z " stroke="#000000" stroke-width="1.1379" stroke-linecap="round" stroke-linejoin="round" fill="none"/>
        </g>
        <g transform="matrix(1.0000 0.0000 0.0000 1.0000 0.0000 0.0000)">
</g>
        <g transform="matrix(0.0625 0.0000 0.0000 0.0625 0.0000 0.0000)">
          <path d="M 188.4698,42.4591 C 189.6078,42.4591 190.6034,41.5345 190.6034,40.3254 L 190.6034,32.6444 C 190.6034,31.5065 189.6078,30.5108 188.4698,30.5108 C 187.2608,30.5108 186.3362,31.5065 186.3362,32.6444 L 186.3362,40.3254 C 186.3362,41.5345 187.2608,42.4591 188.4698,42.4591 Z " fill="#866B00" stroke="none"/>
        </g>
        <g transform="matrix(1.0000 0.0000 0.0000 1.0000 0.0000 0.0000)">
</g>
        <g transform="matrix(0.0625 0.0000 0.0000 0.0625 0.0000 0.0000)">
          <path d="M 188.4698,42.4591 C 189.6078,42.4591 190.6034,41.5345 190.6034,40.3254 L 190.6034,32.6444 C 190.6034,31.5065 189.6078,30.5108 188.4698,30.5108 C 187.2608,30.5108 186.3362,31.5065 186.3362,32.6444 L 186.3362,40.3254 C 186.3362,41.5345 187.2608,42.4591 188.4698,42.4591 Z " stroke="#000000" stroke-width="1.1379" stroke-linecap="round" stroke-linejoin="round" fill="none"/>
        </g>
        <g transform="matrix(1.0000 0.0000 0.0000 1.0000 0.0000 0.0000)">
</g>
        <g transform="matrix(0.0625 0.0000 0.0000 0.0625 0.0000 0.0000)">
          <path d="M 189.5366,29.2306 C 190.1056,29.2306 190.6034,28.7328 190.6034,28.1638 L 190.6034,20.8384 C 190.6034,20.2694 190.1056,19.7716 189.5366,19.7716 C 188.9677,19.7716 188.4698,20.2694 188.4698,20.8384 L 188.4698,28.1638 C 188.4698,28.7328 188.9677,29.2306 189.5366,29.2306 Z " fill="#866B00" stroke="none"/>
        </g>
        <g transform="matrix(1.0000 0.0000 0.0000 1.0000 0.0000 0.0000)">
</g>
        <g transform="matrix(0.0625 0.0000 0.0000 0.0625 0.0000 0.0000)">
          <path d="M 189.5366,29.2306 C 190.1056,29.2306 190.6034,28.7328 190.6034,28.1638 L 190.6034,20.8384 C 190.6034,20.2694 190.1056,19.7716 189.5366,19.7716 C 188.9677,19.7716 188.4698,20.2694 188.4698,20.8384 L 188.4698,28.1638 C 188.4698,28.7328 188.9677,29.2306 189.5366,29.2306 Z " stroke="#000000" stroke-width="1.1379" stroke-linecap="round" stroke-linejoin="round" fill="none"/>
        </g>
        <g transform="matrix(1.0000 0.0000 0.0000 1.0000 0.0000 0.0000)">
</g>
        <g transform="matrix(0.0625 0.0000 0.0000 0.0625 0.0000 0.0000)">
          <path d="M 189.5366,40.6810 C 190.1056,40.6810 190.6034,40.2543 190.6034,39.6142 L 190.6034,32.3599 C 190.6034,31.7198 190.1056,31.2931 189.5366,31.2931 C 188.9677,31.2931 188.4698,31.7198 188.4698,32.3599 L 188.4698,39.6142 C 188.4698,40.2543 188.9677,40.6810 189.5366,40.6810 Z " fill="#866B00" stroke="none"/>
        </g>
        <g transform="matrix(1.0000 0.0000 0.0000 1.0000 0.0000 0.0000)">
</g>
        <g transform="matrix(0.0625 0.0000 0.0000 0.0625 0.0000 0.0000)">
          <path d="M 189.5366,40.6810 C 190.1056,40.6810 190.6034,40.2543 190.6034,39.6142 L 190.6034,32.3599 C 190.6034,31.7198 190.1056,31.2931 189.5366,31.2931 C 188.9677,31.2931 188.4698,31.7198 188.4698,32.3599 L 188.4698,39.6142 C 188.4698,40.2543 188.9677,40.6810 189.5366,40.6810 Z " stroke="#000000" stroke-width="1.1379" stroke-linecap="round" stroke-linejoin="round" fill="none"/>
        </g>
        <g transform="matrix(1.0000 0.0000 0.0000 1.0000 0.0000 0.0000)">
</g>
        <g transform="matrix(0.0625 0.0000 0.0000 0.0625 0.0000 0.0000)">
          <path d="M 189.5366,52.2026 C 190.1056,52.2026 190.6034,51.7047 190.6034,51.1358 L 190.6034,43.8103 C 190.6034,43.2414 190.1056,42.7435 189.5366,42.7435 C 188.9677,42.7435 188.4698,43.2414 188.4698,43.8103 L 188.4698,51.1358 C 188.4698,51.7047 188.9677,52.2026 189.5366,52.2026 Z " fill="#866B00" stroke="none"/>
        </g>
        <g transform="matrix(1.0000 0.0000 0.0000 1.0000 0.0000 0.0000)">
</g>
        <g transform="matrix(0.0625 0.0000 0.0000 0.0625 0.0000 0.0000)">
          <path d="M 189.5366,52.2026 C 190.1056,52.2026 190.6034,51.7047 190.6034,51.1358 L 190.6034,43.8103 C 190.6034,43.2414 190.1056,42.7435 189.5366,42.7435 C 188.9677,42.7435 188.4698,43.2414 188.4698,43.8103 L 188.4698,51.1358 C 188.4698,51.7047 188.9677,52.2026 189.5366,52.2026 Z " stroke="#000000" stroke-width="1.1379" stroke-linecap="round" stroke-linejoin="round" fill="none"/>
        </g>
        <g transform="matrix(1.0000 0.0000 0.0000 1.0000 0.0000 0.0000)">
</g>
        <g transform="matrix(0.0625 0.0000 0.0000 0.0625 0.0000 0.0000)">
          <path d="M 111.2328,42.4591 C 112.3707,42.4591 113.3664,41.5345 113.3664,40.3254 L 113.3664,32.6444 C 113.3664,31.5065 112.3707,30.5108 111.2328,30.5108 C 110.0237,30.5108 109.0991,31.5065 109.0991,32.6444 L 109.0991,40.3254 C 109.0991,41.5345 110.0237,42.4591 111.2328,42.4591 Z " fill="#866B00" stroke="none"/>
        </g>
        <g transform="matrix(1.0000 0.0000 0.0000 1.0000 0.0000 0.0000)">
</g>
        <g transform="matrix(0.0625 0.0000 0.0000 0.0625 0.0000 0.0000)">
          <path d="M 111.2328,42.4591 C 112.3707,42.4591 113.3664,41.5345 113.3664,40.3254 L 113.3664,32.6444 C 113.3664,31.5065 112.3707,30.5108 111.2328,30.5108 C 110.0237,30.5108 109.0991,31.5065 109.0991,32.6444 L 109.0991,40.3254 C 109.0991,41.5345 110.0237,42.4591 111.2328,42.4591 Z " stroke="#000000" stroke-width="1.1379" stroke-linecap="round" stroke-linejoin="round" fill="none"/>
        </g>
        <g transform="matrix(1.0000 0.0000 0.0000 1.0000 0.0000 0.0000)">
</g>
        <g transform="matrix(0.0625 0.0000 0.0000 0.0625 0.0000 0.0000)">
          <path d="M 110.3082,29.2306 C 110.8772,29.2306 111.3750,28.7328 111.3750,28.1638 L 111.3750,20.8384 C 111.3750,20.2694 110.8772,19.7716 110.3082,19.7716 C 109.6681,19.7716 109.2414,20.2694 109.2414,20.8384 L 109.2414,28.1638 C 109.2414,28.7328 109.6681,29.2306 110.3082,29.2306 Z " fill="#866B00" stroke="none"/>
        </g>
        <g transform="matrix(1.0000 0.0000 0.0000 1.0000 0.0000 0.0000)">
</g>
        <g transform="matrix(0.0625 0.0000 0.0000 0.0625 0.0000 0.0000)">
          <path d="M 110.3082,29.2306 C 110.8772,29.2306 111.3750,28.7328 111.3750,28.1638 L 111.3750,20.8384 C 111.3750,20.2694 110.8772,19.7716 110.3082,19.7716 C 109.6681,19.7716 109.2414,20.2694 109.2414,20.8384 L 109.2414,28.1638 C 109.2414,28.7328 109.6681,29.2306 110.3082,29.2306 Z " stroke="#000000" stroke-width="1.1379" stroke-linecap="round" stroke-linejoin="round" fill="none"/>
        </g>
        <g transform="matrix(1.0000 0.0000 0.0000 1.0000 0.0000 0.0000)">
</g>
        <g transform="matrix(0.0625 0.0000 0.0000 0.0625 0.0000 0.0000)">
          <path d="M 110.3082,40.6810 C 110.8772,40.6810 111.3750,40.2543 111.3750,39.6142 L 111.3750,32.3599 C 111.3750,31.7198 110.8772,31.2931 110.3082,31.2931 C 109.6681,31.2931 109.2414,31.7198 109.2414,32.3599 L 109.2414,39.6142 C 109.2414,40.2543 109.6681,40.6810 110.3082,40.6810 Z " fill="#866B00" stroke="none"/>
        </g>
        <g transform="matrix(1.0000 0.0000 0.0000 1.0000 0.0000 0.0000)">
</g>
        <g transform="matrix(0.0625 0.0000 0.0000 0.0625 0.0000 0.0000)">
          <path d="M 110.3082,40.6810 C 110.8772,40.6810 111.3750,40.2543 111.3750,39.6142 L 111.3750,32.3599 C 111.3750,31.7198 110.8772,31.2931 110.3082,31.2931 C 109.6681,31.2931 109.2414,31.7198 109.2414,32.3599 L 109.2414,39.6142 C 109.2414,40.2543 109.6681,40.6810 110.3082,40.6810 Z " stroke="#000000" stroke-width="1.1379" stroke-linecap="round" stroke-linejoin="round" fill="none"/>
        </g>
        <g transform="matrix(1.0000 0.0000 0.0000 1.0000 0.0000 0.0000)">
</g>
        <g transform="matrix(0.0625 0.0000 0.0000 0.0625 0.0000 0.0000)">
          <path d="M 110.3082,52.2026 C 110.8772,52.2026 111.3750,51.7047 111.3750,51.1358 L 111.3750,43.8103 C 111.3750,43.2414 110.8772,42.7435 110.3082,42.7435 C 109.6681,42.7435 109.2414,43.2414 109.2414,43.8103 L 109.2414,51.1358 C 109.2414,51.7047 109.6681,52.2026 110.3082,52.2026 Z " fill="#866B00" stroke="none"/>
        </g>
        <g transform="matrix(1.0000 0.0000 0.0000 1.0000 0.0000 0.0000)">
</g>
        <g transform="matrix(0.0625 0.0000 0.0000 0.0625 0.0000 0.0000)">
          <path d="M 110.3082,52.2026 C 110.8772,52.2026 111.3750,51.7047 111.3750,51.1358 L 111.3750,43.8103 C 111.3750,43.2414 110.8772,42.7435 110.3082,42.7435 C 109.6681,42.7435 109.2414,43.2414 109.2414,43.8103 L 109.2414,51.1358 C 109.2414,51.7047 109.6681,52.2026 110.3082,52.2026 Z " stroke="#000000" stroke-width="1.1379" stroke-linecap="round" stroke-linejoin="round" fill="none"/>
        </g>
        <g transform="matrix(1.0000 0.0000 0.0000 1.0000 0.0000 0.0000)">
</g>
        <g transform="matrix(0.0625 0.0000 0.0000 0.0625 0.0000 0.0000)">
          <path d="M 187.1897,51.8470 C 187.9009,51.8470 188.4698,51.2780 188.4698,50.5668 L 188.4698,48.4332 C 188.4698,47.7931 187.9009,47.1530 187.1897,47.1530 C 186.4784,47.1530 185.9095,47.7931 185.9095,48.4332 L 185.9095,50.5668 C 185.9095,51.2780 186.4784,51.8470 187.1897,51.8470 Z " fill="#866B00" stroke="none"/>
        </g>
        <g transform="matrix(1.0000 0.0000 0.0000 1.0000 0.0000 0.0000)">
</g>
        <g transform="matrix(0.0625 0.0000 0.0000 0.0625 0.0000 0.0000)">
          <path d="M 187.1897,51.8470 C 187.9009,51.8470 188.4698,51.2780 188.4698,50.5668 L 188.4698,48.4332 C 188.4698,47.7931 187.9009,47.1530 187.1897,47.1530 C 186.4784,47.1530 185.9095,47.7931 185.9095,48.4332 L 185.9095,50.5668 C 185.9095,51.2780 186.4784,51.8470 187.1897,51.8470 Z " stroke="#000000" stroke-width="1.1379" stroke-linecap="round" stroke-linejoin="round" fill="none"/>
        </g>
        <g transform="matrix(1.0000 0.0000 0.0000 1.0000 0.0000 0.0000)">
</g>
        <g transform="matrix(0.0625 0.0000 0.0000 0.0625 0.0000 0.0000)">
          <path d="M 112.9397,51.8470 C 113.6509,51.8470 114.2198,51.2780 114.2198,50.5668 L 114.2198,48.4332 C 114.2198,47.7931 113.6509,47.1530 112.9397,47.1530 C 112.2284,47.1530 111.6595,47.7931 111.6595,48.4332 L 111.6595,50.5668 C 111.6595,51.2780 112.2284,51.8470 112.9397,51.8470 Z " fill="#866B00" stroke="none"/>
        </g>
        <g transform="matrix(1.0000 0.0000 0.0000 1.0000 0.0000 0.0000)">
</g>
        <g transform="matrix(0.0625 0.0000 0.0000 0.0625 0.0000 0.0000)">
          <path d="M 112.9397,51.8470 C 113.6509,51.8470 114.2198,51.2780 114.2198,50.5668 L 114.2198,48.4332 C 114.2198,47.7931 113.6509,47.1530 112.9397,47.1530 C 112.2284,47.1530 111.6595,47.7931 111.6595,48.4332 L 111.6595,50.5668 C 111.6595,51.2780 112.2284,51.8470 112.9397,51.8470 Z " stroke="#000000" stroke-width="1.1379" stroke-linecap="round" stroke-linejoin="round" fill="none"/>
        </g>
        <g transform="matrix(1.0000 0.0000 0.0000 1.0000 0.0000 0.0000)">
</g>
        <g transform="matrix(0.0625 0.0000 0.0000 0.0625 0.0000 0.0000)">
          <path d="M 164.1466,16.0022 C 164.1466,16.3578 164.4310,16.6422 164.7866,16.6422 L 174.1746,16.6422 C 174.5302,16.6422 174.8147,16.3578 174.8147,16.0022 C 174.8147,15.6466 174.5302,15.3621 174.1746,15.3621 L 164.7866,15.3621 C 164.4310,15.3621 164.1466,15.6466 164.1466,16.0022 Z " fill="#C0C0C0" stroke="none"/>
        </g>
        <g transform="matrix(1.0000 0.0000 0.0000 1.0000 0.0000 0.0000)">
</g>
        <g transform="matrix(0.0625 0.0000 0.0000 0.0625 0.0000 0.0000)">
          <path d="M 164.1466,16.0022 C 164.1466,16.3578 164.4310,16.6422 164.7866,16.6422 L 174.1746,16.6422 C 174.5302,16.6422 174.8147,16.3578 174.8147,16.0022 C 174.8147,15.6466 174.5302,15.3621 174.1746,15.3621 L 164.7866,15.3621 C 164.4310,15.3621 164.1466,15.6466 164.1466,16.0022 Z " stroke="#000000" stroke-width="1.1379" stroke-linecap="round" stroke-linejoin="round" fill="none"/>
        </g>
        <g transform="matrix(1.0000 0.0000 0.0000 1.0000 0.0000 0.0000)">
</g>
        <g transform="matrix(0.0625 0.0000 0.0000 0.0625 0.0000 0.0000)">
          <path d="M 125.1013,16.0022 C 125.1013,16.3578 125.3858,16.6422 125.7414,16.6422 L 135.1293,16.6422 C 135.4849,16.6422 135.7694,16.3578 135.7694,16.0022 C 135.7694,15.6466 135.4849,15.3621 135.1293,15.3621 L 125.7414,15.3621 C 125.3858,15.3621 125.1013,15.6466 125.1013,16.0022 Z " fill="#C0C0C0" stroke="none"/>
        </g>
        <g transform="matrix(1.0000 0.0000 0.0000 1.0000 0.0000 0.0000)">
</g>
        <g transform="matrix(0.0625 0.0000 0.0000 0.0625 0.0000 0.0000)">
          <path d="M 125.1013,16.0022 C 125.1013,16.3578 125.3858,16.6422 125.7414,16.6422 L 135.1293,16.6422 C 135.4849,16.6422 135.7694,16.3578 135.7694,16.0022 C 135.7694,15.6466 135.4849,15.3621 135.1293,15.3621 L 125.7414,15.3621 C 125.3858,15.3621 125.1013,15.6466 125.1013,16.0022 Z " stroke="#000000" stroke-width="1.1379" stroke-linecap="round" stroke-linejoin="round" fill="none"/>
        </g>
        <g transform="matrix(1.0000 0.0000 0.0000 1.0000 0.0000 0.0000)">
</g>
        <g transform="matrix(0.0625 0.0000 0.0000 0.0625 0.0000 0.0000)">
          <path d="M 191.5280,40.6810 C 191.8125,40.6810 192.0970,40.4677 192.0970,40.1832 L 192.0970,31.7909 C 192.0970,31.5065 191.8125,31.2931 191.5280,31.2931 C 191.2435,31.2931 191.0302,31.5065 191.0302,31.7909 L 191.0302,40.1832 C 191.0302,40.4677 191.2435,40.6810 191.5280,40.6810 Z " fill="#C0C0C0" stroke="none"/>
        </g>
        <g transform="matrix(1.0000 0.0000 0.0000 1.0000 0.0000 0.0000)">
</g>
        <g transform="matrix(0.0625 0.0000 0.0000 0.0625 0.0000 0.0000)">
          <path d="M 191.5280,40.6810 C 191.8125,40.6810 192.0970,40.4677 192.0970,40.1832 L 192.0970,31.7909 C 192.0970,31.5065 191.8125,31.2931 191.5280,31.2931 C 191.2435,31.2931 191.0302,31.5065 191.0302,31.7909 L 191.0302,40.1832 C 191.0302,40.4677 191.2435,40.6810 191.5280,40.6810 Z " stroke="#000000" stroke-width="1.1379" stroke-linecap="round" stroke-linejoin="round" fill="none"/>
        </g>
        <g transform="matrix(1.0000 0.0000 0.0000 1.0000 0.0000 0.0000)">
</g>
        <g transform="matrix(0.0625 0.0000 0.0000 0.0625 0.0000 0.0000)">
          <path d="M 108.3168,40.6810 C 108.6013,40.6810 108.8858,40.4677 108.8858,40.1832 L 108.8858,31.7909 C 108.8858,31.5065 108.6013,31.2931 108.3168,31.2931 C 108.0323,31.2931 107.8190,31.5065 107.8190,31.7909 L 107.8190,40.1832 C 107.8190,40.4677 108.0323,40.6810 108.3168,40.6810 Z " fill="#C0C0C0" stroke="none"/>
        </g>
        <g transform="matrix(1.0000 0.0000 0.0000 1.0000 0.0000 0.0000)">
</g>
        <g transform="matrix(0.0625 0.0000 0.0000 0.0625 0.0000 0.0000)">
          <path d="M 108.3168,40.6810 C 108.6013,40.6810 108.8858,40.4677 108.8858,40.1832 L 108.8858,31.7909 C 108.8858,31.5065 108.6013,31.2931 108.3168,31.2931 C 108.0323,31.2931 107.8190,31.5065 107.8190,31.7909 L 107.8190,40.1832 C 107.8190,40.4677 108.0323,40.6810 108.3168,40.6810 Z " stroke="#000000" stroke-width="1.1379" stroke-linecap="round" stroke-linejoin="round" fill="none"/>
        </g>
        <g transform="matrix(1.0000 0.0000 0.0000 1.0000 0.0000 0.0000)">
</g>
        <g transform="matrix(0.0000 -1.0000 1.0000 0.0000 6.5055 3.5071)">
          <text font-family="Arial" fill="#595959" style="white-space:pre;" font-weight="400" text-anchor="start" x="0.0000" y="0.0000" font-size="0.7823"><![CDATA[PORT]]></text>
        </g>
        <g transform="matrix(0.0000 -1.0000 1.0000 0.0000 6.5055 1.3998)">
          <text font-family="Arial" fill="#595959" style="white-space:pre;" font-weight="400" text-anchor="start" x="0.0000" y="0.0000" font-size="0.7823"><![CDATA[1]]></text>
        </g>
        <g transform="matrix(0.0625 0.0000 0.0000 0.0625 0.0000 0.0000)">
          <path d="M 222.8211,18.8470 L 222.8211,53.1272 C 222.8211,54.3362 223.8168,55.2608 225.0259,55.2608 L 302.3341,55.2608 C 303.5431,55.2608 304.5388,54.3362 304.5388,53.1272 L 304.5388,18.8470 C 304.5388,17.6379 303.5431,16.7134 302.3341,16.7134 L 225.0259,16.7134 C 223.8168,16.7134 222.8211,17.6379 222.8211,18.8470 Z " fill="#5F5F5F" stroke="none"/>
        </g>
        <g transform="matrix(1.0000 0.0000 0.0000 1.0000 0.0000 0.0000)">
</g>
        <g transform="matrix(0.0625 0.0000 0.0000 0.0625 0.0000 0.0000)">
          <path d="M 222.8211,18.8470 L 222.8211,53.1272 C 222.8211,54.3362 223.8168,55.2608 225.0259,55.2608 L 302.3341,55.2608 C 303.5431,55.2608 304.5388,54.3362 304.5388,53.1272 L 304.5388,18.8470 C 304.5388,17.6379 303.5431,16.7134 302.3341,16.7134 L 225.0259,16.7134 C 223.8168,16.7134 222.8211,17.6379 222.8211,18.8470 Z " stroke="#000000" stroke-width="1.1379" stroke-linecap="round" stroke-linejoin="round" fill="none"/>
        </g>
        <g transform="matrix(1.0000 0.0000 0.0000 1.0000 0.0000 0.0000)">
</g>
        <g transform="matrix(0.0625 0.0000 0.0000 0.0625 0.0000 0.0000)">
          <path d="M 223.6746,49.3578 L 223.6746,51.4203 C 223.6746,52.6293 224.6703,53.5539 225.8793,53.5539 L 301.6940,53.5539 C 302.9030,53.5539 303.8987,52.6293 303.8987,51.4203 L 303.8987,49.3578 C 303.8987,48.1487 302.9030,47.1530 301.6940,47.1530 L 225.8793,47.1530 C 224.6703,47.1530 223.6746,48.1487 223.6746,49.3578 Z " fill="#808080" stroke="none"/>
        </g>
        <g transform="matrix(1.0000 0.0000 0.0000 1.0000 0.0000 0.0000)">
</g>
        <g transform="matrix(0.0625 0.0000 0.0000 0.0625 0.0000 0.0000)">
          <path d="M 223.6746,49.3578 L 223.6746,51.4203 C 223.6746,52.6293 224.6703,53.5539 225.8793,53.5539 L 301.6940,53.5539 C 302.9030,53.5539 303.8987,52.6293 303.8987,51.4203 L 303.8987,49.3578 C 303.8987,48.1487 302.9030,47.1530 301.6940,47.1530 L 225.8793,47.1530 C 224.6703,47.1530 223.6746,48.1487 223.6746,49.3578 Z " stroke="#000000" stroke-width="1.1379" stroke-linecap="round" stroke-linejoin="round" fill="none"/>
        </g>
        <g transform="matrix(1.0000 0.0000 0.0000 1.0000 0.0000 0.0000)">
</g>
        <g transform="matrix(0.0625 0.0000 0.0000 0.0625 0.0000 0.0000)">
          <path d="M 290.8836,53.5539 C 290.8836,54.2651 291.4526,54.8341 292.1638,54.8341 L 300.2716,54.8341 C 300.9828,54.8341 301.5517,54.2651 301.5517,53.5539 C 301.5517,52.9138 300.9828,52.2737 300.2716,52.2737 L 292.1638,52.2737 C 291.4526,52.2737 290.8836,52.9138 290.8836,53.5539 Z " fill="#866B00" stroke="none"/>
        </g>
        <g transform="matrix(1.0000 0.0000 0.0000 1.0000 0.0000 0.0000)">
</g>
        <g transform="matrix(0.0625 0.0000 0.0000 0.0625 0.0000 0.0000)">
          <path d="M 290.8836,53.5539 C 290.8836,54.2651 291.4526,54.8341 292.1638,54.8341 L 300.2716,54.8341 C 300.9828,54.8341 301.5517,54.2651 301.5517,53.5539 C 301.5517,52.9138 300.9828,52.2737 300.2716,52.2737 L 292.1638,52.2737 C 291.4526,52.2737 290.8836,52.9138 290.8836,53.5539 Z " stroke="#000000" stroke-width="1.1379" stroke-linecap="round" stroke-linejoin="round" fill="none"/>
        </g>
        <g transform="matrix(1.0000 0.0000 0.0000 1.0000 0.0000 0.0000)">
</g>
        <g transform="matrix(0.0625 0.0000 0.0000 0.0625 0.0000 0.0000)">
          <path d="M 277.8685,53.5539 C 277.8685,54.2651 278.4375,54.8341 279.1487,54.8341 L 287.2565,54.8341 C 287.9677,54.8341 288.5366,54.2651 288.5366,53.5539 C 288.5366,52.9138 287.9677,52.2737 287.2565,52.2737 L 279.1487,52.2737 C 278.4375,52.2737 277.8685,52.9138 277.8685,53.5539 Z " fill="#866B00" stroke="none"/>
        </g>
        <g transform="matrix(1.0000 0.0000 0.0000 1.0000 0.0000 0.0000)">
</g>
        <g transform="matrix(0.0625 0.0000 0.0000 0.0625 0.0000 0.0000)">
          <path d="M 277.8685,53.5539 C 277.8685,54.2651 278.4375,54.8341 279.1487,54.8341 L 287.2565,54.8341 C 287.9677,54.8341 288.5366,54.2651 288.5366,53.5539 C 288.5366,52.9138 287.9677,52.2737 287.2565,52.2737 L 279.1487,52.2737 C 278.4375,52.2737 277.8685,52.9138 277.8685,53.5539 Z " stroke="#000000" stroke-width="1.1379" stroke-linecap="round" stroke-linejoin="round" fill="none"/>
        </g>
        <g transform="matrix(1.0000 0.0000 0.0000 1.0000 0.0000 0.0000)">
</g>
        <g transform="matrix(0.0625 0.0000 0.0000 0.0625 0.0000 0.0000)">
          <path d="M 264.8534,53.5539 C 264.8534,54.2651 265.4224,54.8341 266.1336,54.8341 L 274.2414,54.8341 C 274.9526,54.8341 275.5216,54.2651 275.5216,53.5539 C 275.5216,52.9138 274.9526,52.2737 274.2414,52.2737 L 266.1336,52.2737 C 265.4224,52.2737 264.8534,52.9138 264.8534,53.5539 Z " fill="#866B00" stroke="none"/>
        </g>
        <g transform="matrix(1.0000 0.0000 0.0000 1.0000 0.0000 0.0000)">
</g>
        <g transform="matrix(0.0625 0.0000 0.0000 0.0625 0.0000 0.0000)">
          <path d="M 264.8534,53.5539 C 264.8534,54.2651 265.4224,54.8341 266.1336,54.8341 L 274.2414,54.8341 C 274.9526,54.8341 275.5216,54.2651 275.5216,53.5539 C 275.5216,52.9138 274.9526,52.2737 274.2414,52.2737 L 266.1336,52.2737 C 265.4224,52.2737 264.8534,52.9138 264.8534,53.5539 Z " stroke="#000000" stroke-width="1.1379" stroke-linecap="round" stroke-linejoin="round" fill="none"/>
        </g>
        <g transform="matrix(1.0000 0.0000 0.0000 1.0000 0.0000 0.0000)">
</g>
        <g transform="matrix(0.0625 0.0000 0.0000 0.0625 0.0000 0.0000)">
          <path d="M 251.8384,53.5539 C 251.8384,54.2651 252.4073,54.8341 253.1185,54.8341 L 261.2263,54.8341 C 261.9375,54.8341 262.5065,54.2651 262.5065,53.5539 C 262.5065,52.9138 261.9375,52.2737 261.2263,52.2737 L 253.1185,52.2737 C 252.4073,52.2737 251.8384,52.9138 251.8384,53.5539 Z " fill="#866B00" stroke="none"/>
        </g>
        <g transform="matrix(1.0000 0.0000 0.0000 1.0000 0.0000 0.0000)">
</g>
        <g transform="matrix(0.0625 0.0000 0.0000 0.0625 0.0000 0.0000)">
          <path d="M 251.8384,53.5539 C 251.8384,54.2651 252.4073,54.8341 253.1185,54.8341 L 261.2263,54.8341 C 261.9375,54.8341 262.5065,54.2651 262.5065,53.5539 C 262.5065,52.9138 261.9375,52.2737 261.2263,52.2737 L 253.1185,52.2737 C 252.4073,52.2737 251.8384,52.9138 251.8384,53.5539 Z " stroke="#000000" stroke-width="1.1379" stroke-linecap="round" stroke-linejoin="round" fill="none"/>
        </g>
        <g transform="matrix(1.0000 0.0000 0.0000 1.0000 0.0000 0.0000)">
</g>
        <g transform="matrix(0.0625 0.0000 0.0000 0.0625 0.0000 0.0000)">
          <path d="M 238.8233,53.5539 C 238.8233,54.2651 239.3922,54.8341 240.1034,54.8341 L 248.2112,54.8341 C 248.9224,54.8341 249.4914,54.2651 249.4914,53.5539 C 249.4914,52.9138 248.9224,52.2737 248.2112,52.2737 L 240.1034,52.2737 C 239.3922,52.2737 238.8233,52.9138 238.8233,53.5539 Z " fill="#866B00" stroke="none"/>
        </g>
        <g transform="matrix(1.0000 0.0000 0.0000 1.0000 0.0000 0.0000)">
</g>
        <g transform="matrix(0.0625 0.0000 0.0000 0.0625 0.0000 0.0000)">
          <path d="M 238.8233,53.5539 C 238.8233,54.2651 239.3922,54.8341 240.1034,54.8341 L 248.2112,54.8341 C 248.9224,54.8341 249.4914,54.2651 249.4914,53.5539 C 249.4914,52.9138 248.9224,52.2737 248.2112,52.2737 L 240.1034,52.2737 C 239.3922,52.2737 238.8233,52.9138 238.8233,53.5539 Z " stroke="#000000" stroke-width="1.1379" stroke-linecap="round" stroke-linejoin="round" fill="none"/>
        </g>
        <g transform="matrix(1.0000 0.0000 0.0000 1.0000 0.0000 0.0000)">
</g>
        <g transform="matrix(0.0625 0.0000 0.0000 0.0625 0.0000 0.0000)">
          <path d="M 225.8082,53.5539 C 225.8082,54.2651 226.3772,54.8341 227.0884,54.8341 L 235.1961,54.8341 C 235.9073,54.8341 236.4763,54.2651 236.4763,53.5539 C 236.4763,52.9138 235.9073,52.2737 235.1961,52.2737 L 227.0884,52.2737 C 226.3772,52.2737 225.8082,52.9138 225.8082,53.5539 Z " fill="#866B00" stroke="none"/>
        </g>
        <g transform="matrix(1.0000 0.0000 0.0000 1.0000 0.0000 0.0000)">
</g>
        <g transform="matrix(0.0625 0.0000 0.0000 0.0625 0.0000 0.0000)">
          <path d="M 225.8082,53.5539 C 225.8082,54.2651 226.3772,54.8341 227.0884,54.8341 L 235.1961,54.8341 C 235.9073,54.8341 236.4763,54.2651 236.4763,53.5539 C 236.4763,52.9138 235.9073,52.2737 235.1961,52.2737 L 227.0884,52.2737 C 226.3772,52.2737 225.8082,52.9138 225.8082,53.5539 Z " stroke="#000000" stroke-width="1.1379" stroke-linecap="round" stroke-linejoin="round" fill="none"/>
        </g>
        <g transform="matrix(1.0000 0.0000 0.0000 1.0000 0.0000 0.0000)">
</g>
        <g transform="matrix(0.0625 0.0000 0.0000 0.0625 0.0000 0.0000)">
          <path d="M 274.0280,18.9892 C 274.0280,20.1983 274.9526,21.1228 276.1616,21.1228 L 283.8427,21.1228 C 284.9806,21.1228 285.9763,20.1983 285.9763,18.9892 C 285.9763,17.8513 284.9806,16.8556 283.8427,16.8556 L 276.1616,16.8556 C 274.9526,16.8556 274.0280,17.8513 274.0280,18.9892 Z " fill="#866B00" stroke="none"/>
        </g>
        <g transform="matrix(1.0000 0.0000 0.0000 1.0000 0.0000 0.0000)">
</g>
        <g transform="matrix(0.0625 0.0000 0.0000 0.0625 0.0000 0.0000)">
          <path d="M 274.0280,18.9892 C 274.0280,20.1983 274.9526,21.1228 276.1616,21.1228 L 283.8427,21.1228 C 284.9806,21.1228 285.9763,20.1983 285.9763,18.9892 C 285.9763,17.8513 284.9806,16.8556 283.8427,16.8556 L 276.1616,16.8556 C 274.9526,16.8556 274.0280,17.8513 274.0280,18.9892 Z " stroke="#000000" stroke-width="1.1379" stroke-linecap="round" stroke-linejoin="round" fill="none"/>
        </g>
        <g transform="matrix(1.0000 0.0000 0.0000 1.0000 0.0000 0.0000)">
</g>
        <g transform="matrix(0.0625 0.0000 0.0000 0.0625 0.0000 0.0000)">
          <path d="M 241.5970,18.9892 C 241.5970,20.1983 242.5216,21.1228 243.7306,21.1228 L 251.4116,21.1228 C 252.5496,21.1228 253.5453,20.1983 253.5453,18.9892 C 253.5453,17.8513 252.5496,16.8556 251.4116,16.8556 L 243.7306,16.8556 C 242.5216,16.8556 241.5970,17.8513 241.5970,18.9892 Z " fill="#866B00" stroke="none"/>
        </g>
        <g transform="matrix(1.0000 0.0000 0.0000 1.0000 0.0000 0.0000)">
</g>
        <g transform="matrix(0.0625 0.0000 0.0000 0.0625 0.0000 0.0000)">
          <path d="M 241.5970,18.9892 C 241.5970,20.1983 242.5216,21.1228 243.7306,21.1228 L 251.4116,21.1228 C 252.5496,21.1228 253.5453,20.1983 253.5453,18.9892 C 253.5453,17.8513 252.5496,16.8556 251.4116,16.8556 L 243.7306,16.8556 C 242.5216,16.8556 241.5970,17.8513 241.5970,18.9892 Z " stroke="#000000" stroke-width="1.1379" stroke-linecap="round" stroke-linejoin="round" fill="none"/>
        </g>
        <g transform="matrix(1.0000 0.0000 0.0000 1.0000 0.0000 0.0000)">
</g>
        <g transform="matrix(0.0625 0.0000 0.0000 0.0625 0.0000 0.0000)">
          <path d="M 290.8836,18.1358 C 290.8836,18.8470 291.4526,19.4159 292.1638,19.4159 L 300.2716,19.4159 C 300.9828,19.4159 301.5517,18.8470 301.5517,18.1358 C 301.5517,17.4957 300.9828,16.8556 300.2716,16.8556 L 292.1638,16.8556 C 291.4526,16.8556 290.8836,17.4957 290.8836,18.1358 Z " fill="#866B00" stroke="none"/>
        </g>
        <g transform="matrix(1.0000 0.0000 0.0000 1.0000 0.0000 0.0000)">
</g>
        <g transform="matrix(0.0625 0.0000 0.0000 0.0625 0.0000 0.0000)">
          <path d="M 290.8836,18.1358 C 290.8836,18.8470 291.4526,19.4159 292.1638,19.4159 L 300.2716,19.4159 C 300.9828,19.4159 301.5517,18.8470 301.5517,18.1358 C 301.5517,17.4957 300.9828,16.8556 300.2716,16.8556 L 292.1638,16.8556 C 291.4526,16.8556 290.8836,17.4957 290.8836,18.1358 Z " stroke="#000000" stroke-width="1.1379" stroke-linecap="round" stroke-linejoin="round" fill="none"/>
        </g>
        <g transform="matrix(1.0000 0.0000 0.0000 1.0000 0.0000 0.0000)">
</g>
        <g transform="matrix(0.0625 0.0000 0.0000 0.0625 0.0000 0.0000)">
          <path d="M 277.8685,18.1358 C 277.8685,18.8470 278.4375,19.4159 279.1487,19.4159 L 287.2565,19.4159 C 287.9677,19.4159 288.5366,18.8470 288.5366,18.1358 C 288.5366,17.4957 287.9677,16.8556 287.2565,16.8556 L 279.1487,16.8556 C 278.4375,16.8556 277.8685,17.4957 277.8685,18.1358 Z " fill="#866B00" stroke="none"/>
        </g>
        <g transform="matrix(1.0000 0.0000 0.0000 1.0000 0.0000 0.0000)">
</g>
        <g transform="matrix(0.0625 0.0000 0.0000 0.0625 0.0000 0.0000)">
          <path d="M 277.8685,18.1358 C 277.8685,18.8470 278.4375,19.4159 279.1487,19.4159 L 287.2565,19.4159 C 287.9677,19.4159 288.5366,18.8470 288.5366,18.1358 C 288.5366,17.4957 287.9677,16.8556 287.2565,16.8556 L 279.1487,16.8556 C 278.4375,16.8556 277.8685,17.4957 277.8685,18.1358 Z " stroke="#000000" stroke-width="1.1379" stroke-linecap="round" stroke-linejoin="round" fill="none"/>
        </g>
        <g transform="matrix(1.0000 0.0000 0.0000 1.0000 0.0000 0.0000)">
</g>
        <g transform="matrix(0.0625 0.0000 0.0000 0.0625 0.0000 0.0000)">
          <path d="M 264.8534,18.1358 C 264.8534,18.8470 265.4224,19.4159 266.1336,19.4159 L 274.2414,19.4159 C 274.9526,19.4159 275.5216,18.8470 275.5216,18.1358 C 275.5216,17.4957 274.9526,16.8556 274.2414,16.8556 L 266.1336,16.8556 C 265.4224,16.8556 264.8534,17.4957 264.8534,18.1358 Z " fill="#866B00" stroke="none"/>
        </g>
        <g transform="matrix(1.0000 0.0000 0.0000 1.0000 0.0000 0.0000)">
</g>
        <g transform="matrix(0.0625 0.0000 0.0000 0.0625 0.0000 0.0000)">
          <path d="M 264.8534,18.1358 C 264.8534,18.8470 265.4224,19.4159 266.1336,19.4159 L 274.2414,19.4159 C 274.9526,19.4159 275.5216,18.8470 275.5216,18.1358 C 275.5216,17.4957 274.9526,16.8556 274.2414,16.8556 L 266.1336,16.8556 C 265.4224,16.8556 264.8534,17.4957 264.8534,18.1358 Z " stroke="#000000" stroke-width="1.1379" stroke-linecap="round" stroke-linejoin="round" fill="none"/>
        </g>
        <g transform="matrix(1.0000 0.0000 0.0000 1.0000 0.0000 0.0000)">
</g>
        <g transform="matrix(0.0625 0.0000 0.0000 0.0625 0.0000 0.0000)">
          <path d="M 251.8384,18.1358 C 251.8384,18.8470 252.4073,19.4159 253.1185,19.4159 L 261.2263,19.4159 C 261.9375,19.4159 262.5065,18.8470 262.5065,18.1358 C 262.5065,17.4957 261.9375,16.8556 261.2263,16.8556 L 253.1185,16.8556 C 252.4073,16.8556 251.8384,17.4957 251.8384,18.1358 Z " fill="#866B00" stroke="none"/>
        </g>
        <g transform="matrix(1.0000 0.0000 0.0000 1.0000 0.0000 0.0000)">
</g>
        <g transform="matrix(0.0625 0.0000 0.0000 0.0625 0.0000 0.0000)">
          <path d="M 251.8384,18.1358 C 251.8384,18.8470 252.4073,19.4159 253.1185,19.4159 L 261.2263,19.4159 C 261.9375,19.4159 262.5065,18.8470 262.5065,18.1358 C 262.5065,17.4957 261.9375,16.8556 261.2263,16.8556 L 253.1185,16.8556 C 252.4073,16.8556 251.8384,17.4957 251.8384,18.1358 Z " stroke="#000000" stroke-width="1.1379" stroke-linecap="round" stroke-linejoin="round" fill="none"/>
        </g>
        <g transform="matrix(1.0000 0.0000 0.0000 1.0000 0.0000 0.0000)">
</g>
        <g transform="matrix(0.0625 0.0000 0.0000 0.0625 0.0000 0.0000)">
          <path d="M 238.8233,18.1358 C 238.8233,18.8470 239.3922,19.4159 240.1034,19.4159 L 248.2112,19.4159 C 248.9224,19.4159 249.4914,18.8470 249.4914,18.1358 C 249.4914,17.4957 248.9224,16.8556 248.2112,16.8556 L 240.1034,16.8556 C 239.3922,16.8556 238.8233,17.4957 238.8233,18.1358 Z " fill="#866B00" stroke="none"/>
        </g>
        <g transform="matrix(1.0000 0.0000 0.0000 1.0000 0.0000 0.0000)">
</g>
        <g transform="matrix(0.0625 0.0000 0.0000 0.0625 0.0000 0.0000)">
          <path d="M 238.8233,18.1358 C 238.8233,18.8470 239.3922,19.4159 240.1034,19.4159 L 248.2112,19.4159 C 248.9224,19.4159 249.4914,18.8470 249.4914,18.1358 C 249.4914,17.4957 248.9224,16.8556 248.2112,16.8556 L 240.1034,16.8556 C 239.3922,16.8556 238.8233,17.4957 238.8233,18.1358 Z " stroke="#000000" stroke-width="1.1379" stroke-linecap="round" stroke-linejoin="round" fill="none"/>
        </g>
        <g transform="matrix(1.0000 0.0000 0.0000 1.0000 0.0000 0.0000)">
</g>
        <g transform="matrix(0.0625 0.0000 0.0000 0.0625 0.0000 0.0000)">
          <path d="M 225.8082,18.1358 C 225.8082,18.8470 226.3772,19.4159 227.0884,19.4159 L 235.1961,19.4159 C 235.9073,19.4159 236.4763,18.8470 236.4763,18.1358 C 236.4763,17.4957 235.9073,16.8556 235.1961,16.8556 L 227.0884,16.8556 C 226.3772,16.8556 225.8082,17.4957 225.8082,18.1358 Z " fill="#866B00" stroke="none"/>
        </g>
        <g transform="matrix(1.0000 0.0000 0.0000 1.0000 0.0000 0.0000)">
</g>
        <g transform="matrix(0.0625 0.0000 0.0000 0.0625 0.0000 0.0000)">
          <path d="M 225.8082,18.1358 C 225.8082,18.8470 226.3772,19.4159 227.0884,19.4159 L 235.1961,19.4159 C 235.9073,19.4159 236.4763,18.8470 236.4763,18.1358 C 236.4763,17.4957 235.9073,16.8556 235.1961,16.8556 L 227.0884,16.8556 C 226.3772,16.8556 225.8082,17.4957 225.8082,18.1358 Z " stroke="#000000" stroke-width="1.1379" stroke-linecap="round" stroke-linejoin="round" fill="none"/>
        </g>
        <g transform="matrix(1.0000 0.0000 0.0000 1.0000 0.0000 0.0000)">
</g>
        <g transform="matrix(0.0625 0.0000 0.0000 0.0625 0.0000 0.0000)">
          <path d="M 302.1918,42.4591 C 303.3297,42.4591 304.3254,41.5345 304.3254,40.3254 L 304.3254,32.6444 C 304.3254,31.5065 303.3297,30.5108 302.1918,30.5108 C 300.9828,30.5108 300.0582,31.5065 300.0582,32.6444 L 300.0582,40.3254 C 300.0582,41.5345 300.9828,42.4591 302.1918,42.4591 Z " fill="#866B00" stroke="none"/>
        </g>
        <g transform="matrix(1.0000 0.0000 0.0000 1.0000 0.0000 0.0000)">
</g>
        <g transform="matrix(0.0625 0.0000 0.0000 0.0625 0.0000 0.0000)">
          <path d="M 302.1918,42.4591 C 303.3297,42.4591 304.3254,41.5345 304.3254,40.3254 L 304.3254,32.6444 C 304.3254,31.5065 303.3297,30.5108 302.1918,30.5108 C 300.9828,30.5108 300.0582,31.5065 300.0582,32.6444 L 300.0582,40.3254 C 300.0582,41.5345 300.9828,42.4591 302.1918,42.4591 Z " stroke="#000000" stroke-width="1.1379" stroke-linecap="round" stroke-linejoin="round" fill="none"/>
        </g>
        <g transform="matrix(1.0000 0.0000 0.0000 1.0000 0.0000 0.0000)">
</g>
        <g transform="matrix(0.0625 0.0000 0.0000 0.0625 0.0000 0.0000)">
          <path d="M 303.2586,29.2306 C 303.8276,29.2306 304.3254,28.7328 304.3254,28.1638 L 304.3254,20.8384 C 304.3254,20.2694 303.8276,19.7716 303.2586,19.7716 C 302.6897,19.7716 302.1918,20.2694 302.1918,20.8384 L 302.1918,28.1638 C 302.1918,28.7328 302.6897,29.2306 303.2586,29.2306 Z " fill="#866B00" stroke="none"/>
        </g>
        <g transform="matrix(1.0000 0.0000 0.0000 1.0000 0.0000 0.0000)">
</g>
        <g transform="matrix(0.0625 0.0000 0.0000 0.0625 0.0000 0.0000)">
          <path d="M 303.2586,29.2306 C 303.8276,29.2306 304.3254,28.7328 304.3254,28.1638 L 304.3254,20.8384 C 304.3254,20.2694 303.8276,19.7716 303.2586,19.7716 C 302.6897,19.7716 302.1918,20.2694 302.1918,20.8384 L 302.1918,28.1638 C 302.1918,28.7328 302.6897,29.2306 303.2586,29.2306 Z " stroke="#000000" stroke-width="1.1379" stroke-linecap="round" stroke-linejoin="round" fill="none"/>
        </g>
        <g transform="matrix(1.0000 0.0000 0.0000 1.0000 0.0000 0.0000)">
</g>
        <g transform="matrix(0.0625 0.0000 0.0000 0.0625 0.0000 0.0000)">
          <path d="M 303.2586,40.6810 C 303.8276,40.6810 304.3254,40.2543 304.3254,39.6142 L 304.3254,32.3599 C 304.3254,31.7198 303.8276,31.2931 303.2586,31.2931 C 302.6897,31.2931 302.1918,31.7198 302.1918,32.3599 L 302.1918,39.6142 C 302.1918,40.2543 302.6897,40.6810 303.2586,40.6810 Z " fill="#866B00" stroke="none"/>
        </g>
        <g transform="matrix(1.0000 0.0000 0.0000 1.0000 0.0000 0.0000)">
</g>
        <g transform="matrix(0.0625 0.0000 0.0000 0.0625 0.0000 0.0000)">
          <path d="M 303.2586,40.6810 C 303.8276,40.6810 304.3254,40.2543 304.3254,39.6142 L 304.3254,32.3599 C 304.3254,31.7198 303.8276,31.2931 303.2586,31.2931 C 302.6897,31.2931 302.1918,31.7198 302.1918,32.3599 L 302.1918,39.6142 C 302.1918,40.2543 302.6897,40.6810 303.2586,40.6810 Z " stroke="#000000" stroke-width="1.1379" stroke-linecap="round" stroke-linejoin="round" fill="none"/>
        </g>
        <g transform="matrix(1.0000 0.0000 0.0000 1.0000 0.0000 0.0000)">
</g>
        <g transform="matrix(0.0625 0.0000 0.0000 0.0625 0.0000 0.0000)">
          <path d="M 303.2586,52.2026 C 303.8276,52.2026 304.3254,51.7047 304.3254,51.1358 L 304.3254,43.8103 C 304.3254,43.2414 303.8276,42.7435 303.2586,42.7435 C 302.6897,42.7435 302.1918,43.2414 302.1918,43.8103 L 302.1918,51.1358 C 302.1918,51.7047 302.6897,52.2026 303.2586,52.2026 Z " fill="#866B00" stroke="none"/>
        </g>
        <g transform="matrix(1.0000 0.0000 0.0000 1.0000 0.0000 0.0000)">
</g>
        <g transform="matrix(0.0625 0.0000 0.0000 0.0625 0.0000 0.0000)">
          <path d="M 303.2586,52.2026 C 303.8276,52.2026 304.3254,51.7047 304.3254,51.1358 L 304.3254,43.8103 C 304.3254,43.2414 303.8276,42.7435 303.2586,42.7435 C 302.6897,42.7435 302.1918,43.2414 302.1918,43.8103 L 302.1918,51.1358 C 302.1918,51.7047 302.6897,52.2026 303.2586,52.2026 Z " stroke="#000000" stroke-width="1.1379" stroke-linecap="round" stroke-linejoin="round" fill="none"/>
        </g>
        <g transform="matrix(1.0000 0.0000 0.0000 1.0000 0.0000 0.0000)">
</g>
        <g transform="matrix(0.0625 0.0000 0.0000 0.0625 0.0000 0.0000)">
          <path d="M 224.9547,42.4591 C 226.0927,42.4591 227.0884,41.5345 227.0884,40.3254 L 227.0884,32.6444 C 227.0884,31.5065 226.0927,30.5108 224.9547,30.5108 C 223.7457,30.5108 222.8211,31.5065 222.8211,32.6444 L 222.8211,40.3254 C 222.8211,41.5345 223.7457,42.4591 224.9547,42.4591 Z " fill="#866B00" stroke="none"/>
        </g>
        <g transform="matrix(1.0000 0.0000 0.0000 1.0000 0.0000 0.0000)">
</g>
        <g transform="matrix(0.0625 0.0000 0.0000 0.0625 0.0000 0.0000)">
          <path d="M 224.9547,42.4591 C 226.0927,42.4591 227.0884,41.5345 227.0884,40.3254 L 227.0884,32.6444 C 227.0884,31.5065 226.0927,30.5108 224.9547,30.5108 C 223.7457,30.5108 222.8211,31.5065 222.8211,32.6444 L 222.8211,40.3254 C 222.8211,41.5345 223.7457,42.4591 224.9547,42.4591 Z " stroke="#000000" stroke-width="1.1379" stroke-linecap="round" stroke-linejoin="round" fill="none"/>
        </g>
        <g transform="matrix(1.0000 0.0000 0.0000 1.0000 0.0000 0.0000)">
</g>
        <g transform="matrix(0.0625 0.0000 0.0000 0.0625 0.0000 0.0000)">
          <path d="M 224.0302,29.2306 C 224.5991,29.2306 225.0970,28.7328 225.0970,28.1638 L 225.0970,20.8384 C 225.0970,20.2694 224.5991,19.7716 224.0302,19.7716 C 223.3901,19.7716 222.9634,20.2694 222.9634,20.8384 L 222.9634,28.1638 C 222.9634,28.7328 223.3901,29.2306 224.0302,29.2306 Z " fill="#866B00" stroke="none"/>
        </g>
        <g transform="matrix(1.0000 0.0000 0.0000 1.0000 0.0000 0.0000)">
</g>
        <g transform="matrix(0.0625 0.0000 0.0000 0.0625 0.0000 0.0000)">
          <path d="M 224.0302,29.2306 C 224.5991,29.2306 225.0970,28.7328 225.0970,28.1638 L 225.0970,20.8384 C 225.0970,20.2694 224.5991,19.7716 224.0302,19.7716 C 223.3901,19.7716 222.9634,20.2694 222.9634,20.8384 L 222.9634,28.1638 C 222.9634,28.7328 223.3901,29.2306 224.0302,29.2306 Z " stroke="#000000" stroke-width="1.1379" stroke-linecap="round" stroke-linejoin="round" fill="none"/>
        </g>
        <g transform="matrix(1.0000 0.0000 0.0000 1.0000 0.0000 0.0000)">
</g>
        <g transform="matrix(0.0625 0.0000 0.0000 0.0625 0.0000 0.0000)">
          <path d="M 224.0302,40.6810 C 224.5991,40.6810 225.0970,40.2543 225.0970,39.6142 L 225.0970,32.3599 C 225.0970,31.7198 224.5991,31.2931 224.0302,31.2931 C 223.3901,31.2931 222.9634,31.7198 222.9634,32.3599 L 222.9634,39.6142 C 222.9634,40.2543 223.3901,40.6810 224.0302,40.6810 Z " fill="#866B00" stroke="none"/>
        </g>
        <g transform="matrix(1.0000 0.0000 0.0000 1.0000 0.0000 0.0000)">
</g>
        <g transform="matrix(0.0625 0.0000 0.0000 0.0625 0.0000 0.0000)">
          <path d="M 224.0302,40.6810 C 224.5991,40.6810 225.0970,40.2543 225.0970,39.6142 L 225.0970,32.3599 C 225.0970,31.7198 224.5991,31.2931 224.0302,31.2931 C 223.3901,31.2931 222.9634,31.7198 222.9634,32.3599 L 222.9634,39.6142 C 222.9634,40.2543 223.3901,40.6810 224.0302,40.6810 Z " stroke="#000000" stroke-width="1.1379" stroke-linecap="round" stroke-linejoin="round" fill="none"/>
        </g>
        <g transform="matrix(1.0000 0.0000 0.0000 1.0000 0.0000 0.0000)">
</g>
        <g transform="matrix(0.0625 0.0000 0.0000 0.0625 0.0000 0.0000)">
          <path d="M 224.0302,52.2026 C 224.5991,52.2026 225.0970,51.7047 225.0970,51.1358 L 225.0970,43.8103 C 225.0970,43.2414 224.5991,42.7435 224.0302,42.7435 C 223.3901,42.7435 222.9634,43.2414 222.9634,43.8103 L 222.9634,51.1358 C 222.9634,51.7047 223.3901,52.2026 224.0302,52.2026 Z " fill="#866B00" stroke="none"/>
        </g>
        <g transform="matrix(1.0000 0.0000 0.0000 1.0000 0.0000 0.0000)">
</g>
        <g transform="matrix(0.0625 0.0000 0.0000 0.0625 0.0000 0.0000)">
          <path d="M 224.0302,52.2026 C 224.5991,52.2026 225.0970,51.7047 225.0970,51.1358 L 225.0970,43.8103 C 225.0970,43.2414 224.5991,42.7435 224.0302,42.7435 C 223.3901,42.7435 222.9634,43.2414 222.9634,43.8103 L 222.9634,51.1358 C 222.9634,51.7047 223.3901,52.2026 224.0302,52.2026 Z " stroke="#000000" stroke-width="1.1379" stroke-linecap="round" stroke-linejoin="round" fill="none"/>
        </g>
        <g transform="matrix(1.0000 0.0000 0.0000 1.0000 0.0000 0.0000)">
</g>
        <g transform="matrix(0.0625 0.0000 0.0000 0.0625 0.0000 0.0000)">
          <path d="M 300.9116,51.8470 C 301.6228,51.8470 302.1918,51.2780 302.1918,50.5668 L 302.1918,48.4332 C 302.1918,47.7931 301.6228,47.1530 300.9116,47.1530 C 300.2004,47.1530 299.6315,47.7931 299.6315,48.4332 L 299.6315,50.5668 C 299.6315,51.2780 300.2004,51.8470 300.9116,51.8470 Z " fill="#866B00" stroke="none"/>
        </g>
        <g transform="matrix(1.0000 0.0000 0.0000 1.0000 0.0000 0.0000)">
</g>
        <g transform="matrix(0.0625 0.0000 0.0000 0.0625 0.0000 0.0000)">
          <path d="M 300.9116,51.8470 C 301.6228,51.8470 302.1918,51.2780 302.1918,50.5668 L 302.1918,48.4332 C 302.1918,47.7931 301.6228,47.1530 300.9116,47.1530 C 300.2004,47.1530 299.6315,47.7931 299.6315,48.4332 L 299.6315,50.5668 C 299.6315,51.2780 300.2004,51.8470 300.9116,51.8470 Z " stroke="#000000" stroke-width="1.1379" stroke-linecap="round" stroke-linejoin="round" fill="none"/>
        </g>
        <g transform="matrix(1.0000 0.0000 0.0000 1.0000 0.0000 0.0000)">
</g>
        <g transform="matrix(0.0625 0.0000 0.0000 0.0625 0.0000 0.0000)">
          <path d="M 226.6616,51.8470 C 227.3728,51.8470 227.9418,51.2780 227.9418,50.5668 L 227.9418,48.4332 C 227.9418,47.7931 227.3728,47.1530 226.6616,47.1530 C 225.9504,47.1530 225.3815,47.7931 225.3815,48.4332 L 225.3815,50.5668 C 225.3815,51.2780 225.9504,51.8470 226.6616,51.8470 Z " fill="#866B00" stroke="none"/>
        </g>
        <g transform="matrix(1.0000 0.0000 0.0000 1.0000 0.0000 0.0000)">
</g>
        <g transform="matrix(0.0625 0.0000 0.0000 0.0625 0.0000 0.0000)">
          <path d="M 226.6616,51.8470 C 227.3728,51.8470 227.9418,51.2780 227.9418,50.5668 L 227.9418,48.4332 C 227.9418,47.7931 227.3728,47.1530 226.6616,47.1530 C 225.9504,47.1530 225.3815,47.7931 225.3815,48.4332 L 225.3815,50.5668 C 225.3815,51.2780 225.9504,51.8470 226.6616,51.8470 Z " stroke="#000000" stroke-width="1.1379" stroke-linecap="round" stroke-linejoin="round" fill="none"/>
        </g>
        <g transform="matrix(1.0000 0.0000 0.0000 1.0000 0.0000 0.0000)">
</g>
        <g transform="matrix(0.0625 0.0000 0.0000 0.0625 0.0000 0.0000)">
          <path d="M 277.8685,16.0022 C 277.8685,16.3578 278.1530,16.6422 278.5086,16.6422 L 287.8966,16.6422 C 288.2522,16.6422 288.5366,16.3578 288.5366,16.0022 C 288.5366,15.6466 288.2522,15.3621 287.8966,15.3621 L 278.5086,15.3621 C 278.1530,15.3621 277.8685,15.6466 277.8685,16.0022 Z " fill="#C0C0C0" stroke="none"/>
        </g>
        <g transform="matrix(1.0000 0.0000 0.0000 1.0000 0.0000 0.0000)">
</g>
        <g transform="matrix(0.0625 0.0000 0.0000 0.0625 0.0000 0.0000)">
          <path d="M 277.8685,16.0022 C 277.8685,16.3578 278.1530,16.6422 278.5086,16.6422 L 287.8966,16.6422 C 288.2522,16.6422 288.5366,16.3578 288.5366,16.0022 C 288.5366,15.6466 288.2522,15.3621 287.8966,15.3621 L 278.5086,15.3621 C 278.1530,15.3621 277.8685,15.6466 277.8685,16.0022 Z " stroke="#000000" stroke-width="1.1379" stroke-linecap="round" stroke-linejoin="round" fill="none"/>
        </g>
        <g transform="matrix(1.0000 0.0000 0.0000 1.0000 0.0000 0.0000)">
</g>
        <g transform="matrix(0.0625 0.0000 0.0000 0.0625 0.0000 0.0000)">
          <path d="M 238.8233,16.0022 C 238.8233,16.3578 239.1078,16.6422 239.4634,16.6422 L 248.8513,16.6422 C 249.2069,16.6422 249.4914,16.3578 249.4914,16.0022 C 249.4914,15.6466 249.2069,15.3621 248.8513,15.3621 L 239.4634,15.3621 C 239.1078,15.3621 238.8233,15.6466 238.8233,16.0022 Z " fill="#C0C0C0" stroke="none"/>
        </g>
        <g transform="matrix(1.0000 0.0000 0.0000 1.0000 0.0000 0.0000)">
</g>
        <g transform="matrix(0.0625 0.0000 0.0000 0.0625 0.0000 0.0000)">
          <path d="M 238.8233,16.0022 C 238.8233,16.3578 239.1078,16.6422 239.4634,16.6422 L 248.8513,16.6422 C 249.2069,16.6422 249.4914,16.3578 249.4914,16.0022 C 249.4914,15.6466 249.2069,15.3621 248.8513,15.3621 L 239.4634,15.3621 C 239.1078,15.3621 238.8233,15.6466 238.8233,16.0022 Z " stroke="#000000" stroke-width="1.1379" stroke-linecap="round" stroke-linejoin="round" fill="none"/>
        </g>
        <g transform="matrix(1.0000 0.0000 0.0000 1.0000 0.0000 0.0000)">
</g>
        <g transform="matrix(0.0625 0.0000 0.0000 0.0625 0.0000 0.0000)">
          <path d="M 305.2500,40.6810 C 305.5345,40.6810 305.8190,40.4677 305.8190,40.1832 L 305.8190,31.7909 C 305.8190,31.5065 305.5345,31.2931 305.2500,31.2931 C 304.9655,31.2931 304.7522,31.5065 304.7522,31.7909 L 304.7522,40.1832 C 304.7522,40.4677 304.9655,40.6810 305.2500,40.6810 Z " fill="#C0C0C0" stroke="none"/>
        </g>
        <g transform="matrix(1.0000 0.0000 0.0000 1.0000 0.0000 0.0000)">
</g>
        <g transform="matrix(0.0625 0.0000 0.0000 0.0625 0.0000 0.0000)">
          <path d="M 305.2500,40.6810 C 305.5345,40.6810 305.8190,40.4677 305.8190,40.1832 L 305.8190,31.7909 C 305.8190,31.5065 305.5345,31.2931 305.2500,31.2931 C 304.9655,31.2931 304.7522,31.5065 304.7522,31.7909 L 304.7522,40.1832 C 304.7522,40.4677 304.9655,40.6810 305.2500,40.6810 Z " stroke="#000000" stroke-width="1.1379" stroke-linecap="round" stroke-linejoin="round" fill="none"/>
        </g>
        <g transform="matrix(1.0000 0.0000 0.0000 1.0000 0.0000 0.0000)">
</g>
        <g transform="matrix(0.0625 0.0000 0.0000 0.0625 0.0000 0.0000)">
          <path d="M 222.0388,40.6810 C 222.3233,40.6810 222.6078,40.4677 222.6078,40.1832 L 222.6078,31.7909 C 222.6078,31.5065 222.3233,31.2931 222.0388,31.2931 C 221.7543,31.2931 221.5409,31.5065 221.5409,31.7909 L 221.5409,40.1832 C 221.5409,40.4677 221.7543,40.6810 222.0388,40.6810 Z " fill="#C0C0C0" stroke="none"/>
        </g>
        <g transform="matrix(1.0000 0.0000 0.0000 1.0000 0.0000 0.0000)">
</g>
        <g transform="matrix(0.0625 0.0000 0.0000 0.0625 0.0000 0.0000)">
          <path d="M 222.0388,40.6810 C 222.3233,40.6810 222.6078,40.4677 222.6078,40.1832 L 222.6078,31.7909 C 222.6078,31.5065 222.3233,31.2931 222.0388,31.2931 C 221.7543,31.2931 221.5409,31.5065 221.5409,31.7909 L 221.5409,40.1832 C 221.5409,40.4677 221.7543,40.6810 222.0388,40.6810 Z " stroke="#000000" stroke-width="1.1379" stroke-linecap="round" stroke-linejoin="round" fill="none"/>
        </g>
        <g transform="matrix(1.0000 0.0000 0.0000 1.0000 0.0000 0.0000)">
</g>
        <g transform="matrix(0.0000 -1.0000 1.0000 0.0000 19.9991 3.5071)">
          <text font-family="Arial" fill="#595959" style="white-space:pre;" font-weight="400" text-anchor="start" x="0.0000" y="0.0000" font-size="0.7823"><![CDATA[PORT]]></text>
        </g>
        <g transform="matrix(0.0000 -1.0000 1.0000 0.0000 19.9991 1.3998)">
          <text font-family="Arial" fill="#595959" style="white-space:pre;" font-weight="400" text-anchor="start" x="0.0000" y="0.0000" font-size="0.7823"><![CDATA[2]]></text>
        </g>
        <g transform="matrix(0.0625 0.0000 0.0000 0.0625 0.0000 0.0000)">
          <path d="M 213.6466,16.9978 L 213.6466,30.6530 L 220.4741,23.8254 L 213.6466,16.9978 Z" stroke="#7F7F7F" stroke-width="1.1379" stroke-linecap="round" stroke-linejoin="round" fill="none"/>
        </g>
        <g transform="matrix(1.0000 0.0000 0.0000 1.0000 0.0000 0.0000)">
</g>
        <g transform="matrix(0.0625 0.0000 0.0000 0.0625 0.0000 0.0000)">
          <path d="M 200.4181,54.5496 L 200.4181,40.8944 L 193.5905,47.7220 L 200.4181,54.5496 Z" stroke="#7F7F7F" stroke-width="1.1379" stroke-linecap="round" stroke-linejoin="round" fill="none"/>
        </g>
        <g transform="matrix(1.0000 0.0000 0.0000 1.0000 0.0000 0.0000)">
</g>
      </g>
      <!--emf-blob end-->
    </g>
  </g>
</svg>
