<svg xmlns="http://www.w3.org/2000/svg" xmlns:xlink="http://www.w3.org/1999/xlink" version="1.1" width="56.6929000000" height="15.8984000000">
  <title><![CDATA[Add SATA Shelf]]></title>
  <g transform=" scale(1.000000) ">
    <!--converted by libvisio2svg-->
    <g transform=" translate(-1.149600,-1.276700) ">
      <!--emf-blob start-->
      <g transform="translate(0.9255, 0.9255)">
        <defs>
          <clipPath id="clip-338888228">
            <path d="M 4.6276,2.7765 L 53.6796,2.7765 L 53.6796,16.6592 L 4.6276,16.6592 L 4.6276,2.7765 Z Z"/>
          </clipPath>
        </defs>
        <path clip-path="url(#clip-338888228)" d="M 3.7020,1.8510 L 3.7020,15.7337 L 4.6276,15.7337 L 4.6276,1.8510 L 3.7020,1.8510 Z" stroke-width="1px" stroke="#A6A6A6" fill="#A6A6A6"/>
        <path clip-path="url(#clip-338888228)" d="M 4.6276,1.8510 L 4.6276,15.7337 L 5.5531,15.7337 L 5.5531,1.8510 L 4.6276,1.8510 Z" stroke-width="1px" stroke="#A7A7A7" fill="#A7A7A7"/>
        <path clip-path="url(#clip-338888228)" d="M 5.5531,1.8510 L 5.5531,15.7337 L 6.4786,15.7337 L 6.4786,1.8510 L 5.5531,1.8510 Z" stroke-width="1px" stroke="#A9A9A9" fill="#A9A9A9"/>
        <path clip-path="url(#clip-338888228)" d="M 6.4786,1.8510 L 6.4786,15.7337 L 7.4041,15.7337 L 7.4041,1.8510 L 6.4786,1.8510 Z" stroke-width="1px" stroke="#AAAAAA" fill="#AAAAAA"/>
        <path clip-path="url(#clip-338888228)" d="M 7.4041,1.8510 L 7.4041,15.7337 L 8.3296,15.7337 L 8.3296,1.8510 L 7.4041,1.8510 Z" stroke-width="1px" stroke="#ACACAC" fill="#ACACAC"/>
        <path clip-path="url(#clip-338888228)" d="M 8.3296,1.8510 L 8.3296,15.7337 L 9.2551,15.7337 L 9.2551,1.8510 L 8.3296,1.8510 Z" stroke-width="1px" stroke="#ADADAD" fill="#ADADAD"/>
        <path clip-path="url(#clip-338888228)" d="M 9.2551,1.8510 L 9.2551,15.7337 L 10.1806,15.7337 L 10.1806,1.8510 L 9.2551,1.8510 Z" stroke-width="1px" stroke="#AFAFAF" fill="#AFAFAF"/>
        <path clip-path="url(#clip-338888228)" d="M 10.1806,1.8510 L 10.1806,15.7337 L 11.1061,15.7337 L 11.1061,1.8510 L 10.1806,1.8510 Z" stroke-width="1px" stroke="#B0B0B0" fill="#B0B0B0"/>
        <path clip-path="url(#clip-338888228)" d="M 11.1061,1.8510 L 11.1061,15.7337 L 12.0316,15.7337 L 12.0316,1.8510 L 11.1061,1.8510 Z" stroke-width="1px" stroke="#B2B2B2" fill="#B2B2B2"/>
        <path clip-path="url(#clip-338888228)" d="M 12.0316,1.8510 L 12.0316,15.7337 L 12.9571,15.7337 L 12.9571,1.8510 L 12.0316,1.8510 Z" stroke-width="1px" stroke="#B3B3B3" fill="#B3B3B3"/>
        <path clip-path="url(#clip-338888228)" d="M 12.9571,1.8510 L 12.9571,15.7337 L 13.8827,15.7337 L 13.8827,1.8510 L 12.9571,1.8510 Z" stroke-width="1px" stroke="#B5B5B5" fill="#B5B5B5"/>
        <path clip-path="url(#clip-338888228)" d="M 13.8827,1.8510 L 13.8827,15.7337 L 14.8082,15.7337 L 14.8082,1.8510 L 13.8827,1.8510 Z" stroke-width="1px" stroke="#B6B6B6" fill="#B6B6B6"/>
        <path clip-path="url(#clip-338888228)" d="M 14.8082,1.8510 L 14.8082,15.7337 L 15.7337,15.7337 L 15.7337,1.8510 L 14.8082,1.8510 Z" stroke-width="1px" stroke="#B8B8B8" fill="#B8B8B8"/>
        <path clip-path="url(#clip-338888228)" d="M 15.7337,1.8510 L 15.7337,15.7337 L 16.6592,15.7337 L 16.6592,1.8510 L 15.7337,1.8510 Z" stroke-width="1px" stroke="#B9B9B9" fill="#B9B9B9"/>
        <path clip-path="url(#clip-338888228)" d="M 16.6592,1.8510 L 16.6592,15.7337 L 17.5847,15.7337 L 17.5847,1.8510 L 16.6592,1.8510 Z" stroke-width="1px" stroke="#BBBBBB" fill="#BBBBBB"/>
        <path clip-path="url(#clip-338888228)" d="M 17.5847,1.8510 L 17.5847,15.7337 L 18.5102,15.7337 L 18.5102,1.8510 L 17.5847,1.8510 Z" stroke-width="1px" stroke="#BCBCBC" fill="#BCBCBC"/>
        <path clip-path="url(#clip-338888228)" d="M 18.5102,1.8510 L 18.5102,15.7337 L 19.4357,15.7337 L 19.4357,1.8510 L 18.5102,1.8510 Z" stroke-width="1px" stroke="#BDBDBD" fill="#BDBDBD"/>
        <path clip-path="url(#clip-338888228)" d="M 19.4357,1.8510 L 19.4357,15.7337 L 20.3612,15.7337 L 20.3612,1.8510 L 19.4357,1.8510 Z" stroke-width="1px" stroke="#BEBEBE" fill="#BEBEBE"/>
        <path clip-path="url(#clip-338888228)" d="M 20.3612,1.8510 L 20.3612,15.7337 L 21.2867,15.7337 L 21.2867,1.8510 L 20.3612,1.8510 Z" stroke-width="1px" stroke="#C0C0C0" fill="#C0C0C0"/>
        <path clip-path="url(#clip-338888228)" d="M 21.2867,1.8510 L 21.2867,15.7337 L 22.2122,15.7337 L 22.2122,1.8510 L 21.2867,1.8510 Z" stroke-width="1px" stroke="#C1C1C1" fill="#C1C1C1"/>
        <path clip-path="url(#clip-338888228)" d="M 22.2122,1.8510 L 22.2122,15.7337 L 23.1378,15.7337 L 23.1378,1.8510 L 22.2122,1.8510 Z" stroke-width="1px" stroke="#C3C3C3" fill="#C3C3C3"/>
        <path clip-path="url(#clip-338888228)" d="M 23.1378,1.8510 L 23.1378,15.7337 L 24.0633,15.7337 L 24.0633,1.8510 L 23.1378,1.8510 Z" stroke-width="1px" stroke="#C4C4C4" fill="#C4C4C4"/>
        <path clip-path="url(#clip-338888228)" d="M 24.0633,1.8510 L 24.0633,15.7337 L 24.9888,15.7337 L 24.9888,1.8510 L 24.0633,1.8510 Z" stroke-width="1px" stroke="#C6C6C6" fill="#C6C6C6"/>
        <path clip-path="url(#clip-338888228)" d="M 24.9888,1.8510 L 24.9888,15.7337 L 25.9143,15.7337 L 25.9143,1.8510 L 24.9888,1.8510 Z" stroke-width="1px" stroke="#C7C7C7" fill="#C7C7C7"/>
        <path clip-path="url(#clip-338888228)" d="M 25.9143,1.8510 L 25.9143,15.7337 L 26.8398,15.7337 L 26.8398,1.8510 L 25.9143,1.8510 Z" stroke-width="1px" stroke="#C8C8C8" fill="#C8C8C8"/>
        <path clip-path="url(#clip-338888228)" d="M 26.8398,1.8510 L 26.8398,15.7337 L 27.7653,15.7337 L 27.7653,1.8510 L 26.8398,1.8510 Z" stroke-width="1px" stroke="#CACACA" fill="#CACACA"/>
        <path clip-path="url(#clip-338888228)" d="M 27.7653,1.8510 L 27.7653,15.7337 L 28.6908,15.7337 L 28.6908,1.8510 L 27.7653,1.8510 Z" stroke-width="1px" stroke="#CBCBCB" fill="#CBCBCB"/>
        <path clip-path="url(#clip-338888228)" d="M 28.6908,1.8510 L 28.6908,15.7337 L 29.6163,15.7337 L 29.6163,1.8510 L 28.6908,1.8510 Z" stroke-width="1px" stroke="#CDCDCD" fill="#CDCDCD"/>
        <path clip-path="url(#clip-338888228)" d="M 29.6163,1.8510 L 29.6163,15.7337 L 30.5418,15.7337 L 30.5418,1.8510 L 29.6163,1.8510 Z" stroke-width="1px" stroke="#CCCCCC" fill="#CCCCCC"/>
        <path clip-path="url(#clip-338888228)" d="M 30.5418,1.8510 L 30.5418,15.7337 L 31.4673,15.7337 L 31.4673,1.8510 L 30.5418,1.8510 Z" stroke-width="1px" stroke="#CACACA" fill="#CACACA"/>
        <path clip-path="url(#clip-338888228)" d="M 31.4673,1.8510 L 31.4673,15.7337 L 32.3929,15.7337 L 32.3929,1.8510 L 31.4673,1.8510 Z" stroke-width="1px" stroke="#C9C9C9" fill="#C9C9C9"/>
        <path clip-path="url(#clip-338888228)" d="M 32.3929,1.8510 L 32.3929,15.7337 L 33.3184,15.7337 L 33.3184,1.8510 L 32.3929,1.8510 Z" stroke-width="1px" stroke="#C7C7C7" fill="#C7C7C7"/>
        <path clip-path="url(#clip-338888228)" d="M 33.3184,1.8510 L 33.3184,15.7337 L 34.2439,15.7337 L 34.2439,1.8510 L 33.3184,1.8510 Z" stroke-width="1px" stroke="#C6C6C6" fill="#C6C6C6"/>
        <path clip-path="url(#clip-338888228)" d="M 34.2439,1.8510 L 34.2439,15.7337 L 35.1694,15.7337 L 35.1694,1.8510 L 34.2439,1.8510 Z" stroke-width="1px" stroke="#C4C4C4" fill="#C4C4C4"/>
        <path clip-path="url(#clip-338888228)" d="M 35.1694,1.8510 L 35.1694,15.7337 L 36.0949,15.7337 L 36.0949,1.8510 L 35.1694,1.8510 Z" stroke-width="1px" stroke="#C3C3C3" fill="#C3C3C3"/>
        <path clip-path="url(#clip-338888228)" d="M 36.0949,1.8510 L 36.0949,15.7337 L 37.0204,15.7337 L 37.0204,1.8510 L 36.0949,1.8510 Z" stroke-width="1px" stroke="#C1C1C1" fill="#C1C1C1"/>
        <path clip-path="url(#clip-338888228)" d="M 37.0204,1.8510 L 37.0204,15.7337 L 37.9459,15.7337 L 37.9459,1.8510 L 37.0204,1.8510 Z" stroke-width="1px" stroke="#C0C0C0" fill="#C0C0C0"/>
        <path clip-path="url(#clip-338888228)" d="M 37.9459,1.8510 L 37.9459,15.7337 L 38.8714,15.7337 L 38.8714,1.8510 L 37.9459,1.8510 Z" stroke-width="1px" stroke="#BEBEBE" fill="#BEBEBE"/>
        <path clip-path="url(#clip-338888228)" d="M 38.8714,1.8510 L 38.8714,15.7337 L 39.7969,15.7337 L 39.7969,1.8510 L 38.8714,1.8510 Z" stroke-width="1px" stroke="#BDBDBD" fill="#BDBDBD"/>
        <path clip-path="url(#clip-338888228)" d="M 39.7969,1.8510 L 39.7969,15.7337 L 40.7224,15.7337 L 40.7224,1.8510 L 39.7969,1.8510 Z" stroke-width="1px" stroke="#BCBCBC" fill="#BCBCBC"/>
        <path clip-path="url(#clip-338888228)" d="M 40.7224,1.8510 L 40.7224,15.7337 L 41.6480,15.7337 L 41.6480,1.8510 L 40.7224,1.8510 Z" stroke-width="1px" stroke="#BBBBBB" fill="#BBBBBB"/>
        <path clip-path="url(#clip-338888228)" d="M 41.6480,1.8510 L 41.6480,15.7337 L 42.5735,15.7337 L 42.5735,1.8510 L 41.6480,1.8510 Z" stroke-width="1px" stroke="#B9B9B9" fill="#B9B9B9"/>
        <path clip-path="url(#clip-338888228)" d="M 42.5735,1.8510 L 42.5735,15.7337 L 43.4990,15.7337 L 43.4990,1.8510 L 42.5735,1.8510 Z" stroke-width="1px" stroke="#B8B8B8" fill="#B8B8B8"/>
        <path clip-path="url(#clip-338888228)" d="M 43.4990,1.8510 L 43.4990,15.7337 L 44.4245,15.7337 L 44.4245,1.8510 L 43.4990,1.8510 Z" stroke-width="1px" stroke="#B6B6B6" fill="#B6B6B6"/>
        <path clip-path="url(#clip-338888228)" d="M 44.4245,1.8510 L 44.4245,15.7337 L 45.3500,15.7337 L 45.3500,1.8510 L 44.4245,1.8510 Z" stroke-width="1px" stroke="#B5B5B5" fill="#B5B5B5"/>
        <path clip-path="url(#clip-338888228)" d="M 45.3500,1.8510 L 45.3500,15.7337 L 46.2755,15.7337 L 46.2755,1.8510 L 45.3500,1.8510 Z" stroke-width="1px" stroke="#B3B3B3" fill="#B3B3B3"/>
        <path clip-path="url(#clip-338888228)" d="M 46.2755,1.8510 L 46.2755,15.7337 L 47.2010,15.7337 L 47.2010,1.8510 L 46.2755,1.8510 Z" stroke-width="1px" stroke="#B2B2B2" fill="#B2B2B2"/>
        <path clip-path="url(#clip-338888228)" d="M 47.2010,1.8510 L 47.2010,15.7337 L 48.1265,15.7337 L 48.1265,1.8510 L 47.2010,1.8510 Z" stroke-width="1px" stroke="#B0B0B0" fill="#B0B0B0"/>
        <path clip-path="url(#clip-338888228)" d="M 48.1265,1.8510 L 48.1265,15.7337 L 49.0520,15.7337 L 49.0520,1.8510 L 48.1265,1.8510 Z" stroke-width="1px" stroke="#AFAFAF" fill="#AFAFAF"/>
        <path clip-path="url(#clip-338888228)" d="M 49.0520,1.8510 L 49.0520,15.7337 L 49.9775,15.7337 L 49.9775,1.8510 L 49.0520,1.8510 Z" stroke-width="1px" stroke="#ADADAD" fill="#ADADAD"/>
        <path clip-path="url(#clip-338888228)" d="M 49.9775,1.8510 L 49.9775,15.7337 L 50.9031,15.7337 L 50.9031,1.8510 L 49.9775,1.8510 Z" stroke-width="1px" stroke="#ACACAC" fill="#ACACAC"/>
        <path clip-path="url(#clip-338888228)" d="M 50.9031,1.8510 L 50.9031,15.7337 L 51.8286,15.7337 L 51.8286,1.8510 L 50.9031,1.8510 Z" stroke-width="1px" stroke="#AAAAAA" fill="#AAAAAA"/>
        <path clip-path="url(#clip-338888228)" d="M 51.8286,1.8510 L 51.8286,15.7337 L 52.7541,15.7337 L 52.7541,1.8510 L 51.8286,1.8510 Z" stroke-width="1px" stroke="#A9A9A9" fill="#A9A9A9"/>
        <path clip-path="url(#clip-338888228)" d="M 52.7541,1.8510 L 52.7541,15.7337 L 53.6796,15.7337 L 53.6796,1.8510 L 52.7541,1.8510 Z" stroke-width="1px" stroke="#A7A7A7" fill="#A7A7A7"/>
        <g transform="matrix(0.0625 0.0000 0.0000 0.0625 0.0000 0.0000)">
          <path d="M 61.0837,257.2918 L 858.8733,257.2918 L 858.8733,42.5735 L 61.0837,42.5735 L 61.0837,257.2918 " stroke="#0054A6" stroke-width="9.2551" stroke-linecap="round" stroke-linejoin="round" fill="none"/>
        </g>
        <g transform="matrix(1.0000 0.0000 0.0000 1.0000 0.0000 0.0000)">
          <defs>
            <clipPath id="clip-2147469841">
              <path d="M 5.5531,4.6276 L 52.7541,4.6276 L 52.7541,14.8082 L 5.5531,14.8082 L 5.5531,4.6276 Z Z"/>
            </clipPath>
          </defs>
          <path clip-path="url(#clip-2147469841)" d="M 4.6276,3.7020 L 4.6276,14.8082 L 5.5531,14.8082 L 5.5531,3.7020 L 4.6276,3.7020 Z" stroke-width="1px" stroke="#B2B2B2" fill="#B2B2B2"/>
          <path clip-path="url(#clip-2147469841)" d="M 5.5531,3.7020 L 5.5531,14.8082 L 6.4786,14.8082 L 6.4786,3.7020 L 5.5531,3.7020 Z" stroke-width="1px" stroke="#5A5A5A" fill="#5A5A5A"/>
          <path clip-path="url(#clip-2147469841)" d="M 6.4786,3.7020 L 6.4786,14.8082 L 7.4041,14.8082 L 7.4041,3.7020 L 6.4786,3.7020 Z" stroke-width="1px" stroke="#5C5C5C" fill="#5C5C5C"/>
          <path clip-path="url(#clip-2147469841)" d="M 7.4041,3.7020 L 7.4041,14.8082 L 8.3296,14.8082 L 8.3296,3.7020 L 7.4041,3.7020 Z" stroke-width="1px" stroke="#5D5D5D" fill="#5D5D5D"/>
          <path clip-path="url(#clip-2147469841)" d="M 8.3296,3.7020 L 8.3296,14.8082 L 9.2551,14.8082 L 9.2551,3.7020 L 8.3296,3.7020 Z" stroke-width="1px" stroke="#5F5F5F" fill="#5F5F5F"/>
          <path clip-path="url(#clip-2147469841)" d="M 9.2551,3.7020 L 9.2551,14.8082 L 10.1806,14.8082 L 10.1806,3.7020 L 9.2551,3.7020 Z" stroke-width="1px" stroke="#616161" fill="#616161"/>
          <path clip-path="url(#clip-2147469841)" d="M 10.1806,3.7020 L 10.1806,14.8082 L 11.1061,14.8082 L 11.1061,3.7020 L 10.1806,3.7020 Z" stroke-width="1px" stroke="#626262" fill="#626262"/>
          <path clip-path="url(#clip-2147469841)" d="M 11.1061,3.7020 L 11.1061,14.8082 L 12.0316,14.8082 L 12.0316,3.7020 L 11.1061,3.7020 Z" stroke-width="1px" stroke="#646464" fill="#646464"/>
          <path clip-path="url(#clip-2147469841)" d="M 12.0316,3.7020 L 12.0316,14.8082 L 12.9571,14.8082 L 12.9571,3.7020 L 12.0316,3.7020 Z" stroke-width="1px" stroke="#666666" fill="#666666"/>
          <path clip-path="url(#clip-2147469841)" d="M 12.9571,3.7020 L 12.9571,14.8082 L 13.8827,14.8082 L 13.8827,3.7020 L 12.9571,3.7020 Z" stroke-width="1px" stroke="#686868" fill="#686868"/>
          <path clip-path="url(#clip-2147469841)" d="M 13.8827,3.7020 L 13.8827,14.8082 L 14.8082,14.8082 L 14.8082,3.7020 L 13.8827,3.7020 Z" stroke-width="1px" stroke="#6A6A6A" fill="#6A6A6A"/>
          <path clip-path="url(#clip-2147469841)" d="M 14.8082,3.7020 L 14.8082,14.8082 L 15.7337,14.8082 L 15.7337,3.7020 L 14.8082,3.7020 Z" stroke-width="1px" stroke="#6C6C6C" fill="#6C6C6C"/>
          <path clip-path="url(#clip-2147469841)" d="M 15.7337,3.7020 L 15.7337,14.8082 L 16.6592,14.8082 L 16.6592,3.7020 L 15.7337,3.7020 Z" stroke-width="1px" stroke="#6D6D6D" fill="#6D6D6D"/>
          <path clip-path="url(#clip-2147469841)" d="M 16.6592,3.7020 L 16.6592,14.8082 L 17.5847,14.8082 L 17.5847,3.7020 L 16.6592,3.7020 Z" stroke-width="1px" stroke="#6F6F6F" fill="#6F6F6F"/>
          <path clip-path="url(#clip-2147469841)" d="M 17.5847,3.7020 L 17.5847,14.8082 L 18.5102,14.8082 L 18.5102,3.7020 L 17.5847,3.7020 Z" stroke-width="1px" stroke="#717171" fill="#717171"/>
          <path clip-path="url(#clip-2147469841)" d="M 18.5102,3.7020 L 18.5102,14.8082 L 19.4357,14.8082 L 19.4357,3.7020 L 18.5102,3.7020 Z" stroke-width="1px" stroke="#737373" fill="#737373"/>
          <path clip-path="url(#clip-2147469841)" d="M 19.4357,3.7020 L 19.4357,14.8082 L 20.3612,14.8082 L 20.3612,3.7020 L 19.4357,3.7020 Z" stroke-width="1px" stroke="#747474" fill="#747474"/>
          <path clip-path="url(#clip-2147469841)" d="M 20.3612,3.7020 L 20.3612,14.8082 L 21.2867,14.8082 L 21.2867,3.7020 L 20.3612,3.7020 Z" stroke-width="1px" stroke="#767676" fill="#767676"/>
          <path clip-path="url(#clip-2147469841)" d="M 21.2867,3.7020 L 21.2867,14.8082 L 22.2122,14.8082 L 22.2122,3.7020 L 21.2867,3.7020 Z" stroke-width="1px" stroke="#787878" fill="#787878"/>
          <path clip-path="url(#clip-2147469841)" d="M 22.2122,3.7020 L 22.2122,14.8082 L 23.1378,14.8082 L 23.1378,3.7020 L 22.2122,3.7020 Z" stroke-width="1px" stroke="#7A7A7A" fill="#7A7A7A"/>
          <path clip-path="url(#clip-2147469841)" d="M 23.1378,3.7020 L 23.1378,14.8082 L 24.0633,14.8082 L 24.0633,3.7020 L 23.1378,3.7020 Z" stroke-width="1px" stroke="#7B7B7B" fill="#7B7B7B"/>
          <path clip-path="url(#clip-2147469841)" d="M 24.0633,3.7020 L 24.0633,14.8082 L 24.9888,14.8082 L 24.9888,3.7020 L 24.0633,3.7020 Z" stroke-width="1px" stroke="#7D7D7D" fill="#7D7D7D"/>
          <path clip-path="url(#clip-2147469841)" d="M 24.9888,3.7020 L 24.9888,14.8082 L 25.9143,14.8082 L 25.9143,3.7020 L 24.9888,3.7020 Z" stroke-width="1px" stroke="#7F7F7F" fill="#7F7F7F"/>
          <path clip-path="url(#clip-2147469841)" d="M 25.9143,3.7020 L 25.9143,14.8082 L 26.8398,14.8082 L 26.8398,3.7020 L 25.9143,3.7020 Z" stroke-width="1px" stroke="#808080" fill="#808080"/>
          <path clip-path="url(#clip-2147469841)" d="M 26.8398,3.7020 L 26.8398,14.8082 L 27.7653,14.8082 L 27.7653,3.7020 L 26.8398,3.7020 Z" stroke-width="1px" stroke="#828282" fill="#828282"/>
          <path clip-path="url(#clip-2147469841)" d="M 27.7653,3.7020 L 27.7653,14.8082 L 28.6908,14.8082 L 28.6908,3.7020 L 27.7653,3.7020 Z" stroke-width="1px" stroke="#848484" fill="#848484"/>
          <path clip-path="url(#clip-2147469841)" d="M 28.6908,3.7020 L 28.6908,14.8082 L 29.6163,14.8082 L 29.6163,3.7020 L 28.6908,3.7020 Z" stroke-width="1px" stroke="#868686" fill="#868686"/>
          <path clip-path="url(#clip-2147469841)" d="M 29.6163,3.7020 L 29.6163,14.8082 L 30.5418,14.8082 L 30.5418,3.7020 L 29.6163,3.7020 Z" stroke-width="1px" stroke="#888888" fill="#888888"/>
          <path clip-path="url(#clip-2147469841)" d="M 30.5418,3.7020 L 30.5418,14.8082 L 31.4673,14.8082 L 31.4673,3.7020 L 30.5418,3.7020 Z" stroke-width="1px" stroke="#8A8A8A" fill="#8A8A8A"/>
          <path clip-path="url(#clip-2147469841)" d="M 31.4673,3.7020 L 31.4673,14.8082 L 32.3929,14.8082 L 32.3929,3.7020 L 31.4673,3.7020 Z" stroke-width="1px" stroke="#8C8C8C" fill="#8C8C8C"/>
          <path clip-path="url(#clip-2147469841)" d="M 32.3929,3.7020 L 32.3929,14.8082 L 33.3184,14.8082 L 33.3184,3.7020 L 32.3929,3.7020 Z" stroke-width="1px" stroke="#8D8D8D" fill="#8D8D8D"/>
          <path clip-path="url(#clip-2147469841)" d="M 33.3184,3.7020 L 33.3184,14.8082 L 34.2439,14.8082 L 34.2439,3.7020 L 33.3184,3.7020 Z" stroke-width="1px" stroke="#8F8F8F" fill="#8F8F8F"/>
          <path clip-path="url(#clip-2147469841)" d="M 34.2439,3.7020 L 34.2439,14.8082 L 35.1694,14.8082 L 35.1694,3.7020 L 34.2439,3.7020 Z" stroke-width="1px" stroke="#909090" fill="#909090"/>
          <path clip-path="url(#clip-2147469841)" d="M 35.1694,3.7020 L 35.1694,14.8082 L 36.0949,14.8082 L 36.0949,3.7020 L 35.1694,3.7020 Z" stroke-width="1px" stroke="#929292" fill="#929292"/>
          <path clip-path="url(#clip-2147469841)" d="M 36.0949,3.7020 L 36.0949,14.8082 L 37.0204,14.8082 L 37.0204,3.7020 L 36.0949,3.7020 Z" stroke-width="1px" stroke="#949494" fill="#949494"/>
          <path clip-path="url(#clip-2147469841)" d="M 37.0204,3.7020 L 37.0204,14.8082 L 37.9459,14.8082 L 37.9459,3.7020 L 37.0204,3.7020 Z" stroke-width="1px" stroke="#969696" fill="#969696"/>
          <path clip-path="url(#clip-2147469841)" d="M 37.9459,3.7020 L 37.9459,14.8082 L 38.8714,14.8082 L 38.8714,3.7020 L 37.9459,3.7020 Z" stroke-width="1px" stroke="#989898" fill="#989898"/>
          <path clip-path="url(#clip-2147469841)" d="M 38.8714,3.7020 L 38.8714,14.8082 L 39.7969,14.8082 L 39.7969,3.7020 L 38.8714,3.7020 Z" stroke-width="1px" stroke="#9A9A9A" fill="#9A9A9A"/>
          <path clip-path="url(#clip-2147469841)" d="M 39.7969,3.7020 L 39.7969,14.8082 L 40.7224,14.8082 L 40.7224,3.7020 L 39.7969,3.7020 Z" stroke-width="1px" stroke="#9C9C9C" fill="#9C9C9C"/>
          <path clip-path="url(#clip-2147469841)" d="M 40.7224,3.7020 L 40.7224,14.8082 L 41.6480,14.8082 L 41.6480,3.7020 L 40.7224,3.7020 Z" stroke-width="1px" stroke="#9D9D9D" fill="#9D9D9D"/>
          <path clip-path="url(#clip-2147469841)" d="M 41.6480,3.7020 L 41.6480,14.8082 L 42.5735,14.8082 L 42.5735,3.7020 L 41.6480,3.7020 Z" stroke-width="1px" stroke="#9F9F9F" fill="#9F9F9F"/>
          <path clip-path="url(#clip-2147469841)" d="M 42.5735,3.7020 L 42.5735,14.8082 L 43.4990,14.8082 L 43.4990,3.7020 L 42.5735,3.7020 Z" stroke-width="1px" stroke="#A1A1A1" fill="#A1A1A1"/>
          <path clip-path="url(#clip-2147469841)" d="M 43.4990,3.7020 L 43.4990,14.8082 L 44.4245,14.8082 L 44.4245,3.7020 L 43.4990,3.7020 Z" stroke-width="1px" stroke="#A2A2A2" fill="#A2A2A2"/>
          <path clip-path="url(#clip-2147469841)" d="M 44.4245,3.7020 L 44.4245,14.8082 L 45.3500,14.8082 L 45.3500,3.7020 L 44.4245,3.7020 Z" stroke-width="1px" stroke="#A4A4A4" fill="#A4A4A4"/>
          <path clip-path="url(#clip-2147469841)" d="M 45.3500,3.7020 L 45.3500,14.8082 L 46.2755,14.8082 L 46.2755,3.7020 L 45.3500,3.7020 Z" stroke-width="1px" stroke="#A6A6A6" fill="#A6A6A6"/>
          <path clip-path="url(#clip-2147469841)" d="M 46.2755,3.7020 L 46.2755,14.8082 L 47.2010,14.8082 L 47.2010,3.7020 L 46.2755,3.7020 Z" stroke-width="1px" stroke="#A8A8A8" fill="#A8A8A8"/>
          <path clip-path="url(#clip-2147469841)" d="M 47.2010,3.7020 L 47.2010,14.8082 L 48.1265,14.8082 L 48.1265,3.7020 L 47.2010,3.7020 Z" stroke-width="1px" stroke="#A9A9A9" fill="#A9A9A9"/>
          <path clip-path="url(#clip-2147469841)" d="M 48.1265,3.7020 L 48.1265,14.8082 L 49.0520,14.8082 L 49.0520,3.7020 L 48.1265,3.7020 Z" stroke-width="1px" stroke="#ABABAB" fill="#ABABAB"/>
          <path clip-path="url(#clip-2147469841)" d="M 49.0520,3.7020 L 49.0520,14.8082 L 49.9775,14.8082 L 49.9775,3.7020 L 49.0520,3.7020 Z" stroke-width="1px" stroke="#ADADAD" fill="#ADADAD"/>
          <path clip-path="url(#clip-2147469841)" d="M 49.9775,3.7020 L 49.9775,14.8082 L 50.9031,14.8082 L 50.9031,3.7020 L 49.9775,3.7020 Z" stroke-width="1px" stroke="#AEAEAE" fill="#AEAEAE"/>
          <path clip-path="url(#clip-2147469841)" d="M 50.9031,3.7020 L 50.9031,14.8082 L 51.8286,14.8082 L 51.8286,3.7020 L 50.9031,3.7020 Z" stroke-width="1px" stroke="#B0B0B0" fill="#B0B0B0"/>
        </g>
        <g transform="matrix(0.0625 0.0000 0.0000 0.0625 0.0000 0.0000)">
          <path d="M 835.7355,235.0795 L 84.2214,235.0795 L 84.2214,64.7857 L 835.7355,64.7857 L 835.7355,235.0795 " stroke="#1A1A1A" stroke-width="11.1061" stroke-linecap="round" stroke-linejoin="round" fill="none"/>
        </g>
        <g transform="matrix(1.0000 0.0000 0.0000 1.0000 0.0000 0.0000)">
</g>
        <g transform="matrix(0.0625 0.0000 0.0000 0.0625 0.0000 0.0000)">
          <path d="M 112.9122,92.5510 C 112.9122,92.5510 113.8377,92.5510 113.8377,92.5510 C 127.7204,92.5510 130.4969,105.5081 130.4969,115.6888 L 130.4969,219.3459 L 141.6030,219.3459 L 141.6030,80.5194 L 130.4969,80.5194 L 112.9122,80.5194 L 112.9122,92.5510 Z M 778.3539,92.5510 C 778.3539,92.5510 778.3539,92.5510 778.3539,92.5510 C 793.1621,92.5510 795.0131,105.5081 795.0131,115.6888 L 795.0131,219.3459 L 807.0447,219.3459 L 807.0447,80.5194 L 795.0131,80.5194 L 778.3539,80.5194 L 778.3539,92.5510 Z M 711.7172,92.5510 C 711.7172,92.5510 711.7172,92.5510 711.7172,92.5510 C 726.5254,92.5510 728.3764,105.5081 728.3764,115.6888 L 728.3764,219.3459 L 740.4080,219.3459 L 740.4080,80.5194 L 729.3019,80.5194 L 711.7172,80.5194 L 711.7172,92.5510 Z M 645.0805,92.5510 C 645.0805,92.5510 645.0805,92.5510 645.0805,92.5510 C 659.8886,92.5510 661.7396,105.5081 662.6652,115.6888 L 662.6652,219.3459 L 673.7713,219.3459 L 673.7713,80.5194 L 662.6652,80.5194 L 645.0805,80.5194 L 645.0805,92.5510 Z M 578.4438,92.5510 C 578.4438,92.5510 578.4438,92.5510 579.3693,92.5510 C 593.2519,92.5510 596.0284,105.5081 596.0284,115.6888 L 596.0284,219.3459 L 607.1346,219.3459 L 607.1346,80.5194 L 596.0284,80.5194 L 578.4438,80.5194 L 578.4438,92.5510 Z M 511.8070,92.5510 C 511.8070,92.5510 512.7325,92.5510 512.7325,92.5510 C 526.6152,92.5510 529.3917,105.5081 529.3917,115.6888 L 529.3917,219.3459 L 540.4978,219.3459 L 540.4978,80.5194 L 529.3917,80.5194 L 511.8070,80.5194 L 511.8070,92.5510 Z M 445.1703,92.5510 C 446.0958,92.5510 446.0958,92.5510 446.0958,92.5510 C 460.9040,92.5510 462.7550,105.5081 462.7550,115.6888 L 462.7550,219.3459 L 473.8611,219.3459 L 473.8611,80.5194 L 462.7550,80.5194 L 445.1703,80.5194 L 445.1703,92.5510 Z M 379.4591,92.5510 C 379.4591,92.5510 379.4591,92.5510 379.4591,92.5510 C 394.2673,92.5510 396.1183,105.5081 396.1183,115.6888 L 396.1183,219.3459 L 408.1499,219.3459 L 408.1499,80.5194 L 397.0438,80.5194 L 379.4591,80.5194 L 379.4591,92.5510 Z M 312.8224,92.5510 C 312.8224,92.5510 312.8224,92.5510 312.8224,92.5510 C 327.6305,92.5510 329.4816,105.5081 329.4816,115.6888 L 329.4816,219.3459 L 341.5132,219.3459 L 341.5132,80.5194 L 330.4071,80.5194 L 312.8224,80.5194 L 312.8224,92.5510 Z M 246.1857,92.5510 C 246.1857,92.5510 246.1857,92.5510 246.1857,92.5510 C 260.9938,92.5510 262.8448,105.5081 263.7704,115.6888 L 263.7704,219.3459 L 274.8765,219.3459 L 274.8765,80.5194 L 263.7704,80.5194 L 246.1857,80.5194 L 246.1857,92.5510 Z M 179.5489,92.5510 C 179.5489,92.5510 179.5489,92.5510 180.4745,92.5510 C 194.3571,92.5510 197.1336,105.5081 197.1336,115.6888 L 197.1336,219.3459 L 208.2398,219.3459 L 208.2398,80.5194 L 197.1336,80.5194 L 179.5489,80.5194 L 179.5489,92.5510 Z " fill="#0054A6" stroke="none"/>
        </g>
        <g transform="matrix(1.0000 0.0000 0.0000 1.0000 0.0000 0.0000)">
          <path d="M 1.8510,1.8510 L 1.8510,14.8082 L 4.6276,16.6592 L 4.6276,2.7765 L 1.8510,1.8510 " fill="none" stroke="none"/>
          <defs>
            <clipPath id="clip-438792350">
              <path d="M 1.8510,1.8510 L 1.8510,14.8082 L 4.6276,16.6592 L 4.6276,2.7765 L 1.8510,1.8510 Z"/>
            </clipPath>
          </defs>
          <path clip-path="url(#clip-438792350)" d="M 0.9255,0.9255 L 0.9255,1.8510 L 3.7020,1.8510 L 3.7020,0.9255 L 0.9255,0.9255 Z" stroke-width="1px" stroke="#55BBEB" fill="#55BBEB"/>
          <path clip-path="url(#clip-438792350)" d="M 0.9255,1.8510 L 0.9255,2.7765 L 3.7020,2.7765 L 3.7020,1.8510 L 0.9255,1.8510 Z" stroke-width="1px" stroke="#047AC3" fill="#047AC3"/>
          <path clip-path="url(#clip-438792350)" d="M 0.9255,2.7765 L 0.9255,3.7020 L 3.7020,3.7020 L 3.7020,2.7765 L 0.9255,2.7765 Z" stroke-width="1px" stroke="#0A7FC5" fill="#0A7FC5"/>
          <path clip-path="url(#clip-438792350)" d="M 0.9255,3.7020 L 0.9255,4.6276 L 3.7020,4.6276 L 3.7020,3.7020 L 0.9255,3.7020 Z" stroke-width="1px" stroke="#0F83C7" fill="#0F83C7"/>
          <path clip-path="url(#clip-438792350)" d="M 0.9255,4.6276 L 0.9255,5.5531 L 3.7020,5.5531 L 3.7020,4.6276 L 0.9255,4.6276 Z" stroke-width="1px" stroke="#1587CA" fill="#1587CA"/>
          <path clip-path="url(#clip-438792350)" d="M 0.9255,5.5531 L 0.9255,6.4786 L 3.7020,6.4786 L 3.7020,5.5531 L 0.9255,5.5531 Z" stroke-width="1px" stroke="#1A8CCD" fill="#1A8CCD"/>
          <path clip-path="url(#clip-438792350)" d="M 0.9255,6.4786 L 0.9255,7.4041 L 3.7020,7.4041 L 3.7020,6.4786 L 0.9255,6.4786 Z" stroke-width="1px" stroke="#1F90CF" fill="#1F90CF"/>
          <path clip-path="url(#clip-438792350)" d="M 0.9255,7.4041 L 0.9255,8.3296 L 3.7020,8.3296 L 3.7020,7.4041 L 0.9255,7.4041 Z" stroke-width="1px" stroke="#2594D2" fill="#2594D2"/>
          <path clip-path="url(#clip-438792350)" d="M 0.9255,8.3296 L 0.9255,9.2551 L 3.7020,9.2551 L 3.7020,8.3296 L 0.9255,8.3296 Z" stroke-width="1px" stroke="#2A99D5" fill="#2A99D5"/>
          <path clip-path="url(#clip-438792350)" d="M 0.9255,9.2551 L 0.9255,10.1806 L 3.7020,10.1806 L 3.7020,9.2551 L 0.9255,9.2551 Z" stroke-width="1px" stroke="#2F9DD7" fill="#2F9DD7"/>
          <path clip-path="url(#clip-438792350)" d="M 0.9255,10.1806 L 0.9255,11.1061 L 3.7020,11.1061 L 3.7020,10.1806 L 0.9255,10.1806 Z" stroke-width="1px" stroke="#34A1DA" fill="#34A1DA"/>
          <path clip-path="url(#clip-438792350)" d="M 0.9255,11.1061 L 0.9255,12.0316 L 3.7020,12.0316 L 3.7020,11.1061 L 0.9255,11.1061 Z" stroke-width="1px" stroke="#39A5DD" fill="#39A5DD"/>
          <path clip-path="url(#clip-438792350)" d="M 0.9255,12.0316 L 0.9255,12.9571 L 3.7020,12.9571 L 3.7020,12.0316 L 0.9255,12.0316 Z" stroke-width="1px" stroke="#3FA9DF" fill="#3FA9DF"/>
          <path clip-path="url(#clip-438792350)" d="M 0.9255,12.9571 L 0.9255,13.8827 L 3.7020,13.8827 L 3.7020,12.9571 L 0.9255,12.9571 Z" stroke-width="1px" stroke="#44AEE2" fill="#44AEE2"/>
          <path clip-path="url(#clip-438792350)" d="M 0.9255,13.8827 L 0.9255,14.8082 L 3.7020,14.8082 L 3.7020,13.8827 L 0.9255,13.8827 Z" stroke-width="1px" stroke="#49B2E5" fill="#49B2E5"/>
          <path clip-path="url(#clip-438792350)" d="M 0.9255,14.8082 L 0.9255,15.7337 L 3.7020,15.7337 L 3.7020,14.8082 L 0.9255,14.8082 Z" stroke-width="1px" stroke="#4FB6E7" fill="#4FB6E7"/>
          <path clip-path="url(#clip-438792350)" d="M 0.9255,15.7337 L 0.9255,16.6592 L 3.7020,16.6592 L 3.7020,15.7337 L 0.9255,15.7337 Z" stroke-width="1px" stroke="#54BBEA" fill="#54BBEA"/>
        </g>
        <g transform="matrix(0.0625 0.0000 0.0000 0.0625 0.0000 0.0000)">
          <path d="M 17.5847,17.5847 L 17.5847,232.3030 L 61.0837,257.2918 L 61.0837,42.5735 L 17.5847,17.5847 " stroke="#0054A6" stroke-width="9.2551" stroke-linecap="round" stroke-linejoin="round" fill="none"/>
        </g>
        <g transform="matrix(1.0000 0.0000 0.0000 1.0000 0.0000 0.0000)">
</g>
      </g>
      <!--emf-blob end-->
    </g>
  </g>
</svg>
