<svg xmlns="http://www.w3.org/2000/svg" xmlns:xlink="http://www.w3.org/1999/xlink" version="1.1" width="56.1882000000" height="32.4674000000">
  <title><![CDATA[Blade Server]]></title>
  <g transform=" scale(1.000000) ">
    <!--converted by libvisio2svg-->
    <g transform=" translate(-1.159400,-1.160400) ">
      <!--emf-blob start-->
      <g transform="translate(-0.0000, -0.0000)">
        <defs>
          <clipPath id="clip-1046741222">
            <path d="M 3.9647,1.9823 L 57.4875,1.9823 L 57.4875,33.6996 L 3.9647,33.6996 L 3.9647,1.9823 Z Z"/>
          </clipPath>
        </defs>
        <path clip-path="url(#clip-1046741222)" d="M 2.9735,0.9912 L 2.9735,33.6996 L 3.9647,33.6996 L 3.9647,0.9912 L 2.9735,0.9912 Z" stroke-width="1px" stroke="#B2B2B2" fill="#B2B2B2"/>
        <path clip-path="url(#clip-1046741222)" d="M 3.9647,0.9912 L 3.9647,33.6996 L 4.9558,33.6996 L 4.9558,0.9912 L 3.9647,0.9912 Z" stroke-width="1px" stroke="#787878" fill="#787878"/>
        <path clip-path="url(#clip-1046741222)" d="M 4.9558,0.9912 L 4.9558,33.6996 L 5.9470,33.6996 L 5.9470,0.9912 L 4.9558,0.9912 Z" stroke-width="1px" stroke="#797979" fill="#797979"/>
        <path clip-path="url(#clip-1046741222)" d="M 5.9470,0.9912 L 5.9470,33.6996 L 6.9382,33.6996 L 6.9382,0.9912 L 5.9470,0.9912 Z" stroke-width="1px" stroke="#7A7A7A" fill="#7A7A7A"/>
        <path clip-path="url(#clip-1046741222)" d="M 6.9382,0.9912 L 6.9382,33.6996 L 7.9293,33.6996 L 7.9293,0.9912 L 6.9382,0.9912 Z" stroke-width="1px" stroke="#7B7B7B" fill="#7B7B7B"/>
        <path clip-path="url(#clip-1046741222)" d="M 7.9293,0.9912 L 7.9293,33.6996 L 8.9205,33.6996 L 8.9205,0.9912 L 7.9293,0.9912 Z" stroke-width="1px" stroke="#7C7C7C" fill="#7C7C7C"/>
        <path clip-path="url(#clip-1046741222)" d="M 8.9205,0.9912 L 8.9205,33.6996 L 9.9116,33.6996 L 9.9116,0.9912 L 8.9205,0.9912 Z" stroke-width="1px" stroke="#7E7E7E" fill="#7E7E7E"/>
        <path clip-path="url(#clip-1046741222)" d="M 9.9116,0.9912 L 9.9116,33.6996 L 10.9028,33.6996 L 10.9028,0.9912 L 9.9116,0.9912 Z" stroke-width="1px" stroke="#7F7F7F" fill="#7F7F7F"/>
        <path clip-path="url(#clip-1046741222)" d="M 10.9028,0.9912 L 10.9028,33.6996 L 11.8940,33.6996 L 11.8940,0.9912 L 10.9028,0.9912 Z" stroke-width="1px" stroke="#808080" fill="#808080"/>
        <path clip-path="url(#clip-1046741222)" d="M 11.8940,0.9912 L 11.8940,33.6996 L 13.8763,33.6996 L 13.8763,0.9912 L 11.8940,0.9912 Z" stroke-width="1px" stroke="#818181" fill="#818181"/>
        <path clip-path="url(#clip-1046741222)" d="M 13.8763,0.9912 L 13.8763,33.6996 L 14.8675,33.6996 L 14.8675,0.9912 L 13.8763,0.9912 Z" stroke-width="1px" stroke="#828282" fill="#828282"/>
        <path clip-path="url(#clip-1046741222)" d="M 14.8675,0.9912 L 14.8675,33.6996 L 15.8586,33.6996 L 15.8586,0.9912 L 14.8675,0.9912 Z" stroke-width="1px" stroke="#848484" fill="#848484"/>
        <path clip-path="url(#clip-1046741222)" d="M 15.8586,0.9912 L 15.8586,33.6996 L 16.8498,33.6996 L 16.8498,0.9912 L 15.8586,0.9912 Z" stroke-width="1px" stroke="#858585" fill="#858585"/>
        <path clip-path="url(#clip-1046741222)" d="M 16.8498,0.9912 L 16.8498,33.6996 L 17.8410,33.6996 L 17.8410,0.9912 L 16.8498,0.9912 Z" stroke-width="1px" stroke="#868686" fill="#868686"/>
        <path clip-path="url(#clip-1046741222)" d="M 17.8410,0.9912 L 17.8410,33.6996 L 18.8321,33.6996 L 18.8321,0.9912 L 17.8410,0.9912 Z" stroke-width="1px" stroke="#878787" fill="#878787"/>
        <path clip-path="url(#clip-1046741222)" d="M 18.8321,0.9912 L 18.8321,33.6996 L 19.8233,33.6996 L 19.8233,0.9912 L 18.8321,0.9912 Z" stroke-width="1px" stroke="#888888" fill="#888888"/>
        <path clip-path="url(#clip-1046741222)" d="M 19.8233,0.9912 L 19.8233,33.6996 L 20.8145,33.6996 L 20.8145,0.9912 L 19.8233,0.9912 Z" stroke-width="1px" stroke="#8A8A8A" fill="#8A8A8A"/>
        <path clip-path="url(#clip-1046741222)" d="M 20.8145,0.9912 L 20.8145,33.6996 L 21.8056,33.6996 L 21.8056,0.9912 L 20.8145,0.9912 Z" stroke-width="1px" stroke="#8B8B8B" fill="#8B8B8B"/>
        <path clip-path="url(#clip-1046741222)" d="M 21.8056,0.9912 L 21.8056,33.6996 L 22.7968,33.6996 L 22.7968,0.9912 L 21.8056,0.9912 Z" stroke-width="1px" stroke="#8C8C8C" fill="#8C8C8C"/>
        <path clip-path="url(#clip-1046741222)" d="M 22.7968,0.9912 L 22.7968,33.6996 L 23.7879,33.6996 L 23.7879,0.9912 L 22.7968,0.9912 Z" stroke-width="1px" stroke="#8D8D8D" fill="#8D8D8D"/>
        <path clip-path="url(#clip-1046741222)" d="M 23.7879,0.9912 L 23.7879,33.6996 L 24.7791,33.6996 L 24.7791,0.9912 L 23.7879,0.9912 Z" stroke-width="1px" stroke="#8E8E8E" fill="#8E8E8E"/>
        <path clip-path="url(#clip-1046741222)" d="M 24.7791,0.9912 L 24.7791,33.6996 L 25.7703,33.6996 L 25.7703,0.9912 L 24.7791,0.9912 Z" stroke-width="1px" stroke="#8F8F8F" fill="#8F8F8F"/>
        <path clip-path="url(#clip-1046741222)" d="M 25.7703,0.9912 L 25.7703,33.6996 L 26.7614,33.6996 L 26.7614,0.9912 L 25.7703,0.9912 Z" stroke-width="1px" stroke="#909090" fill="#909090"/>
        <path clip-path="url(#clip-1046741222)" d="M 26.7614,0.9912 L 26.7614,33.6996 L 27.7526,33.6996 L 27.7526,0.9912 L 26.7614,0.9912 Z" stroke-width="1px" stroke="#919191" fill="#919191"/>
        <path clip-path="url(#clip-1046741222)" d="M 27.7526,0.9912 L 27.7526,33.6996 L 28.7438,33.6996 L 28.7438,0.9912 L 27.7526,0.9912 Z" stroke-width="1px" stroke="#929292" fill="#929292"/>
        <path clip-path="url(#clip-1046741222)" d="M 28.7438,0.9912 L 28.7438,33.6996 L 29.7349,33.6996 L 29.7349,0.9912 L 28.7438,0.9912 Z" stroke-width="1px" stroke="#939393" fill="#939393"/>
        <path clip-path="url(#clip-1046741222)" d="M 29.7349,0.9912 L 29.7349,33.6996 L 30.7261,33.6996 L 30.7261,0.9912 L 29.7349,0.9912 Z" stroke-width="1px" stroke="#959595" fill="#959595"/>
        <path clip-path="url(#clip-1046741222)" d="M 30.7261,0.9912 L 30.7261,33.6996 L 31.7173,33.6996 L 31.7173,0.9912 L 30.7261,0.9912 Z" stroke-width="1px" stroke="#969696" fill="#969696"/>
        <path clip-path="url(#clip-1046741222)" d="M 31.7173,0.9912 L 31.7173,33.6996 L 32.7084,33.6996 L 32.7084,0.9912 L 31.7173,0.9912 Z" stroke-width="1px" stroke="#979797" fill="#979797"/>
        <path clip-path="url(#clip-1046741222)" d="M 32.7084,0.9912 L 32.7084,33.6996 L 33.6996,33.6996 L 33.6996,0.9912 L 32.7084,0.9912 Z" stroke-width="1px" stroke="#989898" fill="#989898"/>
        <path clip-path="url(#clip-1046741222)" d="M 33.6996,0.9912 L 33.6996,33.6996 L 34.6908,33.6996 L 34.6908,0.9912 L 33.6996,0.9912 Z" stroke-width="1px" stroke="#999999" fill="#999999"/>
        <path clip-path="url(#clip-1046741222)" d="M 34.6908,0.9912 L 34.6908,33.6996 L 35.6819,33.6996 L 35.6819,0.9912 L 34.6908,0.9912 Z" stroke-width="1px" stroke="#9A9A9A" fill="#9A9A9A"/>
        <path clip-path="url(#clip-1046741222)" d="M 35.6819,0.9912 L 35.6819,33.6996 L 36.6731,33.6996 L 36.6731,0.9912 L 35.6819,0.9912 Z" stroke-width="1px" stroke="#9C9C9C" fill="#9C9C9C"/>
        <path clip-path="url(#clip-1046741222)" d="M 36.6731,0.9912 L 36.6731,33.6996 L 37.6642,33.6996 L 37.6642,0.9912 L 36.6731,0.9912 Z" stroke-width="1px" stroke="#9D9D9D" fill="#9D9D9D"/>
        <path clip-path="url(#clip-1046741222)" d="M 37.6642,0.9912 L 37.6642,33.6996 L 38.6554,33.6996 L 38.6554,0.9912 L 37.6642,0.9912 Z" stroke-width="1px" stroke="#9E9E9E" fill="#9E9E9E"/>
        <path clip-path="url(#clip-1046741222)" d="M 38.6554,0.9912 L 38.6554,33.6996 L 39.6466,33.6996 L 39.6466,0.9912 L 38.6554,0.9912 Z" stroke-width="1px" stroke="#9F9F9F" fill="#9F9F9F"/>
        <path clip-path="url(#clip-1046741222)" d="M 39.6466,0.9912 L 39.6466,33.6996 L 40.6377,33.6996 L 40.6377,0.9912 L 39.6466,0.9912 Z" stroke-width="1px" stroke="#A0A0A0" fill="#A0A0A0"/>
        <path clip-path="url(#clip-1046741222)" d="M 40.6377,0.9912 L 40.6377,33.6996 L 41.6289,33.6996 L 41.6289,0.9912 L 40.6377,0.9912 Z" stroke-width="1px" stroke="#A1A1A1" fill="#A1A1A1"/>
        <path clip-path="url(#clip-1046741222)" d="M 41.6289,0.9912 L 41.6289,33.6996 L 42.6201,33.6996 L 42.6201,0.9912 L 41.6289,0.9912 Z" stroke-width="1px" stroke="#A2A2A2" fill="#A2A2A2"/>
        <path clip-path="url(#clip-1046741222)" d="M 42.6201,0.9912 L 42.6201,33.6996 L 43.6112,33.6996 L 43.6112,0.9912 L 42.6201,0.9912 Z" stroke-width="1px" stroke="#A3A3A3" fill="#A3A3A3"/>
        <path clip-path="url(#clip-1046741222)" d="M 43.6112,0.9912 L 43.6112,33.6996 L 44.6024,33.6996 L 44.6024,0.9912 L 43.6112,0.9912 Z" stroke-width="1px" stroke="#A4A4A4" fill="#A4A4A4"/>
        <path clip-path="url(#clip-1046741222)" d="M 44.6024,0.9912 L 44.6024,33.6996 L 45.5936,33.6996 L 45.5936,0.9912 L 44.6024,0.9912 Z" stroke-width="1px" stroke="#A5A5A5" fill="#A5A5A5"/>
        <path clip-path="url(#clip-1046741222)" d="M 45.5936,0.9912 L 45.5936,33.6996 L 46.5847,33.6996 L 46.5847,0.9912 L 45.5936,0.9912 Z" stroke-width="1px" stroke="#A7A7A7" fill="#A7A7A7"/>
        <path clip-path="url(#clip-1046741222)" d="M 46.5847,0.9912 L 46.5847,33.6996 L 47.5759,33.6996 L 47.5759,0.9912 L 46.5847,0.9912 Z" stroke-width="1px" stroke="#A8A8A8" fill="#A8A8A8"/>
        <path clip-path="url(#clip-1046741222)" d="M 47.5759,0.9912 L 47.5759,33.6996 L 48.5671,33.6996 L 48.5671,0.9912 L 47.5759,0.9912 Z" stroke-width="1px" stroke="#A9A9A9" fill="#A9A9A9"/>
        <path clip-path="url(#clip-1046741222)" d="M 48.5671,0.9912 L 48.5671,33.6996 L 49.5582,33.6996 L 49.5582,0.9912 L 48.5671,0.9912 Z" stroke-width="1px" stroke="#AAAAAA" fill="#AAAAAA"/>
        <path clip-path="url(#clip-1046741222)" d="M 49.5582,0.9912 L 49.5582,33.6996 L 50.5494,33.6996 L 50.5494,0.9912 L 49.5582,0.9912 Z" stroke-width="1px" stroke="#ABABAB" fill="#ABABAB"/>
        <path clip-path="url(#clip-1046741222)" d="M 50.5494,0.9912 L 50.5494,33.6996 L 51.5405,33.6996 L 51.5405,0.9912 L 50.5494,0.9912 Z" stroke-width="1px" stroke="#ACACAC" fill="#ACACAC"/>
        <path clip-path="url(#clip-1046741222)" d="M 51.5405,0.9912 L 51.5405,33.6996 L 52.5317,33.6996 L 52.5317,0.9912 L 51.5405,0.9912 Z" stroke-width="1px" stroke="#ADADAD" fill="#ADADAD"/>
        <path clip-path="url(#clip-1046741222)" d="M 52.5317,0.9912 L 52.5317,33.6996 L 53.5229,33.6996 L 53.5229,0.9912 L 52.5317,0.9912 Z" stroke-width="1px" stroke="#AEAEAE" fill="#AEAEAE"/>
        <path clip-path="url(#clip-1046741222)" d="M 53.5229,0.9912 L 53.5229,33.6996 L 54.5140,33.6996 L 54.5140,0.9912 L 53.5229,0.9912 Z" stroke-width="1px" stroke="#AFAFAF" fill="#AFAFAF"/>
        <path clip-path="url(#clip-1046741222)" d="M 54.5140,0.9912 L 54.5140,33.6996 L 55.5052,33.6996 L 55.5052,0.9912 L 54.5140,0.9912 Z" stroke-width="1px" stroke="#B0B0B0" fill="#B0B0B0"/>
        <path clip-path="url(#clip-1046741222)" d="M 55.5052,0.9912 L 55.5052,33.6996 L 56.4964,33.6996 L 56.4964,0.9912 L 55.5052,0.9912 Z" stroke-width="1px" stroke="#B1B1B1" fill="#B1B1B1"/>
        <g transform="matrix(0.0625 0.0000 0.0000 0.0625 0.0000 0.0000)">
          <path d="M 55.5052,534.2376 L 909.8889,534.2376 L 909.8889,18.8321 L 55.5052,18.8321 L 55.5052,534.2376 " stroke="#0054A6" stroke-width="6.9382" stroke-linecap="round" stroke-linejoin="round" fill="none"/>
        </g>
        <g transform="matrix(1.0000 0.0000 0.0000 1.0000 0.0000 0.0000)">
          <path d="M 3.9647,1.9823 L 3.9647,33.6996 L 1.9823,29.7349 L 1.9823,3.9647 L 3.9647,1.9823 " fill="none" stroke="none"/>
          <defs>
            <clipPath id="clip-337739299">
              <path d="M 3.9647,1.9823 L 3.9647,33.6996 L 1.9823,29.7349 L 1.9823,3.9647 L 3.9647,1.9823 Z"/>
            </clipPath>
          </defs>
          <path clip-path="url(#clip-337739299)" d="M 0.9912,0.9912 L 0.9912,1.9823 L 3.9647,1.9823 L 3.9647,0.9912 L 0.9912,0.9912 Z" stroke-width="1px" stroke="#CDCDCD" fill="#CDCDCD"/>
          <path clip-path="url(#clip-337739299)" d="M 0.9912,1.9823 L 0.9912,2.9735 L 3.9647,2.9735 L 3.9647,1.9823 L 0.9912,1.9823 Z" stroke-width="1px" stroke="#5C5C5C" fill="#5C5C5C"/>
          <path clip-path="url(#clip-337739299)" d="M 0.9912,2.9735 L 0.9912,3.9647 L 3.9647,3.9647 L 3.9647,2.9735 L 0.9912,2.9735 Z" stroke-width="1px" stroke="#5F5F5F" fill="#5F5F5F"/>
          <path clip-path="url(#clip-337739299)" d="M 0.9912,3.9647 L 0.9912,4.9558 L 3.9647,4.9558 L 3.9647,3.9647 L 0.9912,3.9647 Z" stroke-width="1px" stroke="#636363" fill="#636363"/>
          <path clip-path="url(#clip-337739299)" d="M 0.9912,4.9558 L 0.9912,5.9470 L 3.9647,5.9470 L 3.9647,4.9558 L 0.9912,4.9558 Z" stroke-width="1px" stroke="#676767" fill="#676767"/>
          <path clip-path="url(#clip-337739299)" d="M 0.9912,5.9470 L 0.9912,6.9382 L 3.9647,6.9382 L 3.9647,5.9470 L 0.9912,5.9470 Z" stroke-width="1px" stroke="#6B6B6B" fill="#6B6B6B"/>
          <path clip-path="url(#clip-337739299)" d="M 0.9912,6.9382 L 0.9912,7.9293 L 3.9647,7.9293 L 3.9647,6.9382 L 0.9912,6.9382 Z" stroke-width="1px" stroke="#6E6E6E" fill="#6E6E6E"/>
          <path clip-path="url(#clip-337739299)" d="M 0.9912,7.9293 L 0.9912,8.9205 L 3.9647,8.9205 L 3.9647,7.9293 L 0.9912,7.9293 Z" stroke-width="1px" stroke="#727272" fill="#727272"/>
          <path clip-path="url(#clip-337739299)" d="M 0.9912,8.9205 L 0.9912,9.9116 L 3.9647,9.9116 L 3.9647,8.9205 L 0.9912,8.9205 Z" stroke-width="1px" stroke="#757575" fill="#757575"/>
          <path clip-path="url(#clip-337739299)" d="M 0.9912,9.9116 L 0.9912,10.9028 L 3.9647,10.9028 L 3.9647,9.9116 L 0.9912,9.9116 Z" stroke-width="1px" stroke="#797979" fill="#797979"/>
          <path clip-path="url(#clip-337739299)" d="M 0.9912,10.9028 L 0.9912,11.8940 L 3.9647,11.8940 L 3.9647,10.9028 L 0.9912,10.9028 Z" stroke-width="1px" stroke="#7C7C7C" fill="#7C7C7C"/>
          <path clip-path="url(#clip-337739299)" d="M 0.9912,11.8940 L 0.9912,12.8851 L 3.9647,12.8851 L 3.9647,11.8940 L 0.9912,11.8940 Z" stroke-width="1px" stroke="#808080" fill="#808080"/>
          <path clip-path="url(#clip-337739299)" d="M 0.9912,12.8851 L 0.9912,13.8763 L 3.9647,13.8763 L 3.9647,12.8851 L 0.9912,12.8851 Z" stroke-width="1px" stroke="#848484" fill="#848484"/>
          <path clip-path="url(#clip-337739299)" d="M 0.9912,13.8763 L 0.9912,14.8675 L 3.9647,14.8675 L 3.9647,13.8763 L 0.9912,13.8763 Z" stroke-width="1px" stroke="#878787" fill="#878787"/>
          <path clip-path="url(#clip-337739299)" d="M 0.9912,14.8675 L 0.9912,15.8586 L 3.9647,15.8586 L 3.9647,14.8675 L 0.9912,14.8675 Z" stroke-width="1px" stroke="#8B8B8B" fill="#8B8B8B"/>
          <path clip-path="url(#clip-337739299)" d="M 0.9912,15.8586 L 0.9912,16.8498 L 3.9647,16.8498 L 3.9647,15.8586 L 0.9912,15.8586 Z" stroke-width="1px" stroke="#8E8E8E" fill="#8E8E8E"/>
          <path clip-path="url(#clip-337739299)" d="M 0.9912,16.8498 L 0.9912,17.8410 L 3.9647,17.8410 L 3.9647,16.8498 L 0.9912,16.8498 Z" stroke-width="1px" stroke="#929292" fill="#929292"/>
          <path clip-path="url(#clip-337739299)" d="M 0.9912,17.8410 L 0.9912,18.8321 L 3.9647,18.8321 L 3.9647,17.8410 L 0.9912,17.8410 Z" stroke-width="1px" stroke="#959595" fill="#959595"/>
          <path clip-path="url(#clip-337739299)" d="M 0.9912,18.8321 L 0.9912,19.8233 L 3.9647,19.8233 L 3.9647,18.8321 L 0.9912,18.8321 Z" stroke-width="1px" stroke="#999999" fill="#999999"/>
          <path clip-path="url(#clip-337739299)" d="M 0.9912,19.8233 L 0.9912,20.8145 L 3.9647,20.8145 L 3.9647,19.8233 L 0.9912,19.8233 Z" stroke-width="1px" stroke="#9C9C9C" fill="#9C9C9C"/>
          <path clip-path="url(#clip-337739299)" d="M 0.9912,20.8145 L 0.9912,21.8056 L 3.9647,21.8056 L 3.9647,20.8145 L 0.9912,20.8145 Z" stroke-width="1px" stroke="#A0A0A0" fill="#A0A0A0"/>
          <path clip-path="url(#clip-337739299)" d="M 0.9912,21.8056 L 0.9912,22.7968 L 3.9647,22.7968 L 3.9647,21.8056 L 0.9912,21.8056 Z" stroke-width="1px" stroke="#A4A4A4" fill="#A4A4A4"/>
          <path clip-path="url(#clip-337739299)" d="M 0.9912,22.7968 L 0.9912,23.7879 L 3.9647,23.7879 L 3.9647,22.7968 L 0.9912,22.7968 Z" stroke-width="1px" stroke="#A7A7A7" fill="#A7A7A7"/>
          <path clip-path="url(#clip-337739299)" d="M 0.9912,23.7879 L 0.9912,24.7791 L 3.9647,24.7791 L 3.9647,23.7879 L 0.9912,23.7879 Z" stroke-width="1px" stroke="#ABABAB" fill="#ABABAB"/>
          <path clip-path="url(#clip-337739299)" d="M 0.9912,24.7791 L 0.9912,25.7703 L 3.9647,25.7703 L 3.9647,24.7791 L 0.9912,24.7791 Z" stroke-width="1px" stroke="#AEAEAE" fill="#AEAEAE"/>
          <path clip-path="url(#clip-337739299)" d="M 0.9912,25.7703 L 0.9912,26.7614 L 3.9647,26.7614 L 3.9647,25.7703 L 0.9912,25.7703 Z" stroke-width="1px" stroke="#B2B2B2" fill="#B2B2B2"/>
          <path clip-path="url(#clip-337739299)" d="M 0.9912,26.7614 L 0.9912,27.7526 L 3.9647,27.7526 L 3.9647,26.7614 L 0.9912,26.7614 Z" stroke-width="1px" stroke="#B5B5B5" fill="#B5B5B5"/>
          <path clip-path="url(#clip-337739299)" d="M 0.9912,27.7526 L 0.9912,28.7438 L 3.9647,28.7438 L 3.9647,27.7526 L 0.9912,27.7526 Z" stroke-width="1px" stroke="#B9B9B9" fill="#B9B9B9"/>
          <path clip-path="url(#clip-337739299)" d="M 0.9912,28.7438 L 0.9912,29.7349 L 3.9647,29.7349 L 3.9647,28.7438 L 0.9912,28.7438 Z" stroke-width="1px" stroke="#BDBDBD" fill="#BDBDBD"/>
          <path clip-path="url(#clip-337739299)" d="M 0.9912,29.7349 L 0.9912,30.7261 L 3.9647,30.7261 L 3.9647,29.7349 L 0.9912,29.7349 Z" stroke-width="1px" stroke="#C0C0C0" fill="#C0C0C0"/>
          <path clip-path="url(#clip-337739299)" d="M 0.9912,30.7261 L 0.9912,31.7173 L 3.9647,31.7173 L 3.9647,30.7261 L 0.9912,30.7261 Z" stroke-width="1px" stroke="#C4C4C4" fill="#C4C4C4"/>
          <path clip-path="url(#clip-337739299)" d="M 0.9912,31.7173 L 0.9912,32.7084 L 3.9647,32.7084 L 3.9647,31.7173 L 0.9912,31.7173 Z" stroke-width="1px" stroke="#C7C7C7" fill="#C7C7C7"/>
          <path clip-path="url(#clip-337739299)" d="M 0.9912,32.7084 L 0.9912,33.6996 L 3.9647,33.6996 L 3.9647,32.7084 L 0.9912,32.7084 Z" stroke-width="1px" stroke="#CBCBCB" fill="#CBCBCB"/>
        </g>
        <g transform="matrix(0.0625 0.0000 0.0000 0.0625 0.0000 0.0000)">
          <path d="M 55.5052,18.8321 L 55.5052,534.2376 L 18.8321,467.8296 L 18.8321,62.4434 L 55.5052,18.8321 " stroke="#0054A6" stroke-width="6.9382" stroke-linecap="round" stroke-linejoin="round" fill="none"/>
        </g>
        <g transform="matrix(1.0000 0.0000 0.0000 1.0000 0.0000 0.0000)">
</g>
        <g transform="matrix(0.0625 0.0000 0.0000 0.0625 0.0000 0.0000)">
          <path d="M 825.6400,64.4257 L 825.6400,487.6529 L 878.1717,487.6529 L 878.1717,64.4257 L 825.6400,64.4257 Z" stroke-width="1px" stroke="#333333" fill="#333333"/>
        </g>
        <g transform="matrix(1.0000 0.0000 0.0000 1.0000 0.0000 0.0000)">
</g>
        <g transform="matrix(0.0625 0.0000 0.0000 0.0625 0.0000 0.0000)">
          <path d="M 825.6400,77.3108 L 825.6400,475.7589 L 878.1717,475.7589 L 878.1717,77.3108 L 825.6400,77.3108 Z" stroke-width="1px" stroke="#404040" fill="#404040"/>
        </g>
        <g transform="matrix(1.0000 0.0000 0.0000 1.0000 0.0000 0.0000)">
</g>
        <g transform="matrix(0.0625 0.0000 0.0000 0.0625 0.0000 0.0000)">
          <path d="M 856.3660,313.2080 L 861.3219,313.2080 C 865.2865,313.2080 868.2600,310.2345 868.2600,306.2698 C 868.2600,306.2698 868.2600,306.2698 868.2600,306.2698 L 868.2600,306.2698 L 868.2600,245.8088 C 868.2600,241.8441 865.2865,238.8706 861.3219,238.8706 C 861.3219,238.8706 861.3219,238.8706 861.3219,238.8706 L 861.3219,238.8706 L 856.3660,238.8706 C 853.3926,238.8706 850.4191,241.8441 850.4191,245.8088 L 850.4191,245.8088 L 850.4191,306.2698 C 850.4191,310.2345 853.3926,313.2080 856.3660,313.2080 Z " fill="#333333" stroke="none"/>
        </g>
        <g transform="matrix(1.0000 0.0000 0.0000 1.0000 0.0000 0.0000)">
</g>
        <g transform="matrix(0.0625 0.0000 0.0000 0.0625 0.0000 0.0000)">
          <path d="M 825.6400,55.5052 L 815.7283,55.5052 L 815.7283,496.5734 L 878.1717,496.5734 L 878.1717,487.6529 L 825.6400,487.6529 L 825.6400,380.6071 L 833.5693,380.6071 C 838.5251,380.6071 842.4897,376.6425 842.4897,371.6867 C 842.4897,371.6867 842.4897,371.6867 842.4897,371.6867 L 842.4897,371.6867 L 842.4897,181.3831 C 842.4897,176.4273 838.5251,172.4626 833.5693,172.4626 L 825.6400,172.4626 L 825.6400,64.4257 L 878.1717,64.4257 L 878.1717,55.5052 L 825.6400,55.5052 Z " fill="#C0C0C0" stroke="none"/>
        </g>
        <g transform="matrix(1.0000 0.0000 0.0000 1.0000 0.0000 0.0000)">
</g>
        <g transform="matrix(0.0625 0.0000 0.0000 0.0625 0.0000 0.0000)">
          <path d="M 98.1253,64.4257 L 98.1253,487.6529 L 150.6570,487.6529 L 150.6570,64.4257 L 98.1253,64.4257 Z" stroke-width="1px" stroke="#333333" fill="#333333"/>
        </g>
        <g transform="matrix(1.0000 0.0000 0.0000 1.0000 0.0000 0.0000)">
</g>
        <g transform="matrix(0.0625 0.0000 0.0000 0.0625 0.0000 0.0000)">
          <path d="M 98.1253,77.3108 L 98.1253,475.7589 L 150.6570,475.7589 L 150.6570,77.3108 L 98.1253,77.3108 Z" stroke-width="1px" stroke="#404040" fill="#404040"/>
        </g>
        <g transform="matrix(1.0000 0.0000 0.0000 1.0000 0.0000 0.0000)">
</g>
        <g transform="matrix(0.0625 0.0000 0.0000 0.0625 0.0000 0.0000)">
          <path d="M 128.8514,313.2080 L 132.8160,313.2080 C 136.7807,313.2080 139.7542,310.2345 139.7542,306.2698 C 139.7542,306.2698 139.7542,306.2698 139.7542,306.2698 L 139.7542,306.2698 L 139.7542,245.8088 C 139.7542,241.8441 136.7807,238.8706 132.8160,238.8706 C 132.8160,238.8706 132.8160,238.8706 132.8160,238.8706 L 132.8160,238.8706 L 128.8514,238.8706 C 124.8867,238.8706 121.9132,241.8441 121.9132,245.8088 L 121.9132,245.8088 L 121.9132,306.2698 C 121.9132,310.2345 124.8867,313.2080 128.8514,313.2080 Z " fill="#333333" stroke="none"/>
        </g>
        <g transform="matrix(1.0000 0.0000 0.0000 1.0000 0.0000 0.0000)">
</g>
        <g transform="matrix(0.0625 0.0000 0.0000 0.0625 0.0000 0.0000)">
          <path d="M 98.1253,55.5052 L 87.2225,55.5052 L 87.2225,496.5734 L 150.6570,496.5734 L 150.6570,487.6529 L 98.1253,487.6529 L 98.1253,380.6071 L 105.0634,380.6071 C 110.0192,380.6071 113.9839,376.6425 113.9839,371.6867 C 113.9839,371.6867 113.9839,371.6867 113.9839,371.6867 L 113.9839,371.6867 L 113.9839,181.3831 C 113.9839,176.4273 110.0192,172.4626 105.0634,172.4626 L 98.1253,172.4626 L 98.1253,64.4257 L 150.6570,64.4257 L 150.6570,55.5052 L 98.1253,55.5052 Z " fill="#C0C0C0" stroke="none"/>
        </g>
        <g transform="matrix(1.0000 0.0000 0.0000 1.0000 0.0000 0.0000)">
</g>
        <g transform="matrix(0.0625 0.0000 0.0000 0.0625 0.0000 0.0000)">
          <path d="M 188.3212,64.4257 L 188.3212,487.6529 L 241.8441,487.6529 L 241.8441,64.4257 L 188.3212,64.4257 Z" stroke-width="1px" stroke="#333333" fill="#333333"/>
        </g>
        <g transform="matrix(1.0000 0.0000 0.0000 1.0000 0.0000 0.0000)">
</g>
        <g transform="matrix(0.0625 0.0000 0.0000 0.0625 0.0000 0.0000)">
          <path d="M 188.3212,77.3108 L 188.3212,475.7589 L 241.8441,475.7589 L 241.8441,77.3108 L 188.3212,77.3108 Z" stroke-width="1px" stroke="#404040" fill="#404040"/>
        </g>
        <g transform="matrix(1.0000 0.0000 0.0000 1.0000 0.0000 0.0000)">
</g>
        <g transform="matrix(0.0625 0.0000 0.0000 0.0625 0.0000 0.0000)">
          <path d="M 220.0385,313.2080 L 224.0032,313.2080 C 227.9678,313.2080 230.9413,310.2345 230.9413,306.2698 C 230.9413,306.2698 230.9413,306.2698 230.9413,306.2698 L 230.9413,306.2698 L 230.9413,245.8088 C 230.9413,241.8441 227.9678,238.8706 224.0032,238.8706 C 224.0032,238.8706 224.0032,238.8706 224.0032,238.8706 L 224.0032,238.8706 L 220.0385,238.8706 C 216.0738,238.8706 213.1003,241.8441 213.1003,245.8088 L 213.1003,245.8088 L 213.1003,306.2698 C 213.1003,310.2345 216.0738,313.2080 220.0385,313.2080 Z " fill="#333333" stroke="none"/>
        </g>
        <g transform="matrix(1.0000 0.0000 0.0000 1.0000 0.0000 0.0000)">
</g>
        <g transform="matrix(0.0625 0.0000 0.0000 0.0625 0.0000 0.0000)">
          <path d="M 188.3212,55.5052 L 178.4096,55.5052 L 178.4096,496.5734 L 241.8441,496.5734 L 241.8441,487.6529 L 188.3212,487.6529 L 188.3212,380.6071 L 196.2506,380.6071 C 201.2064,380.6071 205.1710,376.6425 205.1710,371.6867 C 205.1710,371.6867 205.1710,371.6867 205.1710,371.6867 L 205.1710,371.6867 L 205.1710,181.3831 C 205.1710,176.4273 201.2064,172.4626 196.2506,172.4626 L 188.3212,172.4626 L 188.3212,64.4257 L 241.8441,64.4257 L 241.8441,55.5052 L 188.3212,55.5052 Z " fill="#C0C0C0" stroke="none"/>
        </g>
        <g transform="matrix(1.0000 0.0000 0.0000 1.0000 0.0000 0.0000)">
</g>
        <g transform="matrix(0.0625 0.0000 0.0000 0.0625 0.0000 0.0000)">
          <path d="M 279.5084,64.4257 L 279.5084,487.6529 L 332.0401,487.6529 L 332.0401,64.4257 L 279.5084,64.4257 Z" stroke-width="1px" stroke="#333333" fill="#333333"/>
        </g>
        <g transform="matrix(1.0000 0.0000 0.0000 1.0000 0.0000 0.0000)">
</g>
        <g transform="matrix(0.0625 0.0000 0.0000 0.0625 0.0000 0.0000)">
          <path d="M 279.5084,77.3108 L 279.5084,475.7589 L 332.0401,475.7589 L 332.0401,77.3108 L 279.5084,77.3108 Z" stroke-width="1px" stroke="#404040" fill="#404040"/>
        </g>
        <g transform="matrix(1.0000 0.0000 0.0000 1.0000 0.0000 0.0000)">
</g>
        <g transform="matrix(0.0625 0.0000 0.0000 0.0625 0.0000 0.0000)">
          <path d="M 311.2256,313.2080 L 315.1903,313.2080 C 319.1549,313.2080 322.1284,310.2345 322.1284,306.2698 C 322.1284,306.2698 322.1284,306.2698 322.1284,306.2698 L 322.1284,306.2698 L 322.1284,245.8088 C 322.1284,241.8441 319.1549,238.8706 315.1903,238.8706 C 315.1903,238.8706 315.1903,238.8706 315.1903,238.8706 L 315.1903,238.8706 L 311.2256,238.8706 C 307.2610,238.8706 304.2875,241.8441 304.2875,245.8088 L 304.2875,245.8088 L 304.2875,306.2698 C 304.2875,310.2345 307.2610,313.2080 311.2256,313.2080 Z " fill="#333333" stroke="none"/>
        </g>
        <g transform="matrix(1.0000 0.0000 0.0000 1.0000 0.0000 0.0000)">
</g>
        <g transform="matrix(0.0625 0.0000 0.0000 0.0625 0.0000 0.0000)">
          <path d="M 279.5084,55.5052 L 269.5967,55.5052 L 269.5967,496.5734 L 332.0401,496.5734 L 332.0401,487.6529 L 279.5084,487.6529 L 279.5084,380.6071 L 287.4377,380.6071 C 292.3935,380.6071 296.3582,376.6425 296.3582,371.6867 C 296.3582,371.6867 296.3582,371.6867 296.3582,371.6867 L 296.3582,371.6867 L 296.3582,181.3831 C 296.3582,176.4273 292.3935,172.4626 287.4377,172.4626 L 279.5084,172.4626 L 279.5084,64.4257 L 332.0401,64.4257 L 332.0401,55.5052 L 279.5084,55.5052 Z " fill="#C0C0C0" stroke="none"/>
        </g>
        <g transform="matrix(1.0000 0.0000 0.0000 1.0000 0.0000 0.0000)">
</g>
        <g transform="matrix(0.0625 0.0000 0.0000 0.0625 0.0000 0.0000)">
          <path d="M 370.6955,64.4257 L 370.6955,487.6529 L 423.2272,487.6529 L 423.2272,64.4257 L 370.6955,64.4257 Z" stroke-width="1px" stroke="#333333" fill="#333333"/>
        </g>
        <g transform="matrix(1.0000 0.0000 0.0000 1.0000 0.0000 0.0000)">
</g>
        <g transform="matrix(0.0625 0.0000 0.0000 0.0625 0.0000 0.0000)">
          <path d="M 370.6955,77.3108 L 370.6955,475.7589 L 423.2272,475.7589 L 423.2272,77.3108 L 370.6955,77.3108 Z" stroke-width="1px" stroke="#404040" fill="#404040"/>
        </g>
        <g transform="matrix(1.0000 0.0000 0.0000 1.0000 0.0000 0.0000)">
</g>
        <g transform="matrix(0.0625 0.0000 0.0000 0.0625 0.0000 0.0000)">
          <path d="M 401.4216,313.2080 L 406.3774,313.2080 C 410.3421,313.2080 413.3156,310.2345 413.3156,306.2698 C 413.3156,306.2698 413.3156,306.2698 413.3156,306.2698 L 413.3156,306.2698 L 413.3156,245.8088 C 413.3156,241.8441 410.3421,238.8706 406.3774,238.8706 C 406.3774,238.8706 406.3774,238.8706 406.3774,238.8706 L 406.3774,238.8706 L 401.4216,238.8706 C 398.4481,238.8706 395.4746,241.8441 395.4746,245.8088 L 395.4746,245.8088 L 395.4746,306.2698 C 395.4746,310.2345 398.4481,313.2080 401.4216,313.2080 Z " fill="#333333" stroke="none"/>
        </g>
        <g transform="matrix(1.0000 0.0000 0.0000 1.0000 0.0000 0.0000)">
</g>
        <g transform="matrix(0.0625 0.0000 0.0000 0.0625 0.0000 0.0000)">
          <path d="M 370.6955,55.5052 L 360.7838,55.5052 L 360.7838,496.5734 L 423.2272,496.5734 L 423.2272,487.6529 L 370.6955,487.6529 L 370.6955,380.6071 L 378.6248,380.6071 C 383.5806,380.6071 387.5453,376.6425 387.5453,371.6867 C 387.5453,371.6867 387.5453,371.6867 387.5453,371.6867 L 387.5453,371.6867 L 387.5453,181.3831 C 387.5453,176.4273 383.5806,172.4626 378.6248,172.4626 L 370.6955,172.4626 L 370.6955,64.4257 L 423.2272,64.4257 L 423.2272,55.5052 L 370.6955,55.5052 Z " fill="#C0C0C0" stroke="none"/>
        </g>
        <g transform="matrix(1.0000 0.0000 0.0000 1.0000 0.0000 0.0000)">
</g>
        <g transform="matrix(0.0625 0.0000 0.0000 0.0625 0.0000 0.0000)">
          <path d="M 461.8826,64.4257 L 461.8826,487.6529 L 514.4143,487.6529 L 514.4143,64.4257 L 461.8826,64.4257 Z" stroke-width="1px" stroke="#333333" fill="#333333"/>
        </g>
        <g transform="matrix(1.0000 0.0000 0.0000 1.0000 0.0000 0.0000)">
</g>
        <g transform="matrix(0.0625 0.0000 0.0000 0.0625 0.0000 0.0000)">
          <path d="M 461.8826,77.3108 L 461.8826,475.7589 L 514.4143,475.7589 L 514.4143,77.3108 L 461.8826,77.3108 Z" stroke-width="1px" stroke="#404040" fill="#404040"/>
        </g>
        <g transform="matrix(1.0000 0.0000 0.0000 1.0000 0.0000 0.0000)">
</g>
        <g transform="matrix(0.0625 0.0000 0.0000 0.0625 0.0000 0.0000)">
          <path d="M 492.6087,313.2080 L 497.5645,313.2080 C 500.5380,313.2080 504.5027,310.2345 504.5027,306.2698 C 504.5027,306.2698 504.5027,306.2698 504.5027,306.2698 L 504.5027,306.2698 L 504.5027,245.8088 C 504.5027,241.8441 500.5380,238.8706 497.5645,238.8706 C 497.5645,238.8706 497.5645,238.8706 497.5645,238.8706 L 497.5645,238.8706 L 492.6087,238.8706 C 488.6441,238.8706 485.6706,241.8441 485.6706,245.8088 L 485.6706,245.8088 L 485.6706,306.2698 C 485.6706,310.2345 488.6441,313.2080 492.6087,313.2080 Z " fill="#333333" stroke="none"/>
        </g>
        <g transform="matrix(1.0000 0.0000 0.0000 1.0000 0.0000 0.0000)">
</g>
        <g transform="matrix(0.0625 0.0000 0.0000 0.0625 0.0000 0.0000)">
          <path d="M 461.8826,55.5052 L 450.9798,55.5052 L 450.9798,496.5734 L 514.4143,496.5734 L 514.4143,487.6529 L 461.8826,487.6529 L 461.8826,380.6071 L 469.8119,380.6071 C 474.7678,380.6071 478.7324,376.6425 478.7324,371.6867 C 478.7324,371.6867 478.7324,371.6867 478.7324,371.6867 L 478.7324,371.6867 L 478.7324,181.3831 C 478.7324,176.4273 474.7678,172.4626 469.8119,172.4626 L 461.8826,172.4626 L 461.8826,64.4257 L 514.4143,64.4257 L 514.4143,55.5052 L 461.8826,55.5052 Z " fill="#C0C0C0" stroke="none"/>
        </g>
        <g transform="matrix(1.0000 0.0000 0.0000 1.0000 0.0000 0.0000)">
</g>
        <g transform="matrix(0.0625 0.0000 0.0000 0.0625 0.0000 0.0000)">
          <path d="M 553.0697,64.4257 L 553.0697,487.6529 L 605.6015,487.6529 L 605.6015,64.4257 L 553.0697,64.4257 Z" stroke-width="1px" stroke="#333333" fill="#333333"/>
        </g>
        <g transform="matrix(1.0000 0.0000 0.0000 1.0000 0.0000 0.0000)">
</g>
        <g transform="matrix(0.0625 0.0000 0.0000 0.0625 0.0000 0.0000)">
          <path d="M 553.0697,77.3108 L 553.0697,475.7589 L 605.6015,475.7589 L 605.6015,77.3108 L 553.0697,77.3108 Z" stroke-width="1px" stroke="#404040" fill="#404040"/>
        </g>
        <g transform="matrix(1.0000 0.0000 0.0000 1.0000 0.0000 0.0000)">
</g>
        <g transform="matrix(0.0625 0.0000 0.0000 0.0625 0.0000 0.0000)">
          <path d="M 583.7958,313.2080 L 588.7517,313.2080 C 591.7252,313.2080 594.6986,310.2345 594.6986,306.2698 C 594.6986,306.2698 594.6986,306.2698 594.6986,306.2698 L 594.6986,306.2698 L 594.6986,245.8088 C 594.6986,241.8441 591.7252,238.8706 588.7517,238.8706 C 588.7517,238.8706 588.7517,238.8706 588.7517,238.8706 L 588.7517,238.8706 L 583.7958,238.8706 C 579.8312,238.8706 576.8577,241.8441 576.8577,245.8088 L 576.8577,245.8088 L 576.8577,306.2698 C 576.8577,310.2345 579.8312,313.2080 583.7958,313.2080 Z " fill="#333333" stroke="none"/>
        </g>
        <g transform="matrix(1.0000 0.0000 0.0000 1.0000 0.0000 0.0000)">
</g>
        <g transform="matrix(0.0625 0.0000 0.0000 0.0625 0.0000 0.0000)">
          <path d="M 553.0697,55.5052 L 542.1669,55.5052 L 542.1669,496.5734 L 605.6015,496.5734 L 605.6015,487.6529 L 553.0697,487.6529 L 553.0697,380.6071 L 560.0079,380.6071 C 564.9637,380.6071 568.9284,376.6425 568.9284,371.6867 C 568.9284,371.6867 568.9284,371.6867 568.9284,371.6867 L 568.9284,371.6867 L 568.9284,181.3831 C 568.9284,176.4273 564.9637,172.4626 560.0079,172.4626 L 553.0697,172.4626 L 553.0697,64.4257 L 605.6015,64.4257 L 605.6015,55.5052 L 553.0697,55.5052 Z " fill="#C0C0C0" stroke="none"/>
        </g>
        <g transform="matrix(1.0000 0.0000 0.0000 1.0000 0.0000 0.0000)">
</g>
        <g transform="matrix(0.0625 0.0000 0.0000 0.0625 0.0000 0.0000)">
          <path d="M 644.2569,64.4257 L 644.2569,487.6529 L 696.7886,487.6529 L 696.7886,64.4257 L 644.2569,64.4257 Z" stroke-width="1px" stroke="#333333" fill="#333333"/>
        </g>
        <g transform="matrix(1.0000 0.0000 0.0000 1.0000 0.0000 0.0000)">
</g>
        <g transform="matrix(0.0625 0.0000 0.0000 0.0625 0.0000 0.0000)">
          <path d="M 644.2569,77.3108 L 644.2569,475.7589 L 696.7886,475.7589 L 696.7886,77.3108 L 644.2569,77.3108 Z" stroke-width="1px" stroke="#404040" fill="#404040"/>
        </g>
        <g transform="matrix(1.0000 0.0000 0.0000 1.0000 0.0000 0.0000)">
</g>
        <g transform="matrix(0.0625 0.0000 0.0000 0.0625 0.0000 0.0000)">
          <path d="M 674.9830,313.2080 L 678.9476,313.2080 C 682.9123,313.2080 685.8858,310.2345 685.8858,306.2698 C 685.8858,306.2698 685.8858,306.2698 685.8858,306.2698 L 685.8858,306.2698 L 685.8858,245.8088 C 685.8858,241.8441 682.9123,238.8706 678.9476,238.8706 C 678.9476,238.8706 678.9476,238.8706 678.9476,238.8706 L 678.9476,238.8706 L 674.9830,238.8706 C 671.0183,238.8706 668.0448,241.8441 668.0448,245.8088 L 668.0448,245.8088 L 668.0448,306.2698 C 668.0448,310.2345 671.0183,313.2080 674.9830,313.2080 Z " fill="#333333" stroke="none"/>
        </g>
        <g transform="matrix(1.0000 0.0000 0.0000 1.0000 0.0000 0.0000)">
</g>
        <g transform="matrix(0.0625 0.0000 0.0000 0.0625 0.0000 0.0000)">
          <path d="M 644.2569,55.5052 L 633.3541,55.5052 L 633.3541,496.5734 L 696.7886,496.5734 L 696.7886,487.6529 L 644.2569,487.6529 L 644.2569,380.6071 L 651.1950,380.6071 C 656.1508,380.6071 660.1155,376.6425 660.1155,371.6867 C 660.1155,371.6867 660.1155,371.6867 660.1155,371.6867 L 660.1155,371.6867 L 660.1155,181.3831 C 660.1155,176.4273 656.1508,172.4626 651.1950,172.4626 L 644.2569,172.4626 L 644.2569,64.4257 L 696.7886,64.4257 L 696.7886,55.5052 L 644.2569,55.5052 Z " fill="#C0C0C0" stroke="none"/>
        </g>
        <g transform="matrix(1.0000 0.0000 0.0000 1.0000 0.0000 0.0000)">
</g>
        <g transform="matrix(0.0625 0.0000 0.0000 0.0625 0.0000 0.0000)">
          <path d="M 734.4528,64.4257 L 734.4528,487.6529 L 786.9845,487.6529 L 786.9845,64.4257 L 734.4528,64.4257 Z" stroke-width="1px" stroke="#333333" fill="#333333"/>
        </g>
        <g transform="matrix(1.0000 0.0000 0.0000 1.0000 0.0000 0.0000)">
</g>
        <g transform="matrix(0.0625 0.0000 0.0000 0.0625 0.0000 0.0000)">
          <path d="M 734.4528,77.3108 L 734.4528,475.7589 L 786.9845,475.7589 L 786.9845,77.3108 L 734.4528,77.3108 Z" stroke-width="1px" stroke="#404040" fill="#404040"/>
        </g>
        <g transform="matrix(1.0000 0.0000 0.0000 1.0000 0.0000 0.0000)">
</g>
        <g transform="matrix(0.0625 0.0000 0.0000 0.0625 0.0000 0.0000)">
          <path d="M 766.1701,313.2080 L 770.1347,313.2080 C 774.0994,313.2080 777.0729,310.2345 777.0729,306.2698 C 777.0729,306.2698 777.0729,306.2698 777.0729,306.2698 L 777.0729,306.2698 L 777.0729,245.8088 C 777.0729,241.8441 774.0994,238.8706 770.1347,238.8706 C 770.1347,238.8706 770.1347,238.8706 770.1347,238.8706 L 770.1347,238.8706 L 766.1701,238.8706 C 762.2054,238.8706 759.2319,241.8441 759.2319,245.8088 L 759.2319,245.8088 L 759.2319,306.2698 C 759.2319,310.2345 762.2054,313.2080 766.1701,313.2080 Z " fill="#333333" stroke="none"/>
        </g>
        <g transform="matrix(1.0000 0.0000 0.0000 1.0000 0.0000 0.0000)">
</g>
        <g transform="matrix(0.0625 0.0000 0.0000 0.0625 0.0000 0.0000)">
          <path d="M 734.4528,55.5052 L 724.5412,55.5052 L 724.5412,496.5734 L 786.9845,496.5734 L 786.9845,487.6529 L 734.4528,487.6529 L 734.4528,380.6071 L 742.3821,380.6071 C 747.3380,380.6071 751.3026,376.6425 751.3026,371.6867 C 751.3026,371.6867 751.3026,371.6867 751.3026,371.6867 L 751.3026,371.6867 L 751.3026,181.3831 C 751.3026,176.4273 747.3380,172.4626 742.3821,172.4626 L 734.4528,172.4626 L 734.4528,64.4257 L 786.9845,64.4257 L 786.9845,55.5052 L 734.4528,55.5052 Z " fill="#C0C0C0" stroke="none"/>
        </g>
        <g transform="matrix(1.0000 0.0000 0.0000 1.0000 0.0000 0.0000)">
</g>
      </g>
      <!--emf-blob end-->
    </g>
  </g>
</svg>
