<svg xmlns="http://www.w3.org/2000/svg" xmlns:xlink="http://www.w3.org/1999/xlink" version="1.1" width="60.4800000000" height="144.0000000000">
  <title><![CDATA[Competitor Symmetrix z8000]]></title>
  <g transform=" scale(1.000000) ">
    <text xmlns="http://www.w3.org/2000/svg" x="7.9501" y="144.0000">
      <tspan font-family="Arial" font-size="4.5000" fill="#000000" fill-opacity="1.0000" stroke-opacity="1.0000">
Competitor Symmetrix</tspan>
    </text>
    <!--converted by libvisio2svg-->
    <g transform=" translate(-1.125400,-1.162200) ">
      <!--emf-blob start-->
      <g transform="translate(0.9802, 0.9802)">
        <path d="M 8.8215,1.9603 L 1.9603,10.7818 L 1.9603,125.4614 L 8.8215,140.1639 L 8.8215,1.9603 " fill="none" stroke="none"/>
        <defs>
          <clipPath id="clip-235649157">
            <path d="M 8.8215,1.9603 L 1.9603,10.7818 L 1.9603,125.4614 L 8.8215,140.1639 L 8.8215,1.9603 Z"/>
          </clipPath>
        </defs>
        <path clip-path="url(#clip-235649157)" d="M 0.9802,0.9802 L 0.9802,1.9603 L 8.8215,1.9603 L 8.8215,0.9802 L 0.9802,0.9802 Z" stroke-width="1px" stroke="#B3B3B3" fill="#B3B3B3"/>
        <path clip-path="url(#clip-235649157)" d="M 0.9802,1.9603 L 0.9802,4.9008 L 8.8215,4.9008 L 8.8215,1.9603 L 0.9802,1.9603 Z" stroke-width="1px" stroke="#5A5A5A" fill="#5A5A5A"/>
        <path clip-path="url(#clip-235649157)" d="M 0.9802,4.9008 L 0.9802,7.8413 L 8.8215,7.8413 L 8.8215,4.9008 L 0.9802,4.9008 Z" stroke-width="1px" stroke="#5C5C5C" fill="#5C5C5C"/>
        <path clip-path="url(#clip-235649157)" d="M 0.9802,7.8413 L 0.9802,10.7818 L 8.8215,10.7818 L 8.8215,7.8413 L 0.9802,7.8413 Z" stroke-width="1px" stroke="#5E5E5E" fill="#5E5E5E"/>
        <path clip-path="url(#clip-235649157)" d="M 0.9802,10.7818 L 0.9802,14.7025 L 8.8215,14.7025 L 8.8215,10.7818 L 0.9802,10.7818 Z" stroke-width="1px" stroke="#606060" fill="#606060"/>
        <path clip-path="url(#clip-235649157)" d="M 0.9802,14.7025 L 0.9802,17.6430 L 8.8215,17.6430 L 8.8215,14.7025 L 0.9802,14.7025 Z" stroke-width="1px" stroke="#626262" fill="#626262"/>
        <path clip-path="url(#clip-235649157)" d="M 0.9802,17.6430 L 0.9802,20.5835 L 8.8215,20.5835 L 8.8215,17.6430 L 0.9802,17.6430 Z" stroke-width="1px" stroke="#646464" fill="#646464"/>
        <path clip-path="url(#clip-235649157)" d="M 0.9802,20.5835 L 0.9802,23.5240 L 8.8215,23.5240 L 8.8215,20.5835 L 0.9802,20.5835 Z" stroke-width="1px" stroke="#666666" fill="#666666"/>
        <path clip-path="url(#clip-235649157)" d="M 0.9802,23.5240 L 0.9802,26.4645 L 8.8215,26.4645 L 8.8215,23.5240 L 0.9802,23.5240 Z" stroke-width="1px" stroke="#686868" fill="#686868"/>
        <path clip-path="url(#clip-235649157)" d="M 0.9802,26.4645 L 0.9802,29.4050 L 8.8215,29.4050 L 8.8215,26.4645 L 0.9802,26.4645 Z" stroke-width="1px" stroke="#6A6A6A" fill="#6A6A6A"/>
        <path clip-path="url(#clip-235649157)" d="M 0.9802,29.4050 L 0.9802,32.3455 L 8.8215,32.3455 L 8.8215,29.4050 L 0.9802,29.4050 Z" stroke-width="1px" stroke="#6C6C6C" fill="#6C6C6C"/>
        <path clip-path="url(#clip-235649157)" d="M 0.9802,32.3455 L 0.9802,35.2860 L 8.8215,35.2860 L 8.8215,32.3455 L 0.9802,32.3455 Z" stroke-width="1px" stroke="#6E6E6E" fill="#6E6E6E"/>
        <path clip-path="url(#clip-235649157)" d="M 0.9802,35.2860 L 0.9802,39.2067 L 8.8215,39.2067 L 8.8215,35.2860 L 0.9802,35.2860 Z" stroke-width="1px" stroke="#707070" fill="#707070"/>
        <path clip-path="url(#clip-235649157)" d="M 0.9802,39.2067 L 0.9802,42.1472 L 8.8215,42.1472 L 8.8215,39.2067 L 0.9802,39.2067 Z" stroke-width="1px" stroke="#727272" fill="#727272"/>
        <path clip-path="url(#clip-235649157)" d="M 0.9802,42.1472 L 0.9802,46.0679 L 8.8215,46.0679 L 8.8215,42.1472 L 0.9802,42.1472 Z" stroke-width="1px" stroke="#747474" fill="#747474"/>
        <path clip-path="url(#clip-235649157)" d="M 0.9802,46.0679 L 0.9802,48.0282 L 8.8215,48.0282 L 8.8215,46.0679 L 0.9802,46.0679 Z" stroke-width="1px" stroke="#767676" fill="#767676"/>
        <path clip-path="url(#clip-235649157)" d="M 0.9802,48.0282 L 0.9802,50.9687 L 8.8215,50.9687 L 8.8215,48.0282 L 0.9802,48.0282 Z" stroke-width="1px" stroke="#787878" fill="#787878"/>
        <path clip-path="url(#clip-235649157)" d="M 0.9802,50.9687 L 0.9802,53.9092 L 8.8215,53.9092 L 8.8215,50.9687 L 0.9802,50.9687 Z" stroke-width="1px" stroke="#7A7A7A" fill="#7A7A7A"/>
        <path clip-path="url(#clip-235649157)" d="M 0.9802,53.9092 L 0.9802,57.8299 L 8.8215,57.8299 L 8.8215,53.9092 L 0.9802,53.9092 Z" stroke-width="1px" stroke="#7C7C7C" fill="#7C7C7C"/>
        <path clip-path="url(#clip-235649157)" d="M 0.9802,57.8299 L 0.9802,61.7505 L 8.8215,61.7505 L 8.8215,57.8299 L 0.9802,57.8299 Z" stroke-width="1px" stroke="#7E7E7E" fill="#7E7E7E"/>
        <path clip-path="url(#clip-235649157)" d="M 0.9802,61.7505 L 0.9802,64.6910 L 8.8215,64.6910 L 8.8215,61.7505 L 0.9802,61.7505 Z" stroke-width="1px" stroke="#808080" fill="#808080"/>
        <path clip-path="url(#clip-235649157)" d="M 0.9802,64.6910 L 0.9802,67.6315 L 8.8215,67.6315 L 8.8215,64.6910 L 0.9802,64.6910 Z" stroke-width="1px" stroke="#828282" fill="#828282"/>
        <path clip-path="url(#clip-235649157)" d="M 0.9802,67.6315 L 0.9802,70.5720 L 8.8215,70.5720 L 8.8215,67.6315 L 0.9802,67.6315 Z" stroke-width="1px" stroke="#848484" fill="#848484"/>
        <path clip-path="url(#clip-235649157)" d="M 0.9802,70.5720 L 0.9802,72.5324 L 8.8215,72.5324 L 8.8215,70.5720 L 0.9802,70.5720 Z" stroke-width="1px" stroke="#868686" fill="#868686"/>
        <path clip-path="url(#clip-235649157)" d="M 0.9802,72.5324 L 0.9802,75.4729 L 8.8215,75.4729 L 8.8215,72.5324 L 0.9802,72.5324 Z" stroke-width="1px" stroke="#888888" fill="#888888"/>
        <path clip-path="url(#clip-235649157)" d="M 0.9802,75.4729 L 0.9802,78.4134 L 8.8215,78.4134 L 8.8215,75.4729 L 0.9802,75.4729 Z" stroke-width="1px" stroke="#8A8A8A" fill="#8A8A8A"/>
        <path clip-path="url(#clip-235649157)" d="M 0.9802,78.4134 L 0.9802,82.3340 L 8.8215,82.3340 L 8.8215,78.4134 L 0.9802,78.4134 Z" stroke-width="1px" stroke="#8C8C8C" fill="#8C8C8C"/>
        <path clip-path="url(#clip-235649157)" d="M 0.9802,82.3340 L 0.9802,85.2745 L 8.8215,85.2745 L 8.8215,82.3340 L 0.9802,82.3340 Z" stroke-width="1px" stroke="#8E8E8E" fill="#8E8E8E"/>
        <path clip-path="url(#clip-235649157)" d="M 0.9802,85.2745 L 0.9802,89.1952 L 8.8215,89.1952 L 8.8215,85.2745 L 0.9802,85.2745 Z" stroke-width="1px" stroke="#909090" fill="#909090"/>
        <path clip-path="url(#clip-235649157)" d="M 0.9802,89.1952 L 0.9802,92.1357 L 8.8215,92.1357 L 8.8215,89.1952 L 0.9802,89.1952 Z" stroke-width="1px" stroke="#929292" fill="#929292"/>
        <path clip-path="url(#clip-235649157)" d="M 0.9802,92.1357 L 0.9802,94.0960 L 8.8215,94.0960 L 8.8215,92.1357 L 0.9802,92.1357 Z" stroke-width="1px" stroke="#949494" fill="#949494"/>
        <path clip-path="url(#clip-235649157)" d="M 0.9802,94.0960 L 0.9802,97.0366 L 8.8215,97.0366 L 8.8215,94.0960 L 0.9802,94.0960 Z" stroke-width="1px" stroke="#969696" fill="#969696"/>
        <path clip-path="url(#clip-235649157)" d="M 0.9802,97.0366 L 0.9802,99.9771 L 8.8215,99.9771 L 8.8215,97.0366 L 0.9802,97.0366 Z" stroke-width="1px" stroke="#989898" fill="#989898"/>
        <path clip-path="url(#clip-235649157)" d="M 0.9802,99.9771 L 0.9802,102.9176 L 8.8215,102.9176 L 8.8215,99.9771 L 0.9802,99.9771 Z" stroke-width="1px" stroke="#9A9A9A" fill="#9A9A9A"/>
        <path clip-path="url(#clip-235649157)" d="M 0.9802,102.9176 L 0.9802,105.8581 L 8.8215,105.8581 L 8.8215,102.9176 L 0.9802,102.9176 Z" stroke-width="1px" stroke="#9C9C9C" fill="#9C9C9C"/>
        <path clip-path="url(#clip-235649157)" d="M 0.9802,105.8581 L 0.9802,109.7787 L 8.8215,109.7787 L 8.8215,105.8581 L 0.9802,105.8581 Z" stroke-width="1px" stroke="#9E9E9E" fill="#9E9E9E"/>
        <path clip-path="url(#clip-235649157)" d="M 0.9802,109.7787 L 0.9802,112.7192 L 8.8215,112.7192 L 8.8215,109.7787 L 0.9802,109.7787 Z" stroke-width="1px" stroke="#A0A0A0" fill="#A0A0A0"/>
        <path clip-path="url(#clip-235649157)" d="M 0.9802,112.7192 L 0.9802,116.6399 L 8.8215,116.6399 L 8.8215,112.7192 L 0.9802,112.7192 Z" stroke-width="1px" stroke="#A2A2A2" fill="#A2A2A2"/>
        <path clip-path="url(#clip-235649157)" d="M 0.9802,116.6399 L 0.9802,119.5804 L 8.8215,119.5804 L 8.8215,116.6399 L 0.9802,116.6399 Z" stroke-width="1px" stroke="#A4A4A4" fill="#A4A4A4"/>
        <path clip-path="url(#clip-235649157)" d="M 0.9802,119.5804 L 0.9802,121.5407 L 8.8215,121.5407 L 8.8215,119.5804 L 0.9802,119.5804 Z" stroke-width="1px" stroke="#A6A6A6" fill="#A6A6A6"/>
        <path clip-path="url(#clip-235649157)" d="M 0.9802,121.5407 L 0.9802,125.4614 L 8.8215,125.4614 L 8.8215,121.5407 L 0.9802,121.5407 Z" stroke-width="1px" stroke="#A8A8A8" fill="#A8A8A8"/>
        <path clip-path="url(#clip-235649157)" d="M 0.9802,125.4614 L 0.9802,128.4019 L 8.8215,128.4019 L 8.8215,125.4614 L 0.9802,125.4614 Z" stroke-width="1px" stroke="#AAAAAA" fill="#AAAAAA"/>
        <path clip-path="url(#clip-235649157)" d="M 0.9802,128.4019 L 0.9802,132.3226 L 8.8215,132.3226 L 8.8215,128.4019 L 0.9802,128.4019 Z" stroke-width="1px" stroke="#ACACAC" fill="#ACACAC"/>
        <path clip-path="url(#clip-235649157)" d="M 0.9802,132.3226 L 0.9802,135.2631 L 8.8215,135.2631 L 8.8215,132.3226 L 0.9802,132.3226 Z" stroke-width="1px" stroke="#AEAEAE" fill="#AEAEAE"/>
        <path clip-path="url(#clip-235649157)" d="M 0.9802,135.2631 L 0.9802,138.2036 L 8.8215,138.2036 L 8.8215,135.2631 L 0.9802,135.2631 Z" stroke-width="1px" stroke="#B0B0B0" fill="#B0B0B0"/>
        <path clip-path="url(#clip-235649157)" d="M 0.9802,138.2036 L 0.9802,140.1639 L 8.8215,140.1639 L 8.8215,138.2036 L 0.9802,138.2036 Z" stroke-width="1px" stroke="#B3B3B3" fill="#B3B3B3"/>
        <g transform="matrix(0.0625 0.0000 0.0000 0.0625 0.0000 0.0000)">
          <path d="M 129.3821,18.6232 L 18.6232,172.5094 L 18.6232,1998.5609 L 129.3821,2232.8209 L 129.3821,18.6232 " stroke="#0054A6" stroke-width="11.7620" stroke-linecap="round" stroke-linejoin="round" fill="none"/>
        </g>
        <g transform="matrix(1.0000 0.0000 0.0000 1.0000 0.0000 0.0000)">
          <path d="M 8.8215,140.1639 C 25.4843,144.0846 43.1274,144.0846 60.7704,140.1639 C 60.7704,94.0960 60.7704,48.0282 60.7704,1.9603 C 43.1274,1.9603 25.4843,1.9603 8.8215,1.9603 C 8.8215,48.0282 8.8215,94.0960 8.8215,140.1639 " fill="none" stroke="none"/>
          <defs>
            <clipPath id="clip-1448703729">
              <path d="M 8.8215,140.1639 C 25.4843,144.0846 43.1274,144.0846 60.7704,140.1639 C 60.7704,94.0960 60.7704,48.0282 60.7704,1.9603 C 43.1274,1.9603 25.4843,1.9603 8.8215,1.9603 C 8.8215,48.0282 8.8215,94.0960 8.8215,140.1639 Z"/>
            </clipPath>
          </defs>
          <path clip-path="url(#clip-1448703729)" d="M 7.8413,0.9802 L 7.8413,144.0846 L 8.8215,144.0846 L 8.8215,0.9802 L 7.8413,0.9802 Z" stroke-width="1px" stroke="#B3B3B3" fill="#B3B3B3"/>
          <path clip-path="url(#clip-1448703729)" d="M 8.8215,0.9802 L 8.8215,144.0846 L 9.8017,144.0846 L 9.8017,0.9802 L 8.8215,0.9802 Z" stroke-width="1px" stroke="#3E3E3E" fill="#3E3E3E"/>
          <path clip-path="url(#clip-1448703729)" d="M 9.8017,0.9802 L 9.8017,144.0846 L 10.7818,144.0846 L 10.7818,0.9802 L 9.8017,0.9802 Z" stroke-width="1px" stroke="#404040" fill="#404040"/>
          <path clip-path="url(#clip-1448703729)" d="M 10.7818,0.9802 L 10.7818,144.0846 L 11.7620,144.0846 L 11.7620,0.9802 L 10.7818,0.9802 Z" stroke-width="1px" stroke="#424242" fill="#424242"/>
          <path clip-path="url(#clip-1448703729)" d="M 11.7620,0.9802 L 11.7620,144.0846 L 12.7422,144.0846 L 12.7422,0.9802 L 11.7620,0.9802 Z" stroke-width="1px" stroke="#444444" fill="#444444"/>
          <path clip-path="url(#clip-1448703729)" d="M 12.7422,0.9802 L 12.7422,144.0846 L 13.7223,144.0846 L 13.7223,0.9802 L 12.7422,0.9802 Z" stroke-width="1px" stroke="#464646" fill="#464646"/>
          <path clip-path="url(#clip-1448703729)" d="M 13.7223,0.9802 L 13.7223,144.0846 L 14.7025,144.0846 L 14.7025,0.9802 L 13.7223,0.9802 Z" stroke-width="1px" stroke="#494949" fill="#494949"/>
          <path clip-path="url(#clip-1448703729)" d="M 14.7025,0.9802 L 14.7025,144.0846 L 15.6827,144.0846 L 15.6827,0.9802 L 14.7025,0.9802 Z" stroke-width="1px" stroke="#4B4B4B" fill="#4B4B4B"/>
          <path clip-path="url(#clip-1448703729)" d="M 15.6827,0.9802 L 15.6827,144.0846 L 16.6628,144.0846 L 16.6628,0.9802 L 15.6827,0.9802 Z" stroke-width="1px" stroke="#4D4D4D" fill="#4D4D4D"/>
          <path clip-path="url(#clip-1448703729)" d="M 16.6628,0.9802 L 16.6628,144.0846 L 17.6430,144.0846 L 17.6430,0.9802 L 16.6628,0.9802 Z" stroke-width="1px" stroke="#4F4F4F" fill="#4F4F4F"/>
          <path clip-path="url(#clip-1448703729)" d="M 17.6430,0.9802 L 17.6430,144.0846 L 18.6232,144.0846 L 18.6232,0.9802 L 17.6430,0.9802 Z" stroke-width="1px" stroke="#525252" fill="#525252"/>
          <path clip-path="url(#clip-1448703729)" d="M 18.6232,0.9802 L 18.6232,144.0846 L 19.6033,144.0846 L 19.6033,0.9802 L 18.6232,0.9802 Z" stroke-width="1px" stroke="#545454" fill="#545454"/>
          <path clip-path="url(#clip-1448703729)" d="M 19.6033,0.9802 L 19.6033,144.0846 L 20.5835,144.0846 L 20.5835,0.9802 L 19.6033,0.9802 Z" stroke-width="1px" stroke="#565656" fill="#565656"/>
          <path clip-path="url(#clip-1448703729)" d="M 20.5835,0.9802 L 20.5835,144.0846 L 21.5637,144.0846 L 21.5637,0.9802 L 20.5835,0.9802 Z" stroke-width="1px" stroke="#595959" fill="#595959"/>
          <path clip-path="url(#clip-1448703729)" d="M 21.5637,0.9802 L 21.5637,144.0846 L 22.5438,144.0846 L 22.5438,0.9802 L 21.5637,0.9802 Z" stroke-width="1px" stroke="#5B5B5B" fill="#5B5B5B"/>
          <path clip-path="url(#clip-1448703729)" d="M 22.5438,0.9802 L 22.5438,144.0846 L 23.5240,144.0846 L 23.5240,0.9802 L 22.5438,0.9802 Z" stroke-width="1px" stroke="#5D5D5D" fill="#5D5D5D"/>
          <path clip-path="url(#clip-1448703729)" d="M 23.5240,0.9802 L 23.5240,144.0846 L 24.5042,144.0846 L 24.5042,0.9802 L 23.5240,0.9802 Z" stroke-width="1px" stroke="#5F5F5F" fill="#5F5F5F"/>
          <path clip-path="url(#clip-1448703729)" d="M 24.5042,0.9802 L 24.5042,144.0846 L 25.4843,144.0846 L 25.4843,0.9802 L 24.5042,0.9802 Z" stroke-width="1px" stroke="#616161" fill="#616161"/>
          <path clip-path="url(#clip-1448703729)" d="M 25.4843,0.9802 L 25.4843,144.0846 L 26.4645,144.0846 L 26.4645,0.9802 L 25.4843,0.9802 Z" stroke-width="1px" stroke="#646464" fill="#646464"/>
          <path clip-path="url(#clip-1448703729)" d="M 26.4645,0.9802 L 26.4645,144.0846 L 27.4447,144.0846 L 27.4447,0.9802 L 26.4645,0.9802 Z" stroke-width="1px" stroke="#666666" fill="#666666"/>
          <path clip-path="url(#clip-1448703729)" d="M 27.4447,0.9802 L 27.4447,144.0846 L 28.4248,144.0846 L 28.4248,0.9802 L 27.4447,0.9802 Z" stroke-width="1px" stroke="#686868" fill="#686868"/>
          <path clip-path="url(#clip-1448703729)" d="M 28.4248,0.9802 L 28.4248,144.0846 L 29.4050,144.0846 L 29.4050,0.9802 L 28.4248,0.9802 Z" stroke-width="1px" stroke="#6B6B6B" fill="#6B6B6B"/>
          <path clip-path="url(#clip-1448703729)" d="M 29.4050,0.9802 L 29.4050,144.0846 L 30.3852,144.0846 L 30.3852,0.9802 L 29.4050,0.9802 Z" stroke-width="1px" stroke="#6D6D6D" fill="#6D6D6D"/>
          <path clip-path="url(#clip-1448703729)" d="M 30.3852,0.9802 L 30.3852,144.0846 L 31.3653,144.0846 L 31.3653,0.9802 L 30.3852,0.9802 Z" stroke-width="1px" stroke="#6F6F6F" fill="#6F6F6F"/>
          <path clip-path="url(#clip-1448703729)" d="M 31.3653,0.9802 L 31.3653,144.0846 L 32.3455,144.0846 L 32.3455,0.9802 L 31.3653,0.9802 Z" stroke-width="1px" stroke="#717171" fill="#717171"/>
          <path clip-path="url(#clip-1448703729)" d="M 32.3455,0.9802 L 32.3455,144.0846 L 33.3257,144.0846 L 33.3257,0.9802 L 32.3455,0.9802 Z" stroke-width="1px" stroke="#737373" fill="#737373"/>
          <path clip-path="url(#clip-1448703729)" d="M 33.3257,0.9802 L 33.3257,144.0846 L 34.3059,144.0846 L 34.3059,0.9802 L 33.3257,0.9802 Z" stroke-width="1px" stroke="#767676" fill="#767676"/>
          <path clip-path="url(#clip-1448703729)" d="M 34.3059,0.9802 L 34.3059,144.0846 L 35.2860,144.0846 L 35.2860,0.9802 L 34.3059,0.9802 Z" stroke-width="1px" stroke="#787878" fill="#787878"/>
          <path clip-path="url(#clip-1448703729)" d="M 35.2860,0.9802 L 35.2860,144.0846 L 36.2662,144.0846 L 36.2662,0.9802 L 35.2860,0.9802 Z" stroke-width="1px" stroke="#7A7A7A" fill="#7A7A7A"/>
          <path clip-path="url(#clip-1448703729)" d="M 36.2662,0.9802 L 36.2662,144.0846 L 37.2464,144.0846 L 37.2464,0.9802 L 36.2662,0.9802 Z" stroke-width="1px" stroke="#7C7C7C" fill="#7C7C7C"/>
          <path clip-path="url(#clip-1448703729)" d="M 37.2464,0.9802 L 37.2464,144.0846 L 38.2265,144.0846 L 38.2265,0.9802 L 37.2464,0.9802 Z" stroke-width="1px" stroke="#7E7E7E" fill="#7E7E7E"/>
          <path clip-path="url(#clip-1448703729)" d="M 38.2265,0.9802 L 38.2265,144.0846 L 39.2067,144.0846 L 39.2067,0.9802 L 38.2265,0.9802 Z" stroke-width="1px" stroke="#818181" fill="#818181"/>
          <path clip-path="url(#clip-1448703729)" d="M 39.2067,0.9802 L 39.2067,144.0846 L 40.1869,144.0846 L 40.1869,0.9802 L 39.2067,0.9802 Z" stroke-width="1px" stroke="#838383" fill="#838383"/>
          <path clip-path="url(#clip-1448703729)" d="M 40.1869,0.9802 L 40.1869,144.0846 L 41.1670,144.0846 L 41.1670,0.9802 L 40.1869,0.9802 Z" stroke-width="1px" stroke="#858585" fill="#858585"/>
          <path clip-path="url(#clip-1448703729)" d="M 41.1670,0.9802 L 41.1670,144.0846 L 42.1472,144.0846 L 42.1472,0.9802 L 41.1670,0.9802 Z" stroke-width="1px" stroke="#878787" fill="#878787"/>
          <path clip-path="url(#clip-1448703729)" d="M 42.1472,0.9802 L 42.1472,144.0846 L 43.1274,144.0846 L 43.1274,0.9802 L 42.1472,0.9802 Z" stroke-width="1px" stroke="#898989" fill="#898989"/>
          <path clip-path="url(#clip-1448703729)" d="M 43.1274,0.9802 L 43.1274,144.0846 L 44.1075,144.0846 L 44.1075,0.9802 L 43.1274,0.9802 Z" stroke-width="1px" stroke="#8C8C8C" fill="#8C8C8C"/>
          <path clip-path="url(#clip-1448703729)" d="M 44.1075,0.9802 L 44.1075,144.0846 L 45.0877,144.0846 L 45.0877,0.9802 L 44.1075,0.9802 Z" stroke-width="1px" stroke="#8E8E8E" fill="#8E8E8E"/>
          <path clip-path="url(#clip-1448703729)" d="M 45.0877,0.9802 L 45.0877,144.0846 L 46.0679,144.0846 L 46.0679,0.9802 L 45.0877,0.9802 Z" stroke-width="1px" stroke="#909090" fill="#909090"/>
          <path clip-path="url(#clip-1448703729)" d="M 46.0679,0.9802 L 46.0679,144.0846 L 47.0480,144.0846 L 47.0480,0.9802 L 46.0679,0.9802 Z" stroke-width="1px" stroke="#929292" fill="#929292"/>
          <path clip-path="url(#clip-1448703729)" d="M 47.0480,0.9802 L 47.0480,144.0846 L 48.0282,144.0846 L 48.0282,0.9802 L 47.0480,0.9802 Z" stroke-width="1px" stroke="#949494" fill="#949494"/>
          <path clip-path="url(#clip-1448703729)" d="M 48.0282,0.9802 L 48.0282,144.0846 L 49.0084,144.0846 L 49.0084,0.9802 L 48.0282,0.9802 Z" stroke-width="1px" stroke="#979797" fill="#979797"/>
          <path clip-path="url(#clip-1448703729)" d="M 49.0084,0.9802 L 49.0084,144.0846 L 49.9885,144.0846 L 49.9885,0.9802 L 49.0084,0.9802 Z" stroke-width="1px" stroke="#999999" fill="#999999"/>
          <path clip-path="url(#clip-1448703729)" d="M 49.9885,0.9802 L 49.9885,144.0846 L 50.9687,144.0846 L 50.9687,0.9802 L 49.9885,0.9802 Z" stroke-width="1px" stroke="#9C9C9C" fill="#9C9C9C"/>
          <path clip-path="url(#clip-1448703729)" d="M 50.9687,0.9802 L 50.9687,144.0846 L 51.9489,144.0846 L 51.9489,0.9802 L 50.9687,0.9802 Z" stroke-width="1px" stroke="#9E9E9E" fill="#9E9E9E"/>
          <path clip-path="url(#clip-1448703729)" d="M 51.9489,0.9802 L 51.9489,144.0846 L 52.9290,144.0846 L 52.9290,0.9802 L 51.9489,0.9802 Z" stroke-width="1px" stroke="#A0A0A0" fill="#A0A0A0"/>
          <path clip-path="url(#clip-1448703729)" d="M 52.9290,0.9802 L 52.9290,144.0846 L 53.9092,144.0846 L 53.9092,0.9802 L 52.9290,0.9802 Z" stroke-width="1px" stroke="#A2A2A2" fill="#A2A2A2"/>
          <path clip-path="url(#clip-1448703729)" d="M 53.9092,0.9802 L 53.9092,144.0846 L 54.8894,144.0846 L 54.8894,0.9802 L 53.9092,0.9802 Z" stroke-width="1px" stroke="#A4A4A4" fill="#A4A4A4"/>
          <path clip-path="url(#clip-1448703729)" d="M 54.8894,0.9802 L 54.8894,144.0846 L 55.8695,144.0846 L 55.8695,0.9802 L 54.8894,0.9802 Z" stroke-width="1px" stroke="#A7A7A7" fill="#A7A7A7"/>
          <path clip-path="url(#clip-1448703729)" d="M 55.8695,0.9802 L 55.8695,144.0846 L 56.8497,144.0846 L 56.8497,0.9802 L 55.8695,0.9802 Z" stroke-width="1px" stroke="#A9A9A9" fill="#A9A9A9"/>
          <path clip-path="url(#clip-1448703729)" d="M 56.8497,0.9802 L 56.8497,144.0846 L 57.8299,144.0846 L 57.8299,0.9802 L 56.8497,0.9802 Z" stroke-width="1px" stroke="#ABABAB" fill="#ABABAB"/>
          <path clip-path="url(#clip-1448703729)" d="M 57.8299,0.9802 L 57.8299,144.0846 L 58.8100,144.0846 L 58.8100,0.9802 L 57.8299,0.9802 Z" stroke-width="1px" stroke="#AEAEAE" fill="#AEAEAE"/>
          <path clip-path="url(#clip-1448703729)" d="M 58.8100,0.9802 L 58.8100,144.0846 L 59.7902,144.0846 L 59.7902,0.9802 L 58.8100,0.9802 Z" stroke-width="1px" stroke="#B0B0B0" fill="#B0B0B0"/>
          <path clip-path="url(#clip-1448703729)" d="M 59.7902,0.9802 L 59.7902,144.0846 L 60.7704,144.0846 L 60.7704,0.9802 L 59.7902,0.9802 Z" stroke-width="1px" stroke="#B2B2B2" fill="#B2B2B2"/>
        </g>
        <g transform="matrix(0.0625 0.0000 0.0000 0.0625 0.0000 0.0000)">
          <path d="M 59.7902,0.9802 M 129.3821,2232.8209 C 405.7892,2294.5714 690.0377,2294.5714 966.4448,2232.8209 C 966.4448,1494.7550 966.4448,756.6891 966.4448,18.6232 C 687.0972,18.6232 408.7297,18.6232 129.3821,18.6232 C 129.3821,756.6891 129.3821,1494.7550 129.3821,2232.8209 " stroke="#0054A6" stroke-width="11.7620" stroke-linecap="round" stroke-linejoin="round" fill="none"/>
        </g>
        <g transform="matrix(1.0000 0.0000 0.0000 1.0000 0.0000 0.0000)">
</g>
        <g transform="matrix(0.0625 0.0000 0.0000 0.0625 0.0000 0.0000)">
          <path d="M 547.9135,116.6399 C 779.2329,116.6399 966.4448,18.6232 966.4448,18.6232 L 129.3821,18.6232 C 129.3821,18.6232 316.5940,116.6399 547.9135,116.6399 Z " fill="#999999" stroke="none"/>
        </g>
        <g transform="matrix(1.0000 0.0000 0.0000 1.0000 0.0000 0.0000)">
</g>
        <g transform="matrix(0.0625 0.0000 0.0000 0.0625 0.0000 0.0000)">
          <path d="M 547.9135,116.6399 C 779.2329,116.6399 966.4448,18.6232 966.4448,18.6232 L 129.3821,18.6232 C 129.3821,18.6232 316.5940,116.6399 547.9135,116.6399 Z " stroke="#0054A6" stroke-width="11.7620" stroke-linecap="round" stroke-linejoin="round" fill="none"/>
        </g>
        <g transform="matrix(1.0000 0.0000 0.0000 1.0000 0.0000 0.0000)">
</g>
        <g transform="matrix(0.0625 0.0000 0.0000 0.0625 0.0000 0.0000)">
          <path d="M 780.2131,271.5063 L 780.2131,356.7809 L 912.5357,356.7809 L 912.5357,271.5063 L 780.2131,271.5063 Z" stroke-width="1px" stroke="#1A1A1A" fill="#1A1A1A"/>
        </g>
        <g transform="matrix(1.0000 0.0000 0.0000 1.0000 0.0000 0.0000)">
</g>
        <g transform="matrix(0.0625 0.0000 0.0000 0.0625 0.0000 0.0000)">
          <path d="M 780.2131,390.1065 L 780.2131,835.1024 L 912.5357,835.1024 L 912.5357,390.1065 L 780.2131,390.1065 Z" stroke-width="1px" stroke="#1A1A1A" fill="#1A1A1A"/>
        </g>
        <g transform="matrix(1.0000 0.0000 0.0000 1.0000 0.0000 0.0000)">
</g>
        <g transform="matrix(0.0625 0.0000 0.0000 0.0625 0.0000 0.0000)">
          <path d="M 196.0334,1681.9669 L 196.0334,1758.4199 L 598.8822,1758.4199 L 598.8822,1681.9669 L 196.0334,1681.9669 Z" stroke-width="1px" stroke="#1A1A1A" fill="#1A1A1A"/>
        </g>
        <g transform="matrix(1.0000 0.0000 0.0000 1.0000 0.0000 0.0000)">
</g>
        <g transform="matrix(0.0625 0.0000 0.0000 0.0625 0.0000 0.0000)">
          <path d="M 196.0334,1557.4857 L 196.0334,1633.9387 L 598.8822,1633.9387 L 598.8822,1557.4857 L 196.0334,1557.4857 Z" stroke-width="1px" stroke="#1A1A1A" fill="#1A1A1A"/>
        </g>
        <g transform="matrix(1.0000 0.0000 0.0000 1.0000 0.0000 0.0000)">
</g>
        <g transform="matrix(0.0625 0.0000 0.0000 0.0625 0.0000 0.0000)">
          <path d="M 196.0334,1433.9846 L 196.0334,1510.4376 L 598.8822,1510.4376 L 598.8822,1433.9846 L 196.0334,1433.9846 Z" stroke-width="1px" stroke="#1A1A1A" fill="#1A1A1A"/>
        </g>
        <g transform="matrix(1.0000 0.0000 0.0000 1.0000 0.0000 0.0000)">
</g>
        <g transform="matrix(0.0625 0.0000 0.0000 0.0625 0.0000 0.0000)">
          <path d="M 196.0334,1310.4835 L 196.0334,1386.9366 L 598.8822,1386.9366 L 598.8822,1310.4835 L 196.0334,1310.4835 Z" stroke-width="1px" stroke="#1A1A1A" fill="#1A1A1A"/>
        </g>
        <g transform="matrix(1.0000 0.0000 0.0000 1.0000 0.0000 0.0000)">
</g>
        <g transform="matrix(0.0625 0.0000 0.0000 0.0625 0.0000 0.0000)">
          <path d="M 196.0334,1186.0023 L 196.0334,1262.4553 L 598.8822,1262.4553 L 598.8822,1186.0023 L 196.0334,1186.0023 Z" stroke-width="1px" stroke="#1A1A1A" fill="#1A1A1A"/>
        </g>
        <g transform="matrix(1.0000 0.0000 0.0000 1.0000 0.0000 0.0000)">
</g>
        <g transform="matrix(0.0625 0.0000 0.0000 0.0625 0.0000 0.0000)">
          <path d="M 196.0334,1062.5012 L 196.0334,1138.9543 L 598.8822,1138.9543 L 598.8822,1062.5012 L 196.0334,1062.5012 Z" stroke-width="1px" stroke="#1A1A1A" fill="#1A1A1A"/>
        </g>
        <g transform="matrix(1.0000 0.0000 0.0000 1.0000 0.0000 0.0000)">
</g>
        <g transform="matrix(0.0625 0.0000 0.0000 0.0625 0.0000 0.0000)">
          <path d="M 196.0334,939.0002 L 196.0334,1015.4532 L 598.8822,1015.4532 L 598.8822,939.0002 L 196.0334,939.0002 Z" stroke-width="1px" stroke="#1A1A1A" fill="#1A1A1A"/>
        </g>
        <g transform="matrix(1.0000 0.0000 0.0000 1.0000 0.0000 0.0000)">
</g>
        <g transform="matrix(0.0625 0.0000 0.0000 0.0625 0.0000 0.0000)">
          <path d="M 700.8195,148.9854 L 700.8195,2128.9231 L 744.9271,2128.9231 L 744.9271,148.9854 L 700.8195,148.9854 Z" stroke-width="1px" stroke="#1A1A1A" fill="#1A1A1A"/>
        </g>
        <g transform="matrix(1.0000 0.0000 0.0000 1.0000 0.0000 0.0000)">
</g>
      </g>
      <!--emf-blob end-->
    </g>
  </g>
</svg>
