<svg xmlns="http://www.w3.org/2000/svg" xmlns:xlink="http://www.w3.org/1999/xlink" version="1.1" width="165.6000000000" height="144.0000000000">
  <title><![CDATA[Competitor Symmetrix 3 z8000]]></title>
  <g transform=" scale(1.000000) ">
    <text xmlns="http://www.w3.org/2000/svg" x="61.3025" y="144.0000">
      <tspan font-family="Arial" font-size="4.5000" fill="#000000" fill-opacity="1.0000" stroke-opacity="1.0000">
Competitor Symmetrix</tspan>
    </text>
    <!--converted by libvisio2svg-->
    <g transform=" translate(-1.193400,-1.162200) ">
      <!--emf-blob start-->
      <g transform="translate(0.9820, 0.9820)">
        <path d="M 8.8384,1.9641 L 1.9641,10.8025 L 1.9641,125.7015 L 8.8384,140.4321 L 8.8384,1.9641 " fill="none" stroke="none"/>
        <defs>
          <clipPath id="clip-661761152">
            <path d="M 8.8384,1.9641 L 1.9641,10.8025 L 1.9641,125.7015 L 8.8384,140.4321 L 8.8384,1.9641 Z"/>
          </clipPath>
        </defs>
        <path clip-path="url(#clip-661761152)" d="M 0.9820,0.9820 L 0.9820,1.9641 L 8.8384,1.9641 L 8.8384,0.9820 L 0.9820,0.9820 Z" stroke-width="1px" stroke="#B3B3B3" fill="#B3B3B3"/>
        <path clip-path="url(#clip-661761152)" d="M 0.9820,1.9641 L 0.9820,4.9102 L 8.8384,4.9102 L 8.8384,1.9641 L 0.9820,1.9641 Z" stroke-width="1px" stroke="#5A5A5A" fill="#5A5A5A"/>
        <path clip-path="url(#clip-661761152)" d="M 0.9820,4.9102 L 0.9820,7.8563 L 8.8384,7.8563 L 8.8384,4.9102 L 0.9820,4.9102 Z" stroke-width="1px" stroke="#5C5C5C" fill="#5C5C5C"/>
        <path clip-path="url(#clip-661761152)" d="M 0.9820,7.8563 L 0.9820,10.8025 L 8.8384,10.8025 L 8.8384,7.8563 L 0.9820,7.8563 Z" stroke-width="1px" stroke="#5E5E5E" fill="#5E5E5E"/>
        <path clip-path="url(#clip-661761152)" d="M 0.9820,10.8025 L 0.9820,14.7306 L 8.8384,14.7306 L 8.8384,10.8025 L 0.9820,10.8025 Z" stroke-width="1px" stroke="#606060" fill="#606060"/>
        <path clip-path="url(#clip-661761152)" d="M 0.9820,14.7306 L 0.9820,17.6768 L 8.8384,17.6768 L 8.8384,14.7306 L 0.9820,14.7306 Z" stroke-width="1px" stroke="#626262" fill="#626262"/>
        <path clip-path="url(#clip-661761152)" d="M 0.9820,17.6768 L 0.9820,20.6229 L 8.8384,20.6229 L 8.8384,17.6768 L 0.9820,17.6768 Z" stroke-width="1px" stroke="#646464" fill="#646464"/>
        <path clip-path="url(#clip-661761152)" d="M 0.9820,20.6229 L 0.9820,23.5690 L 8.8384,23.5690 L 8.8384,20.6229 L 0.9820,20.6229 Z" stroke-width="1px" stroke="#666666" fill="#666666"/>
        <path clip-path="url(#clip-661761152)" d="M 0.9820,23.5690 L 0.9820,26.5152 L 8.8384,26.5152 L 8.8384,23.5690 L 0.9820,23.5690 Z" stroke-width="1px" stroke="#686868" fill="#686868"/>
        <path clip-path="url(#clip-661761152)" d="M 0.9820,26.5152 L 0.9820,29.4613 L 8.8384,29.4613 L 8.8384,26.5152 L 0.9820,26.5152 Z" stroke-width="1px" stroke="#6A6A6A" fill="#6A6A6A"/>
        <path clip-path="url(#clip-661761152)" d="M 0.9820,29.4613 L 0.9820,32.4074 L 8.8384,32.4074 L 8.8384,29.4613 L 0.9820,29.4613 Z" stroke-width="1px" stroke="#6C6C6C" fill="#6C6C6C"/>
        <path clip-path="url(#clip-661761152)" d="M 0.9820,32.4074 L 0.9820,35.3535 L 8.8384,35.3535 L 8.8384,32.4074 L 0.9820,32.4074 Z" stroke-width="1px" stroke="#6E6E6E" fill="#6E6E6E"/>
        <path clip-path="url(#clip-661761152)" d="M 0.9820,35.3535 L 0.9820,39.2817 L 8.8384,39.2817 L 8.8384,35.3535 L 0.9820,35.3535 Z" stroke-width="1px" stroke="#707070" fill="#707070"/>
        <path clip-path="url(#clip-661761152)" d="M 0.9820,39.2817 L 0.9820,42.2278 L 8.8384,42.2278 L 8.8384,39.2817 L 0.9820,39.2817 Z" stroke-width="1px" stroke="#727272" fill="#727272"/>
        <path clip-path="url(#clip-661761152)" d="M 0.9820,42.2278 L 0.9820,46.1560 L 8.8384,46.1560 L 8.8384,42.2278 L 0.9820,42.2278 Z" stroke-width="1px" stroke="#747474" fill="#747474"/>
        <path clip-path="url(#clip-661761152)" d="M 0.9820,46.1560 L 0.9820,48.1201 L 8.8384,48.1201 L 8.8384,46.1560 L 0.9820,46.1560 Z" stroke-width="1px" stroke="#767676" fill="#767676"/>
        <path clip-path="url(#clip-661761152)" d="M 0.9820,48.1201 L 0.9820,51.0662 L 8.8384,51.0662 L 8.8384,48.1201 L 0.9820,48.1201 Z" stroke-width="1px" stroke="#787878" fill="#787878"/>
        <path clip-path="url(#clip-661761152)" d="M 0.9820,51.0662 L 0.9820,54.0124 L 8.8384,54.0124 L 8.8384,51.0662 L 0.9820,51.0662 Z" stroke-width="1px" stroke="#7A7A7A" fill="#7A7A7A"/>
        <path clip-path="url(#clip-661761152)" d="M 0.9820,54.0124 L 0.9820,57.9405 L 8.8384,57.9405 L 8.8384,54.0124 L 0.9820,54.0124 Z" stroke-width="1px" stroke="#7C7C7C" fill="#7C7C7C"/>
        <path clip-path="url(#clip-661761152)" d="M 0.9820,57.9405 L 0.9820,61.8687 L 8.8384,61.8687 L 8.8384,57.9405 L 0.9820,57.9405 Z" stroke-width="1px" stroke="#7E7E7E" fill="#7E7E7E"/>
        <path clip-path="url(#clip-661761152)" d="M 0.9820,61.8687 L 0.9820,64.8148 L 8.8384,64.8148 L 8.8384,61.8687 L 0.9820,61.8687 Z" stroke-width="1px" stroke="#808080" fill="#808080"/>
        <path clip-path="url(#clip-661761152)" d="M 0.9820,64.8148 L 0.9820,67.7610 L 8.8384,67.7610 L 8.8384,64.8148 L 0.9820,64.8148 Z" stroke-width="1px" stroke="#828282" fill="#828282"/>
        <path clip-path="url(#clip-661761152)" d="M 0.9820,67.7610 L 0.9820,69.7250 L 8.8384,69.7250 L 8.8384,67.7610 L 0.9820,67.7610 Z" stroke-width="1px" stroke="#848484" fill="#848484"/>
        <path clip-path="url(#clip-661761152)" d="M 0.9820,69.7250 L 0.9820,72.6712 L 8.8384,72.6712 L 8.8384,69.7250 L 0.9820,69.7250 Z" stroke-width="1px" stroke="#868686" fill="#868686"/>
        <path clip-path="url(#clip-661761152)" d="M 0.9820,72.6712 L 0.9820,75.6173 L 8.8384,75.6173 L 8.8384,72.6712 L 0.9820,72.6712 Z" stroke-width="1px" stroke="#888888" fill="#888888"/>
        <path clip-path="url(#clip-661761152)" d="M 0.9820,75.6173 L 0.9820,78.5634 L 8.8384,78.5634 L 8.8384,75.6173 L 0.9820,75.6173 Z" stroke-width="1px" stroke="#8A8A8A" fill="#8A8A8A"/>
        <path clip-path="url(#clip-661761152)" d="M 0.9820,78.5634 L 0.9820,82.4916 L 8.8384,82.4916 L 8.8384,78.5634 L 0.9820,78.5634 Z" stroke-width="1px" stroke="#8C8C8C" fill="#8C8C8C"/>
        <path clip-path="url(#clip-661761152)" d="M 0.9820,82.4916 L 0.9820,85.4377 L 8.8384,85.4377 L 8.8384,82.4916 L 0.9820,82.4916 Z" stroke-width="1px" stroke="#8E8E8E" fill="#8E8E8E"/>
        <path clip-path="url(#clip-661761152)" d="M 0.9820,85.4377 L 0.9820,89.3659 L 8.8384,89.3659 L 8.8384,85.4377 L 0.9820,85.4377 Z" stroke-width="1px" stroke="#909090" fill="#909090"/>
        <path clip-path="url(#clip-661761152)" d="M 0.9820,89.3659 L 0.9820,92.3120 L 8.8384,92.3120 L 8.8384,89.3659 L 0.9820,89.3659 Z" stroke-width="1px" stroke="#929292" fill="#929292"/>
        <path clip-path="url(#clip-661761152)" d="M 0.9820,92.3120 L 0.9820,94.2761 L 8.8384,94.2761 L 8.8384,92.3120 L 0.9820,92.3120 Z" stroke-width="1px" stroke="#949494" fill="#949494"/>
        <path clip-path="url(#clip-661761152)" d="M 0.9820,94.2761 L 0.9820,97.2223 L 8.8384,97.2223 L 8.8384,94.2761 L 0.9820,94.2761 Z" stroke-width="1px" stroke="#969696" fill="#969696"/>
        <path clip-path="url(#clip-661761152)" d="M 0.9820,97.2223 L 0.9820,100.1684 L 8.8384,100.1684 L 8.8384,97.2223 L 0.9820,97.2223 Z" stroke-width="1px" stroke="#989898" fill="#989898"/>
        <path clip-path="url(#clip-661761152)" d="M 0.9820,100.1684 L 0.9820,103.1145 L 8.8384,103.1145 L 8.8384,100.1684 L 0.9820,100.1684 Z" stroke-width="1px" stroke="#9A9A9A" fill="#9A9A9A"/>
        <path clip-path="url(#clip-661761152)" d="M 0.9820,103.1145 L 0.9820,106.0606 L 8.8384,106.0606 L 8.8384,103.1145 L 0.9820,103.1145 Z" stroke-width="1px" stroke="#9C9C9C" fill="#9C9C9C"/>
        <path clip-path="url(#clip-661761152)" d="M 0.9820,106.0606 L 0.9820,109.9888 L 8.8384,109.9888 L 8.8384,106.0606 L 0.9820,106.0606 Z" stroke-width="1px" stroke="#9E9E9E" fill="#9E9E9E"/>
        <path clip-path="url(#clip-661761152)" d="M 0.9820,109.9888 L 0.9820,112.9349 L 8.8384,112.9349 L 8.8384,109.9888 L 0.9820,109.9888 Z" stroke-width="1px" stroke="#A0A0A0" fill="#A0A0A0"/>
        <path clip-path="url(#clip-661761152)" d="M 0.9820,112.9349 L 0.9820,116.8631 L 8.8384,116.8631 L 8.8384,112.9349 L 0.9820,112.9349 Z" stroke-width="1px" stroke="#A2A2A2" fill="#A2A2A2"/>
        <path clip-path="url(#clip-661761152)" d="M 0.9820,116.8631 L 0.9820,119.8092 L 8.8384,119.8092 L 8.8384,116.8631 L 0.9820,116.8631 Z" stroke-width="1px" stroke="#A4A4A4" fill="#A4A4A4"/>
        <path clip-path="url(#clip-661761152)" d="M 0.9820,119.8092 L 0.9820,121.7733 L 8.8384,121.7733 L 8.8384,119.8092 L 0.9820,119.8092 Z" stroke-width="1px" stroke="#A6A6A6" fill="#A6A6A6"/>
        <path clip-path="url(#clip-661761152)" d="M 0.9820,121.7733 L 0.9820,125.7015 L 8.8384,125.7015 L 8.8384,121.7733 L 0.9820,121.7733 Z" stroke-width="1px" stroke="#A8A8A8" fill="#A8A8A8"/>
        <path clip-path="url(#clip-661761152)" d="M 0.9820,125.7015 L 0.9820,128.6476 L 8.8384,128.6476 L 8.8384,125.7015 L 0.9820,125.7015 Z" stroke-width="1px" stroke="#AAAAAA" fill="#AAAAAA"/>
        <path clip-path="url(#clip-661761152)" d="M 0.9820,128.6476 L 0.9820,132.5758 L 8.8384,132.5758 L 8.8384,128.6476 L 0.9820,128.6476 Z" stroke-width="1px" stroke="#ACACAC" fill="#ACACAC"/>
        <path clip-path="url(#clip-661761152)" d="M 0.9820,132.5758 L 0.9820,135.5219 L 8.8384,135.5219 L 8.8384,132.5758 L 0.9820,132.5758 Z" stroke-width="1px" stroke="#AEAEAE" fill="#AEAEAE"/>
        <path clip-path="url(#clip-661761152)" d="M 0.9820,135.5219 L 0.9820,138.4681 L 8.8384,138.4681 L 8.8384,135.5219 L 0.9820,135.5219 Z" stroke-width="1px" stroke="#B0B0B0" fill="#B0B0B0"/>
        <path clip-path="url(#clip-661761152)" d="M 0.9820,138.4681 L 0.9820,140.4321 L 8.8384,140.4321 L 8.8384,138.4681 L 0.9820,138.4681 Z" stroke-width="1px" stroke="#B3B3B3" fill="#B3B3B3"/>
        <g transform="matrix(0.0625 0.0000 0.0000 0.0625 0.0000 0.0000)">
          <path d="M 129.6297,18.6588 L 18.6588,172.8396 L 18.6588,2001.4035 L 129.6297,2237.0938 L 129.6297,18.6588 " stroke="#0054A6" stroke-width="11.7845" stroke-linecap="round" stroke-linejoin="round" fill="none"/>
        </g>
        <g transform="matrix(1.0000 0.0000 0.0000 1.0000 0.0000 0.0000)">
          <path d="M 8.8384,140.4321 C 25.5331,144.3603 43.2099,144.3603 60.8867,140.4321 C 60.8867,94.2761 60.8867,48.1201 60.8867,1.9641 C 43.2099,1.9641 25.5331,1.9641 8.8384,1.9641 C 8.8384,48.1201 8.8384,94.2761 8.8384,140.4321 " fill="none" stroke="none"/>
          <defs>
            <clipPath id="clip-474613996">
              <path d="M 8.8384,140.4321 C 25.5331,144.3603 43.2099,144.3603 60.8867,140.4321 C 60.8867,94.2761 60.8867,48.1201 60.8867,1.9641 C 43.2099,1.9641 25.5331,1.9641 8.8384,1.9641 C 8.8384,48.1201 8.8384,94.2761 8.8384,140.4321 Z"/>
            </clipPath>
          </defs>
          <path clip-path="url(#clip-474613996)" d="M 7.8563,0.9820 L 7.8563,144.3603 L 8.8384,144.3603 L 8.8384,0.9820 L 7.8563,0.9820 Z" stroke-width="1px" stroke="#B3B3B3" fill="#B3B3B3"/>
          <path clip-path="url(#clip-474613996)" d="M 8.8384,0.9820 L 8.8384,144.3603 L 9.8204,144.3603 L 9.8204,0.9820 L 8.8384,0.9820 Z" stroke-width="1px" stroke="#3E3E3E" fill="#3E3E3E"/>
          <path clip-path="url(#clip-474613996)" d="M 9.8204,0.9820 L 9.8204,144.3603 L 10.8025,144.3603 L 10.8025,0.9820 L 9.8204,0.9820 Z" stroke-width="1px" stroke="#404040" fill="#404040"/>
          <path clip-path="url(#clip-474613996)" d="M 10.8025,0.9820 L 10.8025,144.3603 L 11.7845,144.3603 L 11.7845,0.9820 L 10.8025,0.9820 Z" stroke-width="1px" stroke="#424242" fill="#424242"/>
          <path clip-path="url(#clip-474613996)" d="M 11.7845,0.9820 L 11.7845,144.3603 L 12.7666,144.3603 L 12.7666,0.9820 L 11.7845,0.9820 Z" stroke-width="1px" stroke="#444444" fill="#444444"/>
          <path clip-path="url(#clip-474613996)" d="M 12.7666,0.9820 L 12.7666,144.3603 L 13.7486,144.3603 L 13.7486,0.9820 L 12.7666,0.9820 Z" stroke-width="1px" stroke="#464646" fill="#464646"/>
          <path clip-path="url(#clip-474613996)" d="M 13.7486,0.9820 L 13.7486,144.3603 L 14.7306,144.3603 L 14.7306,0.9820 L 13.7486,0.9820 Z" stroke-width="1px" stroke="#494949" fill="#494949"/>
          <path clip-path="url(#clip-474613996)" d="M 14.7306,0.9820 L 14.7306,144.3603 L 15.7127,144.3603 L 15.7127,0.9820 L 14.7306,0.9820 Z" stroke-width="1px" stroke="#4B4B4B" fill="#4B4B4B"/>
          <path clip-path="url(#clip-474613996)" d="M 15.7127,0.9820 L 15.7127,144.3603 L 16.6947,144.3603 L 16.6947,0.9820 L 15.7127,0.9820 Z" stroke-width="1px" stroke="#4D4D4D" fill="#4D4D4D"/>
          <path clip-path="url(#clip-474613996)" d="M 16.6947,0.9820 L 16.6947,144.3603 L 17.6768,144.3603 L 17.6768,0.9820 L 16.6947,0.9820 Z" stroke-width="1px" stroke="#4F4F4F" fill="#4F4F4F"/>
          <path clip-path="url(#clip-474613996)" d="M 17.6768,0.9820 L 17.6768,144.3603 L 18.6588,144.3603 L 18.6588,0.9820 L 17.6768,0.9820 Z" stroke-width="1px" stroke="#525252" fill="#525252"/>
          <path clip-path="url(#clip-474613996)" d="M 18.6588,0.9820 L 18.6588,144.3603 L 19.6409,144.3603 L 19.6409,0.9820 L 18.6588,0.9820 Z" stroke-width="1px" stroke="#545454" fill="#545454"/>
          <path clip-path="url(#clip-474613996)" d="M 19.6409,0.9820 L 19.6409,144.3603 L 20.6229,144.3603 L 20.6229,0.9820 L 19.6409,0.9820 Z" stroke-width="1px" stroke="#565656" fill="#565656"/>
          <path clip-path="url(#clip-474613996)" d="M 20.6229,0.9820 L 20.6229,144.3603 L 21.6049,144.3603 L 21.6049,0.9820 L 20.6229,0.9820 Z" stroke-width="1px" stroke="#595959" fill="#595959"/>
          <path clip-path="url(#clip-474613996)" d="M 21.6049,0.9820 L 21.6049,144.3603 L 22.5870,144.3603 L 22.5870,0.9820 L 21.6049,0.9820 Z" stroke-width="1px" stroke="#5B5B5B" fill="#5B5B5B"/>
          <path clip-path="url(#clip-474613996)" d="M 22.5870,0.9820 L 22.5870,144.3603 L 23.5690,144.3603 L 23.5690,0.9820 L 22.5870,0.9820 Z" stroke-width="1px" stroke="#5D5D5D" fill="#5D5D5D"/>
          <path clip-path="url(#clip-474613996)" d="M 23.5690,0.9820 L 23.5690,144.3603 L 24.5511,144.3603 L 24.5511,0.9820 L 23.5690,0.9820 Z" stroke-width="1px" stroke="#5F5F5F" fill="#5F5F5F"/>
          <path clip-path="url(#clip-474613996)" d="M 24.5511,0.9820 L 24.5511,144.3603 L 25.5331,144.3603 L 25.5331,0.9820 L 24.5511,0.9820 Z" stroke-width="1px" stroke="#616161" fill="#616161"/>
          <path clip-path="url(#clip-474613996)" d="M 25.5331,0.9820 L 25.5331,144.3603 L 26.5152,144.3603 L 26.5152,0.9820 L 25.5331,0.9820 Z" stroke-width="1px" stroke="#646464" fill="#646464"/>
          <path clip-path="url(#clip-474613996)" d="M 26.5152,0.9820 L 26.5152,144.3603 L 27.4972,144.3603 L 27.4972,0.9820 L 26.5152,0.9820 Z" stroke-width="1px" stroke="#666666" fill="#666666"/>
          <path clip-path="url(#clip-474613996)" d="M 27.4972,0.9820 L 27.4972,144.3603 L 28.4792,144.3603 L 28.4792,0.9820 L 27.4972,0.9820 Z" stroke-width="1px" stroke="#686868" fill="#686868"/>
          <path clip-path="url(#clip-474613996)" d="M 28.4792,0.9820 L 28.4792,144.3603 L 29.4613,144.3603 L 29.4613,0.9820 L 28.4792,0.9820 Z" stroke-width="1px" stroke="#6B6B6B" fill="#6B6B6B"/>
          <path clip-path="url(#clip-474613996)" d="M 29.4613,0.9820 L 29.4613,144.3603 L 30.4433,144.3603 L 30.4433,0.9820 L 29.4613,0.9820 Z" stroke-width="1px" stroke="#6D6D6D" fill="#6D6D6D"/>
          <path clip-path="url(#clip-474613996)" d="M 30.4433,0.9820 L 30.4433,144.3603 L 31.4254,144.3603 L 31.4254,0.9820 L 30.4433,0.9820 Z" stroke-width="1px" stroke="#6F6F6F" fill="#6F6F6F"/>
          <path clip-path="url(#clip-474613996)" d="M 31.4254,0.9820 L 31.4254,144.3603 L 32.4074,144.3603 L 32.4074,0.9820 L 31.4254,0.9820 Z" stroke-width="1px" stroke="#717171" fill="#717171"/>
          <path clip-path="url(#clip-474613996)" d="M 32.4074,0.9820 L 32.4074,144.3603 L 33.3895,144.3603 L 33.3895,0.9820 L 32.4074,0.9820 Z" stroke-width="1px" stroke="#737373" fill="#737373"/>
          <path clip-path="url(#clip-474613996)" d="M 33.3895,0.9820 L 33.3895,144.3603 L 34.3715,144.3603 L 34.3715,0.9820 L 33.3895,0.9820 Z" stroke-width="1px" stroke="#767676" fill="#767676"/>
          <path clip-path="url(#clip-474613996)" d="M 34.3715,0.9820 L 34.3715,144.3603 L 35.3535,144.3603 L 35.3535,0.9820 L 34.3715,0.9820 Z" stroke-width="1px" stroke="#787878" fill="#787878"/>
          <path clip-path="url(#clip-474613996)" d="M 35.3535,0.9820 L 35.3535,144.3603 L 36.3356,144.3603 L 36.3356,0.9820 L 35.3535,0.9820 Z" stroke-width="1px" stroke="#7A7A7A" fill="#7A7A7A"/>
          <path clip-path="url(#clip-474613996)" d="M 36.3356,0.9820 L 36.3356,144.3603 L 37.3176,144.3603 L 37.3176,0.9820 L 36.3356,0.9820 Z" stroke-width="1px" stroke="#7C7C7C" fill="#7C7C7C"/>
          <path clip-path="url(#clip-474613996)" d="M 37.3176,0.9820 L 37.3176,144.3603 L 38.2997,144.3603 L 38.2997,0.9820 L 37.3176,0.9820 Z" stroke-width="1px" stroke="#7E7E7E" fill="#7E7E7E"/>
          <path clip-path="url(#clip-474613996)" d="M 38.2997,0.9820 L 38.2997,144.3603 L 39.2817,144.3603 L 39.2817,0.9820 L 38.2997,0.9820 Z" stroke-width="1px" stroke="#818181" fill="#818181"/>
          <path clip-path="url(#clip-474613996)" d="M 39.2817,0.9820 L 39.2817,144.3603 L 40.2638,144.3603 L 40.2638,0.9820 L 39.2817,0.9820 Z" stroke-width="1px" stroke="#838383" fill="#838383"/>
          <path clip-path="url(#clip-474613996)" d="M 40.2638,0.9820 L 40.2638,144.3603 L 41.2458,144.3603 L 41.2458,0.9820 L 40.2638,0.9820 Z" stroke-width="1px" stroke="#858585" fill="#858585"/>
          <path clip-path="url(#clip-474613996)" d="M 41.2458,0.9820 L 41.2458,144.3603 L 42.2278,144.3603 L 42.2278,0.9820 L 41.2458,0.9820 Z" stroke-width="1px" stroke="#878787" fill="#878787"/>
          <path clip-path="url(#clip-474613996)" d="M 42.2278,0.9820 L 42.2278,144.3603 L 43.2099,144.3603 L 43.2099,0.9820 L 42.2278,0.9820 Z" stroke-width="1px" stroke="#898989" fill="#898989"/>
          <path clip-path="url(#clip-474613996)" d="M 43.2099,0.9820 L 43.2099,144.3603 L 44.1919,144.3603 L 44.1919,0.9820 L 43.2099,0.9820 Z" stroke-width="1px" stroke="#8C8C8C" fill="#8C8C8C"/>
          <path clip-path="url(#clip-474613996)" d="M 44.1919,0.9820 L 44.1919,144.3603 L 45.1740,144.3603 L 45.1740,0.9820 L 44.1919,0.9820 Z" stroke-width="1px" stroke="#8E8E8E" fill="#8E8E8E"/>
          <path clip-path="url(#clip-474613996)" d="M 45.1740,0.9820 L 45.1740,144.3603 L 46.1560,144.3603 L 46.1560,0.9820 L 45.1740,0.9820 Z" stroke-width="1px" stroke="#909090" fill="#909090"/>
          <path clip-path="url(#clip-474613996)" d="M 46.1560,0.9820 L 46.1560,144.3603 L 47.1381,144.3603 L 47.1381,0.9820 L 46.1560,0.9820 Z" stroke-width="1px" stroke="#929292" fill="#929292"/>
          <path clip-path="url(#clip-474613996)" d="M 47.1381,0.9820 L 47.1381,144.3603 L 48.1201,144.3603 L 48.1201,0.9820 L 47.1381,0.9820 Z" stroke-width="1px" stroke="#949494" fill="#949494"/>
          <path clip-path="url(#clip-474613996)" d="M 48.1201,0.9820 L 48.1201,144.3603 L 49.1021,144.3603 L 49.1021,0.9820 L 48.1201,0.9820 Z" stroke-width="1px" stroke="#979797" fill="#979797"/>
          <path clip-path="url(#clip-474613996)" d="M 49.1021,0.9820 L 49.1021,144.3603 L 50.0842,144.3603 L 50.0842,0.9820 L 49.1021,0.9820 Z" stroke-width="1px" stroke="#999999" fill="#999999"/>
          <path clip-path="url(#clip-474613996)" d="M 50.0842,0.9820 L 50.0842,144.3603 L 51.0662,144.3603 L 51.0662,0.9820 L 50.0842,0.9820 Z" stroke-width="1px" stroke="#9C9C9C" fill="#9C9C9C"/>
          <path clip-path="url(#clip-474613996)" d="M 51.0662,0.9820 L 51.0662,144.3603 L 52.0483,144.3603 L 52.0483,0.9820 L 51.0662,0.9820 Z" stroke-width="1px" stroke="#9E9E9E" fill="#9E9E9E"/>
          <path clip-path="url(#clip-474613996)" d="M 52.0483,0.9820 L 52.0483,144.3603 L 53.0303,144.3603 L 53.0303,0.9820 L 52.0483,0.9820 Z" stroke-width="1px" stroke="#A0A0A0" fill="#A0A0A0"/>
          <path clip-path="url(#clip-474613996)" d="M 53.0303,0.9820 L 53.0303,144.3603 L 54.0124,144.3603 L 54.0124,0.9820 L 53.0303,0.9820 Z" stroke-width="1px" stroke="#A2A2A2" fill="#A2A2A2"/>
          <path clip-path="url(#clip-474613996)" d="M 54.0124,0.9820 L 54.0124,144.3603 L 54.9944,144.3603 L 54.9944,0.9820 L 54.0124,0.9820 Z" stroke-width="1px" stroke="#A4A4A4" fill="#A4A4A4"/>
          <path clip-path="url(#clip-474613996)" d="M 54.9944,0.9820 L 54.9944,144.3603 L 55.9764,144.3603 L 55.9764,0.9820 L 54.9944,0.9820 Z" stroke-width="1px" stroke="#A7A7A7" fill="#A7A7A7"/>
          <path clip-path="url(#clip-474613996)" d="M 55.9764,0.9820 L 55.9764,144.3603 L 56.9585,144.3603 L 56.9585,0.9820 L 55.9764,0.9820 Z" stroke-width="1px" stroke="#A9A9A9" fill="#A9A9A9"/>
          <path clip-path="url(#clip-474613996)" d="M 56.9585,0.9820 L 56.9585,144.3603 L 57.9405,144.3603 L 57.9405,0.9820 L 56.9585,0.9820 Z" stroke-width="1px" stroke="#ABABAB" fill="#ABABAB"/>
          <path clip-path="url(#clip-474613996)" d="M 57.9405,0.9820 L 57.9405,144.3603 L 58.9226,144.3603 L 58.9226,0.9820 L 57.9405,0.9820 Z" stroke-width="1px" stroke="#AEAEAE" fill="#AEAEAE"/>
          <path clip-path="url(#clip-474613996)" d="M 58.9226,0.9820 L 58.9226,144.3603 L 59.9046,144.3603 L 59.9046,0.9820 L 58.9226,0.9820 Z" stroke-width="1px" stroke="#B0B0B0" fill="#B0B0B0"/>
          <path clip-path="url(#clip-474613996)" d="M 59.9046,0.9820 L 59.9046,144.3603 L 60.8867,144.3603 L 60.8867,0.9820 L 59.9046,0.9820 Z" stroke-width="1px" stroke="#B2B2B2" fill="#B2B2B2"/>
        </g>
        <g transform="matrix(0.0625 0.0000 0.0000 0.0625 0.0000 0.0000)">
          <path d="M 59.9046,0.9820 M 129.6297,2237.0938 C 406.5658,2297.9805 691.3582,2297.9805 968.2944,2237.0938 C 968.2944,1497.6155 968.2944,758.1372 968.2944,18.6588 C 688.4121,18.6588 409.5119,18.6588 129.6297,18.6588 C 129.6297,758.1372 129.6297,1497.6155 129.6297,2237.0938 " stroke="#0054A6" stroke-width="11.7845" stroke-linecap="round" stroke-linejoin="round" fill="none"/>
        </g>
        <g transform="matrix(1.0000 0.0000 0.0000 1.0000 0.0000 0.0000)">
</g>
        <g transform="matrix(0.0625 0.0000 0.0000 0.0625 0.0000 0.0000)">
          <path d="M 548.9620,116.8631 C 780.7241,116.8631 968.2944,18.6588 968.2944,18.6588 L 129.6297,18.6588 C 129.6297,18.6588 317.1999,116.8631 548.9620,116.8631 Z " fill="#999999" stroke="none"/>
        </g>
        <g transform="matrix(1.0000 0.0000 0.0000 1.0000 0.0000 0.0000)">
</g>
        <g transform="matrix(0.0625 0.0000 0.0000 0.0625 0.0000 0.0000)">
          <path d="M 548.9620,116.8631 C 780.7241,116.8631 968.2944,18.6588 968.2944,18.6588 L 129.6297,18.6588 C 129.6297,18.6588 317.1999,116.8631 548.9620,116.8631 Z " stroke="#0054A6" stroke-width="11.7845" stroke-linecap="round" stroke-linejoin="round" fill="none"/>
        </g>
        <g transform="matrix(1.0000 0.0000 0.0000 1.0000 0.0000 0.0000)">
</g>
        <g transform="matrix(0.0625 0.0000 0.0000 0.0625 0.0000 0.0000)">
          <path d="M 196.4086,1684.2037 L 196.4086,1760.8030 L 600.0282,1760.8030 L 600.0282,1684.2037 L 196.4086,1684.2037 Z" stroke-width="1px" stroke="#1A1A1A" fill="#1A1A1A"/>
        </g>
        <g transform="matrix(1.0000 0.0000 0.0000 1.0000 0.0000 0.0000)">
</g>
        <g transform="matrix(0.0625 0.0000 0.0000 0.0625 0.0000 0.0000)">
          <path d="M 196.4086,1560.4663 L 196.4086,1637.0656 L 600.0282,1637.0656 L 600.0282,1560.4663 L 196.4086,1560.4663 Z" stroke-width="1px" stroke="#1A1A1A" fill="#1A1A1A"/>
        </g>
        <g transform="matrix(1.0000 0.0000 0.0000 1.0000 0.0000 0.0000)">
</g>
        <g transform="matrix(0.0625 0.0000 0.0000 0.0625 0.0000 0.0000)">
          <path d="M 196.4086,1436.7288 L 196.4086,1513.3282 L 600.0282,1513.3282 L 600.0282,1436.7288 L 196.4086,1436.7288 Z" stroke-width="1px" stroke="#1A1A1A" fill="#1A1A1A"/>
        </g>
        <g transform="matrix(1.0000 0.0000 0.0000 1.0000 0.0000 0.0000)">
</g>
        <g transform="matrix(0.0625 0.0000 0.0000 0.0625 0.0000 0.0000)">
          <path d="M 196.4086,1312.9914 L 196.4086,1389.5908 L 600.0282,1389.5908 L 600.0282,1312.9914 L 196.4086,1312.9914 Z" stroke-width="1px" stroke="#1A1A1A" fill="#1A1A1A"/>
        </g>
        <g transform="matrix(1.0000 0.0000 0.0000 1.0000 0.0000 0.0000)">
</g>
        <g transform="matrix(0.0625 0.0000 0.0000 0.0625 0.0000 0.0000)">
          <path d="M 196.4086,1188.2720 L 196.4086,1264.8713 L 600.0282,1264.8713 L 600.0282,1188.2720 L 196.4086,1188.2720 Z" stroke-width="1px" stroke="#1A1A1A" fill="#1A1A1A"/>
        </g>
        <g transform="matrix(1.0000 0.0000 0.0000 1.0000 0.0000 0.0000)">
</g>
        <g transform="matrix(0.0625 0.0000 0.0000 0.0625 0.0000 0.0000)">
          <path d="M 196.4086,1064.5346 L 196.4086,1141.1339 L 600.0282,1141.1339 L 600.0282,1064.5346 L 196.4086,1064.5346 Z" stroke-width="1px" stroke="#1A1A1A" fill="#1A1A1A"/>
        </g>
        <g transform="matrix(1.0000 0.0000 0.0000 1.0000 0.0000 0.0000)">
</g>
        <g transform="matrix(0.0625 0.0000 0.0000 0.0625 0.0000 0.0000)">
          <path d="M 196.4086,940.7971 L 196.4086,1017.3965 L 600.0282,1017.3965 L 600.0282,940.7971 L 196.4086,940.7971 Z" stroke-width="1px" stroke="#1A1A1A" fill="#1A1A1A"/>
        </g>
        <g transform="matrix(1.0000 0.0000 0.0000 1.0000 0.0000 0.0000)">
          <path d="M 60.8867,140.4321 C 78.5634,144.3603 96.2402,144.3603 112.9349,140.4321 C 112.9349,94.2761 112.9349,48.1201 112.9349,1.9641 C 96.2402,1.9641 78.5634,1.9641 60.8867,1.9641 C 60.8867,48.1201 60.8867,94.2761 60.8867,140.4321 " fill="none" stroke="none"/>
          <defs>
            <clipPath id="clip-425245975">
              <path d="M 60.8867,140.4321 C 78.5634,144.3603 96.2402,144.3603 112.9349,140.4321 C 112.9349,94.2761 112.9349,48.1201 112.9349,1.9641 C 96.2402,1.9641 78.5634,1.9641 60.8867,1.9641 C 60.8867,48.1201 60.8867,94.2761 60.8867,140.4321 Z"/>
            </clipPath>
          </defs>
          <path clip-path="url(#clip-425245975)" d="M 59.9046,0.9820 L 59.9046,144.3603 L 60.8867,144.3603 L 60.8867,0.9820 L 59.9046,0.9820 Z" stroke-width="1px" stroke="#B2B2B2" fill="#B2B2B2"/>
          <path clip-path="url(#clip-425245975)" d="M 60.8867,0.9820 L 60.8867,144.3603 L 61.8687,144.3603 L 61.8687,0.9820 L 60.8867,0.9820 Z" stroke-width="1px" stroke="#3D3D3D" fill="#3D3D3D"/>
          <path clip-path="url(#clip-425245975)" d="M 61.8687,0.9820 L 61.8687,144.3603 L 62.8507,144.3603 L 62.8507,0.9820 L 61.8687,0.9820 Z" stroke-width="1px" stroke="#3F3F3F" fill="#3F3F3F"/>
          <path clip-path="url(#clip-425245975)" d="M 62.8507,0.9820 L 62.8507,144.3603 L 63.8328,144.3603 L 63.8328,0.9820 L 62.8507,0.9820 Z" stroke-width="1px" stroke="#414141" fill="#414141"/>
          <path clip-path="url(#clip-425245975)" d="M 63.8328,0.9820 L 63.8328,144.3603 L 64.8148,144.3603 L 64.8148,0.9820 L 63.8328,0.9820 Z" stroke-width="1px" stroke="#434343" fill="#434343"/>
          <path clip-path="url(#clip-425245975)" d="M 64.8148,0.9820 L 64.8148,144.3603 L 65.7969,144.3603 L 65.7969,0.9820 L 64.8148,0.9820 Z" stroke-width="1px" stroke="#464646" fill="#464646"/>
          <path clip-path="url(#clip-425245975)" d="M 65.7969,0.9820 L 65.7969,144.3603 L 66.7789,144.3603 L 66.7789,0.9820 L 65.7969,0.9820 Z" stroke-width="1px" stroke="#484848" fill="#484848"/>
          <path clip-path="url(#clip-425245975)" d="M 66.7789,0.9820 L 66.7789,144.3603 L 67.7610,144.3603 L 67.7610,0.9820 L 66.7789,0.9820 Z" stroke-width="1px" stroke="#4A4A4A" fill="#4A4A4A"/>
          <path clip-path="url(#clip-425245975)" d="M 67.7610,0.9820 L 67.7610,144.3603 L 68.7430,144.3603 L 68.7430,0.9820 L 67.7610,0.9820 Z" stroke-width="1px" stroke="#4D4D4D" fill="#4D4D4D"/>
          <path clip-path="url(#clip-425245975)" d="M 68.7430,0.9820 L 68.7430,144.3603 L 69.7250,144.3603 L 69.7250,0.9820 L 68.7430,0.9820 Z" stroke-width="1px" stroke="#4F4F4F" fill="#4F4F4F"/>
          <path clip-path="url(#clip-425245975)" d="M 69.7250,0.9820 L 69.7250,144.3603 L 70.7071,144.3603 L 70.7071,0.9820 L 69.7250,0.9820 Z" stroke-width="1px" stroke="#515151" fill="#515151"/>
          <path clip-path="url(#clip-425245975)" d="M 70.7071,0.9820 L 70.7071,144.3603 L 71.6891,144.3603 L 71.6891,0.9820 L 70.7071,0.9820 Z" stroke-width="1px" stroke="#535353" fill="#535353"/>
          <path clip-path="url(#clip-425245975)" d="M 71.6891,0.9820 L 71.6891,144.3603 L 72.6712,144.3603 L 72.6712,0.9820 L 71.6891,0.9820 Z" stroke-width="1px" stroke="#555555" fill="#555555"/>
          <path clip-path="url(#clip-425245975)" d="M 72.6712,0.9820 L 72.6712,144.3603 L 73.6532,144.3603 L 73.6532,0.9820 L 72.6712,0.9820 Z" stroke-width="1px" stroke="#585858" fill="#585858"/>
          <path clip-path="url(#clip-425245975)" d="M 73.6532,0.9820 L 73.6532,144.3603 L 74.6353,144.3603 L 74.6353,0.9820 L 73.6532,0.9820 Z" stroke-width="1px" stroke="#5A5A5A" fill="#5A5A5A"/>
          <path clip-path="url(#clip-425245975)" d="M 74.6353,0.9820 L 74.6353,144.3603 L 75.6173,144.3603 L 75.6173,0.9820 L 74.6353,0.9820 Z" stroke-width="1px" stroke="#5C5C5C" fill="#5C5C5C"/>
          <path clip-path="url(#clip-425245975)" d="M 75.6173,0.9820 L 75.6173,144.3603 L 76.5994,144.3603 L 76.5994,0.9820 L 75.6173,0.9820 Z" stroke-width="1px" stroke="#5E5E5E" fill="#5E5E5E"/>
          <path clip-path="url(#clip-425245975)" d="M 76.5994,0.9820 L 76.5994,144.3603 L 77.5814,144.3603 L 77.5814,0.9820 L 76.5994,0.9820 Z" stroke-width="1px" stroke="#606060" fill="#606060"/>
          <path clip-path="url(#clip-425245975)" d="M 77.5814,0.9820 L 77.5814,144.3603 L 78.5634,144.3603 L 78.5634,0.9820 L 77.5814,0.9820 Z" stroke-width="1px" stroke="#636363" fill="#636363"/>
          <path clip-path="url(#clip-425245975)" d="M 78.5634,0.9820 L 78.5634,144.3603 L 79.5455,144.3603 L 79.5455,0.9820 L 78.5634,0.9820 Z" stroke-width="1px" stroke="#656565" fill="#656565"/>
          <path clip-path="url(#clip-425245975)" d="M 79.5455,0.9820 L 79.5455,144.3603 L 80.5275,144.3603 L 80.5275,0.9820 L 79.5455,0.9820 Z" stroke-width="1px" stroke="#686868" fill="#686868"/>
          <path clip-path="url(#clip-425245975)" d="M 80.5275,0.9820 L 80.5275,144.3603 L 81.5096,144.3603 L 81.5096,0.9820 L 80.5275,0.9820 Z" stroke-width="1px" stroke="#6A6A6A" fill="#6A6A6A"/>
          <path clip-path="url(#clip-425245975)" d="M 81.5096,0.9820 L 81.5096,144.3603 L 82.4916,144.3603 L 82.4916,0.9820 L 81.5096,0.9820 Z" stroke-width="1px" stroke="#6C6C6C" fill="#6C6C6C"/>
          <path clip-path="url(#clip-425245975)" d="M 82.4916,0.9820 L 82.4916,144.3603 L 83.4737,144.3603 L 83.4737,0.9820 L 82.4916,0.9820 Z" stroke-width="1px" stroke="#6E6E6E" fill="#6E6E6E"/>
          <path clip-path="url(#clip-425245975)" d="M 83.4737,0.9820 L 83.4737,144.3603 L 84.4557,144.3603 L 84.4557,0.9820 L 83.4737,0.9820 Z" stroke-width="1px" stroke="#707070" fill="#707070"/>
          <path clip-path="url(#clip-425245975)" d="M 84.4557,0.9820 L 84.4557,144.3603 L 85.4377,144.3603 L 85.4377,0.9820 L 84.4557,0.9820 Z" stroke-width="1px" stroke="#737373" fill="#737373"/>
          <path clip-path="url(#clip-425245975)" d="M 85.4377,0.9820 L 85.4377,144.3603 L 86.4198,144.3603 L 86.4198,0.9820 L 85.4377,0.9820 Z" stroke-width="1px" stroke="#757575" fill="#757575"/>
          <path clip-path="url(#clip-425245975)" d="M 86.4198,0.9820 L 86.4198,144.3603 L 87.4018,144.3603 L 87.4018,0.9820 L 86.4198,0.9820 Z" stroke-width="1px" stroke="#777777" fill="#777777"/>
          <path clip-path="url(#clip-425245975)" d="M 87.4018,0.9820 L 87.4018,144.3603 L 88.3839,144.3603 L 88.3839,0.9820 L 87.4018,0.9820 Z" stroke-width="1px" stroke="#797979" fill="#797979"/>
          <path clip-path="url(#clip-425245975)" d="M 88.3839,0.9820 L 88.3839,144.3603 L 89.3659,144.3603 L 89.3659,0.9820 L 88.3839,0.9820 Z" stroke-width="1px" stroke="#7C7C7C" fill="#7C7C7C"/>
          <path clip-path="url(#clip-425245975)" d="M 89.3659,0.9820 L 89.3659,144.3603 L 90.3480,144.3603 L 90.3480,0.9820 L 89.3659,0.9820 Z" stroke-width="1px" stroke="#7E7E7E" fill="#7E7E7E"/>
          <path clip-path="url(#clip-425245975)" d="M 90.3480,0.9820 L 90.3480,144.3603 L 91.3300,144.3603 L 91.3300,0.9820 L 90.3480,0.9820 Z" stroke-width="1px" stroke="#808080" fill="#808080"/>
          <path clip-path="url(#clip-425245975)" d="M 91.3300,0.9820 L 91.3300,144.3603 L 92.3120,144.3603 L 92.3120,0.9820 L 91.3300,0.9820 Z" stroke-width="1px" stroke="#828282" fill="#828282"/>
          <path clip-path="url(#clip-425245975)" d="M 92.3120,0.9820 L 92.3120,144.3603 L 93.2941,144.3603 L 93.2941,0.9820 L 92.3120,0.9820 Z" stroke-width="1px" stroke="#848484" fill="#848484"/>
          <path clip-path="url(#clip-425245975)" d="M 93.2941,0.9820 L 93.2941,144.3603 L 94.2761,144.3603 L 94.2761,0.9820 L 93.2941,0.9820 Z" stroke-width="1px" stroke="#868686" fill="#868686"/>
          <path clip-path="url(#clip-425245975)" d="M 94.2761,0.9820 L 94.2761,144.3603 L 95.2582,144.3603 L 95.2582,0.9820 L 94.2761,0.9820 Z" stroke-width="1px" stroke="#898989" fill="#898989"/>
          <path clip-path="url(#clip-425245975)" d="M 95.2582,0.9820 L 95.2582,144.3603 L 96.2402,144.3603 L 96.2402,0.9820 L 95.2582,0.9820 Z" stroke-width="1px" stroke="#8B8B8B" fill="#8B8B8B"/>
          <path clip-path="url(#clip-425245975)" d="M 96.2402,0.9820 L 96.2402,144.3603 L 97.2223,144.3603 L 97.2223,0.9820 L 96.2402,0.9820 Z" stroke-width="1px" stroke="#8D8D8D" fill="#8D8D8D"/>
          <path clip-path="url(#clip-425245975)" d="M 97.2223,0.9820 L 97.2223,144.3603 L 98.2043,144.3603 L 98.2043,0.9820 L 97.2223,0.9820 Z" stroke-width="1px" stroke="#8F8F8F" fill="#8F8F8F"/>
          <path clip-path="url(#clip-425245975)" d="M 98.2043,0.9820 L 98.2043,144.3603 L 99.1863,144.3603 L 99.1863,0.9820 L 98.2043,0.9820 Z" stroke-width="1px" stroke="#929292" fill="#929292"/>
          <path clip-path="url(#clip-425245975)" d="M 99.1863,0.9820 L 99.1863,144.3603 L 100.1684,144.3603 L 100.1684,0.9820 L 99.1863,0.9820 Z" stroke-width="1px" stroke="#949494" fill="#949494"/>
          <path clip-path="url(#clip-425245975)" d="M 100.1684,0.9820 L 100.1684,144.3603 L 101.1504,144.3603 L 101.1504,0.9820 L 100.1684,0.9820 Z" stroke-width="1px" stroke="#969696" fill="#969696"/>
          <path clip-path="url(#clip-425245975)" d="M 101.1504,0.9820 L 101.1504,144.3603 L 102.1325,144.3603 L 102.1325,0.9820 L 101.1504,0.9820 Z" stroke-width="1px" stroke="#989898" fill="#989898"/>
          <path clip-path="url(#clip-425245975)" d="M 102.1325,0.9820 L 102.1325,144.3603 L 103.1145,144.3603 L 103.1145,0.9820 L 102.1325,0.9820 Z" stroke-width="1px" stroke="#9B9B9B" fill="#9B9B9B"/>
          <path clip-path="url(#clip-425245975)" d="M 103.1145,0.9820 L 103.1145,144.3603 L 104.0966,144.3603 L 104.0966,0.9820 L 103.1145,0.9820 Z" stroke-width="1px" stroke="#9D9D9D" fill="#9D9D9D"/>
          <path clip-path="url(#clip-425245975)" d="M 104.0966,0.9820 L 104.0966,144.3603 L 105.0786,144.3603 L 105.0786,0.9820 L 104.0966,0.9820 Z" stroke-width="1px" stroke="#9F9F9F" fill="#9F9F9F"/>
          <path clip-path="url(#clip-425245975)" d="M 105.0786,0.9820 L 105.0786,144.3603 L 106.0606,144.3603 L 106.0606,0.9820 L 105.0786,0.9820 Z" stroke-width="1px" stroke="#A1A1A1" fill="#A1A1A1"/>
          <path clip-path="url(#clip-425245975)" d="M 106.0606,0.9820 L 106.0606,144.3603 L 107.0427,144.3603 L 107.0427,0.9820 L 106.0606,0.9820 Z" stroke-width="1px" stroke="#A3A3A3" fill="#A3A3A3"/>
          <path clip-path="url(#clip-425245975)" d="M 107.0427,0.9820 L 107.0427,144.3603 L 108.0247,144.3603 L 108.0247,0.9820 L 107.0427,0.9820 Z" stroke-width="1px" stroke="#A6A6A6" fill="#A6A6A6"/>
          <path clip-path="url(#clip-425245975)" d="M 108.0247,0.9820 L 108.0247,144.3603 L 109.0068,144.3603 L 109.0068,0.9820 L 108.0247,0.9820 Z" stroke-width="1px" stroke="#A8A8A8" fill="#A8A8A8"/>
          <path clip-path="url(#clip-425245975)" d="M 109.0068,0.9820 L 109.0068,144.3603 L 109.9888,144.3603 L 109.9888,0.9820 L 109.0068,0.9820 Z" stroke-width="1px" stroke="#AAAAAA" fill="#AAAAAA"/>
          <path clip-path="url(#clip-425245975)" d="M 109.9888,0.9820 L 109.9888,144.3603 L 110.9709,144.3603 L 110.9709,0.9820 L 109.9888,0.9820 Z" stroke-width="1px" stroke="#ADADAD" fill="#ADADAD"/>
          <path clip-path="url(#clip-425245975)" d="M 110.9709,0.9820 L 110.9709,144.3603 L 111.9529,144.3603 L 111.9529,0.9820 L 110.9709,0.9820 Z" stroke-width="1px" stroke="#AFAFAF" fill="#AFAFAF"/>
          <path clip-path="url(#clip-425245975)" d="M 111.9529,0.9820 L 111.9529,144.3603 L 112.9349,144.3603 L 112.9349,0.9820 L 111.9529,0.9820 Z" stroke-width="1px" stroke="#B1B1B1" fill="#B1B1B1"/>
        </g>
        <g transform="matrix(0.0625 0.0000 0.0000 0.0625 0.0000 0.0000)">
          <path d="M 111.9529,0.9820 M 968.2944,2237.0938 C 1245.2305,2297.9805 1530.0229,2297.9805 1806.9590,2237.0938 C 1806.9590,1497.6155 1806.9590,758.1372 1806.9590,18.6588 C 1527.0768,18.6588 1248.1766,18.6588 968.2944,18.6588 C 968.2944,758.1372 968.2944,1497.6155 968.2944,2237.0938 " stroke="#0054A6" stroke-width="11.7845" stroke-linecap="round" stroke-linejoin="round" fill="none"/>
        </g>
        <g transform="matrix(1.0000 0.0000 0.0000 1.0000 0.0000 0.0000)">
</g>
        <g transform="matrix(0.0625 0.0000 0.0000 0.0625 0.0000 0.0000)">
          <path d="M 1387.6267,116.8631 C 1619.3888,116.8631 1806.9590,18.6588 1806.9590,18.6588 L 968.2944,18.6588 C 968.2944,18.6588 1155.8646,116.8631 1387.6267,116.8631 Z " fill="#999999" stroke="none"/>
        </g>
        <g transform="matrix(1.0000 0.0000 0.0000 1.0000 0.0000 0.0000)">
</g>
        <g transform="matrix(0.0625 0.0000 0.0000 0.0625 0.0000 0.0000)">
          <path d="M 1387.6267,116.8631 C 1619.3888,116.8631 1806.9590,18.6588 1806.9590,18.6588 L 968.2944,18.6588 C 968.2944,18.6588 1155.8646,116.8631 1387.6267,116.8631 Z " stroke="#0054A6" stroke-width="11.7845" stroke-linecap="round" stroke-linejoin="round" fill="none"/>
        </g>
        <g transform="matrix(1.0000 0.0000 0.0000 1.0000 0.0000 0.0000)">
</g>
        <g transform="matrix(0.0625 0.0000 0.0000 0.0625 0.0000 0.0000)">
          <path d="M 1035.0733,1684.2037 L 1035.0733,1760.8030 L 1438.6929,1760.8030 L 1438.6929,1684.2037 L 1035.0733,1684.2037 Z" stroke-width="1px" stroke="#1A1A1A" fill="#1A1A1A"/>
        </g>
        <g transform="matrix(1.0000 0.0000 0.0000 1.0000 0.0000 0.0000)">
</g>
        <g transform="matrix(0.0625 0.0000 0.0000 0.0625 0.0000 0.0000)">
          <path d="M 1035.0733,1560.4663 L 1035.0733,1637.0656 L 1438.6929,1637.0656 L 1438.6929,1560.4663 L 1035.0733,1560.4663 Z" stroke-width="1px" stroke="#1A1A1A" fill="#1A1A1A"/>
        </g>
        <g transform="matrix(1.0000 0.0000 0.0000 1.0000 0.0000 0.0000)">
</g>
        <g transform="matrix(0.0625 0.0000 0.0000 0.0625 0.0000 0.0000)">
          <path d="M 1035.0733,1436.7288 L 1035.0733,1513.3282 L 1438.6929,1513.3282 L 1438.6929,1436.7288 L 1035.0733,1436.7288 Z" stroke-width="1px" stroke="#1A1A1A" fill="#1A1A1A"/>
        </g>
        <g transform="matrix(1.0000 0.0000 0.0000 1.0000 0.0000 0.0000)">
</g>
        <g transform="matrix(0.0625 0.0000 0.0000 0.0625 0.0000 0.0000)">
          <path d="M 1035.0733,1312.9914 L 1035.0733,1389.5908 L 1438.6929,1389.5908 L 1438.6929,1312.9914 L 1035.0733,1312.9914 Z" stroke-width="1px" stroke="#1A1A1A" fill="#1A1A1A"/>
        </g>
        <g transform="matrix(1.0000 0.0000 0.0000 1.0000 0.0000 0.0000)">
</g>
        <g transform="matrix(0.0625 0.0000 0.0000 0.0625 0.0000 0.0000)">
          <path d="M 1035.0733,1188.2720 L 1035.0733,1264.8713 L 1438.6929,1264.8713 L 1438.6929,1188.2720 L 1035.0733,1188.2720 Z" stroke-width="1px" stroke="#1A1A1A" fill="#1A1A1A"/>
        </g>
        <g transform="matrix(1.0000 0.0000 0.0000 1.0000 0.0000 0.0000)">
</g>
        <g transform="matrix(0.0625 0.0000 0.0000 0.0625 0.0000 0.0000)">
          <path d="M 1035.0733,1064.5346 L 1035.0733,1141.1339 L 1438.6929,1141.1339 L 1438.6929,1064.5346 L 1035.0733,1064.5346 Z" stroke-width="1px" stroke="#1A1A1A" fill="#1A1A1A"/>
        </g>
        <g transform="matrix(1.0000 0.0000 0.0000 1.0000 0.0000 0.0000)">
</g>
        <g transform="matrix(0.0625 0.0000 0.0000 0.0625 0.0000 0.0000)">
          <path d="M 1035.0733,940.7971 L 1035.0733,1017.3965 L 1438.6929,1017.3965 L 1438.6929,940.7971 L 1035.0733,940.7971 Z" stroke-width="1px" stroke="#1A1A1A" fill="#1A1A1A"/>
        </g>
        <g transform="matrix(1.0000 0.0000 0.0000 1.0000 0.0000 0.0000)">
          <path d="M 112.9349,140.4321 C 130.6117,144.3603 148.2885,144.3603 165.9653,140.4321 C 165.9653,94.2761 165.9653,48.1201 165.9653,1.9641 C 148.2885,1.9641 130.6117,1.9641 112.9349,1.9641 C 112.9349,48.1201 112.9349,94.2761 112.9349,140.4321 " fill="none" stroke="none"/>
          <defs>
            <clipPath id="clip-1315209188">
              <path d="M 112.9349,140.4321 C 130.6117,144.3603 148.2885,144.3603 165.9653,140.4321 C 165.9653,94.2761 165.9653,48.1201 165.9653,1.9641 C 148.2885,1.9641 130.6117,1.9641 112.9349,1.9641 C 112.9349,48.1201 112.9349,94.2761 112.9349,140.4321 Z"/>
            </clipPath>
          </defs>
          <path clip-path="url(#clip-1315209188)" d="M 112.9349,0.9820 L 112.9349,144.3603 L 113.9170,144.3603 L 113.9170,0.9820 L 112.9349,0.9820 Z" stroke-width="1px" stroke="#3C3C3C" fill="#3C3C3C"/>
          <path clip-path="url(#clip-1315209188)" d="M 113.9170,0.9820 L 113.9170,144.3603 L 114.8990,144.3603 L 114.8990,0.9820 L 113.9170,0.9820 Z" stroke-width="1px" stroke="#3E3E3E" fill="#3E3E3E"/>
          <path clip-path="url(#clip-1315209188)" d="M 114.8990,0.9820 L 114.8990,144.3603 L 115.8811,144.3603 L 115.8811,0.9820 L 114.8990,0.9820 Z" stroke-width="1px" stroke="#404040" fill="#404040"/>
          <path clip-path="url(#clip-1315209188)" d="M 115.8811,0.9820 L 115.8811,144.3603 L 116.8631,144.3603 L 116.8631,0.9820 L 115.8811,0.9820 Z" stroke-width="1px" stroke="#424242" fill="#424242"/>
          <path clip-path="url(#clip-1315209188)" d="M 116.8631,0.9820 L 116.8631,144.3603 L 117.8452,144.3603 L 117.8452,0.9820 L 116.8631,0.9820 Z" stroke-width="1px" stroke="#454545" fill="#454545"/>
          <path clip-path="url(#clip-1315209188)" d="M 117.8452,0.9820 L 117.8452,144.3603 L 118.8272,144.3603 L 118.8272,0.9820 L 117.8452,0.9820 Z" stroke-width="1px" stroke="#474747" fill="#474747"/>
          <path clip-path="url(#clip-1315209188)" d="M 118.8272,0.9820 L 118.8272,144.3603 L 119.8092,144.3603 L 119.8092,0.9820 L 118.8272,0.9820 Z" stroke-width="1px" stroke="#494949" fill="#494949"/>
          <path clip-path="url(#clip-1315209188)" d="M 119.8092,0.9820 L 119.8092,144.3603 L 120.7913,144.3603 L 120.7913,0.9820 L 119.8092,0.9820 Z" stroke-width="1px" stroke="#4C4C4C" fill="#4C4C4C"/>
          <path clip-path="url(#clip-1315209188)" d="M 120.7913,0.9820 L 120.7913,144.3603 L 121.7733,144.3603 L 121.7733,0.9820 L 120.7913,0.9820 Z" stroke-width="1px" stroke="#4E4E4E" fill="#4E4E4E"/>
          <path clip-path="url(#clip-1315209188)" d="M 121.7733,0.9820 L 121.7733,144.3603 L 122.7554,144.3603 L 122.7554,0.9820 L 121.7733,0.9820 Z" stroke-width="1px" stroke="#505050" fill="#505050"/>
          <path clip-path="url(#clip-1315209188)" d="M 122.7554,0.9820 L 122.7554,144.3603 L 123.7374,144.3603 L 123.7374,0.9820 L 122.7554,0.9820 Z" stroke-width="1px" stroke="#525252" fill="#525252"/>
          <path clip-path="url(#clip-1315209188)" d="M 123.7374,0.9820 L 123.7374,144.3603 L 124.7195,144.3603 L 124.7195,0.9820 L 123.7374,0.9820 Z" stroke-width="1px" stroke="#545454" fill="#545454"/>
          <path clip-path="url(#clip-1315209188)" d="M 124.7195,0.9820 L 124.7195,144.3603 L 125.7015,144.3603 L 125.7015,0.9820 L 124.7195,0.9820 Z" stroke-width="1px" stroke="#575757" fill="#575757"/>
          <path clip-path="url(#clip-1315209188)" d="M 125.7015,0.9820 L 125.7015,144.3603 L 126.6835,144.3603 L 126.6835,0.9820 L 125.7015,0.9820 Z" stroke-width="1px" stroke="#595959" fill="#595959"/>
          <path clip-path="url(#clip-1315209188)" d="M 126.6835,0.9820 L 126.6835,144.3603 L 127.6656,144.3603 L 127.6656,0.9820 L 126.6835,0.9820 Z" stroke-width="1px" stroke="#5B5B5B" fill="#5B5B5B"/>
          <path clip-path="url(#clip-1315209188)" d="M 127.6656,0.9820 L 127.6656,144.3603 L 128.6476,144.3603 L 128.6476,0.9820 L 127.6656,0.9820 Z" stroke-width="1px" stroke="#5E5E5E" fill="#5E5E5E"/>
          <path clip-path="url(#clip-1315209188)" d="M 128.6476,0.9820 L 128.6476,144.3603 L 129.6297,144.3603 L 129.6297,0.9820 L 128.6476,0.9820 Z" stroke-width="1px" stroke="#606060" fill="#606060"/>
          <path clip-path="url(#clip-1315209188)" d="M 129.6297,0.9820 L 129.6297,144.3603 L 130.6117,144.3603 L 130.6117,0.9820 L 129.6297,0.9820 Z" stroke-width="1px" stroke="#626262" fill="#626262"/>
          <path clip-path="url(#clip-1315209188)" d="M 130.6117,0.9820 L 130.6117,144.3603 L 131.5938,144.3603 L 131.5938,0.9820 L 130.6117,0.9820 Z" stroke-width="1px" stroke="#646464" fill="#646464"/>
          <path clip-path="url(#clip-1315209188)" d="M 131.5938,0.9820 L 131.5938,144.3603 L 132.5758,144.3603 L 132.5758,0.9820 L 131.5938,0.9820 Z" stroke-width="1px" stroke="#676767" fill="#676767"/>
          <path clip-path="url(#clip-1315209188)" d="M 132.5758,0.9820 L 132.5758,144.3603 L 133.5578,144.3603 L 133.5578,0.9820 L 132.5758,0.9820 Z" stroke-width="1px" stroke="#696969" fill="#696969"/>
          <path clip-path="url(#clip-1315209188)" d="M 133.5578,0.9820 L 133.5578,144.3603 L 134.5399,144.3603 L 134.5399,0.9820 L 133.5578,0.9820 Z" stroke-width="1px" stroke="#6B6B6B" fill="#6B6B6B"/>
          <path clip-path="url(#clip-1315209188)" d="M 134.5399,0.9820 L 134.5399,144.3603 L 135.5219,144.3603 L 135.5219,0.9820 L 134.5399,0.9820 Z" stroke-width="1px" stroke="#6D6D6D" fill="#6D6D6D"/>
          <path clip-path="url(#clip-1315209188)" d="M 135.5219,0.9820 L 135.5219,144.3603 L 136.5040,144.3603 L 136.5040,0.9820 L 135.5219,0.9820 Z" stroke-width="1px" stroke="#6F6F6F" fill="#6F6F6F"/>
          <path clip-path="url(#clip-1315209188)" d="M 136.5040,0.9820 L 136.5040,144.3603 L 137.4860,144.3603 L 137.4860,0.9820 L 136.5040,0.9820 Z" stroke-width="1px" stroke="#727272" fill="#727272"/>
          <path clip-path="url(#clip-1315209188)" d="M 137.4860,0.9820 L 137.4860,144.3603 L 138.4681,144.3603 L 138.4681,0.9820 L 137.4860,0.9820 Z" stroke-width="1px" stroke="#747474" fill="#747474"/>
          <path clip-path="url(#clip-1315209188)" d="M 138.4681,0.9820 L 138.4681,144.3603 L 139.4501,144.3603 L 139.4501,0.9820 L 138.4681,0.9820 Z" stroke-width="1px" stroke="#767676" fill="#767676"/>
          <path clip-path="url(#clip-1315209188)" d="M 139.4501,0.9820 L 139.4501,144.3603 L 140.4321,144.3603 L 140.4321,0.9820 L 139.4501,0.9820 Z" stroke-width="1px" stroke="#797979" fill="#797979"/>
          <path clip-path="url(#clip-1315209188)" d="M 140.4321,0.9820 L 140.4321,144.3603 L 141.4142,144.3603 L 141.4142,0.9820 L 140.4321,0.9820 Z" stroke-width="1px" stroke="#7B7B7B" fill="#7B7B7B"/>
          <path clip-path="url(#clip-1315209188)" d="M 141.4142,0.9820 L 141.4142,144.3603 L 142.3962,144.3603 L 142.3962,0.9820 L 141.4142,0.9820 Z" stroke-width="1px" stroke="#7D7D7D" fill="#7D7D7D"/>
          <path clip-path="url(#clip-1315209188)" d="M 142.3962,0.9820 L 142.3962,144.3603 L 143.3783,144.3603 L 143.3783,0.9820 L 142.3962,0.9820 Z" stroke-width="1px" stroke="#7F7F7F" fill="#7F7F7F"/>
          <path clip-path="url(#clip-1315209188)" d="M 143.3783,0.9820 L 143.3783,144.3603 L 144.3603,144.3603 L 144.3603,0.9820 L 143.3783,0.9820 Z" stroke-width="1px" stroke="#818181" fill="#818181"/>
          <path clip-path="url(#clip-1315209188)" d="M 144.3603,0.9820 L 144.3603,144.3603 L 145.3424,144.3603 L 145.3424,0.9820 L 144.3603,0.9820 Z" stroke-width="1px" stroke="#838383" fill="#838383"/>
          <path clip-path="url(#clip-1315209188)" d="M 145.3424,0.9820 L 145.3424,144.3603 L 146.3244,144.3603 L 146.3244,0.9820 L 145.3424,0.9820 Z" stroke-width="1px" stroke="#858585" fill="#858585"/>
          <path clip-path="url(#clip-1315209188)" d="M 146.3244,0.9820 L 146.3244,144.3603 L 147.3064,144.3603 L 147.3064,0.9820 L 146.3244,0.9820 Z" stroke-width="1px" stroke="#888888" fill="#888888"/>
          <path clip-path="url(#clip-1315209188)" d="M 147.3064,0.9820 L 147.3064,144.3603 L 148.2885,144.3603 L 148.2885,0.9820 L 147.3064,0.9820 Z" stroke-width="1px" stroke="#8A8A8A" fill="#8A8A8A"/>
          <path clip-path="url(#clip-1315209188)" d="M 148.2885,0.9820 L 148.2885,144.3603 L 149.2705,144.3603 L 149.2705,0.9820 L 148.2885,0.9820 Z" stroke-width="1px" stroke="#8C8C8C" fill="#8C8C8C"/>
          <path clip-path="url(#clip-1315209188)" d="M 149.2705,0.9820 L 149.2705,144.3603 L 150.2526,144.3603 L 150.2526,0.9820 L 149.2705,0.9820 Z" stroke-width="1px" stroke="#8F8F8F" fill="#8F8F8F"/>
          <path clip-path="url(#clip-1315209188)" d="M 150.2526,0.9820 L 150.2526,144.3603 L 151.2346,144.3603 L 151.2346,0.9820 L 150.2526,0.9820 Z" stroke-width="1px" stroke="#919191" fill="#919191"/>
          <path clip-path="url(#clip-1315209188)" d="M 151.2346,0.9820 L 151.2346,144.3603 L 152.2167,144.3603 L 152.2167,0.9820 L 151.2346,0.9820 Z" stroke-width="1px" stroke="#939393" fill="#939393"/>
          <path clip-path="url(#clip-1315209188)" d="M 152.2167,0.9820 L 152.2167,144.3603 L 153.1987,144.3603 L 153.1987,0.9820 L 152.2167,0.9820 Z" stroke-width="1px" stroke="#959595" fill="#959595"/>
          <path clip-path="url(#clip-1315209188)" d="M 153.1987,0.9820 L 153.1987,144.3603 L 154.1807,144.3603 L 154.1807,0.9820 L 153.1987,0.9820 Z" stroke-width="1px" stroke="#979797" fill="#979797"/>
          <path clip-path="url(#clip-1315209188)" d="M 154.1807,0.9820 L 154.1807,144.3603 L 155.1628,144.3603 L 155.1628,0.9820 L 154.1807,0.9820 Z" stroke-width="1px" stroke="#9A9A9A" fill="#9A9A9A"/>
          <path clip-path="url(#clip-1315209188)" d="M 155.1628,0.9820 L 155.1628,144.3603 L 156.1448,144.3603 L 156.1448,0.9820 L 155.1628,0.9820 Z" stroke-width="1px" stroke="#9C9C9C" fill="#9C9C9C"/>
          <path clip-path="url(#clip-1315209188)" d="M 156.1448,0.9820 L 156.1448,144.3603 L 157.1269,144.3603 L 157.1269,0.9820 L 156.1448,0.9820 Z" stroke-width="1px" stroke="#9E9E9E" fill="#9E9E9E"/>
          <path clip-path="url(#clip-1315209188)" d="M 157.1269,0.9820 L 157.1269,144.3603 L 158.1089,144.3603 L 158.1089,0.9820 L 157.1269,0.9820 Z" stroke-width="1px" stroke="#A0A0A0" fill="#A0A0A0"/>
          <path clip-path="url(#clip-1315209188)" d="M 158.1089,0.9820 L 158.1089,144.3603 L 159.0910,144.3603 L 159.0910,0.9820 L 158.1089,0.9820 Z" stroke-width="1px" stroke="#A3A3A3" fill="#A3A3A3"/>
          <path clip-path="url(#clip-1315209188)" d="M 159.0910,0.9820 L 159.0910,144.3603 L 160.0730,144.3603 L 160.0730,0.9820 L 159.0910,0.9820 Z" stroke-width="1px" stroke="#A5A5A5" fill="#A5A5A5"/>
          <path clip-path="url(#clip-1315209188)" d="M 160.0730,0.9820 L 160.0730,144.3603 L 161.0550,144.3603 L 161.0550,0.9820 L 160.0730,0.9820 Z" stroke-width="1px" stroke="#A7A7A7" fill="#A7A7A7"/>
          <path clip-path="url(#clip-1315209188)" d="M 161.0550,0.9820 L 161.0550,144.3603 L 162.0371,144.3603 L 162.0371,0.9820 L 161.0550,0.9820 Z" stroke-width="1px" stroke="#AAAAAA" fill="#AAAAAA"/>
          <path clip-path="url(#clip-1315209188)" d="M 162.0371,0.9820 L 162.0371,144.3603 L 163.0191,144.3603 L 163.0191,0.9820 L 162.0371,0.9820 Z" stroke-width="1px" stroke="#ACACAC" fill="#ACACAC"/>
          <path clip-path="url(#clip-1315209188)" d="M 163.0191,0.9820 L 163.0191,144.3603 L 164.0012,144.3603 L 164.0012,0.9820 L 163.0191,0.9820 Z" stroke-width="1px" stroke="#AEAEAE" fill="#AEAEAE"/>
          <path clip-path="url(#clip-1315209188)" d="M 164.0012,0.9820 L 164.0012,144.3603 L 164.9832,144.3603 L 164.9832,0.9820 L 164.0012,0.9820 Z" stroke-width="1px" stroke="#B0B0B0" fill="#B0B0B0"/>
          <path clip-path="url(#clip-1315209188)" d="M 164.9832,0.9820 L 164.9832,144.3603 L 165.9653,144.3603 L 165.9653,0.9820 L 164.9832,0.9820 Z" stroke-width="1px" stroke="#B2B2B2" fill="#B2B2B2"/>
        </g>
        <g transform="matrix(0.0625 0.0000 0.0000 0.0625 0.0000 0.0000)">
          <path d="M 164.9832,0.9820 M 1806.9590,2237.0938 C 2083.8951,2297.9805 2368.6876,2297.9805 2645.6237,2237.0938 C 2645.6237,1497.6155 2645.6237,758.1372 2645.6237,18.6588 C 2365.7415,18.6588 2086.8413,18.6588 1806.9590,18.6588 C 1806.9590,758.1372 1806.9590,1497.6155 1806.9590,2237.0938 " stroke="#0054A6" stroke-width="11.7845" stroke-linecap="round" stroke-linejoin="round" fill="none"/>
        </g>
        <g transform="matrix(1.0000 0.0000 0.0000 1.0000 0.0000 0.0000)">
</g>
        <g transform="matrix(0.0625 0.0000 0.0000 0.0625 0.0000 0.0000)">
          <path d="M 2226.2914,116.8631 C 2458.0535,116.8631 2645.6237,18.6588 2645.6237,18.6588 L 1806.9590,18.6588 C 1806.9590,18.6588 1994.5292,116.8631 2226.2914,116.8631 Z " fill="#999999" stroke="none"/>
        </g>
        <g transform="matrix(1.0000 0.0000 0.0000 1.0000 0.0000 0.0000)">
</g>
        <g transform="matrix(0.0625 0.0000 0.0000 0.0625 0.0000 0.0000)">
          <path d="M 2226.2914,116.8631 C 2458.0535,116.8631 2645.6237,18.6588 2645.6237,18.6588 L 1806.9590,18.6588 C 1806.9590,18.6588 1994.5292,116.8631 2226.2914,116.8631 Z " stroke="#0054A6" stroke-width="11.7845" stroke-linecap="round" stroke-linejoin="round" fill="none"/>
        </g>
        <g transform="matrix(1.0000 0.0000 0.0000 1.0000 0.0000 0.0000)">
</g>
        <g transform="matrix(0.0625 0.0000 0.0000 0.0625 0.0000 0.0000)">
          <path d="M 2459.0356,272.0259 L 2459.0356,357.4636 L 2591.6114,357.4636 L 2591.6114,272.0259 L 2459.0356,272.0259 Z" stroke-width="1px" stroke="#1A1A1A" fill="#1A1A1A"/>
        </g>
        <g transform="matrix(1.0000 0.0000 0.0000 1.0000 0.0000 0.0000)">
</g>
        <g transform="matrix(0.0625 0.0000 0.0000 0.0625 0.0000 0.0000)">
          <path d="M 2459.0356,390.8531 L 2459.0356,836.7006 L 2591.6114,836.7006 L 2591.6114,390.8531 L 2459.0356,390.8531 Z" stroke-width="1px" stroke="#1A1A1A" fill="#1A1A1A"/>
        </g>
        <g transform="matrix(1.0000 0.0000 0.0000 1.0000 0.0000 0.0000)">
</g>
        <g transform="matrix(0.0625 0.0000 0.0000 0.0625 0.0000 0.0000)">
          <path d="M 1873.7380,1684.2037 L 1873.7380,1760.8030 L 2278.3397,1760.8030 L 2278.3397,1684.2037 L 1873.7380,1684.2037 Z" stroke-width="1px" stroke="#1A1A1A" fill="#1A1A1A"/>
        </g>
        <g transform="matrix(1.0000 0.0000 0.0000 1.0000 0.0000 0.0000)">
</g>
        <g transform="matrix(0.0625 0.0000 0.0000 0.0625 0.0000 0.0000)">
          <path d="M 1873.7380,1560.4663 L 1873.7380,1637.0656 L 2278.3397,1637.0656 L 2278.3397,1560.4663 L 1873.7380,1560.4663 Z" stroke-width="1px" stroke="#1A1A1A" fill="#1A1A1A"/>
        </g>
        <g transform="matrix(1.0000 0.0000 0.0000 1.0000 0.0000 0.0000)">
</g>
        <g transform="matrix(0.0625 0.0000 0.0000 0.0625 0.0000 0.0000)">
          <path d="M 1873.7380,1436.7288 L 1873.7380,1513.3282 L 2278.3397,1513.3282 L 2278.3397,1436.7288 L 1873.7380,1436.7288 Z" stroke-width="1px" stroke="#1A1A1A" fill="#1A1A1A"/>
        </g>
        <g transform="matrix(1.0000 0.0000 0.0000 1.0000 0.0000 0.0000)">
</g>
        <g transform="matrix(0.0625 0.0000 0.0000 0.0625 0.0000 0.0000)">
          <path d="M 1873.7380,1312.9914 L 1873.7380,1389.5908 L 2278.3397,1389.5908 L 2278.3397,1312.9914 L 1873.7380,1312.9914 Z" stroke-width="1px" stroke="#1A1A1A" fill="#1A1A1A"/>
        </g>
        <g transform="matrix(1.0000 0.0000 0.0000 1.0000 0.0000 0.0000)">
</g>
        <g transform="matrix(0.0625 0.0000 0.0000 0.0625 0.0000 0.0000)">
          <path d="M 1873.7380,1188.2720 L 1873.7380,1264.8713 L 2278.3397,1264.8713 L 2278.3397,1188.2720 L 1873.7380,1188.2720 Z" stroke-width="1px" stroke="#1A1A1A" fill="#1A1A1A"/>
        </g>
        <g transform="matrix(1.0000 0.0000 0.0000 1.0000 0.0000 0.0000)">
</g>
        <g transform="matrix(0.0625 0.0000 0.0000 0.0625 0.0000 0.0000)">
          <path d="M 1873.7380,1064.5346 L 1873.7380,1141.1339 L 2278.3397,1141.1339 L 2278.3397,1064.5346 L 1873.7380,1064.5346 Z" stroke-width="1px" stroke="#1A1A1A" fill="#1A1A1A"/>
        </g>
        <g transform="matrix(1.0000 0.0000 0.0000 1.0000 0.0000 0.0000)">
</g>
        <g transform="matrix(0.0625 0.0000 0.0000 0.0625 0.0000 0.0000)">
          <path d="M 1873.7380,940.7971 L 1873.7380,1017.3965 L 2278.3397,1017.3965 L 2278.3397,940.7971 L 1873.7380,940.7971 Z" stroke-width="1px" stroke="#1A1A1A" fill="#1A1A1A"/>
        </g>
        <g transform="matrix(1.0000 0.0000 0.0000 1.0000 0.0000 0.0000)">
</g>
        <g transform="matrix(0.0625 0.0000 0.0000 0.0625 0.0000 0.0000)">
          <path d="M 2379.4901,149.2705 L 2379.4901,2132.9973 L 2423.6820,2132.9973 L 2423.6820,149.2705 L 2379.4901,149.2705 Z" stroke-width="1px" stroke="#1A1A1A" fill="#1A1A1A"/>
        </g>
        <g transform="matrix(1.0000 0.0000 0.0000 1.0000 0.0000 0.0000)">
</g>
      </g>
      <!--emf-blob end-->
    </g>
  </g>
</svg>
