<svg xmlns="http://www.w3.org/2000/svg" xmlns:xlink="http://www.w3.org/1999/xlink" version="1.1" width="56.6929000000" height="14.5134000000">
  <title><![CDATA[FAS200]]></title>
  <g transform=" scale(1.000000) ">
    <!--converted by libvisio2svg-->
    <g transform=" translate(-1.204700,-1.148000) ">
      <!--emf-blob start-->
      <g transform="translate(0.9339, 0.9339)">
        <defs>
          <clipPath id="clip-1804289383">
            <path d="M 4.6693,1.8677 L 54.1636,1.8677 L 54.1636,14.9417 L 4.6693,14.9417 L 4.6693,1.8677 Z Z"/>
          </clipPath>
        </defs>
        <path clip-path="url(#clip-1804289383)" d="M 3.7354,0.9339 L 3.7354,14.9417 L 4.6693,14.9417 L 4.6693,0.9339 L 3.7354,0.9339 Z" stroke-width="1px" stroke="#00B0D8" fill="#00B0D8"/>
        <path clip-path="url(#clip-1804289383)" d="M 4.6693,0.9339 L 4.6693,14.9417 L 5.6031,14.9417 L 5.6031,0.9339 L 4.6693,0.9339 Z" stroke-width="1px" stroke="#1263B2" fill="#1263B2"/>
        <path clip-path="url(#clip-1804289383)" d="M 5.6031,0.9339 L 5.6031,14.9417 L 6.5370,14.9417 L 6.5370,0.9339 L 5.6031,0.9339 Z" stroke-width="1px" stroke="#1165B2" fill="#1165B2"/>
        <path clip-path="url(#clip-1804289383)" d="M 6.5370,0.9339 L 6.5370,14.9417 L 7.4708,14.9417 L 7.4708,0.9339 L 6.5370,0.9339 Z" stroke-width="1px" stroke="#1166B3" fill="#1166B3"/>
        <path clip-path="url(#clip-1804289383)" d="M 7.4708,0.9339 L 7.4708,14.9417 L 8.4047,14.9417 L 8.4047,0.9339 L 7.4708,0.9339 Z" stroke-width="1px" stroke="#1168B3" fill="#1168B3"/>
        <path clip-path="url(#clip-1804289383)" d="M 8.4047,0.9339 L 8.4047,14.9417 L 9.3386,14.9417 L 9.3386,0.9339 L 8.4047,0.9339 Z" stroke-width="1px" stroke="#1169B4" fill="#1169B4"/>
        <path clip-path="url(#clip-1804289383)" d="M 9.3386,0.9339 L 9.3386,14.9417 L 10.2724,14.9417 L 10.2724,0.9339 L 9.3386,0.9339 Z" stroke-width="1px" stroke="#106BB5" fill="#106BB5"/>
        <path clip-path="url(#clip-1804289383)" d="M 10.2724,0.9339 L 10.2724,14.9417 L 11.2063,14.9417 L 11.2063,0.9339 L 10.2724,0.9339 Z" stroke-width="1px" stroke="#106CB6" fill="#106CB6"/>
        <path clip-path="url(#clip-1804289383)" d="M 11.2063,0.9339 L 11.2063,14.9417 L 12.1401,14.9417 L 12.1401,0.9339 L 11.2063,0.9339 Z" stroke-width="1px" stroke="#106EB7" fill="#106EB7"/>
        <path clip-path="url(#clip-1804289383)" d="M 12.1401,0.9339 L 12.1401,14.9417 L 13.0740,14.9417 L 13.0740,0.9339 L 12.1401,0.9339 Z" stroke-width="1px" stroke="#0F6FB7" fill="#0F6FB7"/>
        <path clip-path="url(#clip-1804289383)" d="M 13.0740,0.9339 L 13.0740,14.9417 L 14.0078,14.9417 L 14.0078,0.9339 L 13.0740,0.9339 Z" stroke-width="1px" stroke="#0F71B8" fill="#0F71B8"/>
        <path clip-path="url(#clip-1804289383)" d="M 14.0078,0.9339 L 14.0078,14.9417 L 14.9417,14.9417 L 14.9417,0.9339 L 14.0078,0.9339 Z" stroke-width="1px" stroke="#0F72B9" fill="#0F72B9"/>
        <path clip-path="url(#clip-1804289383)" d="M 14.9417,0.9339 L 14.9417,14.9417 L 15.8755,14.9417 L 15.8755,0.9339 L 14.9417,0.9339 Z" stroke-width="1px" stroke="#0E74BA" fill="#0E74BA"/>
        <path clip-path="url(#clip-1804289383)" d="M 15.8755,0.9339 L 15.8755,14.9417 L 16.8094,14.9417 L 16.8094,0.9339 L 15.8755,0.9339 Z" stroke-width="1px" stroke="#0E75BA" fill="#0E75BA"/>
        <path clip-path="url(#clip-1804289383)" d="M 16.8094,0.9339 L 16.8094,14.9417 L 17.7433,14.9417 L 17.7433,0.9339 L 16.8094,0.9339 Z" stroke-width="1px" stroke="#0E77BB" fill="#0E77BB"/>
        <path clip-path="url(#clip-1804289383)" d="M 17.7433,0.9339 L 17.7433,14.9417 L 18.6771,14.9417 L 18.6771,0.9339 L 17.7433,0.9339 Z" stroke-width="1px" stroke="#0D78BC" fill="#0D78BC"/>
        <path clip-path="url(#clip-1804289383)" d="M 18.6771,0.9339 L 18.6771,14.9417 L 19.6110,14.9417 L 19.6110,0.9339 L 18.6771,0.9339 Z" stroke-width="1px" stroke="#0D79BC" fill="#0D79BC"/>
        <path clip-path="url(#clip-1804289383)" d="M 19.6110,0.9339 L 19.6110,14.9417 L 20.5448,14.9417 L 20.5448,0.9339 L 19.6110,0.9339 Z" stroke-width="1px" stroke="#0C7ABD" fill="#0C7ABD"/>
        <path clip-path="url(#clip-1804289383)" d="M 20.5448,0.9339 L 20.5448,14.9417 L 21.4787,14.9417 L 21.4787,0.9339 L 20.5448,0.9339 Z" stroke-width="1px" stroke="#0C7CBE" fill="#0C7CBE"/>
        <path clip-path="url(#clip-1804289383)" d="M 21.4787,0.9339 L 21.4787,14.9417 L 22.4125,14.9417 L 22.4125,0.9339 L 21.4787,0.9339 Z" stroke-width="1px" stroke="#0B7DBF" fill="#0B7DBF"/>
        <path clip-path="url(#clip-1804289383)" d="M 22.4125,0.9339 L 22.4125,14.9417 L 23.3464,14.9417 L 23.3464,0.9339 L 22.4125,0.9339 Z" stroke-width="1px" stroke="#0B7FC0" fill="#0B7FC0"/>
        <path clip-path="url(#clip-1804289383)" d="M 23.3464,0.9339 L 23.3464,14.9417 L 24.2802,14.9417 L 24.2802,0.9339 L 23.3464,0.9339 Z" stroke-width="1px" stroke="#0B80C0" fill="#0B80C0"/>
        <path clip-path="url(#clip-1804289383)" d="M 24.2802,0.9339 L 24.2802,14.9417 L 25.2141,14.9417 L 25.2141,0.9339 L 24.2802,0.9339 Z" stroke-width="1px" stroke="#0A82C1" fill="#0A82C1"/>
        <path clip-path="url(#clip-1804289383)" d="M 25.2141,0.9339 L 25.2141,14.9417 L 26.1480,14.9417 L 26.1480,0.9339 L 25.2141,0.9339 Z" stroke-width="1px" stroke="#0A83C2" fill="#0A83C2"/>
        <path clip-path="url(#clip-1804289383)" d="M 26.1480,0.9339 L 26.1480,14.9417 L 27.0818,14.9417 L 27.0818,0.9339 L 26.1480,0.9339 Z" stroke-width="1px" stroke="#0A84C2" fill="#0A84C2"/>
        <path clip-path="url(#clip-1804289383)" d="M 27.0818,0.9339 L 27.0818,14.9417 L 28.0157,14.9417 L 28.0157,0.9339 L 27.0818,0.9339 Z" stroke-width="1px" stroke="#0A86C3" fill="#0A86C3"/>
        <path clip-path="url(#clip-1804289383)" d="M 28.0157,0.9339 L 28.0157,14.9417 L 28.9495,14.9417 L 28.9495,0.9339 L 28.0157,0.9339 Z" stroke-width="1px" stroke="#0987C4" fill="#0987C4"/>
        <path clip-path="url(#clip-1804289383)" d="M 28.9495,0.9339 L 28.9495,14.9417 L 29.8834,14.9417 L 29.8834,0.9339 L 28.9495,0.9339 Z" stroke-width="1px" stroke="#0989C5" fill="#0989C5"/>
        <path clip-path="url(#clip-1804289383)" d="M 29.8834,0.9339 L 29.8834,14.9417 L 30.8172,14.9417 L 30.8172,0.9339 L 29.8834,0.9339 Z" stroke-width="1px" stroke="#098AC6" fill="#098AC6"/>
        <path clip-path="url(#clip-1804289383)" d="M 30.8172,0.9339 L 30.8172,14.9417 L 31.7511,14.9417 L 31.7511,0.9339 L 30.8172,0.9339 Z" stroke-width="1px" stroke="#088CC6" fill="#088CC6"/>
        <path clip-path="url(#clip-1804289383)" d="M 31.7511,0.9339 L 31.7511,14.9417 L 32.6849,14.9417 L 32.6849,0.9339 L 31.7511,0.9339 Z" stroke-width="1px" stroke="#088DC7" fill="#088DC7"/>
        <path clip-path="url(#clip-1804289383)" d="M 32.6849,0.9339 L 32.6849,14.9417 L 33.6188,14.9417 L 33.6188,0.9339 L 32.6849,0.9339 Z" stroke-width="1px" stroke="#088FC7" fill="#088FC7"/>
        <path clip-path="url(#clip-1804289383)" d="M 33.6188,0.9339 L 33.6188,14.9417 L 34.5527,14.9417 L 34.5527,0.9339 L 33.6188,0.9339 Z" stroke-width="1px" stroke="#0890C8" fill="#0890C8"/>
        <path clip-path="url(#clip-1804289383)" d="M 34.5527,0.9339 L 34.5527,14.9417 L 35.4865,14.9417 L 35.4865,0.9339 L 34.5527,0.9339 Z" stroke-width="1px" stroke="#0792C9" fill="#0792C9"/>
        <path clip-path="url(#clip-1804289383)" d="M 35.4865,0.9339 L 35.4865,14.9417 L 36.4204,14.9417 L 36.4204,0.9339 L 35.4865,0.9339 Z" stroke-width="1px" stroke="#0793C9" fill="#0793C9"/>
        <path clip-path="url(#clip-1804289383)" d="M 36.4204,0.9339 L 36.4204,14.9417 L 37.3542,14.9417 L 37.3542,0.9339 L 36.4204,0.9339 Z" stroke-width="1px" stroke="#0795CA" fill="#0795CA"/>
        <path clip-path="url(#clip-1804289383)" d="M 37.3542,0.9339 L 37.3542,14.9417 L 38.2881,14.9417 L 38.2881,0.9339 L 37.3542,0.9339 Z" stroke-width="1px" stroke="#0696CB" fill="#0696CB"/>
        <path clip-path="url(#clip-1804289383)" d="M 38.2881,0.9339 L 38.2881,14.9417 L 39.2219,14.9417 L 39.2219,0.9339 L 38.2881,0.9339 Z" stroke-width="1px" stroke="#0698CC" fill="#0698CC"/>
        <path clip-path="url(#clip-1804289383)" d="M 39.2219,0.9339 L 39.2219,14.9417 L 40.1558,14.9417 L 40.1558,0.9339 L 39.2219,0.9339 Z" stroke-width="1px" stroke="#0699CD" fill="#0699CD"/>
        <path clip-path="url(#clip-1804289383)" d="M 40.1558,0.9339 L 40.1558,14.9417 L 41.0896,14.9417 L 41.0896,0.9339 L 40.1558,0.9339 Z" stroke-width="1px" stroke="#059BCD" fill="#059BCD"/>
        <path clip-path="url(#clip-1804289383)" d="M 41.0896,0.9339 L 41.0896,14.9417 L 42.0235,14.9417 L 42.0235,0.9339 L 41.0896,0.9339 Z" stroke-width="1px" stroke="#059CCE" fill="#059CCE"/>
        <path clip-path="url(#clip-1804289383)" d="M 42.0235,0.9339 L 42.0235,14.9417 L 42.9574,14.9417 L 42.9574,0.9339 L 42.0235,0.9339 Z" stroke-width="1px" stroke="#059ECE" fill="#059ECE"/>
        <path clip-path="url(#clip-1804289383)" d="M 42.9574,0.9339 L 42.9574,14.9417 L 43.8912,14.9417 L 43.8912,0.9339 L 42.9574,0.9339 Z" stroke-width="1px" stroke="#049FCF" fill="#049FCF"/>
        <path clip-path="url(#clip-1804289383)" d="M 43.8912,0.9339 L 43.8912,14.9417 L 44.8251,14.9417 L 44.8251,0.9339 L 43.8912,0.9339 Z" stroke-width="1px" stroke="#04A0D0" fill="#04A0D0"/>
        <path clip-path="url(#clip-1804289383)" d="M 44.8251,0.9339 L 44.8251,14.9417 L 45.7589,14.9417 L 45.7589,0.9339 L 44.8251,0.9339 Z" stroke-width="1px" stroke="#03A1D1" fill="#03A1D1"/>
        <path clip-path="url(#clip-1804289383)" d="M 45.7589,0.9339 L 45.7589,14.9417 L 46.6928,14.9417 L 46.6928,0.9339 L 45.7589,0.9339 Z" stroke-width="1px" stroke="#03A3D2" fill="#03A3D2"/>
        <path clip-path="url(#clip-1804289383)" d="M 46.6928,0.9339 L 46.6928,14.9417 L 47.6266,14.9417 L 47.6266,0.9339 L 46.6928,0.9339 Z" stroke-width="1px" stroke="#02A4D2" fill="#02A4D2"/>
        <path clip-path="url(#clip-1804289383)" d="M 47.6266,0.9339 L 47.6266,14.9417 L 48.5605,14.9417 L 48.5605,0.9339 L 47.6266,0.9339 Z" stroke-width="1px" stroke="#02A6D3" fill="#02A6D3"/>
        <path clip-path="url(#clip-1804289383)" d="M 48.5605,0.9339 L 48.5605,14.9417 L 49.4943,14.9417 L 49.4943,0.9339 L 48.5605,0.9339 Z" stroke-width="1px" stroke="#02A7D4" fill="#02A7D4"/>
        <path clip-path="url(#clip-1804289383)" d="M 49.4943,0.9339 L 49.4943,14.9417 L 50.4282,14.9417 L 50.4282,0.9339 L 49.4943,0.9339 Z" stroke-width="1px" stroke="#01A9D5" fill="#01A9D5"/>
        <path clip-path="url(#clip-1804289383)" d="M 50.4282,0.9339 L 50.4282,14.9417 L 51.3621,14.9417 L 51.3621,0.9339 L 50.4282,0.9339 Z" stroke-width="1px" stroke="#01AAD5" fill="#01AAD5"/>
        <path clip-path="url(#clip-1804289383)" d="M 51.3621,0.9339 L 51.3621,14.9417 L 52.2959,14.9417 L 52.2959,0.9339 L 51.3621,0.9339 Z" stroke-width="1px" stroke="#01ACD6" fill="#01ACD6"/>
        <path clip-path="url(#clip-1804289383)" d="M 52.2959,0.9339 L 52.2959,14.9417 L 53.2298,14.9417 L 53.2298,0.9339 L 52.2959,0.9339 Z" stroke-width="1px" stroke="#01ADD7" fill="#01ADD7"/>
        <path clip-path="url(#clip-1804289383)" d="M 53.2298,0.9339 L 53.2298,14.9417 L 54.1636,14.9417 L 54.1636,0.9339 L 53.2298,0.9339 Z" stroke-width="1px" stroke="#00AFD7" fill="#00AFD7"/>
        <g transform="matrix(0.0625 0.0000 0.0000 0.0625 0.0000 0.0000)">
          <path d="M 61.6345,234.3977 L 866.6180,234.3977 L 866.6180,17.7433 L 61.6345,17.7433 L 61.6345,234.3977 " stroke="#0054A6" stroke-width="9.3386" stroke-linecap="round" stroke-linejoin="round" fill="none"/>
        </g>
        <g transform="matrix(1.0000 0.0000 0.0000 1.0000 0.0000 0.0000)">
</g>
        <g transform="matrix(0.0625 0.0000 0.0000 0.0625 0.0000 0.0000)">
          <path d="M 827.3960,197.9774 C 827.3960,202.6467 823.6606,207.3159 818.9913,207.3159 L 479.0679,207.3159 C 474.3986,207.3159 470.6632,202.6467 470.6632,197.9774 L 470.6632,55.0975 C 470.6632,50.4282 474.3986,45.7589 479.0679,45.7589 L 818.9913,45.7589 C 823.6606,45.7589 827.3960,50.4282 827.3960,55.0975 L 827.3960,197.9774 Z M 451.9861,197.9774 C 451.9861,202.6467 448.2507,207.3159 443.5814,207.3159 L 103.6580,207.3159 C 98.9887,207.3159 95.2533,202.6467 95.2533,197.9774 L 95.2533,55.0975 C 95.2533,50.4282 98.9887,45.7589 103.6580,45.7589 L 443.5814,45.7589 C 448.2507,45.7589 451.9861,50.4282 451.9861,55.0975 L 451.9861,197.9774 Z " fill="#0054A6" stroke="none"/>
        </g>
        <g transform="matrix(1.0000 0.0000 0.0000 1.0000 0.0000 0.0000)">
</g>
        <g transform="matrix(0.0625 0.0000 0.0000 0.0625 0.0000 0.0000)">
          <path d="M 827.3960,197.9774 C 827.3960,202.6467 823.6606,207.3159 818.9913,207.3159 L 479.0679,207.3159 C 474.3986,207.3159 470.6632,202.6467 470.6632,197.9774 L 470.6632,55.0975 C 470.6632,50.4282 474.3986,45.7589 479.0679,45.7589 L 818.9913,45.7589 C 823.6606,45.7589 827.3960,50.4282 827.3960,55.0975 L 827.3960,197.9774 Z M 451.9861,197.9774 C 451.9861,202.6467 448.2507,207.3159 443.5814,207.3159 L 103.6580,207.3159 C 98.9887,207.3159 95.2533,202.6467 95.2533,197.9774 L 95.2533,55.0975 C 95.2533,50.4282 98.9887,45.7589 103.6580,45.7589 L 443.5814,45.7589 C 448.2507,45.7589 451.9861,50.4282 451.9861,55.0975 L 451.9861,197.9774 Z " stroke="#C8E6F2" stroke-width="7.4708" stroke-linecap="round" stroke-linejoin="round" fill="none"/>
        </g>
        <g transform="matrix(1.0000 0.0000 0.0000 1.0000 0.0000 0.0000)">
</g>
        <g transform="matrix(0.0625 0.0000 0.0000 0.0625 0.0000 0.0000)">
          <path d="M 146.6153,46.6928 L 146.6153,206.3821 M 197.0435,46.6928 L 197.0435,206.3821 M 248.4056,46.6928 L 248.4056,206.3821 M 298.8338,46.6928 L 298.8338,206.3821 M 350.1958,46.6928 L 350.1958,206.3821 M 400.6240,46.6928 L 400.6240,206.3821 M 522.0253,46.6928 L 522.0253,206.3821 M 572.4535,46.6928 L 572.4535,206.3821 M 623.8155,46.6928 L 623.8155,206.3821 M 674.2437,46.6928 L 674.2437,206.3821 M 725.6058,46.6928 L 725.6058,206.3821 M 776.0340,46.6928 L 776.0340,206.3821 " stroke="#C8E6F2" stroke-width="7.4708" stroke-linecap="round" stroke-linejoin="round" fill="none"/>
        </g>
        <g transform="matrix(1.0000 0.0000 0.0000 1.0000 0.0000 0.0000)">
</g>
        <g transform="matrix(0.0625 0.0000 0.0000 0.0625 0.0000 0.0000)">
          <path d="M 866.6180,139.1445 C 853.5440,139.1445 842.3377,151.2846 842.3377,166.2263 C 842.3377,181.1680 853.5440,192.3742 866.6180,192.3742 C 866.6180,192.3742 866.6180,192.3742 866.6180,192.3742 L 866.6180,139.1445 C 866.6180,139.1445 866.6180,139.1445 866.6180,139.1445 Z M 866.6180,43.8912 C 853.5440,43.8912 842.3377,55.0975 842.3377,70.0392 C 842.3377,84.9809 853.5440,96.1871 866.6180,96.1871 C 866.6180,96.1871 866.6180,96.1871 866.6180,96.1871 L 866.6180,43.8912 C 866.6180,43.8912 866.6180,43.8912 866.6180,43.8912 Z M 61.6345,43.8912 C 74.7084,43.8912 85.9147,55.0975 85.9147,70.0392 C 85.9147,84.9809 74.7084,96.1871 61.6345,96.1871 C 61.6345,96.1871 61.6345,96.1871 61.6345,96.1871 L 61.6345,43.8912 C 61.6345,43.8912 61.6345,43.8912 61.6345,43.8912 Z M 61.6345,139.1445 C 74.7084,139.1445 85.9147,151.2846 85.9147,166.2263 C 85.9147,181.1680 74.7084,192.3742 61.6345,192.3742 C 61.6345,192.3742 61.6345,192.3742 61.6345,192.3742 L 61.6345,139.1445 C 61.6345,139.1445 61.6345,139.1445 61.6345,139.1445 Z " fill="#00B0D8" stroke="none"/>
        </g>
        <g transform="matrix(1.0000 0.0000 0.0000 1.0000 0.0000 0.0000)">
</g>
        <g transform="matrix(0.0625 0.0000 0.0000 0.0625 0.0000 0.0000)">
          <path d="M 866.6180,139.1445 C 853.5440,139.1445 842.3377,151.2846 842.3377,166.2263 C 842.3377,181.1680 853.5440,192.3742 866.6180,192.3742 C 866.6180,192.3742 866.6180,192.3742 866.6180,192.3742 L 866.6180,139.1445 C 866.6180,139.1445 866.6180,139.1445 866.6180,139.1445 Z M 866.6180,43.8912 C 853.5440,43.8912 842.3377,55.0975 842.3377,70.0392 C 842.3377,84.9809 853.5440,96.1871 866.6180,96.1871 C 866.6180,96.1871 866.6180,96.1871 866.6180,96.1871 L 866.6180,43.8912 C 866.6180,43.8912 866.6180,43.8912 866.6180,43.8912 Z M 61.6345,43.8912 C 74.7084,43.8912 85.9147,55.0975 85.9147,70.0392 C 85.9147,84.9809 74.7084,96.1871 61.6345,96.1871 C 61.6345,96.1871 61.6345,96.1871 61.6345,96.1871 L 61.6345,43.8912 C 61.6345,43.8912 61.6345,43.8912 61.6345,43.8912 Z M 61.6345,139.1445 C 74.7084,139.1445 85.9147,151.2846 85.9147,166.2263 C 85.9147,181.1680 74.7084,192.3742 61.6345,192.3742 C 61.6345,192.3742 61.6345,192.3742 61.6345,192.3742 L 61.6345,139.1445 C 61.6345,139.1445 61.6345,139.1445 61.6345,139.1445 Z " stroke="#0054A6" stroke-width="7.4708" stroke-linecap="round" stroke-linejoin="round" fill="none"/>
        </g>
        <g transform="matrix(1.0000 0.0000 0.0000 1.0000 0.0000 0.0000)">
          <path d="M 1.8677,2.8016 L 1.8677,13.0740 L 4.6693,14.9417 L 4.6693,1.8677 L 1.8677,2.8016 " fill="none" stroke="none"/>
          <defs>
            <clipPath id="clip-846930886">
              <path d="M 1.8677,2.8016 L 1.8677,13.0740 L 4.6693,14.9417 L 4.6693,1.8677 L 1.8677,2.8016 Z"/>
            </clipPath>
          </defs>
          <path clip-path="url(#clip-846930886)" d="M 0.9339,0.9339 L 0.9339,1.8677 L 3.7354,1.8677 L 3.7354,0.9339 L 0.9339,0.9339 Z" stroke-width="1px" stroke="#55BBEA" fill="#55BBEA"/>
          <path clip-path="url(#clip-846930886)" d="M 0.9339,1.8677 L 0.9339,2.8016 L 3.7354,2.8016 L 3.7354,1.8677 L 0.9339,1.8677 Z" stroke-width="1px" stroke="#057BC3" fill="#057BC3"/>
          <path clip-path="url(#clip-846930886)" d="M 0.9339,2.8016 L 0.9339,3.7354 L 3.7354,3.7354 L 3.7354,2.8016 L 0.9339,2.8016 Z" stroke-width="1px" stroke="#0B80C5" fill="#0B80C5"/>
          <path clip-path="url(#clip-846930886)" d="M 0.9339,3.7354 L 0.9339,4.6693 L 3.7354,4.6693 L 3.7354,3.7354 L 0.9339,3.7354 Z" stroke-width="1px" stroke="#1185C8" fill="#1185C8"/>
          <path clip-path="url(#clip-846930886)" d="M 0.9339,4.6693 L 0.9339,5.6031 L 3.7354,5.6031 L 3.7354,4.6693 L 0.9339,4.6693 Z" stroke-width="1px" stroke="#1789CB" fill="#1789CB"/>
          <path clip-path="url(#clip-846930886)" d="M 0.9339,5.6031 L 0.9339,6.5370 L 3.7354,6.5370 L 3.7354,5.6031 L 0.9339,5.6031 Z" stroke-width="1px" stroke="#1D8ECE" fill="#1D8ECE"/>
          <path clip-path="url(#clip-846930886)" d="M 0.9339,6.5370 L 0.9339,7.4708 L 3.7354,7.4708 L 3.7354,6.5370 L 0.9339,6.5370 Z" stroke-width="1px" stroke="#2393D1" fill="#2393D1"/>
          <path clip-path="url(#clip-846930886)" d="M 0.9339,7.4708 L 0.9339,8.4047 L 3.7354,8.4047 L 3.7354,7.4708 L 0.9339,7.4708 Z" stroke-width="1px" stroke="#2998D5" fill="#2998D5"/>
          <path clip-path="url(#clip-846930886)" d="M 0.9339,8.4047 L 0.9339,9.3386 L 3.7354,9.3386 L 3.7354,8.4047 L 0.9339,8.4047 Z" stroke-width="1px" stroke="#2E9DD7" fill="#2E9DD7"/>
          <path clip-path="url(#clip-846930886)" d="M 0.9339,9.3386 L 0.9339,10.2724 L 3.7354,10.2724 L 3.7354,9.3386 L 0.9339,9.3386 Z" stroke-width="1px" stroke="#34A1DA" fill="#34A1DA"/>
          <path clip-path="url(#clip-846930886)" d="M 0.9339,10.2724 L 0.9339,11.2063 L 3.7354,11.2063 L 3.7354,10.2724 L 0.9339,10.2724 Z" stroke-width="1px" stroke="#3AA5DE" fill="#3AA5DE"/>
          <path clip-path="url(#clip-846930886)" d="M 0.9339,11.2063 L 0.9339,12.1401 L 3.7354,12.1401 L 3.7354,11.2063 L 0.9339,11.2063 Z" stroke-width="1px" stroke="#41ABE0" fill="#41ABE0"/>
          <path clip-path="url(#clip-846930886)" d="M 0.9339,12.1401 L 0.9339,13.0740 L 3.7354,13.0740 L 3.7354,12.1401 L 0.9339,12.1401 Z" stroke-width="1px" stroke="#46AFE3" fill="#46AFE3"/>
          <path clip-path="url(#clip-846930886)" d="M 0.9339,13.0740 L 0.9339,14.0078 L 3.7354,14.0078 L 3.7354,13.0740 L 0.9339,13.0740 Z" stroke-width="1px" stroke="#4CB4E6" fill="#4CB4E6"/>
          <path clip-path="url(#clip-846930886)" d="M 0.9339,14.0078 L 0.9339,14.9417 L 3.7354,14.9417 L 3.7354,14.0078 L 0.9339,14.0078 Z" stroke-width="1px" stroke="#52B9E9" fill="#52B9E9"/>
        </g>
        <g transform="matrix(0.0625 0.0000 0.0000 0.0625 0.0000 0.0000)">
          <path d="M 17.7433,42.9574 L 17.7433,209.1836 L 61.6345,234.3977 L 61.6345,17.7433 L 17.7433,42.9574 " stroke="#0054A6" stroke-width="9.3386" stroke-linecap="round" stroke-linejoin="round" fill="none"/>
        </g>
        <g transform="matrix(1.0000 0.0000 0.0000 1.0000 0.0000 0.0000)">
</g>
      </g>
      <!--emf-blob end-->
    </g>
  </g>
</svg>
