<svg xmlns="http://www.w3.org/2000/svg" xmlns:xlink="http://www.w3.org/1999/xlink" version="1.1" width="56.6929000000" height="9.7795000000">
  <title><![CDATA[FAS2020]]></title>
  <g transform=" scale(1.000000) ">
    <!--converted by libvisio2svg-->
    <g transform=" translate(-1.231200,-1.138300) ">
      <!--emf-blob start-->
      <g transform="translate(0.8625, 0.8625)">
        <defs>
          <clipPath id="clip-1801979802">
            <path d="M 4.3127,1.7251 L 50.0275,1.7251 L 50.0275,9.4880 L 4.3127,9.4880 L 4.3127,1.7251 Z Z"/>
          </clipPath>
        </defs>
        <path clip-path="url(#clip-1801979802)" d="M 3.4502,0.8625 L 3.4502,9.4880 L 4.3127,9.4880 L 4.3127,0.8625 L 3.4502,0.8625 Z" stroke-width="1px" stroke="#00B0D8" fill="#00B0D8"/>
        <path clip-path="url(#clip-1801979802)" d="M 4.3127,0.8625 L 4.3127,9.4880 L 5.1753,9.4880 L 5.1753,0.8625 L 4.3127,0.8625 Z" stroke-width="1px" stroke="#1263B2" fill="#1263B2"/>
        <path clip-path="url(#clip-1801979802)" d="M 5.1753,0.8625 L 5.1753,9.4880 L 6.0378,9.4880 L 6.0378,0.8625 L 5.1753,0.8625 Z" stroke-width="1px" stroke="#1165B2" fill="#1165B2"/>
        <path clip-path="url(#clip-1801979802)" d="M 6.0378,0.8625 L 6.0378,9.4880 L 6.9003,9.4880 L 6.9003,0.8625 L 6.0378,0.8625 Z" stroke-width="1px" stroke="#1166B3" fill="#1166B3"/>
        <path clip-path="url(#clip-1801979802)" d="M 6.9003,0.8625 L 6.9003,9.4880 L 7.7629,9.4880 L 7.7629,0.8625 L 6.9003,0.8625 Z" stroke-width="1px" stroke="#1168B3" fill="#1168B3"/>
        <path clip-path="url(#clip-1801979802)" d="M 7.7629,0.8625 L 7.7629,9.4880 L 8.6254,9.4880 L 8.6254,0.8625 L 7.7629,0.8625 Z" stroke-width="1px" stroke="#1169B4" fill="#1169B4"/>
        <path clip-path="url(#clip-1801979802)" d="M 8.6254,0.8625 L 8.6254,9.4880 L 9.4880,9.4880 L 9.4880,0.8625 L 8.6254,0.8625 Z" stroke-width="1px" stroke="#106BB5" fill="#106BB5"/>
        <path clip-path="url(#clip-1801979802)" d="M 9.4880,0.8625 L 9.4880,9.4880 L 10.3505,9.4880 L 10.3505,0.8625 L 9.4880,0.8625 Z" stroke-width="1px" stroke="#106CB6" fill="#106CB6"/>
        <path clip-path="url(#clip-1801979802)" d="M 10.3505,0.8625 L 10.3505,9.4880 L 11.2131,9.4880 L 11.2131,0.8625 L 10.3505,0.8625 Z" stroke-width="1px" stroke="#106EB7" fill="#106EB7"/>
        <path clip-path="url(#clip-1801979802)" d="M 11.2131,0.8625 L 11.2131,9.4880 L 12.0756,9.4880 L 12.0756,0.8625 L 11.2131,0.8625 Z" stroke-width="1px" stroke="#0F6FB7" fill="#0F6FB7"/>
        <path clip-path="url(#clip-1801979802)" d="M 12.0756,0.8625 L 12.0756,9.4880 L 12.9381,9.4880 L 12.9381,0.8625 L 12.0756,0.8625 Z" stroke-width="1px" stroke="#0F71B8" fill="#0F71B8"/>
        <path clip-path="url(#clip-1801979802)" d="M 12.9381,0.8625 L 12.9381,9.4880 L 13.8007,9.4880 L 13.8007,0.8625 L 12.9381,0.8625 Z" stroke-width="1px" stroke="#0F72B9" fill="#0F72B9"/>
        <path clip-path="url(#clip-1801979802)" d="M 13.8007,0.8625 L 13.8007,9.4880 L 14.6632,9.4880 L 14.6632,0.8625 L 13.8007,0.8625 Z" stroke-width="1px" stroke="#0E74BA" fill="#0E74BA"/>
        <path clip-path="url(#clip-1801979802)" d="M 14.6632,0.8625 L 14.6632,9.4880 L 15.5258,9.4880 L 15.5258,0.8625 L 14.6632,0.8625 Z" stroke-width="1px" stroke="#0E75BA" fill="#0E75BA"/>
        <path clip-path="url(#clip-1801979802)" d="M 15.5258,0.8625 L 15.5258,9.4880 L 16.3883,9.4880 L 16.3883,0.8625 L 15.5258,0.8625 Z" stroke-width="1px" stroke="#0E77BB" fill="#0E77BB"/>
        <path clip-path="url(#clip-1801979802)" d="M 16.3883,0.8625 L 16.3883,9.4880 L 17.2509,9.4880 L 17.2509,0.8625 L 16.3883,0.8625 Z" stroke-width="1px" stroke="#0D78BC" fill="#0D78BC"/>
        <path clip-path="url(#clip-1801979802)" d="M 17.2509,0.8625 L 17.2509,9.4880 L 18.1134,9.4880 L 18.1134,0.8625 L 17.2509,0.8625 Z" stroke-width="1px" stroke="#0D79BC" fill="#0D79BC"/>
        <path clip-path="url(#clip-1801979802)" d="M 18.1134,0.8625 L 18.1134,9.4880 L 18.9759,9.4880 L 18.9759,0.8625 L 18.1134,0.8625 Z" stroke-width="1px" stroke="#0C7ABD" fill="#0C7ABD"/>
        <path clip-path="url(#clip-1801979802)" d="M 18.9759,0.8625 L 18.9759,9.4880 L 19.8385,9.4880 L 19.8385,0.8625 L 18.9759,0.8625 Z" stroke-width="1px" stroke="#0C7CBE" fill="#0C7CBE"/>
        <path clip-path="url(#clip-1801979802)" d="M 19.8385,0.8625 L 19.8385,9.4880 L 20.7010,9.4880 L 20.7010,0.8625 L 19.8385,0.8625 Z" stroke-width="1px" stroke="#0B7DBF" fill="#0B7DBF"/>
        <path clip-path="url(#clip-1801979802)" d="M 20.7010,0.8625 L 20.7010,9.4880 L 21.5636,9.4880 L 21.5636,0.8625 L 20.7010,0.8625 Z" stroke-width="1px" stroke="#0B7FC0" fill="#0B7FC0"/>
        <path clip-path="url(#clip-1801979802)" d="M 21.5636,0.8625 L 21.5636,9.4880 L 22.4261,9.4880 L 22.4261,0.8625 L 21.5636,0.8625 Z" stroke-width="1px" stroke="#0B80C0" fill="#0B80C0"/>
        <path clip-path="url(#clip-1801979802)" d="M 22.4261,0.8625 L 22.4261,9.4880 L 23.2887,9.4880 L 23.2887,0.8625 L 22.4261,0.8625 Z" stroke-width="1px" stroke="#0A82C1" fill="#0A82C1"/>
        <path clip-path="url(#clip-1801979802)" d="M 23.2887,0.8625 L 23.2887,9.4880 L 24.1512,9.4880 L 24.1512,0.8625 L 23.2887,0.8625 Z" stroke-width="1px" stroke="#0A83C2" fill="#0A83C2"/>
        <path clip-path="url(#clip-1801979802)" d="M 24.1512,0.8625 L 24.1512,9.4880 L 25.0137,9.4880 L 25.0137,0.8625 L 24.1512,0.8625 Z" stroke-width="1px" stroke="#0A84C2" fill="#0A84C2"/>
        <path clip-path="url(#clip-1801979802)" d="M 25.0137,0.8625 L 25.0137,9.4880 L 25.8763,9.4880 L 25.8763,0.8625 L 25.0137,0.8625 Z" stroke-width="1px" stroke="#0A86C3" fill="#0A86C3"/>
        <path clip-path="url(#clip-1801979802)" d="M 25.8763,0.8625 L 25.8763,9.4880 L 26.7388,9.4880 L 26.7388,0.8625 L 25.8763,0.8625 Z" stroke-width="1px" stroke="#0987C4" fill="#0987C4"/>
        <path clip-path="url(#clip-1801979802)" d="M 26.7388,0.8625 L 26.7388,9.4880 L 27.6014,9.4880 L 27.6014,0.8625 L 26.7388,0.8625 Z" stroke-width="1px" stroke="#0989C5" fill="#0989C5"/>
        <path clip-path="url(#clip-1801979802)" d="M 27.6014,0.8625 L 27.6014,9.4880 L 28.4639,9.4880 L 28.4639,0.8625 L 27.6014,0.8625 Z" stroke-width="1px" stroke="#098AC6" fill="#098AC6"/>
        <path clip-path="url(#clip-1801979802)" d="M 28.4639,0.8625 L 28.4639,9.4880 L 29.3265,9.4880 L 29.3265,0.8625 L 28.4639,0.8625 Z" stroke-width="1px" stroke="#088CC6" fill="#088CC6"/>
        <path clip-path="url(#clip-1801979802)" d="M 29.3265,0.8625 L 29.3265,9.4880 L 30.1890,9.4880 L 30.1890,0.8625 L 29.3265,0.8625 Z" stroke-width="1px" stroke="#088DC7" fill="#088DC7"/>
        <path clip-path="url(#clip-1801979802)" d="M 30.1890,0.8625 L 30.1890,9.4880 L 31.0515,9.4880 L 31.0515,0.8625 L 30.1890,0.8625 Z" stroke-width="1px" stroke="#088FC7" fill="#088FC7"/>
        <path clip-path="url(#clip-1801979802)" d="M 31.0515,0.8625 L 31.0515,9.4880 L 31.9141,9.4880 L 31.9141,0.8625 L 31.0515,0.8625 Z" stroke-width="1px" stroke="#0890C8" fill="#0890C8"/>
        <path clip-path="url(#clip-1801979802)" d="M 31.9141,0.8625 L 31.9141,9.4880 L 32.7766,9.4880 L 32.7766,0.8625 L 31.9141,0.8625 Z" stroke-width="1px" stroke="#0792C9" fill="#0792C9"/>
        <path clip-path="url(#clip-1801979802)" d="M 32.7766,0.8625 L 32.7766,9.4880 L 33.6392,9.4880 L 33.6392,0.8625 L 32.7766,0.8625 Z" stroke-width="1px" stroke="#0793C9" fill="#0793C9"/>
        <path clip-path="url(#clip-1801979802)" d="M 33.6392,0.8625 L 33.6392,9.4880 L 34.5017,9.4880 L 34.5017,0.8625 L 33.6392,0.8625 Z" stroke-width="1px" stroke="#0795CA" fill="#0795CA"/>
        <path clip-path="url(#clip-1801979802)" d="M 34.5017,0.8625 L 34.5017,9.4880 L 35.3643,9.4880 L 35.3643,0.8625 L 34.5017,0.8625 Z" stroke-width="1px" stroke="#0696CB" fill="#0696CB"/>
        <path clip-path="url(#clip-1801979802)" d="M 35.3643,0.8625 L 35.3643,9.4880 L 36.2268,9.4880 L 36.2268,0.8625 L 35.3643,0.8625 Z" stroke-width="1px" stroke="#0698CC" fill="#0698CC"/>
        <path clip-path="url(#clip-1801979802)" d="M 36.2268,0.8625 L 36.2268,9.4880 L 37.0893,9.4880 L 37.0893,0.8625 L 36.2268,0.8625 Z" stroke-width="1px" stroke="#0699CD" fill="#0699CD"/>
        <path clip-path="url(#clip-1801979802)" d="M 37.0893,0.8625 L 37.0893,9.4880 L 37.9519,9.4880 L 37.9519,0.8625 L 37.0893,0.8625 Z" stroke-width="1px" stroke="#059BCD" fill="#059BCD"/>
        <path clip-path="url(#clip-1801979802)" d="M 37.9519,0.8625 L 37.9519,9.4880 L 38.8144,9.4880 L 38.8144,0.8625 L 37.9519,0.8625 Z" stroke-width="1px" stroke="#059CCE" fill="#059CCE"/>
        <path clip-path="url(#clip-1801979802)" d="M 38.8144,0.8625 L 38.8144,9.4880 L 39.6770,9.4880 L 39.6770,0.8625 L 38.8144,0.8625 Z" stroke-width="1px" stroke="#059ECE" fill="#059ECE"/>
        <path clip-path="url(#clip-1801979802)" d="M 39.6770,0.8625 L 39.6770,9.4880 L 40.5395,9.4880 L 40.5395,0.8625 L 39.6770,0.8625 Z" stroke-width="1px" stroke="#049FCF" fill="#049FCF"/>
        <path clip-path="url(#clip-1801979802)" d="M 40.5395,0.8625 L 40.5395,9.4880 L 41.4021,9.4880 L 41.4021,0.8625 L 40.5395,0.8625 Z" stroke-width="1px" stroke="#04A0D0" fill="#04A0D0"/>
        <path clip-path="url(#clip-1801979802)" d="M 41.4021,0.8625 L 41.4021,9.4880 L 42.2646,9.4880 L 42.2646,0.8625 L 41.4021,0.8625 Z" stroke-width="1px" stroke="#03A1D1" fill="#03A1D1"/>
        <path clip-path="url(#clip-1801979802)" d="M 42.2646,0.8625 L 42.2646,9.4880 L 43.1271,9.4880 L 43.1271,0.8625 L 42.2646,0.8625 Z" stroke-width="1px" stroke="#03A3D2" fill="#03A3D2"/>
        <path clip-path="url(#clip-1801979802)" d="M 43.1271,0.8625 L 43.1271,9.4880 L 43.9897,9.4880 L 43.9897,0.8625 L 43.1271,0.8625 Z" stroke-width="1px" stroke="#02A4D2" fill="#02A4D2"/>
        <path clip-path="url(#clip-1801979802)" d="M 43.9897,0.8625 L 43.9897,9.4880 L 44.8522,9.4880 L 44.8522,0.8625 L 43.9897,0.8625 Z" stroke-width="1px" stroke="#02A6D3" fill="#02A6D3"/>
        <path clip-path="url(#clip-1801979802)" d="M 44.8522,0.8625 L 44.8522,9.4880 L 45.7148,9.4880 L 45.7148,0.8625 L 44.8522,0.8625 Z" stroke-width="1px" stroke="#02A7D4" fill="#02A7D4"/>
        <path clip-path="url(#clip-1801979802)" d="M 45.7148,0.8625 L 45.7148,9.4880 L 46.5773,9.4880 L 46.5773,0.8625 L 45.7148,0.8625 Z" stroke-width="1px" stroke="#01A9D5" fill="#01A9D5"/>
        <path clip-path="url(#clip-1801979802)" d="M 46.5773,0.8625 L 46.5773,9.4880 L 47.4399,9.4880 L 47.4399,0.8625 L 46.5773,0.8625 Z" stroke-width="1px" stroke="#01AAD5" fill="#01AAD5"/>
        <path clip-path="url(#clip-1801979802)" d="M 47.4399,0.8625 L 47.4399,9.4880 L 48.3024,9.4880 L 48.3024,0.8625 L 47.4399,0.8625 Z" stroke-width="1px" stroke="#01ACD6" fill="#01ACD6"/>
        <path clip-path="url(#clip-1801979802)" d="M 48.3024,0.8625 L 48.3024,9.4880 L 49.1649,9.4880 L 49.1649,0.8625 L 48.3024,0.8625 Z" stroke-width="1px" stroke="#01ADD7" fill="#01ADD7"/>
        <path clip-path="url(#clip-1801979802)" d="M 49.1649,0.8625 L 49.1649,9.4880 L 50.0275,9.4880 L 50.0275,0.8625 L 49.1649,0.8625 Z" stroke-width="1px" stroke="#00AFD7" fill="#00AFD7"/>
        <g transform="matrix(0.0625 0.0000 0.0000 0.0625 0.0000 0.0000)">
          <path d="M 56.9278,151.8075 L 800.4398,151.8075 L 800.4398,16.3883 L 56.9278,16.3883 L 56.9278,151.8075 " stroke="#0054A6" stroke-width="8.6254" stroke-linecap="round" stroke-linejoin="round" fill="none"/>
        </g>
        <g transform="matrix(1.0000 0.0000 0.0000 1.0000 0.0000 0.0000)">
</g>
        <g transform="matrix(0.0625 0.0000 0.0000 0.0625 0.0000 0.0000)">
          <path d="M 428.6838,140.5945 C 375.2061,140.5945 300.1649,139.7319 231.1615,138.0069 C 171.6460,136.2818 142.3196,135.4192 126.7938,133.6941 C 117.3058,133.6941 94.0172,131.1065 94.0172,117.3058 L 94.0172,50.8900 C 94.0172,36.2268 116.4433,34.5017 126.7938,33.6392 C 142.3196,32.7766 171.6460,31.0515 231.1615,30.1890 C 299.3024,28.4639 375.2061,27.6014 428.6838,27.6014 C 482.1615,27.6014 558.0652,28.4639 626.2061,30.1890 C 685.7216,31.0515 715.0480,32.7766 730.5738,33.6392 C 740.0618,34.5017 763.3504,36.2268 763.3504,50.8900 L 763.3504,117.3058 C 763.3504,131.1065 740.0618,133.6941 730.5738,133.6941 C 715.0480,135.4192 685.7216,136.2818 626.2061,138.0069 C 557.2027,139.7319 482.1615,140.5945 428.6838,140.5945 Z " fill="#0054A6" stroke="none"/>
        </g>
        <g transform="matrix(1.0000 0.0000 0.0000 1.0000 0.0000 0.0000)">
</g>
        <g transform="matrix(0.0625 0.0000 0.0000 0.0625 0.0000 0.0000)">
          <path d="M 625.3436,42.2646 C 556.3401,40.5395 481.2989,39.6770 428.6838,39.6770 C 376.0687,39.6770 301.0275,40.5395 232.0240,42.2646 C 114.7182,44.8522 114.7182,46.5773 114.7182,50.8900 L 114.7182,117.3058 C 114.7182,121.6185 114.7182,122.4811 232.0240,125.0687 C 301.0275,126.7938 376.0687,127.6563 428.6838,127.6563 C 481.2989,127.6563 556.3401,126.7938 625.3436,125.0687 C 742.6494,122.4811 742.6494,121.6185 742.6494,117.3058 L 742.6494,50.8900 C 742.6494,46.5773 742.6494,44.8522 625.3436,42.2646 M 290.6769,43.9897 L 290.6769,123.3436 M 336.3917,43.1271 L 336.3917,124.2062 M 382.9690,43.1271 L 382.9690,125.0687 M 152.6701,47.4399 L 152.6701,120.7560 M 199.2474,45.7148 L 199.2474,121.6185 M 244.9622,44.8522 L 244.9622,122.4811 M 428.6838,43.1271 L 428.6838,125.0687 M 658.1202,45.7148 L 658.1202,121.6185 M 704.6975,47.4399 L 704.6975,120.7560 M 474.3986,43.1271 L 474.3986,125.0687 M 520.9759,43.1271 L 520.9759,124.2062 M 566.6907,43.9897 L 566.6907,123.3436 M 612.4054,44.8522 L 612.4054,122.4811 " stroke="#C8E6F2" stroke-width="8.6254" stroke-linecap="round" stroke-linejoin="round" fill="none"/>
        </g>
        <g transform="matrix(1.0000 0.0000 0.0000 1.0000 0.0000 0.0000)">
</g>
        <g transform="matrix(0.0625 0.0000 0.0000 0.0625 0.0000 0.0000)">
          <path d="M 442.4845,56.0653 C 446.7972,56.0653 449.3848,57.7904 449.3848,59.5155 L 449.3848,107.8179 C 449.3848,110.4055 446.7972,112.1306 442.4845,112.1306 L 414.8831,112.1306 C 410.5704,112.1306 407.9828,110.4055 407.9828,107.8179 L 407.9828,59.5155 C 407.9828,57.7904 410.5704,56.0653 414.8831,56.0653 L 442.4845,56.0653 Z " fill="#C8E6F2" stroke="none"/>
        </g>
        <g transform="matrix(1.0000 0.0000 0.0000 1.0000 0.0000 0.0000)">
          <path d="M 1.7251,2.5876 L 1.7251,8.6254 L 4.3127,9.4880 L 4.3127,1.7251 L 1.7251,2.5876 " fill="none" stroke="none"/>
          <defs>
            <clipPath id="clip-1315634022">
              <path d="M 1.7251,2.5876 L 1.7251,8.6254 L 4.3127,9.4880 L 4.3127,1.7251 L 1.7251,2.5876 Z"/>
            </clipPath>
          </defs>
          <path clip-path="url(#clip-1315634022)" d="M 0.8625,0.8625 L 0.8625,1.7251 L 3.4502,1.7251 L 3.4502,0.8625 L 0.8625,0.8625 Z" stroke-width="1px" stroke="#55BBEA" fill="#55BBEA"/>
          <path clip-path="url(#clip-1315634022)" d="M 0.8625,1.7251 L 0.8625,2.5876 L 3.4502,2.5876 L 3.4502,1.7251 L 0.8625,1.7251 Z" stroke-width="1px" stroke="#077DC4" fill="#077DC4"/>
          <path clip-path="url(#clip-1315634022)" d="M 0.8625,2.5876 L 0.8625,3.4502 L 3.4502,3.4502 L 3.4502,2.5876 L 0.8625,2.5876 Z" stroke-width="1px" stroke="#1084C8" fill="#1084C8"/>
          <path clip-path="url(#clip-1315634022)" d="M 0.8625,3.4502 L 0.8625,4.3127 L 3.4502,4.3127 L 3.4502,3.4502 L 0.8625,3.4502 Z" stroke-width="1px" stroke="#198BCC" fill="#198BCC"/>
          <path clip-path="url(#clip-1315634022)" d="M 0.8625,4.3127 L 0.8625,5.1753 L 3.4502,5.1753 L 3.4502,4.3127 L 0.8625,4.3127 Z" stroke-width="1px" stroke="#2292D1" fill="#2292D1"/>
          <path clip-path="url(#clip-1315634022)" d="M 0.8625,5.1753 L 0.8625,6.0378 L 3.4502,6.0378 L 3.4502,5.1753 L 0.8625,5.1753 Z" stroke-width="1px" stroke="#2B9AD6" fill="#2B9AD6"/>
          <path clip-path="url(#clip-1315634022)" d="M 0.8625,6.0378 L 0.8625,6.9003 L 3.4502,6.9003 L 3.4502,6.0378 L 0.8625,6.0378 Z" stroke-width="1px" stroke="#33A0DA" fill="#33A0DA"/>
          <path clip-path="url(#clip-1315634022)" d="M 0.8625,6.9003 L 0.8625,7.7629 L 3.4502,7.7629 L 3.4502,6.9003 L 0.8625,6.9003 Z" stroke-width="1px" stroke="#3CA7DE" fill="#3CA7DE"/>
          <path clip-path="url(#clip-1315634022)" d="M 0.8625,7.7629 L 0.8625,8.6254 L 3.4502,8.6254 L 3.4502,7.7629 L 0.8625,7.7629 Z" stroke-width="1px" stroke="#45AEE2" fill="#45AEE2"/>
          <path clip-path="url(#clip-1315634022)" d="M 0.8625,8.6254 L 0.8625,9.4880 L 3.4502,9.4880 L 3.4502,8.6254 L 0.8625,8.6254 Z" stroke-width="1px" stroke="#4EB5E7" fill="#4EB5E7"/>
        </g>
        <g transform="matrix(0.0625 0.0000 0.0000 0.0625 0.0000 0.0000)">
          <path d="M 16.3883,39.6770 L 16.3883,127.6563 L 56.9278,151.8075 L 56.9278,16.3883 L 16.3883,39.6770 " stroke="#0054A6" stroke-width="8.6254" stroke-linecap="round" stroke-linejoin="round" fill="none"/>
        </g>
        <g transform="matrix(1.0000 0.0000 0.0000 1.0000 0.0000 0.0000)">
</g>
      </g>
      <!--emf-blob end-->
    </g>
  </g>
</svg>
