<svg xmlns="http://www.w3.org/2000/svg" xmlns:xlink="http://www.w3.org/1999/xlink" version="1.1" width="56.6938000000" height="39.4029000000">
  <title><![CDATA[FAS2050 Cluster]]></title>
  <g transform=" scale(1.000000) ">
    <!--converted by libvisio2svg-->
    <g transform=" translate(-1.197700,-1.089600) ">
      <!--emf-blob start-->
      <g transform="translate(0.9689, 0.9689)">
        <defs>
          <clipPath id="clip-1656478042">
            <path d="M 4.8445,20.3467 L 56.1957,20.3467 L 56.1957,39.7246 L 4.8445,39.7246 L 4.8445,20.3467 Z Z"/>
          </clipPath>
        </defs>
        <path clip-path="url(#clip-1656478042)" d="M 3.8756,20.3467 L 3.8756,39.7246 L 4.8445,39.7246 L 4.8445,20.3467 L 3.8756,20.3467 Z" stroke-width="1px" stroke="#00B0D8" fill="#00B0D8"/>
        <path clip-path="url(#clip-1656478042)" d="M 4.8445,20.3467 L 4.8445,39.7246 L 5.8134,39.7246 L 5.8134,20.3467 L 4.8445,20.3467 Z" stroke-width="1px" stroke="#1263B2" fill="#1263B2"/>
        <path clip-path="url(#clip-1656478042)" d="M 5.8134,20.3467 L 5.8134,39.7246 L 6.7822,39.7246 L 6.7822,20.3467 L 5.8134,20.3467 Z" stroke-width="1px" stroke="#1165B2" fill="#1165B2"/>
        <path clip-path="url(#clip-1656478042)" d="M 6.7822,20.3467 L 6.7822,39.7246 L 7.7511,39.7246 L 7.7511,20.3467 L 6.7822,20.3467 Z" stroke-width="1px" stroke="#1166B3" fill="#1166B3"/>
        <path clip-path="url(#clip-1656478042)" d="M 7.7511,20.3467 L 7.7511,39.7246 L 8.7200,39.7246 L 8.7200,20.3467 L 7.7511,20.3467 Z" stroke-width="1px" stroke="#1168B3" fill="#1168B3"/>
        <path clip-path="url(#clip-1656478042)" d="M 8.7200,20.3467 L 8.7200,39.7246 L 9.6889,39.7246 L 9.6889,20.3467 L 8.7200,20.3467 Z" stroke-width="1px" stroke="#1169B4" fill="#1169B4"/>
        <path clip-path="url(#clip-1656478042)" d="M 9.6889,20.3467 L 9.6889,39.7246 L 10.6578,39.7246 L 10.6578,20.3467 L 9.6889,20.3467 Z" stroke-width="1px" stroke="#106BB5" fill="#106BB5"/>
        <path clip-path="url(#clip-1656478042)" d="M 10.6578,20.3467 L 10.6578,39.7246 L 11.6267,39.7246 L 11.6267,20.3467 L 10.6578,20.3467 Z" stroke-width="1px" stroke="#106CB6" fill="#106CB6"/>
        <path clip-path="url(#clip-1656478042)" d="M 11.6267,20.3467 L 11.6267,39.7246 L 12.5956,39.7246 L 12.5956,20.3467 L 11.6267,20.3467 Z" stroke-width="1px" stroke="#106EB7" fill="#106EB7"/>
        <path clip-path="url(#clip-1656478042)" d="M 12.5956,20.3467 L 12.5956,39.7246 L 13.5645,39.7246 L 13.5645,20.3467 L 12.5956,20.3467 Z" stroke-width="1px" stroke="#0F6FB7" fill="#0F6FB7"/>
        <path clip-path="url(#clip-1656478042)" d="M 13.5645,20.3467 L 13.5645,39.7246 L 14.5334,39.7246 L 14.5334,20.3467 L 13.5645,20.3467 Z" stroke-width="1px" stroke="#0F71B8" fill="#0F71B8"/>
        <path clip-path="url(#clip-1656478042)" d="M 14.5334,20.3467 L 14.5334,39.7246 L 15.5023,39.7246 L 15.5023,20.3467 L 14.5334,20.3467 Z" stroke-width="1px" stroke="#0F72B9" fill="#0F72B9"/>
        <path clip-path="url(#clip-1656478042)" d="M 15.5023,20.3467 L 15.5023,39.7246 L 16.4712,39.7246 L 16.4712,20.3467 L 15.5023,20.3467 Z" stroke-width="1px" stroke="#0E74BA" fill="#0E74BA"/>
        <path clip-path="url(#clip-1656478042)" d="M 16.4712,20.3467 L 16.4712,39.7246 L 17.4401,39.7246 L 17.4401,20.3467 L 16.4712,20.3467 Z" stroke-width="1px" stroke="#0E75BA" fill="#0E75BA"/>
        <path clip-path="url(#clip-1656478042)" d="M 17.4401,20.3467 L 17.4401,39.7246 L 18.4089,39.7246 L 18.4089,20.3467 L 17.4401,20.3467 Z" stroke-width="1px" stroke="#0E77BB" fill="#0E77BB"/>
        <path clip-path="url(#clip-1656478042)" d="M 18.4089,20.3467 L 18.4089,39.7246 L 19.3778,39.7246 L 19.3778,20.3467 L 18.4089,20.3467 Z" stroke-width="1px" stroke="#0D78BC" fill="#0D78BC"/>
        <path clip-path="url(#clip-1656478042)" d="M 19.3778,20.3467 L 19.3778,39.7246 L 20.3467,39.7246 L 20.3467,20.3467 L 19.3778,20.3467 Z" stroke-width="1px" stroke="#0D79BC" fill="#0D79BC"/>
        <path clip-path="url(#clip-1656478042)" d="M 20.3467,20.3467 L 20.3467,39.7246 L 21.3156,39.7246 L 21.3156,20.3467 L 20.3467,20.3467 Z" stroke-width="1px" stroke="#0C7ABD" fill="#0C7ABD"/>
        <path clip-path="url(#clip-1656478042)" d="M 21.3156,20.3467 L 21.3156,39.7246 L 22.2845,39.7246 L 22.2845,20.3467 L 21.3156,20.3467 Z" stroke-width="1px" stroke="#0C7CBE" fill="#0C7CBE"/>
        <path clip-path="url(#clip-1656478042)" d="M 22.2845,20.3467 L 22.2845,39.7246 L 23.2534,39.7246 L 23.2534,20.3467 L 22.2845,20.3467 Z" stroke-width="1px" stroke="#0B7DBF" fill="#0B7DBF"/>
        <path clip-path="url(#clip-1656478042)" d="M 23.2534,20.3467 L 23.2534,39.7246 L 24.2223,39.7246 L 24.2223,20.3467 L 23.2534,20.3467 Z" stroke-width="1px" stroke="#0B7FC0" fill="#0B7FC0"/>
        <path clip-path="url(#clip-1656478042)" d="M 24.2223,20.3467 L 24.2223,39.7246 L 25.1912,39.7246 L 25.1912,20.3467 L 24.2223,20.3467 Z" stroke-width="1px" stroke="#0B80C0" fill="#0B80C0"/>
        <path clip-path="url(#clip-1656478042)" d="M 25.1912,20.3467 L 25.1912,39.7246 L 26.1601,39.7246 L 26.1601,20.3467 L 25.1912,20.3467 Z" stroke-width="1px" stroke="#0A82C1" fill="#0A82C1"/>
        <path clip-path="url(#clip-1656478042)" d="M 26.1601,20.3467 L 26.1601,39.7246 L 27.1290,39.7246 L 27.1290,20.3467 L 26.1601,20.3467 Z" stroke-width="1px" stroke="#0A83C2" fill="#0A83C2"/>
        <path clip-path="url(#clip-1656478042)" d="M 27.1290,20.3467 L 27.1290,39.7246 L 28.0979,39.7246 L 28.0979,20.3467 L 27.1290,20.3467 Z" stroke-width="1px" stroke="#0A84C2" fill="#0A84C2"/>
        <path clip-path="url(#clip-1656478042)" d="M 28.0979,20.3467 L 28.0979,39.7246 L 29.0668,39.7246 L 29.0668,20.3467 L 28.0979,20.3467 Z" stroke-width="1px" stroke="#0A86C3" fill="#0A86C3"/>
        <path clip-path="url(#clip-1656478042)" d="M 29.0668,20.3467 L 29.0668,39.7246 L 30.0356,39.7246 L 30.0356,20.3467 L 29.0668,20.3467 Z" stroke-width="1px" stroke="#0987C4" fill="#0987C4"/>
        <path clip-path="url(#clip-1656478042)" d="M 30.0356,20.3467 L 30.0356,39.7246 L 31.0045,39.7246 L 31.0045,20.3467 L 30.0356,20.3467 Z" stroke-width="1px" stroke="#0989C5" fill="#0989C5"/>
        <path clip-path="url(#clip-1656478042)" d="M 31.0045,20.3467 L 31.0045,39.7246 L 31.9734,39.7246 L 31.9734,20.3467 L 31.0045,20.3467 Z" stroke-width="1px" stroke="#098AC6" fill="#098AC6"/>
        <path clip-path="url(#clip-1656478042)" d="M 31.9734,20.3467 L 31.9734,39.7246 L 32.9423,39.7246 L 32.9423,20.3467 L 31.9734,20.3467 Z" stroke-width="1px" stroke="#088CC6" fill="#088CC6"/>
        <path clip-path="url(#clip-1656478042)" d="M 32.9423,20.3467 L 32.9423,39.7246 L 33.9112,39.7246 L 33.9112,20.3467 L 32.9423,20.3467 Z" stroke-width="1px" stroke="#088DC7" fill="#088DC7"/>
        <path clip-path="url(#clip-1656478042)" d="M 33.9112,20.3467 L 33.9112,39.7246 L 34.8801,39.7246 L 34.8801,20.3467 L 33.9112,20.3467 Z" stroke-width="1px" stroke="#088FC7" fill="#088FC7"/>
        <path clip-path="url(#clip-1656478042)" d="M 34.8801,20.3467 L 34.8801,39.7246 L 35.8490,39.7246 L 35.8490,20.3467 L 34.8801,20.3467 Z" stroke-width="1px" stroke="#0890C8" fill="#0890C8"/>
        <path clip-path="url(#clip-1656478042)" d="M 35.8490,20.3467 L 35.8490,39.7246 L 36.8179,39.7246 L 36.8179,20.3467 L 35.8490,20.3467 Z" stroke-width="1px" stroke="#0792C9" fill="#0792C9"/>
        <path clip-path="url(#clip-1656478042)" d="M 36.8179,20.3467 L 36.8179,39.7246 L 37.7868,39.7246 L 37.7868,20.3467 L 36.8179,20.3467 Z" stroke-width="1px" stroke="#0793C9" fill="#0793C9"/>
        <path clip-path="url(#clip-1656478042)" d="M 37.7868,20.3467 L 37.7868,39.7246 L 38.7557,39.7246 L 38.7557,20.3467 L 37.7868,20.3467 Z" stroke-width="1px" stroke="#0795CA" fill="#0795CA"/>
        <path clip-path="url(#clip-1656478042)" d="M 38.7557,20.3467 L 38.7557,39.7246 L 39.7246,39.7246 L 39.7246,20.3467 L 38.7557,20.3467 Z" stroke-width="1px" stroke="#0696CB" fill="#0696CB"/>
        <path clip-path="url(#clip-1656478042)" d="M 39.7246,20.3467 L 39.7246,39.7246 L 40.6935,39.7246 L 40.6935,20.3467 L 39.7246,20.3467 Z" stroke-width="1px" stroke="#0698CC" fill="#0698CC"/>
        <path clip-path="url(#clip-1656478042)" d="M 40.6935,20.3467 L 40.6935,39.7246 L 41.6623,39.7246 L 41.6623,20.3467 L 40.6935,20.3467 Z" stroke-width="1px" stroke="#0699CD" fill="#0699CD"/>
        <path clip-path="url(#clip-1656478042)" d="M 41.6623,20.3467 L 41.6623,39.7246 L 42.6312,39.7246 L 42.6312,20.3467 L 41.6623,20.3467 Z" stroke-width="1px" stroke="#059BCD" fill="#059BCD"/>
        <path clip-path="url(#clip-1656478042)" d="M 42.6312,20.3467 L 42.6312,39.7246 L 43.6001,39.7246 L 43.6001,20.3467 L 42.6312,20.3467 Z" stroke-width="1px" stroke="#059CCE" fill="#059CCE"/>
        <path clip-path="url(#clip-1656478042)" d="M 43.6001,20.3467 L 43.6001,39.7246 L 44.5690,39.7246 L 44.5690,20.3467 L 43.6001,20.3467 Z" stroke-width="1px" stroke="#059ECE" fill="#059ECE"/>
        <path clip-path="url(#clip-1656478042)" d="M 44.5690,20.3467 L 44.5690,39.7246 L 45.5379,39.7246 L 45.5379,20.3467 L 44.5690,20.3467 Z" stroke-width="1px" stroke="#049FCF" fill="#049FCF"/>
        <path clip-path="url(#clip-1656478042)" d="M 45.5379,20.3467 L 45.5379,39.7246 L 46.5068,39.7246 L 46.5068,20.3467 L 45.5379,20.3467 Z" stroke-width="1px" stroke="#04A0D0" fill="#04A0D0"/>
        <path clip-path="url(#clip-1656478042)" d="M 46.5068,20.3467 L 46.5068,39.7246 L 47.4757,39.7246 L 47.4757,20.3467 L 46.5068,20.3467 Z" stroke-width="1px" stroke="#03A1D1" fill="#03A1D1"/>
        <path clip-path="url(#clip-1656478042)" d="M 47.4757,20.3467 L 47.4757,39.7246 L 48.4446,39.7246 L 48.4446,20.3467 L 47.4757,20.3467 Z" stroke-width="1px" stroke="#03A3D2" fill="#03A3D2"/>
        <path clip-path="url(#clip-1656478042)" d="M 48.4446,20.3467 L 48.4446,39.7246 L 49.4135,39.7246 L 49.4135,20.3467 L 48.4446,20.3467 Z" stroke-width="1px" stroke="#02A4D2" fill="#02A4D2"/>
        <path clip-path="url(#clip-1656478042)" d="M 49.4135,20.3467 L 49.4135,39.7246 L 50.3824,39.7246 L 50.3824,20.3467 L 49.4135,20.3467 Z" stroke-width="1px" stroke="#02A6D3" fill="#02A6D3"/>
        <path clip-path="url(#clip-1656478042)" d="M 50.3824,20.3467 L 50.3824,39.7246 L 51.3513,39.7246 L 51.3513,20.3467 L 50.3824,20.3467 Z" stroke-width="1px" stroke="#02A7D4" fill="#02A7D4"/>
        <path clip-path="url(#clip-1656478042)" d="M 51.3513,20.3467 L 51.3513,39.7246 L 52.3202,39.7246 L 52.3202,20.3467 L 51.3513,20.3467 Z" stroke-width="1px" stroke="#01A9D5" fill="#01A9D5"/>
        <path clip-path="url(#clip-1656478042)" d="M 52.3202,20.3467 L 52.3202,39.7246 L 53.2890,39.7246 L 53.2890,20.3467 L 52.3202,20.3467 Z" stroke-width="1px" stroke="#01AAD5" fill="#01AAD5"/>
        <path clip-path="url(#clip-1656478042)" d="M 53.2890,20.3467 L 53.2890,39.7246 L 54.2579,39.7246 L 54.2579,20.3467 L 53.2890,20.3467 Z" stroke-width="1px" stroke="#01ACD6" fill="#01ACD6"/>
        <path clip-path="url(#clip-1656478042)" d="M 54.2579,20.3467 L 54.2579,39.7246 L 55.2268,39.7246 L 55.2268,20.3467 L 54.2579,20.3467 Z" stroke-width="1px" stroke="#01ADD7" fill="#01ADD7"/>
        <path clip-path="url(#clip-1656478042)" d="M 55.2268,20.3467 L 55.2268,39.7246 L 56.1957,39.7246 L 56.1957,20.3467 L 55.2268,20.3467 Z" stroke-width="1px" stroke="#00AFD7" fill="#00AFD7"/>
        <g transform="matrix(0.0625 0.0000 0.0000 0.0625 0.0000 0.0000)">
          <path d="M 63.9469,629.7797 L 899.1316,629.7797 L 899.1316,326.5165 L 63.9469,326.5165 L 63.9469,629.7797 " stroke="#0054A6" stroke-width="9.6889" stroke-linecap="round" stroke-linejoin="round" fill="none"/>
        </g>
        <g transform="matrix(1.0000 0.0000 0.0000 1.0000 0.0000 0.0000)">
</g>
        <g transform="matrix(0.0625 0.0000 0.0000 0.0625 0.0000 0.0000)">
          <path d="M 481.5392,615.2463 C 421.4679,615.2463 337.1743,613.3085 259.6630,611.3707 C 192.8095,609.4329 159.8671,607.4952 142.4271,606.5263 C 131.7693,605.5574 105.6092,602.6507 105.6092,583.2729 L 105.6092,373.0233 C 105.6092,353.6455 130.8004,350.7388 142.4271,349.7699 C 159.8671,347.8322 192.8095,346.8633 259.6630,344.9255 C 336.2055,342.9877 421.4679,341.0499 481.5392,341.0499 C 541.6105,341.0499 626.8730,342.9877 703.4154,344.9255 C 770.2690,346.8633 803.2113,347.8322 820.6514,349.7699 C 831.3092,350.7388 857.4692,353.6455 857.4692,373.0233 L 857.4692,583.2729 C 857.4692,602.6507 831.3092,605.5574 820.6514,606.5263 C 803.2113,607.4952 770.2690,609.4329 703.4154,611.3707 C 625.9041,613.3085 541.6105,615.2463 481.5392,615.2463 Z " fill="#0054A6" stroke="none"/>
        </g>
        <g transform="matrix(1.0000 0.0000 0.0000 1.0000 0.0000 0.0000)">
</g>
        <g transform="matrix(0.0625 0.0000 0.0000 0.0625 0.0000 0.0000)">
          <path d="M 702.4466,361.3966 C 624.9352,359.4589 540.6416,358.4900 481.5392,358.4900 C 422.4368,358.4900 338.1432,359.4589 260.6319,361.3966 C 128.8626,365.2722 128.8626,367.2100 128.8626,373.0233 L 128.8626,583.2729 C 128.8626,589.0862 128.8626,590.0551 260.6319,593.9307 C 338.1432,596.8374 422.4368,597.8062 481.5392,597.8062 C 540.6416,597.8062 624.9352,596.8374 702.4466,593.9307 C 834.2158,590.0551 834.2158,589.0862 834.2158,583.2729 L 834.2158,373.0233 C 834.2158,367.2100 834.2158,365.2722 702.4466,361.3966 M 223.8140,366.2411 L 223.8140,590.0551 M 275.1653,364.3033 L 275.1653,591.0240 M 326.5165,363.3344 L 326.5165,592.9618 M 377.8678,362.3655 L 377.8678,593.9307 M 430.1880,361.3966 L 430.1880,593.9307 M 171.4938,368.1789 L 171.4938,588.1173 M 481.5392,361.3966 L 481.5392,594.8996 M 791.5846,368.1789 L 791.5846,588.1173 M 532.8905,361.3966 L 532.8905,593.9307 M 585.2106,362.3655 L 585.2106,593.9307 M 636.5619,363.3344 L 636.5619,592.9618 M 687.9132,364.3033 L 687.9132,591.0240 M 739.2644,366.2411 L 739.2644,590.0551 " stroke="#C8E6F2" stroke-width="9.6889" stroke-linecap="round" stroke-linejoin="round" fill="none"/>
        </g>
        <g transform="matrix(1.0000 0.0000 0.0000 1.0000 0.0000 0.0000)">
</g>
        <g transform="matrix(0.0625 0.0000 0.0000 0.0625 0.0000 0.0000)">
          <path d="M 500.9171,433.0946 C 505.7615,433.0946 509.6371,436.0013 509.6371,439.8769 L 509.6371,518.3571 C 509.6371,522.2327 505.7615,525.1394 500.9171,525.1394 L 462.1614,525.1394 C 457.3169,525.1394 453.4414,522.2327 453.4414,518.3571 L 453.4414,439.8769 C 453.4414,436.0013 457.3169,433.0946 462.1614,433.0946 L 500.9171,433.0946 Z " fill="#C8E6F2" stroke="none"/>
        </g>
        <g transform="matrix(1.0000 0.0000 0.0000 1.0000 0.0000 0.0000)">
          <defs>
            <clipPath id="clip-1131176229">
              <path d="M 4.8445,1.9378 L 56.1957,1.9378 L 56.1957,20.3467 L 4.8445,20.3467 L 4.8445,1.9378 Z Z"/>
            </clipPath>
          </defs>
          <path clip-path="url(#clip-1131176229)" d="M 3.8756,0.9689 L 3.8756,20.3467 L 4.8445,20.3467 L 4.8445,0.9689 L 3.8756,0.9689 Z" stroke-width="1px" stroke="#00B0D8" fill="#00B0D8"/>
          <path clip-path="url(#clip-1131176229)" d="M 4.8445,0.9689 L 4.8445,20.3467 L 5.8134,20.3467 L 5.8134,0.9689 L 4.8445,0.9689 Z" stroke-width="1px" stroke="#1263B2" fill="#1263B2"/>
          <path clip-path="url(#clip-1131176229)" d="M 5.8134,0.9689 L 5.8134,20.3467 L 6.7822,20.3467 L 6.7822,0.9689 L 5.8134,0.9689 Z" stroke-width="1px" stroke="#1165B2" fill="#1165B2"/>
          <path clip-path="url(#clip-1131176229)" d="M 6.7822,0.9689 L 6.7822,20.3467 L 7.7511,20.3467 L 7.7511,0.9689 L 6.7822,0.9689 Z" stroke-width="1px" stroke="#1166B3" fill="#1166B3"/>
          <path clip-path="url(#clip-1131176229)" d="M 7.7511,0.9689 L 7.7511,20.3467 L 8.7200,20.3467 L 8.7200,0.9689 L 7.7511,0.9689 Z" stroke-width="1px" stroke="#1168B3" fill="#1168B3"/>
          <path clip-path="url(#clip-1131176229)" d="M 8.7200,0.9689 L 8.7200,20.3467 L 9.6889,20.3467 L 9.6889,0.9689 L 8.7200,0.9689 Z" stroke-width="1px" stroke="#1169B4" fill="#1169B4"/>
          <path clip-path="url(#clip-1131176229)" d="M 9.6889,0.9689 L 9.6889,20.3467 L 10.6578,20.3467 L 10.6578,0.9689 L 9.6889,0.9689 Z" stroke-width="1px" stroke="#106BB5" fill="#106BB5"/>
          <path clip-path="url(#clip-1131176229)" d="M 10.6578,0.9689 L 10.6578,20.3467 L 11.6267,20.3467 L 11.6267,0.9689 L 10.6578,0.9689 Z" stroke-width="1px" stroke="#106CB6" fill="#106CB6"/>
          <path clip-path="url(#clip-1131176229)" d="M 11.6267,0.9689 L 11.6267,20.3467 L 12.5956,20.3467 L 12.5956,0.9689 L 11.6267,0.9689 Z" stroke-width="1px" stroke="#106EB7" fill="#106EB7"/>
          <path clip-path="url(#clip-1131176229)" d="M 12.5956,0.9689 L 12.5956,20.3467 L 13.5645,20.3467 L 13.5645,0.9689 L 12.5956,0.9689 Z" stroke-width="1px" stroke="#0F6FB7" fill="#0F6FB7"/>
          <path clip-path="url(#clip-1131176229)" d="M 13.5645,0.9689 L 13.5645,20.3467 L 14.5334,20.3467 L 14.5334,0.9689 L 13.5645,0.9689 Z" stroke-width="1px" stroke="#0F71B8" fill="#0F71B8"/>
          <path clip-path="url(#clip-1131176229)" d="M 14.5334,0.9689 L 14.5334,20.3467 L 15.5023,20.3467 L 15.5023,0.9689 L 14.5334,0.9689 Z" stroke-width="1px" stroke="#0F72B9" fill="#0F72B9"/>
          <path clip-path="url(#clip-1131176229)" d="M 15.5023,0.9689 L 15.5023,20.3467 L 16.4712,20.3467 L 16.4712,0.9689 L 15.5023,0.9689 Z" stroke-width="1px" stroke="#0E74BA" fill="#0E74BA"/>
          <path clip-path="url(#clip-1131176229)" d="M 16.4712,0.9689 L 16.4712,20.3467 L 17.4401,20.3467 L 17.4401,0.9689 L 16.4712,0.9689 Z" stroke-width="1px" stroke="#0E75BA" fill="#0E75BA"/>
          <path clip-path="url(#clip-1131176229)" d="M 17.4401,0.9689 L 17.4401,20.3467 L 18.4089,20.3467 L 18.4089,0.9689 L 17.4401,0.9689 Z" stroke-width="1px" stroke="#0E77BB" fill="#0E77BB"/>
          <path clip-path="url(#clip-1131176229)" d="M 18.4089,0.9689 L 18.4089,20.3467 L 19.3778,20.3467 L 19.3778,0.9689 L 18.4089,0.9689 Z" stroke-width="1px" stroke="#0D78BC" fill="#0D78BC"/>
          <path clip-path="url(#clip-1131176229)" d="M 19.3778,0.9689 L 19.3778,20.3467 L 20.3467,20.3467 L 20.3467,0.9689 L 19.3778,0.9689 Z" stroke-width="1px" stroke="#0D79BC" fill="#0D79BC"/>
          <path clip-path="url(#clip-1131176229)" d="M 20.3467,0.9689 L 20.3467,20.3467 L 21.3156,20.3467 L 21.3156,0.9689 L 20.3467,0.9689 Z" stroke-width="1px" stroke="#0C7ABD" fill="#0C7ABD"/>
          <path clip-path="url(#clip-1131176229)" d="M 21.3156,0.9689 L 21.3156,20.3467 L 22.2845,20.3467 L 22.2845,0.9689 L 21.3156,0.9689 Z" stroke-width="1px" stroke="#0C7CBE" fill="#0C7CBE"/>
          <path clip-path="url(#clip-1131176229)" d="M 22.2845,0.9689 L 22.2845,20.3467 L 23.2534,20.3467 L 23.2534,0.9689 L 22.2845,0.9689 Z" stroke-width="1px" stroke="#0B7DBF" fill="#0B7DBF"/>
          <path clip-path="url(#clip-1131176229)" d="M 23.2534,0.9689 L 23.2534,20.3467 L 24.2223,20.3467 L 24.2223,0.9689 L 23.2534,0.9689 Z" stroke-width="1px" stroke="#0B7FC0" fill="#0B7FC0"/>
          <path clip-path="url(#clip-1131176229)" d="M 24.2223,0.9689 L 24.2223,20.3467 L 25.1912,20.3467 L 25.1912,0.9689 L 24.2223,0.9689 Z" stroke-width="1px" stroke="#0B80C0" fill="#0B80C0"/>
          <path clip-path="url(#clip-1131176229)" d="M 25.1912,0.9689 L 25.1912,20.3467 L 26.1601,20.3467 L 26.1601,0.9689 L 25.1912,0.9689 Z" stroke-width="1px" stroke="#0A82C1" fill="#0A82C1"/>
          <path clip-path="url(#clip-1131176229)" d="M 26.1601,0.9689 L 26.1601,20.3467 L 27.1290,20.3467 L 27.1290,0.9689 L 26.1601,0.9689 Z" stroke-width="1px" stroke="#0A83C2" fill="#0A83C2"/>
          <path clip-path="url(#clip-1131176229)" d="M 27.1290,0.9689 L 27.1290,20.3467 L 28.0979,20.3467 L 28.0979,0.9689 L 27.1290,0.9689 Z" stroke-width="1px" stroke="#0A84C2" fill="#0A84C2"/>
          <path clip-path="url(#clip-1131176229)" d="M 28.0979,0.9689 L 28.0979,20.3467 L 29.0668,20.3467 L 29.0668,0.9689 L 28.0979,0.9689 Z" stroke-width="1px" stroke="#0A86C3" fill="#0A86C3"/>
          <path clip-path="url(#clip-1131176229)" d="M 29.0668,0.9689 L 29.0668,20.3467 L 30.0356,20.3467 L 30.0356,0.9689 L 29.0668,0.9689 Z" stroke-width="1px" stroke="#0987C4" fill="#0987C4"/>
          <path clip-path="url(#clip-1131176229)" d="M 30.0356,0.9689 L 30.0356,20.3467 L 31.0045,20.3467 L 31.0045,0.9689 L 30.0356,0.9689 Z" stroke-width="1px" stroke="#0989C5" fill="#0989C5"/>
          <path clip-path="url(#clip-1131176229)" d="M 31.0045,0.9689 L 31.0045,20.3467 L 31.9734,20.3467 L 31.9734,0.9689 L 31.0045,0.9689 Z" stroke-width="1px" stroke="#098AC6" fill="#098AC6"/>
          <path clip-path="url(#clip-1131176229)" d="M 31.9734,0.9689 L 31.9734,20.3467 L 32.9423,20.3467 L 32.9423,0.9689 L 31.9734,0.9689 Z" stroke-width="1px" stroke="#088CC6" fill="#088CC6"/>
          <path clip-path="url(#clip-1131176229)" d="M 32.9423,0.9689 L 32.9423,20.3467 L 33.9112,20.3467 L 33.9112,0.9689 L 32.9423,0.9689 Z" stroke-width="1px" stroke="#088DC7" fill="#088DC7"/>
          <path clip-path="url(#clip-1131176229)" d="M 33.9112,0.9689 L 33.9112,20.3467 L 34.8801,20.3467 L 34.8801,0.9689 L 33.9112,0.9689 Z" stroke-width="1px" stroke="#088FC7" fill="#088FC7"/>
          <path clip-path="url(#clip-1131176229)" d="M 34.8801,0.9689 L 34.8801,20.3467 L 35.8490,20.3467 L 35.8490,0.9689 L 34.8801,0.9689 Z" stroke-width="1px" stroke="#0890C8" fill="#0890C8"/>
          <path clip-path="url(#clip-1131176229)" d="M 35.8490,0.9689 L 35.8490,20.3467 L 36.8179,20.3467 L 36.8179,0.9689 L 35.8490,0.9689 Z" stroke-width="1px" stroke="#0792C9" fill="#0792C9"/>
          <path clip-path="url(#clip-1131176229)" d="M 36.8179,0.9689 L 36.8179,20.3467 L 37.7868,20.3467 L 37.7868,0.9689 L 36.8179,0.9689 Z" stroke-width="1px" stroke="#0793C9" fill="#0793C9"/>
          <path clip-path="url(#clip-1131176229)" d="M 37.7868,0.9689 L 37.7868,20.3467 L 38.7557,20.3467 L 38.7557,0.9689 L 37.7868,0.9689 Z" stroke-width="1px" stroke="#0795CA" fill="#0795CA"/>
          <path clip-path="url(#clip-1131176229)" d="M 38.7557,0.9689 L 38.7557,20.3467 L 39.7246,20.3467 L 39.7246,0.9689 L 38.7557,0.9689 Z" stroke-width="1px" stroke="#0696CB" fill="#0696CB"/>
          <path clip-path="url(#clip-1131176229)" d="M 39.7246,0.9689 L 39.7246,20.3467 L 40.6935,20.3467 L 40.6935,0.9689 L 39.7246,0.9689 Z" stroke-width="1px" stroke="#0698CC" fill="#0698CC"/>
          <path clip-path="url(#clip-1131176229)" d="M 40.6935,0.9689 L 40.6935,20.3467 L 41.6623,20.3467 L 41.6623,0.9689 L 40.6935,0.9689 Z" stroke-width="1px" stroke="#0699CD" fill="#0699CD"/>
          <path clip-path="url(#clip-1131176229)" d="M 41.6623,0.9689 L 41.6623,20.3467 L 42.6312,20.3467 L 42.6312,0.9689 L 41.6623,0.9689 Z" stroke-width="1px" stroke="#059BCD" fill="#059BCD"/>
          <path clip-path="url(#clip-1131176229)" d="M 42.6312,0.9689 L 42.6312,20.3467 L 43.6001,20.3467 L 43.6001,0.9689 L 42.6312,0.9689 Z" stroke-width="1px" stroke="#059CCE" fill="#059CCE"/>
          <path clip-path="url(#clip-1131176229)" d="M 43.6001,0.9689 L 43.6001,20.3467 L 44.5690,20.3467 L 44.5690,0.9689 L 43.6001,0.9689 Z" stroke-width="1px" stroke="#059ECE" fill="#059ECE"/>
          <path clip-path="url(#clip-1131176229)" d="M 44.5690,0.9689 L 44.5690,20.3467 L 45.5379,20.3467 L 45.5379,0.9689 L 44.5690,0.9689 Z" stroke-width="1px" stroke="#049FCF" fill="#049FCF"/>
          <path clip-path="url(#clip-1131176229)" d="M 45.5379,0.9689 L 45.5379,20.3467 L 46.5068,20.3467 L 46.5068,0.9689 L 45.5379,0.9689 Z" stroke-width="1px" stroke="#04A0D0" fill="#04A0D0"/>
          <path clip-path="url(#clip-1131176229)" d="M 46.5068,0.9689 L 46.5068,20.3467 L 47.4757,20.3467 L 47.4757,0.9689 L 46.5068,0.9689 Z" stroke-width="1px" stroke="#03A1D1" fill="#03A1D1"/>
          <path clip-path="url(#clip-1131176229)" d="M 47.4757,0.9689 L 47.4757,20.3467 L 48.4446,20.3467 L 48.4446,0.9689 L 47.4757,0.9689 Z" stroke-width="1px" stroke="#03A3D2" fill="#03A3D2"/>
          <path clip-path="url(#clip-1131176229)" d="M 48.4446,0.9689 L 48.4446,20.3467 L 49.4135,20.3467 L 49.4135,0.9689 L 48.4446,0.9689 Z" stroke-width="1px" stroke="#02A4D2" fill="#02A4D2"/>
          <path clip-path="url(#clip-1131176229)" d="M 49.4135,0.9689 L 49.4135,20.3467 L 50.3824,20.3467 L 50.3824,0.9689 L 49.4135,0.9689 Z" stroke-width="1px" stroke="#02A6D3" fill="#02A6D3"/>
          <path clip-path="url(#clip-1131176229)" d="M 50.3824,0.9689 L 50.3824,20.3467 L 51.3513,20.3467 L 51.3513,0.9689 L 50.3824,0.9689 Z" stroke-width="1px" stroke="#02A7D4" fill="#02A7D4"/>
          <path clip-path="url(#clip-1131176229)" d="M 51.3513,0.9689 L 51.3513,20.3467 L 52.3202,20.3467 L 52.3202,0.9689 L 51.3513,0.9689 Z" stroke-width="1px" stroke="#01A9D5" fill="#01A9D5"/>
          <path clip-path="url(#clip-1131176229)" d="M 52.3202,0.9689 L 52.3202,20.3467 L 53.2890,20.3467 L 53.2890,0.9689 L 52.3202,0.9689 Z" stroke-width="1px" stroke="#01AAD5" fill="#01AAD5"/>
          <path clip-path="url(#clip-1131176229)" d="M 53.2890,0.9689 L 53.2890,20.3467 L 54.2579,20.3467 L 54.2579,0.9689 L 53.2890,0.9689 Z" stroke-width="1px" stroke="#01ACD6" fill="#01ACD6"/>
          <path clip-path="url(#clip-1131176229)" d="M 54.2579,0.9689 L 54.2579,20.3467 L 55.2268,20.3467 L 55.2268,0.9689 L 54.2579,0.9689 Z" stroke-width="1px" stroke="#01ADD7" fill="#01ADD7"/>
          <path clip-path="url(#clip-1131176229)" d="M 55.2268,0.9689 L 55.2268,20.3467 L 56.1957,20.3467 L 56.1957,0.9689 L 55.2268,0.9689 Z" stroke-width="1px" stroke="#00AFD7" fill="#00AFD7"/>
        </g>
        <g transform="matrix(0.0625 0.0000 0.0000 0.0625 0.0000 0.0000)">
          <path d="M 63.9469,321.6721 L 899.1316,321.6721 L 899.1316,18.4089 L 63.9469,18.4089 L 63.9469,321.6721 " stroke="#0054A6" stroke-width="9.6889" stroke-linecap="round" stroke-linejoin="round" fill="none"/>
        </g>
        <g transform="matrix(1.0000 0.0000 0.0000 1.0000 0.0000 0.0000)">
</g>
        <g transform="matrix(0.0625 0.0000 0.0000 0.0625 0.0000 0.0000)">
          <path d="M 481.5392,307.1387 C 421.4679,307.1387 337.1743,305.2009 259.6630,303.2631 C 192.8095,301.3254 159.8671,300.3565 142.4271,298.4187 C 131.7693,297.4498 105.6092,294.5431 105.6092,275.1653 L 105.6092,64.9158 C 105.6092,45.5379 130.8004,42.6312 142.4271,41.6623 C 159.8671,40.6935 192.8095,38.7557 259.6630,36.8179 C 336.2055,34.8801 421.4679,32.9423 481.5392,32.9423 C 541.6105,32.9423 626.8730,34.8801 703.4154,36.8179 C 770.2690,38.7557 803.2113,40.6935 820.6514,41.6623 C 831.3092,42.6312 857.4692,45.5379 857.4692,64.9158 L 857.4692,275.1653 C 857.4692,294.5431 831.3092,297.4498 820.6514,298.4187 C 803.2113,300.3565 770.2690,301.3254 703.4154,303.2631 C 625.9041,305.2009 541.6105,307.1387 481.5392,307.1387 Z " fill="#0054A6" stroke="none"/>
        </g>
        <g transform="matrix(1.0000 0.0000 0.0000 1.0000 0.0000 0.0000)">
</g>
        <g transform="matrix(0.0625 0.0000 0.0000 0.0625 0.0000 0.0000)">
          <path d="M 702.4466,54.2579 C 624.9352,51.3513 540.6416,50.3824 481.5392,50.3824 C 422.4368,50.3824 338.1432,51.3513 260.6319,54.2579 C 128.8626,58.1335 128.8626,59.1024 128.8626,64.9158 L 128.8626,275.1653 C 128.8626,280.9786 128.8626,282.9164 260.6319,286.7920 C 338.1432,288.7298 422.4368,289.6986 481.5392,289.6986 C 540.6416,289.6986 624.9352,288.7298 702.4466,286.7920 C 834.2158,282.9164 834.2158,280.9786 834.2158,275.1653 L 834.2158,64.9158 C 834.2158,59.1024 834.2158,58.1335 702.4466,54.2579 M 223.8140,58.1335 L 223.8140,281.9475 M 275.1653,57.1646 L 275.1653,283.8853 M 326.5165,55.2268 L 326.5165,284.8542 M 377.8678,54.2579 L 377.8678,285.8231 M 430.1880,54.2579 L 430.1880,286.7920 M 171.4938,60.0713 L 171.4938,280.0097 M 481.5392,53.2890 L 481.5392,286.7920 M 791.5846,60.0713 L 791.5846,280.0097 M 532.8905,54.2579 L 532.8905,286.7920 M 585.2106,54.2579 L 585.2106,285.8231 M 636.5619,55.2268 L 636.5619,284.8542 M 687.9132,57.1646 L 687.9132,283.8853 M 739.2644,58.1335 L 739.2644,281.9475 " stroke="#C8E6F2" stroke-width="9.6889" stroke-linecap="round" stroke-linejoin="round" fill="none"/>
        </g>
        <g transform="matrix(1.0000 0.0000 0.0000 1.0000 0.0000 0.0000)">
</g>
        <g transform="matrix(0.0625 0.0000 0.0000 0.0625 0.0000 0.0000)">
          <path d="M 500.9171,124.9870 C 505.7615,124.9870 509.6371,127.8937 509.6371,131.7693 L 509.6371,211.2184 C 509.6371,214.1251 505.7615,217.0318 500.9171,217.0318 L 462.1614,217.0318 C 457.3169,217.0318 453.4414,214.1251 453.4414,211.2184 L 453.4414,131.7693 C 453.4414,127.8937 457.3169,124.9870 462.1614,124.9870 L 500.9171,124.9870 Z " fill="#C8E6F2" stroke="none"/>
        </g>
        <g transform="matrix(1.0000 0.0000 0.0000 1.0000 0.0000 0.0000)">
          <path d="M 1.9378,2.9067 L 1.9378,20.3467 L 4.8445,20.3467 L 4.8445,1.9378 L 1.9378,2.9067 " fill="none" stroke="none"/>
          <defs>
            <clipPath id="clip-1653377373">
              <path d="M 1.9378,2.9067 L 1.9378,20.3467 L 4.8445,20.3467 L 4.8445,1.9378 L 1.9378,2.9067 Z"/>
            </clipPath>
          </defs>
          <path clip-path="url(#clip-1653377373)" d="M 0.9689,0.9689 L 0.9689,1.9378 L 3.8756,1.9378 L 3.8756,0.9689 L 0.9689,0.9689 Z" stroke-width="1px" stroke="#55BCEB" fill="#55BCEB"/>
          <path clip-path="url(#clip-1653377373)" d="M 0.9689,1.9378 L 0.9689,2.9067 L 3.8756,2.9067 L 3.8756,1.9378 L 0.9689,1.9378 Z" stroke-width="1px" stroke="#037AC2" fill="#037AC2"/>
          <path clip-path="url(#clip-1653377373)" d="M 0.9689,2.9067 L 0.9689,3.8756 L 3.8756,3.8756 L 3.8756,2.9067 L 0.9689,2.9067 Z" stroke-width="1px" stroke="#087EC4" fill="#087EC4"/>
          <path clip-path="url(#clip-1653377373)" d="M 0.9689,3.8756 L 0.9689,4.8445 L 3.8756,4.8445 L 3.8756,3.8756 L 0.9689,3.8756 Z" stroke-width="1px" stroke="#0D81C6" fill="#0D81C6"/>
          <path clip-path="url(#clip-1653377373)" d="M 0.9689,4.8445 L 0.9689,5.8134 L 3.8756,5.8134 L 3.8756,4.8445 L 0.9689,4.8445 Z" stroke-width="1px" stroke="#1185C8" fill="#1185C8"/>
          <path clip-path="url(#clip-1653377373)" d="M 0.9689,5.8134 L 0.9689,6.7822 L 3.8756,6.7822 L 3.8756,5.8134 L 0.9689,5.8134 Z" stroke-width="1px" stroke="#1688CB" fill="#1688CB"/>
          <path clip-path="url(#clip-1653377373)" d="M 0.9689,6.7822 L 0.9689,7.7511 L 3.8756,7.7511 L 3.8756,6.7822 L 0.9689,6.7822 Z" stroke-width="1px" stroke="#1A8CCD" fill="#1A8CCD"/>
          <path clip-path="url(#clip-1653377373)" d="M 0.9689,7.7511 L 0.9689,8.7200 L 3.8756,8.7200 L 3.8756,7.7511 L 0.9689,7.7511 Z" stroke-width="1px" stroke="#1E8FCF" fill="#1E8FCF"/>
          <path clip-path="url(#clip-1653377373)" d="M 0.9689,8.7200 L 0.9689,9.6889 L 3.8756,9.6889 L 3.8756,8.7200 L 0.9689,8.7200 Z" stroke-width="1px" stroke="#2293D1" fill="#2293D1"/>
          <path clip-path="url(#clip-1653377373)" d="M 0.9689,9.6889 L 0.9689,10.6578 L 3.8756,10.6578 L 3.8756,9.6889 L 0.9689,9.6889 Z" stroke-width="1px" stroke="#2796D4" fill="#2796D4"/>
          <path clip-path="url(#clip-1653377373)" d="M 0.9689,10.6578 L 0.9689,11.6267 L 3.8756,11.6267 L 3.8756,10.6578 L 0.9689,10.6578 Z" stroke-width="1px" stroke="#2B9AD6" fill="#2B9AD6"/>
          <path clip-path="url(#clip-1653377373)" d="M 0.9689,11.6267 L 0.9689,12.5956 L 3.8756,12.5956 L 3.8756,11.6267 L 0.9689,11.6267 Z" stroke-width="1px" stroke="#2F9DD8" fill="#2F9DD8"/>
          <path clip-path="url(#clip-1653377373)" d="M 0.9689,12.5956 L 0.9689,13.5645 L 3.8756,13.5645 L 3.8756,12.5956 L 0.9689,12.5956 Z" stroke-width="1px" stroke="#34A1DA" fill="#34A1DA"/>
          <path clip-path="url(#clip-1653377373)" d="M 0.9689,13.5645 L 0.9689,14.5334 L 3.8756,14.5334 L 3.8756,13.5645 L 0.9689,13.5645 Z" stroke-width="1px" stroke="#39A4DD" fill="#39A4DD"/>
          <path clip-path="url(#clip-1653377373)" d="M 0.9689,14.5334 L 0.9689,15.5023 L 3.8756,15.5023 L 3.8756,14.5334 L 0.9689,14.5334 Z" stroke-width="1px" stroke="#3DA8DF" fill="#3DA8DF"/>
          <path clip-path="url(#clip-1653377373)" d="M 0.9689,15.5023 L 0.9689,16.4712 L 3.8756,16.4712 L 3.8756,15.5023 L 0.9689,15.5023 Z" stroke-width="1px" stroke="#42ACE0" fill="#42ACE0"/>
          <path clip-path="url(#clip-1653377373)" d="M 0.9689,16.4712 L 0.9689,17.4401 L 3.8756,17.4401 L 3.8756,16.4712 L 0.9689,16.4712 Z" stroke-width="1px" stroke="#46AFE3" fill="#46AFE3"/>
          <path clip-path="url(#clip-1653377373)" d="M 0.9689,17.4401 L 0.9689,18.4089 L 3.8756,18.4089 L 3.8756,17.4401 L 0.9689,17.4401 Z" stroke-width="1px" stroke="#4AB2E5" fill="#4AB2E5"/>
          <path clip-path="url(#clip-1653377373)" d="M 0.9689,18.4089 L 0.9689,19.3778 L 3.8756,19.3778 L 3.8756,18.4089 L 0.9689,18.4089 Z" stroke-width="1px" stroke="#4FB6E7" fill="#4FB6E7"/>
          <path clip-path="url(#clip-1653377373)" d="M 0.9689,19.3778 L 0.9689,20.3467 L 3.8756,20.3467 L 3.8756,19.3778 L 0.9689,19.3778 Z" stroke-width="1px" stroke="#53BAE9" fill="#53BAE9"/>
        </g>
        <g transform="matrix(0.0625 0.0000 0.0000 0.0625 0.0000 0.0000)">
          <path d="M 18.4089,44.5690 L 18.4089,321.6721 L 63.9469,321.6721 L 63.9469,18.4089 L 18.4089,44.5690 " stroke="#0054A6" stroke-width="9.6889" stroke-linecap="round" stroke-linejoin="round" fill="none"/>
        </g>
        <g transform="matrix(1.0000 0.0000 0.0000 1.0000 0.0000 0.0000)">
          <path d="M 4.8445,39.7246 L 4.8445,20.3467 L 1.9378,20.3467 L 1.9378,37.7868 L 4.8445,39.7246 " fill="none" stroke="none"/>
          <defs>
            <clipPath id="clip-859484421">
              <path d="M 4.8445,39.7246 L 4.8445,20.3467 L 1.9378,20.3467 L 1.9378,37.7868 L 4.8445,39.7246 Z"/>
            </clipPath>
          </defs>
          <path clip-path="url(#clip-859484421)" d="M 0.9689,20.3467 L 0.9689,21.3156 L 3.8756,21.3156 L 3.8756,20.3467 L 0.9689,20.3467 Z" stroke-width="1px" stroke="#56BCEB" fill="#56BCEB"/>
          <path clip-path="url(#clip-859484421)" d="M 0.9689,21.3156 L 0.9689,22.2845 L 3.8756,22.2845 L 3.8756,21.3156 L 0.9689,21.3156 Z" stroke-width="1px" stroke="#047AC2" fill="#047AC2"/>
          <path clip-path="url(#clip-859484421)" d="M 0.9689,22.2845 L 0.9689,23.2534 L 3.8756,23.2534 L 3.8756,22.2845 L 0.9689,22.2845 Z" stroke-width="1px" stroke="#097EC4" fill="#097EC4"/>
          <path clip-path="url(#clip-859484421)" d="M 0.9689,23.2534 L 0.9689,24.2223 L 3.8756,24.2223 L 3.8756,23.2534 L 0.9689,23.2534 Z" stroke-width="1px" stroke="#0D82C6" fill="#0D82C6"/>
          <path clip-path="url(#clip-859484421)" d="M 0.9689,24.2223 L 0.9689,25.1912 L 3.8756,25.1912 L 3.8756,24.2223 L 0.9689,24.2223 Z" stroke-width="1px" stroke="#1285C9" fill="#1285C9"/>
          <path clip-path="url(#clip-859484421)" d="M 0.9689,25.1912 L 0.9689,26.1601 L 3.8756,26.1601 L 3.8756,25.1912 L 0.9689,25.1912 Z" stroke-width="1px" stroke="#1688CB" fill="#1688CB"/>
          <path clip-path="url(#clip-859484421)" d="M 0.9689,26.1601 L 0.9689,27.1290 L 3.8756,27.1290 L 3.8756,26.1601 L 0.9689,26.1601 Z" stroke-width="1px" stroke="#1A8CCD" fill="#1A8CCD"/>
          <path clip-path="url(#clip-859484421)" d="M 0.9689,27.1290 L 0.9689,28.0979 L 3.8756,28.0979 L 3.8756,27.1290 L 0.9689,27.1290 Z" stroke-width="1px" stroke="#1F90CF" fill="#1F90CF"/>
          <path clip-path="url(#clip-859484421)" d="M 0.9689,28.0979 L 0.9689,29.0668 L 3.8756,29.0668 L 3.8756,28.0979 L 0.9689,28.0979 Z" stroke-width="1px" stroke="#2393D2" fill="#2393D2"/>
          <path clip-path="url(#clip-859484421)" d="M 0.9689,29.0668 L 0.9689,30.0356 L 3.8756,30.0356 L 3.8756,29.0668 L 0.9689,29.0668 Z" stroke-width="1px" stroke="#2897D4" fill="#2897D4"/>
          <path clip-path="url(#clip-859484421)" d="M 0.9689,30.0356 L 0.9689,31.0045 L 3.8756,31.0045 L 3.8756,30.0356 L 0.9689,30.0356 Z" stroke-width="1px" stroke="#2C9BD6" fill="#2C9BD6"/>
          <path clip-path="url(#clip-859484421)" d="M 0.9689,31.0045 L 0.9689,31.9734 L 3.8756,31.9734 L 3.8756,31.0045 L 0.9689,31.0045 Z" stroke-width="1px" stroke="#309ED8" fill="#309ED8"/>
          <path clip-path="url(#clip-859484421)" d="M 0.9689,31.9734 L 0.9689,32.9423 L 3.8756,32.9423 L 3.8756,31.9734 L 0.9689,31.9734 Z" stroke-width="1px" stroke="#35A1DA" fill="#35A1DA"/>
          <path clip-path="url(#clip-859484421)" d="M 0.9689,32.9423 L 0.9689,33.9112 L 3.8756,33.9112 L 3.8756,32.9423 L 0.9689,32.9423 Z" stroke-width="1px" stroke="#39A4DD" fill="#39A4DD"/>
          <path clip-path="url(#clip-859484421)" d="M 0.9689,33.9112 L 0.9689,34.8801 L 3.8756,34.8801 L 3.8756,33.9112 L 0.9689,33.9112 Z" stroke-width="1px" stroke="#3EA8DF" fill="#3EA8DF"/>
          <path clip-path="url(#clip-859484421)" d="M 0.9689,34.8801 L 0.9689,35.8490 L 3.8756,35.8490 L 3.8756,34.8801 L 0.9689,34.8801 Z" stroke-width="1px" stroke="#42ACE1" fill="#42ACE1"/>
          <path clip-path="url(#clip-859484421)" d="M 0.9689,35.8490 L 0.9689,36.8179 L 3.8756,36.8179 L 3.8756,35.8490 L 0.9689,35.8490 Z" stroke-width="1px" stroke="#46AFE3" fill="#46AFE3"/>
          <path clip-path="url(#clip-859484421)" d="M 0.9689,36.8179 L 0.9689,37.7868 L 3.8756,37.7868 L 3.8756,36.8179 L 0.9689,36.8179 Z" stroke-width="1px" stroke="#4AB3E6" fill="#4AB3E6"/>
          <path clip-path="url(#clip-859484421)" d="M 0.9689,37.7868 L 0.9689,38.7557 L 3.8756,38.7557 L 3.8756,37.7868 L 0.9689,37.7868 Z" stroke-width="1px" stroke="#4FB7E7" fill="#4FB7E7"/>
          <path clip-path="url(#clip-859484421)" d="M 0.9689,38.7557 L 0.9689,39.7246 L 3.8756,39.7246 L 3.8756,38.7557 L 0.9689,38.7557 Z" stroke-width="1px" stroke="#54BAEA" fill="#54BAEA"/>
        </g>
        <g transform="matrix(0.0625 0.0000 0.0000 0.0625 0.0000 0.0000)">
          <path d="M 63.9469,629.7797 L 63.9469,326.5165 L 18.4089,326.5165 L 18.4089,603.6196 L 63.9469,629.7797 " stroke="#0054A6" stroke-width="9.6889" stroke-linecap="round" stroke-linejoin="round" fill="none"/>
        </g>
        <g transform="matrix(1.0000 0.0000 0.0000 1.0000 0.0000 0.0000)">
</g>
      </g>
      <!--emf-blob end-->
    </g>
  </g>
</svg>
