<svg xmlns="http://www.w3.org/2000/svg" xmlns:xlink="http://www.w3.org/1999/xlink" version="1.1" width="56.6929000000" height="19.7014000000">
  <title><![CDATA[FAS2020 Cluster]]></title>
  <g transform=" scale(1.000000) ">
    <!--converted by libvisio2svg-->
    <g transform=" translate(-1.172700,-1.089900) ">
      <!--emf-blob start-->
      <g transform="translate(0.9177, 0.9177)">
        <defs>
          <clipPath id="clip-635723058">
            <path d="M 4.5886,11.0126 L 53.2276,11.0126 L 53.2276,19.2721 L 4.5886,19.2721 L 4.5886,11.0126 Z Z"/>
          </clipPath>
        </defs>
        <path clip-path="url(#clip-635723058)" d="M 3.6709,10.0949 L 3.6709,19.2721 L 4.5886,19.2721 L 4.5886,10.0949 L 3.6709,10.0949 Z" stroke-width="1px" stroke="#00B0D8" fill="#00B0D8"/>
        <path clip-path="url(#clip-635723058)" d="M 4.5886,10.0949 L 4.5886,19.2721 L 5.5063,19.2721 L 5.5063,10.0949 L 4.5886,10.0949 Z" stroke-width="1px" stroke="#1263B2" fill="#1263B2"/>
        <path clip-path="url(#clip-635723058)" d="M 5.5063,10.0949 L 5.5063,19.2721 L 6.4240,19.2721 L 6.4240,10.0949 L 5.5063,10.0949 Z" stroke-width="1px" stroke="#1165B2" fill="#1165B2"/>
        <path clip-path="url(#clip-635723058)" d="M 6.4240,10.0949 L 6.4240,19.2721 L 7.3417,19.2721 L 7.3417,10.0949 L 6.4240,10.0949 Z" stroke-width="1px" stroke="#1166B3" fill="#1166B3"/>
        <path clip-path="url(#clip-635723058)" d="M 7.3417,10.0949 L 7.3417,19.2721 L 8.2594,19.2721 L 8.2594,10.0949 L 7.3417,10.0949 Z" stroke-width="1px" stroke="#1168B3" fill="#1168B3"/>
        <path clip-path="url(#clip-635723058)" d="M 8.2594,10.0949 L 8.2594,19.2721 L 9.1772,19.2721 L 9.1772,10.0949 L 8.2594,10.0949 Z" stroke-width="1px" stroke="#1169B4" fill="#1169B4"/>
        <path clip-path="url(#clip-635723058)" d="M 9.1772,10.0949 L 9.1772,19.2721 L 10.0949,19.2721 L 10.0949,10.0949 L 9.1772,10.0949 Z" stroke-width="1px" stroke="#106BB5" fill="#106BB5"/>
        <path clip-path="url(#clip-635723058)" d="M 10.0949,10.0949 L 10.0949,19.2721 L 11.0126,19.2721 L 11.0126,10.0949 L 10.0949,10.0949 Z" stroke-width="1px" stroke="#106CB6" fill="#106CB6"/>
        <path clip-path="url(#clip-635723058)" d="M 11.0126,10.0949 L 11.0126,19.2721 L 11.9303,19.2721 L 11.9303,10.0949 L 11.0126,10.0949 Z" stroke-width="1px" stroke="#106EB7" fill="#106EB7"/>
        <path clip-path="url(#clip-635723058)" d="M 11.9303,10.0949 L 11.9303,19.2721 L 12.8480,19.2721 L 12.8480,10.0949 L 11.9303,10.0949 Z" stroke-width="1px" stroke="#0F6FB7" fill="#0F6FB7"/>
        <path clip-path="url(#clip-635723058)" d="M 12.8480,10.0949 L 12.8480,19.2721 L 13.7657,19.2721 L 13.7657,10.0949 L 12.8480,10.0949 Z" stroke-width="1px" stroke="#0F71B8" fill="#0F71B8"/>
        <path clip-path="url(#clip-635723058)" d="M 13.7657,10.0949 L 13.7657,19.2721 L 14.6835,19.2721 L 14.6835,10.0949 L 13.7657,10.0949 Z" stroke-width="1px" stroke="#0F72B9" fill="#0F72B9"/>
        <path clip-path="url(#clip-635723058)" d="M 14.6835,10.0949 L 14.6835,19.2721 L 15.6012,19.2721 L 15.6012,10.0949 L 14.6835,10.0949 Z" stroke-width="1px" stroke="#0E74BA" fill="#0E74BA"/>
        <path clip-path="url(#clip-635723058)" d="M 15.6012,10.0949 L 15.6012,19.2721 L 16.5189,19.2721 L 16.5189,10.0949 L 15.6012,10.0949 Z" stroke-width="1px" stroke="#0E75BA" fill="#0E75BA"/>
        <path clip-path="url(#clip-635723058)" d="M 16.5189,10.0949 L 16.5189,19.2721 L 17.4366,19.2721 L 17.4366,10.0949 L 16.5189,10.0949 Z" stroke-width="1px" stroke="#0E77BB" fill="#0E77BB"/>
        <path clip-path="url(#clip-635723058)" d="M 17.4366,10.0949 L 17.4366,19.2721 L 18.3543,19.2721 L 18.3543,10.0949 L 17.4366,10.0949 Z" stroke-width="1px" stroke="#0D78BC" fill="#0D78BC"/>
        <path clip-path="url(#clip-635723058)" d="M 18.3543,10.0949 L 18.3543,19.2721 L 19.2721,19.2721 L 19.2721,10.0949 L 18.3543,10.0949 Z" stroke-width="1px" stroke="#0D79BC" fill="#0D79BC"/>
        <path clip-path="url(#clip-635723058)" d="M 19.2721,10.0949 L 19.2721,19.2721 L 20.1898,19.2721 L 20.1898,10.0949 L 19.2721,10.0949 Z" stroke-width="1px" stroke="#0C7ABD" fill="#0C7ABD"/>
        <path clip-path="url(#clip-635723058)" d="M 20.1898,10.0949 L 20.1898,19.2721 L 21.1075,19.2721 L 21.1075,10.0949 L 20.1898,10.0949 Z" stroke-width="1px" stroke="#0C7CBE" fill="#0C7CBE"/>
        <path clip-path="url(#clip-635723058)" d="M 21.1075,10.0949 L 21.1075,19.2721 L 22.0252,19.2721 L 22.0252,10.0949 L 21.1075,10.0949 Z" stroke-width="1px" stroke="#0B7DBF" fill="#0B7DBF"/>
        <path clip-path="url(#clip-635723058)" d="M 22.0252,10.0949 L 22.0252,19.2721 L 22.9429,19.2721 L 22.9429,10.0949 L 22.0252,10.0949 Z" stroke-width="1px" stroke="#0B7FC0" fill="#0B7FC0"/>
        <path clip-path="url(#clip-635723058)" d="M 22.9429,10.0949 L 22.9429,19.2721 L 23.8606,19.2721 L 23.8606,10.0949 L 22.9429,10.0949 Z" stroke-width="1px" stroke="#0B80C0" fill="#0B80C0"/>
        <path clip-path="url(#clip-635723058)" d="M 23.8606,10.0949 L 23.8606,19.2721 L 24.7783,19.2721 L 24.7783,10.0949 L 23.8606,10.0949 Z" stroke-width="1px" stroke="#0A82C1" fill="#0A82C1"/>
        <path clip-path="url(#clip-635723058)" d="M 24.7783,10.0949 L 24.7783,19.2721 L 25.6961,19.2721 L 25.6961,10.0949 L 24.7783,10.0949 Z" stroke-width="1px" stroke="#0A83C2" fill="#0A83C2"/>
        <path clip-path="url(#clip-635723058)" d="M 25.6961,10.0949 L 25.6961,19.2721 L 26.6138,19.2721 L 26.6138,10.0949 L 25.6961,10.0949 Z" stroke-width="1px" stroke="#0A84C2" fill="#0A84C2"/>
        <path clip-path="url(#clip-635723058)" d="M 26.6138,10.0949 L 26.6138,19.2721 L 27.5315,19.2721 L 27.5315,10.0949 L 26.6138,10.0949 Z" stroke-width="1px" stroke="#0A86C3" fill="#0A86C3"/>
        <path clip-path="url(#clip-635723058)" d="M 27.5315,10.0949 L 27.5315,19.2721 L 28.4492,19.2721 L 28.4492,10.0949 L 27.5315,10.0949 Z" stroke-width="1px" stroke="#0987C4" fill="#0987C4"/>
        <path clip-path="url(#clip-635723058)" d="M 28.4492,10.0949 L 28.4492,19.2721 L 29.3669,19.2721 L 29.3669,10.0949 L 28.4492,10.0949 Z" stroke-width="1px" stroke="#0989C5" fill="#0989C5"/>
        <path clip-path="url(#clip-635723058)" d="M 29.3669,10.0949 L 29.3669,19.2721 L 30.2846,19.2721 L 30.2846,10.0949 L 29.3669,10.0949 Z" stroke-width="1px" stroke="#098AC6" fill="#098AC6"/>
        <path clip-path="url(#clip-635723058)" d="M 30.2846,10.0949 L 30.2846,19.2721 L 31.2024,19.2721 L 31.2024,10.0949 L 30.2846,10.0949 Z" stroke-width="1px" stroke="#088CC6" fill="#088CC6"/>
        <path clip-path="url(#clip-635723058)" d="M 31.2024,10.0949 L 31.2024,19.2721 L 32.1201,19.2721 L 32.1201,10.0949 L 31.2024,10.0949 Z" stroke-width="1px" stroke="#088DC7" fill="#088DC7"/>
        <path clip-path="url(#clip-635723058)" d="M 32.1201,10.0949 L 32.1201,19.2721 L 33.0378,19.2721 L 33.0378,10.0949 L 32.1201,10.0949 Z" stroke-width="1px" stroke="#088FC7" fill="#088FC7"/>
        <path clip-path="url(#clip-635723058)" d="M 33.0378,10.0949 L 33.0378,19.2721 L 33.9555,19.2721 L 33.9555,10.0949 L 33.0378,10.0949 Z" stroke-width="1px" stroke="#0890C8" fill="#0890C8"/>
        <path clip-path="url(#clip-635723058)" d="M 33.9555,10.0949 L 33.9555,19.2721 L 34.8732,19.2721 L 34.8732,10.0949 L 33.9555,10.0949 Z" stroke-width="1px" stroke="#0792C9" fill="#0792C9"/>
        <path clip-path="url(#clip-635723058)" d="M 34.8732,10.0949 L 34.8732,19.2721 L 35.7909,19.2721 L 35.7909,10.0949 L 34.8732,10.0949 Z" stroke-width="1px" stroke="#0793C9" fill="#0793C9"/>
        <path clip-path="url(#clip-635723058)" d="M 35.7909,10.0949 L 35.7909,19.2721 L 36.7087,19.2721 L 36.7087,10.0949 L 35.7909,10.0949 Z" stroke-width="1px" stroke="#0795CA" fill="#0795CA"/>
        <path clip-path="url(#clip-635723058)" d="M 36.7087,10.0949 L 36.7087,19.2721 L 37.6264,19.2721 L 37.6264,10.0949 L 36.7087,10.0949 Z" stroke-width="1px" stroke="#0696CB" fill="#0696CB"/>
        <path clip-path="url(#clip-635723058)" d="M 37.6264,10.0949 L 37.6264,19.2721 L 38.5441,19.2721 L 38.5441,10.0949 L 37.6264,10.0949 Z" stroke-width="1px" stroke="#0698CC" fill="#0698CC"/>
        <path clip-path="url(#clip-635723058)" d="M 38.5441,10.0949 L 38.5441,19.2721 L 39.4618,19.2721 L 39.4618,10.0949 L 38.5441,10.0949 Z" stroke-width="1px" stroke="#0699CD" fill="#0699CD"/>
        <path clip-path="url(#clip-635723058)" d="M 39.4618,10.0949 L 39.4618,19.2721 L 40.3795,19.2721 L 40.3795,10.0949 L 39.4618,10.0949 Z" stroke-width="1px" stroke="#059BCD" fill="#059BCD"/>
        <path clip-path="url(#clip-635723058)" d="M 40.3795,10.0949 L 40.3795,19.2721 L 41.2972,19.2721 L 41.2972,10.0949 L 40.3795,10.0949 Z" stroke-width="1px" stroke="#059CCE" fill="#059CCE"/>
        <path clip-path="url(#clip-635723058)" d="M 41.2972,10.0949 L 41.2972,19.2721 L 42.2150,19.2721 L 42.2150,10.0949 L 41.2972,10.0949 Z" stroke-width="1px" stroke="#059ECE" fill="#059ECE"/>
        <path clip-path="url(#clip-635723058)" d="M 42.2150,10.0949 L 42.2150,19.2721 L 43.1327,19.2721 L 43.1327,10.0949 L 42.2150,10.0949 Z" stroke-width="1px" stroke="#049FCF" fill="#049FCF"/>
        <path clip-path="url(#clip-635723058)" d="M 43.1327,10.0949 L 43.1327,19.2721 L 44.0504,19.2721 L 44.0504,10.0949 L 43.1327,10.0949 Z" stroke-width="1px" stroke="#04A0D0" fill="#04A0D0"/>
        <path clip-path="url(#clip-635723058)" d="M 44.0504,10.0949 L 44.0504,19.2721 L 44.9681,19.2721 L 44.9681,10.0949 L 44.0504,10.0949 Z" stroke-width="1px" stroke="#03A1D1" fill="#03A1D1"/>
        <path clip-path="url(#clip-635723058)" d="M 44.9681,10.0949 L 44.9681,19.2721 L 45.8858,19.2721 L 45.8858,10.0949 L 44.9681,10.0949 Z" stroke-width="1px" stroke="#03A3D2" fill="#03A3D2"/>
        <path clip-path="url(#clip-635723058)" d="M 45.8858,10.0949 L 45.8858,19.2721 L 46.8036,19.2721 L 46.8036,10.0949 L 45.8858,10.0949 Z" stroke-width="1px" stroke="#02A4D2" fill="#02A4D2"/>
        <path clip-path="url(#clip-635723058)" d="M 46.8036,10.0949 L 46.8036,19.2721 L 47.7213,19.2721 L 47.7213,10.0949 L 46.8036,10.0949 Z" stroke-width="1px" stroke="#02A6D3" fill="#02A6D3"/>
        <path clip-path="url(#clip-635723058)" d="M 47.7213,10.0949 L 47.7213,19.2721 L 48.6390,19.2721 L 48.6390,10.0949 L 47.7213,10.0949 Z" stroke-width="1px" stroke="#02A7D4" fill="#02A7D4"/>
        <path clip-path="url(#clip-635723058)" d="M 48.6390,10.0949 L 48.6390,19.2721 L 49.5567,19.2721 L 49.5567,10.0949 L 48.6390,10.0949 Z" stroke-width="1px" stroke="#01A9D5" fill="#01A9D5"/>
        <path clip-path="url(#clip-635723058)" d="M 49.5567,10.0949 L 49.5567,19.2721 L 50.4744,19.2721 L 50.4744,10.0949 L 49.5567,10.0949 Z" stroke-width="1px" stroke="#01AAD5" fill="#01AAD5"/>
        <path clip-path="url(#clip-635723058)" d="M 50.4744,10.0949 L 50.4744,19.2721 L 51.3921,19.2721 L 51.3921,10.0949 L 50.4744,10.0949 Z" stroke-width="1px" stroke="#01ACD6" fill="#01ACD6"/>
        <path clip-path="url(#clip-635723058)" d="M 51.3921,10.0949 L 51.3921,19.2721 L 52.3098,19.2721 L 52.3098,10.0949 L 51.3921,10.0949 Z" stroke-width="1px" stroke="#01ADD7" fill="#01ADD7"/>
        <path clip-path="url(#clip-635723058)" d="M 52.3098,10.0949 L 52.3098,19.2721 L 53.2276,19.2721 L 53.2276,10.0949 L 52.3098,10.0949 Z" stroke-width="1px" stroke="#00AFD7" fill="#00AFD7"/>
        <g transform="matrix(0.0625 0.0000 0.0000 0.0625 0.0000 0.0000)">
          <path d="M 60.5693,306.5174 L 851.6411,306.5174 L 851.6411,163.3536 L 60.5693,163.3536 L 60.5693,306.5174 " stroke="#0054A6" stroke-width="9.1772" stroke-linecap="round" stroke-linejoin="round" fill="none"/>
        </g>
        <g transform="matrix(1.0000 0.0000 0.0000 1.0000 0.0000 0.0000)">
</g>
        <g transform="matrix(0.0625 0.0000 0.0000 0.0625 0.0000 0.0000)">
          <path d="M 456.1052,295.5048 C 399.2067,295.5048 319.3654,294.5870 245.9481,292.7516 C 182.6256,290.9162 151.4232,289.9985 134.9043,288.1630 C 124.8095,287.2453 100.0311,285.4099 100.0311,270.7264 L 100.0311,200.0622 C 100.0311,184.4611 123.8917,182.6256 134.9043,181.7079 C 151.4232,179.8725 182.6256,178.9547 245.9481,178.0370 C 318.4477,176.2016 399.2067,175.2839 456.1052,175.2839 C 513.0036,175.2839 593.7627,176.2016 666.2623,178.0370 C 729.5847,178.9547 760.7871,179.8725 777.3060,181.7079 C 787.4009,182.6256 812.1792,184.4611 812.1792,200.0622 L 812.1792,270.7264 C 812.1792,285.4099 787.4009,287.2453 777.3060,288.1630 C 760.7871,289.9985 729.5847,290.9162 666.2623,292.7516 C 592.8450,294.5870 513.0036,295.5048 456.1052,295.5048 Z " fill="#0054A6" stroke="none"/>
        </g>
        <g transform="matrix(1.0000 0.0000 0.0000 1.0000 0.0000 0.0000)">
</g>
        <g transform="matrix(0.0625 0.0000 0.0000 0.0625 0.0000 0.0000)">
          <path d="M 665.3446,190.8851 C 591.9272,189.0496 512.0859,188.1319 456.1052,188.1319 C 400.1245,188.1319 320.2831,189.0496 246.8658,190.8851 C 122.0563,193.6382 122.0563,195.4736 122.0563,200.0622 L 122.0563,270.7264 C 122.0563,274.3973 122.0563,276.2327 246.8658,278.9859 C 320.2831,280.8213 400.1245,281.7390 456.1052,281.7390 C 512.0859,281.7390 591.9272,280.8213 665.3446,278.9859 C 790.1540,276.2327 790.1540,274.3973 790.1540,270.7264 L 790.1540,200.0622 C 790.1540,195.4736 790.1540,193.6382 665.3446,190.8851 M 309.2705,192.7205 L 309.2705,277.1504 M 357.9095,191.8028 L 357.9095,278.0682 M 407.4662,191.8028 L 407.4662,278.9859 M 162.4358,196.3914 L 162.4358,273.4796 M 211.9925,194.5559 L 211.9925,275.3150 M 260.6315,193.6382 L 260.6315,276.2327 M 456.1052,190.8851 L 456.1052,278.9859 M 700.2178,194.5559 L 700.2178,275.3150 M 749.7745,196.3914 L 749.7745,273.4796 M 504.7442,191.8028 L 504.7442,278.9859 M 554.3009,191.8028 L 554.3009,278.0682 M 602.9398,192.7205 L 602.9398,277.1504 M 651.5788,193.6382 L 651.5788,276.2327 " stroke="#C8E6F2" stroke-width="9.1772" stroke-linecap="round" stroke-linejoin="round" fill="none"/>
        </g>
        <g transform="matrix(1.0000 0.0000 0.0000 1.0000 0.0000 0.0000)">
</g>
        <g transform="matrix(0.0625 0.0000 0.0000 0.0625 0.0000 0.0000)">
          <path d="M 470.7886,205.5685 C 475.3772,205.5685 478.1304,207.4040 478.1304,209.2394 L 478.1304,260.6315 C 478.1304,263.3847 475.3772,265.2201 470.7886,265.2201 L 441.4217,265.2201 C 436.8331,265.2201 434.0800,263.3847 434.0800,260.6315 L 434.0800,209.2394 C 434.0800,207.4040 436.8331,205.5685 441.4217,205.5685 L 470.7886,205.5685 Z " fill="#C8E6F2" stroke="none"/>
        </g>
        <g transform="matrix(1.0000 0.0000 0.0000 1.0000 0.0000 0.0000)">
          <defs>
            <clipPath id="clip-1369133069">
              <path d="M 4.5886,1.8354 L 53.2276,1.8354 L 53.2276,10.0949 L 4.5886,10.0949 L 4.5886,1.8354 Z Z"/>
            </clipPath>
          </defs>
          <path clip-path="url(#clip-1369133069)" d="M 3.6709,0.9177 L 3.6709,10.0949 L 4.5886,10.0949 L 4.5886,0.9177 L 3.6709,0.9177 Z" stroke-width="1px" stroke="#00B0D8" fill="#00B0D8"/>
          <path clip-path="url(#clip-1369133069)" d="M 4.5886,0.9177 L 4.5886,10.0949 L 5.5063,10.0949 L 5.5063,0.9177 L 4.5886,0.9177 Z" stroke-width="1px" stroke="#1263B2" fill="#1263B2"/>
          <path clip-path="url(#clip-1369133069)" d="M 5.5063,0.9177 L 5.5063,10.0949 L 6.4240,10.0949 L 6.4240,0.9177 L 5.5063,0.9177 Z" stroke-width="1px" stroke="#1165B2" fill="#1165B2"/>
          <path clip-path="url(#clip-1369133069)" d="M 6.4240,0.9177 L 6.4240,10.0949 L 7.3417,10.0949 L 7.3417,0.9177 L 6.4240,0.9177 Z" stroke-width="1px" stroke="#1166B3" fill="#1166B3"/>
          <path clip-path="url(#clip-1369133069)" d="M 7.3417,0.9177 L 7.3417,10.0949 L 8.2594,10.0949 L 8.2594,0.9177 L 7.3417,0.9177 Z" stroke-width="1px" stroke="#1168B3" fill="#1168B3"/>
          <path clip-path="url(#clip-1369133069)" d="M 8.2594,0.9177 L 8.2594,10.0949 L 9.1772,10.0949 L 9.1772,0.9177 L 8.2594,0.9177 Z" stroke-width="1px" stroke="#1169B4" fill="#1169B4"/>
          <path clip-path="url(#clip-1369133069)" d="M 9.1772,0.9177 L 9.1772,10.0949 L 10.0949,10.0949 L 10.0949,0.9177 L 9.1772,0.9177 Z" stroke-width="1px" stroke="#106BB5" fill="#106BB5"/>
          <path clip-path="url(#clip-1369133069)" d="M 10.0949,0.9177 L 10.0949,10.0949 L 11.0126,10.0949 L 11.0126,0.9177 L 10.0949,0.9177 Z" stroke-width="1px" stroke="#106CB6" fill="#106CB6"/>
          <path clip-path="url(#clip-1369133069)" d="M 11.0126,0.9177 L 11.0126,10.0949 L 11.9303,10.0949 L 11.9303,0.9177 L 11.0126,0.9177 Z" stroke-width="1px" stroke="#106EB7" fill="#106EB7"/>
          <path clip-path="url(#clip-1369133069)" d="M 11.9303,0.9177 L 11.9303,10.0949 L 12.8480,10.0949 L 12.8480,0.9177 L 11.9303,0.9177 Z" stroke-width="1px" stroke="#0F6FB7" fill="#0F6FB7"/>
          <path clip-path="url(#clip-1369133069)" d="M 12.8480,0.9177 L 12.8480,10.0949 L 13.7657,10.0949 L 13.7657,0.9177 L 12.8480,0.9177 Z" stroke-width="1px" stroke="#0F71B8" fill="#0F71B8"/>
          <path clip-path="url(#clip-1369133069)" d="M 13.7657,0.9177 L 13.7657,10.0949 L 14.6835,10.0949 L 14.6835,0.9177 L 13.7657,0.9177 Z" stroke-width="1px" stroke="#0F72B9" fill="#0F72B9"/>
          <path clip-path="url(#clip-1369133069)" d="M 14.6835,0.9177 L 14.6835,10.0949 L 15.6012,10.0949 L 15.6012,0.9177 L 14.6835,0.9177 Z" stroke-width="1px" stroke="#0E74BA" fill="#0E74BA"/>
          <path clip-path="url(#clip-1369133069)" d="M 15.6012,0.9177 L 15.6012,10.0949 L 16.5189,10.0949 L 16.5189,0.9177 L 15.6012,0.9177 Z" stroke-width="1px" stroke="#0E75BA" fill="#0E75BA"/>
          <path clip-path="url(#clip-1369133069)" d="M 16.5189,0.9177 L 16.5189,10.0949 L 17.4366,10.0949 L 17.4366,0.9177 L 16.5189,0.9177 Z" stroke-width="1px" stroke="#0E77BB" fill="#0E77BB"/>
          <path clip-path="url(#clip-1369133069)" d="M 17.4366,0.9177 L 17.4366,10.0949 L 18.3543,10.0949 L 18.3543,0.9177 L 17.4366,0.9177 Z" stroke-width="1px" stroke="#0D78BC" fill="#0D78BC"/>
          <path clip-path="url(#clip-1369133069)" d="M 18.3543,0.9177 L 18.3543,10.0949 L 19.2721,10.0949 L 19.2721,0.9177 L 18.3543,0.9177 Z" stroke-width="1px" stroke="#0D79BC" fill="#0D79BC"/>
          <path clip-path="url(#clip-1369133069)" d="M 19.2721,0.9177 L 19.2721,10.0949 L 20.1898,10.0949 L 20.1898,0.9177 L 19.2721,0.9177 Z" stroke-width="1px" stroke="#0C7ABD" fill="#0C7ABD"/>
          <path clip-path="url(#clip-1369133069)" d="M 20.1898,0.9177 L 20.1898,10.0949 L 21.1075,10.0949 L 21.1075,0.9177 L 20.1898,0.9177 Z" stroke-width="1px" stroke="#0C7CBE" fill="#0C7CBE"/>
          <path clip-path="url(#clip-1369133069)" d="M 21.1075,0.9177 L 21.1075,10.0949 L 22.0252,10.0949 L 22.0252,0.9177 L 21.1075,0.9177 Z" stroke-width="1px" stroke="#0B7DBF" fill="#0B7DBF"/>
          <path clip-path="url(#clip-1369133069)" d="M 22.0252,0.9177 L 22.0252,10.0949 L 22.9429,10.0949 L 22.9429,0.9177 L 22.0252,0.9177 Z" stroke-width="1px" stroke="#0B7FC0" fill="#0B7FC0"/>
          <path clip-path="url(#clip-1369133069)" d="M 22.9429,0.9177 L 22.9429,10.0949 L 23.8606,10.0949 L 23.8606,0.9177 L 22.9429,0.9177 Z" stroke-width="1px" stroke="#0B80C0" fill="#0B80C0"/>
          <path clip-path="url(#clip-1369133069)" d="M 23.8606,0.9177 L 23.8606,10.0949 L 24.7783,10.0949 L 24.7783,0.9177 L 23.8606,0.9177 Z" stroke-width="1px" stroke="#0A82C1" fill="#0A82C1"/>
          <path clip-path="url(#clip-1369133069)" d="M 24.7783,0.9177 L 24.7783,10.0949 L 25.6961,10.0949 L 25.6961,0.9177 L 24.7783,0.9177 Z" stroke-width="1px" stroke="#0A83C2" fill="#0A83C2"/>
          <path clip-path="url(#clip-1369133069)" d="M 25.6961,0.9177 L 25.6961,10.0949 L 26.6138,10.0949 L 26.6138,0.9177 L 25.6961,0.9177 Z" stroke-width="1px" stroke="#0A84C2" fill="#0A84C2"/>
          <path clip-path="url(#clip-1369133069)" d="M 26.6138,0.9177 L 26.6138,10.0949 L 27.5315,10.0949 L 27.5315,0.9177 L 26.6138,0.9177 Z" stroke-width="1px" stroke="#0A86C3" fill="#0A86C3"/>
          <path clip-path="url(#clip-1369133069)" d="M 27.5315,0.9177 L 27.5315,10.0949 L 28.4492,10.0949 L 28.4492,0.9177 L 27.5315,0.9177 Z" stroke-width="1px" stroke="#0987C4" fill="#0987C4"/>
          <path clip-path="url(#clip-1369133069)" d="M 28.4492,0.9177 L 28.4492,10.0949 L 29.3669,10.0949 L 29.3669,0.9177 L 28.4492,0.9177 Z" stroke-width="1px" stroke="#0989C5" fill="#0989C5"/>
          <path clip-path="url(#clip-1369133069)" d="M 29.3669,0.9177 L 29.3669,10.0949 L 30.2846,10.0949 L 30.2846,0.9177 L 29.3669,0.9177 Z" stroke-width="1px" stroke="#098AC6" fill="#098AC6"/>
          <path clip-path="url(#clip-1369133069)" d="M 30.2846,0.9177 L 30.2846,10.0949 L 31.2024,10.0949 L 31.2024,0.9177 L 30.2846,0.9177 Z" stroke-width="1px" stroke="#088CC6" fill="#088CC6"/>
          <path clip-path="url(#clip-1369133069)" d="M 31.2024,0.9177 L 31.2024,10.0949 L 32.1201,10.0949 L 32.1201,0.9177 L 31.2024,0.9177 Z" stroke-width="1px" stroke="#088DC7" fill="#088DC7"/>
          <path clip-path="url(#clip-1369133069)" d="M 32.1201,0.9177 L 32.1201,10.0949 L 33.0378,10.0949 L 33.0378,0.9177 L 32.1201,0.9177 Z" stroke-width="1px" stroke="#088FC7" fill="#088FC7"/>
          <path clip-path="url(#clip-1369133069)" d="M 33.0378,0.9177 L 33.0378,10.0949 L 33.9555,10.0949 L 33.9555,0.9177 L 33.0378,0.9177 Z" stroke-width="1px" stroke="#0890C8" fill="#0890C8"/>
          <path clip-path="url(#clip-1369133069)" d="M 33.9555,0.9177 L 33.9555,10.0949 L 34.8732,10.0949 L 34.8732,0.9177 L 33.9555,0.9177 Z" stroke-width="1px" stroke="#0792C9" fill="#0792C9"/>
          <path clip-path="url(#clip-1369133069)" d="M 34.8732,0.9177 L 34.8732,10.0949 L 35.7909,10.0949 L 35.7909,0.9177 L 34.8732,0.9177 Z" stroke-width="1px" stroke="#0793C9" fill="#0793C9"/>
          <path clip-path="url(#clip-1369133069)" d="M 35.7909,0.9177 L 35.7909,10.0949 L 36.7087,10.0949 L 36.7087,0.9177 L 35.7909,0.9177 Z" stroke-width="1px" stroke="#0795CA" fill="#0795CA"/>
          <path clip-path="url(#clip-1369133069)" d="M 36.7087,0.9177 L 36.7087,10.0949 L 37.6264,10.0949 L 37.6264,0.9177 L 36.7087,0.9177 Z" stroke-width="1px" stroke="#0696CB" fill="#0696CB"/>
          <path clip-path="url(#clip-1369133069)" d="M 37.6264,0.9177 L 37.6264,10.0949 L 38.5441,10.0949 L 38.5441,0.9177 L 37.6264,0.9177 Z" stroke-width="1px" stroke="#0698CC" fill="#0698CC"/>
          <path clip-path="url(#clip-1369133069)" d="M 38.5441,0.9177 L 38.5441,10.0949 L 39.4618,10.0949 L 39.4618,0.9177 L 38.5441,0.9177 Z" stroke-width="1px" stroke="#0699CD" fill="#0699CD"/>
          <path clip-path="url(#clip-1369133069)" d="M 39.4618,0.9177 L 39.4618,10.0949 L 40.3795,10.0949 L 40.3795,0.9177 L 39.4618,0.9177 Z" stroke-width="1px" stroke="#059BCD" fill="#059BCD"/>
          <path clip-path="url(#clip-1369133069)" d="M 40.3795,0.9177 L 40.3795,10.0949 L 41.2972,10.0949 L 41.2972,0.9177 L 40.3795,0.9177 Z" stroke-width="1px" stroke="#059CCE" fill="#059CCE"/>
          <path clip-path="url(#clip-1369133069)" d="M 41.2972,0.9177 L 41.2972,10.0949 L 42.2150,10.0949 L 42.2150,0.9177 L 41.2972,0.9177 Z" stroke-width="1px" stroke="#059ECE" fill="#059ECE"/>
          <path clip-path="url(#clip-1369133069)" d="M 42.2150,0.9177 L 42.2150,10.0949 L 43.1327,10.0949 L 43.1327,0.9177 L 42.2150,0.9177 Z" stroke-width="1px" stroke="#049FCF" fill="#049FCF"/>
          <path clip-path="url(#clip-1369133069)" d="M 43.1327,0.9177 L 43.1327,10.0949 L 44.0504,10.0949 L 44.0504,0.9177 L 43.1327,0.9177 Z" stroke-width="1px" stroke="#04A0D0" fill="#04A0D0"/>
          <path clip-path="url(#clip-1369133069)" d="M 44.0504,0.9177 L 44.0504,10.0949 L 44.9681,10.0949 L 44.9681,0.9177 L 44.0504,0.9177 Z" stroke-width="1px" stroke="#03A1D1" fill="#03A1D1"/>
          <path clip-path="url(#clip-1369133069)" d="M 44.9681,0.9177 L 44.9681,10.0949 L 45.8858,10.0949 L 45.8858,0.9177 L 44.9681,0.9177 Z" stroke-width="1px" stroke="#03A3D2" fill="#03A3D2"/>
          <path clip-path="url(#clip-1369133069)" d="M 45.8858,0.9177 L 45.8858,10.0949 L 46.8036,10.0949 L 46.8036,0.9177 L 45.8858,0.9177 Z" stroke-width="1px" stroke="#02A4D2" fill="#02A4D2"/>
          <path clip-path="url(#clip-1369133069)" d="M 46.8036,0.9177 L 46.8036,10.0949 L 47.7213,10.0949 L 47.7213,0.9177 L 46.8036,0.9177 Z" stroke-width="1px" stroke="#02A6D3" fill="#02A6D3"/>
          <path clip-path="url(#clip-1369133069)" d="M 47.7213,0.9177 L 47.7213,10.0949 L 48.6390,10.0949 L 48.6390,0.9177 L 47.7213,0.9177 Z" stroke-width="1px" stroke="#02A7D4" fill="#02A7D4"/>
          <path clip-path="url(#clip-1369133069)" d="M 48.6390,0.9177 L 48.6390,10.0949 L 49.5567,10.0949 L 49.5567,0.9177 L 48.6390,0.9177 Z" stroke-width="1px" stroke="#01A9D5" fill="#01A9D5"/>
          <path clip-path="url(#clip-1369133069)" d="M 49.5567,0.9177 L 49.5567,10.0949 L 50.4744,10.0949 L 50.4744,0.9177 L 49.5567,0.9177 Z" stroke-width="1px" stroke="#01AAD5" fill="#01AAD5"/>
          <path clip-path="url(#clip-1369133069)" d="M 50.4744,0.9177 L 50.4744,10.0949 L 51.3921,10.0949 L 51.3921,0.9177 L 50.4744,0.9177 Z" stroke-width="1px" stroke="#01ACD6" fill="#01ACD6"/>
          <path clip-path="url(#clip-1369133069)" d="M 51.3921,0.9177 L 51.3921,10.0949 L 52.3098,10.0949 L 52.3098,0.9177 L 51.3921,0.9177 Z" stroke-width="1px" stroke="#01ADD7" fill="#01ADD7"/>
          <path clip-path="url(#clip-1369133069)" d="M 52.3098,0.9177 L 52.3098,10.0949 L 53.2276,10.0949 L 53.2276,0.9177 L 52.3098,0.9177 Z" stroke-width="1px" stroke="#00AFD7" fill="#00AFD7"/>
        </g>
        <g transform="matrix(0.0625 0.0000 0.0000 0.0625 0.0000 0.0000)">
          <path d="M 60.5693,161.5181 L 851.6411,161.5181 L 851.6411,17.4366 L 60.5693,17.4366 L 60.5693,161.5181 " stroke="#0054A6" stroke-width="9.1772" stroke-linecap="round" stroke-linejoin="round" fill="none"/>
        </g>
        <g transform="matrix(1.0000 0.0000 0.0000 1.0000 0.0000 0.0000)">
</g>
        <g transform="matrix(0.0625 0.0000 0.0000 0.0625 0.0000 0.0000)">
          <path d="M 456.1052,149.5878 C 399.2067,149.5878 319.3654,148.6701 245.9481,146.8347 C 182.6256,144.9992 151.4232,144.0815 134.9043,142.2461 C 124.8095,142.2461 100.0311,139.4929 100.0311,124.8095 L 100.0311,54.1453 C 100.0311,38.5441 123.8917,36.7087 134.9043,35.7909 C 151.4232,34.8732 182.6256,33.0378 245.9481,32.1201 C 318.4477,30.2846 399.2067,29.3669 456.1052,29.3669 C 513.0036,29.3669 593.7627,30.2846 666.2623,32.1201 C 729.5847,33.0378 760.7871,34.8732 777.3060,35.7909 C 787.4009,36.7087 812.1792,38.5441 812.1792,54.1453 L 812.1792,124.8095 C 812.1792,139.4929 787.4009,142.2461 777.3060,142.2461 C 760.7871,144.0815 729.5847,144.9992 666.2623,146.8347 C 592.8450,148.6701 513.0036,149.5878 456.1052,149.5878 Z " fill="#0054A6" stroke="none"/>
        </g>
        <g transform="matrix(1.0000 0.0000 0.0000 1.0000 0.0000 0.0000)">
</g>
        <g transform="matrix(0.0625 0.0000 0.0000 0.0625 0.0000 0.0000)">
          <path d="M 665.3446,44.9681 C 591.9272,43.1327 512.0859,42.2150 456.1052,42.2150 C 400.1245,42.2150 320.2831,43.1327 246.8658,44.9681 C 122.0563,47.7213 122.0563,49.5567 122.0563,54.1453 L 122.0563,124.8095 C 122.0563,129.3980 122.0563,130.3158 246.8658,133.0689 C 320.2831,134.9043 400.1245,135.8221 456.1052,135.8221 C 512.0859,135.8221 591.9272,134.9043 665.3446,133.0689 C 790.1540,130.3158 790.1540,129.3980 790.1540,124.8095 L 790.1540,54.1453 C 790.1540,49.5567 790.1540,47.7213 665.3446,44.9681 M 309.2705,46.8036 L 309.2705,131.2335 M 357.9095,45.8858 L 357.9095,132.1512 M 407.4662,45.8858 L 407.4662,133.0689 M 162.4358,50.4744 L 162.4358,128.4803 M 211.9925,48.6390 L 211.9925,129.3980 M 260.6315,47.7213 L 260.6315,130.3158 M 456.1052,45.8858 L 456.1052,133.0689 M 700.2178,48.6390 L 700.2178,129.3980 M 749.7745,50.4744 L 749.7745,128.4803 M 504.7442,45.8858 L 504.7442,133.0689 M 554.3009,45.8858 L 554.3009,132.1512 M 602.9398,46.8036 L 602.9398,131.2335 M 651.5788,47.7213 L 651.5788,130.3158 " stroke="#C8E6F2" stroke-width="9.1772" stroke-linecap="round" stroke-linejoin="round" fill="none"/>
        </g>
        <g transform="matrix(1.0000 0.0000 0.0000 1.0000 0.0000 0.0000)">
</g>
        <g transform="matrix(0.0625 0.0000 0.0000 0.0625 0.0000 0.0000)">
          <path d="M 470.7886,59.6516 C 475.3772,59.6516 478.1304,61.4870 478.1304,63.3224 L 478.1304,114.7146 C 478.1304,117.4677 475.3772,119.3032 470.7886,119.3032 L 441.4217,119.3032 C 436.8331,119.3032 434.0800,117.4677 434.0800,114.7146 L 434.0800,63.3224 C 434.0800,61.4870 436.8331,59.6516 441.4217,59.6516 L 470.7886,59.6516 Z " fill="#C8E6F2" stroke="none"/>
        </g>
        <g transform="matrix(1.0000 0.0000 0.0000 1.0000 0.0000 0.0000)">
          <path d="M 4.5886,11.0126 L 1.8354,11.0126 L 1.8354,18.3543 L 4.5886,19.2721 L 4.5886,11.0126 " fill="none" stroke="none"/>
          <defs>
            <clipPath id="clip-1125898167">
              <path d="M 4.5886,11.0126 L 1.8354,11.0126 L 1.8354,18.3543 L 4.5886,19.2721 L 4.5886,11.0126 Z"/>
            </clipPath>
          </defs>
          <path clip-path="url(#clip-1125898167)" d="M 0.9177,10.0949 L 0.9177,11.0126 L 3.6709,11.0126 L 3.6709,10.0949 L 0.9177,10.0949 Z" stroke-width="1px" stroke="#55BBEB" fill="#55BBEB"/>
          <path clip-path="url(#clip-1125898167)" d="M 0.9177,11.0126 L 0.9177,11.9303 L 3.6709,11.9303 L 3.6709,11.0126 L 0.9177,11.0126 Z" stroke-width="1px" stroke="#087DC4" fill="#087DC4"/>
          <path clip-path="url(#clip-1125898167)" d="M 0.9177,11.9303 L 0.9177,12.8480 L 3.6709,12.8480 L 3.6709,11.9303 L 0.9177,11.9303 Z" stroke-width="1px" stroke="#1185C8" fill="#1185C8"/>
          <path clip-path="url(#clip-1125898167)" d="M 0.9177,12.8480 L 0.9177,13.7657 L 3.6709,13.7657 L 3.6709,12.8480 L 0.9177,12.8480 Z" stroke-width="1px" stroke="#1A8CCD" fill="#1A8CCD"/>
          <path clip-path="url(#clip-1125898167)" d="M 0.9177,13.7657 L 0.9177,14.6835 L 3.6709,14.6835 L 3.6709,13.7657 L 0.9177,13.7657 Z" stroke-width="1px" stroke="#2293D1" fill="#2293D1"/>
          <path clip-path="url(#clip-1125898167)" d="M 0.9177,14.6835 L 0.9177,15.6012 L 3.6709,15.6012 L 3.6709,14.6835 L 0.9177,14.6835 Z" stroke-width="1px" stroke="#2B9AD6" fill="#2B9AD6"/>
          <path clip-path="url(#clip-1125898167)" d="M 0.9177,15.6012 L 0.9177,16.5189 L 3.6709,16.5189 L 3.6709,15.6012 L 0.9177,15.6012 Z" stroke-width="1px" stroke="#34A1DA" fill="#34A1DA"/>
          <path clip-path="url(#clip-1125898167)" d="M 0.9177,16.5189 L 0.9177,17.4366 L 3.6709,17.4366 L 3.6709,16.5189 L 0.9177,16.5189 Z" stroke-width="1px" stroke="#3DA8DF" fill="#3DA8DF"/>
          <path clip-path="url(#clip-1125898167)" d="M 0.9177,17.4366 L 0.9177,18.3543 L 3.6709,18.3543 L 3.6709,17.4366 L 0.9177,17.4366 Z" stroke-width="1px" stroke="#46AFE3" fill="#46AFE3"/>
          <path clip-path="url(#clip-1125898167)" d="M 0.9177,18.3543 L 0.9177,19.2721 L 3.6709,19.2721 L 3.6709,18.3543 L 0.9177,18.3543 Z" stroke-width="1px" stroke="#4EB6E7" fill="#4EB6E7"/>
        </g>
        <g transform="matrix(0.0625 0.0000 0.0000 0.0625 0.0000 0.0000)">
          <path d="M 60.5693,163.3536 L 17.4366,163.3536 L 17.4366,281.7390 L 60.5693,306.5174 L 60.5693,163.3536 " stroke="#0054A6" stroke-width="9.1772" stroke-linecap="round" stroke-linejoin="round" fill="none"/>
        </g>
        <g transform="matrix(1.0000 0.0000 0.0000 1.0000 0.0000 0.0000)">
          <path d="M 4.5886,10.0949 L 4.5886,1.8354 L 1.8354,2.7531 L 1.8354,10.0949 L 4.5886,10.0949 " fill="none" stroke="none"/>
          <defs>
            <clipPath id="clip-1059961393">
              <path d="M 4.5886,10.0949 L 4.5886,1.8354 L 1.8354,2.7531 L 1.8354,10.0949 L 4.5886,10.0949 Z"/>
            </clipPath>
          </defs>
          <path clip-path="url(#clip-1059961393)" d="M 0.9177,0.9177 L 0.9177,1.8354 L 3.6709,1.8354 L 3.6709,0.9177 L 0.9177,0.9177 Z" stroke-width="1px" stroke="#55BBEA" fill="#55BBEA"/>
          <path clip-path="url(#clip-1059961393)" d="M 0.9177,1.8354 L 0.9177,2.7531 L 3.6709,2.7531 L 3.6709,1.8354 L 0.9177,1.8354 Z" stroke-width="1px" stroke="#077DC4" fill="#077DC4"/>
          <path clip-path="url(#clip-1059961393)" d="M 0.9177,2.7531 L 0.9177,3.6709 L 3.6709,3.6709 L 3.6709,2.7531 L 0.9177,2.7531 Z" stroke-width="1px" stroke="#1084C8" fill="#1084C8"/>
          <path clip-path="url(#clip-1059961393)" d="M 0.9177,3.6709 L 0.9177,4.5886 L 3.6709,4.5886 L 3.6709,3.6709 L 0.9177,3.6709 Z" stroke-width="1px" stroke="#198BCC" fill="#198BCC"/>
          <path clip-path="url(#clip-1059961393)" d="M 0.9177,4.5886 L 0.9177,5.5063 L 3.6709,5.5063 L 3.6709,4.5886 L 0.9177,4.5886 Z" stroke-width="1px" stroke="#2292D1" fill="#2292D1"/>
          <path clip-path="url(#clip-1059961393)" d="M 0.9177,5.5063 L 0.9177,6.4240 L 3.6709,6.4240 L 3.6709,5.5063 L 0.9177,5.5063 Z" stroke-width="1px" stroke="#2B9AD6" fill="#2B9AD6"/>
          <path clip-path="url(#clip-1059961393)" d="M 0.9177,6.4240 L 0.9177,7.3417 L 3.6709,7.3417 L 3.6709,6.4240 L 0.9177,6.4240 Z" stroke-width="1px" stroke="#33A0DA" fill="#33A0DA"/>
          <path clip-path="url(#clip-1059961393)" d="M 0.9177,7.3417 L 0.9177,8.2594 L 3.6709,8.2594 L 3.6709,7.3417 L 0.9177,7.3417 Z" stroke-width="1px" stroke="#3CA7DE" fill="#3CA7DE"/>
          <path clip-path="url(#clip-1059961393)" d="M 0.9177,8.2594 L 0.9177,9.1772 L 3.6709,9.1772 L 3.6709,8.2594 L 0.9177,8.2594 Z" stroke-width="1px" stroke="#45AEE2" fill="#45AEE2"/>
          <path clip-path="url(#clip-1059961393)" d="M 0.9177,9.1772 L 0.9177,10.0949 L 3.6709,10.0949 L 3.6709,9.1772 L 0.9177,9.1772 Z" stroke-width="1px" stroke="#4EB5E7" fill="#4EB5E7"/>
        </g>
        <g transform="matrix(0.0625 0.0000 0.0000 0.0625 0.0000 0.0000)">
          <path d="M 60.5693,161.5181 L 60.5693,17.4366 L 17.4366,42.2150 L 17.4366,161.5181 L 60.5693,161.5181 " stroke="#0054A6" stroke-width="9.1772" stroke-linecap="round" stroke-linejoin="round" fill="none"/>
        </g>
        <g transform="matrix(1.0000 0.0000 0.0000 1.0000 0.0000 0.0000)">
</g>
      </g>
      <!--emf-blob end-->
    </g>
  </g>
</svg>
