<svg xmlns="http://www.w3.org/2000/svg" xmlns:xlink="http://www.w3.org/1999/xlink" version="1.1" width="56.6929000000" height="19.5591000000">
  <title><![CDATA[FAS2050]]></title>
  <g transform=" scale(1.000000) ">
    <!--converted by libvisio2svg-->
    <g transform=" translate(-1.231200,-1.128500) ">
      <!--emf-blob start-->
      <g transform="translate(0.9106, 0.9106)">
        <defs>
          <clipPath id="clip-2089018456">
            <path d="M 4.5531,1.8213 L 52.8165,1.8213 L 52.8165,19.1232 L 4.5531,19.1232 L 4.5531,1.8213 Z Z"/>
          </clipPath>
        </defs>
        <path clip-path="url(#clip-2089018456)" d="M 3.6425,0.9106 L 3.6425,19.1232 L 4.5531,19.1232 L 4.5531,0.9106 L 3.6425,0.9106 Z" stroke-width="1px" stroke="#00B0D8" fill="#00B0D8"/>
        <path clip-path="url(#clip-2089018456)" d="M 4.5531,0.9106 L 4.5531,19.1232 L 5.4638,19.1232 L 5.4638,0.9106 L 4.5531,0.9106 Z" stroke-width="1px" stroke="#1263B2" fill="#1263B2"/>
        <path clip-path="url(#clip-2089018456)" d="M 5.4638,0.9106 L 5.4638,19.1232 L 6.3744,19.1232 L 6.3744,0.9106 L 5.4638,0.9106 Z" stroke-width="1px" stroke="#1165B2" fill="#1165B2"/>
        <path clip-path="url(#clip-2089018456)" d="M 6.3744,0.9106 L 6.3744,19.1232 L 7.2850,19.1232 L 7.2850,0.9106 L 6.3744,0.9106 Z" stroke-width="1px" stroke="#1166B3" fill="#1166B3"/>
        <path clip-path="url(#clip-2089018456)" d="M 7.2850,0.9106 L 7.2850,19.1232 L 8.1957,19.1232 L 8.1957,0.9106 L 7.2850,0.9106 Z" stroke-width="1px" stroke="#1168B3" fill="#1168B3"/>
        <path clip-path="url(#clip-2089018456)" d="M 8.1957,0.9106 L 8.1957,19.1232 L 9.1063,19.1232 L 9.1063,0.9106 L 8.1957,0.9106 Z" stroke-width="1px" stroke="#1169B4" fill="#1169B4"/>
        <path clip-path="url(#clip-2089018456)" d="M 9.1063,0.9106 L 9.1063,19.1232 L 10.0169,19.1232 L 10.0169,0.9106 L 9.1063,0.9106 Z" stroke-width="1px" stroke="#106BB5" fill="#106BB5"/>
        <path clip-path="url(#clip-2089018456)" d="M 10.0169,0.9106 L 10.0169,19.1232 L 10.9276,19.1232 L 10.9276,0.9106 L 10.0169,0.9106 Z" stroke-width="1px" stroke="#106CB6" fill="#106CB6"/>
        <path clip-path="url(#clip-2089018456)" d="M 10.9276,0.9106 L 10.9276,19.1232 L 11.8382,19.1232 L 11.8382,0.9106 L 10.9276,0.9106 Z" stroke-width="1px" stroke="#106EB7" fill="#106EB7"/>
        <path clip-path="url(#clip-2089018456)" d="M 11.8382,0.9106 L 11.8382,19.1232 L 12.7488,19.1232 L 12.7488,0.9106 L 11.8382,0.9106 Z" stroke-width="1px" stroke="#0F6FB7" fill="#0F6FB7"/>
        <path clip-path="url(#clip-2089018456)" d="M 12.7488,0.9106 L 12.7488,19.1232 L 13.6594,19.1232 L 13.6594,0.9106 L 12.7488,0.9106 Z" stroke-width="1px" stroke="#0F71B8" fill="#0F71B8"/>
        <path clip-path="url(#clip-2089018456)" d="M 13.6594,0.9106 L 13.6594,19.1232 L 14.5701,19.1232 L 14.5701,0.9106 L 13.6594,0.9106 Z" stroke-width="1px" stroke="#0F72B9" fill="#0F72B9"/>
        <path clip-path="url(#clip-2089018456)" d="M 14.5701,0.9106 L 14.5701,19.1232 L 15.4807,19.1232 L 15.4807,0.9106 L 14.5701,0.9106 Z" stroke-width="1px" stroke="#0E74BA" fill="#0E74BA"/>
        <path clip-path="url(#clip-2089018456)" d="M 15.4807,0.9106 L 15.4807,19.1232 L 16.3913,19.1232 L 16.3913,0.9106 L 15.4807,0.9106 Z" stroke-width="1px" stroke="#0E75BA" fill="#0E75BA"/>
        <path clip-path="url(#clip-2089018456)" d="M 16.3913,0.9106 L 16.3913,19.1232 L 17.3020,19.1232 L 17.3020,0.9106 L 16.3913,0.9106 Z" stroke-width="1px" stroke="#0E77BB" fill="#0E77BB"/>
        <path clip-path="url(#clip-2089018456)" d="M 17.3020,0.9106 L 17.3020,19.1232 L 18.2126,19.1232 L 18.2126,0.9106 L 17.3020,0.9106 Z" stroke-width="1px" stroke="#0D78BC" fill="#0D78BC"/>
        <path clip-path="url(#clip-2089018456)" d="M 18.2126,0.9106 L 18.2126,19.1232 L 19.1232,19.1232 L 19.1232,0.9106 L 18.2126,0.9106 Z" stroke-width="1px" stroke="#0D79BC" fill="#0D79BC"/>
        <path clip-path="url(#clip-2089018456)" d="M 19.1232,0.9106 L 19.1232,19.1232 L 20.0338,19.1232 L 20.0338,0.9106 L 19.1232,0.9106 Z" stroke-width="1px" stroke="#0C7ABD" fill="#0C7ABD"/>
        <path clip-path="url(#clip-2089018456)" d="M 20.0338,0.9106 L 20.0338,19.1232 L 20.9445,19.1232 L 20.9445,0.9106 L 20.0338,0.9106 Z" stroke-width="1px" stroke="#0C7CBE" fill="#0C7CBE"/>
        <path clip-path="url(#clip-2089018456)" d="M 20.9445,0.9106 L 20.9445,19.1232 L 21.8551,19.1232 L 21.8551,0.9106 L 20.9445,0.9106 Z" stroke-width="1px" stroke="#0B7DBF" fill="#0B7DBF"/>
        <path clip-path="url(#clip-2089018456)" d="M 21.8551,0.9106 L 21.8551,19.1232 L 22.7657,19.1232 L 22.7657,0.9106 L 21.8551,0.9106 Z" stroke-width="1px" stroke="#0B7FC0" fill="#0B7FC0"/>
        <path clip-path="url(#clip-2089018456)" d="M 22.7657,0.9106 L 22.7657,19.1232 L 23.6764,19.1232 L 23.6764,0.9106 L 22.7657,0.9106 Z" stroke-width="1px" stroke="#0B80C0" fill="#0B80C0"/>
        <path clip-path="url(#clip-2089018456)" d="M 23.6764,0.9106 L 23.6764,19.1232 L 24.5870,19.1232 L 24.5870,0.9106 L 23.6764,0.9106 Z" stroke-width="1px" stroke="#0A82C1" fill="#0A82C1"/>
        <path clip-path="url(#clip-2089018456)" d="M 24.5870,0.9106 L 24.5870,19.1232 L 25.4976,19.1232 L 25.4976,0.9106 L 24.5870,0.9106 Z" stroke-width="1px" stroke="#0A83C2" fill="#0A83C2"/>
        <path clip-path="url(#clip-2089018456)" d="M 25.4976,0.9106 L 25.4976,19.1232 L 26.4082,19.1232 L 26.4082,0.9106 L 25.4976,0.9106 Z" stroke-width="1px" stroke="#0A84C2" fill="#0A84C2"/>
        <path clip-path="url(#clip-2089018456)" d="M 26.4082,0.9106 L 26.4082,19.1232 L 27.3189,19.1232 L 27.3189,0.9106 L 26.4082,0.9106 Z" stroke-width="1px" stroke="#0A86C3" fill="#0A86C3"/>
        <path clip-path="url(#clip-2089018456)" d="M 27.3189,0.9106 L 27.3189,19.1232 L 28.2295,19.1232 L 28.2295,0.9106 L 27.3189,0.9106 Z" stroke-width="1px" stroke="#0987C4" fill="#0987C4"/>
        <path clip-path="url(#clip-2089018456)" d="M 28.2295,0.9106 L 28.2295,19.1232 L 29.1401,19.1232 L 29.1401,0.9106 L 28.2295,0.9106 Z" stroke-width="1px" stroke="#0989C5" fill="#0989C5"/>
        <path clip-path="url(#clip-2089018456)" d="M 29.1401,0.9106 L 29.1401,19.1232 L 30.0508,19.1232 L 30.0508,0.9106 L 29.1401,0.9106 Z" stroke-width="1px" stroke="#098AC6" fill="#098AC6"/>
        <path clip-path="url(#clip-2089018456)" d="M 30.0508,0.9106 L 30.0508,19.1232 L 30.9614,19.1232 L 30.9614,0.9106 L 30.0508,0.9106 Z" stroke-width="1px" stroke="#088CC6" fill="#088CC6"/>
        <path clip-path="url(#clip-2089018456)" d="M 30.9614,0.9106 L 30.9614,19.1232 L 31.8720,19.1232 L 31.8720,0.9106 L 30.9614,0.9106 Z" stroke-width="1px" stroke="#088DC7" fill="#088DC7"/>
        <path clip-path="url(#clip-2089018456)" d="M 31.8720,0.9106 L 31.8720,19.1232 L 32.7826,19.1232 L 32.7826,0.9106 L 31.8720,0.9106 Z" stroke-width="1px" stroke="#088FC7" fill="#088FC7"/>
        <path clip-path="url(#clip-2089018456)" d="M 32.7826,0.9106 L 32.7826,19.1232 L 33.6933,19.1232 L 33.6933,0.9106 L 32.7826,0.9106 Z" stroke-width="1px" stroke="#0890C8" fill="#0890C8"/>
        <path clip-path="url(#clip-2089018456)" d="M 33.6933,0.9106 L 33.6933,19.1232 L 34.6039,19.1232 L 34.6039,0.9106 L 33.6933,0.9106 Z" stroke-width="1px" stroke="#0792C9" fill="#0792C9"/>
        <path clip-path="url(#clip-2089018456)" d="M 34.6039,0.9106 L 34.6039,19.1232 L 35.5145,19.1232 L 35.5145,0.9106 L 34.6039,0.9106 Z" stroke-width="1px" stroke="#0793C9" fill="#0793C9"/>
        <path clip-path="url(#clip-2089018456)" d="M 35.5145,0.9106 L 35.5145,19.1232 L 36.4252,19.1232 L 36.4252,0.9106 L 35.5145,0.9106 Z" stroke-width="1px" stroke="#0795CA" fill="#0795CA"/>
        <path clip-path="url(#clip-2089018456)" d="M 36.4252,0.9106 L 36.4252,19.1232 L 37.3358,19.1232 L 37.3358,0.9106 L 36.4252,0.9106 Z" stroke-width="1px" stroke="#0696CB" fill="#0696CB"/>
        <path clip-path="url(#clip-2089018456)" d="M 37.3358,0.9106 L 37.3358,19.1232 L 38.2464,19.1232 L 38.2464,0.9106 L 37.3358,0.9106 Z" stroke-width="1px" stroke="#0698CC" fill="#0698CC"/>
        <path clip-path="url(#clip-2089018456)" d="M 38.2464,0.9106 L 38.2464,19.1232 L 39.1571,19.1232 L 39.1571,0.9106 L 38.2464,0.9106 Z" stroke-width="1px" stroke="#0699CD" fill="#0699CD"/>
        <path clip-path="url(#clip-2089018456)" d="M 39.1571,0.9106 L 39.1571,19.1232 L 40.0677,19.1232 L 40.0677,0.9106 L 39.1571,0.9106 Z" stroke-width="1px" stroke="#059BCD" fill="#059BCD"/>
        <path clip-path="url(#clip-2089018456)" d="M 40.0677,0.9106 L 40.0677,19.1232 L 40.9783,19.1232 L 40.9783,0.9106 L 40.0677,0.9106 Z" stroke-width="1px" stroke="#059CCE" fill="#059CCE"/>
        <path clip-path="url(#clip-2089018456)" d="M 40.9783,0.9106 L 40.9783,19.1232 L 41.8889,19.1232 L 41.8889,0.9106 L 40.9783,0.9106 Z" stroke-width="1px" stroke="#059ECE" fill="#059ECE"/>
        <path clip-path="url(#clip-2089018456)" d="M 41.8889,0.9106 L 41.8889,19.1232 L 42.7996,19.1232 L 42.7996,0.9106 L 41.8889,0.9106 Z" stroke-width="1px" stroke="#049FCF" fill="#049FCF"/>
        <path clip-path="url(#clip-2089018456)" d="M 42.7996,0.9106 L 42.7996,19.1232 L 43.7102,19.1232 L 43.7102,0.9106 L 42.7996,0.9106 Z" stroke-width="1px" stroke="#04A0D0" fill="#04A0D0"/>
        <path clip-path="url(#clip-2089018456)" d="M 43.7102,0.9106 L 43.7102,19.1232 L 44.6208,19.1232 L 44.6208,0.9106 L 43.7102,0.9106 Z" stroke-width="1px" stroke="#03A1D1" fill="#03A1D1"/>
        <path clip-path="url(#clip-2089018456)" d="M 44.6208,0.9106 L 44.6208,19.1232 L 45.5315,19.1232 L 45.5315,0.9106 L 44.6208,0.9106 Z" stroke-width="1px" stroke="#03A3D2" fill="#03A3D2"/>
        <path clip-path="url(#clip-2089018456)" d="M 45.5315,0.9106 L 45.5315,19.1232 L 46.4421,19.1232 L 46.4421,0.9106 L 45.5315,0.9106 Z" stroke-width="1px" stroke="#02A4D2" fill="#02A4D2"/>
        <path clip-path="url(#clip-2089018456)" d="M 46.4421,0.9106 L 46.4421,19.1232 L 47.3527,19.1232 L 47.3527,0.9106 L 46.4421,0.9106 Z" stroke-width="1px" stroke="#02A6D3" fill="#02A6D3"/>
        <path clip-path="url(#clip-2089018456)" d="M 47.3527,0.9106 L 47.3527,19.1232 L 48.2633,19.1232 L 48.2633,0.9106 L 47.3527,0.9106 Z" stroke-width="1px" stroke="#02A7D4" fill="#02A7D4"/>
        <path clip-path="url(#clip-2089018456)" d="M 48.2633,0.9106 L 48.2633,19.1232 L 49.1740,19.1232 L 49.1740,0.9106 L 48.2633,0.9106 Z" stroke-width="1px" stroke="#01A9D5" fill="#01A9D5"/>
        <path clip-path="url(#clip-2089018456)" d="M 49.1740,0.9106 L 49.1740,19.1232 L 50.0846,19.1232 L 50.0846,0.9106 L 49.1740,0.9106 Z" stroke-width="1px" stroke="#01AAD5" fill="#01AAD5"/>
        <path clip-path="url(#clip-2089018456)" d="M 50.0846,0.9106 L 50.0846,19.1232 L 50.9952,19.1232 L 50.9952,0.9106 L 50.0846,0.9106 Z" stroke-width="1px" stroke="#01ACD6" fill="#01ACD6"/>
        <path clip-path="url(#clip-2089018456)" d="M 50.9952,0.9106 L 50.9952,19.1232 L 51.9059,19.1232 L 51.9059,0.9106 L 50.9952,0.9106 Z" stroke-width="1px" stroke="#01ADD7" fill="#01ADD7"/>
        <path clip-path="url(#clip-2089018456)" d="M 51.9059,0.9106 L 51.9059,19.1232 L 52.8165,19.1232 L 52.8165,0.9106 L 51.9059,0.9106 Z" stroke-width="1px" stroke="#00AFD7" fill="#00AFD7"/>
        <g transform="matrix(0.0625 0.0000 0.0000 0.0625 0.0000 0.0000)">
          <path d="M 60.1015,302.3289 L 845.0639,302.3289 L 845.0639,17.3020 L 60.1015,17.3020 L 60.1015,302.3289 " stroke="#0054A6" stroke-width="9.1063" stroke-linecap="round" stroke-linejoin="round" fill="none"/>
        </g>
        <g transform="matrix(1.0000 0.0000 0.0000 1.0000 0.0000 0.0000)">
</g>
        <g transform="matrix(0.0625 0.0000 0.0000 0.0625 0.0000 0.0000)">
          <path d="M 452.5827,288.6694 C 396.1237,288.6694 316.8989,286.8482 244.0486,285.0269 C 181.2152,283.2057 150.2538,282.2950 133.8625,280.4738 C 123.8456,279.5632 99.2586,276.8313 99.2586,258.6187 L 99.2586,61.0122 C 99.2586,42.7996 122.9349,40.0677 133.8625,39.1571 C 150.2538,38.2464 181.2152,36.4252 244.0486,34.6039 C 315.9883,32.7826 396.1237,30.9614 452.5827,30.9614 C 509.0417,30.9614 589.1771,32.7826 661.1168,34.6039 C 723.9502,36.4252 754.9116,38.2464 771.3029,39.1571 C 781.3198,40.0677 805.9068,42.7996 805.9068,61.0122 L 805.9068,258.6187 C 805.9068,276.8313 781.3198,279.5632 771.3029,280.4738 C 754.9116,282.2950 723.9502,283.2057 661.1168,285.0269 C 588.2664,286.8482 509.0417,288.6694 452.5827,288.6694 Z " fill="#0054A6" stroke="none"/>
        </g>
        <g transform="matrix(1.0000 0.0000 0.0000 1.0000 0.0000 0.0000)">
</g>
        <g transform="matrix(0.0625 0.0000 0.0000 0.0625 0.0000 0.0000)">
          <path d="M 660.2061,50.9952 C 587.3558,48.2633 508.1311,47.3527 452.5827,47.3527 C 397.0343,47.3527 317.8096,48.2633 244.9592,50.9952 C 121.1137,54.6377 121.1137,55.5484 121.1137,61.0122 L 121.1137,258.6187 C 121.1137,264.0825 121.1137,265.9037 244.9592,269.5462 C 317.8096,271.3675 397.0343,272.2781 452.5827,272.2781 C 508.1311,272.2781 587.3558,271.3675 660.2061,269.5462 C 784.0517,265.9037 784.0517,264.0825 784.0517,258.6187 L 784.0517,61.0122 C 784.0517,55.5484 784.0517,54.6377 660.2061,50.9952 M 210.3553,54.6377 L 210.3553,264.9931 M 258.6187,53.7271 L 258.6187,266.8143 M 306.8820,51.9059 L 306.8820,267.7250 M 355.1454,50.9952 L 355.1454,268.6356 M 404.3193,50.9952 L 404.3193,269.5462 M 161.1814,56.4590 L 161.1814,263.1718 M 452.5827,50.0846 L 452.5827,269.5462 M 743.9840,56.4590 L 743.9840,263.1718 M 500.8460,50.9952 L 500.8460,269.5462 M 550.0200,50.9952 L 550.0200,268.6356 M 598.2834,51.9059 L 598.2834,267.7250 M 646.5467,53.7271 L 646.5467,266.8143 M 694.8101,54.6377 L 694.8101,264.9931 " stroke="#C8E6F2" stroke-width="9.1063" stroke-linecap="round" stroke-linejoin="round" fill="none"/>
        </g>
        <g transform="matrix(1.0000 0.0000 0.0000 1.0000 0.0000 0.0000)">
</g>
        <g transform="matrix(0.0625 0.0000 0.0000 0.0625 0.0000 0.0000)">
          <path d="M 470.7953,117.4712 C 475.3484,117.4712 478.9909,120.2030 478.9909,123.8456 L 478.9909,198.5172 C 478.9909,201.2490 475.3484,203.9809 470.7953,203.9809 L 434.3701,203.9809 C 429.8170,203.9809 426.1744,201.2490 426.1744,198.5172 L 426.1744,123.8456 C 426.1744,120.2030 429.8170,117.4712 434.3701,117.4712 L 470.7953,117.4712 Z " fill="#C8E6F2" stroke="none"/>
        </g>
        <g transform="matrix(1.0000 0.0000 0.0000 1.0000 0.0000 0.0000)">
          <path d="M 4.5531,1.8213 L 1.8213,2.7319 L 1.8213,18.2126 L 4.5531,19.1232 L 4.5531,1.8213 " fill="none" stroke="none"/>
          <defs>
            <clipPath id="clip-628175011">
              <path d="M 4.5531,1.8213 L 1.8213,2.7319 L 1.8213,18.2126 L 4.5531,19.1232 L 4.5531,1.8213 Z"/>
            </clipPath>
          </defs>
          <path clip-path="url(#clip-628175011)" d="M 0.9106,0.9106 L 0.9106,1.8213 L 3.6425,1.8213 L 3.6425,0.9106 L 0.9106,0.9106 Z" stroke-width="1px" stroke="#55BCEB" fill="#55BCEB"/>
          <path clip-path="url(#clip-628175011)" d="M 0.9106,1.8213 L 0.9106,2.7319 L 3.6425,2.7319 L 3.6425,1.8213 L 0.9106,1.8213 Z" stroke-width="1px" stroke="#037AC2" fill="#037AC2"/>
          <path clip-path="url(#clip-628175011)" d="M 0.9106,2.7319 L 0.9106,3.6425 L 3.6425,3.6425 L 3.6425,2.7319 L 0.9106,2.7319 Z" stroke-width="1px" stroke="#087EC4" fill="#087EC4"/>
          <path clip-path="url(#clip-628175011)" d="M 0.9106,3.6425 L 0.9106,4.5531 L 3.6425,4.5531 L 3.6425,3.6425 L 0.9106,3.6425 Z" stroke-width="1px" stroke="#0D81C6" fill="#0D81C6"/>
          <path clip-path="url(#clip-628175011)" d="M 0.9106,4.5531 L 0.9106,5.4638 L 3.6425,5.4638 L 3.6425,4.5531 L 0.9106,4.5531 Z" stroke-width="1px" stroke="#1185C8" fill="#1185C8"/>
          <path clip-path="url(#clip-628175011)" d="M 0.9106,5.4638 L 0.9106,6.3744 L 3.6425,6.3744 L 3.6425,5.4638 L 0.9106,5.4638 Z" stroke-width="1px" stroke="#1688CB" fill="#1688CB"/>
          <path clip-path="url(#clip-628175011)" d="M 0.9106,6.3744 L 0.9106,7.2850 L 3.6425,7.2850 L 3.6425,6.3744 L 0.9106,6.3744 Z" stroke-width="1px" stroke="#1A8CCD" fill="#1A8CCD"/>
          <path clip-path="url(#clip-628175011)" d="M 0.9106,7.2850 L 0.9106,8.1957 L 3.6425,8.1957 L 3.6425,7.2850 L 0.9106,7.2850 Z" stroke-width="1px" stroke="#1E8FCF" fill="#1E8FCF"/>
          <path clip-path="url(#clip-628175011)" d="M 0.9106,8.1957 L 0.9106,9.1063 L 3.6425,9.1063 L 3.6425,8.1957 L 0.9106,8.1957 Z" stroke-width="1px" stroke="#2293D1" fill="#2293D1"/>
          <path clip-path="url(#clip-628175011)" d="M 0.9106,9.1063 L 0.9106,10.0169 L 3.6425,10.0169 L 3.6425,9.1063 L 0.9106,9.1063 Z" stroke-width="1px" stroke="#2796D4" fill="#2796D4"/>
          <path clip-path="url(#clip-628175011)" d="M 0.9106,10.0169 L 0.9106,10.9276 L 3.6425,10.9276 L 3.6425,10.0169 L 0.9106,10.0169 Z" stroke-width="1px" stroke="#2B9AD6" fill="#2B9AD6"/>
          <path clip-path="url(#clip-628175011)" d="M 0.9106,10.9276 L 0.9106,11.8382 L 3.6425,11.8382 L 3.6425,10.9276 L 0.9106,10.9276 Z" stroke-width="1px" stroke="#2F9DD8" fill="#2F9DD8"/>
          <path clip-path="url(#clip-628175011)" d="M 0.9106,11.8382 L 0.9106,12.7488 L 3.6425,12.7488 L 3.6425,11.8382 L 0.9106,11.8382 Z" stroke-width="1px" stroke="#34A1DA" fill="#34A1DA"/>
          <path clip-path="url(#clip-628175011)" d="M 0.9106,12.7488 L 0.9106,13.6594 L 3.6425,13.6594 L 3.6425,12.7488 L 0.9106,12.7488 Z" stroke-width="1px" stroke="#39A4DD" fill="#39A4DD"/>
          <path clip-path="url(#clip-628175011)" d="M 0.9106,13.6594 L 0.9106,14.5701 L 3.6425,14.5701 L 3.6425,13.6594 L 0.9106,13.6594 Z" stroke-width="1px" stroke="#3DA8DF" fill="#3DA8DF"/>
          <path clip-path="url(#clip-628175011)" d="M 0.9106,14.5701 L 0.9106,15.4807 L 3.6425,15.4807 L 3.6425,14.5701 L 0.9106,14.5701 Z" stroke-width="1px" stroke="#42ACE0" fill="#42ACE0"/>
          <path clip-path="url(#clip-628175011)" d="M 0.9106,15.4807 L 0.9106,16.3913 L 3.6425,16.3913 L 3.6425,15.4807 L 0.9106,15.4807 Z" stroke-width="1px" stroke="#46AFE3" fill="#46AFE3"/>
          <path clip-path="url(#clip-628175011)" d="M 0.9106,16.3913 L 0.9106,17.3020 L 3.6425,17.3020 L 3.6425,16.3913 L 0.9106,16.3913 Z" stroke-width="1px" stroke="#4AB2E5" fill="#4AB2E5"/>
          <path clip-path="url(#clip-628175011)" d="M 0.9106,17.3020 L 0.9106,18.2126 L 3.6425,18.2126 L 3.6425,17.3020 L 0.9106,17.3020 Z" stroke-width="1px" stroke="#4FB6E7" fill="#4FB6E7"/>
          <path clip-path="url(#clip-628175011)" d="M 0.9106,18.2126 L 0.9106,19.1232 L 3.6425,19.1232 L 3.6425,18.2126 L 0.9106,18.2126 Z" stroke-width="1px" stroke="#53BAE9" fill="#53BAE9"/>
        </g>
        <g transform="matrix(0.0625 0.0000 0.0000 0.0625 0.0000 0.0000)">
          <path d="M 60.1015,17.3020 L 17.3020,41.8889 L 17.3020,277.7419 L 60.1015,302.3289 L 60.1015,17.3020 " stroke="#0054A6" stroke-width="9.1063" stroke-linecap="round" stroke-linejoin="round" fill="none"/>
        </g>
        <g transform="matrix(1.0000 0.0000 0.0000 1.0000 0.0000 0.0000)">
</g>
      </g>
      <!--emf-blob end-->
    </g>
  </g>
</svg>
