<svg xmlns="http://www.w3.org/2000/svg" xmlns:xlink="http://www.w3.org/1999/xlink" version="1.1" width="56.6929000000" height="57.6000000000">
  <title><![CDATA[FAS3000 w/FC]]></title>
  <g transform=" scale(1.000000) ">
    <!--converted by libvisio2svg-->
    <g transform=" translate(-1.168300,-2.611100) ">
      <!--emf-blob start-->
      <g transform="translate(0.9689, 0.9689)">
        <path d="M 4.8445,30.0356 L 56.1957,30.0356 L 56.1957,16.4712 L 4.8445,16.4712 L 4.8445,30.0356 Z M 4.8445,15.5023 L 56.1957,15.5023 L 56.1957,1.9378 L 4.8445,1.9378 L 4.8445,15.5023 Z " fill="none" stroke="none"/>
        <defs>
          <clipPath id="clip-939819582">
            <path d="M 4.8445,30.0356 L 56.1957,30.0356 L 56.1957,16.4712 L 4.8445,16.4712 L 4.8445,30.0356 Z M 4.8445,15.5023 L 56.1957,15.5023 L 56.1957,1.9378 L 4.8445,1.9378 L 4.8445,15.5023 Z Z"/>
          </clipPath>
        </defs>
        <path clip-path="url(#clip-939819582)" d="M 3.8756,0.9689 L 3.8756,30.0356 L 4.8445,30.0356 L 4.8445,0.9689 L 3.8756,0.9689 Z" stroke-width="1px" stroke="#00B0D8" fill="#00B0D8"/>
        <path clip-path="url(#clip-939819582)" d="M 4.8445,0.9689 L 4.8445,30.0356 L 5.8134,30.0356 L 5.8134,0.9689 L 4.8445,0.9689 Z" stroke-width="1px" stroke="#1263B2" fill="#1263B2"/>
        <path clip-path="url(#clip-939819582)" d="M 5.8134,0.9689 L 5.8134,30.0356 L 6.7822,30.0356 L 6.7822,0.9689 L 5.8134,0.9689 Z" stroke-width="1px" stroke="#1165B2" fill="#1165B2"/>
        <path clip-path="url(#clip-939819582)" d="M 6.7822,0.9689 L 6.7822,30.0356 L 7.7511,30.0356 L 7.7511,0.9689 L 6.7822,0.9689 Z" stroke-width="1px" stroke="#1166B3" fill="#1166B3"/>
        <path clip-path="url(#clip-939819582)" d="M 7.7511,0.9689 L 7.7511,30.0356 L 8.7200,30.0356 L 8.7200,0.9689 L 7.7511,0.9689 Z" stroke-width="1px" stroke="#1168B3" fill="#1168B3"/>
        <path clip-path="url(#clip-939819582)" d="M 8.7200,0.9689 L 8.7200,30.0356 L 9.6889,30.0356 L 9.6889,0.9689 L 8.7200,0.9689 Z" stroke-width="1px" stroke="#1169B4" fill="#1169B4"/>
        <path clip-path="url(#clip-939819582)" d="M 9.6889,0.9689 L 9.6889,30.0356 L 10.6578,30.0356 L 10.6578,0.9689 L 9.6889,0.9689 Z" stroke-width="1px" stroke="#106BB5" fill="#106BB5"/>
        <path clip-path="url(#clip-939819582)" d="M 10.6578,0.9689 L 10.6578,30.0356 L 11.6267,30.0356 L 11.6267,0.9689 L 10.6578,0.9689 Z" stroke-width="1px" stroke="#106CB6" fill="#106CB6"/>
        <path clip-path="url(#clip-939819582)" d="M 11.6267,0.9689 L 11.6267,30.0356 L 12.5956,30.0356 L 12.5956,0.9689 L 11.6267,0.9689 Z" stroke-width="1px" stroke="#106EB7" fill="#106EB7"/>
        <path clip-path="url(#clip-939819582)" d="M 12.5956,0.9689 L 12.5956,30.0356 L 13.5645,30.0356 L 13.5645,0.9689 L 12.5956,0.9689 Z" stroke-width="1px" stroke="#0F6FB7" fill="#0F6FB7"/>
        <path clip-path="url(#clip-939819582)" d="M 13.5645,0.9689 L 13.5645,30.0356 L 14.5334,30.0356 L 14.5334,0.9689 L 13.5645,0.9689 Z" stroke-width="1px" stroke="#0F71B8" fill="#0F71B8"/>
        <path clip-path="url(#clip-939819582)" d="M 14.5334,0.9689 L 14.5334,30.0356 L 15.5023,30.0356 L 15.5023,0.9689 L 14.5334,0.9689 Z" stroke-width="1px" stroke="#0F72B9" fill="#0F72B9"/>
        <path clip-path="url(#clip-939819582)" d="M 15.5023,0.9689 L 15.5023,30.0356 L 16.4712,30.0356 L 16.4712,0.9689 L 15.5023,0.9689 Z" stroke-width="1px" stroke="#0E74BA" fill="#0E74BA"/>
        <path clip-path="url(#clip-939819582)" d="M 16.4712,0.9689 L 16.4712,30.0356 L 17.4401,30.0356 L 17.4401,0.9689 L 16.4712,0.9689 Z" stroke-width="1px" stroke="#0E75BA" fill="#0E75BA"/>
        <path clip-path="url(#clip-939819582)" d="M 17.4401,0.9689 L 17.4401,30.0356 L 18.4089,30.0356 L 18.4089,0.9689 L 17.4401,0.9689 Z" stroke-width="1px" stroke="#0E77BB" fill="#0E77BB"/>
        <path clip-path="url(#clip-939819582)" d="M 18.4089,0.9689 L 18.4089,30.0356 L 19.3778,30.0356 L 19.3778,0.9689 L 18.4089,0.9689 Z" stroke-width="1px" stroke="#0D78BC" fill="#0D78BC"/>
        <path clip-path="url(#clip-939819582)" d="M 19.3778,0.9689 L 19.3778,30.0356 L 20.3467,30.0356 L 20.3467,0.9689 L 19.3778,0.9689 Z" stroke-width="1px" stroke="#0D79BC" fill="#0D79BC"/>
        <path clip-path="url(#clip-939819582)" d="M 20.3467,0.9689 L 20.3467,30.0356 L 21.3156,30.0356 L 21.3156,0.9689 L 20.3467,0.9689 Z" stroke-width="1px" stroke="#0C7ABD" fill="#0C7ABD"/>
        <path clip-path="url(#clip-939819582)" d="M 21.3156,0.9689 L 21.3156,30.0356 L 22.2845,30.0356 L 22.2845,0.9689 L 21.3156,0.9689 Z" stroke-width="1px" stroke="#0C7CBE" fill="#0C7CBE"/>
        <path clip-path="url(#clip-939819582)" d="M 22.2845,0.9689 L 22.2845,30.0356 L 23.2534,30.0356 L 23.2534,0.9689 L 22.2845,0.9689 Z" stroke-width="1px" stroke="#0B7DBF" fill="#0B7DBF"/>
        <path clip-path="url(#clip-939819582)" d="M 23.2534,0.9689 L 23.2534,30.0356 L 24.2223,30.0356 L 24.2223,0.9689 L 23.2534,0.9689 Z" stroke-width="1px" stroke="#0B7FC0" fill="#0B7FC0"/>
        <path clip-path="url(#clip-939819582)" d="M 24.2223,0.9689 L 24.2223,30.0356 L 25.1912,30.0356 L 25.1912,0.9689 L 24.2223,0.9689 Z" stroke-width="1px" stroke="#0B80C0" fill="#0B80C0"/>
        <path clip-path="url(#clip-939819582)" d="M 25.1912,0.9689 L 25.1912,30.0356 L 26.1601,30.0356 L 26.1601,0.9689 L 25.1912,0.9689 Z" stroke-width="1px" stroke="#0A82C1" fill="#0A82C1"/>
        <path clip-path="url(#clip-939819582)" d="M 26.1601,0.9689 L 26.1601,30.0356 L 27.1290,30.0356 L 27.1290,0.9689 L 26.1601,0.9689 Z" stroke-width="1px" stroke="#0A83C2" fill="#0A83C2"/>
        <path clip-path="url(#clip-939819582)" d="M 27.1290,0.9689 L 27.1290,30.0356 L 28.0979,30.0356 L 28.0979,0.9689 L 27.1290,0.9689 Z" stroke-width="1px" stroke="#0A84C2" fill="#0A84C2"/>
        <path clip-path="url(#clip-939819582)" d="M 28.0979,0.9689 L 28.0979,30.0356 L 29.0668,30.0356 L 29.0668,0.9689 L 28.0979,0.9689 Z" stroke-width="1px" stroke="#0A86C3" fill="#0A86C3"/>
        <path clip-path="url(#clip-939819582)" d="M 29.0668,0.9689 L 29.0668,30.0356 L 30.0356,30.0356 L 30.0356,0.9689 L 29.0668,0.9689 Z" stroke-width="1px" stroke="#0987C4" fill="#0987C4"/>
        <path clip-path="url(#clip-939819582)" d="M 30.0356,0.9689 L 30.0356,30.0356 L 31.0045,30.0356 L 31.0045,0.9689 L 30.0356,0.9689 Z" stroke-width="1px" stroke="#0989C5" fill="#0989C5"/>
        <path clip-path="url(#clip-939819582)" d="M 31.0045,0.9689 L 31.0045,30.0356 L 31.9734,30.0356 L 31.9734,0.9689 L 31.0045,0.9689 Z" stroke-width="1px" stroke="#098AC6" fill="#098AC6"/>
        <path clip-path="url(#clip-939819582)" d="M 31.9734,0.9689 L 31.9734,30.0356 L 32.9423,30.0356 L 32.9423,0.9689 L 31.9734,0.9689 Z" stroke-width="1px" stroke="#088CC6" fill="#088CC6"/>
        <path clip-path="url(#clip-939819582)" d="M 32.9423,0.9689 L 32.9423,30.0356 L 33.9112,30.0356 L 33.9112,0.9689 L 32.9423,0.9689 Z" stroke-width="1px" stroke="#088DC7" fill="#088DC7"/>
        <path clip-path="url(#clip-939819582)" d="M 33.9112,0.9689 L 33.9112,30.0356 L 34.8801,30.0356 L 34.8801,0.9689 L 33.9112,0.9689 Z" stroke-width="1px" stroke="#088FC7" fill="#088FC7"/>
        <path clip-path="url(#clip-939819582)" d="M 34.8801,0.9689 L 34.8801,30.0356 L 35.8490,30.0356 L 35.8490,0.9689 L 34.8801,0.9689 Z" stroke-width="1px" stroke="#0890C8" fill="#0890C8"/>
        <path clip-path="url(#clip-939819582)" d="M 35.8490,0.9689 L 35.8490,30.0356 L 36.8179,30.0356 L 36.8179,0.9689 L 35.8490,0.9689 Z" stroke-width="1px" stroke="#0792C9" fill="#0792C9"/>
        <path clip-path="url(#clip-939819582)" d="M 36.8179,0.9689 L 36.8179,30.0356 L 37.7868,30.0356 L 37.7868,0.9689 L 36.8179,0.9689 Z" stroke-width="1px" stroke="#0793C9" fill="#0793C9"/>
        <path clip-path="url(#clip-939819582)" d="M 37.7868,0.9689 L 37.7868,30.0356 L 38.7557,30.0356 L 38.7557,0.9689 L 37.7868,0.9689 Z" stroke-width="1px" stroke="#0795CA" fill="#0795CA"/>
        <path clip-path="url(#clip-939819582)" d="M 38.7557,0.9689 L 38.7557,30.0356 L 39.7246,30.0356 L 39.7246,0.9689 L 38.7557,0.9689 Z" stroke-width="1px" stroke="#0696CB" fill="#0696CB"/>
        <path clip-path="url(#clip-939819582)" d="M 39.7246,0.9689 L 39.7246,30.0356 L 40.6935,30.0356 L 40.6935,0.9689 L 39.7246,0.9689 Z" stroke-width="1px" stroke="#0698CC" fill="#0698CC"/>
        <path clip-path="url(#clip-939819582)" d="M 40.6935,0.9689 L 40.6935,30.0356 L 41.6623,30.0356 L 41.6623,0.9689 L 40.6935,0.9689 Z" stroke-width="1px" stroke="#0699CD" fill="#0699CD"/>
        <path clip-path="url(#clip-939819582)" d="M 41.6623,0.9689 L 41.6623,30.0356 L 42.6312,30.0356 L 42.6312,0.9689 L 41.6623,0.9689 Z" stroke-width="1px" stroke="#059BCD" fill="#059BCD"/>
        <path clip-path="url(#clip-939819582)" d="M 42.6312,0.9689 L 42.6312,30.0356 L 43.6001,30.0356 L 43.6001,0.9689 L 42.6312,0.9689 Z" stroke-width="1px" stroke="#059CCE" fill="#059CCE"/>
        <path clip-path="url(#clip-939819582)" d="M 43.6001,0.9689 L 43.6001,30.0356 L 44.5690,30.0356 L 44.5690,0.9689 L 43.6001,0.9689 Z" stroke-width="1px" stroke="#059ECE" fill="#059ECE"/>
        <path clip-path="url(#clip-939819582)" d="M 44.5690,0.9689 L 44.5690,30.0356 L 45.5379,30.0356 L 45.5379,0.9689 L 44.5690,0.9689 Z" stroke-width="1px" stroke="#049FCF" fill="#049FCF"/>
        <path clip-path="url(#clip-939819582)" d="M 45.5379,0.9689 L 45.5379,30.0356 L 46.5068,30.0356 L 46.5068,0.9689 L 45.5379,0.9689 Z" stroke-width="1px" stroke="#04A0D0" fill="#04A0D0"/>
        <path clip-path="url(#clip-939819582)" d="M 46.5068,0.9689 L 46.5068,30.0356 L 47.4757,30.0356 L 47.4757,0.9689 L 46.5068,0.9689 Z" stroke-width="1px" stroke="#03A1D1" fill="#03A1D1"/>
        <path clip-path="url(#clip-939819582)" d="M 47.4757,0.9689 L 47.4757,30.0356 L 48.4446,30.0356 L 48.4446,0.9689 L 47.4757,0.9689 Z" stroke-width="1px" stroke="#03A3D2" fill="#03A3D2"/>
        <path clip-path="url(#clip-939819582)" d="M 48.4446,0.9689 L 48.4446,30.0356 L 49.4135,30.0356 L 49.4135,0.9689 L 48.4446,0.9689 Z" stroke-width="1px" stroke="#02A4D2" fill="#02A4D2"/>
        <path clip-path="url(#clip-939819582)" d="M 49.4135,0.9689 L 49.4135,30.0356 L 50.3824,30.0356 L 50.3824,0.9689 L 49.4135,0.9689 Z" stroke-width="1px" stroke="#02A6D3" fill="#02A6D3"/>
        <path clip-path="url(#clip-939819582)" d="M 50.3824,0.9689 L 50.3824,30.0356 L 51.3513,30.0356 L 51.3513,0.9689 L 50.3824,0.9689 Z" stroke-width="1px" stroke="#02A7D4" fill="#02A7D4"/>
        <path clip-path="url(#clip-939819582)" d="M 51.3513,0.9689 L 51.3513,30.0356 L 52.3202,30.0356 L 52.3202,0.9689 L 51.3513,0.9689 Z" stroke-width="1px" stroke="#01A9D5" fill="#01A9D5"/>
        <path clip-path="url(#clip-939819582)" d="M 52.3202,0.9689 L 52.3202,30.0356 L 53.2890,30.0356 L 53.2890,0.9689 L 52.3202,0.9689 Z" stroke-width="1px" stroke="#01AAD5" fill="#01AAD5"/>
        <path clip-path="url(#clip-939819582)" d="M 53.2890,0.9689 L 53.2890,30.0356 L 54.2579,30.0356 L 54.2579,0.9689 L 53.2890,0.9689 Z" stroke-width="1px" stroke="#01ACD6" fill="#01ACD6"/>
        <path clip-path="url(#clip-939819582)" d="M 54.2579,0.9689 L 54.2579,30.0356 L 55.2268,30.0356 L 55.2268,0.9689 L 54.2579,0.9689 Z" stroke-width="1px" stroke="#01ADD7" fill="#01ADD7"/>
        <path clip-path="url(#clip-939819582)" d="M 55.2268,0.9689 L 55.2268,30.0356 L 56.1957,30.0356 L 56.1957,0.9689 L 55.2268,0.9689 Z" stroke-width="1px" stroke="#00AFD7" fill="#00AFD7"/>
        <g transform="matrix(0.0625 0.0000 0.0000 0.0625 0.0000 0.0000)">
          <path d="M 63.9469,474.7570 L 899.1316,474.7570 L 899.1316,249.0052 L 63.9469,249.0052 L 63.9469,474.7570 M 63.9469,243.1918 L 899.1316,243.1918 L 899.1316,18.4089 L 63.9469,18.4089 L 63.9469,243.1918 " stroke="#0054A6" stroke-width="9.6889" stroke-linecap="round" stroke-linejoin="round" fill="none"/>
        </g>
        <g transform="matrix(1.0000 0.0000 0.0000 1.0000 0.0000 0.0000)">
          <path d="M 15.5023,2.9067 C 6.7822,3.8756 6.7822,3.8756 6.7822,3.8756 L 6.7822,12.5956 C 6.7822,13.5645 6.7822,13.5645 15.5023,13.5645 C 20.3467,13.5645 26.1601,14.5334 30.0356,14.5334 C 34.8801,14.5334 40.6935,13.5645 45.5379,13.5645 C 54.2579,13.5645 54.2579,13.5645 54.2579,12.5956 L 54.2579,3.8756 C 54.2579,3.8756 54.2579,3.8756 45.5379,2.9067 C 40.6935,2.9067 34.8801,2.9067 30.0356,2.9067 C 26.1601,2.9067 20.3467,2.9067 15.5023,2.9067 Z " fill="none" stroke="none"/>
          <defs>
            <clipPath id="clip-2001100545">
              <path d="M 15.5023,2.9067 C 6.7822,3.8756 6.7822,3.8756 6.7822,3.8756 L 6.7822,12.5956 C 6.7822,13.5645 6.7822,13.5645 15.5023,13.5645 C 20.3467,13.5645 26.1601,14.5334 30.0356,14.5334 C 34.8801,14.5334 40.6935,13.5645 45.5379,13.5645 C 54.2579,13.5645 54.2579,13.5645 54.2579,12.5956 L 54.2579,3.8756 C 54.2579,3.8756 54.2579,3.8756 45.5379,2.9067 C 40.6935,2.9067 34.8801,2.9067 30.0356,2.9067 C 26.1601,2.9067 20.3467,2.9067 15.5023,2.9067 Z"/>
            </clipPath>
          </defs>
          <path clip-path="url(#clip-2001100545)" d="M 5.8134,1.9378 L 5.8134,2.9067 L 54.2579,2.9067 L 54.2579,1.9378 L 5.8134,1.9378 Z" stroke-width="1px" stroke="#B5DFEF" fill="#B5DFEF"/>
          <path clip-path="url(#clip-2001100545)" d="M 5.8134,2.9067 L 5.8134,3.8756 L 54.2579,3.8756 L 54.2579,2.9067 L 5.8134,2.9067 Z" stroke-width="1px" stroke="#B3DEEE" fill="#B3DEEE"/>
          <path clip-path="url(#clip-2001100545)" d="M 5.8134,3.8756 L 5.8134,4.8445 L 54.2579,4.8445 L 54.2579,3.8756 L 5.8134,3.8756 Z" stroke-width="1px" stroke="#C2E4F2" fill="#C2E4F2"/>
          <path clip-path="url(#clip-2001100545)" d="M 5.8134,4.8445 L 5.8134,5.8134 L 54.2579,5.8134 L 54.2579,4.8445 L 5.8134,4.8445 Z" stroke-width="1px" stroke="#D0EAF5" fill="#D0EAF5"/>
          <path clip-path="url(#clip-2001100545)" d="M 5.8134,5.8134 L 5.8134,6.7822 L 54.2579,6.7822 L 54.2579,5.8134 L 5.8134,5.8134 Z" stroke-width="1px" stroke="#DDF1F7" fill="#DDF1F7"/>
          <path clip-path="url(#clip-2001100545)" d="M 5.8134,6.7822 L 5.8134,7.7511 L 54.2579,7.7511 L 54.2579,6.7822 L 5.8134,6.7822 Z" stroke-width="1px" stroke="#ECF7FB" fill="#ECF7FB"/>
          <path clip-path="url(#clip-2001100545)" d="M 5.8134,7.7511 L 5.8134,8.7200 L 54.2579,8.7200 L 54.2579,7.7511 L 5.8134,7.7511 Z" stroke-width="1px" stroke="#FAFDFE" fill="#FAFDFE"/>
          <path clip-path="url(#clip-2001100545)" d="M 5.8134,8.7200 L 5.8134,9.6889 L 54.2579,9.6889 L 54.2579,8.7200 L 5.8134,8.7200 Z" stroke-width="1px" stroke="#F6FBFD" fill="#F6FBFD"/>
          <path clip-path="url(#clip-2001100545)" d="M 5.8134,9.6889 L 5.8134,10.6578 L 54.2579,10.6578 L 54.2579,9.6889 L 5.8134,9.6889 Z" stroke-width="1px" stroke="#E8F5FA" fill="#E8F5FA"/>
          <path clip-path="url(#clip-2001100545)" d="M 5.8134,10.6578 L 5.8134,11.6267 L 54.2579,11.6267 L 54.2579,10.6578 L 5.8134,10.6578 Z" stroke-width="1px" stroke="#DAEFF7" fill="#DAEFF7"/>
          <path clip-path="url(#clip-2001100545)" d="M 5.8134,11.6267 L 5.8134,12.5956 L 54.2579,12.5956 L 54.2579,11.6267 L 5.8134,11.6267 Z" stroke-width="1px" stroke="#CCE9F4" fill="#CCE9F4"/>
          <path clip-path="url(#clip-2001100545)" d="M 5.8134,12.5956 L 5.8134,13.5645 L 54.2579,13.5645 L 54.2579,12.5956 L 5.8134,12.5956 Z" stroke-width="1px" stroke="#BEE2F1" fill="#BEE2F1"/>
        </g>
        <g transform="matrix(0.0625 0.0000 0.0000 0.0625 0.0000 0.0000)">
          <path d="M 238.3474,45.5379 C 93.9825,51.3513 93.9825,54.2579 93.9825,62.0091 L 93.9825,198.6228 C 93.9825,206.3740 93.9825,209.2806 238.3474,215.0940 C 322.6410,218.0007 414.6857,219.9384 479.6014,219.9384 C 544.5172,219.9384 636.5619,218.0007 720.8555,215.0940 C 865.2204,209.2806 865.2204,206.3740 865.2204,198.6228 L 865.2204,62.0091 C 865.2204,54.2579 865.2204,51.3513 720.8555,45.5379 C 636.5619,42.6312 544.5172,39.7246 479.6014,39.7246 C 414.6857,39.7246 322.6410,42.6312 238.3474,45.5379 " stroke="#ADDBED" stroke-width="0.9689" stroke-linecap="butt" stroke-linejoin="round" fill="none"/>
        </g>
        <g transform="matrix(1.0000 0.0000 0.0000 1.0000 0.0000 0.0000)">
          <path d="M 15.5023,17.4401 C 6.7822,18.4089 6.7822,18.4089 6.7822,18.4089 L 6.7822,27.1290 C 6.7822,28.0979 6.7822,28.0979 15.5023,28.0979 C 20.3467,28.0979 26.1601,29.0668 30.0356,29.0668 C 34.8801,29.0668 40.6935,28.0979 45.5379,28.0979 C 54.2579,28.0979 54.2579,28.0979 54.2579,27.1290 L 54.2579,18.4089 C 54.2579,18.4089 54.2579,18.4089 45.5379,17.4401 C 40.6935,17.4401 34.8801,17.4401 30.0356,17.4401 C 26.1601,17.4401 20.3467,17.4401 15.5023,17.4401 Z " fill="none" stroke="none"/>
          <defs>
            <clipPath id="clip-1998898814">
              <path d="M 15.5023,17.4401 C 6.7822,18.4089 6.7822,18.4089 6.7822,18.4089 L 6.7822,27.1290 C 6.7822,28.0979 6.7822,28.0979 15.5023,28.0979 C 20.3467,28.0979 26.1601,29.0668 30.0356,29.0668 C 34.8801,29.0668 40.6935,28.0979 45.5379,28.0979 C 54.2579,28.0979 54.2579,28.0979 54.2579,27.1290 L 54.2579,18.4089 C 54.2579,18.4089 54.2579,18.4089 45.5379,17.4401 C 40.6935,17.4401 34.8801,17.4401 30.0356,17.4401 C 26.1601,17.4401 20.3467,17.4401 15.5023,17.4401 Z"/>
            </clipPath>
          </defs>
          <path clip-path="url(#clip-1998898814)" d="M 5.8134,16.4712 L 5.8134,17.4401 L 54.2579,17.4401 L 54.2579,16.4712 L 5.8134,16.4712 Z" stroke-width="1px" stroke="#B3DEEE" fill="#B3DEEE"/>
          <path clip-path="url(#clip-1998898814)" d="M 5.8134,17.4401 L 5.8134,18.4089 L 54.2579,18.4089 L 54.2579,17.4401 L 5.8134,17.4401 Z" stroke-width="1px" stroke="#B5DFEF" fill="#B5DFEF"/>
          <path clip-path="url(#clip-1998898814)" d="M 5.8134,18.4089 L 5.8134,19.3778 L 54.2579,19.3778 L 54.2579,18.4089 L 5.8134,18.4089 Z" stroke-width="1px" stroke="#C3E5F2" fill="#C3E5F2"/>
          <path clip-path="url(#clip-1998898814)" d="M 5.8134,19.3778 L 5.8134,20.3467 L 54.2579,20.3467 L 54.2579,19.3778 L 5.8134,19.3778 Z" stroke-width="1px" stroke="#D1EBF5" fill="#D1EBF5"/>
          <path clip-path="url(#clip-1998898814)" d="M 5.8134,20.3467 L 5.8134,21.3156 L 54.2579,21.3156 L 54.2579,20.3467 L 5.8134,20.3467 Z" stroke-width="1px" stroke="#DFF1F8" fill="#DFF1F8"/>
          <path clip-path="url(#clip-1998898814)" d="M 5.8134,21.3156 L 5.8134,22.2845 L 54.2579,22.2845 L 54.2579,21.3156 L 5.8134,21.3156 Z" stroke-width="1px" stroke="#EEF7FC" fill="#EEF7FC"/>
          <path clip-path="url(#clip-1998898814)" d="M 5.8134,22.2845 L 5.8134,23.2534 L 54.2579,23.2534 L 54.2579,22.2845 L 5.8134,22.2845 Z" stroke-width="1px" stroke="#FBFEFE" fill="#FBFEFE"/>
          <path clip-path="url(#clip-1998898814)" d="M 5.8134,23.2534 L 5.8134,24.2223 L 54.2579,24.2223 L 54.2579,23.2534 L 5.8134,23.2534 Z" stroke-width="1px" stroke="#F5FBFD" fill="#F5FBFD"/>
          <path clip-path="url(#clip-1998898814)" d="M 5.8134,24.2223 L 5.8134,25.1912 L 54.2579,25.1912 L 54.2579,24.2223 L 5.8134,24.2223 Z" stroke-width="1px" stroke="#E7F4FA" fill="#E7F4FA"/>
          <path clip-path="url(#clip-1998898814)" d="M 5.8134,25.1912 L 5.8134,26.1601 L 54.2579,26.1601 L 54.2579,25.1912 L 5.8134,25.1912 Z" stroke-width="1px" stroke="#D8EEF6" fill="#D8EEF6"/>
          <path clip-path="url(#clip-1998898814)" d="M 5.8134,26.1601 L 5.8134,27.1290 L 54.2579,27.1290 L 54.2579,26.1601 L 5.8134,26.1601 Z" stroke-width="1px" stroke="#CAE8F4" fill="#CAE8F4"/>
          <path clip-path="url(#clip-1998898814)" d="M 5.8134,27.1290 L 5.8134,28.0979 L 54.2579,28.0979 L 54.2579,27.1290 L 5.8134,27.1290 Z" stroke-width="1px" stroke="#BCE2F0" fill="#BCE2F0"/>
        </g>
        <g transform="matrix(0.0625 0.0000 0.0000 0.0625 0.0000 0.0000)">
          <path d="M 238.3474,276.1342 C 93.9825,281.9475 93.9825,284.8542 93.9825,292.6053 L 93.9825,429.2191 C 93.9825,436.9702 93.9825,439.8769 238.3474,445.6902 C 322.6410,448.5969 414.6857,450.5347 479.6014,450.5347 C 544.5172,450.5347 636.5619,448.5969 720.8555,445.6902 C 865.2204,439.8769 865.2204,436.9702 865.2204,429.2191 L 865.2204,292.6053 C 865.2204,284.8542 865.2204,281.9475 720.8555,276.1342 C 636.5619,273.2275 544.5172,271.2897 479.6014,271.2897 C 414.6857,271.2897 322.6410,273.2275 238.3474,276.1342 " stroke="#ADDBED" stroke-width="0.9689" stroke-linecap="butt" stroke-linejoin="round" fill="none"/>
        </g>
        <g transform="matrix(1.0000 0.0000 0.0000 1.0000 0.0000 0.0000)">
</g>
        <g transform="matrix(0.0625 0.0000 0.0000 0.0625 0.0000 0.0000)">
          <path d="M 318.7654,128.8626 C 318.7654,93.0136 326.5165,57.1646 336.2055,57.1646 L 347.8322,57.1646 C 352.6766,57.1646 355.5833,61.0402 355.5833,66.8535 L 355.5833,191.8406 C 355.5833,196.6850 352.6766,200.5606 347.8322,200.5606 L 336.2055,200.5606 C 326.5165,200.5606 318.7654,164.7116 318.7654,128.8626 Z M 423.4057,193.7784 C 423.4057,198.6228 419.5302,202.4984 414.6857,202.4984 L 403.0590,202.4984 C 393.3701,202.4984 385.6189,165.6805 385.6189,128.8626 C 385.6189,92.0447 393.3701,55.2268 403.0590,55.2268 L 414.6857,55.2268 C 419.5302,55.2268 423.4057,60.0713 423.4057,64.9158 L 423.4057,193.7784 Z M 154.0538,186.9961 C 154.0538,190.8717 150.1782,194.7473 146.3027,194.7473 L 134.6760,194.7473 C 125.9559,194.7473 119.1737,161.8049 119.1737,128.8626 C 119.1737,95.9203 125.9559,62.9780 134.6760,62.9780 L 146.3027,62.9780 C 150.1782,62.9780 154.0538,66.8535 154.0538,71.6980 L 154.0538,186.9961 Z M 186.0272,128.8626 C 186.0272,94.9514 192.8095,61.0402 201.5295,61.0402 L 213.1562,61.0402 C 218.0007,61.0402 220.9073,64.9158 220.9073,69.7602 L 220.9073,187.9650 C 220.9073,192.8095 218.0007,196.6850 213.1562,196.6850 L 201.5295,196.6850 C 192.8095,196.6850 186.0272,162.7738 186.0272,128.8626 Z M 252.8808,128.8626 C 252.8808,93.9825 259.6630,59.1024 269.3519,59.1024 L 280.0097,59.1024 C 284.8542,59.1024 288.7298,62.9780 288.7298,67.8224 L 288.7298,189.9028 C 288.7298,194.7473 284.8542,198.6228 280.0097,198.6228 L 269.3519,198.6228 C 259.6630,198.6228 252.8808,163.7427 252.8808,128.8626 Z M 707.2910,128.8626 C 707.2910,93.9825 700.5088,59.1024 690.8199,59.1024 L 679.1932,59.1024 C 674.3487,59.1024 670.4731,62.9780 670.4731,67.8224 L 670.4731,189.9028 C 670.4731,194.7473 674.3487,198.6228 679.1932,198.6228 L 690.8199,198.6228 C 700.5088,198.6228 707.2910,163.7427 707.2910,128.8626 Z M 773.1757,128.8626 C 773.1757,94.9514 767.3623,61.0402 757.6734,61.0402 L 746.0467,61.0402 C 741.2022,61.0402 738.2956,64.9158 738.2956,69.7602 L 738.2956,187.9650 C 738.2956,192.8095 741.2022,196.6850 746.0467,196.6850 L 757.6734,196.6850 C 767.3623,196.6850 773.1757,162.7738 773.1757,128.8626 Z M 805.1491,186.9961 C 805.1491,190.8717 809.0247,194.7473 812.9002,194.7473 L 824.5269,194.7473 C 833.2470,194.7473 840.0292,161.8049 840.0292,128.8626 C 840.0292,95.9203 833.2470,62.9780 824.5269,62.9780 L 812.9002,62.9780 C 809.0247,62.9780 805.1491,66.8535 805.1491,71.6980 L 805.1491,186.9961 Z M 318.7654,360.4278 C 318.7654,324.5788 326.5165,288.7298 336.2055,288.7298 L 347.8322,288.7298 C 352.6766,288.7298 355.5833,292.6053 355.5833,297.4498 L 355.5833,422.4368 C 355.5833,427.2813 352.6766,432.1257 347.8322,432.1257 L 336.2055,432.1257 C 326.5165,432.1257 318.7654,396.2767 318.7654,360.4278 Z M 423.4057,424.3746 C 423.4057,429.2191 419.5302,434.0635 414.6857,434.0635 L 403.0590,434.0635 C 393.3701,434.0635 385.6189,397.2456 385.6189,360.4278 C 385.6189,323.6099 393.3701,286.7920 403.0590,286.7920 L 414.6857,286.7920 C 419.5302,286.7920 423.4057,290.6675 423.4057,295.5120 L 423.4057,424.3746 Z M 154.0538,417.5924 C 154.0538,422.4368 150.1782,425.3435 146.3027,425.3435 L 134.6760,425.3435 C 125.9559,425.3435 119.1737,392.4012 119.1737,359.4589 C 119.1737,326.5165 125.9559,293.5742 134.6760,293.5742 L 146.3027,293.5742 C 150.1782,293.5742 154.0538,297.4498 154.0538,302.2942 L 154.0538,417.5924 Z M 186.0272,359.4589 C 186.0272,325.5476 192.8095,291.6364 201.5295,291.6364 L 213.1562,291.6364 C 218.0007,291.6364 220.9073,295.5120 220.9073,300.3565 L 220.9073,419.5302 C 220.9073,424.3746 218.0007,427.2813 213.1562,427.2813 L 201.5295,427.2813 C 192.8095,427.2813 186.0272,393.3701 186.0272,359.4589 Z M 252.8808,360.4278 C 252.8808,325.5476 259.6630,290.6675 269.3519,290.6675 L 280.0097,290.6675 C 284.8542,290.6675 288.7298,294.5431 288.7298,299.3876 L 288.7298,421.4679 C 288.7298,426.3124 284.8542,430.1880 280.0097,430.1880 L 269.3519,430.1880 C 259.6630,430.1880 252.8808,395.3079 252.8808,360.4278 Z M 707.2910,360.4278 C 707.2910,325.5476 700.5088,290.6675 690.8199,290.6675 L 679.1932,290.6675 C 674.3487,290.6675 670.4731,294.5431 670.4731,299.3876 L 670.4731,421.4679 C 670.4731,426.3124 674.3487,430.1880 679.1932,430.1880 L 690.8199,430.1880 C 700.5088,430.1880 707.2910,395.3079 707.2910,360.4278 Z M 773.1757,359.4589 C 773.1757,325.5476 767.3623,291.6364 757.6734,291.6364 L 746.0467,291.6364 C 741.2022,291.6364 738.2956,295.5120 738.2956,300.3565 L 738.2956,419.5302 C 738.2956,424.3746 741.2022,427.2813 746.0467,427.2813 L 757.6734,427.2813 C 767.3623,427.2813 773.1757,393.3701 773.1757,359.4589 Z M 805.1491,417.5924 C 805.1491,422.4368 809.0247,425.3435 812.9002,425.3435 L 824.5269,425.3435 C 833.2470,425.3435 840.0292,392.4012 840.0292,359.4589 C 840.0292,326.5165 833.2470,293.5742 824.5269,293.5742 L 812.9002,293.5742 C 809.0247,293.5742 805.1491,297.4498 805.1491,302.2942 L 805.1491,417.5924 Z M 473.7881,135.6449 L 473.7881,167.6183 C 473.7881,174.4005 479.6014,180.2139 485.4148,180.2139 L 608.4641,180.2139 C 614.2774,180.2139 620.0908,174.4005 620.0908,167.6183 L 620.0908,135.6449 L 473.7881,135.6449 Z M 473.7881,367.2100 L 473.7881,399.1834 C 473.7881,404.9968 479.6014,410.8101 485.4148,410.8101 L 608.4641,410.8101 C 614.2774,410.8101 620.0908,404.9968 620.0908,399.1834 L 620.0908,367.2100 L 473.7881,367.2100 Z " fill="#0054A6" stroke="none"/>
        </g>
        <g transform="matrix(1.0000 0.0000 0.0000 1.0000 0.0000 0.0000)">
</g>
        <g transform="matrix(0.0625 0.0000 0.0000 0.0625 0.0000 0.0000)">
          <path d="M 473.7881,136.6137 L 620.0908,136.6137 L 620.0908,112.3914 L 473.7881,112.3914 L 473.7881,136.6137 Z M 473.7881,367.2100 L 620.0908,367.2100 L 620.0908,342.9877 L 473.7881,342.9877 L 473.7881,367.2100 Z " fill="#8DC63F" stroke-width="1px" stroke="#8DC63F"/>
        </g>
        <g transform="matrix(1.0000 0.0000 0.0000 1.0000 0.0000 0.0000)">
          <defs>
            <clipPath id="clip-1548233367">
              <path d="M 4.8445,30.0356 L 56.1957,30.0356 L 56.1957,59.1024 L 4.8445,59.1024 L 4.8445,30.0356 Z Z"/>
            </clipPath>
          </defs>
          <path clip-path="url(#clip-1548233367)" d="M 3.8756,30.0356 L 3.8756,59.1024 L 4.8445,59.1024 L 4.8445,30.0356 L 3.8756,30.0356 Z" stroke-width="1px" stroke="#A6A6A6" fill="#A6A6A6"/>
          <path clip-path="url(#clip-1548233367)" d="M 4.8445,30.0356 L 4.8445,59.1024 L 5.8134,59.1024 L 5.8134,30.0356 L 4.8445,30.0356 Z" stroke-width="1px" stroke="#A7A7A7" fill="#A7A7A7"/>
          <path clip-path="url(#clip-1548233367)" d="M 5.8134,30.0356 L 5.8134,59.1024 L 6.7822,59.1024 L 6.7822,30.0356 L 5.8134,30.0356 Z" stroke-width="1px" stroke="#A9A9A9" fill="#A9A9A9"/>
          <path clip-path="url(#clip-1548233367)" d="M 6.7822,30.0356 L 6.7822,59.1024 L 7.7511,59.1024 L 7.7511,30.0356 L 6.7822,30.0356 Z" stroke-width="1px" stroke="#AAAAAA" fill="#AAAAAA"/>
          <path clip-path="url(#clip-1548233367)" d="M 7.7511,30.0356 L 7.7511,59.1024 L 8.7200,59.1024 L 8.7200,30.0356 L 7.7511,30.0356 Z" stroke-width="1px" stroke="#ACACAC" fill="#ACACAC"/>
          <path clip-path="url(#clip-1548233367)" d="M 8.7200,30.0356 L 8.7200,59.1024 L 9.6889,59.1024 L 9.6889,30.0356 L 8.7200,30.0356 Z" stroke-width="1px" stroke="#ADADAD" fill="#ADADAD"/>
          <path clip-path="url(#clip-1548233367)" d="M 9.6889,30.0356 L 9.6889,59.1024 L 10.6578,59.1024 L 10.6578,30.0356 L 9.6889,30.0356 Z" stroke-width="1px" stroke="#AFAFAF" fill="#AFAFAF"/>
          <path clip-path="url(#clip-1548233367)" d="M 10.6578,30.0356 L 10.6578,59.1024 L 11.6267,59.1024 L 11.6267,30.0356 L 10.6578,30.0356 Z" stroke-width="1px" stroke="#B0B0B0" fill="#B0B0B0"/>
          <path clip-path="url(#clip-1548233367)" d="M 11.6267,30.0356 L 11.6267,59.1024 L 12.5956,59.1024 L 12.5956,30.0356 L 11.6267,30.0356 Z" stroke-width="1px" stroke="#B2B2B2" fill="#B2B2B2"/>
          <path clip-path="url(#clip-1548233367)" d="M 12.5956,30.0356 L 12.5956,59.1024 L 13.5645,59.1024 L 13.5645,30.0356 L 12.5956,30.0356 Z" stroke-width="1px" stroke="#B3B3B3" fill="#B3B3B3"/>
          <path clip-path="url(#clip-1548233367)" d="M 13.5645,30.0356 L 13.5645,59.1024 L 14.5334,59.1024 L 14.5334,30.0356 L 13.5645,30.0356 Z" stroke-width="1px" stroke="#B5B5B5" fill="#B5B5B5"/>
          <path clip-path="url(#clip-1548233367)" d="M 14.5334,30.0356 L 14.5334,59.1024 L 15.5023,59.1024 L 15.5023,30.0356 L 14.5334,30.0356 Z" stroke-width="1px" stroke="#B6B6B6" fill="#B6B6B6"/>
          <path clip-path="url(#clip-1548233367)" d="M 15.5023,30.0356 L 15.5023,59.1024 L 16.4712,59.1024 L 16.4712,30.0356 L 15.5023,30.0356 Z" stroke-width="1px" stroke="#B8B8B8" fill="#B8B8B8"/>
          <path clip-path="url(#clip-1548233367)" d="M 16.4712,30.0356 L 16.4712,59.1024 L 17.4401,59.1024 L 17.4401,30.0356 L 16.4712,30.0356 Z" stroke-width="1px" stroke="#B9B9B9" fill="#B9B9B9"/>
          <path clip-path="url(#clip-1548233367)" d="M 17.4401,30.0356 L 17.4401,59.1024 L 18.4089,59.1024 L 18.4089,30.0356 L 17.4401,30.0356 Z" stroke-width="1px" stroke="#BBBBBB" fill="#BBBBBB"/>
          <path clip-path="url(#clip-1548233367)" d="M 18.4089,30.0356 L 18.4089,59.1024 L 19.3778,59.1024 L 19.3778,30.0356 L 18.4089,30.0356 Z" stroke-width="1px" stroke="#BCBCBC" fill="#BCBCBC"/>
          <path clip-path="url(#clip-1548233367)" d="M 19.3778,30.0356 L 19.3778,59.1024 L 20.3467,59.1024 L 20.3467,30.0356 L 19.3778,30.0356 Z" stroke-width="1px" stroke="#BDBDBD" fill="#BDBDBD"/>
          <path clip-path="url(#clip-1548233367)" d="M 20.3467,30.0356 L 20.3467,59.1024 L 21.3156,59.1024 L 21.3156,30.0356 L 20.3467,30.0356 Z" stroke-width="1px" stroke="#BEBEBE" fill="#BEBEBE"/>
          <path clip-path="url(#clip-1548233367)" d="M 21.3156,30.0356 L 21.3156,59.1024 L 22.2845,59.1024 L 22.2845,30.0356 L 21.3156,30.0356 Z" stroke-width="1px" stroke="#C0C0C0" fill="#C0C0C0"/>
          <path clip-path="url(#clip-1548233367)" d="M 22.2845,30.0356 L 22.2845,59.1024 L 23.2534,59.1024 L 23.2534,30.0356 L 22.2845,30.0356 Z" stroke-width="1px" stroke="#C1C1C1" fill="#C1C1C1"/>
          <path clip-path="url(#clip-1548233367)" d="M 23.2534,30.0356 L 23.2534,59.1024 L 24.2223,59.1024 L 24.2223,30.0356 L 23.2534,30.0356 Z" stroke-width="1px" stroke="#C3C3C3" fill="#C3C3C3"/>
          <path clip-path="url(#clip-1548233367)" d="M 24.2223,30.0356 L 24.2223,59.1024 L 25.1912,59.1024 L 25.1912,30.0356 L 24.2223,30.0356 Z" stroke-width="1px" stroke="#C4C4C4" fill="#C4C4C4"/>
          <path clip-path="url(#clip-1548233367)" d="M 25.1912,30.0356 L 25.1912,59.1024 L 26.1601,59.1024 L 26.1601,30.0356 L 25.1912,30.0356 Z" stroke-width="1px" stroke="#C6C6C6" fill="#C6C6C6"/>
          <path clip-path="url(#clip-1548233367)" d="M 26.1601,30.0356 L 26.1601,59.1024 L 27.1290,59.1024 L 27.1290,30.0356 L 26.1601,30.0356 Z" stroke-width="1px" stroke="#C7C7C7" fill="#C7C7C7"/>
          <path clip-path="url(#clip-1548233367)" d="M 27.1290,30.0356 L 27.1290,59.1024 L 28.0979,59.1024 L 28.0979,30.0356 L 27.1290,30.0356 Z" stroke-width="1px" stroke="#C8C8C8" fill="#C8C8C8"/>
          <path clip-path="url(#clip-1548233367)" d="M 28.0979,30.0356 L 28.0979,59.1024 L 29.0668,59.1024 L 29.0668,30.0356 L 28.0979,30.0356 Z" stroke-width="1px" stroke="#CACACA" fill="#CACACA"/>
          <path clip-path="url(#clip-1548233367)" d="M 29.0668,30.0356 L 29.0668,59.1024 L 30.0356,59.1024 L 30.0356,30.0356 L 29.0668,30.0356 Z" stroke-width="1px" stroke="#CBCBCB" fill="#CBCBCB"/>
          <path clip-path="url(#clip-1548233367)" d="M 30.0356,30.0356 L 30.0356,59.1024 L 31.0045,59.1024 L 31.0045,30.0356 L 30.0356,30.0356 Z" stroke-width="1px" stroke="#CDCDCD" fill="#CDCDCD"/>
          <path clip-path="url(#clip-1548233367)" d="M 31.0045,30.0356 L 31.0045,59.1024 L 31.9734,59.1024 L 31.9734,30.0356 L 31.0045,30.0356 Z" stroke-width="1px" stroke="#CCCCCC" fill="#CCCCCC"/>
          <path clip-path="url(#clip-1548233367)" d="M 31.9734,30.0356 L 31.9734,59.1024 L 32.9423,59.1024 L 32.9423,30.0356 L 31.9734,30.0356 Z" stroke-width="1px" stroke="#CACACA" fill="#CACACA"/>
          <path clip-path="url(#clip-1548233367)" d="M 32.9423,30.0356 L 32.9423,59.1024 L 33.9112,59.1024 L 33.9112,30.0356 L 32.9423,30.0356 Z" stroke-width="1px" stroke="#C9C9C9" fill="#C9C9C9"/>
          <path clip-path="url(#clip-1548233367)" d="M 33.9112,30.0356 L 33.9112,59.1024 L 34.8801,59.1024 L 34.8801,30.0356 L 33.9112,30.0356 Z" stroke-width="1px" stroke="#C7C7C7" fill="#C7C7C7"/>
          <path clip-path="url(#clip-1548233367)" d="M 34.8801,30.0356 L 34.8801,59.1024 L 35.8490,59.1024 L 35.8490,30.0356 L 34.8801,30.0356 Z" stroke-width="1px" stroke="#C6C6C6" fill="#C6C6C6"/>
          <path clip-path="url(#clip-1548233367)" d="M 35.8490,30.0356 L 35.8490,59.1024 L 36.8179,59.1024 L 36.8179,30.0356 L 35.8490,30.0356 Z" stroke-width="1px" stroke="#C4C4C4" fill="#C4C4C4"/>
          <path clip-path="url(#clip-1548233367)" d="M 36.8179,30.0356 L 36.8179,59.1024 L 37.7868,59.1024 L 37.7868,30.0356 L 36.8179,30.0356 Z" stroke-width="1px" stroke="#C3C3C3" fill="#C3C3C3"/>
          <path clip-path="url(#clip-1548233367)" d="M 37.7868,30.0356 L 37.7868,59.1024 L 38.7557,59.1024 L 38.7557,30.0356 L 37.7868,30.0356 Z" stroke-width="1px" stroke="#C1C1C1" fill="#C1C1C1"/>
          <path clip-path="url(#clip-1548233367)" d="M 38.7557,30.0356 L 38.7557,59.1024 L 39.7246,59.1024 L 39.7246,30.0356 L 38.7557,30.0356 Z" stroke-width="1px" stroke="#C0C0C0" fill="#C0C0C0"/>
          <path clip-path="url(#clip-1548233367)" d="M 39.7246,30.0356 L 39.7246,59.1024 L 40.6935,59.1024 L 40.6935,30.0356 L 39.7246,30.0356 Z" stroke-width="1px" stroke="#BEBEBE" fill="#BEBEBE"/>
          <path clip-path="url(#clip-1548233367)" d="M 40.6935,30.0356 L 40.6935,59.1024 L 41.6623,59.1024 L 41.6623,30.0356 L 40.6935,30.0356 Z" stroke-width="1px" stroke="#BDBDBD" fill="#BDBDBD"/>
          <path clip-path="url(#clip-1548233367)" d="M 41.6623,30.0356 L 41.6623,59.1024 L 42.6312,59.1024 L 42.6312,30.0356 L 41.6623,30.0356 Z" stroke-width="1px" stroke="#BCBCBC" fill="#BCBCBC"/>
          <path clip-path="url(#clip-1548233367)" d="M 42.6312,30.0356 L 42.6312,59.1024 L 43.6001,59.1024 L 43.6001,30.0356 L 42.6312,30.0356 Z" stroke-width="1px" stroke="#BBBBBB" fill="#BBBBBB"/>
          <path clip-path="url(#clip-1548233367)" d="M 43.6001,30.0356 L 43.6001,59.1024 L 44.5690,59.1024 L 44.5690,30.0356 L 43.6001,30.0356 Z" stroke-width="1px" stroke="#B9B9B9" fill="#B9B9B9"/>
          <path clip-path="url(#clip-1548233367)" d="M 44.5690,30.0356 L 44.5690,59.1024 L 45.5379,59.1024 L 45.5379,30.0356 L 44.5690,30.0356 Z" stroke-width="1px" stroke="#B8B8B8" fill="#B8B8B8"/>
          <path clip-path="url(#clip-1548233367)" d="M 45.5379,30.0356 L 45.5379,59.1024 L 46.5068,59.1024 L 46.5068,30.0356 L 45.5379,30.0356 Z" stroke-width="1px" stroke="#B6B6B6" fill="#B6B6B6"/>
          <path clip-path="url(#clip-1548233367)" d="M 46.5068,30.0356 L 46.5068,59.1024 L 47.4757,59.1024 L 47.4757,30.0356 L 46.5068,30.0356 Z" stroke-width="1px" stroke="#B5B5B5" fill="#B5B5B5"/>
          <path clip-path="url(#clip-1548233367)" d="M 47.4757,30.0356 L 47.4757,59.1024 L 48.4446,59.1024 L 48.4446,30.0356 L 47.4757,30.0356 Z" stroke-width="1px" stroke="#B3B3B3" fill="#B3B3B3"/>
          <path clip-path="url(#clip-1548233367)" d="M 48.4446,30.0356 L 48.4446,59.1024 L 49.4135,59.1024 L 49.4135,30.0356 L 48.4446,30.0356 Z" stroke-width="1px" stroke="#B2B2B2" fill="#B2B2B2"/>
          <path clip-path="url(#clip-1548233367)" d="M 49.4135,30.0356 L 49.4135,59.1024 L 50.3824,59.1024 L 50.3824,30.0356 L 49.4135,30.0356 Z" stroke-width="1px" stroke="#B0B0B0" fill="#B0B0B0"/>
          <path clip-path="url(#clip-1548233367)" d="M 50.3824,30.0356 L 50.3824,59.1024 L 51.3513,59.1024 L 51.3513,30.0356 L 50.3824,30.0356 Z" stroke-width="1px" stroke="#AFAFAF" fill="#AFAFAF"/>
          <path clip-path="url(#clip-1548233367)" d="M 51.3513,30.0356 L 51.3513,59.1024 L 52.3202,59.1024 L 52.3202,30.0356 L 51.3513,30.0356 Z" stroke-width="1px" stroke="#ADADAD" fill="#ADADAD"/>
          <path clip-path="url(#clip-1548233367)" d="M 52.3202,30.0356 L 52.3202,59.1024 L 53.2890,59.1024 L 53.2890,30.0356 L 52.3202,30.0356 Z" stroke-width="1px" stroke="#ACACAC" fill="#ACACAC"/>
          <path clip-path="url(#clip-1548233367)" d="M 53.2890,30.0356 L 53.2890,59.1024 L 54.2579,59.1024 L 54.2579,30.0356 L 53.2890,30.0356 Z" stroke-width="1px" stroke="#AAAAAA" fill="#AAAAAA"/>
          <path clip-path="url(#clip-1548233367)" d="M 54.2579,30.0356 L 54.2579,59.1024 L 55.2268,59.1024 L 55.2268,30.0356 L 54.2579,30.0356 Z" stroke-width="1px" stroke="#A9A9A9" fill="#A9A9A9"/>
          <path clip-path="url(#clip-1548233367)" d="M 55.2268,30.0356 L 55.2268,59.1024 L 56.1957,59.1024 L 56.1957,30.0356 L 55.2268,30.0356 Z" stroke-width="1px" stroke="#A7A7A7" fill="#A7A7A7"/>
        </g>
        <g transform="matrix(0.0625 0.0000 0.0000 0.0625 0.0000 0.0000)">
          <path d="M 63.9469,705.3532 L 899.1316,705.3532 L 899.1316,480.5703 L 63.9469,480.5703 L 63.9469,705.3532 M 63.9469,935.9495 L 899.1316,935.9495 L 899.1316,711.1666 L 63.9469,711.1666 L 63.9469,935.9495 " stroke="#0054A6" stroke-width="9.6889" stroke-linecap="round" stroke-linejoin="round" fill="none"/>
        </g>
        <g transform="matrix(1.0000 0.0000 0.0000 1.0000 0.0000 0.0000)">
          <defs>
            <clipPath id="clip-610515434">
              <path d="M 5.8134,31.9734 L 55.2268,31.9734 L 55.2268,42.6312 L 5.8134,42.6312 L 5.8134,31.9734 Z Z"/>
            </clipPath>
          </defs>
          <path clip-path="url(#clip-610515434)" d="M 4.8445,31.0045 L 4.8445,42.6312 L 5.8134,42.6312 L 5.8134,31.0045 L 4.8445,31.0045 Z" stroke-width="1px" stroke="#65BFEC" fill="#65BFEC"/>
          <path clip-path="url(#clip-610515434)" d="M 5.8134,31.0045 L 5.8134,42.6312 L 6.7822,42.6312 L 6.7822,31.0045 L 5.8134,31.0045 Z" stroke-width="1px" stroke="#0178C0" fill="#0178C0"/>
          <path clip-path="url(#clip-610515434)" d="M 6.7822,31.0045 L 6.7822,42.6312 L 7.7511,42.6312 L 7.7511,31.0045 L 6.7822,31.0045 Z" stroke-width="1px" stroke="#0379C1" fill="#0379C1"/>
          <path clip-path="url(#clip-610515434)" d="M 7.7511,31.0045 L 7.7511,42.6312 L 8.7200,42.6312 L 8.7200,31.0045 L 7.7511,31.0045 Z" stroke-width="1px" stroke="#047BC2" fill="#047BC2"/>
          <path clip-path="url(#clip-610515434)" d="M 8.7200,31.0045 L 8.7200,42.6312 L 9.6889,42.6312 L 9.6889,31.0045 L 8.7200,31.0045 Z" stroke-width="1px" stroke="#067CC3" fill="#067CC3"/>
          <path clip-path="url(#clip-610515434)" d="M 9.6889,31.0045 L 9.6889,42.6312 L 10.6578,42.6312 L 10.6578,31.0045 L 9.6889,31.0045 Z" stroke-width="1px" stroke="#097DC4" fill="#097DC4"/>
          <path clip-path="url(#clip-610515434)" d="M 10.6578,31.0045 L 10.6578,42.6312 L 11.6267,42.6312 L 11.6267,31.0045 L 10.6578,31.0045 Z" stroke-width="1px" stroke="#0B7FC5" fill="#0B7FC5"/>
          <path clip-path="url(#clip-610515434)" d="M 11.6267,31.0045 L 11.6267,42.6312 L 12.5956,42.6312 L 12.5956,31.0045 L 11.6267,31.0045 Z" stroke-width="1px" stroke="#0D80C6" fill="#0D80C6"/>
          <path clip-path="url(#clip-610515434)" d="M 12.5956,31.0045 L 12.5956,42.6312 L 13.5645,42.6312 L 13.5645,31.0045 L 12.5956,31.0045 Z" stroke-width="1px" stroke="#0F82C7" fill="#0F82C7"/>
          <path clip-path="url(#clip-610515434)" d="M 13.5645,31.0045 L 13.5645,42.6312 L 14.5334,42.6312 L 14.5334,31.0045 L 13.5645,31.0045 Z" stroke-width="1px" stroke="#1183C7" fill="#1183C7"/>
          <path clip-path="url(#clip-610515434)" d="M 14.5334,31.0045 L 14.5334,42.6312 L 15.5023,42.6312 L 15.5023,31.0045 L 14.5334,31.0045 Z" stroke-width="1px" stroke="#1385C8" fill="#1385C8"/>
          <path clip-path="url(#clip-610515434)" d="M 15.5023,31.0045 L 15.5023,42.6312 L 16.4712,42.6312 L 16.4712,31.0045 L 15.5023,31.0045 Z" stroke-width="1px" stroke="#1586C9" fill="#1586C9"/>
          <path clip-path="url(#clip-610515434)" d="M 16.4712,31.0045 L 16.4712,42.6312 L 17.4401,42.6312 L 17.4401,31.0045 L 16.4712,31.0045 Z" stroke-width="1px" stroke="#1787CA" fill="#1787CA"/>
          <path clip-path="url(#clip-610515434)" d="M 17.4401,31.0045 L 17.4401,42.6312 L 18.4089,42.6312 L 18.4089,31.0045 L 17.4401,31.0045 Z" stroke-width="1px" stroke="#1989CB" fill="#1989CB"/>
          <path clip-path="url(#clip-610515434)" d="M 18.4089,31.0045 L 18.4089,42.6312 L 19.3778,42.6312 L 19.3778,31.0045 L 18.4089,31.0045 Z" stroke-width="1px" stroke="#1B8ACC" fill="#1B8ACC"/>
          <path clip-path="url(#clip-610515434)" d="M 19.3778,31.0045 L 19.3778,42.6312 L 20.3467,42.6312 L 20.3467,31.0045 L 19.3778,31.0045 Z" stroke-width="1px" stroke="#1D8CCD" fill="#1D8CCD"/>
          <path clip-path="url(#clip-610515434)" d="M 20.3467,31.0045 L 20.3467,42.6312 L 21.3156,42.6312 L 21.3156,31.0045 L 20.3467,31.0045 Z" stroke-width="1px" stroke="#1F8DCE" fill="#1F8DCE"/>
          <path clip-path="url(#clip-610515434)" d="M 21.3156,31.0045 L 21.3156,42.6312 L 22.2845,42.6312 L 22.2845,31.0045 L 21.3156,31.0045 Z" stroke-width="1px" stroke="#218FCE" fill="#218FCE"/>
          <path clip-path="url(#clip-610515434)" d="M 22.2845,31.0045 L 22.2845,42.6312 L 23.2534,42.6312 L 23.2534,31.0045 L 22.2845,31.0045 Z" stroke-width="1px" stroke="#2390CF" fill="#2390CF"/>
          <path clip-path="url(#clip-610515434)" d="M 23.2534,31.0045 L 23.2534,42.6312 L 24.2223,42.6312 L 24.2223,31.0045 L 23.2534,31.0045 Z" stroke-width="1px" stroke="#2591D0" fill="#2591D0"/>
          <path clip-path="url(#clip-610515434)" d="M 24.2223,31.0045 L 24.2223,42.6312 L 25.1912,42.6312 L 25.1912,31.0045 L 24.2223,31.0045 Z" stroke-width="1px" stroke="#2792D1" fill="#2792D1"/>
          <path clip-path="url(#clip-610515434)" d="M 25.1912,31.0045 L 25.1912,42.6312 L 26.1601,42.6312 L 26.1601,31.0045 L 25.1912,31.0045 Z" stroke-width="1px" stroke="#2994D2" fill="#2994D2"/>
          <path clip-path="url(#clip-610515434)" d="M 26.1601,31.0045 L 26.1601,42.6312 L 27.1290,42.6312 L 27.1290,31.0045 L 26.1601,31.0045 Z" stroke-width="1px" stroke="#2B96D3" fill="#2B96D3"/>
          <path clip-path="url(#clip-610515434)" d="M 27.1290,31.0045 L 27.1290,42.6312 L 28.0979,42.6312 L 28.0979,31.0045 L 27.1290,31.0045 Z" stroke-width="1px" stroke="#2D97D4" fill="#2D97D4"/>
          <path clip-path="url(#clip-610515434)" d="M 28.0979,31.0045 L 28.0979,42.6312 L 29.0668,42.6312 L 29.0668,31.0045 L 28.0979,31.0045 Z" stroke-width="1px" stroke="#2F99D5" fill="#2F99D5"/>
          <path clip-path="url(#clip-610515434)" d="M 29.0668,31.0045 L 29.0668,42.6312 L 30.0356,42.6312 L 30.0356,31.0045 L 29.0668,31.0045 Z" stroke-width="1px" stroke="#319AD6" fill="#319AD6"/>
          <path clip-path="url(#clip-610515434)" d="M 30.0356,31.0045 L 30.0356,42.6312 L 31.0045,42.6312 L 31.0045,31.0045 L 30.0356,31.0045 Z" stroke-width="1px" stroke="#339CD7" fill="#339CD7"/>
          <path clip-path="url(#clip-610515434)" d="M 31.0045,31.0045 L 31.0045,42.6312 L 31.9734,42.6312 L 31.9734,31.0045 L 31.0045,31.0045 Z" stroke-width="1px" stroke="#359DD8" fill="#359DD8"/>
          <path clip-path="url(#clip-610515434)" d="M 31.9734,31.0045 L 31.9734,42.6312 L 32.9423,42.6312 L 32.9423,31.0045 L 31.9734,31.0045 Z" stroke-width="1px" stroke="#379ED8" fill="#379ED8"/>
          <path clip-path="url(#clip-610515434)" d="M 32.9423,31.0045 L 32.9423,42.6312 L 33.9112,42.6312 L 33.9112,31.0045 L 32.9423,31.0045 Z" stroke-width="1px" stroke="#39A0D9" fill="#39A0D9"/>
          <path clip-path="url(#clip-610515434)" d="M 33.9112,31.0045 L 33.9112,42.6312 L 34.8801,42.6312 L 34.8801,31.0045 L 33.9112,31.0045 Z" stroke-width="1px" stroke="#3BA1DA" fill="#3BA1DA"/>
          <path clip-path="url(#clip-610515434)" d="M 34.8801,31.0045 L 34.8801,42.6312 L 35.8490,42.6312 L 35.8490,31.0045 L 34.8801,31.0045 Z" stroke-width="1px" stroke="#3DA3DB" fill="#3DA3DB"/>
          <path clip-path="url(#clip-610515434)" d="M 35.8490,31.0045 L 35.8490,42.6312 L 36.8179,42.6312 L 36.8179,31.0045 L 35.8490,31.0045 Z" stroke-width="1px" stroke="#3FA4DC" fill="#3FA4DC"/>
          <path clip-path="url(#clip-610515434)" d="M 36.8179,31.0045 L 36.8179,42.6312 L 37.7868,42.6312 L 37.7868,31.0045 L 36.8179,31.0045 Z" stroke-width="1px" stroke="#41A6DD" fill="#41A6DD"/>
          <path clip-path="url(#clip-610515434)" d="M 37.7868,31.0045 L 37.7868,42.6312 L 38.7557,42.6312 L 38.7557,31.0045 L 37.7868,31.0045 Z" stroke-width="1px" stroke="#43A7DE" fill="#43A7DE"/>
          <path clip-path="url(#clip-610515434)" d="M 38.7557,31.0045 L 38.7557,42.6312 L 39.7246,42.6312 L 39.7246,31.0045 L 38.7557,31.0045 Z" stroke-width="1px" stroke="#45A8DE" fill="#45A8DE"/>
          <path clip-path="url(#clip-610515434)" d="M 39.7246,31.0045 L 39.7246,42.6312 L 40.6935,42.6312 L 40.6935,31.0045 L 39.7246,31.0045 Z" stroke-width="1px" stroke="#47AADF" fill="#47AADF"/>
          <path clip-path="url(#clip-610515434)" d="M 40.6935,31.0045 L 40.6935,42.6312 L 41.6623,42.6312 L 41.6623,31.0045 L 40.6935,31.0045 Z" stroke-width="1px" stroke="#49ABE0" fill="#49ABE0"/>
          <path clip-path="url(#clip-610515434)" d="M 41.6623,31.0045 L 41.6623,42.6312 L 42.6312,42.6312 L 42.6312,31.0045 L 41.6623,31.0045 Z" stroke-width="1px" stroke="#4BADE1" fill="#4BADE1"/>
          <path clip-path="url(#clip-610515434)" d="M 42.6312,31.0045 L 42.6312,42.6312 L 43.6001,42.6312 L 43.6001,31.0045 L 42.6312,31.0045 Z" stroke-width="1px" stroke="#4EAEE2" fill="#4EAEE2"/>
          <path clip-path="url(#clip-610515434)" d="M 43.6001,31.0045 L 43.6001,42.6312 L 44.5690,42.6312 L 44.5690,31.0045 L 43.6001,31.0045 Z" stroke-width="1px" stroke="#4FB0E3" fill="#4FB0E3"/>
          <path clip-path="url(#clip-610515434)" d="M 44.5690,31.0045 L 44.5690,42.6312 L 45.5379,42.6312 L 45.5379,31.0045 L 44.5690,31.0045 Z" stroke-width="1px" stroke="#51B1E4" fill="#51B1E4"/>
          <path clip-path="url(#clip-610515434)" d="M 45.5379,31.0045 L 45.5379,42.6312 L 46.5068,42.6312 L 46.5068,31.0045 L 45.5379,31.0045 Z" stroke-width="1px" stroke="#53B2E5" fill="#53B2E5"/>
          <path clip-path="url(#clip-610515434)" d="M 46.5068,31.0045 L 46.5068,42.6312 L 47.4757,42.6312 L 47.4757,31.0045 L 46.5068,31.0045 Z" stroke-width="1px" stroke="#55B4E6" fill="#55B4E6"/>
          <path clip-path="url(#clip-610515434)" d="M 47.4757,31.0045 L 47.4757,42.6312 L 48.4446,42.6312 L 48.4446,31.0045 L 47.4757,31.0045 Z" stroke-width="1px" stroke="#57B5E6" fill="#57B5E6"/>
          <path clip-path="url(#clip-610515434)" d="M 48.4446,31.0045 L 48.4446,42.6312 L 49.4135,42.6312 L 49.4135,31.0045 L 48.4446,31.0045 Z" stroke-width="1px" stroke="#59B7E7" fill="#59B7E7"/>
          <path clip-path="url(#clip-610515434)" d="M 49.4135,31.0045 L 49.4135,42.6312 L 50.3824,42.6312 L 50.3824,31.0045 L 49.4135,31.0045 Z" stroke-width="1px" stroke="#5BB8E8" fill="#5BB8E8"/>
          <path clip-path="url(#clip-610515434)" d="M 50.3824,31.0045 L 50.3824,42.6312 L 51.3513,42.6312 L 51.3513,31.0045 L 50.3824,31.0045 Z" stroke-width="1px" stroke="#5DB9E9" fill="#5DB9E9"/>
          <path clip-path="url(#clip-610515434)" d="M 51.3513,31.0045 L 51.3513,42.6312 L 52.3202,42.6312 L 52.3202,31.0045 L 51.3513,31.0045 Z" stroke-width="1px" stroke="#5FBBEA" fill="#5FBBEA"/>
          <path clip-path="url(#clip-610515434)" d="M 52.3202,31.0045 L 52.3202,42.6312 L 53.2890,42.6312 L 53.2890,31.0045 L 52.3202,31.0045 Z" stroke-width="1px" stroke="#61BCEB" fill="#61BCEB"/>
          <path clip-path="url(#clip-610515434)" d="M 53.2890,31.0045 L 53.2890,42.6312 L 54.2579,42.6312 L 54.2579,31.0045 L 53.2890,31.0045 Z" stroke-width="1px" stroke="#63BEEC" fill="#63BEEC"/>
        </g>
        <g transform="matrix(0.0625 0.0000 0.0000 0.0625 0.0000 0.0000)">
          <path d="M 874.9093,682.0998 L 88.1692,682.0998 L 88.1692,503.8237 L 874.9093,503.8237 L 874.9093,682.0998 " stroke="#0054A6" stroke-width="11.6267" stroke-linecap="round" stroke-linejoin="round" fill="none"/>
        </g>
        <g transform="matrix(1.0000 0.0000 0.0000 1.0000 0.0000 0.0000)">
</g>
        <g transform="matrix(0.0625 0.0000 0.0000 0.0625 0.0000 0.0000)">
          <path d="M 118.2048,532.8905 C 118.2048,532.8905 119.1737,532.8905 119.1737,532.8905 C 133.7071,532.8905 136.6137,546.4550 136.6137,557.1128 L 136.6137,665.6287 L 148.2404,665.6287 L 148.2404,520.2949 L 136.6137,520.2949 L 118.2048,520.2949 L 118.2048,532.8905 Z M 814.8380,532.8905 C 814.8380,532.8905 814.8380,532.8905 814.8380,532.8905 C 830.3403,532.8905 832.2781,546.4550 832.2781,557.1128 L 832.2781,665.6287 L 844.8737,665.6287 L 844.8737,520.2949 L 832.2781,520.2949 L 814.8380,520.2949 L 814.8380,532.8905 Z M 745.0778,532.8905 C 745.0778,532.8905 745.0778,532.8905 745.0778,532.8905 C 760.5801,532.8905 762.5178,546.4550 762.5178,557.1128 L 762.5178,665.6287 L 775.1134,665.6287 L 775.1134,520.2949 L 763.4867,520.2949 L 745.0778,520.2949 L 745.0778,532.8905 Z M 675.3176,532.8905 C 675.3176,532.8905 675.3176,532.8905 675.3176,532.8905 C 690.8199,532.8905 692.7576,546.4550 693.7265,557.1128 L 693.7265,665.6287 L 705.3532,665.6287 L 705.3532,520.2949 L 693.7265,520.2949 L 675.3176,520.2949 L 675.3176,532.8905 Z M 605.5574,532.8905 C 605.5574,532.8905 605.5574,532.8905 606.5263,532.8905 C 621.0596,532.8905 623.9663,546.4550 623.9663,557.1128 L 623.9663,665.6287 L 635.5930,665.6287 L 635.5930,520.2949 L 623.9663,520.2949 L 605.5574,520.2949 L 605.5574,532.8905 Z M 535.7972,532.8905 C 535.7972,532.8905 536.7661,532.8905 536.7661,532.8905 C 551.2994,532.8905 554.2061,546.4550 554.2061,557.1128 L 554.2061,665.6287 L 565.8328,665.6287 L 565.8328,520.2949 L 554.2061,520.2949 L 535.7972,520.2949 L 535.7972,532.8905 Z M 466.0370,532.8905 C 467.0058,532.8905 467.0058,532.8905 467.0058,532.8905 C 482.5081,532.8905 484.4459,546.4550 484.4459,557.1128 L 484.4459,665.6287 L 496.0726,665.6287 L 496.0726,520.2949 L 484.4459,520.2949 L 466.0370,520.2949 L 466.0370,532.8905 Z M 397.2456,532.8905 C 397.2456,532.8905 397.2456,532.8905 397.2456,532.8905 C 412.7479,532.8905 414.6857,546.4550 414.6857,557.1128 L 414.6857,665.6287 L 427.2813,665.6287 L 427.2813,520.2949 L 415.6546,520.2949 L 397.2456,520.2949 L 397.2456,532.8905 Z M 327.4854,532.8905 C 327.4854,532.8905 327.4854,532.8905 327.4854,532.8905 C 342.9877,532.8905 344.9255,546.4550 344.9255,557.1128 L 344.9255,665.6287 L 357.5211,665.6287 L 357.5211,520.2949 L 345.8944,520.2949 L 327.4854,520.2949 L 327.4854,532.8905 Z M 257.7252,532.8905 C 257.7252,532.8905 257.7252,532.8905 257.7252,532.8905 C 273.2275,532.8905 275.1653,546.4550 276.1342,557.1128 L 276.1342,665.6287 L 287.7609,665.6287 L 287.7609,520.2949 L 276.1342,520.2949 L 257.7252,520.2949 L 257.7252,532.8905 Z M 187.9650,532.8905 C 187.9650,532.8905 187.9650,532.8905 188.9339,532.8905 C 203.4673,532.8905 206.3740,546.4550 206.3740,557.1128 L 206.3740,665.6287 L 218.0007,665.6287 L 218.0007,520.2949 L 206.3740,520.2949 L 187.9650,520.2949 L 187.9650,532.8905 Z " fill="#0054A6" stroke="none"/>
        </g>
        <g transform="matrix(1.0000 0.0000 0.0000 1.0000 0.0000 0.0000)">
          <defs>
            <clipPath id="clip-1585990364">
              <path d="M 5.8134,46.5068 L 55.2268,46.5068 L 55.2268,57.1646 L 5.8134,57.1646 L 5.8134,46.5068 Z Z"/>
            </clipPath>
          </defs>
          <path clip-path="url(#clip-1585990364)" d="M 4.8445,45.5379 L 4.8445,57.1646 L 5.8134,57.1646 L 5.8134,45.5379 L 4.8445,45.5379 Z" stroke-width="1px" stroke="#65BFEC" fill="#65BFEC"/>
          <path clip-path="url(#clip-1585990364)" d="M 5.8134,45.5379 L 5.8134,57.1646 L 6.7822,57.1646 L 6.7822,45.5379 L 5.8134,45.5379 Z" stroke-width="1px" stroke="#0178C0" fill="#0178C0"/>
          <path clip-path="url(#clip-1585990364)" d="M 6.7822,45.5379 L 6.7822,57.1646 L 7.7511,57.1646 L 7.7511,45.5379 L 6.7822,45.5379 Z" stroke-width="1px" stroke="#0379C1" fill="#0379C1"/>
          <path clip-path="url(#clip-1585990364)" d="M 7.7511,45.5379 L 7.7511,57.1646 L 8.7200,57.1646 L 8.7200,45.5379 L 7.7511,45.5379 Z" stroke-width="1px" stroke="#047BC2" fill="#047BC2"/>
          <path clip-path="url(#clip-1585990364)" d="M 8.7200,45.5379 L 8.7200,57.1646 L 9.6889,57.1646 L 9.6889,45.5379 L 8.7200,45.5379 Z" stroke-width="1px" stroke="#067CC3" fill="#067CC3"/>
          <path clip-path="url(#clip-1585990364)" d="M 9.6889,45.5379 L 9.6889,57.1646 L 10.6578,57.1646 L 10.6578,45.5379 L 9.6889,45.5379 Z" stroke-width="1px" stroke="#097DC4" fill="#097DC4"/>
          <path clip-path="url(#clip-1585990364)" d="M 10.6578,45.5379 L 10.6578,57.1646 L 11.6267,57.1646 L 11.6267,45.5379 L 10.6578,45.5379 Z" stroke-width="1px" stroke="#0B7FC5" fill="#0B7FC5"/>
          <path clip-path="url(#clip-1585990364)" d="M 11.6267,45.5379 L 11.6267,57.1646 L 12.5956,57.1646 L 12.5956,45.5379 L 11.6267,45.5379 Z" stroke-width="1px" stroke="#0D80C6" fill="#0D80C6"/>
          <path clip-path="url(#clip-1585990364)" d="M 12.5956,45.5379 L 12.5956,57.1646 L 13.5645,57.1646 L 13.5645,45.5379 L 12.5956,45.5379 Z" stroke-width="1px" stroke="#0F82C7" fill="#0F82C7"/>
          <path clip-path="url(#clip-1585990364)" d="M 13.5645,45.5379 L 13.5645,57.1646 L 14.5334,57.1646 L 14.5334,45.5379 L 13.5645,45.5379 Z" stroke-width="1px" stroke="#1183C7" fill="#1183C7"/>
          <path clip-path="url(#clip-1585990364)" d="M 14.5334,45.5379 L 14.5334,57.1646 L 15.5023,57.1646 L 15.5023,45.5379 L 14.5334,45.5379 Z" stroke-width="1px" stroke="#1385C8" fill="#1385C8"/>
          <path clip-path="url(#clip-1585990364)" d="M 15.5023,45.5379 L 15.5023,57.1646 L 16.4712,57.1646 L 16.4712,45.5379 L 15.5023,45.5379 Z" stroke-width="1px" stroke="#1586C9" fill="#1586C9"/>
          <path clip-path="url(#clip-1585990364)" d="M 16.4712,45.5379 L 16.4712,57.1646 L 17.4401,57.1646 L 17.4401,45.5379 L 16.4712,45.5379 Z" stroke-width="1px" stroke="#1787CA" fill="#1787CA"/>
          <path clip-path="url(#clip-1585990364)" d="M 17.4401,45.5379 L 17.4401,57.1646 L 18.4089,57.1646 L 18.4089,45.5379 L 17.4401,45.5379 Z" stroke-width="1px" stroke="#1989CB" fill="#1989CB"/>
          <path clip-path="url(#clip-1585990364)" d="M 18.4089,45.5379 L 18.4089,57.1646 L 19.3778,57.1646 L 19.3778,45.5379 L 18.4089,45.5379 Z" stroke-width="1px" stroke="#1B8ACC" fill="#1B8ACC"/>
          <path clip-path="url(#clip-1585990364)" d="M 19.3778,45.5379 L 19.3778,57.1646 L 20.3467,57.1646 L 20.3467,45.5379 L 19.3778,45.5379 Z" stroke-width="1px" stroke="#1D8CCD" fill="#1D8CCD"/>
          <path clip-path="url(#clip-1585990364)" d="M 20.3467,45.5379 L 20.3467,57.1646 L 21.3156,57.1646 L 21.3156,45.5379 L 20.3467,45.5379 Z" stroke-width="1px" stroke="#1F8DCE" fill="#1F8DCE"/>
          <path clip-path="url(#clip-1585990364)" d="M 21.3156,45.5379 L 21.3156,57.1646 L 22.2845,57.1646 L 22.2845,45.5379 L 21.3156,45.5379 Z" stroke-width="1px" stroke="#218FCE" fill="#218FCE"/>
          <path clip-path="url(#clip-1585990364)" d="M 22.2845,45.5379 L 22.2845,57.1646 L 23.2534,57.1646 L 23.2534,45.5379 L 22.2845,45.5379 Z" stroke-width="1px" stroke="#2390CF" fill="#2390CF"/>
          <path clip-path="url(#clip-1585990364)" d="M 23.2534,45.5379 L 23.2534,57.1646 L 24.2223,57.1646 L 24.2223,45.5379 L 23.2534,45.5379 Z" stroke-width="1px" stroke="#2591D0" fill="#2591D0"/>
          <path clip-path="url(#clip-1585990364)" d="M 24.2223,45.5379 L 24.2223,57.1646 L 25.1912,57.1646 L 25.1912,45.5379 L 24.2223,45.5379 Z" stroke-width="1px" stroke="#2792D1" fill="#2792D1"/>
          <path clip-path="url(#clip-1585990364)" d="M 25.1912,45.5379 L 25.1912,57.1646 L 26.1601,57.1646 L 26.1601,45.5379 L 25.1912,45.5379 Z" stroke-width="1px" stroke="#2994D2" fill="#2994D2"/>
          <path clip-path="url(#clip-1585990364)" d="M 26.1601,45.5379 L 26.1601,57.1646 L 27.1290,57.1646 L 27.1290,45.5379 L 26.1601,45.5379 Z" stroke-width="1px" stroke="#2B96D3" fill="#2B96D3"/>
          <path clip-path="url(#clip-1585990364)" d="M 27.1290,45.5379 L 27.1290,57.1646 L 28.0979,57.1646 L 28.0979,45.5379 L 27.1290,45.5379 Z" stroke-width="1px" stroke="#2D97D4" fill="#2D97D4"/>
          <path clip-path="url(#clip-1585990364)" d="M 28.0979,45.5379 L 28.0979,57.1646 L 29.0668,57.1646 L 29.0668,45.5379 L 28.0979,45.5379 Z" stroke-width="1px" stroke="#2F99D5" fill="#2F99D5"/>
          <path clip-path="url(#clip-1585990364)" d="M 29.0668,45.5379 L 29.0668,57.1646 L 30.0356,57.1646 L 30.0356,45.5379 L 29.0668,45.5379 Z" stroke-width="1px" stroke="#319AD6" fill="#319AD6"/>
          <path clip-path="url(#clip-1585990364)" d="M 30.0356,45.5379 L 30.0356,57.1646 L 31.0045,57.1646 L 31.0045,45.5379 L 30.0356,45.5379 Z" stroke-width="1px" stroke="#339CD7" fill="#339CD7"/>
          <path clip-path="url(#clip-1585990364)" d="M 31.0045,45.5379 L 31.0045,57.1646 L 31.9734,57.1646 L 31.9734,45.5379 L 31.0045,45.5379 Z" stroke-width="1px" stroke="#359DD8" fill="#359DD8"/>
          <path clip-path="url(#clip-1585990364)" d="M 31.9734,45.5379 L 31.9734,57.1646 L 32.9423,57.1646 L 32.9423,45.5379 L 31.9734,45.5379 Z" stroke-width="1px" stroke="#379ED8" fill="#379ED8"/>
          <path clip-path="url(#clip-1585990364)" d="M 32.9423,45.5379 L 32.9423,57.1646 L 33.9112,57.1646 L 33.9112,45.5379 L 32.9423,45.5379 Z" stroke-width="1px" stroke="#39A0D9" fill="#39A0D9"/>
          <path clip-path="url(#clip-1585990364)" d="M 33.9112,45.5379 L 33.9112,57.1646 L 34.8801,57.1646 L 34.8801,45.5379 L 33.9112,45.5379 Z" stroke-width="1px" stroke="#3BA1DA" fill="#3BA1DA"/>
          <path clip-path="url(#clip-1585990364)" d="M 34.8801,45.5379 L 34.8801,57.1646 L 35.8490,57.1646 L 35.8490,45.5379 L 34.8801,45.5379 Z" stroke-width="1px" stroke="#3DA3DB" fill="#3DA3DB"/>
          <path clip-path="url(#clip-1585990364)" d="M 35.8490,45.5379 L 35.8490,57.1646 L 36.8179,57.1646 L 36.8179,45.5379 L 35.8490,45.5379 Z" stroke-width="1px" stroke="#3FA4DC" fill="#3FA4DC"/>
          <path clip-path="url(#clip-1585990364)" d="M 36.8179,45.5379 L 36.8179,57.1646 L 37.7868,57.1646 L 37.7868,45.5379 L 36.8179,45.5379 Z" stroke-width="1px" stroke="#41A6DD" fill="#41A6DD"/>
          <path clip-path="url(#clip-1585990364)" d="M 37.7868,45.5379 L 37.7868,57.1646 L 38.7557,57.1646 L 38.7557,45.5379 L 37.7868,45.5379 Z" stroke-width="1px" stroke="#43A7DE" fill="#43A7DE"/>
          <path clip-path="url(#clip-1585990364)" d="M 38.7557,45.5379 L 38.7557,57.1646 L 39.7246,57.1646 L 39.7246,45.5379 L 38.7557,45.5379 Z" stroke-width="1px" stroke="#45A8DE" fill="#45A8DE"/>
          <path clip-path="url(#clip-1585990364)" d="M 39.7246,45.5379 L 39.7246,57.1646 L 40.6935,57.1646 L 40.6935,45.5379 L 39.7246,45.5379 Z" stroke-width="1px" stroke="#47AADF" fill="#47AADF"/>
          <path clip-path="url(#clip-1585990364)" d="M 40.6935,45.5379 L 40.6935,57.1646 L 41.6623,57.1646 L 41.6623,45.5379 L 40.6935,45.5379 Z" stroke-width="1px" stroke="#49ABE0" fill="#49ABE0"/>
          <path clip-path="url(#clip-1585990364)" d="M 41.6623,45.5379 L 41.6623,57.1646 L 42.6312,57.1646 L 42.6312,45.5379 L 41.6623,45.5379 Z" stroke-width="1px" stroke="#4BADE1" fill="#4BADE1"/>
          <path clip-path="url(#clip-1585990364)" d="M 42.6312,45.5379 L 42.6312,57.1646 L 43.6001,57.1646 L 43.6001,45.5379 L 42.6312,45.5379 Z" stroke-width="1px" stroke="#4EAEE2" fill="#4EAEE2"/>
          <path clip-path="url(#clip-1585990364)" d="M 43.6001,45.5379 L 43.6001,57.1646 L 44.5690,57.1646 L 44.5690,45.5379 L 43.6001,45.5379 Z" stroke-width="1px" stroke="#4FB0E3" fill="#4FB0E3"/>
          <path clip-path="url(#clip-1585990364)" d="M 44.5690,45.5379 L 44.5690,57.1646 L 45.5379,57.1646 L 45.5379,45.5379 L 44.5690,45.5379 Z" stroke-width="1px" stroke="#51B1E4" fill="#51B1E4"/>
          <path clip-path="url(#clip-1585990364)" d="M 45.5379,45.5379 L 45.5379,57.1646 L 46.5068,57.1646 L 46.5068,45.5379 L 45.5379,45.5379 Z" stroke-width="1px" stroke="#53B2E5" fill="#53B2E5"/>
          <path clip-path="url(#clip-1585990364)" d="M 46.5068,45.5379 L 46.5068,57.1646 L 47.4757,57.1646 L 47.4757,45.5379 L 46.5068,45.5379 Z" stroke-width="1px" stroke="#55B4E6" fill="#55B4E6"/>
          <path clip-path="url(#clip-1585990364)" d="M 47.4757,45.5379 L 47.4757,57.1646 L 48.4446,57.1646 L 48.4446,45.5379 L 47.4757,45.5379 Z" stroke-width="1px" stroke="#57B5E6" fill="#57B5E6"/>
          <path clip-path="url(#clip-1585990364)" d="M 48.4446,45.5379 L 48.4446,57.1646 L 49.4135,57.1646 L 49.4135,45.5379 L 48.4446,45.5379 Z" stroke-width="1px" stroke="#59B7E7" fill="#59B7E7"/>
          <path clip-path="url(#clip-1585990364)" d="M 49.4135,45.5379 L 49.4135,57.1646 L 50.3824,57.1646 L 50.3824,45.5379 L 49.4135,45.5379 Z" stroke-width="1px" stroke="#5BB8E8" fill="#5BB8E8"/>
          <path clip-path="url(#clip-1585990364)" d="M 50.3824,45.5379 L 50.3824,57.1646 L 51.3513,57.1646 L 51.3513,45.5379 L 50.3824,45.5379 Z" stroke-width="1px" stroke="#5DB9E9" fill="#5DB9E9"/>
          <path clip-path="url(#clip-1585990364)" d="M 51.3513,45.5379 L 51.3513,57.1646 L 52.3202,57.1646 L 52.3202,45.5379 L 51.3513,45.5379 Z" stroke-width="1px" stroke="#5FBBEA" fill="#5FBBEA"/>
          <path clip-path="url(#clip-1585990364)" d="M 52.3202,45.5379 L 52.3202,57.1646 L 53.2890,57.1646 L 53.2890,45.5379 L 52.3202,45.5379 Z" stroke-width="1px" stroke="#61BCEB" fill="#61BCEB"/>
          <path clip-path="url(#clip-1585990364)" d="M 53.2890,45.5379 L 53.2890,57.1646 L 54.2579,57.1646 L 54.2579,45.5379 L 53.2890,45.5379 Z" stroke-width="1px" stroke="#63BEEC" fill="#63BEEC"/>
        </g>
        <g transform="matrix(0.0625 0.0000 0.0000 0.0625 0.0000 0.0000)">
          <path d="M 874.9093,912.6961 L 88.1692,912.6961 L 88.1692,734.4200 L 874.9093,734.4200 L 874.9093,912.6961 " stroke="#0054A6" stroke-width="11.6267" stroke-linecap="round" stroke-linejoin="round" fill="none"/>
        </g>
        <g transform="matrix(1.0000 0.0000 0.0000 1.0000 0.0000 0.0000)">
</g>
        <g transform="matrix(0.0625 0.0000 0.0000 0.0625 0.0000 0.0000)">
          <path d="M 118.2048,763.4867 C 118.2048,763.4867 119.1737,763.4867 119.1737,763.4867 C 133.7071,763.4867 136.6137,777.0512 136.6137,787.7090 L 136.6137,896.2249 L 148.2404,896.2249 L 148.2404,750.8911 L 136.6137,750.8911 L 118.2048,750.8911 L 118.2048,763.4867 Z M 814.8380,763.4867 C 814.8380,763.4867 814.8380,763.4867 814.8380,763.4867 C 830.3403,763.4867 832.2781,777.0512 832.2781,787.7090 L 832.2781,896.2249 L 844.8737,896.2249 L 844.8737,750.8911 L 832.2781,750.8911 L 814.8380,750.8911 L 814.8380,763.4867 Z M 745.0778,763.4867 C 745.0778,763.4867 745.0778,763.4867 745.0778,763.4867 C 760.5801,763.4867 762.5178,777.0512 762.5178,787.7090 L 762.5178,896.2249 L 775.1134,896.2249 L 775.1134,750.8911 L 763.4867,750.8911 L 745.0778,750.8911 L 745.0778,763.4867 Z M 675.3176,763.4867 C 675.3176,763.4867 675.3176,763.4867 675.3176,763.4867 C 690.8199,763.4867 692.7576,777.0512 693.7265,787.7090 L 693.7265,896.2249 L 705.3532,896.2249 L 705.3532,750.8911 L 693.7265,750.8911 L 675.3176,750.8911 L 675.3176,763.4867 Z M 605.5574,763.4867 C 605.5574,763.4867 605.5574,763.4867 606.5263,763.4867 C 621.0596,763.4867 623.9663,777.0512 623.9663,787.7090 L 623.9663,896.2249 L 635.5930,896.2249 L 635.5930,750.8911 L 623.9663,750.8911 L 605.5574,750.8911 L 605.5574,763.4867 Z M 535.7972,763.4867 C 535.7972,763.4867 536.7661,763.4867 536.7661,763.4867 C 551.2994,763.4867 554.2061,777.0512 554.2061,787.7090 L 554.2061,896.2249 L 565.8328,896.2249 L 565.8328,750.8911 L 554.2061,750.8911 L 535.7972,750.8911 L 535.7972,763.4867 Z M 466.0370,763.4867 C 467.0058,763.4867 467.0058,763.4867 467.0058,763.4867 C 482.5081,763.4867 484.4459,777.0512 484.4459,787.7090 L 484.4459,896.2249 L 496.0726,896.2249 L 496.0726,750.8911 L 484.4459,750.8911 L 466.0370,750.8911 L 466.0370,763.4867 Z M 397.2456,763.4867 C 397.2456,763.4867 397.2456,763.4867 397.2456,763.4867 C 412.7479,763.4867 414.6857,777.0512 414.6857,787.7090 L 414.6857,896.2249 L 427.2813,896.2249 L 427.2813,750.8911 L 415.6546,750.8911 L 397.2456,750.8911 L 397.2456,763.4867 Z M 327.4854,763.4867 C 327.4854,763.4867 327.4854,763.4867 327.4854,763.4867 C 342.9877,763.4867 344.9255,777.0512 344.9255,787.7090 L 344.9255,896.2249 L 357.5211,896.2249 L 357.5211,750.8911 L 345.8944,750.8911 L 327.4854,750.8911 L 327.4854,763.4867 Z M 257.7252,763.4867 C 257.7252,763.4867 257.7252,763.4867 257.7252,763.4867 C 273.2275,763.4867 275.1653,777.0512 276.1342,787.7090 L 276.1342,896.2249 L 287.7609,896.2249 L 287.7609,750.8911 L 276.1342,750.8911 L 257.7252,750.8911 L 257.7252,763.4867 Z M 187.9650,763.4867 C 187.9650,763.4867 187.9650,763.4867 188.9339,763.4867 C 203.4673,763.4867 206.3740,777.0512 206.3740,787.7090 L 206.3740,896.2249 L 218.0007,896.2249 L 218.0007,750.8911 L 206.3740,750.8911 L 187.9650,750.8911 L 187.9650,763.4867 Z " fill="#0054A6" stroke="none"/>
        </g>
        <g transform="matrix(1.0000 0.0000 0.0000 1.0000 0.0000 0.0000)">
          <path d="M 1.9378,14.5334 L 1.9378,28.0979 L 4.8445,30.0356 L 4.8445,16.4712 L 1.9378,14.5334 " fill="none" stroke="none"/>
          <defs>
            <clipPath id="clip-1374344043">
              <path d="M 1.9378,14.5334 L 1.9378,28.0979 L 4.8445,30.0356 L 4.8445,16.4712 L 1.9378,14.5334 Z"/>
            </clipPath>
          </defs>
          <path clip-path="url(#clip-1374344043)" d="M 0.9689,13.5645 L 0.9689,14.5334 L 3.8756,14.5334 L 3.8756,13.5645 L 0.9689,13.5645 Z" stroke-width="1px" stroke="#54BBEA" fill="#54BBEA"/>
          <path clip-path="url(#clip-1374344043)" d="M 0.9689,14.5334 L 0.9689,15.5023 L 3.8756,15.5023 L 3.8756,14.5334 L 0.9689,14.5334 Z" stroke-width="1px" stroke="#037AC2" fill="#037AC2"/>
          <path clip-path="url(#clip-1374344043)" d="M 0.9689,15.5023 L 0.9689,16.4712 L 3.8756,16.4712 L 3.8756,15.5023 L 0.9689,15.5023 Z" stroke-width="1px" stroke="#097EC4" fill="#097EC4"/>
          <path clip-path="url(#clip-1374344043)" d="M 0.9689,16.4712 L 0.9689,17.4401 L 3.8756,17.4401 L 3.8756,16.4712 L 0.9689,16.4712 Z" stroke-width="1px" stroke="#0E82C7" fill="#0E82C7"/>
          <path clip-path="url(#clip-1374344043)" d="M 0.9689,17.4401 L 0.9689,18.4089 L 3.8756,18.4089 L 3.8756,17.4401 L 0.9689,17.4401 Z" stroke-width="1px" stroke="#1486CA" fill="#1486CA"/>
          <path clip-path="url(#clip-1374344043)" d="M 0.9689,18.4089 L 0.9689,19.3778 L 3.8756,19.3778 L 3.8756,18.4089 L 0.9689,18.4089 Z" stroke-width="1px" stroke="#198BCC" fill="#198BCC"/>
          <path clip-path="url(#clip-1374344043)" d="M 0.9689,19.3778 L 0.9689,20.3467 L 3.8756,20.3467 L 3.8756,19.3778 L 0.9689,19.3778 Z" stroke-width="1px" stroke="#1E8FCF" fill="#1E8FCF"/>
          <path clip-path="url(#clip-1374344043)" d="M 0.9689,20.3467 L 0.9689,21.3156 L 3.8756,21.3156 L 3.8756,20.3467 L 0.9689,20.3467 Z" stroke-width="1px" stroke="#2393D2" fill="#2393D2"/>
          <path clip-path="url(#clip-1374344043)" d="M 0.9689,21.3156 L 0.9689,22.2845 L 3.8756,22.2845 L 3.8756,21.3156 L 0.9689,21.3156 Z" stroke-width="1px" stroke="#2998D5" fill="#2998D5"/>
          <path clip-path="url(#clip-1374344043)" d="M 0.9689,22.2845 L 0.9689,23.2534 L 3.8756,23.2534 L 3.8756,22.2845 L 0.9689,22.2845 Z" stroke-width="1px" stroke="#2E9CD7" fill="#2E9CD7"/>
          <path clip-path="url(#clip-1374344043)" d="M 0.9689,23.2534 L 0.9689,24.2223 L 3.8756,24.2223 L 3.8756,23.2534 L 0.9689,23.2534 Z" stroke-width="1px" stroke="#33A0DA" fill="#33A0DA"/>
          <path clip-path="url(#clip-1374344043)" d="M 0.9689,24.2223 L 0.9689,25.1912 L 3.8756,25.1912 L 3.8756,24.2223 L 0.9689,24.2223 Z" stroke-width="1px" stroke="#39A4DD" fill="#39A4DD"/>
          <path clip-path="url(#clip-1374344043)" d="M 0.9689,25.1912 L 0.9689,26.1601 L 3.8756,26.1601 L 3.8756,25.1912 L 0.9689,25.1912 Z" stroke-width="1px" stroke="#3EA8DF" fill="#3EA8DF"/>
          <path clip-path="url(#clip-1374344043)" d="M 0.9689,26.1601 L 0.9689,27.1290 L 3.8756,27.1290 L 3.8756,26.1601 L 0.9689,26.1601 Z" stroke-width="1px" stroke="#43ADE1" fill="#43ADE1"/>
          <path clip-path="url(#clip-1374344043)" d="M 0.9689,27.1290 L 0.9689,28.0979 L 3.8756,28.0979 L 3.8756,27.1290 L 0.9689,27.1290 Z" stroke-width="1px" stroke="#48B1E4" fill="#48B1E4"/>
          <path clip-path="url(#clip-1374344043)" d="M 0.9689,28.0979 L 0.9689,29.0668 L 3.8756,29.0668 L 3.8756,28.0979 L 0.9689,28.0979 Z" stroke-width="1px" stroke="#4EB5E7" fill="#4EB5E7"/>
          <path clip-path="url(#clip-1374344043)" d="M 0.9689,29.0668 L 0.9689,30.0356 L 3.8756,30.0356 L 3.8756,29.0668 L 0.9689,29.0668 Z" stroke-width="1px" stroke="#53BAE9" fill="#53BAE9"/>
        </g>
        <g transform="matrix(0.0625 0.0000 0.0000 0.0625 0.0000 0.0000)">
          <path d="M 18.4089,222.8451 L 18.4089,448.5969 L 63.9469,474.7570 L 63.9469,249.0052 L 18.4089,222.8451 " stroke="#0054A6" stroke-width="9.6889" stroke-linecap="round" stroke-linejoin="round" fill="none"/>
        </g>
        <g transform="matrix(1.0000 0.0000 0.0000 1.0000 0.0000 0.0000)">
          <path d="M 1.9378,2.9067 L 1.9378,13.5645 L 4.8445,15.5023 L 4.8445,1.9378 L 1.9378,2.9067 " fill="none" stroke="none"/>
          <defs>
            <clipPath id="clip-760313750">
              <path d="M 1.9378,2.9067 L 1.9378,13.5645 L 4.8445,15.5023 L 4.8445,1.9378 L 1.9378,2.9067 Z"/>
            </clipPath>
          </defs>
          <path clip-path="url(#clip-760313750)" d="M 0.9689,0.9689 L 0.9689,1.9378 L 3.8756,1.9378 L 3.8756,0.9689 L 0.9689,0.9689 Z" stroke-width="1px" stroke="#55BBEA" fill="#55BBEA"/>
          <path clip-path="url(#clip-760313750)" d="M 0.9689,1.9378 L 0.9689,2.9067 L 3.8756,2.9067 L 3.8756,1.9378 L 0.9689,1.9378 Z" stroke-width="1px" stroke="#057BC3" fill="#057BC3"/>
          <path clip-path="url(#clip-760313750)" d="M 0.9689,2.9067 L 0.9689,3.8756 L 3.8756,3.8756 L 3.8756,2.9067 L 0.9689,2.9067 Z" stroke-width="1px" stroke="#0B80C5" fill="#0B80C5"/>
          <path clip-path="url(#clip-760313750)" d="M 0.9689,3.8756 L 0.9689,4.8445 L 3.8756,4.8445 L 3.8756,3.8756 L 0.9689,3.8756 Z" stroke-width="1px" stroke="#1185C8" fill="#1185C8"/>
          <path clip-path="url(#clip-760313750)" d="M 0.9689,4.8445 L 0.9689,5.8134 L 3.8756,5.8134 L 3.8756,4.8445 L 0.9689,4.8445 Z" stroke-width="1px" stroke="#1789CB" fill="#1789CB"/>
          <path clip-path="url(#clip-760313750)" d="M 0.9689,5.8134 L 0.9689,6.7822 L 3.8756,6.7822 L 3.8756,5.8134 L 0.9689,5.8134 Z" stroke-width="1px" stroke="#1D8ECE" fill="#1D8ECE"/>
          <path clip-path="url(#clip-760313750)" d="M 0.9689,6.7822 L 0.9689,7.7511 L 3.8756,7.7511 L 3.8756,6.7822 L 0.9689,6.7822 Z" stroke-width="1px" stroke="#2393D1" fill="#2393D1"/>
          <path clip-path="url(#clip-760313750)" d="M 0.9689,7.7511 L 0.9689,8.7200 L 3.8756,8.7200 L 3.8756,7.7511 L 0.9689,7.7511 Z" stroke-width="1px" stroke="#2998D5" fill="#2998D5"/>
          <path clip-path="url(#clip-760313750)" d="M 0.9689,8.7200 L 0.9689,9.6889 L 3.8756,9.6889 L 3.8756,8.7200 L 0.9689,8.7200 Z" stroke-width="1px" stroke="#2E9DD7" fill="#2E9DD7"/>
          <path clip-path="url(#clip-760313750)" d="M 0.9689,9.6889 L 0.9689,10.6578 L 3.8756,10.6578 L 3.8756,9.6889 L 0.9689,9.6889 Z" stroke-width="1px" stroke="#34A1DA" fill="#34A1DA"/>
          <path clip-path="url(#clip-760313750)" d="M 0.9689,10.6578 L 0.9689,11.6267 L 3.8756,11.6267 L 3.8756,10.6578 L 0.9689,10.6578 Z" stroke-width="1px" stroke="#3AA5DE" fill="#3AA5DE"/>
          <path clip-path="url(#clip-760313750)" d="M 0.9689,11.6267 L 0.9689,12.5956 L 3.8756,12.5956 L 3.8756,11.6267 L 0.9689,11.6267 Z" stroke-width="1px" stroke="#41ABE0" fill="#41ABE0"/>
          <path clip-path="url(#clip-760313750)" d="M 0.9689,12.5956 L 0.9689,13.5645 L 3.8756,13.5645 L 3.8756,12.5956 L 0.9689,12.5956 Z" stroke-width="1px" stroke="#46AFE3" fill="#46AFE3"/>
          <path clip-path="url(#clip-760313750)" d="M 0.9689,13.5645 L 0.9689,14.5334 L 3.8756,14.5334 L 3.8756,13.5645 L 0.9689,13.5645 Z" stroke-width="1px" stroke="#4CB4E6" fill="#4CB4E6"/>
          <path clip-path="url(#clip-760313750)" d="M 0.9689,14.5334 L 0.9689,15.5023 L 3.8756,15.5023 L 3.8756,14.5334 L 0.9689,14.5334 Z" stroke-width="1px" stroke="#52B9E9" fill="#52B9E9"/>
        </g>
        <g transform="matrix(0.0625 0.0000 0.0000 0.0625 0.0000 0.0000)">
          <path d="M 18.4089,44.5690 L 18.4089,217.0318 L 63.9469,243.1918 L 63.9469,18.4089 L 18.4089,44.5690 " stroke="#0054A6" stroke-width="9.6889" stroke-linecap="round" stroke-linejoin="round" fill="none"/>
        </g>
        <g transform="matrix(1.0000 0.0000 0.0000 1.0000 0.0000 0.0000)">
          <path d="M 1.9378,29.0668 L 1.9378,42.6312 L 4.8445,44.5690 L 4.8445,30.0356 L 1.9378,29.0668 " fill="none" stroke="none"/>
          <defs>
            <clipPath id="clip-1477171087">
              <path d="M 1.9378,29.0668 L 1.9378,42.6312 L 4.8445,44.5690 L 4.8445,30.0356 L 1.9378,29.0668 Z"/>
            </clipPath>
          </defs>
          <path clip-path="url(#clip-1477171087)" d="M 0.9689,28.0979 L 0.9689,29.0668 L 3.8756,29.0668 L 3.8756,28.0979 L 0.9689,28.0979 Z" stroke-width="1px" stroke="#55BBEA" fill="#55BBEA"/>
          <path clip-path="url(#clip-1477171087)" d="M 0.9689,29.0668 L 0.9689,30.0356 L 3.8756,30.0356 L 3.8756,29.0668 L 0.9689,29.0668 Z" stroke-width="1px" stroke="#047AC2" fill="#047AC2"/>
          <path clip-path="url(#clip-1477171087)" d="M 0.9689,30.0356 L 0.9689,31.0045 L 3.8756,31.0045 L 3.8756,30.0356 L 0.9689,30.0356 Z" stroke-width="1px" stroke="#097FC4" fill="#097FC4"/>
          <path clip-path="url(#clip-1477171087)" d="M 0.9689,31.0045 L 0.9689,31.9734 L 3.8756,31.9734 L 3.8756,31.0045 L 0.9689,31.0045 Z" stroke-width="1px" stroke="#0F83C7" fill="#0F83C7"/>
          <path clip-path="url(#clip-1477171087)" d="M 0.9689,31.9734 L 0.9689,32.9423 L 3.8756,32.9423 L 3.8756,31.9734 L 0.9689,31.9734 Z" stroke-width="1px" stroke="#1487CA" fill="#1487CA"/>
          <path clip-path="url(#clip-1477171087)" d="M 0.9689,32.9423 L 0.9689,33.9112 L 3.8756,33.9112 L 3.8756,32.9423 L 0.9689,32.9423 Z" stroke-width="1px" stroke="#198BCC" fill="#198BCC"/>
          <path clip-path="url(#clip-1477171087)" d="M 0.9689,33.9112 L 0.9689,34.8801 L 3.8756,34.8801 L 3.8756,33.9112 L 0.9689,33.9112 Z" stroke-width="1px" stroke="#1E90CF" fill="#1E90CF"/>
          <path clip-path="url(#clip-1477171087)" d="M 0.9689,34.8801 L 0.9689,35.8490 L 3.8756,35.8490 L 3.8756,34.8801 L 0.9689,34.8801 Z" stroke-width="1px" stroke="#2494D2" fill="#2494D2"/>
          <path clip-path="url(#clip-1477171087)" d="M 0.9689,35.8490 L 0.9689,36.8179 L 3.8756,36.8179 L 3.8756,35.8490 L 0.9689,35.8490 Z" stroke-width="1px" stroke="#2998D5" fill="#2998D5"/>
          <path clip-path="url(#clip-1477171087)" d="M 0.9689,36.8179 L 0.9689,37.7868 L 3.8756,37.7868 L 3.8756,36.8179 L 0.9689,36.8179 Z" stroke-width="1px" stroke="#2E9DD7" fill="#2E9DD7"/>
          <path clip-path="url(#clip-1477171087)" d="M 0.9689,37.7868 L 0.9689,38.7557 L 3.8756,38.7557 L 3.8756,37.7868 L 0.9689,37.7868 Z" stroke-width="1px" stroke="#34A0DA" fill="#34A0DA"/>
          <path clip-path="url(#clip-1477171087)" d="M 0.9689,38.7557 L 0.9689,39.7246 L 3.8756,39.7246 L 3.8756,38.7557 L 0.9689,38.7557 Z" stroke-width="1px" stroke="#39A4DD" fill="#39A4DD"/>
          <path clip-path="url(#clip-1477171087)" d="M 0.9689,39.7246 L 0.9689,40.6935 L 3.8756,40.6935 L 3.8756,39.7246 L 0.9689,39.7246 Z" stroke-width="1px" stroke="#3FA9DF" fill="#3FA9DF"/>
          <path clip-path="url(#clip-1477171087)" d="M 0.9689,40.6935 L 0.9689,41.6623 L 3.8756,41.6623 L 3.8756,40.6935 L 0.9689,40.6935 Z" stroke-width="1px" stroke="#44ADE2" fill="#44ADE2"/>
          <path clip-path="url(#clip-1477171087)" d="M 0.9689,41.6623 L 0.9689,42.6312 L 3.8756,42.6312 L 3.8756,41.6623 L 0.9689,41.6623 Z" stroke-width="1px" stroke="#49B1E5" fill="#49B1E5"/>
          <path clip-path="url(#clip-1477171087)" d="M 0.9689,42.6312 L 0.9689,43.6001 L 3.8756,43.6001 L 3.8756,42.6312 L 0.9689,42.6312 Z" stroke-width="1px" stroke="#4EB6E7" fill="#4EB6E7"/>
          <path clip-path="url(#clip-1477171087)" d="M 0.9689,43.6001 L 0.9689,44.5690 L 3.8756,44.5690 L 3.8756,43.6001 L 0.9689,43.6001 Z" stroke-width="1px" stroke="#54BAEA" fill="#54BAEA"/>
        </g>
        <g transform="matrix(0.0625 0.0000 0.0000 0.0625 0.0000 0.0000)">
          <path d="M 18.4089,453.4414 L 18.4089,679.1932 L 63.9469,705.3532 L 63.9469,480.5703 L 18.4089,453.4414 " stroke="#0054A6" stroke-width="9.6889" stroke-linecap="round" stroke-linejoin="round" fill="none"/>
        </g>
        <g transform="matrix(1.0000 0.0000 0.0000 1.0000 0.0000 0.0000)">
          <path d="M 1.9378,43.6001 L 1.9378,57.1646 L 4.8445,59.1024 L 4.8445,44.5690 L 1.9378,43.6001 " fill="none" stroke="none"/>
          <defs>
            <clipPath id="clip-356426808">
              <path d="M 1.9378,43.6001 L 1.9378,57.1646 L 4.8445,59.1024 L 4.8445,44.5690 L 1.9378,43.6001 Z"/>
            </clipPath>
          </defs>
          <path clip-path="url(#clip-356426808)" d="M 0.9689,42.6312 L 0.9689,43.6001 L 3.8756,43.6001 L 3.8756,42.6312 L 0.9689,42.6312 Z" stroke-width="1px" stroke="#55BBEB" fill="#55BBEB"/>
          <path clip-path="url(#clip-356426808)" d="M 0.9689,43.6001 L 0.9689,44.5690 L 3.8756,44.5690 L 3.8756,43.6001 L 0.9689,43.6001 Z" stroke-width="1px" stroke="#047AC3" fill="#047AC3"/>
          <path clip-path="url(#clip-356426808)" d="M 0.9689,44.5690 L 0.9689,45.5379 L 3.8756,45.5379 L 3.8756,44.5690 L 0.9689,44.5690 Z" stroke-width="1px" stroke="#0A7FC5" fill="#0A7FC5"/>
          <path clip-path="url(#clip-356426808)" d="M 0.9689,45.5379 L 0.9689,46.5068 L 3.8756,46.5068 L 3.8756,45.5379 L 0.9689,45.5379 Z" stroke-width="1px" stroke="#0F83C7" fill="#0F83C7"/>
          <path clip-path="url(#clip-356426808)" d="M 0.9689,46.5068 L 0.9689,47.4757 L 3.8756,47.4757 L 3.8756,46.5068 L 0.9689,46.5068 Z" stroke-width="1px" stroke="#1587CA" fill="#1587CA"/>
          <path clip-path="url(#clip-356426808)" d="M 0.9689,47.4757 L 0.9689,48.4446 L 3.8756,48.4446 L 3.8756,47.4757 L 0.9689,47.4757 Z" stroke-width="1px" stroke="#1A8CCD" fill="#1A8CCD"/>
          <path clip-path="url(#clip-356426808)" d="M 0.9689,48.4446 L 0.9689,49.4135 L 3.8756,49.4135 L 3.8756,48.4446 L 0.9689,48.4446 Z" stroke-width="1px" stroke="#1F90CF" fill="#1F90CF"/>
          <path clip-path="url(#clip-356426808)" d="M 0.9689,49.4135 L 0.9689,50.3824 L 3.8756,50.3824 L 3.8756,49.4135 L 0.9689,49.4135 Z" stroke-width="1px" stroke="#2594D2" fill="#2594D2"/>
          <path clip-path="url(#clip-356426808)" d="M 0.9689,50.3824 L 0.9689,51.3513 L 3.8756,51.3513 L 3.8756,50.3824 L 0.9689,50.3824 Z" stroke-width="1px" stroke="#2A99D5" fill="#2A99D5"/>
          <path clip-path="url(#clip-356426808)" d="M 0.9689,51.3513 L 0.9689,52.3202 L 3.8756,52.3202 L 3.8756,51.3513 L 0.9689,51.3513 Z" stroke-width="1px" stroke="#2F9DD7" fill="#2F9DD7"/>
          <path clip-path="url(#clip-356426808)" d="M 0.9689,52.3202 L 0.9689,53.2890 L 3.8756,53.2890 L 3.8756,52.3202 L 0.9689,52.3202 Z" stroke-width="1px" stroke="#34A1DA" fill="#34A1DA"/>
          <path clip-path="url(#clip-356426808)" d="M 0.9689,53.2890 L 0.9689,54.2579 L 3.8756,54.2579 L 3.8756,53.2890 L 0.9689,53.2890 Z" stroke-width="1px" stroke="#3AA5DD" fill="#3AA5DD"/>
          <path clip-path="url(#clip-356426808)" d="M 0.9689,54.2579 L 0.9689,55.2268 L 3.8756,55.2268 L 3.8756,54.2579 L 0.9689,54.2579 Z" stroke-width="1px" stroke="#3FA9DF" fill="#3FA9DF"/>
          <path clip-path="url(#clip-356426808)" d="M 0.9689,55.2268 L 0.9689,56.1957 L 3.8756,56.1957 L 3.8756,55.2268 L 0.9689,55.2268 Z" stroke-width="1px" stroke="#44AEE2" fill="#44AEE2"/>
          <path clip-path="url(#clip-356426808)" d="M 0.9689,56.1957 L 0.9689,57.1646 L 3.8756,57.1646 L 3.8756,56.1957 L 0.9689,56.1957 Z" stroke-width="1px" stroke="#49B2E5" fill="#49B2E5"/>
          <path clip-path="url(#clip-356426808)" d="M 0.9689,57.1646 L 0.9689,58.1335 L 3.8756,58.1335 L 3.8756,57.1646 L 0.9689,57.1646 Z" stroke-width="1px" stroke="#4FB6E7" fill="#4FB6E7"/>
          <path clip-path="url(#clip-356426808)" d="M 0.9689,58.1335 L 0.9689,59.1024 L 3.8756,59.1024 L 3.8756,58.1335 L 0.9689,58.1335 Z" stroke-width="1px" stroke="#54BBEA" fill="#54BBEA"/>
        </g>
        <g transform="matrix(0.0625 0.0000 0.0000 0.0625 0.0000 0.0000)">
          <path d="M 18.4089,685.0065 L 18.4089,909.7894 L 63.9469,935.9495 L 63.9469,711.1666 L 18.4089,685.0065 " stroke="#0054A6" stroke-width="9.6889" stroke-linecap="round" stroke-linejoin="round" fill="none"/>
        </g>
        <g transform="matrix(1.0000 0.0000 0.0000 1.0000 0.0000 0.0000)">
</g>
      </g>
      <!--emf-blob end-->
    </g>
  </g>
</svg>
