<svg xmlns="http://www.w3.org/2000/svg" xmlns:xlink="http://www.w3.org/1999/xlink" version="1.1" width="56.6929000000" height="29.3953000000">
  <title><![CDATA[FAS3000 Double controllers]]></title>
  <g transform=" scale(1.000000) ">
    <!--converted by libvisio2svg-->
    <g transform=" translate(-1.239900,-1.138400) ">
      <!--emf-blob start-->
      <g transform="translate(0.9603, 0.9603)">
        <path d="M 4.8017,15.3655 L 55.6999,15.3655 L 55.6999,1.9207 L 4.8017,1.9207 L 4.8017,15.3655 Z M 4.8017,29.7706 L 55.6999,29.7706 L 55.6999,16.3258 L 4.8017,16.3258 L 4.8017,29.7706 Z " fill="none" stroke="none"/>
        <defs>
          <clipPath id="clip-1734575198">
            <path d="M 4.8017,15.3655 L 55.6999,15.3655 L 55.6999,1.9207 L 4.8017,1.9207 L 4.8017,15.3655 Z M 4.8017,29.7706 L 55.6999,29.7706 L 55.6999,16.3258 L 4.8017,16.3258 L 4.8017,29.7706 Z Z"/>
          </clipPath>
        </defs>
        <path clip-path="url(#clip-1734575198)" d="M 3.8414,0.9603 L 3.8414,29.7706 L 4.8017,29.7706 L 4.8017,0.9603 L 3.8414,0.9603 Z" stroke-width="1px" stroke="#00B0D8" fill="#00B0D8"/>
        <path clip-path="url(#clip-1734575198)" d="M 4.8017,0.9603 L 4.8017,29.7706 L 5.7621,29.7706 L 5.7621,0.9603 L 4.8017,0.9603 Z" stroke-width="1px" stroke="#1263B2" fill="#1263B2"/>
        <path clip-path="url(#clip-1734575198)" d="M 5.7621,0.9603 L 5.7621,29.7706 L 6.7224,29.7706 L 6.7224,0.9603 L 5.7621,0.9603 Z" stroke-width="1px" stroke="#1165B2" fill="#1165B2"/>
        <path clip-path="url(#clip-1734575198)" d="M 6.7224,0.9603 L 6.7224,29.7706 L 7.6827,29.7706 L 7.6827,0.9603 L 6.7224,0.9603 Z" stroke-width="1px" stroke="#1166B3" fill="#1166B3"/>
        <path clip-path="url(#clip-1734575198)" d="M 7.6827,0.9603 L 7.6827,29.7706 L 8.6431,29.7706 L 8.6431,0.9603 L 7.6827,0.9603 Z" stroke-width="1px" stroke="#1168B3" fill="#1168B3"/>
        <path clip-path="url(#clip-1734575198)" d="M 8.6431,0.9603 L 8.6431,29.7706 L 9.6034,29.7706 L 9.6034,0.9603 L 8.6431,0.9603 Z" stroke-width="1px" stroke="#1169B4" fill="#1169B4"/>
        <path clip-path="url(#clip-1734575198)" d="M 9.6034,0.9603 L 9.6034,29.7706 L 10.5638,29.7706 L 10.5638,0.9603 L 9.6034,0.9603 Z" stroke-width="1px" stroke="#106BB5" fill="#106BB5"/>
        <path clip-path="url(#clip-1734575198)" d="M 10.5638,0.9603 L 10.5638,29.7706 L 11.5241,29.7706 L 11.5241,0.9603 L 10.5638,0.9603 Z" stroke-width="1px" stroke="#106CB6" fill="#106CB6"/>
        <path clip-path="url(#clip-1734575198)" d="M 11.5241,0.9603 L 11.5241,29.7706 L 12.4845,29.7706 L 12.4845,0.9603 L 11.5241,0.9603 Z" stroke-width="1px" stroke="#106EB7" fill="#106EB7"/>
        <path clip-path="url(#clip-1734575198)" d="M 12.4845,0.9603 L 12.4845,29.7706 L 13.4448,29.7706 L 13.4448,0.9603 L 12.4845,0.9603 Z" stroke-width="1px" stroke="#0F6FB7" fill="#0F6FB7"/>
        <path clip-path="url(#clip-1734575198)" d="M 13.4448,0.9603 L 13.4448,29.7706 L 14.4051,29.7706 L 14.4051,0.9603 L 13.4448,0.9603 Z" stroke-width="1px" stroke="#0F71B8" fill="#0F71B8"/>
        <path clip-path="url(#clip-1734575198)" d="M 14.4051,0.9603 L 14.4051,29.7706 L 15.3655,29.7706 L 15.3655,0.9603 L 14.4051,0.9603 Z" stroke-width="1px" stroke="#0F72B9" fill="#0F72B9"/>
        <path clip-path="url(#clip-1734575198)" d="M 15.3655,0.9603 L 15.3655,29.7706 L 16.3258,29.7706 L 16.3258,0.9603 L 15.3655,0.9603 Z" stroke-width="1px" stroke="#0E74BA" fill="#0E74BA"/>
        <path clip-path="url(#clip-1734575198)" d="M 16.3258,0.9603 L 16.3258,29.7706 L 17.2862,29.7706 L 17.2862,0.9603 L 16.3258,0.9603 Z" stroke-width="1px" stroke="#0E75BA" fill="#0E75BA"/>
        <path clip-path="url(#clip-1734575198)" d="M 17.2862,0.9603 L 17.2862,29.7706 L 18.2465,29.7706 L 18.2465,0.9603 L 17.2862,0.9603 Z" stroke-width="1px" stroke="#0E77BB" fill="#0E77BB"/>
        <path clip-path="url(#clip-1734575198)" d="M 18.2465,0.9603 L 18.2465,29.7706 L 19.2068,29.7706 L 19.2068,0.9603 L 18.2465,0.9603 Z" stroke-width="1px" stroke="#0D78BC" fill="#0D78BC"/>
        <path clip-path="url(#clip-1734575198)" d="M 19.2068,0.9603 L 19.2068,29.7706 L 20.1672,29.7706 L 20.1672,0.9603 L 19.2068,0.9603 Z" stroke-width="1px" stroke="#0D79BC" fill="#0D79BC"/>
        <path clip-path="url(#clip-1734575198)" d="M 20.1672,0.9603 L 20.1672,29.7706 L 21.1275,29.7706 L 21.1275,0.9603 L 20.1672,0.9603 Z" stroke-width="1px" stroke="#0C7ABD" fill="#0C7ABD"/>
        <path clip-path="url(#clip-1734575198)" d="M 21.1275,0.9603 L 21.1275,29.7706 L 22.0879,29.7706 L 22.0879,0.9603 L 21.1275,0.9603 Z" stroke-width="1px" stroke="#0C7CBE" fill="#0C7CBE"/>
        <path clip-path="url(#clip-1734575198)" d="M 22.0879,0.9603 L 22.0879,29.7706 L 23.0482,29.7706 L 23.0482,0.9603 L 22.0879,0.9603 Z" stroke-width="1px" stroke="#0B7DBF" fill="#0B7DBF"/>
        <path clip-path="url(#clip-1734575198)" d="M 23.0482,0.9603 L 23.0482,29.7706 L 24.0086,29.7706 L 24.0086,0.9603 L 23.0482,0.9603 Z" stroke-width="1px" stroke="#0B7FC0" fill="#0B7FC0"/>
        <path clip-path="url(#clip-1734575198)" d="M 24.0086,0.9603 L 24.0086,29.7706 L 24.9689,29.7706 L 24.9689,0.9603 L 24.0086,0.9603 Z" stroke-width="1px" stroke="#0B80C0" fill="#0B80C0"/>
        <path clip-path="url(#clip-1734575198)" d="M 24.9689,0.9603 L 24.9689,29.7706 L 25.9292,29.7706 L 25.9292,0.9603 L 24.9689,0.9603 Z" stroke-width="1px" stroke="#0A82C1" fill="#0A82C1"/>
        <path clip-path="url(#clip-1734575198)" d="M 25.9292,0.9603 L 25.9292,29.7706 L 26.8896,29.7706 L 26.8896,0.9603 L 25.9292,0.9603 Z" stroke-width="1px" stroke="#0A83C2" fill="#0A83C2"/>
        <path clip-path="url(#clip-1734575198)" d="M 26.8896,0.9603 L 26.8896,29.7706 L 27.8499,29.7706 L 27.8499,0.9603 L 26.8896,0.9603 Z" stroke-width="1px" stroke="#0A84C2" fill="#0A84C2"/>
        <path clip-path="url(#clip-1734575198)" d="M 27.8499,0.9603 L 27.8499,29.7706 L 28.8103,29.7706 L 28.8103,0.9603 L 27.8499,0.9603 Z" stroke-width="1px" stroke="#0A86C3" fill="#0A86C3"/>
        <path clip-path="url(#clip-1734575198)" d="M 28.8103,0.9603 L 28.8103,29.7706 L 29.7706,29.7706 L 29.7706,0.9603 L 28.8103,0.9603 Z" stroke-width="1px" stroke="#0987C4" fill="#0987C4"/>
        <path clip-path="url(#clip-1734575198)" d="M 29.7706,0.9603 L 29.7706,29.7706 L 30.7310,29.7706 L 30.7310,0.9603 L 29.7706,0.9603 Z" stroke-width="1px" stroke="#0989C5" fill="#0989C5"/>
        <path clip-path="url(#clip-1734575198)" d="M 30.7310,0.9603 L 30.7310,29.7706 L 31.6913,29.7706 L 31.6913,0.9603 L 30.7310,0.9603 Z" stroke-width="1px" stroke="#098AC6" fill="#098AC6"/>
        <path clip-path="url(#clip-1734575198)" d="M 31.6913,0.9603 L 31.6913,29.7706 L 32.6516,29.7706 L 32.6516,0.9603 L 31.6913,0.9603 Z" stroke-width="1px" stroke="#088CC6" fill="#088CC6"/>
        <path clip-path="url(#clip-1734575198)" d="M 32.6516,0.9603 L 32.6516,29.7706 L 33.6120,29.7706 L 33.6120,0.9603 L 32.6516,0.9603 Z" stroke-width="1px" stroke="#088DC7" fill="#088DC7"/>
        <path clip-path="url(#clip-1734575198)" d="M 33.6120,0.9603 L 33.6120,29.7706 L 34.5723,29.7706 L 34.5723,0.9603 L 33.6120,0.9603 Z" stroke-width="1px" stroke="#088FC7" fill="#088FC7"/>
        <path clip-path="url(#clip-1734575198)" d="M 34.5723,0.9603 L 34.5723,29.7706 L 35.5327,29.7706 L 35.5327,0.9603 L 34.5723,0.9603 Z" stroke-width="1px" stroke="#0890C8" fill="#0890C8"/>
        <path clip-path="url(#clip-1734575198)" d="M 35.5327,0.9603 L 35.5327,29.7706 L 36.4930,29.7706 L 36.4930,0.9603 L 35.5327,0.9603 Z" stroke-width="1px" stroke="#0792C9" fill="#0792C9"/>
        <path clip-path="url(#clip-1734575198)" d="M 36.4930,0.9603 L 36.4930,29.7706 L 37.4534,29.7706 L 37.4534,0.9603 L 36.4930,0.9603 Z" stroke-width="1px" stroke="#0793C9" fill="#0793C9"/>
        <path clip-path="url(#clip-1734575198)" d="M 37.4534,0.9603 L 37.4534,29.7706 L 38.4137,29.7706 L 38.4137,0.9603 L 37.4534,0.9603 Z" stroke-width="1px" stroke="#0795CA" fill="#0795CA"/>
        <path clip-path="url(#clip-1734575198)" d="M 38.4137,0.9603 L 38.4137,29.7706 L 39.3740,29.7706 L 39.3740,0.9603 L 38.4137,0.9603 Z" stroke-width="1px" stroke="#0696CB" fill="#0696CB"/>
        <path clip-path="url(#clip-1734575198)" d="M 39.3740,0.9603 L 39.3740,29.7706 L 40.3344,29.7706 L 40.3344,0.9603 L 39.3740,0.9603 Z" stroke-width="1px" stroke="#0698CC" fill="#0698CC"/>
        <path clip-path="url(#clip-1734575198)" d="M 40.3344,0.9603 L 40.3344,29.7706 L 41.2947,29.7706 L 41.2947,0.9603 L 40.3344,0.9603 Z" stroke-width="1px" stroke="#0699CD" fill="#0699CD"/>
        <path clip-path="url(#clip-1734575198)" d="M 41.2947,0.9603 L 41.2947,29.7706 L 42.2551,29.7706 L 42.2551,0.9603 L 41.2947,0.9603 Z" stroke-width="1px" stroke="#059BCD" fill="#059BCD"/>
        <path clip-path="url(#clip-1734575198)" d="M 42.2551,0.9603 L 42.2551,29.7706 L 43.2154,29.7706 L 43.2154,0.9603 L 42.2551,0.9603 Z" stroke-width="1px" stroke="#059CCE" fill="#059CCE"/>
        <path clip-path="url(#clip-1734575198)" d="M 43.2154,0.9603 L 43.2154,29.7706 L 44.1758,29.7706 L 44.1758,0.9603 L 43.2154,0.9603 Z" stroke-width="1px" stroke="#059ECE" fill="#059ECE"/>
        <path clip-path="url(#clip-1734575198)" d="M 44.1758,0.9603 L 44.1758,29.7706 L 45.1361,29.7706 L 45.1361,0.9603 L 44.1758,0.9603 Z" stroke-width="1px" stroke="#049FCF" fill="#049FCF"/>
        <path clip-path="url(#clip-1734575198)" d="M 45.1361,0.9603 L 45.1361,29.7706 L 46.0964,29.7706 L 46.0964,0.9603 L 45.1361,0.9603 Z" stroke-width="1px" stroke="#04A0D0" fill="#04A0D0"/>
        <path clip-path="url(#clip-1734575198)" d="M 46.0964,0.9603 L 46.0964,29.7706 L 47.0568,29.7706 L 47.0568,0.9603 L 46.0964,0.9603 Z" stroke-width="1px" stroke="#03A1D1" fill="#03A1D1"/>
        <path clip-path="url(#clip-1734575198)" d="M 47.0568,0.9603 L 47.0568,29.7706 L 48.0171,29.7706 L 48.0171,0.9603 L 47.0568,0.9603 Z" stroke-width="1px" stroke="#03A3D2" fill="#03A3D2"/>
        <path clip-path="url(#clip-1734575198)" d="M 48.0171,0.9603 L 48.0171,29.7706 L 48.9775,29.7706 L 48.9775,0.9603 L 48.0171,0.9603 Z" stroke-width="1px" stroke="#02A4D2" fill="#02A4D2"/>
        <path clip-path="url(#clip-1734575198)" d="M 48.9775,0.9603 L 48.9775,29.7706 L 49.9378,29.7706 L 49.9378,0.9603 L 48.9775,0.9603 Z" stroke-width="1px" stroke="#02A6D3" fill="#02A6D3"/>
        <path clip-path="url(#clip-1734575198)" d="M 49.9378,0.9603 L 49.9378,29.7706 L 50.8981,29.7706 L 50.8981,0.9603 L 49.9378,0.9603 Z" stroke-width="1px" stroke="#02A7D4" fill="#02A7D4"/>
        <path clip-path="url(#clip-1734575198)" d="M 50.8981,0.9603 L 50.8981,29.7706 L 51.8585,29.7706 L 51.8585,0.9603 L 50.8981,0.9603 Z" stroke-width="1px" stroke="#01A9D5" fill="#01A9D5"/>
        <path clip-path="url(#clip-1734575198)" d="M 51.8585,0.9603 L 51.8585,29.7706 L 52.8188,29.7706 L 52.8188,0.9603 L 51.8585,0.9603 Z" stroke-width="1px" stroke="#01AAD5" fill="#01AAD5"/>
        <path clip-path="url(#clip-1734575198)" d="M 52.8188,0.9603 L 52.8188,29.7706 L 53.7792,29.7706 L 53.7792,0.9603 L 52.8188,0.9603 Z" stroke-width="1px" stroke="#01ACD6" fill="#01ACD6"/>
        <path clip-path="url(#clip-1734575198)" d="M 53.7792,0.9603 L 53.7792,29.7706 L 54.7395,29.7706 L 54.7395,0.9603 L 53.7792,0.9603 Z" stroke-width="1px" stroke="#01ADD7" fill="#01ADD7"/>
        <path clip-path="url(#clip-1734575198)" d="M 54.7395,0.9603 L 54.7395,29.7706 L 55.6999,29.7706 L 55.6999,0.9603 L 54.7395,0.9603 Z" stroke-width="1px" stroke="#00AFD7" fill="#00AFD7"/>
        <g transform="matrix(0.0625 0.0000 0.0000 0.0625 0.0000 0.0000)">
          <path d="M 63.3826,241.0459 L 891.1978,241.0459 L 891.1978,18.2465 L 63.3826,18.2465 L 63.3826,241.0459 M 63.3826,470.5678 L 891.1978,470.5678 L 891.1978,246.8080 L 63.3826,246.8080 L 63.3826,470.5678 " stroke="#0054A6" stroke-width="9.6034" stroke-linecap="round" stroke-linejoin="round" fill="none"/>
        </g>
        <g transform="matrix(1.0000 0.0000 0.0000 1.0000 0.0000 0.0000)">
          <path d="M 15.3655,2.8810 C 6.7224,3.8414 6.7224,3.8414 6.7224,3.8414 L 6.7224,12.4845 C 6.7224,13.4448 6.7224,13.4448 15.3655,13.4448 C 20.1672,13.4448 25.9292,14.4051 29.7706,14.4051 C 34.5723,14.4051 40.3344,13.4448 45.1361,13.4448 C 53.7792,13.4448 53.7792,13.4448 53.7792,12.4845 L 53.7792,3.8414 C 53.7792,3.8414 53.7792,3.8414 45.1361,2.8810 C 40.3344,2.8810 34.5723,2.8810 29.7706,2.8810 C 25.9292,2.8810 20.1672,2.8810 15.3655,2.8810 Z " fill="none" stroke="none"/>
          <defs>
            <clipPath id="clip-1973594324">
              <path d="M 15.3655,2.8810 C 6.7224,3.8414 6.7224,3.8414 6.7224,3.8414 L 6.7224,12.4845 C 6.7224,13.4448 6.7224,13.4448 15.3655,13.4448 C 20.1672,13.4448 25.9292,14.4051 29.7706,14.4051 C 34.5723,14.4051 40.3344,13.4448 45.1361,13.4448 C 53.7792,13.4448 53.7792,13.4448 53.7792,12.4845 L 53.7792,3.8414 C 53.7792,3.8414 53.7792,3.8414 45.1361,2.8810 C 40.3344,2.8810 34.5723,2.8810 29.7706,2.8810 C 25.9292,2.8810 20.1672,2.8810 15.3655,2.8810 Z"/>
            </clipPath>
          </defs>
          <path clip-path="url(#clip-1973594324)" d="M 5.7621,1.9207 L 5.7621,2.8810 L 53.7792,2.8810 L 53.7792,1.9207 L 5.7621,1.9207 Z" stroke-width="1px" stroke="#B5DFEF" fill="#B5DFEF"/>
          <path clip-path="url(#clip-1973594324)" d="M 5.7621,2.8810 L 5.7621,3.8414 L 53.7792,3.8414 L 53.7792,2.8810 L 5.7621,2.8810 Z" stroke-width="1px" stroke="#B3DEEE" fill="#B3DEEE"/>
          <path clip-path="url(#clip-1973594324)" d="M 5.7621,3.8414 L 5.7621,4.8017 L 53.7792,4.8017 L 53.7792,3.8414 L 5.7621,3.8414 Z" stroke-width="1px" stroke="#C2E4F2" fill="#C2E4F2"/>
          <path clip-path="url(#clip-1973594324)" d="M 5.7621,4.8017 L 5.7621,5.7621 L 53.7792,5.7621 L 53.7792,4.8017 L 5.7621,4.8017 Z" stroke-width="1px" stroke="#D0EAF5" fill="#D0EAF5"/>
          <path clip-path="url(#clip-1973594324)" d="M 5.7621,5.7621 L 5.7621,6.7224 L 53.7792,6.7224 L 53.7792,5.7621 L 5.7621,5.7621 Z" stroke-width="1px" stroke="#DDF1F7" fill="#DDF1F7"/>
          <path clip-path="url(#clip-1973594324)" d="M 5.7621,6.7224 L 5.7621,7.6827 L 53.7792,7.6827 L 53.7792,6.7224 L 5.7621,6.7224 Z" stroke-width="1px" stroke="#ECF7FB" fill="#ECF7FB"/>
          <path clip-path="url(#clip-1973594324)" d="M 5.7621,7.6827 L 5.7621,8.6431 L 53.7792,8.6431 L 53.7792,7.6827 L 5.7621,7.6827 Z" stroke-width="1px" stroke="#FAFDFE" fill="#FAFDFE"/>
          <path clip-path="url(#clip-1973594324)" d="M 5.7621,8.6431 L 5.7621,9.6034 L 53.7792,9.6034 L 53.7792,8.6431 L 5.7621,8.6431 Z" stroke-width="1px" stroke="#F6FBFD" fill="#F6FBFD"/>
          <path clip-path="url(#clip-1973594324)" d="M 5.7621,9.6034 L 5.7621,10.5638 L 53.7792,10.5638 L 53.7792,9.6034 L 5.7621,9.6034 Z" stroke-width="1px" stroke="#E8F5FA" fill="#E8F5FA"/>
          <path clip-path="url(#clip-1973594324)" d="M 5.7621,10.5638 L 5.7621,11.5241 L 53.7792,11.5241 L 53.7792,10.5638 L 5.7621,10.5638 Z" stroke-width="1px" stroke="#DAEFF7" fill="#DAEFF7"/>
          <path clip-path="url(#clip-1973594324)" d="M 5.7621,11.5241 L 5.7621,12.4845 L 53.7792,12.4845 L 53.7792,11.5241 L 5.7621,11.5241 Z" stroke-width="1px" stroke="#CCE9F4" fill="#CCE9F4"/>
          <path clip-path="url(#clip-1973594324)" d="M 5.7621,12.4845 L 5.7621,13.4448 L 53.7792,13.4448 L 53.7792,12.4845 L 5.7621,12.4845 Z" stroke-width="1px" stroke="#BEE2F1" fill="#BEE2F1"/>
        </g>
        <g transform="matrix(0.0625 0.0000 0.0000 0.0625 0.0000 0.0000)">
          <path d="M 236.2442,45.1361 C 93.1532,50.8981 93.1532,53.7792 93.1532,61.4619 L 93.1532,196.8702 C 93.1532,204.5529 93.1532,207.4340 236.2442,213.1960 C 319.7940,216.0770 411.0266,217.9977 475.3695,217.9977 C 539.7124,217.9977 630.9450,216.0770 714.4948,213.1960 C 857.5858,207.4340 857.5858,204.5529 857.5858,196.8702 L 857.5858,61.4619 C 857.5858,53.7792 857.5858,50.8981 714.4948,45.1361 C 630.9450,42.2551 539.7124,39.3740 475.3695,39.3740 C 411.0266,39.3740 319.7940,42.2551 236.2442,45.1361 " stroke="#ADDBED" stroke-width="0.9603" stroke-linecap="butt" stroke-linejoin="round" fill="none"/>
        </g>
        <g transform="matrix(1.0000 0.0000 0.0000 1.0000 0.0000 0.0000)">
          <path d="M 15.3655,17.2862 C 6.7224,18.2465 6.7224,18.2465 6.7224,18.2465 L 6.7224,26.8896 C 6.7224,27.8499 6.7224,27.8499 15.3655,27.8499 C 20.1672,27.8499 25.9292,28.8103 29.7706,28.8103 C 34.5723,28.8103 40.3344,27.8499 45.1361,27.8499 C 53.7792,27.8499 53.7792,27.8499 53.7792,26.8896 L 53.7792,18.2465 C 53.7792,18.2465 53.7792,18.2465 45.1361,17.2862 C 40.3344,17.2862 34.5723,17.2862 29.7706,17.2862 C 25.9292,17.2862 20.1672,17.2862 15.3655,17.2862 Z " fill="none" stroke="none"/>
          <defs>
            <clipPath id="clip-149798315">
              <path d="M 15.3655,17.2862 C 6.7224,18.2465 6.7224,18.2465 6.7224,18.2465 L 6.7224,26.8896 C 6.7224,27.8499 6.7224,27.8499 15.3655,27.8499 C 20.1672,27.8499 25.9292,28.8103 29.7706,28.8103 C 34.5723,28.8103 40.3344,27.8499 45.1361,27.8499 C 53.7792,27.8499 53.7792,27.8499 53.7792,26.8896 L 53.7792,18.2465 C 53.7792,18.2465 53.7792,18.2465 45.1361,17.2862 C 40.3344,17.2862 34.5723,17.2862 29.7706,17.2862 C 25.9292,17.2862 20.1672,17.2862 15.3655,17.2862 Z"/>
            </clipPath>
          </defs>
          <path clip-path="url(#clip-149798315)" d="M 5.7621,16.3258 L 5.7621,17.2862 L 53.7792,17.2862 L 53.7792,16.3258 L 5.7621,16.3258 Z" stroke-width="1px" stroke="#B3DEEE" fill="#B3DEEE"/>
          <path clip-path="url(#clip-149798315)" d="M 5.7621,17.2862 L 5.7621,18.2465 L 53.7792,18.2465 L 53.7792,17.2862 L 5.7621,17.2862 Z" stroke-width="1px" stroke="#B5DFEF" fill="#B5DFEF"/>
          <path clip-path="url(#clip-149798315)" d="M 5.7621,18.2465 L 5.7621,19.2068 L 53.7792,19.2068 L 53.7792,18.2465 L 5.7621,18.2465 Z" stroke-width="1px" stroke="#C3E5F2" fill="#C3E5F2"/>
          <path clip-path="url(#clip-149798315)" d="M 5.7621,19.2068 L 5.7621,20.1672 L 53.7792,20.1672 L 53.7792,19.2068 L 5.7621,19.2068 Z" stroke-width="1px" stroke="#D1EBF5" fill="#D1EBF5"/>
          <path clip-path="url(#clip-149798315)" d="M 5.7621,20.1672 L 5.7621,21.1275 L 53.7792,21.1275 L 53.7792,20.1672 L 5.7621,20.1672 Z" stroke-width="1px" stroke="#DFF1F8" fill="#DFF1F8"/>
          <path clip-path="url(#clip-149798315)" d="M 5.7621,21.1275 L 5.7621,22.0879 L 53.7792,22.0879 L 53.7792,21.1275 L 5.7621,21.1275 Z" stroke-width="1px" stroke="#EEF7FC" fill="#EEF7FC"/>
          <path clip-path="url(#clip-149798315)" d="M 5.7621,22.0879 L 5.7621,23.0482 L 53.7792,23.0482 L 53.7792,22.0879 L 5.7621,22.0879 Z" stroke-width="1px" stroke="#FBFEFE" fill="#FBFEFE"/>
          <path clip-path="url(#clip-149798315)" d="M 5.7621,23.0482 L 5.7621,24.0086 L 53.7792,24.0086 L 53.7792,23.0482 L 5.7621,23.0482 Z" stroke-width="1px" stroke="#F5FBFD" fill="#F5FBFD"/>
          <path clip-path="url(#clip-149798315)" d="M 5.7621,24.0086 L 5.7621,24.9689 L 53.7792,24.9689 L 53.7792,24.0086 L 5.7621,24.0086 Z" stroke-width="1px" stroke="#E7F4FA" fill="#E7F4FA"/>
          <path clip-path="url(#clip-149798315)" d="M 5.7621,24.9689 L 5.7621,25.9292 L 53.7792,25.9292 L 53.7792,24.9689 L 5.7621,24.9689 Z" stroke-width="1px" stroke="#D8EEF6" fill="#D8EEF6"/>
          <path clip-path="url(#clip-149798315)" d="M 5.7621,25.9292 L 5.7621,26.8896 L 53.7792,26.8896 L 53.7792,25.9292 L 5.7621,25.9292 Z" stroke-width="1px" stroke="#CAE8F4" fill="#CAE8F4"/>
          <path clip-path="url(#clip-149798315)" d="M 5.7621,26.8896 L 5.7621,27.8499 L 53.7792,27.8499 L 53.7792,26.8896 L 5.7621,26.8896 Z" stroke-width="1px" stroke="#BCE2F0" fill="#BCE2F0"/>
        </g>
        <g transform="matrix(0.0625 0.0000 0.0000 0.0625 0.0000 0.0000)">
          <path d="M 236.2442,273.6976 C 93.1532,279.4596 93.1532,282.3407 93.1532,290.0234 L 93.1532,425.4317 C 93.1532,433.1144 93.1532,435.9955 236.2442,441.7575 C 319.7940,444.6385 411.0266,446.5592 475.3695,446.5592 C 539.7124,446.5592 630.9450,444.6385 714.4948,441.7575 C 857.5858,435.9955 857.5858,433.1144 857.5858,425.4317 L 857.5858,290.0234 C 857.5858,282.3407 857.5858,279.4596 714.4948,273.6976 C 630.9450,270.8166 539.7124,268.8959 475.3695,268.8959 C 411.0266,268.8959 319.7940,270.8166 236.2442,273.6976 " stroke="#ADDBED" stroke-width="0.9603" stroke-linecap="butt" stroke-linejoin="round" fill="none"/>
        </g>
        <g transform="matrix(1.0000 0.0000 0.0000 1.0000 0.0000 0.0000)">
</g>
        <g transform="matrix(0.0625 0.0000 0.0000 0.0625 0.0000 0.0000)">
          <path d="M 315.9527,127.7255 C 315.9527,92.1929 323.6354,56.6602 333.2388,56.6602 L 344.7629,56.6602 C 349.5646,56.6602 352.4457,60.5016 352.4457,66.2636 L 352.4457,190.1478 C 352.4457,194.9495 349.5646,198.7909 344.7629,198.7909 L 333.2388,198.7909 C 323.6354,198.7909 315.9527,163.2582 315.9527,127.7255 Z M 419.6696,192.0685 C 419.6696,196.8702 415.8283,200.7116 411.0266,200.7116 L 399.5024,200.7116 C 389.8990,200.7116 382.2163,164.2186 382.2163,127.7255 C 382.2163,91.2325 389.8990,54.7395 399.5024,54.7395 L 411.0266,54.7395 C 415.8283,54.7395 419.6696,59.5412 419.6696,64.3429 L 419.6696,192.0685 Z M 152.6944,185.3461 C 152.6944,189.1875 148.8531,193.0288 145.0117,193.0288 L 133.4876,193.0288 C 124.8445,193.0288 118.1221,160.3772 118.1221,127.7255 C 118.1221,95.0739 124.8445,62.4223 133.4876,62.4223 L 145.0117,62.4223 C 148.8531,62.4223 152.6944,66.2636 152.6944,71.0653 L 152.6944,185.3461 Z M 184.3857,127.7255 C 184.3857,94.1136 191.1081,60.5016 199.7512,60.5016 L 211.2753,60.5016 C 216.0770,60.5016 218.9581,64.3429 218.9581,69.1447 L 218.9581,186.3064 C 218.9581,191.1081 216.0770,194.9495 211.2753,194.9495 L 199.7512,194.9495 C 191.1081,194.9495 184.3857,161.3375 184.3857,127.7255 Z M 250.6494,127.7255 C 250.6494,93.1532 257.3718,58.5809 266.9752,58.5809 L 277.5390,58.5809 C 282.3407,58.5809 286.1820,62.4223 286.1820,67.2240 L 286.1820,188.2271 C 286.1820,193.0288 282.3407,196.8702 277.5390,196.8702 L 266.9752,196.8702 C 257.3718,196.8702 250.6494,162.2979 250.6494,127.7255 Z M 701.0500,127.7255 C 701.0500,93.1532 694.3276,58.5809 684.7241,58.5809 L 673.2000,58.5809 C 668.3983,58.5809 664.5570,62.4223 664.5570,67.2240 L 664.5570,188.2271 C 664.5570,193.0288 668.3983,196.8702 673.2000,196.8702 L 684.7241,196.8702 C 694.3276,196.8702 701.0500,162.2979 701.0500,127.7255 Z M 766.3533,127.7255 C 766.3533,94.1136 760.5912,60.5016 750.9878,60.5016 L 739.4637,60.5016 C 734.6620,60.5016 731.7809,64.3429 731.7809,69.1447 L 731.7809,186.3064 C 731.7809,191.1081 734.6620,194.9495 739.4637,194.9495 L 750.9878,194.9495 C 760.5912,194.9495 766.3533,161.3375 766.3533,127.7255 Z M 798.0446,185.3461 C 798.0446,189.1875 801.8859,193.0288 805.7273,193.0288 L 817.2514,193.0288 C 825.8945,193.0288 832.6169,160.3772 832.6169,127.7255 C 832.6169,95.0739 825.8945,62.4223 817.2514,62.4223 L 805.7273,62.4223 C 801.8859,62.4223 798.0446,66.2636 798.0446,71.0653 L 798.0446,185.3461 Z M 315.9527,357.2474 C 315.9527,321.7147 323.6354,286.1820 333.2388,286.1820 L 344.7629,286.1820 C 349.5646,286.1820 352.4457,290.0234 352.4457,294.8251 L 352.4457,418.7093 C 352.4457,423.5110 349.5646,428.3127 344.7629,428.3127 L 333.2388,428.3127 C 323.6354,428.3127 315.9527,392.7801 315.9527,357.2474 Z M 419.6696,420.6300 C 419.6696,425.4317 415.8283,430.2334 411.0266,430.2334 L 399.5024,430.2334 C 389.8990,430.2334 382.2163,393.7404 382.2163,357.2474 C 382.2163,320.7544 389.8990,284.2614 399.5024,284.2614 L 411.0266,284.2614 C 415.8283,284.2614 419.6696,288.1027 419.6696,292.9044 L 419.6696,420.6300 Z M 152.6944,413.9076 C 152.6944,418.7093 148.8531,421.5903 145.0117,421.5903 L 133.4876,421.5903 C 124.8445,421.5903 118.1221,388.9387 118.1221,356.2870 C 118.1221,323.6354 124.8445,290.9838 133.4876,290.9838 L 145.0117,290.9838 C 148.8531,290.9838 152.6944,294.8251 152.6944,299.6268 L 152.6944,413.9076 Z M 184.3857,356.2870 C 184.3857,322.6751 191.1081,289.0631 199.7512,289.0631 L 211.2753,289.0631 C 216.0770,289.0631 218.9581,292.9044 218.9581,297.7062 L 218.9581,415.8283 C 218.9581,420.6300 216.0770,423.5110 211.2753,423.5110 L 199.7512,423.5110 C 191.1081,423.5110 184.3857,389.8990 184.3857,356.2870 Z M 250.6494,357.2474 C 250.6494,322.6751 257.3718,288.1027 266.9752,288.1027 L 277.5390,288.1027 C 282.3407,288.1027 286.1820,291.9441 286.1820,296.7458 L 286.1820,417.7490 C 286.1820,422.5507 282.3407,426.3920 277.5390,426.3920 L 266.9752,426.3920 C 257.3718,426.3920 250.6494,391.8197 250.6494,357.2474 Z M 701.0500,357.2474 C 701.0500,322.6751 694.3276,288.1027 684.7241,288.1027 L 673.2000,288.1027 C 668.3983,288.1027 664.5570,291.9441 664.5570,296.7458 L 664.5570,417.7490 C 664.5570,422.5507 668.3983,426.3920 673.2000,426.3920 L 684.7241,426.3920 C 694.3276,426.3920 701.0500,391.8197 701.0500,357.2474 Z M 766.3533,356.2870 C 766.3533,322.6751 760.5912,289.0631 750.9878,289.0631 L 739.4637,289.0631 C 734.6620,289.0631 731.7809,292.9044 731.7809,297.7062 L 731.7809,415.8283 C 731.7809,420.6300 734.6620,423.5110 739.4637,423.5110 L 750.9878,423.5110 C 760.5912,423.5110 766.3533,389.8990 766.3533,356.2870 Z M 798.0446,413.9076 C 798.0446,418.7093 801.8859,421.5903 805.7273,421.5903 L 817.2514,421.5903 C 825.8945,421.5903 832.6169,388.9387 832.6169,356.2870 C 832.6169,323.6354 825.8945,290.9838 817.2514,290.9838 L 805.7273,290.9838 C 801.8859,290.9838 798.0446,294.8251 798.0446,299.6268 L 798.0446,413.9076 Z M 469.6074,134.4479 L 469.6074,166.1392 C 469.6074,172.8616 475.3695,178.6237 481.1316,178.6237 L 603.0950,178.6237 C 608.8571,178.6237 614.6192,172.8616 614.6192,166.1392 L 614.6192,134.4479 L 469.6074,134.4479 Z M 469.6074,363.9698 L 469.6074,395.6611 C 469.6074,401.4231 475.3695,407.1852 481.1316,407.1852 L 603.0950,407.1852 C 608.8571,407.1852 614.6192,401.4231 614.6192,395.6611 L 614.6192,363.9698 L 469.6074,363.9698 Z " fill="#0054A6" stroke="none"/>
        </g>
        <g transform="matrix(1.0000 0.0000 0.0000 1.0000 0.0000 0.0000)">
</g>
        <g transform="matrix(0.0625 0.0000 0.0000 0.0625 0.0000 0.0000)">
          <path d="M 469.6074,363.9698 L 614.6192,363.9698 L 614.6192,339.9612 L 469.6074,339.9612 L 469.6074,363.9698 Z M 469.6074,135.4083 L 614.6192,135.4083 L 614.6192,111.3997 L 469.6074,111.3997 L 469.6074,135.4083 Z " fill="#8DC63F" stroke-width="1px" stroke="#8DC63F"/>
        </g>
        <g transform="matrix(1.0000 0.0000 0.0000 1.0000 0.0000 0.0000)">
          <path d="M 4.8017,16.3258 L 1.9207,16.3258 L 1.9207,27.8499 L 4.8017,29.7706 L 4.8017,16.3258 " fill="none" stroke="none"/>
          <defs>
            <clipPath id="clip-2038664370">
              <path d="M 4.8017,16.3258 L 1.9207,16.3258 L 1.9207,27.8499 L 4.8017,29.7706 L 4.8017,16.3258 Z"/>
            </clipPath>
          </defs>
          <path clip-path="url(#clip-2038664370)" d="M 0.9603,15.3655 L 0.9603,16.3258 L 3.8414,16.3258 L 3.8414,15.3655 L 0.9603,15.3655 Z" stroke-width="1px" stroke="#56BCEB" fill="#56BCEB"/>
          <path clip-path="url(#clip-2038664370)" d="M 0.9603,16.3258 L 0.9603,17.2862 L 3.8414,17.2862 L 3.8414,16.3258 L 0.9603,16.3258 Z" stroke-width="1px" stroke="#057BC3" fill="#057BC3"/>
          <path clip-path="url(#clip-2038664370)" d="M 0.9603,17.2862 L 0.9603,18.2465 L 3.8414,18.2465 L 3.8414,17.2862 L 0.9603,17.2862 Z" stroke-width="1px" stroke="#0C81C5" fill="#0C81C5"/>
          <path clip-path="url(#clip-2038664370)" d="M 0.9603,18.2465 L 0.9603,19.2068 L 3.8414,19.2068 L 3.8414,18.2465 L 0.9603,18.2465 Z" stroke-width="1px" stroke="#1285C9" fill="#1285C9"/>
          <path clip-path="url(#clip-2038664370)" d="M 0.9603,19.2068 L 0.9603,20.1672 L 3.8414,20.1672 L 3.8414,19.2068 L 0.9603,19.2068 Z" stroke-width="1px" stroke="#188ACC" fill="#188ACC"/>
          <path clip-path="url(#clip-2038664370)" d="M 0.9603,20.1672 L 0.9603,21.1275 L 3.8414,21.1275 L 3.8414,20.1672 L 0.9603,20.1672 Z" stroke-width="1px" stroke="#1D8FCE" fill="#1D8FCE"/>
          <path clip-path="url(#clip-2038664370)" d="M 0.9603,21.1275 L 0.9603,22.0879 L 3.8414,22.0879 L 3.8414,21.1275 L 0.9603,21.1275 Z" stroke-width="1px" stroke="#2393D2" fill="#2393D2"/>
          <path clip-path="url(#clip-2038664370)" d="M 0.9603,22.0879 L 0.9603,23.0482 L 3.8414,23.0482 L 3.8414,22.0879 L 0.9603,22.0879 Z" stroke-width="1px" stroke="#2998D5" fill="#2998D5"/>
          <path clip-path="url(#clip-2038664370)" d="M 0.9603,23.0482 L 0.9603,24.0086 L 3.8414,24.0086 L 3.8414,23.0482 L 0.9603,23.0482 Z" stroke-width="1px" stroke="#2F9DD8" fill="#2F9DD8"/>
          <path clip-path="url(#clip-2038664370)" d="M 0.9603,24.0086 L 0.9603,24.9689 L 3.8414,24.9689 L 3.8414,24.0086 L 0.9603,24.0086 Z" stroke-width="1px" stroke="#35A1DB" fill="#35A1DB"/>
          <path clip-path="url(#clip-2038664370)" d="M 0.9603,24.9689 L 0.9603,25.9292 L 3.8414,25.9292 L 3.8414,24.9689 L 0.9603,24.9689 Z" stroke-width="1px" stroke="#3BA6DE" fill="#3BA6DE"/>
          <path clip-path="url(#clip-2038664370)" d="M 0.9603,25.9292 L 0.9603,26.8896 L 3.8414,26.8896 L 3.8414,25.9292 L 0.9603,25.9292 Z" stroke-width="1px" stroke="#41ABE0" fill="#41ABE0"/>
          <path clip-path="url(#clip-2038664370)" d="M 0.9603,26.8896 L 0.9603,27.8499 L 3.8414,27.8499 L 3.8414,26.8896 L 0.9603,26.8896 Z" stroke-width="1px" stroke="#47B0E4" fill="#47B0E4"/>
          <path clip-path="url(#clip-2038664370)" d="M 0.9603,27.8499 L 0.9603,28.8103 L 3.8414,28.8103 L 3.8414,27.8499 L 0.9603,27.8499 Z" stroke-width="1px" stroke="#4DB4E7" fill="#4DB4E7"/>
          <path clip-path="url(#clip-2038664370)" d="M 0.9603,28.8103 L 0.9603,29.7706 L 3.8414,29.7706 L 3.8414,28.8103 L 0.9603,28.8103 Z" stroke-width="1px" stroke="#53B9E9" fill="#53B9E9"/>
        </g>
        <g transform="matrix(0.0625 0.0000 0.0000 0.0625 0.0000 0.0000)">
          <path d="M 63.3826,246.8080 L 18.2465,246.8080 L 18.2465,444.6385 L 63.3826,470.5678 L 63.3826,246.8080 " stroke="#0054A6" stroke-width="9.6034" stroke-linecap="round" stroke-linejoin="round" fill="none"/>
        </g>
        <g transform="matrix(1.0000 0.0000 0.0000 1.0000 0.0000 0.0000)">
          <path d="M 4.8017,1.9207 L 1.9207,2.8810 L 1.9207,15.3655 L 4.8017,15.3655 L 4.8017,1.9207 " fill="none" stroke="none"/>
          <defs>
            <clipPath id="clip-1129566413">
              <path d="M 4.8017,1.9207 L 1.9207,2.8810 L 1.9207,15.3655 L 4.8017,15.3655 L 4.8017,1.9207 Z"/>
            </clipPath>
          </defs>
          <path clip-path="url(#clip-1129566413)" d="M 0.9603,0.9603 L 0.9603,1.9207 L 3.8414,1.9207 L 3.8414,0.9603 L 0.9603,0.9603 Z" stroke-width="1px" stroke="#55BBEA" fill="#55BBEA"/>
          <path clip-path="url(#clip-1129566413)" d="M 0.9603,1.9207 L 0.9603,2.8810 L 3.8414,2.8810 L 3.8414,1.9207 L 0.9603,1.9207 Z" stroke-width="1px" stroke="#057BC3" fill="#057BC3"/>
          <path clip-path="url(#clip-1129566413)" d="M 0.9603,2.8810 L 0.9603,3.8414 L 3.8414,3.8414 L 3.8414,2.8810 L 0.9603,2.8810 Z" stroke-width="1px" stroke="#0B80C5" fill="#0B80C5"/>
          <path clip-path="url(#clip-1129566413)" d="M 0.9603,3.8414 L 0.9603,4.8017 L 3.8414,4.8017 L 3.8414,3.8414 L 0.9603,3.8414 Z" stroke-width="1px" stroke="#1185C8" fill="#1185C8"/>
          <path clip-path="url(#clip-1129566413)" d="M 0.9603,4.8017 L 0.9603,5.7621 L 3.8414,5.7621 L 3.8414,4.8017 L 0.9603,4.8017 Z" stroke-width="1px" stroke="#1789CB" fill="#1789CB"/>
          <path clip-path="url(#clip-1129566413)" d="M 0.9603,5.7621 L 0.9603,6.7224 L 3.8414,6.7224 L 3.8414,5.7621 L 0.9603,5.7621 Z" stroke-width="1px" stroke="#1D8ECE" fill="#1D8ECE"/>
          <path clip-path="url(#clip-1129566413)" d="M 0.9603,6.7224 L 0.9603,7.6827 L 3.8414,7.6827 L 3.8414,6.7224 L 0.9603,6.7224 Z" stroke-width="1px" stroke="#2393D1" fill="#2393D1"/>
          <path clip-path="url(#clip-1129566413)" d="M 0.9603,7.6827 L 0.9603,8.6431 L 3.8414,8.6431 L 3.8414,7.6827 L 0.9603,7.6827 Z" stroke-width="1px" stroke="#2998D5" fill="#2998D5"/>
          <path clip-path="url(#clip-1129566413)" d="M 0.9603,8.6431 L 0.9603,9.6034 L 3.8414,9.6034 L 3.8414,8.6431 L 0.9603,8.6431 Z" stroke-width="1px" stroke="#2E9DD7" fill="#2E9DD7"/>
          <path clip-path="url(#clip-1129566413)" d="M 0.9603,9.6034 L 0.9603,10.5638 L 3.8414,10.5638 L 3.8414,9.6034 L 0.9603,9.6034 Z" stroke-width="1px" stroke="#34A1DA" fill="#34A1DA"/>
          <path clip-path="url(#clip-1129566413)" d="M 0.9603,10.5638 L 0.9603,11.5241 L 3.8414,11.5241 L 3.8414,10.5638 L 0.9603,10.5638 Z" stroke-width="1px" stroke="#3AA5DE" fill="#3AA5DE"/>
          <path clip-path="url(#clip-1129566413)" d="M 0.9603,11.5241 L 0.9603,12.4845 L 3.8414,12.4845 L 3.8414,11.5241 L 0.9603,11.5241 Z" stroke-width="1px" stroke="#41ABE0" fill="#41ABE0"/>
          <path clip-path="url(#clip-1129566413)" d="M 0.9603,12.4845 L 0.9603,13.4448 L 3.8414,13.4448 L 3.8414,12.4845 L 0.9603,12.4845 Z" stroke-width="1px" stroke="#46AFE3" fill="#46AFE3"/>
          <path clip-path="url(#clip-1129566413)" d="M 0.9603,13.4448 L 0.9603,14.4051 L 3.8414,14.4051 L 3.8414,13.4448 L 0.9603,13.4448 Z" stroke-width="1px" stroke="#4CB4E6" fill="#4CB4E6"/>
          <path clip-path="url(#clip-1129566413)" d="M 0.9603,14.4051 L 0.9603,15.3655 L 3.8414,15.3655 L 3.8414,14.4051 L 0.9603,14.4051 Z" stroke-width="1px" stroke="#52B9E9" fill="#52B9E9"/>
        </g>
        <g transform="matrix(0.0625 0.0000 0.0000 0.0625 0.0000 0.0000)">
          <path d="M 63.3826,18.2465 L 18.2465,44.1758 L 18.2465,241.0459 L 63.3826,241.0459 L 63.3826,18.2465 " stroke="#0054A6" stroke-width="9.6034" stroke-linecap="round" stroke-linejoin="round" fill="none"/>
        </g>
        <g transform="matrix(1.0000 0.0000 0.0000 1.0000 0.0000 0.0000)">
</g>
      </g>
      <!--emf-blob end-->
    </g>
  </g>
</svg>
