<svg xmlns="http://www.w3.org/2000/svg" xmlns:xlink="http://www.w3.org/1999/xlink" version="1.1" width="56.6929000000" height="14.5134000000">
  <title><![CDATA[FAS3000]]></title>
  <g transform=" scale(1.000000) ">
    <!--converted by libvisio2svg-->
    <g transform=" translate(-1.247900,-1.131300) ">
      <!--emf-blob start-->
      <g transform="translate(0.9339, 0.9339)">
        <path d="M 1.8677,2.8016 L 1.8677,13.0740 L 4.6693,14.9417 L 4.6693,1.8677 L 1.8677,2.8016 " fill="none" stroke="none"/>
        <defs>
          <clipPath id="clip-1914544919">
            <path d="M 1.8677,2.8016 L 1.8677,13.0740 L 4.6693,14.9417 L 4.6693,1.8677 L 1.8677,2.8016 Z"/>
          </clipPath>
        </defs>
        <path clip-path="url(#clip-1914544919)" d="M 0.9339,0.9339 L 0.9339,1.8677 L 3.7354,1.8677 L 3.7354,0.9339 L 0.9339,0.9339 Z" stroke-width="1px" stroke="#55BBEA" fill="#55BBEA"/>
        <path clip-path="url(#clip-1914544919)" d="M 0.9339,1.8677 L 0.9339,2.8016 L 3.7354,2.8016 L 3.7354,1.8677 L 0.9339,1.8677 Z" stroke-width="1px" stroke="#057BC3" fill="#057BC3"/>
        <path clip-path="url(#clip-1914544919)" d="M 0.9339,2.8016 L 0.9339,3.7354 L 3.7354,3.7354 L 3.7354,2.8016 L 0.9339,2.8016 Z" stroke-width="1px" stroke="#0B80C5" fill="#0B80C5"/>
        <path clip-path="url(#clip-1914544919)" d="M 0.9339,3.7354 L 0.9339,4.6693 L 3.7354,4.6693 L 3.7354,3.7354 L 0.9339,3.7354 Z" stroke-width="1px" stroke="#1185C8" fill="#1185C8"/>
        <path clip-path="url(#clip-1914544919)" d="M 0.9339,4.6693 L 0.9339,5.6031 L 3.7354,5.6031 L 3.7354,4.6693 L 0.9339,4.6693 Z" stroke-width="1px" stroke="#1789CB" fill="#1789CB"/>
        <path clip-path="url(#clip-1914544919)" d="M 0.9339,5.6031 L 0.9339,6.5370 L 3.7354,6.5370 L 3.7354,5.6031 L 0.9339,5.6031 Z" stroke-width="1px" stroke="#1D8ECE" fill="#1D8ECE"/>
        <path clip-path="url(#clip-1914544919)" d="M 0.9339,6.5370 L 0.9339,7.4708 L 3.7354,7.4708 L 3.7354,6.5370 L 0.9339,6.5370 Z" stroke-width="1px" stroke="#2393D1" fill="#2393D1"/>
        <path clip-path="url(#clip-1914544919)" d="M 0.9339,7.4708 L 0.9339,8.4047 L 3.7354,8.4047 L 3.7354,7.4708 L 0.9339,7.4708 Z" stroke-width="1px" stroke="#2998D5" fill="#2998D5"/>
        <path clip-path="url(#clip-1914544919)" d="M 0.9339,8.4047 L 0.9339,9.3386 L 3.7354,9.3386 L 3.7354,8.4047 L 0.9339,8.4047 Z" stroke-width="1px" stroke="#2E9DD7" fill="#2E9DD7"/>
        <path clip-path="url(#clip-1914544919)" d="M 0.9339,9.3386 L 0.9339,10.2724 L 3.7354,10.2724 L 3.7354,9.3386 L 0.9339,9.3386 Z" stroke-width="1px" stroke="#34A1DA" fill="#34A1DA"/>
        <path clip-path="url(#clip-1914544919)" d="M 0.9339,10.2724 L 0.9339,11.2063 L 3.7354,11.2063 L 3.7354,10.2724 L 0.9339,10.2724 Z" stroke-width="1px" stroke="#3AA5DE" fill="#3AA5DE"/>
        <path clip-path="url(#clip-1914544919)" d="M 0.9339,11.2063 L 0.9339,12.1401 L 3.7354,12.1401 L 3.7354,11.2063 L 0.9339,11.2063 Z" stroke-width="1px" stroke="#41ABE0" fill="#41ABE0"/>
        <path clip-path="url(#clip-1914544919)" d="M 0.9339,12.1401 L 0.9339,13.0740 L 3.7354,13.0740 L 3.7354,12.1401 L 0.9339,12.1401 Z" stroke-width="1px" stroke="#46AFE3" fill="#46AFE3"/>
        <path clip-path="url(#clip-1914544919)" d="M 0.9339,13.0740 L 0.9339,14.0078 L 3.7354,14.0078 L 3.7354,13.0740 L 0.9339,13.0740 Z" stroke-width="1px" stroke="#4CB4E6" fill="#4CB4E6"/>
        <path clip-path="url(#clip-1914544919)" d="M 0.9339,14.0078 L 0.9339,14.9417 L 3.7354,14.9417 L 3.7354,14.0078 L 0.9339,14.0078 Z" stroke-width="1px" stroke="#52B9E9" fill="#52B9E9"/>
        <g transform="matrix(0.0625 0.0000 0.0000 0.0625 0.0000 0.0000)">
          <path d="M 17.7433,42.9574 L 17.7433,209.1836 L 61.6345,234.3977 L 61.6345,17.7433 L 17.7433,42.9574 " stroke="#0054A6" stroke-width="9.3386" stroke-linecap="round" stroke-linejoin="round" fill="none"/>
        </g>
        <g transform="matrix(1.0000 0.0000 0.0000 1.0000 0.0000 0.0000)">
          <defs>
            <clipPath id="clip-608413784">
              <path d="M 4.6693,1.8677 L 54.1636,1.8677 L 54.1636,14.9417 L 4.6693,14.9417 L 4.6693,1.8677 Z Z"/>
            </clipPath>
          </defs>
          <path clip-path="url(#clip-608413784)" d="M 3.7354,0.9339 L 3.7354,14.9417 L 4.6693,14.9417 L 4.6693,0.9339 L 3.7354,0.9339 Z" stroke-width="1px" stroke="#00B0D8" fill="#00B0D8"/>
          <path clip-path="url(#clip-608413784)" d="M 4.6693,0.9339 L 4.6693,14.9417 L 5.6031,14.9417 L 5.6031,0.9339 L 4.6693,0.9339 Z" stroke-width="1px" stroke="#1263B2" fill="#1263B2"/>
          <path clip-path="url(#clip-608413784)" d="M 5.6031,0.9339 L 5.6031,14.9417 L 6.5370,14.9417 L 6.5370,0.9339 L 5.6031,0.9339 Z" stroke-width="1px" stroke="#1165B2" fill="#1165B2"/>
          <path clip-path="url(#clip-608413784)" d="M 6.5370,0.9339 L 6.5370,14.9417 L 7.4708,14.9417 L 7.4708,0.9339 L 6.5370,0.9339 Z" stroke-width="1px" stroke="#1166B3" fill="#1166B3"/>
          <path clip-path="url(#clip-608413784)" d="M 7.4708,0.9339 L 7.4708,14.9417 L 8.4047,14.9417 L 8.4047,0.9339 L 7.4708,0.9339 Z" stroke-width="1px" stroke="#1168B3" fill="#1168B3"/>
          <path clip-path="url(#clip-608413784)" d="M 8.4047,0.9339 L 8.4047,14.9417 L 9.3386,14.9417 L 9.3386,0.9339 L 8.4047,0.9339 Z" stroke-width="1px" stroke="#1169B4" fill="#1169B4"/>
          <path clip-path="url(#clip-608413784)" d="M 9.3386,0.9339 L 9.3386,14.9417 L 10.2724,14.9417 L 10.2724,0.9339 L 9.3386,0.9339 Z" stroke-width="1px" stroke="#106BB5" fill="#106BB5"/>
          <path clip-path="url(#clip-608413784)" d="M 10.2724,0.9339 L 10.2724,14.9417 L 11.2063,14.9417 L 11.2063,0.9339 L 10.2724,0.9339 Z" stroke-width="1px" stroke="#106CB6" fill="#106CB6"/>
          <path clip-path="url(#clip-608413784)" d="M 11.2063,0.9339 L 11.2063,14.9417 L 12.1401,14.9417 L 12.1401,0.9339 L 11.2063,0.9339 Z" stroke-width="1px" stroke="#106EB7" fill="#106EB7"/>
          <path clip-path="url(#clip-608413784)" d="M 12.1401,0.9339 L 12.1401,14.9417 L 13.0740,14.9417 L 13.0740,0.9339 L 12.1401,0.9339 Z" stroke-width="1px" stroke="#0F6FB7" fill="#0F6FB7"/>
          <path clip-path="url(#clip-608413784)" d="M 13.0740,0.9339 L 13.0740,14.9417 L 14.0078,14.9417 L 14.0078,0.9339 L 13.0740,0.9339 Z" stroke-width="1px" stroke="#0F71B8" fill="#0F71B8"/>
          <path clip-path="url(#clip-608413784)" d="M 14.0078,0.9339 L 14.0078,14.9417 L 14.9417,14.9417 L 14.9417,0.9339 L 14.0078,0.9339 Z" stroke-width="1px" stroke="#0F72B9" fill="#0F72B9"/>
          <path clip-path="url(#clip-608413784)" d="M 14.9417,0.9339 L 14.9417,14.9417 L 15.8755,14.9417 L 15.8755,0.9339 L 14.9417,0.9339 Z" stroke-width="1px" stroke="#0E74BA" fill="#0E74BA"/>
          <path clip-path="url(#clip-608413784)" d="M 15.8755,0.9339 L 15.8755,14.9417 L 16.8094,14.9417 L 16.8094,0.9339 L 15.8755,0.9339 Z" stroke-width="1px" stroke="#0E75BA" fill="#0E75BA"/>
          <path clip-path="url(#clip-608413784)" d="M 16.8094,0.9339 L 16.8094,14.9417 L 17.7433,14.9417 L 17.7433,0.9339 L 16.8094,0.9339 Z" stroke-width="1px" stroke="#0E77BB" fill="#0E77BB"/>
          <path clip-path="url(#clip-608413784)" d="M 17.7433,0.9339 L 17.7433,14.9417 L 18.6771,14.9417 L 18.6771,0.9339 L 17.7433,0.9339 Z" stroke-width="1px" stroke="#0D78BC" fill="#0D78BC"/>
          <path clip-path="url(#clip-608413784)" d="M 18.6771,0.9339 L 18.6771,14.9417 L 19.6110,14.9417 L 19.6110,0.9339 L 18.6771,0.9339 Z" stroke-width="1px" stroke="#0D79BC" fill="#0D79BC"/>
          <path clip-path="url(#clip-608413784)" d="M 19.6110,0.9339 L 19.6110,14.9417 L 20.5448,14.9417 L 20.5448,0.9339 L 19.6110,0.9339 Z" stroke-width="1px" stroke="#0C7ABD" fill="#0C7ABD"/>
          <path clip-path="url(#clip-608413784)" d="M 20.5448,0.9339 L 20.5448,14.9417 L 21.4787,14.9417 L 21.4787,0.9339 L 20.5448,0.9339 Z" stroke-width="1px" stroke="#0C7CBE" fill="#0C7CBE"/>
          <path clip-path="url(#clip-608413784)" d="M 21.4787,0.9339 L 21.4787,14.9417 L 22.4125,14.9417 L 22.4125,0.9339 L 21.4787,0.9339 Z" stroke-width="1px" stroke="#0B7DBF" fill="#0B7DBF"/>
          <path clip-path="url(#clip-608413784)" d="M 22.4125,0.9339 L 22.4125,14.9417 L 23.3464,14.9417 L 23.3464,0.9339 L 22.4125,0.9339 Z" stroke-width="1px" stroke="#0B7FC0" fill="#0B7FC0"/>
          <path clip-path="url(#clip-608413784)" d="M 23.3464,0.9339 L 23.3464,14.9417 L 24.2802,14.9417 L 24.2802,0.9339 L 23.3464,0.9339 Z" stroke-width="1px" stroke="#0B80C0" fill="#0B80C0"/>
          <path clip-path="url(#clip-608413784)" d="M 24.2802,0.9339 L 24.2802,14.9417 L 25.2141,14.9417 L 25.2141,0.9339 L 24.2802,0.9339 Z" stroke-width="1px" stroke="#0A82C1" fill="#0A82C1"/>
          <path clip-path="url(#clip-608413784)" d="M 25.2141,0.9339 L 25.2141,14.9417 L 26.1480,14.9417 L 26.1480,0.9339 L 25.2141,0.9339 Z" stroke-width="1px" stroke="#0A83C2" fill="#0A83C2"/>
          <path clip-path="url(#clip-608413784)" d="M 26.1480,0.9339 L 26.1480,14.9417 L 27.0818,14.9417 L 27.0818,0.9339 L 26.1480,0.9339 Z" stroke-width="1px" stroke="#0A84C2" fill="#0A84C2"/>
          <path clip-path="url(#clip-608413784)" d="M 27.0818,0.9339 L 27.0818,14.9417 L 28.0157,14.9417 L 28.0157,0.9339 L 27.0818,0.9339 Z" stroke-width="1px" stroke="#0A86C3" fill="#0A86C3"/>
          <path clip-path="url(#clip-608413784)" d="M 28.0157,0.9339 L 28.0157,14.9417 L 28.9495,14.9417 L 28.9495,0.9339 L 28.0157,0.9339 Z" stroke-width="1px" stroke="#0987C4" fill="#0987C4"/>
          <path clip-path="url(#clip-608413784)" d="M 28.9495,0.9339 L 28.9495,14.9417 L 29.8834,14.9417 L 29.8834,0.9339 L 28.9495,0.9339 Z" stroke-width="1px" stroke="#0989C5" fill="#0989C5"/>
          <path clip-path="url(#clip-608413784)" d="M 29.8834,0.9339 L 29.8834,14.9417 L 30.8172,14.9417 L 30.8172,0.9339 L 29.8834,0.9339 Z" stroke-width="1px" stroke="#098AC6" fill="#098AC6"/>
          <path clip-path="url(#clip-608413784)" d="M 30.8172,0.9339 L 30.8172,14.9417 L 31.7511,14.9417 L 31.7511,0.9339 L 30.8172,0.9339 Z" stroke-width="1px" stroke="#088CC6" fill="#088CC6"/>
          <path clip-path="url(#clip-608413784)" d="M 31.7511,0.9339 L 31.7511,14.9417 L 32.6849,14.9417 L 32.6849,0.9339 L 31.7511,0.9339 Z" stroke-width="1px" stroke="#088DC7" fill="#088DC7"/>
          <path clip-path="url(#clip-608413784)" d="M 32.6849,0.9339 L 32.6849,14.9417 L 33.6188,14.9417 L 33.6188,0.9339 L 32.6849,0.9339 Z" stroke-width="1px" stroke="#088FC7" fill="#088FC7"/>
          <path clip-path="url(#clip-608413784)" d="M 33.6188,0.9339 L 33.6188,14.9417 L 34.5527,14.9417 L 34.5527,0.9339 L 33.6188,0.9339 Z" stroke-width="1px" stroke="#0890C8" fill="#0890C8"/>
          <path clip-path="url(#clip-608413784)" d="M 34.5527,0.9339 L 34.5527,14.9417 L 35.4865,14.9417 L 35.4865,0.9339 L 34.5527,0.9339 Z" stroke-width="1px" stroke="#0792C9" fill="#0792C9"/>
          <path clip-path="url(#clip-608413784)" d="M 35.4865,0.9339 L 35.4865,14.9417 L 36.4204,14.9417 L 36.4204,0.9339 L 35.4865,0.9339 Z" stroke-width="1px" stroke="#0793C9" fill="#0793C9"/>
          <path clip-path="url(#clip-608413784)" d="M 36.4204,0.9339 L 36.4204,14.9417 L 37.3542,14.9417 L 37.3542,0.9339 L 36.4204,0.9339 Z" stroke-width="1px" stroke="#0795CA" fill="#0795CA"/>
          <path clip-path="url(#clip-608413784)" d="M 37.3542,0.9339 L 37.3542,14.9417 L 38.2881,14.9417 L 38.2881,0.9339 L 37.3542,0.9339 Z" stroke-width="1px" stroke="#0696CB" fill="#0696CB"/>
          <path clip-path="url(#clip-608413784)" d="M 38.2881,0.9339 L 38.2881,14.9417 L 39.2219,14.9417 L 39.2219,0.9339 L 38.2881,0.9339 Z" stroke-width="1px" stroke="#0698CC" fill="#0698CC"/>
          <path clip-path="url(#clip-608413784)" d="M 39.2219,0.9339 L 39.2219,14.9417 L 40.1558,14.9417 L 40.1558,0.9339 L 39.2219,0.9339 Z" stroke-width="1px" stroke="#0699CD" fill="#0699CD"/>
          <path clip-path="url(#clip-608413784)" d="M 40.1558,0.9339 L 40.1558,14.9417 L 41.0896,14.9417 L 41.0896,0.9339 L 40.1558,0.9339 Z" stroke-width="1px" stroke="#059BCD" fill="#059BCD"/>
          <path clip-path="url(#clip-608413784)" d="M 41.0896,0.9339 L 41.0896,14.9417 L 42.0235,14.9417 L 42.0235,0.9339 L 41.0896,0.9339 Z" stroke-width="1px" stroke="#059CCE" fill="#059CCE"/>
          <path clip-path="url(#clip-608413784)" d="M 42.0235,0.9339 L 42.0235,14.9417 L 42.9574,14.9417 L 42.9574,0.9339 L 42.0235,0.9339 Z" stroke-width="1px" stroke="#059ECE" fill="#059ECE"/>
          <path clip-path="url(#clip-608413784)" d="M 42.9574,0.9339 L 42.9574,14.9417 L 43.8912,14.9417 L 43.8912,0.9339 L 42.9574,0.9339 Z" stroke-width="1px" stroke="#049FCF" fill="#049FCF"/>
          <path clip-path="url(#clip-608413784)" d="M 43.8912,0.9339 L 43.8912,14.9417 L 44.8251,14.9417 L 44.8251,0.9339 L 43.8912,0.9339 Z" stroke-width="1px" stroke="#04A0D0" fill="#04A0D0"/>
          <path clip-path="url(#clip-608413784)" d="M 44.8251,0.9339 L 44.8251,14.9417 L 45.7589,14.9417 L 45.7589,0.9339 L 44.8251,0.9339 Z" stroke-width="1px" stroke="#03A1D1" fill="#03A1D1"/>
          <path clip-path="url(#clip-608413784)" d="M 45.7589,0.9339 L 45.7589,14.9417 L 46.6928,14.9417 L 46.6928,0.9339 L 45.7589,0.9339 Z" stroke-width="1px" stroke="#03A3D2" fill="#03A3D2"/>
          <path clip-path="url(#clip-608413784)" d="M 46.6928,0.9339 L 46.6928,14.9417 L 47.6266,14.9417 L 47.6266,0.9339 L 46.6928,0.9339 Z" stroke-width="1px" stroke="#02A4D2" fill="#02A4D2"/>
          <path clip-path="url(#clip-608413784)" d="M 47.6266,0.9339 L 47.6266,14.9417 L 48.5605,14.9417 L 48.5605,0.9339 L 47.6266,0.9339 Z" stroke-width="1px" stroke="#02A6D3" fill="#02A6D3"/>
          <path clip-path="url(#clip-608413784)" d="M 48.5605,0.9339 L 48.5605,14.9417 L 49.4943,14.9417 L 49.4943,0.9339 L 48.5605,0.9339 Z" stroke-width="1px" stroke="#02A7D4" fill="#02A7D4"/>
          <path clip-path="url(#clip-608413784)" d="M 49.4943,0.9339 L 49.4943,14.9417 L 50.4282,14.9417 L 50.4282,0.9339 L 49.4943,0.9339 Z" stroke-width="1px" stroke="#01A9D5" fill="#01A9D5"/>
          <path clip-path="url(#clip-608413784)" d="M 50.4282,0.9339 L 50.4282,14.9417 L 51.3621,14.9417 L 51.3621,0.9339 L 50.4282,0.9339 Z" stroke-width="1px" stroke="#01AAD5" fill="#01AAD5"/>
          <path clip-path="url(#clip-608413784)" d="M 51.3621,0.9339 L 51.3621,14.9417 L 52.2959,14.9417 L 52.2959,0.9339 L 51.3621,0.9339 Z" stroke-width="1px" stroke="#01ACD6" fill="#01ACD6"/>
          <path clip-path="url(#clip-608413784)" d="M 52.2959,0.9339 L 52.2959,14.9417 L 53.2298,14.9417 L 53.2298,0.9339 L 52.2959,0.9339 Z" stroke-width="1px" stroke="#01ADD7" fill="#01ADD7"/>
          <path clip-path="url(#clip-608413784)" d="M 53.2298,0.9339 L 53.2298,14.9417 L 54.1636,14.9417 L 54.1636,0.9339 L 53.2298,0.9339 Z" stroke-width="1px" stroke="#00AFD7" fill="#00AFD7"/>
        </g>
        <g transform="matrix(0.0625 0.0000 0.0000 0.0625 0.0000 0.0000)">
          <path d="M 61.6345,234.3977 L 866.6180,234.3977 L 866.6180,17.7433 L 61.6345,17.7433 L 61.6345,234.3977 " stroke="#0054A6" stroke-width="9.3386" stroke-linecap="round" stroke-linejoin="round" fill="none"/>
        </g>
        <g transform="matrix(1.0000 0.0000 0.0000 1.0000 0.0000 0.0000)">
          <path d="M 14.9417,2.8016 C 6.5370,3.7354 6.5370,3.7354 6.5370,3.7354 L 6.5370,12.1401 C 6.5370,13.0740 6.5370,13.0740 14.9417,13.0740 C 19.6110,13.0740 25.2141,14.0078 28.9495,14.0078 C 33.6188,14.0078 39.2219,13.0740 43.8912,13.0740 C 52.2959,13.0740 52.2959,13.0740 52.2959,12.1401 L 52.2959,3.7354 C 52.2959,3.7354 52.2959,3.7354 43.8912,2.8016 C 39.2219,2.8016 33.6188,2.8016 28.9495,2.8016 C 25.2141,2.8016 19.6110,2.8016 14.9417,2.8016 Z " fill="none" stroke="none"/>
          <defs>
            <clipPath id="clip-756898537">
              <path d="M 14.9417,2.8016 C 6.5370,3.7354 6.5370,3.7354 6.5370,3.7354 L 6.5370,12.1401 C 6.5370,13.0740 6.5370,13.0740 14.9417,13.0740 C 19.6110,13.0740 25.2141,14.0078 28.9495,14.0078 C 33.6188,14.0078 39.2219,13.0740 43.8912,13.0740 C 52.2959,13.0740 52.2959,13.0740 52.2959,12.1401 L 52.2959,3.7354 C 52.2959,3.7354 52.2959,3.7354 43.8912,2.8016 C 39.2219,2.8016 33.6188,2.8016 28.9495,2.8016 C 25.2141,2.8016 19.6110,2.8016 14.9417,2.8016 Z"/>
            </clipPath>
          </defs>
          <path clip-path="url(#clip-756898537)" d="M 5.6031,1.8677 L 5.6031,2.8016 L 52.2959,2.8016 L 52.2959,1.8677 L 5.6031,1.8677 Z" stroke-width="1px" stroke="#B5DFEF" fill="#B5DFEF"/>
          <path clip-path="url(#clip-756898537)" d="M 5.6031,2.8016 L 5.6031,3.7354 L 52.2959,3.7354 L 52.2959,2.8016 L 5.6031,2.8016 Z" stroke-width="1px" stroke="#B3DEEE" fill="#B3DEEE"/>
          <path clip-path="url(#clip-756898537)" d="M 5.6031,3.7354 L 5.6031,4.6693 L 52.2959,4.6693 L 52.2959,3.7354 L 5.6031,3.7354 Z" stroke-width="1px" stroke="#C2E4F2" fill="#C2E4F2"/>
          <path clip-path="url(#clip-756898537)" d="M 5.6031,4.6693 L 5.6031,5.6031 L 52.2959,5.6031 L 52.2959,4.6693 L 5.6031,4.6693 Z" stroke-width="1px" stroke="#D0EAF5" fill="#D0EAF5"/>
          <path clip-path="url(#clip-756898537)" d="M 5.6031,5.6031 L 5.6031,6.5370 L 52.2959,6.5370 L 52.2959,5.6031 L 5.6031,5.6031 Z" stroke-width="1px" stroke="#DDF1F7" fill="#DDF1F7"/>
          <path clip-path="url(#clip-756898537)" d="M 5.6031,6.5370 L 5.6031,7.4708 L 52.2959,7.4708 L 52.2959,6.5370 L 5.6031,6.5370 Z" stroke-width="1px" stroke="#ECF7FB" fill="#ECF7FB"/>
          <path clip-path="url(#clip-756898537)" d="M 5.6031,7.4708 L 5.6031,8.4047 L 52.2959,8.4047 L 52.2959,7.4708 L 5.6031,7.4708 Z" stroke-width="1px" stroke="#FAFDFE" fill="#FAFDFE"/>
          <path clip-path="url(#clip-756898537)" d="M 5.6031,8.4047 L 5.6031,9.3386 L 52.2959,9.3386 L 52.2959,8.4047 L 5.6031,8.4047 Z" stroke-width="1px" stroke="#F6FBFD" fill="#F6FBFD"/>
          <path clip-path="url(#clip-756898537)" d="M 5.6031,9.3386 L 5.6031,10.2724 L 52.2959,10.2724 L 52.2959,9.3386 L 5.6031,9.3386 Z" stroke-width="1px" stroke="#E8F5FA" fill="#E8F5FA"/>
          <path clip-path="url(#clip-756898537)" d="M 5.6031,10.2724 L 5.6031,11.2063 L 52.2959,11.2063 L 52.2959,10.2724 L 5.6031,10.2724 Z" stroke-width="1px" stroke="#DAEFF7" fill="#DAEFF7"/>
          <path clip-path="url(#clip-756898537)" d="M 5.6031,11.2063 L 5.6031,12.1401 L 52.2959,12.1401 L 52.2959,11.2063 L 5.6031,11.2063 Z" stroke-width="1px" stroke="#CCE9F4" fill="#CCE9F4"/>
          <path clip-path="url(#clip-756898537)" d="M 5.6031,12.1401 L 5.6031,13.0740 L 52.2959,13.0740 L 52.2959,12.1401 L 5.6031,12.1401 Z" stroke-width="1px" stroke="#BEE2F1" fill="#BEE2F1"/>
        </g>
        <g transform="matrix(0.0625 0.0000 0.0000 0.0625 0.0000 0.0000)">
          <path d="M 229.7285,43.8912 C 90.5840,49.4943 90.5840,52.2959 90.5840,59.7668 L 90.5840,191.4404 C 90.5840,198.9112 90.5840,201.7128 229.7285,207.3159 C 310.9739,210.1175 399.6902,211.9852 462.2585,211.9852 C 524.8268,211.9852 613.5431,210.1175 694.7885,207.3159 C 833.9330,201.7128 833.9330,198.9112 833.9330,191.4404 L 833.9330,59.7668 C 833.9330,52.2959 833.9330,49.4943 694.7885,43.8912 C 613.5431,41.0896 524.8268,38.2881 462.2585,38.2881 C 399.6902,38.2881 310.9739,41.0896 229.7285,43.8912 " stroke="#ADDBED" stroke-width="0.9339" stroke-linecap="butt" stroke-linejoin="round" fill="none"/>
        </g>
        <g transform="matrix(1.0000 0.0000 0.0000 1.0000 0.0000 0.0000)">
</g>
        <g transform="matrix(0.0625 0.0000 0.0000 0.0625 0.0000 0.0000)">
          <path d="M 456.6554,108.3272 L 456.6554,131.6736 L 597.6676,131.6736 L 597.6676,108.3272 L 456.6554,108.3272 Z" stroke-width="1px" stroke="#8DC63F" fill="#8DC63F"/>
        </g>
        <g transform="matrix(1.0000 0.0000 0.0000 1.0000 0.0000 0.0000)">
</g>
        <g transform="matrix(0.0625 0.0000 0.0000 0.0625 0.0000 0.0000)">
          <path d="M 456.6554,130.7398 L 456.6554,161.5570 C 456.6554,168.0940 462.2585,173.6971 467.8616,173.6971 L 586.4613,173.6971 C 592.0644,173.6971 597.6676,168.0940 597.6676,161.5570 L 597.6676,130.7398 L 456.6554,130.7398 Z " fill="#0054A6" stroke="none"/>
        </g>
        <g transform="matrix(1.0000 0.0000 0.0000 1.0000 0.0000 0.0000)">
</g>
        <g transform="matrix(0.0625 0.0000 0.0000 0.0625 0.0000 0.0000)">
          <path d="M 307.2385,124.2028 C 307.2385,89.6501 314.7093,55.0975 324.0479,55.0975 L 335.2541,55.0975 C 339.9234,55.0975 342.7250,58.8329 342.7250,64.4360 L 342.7250,184.9034 C 342.7250,189.5727 339.9234,193.3081 335.2541,193.3081 L 324.0479,193.3081 C 314.7093,193.3081 307.2385,158.7554 307.2385,124.2028 Z M 408.0949,186.7711 C 408.0949,191.4404 404.3595,195.1758 399.6902,195.1758 L 388.4839,195.1758 C 379.1454,195.1758 371.6745,159.6893 371.6745,124.2028 C 371.6745,88.7163 379.1454,53.2298 388.4839,53.2298 L 399.6902,53.2298 C 404.3595,53.2298 408.0949,57.8990 408.0949,62.5683 L 408.0949,186.7711 Z M 148.4830,180.2341 C 148.4830,183.9695 144.7476,187.7050 141.0122,187.7050 L 129.8059,187.7050 C 121.4012,187.7050 114.8642,155.9539 114.8642,124.2028 C 114.8642,92.4517 121.4012,60.7006 129.8059,60.7006 L 141.0122,60.7006 C 144.7476,60.7006 148.4830,64.4360 148.4830,69.1053 L 148.4830,180.2341 Z M 179.3003,124.2028 C 179.3003,91.5178 185.8373,58.8329 194.2420,58.8329 L 205.4482,58.8329 C 210.1175,58.8329 212.9191,62.5683 212.9191,67.2376 L 212.9191,181.1680 C 212.9191,185.8373 210.1175,189.5727 205.4482,189.5727 L 194.2420,189.5727 C 185.8373,189.5727 179.3003,156.8877 179.3003,124.2028 Z M 243.7363,124.2028 C 243.7363,90.5840 250.2733,56.9652 259.6118,56.9652 L 269.8843,56.9652 C 274.5535,56.9652 278.2890,60.7006 278.2890,65.3699 L 278.2890,183.0357 C 278.2890,187.7050 274.5535,191.4404 269.8843,191.4404 L 259.6118,191.4404 C 250.2733,191.4404 243.7363,157.8216 243.7363,124.2028 Z M 681.7146,124.2028 C 681.7146,90.5840 675.1776,56.9652 665.8390,56.9652 L 654.6327,56.9652 C 649.9635,56.9652 646.2280,60.7006 646.2280,65.3699 L 646.2280,183.0357 C 646.2280,187.7050 649.9635,191.4404 654.6327,191.4404 L 665.8390,191.4404 C 675.1776,191.4404 681.7146,157.8216 681.7146,124.2028 Z M 745.2167,124.2028 C 745.2167,91.5178 739.6136,58.8329 730.2750,58.8329 L 719.0688,58.8329 C 714.3995,58.8329 711.5979,62.5683 711.5979,67.2376 L 711.5979,181.1680 C 711.5979,185.8373 714.3995,189.5727 719.0688,189.5727 L 730.2750,189.5727 C 739.6136,189.5727 745.2167,156.8877 745.2167,124.2028 Z M 776.0340,180.2341 C 776.0340,183.9695 779.7694,187.7050 783.5048,187.7050 L 794.7111,187.7050 C 803.1158,187.7050 809.6528,155.9539 809.6528,124.2028 C 809.6528,92.4517 803.1158,60.7006 794.7111,60.7006 L 783.5048,60.7006 C 779.7694,60.7006 776.0340,64.4360 776.0340,69.1053 L 776.0340,180.2341 Z " fill="#0054A6" stroke="none"/>
        </g>
        <g transform="matrix(1.0000 0.0000 0.0000 1.0000 0.0000 0.0000)">
</g>
      </g>
      <!--emf-blob end-->
    </g>
  </g>
</svg>
