<svg xmlns="http://www.w3.org/2000/svg" xmlns:xlink="http://www.w3.org/1999/xlink" version="1.1" width="56.6929000000" height="64.4598000000">
  <title><![CDATA[FAS3000 Cluster]]></title>
  <g transform=" scale(1.000000) ">
    <!--converted by libvisio2svg-->
    <g transform=" translate(-1.219300,-1.112400) ">
      <!--emf-blob start-->
      <g transform="translate(0.9689, 0.9689)">
        <defs>
          <clipPath id="clip-184803526">
            <path d="M 26.1601,30.0356 L 28.0979,30.0356 L 28.0979,35.8490 L 26.1601,35.8490 L 26.1601,30.0356 Z Z"/>
          </clipPath>
        </defs>
        <path clip-path="url(#clip-184803526)" d="M 25.1912,29.0668 L 25.1912,34.8801 L 26.1601,34.8801 L 26.1601,29.0668 L 25.1912,29.0668 Z" stroke-width="1px" stroke="#7C7C7C" fill="#7C7C7C"/>
        <path clip-path="url(#clip-184803526)" d="M 26.1601,29.0668 L 26.1601,34.8801 L 27.1290,34.8801 L 27.1290,29.0668 L 26.1601,29.0668 Z" stroke-width="1px" stroke="#595959" fill="#595959"/>
        <defs>
          <clipPath id="clip-412776091">
            <path d="M 34.8801,30.0356 L 35.8490,30.0356 L 35.8490,35.8490 L 34.8801,35.8490 L 34.8801,30.0356 Z Z"/>
          </clipPath>
        </defs>
        <path clip-path="url(#clip-412776091)" d="M 33.9112,29.0668 L 33.9112,34.8801 L 34.8801,34.8801 L 34.8801,29.0668 L 33.9112,29.0668 Z" stroke-width="1px" stroke="#3C3C3C" fill="#3C3C3C"/>
        <path clip-path="url(#clip-412776091)" d="M 34.8801,29.0668 L 34.8801,34.8801 L 35.8490,34.8801 L 35.8490,29.0668 L 34.8801,29.0668 Z" stroke-width="1px" stroke="#999999" fill="#999999"/>
        <path d="M 4.8445,15.5023 L 56.1957,15.5023 L 56.1957,1.9378 L 4.8445,1.9378 L 4.8445,15.5023 Z M 4.8445,30.0356 L 56.1957,30.0356 L 56.1957,16.4712 L 4.8445,16.4712 L 4.8445,30.0356 Z M 4.8445,49.4135 L 56.1957,49.4135 L 56.1957,35.8490 L 4.8445,35.8490 L 4.8445,49.4135 Z M 4.8445,63.9469 L 56.1957,63.9469 L 56.1957,50.3824 L 4.8445,50.3824 L 4.8445,63.9469 Z " fill="none" stroke="none"/>
        <defs>
          <clipPath id="clip-1424268980">
            <path d="M 4.8445,15.5023 L 56.1957,15.5023 L 56.1957,1.9378 L 4.8445,1.9378 L 4.8445,15.5023 Z M 4.8445,30.0356 L 56.1957,30.0356 L 56.1957,16.4712 L 4.8445,16.4712 L 4.8445,30.0356 Z M 4.8445,49.4135 L 56.1957,49.4135 L 56.1957,35.8490 L 4.8445,35.8490 L 4.8445,49.4135 Z M 4.8445,63.9469 L 56.1957,63.9469 L 56.1957,50.3824 L 4.8445,50.3824 L 4.8445,63.9469 Z Z"/>
          </clipPath>
        </defs>
        <path clip-path="url(#clip-1424268980)" d="M 3.8756,0.9689 L 3.8756,63.9469 L 4.8445,63.9469 L 4.8445,0.9689 L 3.8756,0.9689 Z" stroke-width="1px" stroke="#00B0D8" fill="#00B0D8"/>
        <path clip-path="url(#clip-1424268980)" d="M 4.8445,0.9689 L 4.8445,63.9469 L 5.8134,63.9469 L 5.8134,0.9689 L 4.8445,0.9689 Z" stroke-width="1px" stroke="#1263B2" fill="#1263B2"/>
        <path clip-path="url(#clip-1424268980)" d="M 5.8134,0.9689 L 5.8134,63.9469 L 6.7822,63.9469 L 6.7822,0.9689 L 5.8134,0.9689 Z" stroke-width="1px" stroke="#1165B2" fill="#1165B2"/>
        <path clip-path="url(#clip-1424268980)" d="M 6.7822,0.9689 L 6.7822,63.9469 L 7.7511,63.9469 L 7.7511,0.9689 L 6.7822,0.9689 Z" stroke-width="1px" stroke="#1166B3" fill="#1166B3"/>
        <path clip-path="url(#clip-1424268980)" d="M 7.7511,0.9689 L 7.7511,63.9469 L 8.7200,63.9469 L 8.7200,0.9689 L 7.7511,0.9689 Z" stroke-width="1px" stroke="#1168B3" fill="#1168B3"/>
        <path clip-path="url(#clip-1424268980)" d="M 8.7200,0.9689 L 8.7200,63.9469 L 9.6889,63.9469 L 9.6889,0.9689 L 8.7200,0.9689 Z" stroke-width="1px" stroke="#1169B4" fill="#1169B4"/>
        <path clip-path="url(#clip-1424268980)" d="M 9.6889,0.9689 L 9.6889,63.9469 L 10.6578,63.9469 L 10.6578,0.9689 L 9.6889,0.9689 Z" stroke-width="1px" stroke="#106BB5" fill="#106BB5"/>
        <path clip-path="url(#clip-1424268980)" d="M 10.6578,0.9689 L 10.6578,63.9469 L 11.6267,63.9469 L 11.6267,0.9689 L 10.6578,0.9689 Z" stroke-width="1px" stroke="#106CB6" fill="#106CB6"/>
        <path clip-path="url(#clip-1424268980)" d="M 11.6267,0.9689 L 11.6267,63.9469 L 12.5956,63.9469 L 12.5956,0.9689 L 11.6267,0.9689 Z" stroke-width="1px" stroke="#106EB7" fill="#106EB7"/>
        <path clip-path="url(#clip-1424268980)" d="M 12.5956,0.9689 L 12.5956,63.9469 L 13.5645,63.9469 L 13.5645,0.9689 L 12.5956,0.9689 Z" stroke-width="1px" stroke="#0F6FB7" fill="#0F6FB7"/>
        <path clip-path="url(#clip-1424268980)" d="M 13.5645,0.9689 L 13.5645,63.9469 L 14.5334,63.9469 L 14.5334,0.9689 L 13.5645,0.9689 Z" stroke-width="1px" stroke="#0F71B8" fill="#0F71B8"/>
        <path clip-path="url(#clip-1424268980)" d="M 14.5334,0.9689 L 14.5334,63.9469 L 15.5023,63.9469 L 15.5023,0.9689 L 14.5334,0.9689 Z" stroke-width="1px" stroke="#0F72B9" fill="#0F72B9"/>
        <path clip-path="url(#clip-1424268980)" d="M 15.5023,0.9689 L 15.5023,63.9469 L 16.4712,63.9469 L 16.4712,0.9689 L 15.5023,0.9689 Z" stroke-width="1px" stroke="#0E74BA" fill="#0E74BA"/>
        <path clip-path="url(#clip-1424268980)" d="M 16.4712,0.9689 L 16.4712,63.9469 L 17.4401,63.9469 L 17.4401,0.9689 L 16.4712,0.9689 Z" stroke-width="1px" stroke="#0E75BA" fill="#0E75BA"/>
        <path clip-path="url(#clip-1424268980)" d="M 17.4401,0.9689 L 17.4401,63.9469 L 18.4089,63.9469 L 18.4089,0.9689 L 17.4401,0.9689 Z" stroke-width="1px" stroke="#0E77BB" fill="#0E77BB"/>
        <path clip-path="url(#clip-1424268980)" d="M 18.4089,0.9689 L 18.4089,63.9469 L 19.3778,63.9469 L 19.3778,0.9689 L 18.4089,0.9689 Z" stroke-width="1px" stroke="#0D78BC" fill="#0D78BC"/>
        <path clip-path="url(#clip-1424268980)" d="M 19.3778,0.9689 L 19.3778,63.9469 L 20.3467,63.9469 L 20.3467,0.9689 L 19.3778,0.9689 Z" stroke-width="1px" stroke="#0D79BC" fill="#0D79BC"/>
        <path clip-path="url(#clip-1424268980)" d="M 20.3467,0.9689 L 20.3467,63.9469 L 21.3156,63.9469 L 21.3156,0.9689 L 20.3467,0.9689 Z" stroke-width="1px" stroke="#0C7ABD" fill="#0C7ABD"/>
        <path clip-path="url(#clip-1424268980)" d="M 21.3156,0.9689 L 21.3156,63.9469 L 22.2845,63.9469 L 22.2845,0.9689 L 21.3156,0.9689 Z" stroke-width="1px" stroke="#0C7CBE" fill="#0C7CBE"/>
        <path clip-path="url(#clip-1424268980)" d="M 22.2845,0.9689 L 22.2845,63.9469 L 23.2534,63.9469 L 23.2534,0.9689 L 22.2845,0.9689 Z" stroke-width="1px" stroke="#0B7DBF" fill="#0B7DBF"/>
        <path clip-path="url(#clip-1424268980)" d="M 23.2534,0.9689 L 23.2534,63.9469 L 24.2223,63.9469 L 24.2223,0.9689 L 23.2534,0.9689 Z" stroke-width="1px" stroke="#0B7FC0" fill="#0B7FC0"/>
        <path clip-path="url(#clip-1424268980)" d="M 24.2223,0.9689 L 24.2223,63.9469 L 25.1912,63.9469 L 25.1912,0.9689 L 24.2223,0.9689 Z" stroke-width="1px" stroke="#0B80C0" fill="#0B80C0"/>
        <path clip-path="url(#clip-1424268980)" d="M 25.1912,0.9689 L 25.1912,63.9469 L 26.1601,63.9469 L 26.1601,0.9689 L 25.1912,0.9689 Z" stroke-width="1px" stroke="#0A82C1" fill="#0A82C1"/>
        <path clip-path="url(#clip-1424268980)" d="M 26.1601,0.9689 L 26.1601,63.9469 L 27.1290,63.9469 L 27.1290,0.9689 L 26.1601,0.9689 Z" stroke-width="1px" stroke="#0A83C2" fill="#0A83C2"/>
        <path clip-path="url(#clip-1424268980)" d="M 27.1290,0.9689 L 27.1290,63.9469 L 28.0979,63.9469 L 28.0979,0.9689 L 27.1290,0.9689 Z" stroke-width="1px" stroke="#0A84C2" fill="#0A84C2"/>
        <path clip-path="url(#clip-1424268980)" d="M 28.0979,0.9689 L 28.0979,63.9469 L 29.0668,63.9469 L 29.0668,0.9689 L 28.0979,0.9689 Z" stroke-width="1px" stroke="#0A86C3" fill="#0A86C3"/>
        <path clip-path="url(#clip-1424268980)" d="M 29.0668,0.9689 L 29.0668,63.9469 L 30.0356,63.9469 L 30.0356,0.9689 L 29.0668,0.9689 Z" stroke-width="1px" stroke="#0987C4" fill="#0987C4"/>
        <path clip-path="url(#clip-1424268980)" d="M 30.0356,0.9689 L 30.0356,63.9469 L 31.0045,63.9469 L 31.0045,0.9689 L 30.0356,0.9689 Z" stroke-width="1px" stroke="#0989C5" fill="#0989C5"/>
        <path clip-path="url(#clip-1424268980)" d="M 31.0045,0.9689 L 31.0045,63.9469 L 31.9734,63.9469 L 31.9734,0.9689 L 31.0045,0.9689 Z" stroke-width="1px" stroke="#098AC6" fill="#098AC6"/>
        <path clip-path="url(#clip-1424268980)" d="M 31.9734,0.9689 L 31.9734,63.9469 L 32.9423,63.9469 L 32.9423,0.9689 L 31.9734,0.9689 Z" stroke-width="1px" stroke="#088CC6" fill="#088CC6"/>
        <path clip-path="url(#clip-1424268980)" d="M 32.9423,0.9689 L 32.9423,63.9469 L 33.9112,63.9469 L 33.9112,0.9689 L 32.9423,0.9689 Z" stroke-width="1px" stroke="#088DC7" fill="#088DC7"/>
        <path clip-path="url(#clip-1424268980)" d="M 33.9112,0.9689 L 33.9112,63.9469 L 34.8801,63.9469 L 34.8801,0.9689 L 33.9112,0.9689 Z" stroke-width="1px" stroke="#088FC7" fill="#088FC7"/>
        <path clip-path="url(#clip-1424268980)" d="M 34.8801,0.9689 L 34.8801,63.9469 L 35.8490,63.9469 L 35.8490,0.9689 L 34.8801,0.9689 Z" stroke-width="1px" stroke="#0890C8" fill="#0890C8"/>
        <path clip-path="url(#clip-1424268980)" d="M 35.8490,0.9689 L 35.8490,63.9469 L 36.8179,63.9469 L 36.8179,0.9689 L 35.8490,0.9689 Z" stroke-width="1px" stroke="#0792C9" fill="#0792C9"/>
        <path clip-path="url(#clip-1424268980)" d="M 36.8179,0.9689 L 36.8179,63.9469 L 37.7868,63.9469 L 37.7868,0.9689 L 36.8179,0.9689 Z" stroke-width="1px" stroke="#0793C9" fill="#0793C9"/>
        <path clip-path="url(#clip-1424268980)" d="M 37.7868,0.9689 L 37.7868,63.9469 L 38.7557,63.9469 L 38.7557,0.9689 L 37.7868,0.9689 Z" stroke-width="1px" stroke="#0795CA" fill="#0795CA"/>
        <path clip-path="url(#clip-1424268980)" d="M 38.7557,0.9689 L 38.7557,63.9469 L 39.7246,63.9469 L 39.7246,0.9689 L 38.7557,0.9689 Z" stroke-width="1px" stroke="#0696CB" fill="#0696CB"/>
        <path clip-path="url(#clip-1424268980)" d="M 39.7246,0.9689 L 39.7246,63.9469 L 40.6935,63.9469 L 40.6935,0.9689 L 39.7246,0.9689 Z" stroke-width="1px" stroke="#0698CC" fill="#0698CC"/>
        <path clip-path="url(#clip-1424268980)" d="M 40.6935,0.9689 L 40.6935,63.9469 L 41.6623,63.9469 L 41.6623,0.9689 L 40.6935,0.9689 Z" stroke-width="1px" stroke="#0699CD" fill="#0699CD"/>
        <path clip-path="url(#clip-1424268980)" d="M 41.6623,0.9689 L 41.6623,63.9469 L 42.6312,63.9469 L 42.6312,0.9689 L 41.6623,0.9689 Z" stroke-width="1px" stroke="#059BCD" fill="#059BCD"/>
        <path clip-path="url(#clip-1424268980)" d="M 42.6312,0.9689 L 42.6312,63.9469 L 43.6001,63.9469 L 43.6001,0.9689 L 42.6312,0.9689 Z" stroke-width="1px" stroke="#059CCE" fill="#059CCE"/>
        <path clip-path="url(#clip-1424268980)" d="M 43.6001,0.9689 L 43.6001,63.9469 L 44.5690,63.9469 L 44.5690,0.9689 L 43.6001,0.9689 Z" stroke-width="1px" stroke="#059ECE" fill="#059ECE"/>
        <path clip-path="url(#clip-1424268980)" d="M 44.5690,0.9689 L 44.5690,63.9469 L 45.5379,63.9469 L 45.5379,0.9689 L 44.5690,0.9689 Z" stroke-width="1px" stroke="#049FCF" fill="#049FCF"/>
        <path clip-path="url(#clip-1424268980)" d="M 45.5379,0.9689 L 45.5379,63.9469 L 46.5068,63.9469 L 46.5068,0.9689 L 45.5379,0.9689 Z" stroke-width="1px" stroke="#04A0D0" fill="#04A0D0"/>
        <path clip-path="url(#clip-1424268980)" d="M 46.5068,0.9689 L 46.5068,63.9469 L 47.4757,63.9469 L 47.4757,0.9689 L 46.5068,0.9689 Z" stroke-width="1px" stroke="#03A1D1" fill="#03A1D1"/>
        <path clip-path="url(#clip-1424268980)" d="M 47.4757,0.9689 L 47.4757,63.9469 L 48.4446,63.9469 L 48.4446,0.9689 L 47.4757,0.9689 Z" stroke-width="1px" stroke="#03A3D2" fill="#03A3D2"/>
        <path clip-path="url(#clip-1424268980)" d="M 48.4446,0.9689 L 48.4446,63.9469 L 49.4135,63.9469 L 49.4135,0.9689 L 48.4446,0.9689 Z" stroke-width="1px" stroke="#02A4D2" fill="#02A4D2"/>
        <path clip-path="url(#clip-1424268980)" d="M 49.4135,0.9689 L 49.4135,63.9469 L 50.3824,63.9469 L 50.3824,0.9689 L 49.4135,0.9689 Z" stroke-width="1px" stroke="#02A6D3" fill="#02A6D3"/>
        <path clip-path="url(#clip-1424268980)" d="M 50.3824,0.9689 L 50.3824,63.9469 L 51.3513,63.9469 L 51.3513,0.9689 L 50.3824,0.9689 Z" stroke-width="1px" stroke="#02A7D4" fill="#02A7D4"/>
        <path clip-path="url(#clip-1424268980)" d="M 51.3513,0.9689 L 51.3513,63.9469 L 52.3202,63.9469 L 52.3202,0.9689 L 51.3513,0.9689 Z" stroke-width="1px" stroke="#01A9D5" fill="#01A9D5"/>
        <path clip-path="url(#clip-1424268980)" d="M 52.3202,0.9689 L 52.3202,63.9469 L 53.2890,63.9469 L 53.2890,0.9689 L 52.3202,0.9689 Z" stroke-width="1px" stroke="#01AAD5" fill="#01AAD5"/>
        <path clip-path="url(#clip-1424268980)" d="M 53.2890,0.9689 L 53.2890,63.9469 L 54.2579,63.9469 L 54.2579,0.9689 L 53.2890,0.9689 Z" stroke-width="1px" stroke="#01ACD6" fill="#01ACD6"/>
        <path clip-path="url(#clip-1424268980)" d="M 54.2579,0.9689 L 54.2579,63.9469 L 55.2268,63.9469 L 55.2268,0.9689 L 54.2579,0.9689 Z" stroke-width="1px" stroke="#01ADD7" fill="#01ADD7"/>
        <path clip-path="url(#clip-1424268980)" d="M 55.2268,0.9689 L 55.2268,63.9469 L 56.1957,63.9469 L 56.1957,0.9689 L 55.2268,0.9689 Z" stroke-width="1px" stroke="#00AFD7" fill="#00AFD7"/>
        <g transform="matrix(0.0625 0.0000 0.0000 0.0625 0.0000 0.0000)">
          <path d="M 63.9469,243.1918 L 899.1316,243.1918 L 899.1316,18.4089 L 63.9469,18.4089 L 63.9469,243.1918 M 63.9469,474.7570 L 899.1316,474.7570 L 899.1316,249.0052 L 63.9469,249.0052 L 63.9469,474.7570 M 63.9469,787.7090 L 899.1316,787.7090 L 899.1316,561.9572 L 63.9469,561.9572 L 63.9469,787.7090 M 63.9469,1018.3053 L 899.1316,1018.3053 L 899.1316,793.5224 L 63.9469,793.5224 L 63.9469,1018.3053 " stroke="#0054A6" stroke-width="9.6889" stroke-linecap="round" stroke-linejoin="round" fill="none"/>
        </g>
        <g transform="matrix(1.0000 0.0000 0.0000 1.0000 0.0000 0.0000)">
          <path d="M 15.5023,2.9067 C 6.7822,3.8756 6.7822,3.8756 6.7822,3.8756 L 6.7822,12.5956 C 6.7822,13.5645 6.7822,13.5645 15.5023,13.5645 C 20.3467,13.5645 26.1601,14.5334 30.0356,14.5334 C 34.8801,14.5334 40.6935,13.5645 45.5379,13.5645 C 54.2579,13.5645 54.2579,13.5645 54.2579,12.5956 L 54.2579,3.8756 C 54.2579,3.8756 54.2579,3.8756 45.5379,2.9067 C 40.6935,2.9067 34.8801,2.9067 30.0356,2.9067 C 26.1601,2.9067 20.3467,2.9067 15.5023,2.9067 Z " fill="none" stroke="none"/>
          <defs>
            <clipPath id="clip-1911759956">
              <path d="M 15.5023,2.9067 C 6.7822,3.8756 6.7822,3.8756 6.7822,3.8756 L 6.7822,12.5956 C 6.7822,13.5645 6.7822,13.5645 15.5023,13.5645 C 20.3467,13.5645 26.1601,14.5334 30.0356,14.5334 C 34.8801,14.5334 40.6935,13.5645 45.5379,13.5645 C 54.2579,13.5645 54.2579,13.5645 54.2579,12.5956 L 54.2579,3.8756 C 54.2579,3.8756 54.2579,3.8756 45.5379,2.9067 C 40.6935,2.9067 34.8801,2.9067 30.0356,2.9067 C 26.1601,2.9067 20.3467,2.9067 15.5023,2.9067 Z"/>
            </clipPath>
          </defs>
          <path clip-path="url(#clip-1911759956)" d="M 5.8134,1.9378 L 5.8134,2.9067 L 54.2579,2.9067 L 54.2579,1.9378 L 5.8134,1.9378 Z" stroke-width="1px" stroke="#B5DFEF" fill="#B5DFEF"/>
          <path clip-path="url(#clip-1911759956)" d="M 5.8134,2.9067 L 5.8134,3.8756 L 54.2579,3.8756 L 54.2579,2.9067 L 5.8134,2.9067 Z" stroke-width="1px" stroke="#B3DEEE" fill="#B3DEEE"/>
          <path clip-path="url(#clip-1911759956)" d="M 5.8134,3.8756 L 5.8134,4.8445 L 54.2579,4.8445 L 54.2579,3.8756 L 5.8134,3.8756 Z" stroke-width="1px" stroke="#C2E4F2" fill="#C2E4F2"/>
          <path clip-path="url(#clip-1911759956)" d="M 5.8134,4.8445 L 5.8134,5.8134 L 54.2579,5.8134 L 54.2579,4.8445 L 5.8134,4.8445 Z" stroke-width="1px" stroke="#D0EAF5" fill="#D0EAF5"/>
          <path clip-path="url(#clip-1911759956)" d="M 5.8134,5.8134 L 5.8134,6.7822 L 54.2579,6.7822 L 54.2579,5.8134 L 5.8134,5.8134 Z" stroke-width="1px" stroke="#DDF1F7" fill="#DDF1F7"/>
          <path clip-path="url(#clip-1911759956)" d="M 5.8134,6.7822 L 5.8134,7.7511 L 54.2579,7.7511 L 54.2579,6.7822 L 5.8134,6.7822 Z" stroke-width="1px" stroke="#ECF7FB" fill="#ECF7FB"/>
          <path clip-path="url(#clip-1911759956)" d="M 5.8134,7.7511 L 5.8134,8.7200 L 54.2579,8.7200 L 54.2579,7.7511 L 5.8134,7.7511 Z" stroke-width="1px" stroke="#FAFDFE" fill="#FAFDFE"/>
          <path clip-path="url(#clip-1911759956)" d="M 5.8134,8.7200 L 5.8134,9.6889 L 54.2579,9.6889 L 54.2579,8.7200 L 5.8134,8.7200 Z" stroke-width="1px" stroke="#F6FBFD" fill="#F6FBFD"/>
          <path clip-path="url(#clip-1911759956)" d="M 5.8134,9.6889 L 5.8134,10.6578 L 54.2579,10.6578 L 54.2579,9.6889 L 5.8134,9.6889 Z" stroke-width="1px" stroke="#E8F5FA" fill="#E8F5FA"/>
          <path clip-path="url(#clip-1911759956)" d="M 5.8134,10.6578 L 5.8134,11.6267 L 54.2579,11.6267 L 54.2579,10.6578 L 5.8134,10.6578 Z" stroke-width="1px" stroke="#DAEFF7" fill="#DAEFF7"/>
          <path clip-path="url(#clip-1911759956)" d="M 5.8134,11.6267 L 5.8134,12.5956 L 54.2579,12.5956 L 54.2579,11.6267 L 5.8134,11.6267 Z" stroke-width="1px" stroke="#CCE9F4" fill="#CCE9F4"/>
          <path clip-path="url(#clip-1911759956)" d="M 5.8134,12.5956 L 5.8134,13.5645 L 54.2579,13.5645 L 54.2579,12.5956 L 5.8134,12.5956 Z" stroke-width="1px" stroke="#BEE2F1" fill="#BEE2F1"/>
        </g>
        <g transform="matrix(0.0625 0.0000 0.0000 0.0625 0.0000 0.0000)">
          <path d="M 238.3474,45.5379 C 93.9825,51.3513 93.9825,54.2579 93.9825,62.0091 L 93.9825,198.6228 C 93.9825,206.3740 93.9825,209.2806 238.3474,215.0940 C 322.6410,218.0007 414.6857,219.9384 479.6014,219.9384 C 544.5172,219.9384 636.5619,218.0007 720.8555,215.0940 C 865.2204,209.2806 865.2204,206.3740 865.2204,198.6228 L 865.2204,62.0091 C 865.2204,54.2579 865.2204,51.3513 720.8555,45.5379 C 636.5619,42.6312 544.5172,39.7246 479.6014,39.7246 C 414.6857,39.7246 322.6410,42.6312 238.3474,45.5379 " stroke="#ADDBED" stroke-width="0.9689" stroke-linecap="butt" stroke-linejoin="round" fill="none"/>
        </g>
        <g transform="matrix(1.0000 0.0000 0.0000 1.0000 0.0000 0.0000)">
          <path d="M 15.5023,17.4401 C 6.7822,18.4089 6.7822,18.4089 6.7822,18.4089 L 6.7822,27.1290 C 6.7822,28.0979 6.7822,28.0979 15.5023,28.0979 C 20.3467,28.0979 26.1601,29.0668 30.0356,29.0668 C 34.8801,29.0668 40.6935,28.0979 45.5379,28.0979 C 54.2579,28.0979 54.2579,28.0979 54.2579,27.1290 L 54.2579,18.4089 C 54.2579,18.4089 54.2579,18.4089 45.5379,17.4401 C 40.6935,17.4401 34.8801,17.4401 30.0356,17.4401 C 26.1601,17.4401 20.3467,17.4401 15.5023,17.4401 Z " fill="none" stroke="none"/>
          <defs>
            <clipPath id="clip-749241873">
              <path d="M 15.5023,17.4401 C 6.7822,18.4089 6.7822,18.4089 6.7822,18.4089 L 6.7822,27.1290 C 6.7822,28.0979 6.7822,28.0979 15.5023,28.0979 C 20.3467,28.0979 26.1601,29.0668 30.0356,29.0668 C 34.8801,29.0668 40.6935,28.0979 45.5379,28.0979 C 54.2579,28.0979 54.2579,28.0979 54.2579,27.1290 L 54.2579,18.4089 C 54.2579,18.4089 54.2579,18.4089 45.5379,17.4401 C 40.6935,17.4401 34.8801,17.4401 30.0356,17.4401 C 26.1601,17.4401 20.3467,17.4401 15.5023,17.4401 Z"/>
            </clipPath>
          </defs>
          <path clip-path="url(#clip-749241873)" d="M 5.8134,16.4712 L 5.8134,17.4401 L 54.2579,17.4401 L 54.2579,16.4712 L 5.8134,16.4712 Z" stroke-width="1px" stroke="#B3DEEE" fill="#B3DEEE"/>
          <path clip-path="url(#clip-749241873)" d="M 5.8134,17.4401 L 5.8134,18.4089 L 54.2579,18.4089 L 54.2579,17.4401 L 5.8134,17.4401 Z" stroke-width="1px" stroke="#B5DFEF" fill="#B5DFEF"/>
          <path clip-path="url(#clip-749241873)" d="M 5.8134,18.4089 L 5.8134,19.3778 L 54.2579,19.3778 L 54.2579,18.4089 L 5.8134,18.4089 Z" stroke-width="1px" stroke="#C3E5F2" fill="#C3E5F2"/>
          <path clip-path="url(#clip-749241873)" d="M 5.8134,19.3778 L 5.8134,20.3467 L 54.2579,20.3467 L 54.2579,19.3778 L 5.8134,19.3778 Z" stroke-width="1px" stroke="#D1EBF5" fill="#D1EBF5"/>
          <path clip-path="url(#clip-749241873)" d="M 5.8134,20.3467 L 5.8134,21.3156 L 54.2579,21.3156 L 54.2579,20.3467 L 5.8134,20.3467 Z" stroke-width="1px" stroke="#DFF1F8" fill="#DFF1F8"/>
          <path clip-path="url(#clip-749241873)" d="M 5.8134,21.3156 L 5.8134,22.2845 L 54.2579,22.2845 L 54.2579,21.3156 L 5.8134,21.3156 Z" stroke-width="1px" stroke="#EEF7FC" fill="#EEF7FC"/>
          <path clip-path="url(#clip-749241873)" d="M 5.8134,22.2845 L 5.8134,23.2534 L 54.2579,23.2534 L 54.2579,22.2845 L 5.8134,22.2845 Z" stroke-width="1px" stroke="#FBFEFE" fill="#FBFEFE"/>
          <path clip-path="url(#clip-749241873)" d="M 5.8134,23.2534 L 5.8134,24.2223 L 54.2579,24.2223 L 54.2579,23.2534 L 5.8134,23.2534 Z" stroke-width="1px" stroke="#F5FBFD" fill="#F5FBFD"/>
          <path clip-path="url(#clip-749241873)" d="M 5.8134,24.2223 L 5.8134,25.1912 L 54.2579,25.1912 L 54.2579,24.2223 L 5.8134,24.2223 Z" stroke-width="1px" stroke="#E7F4FA" fill="#E7F4FA"/>
          <path clip-path="url(#clip-749241873)" d="M 5.8134,25.1912 L 5.8134,26.1601 L 54.2579,26.1601 L 54.2579,25.1912 L 5.8134,25.1912 Z" stroke-width="1px" stroke="#D8EEF6" fill="#D8EEF6"/>
          <path clip-path="url(#clip-749241873)" d="M 5.8134,26.1601 L 5.8134,27.1290 L 54.2579,27.1290 L 54.2579,26.1601 L 5.8134,26.1601 Z" stroke-width="1px" stroke="#CAE8F4" fill="#CAE8F4"/>
          <path clip-path="url(#clip-749241873)" d="M 5.8134,27.1290 L 5.8134,28.0979 L 54.2579,28.0979 L 54.2579,27.1290 L 5.8134,27.1290 Z" stroke-width="1px" stroke="#BCE2F0" fill="#BCE2F0"/>
        </g>
        <g transform="matrix(0.0625 0.0000 0.0000 0.0625 0.0000 0.0000)">
          <path d="M 238.3474,276.1342 C 93.9825,281.9475 93.9825,284.8542 93.9825,292.6053 L 93.9825,429.2191 C 93.9825,436.9702 93.9825,439.8769 238.3474,445.6902 C 322.6410,448.5969 414.6857,450.5347 479.6014,450.5347 C 544.5172,450.5347 636.5619,448.5969 720.8555,445.6902 C 865.2204,439.8769 865.2204,436.9702 865.2204,429.2191 L 865.2204,292.6053 C 865.2204,284.8542 865.2204,281.9475 720.8555,276.1342 C 636.5619,273.2275 544.5172,271.2897 479.6014,271.2897 C 414.6857,271.2897 322.6410,273.2275 238.3474,276.1342 " stroke="#ADDBED" stroke-width="0.9689" stroke-linecap="butt" stroke-linejoin="round" fill="none"/>
        </g>
        <g transform="matrix(1.0000 0.0000 0.0000 1.0000 0.0000 0.0000)">
          <path d="M 15.5023,36.8179 C 6.7822,37.7868 6.7822,37.7868 6.7822,38.7557 L 6.7822,46.5068 C 6.7822,47.4757 6.7822,47.4757 15.5023,47.4757 C 20.3467,48.4446 26.1601,48.4446 30.0356,48.4446 C 34.8801,48.4446 40.6935,48.4446 45.5379,47.4757 C 54.2579,47.4757 54.2579,47.4757 54.2579,46.5068 L 54.2579,38.7557 C 54.2579,37.7868 54.2579,37.7868 45.5379,36.8179 C 40.6935,36.8179 34.8801,36.8179 30.0356,36.8179 C 26.1601,36.8179 20.3467,36.8179 15.5023,36.8179 Z " fill="none" stroke="none"/>
          <defs>
            <clipPath id="clip-137806862">
              <path d="M 15.5023,36.8179 C 6.7822,37.7868 6.7822,37.7868 6.7822,38.7557 L 6.7822,46.5068 C 6.7822,47.4757 6.7822,47.4757 15.5023,47.4757 C 20.3467,48.4446 26.1601,48.4446 30.0356,48.4446 C 34.8801,48.4446 40.6935,48.4446 45.5379,47.4757 C 54.2579,47.4757 54.2579,47.4757 54.2579,46.5068 L 54.2579,38.7557 C 54.2579,37.7868 54.2579,37.7868 45.5379,36.8179 C 40.6935,36.8179 34.8801,36.8179 30.0356,36.8179 C 26.1601,36.8179 20.3467,36.8179 15.5023,36.8179 Z"/>
            </clipPath>
          </defs>
          <path clip-path="url(#clip-137806862)" d="M 5.8134,35.8490 L 5.8134,36.8179 L 54.2579,36.8179 L 54.2579,35.8490 L 5.8134,35.8490 Z" stroke-width="1px" stroke="#B6E0EF" fill="#B6E0EF"/>
          <path clip-path="url(#clip-137806862)" d="M 5.8134,36.8179 L 5.8134,37.7868 L 54.2579,37.7868 L 54.2579,36.8179 L 5.8134,36.8179 Z" stroke-width="1px" stroke="#B2DDEE" fill="#B2DDEE"/>
          <path clip-path="url(#clip-137806862)" d="M 5.8134,37.7868 L 5.8134,38.7557 L 54.2579,38.7557 L 54.2579,37.7868 L 5.8134,37.7868 Z" stroke-width="1px" stroke="#C0E3F2" fill="#C0E3F2"/>
          <path clip-path="url(#clip-137806862)" d="M 5.8134,38.7557 L 5.8134,39.7246 L 54.2579,39.7246 L 54.2579,38.7557 L 5.8134,38.7557 Z" stroke-width="1px" stroke="#CEEAF4" fill="#CEEAF4"/>
          <path clip-path="url(#clip-137806862)" d="M 5.8134,39.7246 L 5.8134,40.6935 L 54.2579,40.6935 L 54.2579,39.7246 L 5.8134,39.7246 Z" stroke-width="1px" stroke="#DCF0F7" fill="#DCF0F7"/>
          <path clip-path="url(#clip-137806862)" d="M 5.8134,40.6935 L 5.8134,41.6623 L 54.2579,41.6623 L 54.2579,40.6935 L 5.8134,40.6935 Z" stroke-width="1px" stroke="#EBF6FB" fill="#EBF6FB"/>
          <path clip-path="url(#clip-137806862)" d="M 5.8134,41.6623 L 5.8134,42.6312 L 54.2579,42.6312 L 54.2579,41.6623 L 5.8134,41.6623 Z" stroke-width="1px" stroke="#F9FDFE" fill="#F9FDFE"/>
          <path clip-path="url(#clip-137806862)" d="M 5.8134,42.6312 L 5.8134,43.6001 L 54.2579,43.6001 L 54.2579,42.6312 L 5.8134,42.6312 Z" stroke-width="1px" stroke="#F7FCFD" fill="#F7FCFD"/>
          <path clip-path="url(#clip-137806862)" d="M 5.8134,43.6001 L 5.8134,44.5690 L 54.2579,44.5690 L 54.2579,43.6001 L 5.8134,43.6001 Z" stroke-width="1px" stroke="#EAF5FB" fill="#EAF5FB"/>
          <path clip-path="url(#clip-137806862)" d="M 5.8134,44.5690 L 5.8134,45.5379 L 54.2579,45.5379 L 54.2579,44.5690 L 5.8134,44.5690 Z" stroke-width="1px" stroke="#DBEFF7" fill="#DBEFF7"/>
          <path clip-path="url(#clip-137806862)" d="M 5.8134,45.5379 L 5.8134,46.5068 L 54.2579,46.5068 L 54.2579,45.5379 L 5.8134,45.5379 Z" stroke-width="1px" stroke="#CDE9F4" fill="#CDE9F4"/>
          <path clip-path="url(#clip-137806862)" d="M 5.8134,46.5068 L 5.8134,47.4757 L 54.2579,47.4757 L 54.2579,46.5068 L 5.8134,46.5068 Z" stroke-width="1px" stroke="#BFE3F1" fill="#BFE3F1"/>
        </g>
        <g transform="matrix(0.0625 0.0000 0.0000 0.0625 0.0000 0.0000)">
          <path d="M 238.3474,589.0862 C 93.9825,594.8996 93.9825,597.8062 93.9825,606.5263 L 93.9825,742.1711 C 93.9825,749.9223 93.9825,752.8289 238.3474,758.6423 C 322.6410,761.5490 414.6857,764.4556 479.6014,764.4556 C 544.5172,764.4556 636.5619,761.5490 720.8555,758.6423 C 865.2204,752.8289 865.2204,749.9223 865.2204,742.1711 L 865.2204,606.5263 C 865.2204,597.8062 865.2204,594.8996 720.8555,589.0862 C 636.5619,586.1795 544.5172,584.2418 479.6014,584.2418 C 414.6857,584.2418 322.6410,586.1795 238.3474,589.0862 " stroke="#ADDBED" stroke-width="0.9689" stroke-linecap="butt" stroke-linejoin="round" fill="none"/>
        </g>
        <g transform="matrix(1.0000 0.0000 0.0000 1.0000 0.0000 0.0000)">
          <path d="M 15.5023,51.3513 C 6.7822,52.3202 6.7822,52.3202 6.7822,52.3202 L 6.7822,61.0402 C 6.7822,62.0091 6.7822,62.0091 15.5023,62.0091 C 20.3467,62.0091 26.1601,62.9780 30.0356,62.9780 C 34.8801,62.9780 40.6935,62.0091 45.5379,62.0091 C 54.2579,62.0091 54.2579,62.0091 54.2579,61.0402 L 54.2579,52.3202 C 54.2579,52.3202 54.2579,52.3202 45.5379,51.3513 C 40.6935,51.3513 34.8801,51.3513 30.0356,51.3513 C 26.1601,51.3513 20.3467,51.3513 15.5023,51.3513 Z " fill="none" stroke="none"/>
          <defs>
            <clipPath id="clip-42999170">
              <path d="M 15.5023,51.3513 C 6.7822,52.3202 6.7822,52.3202 6.7822,52.3202 L 6.7822,61.0402 C 6.7822,62.0091 6.7822,62.0091 15.5023,62.0091 C 20.3467,62.0091 26.1601,62.9780 30.0356,62.9780 C 34.8801,62.9780 40.6935,62.0091 45.5379,62.0091 C 54.2579,62.0091 54.2579,62.0091 54.2579,61.0402 L 54.2579,52.3202 C 54.2579,52.3202 54.2579,52.3202 45.5379,51.3513 C 40.6935,51.3513 34.8801,51.3513 30.0356,51.3513 C 26.1601,51.3513 20.3467,51.3513 15.5023,51.3513 Z"/>
            </clipPath>
          </defs>
          <path clip-path="url(#clip-42999170)" d="M 5.8134,50.3824 L 5.8134,51.3513 L 54.2579,51.3513 L 54.2579,50.3824 L 5.8134,50.3824 Z" stroke-width="1px" stroke="#B5DFEF" fill="#B5DFEF"/>
          <path clip-path="url(#clip-42999170)" d="M 5.8134,51.3513 L 5.8134,52.3202 L 54.2579,52.3202 L 54.2579,51.3513 L 5.8134,51.3513 Z" stroke-width="1px" stroke="#B3DEEE" fill="#B3DEEE"/>
          <path clip-path="url(#clip-42999170)" d="M 5.8134,52.3202 L 5.8134,53.2890 L 54.2579,53.2890 L 54.2579,52.3202 L 5.8134,52.3202 Z" stroke-width="1px" stroke="#C2E4F2" fill="#C2E4F2"/>
          <path clip-path="url(#clip-42999170)" d="M 5.8134,53.2890 L 5.8134,54.2579 L 54.2579,54.2579 L 54.2579,53.2890 L 5.8134,53.2890 Z" stroke-width="1px" stroke="#D0EBF5" fill="#D0EBF5"/>
          <path clip-path="url(#clip-42999170)" d="M 5.8134,54.2579 L 5.8134,55.2268 L 54.2579,55.2268 L 54.2579,54.2579 L 5.8134,54.2579 Z" stroke-width="1px" stroke="#DEF1F8" fill="#DEF1F8"/>
          <path clip-path="url(#clip-42999170)" d="M 5.8134,55.2268 L 5.8134,56.1957 L 54.2579,56.1957 L 54.2579,55.2268 L 5.8134,55.2268 Z" stroke-width="1px" stroke="#ECF7FB" fill="#ECF7FB"/>
          <path clip-path="url(#clip-42999170)" d="M 5.8134,56.1957 L 5.8134,57.1646 L 54.2579,57.1646 L 54.2579,56.1957 L 5.8134,56.1957 Z" stroke-width="1px" stroke="#FAFDFE" fill="#FAFDFE"/>
          <path clip-path="url(#clip-42999170)" d="M 5.8134,57.1646 L 5.8134,58.1335 L 54.2579,58.1335 L 54.2579,57.1646 L 5.8134,57.1646 Z" stroke-width="1px" stroke="#F6FBFD" fill="#F6FBFD"/>
          <path clip-path="url(#clip-42999170)" d="M 5.8134,58.1335 L 5.8134,59.1024 L 54.2579,59.1024 L 54.2579,58.1335 L 5.8134,58.1335 Z" stroke-width="1px" stroke="#E8F5FA" fill="#E8F5FA"/>
          <path clip-path="url(#clip-42999170)" d="M 5.8134,59.1024 L 5.8134,60.0713 L 54.2579,60.0713 L 54.2579,59.1024 L 5.8134,59.1024 Z" stroke-width="1px" stroke="#D9EFF7" fill="#D9EFF7"/>
          <path clip-path="url(#clip-42999170)" d="M 5.8134,60.0713 L 5.8134,61.0402 L 54.2579,61.0402 L 54.2579,60.0713 L 5.8134,60.0713 Z" stroke-width="1px" stroke="#CCE9F4" fill="#CCE9F4"/>
          <path clip-path="url(#clip-42999170)" d="M 5.8134,61.0402 L 5.8134,62.0091 L 54.2579,62.0091 L 54.2579,61.0402 L 5.8134,61.0402 Z" stroke-width="1px" stroke="#BDE2F1" fill="#BDE2F1"/>
        </g>
        <g transform="matrix(0.0625 0.0000 0.0000 0.0625 0.0000 0.0000)">
          <path d="M 238.3474,820.6514 C 93.9825,826.4647 93.9825,828.4025 93.9825,837.1225 L 93.9825,972.7674 C 93.9825,981.4874 93.9825,983.4252 238.3474,989.2385 C 322.6410,993.1141 414.6857,995.0519 479.6014,995.0519 C 544.5172,995.0519 636.5619,993.1141 720.8555,989.2385 C 865.2204,983.4252 865.2204,981.4874 865.2204,972.7674 L 865.2204,837.1225 C 865.2204,828.4025 865.2204,826.4647 720.8555,820.6514 C 636.5619,816.7758 544.5172,814.8380 479.6014,814.8380 C 414.6857,814.8380 322.6410,816.7758 238.3474,820.6514 " stroke="#ADDBED" stroke-width="0.9689" stroke-linecap="butt" stroke-linejoin="round" fill="none"/>
        </g>
        <g transform="matrix(1.0000 0.0000 0.0000 1.0000 0.0000 0.0000)">
</g>
        <g transform="matrix(0.0625 0.0000 0.0000 0.0625 0.0000 0.0000)">
          <path d="M 318.7654,903.9761 C 318.7654,868.1271 326.5165,832.2781 336.2055,832.2781 L 347.8322,832.2781 C 352.6766,832.2781 355.5833,836.1536 355.5833,840.9981 L 355.5833,966.9540 C 355.5833,971.7985 352.6766,975.6740 347.8322,975.6740 L 336.2055,975.6740 C 326.5165,975.6740 318.7654,939.8250 318.7654,903.9761 Z M 423.4057,968.8918 C 423.4057,973.7363 419.5302,977.6118 414.6857,977.6118 L 403.0590,977.6118 C 393.3701,977.6118 385.6189,940.7939 385.6189,903.9761 C 385.6189,867.1582 393.3701,830.3403 403.0590,830.3403 L 414.6857,830.3403 C 419.5302,830.3403 423.4057,834.2158 423.4057,840.0292 L 423.4057,968.8918 Z M 154.0538,961.1407 C 154.0538,965.9851 150.1782,969.8607 146.3027,969.8607 L 134.6760,969.8607 C 125.9559,969.8607 119.1737,936.9184 119.1737,903.9761 C 119.1737,871.0337 125.9559,838.0914 134.6760,838.0914 L 146.3027,838.0914 C 150.1782,838.0914 154.0538,841.9670 154.0538,845.8425 L 154.0538,961.1407 Z M 186.0272,903.9761 C 186.0272,870.0648 192.8095,836.1536 201.5295,836.1536 L 213.1562,836.1536 C 218.0007,836.1536 220.9073,840.0292 220.9073,844.8737 L 220.9073,963.0785 C 220.9073,967.9229 218.0007,971.7985 213.1562,971.7985 L 201.5295,971.7985 C 192.8095,971.7985 186.0272,937.8873 186.0272,903.9761 Z M 252.8808,903.9761 C 252.8808,869.0959 259.6630,834.2158 269.3519,834.2158 L 280.0097,834.2158 C 284.8542,834.2158 288.7298,838.0914 288.7298,842.9359 L 288.7298,965.0162 C 288.7298,969.8607 284.8542,973.7363 280.0097,973.7363 L 269.3519,973.7363 C 259.6630,973.7363 252.8808,938.8562 252.8808,903.9761 Z M 707.2910,903.9761 C 707.2910,869.0959 700.5088,834.2158 690.8199,834.2158 L 679.1932,834.2158 C 674.3487,834.2158 670.4731,838.0914 670.4731,842.9359 L 670.4731,965.0162 C 670.4731,969.8607 674.3487,973.7363 679.1932,973.7363 L 690.8199,973.7363 C 700.5088,973.7363 707.2910,938.8562 707.2910,903.9761 Z M 773.1757,903.9761 C 773.1757,870.0648 767.3623,836.1536 757.6734,836.1536 L 746.0467,836.1536 C 741.2022,836.1536 738.2956,840.0292 738.2956,844.8737 L 738.2956,963.0785 C 738.2956,967.9229 741.2022,971.7985 746.0467,971.7985 L 757.6734,971.7985 C 767.3623,971.7985 773.1757,937.8873 773.1757,903.9761 Z M 805.1491,961.1407 C 805.1491,965.9851 809.0247,969.8607 812.9002,969.8607 L 824.5269,969.8607 C 833.2470,969.8607 840.0292,936.9184 840.0292,903.9761 C 840.0292,871.0337 833.2470,838.0914 824.5269,838.0914 L 812.9002,838.0914 C 809.0247,838.0914 805.1491,841.9670 805.1491,845.8425 L 805.1491,961.1407 Z M 473.7881,910.7583 L 473.7881,942.7317 C 473.7881,949.5140 479.6014,954.3584 485.4148,954.3584 L 608.4641,954.3584 C 614.2774,954.3584 620.0908,949.5140 620.0908,942.7317 L 620.0908,910.7583 L 473.7881,910.7583 Z M 318.7654,673.3798 C 318.7654,637.5308 326.5165,601.6818 336.2055,601.6818 L 347.8322,601.6818 C 352.6766,601.6818 355.5833,605.5574 355.5833,610.4018 L 355.5833,736.3578 C 355.5833,741.2022 352.6766,745.0778 347.8322,745.0778 L 336.2055,745.0778 C 326.5165,745.0778 318.7654,709.2288 318.7654,673.3798 Z M 423.4057,737.3267 C 423.4057,743.1400 419.5302,747.0156 414.6857,747.0156 L 403.0590,747.0156 C 393.3701,747.0156 385.6189,710.1977 385.6189,673.3798 C 385.6189,636.5619 393.3701,599.7440 403.0590,599.7440 L 414.6857,599.7440 C 419.5302,599.7440 423.4057,603.6196 423.4057,608.4641 L 423.4057,737.3267 Z M 154.0538,730.5444 C 154.0538,735.3889 150.1782,739.2644 146.3027,739.2644 L 134.6760,739.2644 C 125.9559,739.2644 119.1737,706.3221 119.1737,673.3798 C 119.1737,640.4375 125.9559,607.4952 134.6760,607.4952 L 146.3027,607.4952 C 150.1782,607.4952 154.0538,610.4018 154.0538,615.2463 L 154.0538,730.5444 Z M 186.0272,673.3798 C 186.0272,639.4686 192.8095,605.5574 201.5295,605.5574 L 213.1562,605.5574 C 218.0007,605.5574 220.9073,609.4329 220.9073,613.3085 L 220.9073,732.4822 C 220.9073,737.3267 218.0007,741.2022 213.1562,741.2022 L 201.5295,741.2022 C 192.8095,741.2022 186.0272,707.2910 186.0272,673.3798 Z M 252.8808,673.3798 C 252.8808,638.4997 259.6630,603.6196 269.3519,603.6196 L 280.0097,603.6196 C 284.8542,603.6196 288.7298,607.4952 288.7298,612.3396 L 288.7298,734.4200 C 288.7298,739.2644 284.8542,743.1400 280.0097,743.1400 L 269.3519,743.1400 C 259.6630,743.1400 252.8808,708.2599 252.8808,673.3798 Z M 707.2910,673.3798 C 707.2910,638.4997 700.5088,603.6196 690.8199,603.6196 L 679.1932,603.6196 C 674.3487,603.6196 670.4731,607.4952 670.4731,612.3396 L 670.4731,734.4200 C 670.4731,739.2644 674.3487,743.1400 679.1932,743.1400 L 690.8199,743.1400 C 700.5088,743.1400 707.2910,708.2599 707.2910,673.3798 Z M 773.1757,673.3798 C 773.1757,639.4686 767.3623,605.5574 757.6734,605.5574 L 746.0467,605.5574 C 741.2022,605.5574 738.2956,609.4329 738.2956,613.3085 L 738.2956,732.4822 C 738.2956,737.3267 741.2022,741.2022 746.0467,741.2022 L 757.6734,741.2022 C 767.3623,741.2022 773.1757,707.2910 773.1757,673.3798 Z M 805.1491,730.5444 C 805.1491,735.3889 809.0247,739.2644 812.9002,739.2644 L 824.5269,739.2644 C 833.2470,739.2644 840.0292,706.3221 840.0292,673.3798 C 840.0292,640.4375 833.2470,607.4952 824.5269,607.4952 L 812.9002,607.4952 C 809.0247,607.4952 805.1491,610.4018 805.1491,615.2463 L 805.1491,730.5444 Z M 473.7881,680.1620 L 473.7881,712.1355 C 473.7881,718.9177 479.6014,723.7622 485.4148,723.7622 L 608.4641,723.7622 C 614.2774,723.7622 620.0908,718.9177 620.0908,712.1355 L 620.0908,680.1620 L 473.7881,680.1620 Z M 318.7654,360.4278 C 318.7654,324.5788 326.5165,288.7298 336.2055,288.7298 L 347.8322,288.7298 C 352.6766,288.7298 355.5833,292.6053 355.5833,297.4498 L 355.5833,422.4368 C 355.5833,427.2813 352.6766,432.1257 347.8322,432.1257 L 336.2055,432.1257 C 326.5165,432.1257 318.7654,396.2767 318.7654,360.4278 Z M 423.4057,424.3746 C 423.4057,429.2191 419.5302,434.0635 414.6857,434.0635 L 403.0590,434.0635 C 393.3701,434.0635 385.6189,397.2456 385.6189,360.4278 C 385.6189,323.6099 393.3701,286.7920 403.0590,286.7920 L 414.6857,286.7920 C 419.5302,286.7920 423.4057,290.6675 423.4057,295.5120 L 423.4057,424.3746 Z M 154.0538,417.5924 C 154.0538,422.4368 150.1782,425.3435 146.3027,425.3435 L 134.6760,425.3435 C 125.9559,425.3435 119.1737,392.4012 119.1737,359.4589 C 119.1737,326.5165 125.9559,293.5742 134.6760,293.5742 L 146.3027,293.5742 C 150.1782,293.5742 154.0538,297.4498 154.0538,302.2942 L 154.0538,417.5924 Z M 186.0272,359.4589 C 186.0272,325.5476 192.8095,291.6364 201.5295,291.6364 L 213.1562,291.6364 C 218.0007,291.6364 220.9073,295.5120 220.9073,300.3565 L 220.9073,419.5302 C 220.9073,424.3746 218.0007,427.2813 213.1562,427.2813 L 201.5295,427.2813 C 192.8095,427.2813 186.0272,393.3701 186.0272,359.4589 Z M 252.8808,360.4278 C 252.8808,325.5476 259.6630,290.6675 269.3519,290.6675 L 280.0097,290.6675 C 284.8542,290.6675 288.7298,294.5431 288.7298,299.3876 L 288.7298,421.4679 C 288.7298,426.3124 284.8542,430.1880 280.0097,430.1880 L 269.3519,430.1880 C 259.6630,430.1880 252.8808,395.3079 252.8808,360.4278 Z M 707.2910,360.4278 C 707.2910,325.5476 700.5088,290.6675 690.8199,290.6675 L 679.1932,290.6675 C 674.3487,290.6675 670.4731,294.5431 670.4731,299.3876 L 670.4731,421.4679 C 670.4731,426.3124 674.3487,430.1880 679.1932,430.1880 L 690.8199,430.1880 C 700.5088,430.1880 707.2910,395.3079 707.2910,360.4278 Z M 773.1757,359.4589 C 773.1757,325.5476 767.3623,291.6364 757.6734,291.6364 L 746.0467,291.6364 C 741.2022,291.6364 738.2956,295.5120 738.2956,300.3565 L 738.2956,419.5302 C 738.2956,424.3746 741.2022,427.2813 746.0467,427.2813 L 757.6734,427.2813 C 767.3623,427.2813 773.1757,393.3701 773.1757,359.4589 Z M 805.1491,417.5924 C 805.1491,422.4368 809.0247,425.3435 812.9002,425.3435 L 824.5269,425.3435 C 833.2470,425.3435 840.0292,392.4012 840.0292,359.4589 C 840.0292,326.5165 833.2470,293.5742 824.5269,293.5742 L 812.9002,293.5742 C 809.0247,293.5742 805.1491,297.4498 805.1491,302.2942 L 805.1491,417.5924 Z M 473.7881,367.2100 L 473.7881,399.1834 C 473.7881,404.9968 479.6014,410.8101 485.4148,410.8101 L 608.4641,410.8101 C 614.2774,410.8101 620.0908,404.9968 620.0908,399.1834 L 620.0908,367.2100 L 473.7881,367.2100 Z M 318.7654,128.8626 C 318.7654,93.0136 326.5165,57.1646 336.2055,57.1646 L 347.8322,57.1646 C 352.6766,57.1646 355.5833,61.0402 355.5833,66.8535 L 355.5833,191.8406 C 355.5833,196.6850 352.6766,200.5606 347.8322,200.5606 L 336.2055,200.5606 C 326.5165,200.5606 318.7654,164.7116 318.7654,128.8626 Z M 423.4057,193.7784 C 423.4057,198.6228 419.5302,202.4984 414.6857,202.4984 L 403.0590,202.4984 C 393.3701,202.4984 385.6189,165.6805 385.6189,128.8626 C 385.6189,92.0447 393.3701,55.2268 403.0590,55.2268 L 414.6857,55.2268 C 419.5302,55.2268 423.4057,60.0713 423.4057,64.9158 L 423.4057,193.7784 Z M 154.0538,186.9961 C 154.0538,190.8717 150.1782,194.7473 146.3027,194.7473 L 134.6760,194.7473 C 125.9559,194.7473 119.1737,161.8049 119.1737,128.8626 C 119.1737,95.9203 125.9559,62.9780 134.6760,62.9780 L 146.3027,62.9780 C 150.1782,62.9780 154.0538,66.8535 154.0538,71.6980 L 154.0538,186.9961 Z M 186.0272,128.8626 C 186.0272,94.9514 192.8095,61.0402 201.5295,61.0402 L 213.1562,61.0402 C 218.0007,61.0402 220.9073,64.9158 220.9073,69.7602 L 220.9073,187.9650 C 220.9073,192.8095 218.0007,196.6850 213.1562,196.6850 L 201.5295,196.6850 C 192.8095,196.6850 186.0272,162.7738 186.0272,128.8626 Z M 252.8808,128.8626 C 252.8808,93.9825 259.6630,59.1024 269.3519,59.1024 L 280.0097,59.1024 C 284.8542,59.1024 288.7298,62.9780 288.7298,67.8224 L 288.7298,189.9028 C 288.7298,194.7473 284.8542,198.6228 280.0097,198.6228 L 269.3519,198.6228 C 259.6630,198.6228 252.8808,163.7427 252.8808,128.8626 Z M 707.2910,128.8626 C 707.2910,93.9825 700.5088,59.1024 690.8199,59.1024 L 679.1932,59.1024 C 674.3487,59.1024 670.4731,62.9780 670.4731,67.8224 L 670.4731,189.9028 C 670.4731,194.7473 674.3487,198.6228 679.1932,198.6228 L 690.8199,198.6228 C 700.5088,198.6228 707.2910,163.7427 707.2910,128.8626 Z M 773.1757,128.8626 C 773.1757,94.9514 767.3623,61.0402 757.6734,61.0402 L 746.0467,61.0402 C 741.2022,61.0402 738.2956,64.9158 738.2956,69.7602 L 738.2956,187.9650 C 738.2956,192.8095 741.2022,196.6850 746.0467,196.6850 L 757.6734,196.6850 C 767.3623,196.6850 773.1757,162.7738 773.1757,128.8626 Z M 805.1491,186.9961 C 805.1491,190.8717 809.0247,194.7473 812.9002,194.7473 L 824.5269,194.7473 C 833.2470,194.7473 840.0292,161.8049 840.0292,128.8626 C 840.0292,95.9203 833.2470,62.9780 824.5269,62.9780 L 812.9002,62.9780 C 809.0247,62.9780 805.1491,66.8535 805.1491,71.6980 L 805.1491,186.9961 Z M 473.7881,135.6449 L 473.7881,167.6183 C 473.7881,174.4005 479.6014,180.2139 485.4148,180.2139 L 608.4641,180.2139 C 614.2774,180.2139 620.0908,174.4005 620.0908,167.6183 L 620.0908,135.6449 L 473.7881,135.6449 Z " fill="#0054A6" stroke="none"/>
        </g>
        <g transform="matrix(1.0000 0.0000 0.0000 1.0000 0.0000 0.0000)">
</g>
        <g transform="matrix(0.0625 0.0000 0.0000 0.0625 0.0000 0.0000)">
          <path d="M 473.7881,680.1620 L 620.0908,680.1620 L 620.0908,655.9398 L 473.7881,655.9398 L 473.7881,680.1620 Z M 473.7881,910.7583 L 620.0908,910.7583 L 620.0908,886.5360 L 473.7881,886.5360 L 473.7881,910.7583 Z M 473.7881,136.6137 L 620.0908,136.6137 L 620.0908,112.3914 L 473.7881,112.3914 L 473.7881,136.6137 Z M 473.7881,367.2100 L 620.0908,367.2100 L 620.0908,342.9877 L 473.7881,342.9877 L 473.7881,367.2100 Z " fill="#8DC63F" stroke-width="1px" stroke="#8DC63F"/>
        </g>
        <g transform="matrix(1.0000 0.0000 0.0000 1.0000 0.0000 0.0000)">
          <path d="M 4.8445,16.4712 L 1.9378,16.4712 L 1.9378,28.0979 L 4.8445,30.0356 L 4.8445,16.4712 " fill="none" stroke="none"/>
          <defs>
            <clipPath id="clip-982906996">
              <path d="M 4.8445,16.4712 L 1.9378,16.4712 L 1.9378,28.0979 L 4.8445,30.0356 L 4.8445,16.4712 Z"/>
            </clipPath>
          </defs>
          <path clip-path="url(#clip-982906996)" d="M 0.9689,15.5023 L 0.9689,16.4712 L 3.8756,16.4712 L 3.8756,15.5023 L 0.9689,15.5023 Z" stroke-width="1px" stroke="#56BCEB" fill="#56BCEB"/>
          <path clip-path="url(#clip-982906996)" d="M 0.9689,16.4712 L 0.9689,17.4401 L 3.8756,17.4401 L 3.8756,16.4712 L 0.9689,16.4712 Z" stroke-width="1px" stroke="#057BC3" fill="#057BC3"/>
          <path clip-path="url(#clip-982906996)" d="M 0.9689,17.4401 L 0.9689,18.4089 L 3.8756,18.4089 L 3.8756,17.4401 L 0.9689,17.4401 Z" stroke-width="1px" stroke="#0C81C5" fill="#0C81C5"/>
          <path clip-path="url(#clip-982906996)" d="M 0.9689,18.4089 L 0.9689,19.3778 L 3.8756,19.3778 L 3.8756,18.4089 L 0.9689,18.4089 Z" stroke-width="1px" stroke="#1285C9" fill="#1285C9"/>
          <path clip-path="url(#clip-982906996)" d="M 0.9689,19.3778 L 0.9689,20.3467 L 3.8756,20.3467 L 3.8756,19.3778 L 0.9689,19.3778 Z" stroke-width="1px" stroke="#188ACC" fill="#188ACC"/>
          <path clip-path="url(#clip-982906996)" d="M 0.9689,20.3467 L 0.9689,21.3156 L 3.8756,21.3156 L 3.8756,20.3467 L 0.9689,20.3467 Z" stroke-width="1px" stroke="#1D8FCE" fill="#1D8FCE"/>
          <path clip-path="url(#clip-982906996)" d="M 0.9689,21.3156 L 0.9689,22.2845 L 3.8756,22.2845 L 3.8756,21.3156 L 0.9689,21.3156 Z" stroke-width="1px" stroke="#2393D2" fill="#2393D2"/>
          <path clip-path="url(#clip-982906996)" d="M 0.9689,22.2845 L 0.9689,23.2534 L 3.8756,23.2534 L 3.8756,22.2845 L 0.9689,22.2845 Z" stroke-width="1px" stroke="#2998D5" fill="#2998D5"/>
          <path clip-path="url(#clip-982906996)" d="M 0.9689,23.2534 L 0.9689,24.2223 L 3.8756,24.2223 L 3.8756,23.2534 L 0.9689,23.2534 Z" stroke-width="1px" stroke="#2F9DD8" fill="#2F9DD8"/>
          <path clip-path="url(#clip-982906996)" d="M 0.9689,24.2223 L 0.9689,25.1912 L 3.8756,25.1912 L 3.8756,24.2223 L 0.9689,24.2223 Z" stroke-width="1px" stroke="#35A1DB" fill="#35A1DB"/>
          <path clip-path="url(#clip-982906996)" d="M 0.9689,25.1912 L 0.9689,26.1601 L 3.8756,26.1601 L 3.8756,25.1912 L 0.9689,25.1912 Z" stroke-width="1px" stroke="#3BA6DE" fill="#3BA6DE"/>
          <path clip-path="url(#clip-982906996)" d="M 0.9689,26.1601 L 0.9689,27.1290 L 3.8756,27.1290 L 3.8756,26.1601 L 0.9689,26.1601 Z" stroke-width="1px" stroke="#41ABE0" fill="#41ABE0"/>
          <path clip-path="url(#clip-982906996)" d="M 0.9689,27.1290 L 0.9689,28.0979 L 3.8756,28.0979 L 3.8756,27.1290 L 0.9689,27.1290 Z" stroke-width="1px" stroke="#47B0E4" fill="#47B0E4"/>
          <path clip-path="url(#clip-982906996)" d="M 0.9689,28.0979 L 0.9689,29.0668 L 3.8756,29.0668 L 3.8756,28.0979 L 0.9689,28.0979 Z" stroke-width="1px" stroke="#4DB4E7" fill="#4DB4E7"/>
          <path clip-path="url(#clip-982906996)" d="M 0.9689,29.0668 L 0.9689,30.0356 L 3.8756,30.0356 L 3.8756,29.0668 L 0.9689,29.0668 Z" stroke-width="1px" stroke="#53B9E9" fill="#53B9E9"/>
        </g>
        <g transform="matrix(0.0625 0.0000 0.0000 0.0625 0.0000 0.0000)">
          <path d="M 63.9469,249.0052 L 18.4089,249.0052 L 18.4089,448.5969 L 63.9469,474.7570 L 63.9469,249.0052 " stroke="#0054A6" stroke-width="9.6889" stroke-linecap="round" stroke-linejoin="round" fill="none"/>
        </g>
        <g transform="matrix(1.0000 0.0000 0.0000 1.0000 0.0000 0.0000)">
          <path d="M 4.8445,1.9378 L 1.9378,2.9067 L 1.9378,15.5023 L 4.8445,15.5023 L 4.8445,1.9378 " fill="none" stroke="none"/>
          <defs>
            <clipPath id="clip-135497281">
              <path d="M 4.8445,1.9378 L 1.9378,2.9067 L 1.9378,15.5023 L 4.8445,15.5023 L 4.8445,1.9378 Z"/>
            </clipPath>
          </defs>
          <path clip-path="url(#clip-135497281)" d="M 0.9689,0.9689 L 0.9689,1.9378 L 3.8756,1.9378 L 3.8756,0.9689 L 0.9689,0.9689 Z" stroke-width="1px" stroke="#55BBEA" fill="#55BBEA"/>
          <path clip-path="url(#clip-135497281)" d="M 0.9689,1.9378 L 0.9689,2.9067 L 3.8756,2.9067 L 3.8756,1.9378 L 0.9689,1.9378 Z" stroke-width="1px" stroke="#057BC3" fill="#057BC3"/>
          <path clip-path="url(#clip-135497281)" d="M 0.9689,2.9067 L 0.9689,3.8756 L 3.8756,3.8756 L 3.8756,2.9067 L 0.9689,2.9067 Z" stroke-width="1px" stroke="#0B80C5" fill="#0B80C5"/>
          <path clip-path="url(#clip-135497281)" d="M 0.9689,3.8756 L 0.9689,4.8445 L 3.8756,4.8445 L 3.8756,3.8756 L 0.9689,3.8756 Z" stroke-width="1px" stroke="#1185C8" fill="#1185C8"/>
          <path clip-path="url(#clip-135497281)" d="M 0.9689,4.8445 L 0.9689,5.8134 L 3.8756,5.8134 L 3.8756,4.8445 L 0.9689,4.8445 Z" stroke-width="1px" stroke="#1789CB" fill="#1789CB"/>
          <path clip-path="url(#clip-135497281)" d="M 0.9689,5.8134 L 0.9689,6.7822 L 3.8756,6.7822 L 3.8756,5.8134 L 0.9689,5.8134 Z" stroke-width="1px" stroke="#1D8ECE" fill="#1D8ECE"/>
          <path clip-path="url(#clip-135497281)" d="M 0.9689,6.7822 L 0.9689,7.7511 L 3.8756,7.7511 L 3.8756,6.7822 L 0.9689,6.7822 Z" stroke-width="1px" stroke="#2393D1" fill="#2393D1"/>
          <path clip-path="url(#clip-135497281)" d="M 0.9689,7.7511 L 0.9689,8.7200 L 3.8756,8.7200 L 3.8756,7.7511 L 0.9689,7.7511 Z" stroke-width="1px" stroke="#2998D5" fill="#2998D5"/>
          <path clip-path="url(#clip-135497281)" d="M 0.9689,8.7200 L 0.9689,9.6889 L 3.8756,9.6889 L 3.8756,8.7200 L 0.9689,8.7200 Z" stroke-width="1px" stroke="#2E9DD7" fill="#2E9DD7"/>
          <path clip-path="url(#clip-135497281)" d="M 0.9689,9.6889 L 0.9689,10.6578 L 3.8756,10.6578 L 3.8756,9.6889 L 0.9689,9.6889 Z" stroke-width="1px" stroke="#34A1DA" fill="#34A1DA"/>
          <path clip-path="url(#clip-135497281)" d="M 0.9689,10.6578 L 0.9689,11.6267 L 3.8756,11.6267 L 3.8756,10.6578 L 0.9689,10.6578 Z" stroke-width="1px" stroke="#3AA5DE" fill="#3AA5DE"/>
          <path clip-path="url(#clip-135497281)" d="M 0.9689,11.6267 L 0.9689,12.5956 L 3.8756,12.5956 L 3.8756,11.6267 L 0.9689,11.6267 Z" stroke-width="1px" stroke="#41ABE0" fill="#41ABE0"/>
          <path clip-path="url(#clip-135497281)" d="M 0.9689,12.5956 L 0.9689,13.5645 L 3.8756,13.5645 L 3.8756,12.5956 L 0.9689,12.5956 Z" stroke-width="1px" stroke="#46AFE3" fill="#46AFE3"/>
          <path clip-path="url(#clip-135497281)" d="M 0.9689,13.5645 L 0.9689,14.5334 L 3.8756,14.5334 L 3.8756,13.5645 L 0.9689,13.5645 Z" stroke-width="1px" stroke="#4CB4E6" fill="#4CB4E6"/>
          <path clip-path="url(#clip-135497281)" d="M 0.9689,14.5334 L 0.9689,15.5023 L 3.8756,15.5023 L 3.8756,14.5334 L 0.9689,14.5334 Z" stroke-width="1px" stroke="#52B9E9" fill="#52B9E9"/>
        </g>
        <g transform="matrix(0.0625 0.0000 0.0000 0.0625 0.0000 0.0000)">
          <path d="M 63.9469,18.4089 L 18.4089,44.5690 L 18.4089,243.1918 L 63.9469,243.1918 L 63.9469,18.4089 " stroke="#0054A6" stroke-width="9.6889" stroke-linecap="round" stroke-linejoin="round" fill="none"/>
        </g>
        <g transform="matrix(1.0000 0.0000 0.0000 1.0000 0.0000 0.0000)">
          <path d="M 4.8445,50.3824 L 1.9378,50.3824 L 1.9378,62.0091 L 4.8445,63.9469 L 4.8445,50.3824 " fill="none" stroke="none"/>
          <defs>
            <clipPath id="clip-511702305">
              <path d="M 4.8445,50.3824 L 1.9378,50.3824 L 1.9378,62.0091 L 4.8445,63.9469 L 4.8445,50.3824 Z"/>
            </clipPath>
          </defs>
          <path clip-path="url(#clip-511702305)" d="M 0.9689,49.4135 L 0.9689,50.3824 L 3.8756,50.3824 L 3.8756,49.4135 L 0.9689,49.4135 Z" stroke-width="1px" stroke="#55BBEB" fill="#55BBEB"/>
          <path clip-path="url(#clip-511702305)" d="M 0.9689,50.3824 L 0.9689,51.3513 L 3.8756,51.3513 L 3.8756,50.3824 L 0.9689,50.3824 Z" stroke-width="1px" stroke="#057BC3" fill="#057BC3"/>
          <path clip-path="url(#clip-511702305)" d="M 0.9689,51.3513 L 0.9689,52.3202 L 3.8756,52.3202 L 3.8756,51.3513 L 0.9689,51.3513 Z" stroke-width="1px" stroke="#0B80C5" fill="#0B80C5"/>
          <path clip-path="url(#clip-511702305)" d="M 0.9689,52.3202 L 0.9689,53.2890 L 3.8756,53.2890 L 3.8756,52.3202 L 0.9689,52.3202 Z" stroke-width="1px" stroke="#1185C8" fill="#1185C8"/>
          <path clip-path="url(#clip-511702305)" d="M 0.9689,53.2890 L 0.9689,54.2579 L 3.8756,54.2579 L 3.8756,53.2890 L 0.9689,53.2890 Z" stroke-width="1px" stroke="#1789CC" fill="#1789CC"/>
          <path clip-path="url(#clip-511702305)" d="M 0.9689,54.2579 L 0.9689,55.2268 L 3.8756,55.2268 L 3.8756,54.2579 L 0.9689,54.2579 Z" stroke-width="1px" stroke="#1D8ECE" fill="#1D8ECE"/>
          <path clip-path="url(#clip-511702305)" d="M 0.9689,55.2268 L 0.9689,56.1957 L 3.8756,56.1957 L 3.8756,55.2268 L 0.9689,55.2268 Z" stroke-width="1px" stroke="#2393D1" fill="#2393D1"/>
          <path clip-path="url(#clip-511702305)" d="M 0.9689,56.1957 L 0.9689,57.1646 L 3.8756,57.1646 L 3.8756,56.1957 L 0.9689,56.1957 Z" stroke-width="1px" stroke="#2998D5" fill="#2998D5"/>
          <path clip-path="url(#clip-511702305)" d="M 0.9689,57.1646 L 0.9689,58.1335 L 3.8756,58.1335 L 3.8756,57.1646 L 0.9689,57.1646 Z" stroke-width="1px" stroke="#2E9DD7" fill="#2E9DD7"/>
          <path clip-path="url(#clip-511702305)" d="M 0.9689,58.1335 L 0.9689,59.1024 L 3.8756,59.1024 L 3.8756,58.1335 L 0.9689,58.1335 Z" stroke-width="1px" stroke="#35A1DA" fill="#35A1DA"/>
          <path clip-path="url(#clip-511702305)" d="M 0.9689,59.1024 L 0.9689,60.0713 L 3.8756,60.0713 L 3.8756,59.1024 L 0.9689,59.1024 Z" stroke-width="1px" stroke="#3AA5DE" fill="#3AA5DE"/>
          <path clip-path="url(#clip-511702305)" d="M 0.9689,60.0713 L 0.9689,61.0402 L 3.8756,61.0402 L 3.8756,60.0713 L 0.9689,60.0713 Z" stroke-width="1px" stroke="#41ABE0" fill="#41ABE0"/>
          <path clip-path="url(#clip-511702305)" d="M 0.9689,61.0402 L 0.9689,62.0091 L 3.8756,62.0091 L 3.8756,61.0402 L 0.9689,61.0402 Z" stroke-width="1px" stroke="#46AFE3" fill="#46AFE3"/>
          <path clip-path="url(#clip-511702305)" d="M 0.9689,62.0091 L 0.9689,62.9780 L 3.8756,62.9780 L 3.8756,62.0091 L 0.9689,62.0091 Z" stroke-width="1px" stroke="#4CB4E6" fill="#4CB4E6"/>
          <path clip-path="url(#clip-511702305)" d="M 0.9689,62.9780 L 0.9689,63.9469 L 3.8756,63.9469 L 3.8756,62.9780 L 0.9689,62.9780 Z" stroke-width="1px" stroke="#52B9E9" fill="#52B9E9"/>
        </g>
        <g transform="matrix(0.0625 0.0000 0.0000 0.0625 0.0000 0.0000)">
          <path d="M 63.9469,793.5224 L 18.4089,793.5224 L 18.4089,992.1452 L 63.9469,1018.3053 L 63.9469,793.5224 " stroke="#0054A6" stroke-width="9.6889" stroke-linecap="round" stroke-linejoin="round" fill="none"/>
        </g>
        <g transform="matrix(1.0000 0.0000 0.0000 1.0000 0.0000 0.0000)">
          <path d="M 4.8445,35.8490 L 1.9378,36.8179 L 1.9378,49.4135 L 4.8445,49.4135 L 4.8445,35.8490 " fill="none" stroke="none"/>
          <defs>
            <clipPath id="clip-2084420925">
              <path d="M 4.8445,35.8490 L 1.9378,36.8179 L 1.9378,49.4135 L 4.8445,49.4135 L 4.8445,35.8490 Z"/>
            </clipPath>
          </defs>
          <path clip-path="url(#clip-2084420925)" d="M 0.9689,34.8801 L 0.9689,35.8490 L 3.8756,35.8490 L 3.8756,34.8801 L 0.9689,34.8801 Z" stroke-width="1px" stroke="#55BBEA" fill="#55BBEA"/>
          <path clip-path="url(#clip-2084420925)" d="M 0.9689,35.8490 L 0.9689,36.8179 L 3.8756,36.8179 L 3.8756,35.8490 L 0.9689,35.8490 Z" stroke-width="1px" stroke="#047AC2" fill="#047AC2"/>
          <path clip-path="url(#clip-2084420925)" d="M 0.9689,36.8179 L 0.9689,37.7868 L 3.8756,37.7868 L 3.8756,36.8179 L 0.9689,36.8179 Z" stroke-width="1px" stroke="#0B80C5" fill="#0B80C5"/>
          <path clip-path="url(#clip-2084420925)" d="M 0.9689,37.7868 L 0.9689,38.7557 L 3.8756,38.7557 L 3.8756,37.7868 L 0.9689,37.7868 Z" stroke-width="1px" stroke="#1084C8" fill="#1084C8"/>
          <path clip-path="url(#clip-2084420925)" d="M 0.9689,38.7557 L 0.9689,39.7246 L 3.8756,39.7246 L 3.8756,38.7557 L 0.9689,38.7557 Z" stroke-width="1px" stroke="#1789CB" fill="#1789CB"/>
          <path clip-path="url(#clip-2084420925)" d="M 0.9689,39.7246 L 0.9689,40.6935 L 3.8756,40.6935 L 3.8756,39.7246 L 0.9689,39.7246 Z" stroke-width="1px" stroke="#1C8ECE" fill="#1C8ECE"/>
          <path clip-path="url(#clip-2084420925)" d="M 0.9689,40.6935 L 0.9689,41.6623 L 3.8756,41.6623 L 3.8756,40.6935 L 0.9689,40.6935 Z" stroke-width="1px" stroke="#2292D1" fill="#2292D1"/>
          <path clip-path="url(#clip-2084420925)" d="M 0.9689,41.6623 L 0.9689,42.6312 L 3.8756,42.6312 L 3.8756,41.6623 L 0.9689,41.6623 Z" stroke-width="1px" stroke="#2897D4" fill="#2897D4"/>
          <path clip-path="url(#clip-2084420925)" d="M 0.9689,42.6312 L 0.9689,43.6001 L 3.8756,43.6001 L 3.8756,42.6312 L 0.9689,42.6312 Z" stroke-width="1px" stroke="#2E9CD7" fill="#2E9CD7"/>
          <path clip-path="url(#clip-2084420925)" d="M 0.9689,43.6001 L 0.9689,44.5690 L 3.8756,44.5690 L 3.8756,43.6001 L 0.9689,43.6001 Z" stroke-width="1px" stroke="#34A1DA" fill="#34A1DA"/>
          <path clip-path="url(#clip-2084420925)" d="M 0.9689,44.5690 L 0.9689,45.5379 L 3.8756,45.5379 L 3.8756,44.5690 L 0.9689,44.5690 Z" stroke-width="1px" stroke="#3AA5DD" fill="#3AA5DD"/>
          <path clip-path="url(#clip-2084420925)" d="M 0.9689,45.5379 L 0.9689,46.5068 L 3.8756,46.5068 L 3.8756,45.5379 L 0.9689,45.5379 Z" stroke-width="1px" stroke="#40AAE0" fill="#40AAE0"/>
          <path clip-path="url(#clip-2084420925)" d="M 0.9689,46.5068 L 0.9689,47.4757 L 3.8756,47.4757 L 3.8756,46.5068 L 0.9689,46.5068 Z" stroke-width="1px" stroke="#46AFE3" fill="#46AFE3"/>
          <path clip-path="url(#clip-2084420925)" d="M 0.9689,47.4757 L 0.9689,48.4446 L 3.8756,48.4446 L 3.8756,47.4757 L 0.9689,47.4757 Z" stroke-width="1px" stroke="#4BB3E6" fill="#4BB3E6"/>
          <path clip-path="url(#clip-2084420925)" d="M 0.9689,48.4446 L 0.9689,49.4135 L 3.8756,49.4135 L 3.8756,48.4446 L 0.9689,48.4446 Z" stroke-width="1px" stroke="#52B9E8" fill="#52B9E8"/>
        </g>
        <g transform="matrix(0.0625 0.0000 0.0000 0.0625 0.0000 0.0000)">
          <path d="M 63.9469,561.9572 L 18.4089,589.0862 L 18.4089,787.7090 L 63.9469,787.7090 L 63.9469,561.9572 " stroke="#0054A6" stroke-width="9.6889" stroke-linecap="round" stroke-linejoin="round" fill="none"/>
        </g>
        <g transform="matrix(1.0000 0.0000 0.0000 1.0000 0.0000 0.0000)">
</g>
      </g>
      <!--emf-blob end-->
    </g>
  </g>
</svg>
