<svg xmlns="http://www.w3.org/2000/svg" xmlns:xlink="http://www.w3.org/1999/xlink" version="1.1" width="76.7014000000" height="38.8894000000">
  <title><![CDATA[FAS6000 Act/Act]]></title>
  <g transform=" scale(1.000000) ">
    <!--converted by libvisio2svg-->
    <g transform=" translate(-1.257800,-1.144300) ">
      <!--emf-blob start-->
      <g transform="translate(0.9578, 0.9578)">
        <defs>
          <clipPath id="clip-660260756">
            <path d="M 4.7892,1.9157 L 55.5551,1.9157 L 55.5551,29.6932 L 4.7892,29.6932 L 4.7892,1.9157 Z Z"/>
          </clipPath>
        </defs>
        <path clip-path="url(#clip-660260756)" d="M 3.8314,0.9578 L 3.8314,29.6932 L 4.7892,29.6932 L 4.7892,0.9578 L 3.8314,0.9578 Z" stroke-width="1px" stroke="#00B0D8" fill="#00B0D8"/>
        <path clip-path="url(#clip-660260756)" d="M 4.7892,0.9578 L 4.7892,29.6932 L 5.7471,29.6932 L 5.7471,0.9578 L 4.7892,0.9578 Z" stroke-width="1px" stroke="#1263B2" fill="#1263B2"/>
        <path clip-path="url(#clip-660260756)" d="M 5.7471,0.9578 L 5.7471,29.6932 L 6.7049,29.6932 L 6.7049,0.9578 L 5.7471,0.9578 Z" stroke-width="1px" stroke="#1165B2" fill="#1165B2"/>
        <path clip-path="url(#clip-660260756)" d="M 6.7049,0.9578 L 6.7049,29.6932 L 7.6628,29.6932 L 7.6628,0.9578 L 6.7049,0.9578 Z" stroke-width="1px" stroke="#1166B3" fill="#1166B3"/>
        <path clip-path="url(#clip-660260756)" d="M 7.6628,0.9578 L 7.6628,29.6932 L 8.6206,29.6932 L 8.6206,0.9578 L 7.6628,0.9578 Z" stroke-width="1px" stroke="#1168B3" fill="#1168B3"/>
        <path clip-path="url(#clip-660260756)" d="M 8.6206,0.9578 L 8.6206,29.6932 L 9.5785,29.6932 L 9.5785,0.9578 L 8.6206,0.9578 Z" stroke-width="1px" stroke="#1169B4" fill="#1169B4"/>
        <path clip-path="url(#clip-660260756)" d="M 9.5785,0.9578 L 9.5785,29.6932 L 10.5363,29.6932 L 10.5363,0.9578 L 9.5785,0.9578 Z" stroke-width="1px" stroke="#106BB5" fill="#106BB5"/>
        <path clip-path="url(#clip-660260756)" d="M 10.5363,0.9578 L 10.5363,29.6932 L 11.4942,29.6932 L 11.4942,0.9578 L 10.5363,0.9578 Z" stroke-width="1px" stroke="#106CB6" fill="#106CB6"/>
        <path clip-path="url(#clip-660260756)" d="M 11.4942,0.9578 L 11.4942,29.6932 L 12.4520,29.6932 L 12.4520,0.9578 L 11.4942,0.9578 Z" stroke-width="1px" stroke="#106EB7" fill="#106EB7"/>
        <path clip-path="url(#clip-660260756)" d="M 12.4520,0.9578 L 12.4520,29.6932 L 13.4099,29.6932 L 13.4099,0.9578 L 12.4520,0.9578 Z" stroke-width="1px" stroke="#0F6FB7" fill="#0F6FB7"/>
        <path clip-path="url(#clip-660260756)" d="M 13.4099,0.9578 L 13.4099,29.6932 L 14.3677,29.6932 L 14.3677,0.9578 L 13.4099,0.9578 Z" stroke-width="1px" stroke="#0F71B8" fill="#0F71B8"/>
        <path clip-path="url(#clip-660260756)" d="M 14.3677,0.9578 L 14.3677,29.6932 L 15.3255,29.6932 L 15.3255,0.9578 L 14.3677,0.9578 Z" stroke-width="1px" stroke="#0F72B9" fill="#0F72B9"/>
        <path clip-path="url(#clip-660260756)" d="M 15.3255,0.9578 L 15.3255,29.6932 L 16.2834,29.6932 L 16.2834,0.9578 L 15.3255,0.9578 Z" stroke-width="1px" stroke="#0E74BA" fill="#0E74BA"/>
        <path clip-path="url(#clip-660260756)" d="M 16.2834,0.9578 L 16.2834,29.6932 L 17.2412,29.6932 L 17.2412,0.9578 L 16.2834,0.9578 Z" stroke-width="1px" stroke="#0E75BA" fill="#0E75BA"/>
        <path clip-path="url(#clip-660260756)" d="M 17.2412,0.9578 L 17.2412,29.6932 L 18.1991,29.6932 L 18.1991,0.9578 L 17.2412,0.9578 Z" stroke-width="1px" stroke="#0E77BB" fill="#0E77BB"/>
        <path clip-path="url(#clip-660260756)" d="M 18.1991,0.9578 L 18.1991,29.6932 L 19.1569,29.6932 L 19.1569,0.9578 L 18.1991,0.9578 Z" stroke-width="1px" stroke="#0D78BC" fill="#0D78BC"/>
        <path clip-path="url(#clip-660260756)" d="M 19.1569,0.9578 L 19.1569,29.6932 L 20.1148,29.6932 L 20.1148,0.9578 L 19.1569,0.9578 Z" stroke-width="1px" stroke="#0D79BC" fill="#0D79BC"/>
        <path clip-path="url(#clip-660260756)" d="M 20.1148,0.9578 L 20.1148,29.6932 L 21.0726,29.6932 L 21.0726,0.9578 L 20.1148,0.9578 Z" stroke-width="1px" stroke="#0C7ABD" fill="#0C7ABD"/>
        <path clip-path="url(#clip-660260756)" d="M 21.0726,0.9578 L 21.0726,29.6932 L 22.0305,29.6932 L 22.0305,0.9578 L 21.0726,0.9578 Z" stroke-width="1px" stroke="#0C7CBE" fill="#0C7CBE"/>
        <path clip-path="url(#clip-660260756)" d="M 22.0305,0.9578 L 22.0305,29.6932 L 22.9883,29.6932 L 22.9883,0.9578 L 22.0305,0.9578 Z" stroke-width="1px" stroke="#0B7DBF" fill="#0B7DBF"/>
        <path clip-path="url(#clip-660260756)" d="M 22.9883,0.9578 L 22.9883,29.6932 L 23.9462,29.6932 L 23.9462,0.9578 L 22.9883,0.9578 Z" stroke-width="1px" stroke="#0B7FC0" fill="#0B7FC0"/>
        <path clip-path="url(#clip-660260756)" d="M 23.9462,0.9578 L 23.9462,29.6932 L 24.9040,29.6932 L 24.9040,0.9578 L 23.9462,0.9578 Z" stroke-width="1px" stroke="#0B80C0" fill="#0B80C0"/>
        <path clip-path="url(#clip-660260756)" d="M 24.9040,0.9578 L 24.9040,29.6932 L 25.8619,29.6932 L 25.8619,0.9578 L 24.9040,0.9578 Z" stroke-width="1px" stroke="#0A82C1" fill="#0A82C1"/>
        <path clip-path="url(#clip-660260756)" d="M 25.8619,0.9578 L 25.8619,29.6932 L 26.8197,29.6932 L 26.8197,0.9578 L 25.8619,0.9578 Z" stroke-width="1px" stroke="#0A83C2" fill="#0A83C2"/>
        <path clip-path="url(#clip-660260756)" d="M 26.8197,0.9578 L 26.8197,29.6932 L 27.7775,29.6932 L 27.7775,0.9578 L 26.8197,0.9578 Z" stroke-width="1px" stroke="#0A84C2" fill="#0A84C2"/>
        <path clip-path="url(#clip-660260756)" d="M 27.7775,0.9578 L 27.7775,29.6932 L 28.7354,29.6932 L 28.7354,0.9578 L 27.7775,0.9578 Z" stroke-width="1px" stroke="#0A86C3" fill="#0A86C3"/>
        <path clip-path="url(#clip-660260756)" d="M 28.7354,0.9578 L 28.7354,29.6932 L 29.6932,29.6932 L 29.6932,0.9578 L 28.7354,0.9578 Z" stroke-width="1px" stroke="#0987C4" fill="#0987C4"/>
        <path clip-path="url(#clip-660260756)" d="M 29.6932,0.9578 L 29.6932,29.6932 L 30.6511,29.6932 L 30.6511,0.9578 L 29.6932,0.9578 Z" stroke-width="1px" stroke="#0989C5" fill="#0989C5"/>
        <path clip-path="url(#clip-660260756)" d="M 30.6511,0.9578 L 30.6511,29.6932 L 31.6089,29.6932 L 31.6089,0.9578 L 30.6511,0.9578 Z" stroke-width="1px" stroke="#098AC6" fill="#098AC6"/>
        <path clip-path="url(#clip-660260756)" d="M 31.6089,0.9578 L 31.6089,29.6932 L 32.5668,29.6932 L 32.5668,0.9578 L 31.6089,0.9578 Z" stroke-width="1px" stroke="#088CC6" fill="#088CC6"/>
        <path clip-path="url(#clip-660260756)" d="M 32.5668,0.9578 L 32.5668,29.6932 L 33.5246,29.6932 L 33.5246,0.9578 L 32.5668,0.9578 Z" stroke-width="1px" stroke="#088DC7" fill="#088DC7"/>
        <path clip-path="url(#clip-660260756)" d="M 33.5246,0.9578 L 33.5246,29.6932 L 34.4825,29.6932 L 34.4825,0.9578 L 33.5246,0.9578 Z" stroke-width="1px" stroke="#088FC7" fill="#088FC7"/>
        <path clip-path="url(#clip-660260756)" d="M 34.4825,0.9578 L 34.4825,29.6932 L 35.4403,29.6932 L 35.4403,0.9578 L 34.4825,0.9578 Z" stroke-width="1px" stroke="#0890C8" fill="#0890C8"/>
        <path clip-path="url(#clip-660260756)" d="M 35.4403,0.9578 L 35.4403,29.6932 L 36.3982,29.6932 L 36.3982,0.9578 L 35.4403,0.9578 Z" stroke-width="1px" stroke="#0792C9" fill="#0792C9"/>
        <path clip-path="url(#clip-660260756)" d="M 36.3982,0.9578 L 36.3982,29.6932 L 37.3560,29.6932 L 37.3560,0.9578 L 36.3982,0.9578 Z" stroke-width="1px" stroke="#0793C9" fill="#0793C9"/>
        <path clip-path="url(#clip-660260756)" d="M 37.3560,0.9578 L 37.3560,29.6932 L 38.3139,29.6932 L 38.3139,0.9578 L 37.3560,0.9578 Z" stroke-width="1px" stroke="#0795CA" fill="#0795CA"/>
        <path clip-path="url(#clip-660260756)" d="M 38.3139,0.9578 L 38.3139,29.6932 L 39.2717,29.6932 L 39.2717,0.9578 L 38.3139,0.9578 Z" stroke-width="1px" stroke="#0696CB" fill="#0696CB"/>
        <path clip-path="url(#clip-660260756)" d="M 39.2717,0.9578 L 39.2717,29.6932 L 40.2296,29.6932 L 40.2296,0.9578 L 39.2717,0.9578 Z" stroke-width="1px" stroke="#0698CC" fill="#0698CC"/>
        <path clip-path="url(#clip-660260756)" d="M 40.2296,0.9578 L 40.2296,29.6932 L 41.1874,29.6932 L 41.1874,0.9578 L 40.2296,0.9578 Z" stroke-width="1px" stroke="#0699CD" fill="#0699CD"/>
        <path clip-path="url(#clip-660260756)" d="M 41.1874,0.9578 L 41.1874,29.6932 L 42.1452,29.6932 L 42.1452,0.9578 L 41.1874,0.9578 Z" stroke-width="1px" stroke="#059BCD" fill="#059BCD"/>
        <path clip-path="url(#clip-660260756)" d="M 42.1452,0.9578 L 42.1452,29.6932 L 43.1031,29.6932 L 43.1031,0.9578 L 42.1452,0.9578 Z" stroke-width="1px" stroke="#059CCE" fill="#059CCE"/>
        <path clip-path="url(#clip-660260756)" d="M 43.1031,0.9578 L 43.1031,29.6932 L 44.0609,29.6932 L 44.0609,0.9578 L 43.1031,0.9578 Z" stroke-width="1px" stroke="#059ECE" fill="#059ECE"/>
        <path clip-path="url(#clip-660260756)" d="M 44.0609,0.9578 L 44.0609,29.6932 L 45.0188,29.6932 L 45.0188,0.9578 L 44.0609,0.9578 Z" stroke-width="1px" stroke="#049FCF" fill="#049FCF"/>
        <path clip-path="url(#clip-660260756)" d="M 45.0188,0.9578 L 45.0188,29.6932 L 45.9766,29.6932 L 45.9766,0.9578 L 45.0188,0.9578 Z" stroke-width="1px" stroke="#04A0D0" fill="#04A0D0"/>
        <path clip-path="url(#clip-660260756)" d="M 45.9766,0.9578 L 45.9766,29.6932 L 46.9345,29.6932 L 46.9345,0.9578 L 45.9766,0.9578 Z" stroke-width="1px" stroke="#03A1D1" fill="#03A1D1"/>
        <path clip-path="url(#clip-660260756)" d="M 46.9345,0.9578 L 46.9345,29.6932 L 47.8923,29.6932 L 47.8923,0.9578 L 46.9345,0.9578 Z" stroke-width="1px" stroke="#03A3D2" fill="#03A3D2"/>
        <path clip-path="url(#clip-660260756)" d="M 47.8923,0.9578 L 47.8923,29.6932 L 48.8502,29.6932 L 48.8502,0.9578 L 47.8923,0.9578 Z" stroke-width="1px" stroke="#02A4D2" fill="#02A4D2"/>
        <path clip-path="url(#clip-660260756)" d="M 48.8502,0.9578 L 48.8502,29.6932 L 49.8080,29.6932 L 49.8080,0.9578 L 48.8502,0.9578 Z" stroke-width="1px" stroke="#02A6D3" fill="#02A6D3"/>
        <path clip-path="url(#clip-660260756)" d="M 49.8080,0.9578 L 49.8080,29.6932 L 50.7659,29.6932 L 50.7659,0.9578 L 49.8080,0.9578 Z" stroke-width="1px" stroke="#02A7D4" fill="#02A7D4"/>
        <path clip-path="url(#clip-660260756)" d="M 50.7659,0.9578 L 50.7659,29.6932 L 51.7237,29.6932 L 51.7237,0.9578 L 50.7659,0.9578 Z" stroke-width="1px" stroke="#01A9D5" fill="#01A9D5"/>
        <path clip-path="url(#clip-660260756)" d="M 51.7237,0.9578 L 51.7237,29.6932 L 52.6816,29.6932 L 52.6816,0.9578 L 51.7237,0.9578 Z" stroke-width="1px" stroke="#01AAD5" fill="#01AAD5"/>
        <path clip-path="url(#clip-660260756)" d="M 52.6816,0.9578 L 52.6816,29.6932 L 53.6394,29.6932 L 53.6394,0.9578 L 52.6816,0.9578 Z" stroke-width="1px" stroke="#01ACD6" fill="#01ACD6"/>
        <path clip-path="url(#clip-660260756)" d="M 53.6394,0.9578 L 53.6394,29.6932 L 54.5973,29.6932 L 54.5973,0.9578 L 53.6394,0.9578 Z" stroke-width="1px" stroke="#01ADD7" fill="#01ADD7"/>
        <path clip-path="url(#clip-660260756)" d="M 54.5973,0.9578 L 54.5973,29.6932 L 55.5551,29.6932 L 55.5551,0.9578 L 54.5973,0.9578 Z" stroke-width="1px" stroke="#00AFD7" fill="#00AFD7"/>
        <g transform="matrix(0.0625 0.0000 0.0000 0.0625 0.0000 0.0000)">
          <path d="M 63.2179,465.5134 L 888.8816,465.5134 L 888.8816,18.1991 L 63.2179,18.1991 L 63.2179,465.5134 " stroke="#0054A6" stroke-width="9.5785" stroke-linecap="round" stroke-linejoin="round" fill="none"/>
        </g>
        <g transform="matrix(1.0000 0.0000 0.0000 1.0000 0.0000 0.0000)">
</g>
        <g transform="matrix(0.0625 0.0000 0.0000 0.0625 0.0000 0.0000)">
          <path d="M 476.0497,444.4408 C 416.6632,444.4408 333.3306,441.5672 256.7029,438.6937 C 190.6115,435.8202 158.0447,433.9045 140.8034,431.0309 C 130.2671,430.0731 104.4053,426.2417 104.4053,397.5063 L 104.4053,87.1640 C 104.4053,58.4286 129.3093,54.5973 140.8034,52.6816 C 158.0447,50.7659 190.6115,47.8923 256.7029,45.9766 C 332.3727,42.1452 416.6632,40.2296 476.0497,40.2296 C 535.4362,40.2296 619.7267,42.1452 695.3966,45.9766 C 761.4880,47.8923 794.0548,50.7659 811.2960,52.6816 C 821.8323,54.5973 847.6942,58.4286 847.6942,87.1640 L 847.6942,397.5063 C 847.6942,426.2417 821.8323,430.0731 811.2960,431.0309 C 794.0548,433.9045 761.4880,435.8202 695.3966,438.6937 C 618.7688,441.5672 535.4362,444.4408 476.0497,444.4408 Z " fill="#0054A6" stroke="none"/>
        </g>
        <g transform="matrix(1.0000 0.0000 0.0000 1.0000 0.0000 0.0000)">
          <path d="M 44.0609,4.7892 C 39.2717,4.7892 33.5246,4.7892 29.6932,4.7892 C 26.8197,4.7892 21.0726,4.7892 16.2834,4.7892 C 8.6206,4.7892 8.6206,5.7471 8.6206,5.7471 L 8.6206,24.9040 C 8.6206,25.8619 8.6206,25.8619 16.2834,25.8619 C 21.0726,26.8197 26.8197,26.8197 29.6932,26.8197 C 33.5246,26.8197 39.2717,26.8197 44.0609,25.8619 C 51.7237,25.8619 51.7237,25.8619 51.7237,24.9040 L 51.7237,5.7471 C 51.7237,5.7471 51.7237,4.7892 44.0609,4.7892 Z " fill="none" stroke="none"/>
          <defs>
            <clipPath id="clip-959997301">
              <path d="M 44.0609,4.7892 C 39.2717,4.7892 33.5246,4.7892 29.6932,4.7892 C 26.8197,4.7892 21.0726,4.7892 16.2834,4.7892 C 8.6206,4.7892 8.6206,5.7471 8.6206,5.7471 L 8.6206,24.9040 C 8.6206,25.8619 8.6206,25.8619 16.2834,25.8619 C 21.0726,26.8197 26.8197,26.8197 29.6932,26.8197 C 33.5246,26.8197 39.2717,26.8197 44.0609,25.8619 C 51.7237,25.8619 51.7237,25.8619 51.7237,24.9040 L 51.7237,5.7471 C 51.7237,5.7471 51.7237,4.7892 44.0609,4.7892 Z"/>
            </clipPath>
          </defs>
          <path clip-path="url(#clip-959997301)" d="M 7.6628,3.8314 L 7.6628,4.7892 L 51.7237,4.7892 L 51.7237,3.8314 L 7.6628,3.8314 Z" stroke-width="1px" stroke="#AFDCED" fill="#AFDCED"/>
          <path clip-path="url(#clip-959997301)" d="M 7.6628,4.7892 L 7.6628,5.7471 L 51.7237,5.7471 L 51.7237,4.7892 L 7.6628,4.7892 Z" stroke-width="1px" stroke="#B2DEEE" fill="#B2DEEE"/>
          <path clip-path="url(#clip-959997301)" d="M 7.6628,5.7471 L 7.6628,6.7049 L 51.7237,6.7049 L 51.7237,5.7471 L 7.6628,5.7471 Z" stroke-width="1px" stroke="#BAE1F0" fill="#BAE1F0"/>
          <path clip-path="url(#clip-959997301)" d="M 7.6628,6.7049 L 7.6628,7.6628 L 51.7237,7.6628 L 51.7237,6.7049 L 7.6628,6.7049 Z" stroke-width="1px" stroke="#C1E4F2" fill="#C1E4F2"/>
          <path clip-path="url(#clip-959997301)" d="M 7.6628,7.6628 L 7.6628,8.6206 L 51.7237,8.6206 L 51.7237,7.6628 L 7.6628,7.6628 Z" stroke-width="1px" stroke="#C8E7F3" fill="#C8E7F3"/>
          <path clip-path="url(#clip-959997301)" d="M 7.6628,8.6206 L 7.6628,9.5785 L 51.7237,9.5785 L 51.7237,8.6206 L 7.6628,8.6206 Z" stroke-width="1px" stroke="#CFEAF5" fill="#CFEAF5"/>
          <path clip-path="url(#clip-959997301)" d="M 7.6628,9.5785 L 7.6628,10.5363 L 51.7237,10.5363 L 51.7237,9.5785 L 7.6628,9.5785 Z" stroke-width="1px" stroke="#D6EDF6" fill="#D6EDF6"/>
          <path clip-path="url(#clip-959997301)" d="M 7.6628,10.5363 L 7.6628,11.4942 L 51.7237,11.4942 L 51.7237,10.5363 L 7.6628,10.5363 Z" stroke-width="1px" stroke="#DDF0F7" fill="#DDF0F7"/>
          <path clip-path="url(#clip-959997301)" d="M 7.6628,11.4942 L 7.6628,12.4520 L 51.7237,12.4520 L 51.7237,11.4942 L 7.6628,11.4942 Z" stroke-width="1px" stroke="#E4F4F9" fill="#E4F4F9"/>
          <path clip-path="url(#clip-959997301)" d="M 7.6628,12.4520 L 7.6628,13.4099 L 51.7237,13.4099 L 51.7237,12.4520 L 7.6628,12.4520 Z" stroke-width="1px" stroke="#ECF6FB" fill="#ECF6FB"/>
          <path clip-path="url(#clip-959997301)" d="M 7.6628,13.4099 L 7.6628,14.3677 L 51.7237,14.3677 L 51.7237,13.4099 L 7.6628,13.4099 Z" stroke-width="1px" stroke="#F3FAFD" fill="#F3FAFD"/>
          <path clip-path="url(#clip-959997301)" d="M 7.6628,14.3677 L 7.6628,15.3255 L 51.7237,15.3255 L 51.7237,14.3677 L 7.6628,14.3677 Z" stroke-width="1px" stroke="#FAFDFE" fill="#FAFDFE"/>
          <path clip-path="url(#clip-959997301)" d="M 7.6628,15.3255 L 7.6628,16.2834 L 51.7237,16.2834 L 51.7237,15.3255 L 7.6628,15.3255 Z" stroke-width="1px" stroke="#FDFEFF" fill="#FDFEFF"/>
          <path clip-path="url(#clip-959997301)" d="M 7.6628,16.2834 L 7.6628,17.2412 L 51.7237,17.2412 L 51.7237,16.2834 L 7.6628,16.2834 Z" stroke-width="1px" stroke="#F6FCFD" fill="#F6FCFD"/>
          <path clip-path="url(#clip-959997301)" d="M 7.6628,17.2412 L 7.6628,18.1991 L 51.7237,18.1991 L 51.7237,17.2412 L 7.6628,17.2412 Z" stroke-width="1px" stroke="#EFF8FC" fill="#EFF8FC"/>
          <path clip-path="url(#clip-959997301)" d="M 7.6628,18.1991 L 7.6628,19.1569 L 51.7237,19.1569 L 51.7237,18.1991 L 7.6628,18.1991 Z" stroke-width="1px" stroke="#E8F5FA" fill="#E8F5FA"/>
          <path clip-path="url(#clip-959997301)" d="M 7.6628,19.1569 L 7.6628,20.1148 L 51.7237,20.1148 L 51.7237,19.1569 L 7.6628,19.1569 Z" stroke-width="1px" stroke="#E1F2F8" fill="#E1F2F8"/>
          <path clip-path="url(#clip-959997301)" d="M 7.6628,20.1148 L 7.6628,21.0726 L 51.7237,21.0726 L 51.7237,20.1148 L 7.6628,20.1148 Z" stroke-width="1px" stroke="#DAEFF7" fill="#DAEFF7"/>
          <path clip-path="url(#clip-959997301)" d="M 7.6628,21.0726 L 7.6628,22.0305 L 51.7237,22.0305 L 51.7237,21.0726 L 7.6628,21.0726 Z" stroke-width="1px" stroke="#D3ECF5" fill="#D3ECF5"/>
          <path clip-path="url(#clip-959997301)" d="M 7.6628,22.0305 L 7.6628,22.9883 L 51.7237,22.9883 L 51.7237,22.0305 L 7.6628,22.0305 Z" stroke-width="1px" stroke="#CCE9F4" fill="#CCE9F4"/>
          <path clip-path="url(#clip-959997301)" d="M 7.6628,22.9883 L 7.6628,23.9462 L 51.7237,23.9462 L 51.7237,22.9883 L 7.6628,22.9883 Z" stroke-width="1px" stroke="#C5E5F3" fill="#C5E5F3"/>
          <path clip-path="url(#clip-959997301)" d="M 7.6628,23.9462 L 7.6628,24.9040 L 51.7237,24.9040 L 51.7237,23.9462 L 7.6628,23.9462 Z" stroke-width="1px" stroke="#BEE2F1" fill="#BEE2F1"/>
          <path clip-path="url(#clip-959997301)" d="M 7.6628,24.9040 L 7.6628,25.8619 L 51.7237,25.8619 L 51.7237,24.9040 L 7.6628,24.9040 Z" stroke-width="1px" stroke="#B6E0EF" fill="#B6E0EF"/>
          <path clip-path="url(#clip-959997301)" d="M 7.6628,25.8619 L 7.6628,26.8197 L 51.7237,26.8197 L 51.7237,25.8619 L 7.6628,25.8619 Z" stroke-width="1px" stroke="#AFDCED" fill="#AFDCED"/>
        </g>
        <g transform="matrix(0.0625 0.0000 0.0000 0.0625 0.0000 0.0000)">
          <path d="M 694.4387,70.8806 C 617.8110,67.0493 534.4784,65.1336 476.0497,65.1336 C 417.6211,65.1336 334.2884,67.0493 257.6607,70.8806 C 127.3936,76.6277 127.3936,78.5434 127.3936,87.1640 L 127.3936,397.5063 C 127.3936,405.1691 127.3936,408.0426 257.6607,413.7897 C 334.2884,416.6632 417.6211,418.5789 476.0497,418.5789 C 534.4784,418.5789 617.8110,416.6632 694.4387,413.7897 C 824.7058,408.0426 824.7058,405.1691 824.7058,397.5063 L 824.7058,87.1640 C 824.7058,78.5434 824.7058,76.6277 694.4387,70.8806 " stroke="#ADDBED" stroke-width="0.9578" stroke-linecap="butt" stroke-linejoin="round" fill="none"/>
        </g>
        <g transform="matrix(1.0000 0.0000 0.0000 1.0000 0.0000 0.0000)">
</g>
        <g transform="matrix(0.0625 0.0000 0.0000 0.0625 0.0000 0.0000)">
          <path d="M 402.2955,118.7730 L 402.2955,147.5084 L 545.9725,147.5084 L 545.9725,118.7730 L 402.2955,118.7730 Z" stroke-width="1px" stroke="#8DC63F" fill="#8DC63F"/>
        </g>
        <g transform="matrix(1.0000 0.0000 0.0000 1.0000 0.0000 0.0000)">
</g>
        <g transform="matrix(0.0625 0.0000 0.0000 0.0625 0.0000 0.0000)">
          <path d="M 402.2955,146.5505 L 402.2955,183.9065 C 402.2955,191.5693 407.0848,197.3164 413.7897,197.3164 L 535.4362,197.3164 C 541.1833,197.3164 545.9725,191.5693 545.9725,183.9065 L 545.9725,146.5505 L 402.2955,146.5505 Z " fill="#0054A6" stroke="none"/>
        </g>
        <g transform="matrix(1.0000 0.0000 0.0000 1.0000 0.0000 0.0000)">
</g>
        <g transform="matrix(0.0625 0.0000 0.0000 0.0625 0.0000 0.0000)">
          <path d="M 583.3285,90.9954 L 593.8648,91.9533 C 603.4433,92.9111 609.1904,204.9792 609.1904,239.4616 C 609.1904,239.4616 609.1904,240.4195 609.1904,241.3773 C 609.1904,242.3352 609.1904,242.3352 609.1904,243.2930 C 609.1904,276.8176 603.4433,389.8435 593.8648,390.8014 L 583.3285,391.7592 C 579.4971,391.7592 575.6658,387.9278 575.6658,383.1386 L 575.6658,99.6160 C 575.6658,94.8268 579.4971,90.9954 583.3285,90.9954 Z M 643.6729,96.7425 L 654.2092,97.7003 C 662.8298,97.7003 669.5347,206.8948 669.5347,239.4616 C 669.5347,239.4616 669.5347,240.4195 669.5347,241.3773 C 669.5347,241.3773 669.5347,242.3352 669.5347,243.2930 C 669.5347,274.9019 662.8298,384.0965 654.2092,384.0965 L 643.6729,385.0543 C 639.8415,385.0543 636.0101,382.1808 636.0101,377.3915 L 636.0101,104.4053 C 636.0101,99.6160 639.8415,96.7425 643.6729,96.7425 Z M 704.0172,102.4896 L 714.5535,103.4474 C 723.1741,103.4474 728.9212,208.8105 728.9212,238.5038 C 728.9212,239.4616 728.9212,240.4195 728.9212,240.4195 C 728.9212,241.3773 728.9212,242.3352 728.9212,242.3352 C 728.9212,272.9863 723.1741,377.3915 714.5535,378.3494 L 704.0172,379.3072 C 700.1858,379.3072 696.3544,376.4337 696.3544,371.6444 L 696.3544,110.1523 C 696.3544,105.3631 700.1858,102.4896 704.0172,102.4896 Z M 764.3615,108.2367 L 773.9400,108.2367 C 782.5606,109.1945 789.2655,209.7684 789.2655,238.5038 C 789.2655,239.4616 789.2655,239.4616 789.2655,240.4195 C 789.2655,241.3773 789.2655,241.3773 789.2655,242.3352 C 789.2655,271.0706 782.5606,371.6444 773.9400,372.6023 L 764.3615,373.5601 C 760.5301,373.5601 756.6987,370.6866 756.6987,365.8974 L 756.6987,114.9416 C 756.6987,111.1102 760.5301,107.2788 764.3615,108.2367 Z M 362.0660,90.9954 L 351.5297,91.9533 C 342.9091,92.9111 336.2041,204.9792 336.2041,239.4616 C 336.2041,239.4616 336.2041,240.4195 336.2041,241.3773 C 336.2041,242.3352 336.2041,242.3352 336.2041,243.2930 C 336.2041,276.8176 342.9091,389.8435 351.5297,390.8014 L 362.0660,391.7592 C 366.8552,391.7592 369.7288,387.9278 369.7288,383.1386 L 369.7288,99.6160 C 369.7288,94.8268 366.8552,90.9954 362.0660,90.9954 Z M 181.9908,108.2367 L 171.4545,108.2367 C 162.8339,109.1945 157.0868,209.7684 157.0868,238.5038 C 157.0868,239.4616 157.0868,239.4616 157.0868,240.4195 C 157.0868,241.3773 157.0868,241.3773 157.0868,242.3352 C 157.0868,271.0706 162.8339,371.6444 171.4545,372.6023 L 181.9908,373.5601 C 185.8222,373.5601 188.6958,370.6866 188.6958,365.8974 L 188.6958,114.9416 C 188.6958,111.1102 185.8222,107.2788 181.9908,108.2367 Z M 242.3352,102.4896 L 231.7989,103.4474 C 223.1782,103.4474 216.4733,208.8105 216.4733,238.5038 C 216.4733,239.4616 216.4733,240.4195 216.4733,240.4195 C 216.4733,241.3773 216.4733,242.3352 216.4733,242.3352 C 216.4733,272.9863 223.1782,377.3915 231.7989,378.3494 L 242.3352,379.3072 C 246.1666,379.3072 249.0401,376.4337 249.0401,371.6444 L 249.0401,110.1523 C 249.0401,105.3631 246.1666,102.4896 242.3352,102.4896 Z M 301.7217,96.7425 L 291.1853,97.7003 C 282.5647,97.7003 276.8176,206.8948 276.8176,239.4616 C 276.8176,239.4616 276.8176,240.4195 276.8176,241.3773 C 276.8176,241.3773 276.8176,242.3352 276.8176,243.2930 C 276.8176,274.9019 282.5647,384.0965 291.1853,384.0965 L 301.7217,385.0543 C 306.5109,385.0543 309.3844,382.1808 309.3844,377.3915 L 309.3844,104.4053 C 309.3844,99.6160 306.5109,96.7425 301.7217,96.7425 Z " fill="#0054A6" stroke="none"/>
        </g>
        <g transform="matrix(1.0000 0.0000 0.0000 1.0000 0.0000 0.0000)">
          <path d="M 4.7892,1.9157 L 1.9157,2.8735 L 1.9157,27.7775 L 4.7892,29.6932 L 4.7892,1.9157 " fill="none" stroke="none"/>
          <defs>
            <clipPath id="clip-485560280">
              <path d="M 4.7892,1.9157 L 1.9157,2.8735 L 1.9157,27.7775 L 4.7892,29.6932 L 4.7892,1.9157 Z"/>
            </clipPath>
          </defs>
          <path clip-path="url(#clip-485560280)" d="M 0.9578,0.9578 L 0.9578,1.9157 L 3.8314,1.9157 L 3.8314,0.9578 L 0.9578,0.9578 Z" stroke-width="1px" stroke="#56BCEB" fill="#56BCEB"/>
          <path clip-path="url(#clip-485560280)" d="M 0.9578,1.9157 L 0.9578,2.8735 L 3.8314,2.8735 L 3.8314,1.9157 L 0.9578,1.9157 Z" stroke-width="1px" stroke="#0279C1" fill="#0279C1"/>
          <path clip-path="url(#clip-485560280)" d="M 0.9578,2.8735 L 0.9578,3.8314 L 3.8314,3.8314 L 3.8314,2.8735 L 0.9578,2.8735 Z" stroke-width="1px" stroke="#057BC3" fill="#057BC3"/>
          <path clip-path="url(#clip-485560280)" d="M 0.9578,3.8314 L 0.9578,4.7892 L 3.8314,4.7892 L 3.8314,3.8314 L 0.9578,3.8314 Z" stroke-width="1px" stroke="#087EC4" fill="#087EC4"/>
          <path clip-path="url(#clip-485560280)" d="M 0.9578,4.7892 L 0.9578,5.7471 L 3.8314,5.7471 L 3.8314,4.7892 L 0.9578,4.7892 Z" stroke-width="1px" stroke="#0C80C5" fill="#0C80C5"/>
          <path clip-path="url(#clip-485560280)" d="M 0.9578,5.7471 L 0.9578,6.7049 L 3.8314,6.7049 L 3.8314,5.7471 L 0.9578,5.7471 Z" stroke-width="1px" stroke="#0E83C7" fill="#0E83C7"/>
          <path clip-path="url(#clip-485560280)" d="M 0.9578,6.7049 L 0.9578,7.6628 L 3.8314,7.6628 L 3.8314,6.7049 L 0.9578,6.7049 Z" stroke-width="1px" stroke="#1185C9" fill="#1185C9"/>
          <path clip-path="url(#clip-485560280)" d="M 0.9578,7.6628 L 0.9578,8.6206 L 3.8314,8.6206 L 3.8314,7.6628 L 0.9578,7.6628 Z" stroke-width="1px" stroke="#1587CA" fill="#1587CA"/>
          <path clip-path="url(#clip-485560280)" d="M 0.9578,8.6206 L 0.9578,9.5785 L 3.8314,9.5785 L 3.8314,8.6206 L 0.9578,8.6206 Z" stroke-width="1px" stroke="#1789CC" fill="#1789CC"/>
          <path clip-path="url(#clip-485560280)" d="M 0.9578,9.5785 L 0.9578,10.5363 L 3.8314,10.5363 L 3.8314,9.5785 L 0.9578,9.5785 Z" stroke-width="1px" stroke="#1A8CCD" fill="#1A8CCD"/>
          <path clip-path="url(#clip-485560280)" d="M 0.9578,10.5363 L 0.9578,11.4942 L 3.8314,11.4942 L 3.8314,10.5363 L 0.9578,10.5363 Z" stroke-width="1px" stroke="#1D8FCE" fill="#1D8FCE"/>
          <path clip-path="url(#clip-485560280)" d="M 0.9578,11.4942 L 0.9578,12.4520 L 3.8314,12.4520 L 3.8314,11.4942 L 0.9578,11.4942 Z" stroke-width="1px" stroke="#2091D0" fill="#2091D0"/>
          <path clip-path="url(#clip-485560280)" d="M 0.9578,12.4520 L 0.9578,13.4099 L 3.8314,13.4099 L 3.8314,12.4520 L 0.9578,12.4520 Z" stroke-width="1px" stroke="#2393D1" fill="#2393D1"/>
          <path clip-path="url(#clip-485560280)" d="M 0.9578,13.4099 L 0.9578,14.3677 L 3.8314,14.3677 L 3.8314,13.4099 L 0.9578,13.4099 Z" stroke-width="1px" stroke="#2695D3" fill="#2695D3"/>
          <path clip-path="url(#clip-485560280)" d="M 0.9578,14.3677 L 0.9578,15.3255 L 3.8314,15.3255 L 3.8314,14.3677 L 0.9578,14.3677 Z" stroke-width="1px" stroke="#2998D5" fill="#2998D5"/>
          <path clip-path="url(#clip-485560280)" d="M 0.9578,15.3255 L 0.9578,16.2834 L 3.8314,16.2834 L 3.8314,15.3255 L 0.9578,15.3255 Z" stroke-width="1px" stroke="#2C9BD6" fill="#2C9BD6"/>
          <path clip-path="url(#clip-485560280)" d="M 0.9578,16.2834 L 0.9578,17.2412 L 3.8314,17.2412 L 3.8314,16.2834 L 0.9578,16.2834 Z" stroke-width="1px" stroke="#2E9DD7" fill="#2E9DD7"/>
          <path clip-path="url(#clip-485560280)" d="M 0.9578,17.2412 L 0.9578,18.1991 L 3.8314,18.1991 L 3.8314,17.2412 L 0.9578,17.2412 Z" stroke-width="1px" stroke="#319FD9" fill="#319FD9"/>
          <path clip-path="url(#clip-485560280)" d="M 0.9578,18.1991 L 0.9578,19.1569 L 3.8314,19.1569 L 3.8314,18.1991 L 0.9578,18.1991 Z" stroke-width="1px" stroke="#35A1DA" fill="#35A1DA"/>
          <path clip-path="url(#clip-485560280)" d="M 0.9578,19.1569 L 0.9578,20.1148 L 3.8314,20.1148 L 3.8314,19.1569 L 0.9578,19.1569 Z" stroke-width="1px" stroke="#38A3DC" fill="#38A3DC"/>
          <path clip-path="url(#clip-485560280)" d="M 0.9578,20.1148 L 0.9578,21.0726 L 3.8314,21.0726 L 3.8314,20.1148 L 0.9578,20.1148 Z" stroke-width="1px" stroke="#3AA5DE" fill="#3AA5DE"/>
          <path clip-path="url(#clip-485560280)" d="M 0.9578,21.0726 L 0.9578,22.0305 L 3.8314,22.0305 L 3.8314,21.0726 L 0.9578,21.0726 Z" stroke-width="1px" stroke="#3DA8DF" fill="#3DA8DF"/>
          <path clip-path="url(#clip-485560280)" d="M 0.9578,22.0305 L 0.9578,22.9883 L 3.8314,22.9883 L 3.8314,22.0305 L 0.9578,22.0305 Z" stroke-width="1px" stroke="#41ABE0" fill="#41ABE0"/>
          <path clip-path="url(#clip-485560280)" d="M 0.9578,22.9883 L 0.9578,23.9462 L 3.8314,23.9462 L 3.8314,22.9883 L 0.9578,22.9883 Z" stroke-width="1px" stroke="#44ADE2" fill="#44ADE2"/>
          <path clip-path="url(#clip-485560280)" d="M 0.9578,23.9462 L 0.9578,24.9040 L 3.8314,24.9040 L 3.8314,23.9462 L 0.9578,23.9462 Z" stroke-width="1px" stroke="#46AFE3" fill="#46AFE3"/>
          <path clip-path="url(#clip-485560280)" d="M 0.9578,24.9040 L 0.9578,25.8619 L 3.8314,25.8619 L 3.8314,24.9040 L 0.9578,24.9040 Z" stroke-width="1px" stroke="#49B1E5" fill="#49B1E5"/>
          <path clip-path="url(#clip-485560280)" d="M 0.9578,25.8619 L 0.9578,26.8197 L 3.8314,26.8197 L 3.8314,25.8619 L 0.9578,25.8619 Z" stroke-width="1px" stroke="#4CB4E6" fill="#4CB4E6"/>
          <path clip-path="url(#clip-485560280)" d="M 0.9578,26.8197 L 0.9578,27.7775 L 3.8314,27.7775 L 3.8314,26.8197 L 0.9578,26.8197 Z" stroke-width="1px" stroke="#4FB6E7" fill="#4FB6E7"/>
          <path clip-path="url(#clip-485560280)" d="M 0.9578,27.7775 L 0.9578,28.7354 L 3.8314,28.7354 L 3.8314,27.7775 L 0.9578,27.7775 Z" stroke-width="1px" stroke="#52B9E9" fill="#52B9E9"/>
          <path clip-path="url(#clip-485560280)" d="M 0.9578,28.7354 L 0.9578,29.6932 L 3.8314,29.6932 L 3.8314,28.7354 L 0.9578,28.7354 Z" stroke-width="1px" stroke="#55BBEA" fill="#55BBEA"/>
        </g>
        <g transform="matrix(0.0625 0.0000 0.0000 0.0625 0.0000 0.0000)">
          <path d="M 63.2179,18.1991 L 18.1991,44.0609 L 18.1991,439.6515 L 63.2179,465.5134 L 63.2179,18.1991 " stroke="#0054A6" stroke-width="9.5785" stroke-linecap="round" stroke-linejoin="round" fill="none"/>
        </g>
        <g transform="matrix(1.0000 0.0000 0.0000 1.0000 0.0000 0.0000)">
          <defs>
            <clipPath id="clip-402724286">
              <path d="M 23.9462,10.5363 L 74.7120,10.5363 L 74.7120,39.2717 L 23.9462,39.2717 L 23.9462,10.5363 Z Z"/>
            </clipPath>
          </defs>
          <path clip-path="url(#clip-402724286)" d="M 22.9883,9.5785 L 22.9883,38.3139 L 23.9462,38.3139 L 23.9462,9.5785 L 22.9883,9.5785 Z" stroke-width="1px" stroke="#00B0D8" fill="#00B0D8"/>
          <path clip-path="url(#clip-402724286)" d="M 23.9462,9.5785 L 23.9462,38.3139 L 24.9040,38.3139 L 24.9040,9.5785 L 23.9462,9.5785 Z" stroke-width="1px" stroke="#1263B2" fill="#1263B2"/>
          <path clip-path="url(#clip-402724286)" d="M 24.9040,9.5785 L 24.9040,38.3139 L 25.8619,38.3139 L 25.8619,9.5785 L 24.9040,9.5785 Z" stroke-width="1px" stroke="#1165B2" fill="#1165B2"/>
          <path clip-path="url(#clip-402724286)" d="M 25.8619,9.5785 L 25.8619,38.3139 L 26.8197,38.3139 L 26.8197,9.5785 L 25.8619,9.5785 Z" stroke-width="1px" stroke="#1166B3" fill="#1166B3"/>
          <path clip-path="url(#clip-402724286)" d="M 26.8197,9.5785 L 26.8197,38.3139 L 27.7775,38.3139 L 27.7775,9.5785 L 26.8197,9.5785 Z" stroke-width="1px" stroke="#1168B3" fill="#1168B3"/>
          <path clip-path="url(#clip-402724286)" d="M 27.7775,9.5785 L 27.7775,38.3139 L 28.7354,38.3139 L 28.7354,9.5785 L 27.7775,9.5785 Z" stroke-width="1px" stroke="#1169B4" fill="#1169B4"/>
          <path clip-path="url(#clip-402724286)" d="M 28.7354,9.5785 L 28.7354,38.3139 L 29.6932,38.3139 L 29.6932,9.5785 L 28.7354,9.5785 Z" stroke-width="1px" stroke="#106BB5" fill="#106BB5"/>
          <path clip-path="url(#clip-402724286)" d="M 29.6932,9.5785 L 29.6932,38.3139 L 30.6511,38.3139 L 30.6511,9.5785 L 29.6932,9.5785 Z" stroke-width="1px" stroke="#106CB6" fill="#106CB6"/>
          <path clip-path="url(#clip-402724286)" d="M 30.6511,9.5785 L 30.6511,38.3139 L 31.6089,38.3139 L 31.6089,9.5785 L 30.6511,9.5785 Z" stroke-width="1px" stroke="#106EB7" fill="#106EB7"/>
          <path clip-path="url(#clip-402724286)" d="M 31.6089,9.5785 L 31.6089,38.3139 L 32.5668,38.3139 L 32.5668,9.5785 L 31.6089,9.5785 Z" stroke-width="1px" stroke="#0F6FB7" fill="#0F6FB7"/>
          <path clip-path="url(#clip-402724286)" d="M 32.5668,9.5785 L 32.5668,38.3139 L 33.5246,38.3139 L 33.5246,9.5785 L 32.5668,9.5785 Z" stroke-width="1px" stroke="#0F71B8" fill="#0F71B8"/>
          <path clip-path="url(#clip-402724286)" d="M 33.5246,9.5785 L 33.5246,38.3139 L 34.4825,38.3139 L 34.4825,9.5785 L 33.5246,9.5785 Z" stroke-width="1px" stroke="#0F72B9" fill="#0F72B9"/>
          <path clip-path="url(#clip-402724286)" d="M 34.4825,9.5785 L 34.4825,38.3139 L 35.4403,38.3139 L 35.4403,9.5785 L 34.4825,9.5785 Z" stroke-width="1px" stroke="#0E74BA" fill="#0E74BA"/>
          <path clip-path="url(#clip-402724286)" d="M 35.4403,9.5785 L 35.4403,38.3139 L 36.3982,38.3139 L 36.3982,9.5785 L 35.4403,9.5785 Z" stroke-width="1px" stroke="#0E75BA" fill="#0E75BA"/>
          <path clip-path="url(#clip-402724286)" d="M 36.3982,9.5785 L 36.3982,38.3139 L 37.3560,38.3139 L 37.3560,9.5785 L 36.3982,9.5785 Z" stroke-width="1px" stroke="#0E77BB" fill="#0E77BB"/>
          <path clip-path="url(#clip-402724286)" d="M 37.3560,9.5785 L 37.3560,38.3139 L 38.3139,38.3139 L 38.3139,9.5785 L 37.3560,9.5785 Z" stroke-width="1px" stroke="#0D78BC" fill="#0D78BC"/>
          <path clip-path="url(#clip-402724286)" d="M 38.3139,9.5785 L 38.3139,38.3139 L 39.2717,38.3139 L 39.2717,9.5785 L 38.3139,9.5785 Z" stroke-width="1px" stroke="#0D79BC" fill="#0D79BC"/>
          <path clip-path="url(#clip-402724286)" d="M 39.2717,9.5785 L 39.2717,38.3139 L 40.2296,38.3139 L 40.2296,9.5785 L 39.2717,9.5785 Z" stroke-width="1px" stroke="#0C7ABD" fill="#0C7ABD"/>
          <path clip-path="url(#clip-402724286)" d="M 40.2296,9.5785 L 40.2296,38.3139 L 41.1874,38.3139 L 41.1874,9.5785 L 40.2296,9.5785 Z" stroke-width="1px" stroke="#0C7CBE" fill="#0C7CBE"/>
          <path clip-path="url(#clip-402724286)" d="M 41.1874,9.5785 L 41.1874,38.3139 L 42.1452,38.3139 L 42.1452,9.5785 L 41.1874,9.5785 Z" stroke-width="1px" stroke="#0B7DBF" fill="#0B7DBF"/>
          <path clip-path="url(#clip-402724286)" d="M 42.1452,9.5785 L 42.1452,38.3139 L 43.1031,38.3139 L 43.1031,9.5785 L 42.1452,9.5785 Z" stroke-width="1px" stroke="#0B7FC0" fill="#0B7FC0"/>
          <path clip-path="url(#clip-402724286)" d="M 43.1031,9.5785 L 43.1031,38.3139 L 44.0609,38.3139 L 44.0609,9.5785 L 43.1031,9.5785 Z" stroke-width="1px" stroke="#0B80C0" fill="#0B80C0"/>
          <path clip-path="url(#clip-402724286)" d="M 44.0609,9.5785 L 44.0609,38.3139 L 45.0188,38.3139 L 45.0188,9.5785 L 44.0609,9.5785 Z" stroke-width="1px" stroke="#0B82C1" fill="#0B82C1"/>
          <path clip-path="url(#clip-402724286)" d="M 45.0188,9.5785 L 45.0188,38.3139 L 45.9766,38.3139 L 45.9766,9.5785 L 45.0188,9.5785 Z" stroke-width="1px" stroke="#0A83C2" fill="#0A83C2"/>
          <path clip-path="url(#clip-402724286)" d="M 45.9766,9.5785 L 45.9766,38.3139 L 46.9345,38.3139 L 46.9345,9.5785 L 45.9766,9.5785 Z" stroke-width="1px" stroke="#0A84C2" fill="#0A84C2"/>
          <path clip-path="url(#clip-402724286)" d="M 46.9345,9.5785 L 46.9345,38.3139 L 47.8923,38.3139 L 47.8923,9.5785 L 46.9345,9.5785 Z" stroke-width="1px" stroke="#0A86C3" fill="#0A86C3"/>
          <path clip-path="url(#clip-402724286)" d="M 47.8923,9.5785 L 47.8923,38.3139 L 48.8502,38.3139 L 48.8502,9.5785 L 47.8923,9.5785 Z" stroke-width="1px" stroke="#0987C4" fill="#0987C4"/>
          <path clip-path="url(#clip-402724286)" d="M 48.8502,9.5785 L 48.8502,38.3139 L 49.8080,38.3139 L 49.8080,9.5785 L 48.8502,9.5785 Z" stroke-width="1px" stroke="#0989C5" fill="#0989C5"/>
          <path clip-path="url(#clip-402724286)" d="M 49.8080,9.5785 L 49.8080,38.3139 L 50.7659,38.3139 L 50.7659,9.5785 L 49.8080,9.5785 Z" stroke-width="1px" stroke="#098AC6" fill="#098AC6"/>
          <path clip-path="url(#clip-402724286)" d="M 50.7659,9.5785 L 50.7659,38.3139 L 51.7237,38.3139 L 51.7237,9.5785 L 50.7659,9.5785 Z" stroke-width="1px" stroke="#088CC6" fill="#088CC6"/>
          <path clip-path="url(#clip-402724286)" d="M 51.7237,9.5785 L 51.7237,38.3139 L 52.6816,38.3139 L 52.6816,9.5785 L 51.7237,9.5785 Z" stroke-width="1px" stroke="#088DC7" fill="#088DC7"/>
          <path clip-path="url(#clip-402724286)" d="M 52.6816,9.5785 L 52.6816,38.3139 L 53.6394,38.3139 L 53.6394,9.5785 L 52.6816,9.5785 Z" stroke-width="1px" stroke="#088FC7" fill="#088FC7"/>
          <path clip-path="url(#clip-402724286)" d="M 53.6394,9.5785 L 53.6394,38.3139 L 54.5973,38.3139 L 54.5973,9.5785 L 53.6394,9.5785 Z" stroke-width="1px" stroke="#0890C8" fill="#0890C8"/>
          <path clip-path="url(#clip-402724286)" d="M 54.5973,9.5785 L 54.5973,38.3139 L 55.5551,38.3139 L 55.5551,9.5785 L 54.5973,9.5785 Z" stroke-width="1px" stroke="#0792C9" fill="#0792C9"/>
          <path clip-path="url(#clip-402724286)" d="M 55.5551,9.5785 L 55.5551,38.3139 L 56.5129,38.3139 L 56.5129,9.5785 L 55.5551,9.5785 Z" stroke-width="1px" stroke="#0793C9" fill="#0793C9"/>
          <path clip-path="url(#clip-402724286)" d="M 56.5129,9.5785 L 56.5129,38.3139 L 57.4708,38.3139 L 57.4708,9.5785 L 56.5129,9.5785 Z" stroke-width="1px" stroke="#0795CA" fill="#0795CA"/>
          <path clip-path="url(#clip-402724286)" d="M 57.4708,9.5785 L 57.4708,38.3139 L 58.4286,38.3139 L 58.4286,9.5785 L 57.4708,9.5785 Z" stroke-width="1px" stroke="#0696CB" fill="#0696CB"/>
          <path clip-path="url(#clip-402724286)" d="M 58.4286,9.5785 L 58.4286,38.3139 L 59.3865,38.3139 L 59.3865,9.5785 L 58.4286,9.5785 Z" stroke-width="1px" stroke="#0698CC" fill="#0698CC"/>
          <path clip-path="url(#clip-402724286)" d="M 59.3865,9.5785 L 59.3865,38.3139 L 60.3443,38.3139 L 60.3443,9.5785 L 59.3865,9.5785 Z" stroke-width="1px" stroke="#0699CD" fill="#0699CD"/>
          <path clip-path="url(#clip-402724286)" d="M 60.3443,9.5785 L 60.3443,38.3139 L 61.3022,38.3139 L 61.3022,9.5785 L 60.3443,9.5785 Z" stroke-width="1px" stroke="#059BCD" fill="#059BCD"/>
          <path clip-path="url(#clip-402724286)" d="M 61.3022,9.5785 L 61.3022,38.3139 L 62.2600,38.3139 L 62.2600,9.5785 L 61.3022,9.5785 Z" stroke-width="1px" stroke="#059CCE" fill="#059CCE"/>
          <path clip-path="url(#clip-402724286)" d="M 62.2600,9.5785 L 62.2600,38.3139 L 63.2179,38.3139 L 63.2179,9.5785 L 62.2600,9.5785 Z" stroke-width="1px" stroke="#059ECE" fill="#059ECE"/>
          <path clip-path="url(#clip-402724286)" d="M 63.2179,9.5785 L 63.2179,38.3139 L 64.1757,38.3139 L 64.1757,9.5785 L 63.2179,9.5785 Z" stroke-width="1px" stroke="#049FCF" fill="#049FCF"/>
          <path clip-path="url(#clip-402724286)" d="M 64.1757,9.5785 L 64.1757,38.3139 L 65.1336,38.3139 L 65.1336,9.5785 L 64.1757,9.5785 Z" stroke-width="1px" stroke="#04A0D0" fill="#04A0D0"/>
          <path clip-path="url(#clip-402724286)" d="M 65.1336,9.5785 L 65.1336,38.3139 L 66.0914,38.3139 L 66.0914,9.5785 L 65.1336,9.5785 Z" stroke-width="1px" stroke="#03A1D1" fill="#03A1D1"/>
          <path clip-path="url(#clip-402724286)" d="M 66.0914,9.5785 L 66.0914,38.3139 L 67.0493,38.3139 L 67.0493,9.5785 L 66.0914,9.5785 Z" stroke-width="1px" stroke="#03A3D2" fill="#03A3D2"/>
          <path clip-path="url(#clip-402724286)" d="M 67.0493,9.5785 L 67.0493,38.3139 L 68.0071,38.3139 L 68.0071,9.5785 L 67.0493,9.5785 Z" stroke-width="1px" stroke="#02A4D2" fill="#02A4D2"/>
          <path clip-path="url(#clip-402724286)" d="M 68.0071,9.5785 L 68.0071,38.3139 L 68.9649,38.3139 L 68.9649,9.5785 L 68.0071,9.5785 Z" stroke-width="1px" stroke="#02A6D3" fill="#02A6D3"/>
          <path clip-path="url(#clip-402724286)" d="M 68.9649,9.5785 L 68.9649,38.3139 L 69.9228,38.3139 L 69.9228,9.5785 L 68.9649,9.5785 Z" stroke-width="1px" stroke="#02A7D4" fill="#02A7D4"/>
          <path clip-path="url(#clip-402724286)" d="M 69.9228,9.5785 L 69.9228,38.3139 L 70.8806,38.3139 L 70.8806,9.5785 L 69.9228,9.5785 Z" stroke-width="1px" stroke="#01A9D5" fill="#01A9D5"/>
          <path clip-path="url(#clip-402724286)" d="M 70.8806,9.5785 L 70.8806,38.3139 L 71.8385,38.3139 L 71.8385,9.5785 L 70.8806,9.5785 Z" stroke-width="1px" stroke="#01AAD5" fill="#01AAD5"/>
          <path clip-path="url(#clip-402724286)" d="M 71.8385,9.5785 L 71.8385,38.3139 L 72.7963,38.3139 L 72.7963,9.5785 L 71.8385,9.5785 Z" stroke-width="1px" stroke="#01ACD6" fill="#01ACD6"/>
          <path clip-path="url(#clip-402724286)" d="M 72.7963,9.5785 L 72.7963,38.3139 L 73.7542,38.3139 L 73.7542,9.5785 L 72.7963,9.5785 Z" stroke-width="1px" stroke="#01ADD7" fill="#01ADD7"/>
          <path clip-path="url(#clip-402724286)" d="M 73.7542,9.5785 L 73.7542,38.3139 L 74.7120,38.3139 L 74.7120,9.5785 L 73.7542,9.5785 Z" stroke-width="1px" stroke="#00AFD7" fill="#00AFD7"/>
        </g>
        <g transform="matrix(0.0625 0.0000 0.0000 0.0625 0.0000 0.0000)">
          <path d="M 369.7288,614.9375 L 1195.3924,614.9375 L 1195.3924,166.6653 L 369.7288,166.6653 L 369.7288,614.9375 " stroke="#0054A6" stroke-width="9.5785" stroke-linecap="round" stroke-linejoin="round" fill="none"/>
        </g>
        <g transform="matrix(1.0000 0.0000 0.0000 1.0000 0.0000 0.0000)">
</g>
        <g transform="matrix(0.0625 0.0000 0.0000 0.0625 0.0000 0.0000)">
          <path d="M 782.5606,592.9070 C 724.1320,592.9070 639.8415,590.9913 564.1716,587.1599 C 497.1223,584.2864 464.5556,582.3707 447.3143,579.4971 C 436.7780,578.5393 410.9162,574.7079 410.9162,545.9725 L 410.9162,235.6302 C 410.9162,206.8948 436.7780,203.0635 447.3143,202.1056 C 464.5556,199.2321 497.1223,197.3164 564.1716,194.4428 C 639.8415,190.6115 723.1741,188.6958 782.5606,188.6958 C 841.9471,188.6958 926.2376,190.6115 1001.9075,194.4428 C 1067.9989,197.3164 1100.5656,199.2321 1117.8069,202.1056 C 1129.3010,203.0635 1154.2050,206.8948 1154.2050,235.6302 L 1154.2050,545.9725 C 1154.2050,574.7079 1129.3010,578.5393 1117.8069,579.4971 C 1100.5656,582.3707 1067.9989,584.2864 1001.9075,587.1599 C 925.2797,590.9913 841.9471,592.9070 782.5606,592.9070 Z " fill="#0054A6" stroke="none"/>
        </g>
        <g transform="matrix(1.0000 0.0000 0.0000 1.0000 0.0000 0.0000)">
          <path d="M 63.2179,14.3677 C 58.4286,14.3677 52.6816,13.4099 49.8080,13.4099 C 45.9766,13.4099 40.2296,14.3677 35.4403,14.3677 C 27.7775,14.3677 27.7775,14.3677 27.7775,15.3255 L 27.7775,34.4825 C 27.7775,35.4403 27.7775,35.4403 35.4403,35.4403 C 40.2296,35.4403 45.9766,35.4403 49.8080,35.4403 C 52.6816,35.4403 58.4286,35.4403 63.2179,35.4403 C 70.8806,35.4403 70.8806,35.4403 70.8806,34.4825 L 70.8806,15.3255 C 70.8806,14.3677 70.8806,14.3677 63.2179,14.3677 Z " fill="none" stroke="none"/>
          <defs>
            <clipPath id="clip-593209441">
              <path d="M 63.2179,14.3677 C 58.4286,14.3677 52.6816,13.4099 49.8080,13.4099 C 45.9766,13.4099 40.2296,14.3677 35.4403,14.3677 C 27.7775,14.3677 27.7775,14.3677 27.7775,15.3255 L 27.7775,34.4825 C 27.7775,35.4403 27.7775,35.4403 35.4403,35.4403 C 40.2296,35.4403 45.9766,35.4403 49.8080,35.4403 C 52.6816,35.4403 58.4286,35.4403 63.2179,35.4403 C 70.8806,35.4403 70.8806,35.4403 70.8806,34.4825 L 70.8806,15.3255 C 70.8806,14.3677 70.8806,14.3677 63.2179,14.3677 Z"/>
            </clipPath>
          </defs>
          <path clip-path="url(#clip-593209441)" d="M 26.8197,12.4520 L 26.8197,13.4099 L 70.8806,13.4099 L 70.8806,12.4520 L 26.8197,12.4520 Z" stroke-width="1px" stroke="#B3DEEE" fill="#B3DEEE"/>
          <path clip-path="url(#clip-593209441)" d="M 26.8197,13.4099 L 26.8197,14.3677 L 70.8806,14.3677 L 70.8806,13.4099 L 26.8197,13.4099 Z" stroke-width="1px" stroke="#AEDBED" fill="#AEDBED"/>
          <path clip-path="url(#clip-593209441)" d="M 26.8197,14.3677 L 26.8197,15.3255 L 70.8806,15.3255 L 70.8806,14.3677 L 26.8197,14.3677 Z" stroke-width="1px" stroke="#B4DFEE" fill="#B4DFEE"/>
          <path clip-path="url(#clip-593209441)" d="M 26.8197,15.3255 L 26.8197,16.2834 L 70.8806,16.2834 L 70.8806,15.3255 L 26.8197,15.3255 Z" stroke-width="1px" stroke="#BCE2F0" fill="#BCE2F0"/>
          <path clip-path="url(#clip-593209441)" d="M 26.8197,16.2834 L 26.8197,17.2412 L 70.8806,17.2412 L 70.8806,16.2834 L 26.8197,16.2834 Z" stroke-width="1px" stroke="#C3E5F2" fill="#C3E5F2"/>
          <path clip-path="url(#clip-593209441)" d="M 26.8197,17.2412 L 26.8197,18.1991 L 70.8806,18.1991 L 70.8806,17.2412 L 26.8197,17.2412 Z" stroke-width="1px" stroke="#CAE8F4" fill="#CAE8F4"/>
          <path clip-path="url(#clip-593209441)" d="M 26.8197,18.1991 L 26.8197,19.1569 L 70.8806,19.1569 L 70.8806,18.1991 L 26.8197,18.1991 Z" stroke-width="1px" stroke="#D1EBF5" fill="#D1EBF5"/>
          <path clip-path="url(#clip-593209441)" d="M 26.8197,19.1569 L 26.8197,20.1148 L 70.8806,20.1148 L 70.8806,19.1569 L 26.8197,19.1569 Z" stroke-width="1px" stroke="#D8EEF6" fill="#D8EEF6"/>
          <path clip-path="url(#clip-593209441)" d="M 26.8197,20.1148 L 26.8197,21.0726 L 70.8806,21.0726 L 70.8806,20.1148 L 26.8197,20.1148 Z" stroke-width="1px" stroke="#DFF2F8" fill="#DFF2F8"/>
          <path clip-path="url(#clip-593209441)" d="M 26.8197,21.0726 L 26.8197,22.0305 L 70.8806,22.0305 L 70.8806,21.0726 L 26.8197,21.0726 Z" stroke-width="1px" stroke="#E7F4FA" fill="#E7F4FA"/>
          <path clip-path="url(#clip-593209441)" d="M 26.8197,22.0305 L 26.8197,22.9883 L 70.8806,22.9883 L 70.8806,22.0305 L 26.8197,22.0305 Z" stroke-width="1px" stroke="#EEF7FC" fill="#EEF7FC"/>
          <path clip-path="url(#clip-593209441)" d="M 26.8197,22.9883 L 26.8197,23.9462 L 70.8806,23.9462 L 70.8806,22.9883 L 26.8197,22.9883 Z" stroke-width="1px" stroke="#F5FBFD" fill="#F5FBFD"/>
          <path clip-path="url(#clip-593209441)" d="M 26.8197,23.9462 L 26.8197,24.9040 L 70.8806,24.9040 L 70.8806,23.9462 L 26.8197,23.9462 Z" stroke-width="1px" stroke="#FCFEFE" fill="#FCFEFE"/>
          <path clip-path="url(#clip-593209441)" d="M 26.8197,24.9040 L 26.8197,25.8619 L 70.8806,25.8619 L 70.8806,24.9040 L 26.8197,24.9040 Z" stroke-width="1px" stroke="#FBFEFE" fill="#FBFEFE"/>
          <path clip-path="url(#clip-593209441)" d="M 26.8197,25.8619 L 26.8197,26.8197 L 70.8806,26.8197 L 70.8806,25.8619 L 26.8197,25.8619 Z" stroke-width="1px" stroke="#F4FBFD" fill="#F4FBFD"/>
          <path clip-path="url(#clip-593209441)" d="M 26.8197,26.8197 L 26.8197,27.7775 L 70.8806,27.7775 L 70.8806,26.8197 L 26.8197,26.8197 Z" stroke-width="1px" stroke="#EDF7FB" fill="#EDF7FB"/>
          <path clip-path="url(#clip-593209441)" d="M 26.8197,27.7775 L 26.8197,28.7354 L 70.8806,28.7354 L 70.8806,27.7775 L 26.8197,27.7775 Z" stroke-width="1px" stroke="#E6F4FA" fill="#E6F4FA"/>
          <path clip-path="url(#clip-593209441)" d="M 26.8197,28.7354 L 26.8197,29.6932 L 70.8806,29.6932 L 70.8806,28.7354 L 26.8197,28.7354 Z" stroke-width="1px" stroke="#DFF1F8" fill="#DFF1F8"/>
          <path clip-path="url(#clip-593209441)" d="M 26.8197,29.6932 L 26.8197,30.6511 L 70.8806,30.6511 L 70.8806,29.6932 L 26.8197,29.6932 Z" stroke-width="1px" stroke="#D8EEF6" fill="#D8EEF6"/>
          <path clip-path="url(#clip-593209441)" d="M 26.8197,30.6511 L 26.8197,31.6089 L 70.8806,31.6089 L 70.8806,30.6511 L 26.8197,30.6511 Z" stroke-width="1px" stroke="#D1EBF5" fill="#D1EBF5"/>
          <path clip-path="url(#clip-593209441)" d="M 26.8197,31.6089 L 26.8197,32.5668 L 70.8806,32.5668 L 70.8806,31.6089 L 26.8197,31.6089 Z" stroke-width="1px" stroke="#CAE8F4" fill="#CAE8F4"/>
          <path clip-path="url(#clip-593209441)" d="M 26.8197,32.5668 L 26.8197,33.5246 L 70.8806,33.5246 L 70.8806,32.5668 L 26.8197,32.5668 Z" stroke-width="1px" stroke="#C3E4F2" fill="#C3E4F2"/>
          <path clip-path="url(#clip-593209441)" d="M 26.8197,33.5246 L 26.8197,34.4825 L 70.8806,34.4825 L 70.8806,33.5246 L 26.8197,33.5246 Z" stroke-width="1px" stroke="#BBE2F0" fill="#BBE2F0"/>
          <path clip-path="url(#clip-593209441)" d="M 26.8197,34.4825 L 26.8197,35.4403 L 70.8806,35.4403 L 70.8806,34.4825 L 26.8197,34.4825 Z" stroke-width="1px" stroke="#B4DEEE" fill="#B4DEEE"/>
        </g>
        <g transform="matrix(0.0625 0.0000 0.0000 0.0625 0.0000 0.0000)">
          <path d="M 1000.9496,219.3469 C 925.2797,215.5155 840.9892,213.5998 782.5606,213.5998 C 724.1320,213.5998 640.7993,215.5155 565.1294,219.3469 C 433.9045,225.0939 433.9045,227.9675 433.9045,235.6302 L 433.9045,545.9725 C 433.9045,553.6353 433.9045,556.5088 565.1294,562.2559 C 640.7993,565.1294 724.1320,568.0030 782.5606,568.0030 C 840.9892,568.0030 925.2797,565.1294 1000.9496,562.2559 C 1131.2167,556.5088 1131.2167,553.6353 1131.2167,545.9725 L 1131.2167,235.6302 C 1131.2167,227.9675 1131.2167,225.0939 1000.9496,219.3469 " stroke="#ADDBED" stroke-width="0.9578" stroke-linecap="butt" stroke-linejoin="round" fill="none"/>
        </g>
        <g transform="matrix(1.0000 0.0000 0.0000 1.0000 0.0000 0.0000)">
</g>
        <g transform="matrix(0.0625 0.0000 0.0000 0.0625 0.0000 0.0000)">
          <path d="M 708.8064,268.1970 L 708.8064,295.9746 L 853.4412,295.9746 L 853.4412,268.1970 L 708.8064,268.1970 Z" stroke-width="1px" stroke="#8DC63F" fill="#8DC63F"/>
        </g>
        <g transform="matrix(1.0000 0.0000 0.0000 1.0000 0.0000 0.0000)">
</g>
        <g transform="matrix(0.0625 0.0000 0.0000 0.0625 0.0000 0.0000)">
          <path d="M 708.8064,295.9746 L 708.8064,332.3727 C 708.8064,340.0355 714.5535,345.7826 720.3006,345.7826 L 841.9471,345.7826 C 847.6942,345.7826 853.4412,340.0355 853.4412,332.3727 L 853.4412,295.9746 L 708.8064,295.9746 Z " fill="#0054A6" stroke="none"/>
        </g>
        <g transform="matrix(1.0000 0.0000 0.0000 1.0000 0.0000 0.0000)">
</g>
        <g transform="matrix(0.0625 0.0000 0.0000 0.0625 0.0000 0.0000)">
          <path d="M 889.8394,239.4616 L 901.3336,240.4195 C 909.9542,241.3773 915.7013,353.4454 915.7013,387.9278 C 915.7013,388.8857 915.7013,388.8857 915.7013,389.8435 C 915.7013,390.8014 915.7013,390.8014 915.7013,391.7592 C 915.7013,426.2417 909.9542,538.3097 901.3336,539.2676 L 889.8394,540.2254 C 886.0080,540.2254 882.1766,536.3940 882.1766,531.6048 L 882.1766,248.0822 C 882.1766,243.2930 886.0080,239.4616 889.8394,239.4616 Z M 950.1837,245.2087 L 960.7201,246.1666 C 969.3407,247.1244 976.0456,355.3611 976.0456,387.9278 C 976.0456,387.9278 976.0456,388.8857 976.0456,389.8435 C 976.0456,389.8435 976.0456,390.8014 976.0456,391.7592 C 976.0456,423.3682 969.3407,532.5627 960.7201,533.5205 L 950.1837,533.5205 C 946.3524,534.4784 942.5210,530.6470 942.5210,525.8577 L 942.5210,252.8715 C 942.5210,249.0401 946.3524,245.2087 950.1837,245.2087 Z M 1010.5281,250.9558 L 1021.0644,251.9136 C 1029.6850,251.9136 1035.4321,357.2767 1035.4321,387.9278 C 1035.4321,387.9278 1035.4321,388.8857 1035.4321,388.8857 C 1035.4321,389.8435 1035.4321,390.8014 1035.4321,390.8014 C 1035.4321,421.4525 1029.6850,526.8156 1021.0644,526.8156 L 1010.5281,527.7734 C 1006.6967,527.7734 1002.8653,524.8999 1002.8653,520.1107 L 1002.8653,258.6186 C 1002.8653,253.8293 1006.6967,250.9558 1010.5281,250.9558 Z M 1070.8724,256.7029 L 1081.4087,257.6607 C 1089.0715,257.6607 1095.7764,358.2346 1095.7764,386.9700 C 1095.7764,387.9278 1095.7764,388.8857 1095.7764,388.8857 C 1095.7764,389.8435 1095.7764,389.8435 1095.7764,390.8014 C 1095.7764,419.5368 1089.0715,520.1107 1081.4087,521.0685 L 1070.8724,522.0263 C 1067.0410,522.0263 1064.1675,519.1528 1064.1675,515.3214 L 1064.1675,263.4078 C 1064.1675,259.5764 1067.0410,256.7029 1070.8724,256.7029 Z M 669.5347,239.4616 L 658.0406,240.4195 C 649.4199,241.3773 643.6729,353.4454 643.6729,387.9278 C 643.6729,388.8857 643.6729,388.8857 643.6729,389.8435 C 643.6729,390.8014 643.6729,390.8014 643.6729,391.7592 C 643.6729,426.2417 649.4199,538.3097 658.0406,539.2676 L 669.5347,540.2254 C 673.3661,540.2254 677.1975,536.3940 677.1975,531.6048 L 677.1975,248.0822 C 677.1975,243.2930 673.3661,239.4616 669.5347,239.4616 Z M 488.5017,256.7029 L 477.9654,257.6607 C 469.3448,257.6607 463.5977,358.2346 463.5977,386.9700 C 463.5977,387.9278 463.5977,388.8857 463.5977,388.8857 C 463.5977,389.8435 463.5977,389.8435 463.5977,390.8014 C 463.5977,419.5368 469.3448,520.1107 477.9654,521.0685 L 488.5017,522.0263 C 492.3331,522.0263 496.1645,519.1528 496.1645,515.3214 L 496.1645,263.4078 C 496.1645,259.5764 492.3331,256.7029 488.5017,256.7029 Z M 548.8461,250.9558 L 538.3097,251.9136 C 529.6891,251.9136 523.9420,357.2767 523.9420,387.9278 C 523.9420,387.9278 523.9420,388.8857 523.9420,388.8857 C 523.9420,389.8435 523.9420,390.8014 523.9420,390.8014 C 523.9420,421.4525 529.6891,526.8156 538.3097,526.8156 L 548.8461,527.7734 C 552.6774,527.7734 556.5088,524.8999 556.5088,520.1107 L 556.5088,258.6186 C 556.5088,253.8293 552.6774,250.9558 548.8461,250.9558 Z M 609.1904,245.2087 L 598.6541,246.1666 C 590.0335,247.1244 583.3285,355.3611 583.3285,387.9278 C 583.3285,387.9278 583.3285,388.8857 583.3285,389.8435 C 583.3285,389.8435 583.3285,390.8014 583.3285,391.7592 C 583.3285,423.3682 590.0335,532.5627 598.6541,533.5205 L 609.1904,533.5205 C 613.0218,534.4784 616.8532,530.6470 616.8532,525.8577 L 616.8532,252.8715 C 616.8532,249.0401 613.0218,245.2087 609.1904,245.2087 Z " fill="#0054A6" stroke="none"/>
        </g>
        <g transform="matrix(1.0000 0.0000 0.0000 1.0000 0.0000 0.0000)">
          <path d="M 23.9462,10.5363 L 21.0726,12.4520 L 21.0726,37.3560 L 23.9462,39.2717 L 23.9462,10.5363 " fill="none" stroke="none"/>
          <defs>
            <clipPath id="clip-1194953865">
              <path d="M 23.9462,10.5363 L 21.0726,12.4520 L 21.0726,37.3560 L 23.9462,39.2717 L 23.9462,10.5363 Z"/>
            </clipPath>
          </defs>
          <path clip-path="url(#clip-1194953865)" d="M 20.1148,9.5785 L 20.1148,10.5363 L 22.9883,10.5363 L 22.9883,9.5785 L 20.1148,9.5785 Z" stroke-width="1px" stroke="#54BAEA" fill="#54BAEA"/>
          <path clip-path="url(#clip-1194953865)" d="M 20.1148,10.5363 L 20.1148,11.4942 L 22.9883,11.4942 L 22.9883,10.5363 L 20.1148,10.5363 Z" stroke-width="1px" stroke="#0077C0" fill="#0077C0"/>
          <path clip-path="url(#clip-1194953865)" d="M 20.1148,11.4942 L 20.1148,12.4520 L 22.9883,12.4520 L 22.9883,11.4942 L 20.1148,11.4942 Z" stroke-width="1px" stroke="#037AC2" fill="#037AC2"/>
          <path clip-path="url(#clip-1194953865)" d="M 20.1148,12.4520 L 20.1148,13.4099 L 22.9883,13.4099 L 22.9883,12.4520 L 20.1148,12.4520 Z" stroke-width="1px" stroke="#067CC3" fill="#067CC3"/>
          <path clip-path="url(#clip-1194953865)" d="M 20.1148,13.4099 L 20.1148,14.3677 L 22.9883,14.3677 L 22.9883,13.4099 L 20.1148,13.4099 Z" stroke-width="1px" stroke="#097FC4" fill="#097FC4"/>
          <path clip-path="url(#clip-1194953865)" d="M 20.1148,14.3677 L 20.1148,15.3255 L 22.9883,15.3255 L 22.9883,14.3677 L 20.1148,14.3677 Z" stroke-width="1px" stroke="#0C81C6" fill="#0C81C6"/>
          <path clip-path="url(#clip-1194953865)" d="M 20.1148,15.3255 L 20.1148,16.2834 L 22.9883,16.2834 L 22.9883,15.3255 L 20.1148,15.3255 Z" stroke-width="1px" stroke="#0F83C7" fill="#0F83C7"/>
          <path clip-path="url(#clip-1194953865)" d="M 20.1148,16.2834 L 20.1148,17.2412 L 22.9883,17.2412 L 22.9883,16.2834 L 20.1148,16.2834 Z" stroke-width="1px" stroke="#1285C9" fill="#1285C9"/>
          <path clip-path="url(#clip-1194953865)" d="M 20.1148,17.2412 L 20.1148,18.1991 L 22.9883,18.1991 L 22.9883,17.2412 L 20.1148,17.2412 Z" stroke-width="1px" stroke="#1588CB" fill="#1588CB"/>
          <path clip-path="url(#clip-1194953865)" d="M 20.1148,18.1991 L 20.1148,19.1569 L 22.9883,19.1569 L 22.9883,18.1991 L 20.1148,18.1991 Z" stroke-width="1px" stroke="#188ACC" fill="#188ACC"/>
          <path clip-path="url(#clip-1194953865)" d="M 20.1148,19.1569 L 20.1148,20.1148 L 22.9883,20.1148 L 22.9883,19.1569 L 20.1148,19.1569 Z" stroke-width="1px" stroke="#1B8DCD" fill="#1B8DCD"/>
          <path clip-path="url(#clip-1194953865)" d="M 20.1148,20.1148 L 20.1148,21.0726 L 22.9883,21.0726 L 22.9883,20.1148 L 20.1148,20.1148 Z" stroke-width="1px" stroke="#1E8FCF" fill="#1E8FCF"/>
          <path clip-path="url(#clip-1194953865)" d="M 20.1148,21.0726 L 20.1148,22.0305 L 22.9883,22.0305 L 22.9883,21.0726 L 20.1148,21.0726 Z" stroke-width="1px" stroke="#2191D0" fill="#2191D0"/>
          <path clip-path="url(#clip-1194953865)" d="M 20.1148,22.0305 L 20.1148,22.9883 L 22.9883,22.9883 L 22.9883,22.0305 L 20.1148,22.0305 Z" stroke-width="1px" stroke="#2494D2" fill="#2494D2"/>
          <path clip-path="url(#clip-1194953865)" d="M 20.1148,22.9883 L 20.1148,23.9462 L 22.9883,23.9462 L 22.9883,22.9883 L 20.1148,22.9883 Z" stroke-width="1px" stroke="#2796D4" fill="#2796D4"/>
          <path clip-path="url(#clip-1194953865)" d="M 20.1148,23.9462 L 20.1148,24.9040 L 22.9883,24.9040 L 22.9883,23.9462 L 20.1148,23.9462 Z" stroke-width="1px" stroke="#2A99D5" fill="#2A99D5"/>
          <path clip-path="url(#clip-1194953865)" d="M 20.1148,24.9040 L 20.1148,25.8619 L 22.9883,25.8619 L 22.9883,24.9040 L 20.1148,24.9040 Z" stroke-width="1px" stroke="#2C9BD7" fill="#2C9BD7"/>
          <path clip-path="url(#clip-1194953865)" d="M 20.1148,25.8619 L 20.1148,26.8197 L 22.9883,26.8197 L 22.9883,25.8619 L 20.1148,25.8619 Z" stroke-width="1px" stroke="#2F9DD8" fill="#2F9DD8"/>
          <path clip-path="url(#clip-1194953865)" d="M 20.1148,26.8197 L 20.1148,27.7775 L 22.9883,27.7775 L 22.9883,26.8197 L 20.1148,26.8197 Z" stroke-width="1px" stroke="#32A0D9" fill="#32A0D9"/>
          <path clip-path="url(#clip-1194953865)" d="M 20.1148,27.7775 L 20.1148,28.7354 L 22.9883,28.7354 L 22.9883,27.7775 L 20.1148,27.7775 Z" stroke-width="1px" stroke="#36A2DB" fill="#36A2DB"/>
          <path clip-path="url(#clip-1194953865)" d="M 20.1148,28.7354 L 20.1148,29.6932 L 22.9883,29.6932 L 22.9883,28.7354 L 20.1148,28.7354 Z" stroke-width="1px" stroke="#38A4DC" fill="#38A4DC"/>
          <path clip-path="url(#clip-1194953865)" d="M 20.1148,29.6932 L 20.1148,30.6511 L 22.9883,30.6511 L 22.9883,29.6932 L 20.1148,29.6932 Z" stroke-width="1px" stroke="#3BA6DE" fill="#3BA6DE"/>
          <path clip-path="url(#clip-1194953865)" d="M 20.1148,30.6511 L 20.1148,31.6089 L 22.9883,31.6089 L 22.9883,30.6511 L 20.1148,30.6511 Z" stroke-width="1px" stroke="#3EA9DF" fill="#3EA9DF"/>
          <path clip-path="url(#clip-1194953865)" d="M 20.1148,31.6089 L 20.1148,32.5668 L 22.9883,32.5668 L 22.9883,31.6089 L 20.1148,31.6089 Z" stroke-width="1px" stroke="#42ACE0" fill="#42ACE0"/>
          <path clip-path="url(#clip-1194953865)" d="M 20.1148,32.5668 L 20.1148,33.5246 L 22.9883,33.5246 L 22.9883,32.5668 L 20.1148,32.5668 Z" stroke-width="1px" stroke="#44AEE2" fill="#44AEE2"/>
          <path clip-path="url(#clip-1194953865)" d="M 20.1148,33.5246 L 20.1148,34.4825 L 22.9883,34.4825 L 22.9883,33.5246 L 20.1148,33.5246 Z" stroke-width="1px" stroke="#47B0E4" fill="#47B0E4"/>
          <path clip-path="url(#clip-1194953865)" d="M 20.1148,34.4825 L 20.1148,35.4403 L 22.9883,35.4403 L 22.9883,34.4825 L 20.1148,34.4825 Z" stroke-width="1px" stroke="#4AB2E5" fill="#4AB2E5"/>
          <path clip-path="url(#clip-1194953865)" d="M 20.1148,35.4403 L 20.1148,36.3982 L 22.9883,36.3982 L 22.9883,35.4403 L 20.1148,35.4403 Z" stroke-width="1px" stroke="#4DB5E7" fill="#4DB5E7"/>
          <path clip-path="url(#clip-1194953865)" d="M 20.1148,36.3982 L 20.1148,37.3560 L 22.9883,37.3560 L 22.9883,36.3982 L 20.1148,36.3982 Z" stroke-width="1px" stroke="#50B7E8" fill="#50B7E8"/>
          <path clip-path="url(#clip-1194953865)" d="M 20.1148,37.3560 L 20.1148,38.3139 L 22.9883,38.3139 L 22.9883,37.3560 L 20.1148,37.3560 Z" stroke-width="1px" stroke="#53BAE9" fill="#53BAE9"/>
        </g>
        <g transform="matrix(0.0625 0.0000 0.0000 0.0625 0.0000 0.0000)">
          <path d="M 369.7288,166.6653 L 324.7100,192.5271 L 324.7100,589.0756 L 369.7288,614.9375 L 369.7288,166.6653 " stroke="#0054A6" stroke-width="9.5785" stroke-linecap="round" stroke-linejoin="round" fill="none"/>
        </g>
        <g transform="matrix(1.0000 0.0000 0.0000 1.0000 0.0000 0.0000)">
</g>
      </g>
      <!--emf-blob end-->
    </g>
  </g>
</svg>
