<svg xmlns="http://www.w3.org/2000/svg" xmlns:xlink="http://www.w3.org/1999/xlink" version="1.1" width="56.6929000000" height="58.9626000000">
  <title><![CDATA[FAS6000 Cluster]]></title>
  <g transform=" scale(1.000000) ">
    <!--converted by libvisio2svg-->
    <g transform=" translate(-1.181400,-1.081200) ">
      <!--emf-blob start-->
      <g transform="translate(0.9689, 0.9689)">
        <defs>
          <clipPath id="clip-1892066601">
            <path d="M 4.8445,1.9378 L 56.1957,1.9378 L 56.1957,30.0356 L 4.8445,30.0356 L 4.8445,1.9378 Z Z"/>
          </clipPath>
        </defs>
        <path clip-path="url(#clip-1892066601)" d="M 3.8756,0.9689 L 3.8756,30.0356 L 4.8445,30.0356 L 4.8445,0.9689 L 3.8756,0.9689 Z" stroke-width="1px" stroke="#00B0D8" fill="#00B0D8"/>
        <path clip-path="url(#clip-1892066601)" d="M 4.8445,0.9689 L 4.8445,30.0356 L 5.8134,30.0356 L 5.8134,0.9689 L 4.8445,0.9689 Z" stroke-width="1px" stroke="#1263B2" fill="#1263B2"/>
        <path clip-path="url(#clip-1892066601)" d="M 5.8134,0.9689 L 5.8134,30.0356 L 6.7822,30.0356 L 6.7822,0.9689 L 5.8134,0.9689 Z" stroke-width="1px" stroke="#1165B2" fill="#1165B2"/>
        <path clip-path="url(#clip-1892066601)" d="M 6.7822,0.9689 L 6.7822,30.0356 L 7.7511,30.0356 L 7.7511,0.9689 L 6.7822,0.9689 Z" stroke-width="1px" stroke="#1166B3" fill="#1166B3"/>
        <path clip-path="url(#clip-1892066601)" d="M 7.7511,0.9689 L 7.7511,30.0356 L 8.7200,30.0356 L 8.7200,0.9689 L 7.7511,0.9689 Z" stroke-width="1px" stroke="#1168B3" fill="#1168B3"/>
        <path clip-path="url(#clip-1892066601)" d="M 8.7200,0.9689 L 8.7200,30.0356 L 9.6889,30.0356 L 9.6889,0.9689 L 8.7200,0.9689 Z" stroke-width="1px" stroke="#1169B4" fill="#1169B4"/>
        <path clip-path="url(#clip-1892066601)" d="M 9.6889,0.9689 L 9.6889,30.0356 L 10.6578,30.0356 L 10.6578,0.9689 L 9.6889,0.9689 Z" stroke-width="1px" stroke="#106BB5" fill="#106BB5"/>
        <path clip-path="url(#clip-1892066601)" d="M 10.6578,0.9689 L 10.6578,30.0356 L 11.6267,30.0356 L 11.6267,0.9689 L 10.6578,0.9689 Z" stroke-width="1px" stroke="#106CB6" fill="#106CB6"/>
        <path clip-path="url(#clip-1892066601)" d="M 11.6267,0.9689 L 11.6267,30.0356 L 12.5956,30.0356 L 12.5956,0.9689 L 11.6267,0.9689 Z" stroke-width="1px" stroke="#106EB7" fill="#106EB7"/>
        <path clip-path="url(#clip-1892066601)" d="M 12.5956,0.9689 L 12.5956,30.0356 L 13.5645,30.0356 L 13.5645,0.9689 L 12.5956,0.9689 Z" stroke-width="1px" stroke="#0F6FB7" fill="#0F6FB7"/>
        <path clip-path="url(#clip-1892066601)" d="M 13.5645,0.9689 L 13.5645,30.0356 L 14.5334,30.0356 L 14.5334,0.9689 L 13.5645,0.9689 Z" stroke-width="1px" stroke="#0F71B8" fill="#0F71B8"/>
        <path clip-path="url(#clip-1892066601)" d="M 14.5334,0.9689 L 14.5334,30.0356 L 15.5023,30.0356 L 15.5023,0.9689 L 14.5334,0.9689 Z" stroke-width="1px" stroke="#0F72B9" fill="#0F72B9"/>
        <path clip-path="url(#clip-1892066601)" d="M 15.5023,0.9689 L 15.5023,30.0356 L 16.4712,30.0356 L 16.4712,0.9689 L 15.5023,0.9689 Z" stroke-width="1px" stroke="#0E74BA" fill="#0E74BA"/>
        <path clip-path="url(#clip-1892066601)" d="M 16.4712,0.9689 L 16.4712,30.0356 L 17.4401,30.0356 L 17.4401,0.9689 L 16.4712,0.9689 Z" stroke-width="1px" stroke="#0E75BA" fill="#0E75BA"/>
        <path clip-path="url(#clip-1892066601)" d="M 17.4401,0.9689 L 17.4401,30.0356 L 18.4089,30.0356 L 18.4089,0.9689 L 17.4401,0.9689 Z" stroke-width="1px" stroke="#0E77BB" fill="#0E77BB"/>
        <path clip-path="url(#clip-1892066601)" d="M 18.4089,0.9689 L 18.4089,30.0356 L 19.3778,30.0356 L 19.3778,0.9689 L 18.4089,0.9689 Z" stroke-width="1px" stroke="#0D78BC" fill="#0D78BC"/>
        <path clip-path="url(#clip-1892066601)" d="M 19.3778,0.9689 L 19.3778,30.0356 L 20.3467,30.0356 L 20.3467,0.9689 L 19.3778,0.9689 Z" stroke-width="1px" stroke="#0D79BC" fill="#0D79BC"/>
        <path clip-path="url(#clip-1892066601)" d="M 20.3467,0.9689 L 20.3467,30.0356 L 21.3156,30.0356 L 21.3156,0.9689 L 20.3467,0.9689 Z" stroke-width="1px" stroke="#0C7ABD" fill="#0C7ABD"/>
        <path clip-path="url(#clip-1892066601)" d="M 21.3156,0.9689 L 21.3156,30.0356 L 22.2845,30.0356 L 22.2845,0.9689 L 21.3156,0.9689 Z" stroke-width="1px" stroke="#0C7CBE" fill="#0C7CBE"/>
        <path clip-path="url(#clip-1892066601)" d="M 22.2845,0.9689 L 22.2845,30.0356 L 23.2534,30.0356 L 23.2534,0.9689 L 22.2845,0.9689 Z" stroke-width="1px" stroke="#0B7DBF" fill="#0B7DBF"/>
        <path clip-path="url(#clip-1892066601)" d="M 23.2534,0.9689 L 23.2534,30.0356 L 24.2223,30.0356 L 24.2223,0.9689 L 23.2534,0.9689 Z" stroke-width="1px" stroke="#0B7FC0" fill="#0B7FC0"/>
        <path clip-path="url(#clip-1892066601)" d="M 24.2223,0.9689 L 24.2223,30.0356 L 25.1912,30.0356 L 25.1912,0.9689 L 24.2223,0.9689 Z" stroke-width="1px" stroke="#0B80C0" fill="#0B80C0"/>
        <path clip-path="url(#clip-1892066601)" d="M 25.1912,0.9689 L 25.1912,30.0356 L 26.1601,30.0356 L 26.1601,0.9689 L 25.1912,0.9689 Z" stroke-width="1px" stroke="#0A82C1" fill="#0A82C1"/>
        <path clip-path="url(#clip-1892066601)" d="M 26.1601,0.9689 L 26.1601,30.0356 L 27.1290,30.0356 L 27.1290,0.9689 L 26.1601,0.9689 Z" stroke-width="1px" stroke="#0A83C2" fill="#0A83C2"/>
        <path clip-path="url(#clip-1892066601)" d="M 27.1290,0.9689 L 27.1290,30.0356 L 28.0979,30.0356 L 28.0979,0.9689 L 27.1290,0.9689 Z" stroke-width="1px" stroke="#0A84C2" fill="#0A84C2"/>
        <path clip-path="url(#clip-1892066601)" d="M 28.0979,0.9689 L 28.0979,30.0356 L 29.0668,30.0356 L 29.0668,0.9689 L 28.0979,0.9689 Z" stroke-width="1px" stroke="#0A86C3" fill="#0A86C3"/>
        <path clip-path="url(#clip-1892066601)" d="M 29.0668,0.9689 L 29.0668,30.0356 L 30.0356,30.0356 L 30.0356,0.9689 L 29.0668,0.9689 Z" stroke-width="1px" stroke="#0987C4" fill="#0987C4"/>
        <path clip-path="url(#clip-1892066601)" d="M 30.0356,0.9689 L 30.0356,30.0356 L 31.0045,30.0356 L 31.0045,0.9689 L 30.0356,0.9689 Z" stroke-width="1px" stroke="#0989C5" fill="#0989C5"/>
        <path clip-path="url(#clip-1892066601)" d="M 31.0045,0.9689 L 31.0045,30.0356 L 31.9734,30.0356 L 31.9734,0.9689 L 31.0045,0.9689 Z" stroke-width="1px" stroke="#098AC6" fill="#098AC6"/>
        <path clip-path="url(#clip-1892066601)" d="M 31.9734,0.9689 L 31.9734,30.0356 L 32.9423,30.0356 L 32.9423,0.9689 L 31.9734,0.9689 Z" stroke-width="1px" stroke="#088CC6" fill="#088CC6"/>
        <path clip-path="url(#clip-1892066601)" d="M 32.9423,0.9689 L 32.9423,30.0356 L 33.9112,30.0356 L 33.9112,0.9689 L 32.9423,0.9689 Z" stroke-width="1px" stroke="#088DC7" fill="#088DC7"/>
        <path clip-path="url(#clip-1892066601)" d="M 33.9112,0.9689 L 33.9112,30.0356 L 34.8801,30.0356 L 34.8801,0.9689 L 33.9112,0.9689 Z" stroke-width="1px" stroke="#088FC7" fill="#088FC7"/>
        <path clip-path="url(#clip-1892066601)" d="M 34.8801,0.9689 L 34.8801,30.0356 L 35.8490,30.0356 L 35.8490,0.9689 L 34.8801,0.9689 Z" stroke-width="1px" stroke="#0890C8" fill="#0890C8"/>
        <path clip-path="url(#clip-1892066601)" d="M 35.8490,0.9689 L 35.8490,30.0356 L 36.8179,30.0356 L 36.8179,0.9689 L 35.8490,0.9689 Z" stroke-width="1px" stroke="#0792C9" fill="#0792C9"/>
        <path clip-path="url(#clip-1892066601)" d="M 36.8179,0.9689 L 36.8179,30.0356 L 37.7868,30.0356 L 37.7868,0.9689 L 36.8179,0.9689 Z" stroke-width="1px" stroke="#0793C9" fill="#0793C9"/>
        <path clip-path="url(#clip-1892066601)" d="M 37.7868,0.9689 L 37.7868,30.0356 L 38.7557,30.0356 L 38.7557,0.9689 L 37.7868,0.9689 Z" stroke-width="1px" stroke="#0795CA" fill="#0795CA"/>
        <path clip-path="url(#clip-1892066601)" d="M 38.7557,0.9689 L 38.7557,30.0356 L 39.7246,30.0356 L 39.7246,0.9689 L 38.7557,0.9689 Z" stroke-width="1px" stroke="#0696CB" fill="#0696CB"/>
        <path clip-path="url(#clip-1892066601)" d="M 39.7246,0.9689 L 39.7246,30.0356 L 40.6935,30.0356 L 40.6935,0.9689 L 39.7246,0.9689 Z" stroke-width="1px" stroke="#0698CC" fill="#0698CC"/>
        <path clip-path="url(#clip-1892066601)" d="M 40.6935,0.9689 L 40.6935,30.0356 L 41.6623,30.0356 L 41.6623,0.9689 L 40.6935,0.9689 Z" stroke-width="1px" stroke="#0699CD" fill="#0699CD"/>
        <path clip-path="url(#clip-1892066601)" d="M 41.6623,0.9689 L 41.6623,30.0356 L 42.6312,30.0356 L 42.6312,0.9689 L 41.6623,0.9689 Z" stroke-width="1px" stroke="#059BCD" fill="#059BCD"/>
        <path clip-path="url(#clip-1892066601)" d="M 42.6312,0.9689 L 42.6312,30.0356 L 43.6001,30.0356 L 43.6001,0.9689 L 42.6312,0.9689 Z" stroke-width="1px" stroke="#059CCE" fill="#059CCE"/>
        <path clip-path="url(#clip-1892066601)" d="M 43.6001,0.9689 L 43.6001,30.0356 L 44.5690,30.0356 L 44.5690,0.9689 L 43.6001,0.9689 Z" stroke-width="1px" stroke="#059ECE" fill="#059ECE"/>
        <path clip-path="url(#clip-1892066601)" d="M 44.5690,0.9689 L 44.5690,30.0356 L 45.5379,30.0356 L 45.5379,0.9689 L 44.5690,0.9689 Z" stroke-width="1px" stroke="#049FCF" fill="#049FCF"/>
        <path clip-path="url(#clip-1892066601)" d="M 45.5379,0.9689 L 45.5379,30.0356 L 46.5068,30.0356 L 46.5068,0.9689 L 45.5379,0.9689 Z" stroke-width="1px" stroke="#04A0D0" fill="#04A0D0"/>
        <path clip-path="url(#clip-1892066601)" d="M 46.5068,0.9689 L 46.5068,30.0356 L 47.4757,30.0356 L 47.4757,0.9689 L 46.5068,0.9689 Z" stroke-width="1px" stroke="#03A1D1" fill="#03A1D1"/>
        <path clip-path="url(#clip-1892066601)" d="M 47.4757,0.9689 L 47.4757,30.0356 L 48.4446,30.0356 L 48.4446,0.9689 L 47.4757,0.9689 Z" stroke-width="1px" stroke="#03A3D2" fill="#03A3D2"/>
        <path clip-path="url(#clip-1892066601)" d="M 48.4446,0.9689 L 48.4446,30.0356 L 49.4135,30.0356 L 49.4135,0.9689 L 48.4446,0.9689 Z" stroke-width="1px" stroke="#02A4D2" fill="#02A4D2"/>
        <path clip-path="url(#clip-1892066601)" d="M 49.4135,0.9689 L 49.4135,30.0356 L 50.3824,30.0356 L 50.3824,0.9689 L 49.4135,0.9689 Z" stroke-width="1px" stroke="#02A6D3" fill="#02A6D3"/>
        <path clip-path="url(#clip-1892066601)" d="M 50.3824,0.9689 L 50.3824,30.0356 L 51.3513,30.0356 L 51.3513,0.9689 L 50.3824,0.9689 Z" stroke-width="1px" stroke="#02A7D4" fill="#02A7D4"/>
        <path clip-path="url(#clip-1892066601)" d="M 51.3513,0.9689 L 51.3513,30.0356 L 52.3202,30.0356 L 52.3202,0.9689 L 51.3513,0.9689 Z" stroke-width="1px" stroke="#01A9D5" fill="#01A9D5"/>
        <path clip-path="url(#clip-1892066601)" d="M 52.3202,0.9689 L 52.3202,30.0356 L 53.2890,30.0356 L 53.2890,0.9689 L 52.3202,0.9689 Z" stroke-width="1px" stroke="#01AAD5" fill="#01AAD5"/>
        <path clip-path="url(#clip-1892066601)" d="M 53.2890,0.9689 L 53.2890,30.0356 L 54.2579,30.0356 L 54.2579,0.9689 L 53.2890,0.9689 Z" stroke-width="1px" stroke="#01ACD6" fill="#01ACD6"/>
        <path clip-path="url(#clip-1892066601)" d="M 54.2579,0.9689 L 54.2579,30.0356 L 55.2268,30.0356 L 55.2268,0.9689 L 54.2579,0.9689 Z" stroke-width="1px" stroke="#01ADD7" fill="#01ADD7"/>
        <path clip-path="url(#clip-1892066601)" d="M 55.2268,0.9689 L 55.2268,30.0356 L 56.1957,30.0356 L 56.1957,0.9689 L 55.2268,0.9689 Z" stroke-width="1px" stroke="#00AFD7" fill="#00AFD7"/>
        <g transform="matrix(0.0625 0.0000 0.0000 0.0625 0.0000 0.0000)">
          <path d="M 63.9469,470.8814 L 899.1316,470.8814 L 899.1316,18.4089 L 63.9469,18.4089 L 63.9469,470.8814 " stroke="#0054A6" stroke-width="9.6889" stroke-linecap="round" stroke-linejoin="round" fill="none"/>
        </g>
        <g transform="matrix(1.0000 0.0000 0.0000 1.0000 0.0000 0.0000)">
</g>
        <g transform="matrix(0.0625 0.0000 0.0000 0.0625 0.0000 0.0000)">
          <path d="M 481.5392,449.5658 C 421.4679,449.5658 337.1743,446.6591 259.6630,443.7524 C 192.8095,440.8458 159.8671,438.9080 142.4271,436.0013 C 131.7693,435.0324 105.6092,431.1569 105.6092,402.0901 L 105.6092,88.1692 C 105.6092,59.1024 130.8004,55.2268 142.4271,53.2890 C 159.8671,51.3513 192.8095,48.4446 259.6630,46.5068 C 336.2055,42.6312 421.4679,40.6935 481.5392,40.6935 C 541.6105,40.6935 626.8730,42.6312 703.4154,46.5068 C 770.2690,48.4446 803.2113,51.3513 820.6514,53.2890 C 831.3092,55.2268 857.4692,59.1024 857.4692,88.1692 L 857.4692,402.0901 C 857.4692,431.1569 831.3092,435.0324 820.6514,436.0013 C 803.2113,438.9080 770.2690,440.8458 703.4154,443.7524 C 625.9041,446.6591 541.6105,449.5658 481.5392,449.5658 Z " fill="#0054A6" stroke="none"/>
        </g>
        <g transform="matrix(1.0000 0.0000 0.0000 1.0000 0.0000 0.0000)">
          <path d="M 44.5690,4.8445 C 39.7246,4.8445 33.9112,4.8445 30.0356,4.8445 C 27.1290,4.8445 21.3156,4.8445 16.4712,4.8445 C 8.7200,4.8445 8.7200,5.8134 8.7200,5.8134 L 8.7200,25.1912 C 8.7200,26.1601 8.7200,26.1601 16.4712,26.1601 C 21.3156,27.1290 27.1290,27.1290 30.0356,27.1290 C 33.9112,27.1290 39.7246,27.1290 44.5690,26.1601 C 52.3202,26.1601 52.3202,26.1601 52.3202,25.1912 L 52.3202,5.8134 C 52.3202,5.8134 52.3202,4.8445 44.5690,4.8445 Z " fill="none" stroke="none"/>
          <defs>
            <clipPath id="clip-1376710097">
              <path d="M 44.5690,4.8445 C 39.7246,4.8445 33.9112,4.8445 30.0356,4.8445 C 27.1290,4.8445 21.3156,4.8445 16.4712,4.8445 C 8.7200,4.8445 8.7200,5.8134 8.7200,5.8134 L 8.7200,25.1912 C 8.7200,26.1601 8.7200,26.1601 16.4712,26.1601 C 21.3156,27.1290 27.1290,27.1290 30.0356,27.1290 C 33.9112,27.1290 39.7246,27.1290 44.5690,26.1601 C 52.3202,26.1601 52.3202,26.1601 52.3202,25.1912 L 52.3202,5.8134 C 52.3202,5.8134 52.3202,4.8445 44.5690,4.8445 Z"/>
            </clipPath>
          </defs>
          <path clip-path="url(#clip-1376710097)" d="M 7.7511,3.8756 L 7.7511,4.8445 L 52.3202,4.8445 L 52.3202,3.8756 L 7.7511,3.8756 Z" stroke-width="1px" stroke="#AFDCED" fill="#AFDCED"/>
          <path clip-path="url(#clip-1376710097)" d="M 7.7511,4.8445 L 7.7511,5.8134 L 52.3202,5.8134 L 52.3202,4.8445 L 7.7511,4.8445 Z" stroke-width="1px" stroke="#B2DEEE" fill="#B2DEEE"/>
          <path clip-path="url(#clip-1376710097)" d="M 7.7511,5.8134 L 7.7511,6.7822 L 52.3202,6.7822 L 52.3202,5.8134 L 7.7511,5.8134 Z" stroke-width="1px" stroke="#BAE1F0" fill="#BAE1F0"/>
          <path clip-path="url(#clip-1376710097)" d="M 7.7511,6.7822 L 7.7511,7.7511 L 52.3202,7.7511 L 52.3202,6.7822 L 7.7511,6.7822 Z" stroke-width="1px" stroke="#C1E4F2" fill="#C1E4F2"/>
          <path clip-path="url(#clip-1376710097)" d="M 7.7511,7.7511 L 7.7511,8.7200 L 52.3202,8.7200 L 52.3202,7.7511 L 7.7511,7.7511 Z" stroke-width="1px" stroke="#C8E7F3" fill="#C8E7F3"/>
          <path clip-path="url(#clip-1376710097)" d="M 7.7511,8.7200 L 7.7511,9.6889 L 52.3202,9.6889 L 52.3202,8.7200 L 7.7511,8.7200 Z" stroke-width="1px" stroke="#CFEAF5" fill="#CFEAF5"/>
          <path clip-path="url(#clip-1376710097)" d="M 7.7511,9.6889 L 7.7511,10.6578 L 52.3202,10.6578 L 52.3202,9.6889 L 7.7511,9.6889 Z" stroke-width="1px" stroke="#D6EDF6" fill="#D6EDF6"/>
          <path clip-path="url(#clip-1376710097)" d="M 7.7511,10.6578 L 7.7511,11.6267 L 52.3202,11.6267 L 52.3202,10.6578 L 7.7511,10.6578 Z" stroke-width="1px" stroke="#DDF0F7" fill="#DDF0F7"/>
          <path clip-path="url(#clip-1376710097)" d="M 7.7511,11.6267 L 7.7511,12.5956 L 52.3202,12.5956 L 52.3202,11.6267 L 7.7511,11.6267 Z" stroke-width="1px" stroke="#E4F4F9" fill="#E4F4F9"/>
          <path clip-path="url(#clip-1376710097)" d="M 7.7511,12.5956 L 7.7511,13.5645 L 52.3202,13.5645 L 52.3202,12.5956 L 7.7511,12.5956 Z" stroke-width="1px" stroke="#ECF6FB" fill="#ECF6FB"/>
          <path clip-path="url(#clip-1376710097)" d="M 7.7511,13.5645 L 7.7511,14.5334 L 52.3202,14.5334 L 52.3202,13.5645 L 7.7511,13.5645 Z" stroke-width="1px" stroke="#F3FAFD" fill="#F3FAFD"/>
          <path clip-path="url(#clip-1376710097)" d="M 7.7511,14.5334 L 7.7511,15.5023 L 52.3202,15.5023 L 52.3202,14.5334 L 7.7511,14.5334 Z" stroke-width="1px" stroke="#FAFDFE" fill="#FAFDFE"/>
          <path clip-path="url(#clip-1376710097)" d="M 7.7511,15.5023 L 7.7511,16.4712 L 52.3202,16.4712 L 52.3202,15.5023 L 7.7511,15.5023 Z" stroke-width="1px" stroke="#FDFEFF" fill="#FDFEFF"/>
          <path clip-path="url(#clip-1376710097)" d="M 7.7511,16.4712 L 7.7511,17.4401 L 52.3202,17.4401 L 52.3202,16.4712 L 7.7511,16.4712 Z" stroke-width="1px" stroke="#F6FCFD" fill="#F6FCFD"/>
          <path clip-path="url(#clip-1376710097)" d="M 7.7511,17.4401 L 7.7511,18.4089 L 52.3202,18.4089 L 52.3202,17.4401 L 7.7511,17.4401 Z" stroke-width="1px" stroke="#EFF8FC" fill="#EFF8FC"/>
          <path clip-path="url(#clip-1376710097)" d="M 7.7511,18.4089 L 7.7511,19.3778 L 52.3202,19.3778 L 52.3202,18.4089 L 7.7511,18.4089 Z" stroke-width="1px" stroke="#E8F5FA" fill="#E8F5FA"/>
          <path clip-path="url(#clip-1376710097)" d="M 7.7511,19.3778 L 7.7511,20.3467 L 52.3202,20.3467 L 52.3202,19.3778 L 7.7511,19.3778 Z" stroke-width="1px" stroke="#E1F2F8" fill="#E1F2F8"/>
          <path clip-path="url(#clip-1376710097)" d="M 7.7511,20.3467 L 7.7511,21.3156 L 52.3202,21.3156 L 52.3202,20.3467 L 7.7511,20.3467 Z" stroke-width="1px" stroke="#DAEFF7" fill="#DAEFF7"/>
          <path clip-path="url(#clip-1376710097)" d="M 7.7511,21.3156 L 7.7511,22.2845 L 52.3202,22.2845 L 52.3202,21.3156 L 7.7511,21.3156 Z" stroke-width="1px" stroke="#D3ECF5" fill="#D3ECF5"/>
          <path clip-path="url(#clip-1376710097)" d="M 7.7511,22.2845 L 7.7511,23.2534 L 52.3202,23.2534 L 52.3202,22.2845 L 7.7511,22.2845 Z" stroke-width="1px" stroke="#CCE9F4" fill="#CCE9F4"/>
          <path clip-path="url(#clip-1376710097)" d="M 7.7511,23.2534 L 7.7511,24.2223 L 52.3202,24.2223 L 52.3202,23.2534 L 7.7511,23.2534 Z" stroke-width="1px" stroke="#C5E5F3" fill="#C5E5F3"/>
          <path clip-path="url(#clip-1376710097)" d="M 7.7511,24.2223 L 7.7511,25.1912 L 52.3202,25.1912 L 52.3202,24.2223 L 7.7511,24.2223 Z" stroke-width="1px" stroke="#BEE2F1" fill="#BEE2F1"/>
          <path clip-path="url(#clip-1376710097)" d="M 7.7511,25.1912 L 7.7511,26.1601 L 52.3202,26.1601 L 52.3202,25.1912 L 7.7511,25.1912 Z" stroke-width="1px" stroke="#B6E0EF" fill="#B6E0EF"/>
          <path clip-path="url(#clip-1376710097)" d="M 7.7511,26.1601 L 7.7511,27.1290 L 52.3202,27.1290 L 52.3202,26.1601 L 7.7511,26.1601 Z" stroke-width="1px" stroke="#AFDCED" fill="#AFDCED"/>
        </g>
        <g transform="matrix(0.0625 0.0000 0.0000 0.0625 0.0000 0.0000)">
          <path d="M 702.4466,71.6980 C 624.9352,67.8224 540.6416,65.8846 481.5392,65.8846 C 422.4368,65.8846 338.1432,67.8224 260.6319,71.6980 C 128.8626,77.5113 128.8626,79.4491 128.8626,88.1692 L 128.8626,402.0901 C 128.8626,409.8412 128.8626,412.7479 260.6319,418.5613 C 338.1432,421.4679 422.4368,423.4057 481.5392,423.4057 C 540.6416,423.4057 624.9352,421.4679 702.4466,418.5613 C 834.2158,412.7479 834.2158,409.8412 834.2158,402.0901 L 834.2158,88.1692 C 834.2158,79.4491 834.2158,77.5113 702.4466,71.6980 " stroke="#ADDBED" stroke-width="0.9689" stroke-linecap="butt" stroke-linejoin="round" fill="none"/>
        </g>
        <g transform="matrix(1.0000 0.0000 0.0000 1.0000 0.0000 0.0000)">
</g>
        <g transform="matrix(0.0625 0.0000 0.0000 0.0625 0.0000 0.0000)">
          <path d="M 406.9346,120.1426 L 406.9346,149.2093 L 552.2683,149.2093 L 552.2683,120.1426 L 406.9346,120.1426 Z" stroke-width="1px" stroke="#8DC63F" fill="#8DC63F"/>
        </g>
        <g transform="matrix(1.0000 0.0000 0.0000 1.0000 0.0000 0.0000)">
</g>
        <g transform="matrix(0.0625 0.0000 0.0000 0.0625 0.0000 0.0000)">
          <path d="M 406.9346,148.2404 L 406.9346,186.0272 C 406.9346,193.7784 411.7790,199.5917 418.5613,199.5917 L 541.6105,199.5917 C 547.4239,199.5917 552.2683,193.7784 552.2683,186.0272 L 552.2683,148.2404 L 406.9346,148.2404 Z " fill="#0054A6" stroke="none"/>
        </g>
        <g transform="matrix(1.0000 0.0000 0.0000 1.0000 0.0000 0.0000)">
</g>
        <g transform="matrix(0.0625 0.0000 0.0000 0.0625 0.0000 0.0000)">
          <path d="M 590.0551,92.0447 L 600.7129,93.0136 C 610.4018,93.9825 616.2152,207.3428 616.2152,242.2230 C 616.2152,242.2230 616.2152,243.1918 616.2152,244.1607 C 616.2152,245.1296 616.2152,245.1296 616.2152,246.0985 C 616.2152,280.0097 610.4018,394.3390 600.7129,395.3079 L 590.0551,396.2767 C 586.1795,396.2767 582.3040,392.4012 582.3040,387.5567 L 582.3040,100.7647 C 582.3040,95.9203 586.1795,92.0447 590.0551,92.0447 Z M 651.0953,97.8581 L 661.7531,98.8270 C 670.4731,98.8270 677.2554,209.2806 677.2554,242.2230 C 677.2554,242.2230 677.2554,243.1918 677.2554,244.1607 C 677.2554,244.1607 677.2554,245.1296 677.2554,246.0985 C 677.2554,278.0719 670.4731,388.5256 661.7531,388.5256 L 651.0953,389.4945 C 647.2197,389.4945 643.3442,386.5878 643.3442,381.7434 L 643.3442,105.6092 C 643.3442,100.7647 647.2197,97.8581 651.0953,97.8581 Z M 712.1355,103.6714 L 722.7933,104.6403 C 731.5133,104.6403 737.3267,211.2184 737.3267,241.2541 C 737.3267,242.2230 737.3267,243.1918 737.3267,243.1918 C 737.3267,244.1607 737.3267,245.1296 737.3267,245.1296 C 737.3267,276.1342 731.5133,381.7434 722.7933,382.7123 L 712.1355,383.6812 C 708.2599,383.6812 704.3843,380.7745 704.3843,375.9300 L 704.3843,111.4226 C 704.3843,106.5781 708.2599,103.6714 712.1355,103.6714 Z M 773.1757,109.4848 L 782.8646,109.4848 C 791.5846,110.4537 798.3668,212.1873 798.3668,241.2541 C 798.3668,242.2230 798.3668,242.2230 798.3668,243.1918 C 798.3668,244.1607 798.3668,244.1607 798.3668,245.1296 C 798.3668,274.1964 791.5846,375.9300 782.8646,376.8989 L 773.1757,377.8678 C 769.3001,377.8678 765.4245,374.9611 765.4245,370.1167 L 765.4245,116.2670 C 765.4245,112.3914 769.3001,108.5159 773.1757,109.4848 Z M 366.2411,92.0447 L 355.5833,93.0136 C 346.8633,93.9825 340.0810,207.3428 340.0810,242.2230 C 340.0810,242.2230 340.0810,243.1918 340.0810,244.1607 C 340.0810,245.1296 340.0810,245.1296 340.0810,246.0985 C 340.0810,280.0097 346.8633,394.3390 355.5833,395.3079 L 366.2411,396.2767 C 371.0856,396.2767 373.9922,392.4012 373.9922,387.5567 L 373.9922,100.7647 C 373.9922,95.9203 371.0856,92.0447 366.2411,92.0447 Z M 184.0894,109.4848 L 173.4316,109.4848 C 164.7116,110.4537 158.8983,212.1873 158.8983,241.2541 C 158.8983,242.2230 158.8983,242.2230 158.8983,243.1918 C 158.8983,244.1607 158.8983,244.1607 158.8983,245.1296 C 158.8983,274.1964 164.7116,375.9300 173.4316,376.8989 L 184.0894,377.8678 C 187.9650,377.8678 190.8717,374.9611 190.8717,370.1167 L 190.8717,116.2670 C 190.8717,112.3914 187.9650,108.5159 184.0894,109.4848 Z M 245.1296,103.6714 L 234.4718,104.6403 C 225.7518,104.6403 218.9695,211.2184 218.9695,241.2541 C 218.9695,242.2230 218.9695,243.1918 218.9695,243.1918 C 218.9695,244.1607 218.9695,245.1296 218.9695,245.1296 C 218.9695,276.1342 225.7518,381.7434 234.4718,382.7123 L 245.1296,383.6812 C 249.0052,383.6812 251.9119,380.7745 251.9119,375.9300 L 251.9119,111.4226 C 251.9119,106.5781 249.0052,103.6714 245.1296,103.6714 Z M 305.2009,97.8581 L 294.5431,98.8270 C 285.8231,98.8270 280.0097,209.2806 280.0097,242.2230 C 280.0097,242.2230 280.0097,243.1918 280.0097,244.1607 C 280.0097,244.1607 280.0097,245.1296 280.0097,246.0985 C 280.0097,278.0719 285.8231,388.5256 294.5431,388.5256 L 305.2009,389.4945 C 310.0454,389.4945 312.9521,386.5878 312.9521,381.7434 L 312.9521,105.6092 C 312.9521,100.7647 310.0454,97.8581 305.2009,97.8581 Z " fill="#0054A6" stroke="none"/>
        </g>
        <g transform="matrix(1.0000 0.0000 0.0000 1.0000 0.0000 0.0000)">
          <defs>
            <clipPath id="clip-927612902">
              <path d="M 4.8445,30.0356 L 56.1957,30.0356 L 56.1957,59.1024 L 4.8445,59.1024 L 4.8445,30.0356 Z Z"/>
            </clipPath>
          </defs>
          <path clip-path="url(#clip-927612902)" d="M 3.8756,30.0356 L 3.8756,59.1024 L 4.8445,59.1024 L 4.8445,30.0356 L 3.8756,30.0356 Z" stroke-width="1px" stroke="#00B0D8" fill="#00B0D8"/>
          <path clip-path="url(#clip-927612902)" d="M 4.8445,30.0356 L 4.8445,59.1024 L 5.8134,59.1024 L 5.8134,30.0356 L 4.8445,30.0356 Z" stroke-width="1px" stroke="#1263B2" fill="#1263B2"/>
          <path clip-path="url(#clip-927612902)" d="M 5.8134,30.0356 L 5.8134,59.1024 L 6.7822,59.1024 L 6.7822,30.0356 L 5.8134,30.0356 Z" stroke-width="1px" stroke="#1165B2" fill="#1165B2"/>
          <path clip-path="url(#clip-927612902)" d="M 6.7822,30.0356 L 6.7822,59.1024 L 7.7511,59.1024 L 7.7511,30.0356 L 6.7822,30.0356 Z" stroke-width="1px" stroke="#1166B3" fill="#1166B3"/>
          <path clip-path="url(#clip-927612902)" d="M 7.7511,30.0356 L 7.7511,59.1024 L 8.7200,59.1024 L 8.7200,30.0356 L 7.7511,30.0356 Z" stroke-width="1px" stroke="#1168B3" fill="#1168B3"/>
          <path clip-path="url(#clip-927612902)" d="M 8.7200,30.0356 L 8.7200,59.1024 L 9.6889,59.1024 L 9.6889,30.0356 L 8.7200,30.0356 Z" stroke-width="1px" stroke="#1169B4" fill="#1169B4"/>
          <path clip-path="url(#clip-927612902)" d="M 9.6889,30.0356 L 9.6889,59.1024 L 10.6578,59.1024 L 10.6578,30.0356 L 9.6889,30.0356 Z" stroke-width="1px" stroke="#106BB5" fill="#106BB5"/>
          <path clip-path="url(#clip-927612902)" d="M 10.6578,30.0356 L 10.6578,59.1024 L 11.6267,59.1024 L 11.6267,30.0356 L 10.6578,30.0356 Z" stroke-width="1px" stroke="#106CB6" fill="#106CB6"/>
          <path clip-path="url(#clip-927612902)" d="M 11.6267,30.0356 L 11.6267,59.1024 L 12.5956,59.1024 L 12.5956,30.0356 L 11.6267,30.0356 Z" stroke-width="1px" stroke="#106EB7" fill="#106EB7"/>
          <path clip-path="url(#clip-927612902)" d="M 12.5956,30.0356 L 12.5956,59.1024 L 13.5645,59.1024 L 13.5645,30.0356 L 12.5956,30.0356 Z" stroke-width="1px" stroke="#0F6FB7" fill="#0F6FB7"/>
          <path clip-path="url(#clip-927612902)" d="M 13.5645,30.0356 L 13.5645,59.1024 L 14.5334,59.1024 L 14.5334,30.0356 L 13.5645,30.0356 Z" stroke-width="1px" stroke="#0F71B8" fill="#0F71B8"/>
          <path clip-path="url(#clip-927612902)" d="M 14.5334,30.0356 L 14.5334,59.1024 L 15.5023,59.1024 L 15.5023,30.0356 L 14.5334,30.0356 Z" stroke-width="1px" stroke="#0F72B9" fill="#0F72B9"/>
          <path clip-path="url(#clip-927612902)" d="M 15.5023,30.0356 L 15.5023,59.1024 L 16.4712,59.1024 L 16.4712,30.0356 L 15.5023,30.0356 Z" stroke-width="1px" stroke="#0E74BA" fill="#0E74BA"/>
          <path clip-path="url(#clip-927612902)" d="M 16.4712,30.0356 L 16.4712,59.1024 L 17.4401,59.1024 L 17.4401,30.0356 L 16.4712,30.0356 Z" stroke-width="1px" stroke="#0E75BA" fill="#0E75BA"/>
          <path clip-path="url(#clip-927612902)" d="M 17.4401,30.0356 L 17.4401,59.1024 L 18.4089,59.1024 L 18.4089,30.0356 L 17.4401,30.0356 Z" stroke-width="1px" stroke="#0E77BB" fill="#0E77BB"/>
          <path clip-path="url(#clip-927612902)" d="M 18.4089,30.0356 L 18.4089,59.1024 L 19.3778,59.1024 L 19.3778,30.0356 L 18.4089,30.0356 Z" stroke-width="1px" stroke="#0D78BC" fill="#0D78BC"/>
          <path clip-path="url(#clip-927612902)" d="M 19.3778,30.0356 L 19.3778,59.1024 L 20.3467,59.1024 L 20.3467,30.0356 L 19.3778,30.0356 Z" stroke-width="1px" stroke="#0D79BC" fill="#0D79BC"/>
          <path clip-path="url(#clip-927612902)" d="M 20.3467,30.0356 L 20.3467,59.1024 L 21.3156,59.1024 L 21.3156,30.0356 L 20.3467,30.0356 Z" stroke-width="1px" stroke="#0C7ABD" fill="#0C7ABD"/>
          <path clip-path="url(#clip-927612902)" d="M 21.3156,30.0356 L 21.3156,59.1024 L 22.2845,59.1024 L 22.2845,30.0356 L 21.3156,30.0356 Z" stroke-width="1px" stroke="#0C7CBE" fill="#0C7CBE"/>
          <path clip-path="url(#clip-927612902)" d="M 22.2845,30.0356 L 22.2845,59.1024 L 23.2534,59.1024 L 23.2534,30.0356 L 22.2845,30.0356 Z" stroke-width="1px" stroke="#0B7DBF" fill="#0B7DBF"/>
          <path clip-path="url(#clip-927612902)" d="M 23.2534,30.0356 L 23.2534,59.1024 L 24.2223,59.1024 L 24.2223,30.0356 L 23.2534,30.0356 Z" stroke-width="1px" stroke="#0B7FC0" fill="#0B7FC0"/>
          <path clip-path="url(#clip-927612902)" d="M 24.2223,30.0356 L 24.2223,59.1024 L 25.1912,59.1024 L 25.1912,30.0356 L 24.2223,30.0356 Z" stroke-width="1px" stroke="#0B80C0" fill="#0B80C0"/>
          <path clip-path="url(#clip-927612902)" d="M 25.1912,30.0356 L 25.1912,59.1024 L 26.1601,59.1024 L 26.1601,30.0356 L 25.1912,30.0356 Z" stroke-width="1px" stroke="#0A82C1" fill="#0A82C1"/>
          <path clip-path="url(#clip-927612902)" d="M 26.1601,30.0356 L 26.1601,59.1024 L 27.1290,59.1024 L 27.1290,30.0356 L 26.1601,30.0356 Z" stroke-width="1px" stroke="#0A83C2" fill="#0A83C2"/>
          <path clip-path="url(#clip-927612902)" d="M 27.1290,30.0356 L 27.1290,59.1024 L 28.0979,59.1024 L 28.0979,30.0356 L 27.1290,30.0356 Z" stroke-width="1px" stroke="#0A84C2" fill="#0A84C2"/>
          <path clip-path="url(#clip-927612902)" d="M 28.0979,30.0356 L 28.0979,59.1024 L 29.0668,59.1024 L 29.0668,30.0356 L 28.0979,30.0356 Z" stroke-width="1px" stroke="#0A86C3" fill="#0A86C3"/>
          <path clip-path="url(#clip-927612902)" d="M 29.0668,30.0356 L 29.0668,59.1024 L 30.0356,59.1024 L 30.0356,30.0356 L 29.0668,30.0356 Z" stroke-width="1px" stroke="#0987C4" fill="#0987C4"/>
          <path clip-path="url(#clip-927612902)" d="M 30.0356,30.0356 L 30.0356,59.1024 L 31.0045,59.1024 L 31.0045,30.0356 L 30.0356,30.0356 Z" stroke-width="1px" stroke="#0989C5" fill="#0989C5"/>
          <path clip-path="url(#clip-927612902)" d="M 31.0045,30.0356 L 31.0045,59.1024 L 31.9734,59.1024 L 31.9734,30.0356 L 31.0045,30.0356 Z" stroke-width="1px" stroke="#098AC6" fill="#098AC6"/>
          <path clip-path="url(#clip-927612902)" d="M 31.9734,30.0356 L 31.9734,59.1024 L 32.9423,59.1024 L 32.9423,30.0356 L 31.9734,30.0356 Z" stroke-width="1px" stroke="#088CC6" fill="#088CC6"/>
          <path clip-path="url(#clip-927612902)" d="M 32.9423,30.0356 L 32.9423,59.1024 L 33.9112,59.1024 L 33.9112,30.0356 L 32.9423,30.0356 Z" stroke-width="1px" stroke="#088DC7" fill="#088DC7"/>
          <path clip-path="url(#clip-927612902)" d="M 33.9112,30.0356 L 33.9112,59.1024 L 34.8801,59.1024 L 34.8801,30.0356 L 33.9112,30.0356 Z" stroke-width="1px" stroke="#088FC7" fill="#088FC7"/>
          <path clip-path="url(#clip-927612902)" d="M 34.8801,30.0356 L 34.8801,59.1024 L 35.8490,59.1024 L 35.8490,30.0356 L 34.8801,30.0356 Z" stroke-width="1px" stroke="#0890C8" fill="#0890C8"/>
          <path clip-path="url(#clip-927612902)" d="M 35.8490,30.0356 L 35.8490,59.1024 L 36.8179,59.1024 L 36.8179,30.0356 L 35.8490,30.0356 Z" stroke-width="1px" stroke="#0792C9" fill="#0792C9"/>
          <path clip-path="url(#clip-927612902)" d="M 36.8179,30.0356 L 36.8179,59.1024 L 37.7868,59.1024 L 37.7868,30.0356 L 36.8179,30.0356 Z" stroke-width="1px" stroke="#0793C9" fill="#0793C9"/>
          <path clip-path="url(#clip-927612902)" d="M 37.7868,30.0356 L 37.7868,59.1024 L 38.7557,59.1024 L 38.7557,30.0356 L 37.7868,30.0356 Z" stroke-width="1px" stroke="#0795CA" fill="#0795CA"/>
          <path clip-path="url(#clip-927612902)" d="M 38.7557,30.0356 L 38.7557,59.1024 L 39.7246,59.1024 L 39.7246,30.0356 L 38.7557,30.0356 Z" stroke-width="1px" stroke="#0696CB" fill="#0696CB"/>
          <path clip-path="url(#clip-927612902)" d="M 39.7246,30.0356 L 39.7246,59.1024 L 40.6935,59.1024 L 40.6935,30.0356 L 39.7246,30.0356 Z" stroke-width="1px" stroke="#0698CC" fill="#0698CC"/>
          <path clip-path="url(#clip-927612902)" d="M 40.6935,30.0356 L 40.6935,59.1024 L 41.6623,59.1024 L 41.6623,30.0356 L 40.6935,30.0356 Z" stroke-width="1px" stroke="#0699CD" fill="#0699CD"/>
          <path clip-path="url(#clip-927612902)" d="M 41.6623,30.0356 L 41.6623,59.1024 L 42.6312,59.1024 L 42.6312,30.0356 L 41.6623,30.0356 Z" stroke-width="1px" stroke="#059BCD" fill="#059BCD"/>
          <path clip-path="url(#clip-927612902)" d="M 42.6312,30.0356 L 42.6312,59.1024 L 43.6001,59.1024 L 43.6001,30.0356 L 42.6312,30.0356 Z" stroke-width="1px" stroke="#059CCE" fill="#059CCE"/>
          <path clip-path="url(#clip-927612902)" d="M 43.6001,30.0356 L 43.6001,59.1024 L 44.5690,59.1024 L 44.5690,30.0356 L 43.6001,30.0356 Z" stroke-width="1px" stroke="#059ECE" fill="#059ECE"/>
          <path clip-path="url(#clip-927612902)" d="M 44.5690,30.0356 L 44.5690,59.1024 L 45.5379,59.1024 L 45.5379,30.0356 L 44.5690,30.0356 Z" stroke-width="1px" stroke="#049FCF" fill="#049FCF"/>
          <path clip-path="url(#clip-927612902)" d="M 45.5379,30.0356 L 45.5379,59.1024 L 46.5068,59.1024 L 46.5068,30.0356 L 45.5379,30.0356 Z" stroke-width="1px" stroke="#04A0D0" fill="#04A0D0"/>
          <path clip-path="url(#clip-927612902)" d="M 46.5068,30.0356 L 46.5068,59.1024 L 47.4757,59.1024 L 47.4757,30.0356 L 46.5068,30.0356 Z" stroke-width="1px" stroke="#03A1D1" fill="#03A1D1"/>
          <path clip-path="url(#clip-927612902)" d="M 47.4757,30.0356 L 47.4757,59.1024 L 48.4446,59.1024 L 48.4446,30.0356 L 47.4757,30.0356 Z" stroke-width="1px" stroke="#03A3D2" fill="#03A3D2"/>
          <path clip-path="url(#clip-927612902)" d="M 48.4446,30.0356 L 48.4446,59.1024 L 49.4135,59.1024 L 49.4135,30.0356 L 48.4446,30.0356 Z" stroke-width="1px" stroke="#02A4D2" fill="#02A4D2"/>
          <path clip-path="url(#clip-927612902)" d="M 49.4135,30.0356 L 49.4135,59.1024 L 50.3824,59.1024 L 50.3824,30.0356 L 49.4135,30.0356 Z" stroke-width="1px" stroke="#02A6D3" fill="#02A6D3"/>
          <path clip-path="url(#clip-927612902)" d="M 50.3824,30.0356 L 50.3824,59.1024 L 51.3513,59.1024 L 51.3513,30.0356 L 50.3824,30.0356 Z" stroke-width="1px" stroke="#02A7D4" fill="#02A7D4"/>
          <path clip-path="url(#clip-927612902)" d="M 51.3513,30.0356 L 51.3513,59.1024 L 52.3202,59.1024 L 52.3202,30.0356 L 51.3513,30.0356 Z" stroke-width="1px" stroke="#01A9D5" fill="#01A9D5"/>
          <path clip-path="url(#clip-927612902)" d="M 52.3202,30.0356 L 52.3202,59.1024 L 53.2890,59.1024 L 53.2890,30.0356 L 52.3202,30.0356 Z" stroke-width="1px" stroke="#01AAD5" fill="#01AAD5"/>
          <path clip-path="url(#clip-927612902)" d="M 53.2890,30.0356 L 53.2890,59.1024 L 54.2579,59.1024 L 54.2579,30.0356 L 53.2890,30.0356 Z" stroke-width="1px" stroke="#01ACD6" fill="#01ACD6"/>
          <path clip-path="url(#clip-927612902)" d="M 54.2579,30.0356 L 54.2579,59.1024 L 55.2268,59.1024 L 55.2268,30.0356 L 54.2579,30.0356 Z" stroke-width="1px" stroke="#01ADD7" fill="#01ADD7"/>
          <path clip-path="url(#clip-927612902)" d="M 55.2268,30.0356 L 55.2268,59.1024 L 56.1957,59.1024 L 56.1957,30.0356 L 55.2268,30.0356 Z" stroke-width="1px" stroke="#00AFD7" fill="#00AFD7"/>
        </g>
        <g transform="matrix(0.0625 0.0000 0.0000 0.0625 0.0000 0.0000)">
          <path d="M 63.9469,933.0428 L 899.1316,933.0428 L 899.1316,480.5703 L 63.9469,480.5703 L 63.9469,933.0428 " stroke="#0054A6" stroke-width="9.6889" stroke-linecap="round" stroke-linejoin="round" fill="none"/>
        </g>
        <g transform="matrix(1.0000 0.0000 0.0000 1.0000 0.0000 0.0000)">
</g>
        <g transform="matrix(0.0625 0.0000 0.0000 0.0625 0.0000 0.0000)">
          <path d="M 481.5392,910.7583 C 421.4679,910.7583 337.1743,908.8205 259.6630,905.9138 C 192.8095,903.0072 159.8671,900.1005 142.4271,898.1627 C 131.7693,896.2249 105.6092,892.3494 105.6092,863.2826 L 105.6092,549.3617 C 105.6092,520.2949 130.8004,517.3882 142.4271,515.4504 C 159.8671,512.5438 192.8095,510.6060 259.6630,507.6993 C 336.2055,504.7926 421.4679,502.8548 481.5392,502.8548 C 541.6105,502.8548 626.8730,504.7926 703.4154,507.6993 C 770.2690,510.6060 803.2113,512.5438 820.6514,515.4504 C 831.3092,517.3882 857.4692,520.2949 857.4692,549.3617 L 857.4692,863.2826 C 857.4692,892.3494 831.3092,896.2249 820.6514,898.1627 C 803.2113,900.1005 770.2690,903.0072 703.4154,905.9138 C 625.9041,908.8205 541.6105,910.7583 481.5392,910.7583 Z " fill="#0054A6" stroke="none"/>
        </g>
        <g transform="matrix(1.0000 0.0000 0.0000 1.0000 0.0000 0.0000)">
          <path d="M 44.5690,33.9112 C 39.7246,33.9112 33.9112,32.9423 30.0356,32.9423 C 27.1290,32.9423 21.3156,33.9112 16.4712,33.9112 C 8.7200,33.9112 8.7200,33.9112 8.7200,34.8801 L 8.7200,54.2579 C 8.7200,55.2268 8.7200,55.2268 16.4712,55.2268 C 21.3156,55.2268 27.1290,56.1957 30.0356,56.1957 C 33.9112,56.1957 39.7246,55.2268 44.5690,55.2268 C 52.3202,55.2268 52.3202,55.2268 52.3202,54.2579 L 52.3202,34.8801 C 52.3202,33.9112 52.3202,33.9112 44.5690,33.9112 Z " fill="none" stroke="none"/>
          <defs>
            <clipPath id="clip-1330573317">
              <path d="M 44.5690,33.9112 C 39.7246,33.9112 33.9112,32.9423 30.0356,32.9423 C 27.1290,32.9423 21.3156,33.9112 16.4712,33.9112 C 8.7200,33.9112 8.7200,33.9112 8.7200,34.8801 L 8.7200,54.2579 C 8.7200,55.2268 8.7200,55.2268 16.4712,55.2268 C 21.3156,55.2268 27.1290,56.1957 30.0356,56.1957 C 33.9112,56.1957 39.7246,55.2268 44.5690,55.2268 C 52.3202,55.2268 52.3202,55.2268 52.3202,54.2579 L 52.3202,34.8801 C 52.3202,33.9112 52.3202,33.9112 44.5690,33.9112 Z"/>
            </clipPath>
          </defs>
          <path clip-path="url(#clip-1330573317)" d="M 7.7511,32.9423 L 7.7511,33.9112 L 52.3202,33.9112 L 52.3202,32.9423 L 7.7511,32.9423 Z" stroke-width="1px" stroke="#ADDBED" fill="#ADDBED"/>
          <path clip-path="url(#clip-1330573317)" d="M 7.7511,33.9112 L 7.7511,34.8801 L 52.3202,34.8801 L 52.3202,33.9112 L 7.7511,33.9112 Z" stroke-width="1px" stroke="#B4DEEE" fill="#B4DEEE"/>
          <path clip-path="url(#clip-1330573317)" d="M 7.7511,34.8801 L 7.7511,35.8490 L 52.3202,35.8490 L 52.3202,34.8801 L 7.7511,34.8801 Z" stroke-width="1px" stroke="#BBE2F0" fill="#BBE2F0"/>
          <path clip-path="url(#clip-1330573317)" d="M 7.7511,35.8490 L 7.7511,36.8179 L 52.3202,36.8179 L 52.3202,35.8490 L 7.7511,35.8490 Z" stroke-width="1px" stroke="#C3E4F2" fill="#C3E4F2"/>
          <path clip-path="url(#clip-1330573317)" d="M 7.7511,36.8179 L 7.7511,37.7868 L 52.3202,37.7868 L 52.3202,36.8179 L 7.7511,36.8179 Z" stroke-width="1px" stroke="#CAE8F4" fill="#CAE8F4"/>
          <path clip-path="url(#clip-1330573317)" d="M 7.7511,37.7868 L 7.7511,38.7557 L 52.3202,38.7557 L 52.3202,37.7868 L 7.7511,37.7868 Z" stroke-width="1px" stroke="#D1EBF5" fill="#D1EBF5"/>
          <path clip-path="url(#clip-1330573317)" d="M 7.7511,38.7557 L 7.7511,39.7246 L 52.3202,39.7246 L 52.3202,38.7557 L 7.7511,38.7557 Z" stroke-width="1px" stroke="#D7EEF6" fill="#D7EEF6"/>
          <path clip-path="url(#clip-1330573317)" d="M 7.7511,39.7246 L 7.7511,40.6935 L 52.3202,40.6935 L 52.3202,39.7246 L 7.7511,39.7246 Z" stroke-width="1px" stroke="#DEF1F8" fill="#DEF1F8"/>
          <path clip-path="url(#clip-1330573317)" d="M 7.7511,40.6935 L 7.7511,41.6623 L 52.3202,41.6623 L 52.3202,40.6935 L 7.7511,40.6935 Z" stroke-width="1px" stroke="#E6F4FA" fill="#E6F4FA"/>
          <path clip-path="url(#clip-1330573317)" d="M 7.7511,41.6623 L 7.7511,42.6312 L 52.3202,42.6312 L 52.3202,41.6623 L 7.7511,41.6623 Z" stroke-width="1px" stroke="#EDF7FB" fill="#EDF7FB"/>
          <path clip-path="url(#clip-1330573317)" d="M 7.7511,42.6312 L 7.7511,43.6001 L 52.3202,43.6001 L 52.3202,42.6312 L 7.7511,42.6312 Z" stroke-width="1px" stroke="#F4FBFD" fill="#F4FBFD"/>
          <path clip-path="url(#clip-1330573317)" d="M 7.7511,43.6001 L 7.7511,44.5690 L 52.3202,44.5690 L 52.3202,43.6001 L 7.7511,43.6001 Z" stroke-width="1px" stroke="#FBFDFE" fill="#FBFDFE"/>
          <path clip-path="url(#clip-1330573317)" d="M 7.7511,44.5690 L 7.7511,45.5379 L 52.3202,45.5379 L 52.3202,44.5690 L 7.7511,44.5690 Z" stroke-width="1px" stroke="#FCFEFE" fill="#FCFEFE"/>
          <path clip-path="url(#clip-1330573317)" d="M 7.7511,45.5379 L 7.7511,46.5068 L 52.3202,46.5068 L 52.3202,45.5379 L 7.7511,45.5379 Z" stroke-width="1px" stroke="#F5FBFD" fill="#F5FBFD"/>
          <path clip-path="url(#clip-1330573317)" d="M 7.7511,46.5068 L 7.7511,47.4757 L 52.3202,47.4757 L 52.3202,46.5068 L 7.7511,46.5068 Z" stroke-width="1px" stroke="#EEF8FC" fill="#EEF8FC"/>
          <path clip-path="url(#clip-1330573317)" d="M 7.7511,47.4757 L 7.7511,48.4446 L 52.3202,48.4446 L 52.3202,47.4757 L 7.7511,47.4757 Z" stroke-width="1px" stroke="#E7F4FA" fill="#E7F4FA"/>
          <path clip-path="url(#clip-1330573317)" d="M 7.7511,48.4446 L 7.7511,49.4135 L 52.3202,49.4135 L 52.3202,48.4446 L 7.7511,48.4446 Z" stroke-width="1px" stroke="#DFF2F8" fill="#DFF2F8"/>
          <path clip-path="url(#clip-1330573317)" d="M 7.7511,49.4135 L 7.7511,50.3824 L 52.3202,50.3824 L 52.3202,49.4135 L 7.7511,49.4135 Z" stroke-width="1px" stroke="#D8EEF6" fill="#D8EEF6"/>
          <path clip-path="url(#clip-1330573317)" d="M 7.7511,50.3824 L 7.7511,51.3513 L 52.3202,51.3513 L 52.3202,50.3824 L 7.7511,50.3824 Z" stroke-width="1px" stroke="#D1EBF5" fill="#D1EBF5"/>
          <path clip-path="url(#clip-1330573317)" d="M 7.7511,51.3513 L 7.7511,52.3202 L 52.3202,52.3202 L 52.3202,51.3513 L 7.7511,51.3513 Z" stroke-width="1px" stroke="#CAE8F4" fill="#CAE8F4"/>
          <path clip-path="url(#clip-1330573317)" d="M 7.7511,52.3202 L 7.7511,53.2890 L 52.3202,53.2890 L 52.3202,52.3202 L 7.7511,52.3202 Z" stroke-width="1px" stroke="#C3E5F2" fill="#C3E5F2"/>
          <path clip-path="url(#clip-1330573317)" d="M 7.7511,53.2890 L 7.7511,54.2579 L 52.3202,54.2579 L 52.3202,53.2890 L 7.7511,53.2890 Z" stroke-width="1px" stroke="#BCE2F0" fill="#BCE2F0"/>
          <path clip-path="url(#clip-1330573317)" d="M 7.7511,54.2579 L 7.7511,55.2268 L 52.3202,55.2268 L 52.3202,54.2579 L 7.7511,54.2579 Z" stroke-width="1px" stroke="#B5DFEF" fill="#B5DFEF"/>
          <path clip-path="url(#clip-1330573317)" d="M 7.7511,55.2268 L 7.7511,56.1957 L 52.3202,56.1957 L 52.3202,55.2268 L 7.7511,55.2268 Z" stroke-width="1px" stroke="#AEDBED" fill="#AEDBED"/>
        </g>
        <g transform="matrix(0.0625 0.0000 0.0000 0.0625 0.0000 0.0000)">
          <path d="M 702.4466,532.8905 C 624.9352,529.9838 540.6416,528.0460 481.5392,528.0460 C 422.4368,528.0460 338.1432,529.9838 260.6319,532.8905 C 128.8626,538.7038 128.8626,541.6105 128.8626,549.3617 L 128.8626,863.2826 C 128.8626,872.0026 128.8626,874.9093 260.6319,879.7538 C 338.1432,883.6293 422.4368,885.5671 481.5392,885.5671 C 540.6416,885.5671 624.9352,883.6293 702.4466,879.7538 C 834.2158,874.9093 834.2158,872.0026 834.2158,863.2826 L 834.2158,549.3617 C 834.2158,541.6105 834.2158,538.7038 702.4466,532.8905 " stroke="#ADDBED" stroke-width="0.9689" stroke-linecap="butt" stroke-linejoin="round" fill="none"/>
        </g>
        <g transform="matrix(1.0000 0.0000 0.0000 1.0000 0.0000 0.0000)">
</g>
        <g transform="matrix(0.0625 0.0000 0.0000 0.0625 0.0000 0.0000)">
          <path d="M 406.9346,582.3040 L 406.9346,610.4018 L 552.2683,610.4018 L 552.2683,582.3040 L 406.9346,582.3040 Z" stroke-width="1px" stroke="#8DC63F" fill="#8DC63F"/>
        </g>
        <g transform="matrix(1.0000 0.0000 0.0000 1.0000 0.0000 0.0000)">
</g>
        <g transform="matrix(0.0625 0.0000 0.0000 0.0625 0.0000 0.0000)">
          <path d="M 406.9346,610.4018 L 406.9346,647.2197 C 406.9346,654.9709 411.7790,661.7531 418.5613,661.7531 L 541.6105,661.7531 C 547.4239,661.7531 552.2683,654.9709 552.2683,647.2197 L 552.2683,610.4018 L 406.9346,610.4018 Z " fill="#0054A6" stroke="none"/>
        </g>
        <g transform="matrix(1.0000 0.0000 0.0000 1.0000 0.0000 0.0000)">
</g>
        <g transform="matrix(0.0625 0.0000 0.0000 0.0625 0.0000 0.0000)">
          <path d="M 590.0551,554.2061 L 600.7129,555.1750 C 610.4018,555.1750 616.2152,669.5042 616.2152,703.4154 C 616.2152,704.3843 616.2152,705.3532 616.2152,705.3532 C 616.2152,706.3221 616.2152,707.2910 616.2152,708.2599 C 616.2152,742.1711 610.4018,856.5004 600.7129,856.5004 L 590.0551,857.4692 C 586.1795,858.4381 582.3040,854.5626 582.3040,849.7181 L 582.3040,561.9572 C 582.3040,557.1128 586.1795,554.2061 590.0551,554.2061 Z M 651.0953,560.0195 L 661.7531,560.0195 C 670.4731,560.9884 677.2554,671.4420 677.2554,703.4154 C 677.2554,704.3843 677.2554,704.3843 677.2554,705.3532 C 677.2554,706.3221 677.2554,707.2910 677.2554,707.2910 C 677.2554,740.2333 670.4731,849.7181 661.7531,850.6870 L 651.0953,851.6559 C 647.2197,851.6559 643.3442,848.7492 643.3442,843.9048 L 643.3442,567.7706 C 643.3442,562.9261 647.2197,560.0195 651.0953,560.0195 Z M 712.1355,565.8328 L 722.7933,565.8328 C 731.5133,566.8017 737.3267,672.4109 737.3267,703.4154 C 737.3267,704.3843 737.3267,704.3843 737.3267,705.3532 C 737.3267,706.3221 737.3267,706.3221 737.3267,707.2910 C 737.3267,738.2956 731.5133,843.9048 722.7933,844.8737 L 712.1355,844.8737 C 708.2599,845.8425 704.3843,841.9670 704.3843,838.0914 L 704.3843,572.6151 C 704.3843,568.7395 708.2599,564.8639 712.1355,565.8328 Z M 773.1757,570.6773 L 782.8646,571.6462 C 791.5846,571.6462 798.3668,674.3487 798.3668,703.4154 C 798.3668,703.4154 798.3668,704.3843 798.3668,705.3532 C 798.3668,705.3532 798.3668,706.3221 798.3668,706.3221 C 798.3668,735.3889 791.5846,838.0914 782.8646,838.0914 L 773.1757,839.0603 C 769.3001,839.0603 765.4245,836.1536 765.4245,832.2781 L 765.4245,577.4595 C 765.4245,573.5839 769.3001,570.6773 773.1757,570.6773 Z M 366.2411,554.2061 L 355.5833,555.1750 C 346.8633,555.1750 340.0810,669.5042 340.0810,703.4154 C 340.0810,704.3843 340.0810,705.3532 340.0810,705.3532 C 340.0810,706.3221 340.0810,707.2910 340.0810,708.2599 C 340.0810,742.1711 346.8633,856.5004 355.5833,856.5004 L 366.2411,857.4692 C 371.0856,858.4381 373.9922,854.5626 373.9922,849.7181 L 373.9922,561.9572 C 373.9922,557.1128 371.0856,554.2061 366.2411,554.2061 Z M 184.0894,570.6773 L 173.4316,571.6462 C 164.7116,571.6462 158.8983,674.3487 158.8983,703.4154 C 158.8983,703.4154 158.8983,704.3843 158.8983,705.3532 C 158.8983,705.3532 158.8983,706.3221 158.8983,706.3221 C 158.8983,735.3889 164.7116,838.0914 173.4316,838.0914 L 184.0894,839.0603 C 187.9650,839.0603 190.8717,836.1536 190.8717,832.2781 L 190.8717,577.4595 C 190.8717,573.5839 187.9650,570.6773 184.0894,570.6773 Z M 245.1296,565.8328 L 234.4718,565.8328 C 225.7518,566.8017 218.9695,672.4109 218.9695,703.4154 C 218.9695,704.3843 218.9695,704.3843 218.9695,705.3532 C 218.9695,706.3221 218.9695,706.3221 218.9695,707.2910 C 218.9695,738.2956 225.7518,843.9048 234.4718,844.8737 L 245.1296,844.8737 C 249.0052,845.8425 251.9119,841.9670 251.9119,838.0914 L 251.9119,572.6151 C 251.9119,568.7395 249.0052,564.8639 245.1296,565.8328 Z M 305.2009,560.0195 L 294.5431,560.0195 C 285.8231,560.9884 280.0097,671.4420 280.0097,703.4154 C 280.0097,704.3843 280.0097,704.3843 280.0097,705.3532 C 280.0097,706.3221 280.0097,707.2910 280.0097,707.2910 C 280.0097,740.2333 285.8231,849.7181 294.5431,850.6870 L 305.2009,851.6559 C 310.0454,851.6559 312.9521,848.7492 312.9521,843.9048 L 312.9521,567.7706 C 312.9521,562.9261 310.0454,560.0195 305.2009,560.0195 Z " fill="#0054A6" stroke="none"/>
        </g>
        <g transform="matrix(1.0000 0.0000 0.0000 1.0000 0.0000 0.0000)">
          <path d="M 4.8445,30.0356 L 4.8445,1.9378 L 1.9378,2.9067 L 1.9378,30.0356 L 4.8445,30.0356 " fill="none" stroke="none"/>
          <defs>
            <clipPath id="clip-603570492">
              <path d="M 4.8445,30.0356 L 4.8445,1.9378 L 1.9378,2.9067 L 1.9378,30.0356 L 4.8445,30.0356 Z"/>
            </clipPath>
          </defs>
          <path clip-path="url(#clip-603570492)" d="M 0.9689,0.9689 L 0.9689,1.9378 L 3.8756,1.9378 L 3.8756,0.9689 L 0.9689,0.9689 Z" stroke-width="1px" stroke="#56BCEB" fill="#56BCEB"/>
          <path clip-path="url(#clip-603570492)" d="M 0.9689,1.9378 L 0.9689,2.9067 L 3.8756,2.9067 L 3.8756,1.9378 L 0.9689,1.9378 Z" stroke-width="1px" stroke="#0279C1" fill="#0279C1"/>
          <path clip-path="url(#clip-603570492)" d="M 0.9689,2.9067 L 0.9689,3.8756 L 3.8756,3.8756 L 3.8756,2.9067 L 0.9689,2.9067 Z" stroke-width="1px" stroke="#057BC3" fill="#057BC3"/>
          <path clip-path="url(#clip-603570492)" d="M 0.9689,3.8756 L 0.9689,4.8445 L 3.8756,4.8445 L 3.8756,3.8756 L 0.9689,3.8756 Z" stroke-width="1px" stroke="#087EC4" fill="#087EC4"/>
          <path clip-path="url(#clip-603570492)" d="M 0.9689,4.8445 L 0.9689,5.8134 L 3.8756,5.8134 L 3.8756,4.8445 L 0.9689,4.8445 Z" stroke-width="1px" stroke="#0C80C5" fill="#0C80C5"/>
          <path clip-path="url(#clip-603570492)" d="M 0.9689,5.8134 L 0.9689,6.7822 L 3.8756,6.7822 L 3.8756,5.8134 L 0.9689,5.8134 Z" stroke-width="1px" stroke="#0E83C7" fill="#0E83C7"/>
          <path clip-path="url(#clip-603570492)" d="M 0.9689,6.7822 L 0.9689,7.7511 L 3.8756,7.7511 L 3.8756,6.7822 L 0.9689,6.7822 Z" stroke-width="1px" stroke="#1185C9" fill="#1185C9"/>
          <path clip-path="url(#clip-603570492)" d="M 0.9689,7.7511 L 0.9689,8.7200 L 3.8756,8.7200 L 3.8756,7.7511 L 0.9689,7.7511 Z" stroke-width="1px" stroke="#1587CA" fill="#1587CA"/>
          <path clip-path="url(#clip-603570492)" d="M 0.9689,8.7200 L 0.9689,9.6889 L 3.8756,9.6889 L 3.8756,8.7200 L 0.9689,8.7200 Z" stroke-width="1px" stroke="#1789CC" fill="#1789CC"/>
          <path clip-path="url(#clip-603570492)" d="M 0.9689,9.6889 L 0.9689,10.6578 L 3.8756,10.6578 L 3.8756,9.6889 L 0.9689,9.6889 Z" stroke-width="1px" stroke="#1A8CCD" fill="#1A8CCD"/>
          <path clip-path="url(#clip-603570492)" d="M 0.9689,10.6578 L 0.9689,11.6267 L 3.8756,11.6267 L 3.8756,10.6578 L 0.9689,10.6578 Z" stroke-width="1px" stroke="#1D8FCE" fill="#1D8FCE"/>
          <path clip-path="url(#clip-603570492)" d="M 0.9689,11.6267 L 0.9689,12.5956 L 3.8756,12.5956 L 3.8756,11.6267 L 0.9689,11.6267 Z" stroke-width="1px" stroke="#2091D0" fill="#2091D0"/>
          <path clip-path="url(#clip-603570492)" d="M 0.9689,12.5956 L 0.9689,13.5645 L 3.8756,13.5645 L 3.8756,12.5956 L 0.9689,12.5956 Z" stroke-width="1px" stroke="#2393D1" fill="#2393D1"/>
          <path clip-path="url(#clip-603570492)" d="M 0.9689,13.5645 L 0.9689,14.5334 L 3.8756,14.5334 L 3.8756,13.5645 L 0.9689,13.5645 Z" stroke-width="1px" stroke="#2695D3" fill="#2695D3"/>
          <path clip-path="url(#clip-603570492)" d="M 0.9689,14.5334 L 0.9689,15.5023 L 3.8756,15.5023 L 3.8756,14.5334 L 0.9689,14.5334 Z" stroke-width="1px" stroke="#2998D5" fill="#2998D5"/>
          <path clip-path="url(#clip-603570492)" d="M 0.9689,15.5023 L 0.9689,16.4712 L 3.8756,16.4712 L 3.8756,15.5023 L 0.9689,15.5023 Z" stroke-width="1px" stroke="#2C9BD6" fill="#2C9BD6"/>
          <path clip-path="url(#clip-603570492)" d="M 0.9689,16.4712 L 0.9689,17.4401 L 3.8756,17.4401 L 3.8756,16.4712 L 0.9689,16.4712 Z" stroke-width="1px" stroke="#2E9DD7" fill="#2E9DD7"/>
          <path clip-path="url(#clip-603570492)" d="M 0.9689,17.4401 L 0.9689,18.4089 L 3.8756,18.4089 L 3.8756,17.4401 L 0.9689,17.4401 Z" stroke-width="1px" stroke="#319FD9" fill="#319FD9"/>
          <path clip-path="url(#clip-603570492)" d="M 0.9689,18.4089 L 0.9689,19.3778 L 3.8756,19.3778 L 3.8756,18.4089 L 0.9689,18.4089 Z" stroke-width="1px" stroke="#35A1DA" fill="#35A1DA"/>
          <path clip-path="url(#clip-603570492)" d="M 0.9689,19.3778 L 0.9689,20.3467 L 3.8756,20.3467 L 3.8756,19.3778 L 0.9689,19.3778 Z" stroke-width="1px" stroke="#38A3DC" fill="#38A3DC"/>
          <path clip-path="url(#clip-603570492)" d="M 0.9689,20.3467 L 0.9689,21.3156 L 3.8756,21.3156 L 3.8756,20.3467 L 0.9689,20.3467 Z" stroke-width="1px" stroke="#3AA5DE" fill="#3AA5DE"/>
          <path clip-path="url(#clip-603570492)" d="M 0.9689,21.3156 L 0.9689,22.2845 L 3.8756,22.2845 L 3.8756,21.3156 L 0.9689,21.3156 Z" stroke-width="1px" stroke="#3DA8DF" fill="#3DA8DF"/>
          <path clip-path="url(#clip-603570492)" d="M 0.9689,22.2845 L 0.9689,23.2534 L 3.8756,23.2534 L 3.8756,22.2845 L 0.9689,22.2845 Z" stroke-width="1px" stroke="#41ABE0" fill="#41ABE0"/>
          <path clip-path="url(#clip-603570492)" d="M 0.9689,23.2534 L 0.9689,24.2223 L 3.8756,24.2223 L 3.8756,23.2534 L 0.9689,23.2534 Z" stroke-width="1px" stroke="#44ADE2" fill="#44ADE2"/>
          <path clip-path="url(#clip-603570492)" d="M 0.9689,24.2223 L 0.9689,25.1912 L 3.8756,25.1912 L 3.8756,24.2223 L 0.9689,24.2223 Z" stroke-width="1px" stroke="#46AFE3" fill="#46AFE3"/>
          <path clip-path="url(#clip-603570492)" d="M 0.9689,25.1912 L 0.9689,26.1601 L 3.8756,26.1601 L 3.8756,25.1912 L 0.9689,25.1912 Z" stroke-width="1px" stroke="#49B1E5" fill="#49B1E5"/>
          <path clip-path="url(#clip-603570492)" d="M 0.9689,26.1601 L 0.9689,27.1290 L 3.8756,27.1290 L 3.8756,26.1601 L 0.9689,26.1601 Z" stroke-width="1px" stroke="#4CB4E6" fill="#4CB4E6"/>
          <path clip-path="url(#clip-603570492)" d="M 0.9689,27.1290 L 0.9689,28.0979 L 3.8756,28.0979 L 3.8756,27.1290 L 0.9689,27.1290 Z" stroke-width="1px" stroke="#4FB6E7" fill="#4FB6E7"/>
          <path clip-path="url(#clip-603570492)" d="M 0.9689,28.0979 L 0.9689,29.0668 L 3.8756,29.0668 L 3.8756,28.0979 L 0.9689,28.0979 Z" stroke-width="1px" stroke="#52B9E9" fill="#52B9E9"/>
          <path clip-path="url(#clip-603570492)" d="M 0.9689,29.0668 L 0.9689,30.0356 L 3.8756,30.0356 L 3.8756,29.0668 L 0.9689,29.0668 Z" stroke-width="1px" stroke="#55BBEA" fill="#55BBEA"/>
        </g>
        <g transform="matrix(0.0625 0.0000 0.0000 0.0625 0.0000 0.0000)">
          <path d="M 63.9469,470.8814 L 63.9469,18.4089 L 18.4089,44.5690 L 18.4089,470.8814 L 63.9469,470.8814 " stroke="#0054A6" stroke-width="9.6889" stroke-linecap="round" stroke-linejoin="round" fill="none"/>
        </g>
        <g transform="matrix(1.0000 0.0000 0.0000 1.0000 0.0000 0.0000)">
          <path d="M 1.9378,30.0356 L 1.9378,57.1646 L 4.8445,59.1024 L 4.8445,30.0356 L 1.9378,30.0356 " fill="none" stroke="none"/>
          <defs>
            <clipPath id="clip-1687926652">
              <path d="M 1.9378,30.0356 L 1.9378,57.1646 L 4.8445,59.1024 L 4.8445,30.0356 L 1.9378,30.0356 Z"/>
            </clipPath>
          </defs>
          <path clip-path="url(#clip-1687926652)" d="M 0.9689,30.0356 L 0.9689,31.0045 L 3.8756,31.0045 L 3.8756,30.0356 L 0.9689,30.0356 Z" stroke-width="1px" stroke="#0077C0" fill="#0077C0"/>
          <path clip-path="url(#clip-1687926652)" d="M 0.9689,31.0045 L 0.9689,31.9734 L 3.8756,31.9734 L 3.8756,31.0045 L 0.9689,31.0045 Z" stroke-width="1px" stroke="#0379C2" fill="#0379C2"/>
          <path clip-path="url(#clip-1687926652)" d="M 0.9689,31.9734 L 0.9689,32.9423 L 3.8756,32.9423 L 3.8756,31.9734 L 0.9689,31.9734 Z" stroke-width="1px" stroke="#067CC3" fill="#067CC3"/>
          <path clip-path="url(#clip-1687926652)" d="M 0.9689,32.9423 L 0.9689,33.9112 L 3.8756,33.9112 L 3.8756,32.9423 L 0.9689,32.9423 Z" stroke-width="1px" stroke="#097EC4" fill="#097EC4"/>
          <path clip-path="url(#clip-1687926652)" d="M 0.9689,33.9112 L 0.9689,34.8801 L 3.8756,34.8801 L 3.8756,33.9112 L 0.9689,33.9112 Z" stroke-width="1px" stroke="#0C81C6" fill="#0C81C6"/>
          <path clip-path="url(#clip-1687926652)" d="M 0.9689,34.8801 L 0.9689,35.8490 L 3.8756,35.8490 L 3.8756,34.8801 L 0.9689,34.8801 Z" stroke-width="1px" stroke="#0F83C7" fill="#0F83C7"/>
          <path clip-path="url(#clip-1687926652)" d="M 0.9689,35.8490 L 0.9689,36.8179 L 3.8756,36.8179 L 3.8756,35.8490 L 0.9689,35.8490 Z" stroke-width="1px" stroke="#1285C9" fill="#1285C9"/>
          <path clip-path="url(#clip-1687926652)" d="M 0.9689,36.8179 L 0.9689,37.7868 L 3.8756,37.7868 L 3.8756,36.8179 L 0.9689,36.8179 Z" stroke-width="1px" stroke="#1587CB" fill="#1587CB"/>
          <path clip-path="url(#clip-1687926652)" d="M 0.9689,37.7868 L 0.9689,38.7557 L 3.8756,38.7557 L 3.8756,37.7868 L 0.9689,37.7868 Z" stroke-width="1px" stroke="#188ACC" fill="#188ACC"/>
          <path clip-path="url(#clip-1687926652)" d="M 0.9689,38.7557 L 0.9689,39.7246 L 3.8756,39.7246 L 3.8756,38.7557 L 0.9689,38.7557 Z" stroke-width="1px" stroke="#1B8DCD" fill="#1B8DCD"/>
          <path clip-path="url(#clip-1687926652)" d="M 0.9689,39.7246 L 0.9689,40.6935 L 3.8756,40.6935 L 3.8756,39.7246 L 0.9689,39.7246 Z" stroke-width="1px" stroke="#1E8FCF" fill="#1E8FCF"/>
          <path clip-path="url(#clip-1687926652)" d="M 0.9689,40.6935 L 0.9689,41.6623 L 3.8756,41.6623 L 3.8756,40.6935 L 0.9689,40.6935 Z" stroke-width="1px" stroke="#2091D0" fill="#2091D0"/>
          <path clip-path="url(#clip-1687926652)" d="M 0.9689,41.6623 L 0.9689,42.6312 L 3.8756,42.6312 L 3.8756,41.6623 L 0.9689,41.6623 Z" stroke-width="1px" stroke="#2493D2" fill="#2493D2"/>
          <path clip-path="url(#clip-1687926652)" d="M 0.9689,42.6312 L 0.9689,43.6001 L 3.8756,43.6001 L 3.8756,42.6312 L 0.9689,42.6312 Z" stroke-width="1px" stroke="#2796D3" fill="#2796D3"/>
          <path clip-path="url(#clip-1687926652)" d="M 0.9689,43.6001 L 0.9689,44.5690 L 3.8756,44.5690 L 3.8756,43.6001 L 0.9689,43.6001 Z" stroke-width="1px" stroke="#2998D5" fill="#2998D5"/>
          <path clip-path="url(#clip-1687926652)" d="M 0.9689,44.5690 L 0.9689,45.5379 L 3.8756,45.5379 L 3.8756,44.5690 L 0.9689,44.5690 Z" stroke-width="1px" stroke="#2C9BD6" fill="#2C9BD6"/>
          <path clip-path="url(#clip-1687926652)" d="M 0.9689,45.5379 L 0.9689,46.5068 L 3.8756,46.5068 L 3.8756,45.5379 L 0.9689,45.5379 Z" stroke-width="1px" stroke="#2F9DD8" fill="#2F9DD8"/>
          <path clip-path="url(#clip-1687926652)" d="M 0.9689,46.5068 L 0.9689,47.4757 L 3.8756,47.4757 L 3.8756,46.5068 L 0.9689,46.5068 Z" stroke-width="1px" stroke="#329FD9" fill="#329FD9"/>
          <path clip-path="url(#clip-1687926652)" d="M 0.9689,47.4757 L 0.9689,48.4446 L 3.8756,48.4446 L 3.8756,47.4757 L 0.9689,47.4757 Z" stroke-width="1px" stroke="#35A2DB" fill="#35A2DB"/>
          <path clip-path="url(#clip-1687926652)" d="M 0.9689,48.4446 L 0.9689,49.4135 L 3.8756,49.4135 L 3.8756,48.4446 L 0.9689,48.4446 Z" stroke-width="1px" stroke="#38A4DC" fill="#38A4DC"/>
          <path clip-path="url(#clip-1687926652)" d="M 0.9689,49.4135 L 0.9689,50.3824 L 3.8756,50.3824 L 3.8756,49.4135 L 0.9689,49.4135 Z" stroke-width="1px" stroke="#3BA6DE" fill="#3BA6DE"/>
          <path clip-path="url(#clip-1687926652)" d="M 0.9689,50.3824 L 0.9689,51.3513 L 3.8756,51.3513 L 3.8756,50.3824 L 0.9689,50.3824 Z" stroke-width="1px" stroke="#3EA9DF" fill="#3EA9DF"/>
          <path clip-path="url(#clip-1687926652)" d="M 0.9689,51.3513 L 0.9689,52.3202 L 3.8756,52.3202 L 3.8756,51.3513 L 0.9689,51.3513 Z" stroke-width="1px" stroke="#41ABE0" fill="#41ABE0"/>
          <path clip-path="url(#clip-1687926652)" d="M 0.9689,52.3202 L 0.9689,53.2890 L 3.8756,53.2890 L 3.8756,52.3202 L 0.9689,52.3202 Z" stroke-width="1px" stroke="#44AEE2" fill="#44AEE2"/>
          <path clip-path="url(#clip-1687926652)" d="M 0.9689,53.2890 L 0.9689,54.2579 L 3.8756,54.2579 L 3.8756,53.2890 L 0.9689,53.2890 Z" stroke-width="1px" stroke="#47B0E4" fill="#47B0E4"/>
          <path clip-path="url(#clip-1687926652)" d="M 0.9689,54.2579 L 0.9689,55.2268 L 3.8756,55.2268 L 3.8756,54.2579 L 0.9689,54.2579 Z" stroke-width="1px" stroke="#4AB2E5" fill="#4AB2E5"/>
          <path clip-path="url(#clip-1687926652)" d="M 0.9689,55.2268 L 0.9689,56.1957 L 3.8756,56.1957 L 3.8756,55.2268 L 0.9689,55.2268 Z" stroke-width="1px" stroke="#4DB4E7" fill="#4DB4E7"/>
          <path clip-path="url(#clip-1687926652)" d="M 0.9689,56.1957 L 0.9689,57.1646 L 3.8756,57.1646 L 3.8756,56.1957 L 0.9689,56.1957 Z" stroke-width="1px" stroke="#50B7E8" fill="#50B7E8"/>
          <path clip-path="url(#clip-1687926652)" d="M 0.9689,57.1646 L 0.9689,58.1335 L 3.8756,58.1335 L 3.8756,57.1646 L 0.9689,57.1646 Z" stroke-width="1px" stroke="#53B9E9" fill="#53B9E9"/>
          <path clip-path="url(#clip-1687926652)" d="M 0.9689,58.1335 L 0.9689,59.1024 L 3.8756,59.1024 L 3.8756,58.1335 L 0.9689,58.1335 Z" stroke-width="1px" stroke="#56BCEB" fill="#56BCEB"/>
        </g>
        <g transform="matrix(0.0625 0.0000 0.0000 0.0625 0.0000 0.0000)">
          <path d="M 18.4089,480.5703 L 18.4089,906.8827 L 63.9469,933.0428 L 63.9469,480.5703 L 18.4089,480.5703 " stroke="#0054A6" stroke-width="9.6889" stroke-linecap="round" stroke-linejoin="round" fill="none"/>
        </g>
        <g transform="matrix(1.0000 0.0000 0.0000 1.0000 0.0000 0.0000)">
</g>
      </g>
      <!--emf-blob end-->
    </g>
  </g>
</svg>
