<svg xmlns="http://www.w3.org/2000/svg" xmlns:xlink="http://www.w3.org/1999/xlink" version="1.1" width="56.6929000000" height="25.2000000000">
  <title><![CDATA[FAS900]]></title>
  <g transform=" scale(1.000000) ">
    <!--converted by libvisio2svg-->
    <g transform=" translate(-1.161600,-1.799400) ">
      <!--emf-blob start-->
      <g transform="translate(0.9411, 0.9411)">
        <path d="M 1.8822,2.8233 L 1.8822,24.4687 L 4.7055,26.3509 L 4.7055,1.8822 L 1.8822,2.8233 " fill="none" stroke="none"/>
        <defs>
          <clipPath id="clip-1681692777">
            <path d="M 1.8822,2.8233 L 1.8822,24.4687 L 4.7055,26.3509 L 4.7055,1.8822 L 1.8822,2.8233 Z"/>
          </clipPath>
        </defs>
        <path clip-path="url(#clip-1681692777)" d="M 0.9411,0.9411 L 0.9411,1.8822 L 3.7644,1.8822 L 3.7644,0.9411 L 0.9411,0.9411 Z" stroke-width="1px" stroke="#56BCEB" fill="#56BCEB"/>
        <path clip-path="url(#clip-1681692777)" d="M 0.9411,1.8822 L 0.9411,2.8233 L 3.7644,2.8233 L 3.7644,1.8822 L 0.9411,1.8822 Z" stroke-width="1px" stroke="#0379C2" fill="#0379C2"/>
        <path clip-path="url(#clip-1681692777)" d="M 0.9411,2.8233 L 0.9411,3.7644 L 3.7644,3.7644 L 3.7644,2.8233 L 0.9411,2.8233 Z" stroke-width="1px" stroke="#067CC3" fill="#067CC3"/>
        <path clip-path="url(#clip-1681692777)" d="M 0.9411,3.7644 L 0.9411,4.7055 L 3.7644,4.7055 L 3.7644,3.7644 L 0.9411,3.7644 Z" stroke-width="1px" stroke="#0A7FC5" fill="#0A7FC5"/>
        <path clip-path="url(#clip-1681692777)" d="M 0.9411,4.7055 L 0.9411,5.6466 L 3.7644,5.6466 L 3.7644,4.7055 L 0.9411,4.7055 Z" stroke-width="1px" stroke="#0D81C6" fill="#0D81C6"/>
        <path clip-path="url(#clip-1681692777)" d="M 0.9411,5.6466 L 0.9411,6.5877 L 3.7644,6.5877 L 3.7644,5.6466 L 0.9411,5.6466 Z" stroke-width="1px" stroke="#1084C8" fill="#1084C8"/>
        <path clip-path="url(#clip-1681692777)" d="M 0.9411,6.5877 L 0.9411,7.5288 L 3.7644,7.5288 L 3.7644,6.5877 L 0.9411,6.5877 Z" stroke-width="1px" stroke="#1486CA" fill="#1486CA"/>
        <path clip-path="url(#clip-1681692777)" d="M 0.9411,7.5288 L 0.9411,8.4699 L 3.7644,8.4699 L 3.7644,7.5288 L 0.9411,7.5288 Z" stroke-width="1px" stroke="#1789CB" fill="#1789CB"/>
        <path clip-path="url(#clip-1681692777)" d="M 0.9411,8.4699 L 0.9411,9.4110 L 3.7644,9.4110 L 3.7644,8.4699 L 0.9411,8.4699 Z" stroke-width="1px" stroke="#1A8CCD" fill="#1A8CCD"/>
        <path clip-path="url(#clip-1681692777)" d="M 0.9411,9.4110 L 0.9411,10.3521 L 3.7644,10.3521 L 3.7644,9.4110 L 0.9411,9.4110 Z" stroke-width="1px" stroke="#1D8FCE" fill="#1D8FCE"/>
        <path clip-path="url(#clip-1681692777)" d="M 0.9411,10.3521 L 0.9411,11.2932 L 3.7644,11.2932 L 3.7644,10.3521 L 0.9411,10.3521 Z" stroke-width="1px" stroke="#2091D0" fill="#2091D0"/>
        <path clip-path="url(#clip-1681692777)" d="M 0.9411,11.2932 L 0.9411,12.2343 L 3.7644,12.2343 L 3.7644,11.2932 L 0.9411,11.2932 Z" stroke-width="1px" stroke="#2494D2" fill="#2494D2"/>
        <path clip-path="url(#clip-1681692777)" d="M 0.9411,12.2343 L 0.9411,13.1754 L 3.7644,13.1754 L 3.7644,12.2343 L 0.9411,12.2343 Z" stroke-width="1px" stroke="#2897D4" fill="#2897D4"/>
        <path clip-path="url(#clip-1681692777)" d="M 0.9411,13.1754 L 0.9411,14.1166 L 3.7644,14.1166 L 3.7644,13.1754 L 0.9411,13.1754 Z" stroke-width="1px" stroke="#2B9AD6" fill="#2B9AD6"/>
        <path clip-path="url(#clip-1681692777)" d="M 0.9411,14.1166 L 0.9411,15.0577 L 3.7644,15.0577 L 3.7644,14.1166 L 0.9411,14.1166 Z" stroke-width="1px" stroke="#2E9CD7" fill="#2E9CD7"/>
        <path clip-path="url(#clip-1681692777)" d="M 0.9411,15.0577 L 0.9411,15.9988 L 3.7644,15.9988 L 3.7644,15.0577 L 0.9411,15.0577 Z" stroke-width="1px" stroke="#319FD8" fill="#319FD8"/>
        <path clip-path="url(#clip-1681692777)" d="M 0.9411,15.9988 L 0.9411,16.9399 L 3.7644,16.9399 L 3.7644,15.9988 L 0.9411,15.9988 Z" stroke-width="1px" stroke="#35A1DA" fill="#35A1DA"/>
        <path clip-path="url(#clip-1681692777)" d="M 0.9411,16.9399 L 0.9411,17.8810 L 3.7644,17.8810 L 3.7644,16.9399 L 0.9411,16.9399 Z" stroke-width="1px" stroke="#38A4DC" fill="#38A4DC"/>
        <path clip-path="url(#clip-1681692777)" d="M 0.9411,17.8810 L 0.9411,18.8221 L 3.7644,18.8221 L 3.7644,17.8810 L 0.9411,17.8810 Z" stroke-width="1px" stroke="#3BA6DE" fill="#3BA6DE"/>
        <path clip-path="url(#clip-1681692777)" d="M 0.9411,18.8221 L 0.9411,19.7632 L 3.7644,19.7632 L 3.7644,18.8221 L 0.9411,18.8221 Z" stroke-width="1px" stroke="#3FA9DF" fill="#3FA9DF"/>
        <path clip-path="url(#clip-1681692777)" d="M 0.9411,19.7632 L 0.9411,20.7043 L 3.7644,20.7043 L 3.7644,19.7632 L 0.9411,19.7632 Z" stroke-width="1px" stroke="#42ACE1" fill="#42ACE1"/>
        <path clip-path="url(#clip-1681692777)" d="M 0.9411,20.7043 L 0.9411,21.6454 L 3.7644,21.6454 L 3.7644,20.7043 L 0.9411,20.7043 Z" stroke-width="1px" stroke="#45AEE3" fill="#45AEE3"/>
        <path clip-path="url(#clip-1681692777)" d="M 0.9411,21.6454 L 0.9411,22.5865 L 3.7644,22.5865 L 3.7644,21.6454 L 0.9411,21.6454 Z" stroke-width="1px" stroke="#48B1E4" fill="#48B1E4"/>
        <path clip-path="url(#clip-1681692777)" d="M 0.9411,22.5865 L 0.9411,23.5276 L 3.7644,23.5276 L 3.7644,22.5865 L 0.9411,22.5865 Z" stroke-width="1px" stroke="#4CB3E6" fill="#4CB3E6"/>
        <path clip-path="url(#clip-1681692777)" d="M 0.9411,23.5276 L 0.9411,24.4687 L 3.7644,24.4687 L 3.7644,23.5276 L 0.9411,23.5276 Z" stroke-width="1px" stroke="#4FB7E7" fill="#4FB7E7"/>
        <path clip-path="url(#clip-1681692777)" d="M 0.9411,24.4687 L 0.9411,25.4098 L 3.7644,25.4098 L 3.7644,24.4687 L 0.9411,24.4687 Z" stroke-width="1px" stroke="#53B9E9" fill="#53B9E9"/>
        <g transform="matrix(0.0625 0.0000 0.0000 0.0625 0.0000 0.0000)">
          <path d="M 17.8810,43.2908 L 17.8810,383.0291 L 62.1128,408.4388 L 62.1128,17.8810 L 17.8810,43.2908 " stroke="#0054A6" stroke-width="9.4110" stroke-linecap="round" stroke-linejoin="round" fill="none"/>
        </g>
        <g transform="matrix(1.0000 0.0000 0.0000 1.0000 0.0000 0.0000)">
</g>
        <g transform="matrix(0.0625 0.0000 0.0000 0.0625 0.0000 0.0000)">
          <path d="M 62.1128,17.8810 L 62.1128,408.4388 L 873.3439,408.4388 L 873.3439,17.8810 L 62.1128,17.8810 Z" stroke-width="1px" stroke="#4694D0" fill="#4694D0"/>
        </g>
        <g transform="matrix(1.0000 0.0000 0.0000 1.0000 0.0000 0.0000)">
</g>
        <g transform="matrix(0.0625 0.0000 0.0000 0.0625 0.0000 0.0000)">
          <path d="M 62.1128,408.4388 L 873.3439,408.4388 L 873.3439,17.8810 L 62.1128,17.8810 L 62.1128,408.4388 Z" stroke="#0054A6" stroke-width="9.4110" stroke-linecap="round" stroke-linejoin="round" fill="none"/>
        </g>
        <g transform="matrix(1.0000 0.0000 0.0000 1.0000 0.0000 0.0000)">
          <path d="M 53.6429,26.3509 L 53.6429,21.6454 C 54.5840,18.8221 54.5840,15.9988 54.5840,12.2343 C 54.5840,8.4699 53.6429,1.8822 53.6429,1.8822 L 4.7055,1.8822 C 4.7055,1.8822 3.7644,8.4699 3.7644,12.2343 C 3.7644,15.9988 3.7644,18.8221 4.7055,21.6454 L 4.7055,26.3509 L 53.6429,26.3509 Z " fill="none" stroke="none"/>
          <defs>
            <clipPath id="clip-1714636915">
              <path d="M 53.6429,26.3509 L 53.6429,21.6454 C 54.5840,18.8221 54.5840,15.9988 54.5840,12.2343 C 54.5840,8.4699 53.6429,1.8822 53.6429,1.8822 L 4.7055,1.8822 C 4.7055,1.8822 3.7644,8.4699 3.7644,12.2343 C 3.7644,15.9988 3.7644,18.8221 4.7055,21.6454 L 4.7055,26.3509 L 53.6429,26.3509 Z"/>
            </clipPath>
          </defs>
          <path clip-path="url(#clip-1714636915)" d="M 2.8233,0.9411 L 2.8233,25.4098 L 3.7644,25.4098 L 3.7644,0.9411 L 2.8233,0.9411 Z" stroke-width="1px" stroke="#4694D0" fill="#4694D0"/>
          <path clip-path="url(#clip-1714636915)" d="M 3.7644,0.9411 L 3.7644,25.4098 L 4.7055,25.4098 L 4.7055,0.9411 L 3.7644,0.9411 Z" stroke-width="1px" stroke="#4795D1" fill="#4795D1"/>
          <path clip-path="url(#clip-1714636915)" d="M 4.7055,0.9411 L 4.7055,25.4098 L 5.6466,25.4098 L 5.6466,0.9411 L 4.7055,0.9411 Z" stroke-width="1px" stroke="#4897D2" fill="#4897D2"/>
          <path clip-path="url(#clip-1714636915)" d="M 5.6466,0.9411 L 5.6466,25.4098 L 6.5877,25.4098 L 6.5877,0.9411 L 5.6466,0.9411 Z" stroke-width="1px" stroke="#4998D3" fill="#4998D3"/>
          <path clip-path="url(#clip-1714636915)" d="M 6.5877,0.9411 L 6.5877,25.4098 L 7.5288,25.4098 L 7.5288,0.9411 L 6.5877,0.9411 Z" stroke-width="1px" stroke="#4A9AD3" fill="#4A9AD3"/>
          <path clip-path="url(#clip-1714636915)" d="M 7.5288,0.9411 L 7.5288,25.4098 L 8.4699,25.4098 L 8.4699,0.9411 L 7.5288,0.9411 Z" stroke-width="1px" stroke="#4B9BD4" fill="#4B9BD4"/>
          <path clip-path="url(#clip-1714636915)" d="M 8.4699,0.9411 L 8.4699,25.4098 L 9.4110,25.4098 L 9.4110,0.9411 L 8.4699,0.9411 Z" stroke-width="1px" stroke="#4C9DD5" fill="#4C9DD5"/>
          <path clip-path="url(#clip-1714636915)" d="M 9.4110,0.9411 L 9.4110,25.4098 L 10.3521,25.4098 L 10.3521,0.9411 L 9.4110,0.9411 Z" stroke-width="1px" stroke="#4D9ED6" fill="#4D9ED6"/>
          <path clip-path="url(#clip-1714636915)" d="M 10.3521,0.9411 L 10.3521,25.4098 L 11.2932,25.4098 L 11.2932,0.9411 L 10.3521,0.9411 Z" stroke-width="1px" stroke="#4E9FD7" fill="#4E9FD7"/>
          <path clip-path="url(#clip-1714636915)" d="M 11.2932,0.9411 L 11.2932,25.4098 L 12.2343,25.4098 L 12.2343,0.9411 L 11.2932,0.9411 Z" stroke-width="1px" stroke="#4FA0D8" fill="#4FA0D8"/>
          <path clip-path="url(#clip-1714636915)" d="M 12.2343,0.9411 L 12.2343,25.4098 L 13.1754,25.4098 L 13.1754,0.9411 L 12.2343,0.9411 Z" stroke-width="1px" stroke="#50A2D9" fill="#50A2D9"/>
          <path clip-path="url(#clip-1714636915)" d="M 13.1754,0.9411 L 13.1754,25.4098 L 14.1166,25.4098 L 14.1166,0.9411 L 13.1754,0.9411 Z" stroke-width="1px" stroke="#51A3DA" fill="#51A3DA"/>
          <path clip-path="url(#clip-1714636915)" d="M 14.1166,0.9411 L 14.1166,25.4098 L 15.0577,25.4098 L 15.0577,0.9411 L 14.1166,0.9411 Z" stroke-width="1px" stroke="#52A4DB" fill="#52A4DB"/>
          <path clip-path="url(#clip-1714636915)" d="M 15.0577,0.9411 L 15.0577,25.4098 L 15.9988,25.4098 L 15.9988,0.9411 L 15.0577,0.9411 Z" stroke-width="1px" stroke="#53A6DC" fill="#53A6DC"/>
          <path clip-path="url(#clip-1714636915)" d="M 15.9988,0.9411 L 15.9988,25.4098 L 16.9399,25.4098 L 16.9399,0.9411 L 15.9988,0.9411 Z" stroke-width="1px" stroke="#54A7DD" fill="#54A7DD"/>
          <path clip-path="url(#clip-1714636915)" d="M 16.9399,0.9411 L 16.9399,25.4098 L 17.8810,25.4098 L 17.8810,0.9411 L 16.9399,0.9411 Z" stroke-width="1px" stroke="#55A9DE" fill="#55A9DE"/>
          <path clip-path="url(#clip-1714636915)" d="M 17.8810,0.9411 L 17.8810,25.4098 L 18.8221,25.4098 L 18.8221,0.9411 L 17.8810,0.9411 Z" stroke-width="1px" stroke="#56AADF" fill="#56AADF"/>
          <path clip-path="url(#clip-1714636915)" d="M 18.8221,0.9411 L 18.8221,25.4098 L 19.7632,25.4098 L 19.7632,0.9411 L 18.8221,0.9411 Z" stroke-width="1px" stroke="#57ACE0" fill="#57ACE0"/>
          <path clip-path="url(#clip-1714636915)" d="M 19.7632,0.9411 L 19.7632,25.4098 L 20.7043,25.4098 L 20.7043,0.9411 L 19.7632,0.9411 Z" stroke-width="1px" stroke="#58ADE1" fill="#58ADE1"/>
          <path clip-path="url(#clip-1714636915)" d="M 20.7043,0.9411 L 20.7043,25.4098 L 21.6454,25.4098 L 21.6454,0.9411 L 20.7043,0.9411 Z" stroke-width="1px" stroke="#59AFE2" fill="#59AFE2"/>
          <path clip-path="url(#clip-1714636915)" d="M 21.6454,0.9411 L 21.6454,25.4098 L 22.5865,25.4098 L 22.5865,0.9411 L 21.6454,0.9411 Z" stroke-width="1px" stroke="#59B0E2" fill="#59B0E2"/>
          <path clip-path="url(#clip-1714636915)" d="M 22.5865,0.9411 L 22.5865,25.4098 L 23.5276,25.4098 L 23.5276,0.9411 L 22.5865,0.9411 Z" stroke-width="1px" stroke="#5AB1E3" fill="#5AB1E3"/>
          <path clip-path="url(#clip-1714636915)" d="M 23.5276,0.9411 L 23.5276,25.4098 L 24.4687,25.4098 L 24.4687,0.9411 L 23.5276,0.9411 Z" stroke-width="1px" stroke="#5CB3E4" fill="#5CB3E4"/>
          <path clip-path="url(#clip-1714636915)" d="M 24.4687,0.9411 L 24.4687,25.4098 L 25.4098,25.4098 L 25.4098,0.9411 L 24.4687,0.9411 Z" stroke-width="1px" stroke="#5DB4E5" fill="#5DB4E5"/>
          <path clip-path="url(#clip-1714636915)" d="M 25.4098,0.9411 L 25.4098,25.4098 L 26.3509,25.4098 L 26.3509,0.9411 L 25.4098,0.9411 Z" stroke-width="1px" stroke="#5EB5E6" fill="#5EB5E6"/>
          <path clip-path="url(#clip-1714636915)" d="M 26.3509,0.9411 L 26.3509,25.4098 L 27.2920,25.4098 L 27.2920,0.9411 L 26.3509,0.9411 Z" stroke-width="1px" stroke="#5FB6E7" fill="#5FB6E7"/>
          <path clip-path="url(#clip-1714636915)" d="M 27.2920,0.9411 L 27.2920,25.4098 L 28.2331,25.4098 L 28.2331,0.9411 L 27.2920,0.9411 Z" stroke-width="1px" stroke="#60B8E8" fill="#60B8E8"/>
          <path clip-path="url(#clip-1714636915)" d="M 28.2331,0.9411 L 28.2331,25.4098 L 30.1153,25.4098 L 30.1153,0.9411 L 28.2331,0.9411 Z" stroke-width="1px" stroke="#61B9E9" fill="#61B9E9"/>
          <path clip-path="url(#clip-1714636915)" d="M 30.1153,0.9411 L 30.1153,25.4098 L 31.0564,25.4098 L 31.0564,0.9411 L 30.1153,0.9411 Z" stroke-width="1px" stroke="#60B8E8" fill="#60B8E8"/>
          <path clip-path="url(#clip-1714636915)" d="M 31.0564,0.9411 L 31.0564,25.4098 L 31.9975,25.4098 L 31.9975,0.9411 L 31.0564,0.9411 Z" stroke-width="1px" stroke="#5FB6E7" fill="#5FB6E7"/>
          <path clip-path="url(#clip-1714636915)" d="M 31.9975,0.9411 L 31.9975,25.4098 L 32.9386,25.4098 L 32.9386,0.9411 L 31.9975,0.9411 Z" stroke-width="1px" stroke="#5EB5E6" fill="#5EB5E6"/>
          <path clip-path="url(#clip-1714636915)" d="M 32.9386,0.9411 L 32.9386,25.4098 L 33.8797,25.4098 L 33.8797,0.9411 L 32.9386,0.9411 Z" stroke-width="1px" stroke="#5DB4E5" fill="#5DB4E5"/>
          <path clip-path="url(#clip-1714636915)" d="M 33.8797,0.9411 L 33.8797,25.4098 L 34.8208,25.4098 L 34.8208,0.9411 L 33.8797,0.9411 Z" stroke-width="1px" stroke="#5CB3E4" fill="#5CB3E4"/>
          <path clip-path="url(#clip-1714636915)" d="M 34.8208,0.9411 L 34.8208,25.4098 L 35.7619,25.4098 L 35.7619,0.9411 L 34.8208,0.9411 Z" stroke-width="1px" stroke="#5AB1E3" fill="#5AB1E3"/>
          <path clip-path="url(#clip-1714636915)" d="M 35.7619,0.9411 L 35.7619,25.4098 L 36.7030,25.4098 L 36.7030,0.9411 L 35.7619,0.9411 Z" stroke-width="1px" stroke="#59B0E2" fill="#59B0E2"/>
          <path clip-path="url(#clip-1714636915)" d="M 36.7030,0.9411 L 36.7030,25.4098 L 37.6441,25.4098 L 37.6441,0.9411 L 36.7030,0.9411 Z" stroke-width="1px" stroke="#59AFE2" fill="#59AFE2"/>
          <path clip-path="url(#clip-1714636915)" d="M 37.6441,0.9411 L 37.6441,25.4098 L 38.5852,25.4098 L 38.5852,0.9411 L 37.6441,0.9411 Z" stroke-width="1px" stroke="#58ADE1" fill="#58ADE1"/>
          <path clip-path="url(#clip-1714636915)" d="M 38.5852,0.9411 L 38.5852,25.4098 L 39.5263,25.4098 L 39.5263,0.9411 L 38.5852,0.9411 Z" stroke-width="1px" stroke="#57ACE0" fill="#57ACE0"/>
          <path clip-path="url(#clip-1714636915)" d="M 39.5263,0.9411 L 39.5263,25.4098 L 40.4674,25.4098 L 40.4674,0.9411 L 39.5263,0.9411 Z" stroke-width="1px" stroke="#56AADF" fill="#56AADF"/>
          <path clip-path="url(#clip-1714636915)" d="M 40.4674,0.9411 L 40.4674,25.4098 L 41.4085,25.4098 L 41.4085,0.9411 L 40.4674,0.9411 Z" stroke-width="1px" stroke="#55A9DE" fill="#55A9DE"/>
          <path clip-path="url(#clip-1714636915)" d="M 41.4085,0.9411 L 41.4085,25.4098 L 42.3496,25.4098 L 42.3496,0.9411 L 41.4085,0.9411 Z" stroke-width="1px" stroke="#54A7DD" fill="#54A7DD"/>
          <path clip-path="url(#clip-1714636915)" d="M 42.3496,0.9411 L 42.3496,25.4098 L 43.2908,25.4098 L 43.2908,0.9411 L 42.3496,0.9411 Z" stroke-width="1px" stroke="#53A6DC" fill="#53A6DC"/>
          <path clip-path="url(#clip-1714636915)" d="M 43.2908,0.9411 L 43.2908,25.4098 L 44.2319,25.4098 L 44.2319,0.9411 L 43.2908,0.9411 Z" stroke-width="1px" stroke="#52A4DB" fill="#52A4DB"/>
          <path clip-path="url(#clip-1714636915)" d="M 44.2319,0.9411 L 44.2319,25.4098 L 45.1730,25.4098 L 45.1730,0.9411 L 44.2319,0.9411 Z" stroke-width="1px" stroke="#51A3DA" fill="#51A3DA"/>
          <path clip-path="url(#clip-1714636915)" d="M 45.1730,0.9411 L 45.1730,25.4098 L 46.1141,25.4098 L 46.1141,0.9411 L 45.1730,0.9411 Z" stroke-width="1px" stroke="#50A2D9" fill="#50A2D9"/>
          <path clip-path="url(#clip-1714636915)" d="M 46.1141,0.9411 L 46.1141,25.4098 L 47.0552,25.4098 L 47.0552,0.9411 L 46.1141,0.9411 Z" stroke-width="1px" stroke="#4FA0D8" fill="#4FA0D8"/>
          <path clip-path="url(#clip-1714636915)" d="M 47.0552,0.9411 L 47.0552,25.4098 L 47.9963,25.4098 L 47.9963,0.9411 L 47.0552,0.9411 Z" stroke-width="1px" stroke="#4E9FD7" fill="#4E9FD7"/>
          <path clip-path="url(#clip-1714636915)" d="M 47.9963,0.9411 L 47.9963,25.4098 L 48.9374,25.4098 L 48.9374,0.9411 L 47.9963,0.9411 Z" stroke-width="1px" stroke="#4D9ED6" fill="#4D9ED6"/>
          <path clip-path="url(#clip-1714636915)" d="M 48.9374,0.9411 L 48.9374,25.4098 L 49.8785,25.4098 L 49.8785,0.9411 L 48.9374,0.9411 Z" stroke-width="1px" stroke="#4C9DD5" fill="#4C9DD5"/>
          <path clip-path="url(#clip-1714636915)" d="M 49.8785,0.9411 L 49.8785,25.4098 L 50.8196,25.4098 L 50.8196,0.9411 L 49.8785,0.9411 Z" stroke-width="1px" stroke="#4B9BD4" fill="#4B9BD4"/>
          <path clip-path="url(#clip-1714636915)" d="M 50.8196,0.9411 L 50.8196,25.4098 L 51.7607,25.4098 L 51.7607,0.9411 L 50.8196,0.9411 Z" stroke-width="1px" stroke="#4A9AD3" fill="#4A9AD3"/>
          <path clip-path="url(#clip-1714636915)" d="M 51.7607,0.9411 L 51.7607,25.4098 L 52.7018,25.4098 L 52.7018,0.9411 L 51.7607,0.9411 Z" stroke-width="1px" stroke="#4998D3" fill="#4998D3"/>
          <path clip-path="url(#clip-1714636915)" d="M 52.7018,0.9411 L 52.7018,25.4098 L 53.6429,25.4098 L 53.6429,0.9411 L 52.7018,0.9411 Z" stroke-width="1px" stroke="#4897D2" fill="#4897D2"/>
          <path clip-path="url(#clip-1714636915)" d="M 53.6429,0.9411 L 53.6429,25.4098 L 54.5840,25.4098 L 54.5840,0.9411 L 53.6429,0.9411 Z" stroke-width="1px" stroke="#4795D1" fill="#4795D1"/>
        </g>
        <g transform="matrix(0.0625 0.0000 0.0000 0.0625 0.0000 0.0000)">
          <path d="M 858.2862,407.4977 L 858.2862,333.1506 C 867.6973,295.5064 873.3439,242.8047 873.3439,184.4563 C 873.3439,125.1667 858.2862,18.8221 858.2862,18.8221 L 62.1128,18.8221 C 62.1128,18.8221 47.0552,125.1667 47.0552,184.4563 C 47.0552,242.8047 52.7018,296.4475 62.1128,333.1506 L 62.1128,407.4977 L 858.2862,407.4977 " stroke="#0054A6" stroke-width="9.4110" stroke-linecap="round" stroke-linejoin="round" fill="none"/>
        </g>
        <g transform="matrix(1.0000 0.0000 0.0000 1.0000 0.0000 0.0000)">
</g>
        <g transform="matrix(0.0625 0.0000 0.0000 0.0625 0.0000 0.0000)">
          <path d="M 699.2398,329.3862 L 699.2398,352.9137 L 794.2912,352.9137 L 794.2912,329.3862 L 699.2398,329.3862 Z" stroke-width="1px" stroke="#8DC63F" fill="#8DC63F"/>
        </g>
        <g transform="matrix(1.0000 0.0000 0.0000 1.0000 0.0000 0.0000)">
</g>
        <g transform="matrix(0.0625 0.0000 0.0000 0.0625 0.0000 0.0000)">
          <path d="M 794.2912,352.9137 L 699.2398,352.9137 L 699.2398,329.3862 L 794.2912,329.3862 L 794.2912,352.9137 Z" stroke="#0054A6" stroke-width="7.5288" stroke-linecap="round" stroke-linejoin="round" fill="none"/>
        </g>
        <g transform="matrix(1.0000 0.0000 0.0000 1.0000 0.0000 0.0000)">
          <path d="M 49.8785,3.7644 C 49.8785,3.7644 47.9963,3.7644 46.1141,3.7644 C 43.2908,3.7644 40.4674,4.7055 40.4674,4.7055 C 40.4674,4.7055 31.9975,3.7644 28.2331,3.7644 C 24.4687,3.7644 8.4699,3.7644 8.4699,3.7644 C 8.4699,3.7644 7.5288,8.4699 7.5288,11.2932 C 7.5288,14.1166 7.5288,17.8810 8.4699,19.7632 C 8.4699,19.7632 21.6454,20.7043 31.0564,20.7043 C 36.7030,20.7043 43.2908,17.8810 43.2908,17.8810 L 49.8785,17.8810 C 50.8196,15.9988 50.8196,14.1166 50.8196,11.2932 C 50.8196,8.4699 49.8785,3.7644 49.8785,3.7644 Z " fill="none" stroke="none"/>
          <defs>
            <clipPath id="clip-1957747793">
              <path d="M 49.8785,3.7644 C 49.8785,3.7644 47.9963,3.7644 46.1141,3.7644 C 43.2908,3.7644 40.4674,4.7055 40.4674,4.7055 C 40.4674,4.7055 31.9975,3.7644 28.2331,3.7644 C 24.4687,3.7644 8.4699,3.7644 8.4699,3.7644 C 8.4699,3.7644 7.5288,8.4699 7.5288,11.2932 C 7.5288,14.1166 7.5288,17.8810 8.4699,19.7632 C 8.4699,19.7632 21.6454,20.7043 31.0564,20.7043 C 36.7030,20.7043 43.2908,17.8810 43.2908,17.8810 L 49.8785,17.8810 C 50.8196,15.9988 50.8196,14.1166 50.8196,11.2932 C 50.8196,8.4699 49.8785,3.7644 49.8785,3.7644 Z"/>
            </clipPath>
          </defs>
          <path clip-path="url(#clip-1957747793)" d="M 6.5877,2.8233 L 6.5877,19.7632 L 7.5288,19.7632 L 7.5288,2.8233 L 6.5877,2.8233 Z" stroke-width="1px" stroke="#59BCEC" fill="#59BCEC"/>
          <path clip-path="url(#clip-1957747793)" d="M 7.5288,2.8233 L 7.5288,19.7632 L 8.4699,19.7632 L 8.4699,2.8233 L 7.5288,2.8233 Z" stroke-width="1px" stroke="#016BAD" fill="#016BAD"/>
          <path clip-path="url(#clip-1957747793)" d="M 8.4699,2.8233 L 8.4699,19.7632 L 9.4110,19.7632 L 9.4110,2.8233 L 8.4699,2.8233 Z" stroke-width="1px" stroke="#036DAE" fill="#036DAE"/>
          <path clip-path="url(#clip-1957747793)" d="M 9.4110,2.8233 L 9.4110,19.7632 L 10.3521,19.7632 L 10.3521,2.8233 L 9.4110,2.8233 Z" stroke-width="1px" stroke="#066FB0" fill="#066FB0"/>
          <path clip-path="url(#clip-1957747793)" d="M 10.3521,2.8233 L 10.3521,19.7632 L 11.2932,19.7632 L 11.2932,2.8233 L 10.3521,2.8233 Z" stroke-width="1px" stroke="#0770B1" fill="#0770B1"/>
          <path clip-path="url(#clip-1957747793)" d="M 11.2932,2.8233 L 11.2932,19.7632 L 12.2343,19.7632 L 12.2343,2.8233 L 11.2932,2.8233 Z" stroke-width="1px" stroke="#0972B2" fill="#0972B2"/>
          <path clip-path="url(#clip-1957747793)" d="M 12.2343,2.8233 L 12.2343,19.7632 L 13.1754,19.7632 L 13.1754,2.8233 L 12.2343,2.8233 Z" stroke-width="1px" stroke="#0B74B4" fill="#0B74B4"/>
          <path clip-path="url(#clip-1957747793)" d="M 13.1754,2.8233 L 13.1754,19.7632 L 14.1166,19.7632 L 14.1166,2.8233 L 13.1754,2.8233 Z" stroke-width="1px" stroke="#0D76B5" fill="#0D76B5"/>
          <path clip-path="url(#clip-1957747793)" d="M 14.1166,2.8233 L 14.1166,19.7632 L 15.0577,19.7632 L 15.0577,2.8233 L 14.1166,2.8233 Z" stroke-width="1px" stroke="#0F78B7" fill="#0F78B7"/>
          <path clip-path="url(#clip-1957747793)" d="M 15.0577,2.8233 L 15.0577,19.7632 L 15.9988,19.7632 L 15.9988,2.8233 L 15.0577,2.8233 Z" stroke-width="1px" stroke="#117AB8" fill="#117AB8"/>
          <path clip-path="url(#clip-1957747793)" d="M 15.9988,2.8233 L 15.9988,19.7632 L 16.9399,19.7632 L 16.9399,2.8233 L 15.9988,2.8233 Z" stroke-width="1px" stroke="#137CB9" fill="#137CB9"/>
          <path clip-path="url(#clip-1957747793)" d="M 16.9399,2.8233 L 16.9399,19.7632 L 17.8810,19.7632 L 17.8810,2.8233 L 16.9399,2.8233 Z" stroke-width="1px" stroke="#157DBB" fill="#157DBB"/>
          <path clip-path="url(#clip-1957747793)" d="M 17.8810,2.8233 L 17.8810,19.7632 L 18.8221,19.7632 L 18.8221,2.8233 L 17.8810,2.8233 Z" stroke-width="1px" stroke="#177FBC" fill="#177FBC"/>
          <path clip-path="url(#clip-1957747793)" d="M 18.8221,2.8233 L 18.8221,19.7632 L 19.7632,19.7632 L 19.7632,2.8233 L 18.8221,2.8233 Z" stroke-width="1px" stroke="#1981BD" fill="#1981BD"/>
          <path clip-path="url(#clip-1957747793)" d="M 19.7632,2.8233 L 19.7632,19.7632 L 20.7043,19.7632 L 20.7043,2.8233 L 19.7632,2.8233 Z" stroke-width="1px" stroke="#1B83BF" fill="#1B83BF"/>
          <path clip-path="url(#clip-1957747793)" d="M 20.7043,2.8233 L 20.7043,19.7632 L 21.6454,19.7632 L 21.6454,2.8233 L 20.7043,2.8233 Z" stroke-width="1px" stroke="#1C84C0" fill="#1C84C0"/>
          <path clip-path="url(#clip-1957747793)" d="M 21.6454,2.8233 L 21.6454,19.7632 L 22.5865,19.7632 L 22.5865,2.8233 L 21.6454,2.8233 Z" stroke-width="1px" stroke="#1E86C2" fill="#1E86C2"/>
          <path clip-path="url(#clip-1957747793)" d="M 22.5865,2.8233 L 22.5865,19.7632 L 23.5276,19.7632 L 23.5276,2.8233 L 22.5865,2.8233 Z" stroke-width="1px" stroke="#2188C3" fill="#2188C3"/>
          <path clip-path="url(#clip-1957747793)" d="M 23.5276,2.8233 L 23.5276,19.7632 L 24.4687,19.7632 L 24.4687,2.8233 L 23.5276,2.8233 Z" stroke-width="1px" stroke="#2289C4" fill="#2289C4"/>
          <path clip-path="url(#clip-1957747793)" d="M 24.4687,2.8233 L 24.4687,19.7632 L 25.4098,19.7632 L 25.4098,2.8233 L 24.4687,2.8233 Z" stroke-width="1px" stroke="#248BC6" fill="#248BC6"/>
          <path clip-path="url(#clip-1957747793)" d="M 25.4098,2.8233 L 25.4098,19.7632 L 26.3509,19.7632 L 26.3509,2.8233 L 25.4098,2.8233 Z" stroke-width="1px" stroke="#268DC7" fill="#268DC7"/>
          <path clip-path="url(#clip-1957747793)" d="M 26.3509,2.8233 L 26.3509,19.7632 L 27.2920,19.7632 L 27.2920,2.8233 L 26.3509,2.8233 Z" stroke-width="1px" stroke="#288FC9" fill="#288FC9"/>
          <path clip-path="url(#clip-1957747793)" d="M 27.2920,2.8233 L 27.2920,19.7632 L 28.2331,19.7632 L 28.2331,2.8233 L 27.2920,2.8233 Z" stroke-width="1px" stroke="#2A91CA" fill="#2A91CA"/>
          <path clip-path="url(#clip-1957747793)" d="M 28.2331,2.8233 L 28.2331,19.7632 L 29.1742,19.7632 L 29.1742,2.8233 L 28.2331,2.8233 Z" stroke-width="1px" stroke="#2C93CB" fill="#2C93CB"/>
          <path clip-path="url(#clip-1957747793)" d="M 29.1742,2.8233 L 29.1742,19.7632 L 30.1153,19.7632 L 30.1153,2.8233 L 29.1742,2.8233 Z" stroke-width="1px" stroke="#2E95CD" fill="#2E95CD"/>
          <path clip-path="url(#clip-1957747793)" d="M 30.1153,2.8233 L 30.1153,19.7632 L 31.0564,19.7632 L 31.0564,2.8233 L 30.1153,2.8233 Z" stroke-width="1px" stroke="#3097CE" fill="#3097CE"/>
          <path clip-path="url(#clip-1957747793)" d="M 31.0564,2.8233 L 31.0564,19.7632 L 31.9975,19.7632 L 31.9975,2.8233 L 31.0564,2.8233 Z" stroke-width="1px" stroke="#3298CF" fill="#3298CF"/>
          <path clip-path="url(#clip-1957747793)" d="M 31.9975,2.8233 L 31.9975,19.7632 L 32.9386,19.7632 L 32.9386,2.8233 L 31.9975,2.8233 Z" stroke-width="1px" stroke="#349AD1" fill="#349AD1"/>
          <path clip-path="url(#clip-1957747793)" d="M 32.9386,2.8233 L 32.9386,19.7632 L 33.8797,19.7632 L 33.8797,2.8233 L 32.9386,2.8233 Z" stroke-width="1px" stroke="#369CD2" fill="#369CD2"/>
          <path clip-path="url(#clip-1957747793)" d="M 33.8797,2.8233 L 33.8797,19.7632 L 34.8208,19.7632 L 34.8208,2.8233 L 33.8797,2.8233 Z" stroke-width="1px" stroke="#379DD4" fill="#379DD4"/>
          <path clip-path="url(#clip-1957747793)" d="M 34.8208,2.8233 L 34.8208,19.7632 L 35.7619,19.7632 L 35.7619,2.8233 L 34.8208,2.8233 Z" stroke-width="1px" stroke="#399FD5" fill="#399FD5"/>
          <path clip-path="url(#clip-1957747793)" d="M 35.7619,2.8233 L 35.7619,19.7632 L 36.7030,19.7632 L 36.7030,2.8233 L 35.7619,2.8233 Z" stroke-width="1px" stroke="#3BA1D6" fill="#3BA1D6"/>
          <path clip-path="url(#clip-1957747793)" d="M 36.7030,2.8233 L 36.7030,19.7632 L 37.6441,19.7632 L 37.6441,2.8233 L 36.7030,2.8233 Z" stroke-width="1px" stroke="#3EA3D8" fill="#3EA3D8"/>
          <path clip-path="url(#clip-1957747793)" d="M 37.6441,2.8233 L 37.6441,19.7632 L 38.5852,19.7632 L 38.5852,2.8233 L 37.6441,2.8233 Z" stroke-width="1px" stroke="#40A4D9" fill="#40A4D9"/>
          <path clip-path="url(#clip-1957747793)" d="M 38.5852,2.8233 L 38.5852,19.7632 L 39.5263,19.7632 L 39.5263,2.8233 L 38.5852,2.8233 Z" stroke-width="1px" stroke="#42A6DA" fill="#42A6DA"/>
          <path clip-path="url(#clip-1957747793)" d="M 39.5263,2.8233 L 39.5263,19.7632 L 40.4674,19.7632 L 40.4674,2.8233 L 39.5263,2.8233 Z" stroke-width="1px" stroke="#44A8DC" fill="#44A8DC"/>
          <path clip-path="url(#clip-1957747793)" d="M 40.4674,2.8233 L 40.4674,19.7632 L 41.4085,19.7632 L 41.4085,2.8233 L 40.4674,2.8233 Z" stroke-width="1px" stroke="#46AADD" fill="#46AADD"/>
          <path clip-path="url(#clip-1957747793)" d="M 41.4085,2.8233 L 41.4085,19.7632 L 42.3496,19.7632 L 42.3496,2.8233 L 41.4085,2.8233 Z" stroke-width="1px" stroke="#47ABDF" fill="#47ABDF"/>
          <path clip-path="url(#clip-1957747793)" d="M 42.3496,2.8233 L 42.3496,19.7632 L 43.2908,19.7632 L 43.2908,2.8233 L 42.3496,2.8233 Z" stroke-width="1px" stroke="#49ADE0" fill="#49ADE0"/>
          <path clip-path="url(#clip-1957747793)" d="M 43.2908,2.8233 L 43.2908,19.7632 L 44.2319,19.7632 L 44.2319,2.8233 L 43.2908,2.8233 Z" stroke-width="1px" stroke="#4BAFE1" fill="#4BAFE1"/>
          <path clip-path="url(#clip-1957747793)" d="M 44.2319,2.8233 L 44.2319,19.7632 L 45.1730,19.7632 L 45.1730,2.8233 L 44.2319,2.8233 Z" stroke-width="1px" stroke="#4DB1E3" fill="#4DB1E3"/>
          <path clip-path="url(#clip-1957747793)" d="M 45.1730,2.8233 L 45.1730,19.7632 L 46.1141,19.7632 L 46.1141,2.8233 L 45.1730,2.8233 Z" stroke-width="1px" stroke="#4FB3E4" fill="#4FB3E4"/>
          <path clip-path="url(#clip-1957747793)" d="M 46.1141,2.8233 L 46.1141,19.7632 L 47.0552,19.7632 L 47.0552,2.8233 L 46.1141,2.8233 Z" stroke-width="1px" stroke="#51B5E5" fill="#51B5E5"/>
          <path clip-path="url(#clip-1957747793)" d="M 47.0552,2.8233 L 47.0552,19.7632 L 47.9963,19.7632 L 47.9963,2.8233 L 47.0552,2.8233 Z" stroke-width="1px" stroke="#53B7E7" fill="#53B7E7"/>
          <path clip-path="url(#clip-1957747793)" d="M 47.9963,2.8233 L 47.9963,19.7632 L 48.9374,19.7632 L 48.9374,2.8233 L 47.9963,2.8233 Z" stroke-width="1px" stroke="#54B8E8" fill="#54B8E8"/>
          <path clip-path="url(#clip-1957747793)" d="M 48.9374,2.8233 L 48.9374,19.7632 L 49.8785,19.7632 L 49.8785,2.8233 L 48.9374,2.8233 Z" stroke-width="1px" stroke="#56BAEA" fill="#56BAEA"/>
          <path clip-path="url(#clip-1957747793)" d="M 49.8785,2.8233 L 49.8785,19.7632 L 50.8196,19.7632 L 50.8196,2.8233 L 49.8785,2.8233 Z" stroke-width="1px" stroke="#59BCEB" fill="#59BCEB"/>
        </g>
        <g transform="matrix(0.0625 0.0000 0.0000 0.0625 0.0000 0.0000)">
          <path d="M 103.5214,170.3397 C 103.5214,124.2256 115.7557,59.2895 116.6968,59.2895 L 117.6379,52.7018 L 123.2845,52.7018 C 123.2845,52.7018 383.9702,47.0552 447.0241,47.0552 C 506.3136,47.0552 630.5392,59.2895 644.6558,60.2306 C 651.2435,58.3484 688.8876,48.9374 724.6496,47.9963 C 729.3551,47.9963 733.1195,47.9963 737.8250,47.9963 C 774.5280,47.9963 801.8200,51.7607 802.7611,52.7018 L 791.4679,68.7005 C 790.5268,69.6416 773.5869,63.9950 737.8250,63.9950 C 733.1195,63.9950 729.3551,63.9950 725.5907,63.9950 C 687.0054,65.8772 647.4791,77.1705 646.5380,77.1705 L 645.5969,77.1705 L 644.6558,77.1705 C 644.6558,77.1705 509.1369,63.0539 447.0241,63.0539 C 391.4990,63.0539 159.9876,67.7594 129.8723,68.7005 C 126.1078,85.6404 117.6379,135.5189 117.6379,170.3397 C 117.6379,215.5127 122.3434,270.0967 129.8723,296.4475 L 117.6379,309.6230 C 109.1680,279.5077 103.5214,216.4538 103.5214,170.3397 Z " fill="#0054A6" stroke="none"/>
        </g>
        <g transform="matrix(1.0000 0.0000 0.0000 1.0000 0.0000 0.0000)">
</g>
        <g transform="matrix(0.0625 0.0000 0.0000 0.0625 0.0000 0.0000)">
          <path d="M 103.5214,170.3397 C 103.5214,124.2256 115.7557,59.2895 116.6968,59.2895 L 117.6379,52.7018 L 123.2845,52.7018 C 123.2845,52.7018 383.9702,47.0552 447.0241,47.0552 C 506.3136,47.0552 630.5392,59.2895 644.6558,60.2306 C 651.2435,58.3484 688.8876,48.9374 724.6496,47.9963 C 729.3551,47.9963 733.1195,47.9963 737.8250,47.9963 C 774.5280,47.9963 801.8200,51.7607 802.7611,52.7018 L 791.4679,68.7005 C 790.5268,69.6416 773.5869,63.9950 737.8250,63.9950 C 733.1195,63.9950 729.3551,63.9950 725.5907,63.9950 C 687.0054,65.8772 647.4791,77.1705 646.5380,77.1705 L 645.5969,77.1705 L 644.6558,77.1705 C 644.6558,77.1705 509.1369,63.0539 447.0241,63.0539 C 391.4990,63.0539 159.9876,67.7594 129.8723,68.7005 C 126.1078,85.6404 117.6379,135.5189 117.6379,170.3397 C 117.6379,215.5127 122.3434,270.0967 129.8723,296.4475 L 117.6379,309.6230 C 109.1680,279.5077 103.5214,216.4538 103.5214,170.3397 Z " stroke="#0054A6" stroke-width="0.9411" stroke-linecap="butt" stroke-linejoin="round" fill="none"/>
        </g>
        <g transform="matrix(1.0000 0.0000 0.0000 1.0000 0.0000 0.0000)">
          <path d="M 7.5288,19.7632 L 8.4699,18.8221 C 10.3521,18.8221 23.5276,19.7632 31.0564,19.7632 C 33.8797,19.7632 36.7030,19.7632 38.5852,18.8221 C 41.4085,17.8810 42.3496,17.8810 42.3496,17.8810 L 43.2908,17.8810 L 49.8785,17.8810 C 49.8785,15.9988 50.8196,14.1166 50.8196,11.2932 C 50.8196,8.4699 49.8785,4.7055 49.8785,4.7055 L 50.8196,3.7644 C 50.8196,3.7644 51.7607,8.4699 51.7607,11.2932 C 51.7607,14.1166 50.8196,16.9399 50.8196,18.8221 L 50.8196,18.8221 L 43.2908,18.8221 C 42.3496,18.8221 35.7619,20.7043 31.0564,20.7043 C 21.6454,20.7043 8.4699,19.7632 8.4699,19.7632 L 7.5288,19.7632 Z " fill="none" stroke="none"/>
          <defs>
            <clipPath id="clip-424238335">
              <path d="M 7.5288,19.7632 L 8.4699,18.8221 C 10.3521,18.8221 23.5276,19.7632 31.0564,19.7632 C 33.8797,19.7632 36.7030,19.7632 38.5852,18.8221 C 41.4085,17.8810 42.3496,17.8810 42.3496,17.8810 L 43.2908,17.8810 L 49.8785,17.8810 C 49.8785,15.9988 50.8196,14.1166 50.8196,11.2932 C 50.8196,8.4699 49.8785,4.7055 49.8785,4.7055 L 50.8196,3.7644 C 50.8196,3.7644 51.7607,8.4699 51.7607,11.2932 C 51.7607,14.1166 50.8196,16.9399 50.8196,18.8221 L 50.8196,18.8221 L 43.2908,18.8221 C 42.3496,18.8221 35.7619,20.7043 31.0564,20.7043 C 21.6454,20.7043 8.4699,19.7632 8.4699,19.7632 L 7.5288,19.7632 Z"/>
            </clipPath>
          </defs>
          <path clip-path="url(#clip-424238335)" d="M 6.5877,2.8233 L 6.5877,20.7043 L 7.5288,20.7043 L 7.5288,2.8233 L 6.5877,2.8233 Z" stroke-width="1px" stroke="#9C9C9C" fill="#9C9C9C"/>
          <path clip-path="url(#clip-424238335)" d="M 7.5288,2.8233 L 7.5288,20.7043 L 8.4699,20.7043 L 8.4699,2.8233 L 7.5288,2.8233 Z" stroke-width="1px" stroke="#9A9A9A" fill="#9A9A9A"/>
          <path clip-path="url(#clip-424238335)" d="M 8.4699,2.8233 L 8.4699,20.7043 L 9.4110,20.7043 L 9.4110,2.8233 L 8.4699,2.8233 Z" stroke-width="1px" stroke="#9D9D9D" fill="#9D9D9D"/>
          <path clip-path="url(#clip-424238335)" d="M 9.4110,2.8233 L 9.4110,20.7043 L 10.3521,20.7043 L 10.3521,2.8233 L 9.4110,2.8233 Z" stroke-width="1px" stroke="#9F9F9F" fill="#9F9F9F"/>
          <path clip-path="url(#clip-424238335)" d="M 10.3521,2.8233 L 10.3521,20.7043 L 11.2932,20.7043 L 11.2932,2.8233 L 10.3521,2.8233 Z" stroke-width="1px" stroke="#A1A1A1" fill="#A1A1A1"/>
          <path clip-path="url(#clip-424238335)" d="M 11.2932,2.8233 L 11.2932,20.7043 L 12.2343,20.7043 L 12.2343,2.8233 L 11.2932,2.8233 Z" stroke-width="1px" stroke="#A3A3A3" fill="#A3A3A3"/>
          <path clip-path="url(#clip-424238335)" d="M 12.2343,2.8233 L 12.2343,20.7043 L 13.1754,20.7043 L 13.1754,2.8233 L 12.2343,2.8233 Z" stroke-width="1px" stroke="#A6A6A6" fill="#A6A6A6"/>
          <path clip-path="url(#clip-424238335)" d="M 13.1754,2.8233 L 13.1754,20.7043 L 14.1166,20.7043 L 14.1166,2.8233 L 13.1754,2.8233 Z" stroke-width="1px" stroke="#A8A8A8" fill="#A8A8A8"/>
          <path clip-path="url(#clip-424238335)" d="M 14.1166,2.8233 L 14.1166,20.7043 L 15.0577,20.7043 L 15.0577,2.8233 L 14.1166,2.8233 Z" stroke-width="1px" stroke="#AAAAAA" fill="#AAAAAA"/>
          <path clip-path="url(#clip-424238335)" d="M 15.0577,2.8233 L 15.0577,20.7043 L 15.9988,20.7043 L 15.9988,2.8233 L 15.0577,2.8233 Z" stroke-width="1px" stroke="#ACACAC" fill="#ACACAC"/>
          <path clip-path="url(#clip-424238335)" d="M 15.9988,2.8233 L 15.9988,20.7043 L 16.9399,20.7043 L 16.9399,2.8233 L 15.9988,2.8233 Z" stroke-width="1px" stroke="#AEAEAE" fill="#AEAEAE"/>
          <path clip-path="url(#clip-424238335)" d="M 16.9399,2.8233 L 16.9399,20.7043 L 17.8810,20.7043 L 17.8810,2.8233 L 16.9399,2.8233 Z" stroke-width="1px" stroke="#B1B1B1" fill="#B1B1B1"/>
          <path clip-path="url(#clip-424238335)" d="M 17.8810,2.8233 L 17.8810,20.7043 L 18.8221,20.7043 L 18.8221,2.8233 L 17.8810,2.8233 Z" stroke-width="1px" stroke="#B3B3B3" fill="#B3B3B3"/>
          <path clip-path="url(#clip-424238335)" d="M 18.8221,2.8233 L 18.8221,20.7043 L 19.7632,20.7043 L 19.7632,2.8233 L 18.8221,2.8233 Z" stroke-width="1px" stroke="#B5B5B5" fill="#B5B5B5"/>
          <path clip-path="url(#clip-424238335)" d="M 19.7632,2.8233 L 19.7632,20.7043 L 20.7043,20.7043 L 20.7043,2.8233 L 19.7632,2.8233 Z" stroke-width="1px" stroke="#B7B7B7" fill="#B7B7B7"/>
          <path clip-path="url(#clip-424238335)" d="M 20.7043,2.8233 L 20.7043,20.7043 L 21.6454,20.7043 L 21.6454,2.8233 L 20.7043,2.8233 Z" stroke-width="1px" stroke="#B9B9B9" fill="#B9B9B9"/>
          <path clip-path="url(#clip-424238335)" d="M 21.6454,2.8233 L 21.6454,20.7043 L 22.5865,20.7043 L 22.5865,2.8233 L 21.6454,2.8233 Z" stroke-width="1px" stroke="#BCBCBC" fill="#BCBCBC"/>
          <path clip-path="url(#clip-424238335)" d="M 22.5865,2.8233 L 22.5865,20.7043 L 23.5276,20.7043 L 23.5276,2.8233 L 22.5865,2.8233 Z" stroke-width="1px" stroke="#BEBEBE" fill="#BEBEBE"/>
          <path clip-path="url(#clip-424238335)" d="M 23.5276,2.8233 L 23.5276,20.7043 L 24.4687,20.7043 L 24.4687,2.8233 L 23.5276,2.8233 Z" stroke-width="1px" stroke="#C0C0C0" fill="#C0C0C0"/>
          <path clip-path="url(#clip-424238335)" d="M 24.4687,2.8233 L 24.4687,20.7043 L 25.4098,20.7043 L 25.4098,2.8233 L 24.4687,2.8233 Z" stroke-width="1px" stroke="#C2C2C2" fill="#C2C2C2"/>
          <path clip-path="url(#clip-424238335)" d="M 25.4098,2.8233 L 25.4098,20.7043 L 26.3509,20.7043 L 26.3509,2.8233 L 25.4098,2.8233 Z" stroke-width="1px" stroke="#C4C4C4" fill="#C4C4C4"/>
          <path clip-path="url(#clip-424238335)" d="M 26.3509,2.8233 L 26.3509,20.7043 L 27.2920,20.7043 L 27.2920,2.8233 L 26.3509,2.8233 Z" stroke-width="1px" stroke="#C7C7C7" fill="#C7C7C7"/>
          <path clip-path="url(#clip-424238335)" d="M 27.2920,2.8233 L 27.2920,20.7043 L 28.2331,20.7043 L 28.2331,2.8233 L 27.2920,2.8233 Z" stroke-width="1px" stroke="#C9C9C9" fill="#C9C9C9"/>
          <path clip-path="url(#clip-424238335)" d="M 28.2331,2.8233 L 28.2331,20.7043 L 29.1742,20.7043 L 29.1742,2.8233 L 28.2331,2.8233 Z" stroke-width="1px" stroke="#CBCBCB" fill="#CBCBCB"/>
          <path clip-path="url(#clip-424238335)" d="M 29.1742,2.8233 L 29.1742,20.7043 L 30.1153,20.7043 L 30.1153,2.8233 L 29.1742,2.8233 Z" stroke-width="1px" stroke="#CDCDCD" fill="#CDCDCD"/>
          <path clip-path="url(#clip-424238335)" d="M 30.1153,2.8233 L 30.1153,20.7043 L 31.0564,20.7043 L 31.0564,2.8233 L 30.1153,2.8233 Z" stroke-width="1px" stroke="#CBCBCB" fill="#CBCBCB"/>
          <path clip-path="url(#clip-424238335)" d="M 31.0564,2.8233 L 31.0564,20.7043 L 31.9975,20.7043 L 31.9975,2.8233 L 31.0564,2.8233 Z" stroke-width="1px" stroke="#C9C9C9" fill="#C9C9C9"/>
          <path clip-path="url(#clip-424238335)" d="M 31.9975,2.8233 L 31.9975,20.7043 L 32.9386,20.7043 L 32.9386,2.8233 L 31.9975,2.8233 Z" stroke-width="1px" stroke="#C7C7C7" fill="#C7C7C7"/>
          <path clip-path="url(#clip-424238335)" d="M 32.9386,2.8233 L 32.9386,20.7043 L 33.8797,20.7043 L 33.8797,2.8233 L 32.9386,2.8233 Z" stroke-width="1px" stroke="#C4C4C4" fill="#C4C4C4"/>
          <path clip-path="url(#clip-424238335)" d="M 33.8797,2.8233 L 33.8797,20.7043 L 34.8208,20.7043 L 34.8208,2.8233 L 33.8797,2.8233 Z" stroke-width="1px" stroke="#C2C2C2" fill="#C2C2C2"/>
          <path clip-path="url(#clip-424238335)" d="M 34.8208,2.8233 L 34.8208,20.7043 L 35.7619,20.7043 L 35.7619,2.8233 L 34.8208,2.8233 Z" stroke-width="1px" stroke="#C0C0C0" fill="#C0C0C0"/>
          <path clip-path="url(#clip-424238335)" d="M 35.7619,2.8233 L 35.7619,20.7043 L 36.7030,20.7043 L 36.7030,2.8233 L 35.7619,2.8233 Z" stroke-width="1px" stroke="#BDBDBD" fill="#BDBDBD"/>
          <path clip-path="url(#clip-424238335)" d="M 36.7030,2.8233 L 36.7030,20.7043 L 37.6441,20.7043 L 37.6441,2.8233 L 36.7030,2.8233 Z" stroke-width="1px" stroke="#BBBBBB" fill="#BBBBBB"/>
          <path clip-path="url(#clip-424238335)" d="M 37.6441,2.8233 L 37.6441,20.7043 L 38.5852,20.7043 L 38.5852,2.8233 L 37.6441,2.8233 Z" stroke-width="1px" stroke="#B9B9B9" fill="#B9B9B9"/>
          <path clip-path="url(#clip-424238335)" d="M 38.5852,2.8233 L 38.5852,20.7043 L 39.5263,20.7043 L 39.5263,2.8233 L 38.5852,2.8233 Z" stroke-width="1px" stroke="#B7B7B7" fill="#B7B7B7"/>
          <path clip-path="url(#clip-424238335)" d="M 39.5263,2.8233 L 39.5263,20.7043 L 40.4674,20.7043 L 40.4674,2.8233 L 39.5263,2.8233 Z" stroke-width="1px" stroke="#B5B5B5" fill="#B5B5B5"/>
          <path clip-path="url(#clip-424238335)" d="M 40.4674,2.8233 L 40.4674,20.7043 L 41.4085,20.7043 L 41.4085,2.8233 L 40.4674,2.8233 Z" stroke-width="1px" stroke="#B3B3B3" fill="#B3B3B3"/>
          <path clip-path="url(#clip-424238335)" d="M 41.4085,2.8233 L 41.4085,20.7043 L 42.3496,20.7043 L 42.3496,2.8233 L 41.4085,2.8233 Z" stroke-width="1px" stroke="#B1B1B1" fill="#B1B1B1"/>
          <path clip-path="url(#clip-424238335)" d="M 42.3496,2.8233 L 42.3496,20.7043 L 43.2908,20.7043 L 43.2908,2.8233 L 42.3496,2.8233 Z" stroke-width="1px" stroke="#AEAEAE" fill="#AEAEAE"/>
          <path clip-path="url(#clip-424238335)" d="M 43.2908,2.8233 L 43.2908,20.7043 L 44.2319,20.7043 L 44.2319,2.8233 L 43.2908,2.8233 Z" stroke-width="1px" stroke="#ACACAC" fill="#ACACAC"/>
          <path clip-path="url(#clip-424238335)" d="M 44.2319,2.8233 L 44.2319,20.7043 L 45.1730,20.7043 L 45.1730,2.8233 L 44.2319,2.8233 Z" stroke-width="1px" stroke="#AAAAAA" fill="#AAAAAA"/>
          <path clip-path="url(#clip-424238335)" d="M 45.1730,2.8233 L 45.1730,20.7043 L 46.1141,20.7043 L 46.1141,2.8233 L 45.1730,2.8233 Z" stroke-width="1px" stroke="#A8A8A8" fill="#A8A8A8"/>
          <path clip-path="url(#clip-424238335)" d="M 46.1141,2.8233 L 46.1141,20.7043 L 47.0552,20.7043 L 47.0552,2.8233 L 46.1141,2.8233 Z" stroke-width="1px" stroke="#A6A6A6" fill="#A6A6A6"/>
          <path clip-path="url(#clip-424238335)" d="M 47.0552,2.8233 L 47.0552,20.7043 L 47.9963,20.7043 L 47.9963,2.8233 L 47.0552,2.8233 Z" stroke-width="1px" stroke="#A3A3A3" fill="#A3A3A3"/>
          <path clip-path="url(#clip-424238335)" d="M 47.9963,2.8233 L 47.9963,20.7043 L 48.9374,20.7043 L 48.9374,2.8233 L 47.9963,2.8233 Z" stroke-width="1px" stroke="#A1A1A1" fill="#A1A1A1"/>
          <path clip-path="url(#clip-424238335)" d="M 48.9374,2.8233 L 48.9374,20.7043 L 49.8785,20.7043 L 49.8785,2.8233 L 48.9374,2.8233 Z" stroke-width="1px" stroke="#9F9F9F" fill="#9F9F9F"/>
          <path clip-path="url(#clip-424238335)" d="M 49.8785,2.8233 L 49.8785,20.7043 L 50.8196,20.7043 L 50.8196,2.8233 L 49.8785,2.8233 Z" stroke-width="1px" stroke="#9C9C9C" fill="#9C9C9C"/>
        </g>
        <g transform="matrix(0.0625 0.0000 0.0000 0.0625 0.0000 0.0000)">
          <path d="M 117.6379,309.6230 L 129.8723,295.5064 C 155.2820,298.3298 362.3248,313.3874 482.7860,313.3874 C 528.9001,313.3874 577.8374,303.9764 615.4816,295.5064 C 652.1846,286.0954 677.5944,277.6255 678.5355,277.6255 L 679.4766,276.6844 L 791.4679,276.6844 C 798.0556,249.3924 801.8200,212.6894 801.8200,171.2808 C 801.8200,127.0489 791.4679,69.6416 791.4679,68.7005 L 802.7611,52.7018 C 802.7611,52.7018 816.8777,124.2256 816.8777,171.2808 C 816.8777,216.4538 811.2311,257.8623 803.7022,287.9776 L 801.8200,293.6242 L 681.3588,293.6242 C 670.0656,297.3887 572.1908,329.3862 482.7860,329.3862 C 345.3849,329.3862 123.2845,310.5641 122.3434,310.5641 L 117.6379,309.6230 " stroke="#9A9A9A" stroke-width="0.9411" stroke-linecap="butt" stroke-linejoin="round" fill="none"/>
        </g>
        <g transform="matrix(1.0000 0.0000 0.0000 1.0000 0.0000 0.0000)">
</g>
        <g transform="matrix(0.0625 0.0000 0.0000 0.0625 0.0000 0.0000)">
          <path d="M 184.4563,261.6267 C 189.1618,242.8047 191.9851,203.2783 191.9851,174.1041 C 191.9851,144.9299 189.1618,106.3447 184.4563,86.5815 M 264.4500,255.9801 C 270.0967,238.0991 272.9200,202.3372 272.9200,174.1041 C 272.9200,146.8121 270.0967,111.0502 264.4500,93.1692 M 345.3849,250.3335 C 350.0904,233.3936 352.9137,200.4550 352.9137,175.0452 C 352.9137,148.6943 350.0904,115.7557 345.3849,98.8158 M 426.3198,244.6869 C 431.0253,228.6881 433.8486,199.5139 433.8486,175.0452 C 433.8486,149.6354 431.0253,120.4612 426.3198,104.4625 M 506.3136,239.9813 C 511.0191,223.9826 513.8424,197.6317 513.8424,175.0452 C 513.8424,151.5176 511.0191,125.1667 506.3136,110.1091 M 587.2485,234.3347 C 591.9540,220.2182 594.7773,196.6906 594.7773,175.0452 C 594.7773,152.4587 591.9540,129.8723 587.2485,114.8146 M 667.2423,229.6292 C 671.9478,215.5127 674.7711,195.7495 674.7711,175.0452 C 674.7711,154.3409 671.9478,133.6367 667.2423,120.4612 M 748.1771,223.9826 C 752.8827,211.7482 755.7060,193.8673 755.7060,175.0452 C 755.7060,155.2820 752.8827,138.3422 748.1771,125.1667 " stroke="#C8E6F2" stroke-width="11.2932" stroke-linecap="round" stroke-linejoin="round" fill="none"/>
        </g>
        <g transform="matrix(1.0000 0.0000 0.0000 1.0000 0.0000 0.0000)">
</g>
      </g>
      <!--emf-blob end-->
    </g>
  </g>
</svg>
