<svg xmlns="http://www.w3.org/2000/svg" xmlns:xlink="http://www.w3.org/1999/xlink" version="1.1" width="56.6929000000" height="43.2000000000">
  <title><![CDATA[FAS900 Cluster]]></title>
  <g transform=" scale(1.000000) ">
    <!--converted by libvisio2svg-->
    <g transform=" translate(-1.033600,-9.906200) ">
      <!--emf-blob start-->
      <g transform="translate(0.9689, 0.9689)">
        <path d="M 4.8445,27.1290 L 1.9378,27.1290 L 1.9378,50.3824 L 4.8445,52.3202 L 4.8445,27.1290 " fill="none" stroke="none"/>
        <defs>
          <clipPath id="clip-719885386">
            <path d="M 4.8445,27.1290 L 1.9378,27.1290 L 1.9378,50.3824 L 4.8445,52.3202 L 4.8445,27.1290 Z"/>
          </clipPath>
        </defs>
        <path clip-path="url(#clip-719885386)" d="M 0.9689,26.1601 L 0.9689,27.1290 L 3.8756,27.1290 L 3.8756,26.1601 L 0.9689,26.1601 Z" stroke-width="1px" stroke="#54BBEA" fill="#54BBEA"/>
        <path clip-path="url(#clip-719885386)" d="M 0.9689,27.1290 L 0.9689,28.0979 L 3.8756,28.0979 L 3.8756,27.1290 L 0.9689,27.1290 Z" stroke-width="1px" stroke="#0278C1" fill="#0278C1"/>
        <path clip-path="url(#clip-719885386)" d="M 0.9689,28.0979 L 0.9689,29.0668 L 3.8756,29.0668 L 3.8756,28.0979 L 0.9689,28.0979 Z" stroke-width="1px" stroke="#057BC3" fill="#057BC3"/>
        <path clip-path="url(#clip-719885386)" d="M 0.9689,29.0668 L 0.9689,30.0356 L 3.8756,30.0356 L 3.8756,29.0668 L 0.9689,29.0668 Z" stroke-width="1px" stroke="#087EC4" fill="#087EC4"/>
        <path clip-path="url(#clip-719885386)" d="M 0.9689,30.0356 L 0.9689,31.0045 L 3.8756,31.0045 L 3.8756,30.0356 L 0.9689,30.0356 Z" stroke-width="1px" stroke="#0C81C5" fill="#0C81C5"/>
        <path clip-path="url(#clip-719885386)" d="M 0.9689,31.0045 L 0.9689,31.9734 L 3.8756,31.9734 L 3.8756,31.0045 L 0.9689,31.0045 Z" stroke-width="1px" stroke="#0F83C7" fill="#0F83C7"/>
        <path clip-path="url(#clip-719885386)" d="M 0.9689,31.9734 L 0.9689,32.9423 L 3.8756,32.9423 L 3.8756,31.9734 L 0.9689,31.9734 Z" stroke-width="1px" stroke="#1286C9" fill="#1286C9"/>
        <path clip-path="url(#clip-719885386)" d="M 0.9689,32.9423 L 0.9689,33.9112 L 3.8756,33.9112 L 3.8756,32.9423 L 0.9689,32.9423 Z" stroke-width="1px" stroke="#1688CB" fill="#1688CB"/>
        <path clip-path="url(#clip-719885386)" d="M 0.9689,33.9112 L 0.9689,34.8801 L 3.8756,34.8801 L 3.8756,33.9112 L 0.9689,33.9112 Z" stroke-width="1px" stroke="#198BCC" fill="#198BCC"/>
        <path clip-path="url(#clip-719885386)" d="M 0.9689,34.8801 L 0.9689,35.8490 L 3.8756,35.8490 L 3.8756,34.8801 L 0.9689,34.8801 Z" stroke-width="1px" stroke="#1C8ECE" fill="#1C8ECE"/>
        <path clip-path="url(#clip-719885386)" d="M 0.9689,35.8490 L 0.9689,36.8179 L 3.8756,36.8179 L 3.8756,35.8490 L 0.9689,35.8490 Z" stroke-width="1px" stroke="#1F90D0" fill="#1F90D0"/>
        <path clip-path="url(#clip-719885386)" d="M 0.9689,36.8179 L 0.9689,37.7868 L 3.8756,37.7868 L 3.8756,36.8179 L 0.9689,36.8179 Z" stroke-width="1px" stroke="#2393D1" fill="#2393D1"/>
        <path clip-path="url(#clip-719885386)" d="M 0.9689,37.7868 L 0.9689,38.7557 L 3.8756,38.7557 L 3.8756,37.7868 L 0.9689,37.7868 Z" stroke-width="1px" stroke="#2796D3" fill="#2796D3"/>
        <path clip-path="url(#clip-719885386)" d="M 0.9689,38.7557 L 0.9689,39.7246 L 3.8756,39.7246 L 3.8756,38.7557 L 0.9689,38.7557 Z" stroke-width="1px" stroke="#2A99D5" fill="#2A99D5"/>
        <path clip-path="url(#clip-719885386)" d="M 0.9689,39.7246 L 0.9689,40.6935 L 3.8756,40.6935 L 3.8756,39.7246 L 0.9689,39.7246 Z" stroke-width="1px" stroke="#2D9BD7" fill="#2D9BD7"/>
        <path clip-path="url(#clip-719885386)" d="M 0.9689,40.6935 L 0.9689,41.6623 L 3.8756,41.6623 L 3.8756,40.6935 L 0.9689,40.6935 Z" stroke-width="1px" stroke="#309ED8" fill="#309ED8"/>
        <path clip-path="url(#clip-719885386)" d="M 0.9689,41.6623 L 0.9689,42.6312 L 3.8756,42.6312 L 3.8756,41.6623 L 0.9689,41.6623 Z" stroke-width="1px" stroke="#33A0DA" fill="#33A0DA"/>
        <path clip-path="url(#clip-719885386)" d="M 0.9689,42.6312 L 0.9689,43.6001 L 3.8756,43.6001 L 3.8756,42.6312 L 0.9689,42.6312 Z" stroke-width="1px" stroke="#37A3DC" fill="#37A3DC"/>
        <path clip-path="url(#clip-719885386)" d="M 0.9689,43.6001 L 0.9689,44.5690 L 3.8756,44.5690 L 3.8756,43.6001 L 0.9689,43.6001 Z" stroke-width="1px" stroke="#3AA5DD" fill="#3AA5DD"/>
        <path clip-path="url(#clip-719885386)" d="M 0.9689,44.5690 L 0.9689,45.5379 L 3.8756,45.5379 L 3.8756,44.5690 L 0.9689,44.5690 Z" stroke-width="1px" stroke="#3EA8DF" fill="#3EA8DF"/>
        <path clip-path="url(#clip-719885386)" d="M 0.9689,45.5379 L 0.9689,46.5068 L 3.8756,46.5068 L 3.8756,45.5379 L 0.9689,45.5379 Z" stroke-width="1px" stroke="#41ABE0" fill="#41ABE0"/>
        <path clip-path="url(#clip-719885386)" d="M 0.9689,46.5068 L 0.9689,47.4757 L 3.8756,47.4757 L 3.8756,46.5068 L 0.9689,46.5068 Z" stroke-width="1px" stroke="#44AEE2" fill="#44AEE2"/>
        <path clip-path="url(#clip-719885386)" d="M 0.9689,47.4757 L 0.9689,48.4446 L 3.8756,48.4446 L 3.8756,47.4757 L 0.9689,47.4757 Z" stroke-width="1px" stroke="#47B0E4" fill="#47B0E4"/>
        <path clip-path="url(#clip-719885386)" d="M 0.9689,48.4446 L 0.9689,49.4135 L 3.8756,49.4135 L 3.8756,48.4446 L 0.9689,48.4446 Z" stroke-width="1px" stroke="#4AB3E6" fill="#4AB3E6"/>
        <path clip-path="url(#clip-719885386)" d="M 0.9689,49.4135 L 0.9689,50.3824 L 3.8756,50.3824 L 3.8756,49.4135 L 0.9689,49.4135 Z" stroke-width="1px" stroke="#4EB6E7" fill="#4EB6E7"/>
        <path clip-path="url(#clip-719885386)" d="M 0.9689,50.3824 L 0.9689,51.3513 L 3.8756,51.3513 L 3.8756,50.3824 L 0.9689,50.3824 Z" stroke-width="1px" stroke="#52B9E8" fill="#52B9E8"/>
        <g transform="matrix(0.0625 0.0000 0.0000 0.0625 0.0000 0.0000)">
          <path d="M 63.9469,426.3124 L 18.4089,426.3124 L 18.4089,802.2424 L 63.9469,828.4025 L 63.9469,426.3124 " stroke="#0054A6" stroke-width="9.6889" stroke-linecap="round" stroke-linejoin="round" fill="none"/>
        </g>
        <g transform="matrix(1.0000 0.0000 0.0000 1.0000 0.0000 0.0000)">
          <path d="M 1.9378,2.9067 L 1.9378,27.1290 L 4.8445,27.1290 L 4.8445,1.9378 L 1.9378,2.9067 " fill="none" stroke="none"/>
          <defs>
            <clipPath id="clip-1649760492">
              <path d="M 1.9378,2.9067 L 1.9378,27.1290 L 4.8445,27.1290 L 4.8445,1.9378 L 1.9378,2.9067 Z"/>
            </clipPath>
          </defs>
          <path clip-path="url(#clip-1649760492)" d="M 0.9689,0.9689 L 0.9689,1.9378 L 3.8756,1.9378 L 3.8756,0.9689 L 0.9689,0.9689 Z" stroke-width="1px" stroke="#56BCEB" fill="#56BCEB"/>
          <path clip-path="url(#clip-1649760492)" d="M 0.9689,1.9378 L 0.9689,2.9067 L 3.8756,2.9067 L 3.8756,1.9378 L 0.9689,1.9378 Z" stroke-width="1px" stroke="#0379C2" fill="#0379C2"/>
          <path clip-path="url(#clip-1649760492)" d="M 0.9689,2.9067 L 0.9689,3.8756 L 3.8756,3.8756 L 3.8756,2.9067 L 0.9689,2.9067 Z" stroke-width="1px" stroke="#067CC3" fill="#067CC3"/>
          <path clip-path="url(#clip-1649760492)" d="M 0.9689,3.8756 L 0.9689,4.8445 L 3.8756,4.8445 L 3.8756,3.8756 L 0.9689,3.8756 Z" stroke-width="1px" stroke="#0A7FC5" fill="#0A7FC5"/>
          <path clip-path="url(#clip-1649760492)" d="M 0.9689,4.8445 L 0.9689,5.8134 L 3.8756,5.8134 L 3.8756,4.8445 L 0.9689,4.8445 Z" stroke-width="1px" stroke="#0D82C6" fill="#0D82C6"/>
          <path clip-path="url(#clip-1649760492)" d="M 0.9689,5.8134 L 0.9689,6.7822 L 3.8756,6.7822 L 3.8756,5.8134 L 0.9689,5.8134 Z" stroke-width="1px" stroke="#1084C8" fill="#1084C8"/>
          <path clip-path="url(#clip-1649760492)" d="M 0.9689,6.7822 L 0.9689,7.7511 L 3.8756,7.7511 L 3.8756,6.7822 L 0.9689,6.7822 Z" stroke-width="1px" stroke="#1486CA" fill="#1486CA"/>
          <path clip-path="url(#clip-1649760492)" d="M 0.9689,7.7511 L 0.9689,8.7200 L 3.8756,8.7200 L 3.8756,7.7511 L 0.9689,7.7511 Z" stroke-width="1px" stroke="#1789CB" fill="#1789CB"/>
          <path clip-path="url(#clip-1649760492)" d="M 0.9689,8.7200 L 0.9689,9.6889 L 3.8756,9.6889 L 3.8756,8.7200 L 0.9689,8.7200 Z" stroke-width="1px" stroke="#1A8CCD" fill="#1A8CCD"/>
          <path clip-path="url(#clip-1649760492)" d="M 0.9689,9.6889 L 0.9689,10.6578 L 3.8756,10.6578 L 3.8756,9.6889 L 0.9689,9.6889 Z" stroke-width="1px" stroke="#1D8FCE" fill="#1D8FCE"/>
          <path clip-path="url(#clip-1649760492)" d="M 0.9689,10.6578 L 0.9689,11.6267 L 3.8756,11.6267 L 3.8756,10.6578 L 0.9689,10.6578 Z" stroke-width="1px" stroke="#2091D0" fill="#2091D0"/>
          <path clip-path="url(#clip-1649760492)" d="M 0.9689,11.6267 L 0.9689,12.5956 L 3.8756,12.5956 L 3.8756,11.6267 L 0.9689,11.6267 Z" stroke-width="1px" stroke="#2494D2" fill="#2494D2"/>
          <path clip-path="url(#clip-1649760492)" d="M 0.9689,12.5956 L 0.9689,13.5645 L 3.8756,13.5645 L 3.8756,12.5956 L 0.9689,12.5956 Z" stroke-width="1px" stroke="#2897D4" fill="#2897D4"/>
          <path clip-path="url(#clip-1649760492)" d="M 0.9689,13.5645 L 0.9689,14.5334 L 3.8756,14.5334 L 3.8756,13.5645 L 0.9689,13.5645 Z" stroke-width="1px" stroke="#2B9AD6" fill="#2B9AD6"/>
          <path clip-path="url(#clip-1649760492)" d="M 0.9689,14.5334 L 0.9689,15.5023 L 3.8756,15.5023 L 3.8756,14.5334 L 0.9689,14.5334 Z" stroke-width="1px" stroke="#2E9CD7" fill="#2E9CD7"/>
          <path clip-path="url(#clip-1649760492)" d="M 0.9689,15.5023 L 0.9689,16.4712 L 3.8756,16.4712 L 3.8756,15.5023 L 0.9689,15.5023 Z" stroke-width="1px" stroke="#319FD9" fill="#319FD9"/>
          <path clip-path="url(#clip-1649760492)" d="M 0.9689,16.4712 L 0.9689,17.4401 L 3.8756,17.4401 L 3.8756,16.4712 L 0.9689,16.4712 Z" stroke-width="1px" stroke="#35A1DA" fill="#35A1DA"/>
          <path clip-path="url(#clip-1649760492)" d="M 0.9689,17.4401 L 0.9689,18.4089 L 3.8756,18.4089 L 3.8756,17.4401 L 0.9689,17.4401 Z" stroke-width="1px" stroke="#38A4DC" fill="#38A4DC"/>
          <path clip-path="url(#clip-1649760492)" d="M 0.9689,18.4089 L 0.9689,19.3778 L 3.8756,19.3778 L 3.8756,18.4089 L 0.9689,18.4089 Z" stroke-width="1px" stroke="#3BA6DE" fill="#3BA6DE"/>
          <path clip-path="url(#clip-1649760492)" d="M 0.9689,19.3778 L 0.9689,20.3467 L 3.8756,20.3467 L 3.8756,19.3778 L 0.9689,19.3778 Z" stroke-width="1px" stroke="#3FA9DF" fill="#3FA9DF"/>
          <path clip-path="url(#clip-1649760492)" d="M 0.9689,20.3467 L 0.9689,21.3156 L 3.8756,21.3156 L 3.8756,20.3467 L 0.9689,20.3467 Z" stroke-width="1px" stroke="#42ACE1" fill="#42ACE1"/>
          <path clip-path="url(#clip-1649760492)" d="M 0.9689,21.3156 L 0.9689,22.2845 L 3.8756,22.2845 L 3.8756,21.3156 L 0.9689,21.3156 Z" stroke-width="1px" stroke="#45AFE3" fill="#45AFE3"/>
          <path clip-path="url(#clip-1649760492)" d="M 0.9689,22.2845 L 0.9689,23.2534 L 3.8756,23.2534 L 3.8756,22.2845 L 0.9689,22.2845 Z" stroke-width="1px" stroke="#48B1E4" fill="#48B1E4"/>
          <path clip-path="url(#clip-1649760492)" d="M 0.9689,23.2534 L 0.9689,24.2223 L 3.8756,24.2223 L 3.8756,23.2534 L 0.9689,23.2534 Z" stroke-width="1px" stroke="#4CB4E6" fill="#4CB4E6"/>
          <path clip-path="url(#clip-1649760492)" d="M 0.9689,24.2223 L 0.9689,25.1912 L 3.8756,25.1912 L 3.8756,24.2223 L 0.9689,24.2223 Z" stroke-width="1px" stroke="#4FB7E7" fill="#4FB7E7"/>
          <path clip-path="url(#clip-1649760492)" d="M 0.9689,25.1912 L 0.9689,26.1601 L 3.8756,26.1601 L 3.8756,25.1912 L 0.9689,25.1912 Z" stroke-width="1px" stroke="#53B9E9" fill="#53B9E9"/>
        </g>
        <g transform="matrix(0.0625 0.0000 0.0000 0.0625 0.0000 0.0000)">
          <path d="M 18.4089,44.5690 L 18.4089,419.5302 L 63.9469,419.5302 L 63.9469,18.4089 L 18.4089,44.5690 " stroke="#0054A6" stroke-width="9.6889" stroke-linecap="round" stroke-linejoin="round" fill="none"/>
        </g>
        <g transform="matrix(1.0000 0.0000 0.0000 1.0000 0.0000 0.0000)">
</g>
        <g transform="matrix(0.0625 0.0000 0.0000 0.0625 0.0000 0.0000)">
          <path d="M 63.9469,426.3124 L 63.9469,828.4025 L 899.1316,828.4025 L 899.1316,426.3124 L 63.9469,426.3124 Z" stroke-width="1px" stroke="#4694D0" fill="#4694D0"/>
        </g>
        <g transform="matrix(1.0000 0.0000 0.0000 1.0000 0.0000 0.0000)">
</g>
        <g transform="matrix(0.0625 0.0000 0.0000 0.0625 0.0000 0.0000)">
          <path d="M 63.9469,828.4025 L 899.1316,828.4025 L 899.1316,426.3124 L 63.9469,426.3124 L 63.9469,828.4025 Z" stroke="#0054A6" stroke-width="9.6889" stroke-linecap="round" stroke-linejoin="round" fill="none"/>
        </g>
        <g transform="matrix(1.0000 0.0000 0.0000 1.0000 0.0000 0.0000)">
          <path d="M 55.2268,52.3202 L 55.2268,47.4757 C 56.1957,44.5690 56.1957,41.6623 56.1957,37.7868 C 56.1957,33.9112 55.2268,27.1290 55.2268,27.1290 L 4.8445,27.1290 C 4.8445,27.1290 3.8756,33.9112 3.8756,37.7868 C 3.8756,41.6623 3.8756,44.5690 4.8445,47.4757 L 4.8445,52.3202 L 55.2268,52.3202 Z " fill="none" stroke="none"/>
          <defs>
            <clipPath id="clip-596516649">
              <path d="M 55.2268,52.3202 L 55.2268,47.4757 C 56.1957,44.5690 56.1957,41.6623 56.1957,37.7868 C 56.1957,33.9112 55.2268,27.1290 55.2268,27.1290 L 4.8445,27.1290 C 4.8445,27.1290 3.8756,33.9112 3.8756,37.7868 C 3.8756,41.6623 3.8756,44.5690 4.8445,47.4757 L 4.8445,52.3202 L 55.2268,52.3202 Z"/>
            </clipPath>
          </defs>
          <path clip-path="url(#clip-596516649)" d="M 2.9067,26.1601 L 2.9067,51.3513 L 3.8756,51.3513 L 3.8756,26.1601 L 2.9067,26.1601 Z" stroke-width="1px" stroke="#4694D0" fill="#4694D0"/>
          <path clip-path="url(#clip-596516649)" d="M 3.8756,26.1601 L 3.8756,51.3513 L 4.8445,51.3513 L 4.8445,26.1601 L 3.8756,26.1601 Z" stroke-width="1px" stroke="#4795D1" fill="#4795D1"/>
          <path clip-path="url(#clip-596516649)" d="M 4.8445,26.1601 L 4.8445,51.3513 L 5.8134,51.3513 L 5.8134,26.1601 L 4.8445,26.1601 Z" stroke-width="1px" stroke="#4897D2" fill="#4897D2"/>
          <path clip-path="url(#clip-596516649)" d="M 5.8134,26.1601 L 5.8134,51.3513 L 6.7822,51.3513 L 6.7822,26.1601 L 5.8134,26.1601 Z" stroke-width="1px" stroke="#4998D3" fill="#4998D3"/>
          <path clip-path="url(#clip-596516649)" d="M 6.7822,26.1601 L 6.7822,51.3513 L 7.7511,51.3513 L 7.7511,26.1601 L 6.7822,26.1601 Z" stroke-width="1px" stroke="#4A9AD3" fill="#4A9AD3"/>
          <path clip-path="url(#clip-596516649)" d="M 7.7511,26.1601 L 7.7511,51.3513 L 8.7200,51.3513 L 8.7200,26.1601 L 7.7511,26.1601 Z" stroke-width="1px" stroke="#4B9BD4" fill="#4B9BD4"/>
          <path clip-path="url(#clip-596516649)" d="M 8.7200,26.1601 L 8.7200,51.3513 L 9.6889,51.3513 L 9.6889,26.1601 L 8.7200,26.1601 Z" stroke-width="1px" stroke="#4C9DD5" fill="#4C9DD5"/>
          <path clip-path="url(#clip-596516649)" d="M 9.6889,26.1601 L 9.6889,51.3513 L 10.6578,51.3513 L 10.6578,26.1601 L 9.6889,26.1601 Z" stroke-width="1px" stroke="#4D9ED6" fill="#4D9ED6"/>
          <path clip-path="url(#clip-596516649)" d="M 10.6578,26.1601 L 10.6578,51.3513 L 11.6267,51.3513 L 11.6267,26.1601 L 10.6578,26.1601 Z" stroke-width="1px" stroke="#4E9FD7" fill="#4E9FD7"/>
          <path clip-path="url(#clip-596516649)" d="M 11.6267,26.1601 L 11.6267,51.3513 L 12.5956,51.3513 L 12.5956,26.1601 L 11.6267,26.1601 Z" stroke-width="1px" stroke="#4FA0D8" fill="#4FA0D8"/>
          <path clip-path="url(#clip-596516649)" d="M 12.5956,26.1601 L 12.5956,51.3513 L 13.5645,51.3513 L 13.5645,26.1601 L 12.5956,26.1601 Z" stroke-width="1px" stroke="#50A2D9" fill="#50A2D9"/>
          <path clip-path="url(#clip-596516649)" d="M 13.5645,26.1601 L 13.5645,51.3513 L 14.5334,51.3513 L 14.5334,26.1601 L 13.5645,26.1601 Z" stroke-width="1px" stroke="#51A3DA" fill="#51A3DA"/>
          <path clip-path="url(#clip-596516649)" d="M 14.5334,26.1601 L 14.5334,51.3513 L 15.5023,51.3513 L 15.5023,26.1601 L 14.5334,26.1601 Z" stroke-width="1px" stroke="#52A4DB" fill="#52A4DB"/>
          <path clip-path="url(#clip-596516649)" d="M 15.5023,26.1601 L 15.5023,51.3513 L 16.4712,51.3513 L 16.4712,26.1601 L 15.5023,26.1601 Z" stroke-width="1px" stroke="#53A6DC" fill="#53A6DC"/>
          <path clip-path="url(#clip-596516649)" d="M 16.4712,26.1601 L 16.4712,51.3513 L 17.4401,51.3513 L 17.4401,26.1601 L 16.4712,26.1601 Z" stroke-width="1px" stroke="#54A7DD" fill="#54A7DD"/>
          <path clip-path="url(#clip-596516649)" d="M 17.4401,26.1601 L 17.4401,51.3513 L 18.4089,51.3513 L 18.4089,26.1601 L 17.4401,26.1601 Z" stroke-width="1px" stroke="#55A9DE" fill="#55A9DE"/>
          <path clip-path="url(#clip-596516649)" d="M 18.4089,26.1601 L 18.4089,51.3513 L 19.3778,51.3513 L 19.3778,26.1601 L 18.4089,26.1601 Z" stroke-width="1px" stroke="#56AADF" fill="#56AADF"/>
          <path clip-path="url(#clip-596516649)" d="M 19.3778,26.1601 L 19.3778,51.3513 L 20.3467,51.3513 L 20.3467,26.1601 L 19.3778,26.1601 Z" stroke-width="1px" stroke="#57ACE0" fill="#57ACE0"/>
          <path clip-path="url(#clip-596516649)" d="M 20.3467,26.1601 L 20.3467,51.3513 L 21.3156,51.3513 L 21.3156,26.1601 L 20.3467,26.1601 Z" stroke-width="1px" stroke="#58ADE1" fill="#58ADE1"/>
          <path clip-path="url(#clip-596516649)" d="M 21.3156,26.1601 L 21.3156,51.3513 L 22.2845,51.3513 L 22.2845,26.1601 L 21.3156,26.1601 Z" stroke-width="1px" stroke="#59AFE2" fill="#59AFE2"/>
          <path clip-path="url(#clip-596516649)" d="M 22.2845,26.1601 L 22.2845,51.3513 L 23.2534,51.3513 L 23.2534,26.1601 L 22.2845,26.1601 Z" stroke-width="1px" stroke="#59B0E2" fill="#59B0E2"/>
          <path clip-path="url(#clip-596516649)" d="M 23.2534,26.1601 L 23.2534,51.3513 L 24.2223,51.3513 L 24.2223,26.1601 L 23.2534,26.1601 Z" stroke-width="1px" stroke="#5AB1E3" fill="#5AB1E3"/>
          <path clip-path="url(#clip-596516649)" d="M 24.2223,26.1601 L 24.2223,51.3513 L 25.1912,51.3513 L 25.1912,26.1601 L 24.2223,26.1601 Z" stroke-width="1px" stroke="#5CB3E4" fill="#5CB3E4"/>
          <path clip-path="url(#clip-596516649)" d="M 25.1912,26.1601 L 25.1912,51.3513 L 26.1601,51.3513 L 26.1601,26.1601 L 25.1912,26.1601 Z" stroke-width="1px" stroke="#5DB4E5" fill="#5DB4E5"/>
          <path clip-path="url(#clip-596516649)" d="M 26.1601,26.1601 L 26.1601,51.3513 L 27.1290,51.3513 L 27.1290,26.1601 L 26.1601,26.1601 Z" stroke-width="1px" stroke="#5EB5E6" fill="#5EB5E6"/>
          <path clip-path="url(#clip-596516649)" d="M 27.1290,26.1601 L 27.1290,51.3513 L 28.0979,51.3513 L 28.0979,26.1601 L 27.1290,26.1601 Z" stroke-width="1px" stroke="#5FB6E7" fill="#5FB6E7"/>
          <path clip-path="url(#clip-596516649)" d="M 28.0979,26.1601 L 28.0979,51.3513 L 29.0668,51.3513 L 29.0668,26.1601 L 28.0979,26.1601 Z" stroke-width="1px" stroke="#60B8E8" fill="#60B8E8"/>
          <path clip-path="url(#clip-596516649)" d="M 29.0668,26.1601 L 29.0668,51.3513 L 31.0045,51.3513 L 31.0045,26.1601 L 29.0668,26.1601 Z" stroke-width="1px" stroke="#61B9E9" fill="#61B9E9"/>
          <path clip-path="url(#clip-596516649)" d="M 31.0045,26.1601 L 31.0045,51.3513 L 31.9734,51.3513 L 31.9734,26.1601 L 31.0045,26.1601 Z" stroke-width="1px" stroke="#60B8E8" fill="#60B8E8"/>
          <path clip-path="url(#clip-596516649)" d="M 31.9734,26.1601 L 31.9734,51.3513 L 32.9423,51.3513 L 32.9423,26.1601 L 31.9734,26.1601 Z" stroke-width="1px" stroke="#5FB6E7" fill="#5FB6E7"/>
          <path clip-path="url(#clip-596516649)" d="M 32.9423,26.1601 L 32.9423,51.3513 L 33.9112,51.3513 L 33.9112,26.1601 L 32.9423,26.1601 Z" stroke-width="1px" stroke="#5EB5E6" fill="#5EB5E6"/>
          <path clip-path="url(#clip-596516649)" d="M 33.9112,26.1601 L 33.9112,51.3513 L 34.8801,51.3513 L 34.8801,26.1601 L 33.9112,26.1601 Z" stroke-width="1px" stroke="#5DB4E5" fill="#5DB4E5"/>
          <path clip-path="url(#clip-596516649)" d="M 34.8801,26.1601 L 34.8801,51.3513 L 35.8490,51.3513 L 35.8490,26.1601 L 34.8801,26.1601 Z" stroke-width="1px" stroke="#5CB3E4" fill="#5CB3E4"/>
          <path clip-path="url(#clip-596516649)" d="M 35.8490,26.1601 L 35.8490,51.3513 L 36.8179,51.3513 L 36.8179,26.1601 L 35.8490,26.1601 Z" stroke-width="1px" stroke="#5AB1E3" fill="#5AB1E3"/>
          <path clip-path="url(#clip-596516649)" d="M 36.8179,26.1601 L 36.8179,51.3513 L 37.7868,51.3513 L 37.7868,26.1601 L 36.8179,26.1601 Z" stroke-width="1px" stroke="#59B0E2" fill="#59B0E2"/>
          <path clip-path="url(#clip-596516649)" d="M 37.7868,26.1601 L 37.7868,51.3513 L 38.7557,51.3513 L 38.7557,26.1601 L 37.7868,26.1601 Z" stroke-width="1px" stroke="#59AFE2" fill="#59AFE2"/>
          <path clip-path="url(#clip-596516649)" d="M 38.7557,26.1601 L 38.7557,51.3513 L 39.7246,51.3513 L 39.7246,26.1601 L 38.7557,26.1601 Z" stroke-width="1px" stroke="#58ADE1" fill="#58ADE1"/>
          <path clip-path="url(#clip-596516649)" d="M 39.7246,26.1601 L 39.7246,51.3513 L 40.6935,51.3513 L 40.6935,26.1601 L 39.7246,26.1601 Z" stroke-width="1px" stroke="#57ACE0" fill="#57ACE0"/>
          <path clip-path="url(#clip-596516649)" d="M 40.6935,26.1601 L 40.6935,51.3513 L 41.6623,51.3513 L 41.6623,26.1601 L 40.6935,26.1601 Z" stroke-width="1px" stroke="#56AADF" fill="#56AADF"/>
          <path clip-path="url(#clip-596516649)" d="M 41.6623,26.1601 L 41.6623,51.3513 L 42.6312,51.3513 L 42.6312,26.1601 L 41.6623,26.1601 Z" stroke-width="1px" stroke="#55A9DE" fill="#55A9DE"/>
          <path clip-path="url(#clip-596516649)" d="M 42.6312,26.1601 L 42.6312,51.3513 L 43.6001,51.3513 L 43.6001,26.1601 L 42.6312,26.1601 Z" stroke-width="1px" stroke="#54A7DD" fill="#54A7DD"/>
          <path clip-path="url(#clip-596516649)" d="M 43.6001,26.1601 L 43.6001,51.3513 L 44.5690,51.3513 L 44.5690,26.1601 L 43.6001,26.1601 Z" stroke-width="1px" stroke="#53A6DC" fill="#53A6DC"/>
          <path clip-path="url(#clip-596516649)" d="M 44.5690,26.1601 L 44.5690,51.3513 L 45.5379,51.3513 L 45.5379,26.1601 L 44.5690,26.1601 Z" stroke-width="1px" stroke="#52A4DB" fill="#52A4DB"/>
          <path clip-path="url(#clip-596516649)" d="M 45.5379,26.1601 L 45.5379,51.3513 L 46.5068,51.3513 L 46.5068,26.1601 L 45.5379,26.1601 Z" stroke-width="1px" stroke="#51A3DA" fill="#51A3DA"/>
          <path clip-path="url(#clip-596516649)" d="M 46.5068,26.1601 L 46.5068,51.3513 L 47.4757,51.3513 L 47.4757,26.1601 L 46.5068,26.1601 Z" stroke-width="1px" stroke="#50A2D9" fill="#50A2D9"/>
          <path clip-path="url(#clip-596516649)" d="M 47.4757,26.1601 L 47.4757,51.3513 L 48.4446,51.3513 L 48.4446,26.1601 L 47.4757,26.1601 Z" stroke-width="1px" stroke="#4FA0D8" fill="#4FA0D8"/>
          <path clip-path="url(#clip-596516649)" d="M 48.4446,26.1601 L 48.4446,51.3513 L 49.4135,51.3513 L 49.4135,26.1601 L 48.4446,26.1601 Z" stroke-width="1px" stroke="#4E9FD7" fill="#4E9FD7"/>
          <path clip-path="url(#clip-596516649)" d="M 49.4135,26.1601 L 49.4135,51.3513 L 50.3824,51.3513 L 50.3824,26.1601 L 49.4135,26.1601 Z" stroke-width="1px" stroke="#4D9ED6" fill="#4D9ED6"/>
          <path clip-path="url(#clip-596516649)" d="M 50.3824,26.1601 L 50.3824,51.3513 L 51.3513,51.3513 L 51.3513,26.1601 L 50.3824,26.1601 Z" stroke-width="1px" stroke="#4C9DD5" fill="#4C9DD5"/>
          <path clip-path="url(#clip-596516649)" d="M 51.3513,26.1601 L 51.3513,51.3513 L 52.3202,51.3513 L 52.3202,26.1601 L 51.3513,26.1601 Z" stroke-width="1px" stroke="#4B9BD4" fill="#4B9BD4"/>
          <path clip-path="url(#clip-596516649)" d="M 52.3202,26.1601 L 52.3202,51.3513 L 53.2890,51.3513 L 53.2890,26.1601 L 52.3202,26.1601 Z" stroke-width="1px" stroke="#4A9AD3" fill="#4A9AD3"/>
          <path clip-path="url(#clip-596516649)" d="M 53.2890,26.1601 L 53.2890,51.3513 L 54.2579,51.3513 L 54.2579,26.1601 L 53.2890,26.1601 Z" stroke-width="1px" stroke="#4998D3" fill="#4998D3"/>
          <path clip-path="url(#clip-596516649)" d="M 54.2579,26.1601 L 54.2579,51.3513 L 55.2268,51.3513 L 55.2268,26.1601 L 54.2579,26.1601 Z" stroke-width="1px" stroke="#4897D2" fill="#4897D2"/>
          <path clip-path="url(#clip-596516649)" d="M 55.2268,26.1601 L 55.2268,51.3513 L 56.1957,51.3513 L 56.1957,26.1601 L 55.2268,26.1601 Z" stroke-width="1px" stroke="#4795D1" fill="#4795D1"/>
        </g>
        <g transform="matrix(0.0625 0.0000 0.0000 0.0625 0.0000 0.0000)">
          <path d="M 883.6293,827.4336 L 883.6293,750.8911 C 893.3182,712.1355 899.1316,657.8775 899.1316,596.8374 C 899.1316,536.7661 883.6293,426.3124 883.6293,426.3124 L 63.9469,426.3124 C 63.9469,426.3124 48.4446,536.7661 48.4446,596.8374 C 48.4446,657.8775 54.2579,712.1355 63.9469,750.8911 L 63.9469,827.4336 L 883.6293,827.4336 " stroke="#0054A6" stroke-width="9.6889" stroke-linecap="round" stroke-linejoin="round" fill="none"/>
        </g>
        <g transform="matrix(1.0000 0.0000 0.0000 1.0000 0.0000 0.0000)">
</g>
        <g transform="matrix(0.0625 0.0000 0.0000 0.0625 0.0000 0.0000)">
          <path d="M 719.8866,747.0156 L 719.8866,771.2379 L 817.7447,771.2379 L 817.7447,747.0156 L 719.8866,747.0156 Z" stroke-width="1px" stroke="#8DC63F" fill="#8DC63F"/>
        </g>
        <g transform="matrix(1.0000 0.0000 0.0000 1.0000 0.0000 0.0000)">
</g>
        <g transform="matrix(0.0625 0.0000 0.0000 0.0625 0.0000 0.0000)">
          <path d="M 817.7447,771.2379 L 719.8866,771.2379 L 719.8866,747.0156 L 817.7447,747.0156 L 817.7447,771.2379 Z" stroke="#0054A6" stroke-width="7.7511" stroke-linecap="round" stroke-linejoin="round" fill="none"/>
        </g>
        <g transform="matrix(1.0000 0.0000 0.0000 1.0000 0.0000 0.0000)">
          <path d="M 51.3513,30.0356 C 51.3513,30.0356 49.4135,29.0668 47.4757,29.0668 C 44.5690,30.0356 41.6623,30.0356 41.6623,30.0356 C 41.6623,30.0356 32.9423,29.0668 29.0668,29.0668 C 25.1912,29.0668 8.7200,30.0356 8.7200,30.0356 C 8.7200,30.0356 7.7511,33.9112 7.7511,36.8179 C 7.7511,39.7246 7.7511,43.6001 8.7200,45.5379 C 8.7200,45.5379 22.2845,46.5068 31.9734,46.5068 C 37.7868,46.5068 44.5690,44.5690 44.5690,44.5690 L 51.3513,44.5690 C 52.3202,42.6312 52.3202,39.7246 52.3202,36.8179 C 52.3202,33.9112 51.3513,30.0356 51.3513,30.0356 Z " fill="none" stroke="none"/>
          <defs>
            <clipPath id="clip-1189641421">
              <path d="M 51.3513,30.0356 C 51.3513,30.0356 49.4135,29.0668 47.4757,29.0668 C 44.5690,30.0356 41.6623,30.0356 41.6623,30.0356 C 41.6623,30.0356 32.9423,29.0668 29.0668,29.0668 C 25.1912,29.0668 8.7200,30.0356 8.7200,30.0356 C 8.7200,30.0356 7.7511,33.9112 7.7511,36.8179 C 7.7511,39.7246 7.7511,43.6001 8.7200,45.5379 C 8.7200,45.5379 22.2845,46.5068 31.9734,46.5068 C 37.7868,46.5068 44.5690,44.5690 44.5690,44.5690 L 51.3513,44.5690 C 52.3202,42.6312 52.3202,39.7246 52.3202,36.8179 C 52.3202,33.9112 51.3513,30.0356 51.3513,30.0356 Z"/>
            </clipPath>
          </defs>
          <path clip-path="url(#clip-1189641421)" d="M 6.7822,28.0979 L 6.7822,45.5379 L 7.7511,45.5379 L 7.7511,28.0979 L 6.7822,28.0979 Z" stroke-width="1px" stroke="#59BCEC" fill="#59BCEC"/>
          <path clip-path="url(#clip-1189641421)" d="M 7.7511,28.0979 L 7.7511,45.5379 L 8.7200,45.5379 L 8.7200,28.0979 L 7.7511,28.0979 Z" stroke-width="1px" stroke="#016BAD" fill="#016BAD"/>
          <path clip-path="url(#clip-1189641421)" d="M 8.7200,28.0979 L 8.7200,45.5379 L 9.6889,45.5379 L 9.6889,28.0979 L 8.7200,28.0979 Z" stroke-width="1px" stroke="#036DAE" fill="#036DAE"/>
          <path clip-path="url(#clip-1189641421)" d="M 9.6889,28.0979 L 9.6889,45.5379 L 10.6578,45.5379 L 10.6578,28.0979 L 9.6889,28.0979 Z" stroke-width="1px" stroke="#066FB0" fill="#066FB0"/>
          <path clip-path="url(#clip-1189641421)" d="M 10.6578,28.0979 L 10.6578,45.5379 L 11.6267,45.5379 L 11.6267,28.0979 L 10.6578,28.0979 Z" stroke-width="1px" stroke="#0770B1" fill="#0770B1"/>
          <path clip-path="url(#clip-1189641421)" d="M 11.6267,28.0979 L 11.6267,45.5379 L 12.5956,45.5379 L 12.5956,28.0979 L 11.6267,28.0979 Z" stroke-width="1px" stroke="#0972B2" fill="#0972B2"/>
          <path clip-path="url(#clip-1189641421)" d="M 12.5956,28.0979 L 12.5956,45.5379 L 13.5645,45.5379 L 13.5645,28.0979 L 12.5956,28.0979 Z" stroke-width="1px" stroke="#0B74B4" fill="#0B74B4"/>
          <path clip-path="url(#clip-1189641421)" d="M 13.5645,28.0979 L 13.5645,45.5379 L 14.5334,45.5379 L 14.5334,28.0979 L 13.5645,28.0979 Z" stroke-width="1px" stroke="#0D76B5" fill="#0D76B5"/>
          <path clip-path="url(#clip-1189641421)" d="M 14.5334,28.0979 L 14.5334,45.5379 L 15.5023,45.5379 L 15.5023,28.0979 L 14.5334,28.0979 Z" stroke-width="1px" stroke="#0F78B7" fill="#0F78B7"/>
          <path clip-path="url(#clip-1189641421)" d="M 15.5023,28.0979 L 15.5023,45.5379 L 16.4712,45.5379 L 16.4712,28.0979 L 15.5023,28.0979 Z" stroke-width="1px" stroke="#117AB8" fill="#117AB8"/>
          <path clip-path="url(#clip-1189641421)" d="M 16.4712,28.0979 L 16.4712,45.5379 L 17.4401,45.5379 L 17.4401,28.0979 L 16.4712,28.0979 Z" stroke-width="1px" stroke="#137CB9" fill="#137CB9"/>
          <path clip-path="url(#clip-1189641421)" d="M 17.4401,28.0979 L 17.4401,45.5379 L 18.4089,45.5379 L 18.4089,28.0979 L 17.4401,28.0979 Z" stroke-width="1px" stroke="#157DBB" fill="#157DBB"/>
          <path clip-path="url(#clip-1189641421)" d="M 18.4089,28.0979 L 18.4089,45.5379 L 19.3778,45.5379 L 19.3778,28.0979 L 18.4089,28.0979 Z" stroke-width="1px" stroke="#177FBC" fill="#177FBC"/>
          <path clip-path="url(#clip-1189641421)" d="M 19.3778,28.0979 L 19.3778,45.5379 L 20.3467,45.5379 L 20.3467,28.0979 L 19.3778,28.0979 Z" stroke-width="1px" stroke="#1981BD" fill="#1981BD"/>
          <path clip-path="url(#clip-1189641421)" d="M 20.3467,28.0979 L 20.3467,45.5379 L 21.3156,45.5379 L 21.3156,28.0979 L 20.3467,28.0979 Z" stroke-width="1px" stroke="#1B83BF" fill="#1B83BF"/>
          <path clip-path="url(#clip-1189641421)" d="M 21.3156,28.0979 L 21.3156,45.5379 L 22.2845,45.5379 L 22.2845,28.0979 L 21.3156,28.0979 Z" stroke-width="1px" stroke="#1C84C0" fill="#1C84C0"/>
          <path clip-path="url(#clip-1189641421)" d="M 22.2845,28.0979 L 22.2845,45.5379 L 23.2534,45.5379 L 23.2534,28.0979 L 22.2845,28.0979 Z" stroke-width="1px" stroke="#1E86C2" fill="#1E86C2"/>
          <path clip-path="url(#clip-1189641421)" d="M 23.2534,28.0979 L 23.2534,45.5379 L 24.2223,45.5379 L 24.2223,28.0979 L 23.2534,28.0979 Z" stroke-width="1px" stroke="#2088C3" fill="#2088C3"/>
          <path clip-path="url(#clip-1189641421)" d="M 24.2223,28.0979 L 24.2223,45.5379 L 25.1912,45.5379 L 25.1912,28.0979 L 24.2223,28.0979 Z" stroke-width="1px" stroke="#2289C4" fill="#2289C4"/>
          <path clip-path="url(#clip-1189641421)" d="M 25.1912,28.0979 L 25.1912,45.5379 L 26.1601,45.5379 L 26.1601,28.0979 L 25.1912,28.0979 Z" stroke-width="1px" stroke="#248BC6" fill="#248BC6"/>
          <path clip-path="url(#clip-1189641421)" d="M 26.1601,28.0979 L 26.1601,45.5379 L 27.1290,45.5379 L 27.1290,28.0979 L 26.1601,28.0979 Z" stroke-width="1px" stroke="#268DC7" fill="#268DC7"/>
          <path clip-path="url(#clip-1189641421)" d="M 27.1290,28.0979 L 27.1290,45.5379 L 28.0979,45.5379 L 28.0979,28.0979 L 27.1290,28.0979 Z" stroke-width="1px" stroke="#288FC9" fill="#288FC9"/>
          <path clip-path="url(#clip-1189641421)" d="M 28.0979,28.0979 L 28.0979,45.5379 L 29.0668,45.5379 L 29.0668,28.0979 L 28.0979,28.0979 Z" stroke-width="1px" stroke="#2A91CA" fill="#2A91CA"/>
          <path clip-path="url(#clip-1189641421)" d="M 29.0668,28.0979 L 29.0668,45.5379 L 30.0356,45.5379 L 30.0356,28.0979 L 29.0668,28.0979 Z" stroke-width="1px" stroke="#2C93CB" fill="#2C93CB"/>
          <path clip-path="url(#clip-1189641421)" d="M 30.0356,28.0979 L 30.0356,45.5379 L 31.0045,45.5379 L 31.0045,28.0979 L 30.0356,28.0979 Z" stroke-width="1px" stroke="#2E95CD" fill="#2E95CD"/>
          <path clip-path="url(#clip-1189641421)" d="M 31.0045,28.0979 L 31.0045,45.5379 L 31.9734,45.5379 L 31.9734,28.0979 L 31.0045,28.0979 Z" stroke-width="1px" stroke="#3097CE" fill="#3097CE"/>
          <path clip-path="url(#clip-1189641421)" d="M 31.9734,28.0979 L 31.9734,45.5379 L 32.9423,45.5379 L 32.9423,28.0979 L 31.9734,28.0979 Z" stroke-width="1px" stroke="#3298CF" fill="#3298CF"/>
          <path clip-path="url(#clip-1189641421)" d="M 32.9423,28.0979 L 32.9423,45.5379 L 33.9112,45.5379 L 33.9112,28.0979 L 32.9423,28.0979 Z" stroke-width="1px" stroke="#349AD1" fill="#349AD1"/>
          <path clip-path="url(#clip-1189641421)" d="M 33.9112,28.0979 L 33.9112,45.5379 L 34.8801,45.5379 L 34.8801,28.0979 L 33.9112,28.0979 Z" stroke-width="1px" stroke="#369CD2" fill="#369CD2"/>
          <path clip-path="url(#clip-1189641421)" d="M 34.8801,28.0979 L 34.8801,45.5379 L 35.8490,45.5379 L 35.8490,28.0979 L 34.8801,28.0979 Z" stroke-width="1px" stroke="#379DD4" fill="#379DD4"/>
          <path clip-path="url(#clip-1189641421)" d="M 35.8490,28.0979 L 35.8490,45.5379 L 36.8179,45.5379 L 36.8179,28.0979 L 35.8490,28.0979 Z" stroke-width="1px" stroke="#399FD5" fill="#399FD5"/>
          <path clip-path="url(#clip-1189641421)" d="M 36.8179,28.0979 L 36.8179,45.5379 L 37.7868,45.5379 L 37.7868,28.0979 L 36.8179,28.0979 Z" stroke-width="1px" stroke="#3BA1D6" fill="#3BA1D6"/>
          <path clip-path="url(#clip-1189641421)" d="M 37.7868,28.0979 L 37.7868,45.5379 L 38.7557,45.5379 L 38.7557,28.0979 L 37.7868,28.0979 Z" stroke-width="1px" stroke="#3EA3D8" fill="#3EA3D8"/>
          <path clip-path="url(#clip-1189641421)" d="M 38.7557,28.0979 L 38.7557,45.5379 L 39.7246,45.5379 L 39.7246,28.0979 L 38.7557,28.0979 Z" stroke-width="1px" stroke="#40A4D9" fill="#40A4D9"/>
          <path clip-path="url(#clip-1189641421)" d="M 39.7246,28.0979 L 39.7246,45.5379 L 40.6935,45.5379 L 40.6935,28.0979 L 39.7246,28.0979 Z" stroke-width="1px" stroke="#42A6DA" fill="#42A6DA"/>
          <path clip-path="url(#clip-1189641421)" d="M 40.6935,28.0979 L 40.6935,45.5379 L 41.6623,45.5379 L 41.6623,28.0979 L 40.6935,28.0979 Z" stroke-width="1px" stroke="#44A8DC" fill="#44A8DC"/>
          <path clip-path="url(#clip-1189641421)" d="M 41.6623,28.0979 L 41.6623,45.5379 L 42.6312,45.5379 L 42.6312,28.0979 L 41.6623,28.0979 Z" stroke-width="1px" stroke="#46AADD" fill="#46AADD"/>
          <path clip-path="url(#clip-1189641421)" d="M 42.6312,28.0979 L 42.6312,45.5379 L 43.6001,45.5379 L 43.6001,28.0979 L 42.6312,28.0979 Z" stroke-width="1px" stroke="#47ABDF" fill="#47ABDF"/>
          <path clip-path="url(#clip-1189641421)" d="M 43.6001,28.0979 L 43.6001,45.5379 L 44.5690,45.5379 L 44.5690,28.0979 L 43.6001,28.0979 Z" stroke-width="1px" stroke="#49ADE0" fill="#49ADE0"/>
          <path clip-path="url(#clip-1189641421)" d="M 44.5690,28.0979 L 44.5690,45.5379 L 45.5379,45.5379 L 45.5379,28.0979 L 44.5690,28.0979 Z" stroke-width="1px" stroke="#4BAFE1" fill="#4BAFE1"/>
          <path clip-path="url(#clip-1189641421)" d="M 45.5379,28.0979 L 45.5379,45.5379 L 46.5068,45.5379 L 46.5068,28.0979 L 45.5379,28.0979 Z" stroke-width="1px" stroke="#4DB1E3" fill="#4DB1E3"/>
          <path clip-path="url(#clip-1189641421)" d="M 46.5068,28.0979 L 46.5068,45.5379 L 47.4757,45.5379 L 47.4757,28.0979 L 46.5068,28.0979 Z" stroke-width="1px" stroke="#4FB3E4" fill="#4FB3E4"/>
          <path clip-path="url(#clip-1189641421)" d="M 47.4757,28.0979 L 47.4757,45.5379 L 48.4446,45.5379 L 48.4446,28.0979 L 47.4757,28.0979 Z" stroke-width="1px" stroke="#51B5E5" fill="#51B5E5"/>
          <path clip-path="url(#clip-1189641421)" d="M 48.4446,28.0979 L 48.4446,45.5379 L 49.4135,45.5379 L 49.4135,28.0979 L 48.4446,28.0979 Z" stroke-width="1px" stroke="#53B7E7" fill="#53B7E7"/>
          <path clip-path="url(#clip-1189641421)" d="M 49.4135,28.0979 L 49.4135,45.5379 L 50.3824,45.5379 L 50.3824,28.0979 L 49.4135,28.0979 Z" stroke-width="1px" stroke="#54B8E8" fill="#54B8E8"/>
          <path clip-path="url(#clip-1189641421)" d="M 50.3824,28.0979 L 50.3824,45.5379 L 51.3513,45.5379 L 51.3513,28.0979 L 50.3824,28.0979 Z" stroke-width="1px" stroke="#56BAEA" fill="#56BAEA"/>
          <path clip-path="url(#clip-1189641421)" d="M 51.3513,28.0979 L 51.3513,45.5379 L 52.3202,45.5379 L 52.3202,28.0979 L 51.3513,28.0979 Z" stroke-width="1px" stroke="#59BCEB" fill="#59BCEB"/>
        </g>
        <g transform="matrix(0.0625 0.0000 0.0000 0.0625 0.0000 0.0000)">
          <path d="M 106.5781,583.2729 C 106.5781,535.7972 120.1426,468.9436 120.1426,468.9436 L 121.1115,462.1614 L 126.9248,462.1614 C 126.9248,462.1614 396.2767,456.3480 460.2236,456.3480 C 522.2327,456.3480 649.1575,468.9436 663.6909,469.9125 C 671.4420,467.9747 709.2288,458.2858 747.0156,457.3169 C 750.8911,457.3169 755.7356,457.3169 759.6112,457.3169 C 797.3980,457.3169 825.4958,461.1925 826.4647,461.1925 L 814.8380,478.6326 C 814.8380,478.6326 796.4291,473.7881 759.6112,473.7881 C 755.7356,473.7881 750.8911,473.7881 747.0156,473.7881 C 707.2910,474.7570 666.5976,486.3837 666.5976,487.3526 L 664.6598,487.3526 L 663.6909,487.3526 C 663.6909,487.3526 524.1705,472.8192 460.2236,472.8192 C 403.0590,472.8192 164.7116,477.6637 133.7071,478.6326 C 129.8315,496.0726 122.0804,547.4239 122.0804,583.2729 C 122.0804,629.7797 126.9248,685.9754 133.7071,713.1044 L 121.1115,726.6689 C 112.3914,695.6643 106.5781,630.7486 106.5781,583.2729 Z " fill="#0054A6" stroke="none"/>
        </g>
        <g transform="matrix(1.0000 0.0000 0.0000 1.0000 0.0000 0.0000)">
</g>
        <g transform="matrix(0.0625 0.0000 0.0000 0.0625 0.0000 0.0000)">
          <path d="M 106.5781,583.2729 C 106.5781,535.7972 120.1426,468.9436 120.1426,468.9436 L 121.1115,462.1614 L 126.9248,462.1614 C 126.9248,462.1614 396.2767,456.3480 460.2236,456.3480 C 522.2327,456.3480 649.1575,468.9436 663.6909,469.9125 C 671.4420,467.9747 709.2288,458.2858 747.0156,457.3169 C 750.8911,457.3169 755.7356,457.3169 759.6112,457.3169 C 797.3980,457.3169 825.4958,461.1925 826.4647,461.1925 L 814.8380,478.6326 C 814.8380,478.6326 796.4291,473.7881 759.6112,473.7881 C 755.7356,473.7881 750.8911,473.7881 747.0156,473.7881 C 707.2910,474.7570 666.5976,486.3837 666.5976,487.3526 L 664.6598,487.3526 L 663.6909,487.3526 C 663.6909,487.3526 524.1705,472.8192 460.2236,472.8192 C 403.0590,472.8192 164.7116,477.6637 133.7071,478.6326 C 129.8315,496.0726 122.0804,547.4239 122.0804,583.2729 C 122.0804,629.7797 126.9248,685.9754 133.7071,713.1044 L 121.1115,726.6689 C 112.3914,695.6643 106.5781,630.7486 106.5781,583.2729 Z " stroke="#0054A6" stroke-width="0.9689" stroke-linecap="butt" stroke-linejoin="round" fill="none"/>
        </g>
        <g transform="matrix(1.0000 0.0000 0.0000 1.0000 0.0000 0.0000)">
          <path d="M 7.7511,45.5379 L 8.7200,44.5690 C 10.6578,45.5379 24.2223,46.5068 31.9734,46.5068 C 34.8801,46.5068 37.7868,45.5379 39.7246,44.5690 C 42.6312,44.5690 43.6001,43.6001 43.6001,43.6001 L 44.5690,43.6001 L 51.3513,43.6001 C 51.3513,41.6623 52.3202,39.7246 52.3202,36.8179 C 52.3202,33.9112 51.3513,30.0356 51.3513,30.0356 L 52.3202,29.0668 C 52.3202,29.0668 53.2890,33.9112 53.2890,36.8179 C 53.2890,39.7246 52.3202,42.6312 52.3202,44.5690 L 52.3202,44.5690 L 44.5690,44.5690 C 43.6001,44.5690 36.8179,47.4757 31.9734,47.4757 C 22.2845,47.4757 8.7200,45.5379 8.7200,45.5379 L 7.7511,45.5379 Z " fill="none" stroke="none"/>
          <defs>
            <clipPath id="clip-1025202362">
              <path d="M 7.7511,45.5379 L 8.7200,44.5690 C 10.6578,45.5379 24.2223,46.5068 31.9734,46.5068 C 34.8801,46.5068 37.7868,45.5379 39.7246,44.5690 C 42.6312,44.5690 43.6001,43.6001 43.6001,43.6001 L 44.5690,43.6001 L 51.3513,43.6001 C 51.3513,41.6623 52.3202,39.7246 52.3202,36.8179 C 52.3202,33.9112 51.3513,30.0356 51.3513,30.0356 L 52.3202,29.0668 C 52.3202,29.0668 53.2890,33.9112 53.2890,36.8179 C 53.2890,39.7246 52.3202,42.6312 52.3202,44.5690 L 52.3202,44.5690 L 44.5690,44.5690 C 43.6001,44.5690 36.8179,47.4757 31.9734,47.4757 C 22.2845,47.4757 8.7200,45.5379 8.7200,45.5379 L 7.7511,45.5379 Z"/>
            </clipPath>
          </defs>
          <path clip-path="url(#clip-1025202362)" d="M 6.7822,28.0979 L 6.7822,46.5068 L 7.7511,46.5068 L 7.7511,28.0979 L 6.7822,28.0979 Z" stroke-width="1px" stroke="#9C9C9C" fill="#9C9C9C"/>
          <path clip-path="url(#clip-1025202362)" d="M 7.7511,28.0979 L 7.7511,46.5068 L 8.7200,46.5068 L 8.7200,28.0979 L 7.7511,28.0979 Z" stroke-width="1px" stroke="#9A9A9A" fill="#9A9A9A"/>
          <path clip-path="url(#clip-1025202362)" d="M 8.7200,28.0979 L 8.7200,46.5068 L 9.6889,46.5068 L 9.6889,28.0979 L 8.7200,28.0979 Z" stroke-width="1px" stroke="#9D9D9D" fill="#9D9D9D"/>
          <path clip-path="url(#clip-1025202362)" d="M 9.6889,28.0979 L 9.6889,46.5068 L 10.6578,46.5068 L 10.6578,28.0979 L 9.6889,28.0979 Z" stroke-width="1px" stroke="#9F9F9F" fill="#9F9F9F"/>
          <path clip-path="url(#clip-1025202362)" d="M 10.6578,28.0979 L 10.6578,46.5068 L 11.6267,46.5068 L 11.6267,28.0979 L 10.6578,28.0979 Z" stroke-width="1px" stroke="#A1A1A1" fill="#A1A1A1"/>
          <path clip-path="url(#clip-1025202362)" d="M 11.6267,28.0979 L 11.6267,46.5068 L 12.5956,46.5068 L 12.5956,28.0979 L 11.6267,28.0979 Z" stroke-width="1px" stroke="#A3A3A3" fill="#A3A3A3"/>
          <path clip-path="url(#clip-1025202362)" d="M 12.5956,28.0979 L 12.5956,46.5068 L 13.5645,46.5068 L 13.5645,28.0979 L 12.5956,28.0979 Z" stroke-width="1px" stroke="#A6A6A6" fill="#A6A6A6"/>
          <path clip-path="url(#clip-1025202362)" d="M 13.5645,28.0979 L 13.5645,46.5068 L 14.5334,46.5068 L 14.5334,28.0979 L 13.5645,28.0979 Z" stroke-width="1px" stroke="#A8A8A8" fill="#A8A8A8"/>
          <path clip-path="url(#clip-1025202362)" d="M 14.5334,28.0979 L 14.5334,46.5068 L 15.5023,46.5068 L 15.5023,28.0979 L 14.5334,28.0979 Z" stroke-width="1px" stroke="#AAAAAA" fill="#AAAAAA"/>
          <path clip-path="url(#clip-1025202362)" d="M 15.5023,28.0979 L 15.5023,46.5068 L 16.4712,46.5068 L 16.4712,28.0979 L 15.5023,28.0979 Z" stroke-width="1px" stroke="#ACACAC" fill="#ACACAC"/>
          <path clip-path="url(#clip-1025202362)" d="M 16.4712,28.0979 L 16.4712,46.5068 L 17.4401,46.5068 L 17.4401,28.0979 L 16.4712,28.0979 Z" stroke-width="1px" stroke="#AEAEAE" fill="#AEAEAE"/>
          <path clip-path="url(#clip-1025202362)" d="M 17.4401,28.0979 L 17.4401,46.5068 L 18.4089,46.5068 L 18.4089,28.0979 L 17.4401,28.0979 Z" stroke-width="1px" stroke="#B1B1B1" fill="#B1B1B1"/>
          <path clip-path="url(#clip-1025202362)" d="M 18.4089,28.0979 L 18.4089,46.5068 L 19.3778,46.5068 L 19.3778,28.0979 L 18.4089,28.0979 Z" stroke-width="1px" stroke="#B3B3B3" fill="#B3B3B3"/>
          <path clip-path="url(#clip-1025202362)" d="M 19.3778,28.0979 L 19.3778,46.5068 L 20.3467,46.5068 L 20.3467,28.0979 L 19.3778,28.0979 Z" stroke-width="1px" stroke="#B5B5B5" fill="#B5B5B5"/>
          <path clip-path="url(#clip-1025202362)" d="M 20.3467,28.0979 L 20.3467,46.5068 L 21.3156,46.5068 L 21.3156,28.0979 L 20.3467,28.0979 Z" stroke-width="1px" stroke="#B7B7B7" fill="#B7B7B7"/>
          <path clip-path="url(#clip-1025202362)" d="M 21.3156,28.0979 L 21.3156,46.5068 L 22.2845,46.5068 L 22.2845,28.0979 L 21.3156,28.0979 Z" stroke-width="1px" stroke="#B9B9B9" fill="#B9B9B9"/>
          <path clip-path="url(#clip-1025202362)" d="M 22.2845,28.0979 L 22.2845,46.5068 L 23.2534,46.5068 L 23.2534,28.0979 L 22.2845,28.0979 Z" stroke-width="1px" stroke="#BBBBBB" fill="#BBBBBB"/>
          <path clip-path="url(#clip-1025202362)" d="M 23.2534,28.0979 L 23.2534,46.5068 L 24.2223,46.5068 L 24.2223,28.0979 L 23.2534,28.0979 Z" stroke-width="1px" stroke="#BEBEBE" fill="#BEBEBE"/>
          <path clip-path="url(#clip-1025202362)" d="M 24.2223,28.0979 L 24.2223,46.5068 L 25.1912,46.5068 L 25.1912,28.0979 L 24.2223,28.0979 Z" stroke-width="1px" stroke="#C0C0C0" fill="#C0C0C0"/>
          <path clip-path="url(#clip-1025202362)" d="M 25.1912,28.0979 L 25.1912,46.5068 L 26.1601,46.5068 L 26.1601,28.0979 L 25.1912,28.0979 Z" stroke-width="1px" stroke="#C2C2C2" fill="#C2C2C2"/>
          <path clip-path="url(#clip-1025202362)" d="M 26.1601,28.0979 L 26.1601,46.5068 L 27.1290,46.5068 L 27.1290,28.0979 L 26.1601,28.0979 Z" stroke-width="1px" stroke="#C4C4C4" fill="#C4C4C4"/>
          <path clip-path="url(#clip-1025202362)" d="M 27.1290,28.0979 L 27.1290,46.5068 L 28.0979,46.5068 L 28.0979,28.0979 L 27.1290,28.0979 Z" stroke-width="1px" stroke="#C7C7C7" fill="#C7C7C7"/>
          <path clip-path="url(#clip-1025202362)" d="M 28.0979,28.0979 L 28.0979,46.5068 L 29.0668,46.5068 L 29.0668,28.0979 L 28.0979,28.0979 Z" stroke-width="1px" stroke="#C9C9C9" fill="#C9C9C9"/>
          <path clip-path="url(#clip-1025202362)" d="M 29.0668,28.0979 L 29.0668,46.5068 L 30.0356,46.5068 L 30.0356,28.0979 L 29.0668,28.0979 Z" stroke-width="1px" stroke="#CBCBCB" fill="#CBCBCB"/>
          <path clip-path="url(#clip-1025202362)" d="M 30.0356,28.0979 L 30.0356,46.5068 L 31.0045,46.5068 L 31.0045,28.0979 L 30.0356,28.0979 Z" stroke-width="1px" stroke="#CDCDCD" fill="#CDCDCD"/>
          <path clip-path="url(#clip-1025202362)" d="M 31.0045,28.0979 L 31.0045,46.5068 L 31.9734,46.5068 L 31.9734,28.0979 L 31.0045,28.0979 Z" stroke-width="1px" stroke="#CBCBCB" fill="#CBCBCB"/>
          <path clip-path="url(#clip-1025202362)" d="M 31.9734,28.0979 L 31.9734,46.5068 L 32.9423,46.5068 L 32.9423,28.0979 L 31.9734,28.0979 Z" stroke-width="1px" stroke="#C9C9C9" fill="#C9C9C9"/>
          <path clip-path="url(#clip-1025202362)" d="M 32.9423,28.0979 L 32.9423,46.5068 L 33.9112,46.5068 L 33.9112,28.0979 L 32.9423,28.0979 Z" stroke-width="1px" stroke="#C7C7C7" fill="#C7C7C7"/>
          <path clip-path="url(#clip-1025202362)" d="M 33.9112,28.0979 L 33.9112,46.5068 L 34.8801,46.5068 L 34.8801,28.0979 L 33.9112,28.0979 Z" stroke-width="1px" stroke="#C4C4C4" fill="#C4C4C4"/>
          <path clip-path="url(#clip-1025202362)" d="M 34.8801,28.0979 L 34.8801,46.5068 L 35.8490,46.5068 L 35.8490,28.0979 L 34.8801,28.0979 Z" stroke-width="1px" stroke="#C2C2C2" fill="#C2C2C2"/>
          <path clip-path="url(#clip-1025202362)" d="M 35.8490,28.0979 L 35.8490,46.5068 L 36.8179,46.5068 L 36.8179,28.0979 L 35.8490,28.0979 Z" stroke-width="1px" stroke="#C0C0C0" fill="#C0C0C0"/>
          <path clip-path="url(#clip-1025202362)" d="M 36.8179,28.0979 L 36.8179,46.5068 L 37.7868,46.5068 L 37.7868,28.0979 L 36.8179,28.0979 Z" stroke-width="1px" stroke="#BEBEBE" fill="#BEBEBE"/>
          <path clip-path="url(#clip-1025202362)" d="M 37.7868,28.0979 L 37.7868,46.5068 L 38.7557,46.5068 L 38.7557,28.0979 L 37.7868,28.0979 Z" stroke-width="1px" stroke="#BBBBBB" fill="#BBBBBB"/>
          <path clip-path="url(#clip-1025202362)" d="M 38.7557,28.0979 L 38.7557,46.5068 L 39.7246,46.5068 L 39.7246,28.0979 L 38.7557,28.0979 Z" stroke-width="1px" stroke="#B9B9B9" fill="#B9B9B9"/>
          <path clip-path="url(#clip-1025202362)" d="M 39.7246,28.0979 L 39.7246,46.5068 L 40.6935,46.5068 L 40.6935,28.0979 L 39.7246,28.0979 Z" stroke-width="1px" stroke="#B7B7B7" fill="#B7B7B7"/>
          <path clip-path="url(#clip-1025202362)" d="M 40.6935,28.0979 L 40.6935,46.5068 L 41.6623,46.5068 L 41.6623,28.0979 L 40.6935,28.0979 Z" stroke-width="1px" stroke="#B5B5B5" fill="#B5B5B5"/>
          <path clip-path="url(#clip-1025202362)" d="M 41.6623,28.0979 L 41.6623,46.5068 L 42.6312,46.5068 L 42.6312,28.0979 L 41.6623,28.0979 Z" stroke-width="1px" stroke="#B3B3B3" fill="#B3B3B3"/>
          <path clip-path="url(#clip-1025202362)" d="M 42.6312,28.0979 L 42.6312,46.5068 L 43.6001,46.5068 L 43.6001,28.0979 L 42.6312,28.0979 Z" stroke-width="1px" stroke="#B1B1B1" fill="#B1B1B1"/>
          <path clip-path="url(#clip-1025202362)" d="M 43.6001,28.0979 L 43.6001,46.5068 L 44.5690,46.5068 L 44.5690,28.0979 L 43.6001,28.0979 Z" stroke-width="1px" stroke="#AEAEAE" fill="#AEAEAE"/>
          <path clip-path="url(#clip-1025202362)" d="M 44.5690,28.0979 L 44.5690,46.5068 L 45.5379,46.5068 L 45.5379,28.0979 L 44.5690,28.0979 Z" stroke-width="1px" stroke="#ACACAC" fill="#ACACAC"/>
          <path clip-path="url(#clip-1025202362)" d="M 45.5379,28.0979 L 45.5379,46.5068 L 46.5068,46.5068 L 46.5068,28.0979 L 45.5379,28.0979 Z" stroke-width="1px" stroke="#AAAAAA" fill="#AAAAAA"/>
          <path clip-path="url(#clip-1025202362)" d="M 46.5068,28.0979 L 46.5068,46.5068 L 47.4757,46.5068 L 47.4757,28.0979 L 46.5068,28.0979 Z" stroke-width="1px" stroke="#A8A8A8" fill="#A8A8A8"/>
          <path clip-path="url(#clip-1025202362)" d="M 47.4757,28.0979 L 47.4757,46.5068 L 48.4446,46.5068 L 48.4446,28.0979 L 47.4757,28.0979 Z" stroke-width="1px" stroke="#A6A6A6" fill="#A6A6A6"/>
          <path clip-path="url(#clip-1025202362)" d="M 48.4446,28.0979 L 48.4446,46.5068 L 49.4135,46.5068 L 49.4135,28.0979 L 48.4446,28.0979 Z" stroke-width="1px" stroke="#A3A3A3" fill="#A3A3A3"/>
          <path clip-path="url(#clip-1025202362)" d="M 49.4135,28.0979 L 49.4135,46.5068 L 50.3824,46.5068 L 50.3824,28.0979 L 49.4135,28.0979 Z" stroke-width="1px" stroke="#A1A1A1" fill="#A1A1A1"/>
          <path clip-path="url(#clip-1025202362)" d="M 50.3824,28.0979 L 50.3824,46.5068 L 51.3513,46.5068 L 51.3513,28.0979 L 50.3824,28.0979 Z" stroke-width="1px" stroke="#9F9F9F" fill="#9F9F9F"/>
          <path clip-path="url(#clip-1025202362)" d="M 51.3513,28.0979 L 51.3513,46.5068 L 52.3202,46.5068 L 52.3202,28.0979 L 51.3513,28.0979 Z" stroke-width="1px" stroke="#9D9D9D" fill="#9D9D9D"/>
        </g>
        <g transform="matrix(0.0625 0.0000 0.0000 0.0625 0.0000 0.0000)">
          <path d="M 121.1115,726.6689 L 133.7071,712.1355 C 159.8671,715.0422 373.0233,730.5444 498.0104,730.5444 C 544.5172,730.5444 594.8996,720.8555 633.6552,712.1355 C 671.4420,702.4466 698.5710,693.7265 698.5710,693.7265 L 699.5399,692.7576 L 814.8380,692.7576 C 821.6202,664.6598 825.4958,625.9041 825.4958,583.2729 C 825.4958,538.7038 814.8380,478.6326 814.8380,478.6326 L 826.4647,461.1925 C 826.4647,462.1614 840.9981,535.7972 840.9981,583.2729 C 840.9981,630.7486 836.1536,673.3798 827.4336,703.4154 L 825.4958,710.1977 L 701.4777,710.1977 C 689.8510,714.0733 589.0862,747.0156 498.0104,747.0156 C 355.5833,747.0156 126.9248,727.6377 126.9248,727.6377 L 121.1115,726.6689 " stroke="#9A9A9A" stroke-width="0.9689" stroke-linecap="butt" stroke-linejoin="round" fill="none"/>
        </g>
        <g transform="matrix(1.0000 0.0000 0.0000 1.0000 0.0000 0.0000)">
</g>
        <g transform="matrix(0.0625 0.0000 0.0000 0.0625 0.0000 0.0000)">
          <path d="M 189.9028,677.2554 C 194.7473,657.8775 198.6228,617.1841 198.6228,587.1484 C 198.6228,557.1128 194.7473,517.3882 189.9028,497.0415 M 272.2586,671.4420 C 278.0719,653.0331 280.9786,616.2152 280.9786,587.1484 C 280.9786,559.0506 278.0719,522.2327 272.2586,503.8237 M 355.5833,665.6287 C 360.4278,648.1886 363.3344,614.2774 363.3344,587.1484 C 363.3344,560.9884 360.4278,527.0771 355.5833,509.6371 M 438.9080,659.8153 C 443.7524,643.3442 446.6591,613.3085 446.6591,588.1173 C 446.6591,561.9572 443.7524,531.9216 438.9080,515.4504 M 521.2638,654.9709 C 526.1082,638.4997 529.0149,611.3707 529.0149,588.1173 C 529.0149,563.8950 526.1082,536.7661 521.2638,520.2949 M 604.5885,649.1575 C 609.4329,634.6241 612.3396,610.4018 612.3396,588.1173 C 612.3396,564.8639 609.4329,541.6105 604.5885,526.1082 M 687.9132,644.3130 C 691.7887,629.7797 694.6954,609.4329 694.6954,588.1173 C 694.6954,566.8017 691.7887,545.4861 687.9132,531.9216 M 770.2690,638.4997 C 775.1134,625.9041 778.0201,607.4952 778.0201,588.1173 C 778.0201,567.7706 775.1134,550.3305 770.2690,536.7661 " stroke="#C8E6F2" stroke-width="11.6267" stroke-linecap="round" stroke-linejoin="round" fill="none"/>
        </g>
        <g transform="matrix(1.0000 0.0000 0.0000 1.0000 0.0000 0.0000)">
</g>
        <g transform="matrix(0.0625 0.0000 0.0000 0.0625 0.0000 0.0000)">
          <path d="M 63.9469,18.4089 L 63.9469,420.4990 L 899.1316,420.4990 L 899.1316,18.4089 L 63.9469,18.4089 Z" stroke-width="1px" stroke="#4694D0" fill="#4694D0"/>
        </g>
        <g transform="matrix(1.0000 0.0000 0.0000 1.0000 0.0000 0.0000)">
</g>
        <g transform="matrix(0.0625 0.0000 0.0000 0.0625 0.0000 0.0000)">
          <path d="M 63.9469,420.4990 L 899.1316,420.4990 L 899.1316,18.4089 L 63.9469,18.4089 L 63.9469,420.4990 Z" stroke="#0054A6" stroke-width="9.6889" stroke-linecap="round" stroke-linejoin="round" fill="none"/>
        </g>
        <g transform="matrix(1.0000 0.0000 0.0000 1.0000 0.0000 0.0000)">
          <path d="M 55.2268,27.1290 L 55.2268,22.2845 C 56.1957,19.3778 56.1957,16.4712 56.1957,12.5956 C 56.1957,8.7200 55.2268,1.9378 55.2268,1.9378 L 4.8445,1.9378 C 4.8445,1.9378 3.8756,8.7200 3.8756,12.5956 C 3.8756,16.4712 3.8756,19.3778 4.8445,22.2845 L 4.8445,27.1290 L 55.2268,27.1290 Z " fill="none" stroke="none"/>
          <defs>
            <clipPath id="clip-1350490027">
              <path d="M 55.2268,27.1290 L 55.2268,22.2845 C 56.1957,19.3778 56.1957,16.4712 56.1957,12.5956 C 56.1957,8.7200 55.2268,1.9378 55.2268,1.9378 L 4.8445,1.9378 C 4.8445,1.9378 3.8756,8.7200 3.8756,12.5956 C 3.8756,16.4712 3.8756,19.3778 4.8445,22.2845 L 4.8445,27.1290 L 55.2268,27.1290 Z"/>
            </clipPath>
          </defs>
          <path clip-path="url(#clip-1350490027)" d="M 2.9067,0.9689 L 2.9067,26.1601 L 3.8756,26.1601 L 3.8756,0.9689 L 2.9067,0.9689 Z" stroke-width="1px" stroke="#4694D0" fill="#4694D0"/>
          <path clip-path="url(#clip-1350490027)" d="M 3.8756,0.9689 L 3.8756,26.1601 L 4.8445,26.1601 L 4.8445,0.9689 L 3.8756,0.9689 Z" stroke-width="1px" stroke="#4795D1" fill="#4795D1"/>
          <path clip-path="url(#clip-1350490027)" d="M 4.8445,0.9689 L 4.8445,26.1601 L 5.8134,26.1601 L 5.8134,0.9689 L 4.8445,0.9689 Z" stroke-width="1px" stroke="#4897D2" fill="#4897D2"/>
          <path clip-path="url(#clip-1350490027)" d="M 5.8134,0.9689 L 5.8134,26.1601 L 6.7822,26.1601 L 6.7822,0.9689 L 5.8134,0.9689 Z" stroke-width="1px" stroke="#4998D3" fill="#4998D3"/>
          <path clip-path="url(#clip-1350490027)" d="M 6.7822,0.9689 L 6.7822,26.1601 L 7.7511,26.1601 L 7.7511,0.9689 L 6.7822,0.9689 Z" stroke-width="1px" stroke="#4A9AD3" fill="#4A9AD3"/>
          <path clip-path="url(#clip-1350490027)" d="M 7.7511,0.9689 L 7.7511,26.1601 L 8.7200,26.1601 L 8.7200,0.9689 L 7.7511,0.9689 Z" stroke-width="1px" stroke="#4B9BD4" fill="#4B9BD4"/>
          <path clip-path="url(#clip-1350490027)" d="M 8.7200,0.9689 L 8.7200,26.1601 L 9.6889,26.1601 L 9.6889,0.9689 L 8.7200,0.9689 Z" stroke-width="1px" stroke="#4C9DD5" fill="#4C9DD5"/>
          <path clip-path="url(#clip-1350490027)" d="M 9.6889,0.9689 L 9.6889,26.1601 L 10.6578,26.1601 L 10.6578,0.9689 L 9.6889,0.9689 Z" stroke-width="1px" stroke="#4D9ED6" fill="#4D9ED6"/>
          <path clip-path="url(#clip-1350490027)" d="M 10.6578,0.9689 L 10.6578,26.1601 L 11.6267,26.1601 L 11.6267,0.9689 L 10.6578,0.9689 Z" stroke-width="1px" stroke="#4E9FD7" fill="#4E9FD7"/>
          <path clip-path="url(#clip-1350490027)" d="M 11.6267,0.9689 L 11.6267,26.1601 L 12.5956,26.1601 L 12.5956,0.9689 L 11.6267,0.9689 Z" stroke-width="1px" stroke="#4FA0D8" fill="#4FA0D8"/>
          <path clip-path="url(#clip-1350490027)" d="M 12.5956,0.9689 L 12.5956,26.1601 L 13.5645,26.1601 L 13.5645,0.9689 L 12.5956,0.9689 Z" stroke-width="1px" stroke="#50A2D9" fill="#50A2D9"/>
          <path clip-path="url(#clip-1350490027)" d="M 13.5645,0.9689 L 13.5645,26.1601 L 14.5334,26.1601 L 14.5334,0.9689 L 13.5645,0.9689 Z" stroke-width="1px" stroke="#51A3DA" fill="#51A3DA"/>
          <path clip-path="url(#clip-1350490027)" d="M 14.5334,0.9689 L 14.5334,26.1601 L 15.5023,26.1601 L 15.5023,0.9689 L 14.5334,0.9689 Z" stroke-width="1px" stroke="#52A4DB" fill="#52A4DB"/>
          <path clip-path="url(#clip-1350490027)" d="M 15.5023,0.9689 L 15.5023,26.1601 L 16.4712,26.1601 L 16.4712,0.9689 L 15.5023,0.9689 Z" stroke-width="1px" stroke="#53A6DC" fill="#53A6DC"/>
          <path clip-path="url(#clip-1350490027)" d="M 16.4712,0.9689 L 16.4712,26.1601 L 17.4401,26.1601 L 17.4401,0.9689 L 16.4712,0.9689 Z" stroke-width="1px" stroke="#54A7DD" fill="#54A7DD"/>
          <path clip-path="url(#clip-1350490027)" d="M 17.4401,0.9689 L 17.4401,26.1601 L 18.4089,26.1601 L 18.4089,0.9689 L 17.4401,0.9689 Z" stroke-width="1px" stroke="#55A9DE" fill="#55A9DE"/>
          <path clip-path="url(#clip-1350490027)" d="M 18.4089,0.9689 L 18.4089,26.1601 L 19.3778,26.1601 L 19.3778,0.9689 L 18.4089,0.9689 Z" stroke-width="1px" stroke="#56AADF" fill="#56AADF"/>
          <path clip-path="url(#clip-1350490027)" d="M 19.3778,0.9689 L 19.3778,26.1601 L 20.3467,26.1601 L 20.3467,0.9689 L 19.3778,0.9689 Z" stroke-width="1px" stroke="#57ACE0" fill="#57ACE0"/>
          <path clip-path="url(#clip-1350490027)" d="M 20.3467,0.9689 L 20.3467,26.1601 L 21.3156,26.1601 L 21.3156,0.9689 L 20.3467,0.9689 Z" stroke-width="1px" stroke="#58ADE1" fill="#58ADE1"/>
          <path clip-path="url(#clip-1350490027)" d="M 21.3156,0.9689 L 21.3156,26.1601 L 22.2845,26.1601 L 22.2845,0.9689 L 21.3156,0.9689 Z" stroke-width="1px" stroke="#59AFE2" fill="#59AFE2"/>
          <path clip-path="url(#clip-1350490027)" d="M 22.2845,0.9689 L 22.2845,26.1601 L 23.2534,26.1601 L 23.2534,0.9689 L 22.2845,0.9689 Z" stroke-width="1px" stroke="#59B0E2" fill="#59B0E2"/>
          <path clip-path="url(#clip-1350490027)" d="M 23.2534,0.9689 L 23.2534,26.1601 L 24.2223,26.1601 L 24.2223,0.9689 L 23.2534,0.9689 Z" stroke-width="1px" stroke="#5AB1E3" fill="#5AB1E3"/>
          <path clip-path="url(#clip-1350490027)" d="M 24.2223,0.9689 L 24.2223,26.1601 L 25.1912,26.1601 L 25.1912,0.9689 L 24.2223,0.9689 Z" stroke-width="1px" stroke="#5CB3E4" fill="#5CB3E4"/>
          <path clip-path="url(#clip-1350490027)" d="M 25.1912,0.9689 L 25.1912,26.1601 L 26.1601,26.1601 L 26.1601,0.9689 L 25.1912,0.9689 Z" stroke-width="1px" stroke="#5DB4E5" fill="#5DB4E5"/>
          <path clip-path="url(#clip-1350490027)" d="M 26.1601,0.9689 L 26.1601,26.1601 L 27.1290,26.1601 L 27.1290,0.9689 L 26.1601,0.9689 Z" stroke-width="1px" stroke="#5EB5E6" fill="#5EB5E6"/>
          <path clip-path="url(#clip-1350490027)" d="M 27.1290,0.9689 L 27.1290,26.1601 L 28.0979,26.1601 L 28.0979,0.9689 L 27.1290,0.9689 Z" stroke-width="1px" stroke="#5FB6E7" fill="#5FB6E7"/>
          <path clip-path="url(#clip-1350490027)" d="M 28.0979,0.9689 L 28.0979,26.1601 L 29.0668,26.1601 L 29.0668,0.9689 L 28.0979,0.9689 Z" stroke-width="1px" stroke="#60B8E8" fill="#60B8E8"/>
          <path clip-path="url(#clip-1350490027)" d="M 29.0668,0.9689 L 29.0668,26.1601 L 31.0045,26.1601 L 31.0045,0.9689 L 29.0668,0.9689 Z" stroke-width="1px" stroke="#61B9E9" fill="#61B9E9"/>
          <path clip-path="url(#clip-1350490027)" d="M 31.0045,0.9689 L 31.0045,26.1601 L 31.9734,26.1601 L 31.9734,0.9689 L 31.0045,0.9689 Z" stroke-width="1px" stroke="#60B8E8" fill="#60B8E8"/>
          <path clip-path="url(#clip-1350490027)" d="M 31.9734,0.9689 L 31.9734,26.1601 L 32.9423,26.1601 L 32.9423,0.9689 L 31.9734,0.9689 Z" stroke-width="1px" stroke="#5FB6E7" fill="#5FB6E7"/>
          <path clip-path="url(#clip-1350490027)" d="M 32.9423,0.9689 L 32.9423,26.1601 L 33.9112,26.1601 L 33.9112,0.9689 L 32.9423,0.9689 Z" stroke-width="1px" stroke="#5EB5E6" fill="#5EB5E6"/>
          <path clip-path="url(#clip-1350490027)" d="M 33.9112,0.9689 L 33.9112,26.1601 L 34.8801,26.1601 L 34.8801,0.9689 L 33.9112,0.9689 Z" stroke-width="1px" stroke="#5DB4E5" fill="#5DB4E5"/>
          <path clip-path="url(#clip-1350490027)" d="M 34.8801,0.9689 L 34.8801,26.1601 L 35.8490,26.1601 L 35.8490,0.9689 L 34.8801,0.9689 Z" stroke-width="1px" stroke="#5CB3E4" fill="#5CB3E4"/>
          <path clip-path="url(#clip-1350490027)" d="M 35.8490,0.9689 L 35.8490,26.1601 L 36.8179,26.1601 L 36.8179,0.9689 L 35.8490,0.9689 Z" stroke-width="1px" stroke="#5AB1E3" fill="#5AB1E3"/>
          <path clip-path="url(#clip-1350490027)" d="M 36.8179,0.9689 L 36.8179,26.1601 L 37.7868,26.1601 L 37.7868,0.9689 L 36.8179,0.9689 Z" stroke-width="1px" stroke="#59B0E2" fill="#59B0E2"/>
          <path clip-path="url(#clip-1350490027)" d="M 37.7868,0.9689 L 37.7868,26.1601 L 38.7557,26.1601 L 38.7557,0.9689 L 37.7868,0.9689 Z" stroke-width="1px" stroke="#59AFE2" fill="#59AFE2"/>
          <path clip-path="url(#clip-1350490027)" d="M 38.7557,0.9689 L 38.7557,26.1601 L 39.7246,26.1601 L 39.7246,0.9689 L 38.7557,0.9689 Z" stroke-width="1px" stroke="#58ADE1" fill="#58ADE1"/>
          <path clip-path="url(#clip-1350490027)" d="M 39.7246,0.9689 L 39.7246,26.1601 L 40.6935,26.1601 L 40.6935,0.9689 L 39.7246,0.9689 Z" stroke-width="1px" stroke="#57ACE0" fill="#57ACE0"/>
          <path clip-path="url(#clip-1350490027)" d="M 40.6935,0.9689 L 40.6935,26.1601 L 41.6623,26.1601 L 41.6623,0.9689 L 40.6935,0.9689 Z" stroke-width="1px" stroke="#56AADF" fill="#56AADF"/>
          <path clip-path="url(#clip-1350490027)" d="M 41.6623,0.9689 L 41.6623,26.1601 L 42.6312,26.1601 L 42.6312,0.9689 L 41.6623,0.9689 Z" stroke-width="1px" stroke="#55A9DE" fill="#55A9DE"/>
          <path clip-path="url(#clip-1350490027)" d="M 42.6312,0.9689 L 42.6312,26.1601 L 43.6001,26.1601 L 43.6001,0.9689 L 42.6312,0.9689 Z" stroke-width="1px" stroke="#54A7DD" fill="#54A7DD"/>
          <path clip-path="url(#clip-1350490027)" d="M 43.6001,0.9689 L 43.6001,26.1601 L 44.5690,26.1601 L 44.5690,0.9689 L 43.6001,0.9689 Z" stroke-width="1px" stroke="#53A6DC" fill="#53A6DC"/>
          <path clip-path="url(#clip-1350490027)" d="M 44.5690,0.9689 L 44.5690,26.1601 L 45.5379,26.1601 L 45.5379,0.9689 L 44.5690,0.9689 Z" stroke-width="1px" stroke="#52A4DB" fill="#52A4DB"/>
          <path clip-path="url(#clip-1350490027)" d="M 45.5379,0.9689 L 45.5379,26.1601 L 46.5068,26.1601 L 46.5068,0.9689 L 45.5379,0.9689 Z" stroke-width="1px" stroke="#51A3DA" fill="#51A3DA"/>
          <path clip-path="url(#clip-1350490027)" d="M 46.5068,0.9689 L 46.5068,26.1601 L 47.4757,26.1601 L 47.4757,0.9689 L 46.5068,0.9689 Z" stroke-width="1px" stroke="#50A2D9" fill="#50A2D9"/>
          <path clip-path="url(#clip-1350490027)" d="M 47.4757,0.9689 L 47.4757,26.1601 L 48.4446,26.1601 L 48.4446,0.9689 L 47.4757,0.9689 Z" stroke-width="1px" stroke="#4FA0D8" fill="#4FA0D8"/>
          <path clip-path="url(#clip-1350490027)" d="M 48.4446,0.9689 L 48.4446,26.1601 L 49.4135,26.1601 L 49.4135,0.9689 L 48.4446,0.9689 Z" stroke-width="1px" stroke="#4E9FD7" fill="#4E9FD7"/>
          <path clip-path="url(#clip-1350490027)" d="M 49.4135,0.9689 L 49.4135,26.1601 L 50.3824,26.1601 L 50.3824,0.9689 L 49.4135,0.9689 Z" stroke-width="1px" stroke="#4D9ED6" fill="#4D9ED6"/>
          <path clip-path="url(#clip-1350490027)" d="M 50.3824,0.9689 L 50.3824,26.1601 L 51.3513,26.1601 L 51.3513,0.9689 L 50.3824,0.9689 Z" stroke-width="1px" stroke="#4C9DD5" fill="#4C9DD5"/>
          <path clip-path="url(#clip-1350490027)" d="M 51.3513,0.9689 L 51.3513,26.1601 L 52.3202,26.1601 L 52.3202,0.9689 L 51.3513,0.9689 Z" stroke-width="1px" stroke="#4B9BD4" fill="#4B9BD4"/>
          <path clip-path="url(#clip-1350490027)" d="M 52.3202,0.9689 L 52.3202,26.1601 L 53.2890,26.1601 L 53.2890,0.9689 L 52.3202,0.9689 Z" stroke-width="1px" stroke="#4A9AD3" fill="#4A9AD3"/>
          <path clip-path="url(#clip-1350490027)" d="M 53.2890,0.9689 L 53.2890,26.1601 L 54.2579,26.1601 L 54.2579,0.9689 L 53.2890,0.9689 Z" stroke-width="1px" stroke="#4998D3" fill="#4998D3"/>
          <path clip-path="url(#clip-1350490027)" d="M 54.2579,0.9689 L 54.2579,26.1601 L 55.2268,26.1601 L 55.2268,0.9689 L 54.2579,0.9689 Z" stroke-width="1px" stroke="#4897D2" fill="#4897D2"/>
          <path clip-path="url(#clip-1350490027)" d="M 55.2268,0.9689 L 55.2268,26.1601 L 56.1957,26.1601 L 56.1957,0.9689 L 55.2268,0.9689 Z" stroke-width="1px" stroke="#4795D1" fill="#4795D1"/>
        </g>
        <g transform="matrix(0.0625 0.0000 0.0000 0.0625 0.0000 0.0000)">
          <path d="M 883.6293,419.5302 L 883.6293,342.9877 C 893.3182,304.2320 899.1316,249.9741 899.1316,189.9028 C 899.1316,128.8626 883.6293,19.3778 883.6293,19.3778 L 63.9469,19.3778 C 63.9469,19.3778 48.4446,128.8626 48.4446,189.9028 C 48.4446,249.9741 54.2579,305.2009 63.9469,342.9877 L 63.9469,419.5302 L 883.6293,419.5302 " stroke="#0054A6" stroke-width="9.6889" stroke-linecap="round" stroke-linejoin="round" fill="none"/>
        </g>
        <g transform="matrix(1.0000 0.0000 0.0000 1.0000 0.0000 0.0000)">
</g>
        <g transform="matrix(0.0625 0.0000 0.0000 0.0625 0.0000 0.0000)">
          <path d="M 719.8866,339.1121 L 719.8866,363.3344 L 817.7447,363.3344 L 817.7447,339.1121 L 719.8866,339.1121 Z" stroke-width="1px" stroke="#8DC63F" fill="#8DC63F"/>
        </g>
        <g transform="matrix(1.0000 0.0000 0.0000 1.0000 0.0000 0.0000)">
</g>
        <g transform="matrix(0.0625 0.0000 0.0000 0.0625 0.0000 0.0000)">
          <path d="M 817.7447,363.3344 L 719.8866,363.3344 L 719.8866,339.1121 L 817.7447,339.1121 L 817.7447,363.3344 Z" stroke="#0054A6" stroke-width="7.7511" stroke-linecap="round" stroke-linejoin="round" fill="none"/>
        </g>
        <g transform="matrix(1.0000 0.0000 0.0000 1.0000 0.0000 0.0000)">
          <path d="M 51.3513,3.8756 C 51.3513,3.8756 49.4135,3.8756 47.4757,3.8756 C 44.5690,3.8756 41.6623,4.8445 41.6623,4.8445 C 41.6623,4.8445 32.9423,3.8756 29.0668,3.8756 C 25.1912,3.8756 8.7200,3.8756 8.7200,3.8756 C 8.7200,3.8756 7.7511,8.7200 7.7511,11.6267 C 7.7511,14.5334 7.7511,18.4089 8.7200,20.3467 C 8.7200,20.3467 22.2845,21.3156 31.9734,21.3156 C 37.7868,21.3156 44.5690,18.4089 44.5690,18.4089 L 51.3513,18.4089 C 52.3202,16.4712 52.3202,14.5334 52.3202,11.6267 C 52.3202,8.7200 51.3513,3.8756 51.3513,3.8756 Z " fill="none" stroke="none"/>
          <defs>
            <clipPath id="clip-783368690">
              <path d="M 51.3513,3.8756 C 51.3513,3.8756 49.4135,3.8756 47.4757,3.8756 C 44.5690,3.8756 41.6623,4.8445 41.6623,4.8445 C 41.6623,4.8445 32.9423,3.8756 29.0668,3.8756 C 25.1912,3.8756 8.7200,3.8756 8.7200,3.8756 C 8.7200,3.8756 7.7511,8.7200 7.7511,11.6267 C 7.7511,14.5334 7.7511,18.4089 8.7200,20.3467 C 8.7200,20.3467 22.2845,21.3156 31.9734,21.3156 C 37.7868,21.3156 44.5690,18.4089 44.5690,18.4089 L 51.3513,18.4089 C 52.3202,16.4712 52.3202,14.5334 52.3202,11.6267 C 52.3202,8.7200 51.3513,3.8756 51.3513,3.8756 Z"/>
            </clipPath>
          </defs>
          <path clip-path="url(#clip-783368690)" d="M 6.7822,2.9067 L 6.7822,20.3467 L 7.7511,20.3467 L 7.7511,2.9067 L 6.7822,2.9067 Z" stroke-width="1px" stroke="#59BCEC" fill="#59BCEC"/>
          <path clip-path="url(#clip-783368690)" d="M 7.7511,2.9067 L 7.7511,20.3467 L 8.7200,20.3467 L 8.7200,2.9067 L 7.7511,2.9067 Z" stroke-width="1px" stroke="#016BAD" fill="#016BAD"/>
          <path clip-path="url(#clip-783368690)" d="M 8.7200,2.9067 L 8.7200,20.3467 L 9.6889,20.3467 L 9.6889,2.9067 L 8.7200,2.9067 Z" stroke-width="1px" stroke="#036DAE" fill="#036DAE"/>
          <path clip-path="url(#clip-783368690)" d="M 9.6889,2.9067 L 9.6889,20.3467 L 10.6578,20.3467 L 10.6578,2.9067 L 9.6889,2.9067 Z" stroke-width="1px" stroke="#066FB0" fill="#066FB0"/>
          <path clip-path="url(#clip-783368690)" d="M 10.6578,2.9067 L 10.6578,20.3467 L 11.6267,20.3467 L 11.6267,2.9067 L 10.6578,2.9067 Z" stroke-width="1px" stroke="#0770B1" fill="#0770B1"/>
          <path clip-path="url(#clip-783368690)" d="M 11.6267,2.9067 L 11.6267,20.3467 L 12.5956,20.3467 L 12.5956,2.9067 L 11.6267,2.9067 Z" stroke-width="1px" stroke="#0972B2" fill="#0972B2"/>
          <path clip-path="url(#clip-783368690)" d="M 12.5956,2.9067 L 12.5956,20.3467 L 13.5645,20.3467 L 13.5645,2.9067 L 12.5956,2.9067 Z" stroke-width="1px" stroke="#0B74B4" fill="#0B74B4"/>
          <path clip-path="url(#clip-783368690)" d="M 13.5645,2.9067 L 13.5645,20.3467 L 14.5334,20.3467 L 14.5334,2.9067 L 13.5645,2.9067 Z" stroke-width="1px" stroke="#0D76B5" fill="#0D76B5"/>
          <path clip-path="url(#clip-783368690)" d="M 14.5334,2.9067 L 14.5334,20.3467 L 15.5023,20.3467 L 15.5023,2.9067 L 14.5334,2.9067 Z" stroke-width="1px" stroke="#0F78B7" fill="#0F78B7"/>
          <path clip-path="url(#clip-783368690)" d="M 15.5023,2.9067 L 15.5023,20.3467 L 16.4712,20.3467 L 16.4712,2.9067 L 15.5023,2.9067 Z" stroke-width="1px" stroke="#117AB8" fill="#117AB8"/>
          <path clip-path="url(#clip-783368690)" d="M 16.4712,2.9067 L 16.4712,20.3467 L 17.4401,20.3467 L 17.4401,2.9067 L 16.4712,2.9067 Z" stroke-width="1px" stroke="#137CB9" fill="#137CB9"/>
          <path clip-path="url(#clip-783368690)" d="M 17.4401,2.9067 L 17.4401,20.3467 L 18.4089,20.3467 L 18.4089,2.9067 L 17.4401,2.9067 Z" stroke-width="1px" stroke="#157DBB" fill="#157DBB"/>
          <path clip-path="url(#clip-783368690)" d="M 18.4089,2.9067 L 18.4089,20.3467 L 19.3778,20.3467 L 19.3778,2.9067 L 18.4089,2.9067 Z" stroke-width="1px" stroke="#177FBC" fill="#177FBC"/>
          <path clip-path="url(#clip-783368690)" d="M 19.3778,2.9067 L 19.3778,20.3467 L 20.3467,20.3467 L 20.3467,2.9067 L 19.3778,2.9067 Z" stroke-width="1px" stroke="#1981BD" fill="#1981BD"/>
          <path clip-path="url(#clip-783368690)" d="M 20.3467,2.9067 L 20.3467,20.3467 L 21.3156,20.3467 L 21.3156,2.9067 L 20.3467,2.9067 Z" stroke-width="1px" stroke="#1B83BF" fill="#1B83BF"/>
          <path clip-path="url(#clip-783368690)" d="M 21.3156,2.9067 L 21.3156,20.3467 L 22.2845,20.3467 L 22.2845,2.9067 L 21.3156,2.9067 Z" stroke-width="1px" stroke="#1C84C0" fill="#1C84C0"/>
          <path clip-path="url(#clip-783368690)" d="M 22.2845,2.9067 L 22.2845,20.3467 L 23.2534,20.3467 L 23.2534,2.9067 L 22.2845,2.9067 Z" stroke-width="1px" stroke="#1E86C2" fill="#1E86C2"/>
          <path clip-path="url(#clip-783368690)" d="M 23.2534,2.9067 L 23.2534,20.3467 L 24.2223,20.3467 L 24.2223,2.9067 L 23.2534,2.9067 Z" stroke-width="1px" stroke="#2088C3" fill="#2088C3"/>
          <path clip-path="url(#clip-783368690)" d="M 24.2223,2.9067 L 24.2223,20.3467 L 25.1912,20.3467 L 25.1912,2.9067 L 24.2223,2.9067 Z" stroke-width="1px" stroke="#2289C4" fill="#2289C4"/>
          <path clip-path="url(#clip-783368690)" d="M 25.1912,2.9067 L 25.1912,20.3467 L 26.1601,20.3467 L 26.1601,2.9067 L 25.1912,2.9067 Z" stroke-width="1px" stroke="#248BC6" fill="#248BC6"/>
          <path clip-path="url(#clip-783368690)" d="M 26.1601,2.9067 L 26.1601,20.3467 L 27.1290,20.3467 L 27.1290,2.9067 L 26.1601,2.9067 Z" stroke-width="1px" stroke="#268DC7" fill="#268DC7"/>
          <path clip-path="url(#clip-783368690)" d="M 27.1290,2.9067 L 27.1290,20.3467 L 28.0979,20.3467 L 28.0979,2.9067 L 27.1290,2.9067 Z" stroke-width="1px" stroke="#288FC9" fill="#288FC9"/>
          <path clip-path="url(#clip-783368690)" d="M 28.0979,2.9067 L 28.0979,20.3467 L 29.0668,20.3467 L 29.0668,2.9067 L 28.0979,2.9067 Z" stroke-width="1px" stroke="#2A91CA" fill="#2A91CA"/>
          <path clip-path="url(#clip-783368690)" d="M 29.0668,2.9067 L 29.0668,20.3467 L 30.0356,20.3467 L 30.0356,2.9067 L 29.0668,2.9067 Z" stroke-width="1px" stroke="#2C93CB" fill="#2C93CB"/>
          <path clip-path="url(#clip-783368690)" d="M 30.0356,2.9067 L 30.0356,20.3467 L 31.0045,20.3467 L 31.0045,2.9067 L 30.0356,2.9067 Z" stroke-width="1px" stroke="#2E95CD" fill="#2E95CD"/>
          <path clip-path="url(#clip-783368690)" d="M 31.0045,2.9067 L 31.0045,20.3467 L 31.9734,20.3467 L 31.9734,2.9067 L 31.0045,2.9067 Z" stroke-width="1px" stroke="#3097CE" fill="#3097CE"/>
          <path clip-path="url(#clip-783368690)" d="M 31.9734,2.9067 L 31.9734,20.3467 L 32.9423,20.3467 L 32.9423,2.9067 L 31.9734,2.9067 Z" stroke-width="1px" stroke="#3298CF" fill="#3298CF"/>
          <path clip-path="url(#clip-783368690)" d="M 32.9423,2.9067 L 32.9423,20.3467 L 33.9112,20.3467 L 33.9112,2.9067 L 32.9423,2.9067 Z" stroke-width="1px" stroke="#349AD1" fill="#349AD1"/>
          <path clip-path="url(#clip-783368690)" d="M 33.9112,2.9067 L 33.9112,20.3467 L 34.8801,20.3467 L 34.8801,2.9067 L 33.9112,2.9067 Z" stroke-width="1px" stroke="#369CD2" fill="#369CD2"/>
          <path clip-path="url(#clip-783368690)" d="M 34.8801,2.9067 L 34.8801,20.3467 L 35.8490,20.3467 L 35.8490,2.9067 L 34.8801,2.9067 Z" stroke-width="1px" stroke="#379DD4" fill="#379DD4"/>
          <path clip-path="url(#clip-783368690)" d="M 35.8490,2.9067 L 35.8490,20.3467 L 36.8179,20.3467 L 36.8179,2.9067 L 35.8490,2.9067 Z" stroke-width="1px" stroke="#399FD5" fill="#399FD5"/>
          <path clip-path="url(#clip-783368690)" d="M 36.8179,2.9067 L 36.8179,20.3467 L 37.7868,20.3467 L 37.7868,2.9067 L 36.8179,2.9067 Z" stroke-width="1px" stroke="#3BA1D6" fill="#3BA1D6"/>
          <path clip-path="url(#clip-783368690)" d="M 37.7868,2.9067 L 37.7868,20.3467 L 38.7557,20.3467 L 38.7557,2.9067 L 37.7868,2.9067 Z" stroke-width="1px" stroke="#3EA3D8" fill="#3EA3D8"/>
          <path clip-path="url(#clip-783368690)" d="M 38.7557,2.9067 L 38.7557,20.3467 L 39.7246,20.3467 L 39.7246,2.9067 L 38.7557,2.9067 Z" stroke-width="1px" stroke="#40A4D9" fill="#40A4D9"/>
          <path clip-path="url(#clip-783368690)" d="M 39.7246,2.9067 L 39.7246,20.3467 L 40.6935,20.3467 L 40.6935,2.9067 L 39.7246,2.9067 Z" stroke-width="1px" stroke="#42A6DA" fill="#42A6DA"/>
          <path clip-path="url(#clip-783368690)" d="M 40.6935,2.9067 L 40.6935,20.3467 L 41.6623,20.3467 L 41.6623,2.9067 L 40.6935,2.9067 Z" stroke-width="1px" stroke="#44A8DC" fill="#44A8DC"/>
          <path clip-path="url(#clip-783368690)" d="M 41.6623,2.9067 L 41.6623,20.3467 L 42.6312,20.3467 L 42.6312,2.9067 L 41.6623,2.9067 Z" stroke-width="1px" stroke="#46AADD" fill="#46AADD"/>
          <path clip-path="url(#clip-783368690)" d="M 42.6312,2.9067 L 42.6312,20.3467 L 43.6001,20.3467 L 43.6001,2.9067 L 42.6312,2.9067 Z" stroke-width="1px" stroke="#47ABDF" fill="#47ABDF"/>
          <path clip-path="url(#clip-783368690)" d="M 43.6001,2.9067 L 43.6001,20.3467 L 44.5690,20.3467 L 44.5690,2.9067 L 43.6001,2.9067 Z" stroke-width="1px" stroke="#49ADE0" fill="#49ADE0"/>
          <path clip-path="url(#clip-783368690)" d="M 44.5690,2.9067 L 44.5690,20.3467 L 45.5379,20.3467 L 45.5379,2.9067 L 44.5690,2.9067 Z" stroke-width="1px" stroke="#4BAFE1" fill="#4BAFE1"/>
          <path clip-path="url(#clip-783368690)" d="M 45.5379,2.9067 L 45.5379,20.3467 L 46.5068,20.3467 L 46.5068,2.9067 L 45.5379,2.9067 Z" stroke-width="1px" stroke="#4DB1E3" fill="#4DB1E3"/>
          <path clip-path="url(#clip-783368690)" d="M 46.5068,2.9067 L 46.5068,20.3467 L 47.4757,20.3467 L 47.4757,2.9067 L 46.5068,2.9067 Z" stroke-width="1px" stroke="#4FB3E4" fill="#4FB3E4"/>
          <path clip-path="url(#clip-783368690)" d="M 47.4757,2.9067 L 47.4757,20.3467 L 48.4446,20.3467 L 48.4446,2.9067 L 47.4757,2.9067 Z" stroke-width="1px" stroke="#51B5E5" fill="#51B5E5"/>
          <path clip-path="url(#clip-783368690)" d="M 48.4446,2.9067 L 48.4446,20.3467 L 49.4135,20.3467 L 49.4135,2.9067 L 48.4446,2.9067 Z" stroke-width="1px" stroke="#53B7E7" fill="#53B7E7"/>
          <path clip-path="url(#clip-783368690)" d="M 49.4135,2.9067 L 49.4135,20.3467 L 50.3824,20.3467 L 50.3824,2.9067 L 49.4135,2.9067 Z" stroke-width="1px" stroke="#54B8E8" fill="#54B8E8"/>
          <path clip-path="url(#clip-783368690)" d="M 50.3824,2.9067 L 50.3824,20.3467 L 51.3513,20.3467 L 51.3513,2.9067 L 50.3824,2.9067 Z" stroke-width="1px" stroke="#56BAEA" fill="#56BAEA"/>
          <path clip-path="url(#clip-783368690)" d="M 51.3513,2.9067 L 51.3513,20.3467 L 52.3202,20.3467 L 52.3202,2.9067 L 51.3513,2.9067 Z" stroke-width="1px" stroke="#59BCEB" fill="#59BCEB"/>
        </g>
        <g transform="matrix(0.0625 0.0000 0.0000 0.0625 0.0000 0.0000)">
          <path d="M 106.5781,175.3694 C 106.5781,127.8937 120.1426,61.0402 120.1426,61.0402 L 121.1115,54.2579 L 126.9248,54.2579 C 126.9248,54.2579 396.2767,48.4446 460.2236,48.4446 C 522.2327,48.4446 649.1575,61.0402 663.6909,62.0091 C 671.4420,60.0713 709.2288,50.3824 747.0156,49.4135 C 750.8911,49.4135 755.7356,49.4135 759.6112,49.4135 C 797.3980,49.4135 825.4958,53.2890 826.4647,54.2579 L 814.8380,70.7291 C 814.8380,71.6980 796.4291,65.8846 759.6112,65.8846 C 755.7356,65.8846 750.8911,65.8846 747.0156,65.8846 C 707.2910,67.8224 666.5976,79.4491 666.5976,79.4491 L 664.6598,79.4491 L 663.6909,79.4491 C 663.6909,79.4491 524.1705,64.9158 460.2236,64.9158 C 403.0590,64.9158 164.7116,69.7602 133.7071,70.7291 C 129.8315,88.1692 122.0804,139.5204 122.0804,175.3694 C 122.0804,221.8762 126.9248,278.0719 133.7071,305.2009 L 121.1115,318.7654 C 112.3914,287.7609 106.5781,222.8451 106.5781,175.3694 Z " fill="#0054A6" stroke="none"/>
        </g>
        <g transform="matrix(1.0000 0.0000 0.0000 1.0000 0.0000 0.0000)">
</g>
        <g transform="matrix(0.0625 0.0000 0.0000 0.0625 0.0000 0.0000)">
          <path d="M 106.5781,175.3694 C 106.5781,127.8937 120.1426,61.0402 120.1426,61.0402 L 121.1115,54.2579 L 126.9248,54.2579 C 126.9248,54.2579 396.2767,48.4446 460.2236,48.4446 C 522.2327,48.4446 649.1575,61.0402 663.6909,62.0091 C 671.4420,60.0713 709.2288,50.3824 747.0156,49.4135 C 750.8911,49.4135 755.7356,49.4135 759.6112,49.4135 C 797.3980,49.4135 825.4958,53.2890 826.4647,54.2579 L 814.8380,70.7291 C 814.8380,71.6980 796.4291,65.8846 759.6112,65.8846 C 755.7356,65.8846 750.8911,65.8846 747.0156,65.8846 C 707.2910,67.8224 666.5976,79.4491 666.5976,79.4491 L 664.6598,79.4491 L 663.6909,79.4491 C 663.6909,79.4491 524.1705,64.9158 460.2236,64.9158 C 403.0590,64.9158 164.7116,69.7602 133.7071,70.7291 C 129.8315,88.1692 122.0804,139.5204 122.0804,175.3694 C 122.0804,221.8762 126.9248,278.0719 133.7071,305.2009 L 121.1115,318.7654 C 112.3914,287.7609 106.5781,222.8451 106.5781,175.3694 Z " stroke="#0054A6" stroke-width="0.9689" stroke-linecap="butt" stroke-linejoin="round" fill="none"/>
        </g>
        <g transform="matrix(1.0000 0.0000 0.0000 1.0000 0.0000 0.0000)">
          <path d="M 7.7511,20.3467 L 8.7200,19.3778 C 10.6578,19.3778 24.2223,20.3467 31.9734,20.3467 C 34.8801,20.3467 37.7868,20.3467 39.7246,19.3778 C 42.6312,18.4089 43.6001,18.4089 43.6001,18.4089 L 44.5690,18.4089 L 51.3513,18.4089 C 51.3513,16.4712 52.3202,14.5334 52.3202,11.6267 C 52.3202,8.7200 51.3513,4.8445 51.3513,4.8445 L 52.3202,3.8756 C 52.3202,3.8756 53.2890,8.7200 53.2890,11.6267 C 53.2890,14.5334 52.3202,17.4401 52.3202,19.3778 L 52.3202,19.3778 L 44.5690,19.3778 C 43.6001,19.3778 36.8179,21.3156 31.9734,21.3156 C 22.2845,21.3156 8.7200,20.3467 8.7200,20.3467 L 7.7511,20.3467 Z " fill="none" stroke="none"/>
          <defs>
            <clipPath id="clip-1102520059">
              <path d="M 7.7511,20.3467 L 8.7200,19.3778 C 10.6578,19.3778 24.2223,20.3467 31.9734,20.3467 C 34.8801,20.3467 37.7868,20.3467 39.7246,19.3778 C 42.6312,18.4089 43.6001,18.4089 43.6001,18.4089 L 44.5690,18.4089 L 51.3513,18.4089 C 51.3513,16.4712 52.3202,14.5334 52.3202,11.6267 C 52.3202,8.7200 51.3513,4.8445 51.3513,4.8445 L 52.3202,3.8756 C 52.3202,3.8756 53.2890,8.7200 53.2890,11.6267 C 53.2890,14.5334 52.3202,17.4401 52.3202,19.3778 L 52.3202,19.3778 L 44.5690,19.3778 C 43.6001,19.3778 36.8179,21.3156 31.9734,21.3156 C 22.2845,21.3156 8.7200,20.3467 8.7200,20.3467 L 7.7511,20.3467 Z"/>
            </clipPath>
          </defs>
          <path clip-path="url(#clip-1102520059)" d="M 6.7822,2.9067 L 6.7822,21.3156 L 7.7511,21.3156 L 7.7511,2.9067 L 6.7822,2.9067 Z" stroke-width="1px" stroke="#9C9C9C" fill="#9C9C9C"/>
          <path clip-path="url(#clip-1102520059)" d="M 7.7511,2.9067 L 7.7511,21.3156 L 8.7200,21.3156 L 8.7200,2.9067 L 7.7511,2.9067 Z" stroke-width="1px" stroke="#9A9A9A" fill="#9A9A9A"/>
          <path clip-path="url(#clip-1102520059)" d="M 8.7200,2.9067 L 8.7200,21.3156 L 9.6889,21.3156 L 9.6889,2.9067 L 8.7200,2.9067 Z" stroke-width="1px" stroke="#9D9D9D" fill="#9D9D9D"/>
          <path clip-path="url(#clip-1102520059)" d="M 9.6889,2.9067 L 9.6889,21.3156 L 10.6578,21.3156 L 10.6578,2.9067 L 9.6889,2.9067 Z" stroke-width="1px" stroke="#9F9F9F" fill="#9F9F9F"/>
          <path clip-path="url(#clip-1102520059)" d="M 10.6578,2.9067 L 10.6578,21.3156 L 11.6267,21.3156 L 11.6267,2.9067 L 10.6578,2.9067 Z" stroke-width="1px" stroke="#A1A1A1" fill="#A1A1A1"/>
          <path clip-path="url(#clip-1102520059)" d="M 11.6267,2.9067 L 11.6267,21.3156 L 12.5956,21.3156 L 12.5956,2.9067 L 11.6267,2.9067 Z" stroke-width="1px" stroke="#A3A3A3" fill="#A3A3A3"/>
          <path clip-path="url(#clip-1102520059)" d="M 12.5956,2.9067 L 12.5956,21.3156 L 13.5645,21.3156 L 13.5645,2.9067 L 12.5956,2.9067 Z" stroke-width="1px" stroke="#A6A6A6" fill="#A6A6A6"/>
          <path clip-path="url(#clip-1102520059)" d="M 13.5645,2.9067 L 13.5645,21.3156 L 14.5334,21.3156 L 14.5334,2.9067 L 13.5645,2.9067 Z" stroke-width="1px" stroke="#A8A8A8" fill="#A8A8A8"/>
          <path clip-path="url(#clip-1102520059)" d="M 14.5334,2.9067 L 14.5334,21.3156 L 15.5023,21.3156 L 15.5023,2.9067 L 14.5334,2.9067 Z" stroke-width="1px" stroke="#AAAAAA" fill="#AAAAAA"/>
          <path clip-path="url(#clip-1102520059)" d="M 15.5023,2.9067 L 15.5023,21.3156 L 16.4712,21.3156 L 16.4712,2.9067 L 15.5023,2.9067 Z" stroke-width="1px" stroke="#ACACAC" fill="#ACACAC"/>
          <path clip-path="url(#clip-1102520059)" d="M 16.4712,2.9067 L 16.4712,21.3156 L 17.4401,21.3156 L 17.4401,2.9067 L 16.4712,2.9067 Z" stroke-width="1px" stroke="#AEAEAE" fill="#AEAEAE"/>
          <path clip-path="url(#clip-1102520059)" d="M 17.4401,2.9067 L 17.4401,21.3156 L 18.4089,21.3156 L 18.4089,2.9067 L 17.4401,2.9067 Z" stroke-width="1px" stroke="#B1B1B1" fill="#B1B1B1"/>
          <path clip-path="url(#clip-1102520059)" d="M 18.4089,2.9067 L 18.4089,21.3156 L 19.3778,21.3156 L 19.3778,2.9067 L 18.4089,2.9067 Z" stroke-width="1px" stroke="#B3B3B3" fill="#B3B3B3"/>
          <path clip-path="url(#clip-1102520059)" d="M 19.3778,2.9067 L 19.3778,21.3156 L 20.3467,21.3156 L 20.3467,2.9067 L 19.3778,2.9067 Z" stroke-width="1px" stroke="#B5B5B5" fill="#B5B5B5"/>
          <path clip-path="url(#clip-1102520059)" d="M 20.3467,2.9067 L 20.3467,21.3156 L 21.3156,21.3156 L 21.3156,2.9067 L 20.3467,2.9067 Z" stroke-width="1px" stroke="#B7B7B7" fill="#B7B7B7"/>
          <path clip-path="url(#clip-1102520059)" d="M 21.3156,2.9067 L 21.3156,21.3156 L 22.2845,21.3156 L 22.2845,2.9067 L 21.3156,2.9067 Z" stroke-width="1px" stroke="#B9B9B9" fill="#B9B9B9"/>
          <path clip-path="url(#clip-1102520059)" d="M 22.2845,2.9067 L 22.2845,21.3156 L 23.2534,21.3156 L 23.2534,2.9067 L 22.2845,2.9067 Z" stroke-width="1px" stroke="#BBBBBB" fill="#BBBBBB"/>
          <path clip-path="url(#clip-1102520059)" d="M 23.2534,2.9067 L 23.2534,21.3156 L 24.2223,21.3156 L 24.2223,2.9067 L 23.2534,2.9067 Z" stroke-width="1px" stroke="#BEBEBE" fill="#BEBEBE"/>
          <path clip-path="url(#clip-1102520059)" d="M 24.2223,2.9067 L 24.2223,21.3156 L 25.1912,21.3156 L 25.1912,2.9067 L 24.2223,2.9067 Z" stroke-width="1px" stroke="#C0C0C0" fill="#C0C0C0"/>
          <path clip-path="url(#clip-1102520059)" d="M 25.1912,2.9067 L 25.1912,21.3156 L 26.1601,21.3156 L 26.1601,2.9067 L 25.1912,2.9067 Z" stroke-width="1px" stroke="#C2C2C2" fill="#C2C2C2"/>
          <path clip-path="url(#clip-1102520059)" d="M 26.1601,2.9067 L 26.1601,21.3156 L 27.1290,21.3156 L 27.1290,2.9067 L 26.1601,2.9067 Z" stroke-width="1px" stroke="#C4C4C4" fill="#C4C4C4"/>
          <path clip-path="url(#clip-1102520059)" d="M 27.1290,2.9067 L 27.1290,21.3156 L 28.0979,21.3156 L 28.0979,2.9067 L 27.1290,2.9067 Z" stroke-width="1px" stroke="#C7C7C7" fill="#C7C7C7"/>
          <path clip-path="url(#clip-1102520059)" d="M 28.0979,2.9067 L 28.0979,21.3156 L 29.0668,21.3156 L 29.0668,2.9067 L 28.0979,2.9067 Z" stroke-width="1px" stroke="#C9C9C9" fill="#C9C9C9"/>
          <path clip-path="url(#clip-1102520059)" d="M 29.0668,2.9067 L 29.0668,21.3156 L 30.0356,21.3156 L 30.0356,2.9067 L 29.0668,2.9067 Z" stroke-width="1px" stroke="#CBCBCB" fill="#CBCBCB"/>
          <path clip-path="url(#clip-1102520059)" d="M 30.0356,2.9067 L 30.0356,21.3156 L 31.0045,21.3156 L 31.0045,2.9067 L 30.0356,2.9067 Z" stroke-width="1px" stroke="#CDCDCD" fill="#CDCDCD"/>
          <path clip-path="url(#clip-1102520059)" d="M 31.0045,2.9067 L 31.0045,21.3156 L 31.9734,21.3156 L 31.9734,2.9067 L 31.0045,2.9067 Z" stroke-width="1px" stroke="#CBCBCB" fill="#CBCBCB"/>
          <path clip-path="url(#clip-1102520059)" d="M 31.9734,2.9067 L 31.9734,21.3156 L 32.9423,21.3156 L 32.9423,2.9067 L 31.9734,2.9067 Z" stroke-width="1px" stroke="#C9C9C9" fill="#C9C9C9"/>
          <path clip-path="url(#clip-1102520059)" d="M 32.9423,2.9067 L 32.9423,21.3156 L 33.9112,21.3156 L 33.9112,2.9067 L 32.9423,2.9067 Z" stroke-width="1px" stroke="#C7C7C7" fill="#C7C7C7"/>
          <path clip-path="url(#clip-1102520059)" d="M 33.9112,2.9067 L 33.9112,21.3156 L 34.8801,21.3156 L 34.8801,2.9067 L 33.9112,2.9067 Z" stroke-width="1px" stroke="#C4C4C4" fill="#C4C4C4"/>
          <path clip-path="url(#clip-1102520059)" d="M 34.8801,2.9067 L 34.8801,21.3156 L 35.8490,21.3156 L 35.8490,2.9067 L 34.8801,2.9067 Z" stroke-width="1px" stroke="#C2C2C2" fill="#C2C2C2"/>
          <path clip-path="url(#clip-1102520059)" d="M 35.8490,2.9067 L 35.8490,21.3156 L 36.8179,21.3156 L 36.8179,2.9067 L 35.8490,2.9067 Z" stroke-width="1px" stroke="#C0C0C0" fill="#C0C0C0"/>
          <path clip-path="url(#clip-1102520059)" d="M 36.8179,2.9067 L 36.8179,21.3156 L 37.7868,21.3156 L 37.7868,2.9067 L 36.8179,2.9067 Z" stroke-width="1px" stroke="#BEBEBE" fill="#BEBEBE"/>
          <path clip-path="url(#clip-1102520059)" d="M 37.7868,2.9067 L 37.7868,21.3156 L 38.7557,21.3156 L 38.7557,2.9067 L 37.7868,2.9067 Z" stroke-width="1px" stroke="#BBBBBB" fill="#BBBBBB"/>
          <path clip-path="url(#clip-1102520059)" d="M 38.7557,2.9067 L 38.7557,21.3156 L 39.7246,21.3156 L 39.7246,2.9067 L 38.7557,2.9067 Z" stroke-width="1px" stroke="#B9B9B9" fill="#B9B9B9"/>
          <path clip-path="url(#clip-1102520059)" d="M 39.7246,2.9067 L 39.7246,21.3156 L 40.6935,21.3156 L 40.6935,2.9067 L 39.7246,2.9067 Z" stroke-width="1px" stroke="#B7B7B7" fill="#B7B7B7"/>
          <path clip-path="url(#clip-1102520059)" d="M 40.6935,2.9067 L 40.6935,21.3156 L 41.6623,21.3156 L 41.6623,2.9067 L 40.6935,2.9067 Z" stroke-width="1px" stroke="#B5B5B5" fill="#B5B5B5"/>
          <path clip-path="url(#clip-1102520059)" d="M 41.6623,2.9067 L 41.6623,21.3156 L 42.6312,21.3156 L 42.6312,2.9067 L 41.6623,2.9067 Z" stroke-width="1px" stroke="#B3B3B3" fill="#B3B3B3"/>
          <path clip-path="url(#clip-1102520059)" d="M 42.6312,2.9067 L 42.6312,21.3156 L 43.6001,21.3156 L 43.6001,2.9067 L 42.6312,2.9067 Z" stroke-width="1px" stroke="#B1B1B1" fill="#B1B1B1"/>
          <path clip-path="url(#clip-1102520059)" d="M 43.6001,2.9067 L 43.6001,21.3156 L 44.5690,21.3156 L 44.5690,2.9067 L 43.6001,2.9067 Z" stroke-width="1px" stroke="#AEAEAE" fill="#AEAEAE"/>
          <path clip-path="url(#clip-1102520059)" d="M 44.5690,2.9067 L 44.5690,21.3156 L 45.5379,21.3156 L 45.5379,2.9067 L 44.5690,2.9067 Z" stroke-width="1px" stroke="#ACACAC" fill="#ACACAC"/>
          <path clip-path="url(#clip-1102520059)" d="M 45.5379,2.9067 L 45.5379,21.3156 L 46.5068,21.3156 L 46.5068,2.9067 L 45.5379,2.9067 Z" stroke-width="1px" stroke="#AAAAAA" fill="#AAAAAA"/>
          <path clip-path="url(#clip-1102520059)" d="M 46.5068,2.9067 L 46.5068,21.3156 L 47.4757,21.3156 L 47.4757,2.9067 L 46.5068,2.9067 Z" stroke-width="1px" stroke="#A8A8A8" fill="#A8A8A8"/>
          <path clip-path="url(#clip-1102520059)" d="M 47.4757,2.9067 L 47.4757,21.3156 L 48.4446,21.3156 L 48.4446,2.9067 L 47.4757,2.9067 Z" stroke-width="1px" stroke="#A6A6A6" fill="#A6A6A6"/>
          <path clip-path="url(#clip-1102520059)" d="M 48.4446,2.9067 L 48.4446,21.3156 L 49.4135,21.3156 L 49.4135,2.9067 L 48.4446,2.9067 Z" stroke-width="1px" stroke="#A3A3A3" fill="#A3A3A3"/>
          <path clip-path="url(#clip-1102520059)" d="M 49.4135,2.9067 L 49.4135,21.3156 L 50.3824,21.3156 L 50.3824,2.9067 L 49.4135,2.9067 Z" stroke-width="1px" stroke="#A1A1A1" fill="#A1A1A1"/>
          <path clip-path="url(#clip-1102520059)" d="M 50.3824,2.9067 L 50.3824,21.3156 L 51.3513,21.3156 L 51.3513,2.9067 L 50.3824,2.9067 Z" stroke-width="1px" stroke="#9F9F9F" fill="#9F9F9F"/>
          <path clip-path="url(#clip-1102520059)" d="M 51.3513,2.9067 L 51.3513,21.3156 L 52.3202,21.3156 L 52.3202,2.9067 L 51.3513,2.9067 Z" stroke-width="1px" stroke="#9D9D9D" fill="#9D9D9D"/>
        </g>
        <g transform="matrix(0.0625 0.0000 0.0000 0.0625 0.0000 0.0000)">
          <path d="M 121.1115,318.7654 L 133.7071,304.2320 C 159.8671,307.1387 373.0233,322.6410 498.0104,322.6410 C 544.5172,322.6410 594.8996,312.9521 633.6552,304.2320 C 671.4420,294.5431 698.5710,285.8231 698.5710,285.8231 L 699.5399,284.8542 L 814.8380,284.8542 C 821.6202,256.7563 825.4958,218.9695 825.4958,176.3383 C 825.4958,130.8004 814.8380,71.6980 814.8380,70.7291 L 826.4647,54.2579 C 826.4647,54.2579 840.9981,127.8937 840.9981,176.3383 C 840.9981,222.8451 836.1536,265.4764 827.4336,296.4809 L 825.4958,302.2942 L 701.4777,302.2942 C 689.8510,306.1698 589.0862,339.1121 498.0104,339.1121 C 355.5833,339.1121 126.9248,319.7343 126.9248,319.7343 L 121.1115,318.7654 " stroke="#9A9A9A" stroke-width="0.9689" stroke-linecap="butt" stroke-linejoin="round" fill="none"/>
        </g>
        <g transform="matrix(1.0000 0.0000 0.0000 1.0000 0.0000 0.0000)">
</g>
        <g transform="matrix(0.0625 0.0000 0.0000 0.0625 0.0000 0.0000)">
          <path d="M 189.9028,269.3519 C 194.7473,249.9741 198.6228,209.2806 198.6228,179.2450 C 198.6228,149.2093 194.7473,109.4848 189.9028,89.1380 M 272.2586,263.5386 C 278.0719,245.1296 280.9786,208.3117 280.9786,179.2450 C 280.9786,151.1471 278.0719,114.3292 272.2586,95.9203 M 355.5833,257.7252 C 360.4278,240.2852 363.3344,206.3740 363.3344,180.2139 C 363.3344,153.0849 360.4278,119.1737 355.5833,101.7336 M 438.9080,251.9119 C 443.7524,235.4407 446.6591,205.4051 446.6591,180.2139 C 446.6591,154.0538 443.7524,124.0182 438.9080,107.5470 M 521.2638,247.0674 C 526.1082,230.5962 529.0149,203.4673 529.0149,180.2139 C 529.0149,155.9916 526.1082,128.8626 521.2638,113.3603 M 604.5885,241.2541 C 609.4329,226.7207 612.3396,202.4984 612.3396,180.2139 C 612.3396,156.9605 609.4329,133.7071 604.5885,118.2048 M 687.9132,236.4096 C 691.7887,221.8762 694.6954,201.5295 694.6954,180.2139 C 694.6954,158.8983 691.7887,137.5826 687.9132,124.0182 M 770.2690,230.5962 C 775.1134,218.0007 778.0201,199.5917 778.0201,180.2139 C 778.0201,159.8671 775.1134,142.4271 770.2690,128.8626 " stroke="#C8E6F2" stroke-width="11.6267" stroke-linecap="round" stroke-linejoin="round" fill="none"/>
        </g>
        <g transform="matrix(1.0000 0.0000 0.0000 1.0000 0.0000 0.0000)">
</g>
      </g>
      <!--emf-blob end-->
    </g>
  </g>
</svg>
