<svg xmlns="http://www.w3.org/2000/svg" xmlns:xlink="http://www.w3.org/1999/xlink" version="1.1" width="77.1781000000" height="36.0000000000">
  <title><![CDATA[FAS900 Act/Act]]></title>
  <g transform=" scale(1.000000) ">
    <!--converted by libvisio2svg-->
    <g transform=" translate(-0.797600,-2.815800) ">
      <!--emf-blob start-->
      <g transform="translate(0.9578, 0.9578)">
        <path d="M 1.9157,2.8735 L 1.9157,24.9040 L 4.7892,26.8197 L 4.7892,1.9157 L 1.9157,2.8735 " fill="none" stroke="none"/>
        <defs>
          <clipPath id="clip-2044897763">
            <path d="M 1.9157,2.8735 L 1.9157,24.9040 L 4.7892,26.8197 L 4.7892,1.9157 L 1.9157,2.8735 Z"/>
          </clipPath>
        </defs>
        <path clip-path="url(#clip-2044897763)" d="M 0.9578,0.9578 L 0.9578,1.9157 L 3.8314,1.9157 L 3.8314,0.9578 L 0.9578,0.9578 Z" stroke-width="1px" stroke="#56BCEB" fill="#56BCEB"/>
        <path clip-path="url(#clip-2044897763)" d="M 0.9578,1.9157 L 0.9578,2.8735 L 3.8314,2.8735 L 3.8314,1.9157 L 0.9578,1.9157 Z" stroke-width="1px" stroke="#0379C2" fill="#0379C2"/>
        <path clip-path="url(#clip-2044897763)" d="M 0.9578,2.8735 L 0.9578,3.8314 L 3.8314,3.8314 L 3.8314,2.8735 L 0.9578,2.8735 Z" stroke-width="1px" stroke="#067CC3" fill="#067CC3"/>
        <path clip-path="url(#clip-2044897763)" d="M 0.9578,3.8314 L 0.9578,4.7892 L 3.8314,4.7892 L 3.8314,3.8314 L 0.9578,3.8314 Z" stroke-width="1px" stroke="#0A7FC5" fill="#0A7FC5"/>
        <path clip-path="url(#clip-2044897763)" d="M 0.9578,4.7892 L 0.9578,5.7471 L 3.8314,5.7471 L 3.8314,4.7892 L 0.9578,4.7892 Z" stroke-width="1px" stroke="#0D81C6" fill="#0D81C6"/>
        <path clip-path="url(#clip-2044897763)" d="M 0.9578,5.7471 L 0.9578,6.7049 L 3.8314,6.7049 L 3.8314,5.7471 L 0.9578,5.7471 Z" stroke-width="1px" stroke="#1084C8" fill="#1084C8"/>
        <path clip-path="url(#clip-2044897763)" d="M 0.9578,6.7049 L 0.9578,7.6628 L 3.8314,7.6628 L 3.8314,6.7049 L 0.9578,6.7049 Z" stroke-width="1px" stroke="#1486CA" fill="#1486CA"/>
        <path clip-path="url(#clip-2044897763)" d="M 0.9578,7.6628 L 0.9578,8.6206 L 3.8314,8.6206 L 3.8314,7.6628 L 0.9578,7.6628 Z" stroke-width="1px" stroke="#1789CB" fill="#1789CB"/>
        <path clip-path="url(#clip-2044897763)" d="M 0.9578,8.6206 L 0.9578,9.5785 L 3.8314,9.5785 L 3.8314,8.6206 L 0.9578,8.6206 Z" stroke-width="1px" stroke="#1A8CCD" fill="#1A8CCD"/>
        <path clip-path="url(#clip-2044897763)" d="M 0.9578,9.5785 L 0.9578,10.5363 L 3.8314,10.5363 L 3.8314,9.5785 L 0.9578,9.5785 Z" stroke-width="1px" stroke="#1D8FCE" fill="#1D8FCE"/>
        <path clip-path="url(#clip-2044897763)" d="M 0.9578,10.5363 L 0.9578,11.4942 L 3.8314,11.4942 L 3.8314,10.5363 L 0.9578,10.5363 Z" stroke-width="1px" stroke="#2091D0" fill="#2091D0"/>
        <path clip-path="url(#clip-2044897763)" d="M 0.9578,11.4942 L 0.9578,12.4520 L 3.8314,12.4520 L 3.8314,11.4942 L 0.9578,11.4942 Z" stroke-width="1px" stroke="#2494D2" fill="#2494D2"/>
        <path clip-path="url(#clip-2044897763)" d="M 0.9578,12.4520 L 0.9578,13.4099 L 3.8314,13.4099 L 3.8314,12.4520 L 0.9578,12.4520 Z" stroke-width="1px" stroke="#2897D4" fill="#2897D4"/>
        <path clip-path="url(#clip-2044897763)" d="M 0.9578,13.4099 L 0.9578,14.3677 L 3.8314,14.3677 L 3.8314,13.4099 L 0.9578,13.4099 Z" stroke-width="1px" stroke="#2B9AD6" fill="#2B9AD6"/>
        <path clip-path="url(#clip-2044897763)" d="M 0.9578,14.3677 L 0.9578,15.3255 L 3.8314,15.3255 L 3.8314,14.3677 L 0.9578,14.3677 Z" stroke-width="1px" stroke="#2E9CD7" fill="#2E9CD7"/>
        <path clip-path="url(#clip-2044897763)" d="M 0.9578,15.3255 L 0.9578,16.2834 L 3.8314,16.2834 L 3.8314,15.3255 L 0.9578,15.3255 Z" stroke-width="1px" stroke="#319FD8" fill="#319FD8"/>
        <path clip-path="url(#clip-2044897763)" d="M 0.9578,16.2834 L 0.9578,17.2412 L 3.8314,17.2412 L 3.8314,16.2834 L 0.9578,16.2834 Z" stroke-width="1px" stroke="#35A1DA" fill="#35A1DA"/>
        <path clip-path="url(#clip-2044897763)" d="M 0.9578,17.2412 L 0.9578,18.1991 L 3.8314,18.1991 L 3.8314,17.2412 L 0.9578,17.2412 Z" stroke-width="1px" stroke="#38A4DC" fill="#38A4DC"/>
        <path clip-path="url(#clip-2044897763)" d="M 0.9578,18.1991 L 0.9578,19.1569 L 3.8314,19.1569 L 3.8314,18.1991 L 0.9578,18.1991 Z" stroke-width="1px" stroke="#3BA6DE" fill="#3BA6DE"/>
        <path clip-path="url(#clip-2044897763)" d="M 0.9578,19.1569 L 0.9578,20.1148 L 3.8314,20.1148 L 3.8314,19.1569 L 0.9578,19.1569 Z" stroke-width="1px" stroke="#3FA9DF" fill="#3FA9DF"/>
        <path clip-path="url(#clip-2044897763)" d="M 0.9578,20.1148 L 0.9578,21.0726 L 3.8314,21.0726 L 3.8314,20.1148 L 0.9578,20.1148 Z" stroke-width="1px" stroke="#42ACE1" fill="#42ACE1"/>
        <path clip-path="url(#clip-2044897763)" d="M 0.9578,21.0726 L 0.9578,22.0305 L 3.8314,22.0305 L 3.8314,21.0726 L 0.9578,21.0726 Z" stroke-width="1px" stroke="#45AEE3" fill="#45AEE3"/>
        <path clip-path="url(#clip-2044897763)" d="M 0.9578,22.0305 L 0.9578,22.9883 L 3.8314,22.9883 L 3.8314,22.0305 L 0.9578,22.0305 Z" stroke-width="1px" stroke="#48B1E4" fill="#48B1E4"/>
        <path clip-path="url(#clip-2044897763)" d="M 0.9578,22.9883 L 0.9578,23.9462 L 3.8314,23.9462 L 3.8314,22.9883 L 0.9578,22.9883 Z" stroke-width="1px" stroke="#4CB3E6" fill="#4CB3E6"/>
        <path clip-path="url(#clip-2044897763)" d="M 0.9578,23.9462 L 0.9578,24.9040 L 3.8314,24.9040 L 3.8314,23.9462 L 0.9578,23.9462 Z" stroke-width="1px" stroke="#4FB7E7" fill="#4FB7E7"/>
        <path clip-path="url(#clip-2044897763)" d="M 0.9578,24.9040 L 0.9578,25.8619 L 3.8314,25.8619 L 3.8314,24.9040 L 0.9578,24.9040 Z" stroke-width="1px" stroke="#53B9E9" fill="#53B9E9"/>
        <g transform="matrix(0.0625 0.0000 0.0000 0.0625 0.0000 0.0000)">
          <path d="M 18.1991,44.0609 L 18.1991,389.8435 L 63.2179,415.7054 L 63.2179,18.1991 L 18.1991,44.0609 " stroke="#0054A6" stroke-width="9.5785" stroke-linecap="round" stroke-linejoin="round" fill="none"/>
        </g>
        <g transform="matrix(1.0000 0.0000 0.0000 1.0000 0.0000 0.0000)">
</g>
        <g transform="matrix(0.0625 0.0000 0.0000 0.0625 0.0000 0.0000)">
          <path d="M 63.2179,18.1991 L 63.2179,415.7054 L 888.8816,415.7054 L 888.8816,18.1991 L 63.2179,18.1991 Z" stroke-width="1px" stroke="#4694D0" fill="#4694D0"/>
        </g>
        <g transform="matrix(1.0000 0.0000 0.0000 1.0000 0.0000 0.0000)">
</g>
        <g transform="matrix(0.0625 0.0000 0.0000 0.0625 0.0000 0.0000)">
          <path d="M 63.2179,415.7054 L 888.8816,415.7054 L 888.8816,18.1991 L 63.2179,18.1991 L 63.2179,415.7054 Z" stroke="#0054A6" stroke-width="9.5785" stroke-linecap="round" stroke-linejoin="round" fill="none"/>
        </g>
        <g transform="matrix(1.0000 0.0000 0.0000 1.0000 0.0000 0.0000)">
          <path d="M 54.5973,26.8197 L 54.5973,22.0305 C 55.5551,19.1569 55.5551,16.2834 55.5551,12.4520 C 55.5551,8.6206 54.5973,1.9157 54.5973,1.9157 L 4.7892,1.9157 C 4.7892,1.9157 3.8314,8.6206 3.8314,12.4520 C 3.8314,16.2834 3.8314,19.1569 4.7892,22.0305 L 4.7892,26.8197 L 54.5973,26.8197 Z " fill="none" stroke="none"/>
          <defs>
            <clipPath id="clip-1967513926">
              <path d="M 54.5973,26.8197 L 54.5973,22.0305 C 55.5551,19.1569 55.5551,16.2834 55.5551,12.4520 C 55.5551,8.6206 54.5973,1.9157 54.5973,1.9157 L 4.7892,1.9157 C 4.7892,1.9157 3.8314,8.6206 3.8314,12.4520 C 3.8314,16.2834 3.8314,19.1569 4.7892,22.0305 L 4.7892,26.8197 L 54.5973,26.8197 Z"/>
            </clipPath>
          </defs>
          <path clip-path="url(#clip-1967513926)" d="M 2.8735,0.9578 L 2.8735,25.8619 L 3.8314,25.8619 L 3.8314,0.9578 L 2.8735,0.9578 Z" stroke-width="1px" stroke="#4694D0" fill="#4694D0"/>
          <path clip-path="url(#clip-1967513926)" d="M 3.8314,0.9578 L 3.8314,25.8619 L 4.7892,25.8619 L 4.7892,0.9578 L 3.8314,0.9578 Z" stroke-width="1px" stroke="#4795D1" fill="#4795D1"/>
          <path clip-path="url(#clip-1967513926)" d="M 4.7892,0.9578 L 4.7892,25.8619 L 5.7471,25.8619 L 5.7471,0.9578 L 4.7892,0.9578 Z" stroke-width="1px" stroke="#4897D2" fill="#4897D2"/>
          <path clip-path="url(#clip-1967513926)" d="M 5.7471,0.9578 L 5.7471,25.8619 L 6.7049,25.8619 L 6.7049,0.9578 L 5.7471,0.9578 Z" stroke-width="1px" stroke="#4998D3" fill="#4998D3"/>
          <path clip-path="url(#clip-1967513926)" d="M 6.7049,0.9578 L 6.7049,25.8619 L 7.6628,25.8619 L 7.6628,0.9578 L 6.7049,0.9578 Z" stroke-width="1px" stroke="#4A9AD3" fill="#4A9AD3"/>
          <path clip-path="url(#clip-1967513926)" d="M 7.6628,0.9578 L 7.6628,25.8619 L 8.6206,25.8619 L 8.6206,0.9578 L 7.6628,0.9578 Z" stroke-width="1px" stroke="#4B9BD4" fill="#4B9BD4"/>
          <path clip-path="url(#clip-1967513926)" d="M 8.6206,0.9578 L 8.6206,25.8619 L 9.5785,25.8619 L 9.5785,0.9578 L 8.6206,0.9578 Z" stroke-width="1px" stroke="#4C9DD5" fill="#4C9DD5"/>
          <path clip-path="url(#clip-1967513926)" d="M 9.5785,0.9578 L 9.5785,25.8619 L 10.5363,25.8619 L 10.5363,0.9578 L 9.5785,0.9578 Z" stroke-width="1px" stroke="#4D9ED6" fill="#4D9ED6"/>
          <path clip-path="url(#clip-1967513926)" d="M 10.5363,0.9578 L 10.5363,25.8619 L 11.4942,25.8619 L 11.4942,0.9578 L 10.5363,0.9578 Z" stroke-width="1px" stroke="#4E9FD7" fill="#4E9FD7"/>
          <path clip-path="url(#clip-1967513926)" d="M 11.4942,0.9578 L 11.4942,25.8619 L 12.4520,25.8619 L 12.4520,0.9578 L 11.4942,0.9578 Z" stroke-width="1px" stroke="#4FA0D8" fill="#4FA0D8"/>
          <path clip-path="url(#clip-1967513926)" d="M 12.4520,0.9578 L 12.4520,25.8619 L 13.4099,25.8619 L 13.4099,0.9578 L 12.4520,0.9578 Z" stroke-width="1px" stroke="#50A2D9" fill="#50A2D9"/>
          <path clip-path="url(#clip-1967513926)" d="M 13.4099,0.9578 L 13.4099,25.8619 L 14.3677,25.8619 L 14.3677,0.9578 L 13.4099,0.9578 Z" stroke-width="1px" stroke="#51A3DA" fill="#51A3DA"/>
          <path clip-path="url(#clip-1967513926)" d="M 14.3677,0.9578 L 14.3677,25.8619 L 15.3255,25.8619 L 15.3255,0.9578 L 14.3677,0.9578 Z" stroke-width="1px" stroke="#52A4DB" fill="#52A4DB"/>
          <path clip-path="url(#clip-1967513926)" d="M 15.3255,0.9578 L 15.3255,25.8619 L 16.2834,25.8619 L 16.2834,0.9578 L 15.3255,0.9578 Z" stroke-width="1px" stroke="#53A6DC" fill="#53A6DC"/>
          <path clip-path="url(#clip-1967513926)" d="M 16.2834,0.9578 L 16.2834,25.8619 L 17.2412,25.8619 L 17.2412,0.9578 L 16.2834,0.9578 Z" stroke-width="1px" stroke="#54A7DD" fill="#54A7DD"/>
          <path clip-path="url(#clip-1967513926)" d="M 17.2412,0.9578 L 17.2412,25.8619 L 18.1991,25.8619 L 18.1991,0.9578 L 17.2412,0.9578 Z" stroke-width="1px" stroke="#55A9DE" fill="#55A9DE"/>
          <path clip-path="url(#clip-1967513926)" d="M 18.1991,0.9578 L 18.1991,25.8619 L 19.1569,25.8619 L 19.1569,0.9578 L 18.1991,0.9578 Z" stroke-width="1px" stroke="#56AADF" fill="#56AADF"/>
          <path clip-path="url(#clip-1967513926)" d="M 19.1569,0.9578 L 19.1569,25.8619 L 20.1148,25.8619 L 20.1148,0.9578 L 19.1569,0.9578 Z" stroke-width="1px" stroke="#57ACE0" fill="#57ACE0"/>
          <path clip-path="url(#clip-1967513926)" d="M 20.1148,0.9578 L 20.1148,25.8619 L 21.0726,25.8619 L 21.0726,0.9578 L 20.1148,0.9578 Z" stroke-width="1px" stroke="#58ADE1" fill="#58ADE1"/>
          <path clip-path="url(#clip-1967513926)" d="M 21.0726,0.9578 L 21.0726,25.8619 L 22.0305,25.8619 L 22.0305,0.9578 L 21.0726,0.9578 Z" stroke-width="1px" stroke="#59AFE2" fill="#59AFE2"/>
          <path clip-path="url(#clip-1967513926)" d="M 22.0305,0.9578 L 22.0305,25.8619 L 22.9883,25.8619 L 22.9883,0.9578 L 22.0305,0.9578 Z" stroke-width="1px" stroke="#59B0E2" fill="#59B0E2"/>
          <path clip-path="url(#clip-1967513926)" d="M 22.9883,0.9578 L 22.9883,25.8619 L 23.9462,25.8619 L 23.9462,0.9578 L 22.9883,0.9578 Z" stroke-width="1px" stroke="#5AB1E3" fill="#5AB1E3"/>
          <path clip-path="url(#clip-1967513926)" d="M 23.9462,0.9578 L 23.9462,25.8619 L 24.9040,25.8619 L 24.9040,0.9578 L 23.9462,0.9578 Z" stroke-width="1px" stroke="#5CB3E4" fill="#5CB3E4"/>
          <path clip-path="url(#clip-1967513926)" d="M 24.9040,0.9578 L 24.9040,25.8619 L 25.8619,25.8619 L 25.8619,0.9578 L 24.9040,0.9578 Z" stroke-width="1px" stroke="#5DB4E5" fill="#5DB4E5"/>
          <path clip-path="url(#clip-1967513926)" d="M 25.8619,0.9578 L 25.8619,25.8619 L 26.8197,25.8619 L 26.8197,0.9578 L 25.8619,0.9578 Z" stroke-width="1px" stroke="#5EB5E6" fill="#5EB5E6"/>
          <path clip-path="url(#clip-1967513926)" d="M 26.8197,0.9578 L 26.8197,25.8619 L 27.7775,25.8619 L 27.7775,0.9578 L 26.8197,0.9578 Z" stroke-width="1px" stroke="#5FB6E7" fill="#5FB6E7"/>
          <path clip-path="url(#clip-1967513926)" d="M 27.7775,0.9578 L 27.7775,25.8619 L 28.7354,25.8619 L 28.7354,0.9578 L 27.7775,0.9578 Z" stroke-width="1px" stroke="#60B8E8" fill="#60B8E8"/>
          <path clip-path="url(#clip-1967513926)" d="M 28.7354,0.9578 L 28.7354,25.8619 L 30.6511,25.8619 L 30.6511,0.9578 L 28.7354,0.9578 Z" stroke-width="1px" stroke="#61B9E9" fill="#61B9E9"/>
          <path clip-path="url(#clip-1967513926)" d="M 30.6511,0.9578 L 30.6511,25.8619 L 31.6089,25.8619 L 31.6089,0.9578 L 30.6511,0.9578 Z" stroke-width="1px" stroke="#60B8E8" fill="#60B8E8"/>
          <path clip-path="url(#clip-1967513926)" d="M 31.6089,0.9578 L 31.6089,25.8619 L 32.5668,25.8619 L 32.5668,0.9578 L 31.6089,0.9578 Z" stroke-width="1px" stroke="#5FB6E7" fill="#5FB6E7"/>
          <path clip-path="url(#clip-1967513926)" d="M 32.5668,0.9578 L 32.5668,25.8619 L 33.5246,25.8619 L 33.5246,0.9578 L 32.5668,0.9578 Z" stroke-width="1px" stroke="#5EB5E6" fill="#5EB5E6"/>
          <path clip-path="url(#clip-1967513926)" d="M 33.5246,0.9578 L 33.5246,25.8619 L 34.4825,25.8619 L 34.4825,0.9578 L 33.5246,0.9578 Z" stroke-width="1px" stroke="#5DB4E5" fill="#5DB4E5"/>
          <path clip-path="url(#clip-1967513926)" d="M 34.4825,0.9578 L 34.4825,25.8619 L 35.4403,25.8619 L 35.4403,0.9578 L 34.4825,0.9578 Z" stroke-width="1px" stroke="#5CB3E4" fill="#5CB3E4"/>
          <path clip-path="url(#clip-1967513926)" d="M 35.4403,0.9578 L 35.4403,25.8619 L 36.3982,25.8619 L 36.3982,0.9578 L 35.4403,0.9578 Z" stroke-width="1px" stroke="#5AB1E3" fill="#5AB1E3"/>
          <path clip-path="url(#clip-1967513926)" d="M 36.3982,0.9578 L 36.3982,25.8619 L 37.3560,25.8619 L 37.3560,0.9578 L 36.3982,0.9578 Z" stroke-width="1px" stroke="#59B0E2" fill="#59B0E2"/>
          <path clip-path="url(#clip-1967513926)" d="M 37.3560,0.9578 L 37.3560,25.8619 L 38.3139,25.8619 L 38.3139,0.9578 L 37.3560,0.9578 Z" stroke-width="1px" stroke="#59AFE2" fill="#59AFE2"/>
          <path clip-path="url(#clip-1967513926)" d="M 38.3139,0.9578 L 38.3139,25.8619 L 39.2717,25.8619 L 39.2717,0.9578 L 38.3139,0.9578 Z" stroke-width="1px" stroke="#58ADE1" fill="#58ADE1"/>
          <path clip-path="url(#clip-1967513926)" d="M 39.2717,0.9578 L 39.2717,25.8619 L 40.2296,25.8619 L 40.2296,0.9578 L 39.2717,0.9578 Z" stroke-width="1px" stroke="#57ACE0" fill="#57ACE0"/>
          <path clip-path="url(#clip-1967513926)" d="M 40.2296,0.9578 L 40.2296,25.8619 L 41.1874,25.8619 L 41.1874,0.9578 L 40.2296,0.9578 Z" stroke-width="1px" stroke="#56AADF" fill="#56AADF"/>
          <path clip-path="url(#clip-1967513926)" d="M 41.1874,0.9578 L 41.1874,25.8619 L 42.1452,25.8619 L 42.1452,0.9578 L 41.1874,0.9578 Z" stroke-width="1px" stroke="#55A9DE" fill="#55A9DE"/>
          <path clip-path="url(#clip-1967513926)" d="M 42.1452,0.9578 L 42.1452,25.8619 L 43.1031,25.8619 L 43.1031,0.9578 L 42.1452,0.9578 Z" stroke-width="1px" stroke="#54A7DD" fill="#54A7DD"/>
          <path clip-path="url(#clip-1967513926)" d="M 43.1031,0.9578 L 43.1031,25.8619 L 44.0609,25.8619 L 44.0609,0.9578 L 43.1031,0.9578 Z" stroke-width="1px" stroke="#53A6DC" fill="#53A6DC"/>
          <path clip-path="url(#clip-1967513926)" d="M 44.0609,0.9578 L 44.0609,25.8619 L 45.0188,25.8619 L 45.0188,0.9578 L 44.0609,0.9578 Z" stroke-width="1px" stroke="#52A4DB" fill="#52A4DB"/>
          <path clip-path="url(#clip-1967513926)" d="M 45.0188,0.9578 L 45.0188,25.8619 L 45.9766,25.8619 L 45.9766,0.9578 L 45.0188,0.9578 Z" stroke-width="1px" stroke="#51A3DA" fill="#51A3DA"/>
          <path clip-path="url(#clip-1967513926)" d="M 45.9766,0.9578 L 45.9766,25.8619 L 46.9345,25.8619 L 46.9345,0.9578 L 45.9766,0.9578 Z" stroke-width="1px" stroke="#50A2D9" fill="#50A2D9"/>
          <path clip-path="url(#clip-1967513926)" d="M 46.9345,0.9578 L 46.9345,25.8619 L 47.8923,25.8619 L 47.8923,0.9578 L 46.9345,0.9578 Z" stroke-width="1px" stroke="#4FA0D8" fill="#4FA0D8"/>
          <path clip-path="url(#clip-1967513926)" d="M 47.8923,0.9578 L 47.8923,25.8619 L 48.8502,25.8619 L 48.8502,0.9578 L 47.8923,0.9578 Z" stroke-width="1px" stroke="#4E9FD7" fill="#4E9FD7"/>
          <path clip-path="url(#clip-1967513926)" d="M 48.8502,0.9578 L 48.8502,25.8619 L 49.8080,25.8619 L 49.8080,0.9578 L 48.8502,0.9578 Z" stroke-width="1px" stroke="#4D9ED6" fill="#4D9ED6"/>
          <path clip-path="url(#clip-1967513926)" d="M 49.8080,0.9578 L 49.8080,25.8619 L 50.7659,25.8619 L 50.7659,0.9578 L 49.8080,0.9578 Z" stroke-width="1px" stroke="#4C9DD5" fill="#4C9DD5"/>
          <path clip-path="url(#clip-1967513926)" d="M 50.7659,0.9578 L 50.7659,25.8619 L 51.7237,25.8619 L 51.7237,0.9578 L 50.7659,0.9578 Z" stroke-width="1px" stroke="#4B9BD4" fill="#4B9BD4"/>
          <path clip-path="url(#clip-1967513926)" d="M 51.7237,0.9578 L 51.7237,25.8619 L 52.6816,25.8619 L 52.6816,0.9578 L 51.7237,0.9578 Z" stroke-width="1px" stroke="#4A9AD3" fill="#4A9AD3"/>
          <path clip-path="url(#clip-1967513926)" d="M 52.6816,0.9578 L 52.6816,25.8619 L 53.6394,25.8619 L 53.6394,0.9578 L 52.6816,0.9578 Z" stroke-width="1px" stroke="#4998D3" fill="#4998D3"/>
          <path clip-path="url(#clip-1967513926)" d="M 53.6394,0.9578 L 53.6394,25.8619 L 54.5973,25.8619 L 54.5973,0.9578 L 53.6394,0.9578 Z" stroke-width="1px" stroke="#4897D2" fill="#4897D2"/>
          <path clip-path="url(#clip-1967513926)" d="M 54.5973,0.9578 L 54.5973,25.8619 L 55.5551,25.8619 L 55.5551,0.9578 L 54.5973,0.9578 Z" stroke-width="1px" stroke="#4795D1" fill="#4795D1"/>
        </g>
        <g transform="matrix(0.0625 0.0000 0.0000 0.0625 0.0000 0.0000)">
          <path d="M 873.5560,414.7475 L 873.5560,339.0777 C 883.1345,300.7638 888.8816,247.1244 888.8816,187.7379 C 888.8816,127.3936 873.5560,19.1569 873.5560,19.1569 L 63.2179,19.1569 C 63.2179,19.1569 47.8923,127.3936 47.8923,187.7379 C 47.8923,247.1244 53.6394,301.7217 63.2179,339.0777 L 63.2179,414.7475 L 873.5560,414.7475 " stroke="#0054A6" stroke-width="9.5785" stroke-linecap="round" stroke-linejoin="round" fill="none"/>
        </g>
        <g transform="matrix(1.0000 0.0000 0.0000 1.0000 0.0000 0.0000)">
</g>
        <g transform="matrix(0.0625 0.0000 0.0000 0.0625 0.0000 0.0000)">
          <path d="M 711.6800,335.2463 L 711.6800,359.1924 L 808.4225,359.1924 L 808.4225,335.2463 L 711.6800,335.2463 Z" stroke-width="1px" stroke="#8DC63F" fill="#8DC63F"/>
        </g>
        <g transform="matrix(1.0000 0.0000 0.0000 1.0000 0.0000 0.0000)">
</g>
        <g transform="matrix(0.0625 0.0000 0.0000 0.0625 0.0000 0.0000)">
          <path d="M 808.4225,359.1924 L 711.6800,359.1924 L 711.6800,335.2463 L 808.4225,335.2463 L 808.4225,359.1924 Z" stroke="#0054A6" stroke-width="7.6628" stroke-linecap="round" stroke-linejoin="round" fill="none"/>
        </g>
        <g transform="matrix(1.0000 0.0000 0.0000 1.0000 0.0000 0.0000)">
          <path d="M 50.7659,3.8314 C 50.7659,3.8314 48.8502,3.8314 46.9345,3.8314 C 44.0609,3.8314 41.1874,4.7892 41.1874,4.7892 C 41.1874,4.7892 32.5668,3.8314 28.7354,3.8314 C 24.9040,3.8314 8.6206,3.8314 8.6206,3.8314 C 8.6206,3.8314 7.6628,8.6206 7.6628,11.4942 C 7.6628,14.3677 7.6628,18.1991 8.6206,20.1148 C 8.6206,20.1148 22.0305,21.0726 31.6089,21.0726 C 37.3560,21.0726 44.0609,18.1991 44.0609,18.1991 L 50.7659,18.1991 C 51.7237,16.2834 51.7237,14.3677 51.7237,11.4942 C 51.7237,8.6206 50.7659,3.8314 50.7659,3.8314 Z " fill="none" stroke="none"/>
          <defs>
            <clipPath id="clip-1365180540">
              <path d="M 50.7659,3.8314 C 50.7659,3.8314 48.8502,3.8314 46.9345,3.8314 C 44.0609,3.8314 41.1874,4.7892 41.1874,4.7892 C 41.1874,4.7892 32.5668,3.8314 28.7354,3.8314 C 24.9040,3.8314 8.6206,3.8314 8.6206,3.8314 C 8.6206,3.8314 7.6628,8.6206 7.6628,11.4942 C 7.6628,14.3677 7.6628,18.1991 8.6206,20.1148 C 8.6206,20.1148 22.0305,21.0726 31.6089,21.0726 C 37.3560,21.0726 44.0609,18.1991 44.0609,18.1991 L 50.7659,18.1991 C 51.7237,16.2834 51.7237,14.3677 51.7237,11.4942 C 51.7237,8.6206 50.7659,3.8314 50.7659,3.8314 Z"/>
            </clipPath>
          </defs>
          <path clip-path="url(#clip-1365180540)" d="M 6.7049,2.8735 L 6.7049,20.1148 L 7.6628,20.1148 L 7.6628,2.8735 L 6.7049,2.8735 Z" stroke-width="1px" stroke="#59BCEC" fill="#59BCEC"/>
          <path clip-path="url(#clip-1365180540)" d="M 7.6628,2.8735 L 7.6628,20.1148 L 8.6206,20.1148 L 8.6206,2.8735 L 7.6628,2.8735 Z" stroke-width="1px" stroke="#016BAD" fill="#016BAD"/>
          <path clip-path="url(#clip-1365180540)" d="M 8.6206,2.8735 L 8.6206,20.1148 L 9.5785,20.1148 L 9.5785,2.8735 L 8.6206,2.8735 Z" stroke-width="1px" stroke="#036DAE" fill="#036DAE"/>
          <path clip-path="url(#clip-1365180540)" d="M 9.5785,2.8735 L 9.5785,20.1148 L 10.5363,20.1148 L 10.5363,2.8735 L 9.5785,2.8735 Z" stroke-width="1px" stroke="#066FB0" fill="#066FB0"/>
          <path clip-path="url(#clip-1365180540)" d="M 10.5363,2.8735 L 10.5363,20.1148 L 11.4942,20.1148 L 11.4942,2.8735 L 10.5363,2.8735 Z" stroke-width="1px" stroke="#0770B1" fill="#0770B1"/>
          <path clip-path="url(#clip-1365180540)" d="M 11.4942,2.8735 L 11.4942,20.1148 L 12.4520,20.1148 L 12.4520,2.8735 L 11.4942,2.8735 Z" stroke-width="1px" stroke="#0972B2" fill="#0972B2"/>
          <path clip-path="url(#clip-1365180540)" d="M 12.4520,2.8735 L 12.4520,20.1148 L 13.4099,20.1148 L 13.4099,2.8735 L 12.4520,2.8735 Z" stroke-width="1px" stroke="#0B74B4" fill="#0B74B4"/>
          <path clip-path="url(#clip-1365180540)" d="M 13.4099,2.8735 L 13.4099,20.1148 L 14.3677,20.1148 L 14.3677,2.8735 L 13.4099,2.8735 Z" stroke-width="1px" stroke="#0D76B5" fill="#0D76B5"/>
          <path clip-path="url(#clip-1365180540)" d="M 14.3677,2.8735 L 14.3677,20.1148 L 15.3255,20.1148 L 15.3255,2.8735 L 14.3677,2.8735 Z" stroke-width="1px" stroke="#0F78B7" fill="#0F78B7"/>
          <path clip-path="url(#clip-1365180540)" d="M 15.3255,2.8735 L 15.3255,20.1148 L 16.2834,20.1148 L 16.2834,2.8735 L 15.3255,2.8735 Z" stroke-width="1px" stroke="#117AB8" fill="#117AB8"/>
          <path clip-path="url(#clip-1365180540)" d="M 16.2834,2.8735 L 16.2834,20.1148 L 17.2412,20.1148 L 17.2412,2.8735 L 16.2834,2.8735 Z" stroke-width="1px" stroke="#137CB9" fill="#137CB9"/>
          <path clip-path="url(#clip-1365180540)" d="M 17.2412,2.8735 L 17.2412,20.1148 L 18.1991,20.1148 L 18.1991,2.8735 L 17.2412,2.8735 Z" stroke-width="1px" stroke="#157DBB" fill="#157DBB"/>
          <path clip-path="url(#clip-1365180540)" d="M 18.1991,2.8735 L 18.1991,20.1148 L 19.1569,20.1148 L 19.1569,2.8735 L 18.1991,2.8735 Z" stroke-width="1px" stroke="#177FBC" fill="#177FBC"/>
          <path clip-path="url(#clip-1365180540)" d="M 19.1569,2.8735 L 19.1569,20.1148 L 20.1148,20.1148 L 20.1148,2.8735 L 19.1569,2.8735 Z" stroke-width="1px" stroke="#1981BD" fill="#1981BD"/>
          <path clip-path="url(#clip-1365180540)" d="M 20.1148,2.8735 L 20.1148,20.1148 L 21.0726,20.1148 L 21.0726,2.8735 L 20.1148,2.8735 Z" stroke-width="1px" stroke="#1B83BF" fill="#1B83BF"/>
          <path clip-path="url(#clip-1365180540)" d="M 21.0726,2.8735 L 21.0726,20.1148 L 22.0305,20.1148 L 22.0305,2.8735 L 21.0726,2.8735 Z" stroke-width="1px" stroke="#1C84C0" fill="#1C84C0"/>
          <path clip-path="url(#clip-1365180540)" d="M 22.0305,2.8735 L 22.0305,20.1148 L 22.9883,20.1148 L 22.9883,2.8735 L 22.0305,2.8735 Z" stroke-width="1px" stroke="#1E86C2" fill="#1E86C2"/>
          <path clip-path="url(#clip-1365180540)" d="M 22.9883,2.8735 L 22.9883,20.1148 L 23.9462,20.1148 L 23.9462,2.8735 L 22.9883,2.8735 Z" stroke-width="1px" stroke="#2188C3" fill="#2188C3"/>
          <path clip-path="url(#clip-1365180540)" d="M 23.9462,2.8735 L 23.9462,20.1148 L 24.9040,20.1148 L 24.9040,2.8735 L 23.9462,2.8735 Z" stroke-width="1px" stroke="#2289C4" fill="#2289C4"/>
          <path clip-path="url(#clip-1365180540)" d="M 24.9040,2.8735 L 24.9040,20.1148 L 25.8619,20.1148 L 25.8619,2.8735 L 24.9040,2.8735 Z" stroke-width="1px" stroke="#248BC6" fill="#248BC6"/>
          <path clip-path="url(#clip-1365180540)" d="M 25.8619,2.8735 L 25.8619,20.1148 L 26.8197,20.1148 L 26.8197,2.8735 L 25.8619,2.8735 Z" stroke-width="1px" stroke="#268DC7" fill="#268DC7"/>
          <path clip-path="url(#clip-1365180540)" d="M 26.8197,2.8735 L 26.8197,20.1148 L 27.7775,20.1148 L 27.7775,2.8735 L 26.8197,2.8735 Z" stroke-width="1px" stroke="#288FC9" fill="#288FC9"/>
          <path clip-path="url(#clip-1365180540)" d="M 27.7775,2.8735 L 27.7775,20.1148 L 28.7354,20.1148 L 28.7354,2.8735 L 27.7775,2.8735 Z" stroke-width="1px" stroke="#2A91CA" fill="#2A91CA"/>
          <path clip-path="url(#clip-1365180540)" d="M 28.7354,2.8735 L 28.7354,20.1148 L 29.6932,20.1148 L 29.6932,2.8735 L 28.7354,2.8735 Z" stroke-width="1px" stroke="#2C93CB" fill="#2C93CB"/>
          <path clip-path="url(#clip-1365180540)" d="M 29.6932,2.8735 L 29.6932,20.1148 L 30.6511,20.1148 L 30.6511,2.8735 L 29.6932,2.8735 Z" stroke-width="1px" stroke="#2E95CD" fill="#2E95CD"/>
          <path clip-path="url(#clip-1365180540)" d="M 30.6511,2.8735 L 30.6511,20.1148 L 31.6089,20.1148 L 31.6089,2.8735 L 30.6511,2.8735 Z" stroke-width="1px" stroke="#3097CE" fill="#3097CE"/>
          <path clip-path="url(#clip-1365180540)" d="M 31.6089,2.8735 L 31.6089,20.1148 L 32.5668,20.1148 L 32.5668,2.8735 L 31.6089,2.8735 Z" stroke-width="1px" stroke="#3298CF" fill="#3298CF"/>
          <path clip-path="url(#clip-1365180540)" d="M 32.5668,2.8735 L 32.5668,20.1148 L 33.5246,20.1148 L 33.5246,2.8735 L 32.5668,2.8735 Z" stroke-width="1px" stroke="#349AD1" fill="#349AD1"/>
          <path clip-path="url(#clip-1365180540)" d="M 33.5246,2.8735 L 33.5246,20.1148 L 34.4825,20.1148 L 34.4825,2.8735 L 33.5246,2.8735 Z" stroke-width="1px" stroke="#369CD2" fill="#369CD2"/>
          <path clip-path="url(#clip-1365180540)" d="M 34.4825,2.8735 L 34.4825,20.1148 L 35.4403,20.1148 L 35.4403,2.8735 L 34.4825,2.8735 Z" stroke-width="1px" stroke="#379DD4" fill="#379DD4"/>
          <path clip-path="url(#clip-1365180540)" d="M 35.4403,2.8735 L 35.4403,20.1148 L 36.3982,20.1148 L 36.3982,2.8735 L 35.4403,2.8735 Z" stroke-width="1px" stroke="#399FD5" fill="#399FD5"/>
          <path clip-path="url(#clip-1365180540)" d="M 36.3982,2.8735 L 36.3982,20.1148 L 37.3560,20.1148 L 37.3560,2.8735 L 36.3982,2.8735 Z" stroke-width="1px" stroke="#3BA1D6" fill="#3BA1D6"/>
          <path clip-path="url(#clip-1365180540)" d="M 37.3560,2.8735 L 37.3560,20.1148 L 38.3139,20.1148 L 38.3139,2.8735 L 37.3560,2.8735 Z" stroke-width="1px" stroke="#3EA3D8" fill="#3EA3D8"/>
          <path clip-path="url(#clip-1365180540)" d="M 38.3139,2.8735 L 38.3139,20.1148 L 39.2717,20.1148 L 39.2717,2.8735 L 38.3139,2.8735 Z" stroke-width="1px" stroke="#40A4D9" fill="#40A4D9"/>
          <path clip-path="url(#clip-1365180540)" d="M 39.2717,2.8735 L 39.2717,20.1148 L 40.2296,20.1148 L 40.2296,2.8735 L 39.2717,2.8735 Z" stroke-width="1px" stroke="#42A6DA" fill="#42A6DA"/>
          <path clip-path="url(#clip-1365180540)" d="M 40.2296,2.8735 L 40.2296,20.1148 L 41.1874,20.1148 L 41.1874,2.8735 L 40.2296,2.8735 Z" stroke-width="1px" stroke="#44A8DC" fill="#44A8DC"/>
          <path clip-path="url(#clip-1365180540)" d="M 41.1874,2.8735 L 41.1874,20.1148 L 42.1452,20.1148 L 42.1452,2.8735 L 41.1874,2.8735 Z" stroke-width="1px" stroke="#46AADD" fill="#46AADD"/>
          <path clip-path="url(#clip-1365180540)" d="M 42.1452,2.8735 L 42.1452,20.1148 L 43.1031,20.1148 L 43.1031,2.8735 L 42.1452,2.8735 Z" stroke-width="1px" stroke="#47ABDF" fill="#47ABDF"/>
          <path clip-path="url(#clip-1365180540)" d="M 43.1031,2.8735 L 43.1031,20.1148 L 44.0609,20.1148 L 44.0609,2.8735 L 43.1031,2.8735 Z" stroke-width="1px" stroke="#49ADE0" fill="#49ADE0"/>
          <path clip-path="url(#clip-1365180540)" d="M 44.0609,2.8735 L 44.0609,20.1148 L 45.0188,20.1148 L 45.0188,2.8735 L 44.0609,2.8735 Z" stroke-width="1px" stroke="#4BAFE1" fill="#4BAFE1"/>
          <path clip-path="url(#clip-1365180540)" d="M 45.0188,2.8735 L 45.0188,20.1148 L 45.9766,20.1148 L 45.9766,2.8735 L 45.0188,2.8735 Z" stroke-width="1px" stroke="#4DB1E3" fill="#4DB1E3"/>
          <path clip-path="url(#clip-1365180540)" d="M 45.9766,2.8735 L 45.9766,20.1148 L 46.9345,20.1148 L 46.9345,2.8735 L 45.9766,2.8735 Z" stroke-width="1px" stroke="#4FB3E4" fill="#4FB3E4"/>
          <path clip-path="url(#clip-1365180540)" d="M 46.9345,2.8735 L 46.9345,20.1148 L 47.8923,20.1148 L 47.8923,2.8735 L 46.9345,2.8735 Z" stroke-width="1px" stroke="#51B5E5" fill="#51B5E5"/>
          <path clip-path="url(#clip-1365180540)" d="M 47.8923,2.8735 L 47.8923,20.1148 L 48.8502,20.1148 L 48.8502,2.8735 L 47.8923,2.8735 Z" stroke-width="1px" stroke="#53B7E7" fill="#53B7E7"/>
          <path clip-path="url(#clip-1365180540)" d="M 48.8502,2.8735 L 48.8502,20.1148 L 49.8080,20.1148 L 49.8080,2.8735 L 48.8502,2.8735 Z" stroke-width="1px" stroke="#54B8E8" fill="#54B8E8"/>
          <path clip-path="url(#clip-1365180540)" d="M 49.8080,2.8735 L 49.8080,20.1148 L 50.7659,20.1148 L 50.7659,2.8735 L 49.8080,2.8735 Z" stroke-width="1px" stroke="#56BAEA" fill="#56BAEA"/>
          <path clip-path="url(#clip-1365180540)" d="M 50.7659,2.8735 L 50.7659,20.1148 L 51.7237,20.1148 L 51.7237,2.8735 L 50.7659,2.8735 Z" stroke-width="1px" stroke="#59BCEB" fill="#59BCEB"/>
        </g>
        <g transform="matrix(0.0625 0.0000 0.0000 0.0625 0.0000 0.0000)">
          <path d="M 105.3631,173.3702 C 105.3631,126.4357 117.8151,60.3443 118.7730,60.3443 L 119.7308,53.6394 L 125.4779,53.6394 C 125.4779,53.6394 390.8014,47.8923 454.9771,47.8923 C 515.3214,47.8923 641.7572,60.3443 656.1249,61.3022 C 662.8298,59.3865 701.1436,49.8080 737.5418,48.8502 C 742.3310,48.8502 746.1624,48.8502 750.9517,48.8502 C 788.3077,48.8502 816.0852,52.6816 817.0431,53.6394 L 805.5489,69.9228 C 804.5911,70.8806 787.3498,65.1336 750.9517,65.1336 C 746.1624,65.1336 742.3310,65.1336 738.4997,65.1336 C 699.2280,67.0493 658.9984,78.5434 658.0406,78.5434 L 657.0827,78.5434 L 656.1249,78.5434 C 656.1249,78.5434 518.1950,64.1757 454.9771,64.1757 C 398.4641,64.1757 162.8339,68.9649 132.1828,69.9228 C 128.3514,87.1640 119.7308,137.9299 119.7308,173.3702 C 119.7308,219.3469 124.5200,274.9019 132.1828,301.7217 L 119.7308,315.1315 C 111.1102,284.4804 105.3631,220.3047 105.3631,173.3702 Z " fill="#0054A6" stroke="none"/>
        </g>
        <g transform="matrix(1.0000 0.0000 0.0000 1.0000 0.0000 0.0000)">
</g>
        <g transform="matrix(0.0625 0.0000 0.0000 0.0625 0.0000 0.0000)">
          <path d="M 105.3631,173.3702 C 105.3631,126.4357 117.8151,60.3443 118.7730,60.3443 L 119.7308,53.6394 L 125.4779,53.6394 C 125.4779,53.6394 390.8014,47.8923 454.9771,47.8923 C 515.3214,47.8923 641.7572,60.3443 656.1249,61.3022 C 662.8298,59.3865 701.1436,49.8080 737.5418,48.8502 C 742.3310,48.8502 746.1624,48.8502 750.9517,48.8502 C 788.3077,48.8502 816.0852,52.6816 817.0431,53.6394 L 805.5489,69.9228 C 804.5911,70.8806 787.3498,65.1336 750.9517,65.1336 C 746.1624,65.1336 742.3310,65.1336 738.4997,65.1336 C 699.2280,67.0493 658.9984,78.5434 658.0406,78.5434 L 657.0827,78.5434 L 656.1249,78.5434 C 656.1249,78.5434 518.1950,64.1757 454.9771,64.1757 C 398.4641,64.1757 162.8339,68.9649 132.1828,69.9228 C 128.3514,87.1640 119.7308,137.9299 119.7308,173.3702 C 119.7308,219.3469 124.5200,274.9019 132.1828,301.7217 L 119.7308,315.1315 C 111.1102,284.4804 105.3631,220.3047 105.3631,173.3702 Z " stroke="#0054A6" stroke-width="0.9578" stroke-linecap="butt" stroke-linejoin="round" fill="none"/>
        </g>
        <g transform="matrix(1.0000 0.0000 0.0000 1.0000 0.0000 0.0000)">
          <path d="M 7.6628,20.1148 L 8.6206,19.1569 C 10.5363,19.1569 23.9462,20.1148 31.6089,20.1148 C 34.4825,20.1148 37.3560,20.1148 39.2717,19.1569 C 42.1452,18.1991 43.1031,18.1991 43.1031,18.1991 L 44.0609,18.1991 L 50.7659,18.1991 C 50.7659,16.2834 51.7237,14.3677 51.7237,11.4942 C 51.7237,8.6206 50.7659,4.7892 50.7659,4.7892 L 51.7237,3.8314 C 51.7237,3.8314 52.6816,8.6206 52.6816,11.4942 C 52.6816,14.3677 51.7237,17.2412 51.7237,19.1569 L 51.7237,19.1569 L 44.0609,19.1569 C 43.1031,19.1569 36.3982,21.0726 31.6089,21.0726 C 22.0305,21.0726 8.6206,20.1148 8.6206,20.1148 L 7.6628,20.1148 Z " fill="none" stroke="none"/>
          <defs>
            <clipPath id="clip-1540383426">
              <path d="M 7.6628,20.1148 L 8.6206,19.1569 C 10.5363,19.1569 23.9462,20.1148 31.6089,20.1148 C 34.4825,20.1148 37.3560,20.1148 39.2717,19.1569 C 42.1452,18.1991 43.1031,18.1991 43.1031,18.1991 L 44.0609,18.1991 L 50.7659,18.1991 C 50.7659,16.2834 51.7237,14.3677 51.7237,11.4942 C 51.7237,8.6206 50.7659,4.7892 50.7659,4.7892 L 51.7237,3.8314 C 51.7237,3.8314 52.6816,8.6206 52.6816,11.4942 C 52.6816,14.3677 51.7237,17.2412 51.7237,19.1569 L 51.7237,19.1569 L 44.0609,19.1569 C 43.1031,19.1569 36.3982,21.0726 31.6089,21.0726 C 22.0305,21.0726 8.6206,20.1148 8.6206,20.1148 L 7.6628,20.1148 Z"/>
            </clipPath>
          </defs>
          <path clip-path="url(#clip-1540383426)" d="M 6.7049,2.8735 L 6.7049,21.0726 L 7.6628,21.0726 L 7.6628,2.8735 L 6.7049,2.8735 Z" stroke-width="1px" stroke="#9C9C9C" fill="#9C9C9C"/>
          <path clip-path="url(#clip-1540383426)" d="M 7.6628,2.8735 L 7.6628,21.0726 L 8.6206,21.0726 L 8.6206,2.8735 L 7.6628,2.8735 Z" stroke-width="1px" stroke="#9A9A9A" fill="#9A9A9A"/>
          <path clip-path="url(#clip-1540383426)" d="M 8.6206,2.8735 L 8.6206,21.0726 L 9.5785,21.0726 L 9.5785,2.8735 L 8.6206,2.8735 Z" stroke-width="1px" stroke="#9D9D9D" fill="#9D9D9D"/>
          <path clip-path="url(#clip-1540383426)" d="M 9.5785,2.8735 L 9.5785,21.0726 L 10.5363,21.0726 L 10.5363,2.8735 L 9.5785,2.8735 Z" stroke-width="1px" stroke="#9F9F9F" fill="#9F9F9F"/>
          <path clip-path="url(#clip-1540383426)" d="M 10.5363,2.8735 L 10.5363,21.0726 L 11.4942,21.0726 L 11.4942,2.8735 L 10.5363,2.8735 Z" stroke-width="1px" stroke="#A1A1A1" fill="#A1A1A1"/>
          <path clip-path="url(#clip-1540383426)" d="M 11.4942,2.8735 L 11.4942,21.0726 L 12.4520,21.0726 L 12.4520,2.8735 L 11.4942,2.8735 Z" stroke-width="1px" stroke="#A3A3A3" fill="#A3A3A3"/>
          <path clip-path="url(#clip-1540383426)" d="M 12.4520,2.8735 L 12.4520,21.0726 L 13.4099,21.0726 L 13.4099,2.8735 L 12.4520,2.8735 Z" stroke-width="1px" stroke="#A6A6A6" fill="#A6A6A6"/>
          <path clip-path="url(#clip-1540383426)" d="M 13.4099,2.8735 L 13.4099,21.0726 L 14.3677,21.0726 L 14.3677,2.8735 L 13.4099,2.8735 Z" stroke-width="1px" stroke="#A8A8A8" fill="#A8A8A8"/>
          <path clip-path="url(#clip-1540383426)" d="M 14.3677,2.8735 L 14.3677,21.0726 L 15.3255,21.0726 L 15.3255,2.8735 L 14.3677,2.8735 Z" stroke-width="1px" stroke="#AAAAAA" fill="#AAAAAA"/>
          <path clip-path="url(#clip-1540383426)" d="M 15.3255,2.8735 L 15.3255,21.0726 L 16.2834,21.0726 L 16.2834,2.8735 L 15.3255,2.8735 Z" stroke-width="1px" stroke="#ACACAC" fill="#ACACAC"/>
          <path clip-path="url(#clip-1540383426)" d="M 16.2834,2.8735 L 16.2834,21.0726 L 17.2412,21.0726 L 17.2412,2.8735 L 16.2834,2.8735 Z" stroke-width="1px" stroke="#AEAEAE" fill="#AEAEAE"/>
          <path clip-path="url(#clip-1540383426)" d="M 17.2412,2.8735 L 17.2412,21.0726 L 18.1991,21.0726 L 18.1991,2.8735 L 17.2412,2.8735 Z" stroke-width="1px" stroke="#B1B1B1" fill="#B1B1B1"/>
          <path clip-path="url(#clip-1540383426)" d="M 18.1991,2.8735 L 18.1991,21.0726 L 19.1569,21.0726 L 19.1569,2.8735 L 18.1991,2.8735 Z" stroke-width="1px" stroke="#B3B3B3" fill="#B3B3B3"/>
          <path clip-path="url(#clip-1540383426)" d="M 19.1569,2.8735 L 19.1569,21.0726 L 20.1148,21.0726 L 20.1148,2.8735 L 19.1569,2.8735 Z" stroke-width="1px" stroke="#B5B5B5" fill="#B5B5B5"/>
          <path clip-path="url(#clip-1540383426)" d="M 20.1148,2.8735 L 20.1148,21.0726 L 21.0726,21.0726 L 21.0726,2.8735 L 20.1148,2.8735 Z" stroke-width="1px" stroke="#B7B7B7" fill="#B7B7B7"/>
          <path clip-path="url(#clip-1540383426)" d="M 21.0726,2.8735 L 21.0726,21.0726 L 22.0305,21.0726 L 22.0305,2.8735 L 21.0726,2.8735 Z" stroke-width="1px" stroke="#B9B9B9" fill="#B9B9B9"/>
          <path clip-path="url(#clip-1540383426)" d="M 22.0305,2.8735 L 22.0305,21.0726 L 22.9883,21.0726 L 22.9883,2.8735 L 22.0305,2.8735 Z" stroke-width="1px" stroke="#BCBCBC" fill="#BCBCBC"/>
          <path clip-path="url(#clip-1540383426)" d="M 22.9883,2.8735 L 22.9883,21.0726 L 23.9462,21.0726 L 23.9462,2.8735 L 22.9883,2.8735 Z" stroke-width="1px" stroke="#BEBEBE" fill="#BEBEBE"/>
          <path clip-path="url(#clip-1540383426)" d="M 23.9462,2.8735 L 23.9462,21.0726 L 24.9040,21.0726 L 24.9040,2.8735 L 23.9462,2.8735 Z" stroke-width="1px" stroke="#C0C0C0" fill="#C0C0C0"/>
          <path clip-path="url(#clip-1540383426)" d="M 24.9040,2.8735 L 24.9040,21.0726 L 25.8619,21.0726 L 25.8619,2.8735 L 24.9040,2.8735 Z" stroke-width="1px" stroke="#C2C2C2" fill="#C2C2C2"/>
          <path clip-path="url(#clip-1540383426)" d="M 25.8619,2.8735 L 25.8619,21.0726 L 26.8197,21.0726 L 26.8197,2.8735 L 25.8619,2.8735 Z" stroke-width="1px" stroke="#C4C4C4" fill="#C4C4C4"/>
          <path clip-path="url(#clip-1540383426)" d="M 26.8197,2.8735 L 26.8197,21.0726 L 27.7775,21.0726 L 27.7775,2.8735 L 26.8197,2.8735 Z" stroke-width="1px" stroke="#C7C7C7" fill="#C7C7C7"/>
          <path clip-path="url(#clip-1540383426)" d="M 27.7775,2.8735 L 27.7775,21.0726 L 28.7354,21.0726 L 28.7354,2.8735 L 27.7775,2.8735 Z" stroke-width="1px" stroke="#C9C9C9" fill="#C9C9C9"/>
          <path clip-path="url(#clip-1540383426)" d="M 28.7354,2.8735 L 28.7354,21.0726 L 29.6932,21.0726 L 29.6932,2.8735 L 28.7354,2.8735 Z" stroke-width="1px" stroke="#CBCBCB" fill="#CBCBCB"/>
          <path clip-path="url(#clip-1540383426)" d="M 29.6932,2.8735 L 29.6932,21.0726 L 30.6511,21.0726 L 30.6511,2.8735 L 29.6932,2.8735 Z" stroke-width="1px" stroke="#CDCDCD" fill="#CDCDCD"/>
          <path clip-path="url(#clip-1540383426)" d="M 30.6511,2.8735 L 30.6511,21.0726 L 31.6089,21.0726 L 31.6089,2.8735 L 30.6511,2.8735 Z" stroke-width="1px" stroke="#CBCBCB" fill="#CBCBCB"/>
          <path clip-path="url(#clip-1540383426)" d="M 31.6089,2.8735 L 31.6089,21.0726 L 32.5668,21.0726 L 32.5668,2.8735 L 31.6089,2.8735 Z" stroke-width="1px" stroke="#C9C9C9" fill="#C9C9C9"/>
          <path clip-path="url(#clip-1540383426)" d="M 32.5668,2.8735 L 32.5668,21.0726 L 33.5246,21.0726 L 33.5246,2.8735 L 32.5668,2.8735 Z" stroke-width="1px" stroke="#C7C7C7" fill="#C7C7C7"/>
          <path clip-path="url(#clip-1540383426)" d="M 33.5246,2.8735 L 33.5246,21.0726 L 34.4825,21.0726 L 34.4825,2.8735 L 33.5246,2.8735 Z" stroke-width="1px" stroke="#C4C4C4" fill="#C4C4C4"/>
          <path clip-path="url(#clip-1540383426)" d="M 34.4825,2.8735 L 34.4825,21.0726 L 35.4403,21.0726 L 35.4403,2.8735 L 34.4825,2.8735 Z" stroke-width="1px" stroke="#C2C2C2" fill="#C2C2C2"/>
          <path clip-path="url(#clip-1540383426)" d="M 35.4403,2.8735 L 35.4403,21.0726 L 36.3982,21.0726 L 36.3982,2.8735 L 35.4403,2.8735 Z" stroke-width="1px" stroke="#C0C0C0" fill="#C0C0C0"/>
          <path clip-path="url(#clip-1540383426)" d="M 36.3982,2.8735 L 36.3982,21.0726 L 37.3560,21.0726 L 37.3560,2.8735 L 36.3982,2.8735 Z" stroke-width="1px" stroke="#BDBDBD" fill="#BDBDBD"/>
          <path clip-path="url(#clip-1540383426)" d="M 37.3560,2.8735 L 37.3560,21.0726 L 38.3139,21.0726 L 38.3139,2.8735 L 37.3560,2.8735 Z" stroke-width="1px" stroke="#BBBBBB" fill="#BBBBBB"/>
          <path clip-path="url(#clip-1540383426)" d="M 38.3139,2.8735 L 38.3139,21.0726 L 39.2717,21.0726 L 39.2717,2.8735 L 38.3139,2.8735 Z" stroke-width="1px" stroke="#B9B9B9" fill="#B9B9B9"/>
          <path clip-path="url(#clip-1540383426)" d="M 39.2717,2.8735 L 39.2717,21.0726 L 40.2296,21.0726 L 40.2296,2.8735 L 39.2717,2.8735 Z" stroke-width="1px" stroke="#B7B7B7" fill="#B7B7B7"/>
          <path clip-path="url(#clip-1540383426)" d="M 40.2296,2.8735 L 40.2296,21.0726 L 41.1874,21.0726 L 41.1874,2.8735 L 40.2296,2.8735 Z" stroke-width="1px" stroke="#B5B5B5" fill="#B5B5B5"/>
          <path clip-path="url(#clip-1540383426)" d="M 41.1874,2.8735 L 41.1874,21.0726 L 42.1452,21.0726 L 42.1452,2.8735 L 41.1874,2.8735 Z" stroke-width="1px" stroke="#B3B3B3" fill="#B3B3B3"/>
          <path clip-path="url(#clip-1540383426)" d="M 42.1452,2.8735 L 42.1452,21.0726 L 43.1031,21.0726 L 43.1031,2.8735 L 42.1452,2.8735 Z" stroke-width="1px" stroke="#B1B1B1" fill="#B1B1B1"/>
          <path clip-path="url(#clip-1540383426)" d="M 43.1031,2.8735 L 43.1031,21.0726 L 44.0609,21.0726 L 44.0609,2.8735 L 43.1031,2.8735 Z" stroke-width="1px" stroke="#AEAEAE" fill="#AEAEAE"/>
          <path clip-path="url(#clip-1540383426)" d="M 44.0609,2.8735 L 44.0609,21.0726 L 45.0188,21.0726 L 45.0188,2.8735 L 44.0609,2.8735 Z" stroke-width="1px" stroke="#ACACAC" fill="#ACACAC"/>
          <path clip-path="url(#clip-1540383426)" d="M 45.0188,2.8735 L 45.0188,21.0726 L 45.9766,21.0726 L 45.9766,2.8735 L 45.0188,2.8735 Z" stroke-width="1px" stroke="#AAAAAA" fill="#AAAAAA"/>
          <path clip-path="url(#clip-1540383426)" d="M 45.9766,2.8735 L 45.9766,21.0726 L 46.9345,21.0726 L 46.9345,2.8735 L 45.9766,2.8735 Z" stroke-width="1px" stroke="#A8A8A8" fill="#A8A8A8"/>
          <path clip-path="url(#clip-1540383426)" d="M 46.9345,2.8735 L 46.9345,21.0726 L 47.8923,21.0726 L 47.8923,2.8735 L 46.9345,2.8735 Z" stroke-width="1px" stroke="#A6A6A6" fill="#A6A6A6"/>
          <path clip-path="url(#clip-1540383426)" d="M 47.8923,2.8735 L 47.8923,21.0726 L 48.8502,21.0726 L 48.8502,2.8735 L 47.8923,2.8735 Z" stroke-width="1px" stroke="#A3A3A3" fill="#A3A3A3"/>
          <path clip-path="url(#clip-1540383426)" d="M 48.8502,2.8735 L 48.8502,21.0726 L 49.8080,21.0726 L 49.8080,2.8735 L 48.8502,2.8735 Z" stroke-width="1px" stroke="#A1A1A1" fill="#A1A1A1"/>
          <path clip-path="url(#clip-1540383426)" d="M 49.8080,2.8735 L 49.8080,21.0726 L 50.7659,21.0726 L 50.7659,2.8735 L 49.8080,2.8735 Z" stroke-width="1px" stroke="#9F9F9F" fill="#9F9F9F"/>
          <path clip-path="url(#clip-1540383426)" d="M 50.7659,2.8735 L 50.7659,21.0726 L 51.7237,21.0726 L 51.7237,2.8735 L 50.7659,2.8735 Z" stroke-width="1px" stroke="#9C9C9C" fill="#9C9C9C"/>
        </g>
        <g transform="matrix(0.0625 0.0000 0.0000 0.0625 0.0000 0.0000)">
          <path d="M 119.7308,315.1315 L 132.1828,300.7638 C 158.0447,303.6373 368.7709,318.9629 491.3753,318.9629 C 538.3097,318.9629 588.1178,309.3844 626.4316,300.7638 C 663.7876,291.1853 689.6495,282.5647 690.6073,282.5647 L 691.5652,281.6069 L 805.5489,281.6069 C 812.2538,253.8293 816.0852,216.4733 816.0852,174.3281 C 816.0852,129.3093 805.5489,70.8806 805.5489,69.9228 L 817.0431,53.6394 C 817.0431,53.6394 831.4108,126.4357 831.4108,174.3281 C 831.4108,220.3047 825.6637,262.4499 818.0009,293.1010 L 816.0852,298.8481 L 693.4809,298.8481 C 681.9867,302.6795 582.3707,335.2463 491.3753,335.2463 C 351.5297,335.2463 125.4779,316.0893 124.5200,316.0893 L 119.7308,315.1315 " stroke="#9A9A9A" stroke-width="0.9578" stroke-linecap="butt" stroke-linejoin="round" fill="none"/>
        </g>
        <g transform="matrix(1.0000 0.0000 0.0000 1.0000 0.0000 0.0000)">
</g>
        <g transform="matrix(0.0625 0.0000 0.0000 0.0625 0.0000 0.0000)">
          <path d="M 187.7379,266.2813 C 192.5271,247.1244 195.4007,206.8948 195.4007,177.2016 C 195.4007,147.5084 192.5271,108.2367 187.7379,88.1219 M 269.1549,260.5343 C 274.9019,242.3352 277.7755,205.9370 277.7755,177.2016 C 277.7755,149.4241 274.9019,113.0259 269.1549,94.8268 M 351.5297,254.7872 C 356.3189,237.5459 359.1924,204.0213 359.1924,178.1595 C 359.1924,151.3397 356.3189,117.8151 351.5297,100.5739 M 433.9045,249.0401 C 438.6937,232.7567 441.5672,203.0635 441.5672,178.1595 C 441.5672,152.2976 438.6937,122.6044 433.9045,106.3210 M 515.3214,244.2509 C 520.1107,227.9675 522.9842,201.1478 522.9842,178.1595 C 522.9842,154.2133 520.1107,127.3936 515.3214,112.0680 M 597.6962,238.5038 C 602.4855,224.1361 605.3590,200.1899 605.3590,178.1595 C 605.3590,155.1711 602.4855,132.1828 597.6962,116.8573 M 679.1132,233.7145 C 683.9024,219.3469 686.7759,199.2321 686.7759,178.1595 C 686.7759,157.0868 683.9024,136.0142 679.1132,122.6044 M 761.4880,227.9675 C 766.2772,215.5155 769.1507,197.3164 769.1507,178.1595 C 769.1507,158.0447 766.2772,140.8034 761.4880,127.3936 " stroke="#C8E6F2" stroke-width="11.4942" stroke-linecap="round" stroke-linejoin="round" fill="none"/>
        </g>
        <g transform="matrix(1.0000 0.0000 0.0000 1.0000 0.0000 0.0000)">
          <path d="M 21.0726,15.3255 L 21.0726,37.3560 L 23.9462,39.2717 L 23.9462,14.3677 L 21.0726,15.3255 " fill="none" stroke="none"/>
          <defs>
            <clipPath id="clip-304089172">
              <path d="M 21.0726,15.3255 L 21.0726,37.3560 L 23.9462,39.2717 L 23.9462,14.3677 L 21.0726,15.3255 Z"/>
            </clipPath>
          </defs>
          <path clip-path="url(#clip-304089172)" d="M 20.1148,13.4099 L 20.1148,14.3677 L 22.9883,14.3677 L 22.9883,13.4099 L 20.1148,13.4099 Z" stroke-width="1px" stroke="#56BCEB" fill="#56BCEB"/>
          <path clip-path="url(#clip-304089172)" d="M 20.1148,14.3677 L 20.1148,15.3255 L 22.9883,15.3255 L 22.9883,14.3677 L 20.1148,14.3677 Z" stroke-width="1px" stroke="#0379C2" fill="#0379C2"/>
          <path clip-path="url(#clip-304089172)" d="M 20.1148,15.3255 L 20.1148,16.2834 L 22.9883,16.2834 L 22.9883,15.3255 L 20.1148,15.3255 Z" stroke-width="1px" stroke="#067CC3" fill="#067CC3"/>
          <path clip-path="url(#clip-304089172)" d="M 20.1148,16.2834 L 20.1148,17.2412 L 22.9883,17.2412 L 22.9883,16.2834 L 20.1148,16.2834 Z" stroke-width="1px" stroke="#0A7FC5" fill="#0A7FC5"/>
          <path clip-path="url(#clip-304089172)" d="M 20.1148,17.2412 L 20.1148,18.1991 L 22.9883,18.1991 L 22.9883,17.2412 L 20.1148,17.2412 Z" stroke-width="1px" stroke="#0D82C6" fill="#0D82C6"/>
          <path clip-path="url(#clip-304089172)" d="M 20.1148,18.1991 L 20.1148,19.1569 L 22.9883,19.1569 L 22.9883,18.1991 L 20.1148,18.1991 Z" stroke-width="1px" stroke="#1084C8" fill="#1084C8"/>
          <path clip-path="url(#clip-304089172)" d="M 20.1148,19.1569 L 20.1148,20.1148 L 22.9883,20.1148 L 22.9883,19.1569 L 20.1148,19.1569 Z" stroke-width="1px" stroke="#1486CA" fill="#1486CA"/>
          <path clip-path="url(#clip-304089172)" d="M 20.1148,20.1148 L 20.1148,21.0726 L 22.9883,21.0726 L 22.9883,20.1148 L 20.1148,20.1148 Z" stroke-width="1px" stroke="#1789CB" fill="#1789CB"/>
          <path clip-path="url(#clip-304089172)" d="M 20.1148,21.0726 L 20.1148,22.0305 L 22.9883,22.0305 L 22.9883,21.0726 L 20.1148,21.0726 Z" stroke-width="1px" stroke="#1A8CCD" fill="#1A8CCD"/>
          <path clip-path="url(#clip-304089172)" d="M 20.1148,22.0305 L 20.1148,22.9883 L 22.9883,22.9883 L 22.9883,22.0305 L 20.1148,22.0305 Z" stroke-width="1px" stroke="#1D8FCE" fill="#1D8FCE"/>
          <path clip-path="url(#clip-304089172)" d="M 20.1148,22.9883 L 20.1148,23.9462 L 22.9883,23.9462 L 22.9883,22.9883 L 20.1148,22.9883 Z" stroke-width="1px" stroke="#2191D0" fill="#2191D0"/>
          <path clip-path="url(#clip-304089172)" d="M 20.1148,23.9462 L 20.1148,24.9040 L 22.9883,24.9040 L 22.9883,23.9462 L 20.1148,23.9462 Z" stroke-width="1px" stroke="#2494D2" fill="#2494D2"/>
          <path clip-path="url(#clip-304089172)" d="M 20.1148,24.9040 L 20.1148,25.8619 L 22.9883,25.8619 L 22.9883,24.9040 L 20.1148,24.9040 Z" stroke-width="1px" stroke="#2897D4" fill="#2897D4"/>
          <path clip-path="url(#clip-304089172)" d="M 20.1148,25.8619 L 20.1148,26.8197 L 22.9883,26.8197 L 22.9883,25.8619 L 20.1148,25.8619 Z" stroke-width="1px" stroke="#2B9AD6" fill="#2B9AD6"/>
          <path clip-path="url(#clip-304089172)" d="M 20.1148,26.8197 L 20.1148,27.7775 L 22.9883,27.7775 L 22.9883,26.8197 L 20.1148,26.8197 Z" stroke-width="1px" stroke="#2E9CD7" fill="#2E9CD7"/>
          <path clip-path="url(#clip-304089172)" d="M 20.1148,27.7775 L 20.1148,28.7354 L 22.9883,28.7354 L 22.9883,27.7775 L 20.1148,27.7775 Z" stroke-width="1px" stroke="#319FD9" fill="#319FD9"/>
          <path clip-path="url(#clip-304089172)" d="M 20.1148,28.7354 L 20.1148,29.6932 L 22.9883,29.6932 L 22.9883,28.7354 L 20.1148,28.7354 Z" stroke-width="1px" stroke="#35A1DA" fill="#35A1DA"/>
          <path clip-path="url(#clip-304089172)" d="M 20.1148,29.6932 L 20.1148,30.6511 L 22.9883,30.6511 L 22.9883,29.6932 L 20.1148,29.6932 Z" stroke-width="1px" stroke="#38A4DC" fill="#38A4DC"/>
          <path clip-path="url(#clip-304089172)" d="M 20.1148,30.6511 L 20.1148,31.6089 L 22.9883,31.6089 L 22.9883,30.6511 L 20.1148,30.6511 Z" stroke-width="1px" stroke="#3BA6DE" fill="#3BA6DE"/>
          <path clip-path="url(#clip-304089172)" d="M 20.1148,31.6089 L 20.1148,32.5668 L 22.9883,32.5668 L 22.9883,31.6089 L 20.1148,31.6089 Z" stroke-width="1px" stroke="#3FA9DF" fill="#3FA9DF"/>
          <path clip-path="url(#clip-304089172)" d="M 20.1148,32.5668 L 20.1148,33.5246 L 22.9883,33.5246 L 22.9883,32.5668 L 20.1148,32.5668 Z" stroke-width="1px" stroke="#42ACE1" fill="#42ACE1"/>
          <path clip-path="url(#clip-304089172)" d="M 20.1148,33.5246 L 20.1148,34.4825 L 22.9883,34.4825 L 22.9883,33.5246 L 20.1148,33.5246 Z" stroke-width="1px" stroke="#45AEE3" fill="#45AEE3"/>
          <path clip-path="url(#clip-304089172)" d="M 20.1148,34.4825 L 20.1148,35.4403 L 22.9883,35.4403 L 22.9883,34.4825 L 20.1148,34.4825 Z" stroke-width="1px" stroke="#48B1E4" fill="#48B1E4"/>
          <path clip-path="url(#clip-304089172)" d="M 20.1148,35.4403 L 20.1148,36.3982 L 22.9883,36.3982 L 22.9883,35.4403 L 20.1148,35.4403 Z" stroke-width="1px" stroke="#4CB4E6" fill="#4CB4E6"/>
          <path clip-path="url(#clip-304089172)" d="M 20.1148,36.3982 L 20.1148,37.3560 L 22.9883,37.3560 L 22.9883,36.3982 L 20.1148,36.3982 Z" stroke-width="1px" stroke="#4FB7E7" fill="#4FB7E7"/>
          <path clip-path="url(#clip-304089172)" d="M 20.1148,37.3560 L 20.1148,38.3139 L 22.9883,38.3139 L 22.9883,37.3560 L 20.1148,37.3560 Z" stroke-width="1px" stroke="#53B9E9" fill="#53B9E9"/>
        </g>
        <g transform="matrix(0.0625 0.0000 0.0000 0.0625 0.0000 0.0000)">
          <path d="M 324.7100,243.2930 L 324.7100,589.0756 L 369.7288,614.9375 L 369.7288,217.4312 L 324.7100,243.2930 " stroke="#0054A6" stroke-width="9.5785" stroke-linecap="round" stroke-linejoin="round" fill="none"/>
        </g>
        <g transform="matrix(1.0000 0.0000 0.0000 1.0000 0.0000 0.0000)">
</g>
        <g transform="matrix(0.0625 0.0000 0.0000 0.0625 0.0000 0.0000)">
          <path d="M 369.7288,217.4312 L 369.7288,614.9375 L 1195.3924,614.9375 L 1195.3924,217.4312 L 369.7288,217.4312 Z" stroke-width="1px" stroke="#4694D0" fill="#4694D0"/>
        </g>
        <g transform="matrix(1.0000 0.0000 0.0000 1.0000 0.0000 0.0000)">
</g>
        <g transform="matrix(0.0625 0.0000 0.0000 0.0625 0.0000 0.0000)">
          <path d="M 369.7288,614.9375 L 1195.3924,614.9375 L 1195.3924,217.4312 L 369.7288,217.4312 L 369.7288,614.9375 Z" stroke="#0054A6" stroke-width="9.5785" stroke-linecap="round" stroke-linejoin="round" fill="none"/>
        </g>
        <g transform="matrix(1.0000 0.0000 0.0000 1.0000 0.0000 0.0000)">
          <path d="M 73.7542,39.2717 L 73.7542,34.4825 C 74.7120,31.6089 74.7120,28.7354 74.7120,24.9040 C 74.7120,21.0726 73.7542,14.3677 73.7542,14.3677 L 23.9462,14.3677 C 23.9462,14.3677 22.9883,21.0726 22.9883,24.9040 C 22.9883,28.7354 22.9883,31.6089 23.9462,34.4825 L 23.9462,39.2717 L 73.7542,39.2717 Z " fill="none" stroke="none"/>
          <defs>
            <clipPath id="clip-1303455736">
              <path d="M 73.7542,39.2717 L 73.7542,34.4825 C 74.7120,31.6089 74.7120,28.7354 74.7120,24.9040 C 74.7120,21.0726 73.7542,14.3677 73.7542,14.3677 L 23.9462,14.3677 C 23.9462,14.3677 22.9883,21.0726 22.9883,24.9040 C 22.9883,28.7354 22.9883,31.6089 23.9462,34.4825 L 23.9462,39.2717 L 73.7542,39.2717 Z"/>
            </clipPath>
          </defs>
          <path clip-path="url(#clip-1303455736)" d="M 22.0305,13.4099 L 22.0305,38.3139 L 22.9883,38.3139 L 22.9883,13.4099 L 22.0305,13.4099 Z" stroke-width="1px" stroke="#4694D0" fill="#4694D0"/>
          <path clip-path="url(#clip-1303455736)" d="M 22.9883,13.4099 L 22.9883,38.3139 L 23.9462,38.3139 L 23.9462,13.4099 L 22.9883,13.4099 Z" stroke-width="1px" stroke="#4795D1" fill="#4795D1"/>
          <path clip-path="url(#clip-1303455736)" d="M 23.9462,13.4099 L 23.9462,38.3139 L 24.9040,38.3139 L 24.9040,13.4099 L 23.9462,13.4099 Z" stroke-width="1px" stroke="#4897D2" fill="#4897D2"/>
          <path clip-path="url(#clip-1303455736)" d="M 24.9040,13.4099 L 24.9040,38.3139 L 25.8619,38.3139 L 25.8619,13.4099 L 24.9040,13.4099 Z" stroke-width="1px" stroke="#4998D3" fill="#4998D3"/>
          <path clip-path="url(#clip-1303455736)" d="M 25.8619,13.4099 L 25.8619,38.3139 L 26.8197,38.3139 L 26.8197,13.4099 L 25.8619,13.4099 Z" stroke-width="1px" stroke="#4A9AD3" fill="#4A9AD3"/>
          <path clip-path="url(#clip-1303455736)" d="M 26.8197,13.4099 L 26.8197,38.3139 L 27.7775,38.3139 L 27.7775,13.4099 L 26.8197,13.4099 Z" stroke-width="1px" stroke="#4B9BD4" fill="#4B9BD4"/>
          <path clip-path="url(#clip-1303455736)" d="M 27.7775,13.4099 L 27.7775,38.3139 L 28.7354,38.3139 L 28.7354,13.4099 L 27.7775,13.4099 Z" stroke-width="1px" stroke="#4C9DD5" fill="#4C9DD5"/>
          <path clip-path="url(#clip-1303455736)" d="M 28.7354,13.4099 L 28.7354,38.3139 L 29.6932,38.3139 L 29.6932,13.4099 L 28.7354,13.4099 Z" stroke-width="1px" stroke="#4D9ED6" fill="#4D9ED6"/>
          <path clip-path="url(#clip-1303455736)" d="M 29.6932,13.4099 L 29.6932,38.3139 L 30.6511,38.3139 L 30.6511,13.4099 L 29.6932,13.4099 Z" stroke-width="1px" stroke="#4E9FD7" fill="#4E9FD7"/>
          <path clip-path="url(#clip-1303455736)" d="M 30.6511,13.4099 L 30.6511,38.3139 L 31.6089,38.3139 L 31.6089,13.4099 L 30.6511,13.4099 Z" stroke-width="1px" stroke="#4FA0D8" fill="#4FA0D8"/>
          <path clip-path="url(#clip-1303455736)" d="M 31.6089,13.4099 L 31.6089,38.3139 L 32.5668,38.3139 L 32.5668,13.4099 L 31.6089,13.4099 Z" stroke-width="1px" stroke="#50A2D9" fill="#50A2D9"/>
          <path clip-path="url(#clip-1303455736)" d="M 32.5668,13.4099 L 32.5668,38.3139 L 33.5246,38.3139 L 33.5246,13.4099 L 32.5668,13.4099 Z" stroke-width="1px" stroke="#51A3DA" fill="#51A3DA"/>
          <path clip-path="url(#clip-1303455736)" d="M 33.5246,13.4099 L 33.5246,38.3139 L 34.4825,38.3139 L 34.4825,13.4099 L 33.5246,13.4099 Z" stroke-width="1px" stroke="#52A4DB" fill="#52A4DB"/>
          <path clip-path="url(#clip-1303455736)" d="M 34.4825,13.4099 L 34.4825,38.3139 L 35.4403,38.3139 L 35.4403,13.4099 L 34.4825,13.4099 Z" stroke-width="1px" stroke="#53A6DC" fill="#53A6DC"/>
          <path clip-path="url(#clip-1303455736)" d="M 35.4403,13.4099 L 35.4403,38.3139 L 36.3982,38.3139 L 36.3982,13.4099 L 35.4403,13.4099 Z" stroke-width="1px" stroke="#54A7DD" fill="#54A7DD"/>
          <path clip-path="url(#clip-1303455736)" d="M 36.3982,13.4099 L 36.3982,38.3139 L 37.3560,38.3139 L 37.3560,13.4099 L 36.3982,13.4099 Z" stroke-width="1px" stroke="#55A9DE" fill="#55A9DE"/>
          <path clip-path="url(#clip-1303455736)" d="M 37.3560,13.4099 L 37.3560,38.3139 L 38.3139,38.3139 L 38.3139,13.4099 L 37.3560,13.4099 Z" stroke-width="1px" stroke="#56AADF" fill="#56AADF"/>
          <path clip-path="url(#clip-1303455736)" d="M 38.3139,13.4099 L 38.3139,38.3139 L 39.2717,38.3139 L 39.2717,13.4099 L 38.3139,13.4099 Z" stroke-width="1px" stroke="#57ACE0" fill="#57ACE0"/>
          <path clip-path="url(#clip-1303455736)" d="M 39.2717,13.4099 L 39.2717,38.3139 L 40.2296,38.3139 L 40.2296,13.4099 L 39.2717,13.4099 Z" stroke-width="1px" stroke="#58ADE1" fill="#58ADE1"/>
          <path clip-path="url(#clip-1303455736)" d="M 40.2296,13.4099 L 40.2296,38.3139 L 41.1874,38.3139 L 41.1874,13.4099 L 40.2296,13.4099 Z" stroke-width="1px" stroke="#59AFE2" fill="#59AFE2"/>
          <path clip-path="url(#clip-1303455736)" d="M 41.1874,13.4099 L 41.1874,38.3139 L 42.1452,38.3139 L 42.1452,13.4099 L 41.1874,13.4099 Z" stroke-width="1px" stroke="#59B0E2" fill="#59B0E2"/>
          <path clip-path="url(#clip-1303455736)" d="M 42.1452,13.4099 L 42.1452,38.3139 L 43.1031,38.3139 L 43.1031,13.4099 L 42.1452,13.4099 Z" stroke-width="1px" stroke="#5AB1E3" fill="#5AB1E3"/>
          <path clip-path="url(#clip-1303455736)" d="M 43.1031,13.4099 L 43.1031,38.3139 L 44.0609,38.3139 L 44.0609,13.4099 L 43.1031,13.4099 Z" stroke-width="1px" stroke="#5CB3E4" fill="#5CB3E4"/>
          <path clip-path="url(#clip-1303455736)" d="M 44.0609,13.4099 L 44.0609,38.3139 L 45.0188,38.3139 L 45.0188,13.4099 L 44.0609,13.4099 Z" stroke-width="1px" stroke="#5DB4E5" fill="#5DB4E5"/>
          <path clip-path="url(#clip-1303455736)" d="M 45.0188,13.4099 L 45.0188,38.3139 L 45.9766,38.3139 L 45.9766,13.4099 L 45.0188,13.4099 Z" stroke-width="1px" stroke="#5EB5E6" fill="#5EB5E6"/>
          <path clip-path="url(#clip-1303455736)" d="M 45.9766,13.4099 L 45.9766,38.3139 L 46.9345,38.3139 L 46.9345,13.4099 L 45.9766,13.4099 Z" stroke-width="1px" stroke="#5FB6E7" fill="#5FB6E7"/>
          <path clip-path="url(#clip-1303455736)" d="M 46.9345,13.4099 L 46.9345,38.3139 L 47.8923,38.3139 L 47.8923,13.4099 L 46.9345,13.4099 Z" stroke-width="1px" stroke="#60B8E8" fill="#60B8E8"/>
          <path clip-path="url(#clip-1303455736)" d="M 47.8923,13.4099 L 47.8923,38.3139 L 49.8080,38.3139 L 49.8080,13.4099 L 47.8923,13.4099 Z" stroke-width="1px" stroke="#61B9E9" fill="#61B9E9"/>
          <path clip-path="url(#clip-1303455736)" d="M 49.8080,13.4099 L 49.8080,38.3139 L 50.7659,38.3139 L 50.7659,13.4099 L 49.8080,13.4099 Z" stroke-width="1px" stroke="#60B8E8" fill="#60B8E8"/>
          <path clip-path="url(#clip-1303455736)" d="M 50.7659,13.4099 L 50.7659,38.3139 L 51.7237,38.3139 L 51.7237,13.4099 L 50.7659,13.4099 Z" stroke-width="1px" stroke="#5FB6E7" fill="#5FB6E7"/>
          <path clip-path="url(#clip-1303455736)" d="M 51.7237,13.4099 L 51.7237,38.3139 L 52.6816,38.3139 L 52.6816,13.4099 L 51.7237,13.4099 Z" stroke-width="1px" stroke="#5EB5E6" fill="#5EB5E6"/>
          <path clip-path="url(#clip-1303455736)" d="M 52.6816,13.4099 L 52.6816,38.3139 L 53.6394,38.3139 L 53.6394,13.4099 L 52.6816,13.4099 Z" stroke-width="1px" stroke="#5DB4E5" fill="#5DB4E5"/>
          <path clip-path="url(#clip-1303455736)" d="M 53.6394,13.4099 L 53.6394,38.3139 L 54.5973,38.3139 L 54.5973,13.4099 L 53.6394,13.4099 Z" stroke-width="1px" stroke="#5CB3E4" fill="#5CB3E4"/>
          <path clip-path="url(#clip-1303455736)" d="M 54.5973,13.4099 L 54.5973,38.3139 L 55.5551,38.3139 L 55.5551,13.4099 L 54.5973,13.4099 Z" stroke-width="1px" stroke="#5AB1E3" fill="#5AB1E3"/>
          <path clip-path="url(#clip-1303455736)" d="M 55.5551,13.4099 L 55.5551,38.3139 L 56.5129,38.3139 L 56.5129,13.4099 L 55.5551,13.4099 Z" stroke-width="1px" stroke="#59B0E2" fill="#59B0E2"/>
          <path clip-path="url(#clip-1303455736)" d="M 56.5129,13.4099 L 56.5129,38.3139 L 57.4708,38.3139 L 57.4708,13.4099 L 56.5129,13.4099 Z" stroke-width="1px" stroke="#59AFE2" fill="#59AFE2"/>
          <path clip-path="url(#clip-1303455736)" d="M 57.4708,13.4099 L 57.4708,38.3139 L 58.4286,38.3139 L 58.4286,13.4099 L 57.4708,13.4099 Z" stroke-width="1px" stroke="#58ADE1" fill="#58ADE1"/>
          <path clip-path="url(#clip-1303455736)" d="M 58.4286,13.4099 L 58.4286,38.3139 L 59.3865,38.3139 L 59.3865,13.4099 L 58.4286,13.4099 Z" stroke-width="1px" stroke="#57ACE0" fill="#57ACE0"/>
          <path clip-path="url(#clip-1303455736)" d="M 59.3865,13.4099 L 59.3865,38.3139 L 60.3443,38.3139 L 60.3443,13.4099 L 59.3865,13.4099 Z" stroke-width="1px" stroke="#56AADF" fill="#56AADF"/>
          <path clip-path="url(#clip-1303455736)" d="M 60.3443,13.4099 L 60.3443,38.3139 L 61.3022,38.3139 L 61.3022,13.4099 L 60.3443,13.4099 Z" stroke-width="1px" stroke="#55A9DE" fill="#55A9DE"/>
          <path clip-path="url(#clip-1303455736)" d="M 61.3022,13.4099 L 61.3022,38.3139 L 62.2600,38.3139 L 62.2600,13.4099 L 61.3022,13.4099 Z" stroke-width="1px" stroke="#54A7DD" fill="#54A7DD"/>
          <path clip-path="url(#clip-1303455736)" d="M 62.2600,13.4099 L 62.2600,38.3139 L 63.2179,38.3139 L 63.2179,13.4099 L 62.2600,13.4099 Z" stroke-width="1px" stroke="#53A6DC" fill="#53A6DC"/>
          <path clip-path="url(#clip-1303455736)" d="M 63.2179,13.4099 L 63.2179,38.3139 L 64.1757,38.3139 L 64.1757,13.4099 L 63.2179,13.4099 Z" stroke-width="1px" stroke="#52A4DB" fill="#52A4DB"/>
          <path clip-path="url(#clip-1303455736)" d="M 64.1757,13.4099 L 64.1757,38.3139 L 65.1336,38.3139 L 65.1336,13.4099 L 64.1757,13.4099 Z" stroke-width="1px" stroke="#51A3DA" fill="#51A3DA"/>
          <path clip-path="url(#clip-1303455736)" d="M 65.1336,13.4099 L 65.1336,38.3139 L 66.0914,38.3139 L 66.0914,13.4099 L 65.1336,13.4099 Z" stroke-width="1px" stroke="#50A2D9" fill="#50A2D9"/>
          <path clip-path="url(#clip-1303455736)" d="M 66.0914,13.4099 L 66.0914,38.3139 L 67.0493,38.3139 L 67.0493,13.4099 L 66.0914,13.4099 Z" stroke-width="1px" stroke="#4FA0D8" fill="#4FA0D8"/>
          <path clip-path="url(#clip-1303455736)" d="M 67.0493,13.4099 L 67.0493,38.3139 L 68.0071,38.3139 L 68.0071,13.4099 L 67.0493,13.4099 Z" stroke-width="1px" stroke="#4E9FD7" fill="#4E9FD7"/>
          <path clip-path="url(#clip-1303455736)" d="M 68.0071,13.4099 L 68.0071,38.3139 L 68.9649,38.3139 L 68.9649,13.4099 L 68.0071,13.4099 Z" stroke-width="1px" stroke="#4D9ED6" fill="#4D9ED6"/>
          <path clip-path="url(#clip-1303455736)" d="M 68.9649,13.4099 L 68.9649,38.3139 L 69.9228,38.3139 L 69.9228,13.4099 L 68.9649,13.4099 Z" stroke-width="1px" stroke="#4C9DD5" fill="#4C9DD5"/>
          <path clip-path="url(#clip-1303455736)" d="M 69.9228,13.4099 L 69.9228,38.3139 L 70.8806,38.3139 L 70.8806,13.4099 L 69.9228,13.4099 Z" stroke-width="1px" stroke="#4B9BD4" fill="#4B9BD4"/>
          <path clip-path="url(#clip-1303455736)" d="M 70.8806,13.4099 L 70.8806,38.3139 L 71.8385,38.3139 L 71.8385,13.4099 L 70.8806,13.4099 Z" stroke-width="1px" stroke="#4A9AD3" fill="#4A9AD3"/>
          <path clip-path="url(#clip-1303455736)" d="M 71.8385,13.4099 L 71.8385,38.3139 L 72.7963,38.3139 L 72.7963,13.4099 L 71.8385,13.4099 Z" stroke-width="1px" stroke="#4998D3" fill="#4998D3"/>
          <path clip-path="url(#clip-1303455736)" d="M 72.7963,13.4099 L 72.7963,38.3139 L 73.7542,38.3139 L 73.7542,13.4099 L 72.7963,13.4099 Z" stroke-width="1px" stroke="#4897D2" fill="#4897D2"/>
          <path clip-path="url(#clip-1303455736)" d="M 73.7542,13.4099 L 73.7542,38.3139 L 74.7120,38.3139 L 74.7120,13.4099 L 73.7542,13.4099 Z" stroke-width="1px" stroke="#4795D1" fill="#4795D1"/>
        </g>
        <g transform="matrix(0.0625 0.0000 0.0000 0.0625 0.0000 0.0000)">
          <path d="M 1180.0669,613.9796 L 1180.0669,538.3097 C 1189.6454,499.9959 1195.3924,446.3565 1195.3924,386.0121 C 1195.3924,325.6678 1180.0669,217.4312 1180.0669,217.4312 L 369.7288,217.4312 C 369.7288,217.4312 354.4032,325.6678 354.4032,386.0121 C 354.4032,446.3565 360.1503,499.9959 369.7288,538.3097 L 369.7288,613.9796 L 1180.0669,613.9796 " stroke="#0054A6" stroke-width="9.5785" stroke-linecap="round" stroke-linejoin="round" fill="none"/>
        </g>
        <g transform="matrix(1.0000 0.0000 0.0000 1.0000 0.0000 0.0000)">
</g>
        <g transform="matrix(0.0625 0.0000 0.0000 0.0625 0.0000 0.0000)">
          <path d="M 1018.1908,533.5205 L 1018.1908,558.4245 L 1114.9333,558.4245 L 1114.9333,533.5205 L 1018.1908,533.5205 Z" stroke-width="1px" stroke="#8DC63F" fill="#8DC63F"/>
        </g>
        <g transform="matrix(1.0000 0.0000 0.0000 1.0000 0.0000 0.0000)">
</g>
        <g transform="matrix(0.0625 0.0000 0.0000 0.0625 0.0000 0.0000)">
          <path d="M 1114.9333,558.4245 L 1018.1908,558.4245 L 1018.1908,533.5205 L 1114.9333,533.5205 L 1114.9333,558.4245 Z" stroke="#0054A6" stroke-width="7.6628" stroke-linecap="round" stroke-linejoin="round" fill="none"/>
        </g>
        <g transform="matrix(1.0000 0.0000 0.0000 1.0000 0.0000 0.0000)">
          <path d="M 69.9228,16.2834 C 69.9228,16.2834 68.0071,16.2834 66.0914,16.2834 C 63.2179,16.2834 60.3443,17.2412 60.3443,17.2412 C 60.3443,17.2412 51.7237,16.2834 47.8923,16.2834 C 44.0609,16.2834 27.7775,16.2834 27.7775,16.2834 C 27.7775,16.2834 26.8197,21.0726 26.8197,23.9462 C 26.8197,26.8197 26.8197,30.6511 27.7775,32.5668 C 27.7775,32.5668 41.1874,33.5246 50.7659,33.5246 C 56.5129,33.5246 63.2179,30.6511 63.2179,30.6511 L 69.9228,30.6511 C 70.8806,28.7354 70.8806,26.8197 70.8806,23.9462 C 70.8806,21.0726 69.9228,16.2834 69.9228,16.2834 Z " fill="none" stroke="none"/>
          <defs>
            <clipPath id="clip-35005211">
              <path d="M 69.9228,16.2834 C 69.9228,16.2834 68.0071,16.2834 66.0914,16.2834 C 63.2179,16.2834 60.3443,17.2412 60.3443,17.2412 C 60.3443,17.2412 51.7237,16.2834 47.8923,16.2834 C 44.0609,16.2834 27.7775,16.2834 27.7775,16.2834 C 27.7775,16.2834 26.8197,21.0726 26.8197,23.9462 C 26.8197,26.8197 26.8197,30.6511 27.7775,32.5668 C 27.7775,32.5668 41.1874,33.5246 50.7659,33.5246 C 56.5129,33.5246 63.2179,30.6511 63.2179,30.6511 L 69.9228,30.6511 C 70.8806,28.7354 70.8806,26.8197 70.8806,23.9462 C 70.8806,21.0726 69.9228,16.2834 69.9228,16.2834 Z"/>
            </clipPath>
          </defs>
          <path clip-path="url(#clip-35005211)" d="M 25.8619,15.3255 L 25.8619,32.5668 L 26.8197,32.5668 L 26.8197,15.3255 L 25.8619,15.3255 Z" stroke-width="1px" stroke="#59BCEC" fill="#59BCEC"/>
          <path clip-path="url(#clip-35005211)" d="M 26.8197,15.3255 L 26.8197,32.5668 L 27.7775,32.5668 L 27.7775,15.3255 L 26.8197,15.3255 Z" stroke-width="1px" stroke="#016BAD" fill="#016BAD"/>
          <path clip-path="url(#clip-35005211)" d="M 27.7775,15.3255 L 27.7775,32.5668 L 28.7354,32.5668 L 28.7354,15.3255 L 27.7775,15.3255 Z" stroke-width="1px" stroke="#036DAE" fill="#036DAE"/>
          <path clip-path="url(#clip-35005211)" d="M 28.7354,15.3255 L 28.7354,32.5668 L 29.6932,32.5668 L 29.6932,15.3255 L 28.7354,15.3255 Z" stroke-width="1px" stroke="#056FB0" fill="#056FB0"/>
          <path clip-path="url(#clip-35005211)" d="M 29.6932,15.3255 L 29.6932,32.5668 L 30.6511,32.5668 L 30.6511,15.3255 L 29.6932,15.3255 Z" stroke-width="1px" stroke="#0770B1" fill="#0770B1"/>
          <path clip-path="url(#clip-35005211)" d="M 30.6511,15.3255 L 30.6511,32.5668 L 31.6089,32.5668 L 31.6089,15.3255 L 30.6511,15.3255 Z" stroke-width="1px" stroke="#0972B2" fill="#0972B2"/>
          <path clip-path="url(#clip-35005211)" d="M 31.6089,15.3255 L 31.6089,32.5668 L 32.5668,32.5668 L 32.5668,15.3255 L 31.6089,15.3255 Z" stroke-width="1px" stroke="#0B74B4" fill="#0B74B4"/>
          <path clip-path="url(#clip-35005211)" d="M 32.5668,15.3255 L 32.5668,32.5668 L 33.5246,32.5668 L 33.5246,15.3255 L 32.5668,15.3255 Z" stroke-width="1px" stroke="#0D76B5" fill="#0D76B5"/>
          <path clip-path="url(#clip-35005211)" d="M 33.5246,15.3255 L 33.5246,32.5668 L 34.4825,32.5668 L 34.4825,15.3255 L 33.5246,15.3255 Z" stroke-width="1px" stroke="#0F78B7" fill="#0F78B7"/>
          <path clip-path="url(#clip-35005211)" d="M 34.4825,15.3255 L 34.4825,32.5668 L 35.4403,32.5668 L 35.4403,15.3255 L 34.4825,15.3255 Z" stroke-width="1px" stroke="#117AB8" fill="#117AB8"/>
          <path clip-path="url(#clip-35005211)" d="M 35.4403,15.3255 L 35.4403,32.5668 L 36.3982,32.5668 L 36.3982,15.3255 L 35.4403,15.3255 Z" stroke-width="1px" stroke="#137CB9" fill="#137CB9"/>
          <path clip-path="url(#clip-35005211)" d="M 36.3982,15.3255 L 36.3982,32.5668 L 37.3560,32.5668 L 37.3560,15.3255 L 36.3982,15.3255 Z" stroke-width="1px" stroke="#157DBB" fill="#157DBB"/>
          <path clip-path="url(#clip-35005211)" d="M 37.3560,15.3255 L 37.3560,32.5668 L 38.3139,32.5668 L 38.3139,15.3255 L 37.3560,15.3255 Z" stroke-width="1px" stroke="#177FBC" fill="#177FBC"/>
          <path clip-path="url(#clip-35005211)" d="M 38.3139,15.3255 L 38.3139,32.5668 L 39.2717,32.5668 L 39.2717,15.3255 L 38.3139,15.3255 Z" stroke-width="1px" stroke="#1981BD" fill="#1981BD"/>
          <path clip-path="url(#clip-35005211)" d="M 39.2717,15.3255 L 39.2717,32.5668 L 40.2296,32.5668 L 40.2296,15.3255 L 39.2717,15.3255 Z" stroke-width="1px" stroke="#1B83BF" fill="#1B83BF"/>
          <path clip-path="url(#clip-35005211)" d="M 40.2296,15.3255 L 40.2296,32.5668 L 41.1874,32.5668 L 41.1874,15.3255 L 40.2296,15.3255 Z" stroke-width="1px" stroke="#1C84C0" fill="#1C84C0"/>
          <path clip-path="url(#clip-35005211)" d="M 41.1874,15.3255 L 41.1874,32.5668 L 42.1452,32.5668 L 42.1452,15.3255 L 41.1874,15.3255 Z" stroke-width="1px" stroke="#1E86C2" fill="#1E86C2"/>
          <path clip-path="url(#clip-35005211)" d="M 42.1452,15.3255 L 42.1452,32.5668 L 43.1031,32.5668 L 43.1031,15.3255 L 42.1452,15.3255 Z" stroke-width="1px" stroke="#2088C3" fill="#2088C3"/>
          <path clip-path="url(#clip-35005211)" d="M 43.1031,15.3255 L 43.1031,32.5668 L 44.0609,32.5668 L 44.0609,15.3255 L 43.1031,15.3255 Z" stroke-width="1px" stroke="#2289C4" fill="#2289C4"/>
          <path clip-path="url(#clip-35005211)" d="M 44.0609,15.3255 L 44.0609,32.5668 L 45.0188,32.5668 L 45.0188,15.3255 L 44.0609,15.3255 Z" stroke-width="1px" stroke="#248BC6" fill="#248BC6"/>
          <path clip-path="url(#clip-35005211)" d="M 45.0188,15.3255 L 45.0188,32.5668 L 45.9766,32.5668 L 45.9766,15.3255 L 45.0188,15.3255 Z" stroke-width="1px" stroke="#268DC7" fill="#268DC7"/>
          <path clip-path="url(#clip-35005211)" d="M 45.9766,15.3255 L 45.9766,32.5668 L 46.9345,32.5668 L 46.9345,15.3255 L 45.9766,15.3255 Z" stroke-width="1px" stroke="#288FC9" fill="#288FC9"/>
          <path clip-path="url(#clip-35005211)" d="M 46.9345,15.3255 L 46.9345,32.5668 L 47.8923,32.5668 L 47.8923,15.3255 L 46.9345,15.3255 Z" stroke-width="1px" stroke="#2A91CA" fill="#2A91CA"/>
          <path clip-path="url(#clip-35005211)" d="M 47.8923,15.3255 L 47.8923,32.5668 L 48.8502,32.5668 L 48.8502,15.3255 L 47.8923,15.3255 Z" stroke-width="1px" stroke="#2C93CB" fill="#2C93CB"/>
          <path clip-path="url(#clip-35005211)" d="M 48.8502,15.3255 L 48.8502,32.5668 L 49.8080,32.5668 L 49.8080,15.3255 L 48.8502,15.3255 Z" stroke-width="1px" stroke="#2E95CD" fill="#2E95CD"/>
          <path clip-path="url(#clip-35005211)" d="M 49.8080,15.3255 L 49.8080,32.5668 L 50.7659,32.5668 L 50.7659,15.3255 L 49.8080,15.3255 Z" stroke-width="1px" stroke="#3097CE" fill="#3097CE"/>
          <path clip-path="url(#clip-35005211)" d="M 50.7659,15.3255 L 50.7659,32.5668 L 51.7237,32.5668 L 51.7237,15.3255 L 50.7659,15.3255 Z" stroke-width="1px" stroke="#3298CF" fill="#3298CF"/>
          <path clip-path="url(#clip-35005211)" d="M 51.7237,15.3255 L 51.7237,32.5668 L 52.6816,32.5668 L 52.6816,15.3255 L 51.7237,15.3255 Z" stroke-width="1px" stroke="#349AD1" fill="#349AD1"/>
          <path clip-path="url(#clip-35005211)" d="M 52.6816,15.3255 L 52.6816,32.5668 L 53.6394,32.5668 L 53.6394,15.3255 L 52.6816,15.3255 Z" stroke-width="1px" stroke="#369CD2" fill="#369CD2"/>
          <path clip-path="url(#clip-35005211)" d="M 53.6394,15.3255 L 53.6394,32.5668 L 54.5973,32.5668 L 54.5973,15.3255 L 53.6394,15.3255 Z" stroke-width="1px" stroke="#379DD4" fill="#379DD4"/>
          <path clip-path="url(#clip-35005211)" d="M 54.5973,15.3255 L 54.5973,32.5668 L 55.5551,32.5668 L 55.5551,15.3255 L 54.5973,15.3255 Z" stroke-width="1px" stroke="#399FD5" fill="#399FD5"/>
          <path clip-path="url(#clip-35005211)" d="M 55.5551,15.3255 L 55.5551,32.5668 L 56.5129,32.5668 L 56.5129,15.3255 L 55.5551,15.3255 Z" stroke-width="1px" stroke="#3BA1D6" fill="#3BA1D6"/>
          <path clip-path="url(#clip-35005211)" d="M 56.5129,15.3255 L 56.5129,32.5668 L 57.4708,32.5668 L 57.4708,15.3255 L 56.5129,15.3255 Z" stroke-width="1px" stroke="#3EA3D8" fill="#3EA3D8"/>
          <path clip-path="url(#clip-35005211)" d="M 57.4708,15.3255 L 57.4708,32.5668 L 58.4286,32.5668 L 58.4286,15.3255 L 57.4708,15.3255 Z" stroke-width="1px" stroke="#40A4D9" fill="#40A4D9"/>
          <path clip-path="url(#clip-35005211)" d="M 58.4286,15.3255 L 58.4286,32.5668 L 59.3865,32.5668 L 59.3865,15.3255 L 58.4286,15.3255 Z" stroke-width="1px" stroke="#42A6DA" fill="#42A6DA"/>
          <path clip-path="url(#clip-35005211)" d="M 59.3865,15.3255 L 59.3865,32.5668 L 60.3443,32.5668 L 60.3443,15.3255 L 59.3865,15.3255 Z" stroke-width="1px" stroke="#44A8DC" fill="#44A8DC"/>
          <path clip-path="url(#clip-35005211)" d="M 60.3443,15.3255 L 60.3443,32.5668 L 61.3022,32.5668 L 61.3022,15.3255 L 60.3443,15.3255 Z" stroke-width="1px" stroke="#45A9DD" fill="#45A9DD"/>
          <path clip-path="url(#clip-35005211)" d="M 61.3022,15.3255 L 61.3022,32.5668 L 62.2600,32.5668 L 62.2600,15.3255 L 61.3022,15.3255 Z" stroke-width="1px" stroke="#47ABDF" fill="#47ABDF"/>
          <path clip-path="url(#clip-35005211)" d="M 62.2600,15.3255 L 62.2600,32.5668 L 63.2179,32.5668 L 63.2179,15.3255 L 62.2600,15.3255 Z" stroke-width="1px" stroke="#49ADE0" fill="#49ADE0"/>
          <path clip-path="url(#clip-35005211)" d="M 63.2179,15.3255 L 63.2179,32.5668 L 64.1757,32.5668 L 64.1757,15.3255 L 63.2179,15.3255 Z" stroke-width="1px" stroke="#4BAFE1" fill="#4BAFE1"/>
          <path clip-path="url(#clip-35005211)" d="M 64.1757,15.3255 L 64.1757,32.5668 L 65.1336,32.5668 L 65.1336,15.3255 L 64.1757,15.3255 Z" stroke-width="1px" stroke="#4DB1E3" fill="#4DB1E3"/>
          <path clip-path="url(#clip-35005211)" d="M 65.1336,15.3255 L 65.1336,32.5668 L 66.0914,32.5668 L 66.0914,15.3255 L 65.1336,15.3255 Z" stroke-width="1px" stroke="#4FB3E4" fill="#4FB3E4"/>
          <path clip-path="url(#clip-35005211)" d="M 66.0914,15.3255 L 66.0914,32.5668 L 67.0493,32.5668 L 67.0493,15.3255 L 66.0914,15.3255 Z" stroke-width="1px" stroke="#51B5E5" fill="#51B5E5"/>
          <path clip-path="url(#clip-35005211)" d="M 67.0493,15.3255 L 67.0493,32.5668 L 68.0071,32.5668 L 68.0071,15.3255 L 67.0493,15.3255 Z" stroke-width="1px" stroke="#53B7E7" fill="#53B7E7"/>
          <path clip-path="url(#clip-35005211)" d="M 68.0071,15.3255 L 68.0071,32.5668 L 68.9649,32.5668 L 68.9649,15.3255 L 68.0071,15.3255 Z" stroke-width="1px" stroke="#54B8E8" fill="#54B8E8"/>
          <path clip-path="url(#clip-35005211)" d="M 68.9649,15.3255 L 68.9649,32.5668 L 69.9228,32.5668 L 69.9228,15.3255 L 68.9649,15.3255 Z" stroke-width="1px" stroke="#56BAEA" fill="#56BAEA"/>
          <path clip-path="url(#clip-35005211)" d="M 69.9228,15.3255 L 69.9228,32.5668 L 70.8806,32.5668 L 70.8806,15.3255 L 69.9228,15.3255 Z" stroke-width="1px" stroke="#58BCEB" fill="#58BCEB"/>
        </g>
        <g transform="matrix(0.0625 0.0000 0.0000 0.0625 0.0000 0.0000)">
          <path d="M 411.8740,372.6023 C 411.8740,325.6678 425.2839,259.5764 425.2839,258.6186 L 426.2417,252.8715 L 431.9888,252.8715 C 431.9888,252.8715 698.2701,246.1666 761.4880,246.1666 C 822.7902,246.1666 949.2259,259.5764 962.6357,260.5343 C 970.2985,258.6186 1007.6545,249.0401 1045.0105,248.0822 C 1048.8419,247.1244 1053.6312,247.1244 1057.4625,247.1244 C 1094.8186,247.1244 1123.5540,251.9136 1123.5540,251.9136 L 1112.0598,269.1549 C 1112.0598,269.1549 1093.8607,264.3656 1057.4625,264.3656 C 1053.6312,264.3656 1049.7998,264.3656 1045.0105,264.3656 C 1005.7388,265.3235 965.5093,276.8176 965.5093,276.8176 L 963.5936,277.7755 L 962.6357,276.8176 C 962.6357,276.8176 824.7058,263.4078 761.4880,263.4078 C 704.9750,263.4078 469.3448,268.1970 438.6937,269.1549 C 435.8202,286.3961 427.1995,336.2041 427.1995,372.6023 C 427.1995,417.6211 431.9888,473.1762 439.6515,500.9537 L 426.2417,514.3636 C 417.6211,483.7125 411.8740,419.5368 411.8740,372.6023 Z " fill="#0054A6" stroke="none"/>
        </g>
        <g transform="matrix(1.0000 0.0000 0.0000 1.0000 0.0000 0.0000)">
</g>
        <g transform="matrix(0.0625 0.0000 0.0000 0.0625 0.0000 0.0000)">
          <path d="M 411.8740,372.6023 C 411.8740,325.6678 425.2839,259.5764 425.2839,258.6186 L 426.2417,252.8715 L 431.9888,252.8715 C 431.9888,252.8715 698.2701,246.1666 761.4880,246.1666 C 822.7902,246.1666 949.2259,259.5764 962.6357,260.5343 C 970.2985,258.6186 1007.6545,249.0401 1045.0105,248.0822 C 1048.8419,247.1244 1053.6312,247.1244 1057.4625,247.1244 C 1094.8186,247.1244 1123.5540,251.9136 1123.5540,251.9136 L 1112.0598,269.1549 C 1112.0598,269.1549 1093.8607,264.3656 1057.4625,264.3656 C 1053.6312,264.3656 1049.7998,264.3656 1045.0105,264.3656 C 1005.7388,265.3235 965.5093,276.8176 965.5093,276.8176 L 963.5936,277.7755 L 962.6357,276.8176 C 962.6357,276.8176 824.7058,263.4078 761.4880,263.4078 C 704.9750,263.4078 469.3448,268.1970 438.6937,269.1549 C 435.8202,286.3961 427.1995,336.2041 427.1995,372.6023 C 427.1995,417.6211 431.9888,473.1762 439.6515,500.9537 L 426.2417,514.3636 C 417.6211,483.7125 411.8740,419.5368 411.8740,372.6023 Z " stroke="#0054A6" stroke-width="0.9578" stroke-linecap="butt" stroke-linejoin="round" fill="none"/>
        </g>
        <g transform="matrix(1.0000 0.0000 0.0000 1.0000 0.0000 0.0000)">
          <path d="M 26.8197,32.5668 L 27.7775,31.6089 C 29.6932,31.6089 43.1031,32.5668 50.7659,32.5668 C 53.6394,32.5668 56.5129,32.5668 58.4286,31.6089 C 61.3022,30.6511 62.2600,30.6511 62.2600,30.6511 L 63.2179,30.6511 L 69.9228,30.6511 C 69.9228,28.7354 70.8806,26.8197 70.8806,23.9462 C 70.8806,21.0726 69.9228,17.2412 69.9228,17.2412 L 70.8806,16.2834 C 70.8806,16.2834 71.8385,21.0726 71.8385,23.9462 C 71.8385,26.8197 70.8806,29.6932 70.8806,31.6089 L 70.8806,31.6089 L 63.2179,31.6089 C 62.2600,31.6089 55.5551,33.5246 50.7659,33.5246 C 41.1874,33.5246 27.7775,32.5668 27.7775,32.5668 L 26.8197,32.5668 Z " fill="none" stroke="none"/>
          <defs>
            <clipPath id="clip-521595368">
              <path d="M 26.8197,32.5668 L 27.7775,31.6089 C 29.6932,31.6089 43.1031,32.5668 50.7659,32.5668 C 53.6394,32.5668 56.5129,32.5668 58.4286,31.6089 C 61.3022,30.6511 62.2600,30.6511 62.2600,30.6511 L 63.2179,30.6511 L 69.9228,30.6511 C 69.9228,28.7354 70.8806,26.8197 70.8806,23.9462 C 70.8806,21.0726 69.9228,17.2412 69.9228,17.2412 L 70.8806,16.2834 C 70.8806,16.2834 71.8385,21.0726 71.8385,23.9462 C 71.8385,26.8197 70.8806,29.6932 70.8806,31.6089 L 70.8806,31.6089 L 63.2179,31.6089 C 62.2600,31.6089 55.5551,33.5246 50.7659,33.5246 C 41.1874,33.5246 27.7775,32.5668 27.7775,32.5668 L 26.8197,32.5668 Z"/>
            </clipPath>
          </defs>
          <path clip-path="url(#clip-521595368)" d="M 25.8619,15.3255 L 25.8619,33.5246 L 26.8197,33.5246 L 26.8197,15.3255 L 25.8619,15.3255 Z" stroke-width="1px" stroke="#9C9C9C" fill="#9C9C9C"/>
          <path clip-path="url(#clip-521595368)" d="M 26.8197,15.3255 L 26.8197,33.5246 L 27.7775,33.5246 L 27.7775,15.3255 L 26.8197,15.3255 Z" stroke-width="1px" stroke="#9A9A9A" fill="#9A9A9A"/>
          <path clip-path="url(#clip-521595368)" d="M 27.7775,15.3255 L 27.7775,33.5246 L 28.7354,33.5246 L 28.7354,15.3255 L 27.7775,15.3255 Z" stroke-width="1px" stroke="#9D9D9D" fill="#9D9D9D"/>
          <path clip-path="url(#clip-521595368)" d="M 28.7354,15.3255 L 28.7354,33.5246 L 29.6932,33.5246 L 29.6932,15.3255 L 28.7354,15.3255 Z" stroke-width="1px" stroke="#9F9F9F" fill="#9F9F9F"/>
          <path clip-path="url(#clip-521595368)" d="M 29.6932,15.3255 L 29.6932,33.5246 L 30.6511,33.5246 L 30.6511,15.3255 L 29.6932,15.3255 Z" stroke-width="1px" stroke="#A1A1A1" fill="#A1A1A1"/>
          <path clip-path="url(#clip-521595368)" d="M 30.6511,15.3255 L 30.6511,33.5246 L 31.6089,33.5246 L 31.6089,15.3255 L 30.6511,15.3255 Z" stroke-width="1px" stroke="#A3A3A3" fill="#A3A3A3"/>
          <path clip-path="url(#clip-521595368)" d="M 31.6089,15.3255 L 31.6089,33.5246 L 32.5668,33.5246 L 32.5668,15.3255 L 31.6089,15.3255 Z" stroke-width="1px" stroke="#A6A6A6" fill="#A6A6A6"/>
          <path clip-path="url(#clip-521595368)" d="M 32.5668,15.3255 L 32.5668,33.5246 L 33.5246,33.5246 L 33.5246,15.3255 L 32.5668,15.3255 Z" stroke-width="1px" stroke="#A8A8A8" fill="#A8A8A8"/>
          <path clip-path="url(#clip-521595368)" d="M 33.5246,15.3255 L 33.5246,33.5246 L 34.4825,33.5246 L 34.4825,15.3255 L 33.5246,15.3255 Z" stroke-width="1px" stroke="#AAAAAA" fill="#AAAAAA"/>
          <path clip-path="url(#clip-521595368)" d="M 34.4825,15.3255 L 34.4825,33.5246 L 35.4403,33.5246 L 35.4403,15.3255 L 34.4825,15.3255 Z" stroke-width="1px" stroke="#ACACAC" fill="#ACACAC"/>
          <path clip-path="url(#clip-521595368)" d="M 35.4403,15.3255 L 35.4403,33.5246 L 36.3982,33.5246 L 36.3982,15.3255 L 35.4403,15.3255 Z" stroke-width="1px" stroke="#AEAEAE" fill="#AEAEAE"/>
          <path clip-path="url(#clip-521595368)" d="M 36.3982,15.3255 L 36.3982,33.5246 L 37.3560,33.5246 L 37.3560,15.3255 L 36.3982,15.3255 Z" stroke-width="1px" stroke="#B1B1B1" fill="#B1B1B1"/>
          <path clip-path="url(#clip-521595368)" d="M 37.3560,15.3255 L 37.3560,33.5246 L 38.3139,33.5246 L 38.3139,15.3255 L 37.3560,15.3255 Z" stroke-width="1px" stroke="#B3B3B3" fill="#B3B3B3"/>
          <path clip-path="url(#clip-521595368)" d="M 38.3139,15.3255 L 38.3139,33.5246 L 39.2717,33.5246 L 39.2717,15.3255 L 38.3139,15.3255 Z" stroke-width="1px" stroke="#B5B5B5" fill="#B5B5B5"/>
          <path clip-path="url(#clip-521595368)" d="M 39.2717,15.3255 L 39.2717,33.5246 L 40.2296,33.5246 L 40.2296,15.3255 L 39.2717,15.3255 Z" stroke-width="1px" stroke="#B7B7B7" fill="#B7B7B7"/>
          <path clip-path="url(#clip-521595368)" d="M 40.2296,15.3255 L 40.2296,33.5246 L 41.1874,33.5246 L 41.1874,15.3255 L 40.2296,15.3255 Z" stroke-width="1px" stroke="#B9B9B9" fill="#B9B9B9"/>
          <path clip-path="url(#clip-521595368)" d="M 41.1874,15.3255 L 41.1874,33.5246 L 42.1452,33.5246 L 42.1452,15.3255 L 41.1874,15.3255 Z" stroke-width="1px" stroke="#BBBBBB" fill="#BBBBBB"/>
          <path clip-path="url(#clip-521595368)" d="M 42.1452,15.3255 L 42.1452,33.5246 L 43.1031,33.5246 L 43.1031,15.3255 L 42.1452,15.3255 Z" stroke-width="1px" stroke="#BEBEBE" fill="#BEBEBE"/>
          <path clip-path="url(#clip-521595368)" d="M 43.1031,15.3255 L 43.1031,33.5246 L 44.0609,33.5246 L 44.0609,15.3255 L 43.1031,15.3255 Z" stroke-width="1px" stroke="#C0C0C0" fill="#C0C0C0"/>
          <path clip-path="url(#clip-521595368)" d="M 44.0609,15.3255 L 44.0609,33.5246 L 45.0188,33.5246 L 45.0188,15.3255 L 44.0609,15.3255 Z" stroke-width="1px" stroke="#C2C2C2" fill="#C2C2C2"/>
          <path clip-path="url(#clip-521595368)" d="M 45.0188,15.3255 L 45.0188,33.5246 L 45.9766,33.5246 L 45.9766,15.3255 L 45.0188,15.3255 Z" stroke-width="1px" stroke="#C4C4C4" fill="#C4C4C4"/>
          <path clip-path="url(#clip-521595368)" d="M 45.9766,15.3255 L 45.9766,33.5246 L 46.9345,33.5246 L 46.9345,15.3255 L 45.9766,15.3255 Z" stroke-width="1px" stroke="#C7C7C7" fill="#C7C7C7"/>
          <path clip-path="url(#clip-521595368)" d="M 46.9345,15.3255 L 46.9345,33.5246 L 47.8923,33.5246 L 47.8923,15.3255 L 46.9345,15.3255 Z" stroke-width="1px" stroke="#C9C9C9" fill="#C9C9C9"/>
          <path clip-path="url(#clip-521595368)" d="M 47.8923,15.3255 L 47.8923,33.5246 L 48.8502,33.5246 L 48.8502,15.3255 L 47.8923,15.3255 Z" stroke-width="1px" stroke="#CBCBCB" fill="#CBCBCB"/>
          <path clip-path="url(#clip-521595368)" d="M 48.8502,15.3255 L 48.8502,33.5246 L 49.8080,33.5246 L 49.8080,15.3255 L 48.8502,15.3255 Z" stroke-width="1px" stroke="#CDCDCD" fill="#CDCDCD"/>
          <path clip-path="url(#clip-521595368)" d="M 49.8080,15.3255 L 49.8080,33.5246 L 50.7659,33.5246 L 50.7659,15.3255 L 49.8080,15.3255 Z" stroke-width="1px" stroke="#CBCBCB" fill="#CBCBCB"/>
          <path clip-path="url(#clip-521595368)" d="M 50.7659,15.3255 L 50.7659,33.5246 L 51.7237,33.5246 L 51.7237,15.3255 L 50.7659,15.3255 Z" stroke-width="1px" stroke="#C9C9C9" fill="#C9C9C9"/>
          <path clip-path="url(#clip-521595368)" d="M 51.7237,15.3255 L 51.7237,33.5246 L 52.6816,33.5246 L 52.6816,15.3255 L 51.7237,15.3255 Z" stroke-width="1px" stroke="#C7C7C7" fill="#C7C7C7"/>
          <path clip-path="url(#clip-521595368)" d="M 52.6816,15.3255 L 52.6816,33.5246 L 53.6394,33.5246 L 53.6394,15.3255 L 52.6816,15.3255 Z" stroke-width="1px" stroke="#C4C4C4" fill="#C4C4C4"/>
          <path clip-path="url(#clip-521595368)" d="M 53.6394,15.3255 L 53.6394,33.5246 L 54.5973,33.5246 L 54.5973,15.3255 L 53.6394,15.3255 Z" stroke-width="1px" stroke="#C2C2C2" fill="#C2C2C2"/>
          <path clip-path="url(#clip-521595368)" d="M 54.5973,15.3255 L 54.5973,33.5246 L 55.5551,33.5246 L 55.5551,15.3255 L 54.5973,15.3255 Z" stroke-width="1px" stroke="#C0C0C0" fill="#C0C0C0"/>
          <path clip-path="url(#clip-521595368)" d="M 55.5551,15.3255 L 55.5551,33.5246 L 56.5129,33.5246 L 56.5129,15.3255 L 55.5551,15.3255 Z" stroke-width="1px" stroke="#BEBEBE" fill="#BEBEBE"/>
          <path clip-path="url(#clip-521595368)" d="M 56.5129,15.3255 L 56.5129,33.5246 L 57.4708,33.5246 L 57.4708,15.3255 L 56.5129,15.3255 Z" stroke-width="1px" stroke="#BBBBBB" fill="#BBBBBB"/>
          <path clip-path="url(#clip-521595368)" d="M 57.4708,15.3255 L 57.4708,33.5246 L 58.4286,33.5246 L 58.4286,15.3255 L 57.4708,15.3255 Z" stroke-width="1px" stroke="#B9B9B9" fill="#B9B9B9"/>
          <path clip-path="url(#clip-521595368)" d="M 58.4286,15.3255 L 58.4286,33.5246 L 59.3865,33.5246 L 59.3865,15.3255 L 58.4286,15.3255 Z" stroke-width="1px" stroke="#B7B7B7" fill="#B7B7B7"/>
          <path clip-path="url(#clip-521595368)" d="M 59.3865,15.3255 L 59.3865,33.5246 L 60.3443,33.5246 L 60.3443,15.3255 L 59.3865,15.3255 Z" stroke-width="1px" stroke="#B5B5B5" fill="#B5B5B5"/>
          <path clip-path="url(#clip-521595368)" d="M 60.3443,15.3255 L 60.3443,33.5246 L 61.3022,33.5246 L 61.3022,15.3255 L 60.3443,15.3255 Z" stroke-width="1px" stroke="#B3B3B3" fill="#B3B3B3"/>
          <path clip-path="url(#clip-521595368)" d="M 61.3022,15.3255 L 61.3022,33.5246 L 62.2600,33.5246 L 62.2600,15.3255 L 61.3022,15.3255 Z" stroke-width="1px" stroke="#B1B1B1" fill="#B1B1B1"/>
          <path clip-path="url(#clip-521595368)" d="M 62.2600,15.3255 L 62.2600,33.5246 L 63.2179,33.5246 L 63.2179,15.3255 L 62.2600,15.3255 Z" stroke-width="1px" stroke="#AEAEAE" fill="#AEAEAE"/>
          <path clip-path="url(#clip-521595368)" d="M 63.2179,15.3255 L 63.2179,33.5246 L 64.1757,33.5246 L 64.1757,15.3255 L 63.2179,15.3255 Z" stroke-width="1px" stroke="#ACACAC" fill="#ACACAC"/>
          <path clip-path="url(#clip-521595368)" d="M 64.1757,15.3255 L 64.1757,33.5246 L 65.1336,33.5246 L 65.1336,15.3255 L 64.1757,15.3255 Z" stroke-width="1px" stroke="#AAAAAA" fill="#AAAAAA"/>
          <path clip-path="url(#clip-521595368)" d="M 65.1336,15.3255 L 65.1336,33.5246 L 66.0914,33.5246 L 66.0914,15.3255 L 65.1336,15.3255 Z" stroke-width="1px" stroke="#A8A8A8" fill="#A8A8A8"/>
          <path clip-path="url(#clip-521595368)" d="M 66.0914,15.3255 L 66.0914,33.5246 L 67.0493,33.5246 L 67.0493,15.3255 L 66.0914,15.3255 Z" stroke-width="1px" stroke="#A6A6A6" fill="#A6A6A6"/>
          <path clip-path="url(#clip-521595368)" d="M 67.0493,15.3255 L 67.0493,33.5246 L 68.0071,33.5246 L 68.0071,15.3255 L 67.0493,15.3255 Z" stroke-width="1px" stroke="#A3A3A3" fill="#A3A3A3"/>
          <path clip-path="url(#clip-521595368)" d="M 68.0071,15.3255 L 68.0071,33.5246 L 68.9649,33.5246 L 68.9649,15.3255 L 68.0071,15.3255 Z" stroke-width="1px" stroke="#A1A1A1" fill="#A1A1A1"/>
          <path clip-path="url(#clip-521595368)" d="M 68.9649,15.3255 L 68.9649,33.5246 L 69.9228,33.5246 L 69.9228,15.3255 L 68.9649,15.3255 Z" stroke-width="1px" stroke="#9F9F9F" fill="#9F9F9F"/>
          <path clip-path="url(#clip-521595368)" d="M 69.9228,15.3255 L 69.9228,33.5246 L 70.8806,33.5246 L 70.8806,15.3255 L 69.9228,15.3255 Z" stroke-width="1px" stroke="#9D9D9D" fill="#9D9D9D"/>
        </g>
        <g transform="matrix(0.0625 0.0000 0.0000 0.0625 0.0000 0.0000)">
          <path d="M 426.2417,514.3636 L 438.6937,499.0380 C 464.5556,502.8694 675.2818,518.1950 798.8440,518.1950 C 844.8206,518.1950 894.6286,508.6165 932.9425,499.0380 C 971.2564,490.4174 997.1182,480.8389 997.1182,480.8389 L 998.0761,480.8389 L 1112.0598,480.8389 C 1118.7647,453.0614 1122.5961,414.7475 1122.5961,372.6023 C 1122.5961,328.5414 1112.0598,269.1549 1112.0598,269.1549 L 1123.5540,251.9136 C 1123.5540,251.9136 1137.9217,325.6678 1137.9217,372.6023 C 1137.9217,419.5368 1133.1324,461.6820 1124.5118,491.3753 L 1122.5961,497.1223 L 999.9918,497.1223 C 988.4976,500.9537 888.8816,534.4784 798.8440,534.4784 C 658.0406,534.4784 431.9888,515.3214 431.9888,515.3214 L 426.2417,514.3636 " stroke="#9A9A9A" stroke-width="0.9578" stroke-linecap="butt" stroke-linejoin="round" fill="none"/>
        </g>
        <g transform="matrix(1.0000 0.0000 0.0000 1.0000 0.0000 0.0000)">
</g>
        <g transform="matrix(0.0625 0.0000 0.0000 0.0625 0.0000 0.0000)">
          <path d="M 494.2488,465.5134 C 499.0380,446.3565 502.8694,406.1269 502.8694,376.4337 C 502.8694,346.7404 499.0380,307.4687 494.2488,287.3540 M 576.6236,459.7663 C 581.4128,441.5672 584.2864,405.1691 584.2864,376.4337 C 584.2864,348.6561 581.4128,312.2580 576.6236,293.1010 M 658.0406,454.0192 C 662.8298,436.7780 666.6612,403.2534 666.6612,376.4337 C 666.6612,349.6140 662.8298,317.0472 658.0406,298.8481 M 740.4154,448.2722 C 745.2046,431.9888 748.0781,402.2955 748.0781,376.4337 C 748.0781,351.5297 745.2046,321.8364 740.4154,304.5952 M 821.8323,442.5251 C 826.6215,427.1995 830.4529,400.3798 830.4529,376.4337 C 830.4529,352.4875 826.6215,326.6257 821.8323,310.3423 M 904.2071,437.7359 C 908.9963,422.4103 911.8699,399.4220 911.8699,376.4337 C 911.8699,354.4032 908.9963,330.4570 904.2071,316.0893 M 986.5819,431.9888 C 990.4133,418.5789 993.2868,397.5063 993.2868,376.4337 C 993.2868,355.3611 990.4133,335.2463 986.5819,320.8786 M 1067.9989,427.1995 C 1072.7881,413.7897 1075.6616,396.5485 1075.6616,376.4337 C 1075.6616,357.2767 1072.7881,339.0777 1067.9989,326.6257 " stroke="#C8E6F2" stroke-width="11.4942" stroke-linecap="round" stroke-linejoin="round" fill="none"/>
        </g>
        <g transform="matrix(1.0000 0.0000 0.0000 1.0000 0.0000 0.0000)">
</g>
      </g>
      <!--emf-blob end-->
    </g>
  </g>
</svg>
