<svg xmlns="http://www.w3.org/2000/svg" xmlns:xlink="http://www.w3.org/1999/xlink" version="1.1" width="56.6929000000" height="50.4000000000">
  <title><![CDATA[FAS900 w/FC Storage]]></title>
  <g transform=" scale(1.000000) ">
    <!--converted by libvisio2svg-->
    <g transform=" translate(-1.185500,-6.364500) ">
      <!--emf-blob start-->
      <g transform="translate(0.9666, 0.9666)">
        <path d="M 4.8331,40.5978 L 56.0637,40.5978 L 56.0637,27.0652 L 4.8331,27.0652 L 4.8331,40.5978 Z M 4.8331,55.0971 L 56.0637,55.0971 L 56.0637,41.5644 L 4.8331,41.5644 L 4.8331,55.0971 Z " fill="none" stroke="none"/>
        <defs>
          <clipPath id="clip-294702567">
            <path d="M 4.8331,40.5978 L 56.0637,40.5978 L 56.0637,27.0652 L 4.8331,27.0652 L 4.8331,40.5978 Z M 4.8331,55.0971 L 56.0637,55.0971 L 56.0637,41.5644 L 4.8331,41.5644 L 4.8331,55.0971 Z Z"/>
          </clipPath>
        </defs>
        <path clip-path="url(#clip-294702567)" d="M 3.8665,26.0986 L 3.8665,55.0971 L 4.8331,55.0971 L 4.8331,26.0986 L 3.8665,26.0986 Z" stroke-width="1px" stroke="#A6A6A6" fill="#A6A6A6"/>
        <path clip-path="url(#clip-294702567)" d="M 4.8331,26.0986 L 4.8331,55.0971 L 5.7997,55.0971 L 5.7997,26.0986 L 4.8331,26.0986 Z" stroke-width="1px" stroke="#A7A7A7" fill="#A7A7A7"/>
        <path clip-path="url(#clip-294702567)" d="M 5.7997,26.0986 L 5.7997,55.0971 L 6.7663,55.0971 L 6.7663,26.0986 L 5.7997,26.0986 Z" stroke-width="1px" stroke="#A9A9A9" fill="#A9A9A9"/>
        <path clip-path="url(#clip-294702567)" d="M 6.7663,26.0986 L 6.7663,55.0971 L 7.7329,55.0971 L 7.7329,26.0986 L 6.7663,26.0986 Z" stroke-width="1px" stroke="#AAAAAA" fill="#AAAAAA"/>
        <path clip-path="url(#clip-294702567)" d="M 7.7329,26.0986 L 7.7329,55.0971 L 8.6995,55.0971 L 8.6995,26.0986 L 7.7329,26.0986 Z" stroke-width="1px" stroke="#ACACAC" fill="#ACACAC"/>
        <path clip-path="url(#clip-294702567)" d="M 8.6995,26.0986 L 8.6995,55.0971 L 9.6661,55.0971 L 9.6661,26.0986 L 8.6995,26.0986 Z" stroke-width="1px" stroke="#ADADAD" fill="#ADADAD"/>
        <path clip-path="url(#clip-294702567)" d="M 9.6661,26.0986 L 9.6661,55.0971 L 10.6328,55.0971 L 10.6328,26.0986 L 9.6661,26.0986 Z" stroke-width="1px" stroke="#AFAFAF" fill="#AFAFAF"/>
        <path clip-path="url(#clip-294702567)" d="M 10.6328,26.0986 L 10.6328,55.0971 L 11.5994,55.0971 L 11.5994,26.0986 L 10.6328,26.0986 Z" stroke-width="1px" stroke="#B0B0B0" fill="#B0B0B0"/>
        <path clip-path="url(#clip-294702567)" d="M 11.5994,26.0986 L 11.5994,55.0971 L 12.5660,55.0971 L 12.5660,26.0986 L 11.5994,26.0986 Z" stroke-width="1px" stroke="#B2B2B2" fill="#B2B2B2"/>
        <path clip-path="url(#clip-294702567)" d="M 12.5660,26.0986 L 12.5660,55.0971 L 13.5326,55.0971 L 13.5326,26.0986 L 12.5660,26.0986 Z" stroke-width="1px" stroke="#B3B3B3" fill="#B3B3B3"/>
        <path clip-path="url(#clip-294702567)" d="M 13.5326,26.0986 L 13.5326,55.0971 L 14.4992,55.0971 L 14.4992,26.0986 L 13.5326,26.0986 Z" stroke-width="1px" stroke="#B5B5B5" fill="#B5B5B5"/>
        <path clip-path="url(#clip-294702567)" d="M 14.4992,26.0986 L 14.4992,55.0971 L 15.4658,55.0971 L 15.4658,26.0986 L 14.4992,26.0986 Z" stroke-width="1px" stroke="#B6B6B6" fill="#B6B6B6"/>
        <path clip-path="url(#clip-294702567)" d="M 15.4658,26.0986 L 15.4658,55.0971 L 16.4325,55.0971 L 16.4325,26.0986 L 15.4658,26.0986 Z" stroke-width="1px" stroke="#B8B8B8" fill="#B8B8B8"/>
        <path clip-path="url(#clip-294702567)" d="M 16.4325,26.0986 L 16.4325,55.0971 L 17.3991,55.0971 L 17.3991,26.0986 L 16.4325,26.0986 Z" stroke-width="1px" stroke="#B9B9B9" fill="#B9B9B9"/>
        <path clip-path="url(#clip-294702567)" d="M 17.3991,26.0986 L 17.3991,55.0971 L 18.3657,55.0971 L 18.3657,26.0986 L 17.3991,26.0986 Z" stroke-width="1px" stroke="#BBBBBB" fill="#BBBBBB"/>
        <path clip-path="url(#clip-294702567)" d="M 18.3657,26.0986 L 18.3657,55.0971 L 19.3323,55.0971 L 19.3323,26.0986 L 18.3657,26.0986 Z" stroke-width="1px" stroke="#BCBCBC" fill="#BCBCBC"/>
        <path clip-path="url(#clip-294702567)" d="M 19.3323,26.0986 L 19.3323,55.0971 L 20.2989,55.0971 L 20.2989,26.0986 L 19.3323,26.0986 Z" stroke-width="1px" stroke="#BDBDBD" fill="#BDBDBD"/>
        <path clip-path="url(#clip-294702567)" d="M 20.2989,26.0986 L 20.2989,55.0971 L 21.2655,55.0971 L 21.2655,26.0986 L 20.2989,26.0986 Z" stroke-width="1px" stroke="#BEBEBE" fill="#BEBEBE"/>
        <path clip-path="url(#clip-294702567)" d="M 21.2655,26.0986 L 21.2655,55.0971 L 22.2321,55.0971 L 22.2321,26.0986 L 21.2655,26.0986 Z" stroke-width="1px" stroke="#C0C0C0" fill="#C0C0C0"/>
        <path clip-path="url(#clip-294702567)" d="M 22.2321,26.0986 L 22.2321,55.0971 L 23.1988,55.0971 L 23.1988,26.0986 L 22.2321,26.0986 Z" stroke-width="1px" stroke="#C1C1C1" fill="#C1C1C1"/>
        <path clip-path="url(#clip-294702567)" d="M 23.1988,26.0986 L 23.1988,55.0971 L 24.1654,55.0971 L 24.1654,26.0986 L 23.1988,26.0986 Z" stroke-width="1px" stroke="#C3C3C3" fill="#C3C3C3"/>
        <path clip-path="url(#clip-294702567)" d="M 24.1654,26.0986 L 24.1654,55.0971 L 25.1320,55.0971 L 25.1320,26.0986 L 24.1654,26.0986 Z" stroke-width="1px" stroke="#C4C4C4" fill="#C4C4C4"/>
        <path clip-path="url(#clip-294702567)" d="M 25.1320,26.0986 L 25.1320,55.0971 L 26.0986,55.0971 L 26.0986,26.0986 L 25.1320,26.0986 Z" stroke-width="1px" stroke="#C6C6C6" fill="#C6C6C6"/>
        <path clip-path="url(#clip-294702567)" d="M 26.0986,26.0986 L 26.0986,55.0971 L 27.0652,55.0971 L 27.0652,26.0986 L 26.0986,26.0986 Z" stroke-width="1px" stroke="#C7C7C7" fill="#C7C7C7"/>
        <path clip-path="url(#clip-294702567)" d="M 27.0652,26.0986 L 27.0652,55.0971 L 28.0318,55.0971 L 28.0318,26.0986 L 27.0652,26.0986 Z" stroke-width="1px" stroke="#C8C8C8" fill="#C8C8C8"/>
        <path clip-path="url(#clip-294702567)" d="M 28.0318,26.0986 L 28.0318,55.0971 L 28.9984,55.0971 L 28.9984,26.0986 L 28.0318,26.0986 Z" stroke-width="1px" stroke="#CACACA" fill="#CACACA"/>
        <path clip-path="url(#clip-294702567)" d="M 28.9984,26.0986 L 28.9984,55.0971 L 29.9651,55.0971 L 29.9651,26.0986 L 28.9984,26.0986 Z" stroke-width="1px" stroke="#CBCBCB" fill="#CBCBCB"/>
        <path clip-path="url(#clip-294702567)" d="M 29.9651,26.0986 L 29.9651,55.0971 L 30.9317,55.0971 L 30.9317,26.0986 L 29.9651,26.0986 Z" stroke-width="1px" stroke="#CDCDCD" fill="#CDCDCD"/>
        <path clip-path="url(#clip-294702567)" d="M 30.9317,26.0986 L 30.9317,55.0971 L 31.8983,55.0971 L 31.8983,26.0986 L 30.9317,26.0986 Z" stroke-width="1px" stroke="#CCCCCC" fill="#CCCCCC"/>
        <path clip-path="url(#clip-294702567)" d="M 31.8983,26.0986 L 31.8983,55.0971 L 32.8649,55.0971 L 32.8649,26.0986 L 31.8983,26.0986 Z" stroke-width="1px" stroke="#CACACA" fill="#CACACA"/>
        <path clip-path="url(#clip-294702567)" d="M 32.8649,26.0986 L 32.8649,55.0971 L 33.8315,55.0971 L 33.8315,26.0986 L 32.8649,26.0986 Z" stroke-width="1px" stroke="#C9C9C9" fill="#C9C9C9"/>
        <path clip-path="url(#clip-294702567)" d="M 33.8315,26.0986 L 33.8315,55.0971 L 34.7981,55.0971 L 34.7981,26.0986 L 33.8315,26.0986 Z" stroke-width="1px" stroke="#C7C7C7" fill="#C7C7C7"/>
        <path clip-path="url(#clip-294702567)" d="M 34.7981,26.0986 L 34.7981,55.0971 L 35.7648,55.0971 L 35.7648,26.0986 L 34.7981,26.0986 Z" stroke-width="1px" stroke="#C6C6C6" fill="#C6C6C6"/>
        <path clip-path="url(#clip-294702567)" d="M 35.7648,26.0986 L 35.7648,55.0971 L 36.7314,55.0971 L 36.7314,26.0986 L 35.7648,26.0986 Z" stroke-width="1px" stroke="#C4C4C4" fill="#C4C4C4"/>
        <path clip-path="url(#clip-294702567)" d="M 36.7314,26.0986 L 36.7314,55.0971 L 37.6980,55.0971 L 37.6980,26.0986 L 36.7314,26.0986 Z" stroke-width="1px" stroke="#C3C3C3" fill="#C3C3C3"/>
        <path clip-path="url(#clip-294702567)" d="M 37.6980,26.0986 L 37.6980,55.0971 L 38.6646,55.0971 L 38.6646,26.0986 L 37.6980,26.0986 Z" stroke-width="1px" stroke="#C1C1C1" fill="#C1C1C1"/>
        <path clip-path="url(#clip-294702567)" d="M 38.6646,26.0986 L 38.6646,55.0971 L 39.6312,55.0971 L 39.6312,26.0986 L 38.6646,26.0986 Z" stroke-width="1px" stroke="#C0C0C0" fill="#C0C0C0"/>
        <path clip-path="url(#clip-294702567)" d="M 39.6312,26.0986 L 39.6312,55.0971 L 40.5978,55.0971 L 40.5978,26.0986 L 39.6312,26.0986 Z" stroke-width="1px" stroke="#BEBEBE" fill="#BEBEBE"/>
        <path clip-path="url(#clip-294702567)" d="M 40.5978,26.0986 L 40.5978,55.0971 L 41.5644,55.0971 L 41.5644,26.0986 L 40.5978,26.0986 Z" stroke-width="1px" stroke="#BDBDBD" fill="#BDBDBD"/>
        <path clip-path="url(#clip-294702567)" d="M 41.5644,26.0986 L 41.5644,55.0971 L 42.5311,55.0971 L 42.5311,26.0986 L 41.5644,26.0986 Z" stroke-width="1px" stroke="#BCBCBC" fill="#BCBCBC"/>
        <path clip-path="url(#clip-294702567)" d="M 42.5311,26.0986 L 42.5311,55.0971 L 43.4977,55.0971 L 43.4977,26.0986 L 42.5311,26.0986 Z" stroke-width="1px" stroke="#BBBBBB" fill="#BBBBBB"/>
        <path clip-path="url(#clip-294702567)" d="M 43.4977,26.0986 L 43.4977,55.0971 L 44.4643,55.0971 L 44.4643,26.0986 L 43.4977,26.0986 Z" stroke-width="1px" stroke="#B9B9B9" fill="#B9B9B9"/>
        <path clip-path="url(#clip-294702567)" d="M 44.4643,26.0986 L 44.4643,55.0971 L 45.4309,55.0971 L 45.4309,26.0986 L 44.4643,26.0986 Z" stroke-width="1px" stroke="#B8B8B8" fill="#B8B8B8"/>
        <path clip-path="url(#clip-294702567)" d="M 45.4309,26.0986 L 45.4309,55.0971 L 46.3975,55.0971 L 46.3975,26.0986 L 45.4309,26.0986 Z" stroke-width="1px" stroke="#B6B6B6" fill="#B6B6B6"/>
        <path clip-path="url(#clip-294702567)" d="M 46.3975,26.0986 L 46.3975,55.0971 L 47.3641,55.0971 L 47.3641,26.0986 L 46.3975,26.0986 Z" stroke-width="1px" stroke="#B5B5B5" fill="#B5B5B5"/>
        <path clip-path="url(#clip-294702567)" d="M 47.3641,26.0986 L 47.3641,55.0971 L 48.3307,55.0971 L 48.3307,26.0986 L 47.3641,26.0986 Z" stroke-width="1px" stroke="#B3B3B3" fill="#B3B3B3"/>
        <path clip-path="url(#clip-294702567)" d="M 48.3307,26.0986 L 48.3307,55.0971 L 49.2974,55.0971 L 49.2974,26.0986 L 48.3307,26.0986 Z" stroke-width="1px" stroke="#B2B2B2" fill="#B2B2B2"/>
        <path clip-path="url(#clip-294702567)" d="M 49.2974,26.0986 L 49.2974,55.0971 L 50.2640,55.0971 L 50.2640,26.0986 L 49.2974,26.0986 Z" stroke-width="1px" stroke="#B0B0B0" fill="#B0B0B0"/>
        <path clip-path="url(#clip-294702567)" d="M 50.2640,26.0986 L 50.2640,55.0971 L 51.2306,55.0971 L 51.2306,26.0986 L 50.2640,26.0986 Z" stroke-width="1px" stroke="#AFAFAF" fill="#AFAFAF"/>
        <path clip-path="url(#clip-294702567)" d="M 51.2306,26.0986 L 51.2306,55.0971 L 52.1972,55.0971 L 52.1972,26.0986 L 51.2306,26.0986 Z" stroke-width="1px" stroke="#ADADAD" fill="#ADADAD"/>
        <path clip-path="url(#clip-294702567)" d="M 52.1972,26.0986 L 52.1972,55.0971 L 53.1638,55.0971 L 53.1638,26.0986 L 52.1972,26.0986 Z" stroke-width="1px" stroke="#ACACAC" fill="#ACACAC"/>
        <path clip-path="url(#clip-294702567)" d="M 53.1638,26.0986 L 53.1638,55.0971 L 54.1304,55.0971 L 54.1304,26.0986 L 53.1638,26.0986 Z" stroke-width="1px" stroke="#AAAAAA" fill="#AAAAAA"/>
        <path clip-path="url(#clip-294702567)" d="M 54.1304,26.0986 L 54.1304,55.0971 L 55.0971,55.0971 L 55.0971,26.0986 L 54.1304,26.0986 Z" stroke-width="1px" stroke="#A9A9A9" fill="#A9A9A9"/>
        <path clip-path="url(#clip-294702567)" d="M 55.0971,26.0986 L 55.0971,55.0971 L 56.0637,55.0971 L 56.0637,26.0986 L 55.0971,26.0986 Z" stroke-width="1px" stroke="#A7A7A7" fill="#A7A7A7"/>
        <g transform="matrix(0.0625 0.0000 0.0000 0.0625 0.0000 0.0000)">
          <path d="M 63.7966,649.5653 L 897.0187,649.5653 L 897.0187,425.3106 L 63.7966,425.3106 L 63.7966,649.5653 M 63.7966,880.5863 L 897.0187,880.5863 L 897.0187,655.3650 L 63.7966,655.3650 L 63.7966,880.5863 " stroke="#0054A6" stroke-width="9.6661" stroke-linecap="round" stroke-linejoin="round" fill="none"/>
        </g>
        <g transform="matrix(1.0000 0.0000 0.0000 1.0000 0.0000 0.0000)">
          <defs>
            <clipPath id="clip-1726956429">
              <path d="M 5.7997,28.0318 L 55.0971,28.0318 L 55.0971,39.6312 L 5.7997,39.6312 L 5.7997,28.0318 Z Z"/>
            </clipPath>
          </defs>
          <path clip-path="url(#clip-1726956429)" d="M 4.8331,28.0318 L 4.8331,39.6312 L 5.7997,39.6312 L 5.7997,28.0318 L 4.8331,28.0318 Z" stroke-width="1px" stroke="#65BFEC" fill="#65BFEC"/>
          <path clip-path="url(#clip-1726956429)" d="M 5.7997,28.0318 L 5.7997,39.6312 L 6.7663,39.6312 L 6.7663,28.0318 L 5.7997,28.0318 Z" stroke-width="1px" stroke="#0178C0" fill="#0178C0"/>
          <path clip-path="url(#clip-1726956429)" d="M 6.7663,28.0318 L 6.7663,39.6312 L 7.7329,39.6312 L 7.7329,28.0318 L 6.7663,28.0318 Z" stroke-width="1px" stroke="#0379C1" fill="#0379C1"/>
          <path clip-path="url(#clip-1726956429)" d="M 7.7329,28.0318 L 7.7329,39.6312 L 8.6995,39.6312 L 8.6995,28.0318 L 7.7329,28.0318 Z" stroke-width="1px" stroke="#047BC2" fill="#047BC2"/>
          <path clip-path="url(#clip-1726956429)" d="M 8.6995,28.0318 L 8.6995,39.6312 L 9.6661,39.6312 L 9.6661,28.0318 L 8.6995,28.0318 Z" stroke-width="1px" stroke="#067CC3" fill="#067CC3"/>
          <path clip-path="url(#clip-1726956429)" d="M 9.6661,28.0318 L 9.6661,39.6312 L 10.6328,39.6312 L 10.6328,28.0318 L 9.6661,28.0318 Z" stroke-width="1px" stroke="#097DC4" fill="#097DC4"/>
          <path clip-path="url(#clip-1726956429)" d="M 10.6328,28.0318 L 10.6328,39.6312 L 11.5994,39.6312 L 11.5994,28.0318 L 10.6328,28.0318 Z" stroke-width="1px" stroke="#0B7FC5" fill="#0B7FC5"/>
          <path clip-path="url(#clip-1726956429)" d="M 11.5994,28.0318 L 11.5994,39.6312 L 12.5660,39.6312 L 12.5660,28.0318 L 11.5994,28.0318 Z" stroke-width="1px" stroke="#0D80C6" fill="#0D80C6"/>
          <path clip-path="url(#clip-1726956429)" d="M 12.5660,28.0318 L 12.5660,39.6312 L 13.5326,39.6312 L 13.5326,28.0318 L 12.5660,28.0318 Z" stroke-width="1px" stroke="#0F82C7" fill="#0F82C7"/>
          <path clip-path="url(#clip-1726956429)" d="M 13.5326,28.0318 L 13.5326,39.6312 L 14.4992,39.6312 L 14.4992,28.0318 L 13.5326,28.0318 Z" stroke-width="1px" stroke="#1183C7" fill="#1183C7"/>
          <path clip-path="url(#clip-1726956429)" d="M 14.4992,28.0318 L 14.4992,39.6312 L 15.4658,39.6312 L 15.4658,28.0318 L 14.4992,28.0318 Z" stroke-width="1px" stroke="#1385C8" fill="#1385C8"/>
          <path clip-path="url(#clip-1726956429)" d="M 15.4658,28.0318 L 15.4658,39.6312 L 16.4325,39.6312 L 16.4325,28.0318 L 15.4658,28.0318 Z" stroke-width="1px" stroke="#1586C9" fill="#1586C9"/>
          <path clip-path="url(#clip-1726956429)" d="M 16.4325,28.0318 L 16.4325,39.6312 L 17.3991,39.6312 L 17.3991,28.0318 L 16.4325,28.0318 Z" stroke-width="1px" stroke="#1787CA" fill="#1787CA"/>
          <path clip-path="url(#clip-1726956429)" d="M 17.3991,28.0318 L 17.3991,39.6312 L 18.3657,39.6312 L 18.3657,28.0318 L 17.3991,28.0318 Z" stroke-width="1px" stroke="#1989CB" fill="#1989CB"/>
          <path clip-path="url(#clip-1726956429)" d="M 18.3657,28.0318 L 18.3657,39.6312 L 19.3323,39.6312 L 19.3323,28.0318 L 18.3657,28.0318 Z" stroke-width="1px" stroke="#1B8ACC" fill="#1B8ACC"/>
          <path clip-path="url(#clip-1726956429)" d="M 19.3323,28.0318 L 19.3323,39.6312 L 20.2989,39.6312 L 20.2989,28.0318 L 19.3323,28.0318 Z" stroke-width="1px" stroke="#1D8CCD" fill="#1D8CCD"/>
          <path clip-path="url(#clip-1726956429)" d="M 20.2989,28.0318 L 20.2989,39.6312 L 21.2655,39.6312 L 21.2655,28.0318 L 20.2989,28.0318 Z" stroke-width="1px" stroke="#1F8DCE" fill="#1F8DCE"/>
          <path clip-path="url(#clip-1726956429)" d="M 21.2655,28.0318 L 21.2655,39.6312 L 22.2321,39.6312 L 22.2321,28.0318 L 21.2655,28.0318 Z" stroke-width="1px" stroke="#218FCE" fill="#218FCE"/>
          <path clip-path="url(#clip-1726956429)" d="M 22.2321,28.0318 L 22.2321,39.6312 L 23.1988,39.6312 L 23.1988,28.0318 L 22.2321,28.0318 Z" stroke-width="1px" stroke="#2390CF" fill="#2390CF"/>
          <path clip-path="url(#clip-1726956429)" d="M 23.1988,28.0318 L 23.1988,39.6312 L 24.1654,39.6312 L 24.1654,28.0318 L 23.1988,28.0318 Z" stroke-width="1px" stroke="#2591D0" fill="#2591D0"/>
          <path clip-path="url(#clip-1726956429)" d="M 24.1654,28.0318 L 24.1654,39.6312 L 25.1320,39.6312 L 25.1320,28.0318 L 24.1654,28.0318 Z" stroke-width="1px" stroke="#2792D1" fill="#2792D1"/>
          <path clip-path="url(#clip-1726956429)" d="M 25.1320,28.0318 L 25.1320,39.6312 L 26.0986,39.6312 L 26.0986,28.0318 L 25.1320,28.0318 Z" stroke-width="1px" stroke="#2994D2" fill="#2994D2"/>
          <path clip-path="url(#clip-1726956429)" d="M 26.0986,28.0318 L 26.0986,39.6312 L 27.0652,39.6312 L 27.0652,28.0318 L 26.0986,28.0318 Z" stroke-width="1px" stroke="#2B96D3" fill="#2B96D3"/>
          <path clip-path="url(#clip-1726956429)" d="M 27.0652,28.0318 L 27.0652,39.6312 L 28.0318,39.6312 L 28.0318,28.0318 L 27.0652,28.0318 Z" stroke-width="1px" stroke="#2D97D4" fill="#2D97D4"/>
          <path clip-path="url(#clip-1726956429)" d="M 28.0318,28.0318 L 28.0318,39.6312 L 28.9984,39.6312 L 28.9984,28.0318 L 28.0318,28.0318 Z" stroke-width="1px" stroke="#2F99D5" fill="#2F99D5"/>
          <path clip-path="url(#clip-1726956429)" d="M 28.9984,28.0318 L 28.9984,39.6312 L 29.9651,39.6312 L 29.9651,28.0318 L 28.9984,28.0318 Z" stroke-width="1px" stroke="#319AD6" fill="#319AD6"/>
          <path clip-path="url(#clip-1726956429)" d="M 29.9651,28.0318 L 29.9651,39.6312 L 30.9317,39.6312 L 30.9317,28.0318 L 29.9651,28.0318 Z" stroke-width="1px" stroke="#339CD7" fill="#339CD7"/>
          <path clip-path="url(#clip-1726956429)" d="M 30.9317,28.0318 L 30.9317,39.6312 L 31.8983,39.6312 L 31.8983,28.0318 L 30.9317,28.0318 Z" stroke-width="1px" stroke="#359DD8" fill="#359DD8"/>
          <path clip-path="url(#clip-1726956429)" d="M 31.8983,28.0318 L 31.8983,39.6312 L 32.8649,39.6312 L 32.8649,28.0318 L 31.8983,28.0318 Z" stroke-width="1px" stroke="#379ED8" fill="#379ED8"/>
          <path clip-path="url(#clip-1726956429)" d="M 32.8649,28.0318 L 32.8649,39.6312 L 33.8315,39.6312 L 33.8315,28.0318 L 32.8649,28.0318 Z" stroke-width="1px" stroke="#39A0D9" fill="#39A0D9"/>
          <path clip-path="url(#clip-1726956429)" d="M 33.8315,28.0318 L 33.8315,39.6312 L 34.7981,39.6312 L 34.7981,28.0318 L 33.8315,28.0318 Z" stroke-width="1px" stroke="#3BA1DA" fill="#3BA1DA"/>
          <path clip-path="url(#clip-1726956429)" d="M 34.7981,28.0318 L 34.7981,39.6312 L 35.7648,39.6312 L 35.7648,28.0318 L 34.7981,28.0318 Z" stroke-width="1px" stroke="#3DA3DB" fill="#3DA3DB"/>
          <path clip-path="url(#clip-1726956429)" d="M 35.7648,28.0318 L 35.7648,39.6312 L 36.7314,39.6312 L 36.7314,28.0318 L 35.7648,28.0318 Z" stroke-width="1px" stroke="#3FA4DC" fill="#3FA4DC"/>
          <path clip-path="url(#clip-1726956429)" d="M 36.7314,28.0318 L 36.7314,39.6312 L 37.6980,39.6312 L 37.6980,28.0318 L 36.7314,28.0318 Z" stroke-width="1px" stroke="#41A6DD" fill="#41A6DD"/>
          <path clip-path="url(#clip-1726956429)" d="M 37.6980,28.0318 L 37.6980,39.6312 L 38.6646,39.6312 L 38.6646,28.0318 L 37.6980,28.0318 Z" stroke-width="1px" stroke="#43A7DE" fill="#43A7DE"/>
          <path clip-path="url(#clip-1726956429)" d="M 38.6646,28.0318 L 38.6646,39.6312 L 39.6312,39.6312 L 39.6312,28.0318 L 38.6646,28.0318 Z" stroke-width="1px" stroke="#45A8DE" fill="#45A8DE"/>
          <path clip-path="url(#clip-1726956429)" d="M 39.6312,28.0318 L 39.6312,39.6312 L 40.5978,39.6312 L 40.5978,28.0318 L 39.6312,28.0318 Z" stroke-width="1px" stroke="#47AADF" fill="#47AADF"/>
          <path clip-path="url(#clip-1726956429)" d="M 40.5978,28.0318 L 40.5978,39.6312 L 41.5644,39.6312 L 41.5644,28.0318 L 40.5978,28.0318 Z" stroke-width="1px" stroke="#49ABE0" fill="#49ABE0"/>
          <path clip-path="url(#clip-1726956429)" d="M 41.5644,28.0318 L 41.5644,39.6312 L 42.5311,39.6312 L 42.5311,28.0318 L 41.5644,28.0318 Z" stroke-width="1px" stroke="#4BADE1" fill="#4BADE1"/>
          <path clip-path="url(#clip-1726956429)" d="M 42.5311,28.0318 L 42.5311,39.6312 L 43.4977,39.6312 L 43.4977,28.0318 L 42.5311,28.0318 Z" stroke-width="1px" stroke="#4EAEE2" fill="#4EAEE2"/>
          <path clip-path="url(#clip-1726956429)" d="M 43.4977,28.0318 L 43.4977,39.6312 L 44.4643,39.6312 L 44.4643,28.0318 L 43.4977,28.0318 Z" stroke-width="1px" stroke="#4FB0E3" fill="#4FB0E3"/>
          <path clip-path="url(#clip-1726956429)" d="M 44.4643,28.0318 L 44.4643,39.6312 L 45.4309,39.6312 L 45.4309,28.0318 L 44.4643,28.0318 Z" stroke-width="1px" stroke="#51B1E4" fill="#51B1E4"/>
          <path clip-path="url(#clip-1726956429)" d="M 45.4309,28.0318 L 45.4309,39.6312 L 46.3975,39.6312 L 46.3975,28.0318 L 45.4309,28.0318 Z" stroke-width="1px" stroke="#53B2E5" fill="#53B2E5"/>
          <path clip-path="url(#clip-1726956429)" d="M 46.3975,28.0318 L 46.3975,39.6312 L 47.3641,39.6312 L 47.3641,28.0318 L 46.3975,28.0318 Z" stroke-width="1px" stroke="#55B4E6" fill="#55B4E6"/>
          <path clip-path="url(#clip-1726956429)" d="M 47.3641,28.0318 L 47.3641,39.6312 L 48.3307,39.6312 L 48.3307,28.0318 L 47.3641,28.0318 Z" stroke-width="1px" stroke="#57B5E6" fill="#57B5E6"/>
          <path clip-path="url(#clip-1726956429)" d="M 48.3307,28.0318 L 48.3307,39.6312 L 49.2974,39.6312 L 49.2974,28.0318 L 48.3307,28.0318 Z" stroke-width="1px" stroke="#59B7E7" fill="#59B7E7"/>
          <path clip-path="url(#clip-1726956429)" d="M 49.2974,28.0318 L 49.2974,39.6312 L 50.2640,39.6312 L 50.2640,28.0318 L 49.2974,28.0318 Z" stroke-width="1px" stroke="#5BB8E8" fill="#5BB8E8"/>
          <path clip-path="url(#clip-1726956429)" d="M 50.2640,28.0318 L 50.2640,39.6312 L 51.2306,39.6312 L 51.2306,28.0318 L 50.2640,28.0318 Z" stroke-width="1px" stroke="#5DB9E9" fill="#5DB9E9"/>
          <path clip-path="url(#clip-1726956429)" d="M 51.2306,28.0318 L 51.2306,39.6312 L 52.1972,39.6312 L 52.1972,28.0318 L 51.2306,28.0318 Z" stroke-width="1px" stroke="#5FBBEA" fill="#5FBBEA"/>
          <path clip-path="url(#clip-1726956429)" d="M 52.1972,28.0318 L 52.1972,39.6312 L 53.1638,39.6312 L 53.1638,28.0318 L 52.1972,28.0318 Z" stroke-width="1px" stroke="#61BCEB" fill="#61BCEB"/>
          <path clip-path="url(#clip-1726956429)" d="M 53.1638,28.0318 L 53.1638,39.6312 L 54.1304,39.6312 L 54.1304,28.0318 L 53.1638,28.0318 Z" stroke-width="1px" stroke="#63BEEC" fill="#63BEEC"/>
        </g>
        <g transform="matrix(0.0625 0.0000 0.0000 0.0625 0.0000 0.0000)">
          <path d="M 872.8533,626.3665 L 87.9620,626.3665 L 87.9620,448.5094 L 872.8533,448.5094 L 872.8533,626.3665 " stroke="#0054A6" stroke-width="11.5994" stroke-linecap="round" stroke-linejoin="round" fill="none"/>
        </g>
        <g transform="matrix(1.0000 0.0000 0.0000 1.0000 0.0000 0.0000)">
</g>
        <g transform="matrix(0.0625 0.0000 0.0000 0.0625 0.0000 0.0000)">
          <path d="M 117.9270,477.5078 C 117.9270,477.5078 118.8936,477.5078 118.8936,477.5078 C 133.3929,477.5078 136.2927,491.0404 136.2927,501.6732 L 136.2927,609.9341 L 147.8921,609.9341 L 147.8921,464.9418 L 136.2927,464.9418 L 117.9270,464.9418 L 117.9270,477.5078 Z M 812.9232,477.5078 C 812.9232,477.5078 812.9232,477.5078 812.9232,477.5078 C 828.3891,477.5078 830.3223,491.0404 830.3223,501.6732 L 830.3223,609.9341 L 842.8883,609.9341 L 842.8883,464.9418 L 830.3223,464.9418 L 812.9232,464.9418 L 812.9232,477.5078 Z M 743.3269,477.5078 C 743.3269,477.5078 743.3269,477.5078 743.3269,477.5078 C 758.7928,477.5078 760.7260,491.0404 760.7260,501.6732 L 760.7260,609.9341 L 773.2920,609.9341 L 773.2920,464.9418 L 761.6926,464.9418 L 743.3269,464.9418 L 743.3269,477.5078 Z M 673.7307,477.5078 C 673.7307,477.5078 673.7307,477.5078 673.7307,477.5078 C 689.1965,477.5078 691.1297,491.0404 692.0963,501.6732 L 692.0963,609.9341 L 703.6957,609.9341 L 703.6957,464.9418 L 692.0963,464.9418 L 673.7307,464.9418 L 673.7307,477.5078 Z M 604.1344,477.5078 C 604.1344,477.5078 604.1344,477.5078 605.1010,477.5078 C 619.6002,477.5078 622.5001,491.0404 622.5001,501.6732 L 622.5001,609.9341 L 634.0994,609.9341 L 634.0994,464.9418 L 622.5001,464.9418 L 604.1344,464.9418 L 604.1344,477.5078 Z M 534.5381,477.5078 C 534.5381,477.5078 535.5047,477.5078 535.5047,477.5078 C 550.0039,477.5078 552.9038,491.0404 552.9038,501.6732 L 552.9038,609.9341 L 564.5032,609.9341 L 564.5032,464.9418 L 552.9038,464.9418 L 534.5381,464.9418 L 534.5381,477.5078 Z M 464.9418,477.5078 C 465.9084,477.5078 465.9084,477.5078 465.9084,477.5078 C 481.3743,477.5078 483.3075,491.0404 483.3075,501.6732 L 483.3075,609.9341 L 494.9069,609.9341 L 494.9069,464.9418 L 483.3075,464.9418 L 464.9418,464.9418 L 464.9418,477.5078 Z M 396.3121,477.5078 C 396.3121,477.5078 396.3121,477.5078 396.3121,477.5078 C 411.7780,477.5078 413.7112,491.0404 413.7112,501.6732 L 413.7112,609.9341 L 426.2772,609.9341 L 426.2772,464.9418 L 414.6778,464.9418 L 396.3121,464.9418 L 396.3121,477.5078 Z M 326.7159,477.5078 C 326.7159,477.5078 326.7159,477.5078 326.7159,477.5078 C 342.1817,477.5078 344.1149,491.0404 344.1149,501.6732 L 344.1149,609.9341 L 356.6809,609.9341 L 356.6809,464.9418 L 345.0816,464.9418 L 326.7159,464.9418 L 326.7159,477.5078 Z M 257.1196,477.5078 C 257.1196,477.5078 257.1196,477.5078 257.1196,477.5078 C 272.5854,477.5078 274.5187,491.0404 275.4853,501.6732 L 275.4853,609.9341 L 287.0847,609.9341 L 287.0847,464.9418 L 275.4853,464.9418 L 257.1196,464.9418 L 257.1196,477.5078 Z M 187.5233,477.5078 C 187.5233,477.5078 187.5233,477.5078 188.4899,477.5078 C 202.9891,477.5078 205.8890,491.0404 205.8890,501.6732 L 205.8890,609.9341 L 217.4884,609.9341 L 217.4884,464.9418 L 205.8890,464.9418 L 187.5233,464.9418 L 187.5233,477.5078 Z " fill="#0054A6" stroke="none"/>
        </g>
        <g transform="matrix(1.0000 0.0000 0.0000 1.0000 0.0000 0.0000)">
          <defs>
            <clipPath id="clip-336465782">
              <path d="M 5.7997,42.5311 L 55.0971,42.5311 L 55.0971,54.1304 L 5.7997,54.1304 L 5.7997,42.5311 Z Z"/>
            </clipPath>
          </defs>
          <path clip-path="url(#clip-336465782)" d="M 4.8331,41.5644 L 4.8331,53.1638 L 5.7997,53.1638 L 5.7997,41.5644 L 4.8331,41.5644 Z" stroke-width="1px" stroke="#65BFEC" fill="#65BFEC"/>
          <path clip-path="url(#clip-336465782)" d="M 5.7997,41.5644 L 5.7997,53.1638 L 6.7663,53.1638 L 6.7663,41.5644 L 5.7997,41.5644 Z" stroke-width="1px" stroke="#0178C0" fill="#0178C0"/>
          <path clip-path="url(#clip-336465782)" d="M 6.7663,41.5644 L 6.7663,53.1638 L 7.7329,53.1638 L 7.7329,41.5644 L 6.7663,41.5644 Z" stroke-width="1px" stroke="#0379C1" fill="#0379C1"/>
          <path clip-path="url(#clip-336465782)" d="M 7.7329,41.5644 L 7.7329,53.1638 L 8.6995,53.1638 L 8.6995,41.5644 L 7.7329,41.5644 Z" stroke-width="1px" stroke="#047BC2" fill="#047BC2"/>
          <path clip-path="url(#clip-336465782)" d="M 8.6995,41.5644 L 8.6995,53.1638 L 9.6661,53.1638 L 9.6661,41.5644 L 8.6995,41.5644 Z" stroke-width="1px" stroke="#067CC3" fill="#067CC3"/>
          <path clip-path="url(#clip-336465782)" d="M 9.6661,41.5644 L 9.6661,53.1638 L 10.6328,53.1638 L 10.6328,41.5644 L 9.6661,41.5644 Z" stroke-width="1px" stroke="#097DC4" fill="#097DC4"/>
          <path clip-path="url(#clip-336465782)" d="M 10.6328,41.5644 L 10.6328,53.1638 L 11.5994,53.1638 L 11.5994,41.5644 L 10.6328,41.5644 Z" stroke-width="1px" stroke="#0B7FC5" fill="#0B7FC5"/>
          <path clip-path="url(#clip-336465782)" d="M 11.5994,41.5644 L 11.5994,53.1638 L 12.5660,53.1638 L 12.5660,41.5644 L 11.5994,41.5644 Z" stroke-width="1px" stroke="#0D80C6" fill="#0D80C6"/>
          <path clip-path="url(#clip-336465782)" d="M 12.5660,41.5644 L 12.5660,53.1638 L 13.5326,53.1638 L 13.5326,41.5644 L 12.5660,41.5644 Z" stroke-width="1px" stroke="#0F82C7" fill="#0F82C7"/>
          <path clip-path="url(#clip-336465782)" d="M 13.5326,41.5644 L 13.5326,53.1638 L 14.4992,53.1638 L 14.4992,41.5644 L 13.5326,41.5644 Z" stroke-width="1px" stroke="#1183C7" fill="#1183C7"/>
          <path clip-path="url(#clip-336465782)" d="M 14.4992,41.5644 L 14.4992,53.1638 L 15.4658,53.1638 L 15.4658,41.5644 L 14.4992,41.5644 Z" stroke-width="1px" stroke="#1385C8" fill="#1385C8"/>
          <path clip-path="url(#clip-336465782)" d="M 15.4658,41.5644 L 15.4658,53.1638 L 16.4325,53.1638 L 16.4325,41.5644 L 15.4658,41.5644 Z" stroke-width="1px" stroke="#1586C9" fill="#1586C9"/>
          <path clip-path="url(#clip-336465782)" d="M 16.4325,41.5644 L 16.4325,53.1638 L 17.3991,53.1638 L 17.3991,41.5644 L 16.4325,41.5644 Z" stroke-width="1px" stroke="#1787CA" fill="#1787CA"/>
          <path clip-path="url(#clip-336465782)" d="M 17.3991,41.5644 L 17.3991,53.1638 L 18.3657,53.1638 L 18.3657,41.5644 L 17.3991,41.5644 Z" stroke-width="1px" stroke="#1989CB" fill="#1989CB"/>
          <path clip-path="url(#clip-336465782)" d="M 18.3657,41.5644 L 18.3657,53.1638 L 19.3323,53.1638 L 19.3323,41.5644 L 18.3657,41.5644 Z" stroke-width="1px" stroke="#1B8ACC" fill="#1B8ACC"/>
          <path clip-path="url(#clip-336465782)" d="M 19.3323,41.5644 L 19.3323,53.1638 L 20.2989,53.1638 L 20.2989,41.5644 L 19.3323,41.5644 Z" stroke-width="1px" stroke="#1D8CCD" fill="#1D8CCD"/>
          <path clip-path="url(#clip-336465782)" d="M 20.2989,41.5644 L 20.2989,53.1638 L 21.2655,53.1638 L 21.2655,41.5644 L 20.2989,41.5644 Z" stroke-width="1px" stroke="#1F8DCE" fill="#1F8DCE"/>
          <path clip-path="url(#clip-336465782)" d="M 21.2655,41.5644 L 21.2655,53.1638 L 22.2321,53.1638 L 22.2321,41.5644 L 21.2655,41.5644 Z" stroke-width="1px" stroke="#218FCE" fill="#218FCE"/>
          <path clip-path="url(#clip-336465782)" d="M 22.2321,41.5644 L 22.2321,53.1638 L 23.1988,53.1638 L 23.1988,41.5644 L 22.2321,41.5644 Z" stroke-width="1px" stroke="#2390CF" fill="#2390CF"/>
          <path clip-path="url(#clip-336465782)" d="M 23.1988,41.5644 L 23.1988,53.1638 L 24.1654,53.1638 L 24.1654,41.5644 L 23.1988,41.5644 Z" stroke-width="1px" stroke="#2591D0" fill="#2591D0"/>
          <path clip-path="url(#clip-336465782)" d="M 24.1654,41.5644 L 24.1654,53.1638 L 25.1320,53.1638 L 25.1320,41.5644 L 24.1654,41.5644 Z" stroke-width="1px" stroke="#2792D1" fill="#2792D1"/>
          <path clip-path="url(#clip-336465782)" d="M 25.1320,41.5644 L 25.1320,53.1638 L 26.0986,53.1638 L 26.0986,41.5644 L 25.1320,41.5644 Z" stroke-width="1px" stroke="#2994D2" fill="#2994D2"/>
          <path clip-path="url(#clip-336465782)" d="M 26.0986,41.5644 L 26.0986,53.1638 L 27.0652,53.1638 L 27.0652,41.5644 L 26.0986,41.5644 Z" stroke-width="1px" stroke="#2B96D3" fill="#2B96D3"/>
          <path clip-path="url(#clip-336465782)" d="M 27.0652,41.5644 L 27.0652,53.1638 L 28.0318,53.1638 L 28.0318,41.5644 L 27.0652,41.5644 Z" stroke-width="1px" stroke="#2D97D4" fill="#2D97D4"/>
          <path clip-path="url(#clip-336465782)" d="M 28.0318,41.5644 L 28.0318,53.1638 L 28.9984,53.1638 L 28.9984,41.5644 L 28.0318,41.5644 Z" stroke-width="1px" stroke="#2F99D5" fill="#2F99D5"/>
          <path clip-path="url(#clip-336465782)" d="M 28.9984,41.5644 L 28.9984,53.1638 L 29.9651,53.1638 L 29.9651,41.5644 L 28.9984,41.5644 Z" stroke-width="1px" stroke="#319AD6" fill="#319AD6"/>
          <path clip-path="url(#clip-336465782)" d="M 29.9651,41.5644 L 29.9651,53.1638 L 30.9317,53.1638 L 30.9317,41.5644 L 29.9651,41.5644 Z" stroke-width="1px" stroke="#339CD7" fill="#339CD7"/>
          <path clip-path="url(#clip-336465782)" d="M 30.9317,41.5644 L 30.9317,53.1638 L 31.8983,53.1638 L 31.8983,41.5644 L 30.9317,41.5644 Z" stroke-width="1px" stroke="#359DD8" fill="#359DD8"/>
          <path clip-path="url(#clip-336465782)" d="M 31.8983,41.5644 L 31.8983,53.1638 L 32.8649,53.1638 L 32.8649,41.5644 L 31.8983,41.5644 Z" stroke-width="1px" stroke="#379ED8" fill="#379ED8"/>
          <path clip-path="url(#clip-336465782)" d="M 32.8649,41.5644 L 32.8649,53.1638 L 33.8315,53.1638 L 33.8315,41.5644 L 32.8649,41.5644 Z" stroke-width="1px" stroke="#39A0D9" fill="#39A0D9"/>
          <path clip-path="url(#clip-336465782)" d="M 33.8315,41.5644 L 33.8315,53.1638 L 34.7981,53.1638 L 34.7981,41.5644 L 33.8315,41.5644 Z" stroke-width="1px" stroke="#3BA1DA" fill="#3BA1DA"/>
          <path clip-path="url(#clip-336465782)" d="M 34.7981,41.5644 L 34.7981,53.1638 L 35.7648,53.1638 L 35.7648,41.5644 L 34.7981,41.5644 Z" stroke-width="1px" stroke="#3DA3DB" fill="#3DA3DB"/>
          <path clip-path="url(#clip-336465782)" d="M 35.7648,41.5644 L 35.7648,53.1638 L 36.7314,53.1638 L 36.7314,41.5644 L 35.7648,41.5644 Z" stroke-width="1px" stroke="#3FA4DC" fill="#3FA4DC"/>
          <path clip-path="url(#clip-336465782)" d="M 36.7314,41.5644 L 36.7314,53.1638 L 37.6980,53.1638 L 37.6980,41.5644 L 36.7314,41.5644 Z" stroke-width="1px" stroke="#41A6DD" fill="#41A6DD"/>
          <path clip-path="url(#clip-336465782)" d="M 37.6980,41.5644 L 37.6980,53.1638 L 38.6646,53.1638 L 38.6646,41.5644 L 37.6980,41.5644 Z" stroke-width="1px" stroke="#43A7DE" fill="#43A7DE"/>
          <path clip-path="url(#clip-336465782)" d="M 38.6646,41.5644 L 38.6646,53.1638 L 39.6312,53.1638 L 39.6312,41.5644 L 38.6646,41.5644 Z" stroke-width="1px" stroke="#45A8DE" fill="#45A8DE"/>
          <path clip-path="url(#clip-336465782)" d="M 39.6312,41.5644 L 39.6312,53.1638 L 40.5978,53.1638 L 40.5978,41.5644 L 39.6312,41.5644 Z" stroke-width="1px" stroke="#47AADF" fill="#47AADF"/>
          <path clip-path="url(#clip-336465782)" d="M 40.5978,41.5644 L 40.5978,53.1638 L 41.5644,53.1638 L 41.5644,41.5644 L 40.5978,41.5644 Z" stroke-width="1px" stroke="#49ABE0" fill="#49ABE0"/>
          <path clip-path="url(#clip-336465782)" d="M 41.5644,41.5644 L 41.5644,53.1638 L 42.5311,53.1638 L 42.5311,41.5644 L 41.5644,41.5644 Z" stroke-width="1px" stroke="#4BADE1" fill="#4BADE1"/>
          <path clip-path="url(#clip-336465782)" d="M 42.5311,41.5644 L 42.5311,53.1638 L 43.4977,53.1638 L 43.4977,41.5644 L 42.5311,41.5644 Z" stroke-width="1px" stroke="#4EAEE2" fill="#4EAEE2"/>
          <path clip-path="url(#clip-336465782)" d="M 43.4977,41.5644 L 43.4977,53.1638 L 44.4643,53.1638 L 44.4643,41.5644 L 43.4977,41.5644 Z" stroke-width="1px" stroke="#4FB0E3" fill="#4FB0E3"/>
          <path clip-path="url(#clip-336465782)" d="M 44.4643,41.5644 L 44.4643,53.1638 L 45.4309,53.1638 L 45.4309,41.5644 L 44.4643,41.5644 Z" stroke-width="1px" stroke="#51B1E4" fill="#51B1E4"/>
          <path clip-path="url(#clip-336465782)" d="M 45.4309,41.5644 L 45.4309,53.1638 L 46.3975,53.1638 L 46.3975,41.5644 L 45.4309,41.5644 Z" stroke-width="1px" stroke="#53B2E5" fill="#53B2E5"/>
          <path clip-path="url(#clip-336465782)" d="M 46.3975,41.5644 L 46.3975,53.1638 L 47.3641,53.1638 L 47.3641,41.5644 L 46.3975,41.5644 Z" stroke-width="1px" stroke="#55B4E6" fill="#55B4E6"/>
          <path clip-path="url(#clip-336465782)" d="M 47.3641,41.5644 L 47.3641,53.1638 L 48.3307,53.1638 L 48.3307,41.5644 L 47.3641,41.5644 Z" stroke-width="1px" stroke="#57B5E6" fill="#57B5E6"/>
          <path clip-path="url(#clip-336465782)" d="M 48.3307,41.5644 L 48.3307,53.1638 L 49.2974,53.1638 L 49.2974,41.5644 L 48.3307,41.5644 Z" stroke-width="1px" stroke="#59B7E7" fill="#59B7E7"/>
          <path clip-path="url(#clip-336465782)" d="M 49.2974,41.5644 L 49.2974,53.1638 L 50.2640,53.1638 L 50.2640,41.5644 L 49.2974,41.5644 Z" stroke-width="1px" stroke="#5BB8E8" fill="#5BB8E8"/>
          <path clip-path="url(#clip-336465782)" d="M 50.2640,41.5644 L 50.2640,53.1638 L 51.2306,53.1638 L 51.2306,41.5644 L 50.2640,41.5644 Z" stroke-width="1px" stroke="#5DB9E9" fill="#5DB9E9"/>
          <path clip-path="url(#clip-336465782)" d="M 51.2306,41.5644 L 51.2306,53.1638 L 52.1972,53.1638 L 52.1972,41.5644 L 51.2306,41.5644 Z" stroke-width="1px" stroke="#5FBBEA" fill="#5FBBEA"/>
          <path clip-path="url(#clip-336465782)" d="M 52.1972,41.5644 L 52.1972,53.1638 L 53.1638,53.1638 L 53.1638,41.5644 L 52.1972,41.5644 Z" stroke-width="1px" stroke="#61BCEB" fill="#61BCEB"/>
          <path clip-path="url(#clip-336465782)" d="M 53.1638,41.5644 L 53.1638,53.1638 L 54.1304,53.1638 L 54.1304,41.5644 L 53.1638,41.5644 Z" stroke-width="1px" stroke="#63BEEC" fill="#63BEEC"/>
        </g>
        <g transform="matrix(0.0625 0.0000 0.0000 0.0625 0.0000 0.0000)">
          <path d="M 872.8533,857.3875 L 87.9620,857.3875 L 87.9620,678.5637 L 872.8533,678.5637 L 872.8533,857.3875 " stroke="#0054A6" stroke-width="11.5994" stroke-linecap="round" stroke-linejoin="round" fill="none"/>
        </g>
        <g transform="matrix(1.0000 0.0000 0.0000 1.0000 0.0000 0.0000)">
</g>
        <g transform="matrix(0.0625 0.0000 0.0000 0.0625 0.0000 0.0000)">
          <path d="M 117.9270,707.5622 C 117.9270,707.5622 118.8936,707.5622 118.8936,707.5622 C 133.3929,707.5622 136.2927,721.0948 136.2927,731.7276 L 136.2927,839.9884 L 147.8921,839.9884 L 147.8921,695.9628 L 136.2927,694.9962 L 117.9270,694.9962 L 117.9270,707.5622 Z M 812.9232,707.5622 C 812.9232,707.5622 812.9232,707.5622 812.9232,707.5622 C 828.3891,707.5622 830.3223,721.0948 830.3223,731.7276 L 830.3223,839.9884 L 842.8883,839.9884 L 842.8883,695.9628 L 830.3223,694.9962 L 812.9232,694.9962 L 812.9232,707.5622 Z M 743.3269,707.5622 C 743.3269,707.5622 743.3269,707.5622 743.3269,707.5622 C 758.7928,707.5622 760.7260,721.0948 760.7260,731.7276 L 760.7260,839.9884 L 773.2920,839.9884 L 773.2920,695.9628 L 761.6926,694.9962 L 743.3269,694.9962 L 743.3269,707.5622 Z M 673.7307,707.5622 C 673.7307,707.5622 673.7307,707.5622 673.7307,707.5622 C 689.1965,707.5622 691.1297,721.0948 692.0963,731.7276 L 692.0963,839.9884 L 703.6957,839.9884 L 703.6957,695.9628 L 692.0963,694.9962 L 673.7307,694.9962 L 673.7307,707.5622 Z M 604.1344,707.5622 C 604.1344,707.5622 604.1344,707.5622 605.1010,707.5622 C 619.6002,707.5622 622.5001,721.0948 622.5001,731.7276 L 622.5001,839.9884 L 634.0994,839.9884 L 634.0994,695.9628 L 622.5001,694.9962 L 604.1344,694.9962 L 604.1344,707.5622 Z M 534.5381,707.5622 C 534.5381,707.5622 535.5047,707.5622 535.5047,707.5622 C 550.0039,707.5622 552.9038,721.0948 552.9038,731.7276 L 552.9038,839.9884 L 564.5032,839.9884 L 564.5032,695.9628 L 552.9038,694.9962 L 534.5381,694.9962 L 534.5381,707.5622 Z M 464.9418,707.5622 C 465.9084,707.5622 465.9084,707.5622 465.9084,707.5622 C 481.3743,707.5622 483.3075,721.0948 483.3075,731.7276 L 483.3075,839.9884 L 494.9069,839.9884 L 494.9069,695.9628 L 483.3075,694.9962 L 464.9418,694.9962 L 464.9418,707.5622 Z M 396.3121,707.5622 C 396.3121,707.5622 396.3121,707.5622 396.3121,707.5622 C 411.7780,707.5622 413.7112,721.0948 413.7112,731.7276 L 413.7112,839.9884 L 426.2772,839.9884 L 426.2772,695.9628 L 414.6778,694.9962 L 396.3121,694.9962 L 396.3121,707.5622 Z M 326.7159,707.5622 C 326.7159,707.5622 326.7159,707.5622 326.7159,707.5622 C 342.1817,707.5622 344.1149,721.0948 344.1149,731.7276 L 344.1149,839.9884 L 356.6809,839.9884 L 356.6809,695.9628 L 345.0816,694.9962 L 326.7159,694.9962 L 326.7159,707.5622 Z M 257.1196,707.5622 C 257.1196,707.5622 257.1196,707.5622 257.1196,707.5622 C 272.5854,707.5622 274.5187,721.0948 275.4853,731.7276 L 275.4853,839.9884 L 287.0847,839.9884 L 287.0847,695.9628 L 275.4853,694.9962 L 257.1196,694.9962 L 257.1196,707.5622 Z M 187.5233,707.5622 C 187.5233,707.5622 187.5233,707.5622 188.4899,707.5622 C 202.9891,707.5622 205.8890,721.0948 205.8890,731.7276 L 205.8890,839.9884 L 217.4884,839.9884 L 217.4884,695.9628 L 205.8890,694.9962 L 187.5233,694.9962 L 187.5233,707.5622 Z " fill="#0054A6" stroke="none"/>
        </g>
        <g transform="matrix(1.0000 0.0000 0.0000 1.0000 0.0000 0.0000)">
          <path d="M 1.9332,25.1320 L 1.9332,39.6312 L 4.8331,40.5978 L 4.8331,27.0652 L 1.9332,25.1320 " fill="none" stroke="none"/>
          <defs>
            <clipPath id="clip-861021530">
              <path d="M 1.9332,25.1320 L 1.9332,39.6312 L 4.8331,40.5978 L 4.8331,27.0652 L 1.9332,25.1320 Z"/>
            </clipPath>
          </defs>
          <path clip-path="url(#clip-861021530)" d="M 0.9666,24.1654 L 0.9666,25.1320 L 3.8665,25.1320 L 3.8665,24.1654 L 0.9666,24.1654 Z" stroke-width="1px" stroke="#52B9E9" fill="#52B9E9"/>
          <path clip-path="url(#clip-861021530)" d="M 0.9666,25.1320 L 0.9666,26.0986 L 3.8665,26.0986 L 3.8665,25.1320 L 0.9666,25.1320 Z" stroke-width="1px" stroke="#0178C1" fill="#0178C1"/>
          <path clip-path="url(#clip-861021530)" d="M 0.9666,26.0986 L 0.9666,27.0652 L 3.8665,27.0652 L 3.8665,26.0986 L 0.9666,26.0986 Z" stroke-width="1px" stroke="#067CC3" fill="#067CC3"/>
          <path clip-path="url(#clip-861021530)" d="M 0.9666,27.0652 L 0.9666,28.0318 L 3.8665,28.0318 L 3.8665,27.0652 L 0.9666,27.0652 Z" stroke-width="1px" stroke="#0C81C6" fill="#0C81C6"/>
          <path clip-path="url(#clip-861021530)" d="M 0.9666,28.0318 L 0.9666,28.9984 L 3.8665,28.9984 L 3.8665,28.0318 L 0.9666,28.0318 Z" stroke-width="1px" stroke="#1185C9" fill="#1185C9"/>
          <path clip-path="url(#clip-861021530)" d="M 0.9666,28.9984 L 0.9666,29.9651 L 3.8665,29.9651 L 3.8665,28.9984 L 0.9666,28.9984 Z" stroke-width="1px" stroke="#1789CB" fill="#1789CB"/>
          <path clip-path="url(#clip-861021530)" d="M 0.9666,29.9651 L 0.9666,30.9317 L 3.8665,30.9317 L 3.8665,29.9651 L 0.9666,29.9651 Z" stroke-width="1px" stroke="#1C8ECD" fill="#1C8ECD"/>
          <path clip-path="url(#clip-861021530)" d="M 0.9666,30.9317 L 0.9666,31.8983 L 3.8665,31.8983 L 3.8665,30.9317 L 0.9666,30.9317 Z" stroke-width="1px" stroke="#2192D0" fill="#2192D0"/>
          <path clip-path="url(#clip-861021530)" d="M 0.9666,31.8983 L 0.9666,32.8649 L 3.8665,32.8649 L 3.8665,31.8983 L 0.9666,31.8983 Z" stroke-width="1px" stroke="#2796D3" fill="#2796D3"/>
          <path clip-path="url(#clip-861021530)" d="M 0.9666,32.8649 L 0.9666,33.8315 L 3.8665,33.8315 L 3.8665,32.8649 L 0.9666,32.8649 Z" stroke-width="1px" stroke="#2C9AD6" fill="#2C9AD6"/>
          <path clip-path="url(#clip-861021530)" d="M 0.9666,33.8315 L 0.9666,34.7981 L 3.8665,34.7981 L 3.8665,33.8315 L 0.9666,33.8315 Z" stroke-width="1px" stroke="#319ED8" fill="#319ED8"/>
          <path clip-path="url(#clip-861021530)" d="M 0.9666,34.7981 L 0.9666,35.7648 L 3.8665,35.7648 L 3.8665,34.7981 L 0.9666,34.7981 Z" stroke-width="1px" stroke="#36A2DB" fill="#36A2DB"/>
          <path clip-path="url(#clip-861021530)" d="M 0.9666,35.7648 L 0.9666,36.7314 L 3.8665,36.7314 L 3.8665,35.7648 L 0.9666,35.7648 Z" stroke-width="1px" stroke="#3BA6DE" fill="#3BA6DE"/>
          <path clip-path="url(#clip-861021530)" d="M 0.9666,36.7314 L 0.9666,37.6980 L 3.8665,37.6980 L 3.8665,36.7314 L 0.9666,36.7314 Z" stroke-width="1px" stroke="#41ABE0" fill="#41ABE0"/>
          <path clip-path="url(#clip-861021530)" d="M 0.9666,37.6980 L 0.9666,38.6646 L 3.8665,38.6646 L 3.8665,37.6980 L 0.9666,37.6980 Z" stroke-width="1px" stroke="#46AFE3" fill="#46AFE3"/>
          <path clip-path="url(#clip-861021530)" d="M 0.9666,38.6646 L 0.9666,39.6312 L 3.8665,39.6312 L 3.8665,38.6646 L 0.9666,38.6646 Z" stroke-width="1px" stroke="#4BB3E6" fill="#4BB3E6"/>
          <path clip-path="url(#clip-861021530)" d="M 0.9666,39.6312 L 0.9666,40.5978 L 3.8665,40.5978 L 3.8665,39.6312 L 0.9666,39.6312 Z" stroke-width="1px" stroke="#51B8E8" fill="#51B8E8"/>
        </g>
        <g transform="matrix(0.0625 0.0000 0.0000 0.0625 0.0000 0.0000)">
          <path d="M 18.3657,399.2120 L 18.3657,623.4667 L 63.7966,649.5653 L 63.7966,425.3106 L 18.3657,399.2120 " stroke="#0054A6" stroke-width="9.6661" stroke-linecap="round" stroke-linejoin="round" fill="none"/>
        </g>
        <g transform="matrix(1.0000 0.0000 0.0000 1.0000 0.0000 0.0000)">
          <path d="M 1.9332,39.6312 L 1.9332,54.1304 L 4.8331,55.0971 L 4.8331,41.5644 L 1.9332,39.6312 " fill="none" stroke="none"/>
          <defs>
            <clipPath id="clip-278722862">
              <path d="M 1.9332,39.6312 L 1.9332,54.1304 L 4.8331,55.0971 L 4.8331,41.5644 L 1.9332,39.6312 Z"/>
            </clipPath>
          </defs>
          <path clip-path="url(#clip-278722862)" d="M 0.9666,38.6646 L 0.9666,39.6312 L 3.8665,39.6312 L 3.8665,38.6646 L 0.9666,38.6646 Z" stroke-width="1px" stroke="#53B9E9" fill="#53B9E9"/>
          <path clip-path="url(#clip-278722862)" d="M 0.9666,39.6312 L 0.9666,40.5978 L 3.8665,40.5978 L 3.8665,39.6312 L 0.9666,39.6312 Z" stroke-width="1px" stroke="#0278C1" fill="#0278C1"/>
          <path clip-path="url(#clip-278722862)" d="M 0.9666,40.5978 L 0.9666,41.5644 L 3.8665,41.5644 L 3.8665,40.5978 L 0.9666,40.5978 Z" stroke-width="1px" stroke="#077DC4" fill="#077DC4"/>
          <path clip-path="url(#clip-278722862)" d="M 0.9666,41.5644 L 0.9666,42.5311 L 3.8665,42.5311 L 3.8665,41.5644 L 0.9666,41.5644 Z" stroke-width="1px" stroke="#0D81C6" fill="#0D81C6"/>
          <path clip-path="url(#clip-278722862)" d="M 0.9666,42.5311 L 0.9666,43.4977 L 3.8665,43.4977 L 3.8665,42.5311 L 0.9666,42.5311 Z" stroke-width="1px" stroke="#1285C9" fill="#1285C9"/>
          <path clip-path="url(#clip-278722862)" d="M 0.9666,43.4977 L 0.9666,44.4643 L 3.8665,44.4643 L 3.8665,43.4977 L 0.9666,43.4977 Z" stroke-width="1px" stroke="#1789CC" fill="#1789CC"/>
          <path clip-path="url(#clip-278722862)" d="M 0.9666,44.4643 L 0.9666,45.4309 L 3.8665,45.4309 L 3.8665,44.4643 L 0.9666,44.4643 Z" stroke-width="1px" stroke="#1C8ECE" fill="#1C8ECE"/>
          <path clip-path="url(#clip-278722862)" d="M 0.9666,45.4309 L 0.9666,46.3975 L 3.8665,46.3975 L 3.8665,45.4309 L 0.9666,45.4309 Z" stroke-width="1px" stroke="#2292D1" fill="#2292D1"/>
          <path clip-path="url(#clip-278722862)" d="M 0.9666,46.3975 L 0.9666,47.3641 L 3.8665,47.3641 L 3.8665,46.3975 L 0.9666,46.3975 Z" stroke-width="1px" stroke="#2796D4" fill="#2796D4"/>
          <path clip-path="url(#clip-278722862)" d="M 0.9666,47.3641 L 0.9666,48.3307 L 3.8665,48.3307 L 3.8665,47.3641 L 0.9666,47.3641 Z" stroke-width="1px" stroke="#2C9BD6" fill="#2C9BD6"/>
          <path clip-path="url(#clip-278722862)" d="M 0.9666,48.3307 L 0.9666,49.2974 L 3.8665,49.2974 L 3.8665,48.3307 L 0.9666,48.3307 Z" stroke-width="1px" stroke="#319FD9" fill="#319FD9"/>
          <path clip-path="url(#clip-278722862)" d="M 0.9666,49.2974 L 0.9666,50.2640 L 3.8665,50.2640 L 3.8665,49.2974 L 0.9666,49.2974 Z" stroke-width="1px" stroke="#37A3DC" fill="#37A3DC"/>
          <path clip-path="url(#clip-278722862)" d="M 0.9666,50.2640 L 0.9666,51.2306 L 3.8665,51.2306 L 3.8665,50.2640 L 0.9666,50.2640 Z" stroke-width="1px" stroke="#3CA7DE" fill="#3CA7DE"/>
          <path clip-path="url(#clip-278722862)" d="M 0.9666,51.2306 L 0.9666,52.1972 L 3.8665,52.1972 L 3.8665,51.2306 L 0.9666,51.2306 Z" stroke-width="1px" stroke="#42ACE1" fill="#42ACE1"/>
          <path clip-path="url(#clip-278722862)" d="M 0.9666,52.1972 L 0.9666,53.1638 L 3.8665,53.1638 L 3.8665,52.1972 L 0.9666,52.1972 Z" stroke-width="1px" stroke="#47B0E3" fill="#47B0E3"/>
          <path clip-path="url(#clip-278722862)" d="M 0.9666,53.1638 L 0.9666,54.1304 L 3.8665,54.1304 L 3.8665,53.1638 L 0.9666,53.1638 Z" stroke-width="1px" stroke="#4CB4E6" fill="#4CB4E6"/>
          <path clip-path="url(#clip-278722862)" d="M 0.9666,54.1304 L 0.9666,55.0971 L 3.8665,55.0971 L 3.8665,54.1304 L 0.9666,54.1304 Z" stroke-width="1px" stroke="#52B9E8" fill="#52B9E8"/>
        </g>
        <g transform="matrix(0.0625 0.0000 0.0000 0.0625 0.0000 0.0000)">
          <path d="M 18.3657,629.2664 L 18.3657,854.4877 L 63.7966,880.5863 L 63.7966,655.3650 L 18.3657,629.2664 " stroke="#0054A6" stroke-width="9.6661" stroke-linecap="round" stroke-linejoin="round" fill="none"/>
        </g>
        <g transform="matrix(1.0000 0.0000 0.0000 1.0000 0.0000 0.0000)">
          <path d="M 1.9332,2.8998 L 1.9332,25.1320 L 4.8331,27.0652 L 4.8331,1.9332 L 1.9332,2.8998 " fill="none" stroke="none"/>
          <defs>
            <clipPath id="clip-233665123">
              <path d="M 1.9332,2.8998 L 1.9332,25.1320 L 4.8331,27.0652 L 4.8331,1.9332 L 1.9332,2.8998 Z"/>
            </clipPath>
          </defs>
          <path clip-path="url(#clip-233665123)" d="M 0.9666,0.9666 L 0.9666,1.9332 L 3.8665,1.9332 L 3.8665,0.9666 L 0.9666,0.9666 Z" stroke-width="1px" stroke="#56BCEB" fill="#56BCEB"/>
          <path clip-path="url(#clip-233665123)" d="M 0.9666,1.9332 L 0.9666,2.8998 L 3.8665,2.8998 L 3.8665,1.9332 L 0.9666,1.9332 Z" stroke-width="1px" stroke="#0379C2" fill="#0379C2"/>
          <path clip-path="url(#clip-233665123)" d="M 0.9666,2.8998 L 0.9666,3.8665 L 3.8665,3.8665 L 3.8665,2.8998 L 0.9666,2.8998 Z" stroke-width="1px" stroke="#067CC3" fill="#067CC3"/>
          <path clip-path="url(#clip-233665123)" d="M 0.9666,3.8665 L 0.9666,4.8331 L 3.8665,4.8331 L 3.8665,3.8665 L 0.9666,3.8665 Z" stroke-width="1px" stroke="#0A7FC5" fill="#0A7FC5"/>
          <path clip-path="url(#clip-233665123)" d="M 0.9666,4.8331 L 0.9666,5.7997 L 3.8665,5.7997 L 3.8665,4.8331 L 0.9666,4.8331 Z" stroke-width="1px" stroke="#0D81C6" fill="#0D81C6"/>
          <path clip-path="url(#clip-233665123)" d="M 0.9666,5.7997 L 0.9666,6.7663 L 3.8665,6.7663 L 3.8665,5.7997 L 0.9666,5.7997 Z" stroke-width="1px" stroke="#1084C8" fill="#1084C8"/>
          <path clip-path="url(#clip-233665123)" d="M 0.9666,6.7663 L 0.9666,7.7329 L 3.8665,7.7329 L 3.8665,6.7663 L 0.9666,6.7663 Z" stroke-width="1px" stroke="#1486CA" fill="#1486CA"/>
          <path clip-path="url(#clip-233665123)" d="M 0.9666,7.7329 L 0.9666,8.6995 L 3.8665,8.6995 L 3.8665,7.7329 L 0.9666,7.7329 Z" stroke-width="1px" stroke="#1789CB" fill="#1789CB"/>
          <path clip-path="url(#clip-233665123)" d="M 0.9666,8.6995 L 0.9666,9.6661 L 3.8665,9.6661 L 3.8665,8.6995 L 0.9666,8.6995 Z" stroke-width="1px" stroke="#1A8CCD" fill="#1A8CCD"/>
          <path clip-path="url(#clip-233665123)" d="M 0.9666,9.6661 L 0.9666,10.6328 L 3.8665,10.6328 L 3.8665,9.6661 L 0.9666,9.6661 Z" stroke-width="1px" stroke="#1D8FCE" fill="#1D8FCE"/>
          <path clip-path="url(#clip-233665123)" d="M 0.9666,10.6328 L 0.9666,11.5994 L 3.8665,11.5994 L 3.8665,10.6328 L 0.9666,10.6328 Z" stroke-width="1px" stroke="#2091D0" fill="#2091D0"/>
          <path clip-path="url(#clip-233665123)" d="M 0.9666,11.5994 L 0.9666,12.5660 L 3.8665,12.5660 L 3.8665,11.5994 L 0.9666,11.5994 Z" stroke-width="1px" stroke="#2494D2" fill="#2494D2"/>
          <path clip-path="url(#clip-233665123)" d="M 0.9666,12.5660 L 0.9666,13.5326 L 3.8665,13.5326 L 3.8665,12.5660 L 0.9666,12.5660 Z" stroke-width="1px" stroke="#2897D4" fill="#2897D4"/>
          <path clip-path="url(#clip-233665123)" d="M 0.9666,13.5326 L 0.9666,14.4992 L 3.8665,14.4992 L 3.8665,13.5326 L 0.9666,13.5326 Z" stroke-width="1px" stroke="#2B9AD6" fill="#2B9AD6"/>
          <path clip-path="url(#clip-233665123)" d="M 0.9666,14.4992 L 0.9666,15.4658 L 3.8665,15.4658 L 3.8665,14.4992 L 0.9666,14.4992 Z" stroke-width="1px" stroke="#2E9CD7" fill="#2E9CD7"/>
          <path clip-path="url(#clip-233665123)" d="M 0.9666,15.4658 L 0.9666,16.4325 L 3.8665,16.4325 L 3.8665,15.4658 L 0.9666,15.4658 Z" stroke-width="1px" stroke="#319FD8" fill="#319FD8"/>
          <path clip-path="url(#clip-233665123)" d="M 0.9666,16.4325 L 0.9666,17.3991 L 3.8665,17.3991 L 3.8665,16.4325 L 0.9666,16.4325 Z" stroke-width="1px" stroke="#35A1DA" fill="#35A1DA"/>
          <path clip-path="url(#clip-233665123)" d="M 0.9666,17.3991 L 0.9666,18.3657 L 3.8665,18.3657 L 3.8665,17.3991 L 0.9666,17.3991 Z" stroke-width="1px" stroke="#38A4DC" fill="#38A4DC"/>
          <path clip-path="url(#clip-233665123)" d="M 0.9666,18.3657 L 0.9666,19.3323 L 3.8665,19.3323 L 3.8665,18.3657 L 0.9666,18.3657 Z" stroke-width="1px" stroke="#3BA6DE" fill="#3BA6DE"/>
          <path clip-path="url(#clip-233665123)" d="M 0.9666,19.3323 L 0.9666,20.2989 L 3.8665,20.2989 L 3.8665,19.3323 L 0.9666,19.3323 Z" stroke-width="1px" stroke="#3FA9DF" fill="#3FA9DF"/>
          <path clip-path="url(#clip-233665123)" d="M 0.9666,20.2989 L 0.9666,21.2655 L 3.8665,21.2655 L 3.8665,20.2989 L 0.9666,20.2989 Z" stroke-width="1px" stroke="#42ACE1" fill="#42ACE1"/>
          <path clip-path="url(#clip-233665123)" d="M 0.9666,21.2655 L 0.9666,22.2321 L 3.8665,22.2321 L 3.8665,21.2655 L 0.9666,21.2655 Z" stroke-width="1px" stroke="#45AEE3" fill="#45AEE3"/>
          <path clip-path="url(#clip-233665123)" d="M 0.9666,22.2321 L 0.9666,23.1988 L 3.8665,23.1988 L 3.8665,22.2321 L 0.9666,22.2321 Z" stroke-width="1px" stroke="#48B1E4" fill="#48B1E4"/>
          <path clip-path="url(#clip-233665123)" d="M 0.9666,23.1988 L 0.9666,24.1654 L 3.8665,24.1654 L 3.8665,23.1988 L 0.9666,23.1988 Z" stroke-width="1px" stroke="#4CB3E6" fill="#4CB3E6"/>
          <path clip-path="url(#clip-233665123)" d="M 0.9666,24.1654 L 0.9666,25.1320 L 3.8665,25.1320 L 3.8665,24.1654 L 0.9666,24.1654 Z" stroke-width="1px" stroke="#4FB7E7" fill="#4FB7E7"/>
          <path clip-path="url(#clip-233665123)" d="M 0.9666,25.1320 L 0.9666,26.0986 L 3.8665,26.0986 L 3.8665,25.1320 L 0.9666,25.1320 Z" stroke-width="1px" stroke="#53B9E9" fill="#53B9E9"/>
        </g>
        <g transform="matrix(0.0625 0.0000 0.0000 0.0625 0.0000 0.0000)">
          <path d="M 18.3657,44.4643 L 18.3657,393.4123 L 63.7966,419.5109 L 63.7966,18.3657 L 18.3657,44.4643 " stroke="#0054A6" stroke-width="9.6661" stroke-linecap="round" stroke-linejoin="round" fill="none"/>
        </g>
        <g transform="matrix(1.0000 0.0000 0.0000 1.0000 0.0000 0.0000)">
</g>
        <g transform="matrix(0.0625 0.0000 0.0000 0.0625 0.0000 0.0000)">
          <path d="M 63.7966,18.3657 L 63.7966,419.5109 L 897.0187,419.5109 L 897.0187,18.3657 L 63.7966,18.3657 Z" stroke-width="1px" stroke="#4694D0" fill="#4694D0"/>
        </g>
        <g transform="matrix(1.0000 0.0000 0.0000 1.0000 0.0000 0.0000)">
</g>
        <g transform="matrix(0.0625 0.0000 0.0000 0.0625 0.0000 0.0000)">
          <path d="M 63.7966,419.5109 L 897.0187,419.5109 L 897.0187,18.3657 L 63.7966,18.3657 L 63.7966,419.5109 Z" stroke="#0054A6" stroke-width="9.6661" stroke-linecap="round" stroke-linejoin="round" fill="none"/>
        </g>
        <g transform="matrix(1.0000 0.0000 0.0000 1.0000 0.0000 0.0000)">
          <path d="M 55.0971,27.0652 L 55.0971,22.2321 C 56.0637,19.3323 56.0637,16.4325 56.0637,12.5660 C 56.0637,8.6995 55.0971,1.9332 55.0971,1.9332 L 4.8331,1.9332 C 4.8331,1.9332 3.8665,8.6995 3.8665,12.5660 C 3.8665,16.4325 3.8665,19.3323 4.8331,22.2321 L 4.8331,27.0652 L 55.0971,27.0652 Z " fill="none" stroke="none"/>
          <defs>
            <clipPath id="clip-2145174067">
              <path d="M 55.0971,27.0652 L 55.0971,22.2321 C 56.0637,19.3323 56.0637,16.4325 56.0637,12.5660 C 56.0637,8.6995 55.0971,1.9332 55.0971,1.9332 L 4.8331,1.9332 C 4.8331,1.9332 3.8665,8.6995 3.8665,12.5660 C 3.8665,16.4325 3.8665,19.3323 4.8331,22.2321 L 4.8331,27.0652 L 55.0971,27.0652 Z"/>
            </clipPath>
          </defs>
          <path clip-path="url(#clip-2145174067)" d="M 2.8998,0.9666 L 2.8998,26.0986 L 3.8665,26.0986 L 3.8665,0.9666 L 2.8998,0.9666 Z" stroke-width="1px" stroke="#4694D0" fill="#4694D0"/>
          <path clip-path="url(#clip-2145174067)" d="M 3.8665,0.9666 L 3.8665,26.0986 L 4.8331,26.0986 L 4.8331,0.9666 L 3.8665,0.9666 Z" stroke-width="1px" stroke="#4795D1" fill="#4795D1"/>
          <path clip-path="url(#clip-2145174067)" d="M 4.8331,0.9666 L 4.8331,26.0986 L 5.7997,26.0986 L 5.7997,0.9666 L 4.8331,0.9666 Z" stroke-width="1px" stroke="#4897D2" fill="#4897D2"/>
          <path clip-path="url(#clip-2145174067)" d="M 5.7997,0.9666 L 5.7997,26.0986 L 6.7663,26.0986 L 6.7663,0.9666 L 5.7997,0.9666 Z" stroke-width="1px" stroke="#4998D3" fill="#4998D3"/>
          <path clip-path="url(#clip-2145174067)" d="M 6.7663,0.9666 L 6.7663,26.0986 L 7.7329,26.0986 L 7.7329,0.9666 L 6.7663,0.9666 Z" stroke-width="1px" stroke="#4A9AD3" fill="#4A9AD3"/>
          <path clip-path="url(#clip-2145174067)" d="M 7.7329,0.9666 L 7.7329,26.0986 L 8.6995,26.0986 L 8.6995,0.9666 L 7.7329,0.9666 Z" stroke-width="1px" stroke="#4B9BD4" fill="#4B9BD4"/>
          <path clip-path="url(#clip-2145174067)" d="M 8.6995,0.9666 L 8.6995,26.0986 L 9.6661,26.0986 L 9.6661,0.9666 L 8.6995,0.9666 Z" stroke-width="1px" stroke="#4C9DD5" fill="#4C9DD5"/>
          <path clip-path="url(#clip-2145174067)" d="M 9.6661,0.9666 L 9.6661,26.0986 L 10.6328,26.0986 L 10.6328,0.9666 L 9.6661,0.9666 Z" stroke-width="1px" stroke="#4D9ED6" fill="#4D9ED6"/>
          <path clip-path="url(#clip-2145174067)" d="M 10.6328,0.9666 L 10.6328,26.0986 L 11.5994,26.0986 L 11.5994,0.9666 L 10.6328,0.9666 Z" stroke-width="1px" stroke="#4E9FD7" fill="#4E9FD7"/>
          <path clip-path="url(#clip-2145174067)" d="M 11.5994,0.9666 L 11.5994,26.0986 L 12.5660,26.0986 L 12.5660,0.9666 L 11.5994,0.9666 Z" stroke-width="1px" stroke="#4FA0D8" fill="#4FA0D8"/>
          <path clip-path="url(#clip-2145174067)" d="M 12.5660,0.9666 L 12.5660,26.0986 L 13.5326,26.0986 L 13.5326,0.9666 L 12.5660,0.9666 Z" stroke-width="1px" stroke="#50A2D9" fill="#50A2D9"/>
          <path clip-path="url(#clip-2145174067)" d="M 13.5326,0.9666 L 13.5326,26.0986 L 14.4992,26.0986 L 14.4992,0.9666 L 13.5326,0.9666 Z" stroke-width="1px" stroke="#51A3DA" fill="#51A3DA"/>
          <path clip-path="url(#clip-2145174067)" d="M 14.4992,0.9666 L 14.4992,26.0986 L 15.4658,26.0986 L 15.4658,0.9666 L 14.4992,0.9666 Z" stroke-width="1px" stroke="#52A4DB" fill="#52A4DB"/>
          <path clip-path="url(#clip-2145174067)" d="M 15.4658,0.9666 L 15.4658,26.0986 L 16.4325,26.0986 L 16.4325,0.9666 L 15.4658,0.9666 Z" stroke-width="1px" stroke="#53A6DC" fill="#53A6DC"/>
          <path clip-path="url(#clip-2145174067)" d="M 16.4325,0.9666 L 16.4325,26.0986 L 17.3991,26.0986 L 17.3991,0.9666 L 16.4325,0.9666 Z" stroke-width="1px" stroke="#54A7DD" fill="#54A7DD"/>
          <path clip-path="url(#clip-2145174067)" d="M 17.3991,0.9666 L 17.3991,26.0986 L 18.3657,26.0986 L 18.3657,0.9666 L 17.3991,0.9666 Z" stroke-width="1px" stroke="#55A9DE" fill="#55A9DE"/>
          <path clip-path="url(#clip-2145174067)" d="M 18.3657,0.9666 L 18.3657,26.0986 L 19.3323,26.0986 L 19.3323,0.9666 L 18.3657,0.9666 Z" stroke-width="1px" stroke="#56AADF" fill="#56AADF"/>
          <path clip-path="url(#clip-2145174067)" d="M 19.3323,0.9666 L 19.3323,26.0986 L 20.2989,26.0986 L 20.2989,0.9666 L 19.3323,0.9666 Z" stroke-width="1px" stroke="#57ACE0" fill="#57ACE0"/>
          <path clip-path="url(#clip-2145174067)" d="M 20.2989,0.9666 L 20.2989,26.0986 L 21.2655,26.0986 L 21.2655,0.9666 L 20.2989,0.9666 Z" stroke-width="1px" stroke="#58ADE1" fill="#58ADE1"/>
          <path clip-path="url(#clip-2145174067)" d="M 21.2655,0.9666 L 21.2655,26.0986 L 22.2321,26.0986 L 22.2321,0.9666 L 21.2655,0.9666 Z" stroke-width="1px" stroke="#59AFE2" fill="#59AFE2"/>
          <path clip-path="url(#clip-2145174067)" d="M 22.2321,0.9666 L 22.2321,26.0986 L 23.1988,26.0986 L 23.1988,0.9666 L 22.2321,0.9666 Z" stroke-width="1px" stroke="#59B0E2" fill="#59B0E2"/>
          <path clip-path="url(#clip-2145174067)" d="M 23.1988,0.9666 L 23.1988,26.0986 L 24.1654,26.0986 L 24.1654,0.9666 L 23.1988,0.9666 Z" stroke-width="1px" stroke="#5AB1E3" fill="#5AB1E3"/>
          <path clip-path="url(#clip-2145174067)" d="M 24.1654,0.9666 L 24.1654,26.0986 L 25.1320,26.0986 L 25.1320,0.9666 L 24.1654,0.9666 Z" stroke-width="1px" stroke="#5CB3E4" fill="#5CB3E4"/>
          <path clip-path="url(#clip-2145174067)" d="M 25.1320,0.9666 L 25.1320,26.0986 L 26.0986,26.0986 L 26.0986,0.9666 L 25.1320,0.9666 Z" stroke-width="1px" stroke="#5DB4E5" fill="#5DB4E5"/>
          <path clip-path="url(#clip-2145174067)" d="M 26.0986,0.9666 L 26.0986,26.0986 L 27.0652,26.0986 L 27.0652,0.9666 L 26.0986,0.9666 Z" stroke-width="1px" stroke="#5EB5E6" fill="#5EB5E6"/>
          <path clip-path="url(#clip-2145174067)" d="M 27.0652,0.9666 L 27.0652,26.0986 L 28.0318,26.0986 L 28.0318,0.9666 L 27.0652,0.9666 Z" stroke-width="1px" stroke="#5FB6E7" fill="#5FB6E7"/>
          <path clip-path="url(#clip-2145174067)" d="M 28.0318,0.9666 L 28.0318,26.0986 L 28.9984,26.0986 L 28.9984,0.9666 L 28.0318,0.9666 Z" stroke-width="1px" stroke="#60B8E8" fill="#60B8E8"/>
          <path clip-path="url(#clip-2145174067)" d="M 28.9984,0.9666 L 28.9984,26.0986 L 30.9317,26.0986 L 30.9317,0.9666 L 28.9984,0.9666 Z" stroke-width="1px" stroke="#61B9E9" fill="#61B9E9"/>
          <path clip-path="url(#clip-2145174067)" d="M 30.9317,0.9666 L 30.9317,26.0986 L 31.8983,26.0986 L 31.8983,0.9666 L 30.9317,0.9666 Z" stroke-width="1px" stroke="#60B8E8" fill="#60B8E8"/>
          <path clip-path="url(#clip-2145174067)" d="M 31.8983,0.9666 L 31.8983,26.0986 L 32.8649,26.0986 L 32.8649,0.9666 L 31.8983,0.9666 Z" stroke-width="1px" stroke="#5FB6E7" fill="#5FB6E7"/>
          <path clip-path="url(#clip-2145174067)" d="M 32.8649,0.9666 L 32.8649,26.0986 L 33.8315,26.0986 L 33.8315,0.9666 L 32.8649,0.9666 Z" stroke-width="1px" stroke="#5EB5E6" fill="#5EB5E6"/>
          <path clip-path="url(#clip-2145174067)" d="M 33.8315,0.9666 L 33.8315,26.0986 L 34.7981,26.0986 L 34.7981,0.9666 L 33.8315,0.9666 Z" stroke-width="1px" stroke="#5DB4E5" fill="#5DB4E5"/>
          <path clip-path="url(#clip-2145174067)" d="M 34.7981,0.9666 L 34.7981,26.0986 L 35.7648,26.0986 L 35.7648,0.9666 L 34.7981,0.9666 Z" stroke-width="1px" stroke="#5CB3E4" fill="#5CB3E4"/>
          <path clip-path="url(#clip-2145174067)" d="M 35.7648,0.9666 L 35.7648,26.0986 L 36.7314,26.0986 L 36.7314,0.9666 L 35.7648,0.9666 Z" stroke-width="1px" stroke="#5AB1E3" fill="#5AB1E3"/>
          <path clip-path="url(#clip-2145174067)" d="M 36.7314,0.9666 L 36.7314,26.0986 L 37.6980,26.0986 L 37.6980,0.9666 L 36.7314,0.9666 Z" stroke-width="1px" stroke="#59B0E2" fill="#59B0E2"/>
          <path clip-path="url(#clip-2145174067)" d="M 37.6980,0.9666 L 37.6980,26.0986 L 38.6646,26.0986 L 38.6646,0.9666 L 37.6980,0.9666 Z" stroke-width="1px" stroke="#59AFE2" fill="#59AFE2"/>
          <path clip-path="url(#clip-2145174067)" d="M 38.6646,0.9666 L 38.6646,26.0986 L 39.6312,26.0986 L 39.6312,0.9666 L 38.6646,0.9666 Z" stroke-width="1px" stroke="#58ADE1" fill="#58ADE1"/>
          <path clip-path="url(#clip-2145174067)" d="M 39.6312,0.9666 L 39.6312,26.0986 L 40.5978,26.0986 L 40.5978,0.9666 L 39.6312,0.9666 Z" stroke-width="1px" stroke="#57ACE0" fill="#57ACE0"/>
          <path clip-path="url(#clip-2145174067)" d="M 40.5978,0.9666 L 40.5978,26.0986 L 41.5644,26.0986 L 41.5644,0.9666 L 40.5978,0.9666 Z" stroke-width="1px" stroke="#56AADF" fill="#56AADF"/>
          <path clip-path="url(#clip-2145174067)" d="M 41.5644,0.9666 L 41.5644,26.0986 L 42.5311,26.0986 L 42.5311,0.9666 L 41.5644,0.9666 Z" stroke-width="1px" stroke="#55A9DE" fill="#55A9DE"/>
          <path clip-path="url(#clip-2145174067)" d="M 42.5311,0.9666 L 42.5311,26.0986 L 43.4977,26.0986 L 43.4977,0.9666 L 42.5311,0.9666 Z" stroke-width="1px" stroke="#54A7DD" fill="#54A7DD"/>
          <path clip-path="url(#clip-2145174067)" d="M 43.4977,0.9666 L 43.4977,26.0986 L 44.4643,26.0986 L 44.4643,0.9666 L 43.4977,0.9666 Z" stroke-width="1px" stroke="#53A6DC" fill="#53A6DC"/>
          <path clip-path="url(#clip-2145174067)" d="M 44.4643,0.9666 L 44.4643,26.0986 L 45.4309,26.0986 L 45.4309,0.9666 L 44.4643,0.9666 Z" stroke-width="1px" stroke="#52A4DB" fill="#52A4DB"/>
          <path clip-path="url(#clip-2145174067)" d="M 45.4309,0.9666 L 45.4309,26.0986 L 46.3975,26.0986 L 46.3975,0.9666 L 45.4309,0.9666 Z" stroke-width="1px" stroke="#51A3DA" fill="#51A3DA"/>
          <path clip-path="url(#clip-2145174067)" d="M 46.3975,0.9666 L 46.3975,26.0986 L 47.3641,26.0986 L 47.3641,0.9666 L 46.3975,0.9666 Z" stroke-width="1px" stroke="#50A2D9" fill="#50A2D9"/>
          <path clip-path="url(#clip-2145174067)" d="M 47.3641,0.9666 L 47.3641,26.0986 L 48.3307,26.0986 L 48.3307,0.9666 L 47.3641,0.9666 Z" stroke-width="1px" stroke="#4FA0D8" fill="#4FA0D8"/>
          <path clip-path="url(#clip-2145174067)" d="M 48.3307,0.9666 L 48.3307,26.0986 L 49.2974,26.0986 L 49.2974,0.9666 L 48.3307,0.9666 Z" stroke-width="1px" stroke="#4E9FD7" fill="#4E9FD7"/>
          <path clip-path="url(#clip-2145174067)" d="M 49.2974,0.9666 L 49.2974,26.0986 L 50.2640,26.0986 L 50.2640,0.9666 L 49.2974,0.9666 Z" stroke-width="1px" stroke="#4D9ED6" fill="#4D9ED6"/>
          <path clip-path="url(#clip-2145174067)" d="M 50.2640,0.9666 L 50.2640,26.0986 L 51.2306,26.0986 L 51.2306,0.9666 L 50.2640,0.9666 Z" stroke-width="1px" stroke="#4C9DD5" fill="#4C9DD5"/>
          <path clip-path="url(#clip-2145174067)" d="M 51.2306,0.9666 L 51.2306,26.0986 L 52.1972,26.0986 L 52.1972,0.9666 L 51.2306,0.9666 Z" stroke-width="1px" stroke="#4B9BD4" fill="#4B9BD4"/>
          <path clip-path="url(#clip-2145174067)" d="M 52.1972,0.9666 L 52.1972,26.0986 L 53.1638,26.0986 L 53.1638,0.9666 L 52.1972,0.9666 Z" stroke-width="1px" stroke="#4A9AD3" fill="#4A9AD3"/>
          <path clip-path="url(#clip-2145174067)" d="M 53.1638,0.9666 L 53.1638,26.0986 L 54.1304,26.0986 L 54.1304,0.9666 L 53.1638,0.9666 Z" stroke-width="1px" stroke="#4998D3" fill="#4998D3"/>
          <path clip-path="url(#clip-2145174067)" d="M 54.1304,0.9666 L 54.1304,26.0986 L 55.0971,26.0986 L 55.0971,0.9666 L 54.1304,0.9666 Z" stroke-width="1px" stroke="#4897D2" fill="#4897D2"/>
          <path clip-path="url(#clip-2145174067)" d="M 55.0971,0.9666 L 55.0971,26.0986 L 56.0637,26.0986 L 56.0637,0.9666 L 55.0971,0.9666 Z" stroke-width="1px" stroke="#4795D1" fill="#4795D1"/>
        </g>
        <g transform="matrix(0.0625 0.0000 0.0000 0.0625 0.0000 0.0000)">
          <path d="M 881.5529,418.5443 L 881.5529,342.1817 C 891.2190,303.5171 897.0187,249.3867 897.0187,189.4565 C 897.0187,128.5598 881.5529,19.3323 881.5529,19.3323 L 63.7966,19.3323 C 63.7966,19.3323 48.3307,128.5598 48.3307,189.4565 C 48.3307,249.3867 54.1304,304.4837 63.7966,342.1817 L 63.7966,418.5443 L 881.5529,418.5443 " stroke="#0054A6" stroke-width="9.6661" stroke-linecap="round" stroke-linejoin="round" fill="none"/>
        </g>
        <g transform="matrix(1.0000 0.0000 0.0000 1.0000 0.0000 0.0000)">
</g>
        <g transform="matrix(0.0625 0.0000 0.0000 0.0625 0.0000 0.0000)">
          <path d="M 718.1949,338.3152 L 718.1949,362.4806 L 815.8231,362.4806 L 815.8231,338.3152 L 718.1949,338.3152 Z" stroke-width="1px" stroke="#8DC63F" fill="#8DC63F"/>
        </g>
        <g transform="matrix(1.0000 0.0000 0.0000 1.0000 0.0000 0.0000)">
</g>
        <g transform="matrix(0.0625 0.0000 0.0000 0.0625 0.0000 0.0000)">
          <path d="M 815.8231,362.4806 L 718.1949,362.4806 L 718.1949,338.3152 L 815.8231,338.3152 L 815.8231,362.4806 Z" stroke="#0054A6" stroke-width="7.7329" stroke-linecap="round" stroke-linejoin="round" fill="none"/>
        </g>
        <g transform="matrix(1.0000 0.0000 0.0000 1.0000 0.0000 0.0000)">
          <path d="M 51.2306,3.8665 C 51.2306,3.8665 49.2974,3.8665 47.3641,3.8665 C 44.4643,3.8665 41.5644,4.8331 41.5644,4.8331 C 41.5644,4.8331 32.8649,3.8665 28.9984,3.8665 C 25.1320,3.8665 8.6995,3.8665 8.6995,3.8665 C 8.6995,3.8665 7.7329,8.6995 7.7329,11.5994 C 7.7329,14.4992 7.7329,18.3657 8.6995,20.2989 C 8.6995,20.2989 22.2321,21.2655 31.8983,21.2655 C 37.6980,21.2655 44.4643,18.3657 44.4643,18.3657 L 51.2306,18.3657 C 52.1972,16.4325 52.1972,14.4992 52.1972,11.5994 C 52.1972,8.6995 51.2306,3.8665 51.2306,3.8665 Z " fill="none" stroke="none"/>
          <defs>
            <clipPath id="clip-468703135">
              <path d="M 51.2306,3.8665 C 51.2306,3.8665 49.2974,3.8665 47.3641,3.8665 C 44.4643,3.8665 41.5644,4.8331 41.5644,4.8331 C 41.5644,4.8331 32.8649,3.8665 28.9984,3.8665 C 25.1320,3.8665 8.6995,3.8665 8.6995,3.8665 C 8.6995,3.8665 7.7329,8.6995 7.7329,11.5994 C 7.7329,14.4992 7.7329,18.3657 8.6995,20.2989 C 8.6995,20.2989 22.2321,21.2655 31.8983,21.2655 C 37.6980,21.2655 44.4643,18.3657 44.4643,18.3657 L 51.2306,18.3657 C 52.1972,16.4325 52.1972,14.4992 52.1972,11.5994 C 52.1972,8.6995 51.2306,3.8665 51.2306,3.8665 Z"/>
            </clipPath>
          </defs>
          <path clip-path="url(#clip-468703135)" d="M 6.7663,2.8998 L 6.7663,20.2989 L 7.7329,20.2989 L 7.7329,2.8998 L 6.7663,2.8998 Z" stroke-width="1px" stroke="#59BCEC" fill="#59BCEC"/>
          <path clip-path="url(#clip-468703135)" d="M 7.7329,2.8998 L 7.7329,20.2989 L 8.6995,20.2989 L 8.6995,2.8998 L 7.7329,2.8998 Z" stroke-width="1px" stroke="#016BAD" fill="#016BAD"/>
          <path clip-path="url(#clip-468703135)" d="M 8.6995,2.8998 L 8.6995,20.2989 L 9.6661,20.2989 L 9.6661,2.8998 L 8.6995,2.8998 Z" stroke-width="1px" stroke="#036DAE" fill="#036DAE"/>
          <path clip-path="url(#clip-468703135)" d="M 9.6661,2.8998 L 9.6661,20.2989 L 10.6328,20.2989 L 10.6328,2.8998 L 9.6661,2.8998 Z" stroke-width="1px" stroke="#066FB0" fill="#066FB0"/>
          <path clip-path="url(#clip-468703135)" d="M 10.6328,2.8998 L 10.6328,20.2989 L 11.5994,20.2989 L 11.5994,2.8998 L 10.6328,2.8998 Z" stroke-width="1px" stroke="#0770B1" fill="#0770B1"/>
          <path clip-path="url(#clip-468703135)" d="M 11.5994,2.8998 L 11.5994,20.2989 L 12.5660,20.2989 L 12.5660,2.8998 L 11.5994,2.8998 Z" stroke-width="1px" stroke="#0972B2" fill="#0972B2"/>
          <path clip-path="url(#clip-468703135)" d="M 12.5660,2.8998 L 12.5660,20.2989 L 13.5326,20.2989 L 13.5326,2.8998 L 12.5660,2.8998 Z" stroke-width="1px" stroke="#0B74B4" fill="#0B74B4"/>
          <path clip-path="url(#clip-468703135)" d="M 13.5326,2.8998 L 13.5326,20.2989 L 14.4992,20.2989 L 14.4992,2.8998 L 13.5326,2.8998 Z" stroke-width="1px" stroke="#0D76B5" fill="#0D76B5"/>
          <path clip-path="url(#clip-468703135)" d="M 14.4992,2.8998 L 14.4992,20.2989 L 15.4658,20.2989 L 15.4658,2.8998 L 14.4992,2.8998 Z" stroke-width="1px" stroke="#0F78B7" fill="#0F78B7"/>
          <path clip-path="url(#clip-468703135)" d="M 15.4658,2.8998 L 15.4658,20.2989 L 16.4325,20.2989 L 16.4325,2.8998 L 15.4658,2.8998 Z" stroke-width="1px" stroke="#117AB8" fill="#117AB8"/>
          <path clip-path="url(#clip-468703135)" d="M 16.4325,2.8998 L 16.4325,20.2989 L 17.3991,20.2989 L 17.3991,2.8998 L 16.4325,2.8998 Z" stroke-width="1px" stroke="#137CB9" fill="#137CB9"/>
          <path clip-path="url(#clip-468703135)" d="M 17.3991,2.8998 L 17.3991,20.2989 L 18.3657,20.2989 L 18.3657,2.8998 L 17.3991,2.8998 Z" stroke-width="1px" stroke="#157DBB" fill="#157DBB"/>
          <path clip-path="url(#clip-468703135)" d="M 18.3657,2.8998 L 18.3657,20.2989 L 19.3323,20.2989 L 19.3323,2.8998 L 18.3657,2.8998 Z" stroke-width="1px" stroke="#177FBC" fill="#177FBC"/>
          <path clip-path="url(#clip-468703135)" d="M 19.3323,2.8998 L 19.3323,20.2989 L 20.2989,20.2989 L 20.2989,2.8998 L 19.3323,2.8998 Z" stroke-width="1px" stroke="#1981BD" fill="#1981BD"/>
          <path clip-path="url(#clip-468703135)" d="M 20.2989,2.8998 L 20.2989,20.2989 L 21.2655,20.2989 L 21.2655,2.8998 L 20.2989,2.8998 Z" stroke-width="1px" stroke="#1B83BF" fill="#1B83BF"/>
          <path clip-path="url(#clip-468703135)" d="M 21.2655,2.8998 L 21.2655,20.2989 L 22.2321,20.2989 L 22.2321,2.8998 L 21.2655,2.8998 Z" stroke-width="1px" stroke="#1C84C0" fill="#1C84C0"/>
          <path clip-path="url(#clip-468703135)" d="M 22.2321,2.8998 L 22.2321,20.2989 L 23.1988,20.2989 L 23.1988,2.8998 L 22.2321,2.8998 Z" stroke-width="1px" stroke="#1E86C2" fill="#1E86C2"/>
          <path clip-path="url(#clip-468703135)" d="M 23.1988,2.8998 L 23.1988,20.2989 L 24.1654,20.2989 L 24.1654,2.8998 L 23.1988,2.8998 Z" stroke-width="1px" stroke="#2188C3" fill="#2188C3"/>
          <path clip-path="url(#clip-468703135)" d="M 24.1654,2.8998 L 24.1654,20.2989 L 25.1320,20.2989 L 25.1320,2.8998 L 24.1654,2.8998 Z" stroke-width="1px" stroke="#2289C4" fill="#2289C4"/>
          <path clip-path="url(#clip-468703135)" d="M 25.1320,2.8998 L 25.1320,20.2989 L 26.0986,20.2989 L 26.0986,2.8998 L 25.1320,2.8998 Z" stroke-width="1px" stroke="#248BC6" fill="#248BC6"/>
          <path clip-path="url(#clip-468703135)" d="M 26.0986,2.8998 L 26.0986,20.2989 L 27.0652,20.2989 L 27.0652,2.8998 L 26.0986,2.8998 Z" stroke-width="1px" stroke="#268DC7" fill="#268DC7"/>
          <path clip-path="url(#clip-468703135)" d="M 27.0652,2.8998 L 27.0652,20.2989 L 28.0318,20.2989 L 28.0318,2.8998 L 27.0652,2.8998 Z" stroke-width="1px" stroke="#288FC9" fill="#288FC9"/>
          <path clip-path="url(#clip-468703135)" d="M 28.0318,2.8998 L 28.0318,20.2989 L 28.9984,20.2989 L 28.9984,2.8998 L 28.0318,2.8998 Z" stroke-width="1px" stroke="#2A91CA" fill="#2A91CA"/>
          <path clip-path="url(#clip-468703135)" d="M 28.9984,2.8998 L 28.9984,20.2989 L 29.9651,20.2989 L 29.9651,2.8998 L 28.9984,2.8998 Z" stroke-width="1px" stroke="#2C93CB" fill="#2C93CB"/>
          <path clip-path="url(#clip-468703135)" d="M 29.9651,2.8998 L 29.9651,20.2989 L 30.9317,20.2989 L 30.9317,2.8998 L 29.9651,2.8998 Z" stroke-width="1px" stroke="#2E95CD" fill="#2E95CD"/>
          <path clip-path="url(#clip-468703135)" d="M 30.9317,2.8998 L 30.9317,20.2989 L 31.8983,20.2989 L 31.8983,2.8998 L 30.9317,2.8998 Z" stroke-width="1px" stroke="#3097CE" fill="#3097CE"/>
          <path clip-path="url(#clip-468703135)" d="M 31.8983,2.8998 L 31.8983,20.2989 L 32.8649,20.2989 L 32.8649,2.8998 L 31.8983,2.8998 Z" stroke-width="1px" stroke="#3298CF" fill="#3298CF"/>
          <path clip-path="url(#clip-468703135)" d="M 32.8649,2.8998 L 32.8649,20.2989 L 33.8315,20.2989 L 33.8315,2.8998 L 32.8649,2.8998 Z" stroke-width="1px" stroke="#349AD1" fill="#349AD1"/>
          <path clip-path="url(#clip-468703135)" d="M 33.8315,2.8998 L 33.8315,20.2989 L 34.7981,20.2989 L 34.7981,2.8998 L 33.8315,2.8998 Z" stroke-width="1px" stroke="#369CD2" fill="#369CD2"/>
          <path clip-path="url(#clip-468703135)" d="M 34.7981,2.8998 L 34.7981,20.2989 L 35.7648,20.2989 L 35.7648,2.8998 L 34.7981,2.8998 Z" stroke-width="1px" stroke="#379DD4" fill="#379DD4"/>
          <path clip-path="url(#clip-468703135)" d="M 35.7648,2.8998 L 35.7648,20.2989 L 36.7314,20.2989 L 36.7314,2.8998 L 35.7648,2.8998 Z" stroke-width="1px" stroke="#399FD5" fill="#399FD5"/>
          <path clip-path="url(#clip-468703135)" d="M 36.7314,2.8998 L 36.7314,20.2989 L 37.6980,20.2989 L 37.6980,2.8998 L 36.7314,2.8998 Z" stroke-width="1px" stroke="#3BA1D6" fill="#3BA1D6"/>
          <path clip-path="url(#clip-468703135)" d="M 37.6980,2.8998 L 37.6980,20.2989 L 38.6646,20.2989 L 38.6646,2.8998 L 37.6980,2.8998 Z" stroke-width="1px" stroke="#3EA3D8" fill="#3EA3D8"/>
          <path clip-path="url(#clip-468703135)" d="M 38.6646,2.8998 L 38.6646,20.2989 L 39.6312,20.2989 L 39.6312,2.8998 L 38.6646,2.8998 Z" stroke-width="1px" stroke="#40A4D9" fill="#40A4D9"/>
          <path clip-path="url(#clip-468703135)" d="M 39.6312,2.8998 L 39.6312,20.2989 L 40.5978,20.2989 L 40.5978,2.8998 L 39.6312,2.8998 Z" stroke-width="1px" stroke="#42A6DA" fill="#42A6DA"/>
          <path clip-path="url(#clip-468703135)" d="M 40.5978,2.8998 L 40.5978,20.2989 L 41.5644,20.2989 L 41.5644,2.8998 L 40.5978,2.8998 Z" stroke-width="1px" stroke="#44A8DC" fill="#44A8DC"/>
          <path clip-path="url(#clip-468703135)" d="M 41.5644,2.8998 L 41.5644,20.2989 L 42.5311,20.2989 L 42.5311,2.8998 L 41.5644,2.8998 Z" stroke-width="1px" stroke="#46AADD" fill="#46AADD"/>
          <path clip-path="url(#clip-468703135)" d="M 42.5311,2.8998 L 42.5311,20.2989 L 43.4977,20.2989 L 43.4977,2.8998 L 42.5311,2.8998 Z" stroke-width="1px" stroke="#47ABDF" fill="#47ABDF"/>
          <path clip-path="url(#clip-468703135)" d="M 43.4977,2.8998 L 43.4977,20.2989 L 44.4643,20.2989 L 44.4643,2.8998 L 43.4977,2.8998 Z" stroke-width="1px" stroke="#49ADE0" fill="#49ADE0"/>
          <path clip-path="url(#clip-468703135)" d="M 44.4643,2.8998 L 44.4643,20.2989 L 45.4309,20.2989 L 45.4309,2.8998 L 44.4643,2.8998 Z" stroke-width="1px" stroke="#4BAFE1" fill="#4BAFE1"/>
          <path clip-path="url(#clip-468703135)" d="M 45.4309,2.8998 L 45.4309,20.2989 L 46.3975,20.2989 L 46.3975,2.8998 L 45.4309,2.8998 Z" stroke-width="1px" stroke="#4DB1E3" fill="#4DB1E3"/>
          <path clip-path="url(#clip-468703135)" d="M 46.3975,2.8998 L 46.3975,20.2989 L 47.3641,20.2989 L 47.3641,2.8998 L 46.3975,2.8998 Z" stroke-width="1px" stroke="#4FB3E4" fill="#4FB3E4"/>
          <path clip-path="url(#clip-468703135)" d="M 47.3641,2.8998 L 47.3641,20.2989 L 48.3307,20.2989 L 48.3307,2.8998 L 47.3641,2.8998 Z" stroke-width="1px" stroke="#51B5E5" fill="#51B5E5"/>
          <path clip-path="url(#clip-468703135)" d="M 48.3307,2.8998 L 48.3307,20.2989 L 49.2974,20.2989 L 49.2974,2.8998 L 48.3307,2.8998 Z" stroke-width="1px" stroke="#53B7E7" fill="#53B7E7"/>
          <path clip-path="url(#clip-468703135)" d="M 49.2974,2.8998 L 49.2974,20.2989 L 50.2640,20.2989 L 50.2640,2.8998 L 49.2974,2.8998 Z" stroke-width="1px" stroke="#54B8E8" fill="#54B8E8"/>
          <path clip-path="url(#clip-468703135)" d="M 50.2640,2.8998 L 50.2640,20.2989 L 51.2306,20.2989 L 51.2306,2.8998 L 50.2640,2.8998 Z" stroke-width="1px" stroke="#56BAEA" fill="#56BAEA"/>
          <path clip-path="url(#clip-468703135)" d="M 51.2306,2.8998 L 51.2306,20.2989 L 52.1972,20.2989 L 52.1972,2.8998 L 51.2306,2.8998 Z" stroke-width="1px" stroke="#59BCEB" fill="#59BCEB"/>
        </g>
        <g transform="matrix(0.0625 0.0000 0.0000 0.0625 0.0000 0.0000)">
          <path d="M 106.3276,174.9573 C 106.3276,127.5932 118.8936,60.8967 119.8603,60.8967 L 120.8269,54.1304 L 126.6266,54.1304 C 126.6266,54.1304 394.3789,48.3307 459.1421,48.3307 C 520.0389,48.3307 647.6320,60.8967 662.1313,61.8634 C 668.8976,59.9301 707.5622,50.2640 744.2935,49.2974 C 749.1266,49.2974 752.9931,49.2974 757.8262,49.2974 C 795.5241,49.2974 823.5560,53.1638 824.5226,54.1304 L 812.9232,70.5629 C 811.9566,71.5295 794.5575,65.7298 757.8262,65.7298 C 752.9931,65.7298 749.1266,65.7298 745.2602,65.7298 C 705.6289,67.6630 665.0311,79.2624 664.0645,79.2624 L 663.0979,79.2624 L 662.1313,79.2624 C 662.1313,79.2624 522.9387,64.7632 459.1421,64.7632 C 402.1118,64.7632 164.3245,69.5963 133.3929,70.5629 C 129.5264,87.9620 120.8269,139.1926 120.8269,174.9573 C 120.8269,221.3548 125.6599,277.4185 133.3929,304.4837 L 120.8269,318.0163 C 112.1273,287.0847 106.3276,222.3214 106.3276,174.9573 Z " fill="#0054A6" stroke="none"/>
        </g>
        <g transform="matrix(1.0000 0.0000 0.0000 1.0000 0.0000 0.0000)">
</g>
        <g transform="matrix(0.0625 0.0000 0.0000 0.0625 0.0000 0.0000)">
          <path d="M 106.3276,174.9573 C 106.3276,127.5932 118.8936,60.8967 119.8603,60.8967 L 120.8269,54.1304 L 126.6266,54.1304 C 126.6266,54.1304 394.3789,48.3307 459.1421,48.3307 C 520.0389,48.3307 647.6320,60.8967 662.1313,61.8634 C 668.8976,59.9301 707.5622,50.2640 744.2935,49.2974 C 749.1266,49.2974 752.9931,49.2974 757.8262,49.2974 C 795.5241,49.2974 823.5560,53.1638 824.5226,54.1304 L 812.9232,70.5629 C 811.9566,71.5295 794.5575,65.7298 757.8262,65.7298 C 752.9931,65.7298 749.1266,65.7298 745.2602,65.7298 C 705.6289,67.6630 665.0311,79.2624 664.0645,79.2624 L 663.0979,79.2624 L 662.1313,79.2624 C 662.1313,79.2624 522.9387,64.7632 459.1421,64.7632 C 402.1118,64.7632 164.3245,69.5963 133.3929,70.5629 C 129.5264,87.9620 120.8269,139.1926 120.8269,174.9573 C 120.8269,221.3548 125.6599,277.4185 133.3929,304.4837 L 120.8269,318.0163 C 112.1273,287.0847 106.3276,222.3214 106.3276,174.9573 Z " stroke="#0054A6" stroke-width="0.9666" stroke-linecap="butt" stroke-linejoin="round" fill="none"/>
        </g>
        <g transform="matrix(1.0000 0.0000 0.0000 1.0000 0.0000 0.0000)">
          <path d="M 7.7329,20.2989 L 8.6995,19.3323 C 10.6328,19.3323 24.1654,20.2989 31.8983,20.2989 C 34.7981,20.2989 37.6980,20.2989 39.6312,19.3323 C 42.5311,18.3657 43.4977,18.3657 43.4977,18.3657 L 44.4643,18.3657 L 51.2306,18.3657 C 51.2306,16.4325 52.1972,14.4992 52.1972,11.5994 C 52.1972,8.6995 51.2306,4.8331 51.2306,4.8331 L 52.1972,3.8665 C 52.1972,3.8665 53.1638,8.6995 53.1638,11.5994 C 53.1638,14.4992 52.1972,17.3991 52.1972,19.3323 L 52.1972,19.3323 L 44.4643,19.3323 C 43.4977,19.3323 36.7314,21.2655 31.8983,21.2655 C 22.2321,21.2655 8.6995,20.2989 8.6995,20.2989 L 7.7329,20.2989 Z " fill="none" stroke="none"/>
          <defs>
            <clipPath id="clip-1101513929">
              <path d="M 7.7329,20.2989 L 8.6995,19.3323 C 10.6328,19.3323 24.1654,20.2989 31.8983,20.2989 C 34.7981,20.2989 37.6980,20.2989 39.6312,19.3323 C 42.5311,18.3657 43.4977,18.3657 43.4977,18.3657 L 44.4643,18.3657 L 51.2306,18.3657 C 51.2306,16.4325 52.1972,14.4992 52.1972,11.5994 C 52.1972,8.6995 51.2306,4.8331 51.2306,4.8331 L 52.1972,3.8665 C 52.1972,3.8665 53.1638,8.6995 53.1638,11.5994 C 53.1638,14.4992 52.1972,17.3991 52.1972,19.3323 L 52.1972,19.3323 L 44.4643,19.3323 C 43.4977,19.3323 36.7314,21.2655 31.8983,21.2655 C 22.2321,21.2655 8.6995,20.2989 8.6995,20.2989 L 7.7329,20.2989 Z"/>
            </clipPath>
          </defs>
          <path clip-path="url(#clip-1101513929)" d="M 6.7663,2.8998 L 6.7663,21.2655 L 7.7329,21.2655 L 7.7329,2.8998 L 6.7663,2.8998 Z" stroke-width="1px" stroke="#9C9C9C" fill="#9C9C9C"/>
          <path clip-path="url(#clip-1101513929)" d="M 7.7329,2.8998 L 7.7329,21.2655 L 8.6995,21.2655 L 8.6995,2.8998 L 7.7329,2.8998 Z" stroke-width="1px" stroke="#9A9A9A" fill="#9A9A9A"/>
          <path clip-path="url(#clip-1101513929)" d="M 8.6995,2.8998 L 8.6995,21.2655 L 9.6661,21.2655 L 9.6661,2.8998 L 8.6995,2.8998 Z" stroke-width="1px" stroke="#9D9D9D" fill="#9D9D9D"/>
          <path clip-path="url(#clip-1101513929)" d="M 9.6661,2.8998 L 9.6661,21.2655 L 10.6328,21.2655 L 10.6328,2.8998 L 9.6661,2.8998 Z" stroke-width="1px" stroke="#9F9F9F" fill="#9F9F9F"/>
          <path clip-path="url(#clip-1101513929)" d="M 10.6328,2.8998 L 10.6328,21.2655 L 11.5994,21.2655 L 11.5994,2.8998 L 10.6328,2.8998 Z" stroke-width="1px" stroke="#A1A1A1" fill="#A1A1A1"/>
          <path clip-path="url(#clip-1101513929)" d="M 11.5994,2.8998 L 11.5994,21.2655 L 12.5660,21.2655 L 12.5660,2.8998 L 11.5994,2.8998 Z" stroke-width="1px" stroke="#A3A3A3" fill="#A3A3A3"/>
          <path clip-path="url(#clip-1101513929)" d="M 12.5660,2.8998 L 12.5660,21.2655 L 13.5326,21.2655 L 13.5326,2.8998 L 12.5660,2.8998 Z" stroke-width="1px" stroke="#A6A6A6" fill="#A6A6A6"/>
          <path clip-path="url(#clip-1101513929)" d="M 13.5326,2.8998 L 13.5326,21.2655 L 14.4992,21.2655 L 14.4992,2.8998 L 13.5326,2.8998 Z" stroke-width="1px" stroke="#A8A8A8" fill="#A8A8A8"/>
          <path clip-path="url(#clip-1101513929)" d="M 14.4992,2.8998 L 14.4992,21.2655 L 15.4658,21.2655 L 15.4658,2.8998 L 14.4992,2.8998 Z" stroke-width="1px" stroke="#AAAAAA" fill="#AAAAAA"/>
          <path clip-path="url(#clip-1101513929)" d="M 15.4658,2.8998 L 15.4658,21.2655 L 16.4325,21.2655 L 16.4325,2.8998 L 15.4658,2.8998 Z" stroke-width="1px" stroke="#ACACAC" fill="#ACACAC"/>
          <path clip-path="url(#clip-1101513929)" d="M 16.4325,2.8998 L 16.4325,21.2655 L 17.3991,21.2655 L 17.3991,2.8998 L 16.4325,2.8998 Z" stroke-width="1px" stroke="#AEAEAE" fill="#AEAEAE"/>
          <path clip-path="url(#clip-1101513929)" d="M 17.3991,2.8998 L 17.3991,21.2655 L 18.3657,21.2655 L 18.3657,2.8998 L 17.3991,2.8998 Z" stroke-width="1px" stroke="#B1B1B1" fill="#B1B1B1"/>
          <path clip-path="url(#clip-1101513929)" d="M 18.3657,2.8998 L 18.3657,21.2655 L 19.3323,21.2655 L 19.3323,2.8998 L 18.3657,2.8998 Z" stroke-width="1px" stroke="#B3B3B3" fill="#B3B3B3"/>
          <path clip-path="url(#clip-1101513929)" d="M 19.3323,2.8998 L 19.3323,21.2655 L 20.2989,21.2655 L 20.2989,2.8998 L 19.3323,2.8998 Z" stroke-width="1px" stroke="#B5B5B5" fill="#B5B5B5"/>
          <path clip-path="url(#clip-1101513929)" d="M 20.2989,2.8998 L 20.2989,21.2655 L 21.2655,21.2655 L 21.2655,2.8998 L 20.2989,2.8998 Z" stroke-width="1px" stroke="#B7B7B7" fill="#B7B7B7"/>
          <path clip-path="url(#clip-1101513929)" d="M 21.2655,2.8998 L 21.2655,21.2655 L 22.2321,21.2655 L 22.2321,2.8998 L 21.2655,2.8998 Z" stroke-width="1px" stroke="#B9B9B9" fill="#B9B9B9"/>
          <path clip-path="url(#clip-1101513929)" d="M 22.2321,2.8998 L 22.2321,21.2655 L 23.1988,21.2655 L 23.1988,2.8998 L 22.2321,2.8998 Z" stroke-width="1px" stroke="#BCBCBC" fill="#BCBCBC"/>
          <path clip-path="url(#clip-1101513929)" d="M 23.1988,2.8998 L 23.1988,21.2655 L 24.1654,21.2655 L 24.1654,2.8998 L 23.1988,2.8998 Z" stroke-width="1px" stroke="#BEBEBE" fill="#BEBEBE"/>
          <path clip-path="url(#clip-1101513929)" d="M 24.1654,2.8998 L 24.1654,21.2655 L 25.1320,21.2655 L 25.1320,2.8998 L 24.1654,2.8998 Z" stroke-width="1px" stroke="#C0C0C0" fill="#C0C0C0"/>
          <path clip-path="url(#clip-1101513929)" d="M 25.1320,2.8998 L 25.1320,21.2655 L 26.0986,21.2655 L 26.0986,2.8998 L 25.1320,2.8998 Z" stroke-width="1px" stroke="#C2C2C2" fill="#C2C2C2"/>
          <path clip-path="url(#clip-1101513929)" d="M 26.0986,2.8998 L 26.0986,21.2655 L 27.0652,21.2655 L 27.0652,2.8998 L 26.0986,2.8998 Z" stroke-width="1px" stroke="#C4C4C4" fill="#C4C4C4"/>
          <path clip-path="url(#clip-1101513929)" d="M 27.0652,2.8998 L 27.0652,21.2655 L 28.0318,21.2655 L 28.0318,2.8998 L 27.0652,2.8998 Z" stroke-width="1px" stroke="#C7C7C7" fill="#C7C7C7"/>
          <path clip-path="url(#clip-1101513929)" d="M 28.0318,2.8998 L 28.0318,21.2655 L 28.9984,21.2655 L 28.9984,2.8998 L 28.0318,2.8998 Z" stroke-width="1px" stroke="#C9C9C9" fill="#C9C9C9"/>
          <path clip-path="url(#clip-1101513929)" d="M 28.9984,2.8998 L 28.9984,21.2655 L 29.9651,21.2655 L 29.9651,2.8998 L 28.9984,2.8998 Z" stroke-width="1px" stroke="#CBCBCB" fill="#CBCBCB"/>
          <path clip-path="url(#clip-1101513929)" d="M 29.9651,2.8998 L 29.9651,21.2655 L 30.9317,21.2655 L 30.9317,2.8998 L 29.9651,2.8998 Z" stroke-width="1px" stroke="#CDCDCD" fill="#CDCDCD"/>
          <path clip-path="url(#clip-1101513929)" d="M 30.9317,2.8998 L 30.9317,21.2655 L 31.8983,21.2655 L 31.8983,2.8998 L 30.9317,2.8998 Z" stroke-width="1px" stroke="#CBCBCB" fill="#CBCBCB"/>
          <path clip-path="url(#clip-1101513929)" d="M 31.8983,2.8998 L 31.8983,21.2655 L 32.8649,21.2655 L 32.8649,2.8998 L 31.8983,2.8998 Z" stroke-width="1px" stroke="#C9C9C9" fill="#C9C9C9"/>
          <path clip-path="url(#clip-1101513929)" d="M 32.8649,2.8998 L 32.8649,21.2655 L 33.8315,21.2655 L 33.8315,2.8998 L 32.8649,2.8998 Z" stroke-width="1px" stroke="#C7C7C7" fill="#C7C7C7"/>
          <path clip-path="url(#clip-1101513929)" d="M 33.8315,2.8998 L 33.8315,21.2655 L 34.7981,21.2655 L 34.7981,2.8998 L 33.8315,2.8998 Z" stroke-width="1px" stroke="#C4C4C4" fill="#C4C4C4"/>
          <path clip-path="url(#clip-1101513929)" d="M 34.7981,2.8998 L 34.7981,21.2655 L 35.7648,21.2655 L 35.7648,2.8998 L 34.7981,2.8998 Z" stroke-width="1px" stroke="#C2C2C2" fill="#C2C2C2"/>
          <path clip-path="url(#clip-1101513929)" d="M 35.7648,2.8998 L 35.7648,21.2655 L 36.7314,21.2655 L 36.7314,2.8998 L 35.7648,2.8998 Z" stroke-width="1px" stroke="#C0C0C0" fill="#C0C0C0"/>
          <path clip-path="url(#clip-1101513929)" d="M 36.7314,2.8998 L 36.7314,21.2655 L 37.6980,21.2655 L 37.6980,2.8998 L 36.7314,2.8998 Z" stroke-width="1px" stroke="#BDBDBD" fill="#BDBDBD"/>
          <path clip-path="url(#clip-1101513929)" d="M 37.6980,2.8998 L 37.6980,21.2655 L 38.6646,21.2655 L 38.6646,2.8998 L 37.6980,2.8998 Z" stroke-width="1px" stroke="#BBBBBB" fill="#BBBBBB"/>
          <path clip-path="url(#clip-1101513929)" d="M 38.6646,2.8998 L 38.6646,21.2655 L 39.6312,21.2655 L 39.6312,2.8998 L 38.6646,2.8998 Z" stroke-width="1px" stroke="#B9B9B9" fill="#B9B9B9"/>
          <path clip-path="url(#clip-1101513929)" d="M 39.6312,2.8998 L 39.6312,21.2655 L 40.5978,21.2655 L 40.5978,2.8998 L 39.6312,2.8998 Z" stroke-width="1px" stroke="#B7B7B7" fill="#B7B7B7"/>
          <path clip-path="url(#clip-1101513929)" d="M 40.5978,2.8998 L 40.5978,21.2655 L 41.5644,21.2655 L 41.5644,2.8998 L 40.5978,2.8998 Z" stroke-width="1px" stroke="#B5B5B5" fill="#B5B5B5"/>
          <path clip-path="url(#clip-1101513929)" d="M 41.5644,2.8998 L 41.5644,21.2655 L 42.5311,21.2655 L 42.5311,2.8998 L 41.5644,2.8998 Z" stroke-width="1px" stroke="#B3B3B3" fill="#B3B3B3"/>
          <path clip-path="url(#clip-1101513929)" d="M 42.5311,2.8998 L 42.5311,21.2655 L 43.4977,21.2655 L 43.4977,2.8998 L 42.5311,2.8998 Z" stroke-width="1px" stroke="#B1B1B1" fill="#B1B1B1"/>
          <path clip-path="url(#clip-1101513929)" d="M 43.4977,2.8998 L 43.4977,21.2655 L 44.4643,21.2655 L 44.4643,2.8998 L 43.4977,2.8998 Z" stroke-width="1px" stroke="#AEAEAE" fill="#AEAEAE"/>
          <path clip-path="url(#clip-1101513929)" d="M 44.4643,2.8998 L 44.4643,21.2655 L 45.4309,21.2655 L 45.4309,2.8998 L 44.4643,2.8998 Z" stroke-width="1px" stroke="#ACACAC" fill="#ACACAC"/>
          <path clip-path="url(#clip-1101513929)" d="M 45.4309,2.8998 L 45.4309,21.2655 L 46.3975,21.2655 L 46.3975,2.8998 L 45.4309,2.8998 Z" stroke-width="1px" stroke="#AAAAAA" fill="#AAAAAA"/>
          <path clip-path="url(#clip-1101513929)" d="M 46.3975,2.8998 L 46.3975,21.2655 L 47.3641,21.2655 L 47.3641,2.8998 L 46.3975,2.8998 Z" stroke-width="1px" stroke="#A8A8A8" fill="#A8A8A8"/>
          <path clip-path="url(#clip-1101513929)" d="M 47.3641,2.8998 L 47.3641,21.2655 L 48.3307,21.2655 L 48.3307,2.8998 L 47.3641,2.8998 Z" stroke-width="1px" stroke="#A6A6A6" fill="#A6A6A6"/>
          <path clip-path="url(#clip-1101513929)" d="M 48.3307,2.8998 L 48.3307,21.2655 L 49.2974,21.2655 L 49.2974,2.8998 L 48.3307,2.8998 Z" stroke-width="1px" stroke="#A3A3A3" fill="#A3A3A3"/>
          <path clip-path="url(#clip-1101513929)" d="M 49.2974,2.8998 L 49.2974,21.2655 L 50.2640,21.2655 L 50.2640,2.8998 L 49.2974,2.8998 Z" stroke-width="1px" stroke="#A1A1A1" fill="#A1A1A1"/>
          <path clip-path="url(#clip-1101513929)" d="M 50.2640,2.8998 L 50.2640,21.2655 L 51.2306,21.2655 L 51.2306,2.8998 L 50.2640,2.8998 Z" stroke-width="1px" stroke="#9F9F9F" fill="#9F9F9F"/>
          <path clip-path="url(#clip-1101513929)" d="M 51.2306,2.8998 L 51.2306,21.2655 L 52.1972,21.2655 L 52.1972,2.8998 L 51.2306,2.8998 Z" stroke-width="1px" stroke="#9C9C9C" fill="#9C9C9C"/>
        </g>
        <g transform="matrix(0.0625 0.0000 0.0000 0.0625 0.0000 0.0000)">
          <path d="M 120.8269,318.0163 L 133.3929,303.5171 C 159.4915,306.4170 372.1468,321.8828 495.8735,321.8828 C 543.2376,321.8828 593.5016,312.2166 632.1662,303.5171 C 669.8642,293.8510 695.9628,285.1514 696.9294,285.1514 L 697.8960,284.1848 L 812.9232,284.1848 C 819.6895,256.1530 823.5560,218.4550 823.5560,175.9239 C 823.5560,130.4930 812.9232,71.5295 812.9232,70.5629 L 824.5226,54.1304 C 824.5226,54.1304 839.0218,127.5932 839.0218,175.9239 C 839.0218,222.3214 833.2221,264.8525 825.4892,295.7842 L 823.5560,301.5839 L 699.8293,301.5839 C 688.2299,305.4503 587.7019,338.3152 495.8735,338.3152 C 354.7477,338.3152 126.6266,318.9829 125.6599,318.9829 L 120.8269,318.0163 " stroke="#9A9A9A" stroke-width="0.9666" stroke-linecap="butt" stroke-linejoin="round" fill="none"/>
        </g>
        <g transform="matrix(1.0000 0.0000 0.0000 1.0000 0.0000 0.0000)">
</g>
        <g transform="matrix(0.0625 0.0000 0.0000 0.0625 0.0000 0.0000)">
          <path d="M 189.4565,268.7190 C 194.2896,249.3867 197.1895,208.7888 197.1895,178.8238 C 197.1895,148.8587 194.2896,109.2275 189.4565,88.9286 M 271.6188,262.9193 C 277.4185,244.5536 280.3183,207.8222 280.3183,178.8238 C 280.3183,150.7919 277.4185,114.0606 271.6188,95.6949 M 354.7477,257.1196 C 359.5808,239.7205 362.4806,205.8890 362.4806,179.7904 C 362.4806,152.7252 359.5808,118.8936 354.7477,101.4946 M 437.8766,251.3199 C 442.7097,234.8874 445.6095,204.9224 445.6095,179.7904 C 445.6095,153.6918 442.7097,123.7267 437.8766,107.2943 M 520.0389,246.4868 C 524.8719,230.0544 527.7718,202.9891 527.7718,179.7904 C 527.7718,155.6250 524.8719,128.5598 520.0389,113.0940 M 603.1678,240.6871 C 608.0008,226.1879 610.9007,202.0225 610.9007,179.7904 C 610.9007,156.5916 608.0008,133.3929 603.1678,117.9270 M 685.3300,235.8541 C 690.1631,221.3548 693.0630,201.0559 693.0630,179.7904 C 693.0630,158.5249 690.1631,137.2593 685.3300,123.7267 M 768.4589,230.0544 C 773.2920,217.4884 776.1918,199.1227 776.1918,179.7904 C 776.1918,159.4915 773.2920,142.0924 768.4589,128.5598 " stroke="#C8E6F2" stroke-width="11.5994" stroke-linecap="round" stroke-linejoin="round" fill="none"/>
        </g>
        <g transform="matrix(1.0000 0.0000 0.0000 1.0000 0.0000 0.0000)">
</g>
      </g>
      <!--emf-blob end-->
    </g>
  </g>
</svg>
