<svg xmlns="http://www.w3.org/2000/svg" xmlns:xlink="http://www.w3.org/1999/xlink" version="1.1" width="56.6929000000" height="14.5134000000">
  <title><![CDATA[FC Storage Shelf]]></title>
  <g transform=" scale(1.000000) ">
    <!--converted by libvisio2svg-->
    <g transform=" translate(-1.247900,-1.131300) ">
      <!--emf-blob start-->
      <g transform="translate(0.9339, 0.9339)">
        <defs>
          <clipPath id="clip-1117142618">
            <path d="M 4.6693,1.8677 L 54.1636,1.8677 L 54.1636,14.9417 L 4.6693,14.9417 L 4.6693,1.8677 Z Z"/>
          </clipPath>
        </defs>
        <path clip-path="url(#clip-1117142618)" d="M 3.7354,0.9339 L 3.7354,14.9417 L 4.6693,14.9417 L 4.6693,0.9339 L 3.7354,0.9339 Z" stroke-width="1px" stroke="#A6A6A6" fill="#A6A6A6"/>
        <path clip-path="url(#clip-1117142618)" d="M 4.6693,0.9339 L 4.6693,14.9417 L 5.6031,14.9417 L 5.6031,0.9339 L 4.6693,0.9339 Z" stroke-width="1px" stroke="#A7A7A7" fill="#A7A7A7"/>
        <path clip-path="url(#clip-1117142618)" d="M 5.6031,0.9339 L 5.6031,14.9417 L 6.5370,14.9417 L 6.5370,0.9339 L 5.6031,0.9339 Z" stroke-width="1px" stroke="#A9A9A9" fill="#A9A9A9"/>
        <path clip-path="url(#clip-1117142618)" d="M 6.5370,0.9339 L 6.5370,14.9417 L 7.4708,14.9417 L 7.4708,0.9339 L 6.5370,0.9339 Z" stroke-width="1px" stroke="#AAAAAA" fill="#AAAAAA"/>
        <path clip-path="url(#clip-1117142618)" d="M 7.4708,0.9339 L 7.4708,14.9417 L 8.4047,14.9417 L 8.4047,0.9339 L 7.4708,0.9339 Z" stroke-width="1px" stroke="#ACACAC" fill="#ACACAC"/>
        <path clip-path="url(#clip-1117142618)" d="M 8.4047,0.9339 L 8.4047,14.9417 L 9.3386,14.9417 L 9.3386,0.9339 L 8.4047,0.9339 Z" stroke-width="1px" stroke="#ADADAD" fill="#ADADAD"/>
        <path clip-path="url(#clip-1117142618)" d="M 9.3386,0.9339 L 9.3386,14.9417 L 10.2724,14.9417 L 10.2724,0.9339 L 9.3386,0.9339 Z" stroke-width="1px" stroke="#AFAFAF" fill="#AFAFAF"/>
        <path clip-path="url(#clip-1117142618)" d="M 10.2724,0.9339 L 10.2724,14.9417 L 11.2063,14.9417 L 11.2063,0.9339 L 10.2724,0.9339 Z" stroke-width="1px" stroke="#B0B0B0" fill="#B0B0B0"/>
        <path clip-path="url(#clip-1117142618)" d="M 11.2063,0.9339 L 11.2063,14.9417 L 12.1401,14.9417 L 12.1401,0.9339 L 11.2063,0.9339 Z" stroke-width="1px" stroke="#B2B2B2" fill="#B2B2B2"/>
        <path clip-path="url(#clip-1117142618)" d="M 12.1401,0.9339 L 12.1401,14.9417 L 13.0740,14.9417 L 13.0740,0.9339 L 12.1401,0.9339 Z" stroke-width="1px" stroke="#B3B3B3" fill="#B3B3B3"/>
        <path clip-path="url(#clip-1117142618)" d="M 13.0740,0.9339 L 13.0740,14.9417 L 14.0078,14.9417 L 14.0078,0.9339 L 13.0740,0.9339 Z" stroke-width="1px" stroke="#B5B5B5" fill="#B5B5B5"/>
        <path clip-path="url(#clip-1117142618)" d="M 14.0078,0.9339 L 14.0078,14.9417 L 14.9417,14.9417 L 14.9417,0.9339 L 14.0078,0.9339 Z" stroke-width="1px" stroke="#B6B6B6" fill="#B6B6B6"/>
        <path clip-path="url(#clip-1117142618)" d="M 14.9417,0.9339 L 14.9417,14.9417 L 15.8755,14.9417 L 15.8755,0.9339 L 14.9417,0.9339 Z" stroke-width="1px" stroke="#B8B8B8" fill="#B8B8B8"/>
        <path clip-path="url(#clip-1117142618)" d="M 15.8755,0.9339 L 15.8755,14.9417 L 16.8094,14.9417 L 16.8094,0.9339 L 15.8755,0.9339 Z" stroke-width="1px" stroke="#B9B9B9" fill="#B9B9B9"/>
        <path clip-path="url(#clip-1117142618)" d="M 16.8094,0.9339 L 16.8094,14.9417 L 17.7433,14.9417 L 17.7433,0.9339 L 16.8094,0.9339 Z" stroke-width="1px" stroke="#BBBBBB" fill="#BBBBBB"/>
        <path clip-path="url(#clip-1117142618)" d="M 17.7433,0.9339 L 17.7433,14.9417 L 18.6771,14.9417 L 18.6771,0.9339 L 17.7433,0.9339 Z" stroke-width="1px" stroke="#BCBCBC" fill="#BCBCBC"/>
        <path clip-path="url(#clip-1117142618)" d="M 18.6771,0.9339 L 18.6771,14.9417 L 19.6110,14.9417 L 19.6110,0.9339 L 18.6771,0.9339 Z" stroke-width="1px" stroke="#BDBDBD" fill="#BDBDBD"/>
        <path clip-path="url(#clip-1117142618)" d="M 19.6110,0.9339 L 19.6110,14.9417 L 20.5448,14.9417 L 20.5448,0.9339 L 19.6110,0.9339 Z" stroke-width="1px" stroke="#BEBEBE" fill="#BEBEBE"/>
        <path clip-path="url(#clip-1117142618)" d="M 20.5448,0.9339 L 20.5448,14.9417 L 21.4787,14.9417 L 21.4787,0.9339 L 20.5448,0.9339 Z" stroke-width="1px" stroke="#C0C0C0" fill="#C0C0C0"/>
        <path clip-path="url(#clip-1117142618)" d="M 21.4787,0.9339 L 21.4787,14.9417 L 22.4125,14.9417 L 22.4125,0.9339 L 21.4787,0.9339 Z" stroke-width="1px" stroke="#C1C1C1" fill="#C1C1C1"/>
        <path clip-path="url(#clip-1117142618)" d="M 22.4125,0.9339 L 22.4125,14.9417 L 23.3464,14.9417 L 23.3464,0.9339 L 22.4125,0.9339 Z" stroke-width="1px" stroke="#C3C3C3" fill="#C3C3C3"/>
        <path clip-path="url(#clip-1117142618)" d="M 23.3464,0.9339 L 23.3464,14.9417 L 24.2802,14.9417 L 24.2802,0.9339 L 23.3464,0.9339 Z" stroke-width="1px" stroke="#C4C4C4" fill="#C4C4C4"/>
        <path clip-path="url(#clip-1117142618)" d="M 24.2802,0.9339 L 24.2802,14.9417 L 25.2141,14.9417 L 25.2141,0.9339 L 24.2802,0.9339 Z" stroke-width="1px" stroke="#C6C6C6" fill="#C6C6C6"/>
        <path clip-path="url(#clip-1117142618)" d="M 25.2141,0.9339 L 25.2141,14.9417 L 26.1480,14.9417 L 26.1480,0.9339 L 25.2141,0.9339 Z" stroke-width="1px" stroke="#C7C7C7" fill="#C7C7C7"/>
        <path clip-path="url(#clip-1117142618)" d="M 26.1480,0.9339 L 26.1480,14.9417 L 27.0818,14.9417 L 27.0818,0.9339 L 26.1480,0.9339 Z" stroke-width="1px" stroke="#C8C8C8" fill="#C8C8C8"/>
        <path clip-path="url(#clip-1117142618)" d="M 27.0818,0.9339 L 27.0818,14.9417 L 28.0157,14.9417 L 28.0157,0.9339 L 27.0818,0.9339 Z" stroke-width="1px" stroke="#CACACA" fill="#CACACA"/>
        <path clip-path="url(#clip-1117142618)" d="M 28.0157,0.9339 L 28.0157,14.9417 L 28.9495,14.9417 L 28.9495,0.9339 L 28.0157,0.9339 Z" stroke-width="1px" stroke="#CBCBCB" fill="#CBCBCB"/>
        <path clip-path="url(#clip-1117142618)" d="M 28.9495,0.9339 L 28.9495,14.9417 L 29.8834,14.9417 L 29.8834,0.9339 L 28.9495,0.9339 Z" stroke-width="1px" stroke="#CDCDCD" fill="#CDCDCD"/>
        <path clip-path="url(#clip-1117142618)" d="M 29.8834,0.9339 L 29.8834,14.9417 L 30.8172,14.9417 L 30.8172,0.9339 L 29.8834,0.9339 Z" stroke-width="1px" stroke="#CCCCCC" fill="#CCCCCC"/>
        <path clip-path="url(#clip-1117142618)" d="M 30.8172,0.9339 L 30.8172,14.9417 L 31.7511,14.9417 L 31.7511,0.9339 L 30.8172,0.9339 Z" stroke-width="1px" stroke="#CACACA" fill="#CACACA"/>
        <path clip-path="url(#clip-1117142618)" d="M 31.7511,0.9339 L 31.7511,14.9417 L 32.6849,14.9417 L 32.6849,0.9339 L 31.7511,0.9339 Z" stroke-width="1px" stroke="#C9C9C9" fill="#C9C9C9"/>
        <path clip-path="url(#clip-1117142618)" d="M 32.6849,0.9339 L 32.6849,14.9417 L 33.6188,14.9417 L 33.6188,0.9339 L 32.6849,0.9339 Z" stroke-width="1px" stroke="#C7C7C7" fill="#C7C7C7"/>
        <path clip-path="url(#clip-1117142618)" d="M 33.6188,0.9339 L 33.6188,14.9417 L 34.5527,14.9417 L 34.5527,0.9339 L 33.6188,0.9339 Z" stroke-width="1px" stroke="#C6C6C6" fill="#C6C6C6"/>
        <path clip-path="url(#clip-1117142618)" d="M 34.5527,0.9339 L 34.5527,14.9417 L 35.4865,14.9417 L 35.4865,0.9339 L 34.5527,0.9339 Z" stroke-width="1px" stroke="#C4C4C4" fill="#C4C4C4"/>
        <path clip-path="url(#clip-1117142618)" d="M 35.4865,0.9339 L 35.4865,14.9417 L 36.4204,14.9417 L 36.4204,0.9339 L 35.4865,0.9339 Z" stroke-width="1px" stroke="#C3C3C3" fill="#C3C3C3"/>
        <path clip-path="url(#clip-1117142618)" d="M 36.4204,0.9339 L 36.4204,14.9417 L 37.3542,14.9417 L 37.3542,0.9339 L 36.4204,0.9339 Z" stroke-width="1px" stroke="#C1C1C1" fill="#C1C1C1"/>
        <path clip-path="url(#clip-1117142618)" d="M 37.3542,0.9339 L 37.3542,14.9417 L 38.2881,14.9417 L 38.2881,0.9339 L 37.3542,0.9339 Z" stroke-width="1px" stroke="#C0C0C0" fill="#C0C0C0"/>
        <path clip-path="url(#clip-1117142618)" d="M 38.2881,0.9339 L 38.2881,14.9417 L 39.2219,14.9417 L 39.2219,0.9339 L 38.2881,0.9339 Z" stroke-width="1px" stroke="#BEBEBE" fill="#BEBEBE"/>
        <path clip-path="url(#clip-1117142618)" d="M 39.2219,0.9339 L 39.2219,14.9417 L 40.1558,14.9417 L 40.1558,0.9339 L 39.2219,0.9339 Z" stroke-width="1px" stroke="#BDBDBD" fill="#BDBDBD"/>
        <path clip-path="url(#clip-1117142618)" d="M 40.1558,0.9339 L 40.1558,14.9417 L 41.0896,14.9417 L 41.0896,0.9339 L 40.1558,0.9339 Z" stroke-width="1px" stroke="#BCBCBC" fill="#BCBCBC"/>
        <path clip-path="url(#clip-1117142618)" d="M 41.0896,0.9339 L 41.0896,14.9417 L 42.0235,14.9417 L 42.0235,0.9339 L 41.0896,0.9339 Z" stroke-width="1px" stroke="#BBBBBB" fill="#BBBBBB"/>
        <path clip-path="url(#clip-1117142618)" d="M 42.0235,0.9339 L 42.0235,14.9417 L 42.9574,14.9417 L 42.9574,0.9339 L 42.0235,0.9339 Z" stroke-width="1px" stroke="#B9B9B9" fill="#B9B9B9"/>
        <path clip-path="url(#clip-1117142618)" d="M 42.9574,0.9339 L 42.9574,14.9417 L 43.8912,14.9417 L 43.8912,0.9339 L 42.9574,0.9339 Z" stroke-width="1px" stroke="#B8B8B8" fill="#B8B8B8"/>
        <path clip-path="url(#clip-1117142618)" d="M 43.8912,0.9339 L 43.8912,14.9417 L 44.8251,14.9417 L 44.8251,0.9339 L 43.8912,0.9339 Z" stroke-width="1px" stroke="#B6B6B6" fill="#B6B6B6"/>
        <path clip-path="url(#clip-1117142618)" d="M 44.8251,0.9339 L 44.8251,14.9417 L 45.7589,14.9417 L 45.7589,0.9339 L 44.8251,0.9339 Z" stroke-width="1px" stroke="#B5B5B5" fill="#B5B5B5"/>
        <path clip-path="url(#clip-1117142618)" d="M 45.7589,0.9339 L 45.7589,14.9417 L 46.6928,14.9417 L 46.6928,0.9339 L 45.7589,0.9339 Z" stroke-width="1px" stroke="#B3B3B3" fill="#B3B3B3"/>
        <path clip-path="url(#clip-1117142618)" d="M 46.6928,0.9339 L 46.6928,14.9417 L 47.6266,14.9417 L 47.6266,0.9339 L 46.6928,0.9339 Z" stroke-width="1px" stroke="#B2B2B2" fill="#B2B2B2"/>
        <path clip-path="url(#clip-1117142618)" d="M 47.6266,0.9339 L 47.6266,14.9417 L 48.5605,14.9417 L 48.5605,0.9339 L 47.6266,0.9339 Z" stroke-width="1px" stroke="#B0B0B0" fill="#B0B0B0"/>
        <path clip-path="url(#clip-1117142618)" d="M 48.5605,0.9339 L 48.5605,14.9417 L 49.4943,14.9417 L 49.4943,0.9339 L 48.5605,0.9339 Z" stroke-width="1px" stroke="#AFAFAF" fill="#AFAFAF"/>
        <path clip-path="url(#clip-1117142618)" d="M 49.4943,0.9339 L 49.4943,14.9417 L 50.4282,14.9417 L 50.4282,0.9339 L 49.4943,0.9339 Z" stroke-width="1px" stroke="#ADADAD" fill="#ADADAD"/>
        <path clip-path="url(#clip-1117142618)" d="M 50.4282,0.9339 L 50.4282,14.9417 L 51.3621,14.9417 L 51.3621,0.9339 L 50.4282,0.9339 Z" stroke-width="1px" stroke="#ACACAC" fill="#ACACAC"/>
        <path clip-path="url(#clip-1117142618)" d="M 51.3621,0.9339 L 51.3621,14.9417 L 52.2959,14.9417 L 52.2959,0.9339 L 51.3621,0.9339 Z" stroke-width="1px" stroke="#AAAAAA" fill="#AAAAAA"/>
        <path clip-path="url(#clip-1117142618)" d="M 52.2959,0.9339 L 52.2959,14.9417 L 53.2298,14.9417 L 53.2298,0.9339 L 52.2959,0.9339 Z" stroke-width="1px" stroke="#A9A9A9" fill="#A9A9A9"/>
        <path clip-path="url(#clip-1117142618)" d="M 53.2298,0.9339 L 53.2298,14.9417 L 54.1636,14.9417 L 54.1636,0.9339 L 53.2298,0.9339 Z" stroke-width="1px" stroke="#A7A7A7" fill="#A7A7A7"/>
        <g transform="matrix(0.0625 0.0000 0.0000 0.0625 0.0000 0.0000)">
          <path d="M 61.6345,234.3977 L 866.6180,234.3977 L 866.6180,17.7433 L 61.6345,17.7433 L 61.6345,234.3977 " stroke="#0054A6" stroke-width="9.3386" stroke-linecap="round" stroke-linejoin="round" fill="none"/>
        </g>
        <g transform="matrix(1.0000 0.0000 0.0000 1.0000 0.0000 0.0000)">
          <defs>
            <clipPath id="clip-168002245">
              <path d="M 5.6031,2.8016 L 53.2298,2.8016 L 53.2298,14.0078 L 5.6031,14.0078 L 5.6031,2.8016 Z Z"/>
            </clipPath>
          </defs>
          <path clip-path="url(#clip-168002245)" d="M 4.6693,1.8677 L 4.6693,13.0740 L 5.6031,13.0740 L 5.6031,1.8677 L 4.6693,1.8677 Z" stroke-width="1px" stroke="#65BFEC" fill="#65BFEC"/>
          <path clip-path="url(#clip-168002245)" d="M 5.6031,1.8677 L 5.6031,13.0740 L 6.5370,13.0740 L 6.5370,1.8677 L 5.6031,1.8677 Z" stroke-width="1px" stroke="#0178C0" fill="#0178C0"/>
          <path clip-path="url(#clip-168002245)" d="M 6.5370,1.8677 L 6.5370,13.0740 L 7.4708,13.0740 L 7.4708,1.8677 L 6.5370,1.8677 Z" stroke-width="1px" stroke="#0379C1" fill="#0379C1"/>
          <path clip-path="url(#clip-168002245)" d="M 7.4708,1.8677 L 7.4708,13.0740 L 8.4047,13.0740 L 8.4047,1.8677 L 7.4708,1.8677 Z" stroke-width="1px" stroke="#047BC2" fill="#047BC2"/>
          <path clip-path="url(#clip-168002245)" d="M 8.4047,1.8677 L 8.4047,13.0740 L 9.3386,13.0740 L 9.3386,1.8677 L 8.4047,1.8677 Z" stroke-width="1px" stroke="#067CC3" fill="#067CC3"/>
          <path clip-path="url(#clip-168002245)" d="M 9.3386,1.8677 L 9.3386,13.0740 L 10.2724,13.0740 L 10.2724,1.8677 L 9.3386,1.8677 Z" stroke-width="1px" stroke="#097DC4" fill="#097DC4"/>
          <path clip-path="url(#clip-168002245)" d="M 10.2724,1.8677 L 10.2724,13.0740 L 11.2063,13.0740 L 11.2063,1.8677 L 10.2724,1.8677 Z" stroke-width="1px" stroke="#0B7FC5" fill="#0B7FC5"/>
          <path clip-path="url(#clip-168002245)" d="M 11.2063,1.8677 L 11.2063,13.0740 L 12.1401,13.0740 L 12.1401,1.8677 L 11.2063,1.8677 Z" stroke-width="1px" stroke="#0D80C6" fill="#0D80C6"/>
          <path clip-path="url(#clip-168002245)" d="M 12.1401,1.8677 L 12.1401,13.0740 L 13.0740,13.0740 L 13.0740,1.8677 L 12.1401,1.8677 Z" stroke-width="1px" stroke="#0F82C7" fill="#0F82C7"/>
          <path clip-path="url(#clip-168002245)" d="M 13.0740,1.8677 L 13.0740,13.0740 L 14.0078,13.0740 L 14.0078,1.8677 L 13.0740,1.8677 Z" stroke-width="1px" stroke="#1183C7" fill="#1183C7"/>
          <path clip-path="url(#clip-168002245)" d="M 14.0078,1.8677 L 14.0078,13.0740 L 14.9417,13.0740 L 14.9417,1.8677 L 14.0078,1.8677 Z" stroke-width="1px" stroke="#1385C8" fill="#1385C8"/>
          <path clip-path="url(#clip-168002245)" d="M 14.9417,1.8677 L 14.9417,13.0740 L 15.8755,13.0740 L 15.8755,1.8677 L 14.9417,1.8677 Z" stroke-width="1px" stroke="#1586C9" fill="#1586C9"/>
          <path clip-path="url(#clip-168002245)" d="M 15.8755,1.8677 L 15.8755,13.0740 L 16.8094,13.0740 L 16.8094,1.8677 L 15.8755,1.8677 Z" stroke-width="1px" stroke="#1787CA" fill="#1787CA"/>
          <path clip-path="url(#clip-168002245)" d="M 16.8094,1.8677 L 16.8094,13.0740 L 17.7433,13.0740 L 17.7433,1.8677 L 16.8094,1.8677 Z" stroke-width="1px" stroke="#1989CB" fill="#1989CB"/>
          <path clip-path="url(#clip-168002245)" d="M 17.7433,1.8677 L 17.7433,13.0740 L 18.6771,13.0740 L 18.6771,1.8677 L 17.7433,1.8677 Z" stroke-width="1px" stroke="#1B8ACC" fill="#1B8ACC"/>
          <path clip-path="url(#clip-168002245)" d="M 18.6771,1.8677 L 18.6771,13.0740 L 19.6110,13.0740 L 19.6110,1.8677 L 18.6771,1.8677 Z" stroke-width="1px" stroke="#1D8CCD" fill="#1D8CCD"/>
          <path clip-path="url(#clip-168002245)" d="M 19.6110,1.8677 L 19.6110,13.0740 L 20.5448,13.0740 L 20.5448,1.8677 L 19.6110,1.8677 Z" stroke-width="1px" stroke="#1F8DCE" fill="#1F8DCE"/>
          <path clip-path="url(#clip-168002245)" d="M 20.5448,1.8677 L 20.5448,13.0740 L 21.4787,13.0740 L 21.4787,1.8677 L 20.5448,1.8677 Z" stroke-width="1px" stroke="#218FCE" fill="#218FCE"/>
          <path clip-path="url(#clip-168002245)" d="M 21.4787,1.8677 L 21.4787,13.0740 L 22.4125,13.0740 L 22.4125,1.8677 L 21.4787,1.8677 Z" stroke-width="1px" stroke="#2390CF" fill="#2390CF"/>
          <path clip-path="url(#clip-168002245)" d="M 22.4125,1.8677 L 22.4125,13.0740 L 23.3464,13.0740 L 23.3464,1.8677 L 22.4125,1.8677 Z" stroke-width="1px" stroke="#2591D0" fill="#2591D0"/>
          <path clip-path="url(#clip-168002245)" d="M 23.3464,1.8677 L 23.3464,13.0740 L 24.2802,13.0740 L 24.2802,1.8677 L 23.3464,1.8677 Z" stroke-width="1px" stroke="#2792D1" fill="#2792D1"/>
          <path clip-path="url(#clip-168002245)" d="M 24.2802,1.8677 L 24.2802,13.0740 L 25.2141,13.0740 L 25.2141,1.8677 L 24.2802,1.8677 Z" stroke-width="1px" stroke="#2994D2" fill="#2994D2"/>
          <path clip-path="url(#clip-168002245)" d="M 25.2141,1.8677 L 25.2141,13.0740 L 26.1480,13.0740 L 26.1480,1.8677 L 25.2141,1.8677 Z" stroke-width="1px" stroke="#2B96D3" fill="#2B96D3"/>
          <path clip-path="url(#clip-168002245)" d="M 26.1480,1.8677 L 26.1480,13.0740 L 27.0818,13.0740 L 27.0818,1.8677 L 26.1480,1.8677 Z" stroke-width="1px" stroke="#2D97D4" fill="#2D97D4"/>
          <path clip-path="url(#clip-168002245)" d="M 27.0818,1.8677 L 27.0818,13.0740 L 28.0157,13.0740 L 28.0157,1.8677 L 27.0818,1.8677 Z" stroke-width="1px" stroke="#2F99D5" fill="#2F99D5"/>
          <path clip-path="url(#clip-168002245)" d="M 28.0157,1.8677 L 28.0157,13.0740 L 28.9495,13.0740 L 28.9495,1.8677 L 28.0157,1.8677 Z" stroke-width="1px" stroke="#319AD6" fill="#319AD6"/>
          <path clip-path="url(#clip-168002245)" d="M 28.9495,1.8677 L 28.9495,13.0740 L 29.8834,13.0740 L 29.8834,1.8677 L 28.9495,1.8677 Z" stroke-width="1px" stroke="#339CD7" fill="#339CD7"/>
          <path clip-path="url(#clip-168002245)" d="M 29.8834,1.8677 L 29.8834,13.0740 L 30.8172,13.0740 L 30.8172,1.8677 L 29.8834,1.8677 Z" stroke-width="1px" stroke="#359DD8" fill="#359DD8"/>
          <path clip-path="url(#clip-168002245)" d="M 30.8172,1.8677 L 30.8172,13.0740 L 31.7511,13.0740 L 31.7511,1.8677 L 30.8172,1.8677 Z" stroke-width="1px" stroke="#379ED8" fill="#379ED8"/>
          <path clip-path="url(#clip-168002245)" d="M 31.7511,1.8677 L 31.7511,13.0740 L 32.6849,13.0740 L 32.6849,1.8677 L 31.7511,1.8677 Z" stroke-width="1px" stroke="#39A0D9" fill="#39A0D9"/>
          <path clip-path="url(#clip-168002245)" d="M 32.6849,1.8677 L 32.6849,13.0740 L 33.6188,13.0740 L 33.6188,1.8677 L 32.6849,1.8677 Z" stroke-width="1px" stroke="#3BA1DA" fill="#3BA1DA"/>
          <path clip-path="url(#clip-168002245)" d="M 33.6188,1.8677 L 33.6188,13.0740 L 34.5527,13.0740 L 34.5527,1.8677 L 33.6188,1.8677 Z" stroke-width="1px" stroke="#3DA3DB" fill="#3DA3DB"/>
          <path clip-path="url(#clip-168002245)" d="M 34.5527,1.8677 L 34.5527,13.0740 L 35.4865,13.0740 L 35.4865,1.8677 L 34.5527,1.8677 Z" stroke-width="1px" stroke="#3FA4DC" fill="#3FA4DC"/>
          <path clip-path="url(#clip-168002245)" d="M 35.4865,1.8677 L 35.4865,13.0740 L 36.4204,13.0740 L 36.4204,1.8677 L 35.4865,1.8677 Z" stroke-width="1px" stroke="#41A6DD" fill="#41A6DD"/>
          <path clip-path="url(#clip-168002245)" d="M 36.4204,1.8677 L 36.4204,13.0740 L 37.3542,13.0740 L 37.3542,1.8677 L 36.4204,1.8677 Z" stroke-width="1px" stroke="#43A7DE" fill="#43A7DE"/>
          <path clip-path="url(#clip-168002245)" d="M 37.3542,1.8677 L 37.3542,13.0740 L 38.2881,13.0740 L 38.2881,1.8677 L 37.3542,1.8677 Z" stroke-width="1px" stroke="#45A8DE" fill="#45A8DE"/>
          <path clip-path="url(#clip-168002245)" d="M 38.2881,1.8677 L 38.2881,13.0740 L 39.2219,13.0740 L 39.2219,1.8677 L 38.2881,1.8677 Z" stroke-width="1px" stroke="#47AADF" fill="#47AADF"/>
          <path clip-path="url(#clip-168002245)" d="M 39.2219,1.8677 L 39.2219,13.0740 L 40.1558,13.0740 L 40.1558,1.8677 L 39.2219,1.8677 Z" stroke-width="1px" stroke="#49ABE0" fill="#49ABE0"/>
          <path clip-path="url(#clip-168002245)" d="M 40.1558,1.8677 L 40.1558,13.0740 L 41.0896,13.0740 L 41.0896,1.8677 L 40.1558,1.8677 Z" stroke-width="1px" stroke="#4BADE1" fill="#4BADE1"/>
          <path clip-path="url(#clip-168002245)" d="M 41.0896,1.8677 L 41.0896,13.0740 L 42.0235,13.0740 L 42.0235,1.8677 L 41.0896,1.8677 Z" stroke-width="1px" stroke="#4EAEE2" fill="#4EAEE2"/>
          <path clip-path="url(#clip-168002245)" d="M 42.0235,1.8677 L 42.0235,13.0740 L 42.9574,13.0740 L 42.9574,1.8677 L 42.0235,1.8677 Z" stroke-width="1px" stroke="#4FB0E3" fill="#4FB0E3"/>
          <path clip-path="url(#clip-168002245)" d="M 42.9574,1.8677 L 42.9574,13.0740 L 43.8912,13.0740 L 43.8912,1.8677 L 42.9574,1.8677 Z" stroke-width="1px" stroke="#51B1E4" fill="#51B1E4"/>
          <path clip-path="url(#clip-168002245)" d="M 43.8912,1.8677 L 43.8912,13.0740 L 44.8251,13.0740 L 44.8251,1.8677 L 43.8912,1.8677 Z" stroke-width="1px" stroke="#53B2E5" fill="#53B2E5"/>
          <path clip-path="url(#clip-168002245)" d="M 44.8251,1.8677 L 44.8251,13.0740 L 45.7589,13.0740 L 45.7589,1.8677 L 44.8251,1.8677 Z" stroke-width="1px" stroke="#55B4E6" fill="#55B4E6"/>
          <path clip-path="url(#clip-168002245)" d="M 45.7589,1.8677 L 45.7589,13.0740 L 46.6928,13.0740 L 46.6928,1.8677 L 45.7589,1.8677 Z" stroke-width="1px" stroke="#57B5E6" fill="#57B5E6"/>
          <path clip-path="url(#clip-168002245)" d="M 46.6928,1.8677 L 46.6928,13.0740 L 47.6266,13.0740 L 47.6266,1.8677 L 46.6928,1.8677 Z" stroke-width="1px" stroke="#59B7E7" fill="#59B7E7"/>
          <path clip-path="url(#clip-168002245)" d="M 47.6266,1.8677 L 47.6266,13.0740 L 48.5605,13.0740 L 48.5605,1.8677 L 47.6266,1.8677 Z" stroke-width="1px" stroke="#5BB8E8" fill="#5BB8E8"/>
          <path clip-path="url(#clip-168002245)" d="M 48.5605,1.8677 L 48.5605,13.0740 L 49.4943,13.0740 L 49.4943,1.8677 L 48.5605,1.8677 Z" stroke-width="1px" stroke="#5DB9E9" fill="#5DB9E9"/>
          <path clip-path="url(#clip-168002245)" d="M 49.4943,1.8677 L 49.4943,13.0740 L 50.4282,13.0740 L 50.4282,1.8677 L 49.4943,1.8677 Z" stroke-width="1px" stroke="#5FBBEA" fill="#5FBBEA"/>
          <path clip-path="url(#clip-168002245)" d="M 50.4282,1.8677 L 50.4282,13.0740 L 51.3621,13.0740 L 51.3621,1.8677 L 50.4282,1.8677 Z" stroke-width="1px" stroke="#61BCEB" fill="#61BCEB"/>
          <path clip-path="url(#clip-168002245)" d="M 51.3621,1.8677 L 51.3621,13.0740 L 52.2959,13.0740 L 52.2959,1.8677 L 51.3621,1.8677 Z" stroke-width="1px" stroke="#63BEEC" fill="#63BEEC"/>
        </g>
        <g transform="matrix(0.0625 0.0000 0.0000 0.0625 0.0000 0.0000)">
          <path d="M 843.2716,211.9852 L 84.9809,211.9852 L 84.9809,40.1558 L 843.2716,40.1558 L 843.2716,211.9852 " stroke="#0054A6" stroke-width="11.2063" stroke-linecap="round" stroke-linejoin="round" fill="none"/>
        </g>
        <g transform="matrix(1.0000 0.0000 0.0000 1.0000 0.0000 0.0000)">
</g>
        <g transform="matrix(0.0625 0.0000 0.0000 0.0625 0.0000 0.0000)">
          <path d="M 113.9304,68.1715 C 113.9304,68.1715 114.8642,68.1715 114.8642,68.1715 C 128.8721,68.1715 131.6736,81.2454 131.6736,91.5178 L 131.6736,196.1097 L 142.8799,196.1097 L 142.8799,56.0313 L 131.6736,56.0313 L 113.9304,56.0313 L 113.9304,68.1715 Z M 785.3725,68.1715 C 785.3725,68.1715 785.3725,68.1715 785.3725,68.1715 C 800.3142,68.1715 802.1819,81.2454 802.1819,91.5178 L 802.1819,196.1097 L 814.3220,196.1097 L 814.3220,56.0313 L 802.1819,56.0313 L 785.3725,56.0313 L 785.3725,68.1715 Z M 718.1349,68.1715 C 718.1349,68.1715 718.1349,68.1715 718.1349,68.1715 C 733.0766,68.1715 734.9443,81.2454 734.9443,91.5178 L 734.9443,196.1097 L 747.0844,196.1097 L 747.0844,56.0313 L 735.8782,56.0313 L 718.1349,56.0313 L 718.1349,68.1715 Z M 650.8973,68.1715 C 650.8973,68.1715 650.8973,68.1715 650.8973,68.1715 C 665.8390,68.1715 667.7067,81.2454 668.6406,91.5178 L 668.6406,196.1097 L 679.8468,196.1097 L 679.8468,56.0313 L 668.6406,56.0313 L 650.8973,56.0313 L 650.8973,68.1715 Z M 583.6597,68.1715 C 583.6597,68.1715 583.6597,68.1715 584.5936,68.1715 C 598.6014,68.1715 601.4030,81.2454 601.4030,91.5178 L 601.4030,196.1097 L 612.6092,196.1097 L 612.6092,56.0313 L 601.4030,56.0313 L 583.6597,56.0313 L 583.6597,68.1715 Z M 516.4221,68.1715 C 516.4221,68.1715 517.3560,68.1715 517.3560,68.1715 C 531.3638,68.1715 534.1654,81.2454 534.1654,91.5178 L 534.1654,196.1097 L 545.3716,196.1097 L 545.3716,56.0313 L 534.1654,56.0313 L 516.4221,56.0313 L 516.4221,68.1715 Z M 449.1845,68.1715 C 450.1184,68.1715 450.1184,68.1715 450.1184,68.1715 C 465.0601,68.1715 466.9278,81.2454 466.9278,91.5178 L 466.9278,196.1097 L 478.1340,196.1097 L 478.1340,56.0313 L 466.9278,56.0313 L 449.1845,56.0313 L 449.1845,68.1715 Z M 382.8808,68.1715 C 382.8808,68.1715 382.8808,68.1715 382.8808,68.1715 C 397.8225,68.1715 399.6902,81.2454 399.6902,91.5178 L 399.6902,196.1097 L 411.8303,196.1097 L 411.8303,56.0313 L 400.6240,56.0313 L 382.8808,56.0313 L 382.8808,68.1715 Z M 315.6432,68.1715 C 315.6432,68.1715 315.6432,68.1715 315.6432,68.1715 C 330.5849,68.1715 332.4526,81.2454 332.4526,91.5178 L 332.4526,196.1097 L 344.5927,196.1097 L 344.5927,56.0313 L 333.3864,56.0313 L 315.6432,56.0313 L 315.6432,68.1715 Z M 248.4056,68.1715 C 248.4056,68.1715 248.4056,68.1715 248.4056,68.1715 C 263.3473,68.1715 265.2150,81.2454 266.1488,91.5178 L 266.1488,196.1097 L 277.3551,196.1097 L 277.3551,56.0313 L 266.1488,56.0313 L 248.4056,56.0313 L 248.4056,68.1715 Z M 181.1680,68.1715 C 181.1680,68.1715 181.1680,68.1715 182.1018,68.1715 C 196.1097,68.1715 198.9112,81.2454 198.9112,91.5178 L 198.9112,196.1097 L 210.1175,196.1097 L 210.1175,56.0313 L 198.9112,56.0313 L 181.1680,56.0313 L 181.1680,68.1715 Z " fill="#0054A6" stroke="none"/>
        </g>
        <g transform="matrix(1.0000 0.0000 0.0000 1.0000 0.0000 0.0000)">
          <path d="M 1.8677,2.8016 L 1.8677,13.0740 L 4.6693,14.9417 L 4.6693,1.8677 L 1.8677,2.8016 " fill="none" stroke="none"/>
          <defs>
            <clipPath id="clip-150122846">
              <path d="M 1.8677,2.8016 L 1.8677,13.0740 L 4.6693,14.9417 L 4.6693,1.8677 L 1.8677,2.8016 Z"/>
            </clipPath>
          </defs>
          <path clip-path="url(#clip-150122846)" d="M 0.9339,0.9339 L 0.9339,1.8677 L 3.7354,1.8677 L 3.7354,0.9339 L 0.9339,0.9339 Z" stroke-width="1px" stroke="#55BBEA" fill="#55BBEA"/>
          <path clip-path="url(#clip-150122846)" d="M 0.9339,1.8677 L 0.9339,2.8016 L 3.7354,2.8016 L 3.7354,1.8677 L 0.9339,1.8677 Z" stroke-width="1px" stroke="#057BC3" fill="#057BC3"/>
          <path clip-path="url(#clip-150122846)" d="M 0.9339,2.8016 L 0.9339,3.7354 L 3.7354,3.7354 L 3.7354,2.8016 L 0.9339,2.8016 Z" stroke-width="1px" stroke="#0B80C5" fill="#0B80C5"/>
          <path clip-path="url(#clip-150122846)" d="M 0.9339,3.7354 L 0.9339,4.6693 L 3.7354,4.6693 L 3.7354,3.7354 L 0.9339,3.7354 Z" stroke-width="1px" stroke="#1185C8" fill="#1185C8"/>
          <path clip-path="url(#clip-150122846)" d="M 0.9339,4.6693 L 0.9339,5.6031 L 3.7354,5.6031 L 3.7354,4.6693 L 0.9339,4.6693 Z" stroke-width="1px" stroke="#1789CB" fill="#1789CB"/>
          <path clip-path="url(#clip-150122846)" d="M 0.9339,5.6031 L 0.9339,6.5370 L 3.7354,6.5370 L 3.7354,5.6031 L 0.9339,5.6031 Z" stroke-width="1px" stroke="#1D8ECE" fill="#1D8ECE"/>
          <path clip-path="url(#clip-150122846)" d="M 0.9339,6.5370 L 0.9339,7.4708 L 3.7354,7.4708 L 3.7354,6.5370 L 0.9339,6.5370 Z" stroke-width="1px" stroke="#2393D1" fill="#2393D1"/>
          <path clip-path="url(#clip-150122846)" d="M 0.9339,7.4708 L 0.9339,8.4047 L 3.7354,8.4047 L 3.7354,7.4708 L 0.9339,7.4708 Z" stroke-width="1px" stroke="#2998D5" fill="#2998D5"/>
          <path clip-path="url(#clip-150122846)" d="M 0.9339,8.4047 L 0.9339,9.3386 L 3.7354,9.3386 L 3.7354,8.4047 L 0.9339,8.4047 Z" stroke-width="1px" stroke="#2E9DD7" fill="#2E9DD7"/>
          <path clip-path="url(#clip-150122846)" d="M 0.9339,9.3386 L 0.9339,10.2724 L 3.7354,10.2724 L 3.7354,9.3386 L 0.9339,9.3386 Z" stroke-width="1px" stroke="#34A1DA" fill="#34A1DA"/>
          <path clip-path="url(#clip-150122846)" d="M 0.9339,10.2724 L 0.9339,11.2063 L 3.7354,11.2063 L 3.7354,10.2724 L 0.9339,10.2724 Z" stroke-width="1px" stroke="#3AA5DE" fill="#3AA5DE"/>
          <path clip-path="url(#clip-150122846)" d="M 0.9339,11.2063 L 0.9339,12.1401 L 3.7354,12.1401 L 3.7354,11.2063 L 0.9339,11.2063 Z" stroke-width="1px" stroke="#41ABE0" fill="#41ABE0"/>
          <path clip-path="url(#clip-150122846)" d="M 0.9339,12.1401 L 0.9339,13.0740 L 3.7354,13.0740 L 3.7354,12.1401 L 0.9339,12.1401 Z" stroke-width="1px" stroke="#46AFE3" fill="#46AFE3"/>
          <path clip-path="url(#clip-150122846)" d="M 0.9339,13.0740 L 0.9339,14.0078 L 3.7354,14.0078 L 3.7354,13.0740 L 0.9339,13.0740 Z" stroke-width="1px" stroke="#4CB4E6" fill="#4CB4E6"/>
          <path clip-path="url(#clip-150122846)" d="M 0.9339,14.0078 L 0.9339,14.9417 L 3.7354,14.9417 L 3.7354,14.0078 L 0.9339,14.0078 Z" stroke-width="1px" stroke="#52B9E9" fill="#52B9E9"/>
        </g>
        <g transform="matrix(0.0625 0.0000 0.0000 0.0625 0.0000 0.0000)">
          <path d="M 17.7433,42.9574 L 17.7433,209.1836 L 61.6345,234.3977 L 61.6345,17.7433 L 17.7433,42.9574 " stroke="#0054A6" stroke-width="9.3386" stroke-linecap="round" stroke-linejoin="round" fill="none"/>
        </g>
        <g transform="matrix(1.0000 0.0000 0.0000 1.0000 0.0000 0.0000)">
</g>
      </g>
      <!--emf-blob end-->
    </g>
  </g>
</svg>
