<svg xmlns="http://www.w3.org/2000/svg" xmlns:xlink="http://www.w3.org/1999/xlink" version="1.1" width="41.1024000000" height="28.3465000000">
  <title><![CDATA[Flash Drive]]></title>
  <g transform=" scale(1.000000) ">
    <!--converted by libvisio2svg-->
    <g transform=" translate(-1.045200,-1.040700) ">
      <!--emf-blob start-->
      <g transform="translate(0.9644, 0.9644)">
        <path d="M 4.8220,28.9323 C 4.8220,28.9323 3.8576,27.9679 3.8576,27.9679 L 3.8576,1.9288 C 3.8576,1.9288 4.8220,1.9288 4.8220,1.9288 L 4.8220,1.9288 L 1.9288,2.8932 C 1.9288,3.8576 1.9288,3.8576 1.9288,3.8576 L 1.9288,3.8576 L 1.9288,27.0034 C 1.9288,27.0034 1.9288,27.0034 1.9288,27.0034 L 1.9288,27.0034 L 4.8220,28.9323 Z " fill="none" stroke="none"/>
        <defs>
          <clipPath id="clip-1760281936">
            <path d="M 4.8220,28.9323 C 4.8220,28.9323 3.8576,27.9679 3.8576,27.9679 L 3.8576,1.9288 C 3.8576,1.9288 4.8220,1.9288 4.8220,1.9288 L 4.8220,1.9288 L 1.9288,2.8932 C 1.9288,3.8576 1.9288,3.8576 1.9288,3.8576 L 1.9288,3.8576 L 1.9288,27.0034 C 1.9288,27.0034 1.9288,27.0034 1.9288,27.0034 L 1.9288,27.0034 L 4.8220,28.9323 Z"/>
          </clipPath>
        </defs>
        <path clip-path="url(#clip-1760281936)" d="M 0.9644,0.9644 L 0.9644,1.9288 L 4.8220,1.9288 L 4.8220,0.9644 L 0.9644,0.9644 Z" stroke-width="1px" stroke="#7F7F7F" fill="#7F7F7F"/>
        <path clip-path="url(#clip-1760281936)" d="M 0.9644,1.9288 L 0.9644,2.8932 L 4.8220,2.8932 L 4.8220,1.9288 L 0.9644,1.9288 Z" stroke-width="1px" stroke="#424242" fill="#424242"/>
        <path clip-path="url(#clip-1760281936)" d="M 0.9644,2.8932 L 0.9644,3.8576 L 4.8220,3.8576 L 4.8220,2.8932 L 0.9644,2.8932 Z" stroke-width="1px" stroke="#444444" fill="#444444"/>
        <path clip-path="url(#clip-1760281936)" d="M 0.9644,3.8576 L 0.9644,4.8220 L 4.8220,4.8220 L 4.8220,3.8576 L 0.9644,3.8576 Z" stroke-width="1px" stroke="#464646" fill="#464646"/>
        <path clip-path="url(#clip-1760281936)" d="M 0.9644,4.8220 L 0.9644,5.7865 L 4.8220,5.7865 L 4.8220,4.8220 L 0.9644,4.8220 Z" stroke-width="1px" stroke="#494949" fill="#494949"/>
        <path clip-path="url(#clip-1760281936)" d="M 0.9644,5.7865 L 0.9644,6.7509 L 4.8220,6.7509 L 4.8220,5.7865 L 0.9644,5.7865 Z" stroke-width="1px" stroke="#4B4B4B" fill="#4B4B4B"/>
        <path clip-path="url(#clip-1760281936)" d="M 0.9644,6.7509 L 0.9644,7.7153 L 4.8220,7.7153 L 4.8220,6.7509 L 0.9644,6.7509 Z" stroke-width="1px" stroke="#4D4D4D" fill="#4D4D4D"/>
        <path clip-path="url(#clip-1760281936)" d="M 0.9644,7.7153 L 0.9644,8.6797 L 4.8220,8.6797 L 4.8220,7.7153 L 0.9644,7.7153 Z" stroke-width="1px" stroke="#4F4F4F" fill="#4F4F4F"/>
        <path clip-path="url(#clip-1760281936)" d="M 0.9644,8.6797 L 0.9644,9.6441 L 4.8220,9.6441 L 4.8220,8.6797 L 0.9644,8.6797 Z" stroke-width="1px" stroke="#525252" fill="#525252"/>
        <path clip-path="url(#clip-1760281936)" d="M 0.9644,9.6441 L 0.9644,10.6085 L 4.8220,10.6085 L 4.8220,9.6441 L 0.9644,9.6441 Z" stroke-width="1px" stroke="#545454" fill="#545454"/>
        <path clip-path="url(#clip-1760281936)" d="M 0.9644,10.6085 L 0.9644,11.5729 L 4.8220,11.5729 L 4.8220,10.6085 L 0.9644,10.6085 Z" stroke-width="1px" stroke="#565656" fill="#565656"/>
        <path clip-path="url(#clip-1760281936)" d="M 0.9644,11.5729 L 0.9644,12.5373 L 4.8220,12.5373 L 4.8220,11.5729 L 0.9644,11.5729 Z" stroke-width="1px" stroke="#585858" fill="#585858"/>
        <path clip-path="url(#clip-1760281936)" d="M 0.9644,12.5373 L 0.9644,13.5017 L 4.8220,13.5017 L 4.8220,12.5373 L 0.9644,12.5373 Z" stroke-width="1px" stroke="#5B5B5B" fill="#5B5B5B"/>
        <path clip-path="url(#clip-1760281936)" d="M 0.9644,13.5017 L 0.9644,14.4661 L 4.8220,14.4661 L 4.8220,13.5017 L 0.9644,13.5017 Z" stroke-width="1px" stroke="#5D5D5D" fill="#5D5D5D"/>
        <path clip-path="url(#clip-1760281936)" d="M 0.9644,14.4661 L 0.9644,15.4305 L 4.8220,15.4305 L 4.8220,14.4661 L 0.9644,14.4661 Z" stroke-width="1px" stroke="#5F5F5F" fill="#5F5F5F"/>
        <path clip-path="url(#clip-1760281936)" d="M 0.9644,15.4305 L 0.9644,16.3950 L 4.8220,16.3950 L 4.8220,15.4305 L 0.9644,15.4305 Z" stroke-width="1px" stroke="#626262" fill="#626262"/>
        <path clip-path="url(#clip-1760281936)" d="M 0.9644,16.3950 L 0.9644,17.3594 L 4.8220,17.3594 L 4.8220,16.3950 L 0.9644,16.3950 Z" stroke-width="1px" stroke="#646464" fill="#646464"/>
        <path clip-path="url(#clip-1760281936)" d="M 0.9644,17.3594 L 0.9644,18.3238 L 4.8220,18.3238 L 4.8220,17.3594 L 0.9644,17.3594 Z" stroke-width="1px" stroke="#666666" fill="#666666"/>
        <path clip-path="url(#clip-1760281936)" d="M 0.9644,18.3238 L 0.9644,19.2882 L 4.8220,19.2882 L 4.8220,18.3238 L 0.9644,18.3238 Z" stroke-width="1px" stroke="#686868" fill="#686868"/>
        <path clip-path="url(#clip-1760281936)" d="M 0.9644,19.2882 L 0.9644,20.2526 L 4.8220,20.2526 L 4.8220,19.2882 L 0.9644,19.2882 Z" stroke-width="1px" stroke="#6B6B6B" fill="#6B6B6B"/>
        <path clip-path="url(#clip-1760281936)" d="M 0.9644,20.2526 L 0.9644,21.2170 L 4.8220,21.2170 L 4.8220,20.2526 L 0.9644,20.2526 Z" stroke-width="1px" stroke="#6D6D6D" fill="#6D6D6D"/>
        <path clip-path="url(#clip-1760281936)" d="M 0.9644,21.2170 L 0.9644,22.1814 L 4.8220,22.1814 L 4.8220,21.2170 L 0.9644,21.2170 Z" stroke-width="1px" stroke="#6F6F6F" fill="#6F6F6F"/>
        <path clip-path="url(#clip-1760281936)" d="M 0.9644,22.1814 L 0.9644,23.1458 L 4.8220,23.1458 L 4.8220,22.1814 L 0.9644,22.1814 Z" stroke-width="1px" stroke="#717171" fill="#717171"/>
        <path clip-path="url(#clip-1760281936)" d="M 0.9644,23.1458 L 0.9644,24.1102 L 4.8220,24.1102 L 4.8220,23.1458 L 0.9644,23.1458 Z" stroke-width="1px" stroke="#747474" fill="#747474"/>
        <path clip-path="url(#clip-1760281936)" d="M 0.9644,24.1102 L 0.9644,25.0746 L 4.8220,25.0746 L 4.8220,24.1102 L 0.9644,24.1102 Z" stroke-width="1px" stroke="#767676" fill="#767676"/>
        <path clip-path="url(#clip-1760281936)" d="M 0.9644,25.0746 L 0.9644,26.0390 L 4.8220,26.0390 L 4.8220,25.0746 L 0.9644,25.0746 Z" stroke-width="1px" stroke="#787878" fill="#787878"/>
        <path clip-path="url(#clip-1760281936)" d="M 0.9644,26.0390 L 0.9644,27.0034 L 4.8220,27.0034 L 4.8220,26.0390 L 0.9644,26.0390 Z" stroke-width="1px" stroke="#7B7B7B" fill="#7B7B7B"/>
        <path clip-path="url(#clip-1760281936)" d="M 0.9644,27.0034 L 0.9644,27.9679 L 4.8220,27.9679 L 4.8220,27.0034 L 0.9644,27.0034 Z" stroke-width="1px" stroke="#7D7D7D" fill="#7D7D7D"/>
        <path clip-path="url(#clip-1760281936)" d="M 0.9644,27.9679 L 0.9644,28.9323 L 4.8220,28.9323 L 4.8220,27.9679 L 0.9644,27.9679 Z" stroke-width="1px" stroke="#7F7F7F" fill="#7F7F7F"/>
        <g transform="matrix(0.0625 0.0000 0.0000 0.0625 0.0000 0.0000)">
          <path d="M 69.4374,454.2366 C 64.6154,452.3078 61.7222,447.4857 61.7222,442.6637 L 61.7222,30.8611 C 61.7222,27.0034 64.6154,22.1814 68.4730,20.2526 L 68.4730,20.2526 L 25.0746,45.3272 C 21.2170,47.2560 18.3238,52.0781 18.3238,56.9001 L 18.3238,56.9001 L 18.3238,420.4823 C 18.3238,425.3043 21.2170,430.1264 25.0746,432.0552 L 25.0746,432.0552 L 69.4374,454.2366 " stroke="#0054A6" stroke-width="9.6441" stroke-linecap="round" stroke-linejoin="round" fill="none"/>
        </g>
        <g transform="matrix(1.0000 0.0000 0.0000 1.0000 0.0000 0.0000)">
          <path d="M 40.5052,1.9288 L 4.8220,1.9288 C 4.8220,1.9288 4.8220,1.9288 4.8220,1.9288 C 4.8220,1.9288 3.8576,1.9288 3.8576,1.9288 L 3.8576,1.9288 L 3.8576,27.9679 C 3.8576,27.9679 4.8220,28.9323 4.8220,28.9323 C 4.8220,28.9323 4.8220,28.9323 4.8220,28.9323 L 4.8220,28.9323 L 40.5052,28.9323 C 40.5052,28.9323 41.4696,28.9323 41.4696,27.9679 C 41.4696,27.9679 41.4696,27.9679 41.4696,27.9679 L 41.4696,27.9679 L 41.4696,1.9288 C 41.4696,1.9288 41.4696,1.9288 41.4696,1.9288 C 41.4696,1.9288 40.5052,1.9288 40.5052,1.9288 Z " fill="none" stroke="none"/>
          <defs>
            <clipPath id="clip-771151432">
              <path d="M 40.5052,1.9288 L 4.8220,1.9288 C 4.8220,1.9288 4.8220,1.9288 4.8220,1.9288 C 4.8220,1.9288 3.8576,1.9288 3.8576,1.9288 L 3.8576,1.9288 L 3.8576,27.9679 C 3.8576,27.9679 4.8220,28.9323 4.8220,28.9323 C 4.8220,28.9323 4.8220,28.9323 4.8220,28.9323 L 4.8220,28.9323 L 40.5052,28.9323 C 40.5052,28.9323 41.4696,28.9323 41.4696,27.9679 C 41.4696,27.9679 41.4696,27.9679 41.4696,27.9679 L 41.4696,27.9679 L 41.4696,1.9288 C 41.4696,1.9288 41.4696,1.9288 41.4696,1.9288 C 41.4696,1.9288 40.5052,1.9288 40.5052,1.9288 Z"/>
            </clipPath>
          </defs>
          <path clip-path="url(#clip-771151432)" d="M 3.8576,0.9644 L 3.8576,1.9288 L 41.4696,1.9288 L 41.4696,0.9644 L 3.8576,0.9644 Z" stroke-width="1px" stroke="#E5E5E5" fill="#E5E5E5"/>
          <path clip-path="url(#clip-771151432)" d="M 3.8576,1.9288 L 3.8576,2.8932 L 41.4696,2.8932 L 41.4696,1.9288 L 3.8576,1.9288 Z" stroke-width="1px" stroke="#6A6A6A" fill="#6A6A6A"/>
          <path clip-path="url(#clip-771151432)" d="M 3.8576,2.8932 L 3.8576,3.8576 L 41.4696,3.8576 L 41.4696,2.8932 L 3.8576,2.8932 Z" stroke-width="1px" stroke="#6E6E6E" fill="#6E6E6E"/>
          <path clip-path="url(#clip-771151432)" d="M 3.8576,3.8576 L 3.8576,4.8220 L 41.4696,4.8220 L 41.4696,3.8576 L 3.8576,3.8576 Z" stroke-width="1px" stroke="#737373" fill="#737373"/>
          <path clip-path="url(#clip-771151432)" d="M 3.8576,4.8220 L 3.8576,5.7865 L 41.4696,5.7865 L 41.4696,4.8220 L 3.8576,4.8220 Z" stroke-width="1px" stroke="#777777" fill="#777777"/>
          <path clip-path="url(#clip-771151432)" d="M 3.8576,5.7865 L 3.8576,6.7509 L 41.4696,6.7509 L 41.4696,5.7865 L 3.8576,5.7865 Z" stroke-width="1px" stroke="#7C7C7C" fill="#7C7C7C"/>
          <path clip-path="url(#clip-771151432)" d="M 3.8576,6.7509 L 3.8576,7.7153 L 41.4696,7.7153 L 41.4696,6.7509 L 3.8576,6.7509 Z" stroke-width="1px" stroke="#808080" fill="#808080"/>
          <path clip-path="url(#clip-771151432)" d="M 3.8576,7.7153 L 3.8576,8.6797 L 41.4696,8.6797 L 41.4696,7.7153 L 3.8576,7.7153 Z" stroke-width="1px" stroke="#858585" fill="#858585"/>
          <path clip-path="url(#clip-771151432)" d="M 3.8576,8.6797 L 3.8576,9.6441 L 41.4696,9.6441 L 41.4696,8.6797 L 3.8576,8.6797 Z" stroke-width="1px" stroke="#898989" fill="#898989"/>
          <path clip-path="url(#clip-771151432)" d="M 3.8576,9.6441 L 3.8576,10.6085 L 41.4696,10.6085 L 41.4696,9.6441 L 3.8576,9.6441 Z" stroke-width="1px" stroke="#8E8E8E" fill="#8E8E8E"/>
          <path clip-path="url(#clip-771151432)" d="M 3.8576,10.6085 L 3.8576,11.5729 L 41.4696,11.5729 L 41.4696,10.6085 L 3.8576,10.6085 Z" stroke-width="1px" stroke="#929292" fill="#929292"/>
          <path clip-path="url(#clip-771151432)" d="M 3.8576,11.5729 L 3.8576,12.5373 L 41.4696,12.5373 L 41.4696,11.5729 L 3.8576,11.5729 Z" stroke-width="1px" stroke="#979797" fill="#979797"/>
          <path clip-path="url(#clip-771151432)" d="M 3.8576,12.5373 L 3.8576,13.5017 L 41.4696,13.5017 L 41.4696,12.5373 L 3.8576,12.5373 Z" stroke-width="1px" stroke="#9B9B9B" fill="#9B9B9B"/>
          <path clip-path="url(#clip-771151432)" d="M 3.8576,13.5017 L 3.8576,14.4661 L 41.4696,14.4661 L 41.4696,13.5017 L 3.8576,13.5017 Z" stroke-width="1px" stroke="#A0A0A0" fill="#A0A0A0"/>
          <path clip-path="url(#clip-771151432)" d="M 3.8576,14.4661 L 3.8576,15.4305 L 41.4696,15.4305 L 41.4696,14.4661 L 3.8576,14.4661 Z" stroke-width="1px" stroke="#A4A4A4" fill="#A4A4A4"/>
          <path clip-path="url(#clip-771151432)" d="M 3.8576,15.4305 L 3.8576,16.3950 L 41.4696,16.3950 L 41.4696,15.4305 L 3.8576,15.4305 Z" stroke-width="1px" stroke="#A9A9A9" fill="#A9A9A9"/>
          <path clip-path="url(#clip-771151432)" d="M 3.8576,16.3950 L 3.8576,17.3594 L 41.4696,17.3594 L 41.4696,16.3950 L 3.8576,16.3950 Z" stroke-width="1px" stroke="#AEAEAE" fill="#AEAEAE"/>
          <path clip-path="url(#clip-771151432)" d="M 3.8576,17.3594 L 3.8576,18.3238 L 41.4696,18.3238 L 41.4696,17.3594 L 3.8576,17.3594 Z" stroke-width="1px" stroke="#B2B2B2" fill="#B2B2B2"/>
          <path clip-path="url(#clip-771151432)" d="M 3.8576,18.3238 L 3.8576,19.2882 L 41.4696,19.2882 L 41.4696,18.3238 L 3.8576,18.3238 Z" stroke-width="1px" stroke="#B7B7B7" fill="#B7B7B7"/>
          <path clip-path="url(#clip-771151432)" d="M 3.8576,19.2882 L 3.8576,20.2526 L 41.4696,20.2526 L 41.4696,19.2882 L 3.8576,19.2882 Z" stroke-width="1px" stroke="#BBBBBB" fill="#BBBBBB"/>
          <path clip-path="url(#clip-771151432)" d="M 3.8576,20.2526 L 3.8576,21.2170 L 41.4696,21.2170 L 41.4696,20.2526 L 3.8576,20.2526 Z" stroke-width="1px" stroke="#C0C0C0" fill="#C0C0C0"/>
          <path clip-path="url(#clip-771151432)" d="M 3.8576,21.2170 L 3.8576,22.1814 L 41.4696,22.1814 L 41.4696,21.2170 L 3.8576,21.2170 Z" stroke-width="1px" stroke="#C4C4C4" fill="#C4C4C4"/>
          <path clip-path="url(#clip-771151432)" d="M 3.8576,22.1814 L 3.8576,23.1458 L 41.4696,23.1458 L 41.4696,22.1814 L 3.8576,22.1814 Z" stroke-width="1px" stroke="#C9C9C9" fill="#C9C9C9"/>
          <path clip-path="url(#clip-771151432)" d="M 3.8576,23.1458 L 3.8576,24.1102 L 41.4696,24.1102 L 41.4696,23.1458 L 3.8576,23.1458 Z" stroke-width="1px" stroke="#CDCDCD" fill="#CDCDCD"/>
          <path clip-path="url(#clip-771151432)" d="M 3.8576,24.1102 L 3.8576,25.0746 L 41.4696,25.0746 L 41.4696,24.1102 L 3.8576,24.1102 Z" stroke-width="1px" stroke="#D2D2D2" fill="#D2D2D2"/>
          <path clip-path="url(#clip-771151432)" d="M 3.8576,25.0746 L 3.8576,26.0390 L 41.4696,26.0390 L 41.4696,25.0746 L 3.8576,25.0746 Z" stroke-width="1px" stroke="#D6D6D6" fill="#D6D6D6"/>
          <path clip-path="url(#clip-771151432)" d="M 3.8576,26.0390 L 3.8576,27.0034 L 41.4696,27.0034 L 41.4696,26.0390 L 3.8576,26.0390 Z" stroke-width="1px" stroke="#DBDBDB" fill="#DBDBDB"/>
          <path clip-path="url(#clip-771151432)" d="M 3.8576,27.0034 L 3.8576,27.9679 L 41.4696,27.9679 L 41.4696,27.0034 L 3.8576,27.0034 Z" stroke-width="1px" stroke="#DFDFDF" fill="#DFDFDF"/>
          <path clip-path="url(#clip-771151432)" d="M 3.8576,27.9679 L 3.8576,28.9323 L 41.4696,28.9323 L 41.4696,27.9679 L 3.8576,27.9679 Z" stroke-width="1px" stroke="#E4E4E4" fill="#E4E4E4"/>
        </g>
        <g transform="matrix(0.0625 0.0000 0.0000 0.0625 0.0000 0.0000)">
          <path d="M 639.4031,18.3238 L 75.2239,18.3238 C 73.2951,18.3238 70.4018,19.2882 68.4730,20.2526 C 64.6154,22.1814 61.7222,27.0034 61.7222,31.8255 L 61.7222,31.8255 L 61.7222,442.6637 C 61.7222,447.4857 64.6154,452.3078 69.4374,454.2366 C 71.3663,455.2010 73.2951,456.1654 75.2239,456.1654 L 75.2239,456.1654 L 639.4031,456.1654 C 647.1184,456.1654 652.9048,450.3790 652.9048,442.6637 C 652.9048,442.6637 652.9048,442.6637 652.9048,442.6637 L 652.9048,442.6637 L 652.9048,31.8255 C 652.9048,30.8611 652.9048,30.8611 652.9048,29.8967 C 651.9404,23.1458 646.1540,18.3238 639.4031,18.3238 " stroke="#0054A6" stroke-width="9.6441" stroke-linecap="round" stroke-linejoin="round" fill="none"/>
        </g>
        <g transform="matrix(1.0000 0.0000 0.0000 1.0000 0.0000 0.0000)">
</g>
        <g transform="matrix(0.0625 0.0000 0.0000 0.0625 0.0000 0.0000)">
          <path d="M 33.7543,85.8324 L 33.7543,231.4581 C 33.7543,236.2802 37.6119,240.1378 42.4340,240.1378 C 46.2916,240.1378 50.1493,236.2802 50.1493,231.4581 L 50.1493,85.8324 C 50.1493,81.9748 46.2916,78.1171 42.4340,78.1171 C 37.6119,78.1171 33.7543,81.9748 33.7543,85.8324 Z " fill="#414042" stroke="none"/>
        </g>
        <g transform="matrix(1.0000 0.0000 0.0000 1.0000 0.0000 0.0000)">
</g>
        <g transform="matrix(0.0625 0.0000 0.0000 0.0625 0.0000 0.0000)">
          <path d="M 33.7543,270.9989 L 33.7543,354.9025 C 33.7543,356.8313 37.6119,359.7245 42.4340,359.7245 C 46.2916,359.7245 50.1493,356.8313 50.1493,354.9025 L 50.1493,270.9989 C 50.1493,268.1057 46.2916,266.1769 42.4340,266.1769 C 37.6119,266.1769 33.7543,268.1057 33.7543,270.9989 Z " fill="#414042" stroke="none"/>
        </g>
        <g transform="matrix(1.0000 0.0000 0.0000 1.0000 0.0000 0.0000)">
</g>
        <g transform="matrix(0.0625 0.0000 0.0000 0.0625 0.0000 0.0000)">
          <path d="M 164.9139,198.6682 L 296.0735,104.1562 L 327.8990,175.5224 L 432.0552,100.2985 L 445.5569,128.2664 L 545.8554,58.8289 L 535.2469,36.6475 L 453.2722,94.5121 L 438.8060,65.5798 L 335.6143,140.8037 L 303.7888,69.4374 L 154.3054,177.4512 L 164.9139,198.6682 Z" stroke-width="1px" stroke="#2B4381" fill="#2B4381"/>
        </g>
        <g transform="matrix(1.0000 0.0000 0.0000 1.0000 0.0000 0.0000)">
          <text font-family="Arial" fill="#595959" style="white-space:pre;" font-weight="700" text-anchor="start" x="9.6441" y="27.0034" font-size="11.5729"><![CDATA[SSD]]></text>
        </g>
        <g transform="matrix(0.0625 0.0000 0.0000 0.0625 0.0000 0.0000)">
          <path d="M 179.3801,268.1057 L 208.3123,268.1057 L 208.3123,193.8462 L 179.3801,214.0988 L 179.3801,268.1057 Z M 225.6717,268.1057 L 253.6395,268.1057 L 253.6395,160.0919 L 225.6717,180.3445 L 225.6717,268.1057 Z M 271.9633,147.5546 L 271.9633,268.1057 L 299.9312,268.1057 L 299.9312,154.3054 L 290.2871,134.0528 L 271.9633,147.5546 Z M 317.2905,191.9174 L 317.2905,268.1057 L 345.2584,268.1057 L 345.2584,189.0241 L 323.0770,205.4191 L 317.2905,191.9174 Z M 359.7245,268.1057 L 387.6924,268.1057 L 387.6924,158.1631 L 359.7245,178.4156 L 359.7245,268.1057 Z M 405.0517,145.6257 L 405.0517,268.1057 L 433.0196,268.1057 L 433.0196,142.7325 L 426.2687,129.2308 L 405.0517,145.6257 Z M 450.3790,151.4122 L 450.3790,268.1057 L 478.3468,268.1057 L 478.3468,132.1240 L 450.3790,151.4122 Z M 494.7418,119.5867 L 494.7418,268.1057 L 523.6740,268.1057 L 523.6740,100.2985 L 494.7418,119.5867 Z " fill="#FFFFFF" stroke-width="1px" stroke="#FFFFFF"/>
        </g>
        <g transform="matrix(1.0000 0.0000 0.0000 1.0000 0.0000 0.0000)">
</g>
      </g>
      <!--emf-blob end-->
    </g>
  </g>
</svg>
