<svg xmlns="http://www.w3.org/2000/svg" xmlns:xlink="http://www.w3.org/1999/xlink" version="1.1" width="37.0882000000" height="28.1829000000">
  <title><![CDATA[Flash Chip]]></title>
  <g transform=" scale(1.000000) ">
    <!--converted by libvisio2svg-->
    <g transform=" translate(-0.984300,-0.986600) ">
      <!--emf-blob start-->
      <g transform="translate(-0.0000, -0.0000)">
        <path d="M 6.8745,25.5338 C 6.8745,25.5338 6.8745,25.5338 6.8745,25.5338 L 6.8745,5.8924 C 6.8745,5.8924 6.8745,4.9103 6.8745,4.9103 L 6.8745,4.9103 L 4.9103,6.8745 C 4.9103,6.8745 4.9103,6.8745 4.9103,6.8745 L 4.9103,6.8745 L 4.9103,24.5517 C 4.9103,24.5517 4.9103,24.5517 4.9103,24.5517 L 6.8745,25.5338 Z " fill="none" stroke="none"/>
        <defs>
          <clipPath id="clip-1186452551">
            <path d="M 6.8745,25.5338 C 6.8745,25.5338 6.8745,25.5338 6.8745,25.5338 L 6.8745,5.8924 C 6.8745,5.8924 6.8745,4.9103 6.8745,4.9103 L 6.8745,4.9103 L 4.9103,6.8745 C 4.9103,6.8745 4.9103,6.8745 4.9103,6.8745 L 4.9103,6.8745 L 4.9103,24.5517 C 4.9103,24.5517 4.9103,24.5517 4.9103,24.5517 L 6.8745,25.5338 Z"/>
          </clipPath>
        </defs>
        <path clip-path="url(#clip-1186452551)" d="M 3.9283,3.9283 L 3.9283,4.9103 L 6.8745,4.9103 L 6.8745,3.9283 L 3.9283,3.9283 Z" stroke-width="1px" stroke="#7D7D7D" fill="#7D7D7D"/>
        <path clip-path="url(#clip-1186452551)" d="M 3.9283,4.9103 L 3.9283,5.8924 L 6.8745,5.8924 L 6.8745,4.9103 L 3.9283,4.9103 Z" stroke-width="1px" stroke="#404040" fill="#404040"/>
        <path clip-path="url(#clip-1186452551)" d="M 3.9283,5.8924 L 3.9283,6.8745 L 6.8745,6.8745 L 6.8745,5.8924 L 3.9283,5.8924 Z" stroke-width="1px" stroke="#434343" fill="#434343"/>
        <path clip-path="url(#clip-1186452551)" d="M 3.9283,6.8745 L 3.9283,7.8565 L 6.8745,7.8565 L 6.8745,6.8745 L 3.9283,6.8745 Z" stroke-width="1px" stroke="#474747" fill="#474747"/>
        <path clip-path="url(#clip-1186452551)" d="M 3.9283,7.8565 L 3.9283,8.8386 L 6.8745,8.8386 L 6.8745,7.8565 L 3.9283,7.8565 Z" stroke-width="1px" stroke="#4A4A4A" fill="#4A4A4A"/>
        <path clip-path="url(#clip-1186452551)" d="M 3.9283,8.8386 L 3.9283,9.8207 L 6.8745,9.8207 L 6.8745,8.8386 L 3.9283,8.8386 Z" stroke-width="1px" stroke="#4D4D4D" fill="#4D4D4D"/>
        <path clip-path="url(#clip-1186452551)" d="M 3.9283,9.8207 L 3.9283,10.8027 L 6.8745,10.8027 L 6.8745,9.8207 L 3.9283,9.8207 Z" stroke-width="1px" stroke="#505050" fill="#505050"/>
        <path clip-path="url(#clip-1186452551)" d="M 3.9283,10.8027 L 3.9283,11.7848 L 6.8745,11.7848 L 6.8745,10.8027 L 3.9283,10.8027 Z" stroke-width="1px" stroke="#535353" fill="#535353"/>
        <path clip-path="url(#clip-1186452551)" d="M 3.9283,11.7848 L 3.9283,12.7669 L 6.8745,12.7669 L 6.8745,11.7848 L 3.9283,11.7848 Z" stroke-width="1px" stroke="#565656" fill="#565656"/>
        <path clip-path="url(#clip-1186452551)" d="M 3.9283,12.7669 L 3.9283,13.7489 L 6.8745,13.7489 L 6.8745,12.7669 L 3.9283,12.7669 Z" stroke-width="1px" stroke="#595959" fill="#595959"/>
        <path clip-path="url(#clip-1186452551)" d="M 3.9283,13.7489 L 3.9283,14.7310 L 6.8745,14.7310 L 6.8745,13.7489 L 3.9283,13.7489 Z" stroke-width="1px" stroke="#5C5C5C" fill="#5C5C5C"/>
        <path clip-path="url(#clip-1186452551)" d="M 3.9283,14.7310 L 3.9283,15.7131 L 6.8745,15.7131 L 6.8745,14.7310 L 3.9283,14.7310 Z" stroke-width="1px" stroke="#5F5F5F" fill="#5F5F5F"/>
        <path clip-path="url(#clip-1186452551)" d="M 3.9283,15.7131 L 3.9283,16.6952 L 6.8745,16.6952 L 6.8745,15.7131 L 3.9283,15.7131 Z" stroke-width="1px" stroke="#626262" fill="#626262"/>
        <path clip-path="url(#clip-1186452551)" d="M 3.9283,16.6952 L 3.9283,17.6772 L 6.8745,17.6772 L 6.8745,16.6952 L 3.9283,16.6952 Z" stroke-width="1px" stroke="#656565" fill="#656565"/>
        <path clip-path="url(#clip-1186452551)" d="M 3.9283,17.6772 L 3.9283,18.6593 L 6.8745,18.6593 L 6.8745,17.6772 L 3.9283,17.6772 Z" stroke-width="1px" stroke="#686868" fill="#686868"/>
        <path clip-path="url(#clip-1186452551)" d="M 3.9283,18.6593 L 3.9283,19.6414 L 6.8745,19.6414 L 6.8745,18.6593 L 3.9283,18.6593 Z" stroke-width="1px" stroke="#6B6B6B" fill="#6B6B6B"/>
        <path clip-path="url(#clip-1186452551)" d="M 3.9283,19.6414 L 3.9283,20.6234 L 6.8745,20.6234 L 6.8745,19.6414 L 3.9283,19.6414 Z" stroke-width="1px" stroke="#6E6E6E" fill="#6E6E6E"/>
        <path clip-path="url(#clip-1186452551)" d="M 3.9283,20.6234 L 3.9283,21.6055 L 6.8745,21.6055 L 6.8745,20.6234 L 3.9283,20.6234 Z" stroke-width="1px" stroke="#727272" fill="#727272"/>
        <path clip-path="url(#clip-1186452551)" d="M 3.9283,21.6055 L 3.9283,22.5876 L 6.8745,22.5876 L 6.8745,21.6055 L 3.9283,21.6055 Z" stroke-width="1px" stroke="#757575" fill="#757575"/>
        <path clip-path="url(#clip-1186452551)" d="M 3.9283,22.5876 L 3.9283,23.5696 L 6.8745,23.5696 L 6.8745,22.5876 L 3.9283,22.5876 Z" stroke-width="1px" stroke="#787878" fill="#787878"/>
        <path clip-path="url(#clip-1186452551)" d="M 3.9283,23.5696 L 3.9283,24.5517 L 6.8745,24.5517 L 6.8745,23.5696 L 3.9283,23.5696 Z" stroke-width="1px" stroke="#7B7B7B" fill="#7B7B7B"/>
        <g transform="matrix(0.0625 0.0000 0.0000 0.0625 0.0000 0.0000)">
          <path d="M 106.0633,404.6119 C 103.1171,402.6478 100.1709,399.7016 100.1709,395.7733 L 100.1709,85.4399 C 100.1709,82.4937 102.1350,78.5654 105.0812,77.5834 L 105.0812,77.5834 L 72.6730,96.2426 C 69.7268,98.2068 67.7627,101.1530 67.7627,105.0812 L 67.7627,105.0812 L 67.7627,379.0781 C 67.7627,382.0244 69.7268,385.9526 72.6730,387.9168 L 106.0633,404.6119 " stroke="#0054A6" stroke-width="9.8207" stroke-linecap="round" stroke-linejoin="round" fill="none"/>
        </g>
        <g transform="matrix(1.0000 0.0000 0.0000 1.0000 0.0000 0.0000)">
          <defs>
            <clipPath id="clip-1244316437">
              <path d="M 1.9641,6.8745 L 5.8924,6.8745 L 5.8924,7.8565 L 1.9641,7.8565 L 1.9641,6.8745 Z Z"/>
            </clipPath>
          </defs>
          <path clip-path="url(#clip-1244316437)" d="M 0.9821,5.8924 L 0.9821,6.8745 L 1.9641,6.8745 L 1.9641,5.8924 L 0.9821,5.8924 Z" stroke-width="1px" stroke="#B0B0B0" fill="#B0B0B0"/>
          <path clip-path="url(#clip-1244316437)" d="M 1.9641,5.8924 L 1.9641,6.8745 L 2.9462,6.8745 L 2.9462,5.8924 L 1.9641,5.8924 Z" stroke-width="1px" stroke="#575757" fill="#575757"/>
          <path clip-path="url(#clip-1244316437)" d="M 2.9462,5.8924 L 2.9462,6.8745 L 3.9283,6.8745 L 3.9283,5.8924 L 2.9462,5.8924 Z" stroke-width="1px" stroke="#717171" fill="#717171"/>
          <path clip-path="url(#clip-1244316437)" d="M 3.9283,5.8924 L 3.9283,6.8745 L 4.9103,6.8745 L 4.9103,5.8924 L 3.9283,5.8924 Z" stroke-width="1px" stroke="#8C8C8C" fill="#8C8C8C"/>
          <path clip-path="url(#clip-1244316437)" d="M 4.9103,5.8924 L 4.9103,6.8745 L 5.8924,6.8745 L 5.8924,5.8924 L 4.9103,5.8924 Z" stroke-width="1px" stroke="#A6A6A6" fill="#A6A6A6"/>
        </g>
        <g transform="matrix(0.0625 0.0000 0.0000 0.0625 0.0000 0.0000)">
          <path d="M 24.5517,123.7405 L 80.5296,123.7405 C 84.4578,123.7405 86.4220,121.7764 86.4220,118.8302 L 86.4220,113.9199 C 86.4220,110.9737 84.4578,109.0095 80.5296,109.0095 L 24.5517,109.0095 C 20.6234,109.0095 18.6593,110.9737 18.6593,113.9199 L 18.6593,118.8302 C 18.6593,121.7764 20.6234,123.7405 24.5517,123.7405 " stroke="#0054A6" stroke-width="2.9462" stroke-linecap="round" stroke-linejoin="round" fill="none"/>
        </g>
        <g transform="matrix(1.0000 0.0000 0.0000 1.0000 0.0000 0.0000)">
          <defs>
            <clipPath id="clip-971899228">
              <path d="M 1.9641,8.8386 L 5.8924,8.8386 L 5.8924,9.8207 L 1.9641,9.8207 L 1.9641,8.8386 Z Z"/>
            </clipPath>
          </defs>
          <path clip-path="url(#clip-971899228)" d="M 0.9821,7.8565 L 0.9821,8.8386 L 1.9641,8.8386 L 1.9641,7.8565 L 0.9821,7.8565 Z" stroke-width="1px" stroke="#B0B0B0" fill="#B0B0B0"/>
          <path clip-path="url(#clip-971899228)" d="M 1.9641,7.8565 L 1.9641,8.8386 L 2.9462,8.8386 L 2.9462,7.8565 L 1.9641,7.8565 Z" stroke-width="1px" stroke="#575757" fill="#575757"/>
          <path clip-path="url(#clip-971899228)" d="M 2.9462,7.8565 L 2.9462,8.8386 L 3.9283,8.8386 L 3.9283,7.8565 L 2.9462,7.8565 Z" stroke-width="1px" stroke="#717171" fill="#717171"/>
          <path clip-path="url(#clip-971899228)" d="M 3.9283,7.8565 L 3.9283,8.8386 L 4.9103,8.8386 L 4.9103,7.8565 L 3.9283,7.8565 Z" stroke-width="1px" stroke="#8C8C8C" fill="#8C8C8C"/>
          <path clip-path="url(#clip-971899228)" d="M 4.9103,7.8565 L 4.9103,8.8386 L 5.8924,8.8386 L 5.8924,7.8565 L 4.9103,7.8565 Z" stroke-width="1px" stroke="#A6A6A6" fill="#A6A6A6"/>
        </g>
        <g transform="matrix(0.0625 0.0000 0.0000 0.0625 0.0000 0.0000)">
          <path d="M 24.5517,155.1667 L 80.5296,155.1667 C 84.4578,155.1667 86.4220,153.2026 86.4220,150.2564 L 86.4220,145.3460 C 86.4220,142.3998 84.4578,140.4357 80.5296,140.4357 L 24.5517,140.4357 C 20.6234,140.4357 18.6593,142.3998 18.6593,145.3460 L 18.6593,150.2564 C 18.6593,153.2026 20.6234,155.1667 24.5517,155.1667 " stroke="#0054A6" stroke-width="2.9462" stroke-linecap="round" stroke-linejoin="round" fill="none"/>
        </g>
        <g transform="matrix(1.0000 0.0000 0.0000 1.0000 0.0000 0.0000)">
          <defs>
            <clipPath id="clip-1476153275">
              <path d="M 1.9641,10.8027 L 5.8924,10.8027 L 5.8924,11.7848 L 1.9641,11.7848 L 1.9641,10.8027 Z Z"/>
            </clipPath>
          </defs>
          <path clip-path="url(#clip-1476153275)" d="M 0.9821,9.8207 L 0.9821,10.8027 L 1.9641,10.8027 L 1.9641,9.8207 L 0.9821,9.8207 Z" stroke-width="1px" stroke="#B0B0B0" fill="#B0B0B0"/>
          <path clip-path="url(#clip-1476153275)" d="M 1.9641,9.8207 L 1.9641,10.8027 L 2.9462,10.8027 L 2.9462,9.8207 L 1.9641,9.8207 Z" stroke-width="1px" stroke="#575757" fill="#575757"/>
          <path clip-path="url(#clip-1476153275)" d="M 2.9462,9.8207 L 2.9462,10.8027 L 3.9283,10.8027 L 3.9283,9.8207 L 2.9462,9.8207 Z" stroke-width="1px" stroke="#717171" fill="#717171"/>
          <path clip-path="url(#clip-1476153275)" d="M 3.9283,9.8207 L 3.9283,10.8027 L 4.9103,10.8027 L 4.9103,9.8207 L 3.9283,9.8207 Z" stroke-width="1px" stroke="#8C8C8C" fill="#8C8C8C"/>
          <path clip-path="url(#clip-1476153275)" d="M 4.9103,9.8207 L 4.9103,10.8027 L 5.8924,10.8027 L 5.8924,9.8207 L 4.9103,9.8207 Z" stroke-width="1px" stroke="#A6A6A6" fill="#A6A6A6"/>
        </g>
        <g transform="matrix(0.0625 0.0000 0.0000 0.0625 0.0000 0.0000)">
          <path d="M 24.5517,186.5929 L 80.5296,186.5929 C 84.4578,186.5929 86.4220,183.6467 86.4220,180.7005 L 86.4220,176.7722 C 86.4220,173.8260 84.4578,170.8798 80.5296,170.8798 L 24.5517,170.8798 C 20.6234,170.8798 18.6593,173.8260 18.6593,176.7722 L 18.6593,180.7005 C 18.6593,183.6467 20.6234,186.5929 24.5517,186.5929 " stroke="#0054A6" stroke-width="2.9462" stroke-linecap="round" stroke-linejoin="round" fill="none"/>
        </g>
        <g transform="matrix(1.0000 0.0000 0.0000 1.0000 0.0000 0.0000)">
          <defs>
            <clipPath id="clip-213975407">
              <path d="M 1.9641,12.7669 L 5.8924,12.7669 L 5.8924,13.7489 L 1.9641,13.7489 L 1.9641,12.7669 Z Z"/>
            </clipPath>
          </defs>
          <path clip-path="url(#clip-213975407)" d="M 0.9821,11.7848 L 0.9821,12.7669 L 1.9641,12.7669 L 1.9641,11.7848 L 0.9821,11.7848 Z" stroke-width="1px" stroke="#B0B0B0" fill="#B0B0B0"/>
          <path clip-path="url(#clip-213975407)" d="M 1.9641,11.7848 L 1.9641,12.7669 L 2.9462,12.7669 L 2.9462,11.7848 L 1.9641,11.7848 Z" stroke-width="1px" stroke="#575757" fill="#575757"/>
          <path clip-path="url(#clip-213975407)" d="M 2.9462,11.7848 L 2.9462,12.7669 L 3.9283,12.7669 L 3.9283,11.7848 L 2.9462,11.7848 Z" stroke-width="1px" stroke="#717171" fill="#717171"/>
          <path clip-path="url(#clip-213975407)" d="M 3.9283,11.7848 L 3.9283,12.7669 L 4.9103,12.7669 L 4.9103,11.7848 L 3.9283,11.7848 Z" stroke-width="1px" stroke="#8C8C8C" fill="#8C8C8C"/>
          <path clip-path="url(#clip-213975407)" d="M 4.9103,11.7848 L 4.9103,12.7669 L 5.8924,12.7669 L 5.8924,11.7848 L 4.9103,11.7848 Z" stroke-width="1px" stroke="#A6A6A6" fill="#A6A6A6"/>
        </g>
        <g transform="matrix(0.0625 0.0000 0.0000 0.0625 0.0000 0.0000)">
          <path d="M 24.5517,218.0190 L 80.5296,218.0190 C 84.4578,218.0190 86.4220,215.0728 86.4220,212.1266 L 86.4220,208.1984 C 86.4220,205.2522 84.4578,202.3060 80.5296,202.3060 L 24.5517,202.3060 C 20.6234,202.3060 18.6593,205.2522 18.6593,208.1984 L 18.6593,212.1266 C 18.6593,215.0728 20.6234,218.0190 24.5517,218.0190 " stroke="#0054A6" stroke-width="2.9462" stroke-linecap="round" stroke-linejoin="round" fill="none"/>
        </g>
        <g transform="matrix(1.0000 0.0000 0.0000 1.0000 0.0000 0.0000)">
          <defs>
            <clipPath id="clip-1139901474">
              <path d="M 1.9641,14.7310 L 5.8924,14.7310 L 5.8924,15.7131 L 1.9641,15.7131 L 1.9641,14.7310 Z Z"/>
            </clipPath>
          </defs>
          <path clip-path="url(#clip-1139901474)" d="M 0.9821,13.7489 L 0.9821,14.7310 L 1.9641,14.7310 L 1.9641,13.7489 L 0.9821,13.7489 Z" stroke-width="1px" stroke="#B0B0B0" fill="#B0B0B0"/>
          <path clip-path="url(#clip-1139901474)" d="M 1.9641,13.7489 L 1.9641,14.7310 L 2.9462,14.7310 L 2.9462,13.7489 L 1.9641,13.7489 Z" stroke-width="1px" stroke="#575757" fill="#575757"/>
          <path clip-path="url(#clip-1139901474)" d="M 2.9462,13.7489 L 2.9462,14.7310 L 3.9283,14.7310 L 3.9283,13.7489 L 2.9462,13.7489 Z" stroke-width="1px" stroke="#717171" fill="#717171"/>
          <path clip-path="url(#clip-1139901474)" d="M 3.9283,13.7489 L 3.9283,14.7310 L 4.9103,14.7310 L 4.9103,13.7489 L 3.9283,13.7489 Z" stroke-width="1px" stroke="#8C8C8C" fill="#8C8C8C"/>
          <path clip-path="url(#clip-1139901474)" d="M 4.9103,13.7489 L 4.9103,14.7310 L 5.8924,14.7310 L 5.8924,13.7489 L 4.9103,13.7489 Z" stroke-width="1px" stroke="#A6A6A6" fill="#A6A6A6"/>
        </g>
        <g transform="matrix(0.0625 0.0000 0.0000 0.0625 0.0000 0.0000)">
          <path d="M 24.5517,248.4631 L 80.5296,248.4631 C 84.4578,248.4631 86.4220,246.4990 86.4220,243.5528 L 86.4220,238.6425 C 86.4220,235.6963 84.4578,233.7321 80.5296,233.7321 L 24.5517,233.7321 C 20.6234,233.7321 18.6593,235.6963 18.6593,238.6425 L 18.6593,243.5528 C 18.6593,246.4990 20.6234,248.4631 24.5517,248.4631 " stroke="#0054A6" stroke-width="2.9462" stroke-linecap="round" stroke-linejoin="round" fill="none"/>
        </g>
        <g transform="matrix(1.0000 0.0000 0.0000 1.0000 0.0000 0.0000)">
          <defs>
            <clipPath id="clip-1626276121">
              <path d="M 1.9641,16.6952 L 5.8924,16.6952 L 5.8924,17.6772 L 1.9641,17.6772 L 1.9641,16.6952 Z Z"/>
            </clipPath>
          </defs>
          <path clip-path="url(#clip-1626276121)" d="M 0.9821,15.7131 L 0.9821,16.6952 L 1.9641,16.6952 L 1.9641,15.7131 L 0.9821,15.7131 Z" stroke-width="1px" stroke="#B0B0B0" fill="#B0B0B0"/>
          <path clip-path="url(#clip-1626276121)" d="M 1.9641,15.7131 L 1.9641,16.6952 L 2.9462,16.6952 L 2.9462,15.7131 L 1.9641,15.7131 Z" stroke-width="1px" stroke="#575757" fill="#575757"/>
          <path clip-path="url(#clip-1626276121)" d="M 2.9462,15.7131 L 2.9462,16.6952 L 3.9283,16.6952 L 3.9283,15.7131 L 2.9462,15.7131 Z" stroke-width="1px" stroke="#717171" fill="#717171"/>
          <path clip-path="url(#clip-1626276121)" d="M 3.9283,15.7131 L 3.9283,16.6952 L 4.9103,16.6952 L 4.9103,15.7131 L 3.9283,15.7131 Z" stroke-width="1px" stroke="#8C8C8C" fill="#8C8C8C"/>
          <path clip-path="url(#clip-1626276121)" d="M 4.9103,15.7131 L 4.9103,16.6952 L 5.8924,16.6952 L 5.8924,15.7131 L 4.9103,15.7131 Z" stroke-width="1px" stroke="#A6A6A6" fill="#A6A6A6"/>
        </g>
        <g transform="matrix(0.0625 0.0000 0.0000 0.0625 0.0000 0.0000)">
          <path d="M 24.5517,279.8893 L 80.5296,279.8893 C 84.4578,279.8893 86.4220,277.9252 86.4220,274.9790 L 86.4220,270.0686 C 86.4220,267.1224 84.4578,265.1583 80.5296,265.1583 L 24.5517,265.1583 C 20.6234,265.1583 18.6593,267.1224 18.6593,270.0686 L 18.6593,274.9790 C 18.6593,277.9252 20.6234,279.8893 24.5517,279.8893 " stroke="#0054A6" stroke-width="2.9462" stroke-linecap="round" stroke-linejoin="round" fill="none"/>
        </g>
        <g transform="matrix(1.0000 0.0000 0.0000 1.0000 0.0000 0.0000)">
          <defs>
            <clipPath id="clip-653468858">
              <path d="M 1.9641,18.6593 L 5.8924,18.6593 L 5.8924,19.6414 L 1.9641,19.6414 L 1.9641,18.6593 Z Z"/>
            </clipPath>
          </defs>
          <path clip-path="url(#clip-653468858)" d="M 0.9821,17.6772 L 0.9821,18.6593 L 1.9641,18.6593 L 1.9641,17.6772 L 0.9821,17.6772 Z" stroke-width="1px" stroke="#B0B0B0" fill="#B0B0B0"/>
          <path clip-path="url(#clip-653468858)" d="M 1.9641,17.6772 L 1.9641,18.6593 L 2.9462,18.6593 L 2.9462,17.6772 L 1.9641,17.6772 Z" stroke-width="1px" stroke="#575757" fill="#575757"/>
          <path clip-path="url(#clip-653468858)" d="M 2.9462,17.6772 L 2.9462,18.6593 L 3.9283,18.6593 L 3.9283,17.6772 L 2.9462,17.6772 Z" stroke-width="1px" stroke="#717171" fill="#717171"/>
          <path clip-path="url(#clip-653468858)" d="M 3.9283,17.6772 L 3.9283,18.6593 L 4.9103,18.6593 L 4.9103,17.6772 L 3.9283,17.6772 Z" stroke-width="1px" stroke="#8C8C8C" fill="#8C8C8C"/>
          <path clip-path="url(#clip-653468858)" d="M 4.9103,17.6772 L 4.9103,18.6593 L 5.8924,18.6593 L 5.8924,17.6772 L 4.9103,17.6772 Z" stroke-width="1px" stroke="#A6A6A6" fill="#A6A6A6"/>
        </g>
        <g transform="matrix(0.0625 0.0000 0.0000 0.0625 0.0000 0.0000)">
          <path d="M 24.5517,311.3155 L 80.5296,311.3155 C 84.4578,311.3155 86.4220,309.3513 86.4220,306.4051 L 86.4220,301.4948 C 86.4220,298.5486 84.4578,296.5845 80.5296,296.5845 L 24.5517,296.5845 C 20.6234,296.5845 18.6593,298.5486 18.6593,301.4948 L 18.6593,306.4051 C 18.6593,309.3513 20.6234,311.3155 24.5517,311.3155 " stroke="#0054A6" stroke-width="2.9462" stroke-linecap="round" stroke-linejoin="round" fill="none"/>
        </g>
        <g transform="matrix(1.0000 0.0000 0.0000 1.0000 0.0000 0.0000)">
          <defs>
            <clipPath id="clip-2130794395">
              <path d="M 1.9641,20.6234 L 5.8924,20.6234 L 5.8924,21.6055 L 1.9641,21.6055 L 1.9641,20.6234 Z Z"/>
            </clipPath>
          </defs>
          <path clip-path="url(#clip-2130794395)" d="M 0.9821,19.6414 L 0.9821,20.6234 L 1.9641,20.6234 L 1.9641,19.6414 L 0.9821,19.6414 Z" stroke-width="1px" stroke="#B0B0B0" fill="#B0B0B0"/>
          <path clip-path="url(#clip-2130794395)" d="M 1.9641,19.6414 L 1.9641,20.6234 L 2.9462,20.6234 L 2.9462,19.6414 L 1.9641,19.6414 Z" stroke-width="1px" stroke="#575757" fill="#575757"/>
          <path clip-path="url(#clip-2130794395)" d="M 2.9462,19.6414 L 2.9462,20.6234 L 3.9283,20.6234 L 3.9283,19.6414 L 2.9462,19.6414 Z" stroke-width="1px" stroke="#717171" fill="#717171"/>
          <path clip-path="url(#clip-2130794395)" d="M 3.9283,19.6414 L 3.9283,20.6234 L 4.9103,20.6234 L 4.9103,19.6414 L 3.9283,19.6414 Z" stroke-width="1px" stroke="#8C8C8C" fill="#8C8C8C"/>
          <path clip-path="url(#clip-2130794395)" d="M 4.9103,19.6414 L 4.9103,20.6234 L 5.8924,20.6234 L 5.8924,19.6414 L 4.9103,19.6414 Z" stroke-width="1px" stroke="#A6A6A6" fill="#A6A6A6"/>
        </g>
        <g transform="matrix(0.0625 0.0000 0.0000 0.0625 0.0000 0.0000)">
          <path d="M 24.5517,342.7416 L 80.5296,342.7416 C 84.4578,342.7416 86.4220,339.7954 86.4220,336.8492 L 86.4220,332.9210 C 86.4220,329.9748 84.4578,327.0286 80.5296,327.0286 L 24.5517,327.0286 C 20.6234,327.0286 18.6593,329.9748 18.6593,332.9210 L 18.6593,336.8492 C 18.6593,339.7954 20.6234,342.7416 24.5517,342.7416 " stroke="#0054A6" stroke-width="2.9462" stroke-linecap="round" stroke-linejoin="round" fill="none"/>
        </g>
        <g transform="matrix(1.0000 0.0000 0.0000 1.0000 0.0000 0.0000)">
          <defs>
            <clipPath id="clip-1239036029">
              <path d="M 1.9641,22.5876 L 5.8924,22.5876 L 5.8924,23.5696 L 1.9641,23.5696 L 1.9641,22.5876 Z Z"/>
            </clipPath>
          </defs>
          <path clip-path="url(#clip-1239036029)" d="M 0.9821,21.6055 L 0.9821,22.5876 L 1.9641,22.5876 L 1.9641,21.6055 L 0.9821,21.6055 Z" stroke-width="1px" stroke="#B0B0B0" fill="#B0B0B0"/>
          <path clip-path="url(#clip-1239036029)" d="M 1.9641,21.6055 L 1.9641,22.5876 L 2.9462,22.5876 L 2.9462,21.6055 L 1.9641,21.6055 Z" stroke-width="1px" stroke="#575757" fill="#575757"/>
          <path clip-path="url(#clip-1239036029)" d="M 2.9462,21.6055 L 2.9462,22.5876 L 3.9283,22.5876 L 3.9283,21.6055 L 2.9462,21.6055 Z" stroke-width="1px" stroke="#717171" fill="#717171"/>
          <path clip-path="url(#clip-1239036029)" d="M 3.9283,21.6055 L 3.9283,22.5876 L 4.9103,22.5876 L 4.9103,21.6055 L 3.9283,21.6055 Z" stroke-width="1px" stroke="#8C8C8C" fill="#8C8C8C"/>
          <path clip-path="url(#clip-1239036029)" d="M 4.9103,21.6055 L 4.9103,22.5876 L 5.8924,22.5876 L 5.8924,21.6055 L 4.9103,21.6055 Z" stroke-width="1px" stroke="#A6A6A6" fill="#A6A6A6"/>
        </g>
        <g transform="matrix(0.0625 0.0000 0.0000 0.0625 0.0000 0.0000)">
          <path d="M 24.5517,373.1857 L 80.5296,373.1857 C 84.4578,373.1857 86.4220,370.2395 86.4220,367.2933 L 86.4220,363.3651 C 86.4220,360.4189 84.4578,357.4727 80.5296,357.4727 L 24.5517,357.4727 C 20.6234,357.4727 18.6593,360.4189 18.6593,363.3651 L 18.6593,367.2933 C 18.6593,370.2395 20.6234,373.1857 24.5517,373.1857 " stroke="#0054A6" stroke-width="2.9462" stroke-linecap="round" stroke-linejoin="round" fill="none"/>
        </g>
        <g transform="matrix(1.0000 0.0000 0.0000 1.0000 0.0000 0.0000)">
          <defs>
            <clipPath id="clip-1884661237">
              <path d="M 32.4082,6.8745 L 37.3186,6.8745 L 37.3186,7.8565 L 32.4082,7.8565 L 32.4082,6.8745 Z Z"/>
            </clipPath>
          </defs>
          <path clip-path="url(#clip-1884661237)" d="M 31.4262,5.8924 L 31.4262,6.8745 L 32.4082,6.8745 L 32.4082,5.8924 L 31.4262,5.8924 Z" stroke-width="1px" stroke="#A9A9A9" fill="#A9A9A9"/>
          <path clip-path="url(#clip-1884661237)" d="M 32.4082,5.8924 L 32.4082,6.8745 L 33.3903,6.8745 L 33.3903,5.8924 L 32.4082,5.8924 Z" stroke-width="1px" stroke="#4A4A4A" fill="#4A4A4A"/>
          <path clip-path="url(#clip-1884661237)" d="M 33.3903,5.8924 L 33.3903,6.8745 L 34.3724,6.8745 L 34.3724,5.8924 L 33.3903,5.8924 Z" stroke-width="1px" stroke="#5E5E5E" fill="#5E5E5E"/>
          <path clip-path="url(#clip-1884661237)" d="M 34.3724,5.8924 L 34.3724,6.8745 L 35.3544,6.8745 L 35.3544,5.8924 L 34.3724,5.8924 Z" stroke-width="1px" stroke="#727272" fill="#727272"/>
          <path clip-path="url(#clip-1884661237)" d="M 35.3544,5.8924 L 35.3544,6.8745 L 36.3365,6.8745 L 36.3365,5.8924 L 35.3544,5.8924 Z" stroke-width="1px" stroke="#868686" fill="#868686"/>
          <path clip-path="url(#clip-1884661237)" d="M 36.3365,5.8924 L 36.3365,6.8745 L 37.3186,6.8745 L 37.3186,5.8924 L 36.3365,5.8924 Z" stroke-width="1px" stroke="#9A9A9A" fill="#9A9A9A"/>
        </g>
        <g transform="matrix(0.0625 0.0000 0.0000 0.0625 0.0000 0.0000)">
          <path d="M 518.5318,123.7405 L 593.1689,123.7405 C 598.0793,123.7405 601.0255,121.7764 601.0255,118.8302 L 601.0255,113.9199 C 601.0255,110.9737 598.0793,109.0095 593.1689,109.0095 L 518.5318,109.0095 C 514.6035,109.0095 510.6752,110.9737 510.6752,113.9199 L 510.6752,118.8302 C 510.6752,121.7764 514.6035,123.7405 518.5318,123.7405 " stroke="#0054A6" stroke-width="2.9462" stroke-linecap="round" stroke-linejoin="round" fill="none"/>
        </g>
        <g transform="matrix(1.0000 0.0000 0.0000 1.0000 0.0000 0.0000)">
          <defs>
            <clipPath id="clip-1605908235">
              <path d="M 32.4082,8.8386 L 37.3186,8.8386 L 37.3186,9.8207 L 32.4082,9.8207 L 32.4082,8.8386 Z Z"/>
            </clipPath>
          </defs>
          <path clip-path="url(#clip-1605908235)" d="M 31.4262,7.8565 L 31.4262,8.8386 L 32.4082,8.8386 L 32.4082,7.8565 L 31.4262,7.8565 Z" stroke-width="1px" stroke="#A9A9A9" fill="#A9A9A9"/>
          <path clip-path="url(#clip-1605908235)" d="M 32.4082,7.8565 L 32.4082,8.8386 L 33.3903,8.8386 L 33.3903,7.8565 L 32.4082,7.8565 Z" stroke-width="1px" stroke="#4A4A4A" fill="#4A4A4A"/>
          <path clip-path="url(#clip-1605908235)" d="M 33.3903,7.8565 L 33.3903,8.8386 L 34.3724,8.8386 L 34.3724,7.8565 L 33.3903,7.8565 Z" stroke-width="1px" stroke="#5E5E5E" fill="#5E5E5E"/>
          <path clip-path="url(#clip-1605908235)" d="M 34.3724,7.8565 L 34.3724,8.8386 L 35.3544,8.8386 L 35.3544,7.8565 L 34.3724,7.8565 Z" stroke-width="1px" stroke="#727272" fill="#727272"/>
          <path clip-path="url(#clip-1605908235)" d="M 35.3544,7.8565 L 35.3544,8.8386 L 36.3365,8.8386 L 36.3365,7.8565 L 35.3544,7.8565 Z" stroke-width="1px" stroke="#868686" fill="#868686"/>
          <path clip-path="url(#clip-1605908235)" d="M 36.3365,7.8565 L 36.3365,8.8386 L 37.3186,8.8386 L 37.3186,7.8565 L 36.3365,7.8565 Z" stroke-width="1px" stroke="#9A9A9A" fill="#9A9A9A"/>
        </g>
        <g transform="matrix(0.0625 0.0000 0.0000 0.0625 0.0000 0.0000)">
          <path d="M 518.5318,155.1667 L 593.1689,155.1667 C 598.0793,155.1667 601.0255,152.2205 601.0255,149.2743 L 601.0255,145.3460 C 601.0255,142.3998 598.0793,139.4536 593.1689,139.4536 L 518.5318,139.4536 C 514.6035,139.4536 510.6752,142.3998 510.6752,145.3460 L 510.6752,149.2743 C 510.6752,152.2205 514.6035,155.1667 518.5318,155.1667 " stroke="#0054A6" stroke-width="2.9462" stroke-linecap="round" stroke-linejoin="round" fill="none"/>
        </g>
        <g transform="matrix(1.0000 0.0000 0.0000 1.0000 0.0000 0.0000)">
          <defs>
            <clipPath id="clip-1350573793">
              <path d="M 32.4082,10.8027 L 37.3186,10.8027 L 37.3186,11.7848 L 32.4082,11.7848 L 32.4082,10.8027 Z Z"/>
            </clipPath>
          </defs>
          <path clip-path="url(#clip-1350573793)" d="M 31.4262,9.8207 L 31.4262,10.8027 L 32.4082,10.8027 L 32.4082,9.8207 L 31.4262,9.8207 Z" stroke-width="1px" stroke="#A9A9A9" fill="#A9A9A9"/>
          <path clip-path="url(#clip-1350573793)" d="M 32.4082,9.8207 L 32.4082,10.8027 L 33.3903,10.8027 L 33.3903,9.8207 L 32.4082,9.8207 Z" stroke-width="1px" stroke="#4A4A4A" fill="#4A4A4A"/>
          <path clip-path="url(#clip-1350573793)" d="M 33.3903,9.8207 L 33.3903,10.8027 L 34.3724,10.8027 L 34.3724,9.8207 L 33.3903,9.8207 Z" stroke-width="1px" stroke="#5E5E5E" fill="#5E5E5E"/>
          <path clip-path="url(#clip-1350573793)" d="M 34.3724,9.8207 L 34.3724,10.8027 L 35.3544,10.8027 L 35.3544,9.8207 L 34.3724,9.8207 Z" stroke-width="1px" stroke="#727272" fill="#727272"/>
          <path clip-path="url(#clip-1350573793)" d="M 35.3544,9.8207 L 35.3544,10.8027 L 36.3365,10.8027 L 36.3365,9.8207 L 35.3544,9.8207 Z" stroke-width="1px" stroke="#868686" fill="#868686"/>
          <path clip-path="url(#clip-1350573793)" d="M 36.3365,9.8207 L 36.3365,10.8027 L 37.3186,10.8027 L 37.3186,9.8207 L 36.3365,9.8207 Z" stroke-width="1px" stroke="#9A9A9A" fill="#9A9A9A"/>
        </g>
        <g transform="matrix(0.0625 0.0000 0.0000 0.0625 0.0000 0.0000)">
          <path d="M 518.5318,186.5929 L 593.1689,186.5929 C 598.0793,186.5929 601.0255,183.6467 601.0255,180.7005 L 601.0255,176.7722 C 601.0255,173.8260 598.0793,170.8798 593.1689,170.8798 L 518.5318,170.8798 C 514.6035,170.8798 510.6752,173.8260 510.6752,176.7722 L 510.6752,180.7005 C 510.6752,183.6467 514.6035,186.5929 518.5318,186.5929 " stroke="#0054A6" stroke-width="2.9462" stroke-linecap="round" stroke-linejoin="round" fill="none"/>
        </g>
        <g transform="matrix(1.0000 0.0000 0.0000 1.0000 0.0000 0.0000)">
          <defs>
            <clipPath id="clip-76065818">
              <path d="M 32.4082,12.7669 L 37.3186,12.7669 L 37.3186,13.7489 L 32.4082,13.7489 L 32.4082,12.7669 Z Z"/>
            </clipPath>
          </defs>
          <path clip-path="url(#clip-76065818)" d="M 31.4262,11.7848 L 31.4262,12.7669 L 32.4082,12.7669 L 32.4082,11.7848 L 31.4262,11.7848 Z" stroke-width="1px" stroke="#A9A9A9" fill="#A9A9A9"/>
          <path clip-path="url(#clip-76065818)" d="M 32.4082,11.7848 L 32.4082,12.7669 L 33.3903,12.7669 L 33.3903,11.7848 L 32.4082,11.7848 Z" stroke-width="1px" stroke="#4A4A4A" fill="#4A4A4A"/>
          <path clip-path="url(#clip-76065818)" d="M 33.3903,11.7848 L 33.3903,12.7669 L 34.3724,12.7669 L 34.3724,11.7848 L 33.3903,11.7848 Z" stroke-width="1px" stroke="#5E5E5E" fill="#5E5E5E"/>
          <path clip-path="url(#clip-76065818)" d="M 34.3724,11.7848 L 34.3724,12.7669 L 35.3544,12.7669 L 35.3544,11.7848 L 34.3724,11.7848 Z" stroke-width="1px" stroke="#727272" fill="#727272"/>
          <path clip-path="url(#clip-76065818)" d="M 35.3544,11.7848 L 35.3544,12.7669 L 36.3365,12.7669 L 36.3365,11.7848 L 35.3544,11.7848 Z" stroke-width="1px" stroke="#868686" fill="#868686"/>
          <path clip-path="url(#clip-76065818)" d="M 36.3365,11.7848 L 36.3365,12.7669 L 37.3186,12.7669 L 37.3186,11.7848 L 36.3365,11.7848 Z" stroke-width="1px" stroke="#9A9A9A" fill="#9A9A9A"/>
        </g>
        <g transform="matrix(0.0625 0.0000 0.0000 0.0625 0.0000 0.0000)">
          <path d="M 518.5318,217.0370 L 593.1689,217.0370 C 598.0793,217.0370 601.0255,215.0728 601.0255,212.1266 L 601.0255,207.2163 C 601.0255,204.2701 598.0793,202.3060 593.1689,202.3060 L 518.5318,202.3060 C 514.6035,202.3060 510.6752,204.2701 510.6752,207.2163 L 510.6752,212.1266 C 510.6752,215.0728 514.6035,217.0370 518.5318,217.0370 " stroke="#0054A6" stroke-width="2.9462" stroke-linecap="round" stroke-linejoin="round" fill="none"/>
        </g>
        <g transform="matrix(1.0000 0.0000 0.0000 1.0000 0.0000 0.0000)">
          <defs>
            <clipPath id="clip-1605894428">
              <path d="M 32.4082,14.7310 L 37.3186,14.7310 L 37.3186,15.7131 L 32.4082,15.7131 L 32.4082,14.7310 Z Z"/>
            </clipPath>
          </defs>
          <path clip-path="url(#clip-1605894428)" d="M 31.4262,13.7489 L 31.4262,14.7310 L 32.4082,14.7310 L 32.4082,13.7489 L 31.4262,13.7489 Z" stroke-width="1px" stroke="#A9A9A9" fill="#A9A9A9"/>
          <path clip-path="url(#clip-1605894428)" d="M 32.4082,13.7489 L 32.4082,14.7310 L 33.3903,14.7310 L 33.3903,13.7489 L 32.4082,13.7489 Z" stroke-width="1px" stroke="#4A4A4A" fill="#4A4A4A"/>
          <path clip-path="url(#clip-1605894428)" d="M 33.3903,13.7489 L 33.3903,14.7310 L 34.3724,14.7310 L 34.3724,13.7489 L 33.3903,13.7489 Z" stroke-width="1px" stroke="#5E5E5E" fill="#5E5E5E"/>
          <path clip-path="url(#clip-1605894428)" d="M 34.3724,13.7489 L 34.3724,14.7310 L 35.3544,14.7310 L 35.3544,13.7489 L 34.3724,13.7489 Z" stroke-width="1px" stroke="#727272" fill="#727272"/>
          <path clip-path="url(#clip-1605894428)" d="M 35.3544,13.7489 L 35.3544,14.7310 L 36.3365,14.7310 L 36.3365,13.7489 L 35.3544,13.7489 Z" stroke-width="1px" stroke="#868686" fill="#868686"/>
          <path clip-path="url(#clip-1605894428)" d="M 36.3365,13.7489 L 36.3365,14.7310 L 37.3186,14.7310 L 37.3186,13.7489 L 36.3365,13.7489 Z" stroke-width="1px" stroke="#9A9A9A" fill="#9A9A9A"/>
        </g>
        <g transform="matrix(0.0625 0.0000 0.0000 0.0625 0.0000 0.0000)">
          <path d="M 518.5318,248.4631 L 593.1689,248.4631 C 598.0793,248.4631 601.0255,246.4990 601.0255,243.5528 L 601.0255,238.6425 C 601.0255,235.6963 598.0793,233.7321 593.1689,233.7321 L 518.5318,233.7321 C 514.6035,233.7321 510.6752,235.6963 510.6752,238.6425 L 510.6752,243.5528 C 510.6752,246.4990 514.6035,248.4631 518.5318,248.4631 " stroke="#0054A6" stroke-width="2.9462" stroke-linecap="round" stroke-linejoin="round" fill="none"/>
        </g>
        <g transform="matrix(1.0000 0.0000 0.0000 1.0000 0.0000 0.0000)">
          <defs>
            <clipPath id="clip-1789366143">
              <path d="M 32.4082,16.6952 L 37.3186,16.6952 L 37.3186,17.6772 L 32.4082,17.6772 L 32.4082,16.6952 Z Z"/>
            </clipPath>
          </defs>
          <path clip-path="url(#clip-1789366143)" d="M 31.4262,15.7131 L 31.4262,16.6952 L 32.4082,16.6952 L 32.4082,15.7131 L 31.4262,15.7131 Z" stroke-width="1px" stroke="#A9A9A9" fill="#A9A9A9"/>
          <path clip-path="url(#clip-1789366143)" d="M 32.4082,15.7131 L 32.4082,16.6952 L 33.3903,16.6952 L 33.3903,15.7131 L 32.4082,15.7131 Z" stroke-width="1px" stroke="#4A4A4A" fill="#4A4A4A"/>
          <path clip-path="url(#clip-1789366143)" d="M 33.3903,15.7131 L 33.3903,16.6952 L 34.3724,16.6952 L 34.3724,15.7131 L 33.3903,15.7131 Z" stroke-width="1px" stroke="#5E5E5E" fill="#5E5E5E"/>
          <path clip-path="url(#clip-1789366143)" d="M 34.3724,15.7131 L 34.3724,16.6952 L 35.3544,16.6952 L 35.3544,15.7131 L 34.3724,15.7131 Z" stroke-width="1px" stroke="#727272" fill="#727272"/>
          <path clip-path="url(#clip-1789366143)" d="M 35.3544,15.7131 L 35.3544,16.6952 L 36.3365,16.6952 L 36.3365,15.7131 L 35.3544,15.7131 Z" stroke-width="1px" stroke="#868686" fill="#868686"/>
          <path clip-path="url(#clip-1789366143)" d="M 36.3365,15.7131 L 36.3365,16.6952 L 37.3186,16.6952 L 37.3186,15.7131 L 36.3365,15.7131 Z" stroke-width="1px" stroke="#9A9A9A" fill="#9A9A9A"/>
        </g>
        <g transform="matrix(0.0625 0.0000 0.0000 0.0625 0.0000 0.0000)">
          <path d="M 518.5318,279.8893 L 593.1689,279.8893 C 598.0793,279.8893 601.0255,277.9252 601.0255,274.9790 L 601.0255,270.0686 C 601.0255,267.1224 598.0793,265.1583 593.1689,265.1583 L 518.5318,265.1583 C 514.6035,265.1583 510.6752,267.1224 510.6752,270.0686 L 510.6752,274.9790 C 510.6752,277.9252 514.6035,279.8893 518.5318,279.8893 " stroke="#0054A6" stroke-width="2.9462" stroke-linecap="round" stroke-linejoin="round" fill="none"/>
        </g>
        <g transform="matrix(1.0000 0.0000 0.0000 1.0000 0.0000 0.0000)">
          <defs>
            <clipPath id="clip-1987231011">
              <path d="M 32.4082,18.6593 L 37.3186,18.6593 L 37.3186,19.6414 L 32.4082,19.6414 L 32.4082,18.6593 Z Z"/>
            </clipPath>
          </defs>
          <path clip-path="url(#clip-1987231011)" d="M 31.4262,17.6772 L 31.4262,18.6593 L 32.4082,18.6593 L 32.4082,17.6772 L 31.4262,17.6772 Z" stroke-width="1px" stroke="#A9A9A9" fill="#A9A9A9"/>
          <path clip-path="url(#clip-1987231011)" d="M 32.4082,17.6772 L 32.4082,18.6593 L 33.3903,18.6593 L 33.3903,17.6772 L 32.4082,17.6772 Z" stroke-width="1px" stroke="#4A4A4A" fill="#4A4A4A"/>
          <path clip-path="url(#clip-1987231011)" d="M 33.3903,17.6772 L 33.3903,18.6593 L 34.3724,18.6593 L 34.3724,17.6772 L 33.3903,17.6772 Z" stroke-width="1px" stroke="#5E5E5E" fill="#5E5E5E"/>
          <path clip-path="url(#clip-1987231011)" d="M 34.3724,17.6772 L 34.3724,18.6593 L 35.3544,18.6593 L 35.3544,17.6772 L 34.3724,17.6772 Z" stroke-width="1px" stroke="#727272" fill="#727272"/>
          <path clip-path="url(#clip-1987231011)" d="M 35.3544,17.6772 L 35.3544,18.6593 L 36.3365,18.6593 L 36.3365,17.6772 L 35.3544,17.6772 Z" stroke-width="1px" stroke="#868686" fill="#868686"/>
          <path clip-path="url(#clip-1987231011)" d="M 36.3365,17.6772 L 36.3365,18.6593 L 37.3186,18.6593 L 37.3186,17.6772 L 36.3365,17.6772 Z" stroke-width="1px" stroke="#9A9A9A" fill="#9A9A9A"/>
        </g>
        <g transform="matrix(0.0625 0.0000 0.0000 0.0625 0.0000 0.0000)">
          <path d="M 518.5318,311.3155 L 593.1689,311.3155 C 598.0793,311.3155 601.0255,308.3693 601.0255,305.4231 L 601.0255,301.4948 C 601.0255,298.5486 598.0793,295.6024 593.1689,295.6024 L 518.5318,295.6024 C 514.6035,295.6024 510.6752,298.5486 510.6752,301.4948 L 510.6752,305.4231 C 510.6752,308.3693 514.6035,311.3155 518.5318,311.3155 " stroke="#0054A6" stroke-width="2.9462" stroke-linecap="round" stroke-linejoin="round" fill="none"/>
        </g>
        <g transform="matrix(1.0000 0.0000 0.0000 1.0000 0.0000 0.0000)">
          <defs>
            <clipPath id="clip-1875335928">
              <path d="M 32.4082,20.6234 L 37.3186,20.6234 L 37.3186,21.6055 L 32.4082,21.6055 L 32.4082,20.6234 Z Z"/>
            </clipPath>
          </defs>
          <path clip-path="url(#clip-1875335928)" d="M 31.4262,19.6414 L 31.4262,20.6234 L 32.4082,20.6234 L 32.4082,19.6414 L 31.4262,19.6414 Z" stroke-width="1px" stroke="#A9A9A9" fill="#A9A9A9"/>
          <path clip-path="url(#clip-1875335928)" d="M 32.4082,19.6414 L 32.4082,20.6234 L 33.3903,20.6234 L 33.3903,19.6414 L 32.4082,19.6414 Z" stroke-width="1px" stroke="#4A4A4A" fill="#4A4A4A"/>
          <path clip-path="url(#clip-1875335928)" d="M 33.3903,19.6414 L 33.3903,20.6234 L 34.3724,20.6234 L 34.3724,19.6414 L 33.3903,19.6414 Z" stroke-width="1px" stroke="#5E5E5E" fill="#5E5E5E"/>
          <path clip-path="url(#clip-1875335928)" d="M 34.3724,19.6414 L 34.3724,20.6234 L 35.3544,20.6234 L 35.3544,19.6414 L 34.3724,19.6414 Z" stroke-width="1px" stroke="#727272" fill="#727272"/>
          <path clip-path="url(#clip-1875335928)" d="M 35.3544,19.6414 L 35.3544,20.6234 L 36.3365,20.6234 L 36.3365,19.6414 L 35.3544,19.6414 Z" stroke-width="1px" stroke="#868686" fill="#868686"/>
          <path clip-path="url(#clip-1875335928)" d="M 36.3365,19.6414 L 36.3365,20.6234 L 37.3186,20.6234 L 37.3186,19.6414 L 36.3365,19.6414 Z" stroke-width="1px" stroke="#9A9A9A" fill="#9A9A9A"/>
        </g>
        <g transform="matrix(0.0625 0.0000 0.0000 0.0625 0.0000 0.0000)">
          <path d="M 518.5318,342.7416 L 593.1689,342.7416 C 598.0793,342.7416 601.0255,339.7954 601.0255,336.8492 L 601.0255,332.9210 C 601.0255,329.9748 598.0793,327.0286 593.1689,327.0286 L 518.5318,327.0286 C 514.6035,327.0286 510.6752,329.9748 510.6752,332.9210 L 510.6752,336.8492 C 510.6752,339.7954 514.6035,342.7416 518.5318,342.7416 " stroke="#0054A6" stroke-width="2.9462" stroke-linecap="round" stroke-linejoin="round" fill="none"/>
        </g>
        <g transform="matrix(1.0000 0.0000 0.0000 1.0000 0.0000 0.0000)">
          <defs>
            <clipPath id="clip-1784639529">
              <path d="M 32.4082,22.5876 L 38.3006,22.5876 L 38.3006,23.5696 L 32.4082,23.5696 L 32.4082,22.5876 Z Z"/>
            </clipPath>
          </defs>
          <path clip-path="url(#clip-1784639529)" d="M 31.4262,21.6055 L 31.4262,22.5876 L 32.4082,22.5876 L 32.4082,21.6055 L 31.4262,21.6055 Z" stroke-width="1px" stroke="#A9A9A9" fill="#A9A9A9"/>
          <path clip-path="url(#clip-1784639529)" d="M 32.4082,21.6055 L 32.4082,22.5876 L 33.3903,22.5876 L 33.3903,21.6055 L 32.4082,21.6055 Z" stroke-width="1px" stroke="#4A4A4A" fill="#4A4A4A"/>
          <path clip-path="url(#clip-1784639529)" d="M 33.3903,21.6055 L 33.3903,22.5876 L 34.3724,22.5876 L 34.3724,21.6055 L 33.3903,21.6055 Z" stroke-width="1px" stroke="#5E5E5E" fill="#5E5E5E"/>
          <path clip-path="url(#clip-1784639529)" d="M 34.3724,21.6055 L 34.3724,22.5876 L 35.3544,22.5876 L 35.3544,21.6055 L 34.3724,21.6055 Z" stroke-width="1px" stroke="#727272" fill="#727272"/>
          <path clip-path="url(#clip-1784639529)" d="M 35.3544,21.6055 L 35.3544,22.5876 L 36.3365,22.5876 L 36.3365,21.6055 L 35.3544,21.6055 Z" stroke-width="1px" stroke="#868686" fill="#868686"/>
          <path clip-path="url(#clip-1784639529)" d="M 36.3365,21.6055 L 36.3365,22.5876 L 37.3186,22.5876 L 37.3186,21.6055 L 36.3365,21.6055 Z" stroke-width="1px" stroke="#9A9A9A" fill="#9A9A9A"/>
        </g>
        <g transform="matrix(0.0625 0.0000 0.0000 0.0625 0.0000 0.0000)">
          <path d="M 518.5318,373.1857 L 593.1689,373.1857 C 598.0793,373.1857 601.0255,370.2395 601.0255,367.2933 L 601.0255,362.3830 C 601.0255,359.4368 598.0793,357.4727 593.1689,357.4727 L 518.5318,357.4727 C 514.6035,357.4727 510.6752,359.4368 510.6752,362.3830 L 510.6752,367.2933 C 510.6752,370.2395 514.6035,373.1857 518.5318,373.1857 " stroke="#0054A6" stroke-width="2.9462" stroke-linecap="round" stroke-linejoin="round" fill="none"/>
        </g>
        <g transform="matrix(1.0000 0.0000 0.0000 1.0000 0.0000 0.0000)">
          <defs>
            <clipPath id="clip-2103318776">
              <path d="M 8.8386,24.5517 L 9.8207,24.5517 L 9.8207,28.4800 L 8.8386,28.4800 L 8.8386,24.5517 Z Z"/>
            </clipPath>
          </defs>
          <path clip-path="url(#clip-2103318776)" d="M 7.8565,22.5876 L 7.8565,23.5696 L 8.8386,23.5696 L 8.8386,22.5876 L 7.8565,22.5876 Z" stroke-width="1px" stroke="#4C4C4C" fill="#4C4C4C"/>
          <path clip-path="url(#clip-2103318776)" d="M 7.8565,23.5696 L 7.8565,24.5517 L 8.8386,24.5517 L 8.8386,23.5696 L 7.8565,23.5696 Z" stroke-width="1px" stroke="#ABABAB" fill="#ABABAB"/>
          <path clip-path="url(#clip-2103318776)" d="M 7.8565,24.5517 L 7.8565,25.5338 L 8.8386,25.5338 L 8.8386,24.5517 L 7.8565,24.5517 Z" stroke-width="1px" stroke="#979797" fill="#979797"/>
          <path clip-path="url(#clip-2103318776)" d="M 7.8565,25.5338 L 7.8565,26.5158 L 8.8386,26.5158 L 8.8386,25.5338 L 7.8565,25.5338 Z" stroke-width="1px" stroke="#838383" fill="#838383"/>
          <path clip-path="url(#clip-2103318776)" d="M 7.8565,26.5158 L 7.8565,27.4979 L 8.8386,27.4979 L 8.8386,26.5158 L 7.8565,26.5158 Z" stroke-width="1px" stroke="#6F6F6F" fill="#6F6F6F"/>
          <path clip-path="url(#clip-2103318776)" d="M 7.8565,27.4979 L 7.8565,28.4800 L 8.8386,28.4800 L 8.8386,27.4979 L 7.8565,27.4979 Z" stroke-width="1px" stroke="#5B5B5B" fill="#5B5B5B"/>
        </g>
        <g transform="matrix(0.0625 0.0000 0.0000 0.0625 0.0000 0.0000)">
          <path d="M 142.3998,453.7153 L 142.3998,379.0781 C 142.3998,375.1499 140.4357,371.2216 137.4895,371.2216 L 132.5791,371.2216 C 129.6329,371.2216 127.6688,375.1499 127.6688,379.0781 L 127.6688,453.7153 C 127.6688,457.6436 129.6329,461.5718 132.5791,461.5718 L 137.4895,461.5718 C 140.4357,461.5718 142.3998,457.6436 142.3998,453.7153 " stroke="#0054A6" stroke-width="2.9462" stroke-linecap="round" stroke-linejoin="round" fill="none"/>
        </g>
        <g transform="matrix(1.0000 0.0000 0.0000 1.0000 0.0000 0.0000)">
          <defs>
            <clipPath id="clip-1597322404">
              <path d="M 10.8027,24.5517 L 11.7848,24.5517 L 11.7848,28.4800 L 10.8027,28.4800 L 10.8027,24.5517 Z Z"/>
            </clipPath>
          </defs>
          <path clip-path="url(#clip-1597322404)" d="M 9.8207,22.5876 L 9.8207,23.5696 L 10.8027,23.5696 L 10.8027,22.5876 L 9.8207,22.5876 Z" stroke-width="1px" stroke="#4C4C4C" fill="#4C4C4C"/>
          <path clip-path="url(#clip-1597322404)" d="M 9.8207,23.5696 L 9.8207,24.5517 L 10.8027,24.5517 L 10.8027,23.5696 L 9.8207,23.5696 Z" stroke-width="1px" stroke="#ABABAB" fill="#ABABAB"/>
          <path clip-path="url(#clip-1597322404)" d="M 9.8207,24.5517 L 9.8207,25.5338 L 10.8027,25.5338 L 10.8027,24.5517 L 9.8207,24.5517 Z" stroke-width="1px" stroke="#979797" fill="#979797"/>
          <path clip-path="url(#clip-1597322404)" d="M 9.8207,25.5338 L 9.8207,26.5158 L 10.8027,26.5158 L 10.8027,25.5338 L 9.8207,25.5338 Z" stroke-width="1px" stroke="#838383" fill="#838383"/>
          <path clip-path="url(#clip-1597322404)" d="M 9.8207,26.5158 L 9.8207,27.4979 L 10.8027,27.4979 L 10.8027,26.5158 L 9.8207,26.5158 Z" stroke-width="1px" stroke="#6F6F6F" fill="#6F6F6F"/>
          <path clip-path="url(#clip-1597322404)" d="M 9.8207,27.4979 L 9.8207,28.4800 L 10.8027,28.4800 L 10.8027,27.4979 L 9.8207,27.4979 Z" stroke-width="1px" stroke="#5B5B5B" fill="#5B5B5B"/>
        </g>
        <g transform="matrix(0.0625 0.0000 0.0000 0.0625 0.0000 0.0000)">
          <path d="M 173.8260,453.7153 L 173.8260,379.0781 C 173.8260,375.1499 171.8619,371.2216 168.9157,371.2216 L 164.0053,371.2216 C 161.0591,371.2216 159.0950,375.1499 159.0950,379.0781 L 159.0950,453.7153 C 159.0950,457.6436 161.0591,461.5718 164.0053,461.5718 L 168.9157,461.5718 C 171.8619,461.5718 173.8260,457.6436 173.8260,453.7153 " stroke="#0054A6" stroke-width="2.9462" stroke-linecap="round" stroke-linejoin="round" fill="none"/>
        </g>
        <g transform="matrix(1.0000 0.0000 0.0000 1.0000 0.0000 0.0000)">
          <defs>
            <clipPath id="clip-1939964443">
              <path d="M 12.7669,24.5517 L 13.7489,24.5517 L 13.7489,28.4800 L 12.7669,28.4800 L 12.7669,24.5517 Z Z"/>
            </clipPath>
          </defs>
          <path clip-path="url(#clip-1939964443)" d="M 11.7848,22.5876 L 11.7848,23.5696 L 12.7669,23.5696 L 12.7669,22.5876 L 11.7848,22.5876 Z" stroke-width="1px" stroke="#4C4C4C" fill="#4C4C4C"/>
          <path clip-path="url(#clip-1939964443)" d="M 11.7848,23.5696 L 11.7848,24.5517 L 12.7669,24.5517 L 12.7669,23.5696 L 11.7848,23.5696 Z" stroke-width="1px" stroke="#ABABAB" fill="#ABABAB"/>
          <path clip-path="url(#clip-1939964443)" d="M 11.7848,24.5517 L 11.7848,25.5338 L 12.7669,25.5338 L 12.7669,24.5517 L 11.7848,24.5517 Z" stroke-width="1px" stroke="#979797" fill="#979797"/>
          <path clip-path="url(#clip-1939964443)" d="M 11.7848,25.5338 L 11.7848,26.5158 L 12.7669,26.5158 L 12.7669,25.5338 L 11.7848,25.5338 Z" stroke-width="1px" stroke="#838383" fill="#838383"/>
          <path clip-path="url(#clip-1939964443)" d="M 11.7848,26.5158 L 11.7848,27.4979 L 12.7669,27.4979 L 12.7669,26.5158 L 11.7848,26.5158 Z" stroke-width="1px" stroke="#6F6F6F" fill="#6F6F6F"/>
          <path clip-path="url(#clip-1939964443)" d="M 11.7848,27.4979 L 11.7848,28.4800 L 12.7669,28.4800 L 12.7669,27.4979 L 11.7848,27.4979 Z" stroke-width="1px" stroke="#5B5B5B" fill="#5B5B5B"/>
        </g>
        <g transform="matrix(0.0625 0.0000 0.0000 0.0625 0.0000 0.0000)">
          <path d="M 205.2522,453.7153 L 205.2522,379.0781 C 205.2522,375.1499 202.3060,371.2216 199.3598,371.2216 L 195.4315,371.2216 C 192.4853,371.2216 189.5391,375.1499 189.5391,379.0781 L 189.5391,453.7153 C 189.5391,457.6436 192.4853,461.5718 195.4315,461.5718 L 199.3598,461.5718 C 202.3060,461.5718 205.2522,457.6436 205.2522,453.7153 " stroke="#0054A6" stroke-width="2.9462" stroke-linecap="round" stroke-linejoin="round" fill="none"/>
        </g>
        <g transform="matrix(1.0000 0.0000 0.0000 1.0000 0.0000 0.0000)">
          <defs>
            <clipPath id="clip-2112255763">
              <path d="M 14.7310,24.5517 L 15.7131,24.5517 L 15.7131,28.4800 L 14.7310,28.4800 L 14.7310,24.5517 Z Z"/>
            </clipPath>
          </defs>
          <path clip-path="url(#clip-2112255763)" d="M 13.7489,22.5876 L 13.7489,23.5696 L 14.7310,23.5696 L 14.7310,22.5876 L 13.7489,22.5876 Z" stroke-width="1px" stroke="#4C4C4C" fill="#4C4C4C"/>
          <path clip-path="url(#clip-2112255763)" d="M 13.7489,23.5696 L 13.7489,24.5517 L 14.7310,24.5517 L 14.7310,23.5696 L 13.7489,23.5696 Z" stroke-width="1px" stroke="#ABABAB" fill="#ABABAB"/>
          <path clip-path="url(#clip-2112255763)" d="M 13.7489,24.5517 L 13.7489,25.5338 L 14.7310,25.5338 L 14.7310,24.5517 L 13.7489,24.5517 Z" stroke-width="1px" stroke="#979797" fill="#979797"/>
          <path clip-path="url(#clip-2112255763)" d="M 13.7489,25.5338 L 13.7489,26.5158 L 14.7310,26.5158 L 14.7310,25.5338 L 13.7489,25.5338 Z" stroke-width="1px" stroke="#838383" fill="#838383"/>
          <path clip-path="url(#clip-2112255763)" d="M 13.7489,26.5158 L 13.7489,27.4979 L 14.7310,27.4979 L 14.7310,26.5158 L 13.7489,26.5158 Z" stroke-width="1px" stroke="#6F6F6F" fill="#6F6F6F"/>
          <path clip-path="url(#clip-2112255763)" d="M 13.7489,27.4979 L 13.7489,28.4800 L 14.7310,28.4800 L 14.7310,27.4979 L 13.7489,27.4979 Z" stroke-width="1px" stroke="#5B5B5B" fill="#5B5B5B"/>
        </g>
        <g transform="matrix(0.0625 0.0000 0.0000 0.0625 0.0000 0.0000)">
          <path d="M 236.6783,453.7153 L 236.6783,379.0781 C 236.6783,375.1499 233.7321,371.2216 230.7859,371.2216 L 226.8576,371.2216 C 223.9114,371.2216 220.9652,375.1499 220.9652,379.0781 L 220.9652,453.7153 C 220.9652,457.6436 223.9114,461.5718 226.8576,461.5718 L 230.7859,461.5718 C 233.7321,461.5718 236.6783,457.6436 236.6783,453.7153 " stroke="#0054A6" stroke-width="2.9462" stroke-linecap="round" stroke-linejoin="round" fill="none"/>
        </g>
        <g transform="matrix(1.0000 0.0000 0.0000 1.0000 0.0000 0.0000)">
</g>
        <g transform="matrix(0.0625 0.0000 0.0000 0.0625 0.0000 0.0000)">
          <path d="M 267.1224,453.7153 L 267.1224,379.0781 C 267.1224,375.1499 265.1583,371.2216 262.2121,371.2216 L 257.3017,371.2216 C 254.3555,371.2216 252.3914,375.1499 252.3914,379.0781 L 252.3914,453.7153 C 252.3914,457.6436 254.3555,461.5718 257.3017,461.5718 L 262.2121,461.5718 C 265.1583,461.5718 267.1224,457.6436 267.1224,453.7153 " stroke="#0054A6" stroke-width="2.9462" stroke-linecap="round" stroke-linejoin="round" fill="none"/>
        </g>
        <g transform="matrix(1.0000 0.0000 0.0000 1.0000 0.0000 0.0000)">
</g>
        <g transform="matrix(0.0625 0.0000 0.0000 0.0625 0.0000 0.0000)">
          <path d="M 298.5486,453.7153 L 298.5486,379.0781 C 298.5486,375.1499 296.5845,371.2216 293.6383,371.2216 L 288.7279,371.2216 C 285.7817,371.2216 283.8176,375.1499 283.8176,379.0781 L 283.8176,453.7153 C 283.8176,457.6436 285.7817,461.5718 288.7279,461.5718 L 293.6383,461.5718 C 296.5845,461.5718 298.5486,457.6436 298.5486,453.7153 " stroke="#0054A6" stroke-width="2.9462" stroke-linecap="round" stroke-linejoin="round" fill="none"/>
        </g>
        <g transform="matrix(1.0000 0.0000 0.0000 1.0000 0.0000 0.0000)">
</g>
        <g transform="matrix(0.0625 0.0000 0.0000 0.0625 0.0000 0.0000)">
          <path d="M 329.9748,453.7153 L 329.9748,379.0781 C 329.9748,375.1499 328.0106,371.2216 325.0644,371.2216 L 320.1541,371.2216 C 317.2079,371.2216 315.2437,375.1499 315.2437,379.0781 L 315.2437,453.7153 C 315.2437,457.6436 317.2079,461.5718 320.1541,461.5718 L 325.0644,461.5718 C 328.0106,461.5718 329.9748,457.6436 329.9748,453.7153 " stroke="#0054A6" stroke-width="2.9462" stroke-linecap="round" stroke-linejoin="round" fill="none"/>
        </g>
        <g transform="matrix(1.0000 0.0000 0.0000 1.0000 0.0000 0.0000)">
          <defs>
            <clipPath id="clip-1432114613">
              <path d="M 21.6055,24.5517 L 22.5876,24.5517 L 22.5876,28.4800 L 21.6055,28.4800 L 21.6055,24.5517 Z Z"/>
            </clipPath>
          </defs>
          <path clip-path="url(#clip-1432114613)" d="M 21.6055,22.5876 L 21.6055,23.5696 L 22.5876,23.5696 L 22.5876,22.5876 L 21.6055,22.5876 Z" stroke-width="1px" stroke="#4C4C4C" fill="#4C4C4C"/>
          <path clip-path="url(#clip-1432114613)" d="M 21.6055,23.5696 L 21.6055,24.5517 L 22.5876,24.5517 L 22.5876,23.5696 L 21.6055,23.5696 Z" stroke-width="1px" stroke="#ABABAB" fill="#ABABAB"/>
          <path clip-path="url(#clip-1432114613)" d="M 21.6055,24.5517 L 21.6055,25.5338 L 22.5876,25.5338 L 22.5876,24.5517 L 21.6055,24.5517 Z" stroke-width="1px" stroke="#979797" fill="#979797"/>
          <path clip-path="url(#clip-1432114613)" d="M 21.6055,25.5338 L 21.6055,26.5158 L 22.5876,26.5158 L 22.5876,25.5338 L 21.6055,25.5338 Z" stroke-width="1px" stroke="#838383" fill="#838383"/>
          <path clip-path="url(#clip-1432114613)" d="M 21.6055,26.5158 L 21.6055,27.4979 L 22.5876,27.4979 L 22.5876,26.5158 L 21.6055,26.5158 Z" stroke-width="1px" stroke="#6F6F6F" fill="#6F6F6F"/>
          <path clip-path="url(#clip-1432114613)" d="M 21.6055,27.4979 L 21.6055,28.4800 L 22.5876,28.4800 L 22.5876,27.4979 L 21.6055,27.4979 Z" stroke-width="1px" stroke="#5B5B5B" fill="#5B5B5B"/>
        </g>
        <g transform="matrix(0.0625 0.0000 0.0000 0.0625 0.0000 0.0000)">
          <path d="M 361.4009,453.7153 L 361.4009,379.0781 C 361.4009,375.1499 358.4547,371.2216 355.5085,371.2216 L 351.5803,371.2216 C 348.6340,371.2216 345.6878,375.1499 345.6878,379.0781 L 345.6878,453.7153 C 345.6878,457.6436 348.6340,461.5718 351.5803,461.5718 L 355.5085,461.5718 C 358.4547,461.5718 361.4009,457.6436 361.4009,453.7153 " stroke="#0054A6" stroke-width="2.9462" stroke-linecap="round" stroke-linejoin="round" fill="none"/>
        </g>
        <g transform="matrix(1.0000 0.0000 0.0000 1.0000 0.0000 0.0000)">
          <defs>
            <clipPath id="clip-1067854538">
              <path d="M 23.5696,24.5517 L 24.5517,24.5517 L 24.5517,28.4800 L 23.5696,28.4800 L 23.5696,24.5517 Z Z"/>
            </clipPath>
          </defs>
          <path clip-path="url(#clip-1067854538)" d="M 22.5876,22.5876 L 22.5876,23.5696 L 23.5696,23.5696 L 23.5696,22.5876 L 22.5876,22.5876 Z" stroke-width="1px" stroke="#4C4C4C" fill="#4C4C4C"/>
          <path clip-path="url(#clip-1067854538)" d="M 22.5876,23.5696 L 22.5876,24.5517 L 23.5696,24.5517 L 23.5696,23.5696 L 22.5876,23.5696 Z" stroke-width="1px" stroke="#ABABAB" fill="#ABABAB"/>
          <path clip-path="url(#clip-1067854538)" d="M 22.5876,24.5517 L 22.5876,25.5338 L 23.5696,25.5338 L 23.5696,24.5517 L 22.5876,24.5517 Z" stroke-width="1px" stroke="#979797" fill="#979797"/>
          <path clip-path="url(#clip-1067854538)" d="M 22.5876,25.5338 L 22.5876,26.5158 L 23.5696,26.5158 L 23.5696,25.5338 L 22.5876,25.5338 Z" stroke-width="1px" stroke="#838383" fill="#838383"/>
          <path clip-path="url(#clip-1067854538)" d="M 22.5876,26.5158 L 22.5876,27.4979 L 23.5696,27.4979 L 23.5696,26.5158 L 22.5876,26.5158 Z" stroke-width="1px" stroke="#6F6F6F" fill="#6F6F6F"/>
          <path clip-path="url(#clip-1067854538)" d="M 22.5876,27.4979 L 22.5876,28.4800 L 23.5696,28.4800 L 23.5696,27.4979 L 22.5876,27.4979 Z" stroke-width="1px" stroke="#5B5B5B" fill="#5B5B5B"/>
        </g>
        <g transform="matrix(0.0625 0.0000 0.0000 0.0625 0.0000 0.0000)">
          <path d="M 391.8450,453.7153 L 391.8450,379.0781 C 391.8450,375.1499 388.8988,371.2216 385.9526,371.2216 L 382.0244,371.2216 C 379.0781,371.2216 376.1319,375.1499 376.1319,379.0781 L 376.1319,453.7153 C 376.1319,457.6436 379.0781,461.5718 382.0244,461.5718 L 385.9526,461.5718 C 388.8988,461.5718 391.8450,457.6436 391.8450,453.7153 " stroke="#0054A6" stroke-width="2.9462" stroke-linecap="round" stroke-linejoin="round" fill="none"/>
        </g>
        <g transform="matrix(1.0000 0.0000 0.0000 1.0000 0.0000 0.0000)">
          <defs>
            <clipPath id="clip-352118606">
              <path d="M 25.5338,23.5696 L 26.5158,23.5696 L 26.5158,29.4620 L 25.5338,29.4620 L 25.5338,23.5696 Z Z"/>
            </clipPath>
          </defs>
          <path clip-path="url(#clip-352118606)" d="M 24.5517,22.5876 L 24.5517,23.5696 L 25.5338,23.5696 L 25.5338,22.5876 L 24.5517,22.5876 Z" stroke-width="1px" stroke="#4C4C4C" fill="#4C4C4C"/>
          <path clip-path="url(#clip-352118606)" d="M 24.5517,23.5696 L 24.5517,24.5517 L 25.5338,24.5517 L 25.5338,23.5696 L 24.5517,23.5696 Z" stroke-width="1px" stroke="#ABABAB" fill="#ABABAB"/>
          <path clip-path="url(#clip-352118606)" d="M 24.5517,24.5517 L 24.5517,25.5338 L 25.5338,25.5338 L 25.5338,24.5517 L 24.5517,24.5517 Z" stroke-width="1px" stroke="#979797" fill="#979797"/>
          <path clip-path="url(#clip-352118606)" d="M 24.5517,25.5338 L 24.5517,26.5158 L 25.5338,26.5158 L 25.5338,25.5338 L 24.5517,25.5338 Z" stroke-width="1px" stroke="#838383" fill="#838383"/>
          <path clip-path="url(#clip-352118606)" d="M 24.5517,26.5158 L 24.5517,27.4979 L 25.5338,27.4979 L 25.5338,26.5158 L 24.5517,26.5158 Z" stroke-width="1px" stroke="#6F6F6F" fill="#6F6F6F"/>
          <path clip-path="url(#clip-352118606)" d="M 24.5517,27.4979 L 24.5517,28.4800 L 25.5338,28.4800 L 25.5338,27.4979 L 24.5517,27.4979 Z" stroke-width="1px" stroke="#5B5B5B" fill="#5B5B5B"/>
        </g>
        <g transform="matrix(0.0625 0.0000 0.0000 0.0625 0.0000 0.0000)">
          <path d="M 422.2891,453.7153 L 422.2891,379.0781 C 422.2891,375.1499 419.3429,371.2216 416.3967,371.2216 L 412.4685,371.2216 C 409.5222,371.2216 406.5760,375.1499 406.5760,379.0781 L 406.5760,453.7153 C 406.5760,457.6436 409.5222,461.5718 412.4685,461.5718 L 416.3967,461.5718 C 419.3429,461.5718 422.2891,457.6436 422.2891,453.7153 " stroke="#0054A6" stroke-width="2.9462" stroke-linecap="round" stroke-linejoin="round" fill="none"/>
        </g>
        <g transform="matrix(1.0000 0.0000 0.0000 1.0000 0.0000 0.0000)">
          <defs>
            <clipPath id="clip-1782436840">
              <path d="M 27.4979,23.5696 L 28.4800,23.5696 L 28.4800,29.4620 L 27.4979,29.4620 L 27.4979,23.5696 Z Z"/>
            </clipPath>
          </defs>
          <path clip-path="url(#clip-1782436840)" d="M 26.5158,22.5876 L 26.5158,23.5696 L 27.4979,23.5696 L 27.4979,22.5876 L 26.5158,22.5876 Z" stroke-width="1px" stroke="#4C4C4C" fill="#4C4C4C"/>
          <path clip-path="url(#clip-1782436840)" d="M 26.5158,23.5696 L 26.5158,24.5517 L 27.4979,24.5517 L 27.4979,23.5696 L 26.5158,23.5696 Z" stroke-width="1px" stroke="#ABABAB" fill="#ABABAB"/>
          <path clip-path="url(#clip-1782436840)" d="M 26.5158,24.5517 L 26.5158,25.5338 L 27.4979,25.5338 L 27.4979,24.5517 L 26.5158,24.5517 Z" stroke-width="1px" stroke="#979797" fill="#979797"/>
          <path clip-path="url(#clip-1782436840)" d="M 26.5158,25.5338 L 26.5158,26.5158 L 27.4979,26.5158 L 27.4979,25.5338 L 26.5158,25.5338 Z" stroke-width="1px" stroke="#838383" fill="#838383"/>
          <path clip-path="url(#clip-1782436840)" d="M 26.5158,26.5158 L 26.5158,27.4979 L 27.4979,27.4979 L 27.4979,26.5158 L 26.5158,26.5158 Z" stroke-width="1px" stroke="#6F6F6F" fill="#6F6F6F"/>
          <path clip-path="url(#clip-1782436840)" d="M 26.5158,27.4979 L 26.5158,28.4800 L 27.4979,28.4800 L 27.4979,27.4979 L 26.5158,27.4979 Z" stroke-width="1px" stroke="#5B5B5B" fill="#5B5B5B"/>
        </g>
        <g transform="matrix(0.0625 0.0000 0.0000 0.0625 0.0000 0.0000)">
          <path d="M 452.7332,453.7153 L 452.7332,379.0781 C 452.7332,375.1499 450.7691,371.2216 447.8229,371.2216 L 442.9126,371.2216 C 439.9663,371.2216 438.0022,375.1499 438.0022,379.0781 L 438.0022,453.7153 C 438.0022,457.6436 439.9663,461.5718 442.9126,461.5718 L 447.8229,461.5718 C 450.7691,461.5718 452.7332,457.6436 452.7332,453.7153 " stroke="#0054A6" stroke-width="2.9462" stroke-linecap="round" stroke-linejoin="round" fill="none"/>
        </g>
        <g transform="matrix(1.0000 0.0000 0.0000 1.0000 0.0000 0.0000)">
          <defs>
            <clipPath id="clip-1909002904">
              <path d="M 29.4620,23.5696 L 30.4441,23.5696 L 30.4441,29.4620 L 29.4620,29.4620 L 29.4620,23.5696 Z Z"/>
            </clipPath>
          </defs>
          <path clip-path="url(#clip-1909002904)" d="M 28.4800,22.5876 L 28.4800,23.5696 L 29.4620,23.5696 L 29.4620,22.5876 L 28.4800,22.5876 Z" stroke-width="1px" stroke="#4C4C4C" fill="#4C4C4C"/>
          <path clip-path="url(#clip-1909002904)" d="M 28.4800,23.5696 L 28.4800,24.5517 L 29.4620,24.5517 L 29.4620,23.5696 L 28.4800,23.5696 Z" stroke-width="1px" stroke="#ABABAB" fill="#ABABAB"/>
          <path clip-path="url(#clip-1909002904)" d="M 28.4800,24.5517 L 28.4800,25.5338 L 29.4620,25.5338 L 29.4620,24.5517 L 28.4800,24.5517 Z" stroke-width="1px" stroke="#979797" fill="#979797"/>
          <path clip-path="url(#clip-1909002904)" d="M 28.4800,25.5338 L 28.4800,26.5158 L 29.4620,26.5158 L 29.4620,25.5338 L 28.4800,25.5338 Z" stroke-width="1px" stroke="#838383" fill="#838383"/>
          <path clip-path="url(#clip-1909002904)" d="M 28.4800,26.5158 L 28.4800,27.4979 L 29.4620,27.4979 L 29.4620,26.5158 L 28.4800,26.5158 Z" stroke-width="1px" stroke="#6F6F6F" fill="#6F6F6F"/>
          <path clip-path="url(#clip-1909002904)" d="M 28.4800,27.4979 L 28.4800,28.4800 L 29.4620,28.4800 L 29.4620,27.4979 L 28.4800,27.4979 Z" stroke-width="1px" stroke="#5B5B5B" fill="#5B5B5B"/>
        </g>
        <g transform="matrix(0.0625 0.0000 0.0000 0.0625 0.0000 0.0000)">
          <path d="M 484.1594,453.7153 L 484.1594,379.0781 C 484.1594,375.1499 482.1953,371.2216 479.2491,371.2216 L 474.3387,371.2216 C 471.3925,371.2216 469.4284,375.1499 469.4284,379.0781 L 469.4284,453.7153 C 469.4284,457.6436 471.3925,461.5718 474.3387,461.5718 L 479.2491,461.5718 C 482.1953,461.5718 484.1594,457.6436 484.1594,453.7153 " stroke="#0054A6" stroke-width="2.9462" stroke-linecap="round" stroke-linejoin="round" fill="none"/>
        </g>
        <g transform="matrix(1.0000 0.0000 0.0000 1.0000 0.0000 0.0000)">
          <defs>
            <clipPath id="clip-165344818">
              <path d="M 31.4262,23.5696 L 32.4082,23.5696 L 32.4082,29.4620 L 31.4262,29.4620 L 31.4262,23.5696 Z Z"/>
            </clipPath>
          </defs>
          <path clip-path="url(#clip-165344818)" d="M 30.4441,22.5876 L 30.4441,23.5696 L 31.4262,23.5696 L 31.4262,22.5876 L 30.4441,22.5876 Z" stroke-width="1px" stroke="#4C4C4C" fill="#4C4C4C"/>
          <path clip-path="url(#clip-165344818)" d="M 30.4441,23.5696 L 30.4441,24.5517 L 31.4262,24.5517 L 31.4262,23.5696 L 30.4441,23.5696 Z" stroke-width="1px" stroke="#ABABAB" fill="#ABABAB"/>
          <path clip-path="url(#clip-165344818)" d="M 30.4441,24.5517 L 30.4441,25.5338 L 31.4262,25.5338 L 31.4262,24.5517 L 30.4441,24.5517 Z" stroke-width="1px" stroke="#979797" fill="#979797"/>
          <path clip-path="url(#clip-165344818)" d="M 30.4441,25.5338 L 30.4441,26.5158 L 31.4262,26.5158 L 31.4262,25.5338 L 30.4441,25.5338 Z" stroke-width="1px" stroke="#838383" fill="#838383"/>
          <path clip-path="url(#clip-165344818)" d="M 30.4441,26.5158 L 30.4441,27.4979 L 31.4262,27.4979 L 31.4262,26.5158 L 30.4441,26.5158 Z" stroke-width="1px" stroke="#6F6F6F" fill="#6F6F6F"/>
          <path clip-path="url(#clip-165344818)" d="M 30.4441,27.4979 L 30.4441,28.4800 L 31.4262,28.4800 L 31.4262,27.4979 L 30.4441,27.4979 Z" stroke-width="1px" stroke="#5B5B5B" fill="#5B5B5B"/>
        </g>
        <g transform="matrix(0.0625 0.0000 0.0000 0.0625 0.0000 0.0000)">
          <path d="M 515.5856,453.7153 L 515.5856,379.0781 C 515.5856,375.1499 513.6214,371.2216 510.6752,371.2216 L 505.7649,371.2216 C 502.8187,371.2216 499.8725,375.1499 499.8725,379.0781 L 499.8725,453.7153 C 499.8725,457.6436 502.8187,461.5718 505.7649,461.5718 L 510.6752,461.5718 C 513.6214,461.5718 515.5856,457.6436 515.5856,453.7153 " stroke="#0054A6" stroke-width="2.9462" stroke-linecap="round" stroke-linejoin="round" fill="none"/>
        </g>
        <g transform="matrix(1.0000 0.0000 0.0000 1.0000 0.0000 0.0000)">
          <defs>
            <clipPath id="clip-1395235128">
              <path d="M 25.5338,1.9641 L 26.5158,1.9641 L 26.5158,6.8745 L 25.5338,6.8745 L 25.5338,1.9641 Z Z"/>
            </clipPath>
          </defs>
          <path clip-path="url(#clip-1395235128)" d="M 24.5517,0.9821 L 24.5517,1.9641 L 25.5338,1.9641 L 25.5338,0.9821 L 24.5517,0.9821 Z" stroke-width="1px" stroke="#434343" fill="#434343"/>
          <path clip-path="url(#clip-1395235128)" d="M 24.5517,1.9641 L 24.5517,2.9462 L 25.5338,2.9462 L 25.5338,1.9641 L 24.5517,1.9641 Z" stroke-width="1px" stroke="#A2A2A2" fill="#A2A2A2"/>
          <path clip-path="url(#clip-1395235128)" d="M 24.5517,2.9462 L 24.5517,3.9283 L 25.5338,3.9283 L 25.5338,2.9462 L 24.5517,2.9462 Z" stroke-width="1px" stroke="#8E8E8E" fill="#8E8E8E"/>
          <path clip-path="url(#clip-1395235128)" d="M 24.5517,3.9283 L 24.5517,4.9103 L 25.5338,4.9103 L 25.5338,3.9283 L 24.5517,3.9283 Z" stroke-width="1px" stroke="#7A7A7A" fill="#7A7A7A"/>
          <path clip-path="url(#clip-1395235128)" d="M 24.5517,4.9103 L 24.5517,5.8924 L 25.5338,5.8924 L 25.5338,4.9103 L 24.5517,4.9103 Z" stroke-width="1px" stroke="#666666" fill="#666666"/>
          <path clip-path="url(#clip-1395235128)" d="M 24.5517,5.8924 L 24.5517,6.8745 L 25.5338,6.8745 L 25.5338,5.8924 L 24.5517,5.8924 Z" stroke-width="1px" stroke="#525252" fill="#525252"/>
        </g>
        <g transform="matrix(0.0625 0.0000 0.0000 0.0625 0.0000 0.0000)">
          <path d="M 422.2891,101.1530 L 422.2891,26.5158 C 422.2891,21.6055 419.3429,18.6593 416.3967,18.6593 L 412.4685,18.6593 C 409.5222,18.6593 406.5760,21.6055 406.5760,26.5158 L 406.5760,101.1530 C 406.5760,105.0812 409.5222,109.0095 412.4685,109.0095 L 416.3967,109.0095 C 419.3429,109.0095 422.2891,105.0812 422.2891,101.1530 " stroke="#0054A6" stroke-width="2.9462" stroke-linecap="round" stroke-linejoin="round" fill="none"/>
        </g>
        <g transform="matrix(1.0000 0.0000 0.0000 1.0000 0.0000 0.0000)">
          <defs>
            <clipPath id="clip-532670688">
              <path d="M 27.4979,1.9641 L 28.4800,1.9641 L 28.4800,6.8745 L 27.4979,6.8745 L 27.4979,1.9641 Z Z"/>
            </clipPath>
          </defs>
          <path clip-path="url(#clip-532670688)" d="M 26.5158,0.9821 L 26.5158,1.9641 L 27.4979,1.9641 L 27.4979,0.9821 L 26.5158,0.9821 Z" stroke-width="1px" stroke="#434343" fill="#434343"/>
          <path clip-path="url(#clip-532670688)" d="M 26.5158,1.9641 L 26.5158,2.9462 L 27.4979,2.9462 L 27.4979,1.9641 L 26.5158,1.9641 Z" stroke-width="1px" stroke="#A2A2A2" fill="#A2A2A2"/>
          <path clip-path="url(#clip-532670688)" d="M 26.5158,2.9462 L 26.5158,3.9283 L 27.4979,3.9283 L 27.4979,2.9462 L 26.5158,2.9462 Z" stroke-width="1px" stroke="#8E8E8E" fill="#8E8E8E"/>
          <path clip-path="url(#clip-532670688)" d="M 26.5158,3.9283 L 26.5158,4.9103 L 27.4979,4.9103 L 27.4979,3.9283 L 26.5158,3.9283 Z" stroke-width="1px" stroke="#7A7A7A" fill="#7A7A7A"/>
          <path clip-path="url(#clip-532670688)" d="M 26.5158,4.9103 L 26.5158,5.8924 L 27.4979,5.8924 L 27.4979,4.9103 L 26.5158,4.9103 Z" stroke-width="1px" stroke="#666666" fill="#666666"/>
          <path clip-path="url(#clip-532670688)" d="M 26.5158,5.8924 L 26.5158,6.8745 L 27.4979,6.8745 L 27.4979,5.8924 L 26.5158,5.8924 Z" stroke-width="1px" stroke="#525252" fill="#525252"/>
        </g>
        <g transform="matrix(0.0625 0.0000 0.0000 0.0625 0.0000 0.0000)">
          <path d="M 452.7332,101.1530 L 452.7332,26.5158 C 452.7332,21.6055 450.7691,18.6593 447.8229,18.6593 L 442.9126,18.6593 C 439.9663,18.6593 438.0022,21.6055 438.0022,26.5158 L 438.0022,101.1530 C 438.0022,105.0812 439.9663,109.0095 442.9126,109.0095 L 447.8229,109.0095 C 450.7691,109.0095 452.7332,105.0812 452.7332,101.1530 " stroke="#0054A6" stroke-width="2.9462" stroke-linecap="round" stroke-linejoin="round" fill="none"/>
        </g>
        <g transform="matrix(1.0000 0.0000 0.0000 1.0000 0.0000 0.0000)">
          <defs>
            <clipPath id="clip-1351797369">
              <path d="M 29.4620,1.9641 L 30.4441,1.9641 L 30.4441,6.8745 L 29.4620,6.8745 L 29.4620,1.9641 Z Z"/>
            </clipPath>
          </defs>
          <path clip-path="url(#clip-1351797369)" d="M 28.4800,0.9821 L 28.4800,1.9641 L 29.4620,1.9641 L 29.4620,0.9821 L 28.4800,0.9821 Z" stroke-width="1px" stroke="#434343" fill="#434343"/>
          <path clip-path="url(#clip-1351797369)" d="M 28.4800,1.9641 L 28.4800,2.9462 L 29.4620,2.9462 L 29.4620,1.9641 L 28.4800,1.9641 Z" stroke-width="1px" stroke="#A2A2A2" fill="#A2A2A2"/>
          <path clip-path="url(#clip-1351797369)" d="M 28.4800,2.9462 L 28.4800,3.9283 L 29.4620,3.9283 L 29.4620,2.9462 L 28.4800,2.9462 Z" stroke-width="1px" stroke="#8E8E8E" fill="#8E8E8E"/>
          <path clip-path="url(#clip-1351797369)" d="M 28.4800,3.9283 L 28.4800,4.9103 L 29.4620,4.9103 L 29.4620,3.9283 L 28.4800,3.9283 Z" stroke-width="1px" stroke="#7A7A7A" fill="#7A7A7A"/>
          <path clip-path="url(#clip-1351797369)" d="M 28.4800,4.9103 L 28.4800,5.8924 L 29.4620,5.8924 L 29.4620,4.9103 L 28.4800,4.9103 Z" stroke-width="1px" stroke="#666666" fill="#666666"/>
          <path clip-path="url(#clip-1351797369)" d="M 28.4800,5.8924 L 28.4800,6.8745 L 29.4620,6.8745 L 29.4620,5.8924 L 28.4800,5.8924 Z" stroke-width="1px" stroke="#525252" fill="#525252"/>
        </g>
        <g transform="matrix(0.0625 0.0000 0.0000 0.0625 0.0000 0.0000)">
          <path d="M 484.1594,101.1530 L 484.1594,26.5158 C 484.1594,21.6055 482.1953,18.6593 479.2491,18.6593 L 474.3387,18.6593 C 471.3925,18.6593 469.4284,21.6055 469.4284,26.5158 L 469.4284,101.1530 C 469.4284,105.0812 471.3925,109.0095 474.3387,109.0095 L 479.2491,109.0095 C 482.1953,109.0095 484.1594,105.0812 484.1594,101.1530 " stroke="#0054A6" stroke-width="2.9462" stroke-linecap="round" stroke-linejoin="round" fill="none"/>
        </g>
        <g transform="matrix(1.0000 0.0000 0.0000 1.0000 0.0000 0.0000)">
          <defs>
            <clipPath id="clip-492067917">
              <path d="M 31.4262,1.9641 L 32.4082,1.9641 L 32.4082,6.8745 L 31.4262,6.8745 L 31.4262,1.9641 Z Z"/>
            </clipPath>
          </defs>
          <path clip-path="url(#clip-492067917)" d="M 30.4441,0.9821 L 30.4441,1.9641 L 31.4262,1.9641 L 31.4262,0.9821 L 30.4441,0.9821 Z" stroke-width="1px" stroke="#434343" fill="#434343"/>
          <path clip-path="url(#clip-492067917)" d="M 30.4441,1.9641 L 30.4441,2.9462 L 31.4262,2.9462 L 31.4262,1.9641 L 30.4441,1.9641 Z" stroke-width="1px" stroke="#A2A2A2" fill="#A2A2A2"/>
          <path clip-path="url(#clip-492067917)" d="M 30.4441,2.9462 L 30.4441,3.9283 L 31.4262,3.9283 L 31.4262,2.9462 L 30.4441,2.9462 Z" stroke-width="1px" stroke="#8E8E8E" fill="#8E8E8E"/>
          <path clip-path="url(#clip-492067917)" d="M 30.4441,3.9283 L 30.4441,4.9103 L 31.4262,4.9103 L 31.4262,3.9283 L 30.4441,3.9283 Z" stroke-width="1px" stroke="#7A7A7A" fill="#7A7A7A"/>
          <path clip-path="url(#clip-492067917)" d="M 30.4441,4.9103 L 30.4441,5.8924 L 31.4262,5.8924 L 31.4262,4.9103 L 30.4441,4.9103 Z" stroke-width="1px" stroke="#666666" fill="#666666"/>
          <path clip-path="url(#clip-492067917)" d="M 30.4441,5.8924 L 30.4441,6.8745 L 31.4262,6.8745 L 31.4262,5.8924 L 30.4441,5.8924 Z" stroke-width="1px" stroke="#525252" fill="#525252"/>
        </g>
        <g transform="matrix(0.0625 0.0000 0.0000 0.0625 0.0000 0.0000)">
          <path d="M 515.5856,101.1530 L 515.5856,26.5158 C 515.5856,21.6055 513.6214,18.6593 510.6752,18.6593 L 505.7649,18.6593 C 502.8187,18.6593 499.8725,21.6055 499.8725,26.5158 L 499.8725,101.1530 C 499.8725,105.0812 502.8187,109.0095 505.7649,109.0095 L 510.6752,109.0095 C 513.6214,109.0095 515.5856,105.0812 515.5856,101.1530 " stroke="#0054A6" stroke-width="2.9462" stroke-linecap="round" stroke-linejoin="round" fill="none"/>
        </g>
        <g transform="matrix(1.0000 0.0000 0.0000 1.0000 0.0000 0.0000)">
          <defs>
            <clipPath id="clip-1504569917">
              <path d="M 8.8386,1.9641 L 9.8207,1.9641 L 9.8207,6.8745 L 8.8386,6.8745 L 8.8386,1.9641 Z Z"/>
            </clipPath>
          </defs>
          <path clip-path="url(#clip-1504569917)" d="M 7.8565,0.9821 L 7.8565,1.9641 L 8.8386,1.9641 L 8.8386,0.9821 L 7.8565,0.9821 Z" stroke-width="1px" stroke="#434343" fill="#434343"/>
          <path clip-path="url(#clip-1504569917)" d="M 7.8565,1.9641 L 7.8565,2.9462 L 8.8386,2.9462 L 8.8386,1.9641 L 7.8565,1.9641 Z" stroke-width="1px" stroke="#A2A2A2" fill="#A2A2A2"/>
          <path clip-path="url(#clip-1504569917)" d="M 7.8565,2.9462 L 7.8565,3.9283 L 8.8386,3.9283 L 8.8386,2.9462 L 7.8565,2.9462 Z" stroke-width="1px" stroke="#8E8E8E" fill="#8E8E8E"/>
          <path clip-path="url(#clip-1504569917)" d="M 7.8565,3.9283 L 7.8565,4.9103 L 8.8386,4.9103 L 8.8386,3.9283 L 7.8565,3.9283 Z" stroke-width="1px" stroke="#7A7A7A" fill="#7A7A7A"/>
          <path clip-path="url(#clip-1504569917)" d="M 7.8565,4.9103 L 7.8565,5.8924 L 8.8386,5.8924 L 8.8386,4.9103 L 7.8565,4.9103 Z" stroke-width="1px" stroke="#666666" fill="#666666"/>
          <path clip-path="url(#clip-1504569917)" d="M 7.8565,5.8924 L 7.8565,6.8745 L 8.8386,6.8745 L 8.8386,5.8924 L 7.8565,5.8924 Z" stroke-width="1px" stroke="#525252" fill="#525252"/>
        </g>
        <g transform="matrix(0.0625 0.0000 0.0000 0.0625 0.0000 0.0000)">
          <path d="M 142.3998,101.1530 L 142.3998,26.5158 C 142.3998,21.6055 140.4357,18.6593 137.4895,18.6593 L 132.5791,18.6593 C 129.6329,18.6593 127.6688,21.6055 127.6688,26.5158 L 127.6688,101.1530 C 127.6688,105.0812 129.6329,109.0095 132.5791,109.0095 L 137.4895,109.0095 C 140.4357,109.0095 142.3998,105.0812 142.3998,101.1530 " stroke="#0054A6" stroke-width="2.9462" stroke-linecap="round" stroke-linejoin="round" fill="none"/>
        </g>
        <g transform="matrix(1.0000 0.0000 0.0000 1.0000 0.0000 0.0000)">
          <defs>
            <clipPath id="clip-680466996">
              <path d="M 10.8027,1.9641 L 11.7848,1.9641 L 11.7848,6.8745 L 10.8027,6.8745 L 10.8027,1.9641 Z Z"/>
            </clipPath>
          </defs>
          <path clip-path="url(#clip-680466996)" d="M 9.8207,0.9821 L 9.8207,1.9641 L 10.8027,1.9641 L 10.8027,0.9821 L 9.8207,0.9821 Z" stroke-width="1px" stroke="#434343" fill="#434343"/>
          <path clip-path="url(#clip-680466996)" d="M 9.8207,1.9641 L 9.8207,2.9462 L 10.8027,2.9462 L 10.8027,1.9641 L 9.8207,1.9641 Z" stroke-width="1px" stroke="#A2A2A2" fill="#A2A2A2"/>
          <path clip-path="url(#clip-680466996)" d="M 9.8207,2.9462 L 9.8207,3.9283 L 10.8027,3.9283 L 10.8027,2.9462 L 9.8207,2.9462 Z" stroke-width="1px" stroke="#8E8E8E" fill="#8E8E8E"/>
          <path clip-path="url(#clip-680466996)" d="M 9.8207,3.9283 L 9.8207,4.9103 L 10.8027,4.9103 L 10.8027,3.9283 L 9.8207,3.9283 Z" stroke-width="1px" stroke="#7A7A7A" fill="#7A7A7A"/>
          <path clip-path="url(#clip-680466996)" d="M 9.8207,4.9103 L 9.8207,5.8924 L 10.8027,5.8924 L 10.8027,4.9103 L 9.8207,4.9103 Z" stroke-width="1px" stroke="#666666" fill="#666666"/>
          <path clip-path="url(#clip-680466996)" d="M 9.8207,5.8924 L 9.8207,6.8745 L 10.8027,6.8745 L 10.8027,5.8924 L 9.8207,5.8924 Z" stroke-width="1px" stroke="#525252" fill="#525252"/>
        </g>
        <g transform="matrix(0.0625 0.0000 0.0000 0.0625 0.0000 0.0000)">
          <path d="M 173.8260,101.1530 L 173.8260,26.5158 C 173.8260,21.6055 171.8619,18.6593 168.9157,18.6593 L 164.0053,18.6593 C 161.0591,18.6593 159.0950,21.6055 159.0950,26.5158 L 159.0950,101.1530 C 159.0950,105.0812 161.0591,109.0095 164.0053,109.0095 L 168.9157,109.0095 C 171.8619,109.0095 173.8260,105.0812 173.8260,101.1530 " stroke="#0054A6" stroke-width="2.9462" stroke-linecap="round" stroke-linejoin="round" fill="none"/>
        </g>
        <g transform="matrix(1.0000 0.0000 0.0000 1.0000 0.0000 0.0000)">
          <defs>
            <clipPath id="clip-706043324">
              <path d="M 12.7669,1.9641 L 13.7489,1.9641 L 13.7489,6.8745 L 12.7669,6.8745 L 12.7669,1.9641 Z Z"/>
            </clipPath>
          </defs>
          <path clip-path="url(#clip-706043324)" d="M 11.7848,0.9821 L 11.7848,1.9641 L 12.7669,1.9641 L 12.7669,0.9821 L 11.7848,0.9821 Z" stroke-width="1px" stroke="#434343" fill="#434343"/>
          <path clip-path="url(#clip-706043324)" d="M 11.7848,1.9641 L 11.7848,2.9462 L 12.7669,2.9462 L 12.7669,1.9641 L 11.7848,1.9641 Z" stroke-width="1px" stroke="#A2A2A2" fill="#A2A2A2"/>
          <path clip-path="url(#clip-706043324)" d="M 11.7848,2.9462 L 11.7848,3.9283 L 12.7669,3.9283 L 12.7669,2.9462 L 11.7848,2.9462 Z" stroke-width="1px" stroke="#8E8E8E" fill="#8E8E8E"/>
          <path clip-path="url(#clip-706043324)" d="M 11.7848,3.9283 L 11.7848,4.9103 L 12.7669,4.9103 L 12.7669,3.9283 L 11.7848,3.9283 Z" stroke-width="1px" stroke="#7A7A7A" fill="#7A7A7A"/>
          <path clip-path="url(#clip-706043324)" d="M 11.7848,4.9103 L 11.7848,5.8924 L 12.7669,5.8924 L 12.7669,4.9103 L 11.7848,4.9103 Z" stroke-width="1px" stroke="#666666" fill="#666666"/>
          <path clip-path="url(#clip-706043324)" d="M 11.7848,5.8924 L 11.7848,6.8745 L 12.7669,6.8745 L 12.7669,5.8924 L 11.7848,5.8924 Z" stroke-width="1px" stroke="#525252" fill="#525252"/>
        </g>
        <g transform="matrix(0.0625 0.0000 0.0000 0.0625 0.0000 0.0000)">
          <path d="M 205.2522,101.1530 L 205.2522,26.5158 C 205.2522,21.6055 202.3060,18.6593 199.3598,18.6593 L 195.4315,18.6593 C 192.4853,18.6593 189.5391,21.6055 189.5391,26.5158 L 189.5391,101.1530 C 189.5391,105.0812 192.4853,109.0095 195.4315,109.0095 L 199.3598,109.0095 C 202.3060,109.0095 205.2522,105.0812 205.2522,101.1530 " stroke="#0054A6" stroke-width="2.9462" stroke-linecap="round" stroke-linejoin="round" fill="none"/>
        </g>
        <g transform="matrix(1.0000 0.0000 0.0000 1.0000 0.0000 0.0000)">
          <defs>
            <clipPath id="clip-496987743">
              <path d="M 14.7310,1.9641 L 15.7131,1.9641 L 15.7131,6.8745 L 14.7310,6.8745 L 14.7310,1.9641 Z Z"/>
            </clipPath>
          </defs>
          <path clip-path="url(#clip-496987743)" d="M 13.7489,0.9821 L 13.7489,1.9641 L 14.7310,1.9641 L 14.7310,0.9821 L 13.7489,0.9821 Z" stroke-width="1px" stroke="#434343" fill="#434343"/>
          <path clip-path="url(#clip-496987743)" d="M 13.7489,1.9641 L 13.7489,2.9462 L 14.7310,2.9462 L 14.7310,1.9641 L 13.7489,1.9641 Z" stroke-width="1px" stroke="#A2A2A2" fill="#A2A2A2"/>
          <path clip-path="url(#clip-496987743)" d="M 13.7489,2.9462 L 13.7489,3.9283 L 14.7310,3.9283 L 14.7310,2.9462 L 13.7489,2.9462 Z" stroke-width="1px" stroke="#8E8E8E" fill="#8E8E8E"/>
          <path clip-path="url(#clip-496987743)" d="M 13.7489,3.9283 L 13.7489,4.9103 L 14.7310,4.9103 L 14.7310,3.9283 L 13.7489,3.9283 Z" stroke-width="1px" stroke="#7A7A7A" fill="#7A7A7A"/>
          <path clip-path="url(#clip-496987743)" d="M 13.7489,4.9103 L 13.7489,5.8924 L 14.7310,5.8924 L 14.7310,4.9103 L 13.7489,4.9103 Z" stroke-width="1px" stroke="#666666" fill="#666666"/>
          <path clip-path="url(#clip-496987743)" d="M 13.7489,5.8924 L 13.7489,6.8745 L 14.7310,6.8745 L 14.7310,5.8924 L 13.7489,5.8924 Z" stroke-width="1px" stroke="#525252" fill="#525252"/>
        </g>
        <g transform="matrix(0.0625 0.0000 0.0000 0.0625 0.0000 0.0000)">
          <path d="M 236.6783,101.1530 L 236.6783,26.5158 C 236.6783,21.6055 233.7321,18.6593 230.7859,18.6593 L 226.8576,18.6593 C 223.9114,18.6593 220.9652,21.6055 220.9652,26.5158 L 220.9652,101.1530 C 220.9652,105.0812 223.9114,109.0095 226.8576,109.0095 L 230.7859,109.0095 C 233.7321,109.0095 236.6783,105.0812 236.6783,101.1530 " stroke="#0054A6" stroke-width="2.9462" stroke-linecap="round" stroke-linejoin="round" fill="none"/>
        </g>
        <g transform="matrix(1.0000 0.0000 0.0000 1.0000 0.0000 0.0000)">
</g>
        <g transform="matrix(0.0625 0.0000 0.0000 0.0625 0.0000 0.0000)">
          <path d="M 267.1224,101.1530 L 267.1224,26.5158 C 267.1224,21.6055 265.1583,18.6593 262.2121,18.6593 L 257.3017,18.6593 C 254.3555,18.6593 252.3914,21.6055 252.3914,26.5158 L 252.3914,101.1530 C 252.3914,105.0812 254.3555,109.0095 257.3017,109.0095 L 262.2121,109.0095 C 265.1583,109.0095 267.1224,105.0812 267.1224,101.1530 " stroke="#0054A6" stroke-width="2.9462" stroke-linecap="round" stroke-linejoin="round" fill="none"/>
        </g>
        <g transform="matrix(1.0000 0.0000 0.0000 1.0000 0.0000 0.0000)">
</g>
        <g transform="matrix(0.0625 0.0000 0.0000 0.0625 0.0000 0.0000)">
          <path d="M 298.5486,101.1530 L 298.5486,26.5158 C 298.5486,21.6055 296.5845,18.6593 293.6383,18.6593 L 288.7279,18.6593 C 285.7817,18.6593 283.8176,21.6055 283.8176,26.5158 L 283.8176,101.1530 C 283.8176,105.0812 285.7817,109.0095 288.7279,109.0095 L 293.6383,109.0095 C 296.5845,109.0095 298.5486,105.0812 298.5486,101.1530 " stroke="#0054A6" stroke-width="2.9462" stroke-linecap="round" stroke-linejoin="round" fill="none"/>
        </g>
        <g transform="matrix(1.0000 0.0000 0.0000 1.0000 0.0000 0.0000)">
</g>
        <g transform="matrix(0.0625 0.0000 0.0000 0.0625 0.0000 0.0000)">
          <path d="M 329.9748,101.1530 L 329.9748,26.5158 C 329.9748,21.6055 328.0106,18.6593 325.0644,18.6593 L 320.1541,18.6593 C 317.2079,18.6593 315.2437,21.6055 315.2437,26.5158 L 315.2437,101.1530 C 315.2437,105.0812 317.2079,109.0095 320.1541,109.0095 L 325.0644,109.0095 C 328.0106,109.0095 329.9748,105.0812 329.9748,101.1530 " stroke="#0054A6" stroke-width="2.9462" stroke-linecap="round" stroke-linejoin="round" fill="none"/>
        </g>
        <g transform="matrix(1.0000 0.0000 0.0000 1.0000 0.0000 0.0000)">
          <defs>
            <clipPath id="clip-159259470">
              <path d="M 21.6055,1.9641 L 22.5876,1.9641 L 22.5876,6.8745 L 21.6055,6.8745 L 21.6055,1.9641 Z Z"/>
            </clipPath>
          </defs>
          <path clip-path="url(#clip-159259470)" d="M 21.6055,0.9821 L 21.6055,1.9641 L 22.5876,1.9641 L 22.5876,0.9821 L 21.6055,0.9821 Z" stroke-width="1px" stroke="#434343" fill="#434343"/>
          <path clip-path="url(#clip-159259470)" d="M 21.6055,1.9641 L 21.6055,2.9462 L 22.5876,2.9462 L 22.5876,1.9641 L 21.6055,1.9641 Z" stroke-width="1px" stroke="#A2A2A2" fill="#A2A2A2"/>
          <path clip-path="url(#clip-159259470)" d="M 21.6055,2.9462 L 21.6055,3.9283 L 22.5876,3.9283 L 22.5876,2.9462 L 21.6055,2.9462 Z" stroke-width="1px" stroke="#8E8E8E" fill="#8E8E8E"/>
          <path clip-path="url(#clip-159259470)" d="M 21.6055,3.9283 L 21.6055,4.9103 L 22.5876,4.9103 L 22.5876,3.9283 L 21.6055,3.9283 Z" stroke-width="1px" stroke="#7A7A7A" fill="#7A7A7A"/>
          <path clip-path="url(#clip-159259470)" d="M 21.6055,4.9103 L 21.6055,5.8924 L 22.5876,5.8924 L 22.5876,4.9103 L 21.6055,4.9103 Z" stroke-width="1px" stroke="#666666" fill="#666666"/>
          <path clip-path="url(#clip-159259470)" d="M 21.6055,5.8924 L 21.6055,6.8745 L 22.5876,6.8745 L 22.5876,5.8924 L 21.6055,5.8924 Z" stroke-width="1px" stroke="#525252" fill="#525252"/>
        </g>
        <g transform="matrix(0.0625 0.0000 0.0000 0.0625 0.0000 0.0000)">
          <path d="M 361.4009,101.1530 L 361.4009,26.5158 C 361.4009,21.6055 358.4547,18.6593 355.5085,18.6593 L 351.5803,18.6593 C 348.6340,18.6593 345.6878,21.6055 345.6878,26.5158 L 345.6878,101.1530 C 345.6878,105.0812 348.6340,109.0095 351.5803,109.0095 L 355.5085,109.0095 C 358.4547,109.0095 361.4009,105.0812 361.4009,101.1530 " stroke="#0054A6" stroke-width="2.9462" stroke-linecap="round" stroke-linejoin="round" fill="none"/>
        </g>
        <g transform="matrix(1.0000 0.0000 0.0000 1.0000 0.0000 0.0000)">
          <defs>
            <clipPath id="clip-1359512183">
              <path d="M 23.5696,1.9641 L 24.5517,1.9641 L 24.5517,6.8745 L 23.5696,6.8745 L 23.5696,1.9641 Z Z"/>
            </clipPath>
          </defs>
          <path clip-path="url(#clip-1359512183)" d="M 22.5876,0.9821 L 22.5876,1.9641 L 23.5696,1.9641 L 23.5696,0.9821 L 22.5876,0.9821 Z" stroke-width="1px" stroke="#434343" fill="#434343"/>
          <path clip-path="url(#clip-1359512183)" d="M 22.5876,1.9641 L 22.5876,2.9462 L 23.5696,2.9462 L 23.5696,1.9641 L 22.5876,1.9641 Z" stroke-width="1px" stroke="#A2A2A2" fill="#A2A2A2"/>
          <path clip-path="url(#clip-1359512183)" d="M 22.5876,2.9462 L 22.5876,3.9283 L 23.5696,3.9283 L 23.5696,2.9462 L 22.5876,2.9462 Z" stroke-width="1px" stroke="#8E8E8E" fill="#8E8E8E"/>
          <path clip-path="url(#clip-1359512183)" d="M 22.5876,3.9283 L 22.5876,4.9103 L 23.5696,4.9103 L 23.5696,3.9283 L 22.5876,3.9283 Z" stroke-width="1px" stroke="#7A7A7A" fill="#7A7A7A"/>
          <path clip-path="url(#clip-1359512183)" d="M 22.5876,4.9103 L 22.5876,5.8924 L 23.5696,5.8924 L 23.5696,4.9103 L 22.5876,4.9103 Z" stroke-width="1px" stroke="#666666" fill="#666666"/>
          <path clip-path="url(#clip-1359512183)" d="M 22.5876,5.8924 L 22.5876,6.8745 L 23.5696,6.8745 L 23.5696,5.8924 L 22.5876,5.8924 Z" stroke-width="1px" stroke="#525252" fill="#525252"/>
        </g>
        <g transform="matrix(0.0625 0.0000 0.0000 0.0625 0.0000 0.0000)">
          <path d="M 391.8450,101.1530 L 391.8450,26.5158 C 391.8450,21.6055 388.8988,18.6593 385.9526,18.6593 L 382.0244,18.6593 C 379.0781,18.6593 376.1319,21.6055 376.1319,26.5158 L 376.1319,101.1530 C 376.1319,105.0812 379.0781,109.0095 382.0244,109.0095 L 385.9526,109.0095 C 388.8988,109.0095 391.8450,105.0812 391.8450,101.1530 " stroke="#0054A6" stroke-width="2.9462" stroke-linecap="round" stroke-linejoin="round" fill="none"/>
        </g>
        <g transform="matrix(1.0000 0.0000 0.0000 1.0000 0.0000 0.0000)">
          <defs>
            <clipPath id="clip-480298490">
              <path d="M 6.8745,4.9103 L 34.3724,4.9103 L 34.3724,25.5338 L 6.8745,25.5338 L 6.8745,4.9103 Z Z"/>
            </clipPath>
          </defs>
          <path clip-path="url(#clip-480298490)" d="M 5.8924,3.9283 L 5.8924,4.9103 L 34.3724,4.9103 L 34.3724,3.9283 L 5.8924,3.9283 Z" stroke-width="1px" stroke="#E1E1E1" fill="#E1E1E1"/>
          <path clip-path="url(#clip-480298490)" d="M 5.8924,4.9103 L 5.8924,5.8924 L 34.3724,5.8924 L 34.3724,4.9103 L 5.8924,4.9103 Z" stroke-width="1px" stroke="#676767" fill="#676767"/>
          <path clip-path="url(#clip-480298490)" d="M 5.8924,5.8924 L 5.8924,6.8745 L 34.3724,6.8745 L 34.3724,5.8924 L 5.8924,5.8924 Z" stroke-width="1px" stroke="#6D6D6D" fill="#6D6D6D"/>
          <path clip-path="url(#clip-480298490)" d="M 5.8924,6.8745 L 5.8924,7.8565 L 34.3724,7.8565 L 34.3724,6.8745 L 5.8924,6.8745 Z" stroke-width="1px" stroke="#737373" fill="#737373"/>
          <path clip-path="url(#clip-480298490)" d="M 5.8924,7.8565 L 5.8924,8.8386 L 34.3724,8.8386 L 34.3724,7.8565 L 5.8924,7.8565 Z" stroke-width="1px" stroke="#7A7A7A" fill="#7A7A7A"/>
          <path clip-path="url(#clip-480298490)" d="M 5.8924,8.8386 L 5.8924,9.8207 L 34.3724,9.8207 L 34.3724,8.8386 L 5.8924,8.8386 Z" stroke-width="1px" stroke="#808080" fill="#808080"/>
          <path clip-path="url(#clip-480298490)" d="M 5.8924,9.8207 L 5.8924,10.8027 L 34.3724,10.8027 L 34.3724,9.8207 L 5.8924,9.8207 Z" stroke-width="1px" stroke="#868686" fill="#868686"/>
          <path clip-path="url(#clip-480298490)" d="M 5.8924,10.8027 L 5.8924,11.7848 L 34.3724,11.7848 L 34.3724,10.8027 L 5.8924,10.8027 Z" stroke-width="1px" stroke="#8C8C8C" fill="#8C8C8C"/>
          <path clip-path="url(#clip-480298490)" d="M 5.8924,11.7848 L 5.8924,12.7669 L 34.3724,12.7669 L 34.3724,11.7848 L 5.8924,11.7848 Z" stroke-width="1px" stroke="#929292" fill="#929292"/>
          <path clip-path="url(#clip-480298490)" d="M 5.8924,12.7669 L 5.8924,13.7489 L 34.3724,13.7489 L 34.3724,12.7669 L 5.8924,12.7669 Z" stroke-width="1px" stroke="#989898" fill="#989898"/>
          <path clip-path="url(#clip-480298490)" d="M 5.8924,13.7489 L 5.8924,14.7310 L 34.3724,14.7310 L 34.3724,13.7489 L 5.8924,13.7489 Z" stroke-width="1px" stroke="#9E9E9E" fill="#9E9E9E"/>
          <path clip-path="url(#clip-480298490)" d="M 5.8924,14.7310 L 5.8924,15.7131 L 34.3724,15.7131 L 34.3724,14.7310 L 5.8924,14.7310 Z" stroke-width="1px" stroke="#A4A4A4" fill="#A4A4A4"/>
          <path clip-path="url(#clip-480298490)" d="M 5.8924,15.7131 L 5.8924,16.6952 L 34.3724,16.6952 L 34.3724,15.7131 L 5.8924,15.7131 Z" stroke-width="1px" stroke="#AAAAAA" fill="#AAAAAA"/>
          <path clip-path="url(#clip-480298490)" d="M 5.8924,16.6952 L 5.8924,17.6772 L 34.3724,17.6772 L 34.3724,16.6952 L 5.8924,16.6952 Z" stroke-width="1px" stroke="#B0B0B0" fill="#B0B0B0"/>
          <path clip-path="url(#clip-480298490)" d="M 5.8924,17.6772 L 5.8924,18.6593 L 34.3724,18.6593 L 34.3724,17.6772 L 5.8924,17.6772 Z" stroke-width="1px" stroke="#B7B7B7" fill="#B7B7B7"/>
          <path clip-path="url(#clip-480298490)" d="M 5.8924,18.6593 L 5.8924,19.6414 L 34.3724,19.6414 L 34.3724,18.6593 L 5.8924,18.6593 Z" stroke-width="1px" stroke="#BDBDBD" fill="#BDBDBD"/>
          <path clip-path="url(#clip-480298490)" d="M 5.8924,19.6414 L 5.8924,20.6234 L 34.3724,20.6234 L 34.3724,19.6414 L 5.8924,19.6414 Z" stroke-width="1px" stroke="#C3C3C3" fill="#C3C3C3"/>
          <path clip-path="url(#clip-480298490)" d="M 5.8924,20.6234 L 5.8924,21.6055 L 34.3724,21.6055 L 34.3724,20.6234 L 5.8924,20.6234 Z" stroke-width="1px" stroke="#C9C9C9" fill="#C9C9C9"/>
          <path clip-path="url(#clip-480298490)" d="M 5.8924,21.6055 L 5.8924,22.5876 L 34.3724,22.5876 L 34.3724,21.6055 L 5.8924,21.6055 Z" stroke-width="1px" stroke="#CFCFCF" fill="#CFCFCF"/>
          <path clip-path="url(#clip-480298490)" d="M 5.8924,22.5876 L 5.8924,23.5696 L 34.3724,23.5696 L 34.3724,22.5876 L 5.8924,22.5876 Z" stroke-width="1px" stroke="#D5D5D5" fill="#D5D5D5"/>
          <path clip-path="url(#clip-480298490)" d="M 5.8924,23.5696 L 5.8924,24.5517 L 34.3724,24.5517 L 34.3724,23.5696 L 5.8924,23.5696 Z" stroke-width="1px" stroke="#DBDBDB" fill="#DBDBDB"/>
        </g>
        <g transform="matrix(0.0625 0.0000 0.0000 0.0625 0.0000 0.0000)">
          <path d="M 535.2269,75.6192 L 109.9916,75.6192 C 109.0095,75.6192 107.0454,76.6013 105.0812,77.5834 C 102.1350,79.5475 100.1709,82.4937 100.1709,85.4399 L 100.1709,85.4399 L 100.1709,395.7733 C 100.1709,399.7016 103.1171,402.6478 106.0633,404.6119 C 107.0454,405.5940 109.0095,405.5940 109.9916,405.5940 L 109.9916,405.5940 L 535.2269,405.5940 C 541.1193,405.5940 545.0476,400.6836 545.0476,395.7733 C 545.0476,395.7733 545.0476,395.7733 545.0476,395.7733 L 545.0476,395.7733 L 545.0476,85.4399 C 545.0476,85.4399 545.0476,85.4399 545.0476,84.4578 C 545.0476,79.5475 540.1373,75.6192 535.2269,75.6192 " stroke="#0054A6" stroke-width="9.8207" stroke-linecap="round" stroke-linejoin="round" fill="none"/>
        </g>
        <g transform="matrix(1.0000 0.0000 0.0000 1.0000 0.0000 0.0000)">
</g>
        <g transform="matrix(0.0625 0.0000 0.0000 0.0625 0.0000 0.0000)">
          <path d="M 354.5265,119.8123 L 254.3555,253.3735 L 294.6203,253.3735 L 205.2522,371.2216 L 375.1499,236.6783 L 328.0106,236.6783 L 444.8767,119.8123 L 354.5265,119.8123 Z" stroke-width="1px" stroke="#FBB040" fill="#FBB040"/>
        </g>
        <g transform="matrix(1.0000 0.0000 0.0000 1.0000 0.0000 0.0000)">
</g>
        <g transform="matrix(0.0625 0.0000 0.0000 0.0625 0.0000 0.0000)">
          <path d="M 354.5265,119.8123 L 254.3555,253.3735 L 294.6203,253.3735 L 205.2522,371.2216 L 375.1499,236.6783 L 328.0106,236.6783 L 444.8767,119.8123 L 354.5265,119.8123 Z" stroke="#0054A6" stroke-width="5.8924" stroke-linecap="round" stroke-linejoin="round" fill="none"/>
        </g>
        <g transform="matrix(1.0000 0.0000 0.0000 1.0000 0.0000 0.0000)">
</g>
      </g>
      <!--emf-blob end-->
    </g>
  </g>
</svg>
