<svg xmlns="http://www.w3.org/2000/svg" xmlns:xlink="http://www.w3.org/1999/xlink" version="1.1" width="71.0775000000" height="37.7534000000">
  <title><![CDATA[PAM Card]]></title>
  <g transform=" scale(1.000000) ">
    <!--converted by libvisio2svg-->
    <g transform=" translate(-1.011700,-1.006100) ">
      <!--emf-blob start-->
      <g transform="translate(0.9769, -0.0000)">
        <path d="M 20.5152,32.2382 C 20.5152,32.2382 20.5152,32.2382 20.5152,32.2382 L 20.5152,30.2844 L 18.5614,30.2844 L 18.5614,32.2382 C 18.5614,32.2382 18.5614,32.2382 18.5614,32.2382 L 14.6537,32.2382 C 14.6537,32.2382 14.6537,32.2382 14.6537,32.2382 L 14.6537,30.2844 L 9.7691,30.2844 L 9.7691,32.2382 C 9.7691,32.2382 9.7691,32.2382 9.7691,32.2382 L 6.8384,32.2382 C 6.8384,32.2382 6.8384,32.2382 6.8384,32.2382 L 6.8384,30.2844 L 5.8615,30.2844 C 5.8615,30.2844 5.8615,30.2844 5.8615,30.2844 C 4.8846,30.2844 3.9077,29.3074 3.9077,29.3074 L 3.9077,3.9077 C 3.9077,2.9307 4.8846,2.9307 5.8615,2.9307 L 69.3609,2.9307 C 70.3379,2.9307 71.3148,2.9307 71.3148,3.9077 L 71.3148,29.3074 C 71.3148,29.3074 70.3379,30.2844 69.3609,30.2844 L 31.2613,30.2844 L 31.2613,32.2382 C 31.2613,32.2382 31.2613,32.2382 31.2613,32.2382 L 20.5152,32.2382 Z " fill="none" stroke="none"/>
        <defs>
          <clipPath id="clip-1960709859">
            <path d="M 20.5152,32.2382 C 20.5152,32.2382 20.5152,32.2382 20.5152,32.2382 L 20.5152,30.2844 L 18.5614,30.2844 L 18.5614,32.2382 C 18.5614,32.2382 18.5614,32.2382 18.5614,32.2382 L 14.6537,32.2382 C 14.6537,32.2382 14.6537,32.2382 14.6537,32.2382 L 14.6537,30.2844 L 9.7691,30.2844 L 9.7691,32.2382 C 9.7691,32.2382 9.7691,32.2382 9.7691,32.2382 L 6.8384,32.2382 C 6.8384,32.2382 6.8384,32.2382 6.8384,32.2382 L 6.8384,30.2844 L 5.8615,30.2844 C 5.8615,30.2844 5.8615,30.2844 5.8615,30.2844 C 4.8846,30.2844 3.9077,29.3074 3.9077,29.3074 L 3.9077,3.9077 C 3.9077,2.9307 4.8846,2.9307 5.8615,2.9307 L 69.3609,2.9307 C 70.3379,2.9307 71.3148,2.9307 71.3148,3.9077 L 71.3148,29.3074 C 71.3148,29.3074 70.3379,30.2844 69.3609,30.2844 L 31.2613,30.2844 L 31.2613,32.2382 C 31.2613,32.2382 31.2613,32.2382 31.2613,32.2382 L 20.5152,32.2382 Z"/>
          </clipPath>
        </defs>
        <path clip-path="url(#clip-1960709859)" d="M 2.9307,1.9538 L 2.9307,32.2382 L 3.9077,32.2382 L 3.9077,1.9538 L 2.9307,1.9538 Z" stroke-width="1px" stroke="#63B4E6" fill="#63B4E6"/>
        <path clip-path="url(#clip-1960709859)" d="M 3.9077,1.9538 L 3.9077,32.2382 L 4.8846,32.2382 L 4.8846,1.9538 L 3.9077,1.9538 Z" stroke-width="1px" stroke="#1D87CD" fill="#1D87CD"/>
        <path clip-path="url(#clip-1960709859)" d="M 4.8846,1.9538 L 4.8846,32.2382 L 5.8615,32.2382 L 5.8615,1.9538 L 4.8846,1.9538 Z" stroke-width="1px" stroke="#1E88CE" fill="#1E88CE"/>
        <path clip-path="url(#clip-1960709859)" d="M 5.8615,1.9538 L 5.8615,32.2382 L 6.8384,32.2382 L 6.8384,1.9538 L 5.8615,1.9538 Z" stroke-width="1px" stroke="#1F88CE" fill="#1F88CE"/>
        <path clip-path="url(#clip-1960709859)" d="M 6.8384,1.9538 L 6.8384,32.2382 L 7.8153,32.2382 L 7.8153,1.9538 L 6.8384,1.9538 Z" stroke-width="1px" stroke="#2089CE" fill="#2089CE"/>
        <path clip-path="url(#clip-1960709859)" d="M 7.8153,1.9538 L 7.8153,32.2382 L 8.7922,32.2382 L 8.7922,1.9538 L 7.8153,1.9538 Z" stroke-width="1px" stroke="#218ACF" fill="#218ACF"/>
        <path clip-path="url(#clip-1960709859)" d="M 8.7922,1.9538 L 8.7922,32.2382 L 9.7691,32.2382 L 9.7691,1.9538 L 8.7922,1.9538 Z" stroke-width="1px" stroke="#228BCF" fill="#228BCF"/>
        <path clip-path="url(#clip-1960709859)" d="M 9.7691,1.9538 L 9.7691,32.2382 L 10.7461,32.2382 L 10.7461,1.9538 L 9.7691,1.9538 Z" stroke-width="1px" stroke="#238BCF" fill="#238BCF"/>
        <path clip-path="url(#clip-1960709859)" d="M 10.7461,1.9538 L 10.7461,32.2382 L 11.7230,32.2382 L 11.7230,1.9538 L 10.7461,1.9538 Z" stroke-width="1px" stroke="#248CD0" fill="#248CD0"/>
        <path clip-path="url(#clip-1960709859)" d="M 11.7230,1.9538 L 11.7230,32.2382 L 12.6999,32.2382 L 12.6999,1.9538 L 11.7230,1.9538 Z" stroke-width="1px" stroke="#258DD0" fill="#258DD0"/>
        <path clip-path="url(#clip-1960709859)" d="M 12.6999,1.9538 L 12.6999,32.2382 L 13.6768,32.2382 L 13.6768,1.9538 L 12.6999,1.9538 Z" stroke-width="1px" stroke="#278DD0" fill="#278DD0"/>
        <path clip-path="url(#clip-1960709859)" d="M 13.6768,1.9538 L 13.6768,32.2382 L 14.6537,32.2382 L 14.6537,1.9538 L 13.6768,1.9538 Z" stroke-width="1px" stroke="#278ED1" fill="#278ED1"/>
        <path clip-path="url(#clip-1960709859)" d="M 14.6537,1.9538 L 14.6537,32.2382 L 15.6306,32.2382 L 15.6306,1.9538 L 14.6537,1.9538 Z" stroke-width="1px" stroke="#288FD1" fill="#288FD1"/>
        <path clip-path="url(#clip-1960709859)" d="M 15.6306,1.9538 L 15.6306,32.2382 L 16.6075,32.2382 L 16.6075,1.9538 L 15.6306,1.9538 Z" stroke-width="1px" stroke="#298FD2" fill="#298FD2"/>
        <path clip-path="url(#clip-1960709859)" d="M 16.6075,1.9538 L 16.6075,32.2382 L 17.5845,32.2382 L 17.5845,1.9538 L 16.6075,1.9538 Z" stroke-width="1px" stroke="#2A90D2" fill="#2A90D2"/>
        <path clip-path="url(#clip-1960709859)" d="M 17.5845,1.9538 L 17.5845,32.2382 L 18.5614,32.2382 L 18.5614,1.9538 L 17.5845,1.9538 Z" stroke-width="1px" stroke="#2C91D2" fill="#2C91D2"/>
        <path clip-path="url(#clip-1960709859)" d="M 18.5614,1.9538 L 18.5614,32.2382 L 19.5383,32.2382 L 19.5383,1.9538 L 18.5614,1.9538 Z" stroke-width="1px" stroke="#2D92D3" fill="#2D92D3"/>
        <path clip-path="url(#clip-1960709859)" d="M 19.5383,1.9538 L 19.5383,32.2382 L 20.5152,32.2382 L 20.5152,1.9538 L 19.5383,1.9538 Z" stroke-width="1px" stroke="#2E92D3" fill="#2E92D3"/>
        <path clip-path="url(#clip-1960709859)" d="M 20.5152,1.9538 L 20.5152,32.2382 L 21.4921,32.2382 L 21.4921,1.9538 L 20.5152,1.9538 Z" stroke-width="1px" stroke="#2F93D3" fill="#2F93D3"/>
        <path clip-path="url(#clip-1960709859)" d="M 21.4921,1.9538 L 21.4921,32.2382 L 22.4690,32.2382 L 22.4690,1.9538 L 21.4921,1.9538 Z" stroke-width="1px" stroke="#3093D3" fill="#3093D3"/>
        <path clip-path="url(#clip-1960709859)" d="M 22.4690,1.9538 L 22.4690,32.2382 L 23.4460,32.2382 L 23.4460,1.9538 L 22.4690,1.9538 Z" stroke-width="1px" stroke="#3194D4" fill="#3194D4"/>
        <path clip-path="url(#clip-1960709859)" d="M 23.4460,1.9538 L 23.4460,32.2382 L 24.4229,32.2382 L 24.4229,1.9538 L 23.4460,1.9538 Z" stroke-width="1px" stroke="#3294D4" fill="#3294D4"/>
        <path clip-path="url(#clip-1960709859)" d="M 24.4229,1.9538 L 24.4229,32.2382 L 25.3998,32.2382 L 25.3998,1.9538 L 24.4229,1.9538 Z" stroke-width="1px" stroke="#3395D5" fill="#3395D5"/>
        <path clip-path="url(#clip-1960709859)" d="M 25.3998,1.9538 L 25.3998,32.2382 L 26.3767,32.2382 L 26.3767,1.9538 L 25.3998,1.9538 Z" stroke-width="1px" stroke="#3496D5" fill="#3496D5"/>
        <path clip-path="url(#clip-1960709859)" d="M 26.3767,1.9538 L 26.3767,32.2382 L 27.3536,32.2382 L 27.3536,1.9538 L 26.3767,1.9538 Z" stroke-width="1px" stroke="#3596D5" fill="#3596D5"/>
        <path clip-path="url(#clip-1960709859)" d="M 27.3536,1.9538 L 27.3536,32.2382 L 28.3305,32.2382 L 28.3305,1.9538 L 27.3536,1.9538 Z" stroke-width="1px" stroke="#3697D6" fill="#3697D6"/>
        <path clip-path="url(#clip-1960709859)" d="M 28.3305,1.9538 L 28.3305,32.2382 L 29.3074,32.2382 L 29.3074,1.9538 L 28.3305,1.9538 Z" stroke-width="1px" stroke="#3798D6" fill="#3798D6"/>
        <path clip-path="url(#clip-1960709859)" d="M 29.3074,1.9538 L 29.3074,32.2382 L 30.2844,32.2382 L 30.2844,1.9538 L 29.3074,1.9538 Z" stroke-width="1px" stroke="#3898D6" fill="#3898D6"/>
        <path clip-path="url(#clip-1960709859)" d="M 30.2844,1.9538 L 30.2844,32.2382 L 31.2613,32.2382 L 31.2613,1.9538 L 30.2844,1.9538 Z" stroke-width="1px" stroke="#3999D7" fill="#3999D7"/>
        <path clip-path="url(#clip-1960709859)" d="M 31.2613,1.9538 L 31.2613,32.2382 L 32.2382,32.2382 L 32.2382,1.9538 L 31.2613,1.9538 Z" stroke-width="1px" stroke="#3A9AD7" fill="#3A9AD7"/>
        <path clip-path="url(#clip-1960709859)" d="M 32.2382,1.9538 L 32.2382,32.2382 L 33.2151,32.2382 L 33.2151,1.9538 L 32.2382,1.9538 Z" stroke-width="1px" stroke="#3B9AD8" fill="#3B9AD8"/>
        <path clip-path="url(#clip-1960709859)" d="M 33.2151,1.9538 L 33.2151,32.2382 L 34.1920,32.2382 L 34.1920,1.9538 L 33.2151,1.9538 Z" stroke-width="1px" stroke="#3C9BD8" fill="#3C9BD8"/>
        <path clip-path="url(#clip-1960709859)" d="M 34.1920,1.9538 L 34.1920,32.2382 L 35.1689,32.2382 L 35.1689,1.9538 L 34.1920,1.9538 Z" stroke-width="1px" stroke="#3D9CD9" fill="#3D9CD9"/>
        <path clip-path="url(#clip-1960709859)" d="M 35.1689,1.9538 L 35.1689,32.2382 L 36.1458,32.2382 L 36.1458,1.9538 L 35.1689,1.9538 Z" stroke-width="1px" stroke="#3F9DD9" fill="#3F9DD9"/>
        <path clip-path="url(#clip-1960709859)" d="M 36.1458,1.9538 L 36.1458,32.2382 L 37.1228,32.2382 L 37.1228,1.9538 L 36.1458,1.9538 Z" stroke-width="1px" stroke="#409DD9" fill="#409DD9"/>
        <path clip-path="url(#clip-1960709859)" d="M 37.1228,1.9538 L 37.1228,32.2382 L 38.0997,32.2382 L 38.0997,1.9538 L 37.1228,1.9538 Z" stroke-width="1px" stroke="#419EDA" fill="#419EDA"/>
        <path clip-path="url(#clip-1960709859)" d="M 38.0997,1.9538 L 38.0997,32.2382 L 39.0766,32.2382 L 39.0766,1.9538 L 38.0997,1.9538 Z" stroke-width="1px" stroke="#429FDA" fill="#429FDA"/>
        <path clip-path="url(#clip-1960709859)" d="M 39.0766,1.9538 L 39.0766,32.2382 L 40.0535,32.2382 L 40.0535,1.9538 L 39.0766,1.9538 Z" stroke-width="1px" stroke="#439FDA" fill="#439FDA"/>
        <path clip-path="url(#clip-1960709859)" d="M 40.0535,1.9538 L 40.0535,32.2382 L 41.0304,32.2382 L 41.0304,1.9538 L 40.0535,1.9538 Z" stroke-width="1px" stroke="#44A0DB" fill="#44A0DB"/>
        <path clip-path="url(#clip-1960709859)" d="M 41.0304,1.9538 L 41.0304,32.2382 L 42.0073,32.2382 L 42.0073,1.9538 L 41.0304,1.9538 Z" stroke-width="1px" stroke="#45A1DB" fill="#45A1DB"/>
        <path clip-path="url(#clip-1960709859)" d="M 42.0073,1.9538 L 42.0073,32.2382 L 42.9842,32.2382 L 42.9842,1.9538 L 42.0073,1.9538 Z" stroke-width="1px" stroke="#46A1DB" fill="#46A1DB"/>
        <path clip-path="url(#clip-1960709859)" d="M 42.9842,1.9538 L 42.9842,32.2382 L 43.9612,32.2382 L 43.9612,1.9538 L 42.9842,1.9538 Z" stroke-width="1px" stroke="#47A2DC" fill="#47A2DC"/>
        <path clip-path="url(#clip-1960709859)" d="M 43.9612,1.9538 L 43.9612,32.2382 L 44.9381,32.2382 L 44.9381,1.9538 L 43.9612,1.9538 Z" stroke-width="1px" stroke="#47A3DC" fill="#47A3DC"/>
        <path clip-path="url(#clip-1960709859)" d="M 44.9381,1.9538 L 44.9381,32.2382 L 45.9150,32.2382 L 45.9150,1.9538 L 44.9381,1.9538 Z" stroke-width="1px" stroke="#48A4DD" fill="#48A4DD"/>
        <path clip-path="url(#clip-1960709859)" d="M 45.9150,1.9538 L 45.9150,32.2382 L 46.8919,32.2382 L 46.8919,1.9538 L 45.9150,1.9538 Z" stroke-width="1px" stroke="#49A4DD" fill="#49A4DD"/>
        <path clip-path="url(#clip-1960709859)" d="M 46.8919,1.9538 L 46.8919,32.2382 L 47.8688,32.2382 L 47.8688,1.9538 L 46.8919,1.9538 Z" stroke-width="1px" stroke="#4BA5DD" fill="#4BA5DD"/>
        <path clip-path="url(#clip-1960709859)" d="M 47.8688,1.9538 L 47.8688,32.2382 L 48.8457,32.2382 L 48.8457,1.9538 L 47.8688,1.9538 Z" stroke-width="1px" stroke="#4CA6DE" fill="#4CA6DE"/>
        <path clip-path="url(#clip-1960709859)" d="M 48.8457,1.9538 L 48.8457,32.2382 L 49.8226,32.2382 L 49.8226,1.9538 L 48.8457,1.9538 Z" stroke-width="1px" stroke="#4DA6DE" fill="#4DA6DE"/>
        <path clip-path="url(#clip-1960709859)" d="M 49.8226,1.9538 L 49.8226,32.2382 L 50.7996,32.2382 L 50.7996,1.9538 L 49.8226,1.9538 Z" stroke-width="1px" stroke="#4EA7DE" fill="#4EA7DE"/>
        <path clip-path="url(#clip-1960709859)" d="M 50.7996,1.9538 L 50.7996,32.2382 L 51.7765,32.2382 L 51.7765,1.9538 L 50.7996,1.9538 Z" stroke-width="1px" stroke="#4FA8DF" fill="#4FA8DF"/>
        <path clip-path="url(#clip-1960709859)" d="M 51.7765,1.9538 L 51.7765,32.2382 L 52.7534,32.2382 L 52.7534,1.9538 L 51.7765,1.9538 Z" stroke-width="1px" stroke="#50A8DF" fill="#50A8DF"/>
        <path clip-path="url(#clip-1960709859)" d="M 52.7534,1.9538 L 52.7534,32.2382 L 53.7303,32.2382 L 53.7303,1.9538 L 52.7534,1.9538 Z" stroke-width="1px" stroke="#51A9DF" fill="#51A9DF"/>
        <path clip-path="url(#clip-1960709859)" d="M 53.7303,1.9538 L 53.7303,32.2382 L 54.7072,32.2382 L 54.7072,1.9538 L 53.7303,1.9538 Z" stroke-width="1px" stroke="#52AAE0" fill="#52AAE0"/>
        <path clip-path="url(#clip-1960709859)" d="M 54.7072,1.9538 L 54.7072,32.2382 L 55.6841,32.2382 L 55.6841,1.9538 L 54.7072,1.9538 Z" stroke-width="1px" stroke="#53AAE0" fill="#53AAE0"/>
        <path clip-path="url(#clip-1960709859)" d="M 55.6841,1.9538 L 55.6841,32.2382 L 56.6610,32.2382 L 56.6610,1.9538 L 55.6841,1.9538 Z" stroke-width="1px" stroke="#54ABE0" fill="#54ABE0"/>
        <path clip-path="url(#clip-1960709859)" d="M 56.6610,1.9538 L 56.6610,32.2382 L 57.6380,32.2382 L 57.6380,1.9538 L 56.6610,1.9538 Z" stroke-width="1px" stroke="#55ABE1" fill="#55ABE1"/>
        <path clip-path="url(#clip-1960709859)" d="M 57.6380,1.9538 L 57.6380,32.2382 L 58.6149,32.2382 L 58.6149,1.9538 L 57.6380,1.9538 Z" stroke-width="1px" stroke="#56ACE1" fill="#56ACE1"/>
        <path clip-path="url(#clip-1960709859)" d="M 58.6149,1.9538 L 58.6149,32.2382 L 59.5918,32.2382 L 59.5918,1.9538 L 58.6149,1.9538 Z" stroke-width="1px" stroke="#58ACE1" fill="#58ACE1"/>
        <path clip-path="url(#clip-1960709859)" d="M 59.5918,1.9538 L 59.5918,32.2382 L 60.5687,32.2382 L 60.5687,1.9538 L 59.5918,1.9538 Z" stroke-width="1px" stroke="#58ADE2" fill="#58ADE2"/>
        <path clip-path="url(#clip-1960709859)" d="M 60.5687,1.9538 L 60.5687,32.2382 L 61.5456,32.2382 L 61.5456,1.9538 L 60.5687,1.9538 Z" stroke-width="1px" stroke="#59AEE2" fill="#59AEE2"/>
        <path clip-path="url(#clip-1960709859)" d="M 61.5456,1.9538 L 61.5456,32.2382 L 62.5225,32.2382 L 62.5225,1.9538 L 61.5456,1.9538 Z" stroke-width="1px" stroke="#5AAEE3" fill="#5AAEE3"/>
        <path clip-path="url(#clip-1960709859)" d="M 62.5225,1.9538 L 62.5225,32.2382 L 63.4995,32.2382 L 63.4995,1.9538 L 62.5225,1.9538 Z" stroke-width="1px" stroke="#5BAFE3" fill="#5BAFE3"/>
        <path clip-path="url(#clip-1960709859)" d="M 63.4995,1.9538 L 63.4995,32.2382 L 64.4764,32.2382 L 64.4764,1.9538 L 63.4995,1.9538 Z" stroke-width="1px" stroke="#5DB0E3" fill="#5DB0E3"/>
        <path clip-path="url(#clip-1960709859)" d="M 64.4764,1.9538 L 64.4764,32.2382 L 65.4533,32.2382 L 65.4533,1.9538 L 64.4764,1.9538 Z" stroke-width="1px" stroke="#5EB1E4" fill="#5EB1E4"/>
        <path clip-path="url(#clip-1960709859)" d="M 65.4533,1.9538 L 65.4533,32.2382 L 66.4302,32.2382 L 66.4302,1.9538 L 65.4533,1.9538 Z" stroke-width="1px" stroke="#5FB1E4" fill="#5FB1E4"/>
        <path clip-path="url(#clip-1960709859)" d="M 66.4302,1.9538 L 66.4302,32.2382 L 67.4071,32.2382 L 67.4071,1.9538 L 66.4302,1.9538 Z" stroke-width="1px" stroke="#60B2E4" fill="#60B2E4"/>
        <path clip-path="url(#clip-1960709859)" d="M 67.4071,1.9538 L 67.4071,32.2382 L 68.3840,32.2382 L 68.3840,1.9538 L 67.4071,1.9538 Z" stroke-width="1px" stroke="#61B3E4" fill="#61B3E4"/>
        <path clip-path="url(#clip-1960709859)" d="M 68.3840,1.9538 L 68.3840,32.2382 L 69.3609,32.2382 L 69.3609,1.9538 L 68.3840,1.9538 Z" stroke-width="1px" stroke="#62B3E5" fill="#62B3E5"/>
        <path clip-path="url(#clip-1960709859)" d="M 69.3609,1.9538 L 69.3609,32.2382 L 70.3379,32.2382 L 70.3379,1.9538 L 69.3609,1.9538 Z" stroke-width="1px" stroke="#63B4E5" fill="#63B4E5"/>
        <g transform="matrix(0.0625 0.0000 0.0000 0.0625 0.0000 0.0000)">
          <path d="M 318.4742,513.8571 C 318.4742,513.8571 318.4742,513.8571 318.4742,512.8802 L 318.4742,476.7343 L 290.1436,476.7343 L 290.1436,512.8802 C 290.1436,513.8571 289.1667,513.8571 289.1667,513.8571 L 223.7135,513.8571 C 223.7135,513.8571 222.7365,513.8571 222.7365,512.8802 L 222.7365,476.7343 L 147.5141,476.7343 L 147.5141,512.8802 C 147.5141,513.8571 146.5372,513.8571 146.5372,513.8571 L 101.5991,513.8571 C 101.5991,513.8571 101.5991,513.8571 101.5991,512.8802 L 101.5991,476.7343 L 90.8531,476.7343 C 89.8761,476.7343 87.9223,476.7343 86.9454,476.7343 C 72.2917,475.7574 61.5456,468.9190 61.5456,460.1268 L 61.5456,56.6610 C 61.5456,46.8919 74.2455,40.0535 90.8531,40.0535 L 1100.0059,40.0535 C 1116.6134,40.0535 1130.2902,46.8919 1130.2902,56.6610 L 1130.2902,460.1268 C 1130.2902,468.9190 1116.6134,476.7343 1100.0059,476.7343 L 493.3419,476.7343 L 493.3419,512.8802 C 493.3419,513.8571 493.3419,513.8571 493.3419,513.8571 L 318.4742,513.8571 " stroke="#0054A6" stroke-width="7.8153" stroke-linecap="round" stroke-linejoin="round" fill="none"/>
        </g>
        <g transform="matrix(1.0000 0.0000 0.0000 1.0000 0.0000 0.0000)">
</g>
        <g transform="matrix(0.0625 0.0000 0.0000 0.0625 0.0000 0.0000)">
          <path d="M 334.1048,475.7574 L 334.1048,507.0187 L 347.7816,507.0187 L 347.7816,475.7574 L 334.1048,475.7574 Z" stroke-width="1px" stroke="#FBB040" fill="#FBB040"/>
        </g>
        <g transform="matrix(1.0000 0.0000 0.0000 1.0000 0.0000 0.0000)">
</g>
        <g transform="matrix(0.0625 0.0000 0.0000 0.0625 0.0000 0.0000)">
          <path d="M 236.4133,475.7574 L 236.4133,507.0187 L 251.0671,507.0187 L 251.0671,475.7574 L 236.4133,475.7574 Z" stroke-width="1px" stroke="#FBB040" fill="#FBB040"/>
        </g>
        <g transform="matrix(1.0000 0.0000 0.0000 1.0000 0.0000 0.0000)">
</g>
        <g transform="matrix(0.0625 0.0000 0.0000 0.0625 0.0000 0.0000)">
          <path d="M 262.7900,475.7574 L 262.7900,507.0187 L 277.4438,507.0187 L 277.4438,475.7574 L 262.7900,475.7574 Z" stroke-width="1px" stroke="#FBB040" fill="#FBB040"/>
        </g>
        <g transform="matrix(1.0000 0.0000 0.0000 1.0000 0.0000 0.0000)">
</g>
        <g transform="matrix(0.0625 0.0000 0.0000 0.0625 0.0000 0.0000)">
          <path d="M 359.5046,475.7574 L 359.5046,507.0187 L 374.1583,507.0187 L 374.1583,475.7574 L 359.5046,475.7574 Z" stroke-width="1px" stroke="#FBB040" fill="#FBB040"/>
        </g>
        <g transform="matrix(1.0000 0.0000 0.0000 1.0000 0.0000 0.0000)">
</g>
        <g transform="matrix(0.0625 0.0000 0.0000 0.0625 0.0000 0.0000)">
          <path d="M 384.9044,475.7574 L 384.9044,507.0187 L 399.5581,507.0187 L 399.5581,475.7574 L 384.9044,475.7574 Z" stroke-width="1px" stroke="#FBB040" fill="#FBB040"/>
        </g>
        <g transform="matrix(1.0000 0.0000 0.0000 1.0000 0.0000 0.0000)">
</g>
        <g transform="matrix(0.0625 0.0000 0.0000 0.0625 0.0000 0.0000)">
          <path d="M 410.3041,475.7574 L 410.3041,507.0187 L 424.9579,507.0187 L 424.9579,475.7574 L 410.3041,475.7574 Z" stroke-width="1px" stroke="#FBB040" fill="#FBB040"/>
        </g>
        <g transform="matrix(1.0000 0.0000 0.0000 1.0000 0.0000 0.0000)">
</g>
        <g transform="matrix(0.0625 0.0000 0.0000 0.0625 0.0000 0.0000)">
          <path d="M 437.6578,475.7574 L 437.6578,507.0187 L 452.3115,507.0187 L 452.3115,475.7574 L 437.6578,475.7574 Z" stroke-width="1px" stroke="#FBB040" fill="#FBB040"/>
        </g>
        <g transform="matrix(1.0000 0.0000 0.0000 1.0000 0.0000 0.0000)">
</g>
        <g transform="matrix(0.0625 0.0000 0.0000 0.0625 0.0000 0.0000)">
          <path d="M 463.0575,475.7574 L 463.0575,507.0187 L 477.7113,507.0187 L 477.7113,475.7574 L 463.0575,475.7574 Z" stroke-width="1px" stroke="#FBB040" fill="#FBB040"/>
        </g>
        <g transform="matrix(1.0000 0.0000 0.0000 1.0000 0.0000 0.0000)">
</g>
        <g transform="matrix(0.0625 0.0000 0.0000 0.0625 0.0000 0.0000)">
          <path d="M 326.2895,427.8886 L 370.2506,427.8886 L 370.2506,311.6358 L 326.2895,342.8970 L 326.2895,427.8886 Z" stroke-width="1px" stroke="#FFFFFF" fill="#FFFFFF"/>
        </g>
        <g transform="matrix(1.0000 0.0000 0.0000 1.0000 0.0000 0.0000)">
</g>
        <g transform="matrix(0.0625 0.0000 0.0000 0.0625 0.0000 0.0000)">
          <path d="M 397.6043,427.8886 L 441.5654,427.8886 L 441.5654,259.8593 L 397.6043,291.1206 L 397.6043,427.8886 Z" stroke-width="1px" stroke="#FFFFFF" fill="#FFFFFF"/>
        </g>
        <g transform="matrix(1.0000 0.0000 0.0000 1.0000 0.0000 0.0000)">
</g>
        <g transform="matrix(0.0625 0.0000 0.0000 0.0625 0.0000 0.0000)">
          <path d="M 469.8959,239.3441 L 469.8959,427.8886 L 513.8571,427.8886 L 513.8571,251.0671 L 499.2034,218.8289 L 469.8959,239.3441 Z" stroke-width="1px" stroke="#FFFFFF" fill="#FFFFFF"/>
        </g>
        <g transform="matrix(1.0000 0.0000 0.0000 1.0000 0.0000 0.0000)">
</g>
        <g transform="matrix(0.0625 0.0000 0.0000 0.0625 0.0000 0.0000)">
          <path d="M 540.2338,309.6819 L 540.2338,427.8886 L 584.1950,427.8886 L 584.1950,304.7974 L 549.0260,330.1971 L 540.2338,309.6819 Z" stroke-width="1px" stroke="#FFFFFF" fill="#FFFFFF"/>
        </g>
        <g transform="matrix(1.0000 0.0000 0.0000 1.0000 0.0000 0.0000)">
</g>
        <g transform="matrix(0.0625 0.0000 0.0000 0.0625 0.0000 0.0000)">
          <path d="M 606.6640,427.8886 L 650.6251,427.8886 L 650.6251,255.9516 L 606.6640,287.2129 L 606.6640,427.8886 Z" stroke-width="1px" stroke="#FFFFFF" fill="#FFFFFF"/>
        </g>
        <g transform="matrix(1.0000 0.0000 0.0000 1.0000 0.0000 0.0000)">
</g>
        <g transform="matrix(0.0625 0.0000 0.0000 0.0625 0.0000 0.0000)">
          <path d="M 677.0018,236.4133 L 677.0018,427.8886 L 720.9630,427.8886 L 720.9630,231.5288 L 711.1939,211.9905 L 677.0018,236.4133 Z" stroke-width="1px" stroke="#FFFFFF" fill="#FFFFFF"/>
        </g>
        <g transform="matrix(1.0000 0.0000 0.0000 1.0000 0.0000 0.0000)">
</g>
        <g transform="matrix(0.0625 0.0000 0.0000 0.0625 0.0000 0.0000)">
          <path d="M 747.3397,246.1825 L 747.3397,427.8886 L 791.3009,427.8886 L 791.3009,214.9212 L 747.3397,246.1825 Z" stroke-width="1px" stroke="#FFFFFF" fill="#FFFFFF"/>
        </g>
        <g transform="matrix(1.0000 0.0000 0.0000 1.0000 0.0000 0.0000)">
</g>
        <g transform="matrix(0.0625 0.0000 0.0000 0.0625 0.0000 0.0000)">
          <path d="M 817.6775,197.3368 L 817.6775,427.8886 L 861.6387,427.8886 L 861.6387,166.0755 L 817.6775,197.3368 Z" stroke-width="1px" stroke="#FFFFFF" fill="#FFFFFF"/>
        </g>
        <g transform="matrix(1.0000 0.0000 0.0000 1.0000 0.0000 0.0000)">
</g>
        <g transform="matrix(0.0625 0.0000 0.0000 0.0625 0.0000 0.0000)">
          <path d="M 302.8435,319.4511 L 507.0187,172.9139 L 556.8413,284.2822 L 719.0092,166.0755 L 740.5013,210.0366 L 895.8307,101.5991 L 880.2001,67.4071 L 752.2243,156.3063 L 729.7552,111.3683 L 569.5412,228.5980 L 518.7417,117.2298 L 286.2360,285.2591 L 302.8435,319.4511 Z" stroke-width="1px" stroke="#2B4381" fill="#2B4381"/>
        </g>
        <g transform="matrix(1.0000 0.0000 0.0000 1.0000 0.0000 0.0000)">
</g>
        <g transform="matrix(0.0625 0.0000 0.0000 0.0625 0.0000 0.0000)">
          <path d="M 59.5918,470.8729 L 61.5456,52.7534 L 60.5687,18.5614 L 30.2844,43.9612 C 17.5845,51.7765 18.5614,56.6610 18.5614,78.1532 L 18.5614,485.5266 C 18.5614,504.0880 16.6075,598.8487 33.2151,608.6178 L 48.8457,608.6178 C 62.5225,600.8025 59.5918,470.8729 59.5918,470.8729 Z " fill="#8C8C8C" stroke="none"/>
        </g>
        <g transform="matrix(1.0000 0.0000 0.0000 1.0000 0.0000 0.0000)">
</g>
        <g transform="matrix(0.0625 0.0000 0.0000 0.0625 0.0000 0.0000)">
          <path d="M 59.5918,470.8729 L 61.5456,52.7534 L 60.5687,18.5614 L 30.2844,43.9612 C 17.5845,51.7765 18.5614,56.6610 18.5614,78.1532 L 18.5614,485.5266 C 18.5614,504.0880 16.6075,598.8487 33.2151,608.6178 L 48.8457,608.6178 C 62.5225,600.8025 59.5918,470.8729 59.5918,470.8729 Z " stroke="#0054A6" stroke-width="6.8384" stroke-linecap="round" stroke-linejoin="round" fill="none"/>
        </g>
        <g transform="matrix(1.0000 0.0000 0.0000 1.0000 0.0000 0.0000)">
</g>
      </g>
      <!--emf-blob end-->
    </g>
  </g>
</svg>
