<svg xmlns="http://www.w3.org/2000/svg" xmlns:xlink="http://www.w3.org/1999/xlink" version="1.1" width="58.1102000000" height="42.0286000000">
  <title><![CDATA[Printer]]></title>
  <g transform=" scale(1.000000) ">
    <text xmlns="http://www.w3.org/2000/svg" x="22.4282" y="42.0286">
      <tspan font-family="Arial" font-size="4.5000" fill="#000000" fill-opacity="1.0000" stroke-opacity="1.0000">
Printer</tspan>
    </text>
    <!--converted by libvisio2svg-->
    <g transform=" translate(-1.129300,-1.148200) ">
      <!--emf-blob start-->
      <g transform="translate(0.9748, -0.9748)">
        <g transform="matrix(0.0625 0.0000 0.0000 0.0625 0.0000 0.0000)">
          <path d="M 227.1171,17.5455 L 227.1171,386.0016 L 645.2856,386.0016 L 645.2856,17.5455 L 227.1171,17.5455 Z" stroke-width="1px" stroke="#4D4D4D" fill="#4D4D4D"/>
        </g>
        <g transform="matrix(1.0000 0.0000 0.0000 1.0000 0.0000 0.0000)">
</g>
        <g transform="matrix(0.0625 0.0000 0.0000 0.0625 0.0000 0.0000)">
          <path d="M 250.5112,40.9396 L 250.5112,386.0016 L 621.8915,386.0016 L 621.8915,40.9396 L 250.5112,40.9396 Z" stroke-width="1px" stroke="#FFFFFF" fill="#FFFFFF"/>
        </g>
        <g transform="matrix(1.0000 0.0000 0.0000 1.0000 0.0000 0.0000)">
          <path d="M 7.7980,42.8891 L 56.5356,42.8891 C 57.5103,42.8891 58.4851,41.9143 58.4851,39.9648 C 58.4851,39.9648 58.4851,39.9648 58.4851,39.9648 L 58.4851,39.9648 L 58.4851,26.3183 C 58.4851,25.3435 57.5103,24.3688 56.5356,24.3688 C 56.5356,24.3688 56.5356,24.3688 56.5356,24.3688 L 56.5356,24.3688 L 7.7980,24.3688 C 6.8233,24.3688 5.8485,25.3435 5.8485,26.3183 L 5.8485,26.3183 L 5.8485,39.9648 C 5.8485,41.9143 6.8233,42.8891 7.7980,42.8891 Z " fill="none" stroke="none"/>
          <defs>
            <clipPath id="clip-430253414">
              <path d="M 7.7980,42.8891 L 56.5356,42.8891 C 57.5103,42.8891 58.4851,41.9143 58.4851,39.9648 C 58.4851,39.9648 58.4851,39.9648 58.4851,39.9648 L 58.4851,39.9648 L 58.4851,26.3183 C 58.4851,25.3435 57.5103,24.3688 56.5356,24.3688 C 56.5356,24.3688 56.5356,24.3688 56.5356,24.3688 L 56.5356,24.3688 L 7.7980,24.3688 C 6.8233,24.3688 5.8485,25.3435 5.8485,26.3183 L 5.8485,26.3183 L 5.8485,39.9648 C 5.8485,41.9143 6.8233,42.8891 7.7980,42.8891 Z"/>
            </clipPath>
          </defs>
          <path clip-path="url(#clip-430253414)" d="M 4.8738,23.3940 L 4.8738,41.9143 L 5.8485,41.9143 L 5.8485,23.3940 L 4.8738,23.3940 Z" stroke-width="1px" stroke="#F7F7F7" fill="#F7F7F7"/>
          <path clip-path="url(#clip-430253414)" d="M 5.8485,23.3940 L 5.8485,41.9143 L 6.8233,41.9143 L 6.8233,23.3940 L 5.8485,23.3940 Z" stroke-width="1px" stroke="#5B5B5B" fill="#5B5B5B"/>
          <path clip-path="url(#clip-430253414)" d="M 6.8233,23.3940 L 6.8233,41.9143 L 7.7980,41.9143 L 7.7980,23.3940 L 6.8233,23.3940 Z" stroke-width="1px" stroke="#5E5E5E" fill="#5E5E5E"/>
          <path clip-path="url(#clip-430253414)" d="M 7.7980,23.3940 L 7.7980,41.9143 L 8.7728,41.9143 L 8.7728,23.3940 L 7.7980,23.3940 Z" stroke-width="1px" stroke="#616161" fill="#616161"/>
          <path clip-path="url(#clip-430253414)" d="M 8.7728,23.3940 L 8.7728,41.9143 L 9.7475,41.9143 L 9.7475,23.3940 L 8.7728,23.3940 Z" stroke-width="1px" stroke="#646464" fill="#646464"/>
          <path clip-path="url(#clip-430253414)" d="M 9.7475,23.3940 L 9.7475,41.9143 L 10.7223,41.9143 L 10.7223,23.3940 L 9.7475,23.3940 Z" stroke-width="1px" stroke="#676767" fill="#676767"/>
          <path clip-path="url(#clip-430253414)" d="M 10.7223,23.3940 L 10.7223,41.9143 L 11.6970,41.9143 L 11.6970,23.3940 L 10.7223,23.3940 Z" stroke-width="1px" stroke="#6A6A6A" fill="#6A6A6A"/>
          <path clip-path="url(#clip-430253414)" d="M 11.6970,23.3940 L 11.6970,41.9143 L 12.6718,41.9143 L 12.6718,23.3940 L 11.6970,23.3940 Z" stroke-width="1px" stroke="#6D6D6D" fill="#6D6D6D"/>
          <path clip-path="url(#clip-430253414)" d="M 12.6718,23.3940 L 12.6718,41.9143 L 13.6465,41.9143 L 13.6465,23.3940 L 12.6718,23.3940 Z" stroke-width="1px" stroke="#707070" fill="#707070"/>
          <path clip-path="url(#clip-430253414)" d="M 13.6465,23.3940 L 13.6465,41.9143 L 14.6213,41.9143 L 14.6213,23.3940 L 13.6465,23.3940 Z" stroke-width="1px" stroke="#727272" fill="#727272"/>
          <path clip-path="url(#clip-430253414)" d="M 14.6213,23.3940 L 14.6213,41.9143 L 15.5960,41.9143 L 15.5960,23.3940 L 14.6213,23.3940 Z" stroke-width="1px" stroke="#757575" fill="#757575"/>
          <path clip-path="url(#clip-430253414)" d="M 15.5960,23.3940 L 15.5960,41.9143 L 16.5708,41.9143 L 16.5708,23.3940 L 15.5960,23.3940 Z" stroke-width="1px" stroke="#787878" fill="#787878"/>
          <path clip-path="url(#clip-430253414)" d="M 16.5708,23.3940 L 16.5708,41.9143 L 17.5455,41.9143 L 17.5455,23.3940 L 16.5708,23.3940 Z" stroke-width="1px" stroke="#7B7B7B" fill="#7B7B7B"/>
          <path clip-path="url(#clip-430253414)" d="M 17.5455,23.3940 L 17.5455,41.9143 L 18.5203,41.9143 L 18.5203,23.3940 L 17.5455,23.3940 Z" stroke-width="1px" stroke="#7E7E7E" fill="#7E7E7E"/>
          <path clip-path="url(#clip-430253414)" d="M 18.5203,23.3940 L 18.5203,41.9143 L 19.4950,41.9143 L 19.4950,23.3940 L 18.5203,23.3940 Z" stroke-width="1px" stroke="#818181" fill="#818181"/>
          <path clip-path="url(#clip-430253414)" d="M 19.4950,23.3940 L 19.4950,41.9143 L 20.4698,41.9143 L 20.4698,23.3940 L 19.4950,23.3940 Z" stroke-width="1px" stroke="#848484" fill="#848484"/>
          <path clip-path="url(#clip-430253414)" d="M 20.4698,23.3940 L 20.4698,41.9143 L 21.4445,41.9143 L 21.4445,23.3940 L 20.4698,23.3940 Z" stroke-width="1px" stroke="#878787" fill="#878787"/>
          <path clip-path="url(#clip-430253414)" d="M 21.4445,23.3940 L 21.4445,41.9143 L 22.4193,41.9143 L 22.4193,23.3940 L 21.4445,23.3940 Z" stroke-width="1px" stroke="#8A8A8A" fill="#8A8A8A"/>
          <path clip-path="url(#clip-430253414)" d="M 22.4193,23.3940 L 22.4193,41.9143 L 23.3940,41.9143 L 23.3940,23.3940 L 22.4193,23.3940 Z" stroke-width="1px" stroke="#8D8D8D" fill="#8D8D8D"/>
          <path clip-path="url(#clip-430253414)" d="M 23.3940,23.3940 L 23.3940,41.9143 L 24.3688,41.9143 L 24.3688,23.3940 L 23.3940,23.3940 Z" stroke-width="1px" stroke="#909090" fill="#909090"/>
          <path clip-path="url(#clip-430253414)" d="M 24.3688,23.3940 L 24.3688,41.9143 L 25.3435,41.9143 L 25.3435,23.3940 L 24.3688,23.3940 Z" stroke-width="1px" stroke="#939393" fill="#939393"/>
          <path clip-path="url(#clip-430253414)" d="M 25.3435,23.3940 L 25.3435,41.9143 L 26.3183,41.9143 L 26.3183,23.3940 L 25.3435,23.3940 Z" stroke-width="1px" stroke="#969696" fill="#969696"/>
          <path clip-path="url(#clip-430253414)" d="M 26.3183,23.3940 L 26.3183,41.9143 L 27.2930,41.9143 L 27.2930,23.3940 L 26.3183,23.3940 Z" stroke-width="1px" stroke="#999999" fill="#999999"/>
          <path clip-path="url(#clip-430253414)" d="M 27.2930,23.3940 L 27.2930,41.9143 L 28.2678,41.9143 L 28.2678,23.3940 L 27.2930,23.3940 Z" stroke-width="1px" stroke="#9C9C9C" fill="#9C9C9C"/>
          <path clip-path="url(#clip-430253414)" d="M 28.2678,23.3940 L 28.2678,41.9143 L 29.2425,41.9143 L 29.2425,23.3940 L 28.2678,23.3940 Z" stroke-width="1px" stroke="#9F9F9F" fill="#9F9F9F"/>
          <path clip-path="url(#clip-430253414)" d="M 29.2425,23.3940 L 29.2425,41.9143 L 30.2173,41.9143 L 30.2173,23.3940 L 29.2425,23.3940 Z" stroke-width="1px" stroke="#A2A2A2" fill="#A2A2A2"/>
          <path clip-path="url(#clip-430253414)" d="M 30.2173,23.3940 L 30.2173,41.9143 L 31.1921,41.9143 L 31.1921,23.3940 L 30.2173,23.3940 Z" stroke-width="1px" stroke="#A5A5A5" fill="#A5A5A5"/>
          <path clip-path="url(#clip-430253414)" d="M 31.1921,23.3940 L 31.1921,41.9143 L 32.1668,41.9143 L 32.1668,23.3940 L 31.1921,23.3940 Z" stroke-width="1px" stroke="#A8A8A8" fill="#A8A8A8"/>
          <path clip-path="url(#clip-430253414)" d="M 32.1668,23.3940 L 32.1668,41.9143 L 33.1416,41.9143 L 33.1416,23.3940 L 32.1668,23.3940 Z" stroke-width="1px" stroke="#ABABAB" fill="#ABABAB"/>
          <path clip-path="url(#clip-430253414)" d="M 33.1416,23.3940 L 33.1416,41.9143 L 34.1163,41.9143 L 34.1163,23.3940 L 33.1416,23.3940 Z" stroke-width="1px" stroke="#ADADAD" fill="#ADADAD"/>
          <path clip-path="url(#clip-430253414)" d="M 34.1163,23.3940 L 34.1163,41.9143 L 35.0911,41.9143 L 35.0911,23.3940 L 34.1163,23.3940 Z" stroke-width="1px" stroke="#B0B0B0" fill="#B0B0B0"/>
          <path clip-path="url(#clip-430253414)" d="M 35.0911,23.3940 L 35.0911,41.9143 L 36.0658,41.9143 L 36.0658,23.3940 L 35.0911,23.3940 Z" stroke-width="1px" stroke="#B3B3B3" fill="#B3B3B3"/>
          <path clip-path="url(#clip-430253414)" d="M 36.0658,23.3940 L 36.0658,41.9143 L 37.0406,41.9143 L 37.0406,23.3940 L 36.0658,23.3940 Z" stroke-width="1px" stroke="#B6B6B6" fill="#B6B6B6"/>
          <path clip-path="url(#clip-430253414)" d="M 37.0406,23.3940 L 37.0406,41.9143 L 38.0153,41.9143 L 38.0153,23.3940 L 37.0406,23.3940 Z" stroke-width="1px" stroke="#B9B9B9" fill="#B9B9B9"/>
          <path clip-path="url(#clip-430253414)" d="M 38.0153,23.3940 L 38.0153,41.9143 L 38.9901,41.9143 L 38.9901,23.3940 L 38.0153,23.3940 Z" stroke-width="1px" stroke="#BCBCBC" fill="#BCBCBC"/>
          <path clip-path="url(#clip-430253414)" d="M 38.9901,23.3940 L 38.9901,41.9143 L 39.9648,41.9143 L 39.9648,23.3940 L 38.9901,23.3940 Z" stroke-width="1px" stroke="#BFBFBF" fill="#BFBFBF"/>
          <path clip-path="url(#clip-430253414)" d="M 39.9648,23.3940 L 39.9648,41.9143 L 40.9396,41.9143 L 40.9396,23.3940 L 39.9648,23.3940 Z" stroke-width="1px" stroke="#C2C2C2" fill="#C2C2C2"/>
          <path clip-path="url(#clip-430253414)" d="M 40.9396,23.3940 L 40.9396,41.9143 L 41.9143,41.9143 L 41.9143,23.3940 L 40.9396,23.3940 Z" stroke-width="1px" stroke="#C5C5C5" fill="#C5C5C5"/>
          <path clip-path="url(#clip-430253414)" d="M 41.9143,23.3940 L 41.9143,41.9143 L 42.8891,41.9143 L 42.8891,23.3940 L 41.9143,23.3940 Z" stroke-width="1px" stroke="#C8C8C8" fill="#C8C8C8"/>
          <path clip-path="url(#clip-430253414)" d="M 42.8891,23.3940 L 42.8891,41.9143 L 43.8638,41.9143 L 43.8638,23.3940 L 42.8891,23.3940 Z" stroke-width="1px" stroke="#CBCBCB" fill="#CBCBCB"/>
          <path clip-path="url(#clip-430253414)" d="M 43.8638,23.3940 L 43.8638,41.9143 L 44.8386,41.9143 L 44.8386,23.3940 L 43.8638,23.3940 Z" stroke-width="1px" stroke="#CECECE" fill="#CECECE"/>
          <path clip-path="url(#clip-430253414)" d="M 44.8386,23.3940 L 44.8386,41.9143 L 45.8133,41.9143 L 45.8133,23.3940 L 44.8386,23.3940 Z" stroke-width="1px" stroke="#D0D0D0" fill="#D0D0D0"/>
          <path clip-path="url(#clip-430253414)" d="M 45.8133,23.3940 L 45.8133,41.9143 L 46.7881,41.9143 L 46.7881,23.3940 L 45.8133,23.3940 Z" stroke-width="1px" stroke="#D3D3D3" fill="#D3D3D3"/>
          <path clip-path="url(#clip-430253414)" d="M 46.7881,23.3940 L 46.7881,41.9143 L 47.7628,41.9143 L 47.7628,23.3940 L 46.7881,23.3940 Z" stroke-width="1px" stroke="#D6D6D6" fill="#D6D6D6"/>
          <path clip-path="url(#clip-430253414)" d="M 47.7628,23.3940 L 47.7628,41.9143 L 48.7376,41.9143 L 48.7376,23.3940 L 47.7628,23.3940 Z" stroke-width="1px" stroke="#D9D9D9" fill="#D9D9D9"/>
          <path clip-path="url(#clip-430253414)" d="M 48.7376,23.3940 L 48.7376,41.9143 L 49.7123,41.9143 L 49.7123,23.3940 L 48.7376,23.3940 Z" stroke-width="1px" stroke="#DCDCDC" fill="#DCDCDC"/>
          <path clip-path="url(#clip-430253414)" d="M 49.7123,23.3940 L 49.7123,41.9143 L 50.6871,41.9143 L 50.6871,23.3940 L 49.7123,23.3940 Z" stroke-width="1px" stroke="#DFDFDF" fill="#DFDFDF"/>
          <path clip-path="url(#clip-430253414)" d="M 50.6871,23.3940 L 50.6871,41.9143 L 51.6618,41.9143 L 51.6618,23.3940 L 50.6871,23.3940 Z" stroke-width="1px" stroke="#E2E2E2" fill="#E2E2E2"/>
          <path clip-path="url(#clip-430253414)" d="M 51.6618,23.3940 L 51.6618,41.9143 L 52.6366,41.9143 L 52.6366,23.3940 L 51.6618,23.3940 Z" stroke-width="1px" stroke="#E5E5E5" fill="#E5E5E5"/>
          <path clip-path="url(#clip-430253414)" d="M 52.6366,23.3940 L 52.6366,41.9143 L 53.6113,41.9143 L 53.6113,23.3940 L 52.6366,23.3940 Z" stroke-width="1px" stroke="#E8E8E8" fill="#E8E8E8"/>
          <path clip-path="url(#clip-430253414)" d="M 53.6113,23.3940 L 53.6113,41.9143 L 54.5861,41.9143 L 54.5861,23.3940 L 53.6113,23.3940 Z" stroke-width="1px" stroke="#EBEBEB" fill="#EBEBEB"/>
          <path clip-path="url(#clip-430253414)" d="M 54.5861,23.3940 L 54.5861,41.9143 L 55.5608,41.9143 L 55.5608,23.3940 L 54.5861,23.3940 Z" stroke-width="1px" stroke="#EEEEEE" fill="#EEEEEE"/>
          <path clip-path="url(#clip-430253414)" d="M 55.5608,23.3940 L 55.5608,41.9143 L 56.5356,41.9143 L 56.5356,23.3940 L 55.5608,23.3940 Z" stroke-width="1px" stroke="#F1F1F1" fill="#F1F1F1"/>
          <path clip-path="url(#clip-430253414)" d="M 56.5356,23.3940 L 56.5356,41.9143 L 57.5103,41.9143 L 57.5103,23.3940 L 56.5356,23.3940 Z" stroke-width="1px" stroke="#F4F4F4" fill="#F4F4F4"/>
        </g>
        <g transform="matrix(0.0625 0.0000 0.0000 0.0625 0.0000 0.0000)">
          <path d="M 119.8944,673.5534 L 889.9482,673.5534 C 909.4433,673.5534 925.0393,657.9573 925.0393,638.4623 C 925.0393,638.4623 925.0393,638.4623 925.0393,638.4623 L 925.0393,638.4623 L 925.0393,422.0674 C 925.0393,402.5724 909.4433,386.0016 889.9482,386.0016 C 889.9482,386.0016 889.9482,386.0016 889.9482,386.0016 L 889.9482,386.0016 L 119.8944,386.0016 C 100.3994,386.0016 84.8034,402.5724 84.8034,422.0674 L 84.8034,422.0674 L 84.8034,638.4623 C 84.8034,657.9573 100.3994,673.5534 119.8944,673.5534 " stroke="#0054A6" stroke-width="12.6718" stroke-linecap="round" stroke-linejoin="round" fill="none"/>
        </g>
        <g transform="matrix(1.0000 0.0000 0.0000 1.0000 0.0000 0.0000)">
</g>
        <g transform="matrix(0.0625 0.0000 0.0000 0.0625 0.0000 0.0000)">
          <path d="M 289.5012,634.5633 L 289.5012,616.0430 C 289.5012,601.4217 291.4507,592.6490 296.3245,587.7752 C 300.2235,583.8762 309.9710,581.9267 323.6175,581.9267 L 741.7860,581.9267 C 755.4325,581.9267 765.1800,583.8762 769.0790,587.7752 C 773.9528,592.6490 775.9023,601.4217 775.9023,616.0430 L 775.9023,634.5633 C 775.9023,657.9573 764.2053,669.6544 741.7860,669.6544 L 323.6175,669.6544 C 301.1982,669.6544 289.5012,657.9573 289.5012,634.5633 " stroke="#0054A6" stroke-width="12.6718" stroke-linecap="round" stroke-linejoin="round" fill="none"/>
        </g>
        <g transform="matrix(1.0000 0.0000 0.0000 1.0000 0.0000 0.0000)">
</g>
        <g transform="matrix(0.0625 0.0000 0.0000 0.0625 0.0000 0.0000)">
          <path d="M 867.5289,478.6030 C 867.5289,509.7951 843.1601,534.1639 812.9428,534.1639 C 782.7255,534.1639 758.3568,509.7951 758.3568,478.6030 C 758.3568,448.3857 782.7255,424.0170 812.9428,424.0170 C 843.1601,424.0170 867.5289,448.3857 867.5289,478.6030 " fill="#9A9A9A" stroke="none"/>
        </g>
        <g transform="matrix(1.0000 0.0000 0.0000 1.0000 0.0000 0.0000)">
</g>
        <g transform="matrix(0.0625 0.0000 0.0000 0.0625 0.0000 0.0000)">
          <path d="M 867.5289,478.6030 M 867.5289,478.6030 C 867.5289,509.7951 843.1601,534.1639 812.9428,534.1639 C 782.7255,534.1639 758.3568,509.7951 758.3568,478.6030 C 758.3568,448.3857 782.7255,424.0170 812.9428,424.0170 C 843.1601,424.0170 867.5289,448.3857 867.5289,478.6030 " stroke="#0054A6" stroke-width="12.6718" stroke-linecap="round" stroke-linejoin="round" fill="none"/>
        </g>
        <g transform="matrix(1.0000 0.0000 0.0000 1.0000 0.0000 0.0000)">
          <path d="M 6.8233,41.9143 C 5.8485,41.9143 5.8485,40.9396 5.8485,39.9648 L 5.8485,39.9648 L 5.8485,26.3183 C 5.8485,26.3183 5.8485,25.3435 6.8233,24.3688 L 6.8233,24.3688 L 2.9243,26.3183 C 1.9495,27.2930 1.9495,28.2678 1.9495,28.2678 L 1.9495,28.2678 L 1.9495,38.0153 C 1.9495,38.9901 1.9495,39.9648 2.9243,39.9648 L 2.9243,39.9648 L 6.8233,41.9143 Z " fill="none" stroke="none"/>
          <defs>
            <clipPath id="clip-861543921">
              <path d="M 6.8233,41.9143 C 5.8485,41.9143 5.8485,40.9396 5.8485,39.9648 L 5.8485,39.9648 L 5.8485,26.3183 C 5.8485,26.3183 5.8485,25.3435 6.8233,24.3688 L 6.8233,24.3688 L 2.9243,26.3183 C 1.9495,27.2930 1.9495,28.2678 1.9495,28.2678 L 1.9495,28.2678 L 1.9495,38.0153 C 1.9495,38.9901 1.9495,39.9648 2.9243,39.9648 L 2.9243,39.9648 L 6.8233,41.9143 Z"/>
            </clipPath>
          </defs>
          <path clip-path="url(#clip-861543921)" d="M 0.9748,24.3688 L 0.9748,25.3435 L 6.8233,25.3435 L 6.8233,24.3688 L 0.9748,24.3688 Z" stroke-width="1px" stroke="#595959" fill="#595959"/>
          <path clip-path="url(#clip-861543921)" d="M 0.9748,25.3435 L 0.9748,26.3183 L 6.8233,26.3183 L 6.8233,25.3435 L 0.9748,25.3435 Z" stroke-width="1px" stroke="#616161" fill="#616161"/>
          <path clip-path="url(#clip-861543921)" d="M 0.9748,26.3183 L 0.9748,27.2930 L 6.8233,27.2930 L 6.8233,26.3183 L 0.9748,26.3183 Z" stroke-width="1px" stroke="#696969" fill="#696969"/>
          <path clip-path="url(#clip-861543921)" d="M 0.9748,27.2930 L 0.9748,28.2678 L 6.8233,28.2678 L 6.8233,27.2930 L 0.9748,27.2930 Z" stroke-width="1px" stroke="#717171" fill="#717171"/>
          <path clip-path="url(#clip-861543921)" d="M 0.9748,28.2678 L 0.9748,29.2425 L 6.8233,29.2425 L 6.8233,28.2678 L 0.9748,28.2678 Z" stroke-width="1px" stroke="#787878" fill="#787878"/>
          <path clip-path="url(#clip-861543921)" d="M 0.9748,29.2425 L 0.9748,30.2173 L 6.8233,30.2173 L 6.8233,29.2425 L 0.9748,29.2425 Z" stroke-width="1px" stroke="#808080" fill="#808080"/>
          <path clip-path="url(#clip-861543921)" d="M 0.9748,30.2173 L 0.9748,31.1921 L 6.8233,31.1921 L 6.8233,30.2173 L 0.9748,30.2173 Z" stroke-width="1px" stroke="#888888" fill="#888888"/>
          <path clip-path="url(#clip-861543921)" d="M 0.9748,31.1921 L 0.9748,32.1668 L 6.8233,32.1668 L 6.8233,31.1921 L 0.9748,31.1921 Z" stroke-width="1px" stroke="#909090" fill="#909090"/>
          <path clip-path="url(#clip-861543921)" d="M 0.9748,32.1668 L 0.9748,33.1416 L 6.8233,33.1416 L 6.8233,32.1668 L 0.9748,32.1668 Z" stroke-width="1px" stroke="#989898" fill="#989898"/>
          <path clip-path="url(#clip-861543921)" d="M 0.9748,33.1416 L 0.9748,34.1163 L 6.8233,34.1163 L 6.8233,33.1416 L 0.9748,33.1416 Z" stroke-width="1px" stroke="#A0A0A0" fill="#A0A0A0"/>
          <path clip-path="url(#clip-861543921)" d="M 0.9748,34.1163 L 0.9748,35.0911 L 6.8233,35.0911 L 6.8233,34.1163 L 0.9748,34.1163 Z" stroke-width="1px" stroke="#A7A7A7" fill="#A7A7A7"/>
          <path clip-path="url(#clip-861543921)" d="M 0.9748,35.0911 L 0.9748,36.0658 L 6.8233,36.0658 L 6.8233,35.0911 L 0.9748,35.0911 Z" stroke-width="1px" stroke="#AFAFAF" fill="#AFAFAF"/>
          <path clip-path="url(#clip-861543921)" d="M 0.9748,36.0658 L 0.9748,37.0406 L 6.8233,37.0406 L 6.8233,36.0658 L 0.9748,36.0658 Z" stroke-width="1px" stroke="#B7B7B7" fill="#B7B7B7"/>
          <path clip-path="url(#clip-861543921)" d="M 0.9748,37.0406 L 0.9748,38.0153 L 6.8233,38.0153 L 6.8233,37.0406 L 0.9748,37.0406 Z" stroke-width="1px" stroke="#BFBFBF" fill="#BFBFBF"/>
          <path clip-path="url(#clip-861543921)" d="M 0.9748,38.0153 L 0.9748,38.9901 L 6.8233,38.9901 L 6.8233,38.0153 L 0.9748,38.0153 Z" stroke-width="1px" stroke="#C7C7C7" fill="#C7C7C7"/>
          <path clip-path="url(#clip-861543921)" d="M 0.9748,38.9901 L 0.9748,39.9648 L 6.8233,39.9648 L 6.8233,38.9901 L 0.9748,38.9901 Z" stroke-width="1px" stroke="#CFCFCF" fill="#CFCFCF"/>
          <path clip-path="url(#clip-861543921)" d="M 0.9748,39.9648 L 0.9748,40.9396 L 6.8233,40.9396 L 6.8233,39.9648 L 0.9748,39.9648 Z" stroke-width="1px" stroke="#D6D6D6" fill="#D6D6D6"/>
          <path clip-path="url(#clip-861543921)" d="M 0.9748,40.9396 L 0.9748,41.9143 L 6.8233,41.9143 L 6.8233,40.9396 L 0.9748,40.9396 Z" stroke-width="1px" stroke="#DEDEDE" fill="#DEDEDE"/>
        </g>
        <g transform="matrix(0.0625 0.0000 0.0000 0.0625 0.0000 0.0000)">
          <path d="M 105.2732,670.6291 C 92.6014,664.7806 84.8034,652.1088 84.8034,638.4623 L 84.8034,638.4623 L 84.8034,422.0674 C 84.8034,408.4209 92.6014,395.7492 105.2732,389.9006 L 105.2732,389.9006 L 38.9901,421.0927 C 26.3183,426.9412 18.5203,438.6382 18.5203,452.2847 L 18.5203,452.2847 L 18.5203,607.2703 C 18.5203,621.8915 26.3183,633.5885 38.9901,639.4371 L 38.9901,639.4371 L 105.2732,670.6291 " stroke="#0054A6" stroke-width="12.6718" stroke-linecap="round" stroke-linejoin="round" fill="none"/>
        </g>
        <g transform="matrix(1.0000 0.0000 0.0000 1.0000 0.0000 0.0000)">
</g>
        <g transform="matrix(0.0625 0.0000 0.0000 0.0625 0.0000 0.0000)">
          <path d="M 308.9963,296.3245 L 308.9963,319.7185 L 563.4064,319.7185 L 563.4064,296.3245 L 308.9963,296.3245 Z" stroke-width="1px" stroke="#4D4D4D" fill="#4D4D4D"/>
        </g>
        <g transform="matrix(1.0000 0.0000 0.0000 1.0000 0.0000 0.0000)">
</g>
        <g transform="matrix(0.0625 0.0000 0.0000 0.0625 0.0000 0.0000)">
          <path d="M 308.9963,203.7231 L 308.9963,226.1424 L 563.4064,226.1424 L 563.4064,203.7231 L 308.9963,203.7231 Z" stroke-width="1px" stroke="#4D4D4D" fill="#4D4D4D"/>
        </g>
        <g transform="matrix(1.0000 0.0000 0.0000 1.0000 0.0000 0.0000)">
</g>
        <g transform="matrix(0.0625 0.0000 0.0000 0.0625 0.0000 0.0000)">
          <path d="M 308.9963,110.1469 L 308.9963,133.5410 L 563.4064,133.5410 L 563.4064,110.1469 L 308.9963,110.1469 Z" stroke-width="1px" stroke="#4D4D4D" fill="#4D4D4D"/>
        </g>
        <g transform="matrix(1.0000 0.0000 0.0000 1.0000 0.0000 0.0000)">
</g>
      </g>
      <!--emf-blob end-->
    </g>
  </g>
</svg>
