<svg xmlns="http://www.w3.org/2000/svg" xmlns:xlink="http://www.w3.org/1999/xlink" version="1.1" width="56.6929000000" height="29.3962000000">
  <title><![CDATA[V3000 Cluster]]></title>
  <g transform=" scale(1.000000) ">
    <!--converted by libvisio2svg-->
    <g transform=" translate(-1.189400,-1.089700) ">
      <!--emf-blob start-->
      <g transform="translate(0.9612, 0.9612)">
        <defs>
          <clipPath id="clip-221558440">
            <path d="M 4.8060,16.3405 L 55.7498,16.3405 L 55.7498,29.7973 L 4.8060,29.7973 L 4.8060,16.3405 Z Z"/>
          </clipPath>
        </defs>
        <path clip-path="url(#clip-221558440)" d="M 3.8448,15.3792 L 3.8448,29.7973 L 4.8060,29.7973 L 4.8060,15.3792 L 3.8448,15.3792 Z" stroke-width="1px" stroke="#B3B3B3" fill="#B3B3B3"/>
        <path clip-path="url(#clip-221558440)" d="M 4.8060,15.3792 L 4.8060,29.7973 L 5.7672,29.7973 L 5.7672,15.3792 L 4.8060,15.3792 Z" stroke-width="1px" stroke="#4F4F4F" fill="#4F4F4F"/>
        <path clip-path="url(#clip-221558440)" d="M 5.7672,15.3792 L 5.7672,29.7973 L 6.7284,29.7973 L 6.7284,15.3792 L 5.7672,15.3792 Z" stroke-width="1px" stroke="#505050" fill="#505050"/>
        <path clip-path="url(#clip-221558440)" d="M 6.7284,15.3792 L 6.7284,29.7973 L 7.6896,29.7973 L 7.6896,15.3792 L 6.7284,15.3792 Z" stroke-width="1px" stroke="#525252" fill="#525252"/>
        <path clip-path="url(#clip-221558440)" d="M 7.6896,15.3792 L 7.6896,29.7973 L 8.6508,29.7973 L 8.6508,15.3792 L 7.6896,15.3792 Z" stroke-width="1px" stroke="#545454" fill="#545454"/>
        <path clip-path="url(#clip-221558440)" d="M 8.6508,15.3792 L 8.6508,29.7973 L 9.6120,29.7973 L 9.6120,15.3792 L 8.6508,15.3792 Z" stroke-width="1px" stroke="#565656" fill="#565656"/>
        <path clip-path="url(#clip-221558440)" d="M 9.6120,15.3792 L 9.6120,29.7973 L 10.5732,29.7973 L 10.5732,15.3792 L 9.6120,15.3792 Z" stroke-width="1px" stroke="#585858" fill="#585858"/>
        <path clip-path="url(#clip-221558440)" d="M 10.5732,15.3792 L 10.5732,29.7973 L 11.5344,29.7973 L 11.5344,15.3792 L 10.5732,15.3792 Z" stroke-width="1px" stroke="#5A5A5A" fill="#5A5A5A"/>
        <path clip-path="url(#clip-221558440)" d="M 11.5344,15.3792 L 11.5344,29.7973 L 12.4956,29.7973 L 12.4956,15.3792 L 11.5344,15.3792 Z" stroke-width="1px" stroke="#5C5C5C" fill="#5C5C5C"/>
        <path clip-path="url(#clip-221558440)" d="M 12.4956,15.3792 L 12.4956,29.7973 L 13.4568,29.7973 L 13.4568,15.3792 L 12.4956,15.3792 Z" stroke-width="1px" stroke="#5E5E5E" fill="#5E5E5E"/>
        <path clip-path="url(#clip-221558440)" d="M 13.4568,15.3792 L 13.4568,29.7973 L 14.4180,29.7973 L 14.4180,15.3792 L 13.4568,15.3792 Z" stroke-width="1px" stroke="#606060" fill="#606060"/>
        <path clip-path="url(#clip-221558440)" d="M 14.4180,15.3792 L 14.4180,29.7973 L 15.3792,29.7973 L 15.3792,15.3792 L 14.4180,15.3792 Z" stroke-width="1px" stroke="#626262" fill="#626262"/>
        <path clip-path="url(#clip-221558440)" d="M 15.3792,15.3792 L 15.3792,29.7973 L 16.3405,29.7973 L 16.3405,15.3792 L 15.3792,15.3792 Z" stroke-width="1px" stroke="#646464" fill="#646464"/>
        <path clip-path="url(#clip-221558440)" d="M 16.3405,15.3792 L 16.3405,29.7973 L 17.3017,29.7973 L 17.3017,15.3792 L 16.3405,15.3792 Z" stroke-width="1px" stroke="#666666" fill="#666666"/>
        <path clip-path="url(#clip-221558440)" d="M 17.3017,15.3792 L 17.3017,29.7973 L 18.2629,29.7973 L 18.2629,15.3792 L 17.3017,15.3792 Z" stroke-width="1px" stroke="#686868" fill="#686868"/>
        <path clip-path="url(#clip-221558440)" d="M 18.2629,15.3792 L 18.2629,29.7973 L 19.2241,29.7973 L 19.2241,15.3792 L 18.2629,15.3792 Z" stroke-width="1px" stroke="#6A6A6A" fill="#6A6A6A"/>
        <path clip-path="url(#clip-221558440)" d="M 19.2241,15.3792 L 19.2241,29.7973 L 20.1853,29.7973 L 20.1853,15.3792 L 19.2241,15.3792 Z" stroke-width="1px" stroke="#6B6B6B" fill="#6B6B6B"/>
        <path clip-path="url(#clip-221558440)" d="M 20.1853,15.3792 L 20.1853,29.7973 L 21.1465,29.7973 L 21.1465,15.3792 L 20.1853,15.3792 Z" stroke-width="1px" stroke="#6D6D6D" fill="#6D6D6D"/>
        <path clip-path="url(#clip-221558440)" d="M 21.1465,15.3792 L 21.1465,29.7973 L 22.1077,29.7973 L 22.1077,15.3792 L 21.1465,15.3792 Z" stroke-width="1px" stroke="#6F6F6F" fill="#6F6F6F"/>
        <path clip-path="url(#clip-221558440)" d="M 22.1077,15.3792 L 22.1077,29.7973 L 23.0689,29.7973 L 23.0689,15.3792 L 22.1077,15.3792 Z" stroke-width="1px" stroke="#717171" fill="#717171"/>
        <path clip-path="url(#clip-221558440)" d="M 23.0689,15.3792 L 23.0689,29.7973 L 24.0301,29.7973 L 24.0301,15.3792 L 23.0689,15.3792 Z" stroke-width="1px" stroke="#727272" fill="#727272"/>
        <path clip-path="url(#clip-221558440)" d="M 24.0301,15.3792 L 24.0301,29.7973 L 24.9913,29.7973 L 24.9913,15.3792 L 24.0301,15.3792 Z" stroke-width="1px" stroke="#747474" fill="#747474"/>
        <path clip-path="url(#clip-221558440)" d="M 24.9913,15.3792 L 24.9913,29.7973 L 25.9525,29.7973 L 25.9525,15.3792 L 24.9913,15.3792 Z" stroke-width="1px" stroke="#777777" fill="#777777"/>
        <path clip-path="url(#clip-221558440)" d="M 25.9525,15.3792 L 25.9525,29.7973 L 26.9137,29.7973 L 26.9137,15.3792 L 25.9525,15.3792 Z" stroke-width="1px" stroke="#797979" fill="#797979"/>
        <path clip-path="url(#clip-221558440)" d="M 26.9137,15.3792 L 26.9137,29.7973 L 27.8749,29.7973 L 27.8749,15.3792 L 26.9137,15.3792 Z" stroke-width="1px" stroke="#7B7B7B" fill="#7B7B7B"/>
        <path clip-path="url(#clip-221558440)" d="M 27.8749,15.3792 L 27.8749,29.7973 L 28.8361,29.7973 L 28.8361,15.3792 L 27.8749,15.3792 Z" stroke-width="1px" stroke="#7C7C7C" fill="#7C7C7C"/>
        <path clip-path="url(#clip-221558440)" d="M 28.8361,15.3792 L 28.8361,29.7973 L 29.7973,29.7973 L 29.7973,15.3792 L 28.8361,15.3792 Z" stroke-width="1px" stroke="#7E7E7E" fill="#7E7E7E"/>
        <path clip-path="url(#clip-221558440)" d="M 29.7973,15.3792 L 29.7973,29.7973 L 30.7585,29.7973 L 30.7585,15.3792 L 29.7973,15.3792 Z" stroke-width="1px" stroke="#808080" fill="#808080"/>
        <path clip-path="url(#clip-221558440)" d="M 30.7585,15.3792 L 30.7585,29.7973 L 31.7197,29.7973 L 31.7197,15.3792 L 30.7585,15.3792 Z" stroke-width="1px" stroke="#828282" fill="#828282"/>
        <path clip-path="url(#clip-221558440)" d="M 31.7197,15.3792 L 31.7197,29.7973 L 32.6809,29.7973 L 32.6809,15.3792 L 31.7197,15.3792 Z" stroke-width="1px" stroke="#838383" fill="#838383"/>
        <path clip-path="url(#clip-221558440)" d="M 32.6809,15.3792 L 32.6809,29.7973 L 33.6421,29.7973 L 33.6421,15.3792 L 32.6809,15.3792 Z" stroke-width="1px" stroke="#858585" fill="#858585"/>
        <path clip-path="url(#clip-221558440)" d="M 33.6421,15.3792 L 33.6421,29.7973 L 34.6033,29.7973 L 34.6033,15.3792 L 33.6421,15.3792 Z" stroke-width="1px" stroke="#878787" fill="#878787"/>
        <path clip-path="url(#clip-221558440)" d="M 34.6033,15.3792 L 34.6033,29.7973 L 35.5645,29.7973 L 35.5645,15.3792 L 34.6033,15.3792 Z" stroke-width="1px" stroke="#898989" fill="#898989"/>
        <path clip-path="url(#clip-221558440)" d="M 35.5645,15.3792 L 35.5645,29.7973 L 36.5257,29.7973 L 36.5257,15.3792 L 35.5645,15.3792 Z" stroke-width="1px" stroke="#8B8B8B" fill="#8B8B8B"/>
        <path clip-path="url(#clip-221558440)" d="M 36.5257,15.3792 L 36.5257,29.7973 L 37.4869,29.7973 L 37.4869,15.3792 L 36.5257,15.3792 Z" stroke-width="1px" stroke="#8D8D8D" fill="#8D8D8D"/>
        <path clip-path="url(#clip-221558440)" d="M 37.4869,15.3792 L 37.4869,29.7973 L 38.4481,29.7973 L 38.4481,15.3792 L 37.4869,15.3792 Z" stroke-width="1px" stroke="#8F8F8F" fill="#8F8F8F"/>
        <path clip-path="url(#clip-221558440)" d="M 38.4481,15.3792 L 38.4481,29.7973 L 39.4093,29.7973 L 39.4093,15.3792 L 38.4481,15.3792 Z" stroke-width="1px" stroke="#919191" fill="#919191"/>
        <path clip-path="url(#clip-221558440)" d="M 39.4093,15.3792 L 39.4093,29.7973 L 40.3705,29.7973 L 40.3705,15.3792 L 39.4093,15.3792 Z" stroke-width="1px" stroke="#939393" fill="#939393"/>
        <path clip-path="url(#clip-221558440)" d="M 40.3705,15.3792 L 40.3705,29.7973 L 41.3317,29.7973 L 41.3317,15.3792 L 40.3705,15.3792 Z" stroke-width="1px" stroke="#959595" fill="#959595"/>
        <path clip-path="url(#clip-221558440)" d="M 41.3317,15.3792 L 41.3317,29.7973 L 42.2929,29.7973 L 42.2929,15.3792 L 41.3317,15.3792 Z" stroke-width="1px" stroke="#979797" fill="#979797"/>
        <path clip-path="url(#clip-221558440)" d="M 42.2929,15.3792 L 42.2929,29.7973 L 43.2541,29.7973 L 43.2541,15.3792 L 42.2929,15.3792 Z" stroke-width="1px" stroke="#999999" fill="#999999"/>
        <path clip-path="url(#clip-221558440)" d="M 43.2541,15.3792 L 43.2541,29.7973 L 44.2153,29.7973 L 44.2153,15.3792 L 43.2541,15.3792 Z" stroke-width="1px" stroke="#9B9B9B" fill="#9B9B9B"/>
        <path clip-path="url(#clip-221558440)" d="M 44.2153,15.3792 L 44.2153,29.7973 L 45.1765,29.7973 L 45.1765,15.3792 L 44.2153,15.3792 Z" stroke-width="1px" stroke="#9D9D9D" fill="#9D9D9D"/>
        <path clip-path="url(#clip-221558440)" d="M 45.1765,15.3792 L 45.1765,29.7973 L 46.1377,29.7973 L 46.1377,15.3792 L 45.1765,15.3792 Z" stroke-width="1px" stroke="#9E9E9E" fill="#9E9E9E"/>
        <path clip-path="url(#clip-221558440)" d="M 46.1377,15.3792 L 46.1377,29.7973 L 47.0989,29.7973 L 47.0989,15.3792 L 46.1377,15.3792 Z" stroke-width="1px" stroke="#A0A0A0" fill="#A0A0A0"/>
        <path clip-path="url(#clip-221558440)" d="M 47.0989,15.3792 L 47.0989,29.7973 L 48.0602,29.7973 L 48.0602,15.3792 L 47.0989,15.3792 Z" stroke-width="1px" stroke="#A2A2A2" fill="#A2A2A2"/>
        <path clip-path="url(#clip-221558440)" d="M 48.0602,15.3792 L 48.0602,29.7973 L 49.0214,29.7973 L 49.0214,15.3792 L 48.0602,15.3792 Z" stroke-width="1px" stroke="#A4A4A4" fill="#A4A4A4"/>
        <path clip-path="url(#clip-221558440)" d="M 49.0214,15.3792 L 49.0214,29.7973 L 49.9826,29.7973 L 49.9826,15.3792 L 49.0214,15.3792 Z" stroke-width="1px" stroke="#A6A6A6" fill="#A6A6A6"/>
        <path clip-path="url(#clip-221558440)" d="M 49.9826,15.3792 L 49.9826,29.7973 L 50.9438,29.7973 L 50.9438,15.3792 L 49.9826,15.3792 Z" stroke-width="1px" stroke="#A8A8A8" fill="#A8A8A8"/>
        <path clip-path="url(#clip-221558440)" d="M 50.9438,15.3792 L 50.9438,29.7973 L 51.9050,29.7973 L 51.9050,15.3792 L 50.9438,15.3792 Z" stroke-width="1px" stroke="#AAAAAA" fill="#AAAAAA"/>
        <path clip-path="url(#clip-221558440)" d="M 51.9050,15.3792 L 51.9050,29.7973 L 52.8662,29.7973 L 52.8662,15.3792 L 51.9050,15.3792 Z" stroke-width="1px" stroke="#ACACAC" fill="#ACACAC"/>
        <path clip-path="url(#clip-221558440)" d="M 52.8662,15.3792 L 52.8662,29.7973 L 53.8274,29.7973 L 53.8274,15.3792 L 52.8662,15.3792 Z" stroke-width="1px" stroke="#AEAEAE" fill="#AEAEAE"/>
        <path clip-path="url(#clip-221558440)" d="M 53.8274,15.3792 L 53.8274,29.7973 L 54.7886,29.7973 L 54.7886,15.3792 L 53.8274,15.3792 Z" stroke-width="1px" stroke="#AFAFAF" fill="#AFAFAF"/>
        <path clip-path="url(#clip-221558440)" d="M 54.7886,15.3792 L 54.7886,29.7973 L 55.7498,29.7973 L 55.7498,15.3792 L 54.7886,15.3792 Z" stroke-width="1px" stroke="#B1B1B1" fill="#B1B1B1"/>
        <g transform="matrix(0.0625 0.0000 0.0000 0.0625 0.0000 0.0000)">
          <path d="M 63.4394,470.9895 L 891.9964,470.9895 L 891.9964,247.0292 L 63.4394,247.0292 L 63.4394,470.9895 " stroke="#0054A6" stroke-width="9.6120" stroke-linecap="round" stroke-linejoin="round" fill="none"/>
        </g>
        <g transform="matrix(1.0000 0.0000 0.0000 1.0000 0.0000 0.0000)">
</g>
        <g transform="matrix(0.0625 0.0000 0.0000 0.0625 0.0000 0.0000)">
          <path d="M 229.7275,265.2920 C 82.6635,271.0593 82.6635,273.9429 82.6635,283.5549 L 82.6635,433.5026 C 82.6635,442.1534 82.6635,445.0370 229.7275,450.8042 C 316.2358,454.6490 409.4725,457.5326 475.7955,457.5326 C 542.1185,457.5326 636.3164,454.6490 721.8635,450.8042 C 868.9275,445.0370 868.9275,442.1534 868.9275,433.5026 L 868.9275,283.5549 C 868.9275,273.9429 868.9275,271.0593 721.8635,265.2920 C 636.3164,261.4472 542.1185,259.5248 475.7955,259.5248 C 409.4725,259.5248 315.2746,261.4472 229.7275,265.2920 Z " fill="#1A1A1A" stroke="none"/>
        </g>
        <g transform="matrix(1.0000 0.0000 0.0000 1.0000 0.0000 0.0000)">
          <path d="M 15.3792,17.3017 C 6.7284,18.2629 6.7284,18.2629 6.7284,18.2629 L 6.7284,26.9137 C 6.7284,27.8749 6.7284,27.8749 15.3792,27.8749 C 20.1853,27.8749 25.9525,28.8361 29.7973,28.8361 C 34.6033,28.8361 40.3705,27.8749 45.1765,27.8749 C 53.8274,27.8749 53.8274,27.8749 53.8274,26.9137 L 53.8274,18.2629 C 53.8274,18.2629 53.8274,18.2629 45.1765,17.3017 C 40.3705,17.3017 34.6033,17.3017 29.7973,17.3017 C 25.9525,17.3017 20.1853,17.3017 15.3792,17.3017 Z " fill="none" stroke="none"/>
          <defs>
            <clipPath id="clip-270744729">
              <path d="M 15.3792,17.3017 C 6.7284,18.2629 6.7284,18.2629 6.7284,18.2629 L 6.7284,26.9137 C 6.7284,27.8749 6.7284,27.8749 15.3792,27.8749 C 20.1853,27.8749 25.9525,28.8361 29.7973,28.8361 C 34.6033,28.8361 40.3705,27.8749 45.1765,27.8749 C 53.8274,27.8749 53.8274,27.8749 53.8274,26.9137 L 53.8274,18.2629 C 53.8274,18.2629 53.8274,18.2629 45.1765,17.3017 C 40.3705,17.3017 34.6033,17.3017 29.7973,17.3017 C 25.9525,17.3017 20.1853,17.3017 15.3792,17.3017 Z"/>
            </clipPath>
          </defs>
          <path clip-path="url(#clip-270744729)" d="M 5.7672,16.3405 L 5.7672,17.3017 L 53.8274,17.3017 L 53.8274,16.3405 L 5.7672,16.3405 Z" stroke-width="1px" stroke="#888888" fill="#888888"/>
          <path clip-path="url(#clip-270744729)" d="M 5.7672,17.3017 L 5.7672,18.2629 L 53.8274,18.2629 L 53.8274,17.3017 L 5.7672,17.3017 Z" stroke-width="1px" stroke="#8A8A8A" fill="#8A8A8A"/>
          <path clip-path="url(#clip-270744729)" d="M 5.7672,18.2629 L 5.7672,19.2241 L 53.8274,19.2241 L 53.8274,18.2629 L 5.7672,18.2629 Z" stroke-width="1px" stroke="#9C9C9C" fill="#9C9C9C"/>
          <path clip-path="url(#clip-270744729)" d="M 5.7672,19.2241 L 5.7672,20.1853 L 53.8274,20.1853 L 53.8274,19.2241 L 5.7672,19.2241 Z" stroke-width="1px" stroke="#ADADAD" fill="#ADADAD"/>
          <path clip-path="url(#clip-270744729)" d="M 5.7672,20.1853 L 5.7672,21.1465 L 53.8274,21.1465 L 53.8274,20.1853 L 5.7672,20.1853 Z" stroke-width="1px" stroke="#BFBFBF" fill="#BFBFBF"/>
          <path clip-path="url(#clip-270744729)" d="M 5.7672,21.1465 L 5.7672,22.1077 L 53.8274,22.1077 L 53.8274,21.1465 L 5.7672,21.1465 Z" stroke-width="1px" stroke="#D0D0D0" fill="#D0D0D0"/>
          <path clip-path="url(#clip-270744729)" d="M 5.7672,22.1077 L 5.7672,23.0689 L 53.8274,23.0689 L 53.8274,22.1077 L 5.7672,22.1077 Z" stroke-width="1px" stroke="#E1E1E1" fill="#E1E1E1"/>
          <path clip-path="url(#clip-270744729)" d="M 5.7672,23.0689 L 5.7672,24.0301 L 53.8274,24.0301 L 53.8274,23.0689 L 5.7672,23.0689 Z" stroke-width="1px" stroke="#D9D9D9" fill="#D9D9D9"/>
          <path clip-path="url(#clip-270744729)" d="M 5.7672,24.0301 L 5.7672,24.9913 L 53.8274,24.9913 L 53.8274,24.0301 L 5.7672,24.0301 Z" stroke-width="1px" stroke="#C8C8C8" fill="#C8C8C8"/>
          <path clip-path="url(#clip-270744729)" d="M 5.7672,24.9913 L 5.7672,25.9525 L 53.8274,25.9525 L 53.8274,24.9913 L 5.7672,24.9913 Z" stroke-width="1px" stroke="#B6B6B6" fill="#B6B6B6"/>
          <path clip-path="url(#clip-270744729)" d="M 5.7672,25.9525 L 5.7672,26.9137 L 53.8274,26.9137 L 53.8274,25.9525 L 5.7672,25.9525 Z" stroke-width="1px" stroke="#A4A4A4" fill="#A4A4A4"/>
          <path clip-path="url(#clip-270744729)" d="M 5.7672,26.9137 L 5.7672,27.8749 L 53.8274,27.8749 L 53.8274,26.9137 L 5.7672,26.9137 Z" stroke-width="1px" stroke="#939393" fill="#939393"/>
        </g>
        <g transform="matrix(0.0625 0.0000 0.0000 0.0625 0.0000 0.0000)">
          <path d="M 236.4559,273.9429 C 93.2367,279.7101 93.2367,282.5937 93.2367,290.2833 L 93.2367,425.8129 C 93.2367,433.5026 93.2367,436.3862 236.4559,442.1534 C 320.0806,445.0370 411.3949,446.9594 475.7955,446.9594 C 540.1961,446.9594 631.5104,445.0370 715.1351,442.1534 C 858.3543,436.3862 858.3543,433.5026 858.3543,425.8129 L 858.3543,290.2833 C 858.3543,282.5937 858.3543,279.7101 715.1351,273.9429 C 631.5104,271.0593 540.1961,269.1368 475.7955,269.1368 C 411.3949,269.1368 320.0806,271.0593 236.4559,273.9429 " stroke="#0054A6" stroke-width="7.6896" stroke-linecap="round" stroke-linejoin="round" fill="none"/>
        </g>
        <g transform="matrix(1.0000 0.0000 0.0000 1.0000 0.0000 0.0000)">
</g>
        <g transform="matrix(0.0625 0.0000 0.0000 0.0625 0.0000 0.0000)">
          <path d="M 470.0283,340.2659 L 470.0283,364.2959 L 615.1699,364.2959 L 615.1699,340.2659 L 470.0283,340.2659 Z" stroke-width="1px" stroke="#8DC63F" fill="#8DC63F"/>
        </g>
        <g transform="matrix(1.0000 0.0000 0.0000 1.0000 0.0000 0.0000)">
</g>
        <g transform="matrix(0.0625 0.0000 0.0000 0.0625 0.0000 0.0000)">
          <path d="M 470.0283,364.2959 L 470.0283,396.0156 C 470.0283,401.7829 475.7955,407.5501 481.5627,407.5501 L 603.6355,407.5501 C 609.4027,407.5501 615.1699,401.7829 615.1699,396.0156 L 615.1699,364.2959 L 470.0283,364.2959 Z " fill="#0054A6" stroke="none"/>
        </g>
        <g transform="matrix(1.0000 0.0000 0.0000 1.0000 0.0000 0.0000)">
</g>
        <g transform="matrix(0.0625 0.0000 0.0000 0.0625 0.0000 0.0000)">
          <path d="M 150.9089,414.2785 C 150.9089,419.0845 148.0253,421.9681 144.1805,421.9681 L 133.6072,421.9681 C 125.9176,421.9681 120.1504,389.2872 120.1504,356.6063 C 120.1504,323.9254 125.9176,291.2445 133.6072,291.2445 L 144.1805,291.2445 C 148.0253,291.2445 150.9089,295.0893 150.9089,299.8953 L 150.9089,414.2785 Z M 186.4734,357.5675 C 186.4734,322.9642 192.2406,289.3221 200.8914,289.3221 L 210.5035,289.3221 C 214.3483,289.3221 217.2319,293.1669 217.2319,297.9729 L 217.2319,416.2009 C 217.2319,421.0069 214.3483,423.8905 210.5035,423.8905 L 200.8914,423.8905 C 192.2406,423.8905 186.4734,391.2096 186.4734,357.5675 Z M 252.7964,357.5675 C 252.7964,322.9642 258.5636,288.3609 267.2144,288.3609 L 276.8265,288.3609 C 280.6713,288.3609 283.5549,292.2057 283.5549,297.0117 L 283.5549,418.1233 C 283.5549,422.9293 280.6713,426.7741 276.8265,426.7741 L 267.2144,426.7741 C 258.5636,426.7741 252.7964,392.1708 252.7964,357.5675 Z M 320.0806,357.5675 C 320.0806,322.0030 325.8478,286.4385 333.5375,286.4385 L 343.1495,286.4385 C 346.9943,286.4385 349.8779,290.2833 349.8779,295.0893 L 349.8779,419.0845 C 349.8779,423.8905 346.9943,428.6966 343.1495,428.6966 L 333.5375,428.6966 C 325.8478,428.6966 320.0806,393.1320 320.0806,357.5675 Z M 416.2009,421.0069 C 416.2009,425.8129 413.3173,430.6190 409.4725,430.6190 L 399.8605,430.6190 C 392.1708,430.6190 386.4036,394.0932 386.4036,357.5675 C 386.4036,321.0418 392.1708,284.5161 399.8605,284.5161 L 409.4725,284.5161 C 413.3173,284.5161 416.2009,288.3609 416.2009,293.1669 L 416.2009,421.0069 Z M 800.6821,414.2785 C 800.6821,419.0845 804.5269,421.9681 808.3717,421.9681 L 817.9838,421.9681 C 825.6734,421.9681 831.4406,389.2872 831.4406,356.6063 C 831.4406,323.9254 825.6734,291.2445 817.9838,291.2445 L 808.3717,291.2445 C 804.5269,291.2445 800.6821,295.0893 800.6821,299.8953 L 800.6821,414.2785 Z M 698.7946,357.5675 C 698.7946,322.9642 693.0274,288.3609 684.3766,288.3609 L 674.7645,288.3609 C 670.9197,288.3609 668.0361,292.2057 668.0361,297.0117 L 668.0361,418.1233 C 668.0361,422.9293 670.9197,426.7741 674.7645,426.7741 L 684.3766,426.7741 C 693.0274,426.7741 698.7946,392.1708 698.7946,357.5675 Z M 765.1176,357.5675 C 765.1176,322.9642 759.3504,289.3221 751.6608,289.3221 L 741.0875,289.3221 C 737.2427,289.3221 734.3591,293.1669 734.3591,297.9729 L 734.3591,416.2009 C 734.3591,421.0069 737.2427,423.8905 741.0875,423.8905 L 751.6608,423.8905 C 759.3504,423.8905 765.1176,391.2096 765.1176,357.5675 Z " fill="#0054A6" stroke="none"/>
        </g>
        <g transform="matrix(1.0000 0.0000 0.0000 1.0000 0.0000 0.0000)">
          <defs>
            <clipPath id="clip-1063958031">
              <path d="M 4.8060,1.9224 L 55.7498,1.9224 L 55.7498,15.3792 L 4.8060,15.3792 L 4.8060,1.9224 Z Z"/>
            </clipPath>
          </defs>
          <path clip-path="url(#clip-1063958031)" d="M 3.8448,0.9612 L 3.8448,15.3792 L 4.8060,15.3792 L 4.8060,0.9612 L 3.8448,0.9612 Z" stroke-width="1px" stroke="#B3B3B3" fill="#B3B3B3"/>
          <path clip-path="url(#clip-1063958031)" d="M 4.8060,0.9612 L 4.8060,15.3792 L 5.7672,15.3792 L 5.7672,0.9612 L 4.8060,0.9612 Z" stroke-width="1px" stroke="#4F4F4F" fill="#4F4F4F"/>
          <path clip-path="url(#clip-1063958031)" d="M 5.7672,0.9612 L 5.7672,15.3792 L 6.7284,15.3792 L 6.7284,0.9612 L 5.7672,0.9612 Z" stroke-width="1px" stroke="#505050" fill="#505050"/>
          <path clip-path="url(#clip-1063958031)" d="M 6.7284,0.9612 L 6.7284,15.3792 L 7.6896,15.3792 L 7.6896,0.9612 L 6.7284,0.9612 Z" stroke-width="1px" stroke="#525252" fill="#525252"/>
          <path clip-path="url(#clip-1063958031)" d="M 7.6896,0.9612 L 7.6896,15.3792 L 8.6508,15.3792 L 8.6508,0.9612 L 7.6896,0.9612 Z" stroke-width="1px" stroke="#545454" fill="#545454"/>
          <path clip-path="url(#clip-1063958031)" d="M 8.6508,0.9612 L 8.6508,15.3792 L 9.6120,15.3792 L 9.6120,0.9612 L 8.6508,0.9612 Z" stroke-width="1px" stroke="#565656" fill="#565656"/>
          <path clip-path="url(#clip-1063958031)" d="M 9.6120,0.9612 L 9.6120,15.3792 L 10.5732,15.3792 L 10.5732,0.9612 L 9.6120,0.9612 Z" stroke-width="1px" stroke="#585858" fill="#585858"/>
          <path clip-path="url(#clip-1063958031)" d="M 10.5732,0.9612 L 10.5732,15.3792 L 11.5344,15.3792 L 11.5344,0.9612 L 10.5732,0.9612 Z" stroke-width="1px" stroke="#5A5A5A" fill="#5A5A5A"/>
          <path clip-path="url(#clip-1063958031)" d="M 11.5344,0.9612 L 11.5344,15.3792 L 12.4956,15.3792 L 12.4956,0.9612 L 11.5344,0.9612 Z" stroke-width="1px" stroke="#5C5C5C" fill="#5C5C5C"/>
          <path clip-path="url(#clip-1063958031)" d="M 12.4956,0.9612 L 12.4956,15.3792 L 13.4568,15.3792 L 13.4568,0.9612 L 12.4956,0.9612 Z" stroke-width="1px" stroke="#5E5E5E" fill="#5E5E5E"/>
          <path clip-path="url(#clip-1063958031)" d="M 13.4568,0.9612 L 13.4568,15.3792 L 14.4180,15.3792 L 14.4180,0.9612 L 13.4568,0.9612 Z" stroke-width="1px" stroke="#606060" fill="#606060"/>
          <path clip-path="url(#clip-1063958031)" d="M 14.4180,0.9612 L 14.4180,15.3792 L 15.3792,15.3792 L 15.3792,0.9612 L 14.4180,0.9612 Z" stroke-width="1px" stroke="#626262" fill="#626262"/>
          <path clip-path="url(#clip-1063958031)" d="M 15.3792,0.9612 L 15.3792,15.3792 L 16.3405,15.3792 L 16.3405,0.9612 L 15.3792,0.9612 Z" stroke-width="1px" stroke="#646464" fill="#646464"/>
          <path clip-path="url(#clip-1063958031)" d="M 16.3405,0.9612 L 16.3405,15.3792 L 17.3017,15.3792 L 17.3017,0.9612 L 16.3405,0.9612 Z" stroke-width="1px" stroke="#666666" fill="#666666"/>
          <path clip-path="url(#clip-1063958031)" d="M 17.3017,0.9612 L 17.3017,15.3792 L 18.2629,15.3792 L 18.2629,0.9612 L 17.3017,0.9612 Z" stroke-width="1px" stroke="#686868" fill="#686868"/>
          <path clip-path="url(#clip-1063958031)" d="M 18.2629,0.9612 L 18.2629,15.3792 L 19.2241,15.3792 L 19.2241,0.9612 L 18.2629,0.9612 Z" stroke-width="1px" stroke="#6A6A6A" fill="#6A6A6A"/>
          <path clip-path="url(#clip-1063958031)" d="M 19.2241,0.9612 L 19.2241,15.3792 L 20.1853,15.3792 L 20.1853,0.9612 L 19.2241,0.9612 Z" stroke-width="1px" stroke="#6B6B6B" fill="#6B6B6B"/>
          <path clip-path="url(#clip-1063958031)" d="M 20.1853,0.9612 L 20.1853,15.3792 L 21.1465,15.3792 L 21.1465,0.9612 L 20.1853,0.9612 Z" stroke-width="1px" stroke="#6D6D6D" fill="#6D6D6D"/>
          <path clip-path="url(#clip-1063958031)" d="M 21.1465,0.9612 L 21.1465,15.3792 L 22.1077,15.3792 L 22.1077,0.9612 L 21.1465,0.9612 Z" stroke-width="1px" stroke="#6F6F6F" fill="#6F6F6F"/>
          <path clip-path="url(#clip-1063958031)" d="M 22.1077,0.9612 L 22.1077,15.3792 L 23.0689,15.3792 L 23.0689,0.9612 L 22.1077,0.9612 Z" stroke-width="1px" stroke="#717171" fill="#717171"/>
          <path clip-path="url(#clip-1063958031)" d="M 23.0689,0.9612 L 23.0689,15.3792 L 24.0301,15.3792 L 24.0301,0.9612 L 23.0689,0.9612 Z" stroke-width="1px" stroke="#727272" fill="#727272"/>
          <path clip-path="url(#clip-1063958031)" d="M 24.0301,0.9612 L 24.0301,15.3792 L 24.9913,15.3792 L 24.9913,0.9612 L 24.0301,0.9612 Z" stroke-width="1px" stroke="#747474" fill="#747474"/>
          <path clip-path="url(#clip-1063958031)" d="M 24.9913,0.9612 L 24.9913,15.3792 L 25.9525,15.3792 L 25.9525,0.9612 L 24.9913,0.9612 Z" stroke-width="1px" stroke="#777777" fill="#777777"/>
          <path clip-path="url(#clip-1063958031)" d="M 25.9525,0.9612 L 25.9525,15.3792 L 26.9137,15.3792 L 26.9137,0.9612 L 25.9525,0.9612 Z" stroke-width="1px" stroke="#797979" fill="#797979"/>
          <path clip-path="url(#clip-1063958031)" d="M 26.9137,0.9612 L 26.9137,15.3792 L 27.8749,15.3792 L 27.8749,0.9612 L 26.9137,0.9612 Z" stroke-width="1px" stroke="#7B7B7B" fill="#7B7B7B"/>
          <path clip-path="url(#clip-1063958031)" d="M 27.8749,0.9612 L 27.8749,15.3792 L 28.8361,15.3792 L 28.8361,0.9612 L 27.8749,0.9612 Z" stroke-width="1px" stroke="#7C7C7C" fill="#7C7C7C"/>
          <path clip-path="url(#clip-1063958031)" d="M 28.8361,0.9612 L 28.8361,15.3792 L 29.7973,15.3792 L 29.7973,0.9612 L 28.8361,0.9612 Z" stroke-width="1px" stroke="#7E7E7E" fill="#7E7E7E"/>
          <path clip-path="url(#clip-1063958031)" d="M 29.7973,0.9612 L 29.7973,15.3792 L 30.7585,15.3792 L 30.7585,0.9612 L 29.7973,0.9612 Z" stroke-width="1px" stroke="#808080" fill="#808080"/>
          <path clip-path="url(#clip-1063958031)" d="M 30.7585,0.9612 L 30.7585,15.3792 L 31.7197,15.3792 L 31.7197,0.9612 L 30.7585,0.9612 Z" stroke-width="1px" stroke="#828282" fill="#828282"/>
          <path clip-path="url(#clip-1063958031)" d="M 31.7197,0.9612 L 31.7197,15.3792 L 32.6809,15.3792 L 32.6809,0.9612 L 31.7197,0.9612 Z" stroke-width="1px" stroke="#838383" fill="#838383"/>
          <path clip-path="url(#clip-1063958031)" d="M 32.6809,0.9612 L 32.6809,15.3792 L 33.6421,15.3792 L 33.6421,0.9612 L 32.6809,0.9612 Z" stroke-width="1px" stroke="#858585" fill="#858585"/>
          <path clip-path="url(#clip-1063958031)" d="M 33.6421,0.9612 L 33.6421,15.3792 L 34.6033,15.3792 L 34.6033,0.9612 L 33.6421,0.9612 Z" stroke-width="1px" stroke="#878787" fill="#878787"/>
          <path clip-path="url(#clip-1063958031)" d="M 34.6033,0.9612 L 34.6033,15.3792 L 35.5645,15.3792 L 35.5645,0.9612 L 34.6033,0.9612 Z" stroke-width="1px" stroke="#898989" fill="#898989"/>
          <path clip-path="url(#clip-1063958031)" d="M 35.5645,0.9612 L 35.5645,15.3792 L 36.5257,15.3792 L 36.5257,0.9612 L 35.5645,0.9612 Z" stroke-width="1px" stroke="#8B8B8B" fill="#8B8B8B"/>
          <path clip-path="url(#clip-1063958031)" d="M 36.5257,0.9612 L 36.5257,15.3792 L 37.4869,15.3792 L 37.4869,0.9612 L 36.5257,0.9612 Z" stroke-width="1px" stroke="#8D8D8D" fill="#8D8D8D"/>
          <path clip-path="url(#clip-1063958031)" d="M 37.4869,0.9612 L 37.4869,15.3792 L 38.4481,15.3792 L 38.4481,0.9612 L 37.4869,0.9612 Z" stroke-width="1px" stroke="#8F8F8F" fill="#8F8F8F"/>
          <path clip-path="url(#clip-1063958031)" d="M 38.4481,0.9612 L 38.4481,15.3792 L 39.4093,15.3792 L 39.4093,0.9612 L 38.4481,0.9612 Z" stroke-width="1px" stroke="#919191" fill="#919191"/>
          <path clip-path="url(#clip-1063958031)" d="M 39.4093,0.9612 L 39.4093,15.3792 L 40.3705,15.3792 L 40.3705,0.9612 L 39.4093,0.9612 Z" stroke-width="1px" stroke="#939393" fill="#939393"/>
          <path clip-path="url(#clip-1063958031)" d="M 40.3705,0.9612 L 40.3705,15.3792 L 41.3317,15.3792 L 41.3317,0.9612 L 40.3705,0.9612 Z" stroke-width="1px" stroke="#959595" fill="#959595"/>
          <path clip-path="url(#clip-1063958031)" d="M 41.3317,0.9612 L 41.3317,15.3792 L 42.2929,15.3792 L 42.2929,0.9612 L 41.3317,0.9612 Z" stroke-width="1px" stroke="#979797" fill="#979797"/>
          <path clip-path="url(#clip-1063958031)" d="M 42.2929,0.9612 L 42.2929,15.3792 L 43.2541,15.3792 L 43.2541,0.9612 L 42.2929,0.9612 Z" stroke-width="1px" stroke="#999999" fill="#999999"/>
          <path clip-path="url(#clip-1063958031)" d="M 43.2541,0.9612 L 43.2541,15.3792 L 44.2153,15.3792 L 44.2153,0.9612 L 43.2541,0.9612 Z" stroke-width="1px" stroke="#9B9B9B" fill="#9B9B9B"/>
          <path clip-path="url(#clip-1063958031)" d="M 44.2153,0.9612 L 44.2153,15.3792 L 45.1765,15.3792 L 45.1765,0.9612 L 44.2153,0.9612 Z" stroke-width="1px" stroke="#9D9D9D" fill="#9D9D9D"/>
          <path clip-path="url(#clip-1063958031)" d="M 45.1765,0.9612 L 45.1765,15.3792 L 46.1377,15.3792 L 46.1377,0.9612 L 45.1765,0.9612 Z" stroke-width="1px" stroke="#9E9E9E" fill="#9E9E9E"/>
          <path clip-path="url(#clip-1063958031)" d="M 46.1377,0.9612 L 46.1377,15.3792 L 47.0989,15.3792 L 47.0989,0.9612 L 46.1377,0.9612 Z" stroke-width="1px" stroke="#A0A0A0" fill="#A0A0A0"/>
          <path clip-path="url(#clip-1063958031)" d="M 47.0989,0.9612 L 47.0989,15.3792 L 48.0602,15.3792 L 48.0602,0.9612 L 47.0989,0.9612 Z" stroke-width="1px" stroke="#A2A2A2" fill="#A2A2A2"/>
          <path clip-path="url(#clip-1063958031)" d="M 48.0602,0.9612 L 48.0602,15.3792 L 49.0214,15.3792 L 49.0214,0.9612 L 48.0602,0.9612 Z" stroke-width="1px" stroke="#A4A4A4" fill="#A4A4A4"/>
          <path clip-path="url(#clip-1063958031)" d="M 49.0214,0.9612 L 49.0214,15.3792 L 49.9826,15.3792 L 49.9826,0.9612 L 49.0214,0.9612 Z" stroke-width="1px" stroke="#A6A6A6" fill="#A6A6A6"/>
          <path clip-path="url(#clip-1063958031)" d="M 49.9826,0.9612 L 49.9826,15.3792 L 50.9438,15.3792 L 50.9438,0.9612 L 49.9826,0.9612 Z" stroke-width="1px" stroke="#A8A8A8" fill="#A8A8A8"/>
          <path clip-path="url(#clip-1063958031)" d="M 50.9438,0.9612 L 50.9438,15.3792 L 51.9050,15.3792 L 51.9050,0.9612 L 50.9438,0.9612 Z" stroke-width="1px" stroke="#AAAAAA" fill="#AAAAAA"/>
          <path clip-path="url(#clip-1063958031)" d="M 51.9050,0.9612 L 51.9050,15.3792 L 52.8662,15.3792 L 52.8662,0.9612 L 51.9050,0.9612 Z" stroke-width="1px" stroke="#ACACAC" fill="#ACACAC"/>
          <path clip-path="url(#clip-1063958031)" d="M 52.8662,0.9612 L 52.8662,15.3792 L 53.8274,15.3792 L 53.8274,0.9612 L 52.8662,0.9612 Z" stroke-width="1px" stroke="#AEAEAE" fill="#AEAEAE"/>
          <path clip-path="url(#clip-1063958031)" d="M 53.8274,0.9612 L 53.8274,15.3792 L 54.7886,15.3792 L 54.7886,0.9612 L 53.8274,0.9612 Z" stroke-width="1px" stroke="#AFAFAF" fill="#AFAFAF"/>
          <path clip-path="url(#clip-1063958031)" d="M 54.7886,0.9612 L 54.7886,15.3792 L 55.7498,15.3792 L 55.7498,0.9612 L 54.7886,0.9612 Z" stroke-width="1px" stroke="#B1B1B1" fill="#B1B1B1"/>
        </g>
        <g transform="matrix(0.0625 0.0000 0.0000 0.0625 0.0000 0.0000)">
          <path d="M 63.4394,241.2620 L 891.9964,241.2620 L 891.9964,18.2629 L 63.4394,18.2629 L 63.4394,241.2620 " stroke="#0054A6" stroke-width="9.6120" stroke-linecap="round" stroke-linejoin="round" fill="none"/>
        </g>
        <g transform="matrix(1.0000 0.0000 0.0000 1.0000 0.0000 0.0000)">
</g>
        <g transform="matrix(0.0625 0.0000 0.0000 0.0625 0.0000 0.0000)">
          <path d="M 229.7275,35.5645 C 82.6635,42.2929 82.6635,45.1765 82.6635,53.8274 L 82.6635,203.7750 C 82.6635,213.3871 82.6635,216.2707 229.7275,222.0379 C 316.2358,225.8827 409.4725,227.8051 475.7955,227.8051 C 542.1185,227.8051 636.3164,225.8827 721.8635,222.0379 C 868.9275,216.2707 868.9275,213.3871 868.9275,203.7750 L 868.9275,53.8274 C 868.9275,45.1765 868.9275,42.2929 721.8635,35.5645 C 636.3164,32.6809 542.1185,29.7973 475.7955,29.7973 C 409.4725,29.7973 315.2746,32.6809 229.7275,35.5645 Z " fill="#1A1A1A" stroke="none"/>
        </g>
        <g transform="matrix(1.0000 0.0000 0.0000 1.0000 0.0000 0.0000)">
          <path d="M 15.3792,2.8836 C 6.7284,3.8448 6.7284,3.8448 6.7284,3.8448 L 6.7284,12.4956 C 6.7284,13.4568 6.7284,13.4568 15.3792,13.4568 C 20.1853,13.4568 25.9525,14.4180 29.7973,14.4180 C 34.6033,14.4180 40.3705,13.4568 45.1765,13.4568 C 53.8274,13.4568 53.8274,13.4568 53.8274,12.4956 L 53.8274,3.8448 C 53.8274,3.8448 53.8274,3.8448 45.1765,2.8836 C 40.3705,2.8836 34.6033,2.8836 29.7973,2.8836 C 25.9525,2.8836 20.1853,2.8836 15.3792,2.8836 Z " fill="none" stroke="none"/>
          <defs>
            <clipPath id="clip-1633108117">
              <path d="M 15.3792,2.8836 C 6.7284,3.8448 6.7284,3.8448 6.7284,3.8448 L 6.7284,12.4956 C 6.7284,13.4568 6.7284,13.4568 15.3792,13.4568 C 20.1853,13.4568 25.9525,14.4180 29.7973,14.4180 C 34.6033,14.4180 40.3705,13.4568 45.1765,13.4568 C 53.8274,13.4568 53.8274,13.4568 53.8274,12.4956 L 53.8274,3.8448 C 53.8274,3.8448 53.8274,3.8448 45.1765,2.8836 C 40.3705,2.8836 34.6033,2.8836 29.7973,2.8836 C 25.9525,2.8836 20.1853,2.8836 15.3792,2.8836 Z"/>
            </clipPath>
          </defs>
          <path clip-path="url(#clip-1633108117)" d="M 5.7672,1.9224 L 5.7672,2.8836 L 53.8274,2.8836 L 53.8274,1.9224 L 5.7672,1.9224 Z" stroke-width="1px" stroke="#8A8A8A" fill="#8A8A8A"/>
          <path clip-path="url(#clip-1633108117)" d="M 5.7672,2.8836 L 5.7672,3.8448 L 53.8274,3.8448 L 53.8274,2.8836 L 5.7672,2.8836 Z" stroke-width="1px" stroke="#888888" fill="#888888"/>
          <path clip-path="url(#clip-1633108117)" d="M 5.7672,3.8448 L 5.7672,4.8060 L 53.8274,4.8060 L 53.8274,3.8448 L 5.7672,3.8448 Z" stroke-width="1px" stroke="#9A9A9A" fill="#9A9A9A"/>
          <path clip-path="url(#clip-1633108117)" d="M 5.7672,4.8060 L 5.7672,5.7672 L 53.8274,5.7672 L 53.8274,4.8060 L 5.7672,4.8060 Z" stroke-width="1px" stroke="#ABABAB" fill="#ABABAB"/>
          <path clip-path="url(#clip-1633108117)" d="M 5.7672,5.7672 L 5.7672,6.7284 L 53.8274,6.7284 L 53.8274,5.7672 L 5.7672,5.7672 Z" stroke-width="1px" stroke="#BDBDBD" fill="#BDBDBD"/>
          <path clip-path="url(#clip-1633108117)" d="M 5.7672,6.7284 L 5.7672,7.6896 L 53.8274,7.6896 L 53.8274,6.7284 L 5.7672,6.7284 Z" stroke-width="1px" stroke="#CECECE" fill="#CECECE"/>
          <path clip-path="url(#clip-1633108117)" d="M 5.7672,7.6896 L 5.7672,8.6508 L 53.8274,8.6508 L 53.8274,7.6896 L 5.7672,7.6896 Z" stroke-width="1px" stroke="#E0E0E0" fill="#E0E0E0"/>
          <path clip-path="url(#clip-1633108117)" d="M 5.7672,8.6508 L 5.7672,9.6120 L 53.8274,9.6120 L 53.8274,8.6508 L 5.7672,8.6508 Z" stroke-width="1px" stroke="#DBDBDB" fill="#DBDBDB"/>
          <path clip-path="url(#clip-1633108117)" d="M 5.7672,9.6120 L 5.7672,10.5732 L 53.8274,10.5732 L 53.8274,9.6120 L 5.7672,9.6120 Z" stroke-width="1px" stroke="#CACACA" fill="#CACACA"/>
          <path clip-path="url(#clip-1633108117)" d="M 5.7672,10.5732 L 5.7672,11.5344 L 53.8274,11.5344 L 53.8274,10.5732 L 5.7672,10.5732 Z" stroke-width="1px" stroke="#B8B8B8" fill="#B8B8B8"/>
          <path clip-path="url(#clip-1633108117)" d="M 5.7672,11.5344 L 5.7672,12.4956 L 53.8274,12.4956 L 53.8274,11.5344 L 5.7672,11.5344 Z" stroke-width="1px" stroke="#A6A6A6" fill="#A6A6A6"/>
          <path clip-path="url(#clip-1633108117)" d="M 5.7672,12.4956 L 5.7672,13.4568 L 53.8274,13.4568 L 53.8274,12.4956 L 5.7672,12.4956 Z" stroke-width="1px" stroke="#959595" fill="#959595"/>
        </g>
        <g transform="matrix(0.0625 0.0000 0.0000 0.0625 0.0000 0.0000)">
          <path d="M 236.4559,45.1765 C 93.2367,50.9438 93.2367,53.8274 93.2367,61.5170 L 93.2367,197.0466 C 93.2367,204.7362 93.2367,207.6199 236.4559,213.3871 C 320.0806,216.2707 411.3949,218.1931 475.7955,218.1931 C 540.1961,218.1931 631.5104,216.2707 715.1351,213.3871 C 858.3543,207.6199 858.3543,204.7362 858.3543,197.0466 L 858.3543,61.5170 C 858.3543,53.8274 858.3543,50.9438 715.1351,45.1765 C 631.5104,42.2929 540.1961,39.4093 475.7955,39.4093 C 411.3949,39.4093 320.0806,42.2929 236.4559,45.1765 " stroke="#0054A6" stroke-width="7.6896" stroke-linecap="round" stroke-linejoin="round" fill="none"/>
        </g>
        <g transform="matrix(1.0000 0.0000 0.0000 1.0000 0.0000 0.0000)">
</g>
        <g transform="matrix(0.0625 0.0000 0.0000 0.0625 0.0000 0.0000)">
          <path d="M 470.0283,111.4996 L 470.0283,135.5296 L 615.1699,135.5296 L 615.1699,111.4996 L 470.0283,111.4996 Z" stroke-width="1px" stroke="#8DC63F" fill="#8DC63F"/>
        </g>
        <g transform="matrix(1.0000 0.0000 0.0000 1.0000 0.0000 0.0000)">
</g>
        <g transform="matrix(0.0625 0.0000 0.0000 0.0625 0.0000 0.0000)">
          <path d="M 470.0283,134.5684 L 470.0283,166.2881 C 470.0283,173.0165 475.7955,178.7838 481.5627,178.7838 L 603.6355,178.7838 C 609.4027,178.7838 615.1699,173.0165 615.1699,166.2881 L 615.1699,134.5684 L 470.0283,134.5684 Z " fill="#0054A6" stroke="none"/>
        </g>
        <g transform="matrix(1.0000 0.0000 0.0000 1.0000 0.0000 0.0000)">
</g>
        <g transform="matrix(0.0625 0.0000 0.0000 0.0625 0.0000 0.0000)">
          <path d="M 150.9089,185.5122 C 150.9089,189.3570 148.0253,193.2018 144.1805,193.2018 L 133.6072,193.2018 C 125.9176,193.2018 120.1504,160.5209 120.1504,127.8400 C 120.1504,95.1591 125.9176,62.4782 133.6072,62.4782 L 144.1805,62.4782 C 148.0253,62.4782 150.9089,66.3230 150.9089,71.1290 L 150.9089,185.5122 Z M 186.4734,127.8400 C 186.4734,94.1979 192.2406,60.5558 200.8914,60.5558 L 210.5035,60.5558 C 214.3483,60.5558 217.2319,64.4006 217.2319,69.2066 L 217.2319,186.4734 C 217.2319,191.2794 214.3483,195.1242 210.5035,195.1242 L 200.8914,195.1242 C 192.2406,195.1242 186.4734,161.4821 186.4734,127.8400 Z M 252.7964,127.8400 C 252.7964,93.2367 258.5636,58.6334 267.2144,58.6334 L 276.8265,58.6334 C 280.6713,58.6334 283.5549,62.4782 283.5549,67.2842 L 283.5549,188.3958 C 283.5549,193.2018 280.6713,197.0466 276.8265,197.0466 L 267.2144,197.0466 C 258.5636,197.0466 252.7964,162.4433 252.7964,127.8400 Z M 320.0806,127.8400 C 320.0806,92.2755 325.8478,56.7110 333.5375,56.7110 L 343.1495,56.7110 C 346.9943,56.7110 349.8779,60.5558 349.8779,66.3230 L 349.8779,190.3182 C 349.8779,195.1242 346.9943,198.9690 343.1495,198.9690 L 333.5375,198.9690 C 325.8478,198.9690 320.0806,163.4045 320.0806,127.8400 Z M 416.2009,192.2406 C 416.2009,197.0466 413.3173,200.8914 409.4725,200.8914 L 399.8605,200.8914 C 392.1708,200.8914 386.4036,164.3657 386.4036,127.8400 C 386.4036,91.3143 392.1708,54.7886 399.8605,54.7886 L 409.4725,54.7886 C 413.3173,54.7886 416.2009,59.5946 416.2009,64.4006 L 416.2009,192.2406 Z M 800.6821,185.5122 C 800.6821,189.3570 804.5269,193.2018 808.3717,193.2018 L 817.9838,193.2018 C 825.6734,193.2018 831.4406,160.5209 831.4406,127.8400 C 831.4406,95.1591 825.6734,62.4782 817.9838,62.4782 L 808.3717,62.4782 C 804.5269,62.4782 800.6821,66.3230 800.6821,71.1290 L 800.6821,185.5122 Z M 698.7946,127.8400 C 698.7946,93.2367 693.0274,58.6334 684.3766,58.6334 L 674.7645,58.6334 C 670.9197,58.6334 668.0361,62.4782 668.0361,67.2842 L 668.0361,188.3958 C 668.0361,193.2018 670.9197,197.0466 674.7645,197.0466 L 684.3766,197.0466 C 693.0274,197.0466 698.7946,162.4433 698.7946,127.8400 Z M 765.1176,127.8400 C 765.1176,94.1979 759.3504,60.5558 751.6608,60.5558 L 741.0875,60.5558 C 737.2427,60.5558 734.3591,64.4006 734.3591,69.2066 L 734.3591,186.4734 C 734.3591,191.2794 737.2427,195.1242 741.0875,195.1242 L 751.6608,195.1242 C 759.3504,195.1242 765.1176,161.4821 765.1176,127.8400 Z " fill="#0054A6" stroke="none"/>
        </g>
        <g transform="matrix(1.0000 0.0000 0.0000 1.0000 0.0000 0.0000)">
          <path d="M 4.8060,1.9224 L 1.9224,2.8836 L 1.9224,15.3792 L 4.8060,15.3792 L 4.8060,1.9224 " fill="none" stroke="none"/>
          <defs>
            <clipPath id="clip-2114738097">
              <path d="M 4.8060,1.9224 L 1.9224,2.8836 L 1.9224,15.3792 L 4.8060,15.3792 L 4.8060,1.9224 Z"/>
            </clipPath>
          </defs>
          <path clip-path="url(#clip-2114738097)" d="M 0.9612,0.9612 L 0.9612,1.9224 L 3.8448,1.9224 L 3.8448,0.9612 L 0.9612,0.9612 Z" stroke-width="1px" stroke="#55BBEA" fill="#55BBEA"/>
          <path clip-path="url(#clip-2114738097)" d="M 0.9612,1.9224 L 0.9612,2.8836 L 3.8448,2.8836 L 3.8448,1.9224 L 0.9612,1.9224 Z" stroke-width="1px" stroke="#057BC3" fill="#057BC3"/>
          <path clip-path="url(#clip-2114738097)" d="M 0.9612,2.8836 L 0.9612,3.8448 L 3.8448,3.8448 L 3.8448,2.8836 L 0.9612,2.8836 Z" stroke-width="1px" stroke="#0B80C5" fill="#0B80C5"/>
          <path clip-path="url(#clip-2114738097)" d="M 0.9612,3.8448 L 0.9612,4.8060 L 3.8448,4.8060 L 3.8448,3.8448 L 0.9612,3.8448 Z" stroke-width="1px" stroke="#1185C8" fill="#1185C8"/>
          <path clip-path="url(#clip-2114738097)" d="M 0.9612,4.8060 L 0.9612,5.7672 L 3.8448,5.7672 L 3.8448,4.8060 L 0.9612,4.8060 Z" stroke-width="1px" stroke="#1789CB" fill="#1789CB"/>
          <path clip-path="url(#clip-2114738097)" d="M 0.9612,5.7672 L 0.9612,6.7284 L 3.8448,6.7284 L 3.8448,5.7672 L 0.9612,5.7672 Z" stroke-width="1px" stroke="#1D8ECE" fill="#1D8ECE"/>
          <path clip-path="url(#clip-2114738097)" d="M 0.9612,6.7284 L 0.9612,7.6896 L 3.8448,7.6896 L 3.8448,6.7284 L 0.9612,6.7284 Z" stroke-width="1px" stroke="#2393D1" fill="#2393D1"/>
          <path clip-path="url(#clip-2114738097)" d="M 0.9612,7.6896 L 0.9612,8.6508 L 3.8448,8.6508 L 3.8448,7.6896 L 0.9612,7.6896 Z" stroke-width="1px" stroke="#2998D5" fill="#2998D5"/>
          <path clip-path="url(#clip-2114738097)" d="M 0.9612,8.6508 L 0.9612,9.6120 L 3.8448,9.6120 L 3.8448,8.6508 L 0.9612,8.6508 Z" stroke-width="1px" stroke="#2E9DD7" fill="#2E9DD7"/>
          <path clip-path="url(#clip-2114738097)" d="M 0.9612,9.6120 L 0.9612,10.5732 L 3.8448,10.5732 L 3.8448,9.6120 L 0.9612,9.6120 Z" stroke-width="1px" stroke="#34A1DA" fill="#34A1DA"/>
          <path clip-path="url(#clip-2114738097)" d="M 0.9612,10.5732 L 0.9612,11.5344 L 3.8448,11.5344 L 3.8448,10.5732 L 0.9612,10.5732 Z" stroke-width="1px" stroke="#3AA5DE" fill="#3AA5DE"/>
          <path clip-path="url(#clip-2114738097)" d="M 0.9612,11.5344 L 0.9612,12.4956 L 3.8448,12.4956 L 3.8448,11.5344 L 0.9612,11.5344 Z" stroke-width="1px" stroke="#41ABE0" fill="#41ABE0"/>
          <path clip-path="url(#clip-2114738097)" d="M 0.9612,12.4956 L 0.9612,13.4568 L 3.8448,13.4568 L 3.8448,12.4956 L 0.9612,12.4956 Z" stroke-width="1px" stroke="#46AFE3" fill="#46AFE3"/>
          <path clip-path="url(#clip-2114738097)" d="M 0.9612,13.4568 L 0.9612,14.4180 L 3.8448,14.4180 L 3.8448,13.4568 L 0.9612,13.4568 Z" stroke-width="1px" stroke="#4CB4E6" fill="#4CB4E6"/>
          <path clip-path="url(#clip-2114738097)" d="M 0.9612,14.4180 L 0.9612,15.3792 L 3.8448,15.3792 L 3.8448,14.4180 L 0.9612,14.4180 Z" stroke-width="1px" stroke="#52B9E9" fill="#52B9E9"/>
        </g>
        <g transform="matrix(0.0625 0.0000 0.0000 0.0625 0.0000 0.0000)">
          <path d="M 63.4394,18.2629 L 18.2629,44.2153 L 18.2629,241.2620 L 63.4394,241.2620 L 63.4394,18.2629 " stroke="#0054A6" stroke-width="9.6120" stroke-linecap="round" stroke-linejoin="round" fill="none"/>
        </g>
        <g transform="matrix(1.0000 0.0000 0.0000 1.0000 0.0000 0.0000)">
          <path d="M 4.8060,16.3405 L 1.9224,16.3405 L 1.9224,27.8749 L 4.8060,29.7973 L 4.8060,16.3405 " fill="none" stroke="none"/>
          <defs>
            <clipPath id="clip-2007905771">
              <path d="M 4.8060,16.3405 L 1.9224,16.3405 L 1.9224,27.8749 L 4.8060,29.7973 L 4.8060,16.3405 Z"/>
            </clipPath>
          </defs>
          <path clip-path="url(#clip-2007905771)" d="M 0.9612,15.3792 L 0.9612,16.3405 L 3.8448,16.3405 L 3.8448,15.3792 L 0.9612,15.3792 Z" stroke-width="1px" stroke="#56BCEB" fill="#56BCEB"/>
          <path clip-path="url(#clip-2007905771)" d="M 0.9612,16.3405 L 0.9612,17.3017 L 3.8448,17.3017 L 3.8448,16.3405 L 0.9612,16.3405 Z" stroke-width="1px" stroke="#057BC3" fill="#057BC3"/>
          <path clip-path="url(#clip-2007905771)" d="M 0.9612,17.3017 L 0.9612,18.2629 L 3.8448,18.2629 L 3.8448,17.3017 L 0.9612,17.3017 Z" stroke-width="1px" stroke="#0C81C5" fill="#0C81C5"/>
          <path clip-path="url(#clip-2007905771)" d="M 0.9612,18.2629 L 0.9612,19.2241 L 3.8448,19.2241 L 3.8448,18.2629 L 0.9612,18.2629 Z" stroke-width="1px" stroke="#1285C9" fill="#1285C9"/>
          <path clip-path="url(#clip-2007905771)" d="M 0.9612,19.2241 L 0.9612,20.1853 L 3.8448,20.1853 L 3.8448,19.2241 L 0.9612,19.2241 Z" stroke-width="1px" stroke="#188ACC" fill="#188ACC"/>
          <path clip-path="url(#clip-2007905771)" d="M 0.9612,20.1853 L 0.9612,21.1465 L 3.8448,21.1465 L 3.8448,20.1853 L 0.9612,20.1853 Z" stroke-width="1px" stroke="#1D8FCE" fill="#1D8FCE"/>
          <path clip-path="url(#clip-2007905771)" d="M 0.9612,21.1465 L 0.9612,22.1077 L 3.8448,22.1077 L 3.8448,21.1465 L 0.9612,21.1465 Z" stroke-width="1px" stroke="#2393D2" fill="#2393D2"/>
          <path clip-path="url(#clip-2007905771)" d="M 0.9612,22.1077 L 0.9612,23.0689 L 3.8448,23.0689 L 3.8448,22.1077 L 0.9612,22.1077 Z" stroke-width="1px" stroke="#2998D5" fill="#2998D5"/>
          <path clip-path="url(#clip-2007905771)" d="M 0.9612,23.0689 L 0.9612,24.0301 L 3.8448,24.0301 L 3.8448,23.0689 L 0.9612,23.0689 Z" stroke-width="1px" stroke="#2F9DD8" fill="#2F9DD8"/>
          <path clip-path="url(#clip-2007905771)" d="M 0.9612,24.0301 L 0.9612,24.9913 L 3.8448,24.9913 L 3.8448,24.0301 L 0.9612,24.0301 Z" stroke-width="1px" stroke="#35A1DB" fill="#35A1DB"/>
          <path clip-path="url(#clip-2007905771)" d="M 0.9612,24.9913 L 0.9612,25.9525 L 3.8448,25.9525 L 3.8448,24.9913 L 0.9612,24.9913 Z" stroke-width="1px" stroke="#3BA6DE" fill="#3BA6DE"/>
          <path clip-path="url(#clip-2007905771)" d="M 0.9612,25.9525 L 0.9612,26.9137 L 3.8448,26.9137 L 3.8448,25.9525 L 0.9612,25.9525 Z" stroke-width="1px" stroke="#41ABE0" fill="#41ABE0"/>
          <path clip-path="url(#clip-2007905771)" d="M 0.9612,26.9137 L 0.9612,27.8749 L 3.8448,27.8749 L 3.8448,26.9137 L 0.9612,26.9137 Z" stroke-width="1px" stroke="#47B0E3" fill="#47B0E3"/>
          <path clip-path="url(#clip-2007905771)" d="M 0.9612,27.8749 L 0.9612,28.8361 L 3.8448,28.8361 L 3.8448,27.8749 L 0.9612,27.8749 Z" stroke-width="1px" stroke="#4DB4E7" fill="#4DB4E7"/>
          <path clip-path="url(#clip-2007905771)" d="M 0.9612,28.8361 L 0.9612,29.7973 L 3.8448,29.7973 L 3.8448,28.8361 L 0.9612,28.8361 Z" stroke-width="1px" stroke="#53B9E9" fill="#53B9E9"/>
        </g>
        <g transform="matrix(0.0625 0.0000 0.0000 0.0625 0.0000 0.0000)">
          <path d="M 63.4394,247.0292 L 18.2629,247.0292 L 18.2629,445.0370 L 63.4394,470.9895 L 63.4394,247.0292 " stroke="#0054A6" stroke-width="9.6120" stroke-linecap="round" stroke-linejoin="round" fill="none"/>
        </g>
        <g transform="matrix(1.0000 0.0000 0.0000 1.0000 0.0000 0.0000)">
</g>
      </g>
      <!--emf-blob end-->
    </g>
  </g>
</svg>
