<svg xmlns="http://www.w3.org/2000/svg" xmlns:xlink="http://www.w3.org/1999/xlink" version="1.1" width="56.6929000000" height="14.5134000000">
  <title><![CDATA[V3000]]></title>
  <g transform=" scale(1.000000) ">
    <!--converted by libvisio2svg-->
    <g transform=" translate(-1.247900,-1.131300) ">
      <!--emf-blob start-->
      <g transform="translate(0.9339, 0.9339)">
        <defs>
          <clipPath id="clip-894429689">
            <path d="M 4.6693,1.8677 L 54.1636,1.8677 L 54.1636,14.9417 L 4.6693,14.9417 L 4.6693,1.8677 Z Z"/>
          </clipPath>
        </defs>
        <path clip-path="url(#clip-894429689)" d="M 3.7354,0.9339 L 3.7354,14.9417 L 4.6693,14.9417 L 4.6693,0.9339 L 3.7354,0.9339 Z" stroke-width="1px" stroke="#B3B3B3" fill="#B3B3B3"/>
        <path clip-path="url(#clip-894429689)" d="M 4.6693,0.9339 L 4.6693,14.9417 L 5.6031,14.9417 L 5.6031,0.9339 L 4.6693,0.9339 Z" stroke-width="1px" stroke="#4F4F4F" fill="#4F4F4F"/>
        <path clip-path="url(#clip-894429689)" d="M 5.6031,0.9339 L 5.6031,14.9417 L 6.5370,14.9417 L 6.5370,0.9339 L 5.6031,0.9339 Z" stroke-width="1px" stroke="#505050" fill="#505050"/>
        <path clip-path="url(#clip-894429689)" d="M 6.5370,0.9339 L 6.5370,14.9417 L 7.4708,14.9417 L 7.4708,0.9339 L 6.5370,0.9339 Z" stroke-width="1px" stroke="#525252" fill="#525252"/>
        <path clip-path="url(#clip-894429689)" d="M 7.4708,0.9339 L 7.4708,14.9417 L 8.4047,14.9417 L 8.4047,0.9339 L 7.4708,0.9339 Z" stroke-width="1px" stroke="#545454" fill="#545454"/>
        <path clip-path="url(#clip-894429689)" d="M 8.4047,0.9339 L 8.4047,14.9417 L 9.3386,14.9417 L 9.3386,0.9339 L 8.4047,0.9339 Z" stroke-width="1px" stroke="#565656" fill="#565656"/>
        <path clip-path="url(#clip-894429689)" d="M 9.3386,0.9339 L 9.3386,14.9417 L 10.2724,14.9417 L 10.2724,0.9339 L 9.3386,0.9339 Z" stroke-width="1px" stroke="#585858" fill="#585858"/>
        <path clip-path="url(#clip-894429689)" d="M 10.2724,0.9339 L 10.2724,14.9417 L 11.2063,14.9417 L 11.2063,0.9339 L 10.2724,0.9339 Z" stroke-width="1px" stroke="#5A5A5A" fill="#5A5A5A"/>
        <path clip-path="url(#clip-894429689)" d="M 11.2063,0.9339 L 11.2063,14.9417 L 12.1401,14.9417 L 12.1401,0.9339 L 11.2063,0.9339 Z" stroke-width="1px" stroke="#5C5C5C" fill="#5C5C5C"/>
        <path clip-path="url(#clip-894429689)" d="M 12.1401,0.9339 L 12.1401,14.9417 L 13.0740,14.9417 L 13.0740,0.9339 L 12.1401,0.9339 Z" stroke-width="1px" stroke="#5E5E5E" fill="#5E5E5E"/>
        <path clip-path="url(#clip-894429689)" d="M 13.0740,0.9339 L 13.0740,14.9417 L 14.0078,14.9417 L 14.0078,0.9339 L 13.0740,0.9339 Z" stroke-width="1px" stroke="#606060" fill="#606060"/>
        <path clip-path="url(#clip-894429689)" d="M 14.0078,0.9339 L 14.0078,14.9417 L 14.9417,14.9417 L 14.9417,0.9339 L 14.0078,0.9339 Z" stroke-width="1px" stroke="#626262" fill="#626262"/>
        <path clip-path="url(#clip-894429689)" d="M 14.9417,0.9339 L 14.9417,14.9417 L 15.8755,14.9417 L 15.8755,0.9339 L 14.9417,0.9339 Z" stroke-width="1px" stroke="#646464" fill="#646464"/>
        <path clip-path="url(#clip-894429689)" d="M 15.8755,0.9339 L 15.8755,14.9417 L 16.8094,14.9417 L 16.8094,0.9339 L 15.8755,0.9339 Z" stroke-width="1px" stroke="#666666" fill="#666666"/>
        <path clip-path="url(#clip-894429689)" d="M 16.8094,0.9339 L 16.8094,14.9417 L 17.7433,14.9417 L 17.7433,0.9339 L 16.8094,0.9339 Z" stroke-width="1px" stroke="#686868" fill="#686868"/>
        <path clip-path="url(#clip-894429689)" d="M 17.7433,0.9339 L 17.7433,14.9417 L 18.6771,14.9417 L 18.6771,0.9339 L 17.7433,0.9339 Z" stroke-width="1px" stroke="#6A6A6A" fill="#6A6A6A"/>
        <path clip-path="url(#clip-894429689)" d="M 18.6771,0.9339 L 18.6771,14.9417 L 19.6110,14.9417 L 19.6110,0.9339 L 18.6771,0.9339 Z" stroke-width="1px" stroke="#6B6B6B" fill="#6B6B6B"/>
        <path clip-path="url(#clip-894429689)" d="M 19.6110,0.9339 L 19.6110,14.9417 L 20.5448,14.9417 L 20.5448,0.9339 L 19.6110,0.9339 Z" stroke-width="1px" stroke="#6D6D6D" fill="#6D6D6D"/>
        <path clip-path="url(#clip-894429689)" d="M 20.5448,0.9339 L 20.5448,14.9417 L 21.4787,14.9417 L 21.4787,0.9339 L 20.5448,0.9339 Z" stroke-width="1px" stroke="#6F6F6F" fill="#6F6F6F"/>
        <path clip-path="url(#clip-894429689)" d="M 21.4787,0.9339 L 21.4787,14.9417 L 22.4125,14.9417 L 22.4125,0.9339 L 21.4787,0.9339 Z" stroke-width="1px" stroke="#717171" fill="#717171"/>
        <path clip-path="url(#clip-894429689)" d="M 22.4125,0.9339 L 22.4125,14.9417 L 23.3464,14.9417 L 23.3464,0.9339 L 22.4125,0.9339 Z" stroke-width="1px" stroke="#727272" fill="#727272"/>
        <path clip-path="url(#clip-894429689)" d="M 23.3464,0.9339 L 23.3464,14.9417 L 24.2802,14.9417 L 24.2802,0.9339 L 23.3464,0.9339 Z" stroke-width="1px" stroke="#747474" fill="#747474"/>
        <path clip-path="url(#clip-894429689)" d="M 24.2802,0.9339 L 24.2802,14.9417 L 25.2141,14.9417 L 25.2141,0.9339 L 24.2802,0.9339 Z" stroke-width="1px" stroke="#777777" fill="#777777"/>
        <path clip-path="url(#clip-894429689)" d="M 25.2141,0.9339 L 25.2141,14.9417 L 26.1480,14.9417 L 26.1480,0.9339 L 25.2141,0.9339 Z" stroke-width="1px" stroke="#797979" fill="#797979"/>
        <path clip-path="url(#clip-894429689)" d="M 26.1480,0.9339 L 26.1480,14.9417 L 27.0818,14.9417 L 27.0818,0.9339 L 26.1480,0.9339 Z" stroke-width="1px" stroke="#7B7B7B" fill="#7B7B7B"/>
        <path clip-path="url(#clip-894429689)" d="M 27.0818,0.9339 L 27.0818,14.9417 L 28.0157,14.9417 L 28.0157,0.9339 L 27.0818,0.9339 Z" stroke-width="1px" stroke="#7C7C7C" fill="#7C7C7C"/>
        <path clip-path="url(#clip-894429689)" d="M 28.0157,0.9339 L 28.0157,14.9417 L 28.9495,14.9417 L 28.9495,0.9339 L 28.0157,0.9339 Z" stroke-width="1px" stroke="#7E7E7E" fill="#7E7E7E"/>
        <path clip-path="url(#clip-894429689)" d="M 28.9495,0.9339 L 28.9495,14.9417 L 29.8834,14.9417 L 29.8834,0.9339 L 28.9495,0.9339 Z" stroke-width="1px" stroke="#808080" fill="#808080"/>
        <path clip-path="url(#clip-894429689)" d="M 29.8834,0.9339 L 29.8834,14.9417 L 30.8172,14.9417 L 30.8172,0.9339 L 29.8834,0.9339 Z" stroke-width="1px" stroke="#828282" fill="#828282"/>
        <path clip-path="url(#clip-894429689)" d="M 30.8172,0.9339 L 30.8172,14.9417 L 31.7511,14.9417 L 31.7511,0.9339 L 30.8172,0.9339 Z" stroke-width="1px" stroke="#838383" fill="#838383"/>
        <path clip-path="url(#clip-894429689)" d="M 31.7511,0.9339 L 31.7511,14.9417 L 32.6849,14.9417 L 32.6849,0.9339 L 31.7511,0.9339 Z" stroke-width="1px" stroke="#858585" fill="#858585"/>
        <path clip-path="url(#clip-894429689)" d="M 32.6849,0.9339 L 32.6849,14.9417 L 33.6188,14.9417 L 33.6188,0.9339 L 32.6849,0.9339 Z" stroke-width="1px" stroke="#878787" fill="#878787"/>
        <path clip-path="url(#clip-894429689)" d="M 33.6188,0.9339 L 33.6188,14.9417 L 34.5527,14.9417 L 34.5527,0.9339 L 33.6188,0.9339 Z" stroke-width="1px" stroke="#898989" fill="#898989"/>
        <path clip-path="url(#clip-894429689)" d="M 34.5527,0.9339 L 34.5527,14.9417 L 35.4865,14.9417 L 35.4865,0.9339 L 34.5527,0.9339 Z" stroke-width="1px" stroke="#8B8B8B" fill="#8B8B8B"/>
        <path clip-path="url(#clip-894429689)" d="M 35.4865,0.9339 L 35.4865,14.9417 L 36.4204,14.9417 L 36.4204,0.9339 L 35.4865,0.9339 Z" stroke-width="1px" stroke="#8D8D8D" fill="#8D8D8D"/>
        <path clip-path="url(#clip-894429689)" d="M 36.4204,0.9339 L 36.4204,14.9417 L 37.3542,14.9417 L 37.3542,0.9339 L 36.4204,0.9339 Z" stroke-width="1px" stroke="#8F8F8F" fill="#8F8F8F"/>
        <path clip-path="url(#clip-894429689)" d="M 37.3542,0.9339 L 37.3542,14.9417 L 38.2881,14.9417 L 38.2881,0.9339 L 37.3542,0.9339 Z" stroke-width="1px" stroke="#919191" fill="#919191"/>
        <path clip-path="url(#clip-894429689)" d="M 38.2881,0.9339 L 38.2881,14.9417 L 39.2219,14.9417 L 39.2219,0.9339 L 38.2881,0.9339 Z" stroke-width="1px" stroke="#939393" fill="#939393"/>
        <path clip-path="url(#clip-894429689)" d="M 39.2219,0.9339 L 39.2219,14.9417 L 40.1558,14.9417 L 40.1558,0.9339 L 39.2219,0.9339 Z" stroke-width="1px" stroke="#959595" fill="#959595"/>
        <path clip-path="url(#clip-894429689)" d="M 40.1558,0.9339 L 40.1558,14.9417 L 41.0896,14.9417 L 41.0896,0.9339 L 40.1558,0.9339 Z" stroke-width="1px" stroke="#979797" fill="#979797"/>
        <path clip-path="url(#clip-894429689)" d="M 41.0896,0.9339 L 41.0896,14.9417 L 42.0235,14.9417 L 42.0235,0.9339 L 41.0896,0.9339 Z" stroke-width="1px" stroke="#999999" fill="#999999"/>
        <path clip-path="url(#clip-894429689)" d="M 42.0235,0.9339 L 42.0235,14.9417 L 42.9574,14.9417 L 42.9574,0.9339 L 42.0235,0.9339 Z" stroke-width="1px" stroke="#9B9B9B" fill="#9B9B9B"/>
        <path clip-path="url(#clip-894429689)" d="M 42.9574,0.9339 L 42.9574,14.9417 L 43.8912,14.9417 L 43.8912,0.9339 L 42.9574,0.9339 Z" stroke-width="1px" stroke="#9D9D9D" fill="#9D9D9D"/>
        <path clip-path="url(#clip-894429689)" d="M 43.8912,0.9339 L 43.8912,14.9417 L 44.8251,14.9417 L 44.8251,0.9339 L 43.8912,0.9339 Z" stroke-width="1px" stroke="#9E9E9E" fill="#9E9E9E"/>
        <path clip-path="url(#clip-894429689)" d="M 44.8251,0.9339 L 44.8251,14.9417 L 45.7589,14.9417 L 45.7589,0.9339 L 44.8251,0.9339 Z" stroke-width="1px" stroke="#A0A0A0" fill="#A0A0A0"/>
        <path clip-path="url(#clip-894429689)" d="M 45.7589,0.9339 L 45.7589,14.9417 L 46.6928,14.9417 L 46.6928,0.9339 L 45.7589,0.9339 Z" stroke-width="1px" stroke="#A2A2A2" fill="#A2A2A2"/>
        <path clip-path="url(#clip-894429689)" d="M 46.6928,0.9339 L 46.6928,14.9417 L 47.6266,14.9417 L 47.6266,0.9339 L 46.6928,0.9339 Z" stroke-width="1px" stroke="#A4A4A4" fill="#A4A4A4"/>
        <path clip-path="url(#clip-894429689)" d="M 47.6266,0.9339 L 47.6266,14.9417 L 48.5605,14.9417 L 48.5605,0.9339 L 47.6266,0.9339 Z" stroke-width="1px" stroke="#A6A6A6" fill="#A6A6A6"/>
        <path clip-path="url(#clip-894429689)" d="M 48.5605,0.9339 L 48.5605,14.9417 L 49.4943,14.9417 L 49.4943,0.9339 L 48.5605,0.9339 Z" stroke-width="1px" stroke="#A8A8A8" fill="#A8A8A8"/>
        <path clip-path="url(#clip-894429689)" d="M 49.4943,0.9339 L 49.4943,14.9417 L 50.4282,14.9417 L 50.4282,0.9339 L 49.4943,0.9339 Z" stroke-width="1px" stroke="#AAAAAA" fill="#AAAAAA"/>
        <path clip-path="url(#clip-894429689)" d="M 50.4282,0.9339 L 50.4282,14.9417 L 51.3621,14.9417 L 51.3621,0.9339 L 50.4282,0.9339 Z" stroke-width="1px" stroke="#ACACAC" fill="#ACACAC"/>
        <path clip-path="url(#clip-894429689)" d="M 51.3621,0.9339 L 51.3621,14.9417 L 52.2959,14.9417 L 52.2959,0.9339 L 51.3621,0.9339 Z" stroke-width="1px" stroke="#AEAEAE" fill="#AEAEAE"/>
        <path clip-path="url(#clip-894429689)" d="M 52.2959,0.9339 L 52.2959,14.9417 L 53.2298,14.9417 L 53.2298,0.9339 L 52.2959,0.9339 Z" stroke-width="1px" stroke="#AFAFAF" fill="#AFAFAF"/>
        <path clip-path="url(#clip-894429689)" d="M 53.2298,0.9339 L 53.2298,14.9417 L 54.1636,14.9417 L 54.1636,0.9339 L 53.2298,0.9339 Z" stroke-width="1px" stroke="#B1B1B1" fill="#B1B1B1"/>
        <g transform="matrix(0.0625 0.0000 0.0000 0.0625 0.0000 0.0000)">
          <path d="M 61.6345,234.3977 L 866.6180,234.3977 L 866.6180,17.7433 L 61.6345,17.7433 L 61.6345,234.3977 " stroke="#0054A6" stroke-width="9.3386" stroke-linecap="round" stroke-linejoin="round" fill="none"/>
        </g>
        <g transform="matrix(1.0000 0.0000 0.0000 1.0000 0.0000 0.0000)">
</g>
        <g transform="matrix(0.0625 0.0000 0.0000 0.0625 0.0000 0.0000)">
          <path d="M 223.1915,34.5527 C 80.3116,41.0896 80.3116,43.8912 80.3116,52.2959 L 80.3116,197.9774 C 80.3116,207.3159 80.3116,210.1175 223.1915,215.7206 C 307.2385,219.4561 397.8225,221.3238 462.2585,221.3238 C 526.6945,221.3238 618.2124,219.4561 701.3255,215.7206 C 844.2054,210.1175 844.2054,207.3159 844.2054,197.9774 L 844.2054,52.2959 C 844.2054,43.8912 844.2054,41.0896 701.3255,34.5527 C 618.2124,31.7511 526.6945,28.9495 462.2585,28.9495 C 397.8225,28.9495 306.3046,31.7511 223.1915,34.5527 Z " fill="#1A1A1A" stroke="none"/>
        </g>
        <g transform="matrix(1.0000 0.0000 0.0000 1.0000 0.0000 0.0000)">
          <path d="M 14.9417,2.8016 C 6.5370,3.7354 6.5370,3.7354 6.5370,3.7354 L 6.5370,12.1401 C 6.5370,13.0740 6.5370,13.0740 14.9417,13.0740 C 19.6110,13.0740 25.2141,14.0078 28.9495,14.0078 C 33.6188,14.0078 39.2219,13.0740 43.8912,13.0740 C 52.2959,13.0740 52.2959,13.0740 52.2959,12.1401 L 52.2959,3.7354 C 52.2959,3.7354 52.2959,3.7354 43.8912,2.8016 C 39.2219,2.8016 33.6188,2.8016 28.9495,2.8016 C 25.2141,2.8016 19.6110,2.8016 14.9417,2.8016 Z " fill="none" stroke="none"/>
          <defs>
            <clipPath id="clip-364228444">
              <path d="M 14.9417,2.8016 C 6.5370,3.7354 6.5370,3.7354 6.5370,3.7354 L 6.5370,12.1401 C 6.5370,13.0740 6.5370,13.0740 14.9417,13.0740 C 19.6110,13.0740 25.2141,14.0078 28.9495,14.0078 C 33.6188,14.0078 39.2219,13.0740 43.8912,13.0740 C 52.2959,13.0740 52.2959,13.0740 52.2959,12.1401 L 52.2959,3.7354 C 52.2959,3.7354 52.2959,3.7354 43.8912,2.8016 C 39.2219,2.8016 33.6188,2.8016 28.9495,2.8016 C 25.2141,2.8016 19.6110,2.8016 14.9417,2.8016 Z"/>
            </clipPath>
          </defs>
          <path clip-path="url(#clip-364228444)" d="M 5.6031,1.8677 L 5.6031,2.8016 L 52.2959,2.8016 L 52.2959,1.8677 L 5.6031,1.8677 Z" stroke-width="1px" stroke="#8A8A8A" fill="#8A8A8A"/>
          <path clip-path="url(#clip-364228444)" d="M 5.6031,2.8016 L 5.6031,3.7354 L 52.2959,3.7354 L 52.2959,2.8016 L 5.6031,2.8016 Z" stroke-width="1px" stroke="#888888" fill="#888888"/>
          <path clip-path="url(#clip-364228444)" d="M 5.6031,3.7354 L 5.6031,4.6693 L 52.2959,4.6693 L 52.2959,3.7354 L 5.6031,3.7354 Z" stroke-width="1px" stroke="#9A9A9A" fill="#9A9A9A"/>
          <path clip-path="url(#clip-364228444)" d="M 5.6031,4.6693 L 5.6031,5.6031 L 52.2959,5.6031 L 52.2959,4.6693 L 5.6031,4.6693 Z" stroke-width="1px" stroke="#ABABAB" fill="#ABABAB"/>
          <path clip-path="url(#clip-364228444)" d="M 5.6031,5.6031 L 5.6031,6.5370 L 52.2959,6.5370 L 52.2959,5.6031 L 5.6031,5.6031 Z" stroke-width="1px" stroke="#BDBDBD" fill="#BDBDBD"/>
          <path clip-path="url(#clip-364228444)" d="M 5.6031,6.5370 L 5.6031,7.4708 L 52.2959,7.4708 L 52.2959,6.5370 L 5.6031,6.5370 Z" stroke-width="1px" stroke="#CECECE" fill="#CECECE"/>
          <path clip-path="url(#clip-364228444)" d="M 5.6031,7.4708 L 5.6031,8.4047 L 52.2959,8.4047 L 52.2959,7.4708 L 5.6031,7.4708 Z" stroke-width="1px" stroke="#E0E0E0" fill="#E0E0E0"/>
          <path clip-path="url(#clip-364228444)" d="M 5.6031,8.4047 L 5.6031,9.3386 L 52.2959,9.3386 L 52.2959,8.4047 L 5.6031,8.4047 Z" stroke-width="1px" stroke="#DBDBDB" fill="#DBDBDB"/>
          <path clip-path="url(#clip-364228444)" d="M 5.6031,9.3386 L 5.6031,10.2724 L 52.2959,10.2724 L 52.2959,9.3386 L 5.6031,9.3386 Z" stroke-width="1px" stroke="#CACACA" fill="#CACACA"/>
          <path clip-path="url(#clip-364228444)" d="M 5.6031,10.2724 L 5.6031,11.2063 L 52.2959,11.2063 L 52.2959,10.2724 L 5.6031,10.2724 Z" stroke-width="1px" stroke="#B8B8B8" fill="#B8B8B8"/>
          <path clip-path="url(#clip-364228444)" d="M 5.6031,11.2063 L 5.6031,12.1401 L 52.2959,12.1401 L 52.2959,11.2063 L 5.6031,11.2063 Z" stroke-width="1px" stroke="#A6A6A6" fill="#A6A6A6"/>
          <path clip-path="url(#clip-364228444)" d="M 5.6031,12.1401 L 5.6031,13.0740 L 52.2959,13.0740 L 52.2959,12.1401 L 5.6031,12.1401 Z" stroke-width="1px" stroke="#959595" fill="#959595"/>
        </g>
        <g transform="matrix(0.0625 0.0000 0.0000 0.0625 0.0000 0.0000)">
          <path d="M 229.7285,43.8912 C 90.5840,49.4943 90.5840,52.2959 90.5840,59.7668 L 90.5840,191.4404 C 90.5840,198.9112 90.5840,201.7128 229.7285,207.3159 C 310.9739,210.1175 399.6902,211.9852 462.2585,211.9852 C 524.8268,211.9852 613.5431,210.1175 694.7885,207.3159 C 833.9330,201.7128 833.9330,198.9112 833.9330,191.4404 L 833.9330,59.7668 C 833.9330,52.2959 833.9330,49.4943 694.7885,43.8912 C 613.5431,41.0896 524.8268,38.2881 462.2585,38.2881 C 399.6902,38.2881 310.9739,41.0896 229.7285,43.8912 " stroke="#0054A6" stroke-width="7.4708" stroke-linecap="round" stroke-linejoin="round" fill="none"/>
        </g>
        <g transform="matrix(1.0000 0.0000 0.0000 1.0000 0.0000 0.0000)">
</g>
        <g transform="matrix(0.0625 0.0000 0.0000 0.0625 0.0000 0.0000)">
          <path d="M 456.6554,108.3272 L 456.6554,131.6736 L 597.6676,131.6736 L 597.6676,108.3272 L 456.6554,108.3272 Z" stroke-width="1px" stroke="#8DC63F" fill="#8DC63F"/>
        </g>
        <g transform="matrix(1.0000 0.0000 0.0000 1.0000 0.0000 0.0000)">
</g>
        <g transform="matrix(0.0625 0.0000 0.0000 0.0625 0.0000 0.0000)">
          <path d="M 456.6554,130.7398 L 456.6554,161.5570 C 456.6554,168.0940 462.2585,173.6971 467.8616,173.6971 L 586.4613,173.6971 C 592.0644,173.6971 597.6676,168.0940 597.6676,161.5570 L 597.6676,130.7398 L 456.6554,130.7398 Z " fill="#0054A6" stroke="none"/>
        </g>
        <g transform="matrix(1.0000 0.0000 0.0000 1.0000 0.0000 0.0000)">
</g>
        <g transform="matrix(0.0625 0.0000 0.0000 0.0625 0.0000 0.0000)">
          <path d="M 146.6153,180.2341 C 146.6153,183.9695 143.8138,187.7050 140.0783,187.7050 L 129.8059,187.7050 C 122.3351,187.7050 116.7319,155.9539 116.7319,124.2028 C 116.7319,92.4517 122.3351,60.7006 129.8059,60.7006 L 140.0783,60.7006 C 143.8138,60.7006 146.6153,64.4360 146.6153,69.1053 L 146.6153,180.2341 Z M 181.1680,124.2028 C 181.1680,91.5178 186.7711,58.8329 195.1758,58.8329 L 204.5144,58.8329 C 208.2498,58.8329 211.0514,62.5683 211.0514,67.2376 L 211.0514,181.1680 C 211.0514,185.8373 208.2498,189.5727 204.5144,189.5727 L 195.1758,189.5727 C 186.7711,189.5727 181.1680,156.8877 181.1680,124.2028 Z M 245.6040,124.2028 C 245.6040,90.5840 251.2071,56.9652 259.6118,56.9652 L 268.9504,56.9652 C 272.6858,56.9652 275.4874,60.7006 275.4874,65.3699 L 275.4874,183.0357 C 275.4874,187.7050 272.6858,191.4404 268.9504,191.4404 L 259.6118,191.4404 C 251.2071,191.4404 245.6040,157.8216 245.6040,124.2028 Z M 310.9739,124.2028 C 310.9739,89.6501 316.5770,55.0975 324.0479,55.0975 L 333.3864,55.0975 C 337.1219,55.0975 339.9234,58.8329 339.9234,64.4360 L 339.9234,184.9034 C 339.9234,189.5727 337.1219,193.3081 333.3864,193.3081 L 324.0479,193.3081 C 316.5770,193.3081 310.9739,158.7554 310.9739,124.2028 Z M 404.3595,186.7711 C 404.3595,191.4404 401.5579,195.1758 397.8225,195.1758 L 388.4839,195.1758 C 381.0131,195.1758 375.4099,159.6893 375.4099,124.2028 C 375.4099,88.7163 381.0131,53.2298 388.4839,53.2298 L 397.8225,53.2298 C 401.5579,53.2298 404.3595,57.8990 404.3595,62.5683 L 404.3595,186.7711 Z M 777.9017,180.2341 C 777.9017,183.9695 781.6371,187.7050 785.3725,187.7050 L 794.7111,187.7050 C 802.1819,187.7050 807.7851,155.9539 807.7851,124.2028 C 807.7851,92.4517 802.1819,60.7006 794.7111,60.7006 L 785.3725,60.7006 C 781.6371,60.7006 777.9017,64.4360 777.9017,69.1053 L 777.9017,180.2341 Z M 678.9130,124.2028 C 678.9130,90.5840 673.3099,56.9652 664.9052,56.9652 L 655.5666,56.9652 C 651.8312,56.9652 649.0296,60.7006 649.0296,65.3699 L 649.0296,183.0357 C 649.0296,187.7050 651.8312,191.4404 655.5666,191.4404 L 664.9052,191.4404 C 673.3099,191.4404 678.9130,157.8216 678.9130,124.2028 Z M 743.3490,124.2028 C 743.3490,91.5178 737.7459,58.8329 730.2750,58.8329 L 720.0026,58.8329 C 716.2672,58.8329 713.4656,62.5683 713.4656,67.2376 L 713.4656,181.1680 C 713.4656,185.8373 716.2672,189.5727 720.0026,189.5727 L 730.2750,189.5727 C 737.7459,189.5727 743.3490,156.8877 743.3490,124.2028 Z " fill="#0054A6" stroke="none"/>
        </g>
        <g transform="matrix(1.0000 0.0000 0.0000 1.0000 0.0000 0.0000)">
          <path d="M 1.8677,2.8016 L 1.8677,13.0740 L 4.6693,14.9417 L 4.6693,1.8677 L 1.8677,2.8016 " fill="none" stroke="none"/>
          <defs>
            <clipPath id="clip-1947346619">
              <path d="M 1.8677,2.8016 L 1.8677,13.0740 L 4.6693,14.9417 L 4.6693,1.8677 L 1.8677,2.8016 Z"/>
            </clipPath>
          </defs>
          <path clip-path="url(#clip-1947346619)" d="M 0.9339,0.9339 L 0.9339,1.8677 L 3.7354,1.8677 L 3.7354,0.9339 L 0.9339,0.9339 Z" stroke-width="1px" stroke="#55BBEA" fill="#55BBEA"/>
          <path clip-path="url(#clip-1947346619)" d="M 0.9339,1.8677 L 0.9339,2.8016 L 3.7354,2.8016 L 3.7354,1.8677 L 0.9339,1.8677 Z" stroke-width="1px" stroke="#057BC3" fill="#057BC3"/>
          <path clip-path="url(#clip-1947346619)" d="M 0.9339,2.8016 L 0.9339,3.7354 L 3.7354,3.7354 L 3.7354,2.8016 L 0.9339,2.8016 Z" stroke-width="1px" stroke="#0B80C5" fill="#0B80C5"/>
          <path clip-path="url(#clip-1947346619)" d="M 0.9339,3.7354 L 0.9339,4.6693 L 3.7354,4.6693 L 3.7354,3.7354 L 0.9339,3.7354 Z" stroke-width="1px" stroke="#1185C8" fill="#1185C8"/>
          <path clip-path="url(#clip-1947346619)" d="M 0.9339,4.6693 L 0.9339,5.6031 L 3.7354,5.6031 L 3.7354,4.6693 L 0.9339,4.6693 Z" stroke-width="1px" stroke="#1789CB" fill="#1789CB"/>
          <path clip-path="url(#clip-1947346619)" d="M 0.9339,5.6031 L 0.9339,6.5370 L 3.7354,6.5370 L 3.7354,5.6031 L 0.9339,5.6031 Z" stroke-width="1px" stroke="#1D8ECE" fill="#1D8ECE"/>
          <path clip-path="url(#clip-1947346619)" d="M 0.9339,6.5370 L 0.9339,7.4708 L 3.7354,7.4708 L 3.7354,6.5370 L 0.9339,6.5370 Z" stroke-width="1px" stroke="#2393D1" fill="#2393D1"/>
          <path clip-path="url(#clip-1947346619)" d="M 0.9339,7.4708 L 0.9339,8.4047 L 3.7354,8.4047 L 3.7354,7.4708 L 0.9339,7.4708 Z" stroke-width="1px" stroke="#2998D5" fill="#2998D5"/>
          <path clip-path="url(#clip-1947346619)" d="M 0.9339,8.4047 L 0.9339,9.3386 L 3.7354,9.3386 L 3.7354,8.4047 L 0.9339,8.4047 Z" stroke-width="1px" stroke="#2E9DD7" fill="#2E9DD7"/>
          <path clip-path="url(#clip-1947346619)" d="M 0.9339,9.3386 L 0.9339,10.2724 L 3.7354,10.2724 L 3.7354,9.3386 L 0.9339,9.3386 Z" stroke-width="1px" stroke="#34A1DA" fill="#34A1DA"/>
          <path clip-path="url(#clip-1947346619)" d="M 0.9339,10.2724 L 0.9339,11.2063 L 3.7354,11.2063 L 3.7354,10.2724 L 0.9339,10.2724 Z" stroke-width="1px" stroke="#3AA5DE" fill="#3AA5DE"/>
          <path clip-path="url(#clip-1947346619)" d="M 0.9339,11.2063 L 0.9339,12.1401 L 3.7354,12.1401 L 3.7354,11.2063 L 0.9339,11.2063 Z" stroke-width="1px" stroke="#41ABE0" fill="#41ABE0"/>
          <path clip-path="url(#clip-1947346619)" d="M 0.9339,12.1401 L 0.9339,13.0740 L 3.7354,13.0740 L 3.7354,12.1401 L 0.9339,12.1401 Z" stroke-width="1px" stroke="#46AFE3" fill="#46AFE3"/>
          <path clip-path="url(#clip-1947346619)" d="M 0.9339,13.0740 L 0.9339,14.0078 L 3.7354,14.0078 L 3.7354,13.0740 L 0.9339,13.0740 Z" stroke-width="1px" stroke="#4CB4E6" fill="#4CB4E6"/>
          <path clip-path="url(#clip-1947346619)" d="M 0.9339,14.0078 L 0.9339,14.9417 L 3.7354,14.9417 L 3.7354,14.0078 L 0.9339,14.0078 Z" stroke-width="1px" stroke="#52B9E9" fill="#52B9E9"/>
        </g>
        <g transform="matrix(0.0625 0.0000 0.0000 0.0625 0.0000 0.0000)">
          <path d="M 17.7433,42.9574 L 17.7433,209.1836 L 61.6345,234.3977 L 61.6345,17.7433 L 17.7433,42.9574 " stroke="#0054A6" stroke-width="9.3386" stroke-linecap="round" stroke-linejoin="round" fill="none"/>
        </g>
        <g transform="matrix(1.0000 0.0000 0.0000 1.0000 0.0000 0.0000)">
</g>
      </g>
      <!--emf-blob end-->
    </g>
  </g>
</svg>
