<svg xmlns="http://www.w3.org/2000/svg" xmlns:xlink="http://www.w3.org/1999/xlink" version="1.1" width="56.6929000000" height="29.1969000000">
  <title><![CDATA[V6000]]></title>
  <g transform=" scale(1.000000) ">
    <!--converted by libvisio2svg-->
    <g transform=" translate(-1.239900,-1.141600) ">
      <!--emf-blob start-->
      <g transform="translate(0.9543, 0.9543)">
        <defs>
          <clipPath id="clip-1572276965">
            <path d="M 4.7717,1.9087 L 55.3512,1.9087 L 55.3512,29.5842 L 4.7717,29.5842 L 4.7717,1.9087 Z Z"/>
          </clipPath>
        </defs>
        <path clip-path="url(#clip-1572276965)" d="M 3.8173,0.9543 L 3.8173,29.5842 L 4.7717,29.5842 L 4.7717,0.9543 L 3.8173,0.9543 Z" stroke-width="1px" stroke="#B3B3B3" fill="#B3B3B3"/>
        <path clip-path="url(#clip-1572276965)" d="M 4.7717,0.9543 L 4.7717,29.5842 L 5.7260,29.5842 L 5.7260,0.9543 L 4.7717,0.9543 Z" stroke-width="1px" stroke="#4F4F4F" fill="#4F4F4F"/>
        <path clip-path="url(#clip-1572276965)" d="M 5.7260,0.9543 L 5.7260,29.5842 L 6.6803,29.5842 L 6.6803,0.9543 L 5.7260,0.9543 Z" stroke-width="1px" stroke="#505050" fill="#505050"/>
        <path clip-path="url(#clip-1572276965)" d="M 6.6803,0.9543 L 6.6803,29.5842 L 7.6346,29.5842 L 7.6346,0.9543 L 6.6803,0.9543 Z" stroke-width="1px" stroke="#525252" fill="#525252"/>
        <path clip-path="url(#clip-1572276965)" d="M 7.6346,0.9543 L 7.6346,29.5842 L 8.5890,29.5842 L 8.5890,0.9543 L 7.6346,0.9543 Z" stroke-width="1px" stroke="#545454" fill="#545454"/>
        <path clip-path="url(#clip-1572276965)" d="M 8.5890,0.9543 L 8.5890,29.5842 L 9.5433,29.5842 L 9.5433,0.9543 L 8.5890,0.9543 Z" stroke-width="1px" stroke="#565656" fill="#565656"/>
        <path clip-path="url(#clip-1572276965)" d="M 9.5433,0.9543 L 9.5433,29.5842 L 10.4976,29.5842 L 10.4976,0.9543 L 9.5433,0.9543 Z" stroke-width="1px" stroke="#585858" fill="#585858"/>
        <path clip-path="url(#clip-1572276965)" d="M 10.4976,0.9543 L 10.4976,29.5842 L 11.4520,29.5842 L 11.4520,0.9543 L 10.4976,0.9543 Z" stroke-width="1px" stroke="#5A5A5A" fill="#5A5A5A"/>
        <path clip-path="url(#clip-1572276965)" d="M 11.4520,0.9543 L 11.4520,29.5842 L 12.4063,29.5842 L 12.4063,0.9543 L 11.4520,0.9543 Z" stroke-width="1px" stroke="#5C5C5C" fill="#5C5C5C"/>
        <path clip-path="url(#clip-1572276965)" d="M 12.4063,0.9543 L 12.4063,29.5842 L 13.3606,29.5842 L 13.3606,0.9543 L 12.4063,0.9543 Z" stroke-width="1px" stroke="#5E5E5E" fill="#5E5E5E"/>
        <path clip-path="url(#clip-1572276965)" d="M 13.3606,0.9543 L 13.3606,29.5842 L 14.3150,29.5842 L 14.3150,0.9543 L 13.3606,0.9543 Z" stroke-width="1px" stroke="#606060" fill="#606060"/>
        <path clip-path="url(#clip-1572276965)" d="M 14.3150,0.9543 L 14.3150,29.5842 L 15.2693,29.5842 L 15.2693,0.9543 L 14.3150,0.9543 Z" stroke-width="1px" stroke="#626262" fill="#626262"/>
        <path clip-path="url(#clip-1572276965)" d="M 15.2693,0.9543 L 15.2693,29.5842 L 16.2236,29.5842 L 16.2236,0.9543 L 15.2693,0.9543 Z" stroke-width="1px" stroke="#646464" fill="#646464"/>
        <path clip-path="url(#clip-1572276965)" d="M 16.2236,0.9543 L 16.2236,29.5842 L 17.1779,29.5842 L 17.1779,0.9543 L 16.2236,0.9543 Z" stroke-width="1px" stroke="#666666" fill="#666666"/>
        <path clip-path="url(#clip-1572276965)" d="M 17.1779,0.9543 L 17.1779,29.5842 L 18.1323,29.5842 L 18.1323,0.9543 L 17.1779,0.9543 Z" stroke-width="1px" stroke="#686868" fill="#686868"/>
        <path clip-path="url(#clip-1572276965)" d="M 18.1323,0.9543 L 18.1323,29.5842 L 19.0866,29.5842 L 19.0866,0.9543 L 18.1323,0.9543 Z" stroke-width="1px" stroke="#6A6A6A" fill="#6A6A6A"/>
        <path clip-path="url(#clip-1572276965)" d="M 19.0866,0.9543 L 19.0866,29.5842 L 20.0409,29.5842 L 20.0409,0.9543 L 19.0866,0.9543 Z" stroke-width="1px" stroke="#6B6B6B" fill="#6B6B6B"/>
        <path clip-path="url(#clip-1572276965)" d="M 20.0409,0.9543 L 20.0409,29.5842 L 20.9953,29.5842 L 20.9953,0.9543 L 20.0409,0.9543 Z" stroke-width="1px" stroke="#6D6D6D" fill="#6D6D6D"/>
        <path clip-path="url(#clip-1572276965)" d="M 20.9953,0.9543 L 20.9953,29.5842 L 21.9496,29.5842 L 21.9496,0.9543 L 20.9953,0.9543 Z" stroke-width="1px" stroke="#6F6F6F" fill="#6F6F6F"/>
        <path clip-path="url(#clip-1572276965)" d="M 21.9496,0.9543 L 21.9496,29.5842 L 22.9039,29.5842 L 22.9039,0.9543 L 21.9496,0.9543 Z" stroke-width="1px" stroke="#717171" fill="#717171"/>
        <path clip-path="url(#clip-1572276965)" d="M 22.9039,0.9543 L 22.9039,29.5842 L 23.8583,29.5842 L 23.8583,0.9543 L 22.9039,0.9543 Z" stroke-width="1px" stroke="#727272" fill="#727272"/>
        <path clip-path="url(#clip-1572276965)" d="M 23.8583,0.9543 L 23.8583,29.5842 L 24.8126,29.5842 L 24.8126,0.9543 L 23.8583,0.9543 Z" stroke-width="1px" stroke="#747474" fill="#747474"/>
        <path clip-path="url(#clip-1572276965)" d="M 24.8126,0.9543 L 24.8126,29.5842 L 25.7669,29.5842 L 25.7669,0.9543 L 24.8126,0.9543 Z" stroke-width="1px" stroke="#777777" fill="#777777"/>
        <path clip-path="url(#clip-1572276965)" d="M 25.7669,0.9543 L 25.7669,29.5842 L 26.7212,29.5842 L 26.7212,0.9543 L 25.7669,0.9543 Z" stroke-width="1px" stroke="#797979" fill="#797979"/>
        <path clip-path="url(#clip-1572276965)" d="M 26.7212,0.9543 L 26.7212,29.5842 L 27.6756,29.5842 L 27.6756,0.9543 L 26.7212,0.9543 Z" stroke-width="1px" stroke="#7B7B7B" fill="#7B7B7B"/>
        <path clip-path="url(#clip-1572276965)" d="M 27.6756,0.9543 L 27.6756,29.5842 L 28.6299,29.5842 L 28.6299,0.9543 L 27.6756,0.9543 Z" stroke-width="1px" stroke="#7C7C7C" fill="#7C7C7C"/>
        <path clip-path="url(#clip-1572276965)" d="M 28.6299,0.9543 L 28.6299,29.5842 L 29.5842,29.5842 L 29.5842,0.9543 L 28.6299,0.9543 Z" stroke-width="1px" stroke="#7E7E7E" fill="#7E7E7E"/>
        <path clip-path="url(#clip-1572276965)" d="M 29.5842,0.9543 L 29.5842,29.5842 L 30.5386,29.5842 L 30.5386,0.9543 L 29.5842,0.9543 Z" stroke-width="1px" stroke="#808080" fill="#808080"/>
        <path clip-path="url(#clip-1572276965)" d="M 30.5386,0.9543 L 30.5386,29.5842 L 31.4929,29.5842 L 31.4929,0.9543 L 30.5386,0.9543 Z" stroke-width="1px" stroke="#828282" fill="#828282"/>
        <path clip-path="url(#clip-1572276965)" d="M 31.4929,0.9543 L 31.4929,29.5842 L 32.4472,29.5842 L 32.4472,0.9543 L 31.4929,0.9543 Z" stroke-width="1px" stroke="#838383" fill="#838383"/>
        <path clip-path="url(#clip-1572276965)" d="M 32.4472,0.9543 L 32.4472,29.5842 L 33.4016,29.5842 L 33.4016,0.9543 L 32.4472,0.9543 Z" stroke-width="1px" stroke="#858585" fill="#858585"/>
        <path clip-path="url(#clip-1572276965)" d="M 33.4016,0.9543 L 33.4016,29.5842 L 34.3559,29.5842 L 34.3559,0.9543 L 33.4016,0.9543 Z" stroke-width="1px" stroke="#878787" fill="#878787"/>
        <path clip-path="url(#clip-1572276965)" d="M 34.3559,0.9543 L 34.3559,29.5842 L 35.3102,29.5842 L 35.3102,0.9543 L 34.3559,0.9543 Z" stroke-width="1px" stroke="#898989" fill="#898989"/>
        <path clip-path="url(#clip-1572276965)" d="M 35.3102,0.9543 L 35.3102,29.5842 L 36.2646,29.5842 L 36.2646,0.9543 L 35.3102,0.9543 Z" stroke-width="1px" stroke="#8B8B8B" fill="#8B8B8B"/>
        <path clip-path="url(#clip-1572276965)" d="M 36.2646,0.9543 L 36.2646,29.5842 L 37.2189,29.5842 L 37.2189,0.9543 L 36.2646,0.9543 Z" stroke-width="1px" stroke="#8D8D8D" fill="#8D8D8D"/>
        <path clip-path="url(#clip-1572276965)" d="M 37.2189,0.9543 L 37.2189,29.5842 L 38.1732,29.5842 L 38.1732,0.9543 L 37.2189,0.9543 Z" stroke-width="1px" stroke="#8F8F8F" fill="#8F8F8F"/>
        <path clip-path="url(#clip-1572276965)" d="M 38.1732,0.9543 L 38.1732,29.5842 L 39.1275,29.5842 L 39.1275,0.9543 L 38.1732,0.9543 Z" stroke-width="1px" stroke="#919191" fill="#919191"/>
        <path clip-path="url(#clip-1572276965)" d="M 39.1275,0.9543 L 39.1275,29.5842 L 40.0819,29.5842 L 40.0819,0.9543 L 39.1275,0.9543 Z" stroke-width="1px" stroke="#939393" fill="#939393"/>
        <path clip-path="url(#clip-1572276965)" d="M 40.0819,0.9543 L 40.0819,29.5842 L 41.0362,29.5842 L 41.0362,0.9543 L 40.0819,0.9543 Z" stroke-width="1px" stroke="#959595" fill="#959595"/>
        <path clip-path="url(#clip-1572276965)" d="M 41.0362,0.9543 L 41.0362,29.5842 L 41.9905,29.5842 L 41.9905,0.9543 L 41.0362,0.9543 Z" stroke-width="1px" stroke="#979797" fill="#979797"/>
        <path clip-path="url(#clip-1572276965)" d="M 41.9905,0.9543 L 41.9905,29.5842 L 42.9449,29.5842 L 42.9449,0.9543 L 41.9905,0.9543 Z" stroke-width="1px" stroke="#999999" fill="#999999"/>
        <path clip-path="url(#clip-1572276965)" d="M 42.9449,0.9543 L 42.9449,29.5842 L 43.8992,29.5842 L 43.8992,0.9543 L 42.9449,0.9543 Z" stroke-width="1px" stroke="#9B9B9B" fill="#9B9B9B"/>
        <path clip-path="url(#clip-1572276965)" d="M 43.8992,0.9543 L 43.8992,29.5842 L 44.8535,29.5842 L 44.8535,0.9543 L 43.8992,0.9543 Z" stroke-width="1px" stroke="#9D9D9D" fill="#9D9D9D"/>
        <path clip-path="url(#clip-1572276965)" d="M 44.8535,0.9543 L 44.8535,29.5842 L 45.8079,29.5842 L 45.8079,0.9543 L 44.8535,0.9543 Z" stroke-width="1px" stroke="#9E9E9E" fill="#9E9E9E"/>
        <path clip-path="url(#clip-1572276965)" d="M 45.8079,0.9543 L 45.8079,29.5842 L 46.7622,29.5842 L 46.7622,0.9543 L 45.8079,0.9543 Z" stroke-width="1px" stroke="#A0A0A0" fill="#A0A0A0"/>
        <path clip-path="url(#clip-1572276965)" d="M 46.7622,0.9543 L 46.7622,29.5842 L 47.7165,29.5842 L 47.7165,0.9543 L 46.7622,0.9543 Z" stroke-width="1px" stroke="#A2A2A2" fill="#A2A2A2"/>
        <path clip-path="url(#clip-1572276965)" d="M 47.7165,0.9543 L 47.7165,29.5842 L 48.6708,29.5842 L 48.6708,0.9543 L 47.7165,0.9543 Z" stroke-width="1px" stroke="#A4A4A4" fill="#A4A4A4"/>
        <path clip-path="url(#clip-1572276965)" d="M 48.6708,0.9543 L 48.6708,29.5842 L 49.6252,29.5842 L 49.6252,0.9543 L 48.6708,0.9543 Z" stroke-width="1px" stroke="#A6A6A6" fill="#A6A6A6"/>
        <path clip-path="url(#clip-1572276965)" d="M 49.6252,0.9543 L 49.6252,29.5842 L 50.5795,29.5842 L 50.5795,0.9543 L 49.6252,0.9543 Z" stroke-width="1px" stroke="#A8A8A8" fill="#A8A8A8"/>
        <path clip-path="url(#clip-1572276965)" d="M 50.5795,0.9543 L 50.5795,29.5842 L 51.5338,29.5842 L 51.5338,0.9543 L 50.5795,0.9543 Z" stroke-width="1px" stroke="#AAAAAA" fill="#AAAAAA"/>
        <path clip-path="url(#clip-1572276965)" d="M 51.5338,0.9543 L 51.5338,29.5842 L 52.4882,29.5842 L 52.4882,0.9543 L 51.5338,0.9543 Z" stroke-width="1px" stroke="#ACACAC" fill="#ACACAC"/>
        <path clip-path="url(#clip-1572276965)" d="M 52.4882,0.9543 L 52.4882,29.5842 L 53.4425,29.5842 L 53.4425,0.9543 L 52.4882,0.9543 Z" stroke-width="1px" stroke="#AEAEAE" fill="#AEAEAE"/>
        <path clip-path="url(#clip-1572276965)" d="M 53.4425,0.9543 L 53.4425,29.5842 L 54.3968,29.5842 L 54.3968,0.9543 L 53.4425,0.9543 Z" stroke-width="1px" stroke="#AFAFAF" fill="#AFAFAF"/>
        <path clip-path="url(#clip-1572276965)" d="M 54.3968,0.9543 L 54.3968,29.5842 L 55.3512,29.5842 L 55.3512,0.9543 L 54.3968,0.9543 Z" stroke-width="1px" stroke="#B1B1B1" fill="#B1B1B1"/>
        <g transform="matrix(0.0625 0.0000 0.0000 0.0625 0.0000 0.0000)">
          <path d="M 62.9858,463.8045 L 885.6185,463.8045 L 885.6185,18.1323 L 62.9858,18.1323 L 62.9858,463.8045 " stroke="#0054A6" stroke-width="9.5433" stroke-linecap="round" stroke-linejoin="round" fill="none"/>
        </g>
        <g transform="matrix(1.0000 0.0000 0.0000 1.0000 0.0000 0.0000)">
</g>
        <g transform="matrix(0.0625 0.0000 0.0000 0.0625 0.0000 0.0000)">
          <path d="M 474.3022,433.2660 C 416.0880,433.2660 334.0156,431.3573 259.5778,427.5400 C 194.6834,425.6313 163.1905,422.7683 146.0125,420.8597 C 135.5149,418.9510 110.7023,416.0880 110.7023,388.4124 L 110.7023,93.5244 C 110.7023,66.8031 135.5149,62.9858 146.0125,62.0315 C 163.1905,59.1685 194.6834,57.2598 259.5778,54.3968 C 334.0156,51.5338 416.0880,49.6252 474.3022,49.6252 C 532.5163,49.6252 614.5887,51.5338 689.0265,54.3968 C 753.9209,57.2598 785.4138,59.1685 802.5918,62.0315 C 813.0894,62.9858 837.9020,66.8031 837.9020,93.5244 L 837.9020,388.4124 C 837.9020,416.0880 813.0894,418.9510 802.5918,420.8597 C 785.4138,422.7683 753.9209,425.6313 689.0265,427.5400 C 613.6344,431.3573 531.5620,433.2660 474.3022,433.2660 Z " fill="#1A1A1A" stroke="none"/>
        </g>
        <g transform="matrix(1.0000 0.0000 0.0000 1.0000 0.0000 0.0000)">
          <path d="M 43.8992,4.7717 C 39.1275,4.7717 33.4016,4.7717 29.5842,4.7717 C 26.7212,4.7717 20.9953,4.7717 16.2236,4.7717 C 8.5890,4.7717 8.5890,5.7260 8.5890,5.7260 L 8.5890,24.8126 C 8.5890,25.7669 8.5890,25.7669 16.2236,25.7669 C 20.9953,26.7212 26.7212,26.7212 29.5842,26.7212 C 33.4016,26.7212 39.1275,26.7212 43.8992,25.7669 C 51.5338,25.7669 51.5338,25.7669 51.5338,24.8126 L 51.5338,5.7260 C 51.5338,5.7260 51.5338,4.7717 43.8992,4.7717 Z " fill="none" stroke="none"/>
          <defs>
            <clipPath id="clip-269455306">
              <path d="M 43.8992,4.7717 C 39.1275,4.7717 33.4016,4.7717 29.5842,4.7717 C 26.7212,4.7717 20.9953,4.7717 16.2236,4.7717 C 8.5890,4.7717 8.5890,5.7260 8.5890,5.7260 L 8.5890,24.8126 C 8.5890,25.7669 8.5890,25.7669 16.2236,25.7669 C 20.9953,26.7212 26.7212,26.7212 29.5842,26.7212 C 33.4016,26.7212 39.1275,26.7212 43.8992,25.7669 C 51.5338,25.7669 51.5338,25.7669 51.5338,24.8126 L 51.5338,5.7260 C 51.5338,5.7260 51.5338,4.7717 43.8992,4.7717 Z"/>
            </clipPath>
          </defs>
          <path clip-path="url(#clip-269455306)" d="M 7.6346,3.8173 L 7.6346,4.7717 L 51.5338,4.7717 L 51.5338,3.8173 L 7.6346,3.8173 Z" stroke-width="1px" stroke="#828282" fill="#828282"/>
          <path clip-path="url(#clip-269455306)" d="M 7.6346,4.7717 L 7.6346,5.7260 L 51.5338,5.7260 L 51.5338,4.7717 L 7.6346,4.7717 Z" stroke-width="1px" stroke="#878787" fill="#878787"/>
          <path clip-path="url(#clip-269455306)" d="M 7.6346,5.7260 L 7.6346,6.6803 L 51.5338,6.6803 L 51.5338,5.7260 L 7.6346,5.7260 Z" stroke-width="1px" stroke="#909090" fill="#909090"/>
          <path clip-path="url(#clip-269455306)" d="M 7.6346,6.6803 L 7.6346,7.6346 L 51.5338,7.6346 L 51.5338,6.6803 L 7.6346,6.6803 Z" stroke-width="1px" stroke="#999999" fill="#999999"/>
          <path clip-path="url(#clip-269455306)" d="M 7.6346,7.6346 L 7.6346,8.5890 L 51.5338,8.5890 L 51.5338,7.6346 L 7.6346,7.6346 Z" stroke-width="1px" stroke="#A1A1A1" fill="#A1A1A1"/>
          <path clip-path="url(#clip-269455306)" d="M 7.6346,8.5890 L 7.6346,9.5433 L 51.5338,9.5433 L 51.5338,8.5890 L 7.6346,8.5890 Z" stroke-width="1px" stroke="#AAAAAA" fill="#AAAAAA"/>
          <path clip-path="url(#clip-269455306)" d="M 7.6346,9.5433 L 7.6346,10.4976 L 51.5338,10.4976 L 51.5338,9.5433 L 7.6346,9.5433 Z" stroke-width="1px" stroke="#B3B3B3" fill="#B3B3B3"/>
          <path clip-path="url(#clip-269455306)" d="M 7.6346,10.4976 L 7.6346,11.4520 L 51.5338,11.4520 L 51.5338,10.4976 L 7.6346,10.4976 Z" stroke-width="1px" stroke="#BCBCBC" fill="#BCBCBC"/>
          <path clip-path="url(#clip-269455306)" d="M 7.6346,11.4520 L 7.6346,12.4063 L 51.5338,12.4063 L 51.5338,11.4520 L 7.6346,11.4520 Z" stroke-width="1px" stroke="#C5C5C5" fill="#C5C5C5"/>
          <path clip-path="url(#clip-269455306)" d="M 7.6346,12.4063 L 7.6346,13.3606 L 51.5338,13.3606 L 51.5338,12.4063 L 7.6346,12.4063 Z" stroke-width="1px" stroke="#CECECE" fill="#CECECE"/>
          <path clip-path="url(#clip-269455306)" d="M 7.6346,13.3606 L 7.6346,14.3150 L 51.5338,14.3150 L 51.5338,13.3606 L 7.6346,13.3606 Z" stroke-width="1px" stroke="#D6D6D6" fill="#D6D6D6"/>
          <path clip-path="url(#clip-269455306)" d="M 7.6346,14.3150 L 7.6346,15.2693 L 51.5338,15.2693 L 51.5338,14.3150 L 7.6346,14.3150 Z" stroke-width="1px" stroke="#DFDFDF" fill="#DFDFDF"/>
          <path clip-path="url(#clip-269455306)" d="M 7.6346,15.2693 L 7.6346,16.2236 L 51.5338,16.2236 L 51.5338,15.2693 L 7.6346,15.2693 Z" stroke-width="1px" stroke="#E4E4E4" fill="#E4E4E4"/>
          <path clip-path="url(#clip-269455306)" d="M 7.6346,16.2236 L 7.6346,17.1779 L 51.5338,17.1779 L 51.5338,16.2236 L 7.6346,16.2236 Z" stroke-width="1px" stroke="#DBDBDB" fill="#DBDBDB"/>
          <path clip-path="url(#clip-269455306)" d="M 7.6346,17.1779 L 7.6346,18.1323 L 51.5338,18.1323 L 51.5338,17.1779 L 7.6346,17.1779 Z" stroke-width="1px" stroke="#D2D2D2" fill="#D2D2D2"/>
          <path clip-path="url(#clip-269455306)" d="M 7.6346,18.1323 L 7.6346,19.0866 L 51.5338,19.0866 L 51.5338,18.1323 L 7.6346,18.1323 Z" stroke-width="1px" stroke="#CACACA" fill="#CACACA"/>
          <path clip-path="url(#clip-269455306)" d="M 7.6346,19.0866 L 7.6346,20.0409 L 51.5338,20.0409 L 51.5338,19.0866 L 7.6346,19.0866 Z" stroke-width="1px" stroke="#C1C1C1" fill="#C1C1C1"/>
          <path clip-path="url(#clip-269455306)" d="M 7.6346,20.0409 L 7.6346,20.9953 L 51.5338,20.9953 L 51.5338,20.0409 L 7.6346,20.0409 Z" stroke-width="1px" stroke="#B8B8B8" fill="#B8B8B8"/>
          <path clip-path="url(#clip-269455306)" d="M 7.6346,20.9953 L 7.6346,21.9496 L 51.5338,21.9496 L 51.5338,20.9953 L 7.6346,20.9953 Z" stroke-width="1px" stroke="#AFAFAF" fill="#AFAFAF"/>
          <path clip-path="url(#clip-269455306)" d="M 7.6346,21.9496 L 7.6346,22.9039 L 51.5338,22.9039 L 51.5338,21.9496 L 7.6346,21.9496 Z" stroke-width="1px" stroke="#A6A6A6" fill="#A6A6A6"/>
          <path clip-path="url(#clip-269455306)" d="M 7.6346,22.9039 L 7.6346,23.8583 L 51.5338,23.8583 L 51.5338,22.9039 L 7.6346,22.9039 Z" stroke-width="1px" stroke="#9D9D9D" fill="#9D9D9D"/>
          <path clip-path="url(#clip-269455306)" d="M 7.6346,23.8583 L 7.6346,24.8126 L 51.5338,24.8126 L 51.5338,23.8583 L 7.6346,23.8583 Z" stroke-width="1px" stroke="#959595" fill="#959595"/>
          <path clip-path="url(#clip-269455306)" d="M 7.6346,24.8126 L 7.6346,25.7669 L 51.5338,25.7669 L 51.5338,24.8126 L 7.6346,24.8126 Z" stroke-width="1px" stroke="#8C8C8C" fill="#8C8C8C"/>
          <path clip-path="url(#clip-269455306)" d="M 7.6346,25.7669 L 7.6346,26.7212 L 51.5338,26.7212 L 51.5338,25.7669 L 7.6346,25.7669 Z" stroke-width="1px" stroke="#838383" fill="#838383"/>
        </g>
        <g transform="matrix(0.0625 0.0000 0.0000 0.0625 0.0000 0.0000)">
          <path d="M 691.8895,70.6204 C 615.5430,66.8031 532.5163,64.8945 474.3022,64.8945 C 416.0880,64.8945 333.0613,66.8031 256.7149,70.6204 C 126.9259,76.3464 126.9259,78.2551 126.9259,86.8441 L 126.9259,396.0471 C 126.9259,403.6817 126.9259,406.5447 256.7149,412.2707 C 333.0613,415.1337 416.0880,417.0423 474.3022,417.0423 C 532.5163,417.0423 615.5430,415.1337 691.8895,412.2707 C 821.6784,406.5447 821.6784,403.6817 821.6784,396.0471 L 821.6784,86.8441 C 821.6784,78.2551 821.6784,76.3464 691.8895,70.6204 " stroke="#0054A6" stroke-width="7.6346" stroke-linecap="round" stroke-linejoin="round" fill="none"/>
        </g>
        <g transform="matrix(1.0000 0.0000 0.0000 1.0000 0.0000 0.0000)">
</g>
        <g transform="matrix(0.0625 0.0000 0.0000 0.0625 0.0000 0.0000)">
          <path d="M 405.5904,112.6110 L 405.5904,140.2866 L 549.6943,140.2866 L 549.6943,112.6110 L 405.5904,112.6110 Z" stroke-width="1px" stroke="#8DC63F" fill="#8DC63F"/>
        </g>
        <g transform="matrix(1.0000 0.0000 0.0000 1.0000 0.0000 0.0000)">
</g>
        <g transform="matrix(0.0625 0.0000 0.0000 0.0625 0.0000 0.0000)">
          <path d="M 405.5904,140.2866 L 405.5904,176.5511 C 405.5904,184.1857 411.3164,189.9117 417.0423,189.9117 L 538.2423,189.9117 C 544.9226,189.9117 549.6943,184.1857 549.6943,176.5511 L 549.6943,140.2866 L 405.5904,140.2866 Z " fill="#0054A6" stroke="none"/>
        </g>
        <g transform="matrix(1.0000 0.0000 0.0000 1.0000 0.0000 0.0000)">
</g>
        <g transform="matrix(0.0625 0.0000 0.0000 0.0625 0.0000 0.0000)">
          <path d="M 241.4456,102.1133 L 230.9479,103.0677 C 222.3590,103.0677 215.6786,208.0440 215.6786,237.6282 C 215.6786,238.5826 215.6786,239.5369 215.6786,239.5369 C 215.6786,240.4912 215.6786,241.4456 215.6786,241.4456 C 215.6786,271.9841 222.3590,376.0061 230.9479,376.9605 L 241.4456,377.9148 C 245.2629,377.9148 248.1259,375.0518 248.1259,370.2802 L 248.1259,109.7480 C 248.1259,104.9763 245.2629,102.1133 241.4456,102.1133 Z M 300.6140,96.3874 L 290.1164,97.3417 C 281.5274,97.3417 275.8015,206.1353 275.8015,238.5826 C 275.8015,238.5826 275.8015,239.5369 275.8015,240.4912 C 275.8015,240.4912 275.8015,241.4456 275.8015,242.3999 C 275.8015,273.8928 281.5274,382.6865 290.1164,382.6865 L 300.6140,383.6408 C 305.3857,383.6408 308.2487,380.7778 308.2487,376.0061 L 308.2487,104.0220 C 308.2487,100.2047 305.3857,96.3874 300.6140,96.3874 Z M 181.3228,107.8393 L 170.8251,107.8393 C 162.2362,108.7937 156.5102,208.9983 156.5102,237.6282 C 156.5102,238.5826 156.5102,238.5826 156.5102,239.5369 C 156.5102,240.4912 156.5102,240.4912 156.5102,241.4456 C 156.5102,270.0755 162.2362,370.2802 170.8251,371.2345 L 181.3228,371.2345 C 185.1401,372.1888 188.0031,369.3258 188.0031,364.5542 L 188.0031,114.5196 C 188.0031,110.7023 185.1401,106.8850 181.3228,107.8393 Z M 360.7369,90.6614 L 350.2392,91.6157 C 341.6502,92.5700 334.9699,204.2267 334.9699,238.5826 C 334.9699,238.5826 334.9699,239.5369 334.9699,240.4912 C 334.9699,241.4456 334.9699,241.4456 334.9699,242.3999 C 334.9699,275.8015 341.6502,388.4124 350.2392,389.3668 L 360.7369,390.3211 C 365.5085,390.3211 368.3715,386.5038 368.3715,381.7321 L 368.3715,99.2504 C 368.3715,94.4787 365.5085,90.6614 360.7369,90.6614 Z M 761.5556,107.8393 L 771.0989,107.8393 C 779.6879,108.7937 786.3682,208.9983 786.3682,237.6282 C 786.3682,238.5826 786.3682,238.5826 786.3682,239.5369 C 786.3682,240.4912 786.3682,240.4912 786.3682,241.4456 C 786.3682,270.0755 779.6879,370.2802 771.0989,371.2345 L 761.5556,371.2345 C 757.7383,372.1888 753.9209,369.3258 753.9209,364.5542 L 753.9209,114.5196 C 753.9209,110.7023 757.7383,106.8850 761.5556,107.8393 Z M 641.3100,96.3874 L 651.8076,97.3417 C 660.3966,97.3417 667.0769,206.1353 667.0769,238.5826 C 667.0769,238.5826 667.0769,239.5369 667.0769,240.4912 C 667.0769,240.4912 667.0769,241.4456 667.0769,242.3999 C 667.0769,273.8928 660.3966,382.6865 651.8076,382.6865 L 641.3100,383.6408 C 637.4926,383.6408 633.6753,380.7778 633.6753,376.0061 L 633.6753,104.0220 C 633.6753,100.2047 637.4926,96.3874 641.3100,96.3874 Z M 701.4328,102.1133 L 711.9304,103.0677 C 720.5194,103.0677 726.2454,208.0440 726.2454,237.6282 C 726.2454,238.5826 726.2454,239.5369 726.2454,239.5369 C 726.2454,240.4912 726.2454,241.4456 726.2454,241.4456 C 726.2454,271.9841 720.5194,376.0061 711.9304,376.9605 L 701.4328,377.9148 C 697.6155,377.9148 693.7981,375.0518 693.7981,370.2802 L 693.7981,109.7480 C 693.7981,104.9763 697.6155,102.1133 701.4328,102.1133 Z M 581.1872,90.6614 L 591.6848,91.6157 C 601.2281,92.5700 606.9541,204.2267 606.9541,238.5826 C 606.9541,238.5826 606.9541,239.5369 606.9541,240.4912 C 606.9541,241.4456 606.9541,241.4456 606.9541,242.3999 C 606.9541,275.8015 601.2281,388.4124 591.6848,389.3668 L 581.1872,390.3211 C 577.3698,390.3211 573.5525,386.5038 573.5525,381.7321 L 573.5525,99.2504 C 573.5525,94.4787 577.3698,90.6614 581.1872,90.6614 Z " fill="#0054A6" stroke="none"/>
        </g>
        <g transform="matrix(1.0000 0.0000 0.0000 1.0000 0.0000 0.0000)">
          <path d="M 4.7717,1.9087 L 1.9087,2.8630 L 1.9087,27.6756 L 4.7717,29.5842 L 4.7717,1.9087 " fill="none" stroke="none"/>
          <defs>
            <clipPath id="clip-1703964683">
              <path d="M 4.7717,1.9087 L 1.9087,2.8630 L 1.9087,27.6756 L 4.7717,29.5842 L 4.7717,1.9087 Z"/>
            </clipPath>
          </defs>
          <path clip-path="url(#clip-1703964683)" d="M 0.9543,0.9543 L 0.9543,1.9087 L 3.8173,1.9087 L 3.8173,0.9543 L 0.9543,0.9543 Z" stroke-width="1px" stroke="#56BCEB" fill="#56BCEB"/>
          <path clip-path="url(#clip-1703964683)" d="M 0.9543,1.9087 L 0.9543,2.8630 L 3.8173,2.8630 L 3.8173,1.9087 L 0.9543,1.9087 Z" stroke-width="1px" stroke="#0279C1" fill="#0279C1"/>
          <path clip-path="url(#clip-1703964683)" d="M 0.9543,2.8630 L 0.9543,3.8173 L 3.8173,3.8173 L 3.8173,2.8630 L 0.9543,2.8630 Z" stroke-width="1px" stroke="#057BC3" fill="#057BC3"/>
          <path clip-path="url(#clip-1703964683)" d="M 0.9543,3.8173 L 0.9543,4.7717 L 3.8173,4.7717 L 3.8173,3.8173 L 0.9543,3.8173 Z" stroke-width="1px" stroke="#087EC4" fill="#087EC4"/>
          <path clip-path="url(#clip-1703964683)" d="M 0.9543,4.7717 L 0.9543,5.7260 L 3.8173,5.7260 L 3.8173,4.7717 L 0.9543,4.7717 Z" stroke-width="1px" stroke="#0C80C5" fill="#0C80C5"/>
          <path clip-path="url(#clip-1703964683)" d="M 0.9543,5.7260 L 0.9543,6.6803 L 3.8173,6.6803 L 3.8173,5.7260 L 0.9543,5.7260 Z" stroke-width="1px" stroke="#0E83C7" fill="#0E83C7"/>
          <path clip-path="url(#clip-1703964683)" d="M 0.9543,6.6803 L 0.9543,7.6346 L 3.8173,7.6346 L 3.8173,6.6803 L 0.9543,6.6803 Z" stroke-width="1px" stroke="#1185C9" fill="#1185C9"/>
          <path clip-path="url(#clip-1703964683)" d="M 0.9543,7.6346 L 0.9543,8.5890 L 3.8173,8.5890 L 3.8173,7.6346 L 0.9543,7.6346 Z" stroke-width="1px" stroke="#1587CA" fill="#1587CA"/>
          <path clip-path="url(#clip-1703964683)" d="M 0.9543,8.5890 L 0.9543,9.5433 L 3.8173,9.5433 L 3.8173,8.5890 L 0.9543,8.5890 Z" stroke-width="1px" stroke="#1789CC" fill="#1789CC"/>
          <path clip-path="url(#clip-1703964683)" d="M 0.9543,9.5433 L 0.9543,10.4976 L 3.8173,10.4976 L 3.8173,9.5433 L 0.9543,9.5433 Z" stroke-width="1px" stroke="#1A8CCD" fill="#1A8CCD"/>
          <path clip-path="url(#clip-1703964683)" d="M 0.9543,10.4976 L 0.9543,11.4520 L 3.8173,11.4520 L 3.8173,10.4976 L 0.9543,10.4976 Z" stroke-width="1px" stroke="#1D8FCE" fill="#1D8FCE"/>
          <path clip-path="url(#clip-1703964683)" d="M 0.9543,11.4520 L 0.9543,12.4063 L 3.8173,12.4063 L 3.8173,11.4520 L 0.9543,11.4520 Z" stroke-width="1px" stroke="#2091D0" fill="#2091D0"/>
          <path clip-path="url(#clip-1703964683)" d="M 0.9543,12.4063 L 0.9543,13.3606 L 3.8173,13.3606 L 3.8173,12.4063 L 0.9543,12.4063 Z" stroke-width="1px" stroke="#2393D1" fill="#2393D1"/>
          <path clip-path="url(#clip-1703964683)" d="M 0.9543,13.3606 L 0.9543,14.3150 L 3.8173,14.3150 L 3.8173,13.3606 L 0.9543,13.3606 Z" stroke-width="1px" stroke="#2695D3" fill="#2695D3"/>
          <path clip-path="url(#clip-1703964683)" d="M 0.9543,14.3150 L 0.9543,15.2693 L 3.8173,15.2693 L 3.8173,14.3150 L 0.9543,14.3150 Z" stroke-width="1px" stroke="#2998D5" fill="#2998D5"/>
          <path clip-path="url(#clip-1703964683)" d="M 0.9543,15.2693 L 0.9543,16.2236 L 3.8173,16.2236 L 3.8173,15.2693 L 0.9543,15.2693 Z" stroke-width="1px" stroke="#2C9BD6" fill="#2C9BD6"/>
          <path clip-path="url(#clip-1703964683)" d="M 0.9543,16.2236 L 0.9543,17.1779 L 3.8173,17.1779 L 3.8173,16.2236 L 0.9543,16.2236 Z" stroke-width="1px" stroke="#2E9DD7" fill="#2E9DD7"/>
          <path clip-path="url(#clip-1703964683)" d="M 0.9543,17.1779 L 0.9543,18.1323 L 3.8173,18.1323 L 3.8173,17.1779 L 0.9543,17.1779 Z" stroke-width="1px" stroke="#319FD9" fill="#319FD9"/>
          <path clip-path="url(#clip-1703964683)" d="M 0.9543,18.1323 L 0.9543,19.0866 L 3.8173,19.0866 L 3.8173,18.1323 L 0.9543,18.1323 Z" stroke-width="1px" stroke="#35A1DA" fill="#35A1DA"/>
          <path clip-path="url(#clip-1703964683)" d="M 0.9543,19.0866 L 0.9543,20.0409 L 3.8173,20.0409 L 3.8173,19.0866 L 0.9543,19.0866 Z" stroke-width="1px" stroke="#38A3DC" fill="#38A3DC"/>
          <path clip-path="url(#clip-1703964683)" d="M 0.9543,20.0409 L 0.9543,20.9953 L 3.8173,20.9953 L 3.8173,20.0409 L 0.9543,20.0409 Z" stroke-width="1px" stroke="#3AA5DE" fill="#3AA5DE"/>
          <path clip-path="url(#clip-1703964683)" d="M 0.9543,20.9953 L 0.9543,21.9496 L 3.8173,21.9496 L 3.8173,20.9953 L 0.9543,20.9953 Z" stroke-width="1px" stroke="#3DA8DF" fill="#3DA8DF"/>
          <path clip-path="url(#clip-1703964683)" d="M 0.9543,21.9496 L 0.9543,22.9039 L 3.8173,22.9039 L 3.8173,21.9496 L 0.9543,21.9496 Z" stroke-width="1px" stroke="#41ABE0" fill="#41ABE0"/>
          <path clip-path="url(#clip-1703964683)" d="M 0.9543,22.9039 L 0.9543,23.8583 L 3.8173,23.8583 L 3.8173,22.9039 L 0.9543,22.9039 Z" stroke-width="1px" stroke="#44ADE2" fill="#44ADE2"/>
          <path clip-path="url(#clip-1703964683)" d="M 0.9543,23.8583 L 0.9543,24.8126 L 3.8173,24.8126 L 3.8173,23.8583 L 0.9543,23.8583 Z" stroke-width="1px" stroke="#46AFE3" fill="#46AFE3"/>
          <path clip-path="url(#clip-1703964683)" d="M 0.9543,24.8126 L 0.9543,25.7669 L 3.8173,25.7669 L 3.8173,24.8126 L 0.9543,24.8126 Z" stroke-width="1px" stroke="#49B1E5" fill="#49B1E5"/>
          <path clip-path="url(#clip-1703964683)" d="M 0.9543,25.7669 L 0.9543,26.7212 L 3.8173,26.7212 L 3.8173,25.7669 L 0.9543,25.7669 Z" stroke-width="1px" stroke="#4CB4E6" fill="#4CB4E6"/>
          <path clip-path="url(#clip-1703964683)" d="M 0.9543,26.7212 L 0.9543,27.6756 L 3.8173,27.6756 L 3.8173,26.7212 L 0.9543,26.7212 Z" stroke-width="1px" stroke="#4FB6E7" fill="#4FB6E7"/>
          <path clip-path="url(#clip-1703964683)" d="M 0.9543,27.6756 L 0.9543,28.6299 L 3.8173,28.6299 L 3.8173,27.6756 L 0.9543,27.6756 Z" stroke-width="1px" stroke="#52B9E9" fill="#52B9E9"/>
          <path clip-path="url(#clip-1703964683)" d="M 0.9543,28.6299 L 0.9543,29.5842 L 3.8173,29.5842 L 3.8173,28.6299 L 0.9543,28.6299 Z" stroke-width="1px" stroke="#55BBEA" fill="#55BBEA"/>
        </g>
        <g transform="matrix(0.0625 0.0000 0.0000 0.0625 0.0000 0.0000)">
          <path d="M 62.9858,18.1323 L 18.1323,43.8992 L 18.1323,438.0376 L 62.9858,463.8045 L 62.9858,18.1323 " stroke="#0054A6" stroke-width="9.5433" stroke-linecap="round" stroke-linejoin="round" fill="none"/>
        </g>
        <g transform="matrix(1.0000 0.0000 0.0000 1.0000 0.0000 0.0000)">
</g>
      </g>
      <!--emf-blob end-->
    </g>
  </g>
</svg>
