<svg xmlns="http://www.w3.org/2000/svg" xmlns:xlink="http://www.w3.org/1999/xlink" version="1.1" width="4.8821000000" height="22.1284000000">
  <title><![CDATA[Drive Slot Cover]]></title>
  <g transform=" scale(1.000000) ">
    <!--converted by libvisio2svg-->
    <g transform=" translate(-2.565600,-0.124500) ">
      <!--emf-blob start-->
      <g transform="translate(-0.0000, -0.0000)">
        <g transform="matrix(0.0625 0.0000 0.0000 0.0625 0.0000 0.0000)">
          <path d="M 2.0275,2.0275 L 2.0275,356.5366 L 80.2733,356.5366 L 80.2733,2.0275 L 2.0275,2.0275 Z" stroke-width="1px" stroke="#595959" fill="#595959"/>
        </g>
        <g transform="matrix(1.0000 0.0000 0.0000 1.0000 0.0000 0.0000)">
</g>
        <g transform="matrix(0.0625 0.0000 0.0000 0.0625 0.0000 0.0000)">
          <path d="M 80.2733,356.5366 L 2.0275,356.5366 L 2.0275,2.0275 L 80.2733,2.0275 L 80.2733,356.5366 Z" stroke="#000000" stroke-width="0.3755" stroke-linecap="round" stroke-linejoin="round" fill="none"/>
        </g>
        <g transform="matrix(1.0000 0.0000 0.0000 1.0000 0.0000 0.0000)">
</g>
        <g transform="matrix(0.0625 0.0000 0.0000 0.0625 0.0000 0.0000)">
          <path d="M 8.1850,9.2363 L 8.1850,348.0512 L 75.3172,348.0512 L 75.3172,9.2363 L 8.1850,9.2363 Z" stroke-width="1px" stroke="#C1C5CB" fill="#C1C5CB"/>
        </g>
        <g transform="matrix(1.0000 0.0000 0.0000 1.0000 0.0000 0.0000)">
</g>
        <g transform="matrix(0.0625 0.0000 0.0000 0.0625 0.0000 0.0000)">
          <path d="M 8.1850,348.0512 L 8.1850,9.2363 L 75.3172,9.2363 L 75.3172,348.0512 L 8.1850,348.0512 Z" stroke="#A6A6A6" stroke-width="3.4542" stroke-linecap="round" stroke-linejoin="round" fill="none"/>
        </g>
        <g transform="matrix(1.0000 0.0000 0.0000 1.0000 0.0000 0.0000)">
</g>
      </g>
      <!--emf-blob end-->
    </g>
  </g>
</svg>
