<svg xmlns="http://www.w3.org/2000/svg" xmlns:xlink="http://www.w3.org/1999/xlink" version="1.1" width="27.3451000000" height="3.8250000000">
  <title><![CDATA[N2XX-AQPCI05]]></title>
  <g transform=" scale(1.000000) ">
    <!--converted by libvisio2svg-->
    <g transform=" translate(-0.150000,1.762500) ">
      <!--emf-blob start-->
      <g transform="translate(0.1422, 0.1422)">
        <g transform="matrix(0.0625 0.0000 0.0000 0.0625 0.0000 0.0000)">
          <path d="M 8.5345,59.7414 L 409.7974,59.7414 C 413.5668,59.7414 416.6250,56.6832 416.6250,52.9138 L 416.6250,8.5345 C 416.6250,4.7651 413.5668,1.7069 409.7974,1.7069 L 8.5345,1.7069 C 4.7651,1.7069 1.7069,4.7651 1.7069,8.5345 L 1.7069,52.9138 C 1.7069,56.6832 4.7651,59.7414 8.5345,59.7414 Z " fill="#D8D8D8" stroke="none"/>
        </g>
        <g transform="matrix(1.0000 0.0000 0.0000 1.0000 0.0000 0.0000)">
</g>
        <g transform="matrix(0.0625 0.0000 0.0000 0.0625 0.0000 0.0000)">
          <path d="M 8.5345,59.7414 L 409.7974,59.7414 C 413.5668,59.7414 416.6250,56.6832 416.6250,52.9138 L 416.6250,8.5345 C 416.6250,4.7651 413.5668,1.7069 409.7974,1.7069 L 8.5345,1.7069 C 4.7651,1.7069 1.7069,4.7651 1.7069,8.5345 L 1.7069,52.9138 C 1.7069,56.6832 4.7651,59.7414 8.5345,59.7414 Z " stroke="#A5A5A5" stroke-width="1.1379" stroke-linecap="butt" stroke-linejoin="miter" stroke-miterlimit="0.1422" fill="none"/>
        </g>
        <g transform="matrix(1.0000 0.0000 0.0000 1.0000 0.0000 0.0000)">
</g>
        <g transform="matrix(0.0625 0.0000 0.0000 0.0625 0.0000 0.0000)">
          <path d="M 187.7586,1.7069 L 187.7586,52.9138 L 249.2069,52.9138 L 249.2069,1.7069 L 187.7586,1.7069 Z" stroke-width="1px" stroke="#BFBFBF" fill="#BFBFBF"/>
        </g>
        <g transform="matrix(1.0000 0.0000 0.0000 1.0000 0.0000 0.0000)">
</g>
        <g transform="matrix(0.0625 0.0000 0.0000 0.0625 0.0000 0.0000)">
          <path d="M 187.7586,52.9138 L 249.2069,52.9138 L 249.2069,1.7069 L 187.7586,1.7069 L 187.7586,52.9138 Z" stroke="#000000" stroke-width="1.1379" stroke-linecap="round" stroke-linejoin="round" fill="none"/>
        </g>
        <g transform="matrix(1.0000 0.0000 0.0000 1.0000 0.0000 0.0000)">
</g>
        <g transform="matrix(0.0625 0.0000 0.0000 0.0625 0.0000 0.0000)">
          <path d="M 190.9591,6.1164 L 190.9591,47.0819 L 246.0776,47.0819 L 246.0776,6.1164 L 190.9591,6.1164 Z" stroke-width="1px" stroke="#D8D8D8" fill="#D8D8D8"/>
        </g>
        <g transform="matrix(1.0000 0.0000 0.0000 1.0000 0.0000 0.0000)">
</g>
        <g transform="matrix(0.0625 0.0000 0.0000 0.0625 0.0000 0.0000)">
          <path d="M 190.9591,47.0819 L 246.0776,47.0819 L 246.0776,6.1164 L 190.9591,6.1164 L 190.9591,47.0819 Z" stroke="#000000" stroke-width="1.1379" stroke-linecap="round" stroke-linejoin="round" fill="none"/>
        </g>
        <g transform="matrix(1.0000 0.0000 0.0000 1.0000 0.0000 0.0000)">
</g>
        <g transform="matrix(0.0625 0.0000 0.0000 0.0625 0.0000 0.0000)">
          <path d="M 216.2780,39.1875 L 216.2780,25.8879 L 214.1444,25.8879 L 214.1444,22.1897 L 216.4203,22.1897 L 216.4203,18.0647 L 212.7220,18.0647 L 212.7220,13.7974 L 202.9073,13.7974 L 202.9073,18.0647 L 198.9957,18.0647 L 198.9957,22.1897 L 201.7694,22.1897 L 201.7694,25.8879 L 199.1379,25.8879 L 199.1379,39.1875 L 197.3599,39.1875 L 197.3599,42.8858 L 218.4828,42.8858 L 218.4828,39.1875 L 216.2780,39.1875 Z" stroke-width="1px" stroke="#BFBFBF" fill="#BFBFBF"/>
        </g>
        <g transform="matrix(1.0000 0.0000 0.0000 1.0000 0.0000 0.0000)">
</g>
        <g transform="matrix(0.0625 0.0000 0.0000 0.0625 0.0000 0.0000)">
          <path d="M 239.2500,39.1875 L 239.2500,25.8879 L 237.1164,25.8879 L 237.1164,22.1897 L 239.3922,22.1897 L 239.3922,18.0647 L 235.6940,18.0647 L 235.6940,13.7974 L 225.8793,13.7974 L 225.8793,18.0647 L 221.9677,18.0647 L 221.9677,22.1897 L 224.7414,22.1897 L 224.7414,25.8879 L 222.1099,25.8879 L 222.1099,39.1875 L 220.3319,39.1875 L 220.3319,42.8858 L 241.4547,42.8858 L 241.4547,39.1875 L 239.2500,39.1875 Z" stroke-width="1px" stroke="#BFBFBF" fill="#BFBFBF"/>
        </g>
        <g transform="matrix(1.0000 0.0000 0.0000 1.0000 0.0000 0.0000)">
</g>
        <g transform="matrix(0.0625 0.0000 0.0000 0.0625 0.0000 0.0000)">
          <path d="M 213.2198,33.7112 C 213.2198,30.7241 210.8728,28.3772 207.8858,28.3772 C 204.9698,28.3772 202.6228,30.7241 202.6228,33.7112 C 202.6228,36.6272 204.9698,38.9741 207.8858,38.9741 C 210.8728,38.9741 213.2198,36.6272 213.2198,33.7112 Z M 211.0862,33.7112 C 211.0862,35.4181 209.6638,36.8405 207.8858,36.8405 C 206.1789,36.8405 204.7565,35.4181 204.7565,33.7112 C 204.7565,31.9332 206.1789,30.5108 207.8858,30.5108 C 209.6638,30.5108 211.0862,31.9332 211.0862,33.7112 Z " fill="#BFBFBF" stroke="none"/>
        </g>
        <g transform="matrix(1.0000 0.0000 0.0000 1.0000 0.0000 0.0000)">
</g>
        <g transform="matrix(0.0625 0.0000 0.0000 0.0625 0.0000 0.0000)">
          <path d="M 213.2198,33.7112 C 213.2198,30.7241 210.8728,28.3772 207.8858,28.3772 C 204.9698,28.3772 202.6228,30.7241 202.6228,33.7112 C 202.6228,36.6272 204.9698,38.9741 207.8858,38.9741 C 210.8728,38.9741 213.2198,36.6272 213.2198,33.7112 Z M 211.0862,33.7112 C 211.0862,35.4181 209.6638,36.8405 207.8858,36.8405 C 206.1789,36.8405 204.7565,35.4181 204.7565,33.7112 C 204.7565,31.9332 206.1789,30.5108 207.8858,30.5108 C 209.6638,30.5108 211.0862,31.9332 211.0862,33.7112 Z " stroke="#000000" stroke-width="1.1379" stroke-linecap="round" stroke-linejoin="round" fill="none"/>
        </g>
        <g transform="matrix(1.0000 0.0000 0.0000 1.0000 0.0000 0.0000)">
</g>
        <g transform="matrix(0.0625 0.0000 0.0000 0.0625 0.0000 0.0000)">
          <path d="M 211.0862,33.7112 C 211.0862,31.9332 209.6638,30.5108 207.8858,30.5108 C 206.1789,30.5108 204.7565,31.9332 204.7565,33.7112 C 204.7565,35.4181 206.1789,36.8405 207.8858,36.8405 C 209.6638,36.8405 211.0862,35.4181 211.0862,33.7112 " fill="#404040" stroke="none"/>
        </g>
        <g transform="matrix(1.0000 0.0000 0.0000 1.0000 0.0000 0.0000)">
</g>
        <g transform="matrix(0.0625 0.0000 0.0000 0.0625 0.0000 0.0000)">
          <path d="M 211.0862,33.7112 M 211.0862,33.7112 C 211.0862,31.9332 209.6638,30.5108 207.8858,30.5108 C 206.1789,30.5108 204.7565,31.9332 204.7565,33.7112 C 204.7565,35.4181 206.1789,36.8405 207.8858,36.8405 C 209.6638,36.8405 211.0862,35.4181 211.0862,33.7112 " stroke="#000000" stroke-width="1.1379" stroke-linecap="round" stroke-linejoin="round" fill="none"/>
        </g>
        <g transform="matrix(1.0000 0.0000 0.0000 1.0000 0.0000 0.0000)">
</g>
        <g transform="matrix(0.0625 0.0000 0.0000 0.0625 0.0000 0.0000)">
          <path d="M 236.1918,33.7112 C 236.1918,30.7241 233.8448,28.3772 230.8578,28.3772 C 227.9418,28.3772 225.5948,30.7241 225.5948,33.7112 C 225.5948,36.6272 227.9418,38.9741 230.8578,38.9741 C 233.8448,38.9741 236.1918,36.6272 236.1918,33.7112 Z M 234.0582,33.7112 C 234.0582,35.4181 232.6358,36.8405 230.8578,36.8405 C 229.1509,36.8405 227.7284,35.4181 227.7284,33.7112 C 227.7284,31.9332 229.1509,30.5108 230.8578,30.5108 C 232.6358,30.5108 234.0582,31.9332 234.0582,33.7112 Z " fill="#BFBFBF" stroke="none"/>
        </g>
        <g transform="matrix(1.0000 0.0000 0.0000 1.0000 0.0000 0.0000)">
</g>
        <g transform="matrix(0.0625 0.0000 0.0000 0.0625 0.0000 0.0000)">
          <path d="M 236.1918,33.7112 C 236.1918,30.7241 233.8448,28.3772 230.8578,28.3772 C 227.9418,28.3772 225.5948,30.7241 225.5948,33.7112 C 225.5948,36.6272 227.9418,38.9741 230.8578,38.9741 C 233.8448,38.9741 236.1918,36.6272 236.1918,33.7112 Z M 234.0582,33.7112 C 234.0582,35.4181 232.6358,36.8405 230.8578,36.8405 C 229.1509,36.8405 227.7284,35.4181 227.7284,33.7112 C 227.7284,31.9332 229.1509,30.5108 230.8578,30.5108 C 232.6358,30.5108 234.0582,31.9332 234.0582,33.7112 Z " stroke="#000000" stroke-width="1.1379" stroke-linecap="round" stroke-linejoin="round" fill="none"/>
        </g>
        <g transform="matrix(1.0000 0.0000 0.0000 1.0000 0.0000 0.0000)">
</g>
        <g transform="matrix(0.0625 0.0000 0.0000 0.0625 0.0000 0.0000)">
          <path d="M 234.0582,33.7112 C 234.0582,31.9332 232.6358,30.5108 230.8578,30.5108 C 229.1509,30.5108 227.7284,31.9332 227.7284,33.7112 C 227.7284,35.4181 229.1509,36.8405 230.8578,36.8405 C 232.6358,36.8405 234.0582,35.4181 234.0582,33.7112 " fill="#404040" stroke="none"/>
        </g>
        <g transform="matrix(1.0000 0.0000 0.0000 1.0000 0.0000 0.0000)">
</g>
        <g transform="matrix(0.0625 0.0000 0.0000 0.0625 0.0000 0.0000)">
          <path d="M 234.0582,33.7112 M 234.0582,33.7112 C 234.0582,31.9332 232.6358,30.5108 230.8578,30.5108 C 229.1509,30.5108 227.7284,31.9332 227.7284,33.7112 C 227.7284,35.4181 229.1509,36.8405 230.8578,36.8405 C 232.6358,36.8405 234.0582,35.4181 234.0582,33.7112 " stroke="#000000" stroke-width="1.1379" stroke-linecap="round" stroke-linejoin="round" fill="none"/>
        </g>
        <g transform="matrix(1.0000 0.0000 0.0000 1.0000 0.0000 0.0000)">
</g>
        <g transform="matrix(0.0000 -1.0000 1.0000 0.0000 23.5161 2.8766)">
          <text font-family="Arial" fill="#000000" style="white-space:pre;" font-weight="400" text-anchor="start" x="0.0000" y="0.0000" font-size="0.5690"><![CDATA[PORT ]]></text>
        </g>
        <g transform="matrix(0.0000 -1.0000 1.0000 0.0000 23.5161 1.1381)">
          <text font-family="Arial" fill="#000000" style="white-space:pre;" font-weight="400" text-anchor="start" x="0.0000" y="0.0000" font-size="0.5690"><![CDATA[2]]></text>
        </g>
        <g transform="matrix(0.0625 0.0000 0.0000 0.0625 0.0000 0.0000)">
          <path d="M 346.3578,4.8362 C 343.6552,4.8362 341.3793,7.0409 341.3793,9.7435 C 341.3793,12.5172 343.6552,14.7220 346.3578,14.7220 C 349.0603,14.7220 351.3362,12.5172 351.3362,9.7435 C 351.3362,7.0409 349.0603,4.8362 346.3578,4.8362 " fill="#262626" stroke="none"/>
        </g>
        <g transform="matrix(1.0000 0.0000 0.0000 1.0000 0.0000 0.0000)">
</g>
        <g transform="matrix(0.0625 0.0000 0.0000 0.0625 0.0000 0.0000)">
          <path d="M 346.3578,4.8362 M 346.3578,4.8362 C 343.6552,4.8362 341.3793,7.0409 341.3793,9.7435 C 341.3793,12.5172 343.6552,14.7220 346.3578,14.7220 C 349.0603,14.7220 351.3362,12.5172 351.3362,9.7435 C 351.3362,7.0409 349.0603,4.8362 346.3578,4.8362 " stroke="#BFBFBF" stroke-width="1.1379" stroke-linecap="round" stroke-linejoin="round" fill="none"/>
        </g>
        <g transform="matrix(1.0000 0.0000 0.0000 1.0000 0.0000 0.0000)">
</g>
        <g transform="matrix(0.0000 -1.0000 1.0000 0.0000 22.5529 0.8016)">
          <text font-family="Arial" fill="#000000" style="white-space:pre;" font-weight="400" text-anchor="start" x="0.0000" y="0.0000" font-size="0.5690"><![CDATA[2]]></text>
        </g>
        <g transform="matrix(0.0625 0.0000 0.0000 0.0625 0.0000 0.0000)">
          <path d="M 346.3578,17.2823 C 343.6552,17.2823 341.3793,19.4871 341.3793,22.1897 C 341.3793,24.9634 343.6552,27.1681 346.3578,27.1681 C 349.0603,27.1681 351.3362,24.9634 351.3362,22.1897 C 351.3362,19.4871 349.0603,17.2823 346.3578,17.2823 " fill="#262626" stroke="none"/>
        </g>
        <g transform="matrix(1.0000 0.0000 0.0000 1.0000 0.0000 0.0000)">
</g>
        <g transform="matrix(0.0625 0.0000 0.0000 0.0625 0.0000 0.0000)">
          <path d="M 346.3578,17.2823 M 346.3578,17.2823 C 343.6552,17.2823 341.3793,19.4871 341.3793,22.1897 C 341.3793,24.9634 343.6552,27.1681 346.3578,27.1681 C 349.0603,27.1681 351.3362,24.9634 351.3362,22.1897 C 351.3362,19.4871 349.0603,17.2823 346.3578,17.2823 " stroke="#BFBFBF" stroke-width="1.1379" stroke-linecap="round" stroke-linejoin="round" fill="none"/>
        </g>
        <g transform="matrix(1.0000 0.0000 0.0000 1.0000 0.0000 0.0000)">
</g>
        <g transform="matrix(0.0000 -1.0000 1.0000 0.0000 22.5529 1.5806)">
          <text font-family="Arial" fill="#000000" style="white-space:pre;" font-weight="400" text-anchor="start" x="0.0000" y="0.0000" font-size="0.5690"><![CDATA[4]]></text>
        </g>
        <g transform="matrix(0.0625 0.0000 0.0000 0.0625 0.0000 0.0000)">
          <path d="M 346.3578,29.7284 C 343.6552,29.7284 341.3793,31.9332 341.3793,34.7069 C 341.3793,37.4095 343.6552,39.6142 346.3578,39.6142 C 349.0603,39.6142 351.3362,37.4095 351.3362,34.7069 C 351.3362,31.9332 349.0603,29.7284 346.3578,29.7284 " fill="#262626" stroke="none"/>
        </g>
        <g transform="matrix(1.0000 0.0000 0.0000 1.0000 0.0000 0.0000)">
</g>
        <g transform="matrix(0.0625 0.0000 0.0000 0.0625 0.0000 0.0000)">
          <path d="M 346.3578,29.7284 M 346.3578,29.7284 C 343.6552,29.7284 341.3793,31.9332 341.3793,34.7069 C 341.3793,37.4095 343.6552,39.6142 346.3578,39.6142 C 349.0603,39.6142 351.3362,37.4095 351.3362,34.7069 C 351.3362,31.9332 349.0603,29.7284 346.3578,29.7284 " stroke="#BFBFBF" stroke-width="1.1379" stroke-linecap="round" stroke-linejoin="round" fill="none"/>
        </g>
        <g transform="matrix(1.0000 0.0000 0.0000 1.0000 0.0000 0.0000)">
</g>
        <g transform="matrix(0.0000 -1.0000 1.0000 0.0000 22.5529 2.3597)">
          <text font-family="Arial" fill="#000000" style="white-space:pre;" font-weight="400" text-anchor="start" x="0.0000" y="0.0000" font-size="0.5690"><![CDATA[8]]></text>
        </g>
        <g transform="matrix(1.0000 0.0000 0.0000 1.0000 1.7092 1.0064)">
          <text font-family="Arial" fill="#000000" style="white-space:pre;" font-weight="400" text-anchor="start" x="0.0000" y="0.0000" font-size="0.5690"><![CDATA[PCIe x]]></text>
        </g>
        <g transform="matrix(1.0000 0.0000 0.0000 1.0000 3.4166 1.0064)">
          <text font-family="Arial" fill="#000000" style="white-space:pre;" font-weight="400" text-anchor="start" x="0.0000" y="0.0000" font-size="0.5690"><![CDATA[8 8]]></text>
        </g>
        <g transform="matrix(1.0000 0.0000 0.0000 1.0000 4.2075 1.0064)">
          <text font-family="Arial" fill="#000000" style="white-space:pre;" font-weight="400" text-anchor="start" x="0.0000" y="0.0000" font-size="0.5690"><![CDATA[Gb FC]]></text>
        </g>
        <g transform="matrix(0.0625 0.0000 0.0000 0.0625 0.0000 0.0000)">
          <path d="M 264.5690,1.7069 L 264.5690,52.9138 L 326.0172,52.9138 L 326.0172,1.7069 L 264.5690,1.7069 Z" stroke-width="1px" stroke="#BFBFBF" fill="#BFBFBF"/>
        </g>
        <g transform="matrix(1.0000 0.0000 0.0000 1.0000 0.0000 0.0000)">
</g>
        <g transform="matrix(0.0625 0.0000 0.0000 0.0625 0.0000 0.0000)">
          <path d="M 264.5690,52.9138 L 326.0172,52.9138 L 326.0172,1.7069 L 264.5690,1.7069 L 264.5690,52.9138 Z" stroke="#000000" stroke-width="1.1379" stroke-linecap="round" stroke-linejoin="round" fill="none"/>
        </g>
        <g transform="matrix(1.0000 0.0000 0.0000 1.0000 0.0000 0.0000)">
</g>
        <g transform="matrix(0.0625 0.0000 0.0000 0.0625 0.0000 0.0000)">
          <path d="M 267.7694,6.1164 L 267.7694,47.0819 L 322.8879,47.0819 L 322.8879,6.1164 L 267.7694,6.1164 Z" stroke-width="1px" stroke="#D8D8D8" fill="#D8D8D8"/>
        </g>
        <g transform="matrix(1.0000 0.0000 0.0000 1.0000 0.0000 0.0000)">
</g>
        <g transform="matrix(0.0625 0.0000 0.0000 0.0625 0.0000 0.0000)">
          <path d="M 267.7694,47.0819 L 322.8879,47.0819 L 322.8879,6.1164 L 267.7694,6.1164 L 267.7694,47.0819 Z" stroke="#000000" stroke-width="1.1379" stroke-linecap="round" stroke-linejoin="round" fill="none"/>
        </g>
        <g transform="matrix(1.0000 0.0000 0.0000 1.0000 0.0000 0.0000)">
</g>
        <g transform="matrix(0.0625 0.0000 0.0000 0.0625 0.0000 0.0000)">
          <path d="M 293.0884,39.1875 L 293.0884,25.8879 L 290.9547,25.8879 L 290.9547,22.1897 L 293.2306,22.1897 L 293.2306,18.0647 L 289.5323,18.0647 L 289.5323,13.7974 L 279.7177,13.7974 L 279.7177,18.0647 L 275.8060,18.0647 L 275.8060,22.1897 L 278.5797,22.1897 L 278.5797,25.8879 L 275.9483,25.8879 L 275.9483,39.1875 L 274.1703,39.1875 L 274.1703,42.8858 L 295.2931,42.8858 L 295.2931,39.1875 L 293.0884,39.1875 Z" stroke-width="1px" stroke="#BFBFBF" fill="#BFBFBF"/>
        </g>
        <g transform="matrix(1.0000 0.0000 0.0000 1.0000 0.0000 0.0000)">
</g>
        <g transform="matrix(0.0625 0.0000 0.0000 0.0625 0.0000 0.0000)">
          <path d="M 316.0603,39.1875 L 316.0603,25.8879 L 313.9267,25.8879 L 313.9267,22.1897 L 316.2026,22.1897 L 316.2026,18.0647 L 312.5043,18.0647 L 312.5043,13.7974 L 302.6897,13.7974 L 302.6897,18.0647 L 298.7780,18.0647 L 298.7780,22.1897 L 301.5517,22.1897 L 301.5517,25.8879 L 298.9203,25.8879 L 298.9203,39.1875 L 297.1422,39.1875 L 297.1422,42.8858 L 318.2651,42.8858 L 318.2651,39.1875 L 316.0603,39.1875 Z" stroke-width="1px" stroke="#BFBFBF" fill="#BFBFBF"/>
        </g>
        <g transform="matrix(1.0000 0.0000 0.0000 1.0000 0.0000 0.0000)">
</g>
        <g transform="matrix(0.0625 0.0000 0.0000 0.0625 0.0000 0.0000)">
          <path d="M 290.0302,33.7112 C 290.0302,30.7241 287.6832,28.3772 284.6961,28.3772 C 281.7802,28.3772 279.4332,30.7241 279.4332,33.7112 C 279.4332,36.6272 281.7802,38.9741 284.6961,38.9741 C 287.6832,38.9741 290.0302,36.6272 290.0302,33.7112 Z M 287.8966,33.7112 C 287.8966,35.4181 286.4741,36.8405 284.6961,36.8405 C 282.9892,36.8405 281.5668,35.4181 281.5668,33.7112 C 281.5668,31.9332 282.9892,30.5108 284.6961,30.5108 C 286.4741,30.5108 287.8966,31.9332 287.8966,33.7112 Z " fill="#BFBFBF" stroke="none"/>
        </g>
        <g transform="matrix(1.0000 0.0000 0.0000 1.0000 0.0000 0.0000)">
</g>
        <g transform="matrix(0.0625 0.0000 0.0000 0.0625 0.0000 0.0000)">
          <path d="M 290.0302,33.7112 C 290.0302,30.7241 287.6832,28.3772 284.6961,28.3772 C 281.7802,28.3772 279.4332,30.7241 279.4332,33.7112 C 279.4332,36.6272 281.7802,38.9741 284.6961,38.9741 C 287.6832,38.9741 290.0302,36.6272 290.0302,33.7112 Z M 287.8966,33.7112 C 287.8966,35.4181 286.4741,36.8405 284.6961,36.8405 C 282.9892,36.8405 281.5668,35.4181 281.5668,33.7112 C 281.5668,31.9332 282.9892,30.5108 284.6961,30.5108 C 286.4741,30.5108 287.8966,31.9332 287.8966,33.7112 Z " stroke="#000000" stroke-width="1.1379" stroke-linecap="round" stroke-linejoin="round" fill="none"/>
        </g>
        <g transform="matrix(1.0000 0.0000 0.0000 1.0000 0.0000 0.0000)">
</g>
        <g transform="matrix(0.0625 0.0000 0.0000 0.0625 0.0000 0.0000)">
          <path d="M 287.8966,33.7112 C 287.8966,31.9332 286.4741,30.5108 284.6961,30.5108 C 282.9892,30.5108 281.5668,31.9332 281.5668,33.7112 C 281.5668,35.4181 282.9892,36.8405 284.6961,36.8405 C 286.4741,36.8405 287.8966,35.4181 287.8966,33.7112 " fill="#404040" stroke="none"/>
        </g>
        <g transform="matrix(1.0000 0.0000 0.0000 1.0000 0.0000 0.0000)">
</g>
        <g transform="matrix(0.0625 0.0000 0.0000 0.0625 0.0000 0.0000)">
          <path d="M 287.8966,33.7112 M 287.8966,33.7112 C 287.8966,31.9332 286.4741,30.5108 284.6961,30.5108 C 282.9892,30.5108 281.5668,31.9332 281.5668,33.7112 C 281.5668,35.4181 282.9892,36.8405 284.6961,36.8405 C 286.4741,36.8405 287.8966,35.4181 287.8966,33.7112 " stroke="#000000" stroke-width="1.1379" stroke-linecap="round" stroke-linejoin="round" fill="none"/>
        </g>
        <g transform="matrix(1.0000 0.0000 0.0000 1.0000 0.0000 0.0000)">
</g>
        <g transform="matrix(0.0625 0.0000 0.0000 0.0625 0.0000 0.0000)">
          <path d="M 313.0022,33.7112 C 313.0022,30.7241 310.6552,28.3772 307.6681,28.3772 C 304.7522,28.3772 302.4052,30.7241 302.4052,33.7112 C 302.4052,36.6272 304.7522,38.9741 307.6681,38.9741 C 310.6552,38.9741 313.0022,36.6272 313.0022,33.7112 Z M 310.8685,33.7112 C 310.8685,35.4181 309.4461,36.8405 307.6681,36.8405 C 305.9612,36.8405 304.5388,35.4181 304.5388,33.7112 C 304.5388,31.9332 305.9612,30.5108 307.6681,30.5108 C 309.4461,30.5108 310.8685,31.9332 310.8685,33.7112 Z " fill="#BFBFBF" stroke="none"/>
        </g>
        <g transform="matrix(1.0000 0.0000 0.0000 1.0000 0.0000 0.0000)">
</g>
        <g transform="matrix(0.0625 0.0000 0.0000 0.0625 0.0000 0.0000)">
          <path d="M 313.0022,33.7112 C 313.0022,30.7241 310.6552,28.3772 307.6681,28.3772 C 304.7522,28.3772 302.4052,30.7241 302.4052,33.7112 C 302.4052,36.6272 304.7522,38.9741 307.6681,38.9741 C 310.6552,38.9741 313.0022,36.6272 313.0022,33.7112 Z M 310.8685,33.7112 C 310.8685,35.4181 309.4461,36.8405 307.6681,36.8405 C 305.9612,36.8405 304.5388,35.4181 304.5388,33.7112 C 304.5388,31.9332 305.9612,30.5108 307.6681,30.5108 C 309.4461,30.5108 310.8685,31.9332 310.8685,33.7112 Z " stroke="#000000" stroke-width="1.1379" stroke-linecap="round" stroke-linejoin="round" fill="none"/>
        </g>
        <g transform="matrix(1.0000 0.0000 0.0000 1.0000 0.0000 0.0000)">
</g>
        <g transform="matrix(0.0625 0.0000 0.0000 0.0625 0.0000 0.0000)">
          <path d="M 310.8685,33.7112 C 310.8685,31.9332 309.4461,30.5108 307.6681,30.5108 C 305.9612,30.5108 304.5388,31.9332 304.5388,33.7112 C 304.5388,35.4181 305.9612,36.8405 307.6681,36.8405 C 309.4461,36.8405 310.8685,35.4181 310.8685,33.7112 " fill="#404040" stroke="none"/>
        </g>
        <g transform="matrix(1.0000 0.0000 0.0000 1.0000 0.0000 0.0000)">
</g>
        <g transform="matrix(0.0625 0.0000 0.0000 0.0625 0.0000 0.0000)">
          <path d="M 310.8685,33.7112 M 310.8685,33.7112 C 310.8685,31.9332 309.4461,30.5108 307.6681,30.5108 C 305.9612,30.5108 304.5388,31.9332 304.5388,33.7112 C 304.5388,35.4181 305.9612,36.8405 307.6681,36.8405 C 309.4461,36.8405 310.8685,35.4181 310.8685,33.7112 " stroke="#000000" stroke-width="1.1379" stroke-linecap="round" stroke-linejoin="round" fill="none"/>
        </g>
        <g transform="matrix(1.0000 0.0000 0.0000 1.0000 0.0000 0.0000)">
</g>
        <g transform="matrix(0.0625 0.0000 0.0000 0.0625 0.0000 0.0000)">
          <path d="M 168.8405,14.7220 C 171.5431,14.7220 173.8190,12.5172 173.8190,9.7435 C 173.8190,7.0409 171.5431,4.8362 168.8405,4.8362 C 166.1379,4.8362 163.8621,7.0409 163.8621,9.7435 C 163.8621,12.5172 166.1379,14.7220 168.8405,14.7220 " fill="#262626" stroke="none"/>
        </g>
        <g transform="matrix(1.0000 0.0000 0.0000 1.0000 0.0000 0.0000)">
</g>
        <g transform="matrix(0.0625 0.0000 0.0000 0.0625 0.0000 0.0000)">
          <path d="M 168.8405,14.7220 M 168.8405,14.7220 C 171.5431,14.7220 173.8190,12.5172 173.8190,9.7435 C 173.8190,7.0409 171.5431,4.8362 168.8405,4.8362 C 166.1379,4.8362 163.8621,7.0409 163.8621,9.7435 C 163.8621,12.5172 166.1379,14.7220 168.8405,14.7220 " stroke="#BFBFBF" stroke-width="1.1379" stroke-linecap="round" stroke-linejoin="round" fill="none"/>
        </g>
        <g transform="matrix(1.0000 0.0000 0.0000 1.0000 0.0000 0.0000)">
</g>
        <g transform="matrix(0.0000 -1.0000 1.0000 0.0000 10.0555 0.8016)">
          <text font-family="Arial" fill="#000000" style="white-space:pre;" font-weight="400" text-anchor="start" x="0.0000" y="0.0000" font-size="0.5690"><![CDATA[2]]></text>
        </g>
        <g transform="matrix(0.0625 0.0000 0.0000 0.0625 0.0000 0.0000)">
          <path d="M 168.8405,27.1681 C 171.5431,27.1681 173.8190,24.9634 173.8190,22.1897 C 173.8190,19.4871 171.5431,17.2823 168.8405,17.2823 C 166.1379,17.2823 163.8621,19.4871 163.8621,22.1897 C 163.8621,24.9634 166.1379,27.1681 168.8405,27.1681 " fill="#262626" stroke="none"/>
        </g>
        <g transform="matrix(1.0000 0.0000 0.0000 1.0000 0.0000 0.0000)">
</g>
        <g transform="matrix(0.0625 0.0000 0.0000 0.0625 0.0000 0.0000)">
          <path d="M 168.8405,27.1681 M 168.8405,27.1681 C 171.5431,27.1681 173.8190,24.9634 173.8190,22.1897 C 173.8190,19.4871 171.5431,17.2823 168.8405,17.2823 C 166.1379,17.2823 163.8621,19.4871 163.8621,22.1897 C 163.8621,24.9634 166.1379,27.1681 168.8405,27.1681 " stroke="#BFBFBF" stroke-width="1.1379" stroke-linecap="round" stroke-linejoin="round" fill="none"/>
        </g>
        <g transform="matrix(1.0000 0.0000 0.0000 1.0000 0.0000 0.0000)">
</g>
        <g transform="matrix(0.0000 -1.0000 1.0000 0.0000 10.0555 1.5806)">
          <text font-family="Arial" fill="#000000" style="white-space:pre;" font-weight="400" text-anchor="start" x="0.0000" y="0.0000" font-size="0.5690"><![CDATA[4]]></text>
        </g>
        <g transform="matrix(0.0625 0.0000 0.0000 0.0625 0.0000 0.0000)">
          <path d="M 168.8405,39.6142 C 171.5431,39.6142 173.8190,37.4095 173.8190,34.7069 C 173.8190,31.9332 171.5431,29.7284 168.8405,29.7284 C 166.1379,29.7284 163.8621,31.9332 163.8621,34.7069 C 163.8621,37.4095 166.1379,39.6142 168.8405,39.6142 " fill="#262626" stroke="none"/>
        </g>
        <g transform="matrix(1.0000 0.0000 0.0000 1.0000 0.0000 0.0000)">
</g>
        <g transform="matrix(0.0625 0.0000 0.0000 0.0625 0.0000 0.0000)">
          <path d="M 168.8405,39.6142 M 168.8405,39.6142 C 171.5431,39.6142 173.8190,37.4095 173.8190,34.7069 C 173.8190,31.9332 171.5431,29.7284 168.8405,29.7284 C 166.1379,29.7284 163.8621,31.9332 163.8621,34.7069 C 163.8621,37.4095 166.1379,39.6142 168.8405,39.6142 " stroke="#BFBFBF" stroke-width="1.1379" stroke-linecap="round" stroke-linejoin="round" fill="none"/>
        </g>
        <g transform="matrix(1.0000 0.0000 0.0000 1.0000 0.0000 0.0000)">
</g>
        <g transform="matrix(0.0000 -1.0000 1.0000 0.0000 10.0555 2.3597)">
          <text font-family="Arial" fill="#000000" style="white-space:pre;" font-weight="400" text-anchor="start" x="0.0000" y="0.0000" font-size="0.5690"><![CDATA[8]]></text>
        </g>
        <g transform="matrix(0.0000 -1.0000 1.0000 0.0000 9.2208 2.8766)">
          <text font-family="Arial" fill="#000000" style="white-space:pre;" font-weight="400" text-anchor="start" x="0.0000" y="0.0000" font-size="0.5690"><![CDATA[PORT ]]></text>
        </g>
        <g transform="matrix(0.0000 -1.0000 1.0000 0.0000 9.2208 1.1381)">
          <text font-family="Arial" fill="#000000" style="white-space:pre;" font-weight="400" text-anchor="start" x="0.0000" y="0.0000" font-size="0.5690"><![CDATA[1]]></text>
        </g>
      </g>
      <!--emf-blob end-->
    </g>
  </g>
</svg>
