<svg xmlns="http://www.w3.org/2000/svg" xmlns:xlink="http://www.w3.org/1999/xlink" version="1.1" width="30.2400000000" height="11.2500000000">
  <title><![CDATA[UCS M142]]></title>
  <g transform=" scale(1.000000) ">
    <!--converted by libvisio2svg-->
    <g transform=" translate(-0.124500,5.500500) ">
      <!--emf-blob start-->
      <g transform="translate(-0.0000, -0.0000)">
        <g transform="matrix(0.0625 0.0000 0.0000 0.0625 0.0000 0.0000)">
          <path d="M 472.8417,2.6968 L 455.7619,2.6968 L 455.7619,8.0904 L 472.3922,8.0904 C 473.6657,8.0904 474.6396,9.1392 474.6396,10.4127 L 474.6396,160.9100 L 480.0332,160.9100 L 480.0332,9.8883 C 480.0332,5.9180 476.8120,2.6968 472.8417,2.6968 Z " fill="#BFBFBF" stroke="none"/>
        </g>
        <g transform="matrix(1.0000 0.0000 0.0000 1.0000 0.0000 0.0000)">
</g>
        <g transform="matrix(0.0625 0.0000 0.0000 0.0625 0.0000 0.0000)">
          <path d="M 472.8417,2.6968 L 455.7619,2.6968 L 455.7619,8.0904 L 472.3922,8.0904 C 473.6657,8.0904 474.6396,9.1392 474.6396,10.4127 L 474.6396,160.9100 L 480.0332,160.9100 L 480.0332,9.8883 C 480.0332,5.9180 476.8120,2.6968 472.8417,2.6968 Z " stroke="#7F7F7F" stroke-width="1.1986" stroke-linecap="round" stroke-linejoin="round" fill="none"/>
        </g>
        <g transform="matrix(1.0000 0.0000 0.0000 1.0000 0.0000 0.0000)">
</g>
        <g transform="matrix(0.0625 0.0000 0.0000 0.0625 0.0000 0.0000)">
          <path d="M 477.9357,181.1361 L 460.8558,181.1361 L 460.8558,175.7425 L 477.4113,175.7425 C 478.6848,175.7425 479.7336,174.7686 479.7336,173.4951 L 479.7336,95.2875 L 485.1272,91.6917 L 485.1272,173.9446 C 485.1272,177.9149 481.9060,181.1361 477.9357,181.1361 Z " fill="#BFBFBF" stroke="none"/>
        </g>
        <g transform="matrix(1.0000 0.0000 0.0000 1.0000 0.0000 0.0000)">
</g>
        <g transform="matrix(0.0625 0.0000 0.0000 0.0625 0.0000 0.0000)">
          <path d="M 477.9357,181.1361 L 460.8558,181.1361 L 460.8558,175.7425 L 477.4113,175.7425 C 478.6848,175.7425 479.7336,174.7686 479.7336,173.4951 L 479.7336,95.2875 L 485.1272,91.6917 L 485.1272,173.9446 C 485.1272,177.9149 481.9060,181.1361 477.9357,181.1361 Z " stroke="#7F7F7F" stroke-width="1.1986" stroke-linecap="round" stroke-linejoin="round" fill="none"/>
        </g>
        <g transform="matrix(1.0000 0.0000 0.0000 1.0000 0.0000 0.0000)">
</g>
        <g transform="matrix(0.0625 0.0000 0.0000 0.0625 0.0000 0.0000)">
          <path d="M 8.9894,181.1361 L 26.0692,181.1361 L 26.0692,175.7425 L 9.5138,175.7425 C 8.2403,175.7425 7.1915,174.7686 7.1915,173.4951 L 7.1915,95.2875 L 1.7979,91.6917 L 1.7979,173.9446 C 1.7979,177.9149 5.0191,181.1361 8.9894,181.1361 Z " fill="#BFBFBF" stroke="none"/>
        </g>
        <g transform="matrix(1.0000 0.0000 0.0000 1.0000 0.0000 0.0000)">
</g>
        <g transform="matrix(0.0625 0.0000 0.0000 0.0625 0.0000 0.0000)">
          <path d="M 8.9894,181.1361 L 26.0692,181.1361 L 26.0692,175.7425 L 9.5138,175.7425 C 8.2403,175.7425 7.1915,174.7686 7.1915,173.4951 L 7.1915,95.2875 L 1.7979,91.6917 L 1.7979,173.9446 C 1.7979,177.9149 5.0191,181.1361 8.9894,181.1361 Z " stroke="#7F7F7F" stroke-width="1.1986" stroke-linecap="round" stroke-linejoin="round" fill="none"/>
        </g>
        <g transform="matrix(1.0000 0.0000 0.0000 1.0000 0.0000 0.0000)">
</g>
        <g transform="matrix(0.0625 0.0000 0.0000 0.0625 0.0000 0.0000)">
          <path d="M 472.8417,181.5856 L 12.2855,181.5856 C 8.9894,181.5856 6.2926,178.9637 6.2926,175.6676 L 6.2926,172.4464 C 6.2926,170.6485 5.4685,169.0005 4.0452,168.0266 C 2.6968,166.9778 1.7979,165.3298 1.7979,163.5319 L 1.7979,38.6544 C 1.7979,37.2310 3.0714,35.9575 4.4947,35.9575 C 5.9929,35.9575 7.1915,34.7590 7.1915,33.2607 C 7.1915,29.8148 10.0381,26.9682 13.4841,26.9682 L 165.4047,26.9682 C 169.3750,26.9682 172.5962,23.7470 172.5962,19.7766 L 172.5962,8.9894 C 172.5962,5.0191 175.8174,1.7979 179.7877,1.7979 L 465.6502,1.7979 C 469.6205,1.7979 472.8417,5.0191 472.8417,8.9894 L 472.8417,19.1774 C 472.8417,20.7505 473.3661,22.2487 474.3399,23.5222 L 483.6290,35.8826 C 484.6028,37.0812 485.1272,38.6544 485.1272,40.2275 L 485.1272,164.4308 C 485.1272,166.1538 484.1533,167.7270 482.5802,168.4761 C 481.0820,169.1503 480.0332,170.7234 480.0332,172.4464 L 480.0332,174.3941 C 480.0332,178.3644 476.8120,181.5856 472.8417,181.5856 Z " fill="#A5A5A5" stroke="none"/>
        </g>
        <g transform="matrix(1.0000 0.0000 0.0000 1.0000 0.0000 0.0000)">
          <path d="M 10.7873,0.0749 L 10.7873,0.1498 L 29.5901,0.1498 L 29.5901,0.0749 L 10.7873,0.0749 Z" stroke-width="1px" stroke="#D8D8D8" fill="#D8D8D8"/>
          <path d="M 10.7873,0.1498 L 10.7873,0.2247 L 29.5901,0.2247 L 29.5901,0.1498 L 10.7873,0.1498 Z" stroke-width="1px" stroke="#D7D7D7" fill="#D7D7D7"/>
          <path d="M 10.7873,0.2247 L 10.7873,0.2996 L 29.5901,0.2996 L 29.5901,0.2247 L 10.7873,0.2247 Z" stroke-width="1px" stroke="#D4D4D4" fill="#D4D4D4"/>
          <path d="M 10.7873,0.2996 L 10.7873,0.3746 L 29.5901,0.3746 L 29.5901,0.2996 L 10.7873,0.2996 Z" stroke-width="1px" stroke="#CFCFCF" fill="#CFCFCF"/>
          <path d="M 10.7873,0.3746 L 10.7873,0.4495 L 29.5901,0.4495 L 29.5901,0.3746 L 10.7873,0.3746 Z" stroke-width="1px" stroke="#C9C9C9" fill="#C9C9C9"/>
          <path d="M 10.7873,0.4495 L 10.7873,0.5244 L 29.5901,0.5244 L 29.5901,0.4495 L 10.7873,0.4495 Z" stroke-width="1px" stroke="#C1C1C1" fill="#C1C1C1"/>
          <path d="M 10.7873,0.5244 L 10.7873,0.5993 L 29.5901,0.5993 L 29.5901,0.5244 L 10.7873,0.5244 Z" stroke-width="1px" stroke="#B9B9B9" fill="#B9B9B9"/>
          <path d="M 10.7873,0.5993 L 10.7873,0.6742 L 29.5901,0.6742 L 29.5901,0.5993 L 10.7873,0.5993 Z" stroke-width="1px" stroke="#B1B1B1" fill="#B1B1B1"/>
          <path d="M 10.7873,0.6742 L 10.7873,0.7491 L 29.5901,0.7491 L 29.5901,0.6742 L 10.7873,0.6742 Z" stroke-width="1px" stroke="#ABABAB" fill="#ABABAB"/>
          <path d="M 10.7873,0.7491 L 10.7873,0.8240 L 29.5901,0.8240 L 29.5901,0.7491 L 10.7873,0.7491 Z" stroke-width="1px" stroke="#A7A7A7" fill="#A7A7A7"/>
          <path d="M 10.7873,0.8240 L 10.7873,0.8989 L 29.5901,0.8989 L 29.5901,0.8240 L 10.7873,0.8240 Z" stroke-width="1px" stroke="#A5A5A5" fill="#A5A5A5"/>
          <path d="M 0.3746,10.5625 L 0.3746,10.6374 L 30.0395,10.6374 L 30.0395,10.5625 L 0.3746,10.5625 Z" stroke-width="1px" stroke="#A5A5A5" fill="#A5A5A5"/>
          <path d="M 0.3746,10.6374 L 0.3746,10.7124 L 30.0395,10.7124 L 30.0395,10.6374 L 0.3746,10.6374 Z" stroke-width="1px" stroke="#A3A3A3" fill="#A3A3A3"/>
          <path d="M 0.3746,10.7124 L 0.3746,10.7873 L 30.0395,10.7873 L 30.0395,10.7124 L 0.3746,10.7124 Z" stroke-width="1px" stroke="#9E9E9E" fill="#9E9E9E"/>
          <path d="M 0.3746,10.7873 L 0.3746,10.8622 L 30.0395,10.8622 L 30.0395,10.7873 L 0.3746,10.7873 Z" stroke-width="1px" stroke="#979797" fill="#979797"/>
          <path d="M 0.3746,10.8622 L 0.3746,10.9371 L 30.0395,10.9371 L 30.0395,10.8622 L 0.3746,10.8622 Z" stroke-width="1px" stroke="#8D8D8D" fill="#8D8D8D"/>
          <path d="M 0.3746,10.9371 L 0.3746,11.0120 L 30.0395,11.0120 L 30.0395,10.9371 L 0.3746,10.9371 Z" stroke-width="1px" stroke="#7F7F7F" fill="#7F7F7F"/>
          <path d="M 0.3746,11.0120 L 0.3746,11.0869 L 30.0395,11.0869 L 30.0395,11.0120 L 0.3746,11.0120 Z" stroke-width="1px" stroke="#6F6F6F" fill="#6F6F6F"/>
          <path d="M 0.3746,11.0869 L 0.3746,11.1618 L 30.0395,11.1618 L 30.0395,11.0869 L 0.3746,11.0869 Z" stroke-width="1px" stroke="#5F5F5F" fill="#5F5F5F"/>
          <path d="M 0.3746,11.1618 L 0.3746,11.2367 L 30.0395,11.2367 L 30.0395,11.1618 L 0.3746,11.1618 Z" stroke-width="1px" stroke="#505050" fill="#505050"/>
          <path d="M 0.3746,11.2367 L 0.3746,11.3116 L 30.0395,11.3116 L 30.0395,11.2367 L 0.3746,11.2367 Z" stroke-width="1px" stroke="#464646" fill="#464646"/>
        </g>
        <g transform="matrix(0.0625 0.0000 0.0000 0.0625 0.0000 0.0000)">
          <path d="M 14.3830,9.8883 L 14.3830,26.9682 L 19.7766,26.9682 L 19.7766,10.4127 C 19.7766,9.1392 20.8254,8.0904 22.0989,8.0904 L 172.5962,8.0904 L 172.5962,2.6968 L 21.5745,2.6968 C 17.6042,2.6968 14.3830,5.9180 14.3830,9.8883 Z " fill="#BFBFBF" stroke="none"/>
        </g>
        <g transform="matrix(1.0000 0.0000 0.0000 1.0000 0.0000 0.0000)">
</g>
        <g transform="matrix(0.0625 0.0000 0.0000 0.0625 0.0000 0.0000)">
          <path d="M 14.3830,9.8883 L 14.3830,26.9682 L 19.7766,26.9682 L 19.7766,10.4127 C 19.7766,9.1392 20.8254,8.0904 22.0989,8.0904 L 172.5962,8.0904 L 172.5962,2.6968 L 21.5745,2.6968 C 17.6042,2.6968 14.3830,5.9180 14.3830,9.8883 Z " stroke="#7F7F7F" stroke-width="1.1986" stroke-linecap="round" stroke-linejoin="round" fill="none"/>
        </g>
        <g transform="matrix(1.0000 0.0000 0.0000 1.0000 0.0000 0.0000)">
</g>
        <g transform="matrix(0.0625 0.0000 0.0000 0.0625 0.0000 0.0000)">
          <path d="M 182.7093,8.9894 L 182.7093,16.1809 L 1.7979,16.1809 L 1.7979,8.9894 L 182.7093,8.9894 Z" stroke-width="1px" stroke="#BFBFBF" fill="#BFBFBF"/>
        </g>
        <g transform="matrix(1.0000 0.0000 0.0000 1.0000 0.0000 0.0000)">
</g>
        <g transform="matrix(0.0625 0.0000 0.0000 0.0625 0.0000 0.0000)">
          <path d="M 182.7093,8.9894 L 182.7093,16.1809 L 1.7979,16.1809 L 1.7979,8.9894 L 182.7093,8.9894 Z" stroke="#7F7F7F" stroke-width="1.1986" stroke-linecap="round" stroke-linejoin="round" fill="none"/>
        </g>
        <g transform="matrix(1.0000 0.0000 0.0000 1.0000 0.0000 0.0000)">
</g>
        <g transform="matrix(0.0625 0.0000 0.0000 0.0625 0.0000 0.0000)">
          <path d="M 246.5339,23.3724 L 189.9008,23.3724 C 185.9305,23.3724 182.7093,20.1512 182.7093,16.1809 L 182.7093,8.9894 C 182.7093,5.0191 185.9305,1.7979 189.9008,1.7979 L 246.5339,1.7979 C 250.5042,1.7979 253.7254,5.0191 253.7254,8.9894 L 253.7254,16.1809 C 253.7254,20.1512 250.5042,23.3724 246.5339,23.3724 Z " fill="#262626" stroke="none"/>
        </g>
        <g transform="matrix(1.0000 0.0000 0.0000 1.0000 0.0000 0.0000)">
</g>
        <g transform="matrix(0.0625 0.0000 0.0000 0.0625 0.0000 0.0000)">
          <path d="M 246.5339,23.3724 L 189.9008,23.3724 C 185.9305,23.3724 182.7093,20.1512 182.7093,16.1809 L 182.7093,8.9894 C 182.7093,5.0191 185.9305,1.7979 189.9008,1.7979 L 246.5339,1.7979 C 250.5042,1.7979 253.7254,5.0191 253.7254,8.9894 L 253.7254,16.1809 C 253.7254,20.1512 250.5042,23.3724 246.5339,23.3724 Z " stroke="#000000" stroke-width="1.1986" stroke-linecap="round" stroke-linejoin="round" fill="none"/>
        </g>
        <g transform="matrix(1.0000 0.0000 0.0000 1.0000 0.0000 0.0000)">
</g>
        <g transform="matrix(0.0625 0.0000 0.0000 0.0625 0.0000 0.0000)">
          <path d="M 161.3595,23.3724 L 83.4515,23.3724 C 79.4812,23.3724 76.2600,20.1512 76.2600,16.1809 L 76.2600,8.9894 C 76.2600,5.0191 79.4812,1.7979 83.4515,1.7979 L 161.3595,1.7979 C 165.3298,1.7979 168.5510,5.0191 168.5510,8.9894 L 168.5510,16.1809 C 168.5510,20.1512 165.3298,23.3724 161.3595,23.3724 Z " fill="#262626" stroke="none"/>
        </g>
        <g transform="matrix(1.0000 0.0000 0.0000 1.0000 0.0000 0.0000)">
</g>
        <g transform="matrix(0.0625 0.0000 0.0000 0.0625 0.0000 0.0000)">
          <path d="M 161.3595,23.3724 L 83.4515,23.3724 C 79.4812,23.3724 76.2600,20.1512 76.2600,16.1809 L 76.2600,8.9894 C 76.2600,5.0191 79.4812,1.7979 83.4515,1.7979 L 161.3595,1.7979 C 165.3298,1.7979 168.5510,5.0191 168.5510,8.9894 L 168.5510,16.1809 C 168.5510,20.1512 165.3298,23.3724 161.3595,23.3724 Z " stroke="#000000" stroke-width="1.1986" stroke-linecap="round" stroke-linejoin="round" fill="none"/>
        </g>
        <g transform="matrix(1.0000 0.0000 0.0000 1.0000 0.0000 0.0000)">
</g>
        <g transform="matrix(0.0625 0.0000 0.0000 0.0625 0.0000 0.0000)">
          <path d="M 111.4684,142.0323 L 125.8514,142.0323 L 118.6599,129.4472 L 111.4684,142.0323 Z" stroke-width="1px" stroke="#262626" fill="#262626"/>
        </g>
        <g transform="matrix(1.0000 0.0000 0.0000 1.0000 0.0000 0.0000)">
</g>
        <g transform="matrix(1.0000 0.0000 0.0000 1.0000 7.3565 8.8181)">
          <text font-family="Arial" fill="#BFBFBF" style="white-space:pre;" font-weight="700" text-anchor="start" x="0.0000" y="0.0000" font-size="0.5993"><![CDATA[!]]></text>
        </g>
        <g transform="matrix(0.0625 0.0000 0.0000 0.0625 0.0000 0.0000)">
          <path d="M 42.5498,158.2132 L 53.2621,158.2132 C 53.9363,158.2132 54.3858,157.7637 54.3858,157.0895 L 54.3858,150.4224 C 54.3858,149.7482 53.9363,149.2238 53.2621,149.2238 L 42.5498,149.2238 C 41.8756,149.2238 41.3512,149.7482 41.3512,150.4224 L 41.3512,157.0895 C 41.3512,157.7637 41.8756,158.2132 42.5498,158.2132 Z " fill="#595959" stroke="none"/>
        </g>
        <g transform="matrix(1.0000 0.0000 0.0000 1.0000 0.0000 0.0000)">
</g>
        <g transform="matrix(0.0625 0.0000 0.0000 0.0625 0.0000 0.0000)">
          <path d="M 42.5498,158.2132 L 53.2621,158.2132 C 53.9363,158.2132 54.3858,157.7637 54.3858,157.0895 L 54.3858,150.4224 C 54.3858,149.7482 53.9363,149.2238 53.2621,149.2238 L 42.5498,149.2238 C 41.8756,149.2238 41.3512,149.7482 41.3512,150.4224 L 41.3512,157.0895 C 41.3512,157.7637 41.8756,158.2132 42.5498,158.2132 Z " stroke="#262626" stroke-width="1.1986" stroke-linecap="round" stroke-linejoin="round" fill="none"/>
        </g>
        <g transform="matrix(1.0000 0.0000 0.0000 1.0000 0.0000 0.0000)">
</g>
        <g transform="matrix(0.0625 0.0000 0.0000 0.0625 0.0000 0.0000)">
          <path d="M 42.5498,158.2132 M 53.0374,137.3129 C 53.0374,134.0168 50.3406,131.2450 46.9695,131.2450 C 43.6734,131.2450 40.9017,134.0168 40.9017,137.3129 C 40.9017,140.6839 43.6734,143.3807 46.9695,143.3807 C 50.3406,143.3807 53.0374,140.6839 53.0374,137.3129 " stroke="#262626" stroke-width="1.1986" stroke-linecap="round" stroke-linejoin="round" fill="none"/>
        </g>
        <g transform="matrix(1.0000 0.0000 0.0000 1.0000 0.0000 0.0000)">
</g>
        <g transform="matrix(0.0625 0.0000 0.0000 0.0625 0.0000 0.0000)">
          <path d="M 53.0374,137.3129 M 51.3893,137.3129 C 51.3893,134.9157 49.4416,132.9680 46.9695,132.9680 C 44.5724,132.9680 42.6247,134.9157 42.6247,137.3129 C 42.6247,139.7849 44.5724,141.7326 46.9695,141.7326 C 49.4416,141.7326 51.3893,139.7849 51.3893,137.3129 " stroke="#262626" stroke-width="1.1986" stroke-linecap="round" stroke-linejoin="round" fill="none"/>
        </g>
        <g transform="matrix(1.0000 0.0000 0.0000 1.0000 0.0000 0.0000)">
</g>
        <g transform="matrix(0.0625 0.0000 0.0000 0.0625 0.0000 0.0000)">
          <path d="M 48.7674,137.3129 C 48.7674,136.4139 47.9434,135.5899 46.9695,135.5899 C 46.0706,135.5899 45.2466,136.4139 45.2466,137.3129 C 45.2466,138.2867 46.0706,139.1107 46.9695,139.1107 C 47.9434,139.1107 48.7674,138.2867 48.7674,137.3129 " fill="#262626" stroke="none"/>
        </g>
        <g transform="matrix(1.0000 0.0000 0.0000 1.0000 0.0000 0.0000)">
</g>
        <g transform="matrix(0.0625 0.0000 0.0000 0.0625 0.0000 0.0000)">
          <path d="M 48.7674,137.3129 M 48.7674,137.3129 C 48.7674,136.4139 47.9434,135.5899 46.9695,135.5899 C 46.0706,135.5899 45.2466,136.4139 45.2466,137.3129 C 45.2466,138.2867 46.0706,139.1107 46.9695,139.1107 C 47.9434,139.1107 48.7674,138.2867 48.7674,137.3129 " stroke="#262626" stroke-width="1.1986" stroke-linecap="round" stroke-linejoin="round" fill="none"/>
        </g>
        <g transform="matrix(1.0000 0.0000 0.0000 1.0000 0.0000 0.0000)">
</g>
        <g transform="matrix(0.0625 0.0000 0.0000 0.0625 0.0000 0.0000)">
          <path d="M 43.7483,128.6231 L 50.2656,128.6231 L 46.9695,134.3164 L 43.7483,128.6231 Z" stroke-width="1px" stroke="#262626" fill="#262626"/>
        </g>
        <g transform="matrix(1.0000 0.0000 0.0000 1.0000 0.0000 0.0000)">
</g>
        <g transform="matrix(0.0625 0.0000 0.0000 0.0625 0.0000 0.0000)">
          <path d="M 43.7483,128.6231 L 50.2656,128.6231 L 46.9695,134.3164 L 43.7483,128.6231 Z" stroke="#A5A5A5" stroke-width="1.1986" stroke-linecap="round" stroke-linejoin="round" fill="none"/>
        </g>
        <g transform="matrix(1.0000 0.0000 0.0000 1.0000 0.0000 0.0000)">
</g>
        <g transform="matrix(0.0625 0.0000 0.0000 0.0625 0.0000 0.0000)">
          <path d="M 38.8791,161.8089 L 54.6854,161.8089 C 56.2586,161.8089 57.5321,160.5354 57.5321,158.9623 L 57.5321,148.5496 C 57.5321,146.9765 56.2586,145.6280 54.6854,145.6280 L 38.8791,145.6280 C 37.3060,145.6280 35.9575,146.9765 35.9575,148.5496 L 35.9575,158.9623 C 35.9575,160.5354 37.3060,161.8089 38.8791,161.8089 Z " stroke="#3F3F3F" stroke-width="1.1986" stroke-linecap="round" stroke-linejoin="round" fill="none"/>
        </g>
        <g transform="matrix(1.0000 0.0000 0.0000 1.0000 0.0000 0.0000)">
</g>
        <g transform="matrix(0.0625 0.0000 0.0000 0.0625 0.0000 0.0000)">
          <path d="M 83.9009,158.2132 L 94.6133,158.2132 C 95.2875,158.2132 95.7370,157.7637 95.7370,157.0895 L 95.7370,150.4224 C 95.7370,149.7482 95.2875,149.2238 94.6133,149.2238 L 83.9009,149.2238 C 83.2267,149.2238 82.7023,149.7482 82.7023,150.4224 L 82.7023,157.0895 C 82.7023,157.7637 83.2267,158.2132 83.9009,158.2132 Z " fill="#595959" stroke="none"/>
        </g>
        <g transform="matrix(1.0000 0.0000 0.0000 1.0000 0.0000 0.0000)">
</g>
        <g transform="matrix(0.0625 0.0000 0.0000 0.0625 0.0000 0.0000)">
          <path d="M 83.9009,158.2132 L 94.6133,158.2132 C 95.2875,158.2132 95.7370,157.7637 95.7370,157.0895 L 95.7370,150.4224 C 95.7370,149.7482 95.2875,149.2238 94.6133,149.2238 L 83.9009,149.2238 C 83.2267,149.2238 82.7023,149.7482 82.7023,150.4224 L 82.7023,157.0895 C 82.7023,157.7637 83.2267,158.2132 83.9009,158.2132 Z " stroke="#262626" stroke-width="1.1986" stroke-linecap="round" stroke-linejoin="round" fill="none"/>
        </g>
        <g transform="matrix(1.0000 0.0000 0.0000 1.0000 0.0000 0.0000)">
</g>
        <g transform="matrix(0.0625 0.0000 0.0000 0.0625 0.0000 0.0000)">
          <path d="M 80.2303,161.8089 L 126.1510,161.8089 C 127.7242,161.8089 128.9977,160.5354 128.9977,158.9623 L 128.9977,148.5496 C 128.9977,146.9765 127.7242,145.6280 126.1510,145.6280 L 80.2303,145.6280 C 78.6571,145.6280 77.3087,146.9765 77.3087,148.5496 L 77.3087,158.9623 C 77.3087,160.5354 78.6571,161.8089 80.2303,161.8089 Z " stroke="#3F3F3F" stroke-width="1.1986" stroke-linecap="round" stroke-linejoin="round" fill="none"/>
        </g>
        <g transform="matrix(1.0000 0.0000 0.0000 1.0000 0.0000 0.0000)">
</g>
        <g transform="matrix(1.0000 0.0000 0.0000 1.0000 4.3661 9.8846)">
          <text font-family="Arial" fill="#3F3F3F" style="white-space:pre;" font-weight="700" text-anchor="start" x="0.0000" y="0.0000" font-size="0.8240"><![CDATA[1]]></text>
        </g>
        <g transform="matrix(0.0625 0.0000 0.0000 0.0625 0.0000 0.0000)">
          <path d="M 114.0154,158.2132 L 124.7277,158.2132 C 125.4019,158.2132 125.8514,157.7637 125.8514,157.0895 L 125.8514,150.4224 C 125.8514,149.7482 125.4019,149.2238 124.7277,149.2238 L 114.0154,149.2238 C 113.3412,149.2238 112.8168,149.7482 112.8168,150.4224 L 112.8168,157.0895 C 112.8168,157.7637 113.3412,158.2132 114.0154,158.2132 Z " fill="#595959" stroke="none"/>
        </g>
        <g transform="matrix(1.0000 0.0000 0.0000 1.0000 0.0000 0.0000)">
</g>
        <g transform="matrix(0.0625 0.0000 0.0000 0.0625 0.0000 0.0000)">
          <path d="M 114.0154,158.2132 L 124.7277,158.2132 C 125.4019,158.2132 125.8514,157.7637 125.8514,157.0895 L 125.8514,150.4224 C 125.8514,149.7482 125.4019,149.2238 124.7277,149.2238 L 114.0154,149.2238 C 113.3412,149.2238 112.8168,149.7482 112.8168,150.4224 L 112.8168,157.0895 C 112.8168,157.7637 113.3412,158.2132 114.0154,158.2132 Z " stroke="#262626" stroke-width="1.1986" stroke-linecap="round" stroke-linejoin="round" fill="none"/>
        </g>
        <g transform="matrix(1.0000 0.0000 0.0000 1.0000 0.0000 0.0000)">
</g>
        <g transform="matrix(0.0625 0.0000 0.0000 0.0625 0.0000 0.0000)">
          <path d="M 33.4106,165.4047 L 202.1863,165.4047 C 204.7333,165.4047 206.7559,163.3821 206.7559,160.8351 L 206.7559,132.2938 C 206.7559,129.7468 204.7333,127.6493 202.1863,127.6493 L 33.4106,127.6493 C 30.8636,127.6493 28.7660,129.7468 28.7660,132.2938 L 28.7660,160.8351 C 28.7660,163.3821 30.8636,165.4047 33.4106,165.4047 Z " stroke="#3F3F3F" stroke-width="1.1986" stroke-linecap="round" stroke-linejoin="round" fill="none"/>
        </g>
        <g transform="matrix(1.0000 0.0000 0.0000 1.0000 0.0000 0.0000)">
</g>
        <g transform="matrix(0.0625 0.0000 0.0000 0.0625 0.0000 0.0000)">
          <path d="M 85.9235,131.3949 C 83.0769,132.5934 81.8034,135.8895 83.0020,138.7362 C 84.2755,141.5079 87.5716,142.8563 90.3433,141.5828 C 93.1900,140.3842 94.4635,137.0881 93.2649,134.2415 C 92.6656,132.9680 91.6168,131.9192 90.3433,131.3949 M 88.0960,129.6719 L 88.0960,135.9645 " stroke="#404040" stroke-width="2.3972" stroke-linecap="butt" stroke-linejoin="miter" stroke-miterlimit="0.1498" fill="none"/>
        </g>
        <g transform="matrix(1.0000 0.0000 0.0000 1.0000 0.0000 0.0000)">
</g>
        <g transform="matrix(0.0625 0.0000 0.0000 0.0625 0.0000 0.0000)">
          <path d="M 182.7093,142.0323 L 197.0923,142.0323 L 189.9008,129.4472 L 182.7093,142.0323 Z" stroke-width="1px" stroke="#262626" fill="#262626"/>
        </g>
        <g transform="matrix(1.0000 0.0000 0.0000 1.0000 0.0000 0.0000)">
</g>
        <g transform="matrix(1.0000 0.0000 0.0000 1.0000 11.8090 8.8181)">
          <text font-family="Arial" fill="#BFBFBF" style="white-space:pre;" font-weight="700" text-anchor="start" x="0.0000" y="0.0000" font-size="0.5993"><![CDATA[!]]></text>
        </g>
        <g transform="matrix(0.0625 0.0000 0.0000 0.0625 0.0000 0.0000)">
          <path d="M 155.1418,158.2132 L 165.8542,158.2132 C 166.5284,158.2132 166.9778,157.7637 166.9778,157.0895 L 166.9778,150.4224 C 166.9778,149.7482 166.5284,149.2238 165.8542,149.2238 L 155.1418,149.2238 C 154.4676,149.2238 153.9432,149.7482 153.9432,150.4224 L 153.9432,157.0895 C 153.9432,157.7637 154.4676,158.2132 155.1418,158.2132 Z " fill="#595959" stroke="none"/>
        </g>
        <g transform="matrix(1.0000 0.0000 0.0000 1.0000 0.0000 0.0000)">
</g>
        <g transform="matrix(0.0625 0.0000 0.0000 0.0625 0.0000 0.0000)">
          <path d="M 155.1418,158.2132 L 165.8542,158.2132 C 166.5284,158.2132 166.9778,157.7637 166.9778,157.0895 L 166.9778,150.4224 C 166.9778,149.7482 166.5284,149.2238 165.8542,149.2238 L 155.1418,149.2238 C 154.4676,149.2238 153.9432,149.7482 153.9432,150.4224 L 153.9432,157.0895 C 153.9432,157.7637 154.4676,158.2132 155.1418,158.2132 Z " stroke="#262626" stroke-width="1.1986" stroke-linecap="round" stroke-linejoin="round" fill="none"/>
        </g>
        <g transform="matrix(1.0000 0.0000 0.0000 1.0000 0.0000 0.0000)">
</g>
        <g transform="matrix(0.0625 0.0000 0.0000 0.0625 0.0000 0.0000)">
          <path d="M 151.4711,161.8089 L 197.3919,161.8089 C 198.9651,161.8089 200.2386,160.5354 200.2386,158.9623 L 200.2386,148.5496 C 200.2386,146.9765 198.9651,145.6280 197.3919,145.6280 L 151.4711,145.6280 C 149.8980,145.6280 148.5496,146.9765 148.5496,148.5496 L 148.5496,158.9623 C 148.5496,160.5354 149.8980,161.8089 151.4711,161.8089 Z " stroke="#3F3F3F" stroke-width="1.1986" stroke-linecap="round" stroke-linejoin="round" fill="none"/>
        </g>
        <g transform="matrix(1.0000 0.0000 0.0000 1.0000 0.0000 0.0000)">
</g>
        <g transform="matrix(1.0000 0.0000 0.0000 1.0000 8.8187 9.8846)">
          <text font-family="Arial" fill="#3F3F3F" style="white-space:pre;" font-weight="700" text-anchor="start" x="0.0000" y="0.0000" font-size="0.8240"><![CDATA[2]]></text>
        </g>
        <g transform="matrix(0.0625 0.0000 0.0000 0.0625 0.0000 0.0000)">
          <path d="M 185.2563,158.2132 L 195.9686,158.2132 C 196.6428,158.2132 197.0923,157.7637 197.0923,157.0895 L 197.0923,150.4224 C 197.0923,149.7482 196.6428,149.2238 195.9686,149.2238 L 185.2563,149.2238 C 184.5821,149.2238 184.0577,149.7482 184.0577,150.4224 L 184.0577,157.0895 C 184.0577,157.7637 184.5821,158.2132 185.2563,158.2132 Z " fill="#595959" stroke="none"/>
        </g>
        <g transform="matrix(1.0000 0.0000 0.0000 1.0000 0.0000 0.0000)">
</g>
        <g transform="matrix(0.0625 0.0000 0.0000 0.0625 0.0000 0.0000)">
          <path d="M 185.2563,158.2132 L 195.9686,158.2132 C 196.6428,158.2132 197.0923,157.7637 197.0923,157.0895 L 197.0923,150.4224 C 197.0923,149.7482 196.6428,149.2238 195.9686,149.2238 L 185.2563,149.2238 C 184.5821,149.2238 184.0577,149.7482 184.0577,150.4224 L 184.0577,157.0895 C 184.0577,157.7637 184.5821,158.2132 185.2563,158.2132 Z " stroke="#262626" stroke-width="1.1986" stroke-linecap="round" stroke-linejoin="round" fill="none"/>
        </g>
        <g transform="matrix(1.0000 0.0000 0.0000 1.0000 0.0000 0.0000)">
</g>
        <g transform="matrix(0.0625 0.0000 0.0000 0.0625 0.0000 0.0000)">
          <path d="M 157.1644,131.3949 C 154.3178,132.5934 153.0443,135.8895 154.2429,138.7362 C 155.5164,141.5079 158.8125,142.8563 161.5842,141.5828 C 164.4308,140.3842 165.7043,137.0881 164.5058,134.2415 C 163.9065,132.9680 162.8577,131.9192 161.5842,131.3949 M 159.3369,129.6719 L 159.3369,135.9645 " stroke="#404040" stroke-width="2.3972" stroke-linecap="butt" stroke-linejoin="miter" stroke-miterlimit="0.1498" fill="none"/>
        </g>
        <g transform="matrix(1.0000 0.0000 0.0000 1.0000 0.0000 0.0000)">
</g>
        <g transform="matrix(0.0625 0.0000 0.0000 0.0625 0.0000 0.0000)">
          <path d="M 217.4682,163.6068 L 289.6080,163.6068 C 291.5557,163.6068 293.0540,162.1086 293.0540,160.1609 L 293.0540,150.9468 C 293.0540,148.9991 291.5557,147.4259 289.6080,147.4259 L 217.4682,147.4259 C 215.5205,147.4259 213.9474,148.9991 213.9474,150.9468 L 213.9474,160.1609 C 213.9474,162.1086 215.5205,163.6068 217.4682,163.6068 Z " fill="#595959" stroke="none"/>
        </g>
        <g transform="matrix(1.0000 0.0000 0.0000 1.0000 0.0000 0.0000)">
</g>
        <g transform="matrix(0.0625 0.0000 0.0000 0.0625 0.0000 0.0000)">
          <path d="M 217.4682,163.6068 L 289.6080,163.6068 C 291.5557,163.6068 293.0540,162.1086 293.0540,160.1609 L 293.0540,150.9468 C 293.0540,148.9991 291.5557,147.4259 289.6080,147.4259 L 217.4682,147.4259 C 215.5205,147.4259 213.9474,148.9991 213.9474,150.9468 L 213.9474,160.1609 C 213.9474,162.1086 215.5205,163.6068 217.4682,163.6068 Z " stroke="#808080" stroke-width="1.1986" stroke-linecap="round" stroke-linejoin="round" fill="none"/>
        </g>
        <g transform="matrix(1.0000 0.0000 0.0000 1.0000 0.0000 0.0000)">
</g>
        <g transform="matrix(1.0000 0.0000 0.0000 1.0000 13.6831 10.0269)">
          <text font-family="Arial" fill="#FFFFFF" style="white-space:pre;" font-weight="700" text-anchor="start" x="0.0000" y="0.0000" font-size="0.8989"><![CDATA[UCS M]]></text>
        </g>
        <g transform="matrix(1.0000 0.0000 0.0000 1.0000 16.5796 10.0269)">
          <text font-family="Arial" fill="#FFFFFF" style="white-space:pre;" font-weight="700" text-anchor="start" x="0.0000" y="0.0000" font-size="0.8989"><![CDATA[142]]></text>
        </g>
        <g transform="matrix(0.0625 0.0000 0.0000 0.0625 0.0000 0.0000)">
          <path d="M 215.0711,176.1920 L 295.6010,176.1920 C 297.1741,176.1920 298.4476,174.9185 298.4476,173.3453 L 298.4476,169.2252 C 298.4476,167.6520 297.1741,166.3036 295.6010,166.3036 L 215.0711,166.3036 C 213.4979,166.3036 212.1495,167.6520 212.1495,169.2252 L 212.1495,173.3453 C 212.1495,174.9185 213.4979,176.1920 215.0711,176.1920 Z " fill="#262626" stroke="none"/>
        </g>
        <g transform="matrix(1.0000 0.0000 0.0000 1.0000 0.0000 0.0000)">
</g>
        <g transform="matrix(0.0625 0.0000 0.0000 0.0625 0.0000 0.0000)">
          <path d="M 215.0711,176.1920 L 295.6010,176.1920 C 297.1741,176.1920 298.4476,174.9185 298.4476,173.3453 L 298.4476,169.2252 C 298.4476,167.6520 297.1741,166.3036 295.6010,166.3036 L 215.0711,166.3036 C 213.4979,166.3036 212.1495,167.6520 212.1495,169.2252 L 212.1495,173.3453 C 212.1495,174.9185 213.4979,176.1920 215.0711,176.1920 Z " stroke="#F2F2F2" stroke-width="1.1986" stroke-linecap="round" stroke-linejoin="round" fill="none"/>
        </g>
        <g transform="matrix(1.0000 0.0000 0.0000 1.0000 0.0000 0.0000)">
          <path d="M 13.1095,10.4876 L 13.1095,10.7873 L 13.1844,10.7873 L 13.1844,10.4876 L 13.1095,10.4876 Z" stroke-width="1px" stroke="#A5A5A5" fill="#A5A5A5"/>
          <path d="M 13.1844,10.4876 L 13.1844,10.7873 L 13.2593,10.7873 L 13.2593,10.4876 L 13.1844,10.4876 Z" stroke-width="1px" stroke="#A6A6A6" fill="#A6A6A6"/>
          <path d="M 13.2593,10.4876 L 13.2593,10.7873 L 13.3343,10.7873 L 13.3343,10.4876 L 13.2593,10.4876 Z" stroke-width="1px" stroke="#A8A8A8" fill="#A8A8A8"/>
          <path d="M 13.3343,10.4876 L 13.3343,10.7873 L 13.4092,10.7873 L 13.4092,10.4876 L 13.3343,10.4876 Z" stroke-width="1px" stroke="#A9A9A9" fill="#A9A9A9"/>
          <path d="M 13.4092,10.4876 L 13.4092,10.7873 L 13.4841,10.7873 L 13.4841,10.4876 L 13.4092,10.4876 Z" stroke-width="1px" stroke="#ABABAB" fill="#ABABAB"/>
          <path d="M 13.4841,10.4876 L 13.4841,10.7873 L 13.5590,10.7873 L 13.5590,10.4876 L 13.4841,10.4876 Z" stroke-width="1px" stroke="#ACACAC" fill="#ACACAC"/>
          <path d="M 13.5590,10.4876 L 13.5590,10.7873 L 13.6339,10.7873 L 13.6339,10.4876 L 13.5590,10.4876 Z" stroke-width="1px" stroke="#ADADAD" fill="#ADADAD"/>
          <path d="M 13.6339,10.4876 L 13.6339,10.7873 L 13.7088,10.7873 L 13.7088,10.4876 L 13.6339,10.4876 Z" stroke-width="1px" stroke="#AFAFAF" fill="#AFAFAF"/>
          <path d="M 13.7088,10.4876 L 13.7088,10.7873 L 13.7837,10.7873 L 13.7837,10.4876 L 13.7088,10.4876 Z" stroke-width="1px" stroke="#B0B0B0" fill="#B0B0B0"/>
          <path d="M 13.7837,10.4876 L 13.7837,10.7873 L 13.8586,10.7873 L 13.8586,10.4876 L 13.7837,10.4876 Z" stroke-width="1px" stroke="#B1B1B1" fill="#B1B1B1"/>
          <path d="M 13.8586,10.4876 L 13.8586,10.7873 L 13.9335,10.7873 L 13.9335,10.4876 L 13.8586,10.4876 Z" stroke-width="1px" stroke="#B3B3B3" fill="#B3B3B3"/>
          <path d="M 13.9335,10.4876 L 13.9335,10.7873 L 14.0085,10.7873 L 14.0085,10.4876 L 13.9335,10.4876 Z" stroke-width="1px" stroke="#B4B4B4" fill="#B4B4B4"/>
          <path d="M 14.0085,10.4876 L 14.0085,10.7873 L 14.0834,10.7873 L 14.0834,10.4876 L 14.0085,10.4876 Z" stroke-width="1px" stroke="#B5B5B5" fill="#B5B5B5"/>
          <path d="M 14.0834,10.4876 L 14.0834,10.7873 L 14.1583,10.7873 L 14.1583,10.4876 L 14.0834,10.4876 Z" stroke-width="1px" stroke="#B7B7B7" fill="#B7B7B7"/>
          <path d="M 14.1583,10.4876 L 14.1583,10.7873 L 14.2332,10.7873 L 14.2332,10.4876 L 14.1583,10.4876 Z" stroke-width="1px" stroke="#B8B8B8" fill="#B8B8B8"/>
          <path d="M 14.2332,10.4876 L 14.2332,10.7873 L 14.3081,10.7873 L 14.3081,10.4876 L 14.2332,10.4876 Z" stroke-width="1px" stroke="#B9B9B9" fill="#B9B9B9"/>
          <path d="M 14.3081,10.4876 L 14.3081,10.7873 L 14.3830,10.7873 L 14.3830,10.4876 L 14.3081,10.4876 Z" stroke-width="1px" stroke="#BBBBBB" fill="#BBBBBB"/>
          <path d="M 14.3830,10.4876 L 14.3830,10.7873 L 14.4579,10.7873 L 14.4579,10.4876 L 14.3830,10.4876 Z" stroke-width="1px" stroke="#BCBCBC" fill="#BCBCBC"/>
          <path d="M 14.4579,10.4876 L 14.4579,10.7873 L 14.5328,10.7873 L 14.5328,10.4876 L 14.4579,10.4876 Z" stroke-width="1px" stroke="#BDBDBD" fill="#BDBDBD"/>
          <path d="M 14.5328,10.4876 L 14.5328,10.7873 L 14.6078,10.7873 L 14.6078,10.4876 L 14.5328,10.4876 Z" stroke-width="1px" stroke="#BFBFBF" fill="#BFBFBF"/>
          <path d="M 14.6078,10.4876 L 14.6078,10.7873 L 14.6827,10.7873 L 14.6827,10.4876 L 14.6078,10.4876 Z" stroke-width="1px" stroke="#C0C0C0" fill="#C0C0C0"/>
          <path d="M 14.6827,10.4876 L 14.6827,10.7873 L 14.7576,10.7873 L 14.7576,10.4876 L 14.6827,10.4876 Z" stroke-width="1px" stroke="#C2C2C2" fill="#C2C2C2"/>
          <path d="M 14.7576,10.4876 L 14.7576,10.7873 L 14.8325,10.7873 L 14.8325,10.4876 L 14.7576,10.4876 Z" stroke-width="1px" stroke="#C3C3C3" fill="#C3C3C3"/>
          <path d="M 14.8325,10.4876 L 14.8325,10.7873 L 14.9074,10.7873 L 14.9074,10.4876 L 14.8325,10.4876 Z" stroke-width="1px" stroke="#C4C4C4" fill="#C4C4C4"/>
          <path d="M 14.9074,10.4876 L 14.9074,10.7873 L 14.9823,10.7873 L 14.9823,10.4876 L 14.9074,10.4876 Z" stroke-width="1px" stroke="#C6C6C6" fill="#C6C6C6"/>
          <path d="M 14.9823,10.4876 L 14.9823,10.7873 L 15.0572,10.7873 L 15.0572,10.4876 L 14.9823,10.4876 Z" stroke-width="1px" stroke="#C7C7C7" fill="#C7C7C7"/>
          <path d="M 15.0572,10.4876 L 15.0572,10.7873 L 15.1321,10.7873 L 15.1321,10.4876 L 15.0572,10.4876 Z" stroke-width="1px" stroke="#C8C8C8" fill="#C8C8C8"/>
          <path d="M 15.1321,10.4876 L 15.1321,10.7873 L 15.2070,10.7873 L 15.2070,10.4876 L 15.1321,10.4876 Z" stroke-width="1px" stroke="#CACACA" fill="#CACACA"/>
          <path d="M 15.2070,10.4876 L 15.2070,10.7873 L 15.2820,10.7873 L 15.2820,10.4876 L 15.2070,10.4876 Z" stroke-width="1px" stroke="#CBCBCB" fill="#CBCBCB"/>
          <path d="M 15.2820,10.4876 L 15.2820,10.7873 L 15.3569,10.7873 L 15.3569,10.4876 L 15.2820,10.4876 Z" stroke-width="1px" stroke="#CCCCCC" fill="#CCCCCC"/>
          <path d="M 15.3569,10.4876 L 15.3569,10.7873 L 15.4318,10.7873 L 15.4318,10.4876 L 15.3569,10.4876 Z" stroke-width="1px" stroke="#CECECE" fill="#CECECE"/>
          <path d="M 15.4318,10.4876 L 15.4318,10.7873 L 15.5067,10.7873 L 15.5067,10.4876 L 15.4318,10.4876 Z" stroke-width="1px" stroke="#CFCFCF" fill="#CFCFCF"/>
          <path d="M 15.5067,10.4876 L 15.5067,10.7873 L 15.5816,10.7873 L 15.5816,10.4876 L 15.5067,10.4876 Z" stroke-width="1px" stroke="#D0D0D0" fill="#D0D0D0"/>
          <path d="M 15.5816,10.4876 L 15.5816,10.7873 L 15.6565,10.7873 L 15.6565,10.4876 L 15.5816,10.4876 Z" stroke-width="1px" stroke="#D2D2D2" fill="#D2D2D2"/>
          <path d="M 15.6565,10.4876 L 15.6565,10.7873 L 15.7314,10.7873 L 15.7314,10.4876 L 15.6565,10.4876 Z" stroke-width="1px" stroke="#D3D3D3" fill="#D3D3D3"/>
          <path d="M 15.7314,10.4876 L 15.7314,10.7873 L 15.8063,10.7873 L 15.8063,10.4876 L 15.7314,10.4876 Z" stroke-width="1px" stroke="#D4D4D4" fill="#D4D4D4"/>
          <path d="M 15.8063,10.4876 L 15.8063,10.7873 L 15.8812,10.7873 L 15.8812,10.4876 L 15.8063,10.4876 Z" stroke-width="1px" stroke="#D6D6D6" fill="#D6D6D6"/>
          <path d="M 15.8812,10.4876 L 15.8812,10.7873 L 16.0311,10.7873 L 16.0311,10.4876 L 15.8812,10.4876 Z" stroke-width="1px" stroke="#D7D7D7" fill="#D7D7D7"/>
          <path d="M 16.0311,10.4876 L 16.0311,10.7873 L 16.1060,10.7873 L 16.1060,10.4876 L 16.0311,10.4876 Z" stroke-width="1px" stroke="#D6D6D6" fill="#D6D6D6"/>
          <path d="M 16.1060,10.4876 L 16.1060,10.7873 L 16.1809,10.7873 L 16.1809,10.4876 L 16.1060,10.4876 Z" stroke-width="1px" stroke="#D4D4D4" fill="#D4D4D4"/>
          <path d="M 16.1809,10.4876 L 16.1809,10.7873 L 16.2558,10.7873 L 16.2558,10.4876 L 16.1809,10.4876 Z" stroke-width="1px" stroke="#D3D3D3" fill="#D3D3D3"/>
          <path d="M 16.2558,10.4876 L 16.2558,10.7873 L 16.3307,10.7873 L 16.3307,10.4876 L 16.2558,10.4876 Z" stroke-width="1px" stroke="#D2D2D2" fill="#D2D2D2"/>
          <path d="M 16.3307,10.4876 L 16.3307,10.7873 L 16.4056,10.7873 L 16.4056,10.4876 L 16.3307,10.4876 Z" stroke-width="1px" stroke="#D0D0D0" fill="#D0D0D0"/>
          <path d="M 16.4056,10.4876 L 16.4056,10.7873 L 16.4805,10.7873 L 16.4805,10.4876 L 16.4056,10.4876 Z" stroke-width="1px" stroke="#CFCFCF" fill="#CFCFCF"/>
          <path d="M 16.4805,10.4876 L 16.4805,10.7873 L 16.5555,10.7873 L 16.5555,10.4876 L 16.4805,10.4876 Z" stroke-width="1px" stroke="#CDCDCD" fill="#CDCDCD"/>
          <path d="M 16.5555,10.4876 L 16.5555,10.7873 L 16.6304,10.7873 L 16.6304,10.4876 L 16.5555,10.4876 Z" stroke-width="1px" stroke="#CCCCCC" fill="#CCCCCC"/>
          <path d="M 16.6304,10.4876 L 16.6304,10.7873 L 16.7053,10.7873 L 16.7053,10.4876 L 16.6304,10.4876 Z" stroke-width="1px" stroke="#CBCBCB" fill="#CBCBCB"/>
          <path d="M 16.7053,10.4876 L 16.7053,10.7873 L 16.7802,10.7873 L 16.7802,10.4876 L 16.7053,10.4876 Z" stroke-width="1px" stroke="#C9C9C9" fill="#C9C9C9"/>
          <path d="M 16.7802,10.4876 L 16.7802,10.7873 L 16.8551,10.7873 L 16.8551,10.4876 L 16.7802,10.4876 Z" stroke-width="1px" stroke="#C8C8C8" fill="#C8C8C8"/>
          <path d="M 16.8551,10.4876 L 16.8551,10.7873 L 16.9300,10.7873 L 16.9300,10.4876 L 16.8551,10.4876 Z" stroke-width="1px" stroke="#C7C7C7" fill="#C7C7C7"/>
          <path d="M 16.9300,10.4876 L 16.9300,10.7873 L 17.0049,10.7873 L 17.0049,10.4876 L 16.9300,10.4876 Z" stroke-width="1px" stroke="#C5C5C5" fill="#C5C5C5"/>
          <path d="M 17.0049,10.4876 L 17.0049,10.7873 L 17.0798,10.7873 L 17.0798,10.4876 L 17.0049,10.4876 Z" stroke-width="1px" stroke="#C4C4C4" fill="#C4C4C4"/>
          <path d="M 17.0798,10.4876 L 17.0798,10.7873 L 17.1547,10.7873 L 17.1547,10.4876 L 17.0798,10.4876 Z" stroke-width="1px" stroke="#C2C2C2" fill="#C2C2C2"/>
          <path d="M 17.1547,10.4876 L 17.1547,10.7873 L 17.2297,10.7873 L 17.2297,10.4876 L 17.1547,10.4876 Z" stroke-width="1px" stroke="#C1C1C1" fill="#C1C1C1"/>
          <path d="M 17.2297,10.4876 L 17.2297,10.7873 L 17.3046,10.7873 L 17.3046,10.4876 L 17.2297,10.4876 Z" stroke-width="1px" stroke="#C0C0C0" fill="#C0C0C0"/>
          <path d="M 17.3046,10.4876 L 17.3046,10.7873 L 17.3795,10.7873 L 17.3795,10.4876 L 17.3046,10.4876 Z" stroke-width="1px" stroke="#BEBEBE" fill="#BEBEBE"/>
          <path d="M 17.3795,10.4876 L 17.3795,10.7873 L 17.4544,10.7873 L 17.4544,10.4876 L 17.3795,10.4876 Z" stroke-width="1px" stroke="#BDBDBD" fill="#BDBDBD"/>
          <path d="M 17.4544,10.4876 L 17.4544,10.7873 L 17.5293,10.7873 L 17.5293,10.4876 L 17.4544,10.4876 Z" stroke-width="1px" stroke="#BCBCBC" fill="#BCBCBC"/>
          <path d="M 17.5293,10.4876 L 17.5293,10.7873 L 17.6042,10.7873 L 17.6042,10.4876 L 17.5293,10.4876 Z" stroke-width="1px" stroke="#BABABA" fill="#BABABA"/>
          <path d="M 17.6042,10.4876 L 17.6042,10.7873 L 17.6791,10.7873 L 17.6791,10.4876 L 17.6042,10.4876 Z" stroke-width="1px" stroke="#B9B9B9" fill="#B9B9B9"/>
          <path d="M 17.6791,10.4876 L 17.6791,10.7873 L 17.7540,10.7873 L 17.7540,10.4876 L 17.6791,10.4876 Z" stroke-width="1px" stroke="#B7B7B7" fill="#B7B7B7"/>
          <path d="M 17.7540,10.4876 L 17.7540,10.7873 L 17.8289,10.7873 L 17.8289,10.4876 L 17.7540,10.4876 Z" stroke-width="1px" stroke="#B6B6B6" fill="#B6B6B6"/>
          <path d="M 17.8289,10.4876 L 17.8289,10.7873 L 17.9039,10.7873 L 17.9039,10.4876 L 17.8289,10.4876 Z" stroke-width="1px" stroke="#B5B5B5" fill="#B5B5B5"/>
          <path d="M 17.9039,10.4876 L 17.9039,10.7873 L 17.9788,10.7873 L 17.9788,10.4876 L 17.9039,10.4876 Z" stroke-width="1px" stroke="#B3B3B3" fill="#B3B3B3"/>
          <path d="M 17.9788,10.4876 L 17.9788,10.7873 L 18.0537,10.7873 L 18.0537,10.4876 L 17.9788,10.4876 Z" stroke-width="1px" stroke="#B2B2B2" fill="#B2B2B2"/>
          <path d="M 18.0537,10.4876 L 18.0537,10.7873 L 18.1286,10.7873 L 18.1286,10.4876 L 18.0537,10.4876 Z" stroke-width="1px" stroke="#B1B1B1" fill="#B1B1B1"/>
          <path d="M 18.1286,10.4876 L 18.1286,10.7873 L 18.2035,10.7873 L 18.2035,10.4876 L 18.1286,10.4876 Z" stroke-width="1px" stroke="#AFAFAF" fill="#AFAFAF"/>
          <path d="M 18.2035,10.4876 L 18.2035,10.7873 L 18.2784,10.7873 L 18.2784,10.4876 L 18.2035,10.4876 Z" stroke-width="1px" stroke="#AEAEAE" fill="#AEAEAE"/>
          <path d="M 18.2784,10.4876 L 18.2784,10.7873 L 18.3533,10.7873 L 18.3533,10.4876 L 18.2784,10.4876 Z" stroke-width="1px" stroke="#ACACAC" fill="#ACACAC"/>
          <path d="M 18.3533,10.4876 L 18.3533,10.7873 L 18.4282,10.7873 L 18.4282,10.4876 L 18.3533,10.4876 Z" stroke-width="1px" stroke="#ABABAB" fill="#ABABAB"/>
          <path d="M 18.4282,10.4876 L 18.4282,10.7873 L 18.5032,10.7873 L 18.5032,10.4876 L 18.4282,10.4876 Z" stroke-width="1px" stroke="#AAAAAA" fill="#AAAAAA"/>
          <path d="M 18.5032,10.4876 L 18.5032,10.7873 L 18.5781,10.7873 L 18.5781,10.4876 L 18.5032,10.4876 Z" stroke-width="1px" stroke="#A8A8A8" fill="#A8A8A8"/>
          <path d="M 18.5781,10.4876 L 18.5781,10.7873 L 18.6530,10.7873 L 18.6530,10.4876 L 18.5781,10.4876 Z" stroke-width="1px" stroke="#A7A7A7" fill="#A7A7A7"/>
          <path d="M 18.6530,10.4876 L 18.6530,10.7873 L 18.7279,10.7873 L 18.7279,10.4876 L 18.6530,10.4876 Z" stroke-width="1px" stroke="#A5A5A5" fill="#A5A5A5"/>
        </g>
        <g transform="matrix(0.0625 0.0000 0.0000 0.0625 0.0000 0.0000)">
          <path d="M 433.9626,164.9552 L 452.4657,164.9552 C 454.0389,164.9552 455.3124,163.6817 455.3124,162.1086 L 455.3124,152.5948 C 455.3124,151.0217 454.0389,149.6733 452.4657,149.6733 L 433.9626,149.6733 C 432.3895,149.6733 431.0410,151.0217 431.0410,152.5948 L 431.0410,162.1086 C 431.0410,163.6817 432.3895,164.9552 433.9626,164.9552 Z M 433.9626,143.8302 L 452.4657,143.8302 C 454.0389,143.8302 455.3124,142.5567 455.3124,140.9835 L 455.3124,131.4698 C 455.3124,129.8966 454.0389,128.5482 452.4657,128.5482 L 433.9626,128.5482 C 432.3895,128.5482 431.0410,129.8966 431.0410,131.4698 L 431.0410,140.9835 C 431.0410,142.5567 432.3895,143.8302 433.9626,143.8302 Z M 433.9626,122.7051 L 452.4657,122.7051 C 454.0389,122.7051 455.3124,121.4316 455.3124,119.8585 L 455.3124,110.3447 C 455.3124,108.7716 454.0389,107.4232 452.4657,107.4232 L 433.9626,107.4232 C 432.3895,107.4232 431.0410,108.7716 431.0410,110.3447 L 431.0410,119.8585 C 431.0410,121.4316 432.3895,122.7051 433.9626,122.7051 Z M 433.9626,101.5801 L 452.4657,101.5801 C 454.0389,101.5801 455.3124,100.3066 455.3124,98.7334 L 455.3124,89.2197 C 455.3124,87.6465 454.0389,86.2981 452.4657,86.2981 L 433.9626,86.2981 C 432.3895,86.2981 431.0410,87.6465 431.0410,89.2197 L 431.0410,98.7334 C 431.0410,100.3066 432.3895,101.5801 433.9626,101.5801 Z M 433.9626,80.4550 L 452.4657,80.4550 C 454.0389,80.4550 455.3124,79.1815 455.3124,77.6084 L 455.3124,68.0946 C 455.3124,66.5215 454.0389,65.1730 452.4657,65.1730 L 433.9626,65.1730 C 432.3895,65.1730 431.0410,66.5215 431.0410,68.0946 L 431.0410,77.6084 C 431.0410,79.1815 432.3895,80.4550 433.9626,80.4550 Z M 433.9626,59.3299 L 452.4657,59.3299 C 454.0389,59.3299 455.3124,58.0564 455.3124,56.4833 L 455.3124,46.9695 C 455.3124,45.3964 454.0389,44.0480 452.4657,44.0480 L 433.9626,44.0480 C 432.3895,44.0480 431.0410,45.3964 431.0410,46.9695 L 431.0410,56.4833 C 431.0410,58.0564 432.3895,59.3299 433.9626,59.3299 Z M 433.9626,38.2049 L 452.4657,38.2049 C 454.0389,38.2049 455.3124,36.9314 455.3124,35.3583 L 455.3124,25.8445 C 455.3124,24.2713 454.0389,22.9229 452.4657,22.9229 L 433.9626,22.9229 C 432.3895,22.9229 431.0410,24.2713 431.0410,25.8445 L 431.0410,35.3583 C 431.0410,36.9314 432.3895,38.2049 433.9626,38.2049 Z M 403.1740,164.9552 L 421.6771,164.9552 C 423.2502,164.9552 424.5237,163.6817 424.5237,162.1086 L 424.5237,152.5948 C 424.5237,151.0217 423.2502,149.6733 421.6771,149.6733 L 403.1740,149.6733 C 401.5259,149.6733 400.2524,151.0217 400.2524,152.5948 L 400.2524,162.1086 C 400.2524,163.6817 401.5259,164.9552 403.1740,164.9552 Z M 403.1740,143.8302 L 421.6771,143.8302 C 423.2502,143.8302 424.5237,142.5567 424.5237,140.9835 L 424.5237,131.4698 C 424.5237,129.8966 423.2502,128.5482 421.6771,128.5482 L 403.1740,128.5482 C 401.5259,128.5482 400.2524,129.8966 400.2524,131.4698 L 400.2524,140.9835 C 400.2524,142.5567 401.5259,143.8302 403.1740,143.8302 Z M 403.1740,122.7051 L 421.6771,122.7051 C 423.2502,122.7051 424.5237,121.4316 424.5237,119.8585 L 424.5237,110.3447 C 424.5237,108.7716 423.2502,107.4232 421.6771,107.4232 L 403.1740,107.4232 C 401.5259,107.4232 400.2524,108.7716 400.2524,110.3447 L 400.2524,119.8585 C 400.2524,121.4316 401.5259,122.7051 403.1740,122.7051 Z M 403.1740,101.5801 L 421.6771,101.5801 C 423.2502,101.5801 424.5237,100.3066 424.5237,98.7334 L 424.5237,89.2197 C 424.5237,87.6465 423.2502,86.2981 421.6771,86.2981 L 403.1740,86.2981 C 401.5259,86.2981 400.2524,87.6465 400.2524,89.2197 L 400.2524,98.7334 C 400.2524,100.3066 401.5259,101.5801 403.1740,101.5801 Z M 403.1740,80.4550 L 421.6771,80.4550 C 423.2502,80.4550 424.5237,79.1815 424.5237,77.6084 L 424.5237,68.0946 C 424.5237,66.5215 423.2502,65.1730 421.6771,65.1730 L 403.1740,65.1730 C 401.5259,65.1730 400.2524,66.5215 400.2524,68.0946 L 400.2524,77.6084 C 400.2524,79.1815 401.5259,80.4550 403.1740,80.4550 Z M 403.1740,59.3299 L 421.6771,59.3299 C 423.2502,59.3299 424.5237,58.0564 424.5237,56.4833 L 424.5237,46.9695 C 424.5237,45.3964 423.2502,44.0480 421.6771,44.0480 L 403.1740,44.0480 C 401.5259,44.0480 400.2524,45.3964 400.2524,46.9695 L 400.2524,56.4833 C 400.2524,58.0564 401.5259,59.3299 403.1740,59.3299 Z M 403.1740,38.2049 L 421.6771,38.2049 C 423.2502,38.2049 424.5237,36.9314 424.5237,35.3583 L 424.5237,25.8445 C 424.5237,24.2713 423.2502,22.9229 421.6771,22.9229 L 403.1740,22.9229 C 401.5259,22.9229 400.2524,24.2713 400.2524,25.8445 L 400.2524,35.3583 C 400.2524,36.9314 401.5259,38.2049 403.1740,38.2049 Z M 372.3104,164.9552 L 390.8885,164.9552 C 392.4616,164.9552 393.7351,163.6817 393.7351,162.1086 L 393.7351,152.5948 C 393.7351,151.0217 392.4616,149.6733 390.8885,149.6733 L 372.3104,149.6733 C 370.7373,149.6733 369.4638,151.0217 369.4638,152.5948 L 369.4638,162.1086 C 369.4638,163.6817 370.7373,164.9552 372.3104,164.9552 Z M 372.3104,143.8302 L 390.8885,143.8302 C 392.4616,143.8302 393.7351,142.5567 393.7351,140.9835 L 393.7351,131.4698 C 393.7351,129.8966 392.4616,128.5482 390.8885,128.5482 L 372.3104,128.5482 C 370.7373,128.5482 369.4638,129.8966 369.4638,131.4698 L 369.4638,140.9835 C 369.4638,142.5567 370.7373,143.8302 372.3104,143.8302 Z M 372.3104,122.7051 L 390.8885,122.7051 C 392.4616,122.7051 393.7351,121.4316 393.7351,119.8585 L 393.7351,110.3447 C 393.7351,108.7716 392.4616,107.4232 390.8885,107.4232 L 372.3104,107.4232 C 370.7373,107.4232 369.4638,108.7716 369.4638,110.3447 L 369.4638,119.8585 C 369.4638,121.4316 370.7373,122.7051 372.3104,122.7051 Z M 372.3104,101.5801 L 390.8885,101.5801 C 392.4616,101.5801 393.7351,100.3066 393.7351,98.7334 L 393.7351,89.2197 C 393.7351,87.6465 392.4616,86.2981 390.8885,86.2981 L 372.3104,86.2981 C 370.7373,86.2981 369.4638,87.6465 369.4638,89.2197 L 369.4638,98.7334 C 369.4638,100.3066 370.7373,101.5801 372.3104,101.5801 Z M 372.3104,80.4550 L 390.8885,80.4550 C 392.4616,80.4550 393.7351,79.1815 393.7351,77.6084 L 393.7351,68.0946 C 393.7351,66.5215 392.4616,65.1730 390.8885,65.1730 L 372.3104,65.1730 C 370.7373,65.1730 369.4638,66.5215 369.4638,68.0946 L 369.4638,77.6084 C 369.4638,79.1815 370.7373,80.4550 372.3104,80.4550 Z M 372.3104,59.3299 L 390.8885,59.3299 C 392.4616,59.3299 393.7351,58.0564 393.7351,56.4833 L 393.7351,46.9695 C 393.7351,45.3964 392.4616,44.0480 390.8885,44.0480 L 372.3104,44.0480 C 370.7373,44.0480 369.4638,45.3964 369.4638,46.9695 L 369.4638,56.4833 C 369.4638,58.0564 370.7373,59.3299 372.3104,59.3299 Z M 372.3104,38.2049 L 390.8885,38.2049 C 392.4616,38.2049 393.7351,36.9314 393.7351,35.3583 L 393.7351,25.8445 C 393.7351,24.2713 392.4616,22.9229 390.8885,22.9229 L 372.3104,22.9229 C 370.7373,22.9229 369.4638,24.2713 369.4638,25.8445 L 369.4638,35.3583 C 369.4638,36.9314 370.7373,38.2049 372.3104,38.2049 Z M 341.5217,164.9552 L 360.0249,164.9552 C 361.6730,164.9552 362.9464,163.6817 362.9464,162.1086 L 362.9464,152.5948 C 362.9464,151.0217 361.6730,149.6733 360.0249,149.6733 L 341.5217,149.6733 C 339.9486,149.6733 338.6751,151.0217 338.6751,152.5948 L 338.6751,162.1086 C 338.6751,163.6817 339.9486,164.9552 341.5217,164.9552 Z M 341.5217,143.8302 L 360.0249,143.8302 C 361.6730,143.8302 362.9464,142.5567 362.9464,140.9835 L 362.9464,131.4698 C 362.9464,129.8966 361.6730,128.5482 360.0249,128.5482 L 341.5217,128.5482 C 339.9486,128.5482 338.6751,129.8966 338.6751,131.4698 L 338.6751,140.9835 C 338.6751,142.5567 339.9486,143.8302 341.5217,143.8302 Z M 341.5217,122.7051 L 360.0249,122.7051 C 361.6730,122.7051 362.9464,121.4316 362.9464,119.8585 L 362.9464,110.3447 C 362.9464,108.7716 361.6730,107.4232 360.0249,107.4232 L 341.5217,107.4232 C 339.9486,107.4232 338.6751,108.7716 338.6751,110.3447 L 338.6751,119.8585 C 338.6751,121.4316 339.9486,122.7051 341.5217,122.7051 Z M 341.5217,101.5801 L 360.0249,101.5801 C 361.6730,101.5801 362.9464,100.3066 362.9464,98.7334 L 362.9464,89.2197 C 362.9464,87.6465 361.6730,86.2981 360.0249,86.2981 L 341.5217,86.2981 C 339.9486,86.2981 338.6751,87.6465 338.6751,89.2197 L 338.6751,98.7334 C 338.6751,100.3066 339.9486,101.5801 341.5217,101.5801 Z M 341.5217,80.4550 L 360.0249,80.4550 C 361.6730,80.4550 362.9464,79.1815 362.9464,77.6084 L 362.9464,68.0946 C 362.9464,66.5215 361.6730,65.1730 360.0249,65.1730 L 341.5217,65.1730 C 339.9486,65.1730 338.6751,66.5215 338.6751,68.0946 L 338.6751,77.6084 C 338.6751,79.1815 339.9486,80.4550 341.5217,80.4550 Z M 341.5217,59.3299 L 360.0249,59.3299 C 361.6730,59.3299 362.9464,58.0564 362.9464,56.4833 L 362.9464,46.9695 C 362.9464,45.3964 361.6730,44.0480 360.0249,44.0480 L 341.5217,44.0480 C 339.9486,44.0480 338.6751,45.3964 338.6751,46.9695 L 338.6751,56.4833 C 338.6751,58.0564 339.9486,59.3299 341.5217,59.3299 Z M 341.5217,38.2049 L 360.0249,38.2049 C 361.6730,38.2049 362.9464,36.9314 362.9464,35.3583 L 362.9464,25.8445 C 362.9464,24.2713 361.6730,22.9229 360.0249,22.9229 L 341.5217,22.9229 C 339.9486,22.9229 338.6751,24.2713 338.6751,25.8445 L 338.6751,35.3583 C 338.6751,36.9314 339.9486,38.2049 341.5217,38.2049 Z M 310.7331,164.9552 L 329.2363,164.9552 C 330.8094,164.9552 332.1578,163.6817 332.1578,162.1086 L 332.1578,152.5948 C 332.1578,151.0217 330.8094,149.6733 329.2363,149.6733 L 310.7331,149.6733 C 309.1600,149.6733 307.8865,151.0217 307.8865,152.5948 L 307.8865,162.1086 C 307.8865,163.6817 309.1600,164.9552 310.7331,164.9552 Z M 310.7331,143.8302 L 329.2363,143.8302 C 330.8094,143.8302 332.1578,142.5567 332.1578,140.9835 L 332.1578,131.4698 C 332.1578,129.8966 330.8094,128.5482 329.2363,128.5482 L 310.7331,128.5482 C 309.1600,128.5482 307.8865,129.8966 307.8865,131.4698 L 307.8865,140.9835 C 307.8865,142.5567 309.1600,143.8302 310.7331,143.8302 Z M 310.7331,122.7051 L 329.2363,122.7051 C 330.8094,122.7051 332.1578,121.4316 332.1578,119.8585 L 332.1578,110.3447 C 332.1578,108.7716 330.8094,107.4232 329.2363,107.4232 L 310.7331,107.4232 C 309.1600,107.4232 307.8865,108.7716 307.8865,110.3447 L 307.8865,119.8585 C 307.8865,121.4316 309.1600,122.7051 310.7331,122.7051 Z M 310.7331,101.5801 L 329.2363,101.5801 C 330.8094,101.5801 332.1578,100.3066 332.1578,98.7334 L 332.1578,89.2197 C 332.1578,87.6465 330.8094,86.2981 329.2363,86.2981 L 310.7331,86.2981 C 309.1600,86.2981 307.8865,87.6465 307.8865,89.2197 L 307.8865,98.7334 C 307.8865,100.3066 309.1600,101.5801 310.7331,101.5801 Z M 310.7331,80.4550 L 329.2363,80.4550 C 330.8094,80.4550 332.1578,79.1815 332.1578,77.6084 L 332.1578,68.0946 C 332.1578,66.5215 330.8094,65.1730 329.2363,65.1730 L 310.7331,65.1730 C 309.1600,65.1730 307.8865,66.5215 307.8865,68.0946 L 307.8865,77.6084 C 307.8865,79.1815 309.1600,80.4550 310.7331,80.4550 Z M 310.7331,59.3299 L 329.2363,59.3299 C 330.8094,59.3299 332.1578,58.0564 332.1578,56.4833 L 332.1578,46.9695 C 332.1578,45.3964 330.8094,44.0480 329.2363,44.0480 L 310.7331,44.0480 C 309.1600,44.0480 307.8865,45.3964 307.8865,46.9695 L 307.8865,56.4833 C 307.8865,58.0564 309.1600,59.3299 310.7331,59.3299 Z M 310.7331,38.2049 L 329.2363,38.2049 C 330.8094,38.2049 332.1578,36.9314 332.1578,35.3583 L 332.1578,25.8445 C 332.1578,24.2713 330.8094,22.9229 329.2363,22.9229 L 310.7331,22.9229 C 309.1600,22.9229 307.8865,24.2713 307.8865,25.8445 L 307.8865,35.3583 C 307.8865,36.9314 309.1600,38.2049 310.7331,38.2049 Z M 279.9445,143.8302 L 298.4476,143.8302 C 300.0207,143.8302 301.2942,142.5567 301.2942,140.9835 L 301.2942,131.4698 C 301.2942,129.8966 300.0207,128.5482 298.4476,128.5482 L 279.9445,128.5482 C 278.3713,128.5482 277.0229,129.8966 277.0229,131.4698 L 277.0229,140.9835 C 277.0229,142.5567 278.3713,143.8302 279.9445,143.8302 Z M 279.9445,122.7051 L 298.4476,122.7051 C 300.0207,122.7051 301.2942,121.4316 301.2942,119.8585 L 301.2942,110.3447 C 301.2942,108.7716 300.0207,107.4232 298.4476,107.4232 L 279.9445,107.4232 C 278.3713,107.4232 277.0229,108.7716 277.0229,110.3447 L 277.0229,119.8585 C 277.0229,121.4316 278.3713,122.7051 279.9445,122.7051 Z M 279.9445,101.5801 L 298.4476,101.5801 C 300.0207,101.5801 301.2942,100.3066 301.2942,98.7334 L 301.2942,89.2197 C 301.2942,87.6465 300.0207,86.2981 298.4476,86.2981 L 279.9445,86.2981 C 278.3713,86.2981 277.0229,87.6465 277.0229,89.2197 L 277.0229,98.7334 C 277.0229,100.3066 278.3713,101.5801 279.9445,101.5801 Z M 279.9445,80.4550 L 298.4476,80.4550 C 300.0207,80.4550 301.2942,79.1815 301.2942,77.6084 L 301.2942,68.0946 C 301.2942,66.5215 300.0207,65.1730 298.4476,65.1730 L 279.9445,65.1730 C 278.3713,65.1730 277.0229,66.5215 277.0229,68.0946 L 277.0229,77.6084 C 277.0229,79.1815 278.3713,80.4550 279.9445,80.4550 Z M 279.9445,59.3299 L 298.4476,59.3299 C 300.0207,59.3299 301.2942,58.0564 301.2942,56.4833 L 301.2942,46.9695 C 301.2942,45.3964 300.0207,44.0480 298.4476,44.0480 L 279.9445,44.0480 C 278.3713,44.0480 277.0229,45.3964 277.0229,46.9695 L 277.0229,56.4833 C 277.0229,58.0564 278.3713,59.3299 279.9445,59.3299 Z M 279.9445,38.2049 L 298.4476,38.2049 C 300.0207,38.2049 301.2942,36.9314 301.2942,35.3583 L 301.2942,25.8445 C 301.2942,24.2713 300.0207,22.9229 298.4476,22.9229 L 279.9445,22.9229 C 278.3713,22.9229 277.0229,24.2713 277.0229,25.8445 L 277.0229,35.3583 C 277.0229,36.9314 278.3713,38.2049 279.9445,38.2049 Z M 249.0809,143.8302 L 267.6590,143.8302 C 269.2321,143.8302 270.5056,142.5567 270.5056,140.9835 L 270.5056,131.4698 C 270.5056,129.8966 269.2321,128.5482 267.6590,128.5482 L 249.0809,128.5482 C 247.5078,128.5482 246.2343,129.8966 246.2343,131.4698 L 246.2343,140.9835 C 246.2343,142.5567 247.5078,143.8302 249.0809,143.8302 Z M 249.0809,122.7051 L 267.6590,122.7051 C 269.2321,122.7051 270.5056,121.4316 270.5056,119.8585 L 270.5056,110.3447 C 270.5056,108.7716 269.2321,107.4232 267.6590,107.4232 L 249.0809,107.4232 C 247.5078,107.4232 246.2343,108.7716 246.2343,110.3447 L 246.2343,119.8585 C 246.2343,121.4316 247.5078,122.7051 249.0809,122.7051 Z M 249.0809,101.5801 L 267.6590,101.5801 C 269.2321,101.5801 270.5056,100.3066 270.5056,98.7334 L 270.5056,89.2197 C 270.5056,87.6465 269.2321,86.2981 267.6590,86.2981 L 249.0809,86.2981 C 247.5078,86.2981 246.2343,87.6465 246.2343,89.2197 L 246.2343,98.7334 C 246.2343,100.3066 247.5078,101.5801 249.0809,101.5801 Z M 249.0809,80.4550 L 267.6590,80.4550 C 269.2321,80.4550 270.5056,79.1815 270.5056,77.6084 L 270.5056,68.0946 C 270.5056,66.5215 269.2321,65.1730 267.6590,65.1730 L 249.0809,65.1730 C 247.5078,65.1730 246.2343,66.5215 246.2343,68.0946 L 246.2343,77.6084 C 246.2343,79.1815 247.5078,80.4550 249.0809,80.4550 Z M 249.0809,59.3299 L 267.6590,59.3299 C 269.2321,59.3299 270.5056,58.0564 270.5056,56.4833 L 270.5056,46.9695 C 270.5056,45.3964 269.2321,44.0480 267.6590,44.0480 L 249.0809,44.0480 C 247.5078,44.0480 246.2343,45.3964 246.2343,46.9695 L 246.2343,56.4833 C 246.2343,58.0564 247.5078,59.3299 249.0809,59.3299 Z M 249.0809,38.2049 L 267.6590,38.2049 C 269.2321,38.2049 270.5056,36.9314 270.5056,35.3583 L 270.5056,25.8445 C 270.5056,24.2713 269.2321,22.9229 267.6590,22.9229 L 249.0809,22.9229 C 247.5078,22.9229 246.2343,24.2713 246.2343,25.8445 L 246.2343,35.3583 C 246.2343,36.9314 247.5078,38.2049 249.0809,38.2049 Z M 218.2923,143.8302 L 236.7954,143.8302 C 238.4435,143.8302 239.7170,142.5567 239.7170,140.9835 L 239.7170,131.4698 C 239.7170,129.8966 238.4435,128.5482 236.7954,128.5482 L 218.2923,128.5482 C 216.7191,128.5482 215.4456,129.8966 215.4456,131.4698 L 215.4456,140.9835 C 215.4456,142.5567 216.7191,143.8302 218.2923,143.8302 Z M 218.2923,122.7051 L 236.7954,122.7051 C 238.4435,122.7051 239.7170,121.4316 239.7170,119.8585 L 239.7170,110.3447 C 239.7170,108.7716 238.4435,107.4232 236.7954,107.4232 L 218.2923,107.4232 C 216.7191,107.4232 215.4456,108.7716 215.4456,110.3447 L 215.4456,119.8585 C 215.4456,121.4316 216.7191,122.7051 218.2923,122.7051 Z M 218.2923,101.5801 L 236.7954,101.5801 C 238.4435,101.5801 239.7170,100.3066 239.7170,98.7334 L 239.7170,89.2197 C 239.7170,87.6465 238.4435,86.2981 236.7954,86.2981 L 218.2923,86.2981 C 216.7191,86.2981 215.4456,87.6465 215.4456,89.2197 L 215.4456,98.7334 C 215.4456,100.3066 216.7191,101.5801 218.2923,101.5801 Z M 218.2923,80.4550 L 236.7954,80.4550 C 238.4435,80.4550 239.7170,79.1815 239.7170,77.6084 L 239.7170,68.0946 C 239.7170,66.5215 238.4435,65.1730 236.7954,65.1730 L 218.2923,65.1730 C 216.7191,65.1730 215.4456,66.5215 215.4456,68.0946 L 215.4456,77.6084 C 215.4456,79.1815 216.7191,80.4550 218.2923,80.4550 Z M 218.2923,59.3299 L 236.7954,59.3299 C 238.4435,59.3299 239.7170,58.0564 239.7170,56.4833 L 239.7170,46.9695 C 239.7170,45.3964 238.4435,44.0480 236.7954,44.0480 L 218.2923,44.0480 C 216.7191,44.0480 215.4456,45.3964 215.4456,46.9695 L 215.4456,56.4833 C 215.4456,58.0564 216.7191,59.3299 218.2923,59.3299 Z M 218.2923,38.2049 L 236.7954,38.2049 C 238.4435,38.2049 239.7170,36.9314 239.7170,35.3583 L 239.7170,25.8445 C 239.7170,24.2713 238.4435,22.9229 236.7954,22.9229 L 218.2923,22.9229 C 216.7191,22.9229 215.4456,24.2713 215.4456,25.8445 L 215.4456,35.3583 C 215.4456,36.9314 216.7191,38.2049 218.2923,38.2049 Z M 187.5036,122.7051 L 206.0068,122.7051 C 207.5799,122.7051 208.9283,121.4316 208.9283,119.8585 L 208.9283,110.3447 C 208.9283,108.7716 207.5799,107.4232 206.0068,107.4232 L 187.5036,107.4232 C 185.9305,107.4232 184.6570,108.7716 184.6570,110.3447 L 184.6570,119.8585 C 184.6570,121.4316 185.9305,122.7051 187.5036,122.7051 Z M 187.5036,101.5801 L 206.0068,101.5801 C 207.5799,101.5801 208.9283,100.3066 208.9283,98.7334 L 208.9283,89.2197 C 208.9283,87.6465 207.5799,86.2981 206.0068,86.2981 L 187.5036,86.2981 C 185.9305,86.2981 184.6570,87.6465 184.6570,89.2197 L 184.6570,98.7334 C 184.6570,100.3066 185.9305,101.5801 187.5036,101.5801 Z M 187.5036,80.4550 L 206.0068,80.4550 C 207.5799,80.4550 208.9283,79.1815 208.9283,77.6084 L 208.9283,68.0946 C 208.9283,66.5215 207.5799,65.1730 206.0068,65.1730 L 187.5036,65.1730 C 185.9305,65.1730 184.6570,66.5215 184.6570,68.0946 L 184.6570,77.6084 C 184.6570,79.1815 185.9305,80.4550 187.5036,80.4550 Z M 187.5036,59.3299 L 206.0068,59.3299 C 207.5799,59.3299 208.9283,58.0564 208.9283,56.4833 L 208.9283,46.9695 C 208.9283,45.3964 207.5799,44.0480 206.0068,44.0480 L 187.5036,44.0480 C 185.9305,44.0480 184.6570,45.3964 184.6570,46.9695 L 184.6570,56.4833 C 184.6570,58.0564 185.9305,59.3299 187.5036,59.3299 Z M 187.5036,38.2049 L 206.0068,38.2049 C 207.5799,38.2049 208.9283,36.9314 208.9283,35.3583 L 208.9283,25.8445 C 208.9283,24.2713 207.5799,22.9229 206.0068,22.9229 L 187.5036,22.9229 C 185.9305,22.9229 184.6570,24.2713 184.6570,25.8445 L 184.6570,35.3583 C 184.6570,36.9314 185.9305,38.2049 187.5036,38.2049 Z M 156.7150,122.7051 L 175.2181,122.7051 C 176.7913,122.7051 178.0647,121.4316 178.0647,119.8585 L 178.0647,110.3447 C 178.0647,108.7716 176.7913,107.4232 175.2181,107.4232 L 156.7150,107.4232 C 155.1418,107.4232 153.7934,108.7716 153.7934,110.3447 L 153.7934,119.8585 C 153.7934,121.4316 155.1418,122.7051 156.7150,122.7051 Z M 156.7150,101.5801 L 175.2181,101.5801 C 176.7913,101.5801 178.0647,100.3066 178.0647,98.7334 L 178.0647,89.2197 C 178.0647,87.6465 176.7913,86.2981 175.2181,86.2981 L 156.7150,86.2981 C 155.1418,86.2981 153.7934,87.6465 153.7934,89.2197 L 153.7934,98.7334 C 153.7934,100.3066 155.1418,101.5801 156.7150,101.5801 Z M 156.7150,80.4550 L 175.2181,80.4550 C 176.7913,80.4550 178.0647,79.1815 178.0647,77.6084 L 178.0647,68.0946 C 178.0647,66.5215 176.7913,65.1730 175.2181,65.1730 L 156.7150,65.1730 C 155.1418,65.1730 153.7934,66.5215 153.7934,68.0946 L 153.7934,77.6084 C 153.7934,79.1815 155.1418,80.4550 156.7150,80.4550 Z M 156.7150,59.3299 L 175.2181,59.3299 C 176.7913,59.3299 178.0647,58.0564 178.0647,56.4833 L 178.0647,46.9695 C 178.0647,45.3964 176.7913,44.0480 175.2181,44.0480 L 156.7150,44.0480 C 155.1418,44.0480 153.7934,45.3964 153.7934,46.9695 L 153.7934,56.4833 C 153.7934,58.0564 155.1418,59.3299 156.7150,59.3299 Z M 125.9263,122.7051 L 144.4295,122.7051 C 146.0026,122.7051 147.2761,121.4316 147.2761,119.8585 L 147.2761,110.3447 C 147.2761,108.7716 146.0026,107.4232 144.4295,107.4232 L 125.9263,107.4232 C 124.2783,107.4232 123.0048,108.7716 123.0048,110.3447 L 123.0048,119.8585 C 123.0048,121.4316 124.2783,122.7051 125.9263,122.7051 Z M 125.9263,101.5801 L 144.4295,101.5801 C 146.0026,101.5801 147.2761,100.3066 147.2761,98.7334 L 147.2761,89.2197 C 147.2761,87.6465 146.0026,86.2981 144.4295,86.2981 L 125.9263,86.2981 C 124.2783,86.2981 123.0048,87.6465 123.0048,89.2197 L 123.0048,98.7334 C 123.0048,100.3066 124.2783,101.5801 125.9263,101.5801 Z M 125.9263,80.4550 L 144.4295,80.4550 C 146.0026,80.4550 147.2761,79.1815 147.2761,77.6084 L 147.2761,68.0946 C 147.2761,66.5215 146.0026,65.1730 144.4295,65.1730 L 125.9263,65.1730 C 124.2783,65.1730 123.0048,66.5215 123.0048,68.0946 L 123.0048,77.6084 C 123.0048,79.1815 124.2783,80.4550 125.9263,80.4550 Z M 125.9263,59.3299 L 144.4295,59.3299 C 146.0026,59.3299 147.2761,58.0564 147.2761,56.4833 L 147.2761,46.9695 C 147.2761,45.3964 146.0026,44.0480 144.4295,44.0480 L 125.9263,44.0480 C 124.2783,44.0480 123.0048,45.3964 123.0048,46.9695 L 123.0048,56.4833 C 123.0048,58.0564 124.2783,59.3299 125.9263,59.3299 Z M 95.0628,122.7051 L 113.6408,122.7051 C 115.2140,122.7051 116.4875,121.4316 116.4875,119.8585 L 116.4875,110.3447 C 116.4875,108.7716 115.2140,107.4232 113.6408,107.4232 L 95.0628,107.4232 C 93.4896,107.4232 92.2161,108.7716 92.2161,110.3447 L 92.2161,119.8585 C 92.2161,121.4316 93.4896,122.7051 95.0628,122.7051 Z M 95.0628,101.5801 L 113.6408,101.5801 C 115.2140,101.5801 116.4875,100.3066 116.4875,98.7334 L 116.4875,89.2197 C 116.4875,87.6465 115.2140,86.2981 113.6408,86.2981 L 95.0628,86.2981 C 93.4896,86.2981 92.2161,87.6465 92.2161,89.2197 L 92.2161,98.7334 C 92.2161,100.3066 93.4896,101.5801 95.0628,101.5801 Z M 95.0628,80.4550 L 113.6408,80.4550 C 115.2140,80.4550 116.4875,79.1815 116.4875,77.6084 L 116.4875,68.0946 C 116.4875,66.5215 115.2140,65.1730 113.6408,65.1730 L 95.0628,65.1730 C 93.4896,65.1730 92.2161,66.5215 92.2161,68.0946 L 92.2161,77.6084 C 92.2161,79.1815 93.4896,80.4550 95.0628,80.4550 Z M 95.0628,59.3299 L 113.6408,59.3299 C 115.2140,59.3299 116.4875,58.0564 116.4875,56.4833 L 116.4875,46.9695 C 116.4875,45.3964 115.2140,44.0480 113.6408,44.0480 L 95.0628,44.0480 C 93.4896,44.0480 92.2161,45.3964 92.2161,46.9695 L 92.2161,56.4833 C 92.2161,58.0564 93.4896,59.3299 95.0628,59.3299 Z M 64.2741,122.7051 L 82.7773,122.7051 C 84.4253,122.7051 85.6988,121.4316 85.6988,119.8585 L 85.6988,110.3447 C 85.6988,108.7716 84.4253,107.4232 82.7773,107.4232 L 64.2741,107.4232 C 62.7010,107.4232 61.4275,108.7716 61.4275,110.3447 L 61.4275,119.8585 C 61.4275,121.4316 62.7010,122.7051 64.2741,122.7051 Z M 64.2741,101.5801 L 82.7773,101.5801 C 84.4253,101.5801 85.6988,100.3066 85.6988,98.7334 L 85.6988,89.2197 C 85.6988,87.6465 84.4253,86.2981 82.7773,86.2981 L 64.2741,86.2981 C 62.7010,86.2981 61.4275,87.6465 61.4275,89.2197 L 61.4275,98.7334 C 61.4275,100.3066 62.7010,101.5801 64.2741,101.5801 Z M 64.2741,80.4550 L 82.7773,80.4550 C 84.4253,80.4550 85.6988,79.1815 85.6988,77.6084 L 85.6988,68.0946 C 85.6988,66.5215 84.4253,65.1730 82.7773,65.1730 L 64.2741,65.1730 C 62.7010,65.1730 61.4275,66.5215 61.4275,68.0946 L 61.4275,77.6084 C 61.4275,79.1815 62.7010,80.4550 64.2741,80.4550 Z M 64.2741,59.3299 L 82.7773,59.3299 C 84.4253,59.3299 85.6988,58.0564 85.6988,56.4833 L 85.6988,46.9695 C 85.6988,45.3964 84.4253,44.0480 82.7773,44.0480 L 64.2741,44.0480 C 62.7010,44.0480 61.4275,45.3964 61.4275,46.9695 L 61.4275,56.4833 C 61.4275,58.0564 62.7010,59.3299 64.2741,59.3299 Z M 33.4855,122.7051 L 51.9886,122.7051 C 53.5618,122.7051 54.8353,121.4316 54.8353,119.8585 L 54.8353,110.3447 C 54.8353,108.7716 53.5618,107.4232 51.9886,107.4232 L 33.4855,107.4232 C 31.9123,107.4232 30.5639,108.7716 30.5639,110.3447 L 30.5639,119.8585 C 30.5639,121.4316 31.9123,122.7051 33.4855,122.7051 Z M 33.4855,101.5801 L 51.9886,101.5801 C 53.5618,101.5801 54.8353,100.3066 54.8353,98.7334 L 54.8353,89.2197 C 54.8353,87.6465 53.5618,86.2981 51.9886,86.2981 L 33.4855,86.2981 C 31.9123,86.2981 30.5639,87.6465 30.5639,89.2197 L 30.5639,98.7334 C 30.5639,100.3066 31.9123,101.5801 33.4855,101.5801 Z M 33.4855,80.4550 L 51.9886,80.4550 C 53.5618,80.4550 54.8353,79.1815 54.8353,77.6084 L 54.8353,68.0946 C 54.8353,66.5215 53.5618,65.1730 51.9886,65.1730 L 33.4855,65.1730 C 31.9123,65.1730 30.5639,66.5215 30.5639,68.0946 L 30.5639,77.6084 C 30.5639,79.1815 31.9123,80.4550 33.4855,80.4550 Z M 33.4855,59.3299 L 51.9886,59.3299 C 53.5618,59.3299 54.8353,58.0564 54.8353,56.4833 L 54.8353,46.9695 C 54.8353,45.3964 53.5618,44.0480 51.9886,44.0480 L 33.4855,44.0480 C 31.9123,44.0480 30.5639,45.3964 30.5639,46.9695 L 30.5639,56.4833 C 30.5639,58.0564 31.9123,59.3299 33.4855,59.3299 Z " fill="#000000" stroke="none"/>
        </g>
        <g transform="matrix(1.0000 0.0000 0.0000 1.0000 0.0000 0.0000)">
</g>
        <g transform="matrix(0.0625 0.0000 0.0000 0.0625 0.0000 0.0000)">
          <path d="M 433.9626,164.9552 L 452.4657,164.9552 C 454.0389,164.9552 455.3124,163.6817 455.3124,162.1086 L 455.3124,152.5948 C 455.3124,151.0217 454.0389,149.6733 452.4657,149.6733 L 433.9626,149.6733 C 432.3895,149.6733 431.0410,151.0217 431.0410,152.5948 L 431.0410,162.1086 C 431.0410,163.6817 432.3895,164.9552 433.9626,164.9552 Z M 433.9626,143.8302 L 452.4657,143.8302 C 454.0389,143.8302 455.3124,142.5567 455.3124,140.9835 L 455.3124,131.4698 C 455.3124,129.8966 454.0389,128.5482 452.4657,128.5482 L 433.9626,128.5482 C 432.3895,128.5482 431.0410,129.8966 431.0410,131.4698 L 431.0410,140.9835 C 431.0410,142.5567 432.3895,143.8302 433.9626,143.8302 Z M 433.9626,122.7051 L 452.4657,122.7051 C 454.0389,122.7051 455.3124,121.4316 455.3124,119.8585 L 455.3124,110.3447 C 455.3124,108.7716 454.0389,107.4232 452.4657,107.4232 L 433.9626,107.4232 C 432.3895,107.4232 431.0410,108.7716 431.0410,110.3447 L 431.0410,119.8585 C 431.0410,121.4316 432.3895,122.7051 433.9626,122.7051 Z M 433.9626,101.5801 L 452.4657,101.5801 C 454.0389,101.5801 455.3124,100.3066 455.3124,98.7334 L 455.3124,89.2197 C 455.3124,87.6465 454.0389,86.2981 452.4657,86.2981 L 433.9626,86.2981 C 432.3895,86.2981 431.0410,87.6465 431.0410,89.2197 L 431.0410,98.7334 C 431.0410,100.3066 432.3895,101.5801 433.9626,101.5801 Z M 433.9626,80.4550 L 452.4657,80.4550 C 454.0389,80.4550 455.3124,79.1815 455.3124,77.6084 L 455.3124,68.0946 C 455.3124,66.5215 454.0389,65.1730 452.4657,65.1730 L 433.9626,65.1730 C 432.3895,65.1730 431.0410,66.5215 431.0410,68.0946 L 431.0410,77.6084 C 431.0410,79.1815 432.3895,80.4550 433.9626,80.4550 Z M 433.9626,59.3299 L 452.4657,59.3299 C 454.0389,59.3299 455.3124,58.0564 455.3124,56.4833 L 455.3124,46.9695 C 455.3124,45.3964 454.0389,44.0480 452.4657,44.0480 L 433.9626,44.0480 C 432.3895,44.0480 431.0410,45.3964 431.0410,46.9695 L 431.0410,56.4833 C 431.0410,58.0564 432.3895,59.3299 433.9626,59.3299 Z M 433.9626,38.2049 L 452.4657,38.2049 C 454.0389,38.2049 455.3124,36.9314 455.3124,35.3583 L 455.3124,25.8445 C 455.3124,24.2713 454.0389,22.9229 452.4657,22.9229 L 433.9626,22.9229 C 432.3895,22.9229 431.0410,24.2713 431.0410,25.8445 L 431.0410,35.3583 C 431.0410,36.9314 432.3895,38.2049 433.9626,38.2049 Z M 403.1740,164.9552 L 421.6771,164.9552 C 423.2502,164.9552 424.5237,163.6817 424.5237,162.1086 L 424.5237,152.5948 C 424.5237,151.0217 423.2502,149.6733 421.6771,149.6733 L 403.1740,149.6733 C 401.5259,149.6733 400.2524,151.0217 400.2524,152.5948 L 400.2524,162.1086 C 400.2524,163.6817 401.5259,164.9552 403.1740,164.9552 Z M 403.1740,143.8302 L 421.6771,143.8302 C 423.2502,143.8302 424.5237,142.5567 424.5237,140.9835 L 424.5237,131.4698 C 424.5237,129.8966 423.2502,128.5482 421.6771,128.5482 L 403.1740,128.5482 C 401.5259,128.5482 400.2524,129.8966 400.2524,131.4698 L 400.2524,140.9835 C 400.2524,142.5567 401.5259,143.8302 403.1740,143.8302 Z M 403.1740,122.7051 L 421.6771,122.7051 C 423.2502,122.7051 424.5237,121.4316 424.5237,119.8585 L 424.5237,110.3447 C 424.5237,108.7716 423.2502,107.4232 421.6771,107.4232 L 403.1740,107.4232 C 401.5259,107.4232 400.2524,108.7716 400.2524,110.3447 L 400.2524,119.8585 C 400.2524,121.4316 401.5259,122.7051 403.1740,122.7051 Z M 403.1740,101.5801 L 421.6771,101.5801 C 423.2502,101.5801 424.5237,100.3066 424.5237,98.7334 L 424.5237,89.2197 C 424.5237,87.6465 423.2502,86.2981 421.6771,86.2981 L 403.1740,86.2981 C 401.5259,86.2981 400.2524,87.6465 400.2524,89.2197 L 400.2524,98.7334 C 400.2524,100.3066 401.5259,101.5801 403.1740,101.5801 Z M 403.1740,80.4550 L 421.6771,80.4550 C 423.2502,80.4550 424.5237,79.1815 424.5237,77.6084 L 424.5237,68.0946 C 424.5237,66.5215 423.2502,65.1730 421.6771,65.1730 L 403.1740,65.1730 C 401.5259,65.1730 400.2524,66.5215 400.2524,68.0946 L 400.2524,77.6084 C 400.2524,79.1815 401.5259,80.4550 403.1740,80.4550 Z M 403.1740,59.3299 L 421.6771,59.3299 C 423.2502,59.3299 424.5237,58.0564 424.5237,56.4833 L 424.5237,46.9695 C 424.5237,45.3964 423.2502,44.0480 421.6771,44.0480 L 403.1740,44.0480 C 401.5259,44.0480 400.2524,45.3964 400.2524,46.9695 L 400.2524,56.4833 C 400.2524,58.0564 401.5259,59.3299 403.1740,59.3299 Z M 403.1740,38.2049 L 421.6771,38.2049 C 423.2502,38.2049 424.5237,36.9314 424.5237,35.3583 L 424.5237,25.8445 C 424.5237,24.2713 423.2502,22.9229 421.6771,22.9229 L 403.1740,22.9229 C 401.5259,22.9229 400.2524,24.2713 400.2524,25.8445 L 400.2524,35.3583 C 400.2524,36.9314 401.5259,38.2049 403.1740,38.2049 Z M 372.3104,164.9552 L 390.8885,164.9552 C 392.4616,164.9552 393.7351,163.6817 393.7351,162.1086 L 393.7351,152.5948 C 393.7351,151.0217 392.4616,149.6733 390.8885,149.6733 L 372.3104,149.6733 C 370.7373,149.6733 369.4638,151.0217 369.4638,152.5948 L 369.4638,162.1086 C 369.4638,163.6817 370.7373,164.9552 372.3104,164.9552 Z M 372.3104,143.8302 L 390.8885,143.8302 C 392.4616,143.8302 393.7351,142.5567 393.7351,140.9835 L 393.7351,131.4698 C 393.7351,129.8966 392.4616,128.5482 390.8885,128.5482 L 372.3104,128.5482 C 370.7373,128.5482 369.4638,129.8966 369.4638,131.4698 L 369.4638,140.9835 C 369.4638,142.5567 370.7373,143.8302 372.3104,143.8302 Z M 372.3104,122.7051 L 390.8885,122.7051 C 392.4616,122.7051 393.7351,121.4316 393.7351,119.8585 L 393.7351,110.3447 C 393.7351,108.7716 392.4616,107.4232 390.8885,107.4232 L 372.3104,107.4232 C 370.7373,107.4232 369.4638,108.7716 369.4638,110.3447 L 369.4638,119.8585 C 369.4638,121.4316 370.7373,122.7051 372.3104,122.7051 Z M 372.3104,101.5801 L 390.8885,101.5801 C 392.4616,101.5801 393.7351,100.3066 393.7351,98.7334 L 393.7351,89.2197 C 393.7351,87.6465 392.4616,86.2981 390.8885,86.2981 L 372.3104,86.2981 C 370.7373,86.2981 369.4638,87.6465 369.4638,89.2197 L 369.4638,98.7334 C 369.4638,100.3066 370.7373,101.5801 372.3104,101.5801 Z M 372.3104,80.4550 L 390.8885,80.4550 C 392.4616,80.4550 393.7351,79.1815 393.7351,77.6084 L 393.7351,68.0946 C 393.7351,66.5215 392.4616,65.1730 390.8885,65.1730 L 372.3104,65.1730 C 370.7373,65.1730 369.4638,66.5215 369.4638,68.0946 L 369.4638,77.6084 C 369.4638,79.1815 370.7373,80.4550 372.3104,80.4550 Z M 372.3104,59.3299 L 390.8885,59.3299 C 392.4616,59.3299 393.7351,58.0564 393.7351,56.4833 L 393.7351,46.9695 C 393.7351,45.3964 392.4616,44.0480 390.8885,44.0480 L 372.3104,44.0480 C 370.7373,44.0480 369.4638,45.3964 369.4638,46.9695 L 369.4638,56.4833 C 369.4638,58.0564 370.7373,59.3299 372.3104,59.3299 Z M 372.3104,38.2049 L 390.8885,38.2049 C 392.4616,38.2049 393.7351,36.9314 393.7351,35.3583 L 393.7351,25.8445 C 393.7351,24.2713 392.4616,22.9229 390.8885,22.9229 L 372.3104,22.9229 C 370.7373,22.9229 369.4638,24.2713 369.4638,25.8445 L 369.4638,35.3583 C 369.4638,36.9314 370.7373,38.2049 372.3104,38.2049 Z M 341.5217,164.9552 L 360.0249,164.9552 C 361.6730,164.9552 362.9464,163.6817 362.9464,162.1086 L 362.9464,152.5948 C 362.9464,151.0217 361.6730,149.6733 360.0249,149.6733 L 341.5217,149.6733 C 339.9486,149.6733 338.6751,151.0217 338.6751,152.5948 L 338.6751,162.1086 C 338.6751,163.6817 339.9486,164.9552 341.5217,164.9552 Z M 341.5217,143.8302 L 360.0249,143.8302 C 361.6730,143.8302 362.9464,142.5567 362.9464,140.9835 L 362.9464,131.4698 C 362.9464,129.8966 361.6730,128.5482 360.0249,128.5482 L 341.5217,128.5482 C 339.9486,128.5482 338.6751,129.8966 338.6751,131.4698 L 338.6751,140.9835 C 338.6751,142.5567 339.9486,143.8302 341.5217,143.8302 Z M 341.5217,122.7051 L 360.0249,122.7051 C 361.6730,122.7051 362.9464,121.4316 362.9464,119.8585 L 362.9464,110.3447 C 362.9464,108.7716 361.6730,107.4232 360.0249,107.4232 L 341.5217,107.4232 C 339.9486,107.4232 338.6751,108.7716 338.6751,110.3447 L 338.6751,119.8585 C 338.6751,121.4316 339.9486,122.7051 341.5217,122.7051 Z M 341.5217,101.5801 L 360.0249,101.5801 C 361.6730,101.5801 362.9464,100.3066 362.9464,98.7334 L 362.9464,89.2197 C 362.9464,87.6465 361.6730,86.2981 360.0249,86.2981 L 341.5217,86.2981 C 339.9486,86.2981 338.6751,87.6465 338.6751,89.2197 L 338.6751,98.7334 C 338.6751,100.3066 339.9486,101.5801 341.5217,101.5801 Z M 341.5217,80.4550 L 360.0249,80.4550 C 361.6730,80.4550 362.9464,79.1815 362.9464,77.6084 L 362.9464,68.0946 C 362.9464,66.5215 361.6730,65.1730 360.0249,65.1730 L 341.5217,65.1730 C 339.9486,65.1730 338.6751,66.5215 338.6751,68.0946 L 338.6751,77.6084 C 338.6751,79.1815 339.9486,80.4550 341.5217,80.4550 Z M 341.5217,59.3299 L 360.0249,59.3299 C 361.6730,59.3299 362.9464,58.0564 362.9464,56.4833 L 362.9464,46.9695 C 362.9464,45.3964 361.6730,44.0480 360.0249,44.0480 L 341.5217,44.0480 C 339.9486,44.0480 338.6751,45.3964 338.6751,46.9695 L 338.6751,56.4833 C 338.6751,58.0564 339.9486,59.3299 341.5217,59.3299 Z M 341.5217,38.2049 L 360.0249,38.2049 C 361.6730,38.2049 362.9464,36.9314 362.9464,35.3583 L 362.9464,25.8445 C 362.9464,24.2713 361.6730,22.9229 360.0249,22.9229 L 341.5217,22.9229 C 339.9486,22.9229 338.6751,24.2713 338.6751,25.8445 L 338.6751,35.3583 C 338.6751,36.9314 339.9486,38.2049 341.5217,38.2049 Z M 310.7331,164.9552 L 329.2363,164.9552 C 330.8094,164.9552 332.1578,163.6817 332.1578,162.1086 L 332.1578,152.5948 C 332.1578,151.0217 330.8094,149.6733 329.2363,149.6733 L 310.7331,149.6733 C 309.1600,149.6733 307.8865,151.0217 307.8865,152.5948 L 307.8865,162.1086 C 307.8865,163.6817 309.1600,164.9552 310.7331,164.9552 Z M 310.7331,143.8302 L 329.2363,143.8302 C 330.8094,143.8302 332.1578,142.5567 332.1578,140.9835 L 332.1578,131.4698 C 332.1578,129.8966 330.8094,128.5482 329.2363,128.5482 L 310.7331,128.5482 C 309.1600,128.5482 307.8865,129.8966 307.8865,131.4698 L 307.8865,140.9835 C 307.8865,142.5567 309.1600,143.8302 310.7331,143.8302 Z M 310.7331,122.7051 L 329.2363,122.7051 C 330.8094,122.7051 332.1578,121.4316 332.1578,119.8585 L 332.1578,110.3447 C 332.1578,108.7716 330.8094,107.4232 329.2363,107.4232 L 310.7331,107.4232 C 309.1600,107.4232 307.8865,108.7716 307.8865,110.3447 L 307.8865,119.8585 C 307.8865,121.4316 309.1600,122.7051 310.7331,122.7051 Z M 310.7331,101.5801 L 329.2363,101.5801 C 330.8094,101.5801 332.1578,100.3066 332.1578,98.7334 L 332.1578,89.2197 C 332.1578,87.6465 330.8094,86.2981 329.2363,86.2981 L 310.7331,86.2981 C 309.1600,86.2981 307.8865,87.6465 307.8865,89.2197 L 307.8865,98.7334 C 307.8865,100.3066 309.1600,101.5801 310.7331,101.5801 Z M 310.7331,80.4550 L 329.2363,80.4550 C 330.8094,80.4550 332.1578,79.1815 332.1578,77.6084 L 332.1578,68.0946 C 332.1578,66.5215 330.8094,65.1730 329.2363,65.1730 L 310.7331,65.1730 C 309.1600,65.1730 307.8865,66.5215 307.8865,68.0946 L 307.8865,77.6084 C 307.8865,79.1815 309.1600,80.4550 310.7331,80.4550 Z M 310.7331,59.3299 L 329.2363,59.3299 C 330.8094,59.3299 332.1578,58.0564 332.1578,56.4833 L 332.1578,46.9695 C 332.1578,45.3964 330.8094,44.0480 329.2363,44.0480 L 310.7331,44.0480 C 309.1600,44.0480 307.8865,45.3964 307.8865,46.9695 L 307.8865,56.4833 C 307.8865,58.0564 309.1600,59.3299 310.7331,59.3299 Z M 310.7331,38.2049 L 329.2363,38.2049 C 330.8094,38.2049 332.1578,36.9314 332.1578,35.3583 L 332.1578,25.8445 C 332.1578,24.2713 330.8094,22.9229 329.2363,22.9229 L 310.7331,22.9229 C 309.1600,22.9229 307.8865,24.2713 307.8865,25.8445 L 307.8865,35.3583 C 307.8865,36.9314 309.1600,38.2049 310.7331,38.2049 Z M 279.9445,143.8302 L 298.4476,143.8302 C 300.0207,143.8302 301.2942,142.5567 301.2942,140.9835 L 301.2942,131.4698 C 301.2942,129.8966 300.0207,128.5482 298.4476,128.5482 L 279.9445,128.5482 C 278.3713,128.5482 277.0229,129.8966 277.0229,131.4698 L 277.0229,140.9835 C 277.0229,142.5567 278.3713,143.8302 279.9445,143.8302 Z M 279.9445,122.7051 L 298.4476,122.7051 C 300.0207,122.7051 301.2942,121.4316 301.2942,119.8585 L 301.2942,110.3447 C 301.2942,108.7716 300.0207,107.4232 298.4476,107.4232 L 279.9445,107.4232 C 278.3713,107.4232 277.0229,108.7716 277.0229,110.3447 L 277.0229,119.8585 C 277.0229,121.4316 278.3713,122.7051 279.9445,122.7051 Z M 279.9445,101.5801 L 298.4476,101.5801 C 300.0207,101.5801 301.2942,100.3066 301.2942,98.7334 L 301.2942,89.2197 C 301.2942,87.6465 300.0207,86.2981 298.4476,86.2981 L 279.9445,86.2981 C 278.3713,86.2981 277.0229,87.6465 277.0229,89.2197 L 277.0229,98.7334 C 277.0229,100.3066 278.3713,101.5801 279.9445,101.5801 Z M 279.9445,80.4550 L 298.4476,80.4550 C 300.0207,80.4550 301.2942,79.1815 301.2942,77.6084 L 301.2942,68.0946 C 301.2942,66.5215 300.0207,65.1730 298.4476,65.1730 L 279.9445,65.1730 C 278.3713,65.1730 277.0229,66.5215 277.0229,68.0946 L 277.0229,77.6084 C 277.0229,79.1815 278.3713,80.4550 279.9445,80.4550 Z M 279.9445,59.3299 L 298.4476,59.3299 C 300.0207,59.3299 301.2942,58.0564 301.2942,56.4833 L 301.2942,46.9695 C 301.2942,45.3964 300.0207,44.0480 298.4476,44.0480 L 279.9445,44.0480 C 278.3713,44.0480 277.0229,45.3964 277.0229,46.9695 L 277.0229,56.4833 C 277.0229,58.0564 278.3713,59.3299 279.9445,59.3299 Z M 279.9445,38.2049 L 298.4476,38.2049 C 300.0207,38.2049 301.2942,36.9314 301.2942,35.3583 L 301.2942,25.8445 C 301.2942,24.2713 300.0207,22.9229 298.4476,22.9229 L 279.9445,22.9229 C 278.3713,22.9229 277.0229,24.2713 277.0229,25.8445 L 277.0229,35.3583 C 277.0229,36.9314 278.3713,38.2049 279.9445,38.2049 Z M 249.0809,143.8302 L 267.6590,143.8302 C 269.2321,143.8302 270.5056,142.5567 270.5056,140.9835 L 270.5056,131.4698 C 270.5056,129.8966 269.2321,128.5482 267.6590,128.5482 L 249.0809,128.5482 C 247.5078,128.5482 246.2343,129.8966 246.2343,131.4698 L 246.2343,140.9835 C 246.2343,142.5567 247.5078,143.8302 249.0809,143.8302 Z M 249.0809,122.7051 L 267.6590,122.7051 C 269.2321,122.7051 270.5056,121.4316 270.5056,119.8585 L 270.5056,110.3447 C 270.5056,108.7716 269.2321,107.4232 267.6590,107.4232 L 249.0809,107.4232 C 247.5078,107.4232 246.2343,108.7716 246.2343,110.3447 L 246.2343,119.8585 C 246.2343,121.4316 247.5078,122.7051 249.0809,122.7051 Z M 249.0809,101.5801 L 267.6590,101.5801 C 269.2321,101.5801 270.5056,100.3066 270.5056,98.7334 L 270.5056,89.2197 C 270.5056,87.6465 269.2321,86.2981 267.6590,86.2981 L 249.0809,86.2981 C 247.5078,86.2981 246.2343,87.6465 246.2343,89.2197 L 246.2343,98.7334 C 246.2343,100.3066 247.5078,101.5801 249.0809,101.5801 Z M 249.0809,80.4550 L 267.6590,80.4550 C 269.2321,80.4550 270.5056,79.1815 270.5056,77.6084 L 270.5056,68.0946 C 270.5056,66.5215 269.2321,65.1730 267.6590,65.1730 L 249.0809,65.1730 C 247.5078,65.1730 246.2343,66.5215 246.2343,68.0946 L 246.2343,77.6084 C 246.2343,79.1815 247.5078,80.4550 249.0809,80.4550 Z M 249.0809,59.3299 L 267.6590,59.3299 C 269.2321,59.3299 270.5056,58.0564 270.5056,56.4833 L 270.5056,46.9695 C 270.5056,45.3964 269.2321,44.0480 267.6590,44.0480 L 249.0809,44.0480 C 247.5078,44.0480 246.2343,45.3964 246.2343,46.9695 L 246.2343,56.4833 C 246.2343,58.0564 247.5078,59.3299 249.0809,59.3299 Z M 249.0809,38.2049 L 267.6590,38.2049 C 269.2321,38.2049 270.5056,36.9314 270.5056,35.3583 L 270.5056,25.8445 C 270.5056,24.2713 269.2321,22.9229 267.6590,22.9229 L 249.0809,22.9229 C 247.5078,22.9229 246.2343,24.2713 246.2343,25.8445 L 246.2343,35.3583 C 246.2343,36.9314 247.5078,38.2049 249.0809,38.2049 Z M 218.2923,143.8302 L 236.7954,143.8302 C 238.4435,143.8302 239.7170,142.5567 239.7170,140.9835 L 239.7170,131.4698 C 239.7170,129.8966 238.4435,128.5482 236.7954,128.5482 L 218.2923,128.5482 C 216.7191,128.5482 215.4456,129.8966 215.4456,131.4698 L 215.4456,140.9835 C 215.4456,142.5567 216.7191,143.8302 218.2923,143.8302 Z M 218.2923,122.7051 L 236.7954,122.7051 C 238.4435,122.7051 239.7170,121.4316 239.7170,119.8585 L 239.7170,110.3447 C 239.7170,108.7716 238.4435,107.4232 236.7954,107.4232 L 218.2923,107.4232 C 216.7191,107.4232 215.4456,108.7716 215.4456,110.3447 L 215.4456,119.8585 C 215.4456,121.4316 216.7191,122.7051 218.2923,122.7051 Z M 218.2923,101.5801 L 236.7954,101.5801 C 238.4435,101.5801 239.7170,100.3066 239.7170,98.7334 L 239.7170,89.2197 C 239.7170,87.6465 238.4435,86.2981 236.7954,86.2981 L 218.2923,86.2981 C 216.7191,86.2981 215.4456,87.6465 215.4456,89.2197 L 215.4456,98.7334 C 215.4456,100.3066 216.7191,101.5801 218.2923,101.5801 Z M 218.2923,80.4550 L 236.7954,80.4550 C 238.4435,80.4550 239.7170,79.1815 239.7170,77.6084 L 239.7170,68.0946 C 239.7170,66.5215 238.4435,65.1730 236.7954,65.1730 L 218.2923,65.1730 C 216.7191,65.1730 215.4456,66.5215 215.4456,68.0946 L 215.4456,77.6084 C 215.4456,79.1815 216.7191,80.4550 218.2923,80.4550 Z M 218.2923,59.3299 L 236.7954,59.3299 C 238.4435,59.3299 239.7170,58.0564 239.7170,56.4833 L 239.7170,46.9695 C 239.7170,45.3964 238.4435,44.0480 236.7954,44.0480 L 218.2923,44.0480 C 216.7191,44.0480 215.4456,45.3964 215.4456,46.9695 L 215.4456,56.4833 C 215.4456,58.0564 216.7191,59.3299 218.2923,59.3299 Z M 218.2923,38.2049 L 236.7954,38.2049 C 238.4435,38.2049 239.7170,36.9314 239.7170,35.3583 L 239.7170,25.8445 C 239.7170,24.2713 238.4435,22.9229 236.7954,22.9229 L 218.2923,22.9229 C 216.7191,22.9229 215.4456,24.2713 215.4456,25.8445 L 215.4456,35.3583 C 215.4456,36.9314 216.7191,38.2049 218.2923,38.2049 Z M 187.5036,122.7051 L 206.0068,122.7051 C 207.5799,122.7051 208.9283,121.4316 208.9283,119.8585 L 208.9283,110.3447 C 208.9283,108.7716 207.5799,107.4232 206.0068,107.4232 L 187.5036,107.4232 C 185.9305,107.4232 184.6570,108.7716 184.6570,110.3447 L 184.6570,119.8585 C 184.6570,121.4316 185.9305,122.7051 187.5036,122.7051 Z M 187.5036,101.5801 L 206.0068,101.5801 C 207.5799,101.5801 208.9283,100.3066 208.9283,98.7334 L 208.9283,89.2197 C 208.9283,87.6465 207.5799,86.2981 206.0068,86.2981 L 187.5036,86.2981 C 185.9305,86.2981 184.6570,87.6465 184.6570,89.2197 L 184.6570,98.7334 C 184.6570,100.3066 185.9305,101.5801 187.5036,101.5801 Z M 187.5036,80.4550 L 206.0068,80.4550 C 207.5799,80.4550 208.9283,79.1815 208.9283,77.6084 L 208.9283,68.0946 C 208.9283,66.5215 207.5799,65.1730 206.0068,65.1730 L 187.5036,65.1730 C 185.9305,65.1730 184.6570,66.5215 184.6570,68.0946 L 184.6570,77.6084 C 184.6570,79.1815 185.9305,80.4550 187.5036,80.4550 Z M 187.5036,59.3299 L 206.0068,59.3299 C 207.5799,59.3299 208.9283,58.0564 208.9283,56.4833 L 208.9283,46.9695 C 208.9283,45.3964 207.5799,44.0480 206.0068,44.0480 L 187.5036,44.0480 C 185.9305,44.0480 184.6570,45.3964 184.6570,46.9695 L 184.6570,56.4833 C 184.6570,58.0564 185.9305,59.3299 187.5036,59.3299 Z M 187.5036,38.2049 L 206.0068,38.2049 C 207.5799,38.2049 208.9283,36.9314 208.9283,35.3583 L 208.9283,25.8445 C 208.9283,24.2713 207.5799,22.9229 206.0068,22.9229 L 187.5036,22.9229 C 185.9305,22.9229 184.6570,24.2713 184.6570,25.8445 L 184.6570,35.3583 C 184.6570,36.9314 185.9305,38.2049 187.5036,38.2049 Z M 156.7150,122.7051 L 175.2181,122.7051 C 176.7913,122.7051 178.0647,121.4316 178.0647,119.8585 L 178.0647,110.3447 C 178.0647,108.7716 176.7913,107.4232 175.2181,107.4232 L 156.7150,107.4232 C 155.1418,107.4232 153.7934,108.7716 153.7934,110.3447 L 153.7934,119.8585 C 153.7934,121.4316 155.1418,122.7051 156.7150,122.7051 Z M 156.7150,101.5801 L 175.2181,101.5801 C 176.7913,101.5801 178.0647,100.3066 178.0647,98.7334 L 178.0647,89.2197 C 178.0647,87.6465 176.7913,86.2981 175.2181,86.2981 L 156.7150,86.2981 C 155.1418,86.2981 153.7934,87.6465 153.7934,89.2197 L 153.7934,98.7334 C 153.7934,100.3066 155.1418,101.5801 156.7150,101.5801 Z M 156.7150,80.4550 L 175.2181,80.4550 C 176.7913,80.4550 178.0647,79.1815 178.0647,77.6084 L 178.0647,68.0946 C 178.0647,66.5215 176.7913,65.1730 175.2181,65.1730 L 156.7150,65.1730 C 155.1418,65.1730 153.7934,66.5215 153.7934,68.0946 L 153.7934,77.6084 C 153.7934,79.1815 155.1418,80.4550 156.7150,80.4550 Z M 156.7150,59.3299 L 175.2181,59.3299 C 176.7913,59.3299 178.0647,58.0564 178.0647,56.4833 L 178.0647,46.9695 C 178.0647,45.3964 176.7913,44.0480 175.2181,44.0480 L 156.7150,44.0480 C 155.1418,44.0480 153.7934,45.3964 153.7934,46.9695 L 153.7934,56.4833 C 153.7934,58.0564 155.1418,59.3299 156.7150,59.3299 Z M 125.9263,122.7051 L 144.4295,122.7051 C 146.0026,122.7051 147.2761,121.4316 147.2761,119.8585 L 147.2761,110.3447 C 147.2761,108.7716 146.0026,107.4232 144.4295,107.4232 L 125.9263,107.4232 C 124.2783,107.4232 123.0048,108.7716 123.0048,110.3447 L 123.0048,119.8585 C 123.0048,121.4316 124.2783,122.7051 125.9263,122.7051 Z M 125.9263,101.5801 L 144.4295,101.5801 C 146.0026,101.5801 147.2761,100.3066 147.2761,98.7334 L 147.2761,89.2197 C 147.2761,87.6465 146.0026,86.2981 144.4295,86.2981 L 125.9263,86.2981 C 124.2783,86.2981 123.0048,87.6465 123.0048,89.2197 L 123.0048,98.7334 C 123.0048,100.3066 124.2783,101.5801 125.9263,101.5801 Z M 125.9263,80.4550 L 144.4295,80.4550 C 146.0026,80.4550 147.2761,79.1815 147.2761,77.6084 L 147.2761,68.0946 C 147.2761,66.5215 146.0026,65.1730 144.4295,65.1730 L 125.9263,65.1730 C 124.2783,65.1730 123.0048,66.5215 123.0048,68.0946 L 123.0048,77.6084 C 123.0048,79.1815 124.2783,80.4550 125.9263,80.4550 Z M 125.9263,59.3299 L 144.4295,59.3299 C 146.0026,59.3299 147.2761,58.0564 147.2761,56.4833 L 147.2761,46.9695 C 147.2761,45.3964 146.0026,44.0480 144.4295,44.0480 L 125.9263,44.0480 C 124.2783,44.0480 123.0048,45.3964 123.0048,46.9695 L 123.0048,56.4833 C 123.0048,58.0564 124.2783,59.3299 125.9263,59.3299 Z M 95.0628,122.7051 L 113.6408,122.7051 C 115.2140,122.7051 116.4875,121.4316 116.4875,119.8585 L 116.4875,110.3447 C 116.4875,108.7716 115.2140,107.4232 113.6408,107.4232 L 95.0628,107.4232 C 93.4896,107.4232 92.2161,108.7716 92.2161,110.3447 L 92.2161,119.8585 C 92.2161,121.4316 93.4896,122.7051 95.0628,122.7051 Z M 95.0628,101.5801 L 113.6408,101.5801 C 115.2140,101.5801 116.4875,100.3066 116.4875,98.7334 L 116.4875,89.2197 C 116.4875,87.6465 115.2140,86.2981 113.6408,86.2981 L 95.0628,86.2981 C 93.4896,86.2981 92.2161,87.6465 92.2161,89.2197 L 92.2161,98.7334 C 92.2161,100.3066 93.4896,101.5801 95.0628,101.5801 Z M 95.0628,80.4550 L 113.6408,80.4550 C 115.2140,80.4550 116.4875,79.1815 116.4875,77.6084 L 116.4875,68.0946 C 116.4875,66.5215 115.2140,65.1730 113.6408,65.1730 L 95.0628,65.1730 C 93.4896,65.1730 92.2161,66.5215 92.2161,68.0946 L 92.2161,77.6084 C 92.2161,79.1815 93.4896,80.4550 95.0628,80.4550 Z M 95.0628,59.3299 L 113.6408,59.3299 C 115.2140,59.3299 116.4875,58.0564 116.4875,56.4833 L 116.4875,46.9695 C 116.4875,45.3964 115.2140,44.0480 113.6408,44.0480 L 95.0628,44.0480 C 93.4896,44.0480 92.2161,45.3964 92.2161,46.9695 L 92.2161,56.4833 C 92.2161,58.0564 93.4896,59.3299 95.0628,59.3299 Z M 64.2741,122.7051 L 82.7773,122.7051 C 84.4253,122.7051 85.6988,121.4316 85.6988,119.8585 L 85.6988,110.3447 C 85.6988,108.7716 84.4253,107.4232 82.7773,107.4232 L 64.2741,107.4232 C 62.7010,107.4232 61.4275,108.7716 61.4275,110.3447 L 61.4275,119.8585 C 61.4275,121.4316 62.7010,122.7051 64.2741,122.7051 Z M 64.2741,101.5801 L 82.7773,101.5801 C 84.4253,101.5801 85.6988,100.3066 85.6988,98.7334 L 85.6988,89.2197 C 85.6988,87.6465 84.4253,86.2981 82.7773,86.2981 L 64.2741,86.2981 C 62.7010,86.2981 61.4275,87.6465 61.4275,89.2197 L 61.4275,98.7334 C 61.4275,100.3066 62.7010,101.5801 64.2741,101.5801 Z M 64.2741,80.4550 L 82.7773,80.4550 C 84.4253,80.4550 85.6988,79.1815 85.6988,77.6084 L 85.6988,68.0946 C 85.6988,66.5215 84.4253,65.1730 82.7773,65.1730 L 64.2741,65.1730 C 62.7010,65.1730 61.4275,66.5215 61.4275,68.0946 L 61.4275,77.6084 C 61.4275,79.1815 62.7010,80.4550 64.2741,80.4550 Z M 64.2741,59.3299 L 82.7773,59.3299 C 84.4253,59.3299 85.6988,58.0564 85.6988,56.4833 L 85.6988,46.9695 C 85.6988,45.3964 84.4253,44.0480 82.7773,44.0480 L 64.2741,44.0480 C 62.7010,44.0480 61.4275,45.3964 61.4275,46.9695 L 61.4275,56.4833 C 61.4275,58.0564 62.7010,59.3299 64.2741,59.3299 Z M 33.4855,122.7051 L 51.9886,122.7051 C 53.5618,122.7051 54.8353,121.4316 54.8353,119.8585 L 54.8353,110.3447 C 54.8353,108.7716 53.5618,107.4232 51.9886,107.4232 L 33.4855,107.4232 C 31.9123,107.4232 30.5639,108.7716 30.5639,110.3447 L 30.5639,119.8585 C 30.5639,121.4316 31.9123,122.7051 33.4855,122.7051 Z M 33.4855,101.5801 L 51.9886,101.5801 C 53.5618,101.5801 54.8353,100.3066 54.8353,98.7334 L 54.8353,89.2197 C 54.8353,87.6465 53.5618,86.2981 51.9886,86.2981 L 33.4855,86.2981 C 31.9123,86.2981 30.5639,87.6465 30.5639,89.2197 L 30.5639,98.7334 C 30.5639,100.3066 31.9123,101.5801 33.4855,101.5801 Z M 33.4855,80.4550 L 51.9886,80.4550 C 53.5618,80.4550 54.8353,79.1815 54.8353,77.6084 L 54.8353,68.0946 C 54.8353,66.5215 53.5618,65.1730 51.9886,65.1730 L 33.4855,65.1730 C 31.9123,65.1730 30.5639,66.5215 30.5639,68.0946 L 30.5639,77.6084 C 30.5639,79.1815 31.9123,80.4550 33.4855,80.4550 Z M 33.4855,59.3299 L 51.9886,59.3299 C 53.5618,59.3299 54.8353,58.0564 54.8353,56.4833 L 54.8353,46.9695 C 54.8353,45.3964 53.5618,44.0480 51.9886,44.0480 L 33.4855,44.0480 C 31.9123,44.0480 30.5639,45.3964 30.5639,46.9695 L 30.5639,56.4833 C 30.5639,58.0564 31.9123,59.3299 33.4855,59.3299 Z " stroke="#000000" stroke-width="1.1986" stroke-linecap="round" stroke-linejoin="round" fill="none"/>
        </g>
        <g transform="matrix(1.0000 0.0000 0.0000 1.0000 0.0000 0.0000)">
</g>
      </g>
      <!--emf-blob end-->
    </g>
  </g>
</svg>
