<svg xmlns="http://www.w3.org/2000/svg" xmlns:xlink="http://www.w3.org/1999/xlink" version="1.1" width="27.3451000000" height="3.8250000000">
  <title><![CDATA[UCSW-PCIE-Q2564]]></title>
  <g transform=" scale(1.000000) ">
    <!--converted by libvisio2svg-->
    <g transform=" translate(-0.150000,1.762500) ">
      <!--emf-blob start-->
      <g transform="translate(0.1422, 0.1422)">
        <g transform="matrix(0.0625 0.0000 0.0000 0.0625 0.0000 0.0000)">
          <path d="M 8.5345,59.7414 L 409.7974,59.7414 C 413.5668,59.7414 416.6250,56.6832 416.6250,52.9138 L 416.6250,8.5345 C 416.6250,4.7651 413.5668,1.7069 409.7974,1.7069 L 8.5345,1.7069 C 4.7651,1.7069 1.7069,4.7651 1.7069,8.5345 L 1.7069,52.9138 C 1.7069,56.6832 4.7651,59.7414 8.5345,59.7414 Z " fill="#D8D8D8" stroke="none"/>
        </g>
        <g transform="matrix(1.0000 0.0000 0.0000 1.0000 0.0000 0.0000)">
</g>
        <g transform="matrix(0.0625 0.0000 0.0000 0.0625 0.0000 0.0000)">
          <path d="M 8.5345,59.7414 L 409.7974,59.7414 C 413.5668,59.7414 416.6250,56.6832 416.6250,52.9138 L 416.6250,8.5345 C 416.6250,4.7651 413.5668,1.7069 409.7974,1.7069 L 8.5345,1.7069 C 4.7651,1.7069 1.7069,4.7651 1.7069,8.5345 L 1.7069,52.9138 C 1.7069,56.6832 4.7651,59.7414 8.5345,59.7414 Z " stroke="#A5A5A5" stroke-width="1.1379" stroke-linecap="butt" stroke-linejoin="miter" stroke-miterlimit="0.1422" fill="none"/>
        </g>
        <g transform="matrix(1.0000 0.0000 0.0000 1.0000 0.0000 0.0000)">
</g>
        <g transform="matrix(0.0625 0.0000 0.0000 0.0625 0.0000 0.0000)">
          <path d="M 20.4828,1.7069 L 20.4828,52.9138 L 81.9310,52.9138 L 81.9310,1.7069 L 20.4828,1.7069 Z" stroke-width="1px" stroke="#BFBFBF" fill="#BFBFBF"/>
        </g>
        <g transform="matrix(1.0000 0.0000 0.0000 1.0000 0.0000 0.0000)">
</g>
        <g transform="matrix(0.0625 0.0000 0.0000 0.0625 0.0000 0.0000)">
          <path d="M 20.4828,52.9138 L 81.9310,52.9138 L 81.9310,1.7069 L 20.4828,1.7069 L 20.4828,52.9138 Z" stroke="#000000" stroke-width="1.1379" stroke-linecap="round" stroke-linejoin="round" fill="none"/>
        </g>
        <g transform="matrix(1.0000 0.0000 0.0000 1.0000 0.0000 0.0000)">
</g>
        <g transform="matrix(0.0625 0.0000 0.0000 0.0625 0.0000 0.0000)">
          <path d="M 23.6832,6.1164 L 23.6832,47.0819 L 78.8017,47.0819 L 78.8017,6.1164 L 23.6832,6.1164 Z" stroke-width="1px" stroke="#D8D8D8" fill="#D8D8D8"/>
        </g>
        <g transform="matrix(1.0000 0.0000 0.0000 1.0000 0.0000 0.0000)">
</g>
        <g transform="matrix(0.0625 0.0000 0.0000 0.0625 0.0000 0.0000)">
          <path d="M 23.6832,47.0819 L 78.8017,47.0819 L 78.8017,6.1164 L 23.6832,6.1164 L 23.6832,47.0819 Z" stroke="#000000" stroke-width="1.1379" stroke-linecap="round" stroke-linejoin="round" fill="none"/>
        </g>
        <g transform="matrix(1.0000 0.0000 0.0000 1.0000 0.0000 0.0000)">
</g>
        <g transform="matrix(0.0625 0.0000 0.0000 0.0625 0.0000 0.0000)">
          <path d="M 49.0022,39.1875 L 49.0022,25.8879 L 46.8685,25.8879 L 46.8685,22.1897 L 49.1444,22.1897 L 49.1444,18.0647 L 45.4461,18.0647 L 45.4461,13.7974 L 35.6315,13.7974 L 35.6315,18.0647 L 31.7198,18.0647 L 31.7198,22.1897 L 34.4935,22.1897 L 34.4935,25.8879 L 31.8621,25.8879 L 31.8621,39.1875 L 30.0841,39.1875 L 30.0841,42.8858 L 51.2069,42.8858 L 51.2069,39.1875 L 49.0022,39.1875 Z" stroke-width="1px" stroke="#BFBFBF" fill="#BFBFBF"/>
        </g>
        <g transform="matrix(1.0000 0.0000 0.0000 1.0000 0.0000 0.0000)">
</g>
        <g transform="matrix(0.0625 0.0000 0.0000 0.0625 0.0000 0.0000)">
          <path d="M 71.9741,39.1875 L 71.9741,25.8879 L 69.8405,25.8879 L 69.8405,22.1897 L 72.1164,22.1897 L 72.1164,18.0647 L 68.4181,18.0647 L 68.4181,13.7974 L 58.6034,13.7974 L 58.6034,18.0647 L 54.6918,18.0647 L 54.6918,22.1897 L 57.4655,22.1897 L 57.4655,25.8879 L 54.8341,25.8879 L 54.8341,39.1875 L 53.0560,39.1875 L 53.0560,42.8858 L 74.1789,42.8858 L 74.1789,39.1875 L 71.9741,39.1875 Z" stroke-width="1px" stroke="#BFBFBF" fill="#BFBFBF"/>
        </g>
        <g transform="matrix(1.0000 0.0000 0.0000 1.0000 0.0000 0.0000)">
</g>
        <g transform="matrix(0.0625 0.0000 0.0000 0.0625 0.0000 0.0000)">
          <path d="M 45.9440,33.7112 C 45.9440,30.7241 43.5970,28.3772 40.6099,28.3772 C 37.6940,28.3772 35.3470,30.7241 35.3470,33.7112 C 35.3470,36.6272 37.6940,38.9741 40.6099,38.9741 C 43.5970,38.9741 45.9440,36.6272 45.9440,33.7112 Z M 43.8103,33.7112 C 43.8103,35.4181 42.3879,36.8405 40.6099,36.8405 C 38.9030,36.8405 37.4806,35.4181 37.4806,33.7112 C 37.4806,31.9332 38.9030,30.5108 40.6099,30.5108 C 42.3879,30.5108 43.8103,31.9332 43.8103,33.7112 Z " fill="#BFBFBF" stroke="none"/>
        </g>
        <g transform="matrix(1.0000 0.0000 0.0000 1.0000 0.0000 0.0000)">
</g>
        <g transform="matrix(0.0625 0.0000 0.0000 0.0625 0.0000 0.0000)">
          <path d="M 45.9440,33.7112 C 45.9440,30.7241 43.5970,28.3772 40.6099,28.3772 C 37.6940,28.3772 35.3470,30.7241 35.3470,33.7112 C 35.3470,36.6272 37.6940,38.9741 40.6099,38.9741 C 43.5970,38.9741 45.9440,36.6272 45.9440,33.7112 Z M 43.8103,33.7112 C 43.8103,35.4181 42.3879,36.8405 40.6099,36.8405 C 38.9030,36.8405 37.4806,35.4181 37.4806,33.7112 C 37.4806,31.9332 38.9030,30.5108 40.6099,30.5108 C 42.3879,30.5108 43.8103,31.9332 43.8103,33.7112 Z " stroke="#000000" stroke-width="1.1379" stroke-linecap="round" stroke-linejoin="round" fill="none"/>
        </g>
        <g transform="matrix(1.0000 0.0000 0.0000 1.0000 0.0000 0.0000)">
</g>
        <g transform="matrix(0.0625 0.0000 0.0000 0.0625 0.0000 0.0000)">
          <path d="M 43.8103,33.7112 C 43.8103,31.9332 42.3879,30.5108 40.6099,30.5108 C 38.9030,30.5108 37.4806,31.9332 37.4806,33.7112 C 37.4806,35.4181 38.9030,36.8405 40.6099,36.8405 C 42.3879,36.8405 43.8103,35.4181 43.8103,33.7112 " fill="#404040" stroke="none"/>
        </g>
        <g transform="matrix(1.0000 0.0000 0.0000 1.0000 0.0000 0.0000)">
</g>
        <g transform="matrix(0.0625 0.0000 0.0000 0.0625 0.0000 0.0000)">
          <path d="M 43.8103,33.7112 M 43.8103,33.7112 C 43.8103,31.9332 42.3879,30.5108 40.6099,30.5108 C 38.9030,30.5108 37.4806,31.9332 37.4806,33.7112 C 37.4806,35.4181 38.9030,36.8405 40.6099,36.8405 C 42.3879,36.8405 43.8103,35.4181 43.8103,33.7112 " stroke="#000000" stroke-width="1.1379" stroke-linecap="round" stroke-linejoin="round" fill="none"/>
        </g>
        <g transform="matrix(1.0000 0.0000 0.0000 1.0000 0.0000 0.0000)">
</g>
        <g transform="matrix(0.0625 0.0000 0.0000 0.0625 0.0000 0.0000)">
          <path d="M 68.9159,33.7112 C 68.9159,30.7241 66.5690,28.3772 63.5819,28.3772 C 60.6659,28.3772 58.3190,30.7241 58.3190,33.7112 C 58.3190,36.6272 60.6659,38.9741 63.5819,38.9741 C 66.5690,38.9741 68.9159,36.6272 68.9159,33.7112 Z M 66.7823,33.7112 C 66.7823,35.4181 65.3599,36.8405 63.5819,36.8405 C 61.8750,36.8405 60.4526,35.4181 60.4526,33.7112 C 60.4526,31.9332 61.8750,30.5108 63.5819,30.5108 C 65.3599,30.5108 66.7823,31.9332 66.7823,33.7112 Z " fill="#BFBFBF" stroke="none"/>
        </g>
        <g transform="matrix(1.0000 0.0000 0.0000 1.0000 0.0000 0.0000)">
</g>
        <g transform="matrix(0.0625 0.0000 0.0000 0.0625 0.0000 0.0000)">
          <path d="M 68.9159,33.7112 C 68.9159,30.7241 66.5690,28.3772 63.5819,28.3772 C 60.6659,28.3772 58.3190,30.7241 58.3190,33.7112 C 58.3190,36.6272 60.6659,38.9741 63.5819,38.9741 C 66.5690,38.9741 68.9159,36.6272 68.9159,33.7112 Z M 66.7823,33.7112 C 66.7823,35.4181 65.3599,36.8405 63.5819,36.8405 C 61.8750,36.8405 60.4526,35.4181 60.4526,33.7112 C 60.4526,31.9332 61.8750,30.5108 63.5819,30.5108 C 65.3599,30.5108 66.7823,31.9332 66.7823,33.7112 Z " stroke="#000000" stroke-width="1.1379" stroke-linecap="round" stroke-linejoin="round" fill="none"/>
        </g>
        <g transform="matrix(1.0000 0.0000 0.0000 1.0000 0.0000 0.0000)">
</g>
        <g transform="matrix(0.0625 0.0000 0.0000 0.0625 0.0000 0.0000)">
          <path d="M 66.7823,33.7112 C 66.7823,31.9332 65.3599,30.5108 63.5819,30.5108 C 61.8750,30.5108 60.4526,31.9332 60.4526,33.7112 C 60.4526,35.4181 61.8750,36.8405 63.5819,36.8405 C 65.3599,36.8405 66.7823,35.4181 66.7823,33.7112 " fill="#404040" stroke="none"/>
        </g>
        <g transform="matrix(1.0000 0.0000 0.0000 1.0000 0.0000 0.0000)">
</g>
        <g transform="matrix(0.0625 0.0000 0.0000 0.0625 0.0000 0.0000)">
          <path d="M 66.7823,33.7112 M 66.7823,33.7112 C 66.7823,31.9332 65.3599,30.5108 63.5819,30.5108 C 61.8750,30.5108 60.4526,31.9332 60.4526,33.7112 C 60.4526,35.4181 61.8750,36.8405 63.5819,36.8405 C 65.3599,36.8405 66.7823,35.4181 66.7823,33.7112 " stroke="#000000" stroke-width="1.1379" stroke-linecap="round" stroke-linejoin="round" fill="none"/>
        </g>
        <g transform="matrix(1.0000 0.0000 0.0000 1.0000 0.0000 0.0000)">
</g>
        <g transform="matrix(1.0000 0.0000 0.0000 1.0000 18.5782 3.5134)">
          <text font-family="Arial" fill="#000000" style="white-space:pre;" font-weight="400" text-anchor="start" x="0.0000" y="0.0000" font-size="0.5690"><![CDATA[PORTS]]></text>
        </g>
        <g transform="matrix(0.0625 0.0000 0.0000 0.0625 0.0000 0.0000)">
          <path d="M 279.7888,4.8362 C 277.0862,4.8362 274.8103,7.0409 274.8103,9.7435 C 274.8103,12.5172 277.0862,14.7220 279.7888,14.7220 C 282.4914,14.7220 284.7672,12.5172 284.7672,9.7435 C 284.7672,7.0409 282.4914,4.8362 279.7888,4.8362 " fill="#262626" stroke="none"/>
        </g>
        <g transform="matrix(1.0000 0.0000 0.0000 1.0000 0.0000 0.0000)">
</g>
        <g transform="matrix(0.0625 0.0000 0.0000 0.0625 0.0000 0.0000)">
          <path d="M 279.7888,4.8362 M 279.7888,4.8362 C 277.0862,4.8362 274.8103,7.0409 274.8103,9.7435 C 274.8103,12.5172 277.0862,14.7220 279.7888,14.7220 C 282.4914,14.7220 284.7672,12.5172 284.7672,9.7435 C 284.7672,7.0409 282.4914,4.8362 279.7888,4.8362 " stroke="#BFBFBF" stroke-width="1.1379" stroke-linecap="round" stroke-linejoin="round" fill="none"/>
        </g>
        <g transform="matrix(1.0000 0.0000 0.0000 1.0000 0.0000 0.0000)">
</g>
        <g transform="matrix(0.0000 -1.0000 1.0000 0.0000 18.3923 0.8016)">
          <text font-family="Arial" fill="#000000" style="white-space:pre;" font-weight="400" text-anchor="start" x="0.0000" y="0.0000" font-size="0.5690"><![CDATA[2]]></text>
        </g>
        <g transform="matrix(0.0625 0.0000 0.0000 0.0625 0.0000 0.0000)">
          <path d="M 279.7888,17.2823 C 277.0862,17.2823 274.8103,19.4871 274.8103,22.1897 C 274.8103,24.9634 277.0862,27.1681 279.7888,27.1681 C 282.4914,27.1681 284.7672,24.9634 284.7672,22.1897 C 284.7672,19.4871 282.4914,17.2823 279.7888,17.2823 " fill="#262626" stroke="none"/>
        </g>
        <g transform="matrix(1.0000 0.0000 0.0000 1.0000 0.0000 0.0000)">
</g>
        <g transform="matrix(0.0625 0.0000 0.0000 0.0625 0.0000 0.0000)">
          <path d="M 279.7888,17.2823 M 279.7888,17.2823 C 277.0862,17.2823 274.8103,19.4871 274.8103,22.1897 C 274.8103,24.9634 277.0862,27.1681 279.7888,27.1681 C 282.4914,27.1681 284.7672,24.9634 284.7672,22.1897 C 284.7672,19.4871 282.4914,17.2823 279.7888,17.2823 " stroke="#BFBFBF" stroke-width="1.1379" stroke-linecap="round" stroke-linejoin="round" fill="none"/>
        </g>
        <g transform="matrix(1.0000 0.0000 0.0000 1.0000 0.0000 0.0000)">
</g>
        <g transform="matrix(0.0000 -1.0000 1.0000 0.0000 18.3923 1.5806)">
          <text font-family="Arial" fill="#000000" style="white-space:pre;" font-weight="400" text-anchor="start" x="0.0000" y="0.0000" font-size="0.5690"><![CDATA[4]]></text>
        </g>
        <g transform="matrix(0.0625 0.0000 0.0000 0.0625 0.0000 0.0000)">
          <path d="M 279.7888,29.7284 C 277.0862,29.7284 274.8103,31.9332 274.8103,34.7069 C 274.8103,37.4095 277.0862,39.6142 279.7888,39.6142 C 282.4914,39.6142 284.7672,37.4095 284.7672,34.7069 C 284.7672,31.9332 282.4914,29.7284 279.7888,29.7284 " fill="#262626" stroke="none"/>
        </g>
        <g transform="matrix(1.0000 0.0000 0.0000 1.0000 0.0000 0.0000)">
</g>
        <g transform="matrix(0.0625 0.0000 0.0000 0.0625 0.0000 0.0000)">
          <path d="M 279.7888,29.7284 M 279.7888,29.7284 C 277.0862,29.7284 274.8103,31.9332 274.8103,34.7069 C 274.8103,37.4095 277.0862,39.6142 279.7888,39.6142 C 282.4914,39.6142 284.7672,37.4095 284.7672,34.7069 C 284.7672,31.9332 282.4914,29.7284 279.7888,29.7284 " stroke="#BFBFBF" stroke-width="1.1379" stroke-linecap="round" stroke-linejoin="round" fill="none"/>
        </g>
        <g transform="matrix(1.0000 0.0000 0.0000 1.0000 0.0000 0.0000)">
</g>
        <g transform="matrix(0.0000 -1.0000 1.0000 0.0000 18.3923 2.3597)">
          <text font-family="Arial" fill="#000000" style="white-space:pre;" font-weight="400" text-anchor="start" x="0.0000" y="0.0000" font-size="0.5690"><![CDATA[8]]></text>
        </g>
        <g transform="matrix(1.0000 0.0000 0.0000 1.0000 17.3621 2.9800)">
          <text font-family="Arial" fill="#000000" style="white-space:pre;" font-weight="400" text-anchor="start" x="0.0000" y="0.0000" font-size="0.5690"><![CDATA[1]]></text>
        </g>
        <g transform="matrix(0.0625 0.0000 0.0000 0.0625 0.0000 0.0000)">
          <path d="M 301.4095,4.8362 C 298.7069,4.8362 296.5022,7.0409 296.5022,9.7435 C 296.5022,12.5172 298.7069,14.7220 301.4095,14.7220 C 304.1832,14.7220 306.3879,12.5172 306.3879,9.7435 C 306.3879,7.0409 304.1832,4.8362 301.4095,4.8362 " fill="#262626" stroke="none"/>
        </g>
        <g transform="matrix(1.0000 0.0000 0.0000 1.0000 0.0000 0.0000)">
</g>
        <g transform="matrix(0.0625 0.0000 0.0000 0.0625 0.0000 0.0000)">
          <path d="M 301.4095,4.8362 M 301.4095,4.8362 C 298.7069,4.8362 296.5022,7.0409 296.5022,9.7435 C 296.5022,12.5172 298.7069,14.7220 301.4095,14.7220 C 304.1832,14.7220 306.3879,12.5172 306.3879,9.7435 C 306.3879,7.0409 304.1832,4.8362 301.4095,4.8362 " stroke="#BFBFBF" stroke-width="1.1379" stroke-linecap="round" stroke-linejoin="round" fill="none"/>
        </g>
        <g transform="matrix(1.0000 0.0000 0.0000 1.0000 0.0000 0.0000)">
</g>
        <g transform="matrix(0.0000 -1.0000 1.0000 0.0000 19.7446 0.8016)">
          <text font-family="Arial" fill="#000000" style="white-space:pre;" font-weight="400" text-anchor="start" x="0.0000" y="0.0000" font-size="0.5690"><![CDATA[2]]></text>
        </g>
        <g transform="matrix(0.0625 0.0000 0.0000 0.0625 0.0000 0.0000)">
          <path d="M 301.4095,17.2823 C 298.7069,17.2823 296.5022,19.4871 296.5022,22.1897 C 296.5022,24.9634 298.7069,27.1681 301.4095,27.1681 C 304.1832,27.1681 306.3879,24.9634 306.3879,22.1897 C 306.3879,19.4871 304.1832,17.2823 301.4095,17.2823 " fill="#262626" stroke="none"/>
        </g>
        <g transform="matrix(1.0000 0.0000 0.0000 1.0000 0.0000 0.0000)">
</g>
        <g transform="matrix(0.0625 0.0000 0.0000 0.0625 0.0000 0.0000)">
          <path d="M 301.4095,17.2823 M 301.4095,17.2823 C 298.7069,17.2823 296.5022,19.4871 296.5022,22.1897 C 296.5022,24.9634 298.7069,27.1681 301.4095,27.1681 C 304.1832,27.1681 306.3879,24.9634 306.3879,22.1897 C 306.3879,19.4871 304.1832,17.2823 301.4095,17.2823 " stroke="#BFBFBF" stroke-width="1.1379" stroke-linecap="round" stroke-linejoin="round" fill="none"/>
        </g>
        <g transform="matrix(1.0000 0.0000 0.0000 1.0000 0.0000 0.0000)">
</g>
        <g transform="matrix(0.0000 -1.0000 1.0000 0.0000 19.7446 1.5806)">
          <text font-family="Arial" fill="#000000" style="white-space:pre;" font-weight="400" text-anchor="start" x="0.0000" y="0.0000" font-size="0.5690"><![CDATA[4]]></text>
        </g>
        <g transform="matrix(0.0625 0.0000 0.0000 0.0625 0.0000 0.0000)">
          <path d="M 301.4095,29.7284 C 298.7069,29.7284 296.5022,31.9332 296.5022,34.7069 C 296.5022,37.4095 298.7069,39.6142 301.4095,39.6142 C 304.1832,39.6142 306.3879,37.4095 306.3879,34.7069 C 306.3879,31.9332 304.1832,29.7284 301.4095,29.7284 " fill="#262626" stroke="none"/>
        </g>
        <g transform="matrix(1.0000 0.0000 0.0000 1.0000 0.0000 0.0000)">
</g>
        <g transform="matrix(0.0625 0.0000 0.0000 0.0625 0.0000 0.0000)">
          <path d="M 301.4095,29.7284 M 301.4095,29.7284 C 298.7069,29.7284 296.5022,31.9332 296.5022,34.7069 C 296.5022,37.4095 298.7069,39.6142 301.4095,39.6142 C 304.1832,39.6142 306.3879,37.4095 306.3879,34.7069 C 306.3879,31.9332 304.1832,29.7284 301.4095,29.7284 " stroke="#BFBFBF" stroke-width="1.1379" stroke-linecap="round" stroke-linejoin="round" fill="none"/>
        </g>
        <g transform="matrix(1.0000 0.0000 0.0000 1.0000 0.0000 0.0000)">
</g>
        <g transform="matrix(0.0000 -1.0000 1.0000 0.0000 19.7446 2.3597)">
          <text font-family="Arial" fill="#000000" style="white-space:pre;" font-weight="400" text-anchor="start" x="0.0000" y="0.0000" font-size="0.5690"><![CDATA[8]]></text>
        </g>
        <g transform="matrix(1.0000 0.0000 0.0000 1.0000 18.7144 2.9800)">
          <text font-family="Arial" fill="#000000" style="white-space:pre;" font-weight="400" text-anchor="start" x="0.0000" y="0.0000" font-size="0.5690"><![CDATA[2]]></text>
        </g>
        <g transform="matrix(0.0625 0.0000 0.0000 0.0625 0.0000 0.0000)">
          <path d="M 323.0302,4.8362 C 320.3276,4.8362 318.1228,7.0409 318.1228,9.7435 C 318.1228,12.5172 320.3276,14.7220 323.0302,14.7220 C 325.8039,14.7220 328.0086,12.5172 328.0086,9.7435 C 328.0086,7.0409 325.8039,4.8362 323.0302,4.8362 " fill="#262626" stroke="none"/>
        </g>
        <g transform="matrix(1.0000 0.0000 0.0000 1.0000 0.0000 0.0000)">
</g>
        <g transform="matrix(0.0625 0.0000 0.0000 0.0625 0.0000 0.0000)">
          <path d="M 323.0302,4.8362 M 323.0302,4.8362 C 320.3276,4.8362 318.1228,7.0409 318.1228,9.7435 C 318.1228,12.5172 320.3276,14.7220 323.0302,14.7220 C 325.8039,14.7220 328.0086,12.5172 328.0086,9.7435 C 328.0086,7.0409 325.8039,4.8362 323.0302,4.8362 " stroke="#BFBFBF" stroke-width="1.1379" stroke-linecap="round" stroke-linejoin="round" fill="none"/>
        </g>
        <g transform="matrix(1.0000 0.0000 0.0000 1.0000 0.0000 0.0000)">
</g>
        <g transform="matrix(0.0000 -1.0000 1.0000 0.0000 21.0969 0.8016)">
          <text font-family="Arial" fill="#000000" style="white-space:pre;" font-weight="400" text-anchor="start" x="0.0000" y="0.0000" font-size="0.5690"><![CDATA[2]]></text>
        </g>
        <g transform="matrix(0.0625 0.0000 0.0000 0.0625 0.0000 0.0000)">
          <path d="M 323.0302,17.2823 C 320.3276,17.2823 318.1228,19.4871 318.1228,22.1897 C 318.1228,24.9634 320.3276,27.1681 323.0302,27.1681 C 325.8039,27.1681 328.0086,24.9634 328.0086,22.1897 C 328.0086,19.4871 325.8039,17.2823 323.0302,17.2823 " fill="#262626" stroke="none"/>
        </g>
        <g transform="matrix(1.0000 0.0000 0.0000 1.0000 0.0000 0.0000)">
</g>
        <g transform="matrix(0.0625 0.0000 0.0000 0.0625 0.0000 0.0000)">
          <path d="M 323.0302,17.2823 M 323.0302,17.2823 C 320.3276,17.2823 318.1228,19.4871 318.1228,22.1897 C 318.1228,24.9634 320.3276,27.1681 323.0302,27.1681 C 325.8039,27.1681 328.0086,24.9634 328.0086,22.1897 C 328.0086,19.4871 325.8039,17.2823 323.0302,17.2823 " stroke="#BFBFBF" stroke-width="1.1379" stroke-linecap="round" stroke-linejoin="round" fill="none"/>
        </g>
        <g transform="matrix(1.0000 0.0000 0.0000 1.0000 0.0000 0.0000)">
</g>
        <g transform="matrix(0.0000 -1.0000 1.0000 0.0000 21.0969 1.5806)">
          <text font-family="Arial" fill="#000000" style="white-space:pre;" font-weight="400" text-anchor="start" x="0.0000" y="0.0000" font-size="0.5690"><![CDATA[4]]></text>
        </g>
        <g transform="matrix(0.0625 0.0000 0.0000 0.0625 0.0000 0.0000)">
          <path d="M 323.0302,29.7284 C 320.3276,29.7284 318.1228,31.9332 318.1228,34.7069 C 318.1228,37.4095 320.3276,39.6142 323.0302,39.6142 C 325.8039,39.6142 328.0086,37.4095 328.0086,34.7069 C 328.0086,31.9332 325.8039,29.7284 323.0302,29.7284 " fill="#262626" stroke="none"/>
        </g>
        <g transform="matrix(1.0000 0.0000 0.0000 1.0000 0.0000 0.0000)">
</g>
        <g transform="matrix(0.0625 0.0000 0.0000 0.0625 0.0000 0.0000)">
          <path d="M 323.0302,29.7284 M 323.0302,29.7284 C 320.3276,29.7284 318.1228,31.9332 318.1228,34.7069 C 318.1228,37.4095 320.3276,39.6142 323.0302,39.6142 C 325.8039,39.6142 328.0086,37.4095 328.0086,34.7069 C 328.0086,31.9332 325.8039,29.7284 323.0302,29.7284 " stroke="#BFBFBF" stroke-width="1.1379" stroke-linecap="round" stroke-linejoin="round" fill="none"/>
        </g>
        <g transform="matrix(1.0000 0.0000 0.0000 1.0000 0.0000 0.0000)">
</g>
        <g transform="matrix(0.0000 -1.0000 1.0000 0.0000 21.0969 2.3597)">
          <text font-family="Arial" fill="#000000" style="white-space:pre;" font-weight="400" text-anchor="start" x="0.0000" y="0.0000" font-size="0.5690"><![CDATA[8]]></text>
        </g>
        <g transform="matrix(1.0000 0.0000 0.0000 1.0000 20.0667 2.9800)">
          <text font-family="Arial" fill="#000000" style="white-space:pre;" font-weight="400" text-anchor="start" x="0.0000" y="0.0000" font-size="0.5690"><![CDATA[3]]></text>
        </g>
        <g transform="matrix(0.0625 0.0000 0.0000 0.0625 0.0000 0.0000)">
          <path d="M 344.7220,4.8362 C 341.9483,4.8362 339.7435,7.0409 339.7435,9.7435 C 339.7435,12.5172 341.9483,14.7220 344.7220,14.7220 C 347.4246,14.7220 349.6293,12.5172 349.6293,9.7435 C 349.6293,7.0409 347.4246,4.8362 344.7220,4.8362 " fill="#262626" stroke="none"/>
        </g>
        <g transform="matrix(1.0000 0.0000 0.0000 1.0000 0.0000 0.0000)">
</g>
        <g transform="matrix(0.0625 0.0000 0.0000 0.0625 0.0000 0.0000)">
          <path d="M 344.7220,4.8362 M 344.7220,4.8362 C 341.9483,4.8362 339.7435,7.0409 339.7435,9.7435 C 339.7435,12.5172 341.9483,14.7220 344.7220,14.7220 C 347.4246,14.7220 349.6293,12.5172 349.6293,9.7435 C 349.6293,7.0409 347.4246,4.8362 344.7220,4.8362 " stroke="#BFBFBF" stroke-width="1.1379" stroke-linecap="round" stroke-linejoin="round" fill="none"/>
        </g>
        <g transform="matrix(1.0000 0.0000 0.0000 1.0000 0.0000 0.0000)">
</g>
        <g transform="matrix(0.0000 -1.0000 1.0000 0.0000 22.4493 0.8016)">
          <text font-family="Arial" fill="#000000" style="white-space:pre;" font-weight="400" text-anchor="start" x="0.0000" y="0.0000" font-size="0.5690"><![CDATA[2]]></text>
        </g>
        <g transform="matrix(0.0625 0.0000 0.0000 0.0625 0.0000 0.0000)">
          <path d="M 344.7220,17.2823 C 341.9483,17.2823 339.7435,19.4871 339.7435,22.1897 C 339.7435,24.9634 341.9483,27.1681 344.7220,27.1681 C 347.4246,27.1681 349.6293,24.9634 349.6293,22.1897 C 349.6293,19.4871 347.4246,17.2823 344.7220,17.2823 " fill="#262626" stroke="none"/>
        </g>
        <g transform="matrix(1.0000 0.0000 0.0000 1.0000 0.0000 0.0000)">
</g>
        <g transform="matrix(0.0625 0.0000 0.0000 0.0625 0.0000 0.0000)">
          <path d="M 344.7220,17.2823 M 344.7220,17.2823 C 341.9483,17.2823 339.7435,19.4871 339.7435,22.1897 C 339.7435,24.9634 341.9483,27.1681 344.7220,27.1681 C 347.4246,27.1681 349.6293,24.9634 349.6293,22.1897 C 349.6293,19.4871 347.4246,17.2823 344.7220,17.2823 " stroke="#BFBFBF" stroke-width="1.1379" stroke-linecap="round" stroke-linejoin="round" fill="none"/>
        </g>
        <g transform="matrix(1.0000 0.0000 0.0000 1.0000 0.0000 0.0000)">
</g>
        <g transform="matrix(0.0000 -1.0000 1.0000 0.0000 22.4493 1.5806)">
          <text font-family="Arial" fill="#000000" style="white-space:pre;" font-weight="400" text-anchor="start" x="0.0000" y="0.0000" font-size="0.5690"><![CDATA[4]]></text>
        </g>
        <g transform="matrix(0.0625 0.0000 0.0000 0.0625 0.0000 0.0000)">
          <path d="M 344.7220,29.7284 C 341.9483,29.7284 339.7435,31.9332 339.7435,34.7069 C 339.7435,37.4095 341.9483,39.6142 344.7220,39.6142 C 347.4246,39.6142 349.6293,37.4095 349.6293,34.7069 C 349.6293,31.9332 347.4246,29.7284 344.7220,29.7284 " fill="#262626" stroke="none"/>
        </g>
        <g transform="matrix(1.0000 0.0000 0.0000 1.0000 0.0000 0.0000)">
</g>
        <g transform="matrix(0.0625 0.0000 0.0000 0.0625 0.0000 0.0000)">
          <path d="M 344.7220,29.7284 M 344.7220,29.7284 C 341.9483,29.7284 339.7435,31.9332 339.7435,34.7069 C 339.7435,37.4095 341.9483,39.6142 344.7220,39.6142 C 347.4246,39.6142 349.6293,37.4095 349.6293,34.7069 C 349.6293,31.9332 347.4246,29.7284 344.7220,29.7284 " stroke="#BFBFBF" stroke-width="1.1379" stroke-linecap="round" stroke-linejoin="round" fill="none"/>
        </g>
        <g transform="matrix(1.0000 0.0000 0.0000 1.0000 0.0000 0.0000)">
</g>
        <g transform="matrix(0.0000 -1.0000 1.0000 0.0000 22.4493 2.3597)">
          <text font-family="Arial" fill="#000000" style="white-space:pre;" font-weight="400" text-anchor="start" x="0.0000" y="0.0000" font-size="0.5690"><![CDATA[8]]></text>
        </g>
        <g transform="matrix(1.0000 0.0000 0.0000 1.0000 21.4191 2.9800)">
          <text font-family="Arial" fill="#000000" style="white-space:pre;" font-weight="400" text-anchor="start" x="0.0000" y="0.0000" font-size="0.5690"><![CDATA[4]]></text>
        </g>
        <g transform="matrix(0.0000 -1.0000 1.0000 0.0000 24.0815 2.7010)">
          <text font-family="Arial" fill="#000000" style="white-space:pre;" font-weight="400" text-anchor="start" x="0.0000" y="0.0000" font-size="0.5690"><![CDATA[PCIe x]]></text>
        </g>
        <g transform="matrix(0.0000 -1.0000 1.0000 0.0000 24.0815 0.9936)">
          <text font-family="Arial" fill="#000000" style="white-space:pre;" font-weight="400" text-anchor="start" x="0.0000" y="0.0000" font-size="0.5690"><![CDATA[8]]></text>
        </g>
        <g transform="matrix(0.0000 -1.0000 1.0000 0.0000 24.7642 2.6851)">
          <text font-family="Arial" fill="#000000" style="white-space:pre;" font-weight="400" text-anchor="start" x="0.0000" y="0.0000" font-size="0.5690"><![CDATA[8]]></text>
        </g>
        <g transform="matrix(0.0000 -1.0000 1.0000 0.0000 24.7642 2.3686)">
          <text font-family="Arial" fill="#000000" style="white-space:pre;" font-weight="400" text-anchor="start" x="0.0000" y="0.0000" font-size="0.5690"><![CDATA[Gb FC]]></text>
        </g>
        <g transform="matrix(0.0625 0.0000 0.0000 0.0625 0.0000 0.0000)">
          <path d="M 81.9310,1.7069 L 81.9310,52.9138 L 143.3793,52.9138 L 143.3793,1.7069 L 81.9310,1.7069 Z" stroke-width="1px" stroke="#BFBFBF" fill="#BFBFBF"/>
        </g>
        <g transform="matrix(1.0000 0.0000 0.0000 1.0000 0.0000 0.0000)">
</g>
        <g transform="matrix(0.0625 0.0000 0.0000 0.0625 0.0000 0.0000)">
          <path d="M 81.9310,52.9138 L 143.3793,52.9138 L 143.3793,1.7069 L 81.9310,1.7069 L 81.9310,52.9138 Z" stroke="#000000" stroke-width="1.1379" stroke-linecap="round" stroke-linejoin="round" fill="none"/>
        </g>
        <g transform="matrix(1.0000 0.0000 0.0000 1.0000 0.0000 0.0000)">
</g>
        <g transform="matrix(0.0625 0.0000 0.0000 0.0625 0.0000 0.0000)">
          <path d="M 85.1315,6.1164 L 85.1315,47.0819 L 140.2500,47.0819 L 140.2500,6.1164 L 85.1315,6.1164 Z" stroke-width="1px" stroke="#D8D8D8" fill="#D8D8D8"/>
        </g>
        <g transform="matrix(1.0000 0.0000 0.0000 1.0000 0.0000 0.0000)">
</g>
        <g transform="matrix(0.0625 0.0000 0.0000 0.0625 0.0000 0.0000)">
          <path d="M 85.1315,47.0819 L 140.2500,47.0819 L 140.2500,6.1164 L 85.1315,6.1164 L 85.1315,47.0819 Z" stroke="#000000" stroke-width="1.1379" stroke-linecap="round" stroke-linejoin="round" fill="none"/>
        </g>
        <g transform="matrix(1.0000 0.0000 0.0000 1.0000 0.0000 0.0000)">
</g>
        <g transform="matrix(0.0625 0.0000 0.0000 0.0625 0.0000 0.0000)">
          <path d="M 110.4504,39.1875 L 110.4504,25.8879 L 108.3168,25.8879 L 108.3168,22.1897 L 110.5927,22.1897 L 110.5927,18.0647 L 106.8944,18.0647 L 106.8944,13.7974 L 97.0797,13.7974 L 97.0797,18.0647 L 93.1681,18.0647 L 93.1681,22.1897 L 95.9418,22.1897 L 95.9418,25.8879 L 93.3103,25.8879 L 93.3103,39.1875 L 91.5323,39.1875 L 91.5323,42.8858 L 112.6552,42.8858 L 112.6552,39.1875 L 110.4504,39.1875 Z" stroke-width="1px" stroke="#BFBFBF" fill="#BFBFBF"/>
        </g>
        <g transform="matrix(1.0000 0.0000 0.0000 1.0000 0.0000 0.0000)">
</g>
        <g transform="matrix(0.0625 0.0000 0.0000 0.0625 0.0000 0.0000)">
          <path d="M 133.4224,39.1875 L 133.4224,25.8879 L 131.2888,25.8879 L 131.2888,22.1897 L 133.5647,22.1897 L 133.5647,18.0647 L 129.8664,18.0647 L 129.8664,13.7974 L 120.0517,13.7974 L 120.0517,18.0647 L 116.1401,18.0647 L 116.1401,22.1897 L 118.9138,22.1897 L 118.9138,25.8879 L 116.2823,25.8879 L 116.2823,39.1875 L 114.5043,39.1875 L 114.5043,42.8858 L 135.6272,42.8858 L 135.6272,39.1875 L 133.4224,39.1875 Z" stroke-width="1px" stroke="#BFBFBF" fill="#BFBFBF"/>
        </g>
        <g transform="matrix(1.0000 0.0000 0.0000 1.0000 0.0000 0.0000)">
</g>
        <g transform="matrix(0.0625 0.0000 0.0000 0.0625 0.0000 0.0000)">
          <path d="M 107.3922,33.7112 C 107.3922,30.7241 105.0453,28.3772 102.0582,28.3772 C 99.1422,28.3772 96.7953,30.7241 96.7953,33.7112 C 96.7953,36.6272 99.1422,38.9741 102.0582,38.9741 C 105.0453,38.9741 107.3922,36.6272 107.3922,33.7112 Z M 105.2586,33.7112 C 105.2586,35.4181 103.8362,36.8405 102.0582,36.8405 C 100.3513,36.8405 98.9289,35.4181 98.9289,33.7112 C 98.9289,31.9332 100.3513,30.5108 102.0582,30.5108 C 103.8362,30.5108 105.2586,31.9332 105.2586,33.7112 Z " fill="#BFBFBF" stroke="none"/>
        </g>
        <g transform="matrix(1.0000 0.0000 0.0000 1.0000 0.0000 0.0000)">
</g>
        <g transform="matrix(0.0625 0.0000 0.0000 0.0625 0.0000 0.0000)">
          <path d="M 107.3922,33.7112 C 107.3922,30.7241 105.0453,28.3772 102.0582,28.3772 C 99.1422,28.3772 96.7953,30.7241 96.7953,33.7112 C 96.7953,36.6272 99.1422,38.9741 102.0582,38.9741 C 105.0453,38.9741 107.3922,36.6272 107.3922,33.7112 Z M 105.2586,33.7112 C 105.2586,35.4181 103.8362,36.8405 102.0582,36.8405 C 100.3513,36.8405 98.9289,35.4181 98.9289,33.7112 C 98.9289,31.9332 100.3513,30.5108 102.0582,30.5108 C 103.8362,30.5108 105.2586,31.9332 105.2586,33.7112 Z " stroke="#000000" stroke-width="1.1379" stroke-linecap="round" stroke-linejoin="round" fill="none"/>
        </g>
        <g transform="matrix(1.0000 0.0000 0.0000 1.0000 0.0000 0.0000)">
</g>
        <g transform="matrix(0.0625 0.0000 0.0000 0.0625 0.0000 0.0000)">
          <path d="M 105.2586,33.7112 C 105.2586,31.9332 103.8362,30.5108 102.0582,30.5108 C 100.3513,30.5108 98.9289,31.9332 98.9289,33.7112 C 98.9289,35.4181 100.3513,36.8405 102.0582,36.8405 C 103.8362,36.8405 105.2586,35.4181 105.2586,33.7112 " fill="#404040" stroke="none"/>
        </g>
        <g transform="matrix(1.0000 0.0000 0.0000 1.0000 0.0000 0.0000)">
</g>
        <g transform="matrix(0.0625 0.0000 0.0000 0.0625 0.0000 0.0000)">
          <path d="M 105.2586,33.7112 M 105.2586,33.7112 C 105.2586,31.9332 103.8362,30.5108 102.0582,30.5108 C 100.3513,30.5108 98.9289,31.9332 98.9289,33.7112 C 98.9289,35.4181 100.3513,36.8405 102.0582,36.8405 C 103.8362,36.8405 105.2586,35.4181 105.2586,33.7112 " stroke="#000000" stroke-width="1.1379" stroke-linecap="round" stroke-linejoin="round" fill="none"/>
        </g>
        <g transform="matrix(1.0000 0.0000 0.0000 1.0000 0.0000 0.0000)">
</g>
        <g transform="matrix(0.0625 0.0000 0.0000 0.0625 0.0000 0.0000)">
          <path d="M 130.3642,33.7112 C 130.3642,30.7241 128.0172,28.3772 125.0302,28.3772 C 122.1142,28.3772 119.7672,30.7241 119.7672,33.7112 C 119.7672,36.6272 122.1142,38.9741 125.0302,38.9741 C 128.0172,38.9741 130.3642,36.6272 130.3642,33.7112 Z M 128.2306,33.7112 C 128.2306,35.4181 126.8082,36.8405 125.0302,36.8405 C 123.3233,36.8405 121.9009,35.4181 121.9009,33.7112 C 121.9009,31.9332 123.3233,30.5108 125.0302,30.5108 C 126.8082,30.5108 128.2306,31.9332 128.2306,33.7112 Z " fill="#BFBFBF" stroke="none"/>
        </g>
        <g transform="matrix(1.0000 0.0000 0.0000 1.0000 0.0000 0.0000)">
</g>
        <g transform="matrix(0.0625 0.0000 0.0000 0.0625 0.0000 0.0000)">
          <path d="M 130.3642,33.7112 C 130.3642,30.7241 128.0172,28.3772 125.0302,28.3772 C 122.1142,28.3772 119.7672,30.7241 119.7672,33.7112 C 119.7672,36.6272 122.1142,38.9741 125.0302,38.9741 C 128.0172,38.9741 130.3642,36.6272 130.3642,33.7112 Z M 128.2306,33.7112 C 128.2306,35.4181 126.8082,36.8405 125.0302,36.8405 C 123.3233,36.8405 121.9009,35.4181 121.9009,33.7112 C 121.9009,31.9332 123.3233,30.5108 125.0302,30.5108 C 126.8082,30.5108 128.2306,31.9332 128.2306,33.7112 Z " stroke="#000000" stroke-width="1.1379" stroke-linecap="round" stroke-linejoin="round" fill="none"/>
        </g>
        <g transform="matrix(1.0000 0.0000 0.0000 1.0000 0.0000 0.0000)">
</g>
        <g transform="matrix(0.0625 0.0000 0.0000 0.0625 0.0000 0.0000)">
          <path d="M 128.2306,33.7112 C 128.2306,31.9332 126.8082,30.5108 125.0302,30.5108 C 123.3233,30.5108 121.9009,31.9332 121.9009,33.7112 C 121.9009,35.4181 123.3233,36.8405 125.0302,36.8405 C 126.8082,36.8405 128.2306,35.4181 128.2306,33.7112 " fill="#404040" stroke="none"/>
        </g>
        <g transform="matrix(1.0000 0.0000 0.0000 1.0000 0.0000 0.0000)">
</g>
        <g transform="matrix(0.0625 0.0000 0.0000 0.0625 0.0000 0.0000)">
          <path d="M 128.2306,33.7112 M 128.2306,33.7112 C 128.2306,31.9332 126.8082,30.5108 125.0302,30.5108 C 123.3233,30.5108 121.9009,31.9332 121.9009,33.7112 C 121.9009,35.4181 123.3233,36.8405 125.0302,36.8405 C 126.8082,36.8405 128.2306,35.4181 128.2306,33.7112 " stroke="#000000" stroke-width="1.1379" stroke-linecap="round" stroke-linejoin="round" fill="none"/>
        </g>
        <g transform="matrix(1.0000 0.0000 0.0000 1.0000 0.0000 0.0000)">
</g>
        <g transform="matrix(0.0625 0.0000 0.0000 0.0625 0.0000 0.0000)">
          <path d="M 143.3793,1.7069 L 143.3793,52.9138 L 204.8276,52.9138 L 204.8276,1.7069 L 143.3793,1.7069 Z" stroke-width="1px" stroke="#BFBFBF" fill="#BFBFBF"/>
        </g>
        <g transform="matrix(1.0000 0.0000 0.0000 1.0000 0.0000 0.0000)">
</g>
        <g transform="matrix(0.0625 0.0000 0.0000 0.0625 0.0000 0.0000)">
          <path d="M 143.3793,52.9138 L 204.8276,52.9138 L 204.8276,1.7069 L 143.3793,1.7069 L 143.3793,52.9138 Z" stroke="#000000" stroke-width="1.1379" stroke-linecap="round" stroke-linejoin="round" fill="none"/>
        </g>
        <g transform="matrix(1.0000 0.0000 0.0000 1.0000 0.0000 0.0000)">
</g>
        <g transform="matrix(0.0625 0.0000 0.0000 0.0625 0.0000 0.0000)">
          <path d="M 146.5797,6.1164 L 146.5797,47.0819 L 201.6983,47.0819 L 201.6983,6.1164 L 146.5797,6.1164 Z" stroke-width="1px" stroke="#D8D8D8" fill="#D8D8D8"/>
        </g>
        <g transform="matrix(1.0000 0.0000 0.0000 1.0000 0.0000 0.0000)">
</g>
        <g transform="matrix(0.0625 0.0000 0.0000 0.0625 0.0000 0.0000)">
          <path d="M 146.5797,47.0819 L 201.6983,47.0819 L 201.6983,6.1164 L 146.5797,6.1164 L 146.5797,47.0819 Z" stroke="#000000" stroke-width="1.1379" stroke-linecap="round" stroke-linejoin="round" fill="none"/>
        </g>
        <g transform="matrix(1.0000 0.0000 0.0000 1.0000 0.0000 0.0000)">
</g>
        <g transform="matrix(0.0625 0.0000 0.0000 0.0625 0.0000 0.0000)">
          <path d="M 171.8987,39.1875 L 171.8987,25.8879 L 169.7651,25.8879 L 169.7651,22.1897 L 172.0409,22.1897 L 172.0409,18.0647 L 168.3427,18.0647 L 168.3427,13.7974 L 158.5280,13.7974 L 158.5280,18.0647 L 154.6164,18.0647 L 154.6164,22.1897 L 157.3901,22.1897 L 157.3901,25.8879 L 154.7586,25.8879 L 154.7586,39.1875 L 152.9806,39.1875 L 152.9806,42.8858 L 174.1034,42.8858 L 174.1034,39.1875 L 171.8987,39.1875 Z" stroke-width="1px" stroke="#BFBFBF" fill="#BFBFBF"/>
        </g>
        <g transform="matrix(1.0000 0.0000 0.0000 1.0000 0.0000 0.0000)">
</g>
        <g transform="matrix(0.0625 0.0000 0.0000 0.0625 0.0000 0.0000)">
          <path d="M 194.8707,39.1875 L 194.8707,25.8879 L 192.7371,25.8879 L 192.7371,22.1897 L 195.0129,22.1897 L 195.0129,18.0647 L 191.3147,18.0647 L 191.3147,13.7974 L 181.5000,13.7974 L 181.5000,18.0647 L 177.5884,18.0647 L 177.5884,22.1897 L 180.3621,22.1897 L 180.3621,25.8879 L 177.7306,25.8879 L 177.7306,39.1875 L 175.9526,39.1875 L 175.9526,42.8858 L 197.0754,42.8858 L 197.0754,39.1875 L 194.8707,39.1875 Z" stroke-width="1px" stroke="#BFBFBF" fill="#BFBFBF"/>
        </g>
        <g transform="matrix(1.0000 0.0000 0.0000 1.0000 0.0000 0.0000)">
</g>
        <g transform="matrix(0.0625 0.0000 0.0000 0.0625 0.0000 0.0000)">
          <path d="M 168.8405,33.7112 C 168.8405,30.7241 166.4935,28.3772 163.5065,28.3772 C 160.5905,28.3772 158.2435,30.7241 158.2435,33.7112 C 158.2435,36.6272 160.5905,38.9741 163.5065,38.9741 C 166.4935,38.9741 168.8405,36.6272 168.8405,33.7112 Z M 166.7069,33.7112 C 166.7069,35.4181 165.2845,36.8405 163.5065,36.8405 C 161.7996,36.8405 160.3772,35.4181 160.3772,33.7112 C 160.3772,31.9332 161.7996,30.5108 163.5065,30.5108 C 165.2845,30.5108 166.7069,31.9332 166.7069,33.7112 Z " fill="#BFBFBF" stroke="none"/>
        </g>
        <g transform="matrix(1.0000 0.0000 0.0000 1.0000 0.0000 0.0000)">
</g>
        <g transform="matrix(0.0625 0.0000 0.0000 0.0625 0.0000 0.0000)">
          <path d="M 168.8405,33.7112 C 168.8405,30.7241 166.4935,28.3772 163.5065,28.3772 C 160.5905,28.3772 158.2435,30.7241 158.2435,33.7112 C 158.2435,36.6272 160.5905,38.9741 163.5065,38.9741 C 166.4935,38.9741 168.8405,36.6272 168.8405,33.7112 Z M 166.7069,33.7112 C 166.7069,35.4181 165.2845,36.8405 163.5065,36.8405 C 161.7996,36.8405 160.3772,35.4181 160.3772,33.7112 C 160.3772,31.9332 161.7996,30.5108 163.5065,30.5108 C 165.2845,30.5108 166.7069,31.9332 166.7069,33.7112 Z " stroke="#000000" stroke-width="1.1379" stroke-linecap="round" stroke-linejoin="round" fill="none"/>
        </g>
        <g transform="matrix(1.0000 0.0000 0.0000 1.0000 0.0000 0.0000)">
</g>
        <g transform="matrix(0.0625 0.0000 0.0000 0.0625 0.0000 0.0000)">
          <path d="M 166.7069,33.7112 C 166.7069,31.9332 165.2845,30.5108 163.5065,30.5108 C 161.7996,30.5108 160.3772,31.9332 160.3772,33.7112 C 160.3772,35.4181 161.7996,36.8405 163.5065,36.8405 C 165.2845,36.8405 166.7069,35.4181 166.7069,33.7112 " fill="#404040" stroke="none"/>
        </g>
        <g transform="matrix(1.0000 0.0000 0.0000 1.0000 0.0000 0.0000)">
</g>
        <g transform="matrix(0.0625 0.0000 0.0000 0.0625 0.0000 0.0000)">
          <path d="M 166.7069,33.7112 M 166.7069,33.7112 C 166.7069,31.9332 165.2845,30.5108 163.5065,30.5108 C 161.7996,30.5108 160.3772,31.9332 160.3772,33.7112 C 160.3772,35.4181 161.7996,36.8405 163.5065,36.8405 C 165.2845,36.8405 166.7069,35.4181 166.7069,33.7112 " stroke="#000000" stroke-width="1.1379" stroke-linecap="round" stroke-linejoin="round" fill="none"/>
        </g>
        <g transform="matrix(1.0000 0.0000 0.0000 1.0000 0.0000 0.0000)">
</g>
        <g transform="matrix(0.0625 0.0000 0.0000 0.0625 0.0000 0.0000)">
          <path d="M 191.8125,33.7112 C 191.8125,30.7241 189.4655,28.3772 186.4784,28.3772 C 183.5625,28.3772 181.2155,30.7241 181.2155,33.7112 C 181.2155,36.6272 183.5625,38.9741 186.4784,38.9741 C 189.4655,38.9741 191.8125,36.6272 191.8125,33.7112 Z M 189.6789,33.7112 C 189.6789,35.4181 188.2565,36.8405 186.4784,36.8405 C 184.7716,36.8405 183.3491,35.4181 183.3491,33.7112 C 183.3491,31.9332 184.7716,30.5108 186.4784,30.5108 C 188.2565,30.5108 189.6789,31.9332 189.6789,33.7112 Z " fill="#BFBFBF" stroke="none"/>
        </g>
        <g transform="matrix(1.0000 0.0000 0.0000 1.0000 0.0000 0.0000)">
</g>
        <g transform="matrix(0.0625 0.0000 0.0000 0.0625 0.0000 0.0000)">
          <path d="M 191.8125,33.7112 C 191.8125,30.7241 189.4655,28.3772 186.4784,28.3772 C 183.5625,28.3772 181.2155,30.7241 181.2155,33.7112 C 181.2155,36.6272 183.5625,38.9741 186.4784,38.9741 C 189.4655,38.9741 191.8125,36.6272 191.8125,33.7112 Z M 189.6789,33.7112 C 189.6789,35.4181 188.2565,36.8405 186.4784,36.8405 C 184.7716,36.8405 183.3491,35.4181 183.3491,33.7112 C 183.3491,31.9332 184.7716,30.5108 186.4784,30.5108 C 188.2565,30.5108 189.6789,31.9332 189.6789,33.7112 Z " stroke="#000000" stroke-width="1.1379" stroke-linecap="round" stroke-linejoin="round" fill="none"/>
        </g>
        <g transform="matrix(1.0000 0.0000 0.0000 1.0000 0.0000 0.0000)">
</g>
        <g transform="matrix(0.0625 0.0000 0.0000 0.0625 0.0000 0.0000)">
          <path d="M 189.6789,33.7112 C 189.6789,31.9332 188.2565,30.5108 186.4784,30.5108 C 184.7716,30.5108 183.3491,31.9332 183.3491,33.7112 C 183.3491,35.4181 184.7716,36.8405 186.4784,36.8405 C 188.2565,36.8405 189.6789,35.4181 189.6789,33.7112 " fill="#404040" stroke="none"/>
        </g>
        <g transform="matrix(1.0000 0.0000 0.0000 1.0000 0.0000 0.0000)">
</g>
        <g transform="matrix(0.0625 0.0000 0.0000 0.0625 0.0000 0.0000)">
          <path d="M 189.6789,33.7112 M 189.6789,33.7112 C 189.6789,31.9332 188.2565,30.5108 186.4784,30.5108 C 184.7716,30.5108 183.3491,31.9332 183.3491,33.7112 C 183.3491,35.4181 184.7716,36.8405 186.4784,36.8405 C 188.2565,36.8405 189.6789,35.4181 189.6789,33.7112 " stroke="#000000" stroke-width="1.1379" stroke-linecap="round" stroke-linejoin="round" fill="none"/>
        </g>
        <g transform="matrix(1.0000 0.0000 0.0000 1.0000 0.0000 0.0000)">
</g>
        <g transform="matrix(0.0625 0.0000 0.0000 0.0625 0.0000 0.0000)">
          <path d="M 204.8276,1.7069 L 204.8276,52.9138 L 266.2759,52.9138 L 266.2759,1.7069 L 204.8276,1.7069 Z" stroke-width="1px" stroke="#BFBFBF" fill="#BFBFBF"/>
        </g>
        <g transform="matrix(1.0000 0.0000 0.0000 1.0000 0.0000 0.0000)">
</g>
        <g transform="matrix(0.0625 0.0000 0.0000 0.0625 0.0000 0.0000)">
          <path d="M 204.8276,52.9138 L 266.2759,52.9138 L 266.2759,1.7069 L 204.8276,1.7069 L 204.8276,52.9138 Z" stroke="#000000" stroke-width="1.1379" stroke-linecap="round" stroke-linejoin="round" fill="none"/>
        </g>
        <g transform="matrix(1.0000 0.0000 0.0000 1.0000 0.0000 0.0000)">
</g>
        <g transform="matrix(0.0625 0.0000 0.0000 0.0625 0.0000 0.0000)">
          <path d="M 208.0280,6.1164 L 208.0280,47.0819 L 263.1466,47.0819 L 263.1466,6.1164 L 208.0280,6.1164 Z" stroke-width="1px" stroke="#D8D8D8" fill="#D8D8D8"/>
        </g>
        <g transform="matrix(1.0000 0.0000 0.0000 1.0000 0.0000 0.0000)">
</g>
        <g transform="matrix(0.0625 0.0000 0.0000 0.0625 0.0000 0.0000)">
          <path d="M 208.0280,47.0819 L 263.1466,47.0819 L 263.1466,6.1164 L 208.0280,6.1164 L 208.0280,47.0819 Z" stroke="#000000" stroke-width="1.1379" stroke-linecap="round" stroke-linejoin="round" fill="none"/>
        </g>
        <g transform="matrix(1.0000 0.0000 0.0000 1.0000 0.0000 0.0000)">
</g>
        <g transform="matrix(0.0625 0.0000 0.0000 0.0625 0.0000 0.0000)">
          <path d="M 233.3470,39.1875 L 233.3470,25.8879 L 231.2134,25.8879 L 231.2134,22.1897 L 233.4892,22.1897 L 233.4892,18.0647 L 229.7909,18.0647 L 229.7909,13.7974 L 219.9763,13.7974 L 219.9763,18.0647 L 216.0647,18.0647 L 216.0647,22.1897 L 218.8384,22.1897 L 218.8384,25.8879 L 216.2069,25.8879 L 216.2069,39.1875 L 214.4289,39.1875 L 214.4289,42.8858 L 235.5517,42.8858 L 235.5517,39.1875 L 233.3470,39.1875 Z" stroke-width="1px" stroke="#BFBFBF" fill="#BFBFBF"/>
        </g>
        <g transform="matrix(1.0000 0.0000 0.0000 1.0000 0.0000 0.0000)">
</g>
        <g transform="matrix(0.0625 0.0000 0.0000 0.0625 0.0000 0.0000)">
          <path d="M 256.3190,39.1875 L 256.3190,25.8879 L 254.1853,25.8879 L 254.1853,22.1897 L 256.4612,22.1897 L 256.4612,18.0647 L 252.7629,18.0647 L 252.7629,13.7974 L 242.9483,13.7974 L 242.9483,18.0647 L 239.0366,18.0647 L 239.0366,22.1897 L 241.8103,22.1897 L 241.8103,25.8879 L 239.1789,25.8879 L 239.1789,39.1875 L 237.4009,39.1875 L 237.4009,42.8858 L 258.5237,42.8858 L 258.5237,39.1875 L 256.3190,39.1875 Z" stroke-width="1px" stroke="#BFBFBF" fill="#BFBFBF"/>
        </g>
        <g transform="matrix(1.0000 0.0000 0.0000 1.0000 0.0000 0.0000)">
</g>
        <g transform="matrix(0.0625 0.0000 0.0000 0.0625 0.0000 0.0000)">
          <path d="M 230.2888,33.7112 C 230.2888,30.7241 227.9418,28.3772 224.9547,28.3772 C 222.0388,28.3772 219.6918,30.7241 219.6918,33.7112 C 219.6918,36.6272 222.0388,38.9741 224.9547,38.9741 C 227.9418,38.9741 230.2888,36.6272 230.2888,33.7112 Z M 228.1552,33.7112 C 228.1552,35.4181 226.7328,36.8405 224.9547,36.8405 C 223.2478,36.8405 221.8254,35.4181 221.8254,33.7112 C 221.8254,31.9332 223.2478,30.5108 224.9547,30.5108 C 226.7328,30.5108 228.1552,31.9332 228.1552,33.7112 Z " fill="#BFBFBF" stroke="none"/>
        </g>
        <g transform="matrix(1.0000 0.0000 0.0000 1.0000 0.0000 0.0000)">
</g>
        <g transform="matrix(0.0625 0.0000 0.0000 0.0625 0.0000 0.0000)">
          <path d="M 230.2888,33.7112 C 230.2888,30.7241 227.9418,28.3772 224.9547,28.3772 C 222.0388,28.3772 219.6918,30.7241 219.6918,33.7112 C 219.6918,36.6272 222.0388,38.9741 224.9547,38.9741 C 227.9418,38.9741 230.2888,36.6272 230.2888,33.7112 Z M 228.1552,33.7112 C 228.1552,35.4181 226.7328,36.8405 224.9547,36.8405 C 223.2478,36.8405 221.8254,35.4181 221.8254,33.7112 C 221.8254,31.9332 223.2478,30.5108 224.9547,30.5108 C 226.7328,30.5108 228.1552,31.9332 228.1552,33.7112 Z " stroke="#000000" stroke-width="1.1379" stroke-linecap="round" stroke-linejoin="round" fill="none"/>
        </g>
        <g transform="matrix(1.0000 0.0000 0.0000 1.0000 0.0000 0.0000)">
</g>
        <g transform="matrix(0.0625 0.0000 0.0000 0.0625 0.0000 0.0000)">
          <path d="M 228.1552,33.7112 C 228.1552,31.9332 226.7328,30.5108 224.9547,30.5108 C 223.2478,30.5108 221.8254,31.9332 221.8254,33.7112 C 221.8254,35.4181 223.2478,36.8405 224.9547,36.8405 C 226.7328,36.8405 228.1552,35.4181 228.1552,33.7112 " fill="#404040" stroke="none"/>
        </g>
        <g transform="matrix(1.0000 0.0000 0.0000 1.0000 0.0000 0.0000)">
</g>
        <g transform="matrix(0.0625 0.0000 0.0000 0.0625 0.0000 0.0000)">
          <path d="M 228.1552,33.7112 M 228.1552,33.7112 C 228.1552,31.9332 226.7328,30.5108 224.9547,30.5108 C 223.2478,30.5108 221.8254,31.9332 221.8254,33.7112 C 221.8254,35.4181 223.2478,36.8405 224.9547,36.8405 C 226.7328,36.8405 228.1552,35.4181 228.1552,33.7112 " stroke="#000000" stroke-width="1.1379" stroke-linecap="round" stroke-linejoin="round" fill="none"/>
        </g>
        <g transform="matrix(1.0000 0.0000 0.0000 1.0000 0.0000 0.0000)">
</g>
        <g transform="matrix(0.0625 0.0000 0.0000 0.0625 0.0000 0.0000)">
          <path d="M 253.2608,33.7112 C 253.2608,30.7241 250.9138,28.3772 247.9267,28.3772 C 245.0108,28.3772 242.6638,30.7241 242.6638,33.7112 C 242.6638,36.6272 245.0108,38.9741 247.9267,38.9741 C 250.9138,38.9741 253.2608,36.6272 253.2608,33.7112 Z M 251.1272,33.7112 C 251.1272,35.4181 249.7047,36.8405 247.9267,36.8405 C 246.2198,36.8405 244.7974,35.4181 244.7974,33.7112 C 244.7974,31.9332 246.2198,30.5108 247.9267,30.5108 C 249.7047,30.5108 251.1272,31.9332 251.1272,33.7112 Z " fill="#BFBFBF" stroke="none"/>
        </g>
        <g transform="matrix(1.0000 0.0000 0.0000 1.0000 0.0000 0.0000)">
</g>
        <g transform="matrix(0.0625 0.0000 0.0000 0.0625 0.0000 0.0000)">
          <path d="M 253.2608,33.7112 C 253.2608,30.7241 250.9138,28.3772 247.9267,28.3772 C 245.0108,28.3772 242.6638,30.7241 242.6638,33.7112 C 242.6638,36.6272 245.0108,38.9741 247.9267,38.9741 C 250.9138,38.9741 253.2608,36.6272 253.2608,33.7112 Z M 251.1272,33.7112 C 251.1272,35.4181 249.7047,36.8405 247.9267,36.8405 C 246.2198,36.8405 244.7974,35.4181 244.7974,33.7112 C 244.7974,31.9332 246.2198,30.5108 247.9267,30.5108 C 249.7047,30.5108 251.1272,31.9332 251.1272,33.7112 Z " stroke="#000000" stroke-width="1.1379" stroke-linecap="round" stroke-linejoin="round" fill="none"/>
        </g>
        <g transform="matrix(1.0000 0.0000 0.0000 1.0000 0.0000 0.0000)">
</g>
        <g transform="matrix(0.0625 0.0000 0.0000 0.0625 0.0000 0.0000)">
          <path d="M 251.1272,33.7112 C 251.1272,31.9332 249.7047,30.5108 247.9267,30.5108 C 246.2198,30.5108 244.7974,31.9332 244.7974,33.7112 C 244.7974,35.4181 246.2198,36.8405 247.9267,36.8405 C 249.7047,36.8405 251.1272,35.4181 251.1272,33.7112 " fill="#404040" stroke="none"/>
        </g>
        <g transform="matrix(1.0000 0.0000 0.0000 1.0000 0.0000 0.0000)">
</g>
        <g transform="matrix(0.0625 0.0000 0.0000 0.0625 0.0000 0.0000)">
          <path d="M 251.1272,33.7112 M 251.1272,33.7112 C 251.1272,31.9332 249.7047,30.5108 247.9267,30.5108 C 246.2198,30.5108 244.7974,31.9332 244.7974,33.7112 C 244.7974,35.4181 246.2198,36.8405 247.9267,36.8405 C 249.7047,36.8405 251.1272,35.4181 251.1272,33.7112 " stroke="#000000" stroke-width="1.1379" stroke-linecap="round" stroke-linejoin="round" fill="none"/>
        </g>
        <g transform="matrix(1.0000 0.0000 0.0000 1.0000 0.0000 0.0000)">
</g>
      </g>
      <!--emf-blob end-->
    </g>
  </g>
</svg>
