<svg xmlns="http://www.w3.org/2000/svg" xmlns:xlink="http://www.w3.org/1999/xlink" version="1.1" width="10.5750000000" height="9.8569000000">
  <title><![CDATA[PWR-4430-AC]]></title>
  <g transform=" scale(1.000000) ">
    <!--converted by libvisio2svg-->
    <g transform=" translate(-0.172500,4.756000) ">
      <!--emf-blob start-->
      <g transform="translate(-0.0000, -0.0000)">
        <g transform="matrix(0.0625 0.0000 0.0000 0.0625 0.0000 0.0000)">
          <path d="M 2.2939,153.7529 L 2.2939,81.3134 C 2.2939,77.3292 5.5537,74.0694 9.5379,74.0694 L 22.2148,74.0694 L 22.2148,9.9604 C 22.2148,5.9159 25.4746,2.7165 29.4587,2.7165 L 130.8741,2.7165 C 134.9186,2.7165 138.1180,5.9159 138.1180,9.9604 L 138.1180,153.7529 C 138.1180,157.7371 134.9186,160.9968 130.8741,160.9968 L 9.5379,160.9968 C 5.5537,160.9968 2.2939,157.7371 2.2939,153.7529 Z " fill="#262626" stroke="none"/>
        </g>
        <g transform="matrix(1.0000 0.0000 0.0000 1.0000 0.0000 0.0000)">
</g>
        <g transform="matrix(0.0625 0.0000 0.0000 0.0625 0.0000 0.0000)">
          <path d="M 2.2939,153.7529 L 2.2939,81.3134 C 2.2939,77.3292 5.5537,74.0694 9.5379,74.0694 L 22.2148,74.0694 L 22.2148,9.9604 C 22.2148,5.9159 25.4746,2.7165 29.4587,2.7165 L 130.8741,2.7165 C 134.9186,2.7165 138.1180,5.9159 138.1180,9.9604 L 138.1180,153.7529 C 138.1180,157.7371 134.9186,160.9968 130.8741,160.9968 L 9.5379,160.9968 C 5.5537,160.9968 2.2939,157.7371 2.2939,153.7529 Z " stroke="#000000" stroke-width="1.9317" stroke-linecap="round" stroke-linejoin="round" fill="none"/>
        </g>
        <g transform="matrix(1.0000 0.0000 0.0000 1.0000 0.0000 0.0000)">
</g>
        <g transform="matrix(0.0625 0.0000 0.0000 0.0625 0.0000 0.0000)">
          <path d="M 100.0873,153.7529 L 100.0873,9.9604 C 100.0873,5.9159 103.3471,2.7165 107.3312,2.7165 L 163.4719,2.7165 C 167.5164,2.7165 170.7158,5.9159 170.7158,9.9604 L 170.7158,153.7529 C 170.7158,157.7371 167.5164,160.9968 163.4719,160.9968 L 107.3312,160.9968 C 103.3471,160.9968 100.0873,157.7371 100.0873,153.7529 Z " fill="#404040" stroke="none"/>
        </g>
        <g transform="matrix(1.0000 0.0000 0.0000 1.0000 0.0000 0.0000)">
</g>
        <g transform="matrix(0.0625 0.0000 0.0000 0.0625 0.0000 0.0000)">
          <path d="M 100.0873,153.7529 L 100.0873,9.9604 C 100.0873,5.9159 103.3471,2.7165 107.3312,2.7165 L 163.4719,2.7165 C 167.5164,2.7165 170.7158,5.9159 170.7158,9.9604 L 170.7158,153.7529 C 170.7158,157.7371 167.5164,160.9968 163.4719,160.9968 L 107.3312,160.9968 C 103.3471,160.9968 100.0873,157.7371 100.0873,153.7529 Z " stroke="#000000" stroke-width="1.9317" stroke-linecap="round" stroke-linejoin="round" fill="none"/>
        </g>
        <g transform="matrix(1.0000 0.0000 0.0000 1.0000 0.0000 0.0000)">
</g>
        <g transform="matrix(0.0625 0.0000 0.0000 0.0625 0.0000 0.0000)">
          <path d="M 29.4587,2.2939 L 130.2100,2.2939 C 134.2546,2.2939 137.4540,5.5537 137.4540,9.5379 L 137.4540,145.7845 C 137.4540,149.8291 134.2546,153.0285 130.2100,153.0285 L 29.4587,153.0285 C 25.4746,153.0285 22.2148,149.8291 22.2148,145.7845 L 22.2148,9.5379 C 22.2148,5.5537 25.4746,2.2939 29.4587,2.2939 Z " fill="#262626" stroke="none"/>
        </g>
        <g transform="matrix(1.0000 0.0000 0.0000 1.0000 0.0000 0.0000)">
</g>
        <g transform="matrix(0.0625 0.0000 0.0000 0.0625 0.0000 0.0000)">
          <path d="M 29.4587,2.2939 L 130.2100,2.2939 C 134.2546,2.2939 137.4540,5.5537 137.4540,9.5379 L 137.4540,145.7845 C 137.4540,149.8291 134.2546,153.0285 130.2100,153.0285 L 29.4587,153.0285 C 25.4746,153.0285 22.2148,149.8291 22.2148,145.7845 L 22.2148,9.5379 C 22.2148,5.5537 25.4746,2.2939 29.4587,2.2939 Z " stroke="#000000" stroke-width="1.9317" stroke-linecap="round" stroke-linejoin="round" fill="none"/>
        </g>
        <g transform="matrix(1.0000 0.0000 0.0000 1.0000 0.0000 0.0000)">
</g>
        <g transform="matrix(0.0625 0.0000 0.0000 0.0625 0.0000 0.0000)">
          <path d="M 37.8497,36.2198 L 37.8497,119.1630 C 37.8497,128.7613 45.6369,136.5485 55.2351,136.5485 L 82.0981,136.5485 C 86.1427,136.5485 90.1268,135.1601 93.2055,132.5040 L 115.6618,113.7904 C 119.5856,110.4703 121.8795,105.5806 121.8795,100.4495 L 121.8795,54.9333 C 121.8795,49.8022 119.5856,44.9125 115.6618,41.5924 L 93.2055,22.8788 C 90.1268,20.2227 86.1427,18.8343 82.0981,18.8343 L 55.2351,18.8343 C 45.6369,18.8343 37.8497,26.6215 37.8497,36.2198 Z " fill="#000000" stroke="none"/>
        </g>
        <g transform="matrix(1.0000 0.0000 0.0000 1.0000 0.0000 0.0000)">
</g>
        <g transform="matrix(0.0625 0.0000 0.0000 0.0625 0.0000 0.0000)">
          <path d="M 37.8497,36.2198 L 37.8497,119.1630 C 37.8497,128.7613 45.6369,136.5485 55.2351,136.5485 L 82.0981,136.5485 C 86.1427,136.5485 90.1268,135.1601 93.2055,132.5040 L 115.6618,113.7904 C 119.5856,110.4703 121.8795,105.5806 121.8795,100.4495 L 121.8795,54.9333 C 121.8795,49.8022 119.5856,44.9125 115.6618,41.5924 L 93.2055,22.8788 C 90.1268,20.2227 86.1427,18.8343 82.0981,18.8343 L 55.2351,18.8343 C 45.6369,18.8343 37.8497,26.6215 37.8497,36.2198 Z " stroke="#000000" stroke-width="1.1470" stroke-linecap="round" stroke-linejoin="round" fill="none"/>
        </g>
        <g transform="matrix(1.0000 0.0000 0.0000 1.0000 0.0000 0.0000)">
</g>
        <g transform="matrix(0.0625 0.0000 0.0000 0.0625 0.0000 0.0000)">
          <path d="M 57.4687,45.9387 L 57.4687,53.5449 C 57.4687,53.6052 57.5291,53.6656 57.5894,53.6656 L 73.4054,53.6656 C 73.4658,53.6656 73.4658,53.6052 73.4658,53.5449 L 73.4658,45.9387 C 73.4658,45.8784 73.4658,45.8180 73.4054,45.8180 L 57.5894,45.8180 C 57.5291,45.8180 57.4687,45.8784 57.4687,45.9387 Z " fill="#B2B2B2" stroke="none"/>
        </g>
        <g transform="matrix(1.0000 0.0000 0.0000 1.0000 0.0000 0.0000)">
</g>
        <g transform="matrix(0.0625 0.0000 0.0000 0.0625 0.0000 0.0000)">
          <path d="M 57.4687,45.9387 L 57.4687,53.5449 C 57.4687,53.6052 57.5291,53.6656 57.5894,53.6656 L 73.4054,53.6656 C 73.4658,53.6656 73.4658,53.6052 73.4658,53.5449 L 73.4658,45.9387 C 73.4658,45.8784 73.4658,45.8180 73.4054,45.8180 L 57.5894,45.8180 C 57.5291,45.8180 57.4687,45.8784 57.4687,45.9387 Z " stroke="#DDDDDD" stroke-width="0.9659" stroke-linecap="round" stroke-linejoin="round" fill="none"/>
        </g>
        <g transform="matrix(1.0000 0.0000 0.0000 1.0000 0.0000 0.0000)">
</g>
        <g transform="matrix(0.0625 0.0000 0.0000 0.0625 0.0000 0.0000)">
          <path d="M 73.1036,45.8180 L 69.8438,48.1119 " stroke="#DDDDDD" stroke-width="0.9659" stroke-linecap="round" stroke-linejoin="round" fill="none"/>
        </g>
        <g transform="matrix(1.0000 0.0000 0.0000 1.0000 0.0000 0.0000)">
</g>
        <g transform="matrix(0.0625 0.0000 0.0000 0.0625 0.0000 0.0000)">
          <path d="M 69.7230,51.3113 L 73.0432,53.6052 " stroke="#DDDDDD" stroke-width="0.9659" stroke-linecap="round" stroke-linejoin="round" fill="none"/>
        </g>
        <g transform="matrix(1.0000 0.0000 0.0000 1.0000 0.0000 0.0000)">
</g>
        <g transform="matrix(0.0625 0.0000 0.0000 0.0625 0.0000 0.0000)">
          <path d="M 58.0724,45.8180 L 61.3321,48.1119 " stroke="#DDDDDD" stroke-width="0.9659" stroke-linecap="round" stroke-linejoin="round" fill="none"/>
        </g>
        <g transform="matrix(1.0000 0.0000 0.0000 1.0000 0.0000 0.0000)">
</g>
        <g transform="matrix(0.0625 0.0000 0.0000 0.0625 0.0000 0.0000)">
          <path d="M 61.4529,51.3113 L 58.1931,53.6052 " stroke="#DDDDDD" stroke-width="0.9659" stroke-linecap="round" stroke-linejoin="round" fill="none"/>
        </g>
        <g transform="matrix(1.0000 0.0000 0.0000 1.0000 0.0000 0.0000)">
</g>
        <g transform="matrix(0.0625 0.0000 0.0000 0.0625 0.0000 0.0000)">
          <path d="M 61.3925,48.3534 L 61.3925,51.2510 C 61.3925,51.3113 61.4529,51.3717 61.5132,51.3717 L 69.6627,51.3717 C 69.7230,51.3717 69.7230,51.3113 69.7230,51.2510 L 69.7230,48.3534 C 69.7230,48.2930 69.7230,48.2327 69.6627,48.2327 L 61.5132,48.2327 C 61.4529,48.2327 61.3925,48.2930 61.3925,48.3534 Z " fill="#DDDDDD" stroke="none"/>
        </g>
        <g transform="matrix(1.0000 0.0000 0.0000 1.0000 0.0000 0.0000)">
</g>
        <g transform="matrix(0.0625 0.0000 0.0000 0.0625 0.0000 0.0000)">
          <path d="M 61.3925,48.3534 L 61.3925,51.2510 C 61.3925,51.3113 61.4529,51.3717 61.5132,51.3717 L 69.6627,51.3717 C 69.7230,51.3717 69.7230,51.3113 69.7230,51.2510 L 69.7230,48.3534 C 69.7230,48.2930 69.7230,48.2327 69.6627,48.2327 L 61.5132,48.2327 C 61.4529,48.2327 61.3925,48.2930 61.3925,48.3534 Z " stroke="#DDDDDD" stroke-width="0.9659" stroke-linecap="round" stroke-linejoin="round" fill="none"/>
        </g>
        <g transform="matrix(1.0000 0.0000 0.0000 1.0000 0.0000 0.0000)">
</g>
        <g transform="matrix(0.0625 0.0000 0.0000 0.0625 0.0000 0.0000)">
          <path d="M 57.4687,102.0794 L 57.4687,109.6252 C 57.4687,109.7459 57.5291,109.7459 57.5894,109.7459 L 73.4054,109.7459 C 73.4658,109.7459 73.4658,109.7459 73.4658,109.6252 L 73.4658,102.0794 C 73.4658,102.0190 73.4658,101.9586 73.4054,101.9586 L 57.5894,101.9586 C 57.5291,101.9586 57.4687,102.0190 57.4687,102.0794 Z " fill="#B2B2B2" stroke="none"/>
        </g>
        <g transform="matrix(1.0000 0.0000 0.0000 1.0000 0.0000 0.0000)">
</g>
        <g transform="matrix(0.0625 0.0000 0.0000 0.0625 0.0000 0.0000)">
          <path d="M 57.4687,102.0794 L 57.4687,109.6252 C 57.4687,109.7459 57.5291,109.7459 57.5894,109.7459 L 73.4054,109.7459 C 73.4658,109.7459 73.4658,109.7459 73.4658,109.6252 L 73.4658,102.0794 C 73.4658,102.0190 73.4658,101.9586 73.4054,101.9586 L 57.5894,101.9586 C 57.5291,101.9586 57.4687,102.0190 57.4687,102.0794 Z " stroke="#DDDDDD" stroke-width="0.9659" stroke-linecap="round" stroke-linejoin="round" fill="none"/>
        </g>
        <g transform="matrix(1.0000 0.0000 0.0000 1.0000 0.0000 0.0000)">
</g>
        <g transform="matrix(0.0625 0.0000 0.0000 0.0625 0.0000 0.0000)">
          <path d="M 73.1036,101.9586 L 69.8438,104.2526 " stroke="#DDDDDD" stroke-width="0.9659" stroke-linecap="round" stroke-linejoin="round" fill="none"/>
        </g>
        <g transform="matrix(1.0000 0.0000 0.0000 1.0000 0.0000 0.0000)">
</g>
        <g transform="matrix(0.0625 0.0000 0.0000 0.0625 0.0000 0.0000)">
          <path d="M 69.7230,107.4520 L 73.0432,109.7459 " stroke="#DDDDDD" stroke-width="0.9659" stroke-linecap="round" stroke-linejoin="round" fill="none"/>
        </g>
        <g transform="matrix(1.0000 0.0000 0.0000 1.0000 0.0000 0.0000)">
</g>
        <g transform="matrix(0.0625 0.0000 0.0000 0.0625 0.0000 0.0000)">
          <path d="M 58.0724,101.9586 L 61.3321,104.2526 " stroke="#DDDDDD" stroke-width="0.9659" stroke-linecap="round" stroke-linejoin="round" fill="none"/>
        </g>
        <g transform="matrix(1.0000 0.0000 0.0000 1.0000 0.0000 0.0000)">
</g>
        <g transform="matrix(0.0625 0.0000 0.0000 0.0625 0.0000 0.0000)">
          <path d="M 61.4529,107.4520 L 58.1931,109.7459 " stroke="#DDDDDD" stroke-width="0.9659" stroke-linecap="round" stroke-linejoin="round" fill="none"/>
        </g>
        <g transform="matrix(1.0000 0.0000 0.0000 1.0000 0.0000 0.0000)">
</g>
        <g transform="matrix(0.0625 0.0000 0.0000 0.0625 0.0000 0.0000)">
          <path d="M 61.3925,104.4940 L 61.3925,107.3312 C 61.3925,107.4520 61.4529,107.4520 61.5132,107.4520 L 69.6627,107.4520 C 69.7230,107.4520 69.7230,107.4520 69.7230,107.3312 L 69.7230,104.4940 C 69.7230,104.4337 69.7230,104.3733 69.6627,104.3733 L 61.5132,104.3733 C 61.4529,104.3733 61.3925,104.4337 61.3925,104.4940 Z " fill="#DDDDDD" stroke="none"/>
        </g>
        <g transform="matrix(1.0000 0.0000 0.0000 1.0000 0.0000 0.0000)">
</g>
        <g transform="matrix(0.0625 0.0000 0.0000 0.0625 0.0000 0.0000)">
          <path d="M 61.3925,104.4940 L 61.3925,107.3312 C 61.3925,107.4520 61.4529,107.4520 61.5132,107.4520 L 69.6627,107.4520 C 69.7230,107.4520 69.7230,107.4520 69.7230,107.3312 L 69.7230,104.4940 C 69.7230,104.4337 69.7230,104.3733 69.6627,104.3733 L 61.5132,104.3733 C 61.4529,104.3733 61.3925,104.4337 61.3925,104.4940 Z " stroke="#DDDDDD" stroke-width="0.9659" stroke-linecap="round" stroke-linejoin="round" fill="none"/>
        </g>
        <g transform="matrix(1.0000 0.0000 0.0000 1.0000 0.0000 0.0000)">
</g>
        <g transform="matrix(0.0625 0.0000 0.0000 0.0625 0.0000 0.0000)">
          <path d="M 79.9853,74.0090 L 79.9853,81.5548 C 79.9853,81.6152 80.0457,81.6756 80.1060,81.6756 L 95.8616,81.6756 C 95.9220,81.6756 95.9824,81.6152 95.9824,81.5548 L 95.9824,74.0090 C 95.9824,73.9487 95.9220,73.8883 95.8616,73.8883 L 80.1060,73.8883 C 80.0457,73.8883 79.9853,73.9487 79.9853,74.0090 Z " fill="#B2B2B2" stroke="none"/>
        </g>
        <g transform="matrix(1.0000 0.0000 0.0000 1.0000 0.0000 0.0000)">
</g>
        <g transform="matrix(0.0625 0.0000 0.0000 0.0625 0.0000 0.0000)">
          <path d="M 79.9853,74.0090 L 79.9853,81.5548 C 79.9853,81.6152 80.0457,81.6756 80.1060,81.6756 L 95.8616,81.6756 C 95.9220,81.6756 95.9824,81.6152 95.9824,81.5548 L 95.9824,74.0090 C 95.9824,73.9487 95.9220,73.8883 95.8616,73.8883 L 80.1060,73.8883 C 80.0457,73.8883 79.9853,73.9487 79.9853,74.0090 Z " stroke="#DDDDDD" stroke-width="0.9659" stroke-linecap="round" stroke-linejoin="round" fill="none"/>
        </g>
        <g transform="matrix(1.0000 0.0000 0.0000 1.0000 0.0000 0.0000)">
</g>
        <g transform="matrix(0.0625 0.0000 0.0000 0.0625 0.0000 0.0000)">
          <path d="M 95.6202,73.8883 L 92.3604,76.1822 " stroke="#DDDDDD" stroke-width="0.9659" stroke-linecap="round" stroke-linejoin="round" fill="none"/>
        </g>
        <g transform="matrix(1.0000 0.0000 0.0000 1.0000 0.0000 0.0000)">
</g>
        <g transform="matrix(0.0625 0.0000 0.0000 0.0625 0.0000 0.0000)">
          <path d="M 92.2397,79.3816 L 95.4994,81.6152 " stroke="#DDDDDD" stroke-width="0.9659" stroke-linecap="round" stroke-linejoin="round" fill="none"/>
        </g>
        <g transform="matrix(1.0000 0.0000 0.0000 1.0000 0.0000 0.0000)">
</g>
        <g transform="matrix(0.0625 0.0000 0.0000 0.0625 0.0000 0.0000)">
          <path d="M 80.5890,73.8883 L 83.8488,76.1822 " stroke="#DDDDDD" stroke-width="0.9659" stroke-linecap="round" stroke-linejoin="round" fill="none"/>
        </g>
        <g transform="matrix(1.0000 0.0000 0.0000 1.0000 0.0000 0.0000)">
</g>
        <g transform="matrix(0.0625 0.0000 0.0000 0.0625 0.0000 0.0000)">
          <path d="M 83.9695,79.3816 L 80.7097,81.6152 " stroke="#DDDDDD" stroke-width="0.9659" stroke-linecap="round" stroke-linejoin="round" fill="none"/>
        </g>
        <g transform="matrix(1.0000 0.0000 0.0000 1.0000 0.0000 0.0000)">
</g>
        <g transform="matrix(0.0625 0.0000 0.0000 0.0625 0.0000 0.0000)">
          <path d="M 83.9091,76.4237 L 83.9091,79.2609 C 83.9091,79.3213 83.9091,79.3816 84.0299,79.3816 L 92.1189,79.3816 C 92.1793,79.3816 92.2397,79.3213 92.2397,79.2609 L 92.2397,76.4237 C 92.2397,76.3030 92.1793,76.3030 92.1189,76.3030 L 84.0299,76.3030 C 83.9091,76.3030 83.9091,76.3030 83.9091,76.4237 Z " fill="#DDDDDD" stroke="none"/>
        </g>
        <g transform="matrix(1.0000 0.0000 0.0000 1.0000 0.0000 0.0000)">
</g>
        <g transform="matrix(0.0625 0.0000 0.0000 0.0625 0.0000 0.0000)">
          <path d="M 83.9091,76.4237 L 83.9091,79.2609 C 83.9091,79.3213 83.9091,79.3816 84.0299,79.3816 L 92.1189,79.3816 C 92.1793,79.3816 92.2397,79.3213 92.2397,79.2609 L 92.2397,76.4237 C 92.2397,76.3030 92.1793,76.3030 92.1189,76.3030 L 84.0299,76.3030 C 83.9091,76.3030 83.9091,76.3030 83.9091,76.4237 Z " stroke="#DDDDDD" stroke-width="0.9659" stroke-linecap="round" stroke-linejoin="round" fill="none"/>
        </g>
        <g transform="matrix(1.0000 0.0000 0.0000 1.0000 0.0000 0.0000)">
</g>
        <g transform="matrix(0.0625 0.0000 0.0000 0.0625 0.0000 0.0000)">
          <path d="M 138.1180,37.8497 L 138.1180,119.3441 L 168.9048,119.3441 L 168.9048,37.8497 L 138.1180,37.8497 Z" stroke-width="1px" stroke="#000000" fill="#000000"/>
        </g>
        <g transform="matrix(1.0000 0.0000 0.0000 1.0000 0.0000 0.0000)">
</g>
        <g transform="matrix(0.0625 0.0000 0.0000 0.0625 0.0000 0.0000)">
          <path d="M 138.1180,119.3441 L 168.9048,119.3441 L 168.9048,37.8497 L 138.1180,37.8497 L 138.1180,119.3441 Z" stroke="#000000" stroke-width="1.1470" stroke-linecap="round" stroke-linejoin="round" fill="none"/>
        </g>
        <g transform="matrix(1.0000 0.0000 0.0000 1.0000 0.0000 0.0000)">
</g>
        <g transform="matrix(0.0625 0.0000 0.0000 0.0625 0.0000 0.0000)">
          <path d="M 138.1180,113.9112 L 138.1180,119.3441 L 163.4719,119.3441 L 163.4719,113.9112 L 138.1180,113.9112 Z" stroke-width="1px" stroke="#262626" fill="#262626"/>
        </g>
        <g transform="matrix(1.0000 0.0000 0.0000 1.0000 0.0000 0.0000)">
</g>
        <g transform="matrix(0.0625 0.0000 0.0000 0.0625 0.0000 0.0000)">
          <path d="M 138.1180,119.3441 L 163.4719,119.3441 L 163.4719,113.9112 L 138.1180,113.9112 L 138.1180,119.3441 Z" stroke="#000000" stroke-width="1.1470" stroke-linecap="round" stroke-linejoin="round" fill="none"/>
        </g>
        <g transform="matrix(1.0000 0.0000 0.0000 1.0000 0.0000 0.0000)">
          <path d="M 8.6324,2.6561 L 8.6324,7.1232 L 8.6927,7.1232 L 8.6927,2.6561 L 8.6324,2.6561 Z" stroke-width="1px" stroke="#A6A6A6" fill="#A6A6A6"/>
          <path d="M 8.6927,2.6561 L 8.6927,7.1232 L 8.8135,7.1232 L 8.8135,2.6561 L 8.6927,2.6561 Z" stroke-width="1px" stroke="#A5A5A5" fill="#A5A5A5"/>
          <path d="M 8.8135,2.6561 L 8.8135,7.1232 L 8.9342,7.1232 L 8.9342,2.6561 L 8.8135,2.6561 Z" stroke-width="1px" stroke="#A4A4A4" fill="#A4A4A4"/>
          <path d="M 8.9342,2.6561 L 8.9342,7.1232 L 8.9946,7.1232 L 8.9946,2.6561 L 8.9342,2.6561 Z" stroke-width="1px" stroke="#A3A3A3" fill="#A3A3A3"/>
          <path d="M 8.9946,2.6561 L 8.9946,7.1232 L 9.0549,7.1232 L 9.0549,2.6561 L 8.9946,2.6561 Z" stroke-width="1px" stroke="#A2A2A2" fill="#A2A2A2"/>
          <path d="M 9.0549,2.6561 L 9.0549,7.1232 L 9.1153,7.1232 L 9.1153,2.6561 L 9.0549,2.6561 Z" stroke-width="1px" stroke="#A1A1A1" fill="#A1A1A1"/>
          <path d="M 9.1153,2.6561 L 9.1153,7.1232 L 9.1757,7.1232 L 9.1757,2.6561 L 9.1153,2.6561 Z" stroke-width="1px" stroke="#9F9F9F" fill="#9F9F9F"/>
          <path d="M 9.1757,2.6561 L 9.1757,7.1232 L 9.2360,7.1232 L 9.2360,2.6561 L 9.1757,2.6561 Z" stroke-width="1px" stroke="#9E9E9E" fill="#9E9E9E"/>
          <path d="M 9.2360,2.6561 L 9.2360,7.1232 L 9.2964,7.1232 L 9.2964,2.6561 L 9.2360,2.6561 Z" stroke-width="1px" stroke="#9C9C9C" fill="#9C9C9C"/>
          <path d="M 9.2964,2.6561 L 9.2964,7.1232 L 9.3568,7.1232 L 9.3568,2.6561 L 9.2964,2.6561 Z" stroke-width="1px" stroke="#9A9A9A" fill="#9A9A9A"/>
          <path d="M 9.3568,2.6561 L 9.3568,7.1232 L 9.4171,7.1232 L 9.4171,2.6561 L 9.3568,2.6561 Z" stroke-width="1px" stroke="#989898" fill="#989898"/>
          <path d="M 9.4171,2.6561 L 9.4171,7.1232 L 9.4775,7.1232 L 9.4775,2.6561 L 9.4171,2.6561 Z" stroke-width="1px" stroke="#959595" fill="#959595"/>
          <path d="M 9.4775,2.6561 L 9.4775,7.1232 L 9.5379,7.1232 L 9.5379,2.6561 L 9.4775,2.6561 Z" stroke-width="1px" stroke="#939393" fill="#939393"/>
          <path d="M 9.5379,2.6561 L 9.5379,7.1232 L 9.5982,7.1232 L 9.5982,2.6561 L 9.5379,2.6561 Z" stroke-width="1px" stroke="#909090" fill="#909090"/>
          <path d="M 9.5982,2.6561 L 9.5982,7.1232 L 9.6586,7.1232 L 9.6586,2.6561 L 9.5982,2.6561 Z" stroke-width="1px" stroke="#8E8E8E" fill="#8E8E8E"/>
          <path d="M 9.6586,2.6561 L 9.6586,7.1232 L 9.7190,7.1232 L 9.7190,2.6561 L 9.6586,2.6561 Z" stroke-width="1px" stroke="#8B8B8B" fill="#8B8B8B"/>
          <path d="M 9.7190,2.6561 L 9.7190,7.1232 L 9.7793,7.1232 L 9.7793,2.6561 L 9.7190,2.6561 Z" stroke-width="1px" stroke="#888888" fill="#888888"/>
          <path d="M 9.7793,2.6561 L 9.7793,7.1232 L 9.8397,7.1232 L 9.8397,2.6561 L 9.7793,2.6561 Z" stroke-width="1px" stroke="#868686" fill="#868686"/>
          <path d="M 9.8397,2.6561 L 9.8397,7.1232 L 9.9001,7.1232 L 9.9001,2.6561 L 9.8397,2.6561 Z" stroke-width="1px" stroke="#838383" fill="#838383"/>
          <path d="M 9.9001,2.6561 L 9.9001,7.1232 L 9.9604,7.1232 L 9.9604,2.6561 L 9.9001,2.6561 Z" stroke-width="1px" stroke="#818181" fill="#818181"/>
          <path d="M 9.9604,2.6561 L 9.9604,7.1232 L 10.0208,7.1232 L 10.0208,2.6561 L 9.9604,2.6561 Z" stroke-width="1px" stroke="#7F7F7F" fill="#7F7F7F"/>
          <path d="M 10.0208,2.6561 L 10.0208,7.1232 L 10.0812,7.1232 L 10.0812,2.6561 L 10.0208,2.6561 Z" stroke-width="1px" stroke="#7C7C7C" fill="#7C7C7C"/>
          <path d="M 10.0812,2.6561 L 10.0812,7.1232 L 10.1415,7.1232 L 10.1415,2.6561 L 10.0812,2.6561 Z" stroke-width="1px" stroke="#7B7B7B" fill="#7B7B7B"/>
          <path d="M 10.1415,2.6561 L 10.1415,7.1232 L 10.2019,7.1232 L 10.2019,2.6561 L 10.1415,2.6561 Z" stroke-width="1px" stroke="#797979" fill="#797979"/>
          <path d="M 10.2019,2.6561 L 10.2019,7.1232 L 10.2623,7.1232 L 10.2623,2.6561 L 10.2019,2.6561 Z" stroke-width="1px" stroke="#777777" fill="#777777"/>
          <path d="M 10.2623,2.6561 L 10.2623,7.1232 L 10.3226,7.1232 L 10.3226,2.6561 L 10.2623,2.6561 Z" stroke-width="1px" stroke="#767676" fill="#767676"/>
          <path d="M 10.3226,2.6561 L 10.3226,7.1232 L 10.3830,7.1232 L 10.3830,2.6561 L 10.3226,2.6561 Z" stroke-width="1px" stroke="#757575" fill="#757575"/>
          <path d="M 10.3830,2.6561 L 10.3830,7.1232 L 10.5037,7.1232 L 10.5037,2.6561 L 10.3830,2.6561 Z" stroke-width="1px" stroke="#747474" fill="#747474"/>
          <path d="M 10.5037,2.6561 L 10.5037,7.1232 L 10.5641,7.1232 L 10.5641,2.6561 L 10.5037,2.6561 Z" stroke-width="1px" stroke="#737373" fill="#737373"/>
        </g>
        <g transform="matrix(0.0625 0.0000 0.0000 0.0625 0.0000 0.0000)">
          <path d="M 168.9048,42.7997 L 138.1180,42.7997 L 138.1180,113.9112 L 168.9048,113.9112 L 168.9048,42.7997 Z" stroke="#000000" stroke-width="1.1470" stroke-linecap="round" stroke-linejoin="round" fill="none"/>
        </g>
        <g transform="matrix(1.0000 0.0000 0.0000 1.0000 0.0000 0.0000)">
</g>
        <g transform="matrix(0.0625 0.0000 0.0000 0.0625 0.0000 0.0000)">
          <path d="M 135.5826,37.9704 C 153.4511,61.5132 153.4511,94.0507 135.5826,117.5331 L 135.5826,37.9704 Z " fill="#262626" stroke="none"/>
        </g>
        <g transform="matrix(1.0000 0.0000 0.0000 1.0000 0.0000 0.0000)">
</g>
        <g transform="matrix(0.0625 0.0000 0.0000 0.0625 0.0000 0.0000)">
          <path d="M 135.5826,37.9704 C 153.4511,61.5132 153.4511,94.0507 135.5826,117.5331 L 135.5826,37.9704 Z " stroke="#000000" stroke-width="1.1470" stroke-linecap="round" stroke-linejoin="round" fill="none"/>
        </g>
        <g transform="matrix(1.0000 0.0000 0.0000 1.0000 0.0000 0.0000)">
</g>
        <g transform="matrix(16.0000 0.0000 0.0000 16.0000 0.0000 0.0000)">
          <path d="M 125.3204,117.5331 L 134.6772,117.5331 C 136.6089,117.5331 138.1180,115.9636 138.1180,114.0319 L 138.1180,41.3509 C 138.1180,39.4192 136.6089,37.8497 134.6772,37.8497 L 125.3204,37.8497 C 123.3887,37.8497 121.8191,39.4192 121.8191,41.3509 L 121.8191,114.0319 C 121.8191,115.9636 123.3887,117.5331 125.3204,117.5331 Z " fill="none" stroke="none"/>
        </g>
        <g transform="matrix(1.0000 0.0000 0.0000 1.0000 0.0000 0.0000)">
          <defs>
            <clipPath id="clip-415675634">
              <path d="M 125.3204,117.5331 L 134.6772,117.5331 C 136.6089,117.5331 138.1180,115.9636 138.1180,114.0319 L 138.1180,41.3509 C 138.1180,39.4192 136.6089,37.8497 134.6772,37.8497 L 125.3204,37.8497 C 123.3887,37.8497 121.8191,39.4192 121.8191,41.3509 L 121.8191,114.0319 C 121.8191,115.9636 123.3887,117.5331 125.3204,117.5331 Z"/>
            </clipPath>
          </defs>
          <path clip-path="url(#clip-415675634)" d="M 7.6062,2.3543 L 7.6062,7.4251 L 7.6665,7.4251 L 7.6665,2.3543 L 7.6062,2.3543 Z" stroke-width="1px" stroke="#272727" fill="#272727"/>
          <path clip-path="url(#clip-415675634)" d="M 7.6665,2.3543 L 7.6665,7.4251 L 7.7269,7.4251 L 7.7269,2.3543 L 7.6665,2.3543 Z" stroke-width="1px" stroke="#2B2B2B" fill="#2B2B2B"/>
          <path clip-path="url(#clip-415675634)" d="M 7.7269,2.3543 L 7.7269,7.4251 L 7.7872,7.4251 L 7.7872,2.3543 L 7.7269,2.3543 Z" stroke-width="1px" stroke="#2E2E2E" fill="#2E2E2E"/>
          <path clip-path="url(#clip-415675634)" d="M 7.7872,2.3543 L 7.7872,7.4251 L 7.8476,7.4251 L 7.8476,2.3543 L 7.7872,2.3543 Z" stroke-width="1px" stroke="#323232" fill="#323232"/>
          <path clip-path="url(#clip-415675634)" d="M 7.8476,2.3543 L 7.8476,7.4251 L 7.9080,7.4251 L 7.9080,2.3543 L 7.8476,2.3543 Z" stroke-width="1px" stroke="#353535" fill="#353535"/>
          <path clip-path="url(#clip-415675634)" d="M 7.9080,2.3543 L 7.9080,7.4251 L 7.9683,7.4251 L 7.9683,2.3543 L 7.9080,2.3543 Z" stroke-width="1px" stroke="#393939" fill="#393939"/>
          <path clip-path="url(#clip-415675634)" d="M 7.9683,2.3543 L 7.9683,7.4251 L 8.0287,7.4251 L 8.0287,2.3543 L 7.9683,2.3543 Z" stroke-width="1px" stroke="#3D3D3D" fill="#3D3D3D"/>
          <path clip-path="url(#clip-415675634)" d="M 8.0287,2.3543 L 8.0287,7.4251 L 8.0891,7.4251 L 8.0891,2.3543 L 8.0287,2.3543 Z" stroke-width="1px" stroke="#404040" fill="#404040"/>
          <path clip-path="url(#clip-415675634)" d="M 8.0891,2.3543 L 8.0891,7.4251 L 8.1494,7.4251 L 8.1494,2.3543 L 8.0891,2.3543 Z" stroke-width="1px" stroke="#444444" fill="#444444"/>
          <path clip-path="url(#clip-415675634)" d="M 8.1494,2.3543 L 8.1494,7.4251 L 8.2098,7.4251 L 8.2098,2.3543 L 8.1494,2.3543 Z" stroke-width="1px" stroke="#414141" fill="#414141"/>
          <path clip-path="url(#clip-415675634)" d="M 8.2098,2.3543 L 8.2098,7.4251 L 8.2702,7.4251 L 8.2702,2.3543 L 8.2098,2.3543 Z" stroke-width="1px" stroke="#3D3D3D" fill="#3D3D3D"/>
          <path clip-path="url(#clip-415675634)" d="M 8.2702,2.3543 L 8.2702,7.4251 L 8.3305,7.4251 L 8.3305,2.3543 L 8.2702,2.3543 Z" stroke-width="1px" stroke="#393939" fill="#393939"/>
          <path clip-path="url(#clip-415675634)" d="M 8.3305,2.3543 L 8.3305,7.4251 L 8.3909,7.4251 L 8.3909,2.3543 L 8.3305,2.3543 Z" stroke-width="1px" stroke="#363636" fill="#363636"/>
          <path clip-path="url(#clip-415675634)" d="M 8.3909,2.3543 L 8.3909,7.4251 L 8.4513,7.4251 L 8.4513,2.3543 L 8.3909,2.3543 Z" stroke-width="1px" stroke="#323232" fill="#323232"/>
          <path clip-path="url(#clip-415675634)" d="M 8.4513,2.3543 L 8.4513,7.4251 L 8.5116,7.4251 L 8.5116,2.3543 L 8.4513,2.3543 Z" stroke-width="1px" stroke="#2E2E2E" fill="#2E2E2E"/>
          <path clip-path="url(#clip-415675634)" d="M 8.5116,2.3543 L 8.5116,7.4251 L 8.5720,7.4251 L 8.5720,2.3543 L 8.5116,2.3543 Z" stroke-width="1px" stroke="#2B2B2B" fill="#2B2B2B"/>
          <path clip-path="url(#clip-415675634)" d="M 8.5720,2.3543 L 8.5720,7.4251 L 8.6927,7.4251 L 8.6927,2.3543 L 8.5720,2.3543 Z" stroke-width="1px" stroke="#272727" fill="#272727"/>
        </g>
        <g transform="matrix(0.0625 0.0000 0.0000 0.0625 0.0000 0.0000)">
          <path d="M 125.3204,117.5331 L 134.6772,117.5331 C 136.6089,117.5331 138.1180,115.9636 138.1180,114.0319 L 138.1180,41.3509 C 138.1180,39.4192 136.6089,37.8497 134.6772,37.8497 L 125.3204,37.8497 C 123.3887,37.8497 121.8191,39.4192 121.8191,41.3509 L 121.8191,114.0319 C 121.8191,115.9636 123.3887,117.5331 125.3204,117.5331 Z " stroke="#000000" stroke-width="1.1470" stroke-linecap="round" stroke-linejoin="round" fill="none"/>
        </g>
        <g transform="matrix(1.0000 0.0000 0.0000 1.0000 0.0000 0.0000)">
</g>
      </g>
      <!--emf-blob end-->
    </g>
  </g>
</svg>
