<svg xmlns="http://www.w3.org/2000/svg" xmlns:xlink="http://www.w3.org/1999/xlink" version="1.1" width="126.0000000000" height="12.4560000000">
  <title><![CDATA[WS-C3750G-12S-S-Front]]></title>
  <g transform=" scale(1.000000) ">
    <!--converted by libvisio2svg-->
    <g transform=" translate(0.000000,0.000000) ">
      <!--wmf-blob start-->
      <g>
        <polygon points="0.121290,11.988258   125.878708,11.988258 125.878708,0.011742 0.121290,0.011742 0.121290,11.988258 " style="fill-opacity:1.0; fill-rule:evenodd; fill:darkslategray; stroke-width:0.023751; stroke-linecap:round; stroke-linejoin:round; stroke-dasharray:none; stroke:black"/>
        <polygon points="7.686910,11.518591   124.485672,11.518591 124.485672,2.313112 7.686910,2.313112 7.686910,11.518591 " style="fill-opacity:1.0; fill-rule:evenodd; fill:gainsboro; stroke-width:0.023751; stroke-linecap:round; stroke-linejoin:round; stroke-dasharray:none; stroke:gainsboro"/>
        <polygon points="0.577629,11.518591   6.389947,11.518591 6.389947,0.786693 0.577629,0.786693 0.577629,11.518591 " style="fill-opacity:1.0; fill-rule:evenodd; fill:white; stroke-width:0.071252; stroke-linecap:round; stroke-linejoin:round; stroke-dasharray:none; stroke:white"/>
        <polyline points="8.143250,0.598826   90.044090,0.598826 91.509178,0.904110 92.974266,1.162427 94.415337,1.397260   95.928459,1.632094 97.441582,1.819961 98.930695,1.984344 100.443817,2.101761   101.980957,2.195695 103.494080,2.266145 105.007210,2.313112 124.485672,2.313112 " style="stroke-width:0.023751; stroke-linecap:round; stroke-linejoin:round; stroke-dasharray:none; stroke:black"/>
        <text x="0" y="0" style="font-family:Times; font-style:normal; font-weight:bold; font-size:1.338552; fill:white" transform="matrix(1.000000 -0.000000 0.000000 1.000000 107.192825 1.843444)">C</text>
        <text x="0" y="0" style="font-family:Times; font-style:normal; font-weight:bold; font-size:1.338552; fill:white" transform="matrix(1.000000 -0.000000 0.000000 1.000000 108.177559 1.843444)">a</text>
        <text x="0" y="0" style="font-family:Times; font-style:normal; font-weight:bold; font-size:1.338552; fill:white" transform="matrix(1.000000 -0.000000 0.000000 1.000000 108.874077 1.843444)">t</text>
        <text x="0" y="0" style="font-family:Times; font-style:normal; font-weight:bold; font-size:1.338552; fill:white" transform="matrix(1.000000 -0.000000 0.000000 1.000000 109.330414 1.843444)">a</text>
        <text x="0" y="0" style="font-family:Times; font-style:normal; font-weight:bold; font-size:1.338552; fill:white" transform="matrix(1.000000 -0.000000 0.000000 1.000000 110.026932 1.843444)">l</text>
        <text x="0" y="0" style="font-family:Times; font-style:normal; font-weight:bold; font-size:1.338552; fill:white" transform="matrix(1.000000 -0.000000 0.000000 1.000000 110.411217 1.843444)">y</text>
        <text x="0" y="0" style="font-family:Times; font-style:normal; font-weight:bold; font-size:1.338552; fill:white" transform="matrix(1.000000 -0.000000 0.000000 1.000000 111.107735 1.843444)">s</text>
        <text x="0" y="0" style="font-family:Times; font-style:normal; font-weight:bold; font-size:1.338552; fill:white" transform="matrix(1.000000 -0.000000 0.000000 1.000000 111.636131 1.843444)">t</text>
        <text x="0" y="0" style="font-family:Times; font-style:normal; font-weight:bold; font-size:1.338552; fill:white" transform="matrix(1.000000 -0.000000 0.000000 1.000000 112.092461 1.843444)"> </text>
        <text x="0" y="0" style="font-family:Times; font-style:normal; font-weight:bold; font-size:1.338552; fill:white" transform="matrix(1.000000 -0.000000 0.000000 1.000000 112.428719 1.843444)">3</text>
        <text x="0" y="0" style="font-family:Times; font-style:normal; font-weight:bold; font-size:1.338552; fill:white" transform="matrix(1.000000 -0.000000 0.000000 1.000000 113.125237 1.843444)">7</text>
        <text x="0" y="0" style="font-family:Times; font-style:normal; font-weight:bold; font-size:1.338552; fill:white" transform="matrix(1.000000 -0.000000 0.000000 1.000000 113.821747 1.843444)">5</text>
        <text x="0" y="0" style="font-family:Times; font-style:normal; font-weight:bold; font-size:1.338552; fill:white" transform="matrix(1.000000 -0.000000 0.000000 1.000000 114.518265 1.843444)">0</text>
        <text x="0" y="0" style="font-family:Helvetica; font-style:normal; font-weight:normal; font-size:0.962818; fill:white" transform="matrix(1.000000 -0.000000 0.000000 1.000000 116.247551 1.937378)">S</text>
        <text x="0" y="0" style="font-family:Helvetica; font-style:normal; font-weight:normal; font-size:0.962818; fill:white" transform="matrix(1.000000 -0.000000 0.000000 1.000000 116.896034 1.937378)">E</text>
        <text x="0" y="0" style="font-family:Helvetica; font-style:normal; font-weight:normal; font-size:0.962818; fill:white" transform="matrix(1.000000 -0.000000 0.000000 1.000000 117.544518 1.937378)">R</text>
        <text x="0" y="0" style="font-family:Helvetica; font-style:normal; font-weight:normal; font-size:0.962818; fill:white" transform="matrix(1.000000 -0.000000 0.000000 1.000000 118.265053 1.937378)">I</text>
        <text x="0" y="0" style="font-family:Helvetica; font-style:normal; font-weight:normal; font-size:0.962818; fill:white" transform="matrix(1.000000 -0.000000 0.000000 1.000000 118.505234 1.937378)">E</text>
        <text x="0" y="0" style="font-family:Helvetica; font-style:normal; font-weight:normal; font-size:0.962818; fill:white" transform="matrix(1.000000 -0.000000 0.000000 1.000000 119.153717 1.937378)">S</text>
        <polygon points="6.437983,11.518591   7.686910,11.518591 7.686910,0.716243 6.437983,0.716243 6.437983,11.518591 " style="fill-opacity:1.0; fill-rule:evenodd; fill:darkslategray; stroke-width:0.023751; stroke-linecap:round; stroke-linejoin:round; stroke-dasharray:none; stroke:black"/>
        <polygon points="1.778521,1.679061   1.874593,1.679061 1.874593,1.138943 1.778521,1.138943 1.778521,1.679061 " style="fill-opacity:1.0; fill-rule:evenodd; fill:black; stroke-width:0.023751; stroke-linecap:round; stroke-linejoin:round; stroke-dasharray:none; stroke:black"/>
        <polygon points="2.114771,1.303327   2.186825,1.303327 2.186825,1.256360 2.138789,1.162427 2.090753,1.138943   2.042717,1.162427 2.018699,1.209393 2.018699,1.397260 2.090753,1.467710   2.114771,1.514677 2.114771,1.585127 2.090753,1.585127 2.066735,1.538161   2.066735,1.491194 2.018699,1.491194 2.018699,1.632094 2.042717,1.655577   2.090753,1.679061 2.114771,1.679061 2.162807,1.655577 2.186825,1.608611   2.186825,1.491194 2.162807,1.420744 2.114771,1.350294 2.090753,1.326810   2.090753,1.232877 2.114771,1.232877 2.114771,1.303327 " style="fill-opacity:1.0; fill-rule:evenodd; fill:black; stroke-width:0.023751; stroke-linecap:round; stroke-linejoin:round; stroke-dasharray:none; stroke:black"/>
        <polygon points="2.451021,1.279843   2.451021,1.326810 2.523074,1.326810 2.523074,1.256360 2.475039,1.162427   2.427003,1.138943 2.378967,1.162427 2.330932,1.209393 2.330932,1.608611   2.402985,1.679061 2.451021,1.679061 2.523074,1.608611 2.523074,1.467710   2.451021,1.467710 2.451021,1.585127 2.402985,1.585127 2.402985,1.232877   2.427003,1.232877 2.451021,1.279843 " style="fill-opacity:1.0; fill-rule:evenodd; fill:black; stroke-width:0.023751; stroke-linecap:round; stroke-linejoin:round; stroke-dasharray:none; stroke:black"/>
        <polygon points="3.555841,1.138943   3.651913,1.138943 3.675931,1.326810 3.699949,1.138943 3.796020,1.138943   3.723967,1.491194 3.723967,1.679061 3.627895,1.679061 3.627895,1.491194   3.555841,1.138943 " style="fill-opacity:1.0; fill-rule:evenodd; fill:black; stroke-width:0.023751; stroke-linecap:round; stroke-linejoin:round; stroke-dasharray:none; stroke:black"/>
        <polygon points="4.012180,1.303327   4.084234,1.303327 4.084234,1.256360 4.036198,1.162427 3.988163,1.138943   3.940127,1.162427 3.916109,1.209393 3.916109,1.397260 3.988163,1.467710   4.012180,1.514677 4.012180,1.585127 3.988163,1.585127 3.964145,1.538161   3.964145,1.491194 3.892091,1.491194 3.892091,1.561644 3.916109,1.632094   3.964145,1.679061 4.012180,1.679061 4.036198,1.655577 4.084234,1.561644   4.084234,1.491194 4.060216,1.420744 4.012180,1.350294 3.988163,1.326810   3.964145,1.279843 3.964145,1.256360 3.988163,1.232877 4.012180,1.232877   4.012180,1.303327 " style="fill-opacity:1.0; fill-rule:evenodd; fill:black; stroke-width:0.023751; stroke-linecap:round; stroke-linejoin:round; stroke-dasharray:none; stroke:black"/>
        <polygon points="3.387717,1.162427   3.483788,1.162427 3.483788,1.091977 3.459770,0.998043 3.387717,0.951076   3.339681,0.951076 3.291645,0.974560 3.243610,0.998043 3.243610,1.185910   3.267627,1.256360 3.363699,1.397260 3.387717,1.467710 3.387717,1.538161   3.363699,1.561644 3.315663,1.514677 3.315663,1.420744 3.243610,1.420744   3.243610,1.585127 3.267627,1.655577 3.339681,1.679061 3.387717,1.679061   3.435752,1.655577 3.483788,1.514677 3.483788,1.397260 3.459770,1.326810   3.435752,1.279843 3.363699,1.209393 3.339681,1.138943 3.339681,1.045010   3.363699,1.045010 3.387717,1.068493 3.387717,1.162427 " style="fill-opacity:1.0; fill-rule:evenodd; fill:black; stroke-width:0.023751; stroke-linecap:round; stroke-linejoin:round; stroke-dasharray:none; stroke:black"/>
        <polygon points="4.252359,1.232877   4.204323,1.232877 4.204323,1.138943 4.396466,1.138943 4.396466,1.232877   4.348431,1.232877 4.348431,1.679061 4.252359,1.679061 4.252359,1.232877 " style="fill-opacity:1.0; fill-rule:evenodd; fill:black; stroke:none"/>
        <polyline points="4.252359,1.232877   4.204323,1.232877 4.204323,1.138943 4.396466,1.138943 4.396466,1.232877   4.348431,1.232877 4.348431,1.679061 4.252359,1.679061 4.252359,1.232877 " style="stroke-width:0.023751; stroke-linecap:round; stroke-linejoin:round; stroke-dasharray:none; stroke:black"/>
        <polygon points="4.612627,1.232877   4.612627,1.350294 4.684680,1.350294 4.684680,1.444227 4.612627,1.444227   4.612627,1.585127 4.708698,1.585127 4.708698,1.679061 4.540573,1.679061   4.540573,1.138943 4.684680,1.138943 4.684680,1.232877 4.612627,1.232877 " style="fill-opacity:1.0; fill-rule:evenodd; fill:black; stroke-width:0.023751; stroke-linecap:round; stroke-linejoin:round; stroke-dasharray:none; stroke:black"/>
        <polygon points="4.924859,1.679061   4.924859,1.373777 4.972894,1.679061 5.020930,1.679061 5.068965,1.373777   5.068965,1.679061 5.117002,1.679061 5.117002,1.138943 5.020930,1.138943   4.996912,1.444227 4.948876,1.138943 4.852805,1.138943 4.852805,1.679061   4.924859,1.679061 " style="fill-opacity:1.0; fill-rule:evenodd; fill:black; stroke-width:0.023751; stroke-linecap:round; stroke-linejoin:round; stroke-dasharray:none; stroke:black"/>
        <polygon points="5.381197,1.303327   5.453251,1.303327 5.453251,1.256360 5.405215,1.162427 5.357180,1.138943   5.309144,1.162427 5.285126,1.232877 5.285126,1.397260 5.357180,1.467710   5.381197,1.514677 5.381197,1.585127 5.357180,1.585127 5.333161,1.538161   5.333161,1.491194 5.285126,1.491194 5.285126,1.632094 5.333161,1.679061   5.381197,1.679061 5.429233,1.655577 5.453251,1.561644 5.453251,1.491194   5.405215,1.350294 5.357180,1.326810 5.357180,1.232877 5.381197,1.232877   5.381197,1.303327 " style="fill-opacity:1.0; fill-rule:evenodd; fill:black; stroke-width:0.023751; stroke-linecap:round; stroke-linejoin:round; stroke-dasharray:none; stroke:black"/>
        <polygon points="2.763253,1.279843   2.763253,1.326810 2.835306,1.326810 2.835306,1.209393 2.811289,1.162427   2.739235,1.138943 2.691199,1.162427 2.667181,1.209393 2.643163,1.279843   2.643163,1.538161 2.667181,1.608611 2.691199,1.655577 2.739235,1.679061   2.763253,1.679061 2.811289,1.655577 2.835306,1.608611 2.835306,1.491194   2.763253,1.491194 2.763253,1.585127 2.739235,1.585127 2.715217,1.538161   2.715217,1.279843 2.739235,1.232877 2.763253,1.232877 2.763253,1.279843 " style="fill-opacity:1.0; fill-rule:evenodd; fill:black; stroke-width:0.023751; stroke-linecap:round; stroke-linejoin:round; stroke-dasharray:none; stroke:black"/>
        <polygon points="2.763253,1.491194   2.835306,1.491194 2.835306,1.326810 2.763253,1.326810 2.763253,1.491194 " style="fill-opacity:1.0; fill-rule:evenodd; fill:black; stroke-width:0.023751; stroke-linecap:round; stroke-linejoin:round; stroke-dasharray:none; stroke:black"/>
        <polygon points="1.562361,1.091977   1.562361,1.162427 1.634414,1.162427 1.634414,1.021526 1.586378,0.998043   1.562361,0.951076 1.514325,0.951076 1.466289,0.974560 1.442271,0.998043   1.394236,1.115460 1.394236,1.491194 1.418254,1.561644 1.442271,1.655577   1.514325,1.679061 1.562361,1.679061 1.610396,1.632094 1.634414,1.491194   1.634414,1.397260 1.562361,1.397260 1.562361,1.491194 1.538343,1.561644   1.514325,1.561644 1.490307,1.538161 1.490307,1.045010 1.514325,1.021526   1.538343,1.045010 1.562361,1.091977 " style="fill-opacity:1.0; fill-rule:evenodd; fill:black; stroke-width:0.023751; stroke-linecap:round; stroke-linejoin:round; stroke-dasharray:none; stroke:black"/>
        <polygon points="4.972894,3.722113   4.972894,3.534246 5.044948,3.534246 5.044948,3.722113 5.141019,3.722113   5.141019,3.604697 5.189055,3.604697 5.189055,3.722113 5.285126,3.722113   5.285126,3.628180 5.333161,3.628180 5.333161,3.722113 5.453251,3.722113   5.453251,1.866928 1.394236,1.866928 1.394236,3.722113 1.514325,3.722113   1.514325,3.628180 1.586378,3.628180 1.586378,3.722113 1.658432,3.722113   1.658432,3.581213 1.730486,3.581213 1.730486,3.722113 1.826557,3.722113   1.826557,3.534246 1.874593,3.534246 1.874593,3.722113 1.970664,3.722113   1.970664,3.393346 2.018699,3.393346 2.018699,3.722113 2.114771,3.722113   2.114771,3.205479 2.162807,3.205479 2.162807,3.722113 2.258878,3.722113   2.258878,2.900196 2.330932,2.900196 2.330932,3.722113 2.427003,3.722113   2.427003,2.500978 2.475039,2.500978 2.475039,3.722113 2.571110,3.722113   2.571110,2.900196 2.619146,2.900196 2.619146,3.722113 2.715217,3.722113   2.715217,3.205479 2.763253,3.205479 2.763253,3.722113 2.883342,3.722113   2.883342,3.393346 2.931377,3.393346 2.931377,3.722113 3.027449,3.722113   3.027449,3.534246 3.075485,3.534246 3.075485,3.722113 3.171556,3.722113   3.171556,3.604697 3.243610,3.604697 3.243610,3.722113 3.315663,3.722113   3.315663,3.628180 3.387717,3.628180 3.387717,3.722113 3.483788,3.722113   3.483788,3.628180 3.531824,3.628180 3.531824,3.722113 3.627895,3.722113   3.627895,3.604697 3.675931,3.604697 3.675931,3.722113 3.772002,3.722113   3.772002,3.534246 3.844055,3.534246 3.844055,3.722113 3.916109,3.722113   3.916109,3.393346 3.988163,3.393346 3.988163,3.722113 4.084234,3.722113   4.084234,3.205479 4.132270,3.205479 4.132270,3.722113 4.228341,3.722113   4.228341,2.900196 4.276377,2.900196 4.276377,3.722113 4.372448,3.722113   4.372448,2.500978 4.420484,2.500978 4.420484,3.722113 4.540573,3.722113   4.540573,2.900196 4.588609,2.900196 4.588609,3.722113 4.684680,3.722113   4.684680,3.205479 4.732716,3.205479 4.732716,3.722113 4.828787,3.722113   4.828787,3.393346 4.900841,3.393346 4.900841,3.722113 4.972894,3.722113 " style="fill-opacity:1.0; fill-rule:evenodd; fill:black; stroke-width:0.023751; stroke-linecap:round; stroke-linejoin:round; stroke-dasharray:none; stroke:black"/>
        <polygon points="1.586378,3.722113   1.586378,3.628180 1.514325,3.628180 1.514325,3.722113 1.586378,3.722113 " style="fill-opacity:1.0; fill-rule:evenodd; fill:white; stroke-width:0.023751; stroke-linecap:round; stroke-linejoin:round; stroke-dasharray:none; stroke:white"/>
        <polygon points="1.730486,3.722113   1.658432,3.722113 1.658432,3.581213 1.730486,3.581213 1.730486,3.722113 " style="fill-opacity:1.0; fill-rule:evenodd; fill:white; stroke-width:0.023751; stroke-linecap:round; stroke-linejoin:round; stroke-dasharray:none; stroke:white"/>
        <polygon points="1.874593,3.722113   1.874593,3.534246 1.826557,3.534246 1.826557,3.722113 1.874593,3.722113 " style="fill-opacity:1.0; fill-rule:evenodd; fill:white; stroke-width:0.023751; stroke-linecap:round; stroke-linejoin:round; stroke-dasharray:none; stroke:white"/>
        <polygon points="2.018699,3.722113   2.018699,3.393346 1.970664,3.393346 1.970664,3.722113 2.018699,3.722113 " style="fill-opacity:1.0; fill-rule:evenodd; fill:white; stroke-width:0.023751; stroke-linecap:round; stroke-linejoin:round; stroke-dasharray:none; stroke:white"/>
        <polygon points="2.162807,3.722113   2.162807,3.205479 2.114771,3.205479 2.114771,3.722113 2.162807,3.722113 " style="fill-opacity:1.0; fill-rule:evenodd; fill:white; stroke-width:0.023751; stroke-linecap:round; stroke-linejoin:round; stroke-dasharray:none; stroke:white"/>
        <polygon points="2.330932,3.722113   2.330932,2.900196 2.258878,2.900196 2.258878,3.722113 2.330932,3.722113 " style="fill-opacity:1.0; fill-rule:evenodd; fill:white; stroke-width:0.023751; stroke-linecap:round; stroke-linejoin:round; stroke-dasharray:none; stroke:white"/>
        <polygon points="2.475039,3.722113   2.475039,2.500978 2.427003,2.500978 2.427003,3.722113 2.475039,3.722113 " style="fill-opacity:1.0; fill-rule:evenodd; fill:white; stroke-width:0.023751; stroke-linecap:round; stroke-linejoin:round; stroke-dasharray:none; stroke:white"/>
        <polygon points="2.619146,3.722113   2.619146,2.900196 2.571110,2.900196 2.571110,3.722113 2.619146,3.722113 " style="fill-opacity:1.0; fill-rule:evenodd; fill:white; stroke-width:0.023751; stroke-linecap:round; stroke-linejoin:round; stroke-dasharray:none; stroke:white"/>
        <polygon points="2.763253,3.722113   2.763253,3.205479 2.715217,3.205479 2.715217,3.722113 2.763253,3.722113 " style="fill-opacity:1.0; fill-rule:evenodd; fill:white; stroke-width:0.023751; stroke-linecap:round; stroke-linejoin:round; stroke-dasharray:none; stroke:white"/>
        <polygon points="2.931377,3.722113   2.931377,3.393346 2.883342,3.393346 2.883342,3.722113 2.931377,3.722113 " style="fill-opacity:1.0; fill-rule:evenodd; fill:white; stroke-width:0.023751; stroke-linecap:round; stroke-linejoin:round; stroke-dasharray:none; stroke:white"/>
        <polygon points="3.243610,3.722113   3.243610,3.604697 3.171556,3.604697 3.171556,3.722113 3.243610,3.722113 " style="fill-opacity:1.0; fill-rule:evenodd; fill:white; stroke-width:0.023751; stroke-linecap:round; stroke-linejoin:round; stroke-dasharray:none; stroke:white"/>
        <polygon points="3.387717,3.722113   3.387717,3.628180 3.315663,3.628180 3.315663,3.722113 3.387717,3.722113 " style="fill-opacity:1.0; fill-rule:evenodd; fill:white; stroke-width:0.023751; stroke-linecap:round; stroke-linejoin:round; stroke-dasharray:none; stroke:white"/>
        <polygon points="3.531824,3.722113   3.531824,3.628180 3.483788,3.628180 3.483788,3.722113 3.531824,3.722113 " style="fill-opacity:1.0; fill-rule:evenodd; fill:white; stroke-width:0.023751; stroke-linecap:round; stroke-linejoin:round; stroke-dasharray:none; stroke:white"/>
        <polygon points="3.675931,3.722113   3.675931,3.604697 3.627895,3.604697 3.627895,3.722113 3.675931,3.722113 " style="fill-opacity:1.0; fill-rule:evenodd; fill:white; stroke-width:0.023751; stroke-linecap:round; stroke-linejoin:round; stroke-dasharray:none; stroke:white"/>
        <polygon points="3.844055,3.722113   3.844055,3.534246 3.772002,3.534246 3.772002,3.722113 3.844055,3.722113 " style="fill-opacity:1.0; fill-rule:evenodd; fill:white; stroke-width:0.023751; stroke-linecap:round; stroke-linejoin:round; stroke-dasharray:none; stroke:white"/>
        <polygon points="3.988163,3.722113   3.988163,3.393346 3.916109,3.393346 3.916109,3.722113 3.988163,3.722113 " style="fill-opacity:1.0; fill-rule:evenodd; fill:white; stroke-width:0.023751; stroke-linecap:round; stroke-linejoin:round; stroke-dasharray:none; stroke:white"/>
        <polygon points="4.132270,3.722113   4.132270,3.205479 4.084234,3.205479 4.084234,3.722113 4.132270,3.722113 " style="fill-opacity:1.0; fill-rule:evenodd; fill:white; stroke-width:0.023751; stroke-linecap:round; stroke-linejoin:round; stroke-dasharray:none; stroke:white"/>
        <polygon points="4.276377,3.722113   4.276377,2.900196 4.228341,2.900196 4.228341,3.722113 4.276377,3.722113 " style="fill-opacity:1.0; fill-rule:evenodd; fill:white; stroke-width:0.023751; stroke-linecap:round; stroke-linejoin:round; stroke-dasharray:none; stroke:white"/>
        <polygon points="4.420484,3.722113   4.420484,2.500978 4.372448,2.500978 4.372448,3.722113 4.420484,3.722113 " style="fill-opacity:1.0; fill-rule:evenodd; fill:white; stroke-width:0.023751; stroke-linecap:round; stroke-linejoin:round; stroke-dasharray:none; stroke:white"/>
        <polygon points="4.588609,3.722113   4.588609,2.900196 4.540573,2.900196 4.540573,3.722113 4.588609,3.722113 " style="fill-opacity:1.0; fill-rule:evenodd; fill:white; stroke-width:0.023751; stroke-linecap:round; stroke-linejoin:round; stroke-dasharray:none; stroke:white"/>
        <polygon points="4.732716,3.722113   4.732716,3.205479 4.684680,3.205479 4.684680,3.722113 4.732716,3.722113 " style="fill-opacity:1.0; fill-rule:evenodd; fill:white; stroke-width:0.023751; stroke-linecap:round; stroke-linejoin:round; stroke-dasharray:none; stroke:white"/>
        <polygon points="4.900841,3.722113   4.900841,3.393346 4.828787,3.393346 4.828787,3.722113 4.900841,3.722113 " style="fill-opacity:1.0; fill-rule:evenodd; fill:white; stroke-width:0.023751; stroke-linecap:round; stroke-linejoin:round; stroke-dasharray:none; stroke:white"/>
        <polygon points="5.044948,3.722113   5.044948,3.534246 4.972894,3.534246 4.972894,3.722113 5.044948,3.722113 " style="fill-opacity:1.0; fill-rule:evenodd; fill:white; stroke-width:0.023751; stroke-linecap:round; stroke-linejoin:round; stroke-dasharray:none; stroke:white"/>
        <polygon points="5.189055,3.722113   5.189055,3.604697 5.141019,3.604697 5.141019,3.722113 5.189055,3.722113 " style="fill-opacity:1.0; fill-rule:evenodd; fill:white; stroke-width:0.023751; stroke-linecap:round; stroke-linejoin:round; stroke-dasharray:none; stroke:white"/>
        <polygon points="5.333161,3.722113   5.333161,3.628180 5.285126,3.628180 5.285126,3.722113 5.333161,3.722113 " style="fill-opacity:1.0; fill-rule:evenodd; fill:white; stroke-width:0.023751; stroke-linecap:round; stroke-linejoin:round; stroke-dasharray:none; stroke:white"/>
        <polygon points="3.075485,3.722113   3.027449,3.722113 3.027449,3.534246 3.075485,3.534246 3.075485,3.722113 " style="fill-opacity:1.0; fill-rule:evenodd; fill:white; stroke-width:0.023751; stroke-linecap:round; stroke-linejoin:round; stroke-dasharray:none; stroke:white"/>
        <polygon points="5.092984,11.048923   6.053697,11.048923 6.125751,11.025440 6.149769,10.978474 6.197804,10.861056   6.221822,10.720156 6.221822,10.414872 6.197804,10.273973 6.149769,10.156555   6.125751,10.086105 6.053697,10.062622 5.092984,10.062622 5.020930,10.086105   4.972894,10.156555 4.924859,10.273973 4.900841,10.414872 4.900841,10.720156   4.924859,10.861056 4.972894,10.978474 5.020930,11.025440 5.092984,11.048923 " style="fill-opacity:1.0; fill-rule:evenodd; fill:dimgray; stroke-width:0.023751; stroke-linecap:round; stroke-linejoin:round; stroke-dasharray:none; stroke:dimgray"/>
        <polygon points="3.123520,8.630136   3.003431,8.512720 2.931377,8.489237 2.739235,8.465754 2.643163,8.465754   2.523074,8.489237 2.378967,8.536203 2.330932,8.583170 2.306914,8.630136   2.306914,8.653620 2.330932,8.700587 2.378967,8.747554 2.523074,8.794520   2.643163,8.794520 2.739235,8.794520 2.931377,8.794520 3.003431,8.747554   3.099503,8.677103 3.123520,8.630136 " style="fill-opacity:1.0; fill-rule:evenodd; fill:black; stroke-width:0.023751; stroke-linecap:round; stroke-linejoin:round; stroke-dasharray:none; stroke:black"/>
        <polygon points="3.123520,7.902153   3.099503,7.855186 3.051467,7.808219 3.003431,7.784736 2.931377,7.761252   2.835306,7.737769 2.523074,7.737769 2.451021,7.761252 2.378967,7.808219   2.330932,7.831702 2.306914,7.878669 2.306914,7.925636 2.330932,7.972603   2.378967,7.996086 2.451021,8.043053 2.523074,8.066536 2.739235,8.066536   2.931377,8.043053 3.003431,8.019569 3.099503,7.949119 3.123520,7.902153 " style="fill-opacity:1.0; fill-rule:evenodd; fill:black; stroke-width:0.023751; stroke-linecap:round; stroke-linejoin:round; stroke-dasharray:none; stroke:black"/>
        <polygon points="3.123520,9.405087   3.099503,9.358121 3.003431,9.287671 2.931377,9.240705 2.739235,9.217221   2.643163,9.217221 2.523074,9.240705 2.378967,9.287671 2.330932,9.334638   2.306914,9.381604 2.306914,9.428571 2.378967,9.499022 2.523074,9.545988   2.643163,9.569471 2.835306,9.569471 2.931377,9.545988 3.003431,9.522505   3.123520,9.405087 " style="fill-opacity:1.0; fill-rule:evenodd; fill:black; stroke-width:0.023751; stroke-linecap:round; stroke-linejoin:round; stroke-dasharray:none; stroke:black"/>
        <polygon points="3.123520,6.587084   3.099503,6.563601 3.003431,6.493150 2.931377,6.469667 2.739235,6.446184   2.643163,6.446184 2.523074,6.469667 2.378967,6.516634 2.330932,6.540117   2.306914,6.563601 2.306914,6.610568 2.330932,6.657535 2.378967,6.681017   2.451021,6.727984 2.523074,6.751468 2.835306,6.751468 2.931377,6.727984   3.003431,6.704501 3.051467,6.681017 3.099503,6.634051 3.123520,6.587084 " style="fill-opacity:1.0; fill-rule:evenodd; fill:black; stroke-width:0.023751; stroke-linecap:round; stroke-linejoin:round; stroke-dasharray:none; stroke:black"/>
        <polygon points="3.123520,5.225049   3.099503,5.178082 3.051467,5.131115 3.003431,5.107632 2.931377,5.084149   2.835306,5.060665 2.523074,5.060665 2.451021,5.084149 2.378967,5.131115   2.330932,5.154599 2.306914,5.201565 2.306914,5.248532 2.330932,5.295499   2.378967,5.318982 2.451021,5.365949 2.523074,5.389432 2.739235,5.389432   2.931377,5.365949 3.003431,5.342466 3.099503,5.272016 3.123520,5.225049 " style="fill-opacity:1.0; fill-rule:evenodd; fill:black; stroke-width:0.023751; stroke-linecap:round; stroke-linejoin:round; stroke-dasharray:none; stroke:black"/>
        <text x="0" y="0" style="font-family:Helvetica; font-style:normal; font-weight:normal; font-size:0.563601; fill:darkslateblue" transform="matrix(1.000000 -0.000000 0.000000 1.000000 2.883342 10.767123)">M</text>
        <text x="0" y="0" style="font-family:Helvetica; font-style:normal; font-weight:normal; font-size:0.563601; fill:darkslateblue" transform="matrix(1.000000 -0.000000 0.000000 1.000000 3.339681 10.767123)">O</text>
        <text x="0" y="0" style="font-family:Helvetica; font-style:normal; font-weight:normal; font-size:0.563601; fill:darkslateblue" transform="matrix(1.000000 -0.000000 0.000000 1.000000 3.796020 10.767123)">D</text>
        <text x="0" y="0" style="font-family:Helvetica; font-style:normal; font-weight:normal; font-size:0.563601; fill:darkslateblue" transform="matrix(1.000000 -0.000000 0.000000 1.000000 4.204323 10.767123)">E</text>
        <polyline points="7.686910,11.518591   124.485672,11.518591 123.140678,11.518591 " style="stroke-width:0.023751; stroke-linecap:round; stroke-linejoin:round; stroke-dasharray:none; stroke:black"/>
        <polyline points="0.505576,11.518591   0.505576,0.716243 6.437983,0.716243 " style="stroke-width:0.023751; stroke-linecap:round; stroke-linejoin:round; stroke-dasharray:none; stroke:black"/>
        <polyline points="0.505576,11.518591   6.437983,11.518591 " style="stroke-width:0.023751; stroke-linecap:round; stroke-linejoin:round; stroke-dasharray:none; stroke:black"/>
        <polyline points="124.485672,2.430528   124.485672,11.518591 " style="stroke-width:0.023751; stroke-linecap:round; stroke-linejoin:round; stroke-dasharray:none; stroke:black"/>
        <text x="0" y="0" style="font-family:Helvetica; font-style:normal; font-weight:normal; font-size:0.563601; fill:darkslateblue" transform="matrix(1.000000 -0.000000 0.000000 1.000000 3.796020 5.483366)">S</text>
        <text x="0" y="0" style="font-family:Helvetica; font-style:normal; font-weight:normal; font-size:0.563601; fill:darkslateblue" transform="matrix(1.000000 -0.000000 0.000000 1.000000 4.180305 5.483366)">Y</text>
        <text x="0" y="0" style="font-family:Helvetica; font-style:normal; font-weight:normal; font-size:0.563601; fill:darkslateblue" transform="matrix(1.000000 -0.000000 0.000000 1.000000 4.564591 5.483366)">S</text>
        <text x="0" y="0" style="font-family:Helvetica; font-style:normal; font-weight:normal; font-size:0.563601; fill:darkslateblue" transform="matrix(1.000000 -0.000000 0.000000 1.000000 4.948876 5.483366)">T</text>
        <text x="0" y="0" style="font-family:Helvetica; font-style:normal; font-weight:normal; font-size:0.563601; fill:darkslateblue" transform="matrix(1.000000 -0.000000 0.000000 1.000000 3.796020 6.187867)">R</text>
        <text x="0" y="0" style="font-family:Helvetica; font-style:normal; font-weight:normal; font-size:0.563601; fill:darkslateblue" transform="matrix(1.000000 -0.000000 0.000000 1.000000 4.204323 6.187867)">P</text>
        <text x="0" y="0" style="font-family:Helvetica; font-style:normal; font-weight:normal; font-size:0.563601; fill:darkslateblue" transform="matrix(1.000000 -0.000000 0.000000 1.000000 4.588608 6.187867)">S</text>
        <text x="0" y="0" style="font-family:Helvetica; font-style:normal; font-weight:normal; font-size:0.563601; fill:darkslateblue" transform="matrix(1.000000 -0.000000 0.000000 1.000000 3.796020 6.868884)">M</text>
        <text x="0" y="0" style="font-family:Helvetica; font-style:normal; font-weight:normal; font-size:0.563601; fill:darkslateblue" transform="matrix(1.000000 -0.000000 0.000000 1.000000 4.252359 6.868884)">A</text>
        <text x="0" y="0" style="font-family:Helvetica; font-style:normal; font-weight:normal; font-size:0.563601; fill:darkslateblue" transform="matrix(1.000000 -0.000000 0.000000 1.000000 4.612627 6.868884)">S</text>
        <text x="0" y="0" style="font-family:Helvetica; font-style:normal; font-weight:normal; font-size:0.563601; fill:darkslateblue" transform="matrix(1.000000 -0.000000 0.000000 1.000000 4.996912 6.868884)">T</text>
        <text x="0" y="0" style="font-family:Helvetica; font-style:normal; font-weight:normal; font-size:0.563601; fill:darkslateblue" transform="matrix(1.000000 -0.000000 0.000000 1.000000 5.333161 6.868884)">R</text>
        <text x="0" y="0" style="font-family:Helvetica; font-style:normal; font-weight:normal; font-size:0.563601; fill:darkslateblue" transform="matrix(1.000000 -0.000000 0.000000 1.000000 3.796020 7.573386)">S</text>
        <text x="0" y="0" style="font-family:Helvetica; font-style:normal; font-weight:normal; font-size:0.563601; fill:darkslateblue" transform="matrix(1.000000 -0.000000 0.000000 1.000000 4.180305 7.573386)">T</text>
        <text x="0" y="0" style="font-family:Helvetica; font-style:normal; font-weight:normal; font-size:0.563601; fill:darkslateblue" transform="matrix(1.000000 -0.000000 0.000000 1.000000 4.516555 7.573386)">A</text>
        <text x="0" y="0" style="font-family:Helvetica; font-style:normal; font-weight:normal; font-size:0.563601; fill:darkslateblue" transform="matrix(1.000000 -0.000000 0.000000 1.000000 4.876823 7.573386)">T</text>
        <text x="0" y="0" style="font-family:Helvetica; font-style:normal; font-weight:normal; font-size:0.563601; fill:darkslateblue" transform="matrix(1.000000 -0.000000 0.000000 1.000000 3.796020 8.254403)">D</text>
        <text x="0" y="0" style="font-family:Helvetica; font-style:normal; font-weight:normal; font-size:0.563601; fill:darkslateblue" transform="matrix(1.000000 -0.000000 0.000000 1.000000 4.204323 8.254403)">U</text>
        <text x="0" y="0" style="font-family:Helvetica; font-style:normal; font-weight:normal; font-size:0.563601; fill:darkslateblue" transform="matrix(1.000000 -0.000000 0.000000 1.000000 4.612627 8.254403)">P</text>
        <text x="0" y="0" style="font-family:Helvetica; font-style:normal; font-weight:normal; font-size:0.563601; fill:darkslateblue" transform="matrix(1.000000 -0.000000 0.000000 1.000000 4.996912 8.254403)">L</text>
        <text x="0" y="0" style="font-family:Helvetica; font-style:normal; font-weight:normal; font-size:0.563601; fill:darkslateblue" transform="matrix(1.000000 -0.000000 0.000000 1.000000 5.309144 8.254403)">X</text>
        <text x="0" y="0" style="font-family:Helvetica; font-style:normal; font-weight:normal; font-size:0.563601; fill:darkslateblue" transform="matrix(1.000000 -0.000000 0.000000 1.000000 3.796020 8.935421)">S</text>
        <text x="0" y="0" style="font-family:Helvetica; font-style:normal; font-weight:normal; font-size:0.563601; fill:darkslateblue" transform="matrix(1.000000 -0.000000 0.000000 1.000000 4.180305 8.935421)">P</text>
        <text x="0" y="0" style="font-family:Helvetica; font-style:normal; font-weight:normal; font-size:0.563601; fill:darkslateblue" transform="matrix(1.000000 -0.000000 0.000000 1.000000 4.564591 8.935421)">E</text>
        <text x="0" y="0" style="font-family:Helvetica; font-style:normal; font-weight:normal; font-size:0.563601; fill:darkslateblue" transform="matrix(1.000000 -0.000000 0.000000 1.000000 4.948876 8.935421)">E</text>
        <text x="0" y="0" style="font-family:Helvetica; font-style:normal; font-weight:normal; font-size:0.563601; fill:darkslateblue" transform="matrix(1.000000 -0.000000 0.000000 1.000000 5.333161 8.935421)">D</text>
        <text x="0" y="0" style="font-family:Helvetica; font-style:normal; font-weight:normal; font-size:0.563601; fill:darkslateblue" transform="matrix(1.000000 -0.000000 0.000000 1.000000 3.796020 9.639921)">S</text>
        <text x="0" y="0" style="font-family:Helvetica; font-style:normal; font-weight:normal; font-size:0.563601; fill:darkslateblue" transform="matrix(1.000000 -0.000000 0.000000 1.000000 4.180305 9.639921)">T</text>
        <text x="0" y="0" style="font-family:Helvetica; font-style:normal; font-weight:normal; font-size:0.563601; fill:darkslateblue" transform="matrix(1.000000 -0.000000 0.000000 1.000000 4.516555 9.639921)">A</text>
        <text x="0" y="0" style="font-family:Helvetica; font-style:normal; font-weight:normal; font-size:0.563601; fill:darkslateblue" transform="matrix(1.000000 -0.000000 0.000000 1.000000 4.876823 9.639921)">C</text>
        <text x="0" y="0" style="font-family:Helvetica; font-style:normal; font-weight:normal; font-size:0.563601; fill:darkslateblue" transform="matrix(1.000000 -0.000000 0.000000 1.000000 5.285126 9.639921)">K</text>
        <polygon points="3.123520,5.929550   3.099503,5.882583 3.051467,5.835617 3.003431,5.812133 2.931377,5.788650   2.835306,5.765166 2.523074,5.765166 2.451021,5.788650 2.378967,5.835617   2.330932,5.859099 2.306914,5.906066 2.306914,5.953033 2.330932,6.000000   2.378967,6.023483 2.451021,6.070450 2.523074,6.093934 2.739235,6.093934   2.931377,6.070450 3.003431,6.046967 3.099503,5.976516 3.123520,5.929550 " style="fill-opacity:1.0; fill-rule:evenodd; fill:black; stroke-width:0.023751; stroke-linecap:round; stroke-linejoin:round; stroke-dasharray:none; stroke:black"/>
        <polygon points="3.123520,7.268101   3.099503,7.221135 3.003431,7.150685 2.931377,7.103718 2.739235,7.080235   2.643163,7.080235 2.523074,7.103718 2.378967,7.150685 2.330932,7.197652   2.306914,7.244618 2.306914,7.291585 2.378967,7.362035 2.523074,7.409002   2.643163,7.432485 2.835306,7.432485 2.931377,7.409002 3.003431,7.385519   3.123520,7.268101 " style="fill-opacity:1.0; fill-rule:evenodd; fill:black; stroke-width:0.023751; stroke-linecap:round; stroke-linejoin:round; stroke-dasharray:none; stroke:black"/>
        <polygon points="70.085258,4.285714   70.949905,4.285714 70.949905,3.440313 70.085258,3.440313 70.085258,4.285714 " style="fill-opacity:1.0; fill-rule:evenodd; fill:darkgray; stroke:none"/>
        <text x="0" y="0" style="font-family:Helvetica; font-style:normal; font-weight:normal; font-size:0.493151; fill:black" transform="matrix(1.000000 -0.000000 0.000000 1.000000 70.325439 4.027397)">1</text>
        <polygon points="73.519814,4.262231   74.384460,4.262231 74.384460,3.416830 73.519814,3.416830 73.519814,4.262231 " style="fill-opacity:1.0; fill-rule:evenodd; fill:darkgray; stroke:none"/>
        <text x="0" y="0" style="font-family:Helvetica; font-style:normal; font-weight:normal; font-size:0.493151; fill:black" transform="matrix(1.000000 -0.000000 0.000000 1.000000 73.784012 4.003914)">2</text>
        <polygon points="83.607307,7.174168   68.428032,7.174168 68.428032,9.639921 83.607307,9.639921 83.607307,7.174168 " style="fill-opacity:1.0; fill-rule:evenodd; fill:yellow; stroke-width:0.023751; stroke-linecap:round; stroke-linejoin:round; stroke-dasharray:none; stroke:yellow"/>
        <polygon points="71.958656,7.244618   68.668205,7.244618 68.668205,9.358121 71.958656,9.358121 71.958656,7.244618 " style="fill-opacity:1.0; fill-rule:evenodd; fill:black; stroke-width:0.023751; stroke-linecap:round; stroke-linejoin:round; stroke-dasharray:none; stroke:black"/>
        <polygon points="69.917137,9.264188   69.052490,9.264188 69.052490,7.502935 71.862579,7.502935 71.862579,9.264188   70.997940,9.264188 70.997940,9.522505 72.246864,9.522505 72.246864,7.244618   68.668205,7.244618 68.668205,9.522505 69.917137,9.522505 69.917137,9.264188 " style="fill-opacity:1.0; fill-rule:evenodd; fill:gray; stroke-width:0.023751; stroke-linecap:round; stroke-linejoin:round; stroke-dasharray:none; stroke:black"/>
        <polygon points="71.142052,9.334638   69.773033,9.334638 69.773033,9.545988 71.142052,9.545988 71.142052,9.334638 " style="fill-opacity:1.0; fill-rule:evenodd; fill:white; stroke-width:0.023751; stroke-linecap:round; stroke-linejoin:round; stroke-dasharray:none; stroke:darkgray"/>
        <polygon points="75.681419,7.244618   72.390976,7.244618 72.390976,9.358121 75.681419,9.358121 75.681419,7.244618 " style="fill-opacity:1.0; fill-rule:evenodd; fill:black; stroke-width:0.023751; stroke-linecap:round; stroke-linejoin:round; stroke-dasharray:none; stroke:black"/>
        <polygon points="73.639900,9.264188   72.775261,9.264188 72.775261,7.502935 75.585350,7.502935 75.585350,9.264188   74.720711,9.264188 74.720711,9.522505 75.969635,9.522505 75.969635,7.244618   72.390976,7.244618 72.390976,9.522505 73.639900,9.522505 73.639900,9.264188 " style="fill-opacity:1.0; fill-rule:evenodd; fill:gray; stroke-width:0.023751; stroke-linecap:round; stroke-linejoin:round; stroke-dasharray:none; stroke:black"/>
        <polygon points="74.864815,9.358121   73.519814,9.358121 73.519814,9.569471 74.864815,9.569471 74.864815,9.358121 " style="fill-opacity:1.0; fill-rule:evenodd; fill:white; stroke-width:0.023751; stroke-linecap:round; stroke-linejoin:round; stroke-dasharray:none; stroke:darkgray"/>
        <polygon points="79.356155,7.244618   76.089722,7.244618 76.089722,9.358121 79.356155,9.358121 79.356155,7.244618 " style="fill-opacity:1.0; fill-rule:evenodd; fill:black; stroke-width:0.023751; stroke-linecap:round; stroke-linejoin:round; stroke-dasharray:none; stroke:black"/>
        <polygon points="77.314636,9.264188   76.474007,9.264188 76.474007,7.502935 79.260078,7.502935 79.260078,9.264188   78.419456,9.264188 78.419456,9.522505 79.668381,9.522505 79.668381,7.244618   76.089722,7.244618 76.089722,9.522505 77.314636,9.522505 77.314636,9.264188 " style="fill-opacity:1.0; fill-rule:evenodd; fill:gray; stroke-width:0.023751; stroke-linecap:round; stroke-linejoin:round; stroke-dasharray:none; stroke:black"/>
        <polygon points="78.539543,9.334638   77.194550,9.334638 77.194550,9.545988 78.539543,9.545988 78.539543,9.334638 " style="fill-opacity:1.0; fill-rule:evenodd; fill:white; stroke-width:0.023751; stroke-linecap:round; stroke-linejoin:round; stroke-dasharray:none; stroke:darkgray"/>
        <polygon points="83.078911,7.244618   79.788475,7.244618 79.788475,9.358121 83.078911,9.358121 83.078911,7.244618 " style="fill-opacity:1.0; fill-rule:evenodd; fill:black; stroke-width:0.023751; stroke-linecap:round; stroke-linejoin:round; stroke-dasharray:none; stroke:black"/>
        <polygon points="81.037399,9.264188   80.196777,9.264188 80.196777,7.502935 82.982841,7.502935 82.982841,9.264188   82.142220,9.264188 82.142220,9.522505 83.391151,9.522505 83.391151,7.244618   79.788475,7.244618 79.788475,9.522505 81.037399,9.522505 81.037399,9.264188 " style="fill-opacity:1.0; fill-rule:evenodd; fill:gray; stroke-width:0.023751; stroke-linecap:round; stroke-linejoin:round; stroke-dasharray:none; stroke:black"/>
        <polygon points="82.262306,9.358121   80.917305,9.358121 80.917305,9.569471 82.262306,9.569471 82.262306,9.358121 " style="fill-opacity:1.0; fill-rule:evenodd; fill:white; stroke-width:0.023751; stroke-linecap:round; stroke-linejoin:round; stroke-dasharray:none; stroke:darkgray"/>
        <polygon points="101.308464,7.150685   86.129189,7.150685 86.129189,9.616438 101.308464,9.616438 101.308464,7.150685 " style="fill-opacity:1.0; fill-rule:evenodd; fill:yellow; stroke-width:0.023751; stroke-linecap:round; stroke-linejoin:round; stroke-dasharray:none; stroke:yellow"/>
        <polygon points="89.635788,7.221135   86.345345,7.221135 86.345345,9.334638 89.635788,9.334638 89.635788,7.221135 " style="fill-opacity:1.0; fill-rule:evenodd; fill:black; stroke-width:0.023751; stroke-linecap:round; stroke-linejoin:round; stroke-dasharray:none; stroke:black"/>
        <polygon points="87.594276,9.240705   86.753647,9.240705 86.753647,7.479452 89.539711,7.479452 89.539711,9.240705   88.699089,9.240705 88.699089,9.499022 89.948021,9.499022 89.948021,7.221135   86.345345,7.221135 86.345345,9.499022 87.594276,9.499022 87.594276,9.240705 " style="fill-opacity:1.0; fill-rule:evenodd; fill:gray; stroke-width:0.023751; stroke-linecap:round; stroke-linejoin:round; stroke-dasharray:none; stroke:black"/>
        <polygon points="88.819176,9.311154   87.474182,9.311154 87.474182,9.522505 88.819176,9.522505 88.819176,9.311154 " style="fill-opacity:1.0; fill-rule:evenodd; fill:white; stroke-width:0.023751; stroke-linecap:round; stroke-linejoin:round; stroke-dasharray:none; stroke:darkgray"/>
        <polygon points="93.358551,7.221135   90.068108,7.221135 90.068108,9.334638 93.358551,9.334638 93.358551,7.221135 " style="fill-opacity:1.0; fill-rule:evenodd; fill:black; stroke-width:0.023751; stroke-linecap:round; stroke-linejoin:round; stroke-dasharray:none; stroke:black"/>
        <polygon points="91.317032,9.240705   90.476410,9.240705 90.476410,7.479452 93.262482,7.479452 93.262482,9.240705   92.421860,9.240705 92.421860,9.499022 93.646767,9.499022 93.646767,7.221135   90.068108,7.221135 90.068108,9.499022 91.317032,9.499022 91.317032,9.240705 " style="fill-opacity:1.0; fill-rule:evenodd; fill:gray; stroke-width:0.023751; stroke-linecap:round; stroke-linejoin:round; stroke-dasharray:none; stroke:black"/>
        <polygon points="92.541946,9.334638   91.196945,9.334638 91.196945,9.545988 92.541946,9.545988 92.541946,9.334638 " style="fill-opacity:1.0; fill-rule:evenodd; fill:white; stroke-width:0.023751; stroke-linecap:round; stroke-linejoin:round; stroke-dasharray:none; stroke:darkgray"/>
        <polygon points="97.033287,7.221135   93.742836,7.221135 93.742836,9.334638 97.033287,9.334638 97.033287,7.221135 " style="fill-opacity:1.0; fill-rule:evenodd; fill:black; stroke-width:0.023751; stroke-linecap:round; stroke-linejoin:round; stroke-dasharray:none; stroke:black"/>
        <polygon points="94.991768,9.240705   94.151146,9.240705 94.151146,7.479452 96.937210,7.479452 96.937210,9.240705   96.096581,9.240705 96.096581,9.499022 97.345520,9.499022 97.345520,7.221135   93.742836,7.221135 93.742836,9.499022 94.991768,9.499022 94.991768,9.240705 " style="fill-opacity:1.0; fill-rule:evenodd; fill:gray; stroke-width:0.023751; stroke-linecap:round; stroke-linejoin:round; stroke-dasharray:none; stroke:black"/>
        <polygon points="96.240692,9.311154   94.871674,9.311154 94.871674,9.522505 96.240692,9.522505 96.240692,9.311154 " style="fill-opacity:1.0; fill-rule:evenodd; fill:white; stroke-width:0.023751; stroke-linecap:round; stroke-linejoin:round; stroke-dasharray:none; stroke:darkgray"/>
        <polygon points="100.780067,7.221135   97.489616,7.221135 97.489616,9.334638 100.780067,9.334638 100.780067,7.221135 " style="fill-opacity:1.0; fill-rule:evenodd; fill:black; stroke-width:0.023751; stroke-linecap:round; stroke-linejoin:round; stroke-dasharray:none; stroke:black"/>
        <polygon points="98.738548,9.240705   97.873901,9.240705 97.873901,7.479452 100.683990,7.479452 100.683990,9.240705   99.819351,9.240705 99.819351,9.499022 101.068275,9.499022 101.068275,7.221135   97.489616,7.221135 97.489616,9.499022 98.738548,9.499022 98.738548,9.240705 " style="fill-opacity:1.0; fill-rule:evenodd; fill:gray; stroke-width:0.023751; stroke-linecap:round; stroke-linejoin:round; stroke-dasharray:none; stroke:black"/>
        <polygon points="99.963463,9.334638   98.594444,9.334638 98.594444,9.545988 99.963463,9.545988 99.963463,9.334638 " style="fill-opacity:1.0; fill-rule:evenodd; fill:white; stroke-width:0.023751; stroke-linecap:round; stroke-linejoin:round; stroke-dasharray:none; stroke:darkgray"/>
        <polygon points="76.978386,4.262231   77.843033,4.262231 77.843033,3.416830 76.978386,3.416830 76.978386,4.262231 " style="fill-opacity:1.0; fill-rule:evenodd; fill:darkgray; stroke:none"/>
        <text x="0" y="0" style="font-family:Helvetica; font-style:normal; font-weight:normal; font-size:0.493151; fill:black" transform="matrix(1.000000 -0.000000 0.000000 1.000000 77.218559 4.003914)">3</text>
        <polygon points="80.701149,4.262231   81.565788,4.262231 81.565788,3.416830 80.701149,3.416830 80.701149,4.262231 " style="fill-opacity:1.0; fill-rule:evenodd; fill:darkgray; stroke:none"/>
        <text x="0" y="0" style="font-family:Helvetica; font-style:normal; font-weight:normal; font-size:0.493151; fill:black" transform="matrix(1.000000 -0.000000 0.000000 1.000000 80.941330 4.003914)">4</text>
        <polygon points="87.546234,4.262231   88.410881,4.262231 88.410881,3.416830 87.546234,3.416830 87.546234,4.262231 " style="fill-opacity:1.0; fill-rule:evenodd; fill:darkgray; stroke:none"/>
        <text x="0" y="0" style="font-family:Helvetica; font-style:normal; font-weight:normal; font-size:0.493151; fill:black" transform="matrix(1.000000 -0.000000 0.000000 1.000000 87.762398 4.003914)">5</text>
        <polygon points="91.076859,4.262231   91.941498,4.262231 91.941498,3.416830 91.076859,3.416830 91.076859,4.262231 " style="fill-opacity:1.0; fill-rule:evenodd; fill:darkgray; stroke:none"/>
        <text x="0" y="0" style="font-family:Helvetica; font-style:normal; font-weight:normal; font-size:0.493151; fill:black" transform="matrix(1.000000 -0.000000 0.000000 1.000000 91.293022 4.003914)">6</text>
        <polygon points="94.511406,4.262231   95.376053,4.262231 95.376053,3.416830 94.511406,3.416830 94.511406,4.262231 " style="fill-opacity:1.0; fill-rule:evenodd; fill:darkgray; stroke:none"/>
        <text x="0" y="0" style="font-family:Helvetica; font-style:normal; font-weight:normal; font-size:0.493151; fill:black" transform="matrix(1.000000 -0.000000 0.000000 1.000000 94.727570 4.003914)">7</text>
        <polygon points="98.210152,4.262231   99.074799,4.262231 99.074799,3.416830 98.210152,3.416830 98.210152,4.262231 " style="fill-opacity:1.0; fill-rule:evenodd; fill:darkgray; stroke:none"/>
        <text x="0" y="0" style="font-family:Helvetica; font-style:normal; font-weight:normal; font-size:0.493151; fill:black" transform="matrix(1.000000 -0.000000 0.000000 1.000000 98.450333 4.003914)">8</text>
        <polygon points="119.441925,7.150685   104.262650,7.150685 104.262650,9.616438 119.441925,9.616438 119.441925,7.150685 " style="fill-opacity:1.0; fill-rule:evenodd; fill:yellow; stroke-width:0.023751; stroke-linecap:round; stroke-linejoin:round; stroke-dasharray:none; stroke:yellow"/>
        <polygon points="107.769257,7.221135   104.478813,7.221135 104.478813,9.334638 107.769257,9.334638 107.769257,7.221135 " style="fill-opacity:1.0; fill-rule:evenodd; fill:black; stroke-width:0.023751; stroke-linecap:round; stroke-linejoin:round; stroke-dasharray:none; stroke:black"/>
        <polygon points="105.727737,9.240705   104.887115,9.240705 104.887115,7.479452 107.673187,7.479452 107.673187,9.240705   106.832565,9.240705 106.832565,9.499022 108.081490,9.499022 108.081490,7.221135   104.478813,7.221135 104.478813,9.499022 105.727737,9.499022 105.727737,9.240705 " style="fill-opacity:1.0; fill-rule:evenodd; fill:gray; stroke-width:0.023751; stroke-linecap:round; stroke-linejoin:round; stroke-dasharray:none; stroke:black"/>
        <polygon points="106.952652,9.311154   105.607651,9.311154 105.607651,9.522505 106.952652,9.522505 106.952652,9.311154 " style="fill-opacity:1.0; fill-rule:evenodd; fill:white; stroke-width:0.023751; stroke-linecap:round; stroke-linejoin:round; stroke-dasharray:none; stroke:darkgray"/>
        <polygon points="111.468002,7.221135   108.201576,7.221135 108.201576,9.334638 111.468002,9.334638 111.468002,7.221135 " style="fill-opacity:1.0; fill-rule:evenodd; fill:black; stroke-width:0.023751; stroke-linecap:round; stroke-linejoin:round; stroke-dasharray:none; stroke:black"/>
        <polygon points="109.450508,9.240705   108.609879,9.240705 108.609879,7.479452 111.371933,7.479452 111.371933,9.240705   110.555328,9.240705 110.555328,9.499022 111.780235,9.499022 111.780235,7.221135   108.201576,7.221135 108.201576,9.499022 109.450508,9.499022 109.450508,9.240705 " style="fill-opacity:1.0; fill-rule:evenodd; fill:gray; stroke-width:0.023751; stroke-linecap:round; stroke-linejoin:round; stroke-dasharray:none; stroke:black"/>
        <polygon points="110.675423,9.334638   109.330421,9.334638 109.330421,9.545988 110.675423,9.545988 110.675423,9.334638 " style="fill-opacity:1.0; fill-rule:evenodd; fill:white; stroke-width:0.023751; stroke-linecap:round; stroke-linejoin:round; stroke-dasharray:none; stroke:darkgray"/>
        <polygon points="115.190773,7.221135   111.900322,7.221135 111.900322,9.334638 115.190773,9.334638 115.190773,7.221135 " style="fill-opacity:1.0; fill-rule:evenodd; fill:black; stroke-width:0.023751; stroke-linecap:round; stroke-linejoin:round; stroke-dasharray:none; stroke:black"/>
        <polygon points="113.149254,9.240705   112.284607,9.240705 112.284607,7.479452 115.094696,7.479452 115.094696,9.240705   114.230057,9.240705 114.230057,9.499022 115.478981,9.499022 115.478981,7.221135   111.900322,7.221135 111.900322,9.499022 113.149254,9.499022 113.149254,9.240705 " style="fill-opacity:1.0; fill-rule:evenodd; fill:gray; stroke-width:0.023751; stroke-linecap:round; stroke-linejoin:round; stroke-dasharray:none; stroke:black"/>
        <polygon points="114.374168,9.311154   113.005150,9.311154 113.005150,9.522505 114.374168,9.522505 114.374168,9.311154 " style="fill-opacity:1.0; fill-rule:evenodd; fill:white; stroke-width:0.023751; stroke-linecap:round; stroke-linejoin:round; stroke-dasharray:none; stroke:darkgray"/>
        <polygon points="118.913536,7.221135   115.623093,7.221135 115.623093,9.334638 118.913536,9.334638 118.913536,7.221135 " style="fill-opacity:1.0; fill-rule:evenodd; fill:black; stroke-width:0.023751; stroke-linecap:round; stroke-linejoin:round; stroke-dasharray:none; stroke:black"/>
        <polygon points="116.872017,9.240705   116.007378,9.240705 116.007378,7.479452 118.817467,7.479452 118.817467,9.240705   117.952827,9.240705 117.952827,9.499022 119.201752,9.499022 119.201752,7.221135   115.623093,7.221135 115.623093,9.499022 116.872017,9.499022 116.872017,9.240705 " style="fill-opacity:1.0; fill-rule:evenodd; fill:gray; stroke-width:0.023751; stroke-linecap:round; stroke-linejoin:round; stroke-dasharray:none; stroke:black"/>
        <polygon points="118.096931,9.334638   116.727913,9.334638 116.727913,9.545988 118.096931,9.545988 118.096931,9.334638 " style="fill-opacity:1.0; fill-rule:evenodd; fill:white; stroke-width:0.023751; stroke-linecap:round; stroke-linejoin:round; stroke-dasharray:none; stroke:darkgray"/>
        <polygon points="105.679703,4.262231   106.544342,4.262231 106.544342,3.416830 105.679703,3.416830 105.679703,4.262231 " style="fill-opacity:1.0; fill-rule:evenodd; fill:darkgray; stroke:none"/>
        <text x="0" y="0" style="font-family:Helvetica; font-style:normal; font-weight:normal; font-size:0.493151; fill:black" transform="matrix(1.000000 -0.000000 0.000000 1.000000 105.943901 4.003914)">9</text>
        <polygon points="109.162292,4.262231   110.026939,4.262231 110.026939,3.416830 109.162292,3.416830 109.162292,4.262231 " style="fill-opacity:1.0; fill-rule:evenodd; fill:darkgray; stroke:none"/>
        <text x="0" y="0" style="font-family:Helvetica; font-style:normal; font-weight:normal; font-size:0.493151; fill:black" transform="matrix(1.000000 -0.000000 0.000000 1.000000 109.234344 4.003914)">1</text>
        <text x="0" y="0" style="font-family:Helvetica; font-style:normal; font-weight:normal; font-size:0.493151; fill:black" transform="matrix(1.000000 -0.000000 0.000000 1.000000 109.522560 4.003914)">0</text>
        <polygon points="112.644882,4.262231   113.509521,4.262231 113.509521,3.416830 112.644882,3.416830 112.644882,4.262231 " style="fill-opacity:1.0; fill-rule:evenodd; fill:darkgray; stroke:none"/>
        <text x="0" y="0" style="font-family:Helvetica; font-style:normal; font-weight:normal; font-size:0.493151; fill:black" transform="matrix(1.000000 -0.000000 0.000000 1.000000 112.788986 4.003914)">1</text>
        <text x="0" y="0" style="font-family:Helvetica; font-style:normal; font-weight:normal; font-size:0.493151; fill:black" transform="matrix(1.000000 -0.000000 0.000000 1.000000 113.077202 4.003914)">1</text>
        <polygon points="116.343628,4.262231   117.208267,4.262231 117.208267,3.416830 116.343628,3.416830 116.343628,4.262231 " style="fill-opacity:1.0; fill-rule:evenodd; fill:darkgray; stroke:none"/>
        <text x="0" y="0" style="font-family:Helvetica; font-style:normal; font-weight:normal; font-size:0.493151; fill:black" transform="matrix(1.000000 -0.000000 0.000000 1.000000 116.415680 4.003914)">1</text>
        <text x="0" y="0" style="font-family:Helvetica; font-style:normal; font-weight:normal; font-size:0.493151; fill:black" transform="matrix(1.000000 -0.000000 0.000000 1.000000 116.703888 4.003914)">2</text>
        <polygon points="7.758964,2.712329   90.404358,2.712329 90.404358,0.598826 7.758964,0.598826 7.758964,2.712329 " style="fill-opacity:1.0; fill-rule:evenodd; fill:gainsboro; stroke-width:0.023751; stroke-linecap:round; stroke-linejoin:round; stroke-dasharray:none; stroke:gainsboro"/>
        <polygon points="90.332306,0.598826   90.332306,2.712329 102.917648,2.712329 90.332306,0.598826 " style="fill-opacity:1.0; fill-rule:evenodd; fill:gainsboro; stroke-width:0.023751; stroke-linecap:round; stroke-linejoin:round; stroke-dasharray:none; stroke:gainsboro"/>
      </g>
      <!--wmf-blob end-->
    </g>
  </g>
</svg>
