<svg xmlns="http://www.w3.org/2000/svg" xmlns:xlink="http://www.w3.org/1999/xlink" version="1.1" width="4.0320000000" height="2.1600000000">
  <title><![CDATA[FC SFP]]></title>
  <g transform=" scale(1.000000) ">
    <g xmlns="http://www.w3.org/2000/svg" id="Layer1043">
      <path d="  M0.0524,2.4411 L4.0359,2.4411 A0.0968,0.1093 0.0000 0,0 4.1327,2.3319 L4.1327,-0.3746 A0.0968,0.1093 0.0000 0,0 4.0359,-0.4839 L0.0524,-0.4839 A0.0968,0.1093 0.0000 0,0 -0.0444,-0.3746 L-0.0444,2.3319 A0.0968,0.1093 0.0000 0,0 0.0524,2.4411 Z" style="stroke-width: 0.0000; stroke-linecap: round; stroke-linejoin: round; fill-rule: evenodd; fill: #333333; "/>
      <path d="  M0.0524,2.4411 L4.0359,2.4411 A0.0968,0.1093 0.0000 0,0 4.1327,2.3319 L4.1327,-0.3746 A0.0968,0.1093 0.0000 0,0 4.0359,-0.4839 L0.0524,-0.4839 A0.0968,0.1093 0.0000 0,0 -0.0444,-0.3746 L-0.0444,2.3319 A0.0968,0.1093 0.0000 0,0 0.0524,2.4411 Z" style="stroke-width: 0.0000; stroke: #000000; stroke-dasharray: none; stroke-linecap: round; stroke-linejoin: round; fill: none; "/>
    </g>
    <g xmlns="http://www.w3.org/2000/svg" id="Layer1044">
      <defs>
        <radialGradient id="grad8" cx="50.0000%" cy="50.0000%" r="100.0000%">
          <stop offset="0%" stop-color="#ffffff" stop-opacity="1.0000"/>
          <stop offset="100%" stop-color="#e6e6e6" stop-opacity="1.0000"/>
        </radialGradient>
      </defs>
      <path d="  M3.8816,2.1880 L0.2066,2.1880 L0.2066,-0.2307 L3.8816,-0.2307 L3.8816,2.1880 Z" style="stroke-width: 0.0020; stroke-linecap: round; stroke-linejoin: round; fill-rule: evenodd; fill: url(#grad8); "/>
      <path d="  M3.8816,2.1880 L0.2066,2.1880 L0.2066,-0.2307 L3.8816,-0.2307 L3.8816,2.1880 Z" style="stroke-width: 0.0020; stroke: #4d4d4d; stroke-dasharray: none; stroke-linecap: round; stroke-linejoin: round; fill: none; "/>
    </g>
    <g xmlns="http://www.w3.org/2000/svg" xmlns:xlink="http://www.w3.org/1999/xlink" id="Layer1045">
      <defs>
        <linearGradient id="grad9">
          <stop offset="0%" stop-color="#cdcdcd" stop-opacity="1.0000"/>
          <stop offset="100%" stop-color="#9a9a9a" stop-opacity="1.0000"/>
        </linearGradient>
        <linearGradient xlink:href="#grad9" id="grad10" x1="0" y1="0" x2="0" y2="1" gradientTransform="rotate(180 .5 .5)" gradientUnits="objectBoundingBox">
  </linearGradient>
      </defs>
      <path d="  M1.8401,1.9956 L0.5976,1.9956 L0.5976,0.6556 L0.7432,0.6556 L0.7432,0.5306 L1.6770,0.5306 L1.6770,0.6556 L1.8401,0.6556 L1.8401,1.9956 Z M3.4906,1.9956 L2.2481,1.9956 L2.2481,0.6556 L2.3937,0.6556 L2.3937,0.5306 L3.3275,0.5306 L3.3275,0.6556 L3.4906,0.6556 L3.4906,1.9956 Z M1.5603,-0.1487 L1.5603,0.0852 L1.8402,0.0852 L1.8402,0.4083 L1.6770,0.4083 L1.6770,0.5346 L0.7432,0.5346 L0.7432,0.4083 L0.5976,0.4083 L0.5976,0.0852 L0.8775,0.0852 L0.8775,-0.1487 L1.5603,-0.1487 Z M3.2108,-0.1487 L3.2108,0.0852 L3.4906,0.0852 L3.4906,0.4083 L3.3275,0.4083 L3.3275,0.5346 L2.3937,0.5346 L2.3937,0.4083 L2.2480,0.4083 L2.2480,0.0852 L2.5279,0.0852 L2.5279,-0.1487 L3.2108,-0.1487 Z" style="stroke-width: 0.0000; stroke-linecap: round; stroke-linejoin: round; fill-rule: evenodd; fill: url(#grad10); "/>
      <path d="  M1.8401,1.9956 L0.5976,1.9956 L0.5976,0.6556 L0.7432,0.6556 L0.7432,0.5306 L1.6770,0.5306 L1.6770,0.6556 L1.8401,0.6556 L1.8401,1.9956 Z M3.4906,1.9956 L2.2481,1.9956 L2.2481,0.6556 L2.3937,0.6556 L2.3937,0.5306 L3.3275,0.5306 L3.3275,0.6556 L3.4906,0.6556 L3.4906,1.9956 Z M1.5603,-0.1487 L1.5603,0.0852 L1.8402,0.0852 L1.8402,0.4083 L1.6770,0.4083 L1.6770,0.5346 L0.7432,0.5346 L0.7432,0.4083 L0.5976,0.4083 L0.5976,0.0852 L0.8775,0.0852 L0.8775,-0.1487 L1.5603,-0.1487 Z M3.2108,-0.1487 L3.2108,0.0852 L3.4906,0.0852 L3.4906,0.4083 L3.3275,0.4083 L3.3275,0.5346 L2.3937,0.5346 L2.3937,0.4083 L2.2480,0.4083 L2.2480,0.0852 L2.5279,0.0852 L2.5279,-0.1487 L3.2108,-0.1487 Z" style="stroke-width: 0.0000; stroke: #808080; stroke-dasharray: none; stroke-linecap: round; stroke-linejoin: round; fill: none; "/>
    </g>
    <g xmlns="http://www.w3.org/2000/svg" id="Layer1046">
      <path d="  M3.1385,1.3547 A0.2644,0.2581 180.0000 1,1 2.8741,1.0966 A0.2644,0.2581 180.0000 0,1 3.1385,1.3547 Z M1.4785,1.3547 A0.2644,0.2581 180.0000 1,1 1.2141,1.0966 A0.2644,0.2581 180.0000 0,1 1.4785,1.3547 Z" style="stroke-width: 0.0000; stroke-linecap: round; stroke-linejoin: round; fill-rule: evenodd; fill: #4d4d4d; "/>
      <path d="  M3.1385,1.3547 A0.2644,0.2581 180.0000 1,1 2.8741,1.0966 A0.2644,0.2581 180.0000 0,1 3.1385,1.3547 Z M1.4785,1.3547 A0.2644,0.2581 180.0000 1,1 1.2141,1.0966 A0.2644,0.2581 180.0000 0,1 1.4785,1.3547 Z" style="stroke-width: 0.0000; stroke: #ffffff; stroke-dasharray: none; stroke-linecap: round; stroke-linejoin: round; fill: none; "/>
    </g>
    <text xmlns="http://www.w3.org/2000/svg" x="4.0281" y="0.9786">
      <tspan font-family="Arial" font-size="12.0000" fill="#000000" fill-opacity="1.0000" stroke-opacity="1.0000">
</tspan>
    </text>
    <!--converted by libvisio2svg-->
  </g>
</svg>
