<svg xmlns="http://www.w3.org/2000/svg" xmlns:xlink="http://www.w3.org/1999/xlink" version="1.1" width="68.4000000000" height="7.5938000000">
  <title><![CDATA[MX64-HW Front]]></title>
  <g transform=" scale(1.000000) ">
    <!--converted by libvisio2svg-->
    <g transform=" translate(-0.148500,-0.148500) ">
      <!--emf-blob start-->
      <g transform="translate(-0.0000, -0.0000)">
        <g transform="matrix(0.0625 0.0000 0.0000 0.0625 0.0000 0.0000)">
          <path d="M 1.9216,1.9216 L 1.9216,95.5993 L 1097.2304,95.5993 L 1097.2304,1.9216 L 1.9216,1.9216 Z" stroke-width="1px" stroke="#D8D8D8" fill="#D8D8D8"/>
        </g>
        <g transform="matrix(1.0000 0.0000 0.0000 1.0000 0.0000 0.0000)">
</g>
        <g transform="matrix(0.0625 0.0000 0.0000 0.0625 0.0000 0.0000)">
          <path d="M 1.9216,95.5993 L 1097.2304,95.5993 L 1097.2304,1.9216 L 1.9216,1.9216 L 1.9216,95.5993 Z" stroke="#000000" stroke-width="1.1409" stroke-linecap="round" stroke-linejoin="round" fill="none"/>
        </g>
        <g transform="matrix(1.0000 0.0000 0.0000 1.0000 0.0000 0.0000)">
</g>
        <g transform="matrix(0.0625 0.0000 0.0000 0.0625 0.0000 0.0000)">
          <path d="M 1.9216,95.5993 C 36.0299,110.6118 73.0206,117.9979 110.2515,117.2173 L 988.9005,117.2173 C 1026.1915,117.9979 1063.1221,110.6118 1097.2304,95.5993 L 1.9216,95.5993 Z " fill="#A5A5A5" stroke="none"/>
        </g>
        <g transform="matrix(1.0000 0.0000 0.0000 1.0000 0.0000 0.0000)">
</g>
        <g transform="matrix(0.0625 0.0000 0.0000 0.0625 0.0000 0.0000)">
          <path d="M 1.9216,95.5993 C 36.0299,110.6118 73.0206,117.9979 110.2515,117.2173 L 988.9005,117.2173 C 1026.1915,117.9979 1063.1221,110.6118 1097.2304,95.5993 L 1.9216,95.5993 Z " stroke="#000000" stroke-width="1.1409" stroke-linecap="round" stroke-linejoin="round" fill="none"/>
        </g>
        <g transform="matrix(1.0000 0.0000 0.0000 1.0000 0.0000 0.0000)">
          <path d="M 58.8488,7.3261 L 58.8488,7.7464 L 58.9089,7.7464 L 58.9089,7.3261 L 58.8488,7.3261 Z" stroke-width="1px" stroke="#000000" fill="#000000"/>
          <path d="M 58.9089,7.3261 L 58.9089,7.7464 L 58.9689,7.7464 L 58.9689,7.3261 L 58.9089,7.3261 Z" stroke-width="1px" stroke="#020202" fill="#020202"/>
          <path d="M 58.9689,7.3261 L 58.9689,7.7464 L 59.0290,7.7464 L 59.0290,7.3261 L 58.9689,7.3261 Z" stroke-width="1px" stroke="#060606" fill="#060606"/>
          <path d="M 59.0290,7.3261 L 59.0290,7.7464 L 59.0890,7.7464 L 59.0890,7.3261 L 59.0290,7.3261 Z" stroke-width="1px" stroke="#090909" fill="#090909"/>
          <path d="M 59.0890,7.3261 L 59.0890,7.7464 L 59.1491,7.7464 L 59.1491,7.3261 L 59.0890,7.3261 Z" stroke-width="1px" stroke="#0C0C0C" fill="#0C0C0C"/>
          <path d="M 59.1491,7.3261 L 59.1491,7.7464 L 59.2091,7.7464 L 59.2091,7.3261 L 59.1491,7.3261 Z" stroke-width="1px" stroke="#0F0F0F" fill="#0F0F0F"/>
          <path d="M 59.2091,7.3261 L 59.2091,7.7464 L 59.2692,7.7464 L 59.2692,7.3261 L 59.2091,7.3261 Z" stroke-width="1px" stroke="#131313" fill="#131313"/>
          <path d="M 59.2692,7.3261 L 59.2692,7.7464 L 59.3292,7.7464 L 59.3292,7.3261 L 59.2692,7.3261 Z" stroke-width="1px" stroke="#161616" fill="#161616"/>
          <path d="M 59.3292,7.3261 L 59.3292,7.7464 L 59.3893,7.7464 L 59.3893,7.3261 L 59.3292,7.3261 Z" stroke-width="1px" stroke="#191919" fill="#191919"/>
          <path d="M 59.3893,7.3261 L 59.3893,7.7464 L 59.4493,7.7464 L 59.4493,7.3261 L 59.3893,7.3261 Z" stroke-width="1px" stroke="#1C1C1C" fill="#1C1C1C"/>
          <path d="M 59.4493,7.3261 L 59.4493,7.7464 L 59.5094,7.7464 L 59.5094,7.3261 L 59.4493,7.3261 Z" stroke-width="1px" stroke="#202020" fill="#202020"/>
          <path d="M 59.5094,7.3261 L 59.5094,7.7464 L 59.5694,7.7464 L 59.5694,7.3261 L 59.5094,7.3261 Z" stroke-width="1px" stroke="#222222" fill="#222222"/>
          <path d="M 59.5694,7.3261 L 59.5694,7.7464 L 59.6295,7.7464 L 59.6295,7.3261 L 59.5694,7.3261 Z" stroke-width="1px" stroke="#262626" fill="#262626"/>
          <path d="M 59.6295,7.3261 L 59.6295,7.7464 L 59.6895,7.7464 L 59.6895,7.3261 L 59.6295,7.3261 Z" stroke-width="1px" stroke="#292929" fill="#292929"/>
          <path d="M 59.6895,7.3261 L 59.6895,7.7464 L 59.7496,7.7464 L 59.7496,7.3261 L 59.6895,7.3261 Z" stroke-width="1px" stroke="#2C2C2C" fill="#2C2C2C"/>
          <path d="M 59.7496,7.3261 L 59.7496,7.7464 L 59.8096,7.7464 L 59.8096,7.3261 L 59.7496,7.3261 Z" stroke-width="1px" stroke="#2F2F2F" fill="#2F2F2F"/>
          <path d="M 59.8096,7.3261 L 59.8096,7.7464 L 59.8697,7.7464 L 59.8697,7.3261 L 59.8096,7.3261 Z" stroke-width="1px" stroke="#333333" fill="#333333"/>
          <path d="M 59.8697,7.3261 L 59.8697,7.7464 L 59.9297,7.7464 L 59.9297,7.3261 L 59.8697,7.3261 Z" stroke-width="1px" stroke="#363636" fill="#363636"/>
          <path d="M 59.9297,7.3261 L 59.9297,7.7464 L 59.9898,7.7464 L 59.9898,7.3261 L 59.9297,7.3261 Z" stroke-width="1px" stroke="#393939" fill="#393939"/>
          <path d="M 59.9898,7.3261 L 59.9898,7.7464 L 60.0498,7.7464 L 60.0498,7.3261 L 59.9898,7.3261 Z" stroke-width="1px" stroke="#3C3C3C" fill="#3C3C3C"/>
          <path d="M 60.0498,7.3261 L 60.0498,7.7464 L 60.1099,7.7464 L 60.1099,7.3261 L 60.0498,7.3261 Z" stroke-width="1px" stroke="#3E3E3E" fill="#3E3E3E"/>
          <path d="M 60.1099,7.3261 L 60.1099,7.7464 L 60.1699,7.7464 L 60.1699,7.3261 L 60.1099,7.3261 Z" stroke-width="1px" stroke="#3B3B3B" fill="#3B3B3B"/>
          <path d="M 60.1699,7.3261 L 60.1699,7.7464 L 60.2300,7.7464 L 60.2300,7.3261 L 60.1699,7.3261 Z" stroke-width="1px" stroke="#383838" fill="#383838"/>
          <path d="M 60.2300,7.3261 L 60.2300,7.7464 L 60.2900,7.7464 L 60.2900,7.3261 L 60.2300,7.3261 Z" stroke-width="1px" stroke="#353535" fill="#353535"/>
          <path d="M 60.2900,7.3261 L 60.2900,7.7464 L 60.3501,7.7464 L 60.3501,7.3261 L 60.2900,7.3261 Z" stroke-width="1px" stroke="#313131" fill="#313131"/>
          <path d="M 60.3501,7.3261 L 60.3501,7.7464 L 60.4101,7.7464 L 60.4101,7.3261 L 60.3501,7.3261 Z" stroke-width="1px" stroke="#2E2E2E" fill="#2E2E2E"/>
          <path d="M 60.4101,7.3261 L 60.4101,7.7464 L 60.4702,7.7464 L 60.4702,7.3261 L 60.4101,7.3261 Z" stroke-width="1px" stroke="#2B2B2B" fill="#2B2B2B"/>
          <path d="M 60.4702,7.3261 L 60.4702,7.7464 L 60.5302,7.7464 L 60.5302,7.3261 L 60.4702,7.3261 Z" stroke-width="1px" stroke="#282828" fill="#282828"/>
          <path d="M 60.5302,7.3261 L 60.5302,7.7464 L 60.5903,7.7464 L 60.5903,7.3261 L 60.5302,7.3261 Z" stroke-width="1px" stroke="#242424" fill="#242424"/>
          <path d="M 60.5903,7.3261 L 60.5903,7.7464 L 60.6503,7.7464 L 60.6503,7.3261 L 60.5903,7.3261 Z" stroke-width="1px" stroke="#212121" fill="#212121"/>
          <path d="M 60.6503,7.3261 L 60.6503,7.7464 L 60.7104,7.7464 L 60.7104,7.3261 L 60.6503,7.3261 Z" stroke-width="1px" stroke="#1E1E1E" fill="#1E1E1E"/>
          <path d="M 60.7104,7.3261 L 60.7104,7.7464 L 60.7704,7.7464 L 60.7704,7.3261 L 60.7104,7.3261 Z" stroke-width="1px" stroke="#1B1B1B" fill="#1B1B1B"/>
          <path d="M 60.7704,7.3261 L 60.7704,7.7464 L 60.8305,7.7464 L 60.8305,7.3261 L 60.7704,7.3261 Z" stroke-width="1px" stroke="#171717" fill="#171717"/>
          <path d="M 60.8305,7.3261 L 60.8305,7.7464 L 60.8905,7.7464 L 60.8905,7.3261 L 60.8305,7.3261 Z" stroke-width="1px" stroke="#141414" fill="#141414"/>
          <path d="M 60.8905,7.3261 L 60.8905,7.7464 L 60.9506,7.7464 L 60.9506,7.3261 L 60.8905,7.3261 Z" stroke-width="1px" stroke="#111111" fill="#111111"/>
          <path d="M 60.9506,7.3261 L 60.9506,7.7464 L 61.0106,7.7464 L 61.0106,7.3261 L 60.9506,7.3261 Z" stroke-width="1px" stroke="#0E0E0E" fill="#0E0E0E"/>
          <path d="M 61.0106,7.3261 L 61.0106,7.7464 L 61.0707,7.7464 L 61.0707,7.3261 L 61.0106,7.3261 Z" stroke-width="1px" stroke="#0A0A0A" fill="#0A0A0A"/>
          <path d="M 61.0707,7.3261 L 61.0707,7.7464 L 61.1307,7.7464 L 61.1307,7.3261 L 61.0707,7.3261 Z" stroke-width="1px" stroke="#070707" fill="#070707"/>
          <path d="M 61.1307,7.3261 L 61.1307,7.7464 L 61.1908,7.7464 L 61.1908,7.3261 L 61.1307,7.3261 Z" stroke-width="1px" stroke="#040404" fill="#040404"/>
          <path d="M 61.1908,7.3261 L 61.1908,7.7464 L 61.2508,7.7464 L 61.2508,7.3261 L 61.1908,7.3261 Z" stroke-width="1px" stroke="#010101" fill="#010101"/>
        </g>
        <g transform="matrix(0.0625 0.0000 0.0000 0.0625 0.0000 0.0000)">
          <path d="M 942.3019,123.5225 L 980.1332,123.5225 L 980.1332,117.2173 L 942.3019,117.2173 L 942.3019,123.5225 Z" stroke="#000000" stroke-width="1.1409" stroke-linecap="round" stroke-linejoin="round" fill="none"/>
        </g>
        <g transform="matrix(1.0000 0.0000 0.0000 1.0000 0.0000 0.0000)">
          <path d="M 59.0890,0.1201 L 59.0890,6.0050 L 59.8096,6.0050 L 59.8096,0.1201 L 59.0890,0.1201 Z" stroke-width="1px" stroke="#D8D8D8" fill="#D8D8D8"/>
          <path d="M 59.8096,0.1201 L 59.8096,6.0050 L 60.4101,6.0050 L 60.4101,0.1201 L 59.8096,0.1201 Z" stroke-width="1px" stroke="#D6D6D6" fill="#D6D6D6"/>
          <path d="M 60.4101,0.1201 L 60.4101,6.0050 L 60.7704,6.0050 L 60.7704,0.1201 L 60.4101,0.1201 Z" stroke-width="1px" stroke="#D4D4D4" fill="#D4D4D4"/>
          <path d="M 60.7704,0.1201 L 60.7704,6.0050 L 61.1908,6.0050 L 61.1908,0.1201 L 60.7704,0.1201 Z" stroke-width="1px" stroke="#D2D2D2" fill="#D2D2D2"/>
          <path d="M 61.1908,0.1201 L 61.1908,6.0050 L 61.4310,6.0050 L 61.4310,0.1201 L 61.1908,0.1201 Z" stroke-width="1px" stroke="#D0D0D0" fill="#D0D0D0"/>
          <path d="M 61.4310,0.1201 L 61.4310,6.0050 L 61.6712,6.0050 L 61.6712,0.1201 L 61.4310,0.1201 Z" stroke-width="1px" stroke="#CECECE" fill="#CECECE"/>
          <path d="M 61.6712,0.1201 L 61.6712,6.0050 L 61.9114,6.0050 L 61.9114,0.1201 L 61.6712,0.1201 Z" stroke-width="1px" stroke="#CCCCCC" fill="#CCCCCC"/>
          <path d="M 61.9114,0.1201 L 61.9114,6.0050 L 62.1516,6.0050 L 62.1516,0.1201 L 61.9114,0.1201 Z" stroke-width="1px" stroke="#CACACA" fill="#CACACA"/>
          <path d="M 62.1516,0.1201 L 62.1516,6.0050 L 62.3317,6.0050 L 62.3317,0.1201 L 62.1516,0.1201 Z" stroke-width="1px" stroke="#C8C8C8" fill="#C8C8C8"/>
          <path d="M 62.3317,0.1201 L 62.3317,6.0050 L 62.5119,6.0050 L 62.5119,0.1201 L 62.3317,0.1201 Z" stroke-width="1px" stroke="#C6C6C6" fill="#C6C6C6"/>
          <path d="M 62.5119,0.1201 L 62.5119,6.0050 L 62.6920,6.0050 L 62.6920,0.1201 L 62.5119,0.1201 Z" stroke-width="1px" stroke="#C4C4C4" fill="#C4C4C4"/>
          <path d="M 62.6920,0.1201 L 62.6920,6.0050 L 62.8121,6.0050 L 62.8121,0.1201 L 62.6920,0.1201 Z" stroke-width="1px" stroke="#C2C2C2" fill="#C2C2C2"/>
          <path d="M 62.8121,0.1201 L 62.8121,6.0050 L 62.9923,6.0050 L 62.9923,0.1201 L 62.8121,0.1201 Z" stroke-width="1px" stroke="#C0C0C0" fill="#C0C0C0"/>
          <path d="M 62.9923,0.1201 L 62.9923,6.0050 L 63.1124,6.0050 L 63.1124,0.1201 L 62.9923,0.1201 Z" stroke-width="1px" stroke="#BEBEBE" fill="#BEBEBE"/>
          <path d="M 63.1124,0.1201 L 63.1124,6.0050 L 63.2925,6.0050 L 63.2925,0.1201 L 63.1124,0.1201 Z" stroke-width="1px" stroke="#BCBCBC" fill="#BCBCBC"/>
          <path d="M 63.2925,0.1201 L 63.2925,6.0050 L 63.4126,6.0050 L 63.4126,0.1201 L 63.2925,0.1201 Z" stroke-width="1px" stroke="#BABABA" fill="#BABABA"/>
          <path d="M 63.4126,0.1201 L 63.4126,6.0050 L 63.5928,6.0050 L 63.5928,0.1201 L 63.4126,0.1201 Z" stroke-width="1px" stroke="#B8B8B8" fill="#B8B8B8"/>
          <path d="M 63.5928,0.1201 L 63.5928,6.0050 L 63.6528,6.0050 L 63.6528,0.1201 L 63.5928,0.1201 Z" stroke-width="1px" stroke="#B6B6B6" fill="#B6B6B6"/>
          <path d="M 63.6528,0.1201 L 63.6528,6.0050 L 63.8330,6.0050 L 63.8330,0.1201 L 63.6528,0.1201 Z" stroke-width="1px" stroke="#B4B4B4" fill="#B4B4B4"/>
          <path d="M 63.8330,0.1201 L 63.8330,6.0050 L 63.9531,6.0050 L 63.9531,0.1201 L 63.8330,0.1201 Z" stroke-width="1px" stroke="#B2B2B2" fill="#B2B2B2"/>
          <path d="M 63.9531,0.1201 L 63.9531,6.0050 L 64.0732,6.0050 L 64.0732,0.1201 L 63.9531,0.1201 Z" stroke-width="1px" stroke="#B0B0B0" fill="#B0B0B0"/>
          <path d="M 64.0732,0.1201 L 64.0732,6.0050 L 64.2533,6.0050 L 64.2533,0.1201 L 64.0732,0.1201 Z" stroke-width="1px" stroke="#AEAEAE" fill="#AEAEAE"/>
          <path d="M 64.2533,0.1201 L 64.2533,6.0050 L 64.4335,6.0050 L 64.4335,0.1201 L 64.2533,0.1201 Z" stroke-width="1px" stroke="#ABABAB" fill="#ABABAB"/>
          <path d="M 64.4335,0.1201 L 64.4335,6.0050 L 64.5536,6.0050 L 64.5536,0.1201 L 64.4335,0.1201 Z" stroke-width="1px" stroke="#A9A9A9" fill="#A9A9A9"/>
          <path d="M 64.5536,0.1201 L 64.5536,6.0050 L 64.6737,6.0050 L 64.6737,0.1201 L 64.5536,0.1201 Z" stroke-width="1px" stroke="#A7A7A7" fill="#A7A7A7"/>
          <path d="M 64.6737,0.1201 L 64.6737,6.0050 L 64.8538,6.0050 L 64.8538,0.1201 L 64.6737,0.1201 Z" stroke-width="1px" stroke="#A5A5A5" fill="#A5A5A5"/>
          <path d="M 64.8538,0.1201 L 64.8538,6.0050 L 65.0340,6.0050 L 65.0340,0.1201 L 64.8538,0.1201 Z" stroke-width="1px" stroke="#A2A2A2" fill="#A2A2A2"/>
          <path d="M 65.0340,0.1201 L 65.0340,6.0050 L 65.2141,6.0050 L 65.2141,0.1201 L 65.0340,0.1201 Z" stroke-width="1px" stroke="#9F9F9F" fill="#9F9F9F"/>
          <path d="M 65.2141,0.1201 L 65.2141,6.0050 L 65.3342,6.0050 L 65.3342,0.1201 L 65.2141,0.1201 Z" stroke-width="1px" stroke="#9D9D9D" fill="#9D9D9D"/>
          <path d="M 65.3342,0.1201 L 65.3342,6.0050 L 65.5144,6.0050 L 65.5144,0.1201 L 65.3342,0.1201 Z" stroke-width="1px" stroke="#9B9B9B" fill="#9B9B9B"/>
          <path d="M 65.5144,0.1201 L 65.5144,6.0050 L 65.6945,6.0050 L 65.6945,0.1201 L 65.5144,0.1201 Z" stroke-width="1px" stroke="#989898" fill="#989898"/>
          <path d="M 65.6945,0.1201 L 65.6945,6.0050 L 65.8146,6.0050 L 65.8146,0.1201 L 65.6945,0.1201 Z" stroke-width="1px" stroke="#969696" fill="#969696"/>
          <path d="M 65.8146,0.1201 L 65.8146,6.0050 L 65.9948,6.0050 L 65.9948,0.1201 L 65.8146,0.1201 Z" stroke-width="1px" stroke="#949494" fill="#949494"/>
          <path d="M 65.9948,0.1201 L 65.9948,6.0050 L 66.1749,6.0050 L 66.1749,0.1201 L 65.9948,0.1201 Z" stroke-width="1px" stroke="#929292" fill="#929292"/>
          <path d="M 66.1749,0.1201 L 66.1749,6.0050 L 66.3551,6.0050 L 66.3551,0.1201 L 66.1749,0.1201 Z" stroke-width="1px" stroke="#909090" fill="#909090"/>
          <path d="M 66.3551,0.1201 L 66.3551,6.0050 L 66.5352,6.0050 L 66.5352,0.1201 L 66.3551,0.1201 Z" stroke-width="1px" stroke="#8E8E8E" fill="#8E8E8E"/>
          <path d="M 66.5352,0.1201 L 66.5352,6.0050 L 66.7154,6.0050 L 66.7154,0.1201 L 66.5352,0.1201 Z" stroke-width="1px" stroke="#8C8C8C" fill="#8C8C8C"/>
          <path d="M 66.7154,0.1201 L 66.7154,6.0050 L 66.9556,6.0050 L 66.9556,0.1201 L 66.7154,0.1201 Z" stroke-width="1px" stroke="#8A8A8A" fill="#8A8A8A"/>
          <path d="M 66.9556,0.1201 L 66.9556,6.0050 L 67.1357,6.0050 L 67.1357,0.1201 L 66.9556,0.1201 Z" stroke-width="1px" stroke="#888888" fill="#888888"/>
          <path d="M 67.1357,0.1201 L 67.1357,6.0050 L 67.4360,6.0050 L 67.4360,0.1201 L 67.1357,0.1201 Z" stroke-width="1px" stroke="#868686" fill="#868686"/>
          <path d="M 67.4360,0.1201 L 67.4360,6.0050 L 67.7362,6.0050 L 67.7362,0.1201 L 67.4360,0.1201 Z" stroke-width="1px" stroke="#848484" fill="#848484"/>
          <path d="M 67.7362,0.1201 L 67.7362,6.0050 L 68.1566,6.0050 L 68.1566,0.1201 L 67.7362,0.1201 Z" stroke-width="1px" stroke="#828282" fill="#828282"/>
          <path d="M 68.1566,0.1201 L 68.1566,6.0050 L 68.5769,6.0050 L 68.5769,0.1201 L 68.1566,0.1201 Z" stroke-width="1px" stroke="#7F7F7F" fill="#7F7F7F"/>
        </g>
        <g transform="matrix(0.0625 0.0000 0.0000 0.0625 0.0000 0.0000)">
          <path d="M 945.9048,95.5993 L 1097.2304,95.5993 L 1097.2304,1.9216 L 945.9048,1.9216 " stroke="#000000" stroke-width="1.1409" stroke-linecap="round" stroke-linejoin="round" fill="none"/>
        </g>
        <g transform="matrix(1.0000 0.0000 0.0000 1.0000 0.0000 0.0000)">
</g>
        <g transform="matrix(0.0625 0.0000 0.0000 0.0625 0.0000 0.0000)">
          <path d="M 886.2153,61.4910 L 886.2153,74.6419 L 889.5781,74.6419 L 889.5781,61.4910 L 886.2153,61.4910 Z" stroke-width="1px" stroke="#000000" fill="#000000"/>
        </g>
        <g transform="matrix(1.0000 0.0000 0.0000 1.0000 0.0000 0.0000)">
</g>
        <g transform="matrix(0.0625 0.0000 0.0000 0.0625 0.0000 0.0000)">
          <path d="M 916.3003,65.2742 C 916.1802,65.1541 915.0993,64.5536 913.5380,64.5536 C 911.3762,64.5536 909.8750,66.0548 909.8750,68.0365 C 909.8750,70.0181 911.3161,71.5794 913.5380,71.5794 C 915.0993,71.5794 916.1802,70.9188 916.3003,70.8588 L 916.3003,74.4017 C 915.8799,74.5218 914.7390,74.8821 913.2978,74.8821 C 909.5747,74.8821 906.2720,72.3000 906.2720,68.0365 C 906.2720,64.1332 909.2144,61.2508 913.2978,61.2508 C 914.8591,61.2508 916.0000,61.6111 916.3003,61.7312 L 916.3003,65.2742 Z " fill="#000000" stroke="none"/>
        </g>
        <g transform="matrix(1.0000 0.0000 0.0000 1.0000 0.0000 0.0000)">
</g>
        <g transform="matrix(0.0625 0.0000 0.0000 0.0625 0.0000 0.0000)">
          <path d="M 881.6515,65.2742 C 881.5314,65.1541 880.4505,64.5536 878.8892,64.5536 C 876.7274,64.5536 875.2863,66.0548 875.2863,68.0365 C 875.2863,70.0181 876.6674,71.5794 878.8892,71.5794 C 880.4505,71.5794 881.5314,70.9188 881.6515,70.8588 L 881.6515,74.4017 C 881.2912,74.5218 880.1503,74.8821 878.6490,74.8821 C 874.9260,74.8821 871.6833,72.3000 871.6833,68.0365 C 871.6833,64.1332 874.6257,61.2508 878.6490,61.2508 C 880.2103,61.2508 881.3513,61.6111 881.6515,61.7312 L 881.6515,65.2742 Z " fill="#000000" stroke="none"/>
        </g>
        <g transform="matrix(1.0000 0.0000 0.0000 1.0000 0.0000 0.0000)">
</g>
        <g transform="matrix(0.0625 0.0000 0.0000 0.0625 0.0000 0.0000)">
          <path d="M 933.7147,68.0365 C 933.7147,71.8196 930.7723,74.8821 926.7490,74.8821 C 922.7256,74.8821 919.7832,71.8196 919.7832,68.0365 C 919.7832,64.3134 922.7256,61.2508 926.7490,61.2508 C 930.7723,61.2508 933.7147,64.3134 933.7147,68.0365 Z M 926.7490,64.6136 C 924.7673,64.6136 923.3261,66.1749 923.3261,68.0365 C 923.3261,69.9580 924.7673,71.5193 926.7490,71.5193 C 928.7306,71.5193 930.1718,69.9580 930.1718,68.0365 C 930.1718,66.1149 928.7306,64.6136 926.7490,64.6136 Z " fill="#000000" stroke="none"/>
        </g>
        <g transform="matrix(1.0000 0.0000 0.0000 1.0000 0.0000 0.0000)">
</g>
        <g transform="matrix(0.0625 0.0000 0.0000 0.0625 0.0000 0.0000)">
          <path d="M 902.1285,64.4935 C 902.0685,64.4335 900.6873,64.0732 899.5464,64.0732 C 898.2253,64.0732 897.5047,64.4935 897.5047,65.1541 C 897.5047,65.9347 898.4655,66.2350 899.0059,66.4151 L 899.9067,66.7154 C 902.0685,67.3759 903.0893,68.8771 903.0893,70.4384 C 903.0893,73.7412 900.1469,74.8821 897.6248,74.8821 C 895.8833,74.8821 894.2019,74.5218 894.0218,74.5218 L 894.0218,71.4593 C 894.3220,71.5794 895.7032,71.9397 897.1444,71.9397 C 898.8258,71.9397 899.6064,71.4593 899.6064,70.7387 C 899.6064,70.0781 898.9459,69.6578 898.1052,69.4176 C 897.9250,69.3575 897.6248,69.2975 897.3846,69.1774 C 895.5230,68.6370 894.0218,67.5561 894.0218,65.3342 C 894.0218,62.8722 895.8233,61.2508 898.8858,61.2508 C 900.5072,61.2508 902.0685,61.6111 902.1285,61.6712 L 902.1285,64.4935 L 902.1285,64.4935 Z " fill="#000000" stroke="none"/>
        </g>
        <g transform="matrix(1.0000 0.0000 0.0000 1.0000 0.0000 0.0000)">
</g>
        <g transform="matrix(0.0625 0.0000 0.0000 0.0625 0.0000 0.0000)">
          <path d="M 868.1403,47.3793 C 868.1403,46.4185 867.4197,45.6979 866.5190,45.6979 C 865.5582,45.6979 864.8376,46.4185 864.8376,47.3793 L 864.8376,50.8022 C 864.8376,51.7029 865.5582,52.4235 866.4589,52.4235 C 867.4197,52.4235 868.1403,51.7029 868.1403,50.8022 L 868.1403,47.3793 L 868.1403,47.3793 Z " fill="#000000" stroke="none"/>
        </g>
        <g transform="matrix(1.0000 0.0000 0.0000 1.0000 0.0000 0.0000)">
</g>
        <g transform="matrix(0.0625 0.0000 0.0000 0.0625 0.0000 0.0000)">
          <path d="M 877.2078,42.8155 C 877.2078,41.9148 876.4272,41.1942 875.5265,41.1942 C 874.6257,41.1942 873.9051,41.9148 873.9051,42.8155 L 873.9051,50.8022 C 873.9051,51.7029 874.6257,52.4235 875.5265,52.4235 C 876.4272,52.4235 877.2078,51.7029 877.2078,50.8022 L 877.2078,42.8155 Z " fill="#000000" stroke="none"/>
        </g>
        <g transform="matrix(1.0000 0.0000 0.0000 1.0000 0.0000 0.0000)">
</g>
        <g transform="matrix(0.0625 0.0000 0.0000 0.0625 0.0000 0.0000)">
          <path d="M 886.2153,36.6304 C 886.2153,35.7296 885.4947,35.0090 884.5940,35.0090 C 883.6932,35.0090 882.9126,35.7296 882.9126,36.6304 L 882.9126,54.1049 C 882.9126,55.0056 883.6932,55.7262 884.5940,55.7262 C 885.4947,55.7262 886.2153,55.0056 886.2153,54.1049 L 886.2153,36.6304 L 886.2153,36.6304 Z " fill="#000000" stroke="none"/>
        </g>
        <g transform="matrix(1.0000 0.0000 0.0000 1.0000 0.0000 0.0000)">
</g>
        <g transform="matrix(0.0625 0.0000 0.0000 0.0625 0.0000 0.0000)">
          <path d="M 895.2828,42.8155 C 895.2828,41.9148 894.5622,41.1942 893.6014,41.1942 C 892.7007,41.1942 891.9801,41.9148 891.9801,42.8155 L 891.9801,50.8022 C 891.9801,51.7029 892.7007,52.4235 893.6014,52.4235 C 894.5622,52.4235 895.2828,51.7029 895.2828,50.8022 L 895.2828,42.8155 Z " fill="#000000" stroke="none"/>
        </g>
        <g transform="matrix(1.0000 0.0000 0.0000 1.0000 0.0000 0.0000)">
</g>
        <g transform="matrix(0.0625 0.0000 0.0000 0.0625 0.0000 0.0000)">
          <path d="M 904.2903,47.3793 C 904.2903,46.4185 903.5697,45.6979 902.6690,45.6979 C 901.7682,45.6979 901.0476,46.4185 901.0476,47.3793 L 901.0476,50.8022 C 901.0476,51.7029 901.7682,52.4235 902.6690,52.4235 C 903.5697,52.4235 904.2903,51.7029 904.2903,50.8022 L 904.2903,47.3793 Z " fill="#000000" stroke="none"/>
        </g>
        <g transform="matrix(1.0000 0.0000 0.0000 1.0000 0.0000 0.0000)">
</g>
        <g transform="matrix(0.0625 0.0000 0.0000 0.0625 0.0000 0.0000)">
          <path d="M 913.3578,42.8155 C 913.3578,41.9148 912.6372,41.1942 911.7365,41.1942 C 910.8357,41.1942 910.0551,41.9148 910.0551,42.8155 L 910.0551,50.8022 C 910.0551,51.7029 910.8357,52.4235 911.7365,52.4235 C 912.6372,52.4235 913.3578,51.7029 913.3578,50.8022 L 913.3578,42.8155 Z " fill="#000000" stroke="none"/>
        </g>
        <g transform="matrix(1.0000 0.0000 0.0000 1.0000 0.0000 0.0000)">
</g>
        <g transform="matrix(0.0625 0.0000 0.0000 0.0625 0.0000 0.0000)">
          <path d="M 922.4254,36.6304 C 922.4254,35.7296 921.7048,35.0090 920.8040,35.0090 C 919.8432,35.0090 919.1226,35.7296 919.1226,36.6304 L 919.1226,54.1049 C 919.1226,55.0056 919.8432,55.7262 920.8040,55.7262 C 921.7048,55.7262 922.4254,55.0056 922.4254,54.1049 L 922.4254,36.6304 L 922.4254,36.6304 Z " fill="#000000" stroke="none"/>
        </g>
        <g transform="matrix(1.0000 0.0000 0.0000 1.0000 0.0000 0.0000)">
</g>
        <g transform="matrix(0.0625 0.0000 0.0000 0.0625 0.0000 0.0000)">
          <path d="M 931.4929,42.8155 C 931.4929,41.9148 930.7122,41.1942 929.8115,41.1942 C 928.9107,41.1942 928.1901,41.9148 928.1901,42.8155 L 928.1901,50.8022 C 928.1901,51.7029 928.9107,52.4235 929.8115,52.4235 C 930.7122,52.4235 931.4929,51.7029 931.4929,50.8022 L 931.4929,42.8155 Z " fill="#000000" stroke="none"/>
        </g>
        <g transform="matrix(1.0000 0.0000 0.0000 1.0000 0.0000 0.0000)">
</g>
        <g transform="matrix(0.0625 0.0000 0.0000 0.0625 0.0000 0.0000)">
          <path d="M 940.5004,47.3793 C 940.5004,46.4185 939.7798,45.6979 938.8790,45.6979 C 937.9783,45.6979 937.1976,46.4185 937.1976,47.3793 L 937.1976,50.8022 C 937.1976,51.7029 937.9783,52.4235 938.8790,52.4235 C 939.7798,52.4235 940.5004,51.7029 940.5004,50.8022 L 940.5004,47.3793 Z " fill="#000000" stroke="none"/>
        </g>
        <g transform="matrix(1.0000 0.0000 0.0000 1.0000 0.0000 0.0000)">
</g>
        <g transform="matrix(0.0625 0.0000 0.0000 0.0625 0.0000 0.0000)">
          <path d="M 938.5788,72.9005 L 938.5788,73.0806 L 938.0383,73.0806 L 938.0383,74.6419 L 937.7981,74.6419 L 937.7981,73.0806 L 937.1976,73.0806 L 937.1976,72.9005 L 938.5788,72.9005 Z" stroke-width="1px" stroke="#000000" fill="#000000"/>
        </g>
        <g transform="matrix(1.0000 0.0000 0.0000 1.0000 0.0000 0.0000)">
</g>
        <g transform="matrix(0.0625 0.0000 0.0000 0.0625 0.0000 0.0000)">
          <path d="M 938.7589,72.9005 L 939.1192,72.9005 L 939.5996,74.3417 L 939.6597,74.3417 L 940.1401,72.9005 L 940.5004,72.9005 L 940.5004,74.6419 L 940.2602,74.6419 L 940.2602,73.2007 L 940.2602,73.2007 L 939.7197,74.6419 L 939.4795,74.6419 L 938.9991,73.2007 L 938.9991,73.2007 L 938.9991,74.6419 L 938.7589,74.6419 L 938.7589,72.9005 Z" stroke-width="1px" stroke="#000000" fill="#000000"/>
        </g>
        <g transform="matrix(1.0000 0.0000 0.0000 1.0000 0.0000 0.0000)">
</g>
        <g transform="matrix(16.0000 0.0000 0.0000 16.0000 0.0000 0.0000)">
          <path d="M 945.9048,117.2173 L 988.9005,117.2173 C 1026.1915,117.9979 1063.1221,110.6118 1097.2304,95.5993 L 945.9048,95.5993 L 945.9048,117.2173 Z " fill="none" stroke="none"/>
        </g>
        <g transform="matrix(1.0000 0.0000 0.0000 1.0000 0.0000 0.0000)">
          <defs>
            <clipPath id="clip-352406219">
              <path d="M 945.9048,117.2173 L 988.9005,117.2173 C 1026.1915,117.9979 1063.1221,110.6118 1097.2304,95.5993 L 945.9048,95.5993 L 945.9048,117.2173 Z"/>
            </clipPath>
          </defs>
          <path clip-path="url(#clip-352406219)" d="M 59.0890,5.9449 L 59.0890,7.4462 L 59.8096,7.4462 L 59.8096,5.9449 L 59.0890,5.9449 Z" stroke-width="1px" stroke="#A5A5A5" fill="#A5A5A5"/>
          <path clip-path="url(#clip-352406219)" d="M 59.8096,5.9449 L 59.8096,7.4462 L 60.4101,7.4462 L 60.4101,5.9449 L 59.8096,5.9449 Z" stroke-width="1px" stroke="#A3A3A3" fill="#A3A3A3"/>
          <path clip-path="url(#clip-352406219)" d="M 60.4101,5.9449 L 60.4101,7.4462 L 60.8305,7.4462 L 60.8305,5.9449 L 60.4101,5.9449 Z" stroke-width="1px" stroke="#A1A1A1" fill="#A1A1A1"/>
          <path clip-path="url(#clip-352406219)" d="M 60.8305,5.9449 L 60.8305,7.4462 L 61.1908,7.4462 L 61.1908,5.9449 L 60.8305,5.9449 Z" stroke-width="1px" stroke="#9F9F9F" fill="#9F9F9F"/>
          <path clip-path="url(#clip-352406219)" d="M 61.1908,5.9449 L 61.1908,7.4462 L 61.4910,7.4462 L 61.4910,5.9449 L 61.1908,5.9449 Z" stroke-width="1px" stroke="#9D9D9D" fill="#9D9D9D"/>
          <path clip-path="url(#clip-352406219)" d="M 61.4910,5.9449 L 61.4910,7.4462 L 61.7312,7.4462 L 61.7312,5.9449 L 61.4910,5.9449 Z" stroke-width="1px" stroke="#9B9B9B" fill="#9B9B9B"/>
          <path clip-path="url(#clip-352406219)" d="M 61.7312,5.9449 L 61.7312,7.4462 L 61.9114,7.4462 L 61.9114,5.9449 L 61.7312,5.9449 Z" stroke-width="1px" stroke="#999999" fill="#999999"/>
          <path clip-path="url(#clip-352406219)" d="M 61.9114,5.9449 L 61.9114,7.4462 L 62.1516,7.4462 L 62.1516,5.9449 L 61.9114,5.9449 Z" stroke-width="1px" stroke="#979797" fill="#979797"/>
          <path clip-path="url(#clip-352406219)" d="M 62.1516,5.9449 L 62.1516,7.4462 L 62.3317,7.4462 L 62.3317,5.9449 L 62.1516,5.9449 Z" stroke-width="1px" stroke="#959595" fill="#959595"/>
          <path clip-path="url(#clip-352406219)" d="M 62.3317,5.9449 L 62.3317,7.4462 L 62.5119,7.4462 L 62.5119,5.9449 L 62.3317,5.9449 Z" stroke-width="1px" stroke="#939393" fill="#939393"/>
          <path clip-path="url(#clip-352406219)" d="M 62.5119,5.9449 L 62.5119,7.4462 L 62.6920,7.4462 L 62.6920,5.9449 L 62.5119,5.9449 Z" stroke-width="1px" stroke="#919191" fill="#919191"/>
          <path clip-path="url(#clip-352406219)" d="M 62.6920,5.9449 L 62.6920,7.4462 L 62.8121,7.4462 L 62.8121,5.9449 L 62.6920,5.9449 Z" stroke-width="1px" stroke="#8F8F8F" fill="#8F8F8F"/>
          <path clip-path="url(#clip-352406219)" d="M 62.8121,5.9449 L 62.8121,7.4462 L 62.9923,7.4462 L 62.9923,5.9449 L 62.8121,5.9449 Z" stroke-width="1px" stroke="#8D8D8D" fill="#8D8D8D"/>
          <path clip-path="url(#clip-352406219)" d="M 62.9923,5.9449 L 62.9923,7.4462 L 63.1124,7.4462 L 63.1124,5.9449 L 62.9923,5.9449 Z" stroke-width="1px" stroke="#8B8B8B" fill="#8B8B8B"/>
          <path clip-path="url(#clip-352406219)" d="M 63.1124,5.9449 L 63.1124,7.4462 L 63.2925,7.4462 L 63.2925,5.9449 L 63.1124,5.9449 Z" stroke-width="1px" stroke="#898989" fill="#898989"/>
          <path clip-path="url(#clip-352406219)" d="M 63.2925,5.9449 L 63.2925,7.4462 L 63.4126,7.4462 L 63.4126,5.9449 L 63.2925,5.9449 Z" stroke-width="1px" stroke="#878787" fill="#878787"/>
          <path clip-path="url(#clip-352406219)" d="M 63.4126,5.9449 L 63.4126,7.4462 L 63.5327,7.4462 L 63.5327,5.9449 L 63.4126,5.9449 Z" stroke-width="1px" stroke="#858585" fill="#858585"/>
          <path clip-path="url(#clip-352406219)" d="M 63.5327,5.9449 L 63.5327,7.4462 L 63.6528,7.4462 L 63.6528,5.9449 L 63.5327,5.9449 Z" stroke-width="1px" stroke="#838383" fill="#838383"/>
          <path clip-path="url(#clip-352406219)" d="M 63.6528,5.9449 L 63.6528,7.4462 L 63.7729,7.4462 L 63.7729,5.9449 L 63.6528,5.9449 Z" stroke-width="1px" stroke="#818181" fill="#818181"/>
          <path clip-path="url(#clip-352406219)" d="M 63.7729,5.9449 L 63.7729,7.4462 L 63.8930,7.4462 L 63.8930,5.9449 L 63.7729,5.9449 Z" stroke-width="1px" stroke="#7F7F7F" fill="#7F7F7F"/>
          <path clip-path="url(#clip-352406219)" d="M 63.8930,5.9449 L 63.8930,7.4462 L 64.0732,7.4462 L 64.0732,5.9449 L 63.8930,5.9449 Z" stroke-width="1px" stroke="#7D7D7D" fill="#7D7D7D"/>
          <path clip-path="url(#clip-352406219)" d="M 64.0732,5.9449 L 64.0732,7.4462 L 64.1332,7.4462 L 64.1332,5.9449 L 64.0732,5.9449 Z" stroke-width="1px" stroke="#7B7B7B" fill="#7B7B7B"/>
          <path clip-path="url(#clip-352406219)" d="M 64.1332,5.9449 L 64.1332,7.4462 L 64.2533,7.4462 L 64.2533,5.9449 L 64.1332,5.9449 Z" stroke-width="1px" stroke="#797979" fill="#797979"/>
          <path clip-path="url(#clip-352406219)" d="M 64.2533,5.9449 L 64.2533,7.4462 L 64.3734,7.4462 L 64.3734,5.9449 L 64.2533,5.9449 Z" stroke-width="1px" stroke="#777777" fill="#777777"/>
          <path clip-path="url(#clip-352406219)" d="M 64.3734,5.9449 L 64.3734,7.4462 L 64.5536,7.4462 L 64.5536,5.9449 L 64.3734,5.9449 Z" stroke-width="1px" stroke="#757575" fill="#757575"/>
          <path clip-path="url(#clip-352406219)" d="M 64.5536,5.9449 L 64.5536,7.4462 L 64.6136,7.4462 L 64.6136,5.9449 L 64.5536,5.9449 Z" stroke-width="1px" stroke="#737373" fill="#737373"/>
          <path clip-path="url(#clip-352406219)" d="M 64.6136,5.9449 L 64.6136,7.4462 L 64.7337,7.4462 L 64.7337,5.9449 L 64.6136,5.9449 Z" stroke-width="1px" stroke="#717171" fill="#717171"/>
          <path clip-path="url(#clip-352406219)" d="M 64.7337,5.9449 L 64.7337,7.4462 L 64.8538,7.4462 L 64.8538,5.9449 L 64.7337,5.9449 Z" stroke-width="1px" stroke="#6F6F6F" fill="#6F6F6F"/>
          <path clip-path="url(#clip-352406219)" d="M 64.8538,5.9449 L 64.8538,7.4462 L 65.0340,7.4462 L 65.0340,5.9449 L 64.8538,5.9449 Z" stroke-width="1px" stroke="#6D6D6D" fill="#6D6D6D"/>
          <path clip-path="url(#clip-352406219)" d="M 65.0340,5.9449 L 65.0340,7.4462 L 65.1541,7.4462 L 65.1541,5.9449 L 65.0340,5.9449 Z" stroke-width="1px" stroke="#6A6A6A" fill="#6A6A6A"/>
          <path clip-path="url(#clip-352406219)" d="M 65.1541,5.9449 L 65.1541,7.4462 L 65.2742,7.4462 L 65.2742,5.9449 L 65.1541,5.9449 Z" stroke-width="1px" stroke="#686868" fill="#686868"/>
          <path clip-path="url(#clip-352406219)" d="M 65.2742,5.9449 L 65.2742,7.4462 L 65.3943,7.4462 L 65.3943,5.9449 L 65.2742,5.9449 Z" stroke-width="1px" stroke="#666666" fill="#666666"/>
          <path clip-path="url(#clip-352406219)" d="M 65.3943,5.9449 L 65.3943,7.4462 L 65.5144,7.4462 L 65.5144,5.9449 L 65.3943,5.9449 Z" stroke-width="1px" stroke="#646464" fill="#646464"/>
          <path clip-path="url(#clip-352406219)" d="M 65.5144,5.9449 L 65.5144,7.4462 L 65.6345,7.4462 L 65.6345,5.9449 L 65.5144,5.9449 Z" stroke-width="1px" stroke="#626262" fill="#626262"/>
          <path clip-path="url(#clip-352406219)" d="M 65.6345,5.9449 L 65.6345,7.4462 L 65.7546,7.4462 L 65.7546,5.9449 L 65.6345,5.9449 Z" stroke-width="1px" stroke="#606060" fill="#606060"/>
          <path clip-path="url(#clip-352406219)" d="M 65.7546,5.9449 L 65.7546,7.4462 L 65.8747,7.4462 L 65.8747,5.9449 L 65.7546,5.9449 Z" stroke-width="1px" stroke="#5E5E5E" fill="#5E5E5E"/>
          <path clip-path="url(#clip-352406219)" d="M 65.8747,5.9449 L 65.8747,7.4462 L 65.9948,7.4462 L 65.9948,5.9449 L 65.8747,5.9449 Z" stroke-width="1px" stroke="#5C5C5C" fill="#5C5C5C"/>
          <path clip-path="url(#clip-352406219)" d="M 65.9948,5.9449 L 65.9948,7.4462 L 66.1149,7.4462 L 66.1149,5.9449 L 65.9948,5.9449 Z" stroke-width="1px" stroke="#5A5A5A" fill="#5A5A5A"/>
          <path clip-path="url(#clip-352406219)" d="M 66.1149,5.9449 L 66.1149,7.4462 L 66.2950,7.4462 L 66.2950,5.9449 L 66.1149,5.9449 Z" stroke-width="1px" stroke="#585858" fill="#585858"/>
          <path clip-path="url(#clip-352406219)" d="M 66.2950,5.9449 L 66.2950,7.4462 L 66.4752,7.4462 L 66.4752,5.9449 L 66.2950,5.9449 Z" stroke-width="1px" stroke="#555555" fill="#555555"/>
          <path clip-path="url(#clip-352406219)" d="M 66.4752,5.9449 L 66.4752,7.4462 L 66.5953,7.4462 L 66.5953,5.9449 L 66.4752,5.9449 Z" stroke-width="1px" stroke="#535353" fill="#535353"/>
          <path clip-path="url(#clip-352406219)" d="M 66.5953,5.9449 L 66.5953,7.4462 L 66.7754,7.4462 L 66.7754,5.9449 L 66.5953,5.9449 Z" stroke-width="1px" stroke="#515151" fill="#515151"/>
          <path clip-path="url(#clip-352406219)" d="M 66.7754,5.9449 L 66.7754,7.4462 L 66.8955,7.4462 L 66.8955,5.9449 L 66.7754,5.9449 Z" stroke-width="1px" stroke="#4F4F4F" fill="#4F4F4F"/>
          <path clip-path="url(#clip-352406219)" d="M 66.8955,5.9449 L 66.8955,7.4462 L 67.0156,7.4462 L 67.0156,5.9449 L 66.8955,5.9449 Z" stroke-width="1px" stroke="#4D4D4D" fill="#4D4D4D"/>
          <path clip-path="url(#clip-352406219)" d="M 67.0156,5.9449 L 67.0156,7.4462 L 67.2558,7.4462 L 67.2558,5.9449 L 67.0156,5.9449 Z" stroke-width="1px" stroke="#4B4B4B" fill="#4B4B4B"/>
          <path clip-path="url(#clip-352406219)" d="M 67.2558,5.9449 L 67.2558,7.4462 L 67.4360,7.4462 L 67.4360,5.9449 L 67.2558,5.9449 Z" stroke-width="1px" stroke="#494949" fill="#494949"/>
          <path clip-path="url(#clip-352406219)" d="M 67.4360,5.9449 L 67.4360,7.4462 L 67.6161,7.4462 L 67.6161,5.9449 L 67.4360,5.9449 Z" stroke-width="1px" stroke="#474747" fill="#474747"/>
          <path clip-path="url(#clip-352406219)" d="M 67.6161,5.9449 L 67.6161,7.4462 L 67.9164,7.4462 L 67.9164,5.9449 L 67.6161,5.9449 Z" stroke-width="1px" stroke="#454545" fill="#454545"/>
          <path clip-path="url(#clip-352406219)" d="M 67.9164,5.9449 L 67.9164,7.4462 L 68.1566,7.4462 L 68.1566,5.9449 L 67.9164,5.9449 Z" stroke-width="1px" stroke="#434343" fill="#434343"/>
          <path clip-path="url(#clip-352406219)" d="M 68.1566,5.9449 L 68.1566,7.4462 L 68.4568,7.4462 L 68.4568,5.9449 L 68.1566,5.9449 Z" stroke-width="1px" stroke="#414141" fill="#414141"/>
          <path clip-path="url(#clip-352406219)" d="M 68.4568,5.9449 L 68.4568,7.4462 L 68.6370,7.4462 L 68.6370,5.9449 L 68.4568,5.9449 Z" stroke-width="1px" stroke="#3F3F3F" fill="#3F3F3F"/>
        </g>
        <g transform="matrix(0.0625 0.0000 0.0000 0.0625 0.0000 0.0000)">
          <path d="M 945.9048,117.2173 L 988.9005,117.2173 C 1026.1915,117.9979 1063.1221,110.6118 1097.2304,95.5993 L 945.9048,95.5993 " stroke="#000000" stroke-width="1.1409" stroke-linecap="round" stroke-linejoin="round" fill="none"/>
        </g>
        <g transform="matrix(1.0000 0.0000 0.0000 1.0000 0.0000 0.0000)">
          <path d="M 0.1201,0.1201 L 0.1201,6.0050 L 0.5404,6.0050 L 0.5404,0.1201 L 0.1201,0.1201 Z" stroke-width="1px" stroke="#7F7F7F" fill="#7F7F7F"/>
          <path d="M 0.5404,0.1201 L 0.5404,6.0050 L 0.9608,6.0050 L 0.9608,0.1201 L 0.5404,0.1201 Z" stroke-width="1px" stroke="#818181" fill="#818181"/>
          <path d="M 0.9608,0.1201 L 0.9608,6.0050 L 1.2610,6.0050 L 1.2610,0.1201 L 0.9608,0.1201 Z" stroke-width="1px" stroke="#838383" fill="#838383"/>
          <path d="M 1.2610,0.1201 L 1.2610,6.0050 L 1.5613,6.0050 L 1.5613,0.1201 L 1.2610,0.1201 Z" stroke-width="1px" stroke="#858585" fill="#858585"/>
          <path d="M 1.5613,0.1201 L 1.5613,6.0050 L 1.7414,6.0050 L 1.7414,0.1201 L 1.5613,0.1201 Z" stroke-width="1px" stroke="#878787" fill="#878787"/>
          <path d="M 1.7414,0.1201 L 1.7414,6.0050 L 1.9816,6.0050 L 1.9816,0.1201 L 1.7414,0.1201 Z" stroke-width="1px" stroke="#898989" fill="#898989"/>
          <path d="M 1.9816,0.1201 L 1.9816,6.0050 L 2.1618,6.0050 L 2.1618,0.1201 L 1.9816,0.1201 Z" stroke-width="1px" stroke="#8B8B8B" fill="#8B8B8B"/>
          <path d="M 2.1618,0.1201 L 2.1618,6.0050 L 2.3419,6.0050 L 2.3419,0.1201 L 2.1618,0.1201 Z" stroke-width="1px" stroke="#8D8D8D" fill="#8D8D8D"/>
          <path d="M 2.3419,0.1201 L 2.3419,6.0050 L 2.5221,6.0050 L 2.5221,0.1201 L 2.3419,0.1201 Z" stroke-width="1px" stroke="#8F8F8F" fill="#8F8F8F"/>
          <path d="M 2.5221,0.1201 L 2.5221,6.0050 L 2.7022,6.0050 L 2.7022,0.1201 L 2.5221,0.1201 Z" stroke-width="1px" stroke="#919191" fill="#919191"/>
          <path d="M 2.7022,0.1201 L 2.7022,6.0050 L 2.8824,6.0050 L 2.8824,0.1201 L 2.7022,0.1201 Z" stroke-width="1px" stroke="#939393" fill="#939393"/>
          <path d="M 2.8824,0.1201 L 2.8824,6.0050 L 3.0025,6.0050 L 3.0025,0.1201 L 2.8824,0.1201 Z" stroke-width="1px" stroke="#959595" fill="#959595"/>
          <path d="M 3.0025,0.1201 L 3.0025,6.0050 L 3.1826,6.0050 L 3.1826,0.1201 L 3.0025,0.1201 Z" stroke-width="1px" stroke="#979797" fill="#979797"/>
          <path d="M 3.1826,0.1201 L 3.1826,6.0050 L 3.3628,6.0050 L 3.3628,0.1201 L 3.1826,0.1201 Z" stroke-width="1px" stroke="#9A9A9A" fill="#9A9A9A"/>
          <path d="M 3.3628,0.1201 L 3.3628,6.0050 L 3.4829,6.0050 L 3.4829,0.1201 L 3.3628,0.1201 Z" stroke-width="1px" stroke="#9C9C9C" fill="#9C9C9C"/>
          <path d="M 3.4829,0.1201 L 3.4829,6.0050 L 3.6630,6.0050 L 3.6630,0.1201 L 3.4829,0.1201 Z" stroke-width="1px" stroke="#9E9E9E" fill="#9E9E9E"/>
          <path d="M 3.6630,0.1201 L 3.6630,6.0050 L 3.8432,6.0050 L 3.8432,0.1201 L 3.6630,0.1201 Z" stroke-width="1px" stroke="#A1A1A1" fill="#A1A1A1"/>
          <path d="M 3.8432,0.1201 L 3.8432,6.0050 L 4.0233,6.0050 L 4.0233,0.1201 L 3.8432,0.1201 Z" stroke-width="1px" stroke="#A4A4A4" fill="#A4A4A4"/>
          <path d="M 4.0233,0.1201 L 4.0233,6.0050 L 4.1434,6.0050 L 4.1434,0.1201 L 4.0233,0.1201 Z" stroke-width="1px" stroke="#A6A6A6" fill="#A6A6A6"/>
          <path d="M 4.1434,0.1201 L 4.1434,6.0050 L 4.2635,6.0050 L 4.2635,0.1201 L 4.1434,0.1201 Z" stroke-width="1px" stroke="#A8A8A8" fill="#A8A8A8"/>
          <path d="M 4.2635,0.1201 L 4.2635,6.0050 L 4.4437,6.0050 L 4.4437,0.1201 L 4.2635,0.1201 Z" stroke-width="1px" stroke="#AAAAAA" fill="#AAAAAA"/>
          <path d="M 4.4437,0.1201 L 4.4437,6.0050 L 4.6238,6.0050 L 4.6238,0.1201 L 4.4437,0.1201 Z" stroke-width="1px" stroke="#ADADAD" fill="#ADADAD"/>
          <path d="M 4.6238,0.1201 L 4.6238,6.0050 L 4.7439,6.0050 L 4.7439,0.1201 L 4.6238,0.1201 Z" stroke-width="1px" stroke="#AFAFAF" fill="#AFAFAF"/>
          <path d="M 4.7439,0.1201 L 4.7439,6.0050 L 4.8640,6.0050 L 4.8640,0.1201 L 4.7439,0.1201 Z" stroke-width="1px" stroke="#B1B1B1" fill="#B1B1B1"/>
          <path d="M 4.8640,0.1201 L 4.8640,6.0050 L 4.9841,6.0050 L 4.9841,0.1201 L 4.8640,0.1201 Z" stroke-width="1px" stroke="#B3B3B3" fill="#B3B3B3"/>
          <path d="M 4.9841,0.1201 L 4.9841,6.0050 L 5.1042,6.0050 L 5.1042,0.1201 L 4.9841,0.1201 Z" stroke-width="1px" stroke="#B5B5B5" fill="#B5B5B5"/>
          <path d="M 5.1042,0.1201 L 5.1042,6.0050 L 5.2844,6.0050 L 5.2844,0.1201 L 5.1042,0.1201 Z" stroke-width="1px" stroke="#B7B7B7" fill="#B7B7B7"/>
          <path d="M 5.2844,0.1201 L 5.2844,6.0050 L 5.4045,6.0050 L 5.4045,0.1201 L 5.2844,0.1201 Z" stroke-width="1px" stroke="#B9B9B9" fill="#B9B9B9"/>
          <path d="M 5.4045,0.1201 L 5.4045,6.0050 L 5.5846,6.0050 L 5.5846,0.1201 L 5.4045,0.1201 Z" stroke-width="1px" stroke="#BBBBBB" fill="#BBBBBB"/>
          <path d="M 5.5846,0.1201 L 5.5846,6.0050 L 5.7047,6.0050 L 5.7047,0.1201 L 5.5846,0.1201 Z" stroke-width="1px" stroke="#BDBDBD" fill="#BDBDBD"/>
          <path d="M 5.7047,0.1201 L 5.7047,6.0050 L 5.8849,6.0050 L 5.8849,0.1201 L 5.7047,0.1201 Z" stroke-width="1px" stroke="#BFBFBF" fill="#BFBFBF"/>
          <path d="M 5.8849,0.1201 L 5.8849,6.0050 L 6.0050,6.0050 L 6.0050,0.1201 L 5.8849,0.1201 Z" stroke-width="1px" stroke="#C1C1C1" fill="#C1C1C1"/>
          <path d="M 6.0050,0.1201 L 6.0050,6.0050 L 6.1851,6.0050 L 6.1851,0.1201 L 6.0050,0.1201 Z" stroke-width="1px" stroke="#C3C3C3" fill="#C3C3C3"/>
          <path d="M 6.1851,0.1201 L 6.1851,6.0050 L 6.3653,6.0050 L 6.3653,0.1201 L 6.1851,0.1201 Z" stroke-width="1px" stroke="#C5C5C5" fill="#C5C5C5"/>
          <path d="M 6.3653,0.1201 L 6.3653,6.0050 L 6.5454,6.0050 L 6.5454,0.1201 L 6.3653,0.1201 Z" stroke-width="1px" stroke="#C7C7C7" fill="#C7C7C7"/>
          <path d="M 6.5454,0.1201 L 6.5454,6.0050 L 6.7856,6.0050 L 6.7856,0.1201 L 6.5454,0.1201 Z" stroke-width="1px" stroke="#C9C9C9" fill="#C9C9C9"/>
          <path d="M 6.7856,0.1201 L 6.7856,6.0050 L 7.0258,6.0050 L 7.0258,0.1201 L 6.7856,0.1201 Z" stroke-width="1px" stroke="#CBCBCB" fill="#CBCBCB"/>
          <path d="M 7.0258,0.1201 L 7.0258,6.0050 L 7.2660,6.0050 L 7.2660,0.1201 L 7.0258,0.1201 Z" stroke-width="1px" stroke="#CDCDCD" fill="#CDCDCD"/>
          <path d="M 7.2660,0.1201 L 7.2660,6.0050 L 7.5062,6.0050 L 7.5062,0.1201 L 7.2660,0.1201 Z" stroke-width="1px" stroke="#CFCFCF" fill="#CFCFCF"/>
          <path d="M 7.5062,0.1201 L 7.5062,6.0050 L 7.8665,6.0050 L 7.8665,0.1201 L 7.5062,0.1201 Z" stroke-width="1px" stroke="#D1D1D1" fill="#D1D1D1"/>
          <path d="M 7.8665,0.1201 L 7.8665,6.0050 L 8.2869,6.0050 L 8.2869,0.1201 L 7.8665,0.1201 Z" stroke-width="1px" stroke="#D3D3D3" fill="#D3D3D3"/>
          <path d="M 8.2869,0.1201 L 8.2869,6.0050 L 8.8874,6.0050 L 8.8874,0.1201 L 8.2869,0.1201 Z" stroke-width="1px" stroke="#D5D5D5" fill="#D5D5D5"/>
          <path d="M 8.8874,0.1201 L 8.8874,6.0050 L 9.6080,6.0050 L 9.6080,0.1201 L 8.8874,0.1201 Z" stroke-width="1px" stroke="#D8D8D8" fill="#D8D8D8"/>
        </g>
        <g transform="matrix(0.0625 0.0000 0.0000 0.0625 0.0000 0.0000)">
          <path d="M 153.2472,95.5993 L 1.9216,95.5993 L 1.9216,1.9216 L 153.2472,1.9216 " stroke="#000000" stroke-width="1.1409" stroke-linecap="round" stroke-linejoin="round" fill="none"/>
        </g>
        <g transform="matrix(1.0000 0.0000 0.0000 1.0000 0.0000 0.0000)">
</g>
        <g transform="matrix(0.0625 0.0000 0.0000 0.0625 0.0000 0.0000)">
          <path d="M 125.3240,80.2866 L 150.5449,80.2866 C 154.0278,80.2866 156.8501,77.4643 156.8501,73.9814 C 156.8501,70.4985 154.0278,67.6762 150.5449,67.6762 C 150.5449,67.6762 150.5449,67.6762 150.5449,67.6762 L 125.3240,67.6762 C 121.8411,67.6762 119.0188,70.4985 119.0188,73.9814 C 119.0188,77.4643 121.8411,80.2866 125.3240,80.2866 C 125.3240,80.2866 125.3240,80.2866 125.3240,80.2866 Z " fill="#FFFFFF" stroke="none"/>
        </g>
        <g transform="matrix(1.0000 0.0000 0.0000 1.0000 0.0000 0.0000)">
</g>
        <g transform="matrix(16.0000 0.0000 0.0000 16.0000 0.0000 0.0000)">
          <path d="M 153.2472,117.2173 L 110.2515,117.2173 C 73.0206,117.9979 36.0299,110.6118 1.9216,95.5993 L 153.2472,95.5993 L 153.2472,117.2173 Z " fill="none" stroke="none"/>
        </g>
        <g transform="matrix(1.0000 0.0000 0.0000 1.0000 0.0000 0.0000)">
          <defs>
            <clipPath id="clip-1600028624">
              <path d="M 153.2472,117.2173 L 110.2515,117.2173 C 73.0206,117.9979 36.0299,110.6118 1.9216,95.5993 L 153.2472,95.5993 L 153.2472,117.2173 Z"/>
            </clipPath>
          </defs>
          <path clip-path="url(#clip-1600028624)" d="M 0.1201,5.9449 L 0.1201,7.4462 L 0.3603,7.4462 L 0.3603,5.9449 L 0.1201,5.9449 Z" stroke-width="1px" stroke="#3F3F3F" fill="#3F3F3F"/>
          <path clip-path="url(#clip-1600028624)" d="M 0.3603,5.9449 L 0.3603,7.4462 L 0.7206,7.4462 L 0.7206,5.9449 L 0.3603,5.9449 Z" stroke-width="1px" stroke="#414141" fill="#414141"/>
          <path clip-path="url(#clip-1600028624)" d="M 0.7206,5.9449 L 0.7206,7.4462 L 0.9007,7.4462 L 0.9007,5.9449 L 0.7206,5.9449 Z" stroke-width="1px" stroke="#434343" fill="#434343"/>
          <path clip-path="url(#clip-1600028624)" d="M 0.9007,5.9449 L 0.9007,7.4462 L 1.2010,7.4462 L 1.2010,5.9449 L 0.9007,5.9449 Z" stroke-width="1px" stroke="#454545" fill="#454545"/>
          <path clip-path="url(#clip-1600028624)" d="M 1.2010,5.9449 L 1.2010,7.4462 L 1.3811,7.4462 L 1.3811,5.9449 L 1.2010,5.9449 Z" stroke-width="1px" stroke="#474747" fill="#474747"/>
          <path clip-path="url(#clip-1600028624)" d="M 1.3811,5.9449 L 1.3811,7.4462 L 1.5613,7.4462 L 1.5613,5.9449 L 1.3811,5.9449 Z" stroke-width="1px" stroke="#494949" fill="#494949"/>
          <path clip-path="url(#clip-1600028624)" d="M 1.5613,5.9449 L 1.5613,7.4462 L 1.7414,7.4462 L 1.7414,5.9449 L 1.5613,5.9449 Z" stroke-width="1px" stroke="#4B4B4B" fill="#4B4B4B"/>
          <path clip-path="url(#clip-1600028624)" d="M 1.7414,5.9449 L 1.7414,7.4462 L 1.8615,7.4462 L 1.8615,5.9449 L 1.7414,5.9449 Z" stroke-width="1px" stroke="#4D4D4D" fill="#4D4D4D"/>
          <path clip-path="url(#clip-1600028624)" d="M 1.8615,5.9449 L 1.8615,7.4462 L 2.0417,7.4462 L 2.0417,5.9449 L 1.8615,5.9449 Z" stroke-width="1px" stroke="#4F4F4F" fill="#4F4F4F"/>
          <path clip-path="url(#clip-1600028624)" d="M 2.0417,5.9449 L 2.0417,7.4462 L 2.1618,7.4462 L 2.1618,5.9449 L 2.0417,5.9449 Z" stroke-width="1px" stroke="#515151" fill="#515151"/>
          <path clip-path="url(#clip-1600028624)" d="M 2.1618,5.9449 L 2.1618,7.4462 L 2.3419,7.4462 L 2.3419,5.9449 L 2.1618,5.9449 Z" stroke-width="1px" stroke="#535353" fill="#535353"/>
          <path clip-path="url(#clip-1600028624)" d="M 2.3419,5.9449 L 2.3419,7.4462 L 2.4020,7.4462 L 2.4020,5.9449 L 2.3419,5.9449 Z" stroke-width="1px" stroke="#555555" fill="#555555"/>
          <path clip-path="url(#clip-1600028624)" d="M 2.4020,5.9449 L 2.4020,7.4462 L 2.5821,7.4462 L 2.5821,5.9449 L 2.4020,5.9449 Z" stroke-width="1px" stroke="#575757" fill="#575757"/>
          <path clip-path="url(#clip-1600028624)" d="M 2.5821,5.9449 L 2.5821,7.4462 L 2.7022,7.4462 L 2.7022,5.9449 L 2.5821,5.9449 Z" stroke-width="1px" stroke="#595959" fill="#595959"/>
          <path clip-path="url(#clip-1600028624)" d="M 2.7022,5.9449 L 2.7022,7.4462 L 2.8223,7.4462 L 2.8223,5.9449 L 2.7022,5.9449 Z" stroke-width="1px" stroke="#5B5B5B" fill="#5B5B5B"/>
          <path clip-path="url(#clip-1600028624)" d="M 2.8223,5.9449 L 2.8223,7.4462 L 2.9424,7.4462 L 2.9424,5.9449 L 2.8223,5.9449 Z" stroke-width="1px" stroke="#5D5D5D" fill="#5D5D5D"/>
          <path clip-path="url(#clip-1600028624)" d="M 2.9424,5.9449 L 2.9424,7.4462 L 3.0625,7.4462 L 3.0625,5.9449 L 2.9424,5.9449 Z" stroke-width="1px" stroke="#5F5F5F" fill="#5F5F5F"/>
          <path clip-path="url(#clip-1600028624)" d="M 3.0625,5.9449 L 3.0625,7.4462 L 3.1826,7.4462 L 3.1826,5.9449 L 3.0625,5.9449 Z" stroke-width="1px" stroke="#616161" fill="#616161"/>
          <path clip-path="url(#clip-1600028624)" d="M 3.1826,5.9449 L 3.1826,7.4462 L 3.3027,7.4462 L 3.3027,5.9449 L 3.1826,5.9449 Z" stroke-width="1px" stroke="#636363" fill="#636363"/>
          <path clip-path="url(#clip-1600028624)" d="M 3.3027,5.9449 L 3.3027,7.4462 L 3.4228,7.4462 L 3.4228,5.9449 L 3.3027,5.9449 Z" stroke-width="1px" stroke="#656565" fill="#656565"/>
          <path clip-path="url(#clip-1600028624)" d="M 3.4228,5.9449 L 3.4228,7.4462 L 3.5429,7.4462 L 3.5429,5.9449 L 3.4228,5.9449 Z" stroke-width="1px" stroke="#676767" fill="#676767"/>
          <path clip-path="url(#clip-1600028624)" d="M 3.5429,5.9449 L 3.5429,7.4462 L 3.6630,7.4462 L 3.6630,5.9449 L 3.5429,5.9449 Z" stroke-width="1px" stroke="#6A6A6A" fill="#6A6A6A"/>
          <path clip-path="url(#clip-1600028624)" d="M 3.6630,5.9449 L 3.6630,7.4462 L 3.8432,7.4462 L 3.8432,5.9449 L 3.6630,5.9449 Z" stroke-width="1px" stroke="#6C6C6C" fill="#6C6C6C"/>
          <path clip-path="url(#clip-1600028624)" d="M 3.8432,5.9449 L 3.8432,7.4462 L 4.0233,7.4462 L 4.0233,5.9449 L 3.8432,5.9449 Z" stroke-width="1px" stroke="#6F6F6F" fill="#6F6F6F"/>
          <path clip-path="url(#clip-1600028624)" d="M 4.0233,5.9449 L 4.0233,7.4462 L 4.1434,7.4462 L 4.1434,5.9449 L 4.0233,5.9449 Z" stroke-width="1px" stroke="#727272" fill="#727272"/>
          <path clip-path="url(#clip-1600028624)" d="M 4.1434,5.9449 L 4.1434,7.4462 L 4.3236,7.4462 L 4.3236,5.9449 L 4.1434,5.9449 Z" stroke-width="1px" stroke="#747474" fill="#747474"/>
          <path clip-path="url(#clip-1600028624)" d="M 4.3236,5.9449 L 4.3236,7.4462 L 4.4437,7.4462 L 4.4437,5.9449 L 4.3236,5.9449 Z" stroke-width="1px" stroke="#777777" fill="#777777"/>
          <path clip-path="url(#clip-1600028624)" d="M 4.4437,5.9449 L 4.4437,7.4462 L 4.5638,7.4462 L 4.5638,5.9449 L 4.4437,5.9449 Z" stroke-width="1px" stroke="#797979" fill="#797979"/>
          <path clip-path="url(#clip-1600028624)" d="M 4.5638,5.9449 L 4.5638,7.4462 L 4.7439,7.4462 L 4.7439,5.9449 L 4.5638,5.9449 Z" stroke-width="1px" stroke="#7B7B7B" fill="#7B7B7B"/>
          <path clip-path="url(#clip-1600028624)" d="M 4.7439,5.9449 L 4.7439,7.4462 L 4.8040,7.4462 L 4.8040,5.9449 L 4.7439,5.9449 Z" stroke-width="1px" stroke="#7D7D7D" fill="#7D7D7D"/>
          <path clip-path="url(#clip-1600028624)" d="M 4.8040,5.9449 L 4.8040,7.4462 L 4.9241,7.4462 L 4.9241,5.9449 L 4.8040,5.9449 Z" stroke-width="1px" stroke="#7F7F7F" fill="#7F7F7F"/>
          <path clip-path="url(#clip-1600028624)" d="M 4.9241,5.9449 L 4.9241,7.4462 L 5.1042,7.4462 L 5.1042,5.9449 L 4.9241,5.9449 Z" stroke-width="1px" stroke="#818181" fill="#818181"/>
          <path clip-path="url(#clip-1600028624)" d="M 5.1042,5.9449 L 5.1042,7.4462 L 5.2243,7.4462 L 5.2243,5.9449 L 5.1042,5.9449 Z" stroke-width="1px" stroke="#838383" fill="#838383"/>
          <path clip-path="url(#clip-1600028624)" d="M 5.2243,5.9449 L 5.2243,7.4462 L 5.3444,7.4462 L 5.3444,5.9449 L 5.2243,5.9449 Z" stroke-width="1px" stroke="#858585" fill="#858585"/>
          <path clip-path="url(#clip-1600028624)" d="M 5.3444,5.9449 L 5.3444,7.4462 L 5.4645,7.4462 L 5.4645,5.9449 L 5.3444,5.9449 Z" stroke-width="1px" stroke="#878787" fill="#878787"/>
          <path clip-path="url(#clip-1600028624)" d="M 5.4645,5.9449 L 5.4645,7.4462 L 5.6447,7.4462 L 5.6447,5.9449 L 5.4645,5.9449 Z" stroke-width="1px" stroke="#898989" fill="#898989"/>
          <path clip-path="url(#clip-1600028624)" d="M 5.6447,5.9449 L 5.6447,7.4462 L 5.7648,7.4462 L 5.7648,5.9449 L 5.6447,5.9449 Z" stroke-width="1px" stroke="#8B8B8B" fill="#8B8B8B"/>
          <path clip-path="url(#clip-1600028624)" d="M 5.7648,5.9449 L 5.7648,7.4462 L 5.9449,7.4462 L 5.9449,5.9449 L 5.7648,5.9449 Z" stroke-width="1px" stroke="#8D8D8D" fill="#8D8D8D"/>
          <path clip-path="url(#clip-1600028624)" d="M 5.9449,5.9449 L 5.9449,7.4462 L 6.1251,7.4462 L 6.1251,5.9449 L 5.9449,5.9449 Z" stroke-width="1px" stroke="#8F8F8F" fill="#8F8F8F"/>
          <path clip-path="url(#clip-1600028624)" d="M 6.1251,5.9449 L 6.1251,7.4462 L 6.2452,7.4462 L 6.2452,5.9449 L 6.1251,5.9449 Z" stroke-width="1px" stroke="#919191" fill="#919191"/>
          <path clip-path="url(#clip-1600028624)" d="M 6.2452,5.9449 L 6.2452,7.4462 L 6.4253,7.4462 L 6.4253,5.9449 L 6.2452,5.9449 Z" stroke-width="1px" stroke="#939393" fill="#939393"/>
          <path clip-path="url(#clip-1600028624)" d="M 6.4253,5.9449 L 6.4253,7.4462 L 6.6655,7.4462 L 6.6655,5.9449 L 6.4253,5.9449 Z" stroke-width="1px" stroke="#959595" fill="#959595"/>
          <path clip-path="url(#clip-1600028624)" d="M 6.6655,5.9449 L 6.6655,7.4462 L 6.9057,7.4462 L 6.9057,5.9449 L 6.6655,5.9449 Z" stroke-width="1px" stroke="#979797" fill="#979797"/>
          <path clip-path="url(#clip-1600028624)" d="M 6.9057,5.9449 L 6.9057,7.4462 L 7.1459,7.4462 L 7.1459,5.9449 L 6.9057,5.9449 Z" stroke-width="1px" stroke="#999999" fill="#999999"/>
          <path clip-path="url(#clip-1600028624)" d="M 7.1459,5.9449 L 7.1459,7.4462 L 7.3861,7.4462 L 7.3861,5.9449 L 7.1459,5.9449 Z" stroke-width="1px" stroke="#9B9B9B" fill="#9B9B9B"/>
          <path clip-path="url(#clip-1600028624)" d="M 7.3861,5.9449 L 7.3861,7.4462 L 7.6864,7.4462 L 7.6864,5.9449 L 7.3861,5.9449 Z" stroke-width="1px" stroke="#9D9D9D" fill="#9D9D9D"/>
          <path clip-path="url(#clip-1600028624)" d="M 7.6864,5.9449 L 7.6864,7.4462 L 8.1067,7.4462 L 8.1067,5.9449 L 7.6864,5.9449 Z" stroke-width="1px" stroke="#9F9F9F" fill="#9F9F9F"/>
          <path clip-path="url(#clip-1600028624)" d="M 8.1067,5.9449 L 8.1067,7.4462 L 8.5871,7.4462 L 8.5871,5.9449 L 8.1067,5.9449 Z" stroke-width="1px" stroke="#A1A1A1" fill="#A1A1A1"/>
          <path clip-path="url(#clip-1600028624)" d="M 8.5871,5.9449 L 8.5871,7.4462 L 9.2477,7.4462 L 9.2477,5.9449 L 8.5871,5.9449 Z" stroke-width="1px" stroke="#A3A3A3" fill="#A3A3A3"/>
          <path clip-path="url(#clip-1600028624)" d="M 9.2477,5.9449 L 9.2477,7.4462 L 9.6680,7.4462 L 9.6680,5.9449 L 9.2477,5.9449 Z" stroke-width="1px" stroke="#A5A5A5" fill="#A5A5A5"/>
        </g>
        <g transform="matrix(0.0625 0.0000 0.0000 0.0625 0.0000 0.0000)">
          <path d="M 153.2472,117.2173 L 110.2515,117.2173 C 73.0206,117.9979 36.0299,110.6118 1.9216,95.5993 L 153.2472,95.5993 " stroke="#000000" stroke-width="1.1409" stroke-linecap="round" stroke-linejoin="round" fill="none"/>
        </g>
        <g transform="matrix(1.0000 0.0000 0.0000 1.0000 0.0000 0.0000)">
          <path d="M 7.3861,7.3261 L 7.3861,7.7464 L 7.4462,7.7464 L 7.4462,7.3261 L 7.3861,7.3261 Z" stroke-width="1px" stroke="#010101" fill="#010101"/>
          <path d="M 7.4462,7.3261 L 7.4462,7.7464 L 7.5062,7.7464 L 7.5062,7.3261 L 7.4462,7.3261 Z" stroke-width="1px" stroke="#020202" fill="#020202"/>
          <path d="M 7.5062,7.3261 L 7.5062,7.7464 L 7.5663,7.7464 L 7.5663,7.3261 L 7.5062,7.3261 Z" stroke-width="1px" stroke="#050505" fill="#050505"/>
          <path d="M 7.5663,7.3261 L 7.5663,7.7464 L 7.6263,7.7464 L 7.6263,7.3261 L 7.5663,7.3261 Z" stroke-width="1px" stroke="#080808" fill="#080808"/>
          <path d="M 7.6263,7.3261 L 7.6263,7.7464 L 7.6864,7.7464 L 7.6864,7.3261 L 7.6263,7.3261 Z" stroke-width="1px" stroke="#0C0C0C" fill="#0C0C0C"/>
          <path d="M 7.6864,7.3261 L 7.6864,7.7464 L 7.7464,7.7464 L 7.7464,7.3261 L 7.6864,7.3261 Z" stroke-width="1px" stroke="#0F0F0F" fill="#0F0F0F"/>
          <path d="M 7.7464,7.3261 L 7.7464,7.7464 L 7.8065,7.7464 L 7.8065,7.3261 L 7.7464,7.3261 Z" stroke-width="1px" stroke="#121212" fill="#121212"/>
          <path d="M 7.8065,7.3261 L 7.8065,7.7464 L 7.8665,7.7464 L 7.8665,7.3261 L 7.8065,7.3261 Z" stroke-width="1px" stroke="#151515" fill="#151515"/>
          <path d="M 7.8665,7.3261 L 7.8665,7.7464 L 7.9266,7.7464 L 7.9266,7.3261 L 7.8665,7.3261 Z" stroke-width="1px" stroke="#191919" fill="#191919"/>
          <path d="M 7.9266,7.3261 L 7.9266,7.7464 L 7.9866,7.7464 L 7.9866,7.3261 L 7.9266,7.3261 Z" stroke-width="1px" stroke="#1C1C1C" fill="#1C1C1C"/>
          <path d="M 7.9866,7.3261 L 7.9866,7.7464 L 8.0467,7.7464 L 8.0467,7.3261 L 7.9866,7.3261 Z" stroke-width="1px" stroke="#1F1F1F" fill="#1F1F1F"/>
          <path d="M 8.0467,7.3261 L 8.0467,7.7464 L 8.1067,7.7464 L 8.1067,7.3261 L 8.0467,7.3261 Z" stroke-width="1px" stroke="#222222" fill="#222222"/>
          <path d="M 8.1067,7.3261 L 8.1067,7.7464 L 8.1668,7.7464 L 8.1668,7.3261 L 8.1067,7.3261 Z" stroke-width="1px" stroke="#252525" fill="#252525"/>
          <path d="M 8.1668,7.3261 L 8.1668,7.7464 L 8.2268,7.7464 L 8.2268,7.3261 L 8.1668,7.3261 Z" stroke-width="1px" stroke="#282828" fill="#282828"/>
          <path d="M 8.2268,7.3261 L 8.2268,7.7464 L 8.2869,7.7464 L 8.2869,7.3261 L 8.2268,7.3261 Z" stroke-width="1px" stroke="#2C2C2C" fill="#2C2C2C"/>
          <path d="M 8.2869,7.3261 L 8.2869,7.7464 L 8.3469,7.7464 L 8.3469,7.3261 L 8.2869,7.3261 Z" stroke-width="1px" stroke="#2F2F2F" fill="#2F2F2F"/>
          <path d="M 8.3469,7.3261 L 8.3469,7.7464 L 8.4070,7.7464 L 8.4070,7.3261 L 8.3469,7.3261 Z" stroke-width="1px" stroke="#323232" fill="#323232"/>
          <path d="M 8.4070,7.3261 L 8.4070,7.7464 L 8.4670,7.7464 L 8.4670,7.3261 L 8.4070,7.3261 Z" stroke-width="1px" stroke="#353535" fill="#353535"/>
          <path d="M 8.4670,7.3261 L 8.4670,7.7464 L 8.5271,7.7464 L 8.5271,7.3261 L 8.4670,7.3261 Z" stroke-width="1px" stroke="#393939" fill="#393939"/>
          <path d="M 8.5271,7.3261 L 8.5271,7.7464 L 8.5871,7.7464 L 8.5871,7.3261 L 8.5271,7.3261 Z" stroke-width="1px" stroke="#3C3C3C" fill="#3C3C3C"/>
          <path d="M 8.5871,7.3261 L 8.5871,7.7464 L 8.6472,7.7464 L 8.6472,7.3261 L 8.5871,7.3261 Z" stroke-width="1px" stroke="#3F3F3F" fill="#3F3F3F"/>
          <path d="M 8.6472,7.3261 L 8.6472,7.7464 L 8.7072,7.7464 L 8.7072,7.3261 L 8.6472,7.3261 Z" stroke-width="1px" stroke="#3C3C3C" fill="#3C3C3C"/>
          <path d="M 8.7072,7.3261 L 8.7072,7.7464 L 8.7673,7.7464 L 8.7673,7.3261 L 8.7072,7.3261 Z" stroke-width="1px" stroke="#383838" fill="#383838"/>
          <path d="M 8.7673,7.3261 L 8.7673,7.7464 L 8.8273,7.7464 L 8.8273,7.3261 L 8.7673,7.3261 Z" stroke-width="1px" stroke="#353535" fill="#353535"/>
          <path d="M 8.8273,7.3261 L 8.8273,7.7464 L 8.8874,7.7464 L 8.8874,7.3261 L 8.8273,7.3261 Z" stroke-width="1px" stroke="#323232" fill="#323232"/>
          <path d="M 8.8874,7.3261 L 8.8874,7.7464 L 8.9474,7.7464 L 8.9474,7.3261 L 8.8874,7.3261 Z" stroke-width="1px" stroke="#2F2F2F" fill="#2F2F2F"/>
          <path d="M 8.9474,7.3261 L 8.9474,7.7464 L 9.0075,7.7464 L 9.0075,7.3261 L 8.9474,7.3261 Z" stroke-width="1px" stroke="#2B2B2B" fill="#2B2B2B"/>
          <path d="M 9.0075,7.3261 L 9.0075,7.7464 L 9.0675,7.7464 L 9.0675,7.3261 L 9.0075,7.3261 Z" stroke-width="1px" stroke="#282828" fill="#282828"/>
          <path d="M 9.0675,7.3261 L 9.0675,7.7464 L 9.1276,7.7464 L 9.1276,7.3261 L 9.0675,7.3261 Z" stroke-width="1px" stroke="#252525" fill="#252525"/>
          <path d="M 9.1276,7.3261 L 9.1276,7.7464 L 9.1876,7.7464 L 9.1876,7.3261 L 9.1276,7.3261 Z" stroke-width="1px" stroke="#222222" fill="#222222"/>
          <path d="M 9.1876,7.3261 L 9.1876,7.7464 L 9.2477,7.7464 L 9.2477,7.3261 L 9.1876,7.3261 Z" stroke-width="1px" stroke="#1E1E1E" fill="#1E1E1E"/>
          <path d="M 9.2477,7.3261 L 9.2477,7.7464 L 9.3077,7.7464 L 9.3077,7.3261 L 9.2477,7.3261 Z" stroke-width="1px" stroke="#1B1B1B" fill="#1B1B1B"/>
          <path d="M 9.3077,7.3261 L 9.3077,7.7464 L 9.3678,7.7464 L 9.3678,7.3261 L 9.3077,7.3261 Z" stroke-width="1px" stroke="#181818" fill="#181818"/>
          <path d="M 9.3678,7.3261 L 9.3678,7.7464 L 9.4278,7.7464 L 9.4278,7.3261 L 9.3678,7.3261 Z" stroke-width="1px" stroke="#151515" fill="#151515"/>
          <path d="M 9.4278,7.3261 L 9.4278,7.7464 L 9.4879,7.7464 L 9.4879,7.3261 L 9.4278,7.3261 Z" stroke-width="1px" stroke="#111111" fill="#111111"/>
          <path d="M 9.4879,7.3261 L 9.4879,7.7464 L 9.5479,7.7464 L 9.5479,7.3261 L 9.4879,7.3261 Z" stroke-width="1px" stroke="#0E0E0E" fill="#0E0E0E"/>
          <path d="M 9.5479,7.3261 L 9.5479,7.7464 L 9.6080,7.7464 L 9.6080,7.3261 L 9.5479,7.3261 Z" stroke-width="1px" stroke="#0B0B0B" fill="#0B0B0B"/>
          <path d="M 9.6080,7.3261 L 9.6080,7.7464 L 9.6680,7.7464 L 9.6680,7.3261 L 9.6080,7.3261 Z" stroke-width="1px" stroke="#080808" fill="#080808"/>
          <path d="M 9.6680,7.3261 L 9.6680,7.7464 L 9.7281,7.7464 L 9.7281,7.3261 L 9.6680,7.3261 Z" stroke-width="1px" stroke="#040404" fill="#040404"/>
          <path d="M 9.7281,7.3261 L 9.7281,7.7464 L 9.7881,7.7464 L 9.7881,7.3261 L 9.7281,7.3261 Z" stroke-width="1px" stroke="#010101" fill="#010101"/>
        </g>
        <g transform="matrix(0.0625 0.0000 0.0000 0.0625 0.0000 0.0000)">
          <path d="M 119.0188,123.5225 L 156.8501,123.5225 L 156.8501,117.2173 L 119.0188,117.2173 L 119.0188,123.5225 Z" stroke="#000000" stroke-width="1.1409" stroke-linecap="round" stroke-linejoin="round" fill="none"/>
        </g>
        <g transform="matrix(1.0000 0.0000 0.0000 1.0000 0.0000 0.0000)">
</g>
      </g>
      <!--emf-blob end-->
    </g>
  </g>
</svg>
