<svg xmlns="http://www.w3.org/2000/svg" xmlns:xlink="http://www.w3.org/1999/xlink" version="1.1" width="7.2000000000" height="171.3600000000">
  <title><![CDATA[Cabinet of ATA Shelves]]></title>
  <g transform=" scale(1.000000) ">
    <path xmlns="http://www.w3.org/2000/svg" d="  M46.5166,2.4020 L-2.7000,2.4020 L-0.0591,-1.1992 L44.1158,-1.1992 L46.5166,2.4020 Z" style="fill-rule: evenodd; fill: #b3b3b3; "/>
    <path xmlns="http://www.w3.org/2000/svg" d="  M46.5166,2.4020 L-2.7000,2.4020 L-2.7000,173.8200 L46.5166,173.8200 L46.5166,2.4020 Z" style="fill-rule: evenodd; fill: #7f7f7f; "/>
    <g xmlns="http://www.w3.org/2000/svg" id="Layer1044">
      <path d="  M0.4211,18.3674 L43.6357,18.3674 L43.6357,6.6034 L0.4211,6.6034 L0.4211,18.3674 Z M0.4211,29.8913 L43.6357,29.8913 L43.6357,18.3674 L0.4211,18.3674 L0.4211,29.8913 Z M0.4211,41.4152 L43.6357,41.4152 L43.6357,29.8913 L0.4211,29.8913 L0.4211,41.4152 Z M0.4211,53.1792 L43.6357,53.1792 L43.6357,41.4152 L0.4211,41.4152 L0.4211,53.1792 Z M0.4211,64.7031 L43.6357,64.7031 L43.6357,53.1792 L0.4211,53.1792 L0.4211,64.7031 Z M0.4211,64.7031 L0.4211,76.4671 L43.6357,76.4671 L43.6357,64.7031 L0.4211,64.7031 Z M43.6357,99.6430 L43.6357,76.8190 L0.4211,76.8190 L0.4211,99.6430 L43.6357,99.6430 Z" style="stroke-width: 0.0240; stroke-linecap: round; stroke-linejoin: round; fill-rule: evenodd; fill: #000000; "/>
      <path d="  M0.4211,18.3674 L43.6357,18.3674 L43.6357,6.6034 L0.4211,6.6034 L0.4211,18.3674 Z M0.4211,29.8913 L43.6357,29.8913 L43.6357,18.3674 L0.4211,18.3674 L0.4211,29.8913 Z M0.4211,41.4152 L43.6357,41.4152 L43.6357,29.8913 L0.4211,29.8913 L0.4211,41.4152 Z M0.4211,53.1792 L43.6357,53.1792 L43.6357,41.4152 L0.4211,41.4152 L0.4211,53.1792 Z M0.4211,64.7031 L43.6357,64.7031 L43.6357,53.1792 L0.4211,53.1792 L0.4211,64.7031 Z M0.4211,64.7031 L0.4211,76.4671 L43.6357,76.4671 L43.6357,64.7031 L0.4211,64.7031 Z M43.6357,99.6430 L43.6357,76.8190 L0.4211,76.8190 L0.4211,99.6430 L43.6357,99.6430 Z" style="stroke-width: 0.0240; stroke: #ffffff; stroke-dasharray: none; stroke-linecap: round; stroke-linejoin: round; fill: none; "/>
    </g>
    <g xmlns="http://www.w3.org/2000/svg" id="Layer1045">
      <path d="  M0.4211,111.5189 L43.6357,111.5189 L43.6357,99.9950 L0.4211,99.9950 L0.4211,111.5189 Z M0.4211,111.5189 L0.4211,123.0428 L43.6357,123.0428 L43.6357,111.5189 L0.4211,111.5189 Z M0.4211,123.0428 L0.4211,134.8068 L43.6357,134.8068 L43.6357,123.0428 L0.4211,123.0428 Z M0.4211,134.8068 L0.4211,146.3307 L43.6357,146.3307 L43.6357,134.8068 L0.4211,134.8068 Z M0.4211,146.3307 L0.4211,158.0947 L43.6357,158.0947 L43.6357,146.3307 L0.4211,146.3307 Z M0.4211,158.0947 L0.4211,169.6186 L43.6357,169.6186 L43.6357,158.0947 L0.4211,158.0947 Z" style="stroke-width: 0.0240; stroke-linecap: round; stroke-linejoin: round; fill-rule: evenodd; fill: #000000; "/>
      <path d="  M0.4211,111.5189 L43.6357,111.5189 L43.6357,99.9950 L0.4211,99.9950 L0.4211,111.5189 Z M0.4211,111.5189 L0.4211,123.0428 L43.6357,123.0428 L43.6357,111.5189 L0.4211,111.5189 Z M0.4211,123.0428 L0.4211,134.8068 L43.6357,134.8068 L43.6357,123.0428 L0.4211,123.0428 Z M0.4211,134.8068 L0.4211,146.3307 L43.6357,146.3307 L43.6357,134.8068 L0.4211,134.8068 Z M0.4211,146.3307 L0.4211,158.0947 L43.6357,158.0947 L43.6357,146.3307 L0.4211,146.3307 Z M0.4211,158.0947 L0.4211,169.6186 L43.6357,169.6186 L43.6357,158.0947 L0.4211,158.0947 Z" style="stroke-width: 0.0240; stroke: #ffffff; stroke-dasharray: none; stroke-linecap: round; stroke-linejoin: round; fill: none; "/>
    </g>
    <path xmlns="http://www.w3.org/2000/svg" d="  M16.9867,19.8079 C16.9867,21.2484 16.9867,21.2484 16.9867,21.2484 C17.9470,22.6889 18.4271,23.4091 18.4271,25.8099 C18.4271,25.8099 18.4271,26.0500 18.4271,26.2901 C19.8676,26.2901 19.8676,26.2901 19.8676,26.2901 C19.8676,19.8079 19.8676,19.8079 19.8676,19.8079 C16.9867,19.8079 16.9867,19.8079 16.9867,19.8079 Z M20.8280,19.8079 C20.8280,21.2484 20.8280,21.2484 20.8280,21.2484 C21.5482,22.6889 22.0284,23.4091 22.0284,25.8099 C22.0284,25.8099 22.0284,26.0500 22.0284,26.2901 C23.4689,26.2901 23.4689,26.2901 23.4689,26.2901 C23.4689,19.8079 23.4689,19.8079 23.4689,19.8079 C20.8280,19.8079 20.8280,19.8079 20.8280,19.8079 Z M24.4292,19.8079 C24.4292,21.2484 24.4292,21.2484 24.4292,21.2484 C25.1494,22.6889 25.6296,23.4091 25.6296,25.8099 C25.6296,25.8099 25.6296,26.0500 25.6296,26.2901 C27.0701,26.2901 27.0701,26.2901 27.0701,26.2901 C27.0701,19.8079 27.0701,19.8079 27.0701,19.8079 C24.4292,19.8079 24.4292,19.8079 24.4292,19.8079 Z M28.0304,19.8079 C28.0304,21.2484 28.0304,21.2484 28.0304,21.2484 C28.7506,22.6889 29.4709,23.4091 29.4709,25.8099 C29.4709,25.8099 29.2308,26.0500 29.2308,26.2901 C30.6713,26.2901 30.6713,26.2901 30.6713,26.2901 C30.6713,19.8079 30.6713,19.8079 30.6713,19.8079 C28.0304,19.8079 28.0304,19.8079 28.0304,19.8079 Z M31.6316,19.8079 C31.6316,21.2484 31.6316,21.2484 31.6316,21.2484 C32.3519,22.6889 33.0721,23.4091 33.0721,25.8099 C33.0721,25.8099 33.0721,26.0500 33.0721,26.2901 C34.2725,26.2901 34.2725,26.2901 34.2725,26.2901 C34.2725,19.8079 34.2725,19.8079 34.2725,19.8079 C31.6316,19.8079 31.6316,19.8079 31.6316,19.8079 Z M35.2328,19.8079 C35.2328,21.2484 35.2328,21.2484 35.2328,21.2484 C36.1932,22.6889 36.6733,23.4091 36.6733,25.8099 C36.6733,25.8099 36.6733,26.0500 36.6733,26.2901 C37.8737,26.2901 37.8737,26.2901 37.8737,26.2901 C37.8737,19.8079 37.8737,19.8079 37.8737,19.8079 C35.2328,19.8079 35.2328,19.8079 35.2328,19.8079 Z M38.8340,19.8079 C38.8340,21.2484 38.8340,21.2484 38.8340,21.2484 C39.7944,22.6889 40.2745,23.4091 40.2745,25.8099 C40.2745,25.8099 40.2745,26.0500 40.2745,26.2901 C41.4749,26.2901 41.4749,26.2901 41.4749,26.2901 C41.4749,19.8079 41.4749,19.8079 41.4749,19.8079 C38.8340,19.8079 38.8340,19.8079 38.8340,19.8079 Z M2.5818,19.8079 C2.5818,21.2484 2.5818,21.2484 2.5818,21.2484 C3.3020,22.6889 3.7822,23.4091 3.7822,25.8099 C3.7822,25.8099 3.7822,26.0500 3.7822,26.2901 C5.2227,26.2901 5.2227,26.2901 5.2227,26.2901 C5.2227,19.8079 5.2227,19.8079 5.2227,19.8079 C2.5818,19.8079 2.5818,19.8079 2.5818,19.8079 Z M6.1830,19.8079 C6.1830,21.2484 6.1830,21.2484 6.1830,21.2484 C6.9032,22.6889 7.6235,23.4091 7.6235,25.8099 C7.6235,25.8099 7.3834,26.0500 7.3834,26.2901 C8.8239,26.2901 8.8239,26.2901 8.8239,26.2901 C8.8239,19.8079 8.8239,19.8079 8.8239,19.8079 C6.1830,19.8079 6.1830,19.8079 6.1830,19.8079 Z M9.7842,19.8079 C9.7842,21.2484 9.7842,21.2484 9.7842,21.2484 C10.5045,22.6889 11.2247,23.4091 11.2247,25.8099 C11.2247,25.8099 11.2247,26.0500 11.2247,26.2901 C12.4251,26.2901 12.4251,26.2901 12.4251,26.2901 C12.4251,19.8079 12.4251,19.8079 12.4251,19.8079 C9.7842,19.8079 9.7842,19.8079 9.7842,19.8079 Z M13.3854,19.8079 C13.3854,21.2484 13.3854,21.2484 13.3854,21.2484 C14.3458,22.6889 14.8259,23.4091 14.8259,25.8099 C14.8259,25.8099 14.8259,26.0500 14.8259,26.2901 C16.0263,26.2901 16.0263,26.2901 16.0263,26.2901 C16.0263,19.8079 16.0263,19.8079 16.0263,19.8079 C13.3854,19.8079 13.3854,19.8079 13.3854,19.8079 Z M16.9867,8.2840 C16.9867,9.7245 16.9867,9.7245 16.9867,9.7245 C17.9470,10.9249 18.4271,11.8852 18.4271,14.0460 C18.4271,14.2860 18.4271,14.5261 18.4271,14.5261 C19.8676,14.5261 19.8676,14.5261 19.8676,14.5261 C19.8676,8.2840 19.8676,8.2840 19.8676,8.2840 C16.9867,8.2840 16.9867,8.2840 16.9867,8.2840 Z M20.8280,8.2840 C20.8280,9.7245 20.8280,9.7245 20.8280,9.7245 C21.5482,10.9249 22.0284,11.8852 22.0284,14.0460 C22.0284,14.2860 22.0284,14.5261 22.0284,14.5261 C23.4689,14.5261 23.4689,14.5261 23.4689,14.5261 C23.4689,8.2840 23.4689,8.2840 23.4689,8.2840 C20.8280,8.2840 20.8280,8.2840 20.8280,8.2840 Z M24.4292,8.2840 C24.4292,9.7245 24.4292,9.7245 24.4292,9.7245 C25.1494,10.9249 25.6296,11.8852 25.6296,14.0460 C25.6296,14.2860 25.6296,14.5261 25.6296,14.5261 C27.0701,14.5261 27.0701,14.5261 27.0701,14.5261 C27.0701,8.2840 27.0701,8.2840 27.0701,8.2840 C24.4292,8.2840 24.4292,8.2840 24.4292,8.2840 Z M28.0304,8.2840 C28.0304,9.7245 28.0304,9.7245 28.0304,9.7245 C28.7506,10.9249 29.4709,11.8852 29.4709,14.0460 C29.4709,14.2860 29.2308,14.5261 29.2308,14.5261 C30.6713,14.5261 30.6713,14.5261 30.6713,14.5261 C30.6713,8.2840 30.6713,8.2840 30.6713,8.2840 C28.0304,8.2840 28.0304,8.2840 28.0304,8.2840 Z M31.6316,8.2840 C31.6316,9.7245 31.6316,9.7245 31.6316,9.7245 C32.3519,10.9249 33.0721,11.8852 33.0721,14.0460 C33.0721,14.2860 33.0721,14.5261 33.0721,14.5261 C34.2725,14.5261 34.2725,14.5261 34.2725,14.5261 C34.2725,8.2840 34.2725,8.2840 34.2725,8.2840 C31.6316,8.2840 31.6316,8.2840 31.6316,8.2840 Z M35.2328,8.2840 C35.2328,9.7245 35.2328,9.7245 35.2328,9.7245 C36.1932,10.9249 36.6733,11.8852 36.6733,14.0460 C36.6733,14.2860 36.6733,14.5261 36.6733,14.5261 C37.8737,14.5261 37.8737,14.5261 37.8737,14.5261 C37.8737,8.2840 37.8737,8.2840 37.8737,8.2840 C35.2328,8.2840 35.2328,8.2840 35.2328,8.2840 Z M38.8340,8.2840 C38.8340,9.7245 38.8340,9.7245 38.8340,9.7245 C39.7944,10.9249 40.2745,11.8852 40.2745,14.0460 C40.2745,14.2860 40.2745,14.5261 40.2745,14.5261 C41.4749,14.5261 41.4749,14.5261 41.4749,14.5261 C41.4749,8.2840 41.4749,8.2840 41.4749,8.2840 C38.8340,8.2840 38.8340,8.2840 38.8340,8.2840 Z M2.5818,8.2840 C2.5818,9.7245 2.5818,9.7245 2.5818,9.7245 C3.3020,10.9249 3.7822,11.8852 3.7822,14.0460 C3.7822,14.2860 3.7822,14.5261 3.7822,14.5261 C5.2227,14.5261 5.2227,14.5261 5.2227,14.5261 C5.2227,8.2840 5.2227,8.2840 5.2227,8.2840 C2.5818,8.2840 2.5818,8.2840 2.5818,8.2840 Z M6.1830,8.2840 C6.1830,9.7245 6.1830,9.7245 6.1830,9.7245 C6.9032,10.9249 7.6235,11.8852 7.6235,14.0460 C7.6235,14.2860 7.3834,14.5261 7.3834,14.5261 C8.8239,14.5261 8.8239,14.5261 8.8239,14.5261 C8.8239,8.2840 8.8239,8.2840 8.8239,8.2840 C6.1830,8.2840 6.1830,8.2840 6.1830,8.2840 Z M9.7842,8.2840 C9.7842,9.7245 9.7842,9.7245 9.7842,9.7245 C10.5045,10.9249 11.2247,11.8852 11.2247,14.0460 C11.2247,14.2860 11.2247,14.5261 11.2247,14.5261 C12.4251,14.5261 12.4251,14.5261 12.4251,14.5261 C12.4251,8.2840 12.4251,8.2840 12.4251,8.2840 C9.7842,8.2840 9.7842,8.2840 9.7842,8.2840 Z M13.3854,8.2840 C13.3854,9.7245 13.3854,9.7245 13.3854,9.7245 C14.3458,10.9249 14.8259,11.8852 14.8259,14.0460 C14.8259,14.2860 14.8259,14.5261 14.8259,14.5261 C16.0263,14.5261 16.0263,14.5261 16.0263,14.5261 C16.0263,8.2840 16.0263,8.2840 16.0263,8.2840 C13.3854,8.2840 13.3854,8.2840 13.3854,8.2840 Z M16.9867,54.8598 C16.9867,56.3002 16.9867,56.3002 16.9867,56.3002 C17.9470,57.5007 18.4271,58.2209 18.4271,60.6217 C18.4271,60.8618 18.4271,60.8618 18.4271,61.1019 C19.8676,61.1019 19.8676,61.1019 19.8676,61.1019 C19.8676,54.8598 19.8676,54.8598 19.8676,54.8598 C16.9867,54.8598 16.9867,54.8598 16.9867,54.8598 Z M20.8280,54.8598 C20.8280,56.3002 20.8280,56.3002 20.8280,56.3002 C21.5482,57.5007 22.0284,58.2209 22.0284,60.6217 C22.0284,60.8618 22.0284,60.8618 22.0284,61.1019 C23.4689,61.1019 23.4689,61.1019 23.4689,61.1019 C23.4689,54.8598 23.4689,54.8598 23.4689,54.8598 C20.8280,54.8598 20.8280,54.8598 20.8280,54.8598 Z M24.4292,54.8598 C24.4292,56.3002 24.4292,56.3002 24.4292,56.3002 C25.1494,57.5007 25.6296,58.2209 25.6296,60.6217 C25.6296,60.8618 25.6296,60.8618 25.6296,61.1019 C27.0701,61.1019 27.0701,61.1019 27.0701,61.1019 C27.0701,54.8598 27.0701,54.8598 27.0701,54.8598 C24.4292,54.8598 24.4292,54.8598 24.4292,54.8598 Z M28.0304,54.8598 C28.0304,56.3002 28.0304,56.3002 28.0304,56.3002 C28.7506,57.5007 29.4709,58.2209 29.4709,60.6217 C29.4709,60.8618 29.2308,60.8618 29.2308,61.1019 C30.6713,61.1019 30.6713,61.1019 30.6713,61.1019 C30.6713,54.8598 30.6713,54.8598 30.6713,54.8598 C28.0304,54.8598 28.0304,54.8598 28.0304,54.8598 Z M31.6316,54.8598 C31.6316,56.3002 31.6316,56.3002 31.6316,56.3002 C32.3519,57.5007 33.0721,58.2209 33.0721,60.6217 C33.0721,60.8618 33.0721,60.8618 33.0721,61.1019 C34.2725,61.1019 34.2725,61.1019 34.2725,61.1019 C34.2725,54.8598 34.2725,54.8598 34.2725,54.8598 C31.6316,54.8598 31.6316,54.8598 31.6316,54.8598 Z M35.2328,54.8598 C35.2328,56.3002 35.2328,56.3002 35.2328,56.3002 C36.1932,57.5007 36.6733,58.2209 36.6733,60.6217 C36.6733,60.8618 36.6733,60.8618 36.6733,61.1019 C37.8737,61.1019 37.8737,61.1019 37.8737,61.1019 C37.8737,54.8598 37.8737,54.8598 37.8737,54.8598 C35.2328,54.8598 35.2328,54.8598 35.2328,54.8598 Z M38.8340,54.8598 C38.8340,56.3002 38.8340,56.3002 38.8340,56.3002 C39.7944,57.5007 40.2745,58.2209 40.2745,60.6217 C40.2745,60.8618 40.2745,60.8618 40.2745,61.1019 C41.4749,61.1019 41.4749,61.1019 41.4749,61.1019 C41.4749,54.8598 41.4749,54.8598 41.4749,54.8598 C38.8340,54.8598 38.8340,54.8598 38.8340,54.8598 Z M2.5818,54.8598 C2.5818,56.3002 2.5818,56.3002 2.5818,56.3002 C3.3020,57.5007 3.7822,58.2209 3.7822,60.6217 C3.7822,60.8618 3.7822,60.8618 3.7822,61.1019 C5.2227,61.1019 5.2227,61.1019 5.2227,61.1019 C5.2227,54.8598 5.2227,54.8598 5.2227,54.8598 C2.5818,54.8598 2.5818,54.8598 2.5818,54.8598 Z M6.1830,54.8598 C6.1830,56.3002 6.1830,56.3002 6.1830,56.3002 C6.9032,57.5007 7.6235,58.2209 7.6235,60.6217 C7.6235,60.8618 7.3834,60.8618 7.3834,61.1019 C8.8239,61.1019 8.8239,61.1019 8.8239,61.1019 C8.8239,54.8598 8.8239,54.8598 8.8239,54.8598 C6.1830,54.8598 6.1830,54.8598 6.1830,54.8598 Z M9.7842,54.8598 C9.7842,56.3002 9.7842,56.3002 9.7842,56.3002 C10.5045,57.5007 11.2247,58.2209 11.2247,60.6217 C11.2247,60.8618 11.2247,60.8618 11.2247,61.1019 C12.4251,61.1019 12.4251,61.1019 12.4251,61.1019 C12.4251,54.8598 12.4251,54.8598 12.4251,54.8598 C9.7842,54.8598 9.7842,54.8598 9.7842,54.8598 Z M13.3854,54.8598 C13.3854,56.3002 13.3854,56.3002 13.3854,56.3002 C14.3458,57.5007 14.8259,58.2209 14.8259,60.6217 C14.8259,60.8618 14.8259,60.8618 14.8259,61.1019 C16.0263,61.1019 16.0263,61.1019 16.0263,61.1019 C16.0263,54.8598 16.0263,54.8598 16.0263,54.8598 C13.3854,54.8598 13.3854,54.8598 13.3854,54.8598 Z M35.2328,66.3837 C35.2328,67.8241 35.2328,67.8241 35.2328,67.8241 C36.1932,69.2646 36.6733,69.9849 36.6733,72.1456 C36.6733,72.3857 36.6733,72.6258 36.6733,72.8659 C37.8737,72.8659 37.8737,72.8659 37.8737,72.8659 C37.8737,66.3837 37.8737,66.3837 37.8737,66.3837 C35.2328,66.3837 35.2328,66.3837 35.2328,66.3837 Z M38.8340,66.3837 C38.8340,67.8241 38.8340,67.8241 38.8340,67.8241 C39.7944,69.2646 40.2745,69.9849 40.2745,72.1456 C40.2745,72.3857 40.2745,72.6258 40.2745,72.8659 C41.4749,72.8659 41.4749,72.8659 41.4749,72.8659 C41.4749,66.3837 41.4749,66.3837 41.4749,66.3837 C38.8340,66.3837 38.8340,66.3837 38.8340,66.3837 Z M28.0304,66.3837 C28.0304,67.8241 28.0304,67.8241 28.0304,67.8241 C28.7506,69.2646 29.4709,69.9849 29.4709,72.1456 C29.4709,72.3857 29.2308,72.6258 29.2308,72.8659 C30.6713,72.8659 30.6713,72.8659 30.6713,72.8659 C30.6713,66.3837 30.6713,66.3837 30.6713,66.3837 C28.0304,66.3837 28.0304,66.3837 28.0304,66.3837 Z M31.6316,66.3837 C31.6316,67.8241 31.6316,67.8241 31.6316,67.8241 C32.3519,69.2646 33.0721,69.9849 33.0721,72.1456 C33.0721,72.3857 33.0721,72.6258 33.0721,72.8659 C34.2725,72.8659 34.2725,72.8659 34.2725,72.8659 C34.2725,66.3837 34.2725,66.3837 34.2725,66.3837 C31.6316,66.3837 31.6316,66.3837 31.6316,66.3837 Z M24.4292,66.3837 C24.4292,67.8241 24.4292,67.8241 24.4292,67.8241 C25.1494,69.2646 25.6296,69.9849 25.6296,72.1456 C25.6296,72.3857 25.6296,72.6258 25.6296,72.8659 C27.0701,72.8659 27.0701,72.8659 27.0701,72.8659 C27.0701,66.3837 27.0701,66.3837 27.0701,66.3837 C24.4292,66.3837 24.4292,66.3837 24.4292,66.3837 Z M16.9867,66.3837 C16.9867,67.8241 16.9867,67.8241 16.9867,67.8241 C17.9470,69.2646 18.4271,69.9849 18.4271,72.1456 C18.4271,72.3857 18.4271,72.6258 18.4271,72.8659 C19.8676,72.8659 19.8676,72.8659 19.8676,72.8659 C19.8676,66.3837 19.8676,66.3837 19.8676,66.3837 C16.9867,66.3837 16.9867,66.3837 16.9867,66.3837 Z M20.8280,66.3837 C20.8280,67.8241 20.8280,67.8241 20.8280,67.8241 C21.5482,69.2646 22.0284,69.9849 22.0284,72.1456 C22.0284,72.3857 22.0284,72.6258 22.0284,72.8659 C23.4689,72.8659 23.4689,72.8659 23.4689,72.8659 C23.4689,66.3837 23.4689,66.3837 23.4689,66.3837 C20.8280,66.3837 20.8280,66.3837 20.8280,66.3837 Z M9.7842,66.3837 C9.7842,67.8241 9.7842,67.8241 9.7842,67.8241 C10.5045,69.2646 11.2247,69.9849 11.2247,72.1456 C11.2247,72.3857 11.2247,72.6258 11.2247,72.8659 C12.4251,72.8659 12.4251,72.8659 12.4251,72.8659 C12.4251,66.3837 12.4251,66.3837 12.4251,66.3837 C9.7842,66.3837 9.7842,66.3837 9.7842,66.3837 Z M13.3854,66.3837 C13.3854,67.8241 13.3854,67.8241 13.3854,67.8241 C14.3458,69.2646 14.8259,69.9849 14.8259,72.1456 C14.8259,72.3857 14.8259,72.6258 14.8259,72.8659 C16.0263,72.8659 16.0263,72.8659 16.0263,72.8659 C16.0263,66.3837 16.0263,66.3837 16.0263,66.3837 C13.3854,66.3837 13.3854,66.3837 13.3854,66.3837 Z M6.1830,66.3837 C6.1830,67.8241 6.1830,67.8241 6.1830,67.8241 C6.9032,69.2646 7.6235,69.9849 7.6235,72.1456 C7.6235,72.3857 7.3834,72.6258 7.3834,72.8659 C8.8239,72.8659 8.8239,72.8659 8.8239,72.8659 C8.8239,66.3837 8.8239,66.3837 8.8239,66.3837 C6.1830,66.3837 6.1830,66.3837 6.1830,66.3837 Z M2.5818,66.3837 C2.5818,67.8241 2.5818,67.8241 2.5818,67.8241 C3.3020,69.2646 3.7822,69.9849 3.7822,72.1456 C3.7822,72.3857 3.7822,72.6258 3.7822,72.8659 C5.2227,72.8659 5.2227,72.8659 5.2227,72.8659 C5.2227,66.3837 5.2227,66.3837 5.2227,66.3837 C2.5818,66.3837 2.5818,66.3837 2.5818,66.3837 Z M16.9867,43.0958 C16.9867,44.5363 16.9867,44.5363 16.9867,44.5363 C17.9470,45.9768 18.4271,46.6970 18.4271,48.8577 C18.4271,49.0978 18.4271,49.3379 18.4271,49.5780 C19.8676,49.5780 19.8676,49.5780 19.8676,49.5780 C19.8676,43.0958 19.8676,43.0958 19.8676,43.0958 C16.9867,43.0958 16.9867,43.0958 16.9867,43.0958 Z M20.8280,43.0958 C20.8280,44.5363 20.8280,44.5363 20.8280,44.5363 C21.5482,45.9768 22.0284,46.6970 22.0284,48.8577 C22.0284,49.0978 22.0284,49.3379 22.0284,49.5780 C23.4689,49.5780 23.4689,49.5780 23.4689,49.5780 C23.4689,43.0958 23.4689,43.0958 23.4689,43.0958 C20.8280,43.0958 20.8280,43.0958 20.8280,43.0958 Z M24.4292,43.0958 C24.4292,44.5363 24.4292,44.5363 24.4292,44.5363 C25.1494,45.9768 25.6296,46.6970 25.6296,48.8577 C25.6296,49.0978 25.6296,49.3379 25.6296,49.5780 C27.0701,49.5780 27.0701,49.5780 27.0701,49.5780 C27.0701,43.0958 27.0701,43.0958 27.0701,43.0958 C24.4292,43.0958 24.4292,43.0958 24.4292,43.0958 Z M28.0304,43.0958 C28.0304,44.5363 28.0304,44.5363 28.0304,44.5363 C28.7506,45.9768 29.4709,46.6970 29.4709,48.8577 C29.4709,49.0978 29.2308,49.3379 29.2308,49.5780 C30.6713,49.5780 30.6713,49.5780 30.6713,49.5780 C30.6713,43.0958 30.6713,43.0958 30.6713,43.0958 C28.0304,43.0958 28.0304,43.0958 28.0304,43.0958 Z M31.6316,43.0958 C31.6316,44.5363 31.6316,44.5363 31.6316,44.5363 C32.3519,45.9768 33.0721,46.6970 33.0721,48.8577 C33.0721,49.0978 33.0721,49.3379 33.0721,49.5780 C34.2725,49.5780 34.2725,49.5780 34.2725,49.5780 C34.2725,43.0958 34.2725,43.0958 34.2725,43.0958 C31.6316,43.0958 31.6316,43.0958 31.6316,43.0958 Z M35.2328,43.0958 C35.2328,44.5363 35.2328,44.5363 35.2328,44.5363 C36.1932,45.9768 36.6733,46.6970 36.6733,48.8577 C36.6733,49.0978 36.6733,49.3379 36.6733,49.5780 C37.8737,49.5780 37.8737,49.5780 37.8737,49.5780 C37.8737,43.0958 37.8737,43.0958 37.8737,43.0958 C35.2328,43.0958 35.2328,43.0958 35.2328,43.0958 Z M38.8340,43.0958 C38.8340,44.5363 38.8340,44.5363 38.8340,44.5363 C39.7944,45.9768 40.2745,46.6970 40.2745,48.8577 C40.2745,49.0978 40.2745,49.3379 40.2745,49.5780 C41.4749,49.5780 41.4749,49.5780 41.4749,49.5780 C41.4749,43.0958 41.4749,43.0958 41.4749,43.0958 C38.8340,43.0958 38.8340,43.0958 38.8340,43.0958 Z M2.5818,43.0958 C2.5818,44.5363 2.5818,44.5363 2.5818,44.5363 C3.3020,45.9768 3.7822,46.6970 3.7822,48.8577 C3.7822,49.0978 3.7822,49.3379 3.7822,49.5780 C5.2227,49.5780 5.2227,49.5780 5.2227,49.5780 C5.2227,43.0958 5.2227,43.0958 5.2227,43.0958 C2.5818,43.0958 2.5818,43.0958 2.5818,43.0958 Z M6.1830,43.0958 C6.1830,44.5363 6.1830,44.5363 6.1830,44.5363 C6.9032,45.9768 7.6235,46.6970 7.6235,48.8577 C7.6235,49.0978 7.3834,49.3379 7.3834,49.5780 C8.8239,49.5780 8.8239,49.5780 8.8239,49.5780 C8.8239,43.0958 8.8239,43.0958 8.8239,43.0958 C6.1830,43.0958 6.1830,43.0958 6.1830,43.0958 Z M9.7842,43.0958 C9.7842,44.5363 9.7842,44.5363 9.7842,44.5363 C10.5045,45.9768 11.2247,46.6970 11.2247,48.8577 C11.2247,49.0978 11.2247,49.3379 11.2247,49.5780 C12.4251,49.5780 12.4251,49.5780 12.4251,49.5780 C12.4251,43.0958 12.4251,43.0958 12.4251,43.0958 C9.7842,43.0958 9.7842,43.0958 9.7842,43.0958 Z M13.3854,43.0958 C13.3854,44.5363 13.3854,44.5363 13.3854,44.5363 C14.3458,45.9768 14.8259,46.6970 14.8259,48.8577 C14.8259,49.0978 14.8259,49.3379 14.8259,49.5780 C16.0263,49.5780 16.0263,49.5780 16.0263,49.5780 C16.0263,43.0958 16.0263,43.0958 16.0263,43.0958 C13.3854,43.0958 13.3854,43.0958 13.3854,43.0958 Z M2.5818,31.5719 C2.5818,33.0124 2.5818,33.0124 2.5818,33.0124 C3.3020,34.2128 3.7822,34.9330 3.7822,37.3338 C3.7822,37.5739 3.7822,37.8140 3.7822,37.8140 C5.2227,37.8140 5.2227,37.8140 5.2227,37.8140 C5.2227,31.5719 5.2227,31.5719 5.2227,31.5719 C2.5818,31.5719 2.5818,31.5719 2.5818,31.5719 Z M6.1830,31.5719 C6.1830,33.0124 6.1830,33.0124 6.1830,33.0124 C6.9032,34.2128 7.6235,34.9330 7.6235,37.3338 C7.6235,37.5739 7.3834,37.8140 7.3834,37.8140 C8.8239,37.8140 8.8239,37.8140 8.8239,37.8140 C8.8239,31.5719 8.8239,31.5719 8.8239,31.5719 C6.1830,31.5719 6.1830,31.5719 6.1830,31.5719 Z M9.7842,31.5719 C9.7842,33.0124 9.7842,33.0124 9.7842,33.0124 C10.5045,34.2128 11.2247,34.9330 11.2247,37.3338 C11.2247,37.5739 11.2247,37.8140 11.2247,37.8140 C12.4251,37.8140 12.4251,37.8140 12.4251,37.8140 C12.4251,31.5719 12.4251,31.5719 12.4251,31.5719 C9.7842,31.5719 9.7842,31.5719 9.7842,31.5719 Z M13.3854,31.5719 C13.3854,33.0124 13.3854,33.0124 13.3854,33.0124 C14.3458,34.2128 14.8259,34.9330 14.8259,37.3338 C14.8259,37.5739 14.8259,37.8140 14.8259,37.8140 C16.0263,37.8140 16.0263,37.8140 16.0263,37.8140 C16.0263,31.5719 16.0263,31.5719 16.0263,31.5719 C13.3854,31.5719 13.3854,31.5719 13.3854,31.5719 Z M16.9867,31.5719 C16.9867,33.0124 16.9867,33.0124 16.9867,33.0124 C17.9470,34.2128 18.4271,34.9330 18.4271,37.3338 C18.4271,37.5739 18.4271,37.8140 18.4271,37.8140 C19.8676,37.8140 19.8676,37.8140 19.8676,37.8140 C19.8676,31.5719 19.8676,31.5719 19.8676,31.5719 C16.9867,31.5719 16.9867,31.5719 16.9867,31.5719 Z M20.8280,31.5719 C20.8280,33.0124 20.8280,33.0124 20.8280,33.0124 C21.5482,34.2128 22.0284,34.9330 22.0284,37.3338 C22.0284,37.5739 22.0284,37.8140 22.0284,37.8140 C23.4689,37.8140 23.4689,37.8140 23.4689,37.8140 C23.4689,31.5719 23.4689,31.5719 23.4689,31.5719 C20.8280,31.5719 20.8280,31.5719 20.8280,31.5719 Z M24.4292,31.5719 C24.4292,33.0124 24.4292,33.0124 24.4292,33.0124 C25.1494,34.2128 25.6296,34.9330 25.6296,37.3338 C25.6296,37.5739 25.6296,37.8140 25.6296,37.8140 C27.0701,37.8140 27.0701,37.8140 27.0701,37.8140 C27.0701,31.5719 27.0701,31.5719 27.0701,31.5719 C24.4292,31.5719 24.4292,31.5719 24.4292,31.5719 Z M28.0304,31.5719 C28.0304,33.0124 28.0304,33.0124 28.0304,33.0124 C28.7506,34.2128 29.4709,34.9330 29.4709,37.3338 C29.4709,37.5739 29.2308,37.8140 29.2308,37.8140 C30.6713,37.8140 30.6713,37.8140 30.6713,37.8140 C30.6713,31.5719 30.6713,31.5719 30.6713,31.5719 C28.0304,31.5719 28.0304,31.5719 28.0304,31.5719 Z M31.6316,31.5719 C31.6316,33.0124 31.6316,33.0124 31.6316,33.0124 C32.3519,34.2128 33.0721,34.9330 33.0721,37.3338 C33.0721,37.5739 33.0721,37.8140 33.0721,37.8140 C34.2725,37.8140 34.2725,37.8140 34.2725,37.8140 C34.2725,31.5719 34.2725,31.5719 34.2725,31.5719 C31.6316,31.5719 31.6316,31.5719 31.6316,31.5719 Z M35.2328,31.5719 C35.2328,33.0124 35.2328,33.0124 35.2328,33.0124 C36.1932,34.2128 36.6733,34.9330 36.6733,37.3338 C36.6733,37.5739 36.6733,37.8140 36.6733,37.8140 C37.8737,37.8140 37.8737,37.8140 37.8737,37.8140 C37.8737,31.5719 37.8737,31.5719 37.8737,31.5719 C35.2328,31.5719 35.2328,31.5719 35.2328,31.5719 Z M38.8340,31.5719 C38.8340,33.0124 38.8340,33.0124 38.8340,33.0124 C39.7944,34.2128 40.2745,34.9330 40.2745,37.3338 C40.2745,37.5739 40.2745,37.8140 40.2745,37.8140 C41.4749,37.8140 41.4749,37.8140 41.4749,37.8140 C41.4749,31.5719 41.4749,31.5719 41.4749,31.5719 C38.8340,31.5719 38.8340,31.5719 38.8340,31.5719 Z M16.9867,148.0113 C16.9867,149.4518 16.9867,149.4518 16.9867,149.4518 C17.9470,150.8922 18.4271,151.6125 18.4271,153.7732 C18.4271,154.0133 18.4271,154.2534 18.4271,154.4935 C19.8676,154.4935 19.8676,154.4935 19.8676,154.4935 C19.8676,148.0113 19.8676,148.0113 19.8676,148.0113 C16.9867,148.0113 16.9867,148.0113 16.9867,148.0113 Z M20.8280,148.0113 C20.8280,149.4518 20.8280,149.4518 20.8280,149.4518 C21.5482,150.8922 22.0284,151.6125 22.0284,153.7732 C22.0284,154.0133 22.0284,154.2534 22.0284,154.4935 C23.4689,154.4935 23.4689,154.4935 23.4689,154.4935 C23.4689,148.0113 23.4689,148.0113 23.4689,148.0113 C20.8280,148.0113 20.8280,148.0113 20.8280,148.0113 Z M24.4292,148.0113 C24.4292,149.4518 24.4292,149.4518 24.4292,149.4518 C25.1494,150.8922 25.6296,151.6125 25.6296,153.7732 C25.6296,154.0133 25.6296,154.2534 25.6296,154.4935 C27.0701,154.4935 27.0701,154.4935 27.0701,154.4935 C27.0701,148.0113 27.0701,148.0113 27.0701,148.0113 C24.4292,148.0113 24.4292,148.0113 24.4292,148.0113 Z M28.0304,148.0113 C28.0304,149.4518 28.0304,149.4518 28.0304,149.4518 C28.7506,150.8922 29.4709,151.6125 29.4709,153.7732 C29.4709,154.0133 29.2308,154.2534 29.2308,154.4935 C30.6713,154.4935 30.6713,154.4935 30.6713,154.4935 C30.6713,148.0113 30.6713,148.0113 30.6713,148.0113 C28.0304,148.0113 28.0304,148.0113 28.0304,148.0113 Z M31.6316,148.0113 C31.6316,149.4518 31.6316,149.4518 31.6316,149.4518 C32.3519,150.8922 33.0721,151.6125 33.0721,153.7732 C33.0721,154.0133 33.0721,154.2534 33.0721,154.4935 C34.2725,154.4935 34.2725,154.4935 34.2725,154.4935 C34.2725,148.0113 34.2725,148.0113 34.2725,148.0113 C31.6316,148.0113 31.6316,148.0113 31.6316,148.0113 Z M35.2328,148.0113 C35.2328,149.4518 35.2328,149.4518 35.2328,149.4518 C36.1932,150.8922 36.6733,151.6125 36.6733,153.7732 C36.6733,154.0133 36.6733,154.2534 36.6733,154.4935 C37.8737,154.4935 37.8737,154.4935 37.8737,154.4935 C37.8737,148.0113 37.8737,148.0113 37.8737,148.0113 C35.2328,148.0113 35.2328,148.0113 35.2328,148.0113 Z M38.8340,148.0113 C38.8340,149.4518 38.8340,149.4518 38.8340,149.4518 C39.7944,150.8922 40.2745,151.6125 40.2745,153.7732 C40.2745,154.0133 40.2745,154.2534 40.2745,154.4935 C41.4749,154.4935 41.4749,154.4935 41.4749,154.4935 C41.4749,148.0113 41.4749,148.0113 41.4749,148.0113 C38.8340,148.0113 38.8340,148.0113 38.8340,148.0113 Z M2.5818,148.0113 C2.5818,149.4518 2.5818,149.4518 2.5818,149.4518 C3.3020,150.8922 3.7822,151.6125 3.7822,153.7732 C3.7822,154.0133 3.7822,154.2534 3.7822,154.4935 C5.2227,154.4935 5.2227,154.4935 5.2227,154.4935 C5.2227,148.0113 5.2227,148.0113 5.2227,148.0113 C2.5818,148.0113 2.5818,148.0113 2.5818,148.0113 Z M6.1830,148.0113 C6.1830,149.4518 6.1830,149.4518 6.1830,149.4518 C6.9032,150.8922 7.6235,151.6125 7.6235,153.7732 C7.6235,154.0133 7.3834,154.2534 7.3834,154.4935 C8.8239,154.4935 8.8239,154.4935 8.8239,154.4935 C8.8239,148.0113 8.8239,148.0113 8.8239,148.0113 C6.1830,148.0113 6.1830,148.0113 6.1830,148.0113 Z M9.7842,148.0113 C9.7842,149.4518 9.7842,149.4518 9.7842,149.4518 C10.5045,150.8922 11.2247,151.6125 11.2247,153.7732 C11.2247,154.0133 11.2247,154.2534 11.2247,154.4935 C12.4251,154.4935 12.4251,154.4935 12.4251,154.4935 C12.4251,148.0113 12.4251,148.0113 12.4251,148.0113 C9.7842,148.0113 9.7842,148.0113 9.7842,148.0113 Z M13.3854,148.0113 C13.3854,149.4518 13.3854,149.4518 13.3854,149.4518 C14.3458,150.8922 14.8259,151.6125 14.8259,153.7732 C14.8259,154.0133 14.8259,154.2534 14.8259,154.4935 C16.0263,154.4935 16.0263,154.4935 16.0263,154.4935 C16.0263,148.0113 16.0263,148.0113 16.0263,148.0113 C13.3854,148.0113 13.3854,148.0113 13.3854,148.0113 Z M2.5818,159.7752 C2.5818,161.2157 2.5818,161.2157 2.5818,161.2157 C3.3020,162.4161 3.7822,163.1364 3.7822,165.5372 C3.7822,165.7773 3.7822,165.7773 3.7822,166.0174 C5.2227,166.0174 5.2227,166.0174 5.2227,166.0174 C5.2227,159.7752 5.2227,159.7752 5.2227,159.7752 C2.5818,159.7752 2.5818,159.7752 2.5818,159.7752 Z M6.1830,159.7752 C6.1830,161.2157 6.1830,161.2157 6.1830,161.2157 C6.9032,162.4161 7.6235,163.1364 7.6235,165.5372 C7.6235,165.7773 7.3834,165.7773 7.3834,166.0174 C8.8239,166.0174 8.8239,166.0174 8.8239,166.0174 C8.8239,159.7752 8.8239,159.7752 8.8239,159.7752 C6.1830,159.7752 6.1830,159.7752 6.1830,159.7752 Z M9.7842,159.7752 C9.7842,161.2157 9.7842,161.2157 9.7842,161.2157 C10.5045,162.4161 11.2247,163.1364 11.2247,165.5372 C11.2247,165.7773 11.2247,165.7773 11.2247,166.0174 C12.4251,166.0174 12.4251,166.0174 12.4251,166.0174 C12.4251,159.7752 12.4251,159.7752 12.4251,159.7752 C9.7842,159.7752 9.7842,159.7752 9.7842,159.7752 Z M13.3854,159.7752 C13.3854,161.2157 13.3854,161.2157 13.3854,161.2157 C14.3458,162.4161 14.8259,163.1364 14.8259,165.5372 C14.8259,165.7773 14.8259,165.7773 14.8259,166.0174 C16.0263,166.0174 16.0263,166.0174 16.0263,166.0174 C16.0263,159.7752 16.0263,159.7752 16.0263,159.7752 C13.3854,159.7752 13.3854,159.7752 13.3854,159.7752 Z M16.9867,159.7752 C16.9867,161.2157 16.9867,161.2157 16.9867,161.2157 C17.9470,162.4161 18.4271,163.1364 18.4271,165.5372 C18.4271,165.7773 18.4271,165.7773 18.4271,166.0174 C19.8676,166.0174 19.8676,166.0174 19.8676,166.0174 C19.8676,159.7752 19.8676,159.7752 19.8676,159.7752 C16.9867,159.7752 16.9867,159.7752 16.9867,159.7752 Z M20.8280,159.7752 C20.8280,161.2157 20.8280,161.2157 20.8280,161.2157 C21.5482,162.4161 22.0284,163.1364 22.0284,165.5372 C22.0284,165.7773 22.0284,165.7773 22.0284,166.0174 C23.4689,166.0174 23.4689,166.0174 23.4689,166.0174 C23.4689,159.7752 23.4689,159.7752 23.4689,159.7752 C20.8280,159.7752 20.8280,159.7752 20.8280,159.7752 Z M24.4292,159.7752 C24.4292,161.2157 24.4292,161.2157 24.4292,161.2157 C25.1494,162.4161 25.6296,163.1364 25.6296,165.5372 C25.6296,165.7773 25.6296,165.7773 25.6296,166.0174 C27.0701,166.0174 27.0701,166.0174 27.0701,166.0174 C27.0701,159.7752 27.0701,159.7752 27.0701,159.7752 C24.4292,159.7752 24.4292,159.7752 24.4292,159.7752 Z M28.0304,159.7752 C28.0304,161.2157 28.0304,161.2157 28.0304,161.2157 C28.7506,162.4161 29.4709,163.1364 29.4709,165.5372 C29.4709,165.7773 29.2308,165.7773 29.2308,166.0174 C30.6713,166.0174 30.6713,166.0174 30.6713,166.0174 C30.6713,159.7752 30.6713,159.7752 30.6713,159.7752 C28.0304,159.7752 28.0304,159.7752 28.0304,159.7752 Z M31.6316,159.7752 C31.6316,161.2157 31.6316,161.2157 31.6316,161.2157 C32.3519,162.4161 33.0721,163.1364 33.0721,165.5372 C33.0721,165.7773 33.0721,165.7773 33.0721,166.0174 C34.2725,166.0174 34.2725,166.0174 34.2725,166.0174 C34.2725,159.7752 34.2725,159.7752 34.2725,159.7752 C31.6316,159.7752 31.6316,159.7752 31.6316,159.7752 Z M35.2328,159.7752 C35.2328,161.2157 35.2328,161.2157 35.2328,161.2157 C36.1932,162.4161 36.6733,163.1364 36.6733,165.5372 C36.6733,165.7773 36.6733,165.7773 36.6733,166.0174 C37.8737,166.0174 37.8737,166.0174 37.8737,166.0174 C37.8737,159.7752 37.8737,159.7752 37.8737,159.7752 C35.2328,159.7752 35.2328,159.7752 35.2328,159.7752 Z M38.8340,159.7752 C38.8340,161.2157 38.8340,161.2157 38.8340,161.2157 C39.7944,162.4161 40.2745,163.1364 40.2745,165.5372 C40.2745,165.7773 40.2745,165.7773 40.2745,166.0174 C41.4749,166.0174 41.4749,166.0174 41.4749,166.0174 C41.4749,159.7752 41.4749,159.7752 41.4749,159.7752 C38.8340,159.7752 38.8340,159.7752 38.8340,159.7752 Z M2.5818,124.7234 C2.5818,126.1639 2.5818,126.1639 2.5818,126.1639 C3.3020,127.6044 3.7822,128.3246 3.7822,130.4853 C3.7822,130.7254 3.7822,130.9655 3.7822,131.2056 C5.2227,131.2056 5.2227,131.2056 5.2227,131.2056 C5.2227,124.7234 5.2227,124.7234 5.2227,124.7234 C2.5818,124.7234 2.5818,124.7234 2.5818,124.7234 Z M6.1830,124.7234 C6.1830,126.1639 6.1830,126.1639 6.1830,126.1639 C6.9032,127.6044 7.6235,128.3246 7.6235,130.4853 C7.6235,130.7254 7.3834,130.9655 7.3834,131.2056 C8.8239,131.2056 8.8239,131.2056 8.8239,131.2056 C8.8239,124.7234 8.8239,124.7234 8.8239,124.7234 C6.1830,124.7234 6.1830,124.7234 6.1830,124.7234 Z M9.7842,124.7234 C9.7842,126.1639 9.7842,126.1639 9.7842,126.1639 C10.5045,127.6044 11.2247,128.3246 11.2247,130.4853 C11.2247,130.7254 11.2247,130.9655 11.2247,131.2056 C12.4251,131.2056 12.4251,131.2056 12.4251,131.2056 C12.4251,124.7234 12.4251,124.7234 12.4251,124.7234 C9.7842,124.7234 9.7842,124.7234 9.7842,124.7234 Z M13.3854,124.7234 C13.3854,126.1639 13.3854,126.1639 13.3854,126.1639 C14.3458,127.6044 14.8259,128.3246 14.8259,130.4853 C14.8259,130.7254 14.8259,130.9655 14.8259,131.2056 C16.0263,131.2056 16.0263,131.2056 16.0263,131.2056 C16.0263,124.7234 16.0263,124.7234 16.0263,124.7234 C13.3854,124.7234 13.3854,124.7234 13.3854,124.7234 Z M16.9867,124.7234 C16.9867,126.1639 16.9867,126.1639 16.9867,126.1639 C17.9470,127.6044 18.4271,128.3246 18.4271,130.4853 C18.4271,130.7254 18.4271,130.9655 18.4271,131.2056 C19.8676,131.2056 19.8676,131.2056 19.8676,131.2056 C19.8676,124.7234 19.8676,124.7234 19.8676,124.7234 C16.9867,124.7234 16.9867,124.7234 16.9867,124.7234 Z M20.8280,124.7234 C20.8280,126.1639 20.8280,126.1639 20.8280,126.1639 C21.5482,127.6044 22.0284,128.3246 22.0284,130.4853 C22.0284,130.7254 22.0284,130.9655 22.0284,131.2056 C23.4689,131.2056 23.4689,131.2056 23.4689,131.2056 C23.4689,124.7234 23.4689,124.7234 23.4689,124.7234 C20.8280,124.7234 20.8280,124.7234 20.8280,124.7234 Z M24.4292,124.7234 C24.4292,126.1639 24.4292,126.1639 24.4292,126.1639 C25.1494,127.6044 25.6296,128.3246 25.6296,130.4853 C25.6296,130.7254 25.6296,130.9655 25.6296,131.2056 C27.0701,131.2056 27.0701,131.2056 27.0701,131.2056 C27.0701,124.7234 27.0701,124.7234 27.0701,124.7234 C24.4292,124.7234 24.4292,124.7234 24.4292,124.7234 Z M28.0304,124.7234 C28.0304,126.1639 28.0304,126.1639 28.0304,126.1639 C28.7506,127.6044 29.4709,128.3246 29.4709,130.4853 C29.4709,130.7254 29.2308,130.9655 29.2308,131.2056 C30.6713,131.2056 30.6713,131.2056 30.6713,131.2056 C30.6713,124.7234 30.6713,124.7234 30.6713,124.7234 C28.0304,124.7234 28.0304,124.7234 28.0304,124.7234 Z M31.6316,124.7234 C31.6316,126.1639 31.6316,126.1639 31.6316,126.1639 C32.3519,127.6044 33.0721,128.3246 33.0721,130.4853 C33.0721,130.7254 33.0721,130.9655 33.0721,131.2056 C34.2725,131.2056 34.2725,131.2056 34.2725,131.2056 C34.2725,124.7234 34.2725,124.7234 34.2725,124.7234 C31.6316,124.7234 31.6316,124.7234 31.6316,124.7234 Z M35.2328,124.7234 C35.2328,126.1639 35.2328,126.1639 35.2328,126.1639 C36.1932,127.6044 36.6733,128.3246 36.6733,130.4853 C36.6733,130.7254 36.6733,130.9655 36.6733,131.2056 C37.8737,131.2056 37.8737,131.2056 37.8737,131.2056 C37.8737,124.7234 37.8737,124.7234 37.8737,124.7234 C35.2328,124.7234 35.2328,124.7234 35.2328,124.7234 Z M38.8340,124.7234 C38.8340,126.1639 38.8340,126.1639 38.8340,126.1639 C39.7944,127.6044 40.2745,128.3246 40.2745,130.4853 C40.2745,130.7254 40.2745,130.9655 40.2745,131.2056 C41.4749,131.2056 41.4749,131.2056 41.4749,131.2056 C41.4749,124.7234 41.4749,124.7234 41.4749,124.7234 C38.8340,124.7234 38.8340,124.7234 38.8340,124.7234 Z M2.5818,136.4874 C2.5818,137.9279 2.5818,137.9279 2.5818,137.9279 C3.3020,139.1283 3.7822,139.8485 3.7822,142.2493 C3.7822,142.4894 3.7822,142.4894 3.7822,142.7295 C5.2227,142.7295 5.2227,142.7295 5.2227,142.7295 C5.2227,136.4874 5.2227,136.4874 5.2227,136.4874 C2.5818,136.4874 2.5818,136.4874 2.5818,136.4874 Z M6.1830,136.4874 C6.1830,137.9279 6.1830,137.9279 6.1830,137.9279 C6.9032,139.1283 7.6235,139.8485 7.6235,142.2493 C7.6235,142.4894 7.3834,142.4894 7.3834,142.7295 C8.8239,142.7295 8.8239,142.7295 8.8239,142.7295 C8.8239,136.4874 8.8239,136.4874 8.8239,136.4874 C6.1830,136.4874 6.1830,136.4874 6.1830,136.4874 Z M9.7842,136.4874 C9.7842,137.9279 9.7842,137.9279 9.7842,137.9279 C10.5045,139.1283 11.2247,139.8485 11.2247,142.2493 C11.2247,142.4894 11.2247,142.4894 11.2247,142.7295 C12.4251,142.7295 12.4251,142.7295 12.4251,142.7295 C12.4251,136.4874 12.4251,136.4874 12.4251,136.4874 C9.7842,136.4874 9.7842,136.4874 9.7842,136.4874 Z M13.3854,136.4874 C13.3854,137.9279 13.3854,137.9279 13.3854,137.9279 C14.3458,139.1283 14.8259,139.8485 14.8259,142.2493 C14.8259,142.4894 14.8259,142.4894 14.8259,142.7295 C16.0263,142.7295 16.0263,142.7295 16.0263,142.7295 C16.0263,136.4874 16.0263,136.4874 16.0263,136.4874 C13.3854,136.4874 13.3854,136.4874 13.3854,136.4874 Z M16.9867,136.4874 C16.9867,137.9279 16.9867,137.9279 16.9867,137.9279 C17.9470,139.1283 18.4271,139.8485 18.4271,142.2493 C18.4271,142.4894 18.4271,142.4894 18.4271,142.7295 C19.8676,142.7295 19.8676,142.7295 19.8676,142.7295 C19.8676,136.4874 19.8676,136.4874 19.8676,136.4874 C16.9867,136.4874 16.9867,136.4874 16.9867,136.4874 Z M20.8280,136.4874 C20.8280,137.9279 20.8280,137.9279 20.8280,137.9279 C21.5482,139.1283 22.0284,139.8485 22.0284,142.2493 C22.0284,142.4894 22.0284,142.4894 22.0284,142.7295 C23.4689,142.7295 23.4689,142.7295 23.4689,142.7295 C23.4689,136.4874 23.4689,136.4874 23.4689,136.4874 C20.8280,136.4874 20.8280,136.4874 20.8280,136.4874 Z M24.4292,136.4874 C24.4292,137.9279 24.4292,137.9279 24.4292,137.9279 C25.1494,139.1283 25.6296,139.8485 25.6296,142.2493 C25.6296,142.4894 25.6296,142.4894 25.6296,142.7295 C27.0701,142.7295 27.0701,142.7295 27.0701,142.7295 C27.0701,136.4874 27.0701,136.4874 27.0701,136.4874 C24.4292,136.4874 24.4292,136.4874 24.4292,136.4874 Z M28.0304,136.4874 C28.0304,137.9279 28.0304,137.9279 28.0304,137.9279 C28.7506,139.1283 29.4709,139.8485 29.4709,142.2493 C29.4709,142.4894 29.2308,142.4894 29.2308,142.7295 C30.6713,142.7295 30.6713,142.7295 30.6713,142.7295 C30.6713,136.4874 30.6713,136.4874 30.6713,136.4874 C28.0304,136.4874 28.0304,136.4874 28.0304,136.4874 Z M31.6316,136.4874 C31.6316,137.9279 31.6316,137.9279 31.6316,137.9279 C32.3519,139.1283 33.0721,139.8485 33.0721,142.2493 C33.0721,142.4894 33.0721,142.4894 33.0721,142.7295 C34.2725,142.7295 34.2725,142.7295 34.2725,142.7295 C34.2725,136.4874 34.2725,136.4874 34.2725,136.4874 C31.6316,136.4874 31.6316,136.4874 31.6316,136.4874 Z M35.2328,136.4874 C35.2328,137.9279 35.2328,137.9279 35.2328,137.9279 C36.1932,139.1283 36.6733,139.8485 36.6733,142.2493 C36.6733,142.4894 36.6733,142.4894 36.6733,142.7295 C37.8737,142.7295 37.8737,142.7295 37.8737,142.7295 C37.8737,136.4874 37.8737,136.4874 37.8737,136.4874 C35.2328,136.4874 35.2328,136.4874 35.2328,136.4874 Z M38.8340,136.4874 C38.8340,137.9279 38.8340,137.9279 38.8340,137.9279 C39.7944,139.1283 40.2745,139.8485 40.2745,142.2493 C40.2745,142.4894 40.2745,142.4894 40.2745,142.7295 C41.4749,142.7295 41.4749,142.7295 41.4749,142.7295 C41.4749,136.4874 41.4749,136.4874 41.4749,136.4874 C38.8340,136.4874 38.8340,136.4874 38.8340,136.4874 Z M16.9867,113.1995 C16.9867,114.6400 16.9867,114.6400 16.9867,114.6400 C17.9470,115.8404 18.4271,116.5606 18.4271,118.9614 C18.4271,119.2015 18.4271,119.4416 18.4271,119.4416 C19.8676,119.4416 19.8676,119.4416 19.8676,119.4416 C19.8676,113.1995 19.8676,113.1995 19.8676,113.1995 C16.9867,113.1995 16.9867,113.1995 16.9867,113.1995 Z M20.8280,113.1995 C20.8280,114.6400 20.8280,114.6400 20.8280,114.6400 C21.5482,115.8404 22.0284,116.5606 22.0284,118.9614 C22.0284,119.2015 22.0284,119.4416 22.0284,119.4416 C23.4689,119.4416 23.4689,119.4416 23.4689,119.4416 C23.4689,113.1995 23.4689,113.1995 23.4689,113.1995 C20.8280,113.1995 20.8280,113.1995 20.8280,113.1995 Z M24.4292,113.1995 C24.4292,114.6400 24.4292,114.6400 24.4292,114.6400 C25.1494,115.8404 25.6296,116.5606 25.6296,118.9614 C25.6296,119.2015 25.6296,119.4416 25.6296,119.4416 C27.0701,119.4416 27.0701,119.4416 27.0701,119.4416 C27.0701,113.1995 27.0701,113.1995 27.0701,113.1995 C24.4292,113.1995 24.4292,113.1995 24.4292,113.1995 Z M28.0304,113.1995 C28.0304,114.6400 28.0304,114.6400 28.0304,114.6400 C28.7506,115.8404 29.4709,116.5606 29.4709,118.9614 C29.4709,119.2015 29.2308,119.4416 29.2308,119.4416 C30.6713,119.4416 30.6713,119.4416 30.6713,119.4416 C30.6713,113.1995 30.6713,113.1995 30.6713,113.1995 C28.0304,113.1995 28.0304,113.1995 28.0304,113.1995 Z M31.6316,113.1995 C31.6316,114.6400 31.6316,114.6400 31.6316,114.6400 C32.3519,115.8404 33.0721,116.5606 33.0721,118.9614 C33.0721,119.2015 33.0721,119.4416 33.0721,119.4416 C34.2725,119.4416 34.2725,119.4416 34.2725,119.4416 C34.2725,113.1995 34.2725,113.1995 34.2725,113.1995 C31.6316,113.1995 31.6316,113.1995 31.6316,113.1995 Z M2.5818,113.1995 C2.5818,114.6400 2.5818,114.6400 2.5818,114.6400 C3.3020,115.8404 3.7822,116.5606 3.7822,118.9614 C3.7822,119.2015 3.7822,119.4416 3.7822,119.4416 C5.2227,119.4416 5.2227,119.4416 5.2227,119.4416 C5.2227,113.1995 5.2227,113.1995 5.2227,113.1995 C2.5818,113.1995 2.5818,113.1995 2.5818,113.1995 Z M6.1830,113.1995 C6.1830,114.6400 6.1830,114.6400 6.1830,114.6400 C6.9032,115.8404 7.6235,116.5606 7.6235,118.9614 C7.6235,119.2015 7.3834,119.4416 7.3834,119.4416 C8.8239,119.4416 8.8239,119.4416 8.8239,119.4416 C8.8239,113.1995 8.8239,113.1995 8.8239,113.1995 C6.1830,113.1995 6.1830,113.1995 6.1830,113.1995 Z M9.7842,113.1995 C9.7842,114.6400 9.7842,114.6400 9.7842,114.6400 C10.5045,115.8404 11.2247,116.5606 11.2247,118.9614 C11.2247,119.2015 11.2247,119.4416 11.2247,119.4416 C12.4251,119.4416 12.4251,119.4416 12.4251,119.4416 C12.4251,113.1995 12.4251,113.1995 12.4251,113.1995 C9.7842,113.1995 9.7842,113.1995 9.7842,113.1995 Z M13.3854,113.1995 C13.3854,114.6400 13.3854,114.6400 13.3854,114.6400 C14.3458,115.8404 14.8259,116.5606 14.8259,118.9614 C14.8259,119.2015 14.8259,119.4416 14.8259,119.4416 C16.0263,119.4416 16.0263,119.4416 16.0263,119.4416 C16.0263,113.1995 16.0263,113.1995 16.0263,113.1995 C13.3854,113.1995 13.3854,113.1995 13.3854,113.1995 Z M35.2328,113.1995 C35.2328,114.6400 35.2328,114.6400 35.2328,114.6400 C36.1932,115.8404 36.6733,116.5606 36.6733,118.9614 C36.6733,119.2015 36.6733,119.4416 36.6733,119.4416 C37.8737,119.4416 37.8737,119.4416 37.8737,119.4416 C37.8737,113.1995 37.8737,113.1995 37.8737,113.1995 C35.2328,113.1995 35.2328,113.1995 35.2328,113.1995 Z M38.8340,113.1995 C38.8340,114.6400 38.8340,114.6400 38.8340,114.6400 C39.7944,115.8404 40.2745,116.5606 40.2745,118.9614 C40.2745,119.2015 40.2745,119.4416 40.2745,119.4416 C41.4749,119.4416 41.4749,119.4416 41.4749,119.4416 C41.4749,113.1995 41.4749,113.1995 41.4749,113.1995 C38.8340,113.1995 38.8340,113.1995 38.8340,113.1995 Z M9.7842,101.4355 C9.7842,102.8760 9.7842,102.8760 9.7842,102.8760 C10.5045,104.3165 11.2247,105.0367 11.2247,107.4375 C11.2247,107.4375 11.2247,107.6776 11.2247,107.9177 C12.4251,107.9177 12.4251,107.9177 12.4251,107.9177 C12.4251,101.4355 12.4251,101.4355 12.4251,101.4355 C9.7842,101.4355 9.7842,101.4355 9.7842,101.4355 Z M13.3854,101.4355 C13.3854,102.8760 13.3854,102.8760 13.3854,102.8760 C14.3458,104.3165 14.8259,105.0367 14.8259,107.4375 C14.8259,107.4375 14.8259,107.6776 14.8259,107.9177 C16.0263,107.9177 16.0263,107.9177 16.0263,107.9177 C16.0263,101.4355 16.0263,101.4355 16.0263,101.4355 C13.3854,101.4355 13.3854,101.4355 13.3854,101.4355 Z M16.9867,101.4355 C16.9867,102.8760 16.9867,102.8760 16.9867,102.8760 C17.9470,104.3165 18.4271,105.0367 18.4271,107.4375 C18.4271,107.4375 18.4271,107.6776 18.4271,107.9177 C19.8676,107.9177 19.8676,107.9177 19.8676,107.9177 C19.8676,101.4355 19.8676,101.4355 19.8676,101.4355 C16.9867,101.4355 16.9867,101.4355 16.9867,101.4355 Z M20.8280,101.4355 C20.8280,102.8760 20.8280,102.8760 20.8280,102.8760 C21.5482,104.3165 22.0284,105.0367 22.0284,107.4375 C22.0284,107.4375 22.0284,107.6776 22.0284,107.9177 C23.4689,107.9177 23.4689,107.9177 23.4689,107.9177 C23.4689,101.4355 23.4689,101.4355 23.4689,101.4355 C20.8280,101.4355 20.8280,101.4355 20.8280,101.4355 Z M24.4292,101.4355 C24.4292,102.8760 24.4292,102.8760 24.4292,102.8760 C25.1494,104.3165 25.6296,105.0367 25.6296,107.4375 C25.6296,107.4375 25.6296,107.6776 25.6296,107.9177 C27.0701,107.9177 27.0701,107.9177 27.0701,107.9177 C27.0701,101.4355 27.0701,101.4355 27.0701,101.4355 C24.4292,101.4355 24.4292,101.4355 24.4292,101.4355 Z M28.0304,101.4355 C28.0304,102.8760 28.0304,102.8760 28.0304,102.8760 C28.7506,104.3165 29.4709,105.0367 29.4709,107.4375 C29.4709,107.4375 29.2308,107.6776 29.2308,107.9177 C30.6713,107.9177 30.6713,107.9177 30.6713,107.9177 C30.6713,101.4355 30.6713,101.4355 30.6713,101.4355 C28.0304,101.4355 28.0304,101.4355 28.0304,101.4355 Z M31.6316,101.4355 C31.6316,102.8760 31.6316,102.8760 31.6316,102.8760 C32.3519,104.3165 33.0721,105.0367 33.0721,107.4375 C33.0721,107.4375 33.0721,107.6776 33.0721,107.9177 C34.2725,107.9177 34.2725,107.9177 34.2725,107.9177 C34.2725,101.4355 34.2725,101.4355 34.2725,101.4355 C31.6316,101.4355 31.6316,101.4355 31.6316,101.4355 Z M35.2328,101.4355 C35.2328,102.8760 35.2328,102.8760 35.2328,102.8760 C36.1932,104.3165 36.6733,105.0367 36.6733,107.4375 C36.6733,107.4375 36.6733,107.6776 36.6733,107.9177 C37.8737,107.9177 37.8737,107.9177 37.8737,107.9177 C37.8737,101.4355 37.8737,101.4355 37.8737,101.4355 C35.2328,101.4355 35.2328,101.4355 35.2328,101.4355 Z M38.8340,101.4355 C38.8340,102.8760 38.8340,102.8760 38.8340,102.8760 C39.7944,104.3165 40.2745,105.0367 40.2745,107.4375 C40.2745,107.4375 40.2745,107.6776 40.2745,107.9177 C41.4749,107.9177 41.4749,107.9177 41.4749,107.9177 C41.4749,101.4355 41.4749,101.4355 41.4749,101.4355 C38.8340,101.4355 38.8340,101.4355 38.8340,101.4355 Z M2.5818,101.4355 C2.5818,102.8760 2.5818,102.8760 2.5818,102.8760 C3.3020,104.3165 3.7822,105.0367 3.7822,107.4375 C3.7822,107.4375 3.7822,107.6776 3.7822,107.9177 C5.2227,107.9177 5.2227,107.9177 5.2227,107.9177 C5.2227,101.4355 5.2227,101.4355 5.2227,101.4355 C2.5818,101.4355 2.5818,101.4355 2.5818,101.4355 Z M6.1830,101.4355 C6.1830,102.8760 6.1830,102.8760 6.1830,102.8760 C6.9032,104.3165 7.6235,105.0367 7.6235,107.4375 C7.6235,107.4375 7.3834,107.6776 7.3834,107.9177 C8.8239,107.9177 8.8239,107.9177 8.8239,107.9177 C8.8239,101.4355 8.8239,101.4355 8.8239,101.4355 C6.1830,101.4355 6.1830,101.4355 6.1830,101.4355 Z" style="fill-rule: evenodd; fill: #7f7f7f; "/>
    <text xmlns="http://www.w3.org/2000/svg" x="-17.2400" y="180.6600">
      <tspan font-family="Arial" font-size="4.5000" fill="#000000" fill-opacity="1.0000" stroke-opacity="1.0000">
Cabinet of ATA Shelves</tspan>
    </text>
    <!--converted by libvisio2svg-->
  </g>
</svg>
