<svg xmlns="http://www.w3.org/2000/svg" xmlns:xlink="http://www.w3.org/1999/xlink" version="1.1" width="7.2000000000" height="171.3600000000">
  <title><![CDATA[Cabinet of FC Shelves]]></title>
  <g transform=" scale(1.000000) ">
    <path xmlns="http://www.w3.org/2000/svg" d="  M46.8166,2.1020 L-2.4000,2.1020 L0.2409,-1.4992 L44.4158,-1.4992 L46.8166,2.1020 Z" style="fill-rule: evenodd; fill: #b3b3b3; "/>
    <path xmlns="http://www.w3.org/2000/svg" d="  M46.8166,2.1020 L-2.4000,2.1020 L-2.4000,173.5200 L46.8166,173.5200 L46.8166,2.1020 Z" style="fill-rule: evenodd; fill: #7f7f7f; "/>
    <g xmlns="http://www.w3.org/2000/svg" id="Layer1046">
      <path d="  M0.7211,18.0674 L43.9357,18.0674 L43.9357,6.3034 L0.7211,6.3034 L0.7211,18.0674 Z M0.7211,29.5913 L43.9357,29.5913 L43.9357,18.0674 L0.7211,18.0674 L0.7211,29.5913 Z M0.7211,41.1152 L43.9357,41.1152 L43.9357,29.5913 L0.7211,29.5913 L0.7211,41.1152 Z M0.7211,52.8792 L43.9357,52.8792 L43.9357,41.1152 L0.7211,41.1152 L0.7211,52.8792 Z M0.7211,64.4031 L43.9357,64.4031 L43.9357,52.8792 L0.7211,52.8792 L0.7211,64.4031 Z M0.7211,64.4031 L0.7211,76.1671 L43.9357,76.1671 L43.9357,64.4031 L0.7211,64.4031 Z M43.9357,99.3430 L43.9357,76.5190 L0.7211,76.5190 L0.7211,99.3430 L43.9357,99.3430 Z" style="stroke-width: 0.0240; stroke-linecap: round; stroke-linejoin: round; fill-rule: evenodd; fill: #171868; "/>
      <path d="  M0.7211,18.0674 L43.9357,18.0674 L43.9357,6.3034 L0.7211,6.3034 L0.7211,18.0674 Z M0.7211,29.5913 L43.9357,29.5913 L43.9357,18.0674 L0.7211,18.0674 L0.7211,29.5913 Z M0.7211,41.1152 L43.9357,41.1152 L43.9357,29.5913 L0.7211,29.5913 L0.7211,41.1152 Z M0.7211,52.8792 L43.9357,52.8792 L43.9357,41.1152 L0.7211,41.1152 L0.7211,52.8792 Z M0.7211,64.4031 L43.9357,64.4031 L43.9357,52.8792 L0.7211,52.8792 L0.7211,64.4031 Z M0.7211,64.4031 L0.7211,76.1671 L43.9357,76.1671 L43.9357,64.4031 L0.7211,64.4031 Z M43.9357,99.3430 L43.9357,76.5190 L0.7211,76.5190 L0.7211,99.3430 L43.9357,99.3430 Z" style="stroke-width: 0.0240; stroke: #ffffff; stroke-dasharray: none; stroke-linecap: round; stroke-linejoin: round; fill: none; "/>
    </g>
    <g xmlns="http://www.w3.org/2000/svg" id="Layer1047">
      <path d="  M0.7211,111.2189 L43.9357,111.2189 L43.9357,99.6950 L0.7211,99.6950 L0.7211,111.2189 Z M0.7211,111.2189 L0.7211,122.7428 L43.9357,122.7428 L43.9357,111.2189 L0.7211,111.2189 Z M0.7211,122.7428 L0.7211,134.5068 L43.9357,134.5068 L43.9357,122.7428 L0.7211,122.7428 Z M0.7211,134.5068 L0.7211,146.0307 L43.9357,146.0307 L43.9357,134.5068 L0.7211,134.5068 Z M0.7211,146.0307 L0.7211,157.7947 L43.9357,157.7947 L43.9357,146.0307 L0.7211,146.0307 Z M0.7211,157.7947 L0.7211,169.3186 L43.9357,169.3186 L43.9357,157.7947 L0.7211,157.7947 Z" style="stroke-width: 0.0240; stroke-linecap: round; stroke-linejoin: round; fill-rule: evenodd; fill: #171868; "/>
      <path d="  M0.7211,111.2189 L43.9357,111.2189 L43.9357,99.6950 L0.7211,99.6950 L0.7211,111.2189 Z M0.7211,111.2189 L0.7211,122.7428 L43.9357,122.7428 L43.9357,111.2189 L0.7211,111.2189 Z M0.7211,122.7428 L0.7211,134.5068 L43.9357,134.5068 L43.9357,122.7428 L0.7211,122.7428 Z M0.7211,134.5068 L0.7211,146.0307 L43.9357,146.0307 L43.9357,134.5068 L0.7211,134.5068 Z M0.7211,146.0307 L0.7211,157.7947 L43.9357,157.7947 L43.9357,146.0307 L0.7211,146.0307 Z M0.7211,157.7947 L0.7211,169.3186 L43.9357,169.3186 L43.9357,157.7947 L0.7211,157.7947 Z" style="stroke-width: 0.0240; stroke: #ffffff; stroke-dasharray: none; stroke-linecap: round; stroke-linejoin: round; fill: none; "/>
    </g>
    <path xmlns="http://www.w3.org/2000/svg" d="  M17.2867,19.5079 C17.2867,20.9484 17.2867,20.9484 17.2867,20.9484 C18.2470,22.3889 18.7271,23.1091 18.7271,25.5099 C18.7271,25.5099 18.7271,25.7500 18.7271,25.9901 C20.1676,25.9901 20.1676,25.9901 20.1676,25.9901 C20.1676,19.5079 20.1676,19.5079 20.1676,19.5079 C17.2867,19.5079 17.2867,19.5079 17.2867,19.5079 Z M21.1280,19.5079 C21.1280,20.9484 21.1280,20.9484 21.1280,20.9484 C21.8482,22.3889 22.3284,23.1091 22.3284,25.5099 C22.3284,25.5099 22.3284,25.7500 22.3284,25.9901 C23.7689,25.9901 23.7689,25.9901 23.7689,25.9901 C23.7689,19.5079 23.7689,19.5079 23.7689,19.5079 C21.1280,19.5079 21.1280,19.5079 21.1280,19.5079 Z M24.7292,19.5079 C24.7292,20.9484 24.7292,20.9484 24.7292,20.9484 C25.4494,22.3889 25.9296,23.1091 25.9296,25.5099 C25.9296,25.5099 25.9296,25.7500 25.9296,25.9901 C27.3701,25.9901 27.3701,25.9901 27.3701,25.9901 C27.3701,19.5079 27.3701,19.5079 27.3701,19.5079 C24.7292,19.5079 24.7292,19.5079 24.7292,19.5079 Z M28.3304,19.5079 C28.3304,20.9484 28.3304,20.9484 28.3304,20.9484 C29.0506,22.3889 29.7709,23.1091 29.7709,25.5099 C29.7709,25.5099 29.5308,25.7500 29.5308,25.9901 C30.9713,25.9901 30.9713,25.9901 30.9713,25.9901 C30.9713,19.5079 30.9713,19.5079 30.9713,19.5079 C28.3304,19.5079 28.3304,19.5079 28.3304,19.5079 Z M31.9316,19.5079 C31.9316,20.9484 31.9316,20.9484 31.9316,20.9484 C32.6519,22.3889 33.3721,23.1091 33.3721,25.5099 C33.3721,25.5099 33.3721,25.7500 33.3721,25.9901 C34.5725,25.9901 34.5725,25.9901 34.5725,25.9901 C34.5725,19.5079 34.5725,19.5079 34.5725,19.5079 C31.9316,19.5079 31.9316,19.5079 31.9316,19.5079 Z M35.5328,19.5079 C35.5328,20.9484 35.5328,20.9484 35.5328,20.9484 C36.4932,22.3889 36.9733,23.1091 36.9733,25.5099 C36.9733,25.5099 36.9733,25.7500 36.9733,25.9901 C38.1737,25.9901 38.1737,25.9901 38.1737,25.9901 C38.1737,19.5079 38.1737,19.5079 38.1737,19.5079 C35.5328,19.5079 35.5328,19.5079 35.5328,19.5079 Z M39.1340,19.5079 C39.1340,20.9484 39.1340,20.9484 39.1340,20.9484 C40.0944,22.3889 40.5745,23.1091 40.5745,25.5099 C40.5745,25.5099 40.5745,25.7500 40.5745,25.9901 C41.7749,25.9901 41.7749,25.9901 41.7749,25.9901 C41.7749,19.5079 41.7749,19.5079 41.7749,19.5079 C39.1340,19.5079 39.1340,19.5079 39.1340,19.5079 Z M2.8818,19.5079 C2.8818,20.9484 2.8818,20.9484 2.8818,20.9484 C3.6020,22.3889 4.0822,23.1091 4.0822,25.5099 C4.0822,25.5099 4.0822,25.7500 4.0822,25.9901 C5.5227,25.9901 5.5227,25.9901 5.5227,25.9901 C5.5227,19.5079 5.5227,19.5079 5.5227,19.5079 C2.8818,19.5079 2.8818,19.5079 2.8818,19.5079 Z M6.4830,19.5079 C6.4830,20.9484 6.4830,20.9484 6.4830,20.9484 C7.2032,22.3889 7.9235,23.1091 7.9235,25.5099 C7.9235,25.5099 7.6834,25.7500 7.6834,25.9901 C9.1239,25.9901 9.1239,25.9901 9.1239,25.9901 C9.1239,19.5079 9.1239,19.5079 9.1239,19.5079 C6.4830,19.5079 6.4830,19.5079 6.4830,19.5079 Z M10.0842,19.5079 C10.0842,20.9484 10.0842,20.9484 10.0842,20.9484 C10.8045,22.3889 11.5247,23.1091 11.5247,25.5099 C11.5247,25.5099 11.5247,25.7500 11.5247,25.9901 C12.7251,25.9901 12.7251,25.9901 12.7251,25.9901 C12.7251,19.5079 12.7251,19.5079 12.7251,19.5079 C10.0842,19.5079 10.0842,19.5079 10.0842,19.5079 Z M13.6854,19.5079 C13.6854,20.9484 13.6854,20.9484 13.6854,20.9484 C14.6458,22.3889 15.1259,23.1091 15.1259,25.5099 C15.1259,25.5099 15.1259,25.7500 15.1259,25.9901 C16.3263,25.9901 16.3263,25.9901 16.3263,25.9901 C16.3263,19.5079 16.3263,19.5079 16.3263,19.5079 C13.6854,19.5079 13.6854,19.5079 13.6854,19.5079 Z M17.2867,7.9840 C17.2867,9.4245 17.2867,9.4245 17.2867,9.4245 C18.2470,10.6249 18.7271,11.5852 18.7271,13.7460 C18.7271,13.9860 18.7271,14.2261 18.7271,14.2261 C20.1676,14.2261 20.1676,14.2261 20.1676,14.2261 C20.1676,7.9840 20.1676,7.9840 20.1676,7.9840 C17.2867,7.9840 17.2867,7.9840 17.2867,7.9840 Z M21.1280,7.9840 C21.1280,9.4245 21.1280,9.4245 21.1280,9.4245 C21.8482,10.6249 22.3284,11.5852 22.3284,13.7460 C22.3284,13.9860 22.3284,14.2261 22.3284,14.2261 C23.7689,14.2261 23.7689,14.2261 23.7689,14.2261 C23.7689,7.9840 23.7689,7.9840 23.7689,7.9840 C21.1280,7.9840 21.1280,7.9840 21.1280,7.9840 Z M24.7292,7.9840 C24.7292,9.4245 24.7292,9.4245 24.7292,9.4245 C25.4494,10.6249 25.9296,11.5852 25.9296,13.7460 C25.9296,13.9860 25.9296,14.2261 25.9296,14.2261 C27.3701,14.2261 27.3701,14.2261 27.3701,14.2261 C27.3701,7.9840 27.3701,7.9840 27.3701,7.9840 C24.7292,7.9840 24.7292,7.9840 24.7292,7.9840 Z M28.3304,7.9840 C28.3304,9.4245 28.3304,9.4245 28.3304,9.4245 C29.0506,10.6249 29.7709,11.5852 29.7709,13.7460 C29.7709,13.9860 29.5308,14.2261 29.5308,14.2261 C30.9713,14.2261 30.9713,14.2261 30.9713,14.2261 C30.9713,7.9840 30.9713,7.9840 30.9713,7.9840 C28.3304,7.9840 28.3304,7.9840 28.3304,7.9840 Z M31.9316,7.9840 C31.9316,9.4245 31.9316,9.4245 31.9316,9.4245 C32.6519,10.6249 33.3721,11.5852 33.3721,13.7460 C33.3721,13.9860 33.3721,14.2261 33.3721,14.2261 C34.5725,14.2261 34.5725,14.2261 34.5725,14.2261 C34.5725,7.9840 34.5725,7.9840 34.5725,7.9840 C31.9316,7.9840 31.9316,7.9840 31.9316,7.9840 Z M35.5328,7.9840 C35.5328,9.4245 35.5328,9.4245 35.5328,9.4245 C36.4932,10.6249 36.9733,11.5852 36.9733,13.7460 C36.9733,13.9860 36.9733,14.2261 36.9733,14.2261 C38.1737,14.2261 38.1737,14.2261 38.1737,14.2261 C38.1737,7.9840 38.1737,7.9840 38.1737,7.9840 C35.5328,7.9840 35.5328,7.9840 35.5328,7.9840 Z M39.1340,7.9840 C39.1340,9.4245 39.1340,9.4245 39.1340,9.4245 C40.0944,10.6249 40.5745,11.5852 40.5745,13.7460 C40.5745,13.9860 40.5745,14.2261 40.5745,14.2261 C41.7749,14.2261 41.7749,14.2261 41.7749,14.2261 C41.7749,7.9840 41.7749,7.9840 41.7749,7.9840 C39.1340,7.9840 39.1340,7.9840 39.1340,7.9840 Z M2.8818,7.9840 C2.8818,9.4245 2.8818,9.4245 2.8818,9.4245 C3.6020,10.6249 4.0822,11.5852 4.0822,13.7460 C4.0822,13.9860 4.0822,14.2261 4.0822,14.2261 C5.5227,14.2261 5.5227,14.2261 5.5227,14.2261 C5.5227,7.9840 5.5227,7.9840 5.5227,7.9840 C2.8818,7.9840 2.8818,7.9840 2.8818,7.9840 Z M6.4830,7.9840 C6.4830,9.4245 6.4830,9.4245 6.4830,9.4245 C7.2032,10.6249 7.9235,11.5852 7.9235,13.7460 C7.9235,13.9860 7.6834,14.2261 7.6834,14.2261 C9.1239,14.2261 9.1239,14.2261 9.1239,14.2261 C9.1239,7.9840 9.1239,7.9840 9.1239,7.9840 C6.4830,7.9840 6.4830,7.9840 6.4830,7.9840 Z M10.0842,7.9840 C10.0842,9.4245 10.0842,9.4245 10.0842,9.4245 C10.8045,10.6249 11.5247,11.5852 11.5247,13.7460 C11.5247,13.9860 11.5247,14.2261 11.5247,14.2261 C12.7251,14.2261 12.7251,14.2261 12.7251,14.2261 C12.7251,7.9840 12.7251,7.9840 12.7251,7.9840 C10.0842,7.9840 10.0842,7.9840 10.0842,7.9840 Z M13.6854,7.9840 C13.6854,9.4245 13.6854,9.4245 13.6854,9.4245 C14.6458,10.6249 15.1259,11.5852 15.1259,13.7460 C15.1259,13.9860 15.1259,14.2261 15.1259,14.2261 C16.3263,14.2261 16.3263,14.2261 16.3263,14.2261 C16.3263,7.9840 16.3263,7.9840 16.3263,7.9840 C13.6854,7.9840 13.6854,7.9840 13.6854,7.9840 Z M17.2867,54.5598 C17.2867,56.0002 17.2867,56.0002 17.2867,56.0002 C18.2470,57.2007 18.7271,57.9209 18.7271,60.3217 C18.7271,60.5618 18.7271,60.5618 18.7271,60.8019 C20.1676,60.8019 20.1676,60.8019 20.1676,60.8019 C20.1676,54.5598 20.1676,54.5598 20.1676,54.5598 C17.2867,54.5598 17.2867,54.5598 17.2867,54.5598 Z M21.1280,54.5598 C21.1280,56.0002 21.1280,56.0002 21.1280,56.0002 C21.8482,57.2007 22.3284,57.9209 22.3284,60.3217 C22.3284,60.5618 22.3284,60.5618 22.3284,60.8019 C23.7689,60.8019 23.7689,60.8019 23.7689,60.8019 C23.7689,54.5598 23.7689,54.5598 23.7689,54.5598 C21.1280,54.5598 21.1280,54.5598 21.1280,54.5598 Z M24.7292,54.5598 C24.7292,56.0002 24.7292,56.0002 24.7292,56.0002 C25.4494,57.2007 25.9296,57.9209 25.9296,60.3217 C25.9296,60.5618 25.9296,60.5618 25.9296,60.8019 C27.3701,60.8019 27.3701,60.8019 27.3701,60.8019 C27.3701,54.5598 27.3701,54.5598 27.3701,54.5598 C24.7292,54.5598 24.7292,54.5598 24.7292,54.5598 Z M28.3304,54.5598 C28.3304,56.0002 28.3304,56.0002 28.3304,56.0002 C29.0506,57.2007 29.7709,57.9209 29.7709,60.3217 C29.7709,60.5618 29.5308,60.5618 29.5308,60.8019 C30.9713,60.8019 30.9713,60.8019 30.9713,60.8019 C30.9713,54.5598 30.9713,54.5598 30.9713,54.5598 C28.3304,54.5598 28.3304,54.5598 28.3304,54.5598 Z M31.9316,54.5598 C31.9316,56.0002 31.9316,56.0002 31.9316,56.0002 C32.6519,57.2007 33.3721,57.9209 33.3721,60.3217 C33.3721,60.5618 33.3721,60.5618 33.3721,60.8019 C34.5725,60.8019 34.5725,60.8019 34.5725,60.8019 C34.5725,54.5598 34.5725,54.5598 34.5725,54.5598 C31.9316,54.5598 31.9316,54.5598 31.9316,54.5598 Z M35.5328,54.5598 C35.5328,56.0002 35.5328,56.0002 35.5328,56.0002 C36.4932,57.2007 36.9733,57.9209 36.9733,60.3217 C36.9733,60.5618 36.9733,60.5618 36.9733,60.8019 C38.1737,60.8019 38.1737,60.8019 38.1737,60.8019 C38.1737,54.5598 38.1737,54.5598 38.1737,54.5598 C35.5328,54.5598 35.5328,54.5598 35.5328,54.5598 Z M39.1340,54.5598 C39.1340,56.0002 39.1340,56.0002 39.1340,56.0002 C40.0944,57.2007 40.5745,57.9209 40.5745,60.3217 C40.5745,60.5618 40.5745,60.5618 40.5745,60.8019 C41.7749,60.8019 41.7749,60.8019 41.7749,60.8019 C41.7749,54.5598 41.7749,54.5598 41.7749,54.5598 C39.1340,54.5598 39.1340,54.5598 39.1340,54.5598 Z M2.8818,54.5598 C2.8818,56.0002 2.8818,56.0002 2.8818,56.0002 C3.6020,57.2007 4.0822,57.9209 4.0822,60.3217 C4.0822,60.5618 4.0822,60.5618 4.0822,60.8019 C5.5227,60.8019 5.5227,60.8019 5.5227,60.8019 C5.5227,54.5598 5.5227,54.5598 5.5227,54.5598 C2.8818,54.5598 2.8818,54.5598 2.8818,54.5598 Z M6.4830,54.5598 C6.4830,56.0002 6.4830,56.0002 6.4830,56.0002 C7.2032,57.2007 7.9235,57.9209 7.9235,60.3217 C7.9235,60.5618 7.6834,60.5618 7.6834,60.8019 C9.1239,60.8019 9.1239,60.8019 9.1239,60.8019 C9.1239,54.5598 9.1239,54.5598 9.1239,54.5598 C6.4830,54.5598 6.4830,54.5598 6.4830,54.5598 Z M10.0842,54.5598 C10.0842,56.0002 10.0842,56.0002 10.0842,56.0002 C10.8045,57.2007 11.5247,57.9209 11.5247,60.3217 C11.5247,60.5618 11.5247,60.5618 11.5247,60.8019 C12.7251,60.8019 12.7251,60.8019 12.7251,60.8019 C12.7251,54.5598 12.7251,54.5598 12.7251,54.5598 C10.0842,54.5598 10.0842,54.5598 10.0842,54.5598 Z M13.6854,54.5598 C13.6854,56.0002 13.6854,56.0002 13.6854,56.0002 C14.6458,57.2007 15.1259,57.9209 15.1259,60.3217 C15.1259,60.5618 15.1259,60.5618 15.1259,60.8019 C16.3263,60.8019 16.3263,60.8019 16.3263,60.8019 C16.3263,54.5598 16.3263,54.5598 16.3263,54.5598 C13.6854,54.5598 13.6854,54.5598 13.6854,54.5598 Z M35.5328,66.0837 C35.5328,67.5241 35.5328,67.5241 35.5328,67.5241 C36.4932,68.9646 36.9733,69.6849 36.9733,71.8456 C36.9733,72.0857 36.9733,72.3258 36.9733,72.5659 C38.1737,72.5659 38.1737,72.5659 38.1737,72.5659 C38.1737,66.0837 38.1737,66.0837 38.1737,66.0837 C35.5328,66.0837 35.5328,66.0837 35.5328,66.0837 Z M39.1340,66.0837 C39.1340,67.5241 39.1340,67.5241 39.1340,67.5241 C40.0944,68.9646 40.5745,69.6849 40.5745,71.8456 C40.5745,72.0857 40.5745,72.3258 40.5745,72.5659 C41.7749,72.5659 41.7749,72.5659 41.7749,72.5659 C41.7749,66.0837 41.7749,66.0837 41.7749,66.0837 C39.1340,66.0837 39.1340,66.0837 39.1340,66.0837 Z M28.3304,66.0837 C28.3304,67.5241 28.3304,67.5241 28.3304,67.5241 C29.0506,68.9646 29.7709,69.6849 29.7709,71.8456 C29.7709,72.0857 29.5308,72.3258 29.5308,72.5659 C30.9713,72.5659 30.9713,72.5659 30.9713,72.5659 C30.9713,66.0837 30.9713,66.0837 30.9713,66.0837 C28.3304,66.0837 28.3304,66.0837 28.3304,66.0837 Z M31.9316,66.0837 C31.9316,67.5241 31.9316,67.5241 31.9316,67.5241 C32.6519,68.9646 33.3721,69.6849 33.3721,71.8456 C33.3721,72.0857 33.3721,72.3258 33.3721,72.5659 C34.5725,72.5659 34.5725,72.5659 34.5725,72.5659 C34.5725,66.0837 34.5725,66.0837 34.5725,66.0837 C31.9316,66.0837 31.9316,66.0837 31.9316,66.0837 Z M24.7292,66.0837 C24.7292,67.5241 24.7292,67.5241 24.7292,67.5241 C25.4494,68.9646 25.9296,69.6849 25.9296,71.8456 C25.9296,72.0857 25.9296,72.3258 25.9296,72.5659 C27.3701,72.5659 27.3701,72.5659 27.3701,72.5659 C27.3701,66.0837 27.3701,66.0837 27.3701,66.0837 C24.7292,66.0837 24.7292,66.0837 24.7292,66.0837 Z M17.2867,66.0837 C17.2867,67.5241 17.2867,67.5241 17.2867,67.5241 C18.2470,68.9646 18.7271,69.6849 18.7271,71.8456 C18.7271,72.0857 18.7271,72.3258 18.7271,72.5659 C20.1676,72.5659 20.1676,72.5659 20.1676,72.5659 C20.1676,66.0837 20.1676,66.0837 20.1676,66.0837 C17.2867,66.0837 17.2867,66.0837 17.2867,66.0837 Z M21.1280,66.0837 C21.1280,67.5241 21.1280,67.5241 21.1280,67.5241 C21.8482,68.9646 22.3284,69.6849 22.3284,71.8456 C22.3284,72.0857 22.3284,72.3258 22.3284,72.5659 C23.7689,72.5659 23.7689,72.5659 23.7689,72.5659 C23.7689,66.0837 23.7689,66.0837 23.7689,66.0837 C21.1280,66.0837 21.1280,66.0837 21.1280,66.0837 Z M10.0842,66.0837 C10.0842,67.5241 10.0842,67.5241 10.0842,67.5241 C10.8045,68.9646 11.5247,69.6849 11.5247,71.8456 C11.5247,72.0857 11.5247,72.3258 11.5247,72.5659 C12.7251,72.5659 12.7251,72.5659 12.7251,72.5659 C12.7251,66.0837 12.7251,66.0837 12.7251,66.0837 C10.0842,66.0837 10.0842,66.0837 10.0842,66.0837 Z M13.6854,66.0837 C13.6854,67.5241 13.6854,67.5241 13.6854,67.5241 C14.6458,68.9646 15.1259,69.6849 15.1259,71.8456 C15.1259,72.0857 15.1259,72.3258 15.1259,72.5659 C16.3263,72.5659 16.3263,72.5659 16.3263,72.5659 C16.3263,66.0837 16.3263,66.0837 16.3263,66.0837 C13.6854,66.0837 13.6854,66.0837 13.6854,66.0837 Z M6.4830,66.0837 C6.4830,67.5241 6.4830,67.5241 6.4830,67.5241 C7.2032,68.9646 7.9235,69.6849 7.9235,71.8456 C7.9235,72.0857 7.6834,72.3258 7.6834,72.5659 C9.1239,72.5659 9.1239,72.5659 9.1239,72.5659 C9.1239,66.0837 9.1239,66.0837 9.1239,66.0837 C6.4830,66.0837 6.4830,66.0837 6.4830,66.0837 Z M2.8818,66.0837 C2.8818,67.5241 2.8818,67.5241 2.8818,67.5241 C3.6020,68.9646 4.0822,69.6849 4.0822,71.8456 C4.0822,72.0857 4.0822,72.3258 4.0822,72.5659 C5.5227,72.5659 5.5227,72.5659 5.5227,72.5659 C5.5227,66.0837 5.5227,66.0837 5.5227,66.0837 C2.8818,66.0837 2.8818,66.0837 2.8818,66.0837 Z M17.2867,42.7958 C17.2867,44.2363 17.2867,44.2363 17.2867,44.2363 C18.2470,45.6768 18.7271,46.3970 18.7271,48.5577 C18.7271,48.7978 18.7271,49.0379 18.7271,49.2780 C20.1676,49.2780 20.1676,49.2780 20.1676,49.2780 C20.1676,42.7958 20.1676,42.7958 20.1676,42.7958 C17.2867,42.7958 17.2867,42.7958 17.2867,42.7958 Z M21.1280,42.7958 C21.1280,44.2363 21.1280,44.2363 21.1280,44.2363 C21.8482,45.6768 22.3284,46.3970 22.3284,48.5577 C22.3284,48.7978 22.3284,49.0379 22.3284,49.2780 C23.7689,49.2780 23.7689,49.2780 23.7689,49.2780 C23.7689,42.7958 23.7689,42.7958 23.7689,42.7958 C21.1280,42.7958 21.1280,42.7958 21.1280,42.7958 Z M24.7292,42.7958 C24.7292,44.2363 24.7292,44.2363 24.7292,44.2363 C25.4494,45.6768 25.9296,46.3970 25.9296,48.5577 C25.9296,48.7978 25.9296,49.0379 25.9296,49.2780 C27.3701,49.2780 27.3701,49.2780 27.3701,49.2780 C27.3701,42.7958 27.3701,42.7958 27.3701,42.7958 C24.7292,42.7958 24.7292,42.7958 24.7292,42.7958 Z M28.3304,42.7958 C28.3304,44.2363 28.3304,44.2363 28.3304,44.2363 C29.0506,45.6768 29.7709,46.3970 29.7709,48.5577 C29.7709,48.7978 29.5308,49.0379 29.5308,49.2780 C30.9713,49.2780 30.9713,49.2780 30.9713,49.2780 C30.9713,42.7958 30.9713,42.7958 30.9713,42.7958 C28.3304,42.7958 28.3304,42.7958 28.3304,42.7958 Z M31.9316,42.7958 C31.9316,44.2363 31.9316,44.2363 31.9316,44.2363 C32.6519,45.6768 33.3721,46.3970 33.3721,48.5577 C33.3721,48.7978 33.3721,49.0379 33.3721,49.2780 C34.5725,49.2780 34.5725,49.2780 34.5725,49.2780 C34.5725,42.7958 34.5725,42.7958 34.5725,42.7958 C31.9316,42.7958 31.9316,42.7958 31.9316,42.7958 Z M35.5328,42.7958 C35.5328,44.2363 35.5328,44.2363 35.5328,44.2363 C36.4932,45.6768 36.9733,46.3970 36.9733,48.5577 C36.9733,48.7978 36.9733,49.0379 36.9733,49.2780 C38.1737,49.2780 38.1737,49.2780 38.1737,49.2780 C38.1737,42.7958 38.1737,42.7958 38.1737,42.7958 C35.5328,42.7958 35.5328,42.7958 35.5328,42.7958 Z M39.1340,42.7958 C39.1340,44.2363 39.1340,44.2363 39.1340,44.2363 C40.0944,45.6768 40.5745,46.3970 40.5745,48.5577 C40.5745,48.7978 40.5745,49.0379 40.5745,49.2780 C41.7749,49.2780 41.7749,49.2780 41.7749,49.2780 C41.7749,42.7958 41.7749,42.7958 41.7749,42.7958 C39.1340,42.7958 39.1340,42.7958 39.1340,42.7958 Z M2.8818,42.7958 C2.8818,44.2363 2.8818,44.2363 2.8818,44.2363 C3.6020,45.6768 4.0822,46.3970 4.0822,48.5577 C4.0822,48.7978 4.0822,49.0379 4.0822,49.2780 C5.5227,49.2780 5.5227,49.2780 5.5227,49.2780 C5.5227,42.7958 5.5227,42.7958 5.5227,42.7958 C2.8818,42.7958 2.8818,42.7958 2.8818,42.7958 Z M6.4830,42.7958 C6.4830,44.2363 6.4830,44.2363 6.4830,44.2363 C7.2032,45.6768 7.9235,46.3970 7.9235,48.5577 C7.9235,48.7978 7.6834,49.0379 7.6834,49.2780 C9.1239,49.2780 9.1239,49.2780 9.1239,49.2780 C9.1239,42.7958 9.1239,42.7958 9.1239,42.7958 C6.4830,42.7958 6.4830,42.7958 6.4830,42.7958 Z M10.0842,42.7958 C10.0842,44.2363 10.0842,44.2363 10.0842,44.2363 C10.8045,45.6768 11.5247,46.3970 11.5247,48.5577 C11.5247,48.7978 11.5247,49.0379 11.5247,49.2780 C12.7251,49.2780 12.7251,49.2780 12.7251,49.2780 C12.7251,42.7958 12.7251,42.7958 12.7251,42.7958 C10.0842,42.7958 10.0842,42.7958 10.0842,42.7958 Z M13.6854,42.7958 C13.6854,44.2363 13.6854,44.2363 13.6854,44.2363 C14.6458,45.6768 15.1259,46.3970 15.1259,48.5577 C15.1259,48.7978 15.1259,49.0379 15.1259,49.2780 C16.3263,49.2780 16.3263,49.2780 16.3263,49.2780 C16.3263,42.7958 16.3263,42.7958 16.3263,42.7958 C13.6854,42.7958 13.6854,42.7958 13.6854,42.7958 Z M2.8818,31.2719 C2.8818,32.7124 2.8818,32.7124 2.8818,32.7124 C3.6020,33.9128 4.0822,34.6330 4.0822,37.0338 C4.0822,37.2739 4.0822,37.5140 4.0822,37.5140 C5.5227,37.5140 5.5227,37.5140 5.5227,37.5140 C5.5227,31.2719 5.5227,31.2719 5.5227,31.2719 C2.8818,31.2719 2.8818,31.2719 2.8818,31.2719 Z M6.4830,31.2719 C6.4830,32.7124 6.4830,32.7124 6.4830,32.7124 C7.2032,33.9128 7.9235,34.6330 7.9235,37.0338 C7.9235,37.2739 7.6834,37.5140 7.6834,37.5140 C9.1239,37.5140 9.1239,37.5140 9.1239,37.5140 C9.1239,31.2719 9.1239,31.2719 9.1239,31.2719 C6.4830,31.2719 6.4830,31.2719 6.4830,31.2719 Z M10.0842,31.2719 C10.0842,32.7124 10.0842,32.7124 10.0842,32.7124 C10.8045,33.9128 11.5247,34.6330 11.5247,37.0338 C11.5247,37.2739 11.5247,37.5140 11.5247,37.5140 C12.7251,37.5140 12.7251,37.5140 12.7251,37.5140 C12.7251,31.2719 12.7251,31.2719 12.7251,31.2719 C10.0842,31.2719 10.0842,31.2719 10.0842,31.2719 Z M13.6854,31.2719 C13.6854,32.7124 13.6854,32.7124 13.6854,32.7124 C14.6458,33.9128 15.1259,34.6330 15.1259,37.0338 C15.1259,37.2739 15.1259,37.5140 15.1259,37.5140 C16.3263,37.5140 16.3263,37.5140 16.3263,37.5140 C16.3263,31.2719 16.3263,31.2719 16.3263,31.2719 C13.6854,31.2719 13.6854,31.2719 13.6854,31.2719 Z M17.2867,31.2719 C17.2867,32.7124 17.2867,32.7124 17.2867,32.7124 C18.2470,33.9128 18.7271,34.6330 18.7271,37.0338 C18.7271,37.2739 18.7271,37.5140 18.7271,37.5140 C20.1676,37.5140 20.1676,37.5140 20.1676,37.5140 C20.1676,31.2719 20.1676,31.2719 20.1676,31.2719 C17.2867,31.2719 17.2867,31.2719 17.2867,31.2719 Z M21.1280,31.2719 C21.1280,32.7124 21.1280,32.7124 21.1280,32.7124 C21.8482,33.9128 22.3284,34.6330 22.3284,37.0338 C22.3284,37.2739 22.3284,37.5140 22.3284,37.5140 C23.7689,37.5140 23.7689,37.5140 23.7689,37.5140 C23.7689,31.2719 23.7689,31.2719 23.7689,31.2719 C21.1280,31.2719 21.1280,31.2719 21.1280,31.2719 Z M24.7292,31.2719 C24.7292,32.7124 24.7292,32.7124 24.7292,32.7124 C25.4494,33.9128 25.9296,34.6330 25.9296,37.0338 C25.9296,37.2739 25.9296,37.5140 25.9296,37.5140 C27.3701,37.5140 27.3701,37.5140 27.3701,37.5140 C27.3701,31.2719 27.3701,31.2719 27.3701,31.2719 C24.7292,31.2719 24.7292,31.2719 24.7292,31.2719 Z M28.3304,31.2719 C28.3304,32.7124 28.3304,32.7124 28.3304,32.7124 C29.0506,33.9128 29.7709,34.6330 29.7709,37.0338 C29.7709,37.2739 29.5308,37.5140 29.5308,37.5140 C30.9713,37.5140 30.9713,37.5140 30.9713,37.5140 C30.9713,31.2719 30.9713,31.2719 30.9713,31.2719 C28.3304,31.2719 28.3304,31.2719 28.3304,31.2719 Z M31.9316,31.2719 C31.9316,32.7124 31.9316,32.7124 31.9316,32.7124 C32.6519,33.9128 33.3721,34.6330 33.3721,37.0338 C33.3721,37.2739 33.3721,37.5140 33.3721,37.5140 C34.5725,37.5140 34.5725,37.5140 34.5725,37.5140 C34.5725,31.2719 34.5725,31.2719 34.5725,31.2719 C31.9316,31.2719 31.9316,31.2719 31.9316,31.2719 Z M35.5328,31.2719 C35.5328,32.7124 35.5328,32.7124 35.5328,32.7124 C36.4932,33.9128 36.9733,34.6330 36.9733,37.0338 C36.9733,37.2739 36.9733,37.5140 36.9733,37.5140 C38.1737,37.5140 38.1737,37.5140 38.1737,37.5140 C38.1737,31.2719 38.1737,31.2719 38.1737,31.2719 C35.5328,31.2719 35.5328,31.2719 35.5328,31.2719 Z M39.1340,31.2719 C39.1340,32.7124 39.1340,32.7124 39.1340,32.7124 C40.0944,33.9128 40.5745,34.6330 40.5745,37.0338 C40.5745,37.2739 40.5745,37.5140 40.5745,37.5140 C41.7749,37.5140 41.7749,37.5140 41.7749,37.5140 C41.7749,31.2719 41.7749,31.2719 41.7749,31.2719 C39.1340,31.2719 39.1340,31.2719 39.1340,31.2719 Z M17.2867,147.7113 C17.2867,149.1518 17.2867,149.1518 17.2867,149.1518 C18.2470,150.5922 18.7271,151.3125 18.7271,153.4732 C18.7271,153.7133 18.7271,153.9534 18.7271,154.1935 C20.1676,154.1935 20.1676,154.1935 20.1676,154.1935 C20.1676,147.7113 20.1676,147.7113 20.1676,147.7113 C17.2867,147.7113 17.2867,147.7113 17.2867,147.7113 Z M21.1280,147.7113 C21.1280,149.1518 21.1280,149.1518 21.1280,149.1518 C21.8482,150.5922 22.3284,151.3125 22.3284,153.4732 C22.3284,153.7133 22.3284,153.9534 22.3284,154.1935 C23.7689,154.1935 23.7689,154.1935 23.7689,154.1935 C23.7689,147.7113 23.7689,147.7113 23.7689,147.7113 C21.1280,147.7113 21.1280,147.7113 21.1280,147.7113 Z M24.7292,147.7113 C24.7292,149.1518 24.7292,149.1518 24.7292,149.1518 C25.4494,150.5922 25.9296,151.3125 25.9296,153.4732 C25.9296,153.7133 25.9296,153.9534 25.9296,154.1935 C27.3701,154.1935 27.3701,154.1935 27.3701,154.1935 C27.3701,147.7113 27.3701,147.7113 27.3701,147.7113 C24.7292,147.7113 24.7292,147.7113 24.7292,147.7113 Z M28.3304,147.7113 C28.3304,149.1518 28.3304,149.1518 28.3304,149.1518 C29.0506,150.5922 29.7709,151.3125 29.7709,153.4732 C29.7709,153.7133 29.5308,153.9534 29.5308,154.1935 C30.9713,154.1935 30.9713,154.1935 30.9713,154.1935 C30.9713,147.7113 30.9713,147.7113 30.9713,147.7113 C28.3304,147.7113 28.3304,147.7113 28.3304,147.7113 Z M31.9316,147.7113 C31.9316,149.1518 31.9316,149.1518 31.9316,149.1518 C32.6519,150.5922 33.3721,151.3125 33.3721,153.4732 C33.3721,153.7133 33.3721,153.9534 33.3721,154.1935 C34.5725,154.1935 34.5725,154.1935 34.5725,154.1935 C34.5725,147.7113 34.5725,147.7113 34.5725,147.7113 C31.9316,147.7113 31.9316,147.7113 31.9316,147.7113 Z M35.5328,147.7113 C35.5328,149.1518 35.5328,149.1518 35.5328,149.1518 C36.4932,150.5922 36.9733,151.3125 36.9733,153.4732 C36.9733,153.7133 36.9733,153.9534 36.9733,154.1935 C38.1737,154.1935 38.1737,154.1935 38.1737,154.1935 C38.1737,147.7113 38.1737,147.7113 38.1737,147.7113 C35.5328,147.7113 35.5328,147.7113 35.5328,147.7113 Z M39.1340,147.7113 C39.1340,149.1518 39.1340,149.1518 39.1340,149.1518 C40.0944,150.5922 40.5745,151.3125 40.5745,153.4732 C40.5745,153.7133 40.5745,153.9534 40.5745,154.1935 C41.7749,154.1935 41.7749,154.1935 41.7749,154.1935 C41.7749,147.7113 41.7749,147.7113 41.7749,147.7113 C39.1340,147.7113 39.1340,147.7113 39.1340,147.7113 Z M2.8818,147.7113 C2.8818,149.1518 2.8818,149.1518 2.8818,149.1518 C3.6020,150.5922 4.0822,151.3125 4.0822,153.4732 C4.0822,153.7133 4.0822,153.9534 4.0822,154.1935 C5.5227,154.1935 5.5227,154.1935 5.5227,154.1935 C5.5227,147.7113 5.5227,147.7113 5.5227,147.7113 C2.8818,147.7113 2.8818,147.7113 2.8818,147.7113 Z M6.4830,147.7113 C6.4830,149.1518 6.4830,149.1518 6.4830,149.1518 C7.2032,150.5922 7.9235,151.3125 7.9235,153.4732 C7.9235,153.7133 7.6834,153.9534 7.6834,154.1935 C9.1239,154.1935 9.1239,154.1935 9.1239,154.1935 C9.1239,147.7113 9.1239,147.7113 9.1239,147.7113 C6.4830,147.7113 6.4830,147.7113 6.4830,147.7113 Z M10.0842,147.7113 C10.0842,149.1518 10.0842,149.1518 10.0842,149.1518 C10.8045,150.5922 11.5247,151.3125 11.5247,153.4732 C11.5247,153.7133 11.5247,153.9534 11.5247,154.1935 C12.7251,154.1935 12.7251,154.1935 12.7251,154.1935 C12.7251,147.7113 12.7251,147.7113 12.7251,147.7113 C10.0842,147.7113 10.0842,147.7113 10.0842,147.7113 Z M13.6854,147.7113 C13.6854,149.1518 13.6854,149.1518 13.6854,149.1518 C14.6458,150.5922 15.1259,151.3125 15.1259,153.4732 C15.1259,153.7133 15.1259,153.9534 15.1259,154.1935 C16.3263,154.1935 16.3263,154.1935 16.3263,154.1935 C16.3263,147.7113 16.3263,147.7113 16.3263,147.7113 C13.6854,147.7113 13.6854,147.7113 13.6854,147.7113 Z M2.8818,159.4752 C2.8818,160.9157 2.8818,160.9157 2.8818,160.9157 C3.6020,162.1161 4.0822,162.8364 4.0822,165.2372 C4.0822,165.4773 4.0822,165.4773 4.0822,165.7174 C5.5227,165.7174 5.5227,165.7174 5.5227,165.7174 C5.5227,159.4752 5.5227,159.4752 5.5227,159.4752 C2.8818,159.4752 2.8818,159.4752 2.8818,159.4752 Z M6.4830,159.4752 C6.4830,160.9157 6.4830,160.9157 6.4830,160.9157 C7.2032,162.1161 7.9235,162.8364 7.9235,165.2372 C7.9235,165.4773 7.6834,165.4773 7.6834,165.7174 C9.1239,165.7174 9.1239,165.7174 9.1239,165.7174 C9.1239,159.4752 9.1239,159.4752 9.1239,159.4752 C6.4830,159.4752 6.4830,159.4752 6.4830,159.4752 Z M10.0842,159.4752 C10.0842,160.9157 10.0842,160.9157 10.0842,160.9157 C10.8045,162.1161 11.5247,162.8364 11.5247,165.2372 C11.5247,165.4773 11.5247,165.4773 11.5247,165.7174 C12.7251,165.7174 12.7251,165.7174 12.7251,165.7174 C12.7251,159.4752 12.7251,159.4752 12.7251,159.4752 C10.0842,159.4752 10.0842,159.4752 10.0842,159.4752 Z M13.6854,159.4752 C13.6854,160.9157 13.6854,160.9157 13.6854,160.9157 C14.6458,162.1161 15.1259,162.8364 15.1259,165.2372 C15.1259,165.4773 15.1259,165.4773 15.1259,165.7174 C16.3263,165.7174 16.3263,165.7174 16.3263,165.7174 C16.3263,159.4752 16.3263,159.4752 16.3263,159.4752 C13.6854,159.4752 13.6854,159.4752 13.6854,159.4752 Z M17.2867,159.4752 C17.2867,160.9157 17.2867,160.9157 17.2867,160.9157 C18.2470,162.1161 18.7271,162.8364 18.7271,165.2372 C18.7271,165.4773 18.7271,165.4773 18.7271,165.7174 C20.1676,165.7174 20.1676,165.7174 20.1676,165.7174 C20.1676,159.4752 20.1676,159.4752 20.1676,159.4752 C17.2867,159.4752 17.2867,159.4752 17.2867,159.4752 Z M21.1280,159.4752 C21.1280,160.9157 21.1280,160.9157 21.1280,160.9157 C21.8482,162.1161 22.3284,162.8364 22.3284,165.2372 C22.3284,165.4773 22.3284,165.4773 22.3284,165.7174 C23.7689,165.7174 23.7689,165.7174 23.7689,165.7174 C23.7689,159.4752 23.7689,159.4752 23.7689,159.4752 C21.1280,159.4752 21.1280,159.4752 21.1280,159.4752 Z M24.7292,159.4752 C24.7292,160.9157 24.7292,160.9157 24.7292,160.9157 C25.4494,162.1161 25.9296,162.8364 25.9296,165.2372 C25.9296,165.4773 25.9296,165.4773 25.9296,165.7174 C27.3701,165.7174 27.3701,165.7174 27.3701,165.7174 C27.3701,159.4752 27.3701,159.4752 27.3701,159.4752 C24.7292,159.4752 24.7292,159.4752 24.7292,159.4752 Z M28.3304,159.4752 C28.3304,160.9157 28.3304,160.9157 28.3304,160.9157 C29.0506,162.1161 29.7709,162.8364 29.7709,165.2372 C29.7709,165.4773 29.5308,165.4773 29.5308,165.7174 C30.9713,165.7174 30.9713,165.7174 30.9713,165.7174 C30.9713,159.4752 30.9713,159.4752 30.9713,159.4752 C28.3304,159.4752 28.3304,159.4752 28.3304,159.4752 Z M31.9316,159.4752 C31.9316,160.9157 31.9316,160.9157 31.9316,160.9157 C32.6519,162.1161 33.3721,162.8364 33.3721,165.2372 C33.3721,165.4773 33.3721,165.4773 33.3721,165.7174 C34.5725,165.7174 34.5725,165.7174 34.5725,165.7174 C34.5725,159.4752 34.5725,159.4752 34.5725,159.4752 C31.9316,159.4752 31.9316,159.4752 31.9316,159.4752 Z M35.5328,159.4752 C35.5328,160.9157 35.5328,160.9157 35.5328,160.9157 C36.4932,162.1161 36.9733,162.8364 36.9733,165.2372 C36.9733,165.4773 36.9733,165.4773 36.9733,165.7174 C38.1737,165.7174 38.1737,165.7174 38.1737,165.7174 C38.1737,159.4752 38.1737,159.4752 38.1737,159.4752 C35.5328,159.4752 35.5328,159.4752 35.5328,159.4752 Z M39.1340,159.4752 C39.1340,160.9157 39.1340,160.9157 39.1340,160.9157 C40.0944,162.1161 40.5745,162.8364 40.5745,165.2372 C40.5745,165.4773 40.5745,165.4773 40.5745,165.7174 C41.7749,165.7174 41.7749,165.7174 41.7749,165.7174 C41.7749,159.4752 41.7749,159.4752 41.7749,159.4752 C39.1340,159.4752 39.1340,159.4752 39.1340,159.4752 Z M2.8818,124.4234 C2.8818,125.8639 2.8818,125.8639 2.8818,125.8639 C3.6020,127.3044 4.0822,128.0246 4.0822,130.1853 C4.0822,130.4254 4.0822,130.6655 4.0822,130.9056 C5.5227,130.9056 5.5227,130.9056 5.5227,130.9056 C5.5227,124.4234 5.5227,124.4234 5.5227,124.4234 C2.8818,124.4234 2.8818,124.4234 2.8818,124.4234 Z M6.4830,124.4234 C6.4830,125.8639 6.4830,125.8639 6.4830,125.8639 C7.2032,127.3044 7.9235,128.0246 7.9235,130.1853 C7.9235,130.4254 7.6834,130.6655 7.6834,130.9056 C9.1239,130.9056 9.1239,130.9056 9.1239,130.9056 C9.1239,124.4234 9.1239,124.4234 9.1239,124.4234 C6.4830,124.4234 6.4830,124.4234 6.4830,124.4234 Z M10.0842,124.4234 C10.0842,125.8639 10.0842,125.8639 10.0842,125.8639 C10.8045,127.3044 11.5247,128.0246 11.5247,130.1853 C11.5247,130.4254 11.5247,130.6655 11.5247,130.9056 C12.7251,130.9056 12.7251,130.9056 12.7251,130.9056 C12.7251,124.4234 12.7251,124.4234 12.7251,124.4234 C10.0842,124.4234 10.0842,124.4234 10.0842,124.4234 Z M13.6854,124.4234 C13.6854,125.8639 13.6854,125.8639 13.6854,125.8639 C14.6458,127.3044 15.1259,128.0246 15.1259,130.1853 C15.1259,130.4254 15.1259,130.6655 15.1259,130.9056 C16.3263,130.9056 16.3263,130.9056 16.3263,130.9056 C16.3263,124.4234 16.3263,124.4234 16.3263,124.4234 C13.6854,124.4234 13.6854,124.4234 13.6854,124.4234 Z M17.2867,124.4234 C17.2867,125.8639 17.2867,125.8639 17.2867,125.8639 C18.2470,127.3044 18.7271,128.0246 18.7271,130.1853 C18.7271,130.4254 18.7271,130.6655 18.7271,130.9056 C20.1676,130.9056 20.1676,130.9056 20.1676,130.9056 C20.1676,124.4234 20.1676,124.4234 20.1676,124.4234 C17.2867,124.4234 17.2867,124.4234 17.2867,124.4234 Z M21.1280,124.4234 C21.1280,125.8639 21.1280,125.8639 21.1280,125.8639 C21.8482,127.3044 22.3284,128.0246 22.3284,130.1853 C22.3284,130.4254 22.3284,130.6655 22.3284,130.9056 C23.7689,130.9056 23.7689,130.9056 23.7689,130.9056 C23.7689,124.4234 23.7689,124.4234 23.7689,124.4234 C21.1280,124.4234 21.1280,124.4234 21.1280,124.4234 Z M24.7292,124.4234 C24.7292,125.8639 24.7292,125.8639 24.7292,125.8639 C25.4494,127.3044 25.9296,128.0246 25.9296,130.1853 C25.9296,130.4254 25.9296,130.6655 25.9296,130.9056 C27.3701,130.9056 27.3701,130.9056 27.3701,130.9056 C27.3701,124.4234 27.3701,124.4234 27.3701,124.4234 C24.7292,124.4234 24.7292,124.4234 24.7292,124.4234 Z M28.3304,124.4234 C28.3304,125.8639 28.3304,125.8639 28.3304,125.8639 C29.0506,127.3044 29.7709,128.0246 29.7709,130.1853 C29.7709,130.4254 29.5308,130.6655 29.5308,130.9056 C30.9713,130.9056 30.9713,130.9056 30.9713,130.9056 C30.9713,124.4234 30.9713,124.4234 30.9713,124.4234 C28.3304,124.4234 28.3304,124.4234 28.3304,124.4234 Z M31.9316,124.4234 C31.9316,125.8639 31.9316,125.8639 31.9316,125.8639 C32.6519,127.3044 33.3721,128.0246 33.3721,130.1853 C33.3721,130.4254 33.3721,130.6655 33.3721,130.9056 C34.5725,130.9056 34.5725,130.9056 34.5725,130.9056 C34.5725,124.4234 34.5725,124.4234 34.5725,124.4234 C31.9316,124.4234 31.9316,124.4234 31.9316,124.4234 Z M35.5328,124.4234 C35.5328,125.8639 35.5328,125.8639 35.5328,125.8639 C36.4932,127.3044 36.9733,128.0246 36.9733,130.1853 C36.9733,130.4254 36.9733,130.6655 36.9733,130.9056 C38.1737,130.9056 38.1737,130.9056 38.1737,130.9056 C38.1737,124.4234 38.1737,124.4234 38.1737,124.4234 C35.5328,124.4234 35.5328,124.4234 35.5328,124.4234 Z M39.1340,124.4234 C39.1340,125.8639 39.1340,125.8639 39.1340,125.8639 C40.0944,127.3044 40.5745,128.0246 40.5745,130.1853 C40.5745,130.4254 40.5745,130.6655 40.5745,130.9056 C41.7749,130.9056 41.7749,130.9056 41.7749,130.9056 C41.7749,124.4234 41.7749,124.4234 41.7749,124.4234 C39.1340,124.4234 39.1340,124.4234 39.1340,124.4234 Z M2.8818,136.1874 C2.8818,137.6279 2.8818,137.6279 2.8818,137.6279 C3.6020,138.8283 4.0822,139.5485 4.0822,141.9493 C4.0822,142.1894 4.0822,142.1894 4.0822,142.4295 C5.5227,142.4295 5.5227,142.4295 5.5227,142.4295 C5.5227,136.1874 5.5227,136.1874 5.5227,136.1874 C2.8818,136.1874 2.8818,136.1874 2.8818,136.1874 Z M6.4830,136.1874 C6.4830,137.6279 6.4830,137.6279 6.4830,137.6279 C7.2032,138.8283 7.9235,139.5485 7.9235,141.9493 C7.9235,142.1894 7.6834,142.1894 7.6834,142.4295 C9.1239,142.4295 9.1239,142.4295 9.1239,142.4295 C9.1239,136.1874 9.1239,136.1874 9.1239,136.1874 C6.4830,136.1874 6.4830,136.1874 6.4830,136.1874 Z M10.0842,136.1874 C10.0842,137.6279 10.0842,137.6279 10.0842,137.6279 C10.8045,138.8283 11.5247,139.5485 11.5247,141.9493 C11.5247,142.1894 11.5247,142.1894 11.5247,142.4295 C12.7251,142.4295 12.7251,142.4295 12.7251,142.4295 C12.7251,136.1874 12.7251,136.1874 12.7251,136.1874 C10.0842,136.1874 10.0842,136.1874 10.0842,136.1874 Z M13.6854,136.1874 C13.6854,137.6279 13.6854,137.6279 13.6854,137.6279 C14.6458,138.8283 15.1259,139.5485 15.1259,141.9493 C15.1259,142.1894 15.1259,142.1894 15.1259,142.4295 C16.3263,142.4295 16.3263,142.4295 16.3263,142.4295 C16.3263,136.1874 16.3263,136.1874 16.3263,136.1874 C13.6854,136.1874 13.6854,136.1874 13.6854,136.1874 Z M17.2867,136.1874 C17.2867,137.6279 17.2867,137.6279 17.2867,137.6279 C18.2470,138.8283 18.7271,139.5485 18.7271,141.9493 C18.7271,142.1894 18.7271,142.1894 18.7271,142.4295 C20.1676,142.4295 20.1676,142.4295 20.1676,142.4295 C20.1676,136.1874 20.1676,136.1874 20.1676,136.1874 C17.2867,136.1874 17.2867,136.1874 17.2867,136.1874 Z M21.1280,136.1874 C21.1280,137.6279 21.1280,137.6279 21.1280,137.6279 C21.8482,138.8283 22.3284,139.5485 22.3284,141.9493 C22.3284,142.1894 22.3284,142.1894 22.3284,142.4295 C23.7689,142.4295 23.7689,142.4295 23.7689,142.4295 C23.7689,136.1874 23.7689,136.1874 23.7689,136.1874 C21.1280,136.1874 21.1280,136.1874 21.1280,136.1874 Z M24.7292,136.1874 C24.7292,137.6279 24.7292,137.6279 24.7292,137.6279 C25.4494,138.8283 25.9296,139.5485 25.9296,141.9493 C25.9296,142.1894 25.9296,142.1894 25.9296,142.4295 C27.3701,142.4295 27.3701,142.4295 27.3701,142.4295 C27.3701,136.1874 27.3701,136.1874 27.3701,136.1874 C24.7292,136.1874 24.7292,136.1874 24.7292,136.1874 Z M28.3304,136.1874 C28.3304,137.6279 28.3304,137.6279 28.3304,137.6279 C29.0506,138.8283 29.7709,139.5485 29.7709,141.9493 C29.7709,142.1894 29.5308,142.1894 29.5308,142.4295 C30.9713,142.4295 30.9713,142.4295 30.9713,142.4295 C30.9713,136.1874 30.9713,136.1874 30.9713,136.1874 C28.3304,136.1874 28.3304,136.1874 28.3304,136.1874 Z M31.9316,136.1874 C31.9316,137.6279 31.9316,137.6279 31.9316,137.6279 C32.6519,138.8283 33.3721,139.5485 33.3721,141.9493 C33.3721,142.1894 33.3721,142.1894 33.3721,142.4295 C34.5725,142.4295 34.5725,142.4295 34.5725,142.4295 C34.5725,136.1874 34.5725,136.1874 34.5725,136.1874 C31.9316,136.1874 31.9316,136.1874 31.9316,136.1874 Z M35.5328,136.1874 C35.5328,137.6279 35.5328,137.6279 35.5328,137.6279 C36.4932,138.8283 36.9733,139.5485 36.9733,141.9493 C36.9733,142.1894 36.9733,142.1894 36.9733,142.4295 C38.1737,142.4295 38.1737,142.4295 38.1737,142.4295 C38.1737,136.1874 38.1737,136.1874 38.1737,136.1874 C35.5328,136.1874 35.5328,136.1874 35.5328,136.1874 Z M39.1340,136.1874 C39.1340,137.6279 39.1340,137.6279 39.1340,137.6279 C40.0944,138.8283 40.5745,139.5485 40.5745,141.9493 C40.5745,142.1894 40.5745,142.1894 40.5745,142.4295 C41.7749,142.4295 41.7749,142.4295 41.7749,142.4295 C41.7749,136.1874 41.7749,136.1874 41.7749,136.1874 C39.1340,136.1874 39.1340,136.1874 39.1340,136.1874 Z M17.2867,112.8995 C17.2867,114.3400 17.2867,114.3400 17.2867,114.3400 C18.2470,115.5404 18.7271,116.2606 18.7271,118.6614 C18.7271,118.9015 18.7271,119.1416 18.7271,119.1416 C20.1676,119.1416 20.1676,119.1416 20.1676,119.1416 C20.1676,112.8995 20.1676,112.8995 20.1676,112.8995 C17.2867,112.8995 17.2867,112.8995 17.2867,112.8995 Z M21.1280,112.8995 C21.1280,114.3400 21.1280,114.3400 21.1280,114.3400 C21.8482,115.5404 22.3284,116.2606 22.3284,118.6614 C22.3284,118.9015 22.3284,119.1416 22.3284,119.1416 C23.7689,119.1416 23.7689,119.1416 23.7689,119.1416 C23.7689,112.8995 23.7689,112.8995 23.7689,112.8995 C21.1280,112.8995 21.1280,112.8995 21.1280,112.8995 Z M24.7292,112.8995 C24.7292,114.3400 24.7292,114.3400 24.7292,114.3400 C25.4494,115.5404 25.9296,116.2606 25.9296,118.6614 C25.9296,118.9015 25.9296,119.1416 25.9296,119.1416 C27.3701,119.1416 27.3701,119.1416 27.3701,119.1416 C27.3701,112.8995 27.3701,112.8995 27.3701,112.8995 C24.7292,112.8995 24.7292,112.8995 24.7292,112.8995 Z M28.3304,112.8995 C28.3304,114.3400 28.3304,114.3400 28.3304,114.3400 C29.0506,115.5404 29.7709,116.2606 29.7709,118.6614 C29.7709,118.9015 29.5308,119.1416 29.5308,119.1416 C30.9713,119.1416 30.9713,119.1416 30.9713,119.1416 C30.9713,112.8995 30.9713,112.8995 30.9713,112.8995 C28.3304,112.8995 28.3304,112.8995 28.3304,112.8995 Z M31.9316,112.8995 C31.9316,114.3400 31.9316,114.3400 31.9316,114.3400 C32.6519,115.5404 33.3721,116.2606 33.3721,118.6614 C33.3721,118.9015 33.3721,119.1416 33.3721,119.1416 C34.5725,119.1416 34.5725,119.1416 34.5725,119.1416 C34.5725,112.8995 34.5725,112.8995 34.5725,112.8995 C31.9316,112.8995 31.9316,112.8995 31.9316,112.8995 Z M2.8818,112.8995 C2.8818,114.3400 2.8818,114.3400 2.8818,114.3400 C3.6020,115.5404 4.0822,116.2606 4.0822,118.6614 C4.0822,118.9015 4.0822,119.1416 4.0822,119.1416 C5.5227,119.1416 5.5227,119.1416 5.5227,119.1416 C5.5227,112.8995 5.5227,112.8995 5.5227,112.8995 C2.8818,112.8995 2.8818,112.8995 2.8818,112.8995 Z M6.4830,112.8995 C6.4830,114.3400 6.4830,114.3400 6.4830,114.3400 C7.2032,115.5404 7.9235,116.2606 7.9235,118.6614 C7.9235,118.9015 7.6834,119.1416 7.6834,119.1416 C9.1239,119.1416 9.1239,119.1416 9.1239,119.1416 C9.1239,112.8995 9.1239,112.8995 9.1239,112.8995 C6.4830,112.8995 6.4830,112.8995 6.4830,112.8995 Z M10.0842,112.8995 C10.0842,114.3400 10.0842,114.3400 10.0842,114.3400 C10.8045,115.5404 11.5247,116.2606 11.5247,118.6614 C11.5247,118.9015 11.5247,119.1416 11.5247,119.1416 C12.7251,119.1416 12.7251,119.1416 12.7251,119.1416 C12.7251,112.8995 12.7251,112.8995 12.7251,112.8995 C10.0842,112.8995 10.0842,112.8995 10.0842,112.8995 Z M13.6854,112.8995 C13.6854,114.3400 13.6854,114.3400 13.6854,114.3400 C14.6458,115.5404 15.1259,116.2606 15.1259,118.6614 C15.1259,118.9015 15.1259,119.1416 15.1259,119.1416 C16.3263,119.1416 16.3263,119.1416 16.3263,119.1416 C16.3263,112.8995 16.3263,112.8995 16.3263,112.8995 C13.6854,112.8995 13.6854,112.8995 13.6854,112.8995 Z M35.5328,112.8995 C35.5328,114.3400 35.5328,114.3400 35.5328,114.3400 C36.4932,115.5404 36.9733,116.2606 36.9733,118.6614 C36.9733,118.9015 36.9733,119.1416 36.9733,119.1416 C38.1737,119.1416 38.1737,119.1416 38.1737,119.1416 C38.1737,112.8995 38.1737,112.8995 38.1737,112.8995 C35.5328,112.8995 35.5328,112.8995 35.5328,112.8995 Z M39.1340,112.8995 C39.1340,114.3400 39.1340,114.3400 39.1340,114.3400 C40.0944,115.5404 40.5745,116.2606 40.5745,118.6614 C40.5745,118.9015 40.5745,119.1416 40.5745,119.1416 C41.7749,119.1416 41.7749,119.1416 41.7749,119.1416 C41.7749,112.8995 41.7749,112.8995 41.7749,112.8995 C39.1340,112.8995 39.1340,112.8995 39.1340,112.8995 Z M10.0842,101.1355 C10.0842,102.5760 10.0842,102.5760 10.0842,102.5760 C10.8045,104.0165 11.5247,104.7367 11.5247,107.1375 C11.5247,107.1375 11.5247,107.3776 11.5247,107.6177 C12.7251,107.6177 12.7251,107.6177 12.7251,107.6177 C12.7251,101.1355 12.7251,101.1355 12.7251,101.1355 C10.0842,101.1355 10.0842,101.1355 10.0842,101.1355 Z M13.6854,101.1355 C13.6854,102.5760 13.6854,102.5760 13.6854,102.5760 C14.6458,104.0165 15.1259,104.7367 15.1259,107.1375 C15.1259,107.1375 15.1259,107.3776 15.1259,107.6177 C16.3263,107.6177 16.3263,107.6177 16.3263,107.6177 C16.3263,101.1355 16.3263,101.1355 16.3263,101.1355 C13.6854,101.1355 13.6854,101.1355 13.6854,101.1355 Z M17.2867,101.1355 C17.2867,102.5760 17.2867,102.5760 17.2867,102.5760 C18.2470,104.0165 18.7271,104.7367 18.7271,107.1375 C18.7271,107.1375 18.7271,107.3776 18.7271,107.6177 C20.1676,107.6177 20.1676,107.6177 20.1676,107.6177 C20.1676,101.1355 20.1676,101.1355 20.1676,101.1355 C17.2867,101.1355 17.2867,101.1355 17.2867,101.1355 Z M21.1280,101.1355 C21.1280,102.5760 21.1280,102.5760 21.1280,102.5760 C21.8482,104.0165 22.3284,104.7367 22.3284,107.1375 C22.3284,107.1375 22.3284,107.3776 22.3284,107.6177 C23.7689,107.6177 23.7689,107.6177 23.7689,107.6177 C23.7689,101.1355 23.7689,101.1355 23.7689,101.1355 C21.1280,101.1355 21.1280,101.1355 21.1280,101.1355 Z M24.7292,101.1355 C24.7292,102.5760 24.7292,102.5760 24.7292,102.5760 C25.4494,104.0165 25.9296,104.7367 25.9296,107.1375 C25.9296,107.1375 25.9296,107.3776 25.9296,107.6177 C27.3701,107.6177 27.3701,107.6177 27.3701,107.6177 C27.3701,101.1355 27.3701,101.1355 27.3701,101.1355 C24.7292,101.1355 24.7292,101.1355 24.7292,101.1355 Z M28.3304,101.1355 C28.3304,102.5760 28.3304,102.5760 28.3304,102.5760 C29.0506,104.0165 29.7709,104.7367 29.7709,107.1375 C29.7709,107.1375 29.5308,107.3776 29.5308,107.6177 C30.9713,107.6177 30.9713,107.6177 30.9713,107.6177 C30.9713,101.1355 30.9713,101.1355 30.9713,101.1355 C28.3304,101.1355 28.3304,101.1355 28.3304,101.1355 Z M31.9316,101.1355 C31.9316,102.5760 31.9316,102.5760 31.9316,102.5760 C32.6519,104.0165 33.3721,104.7367 33.3721,107.1375 C33.3721,107.1375 33.3721,107.3776 33.3721,107.6177 C34.5725,107.6177 34.5725,107.6177 34.5725,107.6177 C34.5725,101.1355 34.5725,101.1355 34.5725,101.1355 C31.9316,101.1355 31.9316,101.1355 31.9316,101.1355 Z M35.5328,101.1355 C35.5328,102.5760 35.5328,102.5760 35.5328,102.5760 C36.4932,104.0165 36.9733,104.7367 36.9733,107.1375 C36.9733,107.1375 36.9733,107.3776 36.9733,107.6177 C38.1737,107.6177 38.1737,107.6177 38.1737,107.6177 C38.1737,101.1355 38.1737,101.1355 38.1737,101.1355 C35.5328,101.1355 35.5328,101.1355 35.5328,101.1355 Z M39.1340,101.1355 C39.1340,102.5760 39.1340,102.5760 39.1340,102.5760 C40.0944,104.0165 40.5745,104.7367 40.5745,107.1375 C40.5745,107.1375 40.5745,107.3776 40.5745,107.6177 C41.7749,107.6177 41.7749,107.6177 41.7749,107.6177 C41.7749,101.1355 41.7749,101.1355 41.7749,101.1355 C39.1340,101.1355 39.1340,101.1355 39.1340,101.1355 Z M2.8818,101.1355 C2.8818,102.5760 2.8818,102.5760 2.8818,102.5760 C3.6020,104.0165 4.0822,104.7367 4.0822,107.1375 C4.0822,107.1375 4.0822,107.3776 4.0822,107.6177 C5.5227,107.6177 5.5227,107.6177 5.5227,107.6177 C5.5227,101.1355 5.5227,101.1355 5.5227,101.1355 C2.8818,101.1355 2.8818,101.1355 2.8818,101.1355 Z M6.4830,101.1355 C6.4830,102.5760 6.4830,102.5760 6.4830,102.5760 C7.2032,104.0165 7.9235,104.7367 7.9235,107.1375 C7.9235,107.1375 7.6834,107.3776 7.6834,107.6177 C9.1239,107.6177 9.1239,107.6177 9.1239,107.6177 C9.1239,101.1355 9.1239,101.1355 9.1239,101.1355 C6.4830,101.1355 6.4830,101.1355 6.4830,101.1355 Z" style="fill-rule: evenodd; fill: #8275a3; "/>
    <text xmlns="http://www.w3.org/2000/svg" x="-17.2400" y="180.6600">
      <tspan font-family="Arial" font-size="4.5000" fill="#000000" fill-opacity="1.0000" stroke-opacity="1.0000">
Cabinet of FC Shelves</tspan>
    </text>
    <!--converted by libvisio2svg-->
  </g>
</svg>
