<svg xmlns="http://www.w3.org/2000/svg" xmlns:xlink="http://www.w3.org/1999/xlink" version="1.1" width="28.8000000000" height="7.2000000000">
  <title><![CDATA[Clustered FAS900.]]></title>
  <g transform=" scale(1.000000) ">
    <path xmlns="http://www.w3.org/2000/svg" d="  M23.1466,-29.3182 C-17.9445,-29.3182 -17.9445,-29.3182 -17.9445,-29.3182 C-17.9445,-29.3182 -18.9775,-23.5792 -18.9775,-20.3654 C-18.9775,-17.1515 -18.6332,-14.2820 -17.9445,-12.3308 C-17.9445,-5.7883 -17.9445,-5.7883 -17.9445,-5.7883 C23.1466,-5.7883 23.1466,-5.7883 23.1466,-5.7883 C23.1466,-12.3308 23.1466,-12.3308 23.1466,-12.3308 C23.7205,-14.2820 24.0649,-17.1515 24.0649,-20.3654 C24.0649,-23.5792 23.1466,-29.3182 23.1466,-29.3182 Z" style="fill-rule: evenodd; fill: #3f387c; "/>
    <path xmlns="http://www.w3.org/2000/svg" d="  M21.0806,-27.0226 C21.0806,-27.0226 19.1294,-27.3669 16.0303,-27.3669 C13.2756,-27.2521 10.4061,-26.5635 10.4061,-26.5635 C10.4061,-26.5635 0.7646,-27.3669 -3.5970,-27.3669 C-7.9586,-27.3669 -15.8784,-27.0226 -15.8784,-27.0226 C-15.8784,-27.0226 -16.7967,-22.8905 -16.7967,-20.1358 C-16.7967,-17.2663 -16.4523,-13.5934 -15.8784,-11.7569 C-15.8784,-11.7569 -10.7134,-10.4943 -1.0719,-10.4943 C5.4706,-10.4943 12.8165,-12.9047 12.8165,-12.9047 C21.0806,-12.9047 21.0806,-12.9047 21.0806,-12.9047 C21.6545,-14.6264 21.9989,-17.2663 21.9989,-20.1358 C21.9989,-22.8905 21.0806,-27.0226 21.0806,-27.0226 Z" style="fill-rule: evenodd; fill: #171868; "/>
    <path xmlns="http://www.w3.org/2000/svg" d="  M18.3259,-16.3481 C18.5555,-17.4959 18.7850,-18.9880 18.7850,-20.5949 C18.7850,-22.2018 18.5555,-23.6940 18.3259,-24.7270 M16.4894,-16.3481 C16.8338,-17.4959 16.9485,-18.9880 16.9485,-20.5949 C16.9485,-22.2018 16.8338,-23.6940 16.4894,-24.7270 M12.2426,-15.5446 C12.5869,-16.6924 12.8165,-18.2993 12.8165,-20.1358 C12.8165,-21.9723 12.5869,-23.5792 12.2426,-24.7270 M9.8322,-15.2003 C10.1765,-16.4629 10.4061,-18.0698 10.4061,-20.0210 C10.4061,-21.8575 10.1765,-23.4644 9.8322,-24.7270 M7.4218,-14.8559 C7.7662,-16.1185 7.9957,-17.8402 7.9957,-19.7915 C7.9957,-21.7427 7.7662,-23.4644 7.4218,-24.7270 M5.0115,-14.5116 C5.3558,-15.7742 5.5854,-17.6107 5.5854,-19.5619 C5.5854,-21.6279 5.3558,-23.4644 5.0115,-24.7270 M2.6011,-14.1673 C3.0602,-15.5446 3.2898,-17.3811 3.2898,-19.4471 C3.2898,-21.5132 3.0602,-23.3496 2.6011,-24.7270 M0.3055,-13.8229 C0.6498,-15.2003 0.8794,-17.1515 0.8794,-19.2176 C0.8794,-21.3984 0.6498,-23.3496 0.3055,-24.7270 M-2.1049,-13.4786 C-1.7605,-14.8559 -1.5310,-16.9220 -1.5310,-19.1028 C-1.5310,-21.2836 -1.7605,-23.2349 -2.1049,-24.7270 M-4.5153,-13.1342 C-4.1709,-14.6264 -3.9414,-16.6924 -3.9414,-18.8732 C-3.9414,-21.1688 -4.1709,-23.2349 -4.5153,-24.7270 M-6.6961,-13.2490 C-6.3517,-14.7412 -6.0074,-16.6924 -6.0074,-18.9880 C-6.0074,-21.2836 -6.3517,-23.2349 -6.6961,-24.7270 M-8.8769,-13.3638 C-8.4178,-14.7412 -8.1882,-16.8072 -8.1882,-18.9880 C-8.1882,-21.2836 -8.4178,-23.2349 -8.8769,-24.7270 M-10.9429,-13.4786 C-10.5986,-14.8559 -10.3690,-16.9220 -10.3690,-19.1028 C-10.3690,-21.2836 -10.5986,-23.3496 -10.9429,-24.7270 M-13.1237,-13.5934 C-12.7794,-14.9707 -12.5498,-16.9220 -12.5498,-19.1028 C-12.5498,-21.2836 -12.7794,-23.3496 -13.1237,-24.7270 M14.7677,-16.3481 C14.9973,-17.4959 15.2268,-18.9880 15.2268,-20.5949 C15.2268,-22.2018 14.9973,-23.6940 14.7677,-24.7270" style="stroke-width: 0.0591; stroke: #ffffff; stroke-dasharray: none; stroke-linecap: round; stroke-linejoin: round; fill: none; "/>
    <path xmlns="http://www.w3.org/2000/svg" d="  M39.9045,-15.4298 C-1.1866,-15.4298 -1.1866,-15.4298 -1.1866,-15.4298 C-1.1866,-15.4298 -2.1049,-9.6909 -2.1049,-6.4770 C-2.1049,-3.3780 -1.7605,-0.5085 -1.1866,1.5576 C-1.1866,8.1000 -1.1866,8.1000 -1.1866,8.1000 C39.9045,8.1000 39.9045,8.1000 39.9045,8.1000 C39.9045,1.5576 39.9045,1.5576 39.9045,1.5576 C40.5932,-0.5085 40.9375,-3.3780 40.9375,-6.4770 C40.9375,-9.6909 39.9045,-15.4298 39.9045,-15.4298 Z" style="fill-rule: evenodd; fill: #3f387c; "/>
    <path xmlns="http://www.w3.org/2000/svg" d="  M37.8384,-13.1342 C37.8384,-13.1342 35.8872,-13.5934 32.9029,-13.4786 C30.0334,-13.3638 27.1639,-12.6751 27.1639,-12.6751 C27.1639,-12.6751 17.6372,-13.5934 13.2756,-13.5934 C8.7992,-13.5934 0.8794,-13.1342 0.8794,-13.1342 C0.8794,-13.1342 -0.0389,-9.1170 -0.0389,-6.2475 C-0.0389,-3.3780 0.4203,0.2950 0.8794,2.1315 C0.8794,2.1315 6.0445,3.2793 15.8007,3.2793 C22.3432,3.2793 29.6891,0.9837 29.6891,0.9837 C37.8384,0.9837 37.8384,0.9837 37.8384,0.9837 C38.4123,-0.8528 38.7567,-3.3780 38.7567,-6.2475 C38.7567,-9.1170 37.8384,-13.1342 37.8384,-13.1342 Z" style="fill-rule: evenodd; fill: #171868; "/>
    <path xmlns="http://www.w3.org/2000/svg" d="  M35.0837,-2.5745 C35.4281,-3.6075 35.6576,-5.0997 35.6576,-6.7066 C35.6576,-8.3135 35.4281,-9.8056 35.0837,-10.8386 M33.3620,-2.5745 C33.5916,-3.6075 33.8212,-5.0997 33.8212,-6.7066 C33.8212,-8.3135 33.5916,-9.8056 33.3620,-10.8386 M29.1152,-1.6563 C29.4595,-2.8041 29.5743,-4.5258 29.5743,-6.2475 C29.5743,-8.0839 29.4595,-9.6909 29.1152,-10.8386 M26.7048,-1.3119 C27.0492,-2.5745 27.1639,-4.2962 27.1639,-6.1327 C27.1639,-7.9692 27.0492,-9.6909 26.7048,-10.8386 M24.2944,-0.9676 C24.6388,-2.2302 24.8683,-3.9519 24.8683,-5.9031 C24.8683,-7.8544 24.6388,-9.5761 24.2944,-10.8386 M21.8841,-0.6233 C22.2284,-2.0006 22.4580,-3.7223 22.4580,-5.7883 C22.4580,-7.7396 22.2284,-9.5761 21.8841,-10.8386 M19.4737,-0.2789 C19.8180,-1.6563 20.0476,-3.4927 20.0476,-5.5588 C20.0476,-7.6248 19.8180,-9.5761 19.4737,-10.8386 M17.0633,0.0654 C17.4077,-1.3119 17.6372,-3.2632 17.6372,-5.4440 C17.6372,-7.5100 17.4077,-9.4613 17.0633,-10.8386 M14.6530,0.4098 C15.1121,-1.0824 15.3416,-3.0336 15.3416,-5.2144 C15.3416,-7.3953 15.1121,-9.4613 14.6530,-10.8386 M12.2426,0.7541 C12.7017,-0.7380 12.9313,-2.8041 12.9313,-5.0997 C12.9313,-7.2805 12.7017,-9.3465 12.2426,-10.8386 M10.1765,0.6393 C10.5209,-0.8528 10.7504,-2.9189 10.7504,-5.0997 C10.7504,-7.3953 10.5209,-9.3465 10.1765,-10.8386 M7.9957,0.5245 C8.3401,-0.9676 8.5696,-2.9189 8.5696,-5.2144 C8.5696,-7.3953 8.3401,-9.4613 7.9957,-10.8386 M5.8149,0.4098 C6.2740,-1.0824 6.5036,-3.0336 6.5036,-5.2144 C6.5036,-7.3953 6.2740,-9.4613 5.8149,-10.8386 M3.6341,0.2950 C4.0932,-1.0824 4.3228,-3.1484 4.3228,-5.3292 C4.3228,-7.5100 4.0932,-9.4613 3.6341,-10.8386 M31.5256,-2.5745 C31.8699,-3.6075 31.9847,-5.0997 31.9847,-6.7066 C31.9847,-8.3135 31.8699,-9.8056 31.5256,-10.8386" style="stroke-width: 0.0591; stroke: #ffffff; stroke-dasharray: none; stroke-linecap: round; stroke-linejoin: round; fill: none; "/>
    <path xmlns="http://www.w3.org/2000/svg" d="  M37.9532,4.7714 L31.6403,4.7714 L31.6403,3.1645 L37.9532,3.1645 L37.9532,4.7714 Z" style="fill-rule: evenodd; fill: #ffffff; "/>
    <path xmlns="http://www.w3.org/2000/svg" d="  M23.1466,-29.3182 L-17.9445,-29.3182 L-15.7637,-32.4172 L20.9658,-32.4172 L23.1466,-29.3182 Z M39.9045,-15.4298 L-1.1866,-15.4298 L0.9942,-18.5289 L37.7237,-18.5289 L39.9045,-15.4298 Z" style="fill-rule: evenodd; fill: #988db1; "/>
    <path xmlns="http://www.w3.org/2000/svg" d="  M23.1466,-29.3182 L-17.9445,-29.3182 L-15.7637,-32.4172 L20.9658,-32.4172 L23.1466,-29.3182 Z M39.9045,-15.4298 L-1.1866,-15.4298 L0.9942,-18.5289 L37.7237,-18.5289 L39.9045,-15.4298 Z" style="stroke-width: 0.0240; stroke: #ffffff; stroke-dasharray: none; stroke-linecap: round; stroke-linejoin: round; fill: none; "/>
    <text xmlns="http://www.w3.org/2000/svg" x="-3.8045" y="12.7286">
      <tspan font-family="Arial" font-size="4.5000" fill="#000000" fill-opacity="1.0000" stroke-opacity="1.0000">
Clustered FAS900</tspan>
    </text>
    <!--converted by libvisio2svg-->
  </g>
</svg>
