<svg xmlns="http://www.w3.org/2000/svg" xmlns:xlink="http://www.w3.org/1999/xlink" version="1.1" width="28.8000000000" height="7.2000000000">
  <title><![CDATA[Clustered FAS900]]></title>
  <g transform=" scale(1.000000) ">
    <path xmlns="http://www.w3.org/2000/svg" d="  M40.5936,-15.7621 L-0.4536,-15.7621 L1.7762,-18.8026 L38.3638,-18.8026 L40.5936,-15.7621 Z M40.5936,-51.4376 L-0.4536,-51.4376 L1.7762,-54.4781 L38.3638,-54.4781 L40.5936,-51.4376 Z" style="fill-rule: evenodd; fill: #988db1; "/>
    <path xmlns="http://www.w3.org/2000/svg" d="  M40.5936,-15.7621 L-0.4536,-15.7621 L1.7762,-18.8026 L38.3638,-18.8026 L40.5936,-15.7621 Z M40.5936,-51.4376 L-0.4536,-51.4376 L1.7762,-54.4781 L38.3638,-54.4781 L40.5936,-51.4376 Z" style="stroke-width: 0.0240; stroke: #ffffff; stroke-dasharray: none; stroke-linecap: round; stroke-linejoin: round; fill: none; "/>
    <path xmlns="http://www.w3.org/2000/svg" d="  M22.7558,-28.6336 L22.7558,-16.8769 M18.8031,-28.6336 L18.8031,-16.8769" style="stroke-width: 0.0720; stroke: #9b9999; stroke-dasharray: none; stroke-linecap: round; stroke-linejoin: round; fill: none; "/>
    <path xmlns="http://www.w3.org/2000/svg" d="  M40.5936,-15.7621 C-0.4536,-15.7621 -0.4536,-15.7621 -0.4536,-15.7621 C-0.4536,-15.7621 -1.3657,-10.0864 -1.3657,-6.8432 C-1.3657,-3.7013 -1.0617,-0.8635 -0.4536,1.1635 C-0.4536,7.6500 -0.4536,7.6500 -0.4536,7.6500 C40.5936,7.6500 40.5936,7.6500 40.5936,7.6500 C40.5936,1.1635 40.5936,1.1635 40.5936,1.1635 C41.2017,-0.8635 41.5057,-3.7013 41.5057,-6.8432 C41.5057,-10.0864 40.5936,-15.7621 40.5936,-15.7621 Z M40.5936,-51.4376 C-0.4536,-51.4376 -0.4536,-51.4376 -0.4536,-51.4376 C-0.4536,-51.4376 -1.3657,-45.6606 -1.3657,-42.5187 C-1.3657,-39.3768 -1.0617,-36.5390 -0.4536,-34.5120 C-0.4536,-28.0255 -0.4536,-28.0255 -0.4536,-28.0255 C40.5936,-28.0255 40.5936,-28.0255 40.5936,-28.0255 C40.5936,-34.5120 40.5936,-34.5120 40.5936,-34.5120 C41.2017,-36.5390 41.5057,-39.3768 41.5057,-42.5187 C41.5057,-45.6606 40.5936,-51.4376 40.5936,-51.4376 Z" style="fill-rule: evenodd; fill: #3f387c; "/>
    <path xmlns="http://www.w3.org/2000/svg" d="  M38.4652,-13.5323 C38.4652,-13.5323 36.5395,-13.9377 33.4990,-13.8364 C30.7625,-13.7350 27.8233,-13.0256 27.8233,-13.0256 C27.8233,-13.0256 18.2964,-13.9377 13.9383,-13.9377 C9.4788,-13.9377 1.6748,-13.5323 1.6748,-13.5323 C1.6748,-13.5323 0.7626,-9.4783 0.7626,-6.6405 C0.7626,-3.7013 1.0667,-0.0527 1.6748,1.6703 C1.6748,1.6703 6.8437,2.8865 16.4720,2.8865 C22.9585,2.8865 30.3571,0.6568 30.3571,0.6568 C38.4652,0.6568 38.4652,0.6568 38.4652,0.6568 C39.0733,-1.1675 39.3774,-3.7013 39.3774,-6.6405 C39.3774,-9.4783 38.4652,-13.5323 38.4652,-13.5323 Z M38.4652,-49.2079 C38.4652,-49.2079 36.5395,-49.5119 33.4990,-49.5119 C30.7625,-49.4106 27.8233,-48.7011 27.8233,-48.7011 C27.8233,-48.7011 18.2964,-49.5119 13.9383,-49.5119 C9.4788,-49.5119 1.6748,-49.2079 1.6748,-49.2079 C1.6748,-49.2079 0.7626,-45.0525 0.7626,-42.2147 C0.7626,-39.3768 1.0667,-35.7282 1.6748,-33.9039 C1.6748,-33.9039 6.8437,-32.7890 16.4720,-32.7890 C22.9585,-32.7890 30.3571,-35.0187 30.3571,-35.0187 C38.4652,-35.0187 38.4652,-35.0187 38.4652,-35.0187 C39.0733,-36.8431 39.3774,-39.3768 39.3774,-42.2147 C39.3774,-45.0525 38.4652,-49.2079 38.4652,-49.2079 Z" style="fill-rule: evenodd; fill: #171868; "/>
    <path xmlns="http://www.w3.org/2000/svg" d="  M35.7287,-2.8905 C36.0328,-4.0054 36.2355,-5.4243 36.2355,-7.0459 C36.2355,-8.6675 36.0328,-10.1878 35.7287,-11.2013 M34.0058,-2.8905 C34.2085,-4.0054 34.4112,-5.4243 34.4112,-7.0459 C34.4112,-8.6675 34.2085,-10.1878 34.0058,-11.2013 M29.7490,-2.0797 C30.0531,-3.1946 30.2558,-4.8162 30.2558,-6.6405 C30.2558,-8.4648 30.0531,-10.0864 29.7490,-11.2013 M27.3166,-1.6743 C27.6206,-2.9918 27.8233,-4.6135 27.8233,-6.4378 C27.8233,-8.3634 27.6206,-9.9851 27.3166,-11.2013 M24.9855,-1.3702 C25.2896,-2.6878 25.4923,-4.4108 25.4923,-6.3364 C25.4923,-8.2621 25.2896,-9.9851 24.9855,-11.2013 M22.5531,-1.0662 C22.8572,-2.3837 23.1612,-4.1067 23.1612,-6.1337 C23.1612,-8.1607 22.8572,-9.8837 22.5531,-11.2013 M20.1207,-0.6608 C20.5261,-2.0797 20.7288,-3.9040 20.7288,-5.9310 C20.7288,-8.0594 20.5261,-9.8837 20.1207,-11.2013 M17.7896,-0.3567 C18.0937,-1.7756 18.3977,-3.7013 18.3977,-5.8297 C18.3977,-7.9580 18.0937,-9.8837 17.7896,-11.2013 M15.3572,0.0487 C15.7626,-1.4716 15.9653,-3.3973 15.9653,-5.6270 C15.9653,-7.7553 15.7626,-9.7824 15.3572,-11.2013 M12.9248,0.3527 C13.3302,-1.1675 13.6342,-3.1946 13.6342,-5.4243 C13.6342,-7.6540 13.3302,-9.7824 12.9248,-11.2013 M10.7964,0.2514 C11.2018,-1.2689 11.5058,-3.2959 11.5058,-5.5256 C11.5058,-7.7553 11.2018,-9.7824 10.7964,-11.2013 M8.6680,0.1500 C9.0734,-1.3702 9.2761,-3.2959 9.2761,-5.5256 C9.2761,-7.7553 9.0734,-9.7824 8.6680,-11.2013 M6.5396,0.0487 C6.9451,-1.4716 7.1478,-3.3973 7.1478,-5.6270 C7.1478,-7.7553 6.9451,-9.7824 6.5396,-11.2013 M4.4113,-0.0527 C4.8167,-1.4716 5.0194,-3.4986 5.0194,-5.6270 C5.0194,-7.8567 4.8167,-9.7824 4.4113,-11.2013 M32.1814,-2.8905 C32.4855,-4.0054 32.6882,-5.4243 32.6882,-7.0459 C32.6882,-8.6675 32.4855,-10.1878 32.1814,-11.2013 M35.7287,-38.5660 C36.0328,-39.5795 36.2355,-41.0998 36.2355,-42.7214 C36.2355,-44.3430 36.0328,-45.8633 35.7287,-46.8768 M34.0058,-38.5660 C34.2085,-39.5795 34.4112,-41.0998 34.4112,-42.7214 C34.4112,-44.3430 34.2085,-45.8633 34.0058,-46.8768 M29.7490,-37.7552 C30.0531,-38.8701 30.2558,-40.4917 30.2558,-42.3160 C30.2558,-44.1403 30.0531,-45.7619 29.7490,-46.8768 M27.3166,-37.3498 C27.6206,-38.5660 27.8233,-40.2890 27.8233,-42.1133 C27.8233,-44.0390 27.6206,-45.6606 27.3166,-46.8768 M24.9855,-37.0458 C25.2896,-38.2620 25.4923,-39.9849 25.4923,-41.9106 C25.4923,-43.8363 25.2896,-45.6606 24.9855,-46.8768 M22.5531,-36.6404 C22.8572,-37.9579 23.1612,-39.7822 23.1612,-41.8093 C23.1612,-43.7349 22.8572,-45.5592 22.5531,-46.8768 M20.1207,-36.3363 C20.5261,-37.6539 20.7288,-39.5795 20.7288,-41.6066 C20.7288,-43.6336 20.5261,-45.5592 20.1207,-46.8768 M17.7896,-36.0323 C18.0937,-37.3498 18.3977,-39.2755 18.3977,-41.4039 C18.3977,-43.5322 18.0937,-45.4579 17.7896,-46.8768 M15.3572,-35.6269 C15.7626,-37.0458 15.9653,-39.0728 15.9653,-41.3025 C15.9653,-43.4309 15.7626,-45.4579 15.3572,-46.8768 M12.9248,-35.3228 C13.3302,-36.7417 13.6342,-38.8701 13.6342,-41.0998 C13.6342,-43.3295 13.3302,-45.3565 12.9248,-46.8768 M10.7964,-35.4241 C11.2018,-36.8431 11.5058,-38.8701 11.5058,-41.0998 C11.5058,-43.4309 11.2018,-45.4579 10.7964,-46.8768 M8.6680,-35.5255 C9.0734,-36.9444 9.2761,-38.9714 9.2761,-41.2012 C9.2761,-43.4309 9.0734,-45.4579 8.6680,-46.8768 M6.5396,-35.6269 C6.9451,-37.0458 7.1478,-39.0728 7.1478,-41.3025 C7.1478,-43.4309 6.9451,-45.4579 6.5396,-46.8768 M4.4113,-35.7282 C4.8167,-37.1471 5.0194,-39.1741 5.0194,-41.3025 C5.0194,-43.5322 4.8167,-45.4579 4.4113,-46.8768 M32.1814,-38.5660 C32.4855,-39.5795 32.6882,-41.0998 32.6882,-42.7214 C32.6882,-44.3430 32.4855,-45.8633 32.1814,-46.8768" style="stroke-width: 0.0591; stroke: #ffffff; stroke-dasharray: none; stroke-linecap: round; stroke-linejoin: round; fill: none; "/>
    <path xmlns="http://www.w3.org/2000/svg" d="  M38.5665,4.4068 L32.2828,4.4068 L32.2828,2.7852 L38.5665,2.7852 L38.5665,4.4068 Z M38.5665,-31.2688 L32.2828,-31.2688 L32.2828,-32.8904 L38.5665,-32.8904 L38.5665,-31.2688 Z" style="fill-rule: evenodd; fill: #ffffff; "/>
    <text xmlns="http://www.w3.org/2000/svg" x="1.3255" y="13.0500">
      <tspan font-family="Arial" font-size="4.5000" fill="#000000" fill-opacity="1.0000" stroke-opacity="1.0000">
Clustered FAS900</tspan>
    </text>
    <!--converted by libvisio2svg-->
  </g>
</svg>
