<svg xmlns="http://www.w3.org/2000/svg" xmlns:xlink="http://www.w3.org/1999/xlink" version="1.1" width="43.2000000000" height="7.2000000000">
  <title><![CDATA[Compliance Volume]]></title>
  <g transform=" scale(1.000000) ">
    <g xmlns="http://www.w3.org/2000/svg" id="Layer1070">
      <path d="  M43.3269,-15.8856 L-0.1269,-15.8856 L-0.1269,7.2281 L43.3269,7.2281 L43.3269,-15.8856 Z" style="stroke-width: 0.0240; stroke-linecap: round; stroke-linejoin: round; fill-rule: evenodd; fill: #171868; "/>
      <path d="  M43.3269,-15.8856 L-0.1269,-15.8856 L-0.1269,7.2281 L43.3269,7.2281 L43.3269,-15.8856 Z" style="stroke-width: 0.0240; stroke: #ffffff; stroke-dasharray: none; stroke-linecap: round; stroke-linejoin: round; fill: none; "/>
    </g>
    <path xmlns="http://www.w3.org/2000/svg" d="  M38.7042,-0.1683 C38.7042,-0.6305 38.0107,-0.8617 38.0107,-0.8617 C32.4635,-0.8617 32.4635,-0.8617 32.4635,-0.8617 C32.4635,-0.8617 31.7700,-0.6305 31.7700,-0.1683 C31.7700,0.0629 32.4635,0.5251 32.4635,0.5251 C38.0107,0.5251 38.0107,0.5251 38.0107,0.5251 C38.0107,0.5251 38.7042,0.0629 38.7042,-0.1683 Z M38.0107,1.9120 C32.4635,1.9120 32.4635,1.9120 32.4635,1.9120 C32.4635,1.9120 32.0012,1.6808 31.7700,1.4497 C31.7700,2.1431 31.7700,2.1431 31.7700,2.1431 C31.7700,2.3742 31.7700,2.3742 31.7700,2.3742 C31.7700,2.3742 32.4635,2.6054 32.6946,2.8365 C32.6946,2.8365 37.7796,2.8365 38.0107,2.8365 C38.0107,2.6054 38.7042,2.3742 38.7042,2.3742 C38.7042,2.1431 38.7042,2.1431 38.7042,2.1431 C38.7042,1.4497 38.7042,1.4497 38.7042,1.4497 C38.4730,1.6808 38.0107,1.9120 38.0107,1.9120 Z M38.0107,3.0677 C32.4635,3.0677 32.4635,3.0677 32.4635,3.0677 C32.4635,3.0677 32.0012,2.8365 31.7700,2.6054 C31.7700,3.2988 31.7700,3.2988 31.7700,3.2988 C31.7700,3.5299 31.7700,3.5299 31.7700,3.5299 C31.7700,3.5299 32.4635,3.7611 32.6946,3.9922 C32.6946,3.9922 37.7796,3.9922 38.0107,3.9922 C38.0107,3.7611 38.7042,3.5299 38.7042,3.5299 C38.7042,3.2988 38.7042,3.2988 38.7042,3.2988 C38.7042,2.6054 38.7042,2.6054 38.7042,2.6054 C38.4730,2.8365 38.0107,3.0677 38.0107,3.0677 Z M38.0107,0.7563 C32.4635,0.7563 32.4635,0.7563 32.4635,0.7563 C32.4635,0.7563 32.0012,0.5251 31.7700,0.2940 C31.7700,0.9874 31.7700,0.9874 31.7700,0.9874 C31.7700,1.2186 32.4635,1.4497 32.6946,1.6808 C32.6946,1.6808 37.7796,1.6808 38.0107,1.6808 C38.0107,1.4497 38.7042,1.2186 38.7042,0.9874 C38.7042,0.2940 38.7042,0.2940 38.7042,0.2940 C38.4730,0.5251 38.0107,0.7563 38.0107,0.7563 Z M38.0107,4.2233 C32.4635,4.2233 32.4635,4.2233 32.4635,4.2233 C32.4635,4.2233 32.0012,3.9922 31.7700,3.7611 C31.7700,4.4545 31.7700,4.4545 31.7700,4.4545 C31.7700,4.9168 32.4635,5.1479 32.4635,5.1479 C38.0107,5.1479 38.0107,5.1479 38.0107,5.1479 C38.0107,5.1479 38.7042,4.9168 38.7042,4.4545 C38.7042,3.7611 38.7042,3.7611 38.7042,3.7611 C38.4730,3.9922 38.0107,4.2233 38.0107,4.2233 Z" style="fill-rule: evenodd; fill: #ffffff; "/>
    <path xmlns="http://www.w3.org/2000/svg" d="  M33.1569,-3.1731 C33.1569,-0.1683 33.1569,-0.1683 33.1569,-0.1683 C33.6191,0.5691 33.8503,-0.4214 33.8503,-0.1683 C33.8503,-3.1731 33.8503,-3.1731 33.8503,-3.1731 L33.1569,-3.1731 Z" style="fill-rule: evenodd; fill: #cccccc; "/>
    <g xmlns="http://www.w3.org/2000/svg" id="Layer1071">
      <path d="  M21.6000,-3.1731 L5.4204,-3.1731 L12.5856,-9.6449 L21.6000,-9.6449 L21.6000,-3.1731 Z M21.6000,-3.1731 L37.7796,-3.1731 L30.6144,-9.6449 L21.6000,-9.6449 L21.6000,-3.1731 Z" style="stroke-width: 0.0400; stroke-linecap: round; stroke-linejoin: round; fill-rule: evenodd; fill: #7f7f7f; "/>
      <path d="  M21.6000,-3.1731 L5.4204,-3.1731 L12.5856,-9.6449 L21.6000,-9.6449 L21.6000,-3.1731 Z M21.6000,-3.1731 L37.7796,-3.1731 L30.6144,-9.6449 L21.6000,-9.6449 L21.6000,-3.1731 Z" style="stroke-width: 0.0400; stroke: #ffffff; stroke-dasharray: none; stroke-linecap: round; stroke-linejoin: round; fill: none; "/>
    </g>
    <path xmlns="http://www.w3.org/2000/svg" d="  M21.6000,-5.4844 C19.0575,-10.1072 7.0384,-5.7156 7.0384,-5.7156 C7.0384,-3.6353 7.0384,-3.6353 7.0384,-3.6353 C7.0384,-3.6353 18.1329,-8.0269 21.6000,-3.8665 C21.6000,-5.4844 21.6000,-5.4844 21.6000,-5.4844 Z M21.6000,-5.4844 C24.1425,-10.1072 35.9305,-5.7156 35.9305,-5.7156 C35.9305,-3.6353 35.9305,-3.6353 35.9305,-3.6353 C35.9305,-3.6353 24.8359,-8.0269 21.6000,-3.8665 C21.6000,-5.4844 21.6000,-5.4844 21.6000,-5.4844 Z" style="fill-rule: evenodd; fill: #cccccc; "/>
    <path xmlns="http://www.w3.org/2000/svg" d="  M21.6000,-5.4844 C24.1425,-10.1072 35.9305,-5.7156 35.9305,-5.7156 C30.6144,-11.7251 30.6144,-11.7251 30.6144,-11.7251 C30.6144,-11.7251 25.7605,-13.8054 21.6000,-11.7251 C21.6000,-5.4844 21.6000,-5.4844 21.6000,-5.4844 Z M21.6000,-5.4844 C19.0575,-10.1072 7.0384,-5.7156 7.0384,-5.7156 C12.5856,-11.7251 12.5856,-11.7251 12.5856,-11.7251 C12.5856,-11.7251 17.4395,-13.8054 21.6000,-11.7251 C21.6000,-5.4844 21.6000,-5.4844 21.6000,-5.4844 Z" style="fill-rule: evenodd; fill: #ffffff; "/>
    <path xmlns="http://www.w3.org/2000/svg" d="  M21.6000,-11.6397 L21.6000,-4.1585" style="stroke-width: 0.0295; stroke: #cccccc; stroke-dasharray: none; stroke-linecap: round; stroke-linejoin: round; fill: none; "/>
    <path xmlns="http://www.w3.org/2000/svg" d="  M33.8503,-7.1024 C31.3078,-8.0269 25.7605,-9.4138 22.9868,-7.7958 M33.3880,-8.0269 C31.0766,-8.7203 25.9916,-10.1072 22.7557,-8.4892 M32.2323,-9.1826 C30.1521,-9.8760 25.5293,-10.8006 22.7557,-9.4138 M31.3078,-10.1072 C29.4587,-10.5694 25.5293,-11.7251 22.7557,-10.3383 M30.6144,-11.0317 C28.9964,-11.4940 25.7605,-12.4185 22.9868,-11.2629 M9.3497,-7.1024 C11.6611,-8.0269 17.2084,-9.4138 20.2132,-7.7958 M9.8120,-8.0269 C11.8922,-8.7203 17.2084,-10.1072 20.2132,-8.4892 M10.9677,-9.1826 C13.0479,-9.8760 17.4395,-10.8006 20.4443,-9.4138 M11.6611,-10.1072 C13.7413,-10.5694 17.6707,-11.7251 20.4443,-10.3383 M12.5856,-11.0317 C14.2036,-11.4940 17.4395,-12.4185 20.2132,-11.2629" style="stroke-width: 0.0200; stroke: #000000; stroke-dasharray: none; stroke-linecap: round; stroke-linejoin: round; fill: none; "/>
    <path xmlns="http://www.w3.org/2000/svg" d="  M33.8503,-6.8713 C33.8503,-7.5647 34.3126,-8.0269 35.0060,-8.0269 C35.4682,-8.0269 35.4682,-8.0269 35.4682,-8.0269 C36.1616,-8.0269 36.6239,-7.5647 36.6239,-6.8713 C36.6239,-0.1683 36.6239,-0.1683 36.6239,-0.1683 C37.5485,0.3380 37.5485,-0.4214 37.5485,-0.1683 C37.5485,-7.1024 37.5485,-7.1024 37.5485,-7.1024 C37.5485,-8.0269 36.6239,-8.9515 35.6994,-8.9515 C34.7748,-8.9515 34.7748,-8.9515 34.7748,-8.9515 C33.8503,-8.9515 33.1569,-8.0269 33.1569,-7.1024 C33.1569,-7.1024 33.1569,-6.8713 33.3880,-6.8713 C33.6191,-6.8713 33.8503,-6.8713 33.8503,-6.8713 Z" style="fill-rule: evenodd; fill: #cccccc; "/>
    <text xmlns="http://www.w3.org/2000/svg" x="1.9604" y="11.8824">
      <tspan font-family="Arial" font-size="4.5000" fill="#000000" fill-opacity="1.0000" stroke-opacity="1.0000">
Compliance Volume</tspan>
    </text>
    <!--converted by libvisio2svg-->
  </g>
</svg>
