<svg xmlns="http://www.w3.org/2000/svg" xmlns:xlink="http://www.w3.org/1999/xlink" version="1.1" width="43.2000000000" height="7.2000000000">
  <title><![CDATA[Decru DataFort rackmount]]></title>
  <g transform=" scale(1.000000) ">
    <g xmlns="http://www.w3.org/2000/svg" id="Layer1061">
      <path d="  M43.3029,7.3125 L43.3029,-4.2114 L0.0883,-4.2114 L0.0883,7.3125 L43.3029,7.3125 Z" style="stroke-width: 0.0240; stroke-linecap: round; stroke-linejoin: round; fill-rule: evenodd; fill: #171868; "/>
      <path d="  M43.3029,7.3125 L43.3029,-4.2114 L0.0883,-4.2114 L0.0883,7.3125 L43.3029,7.3125 Z" style="stroke-width: 0.0240; stroke: #ffffff; stroke-dasharray: none; stroke-linecap: round; stroke-linejoin: round; fill: none; "/>
    </g>
    <path xmlns="http://www.w3.org/2000/svg" d="  M31.9050,6.2756 L21.9488,6.2756 L21.9488,-3.1744 L31.9050,-3.1744 L31.9050,6.2756 Z" style="fill-rule: evenodd; fill: #b2a8c3; "/>
    <path xmlns="http://www.w3.org/2000/svg" d="  M30.8925,2.9006 L22.9612,2.9006 L22.9612,0.2006 L30.8925,0.2006 L30.8925,2.9006 Z" style="fill-rule: evenodd; fill: #ffffff; "/>
    <path xmlns="http://www.w3.org/2000/svg" d="  M21.2737,0.0318 L21.2737,3.0693 M20.5987,0.0318 L20.5987,3.0693 M19.7550,0.0318 L19.7550,3.0693 M18.9112,0.0318 L18.9112,3.0693 M18.0675,0.0318 L18.0675,3.0693 M17.3925,0.0318 L17.3925,3.0693 M16.5488,0.0318 L16.5488,3.0693 M15.7050,0.0318 L15.7050,3.0693 M14.8613,0.0318 L14.8613,3.0693 M14.0175,0.0318 L14.0175,3.0693 M13.3425,0.0318 L13.3425,3.0693 M12.4987,0.0318 L12.4987,3.0693 M11.6550,0.0318 L11.6550,3.0693 M10.8112,0.0318 L10.8112,3.0693 M9.9675,0.0318 L9.9675,3.0693 M9.2925,0.0318 L9.2925,3.0693 M8.4488,0.0318 L8.4488,3.0693 M7.6050,0.0318 L7.6050,3.0693 M6.7612,0.0318 L6.7612,3.0693 M5.9175,0.0318 L5.9175,3.0693 M5.2425,0.0318 L5.2425,3.0693 M4.3987,3.0693 L4.3987,0.0318" style="stroke-width: 0.0295; stroke: #8275a3; stroke-dasharray: none; stroke-linecap: round; stroke-linejoin: round; fill: none; "/>
    <path xmlns="http://www.w3.org/2000/svg" d="  M3.7237,-0.3057 L0.8550,-0.3057 L0.8550,-3.1744 L3.7237,-3.1744 L3.7237,-0.3057 Z M3.7237,3.0693 L0.8550,3.0693 L0.8550,0.0318 L3.7237,0.0318 L3.7237,3.0693 Z M3.7237,6.2756 L0.8550,6.2756 L0.8550,3.4068 L3.7237,3.4068 L3.7237,6.2756 Z M7.2337,6.2756 L4.3650,6.2756 L4.3650,3.4068 L7.2337,3.4068 L7.2337,6.2756 Z M10.7438,6.2756 L7.8750,6.2756 L7.8750,3.4068 L10.7437,3.4068 L10.7437,6.2756 Z M17.7638,6.2756 L14.8950,6.2756 L14.8950,3.4068 L17.7637,3.4068 L17.7637,6.2756 Z M21.2737,6.2756 L18.4050,6.2756 L18.4050,3.4068 L21.2737,3.4068 L21.2737,6.2756 Z M14.2538,6.2756 L11.3850,6.2756 L11.3850,3.4068 L14.2537,3.4068 L14.2537,6.2756 Z M35.4488,3.0693 L32.5800,3.0693 L32.5800,0.0318 L35.4487,0.0318 L35.4487,3.0693 Z M38.9925,3.0693 L36.1238,3.0693 L36.1238,0.0318 L38.9925,0.0318 L38.9925,3.0693 Z M42.5363,3.0693 L39.6675,3.0693 L39.6675,0.0318 L42.5363,0.0318 L42.5363,3.0693 Z M35.4488,-0.3057 L32.5800,-0.3057 L32.5800,-3.1744 L35.4487,-3.1744 L35.4487,-0.3057 Z M38.9925,-0.3057 L36.1238,-0.3057 L36.1238,-3.1744 L38.9925,-3.1744 L38.9925,-0.3057 Z M42.5363,-0.3057 L39.6675,-0.3057 L39.6675,-3.1744 L42.5363,-3.1744 L42.5363,-0.3057 Z M35.4488,6.2756 L32.5800,6.2756 L32.5800,3.4068 L35.4487,3.4068 L35.4487,6.2756 Z M38.9925,6.2756 L36.1238,6.2756 L36.1238,3.4068 L38.9925,3.4068 L38.9925,6.2756 Z M42.5363,6.2756 L39.6675,6.2756 L39.6675,3.4068 L42.5363,3.4068 L42.5363,6.2756 Z M7.2337,-0.3057 L4.3650,-0.3057 L4.3650,-3.1744 L7.2337,-3.1744 L7.2337,-0.3057 Z M10.7438,-0.3057 L7.8750,-0.3057 L7.8750,-3.1744 L10.7437,-3.1744 L10.7437,-0.3057 Z M14.2538,-0.3057 L11.3850,-0.3057 L11.3850,-3.1744 L14.2537,-3.1744 L14.2537,-0.3057 Z M17.7638,-0.3057 L14.8950,-0.3057 L14.8950,-3.1744 L17.7637,-3.1744 L17.7637,-0.3057 Z M21.2737,-0.3057 L18.4050,-0.3057 L18.4050,-3.1744 L21.2737,-3.1744 L21.2737,-0.3057 Z" style="fill-rule: evenodd; fill: #8275a3; "/>
    <!--converted by libvisio2svg-->
  </g>
</svg>
