<svg xmlns="http://www.w3.org/2000/svg" xmlns:xlink="http://www.w3.org/1999/xlink" version="1.1" width="43.2000000000" height="7.2000000000">
  <title><![CDATA[Decru DataFort]]></title>
  <g transform=" scale(1.000000) ">
    <g xmlns="http://www.w3.org/2000/svg" id="Layer1004">
      <path d="  M43.2281,-4.3239 L0.0281,-4.3239 L1.7881,-7.0226 L41.3081,-7.0226 L43.2281,-4.3239 Z" style="stroke-width: 0.0240; stroke-linecap: round; stroke-linejoin: round; fill-rule: evenodd; fill: #988db1; "/>
      <path d="  M43.2281,-4.3239 L0.0281,-4.3239 L1.7881,-7.0226 L41.3081,-7.0226 L43.2281,-4.3239 Z" style="stroke-width: 0.0240; stroke: #ffffff; stroke-dasharray: none; stroke-linecap: round; stroke-linejoin: round; fill: none; "/>
    </g>
    <g xmlns="http://www.w3.org/2000/svg" id="Layer1005">
      <path d="  M43.2354,7.2000 L43.2354,-4.3239 L0.0208,-4.3239 L0.0208,7.2000 L43.2354,7.2000 Z" style="stroke-width: 0.0240; stroke-linecap: round; stroke-linejoin: round; fill-rule: evenodd; fill: #171868; "/>
      <path d="  M43.2354,7.2000 L43.2354,-4.3239 L0.0208,-4.3239 L0.0208,7.2000 L43.2354,7.2000 Z" style="stroke-width: 0.0240; stroke: #ffffff; stroke-dasharray: none; stroke-linecap: round; stroke-linejoin: round; fill: none; "/>
    </g>
    <path xmlns="http://www.w3.org/2000/svg" d="  M31.8375,6.1631 L21.8813,6.1631 L21.8813,-3.2869 L31.8375,-3.2869 L31.8375,6.1631 Z" style="fill-rule: evenodd; fill: #b2a8c3; "/>
    <path xmlns="http://www.w3.org/2000/svg" d="  M30.8250,2.7881 L22.8938,2.7881 L22.8938,0.0881 L30.8250,0.0881 L30.8250,2.7881 Z" style="fill-rule: evenodd; fill: #ffffff; "/>
    <path xmlns="http://www.w3.org/2000/svg" d="  M21.2063,-0.0807 L21.2063,2.9568 M20.5312,-0.0807 L20.5312,2.9568 M19.6875,-0.0807 L19.6875,2.9568 M18.8438,-0.0807 L18.8438,2.9568 M18.0000,-0.0807 L18.0000,2.9568 M17.3250,-0.0807 L17.3250,2.9568 M16.4812,-0.0807 L16.4812,2.9568 M15.6375,-0.0807 L15.6375,2.9568 M14.7938,-0.0807 L14.7938,2.9568 M13.9500,-0.0807 L13.9500,2.9568 M13.2750,-0.0807 L13.2750,2.9568 M12.4313,-0.0807 L12.4313,2.9568 M11.5875,-0.0807 L11.5875,2.9568 M10.7438,-0.0807 L10.7438,2.9568 M9.9000,-0.0807 L9.9000,2.9568 M9.2250,-0.0807 L9.2250,2.9568 M8.3812,-0.0807 L8.3812,2.9568 M7.5375,-0.0807 L7.5375,2.9568 M6.6938,-0.0807 L6.6938,2.9568 M5.8500,-0.0807 L5.8500,2.9568 M5.1750,-0.0807 L5.1750,2.9568 M4.3312,2.9568 L4.3312,-0.0807" style="stroke-width: 0.0295; stroke: #8275a3; stroke-dasharray: none; stroke-linecap: round; stroke-linejoin: round; fill: none; "/>
    <path xmlns="http://www.w3.org/2000/svg" d="  M3.6562,-0.4182 L0.7875,-0.4182 L0.7875,-3.2869 L3.6562,-3.2869 L3.6562,-0.4182 Z M3.6562,2.9568 L0.7875,2.9568 L0.7875,-0.0807 L3.6562,-0.0807 L3.6562,2.9568 Z M3.6562,6.1631 L0.7875,6.1631 L0.7875,3.2943 L3.6562,3.2943 L3.6562,6.1631 Z M7.1662,6.1631 L4.2975,6.1631 L4.2975,3.2943 L7.1662,3.2943 L7.1662,6.1631 Z M10.6762,6.1631 L7.8075,6.1631 L7.8075,3.2943 L10.6762,3.2943 L10.6762,6.1631 Z M17.6963,6.1631 L14.8275,6.1631 L14.8275,3.2943 L17.6962,3.2943 L17.6962,6.1631 Z M21.2063,6.1631 L18.3375,6.1631 L18.3375,3.2943 L21.2062,3.2943 L21.2062,6.1631 Z M14.1862,6.1631 L11.3175,6.1631 L11.3175,3.2943 L14.1862,3.2943 L14.1862,6.1631 Z M35.3813,2.9568 L32.5125,2.9568 L32.5125,-0.0807 L35.3812,-0.0807 L35.3812,2.9568 Z M38.9250,2.9568 L36.0563,2.9568 L36.0563,-0.0807 L38.9250,-0.0807 L38.9250,2.9568 Z M42.4688,2.9568 L39.6000,2.9568 L39.6000,-0.0807 L42.4688,-0.0807 L42.4688,2.9568 Z M35.3813,-0.4182 L32.5125,-0.4182 L32.5125,-3.2869 L35.3812,-3.2869 L35.3812,-0.4182 Z M38.9250,-0.4182 L36.0563,-0.4182 L36.0563,-3.2869 L38.9250,-3.2869 L38.9250,-0.4182 Z M42.4688,-0.4182 L39.6000,-0.4182 L39.6000,-3.2869 L42.4688,-3.2869 L42.4688,-0.4182 Z M35.3813,6.1631 L32.5125,6.1631 L32.5125,3.2943 L35.3812,3.2943 L35.3812,6.1631 Z M38.9250,6.1631 L36.0563,6.1631 L36.0563,3.2943 L38.9250,3.2943 L38.9250,6.1631 Z M42.4688,6.1631 L39.6000,6.1631 L39.6000,3.2943 L42.4688,3.2943 L42.4688,6.1631 Z M7.1662,-0.4182 L4.2975,-0.4182 L4.2975,-3.2869 L7.1662,-3.2869 L7.1662,-0.4182 Z M10.6762,-0.4182 L7.8075,-0.4182 L7.8075,-3.2869 L10.6762,-3.2869 L10.6762,-0.4182 Z M14.1862,-0.4182 L11.3175,-0.4182 L11.3175,-3.2869 L14.1862,-3.2869 L14.1862,-0.4182 Z M17.6963,-0.4182 L14.8275,-0.4182 L14.8275,-3.2869 L17.6962,-3.2869 L17.6962,-0.4182 Z M21.2063,-0.4182 L18.3375,-0.4182 L18.3375,-3.2869 L21.2062,-3.2869 L21.2062,-0.4182 Z" style="fill-rule: evenodd; fill: #8275a3; "/>
    <text xmlns="http://www.w3.org/2000/svg" x="6.3384" y="11.2243">
      <tspan font-family="Arial" font-size="4.5000" fill="#000000" fill-opacity="1.0000" stroke-opacity="1.0000">
Decru DataFort</tspan>
    </text>
    <!--converted by libvisio2svg-->
  </g>
</svg>
