<svg xmlns="http://www.w3.org/2000/svg" xmlns:xlink="http://www.w3.org/1999/xlink" version="1.1" width="7.2000000000" height="171.3600000000">
  <title><![CDATA[Empty Cabinet]]></title>
  <g transform=" scale(1.000000) ">
    <path xmlns="http://www.w3.org/2000/svg" d="  M45.6166,2.4020 L-3.6000,2.4020 L-0.9591,-1.1992 L43.2158,-1.1992 L45.6166,2.4020 Z" style="fill-rule: evenodd; fill: #b3b3b3; "/>
    <path xmlns="http://www.w3.org/2000/svg" d="  M45.6166,2.4020 L-3.6000,2.4020 L-3.6000,173.8200 L45.6166,173.8200 L45.6166,2.4020 Z" style="fill-rule: evenodd; fill: #7f7f7f; "/>
    <g xmlns="http://www.w3.org/2000/svg" id="Layer1056">
      <path d="  M-0.4789,169.7386 L42.7357,169.7386 L42.7357,157.9746 L-0.4789,157.9746 L-0.4789,169.7386 Z M-0.4789,158.0854 L42.7357,158.0854 L42.7357,146.3215 L-0.4789,146.3215 L-0.4789,158.0854 Z M-0.4789,146.4323 L42.7357,146.4323 L42.7357,134.6683 L-0.4789,134.6683 L-0.4789,146.4323 Z M-0.4789,134.7791 L42.7357,134.7791 L42.7357,123.0151 L-0.4789,123.0151 L-0.4789,134.7791 Z M-0.4789,123.1259 L42.7357,123.1259 L42.7357,111.3619 L-0.4789,111.3619 L-0.4789,123.1259 Z M-0.4789,111.4728 L42.7357,111.4728 L42.7357,99.7088 L-0.4789,99.7088 L-0.4789,111.4728 Z M-0.4789,99.8196 L42.7357,99.8196 L42.7357,88.0556 L-0.4789,88.0556 L-0.4789,99.8196 Z M-0.4789,88.1664 L42.7357,88.1664 L42.7357,76.4024 L-0.4789,76.4024 L-0.4789,88.1664 Z M-0.4789,76.5132 L42.7357,76.5132 L42.7357,64.7493 L-0.4789,64.7493 L-0.4789,76.5132 Z M-0.4789,64.8601 L42.7357,64.8601 L42.7357,53.0961 L-0.4789,53.0961 L-0.4789,64.8601 Z M-0.4789,53.2069 L42.7357,53.2069 L42.7357,41.4429 L-0.4789,41.4429 L-0.4789,53.2069 Z M-0.4789,41.5537 L42.7357,41.5537 L42.7357,29.7897 L-0.4789,29.7897 L-0.4789,41.5537 Z M-0.4789,29.9005 L42.7357,29.9005 L42.7357,18.1366 L-0.4789,18.1366 L-0.4789,29.9005 Z M-0.4789,18.2474 L42.7357,18.2474 L42.7357,6.4834 L-0.4789,6.4834 L-0.4789,18.2474 Z" style="stroke-width: 0.0240; stroke-linecap: round; stroke-linejoin: round; fill-rule: evenodd; fill: #666666; "/>
      <path d="  M-0.4789,169.7386 L42.7357,169.7386 L42.7357,157.9746 L-0.4789,157.9746 L-0.4789,169.7386 Z M-0.4789,158.0854 L42.7357,158.0854 L42.7357,146.3215 L-0.4789,146.3215 L-0.4789,158.0854 Z M-0.4789,146.4323 L42.7357,146.4323 L42.7357,134.6683 L-0.4789,134.6683 L-0.4789,146.4323 Z M-0.4789,134.7791 L42.7357,134.7791 L42.7357,123.0151 L-0.4789,123.0151 L-0.4789,134.7791 Z M-0.4789,123.1259 L42.7357,123.1259 L42.7357,111.3619 L-0.4789,111.3619 L-0.4789,123.1259 Z M-0.4789,111.4728 L42.7357,111.4728 L42.7357,99.7088 L-0.4789,99.7088 L-0.4789,111.4728 Z M-0.4789,99.8196 L42.7357,99.8196 L42.7357,88.0556 L-0.4789,88.0556 L-0.4789,99.8196 Z M-0.4789,88.1664 L42.7357,88.1664 L42.7357,76.4024 L-0.4789,76.4024 L-0.4789,88.1664 Z M-0.4789,76.5132 L42.7357,76.5132 L42.7357,64.7493 L-0.4789,64.7493 L-0.4789,76.5132 Z M-0.4789,64.8601 L42.7357,64.8601 L42.7357,53.0961 L-0.4789,53.0961 L-0.4789,64.8601 Z M-0.4789,53.2069 L42.7357,53.2069 L42.7357,41.4429 L-0.4789,41.4429 L-0.4789,53.2069 Z M-0.4789,41.5537 L42.7357,41.5537 L42.7357,29.7897 L-0.4789,29.7897 L-0.4789,41.5537 Z M-0.4789,29.9005 L42.7357,29.9005 L42.7357,18.1366 L-0.4789,18.1366 L-0.4789,29.9005 Z M-0.4789,18.2474 L42.7357,18.2474 L42.7357,6.4834 L-0.4789,6.4834 L-0.4789,18.2474 Z" style="stroke-width: 0.0240; stroke: #e6e6e6; stroke-dasharray: none; stroke-linecap: round; stroke-linejoin: round; fill: none; "/>
    </g>
    <text xmlns="http://www.w3.org/2000/svg" x="6.0782" y="178.5643">
      <tspan font-family="Arial" font-size="4.5000" fill="#000000" fill-opacity="1.0000" stroke-opacity="1.0000">
Empty Cabinet</tspan>
    </text>
    <!--converted by libvisio2svg-->
  </g>
</svg>
