<svg xmlns="http://www.w3.org/2000/svg" xmlns:xlink="http://www.w3.org/1999/xlink" version="1.1" width="43.2000000000" height="7.2000000000">
  <title><![CDATA[FAS200 Series]]></title>
  <g transform=" scale(1.000000) ">
    <g xmlns="http://www.w3.org/2000/svg" id="Layer1002">
      <path d="  M43.2281,-4.3239 L0.0281,-4.3239 L1.7881,-7.0226 L41.3081,-7.0226 L43.2281,-4.3239 Z" style="stroke-width: 0.0240; stroke-linecap: round; stroke-linejoin: round; fill-rule: evenodd; fill: #988db1; "/>
      <path d="  M43.2281,-4.3239 L0.0281,-4.3239 L1.7881,-7.0226 L41.3081,-7.0226 L43.2281,-4.3239 Z" style="stroke-width: 0.0240; stroke: #ffffff; stroke-dasharray: none; stroke-linecap: round; stroke-linejoin: round; fill: none; "/>
    </g>
    <g xmlns="http://www.w3.org/2000/svg" id="Layer1003">
      <path d="  M43.2354,7.2000 L43.2354,-4.3239 L0.0208,-4.3239 L0.0208,7.2000 L43.2354,7.2000 Z" style="stroke-width: 0.0240; stroke-linecap: round; stroke-linejoin: round; fill-rule: evenodd; fill: #171868; "/>
      <path d="  M43.2354,7.2000 L43.2354,-4.3239 L0.0208,-4.3239 L0.0208,7.2000 L43.2354,7.2000 Z" style="stroke-width: 0.0240; stroke: #ffffff; stroke-dasharray: none; stroke-linecap: round; stroke-linejoin: round; fill: none; "/>
    </g>
    <path xmlns="http://www.w3.org/2000/svg" d="  M21.2058,5.5106 C21.2058,5.8484 21.0368,6.0174 20.6989,6.0174 C3.1287,6.0174 3.1287,6.0174 3.1287,6.0174 C2.9597,6.0174 2.6218,5.8484 2.6218,5.5106 C2.6218,-2.4299 2.6218,-2.4299 2.6218,-2.4299 C2.6218,-2.7677 2.9597,-2.9367 3.1287,-2.9367 C20.6989,-2.9367 20.6989,-2.9367 20.6989,-2.9367 C21.0368,-2.9367 21.2058,-2.7677 21.2058,-2.4299 C21.2058,5.5106 21.2058,5.5106 21.2058,5.5106 Z M40.6344,5.5106 C40.6344,5.8484 40.4655,6.0174 40.1276,6.0174 C22.5573,6.0174 22.5573,6.0174 22.5573,6.0174 C22.3884,6.0174 22.0505,5.8484 22.0505,5.5106 C22.0505,-2.4299 22.0505,-2.4299 22.0505,-2.4299 C22.0505,-2.7677 22.3884,-2.9367 22.5573,-2.9367 C40.1276,-2.9367 40.1276,-2.9367 40.1276,-2.9367 C40.4655,-2.9367 40.6344,-2.7677 40.6344,-2.4299 C40.6344,5.5106 40.6344,5.5106 40.6344,5.5106 Z" style="fill-rule: evenodd; fill: #ffffff; "/>
    <path xmlns="http://www.w3.org/2000/svg" d="  M25.4982,5.4261 L22.6261,5.4261 L22.6261,-2.3454 L25.4982,-2.3454 L25.4982,5.4261 Z M29.1383,5.4261 L26.2663,5.4261 L26.2663,-2.3454 L29.1383,-2.3454 L29.1383,5.4261 Z M32.7785,5.4261 L29.9064,5.4261 L29.9064,-2.3454 L32.7785,-2.3454 L32.7785,5.4261 Z M36.3342,5.4261 L33.6311,5.4261 L33.6311,-2.3454 L36.3342,-2.3454 L36.3342,5.4261 Z M40.0588,5.4261 L37.1867,5.4261 L37.1867,-2.3454 L40.0588,-2.3454 L40.0588,5.4261 Z M6.0695,5.4261 L3.1974,5.4261 L3.1974,-2.3454 L6.0695,-2.3454 L6.0695,5.4261 Z M9.7097,5.4261 L6.8376,5.4261 L6.8376,-2.3454 L9.7097,-2.3454 L9.7097,5.4261 Z M13.3498,5.4261 L10.4778,5.4261 L10.4778,-2.3454 L13.3498,-2.3454 L13.3498,5.4261 Z M16.9055,5.4261 L14.2024,5.4261 L14.2024,-2.3454 L16.9055,-2.3454 L16.9055,5.4261 Z M20.6301,5.4261 L17.7581,5.4261 L17.7581,-2.3454 L20.6301,-2.3454 L20.6301,5.4261 Z" style="fill-rule: evenodd; fill: #171868; "/>
    <path xmlns="http://www.w3.org/2000/svg" d="  M0.1494,-0.6738 C0.9941,-0.6738 1.8388,-1.1806 1.8388,-1.8564 C1.8388,-2.5322 0.9941,-3.0390 0.1494,-3.0390 C0.1494,-0.6738 0.1494,-0.6738 0.1494,-0.6738 Z M0.1494,5.9151 C0.9941,5.9151 1.8388,5.4083 1.8388,4.7325 C1.8388,3.8878 0.9941,3.3809 0.1494,3.3809 C0.1494,5.9151 0.1494,5.9151 0.1494,5.9151 Z M43.1069,-0.6738 C42.0932,-0.6738 41.4174,-1.1806 41.4174,-1.8564 C41.4174,-2.5322 42.0932,-3.0390 43.1069,-3.0390 C43.1069,-0.6738 43.1069,-0.6738 43.1069,-0.6738 Z M43.1069,5.9151 C42.0932,5.9151 41.4174,5.4083 41.4174,4.7325 C41.4174,3.8878 42.0932,3.3809 43.1069,3.3809 C43.1069,5.9151 43.1069,5.9151 43.1069,5.9151 Z" style="fill-rule: evenodd; fill: #988db1; "/>
    <text xmlns="http://www.w3.org/2000/svg" x="7.6656" y="12.5743">
      <tspan font-family="Arial" font-size="4.5000" fill="#000000" fill-opacity="1.0000" stroke-opacity="1.0000">
FAS200 Series</tspan>
    </text>
    <!--converted by libvisio2svg-->
  </g>
</svg>
