<svg xmlns="http://www.w3.org/2000/svg" xmlns:xlink="http://www.w3.org/1999/xlink" version="1.1" width="43.2000000000" height="7.2000000000">
  <title><![CDATA[FAS200 rackmount]]></title>
  <g transform=" scale(1.000000) ">
    <g xmlns="http://www.w3.org/2000/svg" id="Layer1063">
      <path d="  M43.3029,7.2000 L43.3029,-4.3239 L0.0883,-4.3239 L0.0883,7.2000 L43.3029,7.2000 Z" style="stroke-width: 0.0240; stroke-linecap: round; stroke-linejoin: round; fill-rule: evenodd; fill: #171868; "/>
      <path d="  M43.3029,7.2000 L43.3029,-4.3239 L0.0883,-4.3239 L0.0883,7.2000 L43.3029,7.2000 Z" style="stroke-width: 0.0240; stroke: #ffffff; stroke-dasharray: none; stroke-linecap: round; stroke-linejoin: round; fill: none; "/>
    </g>
    <path xmlns="http://www.w3.org/2000/svg" d="  M21.2733,5.5106 C21.2733,5.8484 21.1043,6.0174 20.7664,6.0174 C3.1962,6.0174 3.1962,6.0174 3.1962,6.0174 C3.0272,6.0174 2.6893,5.8484 2.6893,5.5106 C2.6893,-2.4299 2.6893,-2.4299 2.6893,-2.4299 C2.6893,-2.7677 3.0272,-2.9367 3.1962,-2.9367 C20.7664,-2.9367 20.7664,-2.9367 20.7664,-2.9367 C21.1043,-2.9367 21.2733,-2.7677 21.2733,-2.4299 C21.2733,5.5106 21.2733,5.5106 21.2733,5.5106 Z M40.7019,5.5106 C40.7019,5.8484 40.5330,6.0174 40.1951,6.0174 C22.6248,6.0174 22.6248,6.0174 22.6248,6.0174 C22.4559,6.0174 22.1180,5.8484 22.1180,5.5106 C22.1180,-2.4299 22.1180,-2.4299 22.1180,-2.4299 C22.1180,-2.7677 22.4559,-2.9367 22.6248,-2.9367 C40.1951,-2.9367 40.1951,-2.9367 40.1951,-2.9367 C40.5330,-2.9367 40.7019,-2.7677 40.7019,-2.4299 C40.7019,5.5106 40.7019,5.5106 40.7019,5.5106 Z" style="fill-rule: evenodd; fill: #ffffff; "/>
    <path xmlns="http://www.w3.org/2000/svg" d="  M25.5657,5.4261 L22.6936,5.4261 L22.6936,-2.3454 L25.5657,-2.3454 L25.5657,5.4261 Z M29.2058,5.4261 L26.3338,5.4261 L26.3338,-2.3454 L29.2058,-2.3454 L29.2058,5.4261 Z M32.8460,5.4261 L29.9739,5.4261 L29.9739,-2.3454 L32.8460,-2.3454 L32.8460,5.4261 Z M36.4017,5.4261 L33.6986,5.4261 L33.6986,-2.3454 L36.4017,-2.3454 L36.4017,5.4261 Z M40.1263,5.4261 L37.2542,5.4261 L37.2542,-2.3454 L40.1263,-2.3454 L40.1263,5.4261 Z M6.1370,5.4261 L3.2649,5.4261 L3.2649,-2.3454 L6.1370,-2.3454 L6.1370,5.4261 Z M9.7772,5.4261 L6.9051,5.4261 L6.9051,-2.3454 L9.7772,-2.3454 L9.7772,5.4261 Z M13.4173,5.4261 L10.5453,5.4261 L10.5453,-2.3454 L13.4173,-2.3454 L13.4173,5.4261 Z M16.9730,5.4261 L14.2699,5.4261 L14.2699,-2.3454 L16.9730,-2.3454 L16.9730,5.4261 Z M20.6976,5.4261 L17.8256,5.4261 L17.8256,-2.3454 L20.6976,-2.3454 L20.6976,5.4261 Z" style="fill-rule: evenodd; fill: #171868; "/>
    <path xmlns="http://www.w3.org/2000/svg" d="  M0.2169,-0.6738 C1.0616,-0.6738 1.9063,-1.1806 1.9063,-1.8564 C1.9063,-2.5322 1.0616,-3.0390 0.2169,-3.0390 C0.2169,-0.6738 0.2169,-0.6738 0.2169,-0.6738 Z M0.2169,5.9151 C1.0616,5.9151 1.9063,5.4083 1.9063,4.7325 C1.9063,3.8878 1.0616,3.3809 0.2169,3.3809 C0.2169,5.9151 0.2169,5.9151 0.2169,5.9151 Z M43.1744,-0.6738 C42.1607,-0.6738 41.4849,-1.1806 41.4849,-1.8564 C41.4849,-2.5322 42.1607,-3.0390 43.1744,-3.0390 C43.1744,-0.6738 43.1744,-0.6738 43.1744,-0.6738 Z M43.1744,5.9151 C42.1607,5.9151 41.4849,5.4083 41.4849,4.7325 C41.4849,3.8878 42.1607,3.3809 43.1744,3.3809 C43.1744,5.9151 43.1744,5.9151 43.1744,5.9151 Z" style="fill-rule: evenodd; fill: #988db1; "/>
    <!--converted by libvisio2svg-->
  </g>
</svg>
