<svg xmlns="http://www.w3.org/2000/svg" xmlns:xlink="http://www.w3.org/1999/xlink" version="1.1" width="7.2000000000" height="171.3600000000">
  <title><![CDATA[FAS3000 Series racked]]></title>
  <g transform=" scale(1.000000) ">
    <path xmlns="http://www.w3.org/2000/svg" d="  M47.4166,2.3420 L-1.8000,2.3420 L0.8409,-1.2592 L45.0158,-1.2592 L47.4166,2.3420 Z" style="fill-rule: evenodd; fill: #b3b3b3; "/>
    <path xmlns="http://www.w3.org/2000/svg" d="  M47.4166,2.3420 L-1.8000,2.3420 L-1.8000,173.7600 L47.4166,173.7600 L47.4166,2.3420 Z" style="fill-rule: evenodd; fill: #7f7f7f; "/>
    <g xmlns="http://www.w3.org/2000/svg" id="Layer1039">
      <path d="  M44.5357,6.5434 L1.3211,6.5434 L1.3211,18.3074 L44.5357,18.3074 L44.5357,6.5434 Z M44.5357,18.3074 L1.3211,18.3074 L1.3211,29.8313 L44.5357,29.8313 L44.5357,18.3074 Z M44.5357,29.8313 L1.3211,29.8313 L1.3211,41.3552 L44.5357,41.3552 L44.5357,29.8313 Z M44.5357,41.3552 L1.3211,41.3552 L1.3211,53.1192 L44.5357,53.1192 L44.5357,41.3552 Z M44.5357,53.1192 L1.3211,53.1192 L1.3211,64.6431 L44.5357,64.6431 L44.5357,53.1192 Z M44.5357,64.6431 L1.3211,64.6431 L1.3211,76.4071 L44.5357,76.4071 L44.5357,64.6431 Z" style="stroke-width: 0.0240; stroke-linecap: round; stroke-linejoin: round; fill-rule: evenodd; fill: #000000; "/>
      <path d="  M44.5357,6.5434 L1.3211,6.5434 L1.3211,18.3074 L44.5357,18.3074 L44.5357,6.5434 Z M44.5357,18.3074 L1.3211,18.3074 L1.3211,29.8313 L44.5357,29.8313 L44.5357,18.3074 Z M44.5357,29.8313 L1.3211,29.8313 L1.3211,41.3552 L44.5357,41.3552 L44.5357,29.8313 Z M44.5357,41.3552 L1.3211,41.3552 L1.3211,53.1192 L44.5357,53.1192 L44.5357,41.3552 Z M44.5357,53.1192 L1.3211,53.1192 L1.3211,64.6431 L44.5357,64.6431 L44.5357,53.1192 Z M44.5357,64.6431 L1.3211,64.6431 L1.3211,76.4071 L44.5357,76.4071 L44.5357,64.6431 Z" style="stroke-width: 0.0240; stroke: #ffffff; stroke-dasharray: none; stroke-linecap: round; stroke-linejoin: round; fill: none; "/>
    </g>
    <g xmlns="http://www.w3.org/2000/svg" id="Layer1040">
      <path d="  M44.5357,88.1710 L1.3211,88.1710 L1.3211,76.6472 L44.5357,76.6472 L44.5357,88.1710 Z M44.5357,99.6949 L1.3211,99.6949 L1.3211,88.4111 L44.5357,88.4111 L44.5357,99.6949 Z M44.5357,99.9350 L1.3211,99.9350 L1.3211,111.4589 L44.5357,111.4589 L44.5357,99.9350 Z M44.5357,111.4589 L1.3211,111.4589 L1.3211,122.9828 L44.5357,122.9828 L44.5357,111.4589 Z M44.5357,122.9828 L1.3211,122.9828 L1.3211,134.7468 L44.5357,134.7468 L44.5357,122.9828 Z M44.5357,134.7468 L1.3211,134.7468 L1.3211,146.2707 L44.5357,146.2707 L44.5357,134.7468 Z M44.5357,146.2707 L1.3211,146.2707 L1.3211,158.0347 L44.5357,158.0347 L44.5357,146.2707 Z M44.5357,158.0347 L1.3211,158.0347 L1.3211,169.5586 L44.5357,169.5586 L44.5357,158.0347 Z" style="stroke-width: 0.0240; stroke-linecap: round; stroke-linejoin: round; fill-rule: evenodd; fill: #171868; "/>
      <path d="  M44.5357,88.1710 L1.3211,88.1710 L1.3211,76.6472 L44.5357,76.6472 L44.5357,88.1710 Z M44.5357,99.6949 L1.3211,99.6949 L1.3211,88.4111 L44.5357,88.4111 L44.5357,99.6949 Z M44.5357,99.9350 L1.3211,99.9350 L1.3211,111.4589 L44.5357,111.4589 L44.5357,99.9350 Z M44.5357,111.4589 L1.3211,111.4589 L1.3211,122.9828 L44.5357,122.9828 L44.5357,111.4589 Z M44.5357,122.9828 L1.3211,122.9828 L1.3211,134.7468 L44.5357,134.7468 L44.5357,122.9828 Z M44.5357,134.7468 L1.3211,134.7468 L1.3211,146.2707 L44.5357,146.2707 L44.5357,134.7468 Z M44.5357,146.2707 L1.3211,146.2707 L1.3211,158.0347 L44.5357,158.0347 L44.5357,146.2707 Z M44.5357,158.0347 L1.3211,158.0347 L1.3211,169.5586 L44.5357,169.5586 L44.5357,158.0347 Z" style="stroke-width: 0.0240; stroke: #ffffff; stroke-dasharray: none; stroke-linecap: round; stroke-linejoin: round; fill: none; "/>
    </g>
    <path xmlns="http://www.w3.org/2000/svg" d="  M3.2417,147.9513 C3.2417,149.3918 3.2417,149.3918 3.2417,149.3918 C4.2020,150.8322 4.6822,151.5525 4.6822,153.7132 C4.6822,153.9533 4.6822,154.1934 4.6822,154.4335 C6.1227,154.4335 6.1227,154.4335 6.1227,154.4335 C6.1227,147.9513 6.1227,147.9513 6.1227,147.9513 C3.2417,147.9513 3.2417,147.9513 3.2417,147.9513 Z M7.0830,147.9513 C7.0830,149.3918 7.0830,149.3918 7.0830,149.3918 C7.8032,150.8322 8.2834,151.5525 8.2834,153.7132 C8.2834,153.9533 8.2834,154.1934 8.2834,154.4335 C9.7239,154.4335 9.7239,154.4335 9.7239,154.4335 C9.7239,147.9513 9.7239,147.9513 9.7239,147.9513 C7.0830,147.9513 7.0830,147.9513 7.0830,147.9513 Z M10.6842,147.9513 C10.6842,149.3918 10.6842,149.3918 10.6842,149.3918 C11.4045,150.8322 11.8846,151.5525 11.8846,153.7132 C11.8846,153.9533 11.8846,154.1934 11.8846,154.4335 C13.3251,154.4335 13.3251,154.4335 13.3251,154.4335 C13.3251,147.9513 13.3251,147.9513 13.3251,147.9513 C10.6842,147.9513 10.6842,147.9513 10.6842,147.9513 Z M14.2854,147.9513 C14.2854,149.3918 14.2854,149.3918 14.2854,149.3918 C15.0057,150.8322 15.7259,151.5525 15.7259,153.7132 C15.7259,153.9533 15.4858,154.1934 15.4858,154.4335 C16.9263,154.4335 16.9263,154.4335 16.9263,154.4335 C16.9263,147.9513 16.9263,147.9513 16.9263,147.9513 C14.2854,147.9513 14.2854,147.9513 14.2854,147.9513 Z M17.8867,147.9513 C17.8867,149.3918 17.8867,149.3918 17.8867,149.3918 C18.6069,150.8322 19.3271,151.5525 19.3271,153.7132 C19.3271,153.9533 19.3271,154.1934 19.3271,154.4335 C20.5276,154.4335 20.5276,154.4335 20.5276,154.4335 C20.5276,147.9513 20.5276,147.9513 20.5276,147.9513 C17.8867,147.9513 17.8867,147.9513 17.8867,147.9513 Z M21.4879,147.9513 C21.4879,149.3918 21.4879,149.3918 21.4879,149.3918 C22.4482,150.8322 22.9284,151.5525 22.9284,153.7132 C22.9284,153.9533 22.9284,154.1934 22.9284,154.4335 C24.1288,154.4335 24.1288,154.4335 24.1288,154.4335 C24.1288,147.9513 24.1288,147.9513 24.1288,147.9513 C21.4879,147.9513 21.4879,147.9513 21.4879,147.9513 Z M25.0891,147.9513 C25.0891,149.3918 25.0891,149.3918 25.0891,149.3918 C26.0494,150.8322 26.5296,151.5525 26.5296,153.7132 C26.5296,153.9533 26.5296,154.1934 26.5296,154.4335 C27.7300,154.4335 27.7300,154.4335 27.7300,154.4335 C27.7300,147.9513 27.7300,147.9513 27.7300,147.9513 C25.0891,147.9513 25.0891,147.9513 25.0891,147.9513 Z M28.9304,147.9513 C28.9304,149.3918 28.9304,149.3918 28.9304,149.3918 C29.6506,150.8322 30.1308,151.5525 30.1308,153.7132 C30.1308,153.9533 30.1308,154.1934 30.1308,154.4335 C31.5713,154.4335 31.5713,154.4335 31.5713,154.4335 C31.5713,147.9513 31.5713,147.9513 31.5713,147.9513 C28.9304,147.9513 28.9304,147.9513 28.9304,147.9513 Z M32.5316,147.9513 C32.5316,149.3918 32.5316,149.3918 32.5316,149.3918 C33.2519,150.8322 33.7320,151.5525 33.7320,153.7132 C33.7320,153.9533 33.7320,154.1934 33.7320,154.4335 C35.1725,154.4335 35.1725,154.4335 35.1725,154.4335 C35.1725,147.9513 35.1725,147.9513 35.1725,147.9513 C32.5316,147.9513 32.5316,147.9513 32.5316,147.9513 Z M36.1328,147.9513 C36.1328,149.3918 36.1328,149.3918 36.1328,149.3918 C36.8531,150.8322 37.3332,151.5525 37.3332,153.7132 C37.3332,153.9533 37.3332,154.1934 37.3332,154.4335 C38.7737,154.4335 38.7737,154.4335 38.7737,154.4335 C38.7737,147.9513 38.7737,147.9513 38.7737,147.9513 C36.1328,147.9513 36.1328,147.9513 36.1328,147.9513 Z M39.7340,147.9513 C39.7340,149.3918 39.7340,149.3918 39.7340,149.3918 C40.4543,150.8322 41.1745,151.5525 41.1745,153.7132 C41.1745,153.9533 41.1745,154.1934 41.1745,154.4335 C42.3749,154.4335 42.3749,154.4335 42.3749,154.4335 C42.3749,147.9513 42.3749,147.9513 42.3749,147.9513 C39.7340,147.9513 39.7340,147.9513 39.7340,147.9513 Z M3.2417,159.7152 C3.2417,161.1557 3.2417,161.1557 3.2417,161.1557 C4.2020,162.3561 4.6822,163.0764 4.6822,165.4772 C4.6822,165.7173 4.6822,165.7173 4.6822,165.9574 C6.1227,165.9574 6.1227,165.9574 6.1227,165.9574 C6.1227,159.7152 6.1227,159.7152 6.1227,159.7152 C3.2417,159.7152 3.2417,159.7152 3.2417,159.7152 Z M7.0830,159.7152 C7.0830,161.1557 7.0830,161.1557 7.0830,161.1557 C7.8032,162.3561 8.2834,163.0764 8.2834,165.4772 C8.2834,165.7173 8.2834,165.7173 8.2834,165.9574 C9.7239,165.9574 9.7239,165.9574 9.7239,165.9574 C9.7239,159.7152 9.7239,159.7152 9.7239,159.7152 C7.0830,159.7152 7.0830,159.7152 7.0830,159.7152 Z M10.6842,159.7152 C10.6842,161.1557 10.6842,161.1557 10.6842,161.1557 C11.4045,162.3561 11.8846,163.0764 11.8846,165.4772 C11.8846,165.7173 11.8846,165.7173 11.8846,165.9574 C13.3251,165.9574 13.3251,165.9574 13.3251,165.9574 C13.3251,159.7152 13.3251,159.7152 13.3251,159.7152 C10.6842,159.7152 10.6842,159.7152 10.6842,159.7152 Z M14.2854,159.7152 C14.2854,161.1557 14.2854,161.1557 14.2854,161.1557 C15.0057,162.3561 15.7259,163.0764 15.7259,165.4772 C15.7259,165.7173 15.4858,165.7173 15.4858,165.9574 C16.9263,165.9574 16.9263,165.9574 16.9263,165.9574 C16.9263,159.7152 16.9263,159.7152 16.9263,159.7152 C14.2854,159.7152 14.2854,159.7152 14.2854,159.7152 Z M17.8867,159.7152 C17.8867,161.1557 17.8867,161.1557 17.8867,161.1557 C18.6069,162.3561 19.3271,163.0764 19.3271,165.4772 C19.3271,165.7173 19.3271,165.7173 19.3271,165.9574 C20.5276,165.9574 20.5276,165.9574 20.5276,165.9574 C20.5276,159.7152 20.5276,159.7152 20.5276,159.7152 C17.8867,159.7152 17.8867,159.7152 17.8867,159.7152 Z M21.4879,159.7152 C21.4879,161.1557 21.4879,161.1557 21.4879,161.1557 C22.4482,162.3561 22.9284,163.0764 22.9284,165.4772 C22.9284,165.7173 22.9284,165.7173 22.9284,165.9574 C24.1288,165.9574 24.1288,165.9574 24.1288,165.9574 C24.1288,159.7152 24.1288,159.7152 24.1288,159.7152 C21.4879,159.7152 21.4879,159.7152 21.4879,159.7152 Z M25.0891,159.7152 C25.0891,161.1557 25.0891,161.1557 25.0891,161.1557 C26.0494,162.3561 26.5296,163.0764 26.5296,165.4772 C26.5296,165.7173 26.5296,165.7173 26.5296,165.9574 C27.7300,165.9574 27.7300,165.9574 27.7300,165.9574 C27.7300,159.7152 27.7300,159.7152 27.7300,159.7152 C25.0891,159.7152 25.0891,159.7152 25.0891,159.7152 Z M28.9304,159.7152 C28.9304,161.1557 28.9304,161.1557 28.9304,161.1557 C29.6506,162.3561 30.1308,163.0764 30.1308,165.4772 C30.1308,165.7173 30.1308,165.7173 30.1308,165.9574 C31.5713,165.9574 31.5713,165.9574 31.5713,165.9574 C31.5713,159.7152 31.5713,159.7152 31.5713,159.7152 C28.9304,159.7152 28.9304,159.7152 28.9304,159.7152 Z M32.5316,159.7152 C32.5316,161.1557 32.5316,161.1557 32.5316,161.1557 C33.2519,162.3561 33.7320,163.0764 33.7320,165.4772 C33.7320,165.7173 33.7320,165.7173 33.7320,165.9574 C35.1725,165.9574 35.1725,165.9574 35.1725,165.9574 C35.1725,159.7152 35.1725,159.7152 35.1725,159.7152 C32.5316,159.7152 32.5316,159.7152 32.5316,159.7152 Z M36.1328,159.7152 C36.1328,161.1557 36.1328,161.1557 36.1328,161.1557 C36.8531,162.3561 37.3332,163.0764 37.3332,165.4772 C37.3332,165.7173 37.3332,165.7173 37.3332,165.9574 C38.7737,165.9574 38.7737,165.9574 38.7737,165.9574 C38.7737,159.7152 38.7737,159.7152 38.7737,159.7152 C36.1328,159.7152 36.1328,159.7152 36.1328,159.7152 Z M39.7340,159.7152 C39.7340,161.1557 39.7340,161.1557 39.7340,161.1557 C40.4543,162.3561 41.1745,163.0764 41.1745,165.4772 C41.1745,165.7173 41.1745,165.7173 41.1745,165.9574 C42.3749,165.9574 42.3749,165.9574 42.3749,165.9574 C42.3749,159.7152 42.3749,159.7152 42.3749,159.7152 C39.7340,159.7152 39.7340,159.7152 39.7340,159.7152 Z M17.8867,124.6634 C17.8867,126.1039 17.8867,126.1039 17.8867,126.1039 C18.6069,127.5444 19.3271,128.2646 19.3271,130.4253 C19.3271,130.6654 19.3271,130.9055 19.3271,131.1456 C20.5276,131.1456 20.5276,131.1456 20.5276,131.1456 C20.5276,124.6634 20.5276,124.6634 20.5276,124.6634 C17.8867,124.6634 17.8867,124.6634 17.8867,124.6634 Z M21.4879,124.6634 C21.4879,126.1039 21.4879,126.1039 21.4879,126.1039 C22.4482,127.5444 22.9284,128.2646 22.9284,130.4253 C22.9284,130.6654 22.9284,130.9055 22.9284,131.1456 C24.1288,131.1456 24.1288,131.1456 24.1288,131.1456 C24.1288,124.6634 24.1288,124.6634 24.1288,124.6634 C21.4879,124.6634 21.4879,124.6634 21.4879,124.6634 Z M25.0891,124.6634 C25.0891,126.1039 25.0891,126.1039 25.0891,126.1039 C26.0494,127.5444 26.5296,128.2646 26.5296,130.4253 C26.5296,130.6654 26.5296,130.9055 26.5296,131.1456 C27.7300,131.1456 27.7300,131.1456 27.7300,131.1456 C27.7300,124.6634 27.7300,124.6634 27.7300,124.6634 C25.0891,124.6634 25.0891,124.6634 25.0891,124.6634 Z M28.9304,124.6634 C28.9304,126.1039 28.9304,126.1039 28.9304,126.1039 C29.6506,127.5444 30.1308,128.2646 30.1308,130.4253 C30.1308,130.6654 30.1308,130.9055 30.1308,131.1456 C31.5713,131.1456 31.5713,131.1456 31.5713,131.1456 C31.5713,124.6634 31.5713,124.6634 31.5713,124.6634 C28.9304,124.6634 28.9304,124.6634 28.9304,124.6634 Z M32.5316,124.6634 C32.5316,126.1039 32.5316,126.1039 32.5316,126.1039 C33.2519,127.5444 33.7320,128.2646 33.7320,130.4253 C33.7320,130.6654 33.7320,130.9055 33.7320,131.1456 C35.1725,131.1456 35.1725,131.1456 35.1725,131.1456 C35.1725,124.6634 35.1725,124.6634 35.1725,124.6634 C32.5316,124.6634 32.5316,124.6634 32.5316,124.6634 Z M36.1328,124.6634 C36.1328,126.1039 36.1328,126.1039 36.1328,126.1039 C36.8531,127.5444 37.3332,128.2646 37.3332,130.4253 C37.3332,130.6654 37.3332,130.9055 37.3332,131.1456 C38.7737,131.1456 38.7737,131.1456 38.7737,131.1456 C38.7737,124.6634 38.7737,124.6634 38.7737,124.6634 C36.1328,124.6634 36.1328,124.6634 36.1328,124.6634 Z M39.7340,124.6634 C39.7340,126.1039 39.7340,126.1039 39.7340,126.1039 C40.4543,127.5444 41.1745,128.2646 41.1745,130.4253 C41.1745,130.6654 41.1745,130.9055 41.1745,131.1456 C42.3749,131.1456 42.3749,131.1456 42.3749,131.1456 C42.3749,124.6634 42.3749,124.6634 42.3749,124.6634 C39.7340,124.6634 39.7340,124.6634 39.7340,124.6634 Z M3.2417,124.6634 C3.2417,126.1039 3.2417,126.1039 3.2417,126.1039 C4.2020,127.5444 4.6822,128.2646 4.6822,130.4253 C4.6822,130.6654 4.6822,130.9055 4.6822,131.1456 C6.1227,131.1456 6.1227,131.1456 6.1227,131.1456 C6.1227,124.6634 6.1227,124.6634 6.1227,124.6634 C3.2417,124.6634 3.2417,124.6634 3.2417,124.6634 Z M7.0830,124.6634 C7.0830,126.1039 7.0830,126.1039 7.0830,126.1039 C7.8032,127.5444 8.2834,128.2646 8.2834,130.4253 C8.2834,130.6654 8.2834,130.9055 8.2834,131.1456 C9.7239,131.1456 9.7239,131.1456 9.7239,131.1456 C9.7239,124.6634 9.7239,124.6634 9.7239,124.6634 C7.0830,124.6634 7.0830,124.6634 7.0830,124.6634 Z M10.6842,124.6634 C10.6842,126.1039 10.6842,126.1039 10.6842,126.1039 C11.4045,127.5444 11.8846,128.2646 11.8846,130.4253 C11.8846,130.6654 11.8846,130.9055 11.8846,131.1456 C13.3251,131.1456 13.3251,131.1456 13.3251,131.1456 C13.3251,124.6634 13.3251,124.6634 13.3251,124.6634 C10.6842,124.6634 10.6842,124.6634 10.6842,124.6634 Z M14.2854,124.6634 C14.2854,126.1039 14.2854,126.1039 14.2854,126.1039 C15.0057,127.5444 15.7259,128.2646 15.7259,130.4253 C15.7259,130.6654 15.4858,130.9055 15.4858,131.1456 C16.9263,131.1456 16.9263,131.1456 16.9263,131.1456 C16.9263,124.6634 16.9263,124.6634 16.9263,124.6634 C14.2854,124.6634 14.2854,124.6634 14.2854,124.6634 Z M3.2417,136.4274 C3.2417,137.8679 3.2417,137.8679 3.2417,137.8679 C4.2020,139.0683 4.6822,139.7885 4.6822,142.1893 C4.6822,142.4294 4.6822,142.4294 4.6822,142.6695 C6.1227,142.6695 6.1227,142.6695 6.1227,142.6695 C6.1227,136.4274 6.1227,136.4274 6.1227,136.4274 C3.2417,136.4274 3.2417,136.4274 3.2417,136.4274 Z M7.0830,136.4274 C7.0830,137.8679 7.0830,137.8679 7.0830,137.8679 C7.8032,139.0683 8.2834,139.7885 8.2834,142.1893 C8.2834,142.4294 8.2834,142.4294 8.2834,142.6695 C9.7239,142.6695 9.7239,142.6695 9.7239,142.6695 C9.7239,136.4274 9.7239,136.4274 9.7239,136.4274 C7.0830,136.4274 7.0830,136.4274 7.0830,136.4274 Z M10.6842,136.4274 C10.6842,137.8679 10.6842,137.8679 10.6842,137.8679 C11.4045,139.0683 11.8846,139.7885 11.8846,142.1893 C11.8846,142.4294 11.8846,142.4294 11.8846,142.6695 C13.3251,142.6695 13.3251,142.6695 13.3251,142.6695 C13.3251,136.4274 13.3251,136.4274 13.3251,136.4274 C10.6842,136.4274 10.6842,136.4274 10.6842,136.4274 Z M14.2854,136.4274 C14.2854,137.8679 14.2854,137.8679 14.2854,137.8679 C15.0057,139.0683 15.7259,139.7885 15.7259,142.1893 C15.7259,142.4294 15.4858,142.4294 15.4858,142.6695 C16.9263,142.6695 16.9263,142.6695 16.9263,142.6695 C16.9263,136.4274 16.9263,136.4274 16.9263,136.4274 C14.2854,136.4274 14.2854,136.4274 14.2854,136.4274 Z M17.8867,136.4274 C17.8867,137.8679 17.8867,137.8679 17.8867,137.8679 C18.6069,139.0683 19.3271,139.7885 19.3271,142.1893 C19.3271,142.4294 19.3271,142.4294 19.3271,142.6695 C20.5276,142.6695 20.5276,142.6695 20.5276,142.6695 C20.5276,136.4274 20.5276,136.4274 20.5276,136.4274 C17.8867,136.4274 17.8867,136.4274 17.8867,136.4274 Z M21.4879,136.4274 C21.4879,137.8679 21.4879,137.8679 21.4879,137.8679 C22.4482,139.0683 22.9284,139.7885 22.9284,142.1893 C22.9284,142.4294 22.9284,142.4294 22.9284,142.6695 C24.1288,142.6695 24.1288,142.6695 24.1288,142.6695 C24.1288,136.4274 24.1288,136.4274 24.1288,136.4274 C21.4879,136.4274 21.4879,136.4274 21.4879,136.4274 Z M25.0891,136.4274 C25.0891,137.8679 25.0891,137.8679 25.0891,137.8679 C26.0494,139.0683 26.5296,139.7885 26.5296,142.1893 C26.5296,142.4294 26.5296,142.4294 26.5296,142.6695 C27.7300,142.6695 27.7300,142.6695 27.7300,142.6695 C27.7300,136.4274 27.7300,136.4274 27.7300,136.4274 C25.0891,136.4274 25.0891,136.4274 25.0891,136.4274 Z M28.9304,136.4274 C28.9304,137.8679 28.9304,137.8679 28.9304,137.8679 C29.6506,139.0683 30.1308,139.7885 30.1308,142.1893 C30.1308,142.4294 30.1308,142.4294 30.1308,142.6695 C31.5713,142.6695 31.5713,142.6695 31.5713,142.6695 C31.5713,136.4274 31.5713,136.4274 31.5713,136.4274 C28.9304,136.4274 28.9304,136.4274 28.9304,136.4274 Z M32.5316,136.4274 C32.5316,137.8679 32.5316,137.8679 32.5316,137.8679 C33.2519,139.0683 33.7320,139.7885 33.7320,142.1893 C33.7320,142.4294 33.7320,142.4294 33.7320,142.6695 C35.1725,142.6695 35.1725,142.6695 35.1725,142.6695 C35.1725,136.4274 35.1725,136.4274 35.1725,136.4274 C32.5316,136.4274 32.5316,136.4274 32.5316,136.4274 Z M36.1328,136.4274 C36.1328,137.8679 36.1328,137.8679 36.1328,137.8679 C36.8531,139.0683 37.3332,139.7885 37.3332,142.1893 C37.3332,142.4294 37.3332,142.4294 37.3332,142.6695 C38.7737,142.6695 38.7737,142.6695 38.7737,142.6695 C38.7737,136.4274 38.7737,136.4274 38.7737,136.4274 C36.1328,136.4274 36.1328,136.4274 36.1328,136.4274 Z M39.7340,136.4274 C39.7340,137.8679 39.7340,137.8679 39.7340,137.8679 C40.4543,139.0683 41.1745,139.7885 41.1745,142.1893 C41.1745,142.4294 41.1745,142.4294 41.1745,142.6695 C42.3749,142.6695 42.3749,142.6695 42.3749,142.6695 C42.3749,136.4274 42.3749,136.4274 42.3749,136.4274 C39.7340,136.4274 39.7340,136.4274 39.7340,136.4274 Z M17.8867,101.3755 C17.8867,102.8160 17.8867,102.8160 17.8867,102.8160 C18.6069,104.2565 19.3271,104.9767 19.3271,107.3775 C19.3271,107.3775 19.3271,107.6176 19.3271,107.8577 C20.5276,107.8577 20.5276,107.8577 20.5276,107.8577 C20.5276,101.3755 20.5276,101.3755 20.5276,101.3755 C17.8867,101.3755 17.8867,101.3755 17.8867,101.3755 Z M21.4879,101.3755 C21.4879,102.8160 21.4879,102.8160 21.4879,102.8160 C22.4482,104.2565 22.9284,104.9767 22.9284,107.3775 C22.9284,107.3775 22.9284,107.6176 22.9284,107.8577 C24.1288,107.8577 24.1288,107.8577 24.1288,107.8577 C24.1288,101.3755 24.1288,101.3755 24.1288,101.3755 C21.4879,101.3755 21.4879,101.3755 21.4879,101.3755 Z M25.0891,101.3755 C25.0891,102.8160 25.0891,102.8160 25.0891,102.8160 C26.0494,104.2565 26.5296,104.9767 26.5296,107.3775 C26.5296,107.3775 26.5296,107.6176 26.5296,107.8577 C27.7300,107.8577 27.7300,107.8577 27.7300,107.8577 C27.7300,101.3755 27.7300,101.3755 27.7300,101.3755 C25.0891,101.3755 25.0891,101.3755 25.0891,101.3755 Z M28.9304,101.3755 C28.9304,102.8160 28.9304,102.8160 28.9304,102.8160 C29.6506,104.2565 30.1308,104.9767 30.1308,107.3775 C30.1308,107.3775 30.1308,107.6176 30.1308,107.8577 C31.5713,107.8577 31.5713,107.8577 31.5713,107.8577 C31.5713,101.3755 31.5713,101.3755 31.5713,101.3755 C28.9304,101.3755 28.9304,101.3755 28.9304,101.3755 Z M32.5316,101.3755 C32.5316,102.8160 32.5316,102.8160 32.5316,102.8160 C33.2519,104.2565 33.7320,104.9767 33.7320,107.3775 C33.7320,107.3775 33.7320,107.6176 33.7320,107.8577 C35.1725,107.8577 35.1725,107.8577 35.1725,107.8577 C35.1725,101.3755 35.1725,101.3755 35.1725,101.3755 C32.5316,101.3755 32.5316,101.3755 32.5316,101.3755 Z M36.1328,101.3755 C36.1328,102.8160 36.1328,102.8160 36.1328,102.8160 C36.8531,104.2565 37.3332,104.9767 37.3332,107.3775 C37.3332,107.3775 37.3332,107.6176 37.3332,107.8577 C38.7737,107.8577 38.7737,107.8577 38.7737,107.8577 C38.7737,101.3755 38.7737,101.3755 38.7737,101.3755 C36.1328,101.3755 36.1328,101.3755 36.1328,101.3755 Z M39.7340,101.3755 C39.7340,102.8160 39.7340,102.8160 39.7340,102.8160 C40.4543,104.2565 41.1745,104.9767 41.1745,107.3775 C41.1745,107.3775 41.1745,107.6176 41.1745,107.8577 C42.3749,107.8577 42.3749,107.8577 42.3749,107.8577 C42.3749,101.3755 42.3749,101.3755 42.3749,101.3755 C39.7340,101.3755 39.7340,101.3755 39.7340,101.3755 Z M3.2417,101.3755 C3.2417,102.8160 3.2417,102.8160 3.2417,102.8160 C4.2020,104.2565 4.6822,104.9767 4.6822,107.3775 C4.6822,107.3775 4.6822,107.6176 4.6822,107.8577 C6.1227,107.8577 6.1227,107.8577 6.1227,107.8577 C6.1227,101.3755 6.1227,101.3755 6.1227,101.3755 C3.2417,101.3755 3.2417,101.3755 3.2417,101.3755 Z M7.0830,101.3755 C7.0830,102.8160 7.0830,102.8160 7.0830,102.8160 C7.8032,104.2565 8.2834,104.9767 8.2834,107.3775 C8.2834,107.3775 8.2834,107.6176 8.2834,107.8577 C9.7239,107.8577 9.7239,107.8577 9.7239,107.8577 C9.7239,101.3755 9.7239,101.3755 9.7239,101.3755 C7.0830,101.3755 7.0830,101.3755 7.0830,101.3755 Z M10.6842,101.3755 C10.6842,102.8160 10.6842,102.8160 10.6842,102.8160 C11.4045,104.2565 11.8846,104.9767 11.8846,107.3775 C11.8846,107.3775 11.8846,107.6176 11.8846,107.8577 C13.3251,107.8577 13.3251,107.8577 13.3251,107.8577 C13.3251,101.3755 13.3251,101.3755 13.3251,101.3755 C10.6842,101.3755 10.6842,101.3755 10.6842,101.3755 Z M14.2854,101.3755 C14.2854,102.8160 14.2854,102.8160 14.2854,102.8160 C15.0057,104.2565 15.7259,104.9767 15.7259,107.3775 C15.7259,107.3775 15.4858,107.6176 15.4858,107.8577 C16.9263,107.8577 16.9263,107.8577 16.9263,107.8577 C16.9263,101.3755 16.9263,101.3755 16.9263,101.3755 C14.2854,101.3755 14.2854,101.3755 14.2854,101.3755 Z M3.2417,113.1395 C3.2417,114.5800 3.2417,114.5800 3.2417,114.5800 C4.2020,115.7804 4.6822,116.5006 4.6822,118.9014 C4.6822,119.1415 4.6822,119.3816 4.6822,119.3816 C6.1227,119.3816 6.1227,119.3816 6.1227,119.3816 C6.1227,113.1395 6.1227,113.1395 6.1227,113.1395 C3.2417,113.1395 3.2417,113.1395 3.2417,113.1395 Z M7.0830,113.1395 C7.0830,114.5800 7.0830,114.5800 7.0830,114.5800 C7.8032,115.7804 8.2834,116.5006 8.2834,118.9014 C8.2834,119.1415 8.2834,119.3816 8.2834,119.3816 C9.7239,119.3816 9.7239,119.3816 9.7239,119.3816 C9.7239,113.1395 9.7239,113.1395 9.7239,113.1395 C7.0830,113.1395 7.0830,113.1395 7.0830,113.1395 Z M10.6842,113.1395 C10.6842,114.5800 10.6842,114.5800 10.6842,114.5800 C11.4045,115.7804 11.8846,116.5006 11.8846,118.9014 C11.8846,119.1415 11.8846,119.3816 11.8846,119.3816 C13.3251,119.3816 13.3251,119.3816 13.3251,119.3816 C13.3251,113.1395 13.3251,113.1395 13.3251,113.1395 C10.6842,113.1395 10.6842,113.1395 10.6842,113.1395 Z M14.2854,113.1395 C14.2854,114.5800 14.2854,114.5800 14.2854,114.5800 C15.0057,115.7804 15.7259,116.5006 15.7259,118.9014 C15.7259,119.1415 15.4858,119.3816 15.4858,119.3816 C16.9263,119.3816 16.9263,119.3816 16.9263,119.3816 C16.9263,113.1395 16.9263,113.1395 16.9263,113.1395 C14.2854,113.1395 14.2854,113.1395 14.2854,113.1395 Z M17.8867,113.1395 C17.8867,114.5800 17.8867,114.5800 17.8867,114.5800 C18.6069,115.7804 19.3271,116.5006 19.3271,118.9014 C19.3271,119.1415 19.3271,119.3816 19.3271,119.3816 C20.5276,119.3816 20.5276,119.3816 20.5276,119.3816 C20.5276,113.1395 20.5276,113.1395 20.5276,113.1395 C17.8867,113.1395 17.8867,113.1395 17.8867,113.1395 Z M21.4879,113.1395 C21.4879,114.5800 21.4879,114.5800 21.4879,114.5800 C22.4482,115.7804 22.9284,116.5006 22.9284,118.9014 C22.9284,119.1415 22.9284,119.3816 22.9284,119.3816 C24.1288,119.3816 24.1288,119.3816 24.1288,119.3816 C24.1288,113.1395 24.1288,113.1395 24.1288,113.1395 C21.4879,113.1395 21.4879,113.1395 21.4879,113.1395 Z M25.0891,113.1395 C25.0891,114.5800 25.0891,114.5800 25.0891,114.5800 C26.0494,115.7804 26.5296,116.5006 26.5296,118.9014 C26.5296,119.1415 26.5296,119.3816 26.5296,119.3816 C27.7300,119.3816 27.7300,119.3816 27.7300,119.3816 C27.7300,113.1395 27.7300,113.1395 27.7300,113.1395 C25.0891,113.1395 25.0891,113.1395 25.0891,113.1395 Z M28.9304,113.1395 C28.9304,114.5800 28.9304,114.5800 28.9304,114.5800 C29.6506,115.7804 30.1308,116.5006 30.1308,118.9014 C30.1308,119.1415 30.1308,119.3816 30.1308,119.3816 C31.5713,119.3816 31.5713,119.3816 31.5713,119.3816 C31.5713,113.1395 31.5713,113.1395 31.5713,113.1395 C28.9304,113.1395 28.9304,113.1395 28.9304,113.1395 Z M32.5316,113.1395 C32.5316,114.5800 32.5316,114.5800 32.5316,114.5800 C33.2519,115.7804 33.7320,116.5006 33.7320,118.9014 C33.7320,119.1415 33.7320,119.3816 33.7320,119.3816 C35.1725,119.3816 35.1725,119.3816 35.1725,119.3816 C35.1725,113.1395 35.1725,113.1395 35.1725,113.1395 C32.5316,113.1395 32.5316,113.1395 32.5316,113.1395 Z M36.1328,113.1395 C36.1328,114.5800 36.1328,114.5800 36.1328,114.5800 C36.8531,115.7804 37.3332,116.5006 37.3332,118.9014 C37.3332,119.1415 37.3332,119.3816 37.3332,119.3816 C38.7737,119.3816 38.7737,119.3816 38.7737,119.3816 C38.7737,113.1395 38.7737,113.1395 38.7737,113.1395 C36.1328,113.1395 36.1328,113.1395 36.1328,113.1395 Z M39.7340,113.1395 C39.7340,114.5800 39.7340,114.5800 39.7340,114.5800 C40.4543,115.7804 41.1745,116.5006 41.1745,118.9014 C41.1745,119.1415 41.1745,119.3816 41.1745,119.3816 C42.3749,119.3816 42.3749,119.3816 42.3749,119.3816 C42.3749,113.1395 42.3749,113.1395 42.3749,113.1395 C39.7340,113.1395 39.7340,113.1395 39.7340,113.1395 Z" style="fill-rule: evenodd; fill: #8275a3; "/>
    <path xmlns="http://www.w3.org/2000/svg" d="  M28.9304,19.7479 C28.9304,21.1884 28.9304,21.1884 28.9304,21.1884 C29.6506,22.6289 30.1308,23.3491 30.1308,25.7499 C30.1308,25.7499 30.1308,25.9900 30.1308,26.2301 C31.5713,26.2301 31.5713,26.2301 31.5713,26.2301 C31.5713,19.7479 31.5713,19.7479 31.5713,19.7479 C28.9304,19.7479 28.9304,19.7479 28.9304,19.7479 Z M32.5316,19.7479 C32.5316,21.1884 32.5316,21.1884 32.5316,21.1884 C33.2519,22.6289 33.7320,23.3491 33.7320,25.7499 C33.7320,25.7499 33.7320,25.9900 33.7320,26.2301 C35.1725,26.2301 35.1725,26.2301 35.1725,26.2301 C35.1725,19.7479 35.1725,19.7479 35.1725,19.7479 C32.5316,19.7479 32.5316,19.7479 32.5316,19.7479 Z M36.1328,19.7479 C36.1328,21.1884 36.1328,21.1884 36.1328,21.1884 C36.8531,22.6289 37.3332,23.3491 37.3332,25.7499 C37.3332,25.7499 37.3332,25.9900 37.3332,26.2301 C38.7737,26.2301 38.7737,26.2301 38.7737,26.2301 C38.7737,19.7479 38.7737,19.7479 38.7737,19.7479 C36.1328,19.7479 36.1328,19.7479 36.1328,19.7479 Z M39.7340,19.7479 C39.7340,21.1884 39.7340,21.1884 39.7340,21.1884 C40.4543,22.6289 41.1745,23.3491 41.1745,25.7499 C41.1745,25.7499 41.1745,25.9900 41.1745,26.2301 C42.3749,26.2301 42.3749,26.2301 42.3749,26.2301 C42.3749,19.7479 42.3749,19.7479 42.3749,19.7479 C39.7340,19.7479 39.7340,19.7479 39.7340,19.7479 Z M10.6842,19.7479 C10.6842,21.1884 10.6842,21.1884 10.6842,21.1884 C11.4045,22.6289 11.8846,23.3491 11.8846,25.7499 C11.8846,25.7499 11.8846,25.9900 11.8846,26.2301 C13.3251,26.2301 13.3251,26.2301 13.3251,26.2301 C13.3251,19.7479 13.3251,19.7479 13.3251,19.7479 C10.6842,19.7479 10.6842,19.7479 10.6842,19.7479 Z M14.2854,19.7479 C14.2854,21.1884 14.2854,21.1884 14.2854,21.1884 C15.0057,22.6289 15.7259,23.3491 15.7259,25.7499 C15.7259,25.7499 15.4858,25.9900 15.4858,26.2301 C16.9263,26.2301 16.9263,26.2301 16.9263,26.2301 C16.9263,19.7479 16.9263,19.7479 16.9263,19.7479 C14.2854,19.7479 14.2854,19.7479 14.2854,19.7479 Z M17.8867,19.7479 C17.8867,21.1884 17.8867,21.1884 17.8867,21.1884 C18.6069,22.6289 19.3271,23.3491 19.3271,25.7499 C19.3271,25.7499 19.3271,25.9900 19.3271,26.2301 C20.5276,26.2301 20.5276,26.2301 20.5276,26.2301 C20.5276,19.7479 20.5276,19.7479 20.5276,19.7479 C17.8867,19.7479 17.8867,19.7479 17.8867,19.7479 Z M21.4879,19.7479 C21.4879,21.1884 21.4879,21.1884 21.4879,21.1884 C22.4482,22.6289 22.9284,23.3491 22.9284,25.7499 C22.9284,25.7499 22.9284,25.9900 22.9284,26.2301 C24.1288,26.2301 24.1288,26.2301 24.1288,26.2301 C24.1288,19.7479 24.1288,19.7479 24.1288,19.7479 C21.4879,19.7479 21.4879,19.7479 21.4879,19.7479 Z M25.0891,19.7479 C25.0891,21.1884 25.0891,21.1884 25.0891,21.1884 C26.0494,22.6289 26.5296,23.3491 26.5296,25.7499 C26.5296,25.7499 26.5296,25.9900 26.5296,26.2301 C27.7300,26.2301 27.7300,26.2301 27.7300,26.2301 C27.7300,19.7479 27.7300,19.7479 27.7300,19.7479 C25.0891,19.7479 25.0891,19.7479 25.0891,19.7479 Z M3.2417,19.7479 C3.2417,21.1884 3.2417,21.1884 3.2417,21.1884 C4.2020,22.6289 4.6822,23.3491 4.6822,25.7499 C4.6822,25.7499 4.6822,25.9900 4.6822,26.2301 C6.1227,26.2301 6.1227,26.2301 6.1227,26.2301 C6.1227,19.7479 6.1227,19.7479 6.1227,19.7479 C3.2417,19.7479 3.2417,19.7479 3.2417,19.7479 Z M7.0830,19.7479 C7.0830,21.1884 7.0830,21.1884 7.0830,21.1884 C7.8032,22.6289 8.2834,23.3491 8.2834,25.7499 C8.2834,25.7499 8.2834,25.9900 8.2834,26.2301 C9.7239,26.2301 9.7239,26.2301 9.7239,26.2301 C9.7239,19.7479 9.7239,19.7479 9.7239,19.7479 C7.0830,19.7479 7.0830,19.7479 7.0830,19.7479 Z M3.2417,8.2240 C3.2417,9.6645 3.2417,9.6645 3.2417,9.6645 C4.2020,10.8649 4.6822,11.8252 4.6822,13.9860 C4.6822,14.2260 4.6822,14.4661 4.6822,14.4661 C6.1227,14.4661 6.1227,14.4661 6.1227,14.4661 C6.1227,8.2240 6.1227,8.2240 6.1227,8.2240 C3.2417,8.2240 3.2417,8.2240 3.2417,8.2240 Z M7.0830,8.2240 C7.0830,9.6645 7.0830,9.6645 7.0830,9.6645 C7.8032,10.8649 8.2834,11.8252 8.2834,13.9860 C8.2834,14.2260 8.2834,14.4661 8.2834,14.4661 C9.7239,14.4661 9.7239,14.4661 9.7239,14.4661 C9.7239,8.2240 9.7239,8.2240 9.7239,8.2240 C7.0830,8.2240 7.0830,8.2240 7.0830,8.2240 Z M10.6842,8.2240 C10.6842,9.6645 10.6842,9.6645 10.6842,9.6645 C11.4045,10.8649 11.8846,11.8252 11.8846,13.9860 C11.8846,14.2260 11.8846,14.4661 11.8846,14.4661 C13.3251,14.4661 13.3251,14.4661 13.3251,14.4661 C13.3251,8.2240 13.3251,8.2240 13.3251,8.2240 C10.6842,8.2240 10.6842,8.2240 10.6842,8.2240 Z M14.2854,8.2240 C14.2854,9.6645 14.2854,9.6645 14.2854,9.6645 C15.0057,10.8649 15.7259,11.8252 15.7259,13.9860 C15.7259,14.2260 15.4858,14.4661 15.4858,14.4661 C16.9263,14.4661 16.9263,14.4661 16.9263,14.4661 C16.9263,8.2240 16.9263,8.2240 16.9263,8.2240 C14.2854,8.2240 14.2854,8.2240 14.2854,8.2240 Z M17.8867,8.2240 C17.8867,9.6645 17.8867,9.6645 17.8867,9.6645 C18.6069,10.8649 19.3271,11.8252 19.3271,13.9860 C19.3271,14.2260 19.3271,14.4661 19.3271,14.4661 C20.5276,14.4661 20.5276,14.4661 20.5276,14.4661 C20.5276,8.2240 20.5276,8.2240 20.5276,8.2240 C17.8867,8.2240 17.8867,8.2240 17.8867,8.2240 Z M21.4879,8.2240 C21.4879,9.6645 21.4879,9.6645 21.4879,9.6645 C22.4482,10.8649 22.9284,11.8252 22.9284,13.9860 C22.9284,14.2260 22.9284,14.4661 22.9284,14.4661 C24.1288,14.4661 24.1288,14.4661 24.1288,14.4661 C24.1288,8.2240 24.1288,8.2240 24.1288,8.2240 C21.4879,8.2240 21.4879,8.2240 21.4879,8.2240 Z M25.0891,8.2240 C25.0891,9.6645 25.0891,9.6645 25.0891,9.6645 C26.0494,10.8649 26.5296,11.8252 26.5296,13.9860 C26.5296,14.2260 26.5296,14.4661 26.5296,14.4661 C27.7300,14.4661 27.7300,14.4661 27.7300,14.4661 C27.7300,8.2240 27.7300,8.2240 27.7300,8.2240 C25.0891,8.2240 25.0891,8.2240 25.0891,8.2240 Z M28.9304,8.2240 C28.9304,9.6645 28.9304,9.6645 28.9304,9.6645 C29.6506,10.8649 30.1308,11.8252 30.1308,13.9860 C30.1308,14.2260 30.1308,14.4661 30.1308,14.4661 C31.5713,14.4661 31.5713,14.4661 31.5713,14.4661 C31.5713,8.2240 31.5713,8.2240 31.5713,8.2240 C28.9304,8.2240 28.9304,8.2240 28.9304,8.2240 Z M32.5316,8.2240 C32.5316,9.6645 32.5316,9.6645 32.5316,9.6645 C33.2519,10.8649 33.7320,11.8252 33.7320,13.9860 C33.7320,14.2260 33.7320,14.4661 33.7320,14.4661 C35.1725,14.4661 35.1725,14.4661 35.1725,14.4661 C35.1725,8.2240 35.1725,8.2240 35.1725,8.2240 C32.5316,8.2240 32.5316,8.2240 32.5316,8.2240 Z M36.1328,8.2240 C36.1328,9.6645 36.1328,9.6645 36.1328,9.6645 C36.8531,10.8649 37.3332,11.8252 37.3332,13.9860 C37.3332,14.2260 37.3332,14.4661 37.3332,14.4661 C38.7737,14.4661 38.7737,14.4661 38.7737,14.4661 C38.7737,8.2240 38.7737,8.2240 38.7737,8.2240 C36.1328,8.2240 36.1328,8.2240 36.1328,8.2240 Z M39.7340,8.2240 C39.7340,9.6645 39.7340,9.6645 39.7340,9.6645 C40.4543,10.8649 41.1745,11.8252 41.1745,13.9860 C41.1745,14.2260 41.1745,14.4661 41.1745,14.4661 C42.3749,14.4661 42.3749,14.4661 42.3749,14.4661 C42.3749,8.2240 42.3749,8.2240 42.3749,8.2240 C39.7340,8.2240 39.7340,8.2240 39.7340,8.2240 Z M7.0830,66.3237 C7.0830,67.7641 7.0830,67.7641 7.0830,67.7641 C7.8032,69.2046 8.2834,69.9249 8.2834,72.0856 C8.2834,72.3257 8.2834,72.5658 8.2834,72.8059 C9.7239,72.8059 9.7239,72.8059 9.7239,72.8059 C9.7239,66.3237 9.7239,66.3237 9.7239,66.3237 C7.0830,66.3237 7.0830,66.3237 7.0830,66.3237 Z M28.9304,66.3237 C28.9304,67.7641 28.9304,67.7641 28.9304,67.7641 C29.6506,69.2046 30.1308,69.9249 30.1308,72.0856 C30.1308,72.3257 30.1308,72.5658 30.1308,72.8059 C31.5713,72.8059 31.5713,72.8059 31.5713,72.8059 C31.5713,66.3237 31.5713,66.3237 31.5713,66.3237 C28.9304,66.3237 28.9304,66.3237 28.9304,66.3237 Z M3.2417,54.7998 C3.2417,56.2402 3.2417,56.2402 3.2417,56.2402 C4.2020,57.4407 4.6822,58.1609 4.6822,60.5617 C4.6822,60.8018 4.6822,60.8018 4.6822,61.0419 C6.1227,61.0419 6.1227,61.0419 6.1227,61.0419 C6.1227,54.7998 6.1227,54.7998 6.1227,54.7998 C3.2417,54.7998 3.2417,54.7998 3.2417,54.7998 Z M28.9304,54.7998 C28.9304,56.2402 28.9304,56.2402 28.9304,56.2402 C29.6506,57.4407 30.1308,58.1609 30.1308,60.5617 C30.1308,60.8018 30.1308,60.8018 30.1308,61.0419 C31.5713,61.0419 31.5713,61.0419 31.5713,61.0419 C31.5713,54.7998 31.5713,54.7998 31.5713,54.7998 C28.9304,54.7998 28.9304,54.7998 28.9304,54.7998 Z M17.8867,66.3237 C17.8867,67.7641 17.8867,67.7641 17.8867,67.7641 C18.6069,69.2046 19.3271,69.9249 19.3271,72.0856 C19.3271,72.3257 19.3271,72.5658 19.3271,72.8059 C20.5276,72.8059 20.5276,72.8059 20.5276,72.8059 C20.5276,66.3237 20.5276,66.3237 20.5276,66.3237 C17.8867,66.3237 17.8867,66.3237 17.8867,66.3237 Z M14.2854,54.7998 C14.2854,56.2402 14.2854,56.2402 14.2854,56.2402 C15.0057,57.4407 15.7259,58.1609 15.7259,60.5617 C15.7259,60.8018 15.4858,60.8018 15.4858,61.0419 C16.9263,61.0419 16.9263,61.0419 16.9263,61.0419 C16.9263,54.7998 16.9263,54.7998 16.9263,54.7998 C14.2854,54.7998 14.2854,54.7998 14.2854,54.7998 Z M14.2854,66.3237 C14.2854,67.7641 14.2854,67.7641 14.2854,67.7641 C15.0057,69.2046 15.7259,69.9249 15.7259,72.0856 C15.7259,72.3257 15.4858,72.5658 15.4858,72.8059 C16.9263,72.8059 16.9263,72.8059 16.9263,72.8059 C16.9263,66.3237 16.9263,66.3237 16.9263,66.3237 C14.2854,66.3237 14.2854,66.3237 14.2854,66.3237 Z M21.4879,66.3237 C21.4879,67.7641 21.4879,67.7641 21.4879,67.7641 C22.4482,69.2046 22.9284,69.9249 22.9284,72.0856 C22.9284,72.3257 22.9284,72.5658 22.9284,72.8059 C24.1288,72.8059 24.1288,72.8059 24.1288,72.8059 C24.1288,66.3237 24.1288,66.3237 24.1288,66.3237 C21.4879,66.3237 21.4879,66.3237 21.4879,66.3237 Z M39.7340,66.3237 C39.7340,67.7641 39.7340,67.7641 39.7340,67.7641 C40.4543,69.2046 41.1745,69.9249 41.1745,72.0856 C41.1745,72.3257 41.1745,72.5658 41.1745,72.8059 C42.3749,72.8059 42.3749,72.8059 42.3749,72.8059 C42.3749,66.3237 42.3749,66.3237 42.3749,66.3237 C39.7340,66.3237 39.7340,66.3237 39.7340,66.3237 Z M25.0891,54.7998 C25.0891,56.2402 25.0891,56.2402 25.0891,56.2402 C26.0494,57.4407 26.5296,58.1609 26.5296,60.5617 C26.5296,60.8018 26.5296,60.8018 26.5296,61.0419 C27.7300,61.0419 27.7300,61.0419 27.7300,61.0419 C27.7300,54.7998 27.7300,54.7998 27.7300,54.7998 C25.0891,54.7998 25.0891,54.7998 25.0891,54.7998 Z M32.5316,54.7998 C32.5316,56.2402 32.5316,56.2402 32.5316,56.2402 C33.2519,57.4407 33.7320,58.1609 33.7320,60.5617 C33.7320,60.8018 33.7320,60.8018 33.7320,61.0419 C35.1725,61.0419 35.1725,61.0419 35.1725,61.0419 C35.1725,54.7998 35.1725,54.7998 35.1725,54.7998 C32.5316,54.7998 32.5316,54.7998 32.5316,54.7998 Z M21.4879,54.7998 C21.4879,56.2402 21.4879,56.2402 21.4879,56.2402 C22.4482,57.4407 22.9284,58.1609 22.9284,60.5617 C22.9284,60.8018 22.9284,60.8018 22.9284,61.0419 C24.1288,61.0419 24.1288,61.0419 24.1288,61.0419 C24.1288,54.7998 24.1288,54.7998 24.1288,54.7998 C21.4879,54.7998 21.4879,54.7998 21.4879,54.7998 Z M36.1328,66.3237 C36.1328,67.7641 36.1328,67.7641 36.1328,67.7641 C36.8531,69.2046 37.3332,69.9249 37.3332,72.0856 C37.3332,72.3257 37.3332,72.5658 37.3332,72.8059 C38.7737,72.8059 38.7737,72.8059 38.7737,72.8059 C38.7737,66.3237 38.7737,66.3237 38.7737,66.3237 C36.1328,66.3237 36.1328,66.3237 36.1328,66.3237 Z M17.8867,54.7998 C17.8867,56.2402 17.8867,56.2402 17.8867,56.2402 C18.6069,57.4407 19.3271,58.1609 19.3271,60.5617 C19.3271,60.8018 19.3271,60.8018 19.3271,61.0419 C20.5276,61.0419 20.5276,61.0419 20.5276,61.0419 C20.5276,54.7998 20.5276,54.7998 20.5276,54.7998 C17.8867,54.7998 17.8867,54.7998 17.8867,54.7998 Z M10.6842,66.3237 C10.6842,67.7641 10.6842,67.7641 10.6842,67.7641 C11.4045,69.2046 11.8846,69.9249 11.8846,72.0856 C11.8846,72.3257 11.8846,72.5658 11.8846,72.8059 C13.3251,72.8059 13.3251,72.8059 13.3251,72.8059 C13.3251,66.3237 13.3251,66.3237 13.3251,66.3237 C10.6842,66.3237 10.6842,66.3237 10.6842,66.3237 Z M3.2417,66.3237 C3.2417,67.7641 3.2417,67.7641 3.2417,67.7641 C4.2020,69.2046 4.6822,69.9249 4.6822,72.0856 C4.6822,72.3257 4.6822,72.5658 4.6822,72.8059 C6.1227,72.8059 6.1227,72.8059 6.1227,72.8059 C6.1227,66.3237 6.1227,66.3237 6.1227,66.3237 C3.2417,66.3237 3.2417,66.3237 3.2417,66.3237 Z M32.5316,66.3237 C32.5316,67.7641 32.5316,67.7641 32.5316,67.7641 C33.2519,69.2046 33.7320,69.9249 33.7320,72.0856 C33.7320,72.3257 33.7320,72.5658 33.7320,72.8059 C35.1725,72.8059 35.1725,72.8059 35.1725,72.8059 C35.1725,66.3237 35.1725,66.3237 35.1725,66.3237 C32.5316,66.3237 32.5316,66.3237 32.5316,66.3237 Z M25.0891,66.3237 C25.0891,67.7641 25.0891,67.7641 25.0891,67.7641 C26.0494,69.2046 26.5296,69.9249 26.5296,72.0856 C26.5296,72.3257 26.5296,72.5658 26.5296,72.8059 C27.7300,72.8059 27.7300,72.8059 27.7300,72.8059 C27.7300,66.3237 27.7300,66.3237 27.7300,66.3237 C25.0891,66.3237 25.0891,66.3237 25.0891,66.3237 Z M36.1328,54.7998 C36.1328,56.2402 36.1328,56.2402 36.1328,56.2402 C36.8531,57.4407 37.3332,58.1609 37.3332,60.5617 C37.3332,60.8018 37.3332,60.8018 37.3332,61.0419 C38.7737,61.0419 38.7737,61.0419 38.7737,61.0419 C38.7737,54.7998 38.7737,54.7998 38.7737,54.7998 C36.1328,54.7998 36.1328,54.7998 36.1328,54.7998 Z M10.6842,54.7998 C10.6842,56.2402 10.6842,56.2402 10.6842,56.2402 C11.4045,57.4407 11.8846,58.1609 11.8846,60.5617 C11.8846,60.8018 11.8846,60.8018 11.8846,61.0419 C13.3251,61.0419 13.3251,61.0419 13.3251,61.0419 C13.3251,54.7998 13.3251,54.7998 13.3251,54.7998 C10.6842,54.7998 10.6842,54.7998 10.6842,54.7998 Z M7.0830,54.7998 C7.0830,56.2402 7.0830,56.2402 7.0830,56.2402 C7.8032,57.4407 8.2834,58.1609 8.2834,60.5617 C8.2834,60.8018 8.2834,60.8018 8.2834,61.0419 C9.7239,61.0419 9.7239,61.0419 9.7239,61.0419 C9.7239,54.7998 9.7239,54.7998 9.7239,54.7998 C7.0830,54.7998 7.0830,54.7998 7.0830,54.7998 Z M39.7340,54.7998 C39.7340,56.2402 39.7340,56.2402 39.7340,56.2402 C40.4543,57.4407 41.1745,58.1609 41.1745,60.5617 C41.1745,60.8018 41.1745,60.8018 41.1745,61.0419 C42.3749,61.0419 42.3749,61.0419 42.3749,61.0419 C42.3749,54.7998 42.3749,54.7998 42.3749,54.7998 C39.7340,54.7998 39.7340,54.7998 39.7340,54.7998 Z M17.8867,43.0358 C17.8867,44.4763 17.8867,44.4763 17.8867,44.4763 C18.6069,45.9168 19.3271,46.6370 19.3271,48.7977 C19.3271,49.0378 19.3271,49.2779 19.3271,49.5180 C20.5276,49.5180 20.5276,49.5180 20.5276,49.5180 C20.5276,43.0358 20.5276,43.0358 20.5276,43.0358 C17.8867,43.0358 17.8867,43.0358 17.8867,43.0358 Z M21.4879,43.0358 C21.4879,44.4763 21.4879,44.4763 21.4879,44.4763 C22.4482,45.9168 22.9284,46.6370 22.9284,48.7977 C22.9284,49.0378 22.9284,49.2779 22.9284,49.5180 C24.1288,49.5180 24.1288,49.5180 24.1288,49.5180 C24.1288,43.0358 24.1288,43.0358 24.1288,43.0358 C21.4879,43.0358 21.4879,43.0358 21.4879,43.0358 Z M25.0891,43.0358 C25.0891,44.4763 25.0891,44.4763 25.0891,44.4763 C26.0494,45.9168 26.5296,46.6370 26.5296,48.7977 C26.5296,49.0378 26.5296,49.2779 26.5296,49.5180 C27.7300,49.5180 27.7300,49.5180 27.7300,49.5180 C27.7300,43.0358 27.7300,43.0358 27.7300,43.0358 C25.0891,43.0358 25.0891,43.0358 25.0891,43.0358 Z M28.9304,43.0358 C28.9304,44.4763 28.9304,44.4763 28.9304,44.4763 C29.6506,45.9168 30.1308,46.6370 30.1308,48.7977 C30.1308,49.0378 30.1308,49.2779 30.1308,49.5180 C31.5713,49.5180 31.5713,49.5180 31.5713,49.5180 C31.5713,43.0358 31.5713,43.0358 31.5713,43.0358 C28.9304,43.0358 28.9304,43.0358 28.9304,43.0358 Z M32.5316,43.0358 C32.5316,44.4763 32.5316,44.4763 32.5316,44.4763 C33.2519,45.9168 33.7320,46.6370 33.7320,48.7977 C33.7320,49.0378 33.7320,49.2779 33.7320,49.5180 C35.1725,49.5180 35.1725,49.5180 35.1725,49.5180 C35.1725,43.0358 35.1725,43.0358 35.1725,43.0358 C32.5316,43.0358 32.5316,43.0358 32.5316,43.0358 Z M36.1328,43.0358 C36.1328,44.4763 36.1328,44.4763 36.1328,44.4763 C36.8531,45.9168 37.3332,46.6370 37.3332,48.7977 C37.3332,49.0378 37.3332,49.2779 37.3332,49.5180 C38.7737,49.5180 38.7737,49.5180 38.7737,49.5180 C38.7737,43.0358 38.7737,43.0358 38.7737,43.0358 C36.1328,43.0358 36.1328,43.0358 36.1328,43.0358 Z M39.7340,43.0358 C39.7340,44.4763 39.7340,44.4763 39.7340,44.4763 C40.4543,45.9168 41.1745,46.6370 41.1745,48.7977 C41.1745,49.0378 41.1745,49.2779 41.1745,49.5180 C42.3749,49.5180 42.3749,49.5180 42.3749,49.5180 C42.3749,43.0358 42.3749,43.0358 42.3749,43.0358 C39.7340,43.0358 39.7340,43.0358 39.7340,43.0358 Z M3.2417,43.0358 C3.2417,44.4763 3.2417,44.4763 3.2417,44.4763 C4.2020,45.9168 4.6822,46.6370 4.6822,48.7977 C4.6822,49.0378 4.6822,49.2779 4.6822,49.5180 C6.1227,49.5180 6.1227,49.5180 6.1227,49.5180 C6.1227,43.0358 6.1227,43.0358 6.1227,43.0358 C3.2417,43.0358 3.2417,43.0358 3.2417,43.0358 Z M7.0830,43.0358 C7.0830,44.4763 7.0830,44.4763 7.0830,44.4763 C7.8032,45.9168 8.2834,46.6370 8.2834,48.7977 C8.2834,49.0378 8.2834,49.2779 8.2834,49.5180 C9.7239,49.5180 9.7239,49.5180 9.7239,49.5180 C9.7239,43.0358 9.7239,43.0358 9.7239,43.0358 C7.0830,43.0358 7.0830,43.0358 7.0830,43.0358 Z M10.6842,43.0358 C10.6842,44.4763 10.6842,44.4763 10.6842,44.4763 C11.4045,45.9168 11.8846,46.6370 11.8846,48.7977 C11.8846,49.0378 11.8846,49.2779 11.8846,49.5180 C13.3251,49.5180 13.3251,49.5180 13.3251,49.5180 C13.3251,43.0358 13.3251,43.0358 13.3251,43.0358 C10.6842,43.0358 10.6842,43.0358 10.6842,43.0358 Z M14.2854,43.0358 C14.2854,44.4763 14.2854,44.4763 14.2854,44.4763 C15.0057,45.9168 15.7259,46.6370 15.7259,48.7977 C15.7259,49.0378 15.4858,49.2779 15.4858,49.5180 C16.9263,49.5180 16.9263,49.5180 16.9263,49.5180 C16.9263,43.0358 16.9263,43.0358 16.9263,43.0358 C14.2854,43.0358 14.2854,43.0358 14.2854,43.0358 Z M3.2417,31.5119 C3.2417,32.9524 3.2417,32.9524 3.2417,32.9524 C4.2020,34.1528 4.6822,34.8730 4.6822,37.2738 C4.6822,37.5139 4.6822,37.7540 4.6822,37.7540 C6.1227,37.7540 6.1227,37.7540 6.1227,37.7540 C6.1227,31.5119 6.1227,31.5119 6.1227,31.5119 C3.2417,31.5119 3.2417,31.5119 3.2417,31.5119 Z M7.0830,31.5119 C7.0830,32.9524 7.0830,32.9524 7.0830,32.9524 C7.8032,34.1528 8.2834,34.8730 8.2834,37.2738 C8.2834,37.5139 8.2834,37.7540 8.2834,37.7540 C9.7239,37.7540 9.7239,37.7540 9.7239,37.7540 C9.7239,31.5119 9.7239,31.5119 9.7239,31.5119 C7.0830,31.5119 7.0830,31.5119 7.0830,31.5119 Z M28.9304,31.5119 C28.9304,32.9524 28.9304,32.9524 28.9304,32.9524 C29.6506,34.1528 30.1308,34.8730 30.1308,37.2738 C30.1308,37.5139 30.1308,37.7540 30.1308,37.7540 C31.5713,37.7540 31.5713,37.7540 31.5713,37.7540 C31.5713,31.5119 31.5713,31.5119 31.5713,31.5119 C28.9304,31.5119 28.9304,31.5119 28.9304,31.5119 Z M32.5316,31.5119 C32.5316,32.9524 32.5316,32.9524 32.5316,32.9524 C33.2519,34.1528 33.7320,34.8730 33.7320,37.2738 C33.7320,37.5139 33.7320,37.7540 33.7320,37.7540 C35.1725,37.7540 35.1725,37.7540 35.1725,37.7540 C35.1725,31.5119 35.1725,31.5119 35.1725,31.5119 C32.5316,31.5119 32.5316,31.5119 32.5316,31.5119 Z M36.1328,31.5119 C36.1328,32.9524 36.1328,32.9524 36.1328,32.9524 C36.8531,34.1528 37.3332,34.8730 37.3332,37.2738 C37.3332,37.5139 37.3332,37.7540 37.3332,37.7540 C38.7737,37.7540 38.7737,37.7540 38.7737,37.7540 C38.7737,31.5119 38.7737,31.5119 38.7737,31.5119 C36.1328,31.5119 36.1328,31.5119 36.1328,31.5119 Z M39.7340,31.5119 C39.7340,32.9524 39.7340,32.9524 39.7340,32.9524 C40.4543,34.1528 41.1745,34.8730 41.1745,37.2738 C41.1745,37.5139 41.1745,37.7540 41.1745,37.7540 C42.3749,37.7540 42.3749,37.7540 42.3749,37.7540 C42.3749,31.5119 42.3749,31.5119 42.3749,31.5119 C39.7340,31.5119 39.7340,31.5119 39.7340,31.5119 Z M10.6842,31.5119 C10.6842,32.9524 10.6842,32.9524 10.6842,32.9524 C11.4045,34.1528 11.8846,34.8730 11.8846,37.2738 C11.8846,37.5139 11.8846,37.7540 11.8846,37.7540 C13.3251,37.7540 13.3251,37.7540 13.3251,37.7540 C13.3251,31.5119 13.3251,31.5119 13.3251,31.5119 C10.6842,31.5119 10.6842,31.5119 10.6842,31.5119 Z M14.2854,31.5119 C14.2854,32.9524 14.2854,32.9524 14.2854,32.9524 C15.0057,34.1528 15.7259,34.8730 15.7259,37.2738 C15.7259,37.5139 15.4858,37.7540 15.4858,37.7540 C16.9263,37.7540 16.9263,37.7540 16.9263,37.7540 C16.9263,31.5119 16.9263,31.5119 16.9263,31.5119 C14.2854,31.5119 14.2854,31.5119 14.2854,31.5119 Z M17.8867,31.5119 C17.8867,32.9524 17.8867,32.9524 17.8867,32.9524 C18.6069,34.1528 19.3271,34.8730 19.3271,37.2738 C19.3271,37.5139 19.3271,37.7540 19.3271,37.7540 C20.5276,37.7540 20.5276,37.7540 20.5276,37.7540 C20.5276,31.5119 20.5276,31.5119 20.5276,31.5119 C17.8867,31.5119 17.8867,31.5119 17.8867,31.5119 Z M21.4879,31.5119 C21.4879,32.9524 21.4879,32.9524 21.4879,32.9524 C22.4482,34.1528 22.9284,34.8730 22.9284,37.2738 C22.9284,37.5139 22.9284,37.7540 22.9284,37.7540 C24.1288,37.7540 24.1288,37.7540 24.1288,37.7540 C24.1288,31.5119 24.1288,31.5119 24.1288,31.5119 C21.4879,31.5119 21.4879,31.5119 21.4879,31.5119 Z M25.0891,31.5119 C25.0891,32.9524 25.0891,32.9524 25.0891,32.9524 C26.0494,34.1528 26.5296,34.8730 26.5296,37.2738 C26.5296,37.5139 26.5296,37.7540 26.5296,37.7540 C27.7300,37.7540 27.7300,37.7540 27.7300,37.7540 C27.7300,31.5119 27.7300,31.5119 27.7300,31.5119 C25.0891,31.5119 25.0891,31.5119 25.0891,31.5119 Z" style="fill-rule: evenodd; fill: #7f7f7f; "/>
    <path xmlns="http://www.w3.org/2000/svg" d="  M11.6445,89.8516 C4.6822,90.0917 4.6822,90.3318 4.6822,90.8119 C4.6822,97.2941 4.6822,97.2941 4.6822,97.2941 C4.6822,97.7743 4.6822,98.0144 11.6445,98.2545 C15.4858,98.2545 20.0474,98.4945 22.9284,98.4945 C26.0494,98.4945 30.6110,98.2545 34.4523,98.2545 C41.4146,98.0144 41.4146,97.7743 41.4146,97.2941 C41.4146,90.8119 41.4146,90.8119 41.4146,90.8119 C41.4146,90.3318 41.4146,90.0917 34.4523,89.8516 C30.6110,89.6115 26.0494,89.6115 22.9284,89.6115 C20.0474,89.6115 15.4858,89.6115 11.6445,89.8516 Z M11.6445,78.2077 C4.6822,78.4478 4.6822,78.6878 4.6822,79.1680 C4.6822,85.6502 4.6822,85.6502 4.6822,85.6502 C4.6822,86.1304 4.6822,86.3704 11.6445,86.6105 C15.4858,86.6105 20.0474,86.8506 22.9284,86.8506 C26.0494,86.8506 30.6110,86.6105 34.4523,86.6105 C41.4146,86.3704 41.4146,86.1304 41.4146,85.6502 C41.4146,79.1680 41.4146,79.1680 41.4146,79.1680 C41.4146,78.6878 41.4146,78.4478 34.4523,78.2077 C30.6110,77.9676 26.0494,77.9676 22.9284,77.9676 C20.0474,77.9676 15.4858,77.9676 11.6445,78.2077 Z" style="fill-rule: evenodd; fill: #ffffff; "/>
    <path xmlns="http://www.w3.org/2000/svg" d="  M33.9721,82.2891 C33.9721,80.6085 33.7320,78.6878 33.2519,78.6878 C32.7717,78.6878 32.7717,78.6878 32.7717,78.6878 C32.5316,78.6878 32.2915,78.9279 32.2915,79.1680 C32.2915,85.6502 32.2915,85.6502 32.2915,85.6502 C32.2915,85.8903 32.5316,85.8903 32.7717,85.8903 C33.2519,85.8903 33.2519,85.8903 33.2519,85.8903 C33.7320,85.8903 33.9721,84.2097 33.9721,82.2891 Z M37.3332,82.2891 C37.3332,80.6085 36.8531,78.9279 36.3729,78.9279 C35.8928,78.9279 35.8928,78.9279 35.8928,78.9279 C35.6527,78.9279 35.6527,79.1680 35.6527,79.4081 C35.6527,85.4101 35.6527,85.4101 35.6527,85.4101 C35.6527,85.6502 35.6527,85.8903 35.8928,85.8903 C36.3729,85.8903 36.3729,85.8903 36.3729,85.8903 C36.8531,85.8903 37.3332,84.2097 37.3332,82.2891 Z M38.7737,85.4101 C38.7737,85.6502 39.0138,85.8903 39.2539,85.8903 C39.7340,85.8903 39.7340,85.8903 39.7340,85.8903 C40.2142,85.8903 40.4543,84.2097 40.4543,82.2891 C40.4543,80.6085 40.2142,78.9279 39.7340,78.9279 C39.2539,78.9279 39.2539,78.9279 39.2539,78.9279 C39.0138,78.9279 38.7737,79.1680 38.7737,79.4081 C38.7737,85.4101 38.7737,85.4101 38.7737,85.4101 Z M31.0911,85.4101 C31.0911,85.8903 30.8510,86.1304 30.3709,86.1304 C22.2081,86.1304 22.2081,86.1304 22.2081,86.1304 C21.7280,86.1304 21.4879,85.8903 21.4879,85.4101 C21.4879,82.0490 21.4879,82.0490 21.4879,82.0490 C21.4879,81.8089 21.7280,81.3287 22.2081,81.3287 C30.3709,81.3287 30.3709,81.3287 30.3709,81.3287 C30.8510,81.3287 31.0911,81.8089 31.0911,82.0490 C31.0911,85.4101 31.0911,85.4101 31.0911,85.4101 Z M20.2875,85.6502 C20.2875,85.8903 20.0474,86.1304 19.8073,86.1304 C19.3271,86.1304 19.3271,86.1304 19.3271,86.1304 C18.8470,86.1304 18.6069,84.2097 18.6069,82.2891 C18.6069,80.6085 18.8470,78.6878 19.3271,78.6878 C19.8073,78.6878 19.8073,78.6878 19.8073,78.6878 C20.0474,78.6878 20.2875,78.6878 20.2875,79.1680 C20.2875,85.6502 20.2875,85.6502 20.2875,85.6502 Z M15.2458,82.2891 C15.2458,80.6085 15.7259,78.6878 15.9660,78.6878 C16.6863,78.6878 16.6863,78.6878 16.6863,78.6878 C16.9263,78.6878 17.1664,78.9279 17.1664,79.1680 C17.1664,85.6502 17.1664,85.6502 17.1664,85.6502 C17.1664,85.8903 16.9263,86.1304 16.6863,86.1304 C15.9660,86.1304 15.9660,86.1304 15.9660,86.1304 C15.7259,86.1304 15.2458,84.2097 15.2458,82.2891 Z M12.1247,82.2891 C12.1247,80.6085 12.3648,78.6878 12.8450,78.6878 C13.3251,78.6878 13.3251,78.6878 13.3251,78.6878 C13.5652,78.6878 13.8053,78.9279 13.8053,79.1680 C13.8053,85.6502 13.8053,85.6502 13.8053,85.6502 C13.8053,85.8903 13.5652,85.8903 13.3251,85.8903 C12.8450,85.8903 12.8450,85.8903 12.8450,85.8903 C12.3648,85.8903 12.1247,84.2097 12.1247,82.2891 Z M8.7636,82.2891 C8.7636,80.6085 9.2437,78.9279 9.7239,78.9279 C10.2041,78.9279 10.2041,78.9279 10.2041,78.9279 C10.4441,78.9279 10.4441,79.1680 10.4441,79.4081 C10.4441,85.4101 10.4441,85.4101 10.4441,85.4101 C10.4441,85.6502 10.4441,85.8903 10.2041,85.8903 C9.7239,85.8903 9.7239,85.8903 9.7239,85.8903 C9.2437,85.8903 8.7636,84.2097 8.7636,82.2891 Z M7.3231,85.4101 C7.3231,85.6502 7.0830,85.8903 6.8429,85.8903 C6.3628,85.8903 6.3628,85.8903 6.3628,85.8903 C5.8826,85.8903 5.6425,84.2097 5.6425,82.2891 C5.6425,80.6085 5.8826,78.9279 6.3628,78.9279 C6.8429,78.9279 6.8429,78.9279 6.8429,78.9279 C7.0830,78.9279 7.3231,79.1680 7.3231,79.4081 C7.3231,85.4101 7.3231,85.4101 7.3231,85.4101 Z M33.9721,93.9330 C33.9721,92.2524 33.7320,90.3318 33.2519,90.3318 C32.7717,90.3318 32.7717,90.3318 32.7717,90.3318 C32.5316,90.3318 32.2915,90.5719 32.2915,90.8119 C32.2915,97.2941 32.2915,97.2941 32.2915,97.2941 C32.2915,97.5342 32.5316,97.5342 32.7717,97.5342 C33.2519,97.5342 33.2519,97.5342 33.2519,97.5342 C33.7320,97.5342 33.9721,95.8536 33.9721,93.9330 Z M37.3332,93.9330 C37.3332,92.2524 36.8531,90.5719 36.3729,90.5719 C35.8928,90.5719 35.8928,90.5719 35.8928,90.5719 C35.6527,90.5719 35.6527,90.8119 35.6527,91.0520 C35.6527,97.0541 35.6527,97.0541 35.6527,97.0541 C35.6527,97.2941 35.6527,97.5342 35.8928,97.5342 C36.3729,97.5342 36.3729,97.5342 36.3729,97.5342 C36.8531,97.5342 37.3332,95.8536 37.3332,93.9330 Z M38.7737,97.0541 C38.7737,97.2941 39.0138,97.5342 39.2539,97.5342 C39.7340,97.5342 39.7340,97.5342 39.7340,97.5342 C40.2142,97.5342 40.4543,95.8536 40.4543,93.9330 C40.4543,92.2524 40.2142,90.5719 39.7340,90.5719 C39.2539,90.5719 39.2539,90.5719 39.2539,90.5719 C39.0138,90.5719 38.7737,90.8119 38.7737,91.0520 C38.7737,97.0541 38.7737,97.0541 38.7737,97.0541 Z M31.0911,97.0541 C31.0911,97.5342 30.8510,97.7743 30.3709,97.7743 C22.2081,97.7743 22.2081,97.7743 22.2081,97.7743 C21.7280,97.7743 21.4879,97.5342 21.4879,97.0541 C21.4879,93.6929 21.4879,93.6929 21.4879,93.6929 C21.4879,93.4528 21.7280,92.9727 22.2081,92.9727 C30.3709,92.9727 30.3709,92.9727 30.3709,92.9727 C30.8510,92.9727 31.0911,93.4528 31.0911,93.6929 C31.0911,97.0541 31.0911,97.0541 31.0911,97.0541 Z M20.2875,97.2941 C20.2875,97.5342 20.0474,97.7743 19.8073,97.7743 C19.3271,97.7743 19.3271,97.7743 19.3271,97.7743 C18.8470,97.7743 18.6069,95.8536 18.6069,93.9330 C18.6069,92.2524 18.8470,90.3318 19.3271,90.3318 C19.8073,90.3318 19.8073,90.3318 19.8073,90.3318 C20.0474,90.3318 20.2875,90.3318 20.2875,90.8119 C20.2875,97.2941 20.2875,97.2941 20.2875,97.2941 Z M15.2458,93.9330 C15.2458,92.2524 15.7259,90.3318 15.9660,90.3318 C16.6863,90.3318 16.6863,90.3318 16.6863,90.3318 C16.9263,90.3318 17.1664,90.5719 17.1664,90.8119 C17.1664,97.2941 17.1664,97.2941 17.1664,97.2941 C17.1664,97.5342 16.9263,97.7743 16.6863,97.7743 C15.9660,97.7743 15.9660,97.7743 15.9660,97.7743 C15.7259,97.7743 15.2458,95.8536 15.2458,93.9330 Z M12.1247,93.9330 C12.1247,92.2524 12.3648,90.3318 12.8450,90.3318 C13.3251,90.3318 13.3251,90.3318 13.3251,90.3318 C13.5652,90.3318 13.8053,90.5719 13.8053,90.8119 C13.8053,97.2941 13.8053,97.2941 13.8053,97.2941 C13.8053,97.5342 13.5652,97.5342 13.3251,97.5342 C12.8450,97.5342 12.8450,97.5342 12.8450,97.5342 C12.3648,97.5342 12.1247,95.8536 12.1247,93.9330 Z M8.7636,93.9330 C8.7636,92.2524 9.2437,90.5719 9.7239,90.5719 C10.2041,90.5719 10.2041,90.5719 10.2041,90.5719 C10.4441,90.5719 10.4441,90.8119 10.4441,91.0520 C10.4441,97.0541 10.4441,97.0541 10.4441,97.0541 C10.4441,97.2941 10.4441,97.5342 10.2041,97.5342 C9.7239,97.5342 9.7239,97.5342 9.7239,97.5342 C9.2437,97.5342 8.7636,95.8536 8.7636,93.9330 Z M7.3231,97.0541 C7.3231,97.2941 7.0830,97.5342 6.8429,97.5342 C6.3628,97.5342 6.3628,97.5342 6.3628,97.5342 C5.8826,97.5342 5.6425,95.8536 5.6425,93.9330 C5.6425,92.2524 5.8826,90.5719 6.3628,90.5719 C6.8429,90.5719 6.8429,90.5719 6.8429,90.5719 C7.0830,90.5719 7.3231,90.8119 7.3231,91.0520 C7.3231,97.0541 7.3231,97.0541 7.3231,97.0541 Z" style="fill-rule: evenodd; fill: #171868; "/>
    <path xmlns="http://www.w3.org/2000/svg" d="  M30.1308,85.6502 C30.1308,85.8903 29.8907,86.1304 29.6506,86.1304 C22.9284,86.1304 22.9284,86.1304 22.9284,86.1304 C22.6883,86.1304 22.4482,85.8903 22.4482,85.6502 C22.4482,83.0093 22.4482,83.0093 22.4482,83.0093 C22.4482,82.5291 22.6883,82.2891 22.9284,82.2891 C29.6506,82.2891 29.6506,82.2891 29.6506,82.2891 C29.8907,82.2891 30.1308,82.5291 30.1308,83.0093 C30.1308,85.6502 30.1308,85.6502 30.1308,85.6502 Z M30.1308,97.2941 C30.1308,97.5342 29.8907,97.7743 29.6506,97.7743 C22.9284,97.7743 22.9284,97.7743 22.9284,97.7743 C22.6883,97.7743 22.4482,97.5342 22.4482,97.2941 C22.4482,94.6532 22.4482,94.6532 22.4482,94.6532 C22.4482,94.1731 22.6883,93.9330 22.9284,93.9330 C29.6506,93.9330 29.6506,93.9330 29.6506,93.9330 C29.8907,93.9330 30.1308,94.1731 30.1308,94.6532 C30.1308,97.2941 30.1308,97.2941 30.1308,97.2941 Z" style="fill-rule: evenodd; fill: #988db1; "/>
    <path xmlns="http://www.w3.org/2000/svg" d="  M29.4106,85.4101 C29.4106,85.6502 29.1705,85.6502 28.9304,85.6502 C23.6486,85.6502 23.6486,85.6502 23.6486,85.6502 C23.4085,85.6502 23.1684,85.6502 23.1684,85.4101 C23.1684,83.7295 23.1684,83.7295 23.1684,83.7295 C23.1684,83.4895 23.4085,83.2494 23.6486,83.2494 C28.9304,83.2494 28.9304,83.2494 28.9304,83.2494 C29.1705,83.2494 29.4106,83.4895 29.4106,83.7295 C29.4106,85.4101 29.4106,85.4101 29.4106,85.4101 Z M25.3292,86.1304 C25.3292,86.3704 25.3292,86.3704 25.0891,86.3704 C24.6089,86.3704 24.6089,86.3704 24.6089,86.3704 C24.3689,86.3704 24.3689,86.3704 24.3689,86.1304 C24.3689,86.1304 24.3689,86.1304 24.6089,86.1304 C25.0891,86.1304 25.0891,86.1304 25.0891,86.1304 C25.3292,86.1304 25.3292,86.1304 25.3292,86.1304 Z M26.7697,86.1304 C26.7697,86.3704 26.7697,86.3704 26.5296,86.3704 C26.0494,86.3704 26.0494,86.3704 26.0494,86.3704 C25.8093,86.3704 25.8093,86.3704 25.8093,86.1304 C25.8093,86.1304 25.8093,86.1304 26.0494,86.1304 C26.5296,86.1304 26.5296,86.1304 26.5296,86.1304 C26.7697,86.1304 26.7697,86.1304 26.7697,86.1304 Z M28.2102,86.1304 C28.2102,86.3704 28.2102,86.3704 27.9701,86.3704 C27.4899,86.3704 27.4899,86.3704 27.4899,86.3704 C27.2498,86.3704 27.2498,86.3704 27.2498,86.1304 C27.2498,86.1304 27.2498,86.1304 27.4899,86.1304 C27.9701,86.1304 27.9701,86.1304 27.9701,86.1304 C28.2102,86.1304 28.2102,86.1304 28.2102,86.1304 Z M29.4106,97.0541 C29.4106,97.2941 29.1705,97.2941 28.9304,97.2941 C23.6486,97.2941 23.6486,97.2941 23.6486,97.2941 C23.4085,97.2941 23.1684,97.2941 23.1684,97.0541 C23.1684,95.3735 23.1684,95.3735 23.1684,95.3735 C23.1684,95.1334 23.4085,94.8933 23.6486,94.8933 C28.9304,94.8933 28.9304,94.8933 28.9304,94.8933 C29.1705,94.8933 29.4106,95.1334 29.4106,95.3735 C29.4106,97.0541 29.4106,97.0541 29.4106,97.0541 Z M25.3292,97.7743 C25.3292,98.0144 25.3292,98.0144 25.0891,98.0144 C24.6089,98.0144 24.6089,98.0144 24.6089,98.0144 C24.3689,98.0144 24.3689,98.0144 24.3689,97.7743 C24.3689,97.7743 24.3689,97.7743 24.6089,97.7743 C25.0891,97.7743 25.0891,97.7743 25.0891,97.7743 C25.3292,97.7743 25.3292,97.7743 25.3292,97.7743 Z M26.7697,97.7743 C26.7697,98.0144 26.7697,98.0144 26.5296,98.0144 C26.0494,98.0144 26.0494,98.0144 26.0494,98.0144 C25.8093,98.0144 25.8093,98.0144 25.8093,97.7743 C25.8093,97.7743 25.8093,97.7743 26.0494,97.7743 C26.5296,97.7743 26.5296,97.7743 26.5296,97.7743 C26.7697,97.7743 26.7697,97.7743 26.7697,97.7743 Z M28.2102,97.7743 C28.2102,98.0144 28.2102,98.0144 27.9701,98.0144 C27.4899,98.0144 27.4899,98.0144 27.4899,98.0144 C27.2498,98.0144 27.2498,98.0144 27.2498,97.7743 C27.2498,97.7743 27.2498,97.7743 27.4899,97.7743 C27.9701,97.7743 27.9701,97.7743 27.9701,97.7743 C28.2102,97.7743 28.2102,97.7743 28.2102,97.7743 Z" style="fill-rule: evenodd; fill: #171868; "/>
    <text xmlns="http://www.w3.org/2000/svg" x="6.1161" y="178.2343">
      <tspan font-family="Arial" font-size="4.5000" fill="#000000" fill-opacity="1.0000" stroke-opacity="1.0000">
FAS3000 Series</tspan>
    </text>
    <!--converted by libvisio2svg-->
  </g>
</svg>
