<svg xmlns="http://www.w3.org/2000/svg" xmlns:xlink="http://www.w3.org/1999/xlink" version="1.1" width="43.2000000000" height="7.2000000000">
  <title><![CDATA[FAS3000 Series]]></title>
  <g transform=" scale(1.000000) ">
    <g xmlns="http://www.w3.org/2000/svg" id="Layer1008">
      <path d="  M43.2354,7.2281 L43.2354,-4.0557 L0.0208,-4.0557 L0.0208,7.2281 L43.2354,7.2281 Z M43.2354,-4.2958 L43.2354,-15.8197 L0.0208,-15.8197 L0.0208,-4.2958 L43.2354,-4.2958 Z" style="stroke-width: 0.0240; stroke-linecap: round; stroke-linejoin: round; fill-rule: evenodd; fill: #171868; "/>
      <path d="  M43.2354,7.2281 L43.2354,-4.0557 L0.0208,-4.0557 L0.0208,7.2281 L43.2354,7.2281 Z M43.2354,-4.2958 L43.2354,-15.8197 L0.0208,-15.8197 L0.0208,-4.2958 L43.2354,-4.2958 Z" style="stroke-width: 0.0240; stroke: #ffffff; stroke-dasharray: none; stroke-linecap: round; stroke-linejoin: round; fill: none; "/>
    </g>
    <path xmlns="http://www.w3.org/2000/svg" d="  M10.3443,-2.6152 C3.3820,-2.3751 3.3820,-2.1350 3.3820,-1.6549 C3.3820,4.8273 3.3820,4.8273 3.3820,4.8273 C3.3820,5.3075 3.3820,5.5476 10.3443,5.7876 C14.1856,5.7876 18.7472,6.0277 21.6281,6.0277 C24.7492,6.0277 29.3107,5.7876 33.1520,5.7876 C40.1144,5.5476 40.1144,5.3075 40.1144,4.8273 C40.1144,-1.6549 40.1144,-1.6549 40.1144,-1.6549 C40.1144,-2.1350 40.1144,-2.3751 33.1520,-2.6152 C29.3107,-2.8553 24.7492,-2.8553 21.6281,-2.8553 C18.7472,-2.8553 14.1856,-2.8553 10.3443,-2.6152 Z M10.3443,-14.2591 C3.3820,-14.0191 3.3820,-13.7790 3.3820,-13.2988 C3.3820,-6.8166 3.3820,-6.8166 3.3820,-6.8166 C3.3820,-6.3365 3.3820,-6.0964 10.3443,-5.8563 C14.1856,-5.8563 18.7472,-5.6162 21.6281,-5.6162 C24.7492,-5.6162 29.3107,-5.8563 33.1520,-5.8563 C40.1144,-6.0964 40.1144,-6.3365 40.1144,-6.8166 C40.1144,-13.2988 40.1144,-13.2988 40.1144,-13.2988 C40.1144,-13.7790 40.1144,-14.0191 33.1520,-14.2591 C29.3107,-14.4992 24.7492,-14.4992 21.6281,-14.4992 C18.7472,-14.4992 14.1856,-14.4992 10.3443,-14.2591 Z" style="fill-rule: evenodd; fill: #ffffff; "/>
    <path xmlns="http://www.w3.org/2000/svg" d="  M32.6719,-10.1778 C32.6719,-11.8583 32.4318,-13.7790 31.9516,-13.7790 C31.4715,-13.7790 31.4715,-13.7790 31.4715,-13.7790 C31.2314,-13.7790 30.9913,-13.5389 30.9913,-13.2988 C30.9913,-6.8166 30.9913,-6.8166 30.9913,-6.8166 C30.9913,-6.5765 31.2314,-6.5765 31.4715,-6.5765 C31.9516,-6.5765 31.9516,-6.5765 31.9516,-6.5765 C32.4318,-6.5765 32.6719,-8.2571 32.6719,-10.1778 Z M36.0330,-10.1778 C36.0330,-11.8583 35.5528,-13.5389 35.0727,-13.5389 C34.5925,-13.5389 34.5925,-13.5389 34.5925,-13.5389 C34.3524,-13.5389 34.3524,-13.2988 34.3524,-13.0587 C34.3524,-7.0567 34.3524,-7.0567 34.3524,-7.0567 C34.3524,-6.8166 34.3524,-6.5765 34.5925,-6.5765 C35.0727,-6.5765 35.0727,-6.5765 35.0727,-6.5765 C35.5528,-6.5765 36.0330,-8.2571 36.0330,-10.1778 Z M37.4735,-7.0567 C37.4735,-6.8166 37.7136,-6.5765 37.9536,-6.5765 C38.4338,-6.5765 38.4338,-6.5765 38.4338,-6.5765 C38.9140,-6.5765 39.1541,-8.2571 39.1541,-10.1778 C39.1541,-11.8583 38.9140,-13.5389 38.4338,-13.5389 C37.9536,-13.5389 37.9536,-13.5389 37.9536,-13.5389 C37.7136,-13.5389 37.4735,-13.2988 37.4735,-13.0587 C37.4735,-7.0567 37.4735,-7.0567 37.4735,-7.0567 Z M29.7909,-7.0567 C29.7909,-6.5765 29.5508,-6.3365 29.0706,-6.3365 C20.9079,-6.3365 20.9079,-6.3365 20.9079,-6.3365 C20.4277,-6.3365 20.1876,-6.5765 20.1876,-7.0567 C20.1876,-10.4178 20.1876,-10.4178 20.1876,-10.4178 C20.1876,-10.6579 20.4277,-11.1381 20.9079,-11.1381 C29.0706,-11.1381 29.0706,-11.1381 29.0706,-11.1381 C29.5508,-11.1381 29.7909,-10.6579 29.7909,-10.4178 C29.7909,-7.0567 29.7909,-7.0567 29.7909,-7.0567 Z M18.9872,-6.8166 C18.9872,-6.5765 18.7472,-6.3365 18.5071,-6.3365 C18.0269,-6.3365 18.0269,-6.3365 18.0269,-6.3365 C17.5467,-6.3365 17.3067,-8.2571 17.3067,-10.1778 C17.3067,-11.8583 17.5467,-13.7790 18.0269,-13.7790 C18.5071,-13.7790 18.5071,-13.7790 18.5071,-13.7790 C18.7472,-13.7790 18.9872,-13.7790 18.9872,-13.2988 C18.9872,-6.8166 18.9872,-6.8166 18.9872,-6.8166 Z M13.9455,-10.1778 C13.9455,-11.8583 14.4257,-13.7790 14.6658,-13.7790 C15.3860,-13.7790 15.3860,-13.7790 15.3860,-13.7790 C15.6261,-13.7790 15.8662,-13.5389 15.8662,-13.2988 C15.8662,-6.8166 15.8662,-6.8166 15.8662,-6.8166 C15.8662,-6.5765 15.6261,-6.3365 15.3860,-6.3365 C14.6658,-6.3365 14.6658,-6.3365 14.6658,-6.3365 C14.4257,-6.3365 13.9455,-8.2571 13.9455,-10.1778 Z M10.8245,-10.1778 C10.8245,-11.8583 11.0646,-13.7790 11.5447,-13.7790 C12.0249,-13.7790 12.0249,-13.7790 12.0249,-13.7790 C12.2650,-13.7790 12.5050,-13.5389 12.5050,-13.2988 C12.5050,-6.8166 12.5050,-6.8166 12.5050,-6.8166 C12.5050,-6.5765 12.2650,-6.5765 12.0249,-6.5765 C11.5447,-6.5765 11.5447,-6.5765 11.5447,-6.5765 C11.0646,-6.5765 10.8245,-8.2571 10.8245,-10.1778 Z M7.4633,-10.1778 C7.4633,-11.8583 7.9435,-13.5389 8.4237,-13.5389 C8.9038,-13.5389 8.9038,-13.5389 8.9038,-13.5389 C9.1439,-13.5389 9.1439,-13.2988 9.1439,-13.0587 C9.1439,-7.0567 9.1439,-7.0567 9.1439,-7.0567 C9.1439,-6.8166 9.1439,-6.5765 8.9038,-6.5765 C8.4237,-6.5765 8.4237,-6.5765 8.4237,-6.5765 C7.9435,-6.5765 7.4633,-8.2571 7.4633,-10.1778 Z M6.0228,-7.0567 C6.0228,-6.8166 5.7828,-6.5765 5.5427,-6.5765 C5.0625,-6.5765 5.0625,-6.5765 5.0625,-6.5765 C4.5824,-6.5765 4.3423,-8.2571 4.3423,-10.1778 C4.3423,-11.8583 4.5824,-13.5389 5.0625,-13.5389 C5.5427,-13.5389 5.5427,-13.5389 5.5427,-13.5389 C5.7828,-13.5389 6.0228,-13.2988 6.0228,-13.0587 C6.0228,-7.0567 6.0228,-7.0567 6.0228,-7.0567 Z M32.6719,1.4662 C32.6719,-0.2144 32.4318,-2.1350 31.9516,-2.1350 C31.4715,-2.1350 31.4715,-2.1350 31.4715,-2.1350 C31.2314,-2.1350 30.9913,-1.8950 30.9913,-1.6549 C30.9913,4.8273 30.9913,4.8273 30.9913,4.8273 C30.9913,5.0674 31.2314,5.0674 31.4715,5.0674 C31.9516,5.0674 31.9516,5.0674 31.9516,5.0674 C32.4318,5.0674 32.6719,3.3868 32.6719,1.4662 Z M36.0330,1.4662 C36.0330,-0.2144 35.5528,-1.8950 35.0727,-1.8950 C34.5925,-1.8950 34.5925,-1.8950 34.5925,-1.8950 C34.3524,-1.8950 34.3524,-1.6549 34.3524,-1.4148 C34.3524,4.5872 34.3524,4.5872 34.3524,4.5872 C34.3524,4.8273 34.3524,5.0674 34.5925,5.0674 C35.0727,5.0674 35.0727,5.0674 35.0727,5.0674 C35.5528,5.0674 36.0330,3.3868 36.0330,1.4662 Z M37.4735,4.5872 C37.4735,4.8273 37.7136,5.0674 37.9536,5.0674 C38.4338,5.0674 38.4338,5.0674 38.4338,5.0674 C38.9140,5.0674 39.1541,3.3868 39.1541,1.4662 C39.1541,-0.2144 38.9140,-1.8950 38.4338,-1.8950 C37.9536,-1.8950 37.9536,-1.8950 37.9536,-1.8950 C37.7136,-1.8950 37.4735,-1.6549 37.4735,-1.4148 C37.4735,4.5872 37.4735,4.5872 37.4735,4.5872 Z M29.7909,4.5872 C29.7909,5.0674 29.5508,5.3075 29.0706,5.3075 C20.9079,5.3075 20.9079,5.3075 20.9079,5.3075 C20.4277,5.3075 20.1876,5.0674 20.1876,4.5872 C20.1876,1.2261 20.1876,1.2261 20.1876,1.2261 C20.1876,0.9860 20.4277,0.5059 20.9079,0.5059 C29.0706,0.5059 29.0706,0.5059 29.0706,0.5059 C29.5508,0.5059 29.7909,0.9860 29.7909,1.2261 C29.7909,4.5872 29.7909,4.5872 29.7909,4.5872 Z M18.9872,4.8273 C18.9872,5.0674 18.7472,5.3075 18.5071,5.3075 C18.0269,5.3075 18.0269,5.3075 18.0269,5.3075 C17.5467,5.3075 17.3067,3.3868 17.3067,1.4662 C17.3067,-0.2144 17.5467,-2.1350 18.0269,-2.1350 C18.5071,-2.1350 18.5071,-2.1350 18.5071,-2.1350 C18.7472,-2.1350 18.9872,-2.1350 18.9872,-1.6549 C18.9872,4.8273 18.9872,4.8273 18.9872,4.8273 Z M13.9455,1.4662 C13.9455,-0.2144 14.4257,-2.1350 14.6658,-2.1350 C15.3860,-2.1350 15.3860,-2.1350 15.3860,-2.1350 C15.6261,-2.1350 15.8662,-1.8950 15.8662,-1.6549 C15.8662,4.8273 15.8662,4.8273 15.8662,4.8273 C15.8662,5.0674 15.6261,5.3075 15.3860,5.3075 C14.6658,5.3075 14.6658,5.3075 14.6658,5.3075 C14.4257,5.3075 13.9455,3.3868 13.9455,1.4662 Z M10.8245,1.4662 C10.8245,-0.2144 11.0646,-2.1350 11.5447,-2.1350 C12.0249,-2.1350 12.0249,-2.1350 12.0249,-2.1350 C12.2650,-2.1350 12.5050,-1.8950 12.5050,-1.6549 C12.5050,4.8273 12.5050,4.8273 12.5050,4.8273 C12.5050,5.0674 12.2650,5.0674 12.0249,5.0674 C11.5447,5.0674 11.5447,5.0674 11.5447,5.0674 C11.0646,5.0674 10.8245,3.3868 10.8245,1.4662 Z M7.4633,1.4662 C7.4633,-0.2144 7.9435,-1.8950 8.4237,-1.8950 C8.9038,-1.8950 8.9038,-1.8950 8.9038,-1.8950 C9.1439,-1.8950 9.1439,-1.6549 9.1439,-1.4148 C9.1439,4.5872 9.1439,4.5872 9.1439,4.5872 C9.1439,4.8273 9.1439,5.0674 8.9038,5.0674 C8.4237,5.0674 8.4237,5.0674 8.4237,5.0674 C7.9435,5.0674 7.4633,3.3868 7.4633,1.4662 Z M6.0228,4.5872 C6.0228,4.8273 5.7828,5.0674 5.5427,5.0674 C5.0625,5.0674 5.0625,5.0674 5.0625,5.0674 C4.5824,5.0674 4.3423,3.3868 4.3423,1.4662 C4.3423,-0.2144 4.5824,-1.8950 5.0625,-1.8950 C5.5427,-1.8950 5.5427,-1.8950 5.5427,-1.8950 C5.7828,-1.8950 6.0228,-1.6549 6.0228,-1.4148 C6.0228,4.5872 6.0228,4.5872 6.0228,4.5872 Z" style="fill-rule: evenodd; fill: #171868; "/>
    <path xmlns="http://www.w3.org/2000/svg" d="  M28.8306,-6.8166 C28.8306,-6.5765 28.5905,-6.3365 28.3504,-6.3365 C21.6281,-6.3365 21.6281,-6.3365 21.6281,-6.3365 C21.3880,-6.3365 21.1480,-6.5765 21.1480,-6.8166 C21.1480,-9.4575 21.1480,-9.4575 21.1480,-9.4575 C21.1480,-9.9377 21.3880,-10.1778 21.6281,-10.1778 C28.3504,-10.1778 28.3504,-10.1778 28.3504,-10.1778 C28.5905,-10.1778 28.8306,-9.9377 28.8306,-9.4575 C28.8306,-6.8166 28.8306,-6.8166 28.8306,-6.8166 Z M28.8306,4.8273 C28.8306,5.0674 28.5905,5.3075 28.3504,5.3075 C21.6281,5.3075 21.6281,5.3075 21.6281,5.3075 C21.3880,5.3075 21.1480,5.0674 21.1480,4.8273 C21.1480,2.1864 21.1480,2.1864 21.1480,2.1864 C21.1480,1.7063 21.3880,1.4662 21.6281,1.4662 C28.3504,1.4662 28.3504,1.4662 28.3504,1.4662 C28.5905,1.4662 28.8306,1.7063 28.8306,2.1864 C28.8306,4.8273 28.8306,4.8273 28.8306,4.8273 Z" style="fill-rule: evenodd; fill: #988db1; "/>
    <path xmlns="http://www.w3.org/2000/svg" d="  M28.1103,-7.0567 C28.1103,-6.8166 27.8702,-6.8166 27.6302,-6.8166 C22.3484,-6.8166 22.3484,-6.8166 22.3484,-6.8166 C22.1083,-6.8166 21.8682,-6.8166 21.8682,-7.0567 C21.8682,-8.7373 21.8682,-8.7373 21.8682,-8.7373 C21.8682,-8.9774 22.1083,-9.2174 22.3484,-9.2174 C27.6302,-9.2174 27.6302,-9.2174 27.6302,-9.2174 C27.8702,-9.2174 28.1103,-8.9774 28.1103,-8.7373 C28.1103,-7.0567 28.1103,-7.0567 28.1103,-7.0567 Z M24.0289,-6.3365 C24.0289,-6.0964 24.0289,-6.0964 23.7889,-6.0964 C23.3087,-6.0964 23.3087,-6.0964 23.3087,-6.0964 C23.0686,-6.0964 23.0686,-6.0964 23.0686,-6.3365 C23.0686,-6.3365 23.0686,-6.3365 23.3087,-6.3365 C23.7889,-6.3365 23.7889,-6.3365 23.7889,-6.3365 C24.0289,-6.3365 24.0289,-6.3365 24.0289,-6.3365 Z M25.4694,-6.3365 C25.4694,-6.0964 25.4694,-6.0964 25.2293,-6.0964 C24.7492,-6.0964 24.7492,-6.0964 24.7492,-6.0964 C24.5091,-6.0964 24.5091,-6.0964 24.5091,-6.3365 C24.5091,-6.3365 24.5091,-6.3365 24.7492,-6.3365 C25.2293,-6.3365 25.2293,-6.3365 25.2293,-6.3365 C25.4694,-6.3365 25.4694,-6.3365 25.4694,-6.3365 Z M26.9099,-6.3365 C26.9099,-6.0964 26.9099,-6.0964 26.6698,-6.0964 C26.1897,-6.0964 26.1897,-6.0964 26.1897,-6.0964 C25.9496,-6.0964 25.9496,-6.0964 25.9496,-6.3365 C25.9496,-6.3365 25.9496,-6.3365 26.1897,-6.3365 C26.6698,-6.3365 26.6698,-6.3365 26.6698,-6.3365 C26.9099,-6.3365 26.9099,-6.3365 26.9099,-6.3365 Z M28.1103,4.5872 C28.1103,4.8273 27.8702,4.8273 27.6302,4.8273 C22.3484,4.8273 22.3484,4.8273 22.3484,4.8273 C22.1083,4.8273 21.8682,4.8273 21.8682,4.5872 C21.8682,2.9067 21.8682,2.9067 21.8682,2.9067 C21.8682,2.6666 22.1083,2.4265 22.3484,2.4265 C27.6302,2.4265 27.6302,2.4265 27.6302,2.4265 C27.8702,2.4265 28.1103,2.6666 28.1103,2.9067 C28.1103,4.5872 28.1103,4.5872 28.1103,4.5872 Z M24.0289,5.3075 C24.0289,5.5476 24.0289,5.5476 23.7889,5.5476 C23.3087,5.5476 23.3087,5.5476 23.3087,5.5476 C23.0686,5.5476 23.0686,5.5476 23.0686,5.3075 C23.0686,5.3075 23.0686,5.3075 23.3087,5.3075 C23.7889,5.3075 23.7889,5.3075 23.7889,5.3075 C24.0289,5.3075 24.0289,5.3075 24.0289,5.3075 Z M25.4694,5.3075 C25.4694,5.5476 25.4694,5.5476 25.2293,5.5476 C24.7492,5.5476 24.7492,5.5476 24.7492,5.5476 C24.5091,5.5476 24.5091,5.5476 24.5091,5.3075 C24.5091,5.3075 24.5091,5.3075 24.7492,5.3075 C25.2293,5.3075 25.2293,5.3075 25.2293,5.3075 C25.4694,5.3075 25.4694,5.3075 25.4694,5.3075 Z M26.9099,5.3075 C26.9099,5.5476 26.9099,5.5476 26.6698,5.5476 C26.1897,5.5476 26.1897,5.5476 26.1897,5.5476 C25.9496,5.5476 25.9496,5.5476 25.9496,5.3075 C25.9496,5.3075 25.9496,5.3075 26.1897,5.3075 C26.6698,5.3075 26.6698,5.3075 26.6698,5.3075 C26.9099,5.3075 26.9099,5.3075 26.9099,5.3075 Z" style="fill-rule: evenodd; fill: #171868; "/>
    <g xmlns="http://www.w3.org/2000/svg" id="Layer1009">
      <path d="  M43.2281,-15.8197 L0.0281,-15.8197 L1.7881,-18.5184 L41.3081,-18.5184 L43.2281,-15.8197 Z" style="stroke-width: 0.0240; stroke-linecap: round; stroke-linejoin: round; fill-rule: evenodd; fill: #988db1; "/>
      <path d="  M43.2281,-15.8197 L0.0281,-15.8197 L1.7881,-18.5184 L41.3081,-18.5184 L43.2281,-15.8197 Z" style="stroke-width: 0.0240; stroke: #ffffff; stroke-dasharray: none; stroke-linecap: round; stroke-linejoin: round; fill: none; "/>
    </g>
    <text xmlns="http://www.w3.org/2000/svg" x="5.8742" y="11.8824">
      <tspan font-family="Arial" font-size="4.5000" fill="#000000" fill-opacity="1.0000" stroke-opacity="1.0000">
FAS3000 Series</tspan>
    </text>
    <!--converted by libvisio2svg-->
  </g>
</svg>
