<svg xmlns="http://www.w3.org/2000/svg" xmlns:xlink="http://www.w3.org/1999/xlink" version="1.1" width="7.2000000000" height="171.3600000000">
  <title><![CDATA[FAS3020 Series racked]]></title>
  <g transform=" scale(1.000000) ">
    <path xmlns="http://www.w3.org/2000/svg" d="  M45.6166,2.4020 L-3.6000,2.4020 L-0.9591,-1.1992 L43.2158,-1.1992 L45.6166,2.4020 Z" style="fill-rule: evenodd; fill: #b3b3b3; "/>
    <path xmlns="http://www.w3.org/2000/svg" d="  M45.6166,2.4020 L-3.6000,2.4020 L-3.6000,173.8200 L45.6166,173.8200 L45.6166,2.4020 Z" style="fill-rule: evenodd; fill: #7f7f7f; "/>
    <g xmlns="http://www.w3.org/2000/svg" id="Layer1041">
      <path d="  M42.7357,64.7031 L-0.4789,64.7031 L-0.4789,76.4671 L42.7357,76.4671 L42.7357,64.7031 Z M42.7357,88.2310 L-0.4789,88.2310 L-0.4789,76.7072 L42.7357,76.7072 L42.7357,88.2310 Z M42.7357,99.7549 L-0.4789,99.7549 L-0.4789,88.4711 L42.7357,88.4711 L42.7357,99.7549 Z M42.7357,99.9950 L-0.4789,99.9950 L-0.4789,111.5189 L42.7357,111.5189 L42.7357,99.9950 Z M42.7357,53.1792 L-0.4789,53.1792 L-0.4789,64.7031 L42.7357,64.7031 L42.7357,53.1792 Z M42.7357,41.4152 L-0.4789,41.4152 L-0.4789,53.1792 L42.7357,53.1792 L42.7357,41.4152 Z M42.7357,29.8913 L-0.4789,29.8913 L-0.4789,41.4152 L42.7357,41.4152 L42.7357,29.8913 Z M42.7357,18.3674 L-0.4789,18.3674 L-0.4789,29.8913 L42.7357,29.8913 L42.7357,18.3674 Z M42.7357,6.6034 L-0.4789,6.6034 L-0.4789,18.3674 L42.7357,18.3674 L42.7357,6.6034 Z M42.7357,111.5189 L-0.4789,111.5189 L-0.4789,123.0428 L42.7357,123.0428 L42.7357,111.5189 Z M42.7357,123.0428 L-0.4789,123.0428 L-0.4789,134.8068 L42.7357,134.8068 L42.7357,123.0428 Z M42.7357,134.8068 L-0.4789,134.8068 L-0.4789,146.3307 L42.7357,146.3307 L42.7357,134.8068 Z M42.7357,146.3307 L-0.4789,146.3307 L-0.4789,158.0947 L42.7357,158.0947 L42.7357,146.3307 Z M42.7357,158.0947 L-0.4789,158.0947 L-0.4789,169.6186 L42.7357,169.6186 L42.7357,158.0947 Z" style="stroke-width: 0.0240; stroke-linecap: round; stroke-linejoin: round; fill-rule: evenodd; fill: #171868; "/>
      <path d="  M42.7357,64.7031 L-0.4789,64.7031 L-0.4789,76.4671 L42.7357,76.4671 L42.7357,64.7031 Z M42.7357,88.2310 L-0.4789,88.2310 L-0.4789,76.7072 L42.7357,76.7072 L42.7357,88.2310 Z M42.7357,99.7549 L-0.4789,99.7549 L-0.4789,88.4711 L42.7357,88.4711 L42.7357,99.7549 Z M42.7357,99.9950 L-0.4789,99.9950 L-0.4789,111.5189 L42.7357,111.5189 L42.7357,99.9950 Z M42.7357,53.1792 L-0.4789,53.1792 L-0.4789,64.7031 L42.7357,64.7031 L42.7357,53.1792 Z M42.7357,41.4152 L-0.4789,41.4152 L-0.4789,53.1792 L42.7357,53.1792 L42.7357,41.4152 Z M42.7357,29.8913 L-0.4789,29.8913 L-0.4789,41.4152 L42.7357,41.4152 L42.7357,29.8913 Z M42.7357,18.3674 L-0.4789,18.3674 L-0.4789,29.8913 L42.7357,29.8913 L42.7357,18.3674 Z M42.7357,6.6034 L-0.4789,6.6034 L-0.4789,18.3674 L42.7357,18.3674 L42.7357,6.6034 Z M42.7357,111.5189 L-0.4789,111.5189 L-0.4789,123.0428 L42.7357,123.0428 L42.7357,111.5189 Z M42.7357,123.0428 L-0.4789,123.0428 L-0.4789,134.8068 L42.7357,134.8068 L42.7357,123.0428 Z M42.7357,134.8068 L-0.4789,134.8068 L-0.4789,146.3307 L42.7357,146.3307 L42.7357,134.8068 Z M42.7357,146.3307 L-0.4789,146.3307 L-0.4789,158.0947 L42.7357,158.0947 L42.7357,146.3307 Z M42.7357,158.0947 L-0.4789,158.0947 L-0.4789,169.6186 L42.7357,169.6186 L42.7357,158.0947 Z" style="stroke-width: 0.0240; stroke: #ffffff; stroke-dasharray: none; stroke-linecap: round; stroke-linejoin: round; fill: none; "/>
    </g>
    <path xmlns="http://www.w3.org/2000/svg" d="  M9.8445,89.9116 C2.8822,90.1517 2.8822,90.3918 2.8822,90.8719 C2.8822,97.3541 2.8822,97.3541 2.8822,97.3541 C2.8822,97.8343 2.8822,98.0744 9.8445,98.3145 C13.6858,98.3145 18.2474,98.5545 21.1284,98.5545 C24.2494,98.5545 28.8110,98.3145 32.6523,98.3145 C39.6146,98.0744 39.6146,97.8343 39.6146,97.3541 C39.6146,90.8719 39.6146,90.8719 39.6146,90.8719 C39.6146,90.3918 39.6146,90.1517 32.6523,89.9116 C28.8110,89.6715 24.2494,89.6715 21.1284,89.6715 C18.2474,89.6715 13.6858,89.6715 9.8445,89.9116 Z M9.8445,78.2677 C2.8822,78.5078 2.8822,78.7478 2.8822,79.2280 C2.8822,85.7102 2.8822,85.7102 2.8822,85.7102 C2.8822,86.1904 2.8822,86.4304 9.8445,86.6705 C13.6858,86.6705 18.2474,86.9106 21.1284,86.9106 C24.2494,86.9106 28.8110,86.6705 32.6523,86.6705 C39.6146,86.4304 39.6146,86.1904 39.6146,85.7102 C39.6146,79.2280 39.6146,79.2280 39.6146,79.2280 C39.6146,78.7478 39.6146,78.5078 32.6523,78.2677 C28.8110,78.0276 24.2494,78.0276 21.1284,78.0276 C18.2474,78.0276 13.6858,78.0276 9.8445,78.2677 Z" style="fill-rule: evenodd; fill: #ffffff; "/>
    <path xmlns="http://www.w3.org/2000/svg" d="  M16.0867,19.8079 C16.0867,21.2484 16.0867,21.2484 16.0867,21.2484 C17.0470,22.6889 17.5271,23.4091 17.5271,25.8099 C17.5271,25.8099 17.5271,26.0500 17.5271,26.2901 C18.9676,26.2901 18.9676,26.2901 18.9676,26.2901 C18.9676,19.8079 18.9676,19.8079 18.9676,19.8079 C16.0867,19.8079 16.0867,19.8079 16.0867,19.8079 Z M19.9280,19.8079 C19.9280,21.2484 19.9280,21.2484 19.9280,21.2484 C20.6482,22.6889 21.1284,23.4091 21.1284,25.8099 C21.1284,25.8099 21.1284,26.0500 21.1284,26.2901 C22.5689,26.2901 22.5689,26.2901 22.5689,26.2901 C22.5689,19.8079 22.5689,19.8079 22.5689,19.8079 C19.9280,19.8079 19.9280,19.8079 19.9280,19.8079 Z M23.5292,19.8079 C23.5292,21.2484 23.5292,21.2484 23.5292,21.2484 C24.2494,22.6889 24.7296,23.4091 24.7296,25.8099 C24.7296,25.8099 24.7296,26.0500 24.7296,26.2901 C26.1701,26.2901 26.1701,26.2901 26.1701,26.2901 C26.1701,19.8079 26.1701,19.8079 26.1701,19.8079 C23.5292,19.8079 23.5292,19.8079 23.5292,19.8079 Z M27.1304,19.8079 C27.1304,21.2484 27.1304,21.2484 27.1304,21.2484 C27.8506,22.6889 28.5709,23.4091 28.5709,25.8099 C28.5709,25.8099 28.3308,26.0500 28.3308,26.2901 C29.7713,26.2901 29.7713,26.2901 29.7713,26.2901 C29.7713,19.8079 29.7713,19.8079 29.7713,19.8079 C27.1304,19.8079 27.1304,19.8079 27.1304,19.8079 Z M30.7316,19.8079 C30.7316,21.2484 30.7316,21.2484 30.7316,21.2484 C31.4519,22.6889 32.1721,23.4091 32.1721,25.8099 C32.1721,25.8099 32.1721,26.0500 32.1721,26.2901 C33.3725,26.2901 33.3725,26.2901 33.3725,26.2901 C33.3725,19.8079 33.3725,19.8079 33.3725,19.8079 C30.7316,19.8079 30.7316,19.8079 30.7316,19.8079 Z M34.3328,19.8079 C34.3328,21.2484 34.3328,21.2484 34.3328,21.2484 C35.2932,22.6889 35.7733,23.4091 35.7733,25.8099 C35.7733,25.8099 35.7733,26.0500 35.7733,26.2901 C36.9737,26.2901 36.9737,26.2901 36.9737,26.2901 C36.9737,19.8079 36.9737,19.8079 36.9737,19.8079 C34.3328,19.8079 34.3328,19.8079 34.3328,19.8079 Z M37.9340,19.8079 C37.9340,21.2484 37.9340,21.2484 37.9340,21.2484 C38.8944,22.6889 39.3745,23.4091 39.3745,25.8099 C39.3745,25.8099 39.3745,26.0500 39.3745,26.2901 C40.5749,26.2901 40.5749,26.2901 40.5749,26.2901 C40.5749,19.8079 40.5749,19.8079 40.5749,19.8079 C37.9340,19.8079 37.9340,19.8079 37.9340,19.8079 Z M1.6818,19.8079 C1.6818,21.2484 1.6818,21.2484 1.6818,21.2484 C2.4020,22.6889 2.8822,23.4091 2.8822,25.8099 C2.8822,25.8099 2.8822,26.0500 2.8822,26.2901 C4.3227,26.2901 4.3227,26.2901 4.3227,26.2901 C4.3227,19.8079 4.3227,19.8079 4.3227,19.8079 C1.6818,19.8079 1.6818,19.8079 1.6818,19.8079 Z M5.2830,19.8079 C5.2830,21.2484 5.2830,21.2484 5.2830,21.2484 C6.0032,22.6889 6.7235,23.4091 6.7235,25.8099 C6.7235,25.8099 6.4834,26.0500 6.4834,26.2901 C7.9239,26.2901 7.9239,26.2901 7.9239,26.2901 C7.9239,19.8079 7.9239,19.8079 7.9239,19.8079 C5.2830,19.8079 5.2830,19.8079 5.2830,19.8079 Z M8.8842,19.8079 C8.8842,21.2484 8.8842,21.2484 8.8842,21.2484 C9.6045,22.6889 10.3247,23.4091 10.3247,25.8099 C10.3247,25.8099 10.3247,26.0500 10.3247,26.2901 C11.5251,26.2901 11.5251,26.2901 11.5251,26.2901 C11.5251,19.8079 11.5251,19.8079 11.5251,19.8079 C8.8842,19.8079 8.8842,19.8079 8.8842,19.8079 Z M12.4854,19.8079 C12.4854,21.2484 12.4854,21.2484 12.4854,21.2484 C13.4458,22.6889 13.9259,23.4091 13.9259,25.8099 C13.9259,25.8099 13.9259,26.0500 13.9259,26.2901 C15.1263,26.2901 15.1263,26.2901 15.1263,26.2901 C15.1263,19.8079 15.1263,19.8079 15.1263,19.8079 C12.4854,19.8079 12.4854,19.8079 12.4854,19.8079 Z M16.0867,8.2840 C16.0867,9.7245 16.0867,9.7245 16.0867,9.7245 C17.0470,10.9249 17.5271,11.8852 17.5271,14.0460 C17.5271,14.2860 17.5271,14.5261 17.5271,14.5261 C18.9676,14.5261 18.9676,14.5261 18.9676,14.5261 C18.9676,8.2840 18.9676,8.2840 18.9676,8.2840 C16.0867,8.2840 16.0867,8.2840 16.0867,8.2840 Z M19.9280,8.2840 C19.9280,9.7245 19.9280,9.7245 19.9280,9.7245 C20.6482,10.9249 21.1284,11.8852 21.1284,14.0460 C21.1284,14.2860 21.1284,14.5261 21.1284,14.5261 C22.5689,14.5261 22.5689,14.5261 22.5689,14.5261 C22.5689,8.2840 22.5689,8.2840 22.5689,8.2840 C19.9280,8.2840 19.9280,8.2840 19.9280,8.2840 Z M23.5292,8.2840 C23.5292,9.7245 23.5292,9.7245 23.5292,9.7245 C24.2494,10.9249 24.7296,11.8852 24.7296,14.0460 C24.7296,14.2860 24.7296,14.5261 24.7296,14.5261 C26.1701,14.5261 26.1701,14.5261 26.1701,14.5261 C26.1701,8.2840 26.1701,8.2840 26.1701,8.2840 C23.5292,8.2840 23.5292,8.2840 23.5292,8.2840 Z M27.1304,8.2840 C27.1304,9.7245 27.1304,9.7245 27.1304,9.7245 C27.8506,10.9249 28.5709,11.8852 28.5709,14.0460 C28.5709,14.2860 28.3308,14.5261 28.3308,14.5261 C29.7713,14.5261 29.7713,14.5261 29.7713,14.5261 C29.7713,8.2840 29.7713,8.2840 29.7713,8.2840 C27.1304,8.2840 27.1304,8.2840 27.1304,8.2840 Z M30.7316,8.2840 C30.7316,9.7245 30.7316,9.7245 30.7316,9.7245 C31.4519,10.9249 32.1721,11.8852 32.1721,14.0460 C32.1721,14.2860 32.1721,14.5261 32.1721,14.5261 C33.3725,14.5261 33.3725,14.5261 33.3725,14.5261 C33.3725,8.2840 33.3725,8.2840 33.3725,8.2840 C30.7316,8.2840 30.7316,8.2840 30.7316,8.2840 Z M34.3328,8.2840 C34.3328,9.7245 34.3328,9.7245 34.3328,9.7245 C35.2932,10.9249 35.7733,11.8852 35.7733,14.0460 C35.7733,14.2860 35.7733,14.5261 35.7733,14.5261 C36.9737,14.5261 36.9737,14.5261 36.9737,14.5261 C36.9737,8.2840 36.9737,8.2840 36.9737,8.2840 C34.3328,8.2840 34.3328,8.2840 34.3328,8.2840 Z M37.9340,8.2840 C37.9340,9.7245 37.9340,9.7245 37.9340,9.7245 C38.8944,10.9249 39.3745,11.8852 39.3745,14.0460 C39.3745,14.2860 39.3745,14.5261 39.3745,14.5261 C40.5749,14.5261 40.5749,14.5261 40.5749,14.5261 C40.5749,8.2840 40.5749,8.2840 40.5749,8.2840 C37.9340,8.2840 37.9340,8.2840 37.9340,8.2840 Z M1.6818,8.2840 C1.6818,9.7245 1.6818,9.7245 1.6818,9.7245 C2.4020,10.9249 2.8822,11.8852 2.8822,14.0460 C2.8822,14.2860 2.8822,14.5261 2.8822,14.5261 C4.3227,14.5261 4.3227,14.5261 4.3227,14.5261 C4.3227,8.2840 4.3227,8.2840 4.3227,8.2840 C1.6818,8.2840 1.6818,8.2840 1.6818,8.2840 Z M5.2830,8.2840 C5.2830,9.7245 5.2830,9.7245 5.2830,9.7245 C6.0032,10.9249 6.7235,11.8852 6.7235,14.0460 C6.7235,14.2860 6.4834,14.5261 6.4834,14.5261 C7.9239,14.5261 7.9239,14.5261 7.9239,14.5261 C7.9239,8.2840 7.9239,8.2840 7.9239,8.2840 C5.2830,8.2840 5.2830,8.2840 5.2830,8.2840 Z M8.8842,8.2840 C8.8842,9.7245 8.8842,9.7245 8.8842,9.7245 C9.6045,10.9249 10.3247,11.8852 10.3247,14.0460 C10.3247,14.2860 10.3247,14.5261 10.3247,14.5261 C11.5251,14.5261 11.5251,14.5261 11.5251,14.5261 C11.5251,8.2840 11.5251,8.2840 11.5251,8.2840 C8.8842,8.2840 8.8842,8.2840 8.8842,8.2840 Z M12.4854,8.2840 C12.4854,9.7245 12.4854,9.7245 12.4854,9.7245 C13.4458,10.9249 13.9259,11.8852 13.9259,14.0460 C13.9259,14.2860 13.9259,14.5261 13.9259,14.5261 C15.1263,14.5261 15.1263,14.5261 15.1263,14.5261 C15.1263,8.2840 15.1263,8.2840 15.1263,8.2840 C12.4854,8.2840 12.4854,8.2840 12.4854,8.2840 Z M16.0867,54.8598 C16.0867,56.3002 16.0867,56.3002 16.0867,56.3002 C17.0470,57.5007 17.5271,58.2209 17.5271,60.6217 C17.5271,60.8618 17.5271,60.8618 17.5271,61.1019 C18.9676,61.1019 18.9676,61.1019 18.9676,61.1019 C18.9676,54.8598 18.9676,54.8598 18.9676,54.8598 C16.0867,54.8598 16.0867,54.8598 16.0867,54.8598 Z M19.9280,54.8598 C19.9280,56.3002 19.9280,56.3002 19.9280,56.3002 C20.6482,57.5007 21.1284,58.2209 21.1284,60.6217 C21.1284,60.8618 21.1284,60.8618 21.1284,61.1019 C22.5689,61.1019 22.5689,61.1019 22.5689,61.1019 C22.5689,54.8598 22.5689,54.8598 22.5689,54.8598 C19.9280,54.8598 19.9280,54.8598 19.9280,54.8598 Z M23.5292,54.8598 C23.5292,56.3002 23.5292,56.3002 23.5292,56.3002 C24.2494,57.5007 24.7296,58.2209 24.7296,60.6217 C24.7296,60.8618 24.7296,60.8618 24.7296,61.1019 C26.1701,61.1019 26.1701,61.1019 26.1701,61.1019 C26.1701,54.8598 26.1701,54.8598 26.1701,54.8598 C23.5292,54.8598 23.5292,54.8598 23.5292,54.8598 Z M27.1304,54.8598 C27.1304,56.3002 27.1304,56.3002 27.1304,56.3002 C27.8506,57.5007 28.5709,58.2209 28.5709,60.6217 C28.5709,60.8618 28.3308,60.8618 28.3308,61.1019 C29.7713,61.1019 29.7713,61.1019 29.7713,61.1019 C29.7713,54.8598 29.7713,54.8598 29.7713,54.8598 C27.1304,54.8598 27.1304,54.8598 27.1304,54.8598 Z M30.7316,54.8598 C30.7316,56.3002 30.7316,56.3002 30.7316,56.3002 C31.4519,57.5007 32.1721,58.2209 32.1721,60.6217 C32.1721,60.8618 32.1721,60.8618 32.1721,61.1019 C33.3725,61.1019 33.3725,61.1019 33.3725,61.1019 C33.3725,54.8598 33.3725,54.8598 33.3725,54.8598 C30.7316,54.8598 30.7316,54.8598 30.7316,54.8598 Z M34.3328,54.8598 C34.3328,56.3002 34.3328,56.3002 34.3328,56.3002 C35.2932,57.5007 35.7733,58.2209 35.7733,60.6217 C35.7733,60.8618 35.7733,60.8618 35.7733,61.1019 C36.9737,61.1019 36.9737,61.1019 36.9737,61.1019 C36.9737,54.8598 36.9737,54.8598 36.9737,54.8598 C34.3328,54.8598 34.3328,54.8598 34.3328,54.8598 Z M37.9340,54.8598 C37.9340,56.3002 37.9340,56.3002 37.9340,56.3002 C38.8944,57.5007 39.3745,58.2209 39.3745,60.6217 C39.3745,60.8618 39.3745,60.8618 39.3745,61.1019 C40.5749,61.1019 40.5749,61.1019 40.5749,61.1019 C40.5749,54.8598 40.5749,54.8598 40.5749,54.8598 C37.9340,54.8598 37.9340,54.8598 37.9340,54.8598 Z M1.6818,54.8598 C1.6818,56.3002 1.6818,56.3002 1.6818,56.3002 C2.4020,57.5007 2.8822,58.2209 2.8822,60.6217 C2.8822,60.8618 2.8822,60.8618 2.8822,61.1019 C4.3227,61.1019 4.3227,61.1019 4.3227,61.1019 C4.3227,54.8598 4.3227,54.8598 4.3227,54.8598 C1.6818,54.8598 1.6818,54.8598 1.6818,54.8598 Z M5.2830,54.8598 C5.2830,56.3002 5.2830,56.3002 5.2830,56.3002 C6.0032,57.5007 6.7235,58.2209 6.7235,60.6217 C6.7235,60.8618 6.4834,60.8618 6.4834,61.1019 C7.9239,61.1019 7.9239,61.1019 7.9239,61.1019 C7.9239,54.8598 7.9239,54.8598 7.9239,54.8598 C5.2830,54.8598 5.2830,54.8598 5.2830,54.8598 Z M8.8842,54.8598 C8.8842,56.3002 8.8842,56.3002 8.8842,56.3002 C9.6045,57.5007 10.3247,58.2209 10.3247,60.6217 C10.3247,60.8618 10.3247,60.8618 10.3247,61.1019 C11.5251,61.1019 11.5251,61.1019 11.5251,61.1019 C11.5251,54.8598 11.5251,54.8598 11.5251,54.8598 C8.8842,54.8598 8.8842,54.8598 8.8842,54.8598 Z M12.4854,54.8598 C12.4854,56.3002 12.4854,56.3002 12.4854,56.3002 C13.4458,57.5007 13.9259,58.2209 13.9259,60.6217 C13.9259,60.8618 13.9259,60.8618 13.9259,61.1019 C15.1263,61.1019 15.1263,61.1019 15.1263,61.1019 C15.1263,54.8598 15.1263,54.8598 15.1263,54.8598 C12.4854,54.8598 12.4854,54.8598 12.4854,54.8598 Z M34.3328,66.3837 C34.3328,67.8241 34.3328,67.8241 34.3328,67.8241 C35.2932,69.2646 35.7733,69.9849 35.7733,72.1456 C35.7733,72.3857 35.7733,72.6258 35.7733,72.8659 C36.9737,72.8659 36.9737,72.8659 36.9737,72.8659 C36.9737,66.3837 36.9737,66.3837 36.9737,66.3837 C34.3328,66.3837 34.3328,66.3837 34.3328,66.3837 Z M37.9340,66.3837 C37.9340,67.8241 37.9340,67.8241 37.9340,67.8241 C38.8944,69.2646 39.3745,69.9849 39.3745,72.1456 C39.3745,72.3857 39.3745,72.6258 39.3745,72.8659 C40.5749,72.8659 40.5749,72.8659 40.5749,72.8659 C40.5749,66.3837 40.5749,66.3837 40.5749,66.3837 C37.9340,66.3837 37.9340,66.3837 37.9340,66.3837 Z M27.1304,66.3837 C27.1304,67.8241 27.1304,67.8241 27.1304,67.8241 C27.8506,69.2646 28.5709,69.9849 28.5709,72.1456 C28.5709,72.3857 28.3308,72.6258 28.3308,72.8659 C29.7713,72.8659 29.7713,72.8659 29.7713,72.8659 C29.7713,66.3837 29.7713,66.3837 29.7713,66.3837 C27.1304,66.3837 27.1304,66.3837 27.1304,66.3837 Z M30.7316,66.3837 C30.7316,67.8241 30.7316,67.8241 30.7316,67.8241 C31.4519,69.2646 32.1721,69.9849 32.1721,72.1456 C32.1721,72.3857 32.1721,72.6258 32.1721,72.8659 C33.3725,72.8659 33.3725,72.8659 33.3725,72.8659 C33.3725,66.3837 33.3725,66.3837 33.3725,66.3837 C30.7316,66.3837 30.7316,66.3837 30.7316,66.3837 Z M23.5292,66.3837 C23.5292,67.8241 23.5292,67.8241 23.5292,67.8241 C24.2494,69.2646 24.7296,69.9849 24.7296,72.1456 C24.7296,72.3857 24.7296,72.6258 24.7296,72.8659 C26.1701,72.8659 26.1701,72.8659 26.1701,72.8659 C26.1701,66.3837 26.1701,66.3837 26.1701,66.3837 C23.5292,66.3837 23.5292,66.3837 23.5292,66.3837 Z M16.0867,66.3837 C16.0867,67.8241 16.0867,67.8241 16.0867,67.8241 C17.0470,69.2646 17.5271,69.9849 17.5271,72.1456 C17.5271,72.3857 17.5271,72.6258 17.5271,72.8659 C18.9676,72.8659 18.9676,72.8659 18.9676,72.8659 C18.9676,66.3837 18.9676,66.3837 18.9676,66.3837 C16.0867,66.3837 16.0867,66.3837 16.0867,66.3837 Z M19.9280,66.3837 C19.9280,67.8241 19.9280,67.8241 19.9280,67.8241 C20.6482,69.2646 21.1284,69.9849 21.1284,72.1456 C21.1284,72.3857 21.1284,72.6258 21.1284,72.8659 C22.5689,72.8659 22.5689,72.8659 22.5689,72.8659 C22.5689,66.3837 22.5689,66.3837 22.5689,66.3837 C19.9280,66.3837 19.9280,66.3837 19.9280,66.3837 Z M8.8842,66.3837 C8.8842,67.8241 8.8842,67.8241 8.8842,67.8241 C9.6045,69.2646 10.3247,69.9849 10.3247,72.1456 C10.3247,72.3857 10.3247,72.6258 10.3247,72.8659 C11.5251,72.8659 11.5251,72.8659 11.5251,72.8659 C11.5251,66.3837 11.5251,66.3837 11.5251,66.3837 C8.8842,66.3837 8.8842,66.3837 8.8842,66.3837 Z M12.4854,66.3837 C12.4854,67.8241 12.4854,67.8241 12.4854,67.8241 C13.4458,69.2646 13.9259,69.9849 13.9259,72.1456 C13.9259,72.3857 13.9259,72.6258 13.9259,72.8659 C15.1263,72.8659 15.1263,72.8659 15.1263,72.8659 C15.1263,66.3837 15.1263,66.3837 15.1263,66.3837 C12.4854,66.3837 12.4854,66.3837 12.4854,66.3837 Z M5.2830,66.3837 C5.2830,67.8241 5.2830,67.8241 5.2830,67.8241 C6.0032,69.2646 6.7235,69.9849 6.7235,72.1456 C6.7235,72.3857 6.4834,72.6258 6.4834,72.8659 C7.9239,72.8659 7.9239,72.8659 7.9239,72.8659 C7.9239,66.3837 7.9239,66.3837 7.9239,66.3837 C5.2830,66.3837 5.2830,66.3837 5.2830,66.3837 Z M1.6818,66.3837 C1.6818,67.8241 1.6818,67.8241 1.6818,67.8241 C2.4020,69.2646 2.8822,69.9849 2.8822,72.1456 C2.8822,72.3857 2.8822,72.6258 2.8822,72.8659 C4.3227,72.8659 4.3227,72.8659 4.3227,72.8659 C4.3227,66.3837 4.3227,66.3837 4.3227,66.3837 C1.6818,66.3837 1.6818,66.3837 1.6818,66.3837 Z M16.0867,43.0958 C16.0867,44.5363 16.0867,44.5363 16.0867,44.5363 C17.0470,45.9768 17.5271,46.6970 17.5271,48.8577 C17.5271,49.0978 17.5271,49.3379 17.5271,49.5780 C18.9676,49.5780 18.9676,49.5780 18.9676,49.5780 C18.9676,43.0958 18.9676,43.0958 18.9676,43.0958 C16.0867,43.0958 16.0867,43.0958 16.0867,43.0958 Z M19.9280,43.0958 C19.9280,44.5363 19.9280,44.5363 19.9280,44.5363 C20.6482,45.9768 21.1284,46.6970 21.1284,48.8577 C21.1284,49.0978 21.1284,49.3379 21.1284,49.5780 C22.5689,49.5780 22.5689,49.5780 22.5689,49.5780 C22.5689,43.0958 22.5689,43.0958 22.5689,43.0958 C19.9280,43.0958 19.9280,43.0958 19.9280,43.0958 Z M23.5292,43.0958 C23.5292,44.5363 23.5292,44.5363 23.5292,44.5363 C24.2494,45.9768 24.7296,46.6970 24.7296,48.8577 C24.7296,49.0978 24.7296,49.3379 24.7296,49.5780 C26.1701,49.5780 26.1701,49.5780 26.1701,49.5780 C26.1701,43.0958 26.1701,43.0958 26.1701,43.0958 C23.5292,43.0958 23.5292,43.0958 23.5292,43.0958 Z M27.1304,43.0958 C27.1304,44.5363 27.1304,44.5363 27.1304,44.5363 C27.8506,45.9768 28.5709,46.6970 28.5709,48.8577 C28.5709,49.0978 28.3308,49.3379 28.3308,49.5780 C29.7713,49.5780 29.7713,49.5780 29.7713,49.5780 C29.7713,43.0958 29.7713,43.0958 29.7713,43.0958 C27.1304,43.0958 27.1304,43.0958 27.1304,43.0958 Z M30.7316,43.0958 C30.7316,44.5363 30.7316,44.5363 30.7316,44.5363 C31.4519,45.9768 32.1721,46.6970 32.1721,48.8577 C32.1721,49.0978 32.1721,49.3379 32.1721,49.5780 C33.3725,49.5780 33.3725,49.5780 33.3725,49.5780 C33.3725,43.0958 33.3725,43.0958 33.3725,43.0958 C30.7316,43.0958 30.7316,43.0958 30.7316,43.0958 Z M34.3328,43.0958 C34.3328,44.5363 34.3328,44.5363 34.3328,44.5363 C35.2932,45.9768 35.7733,46.6970 35.7733,48.8577 C35.7733,49.0978 35.7733,49.3379 35.7733,49.5780 C36.9737,49.5780 36.9737,49.5780 36.9737,49.5780 C36.9737,43.0958 36.9737,43.0958 36.9737,43.0958 C34.3328,43.0958 34.3328,43.0958 34.3328,43.0958 Z M37.9340,43.0958 C37.9340,44.5363 37.9340,44.5363 37.9340,44.5363 C38.8944,45.9768 39.3745,46.6970 39.3745,48.8577 C39.3745,49.0978 39.3745,49.3379 39.3745,49.5780 C40.5749,49.5780 40.5749,49.5780 40.5749,49.5780 C40.5749,43.0958 40.5749,43.0958 40.5749,43.0958 C37.9340,43.0958 37.9340,43.0958 37.9340,43.0958 Z M1.6818,43.0958 C1.6818,44.5363 1.6818,44.5363 1.6818,44.5363 C2.4020,45.9768 2.8822,46.6970 2.8822,48.8577 C2.8822,49.0978 2.8822,49.3379 2.8822,49.5780 C4.3227,49.5780 4.3227,49.5780 4.3227,49.5780 C4.3227,43.0958 4.3227,43.0958 4.3227,43.0958 C1.6818,43.0958 1.6818,43.0958 1.6818,43.0958 Z M5.2830,43.0958 C5.2830,44.5363 5.2830,44.5363 5.2830,44.5363 C6.0032,45.9768 6.7235,46.6970 6.7235,48.8577 C6.7235,49.0978 6.4834,49.3379 6.4834,49.5780 C7.9239,49.5780 7.9239,49.5780 7.9239,49.5780 C7.9239,43.0958 7.9239,43.0958 7.9239,43.0958 C5.2830,43.0958 5.2830,43.0958 5.2830,43.0958 Z M8.8842,43.0958 C8.8842,44.5363 8.8842,44.5363 8.8842,44.5363 C9.6045,45.9768 10.3247,46.6970 10.3247,48.8577 C10.3247,49.0978 10.3247,49.3379 10.3247,49.5780 C11.5251,49.5780 11.5251,49.5780 11.5251,49.5780 C11.5251,43.0958 11.5251,43.0958 11.5251,43.0958 C8.8842,43.0958 8.8842,43.0958 8.8842,43.0958 Z M12.4854,43.0958 C12.4854,44.5363 12.4854,44.5363 12.4854,44.5363 C13.4458,45.9768 13.9259,46.6970 13.9259,48.8577 C13.9259,49.0978 13.9259,49.3379 13.9259,49.5780 C15.1263,49.5780 15.1263,49.5780 15.1263,49.5780 C15.1263,43.0958 15.1263,43.0958 15.1263,43.0958 C12.4854,43.0958 12.4854,43.0958 12.4854,43.0958 Z M1.6818,31.5719 C1.6818,33.0124 1.6818,33.0124 1.6818,33.0124 C2.4020,34.2128 2.8822,34.9330 2.8822,37.3338 C2.8822,37.5739 2.8822,37.8140 2.8822,37.8140 C4.3227,37.8140 4.3227,37.8140 4.3227,37.8140 C4.3227,31.5719 4.3227,31.5719 4.3227,31.5719 C1.6818,31.5719 1.6818,31.5719 1.6818,31.5719 Z M5.2830,31.5719 C5.2830,33.0124 5.2830,33.0124 5.2830,33.0124 C6.0032,34.2128 6.7235,34.9330 6.7235,37.3338 C6.7235,37.5739 6.4834,37.8140 6.4834,37.8140 C7.9239,37.8140 7.9239,37.8140 7.9239,37.8140 C7.9239,31.5719 7.9239,31.5719 7.9239,31.5719 C5.2830,31.5719 5.2830,31.5719 5.2830,31.5719 Z M8.8842,31.5719 C8.8842,33.0124 8.8842,33.0124 8.8842,33.0124 C9.6045,34.2128 10.3247,34.9330 10.3247,37.3338 C10.3247,37.5739 10.3247,37.8140 10.3247,37.8140 C11.5251,37.8140 11.5251,37.8140 11.5251,37.8140 C11.5251,31.5719 11.5251,31.5719 11.5251,31.5719 C8.8842,31.5719 8.8842,31.5719 8.8842,31.5719 Z M12.4854,31.5719 C12.4854,33.0124 12.4854,33.0124 12.4854,33.0124 C13.4458,34.2128 13.9259,34.9330 13.9259,37.3338 C13.9259,37.5739 13.9259,37.8140 13.9259,37.8140 C15.1263,37.8140 15.1263,37.8140 15.1263,37.8140 C15.1263,31.5719 15.1263,31.5719 15.1263,31.5719 C12.4854,31.5719 12.4854,31.5719 12.4854,31.5719 Z M16.0867,31.5719 C16.0867,33.0124 16.0867,33.0124 16.0867,33.0124 C17.0470,34.2128 17.5271,34.9330 17.5271,37.3338 C17.5271,37.5739 17.5271,37.8140 17.5271,37.8140 C18.9676,37.8140 18.9676,37.8140 18.9676,37.8140 C18.9676,31.5719 18.9676,31.5719 18.9676,31.5719 C16.0867,31.5719 16.0867,31.5719 16.0867,31.5719 Z M19.9280,31.5719 C19.9280,33.0124 19.9280,33.0124 19.9280,33.0124 C20.6482,34.2128 21.1284,34.9330 21.1284,37.3338 C21.1284,37.5739 21.1284,37.8140 21.1284,37.8140 C22.5689,37.8140 22.5689,37.8140 22.5689,37.8140 C22.5689,31.5719 22.5689,31.5719 22.5689,31.5719 C19.9280,31.5719 19.9280,31.5719 19.9280,31.5719 Z M23.5292,31.5719 C23.5292,33.0124 23.5292,33.0124 23.5292,33.0124 C24.2494,34.2128 24.7296,34.9330 24.7296,37.3338 C24.7296,37.5739 24.7296,37.8140 24.7296,37.8140 C26.1701,37.8140 26.1701,37.8140 26.1701,37.8140 C26.1701,31.5719 26.1701,31.5719 26.1701,31.5719 C23.5292,31.5719 23.5292,31.5719 23.5292,31.5719 Z M27.1304,31.5719 C27.1304,33.0124 27.1304,33.0124 27.1304,33.0124 C27.8506,34.2128 28.5709,34.9330 28.5709,37.3338 C28.5709,37.5739 28.3308,37.8140 28.3308,37.8140 C29.7713,37.8140 29.7713,37.8140 29.7713,37.8140 C29.7713,31.5719 29.7713,31.5719 29.7713,31.5719 C27.1304,31.5719 27.1304,31.5719 27.1304,31.5719 Z M30.7316,31.5719 C30.7316,33.0124 30.7316,33.0124 30.7316,33.0124 C31.4519,34.2128 32.1721,34.9330 32.1721,37.3338 C32.1721,37.5739 32.1721,37.8140 32.1721,37.8140 C33.3725,37.8140 33.3725,37.8140 33.3725,37.8140 C33.3725,31.5719 33.3725,31.5719 33.3725,31.5719 C30.7316,31.5719 30.7316,31.5719 30.7316,31.5719 Z M34.3328,31.5719 C34.3328,33.0124 34.3328,33.0124 34.3328,33.0124 C35.2932,34.2128 35.7733,34.9330 35.7733,37.3338 C35.7733,37.5739 35.7733,37.8140 35.7733,37.8140 C36.9737,37.8140 36.9737,37.8140 36.9737,37.8140 C36.9737,31.5719 36.9737,31.5719 36.9737,31.5719 C34.3328,31.5719 34.3328,31.5719 34.3328,31.5719 Z M37.9340,31.5719 C37.9340,33.0124 37.9340,33.0124 37.9340,33.0124 C38.8944,34.2128 39.3745,34.9330 39.3745,37.3338 C39.3745,37.5739 39.3745,37.8140 39.3745,37.8140 C40.5749,37.8140 40.5749,37.8140 40.5749,37.8140 C40.5749,31.5719 40.5749,31.5719 40.5749,31.5719 C37.9340,31.5719 37.9340,31.5719 37.9340,31.5719 Z M16.0867,148.0113 C16.0867,149.4518 16.0867,149.4518 16.0867,149.4518 C17.0470,150.8922 17.5271,151.6125 17.5271,153.7732 C17.5271,154.0133 17.5271,154.2534 17.5271,154.4935 C18.9676,154.4935 18.9676,154.4935 18.9676,154.4935 C18.9676,148.0113 18.9676,148.0113 18.9676,148.0113 C16.0867,148.0113 16.0867,148.0113 16.0867,148.0113 Z M19.9280,148.0113 C19.9280,149.4518 19.9280,149.4518 19.9280,149.4518 C20.6482,150.8922 21.1284,151.6125 21.1284,153.7732 C21.1284,154.0133 21.1284,154.2534 21.1284,154.4935 C22.5689,154.4935 22.5689,154.4935 22.5689,154.4935 C22.5689,148.0113 22.5689,148.0113 22.5689,148.0113 C19.9280,148.0113 19.9280,148.0113 19.9280,148.0113 Z M23.5292,148.0113 C23.5292,149.4518 23.5292,149.4518 23.5292,149.4518 C24.2494,150.8922 24.7296,151.6125 24.7296,153.7732 C24.7296,154.0133 24.7296,154.2534 24.7296,154.4935 C26.1701,154.4935 26.1701,154.4935 26.1701,154.4935 C26.1701,148.0113 26.1701,148.0113 26.1701,148.0113 C23.5292,148.0113 23.5292,148.0113 23.5292,148.0113 Z M27.1304,148.0113 C27.1304,149.4518 27.1304,149.4518 27.1304,149.4518 C27.8506,150.8922 28.5709,151.6125 28.5709,153.7732 C28.5709,154.0133 28.3308,154.2534 28.3308,154.4935 C29.7713,154.4935 29.7713,154.4935 29.7713,154.4935 C29.7713,148.0113 29.7713,148.0113 29.7713,148.0113 C27.1304,148.0113 27.1304,148.0113 27.1304,148.0113 Z M30.7316,148.0113 C30.7316,149.4518 30.7316,149.4518 30.7316,149.4518 C31.4519,150.8922 32.1721,151.6125 32.1721,153.7732 C32.1721,154.0133 32.1721,154.2534 32.1721,154.4935 C33.3725,154.4935 33.3725,154.4935 33.3725,154.4935 C33.3725,148.0113 33.3725,148.0113 33.3725,148.0113 C30.7316,148.0113 30.7316,148.0113 30.7316,148.0113 Z M34.3328,148.0113 C34.3328,149.4518 34.3328,149.4518 34.3328,149.4518 C35.2932,150.8922 35.7733,151.6125 35.7733,153.7732 C35.7733,154.0133 35.7733,154.2534 35.7733,154.4935 C36.9737,154.4935 36.9737,154.4935 36.9737,154.4935 C36.9737,148.0113 36.9737,148.0113 36.9737,148.0113 C34.3328,148.0113 34.3328,148.0113 34.3328,148.0113 Z M37.9340,148.0113 C37.9340,149.4518 37.9340,149.4518 37.9340,149.4518 C38.8944,150.8922 39.3745,151.6125 39.3745,153.7732 C39.3745,154.0133 39.3745,154.2534 39.3745,154.4935 C40.5749,154.4935 40.5749,154.4935 40.5749,154.4935 C40.5749,148.0113 40.5749,148.0113 40.5749,148.0113 C37.9340,148.0113 37.9340,148.0113 37.9340,148.0113 Z M1.6818,148.0113 C1.6818,149.4518 1.6818,149.4518 1.6818,149.4518 C2.4020,150.8922 2.8822,151.6125 2.8822,153.7732 C2.8822,154.0133 2.8822,154.2534 2.8822,154.4935 C4.3227,154.4935 4.3227,154.4935 4.3227,154.4935 C4.3227,148.0113 4.3227,148.0113 4.3227,148.0113 C1.6818,148.0113 1.6818,148.0113 1.6818,148.0113 Z M5.2830,148.0113 C5.2830,149.4518 5.2830,149.4518 5.2830,149.4518 C6.0032,150.8922 6.7235,151.6125 6.7235,153.7732 C6.7235,154.0133 6.4834,154.2534 6.4834,154.4935 C7.9239,154.4935 7.9239,154.4935 7.9239,154.4935 C7.9239,148.0113 7.9239,148.0113 7.9239,148.0113 C5.2830,148.0113 5.2830,148.0113 5.2830,148.0113 Z M8.8842,148.0113 C8.8842,149.4518 8.8842,149.4518 8.8842,149.4518 C9.6045,150.8922 10.3247,151.6125 10.3247,153.7732 C10.3247,154.0133 10.3247,154.2534 10.3247,154.4935 C11.5251,154.4935 11.5251,154.4935 11.5251,154.4935 C11.5251,148.0113 11.5251,148.0113 11.5251,148.0113 C8.8842,148.0113 8.8842,148.0113 8.8842,148.0113 Z M12.4854,148.0113 C12.4854,149.4518 12.4854,149.4518 12.4854,149.4518 C13.4458,150.8922 13.9259,151.6125 13.9259,153.7732 C13.9259,154.0133 13.9259,154.2534 13.9259,154.4935 C15.1263,154.4935 15.1263,154.4935 15.1263,154.4935 C15.1263,148.0113 15.1263,148.0113 15.1263,148.0113 C12.4854,148.0113 12.4854,148.0113 12.4854,148.0113 Z M1.6818,159.7752 C1.6818,161.2157 1.6818,161.2157 1.6818,161.2157 C2.4020,162.4161 2.8822,163.1364 2.8822,165.5372 C2.8822,165.7773 2.8822,165.7773 2.8822,166.0174 C4.3227,166.0174 4.3227,166.0174 4.3227,166.0174 C4.3227,159.7752 4.3227,159.7752 4.3227,159.7752 C1.6818,159.7752 1.6818,159.7752 1.6818,159.7752 Z M5.2830,159.7752 C5.2830,161.2157 5.2830,161.2157 5.2830,161.2157 C6.0032,162.4161 6.7235,163.1364 6.7235,165.5372 C6.7235,165.7773 6.4834,165.7773 6.4834,166.0174 C7.9239,166.0174 7.9239,166.0174 7.9239,166.0174 C7.9239,159.7752 7.9239,159.7752 7.9239,159.7752 C5.2830,159.7752 5.2830,159.7752 5.2830,159.7752 Z M8.8842,159.7752 C8.8842,161.2157 8.8842,161.2157 8.8842,161.2157 C9.6045,162.4161 10.3247,163.1364 10.3247,165.5372 C10.3247,165.7773 10.3247,165.7773 10.3247,166.0174 C11.5251,166.0174 11.5251,166.0174 11.5251,166.0174 C11.5251,159.7752 11.5251,159.7752 11.5251,159.7752 C8.8842,159.7752 8.8842,159.7752 8.8842,159.7752 Z M12.4854,159.7752 C12.4854,161.2157 12.4854,161.2157 12.4854,161.2157 C13.4458,162.4161 13.9259,163.1364 13.9259,165.5372 C13.9259,165.7773 13.9259,165.7773 13.9259,166.0174 C15.1263,166.0174 15.1263,166.0174 15.1263,166.0174 C15.1263,159.7752 15.1263,159.7752 15.1263,159.7752 C12.4854,159.7752 12.4854,159.7752 12.4854,159.7752 Z M16.0867,159.7752 C16.0867,161.2157 16.0867,161.2157 16.0867,161.2157 C17.0470,162.4161 17.5271,163.1364 17.5271,165.5372 C17.5271,165.7773 17.5271,165.7773 17.5271,166.0174 C18.9676,166.0174 18.9676,166.0174 18.9676,166.0174 C18.9676,159.7752 18.9676,159.7752 18.9676,159.7752 C16.0867,159.7752 16.0867,159.7752 16.0867,159.7752 Z M19.9280,159.7752 C19.9280,161.2157 19.9280,161.2157 19.9280,161.2157 C20.6482,162.4161 21.1284,163.1364 21.1284,165.5372 C21.1284,165.7773 21.1284,165.7773 21.1284,166.0174 C22.5689,166.0174 22.5689,166.0174 22.5689,166.0174 C22.5689,159.7752 22.5689,159.7752 22.5689,159.7752 C19.9280,159.7752 19.9280,159.7752 19.9280,159.7752 Z M23.5292,159.7752 C23.5292,161.2157 23.5292,161.2157 23.5292,161.2157 C24.2494,162.4161 24.7296,163.1364 24.7296,165.5372 C24.7296,165.7773 24.7296,165.7773 24.7296,166.0174 C26.1701,166.0174 26.1701,166.0174 26.1701,166.0174 C26.1701,159.7752 26.1701,159.7752 26.1701,159.7752 C23.5292,159.7752 23.5292,159.7752 23.5292,159.7752 Z M27.1304,159.7752 C27.1304,161.2157 27.1304,161.2157 27.1304,161.2157 C27.8506,162.4161 28.5709,163.1364 28.5709,165.5372 C28.5709,165.7773 28.3308,165.7773 28.3308,166.0174 C29.7713,166.0174 29.7713,166.0174 29.7713,166.0174 C29.7713,159.7752 29.7713,159.7752 29.7713,159.7752 C27.1304,159.7752 27.1304,159.7752 27.1304,159.7752 Z M30.7316,159.7752 C30.7316,161.2157 30.7316,161.2157 30.7316,161.2157 C31.4519,162.4161 32.1721,163.1364 32.1721,165.5372 C32.1721,165.7773 32.1721,165.7773 32.1721,166.0174 C33.3725,166.0174 33.3725,166.0174 33.3725,166.0174 C33.3725,159.7752 33.3725,159.7752 33.3725,159.7752 C30.7316,159.7752 30.7316,159.7752 30.7316,159.7752 Z M34.3328,159.7752 C34.3328,161.2157 34.3328,161.2157 34.3328,161.2157 C35.2932,162.4161 35.7733,163.1364 35.7733,165.5372 C35.7733,165.7773 35.7733,165.7773 35.7733,166.0174 C36.9737,166.0174 36.9737,166.0174 36.9737,166.0174 C36.9737,159.7752 36.9737,159.7752 36.9737,159.7752 C34.3328,159.7752 34.3328,159.7752 34.3328,159.7752 Z M37.9340,159.7752 C37.9340,161.2157 37.9340,161.2157 37.9340,161.2157 C38.8944,162.4161 39.3745,163.1364 39.3745,165.5372 C39.3745,165.7773 39.3745,165.7773 39.3745,166.0174 C40.5749,166.0174 40.5749,166.0174 40.5749,166.0174 C40.5749,159.7752 40.5749,159.7752 40.5749,159.7752 C37.9340,159.7752 37.9340,159.7752 37.9340,159.7752 Z M1.6818,124.7234 C1.6818,126.1639 1.6818,126.1639 1.6818,126.1639 C2.4020,127.6044 2.8822,128.3246 2.8822,130.4853 C2.8822,130.7254 2.8822,130.9655 2.8822,131.2056 C4.3227,131.2056 4.3227,131.2056 4.3227,131.2056 C4.3227,124.7234 4.3227,124.7234 4.3227,124.7234 C1.6818,124.7234 1.6818,124.7234 1.6818,124.7234 Z M5.2830,124.7234 C5.2830,126.1639 5.2830,126.1639 5.2830,126.1639 C6.0032,127.6044 6.7235,128.3246 6.7235,130.4853 C6.7235,130.7254 6.4834,130.9655 6.4834,131.2056 C7.9239,131.2056 7.9239,131.2056 7.9239,131.2056 C7.9239,124.7234 7.9239,124.7234 7.9239,124.7234 C5.2830,124.7234 5.2830,124.7234 5.2830,124.7234 Z M8.8842,124.7234 C8.8842,126.1639 8.8842,126.1639 8.8842,126.1639 C9.6045,127.6044 10.3247,128.3246 10.3247,130.4853 C10.3247,130.7254 10.3247,130.9655 10.3247,131.2056 C11.5251,131.2056 11.5251,131.2056 11.5251,131.2056 C11.5251,124.7234 11.5251,124.7234 11.5251,124.7234 C8.8842,124.7234 8.8842,124.7234 8.8842,124.7234 Z M12.4854,124.7234 C12.4854,126.1639 12.4854,126.1639 12.4854,126.1639 C13.4458,127.6044 13.9259,128.3246 13.9259,130.4853 C13.9259,130.7254 13.9259,130.9655 13.9259,131.2056 C15.1263,131.2056 15.1263,131.2056 15.1263,131.2056 C15.1263,124.7234 15.1263,124.7234 15.1263,124.7234 C12.4854,124.7234 12.4854,124.7234 12.4854,124.7234 Z M16.0867,124.7234 C16.0867,126.1639 16.0867,126.1639 16.0867,126.1639 C17.0470,127.6044 17.5271,128.3246 17.5271,130.4853 C17.5271,130.7254 17.5271,130.9655 17.5271,131.2056 C18.9676,131.2056 18.9676,131.2056 18.9676,131.2056 C18.9676,124.7234 18.9676,124.7234 18.9676,124.7234 C16.0867,124.7234 16.0867,124.7234 16.0867,124.7234 Z M19.9280,124.7234 C19.9280,126.1639 19.9280,126.1639 19.9280,126.1639 C20.6482,127.6044 21.1284,128.3246 21.1284,130.4853 C21.1284,130.7254 21.1284,130.9655 21.1284,131.2056 C22.5689,131.2056 22.5689,131.2056 22.5689,131.2056 C22.5689,124.7234 22.5689,124.7234 22.5689,124.7234 C19.9280,124.7234 19.9280,124.7234 19.9280,124.7234 Z M23.5292,124.7234 C23.5292,126.1639 23.5292,126.1639 23.5292,126.1639 C24.2494,127.6044 24.7296,128.3246 24.7296,130.4853 C24.7296,130.7254 24.7296,130.9655 24.7296,131.2056 C26.1701,131.2056 26.1701,131.2056 26.1701,131.2056 C26.1701,124.7234 26.1701,124.7234 26.1701,124.7234 C23.5292,124.7234 23.5292,124.7234 23.5292,124.7234 Z M27.1304,124.7234 C27.1304,126.1639 27.1304,126.1639 27.1304,126.1639 C27.8506,127.6044 28.5709,128.3246 28.5709,130.4853 C28.5709,130.7254 28.3308,130.9655 28.3308,131.2056 C29.7713,131.2056 29.7713,131.2056 29.7713,131.2056 C29.7713,124.7234 29.7713,124.7234 29.7713,124.7234 C27.1304,124.7234 27.1304,124.7234 27.1304,124.7234 Z M30.7316,124.7234 C30.7316,126.1639 30.7316,126.1639 30.7316,126.1639 C31.4519,127.6044 32.1721,128.3246 32.1721,130.4853 C32.1721,130.7254 32.1721,130.9655 32.1721,131.2056 C33.3725,131.2056 33.3725,131.2056 33.3725,131.2056 C33.3725,124.7234 33.3725,124.7234 33.3725,124.7234 C30.7316,124.7234 30.7316,124.7234 30.7316,124.7234 Z M34.3328,124.7234 C34.3328,126.1639 34.3328,126.1639 34.3328,126.1639 C35.2932,127.6044 35.7733,128.3246 35.7733,130.4853 C35.7733,130.7254 35.7733,130.9655 35.7733,131.2056 C36.9737,131.2056 36.9737,131.2056 36.9737,131.2056 C36.9737,124.7234 36.9737,124.7234 36.9737,124.7234 C34.3328,124.7234 34.3328,124.7234 34.3328,124.7234 Z M37.9340,124.7234 C37.9340,126.1639 37.9340,126.1639 37.9340,126.1639 C38.8944,127.6044 39.3745,128.3246 39.3745,130.4853 C39.3745,130.7254 39.3745,130.9655 39.3745,131.2056 C40.5749,131.2056 40.5749,131.2056 40.5749,131.2056 C40.5749,124.7234 40.5749,124.7234 40.5749,124.7234 C37.9340,124.7234 37.9340,124.7234 37.9340,124.7234 Z M1.6818,136.4874 C1.6818,137.9279 1.6818,137.9279 1.6818,137.9279 C2.4020,139.1283 2.8822,139.8485 2.8822,142.2493 C2.8822,142.4894 2.8822,142.4894 2.8822,142.7295 C4.3227,142.7295 4.3227,142.7295 4.3227,142.7295 C4.3227,136.4874 4.3227,136.4874 4.3227,136.4874 C1.6818,136.4874 1.6818,136.4874 1.6818,136.4874 Z M5.2830,136.4874 C5.2830,137.9279 5.2830,137.9279 5.2830,137.9279 C6.0032,139.1283 6.7235,139.8485 6.7235,142.2493 C6.7235,142.4894 6.4834,142.4894 6.4834,142.7295 C7.9239,142.7295 7.9239,142.7295 7.9239,142.7295 C7.9239,136.4874 7.9239,136.4874 7.9239,136.4874 C5.2830,136.4874 5.2830,136.4874 5.2830,136.4874 Z M8.8842,136.4874 C8.8842,137.9279 8.8842,137.9279 8.8842,137.9279 C9.6045,139.1283 10.3247,139.8485 10.3247,142.2493 C10.3247,142.4894 10.3247,142.4894 10.3247,142.7295 C11.5251,142.7295 11.5251,142.7295 11.5251,142.7295 C11.5251,136.4874 11.5251,136.4874 11.5251,136.4874 C8.8842,136.4874 8.8842,136.4874 8.8842,136.4874 Z M12.4854,136.4874 C12.4854,137.9279 12.4854,137.9279 12.4854,137.9279 C13.4458,139.1283 13.9259,139.8485 13.9259,142.2493 C13.9259,142.4894 13.9259,142.4894 13.9259,142.7295 C15.1263,142.7295 15.1263,142.7295 15.1263,142.7295 C15.1263,136.4874 15.1263,136.4874 15.1263,136.4874 C12.4854,136.4874 12.4854,136.4874 12.4854,136.4874 Z M16.0867,136.4874 C16.0867,137.9279 16.0867,137.9279 16.0867,137.9279 C17.0470,139.1283 17.5271,139.8485 17.5271,142.2493 C17.5271,142.4894 17.5271,142.4894 17.5271,142.7295 C18.9676,142.7295 18.9676,142.7295 18.9676,142.7295 C18.9676,136.4874 18.9676,136.4874 18.9676,136.4874 C16.0867,136.4874 16.0867,136.4874 16.0867,136.4874 Z M19.9280,136.4874 C19.9280,137.9279 19.9280,137.9279 19.9280,137.9279 C20.6482,139.1283 21.1284,139.8485 21.1284,142.2493 C21.1284,142.4894 21.1284,142.4894 21.1284,142.7295 C22.5689,142.7295 22.5689,142.7295 22.5689,142.7295 C22.5689,136.4874 22.5689,136.4874 22.5689,136.4874 C19.9280,136.4874 19.9280,136.4874 19.9280,136.4874 Z M23.5292,136.4874 C23.5292,137.9279 23.5292,137.9279 23.5292,137.9279 C24.2494,139.1283 24.7296,139.8485 24.7296,142.2493 C24.7296,142.4894 24.7296,142.4894 24.7296,142.7295 C26.1701,142.7295 26.1701,142.7295 26.1701,142.7295 C26.1701,136.4874 26.1701,136.4874 26.1701,136.4874 C23.5292,136.4874 23.5292,136.4874 23.5292,136.4874 Z M27.1304,136.4874 C27.1304,137.9279 27.1304,137.9279 27.1304,137.9279 C27.8506,139.1283 28.5709,139.8485 28.5709,142.2493 C28.5709,142.4894 28.3308,142.4894 28.3308,142.7295 C29.7713,142.7295 29.7713,142.7295 29.7713,142.7295 C29.7713,136.4874 29.7713,136.4874 29.7713,136.4874 C27.1304,136.4874 27.1304,136.4874 27.1304,136.4874 Z M30.7316,136.4874 C30.7316,137.9279 30.7316,137.9279 30.7316,137.9279 C31.4519,139.1283 32.1721,139.8485 32.1721,142.2493 C32.1721,142.4894 32.1721,142.4894 32.1721,142.7295 C33.3725,142.7295 33.3725,142.7295 33.3725,142.7295 C33.3725,136.4874 33.3725,136.4874 33.3725,136.4874 C30.7316,136.4874 30.7316,136.4874 30.7316,136.4874 Z M34.3328,136.4874 C34.3328,137.9279 34.3328,137.9279 34.3328,137.9279 C35.2932,139.1283 35.7733,139.8485 35.7733,142.2493 C35.7733,142.4894 35.7733,142.4894 35.7733,142.7295 C36.9737,142.7295 36.9737,142.7295 36.9737,142.7295 C36.9737,136.4874 36.9737,136.4874 36.9737,136.4874 C34.3328,136.4874 34.3328,136.4874 34.3328,136.4874 Z M37.9340,136.4874 C37.9340,137.9279 37.9340,137.9279 37.9340,137.9279 C38.8944,139.1283 39.3745,139.8485 39.3745,142.2493 C39.3745,142.4894 39.3745,142.4894 39.3745,142.7295 C40.5749,142.7295 40.5749,142.7295 40.5749,142.7295 C40.5749,136.4874 40.5749,136.4874 40.5749,136.4874 C37.9340,136.4874 37.9340,136.4874 37.9340,136.4874 Z M16.0867,113.1995 C16.0867,114.6400 16.0867,114.6400 16.0867,114.6400 C17.0470,115.8404 17.5271,116.5606 17.5271,118.9614 C17.5271,119.2015 17.5271,119.4416 17.5271,119.4416 C18.9676,119.4416 18.9676,119.4416 18.9676,119.4416 C18.9676,113.1995 18.9676,113.1995 18.9676,113.1995 C16.0867,113.1995 16.0867,113.1995 16.0867,113.1995 Z M19.9280,113.1995 C19.9280,114.6400 19.9280,114.6400 19.9280,114.6400 C20.6482,115.8404 21.1284,116.5606 21.1284,118.9614 C21.1284,119.2015 21.1284,119.4416 21.1284,119.4416 C22.5689,119.4416 22.5689,119.4416 22.5689,119.4416 C22.5689,113.1995 22.5689,113.1995 22.5689,113.1995 C19.9280,113.1995 19.9280,113.1995 19.9280,113.1995 Z M23.5292,113.1995 C23.5292,114.6400 23.5292,114.6400 23.5292,114.6400 C24.2494,115.8404 24.7296,116.5606 24.7296,118.9614 C24.7296,119.2015 24.7296,119.4416 24.7296,119.4416 C26.1701,119.4416 26.1701,119.4416 26.1701,119.4416 C26.1701,113.1995 26.1701,113.1995 26.1701,113.1995 C23.5292,113.1995 23.5292,113.1995 23.5292,113.1995 Z M27.1304,113.1995 C27.1304,114.6400 27.1304,114.6400 27.1304,114.6400 C27.8506,115.8404 28.5709,116.5606 28.5709,118.9614 C28.5709,119.2015 28.3308,119.4416 28.3308,119.4416 C29.7713,119.4416 29.7713,119.4416 29.7713,119.4416 C29.7713,113.1995 29.7713,113.1995 29.7713,113.1995 C27.1304,113.1995 27.1304,113.1995 27.1304,113.1995 Z M30.7316,113.1995 C30.7316,114.6400 30.7316,114.6400 30.7316,114.6400 C31.4519,115.8404 32.1721,116.5606 32.1721,118.9614 C32.1721,119.2015 32.1721,119.4416 32.1721,119.4416 C33.3725,119.4416 33.3725,119.4416 33.3725,119.4416 C33.3725,113.1995 33.3725,113.1995 33.3725,113.1995 C30.7316,113.1995 30.7316,113.1995 30.7316,113.1995 Z M1.6818,113.1995 C1.6818,114.6400 1.6818,114.6400 1.6818,114.6400 C2.4020,115.8404 2.8822,116.5606 2.8822,118.9614 C2.8822,119.2015 2.8822,119.4416 2.8822,119.4416 C4.3227,119.4416 4.3227,119.4416 4.3227,119.4416 C4.3227,113.1995 4.3227,113.1995 4.3227,113.1995 C1.6818,113.1995 1.6818,113.1995 1.6818,113.1995 Z M5.2830,113.1995 C5.2830,114.6400 5.2830,114.6400 5.2830,114.6400 C6.0032,115.8404 6.7235,116.5606 6.7235,118.9614 C6.7235,119.2015 6.4834,119.4416 6.4834,119.4416 C7.9239,119.4416 7.9239,119.4416 7.9239,119.4416 C7.9239,113.1995 7.9239,113.1995 7.9239,113.1995 C5.2830,113.1995 5.2830,113.1995 5.2830,113.1995 Z M8.8842,113.1995 C8.8842,114.6400 8.8842,114.6400 8.8842,114.6400 C9.6045,115.8404 10.3247,116.5606 10.3247,118.9614 C10.3247,119.2015 10.3247,119.4416 10.3247,119.4416 C11.5251,119.4416 11.5251,119.4416 11.5251,119.4416 C11.5251,113.1995 11.5251,113.1995 11.5251,113.1995 C8.8842,113.1995 8.8842,113.1995 8.8842,113.1995 Z M12.4854,113.1995 C12.4854,114.6400 12.4854,114.6400 12.4854,114.6400 C13.4458,115.8404 13.9259,116.5606 13.9259,118.9614 C13.9259,119.2015 13.9259,119.4416 13.9259,119.4416 C15.1263,119.4416 15.1263,119.4416 15.1263,119.4416 C15.1263,113.1995 15.1263,113.1995 15.1263,113.1995 C12.4854,113.1995 12.4854,113.1995 12.4854,113.1995 Z M34.3328,113.1995 C34.3328,114.6400 34.3328,114.6400 34.3328,114.6400 C35.2932,115.8404 35.7733,116.5606 35.7733,118.9614 C35.7733,119.2015 35.7733,119.4416 35.7733,119.4416 C36.9737,119.4416 36.9737,119.4416 36.9737,119.4416 C36.9737,113.1995 36.9737,113.1995 36.9737,113.1995 C34.3328,113.1995 34.3328,113.1995 34.3328,113.1995 Z M37.9340,113.1995 C37.9340,114.6400 37.9340,114.6400 37.9340,114.6400 C38.8944,115.8404 39.3745,116.5606 39.3745,118.9614 C39.3745,119.2015 39.3745,119.4416 39.3745,119.4416 C40.5749,119.4416 40.5749,119.4416 40.5749,119.4416 C40.5749,113.1995 40.5749,113.1995 40.5749,113.1995 C37.9340,113.1995 37.9340,113.1995 37.9340,113.1995 Z M8.8842,101.4355 C8.8842,102.8760 8.8842,102.8760 8.8842,102.8760 C9.6045,104.3165 10.3247,105.0367 10.3247,107.4375 C10.3247,107.4375 10.3247,107.6776 10.3247,107.9177 C11.5251,107.9177 11.5251,107.9177 11.5251,107.9177 C11.5251,101.4355 11.5251,101.4355 11.5251,101.4355 C8.8842,101.4355 8.8842,101.4355 8.8842,101.4355 Z M12.4854,101.4355 C12.4854,102.8760 12.4854,102.8760 12.4854,102.8760 C13.4458,104.3165 13.9259,105.0367 13.9259,107.4375 C13.9259,107.4375 13.9259,107.6776 13.9259,107.9177 C15.1263,107.9177 15.1263,107.9177 15.1263,107.9177 C15.1263,101.4355 15.1263,101.4355 15.1263,101.4355 C12.4854,101.4355 12.4854,101.4355 12.4854,101.4355 Z M16.0867,101.4355 C16.0867,102.8760 16.0867,102.8760 16.0867,102.8760 C17.0470,104.3165 17.5271,105.0367 17.5271,107.4375 C17.5271,107.4375 17.5271,107.6776 17.5271,107.9177 C18.9676,107.9177 18.9676,107.9177 18.9676,107.9177 C18.9676,101.4355 18.9676,101.4355 18.9676,101.4355 C16.0867,101.4355 16.0867,101.4355 16.0867,101.4355 Z M19.9280,101.4355 C19.9280,102.8760 19.9280,102.8760 19.9280,102.8760 C20.6482,104.3165 21.1284,105.0367 21.1284,107.4375 C21.1284,107.4375 21.1284,107.6776 21.1284,107.9177 C22.5689,107.9177 22.5689,107.9177 22.5689,107.9177 C22.5689,101.4355 22.5689,101.4355 22.5689,101.4355 C19.9280,101.4355 19.9280,101.4355 19.9280,101.4355 Z M23.5292,101.4355 C23.5292,102.8760 23.5292,102.8760 23.5292,102.8760 C24.2494,104.3165 24.7296,105.0367 24.7296,107.4375 C24.7296,107.4375 24.7296,107.6776 24.7296,107.9177 C26.1701,107.9177 26.1701,107.9177 26.1701,107.9177 C26.1701,101.4355 26.1701,101.4355 26.1701,101.4355 C23.5292,101.4355 23.5292,101.4355 23.5292,101.4355 Z M27.1304,101.4355 C27.1304,102.8760 27.1304,102.8760 27.1304,102.8760 C27.8506,104.3165 28.5709,105.0367 28.5709,107.4375 C28.5709,107.4375 28.3308,107.6776 28.3308,107.9177 C29.7713,107.9177 29.7713,107.9177 29.7713,107.9177 C29.7713,101.4355 29.7713,101.4355 29.7713,101.4355 C27.1304,101.4355 27.1304,101.4355 27.1304,101.4355 Z M30.7316,101.4355 C30.7316,102.8760 30.7316,102.8760 30.7316,102.8760 C31.4519,104.3165 32.1721,105.0367 32.1721,107.4375 C32.1721,107.4375 32.1721,107.6776 32.1721,107.9177 C33.3725,107.9177 33.3725,107.9177 33.3725,107.9177 C33.3725,101.4355 33.3725,101.4355 33.3725,101.4355 C30.7316,101.4355 30.7316,101.4355 30.7316,101.4355 Z M34.3328,101.4355 C34.3328,102.8760 34.3328,102.8760 34.3328,102.8760 C35.2932,104.3165 35.7733,105.0367 35.7733,107.4375 C35.7733,107.4375 35.7733,107.6776 35.7733,107.9177 C36.9737,107.9177 36.9737,107.9177 36.9737,107.9177 C36.9737,101.4355 36.9737,101.4355 36.9737,101.4355 C34.3328,101.4355 34.3328,101.4355 34.3328,101.4355 Z M37.9340,101.4355 C37.9340,102.8760 37.9340,102.8760 37.9340,102.8760 C38.8944,104.3165 39.3745,105.0367 39.3745,107.4375 C39.3745,107.4375 39.3745,107.6776 39.3745,107.9177 C40.5749,107.9177 40.5749,107.9177 40.5749,107.9177 C40.5749,101.4355 40.5749,101.4355 40.5749,101.4355 C37.9340,101.4355 37.9340,101.4355 37.9340,101.4355 Z M1.6818,101.4355 C1.6818,102.8760 1.6818,102.8760 1.6818,102.8760 C2.4020,104.3165 2.8822,105.0367 2.8822,107.4375 C2.8822,107.4375 2.8822,107.6776 2.8822,107.9177 C4.3227,107.9177 4.3227,107.9177 4.3227,107.9177 C4.3227,101.4355 4.3227,101.4355 4.3227,101.4355 C1.6818,101.4355 1.6818,101.4355 1.6818,101.4355 Z M5.2830,101.4355 C5.2830,102.8760 5.2830,102.8760 5.2830,102.8760 C6.0032,104.3165 6.7235,105.0367 6.7235,107.4375 C6.7235,107.4375 6.4834,107.6776 6.4834,107.9177 C7.9239,107.9177 7.9239,107.9177 7.9239,107.9177 C7.9239,101.4355 7.9239,101.4355 7.9239,101.4355 C5.2830,101.4355 5.2830,101.4355 5.2830,101.4355 Z" style="fill-rule: evenodd; fill: #8275a3; "/>
    <path xmlns="http://www.w3.org/2000/svg" d="  M32.1721,82.3491 C32.1721,80.6685 31.9320,78.7478 31.4519,78.7478 C30.9717,78.7478 30.9717,78.7478 30.9717,78.7478 C30.7316,78.7478 30.4915,78.9879 30.4915,79.2280 C30.4915,85.7102 30.4915,85.7102 30.4915,85.7102 C30.4915,85.9503 30.7316,85.9503 30.9717,85.9503 C31.4519,85.9503 31.4519,85.9503 31.4519,85.9503 C31.9320,85.9503 32.1721,84.2697 32.1721,82.3491 Z M35.5332,82.3491 C35.5332,80.6685 35.0531,78.9879 34.5729,78.9879 C34.0928,78.9879 34.0928,78.9879 34.0928,78.9879 C33.8527,78.9879 33.8527,79.2280 33.8527,79.4681 C33.8527,85.4701 33.8527,85.4701 33.8527,85.4701 C33.8527,85.7102 33.8527,85.9503 34.0928,85.9503 C34.5729,85.9503 34.5729,85.9503 34.5729,85.9503 C35.0531,85.9503 35.5332,84.2697 35.5332,82.3491 Z M36.9737,85.4701 C36.9737,85.7102 37.2138,85.9503 37.4539,85.9503 C37.9340,85.9503 37.9340,85.9503 37.9340,85.9503 C38.4142,85.9503 38.6543,84.2697 38.6543,82.3491 C38.6543,80.6685 38.4142,78.9879 37.9340,78.9879 C37.4539,78.9879 37.4539,78.9879 37.4539,78.9879 C37.2138,78.9879 36.9737,79.2280 36.9737,79.4681 C36.9737,85.4701 36.9737,85.4701 36.9737,85.4701 Z M29.2911,85.4701 C29.2911,85.9503 29.0510,86.1904 28.5709,86.1904 C20.4081,86.1904 20.4081,86.1904 20.4081,86.1904 C19.9280,86.1904 19.6879,85.9503 19.6879,85.4701 C19.6879,82.1090 19.6879,82.1090 19.6879,82.1090 C19.6879,81.8689 19.9280,81.3887 20.4081,81.3887 C28.5709,81.3887 28.5709,81.3887 28.5709,81.3887 C29.0510,81.3887 29.2911,81.8689 29.2911,82.1090 C29.2911,85.4701 29.2911,85.4701 29.2911,85.4701 Z M18.4875,85.7102 C18.4875,85.9503 18.2474,86.1904 18.0073,86.1904 C17.5271,86.1904 17.5271,86.1904 17.5271,86.1904 C17.0470,86.1904 16.8069,84.2697 16.8069,82.3491 C16.8069,80.6685 17.0470,78.7478 17.5271,78.7478 C18.0073,78.7478 18.0073,78.7478 18.0073,78.7478 C18.2474,78.7478 18.4875,78.7478 18.4875,79.2280 C18.4875,85.7102 18.4875,85.7102 18.4875,85.7102 Z M13.4458,82.3491 C13.4458,80.6685 13.9259,78.7478 14.1660,78.7478 C14.8863,78.7478 14.8863,78.7478 14.8863,78.7478 C15.1263,78.7478 15.3664,78.9879 15.3664,79.2280 C15.3664,85.7102 15.3664,85.7102 15.3664,85.7102 C15.3664,85.9503 15.1263,86.1904 14.8863,86.1904 C14.1660,86.1904 14.1660,86.1904 14.1660,86.1904 C13.9259,86.1904 13.4458,84.2697 13.4458,82.3491 Z M10.3247,82.3491 C10.3247,80.6685 10.5648,78.7478 11.0450,78.7478 C11.5251,78.7478 11.5251,78.7478 11.5251,78.7478 C11.7652,78.7478 12.0053,78.9879 12.0053,79.2280 C12.0053,85.7102 12.0053,85.7102 12.0053,85.7102 C12.0053,85.9503 11.7652,85.9503 11.5251,85.9503 C11.0450,85.9503 11.0450,85.9503 11.0450,85.9503 C10.5648,85.9503 10.3247,84.2697 10.3247,82.3491 Z M6.9636,82.3491 C6.9636,80.6685 7.4437,78.9879 7.9239,78.9879 C8.4041,78.9879 8.4041,78.9879 8.4041,78.9879 C8.6441,78.9879 8.6441,79.2280 8.6441,79.4681 C8.6441,85.4701 8.6441,85.4701 8.6441,85.4701 C8.6441,85.7102 8.6441,85.9503 8.4041,85.9503 C7.9239,85.9503 7.9239,85.9503 7.9239,85.9503 C7.4437,85.9503 6.9636,84.2697 6.9636,82.3491 Z M5.5231,85.4701 C5.5231,85.7102 5.2830,85.9503 5.0429,85.9503 C4.5628,85.9503 4.5628,85.9503 4.5628,85.9503 C4.0826,85.9503 3.8425,84.2697 3.8425,82.3491 C3.8425,80.6685 4.0826,78.9879 4.5628,78.9879 C5.0429,78.9879 5.0429,78.9879 5.0429,78.9879 C5.2830,78.9879 5.5231,79.2280 5.5231,79.4681 C5.5231,85.4701 5.5231,85.4701 5.5231,85.4701 Z M32.1721,93.9930 C32.1721,92.3124 31.9320,90.3918 31.4519,90.3918 C30.9717,90.3918 30.9717,90.3918 30.9717,90.3918 C30.7316,90.3918 30.4915,90.6319 30.4915,90.8719 C30.4915,97.3541 30.4915,97.3541 30.4915,97.3541 C30.4915,97.5942 30.7316,97.5942 30.9717,97.5942 C31.4519,97.5942 31.4519,97.5942 31.4519,97.5942 C31.9320,97.5942 32.1721,95.9136 32.1721,93.9930 Z M35.5332,93.9930 C35.5332,92.3124 35.0531,90.6319 34.5729,90.6319 C34.0928,90.6319 34.0928,90.6319 34.0928,90.6319 C33.8527,90.6319 33.8527,90.8719 33.8527,91.1120 C33.8527,97.1141 33.8527,97.1141 33.8527,97.1141 C33.8527,97.3541 33.8527,97.5942 34.0928,97.5942 C34.5729,97.5942 34.5729,97.5942 34.5729,97.5942 C35.0531,97.5942 35.5332,95.9136 35.5332,93.9930 Z M36.9737,97.1141 C36.9737,97.3541 37.2138,97.5942 37.4539,97.5942 C37.9340,97.5942 37.9340,97.5942 37.9340,97.5942 C38.4142,97.5942 38.6543,95.9136 38.6543,93.9930 C38.6543,92.3124 38.4142,90.6319 37.9340,90.6319 C37.4539,90.6319 37.4539,90.6319 37.4539,90.6319 C37.2138,90.6319 36.9737,90.8719 36.9737,91.1120 C36.9737,97.1141 36.9737,97.1141 36.9737,97.1141 Z M29.2911,97.1141 C29.2911,97.5942 29.0510,97.8343 28.5709,97.8343 C20.4081,97.8343 20.4081,97.8343 20.4081,97.8343 C19.9280,97.8343 19.6879,97.5942 19.6879,97.1141 C19.6879,93.7529 19.6879,93.7529 19.6879,93.7529 C19.6879,93.5128 19.9280,93.0327 20.4081,93.0327 C28.5709,93.0327 28.5709,93.0327 28.5709,93.0327 C29.0510,93.0327 29.2911,93.5128 29.2911,93.7529 C29.2911,97.1141 29.2911,97.1141 29.2911,97.1141 Z M18.4875,97.3541 C18.4875,97.5942 18.2474,97.8343 18.0073,97.8343 C17.5271,97.8343 17.5271,97.8343 17.5271,97.8343 C17.0470,97.8343 16.8069,95.9136 16.8069,93.9930 C16.8069,92.3124 17.0470,90.3918 17.5271,90.3918 C18.0073,90.3918 18.0073,90.3918 18.0073,90.3918 C18.2474,90.3918 18.4875,90.3918 18.4875,90.8719 C18.4875,97.3541 18.4875,97.3541 18.4875,97.3541 Z M13.4458,93.9930 C13.4458,92.3124 13.9259,90.3918 14.1660,90.3918 C14.8863,90.3918 14.8863,90.3918 14.8863,90.3918 C15.1263,90.3918 15.3664,90.6319 15.3664,90.8719 C15.3664,97.3541 15.3664,97.3541 15.3664,97.3541 C15.3664,97.5942 15.1263,97.8343 14.8863,97.8343 C14.1660,97.8343 14.1660,97.8343 14.1660,97.8343 C13.9259,97.8343 13.4458,95.9136 13.4458,93.9930 Z M10.3247,93.9930 C10.3247,92.3124 10.5648,90.3918 11.0450,90.3918 C11.5251,90.3918 11.5251,90.3918 11.5251,90.3918 C11.7652,90.3918 12.0053,90.6319 12.0053,90.8719 C12.0053,97.3541 12.0053,97.3541 12.0053,97.3541 C12.0053,97.5942 11.7652,97.5942 11.5251,97.5942 C11.0450,97.5942 11.0450,97.5942 11.0450,97.5942 C10.5648,97.5942 10.3247,95.9136 10.3247,93.9930 Z M6.9636,93.9930 C6.9636,92.3124 7.4437,90.6319 7.9239,90.6319 C8.4041,90.6319 8.4041,90.6319 8.4041,90.6319 C8.6441,90.6319 8.6441,90.8719 8.6441,91.1120 C8.6441,97.1141 8.6441,97.1141 8.6441,97.1141 C8.6441,97.3541 8.6441,97.5942 8.4041,97.5942 C7.9239,97.5942 7.9239,97.5942 7.9239,97.5942 C7.4437,97.5942 6.9636,95.9136 6.9636,93.9930 Z M5.5231,97.1141 C5.5231,97.3541 5.2830,97.5942 5.0429,97.5942 C4.5628,97.5942 4.5628,97.5942 4.5628,97.5942 C4.0826,97.5942 3.8425,95.9136 3.8425,93.9930 C3.8425,92.3124 4.0826,90.6319 4.5628,90.6319 C5.0429,90.6319 5.0429,90.6319 5.0429,90.6319 C5.2830,90.6319 5.5231,90.8719 5.5231,91.1120 C5.5231,97.1141 5.5231,97.1141 5.5231,97.1141 Z" style="fill-rule: evenodd; fill: #171868; "/>
    <path xmlns="http://www.w3.org/2000/svg" d="  M28.3308,85.7102 C28.3308,85.9503 28.0907,86.1904 27.8506,86.1904 C21.1284,86.1904 21.1284,86.1904 21.1284,86.1904 C20.8883,86.1904 20.6482,85.9503 20.6482,85.7102 C20.6482,83.0693 20.6482,83.0693 20.6482,83.0693 C20.6482,82.5891 20.8883,82.3491 21.1284,82.3491 C27.8506,82.3491 27.8506,82.3491 27.8506,82.3491 C28.0907,82.3491 28.3308,82.5891 28.3308,83.0693 C28.3308,85.7102 28.3308,85.7102 28.3308,85.7102 Z M28.3308,97.3541 C28.3308,97.5942 28.0907,97.8343 27.8506,97.8343 C21.1284,97.8343 21.1284,97.8343 21.1284,97.8343 C20.8883,97.8343 20.6482,97.5942 20.6482,97.3541 C20.6482,94.7132 20.6482,94.7132 20.6482,94.7132 C20.6482,94.2331 20.8883,93.9930 21.1284,93.9930 C27.8506,93.9930 27.8506,93.9930 27.8506,93.9930 C28.0907,93.9930 28.3308,94.2331 28.3308,94.7132 C28.3308,97.3541 28.3308,97.3541 28.3308,97.3541 Z" style="fill-rule: evenodd; fill: #988db1; "/>
    <path xmlns="http://www.w3.org/2000/svg" d="  M27.6106,85.4701 C27.6106,85.7102 27.3705,85.7102 27.1304,85.7102 C21.8486,85.7102 21.8486,85.7102 21.8486,85.7102 C21.6085,85.7102 21.3684,85.7102 21.3684,85.4701 C21.3684,83.7895 21.3684,83.7895 21.3684,83.7895 C21.3684,83.5495 21.6085,83.3094 21.8486,83.3094 C27.1304,83.3094 27.1304,83.3094 27.1304,83.3094 C27.3705,83.3094 27.6106,83.5495 27.6106,83.7895 C27.6106,85.4701 27.6106,85.4701 27.6106,85.4701 Z M23.5292,86.1904 C23.5292,86.4304 23.5292,86.4304 23.2891,86.4304 C22.8089,86.4304 22.8089,86.4304 22.8089,86.4304 C22.5689,86.4304 22.5689,86.4304 22.5689,86.1904 C22.5689,86.1904 22.5689,86.1904 22.8089,86.1904 C23.2891,86.1904 23.2891,86.1904 23.2891,86.1904 C23.5292,86.1904 23.5292,86.1904 23.5292,86.1904 Z M24.9697,86.1904 C24.9697,86.4304 24.9697,86.4304 24.7296,86.4304 C24.2494,86.4304 24.2494,86.4304 24.2494,86.4304 C24.0093,86.4304 24.0093,86.4304 24.0093,86.1904 C24.0093,86.1904 24.0093,86.1904 24.2494,86.1904 C24.7296,86.1904 24.7296,86.1904 24.7296,86.1904 C24.9697,86.1904 24.9697,86.1904 24.9697,86.1904 Z M26.4102,86.1904 C26.4102,86.4304 26.4102,86.4304 26.1701,86.4304 C25.6899,86.4304 25.6899,86.4304 25.6899,86.4304 C25.4498,86.4304 25.4498,86.4304 25.4498,86.1904 C25.4498,86.1904 25.4498,86.1904 25.6899,86.1904 C26.1701,86.1904 26.1701,86.1904 26.1701,86.1904 C26.4102,86.1904 26.4102,86.1904 26.4102,86.1904 Z M27.6106,97.1141 C27.6106,97.3541 27.3705,97.3541 27.1304,97.3541 C21.8486,97.3541 21.8486,97.3541 21.8486,97.3541 C21.6085,97.3541 21.3684,97.3541 21.3684,97.1141 C21.3684,95.4335 21.3684,95.4335 21.3684,95.4335 C21.3684,95.1934 21.6085,94.9533 21.8486,94.9533 C27.1304,94.9533 27.1304,94.9533 27.1304,94.9533 C27.3705,94.9533 27.6106,95.1934 27.6106,95.4335 C27.6106,97.1141 27.6106,97.1141 27.6106,97.1141 Z M23.5292,97.8343 C23.5292,98.0744 23.5292,98.0744 23.2891,98.0744 C22.8089,98.0744 22.8089,98.0744 22.8089,98.0744 C22.5689,98.0744 22.5689,98.0744 22.5689,97.8343 C22.5689,97.8343 22.5689,97.8343 22.8089,97.8343 C23.2891,97.8343 23.2891,97.8343 23.2891,97.8343 C23.5292,97.8343 23.5292,97.8343 23.5292,97.8343 Z M24.9697,97.8343 C24.9697,98.0744 24.9697,98.0744 24.7296,98.0744 C24.2494,98.0744 24.2494,98.0744 24.2494,98.0744 C24.0093,98.0744 24.0093,98.0744 24.0093,97.8343 C24.0093,97.8343 24.0093,97.8343 24.2494,97.8343 C24.7296,97.8343 24.7296,97.8343 24.7296,97.8343 C24.9697,97.8343 24.9697,97.8343 24.9697,97.8343 Z M26.4102,97.8343 C26.4102,98.0744 26.4102,98.0744 26.1701,98.0744 C25.6899,98.0744 25.6899,98.0744 25.6899,98.0744 C25.4498,98.0744 25.4498,98.0744 25.4498,97.8343 C25.4498,97.8343 25.4498,97.8343 25.6899,97.8343 C26.1701,97.8343 26.1701,97.8343 26.1701,97.8343 C26.4102,97.8343 26.4102,97.8343 26.4102,97.8343 Z" style="fill-rule: evenodd; fill: #171868; "/>
    <text xmlns="http://www.w3.org/2000/svg" x="5.3061" y="178.2943">
      <tspan font-family="Arial" font-size="4.5000" fill="#000000" fill-opacity="1.0000" stroke-opacity="1.0000">
FAS3020 Series</tspan>
    </text>
    <!--converted by libvisio2svg-->
  </g>
</svg>
