<svg xmlns="http://www.w3.org/2000/svg" xmlns:xlink="http://www.w3.org/1999/xlink" version="1.1" width="43.2000000000" height="7.2000000000">
  <title><![CDATA[FAS3000 with FC Storage]]></title>
  <g transform=" scale(1.000000) ">
    <g xmlns="http://www.w3.org/2000/svg" id="Layer1010">
      <path d="  M43.2354,-15.8325 L43.2354,-27.1163 L0.0208,-27.1163 L0.0208,-15.8325 L43.2354,-15.8325 Z M43.2354,-27.3564 L43.2354,-38.8803 L0.0208,-38.8803 L0.0208,-27.3564 L43.2354,-27.3564 Z M43.2354,-4.3086 L43.2354,-15.8325 L0.0208,-15.8325 L0.0208,-4.3086 L43.2354,-4.3086 Z M43.2354,7.2281 L43.2354,-4.2958 L0.0208,-4.2958 L0.0208,7.2281 L43.2354,7.2281 Z" style="stroke-width: 0.0240; stroke-linecap: round; stroke-linejoin: round; fill-rule: evenodd; fill: #171868; "/>
      <path d="  M43.2354,-15.8325 L43.2354,-27.1163 L0.0208,-27.1163 L0.0208,-15.8325 L43.2354,-15.8325 Z M43.2354,-27.3564 L43.2354,-38.8803 L0.0208,-38.8803 L0.0208,-27.3564 L43.2354,-27.3564 Z M43.2354,-4.3086 L43.2354,-15.8325 L0.0208,-15.8325 L0.0208,-4.3086 L43.2354,-4.3086 Z M43.2354,7.2281 L43.2354,-4.2958 L0.0208,-4.2958 L0.0208,7.2281 L43.2354,7.2281 Z" style="stroke-width: 0.0240; stroke: #ffffff; stroke-dasharray: none; stroke-linecap: round; stroke-linejoin: round; fill: none; "/>
    </g>
    <path xmlns="http://www.w3.org/2000/svg" d="  M10.3443,-25.6759 C3.3820,-25.4358 3.3820,-25.1957 3.3820,-24.7155 C3.3820,-18.2333 3.3820,-18.2333 3.3820,-18.2333 C3.3820,-17.7532 3.3820,-17.5131 10.3443,-17.2730 C14.1856,-17.2730 18.7472,-17.0329 21.6281,-17.0329 C24.7492,-17.0329 29.3107,-17.2730 33.1520,-17.2730 C40.1144,-17.5131 40.1144,-17.7532 40.1144,-18.2333 C40.1144,-24.7155 40.1144,-24.7155 40.1144,-24.7155 C40.1144,-25.1957 40.1144,-25.4358 33.1520,-25.6759 C29.3107,-25.9159 24.7492,-25.9159 21.6281,-25.9159 C18.7472,-25.9159 14.1856,-25.9159 10.3443,-25.6759 Z M10.3443,-37.3198 C3.3820,-37.0797 3.3820,-36.8396 3.3820,-36.3595 C3.3820,-29.8773 3.3820,-29.8773 3.3820,-29.8773 C3.3820,-29.3971 3.3820,-29.1570 10.3443,-28.9170 C14.1856,-28.9170 18.7472,-28.6769 21.6281,-28.6769 C24.7492,-28.6769 29.3107,-28.9170 33.1520,-28.9170 C40.1144,-29.1570 40.1144,-29.3971 40.1144,-29.8773 C40.1144,-36.3595 40.1144,-36.3595 40.1144,-36.3595 C40.1144,-36.8396 40.1144,-37.0797 33.1520,-37.3198 C29.3107,-37.5599 24.7492,-37.5599 21.6281,-37.5599 C18.7472,-37.5599 14.1856,-37.5599 10.3443,-37.3198 Z" style="fill-rule: evenodd; fill: #ffffff; "/>
    <path xmlns="http://www.w3.org/2000/svg" d="  M32.6719,-33.2384 C32.6719,-34.9190 32.4318,-36.8396 31.9516,-36.8396 C31.4715,-36.8396 31.4715,-36.8396 31.4715,-36.8396 C31.2314,-36.8396 30.9913,-36.5995 30.9913,-36.3595 C30.9913,-29.8773 30.9913,-29.8773 30.9913,-29.8773 C30.9913,-29.6372 31.2314,-29.6372 31.4715,-29.6372 C31.9516,-29.6372 31.9516,-29.6372 31.9516,-29.6372 C32.4318,-29.6372 32.6719,-31.3178 32.6719,-33.2384 Z M36.0330,-33.2384 C36.0330,-34.9190 35.5528,-36.5995 35.0727,-36.5995 C34.5925,-36.5995 34.5925,-36.5995 34.5925,-36.5995 C34.3524,-36.5995 34.3524,-36.3595 34.3524,-36.1194 C34.3524,-30.1174 34.3524,-30.1174 34.3524,-30.1174 C34.3524,-29.8773 34.3524,-29.6372 34.5925,-29.6372 C35.0727,-29.6372 35.0727,-29.6372 35.0727,-29.6372 C35.5528,-29.6372 36.0330,-31.3178 36.0330,-33.2384 Z M37.4735,-30.1174 C37.4735,-29.8773 37.7136,-29.6372 37.9536,-29.6372 C38.4338,-29.6372 38.4338,-29.6372 38.4338,-29.6372 C38.9140,-29.6372 39.1541,-31.3178 39.1541,-33.2384 C39.1541,-34.9190 38.9140,-36.5995 38.4338,-36.5995 C37.9536,-36.5995 37.9536,-36.5995 37.9536,-36.5995 C37.7136,-36.5995 37.4735,-36.3595 37.4735,-36.1194 C37.4735,-30.1174 37.4735,-30.1174 37.4735,-30.1174 Z M29.7909,-30.1174 C29.7909,-29.6372 29.5508,-29.3971 29.0706,-29.3971 C20.9079,-29.3971 20.9079,-29.3971 20.9079,-29.3971 C20.4277,-29.3971 20.1876,-29.6372 20.1876,-30.1174 C20.1876,-33.4785 20.1876,-33.4785 20.1876,-33.4785 C20.1876,-33.7186 20.4277,-34.1987 20.9079,-34.1987 C29.0706,-34.1987 29.0706,-34.1987 29.0706,-34.1987 C29.5508,-34.1987 29.7909,-33.7186 29.7909,-33.4785 C29.7909,-30.1174 29.7909,-30.1174 29.7909,-30.1174 Z M18.9872,-29.8773 C18.9872,-29.6372 18.7472,-29.3971 18.5071,-29.3971 C18.0269,-29.3971 18.0269,-29.3971 18.0269,-29.3971 C17.5467,-29.3971 17.3067,-31.3178 17.3067,-33.2384 C17.3067,-34.9190 17.5467,-36.8396 18.0269,-36.8396 C18.5071,-36.8396 18.5071,-36.8396 18.5071,-36.8396 C18.7472,-36.8396 18.9872,-36.8396 18.9872,-36.3595 C18.9872,-29.8773 18.9872,-29.8773 18.9872,-29.8773 Z M13.9455,-33.2384 C13.9455,-34.9190 14.4257,-36.8396 14.6658,-36.8396 C15.3860,-36.8396 15.3860,-36.8396 15.3860,-36.8396 C15.6261,-36.8396 15.8662,-36.5995 15.8662,-36.3595 C15.8662,-29.8773 15.8662,-29.8773 15.8662,-29.8773 C15.8662,-29.6372 15.6261,-29.3971 15.3860,-29.3971 C14.6658,-29.3971 14.6658,-29.3971 14.6658,-29.3971 C14.4257,-29.3971 13.9455,-31.3178 13.9455,-33.2384 Z M10.8245,-33.2384 C10.8245,-34.9190 11.0646,-36.8396 11.5447,-36.8396 C12.0249,-36.8396 12.0249,-36.8396 12.0249,-36.8396 C12.2650,-36.8396 12.5050,-36.5995 12.5050,-36.3595 C12.5050,-29.8773 12.5050,-29.8773 12.5050,-29.8773 C12.5050,-29.6372 12.2650,-29.6372 12.0249,-29.6372 C11.5447,-29.6372 11.5447,-29.6372 11.5447,-29.6372 C11.0646,-29.6372 10.8245,-31.3178 10.8245,-33.2384 Z M7.4633,-33.2384 C7.4633,-34.9190 7.9435,-36.5995 8.4237,-36.5995 C8.9038,-36.5995 8.9038,-36.5995 8.9038,-36.5995 C9.1439,-36.5995 9.1439,-36.3595 9.1439,-36.1194 C9.1439,-30.1174 9.1439,-30.1174 9.1439,-30.1174 C9.1439,-29.8773 9.1439,-29.6372 8.9038,-29.6372 C8.4237,-29.6372 8.4237,-29.6372 8.4237,-29.6372 C7.9435,-29.6372 7.4633,-31.3178 7.4633,-33.2384 Z M6.0228,-30.1174 C6.0228,-29.8773 5.7828,-29.6372 5.5427,-29.6372 C5.0625,-29.6372 5.0625,-29.6372 5.0625,-29.6372 C4.5824,-29.6372 4.3423,-31.3178 4.3423,-33.2384 C4.3423,-34.9190 4.5824,-36.5995 5.0625,-36.5995 C5.5427,-36.5995 5.5427,-36.5995 5.5427,-36.5995 C5.7828,-36.5995 6.0228,-36.3595 6.0228,-36.1194 C6.0228,-30.1174 6.0228,-30.1174 6.0228,-30.1174 Z M32.6719,-21.5945 C32.6719,-23.2750 32.4318,-25.1957 31.9516,-25.1957 C31.4715,-25.1957 31.4715,-25.1957 31.4715,-25.1957 C31.2314,-25.1957 30.9913,-24.9556 30.9913,-24.7155 C30.9913,-18.2333 30.9913,-18.2333 30.9913,-18.2333 C30.9913,-17.9933 31.2314,-17.9933 31.4715,-17.9933 C31.9516,-17.9933 31.9516,-17.9933 31.9516,-17.9933 C32.4318,-17.9933 32.6719,-19.6738 32.6719,-21.5945 Z M36.0330,-21.5945 C36.0330,-23.2750 35.5528,-24.9556 35.0727,-24.9556 C34.5925,-24.9556 34.5925,-24.9556 34.5925,-24.9556 C34.3524,-24.9556 34.3524,-24.7155 34.3524,-24.4754 C34.3524,-18.4734 34.3524,-18.4734 34.3524,-18.4734 C34.3524,-18.2333 34.3524,-17.9933 34.5925,-17.9933 C35.0727,-17.9933 35.0727,-17.9933 35.0727,-17.9933 C35.5528,-17.9933 36.0330,-19.6738 36.0330,-21.5945 Z M37.4735,-18.4734 C37.4735,-18.2333 37.7136,-17.9933 37.9536,-17.9933 C38.4338,-17.9933 38.4338,-17.9933 38.4338,-17.9933 C38.9140,-17.9933 39.1541,-19.6738 39.1541,-21.5945 C39.1541,-23.2750 38.9140,-24.9556 38.4338,-24.9556 C37.9536,-24.9556 37.9536,-24.9556 37.9536,-24.9556 C37.7136,-24.9556 37.4735,-24.7155 37.4735,-24.4754 C37.4735,-18.4734 37.4735,-18.4734 37.4735,-18.4734 Z M29.7909,-18.4734 C29.7909,-17.9933 29.5508,-17.7532 29.0706,-17.7532 C20.9079,-17.7532 20.9079,-17.7532 20.9079,-17.7532 C20.4277,-17.7532 20.1876,-17.9933 20.1876,-18.4734 C20.1876,-21.8346 20.1876,-21.8346 20.1876,-21.8346 C20.1876,-22.0746 20.4277,-22.5548 20.9079,-22.5548 C29.0706,-22.5548 29.0706,-22.5548 29.0706,-22.5548 C29.5508,-22.5548 29.7909,-22.0746 29.7909,-21.8346 C29.7909,-18.4734 29.7909,-18.4734 29.7909,-18.4734 Z M18.9872,-18.2333 C18.9872,-17.9933 18.7472,-17.7532 18.5071,-17.7532 C18.0269,-17.7532 18.0269,-17.7532 18.0269,-17.7532 C17.5467,-17.7532 17.3067,-19.6738 17.3067,-21.5945 C17.3067,-23.2750 17.5467,-25.1957 18.0269,-25.1957 C18.5071,-25.1957 18.5071,-25.1957 18.5071,-25.1957 C18.7472,-25.1957 18.9872,-25.1957 18.9872,-24.7155 C18.9872,-18.2333 18.9872,-18.2333 18.9872,-18.2333 Z M13.9455,-21.5945 C13.9455,-23.2750 14.4257,-25.1957 14.6658,-25.1957 C15.3860,-25.1957 15.3860,-25.1957 15.3860,-25.1957 C15.6261,-25.1957 15.8662,-24.9556 15.8662,-24.7155 C15.8662,-18.2333 15.8662,-18.2333 15.8662,-18.2333 C15.8662,-17.9933 15.6261,-17.7532 15.3860,-17.7532 C14.6658,-17.7532 14.6658,-17.7532 14.6658,-17.7532 C14.4257,-17.7532 13.9455,-19.6738 13.9455,-21.5945 Z M10.8245,-21.5945 C10.8245,-23.2750 11.0646,-25.1957 11.5447,-25.1957 C12.0249,-25.1957 12.0249,-25.1957 12.0249,-25.1957 C12.2650,-25.1957 12.5050,-24.9556 12.5050,-24.7155 C12.5050,-18.2333 12.5050,-18.2333 12.5050,-18.2333 C12.5050,-17.9933 12.2650,-17.9933 12.0249,-17.9933 C11.5447,-17.9933 11.5447,-17.9933 11.5447,-17.9933 C11.0646,-17.9933 10.8245,-19.6738 10.8245,-21.5945 Z M7.4633,-21.5945 C7.4633,-23.2750 7.9435,-24.9556 8.4237,-24.9556 C8.9038,-24.9556 8.9038,-24.9556 8.9038,-24.9556 C9.1439,-24.9556 9.1439,-24.7155 9.1439,-24.4754 C9.1439,-18.4734 9.1439,-18.4734 9.1439,-18.4734 C9.1439,-18.2333 9.1439,-17.9933 8.9038,-17.9933 C8.4237,-17.9933 8.4237,-17.9933 8.4237,-17.9933 C7.9435,-17.9933 7.4633,-19.6738 7.4633,-21.5945 Z M6.0228,-18.4734 C6.0228,-18.2333 5.7828,-17.9933 5.5427,-17.9933 C5.0625,-17.9933 5.0625,-17.9933 5.0625,-17.9933 C4.5824,-17.9933 4.3423,-19.6738 4.3423,-21.5945 C4.3423,-23.2750 4.5824,-24.9556 5.0625,-24.9556 C5.5427,-24.9556 5.5427,-24.9556 5.5427,-24.9556 C5.7828,-24.9556 6.0228,-24.7155 6.0228,-24.4754 C6.0228,-18.4734 6.0228,-18.4734 6.0228,-18.4734 Z" style="fill-rule: evenodd; fill: #171868; "/>
    <path xmlns="http://www.w3.org/2000/svg" d="  M28.8306,-29.8773 C28.8306,-29.6372 28.5905,-29.3971 28.3504,-29.3971 C21.6281,-29.3971 21.6281,-29.3971 21.6281,-29.3971 C21.3880,-29.3971 21.1480,-29.6372 21.1480,-29.8773 C21.1480,-32.5182 21.1480,-32.5182 21.1480,-32.5182 C21.1480,-32.9983 21.3880,-33.2384 21.6281,-33.2384 C28.3504,-33.2384 28.3504,-33.2384 28.3504,-33.2384 C28.5905,-33.2384 28.8306,-32.9983 28.8306,-32.5182 C28.8306,-29.8773 28.8306,-29.8773 28.8306,-29.8773 Z M28.8306,-18.2333 C28.8306,-17.9933 28.5905,-17.7532 28.3504,-17.7532 C21.6281,-17.7532 21.6281,-17.7532 21.6281,-17.7532 C21.3880,-17.7532 21.1480,-17.9933 21.1480,-18.2333 C21.1480,-20.8742 21.1480,-20.8742 21.1480,-20.8742 C21.1480,-21.3544 21.3880,-21.5945 21.6281,-21.5945 C28.3504,-21.5945 28.3504,-21.5945 28.3504,-21.5945 C28.5905,-21.5945 28.8306,-21.3544 28.8306,-20.8742 C28.8306,-18.2333 28.8306,-18.2333 28.8306,-18.2333 Z" style="fill-rule: evenodd; fill: #988db1; "/>
    <path xmlns="http://www.w3.org/2000/svg" d="  M28.1103,-30.1174 C28.1103,-29.8773 27.8702,-29.8773 27.6302,-29.8773 C22.3484,-29.8773 22.3484,-29.8773 22.3484,-29.8773 C22.1083,-29.8773 21.8682,-29.8773 21.8682,-30.1174 C21.8682,-31.7979 21.8682,-31.7979 21.8682,-31.7979 C21.8682,-32.0380 22.1083,-32.2781 22.3484,-32.2781 C27.6302,-32.2781 27.6302,-32.2781 27.6302,-32.2781 C27.8702,-32.2781 28.1103,-32.0380 28.1103,-31.7979 C28.1103,-30.1174 28.1103,-30.1174 28.1103,-30.1174 Z M24.0289,-29.3971 C24.0289,-29.1570 24.0289,-29.1570 23.7889,-29.1570 C23.3087,-29.1570 23.3087,-29.1570 23.3087,-29.1570 C23.0686,-29.1570 23.0686,-29.1570 23.0686,-29.3971 C23.0686,-29.3971 23.0686,-29.3971 23.3087,-29.3971 C23.7889,-29.3971 23.7889,-29.3971 23.7889,-29.3971 C24.0289,-29.3971 24.0289,-29.3971 24.0289,-29.3971 Z M25.4694,-29.3971 C25.4694,-29.1570 25.4694,-29.1570 25.2293,-29.1570 C24.7492,-29.1570 24.7492,-29.1570 24.7492,-29.1570 C24.5091,-29.1570 24.5091,-29.1570 24.5091,-29.3971 C24.5091,-29.3971 24.5091,-29.3971 24.7492,-29.3971 C25.2293,-29.3971 25.2293,-29.3971 25.2293,-29.3971 C25.4694,-29.3971 25.4694,-29.3971 25.4694,-29.3971 Z M26.9099,-29.3971 C26.9099,-29.1570 26.9099,-29.1570 26.6698,-29.1570 C26.1897,-29.1570 26.1897,-29.1570 26.1897,-29.1570 C25.9496,-29.1570 25.9496,-29.1570 25.9496,-29.3971 C25.9496,-29.3971 25.9496,-29.3971 26.1897,-29.3971 C26.6698,-29.3971 26.6698,-29.3971 26.6698,-29.3971 C26.9099,-29.3971 26.9099,-29.3971 26.9099,-29.3971 Z M28.1103,-18.4734 C28.1103,-18.2333 27.8702,-18.2333 27.6302,-18.2333 C22.3484,-18.2333 22.3484,-18.2333 22.3484,-18.2333 C22.1083,-18.2333 21.8682,-18.2333 21.8682,-18.4734 C21.8682,-20.1540 21.8682,-20.1540 21.8682,-20.1540 C21.8682,-20.3941 22.1083,-20.6341 22.3484,-20.6341 C27.6302,-20.6341 27.6302,-20.6341 27.6302,-20.6341 C27.8702,-20.6341 28.1103,-20.3941 28.1103,-20.1540 C28.1103,-18.4734 28.1103,-18.4734 28.1103,-18.4734 Z M24.0289,-17.7532 C24.0289,-17.5131 24.0289,-17.5131 23.7889,-17.5131 C23.3087,-17.5131 23.3087,-17.5131 23.3087,-17.5131 C23.0686,-17.5131 23.0686,-17.5131 23.0686,-17.7532 C23.0686,-17.7532 23.0686,-17.7532 23.3087,-17.7532 C23.7889,-17.7532 23.7889,-17.7532 23.7889,-17.7532 C24.0289,-17.7532 24.0289,-17.7532 24.0289,-17.7532 Z M25.4694,-17.7532 C25.4694,-17.5131 25.4694,-17.5131 25.2293,-17.5131 C24.7492,-17.5131 24.7492,-17.5131 24.7492,-17.5131 C24.5091,-17.5131 24.5091,-17.5131 24.5091,-17.7532 C24.5091,-17.7532 24.5091,-17.7532 24.7492,-17.7532 C25.2293,-17.7532 25.2293,-17.7532 25.2293,-17.7532 C25.4694,-17.7532 25.4694,-17.7532 25.4694,-17.7532 Z M26.9099,-17.7532 C26.9099,-17.5131 26.9099,-17.5131 26.6698,-17.5131 C26.1897,-17.5131 26.1897,-17.5131 26.1897,-17.5131 C25.9496,-17.5131 25.9496,-17.5131 25.9496,-17.7532 C25.9496,-17.7532 25.9496,-17.7532 26.1897,-17.7532 C26.6698,-17.7532 26.6698,-17.7532 26.6698,-17.7532 C26.9099,-17.7532 26.9099,-17.7532 26.9099,-17.7532 Z" style="fill-rule: evenodd; fill: #171868; "/>
    <g xmlns="http://www.w3.org/2000/svg" id="Layer1011">
      <path d="  M43.2281,-38.8803 L0.0281,-38.8803 L1.7881,-41.5791 L41.3081,-41.5791 L43.2281,-38.8803 Z" style="stroke-width: 0.0240; stroke-linecap: round; stroke-linejoin: round; fill-rule: evenodd; fill: #988db1; "/>
      <path d="  M43.2281,-38.8803 L0.0281,-38.8803 L1.7881,-41.5791 L41.3081,-41.5791 L43.2281,-38.8803 Z" style="stroke-width: 0.0240; stroke: #ffffff; stroke-dasharray: none; stroke-linecap: round; stroke-linejoin: round; fill: none; "/>
    </g>
    <path xmlns="http://www.w3.org/2000/svg" d="  M1.6922,-14.4339 C1.6922,-13.0709 1.6922,-13.0709 1.6922,-13.0709 C2.4711,-11.7078 3.0553,-10.9290 3.0553,-8.5924 C3.0553,-8.3977 3.0553,-8.2029 3.0553,-8.0082 C4.4183,-8.0082 4.4183,-8.0082 4.4183,-8.0082 C4.4183,-14.4339 4.4183,-14.4339 4.4183,-14.4339 C1.6922,-14.4339 1.6922,-14.4339 1.6922,-14.4339 Z M5.3919,-14.4339 C5.3919,-13.0709 5.3919,-13.0709 5.3919,-13.0709 C6.1707,-11.7078 6.7549,-10.9290 6.7549,-8.5924 C6.7549,-8.3977 6.7549,-8.2029 6.7549,-8.0082 C8.1179,-8.0082 8.1179,-8.0082 8.1179,-8.0082 C8.1179,-14.4339 8.1179,-14.4339 8.1179,-14.4339 C5.3919,-14.4339 5.3919,-14.4339 5.3919,-14.4339 Z M9.0915,-14.4339 C9.0915,-13.0709 9.0915,-13.0709 9.0915,-13.0709 C9.8703,-11.7078 10.4545,-10.9290 10.4545,-8.5924 C10.4545,-8.3977 10.4545,-8.2029 10.4545,-8.0082 C11.8175,-8.0082 11.8175,-8.0082 11.8175,-8.0082 C11.8175,-14.4339 11.8175,-14.4339 11.8175,-14.4339 C9.0915,-14.4339 9.0915,-14.4339 9.0915,-14.4339 Z M12.7911,-14.4339 C12.7911,-13.0709 12.7911,-13.0709 12.7911,-13.0709 C13.5699,-11.7078 14.1541,-10.9290 14.1541,-8.5924 C14.1541,-8.3977 14.1541,-8.2029 14.1541,-8.0082 C15.5171,-8.0082 15.5171,-8.0082 15.5171,-8.0082 C15.5171,-14.4339 15.5171,-14.4339 15.5171,-14.4339 C12.7911,-14.4339 12.7911,-14.4339 12.7911,-14.4339 Z M16.4907,-14.4339 C16.4907,-13.0709 16.4907,-13.0709 16.4907,-13.0709 C17.2695,-11.7078 17.8537,-10.9290 17.8537,-8.5924 C17.8537,-8.3977 17.8537,-8.2029 17.8537,-8.0082 C19.2167,-8.0082 19.2167,-8.0082 19.2167,-8.0082 C19.2167,-14.4339 19.2167,-14.4339 19.2167,-14.4339 C16.4907,-14.4339 16.4907,-14.4339 16.4907,-14.4339 Z M20.1903,-14.4339 C20.1903,-13.0709 20.1903,-13.0709 20.1903,-13.0709 C20.9691,-11.7078 21.5533,-10.9290 21.5533,-8.5924 C21.5533,-8.3977 21.5533,-8.2029 21.5533,-8.0082 C22.9163,-8.0082 22.9163,-8.0082 22.9163,-8.0082 C22.9163,-14.4339 22.9163,-14.4339 22.9163,-14.4339 C20.1903,-14.4339 20.1903,-14.4339 20.1903,-14.4339 Z M23.8899,-14.4339 C23.8899,-13.0709 23.8899,-13.0709 23.8899,-13.0709 C24.6687,-11.7078 25.2529,-10.9290 25.2529,-8.5924 C25.2529,-8.3977 25.2529,-8.2029 25.2529,-8.0082 C26.4212,-8.0082 26.4212,-8.0082 26.4212,-8.0082 C26.4212,-14.4339 26.4212,-14.4339 26.4212,-14.4339 C23.8899,-14.4339 23.8899,-14.4339 23.8899,-14.4339 Z M27.5895,-14.4339 C27.5895,-13.0709 27.5895,-13.0709 27.5895,-13.0709 C28.3684,-11.7078 28.9525,-10.9290 28.9525,-8.5924 C28.9525,-8.3977 28.9525,-8.2029 28.7578,-8.0082 C30.1208,-8.0082 30.1208,-8.0082 30.1208,-8.0082 C30.1208,-14.4339 30.1208,-14.4339 30.1208,-14.4339 C27.5895,-14.4339 27.5895,-14.4339 27.5895,-14.4339 Z M31.2891,-14.4339 C31.2891,-13.0709 31.2891,-13.0709 31.2891,-13.0709 C32.0680,-11.7078 32.6521,-10.9290 32.6521,-8.5924 C32.6521,-8.3977 32.4574,-8.2029 32.4574,-8.0082 C33.8204,-8.0082 33.8204,-8.0082 33.8204,-8.0082 C33.8204,-14.4339 33.8204,-14.4339 33.8204,-14.4339 C31.2891,-14.4339 31.2891,-14.4339 31.2891,-14.4339 Z M34.7940,-14.4339 C34.7940,-13.0709 34.7940,-13.0709 34.7940,-13.0709 C35.7676,-11.7078 36.1570,-10.9290 36.1570,-8.5924 C36.1570,-8.3977 36.1570,-8.2029 36.1570,-8.0082 C37.5200,-8.0082 37.5200,-8.0082 37.5200,-8.0082 C37.5200,-14.4339 37.5200,-14.4339 37.5200,-14.4339 C34.7940,-14.4339 34.7940,-14.4339 34.7940,-14.4339 Z M38.4936,-14.4339 C38.4936,-13.0709 38.4936,-13.0709 38.4936,-13.0709 C39.4672,-11.7078 39.8566,-10.9290 39.8566,-8.5924 C39.8566,-8.3977 39.8566,-8.2029 39.8566,-8.0082 C41.2196,-8.0082 41.2196,-8.0082 41.2196,-8.0082 C41.2196,-14.4339 41.2196,-14.4339 41.2196,-14.4339 C38.4936,-14.4339 38.4936,-14.4339 38.4936,-14.4339 Z M1.6922,-2.8971 C1.6922,-1.5341 1.6922,-1.5341 1.6922,-1.5341 C2.4711,-0.1711 3.0553,0.6078 3.0553,2.9444 C3.0553,3.1391 3.0553,3.3338 3.0553,3.5285 C4.4183,3.5285 4.4183,3.5285 4.4183,3.5285 C4.4183,-2.8971 4.4183,-2.8971 4.4183,-2.8971 C1.6922,-2.8971 1.6922,-2.8971 1.6922,-2.8971 Z M5.3919,-2.8971 C5.3919,-1.5341 5.3919,-1.5341 5.3919,-1.5341 C6.1707,-0.1711 6.7549,0.6078 6.7549,2.9444 C6.7549,3.1391 6.7549,3.3338 6.7549,3.5285 C8.1179,3.5285 8.1179,3.5285 8.1179,3.5285 C8.1179,-2.8971 8.1179,-2.8971 8.1179,-2.8971 C5.3919,-2.8971 5.3919,-2.8971 5.3919,-2.8971 Z M9.0915,-2.8971 C9.0915,-1.5341 9.0915,-1.5341 9.0915,-1.5341 C9.8703,-0.1711 10.4545,0.6078 10.4545,2.9444 C10.4545,3.1391 10.4545,3.3338 10.4545,3.5285 C11.8175,3.5285 11.8175,3.5285 11.8175,3.5285 C11.8175,-2.8971 11.8175,-2.8971 11.8175,-2.8971 C9.0915,-2.8971 9.0915,-2.8971 9.0915,-2.8971 Z M12.7911,-2.8971 C12.7911,-1.5341 12.7911,-1.5341 12.7911,-1.5341 C13.5699,-0.1711 14.1541,0.6078 14.1541,2.9444 C14.1541,3.1391 14.1541,3.3338 14.1541,3.5285 C15.5171,3.5285 15.5171,3.5285 15.5171,3.5285 C15.5171,-2.8971 15.5171,-2.8971 15.5171,-2.8971 C12.7911,-2.8971 12.7911,-2.8971 12.7911,-2.8971 Z M16.4907,-2.8971 C16.4907,-1.5341 16.4907,-1.5341 16.4907,-1.5341 C17.2695,-0.1711 17.8537,0.6078 17.8537,2.9444 C17.8537,3.1391 17.8537,3.3338 17.8537,3.5285 C19.2167,3.5285 19.2167,3.5285 19.2167,3.5285 C19.2167,-2.8971 19.2167,-2.8971 19.2167,-2.8971 C16.4907,-2.8971 16.4907,-2.8971 16.4907,-2.8971 Z M20.1903,-2.8971 C20.1903,-1.5341 20.1903,-1.5341 20.1903,-1.5341 C20.9691,-0.1711 21.5533,0.6078 21.5533,2.9444 C21.5533,3.1391 21.5533,3.3338 21.5533,3.5285 C22.9163,3.5285 22.9163,3.5285 22.9163,3.5285 C22.9163,-2.8971 22.9163,-2.8971 22.9163,-2.8971 C20.1903,-2.8971 20.1903,-2.8971 20.1903,-2.8971 Z M23.8899,-2.8971 C23.8899,-1.5341 23.8899,-1.5341 23.8899,-1.5341 C24.6687,-0.1711 25.2529,0.6078 25.2529,2.9444 C25.2529,3.1391 25.2529,3.3338 25.2529,3.5285 C26.4212,3.5285 26.4212,3.5285 26.4212,3.5285 C26.4212,-2.8971 26.4212,-2.8971 26.4212,-2.8971 C23.8899,-2.8971 23.8899,-2.8971 23.8899,-2.8971 Z M27.5895,-2.8971 C27.5895,-1.5341 27.5895,-1.5341 27.5895,-1.5341 C28.3684,-0.1711 28.9525,0.6078 28.9525,2.9444 C28.9525,3.1391 28.9525,3.3338 28.7578,3.5285 C30.1208,3.5285 30.1208,3.5285 30.1208,3.5285 C30.1208,-2.8971 30.1208,-2.8971 30.1208,-2.8971 C27.5895,-2.8971 27.5895,-2.8971 27.5895,-2.8971 Z M31.2891,-2.8971 C31.2891,-1.5341 31.2891,-1.5341 31.2891,-1.5341 C32.0680,-0.1711 32.6521,0.6078 32.6521,2.9444 C32.6521,3.1391 32.4574,3.3338 32.4574,3.5285 C33.8204,3.5285 33.8204,3.5285 33.8204,3.5285 C33.8204,-2.8971 33.8204,-2.8971 33.8204,-2.8971 C31.2891,-2.8971 31.2891,-2.8971 31.2891,-2.8971 Z M34.7940,-2.8971 C34.7940,-1.5341 34.7940,-1.5341 34.7940,-1.5341 C35.7676,-0.1711 36.1570,0.6078 36.1570,2.9444 C36.1570,3.1391 36.1570,3.3338 36.1570,3.5285 C37.5200,3.5285 37.5200,3.5285 37.5200,3.5285 C37.5200,-2.8971 37.5200,-2.8971 37.5200,-2.8971 C34.7940,-2.8971 34.7940,-2.8971 34.7940,-2.8971 Z M38.4936,-2.8971 C38.4936,-1.5341 38.4936,-1.5341 38.4936,-1.5341 C39.4672,-0.1711 39.8566,0.6078 39.8566,2.9444 C39.8566,3.1391 39.8566,3.3338 39.8566,3.5285 C41.2196,3.5285 41.2196,3.5285 41.2196,3.5285 C41.2196,-2.8971 41.2196,-2.8971 41.2196,-2.8971 C38.4936,-2.8971 38.4936,-2.8971 38.4936,-2.8971 Z" style="fill-rule: evenodd; fill: #8275a3; "/>
    <text xmlns="http://www.w3.org/2000/svg" x="-3.7119" y="14.9906">
      <tspan font-family="Arial" font-size="4.5000" fill="#000000" fill-opacity="1.0000" stroke-opacity="1.0000">
FAS3000 with FC Storage</tspan>
    </text>
    <!--converted by libvisio2svg-->
  </g>
</svg>
