<svg xmlns="http://www.w3.org/2000/svg" xmlns:xlink="http://www.w3.org/1999/xlink" version="1.1" width="43.2000000000" height="7.2000000000">
  <title><![CDATA[FAS6000 Series]]></title>
  <g transform=" scale(1.000000) ">
    <g xmlns="http://www.w3.org/2000/svg" id="Layer1019">
      <path d="  M43.2281,-13.4359 L0.0281,-13.4359 L1.7881,-16.1346 L41.3081,-16.1346 L43.2281,-13.4359 Z" style="stroke-width: 0.0240; stroke-linecap: round; stroke-linejoin: round; fill-rule: evenodd; fill: #988db1; "/>
      <path d="  M43.2281,-13.4359 L0.0281,-13.4359 L1.7881,-16.1346 L41.3081,-16.1346 L43.2281,-13.4359 Z" style="stroke-width: 0.0240; stroke: #ffffff; stroke-dasharray: none; stroke-linecap: round; stroke-linejoin: round; fill: none; "/>
    </g>
    <g xmlns="http://www.w3.org/2000/svg" id="Layer1020">
      <path d="  M43.2354,7.2281 L0.0208,7.2281 L0.0208,-13.4359 L43.2354,-13.4359 L43.2354,7.2281 Z" style="stroke-width: 0.0240; stroke-linecap: round; stroke-linejoin: round; fill-rule: evenodd; fill: #3f387c; "/>
      <path d="  M43.2354,7.2281 L0.0208,7.2281 L0.0208,-13.4359 L43.2354,-13.4359 L43.2354,7.2281 Z" style="stroke-width: 0.0240; stroke: #ffffff; stroke-dasharray: none; stroke-linecap: round; stroke-linejoin: round; fill: none; "/>
    </g>
    <path xmlns="http://www.w3.org/2000/svg" d="  M2.9018,-13.1839 C2.9018,-13.1839 1.4613,-13.1839 1.4613,-3.1039 C1.4613,6.9761 3.1419,6.9761 3.1419,6.9761 C3.1419,6.9761 40.3545,6.9761 40.3545,6.9761 C40.3545,6.9761 41.7949,6.9761 41.7949,-3.1039 C41.7949,-13.1839 40.3545,-13.1839 40.3545,-13.1839 C40.1144,-13.1839 3.1419,-13.1839 2.9018,-13.1839 Z" style="fill-rule: evenodd; fill: #171868; "/>
    <g xmlns="http://www.w3.org/2000/svg" id="Layer1021">
      <path d="  M21.6281,-12.1069 C29.0706,-12.1069 37.4735,-11.3867 39.6342,-11.1466 C39.8743,-9.9462 40.1144,-6.8251 40.1144,-3.2239 C40.1144,0.6174 39.8743,3.7384 39.6342,4.9388 C37.4735,5.1789 29.0706,5.8992 21.6281,5.8992 C14.4257,5.8992 5.7828,5.1789 3.6220,4.9388 C3.3820,3.7384 3.1419,0.6174 3.1419,-3.2239 C3.1419,-6.8251 3.3820,-9.9462 3.6220,-11.1466 C6.0228,-11.3867 14.4257,-12.1069 21.6281,-12.1069 Z" style="stroke-width: 0.0000; stroke-linecap: round; stroke-linejoin: round; fill-rule: evenodd; fill: #ffffff; "/>
      <path d="  M21.6281,-12.1069 C29.0706,-12.1069 37.4735,-11.3867 39.6342,-11.1466 C39.8743,-9.9462 40.1144,-6.8251 40.1144,-3.2239 C40.1144,0.6174 39.8743,3.7384 39.6342,4.9388 C37.4735,5.1789 29.0706,5.8992 21.6281,5.8992 C14.4257,5.8992 5.7828,5.1789 3.6220,4.9388 C3.3820,3.7384 3.1419,0.6174 3.1419,-3.2239 C3.1419,-6.8251 3.3820,-9.9462 3.6220,-11.1466 C6.0228,-11.3867 14.4257,-12.1069 21.6281,-12.1069 Z" style="stroke-width: 0.0000; stroke: #ffffff; stroke-dasharray: none; stroke-linecap: round; stroke-linejoin: round; fill: none; "/>
    </g>
    <path xmlns="http://www.w3.org/2000/svg" d="  M29.1907,5.0589 C29.4308,3.8585 29.6708,0.7374 29.6708,-3.1039 C29.6708,-6.7051 29.4308,-9.8261 29.1907,-11.0266 C28.2304,-11.0266 28.2304,-11.0266 28.2304,-11.0266 C28.2304,5.0589 28.2304,5.0589 28.2304,5.0589 C29.1907,5.0589 29.1907,5.0589 29.1907,5.0589 Z M32.3117,4.8188 C32.5518,3.8585 32.7919,0.7374 32.7919,-3.1039 C32.7919,-6.7051 32.5518,-9.8261 32.3117,-11.0266 C31.3514,-11.0266 31.3514,-11.0266 31.3514,-11.0266 C31.3514,4.8188 31.3514,4.8188 31.3514,4.8188 C32.3117,4.8188 32.3117,4.8188 32.3117,4.8188 Z M35.6729,4.8188 C35.6729,3.6184 35.9130,0.4973 35.9130,-3.1039 C35.9130,-6.7051 35.6729,-9.5861 35.6729,-10.7865 C34.4725,-10.7865 34.4725,-10.7865 34.4725,-10.7865 C34.4725,4.8188 34.4725,4.8188 34.4725,4.8188 C35.6729,4.8188 35.6729,4.8188 35.6729,4.8188 Z M38.7939,4.5787 C39.0340,3.3783 39.2741,0.4973 39.2741,-3.1039 C39.2741,-6.4650 39.0340,-9.3460 38.7939,-10.5464 C37.8336,-10.5464 37.8336,-10.5464 37.8336,-10.5464 C37.8336,4.5787 37.8336,4.5787 37.8336,4.5787 C38.7939,4.5787 38.7939,4.5787 38.7939,4.5787 Z M4.2222,-10.5464 C4.2222,-9.3460 3.9822,-6.4650 3.9822,-3.1039 C3.9822,0.4973 4.2222,3.3783 4.2222,4.5787 C5.1826,4.5787 5.1826,4.5787 5.1826,4.5787 C5.1826,-10.5464 5.1826,-10.5464 5.1826,-10.5464 C4.2222,-10.5464 4.2222,-10.5464 4.2222,-10.5464 Z M7.5834,-10.7865 C7.3433,-9.5861 7.1032,-6.7051 7.1032,-3.1039 C7.1032,0.4973 7.3433,3.6184 7.5834,4.8188 C8.5437,4.8188 8.5437,4.8188 8.5437,4.8188 C8.5437,-10.7865 8.5437,-10.7865 8.5437,-10.7865 C7.5834,-10.7865 7.5834,-10.7865 7.5834,-10.7865 Z M10.7044,-11.0266 C10.4643,-9.8261 10.2243,-6.7051 10.2243,-3.1039 C10.2243,0.7374 10.4643,3.8585 10.7044,4.8188 C11.6648,4.8188 11.6648,4.8188 11.6648,4.8188 C11.6648,-11.0266 11.6648,-11.0266 11.6648,-11.0266 C10.7044,-11.0266 10.7044,-11.0266 10.7044,-11.0266 Z M13.8255,-11.0266 C13.8255,-9.8261 13.5854,-6.7051 13.5854,-3.1039 C13.5854,0.7374 13.8255,3.8585 13.8255,5.0589 C15.0259,5.0589 15.0259,5.0589 15.0259,5.0589 C15.0259,-11.0266 15.0259,-11.0266 15.0259,-11.0266 C13.8255,-11.0266 13.8255,-11.0266 13.8255,-11.0266 Z M25.3494,-5.0245 C25.3494,-4.5444 25.1093,-4.0642 24.8692,-4.0642 C18.3870,-4.0642 18.3870,-4.0642 18.3870,-4.0642 C17.9069,-4.0642 17.6668,-4.5444 17.6668,-5.0245 C17.6668,-10.3063 17.6668,-10.3063 17.6668,-10.3063 C17.6668,-10.7865 17.9069,-11.2666 18.3870,-11.2666 C24.8692,-11.2666 24.8692,-11.2666 24.8692,-11.2666 C25.1093,-11.2666 25.3494,-10.7865 25.3494,-10.3063 C25.3494,-5.0245 25.3494,-5.0245 25.3494,-5.0245 Z" style="fill-rule: evenodd; fill: #171868; "/>
    <path xmlns="http://www.w3.org/2000/svg" d="  M25.3444,-5.7448 C25.3444,-5.2646 25.1043,-5.0245 24.8643,-5.0245 C18.1420,-5.0245 18.1420,-5.0245 18.1420,-5.0245 C17.9019,-5.0245 17.6618,-5.2646 17.6618,-5.7448 C17.6618,-8.3857 17.6618,-8.3857 17.6618,-8.3857 C17.6618,-8.6257 17.9019,-8.8658 18.1420,-8.8658 C24.8643,-8.8658 24.8643,-8.8658 24.8643,-8.8658 C25.1043,-8.8658 25.3444,-8.6257 25.3444,-8.3857 C25.3444,-5.7448 25.3444,-5.7448 25.3444,-5.7448 Z" style="fill-rule: evenodd; fill: #988db1; "/>
    <path xmlns="http://www.w3.org/2000/svg" d="  M24.6242,-5.9848 C24.6242,-5.7448 24.3841,-5.5047 24.1440,-5.5047 C18.8622,-5.5047 18.8622,-5.5047 18.8622,-5.5047 C18.6222,-5.5047 18.3821,-5.7448 18.3821,-5.9848 C18.3821,-7.6654 18.3821,-7.6654 18.3821,-7.6654 C18.3821,-7.9055 18.6222,-7.9055 18.8622,-7.9055 C24.1440,-7.9055 24.1440,-7.9055 24.1440,-7.9055 C24.3841,-7.9055 24.6242,-7.9055 24.6242,-7.6654 C24.6242,-5.9848 24.6242,-5.9848 24.6242,-5.9848 Z" style="fill-rule: evenodd; fill: #171868; "/>
    <path xmlns="http://www.w3.org/2000/svg" d="  M20.5428,-5.0245 C20.5428,-5.2646 20.5428,-5.2646 20.3027,-5.2646 C20.3027,-5.2646 20.3027,-5.2646 19.8226,-5.2646 C19.5825,-5.2646 19.5825,-5.2646 19.5825,-5.0245 C19.5825,-5.0245 19.5825,-4.7844 19.8226,-4.7844 C19.8226,-4.7844 19.8226,-4.7844 20.3027,-4.7844 C20.5428,-4.7844 20.5428,-5.0245 20.5428,-5.0245 Z M21.9833,-5.0245 C21.9833,-5.2646 21.9833,-5.2646 21.7432,-5.2646 C21.7432,-5.2646 21.7432,-5.2646 21.2630,-5.2646 C21.0230,-5.2646 21.0230,-5.2646 21.0230,-5.0245 C21.0230,-5.0245 21.0230,-4.7844 21.2630,-4.7844 C21.2630,-4.7844 21.2630,-4.7844 21.7432,-4.7844 C21.9833,-4.7844 21.9833,-5.0245 21.9833,-5.0245 Z M23.4238,-5.0245 C23.4238,-5.2646 23.4238,-5.2646 23.1837,-5.2646 C23.1837,-5.2646 23.1837,-5.2646 22.7035,-5.2646 C22.4634,-5.2646 22.4634,-5.2646 22.4634,-5.0245 C22.4634,-5.0245 22.4634,-4.7844 22.7035,-4.7844 C22.7035,-4.7844 22.7035,-4.7844 23.1837,-4.7844 C23.4238,-4.7844 23.4238,-5.0245 23.4238,-5.0245 Z" style="fill-rule: evenodd; fill: #ffffff; "/>
    <text xmlns="http://www.w3.org/2000/svg" x="5.7392" y="11.9724">
      <tspan font-family="Arial" font-size="4.5000" fill="#000000" fill-opacity="1.0000" stroke-opacity="1.0000">
FAS6000 Series</tspan>
    </text>
    <!--converted by libvisio2svg-->
  </g>
</svg>
