<svg xmlns="http://www.w3.org/2000/svg" xmlns:xlink="http://www.w3.org/1999/xlink" version="1.1" width="43.2146000000" height="7.2000000000">
  <title><![CDATA[FAS6000 rackmount]]></title>
  <g transform=" scale(1.000000) ">
    <g xmlns="http://www.w3.org/2000/svg" id="Layer1057">
      <path d="  M43.2934,7.1847 L0.0642,7.1847 L0.0642,-13.4863 L43.2934,-13.4863 L43.2934,7.1847 Z" style="stroke-width: 0.0240; stroke-linecap: round; stroke-linejoin: round; fill-rule: evenodd; fill: #3f387c; "/>
      <path d="  M43.2934,7.1847 L0.0642,7.1847 L0.0642,-13.4863 L43.2934,-13.4863 L43.2934,7.1847 Z" style="stroke-width: 0.0240; stroke: #ffffff; stroke-dasharray: none; stroke-linecap: round; stroke-linejoin: round; fill: none; "/>
    </g>
    <path xmlns="http://www.w3.org/2000/svg" d="  M2.9462,-13.2342 C2.9462,-13.2342 1.5052,-13.2342 1.5052,-3.1508 C1.5052,6.9326 3.1863,6.9326 3.1863,6.9326 C3.1863,6.9326 40.4115,6.9326 40.4115,6.9326 C40.4115,6.9326 41.8525,6.9326 41.8525,-3.1508 C41.8525,-13.2342 40.4115,-13.2342 40.4115,-13.2342 C40.1713,-13.2342 3.1863,-13.2342 2.9462,-13.2342 Z" style="fill-rule: evenodd; fill: #171868; "/>
    <g xmlns="http://www.w3.org/2000/svg" id="Layer1058">
      <path d="  M21.6788,-12.1569 C29.1239,-12.1569 37.5295,-11.4364 39.6910,-11.1962 C39.9312,-9.9954 40.1713,-6.8733 40.1713,-3.2708 C40.1713,0.5718 39.9312,3.6939 39.6910,4.8947 C37.5295,5.1348 29.1239,5.8553 21.6788,5.8553 C14.4740,5.8553 5.8281,5.1348 3.6666,4.8947 C3.4265,3.6939 3.1863,0.5718 3.1863,-3.2708 C3.1863,-6.8733 3.4265,-9.9954 3.6666,-11.1962 C6.0683,-11.4364 14.4740,-12.1569 21.6788,-12.1569 Z" style="stroke-width: 0.0000; stroke-linecap: round; stroke-linejoin: round; fill-rule: evenodd; fill: #ffffff; "/>
      <path d="  M21.6788,-12.1569 C29.1239,-12.1569 37.5295,-11.4364 39.6910,-11.1962 C39.9312,-9.9954 40.1713,-6.8733 40.1713,-3.2708 C40.1713,0.5718 39.9312,3.6939 39.6910,4.8947 C37.5295,5.1348 29.1239,5.8553 21.6788,5.8553 C14.4740,5.8553 5.8281,5.1348 3.6666,4.8947 C3.4265,3.6939 3.1863,0.5718 3.1863,-3.2708 C3.1863,-6.8733 3.4265,-9.9954 3.6666,-11.1962 C6.0683,-11.4364 14.4740,-12.1569 21.6788,-12.1569 Z" style="stroke-width: 0.0000; stroke: #ffffff; stroke-dasharray: none; stroke-linecap: round; stroke-linejoin: round; fill: none; "/>
    </g>
    <path xmlns="http://www.w3.org/2000/svg" d="  M29.2439,5.0148 C29.4841,3.8139 29.7243,0.6918 29.7243,-3.1508 C29.7243,-6.7532 29.4841,-9.8753 29.2439,-11.0761 C28.2833,-11.0761 28.2833,-11.0761 28.2833,-11.0761 C28.2833,5.0148 28.2833,5.0148 28.2833,5.0148 C29.2439,5.0148 29.2439,5.0148 29.2439,5.0148 Z M32.3661,4.7746 C32.6062,3.8139 32.8464,0.6918 32.8464,-3.1508 C32.8464,-6.7532 32.6062,-9.8753 32.3661,-11.0761 C31.4054,-11.0761 31.4054,-11.0761 31.4054,-11.0761 C31.4054,4.7746 31.4054,4.7746 31.4054,4.7746 C32.3661,4.7746 32.3661,4.7746 32.3661,4.7746 Z M35.7283,4.7746 C35.7283,3.5738 35.9685,0.4517 35.9685,-3.1508 C35.9685,-6.7532 35.7283,-9.6352 35.7283,-10.8360 C34.5275,-10.8360 34.5275,-10.8360 34.5275,-10.8360 C34.5275,4.7746 34.5275,4.7746 34.5275,4.7746 C35.7283,4.7746 35.7283,4.7746 35.7283,4.7746 Z M38.8504,4.5344 C39.0906,3.3336 39.3308,0.4517 39.3308,-3.1508 C39.3308,-6.5130 39.0906,-9.3950 38.8504,-10.5958 C37.8898,-10.5958 37.8898,-10.5958 37.8898,-10.5958 C37.8898,4.5344 37.8898,4.5344 37.8898,4.5344 C38.8504,4.5344 38.8504,4.5344 38.8504,4.5344 Z M4.2670,-10.5958 C4.2670,-9.3950 4.0269,-6.5130 4.0269,-3.1508 C4.0269,0.4517 4.2670,3.3336 4.2670,4.5344 C5.2277,4.5344 5.2277,4.5344 5.2277,4.5344 C5.2277,-10.5958 5.2277,-10.5958 5.2277,-10.5958 C4.2670,-10.5958 4.2670,-10.5958 4.2670,-10.5958 Z M7.6293,-10.8360 C7.3892,-9.6352 7.1490,-6.7532 7.1490,-3.1508 C7.1490,0.4517 7.3892,3.5738 7.6293,4.7746 C8.5900,4.7746 8.5900,4.7746 8.5900,4.7746 C8.5900,-10.8360 8.5900,-10.8360 8.5900,-10.8360 C7.6293,-10.8360 7.6293,-10.8360 7.6293,-10.8360 Z M10.7514,-11.0761 C10.5113,-9.8753 10.2711,-6.7532 10.2711,-3.1508 C10.2711,0.6918 10.5113,3.8139 10.7514,4.7746 C11.7121,4.7746 11.7121,4.7746 11.7121,4.7746 C11.7121,-11.0761 11.7121,-11.0761 11.7121,-11.0761 C10.7514,-11.0761 10.7514,-11.0761 10.7514,-11.0761 Z M13.8735,-11.0761 C13.8735,-9.8753 13.6334,-6.7532 13.6334,-3.1508 C13.6334,0.6918 13.8735,3.8139 13.8735,5.0148 C15.0744,5.0148 15.0744,5.0148 15.0744,5.0148 C15.0744,-11.0761 15.0744,-11.0761 15.0744,-11.0761 C13.8735,-11.0761 13.8735,-11.0761 13.8735,-11.0761 Z M25.4013,-5.0721 C25.4013,-4.5917 25.1612,-4.1114 24.9210,-4.1114 C18.4366,-4.1114 18.4366,-4.1114 18.4366,-4.1114 C17.9563,-4.1114 17.7161,-4.5917 17.7161,-5.0721 C17.7161,-10.3556 17.7161,-10.3556 17.7161,-10.3556 C17.7161,-10.8360 17.9563,-11.3163 18.4366,-11.3163 C24.9210,-11.3163 24.9210,-11.3163 24.9210,-11.3163 C25.1612,-11.3163 25.4013,-10.8360 25.4013,-10.3556 C25.4013,-5.0721 25.4013,-5.0721 25.4013,-5.0721 Z" style="fill-rule: evenodd; fill: #171868; "/>
    <path xmlns="http://www.w3.org/2000/svg" d="  M25.3964,-5.7926 C25.3964,-5.3122 25.1562,-5.0721 24.9161,-5.0721 C18.1915,-5.0721 18.1915,-5.0721 18.1915,-5.0721 C17.9513,-5.0721 17.7112,-5.3122 17.7112,-5.7926 C17.7112,-8.4343 17.7112,-8.4343 17.7112,-8.4343 C17.7112,-8.6745 17.9513,-8.9147 18.1915,-8.9147 C24.9161,-8.9147 24.9161,-8.9147 24.9161,-8.9147 C25.1562,-8.9147 25.3964,-8.6745 25.3964,-8.4343 C25.3964,-5.7926 25.3964,-5.7926 25.3964,-5.7926 Z" style="fill-rule: evenodd; fill: #988db1; "/>
    <path xmlns="http://www.w3.org/2000/svg" d="  M24.6759,-6.0327 C24.6759,-5.7926 24.4357,-5.5524 24.1956,-5.5524 C18.9120,-5.5524 18.9120,-5.5524 18.9120,-5.5524 C18.6718,-5.5524 18.4317,-5.7926 18.4317,-6.0327 C18.4317,-7.7139 18.4317,-7.7139 18.4317,-7.7139 C18.4317,-7.9540 18.6718,-7.9540 18.9120,-7.9540 C24.1956,-7.9540 24.1956,-7.9540 24.1956,-7.9540 C24.4357,-7.9540 24.6759,-7.9540 24.6759,-7.7139 C24.6759,-6.0327 24.6759,-6.0327 24.6759,-6.0327 Z" style="fill-rule: evenodd; fill: #171868; "/>
    <path xmlns="http://www.w3.org/2000/svg" d="  M20.5931,-5.0721 C20.5931,-5.3122 20.5931,-5.3122 20.3530,-5.3122 C20.3530,-5.3122 20.3530,-5.3122 19.8726,-5.3122 C19.6325,-5.3122 19.6325,-5.3122 19.6325,-5.0721 C19.6325,-5.0721 19.6325,-4.8319 19.8726,-4.8319 C19.8726,-4.8319 19.8726,-4.8319 20.3530,-4.8319 C20.5931,-4.8319 20.5931,-5.0721 20.5931,-5.0721 Z M22.0341,-5.0721 C22.0341,-5.3122 22.0341,-5.3122 21.7939,-5.3122 C21.7939,-5.3122 21.7939,-5.3122 21.3136,-5.3122 C21.0735,-5.3122 21.0735,-5.3122 21.0735,-5.0721 C21.0735,-5.0721 21.0735,-4.8319 21.3136,-4.8319 C21.3136,-4.8319 21.3136,-4.8319 21.7939,-4.8319 C22.0341,-4.8319 22.0341,-5.0721 22.0341,-5.0721 Z M23.4751,-5.0721 C23.4751,-5.3122 23.4751,-5.3122 23.2349,-5.3122 C23.2349,-5.3122 23.2349,-5.3122 22.7546,-5.3122 C22.5144,-5.3122 22.5144,-5.3122 22.5144,-5.0721 C22.5144,-5.0721 22.5144,-4.8319 22.7546,-4.8319 C22.7546,-4.8319 22.7546,-4.8319 23.2349,-4.8319 C23.4751,-4.8319 23.4751,-5.0721 23.4751,-5.0721 Z" style="fill-rule: evenodd; fill: #ffffff; "/>
    <!--converted by libvisio2svg-->
  </g>
</svg>
