<svg xmlns="http://www.w3.org/2000/svg" xmlns:xlink="http://www.w3.org/1999/xlink" version="1.1" width="7.2000000000" height="171.3600000000">
  <title><![CDATA[FAS6000 Series racked]]></title>
  <g transform=" scale(1.000000) ">
    <path xmlns="http://www.w3.org/2000/svg" d="  M47.4166,2.1020 L-1.8000,2.1020 L0.8409,-1.4992 L45.0158,-1.4992 L47.4166,2.1020 Z" style="fill-rule: evenodd; fill: #b3b3b3; "/>
    <path xmlns="http://www.w3.org/2000/svg" d="  M47.4166,2.1020 L-1.8000,2.1020 L-1.8000,173.5200 L47.4166,173.5200 L47.4166,2.1020 Z" style="fill-rule: evenodd; fill: #7f7f7f; "/>
    <g xmlns="http://www.w3.org/2000/svg" id="Layer1050">
      <path d="  M44.5357,64.4031 L1.3211,64.4031 L1.3211,76.1671 L44.5357,76.1671 L44.5357,64.4031 Z M44.5357,52.8792 L1.3211,52.8792 L1.3211,64.4031 L44.5357,64.4031 L44.5357,52.8792 Z M44.5357,41.1152 L1.3211,41.1152 L1.3211,52.8792 L44.5357,52.8792 L44.5357,41.1152 Z M44.5357,29.5913 L1.3211,29.5913 L1.3211,41.1152 L44.5357,41.1152 L44.5357,29.5913 Z M44.5357,18.0674 L1.3211,18.0674 L1.3211,29.5913 L44.5357,29.5913 L44.5357,18.0674 Z M44.5357,18.0674 L44.5357,6.3034 L1.3211,6.3034 L1.3211,18.0674 L44.5357,18.0674 Z" style="stroke-width: 0.0240; stroke-linecap: round; stroke-linejoin: round; fill-rule: evenodd; fill: #171868; "/>
      <path d="  M44.5357,64.4031 L1.3211,64.4031 L1.3211,76.1671 L44.5357,76.1671 L44.5357,64.4031 Z M44.5357,52.8792 L1.3211,52.8792 L1.3211,64.4031 L44.5357,64.4031 L44.5357,52.8792 Z M44.5357,41.1152 L1.3211,41.1152 L1.3211,52.8792 L44.5357,52.8792 L44.5357,41.1152 Z M44.5357,29.5913 L1.3211,29.5913 L1.3211,41.1152 L44.5357,41.1152 L44.5357,29.5913 Z M44.5357,18.0674 L1.3211,18.0674 L1.3211,29.5913 L44.5357,29.5913 L44.5357,18.0674 Z M44.5357,18.0674 L44.5357,6.3034 L1.3211,6.3034 L1.3211,18.0674 L44.5357,18.0674 Z" style="stroke-width: 0.0240; stroke: #ffffff; stroke-dasharray: none; stroke-linecap: round; stroke-linejoin: round; fill: none; "/>
    </g>
    <g xmlns="http://www.w3.org/2000/svg" id="Layer1051">
      <path d="  M1.3211,111.2189 L44.5357,111.2189 L44.5357,99.6950 L1.3211,99.6950 L1.3211,111.2189 Z M1.3211,111.2189 L1.3211,122.7428 L44.5357,122.7428 L44.5357,111.2189 L1.3211,111.2189 Z M1.3211,122.7428 L1.3211,134.5068 L44.5357,134.5068 L44.5357,122.7428 L1.3211,122.7428 Z M1.3211,134.5068 L1.3211,146.0307 L44.5357,146.0307 L44.5357,134.5068 L1.3211,134.5068 Z M1.3211,146.0307 L1.3211,157.7947 L44.5357,157.7947 L44.5357,146.0307 L1.3211,146.0307 Z M1.3211,157.7947 L1.3211,169.3186 L44.5357,169.3186 L44.5357,157.7947 L1.3211,157.7947 Z" style="stroke-width: 0.0240; stroke-linecap: round; stroke-linejoin: round; fill-rule: evenodd; fill: #171868; "/>
      <path d="  M1.3211,111.2189 L44.5357,111.2189 L44.5357,99.6950 L1.3211,99.6950 L1.3211,111.2189 Z M1.3211,111.2189 L1.3211,122.7428 L44.5357,122.7428 L44.5357,111.2189 L1.3211,111.2189 Z M1.3211,122.7428 L1.3211,134.5068 L44.5357,134.5068 L44.5357,122.7428 L1.3211,122.7428 Z M1.3211,134.5068 L1.3211,146.0307 L44.5357,146.0307 L44.5357,134.5068 L1.3211,134.5068 Z M1.3211,146.0307 L1.3211,157.7947 L44.5357,157.7947 L44.5357,146.0307 L1.3211,146.0307 Z M1.3211,157.7947 L1.3211,169.3186 L44.5357,169.3186 L44.5357,157.7947 L1.3211,157.7947 Z" style="stroke-width: 0.0240; stroke: #ffffff; stroke-dasharray: none; stroke-linecap: round; stroke-linejoin: round; fill: none; "/>
    </g>
    <path xmlns="http://www.w3.org/2000/svg" d="  M17.8867,19.5079 C17.8867,20.9484 17.8867,20.9484 17.8867,20.9484 C18.8470,22.3889 19.3271,23.1091 19.3271,25.5099 C19.3271,25.5099 19.3271,25.7500 19.3271,25.9901 C20.7676,25.9901 20.7676,25.9901 20.7676,25.9901 C20.7676,19.5079 20.7676,19.5079 20.7676,19.5079 C17.8867,19.5079 17.8867,19.5079 17.8867,19.5079 Z M21.7280,19.5079 C21.7280,20.9484 21.7280,20.9484 21.7280,20.9484 C22.4482,22.3889 22.9284,23.1091 22.9284,25.5099 C22.9284,25.5099 22.9284,25.7500 22.9284,25.9901 C24.3689,25.9901 24.3689,25.9901 24.3689,25.9901 C24.3689,19.5079 24.3689,19.5079 24.3689,19.5079 C21.7280,19.5079 21.7280,19.5079 21.7280,19.5079 Z M25.3292,19.5079 C25.3292,20.9484 25.3292,20.9484 25.3292,20.9484 C26.0494,22.3889 26.5296,23.1091 26.5296,25.5099 C26.5296,25.5099 26.5296,25.7500 26.5296,25.9901 C27.9701,25.9901 27.9701,25.9901 27.9701,25.9901 C27.9701,19.5079 27.9701,19.5079 27.9701,19.5079 C25.3292,19.5079 25.3292,19.5079 25.3292,19.5079 Z M28.9304,19.5079 C28.9304,20.9484 28.9304,20.9484 28.9304,20.9484 C29.6506,22.3889 30.3709,23.1091 30.3709,25.5099 C30.3709,25.5099 30.1308,25.7500 30.1308,25.9901 C31.5713,25.9901 31.5713,25.9901 31.5713,25.9901 C31.5713,19.5079 31.5713,19.5079 31.5713,19.5079 C28.9304,19.5079 28.9304,19.5079 28.9304,19.5079 Z M32.5316,19.5079 C32.5316,20.9484 32.5316,20.9484 32.5316,20.9484 C33.2519,22.3889 33.9721,23.1091 33.9721,25.5099 C33.9721,25.5099 33.9721,25.7500 33.9721,25.9901 C35.1725,25.9901 35.1725,25.9901 35.1725,25.9901 C35.1725,19.5079 35.1725,19.5079 35.1725,19.5079 C32.5316,19.5079 32.5316,19.5079 32.5316,19.5079 Z M36.1328,19.5079 C36.1328,20.9484 36.1328,20.9484 36.1328,20.9484 C37.0932,22.3889 37.5733,23.1091 37.5733,25.5099 C37.5733,25.5099 37.5733,25.7500 37.5733,25.9901 C38.7737,25.9901 38.7737,25.9901 38.7737,25.9901 C38.7737,19.5079 38.7737,19.5079 38.7737,19.5079 C36.1328,19.5079 36.1328,19.5079 36.1328,19.5079 Z M39.7340,19.5079 C39.7340,20.9484 39.7340,20.9484 39.7340,20.9484 C40.6944,22.3889 41.1745,23.1091 41.1745,25.5099 C41.1745,25.5099 41.1745,25.7500 41.1745,25.9901 C42.3749,25.9901 42.3749,25.9901 42.3749,25.9901 C42.3749,19.5079 42.3749,19.5079 42.3749,19.5079 C39.7340,19.5079 39.7340,19.5079 39.7340,19.5079 Z M3.4818,19.5079 C3.4818,20.9484 3.4818,20.9484 3.4818,20.9484 C4.2020,22.3889 4.6822,23.1091 4.6822,25.5099 C4.6822,25.5099 4.6822,25.7500 4.6822,25.9901 C6.1227,25.9901 6.1227,25.9901 6.1227,25.9901 C6.1227,19.5079 6.1227,19.5079 6.1227,19.5079 C3.4818,19.5079 3.4818,19.5079 3.4818,19.5079 Z M7.0830,19.5079 C7.0830,20.9484 7.0830,20.9484 7.0830,20.9484 C7.8032,22.3889 8.5235,23.1091 8.5235,25.5099 C8.5235,25.5099 8.2834,25.7500 8.2834,25.9901 C9.7239,25.9901 9.7239,25.9901 9.7239,25.9901 C9.7239,19.5079 9.7239,19.5079 9.7239,19.5079 C7.0830,19.5079 7.0830,19.5079 7.0830,19.5079 Z M10.6842,19.5079 C10.6842,20.9484 10.6842,20.9484 10.6842,20.9484 C11.4045,22.3889 12.1247,23.1091 12.1247,25.5099 C12.1247,25.5099 12.1247,25.7500 12.1247,25.9901 C13.3251,25.9901 13.3251,25.9901 13.3251,25.9901 C13.3251,19.5079 13.3251,19.5079 13.3251,19.5079 C10.6842,19.5079 10.6842,19.5079 10.6842,19.5079 Z M14.2854,19.5079 C14.2854,20.9484 14.2854,20.9484 14.2854,20.9484 C15.2458,22.3889 15.7259,23.1091 15.7259,25.5099 C15.7259,25.5099 15.7259,25.7500 15.7259,25.9901 C16.9263,25.9901 16.9263,25.9901 16.9263,25.9901 C16.9263,19.5079 16.9263,19.5079 16.9263,19.5079 C14.2854,19.5079 14.2854,19.5079 14.2854,19.5079 Z M17.8867,7.9840 C17.8867,9.4245 17.8867,9.4245 17.8867,9.4245 C18.8470,10.6249 19.3271,11.5852 19.3271,13.7460 C19.3271,13.9860 19.3271,14.2261 19.3271,14.2261 C20.7676,14.2261 20.7676,14.2261 20.7676,14.2261 C20.7676,7.9840 20.7676,7.9840 20.7676,7.9840 C17.8867,7.9840 17.8867,7.9840 17.8867,7.9840 Z M21.7280,7.9840 C21.7280,9.4245 21.7280,9.4245 21.7280,9.4245 C22.4482,10.6249 22.9284,11.5852 22.9284,13.7460 C22.9284,13.9860 22.9284,14.2261 22.9284,14.2261 C24.3689,14.2261 24.3689,14.2261 24.3689,14.2261 C24.3689,7.9840 24.3689,7.9840 24.3689,7.9840 C21.7280,7.9840 21.7280,7.9840 21.7280,7.9840 Z M25.3292,7.9840 C25.3292,9.4245 25.3292,9.4245 25.3292,9.4245 C26.0494,10.6249 26.5296,11.5852 26.5296,13.7460 C26.5296,13.9860 26.5296,14.2261 26.5296,14.2261 C27.9701,14.2261 27.9701,14.2261 27.9701,14.2261 C27.9701,7.9840 27.9701,7.9840 27.9701,7.9840 C25.3292,7.9840 25.3292,7.9840 25.3292,7.9840 Z M28.9304,7.9840 C28.9304,9.4245 28.9304,9.4245 28.9304,9.4245 C29.6506,10.6249 30.3709,11.5852 30.3709,13.7460 C30.3709,13.9860 30.1308,14.2261 30.1308,14.2261 C31.5713,14.2261 31.5713,14.2261 31.5713,14.2261 C31.5713,7.9840 31.5713,7.9840 31.5713,7.9840 C28.9304,7.9840 28.9304,7.9840 28.9304,7.9840 Z M32.5316,7.9840 C32.5316,9.4245 32.5316,9.4245 32.5316,9.4245 C33.2519,10.6249 33.9721,11.5852 33.9721,13.7460 C33.9721,13.9860 33.9721,14.2261 33.9721,14.2261 C35.1725,14.2261 35.1725,14.2261 35.1725,14.2261 C35.1725,7.9840 35.1725,7.9840 35.1725,7.9840 C32.5316,7.9840 32.5316,7.9840 32.5316,7.9840 Z M36.1328,7.9840 C36.1328,9.4245 36.1328,9.4245 36.1328,9.4245 C37.0932,10.6249 37.5733,11.5852 37.5733,13.7460 C37.5733,13.9860 37.5733,14.2261 37.5733,14.2261 C38.7737,14.2261 38.7737,14.2261 38.7737,14.2261 C38.7737,7.9840 38.7737,7.9840 38.7737,7.9840 C36.1328,7.9840 36.1328,7.9840 36.1328,7.9840 Z M39.7340,7.9840 C39.7340,9.4245 39.7340,9.4245 39.7340,9.4245 C40.6944,10.6249 41.1745,11.5852 41.1745,13.7460 C41.1745,13.9860 41.1745,14.2261 41.1745,14.2261 C42.3749,14.2261 42.3749,14.2261 42.3749,14.2261 C42.3749,7.9840 42.3749,7.9840 42.3749,7.9840 C39.7340,7.9840 39.7340,7.9840 39.7340,7.9840 Z M3.4818,7.9840 C3.4818,9.4245 3.4818,9.4245 3.4818,9.4245 C4.2020,10.6249 4.6822,11.5852 4.6822,13.7460 C4.6822,13.9860 4.6822,14.2261 4.6822,14.2261 C6.1227,14.2261 6.1227,14.2261 6.1227,14.2261 C6.1227,7.9840 6.1227,7.9840 6.1227,7.9840 C3.4818,7.9840 3.4818,7.9840 3.4818,7.9840 Z M7.0830,7.9840 C7.0830,9.4245 7.0830,9.4245 7.0830,9.4245 C7.8032,10.6249 8.5235,11.5852 8.5235,13.7460 C8.5235,13.9860 8.2834,14.2261 8.2834,14.2261 C9.7239,14.2261 9.7239,14.2261 9.7239,14.2261 C9.7239,7.9840 9.7239,7.9840 9.7239,7.9840 C7.0830,7.9840 7.0830,7.9840 7.0830,7.9840 Z M10.6842,7.9840 C10.6842,9.4245 10.6842,9.4245 10.6842,9.4245 C11.4045,10.6249 12.1247,11.5852 12.1247,13.7460 C12.1247,13.9860 12.1247,14.2261 12.1247,14.2261 C13.3251,14.2261 13.3251,14.2261 13.3251,14.2261 C13.3251,7.9840 13.3251,7.9840 13.3251,7.9840 C10.6842,7.9840 10.6842,7.9840 10.6842,7.9840 Z M14.2854,7.9840 C14.2854,9.4245 14.2854,9.4245 14.2854,9.4245 C15.2458,10.6249 15.7259,11.5852 15.7259,13.7460 C15.7259,13.9860 15.7259,14.2261 15.7259,14.2261 C16.9263,14.2261 16.9263,14.2261 16.9263,14.2261 C16.9263,7.9840 16.9263,7.9840 16.9263,7.9840 C14.2854,7.9840 14.2854,7.9840 14.2854,7.9840 Z M17.8867,54.5598 C17.8867,56.0002 17.8867,56.0002 17.8867,56.0002 C18.8470,57.2007 19.3271,57.9209 19.3271,60.3217 C19.3271,60.5618 19.3271,60.5618 19.3271,60.8019 C20.7676,60.8019 20.7676,60.8019 20.7676,60.8019 C20.7676,54.5598 20.7676,54.5598 20.7676,54.5598 C17.8867,54.5598 17.8867,54.5598 17.8867,54.5598 Z M21.7280,54.5598 C21.7280,56.0002 21.7280,56.0002 21.7280,56.0002 C22.4482,57.2007 22.9284,57.9209 22.9284,60.3217 C22.9284,60.5618 22.9284,60.5618 22.9284,60.8019 C24.3689,60.8019 24.3689,60.8019 24.3689,60.8019 C24.3689,54.5598 24.3689,54.5598 24.3689,54.5598 C21.7280,54.5598 21.7280,54.5598 21.7280,54.5598 Z M25.3292,54.5598 C25.3292,56.0002 25.3292,56.0002 25.3292,56.0002 C26.0494,57.2007 26.5296,57.9209 26.5296,60.3217 C26.5296,60.5618 26.5296,60.5618 26.5296,60.8019 C27.9701,60.8019 27.9701,60.8019 27.9701,60.8019 C27.9701,54.5598 27.9701,54.5598 27.9701,54.5598 C25.3292,54.5598 25.3292,54.5598 25.3292,54.5598 Z M28.9304,54.5598 C28.9304,56.0002 28.9304,56.0002 28.9304,56.0002 C29.6506,57.2007 30.3709,57.9209 30.3709,60.3217 C30.3709,60.5618 30.1308,60.5618 30.1308,60.8019 C31.5713,60.8019 31.5713,60.8019 31.5713,60.8019 C31.5713,54.5598 31.5713,54.5598 31.5713,54.5598 C28.9304,54.5598 28.9304,54.5598 28.9304,54.5598 Z M32.5316,54.5598 C32.5316,56.0002 32.5316,56.0002 32.5316,56.0002 C33.2519,57.2007 33.9721,57.9209 33.9721,60.3217 C33.9721,60.5618 33.9721,60.5618 33.9721,60.8019 C35.1725,60.8019 35.1725,60.8019 35.1725,60.8019 C35.1725,54.5598 35.1725,54.5598 35.1725,54.5598 C32.5316,54.5598 32.5316,54.5598 32.5316,54.5598 Z M36.1328,54.5598 C36.1328,56.0002 36.1328,56.0002 36.1328,56.0002 C37.0932,57.2007 37.5733,57.9209 37.5733,60.3217 C37.5733,60.5618 37.5733,60.5618 37.5733,60.8019 C38.7737,60.8019 38.7737,60.8019 38.7737,60.8019 C38.7737,54.5598 38.7737,54.5598 38.7737,54.5598 C36.1328,54.5598 36.1328,54.5598 36.1328,54.5598 Z M39.7340,54.5598 C39.7340,56.0002 39.7340,56.0002 39.7340,56.0002 C40.6944,57.2007 41.1745,57.9209 41.1745,60.3217 C41.1745,60.5618 41.1745,60.5618 41.1745,60.8019 C42.3749,60.8019 42.3749,60.8019 42.3749,60.8019 C42.3749,54.5598 42.3749,54.5598 42.3749,54.5598 C39.7340,54.5598 39.7340,54.5598 39.7340,54.5598 Z M3.4818,54.5598 C3.4818,56.0002 3.4818,56.0002 3.4818,56.0002 C4.2020,57.2007 4.6822,57.9209 4.6822,60.3217 C4.6822,60.5618 4.6822,60.5618 4.6822,60.8019 C6.1227,60.8019 6.1227,60.8019 6.1227,60.8019 C6.1227,54.5598 6.1227,54.5598 6.1227,54.5598 C3.4818,54.5598 3.4818,54.5598 3.4818,54.5598 Z M7.0830,54.5598 C7.0830,56.0002 7.0830,56.0002 7.0830,56.0002 C7.8032,57.2007 8.5235,57.9209 8.5235,60.3217 C8.5235,60.5618 8.2834,60.5618 8.2834,60.8019 C9.7239,60.8019 9.7239,60.8019 9.7239,60.8019 C9.7239,54.5598 9.7239,54.5598 9.7239,54.5598 C7.0830,54.5598 7.0830,54.5598 7.0830,54.5598 Z M10.6842,54.5598 C10.6842,56.0002 10.6842,56.0002 10.6842,56.0002 C11.4045,57.2007 12.1247,57.9209 12.1247,60.3217 C12.1247,60.5618 12.1247,60.5618 12.1247,60.8019 C13.3251,60.8019 13.3251,60.8019 13.3251,60.8019 C13.3251,54.5598 13.3251,54.5598 13.3251,54.5598 C10.6842,54.5598 10.6842,54.5598 10.6842,54.5598 Z M14.2854,54.5598 C14.2854,56.0002 14.2854,56.0002 14.2854,56.0002 C15.2458,57.2007 15.7259,57.9209 15.7259,60.3217 C15.7259,60.5618 15.7259,60.5618 15.7259,60.8019 C16.9263,60.8019 16.9263,60.8019 16.9263,60.8019 C16.9263,54.5598 16.9263,54.5598 16.9263,54.5598 C14.2854,54.5598 14.2854,54.5598 14.2854,54.5598 Z M36.1328,66.0837 C36.1328,67.5241 36.1328,67.5241 36.1328,67.5241 C37.0932,68.9646 37.5733,69.6849 37.5733,71.8456 C37.5733,72.0857 37.5733,72.3258 37.5733,72.5659 C38.7737,72.5659 38.7737,72.5659 38.7737,72.5659 C38.7737,66.0837 38.7737,66.0837 38.7737,66.0837 C36.1328,66.0837 36.1328,66.0837 36.1328,66.0837 Z M39.7340,66.0837 C39.7340,67.5241 39.7340,67.5241 39.7340,67.5241 C40.6944,68.9646 41.1745,69.6849 41.1745,71.8456 C41.1745,72.0857 41.1745,72.3258 41.1745,72.5659 C42.3749,72.5659 42.3749,72.5659 42.3749,72.5659 C42.3749,66.0837 42.3749,66.0837 42.3749,66.0837 C39.7340,66.0837 39.7340,66.0837 39.7340,66.0837 Z M28.9304,66.0837 C28.9304,67.5241 28.9304,67.5241 28.9304,67.5241 C29.6506,68.9646 30.3709,69.6849 30.3709,71.8456 C30.3709,72.0857 30.1308,72.3258 30.1308,72.5659 C31.5713,72.5659 31.5713,72.5659 31.5713,72.5659 C31.5713,66.0837 31.5713,66.0837 31.5713,66.0837 C28.9304,66.0837 28.9304,66.0837 28.9304,66.0837 Z M32.5316,66.0837 C32.5316,67.5241 32.5316,67.5241 32.5316,67.5241 C33.2519,68.9646 33.9721,69.6849 33.9721,71.8456 C33.9721,72.0857 33.9721,72.3258 33.9721,72.5659 C35.1725,72.5659 35.1725,72.5659 35.1725,72.5659 C35.1725,66.0837 35.1725,66.0837 35.1725,66.0837 C32.5316,66.0837 32.5316,66.0837 32.5316,66.0837 Z M25.3292,66.0837 C25.3292,67.5241 25.3292,67.5241 25.3292,67.5241 C26.0494,68.9646 26.5296,69.6849 26.5296,71.8456 C26.5296,72.0857 26.5296,72.3258 26.5296,72.5659 C27.9701,72.5659 27.9701,72.5659 27.9701,72.5659 C27.9701,66.0837 27.9701,66.0837 27.9701,66.0837 C25.3292,66.0837 25.3292,66.0837 25.3292,66.0837 Z M17.8867,66.0837 C17.8867,67.5241 17.8867,67.5241 17.8867,67.5241 C18.8470,68.9646 19.3271,69.6849 19.3271,71.8456 C19.3271,72.0857 19.3271,72.3258 19.3271,72.5659 C20.7676,72.5659 20.7676,72.5659 20.7676,72.5659 C20.7676,66.0837 20.7676,66.0837 20.7676,66.0837 C17.8867,66.0837 17.8867,66.0837 17.8867,66.0837 Z M21.7280,66.0837 C21.7280,67.5241 21.7280,67.5241 21.7280,67.5241 C22.4482,68.9646 22.9284,69.6849 22.9284,71.8456 C22.9284,72.0857 22.9284,72.3258 22.9284,72.5659 C24.3689,72.5659 24.3689,72.5659 24.3689,72.5659 C24.3689,66.0837 24.3689,66.0837 24.3689,66.0837 C21.7280,66.0837 21.7280,66.0837 21.7280,66.0837 Z M10.6842,66.0837 C10.6842,67.5241 10.6842,67.5241 10.6842,67.5241 C11.4045,68.9646 12.1247,69.6849 12.1247,71.8456 C12.1247,72.0857 12.1247,72.3258 12.1247,72.5659 C13.3251,72.5659 13.3251,72.5659 13.3251,72.5659 C13.3251,66.0837 13.3251,66.0837 13.3251,66.0837 C10.6842,66.0837 10.6842,66.0837 10.6842,66.0837 Z M14.2854,66.0837 C14.2854,67.5241 14.2854,67.5241 14.2854,67.5241 C15.2458,68.9646 15.7259,69.6849 15.7259,71.8456 C15.7259,72.0857 15.7259,72.3258 15.7259,72.5659 C16.9263,72.5659 16.9263,72.5659 16.9263,72.5659 C16.9263,66.0837 16.9263,66.0837 16.9263,66.0837 C14.2854,66.0837 14.2854,66.0837 14.2854,66.0837 Z M7.0830,66.0837 C7.0830,67.5241 7.0830,67.5241 7.0830,67.5241 C7.8032,68.9646 8.5235,69.6849 8.5235,71.8456 C8.5235,72.0857 8.2834,72.3258 8.2834,72.5659 C9.7239,72.5659 9.7239,72.5659 9.7239,72.5659 C9.7239,66.0837 9.7239,66.0837 9.7239,66.0837 C7.0830,66.0837 7.0830,66.0837 7.0830,66.0837 Z M3.4818,66.0837 C3.4818,67.5241 3.4818,67.5241 3.4818,67.5241 C4.2020,68.9646 4.6822,69.6849 4.6822,71.8456 C4.6822,72.0857 4.6822,72.3258 4.6822,72.5659 C6.1227,72.5659 6.1227,72.5659 6.1227,72.5659 C6.1227,66.0837 6.1227,66.0837 6.1227,66.0837 C3.4818,66.0837 3.4818,66.0837 3.4818,66.0837 Z M17.8867,42.7958 C17.8867,44.2363 17.8867,44.2363 17.8867,44.2363 C18.8470,45.6768 19.3271,46.3970 19.3271,48.5577 C19.3271,48.7978 19.3271,49.0379 19.3271,49.2780 C20.7676,49.2780 20.7676,49.2780 20.7676,49.2780 C20.7676,42.7958 20.7676,42.7958 20.7676,42.7958 C17.8867,42.7958 17.8867,42.7958 17.8867,42.7958 Z M21.7280,42.7958 C21.7280,44.2363 21.7280,44.2363 21.7280,44.2363 C22.4482,45.6768 22.9284,46.3970 22.9284,48.5577 C22.9284,48.7978 22.9284,49.0379 22.9284,49.2780 C24.3689,49.2780 24.3689,49.2780 24.3689,49.2780 C24.3689,42.7958 24.3689,42.7958 24.3689,42.7958 C21.7280,42.7958 21.7280,42.7958 21.7280,42.7958 Z M25.3292,42.7958 C25.3292,44.2363 25.3292,44.2363 25.3292,44.2363 C26.0494,45.6768 26.5296,46.3970 26.5296,48.5577 C26.5296,48.7978 26.5296,49.0379 26.5296,49.2780 C27.9701,49.2780 27.9701,49.2780 27.9701,49.2780 C27.9701,42.7958 27.9701,42.7958 27.9701,42.7958 C25.3292,42.7958 25.3292,42.7958 25.3292,42.7958 Z M28.9304,42.7958 C28.9304,44.2363 28.9304,44.2363 28.9304,44.2363 C29.6506,45.6768 30.3709,46.3970 30.3709,48.5577 C30.3709,48.7978 30.1308,49.0379 30.1308,49.2780 C31.5713,49.2780 31.5713,49.2780 31.5713,49.2780 C31.5713,42.7958 31.5713,42.7958 31.5713,42.7958 C28.9304,42.7958 28.9304,42.7958 28.9304,42.7958 Z M32.5316,42.7958 C32.5316,44.2363 32.5316,44.2363 32.5316,44.2363 C33.2519,45.6768 33.9721,46.3970 33.9721,48.5577 C33.9721,48.7978 33.9721,49.0379 33.9721,49.2780 C35.1725,49.2780 35.1725,49.2780 35.1725,49.2780 C35.1725,42.7958 35.1725,42.7958 35.1725,42.7958 C32.5316,42.7958 32.5316,42.7958 32.5316,42.7958 Z M36.1328,42.7958 C36.1328,44.2363 36.1328,44.2363 36.1328,44.2363 C37.0932,45.6768 37.5733,46.3970 37.5733,48.5577 C37.5733,48.7978 37.5733,49.0379 37.5733,49.2780 C38.7737,49.2780 38.7737,49.2780 38.7737,49.2780 C38.7737,42.7958 38.7737,42.7958 38.7737,42.7958 C36.1328,42.7958 36.1328,42.7958 36.1328,42.7958 Z M39.7340,42.7958 C39.7340,44.2363 39.7340,44.2363 39.7340,44.2363 C40.6944,45.6768 41.1745,46.3970 41.1745,48.5577 C41.1745,48.7978 41.1745,49.0379 41.1745,49.2780 C42.3749,49.2780 42.3749,49.2780 42.3749,49.2780 C42.3749,42.7958 42.3749,42.7958 42.3749,42.7958 C39.7340,42.7958 39.7340,42.7958 39.7340,42.7958 Z M3.4818,42.7958 C3.4818,44.2363 3.4818,44.2363 3.4818,44.2363 C4.2020,45.6768 4.6822,46.3970 4.6822,48.5577 C4.6822,48.7978 4.6822,49.0379 4.6822,49.2780 C6.1227,49.2780 6.1227,49.2780 6.1227,49.2780 C6.1227,42.7958 6.1227,42.7958 6.1227,42.7958 C3.4818,42.7958 3.4818,42.7958 3.4818,42.7958 Z M7.0830,42.7958 C7.0830,44.2363 7.0830,44.2363 7.0830,44.2363 C7.8032,45.6768 8.5235,46.3970 8.5235,48.5577 C8.5235,48.7978 8.2834,49.0379 8.2834,49.2780 C9.7239,49.2780 9.7239,49.2780 9.7239,49.2780 C9.7239,42.7958 9.7239,42.7958 9.7239,42.7958 C7.0830,42.7958 7.0830,42.7958 7.0830,42.7958 Z M10.6842,42.7958 C10.6842,44.2363 10.6842,44.2363 10.6842,44.2363 C11.4045,45.6768 12.1247,46.3970 12.1247,48.5577 C12.1247,48.7978 12.1247,49.0379 12.1247,49.2780 C13.3251,49.2780 13.3251,49.2780 13.3251,49.2780 C13.3251,42.7958 13.3251,42.7958 13.3251,42.7958 C10.6842,42.7958 10.6842,42.7958 10.6842,42.7958 Z M14.2854,42.7958 C14.2854,44.2363 14.2854,44.2363 14.2854,44.2363 C15.2458,45.6768 15.7259,46.3970 15.7259,48.5577 C15.7259,48.7978 15.7259,49.0379 15.7259,49.2780 C16.9263,49.2780 16.9263,49.2780 16.9263,49.2780 C16.9263,42.7958 16.9263,42.7958 16.9263,42.7958 C14.2854,42.7958 14.2854,42.7958 14.2854,42.7958 Z M3.4818,31.2719 C3.4818,32.7124 3.4818,32.7124 3.4818,32.7124 C4.2020,33.9128 4.6822,34.6330 4.6822,37.0338 C4.6822,37.2739 4.6822,37.5140 4.6822,37.5140 C6.1227,37.5140 6.1227,37.5140 6.1227,37.5140 C6.1227,31.2719 6.1227,31.2719 6.1227,31.2719 C3.4818,31.2719 3.4818,31.2719 3.4818,31.2719 Z M7.0830,31.2719 C7.0830,32.7124 7.0830,32.7124 7.0830,32.7124 C7.8032,33.9128 8.5235,34.6330 8.5235,37.0338 C8.5235,37.2739 8.2834,37.5140 8.2834,37.5140 C9.7239,37.5140 9.7239,37.5140 9.7239,37.5140 C9.7239,31.2719 9.7239,31.2719 9.7239,31.2719 C7.0830,31.2719 7.0830,31.2719 7.0830,31.2719 Z M10.6842,31.2719 C10.6842,32.7124 10.6842,32.7124 10.6842,32.7124 C11.4045,33.9128 12.1247,34.6330 12.1247,37.0338 C12.1247,37.2739 12.1247,37.5140 12.1247,37.5140 C13.3251,37.5140 13.3251,37.5140 13.3251,37.5140 C13.3251,31.2719 13.3251,31.2719 13.3251,31.2719 C10.6842,31.2719 10.6842,31.2719 10.6842,31.2719 Z M14.2854,31.2719 C14.2854,32.7124 14.2854,32.7124 14.2854,32.7124 C15.2458,33.9128 15.7259,34.6330 15.7259,37.0338 C15.7259,37.2739 15.7259,37.5140 15.7259,37.5140 C16.9263,37.5140 16.9263,37.5140 16.9263,37.5140 C16.9263,31.2719 16.9263,31.2719 16.9263,31.2719 C14.2854,31.2719 14.2854,31.2719 14.2854,31.2719 Z M17.8867,31.2719 C17.8867,32.7124 17.8867,32.7124 17.8867,32.7124 C18.8470,33.9128 19.3271,34.6330 19.3271,37.0338 C19.3271,37.2739 19.3271,37.5140 19.3271,37.5140 C20.7676,37.5140 20.7676,37.5140 20.7676,37.5140 C20.7676,31.2719 20.7676,31.2719 20.7676,31.2719 C17.8867,31.2719 17.8867,31.2719 17.8867,31.2719 Z M21.7280,31.2719 C21.7280,32.7124 21.7280,32.7124 21.7280,32.7124 C22.4482,33.9128 22.9284,34.6330 22.9284,37.0338 C22.9284,37.2739 22.9284,37.5140 22.9284,37.5140 C24.3689,37.5140 24.3689,37.5140 24.3689,37.5140 C24.3689,31.2719 24.3689,31.2719 24.3689,31.2719 C21.7280,31.2719 21.7280,31.2719 21.7280,31.2719 Z M25.3292,31.2719 C25.3292,32.7124 25.3292,32.7124 25.3292,32.7124 C26.0494,33.9128 26.5296,34.6330 26.5296,37.0338 C26.5296,37.2739 26.5296,37.5140 26.5296,37.5140 C27.9701,37.5140 27.9701,37.5140 27.9701,37.5140 C27.9701,31.2719 27.9701,31.2719 27.9701,31.2719 C25.3292,31.2719 25.3292,31.2719 25.3292,31.2719 Z M28.9304,31.2719 C28.9304,32.7124 28.9304,32.7124 28.9304,32.7124 C29.6506,33.9128 30.3709,34.6330 30.3709,37.0338 C30.3709,37.2739 30.1308,37.5140 30.1308,37.5140 C31.5713,37.5140 31.5713,37.5140 31.5713,37.5140 C31.5713,31.2719 31.5713,31.2719 31.5713,31.2719 C28.9304,31.2719 28.9304,31.2719 28.9304,31.2719 Z M32.5316,31.2719 C32.5316,32.7124 32.5316,32.7124 32.5316,32.7124 C33.2519,33.9128 33.9721,34.6330 33.9721,37.0338 C33.9721,37.2739 33.9721,37.5140 33.9721,37.5140 C35.1725,37.5140 35.1725,37.5140 35.1725,37.5140 C35.1725,31.2719 35.1725,31.2719 35.1725,31.2719 C32.5316,31.2719 32.5316,31.2719 32.5316,31.2719 Z M36.1328,31.2719 C36.1328,32.7124 36.1328,32.7124 36.1328,32.7124 C37.0932,33.9128 37.5733,34.6330 37.5733,37.0338 C37.5733,37.2739 37.5733,37.5140 37.5733,37.5140 C38.7737,37.5140 38.7737,37.5140 38.7737,37.5140 C38.7737,31.2719 38.7737,31.2719 38.7737,31.2719 C36.1328,31.2719 36.1328,31.2719 36.1328,31.2719 Z M39.7340,31.2719 C39.7340,32.7124 39.7340,32.7124 39.7340,32.7124 C40.6944,33.9128 41.1745,34.6330 41.1745,37.0338 C41.1745,37.2739 41.1745,37.5140 41.1745,37.5140 C42.3749,37.5140 42.3749,37.5140 42.3749,37.5140 C42.3749,31.2719 42.3749,31.2719 42.3749,31.2719 C39.7340,31.2719 39.7340,31.2719 39.7340,31.2719 Z M17.8867,147.7113 C17.8867,149.1518 17.8867,149.1518 17.8867,149.1518 C18.8470,150.5922 19.3271,151.3125 19.3271,153.4732 C19.3271,153.7133 19.3271,153.9534 19.3271,154.1935 C20.7676,154.1935 20.7676,154.1935 20.7676,154.1935 C20.7676,147.7113 20.7676,147.7113 20.7676,147.7113 C17.8867,147.7113 17.8867,147.7113 17.8867,147.7113 Z M21.7280,147.7113 C21.7280,149.1518 21.7280,149.1518 21.7280,149.1518 C22.4482,150.5922 22.9284,151.3125 22.9284,153.4732 C22.9284,153.7133 22.9284,153.9534 22.9284,154.1935 C24.3689,154.1935 24.3689,154.1935 24.3689,154.1935 C24.3689,147.7113 24.3689,147.7113 24.3689,147.7113 C21.7280,147.7113 21.7280,147.7113 21.7280,147.7113 Z M25.3292,147.7113 C25.3292,149.1518 25.3292,149.1518 25.3292,149.1518 C26.0494,150.5922 26.5296,151.3125 26.5296,153.4732 C26.5296,153.7133 26.5296,153.9534 26.5296,154.1935 C27.9701,154.1935 27.9701,154.1935 27.9701,154.1935 C27.9701,147.7113 27.9701,147.7113 27.9701,147.7113 C25.3292,147.7113 25.3292,147.7113 25.3292,147.7113 Z M28.9304,147.7113 C28.9304,149.1518 28.9304,149.1518 28.9304,149.1518 C29.6506,150.5922 30.3709,151.3125 30.3709,153.4732 C30.3709,153.7133 30.1308,153.9534 30.1308,154.1935 C31.5713,154.1935 31.5713,154.1935 31.5713,154.1935 C31.5713,147.7113 31.5713,147.7113 31.5713,147.7113 C28.9304,147.7113 28.9304,147.7113 28.9304,147.7113 Z M32.5316,147.7113 C32.5316,149.1518 32.5316,149.1518 32.5316,149.1518 C33.2519,150.5922 33.9721,151.3125 33.9721,153.4732 C33.9721,153.7133 33.9721,153.9534 33.9721,154.1935 C35.1725,154.1935 35.1725,154.1935 35.1725,154.1935 C35.1725,147.7113 35.1725,147.7113 35.1725,147.7113 C32.5316,147.7113 32.5316,147.7113 32.5316,147.7113 Z M36.1328,147.7113 C36.1328,149.1518 36.1328,149.1518 36.1328,149.1518 C37.0932,150.5922 37.5733,151.3125 37.5733,153.4732 C37.5733,153.7133 37.5733,153.9534 37.5733,154.1935 C38.7737,154.1935 38.7737,154.1935 38.7737,154.1935 C38.7737,147.7113 38.7737,147.7113 38.7737,147.7113 C36.1328,147.7113 36.1328,147.7113 36.1328,147.7113 Z M39.7340,147.7113 C39.7340,149.1518 39.7340,149.1518 39.7340,149.1518 C40.6944,150.5922 41.1745,151.3125 41.1745,153.4732 C41.1745,153.7133 41.1745,153.9534 41.1745,154.1935 C42.3749,154.1935 42.3749,154.1935 42.3749,154.1935 C42.3749,147.7113 42.3749,147.7113 42.3749,147.7113 C39.7340,147.7113 39.7340,147.7113 39.7340,147.7113 Z M3.4818,147.7113 C3.4818,149.1518 3.4818,149.1518 3.4818,149.1518 C4.2020,150.5922 4.6822,151.3125 4.6822,153.4732 C4.6822,153.7133 4.6822,153.9534 4.6822,154.1935 C6.1227,154.1935 6.1227,154.1935 6.1227,154.1935 C6.1227,147.7113 6.1227,147.7113 6.1227,147.7113 C3.4818,147.7113 3.4818,147.7113 3.4818,147.7113 Z M7.0830,147.7113 C7.0830,149.1518 7.0830,149.1518 7.0830,149.1518 C7.8032,150.5922 8.5235,151.3125 8.5235,153.4732 C8.5235,153.7133 8.2834,153.9534 8.2834,154.1935 C9.7239,154.1935 9.7239,154.1935 9.7239,154.1935 C9.7239,147.7113 9.7239,147.7113 9.7239,147.7113 C7.0830,147.7113 7.0830,147.7113 7.0830,147.7113 Z M10.6842,147.7113 C10.6842,149.1518 10.6842,149.1518 10.6842,149.1518 C11.4045,150.5922 12.1247,151.3125 12.1247,153.4732 C12.1247,153.7133 12.1247,153.9534 12.1247,154.1935 C13.3251,154.1935 13.3251,154.1935 13.3251,154.1935 C13.3251,147.7113 13.3251,147.7113 13.3251,147.7113 C10.6842,147.7113 10.6842,147.7113 10.6842,147.7113 Z M14.2854,147.7113 C14.2854,149.1518 14.2854,149.1518 14.2854,149.1518 C15.2458,150.5922 15.7259,151.3125 15.7259,153.4732 C15.7259,153.7133 15.7259,153.9534 15.7259,154.1935 C16.9263,154.1935 16.9263,154.1935 16.9263,154.1935 C16.9263,147.7113 16.9263,147.7113 16.9263,147.7113 C14.2854,147.7113 14.2854,147.7113 14.2854,147.7113 Z M3.4818,159.4752 C3.4818,160.9157 3.4818,160.9157 3.4818,160.9157 C4.2020,162.1161 4.6822,162.8364 4.6822,165.2372 C4.6822,165.4773 4.6822,165.4773 4.6822,165.7174 C6.1227,165.7174 6.1227,165.7174 6.1227,165.7174 C6.1227,159.4752 6.1227,159.4752 6.1227,159.4752 C3.4818,159.4752 3.4818,159.4752 3.4818,159.4752 Z M7.0830,159.4752 C7.0830,160.9157 7.0830,160.9157 7.0830,160.9157 C7.8032,162.1161 8.5235,162.8364 8.5235,165.2372 C8.5235,165.4773 8.2834,165.4773 8.2834,165.7174 C9.7239,165.7174 9.7239,165.7174 9.7239,165.7174 C9.7239,159.4752 9.7239,159.4752 9.7239,159.4752 C7.0830,159.4752 7.0830,159.4752 7.0830,159.4752 Z M10.6842,159.4752 C10.6842,160.9157 10.6842,160.9157 10.6842,160.9157 C11.4045,162.1161 12.1247,162.8364 12.1247,165.2372 C12.1247,165.4773 12.1247,165.4773 12.1247,165.7174 C13.3251,165.7174 13.3251,165.7174 13.3251,165.7174 C13.3251,159.4752 13.3251,159.4752 13.3251,159.4752 C10.6842,159.4752 10.6842,159.4752 10.6842,159.4752 Z M14.2854,159.4752 C14.2854,160.9157 14.2854,160.9157 14.2854,160.9157 C15.2458,162.1161 15.7259,162.8364 15.7259,165.2372 C15.7259,165.4773 15.7259,165.4773 15.7259,165.7174 C16.9263,165.7174 16.9263,165.7174 16.9263,165.7174 C16.9263,159.4752 16.9263,159.4752 16.9263,159.4752 C14.2854,159.4752 14.2854,159.4752 14.2854,159.4752 Z M17.8867,159.4752 C17.8867,160.9157 17.8867,160.9157 17.8867,160.9157 C18.8470,162.1161 19.3271,162.8364 19.3271,165.2372 C19.3271,165.4773 19.3271,165.4773 19.3271,165.7174 C20.7676,165.7174 20.7676,165.7174 20.7676,165.7174 C20.7676,159.4752 20.7676,159.4752 20.7676,159.4752 C17.8867,159.4752 17.8867,159.4752 17.8867,159.4752 Z M21.7280,159.4752 C21.7280,160.9157 21.7280,160.9157 21.7280,160.9157 C22.4482,162.1161 22.9284,162.8364 22.9284,165.2372 C22.9284,165.4773 22.9284,165.4773 22.9284,165.7174 C24.3689,165.7174 24.3689,165.7174 24.3689,165.7174 C24.3689,159.4752 24.3689,159.4752 24.3689,159.4752 C21.7280,159.4752 21.7280,159.4752 21.7280,159.4752 Z M25.3292,159.4752 C25.3292,160.9157 25.3292,160.9157 25.3292,160.9157 C26.0494,162.1161 26.5296,162.8364 26.5296,165.2372 C26.5296,165.4773 26.5296,165.4773 26.5296,165.7174 C27.9701,165.7174 27.9701,165.7174 27.9701,165.7174 C27.9701,159.4752 27.9701,159.4752 27.9701,159.4752 C25.3292,159.4752 25.3292,159.4752 25.3292,159.4752 Z M28.9304,159.4752 C28.9304,160.9157 28.9304,160.9157 28.9304,160.9157 C29.6506,162.1161 30.3709,162.8364 30.3709,165.2372 C30.3709,165.4773 30.1308,165.4773 30.1308,165.7174 C31.5713,165.7174 31.5713,165.7174 31.5713,165.7174 C31.5713,159.4752 31.5713,159.4752 31.5713,159.4752 C28.9304,159.4752 28.9304,159.4752 28.9304,159.4752 Z M32.5316,159.4752 C32.5316,160.9157 32.5316,160.9157 32.5316,160.9157 C33.2519,162.1161 33.9721,162.8364 33.9721,165.2372 C33.9721,165.4773 33.9721,165.4773 33.9721,165.7174 C35.1725,165.7174 35.1725,165.7174 35.1725,165.7174 C35.1725,159.4752 35.1725,159.4752 35.1725,159.4752 C32.5316,159.4752 32.5316,159.4752 32.5316,159.4752 Z M36.1328,159.4752 C36.1328,160.9157 36.1328,160.9157 36.1328,160.9157 C37.0932,162.1161 37.5733,162.8364 37.5733,165.2372 C37.5733,165.4773 37.5733,165.4773 37.5733,165.7174 C38.7737,165.7174 38.7737,165.7174 38.7737,165.7174 C38.7737,159.4752 38.7737,159.4752 38.7737,159.4752 C36.1328,159.4752 36.1328,159.4752 36.1328,159.4752 Z M39.7340,159.4752 C39.7340,160.9157 39.7340,160.9157 39.7340,160.9157 C40.6944,162.1161 41.1745,162.8364 41.1745,165.2372 C41.1745,165.4773 41.1745,165.4773 41.1745,165.7174 C42.3749,165.7174 42.3749,165.7174 42.3749,165.7174 C42.3749,159.4752 42.3749,159.4752 42.3749,159.4752 C39.7340,159.4752 39.7340,159.4752 39.7340,159.4752 Z M3.4818,124.4234 C3.4818,125.8639 3.4818,125.8639 3.4818,125.8639 C4.2020,127.3044 4.6822,128.0246 4.6822,130.1853 C4.6822,130.4254 4.6822,130.6655 4.6822,130.9056 C6.1227,130.9056 6.1227,130.9056 6.1227,130.9056 C6.1227,124.4234 6.1227,124.4234 6.1227,124.4234 C3.4818,124.4234 3.4818,124.4234 3.4818,124.4234 Z M7.0830,124.4234 C7.0830,125.8639 7.0830,125.8639 7.0830,125.8639 C7.8032,127.3044 8.5235,128.0246 8.5235,130.1853 C8.5235,130.4254 8.2834,130.6655 8.2834,130.9056 C9.7239,130.9056 9.7239,130.9056 9.7239,130.9056 C9.7239,124.4234 9.7239,124.4234 9.7239,124.4234 C7.0830,124.4234 7.0830,124.4234 7.0830,124.4234 Z M10.6842,124.4234 C10.6842,125.8639 10.6842,125.8639 10.6842,125.8639 C11.4045,127.3044 12.1247,128.0246 12.1247,130.1853 C12.1247,130.4254 12.1247,130.6655 12.1247,130.9056 C13.3251,130.9056 13.3251,130.9056 13.3251,130.9056 C13.3251,124.4234 13.3251,124.4234 13.3251,124.4234 C10.6842,124.4234 10.6842,124.4234 10.6842,124.4234 Z M14.2854,124.4234 C14.2854,125.8639 14.2854,125.8639 14.2854,125.8639 C15.2458,127.3044 15.7259,128.0246 15.7259,130.1853 C15.7259,130.4254 15.7259,130.6655 15.7259,130.9056 C16.9263,130.9056 16.9263,130.9056 16.9263,130.9056 C16.9263,124.4234 16.9263,124.4234 16.9263,124.4234 C14.2854,124.4234 14.2854,124.4234 14.2854,124.4234 Z M17.8867,124.4234 C17.8867,125.8639 17.8867,125.8639 17.8867,125.8639 C18.8470,127.3044 19.3271,128.0246 19.3271,130.1853 C19.3271,130.4254 19.3271,130.6655 19.3271,130.9056 C20.7676,130.9056 20.7676,130.9056 20.7676,130.9056 C20.7676,124.4234 20.7676,124.4234 20.7676,124.4234 C17.8867,124.4234 17.8867,124.4234 17.8867,124.4234 Z M21.7280,124.4234 C21.7280,125.8639 21.7280,125.8639 21.7280,125.8639 C22.4482,127.3044 22.9284,128.0246 22.9284,130.1853 C22.9284,130.4254 22.9284,130.6655 22.9284,130.9056 C24.3689,130.9056 24.3689,130.9056 24.3689,130.9056 C24.3689,124.4234 24.3689,124.4234 24.3689,124.4234 C21.7280,124.4234 21.7280,124.4234 21.7280,124.4234 Z M25.3292,124.4234 C25.3292,125.8639 25.3292,125.8639 25.3292,125.8639 C26.0494,127.3044 26.5296,128.0246 26.5296,130.1853 C26.5296,130.4254 26.5296,130.6655 26.5296,130.9056 C27.9701,130.9056 27.9701,130.9056 27.9701,130.9056 C27.9701,124.4234 27.9701,124.4234 27.9701,124.4234 C25.3292,124.4234 25.3292,124.4234 25.3292,124.4234 Z M28.9304,124.4234 C28.9304,125.8639 28.9304,125.8639 28.9304,125.8639 C29.6506,127.3044 30.3709,128.0246 30.3709,130.1853 C30.3709,130.4254 30.1308,130.6655 30.1308,130.9056 C31.5713,130.9056 31.5713,130.9056 31.5713,130.9056 C31.5713,124.4234 31.5713,124.4234 31.5713,124.4234 C28.9304,124.4234 28.9304,124.4234 28.9304,124.4234 Z M32.5316,124.4234 C32.5316,125.8639 32.5316,125.8639 32.5316,125.8639 C33.2519,127.3044 33.9721,128.0246 33.9721,130.1853 C33.9721,130.4254 33.9721,130.6655 33.9721,130.9056 C35.1725,130.9056 35.1725,130.9056 35.1725,130.9056 C35.1725,124.4234 35.1725,124.4234 35.1725,124.4234 C32.5316,124.4234 32.5316,124.4234 32.5316,124.4234 Z M36.1328,124.4234 C36.1328,125.8639 36.1328,125.8639 36.1328,125.8639 C37.0932,127.3044 37.5733,128.0246 37.5733,130.1853 C37.5733,130.4254 37.5733,130.6655 37.5733,130.9056 C38.7737,130.9056 38.7737,130.9056 38.7737,130.9056 C38.7737,124.4234 38.7737,124.4234 38.7737,124.4234 C36.1328,124.4234 36.1328,124.4234 36.1328,124.4234 Z M39.7340,124.4234 C39.7340,125.8639 39.7340,125.8639 39.7340,125.8639 C40.6944,127.3044 41.1745,128.0246 41.1745,130.1853 C41.1745,130.4254 41.1745,130.6655 41.1745,130.9056 C42.3749,130.9056 42.3749,130.9056 42.3749,130.9056 C42.3749,124.4234 42.3749,124.4234 42.3749,124.4234 C39.7340,124.4234 39.7340,124.4234 39.7340,124.4234 Z M3.4818,136.1874 C3.4818,137.6279 3.4818,137.6279 3.4818,137.6279 C4.2020,138.8283 4.6822,139.5485 4.6822,141.9493 C4.6822,142.1894 4.6822,142.1894 4.6822,142.4295 C6.1227,142.4295 6.1227,142.4295 6.1227,142.4295 C6.1227,136.1874 6.1227,136.1874 6.1227,136.1874 C3.4818,136.1874 3.4818,136.1874 3.4818,136.1874 Z M7.0830,136.1874 C7.0830,137.6279 7.0830,137.6279 7.0830,137.6279 C7.8032,138.8283 8.5235,139.5485 8.5235,141.9493 C8.5235,142.1894 8.2834,142.1894 8.2834,142.4295 C9.7239,142.4295 9.7239,142.4295 9.7239,142.4295 C9.7239,136.1874 9.7239,136.1874 9.7239,136.1874 C7.0830,136.1874 7.0830,136.1874 7.0830,136.1874 Z M10.6842,136.1874 C10.6842,137.6279 10.6842,137.6279 10.6842,137.6279 C11.4045,138.8283 12.1247,139.5485 12.1247,141.9493 C12.1247,142.1894 12.1247,142.1894 12.1247,142.4295 C13.3251,142.4295 13.3251,142.4295 13.3251,142.4295 C13.3251,136.1874 13.3251,136.1874 13.3251,136.1874 C10.6842,136.1874 10.6842,136.1874 10.6842,136.1874 Z M14.2854,136.1874 C14.2854,137.6279 14.2854,137.6279 14.2854,137.6279 C15.2458,138.8283 15.7259,139.5485 15.7259,141.9493 C15.7259,142.1894 15.7259,142.1894 15.7259,142.4295 C16.9263,142.4295 16.9263,142.4295 16.9263,142.4295 C16.9263,136.1874 16.9263,136.1874 16.9263,136.1874 C14.2854,136.1874 14.2854,136.1874 14.2854,136.1874 Z M17.8867,136.1874 C17.8867,137.6279 17.8867,137.6279 17.8867,137.6279 C18.8470,138.8283 19.3271,139.5485 19.3271,141.9493 C19.3271,142.1894 19.3271,142.1894 19.3271,142.4295 C20.7676,142.4295 20.7676,142.4295 20.7676,142.4295 C20.7676,136.1874 20.7676,136.1874 20.7676,136.1874 C17.8867,136.1874 17.8867,136.1874 17.8867,136.1874 Z M21.7280,136.1874 C21.7280,137.6279 21.7280,137.6279 21.7280,137.6279 C22.4482,138.8283 22.9284,139.5485 22.9284,141.9493 C22.9284,142.1894 22.9284,142.1894 22.9284,142.4295 C24.3689,142.4295 24.3689,142.4295 24.3689,142.4295 C24.3689,136.1874 24.3689,136.1874 24.3689,136.1874 C21.7280,136.1874 21.7280,136.1874 21.7280,136.1874 Z M25.3292,136.1874 C25.3292,137.6279 25.3292,137.6279 25.3292,137.6279 C26.0494,138.8283 26.5296,139.5485 26.5296,141.9493 C26.5296,142.1894 26.5296,142.1894 26.5296,142.4295 C27.9701,142.4295 27.9701,142.4295 27.9701,142.4295 C27.9701,136.1874 27.9701,136.1874 27.9701,136.1874 C25.3292,136.1874 25.3292,136.1874 25.3292,136.1874 Z M28.9304,136.1874 C28.9304,137.6279 28.9304,137.6279 28.9304,137.6279 C29.6506,138.8283 30.3709,139.5485 30.3709,141.9493 C30.3709,142.1894 30.1308,142.1894 30.1308,142.4295 C31.5713,142.4295 31.5713,142.4295 31.5713,142.4295 C31.5713,136.1874 31.5713,136.1874 31.5713,136.1874 C28.9304,136.1874 28.9304,136.1874 28.9304,136.1874 Z M32.5316,136.1874 C32.5316,137.6279 32.5316,137.6279 32.5316,137.6279 C33.2519,138.8283 33.9721,139.5485 33.9721,141.9493 C33.9721,142.1894 33.9721,142.1894 33.9721,142.4295 C35.1725,142.4295 35.1725,142.4295 35.1725,142.4295 C35.1725,136.1874 35.1725,136.1874 35.1725,136.1874 C32.5316,136.1874 32.5316,136.1874 32.5316,136.1874 Z M36.1328,136.1874 C36.1328,137.6279 36.1328,137.6279 36.1328,137.6279 C37.0932,138.8283 37.5733,139.5485 37.5733,141.9493 C37.5733,142.1894 37.5733,142.1894 37.5733,142.4295 C38.7737,142.4295 38.7737,142.4295 38.7737,142.4295 C38.7737,136.1874 38.7737,136.1874 38.7737,136.1874 C36.1328,136.1874 36.1328,136.1874 36.1328,136.1874 Z M39.7340,136.1874 C39.7340,137.6279 39.7340,137.6279 39.7340,137.6279 C40.6944,138.8283 41.1745,139.5485 41.1745,141.9493 C41.1745,142.1894 41.1745,142.1894 41.1745,142.4295 C42.3749,142.4295 42.3749,142.4295 42.3749,142.4295 C42.3749,136.1874 42.3749,136.1874 42.3749,136.1874 C39.7340,136.1874 39.7340,136.1874 39.7340,136.1874 Z M17.8867,112.8995 C17.8867,114.3400 17.8867,114.3400 17.8867,114.3400 C18.8470,115.5404 19.3271,116.2606 19.3271,118.6614 C19.3271,118.9015 19.3271,119.1416 19.3271,119.1416 C20.7676,119.1416 20.7676,119.1416 20.7676,119.1416 C20.7676,112.8995 20.7676,112.8995 20.7676,112.8995 C17.8867,112.8995 17.8867,112.8995 17.8867,112.8995 Z M21.7280,112.8995 C21.7280,114.3400 21.7280,114.3400 21.7280,114.3400 C22.4482,115.5404 22.9284,116.2606 22.9284,118.6614 C22.9284,118.9015 22.9284,119.1416 22.9284,119.1416 C24.3689,119.1416 24.3689,119.1416 24.3689,119.1416 C24.3689,112.8995 24.3689,112.8995 24.3689,112.8995 C21.7280,112.8995 21.7280,112.8995 21.7280,112.8995 Z M25.3292,112.8995 C25.3292,114.3400 25.3292,114.3400 25.3292,114.3400 C26.0494,115.5404 26.5296,116.2606 26.5296,118.6614 C26.5296,118.9015 26.5296,119.1416 26.5296,119.1416 C27.9701,119.1416 27.9701,119.1416 27.9701,119.1416 C27.9701,112.8995 27.9701,112.8995 27.9701,112.8995 C25.3292,112.8995 25.3292,112.8995 25.3292,112.8995 Z M28.9304,112.8995 C28.9304,114.3400 28.9304,114.3400 28.9304,114.3400 C29.6506,115.5404 30.3709,116.2606 30.3709,118.6614 C30.3709,118.9015 30.1308,119.1416 30.1308,119.1416 C31.5713,119.1416 31.5713,119.1416 31.5713,119.1416 C31.5713,112.8995 31.5713,112.8995 31.5713,112.8995 C28.9304,112.8995 28.9304,112.8995 28.9304,112.8995 Z M32.5316,112.8995 C32.5316,114.3400 32.5316,114.3400 32.5316,114.3400 C33.2519,115.5404 33.9721,116.2606 33.9721,118.6614 C33.9721,118.9015 33.9721,119.1416 33.9721,119.1416 C35.1725,119.1416 35.1725,119.1416 35.1725,119.1416 C35.1725,112.8995 35.1725,112.8995 35.1725,112.8995 C32.5316,112.8995 32.5316,112.8995 32.5316,112.8995 Z M3.4818,112.8995 C3.4818,114.3400 3.4818,114.3400 3.4818,114.3400 C4.2020,115.5404 4.6822,116.2606 4.6822,118.6614 C4.6822,118.9015 4.6822,119.1416 4.6822,119.1416 C6.1227,119.1416 6.1227,119.1416 6.1227,119.1416 C6.1227,112.8995 6.1227,112.8995 6.1227,112.8995 C3.4818,112.8995 3.4818,112.8995 3.4818,112.8995 Z M7.0830,112.8995 C7.0830,114.3400 7.0830,114.3400 7.0830,114.3400 C7.8032,115.5404 8.5235,116.2606 8.5235,118.6614 C8.5235,118.9015 8.2834,119.1416 8.2834,119.1416 C9.7239,119.1416 9.7239,119.1416 9.7239,119.1416 C9.7239,112.8995 9.7239,112.8995 9.7239,112.8995 C7.0830,112.8995 7.0830,112.8995 7.0830,112.8995 Z M10.6842,112.8995 C10.6842,114.3400 10.6842,114.3400 10.6842,114.3400 C11.4045,115.5404 12.1247,116.2606 12.1247,118.6614 C12.1247,118.9015 12.1247,119.1416 12.1247,119.1416 C13.3251,119.1416 13.3251,119.1416 13.3251,119.1416 C13.3251,112.8995 13.3251,112.8995 13.3251,112.8995 C10.6842,112.8995 10.6842,112.8995 10.6842,112.8995 Z M14.2854,112.8995 C14.2854,114.3400 14.2854,114.3400 14.2854,114.3400 C15.2458,115.5404 15.7259,116.2606 15.7259,118.6614 C15.7259,118.9015 15.7259,119.1416 15.7259,119.1416 C16.9263,119.1416 16.9263,119.1416 16.9263,119.1416 C16.9263,112.8995 16.9263,112.8995 16.9263,112.8995 C14.2854,112.8995 14.2854,112.8995 14.2854,112.8995 Z M36.1328,112.8995 C36.1328,114.3400 36.1328,114.3400 36.1328,114.3400 C37.0932,115.5404 37.5733,116.2606 37.5733,118.6614 C37.5733,118.9015 37.5733,119.1416 37.5733,119.1416 C38.7737,119.1416 38.7737,119.1416 38.7737,119.1416 C38.7737,112.8995 38.7737,112.8995 38.7737,112.8995 C36.1328,112.8995 36.1328,112.8995 36.1328,112.8995 Z M39.7340,112.8995 C39.7340,114.3400 39.7340,114.3400 39.7340,114.3400 C40.6944,115.5404 41.1745,116.2606 41.1745,118.6614 C41.1745,118.9015 41.1745,119.1416 41.1745,119.1416 C42.3749,119.1416 42.3749,119.1416 42.3749,119.1416 C42.3749,112.8995 42.3749,112.8995 42.3749,112.8995 C39.7340,112.8995 39.7340,112.8995 39.7340,112.8995 Z M10.6842,101.1355 C10.6842,102.5760 10.6842,102.5760 10.6842,102.5760 C11.4045,104.0165 12.1247,104.7367 12.1247,107.1375 C12.1247,107.1375 12.1247,107.3776 12.1247,107.6177 C13.3251,107.6177 13.3251,107.6177 13.3251,107.6177 C13.3251,101.1355 13.3251,101.1355 13.3251,101.1355 C10.6842,101.1355 10.6842,101.1355 10.6842,101.1355 Z M14.2854,101.1355 C14.2854,102.5760 14.2854,102.5760 14.2854,102.5760 C15.2458,104.0165 15.7259,104.7367 15.7259,107.1375 C15.7259,107.1375 15.7259,107.3776 15.7259,107.6177 C16.9263,107.6177 16.9263,107.6177 16.9263,107.6177 C16.9263,101.1355 16.9263,101.1355 16.9263,101.1355 C14.2854,101.1355 14.2854,101.1355 14.2854,101.1355 Z M17.8867,101.1355 C17.8867,102.5760 17.8867,102.5760 17.8867,102.5760 C18.8470,104.0165 19.3271,104.7367 19.3271,107.1375 C19.3271,107.1375 19.3271,107.3776 19.3271,107.6177 C20.7676,107.6177 20.7676,107.6177 20.7676,107.6177 C20.7676,101.1355 20.7676,101.1355 20.7676,101.1355 C17.8867,101.1355 17.8867,101.1355 17.8867,101.1355 Z M21.7280,101.1355 C21.7280,102.5760 21.7280,102.5760 21.7280,102.5760 C22.4482,104.0165 22.9284,104.7367 22.9284,107.1375 C22.9284,107.1375 22.9284,107.3776 22.9284,107.6177 C24.3689,107.6177 24.3689,107.6177 24.3689,107.6177 C24.3689,101.1355 24.3689,101.1355 24.3689,101.1355 C21.7280,101.1355 21.7280,101.1355 21.7280,101.1355 Z M25.3292,101.1355 C25.3292,102.5760 25.3292,102.5760 25.3292,102.5760 C26.0494,104.0165 26.5296,104.7367 26.5296,107.1375 C26.5296,107.1375 26.5296,107.3776 26.5296,107.6177 C27.9701,107.6177 27.9701,107.6177 27.9701,107.6177 C27.9701,101.1355 27.9701,101.1355 27.9701,101.1355 C25.3292,101.1355 25.3292,101.1355 25.3292,101.1355 Z M28.9304,101.1355 C28.9304,102.5760 28.9304,102.5760 28.9304,102.5760 C29.6506,104.0165 30.3709,104.7367 30.3709,107.1375 C30.3709,107.1375 30.1308,107.3776 30.1308,107.6177 C31.5713,107.6177 31.5713,107.6177 31.5713,107.6177 C31.5713,101.1355 31.5713,101.1355 31.5713,101.1355 C28.9304,101.1355 28.9304,101.1355 28.9304,101.1355 Z M32.5316,101.1355 C32.5316,102.5760 32.5316,102.5760 32.5316,102.5760 C33.2519,104.0165 33.9721,104.7367 33.9721,107.1375 C33.9721,107.1375 33.9721,107.3776 33.9721,107.6177 C35.1725,107.6177 35.1725,107.6177 35.1725,107.6177 C35.1725,101.1355 35.1725,101.1355 35.1725,101.1355 C32.5316,101.1355 32.5316,101.1355 32.5316,101.1355 Z M36.1328,101.1355 C36.1328,102.5760 36.1328,102.5760 36.1328,102.5760 C37.0932,104.0165 37.5733,104.7367 37.5733,107.1375 C37.5733,107.1375 37.5733,107.3776 37.5733,107.6177 C38.7737,107.6177 38.7737,107.6177 38.7737,107.6177 C38.7737,101.1355 38.7737,101.1355 38.7737,101.1355 C36.1328,101.1355 36.1328,101.1355 36.1328,101.1355 Z M39.7340,101.1355 C39.7340,102.5760 39.7340,102.5760 39.7340,102.5760 C40.6944,104.0165 41.1745,104.7367 41.1745,107.1375 C41.1745,107.1375 41.1745,107.3776 41.1745,107.6177 C42.3749,107.6177 42.3749,107.6177 42.3749,107.6177 C42.3749,101.1355 42.3749,101.1355 42.3749,101.1355 C39.7340,101.1355 39.7340,101.1355 39.7340,101.1355 Z M3.4818,101.1355 C3.4818,102.5760 3.4818,102.5760 3.4818,102.5760 C4.2020,104.0165 4.6822,104.7367 4.6822,107.1375 C4.6822,107.1375 4.6822,107.3776 4.6822,107.6177 C6.1227,107.6177 6.1227,107.6177 6.1227,107.6177 C6.1227,101.1355 6.1227,101.1355 6.1227,101.1355 C3.4818,101.1355 3.4818,101.1355 3.4818,101.1355 Z M7.0830,101.1355 C7.0830,102.5760 7.0830,102.5760 7.0830,102.5760 C7.8032,104.0165 8.5235,104.7367 8.5235,107.1375 C8.5235,107.1375 8.2834,107.3776 8.2834,107.6177 C9.7239,107.6177 9.7239,107.6177 9.7239,107.6177 C9.7239,101.1355 9.7239,101.1355 9.7239,101.1355 C7.0830,101.1355 7.0830,101.1355 7.0830,101.1355 Z" style="fill-rule: evenodd; fill: #8275a3; "/>
    <g xmlns="http://www.w3.org/2000/svg" id="Layer1052">
      <path d="  M44.5357,98.2630 L1.3211,98.2630 L1.3211,77.5990 L44.5357,77.5990 L44.5357,98.2630 Z" style="stroke-width: 0.0240; stroke-linecap: round; stroke-linejoin: round; fill-rule: evenodd; fill: #3f387c; "/>
      <path d="  M44.5357,98.2630 L1.3211,98.2630 L1.3211,77.5990 L44.5357,77.5990 L44.5357,98.2630 Z" style="stroke-width: 0.0240; stroke: #ffffff; stroke-dasharray: none; stroke-linecap: round; stroke-linejoin: round; fill: none; "/>
    </g>
    <path xmlns="http://www.w3.org/2000/svg" d="  M4.2020,77.8510 C4.2020,77.8510 2.7615,77.8510 2.7615,87.9310 C2.7615,98.0110 4.4421,98.0110 4.4421,98.0110 C4.4421,98.0110 41.6547,98.0110 41.6547,98.0110 C41.6547,98.0110 43.0952,98.0110 43.0952,87.9310 C43.0952,77.8510 41.6547,77.8510 41.6547,77.8510 C41.4146,77.8510 4.4421,77.8510 4.2020,77.8510 Z" style="fill-rule: evenodd; fill: #171868; "/>
    <g xmlns="http://www.w3.org/2000/svg" id="Layer1053">
      <path d="  M22.9284,78.9280 C30.3709,78.9280 38.7737,79.6482 40.9345,79.8883 C41.1745,81.0887 41.4146,84.2098 41.4146,87.8110 C41.4146,91.6523 41.1745,94.7734 40.9345,95.9738 C38.7737,96.2139 30.3709,96.9341 22.9284,96.9341 C15.7259,96.9341 7.0830,96.2139 4.9223,95.9738 C4.6822,94.7734 4.4421,91.6523 4.4421,87.8110 C4.4421,84.2098 4.6822,81.0887 4.9223,79.8883 C7.3231,79.6482 15.7259,78.9280 22.9284,78.9280 Z" style="stroke-width: 0.0000; stroke-linecap: round; stroke-linejoin: round; fill-rule: evenodd; fill: #ffffff; "/>
      <path d="  M22.9284,78.9280 C30.3709,78.9280 38.7737,79.6482 40.9345,79.8883 C41.1745,81.0887 41.4146,84.2098 41.4146,87.8110 C41.4146,91.6523 41.1745,94.7734 40.9345,95.9738 C38.7737,96.2139 30.3709,96.9341 22.9284,96.9341 C15.7259,96.9341 7.0830,96.2139 4.9223,95.9738 C4.6822,94.7734 4.4421,91.6523 4.4421,87.8110 C4.4421,84.2098 4.6822,81.0887 4.9223,79.8883 C7.3231,79.6482 15.7259,78.9280 22.9284,78.9280 Z" style="stroke-width: 0.0000; stroke: #ffffff; stroke-dasharray: none; stroke-linecap: round; stroke-linejoin: round; fill: none; "/>
    </g>
    <path xmlns="http://www.w3.org/2000/svg" d="  M30.4909,96.0938 C30.7310,94.8934 30.9711,91.7723 30.9711,87.9310 C30.9711,84.3298 30.7310,81.2088 30.4909,80.0084 C29.5306,80.0084 29.5306,80.0084 29.5306,80.0084 C29.5306,96.0938 29.5306,96.0938 29.5306,96.0938 C30.4909,96.0938 30.4909,96.0938 30.4909,96.0938 Z M33.6120,95.8537 C33.8521,94.8934 34.0921,91.7723 34.0921,87.9310 C34.0921,84.3298 33.8521,81.2088 33.6120,80.0084 C32.6517,80.0084 32.6517,80.0084 32.6517,80.0084 C32.6517,95.8537 32.6517,95.8537 32.6517,95.8537 C33.6120,95.8537 33.6120,95.8537 33.6120,95.8537 Z M36.9731,95.8537 C36.9731,94.6533 37.2132,91.5323 37.2132,87.9310 C37.2132,84.3298 36.9731,81.4489 36.9731,80.2484 C35.7727,80.2484 35.7727,80.2484 35.7727,80.2484 C35.7727,95.8537 35.7727,95.8537 35.7727,95.8537 C36.9731,95.8537 36.9731,95.8537 36.9731,95.8537 Z M40.0942,95.6136 C40.3343,94.4132 40.5743,91.5323 40.5743,87.9310 C40.5743,84.5699 40.3343,81.6889 40.0942,80.4885 C39.1338,80.4885 39.1338,80.4885 39.1338,80.4885 C39.1338,95.6136 39.1338,95.6136 39.1338,95.6136 C40.0942,95.6136 40.0942,95.6136 40.0942,95.6136 Z M5.5225,80.4885 C5.5225,81.6889 5.2824,84.5699 5.2824,87.9310 C5.2824,91.5323 5.5225,94.4132 5.5225,95.6136 C6.4828,95.6136 6.4828,95.6136 6.4828,95.6136 C6.4828,80.4885 6.4828,80.4885 6.4828,80.4885 C5.5225,80.4885 5.5225,80.4885 5.5225,80.4885 Z M8.8836,80.2484 C8.6435,81.4489 8.4035,84.3298 8.4035,87.9310 C8.4035,91.5323 8.6435,94.6533 8.8836,95.8537 C9.8439,95.8537 9.8439,95.8537 9.8439,95.8537 C9.8439,80.2484 9.8439,80.2484 9.8439,80.2484 C8.8836,80.2484 8.8836,80.2484 8.8836,80.2484 Z M12.0047,80.0084 C11.7646,81.2088 11.5245,84.3298 11.5245,87.9310 C11.5245,91.7723 11.7646,94.8934 12.0047,95.8537 C12.9650,95.8537 12.9650,95.8537 12.9650,95.8537 C12.9650,80.0084 12.9650,80.0084 12.9650,80.0084 C12.0047,80.0084 12.0047,80.0084 12.0047,80.0084 Z M15.1257,80.0084 C15.1257,81.2088 14.8856,84.3298 14.8856,87.9310 C14.8856,91.7723 15.1257,94.8934 15.1257,96.0938 C16.3261,96.0938 16.3261,96.0938 16.3261,96.0938 C16.3261,80.0084 16.3261,80.0084 16.3261,80.0084 C15.1257,80.0084 15.1257,80.0084 15.1257,80.0084 Z M26.6496,86.0104 C26.6496,86.4906 26.4095,86.9707 26.1695,86.9707 C19.6873,86.9707 19.6873,86.9707 19.6873,86.9707 C19.2071,86.9707 18.9670,86.4906 18.9670,86.0104 C18.9670,80.7286 18.9670,80.7286 18.9670,80.7286 C18.9670,80.2484 19.2071,79.7683 19.6873,79.7683 C26.1695,79.7683 26.1695,79.7683 26.1695,79.7683 C26.4095,79.7683 26.6496,80.2484 26.6496,80.7286 C26.6496,86.0104 26.6496,86.0104 26.6496,86.0104 Z" style="fill-rule: evenodd; fill: #171868; "/>
    <path xmlns="http://www.w3.org/2000/svg" d="  M26.6447,85.2902 C26.6447,85.7703 26.4046,86.0104 26.1645,86.0104 C19.4422,86.0104 19.4422,86.0104 19.4422,86.0104 C19.2021,86.0104 18.9621,85.7703 18.9621,85.2902 C18.9621,82.6493 18.9621,82.6493 18.9621,82.6493 C18.9621,82.4092 19.2021,82.1691 19.4422,82.1691 C26.1645,82.1691 26.1645,82.1691 26.1645,82.1691 C26.4046,82.1691 26.6447,82.4092 26.6447,82.6493 C26.6447,85.2902 26.6447,85.2902 26.6447,85.2902 Z" style="fill-rule: evenodd; fill: #988db1; "/>
    <path xmlns="http://www.w3.org/2000/svg" d="  M25.9244,85.0501 C25.9244,85.2902 25.6843,85.5302 25.4443,85.5302 C20.1625,85.5302 20.1625,85.5302 20.1625,85.5302 C19.9224,85.5302 19.6823,85.2902 19.6823,85.0501 C19.6823,83.3695 19.6823,83.3695 19.6823,83.3695 C19.6823,83.1294 19.9224,83.1294 20.1625,83.1294 C25.4443,83.1294 25.4443,83.1294 25.4443,83.1294 C25.6843,83.1294 25.9244,83.1294 25.9244,83.3695 C25.9244,85.0501 25.9244,85.0501 25.9244,85.0501 Z" style="fill-rule: evenodd; fill: #171868; "/>
    <path xmlns="http://www.w3.org/2000/svg" d="  M21.8430,86.0104 C21.8430,85.7703 21.8430,85.7703 21.6030,85.7703 C21.6030,85.7703 21.6030,85.7703 21.1228,85.7703 C20.8827,85.7703 20.8827,85.7703 20.8827,86.0104 C20.8827,86.0104 20.8827,86.2505 21.1228,86.2505 C21.1228,86.2505 21.1228,86.2505 21.6030,86.2505 C21.8430,86.2505 21.8430,86.0104 21.8430,86.0104 Z M23.2835,86.0104 C23.2835,85.7703 23.2835,85.7703 23.0434,85.7703 C23.0434,85.7703 23.0434,85.7703 22.5633,85.7703 C22.3232,85.7703 22.3232,85.7703 22.3232,86.0104 C22.3232,86.0104 22.3232,86.2505 22.5633,86.2505 C22.5633,86.2505 22.5633,86.2505 23.0434,86.2505 C23.2835,86.2505 23.2835,86.0104 23.2835,86.0104 Z M24.7240,86.0104 C24.7240,85.7703 24.7240,85.7703 24.4839,85.7703 C24.4839,85.7703 24.4839,85.7703 24.0038,85.7703 C23.7637,85.7703 23.7637,85.7703 23.7637,86.0104 C23.7637,86.0104 23.7637,86.2505 24.0038,86.2505 C24.0038,86.2505 24.0038,86.2505 24.4839,86.2505 C24.7240,86.2505 24.7240,86.0104 24.7240,86.0104 Z" style="fill-rule: evenodd; fill: #ffffff; "/>
    <text xmlns="http://www.w3.org/2000/svg" x="6.4311" y="177.4543">
      <tspan font-family="Arial" font-size="4.5000" fill="#000000" fill-opacity="1.0000" stroke-opacity="1.0000">
FAS6000 Series</tspan>
    </text>
    <!--converted by libvisio2svg-->
  </g>
</svg>
