<svg xmlns="http://www.w3.org/2000/svg" xmlns:xlink="http://www.w3.org/1999/xlink" version="1.1" width="7.2000000000" height="171.3600000000">
  <title><![CDATA[FAS900 Series racked]]></title>
  <g transform=" scale(1.000000) ">
    <path xmlns="http://www.w3.org/2000/svg" d="  M47.7166,1.4420 L-1.5000,1.4420 L1.1409,-2.1592 L45.3158,-2.1592 L47.7166,1.4420 Z" style="fill-rule: evenodd; fill: #b3b3b3; "/>
    <path xmlns="http://www.w3.org/2000/svg" d="  M47.7166,1.4420 L-1.5000,1.4420 L-1.5000,172.8600 L47.7166,172.8600 L47.7166,1.4420 Z" style="fill-rule: evenodd; fill: #7f7f7f; "/>
    <g xmlns="http://www.w3.org/2000/svg" id="Layer1024">
      <path d="  M43.8453,63.6472 C2.7276,63.6472 2.7276,63.6472 2.7276,63.6472 C2.7276,63.6472 1.6822,69.3386 1.6822,72.4747 C1.6822,75.7270 2.1468,78.5146 2.7276,80.6053 C2.7276,87.1098 2.7276,87.1098 2.7276,87.1098 C43.8453,87.1098 43.8453,87.1098 43.8453,87.1098 C43.8453,80.6053 43.8453,80.6053 43.8453,80.6053 C44.4261,78.5146 44.7745,75.7270 44.7745,72.4747 C44.7745,69.3386 43.8453,63.6472 43.8453,63.6472 Z" style="stroke-width: 0.0000; stroke-linecap: round; stroke-linejoin: round; fill-rule: evenodd; fill: #3f387c; "/>
      <path d="  M43.8453,63.6472 C2.7276,63.6472 2.7276,63.6472 2.7276,63.6472 C2.7276,63.6472 1.6822,69.3386 1.6822,72.4747 C1.6822,75.7270 2.1468,78.5146 2.7276,80.6053 C2.7276,87.1098 2.7276,87.1098 2.7276,87.1098 C43.8453,87.1098 43.8453,87.1098 43.8453,87.1098 C43.8453,80.6053 43.8453,80.6053 43.8453,80.6053 C44.4261,78.5146 44.7745,75.7270 44.7745,72.4747 C44.7745,69.3386 43.8453,63.6472 43.8453,63.6472 Z" style="stroke-width: 0.0000; stroke: #3f387c; stroke-dasharray: none; stroke-linecap: round; stroke-linejoin: round; fill: none; "/>
    </g>
    <g xmlns="http://www.w3.org/2000/svg" id="Layer1025">
      <path d="  M41.7546,65.8541 C41.7546,65.8541 39.7800,65.5056 36.7600,65.5056 C33.9724,65.6218 31.0686,66.3187 31.0686,66.3187 C31.0686,66.3187 21.5442,65.5056 17.1304,65.5056 C12.7166,65.5056 4.8183,65.8541 4.8183,65.8541 C4.8183,65.8541 3.8891,69.9194 3.8891,72.8232 C3.8891,75.6108 4.2376,79.3277 4.8183,81.1861 C4.8183,81.1861 9.9290,82.3476 19.6857,82.3476 C26.1902,82.3476 33.6239,80.0246 33.6239,80.0246 C41.7546,80.0246 41.7546,80.0246 41.7546,80.0246 C42.3353,78.2823 42.6838,75.6108 42.6838,72.8232 C42.6838,69.9194 41.7546,65.8541 41.7546,65.8541 Z" style="stroke-width: 0.0000; stroke-linecap: round; stroke-linejoin: round; fill-rule: evenodd; fill: #171868; "/>
      <path d="  M41.7546,65.8541 C41.7546,65.8541 39.7800,65.5056 36.7600,65.5056 C33.9724,65.6218 31.0686,66.3187 31.0686,66.3187 C31.0686,66.3187 21.5442,65.5056 17.1304,65.5056 C12.7166,65.5056 4.8183,65.8541 4.8183,65.8541 C4.8183,65.8541 3.8891,69.9194 3.8891,72.8232 C3.8891,75.6108 4.2376,79.3277 4.8183,81.1861 C4.8183,81.1861 9.9290,82.3476 19.6857,82.3476 C26.1902,82.3476 33.6239,80.0246 33.6239,80.0246 C41.7546,80.0246 41.7546,80.0246 41.7546,80.0246 C42.3353,78.2823 42.6838,75.6108 42.6838,72.8232 C42.6838,69.9194 41.7546,65.8541 41.7546,65.8541 Z" style="stroke-width: 0.0000; stroke: #171868; stroke-dasharray: none; stroke-linecap: round; stroke-linejoin: round; fill: none; "/>
    </g>
    <path xmlns="http://www.w3.org/2000/svg" d="  M39.0831,76.5400 C39.3154,75.3785 39.5477,73.9847 39.5477,72.3586 C39.5477,70.7324 39.3154,69.2225 39.0831,68.1771 M37.2247,76.5400 C37.5731,75.3785 37.6893,73.9847 37.6893,72.3586 C37.6893,70.7324 37.5731,69.2225 37.2247,68.1771 M32.9270,77.3531 C33.2755,76.1916 33.5078,74.5654 33.5078,72.7070 C33.5078,70.9647 33.2755,69.3386 32.9270,68.1771 M30.6040,77.7015 C30.9525,76.4239 31.0686,74.7977 31.0686,72.9393 C31.0686,71.0809 30.9525,69.3386 30.6040,68.1771 M28.1648,78.0500 C28.5133,76.7723 28.7456,75.0300 28.7456,73.0555 C28.7456,71.1970 28.5133,69.4548 28.1648,68.1771 M25.7256,78.3984 C26.0741,77.1208 26.3064,75.2623 26.3064,73.2878 C26.3064,71.3132 26.0741,69.4548 25.7256,68.1771 M23.4026,78.7469 C23.7510,77.3531 23.9834,75.4946 23.9834,73.4039 C23.9834,71.3132 23.7510,69.4548 23.4026,68.1771 M20.9634,79.0954 C21.3119,77.7015 21.5442,75.7270 21.5442,73.6362 C21.5442,71.4293 21.3119,69.5709 20.9634,68.1771 M18.5242,79.4438 C18.9888,77.9338 19.2211,75.9593 19.2211,73.7524 C19.2211,71.5455 18.9888,69.5709 18.5242,68.1771 M16.2012,79.7923 C16.5496,78.2823 16.7819,76.1916 16.7819,73.9847 C16.7819,71.6616 16.5496,69.6871 16.2012,68.1771 M13.9943,79.6761 C14.3428,78.1661 14.6912,76.1916 14.6912,73.8685 C14.6912,71.6616 14.3428,69.5709 13.9943,68.1771 M11.9036,79.5600 C12.2520,78.0500 12.4843,76.0754 12.4843,73.8685 C12.4843,71.6616 12.2520,69.5709 11.9036,68.1771 M9.6967,79.4438 C10.0451,78.0500 10.2774,75.9593 10.2774,73.7524 C10.2774,71.5455 10.0451,69.5709 9.6967,68.1771 M7.6060,79.3277 C7.9544,77.9338 8.1867,75.9593 8.1867,73.7524 C8.1867,71.5455 7.9544,69.5709 7.6060,68.1771 M35.4824,76.5400 C35.7147,75.3785 35.9470,73.9847 35.9470,72.3586 C35.9470,70.7324 35.7147,69.2225 35.4824,68.1771" style="stroke-width: 0.0591; stroke: #ffffff; stroke-dasharray: none; stroke-linecap: round; stroke-linejoin: round; fill: none; "/>
    <path xmlns="http://www.w3.org/2000/svg" d="  M41.8707,83.8576 L35.5985,83.8576 L35.5985,82.2315 L41.8707,82.2315 L41.8707,83.8576 Z" style="fill-rule: evenodd; fill: #ffffff; "/>
    <g xmlns="http://www.w3.org/2000/svg" id="Layer1026">
      <path d="  M43.8453,87.3037 C2.7276,87.3037 2.7276,87.3037 2.7276,87.3037 C2.7276,87.3037 1.6822,92.9951 1.6822,96.1312 C1.6822,99.3835 2.1468,102.1711 2.7276,104.2619 C2.7276,110.7664 2.7276,110.7664 2.7276,110.7664 C43.8453,110.7664 43.8453,110.7664 43.8453,110.7664 C43.8453,104.2619 43.8453,104.2619 43.8453,104.2619 C44.4261,102.1711 44.7745,99.3835 44.7745,96.1312 C44.7745,92.9951 43.8453,87.3037 43.8453,87.3037 Z" style="stroke-width: 0.0000; stroke-linecap: round; stroke-linejoin: round; fill-rule: evenodd; fill: #3f387c; "/>
      <path d="  M43.8453,87.3037 C2.7276,87.3037 2.7276,87.3037 2.7276,87.3037 C2.7276,87.3037 1.6822,92.9951 1.6822,96.1312 C1.6822,99.3835 2.1468,102.1711 2.7276,104.2619 C2.7276,110.7664 2.7276,110.7664 2.7276,110.7664 C43.8453,110.7664 43.8453,110.7664 43.8453,110.7664 C43.8453,104.2619 43.8453,104.2619 43.8453,104.2619 C44.4261,102.1711 44.7745,99.3835 44.7745,96.1312 C44.7745,92.9951 43.8453,87.3037 43.8453,87.3037 Z" style="stroke-width: 0.0000; stroke: #3f387c; stroke-dasharray: none; stroke-linecap: round; stroke-linejoin: round; fill: none; "/>
    </g>
    <g xmlns="http://www.w3.org/2000/svg" id="Layer1027">
      <path d="  M41.7546,89.5106 C41.7546,89.5106 39.7800,89.1621 36.7600,89.1621 C33.9724,89.2783 31.0686,89.9752 31.0686,89.9752 C31.0686,89.9752 21.5442,89.1621 17.1304,89.1621 C12.7166,89.1621 4.8183,89.5106 4.8183,89.5106 C4.8183,89.5106 3.8891,93.5759 3.8891,96.4797 C3.8891,99.2673 4.2376,102.9842 4.8183,104.8426 C4.8183,104.8426 9.9290,106.0041 19.6857,106.0041 C26.1902,106.0041 33.6239,103.6811 33.6239,103.6811 C41.7546,103.6811 41.7546,103.6811 41.7546,103.6811 C42.3353,101.9388 42.6838,99.2673 42.6838,96.4797 C42.6838,93.5759 41.7546,89.5106 41.7546,89.5106 Z" style="stroke-width: 0.0000; stroke-linecap: round; stroke-linejoin: round; fill-rule: evenodd; fill: #171868; "/>
      <path d="  M41.7546,89.5106 C41.7546,89.5106 39.7800,89.1621 36.7600,89.1621 C33.9724,89.2783 31.0686,89.9752 31.0686,89.9752 C31.0686,89.9752 21.5442,89.1621 17.1304,89.1621 C12.7166,89.1621 4.8183,89.5106 4.8183,89.5106 C4.8183,89.5106 3.8891,93.5759 3.8891,96.4797 C3.8891,99.2673 4.2376,102.9842 4.8183,104.8426 C4.8183,104.8426 9.9290,106.0041 19.6857,106.0041 C26.1902,106.0041 33.6239,103.6811 33.6239,103.6811 C41.7546,103.6811 41.7546,103.6811 41.7546,103.6811 C42.3353,101.9388 42.6838,99.2673 42.6838,96.4797 C42.6838,93.5759 41.7546,89.5106 41.7546,89.5106 Z" style="stroke-width: 0.0000; stroke: #171868; stroke-dasharray: none; stroke-linecap: round; stroke-linejoin: round; fill: none; "/>
    </g>
    <path xmlns="http://www.w3.org/2000/svg" d="  M39.0831,100.1965 C39.3154,99.0350 39.5477,97.6412 39.5477,96.0151 C39.5477,94.3890 39.3154,92.8790 39.0831,91.8336 M37.2247,100.1965 C37.5731,99.0350 37.6893,97.6412 37.6893,96.0151 C37.6893,94.3890 37.5731,92.8790 37.2247,91.8336 M32.9270,101.0096 C33.2755,99.8481 33.5078,98.2220 33.5078,96.3635 C33.5078,94.6213 33.2755,92.9951 32.9270,91.8336 M30.6040,101.3581 C30.9525,100.0804 31.0686,98.4543 31.0686,96.5958 C31.0686,94.7374 30.9525,92.9951 30.6040,91.8336 M28.1648,101.7065 C28.5133,100.4288 28.7456,98.6866 28.7456,96.7120 C28.7456,94.8536 28.5133,93.1113 28.1648,91.8336 M25.7256,102.0550 C26.0741,100.7773 26.3064,98.9189 26.3064,96.9443 C26.3064,94.9697 26.0741,93.1113 25.7256,91.8336 M23.4026,102.4034 C23.7510,101.0096 23.9834,99.1512 23.9834,97.0604 C23.9834,94.9697 23.7510,93.1113 23.4026,91.8336 M20.9634,102.7519 C21.3119,101.3581 21.5442,99.3835 21.5442,97.2928 C21.5442,95.0859 21.3119,93.2274 20.9634,91.8336 M18.5242,103.1003 C18.9888,101.5904 19.2211,99.6158 19.2211,97.4089 C19.2211,95.2020 18.9888,93.2274 18.5242,91.8336 M16.2012,103.4488 C16.5496,101.9388 16.7819,99.8481 16.7819,97.6412 C16.7819,95.3182 16.5496,93.3436 16.2012,91.8336 M13.9943,103.3326 C14.3428,101.8227 14.6912,99.8481 14.6912,97.5251 C14.6912,95.3182 14.3428,93.2274 13.9943,91.8336 M11.9036,103.2165 C12.2520,101.7065 12.4843,99.7319 12.4843,97.5251 C12.4843,95.3182 12.2520,93.2274 11.9036,91.8336 M9.6967,103.1003 C10.0451,101.7065 10.2774,99.6158 10.2774,97.4089 C10.2774,95.2020 10.0451,93.2274 9.6967,91.8336 M7.6060,102.9842 C7.9544,101.5904 8.1867,99.6158 8.1867,97.4089 C8.1867,95.2020 7.9544,93.2274 7.6060,91.8336 M35.4824,100.1965 C35.7147,99.0350 35.9470,97.6412 35.9470,96.0151 C35.9470,94.3890 35.7147,92.8790 35.4824,91.8336" style="stroke-width: 0.0591; stroke: #ffffff; stroke-dasharray: none; stroke-linecap: round; stroke-linejoin: round; fill: none; "/>
    <path xmlns="http://www.w3.org/2000/svg" d="  M41.8707,107.5141 L35.5985,107.5141 L35.5985,105.8880 L41.8707,105.8880 L41.8707,107.5141 Z" style="fill-rule: evenodd; fill: #ffffff; "/>
    <g xmlns="http://www.w3.org/2000/svg" id="Layer1028">
      <path d="  M44.8357,17.4074 L1.6211,17.4074 L1.6211,28.9313 L44.8357,28.9313 L44.8357,17.4074 Z M44.8357,17.4074 L44.8357,5.6434 L1.6211,5.6434 L1.6211,17.4074 L44.8357,17.4074 Z M44.8357,52.2192 L1.6211,52.2192 L1.6211,63.7431 L44.8357,63.7431 L44.8357,52.2192 Z M44.8357,40.4552 L1.6211,40.4552 L1.6211,52.2192 L44.8357,52.2192 L44.8357,40.4552 Z M44.8357,28.9313 L1.6211,28.9313 L1.6211,40.4552 L44.8357,40.4552 L44.8357,28.9313 Z M1.6211,145.3707 L1.6211,157.1347 L44.8357,157.1347 L44.8357,145.3707 L1.6211,145.3707 Z M1.6211,157.1347 L1.6211,168.6586 L44.8357,168.6586 L44.8357,157.1347 L1.6211,157.1347 Z M1.6211,133.8468 L1.6211,145.3707 L44.8357,145.3707 L44.8357,133.8468 L1.6211,133.8468 Z M1.6211,122.0828 L1.6211,133.8468 L44.8357,133.8468 L44.8357,122.0828 L1.6211,122.0828 Z M44.8357,110.5589 L1.6211,110.5589 L1.6211,122.0828 L44.8357,122.0828 L44.8357,110.5589 Z" style="stroke-width: 0.0240; stroke-linecap: round; stroke-linejoin: round; fill-rule: evenodd; fill: #171868; "/>
      <path d="  M44.8357,17.4074 L1.6211,17.4074 L1.6211,28.9313 L44.8357,28.9313 L44.8357,17.4074 Z M44.8357,17.4074 L44.8357,5.6434 L1.6211,5.6434 L1.6211,17.4074 L44.8357,17.4074 Z M44.8357,52.2192 L1.6211,52.2192 L1.6211,63.7431 L44.8357,63.7431 L44.8357,52.2192 Z M44.8357,40.4552 L1.6211,40.4552 L1.6211,52.2192 L44.8357,52.2192 L44.8357,40.4552 Z M44.8357,28.9313 L1.6211,28.9313 L1.6211,40.4552 L44.8357,40.4552 L44.8357,28.9313 Z M1.6211,145.3707 L1.6211,157.1347 L44.8357,157.1347 L44.8357,145.3707 L1.6211,145.3707 Z M1.6211,157.1347 L1.6211,168.6586 L44.8357,168.6586 L44.8357,157.1347 L1.6211,157.1347 Z M1.6211,133.8468 L1.6211,145.3707 L44.8357,145.3707 L44.8357,133.8468 L1.6211,133.8468 Z M1.6211,122.0828 L1.6211,133.8468 L44.8357,133.8468 L44.8357,122.0828 L1.6211,122.0828 Z M44.8357,110.5589 L1.6211,110.5589 L1.6211,122.0828 L44.8357,122.0828 L44.8357,110.5589 Z" style="stroke-width: 0.0240; stroke: #ffffff; stroke-dasharray: none; stroke-linecap: round; stroke-linejoin: round; fill: none; "/>
    </g>
    <path xmlns="http://www.w3.org/2000/svg" d="  M3.6617,18.8479 C3.6617,20.2884 3.6617,20.2884 3.6617,20.2884 C4.6221,21.7289 5.1022,22.4491 5.1022,24.8499 C5.1022,24.8499 5.1022,25.0900 5.1022,25.3301 C6.5427,25.3301 6.5427,25.3301 6.5427,25.3301 C6.5427,18.8479 6.5427,18.8479 6.5427,18.8479 C3.6617,18.8479 3.6617,18.8479 3.6617,18.8479 Z M7.5030,18.8479 C7.5030,20.2884 7.5030,20.2884 7.5030,20.2884 C8.2233,21.7289 8.7035,22.4491 8.7035,24.8499 C8.7035,24.8499 8.7035,25.0900 8.7035,25.3301 C10.1439,25.3301 10.1439,25.3301 10.1439,25.3301 C10.1439,18.8479 10.1439,18.8479 10.1439,18.8479 C7.5030,18.8479 7.5030,18.8479 7.5030,18.8479 Z M11.1043,18.8479 C11.1043,20.2884 11.1043,20.2884 11.1043,20.2884 C11.8245,21.7289 12.3047,22.4491 12.3047,24.8499 C12.3047,24.8499 12.3047,25.0900 12.3047,25.3301 C13.7452,25.3301 13.7452,25.3301 13.7452,25.3301 C13.7452,18.8479 13.7452,18.8479 13.7452,18.8479 C11.1043,18.8479 11.1043,18.8479 11.1043,18.8479 Z M14.7055,18.8479 C14.7055,20.2884 14.7055,20.2884 14.7055,20.2884 C15.4257,21.7289 16.1460,22.4491 16.1460,24.8499 C16.1460,24.8499 15.9059,25.0900 15.9059,25.3301 C17.3464,25.3301 17.3464,25.3301 17.3464,25.3301 C17.3464,18.8479 17.3464,18.8479 17.3464,18.8479 C14.7055,18.8479 14.7055,18.8479 14.7055,18.8479 Z M18.3067,18.8479 C18.3067,20.2884 18.3067,20.2884 18.3067,20.2884 C19.0269,21.7289 19.7472,22.4491 19.7472,24.8499 C19.7472,24.8499 19.7472,25.0900 19.7472,25.3301 C20.9476,25.3301 20.9476,25.3301 20.9476,25.3301 C20.9476,18.8479 20.9476,18.8479 20.9476,18.8479 C18.3067,18.8479 18.3067,18.8479 18.3067,18.8479 Z M21.9079,18.8479 C21.9079,20.2884 21.9079,20.2884 21.9079,20.2884 C22.8682,21.7289 23.3484,22.4491 23.3484,24.8499 C23.3484,24.8499 23.3484,25.0900 23.3484,25.3301 C24.5488,25.3301 24.5488,25.3301 24.5488,25.3301 C24.5488,18.8479 24.5488,18.8479 24.5488,18.8479 C21.9079,18.8479 21.9079,18.8479 21.9079,18.8479 Z M25.5091,18.8479 C25.5091,20.2884 25.5091,20.2884 25.5091,20.2884 C26.4695,21.7289 26.9496,22.4491 26.9496,24.8499 C26.9496,24.8499 26.9496,25.0900 26.9496,25.3301 C28.1500,25.3301 28.1500,25.3301 28.1500,25.3301 C28.1500,18.8479 28.1500,18.8479 28.1500,18.8479 C25.5091,18.8479 25.5091,18.8479 25.5091,18.8479 Z M29.3504,18.8479 C29.3504,20.2884 29.3504,20.2884 29.3504,20.2884 C30.0707,21.7289 30.5508,22.4491 30.5508,24.8499 C30.5508,24.8499 30.5508,25.0900 30.5508,25.3301 C31.9913,25.3301 31.9913,25.3301 31.9913,25.3301 C31.9913,18.8479 31.9913,18.8479 31.9913,18.8479 C29.3504,18.8479 29.3504,18.8479 29.3504,18.8479 Z M32.9517,18.8479 C32.9517,20.2884 32.9517,20.2884 32.9517,20.2884 C33.6719,21.7289 34.1521,22.4491 34.1521,24.8499 C34.1521,24.8499 34.1521,25.0900 34.1521,25.3301 C35.5925,25.3301 35.5925,25.3301 35.5925,25.3301 C35.5925,18.8479 35.5925,18.8479 35.5925,18.8479 C32.9517,18.8479 32.9517,18.8479 32.9517,18.8479 Z M36.5529,18.8479 C36.5529,20.2884 36.5529,20.2884 36.5529,20.2884 C37.2731,21.7289 37.9934,22.4491 37.9934,24.8499 C37.9934,24.8499 37.7533,25.0900 37.7533,25.3301 C39.1938,25.3301 39.1938,25.3301 39.1938,25.3301 C39.1938,18.8479 39.1938,18.8479 39.1938,18.8479 C36.5529,18.8479 36.5529,18.8479 36.5529,18.8479 Z M40.1541,18.8479 C40.1541,20.2884 40.1541,20.2884 40.1541,20.2884 C40.8743,21.7289 41.5946,22.4491 41.5946,24.8499 C41.5946,24.8499 41.5946,25.0900 41.5946,25.3301 C42.7950,25.3301 42.7950,25.3301 42.7950,25.3301 C42.7950,18.8479 42.7950,18.8479 42.7950,18.8479 C40.1541,18.8479 40.1541,18.8479 40.1541,18.8479 Z M3.6617,7.3240 C3.6617,8.7645 3.6617,8.7645 3.6617,8.7645 C4.6221,9.9649 5.1022,10.9252 5.1022,13.0860 C5.1022,13.3260 5.1022,13.5661 5.1022,13.5661 C6.5427,13.5661 6.5427,13.5661 6.5427,13.5661 C6.5427,7.3240 6.5427,7.3240 6.5427,7.3240 C3.6617,7.3240 3.6617,7.3240 3.6617,7.3240 Z M7.5030,7.3240 C7.5030,8.7645 7.5030,8.7645 7.5030,8.7645 C8.2233,9.9649 8.7035,10.9252 8.7035,13.0860 C8.7035,13.3260 8.7035,13.5661 8.7035,13.5661 C10.1439,13.5661 10.1439,13.5661 10.1439,13.5661 C10.1439,7.3240 10.1439,7.3240 10.1439,7.3240 C7.5030,7.3240 7.5030,7.3240 7.5030,7.3240 Z M11.1043,7.3240 C11.1043,8.7645 11.1043,8.7645 11.1043,8.7645 C11.8245,9.9649 12.3047,10.9252 12.3047,13.0860 C12.3047,13.3260 12.3047,13.5661 12.3047,13.5661 C13.7452,13.5661 13.7452,13.5661 13.7452,13.5661 C13.7452,7.3240 13.7452,7.3240 13.7452,7.3240 C11.1043,7.3240 11.1043,7.3240 11.1043,7.3240 Z M14.7055,7.3240 C14.7055,8.7645 14.7055,8.7645 14.7055,8.7645 C15.4257,9.9649 16.1460,10.9252 16.1460,13.0860 C16.1460,13.3260 15.9059,13.5661 15.9059,13.5661 C17.3464,13.5661 17.3464,13.5661 17.3464,13.5661 C17.3464,7.3240 17.3464,7.3240 17.3464,7.3240 C14.7055,7.3240 14.7055,7.3240 14.7055,7.3240 Z M18.3067,7.3240 C18.3067,8.7645 18.3067,8.7645 18.3067,8.7645 C19.0269,9.9649 19.7472,10.9252 19.7472,13.0860 C19.7472,13.3260 19.7472,13.5661 19.7472,13.5661 C20.9476,13.5661 20.9476,13.5661 20.9476,13.5661 C20.9476,7.3240 20.9476,7.3240 20.9476,7.3240 C18.3067,7.3240 18.3067,7.3240 18.3067,7.3240 Z M21.9079,7.3240 C21.9079,8.7645 21.9079,8.7645 21.9079,8.7645 C22.8682,9.9649 23.3484,10.9252 23.3484,13.0860 C23.3484,13.3260 23.3484,13.5661 23.3484,13.5661 C24.5488,13.5661 24.5488,13.5661 24.5488,13.5661 C24.5488,7.3240 24.5488,7.3240 24.5488,7.3240 C21.9079,7.3240 21.9079,7.3240 21.9079,7.3240 Z M25.5091,7.3240 C25.5091,8.7645 25.5091,8.7645 25.5091,8.7645 C26.4695,9.9649 26.9496,10.9252 26.9496,13.0860 C26.9496,13.3260 26.9496,13.5661 26.9496,13.5661 C28.1500,13.5661 28.1500,13.5661 28.1500,13.5661 C28.1500,7.3240 28.1500,7.3240 28.1500,7.3240 C25.5091,7.3240 25.5091,7.3240 25.5091,7.3240 Z M29.3504,7.3240 C29.3504,8.7645 29.3504,8.7645 29.3504,8.7645 C30.0707,9.9649 30.5508,10.9252 30.5508,13.0860 C30.5508,13.3260 30.5508,13.5661 30.5508,13.5661 C31.9913,13.5661 31.9913,13.5661 31.9913,13.5661 C31.9913,7.3240 31.9913,7.3240 31.9913,7.3240 C29.3504,7.3240 29.3504,7.3240 29.3504,7.3240 Z M32.9517,7.3240 C32.9517,8.7645 32.9517,8.7645 32.9517,8.7645 C33.6719,9.9649 34.1521,10.9252 34.1521,13.0860 C34.1521,13.3260 34.1521,13.5661 34.1521,13.5661 C35.5925,13.5661 35.5925,13.5661 35.5925,13.5661 C35.5925,7.3240 35.5925,7.3240 35.5925,7.3240 C32.9517,7.3240 32.9517,7.3240 32.9517,7.3240 Z M36.5529,7.3240 C36.5529,8.7645 36.5529,8.7645 36.5529,8.7645 C37.2731,9.9649 37.9934,10.9252 37.9934,13.0860 C37.9934,13.3260 37.7533,13.5661 37.7533,13.5661 C39.1938,13.5661 39.1938,13.5661 39.1938,13.5661 C39.1938,7.3240 39.1938,7.3240 39.1938,7.3240 C36.5529,7.3240 36.5529,7.3240 36.5529,7.3240 Z M40.1541,7.3240 C40.1541,8.7645 40.1541,8.7645 40.1541,8.7645 C40.8743,9.9649 41.5946,10.9252 41.5946,13.0860 C41.5946,13.3260 41.5946,13.5661 41.5946,13.5661 C42.7950,13.5661 42.7950,13.5661 42.7950,13.5661 C42.7950,7.3240 42.7950,7.3240 42.7950,7.3240 C40.1541,7.3240 40.1541,7.3240 40.1541,7.3240 Z M18.3067,53.8998 C18.3067,55.3402 18.3067,55.3402 18.3067,55.3402 C19.0269,56.5407 19.7472,57.2609 19.7472,59.6617 C19.7472,59.9018 19.7472,59.9018 19.7472,60.1419 C20.9476,60.1419 20.9476,60.1419 20.9476,60.1419 C20.9476,53.8998 20.9476,53.8998 20.9476,53.8998 C18.3067,53.8998 18.3067,53.8998 18.3067,53.8998 Z M21.9079,53.8998 C21.9079,55.3402 21.9079,55.3402 21.9079,55.3402 C22.8682,56.5407 23.3484,57.2609 23.3484,59.6617 C23.3484,59.9018 23.3484,59.9018 23.3484,60.1419 C24.5488,60.1419 24.5488,60.1419 24.5488,60.1419 C24.5488,53.8998 24.5488,53.8998 24.5488,53.8998 C21.9079,53.8998 21.9079,53.8998 21.9079,53.8998 Z M25.5091,53.8998 C25.5091,55.3402 25.5091,55.3402 25.5091,55.3402 C26.4695,56.5407 26.9496,57.2609 26.9496,59.6617 C26.9496,59.9018 26.9496,59.9018 26.9496,60.1419 C28.1500,60.1419 28.1500,60.1419 28.1500,60.1419 C28.1500,53.8998 28.1500,53.8998 28.1500,53.8998 C25.5091,53.8998 25.5091,53.8998 25.5091,53.8998 Z M29.3504,53.8998 C29.3504,55.3402 29.3504,55.3402 29.3504,55.3402 C30.0707,56.5407 30.5508,57.2609 30.5508,59.6617 C30.5508,59.9018 30.5508,59.9018 30.5508,60.1419 C31.9913,60.1419 31.9913,60.1419 31.9913,60.1419 C31.9913,53.8998 31.9913,53.8998 31.9913,53.8998 C29.3504,53.8998 29.3504,53.8998 29.3504,53.8998 Z M32.9517,53.8998 C32.9517,55.3402 32.9517,55.3402 32.9517,55.3402 C33.6719,56.5407 34.1521,57.2609 34.1521,59.6617 C34.1521,59.9018 34.1521,59.9018 34.1521,60.1419 C35.5925,60.1419 35.5925,60.1419 35.5925,60.1419 C35.5925,53.8998 35.5925,53.8998 35.5925,53.8998 C32.9517,53.8998 32.9517,53.8998 32.9517,53.8998 Z M36.5529,53.8998 C36.5529,55.3402 36.5529,55.3402 36.5529,55.3402 C37.2731,56.5407 37.9934,57.2609 37.9934,59.6617 C37.9934,59.9018 37.7533,59.9018 37.7533,60.1419 C39.1938,60.1419 39.1938,60.1419 39.1938,60.1419 C39.1938,53.8998 39.1938,53.8998 39.1938,53.8998 C36.5529,53.8998 36.5529,53.8998 36.5529,53.8998 Z M40.1541,53.8998 C40.1541,55.3402 40.1541,55.3402 40.1541,55.3402 C40.8743,56.5407 41.5946,57.2609 41.5946,59.6617 C41.5946,59.9018 41.5946,59.9018 41.5946,60.1419 C42.7950,60.1419 42.7950,60.1419 42.7950,60.1419 C42.7950,53.8998 42.7950,53.8998 42.7950,53.8998 C40.1541,53.8998 40.1541,53.8998 40.1541,53.8998 Z M3.6617,53.8998 C3.6617,55.3402 3.6617,55.3402 3.6617,55.3402 C4.6221,56.5407 5.1022,57.2609 5.1022,59.6617 C5.1022,59.9018 5.1022,59.9018 5.1022,60.1419 C6.5427,60.1419 6.5427,60.1419 6.5427,60.1419 C6.5427,53.8998 6.5427,53.8998 6.5427,53.8998 C3.6617,53.8998 3.6617,53.8998 3.6617,53.8998 Z M7.5030,53.8998 C7.5030,55.3402 7.5030,55.3402 7.5030,55.3402 C8.2233,56.5407 8.7035,57.2609 8.7035,59.6617 C8.7035,59.9018 8.7035,59.9018 8.7035,60.1419 C10.1439,60.1419 10.1439,60.1419 10.1439,60.1419 C10.1439,53.8998 10.1439,53.8998 10.1439,53.8998 C7.5030,53.8998 7.5030,53.8998 7.5030,53.8998 Z M11.1043,53.8998 C11.1043,55.3402 11.1043,55.3402 11.1043,55.3402 C11.8245,56.5407 12.3047,57.2609 12.3047,59.6617 C12.3047,59.9018 12.3047,59.9018 12.3047,60.1419 C13.7452,60.1419 13.7452,60.1419 13.7452,60.1419 C13.7452,53.8998 13.7452,53.8998 13.7452,53.8998 C11.1043,53.8998 11.1043,53.8998 11.1043,53.8998 Z M14.7055,53.8998 C14.7055,55.3402 14.7055,55.3402 14.7055,55.3402 C15.4257,56.5407 16.1460,57.2609 16.1460,59.6617 C16.1460,59.9018 15.9059,59.9018 15.9059,60.1419 C17.3464,60.1419 17.3464,60.1419 17.3464,60.1419 C17.3464,53.8998 17.3464,53.8998 17.3464,53.8998 C14.7055,53.8998 14.7055,53.8998 14.7055,53.8998 Z M18.3067,42.1358 C18.3067,43.5763 18.3067,43.5763 18.3067,43.5763 C19.0269,45.0168 19.7472,45.7370 19.7472,47.8977 C19.7472,48.1378 19.7472,48.3779 19.7472,48.6180 C20.9476,48.6180 20.9476,48.6180 20.9476,48.6180 C20.9476,42.1358 20.9476,42.1358 20.9476,42.1358 C18.3067,42.1358 18.3067,42.1358 18.3067,42.1358 Z M21.9079,42.1358 C21.9079,43.5763 21.9079,43.5763 21.9079,43.5763 C22.8682,45.0168 23.3484,45.7370 23.3484,47.8977 C23.3484,48.1378 23.3484,48.3779 23.3484,48.6180 C24.5488,48.6180 24.5488,48.6180 24.5488,48.6180 C24.5488,42.1358 24.5488,42.1358 24.5488,42.1358 C21.9079,42.1358 21.9079,42.1358 21.9079,42.1358 Z M25.5091,42.1358 C25.5091,43.5763 25.5091,43.5763 25.5091,43.5763 C26.4695,45.0168 26.9496,45.7370 26.9496,47.8977 C26.9496,48.1378 26.9496,48.3779 26.9496,48.6180 C28.1500,48.6180 28.1500,48.6180 28.1500,48.6180 C28.1500,42.1358 28.1500,42.1358 28.1500,42.1358 C25.5091,42.1358 25.5091,42.1358 25.5091,42.1358 Z M29.3504,42.1358 C29.3504,43.5763 29.3504,43.5763 29.3504,43.5763 C30.0707,45.0168 30.5508,45.7370 30.5508,47.8977 C30.5508,48.1378 30.5508,48.3779 30.5508,48.6180 C31.9913,48.6180 31.9913,48.6180 31.9913,48.6180 C31.9913,42.1358 31.9913,42.1358 31.9913,42.1358 C29.3504,42.1358 29.3504,42.1358 29.3504,42.1358 Z M32.9517,42.1358 C32.9517,43.5763 32.9517,43.5763 32.9517,43.5763 C33.6719,45.0168 34.1521,45.7370 34.1521,47.8977 C34.1521,48.1378 34.1521,48.3779 34.1521,48.6180 C35.5925,48.6180 35.5925,48.6180 35.5925,48.6180 C35.5925,42.1358 35.5925,42.1358 35.5925,42.1358 C32.9517,42.1358 32.9517,42.1358 32.9517,42.1358 Z M36.5529,42.1358 C36.5529,43.5763 36.5529,43.5763 36.5529,43.5763 C37.2731,45.0168 37.9934,45.7370 37.9934,47.8977 C37.9934,48.1378 37.7533,48.3779 37.7533,48.6180 C39.1938,48.6180 39.1938,48.6180 39.1938,48.6180 C39.1938,42.1358 39.1938,42.1358 39.1938,42.1358 C36.5529,42.1358 36.5529,42.1358 36.5529,42.1358 Z M40.1541,42.1358 C40.1541,43.5763 40.1541,43.5763 40.1541,43.5763 C40.8743,45.0168 41.5946,45.7370 41.5946,47.8977 C41.5946,48.1378 41.5946,48.3779 41.5946,48.6180 C42.7950,48.6180 42.7950,48.6180 42.7950,48.6180 C42.7950,42.1358 42.7950,42.1358 42.7950,42.1358 C40.1541,42.1358 40.1541,42.1358 40.1541,42.1358 Z M3.6617,42.1358 C3.6617,43.5763 3.6617,43.5763 3.6617,43.5763 C4.6221,45.0168 5.1022,45.7370 5.1022,47.8977 C5.1022,48.1378 5.1022,48.3779 5.1022,48.6180 C6.5427,48.6180 6.5427,48.6180 6.5427,48.6180 C6.5427,42.1358 6.5427,42.1358 6.5427,42.1358 C3.6617,42.1358 3.6617,42.1358 3.6617,42.1358 Z M7.5030,42.1358 C7.5030,43.5763 7.5030,43.5763 7.5030,43.5763 C8.2233,45.0168 8.7035,45.7370 8.7035,47.8977 C8.7035,48.1378 8.7035,48.3779 8.7035,48.6180 C10.1439,48.6180 10.1439,48.6180 10.1439,48.6180 C10.1439,42.1358 10.1439,42.1358 10.1439,42.1358 C7.5030,42.1358 7.5030,42.1358 7.5030,42.1358 Z M11.1043,42.1358 C11.1043,43.5763 11.1043,43.5763 11.1043,43.5763 C11.8245,45.0168 12.3047,45.7370 12.3047,47.8977 C12.3047,48.1378 12.3047,48.3779 12.3047,48.6180 C13.7452,48.6180 13.7452,48.6180 13.7452,48.6180 C13.7452,42.1358 13.7452,42.1358 13.7452,42.1358 C11.1043,42.1358 11.1043,42.1358 11.1043,42.1358 Z M14.7055,42.1358 C14.7055,43.5763 14.7055,43.5763 14.7055,43.5763 C15.4257,45.0168 16.1460,45.7370 16.1460,47.8977 C16.1460,48.1378 15.9059,48.3779 15.9059,48.6180 C17.3464,48.6180 17.3464,48.6180 17.3464,48.6180 C17.3464,42.1358 17.3464,42.1358 17.3464,42.1358 C14.7055,42.1358 14.7055,42.1358 14.7055,42.1358 Z M18.3067,30.6119 C18.3067,32.0524 18.3067,32.0524 18.3067,32.0524 C19.0269,33.2528 19.7472,33.9730 19.7472,36.3738 C19.7472,36.6139 19.7472,36.8540 19.7472,36.8540 C20.9476,36.8540 20.9476,36.8540 20.9476,36.8540 C20.9476,30.6119 20.9476,30.6119 20.9476,30.6119 C18.3067,30.6119 18.3067,30.6119 18.3067,30.6119 Z M21.9079,30.6119 C21.9079,32.0524 21.9079,32.0524 21.9079,32.0524 C22.8682,33.2528 23.3484,33.9730 23.3484,36.3738 C23.3484,36.6139 23.3484,36.8540 23.3484,36.8540 C24.5488,36.8540 24.5488,36.8540 24.5488,36.8540 C24.5488,30.6119 24.5488,30.6119 24.5488,30.6119 C21.9079,30.6119 21.9079,30.6119 21.9079,30.6119 Z M25.5091,30.6119 C25.5091,32.0524 25.5091,32.0524 25.5091,32.0524 C26.4695,33.2528 26.9496,33.9730 26.9496,36.3738 C26.9496,36.6139 26.9496,36.8540 26.9496,36.8540 C28.1500,36.8540 28.1500,36.8540 28.1500,36.8540 C28.1500,30.6119 28.1500,30.6119 28.1500,30.6119 C25.5091,30.6119 25.5091,30.6119 25.5091,30.6119 Z M29.3504,30.6119 C29.3504,32.0524 29.3504,32.0524 29.3504,32.0524 C30.0707,33.2528 30.5508,33.9730 30.5508,36.3738 C30.5508,36.6139 30.5508,36.8540 30.5508,36.8540 C31.9913,36.8540 31.9913,36.8540 31.9913,36.8540 C31.9913,30.6119 31.9913,30.6119 31.9913,30.6119 C29.3504,30.6119 29.3504,30.6119 29.3504,30.6119 Z M32.9517,30.6119 C32.9517,32.0524 32.9517,32.0524 32.9517,32.0524 C33.6719,33.2528 34.1521,33.9730 34.1521,36.3738 C34.1521,36.6139 34.1521,36.8540 34.1521,36.8540 C35.5925,36.8540 35.5925,36.8540 35.5925,36.8540 C35.5925,30.6119 35.5925,30.6119 35.5925,30.6119 C32.9517,30.6119 32.9517,30.6119 32.9517,30.6119 Z M36.5529,30.6119 C36.5529,32.0524 36.5529,32.0524 36.5529,32.0524 C37.2731,33.2528 37.9934,33.9730 37.9934,36.3738 C37.9934,36.6139 37.7533,36.8540 37.7533,36.8540 C39.1938,36.8540 39.1938,36.8540 39.1938,36.8540 C39.1938,30.6119 39.1938,30.6119 39.1938,30.6119 C36.5529,30.6119 36.5529,30.6119 36.5529,30.6119 Z M40.1541,30.6119 C40.1541,32.0524 40.1541,32.0524 40.1541,32.0524 C40.8743,33.2528 41.5946,33.9730 41.5946,36.3738 C41.5946,36.6139 41.5946,36.8540 41.5946,36.8540 C42.7950,36.8540 42.7950,36.8540 42.7950,36.8540 C42.7950,30.6119 42.7950,30.6119 42.7950,30.6119 C40.1541,30.6119 40.1541,30.6119 40.1541,30.6119 Z M3.6617,30.6119 C3.6617,32.0524 3.6617,32.0524 3.6617,32.0524 C4.6221,33.2528 5.1022,33.9730 5.1022,36.3738 C5.1022,36.6139 5.1022,36.8540 5.1022,36.8540 C6.5427,36.8540 6.5427,36.8540 6.5427,36.8540 C6.5427,30.6119 6.5427,30.6119 6.5427,30.6119 C3.6617,30.6119 3.6617,30.6119 3.6617,30.6119 Z M7.5030,30.6119 C7.5030,32.0524 7.5030,32.0524 7.5030,32.0524 C8.2233,33.2528 8.7035,33.9730 8.7035,36.3738 C8.7035,36.6139 8.7035,36.8540 8.7035,36.8540 C10.1439,36.8540 10.1439,36.8540 10.1439,36.8540 C10.1439,30.6119 10.1439,30.6119 10.1439,30.6119 C7.5030,30.6119 7.5030,30.6119 7.5030,30.6119 Z M11.1043,30.6119 C11.1043,32.0524 11.1043,32.0524 11.1043,32.0524 C11.8245,33.2528 12.3047,33.9730 12.3047,36.3738 C12.3047,36.6139 12.3047,36.8540 12.3047,36.8540 C13.7452,36.8540 13.7452,36.8540 13.7452,36.8540 C13.7452,30.6119 13.7452,30.6119 13.7452,30.6119 C11.1043,30.6119 11.1043,30.6119 11.1043,30.6119 Z M14.7055,30.6119 C14.7055,32.0524 14.7055,32.0524 14.7055,32.0524 C15.4257,33.2528 16.1460,33.9730 16.1460,36.3738 C16.1460,36.6139 15.9059,36.8540 15.9059,36.8540 C17.3464,36.8540 17.3464,36.8540 17.3464,36.8540 C17.3464,30.6119 17.3464,30.6119 17.3464,30.6119 C14.7055,30.6119 14.7055,30.6119 14.7055,30.6119 Z M32.9517,147.0513 C32.9517,148.4918 32.9517,148.4918 32.9517,148.4918 C33.6719,149.9322 34.1521,150.6525 34.1521,152.8132 C34.1521,153.0533 34.1521,153.2934 34.1521,153.5335 C35.5925,153.5335 35.5925,153.5335 35.5925,153.5335 C35.5925,147.0513 35.5925,147.0513 35.5925,147.0513 C32.9517,147.0513 32.9517,147.0513 32.9517,147.0513 Z M36.5529,147.0513 C36.5529,148.4918 36.5529,148.4918 36.5529,148.4918 C37.2731,149.9322 37.9934,150.6525 37.9934,152.8132 C37.9934,153.0533 37.7533,153.2934 37.7533,153.5335 C39.1938,153.5335 39.1938,153.5335 39.1938,153.5335 C39.1938,147.0513 39.1938,147.0513 39.1938,147.0513 C36.5529,147.0513 36.5529,147.0513 36.5529,147.0513 Z M40.1541,147.0513 C40.1541,148.4918 40.1541,148.4918 40.1541,148.4918 C40.8743,149.9322 41.5946,150.6525 41.5946,152.8132 C41.5946,153.0533 41.5946,153.2934 41.5946,153.5335 C42.7950,153.5335 42.7950,153.5335 42.7950,153.5335 C42.7950,147.0513 42.7950,147.0513 42.7950,147.0513 C40.1541,147.0513 40.1541,147.0513 40.1541,147.0513 Z M3.6617,158.8152 C3.6617,160.2557 3.6617,160.2557 3.6617,160.2557 C4.6221,161.4561 5.1022,162.1764 5.1022,164.5772 C5.1022,164.8173 5.1022,164.8173 5.1022,165.0574 C6.5427,165.0574 6.5427,165.0574 6.5427,165.0574 C6.5427,158.8152 6.5427,158.8152 6.5427,158.8152 C3.6617,158.8152 3.6617,158.8152 3.6617,158.8152 Z M7.5030,158.8152 C7.5030,160.2557 7.5030,160.2557 7.5030,160.2557 C8.2233,161.4561 8.7035,162.1764 8.7035,164.5772 C8.7035,164.8173 8.7035,164.8173 8.7035,165.0574 C10.1439,165.0574 10.1439,165.0574 10.1439,165.0574 C10.1439,158.8152 10.1439,158.8152 10.1439,158.8152 C7.5030,158.8152 7.5030,158.8152 7.5030,158.8152 Z M11.1043,158.8152 C11.1043,160.2557 11.1043,160.2557 11.1043,160.2557 C11.8245,161.4561 12.3047,162.1764 12.3047,164.5772 C12.3047,164.8173 12.3047,164.8173 12.3047,165.0574 C13.7452,165.0574 13.7452,165.0574 13.7452,165.0574 C13.7452,158.8152 13.7452,158.8152 13.7452,158.8152 C11.1043,158.8152 11.1043,158.8152 11.1043,158.8152 Z M14.7055,158.8152 C14.7055,160.2557 14.7055,160.2557 14.7055,160.2557 C15.4257,161.4561 16.1460,162.1764 16.1460,164.5772 C16.1460,164.8173 15.9059,164.8173 15.9059,165.0574 C17.3464,165.0574 17.3464,165.0574 17.3464,165.0574 C17.3464,158.8152 17.3464,158.8152 17.3464,158.8152 C14.7055,158.8152 14.7055,158.8152 14.7055,158.8152 Z M18.3067,158.8152 C18.3067,160.2557 18.3067,160.2557 18.3067,160.2557 C19.0269,161.4561 19.7472,162.1764 19.7472,164.5772 C19.7472,164.8173 19.7472,164.8173 19.7472,165.0574 C20.9476,165.0574 20.9476,165.0574 20.9476,165.0574 C20.9476,158.8152 20.9476,158.8152 20.9476,158.8152 C18.3067,158.8152 18.3067,158.8152 18.3067,158.8152 Z M21.9079,158.8152 C21.9079,160.2557 21.9079,160.2557 21.9079,160.2557 C22.8682,161.4561 23.3484,162.1764 23.3484,164.5772 C23.3484,164.8173 23.3484,164.8173 23.3484,165.0574 C24.5488,165.0574 24.5488,165.0574 24.5488,165.0574 C24.5488,158.8152 24.5488,158.8152 24.5488,158.8152 C21.9079,158.8152 21.9079,158.8152 21.9079,158.8152 Z M25.5091,158.8152 C25.5091,160.2557 25.5091,160.2557 25.5091,160.2557 C26.4695,161.4561 26.9496,162.1764 26.9496,164.5772 C26.9496,164.8173 26.9496,164.8173 26.9496,165.0574 C28.1500,165.0574 28.1500,165.0574 28.1500,165.0574 C28.1500,158.8152 28.1500,158.8152 28.1500,158.8152 C25.5091,158.8152 25.5091,158.8152 25.5091,158.8152 Z M29.3504,158.8152 C29.3504,160.2557 29.3504,160.2557 29.3504,160.2557 C30.0707,161.4561 30.5508,162.1764 30.5508,164.5772 C30.5508,164.8173 30.5508,164.8173 30.5508,165.0574 C31.9913,165.0574 31.9913,165.0574 31.9913,165.0574 C31.9913,158.8152 31.9913,158.8152 31.9913,158.8152 C29.3504,158.8152 29.3504,158.8152 29.3504,158.8152 Z M11.1043,147.0513 C11.1043,148.4918 11.1043,148.4918 11.1043,148.4918 C11.8245,149.9322 12.3047,150.6525 12.3047,152.8132 C12.3047,153.0533 12.3047,153.2934 12.3047,153.5335 C13.7452,153.5335 13.7452,153.5335 13.7452,153.5335 C13.7452,147.0513 13.7452,147.0513 13.7452,147.0513 C11.1043,147.0513 11.1043,147.0513 11.1043,147.0513 Z M14.7055,147.0513 C14.7055,148.4918 14.7055,148.4918 14.7055,148.4918 C15.4257,149.9322 16.1460,150.6525 16.1460,152.8132 C16.1460,153.0533 15.9059,153.2934 15.9059,153.5335 C17.3464,153.5335 17.3464,153.5335 17.3464,153.5335 C17.3464,147.0513 17.3464,147.0513 17.3464,147.0513 C14.7055,147.0513 14.7055,147.0513 14.7055,147.0513 Z M18.3067,147.0513 C18.3067,148.4918 18.3067,148.4918 18.3067,148.4918 C19.0269,149.9322 19.7472,150.6525 19.7472,152.8132 C19.7472,153.0533 19.7472,153.2934 19.7472,153.5335 C20.9476,153.5335 20.9476,153.5335 20.9476,153.5335 C20.9476,147.0513 20.9476,147.0513 20.9476,147.0513 C18.3067,147.0513 18.3067,147.0513 18.3067,147.0513 Z M21.9079,147.0513 C21.9079,148.4918 21.9079,148.4918 21.9079,148.4918 C22.8682,149.9322 23.3484,150.6525 23.3484,152.8132 C23.3484,153.0533 23.3484,153.2934 23.3484,153.5335 C24.5488,153.5335 24.5488,153.5335 24.5488,153.5335 C24.5488,147.0513 24.5488,147.0513 24.5488,147.0513 C21.9079,147.0513 21.9079,147.0513 21.9079,147.0513 Z M25.5091,147.0513 C25.5091,148.4918 25.5091,148.4918 25.5091,148.4918 C26.4695,149.9322 26.9496,150.6525 26.9496,152.8132 C26.9496,153.0533 26.9496,153.2934 26.9496,153.5335 C28.1500,153.5335 28.1500,153.5335 28.1500,153.5335 C28.1500,147.0513 28.1500,147.0513 28.1500,147.0513 C25.5091,147.0513 25.5091,147.0513 25.5091,147.0513 Z M29.3504,147.0513 C29.3504,148.4918 29.3504,148.4918 29.3504,148.4918 C30.0707,149.9322 30.5508,150.6525 30.5508,152.8132 C30.5508,153.0533 30.5508,153.2934 30.5508,153.5335 C31.9913,153.5335 31.9913,153.5335 31.9913,153.5335 C31.9913,147.0513 31.9913,147.0513 31.9913,147.0513 C29.3504,147.0513 29.3504,147.0513 29.3504,147.0513 Z M3.6617,147.0513 C3.6617,148.4918 3.6617,148.4918 3.6617,148.4918 C4.6221,149.9322 5.1022,150.6525 5.1022,152.8132 C5.1022,153.0533 5.1022,153.2934 5.1022,153.5335 C6.5427,153.5335 6.5427,153.5335 6.5427,153.5335 C6.5427,147.0513 6.5427,147.0513 6.5427,147.0513 C3.6617,147.0513 3.6617,147.0513 3.6617,147.0513 Z M7.5030,147.0513 C7.5030,148.4918 7.5030,148.4918 7.5030,148.4918 C8.2233,149.9322 8.7035,150.6525 8.7035,152.8132 C8.7035,153.0533 8.7035,153.2934 8.7035,153.5335 C10.1439,153.5335 10.1439,153.5335 10.1439,153.5335 C10.1439,147.0513 10.1439,147.0513 10.1439,147.0513 C7.5030,147.0513 7.5030,147.0513 7.5030,147.0513 Z M32.9517,158.8152 C32.9517,160.2557 32.9517,160.2557 32.9517,160.2557 C33.6719,161.4561 34.1521,162.1764 34.1521,164.5772 C34.1521,164.8173 34.1521,164.8173 34.1521,165.0574 C35.5925,165.0574 35.5925,165.0574 35.5925,165.0574 C35.5925,158.8152 35.5925,158.8152 35.5925,158.8152 C32.9517,158.8152 32.9517,158.8152 32.9517,158.8152 Z M36.5529,158.8152 C36.5529,160.2557 36.5529,160.2557 36.5529,160.2557 C37.2731,161.4561 37.9934,162.1764 37.9934,164.5772 C37.9934,164.8173 37.7533,164.8173 37.7533,165.0574 C39.1938,165.0574 39.1938,165.0574 39.1938,165.0574 C39.1938,158.8152 39.1938,158.8152 39.1938,158.8152 C36.5529,158.8152 36.5529,158.8152 36.5529,158.8152 Z M40.1541,158.8152 C40.1541,160.2557 40.1541,160.2557 40.1541,160.2557 C40.8743,161.4561 41.5946,162.1764 41.5946,164.5772 C41.5946,164.8173 41.5946,164.8173 41.5946,165.0574 C42.7950,165.0574 42.7950,165.0574 42.7950,165.0574 C42.7950,158.8152 42.7950,158.8152 42.7950,158.8152 C40.1541,158.8152 40.1541,158.8152 40.1541,158.8152 Z M18.3067,123.7634 C18.3067,125.2039 18.3067,125.2039 18.3067,125.2039 C19.0269,126.6444 19.7472,127.3646 19.7472,129.5253 C19.7472,129.7654 19.7472,130.0055 19.7472,130.2456 C20.9476,130.2456 20.9476,130.2456 20.9476,130.2456 C20.9476,123.7634 20.9476,123.7634 20.9476,123.7634 C18.3067,123.7634 18.3067,123.7634 18.3067,123.7634 Z M21.9079,123.7634 C21.9079,125.2039 21.9079,125.2039 21.9079,125.2039 C22.8682,126.6444 23.3484,127.3646 23.3484,129.5253 C23.3484,129.7654 23.3484,130.0055 23.3484,130.2456 C24.5488,130.2456 24.5488,130.2456 24.5488,130.2456 C24.5488,123.7634 24.5488,123.7634 24.5488,123.7634 C21.9079,123.7634 21.9079,123.7634 21.9079,123.7634 Z M25.5091,123.7634 C25.5091,125.2039 25.5091,125.2039 25.5091,125.2039 C26.4695,126.6444 26.9496,127.3646 26.9496,129.5253 C26.9496,129.7654 26.9496,130.0055 26.9496,130.2456 C28.1500,130.2456 28.1500,130.2456 28.1500,130.2456 C28.1500,123.7634 28.1500,123.7634 28.1500,123.7634 C25.5091,123.7634 25.5091,123.7634 25.5091,123.7634 Z M29.3504,123.7634 C29.3504,125.2039 29.3504,125.2039 29.3504,125.2039 C30.0707,126.6444 30.5508,127.3646 30.5508,129.5253 C30.5508,129.7654 30.5508,130.0055 30.5508,130.2456 C31.9913,130.2456 31.9913,130.2456 31.9913,130.2456 C31.9913,123.7634 31.9913,123.7634 31.9913,123.7634 C29.3504,123.7634 29.3504,123.7634 29.3504,123.7634 Z M32.9517,123.7634 C32.9517,125.2039 32.9517,125.2039 32.9517,125.2039 C33.6719,126.6444 34.1521,127.3646 34.1521,129.5253 C34.1521,129.7654 34.1521,130.0055 34.1521,130.2456 C35.5925,130.2456 35.5925,130.2456 35.5925,130.2456 C35.5925,123.7634 35.5925,123.7634 35.5925,123.7634 C32.9517,123.7634 32.9517,123.7634 32.9517,123.7634 Z M36.5529,123.7634 C36.5529,125.2039 36.5529,125.2039 36.5529,125.2039 C37.2731,126.6444 37.9934,127.3646 37.9934,129.5253 C37.9934,129.7654 37.7533,130.0055 37.7533,130.2456 C39.1938,130.2456 39.1938,130.2456 39.1938,130.2456 C39.1938,123.7634 39.1938,123.7634 39.1938,123.7634 C36.5529,123.7634 36.5529,123.7634 36.5529,123.7634 Z M40.1541,123.7634 C40.1541,125.2039 40.1541,125.2039 40.1541,125.2039 C40.8743,126.6444 41.5946,127.3646 41.5946,129.5253 C41.5946,129.7654 41.5946,130.0055 41.5946,130.2456 C42.7950,130.2456 42.7950,130.2456 42.7950,130.2456 C42.7950,123.7634 42.7950,123.7634 42.7950,123.7634 C40.1541,123.7634 40.1541,123.7634 40.1541,123.7634 Z M3.6617,123.7634 C3.6617,125.2039 3.6617,125.2039 3.6617,125.2039 C4.6221,126.6444 5.1022,127.3646 5.1022,129.5253 C5.1022,129.7654 5.1022,130.0055 5.1022,130.2456 C6.5427,130.2456 6.5427,130.2456 6.5427,130.2456 C6.5427,123.7634 6.5427,123.7634 6.5427,123.7634 C3.6617,123.7634 3.6617,123.7634 3.6617,123.7634 Z M7.5030,123.7634 C7.5030,125.2039 7.5030,125.2039 7.5030,125.2039 C8.2233,126.6444 8.7035,127.3646 8.7035,129.5253 C8.7035,129.7654 8.7035,130.0055 8.7035,130.2456 C10.1439,130.2456 10.1439,130.2456 10.1439,130.2456 C10.1439,123.7634 10.1439,123.7634 10.1439,123.7634 C7.5030,123.7634 7.5030,123.7634 7.5030,123.7634 Z M11.1043,123.7634 C11.1043,125.2039 11.1043,125.2039 11.1043,125.2039 C11.8245,126.6444 12.3047,127.3646 12.3047,129.5253 C12.3047,129.7654 12.3047,130.0055 12.3047,130.2456 C13.7452,130.2456 13.7452,130.2456 13.7452,130.2456 C13.7452,123.7634 13.7452,123.7634 13.7452,123.7634 C11.1043,123.7634 11.1043,123.7634 11.1043,123.7634 Z M14.7055,123.7634 C14.7055,125.2039 14.7055,125.2039 14.7055,125.2039 C15.4257,126.6444 16.1460,127.3646 16.1460,129.5253 C16.1460,129.7654 15.9059,130.0055 15.9059,130.2456 C17.3464,130.2456 17.3464,130.2456 17.3464,130.2456 C17.3464,123.7634 17.3464,123.7634 17.3464,123.7634 C14.7055,123.7634 14.7055,123.7634 14.7055,123.7634 Z M18.3067,135.5274 C18.3067,136.9679 18.3067,136.9679 18.3067,136.9679 C19.0269,138.1683 19.7472,138.8885 19.7472,141.2893 C19.7472,141.5294 19.7472,141.5294 19.7472,141.7695 C20.9476,141.7695 20.9476,141.7695 20.9476,141.7695 C20.9476,135.5274 20.9476,135.5274 20.9476,135.5274 C18.3067,135.5274 18.3067,135.5274 18.3067,135.5274 Z M21.9079,135.5274 C21.9079,136.9679 21.9079,136.9679 21.9079,136.9679 C22.8682,138.1683 23.3484,138.8885 23.3484,141.2893 C23.3484,141.5294 23.3484,141.5294 23.3484,141.7695 C24.5488,141.7695 24.5488,141.7695 24.5488,141.7695 C24.5488,135.5274 24.5488,135.5274 24.5488,135.5274 C21.9079,135.5274 21.9079,135.5274 21.9079,135.5274 Z M25.5091,135.5274 C25.5091,136.9679 25.5091,136.9679 25.5091,136.9679 C26.4695,138.1683 26.9496,138.8885 26.9496,141.2893 C26.9496,141.5294 26.9496,141.5294 26.9496,141.7695 C28.1500,141.7695 28.1500,141.7695 28.1500,141.7695 C28.1500,135.5274 28.1500,135.5274 28.1500,135.5274 C25.5091,135.5274 25.5091,135.5274 25.5091,135.5274 Z M29.3504,135.5274 C29.3504,136.9679 29.3504,136.9679 29.3504,136.9679 C30.0707,138.1683 30.5508,138.8885 30.5508,141.2893 C30.5508,141.5294 30.5508,141.5294 30.5508,141.7695 C31.9913,141.7695 31.9913,141.7695 31.9913,141.7695 C31.9913,135.5274 31.9913,135.5274 31.9913,135.5274 C29.3504,135.5274 29.3504,135.5274 29.3504,135.5274 Z M32.9517,135.5274 C32.9517,136.9679 32.9517,136.9679 32.9517,136.9679 C33.6719,138.1683 34.1521,138.8885 34.1521,141.2893 C34.1521,141.5294 34.1521,141.5294 34.1521,141.7695 C35.5925,141.7695 35.5925,141.7695 35.5925,141.7695 C35.5925,135.5274 35.5925,135.5274 35.5925,135.5274 C32.9517,135.5274 32.9517,135.5274 32.9517,135.5274 Z M36.5529,135.5274 C36.5529,136.9679 36.5529,136.9679 36.5529,136.9679 C37.2731,138.1683 37.9934,138.8885 37.9934,141.2893 C37.9934,141.5294 37.7533,141.5294 37.7533,141.7695 C39.1938,141.7695 39.1938,141.7695 39.1938,141.7695 C39.1938,135.5274 39.1938,135.5274 39.1938,135.5274 C36.5529,135.5274 36.5529,135.5274 36.5529,135.5274 Z M40.1541,135.5274 C40.1541,136.9679 40.1541,136.9679 40.1541,136.9679 C40.8743,138.1683 41.5946,138.8885 41.5946,141.2893 C41.5946,141.5294 41.5946,141.5294 41.5946,141.7695 C42.7950,141.7695 42.7950,141.7695 42.7950,141.7695 C42.7950,135.5274 42.7950,135.5274 42.7950,135.5274 C40.1541,135.5274 40.1541,135.5274 40.1541,135.5274 Z M3.6617,135.5274 C3.6617,136.9679 3.6617,136.9679 3.6617,136.9679 C4.6221,138.1683 5.1022,138.8885 5.1022,141.2893 C5.1022,141.5294 5.1022,141.5294 5.1022,141.7695 C6.5427,141.7695 6.5427,141.7695 6.5427,141.7695 C6.5427,135.5274 6.5427,135.5274 6.5427,135.5274 C3.6617,135.5274 3.6617,135.5274 3.6617,135.5274 Z M7.5030,135.5274 C7.5030,136.9679 7.5030,136.9679 7.5030,136.9679 C8.2233,138.1683 8.7035,138.8885 8.7035,141.2893 C8.7035,141.5294 8.7035,141.5294 8.7035,141.7695 C10.1439,141.7695 10.1439,141.7695 10.1439,141.7695 C10.1439,135.5274 10.1439,135.5274 10.1439,135.5274 C7.5030,135.5274 7.5030,135.5274 7.5030,135.5274 Z M11.1043,135.5274 C11.1043,136.9679 11.1043,136.9679 11.1043,136.9679 C11.8245,138.1683 12.3047,138.8885 12.3047,141.2893 C12.3047,141.5294 12.3047,141.5294 12.3047,141.7695 C13.7452,141.7695 13.7452,141.7695 13.7452,141.7695 C13.7452,135.5274 13.7452,135.5274 13.7452,135.5274 C11.1043,135.5274 11.1043,135.5274 11.1043,135.5274 Z M14.7055,135.5274 C14.7055,136.9679 14.7055,136.9679 14.7055,136.9679 C15.4257,138.1683 16.1460,138.8885 16.1460,141.2893 C16.1460,141.5294 15.9059,141.5294 15.9059,141.7695 C17.3464,141.7695 17.3464,141.7695 17.3464,141.7695 C17.3464,135.5274 17.3464,135.5274 17.3464,135.5274 C14.7055,135.5274 14.7055,135.5274 14.7055,135.5274 Z M18.3067,112.2395 C18.3067,113.6800 18.3067,113.6800 18.3067,113.6800 C19.0269,114.8804 19.7472,115.6006 19.7472,118.0014 C19.7472,118.2415 19.7472,118.4816 19.7472,118.4816 C20.9476,118.4816 20.9476,118.4816 20.9476,118.4816 C20.9476,112.2395 20.9476,112.2395 20.9476,112.2395 C18.3067,112.2395 18.3067,112.2395 18.3067,112.2395 Z M21.9079,112.2395 C21.9079,113.6800 21.9079,113.6800 21.9079,113.6800 C22.8682,114.8804 23.3484,115.6006 23.3484,118.0014 C23.3484,118.2415 23.3484,118.4816 23.3484,118.4816 C24.5488,118.4816 24.5488,118.4816 24.5488,118.4816 C24.5488,112.2395 24.5488,112.2395 24.5488,112.2395 C21.9079,112.2395 21.9079,112.2395 21.9079,112.2395 Z M25.5091,112.2395 C25.5091,113.6800 25.5091,113.6800 25.5091,113.6800 C26.4695,114.8804 26.9496,115.6006 26.9496,118.0014 C26.9496,118.2415 26.9496,118.4816 26.9496,118.4816 C28.1500,118.4816 28.1500,118.4816 28.1500,118.4816 C28.1500,112.2395 28.1500,112.2395 28.1500,112.2395 C25.5091,112.2395 25.5091,112.2395 25.5091,112.2395 Z M29.3504,112.2395 C29.3504,113.6800 29.3504,113.6800 29.3504,113.6800 C30.0707,114.8804 30.5508,115.6006 30.5508,118.0014 C30.5508,118.2415 30.5508,118.4816 30.5508,118.4816 C31.9913,118.4816 31.9913,118.4816 31.9913,118.4816 C31.9913,112.2395 31.9913,112.2395 31.9913,112.2395 C29.3504,112.2395 29.3504,112.2395 29.3504,112.2395 Z M32.9517,112.2395 C32.9517,113.6800 32.9517,113.6800 32.9517,113.6800 C33.6719,114.8804 34.1521,115.6006 34.1521,118.0014 C34.1521,118.2415 34.1521,118.4816 34.1521,118.4816 C35.5925,118.4816 35.5925,118.4816 35.5925,118.4816 C35.5925,112.2395 35.5925,112.2395 35.5925,112.2395 C32.9517,112.2395 32.9517,112.2395 32.9517,112.2395 Z M36.5529,112.2395 C36.5529,113.6800 36.5529,113.6800 36.5529,113.6800 C37.2731,114.8804 37.9934,115.6006 37.9934,118.0014 C37.9934,118.2415 37.7533,118.4816 37.7533,118.4816 C39.1938,118.4816 39.1938,118.4816 39.1938,118.4816 C39.1938,112.2395 39.1938,112.2395 39.1938,112.2395 C36.5529,112.2395 36.5529,112.2395 36.5529,112.2395 Z M40.1541,112.2395 C40.1541,113.6800 40.1541,113.6800 40.1541,113.6800 C40.8743,114.8804 41.5946,115.6006 41.5946,118.0014 C41.5946,118.2415 41.5946,118.4816 41.5946,118.4816 C42.7950,118.4816 42.7950,118.4816 42.7950,118.4816 C42.7950,112.2395 42.7950,112.2395 42.7950,112.2395 C40.1541,112.2395 40.1541,112.2395 40.1541,112.2395 Z M3.6617,112.2395 C3.6617,113.6800 3.6617,113.6800 3.6617,113.6800 C4.6221,114.8804 5.1022,115.6006 5.1022,118.0014 C5.1022,118.2415 5.1022,118.4816 5.1022,118.4816 C6.5427,118.4816 6.5427,118.4816 6.5427,118.4816 C6.5427,112.2395 6.5427,112.2395 6.5427,112.2395 C3.6617,112.2395 3.6617,112.2395 3.6617,112.2395 Z M7.5030,112.2395 C7.5030,113.6800 7.5030,113.6800 7.5030,113.6800 C8.2233,114.8804 8.7035,115.6006 8.7035,118.0014 C8.7035,118.2415 8.7035,118.4816 8.7035,118.4816 C10.1439,118.4816 10.1439,118.4816 10.1439,118.4816 C10.1439,112.2395 10.1439,112.2395 10.1439,112.2395 C7.5030,112.2395 7.5030,112.2395 7.5030,112.2395 Z M11.1043,112.2395 C11.1043,113.6800 11.1043,113.6800 11.1043,113.6800 C11.8245,114.8804 12.3047,115.6006 12.3047,118.0014 C12.3047,118.2415 12.3047,118.4816 12.3047,118.4816 C13.7452,118.4816 13.7452,118.4816 13.7452,118.4816 C13.7452,112.2395 13.7452,112.2395 13.7452,112.2395 C11.1043,112.2395 11.1043,112.2395 11.1043,112.2395 Z M14.7055,112.2395 C14.7055,113.6800 14.7055,113.6800 14.7055,113.6800 C15.4257,114.8804 16.1460,115.6006 16.1460,118.0014 C16.1460,118.2415 15.9059,118.4816 15.9059,118.4816 C17.3464,118.4816 17.3464,118.4816 17.3464,118.4816 C17.3464,112.2395 17.3464,112.2395 17.3464,112.2395 C14.7055,112.2395 14.7055,112.2395 14.7055,112.2395 Z" style="fill-rule: evenodd; fill: #8275a3; "/>
    <text xmlns="http://www.w3.org/2000/svg" x="6.9474" y="177.3343">
      <tspan font-family="Arial" font-size="4.5000" fill="#000000" fill-opacity="1.0000" stroke-opacity="1.0000">
FAS900 Series</tspan>
    </text>
    <!--converted by libvisio2svg-->
  </g>
</svg>
