<svg xmlns="http://www.w3.org/2000/svg" xmlns:xlink="http://www.w3.org/1999/xlink" version="1.1" width="43.2000000000" height="7.2000000000">
  <title><![CDATA[FAS900 w/FC Storage]]></title>
  <g transform=" scale(1.000000) ">
    <path xmlns="http://www.w3.org/2000/svg" d="  M43.2440,-4.5036 L0.0122,-4.5036 L0.0122,7.2000 L43.2440,7.2000 L43.2440,-4.5036 Z M43.2440,-16.0878 L0.0122,-16.0878 L0.0122,-4.5036 L43.2440,-4.5036 L43.2440,-16.0878 Z" style="fill-rule: evenodd; fill: #171868; "/>
    <path xmlns="http://www.w3.org/2000/svg" d="  M42.1692,-39.6145 C1.0871,-39.6145 1.0871,-39.6145 1.0871,-39.6145 C1.0871,-39.6145 0.0122,-33.8821 0.0122,-30.7771 C0.0122,-27.5526 0.3705,-24.6864 1.0871,-22.6562 C1.0871,-16.0878 1.0871,-16.0878 1.0871,-16.0878 C42.1692,-16.0878 42.1692,-16.0878 42.1692,-16.0878 C42.1692,-22.6562 42.1692,-22.6562 42.1692,-22.6562 C42.8857,-24.6864 43.2440,-27.5526 43.2440,-30.7771 C43.2440,-33.8821 42.1692,-39.6145 42.1692,-39.6145 Z" style="fill-rule: evenodd; fill: #3f387c; "/>
    <path xmlns="http://www.w3.org/2000/svg" d="  M40.1390,-37.4649 C40.1390,-37.4649 38.2282,-37.8231 35.1231,-37.7037 C32.3764,-37.5843 29.5102,-36.8677 29.5102,-36.8677 C29.5102,-36.8677 19.8368,-37.8231 15.4180,-37.8231 C10.9993,-37.8231 3.1173,-37.4649 3.1173,-37.4649 C3.1173,-37.4649 2.1619,-33.2850 2.1619,-30.4188 C2.1619,-27.5526 2.5202,-23.8504 3.1173,-22.0591 C3.1173,-22.0591 8.2526,-20.8648 18.0454,-20.8648 C24.6137,-20.8648 31.8987,-23.2533 31.8987,-23.2533 C40.1390,-23.2533 40.1390,-23.2533 40.1390,-23.2533 C40.7361,-25.0447 41.0944,-27.5526 41.0944,-30.4188 C41.0944,-33.2850 40.1390,-37.4649 40.1390,-37.4649 Z" style="fill-rule: evenodd; fill: #171868; "/>
    <path xmlns="http://www.w3.org/2000/svg" d="  M37.3922,-26.7166 C37.7505,-27.7915 37.8699,-29.3440 37.8699,-30.8965 C37.8699,-32.5684 37.7505,-34.0015 37.3922,-35.0764 M35.6008,-26.7166 C35.8397,-27.7915 36.0785,-29.3440 36.0785,-30.8965 C36.0785,-32.5684 35.8397,-34.0015 35.6008,-35.0764 M31.3015,-25.8807 C31.6598,-27.0749 31.8987,-28.7469 31.8987,-30.5382 C31.8987,-32.3296 31.6598,-33.8821 31.3015,-35.0764 M28.9130,-25.5224 C29.2713,-26.7166 29.5102,-28.5080 29.5102,-30.2994 C29.5102,-32.2102 29.2713,-33.8821 28.9130,-35.0764 M26.5245,-25.1641 C26.8828,-26.4778 27.1217,-28.2692 27.1217,-30.1799 C27.1217,-32.0907 26.8828,-33.8821 26.5245,-35.0764 M24.1360,-24.8058 C24.4943,-26.1195 24.7332,-28.0303 24.7332,-29.9411 C24.7332,-31.9713 24.4943,-33.7627 24.1360,-35.0764 M21.7475,-24.4476 C22.1058,-25.8807 22.3447,-27.7915 22.3447,-29.8217 C22.3447,-31.8519 22.1058,-33.7627 21.7475,-35.0764 M19.3591,-24.2087 C19.7173,-25.5224 19.9562,-27.4332 19.9562,-29.5828 C19.9562,-31.7325 19.7173,-33.6433 19.3591,-35.0764 M16.8511,-23.8504 C17.3288,-25.2835 17.5677,-27.1943 17.5677,-29.4634 C17.5677,-31.6130 17.3288,-33.6433 16.8511,-35.0764 M14.4626,-23.4922 C14.9403,-24.9253 15.1792,-26.9555 15.1792,-29.3440 C15.1792,-31.6130 14.9403,-33.6433 14.4626,-35.0764 M12.3130,-23.6116 C12.7907,-25.0447 13.0295,-27.0749 13.0295,-29.3440 C13.0295,-31.6130 12.7907,-33.6433 12.3130,-35.0764 M10.1633,-23.7310 C10.6410,-25.1641 10.8799,-27.1943 10.8799,-29.3440 C10.8799,-31.6130 10.6410,-33.6433 10.1633,-35.0764 M8.0137,-23.8504 C8.3720,-25.2835 8.7303,-27.1943 8.7303,-29.4634 C8.7303,-31.6130 8.3720,-33.6433 8.0137,-35.0764 M5.8641,-23.8504 C6.2223,-25.2835 6.4612,-27.3138 6.4612,-29.4634 C6.4612,-31.7325 6.2223,-33.6433 5.8641,-35.0764 M33.8095,-26.7166 C34.0483,-27.7915 34.2871,-29.3440 34.2871,-30.8965 C34.2871,-32.5684 34.0483,-34.0015 33.8095,-35.0764" style="stroke-width: 0.0591; stroke: #ffffff; stroke-dasharray: none; stroke-linecap: round; stroke-linejoin: round; fill: none; "/>
    <path xmlns="http://www.w3.org/2000/svg" d="  M40.2584,-19.4317 L33.9289,-19.4317 L33.9289,-20.9842 L40.2584,-20.9842 L40.2584,-19.4317 Z" style="fill-rule: evenodd; fill: #ffffff; "/>
    <path xmlns="http://www.w3.org/2000/svg" d="  M42.1692,-39.6145 L1.0871,-39.6145 L3.2367,-42.7195 L40.0195,-42.7195 L42.1692,-39.6145 Z" style="fill-rule: evenodd; fill: #988db1; "/>
    <path xmlns="http://www.w3.org/2000/svg" d="  M16.6123,-14.5353 C16.6123,-12.9828 16.6123,-12.9828 16.6123,-12.9828 C17.4483,-11.6691 18.0454,-10.9526 18.0454,-8.6835 C18.0454,-8.4446 17.9260,-8.3252 17.9260,-8.0864 C19.3591,-8.0864 19.3591,-8.0864 19.3591,-8.0864 C19.3591,-14.5353 19.3591,-14.5353 19.3591,-14.5353 C16.6123,-14.5353 16.6123,-14.5353 16.6123,-14.5353 Z M20.3145,-14.5353 C20.3145,-12.9828 20.3145,-12.9828 20.3145,-12.9828 C21.1504,-11.6691 21.6281,-10.9526 21.6281,-8.6835 C21.6281,-8.4446 21.6281,-8.3252 21.6281,-8.0864 C22.9418,-8.0864 22.9418,-8.0864 22.9418,-8.0864 C22.9418,-14.5353 22.9418,-14.5353 22.9418,-14.5353 C20.3145,-14.5353 20.3145,-14.5353 20.3145,-14.5353 Z M23.8972,-14.5353 C23.8972,-12.9828 23.8972,-12.9828 23.8972,-12.9828 C24.7332,-11.6691 25.3303,-10.9526 25.3303,-8.6835 C25.3303,-8.4446 25.3303,-8.3252 25.2109,-8.0864 C26.6440,-8.0864 26.6440,-8.0864 26.6440,-8.0864 C26.6440,-14.5353 26.6440,-14.5353 26.6440,-14.5353 C23.8972,-14.5353 23.8972,-14.5353 23.8972,-14.5353 Z M27.5994,-14.5353 C27.5994,-12.9828 27.5994,-12.9828 27.5994,-12.9828 C28.4353,-11.6691 28.9130,-10.9526 28.9130,-8.6835 C28.9130,-8.4446 28.9130,-8.3252 28.9130,-8.0864 C30.2267,-8.0864 30.2267,-8.0864 30.2267,-8.0864 C30.2267,-14.5353 30.2267,-14.5353 30.2267,-14.5353 C27.5994,-14.5353 27.5994,-14.5353 27.5994,-14.5353 Z M31.1821,-14.5353 C31.1821,-12.9828 31.1821,-12.9828 31.1821,-12.9828 C32.0181,-11.6691 32.6152,-10.9526 32.6152,-8.6835 C32.6152,-8.4446 32.6152,-8.3252 32.6152,-8.0864 C33.9289,-8.0864 33.9289,-8.0864 33.9289,-8.0864 C33.9289,-14.5353 33.9289,-14.5353 33.9289,-14.5353 C31.1821,-14.5353 31.1821,-14.5353 31.1821,-14.5353 Z M34.8843,-14.5353 C34.8843,-12.9828 34.8843,-12.9828 34.8843,-12.9828 C35.7202,-11.6691 36.1979,-10.9526 36.1979,-8.6835 C36.1979,-8.4446 36.1979,-8.3252 36.1979,-8.0864 C37.5116,-8.0864 37.5116,-8.0864 37.5116,-8.0864 C37.5116,-14.5353 37.5116,-14.5353 37.5116,-14.5353 C34.8843,-14.5353 34.8843,-14.5353 34.8843,-14.5353 Z M38.5864,-14.5353 C38.5864,-12.9828 38.5864,-12.9828 38.5864,-12.9828 C39.3030,-11.6691 39.9001,-10.9526 39.9001,-8.6835 C39.9001,-8.4446 39.9001,-8.3252 39.9001,-8.0864 C41.2138,-8.0864 41.2138,-8.0864 41.2138,-8.0864 C41.2138,-14.5353 41.2138,-14.5353 41.2138,-14.5353 C38.5864,-14.5353 38.5864,-14.5353 38.5864,-14.5353 Z M2.0425,-14.5353 C2.0425,-12.9828 2.0425,-12.9828 2.0425,-12.9828 C2.8784,-11.6691 3.3561,-10.9526 3.3561,-8.6835 C3.3561,-8.4446 3.3561,-8.3252 3.3561,-8.0864 C4.6698,-8.0864 4.6698,-8.0864 4.6698,-8.0864 C4.6698,-14.5353 4.6698,-14.5353 4.6698,-14.5353 C2.0425,-14.5353 2.0425,-14.5353 2.0425,-14.5353 Z M5.7446,-14.5353 C5.7446,-12.9828 5.7446,-12.9828 5.7446,-12.9828 C6.5806,-11.6691 7.0583,-10.9526 7.0583,-8.6835 C7.0583,-8.4446 7.0583,-8.3252 7.0583,-8.0864 C8.3720,-8.0864 8.3720,-8.0864 8.3720,-8.0864 C8.3720,-14.5353 8.3720,-14.5353 8.3720,-14.5353 C5.7446,-14.5353 5.7446,-14.5353 5.7446,-14.5353 Z M9.3274,-14.5353 C9.3274,-12.9828 9.3274,-12.9828 9.3274,-12.9828 C10.1633,-11.6691 10.7605,-10.9526 10.7605,-8.6835 C10.7605,-8.4446 10.6410,-8.3252 10.6410,-8.0864 C12.0741,-8.0864 12.0741,-8.0864 12.0741,-8.0864 C12.0741,-14.5353 12.0741,-14.5353 12.0741,-14.5353 C9.3274,-14.5353 9.3274,-14.5353 9.3274,-14.5353 Z M13.0295,-14.5353 C13.0295,-12.9828 13.0295,-12.9828 13.0295,-12.9828 C13.8655,-11.6691 14.3432,-10.9526 14.3432,-8.6835 C14.3432,-8.4446 14.3432,-8.3252 14.3432,-8.0864 C15.6569,-8.0864 15.6569,-8.0864 15.6569,-8.0864 C15.6569,-14.5353 15.6569,-14.5353 15.6569,-14.5353 C13.0295,-14.5353 13.0295,-14.5353 13.0295,-14.5353 Z M16.6123,-2.8317 C16.6123,-1.3986 16.6123,-1.3986 16.6123,-1.3986 C17.4483,-0.0849 18.0454,0.7511 18.0454,3.0201 C18.0454,3.1396 17.9260,3.3784 17.9260,3.6173 C19.3591,3.6173 19.3591,3.6173 19.3591,3.6173 C19.3591,-2.8317 19.3591,-2.8317 19.3591,-2.8317 C16.6123,-2.8317 16.6123,-2.8317 16.6123,-2.8317 Z M20.3145,-2.8317 C20.3145,-1.3986 20.3145,-1.3986 20.3145,-1.3986 C21.1504,-0.0849 21.6281,0.7511 21.6281,3.0201 C21.6281,3.1396 21.6281,3.3784 21.6281,3.6173 C22.9418,3.6173 22.9418,3.6173 22.9418,3.6173 C22.9418,-2.8317 22.9418,-2.8317 22.9418,-2.8317 C20.3145,-2.8317 20.3145,-2.8317 20.3145,-2.8317 Z M23.8972,-2.8317 C23.8972,-1.3986 23.8972,-1.3986 23.8972,-1.3986 C24.7332,-0.0849 25.3303,0.7511 25.3303,3.0201 C25.3303,3.1396 25.3303,3.3784 25.2109,3.6173 C26.6440,3.6173 26.6440,3.6173 26.6440,3.6173 C26.6440,-2.8317 26.6440,-2.8317 26.6440,-2.8317 C23.8972,-2.8317 23.8972,-2.8317 23.8972,-2.8317 Z M27.5994,-2.8317 C27.5994,-1.3986 27.5994,-1.3986 27.5994,-1.3986 C28.4353,-0.0849 28.9130,0.7511 28.9130,3.0201 C28.9130,3.1396 28.9130,3.3784 28.9130,3.6173 C30.2267,3.6173 30.2267,3.6173 30.2267,3.6173 C30.2267,-2.8317 30.2267,-2.8317 30.2267,-2.8317 C27.5994,-2.8317 27.5994,-2.8317 27.5994,-2.8317 Z M31.1821,-2.8317 C31.1821,-1.3986 31.1821,-1.3986 31.1821,-1.3986 C32.0181,-0.0849 32.6152,0.7511 32.6152,3.0201 C32.6152,3.1396 32.6152,3.3784 32.6152,3.6173 C33.9289,3.6173 33.9289,3.6173 33.9289,3.6173 C33.9289,-2.8317 33.9289,-2.8317 33.9289,-2.8317 C31.1821,-2.8317 31.1821,-2.8317 31.1821,-2.8317 Z M34.8843,-2.8317 C34.8843,-1.3986 34.8843,-1.3986 34.8843,-1.3986 C35.7202,-0.0849 36.1979,0.7511 36.1979,3.0201 C36.1979,3.1396 36.1979,3.3784 36.1979,3.6173 C37.5116,3.6173 37.5116,3.6173 37.5116,3.6173 C37.5116,-2.8317 37.5116,-2.8317 37.5116,-2.8317 C34.8843,-2.8317 34.8843,-2.8317 34.8843,-2.8317 Z M38.5864,-2.8317 C38.5864,-1.3986 38.5864,-1.3986 38.5864,-1.3986 C39.3030,-0.0849 39.9001,0.7511 39.9001,3.0201 C39.9001,3.1396 39.9001,3.3784 39.9001,3.6173 C41.2138,3.6173 41.2138,3.6173 41.2138,3.6173 C41.2138,-2.8317 41.2138,-2.8317 41.2138,-2.8317 C38.5864,-2.8317 38.5864,-2.8317 38.5864,-2.8317 Z M2.0425,-2.8317 C2.0425,-1.3986 2.0425,-1.3986 2.0425,-1.3986 C2.8784,-0.0849 3.3561,0.7511 3.3561,3.0201 C3.3561,3.1396 3.3561,3.3784 3.3561,3.6173 C4.6698,3.6173 4.6698,3.6173 4.6698,3.6173 C4.6698,-2.8317 4.6698,-2.8317 4.6698,-2.8317 C2.0425,-2.8317 2.0425,-2.8317 2.0425,-2.8317 Z M5.7446,-2.8317 C5.7446,-1.3986 5.7446,-1.3986 5.7446,-1.3986 C6.5806,-0.0849 7.0583,0.7511 7.0583,3.0201 C7.0583,3.1396 7.0583,3.3784 7.0583,3.6173 C8.3720,3.6173 8.3720,3.6173 8.3720,3.6173 C8.3720,-2.8317 8.3720,-2.8317 8.3720,-2.8317 C5.7446,-2.8317 5.7446,-2.8317 5.7446,-2.8317 Z M9.3274,-2.8317 C9.3274,-1.3986 9.3274,-1.3986 9.3274,-1.3986 C10.1633,-0.0849 10.7605,0.7511 10.7605,3.0201 C10.7605,3.1396 10.6410,3.3784 10.6410,3.6173 C12.0741,3.6173 12.0741,3.6173 12.0741,3.6173 C12.0741,-2.8317 12.0741,-2.8317 12.0741,-2.8317 C9.3274,-2.8317 9.3274,-2.8317 9.3274,-2.8317 Z M13.0295,-2.8317 C13.0295,-1.3986 13.0295,-1.3986 13.0295,-1.3986 C13.8655,-0.0849 14.3432,0.7511 14.3432,3.0201 C14.3432,3.1396 14.3432,3.3784 14.3432,3.6173 C15.6569,3.6173 15.6569,3.6173 15.6569,3.6173 C15.6569,-2.8317 15.6569,-2.8317 15.6569,-2.8317 C13.0295,-2.8317 13.0295,-2.8317 13.0295,-2.8317 Z" style="fill-rule: evenodd; fill: #8275a3; "/>
    <path xmlns="http://www.w3.org/2000/svg" d="  M43.2440,-4.5036 L0.0122,-4.5036 L0.0122,7.2000 L43.2440,7.2000 L43.2440,-4.5036 Z M43.2440,-16.0878 L0.0122,-16.0878 L0.0122,-4.5036 L43.2440,-4.5036 L43.2440,-16.0878 Z M42.1692,-39.6145 L1.0871,-39.6145 L3.2367,-42.7195 L40.0195,-42.7195 L42.1692,-39.6145 Z" style="stroke-width: 0.0240; stroke: #ffffff; stroke-dasharray: none; stroke-linecap: round; stroke-linejoin: round; fill: none; "/>
    <text xmlns="http://www.w3.org/2000/svg" x="-1.0618" y="12.4200">
      <tspan font-family="Arial" font-size="4.5000" fill="#000000" fill-opacity="1.0000" stroke-opacity="1.0000">
FAS900 w/FC Storage</tspan>
    </text>
    <!--converted by libvisio2svg-->
  </g>
</svg>
