<svg xmlns="http://www.w3.org/2000/svg" xmlns:xlink="http://www.w3.org/1999/xlink" version="1.1" width="28.8000000000" height="7.2000000000">
  <title><![CDATA[FAS900 Series]]></title>
  <g transform=" scale(1.000000) ">
    <path xmlns="http://www.w3.org/2000/svg" d="  M36.8169,-15.8127 C-4.3008,-15.8127 -4.3008,-15.8127 -4.3008,-15.8127 C-4.3008,-15.8127 -5.3461,-10.1212 -5.3461,-6.9851 C-5.3461,-3.7329 -4.8815,-0.9452 -4.3008,1.1455 C-4.3008,7.6500 -4.3008,7.6500 -4.3008,7.6500 C36.8169,7.6500 36.8169,7.6500 36.8169,7.6500 C36.8169,1.1455 36.8169,1.1455 36.8169,1.1455 C37.3977,-0.9452 37.7461,-3.7329 37.7461,-6.9851 C37.7461,-10.1212 36.8169,-15.8127 36.8169,-15.8127 Z" style="fill-rule: evenodd; fill: #3f387c; "/>
    <path xmlns="http://www.w3.org/2000/svg" d="  M34.7262,-13.6058 C34.7262,-13.6058 32.7516,-13.9542 29.7317,-13.9542 C26.9440,-13.8381 24.0402,-13.1412 24.0402,-13.1412 C24.0402,-13.1412 14.5158,-13.9542 10.1020,-13.9542 C5.6883,-13.9542 -2.2101,-13.6058 -2.2101,-13.6058 C-2.2101,-13.6058 -3.1393,-9.5405 -3.1393,-6.6367 C-3.1393,-3.8490 -2.7908,-0.1322 -2.2101,1.7263 C-2.2101,1.7263 2.9006,2.8878 12.6574,2.8878 C19.1619,2.8878 26.5956,0.5647 26.5956,0.5647 C34.7262,0.5647 34.7262,0.5647 34.7262,0.5647 C35.3070,-1.1775 35.6554,-3.8490 35.6554,-6.6367 C35.6554,-9.5405 34.7262,-13.6058 34.7262,-13.6058 Z" style="fill-rule: evenodd; fill: #171868; "/>
    <path xmlns="http://www.w3.org/2000/svg" d="  M32.0547,-2.9198 C32.2870,-4.0813 32.5193,-5.4751 32.5193,-7.1013 C32.5193,-8.7274 32.2870,-10.2374 32.0547,-11.2827 M30.1963,-2.9198 C30.5447,-4.0813 30.6609,-5.4751 30.6609,-7.1013 C30.6609,-8.7274 30.5447,-10.2374 30.1963,-11.2827 M25.8987,-2.1067 C26.2471,-3.2683 26.4794,-4.8944 26.4794,-6.7528 C26.4794,-8.4951 26.2471,-10.1212 25.8987,-11.2827 M23.5756,-1.7583 C23.9241,-3.0360 24.0402,-4.6621 24.0402,-6.5205 C24.0402,-8.3789 23.9241,-10.1212 23.5756,-11.2827 M21.1364,-1.4098 C21.4849,-2.6875 21.7172,-4.4298 21.7172,-6.4044 C21.7172,-8.2628 21.4849,-10.0051 21.1364,-11.2827 M18.6973,-1.0614 C19.0457,-2.3391 19.2780,-4.1975 19.2780,-6.1721 C19.2780,-8.1466 19.0457,-10.0051 18.6973,-11.2827 M16.3742,-0.7129 C16.7227,-2.1067 16.9550,-3.9652 16.9550,-6.0559 C16.9550,-8.1466 16.7227,-10.0051 16.3742,-11.2827 M13.9350,-0.3645 C14.2835,-1.7583 14.5158,-3.7329 14.5158,-5.8236 C14.5158,-8.0305 14.2835,-9.8889 13.9350,-11.2827 M11.4959,-0.0160 C11.9605,-1.5260 12.1928,-3.5006 12.1928,-5.7075 C12.1928,-7.9143 11.9605,-9.8889 11.4959,-11.2827 M9.1728,0.3324 C9.5213,-1.1775 9.7536,-3.2683 9.7536,-5.4751 C9.7536,-7.7982 9.5213,-9.7728 9.1728,-11.2827 M6.9659,0.2163 C7.3144,-1.2937 7.6628,-3.2683 7.6628,-5.5913 C7.6628,-7.7982 7.3144,-9.8889 6.9659,-11.2827 M4.8752,0.1001 C5.2237,-1.4098 5.4560,-3.3844 5.4560,-5.5913 C5.4560,-7.7982 5.2237,-9.8889 4.8752,-11.2827 M2.6683,-0.0160 C3.0168,-1.4098 3.2491,-3.5006 3.2491,-5.7075 C3.2491,-7.9143 3.0168,-9.8889 2.6683,-11.2827 M0.5776,-0.1322 C0.9260,-1.5260 1.1583,-3.5006 1.1583,-5.7075 C1.1583,-7.9143 0.9260,-9.8889 0.5776,-11.2827 M28.4540,-2.9198 C28.6863,-4.0813 28.9186,-5.4751 28.9186,-7.1013 C28.9186,-8.7274 28.6863,-10.2374 28.4540,-11.2827" style="stroke-width: 0.0591; stroke: #ffffff; stroke-dasharray: none; stroke-linecap: round; stroke-linejoin: round; fill: none; "/>
    <path xmlns="http://www.w3.org/2000/svg" d="  M34.8424,4.3978 L28.5702,4.3978 L28.5702,2.7716 L34.8424,2.7716 L34.8424,4.3978 Z" style="fill-rule: evenodd; fill: #ffffff; "/>
    <path xmlns="http://www.w3.org/2000/svg" d="  M36.8169,-15.8127 L-4.3008,-15.8127 L-2.0939,-18.9487 L34.6101,-18.9487 L36.8169,-15.8127 Z" style="fill-rule: evenodd; fill: #988db1; "/>
    <path xmlns="http://www.w3.org/2000/svg" d="  M36.8169,-15.8127 L-4.3008,-15.8127 L-2.0939,-18.9487 L34.6101,-18.9487 L36.8169,-15.8127 Z" style="stroke-width: 0.0240; stroke: #ffffff; stroke-dasharray: none; stroke-linecap: round; stroke-linejoin: round; fill: none; "/>
    <text xmlns="http://www.w3.org/2000/svg" x="0.6174" y="13.7700">
      <tspan font-family="Arial" font-size="4.5000" fill="#000000" fill-opacity="1.0000" stroke-opacity="1.0000">
FAS900 Series</tspan>
    </text>
    <!--converted by libvisio2svg-->
  </g>
</svg>
