<svg xmlns="http://www.w3.org/2000/svg" xmlns:xlink="http://www.w3.org/1999/xlink" version="1.1" width="28.8000000000" height="7.2000000000">
  <title><![CDATA[FAS900 rackmount]]></title>
  <g transform=" scale(1.000000) ">
    <path xmlns="http://www.w3.org/2000/svg" d="  M36.6250,-15.2843 C-4.5067,-15.2843 -4.5067,-15.2843 -4.5067,-15.2843 C-4.5067,-15.2843 -5.5524,-9.5910 -5.5524,-6.4538 C-5.5524,-3.2005 -5.0876,-0.4119 -4.5067,1.6796 C-4.5067,8.1862 -4.5067,8.1862 -4.5067,8.1862 C36.6250,8.1863 36.6250,8.1863 36.6250,8.1863 C36.6250,1.6796 36.6250,1.6796 36.6250,1.6796 C37.2059,-0.4119 37.5545,-3.2005 37.5545,-6.4538 C37.5545,-9.5910 36.6250,-15.2843 36.6250,-15.2843 Z" style="fill-rule: evenodd; fill: #3f387c; "/>
    <path xmlns="http://www.w3.org/2000/svg" d="  M34.5335,-13.0767 C34.5335,-13.0767 32.5583,-13.4253 29.5373,-13.4253 C26.7487,-13.3091 23.8440,-12.6119 23.8440,-12.6119 C23.8440,-12.6119 14.3163,-13.4253 9.9010,-13.4253 C5.4858,-13.4253 -2.4152,-13.0767 -2.4152,-13.0767 C-2.4152,-13.0767 -3.3448,-9.0100 -3.3448,-6.1052 C-3.3448,-3.3167 -2.9962,0.4014 -2.4152,2.2605 C-2.4152,2.2605 2.6972,3.4224 12.4572,3.4224 C18.9639,3.4224 26.4002,1.0986 26.4002,1.0986 C34.5335,1.0986 34.5335,1.0986 34.5335,1.0986 C35.1145,-0.6443 35.4631,-3.3167 35.4631,-6.1052 C35.4631,-9.0100 34.5335,-13.0767 34.5335,-13.0767 Z" style="fill-rule: evenodd; fill: #171868; "/>
    <path xmlns="http://www.w3.org/2000/svg" d="  M31.8611,-2.3871 C32.0935,-3.5490 32.3259,-4.9433 32.3259,-6.5700 C32.3259,-8.1967 32.0935,-9.7072 31.8611,-10.7529 M30.0021,-2.3871 C30.3507,-3.5490 30.4668,-4.9433 30.4668,-6.5700 C30.4668,-8.1967 30.3507,-9.7072 30.0021,-10.7529 M25.7030,-1.5738 C26.0516,-2.7357 26.2840,-4.3624 26.2840,-6.2214 C26.2840,-7.9643 26.0516,-9.5910 25.7030,-10.7529 M23.3792,-1.2252 C23.7278,-2.5033 23.8440,-4.1300 23.8440,-5.9891 C23.8440,-7.8481 23.7278,-9.5910 23.3792,-10.7529 M20.9392,-0.8767 C21.2878,-2.1548 21.5201,-3.8976 21.5201,-5.8729 C21.5201,-7.7319 21.2878,-9.4748 20.9392,-10.7529 M18.4992,-0.5281 C18.8477,-1.8062 19.0801,-3.6652 19.0801,-5.6405 C19.0801,-7.6157 18.8477,-9.4748 18.4992,-10.7529 M16.1753,-0.1795 C16.5239,-1.5738 16.7563,-3.4329 16.7563,-5.5243 C16.7563,-7.6157 16.5239,-9.4748 16.1753,-10.7529 M13.7353,0.1691 C14.0839,-1.2252 14.3163,-3.2005 14.3163,-5.2919 C14.3163,-7.4995 14.0839,-9.3586 13.7353,-10.7529 M11.2953,0.5176 C11.7601,-0.9928 11.9925,-2.9681 11.9925,-5.1757 C11.9925,-7.3834 11.7601,-9.3586 11.2953,-10.7529 M8.9715,0.8662 C9.3201,-0.6443 9.5525,-2.7357 9.5525,-4.9433 C9.5525,-7.2672 9.3201,-9.2424 8.9715,-10.7529 M6.7639,0.7500 C7.1124,-0.7605 7.4610,-2.7357 7.4610,-5.0595 C7.4610,-7.2672 7.1124,-9.3586 6.7639,-10.7529 M4.6724,0.6338 C5.0210,-0.8767 5.2534,-2.8519 5.2534,-5.0595 C5.2534,-7.2672 5.0210,-9.3586 4.6724,-10.7529 M2.4648,0.5176 C2.8134,-0.8767 3.0458,-2.9681 3.0458,-5.1757 C3.0458,-7.3834 2.8134,-9.3586 2.4648,-10.7529 M0.3734,0.4014 C0.7219,-0.9928 0.9543,-2.9681 0.9543,-5.1757 C0.9543,-7.3834 0.7219,-9.3586 0.3734,-10.7529 M28.2592,-2.3871 C28.4916,-3.5490 28.7240,-4.9433 28.7240,-6.5700 C28.7240,-8.1967 28.4916,-9.7072 28.2592,-10.7529" style="stroke-width: 0.0591; stroke: #ffffff; stroke-dasharray: none; stroke-linecap: round; stroke-linejoin: round; fill: none; "/>
    <path xmlns="http://www.w3.org/2000/svg" d="  M34.6497,4.9329 L28.3754,4.9329 L28.3754,3.3062 L34.6497,3.3062 L34.6497,4.9329 Z" style="fill-rule: evenodd; fill: #ffffff; "/>
    <!--converted by libvisio2svg-->
  </g>
</svg>
