<svg xmlns="http://www.w3.org/2000/svg" xmlns:xlink="http://www.w3.org/1999/xlink" version="1.1" width="43.2000000000" height="7.2000000000">
  <title><![CDATA[FC Storage Shelf]]></title>
  <g transform=" scale(1.000000) ">
    <g xmlns="http://www.w3.org/2000/svg" id="Layer1015">
      <path d="  M43.2281,-4.2958 L0.0281,-4.2958 L1.7881,-6.9945 L41.3081,-6.9945 L43.2281,-4.2958 Z" style="stroke-width: 0.0240; stroke-linecap: round; stroke-linejoin: round; fill-rule: evenodd; fill: #988db1; "/>
      <path d="  M43.2281,-4.2958 L0.0281,-4.2958 L1.7881,-6.9945 L41.3081,-6.9945 L43.2281,-4.2958 Z" style="stroke-width: 0.0240; stroke: #ffffff; stroke-dasharray: none; stroke-linecap: round; stroke-linejoin: round; fill: none; "/>
    </g>
    <g xmlns="http://www.w3.org/2000/svg" id="Layer1016">
      <path d="  M43.2354,7.2281 L43.2354,-4.2958 L0.0208,-4.2958 L0.0208,7.2281 L43.2354,7.2281 Z" style="stroke-width: 0.0240; stroke-linecap: round; stroke-linejoin: round; fill-rule: evenodd; fill: #171868; "/>
      <path d="  M43.2354,7.2281 L43.2354,-4.2958 L0.0208,-4.2958 L0.0208,7.2281 L43.2354,7.2281 Z" style="stroke-width: 0.0240; stroke: #ffffff; stroke-dasharray: none; stroke-linecap: round; stroke-linejoin: round; fill: none; "/>
    </g>
    <path xmlns="http://www.w3.org/2000/svg" d="  M1.6922,-2.8971 C1.6922,-1.5341 1.6922,-1.5341 1.6922,-1.5341 C2.4711,-0.1711 3.0553,0.6078 3.0553,2.9444 C3.0553,3.1391 3.0553,3.3338 3.0553,3.5285 C4.4183,3.5285 4.4183,3.5285 4.4183,3.5285 C4.4183,-2.8971 4.4183,-2.8971 4.4183,-2.8971 C1.6922,-2.8971 1.6922,-2.8971 1.6922,-2.8971 Z M5.3919,-2.8971 C5.3919,-1.5341 5.3919,-1.5341 5.3919,-1.5341 C6.1707,-0.1711 6.7549,0.6078 6.7549,2.9444 C6.7549,3.1391 6.7549,3.3338 6.7549,3.5285 C8.1179,3.5285 8.1179,3.5285 8.1179,3.5285 C8.1179,-2.8971 8.1179,-2.8971 8.1179,-2.8971 C5.3919,-2.8971 5.3919,-2.8971 5.3919,-2.8971 Z M9.0915,-2.8971 C9.0915,-1.5341 9.0915,-1.5341 9.0915,-1.5341 C9.8703,-0.1711 10.4545,0.6078 10.4545,2.9444 C10.4545,3.1391 10.4545,3.3338 10.4545,3.5285 C11.8175,3.5285 11.8175,3.5285 11.8175,3.5285 C11.8175,-2.8971 11.8175,-2.8971 11.8175,-2.8971 C9.0915,-2.8971 9.0915,-2.8971 9.0915,-2.8971 Z M12.7911,-2.8971 C12.7911,-1.5341 12.7911,-1.5341 12.7911,-1.5341 C13.5699,-0.1711 14.1541,0.6078 14.1541,2.9444 C14.1541,3.1391 14.1541,3.3338 14.1541,3.5285 C15.5171,3.5285 15.5171,3.5285 15.5171,3.5285 C15.5171,-2.8971 15.5171,-2.8971 15.5171,-2.8971 C12.7911,-2.8971 12.7911,-2.8971 12.7911,-2.8971 Z M16.4907,-2.8971 C16.4907,-1.5341 16.4907,-1.5341 16.4907,-1.5341 C17.2695,-0.1711 17.8537,0.6078 17.8537,2.9444 C17.8537,3.1391 17.8537,3.3338 17.8537,3.5285 C19.2167,3.5285 19.2167,3.5285 19.2167,3.5285 C19.2167,-2.8971 19.2167,-2.8971 19.2167,-2.8971 C16.4907,-2.8971 16.4907,-2.8971 16.4907,-2.8971 Z M20.1903,-2.8971 C20.1903,-1.5341 20.1903,-1.5341 20.1903,-1.5341 C20.9691,-0.1711 21.5533,0.6078 21.5533,2.9444 C21.5533,3.1391 21.5533,3.3338 21.5533,3.5285 C22.9163,3.5285 22.9163,3.5285 22.9163,3.5285 C22.9163,-2.8971 22.9163,-2.8971 22.9163,-2.8971 C20.1903,-2.8971 20.1903,-2.8971 20.1903,-2.8971 Z M23.8899,-2.8971 C23.8899,-1.5341 23.8899,-1.5341 23.8899,-1.5341 C24.6687,-0.1711 25.2529,0.6078 25.2529,2.9444 C25.2529,3.1391 25.2529,3.3338 25.2529,3.5285 C26.4212,3.5285 26.4212,3.5285 26.4212,3.5285 C26.4212,-2.8971 26.4212,-2.8971 26.4212,-2.8971 C23.8899,-2.8971 23.8899,-2.8971 23.8899,-2.8971 Z M27.5895,-2.8971 C27.5895,-1.5341 27.5895,-1.5341 27.5895,-1.5341 C28.3684,-0.1711 28.9525,0.6078 28.9525,2.9444 C28.9525,3.1391 28.9525,3.3338 28.7578,3.5285 C30.1208,3.5285 30.1208,3.5285 30.1208,3.5285 C30.1208,-2.8971 30.1208,-2.8971 30.1208,-2.8971 C27.5895,-2.8971 27.5895,-2.8971 27.5895,-2.8971 Z M31.2891,-2.8971 C31.2891,-1.5341 31.2891,-1.5341 31.2891,-1.5341 C32.0680,-0.1711 32.6521,0.6078 32.6521,2.9444 C32.6521,3.1391 32.4574,3.3338 32.4574,3.5285 C33.8204,3.5285 33.8204,3.5285 33.8204,3.5285 C33.8204,-2.8971 33.8204,-2.8971 33.8204,-2.8971 C31.2891,-2.8971 31.2891,-2.8971 31.2891,-2.8971 Z M34.7940,-2.8971 C34.7940,-1.5341 34.7940,-1.5341 34.7940,-1.5341 C35.7676,-0.1711 36.1570,0.6078 36.1570,2.9444 C36.1570,3.1391 36.1570,3.3338 36.1570,3.5285 C37.5200,3.5285 37.5200,3.5285 37.5200,3.5285 C37.5200,-2.8971 37.5200,-2.8971 37.5200,-2.8971 C34.7940,-2.8971 34.7940,-2.8971 34.7940,-2.8971 Z M38.4936,-2.8971 C38.4936,-1.5341 38.4936,-1.5341 38.4936,-1.5341 C39.4672,-0.1711 39.8566,0.6078 39.8566,2.9444 C39.8566,3.1391 39.8566,3.3338 39.8566,3.5285 C41.2196,3.5285 41.2196,3.5285 41.2196,3.5285 C41.2196,-2.8971 41.2196,-2.8971 41.2196,-2.8971 C38.4936,-2.8971 38.4936,-2.8971 38.4936,-2.8971 Z" style="fill-rule: evenodd; fill: #8275a3; "/>
    <text xmlns="http://www.w3.org/2000/svg" x="4.0997" y="11.9724">
      <tspan font-family="Arial" font-size="4.5000" fill="#000000" fill-opacity="1.0000" stroke-opacity="1.0000">
FC Storage Shelf</tspan>
    </text>
    <!--converted by libvisio2svg-->
  </g>
</svg>
