<svg xmlns="http://www.w3.org/2000/svg" xmlns:xlink="http://www.w3.org/1999/xlink" version="1.1" width="43.2000000000" height="7.2000000000">
  <title><![CDATA[FC Storage Shelf rackmount]]></title>
  <g transform=" scale(1.000000) ">
    <g xmlns="http://www.w3.org/2000/svg" id="Layer1064">
      <path d="  M43.3029,7.2000 L43.3029,-4.3239 L0.0883,-4.3239 L0.0883,7.2000 L43.3029,7.2000 Z" style="stroke-width: 0.0240; stroke-linecap: round; stroke-linejoin: round; fill-rule: evenodd; fill: #171868; "/>
      <path d="  M43.3029,7.2000 L43.3029,-4.3239 L0.0883,-4.3239 L0.0883,7.2000 L43.3029,7.2000 Z" style="stroke-width: 0.0240; stroke: #ffffff; stroke-dasharray: none; stroke-linecap: round; stroke-linejoin: round; fill: none; "/>
    </g>
    <path xmlns="http://www.w3.org/2000/svg" d="  M1.7597,-2.9252 C1.7597,-1.5622 1.7597,-1.5622 1.7597,-1.5622 C2.5386,-0.1992 3.1228,0.5797 3.1228,2.9162 C3.1228,3.1110 3.1228,3.3057 3.1228,3.5004 C4.4858,3.5004 4.4858,3.5004 4.4858,3.5004 C4.4858,-2.9252 4.4858,-2.9252 4.4858,-2.9252 C1.7597,-2.9252 1.7597,-2.9252 1.7597,-2.9252 Z M5.4594,-2.9252 C5.4594,-1.5622 5.4594,-1.5622 5.4594,-1.5622 C6.2382,-0.1992 6.8224,0.5797 6.8224,2.9162 C6.8224,3.1110 6.8224,3.3057 6.8224,3.5004 C8.1854,3.5004 8.1854,3.5004 8.1854,3.5004 C8.1854,-2.9252 8.1854,-2.9252 8.1854,-2.9252 C5.4594,-2.9252 5.4594,-2.9252 5.4594,-2.9252 Z M9.1590,-2.9252 C9.1590,-1.5622 9.1590,-1.5622 9.1590,-1.5622 C9.9378,-0.1992 10.5220,0.5797 10.5220,2.9162 C10.5220,3.1110 10.5220,3.3057 10.5220,3.5004 C11.8850,3.5004 11.8850,3.5004 11.8850,3.5004 C11.8850,-2.9252 11.8850,-2.9252 11.8850,-2.9252 C9.1590,-2.9252 9.1590,-2.9252 9.1590,-2.9252 Z M12.8586,-2.9252 C12.8586,-1.5622 12.8586,-1.5622 12.8586,-1.5622 C13.6374,-0.1992 14.2216,0.5797 14.2216,2.9162 C14.2216,3.1110 14.2216,3.3057 14.2216,3.5004 C15.5846,3.5004 15.5846,3.5004 15.5846,3.5004 C15.5846,-2.9252 15.5846,-2.9252 15.5846,-2.9252 C12.8586,-2.9252 12.8586,-2.9252 12.8586,-2.9252 Z M16.5582,-2.9252 C16.5582,-1.5622 16.5582,-1.5622 16.5582,-1.5622 C17.3370,-0.1992 17.9212,0.5797 17.9212,2.9162 C17.9212,3.1110 17.9212,3.3057 17.9212,3.5004 C19.2842,3.5004 19.2842,3.5004 19.2842,3.5004 C19.2842,-2.9252 19.2842,-2.9252 19.2842,-2.9252 C16.5582,-2.9252 16.5582,-2.9252 16.5582,-2.9252 Z M20.2578,-2.9252 C20.2578,-1.5622 20.2578,-1.5622 20.2578,-1.5622 C21.0366,-0.1992 21.6208,0.5797 21.6208,2.9162 C21.6208,3.1110 21.6208,3.3057 21.6208,3.5004 C22.9838,3.5004 22.9838,3.5004 22.9838,3.5004 C22.9838,-2.9252 22.9838,-2.9252 22.9838,-2.9252 C20.2578,-2.9252 20.2578,-2.9252 20.2578,-2.9252 Z M23.9574,-2.9252 C23.9574,-1.5622 23.9574,-1.5622 23.9574,-1.5622 C24.7362,-0.1992 25.3204,0.5797 25.3204,2.9162 C25.3204,3.1110 25.3204,3.3057 25.3204,3.5004 C26.4887,3.5004 26.4887,3.5004 26.4887,3.5004 C26.4887,-2.9252 26.4887,-2.9252 26.4887,-2.9252 C23.9574,-2.9252 23.9574,-2.9252 23.9574,-2.9252 Z M27.6570,-2.9252 C27.6570,-1.5622 27.6570,-1.5622 27.6570,-1.5622 C28.4359,-0.1992 29.0200,0.5797 29.0200,2.9162 C29.0200,3.1110 29.0200,3.3057 28.8253,3.5004 C30.1883,3.5004 30.1883,3.5004 30.1883,3.5004 C30.1883,-2.9252 30.1883,-2.9252 30.1883,-2.9252 C27.6570,-2.9252 27.6570,-2.9252 27.6570,-2.9252 Z M31.3566,-2.9252 C31.3566,-1.5622 31.3566,-1.5622 31.3566,-1.5622 C32.1355,-0.1992 32.7196,0.5797 32.7196,2.9162 C32.7196,3.1110 32.5249,3.3057 32.5249,3.5004 C33.8879,3.5004 33.8879,3.5004 33.8879,3.5004 C33.8879,-2.9252 33.8879,-2.9252 33.8879,-2.9252 C31.3566,-2.9252 31.3566,-2.9252 31.3566,-2.9252 Z M34.8615,-2.9252 C34.8615,-1.5622 34.8615,-1.5622 34.8615,-1.5622 C35.8351,-0.1992 36.2245,0.5797 36.2245,2.9162 C36.2245,3.1110 36.2245,3.3057 36.2245,3.5004 C37.5875,3.5004 37.5875,3.5004 37.5875,3.5004 C37.5875,-2.9252 37.5875,-2.9252 37.5875,-2.9252 C34.8615,-2.9252 34.8615,-2.9252 34.8615,-2.9252 Z M38.5611,-2.9252 C38.5611,-1.5622 38.5611,-1.5622 38.5611,-1.5622 C39.5347,-0.1992 39.9241,0.5797 39.9241,2.9162 C39.9241,3.1110 39.9241,3.3057 39.9241,3.5004 C41.2871,3.5004 41.2871,3.5004 41.2871,3.5004 C41.2871,-2.9252 41.2871,-2.9252 41.2871,-2.9252 C38.5611,-2.9252 38.5611,-2.9252 38.5611,-2.9252 Z" style="fill-rule: evenodd; fill: #8275a3; "/>
    <!--converted by libvisio2svg-->
  </g>
</svg>
