<svg xmlns="http://www.w3.org/2000/svg" xmlns:xlink="http://www.w3.org/1999/xlink" version="1.1" width="43.2000000000" height="7.2000000000">
  <title><![CDATA[LockVault Volume]]></title>
  <g transform=" scale(1.000000) ">
    <g xmlns="http://www.w3.org/2000/svg" id="Layer1068">
      <path d="  M29.6024,-15.8856 L0.0168,-15.8856 L0.0168,7.2281 L29.6024,7.2281 L29.6024,-15.8856 Z" style="stroke-width: 0.0240; stroke-linecap: round; stroke-linejoin: round; fill-rule: evenodd; fill: #6089b9; "/>
      <path d="  M29.6024,-15.8856 L0.0168,-15.8856 L0.0168,7.2281 L29.6024,7.2281 L29.6024,-15.8856 Z" style="stroke-width: 0.0240; stroke: #ffffff; stroke-dasharray: none; stroke-linecap: round; stroke-linejoin: round; fill: none; "/>
    </g>
    <g xmlns="http://www.w3.org/2000/svg" id="Layer1069">
      <path d="  M43.2395,-15.8856 L36.3053,-15.8856 L36.3053,7.2281 L43.2395,7.2281 L43.2395,-15.8856 Z M36.3053,-15.8856 L29.6024,-15.8856 L29.6024,7.2281 L36.3053,7.2281 L36.3053,-15.8856 Z" style="stroke-width: 0.0240; stroke-linecap: round; stroke-linejoin: round; fill-rule: evenodd; fill: #2061a2; "/>
      <path d="  M43.2395,-15.8856 L36.3053,-15.8856 L36.3053,7.2281 L43.2395,7.2281 L43.2395,-15.8856 Z M36.3053,-15.8856 L29.6024,-15.8856 L29.6024,7.2281 L36.3053,7.2281 L36.3053,-15.8856 Z" style="stroke-width: 0.0240; stroke: #ffffff; stroke-dasharray: none; stroke-linecap: round; stroke-linejoin: round; fill: none; "/>
    </g>
    <path xmlns="http://www.w3.org/2000/svg" d="  M34.6874,-3.1731 C31.2203,-3.1731 31.2203,-3.1731 31.2203,-3.1731 C30.9892,-3.1731 30.9892,-3.1731 30.9892,-3.1731 C30.9892,-3.1731 30.7580,-3.4042 30.7580,-3.6353 C30.7580,-3.1731 30.7580,-3.1731 30.7580,-3.1731 C30.7580,-2.9419 30.7580,-2.9419 30.7580,-2.9419 C30.7580,-2.9419 30.9892,-2.7108 31.2203,-2.7108 C31.2203,-2.7108 34.6874,-2.7108 34.6874,-2.7108 C34.9185,-2.7108 35.1497,-2.9419 35.1497,-2.9419 C35.1497,-3.1731 35.1497,-3.1731 35.1497,-3.1731 C35.1497,-3.6353 35.1497,-3.6353 35.1497,-3.6353 C35.1497,-3.4042 34.6874,-3.1731 34.6874,-3.1731 Z M34.6874,-2.4796 C31.2203,-2.4796 31.2203,-2.4796 31.2203,-2.4796 C30.9892,-2.4796 30.9892,-2.4796 30.9892,-2.4796 C30.9892,-2.4796 30.7580,-2.4796 30.7580,-2.7108 C30.7580,-2.4796 30.7580,-2.4796 30.7580,-2.4796 C30.7580,-2.2485 30.7580,-2.2485 30.7580,-2.2485 C30.7580,-2.0174 30.9892,-2.0174 31.2203,-2.0174 C31.2203,-2.0174 34.6874,-2.0174 34.6874,-2.0174 C34.9185,-2.0174 35.1497,-2.0174 35.1497,-2.2485 C35.1497,-2.4796 35.1497,-2.4796 35.1497,-2.4796 C35.1497,-2.7108 35.1497,-2.7108 35.1497,-2.7108 C35.1497,-2.4796 34.6874,-2.4796 34.6874,-2.4796 Z M34.6874,-4.0976 C31.2203,-4.0976 31.2203,-4.0976 31.2203,-4.0976 C30.9892,-4.0976 30.9892,-4.0976 30.9892,-4.0976 C30.9892,-4.0976 30.7580,-4.0976 30.7580,-4.3287 C30.7580,-3.8665 30.7580,-3.8665 30.7580,-3.8665 C30.7580,-3.6353 30.9892,-3.4042 31.2203,-3.4042 C31.2203,-3.4042 34.6874,-3.4042 34.6874,-3.4042 C34.9185,-3.4042 35.1497,-3.6353 35.1497,-3.8665 C35.1497,-4.3287 35.1497,-4.3287 35.1497,-4.3287 C35.1497,-4.0976 34.6874,-4.0976 34.6874,-4.0976 Z M34.6874,-1.7862 C31.2203,-1.7862 31.2203,-1.7862 31.2203,-1.7862 C30.9892,-1.7862 30.9892,-1.7862 30.9892,-1.7862 C30.9892,-1.7862 30.7580,-1.7862 30.7580,-2.0174 C30.7580,-1.5551 30.7580,-1.5551 30.7580,-1.5551 C30.7580,-1.3240 31.2203,-1.0928 31.2203,-1.0928 C34.6874,-1.0928 34.6874,-1.0928 34.6874,-1.0928 C34.6874,-1.0928 35.1497,-1.3240 35.1497,-1.5551 C35.1497,-2.0174 35.1497,-2.0174 35.1497,-2.0174 C35.1497,-1.7862 34.6874,-1.7862 34.6874,-1.7862 Z M41.6215,-3.1731 C37.9233,-3.1731 37.9233,-3.1731 37.9233,-3.1731 C37.9233,-3.1731 37.6922,-3.4042 37.4610,-3.6353 C37.4610,-3.1731 37.4610,-3.1731 37.4610,-3.1731 C37.4610,-2.9419 37.4610,-2.9419 37.4610,-2.9419 C37.4610,-2.9419 37.9233,-2.7108 37.9233,-2.7108 C38.1544,-2.7108 41.3904,-2.7108 41.6215,-2.7108 C41.6215,-2.7108 42.0838,-2.9419 42.0838,-2.9419 C42.0838,-3.1731 42.0838,-3.1731 42.0838,-3.1731 C42.0838,-3.6353 42.0838,-3.6353 42.0838,-3.6353 C41.8526,-3.4042 41.6215,-3.1731 41.6215,-3.1731 Z M41.6215,-2.4796 C37.9233,-2.4796 37.9233,-2.4796 37.9233,-2.4796 C37.9233,-2.4796 37.6922,-2.4796 37.4610,-2.7108 C37.4610,-2.4796 37.4610,-2.4796 37.4610,-2.4796 C37.4610,-2.2485 37.4610,-2.2485 37.4610,-2.2485 C37.4610,-2.0174 37.9233,-2.0174 37.9233,-2.0174 C38.1544,-2.0174 41.3904,-2.0174 41.6215,-2.0174 C41.6215,-2.0174 42.0838,-2.0174 42.0838,-2.2485 C42.0838,-2.4796 42.0838,-2.4796 42.0838,-2.4796 C42.0838,-2.7108 42.0838,-2.7108 42.0838,-2.7108 C41.8526,-2.4796 41.6215,-2.4796 41.6215,-2.4796 Z M41.6215,-4.0976 C37.9233,-4.0976 37.9233,-4.0976 37.9233,-4.0976 C37.9233,-4.0976 37.6922,-4.0976 37.4610,-4.3287 C37.4610,-3.8665 37.4610,-3.8665 37.4610,-3.8665 C37.4610,-3.6353 37.9233,-3.4042 37.9233,-3.4042 C38.1544,-3.4042 41.3904,-3.4042 41.6215,-3.4042 C41.6215,-3.4042 42.0838,-3.6353 42.0838,-3.8665 C42.0838,-4.3287 42.0838,-4.3287 42.0838,-4.3287 C41.8526,-4.0976 41.6215,-4.0976 41.6215,-4.0976 Z M41.6215,-1.7862 C37.9233,-1.7862 37.9233,-1.7862 37.9233,-1.7862 C37.9233,-1.7862 37.6922,-1.7862 37.4610,-2.0174 C37.4610,-1.5551 37.4610,-1.5551 37.4610,-1.5551 C37.4610,-1.3240 37.9233,-1.0928 37.9233,-1.0928 C41.6215,-1.0928 41.6215,-1.0928 41.6215,-1.0928 C41.6215,-1.0928 42.0838,-1.3240 42.0838,-1.5551 C42.0838,-2.0174 42.0838,-2.0174 42.0838,-2.0174 C41.8526,-1.7862 41.6215,-1.7862 41.6215,-1.7862 Z M18.5078,-2.0174 C10.8802,-2.0174 10.8802,-2.0174 10.8802,-2.0174 C10.6491,-2.0174 10.1868,-2.2485 9.9557,-2.7108 C9.9557,-1.7862 9.9557,-1.7862 9.9557,-1.7862 C9.9557,-1.5551 9.9557,-1.5551 9.9557,-1.5551 C9.9557,-1.3240 10.6491,-0.8617 11.1114,-0.8617 C11.1114,-0.8617 18.2766,-0.8617 18.5078,-0.8617 C18.7389,-0.8617 19.4323,-1.3240 19.4323,-1.5551 C19.4323,-1.7862 19.4323,-1.7862 19.4323,-1.7862 C19.4323,-2.7108 19.4323,-2.7108 19.4323,-2.7108 C19.2012,-2.2485 18.7389,-2.0174 18.5078,-2.0174 Z M18.5078,-0.3994 C10.8802,-0.3994 10.8802,-0.3994 10.8802,-0.3994 C10.6491,-0.3994 10.1868,-0.6305 9.9557,-1.0928 C9.9557,-0.1683 9.9557,-0.1683 9.9557,-0.1683 C9.9557,0.0629 9.9557,0.0629 9.9557,0.0629 C9.9557,0.2940 10.6491,0.7563 11.1114,0.7563 C11.1114,0.7563 18.2766,0.7563 18.5078,0.7563 C18.7389,0.7563 19.4323,0.2940 19.4323,0.0629 C19.4323,-0.1683 19.4323,-0.1683 19.4323,-0.1683 C19.4323,-1.0928 19.4323,-1.0928 19.4323,-1.0928 C19.2012,-0.6305 18.7389,-0.3994 18.5078,-0.3994 Z M18.5078,-3.6353 C10.8802,-3.6353 10.8802,-3.6353 10.8802,-3.6353 C10.6491,-3.6353 10.1868,-3.8665 9.9557,-4.3287 C9.9557,-3.4042 9.9557,-3.4042 9.9557,-3.4042 C9.9557,-3.1731 9.9557,-3.1731 9.9557,-3.1731 C9.9557,-2.9419 10.6491,-2.7108 11.1114,-2.4796 C11.1114,-2.4796 18.2766,-2.4796 18.5078,-2.4796 C18.7389,-2.7108 19.4323,-2.9419 19.4323,-3.1731 C19.4323,-3.4042 19.4323,-3.4042 19.4323,-3.4042 C19.4323,-4.3287 19.4323,-4.3287 19.4323,-4.3287 C19.2012,-3.8665 18.7389,-3.6353 18.5078,-3.6353 Z M18.5078,1.2186 C10.8802,1.2186 10.8802,1.2186 10.8802,1.2186 C10.6491,1.2186 10.1868,0.9874 9.9557,0.5251 C9.9557,1.4497 9.9557,1.4497 9.9557,1.4497 C9.9557,1.9120 10.8802,2.3742 10.8802,2.3742 C18.5078,2.3742 18.5078,2.3742 18.5078,2.3742 C18.5078,2.3742 19.4323,1.9120 19.4323,1.4497 C19.4323,0.5251 19.4323,0.5251 19.4323,0.5251 C19.2012,0.9874 18.7389,1.2186 18.5078,1.2186 Z M19.4323,-5.0222 C19.4323,-5.7156 18.5078,-6.1778 18.5078,-6.1778 C10.8802,-6.1778 10.8802,-6.1778 10.8802,-6.1778 C10.8802,-6.1778 9.9557,-5.7156 9.9557,-5.0222 C9.9557,-4.5599 10.8802,-4.0976 10.8802,-4.0976 C18.5078,-4.0976 18.5078,-4.0976 18.5078,-4.0976 C18.5078,-4.0976 19.4323,-4.5599 19.4323,-5.0222 Z M35.1497,-4.7910 C35.1497,-5.0222 34.6874,-5.2533 34.6874,-5.2533 C31.2203,-5.2533 31.2203,-5.2533 31.2203,-5.2533 C31.2203,-5.2533 30.7580,-5.0222 30.7580,-4.7910 C30.7580,-4.3287 31.2203,-4.3287 31.2203,-4.3287 C34.6874,-4.3287 34.6874,-4.3287 34.6874,-4.3287 C34.6874,-4.3287 35.1497,-4.3287 35.1497,-4.7910 Z M42.0838,-4.7910 C42.0838,-5.0222 41.6215,-5.2533 41.6215,-5.2533 C37.9233,-5.2533 37.9233,-5.2533 37.9233,-5.2533 C37.9233,-5.2533 37.4610,-5.0222 37.4610,-4.7910 C37.4610,-4.3287 37.9233,-4.3287 37.9233,-4.3287 C41.6215,-4.3287 41.6215,-4.3287 41.6215,-4.3287 C41.6215,-4.3287 42.0838,-4.3287 42.0838,-4.7910 Z" style="fill-rule: evenodd; fill: #ffffff; "/>
    <path xmlns="http://www.w3.org/2000/svg" d="  M39.5413,-7.5647 C38.8479,-7.5647 38.3856,-7.1024 38.3856,-6.4090 C38.3856,-4.5599 38.3856,-4.5599 38.3856,-4.5599 C38.3856,-4.5599 38.6167,-4.5599 38.6167,-4.5599 C38.6167,-4.5599 38.8479,-4.5599 38.8479,-4.5599 C38.8479,-6.1778 38.8479,-6.1778 38.8479,-6.1778 C38.8479,-6.6401 39.3101,-6.8713 39.5413,-6.8713 C40.0035,-6.8713 40.0035,-6.8713 40.0035,-6.8713 C40.4658,-6.8713 40.6970,-6.6401 40.6970,-6.1778 C40.6970,-4.5599 40.6970,-4.5599 40.6970,-4.5599 C40.6970,-4.5599 40.9281,-4.5599 40.9281,-4.5599 C41.1592,-4.5599 41.1592,-4.5599 41.1592,-4.5599 C41.1592,-6.4090 41.1592,-6.4090 41.1592,-6.4090 C41.1592,-7.1024 40.6970,-7.5647 40.0035,-7.5647 C39.5413,-7.5647 39.5413,-7.5647 39.5413,-7.5647 Z M32.6071,-7.5647 C31.9137,-7.5647 31.4515,-7.1024 31.4515,-6.4090 C31.4515,-4.5599 31.4515,-4.5599 31.4515,-4.5599 C31.4515,-4.5599 31.6826,-4.5599 31.6826,-4.5599 C31.9137,-4.5599 31.9137,-4.5599 31.9137,-4.5599 C32.1449,-4.5599 32.1449,-4.5599 32.1449,-4.5599 C32.1449,-6.1778 32.1449,-6.1778 32.1449,-6.1778 C32.1449,-6.6401 32.3760,-6.8713 32.8383,-6.8713 C33.0694,-6.8713 33.0694,-6.8713 33.0694,-6.8713 C33.5317,-6.8713 33.7628,-6.6401 33.7628,-6.1778 C33.7628,-4.5599 33.7628,-4.5599 33.7628,-4.5599 C33.7628,-4.5599 33.9940,-4.5599 33.9940,-4.5599 C34.2251,-4.5599 34.4562,-4.5599 34.4562,-4.5599 C34.4562,-6.4090 34.4562,-6.4090 34.4562,-6.4090 C34.4562,-7.1024 33.7628,-7.5647 33.3006,-7.5647 C32.6071,-7.5647 32.6071,-7.5647 32.6071,-7.5647 Z M14.1162,-11.0317 C12.7293,-11.0317 11.5737,-9.8760 11.5737,-8.4892 C11.5737,-5.0222 11.5737,-5.0222 11.5737,-5.0222 C11.8048,-4.7910 11.8048,-4.7910 11.8048,-4.7910 C11.8048,-4.7910 12.0359,-4.7910 12.2671,-4.7910 C12.4982,-4.7910 12.7293,-4.7910 12.7293,-4.7910 C12.7293,-5.0222 12.7293,-5.0222 12.7293,-5.0222 C12.7293,-8.4892 12.7293,-8.4892 12.7293,-8.4892 C12.7293,-9.1826 13.4228,-9.8760 14.3473,-9.8760 C15.0407,-9.8760 15.0407,-9.8760 15.0407,-9.8760 C15.9653,-9.8760 16.6587,-9.1826 16.6587,-8.4892 C16.6587,-5.0222 16.6587,-5.0222 16.6587,-5.0222 C16.6587,-4.7910 16.6587,-4.7910 16.6587,-4.7910 C16.6587,-4.7910 16.8898,-4.7910 17.1209,-4.7910 C17.5832,-4.7910 17.8144,-4.7910 17.8144,-4.7910 C17.8144,-5.0222 17.8144,-5.0222 17.8144,-5.0222 C17.8144,-8.4892 17.8144,-8.4892 17.8144,-8.4892 C17.8144,-9.8760 16.6587,-11.0317 15.2718,-11.0317 C14.1162,-11.0317 14.1162,-11.0317 14.1162,-11.0317 Z" style="fill-rule: evenodd; fill: #cccccc; "/>
    <text xmlns="http://www.w3.org/2000/svg" x="3.7180" y="11.8824">
      <tspan font-family="Arial" font-size="4.5000" fill="#000000" fill-opacity="1.0000" stroke-opacity="1.0000">
LockVault Volume</tspan>
    </text>
    <!--converted by libvisio2svg-->
  </g>
</svg>
