<svg xmlns="http://www.w3.org/2000/svg" xmlns:xlink="http://www.w3.org/1999/xlink" version="1.1" width="7.2000000000" height="171.3600000000">
  <title><![CDATA[NearStore LockVault Compliance]]></title>
  <g transform=" scale(1.000000) ">
    <path xmlns="http://www.w3.org/2000/svg" d="  M48.6166,0.6020 L-0.6000,0.6020 L-0.6000,172.0200 L48.6166,172.0200 L48.6166,0.6020 Z" style="fill-rule: evenodd; fill: #7f7f7f; "/>
    <g xmlns="http://www.w3.org/2000/svg" id="Layer1032">
      <path d="  M44.7453,74.6997 C3.6276,74.6997 3.6276,74.6997 3.6276,74.6997 C3.6276,74.6997 2.5822,80.3912 2.5822,83.5273 C2.5822,86.7795 3.0468,89.5671 3.6276,91.6579 C3.6276,98.1624 3.6276,98.1624 3.6276,98.1624 C44.7453,98.1624 44.7453,98.1624 44.7453,98.1624 C44.7453,91.6579 44.7453,91.6579 44.7453,91.6579 C45.3261,89.5671 45.6745,86.7795 45.6745,83.5273 C45.6745,80.3912 44.7453,74.6997 44.7453,74.6997 Z" style="stroke-width: 0.0000; stroke-linecap: round; stroke-linejoin: round; fill-rule: evenodd; fill: #000000; "/>
      <path d="  M44.7453,74.6997 C3.6276,74.6997 3.6276,74.6997 3.6276,74.6997 C3.6276,74.6997 2.5822,80.3912 2.5822,83.5273 C2.5822,86.7795 3.0468,89.5671 3.6276,91.6579 C3.6276,98.1624 3.6276,98.1624 3.6276,98.1624 C44.7453,98.1624 44.7453,98.1624 44.7453,98.1624 C44.7453,91.6579 44.7453,91.6579 44.7453,91.6579 C45.3261,89.5671 45.6745,86.7795 45.6745,83.5273 C45.6745,80.3912 44.7453,74.6997 44.7453,74.6997 Z" style="stroke-width: 0.0000; stroke: #000000; stroke-dasharray: none; stroke-linecap: round; stroke-linejoin: round; fill: none; "/>
    </g>
    <g xmlns="http://www.w3.org/2000/svg" id="Layer1033">
      <path d="  M42.6546,76.9066 C42.6546,76.9066 40.6800,76.5581 37.6600,76.5581 C34.8724,76.6743 31.9686,77.3712 31.9686,77.3712 C31.9686,77.3712 22.4442,76.5581 18.0304,76.5581 C13.6166,76.5581 5.7183,76.9066 5.7183,76.9066 C5.7183,76.9066 4.7891,80.9719 4.7891,83.8757 C4.7891,86.6634 5.1376,90.3802 5.7183,92.2386 C5.7183,92.2386 10.8290,93.4002 20.5857,93.4002 C27.0902,93.4002 34.5239,91.0771 34.5239,91.0771 C42.6546,91.0771 42.6546,91.0771 42.6546,91.0771 C43.2353,89.3348 43.5838,86.6634 43.5838,83.8757 C43.5838,80.9719 42.6546,76.9066 42.6546,76.9066 Z" style="stroke-width: 0.0000; stroke-linecap: round; stroke-linejoin: round; fill-rule: evenodd; fill: #333333; "/>
      <path d="  M42.6546,76.9066 C42.6546,76.9066 40.6800,76.5581 37.6600,76.5581 C34.8724,76.6743 31.9686,77.3712 31.9686,77.3712 C31.9686,77.3712 22.4442,76.5581 18.0304,76.5581 C13.6166,76.5581 5.7183,76.9066 5.7183,76.9066 C5.7183,76.9066 4.7891,80.9719 4.7891,83.8757 C4.7891,86.6634 5.1376,90.3802 5.7183,92.2386 C5.7183,92.2386 10.8290,93.4002 20.5857,93.4002 C27.0902,93.4002 34.5239,91.0771 34.5239,91.0771 C42.6546,91.0771 42.6546,91.0771 42.6546,91.0771 C43.2353,89.3348 43.5838,86.6634 43.5838,83.8757 C43.5838,80.9719 42.6546,76.9066 42.6546,76.9066 Z" style="stroke-width: 0.0000; stroke: #000000; stroke-dasharray: none; stroke-linecap: round; stroke-linejoin: round; fill: none; "/>
    </g>
    <path xmlns="http://www.w3.org/2000/svg" d="  M39.9831,87.5926 C40.2154,86.4310 40.4477,85.0372 40.4477,83.4111 C40.4477,81.7850 40.2154,80.2750 39.9831,79.2296 M38.1247,87.5926 C38.4731,86.4310 38.5893,85.0372 38.5893,83.4111 C38.5893,81.7850 38.4731,80.2750 38.1247,79.2296 M33.8270,88.4056 C34.1755,87.2441 34.4078,85.6180 34.4078,83.7596 C34.4078,82.0173 34.1755,80.3912 33.8270,79.2296 M31.5040,88.7541 C31.8525,87.4764 31.9686,85.8503 31.9686,83.9919 C31.9686,82.1334 31.8525,80.3912 31.5040,79.2296 M29.0648,89.1025 C29.4133,87.8249 29.6456,86.0826 29.6456,84.1080 C29.6456,82.2496 29.4133,80.5073 29.0648,79.2296 M26.6256,89.4510 C26.9741,88.1733 27.2064,86.3149 27.2064,84.3403 C27.2064,82.3657 26.9741,80.5073 26.6256,79.2296 M24.3026,89.7994 C24.6510,88.4056 24.8834,86.5472 24.8834,84.4565 C24.8834,82.3657 24.6510,80.5073 24.3026,79.2296 M21.8634,90.1479 C22.2119,88.7541 22.4442,86.7795 22.4442,84.6888 C22.4442,82.4819 22.2119,80.6235 21.8634,79.2296 M19.4242,90.4964 C19.8888,88.9864 20.1211,87.0118 20.1211,84.8049 C20.1211,82.5980 19.8888,80.6235 19.4242,79.2296 M17.1012,90.8448 C17.4496,89.3348 17.6819,87.2441 17.6819,85.0372 C17.6819,82.7142 17.4496,80.7396 17.1012,79.2296 M14.8943,90.7287 C15.2428,89.2187 15.5912,87.2441 15.5912,84.9211 C15.5912,82.7142 15.2428,80.6235 14.8943,79.2296 M12.8036,90.6125 C13.1520,89.1025 13.3843,87.1280 13.3843,84.9211 C13.3843,82.7142 13.1520,80.6235 12.8036,79.2296 M10.5967,90.4964 C10.9451,89.1025 11.1774,87.0118 11.1774,84.8049 C11.1774,82.5980 10.9451,80.6235 10.5967,79.2296 M8.5060,90.3802 C8.8544,88.9864 9.0867,87.0118 9.0867,84.8049 C9.0867,82.5980 8.8544,80.6235 8.5060,79.2296 M36.3824,87.5926 C36.6147,86.4310 36.8470,85.0372 36.8470,83.4111 C36.8470,81.7850 36.6147,80.2750 36.3824,79.2296" style="stroke-width: 0.0591; stroke: #ffffff; stroke-dasharray: none; stroke-linecap: round; stroke-linejoin: round; fill: none; "/>
    <path xmlns="http://www.w3.org/2000/svg" d="  M42.7707,94.9101 L36.4985,94.9101 L36.4985,93.2840 L42.7707,93.2840 L42.7707,94.9101 Z" style="fill-rule: evenodd; fill: #ffffff; "/>
    <g xmlns="http://www.w3.org/2000/svg" id="Layer1034">
      <path d="  M2.5211,109.7189 L45.7357,109.7189 L45.7357,98.1950 L2.5211,98.1950 L2.5211,109.7189 Z M2.5211,109.7189 L2.5211,121.2428 L45.7357,121.2428 L45.7357,109.7189 L2.5211,109.7189 Z M2.5211,121.2428 L2.5211,133.0068 L45.7357,133.0068 L45.7357,121.2428 L2.5211,121.2428 Z M2.5211,133.0068 L2.5211,144.5307 L45.7357,144.5307 L45.7357,133.0068 L2.5211,133.0068 Z M2.5211,144.5307 L2.5211,156.2947 L45.7357,156.2947 L45.7357,144.5307 L2.5211,144.5307 Z M2.5211,156.2947 L2.5211,167.8186 L45.7357,167.8186 L45.7357,156.2947 L2.5211,156.2947 Z M45.7357,62.9031 L2.5211,62.9031 L2.5211,74.6671 L45.7357,74.6671 L45.7357,62.9031 Z M45.7357,51.3792 L2.5211,51.3792 L2.5211,62.9031 L45.7357,62.9031 L45.7357,51.3792 Z M45.7357,39.6152 L2.5211,39.6152 L2.5211,51.3792 L45.7357,51.3792 L45.7357,39.6152 Z M45.7357,28.0913 L2.5211,28.0913 L2.5211,39.6152 L45.7357,39.6152 L45.7357,28.0913 Z M45.7357,16.5674 L2.5211,16.5674 L2.5211,28.0913 L45.7357,28.0913 L45.7357,16.5674 Z M45.7357,16.5674 L45.7357,4.8034 L2.5211,4.8034 L2.5211,16.5674 L45.7357,16.5674 Z" style="stroke-width: 0.0240; stroke-linecap: round; stroke-linejoin: round; fill-rule: evenodd; fill: #000000; "/>
      <path d="  M2.5211,109.7189 L45.7357,109.7189 L45.7357,98.1950 L2.5211,98.1950 L2.5211,109.7189 Z M2.5211,109.7189 L2.5211,121.2428 L45.7357,121.2428 L45.7357,109.7189 L2.5211,109.7189 Z M2.5211,121.2428 L2.5211,133.0068 L45.7357,133.0068 L45.7357,121.2428 L2.5211,121.2428 Z M2.5211,133.0068 L2.5211,144.5307 L45.7357,144.5307 L45.7357,133.0068 L2.5211,133.0068 Z M2.5211,144.5307 L2.5211,156.2947 L45.7357,156.2947 L45.7357,144.5307 L2.5211,144.5307 Z M2.5211,156.2947 L2.5211,167.8186 L45.7357,167.8186 L45.7357,156.2947 L2.5211,156.2947 Z M45.7357,62.9031 L2.5211,62.9031 L2.5211,74.6671 L45.7357,74.6671 L45.7357,62.9031 Z M45.7357,51.3792 L2.5211,51.3792 L2.5211,62.9031 L45.7357,62.9031 L45.7357,51.3792 Z M45.7357,39.6152 L2.5211,39.6152 L2.5211,51.3792 L45.7357,51.3792 L45.7357,39.6152 Z M45.7357,28.0913 L2.5211,28.0913 L2.5211,39.6152 L45.7357,39.6152 L45.7357,28.0913 Z M45.7357,16.5674 L2.5211,16.5674 L2.5211,28.0913 L45.7357,28.0913 L45.7357,16.5674 Z M45.7357,16.5674 L45.7357,4.8034 L2.5211,4.8034 L2.5211,16.5674 L45.7357,16.5674 Z" style="stroke-width: 0.0240; stroke: #ffffff; stroke-dasharray: none; stroke-linecap: round; stroke-linejoin: round; fill: none; "/>
    </g>
    <path xmlns="http://www.w3.org/2000/svg" d="  M19.0867,18.0079 C19.0867,19.4484 19.0867,19.4484 19.0867,19.4484 C20.0470,20.8889 20.5271,21.6091 20.5271,24.0099 C20.5271,24.0099 20.5271,24.2500 20.5271,24.4901 C21.9676,24.4901 21.9676,24.4901 21.9676,24.4901 C21.9676,18.0079 21.9676,18.0079 21.9676,18.0079 C19.0867,18.0079 19.0867,18.0079 19.0867,18.0079 Z M22.9280,18.0079 C22.9280,19.4484 22.9280,19.4484 22.9280,19.4484 C23.6482,20.8889 24.1284,21.6091 24.1284,24.0099 C24.1284,24.0099 24.1284,24.2500 24.1284,24.4901 C25.5689,24.4901 25.5689,24.4901 25.5689,24.4901 C25.5689,18.0079 25.5689,18.0079 25.5689,18.0079 C22.9280,18.0079 22.9280,18.0079 22.9280,18.0079 Z M26.5292,18.0079 C26.5292,19.4484 26.5292,19.4484 26.5292,19.4484 C27.2494,20.8889 27.7296,21.6091 27.7296,24.0099 C27.7296,24.0099 27.7296,24.2500 27.7296,24.4901 C29.1701,24.4901 29.1701,24.4901 29.1701,24.4901 C29.1701,18.0079 29.1701,18.0079 29.1701,18.0079 C26.5292,18.0079 26.5292,18.0079 26.5292,18.0079 Z M30.1304,18.0079 C30.1304,19.4484 30.1304,19.4484 30.1304,19.4484 C30.8506,20.8889 31.5709,21.6091 31.5709,24.0099 C31.5709,24.0099 31.3308,24.2500 31.3308,24.4901 C32.7713,24.4901 32.7713,24.4901 32.7713,24.4901 C32.7713,18.0079 32.7713,18.0079 32.7713,18.0079 C30.1304,18.0079 30.1304,18.0079 30.1304,18.0079 Z M33.7316,18.0079 C33.7316,19.4484 33.7316,19.4484 33.7316,19.4484 C34.4519,20.8889 35.1721,21.6091 35.1721,24.0099 C35.1721,24.0099 35.1721,24.2500 35.1721,24.4901 C36.3725,24.4901 36.3725,24.4901 36.3725,24.4901 C36.3725,18.0079 36.3725,18.0079 36.3725,18.0079 C33.7316,18.0079 33.7316,18.0079 33.7316,18.0079 Z M37.3328,18.0079 C37.3328,19.4484 37.3328,19.4484 37.3328,19.4484 C38.2932,20.8889 38.7733,21.6091 38.7733,24.0099 C38.7733,24.0099 38.7733,24.2500 38.7733,24.4901 C39.9737,24.4901 39.9737,24.4901 39.9737,24.4901 C39.9737,18.0079 39.9737,18.0079 39.9737,18.0079 C37.3328,18.0079 37.3328,18.0079 37.3328,18.0079 Z M40.9340,18.0079 C40.9340,19.4484 40.9340,19.4484 40.9340,19.4484 C41.8944,20.8889 42.3745,21.6091 42.3745,24.0099 C42.3745,24.0099 42.3745,24.2500 42.3745,24.4901 C43.5749,24.4901 43.5749,24.4901 43.5749,24.4901 C43.5749,18.0079 43.5749,18.0079 43.5749,18.0079 C40.9340,18.0079 40.9340,18.0079 40.9340,18.0079 Z M4.6818,18.0079 C4.6818,19.4484 4.6818,19.4484 4.6818,19.4484 C5.4020,20.8889 5.8822,21.6091 5.8822,24.0099 C5.8822,24.0099 5.8822,24.2500 5.8822,24.4901 C7.3227,24.4901 7.3227,24.4901 7.3227,24.4901 C7.3227,18.0079 7.3227,18.0079 7.3227,18.0079 C4.6818,18.0079 4.6818,18.0079 4.6818,18.0079 Z M8.2830,18.0079 C8.2830,19.4484 8.2830,19.4484 8.2830,19.4484 C9.0032,20.8889 9.7235,21.6091 9.7235,24.0099 C9.7235,24.0099 9.4834,24.2500 9.4834,24.4901 C10.9239,24.4901 10.9239,24.4901 10.9239,24.4901 C10.9239,18.0079 10.9239,18.0079 10.9239,18.0079 C8.2830,18.0079 8.2830,18.0079 8.2830,18.0079 Z M11.8842,18.0079 C11.8842,19.4484 11.8842,19.4484 11.8842,19.4484 C12.6045,20.8889 13.3247,21.6091 13.3247,24.0099 C13.3247,24.0099 13.3247,24.2500 13.3247,24.4901 C14.5251,24.4901 14.5251,24.4901 14.5251,24.4901 C14.5251,18.0079 14.5251,18.0079 14.5251,18.0079 C11.8842,18.0079 11.8842,18.0079 11.8842,18.0079 Z M15.4854,18.0079 C15.4854,19.4484 15.4854,19.4484 15.4854,19.4484 C16.4458,20.8889 16.9259,21.6091 16.9259,24.0099 C16.9259,24.0099 16.9259,24.2500 16.9259,24.4901 C18.1263,24.4901 18.1263,24.4901 18.1263,24.4901 C18.1263,18.0079 18.1263,18.0079 18.1263,18.0079 C15.4854,18.0079 15.4854,18.0079 15.4854,18.0079 Z M19.0867,6.4840 C19.0867,7.9245 19.0867,7.9245 19.0867,7.9245 C20.0470,9.1249 20.5271,10.0852 20.5271,12.2460 C20.5271,12.4860 20.5271,12.7261 20.5271,12.7261 C21.9676,12.7261 21.9676,12.7261 21.9676,12.7261 C21.9676,6.4840 21.9676,6.4840 21.9676,6.4840 C19.0867,6.4840 19.0867,6.4840 19.0867,6.4840 Z M22.9280,6.4840 C22.9280,7.9245 22.9280,7.9245 22.9280,7.9245 C23.6482,9.1249 24.1284,10.0852 24.1284,12.2460 C24.1284,12.4860 24.1284,12.7261 24.1284,12.7261 C25.5689,12.7261 25.5689,12.7261 25.5689,12.7261 C25.5689,6.4840 25.5689,6.4840 25.5689,6.4840 C22.9280,6.4840 22.9280,6.4840 22.9280,6.4840 Z M26.5292,6.4840 C26.5292,7.9245 26.5292,7.9245 26.5292,7.9245 C27.2494,9.1249 27.7296,10.0852 27.7296,12.2460 C27.7296,12.4860 27.7296,12.7261 27.7296,12.7261 C29.1701,12.7261 29.1701,12.7261 29.1701,12.7261 C29.1701,6.4840 29.1701,6.4840 29.1701,6.4840 C26.5292,6.4840 26.5292,6.4840 26.5292,6.4840 Z M30.1304,6.4840 C30.1304,7.9245 30.1304,7.9245 30.1304,7.9245 C30.8506,9.1249 31.5709,10.0852 31.5709,12.2460 C31.5709,12.4860 31.3308,12.7261 31.3308,12.7261 C32.7713,12.7261 32.7713,12.7261 32.7713,12.7261 C32.7713,6.4840 32.7713,6.4840 32.7713,6.4840 C30.1304,6.4840 30.1304,6.4840 30.1304,6.4840 Z M33.7316,6.4840 C33.7316,7.9245 33.7316,7.9245 33.7316,7.9245 C34.4519,9.1249 35.1721,10.0852 35.1721,12.2460 C35.1721,12.4860 35.1721,12.7261 35.1721,12.7261 C36.3725,12.7261 36.3725,12.7261 36.3725,12.7261 C36.3725,6.4840 36.3725,6.4840 36.3725,6.4840 C33.7316,6.4840 33.7316,6.4840 33.7316,6.4840 Z M37.3328,6.4840 C37.3328,7.9245 37.3328,7.9245 37.3328,7.9245 C38.2932,9.1249 38.7733,10.0852 38.7733,12.2460 C38.7733,12.4860 38.7733,12.7261 38.7733,12.7261 C39.9737,12.7261 39.9737,12.7261 39.9737,12.7261 C39.9737,6.4840 39.9737,6.4840 39.9737,6.4840 C37.3328,6.4840 37.3328,6.4840 37.3328,6.4840 Z M40.9340,6.4840 C40.9340,7.9245 40.9340,7.9245 40.9340,7.9245 C41.8944,9.1249 42.3745,10.0852 42.3745,12.2460 C42.3745,12.4860 42.3745,12.7261 42.3745,12.7261 C43.5749,12.7261 43.5749,12.7261 43.5749,12.7261 C43.5749,6.4840 43.5749,6.4840 43.5749,6.4840 C40.9340,6.4840 40.9340,6.4840 40.9340,6.4840 Z M4.6818,6.4840 C4.6818,7.9245 4.6818,7.9245 4.6818,7.9245 C5.4020,9.1249 5.8822,10.0852 5.8822,12.2460 C5.8822,12.4860 5.8822,12.7261 5.8822,12.7261 C7.3227,12.7261 7.3227,12.7261 7.3227,12.7261 C7.3227,6.4840 7.3227,6.4840 7.3227,6.4840 C4.6818,6.4840 4.6818,6.4840 4.6818,6.4840 Z M8.2830,6.4840 C8.2830,7.9245 8.2830,7.9245 8.2830,7.9245 C9.0032,9.1249 9.7235,10.0852 9.7235,12.2460 C9.7235,12.4860 9.4834,12.7261 9.4834,12.7261 C10.9239,12.7261 10.9239,12.7261 10.9239,12.7261 C10.9239,6.4840 10.9239,6.4840 10.9239,6.4840 C8.2830,6.4840 8.2830,6.4840 8.2830,6.4840 Z M11.8842,6.4840 C11.8842,7.9245 11.8842,7.9245 11.8842,7.9245 C12.6045,9.1249 13.3247,10.0852 13.3247,12.2460 C13.3247,12.4860 13.3247,12.7261 13.3247,12.7261 C14.5251,12.7261 14.5251,12.7261 14.5251,12.7261 C14.5251,6.4840 14.5251,6.4840 14.5251,6.4840 C11.8842,6.4840 11.8842,6.4840 11.8842,6.4840 Z M15.4854,6.4840 C15.4854,7.9245 15.4854,7.9245 15.4854,7.9245 C16.4458,9.1249 16.9259,10.0852 16.9259,12.2460 C16.9259,12.4860 16.9259,12.7261 16.9259,12.7261 C18.1263,12.7261 18.1263,12.7261 18.1263,12.7261 C18.1263,6.4840 18.1263,6.4840 18.1263,6.4840 C15.4854,6.4840 15.4854,6.4840 15.4854,6.4840 Z M19.0867,53.0598 C19.0867,54.5002 19.0867,54.5002 19.0867,54.5002 C20.0470,55.7007 20.5271,56.4209 20.5271,58.8217 C20.5271,59.0618 20.5271,59.0618 20.5271,59.3019 C21.9676,59.3019 21.9676,59.3019 21.9676,59.3019 C21.9676,53.0598 21.9676,53.0598 21.9676,53.0598 C19.0867,53.0598 19.0867,53.0598 19.0867,53.0598 Z M22.9280,53.0598 C22.9280,54.5002 22.9280,54.5002 22.9280,54.5002 C23.6482,55.7007 24.1284,56.4209 24.1284,58.8217 C24.1284,59.0618 24.1284,59.0618 24.1284,59.3019 C25.5689,59.3019 25.5689,59.3019 25.5689,59.3019 C25.5689,53.0598 25.5689,53.0598 25.5689,53.0598 C22.9280,53.0598 22.9280,53.0598 22.9280,53.0598 Z M26.5292,53.0598 C26.5292,54.5002 26.5292,54.5002 26.5292,54.5002 C27.2494,55.7007 27.7296,56.4209 27.7296,58.8217 C27.7296,59.0618 27.7296,59.0618 27.7296,59.3019 C29.1701,59.3019 29.1701,59.3019 29.1701,59.3019 C29.1701,53.0598 29.1701,53.0598 29.1701,53.0598 C26.5292,53.0598 26.5292,53.0598 26.5292,53.0598 Z M30.1304,53.0598 C30.1304,54.5002 30.1304,54.5002 30.1304,54.5002 C30.8506,55.7007 31.5709,56.4209 31.5709,58.8217 C31.5709,59.0618 31.3308,59.0618 31.3308,59.3019 C32.7713,59.3019 32.7713,59.3019 32.7713,59.3019 C32.7713,53.0598 32.7713,53.0598 32.7713,53.0598 C30.1304,53.0598 30.1304,53.0598 30.1304,53.0598 Z M33.7316,53.0598 C33.7316,54.5002 33.7316,54.5002 33.7316,54.5002 C34.4519,55.7007 35.1721,56.4209 35.1721,58.8217 C35.1721,59.0618 35.1721,59.0618 35.1721,59.3019 C36.3725,59.3019 36.3725,59.3019 36.3725,59.3019 C36.3725,53.0598 36.3725,53.0598 36.3725,53.0598 C33.7316,53.0598 33.7316,53.0598 33.7316,53.0598 Z M37.3328,53.0598 C37.3328,54.5002 37.3328,54.5002 37.3328,54.5002 C38.2932,55.7007 38.7733,56.4209 38.7733,58.8217 C38.7733,59.0618 38.7733,59.0618 38.7733,59.3019 C39.9737,59.3019 39.9737,59.3019 39.9737,59.3019 C39.9737,53.0598 39.9737,53.0598 39.9737,53.0598 C37.3328,53.0598 37.3328,53.0598 37.3328,53.0598 Z M40.9340,53.0598 C40.9340,54.5002 40.9340,54.5002 40.9340,54.5002 C41.8944,55.7007 42.3745,56.4209 42.3745,58.8217 C42.3745,59.0618 42.3745,59.0618 42.3745,59.3019 C43.5749,59.3019 43.5749,59.3019 43.5749,59.3019 C43.5749,53.0598 43.5749,53.0598 43.5749,53.0598 C40.9340,53.0598 40.9340,53.0598 40.9340,53.0598 Z M4.6818,53.0598 C4.6818,54.5002 4.6818,54.5002 4.6818,54.5002 C5.4020,55.7007 5.8822,56.4209 5.8822,58.8217 C5.8822,59.0618 5.8822,59.0618 5.8822,59.3019 C7.3227,59.3019 7.3227,59.3019 7.3227,59.3019 C7.3227,53.0598 7.3227,53.0598 7.3227,53.0598 C4.6818,53.0598 4.6818,53.0598 4.6818,53.0598 Z M8.2830,53.0598 C8.2830,54.5002 8.2830,54.5002 8.2830,54.5002 C9.0032,55.7007 9.7235,56.4209 9.7235,58.8217 C9.7235,59.0618 9.4834,59.0618 9.4834,59.3019 C10.9239,59.3019 10.9239,59.3019 10.9239,59.3019 C10.9239,53.0598 10.9239,53.0598 10.9239,53.0598 C8.2830,53.0598 8.2830,53.0598 8.2830,53.0598 Z M11.8842,53.0598 C11.8842,54.5002 11.8842,54.5002 11.8842,54.5002 C12.6045,55.7007 13.3247,56.4209 13.3247,58.8217 C13.3247,59.0618 13.3247,59.0618 13.3247,59.3019 C14.5251,59.3019 14.5251,59.3019 14.5251,59.3019 C14.5251,53.0598 14.5251,53.0598 14.5251,53.0598 C11.8842,53.0598 11.8842,53.0598 11.8842,53.0598 Z M15.4854,53.0598 C15.4854,54.5002 15.4854,54.5002 15.4854,54.5002 C16.4458,55.7007 16.9259,56.4209 16.9259,58.8217 C16.9259,59.0618 16.9259,59.0618 16.9259,59.3019 C18.1263,59.3019 18.1263,59.3019 18.1263,59.3019 C18.1263,53.0598 18.1263,53.0598 18.1263,53.0598 C15.4854,53.0598 15.4854,53.0598 15.4854,53.0598 Z M37.3328,64.5837 C37.3328,66.0241 37.3328,66.0241 37.3328,66.0241 C38.2932,67.4646 38.7733,68.1849 38.7733,70.3456 C38.7733,70.5857 38.7733,70.8258 38.7733,71.0659 C39.9737,71.0659 39.9737,71.0659 39.9737,71.0659 C39.9737,64.5837 39.9737,64.5837 39.9737,64.5837 C37.3328,64.5837 37.3328,64.5837 37.3328,64.5837 Z M40.9340,64.5837 C40.9340,66.0241 40.9340,66.0241 40.9340,66.0241 C41.8944,67.4646 42.3745,68.1849 42.3745,70.3456 C42.3745,70.5857 42.3745,70.8258 42.3745,71.0659 C43.5749,71.0659 43.5749,71.0659 43.5749,71.0659 C43.5749,64.5837 43.5749,64.5837 43.5749,64.5837 C40.9340,64.5837 40.9340,64.5837 40.9340,64.5837 Z M30.1304,64.5837 C30.1304,66.0241 30.1304,66.0241 30.1304,66.0241 C30.8506,67.4646 31.5709,68.1849 31.5709,70.3456 C31.5709,70.5857 31.3308,70.8258 31.3308,71.0659 C32.7713,71.0659 32.7713,71.0659 32.7713,71.0659 C32.7713,64.5837 32.7713,64.5837 32.7713,64.5837 C30.1304,64.5837 30.1304,64.5837 30.1304,64.5837 Z M33.7316,64.5837 C33.7316,66.0241 33.7316,66.0241 33.7316,66.0241 C34.4519,67.4646 35.1721,68.1849 35.1721,70.3456 C35.1721,70.5857 35.1721,70.8258 35.1721,71.0659 C36.3725,71.0659 36.3725,71.0659 36.3725,71.0659 C36.3725,64.5837 36.3725,64.5837 36.3725,64.5837 C33.7316,64.5837 33.7316,64.5837 33.7316,64.5837 Z M26.5292,64.5837 C26.5292,66.0241 26.5292,66.0241 26.5292,66.0241 C27.2494,67.4646 27.7296,68.1849 27.7296,70.3456 C27.7296,70.5857 27.7296,70.8258 27.7296,71.0659 C29.1701,71.0659 29.1701,71.0659 29.1701,71.0659 C29.1701,64.5837 29.1701,64.5837 29.1701,64.5837 C26.5292,64.5837 26.5292,64.5837 26.5292,64.5837 Z M19.0867,64.5837 C19.0867,66.0241 19.0867,66.0241 19.0867,66.0241 C20.0470,67.4646 20.5271,68.1849 20.5271,70.3456 C20.5271,70.5857 20.5271,70.8258 20.5271,71.0659 C21.9676,71.0659 21.9676,71.0659 21.9676,71.0659 C21.9676,64.5837 21.9676,64.5837 21.9676,64.5837 C19.0867,64.5837 19.0867,64.5837 19.0867,64.5837 Z M22.9280,64.5837 C22.9280,66.0241 22.9280,66.0241 22.9280,66.0241 C23.6482,67.4646 24.1284,68.1849 24.1284,70.3456 C24.1284,70.5857 24.1284,70.8258 24.1284,71.0659 C25.5689,71.0659 25.5689,71.0659 25.5689,71.0659 C25.5689,64.5837 25.5689,64.5837 25.5689,64.5837 C22.9280,64.5837 22.9280,64.5837 22.9280,64.5837 Z M11.8842,64.5837 C11.8842,66.0241 11.8842,66.0241 11.8842,66.0241 C12.6045,67.4646 13.3247,68.1849 13.3247,70.3456 C13.3247,70.5857 13.3247,70.8258 13.3247,71.0659 C14.5251,71.0659 14.5251,71.0659 14.5251,71.0659 C14.5251,64.5837 14.5251,64.5837 14.5251,64.5837 C11.8842,64.5837 11.8842,64.5837 11.8842,64.5837 Z M15.4854,64.5837 C15.4854,66.0241 15.4854,66.0241 15.4854,66.0241 C16.4458,67.4646 16.9259,68.1849 16.9259,70.3456 C16.9259,70.5857 16.9259,70.8258 16.9259,71.0659 C18.1263,71.0659 18.1263,71.0659 18.1263,71.0659 C18.1263,64.5837 18.1263,64.5837 18.1263,64.5837 C15.4854,64.5837 15.4854,64.5837 15.4854,64.5837 Z M8.2830,64.5837 C8.2830,66.0241 8.2830,66.0241 8.2830,66.0241 C9.0032,67.4646 9.7235,68.1849 9.7235,70.3456 C9.7235,70.5857 9.4834,70.8258 9.4834,71.0659 C10.9239,71.0659 10.9239,71.0659 10.9239,71.0659 C10.9239,64.5837 10.9239,64.5837 10.9239,64.5837 C8.2830,64.5837 8.2830,64.5837 8.2830,64.5837 Z M4.6818,64.5837 C4.6818,66.0241 4.6818,66.0241 4.6818,66.0241 C5.4020,67.4646 5.8822,68.1849 5.8822,70.3456 C5.8822,70.5857 5.8822,70.8258 5.8822,71.0659 C7.3227,71.0659 7.3227,71.0659 7.3227,71.0659 C7.3227,64.5837 7.3227,64.5837 7.3227,64.5837 C4.6818,64.5837 4.6818,64.5837 4.6818,64.5837 Z M19.0867,41.2958 C19.0867,42.7363 19.0867,42.7363 19.0867,42.7363 C20.0470,44.1768 20.5271,44.8970 20.5271,47.0577 C20.5271,47.2978 20.5271,47.5379 20.5271,47.7780 C21.9676,47.7780 21.9676,47.7780 21.9676,47.7780 C21.9676,41.2958 21.9676,41.2958 21.9676,41.2958 C19.0867,41.2958 19.0867,41.2958 19.0867,41.2958 Z M22.9280,41.2958 C22.9280,42.7363 22.9280,42.7363 22.9280,42.7363 C23.6482,44.1768 24.1284,44.8970 24.1284,47.0577 C24.1284,47.2978 24.1284,47.5379 24.1284,47.7780 C25.5689,47.7780 25.5689,47.7780 25.5689,47.7780 C25.5689,41.2958 25.5689,41.2958 25.5689,41.2958 C22.9280,41.2958 22.9280,41.2958 22.9280,41.2958 Z M26.5292,41.2958 C26.5292,42.7363 26.5292,42.7363 26.5292,42.7363 C27.2494,44.1768 27.7296,44.8970 27.7296,47.0577 C27.7296,47.2978 27.7296,47.5379 27.7296,47.7780 C29.1701,47.7780 29.1701,47.7780 29.1701,47.7780 C29.1701,41.2958 29.1701,41.2958 29.1701,41.2958 C26.5292,41.2958 26.5292,41.2958 26.5292,41.2958 Z M30.1304,41.2958 C30.1304,42.7363 30.1304,42.7363 30.1304,42.7363 C30.8506,44.1768 31.5709,44.8970 31.5709,47.0577 C31.5709,47.2978 31.3308,47.5379 31.3308,47.7780 C32.7713,47.7780 32.7713,47.7780 32.7713,47.7780 C32.7713,41.2958 32.7713,41.2958 32.7713,41.2958 C30.1304,41.2958 30.1304,41.2958 30.1304,41.2958 Z M33.7316,41.2958 C33.7316,42.7363 33.7316,42.7363 33.7316,42.7363 C34.4519,44.1768 35.1721,44.8970 35.1721,47.0577 C35.1721,47.2978 35.1721,47.5379 35.1721,47.7780 C36.3725,47.7780 36.3725,47.7780 36.3725,47.7780 C36.3725,41.2958 36.3725,41.2958 36.3725,41.2958 C33.7316,41.2958 33.7316,41.2958 33.7316,41.2958 Z M37.3328,41.2958 C37.3328,42.7363 37.3328,42.7363 37.3328,42.7363 C38.2932,44.1768 38.7733,44.8970 38.7733,47.0577 C38.7733,47.2978 38.7733,47.5379 38.7733,47.7780 C39.9737,47.7780 39.9737,47.7780 39.9737,47.7780 C39.9737,41.2958 39.9737,41.2958 39.9737,41.2958 C37.3328,41.2958 37.3328,41.2958 37.3328,41.2958 Z M40.9340,41.2958 C40.9340,42.7363 40.9340,42.7363 40.9340,42.7363 C41.8944,44.1768 42.3745,44.8970 42.3745,47.0577 C42.3745,47.2978 42.3745,47.5379 42.3745,47.7780 C43.5749,47.7780 43.5749,47.7780 43.5749,47.7780 C43.5749,41.2958 43.5749,41.2958 43.5749,41.2958 C40.9340,41.2958 40.9340,41.2958 40.9340,41.2958 Z M4.6818,41.2958 C4.6818,42.7363 4.6818,42.7363 4.6818,42.7363 C5.4020,44.1768 5.8822,44.8970 5.8822,47.0577 C5.8822,47.2978 5.8822,47.5379 5.8822,47.7780 C7.3227,47.7780 7.3227,47.7780 7.3227,47.7780 C7.3227,41.2958 7.3227,41.2958 7.3227,41.2958 C4.6818,41.2958 4.6818,41.2958 4.6818,41.2958 Z M8.2830,41.2958 C8.2830,42.7363 8.2830,42.7363 8.2830,42.7363 C9.0032,44.1768 9.7235,44.8970 9.7235,47.0577 C9.7235,47.2978 9.4834,47.5379 9.4834,47.7780 C10.9239,47.7780 10.9239,47.7780 10.9239,47.7780 C10.9239,41.2958 10.9239,41.2958 10.9239,41.2958 C8.2830,41.2958 8.2830,41.2958 8.2830,41.2958 Z M11.8842,41.2958 C11.8842,42.7363 11.8842,42.7363 11.8842,42.7363 C12.6045,44.1768 13.3247,44.8970 13.3247,47.0577 C13.3247,47.2978 13.3247,47.5379 13.3247,47.7780 C14.5251,47.7780 14.5251,47.7780 14.5251,47.7780 C14.5251,41.2958 14.5251,41.2958 14.5251,41.2958 C11.8842,41.2958 11.8842,41.2958 11.8842,41.2958 Z M15.4854,41.2958 C15.4854,42.7363 15.4854,42.7363 15.4854,42.7363 C16.4458,44.1768 16.9259,44.8970 16.9259,47.0577 C16.9259,47.2978 16.9259,47.5379 16.9259,47.7780 C18.1263,47.7780 18.1263,47.7780 18.1263,47.7780 C18.1263,41.2958 18.1263,41.2958 18.1263,41.2958 C15.4854,41.2958 15.4854,41.2958 15.4854,41.2958 Z M4.6818,29.7719 C4.6818,31.2124 4.6818,31.2124 4.6818,31.2124 C5.4020,32.4128 5.8822,33.1330 5.8822,35.5338 C5.8822,35.7739 5.8822,36.0140 5.8822,36.0140 C7.3227,36.0140 7.3227,36.0140 7.3227,36.0140 C7.3227,29.7719 7.3227,29.7719 7.3227,29.7719 C4.6818,29.7719 4.6818,29.7719 4.6818,29.7719 Z M8.2830,29.7719 C8.2830,31.2124 8.2830,31.2124 8.2830,31.2124 C9.0032,32.4128 9.7235,33.1330 9.7235,35.5338 C9.7235,35.7739 9.4834,36.0140 9.4834,36.0140 C10.9239,36.0140 10.9239,36.0140 10.9239,36.0140 C10.9239,29.7719 10.9239,29.7719 10.9239,29.7719 C8.2830,29.7719 8.2830,29.7719 8.2830,29.7719 Z M11.8842,29.7719 C11.8842,31.2124 11.8842,31.2124 11.8842,31.2124 C12.6045,32.4128 13.3247,33.1330 13.3247,35.5338 C13.3247,35.7739 13.3247,36.0140 13.3247,36.0140 C14.5251,36.0140 14.5251,36.0140 14.5251,36.0140 C14.5251,29.7719 14.5251,29.7719 14.5251,29.7719 C11.8842,29.7719 11.8842,29.7719 11.8842,29.7719 Z M15.4854,29.7719 C15.4854,31.2124 15.4854,31.2124 15.4854,31.2124 C16.4458,32.4128 16.9259,33.1330 16.9259,35.5338 C16.9259,35.7739 16.9259,36.0140 16.9259,36.0140 C18.1263,36.0140 18.1263,36.0140 18.1263,36.0140 C18.1263,29.7719 18.1263,29.7719 18.1263,29.7719 C15.4854,29.7719 15.4854,29.7719 15.4854,29.7719 Z M19.0867,29.7719 C19.0867,31.2124 19.0867,31.2124 19.0867,31.2124 C20.0470,32.4128 20.5271,33.1330 20.5271,35.5338 C20.5271,35.7739 20.5271,36.0140 20.5271,36.0140 C21.9676,36.0140 21.9676,36.0140 21.9676,36.0140 C21.9676,29.7719 21.9676,29.7719 21.9676,29.7719 C19.0867,29.7719 19.0867,29.7719 19.0867,29.7719 Z M22.9280,29.7719 C22.9280,31.2124 22.9280,31.2124 22.9280,31.2124 C23.6482,32.4128 24.1284,33.1330 24.1284,35.5338 C24.1284,35.7739 24.1284,36.0140 24.1284,36.0140 C25.5689,36.0140 25.5689,36.0140 25.5689,36.0140 C25.5689,29.7719 25.5689,29.7719 25.5689,29.7719 C22.9280,29.7719 22.9280,29.7719 22.9280,29.7719 Z M26.5292,29.7719 C26.5292,31.2124 26.5292,31.2124 26.5292,31.2124 C27.2494,32.4128 27.7296,33.1330 27.7296,35.5338 C27.7296,35.7739 27.7296,36.0140 27.7296,36.0140 C29.1701,36.0140 29.1701,36.0140 29.1701,36.0140 C29.1701,29.7719 29.1701,29.7719 29.1701,29.7719 C26.5292,29.7719 26.5292,29.7719 26.5292,29.7719 Z M30.1304,29.7719 C30.1304,31.2124 30.1304,31.2124 30.1304,31.2124 C30.8506,32.4128 31.5709,33.1330 31.5709,35.5338 C31.5709,35.7739 31.3308,36.0140 31.3308,36.0140 C32.7713,36.0140 32.7713,36.0140 32.7713,36.0140 C32.7713,29.7719 32.7713,29.7719 32.7713,29.7719 C30.1304,29.7719 30.1304,29.7719 30.1304,29.7719 Z M33.7316,29.7719 C33.7316,31.2124 33.7316,31.2124 33.7316,31.2124 C34.4519,32.4128 35.1721,33.1330 35.1721,35.5338 C35.1721,35.7739 35.1721,36.0140 35.1721,36.0140 C36.3725,36.0140 36.3725,36.0140 36.3725,36.0140 C36.3725,29.7719 36.3725,29.7719 36.3725,29.7719 C33.7316,29.7719 33.7316,29.7719 33.7316,29.7719 Z M37.3328,29.7719 C37.3328,31.2124 37.3328,31.2124 37.3328,31.2124 C38.2932,32.4128 38.7733,33.1330 38.7733,35.5338 C38.7733,35.7739 38.7733,36.0140 38.7733,36.0140 C39.9737,36.0140 39.9737,36.0140 39.9737,36.0140 C39.9737,29.7719 39.9737,29.7719 39.9737,29.7719 C37.3328,29.7719 37.3328,29.7719 37.3328,29.7719 Z M40.9340,29.7719 C40.9340,31.2124 40.9340,31.2124 40.9340,31.2124 C41.8944,32.4128 42.3745,33.1330 42.3745,35.5338 C42.3745,35.7739 42.3745,36.0140 42.3745,36.0140 C43.5749,36.0140 43.5749,36.0140 43.5749,36.0140 C43.5749,29.7719 43.5749,29.7719 43.5749,29.7719 C40.9340,29.7719 40.9340,29.7719 40.9340,29.7719 Z M19.0867,146.2113 C19.0867,147.6518 19.0867,147.6518 19.0867,147.6518 C20.0470,149.0922 20.5271,149.8125 20.5271,151.9732 C20.5271,152.2133 20.5271,152.4534 20.5271,152.6935 C21.9676,152.6935 21.9676,152.6935 21.9676,152.6935 C21.9676,146.2113 21.9676,146.2113 21.9676,146.2113 C19.0867,146.2113 19.0867,146.2113 19.0867,146.2113 Z M22.9280,146.2113 C22.9280,147.6518 22.9280,147.6518 22.9280,147.6518 C23.6482,149.0922 24.1284,149.8125 24.1284,151.9732 C24.1284,152.2133 24.1284,152.4534 24.1284,152.6935 C25.5689,152.6935 25.5689,152.6935 25.5689,152.6935 C25.5689,146.2113 25.5689,146.2113 25.5689,146.2113 C22.9280,146.2113 22.9280,146.2113 22.9280,146.2113 Z M26.5292,146.2113 C26.5292,147.6518 26.5292,147.6518 26.5292,147.6518 C27.2494,149.0922 27.7296,149.8125 27.7296,151.9732 C27.7296,152.2133 27.7296,152.4534 27.7296,152.6935 C29.1701,152.6935 29.1701,152.6935 29.1701,152.6935 C29.1701,146.2113 29.1701,146.2113 29.1701,146.2113 C26.5292,146.2113 26.5292,146.2113 26.5292,146.2113 Z M30.1304,146.2113 C30.1304,147.6518 30.1304,147.6518 30.1304,147.6518 C30.8506,149.0922 31.5709,149.8125 31.5709,151.9732 C31.5709,152.2133 31.3308,152.4534 31.3308,152.6935 C32.7713,152.6935 32.7713,152.6935 32.7713,152.6935 C32.7713,146.2113 32.7713,146.2113 32.7713,146.2113 C30.1304,146.2113 30.1304,146.2113 30.1304,146.2113 Z M33.7316,146.2113 C33.7316,147.6518 33.7316,147.6518 33.7316,147.6518 C34.4519,149.0922 35.1721,149.8125 35.1721,151.9732 C35.1721,152.2133 35.1721,152.4534 35.1721,152.6935 C36.3725,152.6935 36.3725,152.6935 36.3725,152.6935 C36.3725,146.2113 36.3725,146.2113 36.3725,146.2113 C33.7316,146.2113 33.7316,146.2113 33.7316,146.2113 Z M37.3328,146.2113 C37.3328,147.6518 37.3328,147.6518 37.3328,147.6518 C38.2932,149.0922 38.7733,149.8125 38.7733,151.9732 C38.7733,152.2133 38.7733,152.4534 38.7733,152.6935 C39.9737,152.6935 39.9737,152.6935 39.9737,152.6935 C39.9737,146.2113 39.9737,146.2113 39.9737,146.2113 C37.3328,146.2113 37.3328,146.2113 37.3328,146.2113 Z M40.9340,146.2113 C40.9340,147.6518 40.9340,147.6518 40.9340,147.6518 C41.8944,149.0922 42.3745,149.8125 42.3745,151.9732 C42.3745,152.2133 42.3745,152.4534 42.3745,152.6935 C43.5749,152.6935 43.5749,152.6935 43.5749,152.6935 C43.5749,146.2113 43.5749,146.2113 43.5749,146.2113 C40.9340,146.2113 40.9340,146.2113 40.9340,146.2113 Z M4.6818,146.2113 C4.6818,147.6518 4.6818,147.6518 4.6818,147.6518 C5.4020,149.0922 5.8822,149.8125 5.8822,151.9732 C5.8822,152.2133 5.8822,152.4534 5.8822,152.6935 C7.3227,152.6935 7.3227,152.6935 7.3227,152.6935 C7.3227,146.2113 7.3227,146.2113 7.3227,146.2113 C4.6818,146.2113 4.6818,146.2113 4.6818,146.2113 Z M8.2830,146.2113 C8.2830,147.6518 8.2830,147.6518 8.2830,147.6518 C9.0032,149.0922 9.7235,149.8125 9.7235,151.9732 C9.7235,152.2133 9.4834,152.4534 9.4834,152.6935 C10.9239,152.6935 10.9239,152.6935 10.9239,152.6935 C10.9239,146.2113 10.9239,146.2113 10.9239,146.2113 C8.2830,146.2113 8.2830,146.2113 8.2830,146.2113 Z M11.8842,146.2113 C11.8842,147.6518 11.8842,147.6518 11.8842,147.6518 C12.6045,149.0922 13.3247,149.8125 13.3247,151.9732 C13.3247,152.2133 13.3247,152.4534 13.3247,152.6935 C14.5251,152.6935 14.5251,152.6935 14.5251,152.6935 C14.5251,146.2113 14.5251,146.2113 14.5251,146.2113 C11.8842,146.2113 11.8842,146.2113 11.8842,146.2113 Z M15.4854,146.2113 C15.4854,147.6518 15.4854,147.6518 15.4854,147.6518 C16.4458,149.0922 16.9259,149.8125 16.9259,151.9732 C16.9259,152.2133 16.9259,152.4534 16.9259,152.6935 C18.1263,152.6935 18.1263,152.6935 18.1263,152.6935 C18.1263,146.2113 18.1263,146.2113 18.1263,146.2113 C15.4854,146.2113 15.4854,146.2113 15.4854,146.2113 Z M4.6818,157.9752 C4.6818,159.4157 4.6818,159.4157 4.6818,159.4157 C5.4020,160.6161 5.8822,161.3364 5.8822,163.7372 C5.8822,163.9773 5.8822,163.9773 5.8822,164.2174 C7.3227,164.2174 7.3227,164.2174 7.3227,164.2174 C7.3227,157.9752 7.3227,157.9752 7.3227,157.9752 C4.6818,157.9752 4.6818,157.9752 4.6818,157.9752 Z M8.2830,157.9752 C8.2830,159.4157 8.2830,159.4157 8.2830,159.4157 C9.0032,160.6161 9.7235,161.3364 9.7235,163.7372 C9.7235,163.9773 9.4834,163.9773 9.4834,164.2174 C10.9239,164.2174 10.9239,164.2174 10.9239,164.2174 C10.9239,157.9752 10.9239,157.9752 10.9239,157.9752 C8.2830,157.9752 8.2830,157.9752 8.2830,157.9752 Z M11.8842,157.9752 C11.8842,159.4157 11.8842,159.4157 11.8842,159.4157 C12.6045,160.6161 13.3247,161.3364 13.3247,163.7372 C13.3247,163.9773 13.3247,163.9773 13.3247,164.2174 C14.5251,164.2174 14.5251,164.2174 14.5251,164.2174 C14.5251,157.9752 14.5251,157.9752 14.5251,157.9752 C11.8842,157.9752 11.8842,157.9752 11.8842,157.9752 Z M15.4854,157.9752 C15.4854,159.4157 15.4854,159.4157 15.4854,159.4157 C16.4458,160.6161 16.9259,161.3364 16.9259,163.7372 C16.9259,163.9773 16.9259,163.9773 16.9259,164.2174 C18.1263,164.2174 18.1263,164.2174 18.1263,164.2174 C18.1263,157.9752 18.1263,157.9752 18.1263,157.9752 C15.4854,157.9752 15.4854,157.9752 15.4854,157.9752 Z M19.0867,157.9752 C19.0867,159.4157 19.0867,159.4157 19.0867,159.4157 C20.0470,160.6161 20.5271,161.3364 20.5271,163.7372 C20.5271,163.9773 20.5271,163.9773 20.5271,164.2174 C21.9676,164.2174 21.9676,164.2174 21.9676,164.2174 C21.9676,157.9752 21.9676,157.9752 21.9676,157.9752 C19.0867,157.9752 19.0867,157.9752 19.0867,157.9752 Z M22.9280,157.9752 C22.9280,159.4157 22.9280,159.4157 22.9280,159.4157 C23.6482,160.6161 24.1284,161.3364 24.1284,163.7372 C24.1284,163.9773 24.1284,163.9773 24.1284,164.2174 C25.5689,164.2174 25.5689,164.2174 25.5689,164.2174 C25.5689,157.9752 25.5689,157.9752 25.5689,157.9752 C22.9280,157.9752 22.9280,157.9752 22.9280,157.9752 Z M26.5292,157.9752 C26.5292,159.4157 26.5292,159.4157 26.5292,159.4157 C27.2494,160.6161 27.7296,161.3364 27.7296,163.7372 C27.7296,163.9773 27.7296,163.9773 27.7296,164.2174 C29.1701,164.2174 29.1701,164.2174 29.1701,164.2174 C29.1701,157.9752 29.1701,157.9752 29.1701,157.9752 C26.5292,157.9752 26.5292,157.9752 26.5292,157.9752 Z M30.1304,157.9752 C30.1304,159.4157 30.1304,159.4157 30.1304,159.4157 C30.8506,160.6161 31.5709,161.3364 31.5709,163.7372 C31.5709,163.9773 31.3308,163.9773 31.3308,164.2174 C32.7713,164.2174 32.7713,164.2174 32.7713,164.2174 C32.7713,157.9752 32.7713,157.9752 32.7713,157.9752 C30.1304,157.9752 30.1304,157.9752 30.1304,157.9752 Z M33.7316,157.9752 C33.7316,159.4157 33.7316,159.4157 33.7316,159.4157 C34.4519,160.6161 35.1721,161.3364 35.1721,163.7372 C35.1721,163.9773 35.1721,163.9773 35.1721,164.2174 C36.3725,164.2174 36.3725,164.2174 36.3725,164.2174 C36.3725,157.9752 36.3725,157.9752 36.3725,157.9752 C33.7316,157.9752 33.7316,157.9752 33.7316,157.9752 Z M37.3328,157.9752 C37.3328,159.4157 37.3328,159.4157 37.3328,159.4157 C38.2932,160.6161 38.7733,161.3364 38.7733,163.7372 C38.7733,163.9773 38.7733,163.9773 38.7733,164.2174 C39.9737,164.2174 39.9737,164.2174 39.9737,164.2174 C39.9737,157.9752 39.9737,157.9752 39.9737,157.9752 C37.3328,157.9752 37.3328,157.9752 37.3328,157.9752 Z M40.9340,157.9752 C40.9340,159.4157 40.9340,159.4157 40.9340,159.4157 C41.8944,160.6161 42.3745,161.3364 42.3745,163.7372 C42.3745,163.9773 42.3745,163.9773 42.3745,164.2174 C43.5749,164.2174 43.5749,164.2174 43.5749,164.2174 C43.5749,157.9752 43.5749,157.9752 43.5749,157.9752 C40.9340,157.9752 40.9340,157.9752 40.9340,157.9752 Z M4.6818,122.9234 C4.6818,124.3639 4.6818,124.3639 4.6818,124.3639 C5.4020,125.8044 5.8822,126.5246 5.8822,128.6853 C5.8822,128.9254 5.8822,129.1655 5.8822,129.4056 C7.3227,129.4056 7.3227,129.4056 7.3227,129.4056 C7.3227,122.9234 7.3227,122.9234 7.3227,122.9234 C4.6818,122.9234 4.6818,122.9234 4.6818,122.9234 Z M8.2830,122.9234 C8.2830,124.3639 8.2830,124.3639 8.2830,124.3639 C9.0032,125.8044 9.7235,126.5246 9.7235,128.6853 C9.7235,128.9254 9.4834,129.1655 9.4834,129.4056 C10.9239,129.4056 10.9239,129.4056 10.9239,129.4056 C10.9239,122.9234 10.9239,122.9234 10.9239,122.9234 C8.2830,122.9234 8.2830,122.9234 8.2830,122.9234 Z M11.8842,122.9234 C11.8842,124.3639 11.8842,124.3639 11.8842,124.3639 C12.6045,125.8044 13.3247,126.5246 13.3247,128.6853 C13.3247,128.9254 13.3247,129.1655 13.3247,129.4056 C14.5251,129.4056 14.5251,129.4056 14.5251,129.4056 C14.5251,122.9234 14.5251,122.9234 14.5251,122.9234 C11.8842,122.9234 11.8842,122.9234 11.8842,122.9234 Z M15.4854,122.9234 C15.4854,124.3639 15.4854,124.3639 15.4854,124.3639 C16.4458,125.8044 16.9259,126.5246 16.9259,128.6853 C16.9259,128.9254 16.9259,129.1655 16.9259,129.4056 C18.1263,129.4056 18.1263,129.4056 18.1263,129.4056 C18.1263,122.9234 18.1263,122.9234 18.1263,122.9234 C15.4854,122.9234 15.4854,122.9234 15.4854,122.9234 Z M19.0867,122.9234 C19.0867,124.3639 19.0867,124.3639 19.0867,124.3639 C20.0470,125.8044 20.5271,126.5246 20.5271,128.6853 C20.5271,128.9254 20.5271,129.1655 20.5271,129.4056 C21.9676,129.4056 21.9676,129.4056 21.9676,129.4056 C21.9676,122.9234 21.9676,122.9234 21.9676,122.9234 C19.0867,122.9234 19.0867,122.9234 19.0867,122.9234 Z M22.9280,122.9234 C22.9280,124.3639 22.9280,124.3639 22.9280,124.3639 C23.6482,125.8044 24.1284,126.5246 24.1284,128.6853 C24.1284,128.9254 24.1284,129.1655 24.1284,129.4056 C25.5689,129.4056 25.5689,129.4056 25.5689,129.4056 C25.5689,122.9234 25.5689,122.9234 25.5689,122.9234 C22.9280,122.9234 22.9280,122.9234 22.9280,122.9234 Z M26.5292,122.9234 C26.5292,124.3639 26.5292,124.3639 26.5292,124.3639 C27.2494,125.8044 27.7296,126.5246 27.7296,128.6853 C27.7296,128.9254 27.7296,129.1655 27.7296,129.4056 C29.1701,129.4056 29.1701,129.4056 29.1701,129.4056 C29.1701,122.9234 29.1701,122.9234 29.1701,122.9234 C26.5292,122.9234 26.5292,122.9234 26.5292,122.9234 Z M30.1304,122.9234 C30.1304,124.3639 30.1304,124.3639 30.1304,124.3639 C30.8506,125.8044 31.5709,126.5246 31.5709,128.6853 C31.5709,128.9254 31.3308,129.1655 31.3308,129.4056 C32.7713,129.4056 32.7713,129.4056 32.7713,129.4056 C32.7713,122.9234 32.7713,122.9234 32.7713,122.9234 C30.1304,122.9234 30.1304,122.9234 30.1304,122.9234 Z M33.7316,122.9234 C33.7316,124.3639 33.7316,124.3639 33.7316,124.3639 C34.4519,125.8044 35.1721,126.5246 35.1721,128.6853 C35.1721,128.9254 35.1721,129.1655 35.1721,129.4056 C36.3725,129.4056 36.3725,129.4056 36.3725,129.4056 C36.3725,122.9234 36.3725,122.9234 36.3725,122.9234 C33.7316,122.9234 33.7316,122.9234 33.7316,122.9234 Z M37.3328,122.9234 C37.3328,124.3639 37.3328,124.3639 37.3328,124.3639 C38.2932,125.8044 38.7733,126.5246 38.7733,128.6853 C38.7733,128.9254 38.7733,129.1655 38.7733,129.4056 C39.9737,129.4056 39.9737,129.4056 39.9737,129.4056 C39.9737,122.9234 39.9737,122.9234 39.9737,122.9234 C37.3328,122.9234 37.3328,122.9234 37.3328,122.9234 Z M40.9340,122.9234 C40.9340,124.3639 40.9340,124.3639 40.9340,124.3639 C41.8944,125.8044 42.3745,126.5246 42.3745,128.6853 C42.3745,128.9254 42.3745,129.1655 42.3745,129.4056 C43.5749,129.4056 43.5749,129.4056 43.5749,129.4056 C43.5749,122.9234 43.5749,122.9234 43.5749,122.9234 C40.9340,122.9234 40.9340,122.9234 40.9340,122.9234 Z M4.6818,134.6874 C4.6818,136.1279 4.6818,136.1279 4.6818,136.1279 C5.4020,137.3283 5.8822,138.0485 5.8822,140.4493 C5.8822,140.6894 5.8822,140.6894 5.8822,140.9295 C7.3227,140.9295 7.3227,140.9295 7.3227,140.9295 C7.3227,134.6874 7.3227,134.6874 7.3227,134.6874 C4.6818,134.6874 4.6818,134.6874 4.6818,134.6874 Z M8.2830,134.6874 C8.2830,136.1279 8.2830,136.1279 8.2830,136.1279 C9.0032,137.3283 9.7235,138.0485 9.7235,140.4493 C9.7235,140.6894 9.4834,140.6894 9.4834,140.9295 C10.9239,140.9295 10.9239,140.9295 10.9239,140.9295 C10.9239,134.6874 10.9239,134.6874 10.9239,134.6874 C8.2830,134.6874 8.2830,134.6874 8.2830,134.6874 Z M11.8842,134.6874 C11.8842,136.1279 11.8842,136.1279 11.8842,136.1279 C12.6045,137.3283 13.3247,138.0485 13.3247,140.4493 C13.3247,140.6894 13.3247,140.6894 13.3247,140.9295 C14.5251,140.9295 14.5251,140.9295 14.5251,140.9295 C14.5251,134.6874 14.5251,134.6874 14.5251,134.6874 C11.8842,134.6874 11.8842,134.6874 11.8842,134.6874 Z M15.4854,134.6874 C15.4854,136.1279 15.4854,136.1279 15.4854,136.1279 C16.4458,137.3283 16.9259,138.0485 16.9259,140.4493 C16.9259,140.6894 16.9259,140.6894 16.9259,140.9295 C18.1263,140.9295 18.1263,140.9295 18.1263,140.9295 C18.1263,134.6874 18.1263,134.6874 18.1263,134.6874 C15.4854,134.6874 15.4854,134.6874 15.4854,134.6874 Z M19.0867,134.6874 C19.0867,136.1279 19.0867,136.1279 19.0867,136.1279 C20.0470,137.3283 20.5271,138.0485 20.5271,140.4493 C20.5271,140.6894 20.5271,140.6894 20.5271,140.9295 C21.9676,140.9295 21.9676,140.9295 21.9676,140.9295 C21.9676,134.6874 21.9676,134.6874 21.9676,134.6874 C19.0867,134.6874 19.0867,134.6874 19.0867,134.6874 Z M22.9280,134.6874 C22.9280,136.1279 22.9280,136.1279 22.9280,136.1279 C23.6482,137.3283 24.1284,138.0485 24.1284,140.4493 C24.1284,140.6894 24.1284,140.6894 24.1284,140.9295 C25.5689,140.9295 25.5689,140.9295 25.5689,140.9295 C25.5689,134.6874 25.5689,134.6874 25.5689,134.6874 C22.9280,134.6874 22.9280,134.6874 22.9280,134.6874 Z M26.5292,134.6874 C26.5292,136.1279 26.5292,136.1279 26.5292,136.1279 C27.2494,137.3283 27.7296,138.0485 27.7296,140.4493 C27.7296,140.6894 27.7296,140.6894 27.7296,140.9295 C29.1701,140.9295 29.1701,140.9295 29.1701,140.9295 C29.1701,134.6874 29.1701,134.6874 29.1701,134.6874 C26.5292,134.6874 26.5292,134.6874 26.5292,134.6874 Z M30.1304,134.6874 C30.1304,136.1279 30.1304,136.1279 30.1304,136.1279 C30.8506,137.3283 31.5709,138.0485 31.5709,140.4493 C31.5709,140.6894 31.3308,140.6894 31.3308,140.9295 C32.7713,140.9295 32.7713,140.9295 32.7713,140.9295 C32.7713,134.6874 32.7713,134.6874 32.7713,134.6874 C30.1304,134.6874 30.1304,134.6874 30.1304,134.6874 Z M33.7316,134.6874 C33.7316,136.1279 33.7316,136.1279 33.7316,136.1279 C34.4519,137.3283 35.1721,138.0485 35.1721,140.4493 C35.1721,140.6894 35.1721,140.6894 35.1721,140.9295 C36.3725,140.9295 36.3725,140.9295 36.3725,140.9295 C36.3725,134.6874 36.3725,134.6874 36.3725,134.6874 C33.7316,134.6874 33.7316,134.6874 33.7316,134.6874 Z M37.3328,134.6874 C37.3328,136.1279 37.3328,136.1279 37.3328,136.1279 C38.2932,137.3283 38.7733,138.0485 38.7733,140.4493 C38.7733,140.6894 38.7733,140.6894 38.7733,140.9295 C39.9737,140.9295 39.9737,140.9295 39.9737,140.9295 C39.9737,134.6874 39.9737,134.6874 39.9737,134.6874 C37.3328,134.6874 37.3328,134.6874 37.3328,134.6874 Z M40.9340,134.6874 C40.9340,136.1279 40.9340,136.1279 40.9340,136.1279 C41.8944,137.3283 42.3745,138.0485 42.3745,140.4493 C42.3745,140.6894 42.3745,140.6894 42.3745,140.9295 C43.5749,140.9295 43.5749,140.9295 43.5749,140.9295 C43.5749,134.6874 43.5749,134.6874 43.5749,134.6874 C40.9340,134.6874 40.9340,134.6874 40.9340,134.6874 Z M19.0867,111.3995 C19.0867,112.8400 19.0867,112.8400 19.0867,112.8400 C20.0470,114.0404 20.5271,114.7606 20.5271,117.1614 C20.5271,117.4015 20.5271,117.6416 20.5271,117.6416 C21.9676,117.6416 21.9676,117.6416 21.9676,117.6416 C21.9676,111.3995 21.9676,111.3995 21.9676,111.3995 C19.0867,111.3995 19.0867,111.3995 19.0867,111.3995 Z M22.9280,111.3995 C22.9280,112.8400 22.9280,112.8400 22.9280,112.8400 C23.6482,114.0404 24.1284,114.7606 24.1284,117.1614 C24.1284,117.4015 24.1284,117.6416 24.1284,117.6416 C25.5689,117.6416 25.5689,117.6416 25.5689,117.6416 C25.5689,111.3995 25.5689,111.3995 25.5689,111.3995 C22.9280,111.3995 22.9280,111.3995 22.9280,111.3995 Z M26.5292,111.3995 C26.5292,112.8400 26.5292,112.8400 26.5292,112.8400 C27.2494,114.0404 27.7296,114.7606 27.7296,117.1614 C27.7296,117.4015 27.7296,117.6416 27.7296,117.6416 C29.1701,117.6416 29.1701,117.6416 29.1701,117.6416 C29.1701,111.3995 29.1701,111.3995 29.1701,111.3995 C26.5292,111.3995 26.5292,111.3995 26.5292,111.3995 Z M30.1304,111.3995 C30.1304,112.8400 30.1304,112.8400 30.1304,112.8400 C30.8506,114.0404 31.5709,114.7606 31.5709,117.1614 C31.5709,117.4015 31.3308,117.6416 31.3308,117.6416 C32.7713,117.6416 32.7713,117.6416 32.7713,117.6416 C32.7713,111.3995 32.7713,111.3995 32.7713,111.3995 C30.1304,111.3995 30.1304,111.3995 30.1304,111.3995 Z M33.7316,111.3995 C33.7316,112.8400 33.7316,112.8400 33.7316,112.8400 C34.4519,114.0404 35.1721,114.7606 35.1721,117.1614 C35.1721,117.4015 35.1721,117.6416 35.1721,117.6416 C36.3725,117.6416 36.3725,117.6416 36.3725,117.6416 C36.3725,111.3995 36.3725,111.3995 36.3725,111.3995 C33.7316,111.3995 33.7316,111.3995 33.7316,111.3995 Z M4.6818,111.3995 C4.6818,112.8400 4.6818,112.8400 4.6818,112.8400 C5.4020,114.0404 5.8822,114.7606 5.8822,117.1614 C5.8822,117.4015 5.8822,117.6416 5.8822,117.6416 C7.3227,117.6416 7.3227,117.6416 7.3227,117.6416 C7.3227,111.3995 7.3227,111.3995 7.3227,111.3995 C4.6818,111.3995 4.6818,111.3995 4.6818,111.3995 Z M8.2830,111.3995 C8.2830,112.8400 8.2830,112.8400 8.2830,112.8400 C9.0032,114.0404 9.7235,114.7606 9.7235,117.1614 C9.7235,117.4015 9.4834,117.6416 9.4834,117.6416 C10.9239,117.6416 10.9239,117.6416 10.9239,117.6416 C10.9239,111.3995 10.9239,111.3995 10.9239,111.3995 C8.2830,111.3995 8.2830,111.3995 8.2830,111.3995 Z M11.8842,111.3995 C11.8842,112.8400 11.8842,112.8400 11.8842,112.8400 C12.6045,114.0404 13.3247,114.7606 13.3247,117.1614 C13.3247,117.4015 13.3247,117.6416 13.3247,117.6416 C14.5251,117.6416 14.5251,117.6416 14.5251,117.6416 C14.5251,111.3995 14.5251,111.3995 14.5251,111.3995 C11.8842,111.3995 11.8842,111.3995 11.8842,111.3995 Z M15.4854,111.3995 C15.4854,112.8400 15.4854,112.8400 15.4854,112.8400 C16.4458,114.0404 16.9259,114.7606 16.9259,117.1614 C16.9259,117.4015 16.9259,117.6416 16.9259,117.6416 C18.1263,117.6416 18.1263,117.6416 18.1263,117.6416 C18.1263,111.3995 18.1263,111.3995 18.1263,111.3995 C15.4854,111.3995 15.4854,111.3995 15.4854,111.3995 Z M37.3328,111.3995 C37.3328,112.8400 37.3328,112.8400 37.3328,112.8400 C38.2932,114.0404 38.7733,114.7606 38.7733,117.1614 C38.7733,117.4015 38.7733,117.6416 38.7733,117.6416 C39.9737,117.6416 39.9737,117.6416 39.9737,117.6416 C39.9737,111.3995 39.9737,111.3995 39.9737,111.3995 C37.3328,111.3995 37.3328,111.3995 37.3328,111.3995 Z M40.9340,111.3995 C40.9340,112.8400 40.9340,112.8400 40.9340,112.8400 C41.8944,114.0404 42.3745,114.7606 42.3745,117.1614 C42.3745,117.4015 42.3745,117.6416 42.3745,117.6416 C43.5749,117.6416 43.5749,117.6416 43.5749,117.6416 C43.5749,111.3995 43.5749,111.3995 43.5749,111.3995 C40.9340,111.3995 40.9340,111.3995 40.9340,111.3995 Z M11.8842,99.6355 C11.8842,101.0760 11.8842,101.0760 11.8842,101.0760 C12.6045,102.5165 13.3247,103.2367 13.3247,105.6375 C13.3247,105.6375 13.3247,105.8776 13.3247,106.1177 C14.5251,106.1177 14.5251,106.1177 14.5251,106.1177 C14.5251,99.6355 14.5251,99.6355 14.5251,99.6355 C11.8842,99.6355 11.8842,99.6355 11.8842,99.6355 Z M15.4854,99.6355 C15.4854,101.0760 15.4854,101.0760 15.4854,101.0760 C16.4458,102.5165 16.9259,103.2367 16.9259,105.6375 C16.9259,105.6375 16.9259,105.8776 16.9259,106.1177 C18.1263,106.1177 18.1263,106.1177 18.1263,106.1177 C18.1263,99.6355 18.1263,99.6355 18.1263,99.6355 C15.4854,99.6355 15.4854,99.6355 15.4854,99.6355 Z M19.0867,99.6355 C19.0867,101.0760 19.0867,101.0760 19.0867,101.0760 C20.0470,102.5165 20.5271,103.2367 20.5271,105.6375 C20.5271,105.6375 20.5271,105.8776 20.5271,106.1177 C21.9676,106.1177 21.9676,106.1177 21.9676,106.1177 C21.9676,99.6355 21.9676,99.6355 21.9676,99.6355 C19.0867,99.6355 19.0867,99.6355 19.0867,99.6355 Z M22.9280,99.6355 C22.9280,101.0760 22.9280,101.0760 22.9280,101.0760 C23.6482,102.5165 24.1284,103.2367 24.1284,105.6375 C24.1284,105.6375 24.1284,105.8776 24.1284,106.1177 C25.5689,106.1177 25.5689,106.1177 25.5689,106.1177 C25.5689,99.6355 25.5689,99.6355 25.5689,99.6355 C22.9280,99.6355 22.9280,99.6355 22.9280,99.6355 Z M26.5292,99.6355 C26.5292,101.0760 26.5292,101.0760 26.5292,101.0760 C27.2494,102.5165 27.7296,103.2367 27.7296,105.6375 C27.7296,105.6375 27.7296,105.8776 27.7296,106.1177 C29.1701,106.1177 29.1701,106.1177 29.1701,106.1177 C29.1701,99.6355 29.1701,99.6355 29.1701,99.6355 C26.5292,99.6355 26.5292,99.6355 26.5292,99.6355 Z M30.1304,99.6355 C30.1304,101.0760 30.1304,101.0760 30.1304,101.0760 C30.8506,102.5165 31.5709,103.2367 31.5709,105.6375 C31.5709,105.6375 31.3308,105.8776 31.3308,106.1177 C32.7713,106.1177 32.7713,106.1177 32.7713,106.1177 C32.7713,99.6355 32.7713,99.6355 32.7713,99.6355 C30.1304,99.6355 30.1304,99.6355 30.1304,99.6355 Z M33.7316,99.6355 C33.7316,101.0760 33.7316,101.0760 33.7316,101.0760 C34.4519,102.5165 35.1721,103.2367 35.1721,105.6375 C35.1721,105.6375 35.1721,105.8776 35.1721,106.1177 C36.3725,106.1177 36.3725,106.1177 36.3725,106.1177 C36.3725,99.6355 36.3725,99.6355 36.3725,99.6355 C33.7316,99.6355 33.7316,99.6355 33.7316,99.6355 Z M37.3328,99.6355 C37.3328,101.0760 37.3328,101.0760 37.3328,101.0760 C38.2932,102.5165 38.7733,103.2367 38.7733,105.6375 C38.7733,105.6375 38.7733,105.8776 38.7733,106.1177 C39.9737,106.1177 39.9737,106.1177 39.9737,106.1177 C39.9737,99.6355 39.9737,99.6355 39.9737,99.6355 C37.3328,99.6355 37.3328,99.6355 37.3328,99.6355 Z M40.9340,99.6355 C40.9340,101.0760 40.9340,101.0760 40.9340,101.0760 C41.8944,102.5165 42.3745,103.2367 42.3745,105.6375 C42.3745,105.6375 42.3745,105.8776 42.3745,106.1177 C43.5749,106.1177 43.5749,106.1177 43.5749,106.1177 C43.5749,99.6355 43.5749,99.6355 43.5749,99.6355 C40.9340,99.6355 40.9340,99.6355 40.9340,99.6355 Z M4.6818,99.6355 C4.6818,101.0760 4.6818,101.0760 4.6818,101.0760 C5.4020,102.5165 5.8822,103.2367 5.8822,105.6375 C5.8822,105.6375 5.8822,105.8776 5.8822,106.1177 C7.3227,106.1177 7.3227,106.1177 7.3227,106.1177 C7.3227,99.6355 7.3227,99.6355 7.3227,99.6355 C4.6818,99.6355 4.6818,99.6355 4.6818,99.6355 Z M8.2830,99.6355 C8.2830,101.0760 8.2830,101.0760 8.2830,101.0760 C9.0032,102.5165 9.7235,103.2367 9.7235,105.6375 C9.7235,105.6375 9.4834,105.8776 9.4834,106.1177 C10.9239,106.1177 10.9239,106.1177 10.9239,106.1177 C10.9239,99.6355 10.9239,99.6355 10.9239,99.6355 C8.2830,99.6355 8.2830,99.6355 8.2830,99.6355 Z" style="fill-rule: evenodd; fill: #7f7f7f; "/>
    <g xmlns="http://www.w3.org/2000/svg" id="Layer1035">
      <path d="  M32.0510,51.3792 L2.5211,51.3792 L2.5211,74.6671 L32.0510,74.6671 L32.0510,51.3792 Z M32.0510,4.8034 L2.5211,4.8034 L2.5211,28.0913 L32.0510,28.0913 L32.0510,4.8034 Z" style="stroke-width: 0.0240; stroke-linecap: round; stroke-linejoin: round; fill-rule: evenodd; fill: #6089b9; "/>
      <path d="  M32.0510,51.3792 L2.5211,51.3792 L2.5211,74.6671 L32.0510,74.6671 L32.0510,51.3792 Z M32.0510,4.8034 L2.5211,4.8034 L2.5211,28.0913 L32.0510,28.0913 L32.0510,4.8034 Z" style="stroke-width: 0.0240; stroke: #ffffff; stroke-dasharray: none; stroke-linecap: round; stroke-linejoin: round; fill: none; "/>
    </g>
    <g xmlns="http://www.w3.org/2000/svg" id="Layer1036">
      <path d="  M45.7357,4.8034 L39.0134,4.8034 L39.0134,28.0913 L45.7357,28.0913 L45.7357,4.8034 Z M39.0134,4.8034 L32.0510,4.8034 L32.0510,28.0913 L39.0134,28.0913 L39.0134,4.8034 Z M45.7357,51.3792 L39.0134,51.3792 L39.0134,74.6671 L45.7357,74.6671 L45.7357,51.3792 Z M39.0134,51.3792 L32.0510,51.3792 L32.0510,74.6671 L39.0134,74.6671 L39.0134,51.3792 Z" style="stroke-width: 0.0240; stroke-linecap: round; stroke-linejoin: round; fill-rule: evenodd; fill: #2061a2; "/>
      <path d="  M45.7357,4.8034 L39.0134,4.8034 L39.0134,28.0913 L45.7357,28.0913 L45.7357,4.8034 Z M39.0134,4.8034 L32.0510,4.8034 L32.0510,28.0913 L39.0134,28.0913 L39.0134,4.8034 Z M45.7357,51.3792 L39.0134,51.3792 L39.0134,74.6671 L45.7357,74.6671 L45.7357,51.3792 Z M39.0134,51.3792 L32.0510,51.3792 L32.0510,74.6671 L39.0134,74.6671 L39.0134,51.3792 Z" style="stroke-width: 0.0240; stroke: #ffffff; stroke-dasharray: none; stroke-linecap: round; stroke-linejoin: round; fill: none; "/>
    </g>
    <path xmlns="http://www.w3.org/2000/svg" d="  M48.6166,0.6020 L-0.6000,0.6020 L2.0409,-2.9992 L46.2158,-2.9992 L48.6166,0.6020 Z" style="fill-rule: evenodd; fill: #b3b3b3; "/>
    <path xmlns="http://www.w3.org/2000/svg" d="  M20.2871,62.1828 C20.2871,58.8217 20.2871,58.8217 20.2871,58.8217 C20.2871,57.3812 19.3267,56.4209 17.8863,56.4209 C16.9259,56.4209 16.9259,56.4209 16.9259,56.4209 C15.4854,56.4209 14.5251,57.3812 14.5251,58.8217 C14.5251,62.1828 14.5251,62.1828 14.5251,62.1828 C14.5251,62.1828 14.7652,62.4229 15.0053,62.4229 C15.0053,62.4229 15.2454,62.1828 15.2454,62.1828 C15.2454,58.8217 15.2454,58.8217 15.2454,58.8217 C15.2454,58.1015 15.9656,57.1411 16.9259,57.1411 C17.8863,57.1411 17.8863,57.1411 17.8863,57.1411 C18.6065,57.1411 19.3267,58.1015 19.3267,58.8217 C19.3267,62.1828 19.3267,62.1828 19.3267,62.1828 C19.3267,62.1828 19.5668,62.4229 19.8069,62.4229 C20.0470,62.4229 20.2871,62.1828 20.2871,62.1828 Z" style="fill-rule: evenodd; fill: #ffffff; "/>
    <path xmlns="http://www.w3.org/2000/svg" d="  M43.8150,62.6630 C43.8150,60.9824 43.8150,60.9824 43.8150,60.9824 C43.8150,60.2622 43.3349,59.7820 42.6146,59.7820 C42.1345,59.7820 42.1345,59.7820 42.1345,59.7820 C41.4142,59.7820 40.9340,60.2622 40.9340,60.9824 C40.9340,62.6630 40.9340,62.6630 40.9340,62.6630 C40.9340,62.6630 41.1741,62.6630 41.1741,62.6630 C41.4142,62.6630 41.4142,62.6630 41.4142,62.6630 C41.4142,60.9824 41.4142,60.9824 41.4142,60.9824 C41.4142,60.5023 41.8944,60.2622 42.1345,60.2622 C42.6146,60.2622 42.6146,60.2622 42.6146,60.2622 C43.0948,60.2622 43.3349,60.5023 43.3349,60.9824 C43.3349,62.6630 43.3349,62.6630 43.3349,62.6630 C43.3349,62.6630 43.5749,62.6630 43.5749,62.6630 C43.5749,62.6630 43.8150,62.6630 43.8150,62.6630 Z" style="fill-rule: evenodd; fill: #ffffff; "/>
    <path xmlns="http://www.w3.org/2000/svg" d="  M36.8527,62.6630 C36.8527,60.9824 36.8527,60.9824 36.8527,60.9824 C36.8527,60.2622 36.3725,59.7820 35.8923,59.7820 C35.1721,59.7820 35.1721,59.7820 35.1721,59.7820 C34.6919,59.7820 34.2118,60.2622 34.2118,60.9824 C34.2118,62.6630 34.2118,62.6630 34.2118,62.6630 C34.2118,62.6630 34.2118,62.6630 34.4519,62.6630 C34.4519,62.6630 34.6919,62.6630 34.6919,62.6630 C34.6919,60.9824 34.6919,60.9824 34.6919,60.9824 C34.6919,60.5023 34.9320,60.2622 35.4122,60.2622 C35.6523,60.2622 35.6523,60.2622 35.6523,60.2622 C36.1324,60.2622 36.6126,60.5023 36.6126,60.9824 C36.6126,62.6630 36.6126,62.6630 36.6126,62.6630 C36.6126,62.6630 36.6126,62.6630 36.8527,62.6630 Z" style="fill-rule: evenodd; fill: #ffffff; "/>
    <path xmlns="http://www.w3.org/2000/svg" d="  M20.2871,15.6071 C20.2871,12.2460 20.2871,12.2460 20.2871,12.2460 C20.2871,10.8055 19.3267,9.8451 17.8863,9.8451 C16.9259,9.8451 16.9259,9.8451 16.9259,9.8451 C15.4854,9.8451 14.5251,10.8055 14.5251,12.2460 C14.5251,15.6071 14.5251,15.6071 14.5251,15.6071 C14.5251,15.6071 14.7652,15.8472 15.0053,15.8472 C15.0053,15.8472 15.2454,15.6071 15.2454,15.6071 C15.2454,12.2460 15.2454,12.2460 15.2454,12.2460 C15.2454,11.5257 15.9656,10.5654 16.9259,10.5654 C17.8863,10.5654 17.8863,10.5654 17.8863,10.5654 C18.6065,10.5654 19.3267,11.5257 19.3267,12.2460 C19.3267,15.6071 19.3267,15.6071 19.3267,15.6071 C19.3267,15.6071 19.5668,15.8472 19.8069,15.8472 C20.0470,15.8472 20.2871,15.6071 20.2871,15.6071 Z" style="fill-rule: evenodd; fill: #ffffff; "/>
    <path xmlns="http://www.w3.org/2000/svg" d="  M43.8150,16.0873 C43.8150,14.4067 43.8150,14.4067 43.8150,14.4067 C43.8150,13.6864 43.3349,13.2063 42.6146,13.2063 C42.1345,13.2063 42.1345,13.2063 42.1345,13.2063 C41.4142,13.2063 40.9340,13.6864 40.9340,14.4067 C40.9340,16.0873 40.9340,16.0873 40.9340,16.0873 C40.9340,16.0873 41.1741,16.0873 41.1741,16.0873 C41.4142,16.0873 41.4142,16.0873 41.4142,16.0873 C41.4142,14.4067 41.4142,14.4067 41.4142,14.4067 C41.4142,13.9265 41.8944,13.6864 42.1345,13.6864 C42.6146,13.6864 42.6146,13.6864 42.6146,13.6864 C43.0948,13.6864 43.3349,13.9265 43.3349,14.4067 C43.3349,16.0873 43.3349,16.0873 43.3349,16.0873 C43.3349,16.0873 43.5749,16.0873 43.5749,16.0873 C43.5749,16.0873 43.8150,16.0873 43.8150,16.0873 Z" style="fill-rule: evenodd; fill: #ffffff; "/>
    <path xmlns="http://www.w3.org/2000/svg" d="  M36.8527,16.0873 C36.8527,14.4067 36.8527,14.4067 36.8527,14.4067 C36.8527,13.6864 36.3725,13.2063 35.8923,13.2063 C35.1721,13.2063 35.1721,13.2063 35.1721,13.2063 C34.6919,13.2063 34.2118,13.6864 34.2118,14.4067 C34.2118,16.0873 34.2118,16.0873 34.2118,16.0873 C34.2118,16.0873 34.2118,16.0873 34.4519,16.0873 C34.4519,16.0873 34.6919,16.0873 34.6919,16.0873 C34.6919,14.4067 34.6919,14.4067 34.6919,14.4067 C34.6919,13.9265 34.9320,13.6864 35.4122,13.6864 C35.6523,13.6864 35.6523,13.6864 35.6523,13.6864 C36.1324,13.6864 36.6126,13.9265 36.6126,14.4067 C36.6126,16.0873 36.6126,16.0873 36.6126,16.0873 C36.6126,16.0873 36.6126,16.0873 36.8527,16.0873 Z" style="fill-rule: evenodd; fill: #ffffff; "/>
    <path xmlns="http://www.w3.org/2000/svg" d="  M37.3328,17.5277 C33.7316,17.5277 33.7316,17.5277 33.7316,17.5277 C33.7316,17.5277 33.4915,17.2877 33.2515,17.2877 C33.2515,17.5277 33.2515,17.5277 33.2515,17.5277 C33.2515,17.7678 33.2515,17.7678 33.2515,17.7678 C33.2515,17.7678 33.7316,18.0079 33.7316,18.0079 C33.9717,18.0079 37.3328,18.0079 37.3328,18.0079 C37.3328,18.0079 37.8130,17.7678 37.8130,17.7678 C37.8130,17.5277 37.8130,17.5277 37.8130,17.5277 C37.8130,17.2877 37.8130,17.2877 37.8130,17.2877 C37.5729,17.2877 37.3328,17.5277 37.3328,17.5277 Z M37.3328,18.2480 C33.7316,18.2480 33.7316,18.2480 33.7316,18.2480 C33.7316,18.2480 33.4915,18.2480 33.2515,18.0079 C33.2515,18.2480 33.2515,18.2480 33.2515,18.2480 C33.2515,18.4881 33.2515,18.4881 33.2515,18.4881 C33.2515,18.4881 33.7316,18.7281 33.7316,18.7281 C33.9717,18.7281 37.3328,18.7281 37.3328,18.7281 C37.3328,18.7281 37.8130,18.4881 37.8130,18.4881 C37.8130,18.2480 37.8130,18.2480 37.8130,18.2480 C37.8130,18.0079 37.8130,18.0079 37.8130,18.0079 C37.5729,18.2480 37.3328,18.2480 37.3328,18.2480 Z M37.3328,16.8075 C33.7316,16.8075 33.7316,16.8075 33.7316,16.8075 C33.7316,16.8075 33.4915,16.5674 33.2515,16.3273 C33.2515,16.8075 33.2515,16.8075 33.2515,16.8075 C33.2515,17.0476 33.7316,17.2877 33.7316,17.2877 C33.9717,17.2877 37.3328,17.2877 37.3328,17.2877 C37.3328,17.2877 37.8130,17.0476 37.8130,16.8075 C37.8130,16.3273 37.8130,16.3273 37.8130,16.3273 C37.5729,16.5674 37.3328,16.8075 37.3328,16.8075 Z M37.3328,18.9682 C33.7316,18.9682 33.7316,18.9682 33.7316,18.9682 C33.7316,18.9682 33.4915,18.9682 33.2515,18.7281 C33.2515,19.2083 33.2515,19.2083 33.2515,19.2083 C33.2515,19.4484 33.7316,19.6885 33.7316,19.6885 C37.3328,19.6885 37.3328,19.6885 37.3328,19.6885 C37.3328,19.6885 37.8130,19.4484 37.8130,19.2083 C37.8130,18.7281 37.8130,18.7281 37.8130,18.7281 C37.5729,18.9682 37.3328,18.9682 37.3328,18.9682 Z" style="fill-rule: evenodd; fill: #ffffff; "/>
    <g xmlns="http://www.w3.org/2000/svg" id="Layer1037">
      <path d="  M45.7357,98.1950 L2.5211,98.1950 L2.5211,121.2428 L45.7357,121.2428 L45.7357,98.1950 Z" style="stroke-width: 0.0240; stroke-linecap: round; stroke-linejoin: round; fill-rule: evenodd; fill: #171868; "/>
      <path d="  M45.7357,98.1950 L2.5211,98.1950 L2.5211,121.2428 L45.7357,121.2428 L45.7357,98.1950 Z" style="stroke-width: 0.0240; stroke: #ffffff; stroke-dasharray: none; stroke-linecap: round; stroke-linejoin: round; fill: none; "/>
    </g>
    <path xmlns="http://www.w3.org/2000/svg" d="  M21.2474,65.3039 C13.5648,65.3039 13.5648,65.3039 13.5648,65.3039 C13.3247,65.3039 12.8445,65.0638 12.6045,64.5837 C12.6045,65.5440 12.6045,65.5440 12.6045,65.5440 C12.6045,65.7841 12.6045,65.7841 12.6045,65.7841 C12.6045,66.0241 13.3247,66.2642 13.5648,66.5043 C13.8049,66.5043 21.0073,66.5043 21.0073,66.5043 C21.4875,66.2642 22.2077,66.0241 22.2077,65.7841 C22.2077,65.5440 22.2077,65.5440 22.2077,65.5440 C22.2077,64.5837 22.2077,64.5837 22.2077,64.5837 C21.7276,65.0638 21.2474,65.3039 21.2474,65.3039 Z M21.2474,66.9845 C13.5648,66.9845 13.5648,66.9845 13.5648,66.9845 C13.3247,66.9845 12.8445,66.7444 12.6045,66.2642 C12.6045,67.2246 12.6045,67.2246 12.6045,67.2246 C12.6045,67.4646 12.6045,67.4646 12.6045,67.4646 C12.6045,67.7047 13.3247,67.9448 13.5648,68.1849 C13.8049,68.1849 21.0073,68.1849 21.0073,68.1849 C21.4875,67.9448 22.2077,67.7047 22.2077,67.4646 C22.2077,67.2246 22.2077,67.2246 22.2077,67.2246 C22.2077,66.2642 22.2077,66.2642 22.2077,66.2642 C21.7276,66.7444 21.2474,66.9845 21.2474,66.9845 Z M21.2474,63.6233 C13.5648,63.6233 13.5648,63.6233 13.5648,63.6233 C13.3247,63.6233 12.8445,63.3833 12.6045,62.9031 C12.6045,63.8634 12.6045,63.8634 12.6045,63.8634 C12.6045,64.1035 12.6045,64.1035 12.6045,64.1035 C12.6045,64.3436 13.3247,64.5837 13.5648,64.8237 C13.8049,64.8237 21.0073,64.8237 21.0073,64.8237 C21.4875,64.5837 22.2077,64.3436 22.2077,64.1035 C22.2077,63.8634 22.2077,63.8634 22.2077,63.8634 C22.2077,62.9031 22.2077,62.9031 22.2077,62.9031 C21.7276,63.3833 21.2474,63.6233 21.2474,63.6233 Z M21.2474,68.6650 C13.5648,68.6650 13.5648,68.6650 13.5648,68.6650 C13.3247,68.4250 12.8445,68.1849 12.6045,67.9448 C12.6045,68.6650 12.6045,68.6650 12.6045,68.6650 C12.6045,69.3853 13.5648,69.6254 13.5648,69.6254 C21.2474,69.6254 21.2474,69.6254 21.2474,69.6254 C21.2474,69.6254 22.2077,69.3853 22.2077,68.6650 C22.2077,67.9448 22.2077,67.9448 22.2077,67.9448 C21.7276,68.1849 21.2474,68.4250 21.2474,68.6650 Z M37.3328,64.1035 C33.7316,64.1035 33.7316,64.1035 33.7316,64.1035 C33.7316,64.1035 33.4915,63.8634 33.2515,63.8634 C33.2515,64.1035 33.2515,64.1035 33.2515,64.1035 C33.2515,64.3436 33.2515,64.3436 33.2515,64.3436 C33.2515,64.3436 33.7316,64.5837 33.7316,64.5837 C33.9717,64.5837 37.3328,64.5837 37.3328,64.5837 C37.3328,64.5837 37.8130,64.3436 37.8130,64.3436 C37.8130,64.1035 37.8130,64.1035 37.8130,64.1035 C37.8130,63.8634 37.8130,63.8634 37.8130,63.8634 C37.5729,63.8634 37.3328,64.1035 37.3328,64.1035 Z M37.3328,64.8237 C33.7316,64.8237 33.7316,64.8237 33.7316,64.8237 C33.7316,64.8237 33.4915,64.8237 33.2515,64.5837 C33.2515,64.8237 33.2515,64.8237 33.2515,64.8237 C33.2515,65.0638 33.2515,65.0638 33.2515,65.0638 C33.2515,65.0638 33.7316,65.3039 33.7316,65.3039 C33.9717,65.3039 37.3328,65.3039 37.3328,65.3039 C37.3328,65.3039 37.8130,65.0638 37.8130,65.0638 C37.8130,64.8237 37.8130,64.8237 37.8130,64.8237 C37.8130,64.5837 37.8130,64.5837 37.8130,64.5837 C37.5729,64.8237 37.3328,64.8237 37.3328,64.8237 Z M37.3328,63.3833 C33.7316,63.3833 33.7316,63.3833 33.7316,63.3833 C33.7316,63.3833 33.4915,63.1432 33.2515,62.9031 C33.2515,63.3833 33.2515,63.3833 33.2515,63.3833 C33.2515,63.6233 33.7316,63.8634 33.7316,63.8634 C33.9717,63.8634 37.3328,63.8634 37.3328,63.8634 C37.3328,63.8634 37.8130,63.6233 37.8130,63.3833 C37.8130,62.9031 37.8130,62.9031 37.8130,62.9031 C37.5729,63.1432 37.3328,63.3833 37.3328,63.3833 Z M37.3328,65.5440 C33.7316,65.5440 33.7316,65.5440 33.7316,65.5440 C33.7316,65.5440 33.4915,65.5440 33.2515,65.3039 C33.2515,65.7841 33.2515,65.7841 33.2515,65.7841 C33.2515,66.0241 33.7316,66.2642 33.7316,66.2642 C37.3328,66.2642 37.3328,66.2642 37.3328,66.2642 C37.3328,66.2642 37.8130,66.0241 37.8130,65.7841 C37.8130,65.3039 37.8130,65.3039 37.8130,65.3039 C37.5729,65.5440 37.3328,65.5440 37.3328,65.5440 Z M44.2952,64.1035 C40.6940,64.1035 40.6940,64.1035 40.6940,64.1035 C40.4539,64.1035 40.4539,64.1035 40.4539,64.1035 C40.4539,64.1035 40.2138,63.8634 40.2138,63.8634 C40.2138,64.1035 40.2138,64.1035 40.2138,64.1035 C40.2138,64.3436 40.2138,64.3436 40.2138,64.3436 C40.2138,64.3436 40.4539,64.5837 40.6940,64.5837 C40.6940,64.5837 44.0551,64.5837 44.0551,64.5837 C44.2952,64.5837 44.5353,64.3436 44.5353,64.3436 C44.5353,64.1035 44.5353,64.1035 44.5353,64.1035 C44.5353,63.8634 44.5353,63.8634 44.5353,63.8634 C44.5353,63.8634 44.2952,64.1035 44.2952,64.1035 Z M44.2952,64.8237 C40.6940,64.8237 40.6940,64.8237 40.6940,64.8237 C40.4539,64.8237 40.4539,64.8237 40.4539,64.8237 C40.4539,64.8237 40.2138,64.8237 40.2138,64.5837 C40.2138,64.8237 40.2138,64.8237 40.2138,64.8237 C40.2138,65.0638 40.2138,65.0638 40.2138,65.0638 C40.2138,65.0638 40.4539,65.3039 40.6940,65.3039 C40.6940,65.3039 44.0551,65.3039 44.0551,65.3039 C44.2952,65.3039 44.5353,65.0638 44.5353,65.0638 C44.5353,64.8237 44.5353,64.8237 44.5353,64.8237 C44.5353,64.5837 44.5353,64.5837 44.5353,64.5837 C44.5353,64.8237 44.2952,64.8237 44.2952,64.8237 Z M44.2952,63.3833 C40.6940,63.3833 40.6940,63.3833 40.6940,63.3833 C40.4539,63.3833 40.4539,63.3833 40.4539,63.3833 C40.4539,63.3833 40.2138,63.1432 40.2138,62.9031 C40.2138,63.3833 40.2138,63.3833 40.2138,63.3833 C40.2138,63.6233 40.4539,63.8634 40.6940,63.8634 C40.6940,63.8634 44.0551,63.8634 44.0551,63.8634 C44.2952,63.8634 44.5353,63.6233 44.5353,63.3833 C44.5353,62.9031 44.5353,62.9031 44.5353,62.9031 C44.5353,63.1432 44.2952,63.3833 44.2952,63.3833 Z M44.2952,65.5440 C40.6940,65.5440 40.6940,65.5440 40.6940,65.5440 C40.4539,65.5440 40.4539,65.5440 40.4539,65.5440 C40.4539,65.5440 40.2138,65.5440 40.2138,65.3039 C40.2138,65.7841 40.2138,65.7841 40.2138,65.7841 C40.2138,66.0241 40.6940,66.2642 40.6940,66.2642 C44.2952,66.2642 44.2952,66.2642 44.2952,66.2642 C44.2952,66.2642 44.5353,66.0241 44.5353,65.7841 C44.5353,65.3039 44.5353,65.3039 44.5353,65.3039 C44.5353,65.5440 44.2952,65.5440 44.2952,65.5440 Z M44.2952,17.5277 C40.6940,17.5277 40.6940,17.5277 40.6940,17.5277 C40.4539,17.5277 40.4539,17.5277 40.4539,17.5277 C40.4539,17.5277 40.2138,17.2877 40.2138,17.2877 C40.2138,17.5277 40.2138,17.5277 40.2138,17.5277 C40.2138,17.7678 40.2138,17.7678 40.2138,17.7678 C40.2138,17.7678 40.4539,18.0079 40.6940,18.0079 C40.6940,18.0079 44.0551,18.0079 44.0551,18.0079 C44.2952,18.0079 44.5353,17.7678 44.5353,17.7678 C44.5353,17.5277 44.5353,17.5277 44.5353,17.5277 C44.5353,17.2877 44.5353,17.2877 44.5353,17.2877 C44.5353,17.2877 44.2952,17.5277 44.2952,17.5277 Z M44.2952,18.2480 C40.6940,18.2480 40.6940,18.2480 40.6940,18.2480 C40.4539,18.2480 40.4539,18.2480 40.4539,18.2480 C40.4539,18.2480 40.2138,18.2480 40.2138,18.0079 C40.2138,18.2480 40.2138,18.2480 40.2138,18.2480 C40.2138,18.4881 40.2138,18.4881 40.2138,18.4881 C40.2138,18.4881 40.4539,18.7281 40.6940,18.7281 C40.6940,18.7281 44.0551,18.7281 44.0551,18.7281 C44.2952,18.7281 44.5353,18.4881 44.5353,18.4881 C44.5353,18.2480 44.5353,18.2480 44.5353,18.2480 C44.5353,18.0079 44.5353,18.0079 44.5353,18.0079 C44.5353,18.2480 44.2952,18.2480 44.2952,18.2480 Z M44.2952,16.8075 C40.6940,16.8075 40.6940,16.8075 40.6940,16.8075 C40.4539,16.8075 40.4539,16.8075 40.4539,16.8075 C40.4539,16.8075 40.2138,16.5674 40.2138,16.3273 C40.2138,16.8075 40.2138,16.8075 40.2138,16.8075 C40.2138,17.0476 40.4539,17.2877 40.6940,17.2877 C40.6940,17.2877 44.0551,17.2877 44.0551,17.2877 C44.2952,17.2877 44.5353,17.0476 44.5353,16.8075 C44.5353,16.3273 44.5353,16.3273 44.5353,16.3273 C44.5353,16.5674 44.2952,16.8075 44.2952,16.8075 Z M44.2952,18.9682 C40.6940,18.9682 40.6940,18.9682 40.6940,18.9682 C40.4539,18.9682 40.4539,18.9682 40.4539,18.9682 C40.4539,18.9682 40.2138,18.9682 40.2138,18.7281 C40.2138,19.2083 40.2138,19.2083 40.2138,19.2083 C40.2138,19.4484 40.6940,19.6885 40.6940,19.6885 C44.2952,19.6885 44.2952,19.6885 44.2952,19.6885 C44.2952,19.6885 44.5353,19.4484 44.5353,19.2083 C44.5353,18.7281 44.5353,18.7281 44.5353,18.7281 C44.5353,18.9682 44.2952,18.9682 44.2952,18.9682 Z M21.2474,18.7281 C13.5648,18.7281 13.5648,18.7281 13.5648,18.7281 C13.3247,18.7281 12.8445,18.4881 12.6045,18.0079 C12.6045,18.9682 12.6045,18.9682 12.6045,18.9682 C12.6045,19.2083 12.6045,19.2083 12.6045,19.2083 C12.6045,19.4484 13.3247,19.6885 13.5648,19.9286 C13.8049,19.9286 21.0073,19.9286 21.0073,19.9286 C21.4875,19.6885 22.2077,19.4484 22.2077,19.2083 C22.2077,18.9682 22.2077,18.9682 22.2077,18.9682 C22.2077,18.0079 22.2077,18.0079 22.2077,18.0079 C21.7276,18.4881 21.2474,18.7281 21.2474,18.7281 Z M21.2474,20.4087 C13.5648,20.4087 13.5648,20.4087 13.5648,20.4087 C13.3247,20.4087 12.8445,20.1686 12.6045,19.6885 C12.6045,20.6488 12.6045,20.6488 12.6045,20.6488 C12.6045,20.8889 12.6045,20.8889 12.6045,20.8889 C12.6045,21.1290 13.3247,21.3690 13.5648,21.6091 C13.8049,21.6091 21.0073,21.6091 21.0073,21.6091 C21.4875,21.3690 22.2077,21.1290 22.2077,20.8889 C22.2077,20.6488 22.2077,20.6488 22.2077,20.6488 C22.2077,19.6885 22.2077,19.6885 22.2077,19.6885 C21.7276,20.1686 21.2474,20.4087 21.2474,20.4087 Z M21.2474,17.0476 C13.5648,17.0476 13.5648,17.0476 13.5648,17.0476 C13.3247,17.0476 12.8445,16.8075 12.6045,16.3273 C12.6045,17.2877 12.6045,17.2877 12.6045,17.2877 C12.6045,17.5277 12.6045,17.5277 12.6045,17.5277 C12.6045,17.7678 13.3247,18.0079 13.5648,18.2480 C13.8049,18.2480 21.0073,18.2480 21.0073,18.2480 C21.4875,18.0079 22.2077,17.7678 22.2077,17.5277 C22.2077,17.2877 22.2077,17.2877 22.2077,17.2877 C22.2077,16.3273 22.2077,16.3273 22.2077,16.3273 C21.7276,16.8075 21.2474,17.0476 21.2474,17.0476 Z M21.2474,22.0893 C13.5648,22.0893 13.5648,22.0893 13.5648,22.0893 C13.3247,21.8492 12.8445,21.6091 12.6045,21.3690 C12.6045,22.0893 12.6045,22.0893 12.6045,22.0893 C12.6045,22.8095 13.5648,23.0496 13.5648,23.0496 C21.2474,23.0496 21.2474,23.0496 21.2474,23.0496 C21.2474,23.0496 22.2077,22.8095 22.2077,22.0893 C22.2077,21.3690 22.2077,21.3690 22.2077,21.3690 C21.7276,21.6091 21.2474,21.8492 21.2474,22.0893 Z M22.2077,15.6071 C22.2077,15.1269 21.2474,14.6468 21.2474,14.6468 C13.5648,14.6468 13.5648,14.6468 13.5648,14.6468 C13.5648,14.6468 12.6045,15.1269 12.6045,15.6071 C12.6045,16.0873 13.5648,16.5674 13.5648,16.5674 C21.2474,16.5674 21.2474,16.5674 21.2474,16.5674 C21.2474,16.5674 22.2077,16.0873 22.2077,15.6071 Z M37.8130,16.0873 C37.8130,15.8472 37.3328,15.6071 37.3328,15.6071 C33.7316,15.6071 33.7316,15.6071 33.7316,15.6071 C33.7316,15.6071 33.2515,15.8472 33.2515,16.0873 C33.2515,16.3273 33.7316,16.5674 33.7316,16.5674 C37.3328,16.5674 37.3328,16.5674 37.3328,16.5674 C37.3328,16.5674 37.8130,16.3273 37.8130,16.0873 Z M44.5353,16.0873 C44.5353,15.8472 44.2952,15.6071 44.2952,15.6071 C40.6940,15.6071 40.6940,15.6071 40.6940,15.6071 C40.6940,15.6071 40.2138,15.8472 40.2138,16.0873 C40.2138,16.3273 40.6940,16.5674 40.6940,16.5674 C44.2952,16.5674 44.2952,16.5674 44.2952,16.5674 C44.2952,16.5674 44.5353,16.3273 44.5353,16.0873 Z M22.2077,62.1828 C22.2077,61.7027 21.2474,61.2225 21.2474,61.2225 C13.5648,61.2225 13.5648,61.2225 13.5648,61.2225 C13.5648,61.2225 12.6045,61.7027 12.6045,62.1828 C12.6045,62.6630 13.5648,63.1432 13.5648,63.1432 C21.2474,63.1432 21.2474,63.1432 21.2474,63.1432 C21.2474,63.1432 22.2077,62.6630 22.2077,62.1828 Z M44.5353,62.6630 C44.5353,62.4229 44.2952,62.1828 44.2952,62.1828 C40.6940,62.1828 40.6940,62.1828 40.6940,62.1828 C40.6940,62.1828 40.2138,62.4229 40.2138,62.6630 C40.2138,62.9031 40.6940,63.1432 40.6940,63.1432 C44.2952,63.1432 44.2952,63.1432 44.2952,63.1432 C44.2952,63.1432 44.5353,62.9031 44.5353,62.6630 Z M37.8130,62.6630 C37.8130,62.4229 37.3328,62.1828 37.3328,62.1828 C33.7316,62.1828 33.7316,62.1828 33.7316,62.1828 C33.7316,62.1828 33.2515,62.4229 33.2515,62.6630 C33.2515,62.9031 33.7316,63.1432 33.7316,63.1432 C37.3328,63.1432 37.3328,63.1432 37.3328,63.1432 C37.3328,63.1432 37.8130,62.9031 37.8130,62.6630 Z M41.4142,113.8003 C41.1741,113.3201 40.6940,113.0801 40.6940,113.0801 C35.1721,113.0801 35.1721,113.0801 35.1721,113.0801 C35.1721,113.0801 34.4519,113.3201 34.4519,113.8003 C34.4519,114.2805 35.1721,114.5206 35.1721,114.5206 C40.6940,114.5206 40.6940,114.5206 40.6940,114.5206 C40.6940,114.5206 41.1741,114.2805 41.4142,113.8003 Z M40.6940,115.9610 C35.1721,115.9610 35.1721,115.9610 35.1721,115.9610 C35.1721,115.9610 34.6919,115.7210 34.4519,115.4809 C34.4519,116.2011 34.4519,116.2011 34.4519,116.2011 C34.4519,116.4412 34.9320,116.6813 35.1721,116.9214 C35.4122,116.9214 40.4539,116.9214 40.4539,116.9214 C40.6940,116.6813 41.4142,116.4412 41.4142,116.2011 C41.4142,115.4809 41.4142,115.4809 41.4142,115.4809 C41.1741,115.7210 40.6940,115.9610 40.6940,115.9610 Z M40.6940,117.1614 C35.1721,117.1614 35.1721,117.1614 35.1721,117.1614 C35.1721,117.1614 34.6919,116.9214 34.4519,116.6813 C34.4519,117.4015 34.4519,117.4015 34.4519,117.4015 C34.4519,117.6416 34.9320,117.8817 35.1721,117.8817 C35.4122,117.8817 40.4539,117.8817 40.4539,117.8817 C40.6940,117.8817 41.4142,117.6416 41.4142,117.4015 C41.4142,116.6813 41.4142,116.6813 41.4142,116.6813 C41.1741,116.9214 40.6940,117.1614 40.6940,117.1614 Z M40.6940,114.7606 C35.1721,114.7606 35.1721,114.7606 35.1721,114.7606 C35.1721,114.7606 34.6919,114.5206 34.4519,114.2805 C34.4519,115.0007 34.4519,115.0007 34.4519,115.0007 C34.4519,115.2408 34.4519,115.2408 34.4519,115.2408 C34.4519,115.2408 34.9320,115.4809 35.1721,115.7210 C35.4122,115.7210 40.4539,115.7210 40.4539,115.7210 C40.6940,115.4809 41.4142,115.2408 41.4142,115.2408 C41.4142,115.0007 41.4142,115.0007 41.4142,115.0007 C41.4142,114.2805 41.4142,114.2805 41.4142,114.2805 C41.1741,114.5206 40.6940,114.7606 40.6940,114.7606 Z M40.6940,118.3618 C35.1721,118.3618 35.1721,118.3618 35.1721,118.3618 C35.1721,118.3618 34.6919,118.1218 34.4519,117.8817 C34.4519,118.3618 34.4519,118.3618 34.4519,118.3618 C34.4519,118.8420 35.1721,119.0821 35.1721,119.0821 C40.6940,119.0821 40.6940,119.0821 40.6940,119.0821 C40.6940,119.0821 41.4142,118.8420 41.4142,118.3618 C41.4142,117.8817 41.4142,117.8817 41.4142,117.8817 C41.1741,118.1218 40.6940,118.3618 40.6940,118.3618 Z" style="fill-rule: evenodd; fill: #ffffff; "/>
    <path xmlns="http://www.w3.org/2000/svg" d="  M16.9259,9.6051 C15.4854,9.6051 14.2850,10.8055 14.2850,12.2460 C14.2850,15.8472 14.2850,15.8472 14.2850,15.8472 C14.5251,15.8472 14.7652,16.0873 15.0053,16.0873 C15.0053,16.0873 15.2454,15.8472 15.4854,15.8472 C15.4854,12.2460 15.4854,12.2460 15.4854,12.2460 C15.4854,11.5257 16.2057,10.8055 16.9259,10.8055 C17.8863,10.8055 17.8863,10.8055 17.8863,10.8055 C18.6065,10.8055 19.3267,11.5257 19.3267,12.2460 C19.3267,15.8472 19.3267,15.8472 19.3267,15.8472 C19.3267,15.8472 19.5668,16.0873 19.8069,16.0873 C20.0470,16.0873 20.2871,15.8472 20.2871,15.8472 C20.5271,15.8472 20.5271,15.8472 20.5271,15.8472 C20.5271,12.2460 20.5271,12.2460 20.5271,12.2460 C20.5271,10.8055 19.3267,9.6051 17.8863,9.6051 C16.9259,9.6051 16.9259,9.6051 16.9259,9.6051 Z M35.1721,13.2063 C34.6919,13.2063 33.9717,13.6864 33.9717,14.4067 C33.9717,16.0873 33.9717,16.0873 33.9717,16.0873 C34.2118,16.0873 34.2118,16.0873 34.2118,16.0873 C34.2118,16.0873 34.2118,16.3273 34.4519,16.3273 C34.4519,16.3273 34.6919,16.0873 34.6919,16.0873 C34.6919,14.4067 34.6919,14.4067 34.6919,14.4067 C34.6919,14.1666 34.9320,13.6864 35.4122,13.6864 C35.6523,13.6864 35.6523,13.6864 35.6523,13.6864 C36.1324,13.6864 36.3725,14.1666 36.3725,14.4067 C36.3725,16.0873 36.3725,16.0873 36.3725,16.0873 C36.6126,16.0873 36.6126,16.3273 36.8527,16.3273 C36.8527,16.3273 36.8527,16.0873 37.0928,16.0873 C37.0928,14.4067 37.0928,14.4067 37.0928,14.4067 C37.0928,13.6864 36.3725,13.2063 35.8923,13.2063 C35.1721,13.2063 35.1721,13.2063 35.1721,13.2063 Z M42.1345,13.2063 C41.4142,13.2063 40.9340,13.6864 40.9340,14.4067 C40.9340,16.0873 40.9340,16.0873 40.9340,16.0873 C40.9340,16.0873 41.1741,16.3273 41.1741,16.3273 C41.4142,16.3273 41.4142,16.0873 41.4142,16.0873 C41.4142,14.4067 41.4142,14.4067 41.4142,14.4067 C41.4142,14.1666 41.8944,13.6864 42.1345,13.6864 C42.6146,13.6864 42.6146,13.6864 42.6146,13.6864 C43.0948,13.6864 43.3349,14.1666 43.3349,14.4067 C43.3349,16.0873 43.3349,16.0873 43.3349,16.0873 C43.3349,16.0873 43.3349,16.3273 43.5749,16.3273 C43.8150,16.3273 43.8150,16.0873 43.8150,16.0873 C43.8150,14.4067 43.8150,14.4067 43.8150,14.4067 C43.8150,13.6864 43.3349,13.2063 42.6146,13.2063 C42.1345,13.2063 42.1345,13.2063 42.1345,13.2063 Z M42.1345,59.7820 C41.4142,59.7820 40.9340,60.2622 40.9340,60.9824 C40.9340,62.6630 40.9340,62.6630 40.9340,62.6630 C40.9340,62.6630 41.1741,62.9031 41.1741,62.9031 C41.4142,62.9031 41.4142,62.6630 41.4142,62.6630 C41.4142,60.9824 41.4142,60.9824 41.4142,60.9824 C41.4142,60.7424 41.8944,60.2622 42.1345,60.2622 C42.6146,60.2622 42.6146,60.2622 42.6146,60.2622 C43.0948,60.2622 43.3349,60.7424 43.3349,60.9824 C43.3349,62.6630 43.3349,62.6630 43.3349,62.6630 C43.3349,62.6630 43.3349,62.9031 43.5749,62.9031 C43.8150,62.9031 43.8150,62.6630 43.8150,62.6630 C43.8150,60.9824 43.8150,60.9824 43.8150,60.9824 C43.8150,60.2622 43.3349,59.7820 42.6146,59.7820 C42.1345,59.7820 42.1345,59.7820 42.1345,59.7820 Z M35.1721,59.7820 C34.6919,59.7820 33.9717,60.2622 33.9717,60.9824 C33.9717,62.6630 33.9717,62.6630 33.9717,62.6630 C34.2118,62.6630 34.2118,62.6630 34.2118,62.6630 C34.2118,62.6630 34.2118,62.9031 34.4519,62.9031 C34.4519,62.9031 34.6919,62.6630 34.6919,62.6630 C34.6919,60.9824 34.6919,60.9824 34.6919,60.9824 C34.6919,60.7424 34.9320,60.2622 35.4122,60.2622 C35.6523,60.2622 35.6523,60.2622 35.6523,60.2622 C36.1324,60.2622 36.3725,60.7424 36.3725,60.9824 C36.3725,62.6630 36.3725,62.6630 36.3725,62.6630 C36.6126,62.6630 36.6126,62.9031 36.8527,62.9031 C36.8527,62.9031 36.8527,62.6630 37.0928,62.6630 C37.0928,60.9824 37.0928,60.9824 37.0928,60.9824 C37.0928,60.2622 36.3725,59.7820 35.8923,59.7820 C35.1721,59.7820 35.1721,59.7820 35.1721,59.7820 Z M16.9259,56.1808 C15.4854,56.1808 14.2850,57.3812 14.2850,58.8217 C14.2850,62.4229 14.2850,62.4229 14.2850,62.4229 C14.5251,62.4229 14.7652,62.6630 15.0053,62.6630 C15.0053,62.6630 15.2454,62.4229 15.4854,62.4229 C15.4854,58.8217 15.4854,58.8217 15.4854,58.8217 C15.4854,58.1015 16.2057,57.3812 16.9259,57.3812 C17.8863,57.3812 17.8863,57.3812 17.8863,57.3812 C18.6065,57.3812 19.3267,58.1015 19.3267,58.8217 C19.3267,62.4229 19.3267,62.4229 19.3267,62.4229 C19.3267,62.4229 19.5668,62.6630 19.8069,62.6630 C20.0470,62.6630 20.2871,62.4229 20.2871,62.4229 C20.5271,62.4229 20.5271,62.4229 20.5271,62.4229 C20.5271,58.8217 20.5271,58.8217 20.5271,58.8217 C20.5271,57.3812 19.3267,56.1808 17.8863,56.1808 C16.9259,56.1808 16.9259,56.1808 16.9259,56.1808 Z" style="fill-rule: evenodd; fill: #cccccc; "/>
    <path xmlns="http://www.w3.org/2000/svg" d="  M35.6523,110.7506 C35.6523,113.6316 35.6523,113.6316 35.6523,113.6316 C35.6523,113.8716 35.6523,113.8716 35.6523,113.8716 C35.8923,113.8716 35.8923,113.8716 36.1324,113.8716 C36.3725,113.8716 36.3725,113.8716 36.3725,113.8716 C36.6126,113.6316 36.6126,113.6316 36.6126,113.6316 C36.6126,110.7506 36.6126,110.7506 36.6126,110.7506 L35.6523,110.7506 Z" style="fill-rule: evenodd; fill: #cccccc; "/>
    <g xmlns="http://www.w3.org/2000/svg" id="Layer1038">
      <path d="  M24.1284,110.6793 L40.4539,110.6793 L33.2515,104.4371 L24.1284,104.4371 L24.1284,110.6793 Z M24.1284,110.6793 L8.0429,110.6793 L15.2454,104.4371 L24.1284,104.4371 L24.1284,110.6793 Z" style="stroke-width: 0.0240; stroke-linecap: round; stroke-linejoin: round; fill-rule: evenodd; fill: #7f7f7f; "/>
      <path d="  M24.1284,110.6793 L40.4539,110.6793 L33.2515,104.4371 L24.1284,104.4371 L24.1284,110.6793 Z M24.1284,110.6793 L8.0429,110.6793 L15.2454,104.4371 L24.1284,104.4371 L24.1284,110.6793 Z" style="stroke-width: 0.0240; stroke: #ffffff; stroke-dasharray: none; stroke-linecap: round; stroke-linejoin: round; fill: none; "/>
    </g>
    <path xmlns="http://www.w3.org/2000/svg" d="  M24.1284,108.5185 C21.7276,103.9570 9.9636,108.2784 9.9636,108.2784 C15.2454,102.5165 15.2454,102.5165 15.2454,102.5165 C15.2454,102.5165 20.0470,100.1157 24.1284,102.5165 C24.1284,108.5185 24.1284,108.5185 24.1284,108.5185 Z M24.1284,108.5185 C26.7693,103.9570 38.5332,108.2784 38.5332,108.2784 C33.2515,102.5165 33.2515,102.5165 33.2515,102.5165 C33.2515,102.5165 28.4498,100.1157 24.1284,102.5165 C24.1284,108.5185 24.1284,108.5185 24.1284,108.5185 Z" style="fill-rule: evenodd; fill: #ffffff; "/>
    <path xmlns="http://www.w3.org/2000/svg" d="  M36.3725,106.8380 C33.9717,106.1177 28.4498,104.6772 25.5689,106.3578 M35.8923,105.8776 C33.7316,105.3975 28.4498,103.9570 25.5689,105.3975 M34.6919,104.9173 C32.7713,104.1971 28.2097,103.2367 25.3288,104.6772 M33.9717,103.9570 C32.0510,103.4768 28.2097,102.5165 25.3288,103.7169 M33.2515,102.9967 C31.5709,102.5165 28.2097,101.7962 25.5689,102.7566 M11.8842,106.8380 C14.5251,106.1177 20.0470,104.6772 22.9280,106.3578 M12.6045,105.8776 C14.7652,105.3975 20.0470,103.9570 22.9280,105.3975 M13.5648,104.9173 C15.7255,104.1971 20.2871,103.2367 23.1680,104.6772 M14.5251,103.9570 C16.2057,103.4768 20.2871,102.5165 23.1680,103.7169 M15.2454,102.9967 C16.9259,102.5165 20.0470,101.7962 22.9280,102.7566" style="stroke-width: 0.0141; stroke: #000000; stroke-dasharray: none; stroke-linecap: round; stroke-linejoin: round; fill: none; "/>
    <path xmlns="http://www.w3.org/2000/svg" d="  M24.1284,102.5165 L24.1284,110.1991" style="stroke-width: 0.0141; stroke: #cccccc; stroke-dasharray: none; stroke-linecap: round; stroke-linejoin: round; fill: none; "/>
    <path xmlns="http://www.w3.org/2000/svg" d="  M24.1284,108.5185 C21.7276,103.9570 9.9636,108.2784 9.9636,108.2784 C9.9636,110.4392 9.9636,110.4392 9.9636,110.4392 C9.9636,110.4392 21.0073,106.1177 24.1284,110.1991 C24.1284,108.5185 24.1284,108.5185 24.1284,108.5185 Z M24.1284,108.5185 C26.7693,103.9570 38.5332,108.2784 38.5332,108.2784 C38.5332,110.4392 38.5332,110.4392 38.5332,110.4392 C38.5332,110.4392 27.4895,106.1177 24.1284,110.1991 C24.1284,108.5185 24.1284,108.5185 24.1284,108.5185 Z" style="fill-rule: evenodd; fill: #cccccc; "/>
    <path xmlns="http://www.w3.org/2000/svg" d="  M36.6126,107.0780 C36.6126,106.5979 37.0928,106.1177 37.5729,106.1177 C38.2932,106.1177 38.2932,106.1177 38.2932,106.1177 C38.7733,106.1177 39.2535,106.5979 39.2535,107.0780 C39.2535,113.8003 39.2535,113.8003 39.2535,113.8003 C39.2535,114.0404 39.2535,114.0404 39.2535,114.0404 C39.2535,114.0404 39.4936,114.0404 39.7336,114.0404 C39.9737,114.0404 39.9737,114.0404 39.9737,114.0404 C40.2138,113.8003 40.2138,113.8003 40.2138,113.8003 C40.2138,107.0780 40.2138,107.0780 40.2138,107.0780 C40.2138,105.8776 39.2535,105.1574 38.2932,105.1574 C37.5729,105.1574 37.5729,105.1574 37.5729,105.1574 C36.6126,105.1574 35.6523,105.8776 35.6523,107.0780 C35.6523,107.0780 35.8923,107.0780 36.1324,107.0780 C36.3725,107.0780 36.6126,107.0780 36.6126,107.0780 Z" style="fill-rule: evenodd; fill: #cccccc; "/>
    <text xmlns="http://www.w3.org/2000/svg" x="-13.3400" y="180.6600">
      <tspan font-family="Arial" font-size="4.5000" fill="#000000" fill-opacity="1.0000" stroke-opacity="1.0000">
NearStore with LockVault and Compliance Journal</tspan>
    </text>
    <!--converted by libvisio2svg-->
  </g>
</svg>
