<svg xmlns="http://www.w3.org/2000/svg" xmlns:xlink="http://www.w3.org/1999/xlink" version="1.1" width="7.2000000000" height="171.3600000000">
  <title><![CDATA[R200 Series racked]]></title>
  <g transform=" scale(1.000000) ">
    <path xmlns="http://www.w3.org/2000/svg" d="  M49.2166,0.8420 L0.0000,0.8420 L2.6409,-2.7592 L46.8158,-2.7592 L49.2166,0.8420 Z" style="fill-rule: evenodd; fill: #b3b3b3; "/>
    <path xmlns="http://www.w3.org/2000/svg" d="  M49.2166,0.8420 L0.0000,0.8420 L0.0000,172.2600 L49.2166,172.2600 L49.2166,0.8420 Z" style="fill-rule: evenodd; fill: #7f7f7f; "/>
    <g xmlns="http://www.w3.org/2000/svg" id="Layer1029">
      <path d="  M45.3453,74.9397 C4.2276,74.9397 4.2276,74.9397 4.2276,74.9397 C4.2276,74.9397 3.1822,80.6312 3.1822,83.7673 C3.1822,87.0195 3.6468,89.8071 4.2276,91.8979 C4.2276,98.4024 4.2276,98.4024 4.2276,98.4024 C45.3453,98.4024 45.3453,98.4024 45.3453,98.4024 C45.3453,91.8979 45.3453,91.8979 45.3453,91.8979 C45.9261,89.8071 46.2745,87.0195 46.2745,83.7673 C46.2745,80.6312 45.3453,74.9397 45.3453,74.9397 Z" style="stroke-width: 0.0000; stroke-linecap: round; stroke-linejoin: round; fill-rule: evenodd; fill: #000000; "/>
      <path d="  M45.3453,74.9397 C4.2276,74.9397 4.2276,74.9397 4.2276,74.9397 C4.2276,74.9397 3.1822,80.6312 3.1822,83.7673 C3.1822,87.0195 3.6468,89.8071 4.2276,91.8979 C4.2276,98.4024 4.2276,98.4024 4.2276,98.4024 C45.3453,98.4024 45.3453,98.4024 45.3453,98.4024 C45.3453,91.8979 45.3453,91.8979 45.3453,91.8979 C45.9261,89.8071 46.2745,87.0195 46.2745,83.7673 C46.2745,80.6312 45.3453,74.9397 45.3453,74.9397 Z" style="stroke-width: 0.0000; stroke: #000000; stroke-dasharray: none; stroke-linecap: round; stroke-linejoin: round; fill: none; "/>
    </g>
    <g xmlns="http://www.w3.org/2000/svg" id="Layer1030">
      <path d="  M43.2546,77.1466 C43.2546,77.1466 41.2800,76.7981 38.2600,76.7981 C35.4724,76.9143 32.5686,77.6112 32.5686,77.6112 C32.5686,77.6112 23.0442,76.7981 18.6304,76.7981 C14.2166,76.7981 6.3183,77.1466 6.3183,77.1466 C6.3183,77.1466 5.3891,81.2119 5.3891,84.1157 C5.3891,86.9034 5.7376,90.6202 6.3183,92.4786 C6.3183,92.4786 11.4290,93.6402 21.1857,93.6402 C27.6902,93.6402 35.1239,91.3171 35.1239,91.3171 C43.2546,91.3171 43.2546,91.3171 43.2546,91.3171 C43.8353,89.5748 44.1838,86.9034 44.1838,84.1157 C44.1838,81.2119 43.2546,77.1466 43.2546,77.1466 Z" style="stroke-width: 0.0000; stroke-linecap: round; stroke-linejoin: round; fill-rule: evenodd; fill: #333333; "/>
      <path d="  M43.2546,77.1466 C43.2546,77.1466 41.2800,76.7981 38.2600,76.7981 C35.4724,76.9143 32.5686,77.6112 32.5686,77.6112 C32.5686,77.6112 23.0442,76.7981 18.6304,76.7981 C14.2166,76.7981 6.3183,77.1466 6.3183,77.1466 C6.3183,77.1466 5.3891,81.2119 5.3891,84.1157 C5.3891,86.9034 5.7376,90.6202 6.3183,92.4786 C6.3183,92.4786 11.4290,93.6402 21.1857,93.6402 C27.6902,93.6402 35.1239,91.3171 35.1239,91.3171 C43.2546,91.3171 43.2546,91.3171 43.2546,91.3171 C43.8353,89.5748 44.1838,86.9034 44.1838,84.1157 C44.1838,81.2119 43.2546,77.1466 43.2546,77.1466 Z" style="stroke-width: 0.0000; stroke: #000000; stroke-dasharray: none; stroke-linecap: round; stroke-linejoin: round; fill: none; "/>
    </g>
    <path xmlns="http://www.w3.org/2000/svg" d="  M40.5831,87.8326 C40.8154,86.6710 41.0477,85.2772 41.0477,83.6511 C41.0477,82.0250 40.8154,80.5150 40.5831,79.4696 M38.7247,87.8326 C39.0731,86.6710 39.1893,85.2772 39.1893,83.6511 C39.1893,82.0250 39.0731,80.5150 38.7247,79.4696 M34.4270,88.6456 C34.7755,87.4841 35.0078,85.8580 35.0078,83.9996 C35.0078,82.2573 34.7755,80.6312 34.4270,79.4696 M32.1040,88.9941 C32.4525,87.7164 32.5686,86.0903 32.5686,84.2319 C32.5686,82.3734 32.4525,80.6312 32.1040,79.4696 M29.6648,89.3425 C30.0133,88.0649 30.2456,86.3226 30.2456,84.3480 C30.2456,82.4896 30.0133,80.7473 29.6648,79.4696 M27.2256,89.6910 C27.5741,88.4133 27.8064,86.5549 27.8064,84.5803 C27.8064,82.6057 27.5741,80.7473 27.2256,79.4696 M24.9026,90.0394 C25.2510,88.6456 25.4834,86.7872 25.4834,84.6965 C25.4834,82.6057 25.2510,80.7473 24.9026,79.4696 M22.4634,90.3879 C22.8119,88.9941 23.0442,87.0195 23.0442,84.9288 C23.0442,82.7219 22.8119,80.8635 22.4634,79.4696 M20.0242,90.7364 C20.4888,89.2264 20.7211,87.2518 20.7211,85.0449 C20.7211,82.8380 20.4888,80.8635 20.0242,79.4696 M17.7012,91.0848 C18.0496,89.5748 18.2819,87.4841 18.2819,85.2772 C18.2819,82.9542 18.0496,80.9796 17.7012,79.4696 M15.4943,90.9687 C15.8428,89.4587 16.1912,87.4841 16.1912,85.1611 C16.1912,82.9542 15.8428,80.8635 15.4943,79.4696 M13.4036,90.8525 C13.7520,89.3425 13.9843,87.3680 13.9843,85.1611 C13.9843,82.9542 13.7520,80.8635 13.4036,79.4696 M11.1967,90.7364 C11.5451,89.3425 11.7774,87.2518 11.7774,85.0449 C11.7774,82.8380 11.5451,80.8635 11.1967,79.4696 M9.1060,90.6202 C9.4544,89.2264 9.6867,87.2518 9.6867,85.0449 C9.6867,82.8380 9.4544,80.8635 9.1060,79.4696 M36.9824,87.8326 C37.2147,86.6710 37.4470,85.2772 37.4470,83.6511 C37.4470,82.0250 37.2147,80.5150 36.9824,79.4696" style="stroke-width: 0.0591; stroke: #ffffff; stroke-dasharray: none; stroke-linecap: round; stroke-linejoin: round; fill: none; "/>
    <path xmlns="http://www.w3.org/2000/svg" d="  M43.3707,95.1501 L37.0985,95.1501 L37.0985,93.5240 L43.3707,93.5240 L43.3707,95.1501 Z" style="fill-rule: evenodd; fill: #ffffff; "/>
    <g xmlns="http://www.w3.org/2000/svg" id="Layer1031">
      <path d="  M3.1211,109.9589 L46.3357,109.9589 L46.3357,98.4350 L3.1211,98.4350 L3.1211,109.9589 Z M3.1211,109.9589 L3.1211,121.4828 L46.3357,121.4828 L46.3357,109.9589 L3.1211,109.9589 Z M3.1211,121.4828 L3.1211,133.2468 L46.3357,133.2468 L46.3357,121.4828 L3.1211,121.4828 Z M3.1211,133.2468 L3.1211,144.7707 L46.3357,144.7707 L46.3357,133.2468 L3.1211,133.2468 Z M3.1211,144.7707 L3.1211,156.5347 L46.3357,156.5347 L46.3357,144.7707 L3.1211,144.7707 Z M3.1211,156.5347 L3.1211,168.0586 L46.3357,168.0586 L46.3357,156.5347 L3.1211,156.5347 Z M46.3357,63.1431 L3.1211,63.1431 L3.1211,74.9071 L46.3357,74.9071 L46.3357,63.1431 Z M46.3357,51.6192 L3.1211,51.6192 L3.1211,63.1431 L46.3357,63.1431 L46.3357,51.6192 Z M46.3357,39.8552 L3.1211,39.8552 L3.1211,51.6192 L46.3357,51.6192 L46.3357,39.8552 Z M46.3357,28.3313 L3.1211,28.3313 L3.1211,39.8552 L46.3357,39.8552 L46.3357,28.3313 Z M46.3357,16.8074 L3.1211,16.8074 L3.1211,28.3313 L46.3357,28.3313 L46.3357,16.8074 Z M46.3357,16.8074 L46.3357,5.0434 L3.1211,5.0434 L3.1211,16.8074 L46.3357,16.8074 Z" style="stroke-width: 0.0240; stroke-linecap: round; stroke-linejoin: round; fill-rule: evenodd; fill: #000000; "/>
      <path d="  M3.1211,109.9589 L46.3357,109.9589 L46.3357,98.4350 L3.1211,98.4350 L3.1211,109.9589 Z M3.1211,109.9589 L3.1211,121.4828 L46.3357,121.4828 L46.3357,109.9589 L3.1211,109.9589 Z M3.1211,121.4828 L3.1211,133.2468 L46.3357,133.2468 L46.3357,121.4828 L3.1211,121.4828 Z M3.1211,133.2468 L3.1211,144.7707 L46.3357,144.7707 L46.3357,133.2468 L3.1211,133.2468 Z M3.1211,144.7707 L3.1211,156.5347 L46.3357,156.5347 L46.3357,144.7707 L3.1211,144.7707 Z M3.1211,156.5347 L3.1211,168.0586 L46.3357,168.0586 L46.3357,156.5347 L3.1211,156.5347 Z M46.3357,63.1431 L3.1211,63.1431 L3.1211,74.9071 L46.3357,74.9071 L46.3357,63.1431 Z M46.3357,51.6192 L3.1211,51.6192 L3.1211,63.1431 L46.3357,63.1431 L46.3357,51.6192 Z M46.3357,39.8552 L3.1211,39.8552 L3.1211,51.6192 L46.3357,51.6192 L46.3357,39.8552 Z M46.3357,28.3313 L3.1211,28.3313 L3.1211,39.8552 L46.3357,39.8552 L46.3357,28.3313 Z M46.3357,16.8074 L3.1211,16.8074 L3.1211,28.3313 L46.3357,28.3313 L46.3357,16.8074 Z M46.3357,16.8074 L46.3357,5.0434 L3.1211,5.0434 L3.1211,16.8074 L46.3357,16.8074 Z" style="stroke-width: 0.0240; stroke: #ffffff; stroke-dasharray: none; stroke-linecap: round; stroke-linejoin: round; fill: none; "/>
    </g>
    <path xmlns="http://www.w3.org/2000/svg" d="  M19.6867,18.2479 C19.6867,19.6884 19.6867,19.6884 19.6867,19.6884 C20.6470,21.1289 21.1271,21.8491 21.1271,24.2499 C21.1271,24.2499 21.1271,24.4900 21.1271,24.7301 C22.5676,24.7301 22.5676,24.7301 22.5676,24.7301 C22.5676,18.2479 22.5676,18.2479 22.5676,18.2479 C19.6867,18.2479 19.6867,18.2479 19.6867,18.2479 Z M23.5280,18.2479 C23.5280,19.6884 23.5280,19.6884 23.5280,19.6884 C24.2482,21.1289 24.7284,21.8491 24.7284,24.2499 C24.7284,24.2499 24.7284,24.4900 24.7284,24.7301 C26.1689,24.7301 26.1689,24.7301 26.1689,24.7301 C26.1689,18.2479 26.1689,18.2479 26.1689,18.2479 C23.5280,18.2479 23.5280,18.2479 23.5280,18.2479 Z M27.1292,18.2479 C27.1292,19.6884 27.1292,19.6884 27.1292,19.6884 C27.8494,21.1289 28.3296,21.8491 28.3296,24.2499 C28.3296,24.2499 28.3296,24.4900 28.3296,24.7301 C29.7701,24.7301 29.7701,24.7301 29.7701,24.7301 C29.7701,18.2479 29.7701,18.2479 29.7701,18.2479 C27.1292,18.2479 27.1292,18.2479 27.1292,18.2479 Z M30.7304,18.2479 C30.7304,19.6884 30.7304,19.6884 30.7304,19.6884 C31.4506,21.1289 32.1709,21.8491 32.1709,24.2499 C32.1709,24.2499 31.9308,24.4900 31.9308,24.7301 C33.3713,24.7301 33.3713,24.7301 33.3713,24.7301 C33.3713,18.2479 33.3713,18.2479 33.3713,18.2479 C30.7304,18.2479 30.7304,18.2479 30.7304,18.2479 Z M34.3316,18.2479 C34.3316,19.6884 34.3316,19.6884 34.3316,19.6884 C35.0519,21.1289 35.7721,21.8491 35.7721,24.2499 C35.7721,24.2499 35.7721,24.4900 35.7721,24.7301 C36.9725,24.7301 36.9725,24.7301 36.9725,24.7301 C36.9725,18.2479 36.9725,18.2479 36.9725,18.2479 C34.3316,18.2479 34.3316,18.2479 34.3316,18.2479 Z M37.9328,18.2479 C37.9328,19.6884 37.9328,19.6884 37.9328,19.6884 C38.8932,21.1289 39.3733,21.8491 39.3733,24.2499 C39.3733,24.2499 39.3733,24.4900 39.3733,24.7301 C40.5737,24.7301 40.5737,24.7301 40.5737,24.7301 C40.5737,18.2479 40.5737,18.2479 40.5737,18.2479 C37.9328,18.2479 37.9328,18.2479 37.9328,18.2479 Z M41.5340,18.2479 C41.5340,19.6884 41.5340,19.6884 41.5340,19.6884 C42.4944,21.1289 42.9745,21.8491 42.9745,24.2499 C42.9745,24.2499 42.9745,24.4900 42.9745,24.7301 C44.1749,24.7301 44.1749,24.7301 44.1749,24.7301 C44.1749,18.2479 44.1749,18.2479 44.1749,18.2479 C41.5340,18.2479 41.5340,18.2479 41.5340,18.2479 Z M5.2818,18.2479 C5.2818,19.6884 5.2818,19.6884 5.2818,19.6884 C6.0020,21.1289 6.4822,21.8491 6.4822,24.2499 C6.4822,24.2499 6.4822,24.4900 6.4822,24.7301 C7.9227,24.7301 7.9227,24.7301 7.9227,24.7301 C7.9227,18.2479 7.9227,18.2479 7.9227,18.2479 C5.2818,18.2479 5.2818,18.2479 5.2818,18.2479 Z M8.8830,18.2479 C8.8830,19.6884 8.8830,19.6884 8.8830,19.6884 C9.6032,21.1289 10.3235,21.8491 10.3235,24.2499 C10.3235,24.2499 10.0834,24.4900 10.0834,24.7301 C11.5239,24.7301 11.5239,24.7301 11.5239,24.7301 C11.5239,18.2479 11.5239,18.2479 11.5239,18.2479 C8.8830,18.2479 8.8830,18.2479 8.8830,18.2479 Z M12.4842,18.2479 C12.4842,19.6884 12.4842,19.6884 12.4842,19.6884 C13.2045,21.1289 13.9247,21.8491 13.9247,24.2499 C13.9247,24.2499 13.9247,24.4900 13.9247,24.7301 C15.1251,24.7301 15.1251,24.7301 15.1251,24.7301 C15.1251,18.2479 15.1251,18.2479 15.1251,18.2479 C12.4842,18.2479 12.4842,18.2479 12.4842,18.2479 Z M16.0854,18.2479 C16.0854,19.6884 16.0854,19.6884 16.0854,19.6884 C17.0458,21.1289 17.5259,21.8491 17.5259,24.2499 C17.5259,24.2499 17.5259,24.4900 17.5259,24.7301 C18.7263,24.7301 18.7263,24.7301 18.7263,24.7301 C18.7263,18.2479 18.7263,18.2479 18.7263,18.2479 C16.0854,18.2479 16.0854,18.2479 16.0854,18.2479 Z M19.6867,6.7240 C19.6867,8.1645 19.6867,8.1645 19.6867,8.1645 C20.6470,9.3649 21.1271,10.3252 21.1271,12.4860 C21.1271,12.7260 21.1271,12.9661 21.1271,12.9661 C22.5676,12.9661 22.5676,12.9661 22.5676,12.9661 C22.5676,6.7240 22.5676,6.7240 22.5676,6.7240 C19.6867,6.7240 19.6867,6.7240 19.6867,6.7240 Z M23.5280,6.7240 C23.5280,8.1645 23.5280,8.1645 23.5280,8.1645 C24.2482,9.3649 24.7284,10.3252 24.7284,12.4860 C24.7284,12.7260 24.7284,12.9661 24.7284,12.9661 C26.1689,12.9661 26.1689,12.9661 26.1689,12.9661 C26.1689,6.7240 26.1689,6.7240 26.1689,6.7240 C23.5280,6.7240 23.5280,6.7240 23.5280,6.7240 Z M27.1292,6.7240 C27.1292,8.1645 27.1292,8.1645 27.1292,8.1645 C27.8494,9.3649 28.3296,10.3252 28.3296,12.4860 C28.3296,12.7260 28.3296,12.9661 28.3296,12.9661 C29.7701,12.9661 29.7701,12.9661 29.7701,12.9661 C29.7701,6.7240 29.7701,6.7240 29.7701,6.7240 C27.1292,6.7240 27.1292,6.7240 27.1292,6.7240 Z M30.7304,6.7240 C30.7304,8.1645 30.7304,8.1645 30.7304,8.1645 C31.4506,9.3649 32.1709,10.3252 32.1709,12.4860 C32.1709,12.7260 31.9308,12.9661 31.9308,12.9661 C33.3713,12.9661 33.3713,12.9661 33.3713,12.9661 C33.3713,6.7240 33.3713,6.7240 33.3713,6.7240 C30.7304,6.7240 30.7304,6.7240 30.7304,6.7240 Z M34.3316,6.7240 C34.3316,8.1645 34.3316,8.1645 34.3316,8.1645 C35.0519,9.3649 35.7721,10.3252 35.7721,12.4860 C35.7721,12.7260 35.7721,12.9661 35.7721,12.9661 C36.9725,12.9661 36.9725,12.9661 36.9725,12.9661 C36.9725,6.7240 36.9725,6.7240 36.9725,6.7240 C34.3316,6.7240 34.3316,6.7240 34.3316,6.7240 Z M37.9328,6.7240 C37.9328,8.1645 37.9328,8.1645 37.9328,8.1645 C38.8932,9.3649 39.3733,10.3252 39.3733,12.4860 C39.3733,12.7260 39.3733,12.9661 39.3733,12.9661 C40.5737,12.9661 40.5737,12.9661 40.5737,12.9661 C40.5737,6.7240 40.5737,6.7240 40.5737,6.7240 C37.9328,6.7240 37.9328,6.7240 37.9328,6.7240 Z M41.5340,6.7240 C41.5340,8.1645 41.5340,8.1645 41.5340,8.1645 C42.4944,9.3649 42.9745,10.3252 42.9745,12.4860 C42.9745,12.7260 42.9745,12.9661 42.9745,12.9661 C44.1749,12.9661 44.1749,12.9661 44.1749,12.9661 C44.1749,6.7240 44.1749,6.7240 44.1749,6.7240 C41.5340,6.7240 41.5340,6.7240 41.5340,6.7240 Z M5.2818,6.7240 C5.2818,8.1645 5.2818,8.1645 5.2818,8.1645 C6.0020,9.3649 6.4822,10.3252 6.4822,12.4860 C6.4822,12.7260 6.4822,12.9661 6.4822,12.9661 C7.9227,12.9661 7.9227,12.9661 7.9227,12.9661 C7.9227,6.7240 7.9227,6.7240 7.9227,6.7240 C5.2818,6.7240 5.2818,6.7240 5.2818,6.7240 Z M8.8830,6.7240 C8.8830,8.1645 8.8830,8.1645 8.8830,8.1645 C9.6032,9.3649 10.3235,10.3252 10.3235,12.4860 C10.3235,12.7260 10.0834,12.9661 10.0834,12.9661 C11.5239,12.9661 11.5239,12.9661 11.5239,12.9661 C11.5239,6.7240 11.5239,6.7240 11.5239,6.7240 C8.8830,6.7240 8.8830,6.7240 8.8830,6.7240 Z M12.4842,6.7240 C12.4842,8.1645 12.4842,8.1645 12.4842,8.1645 C13.2045,9.3649 13.9247,10.3252 13.9247,12.4860 C13.9247,12.7260 13.9247,12.9661 13.9247,12.9661 C15.1251,12.9661 15.1251,12.9661 15.1251,12.9661 C15.1251,6.7240 15.1251,6.7240 15.1251,6.7240 C12.4842,6.7240 12.4842,6.7240 12.4842,6.7240 Z M16.0854,6.7240 C16.0854,8.1645 16.0854,8.1645 16.0854,8.1645 C17.0458,9.3649 17.5259,10.3252 17.5259,12.4860 C17.5259,12.7260 17.5259,12.9661 17.5259,12.9661 C18.7263,12.9661 18.7263,12.9661 18.7263,12.9661 C18.7263,6.7240 18.7263,6.7240 18.7263,6.7240 C16.0854,6.7240 16.0854,6.7240 16.0854,6.7240 Z M19.6867,53.2998 C19.6867,54.7402 19.6867,54.7402 19.6867,54.7402 C20.6470,55.9407 21.1271,56.6609 21.1271,59.0617 C21.1271,59.3018 21.1271,59.3018 21.1271,59.5419 C22.5676,59.5419 22.5676,59.5419 22.5676,59.5419 C22.5676,53.2998 22.5676,53.2998 22.5676,53.2998 C19.6867,53.2998 19.6867,53.2998 19.6867,53.2998 Z M23.5280,53.2998 C23.5280,54.7402 23.5280,54.7402 23.5280,54.7402 C24.2482,55.9407 24.7284,56.6609 24.7284,59.0617 C24.7284,59.3018 24.7284,59.3018 24.7284,59.5419 C26.1689,59.5419 26.1689,59.5419 26.1689,59.5419 C26.1689,53.2998 26.1689,53.2998 26.1689,53.2998 C23.5280,53.2998 23.5280,53.2998 23.5280,53.2998 Z M27.1292,53.2998 C27.1292,54.7402 27.1292,54.7402 27.1292,54.7402 C27.8494,55.9407 28.3296,56.6609 28.3296,59.0617 C28.3296,59.3018 28.3296,59.3018 28.3296,59.5419 C29.7701,59.5419 29.7701,59.5419 29.7701,59.5419 C29.7701,53.2998 29.7701,53.2998 29.7701,53.2998 C27.1292,53.2998 27.1292,53.2998 27.1292,53.2998 Z M30.7304,53.2998 C30.7304,54.7402 30.7304,54.7402 30.7304,54.7402 C31.4506,55.9407 32.1709,56.6609 32.1709,59.0617 C32.1709,59.3018 31.9308,59.3018 31.9308,59.5419 C33.3713,59.5419 33.3713,59.5419 33.3713,59.5419 C33.3713,53.2998 33.3713,53.2998 33.3713,53.2998 C30.7304,53.2998 30.7304,53.2998 30.7304,53.2998 Z M34.3316,53.2998 C34.3316,54.7402 34.3316,54.7402 34.3316,54.7402 C35.0519,55.9407 35.7721,56.6609 35.7721,59.0617 C35.7721,59.3018 35.7721,59.3018 35.7721,59.5419 C36.9725,59.5419 36.9725,59.5419 36.9725,59.5419 C36.9725,53.2998 36.9725,53.2998 36.9725,53.2998 C34.3316,53.2998 34.3316,53.2998 34.3316,53.2998 Z M37.9328,53.2998 C37.9328,54.7402 37.9328,54.7402 37.9328,54.7402 C38.8932,55.9407 39.3733,56.6609 39.3733,59.0617 C39.3733,59.3018 39.3733,59.3018 39.3733,59.5419 C40.5737,59.5419 40.5737,59.5419 40.5737,59.5419 C40.5737,53.2998 40.5737,53.2998 40.5737,53.2998 C37.9328,53.2998 37.9328,53.2998 37.9328,53.2998 Z M41.5340,53.2998 C41.5340,54.7402 41.5340,54.7402 41.5340,54.7402 C42.4944,55.9407 42.9745,56.6609 42.9745,59.0617 C42.9745,59.3018 42.9745,59.3018 42.9745,59.5419 C44.1749,59.5419 44.1749,59.5419 44.1749,59.5419 C44.1749,53.2998 44.1749,53.2998 44.1749,53.2998 C41.5340,53.2998 41.5340,53.2998 41.5340,53.2998 Z M5.2818,53.2998 C5.2818,54.7402 5.2818,54.7402 5.2818,54.7402 C6.0020,55.9407 6.4822,56.6609 6.4822,59.0617 C6.4822,59.3018 6.4822,59.3018 6.4822,59.5419 C7.9227,59.5419 7.9227,59.5419 7.9227,59.5419 C7.9227,53.2998 7.9227,53.2998 7.9227,53.2998 C5.2818,53.2998 5.2818,53.2998 5.2818,53.2998 Z M8.8830,53.2998 C8.8830,54.7402 8.8830,54.7402 8.8830,54.7402 C9.6032,55.9407 10.3235,56.6609 10.3235,59.0617 C10.3235,59.3018 10.0834,59.3018 10.0834,59.5419 C11.5239,59.5419 11.5239,59.5419 11.5239,59.5419 C11.5239,53.2998 11.5239,53.2998 11.5239,53.2998 C8.8830,53.2998 8.8830,53.2998 8.8830,53.2998 Z M12.4842,53.2998 C12.4842,54.7402 12.4842,54.7402 12.4842,54.7402 C13.2045,55.9407 13.9247,56.6609 13.9247,59.0617 C13.9247,59.3018 13.9247,59.3018 13.9247,59.5419 C15.1251,59.5419 15.1251,59.5419 15.1251,59.5419 C15.1251,53.2998 15.1251,53.2998 15.1251,53.2998 C12.4842,53.2998 12.4842,53.2998 12.4842,53.2998 Z M16.0854,53.2998 C16.0854,54.7402 16.0854,54.7402 16.0854,54.7402 C17.0458,55.9407 17.5259,56.6609 17.5259,59.0617 C17.5259,59.3018 17.5259,59.3018 17.5259,59.5419 C18.7263,59.5419 18.7263,59.5419 18.7263,59.5419 C18.7263,53.2998 18.7263,53.2998 18.7263,53.2998 C16.0854,53.2998 16.0854,53.2998 16.0854,53.2998 Z M37.9328,64.8237 C37.9328,66.2641 37.9328,66.2641 37.9328,66.2641 C38.8932,67.7046 39.3733,68.4249 39.3733,70.5856 C39.3733,70.8257 39.3733,71.0658 39.3733,71.3059 C40.5737,71.3059 40.5737,71.3059 40.5737,71.3059 C40.5737,64.8237 40.5737,64.8237 40.5737,64.8237 C37.9328,64.8237 37.9328,64.8237 37.9328,64.8237 Z M41.5340,64.8237 C41.5340,66.2641 41.5340,66.2641 41.5340,66.2641 C42.4944,67.7046 42.9745,68.4249 42.9745,70.5856 C42.9745,70.8257 42.9745,71.0658 42.9745,71.3059 C44.1749,71.3059 44.1749,71.3059 44.1749,71.3059 C44.1749,64.8237 44.1749,64.8237 44.1749,64.8237 C41.5340,64.8237 41.5340,64.8237 41.5340,64.8237 Z M30.7304,64.8237 C30.7304,66.2641 30.7304,66.2641 30.7304,66.2641 C31.4506,67.7046 32.1709,68.4249 32.1709,70.5856 C32.1709,70.8257 31.9308,71.0658 31.9308,71.3059 C33.3713,71.3059 33.3713,71.3059 33.3713,71.3059 C33.3713,64.8237 33.3713,64.8237 33.3713,64.8237 C30.7304,64.8237 30.7304,64.8237 30.7304,64.8237 Z M34.3316,64.8237 C34.3316,66.2641 34.3316,66.2641 34.3316,66.2641 C35.0519,67.7046 35.7721,68.4249 35.7721,70.5856 C35.7721,70.8257 35.7721,71.0658 35.7721,71.3059 C36.9725,71.3059 36.9725,71.3059 36.9725,71.3059 C36.9725,64.8237 36.9725,64.8237 36.9725,64.8237 C34.3316,64.8237 34.3316,64.8237 34.3316,64.8237 Z M27.1292,64.8237 C27.1292,66.2641 27.1292,66.2641 27.1292,66.2641 C27.8494,67.7046 28.3296,68.4249 28.3296,70.5856 C28.3296,70.8257 28.3296,71.0658 28.3296,71.3059 C29.7701,71.3059 29.7701,71.3059 29.7701,71.3059 C29.7701,64.8237 29.7701,64.8237 29.7701,64.8237 C27.1292,64.8237 27.1292,64.8237 27.1292,64.8237 Z M19.6867,64.8237 C19.6867,66.2641 19.6867,66.2641 19.6867,66.2641 C20.6470,67.7046 21.1271,68.4249 21.1271,70.5856 C21.1271,70.8257 21.1271,71.0658 21.1271,71.3059 C22.5676,71.3059 22.5676,71.3059 22.5676,71.3059 C22.5676,64.8237 22.5676,64.8237 22.5676,64.8237 C19.6867,64.8237 19.6867,64.8237 19.6867,64.8237 Z M23.5280,64.8237 C23.5280,66.2641 23.5280,66.2641 23.5280,66.2641 C24.2482,67.7046 24.7284,68.4249 24.7284,70.5856 C24.7284,70.8257 24.7284,71.0658 24.7284,71.3059 C26.1689,71.3059 26.1689,71.3059 26.1689,71.3059 C26.1689,64.8237 26.1689,64.8237 26.1689,64.8237 C23.5280,64.8237 23.5280,64.8237 23.5280,64.8237 Z M12.4842,64.8237 C12.4842,66.2641 12.4842,66.2641 12.4842,66.2641 C13.2045,67.7046 13.9247,68.4249 13.9247,70.5856 C13.9247,70.8257 13.9247,71.0658 13.9247,71.3059 C15.1251,71.3059 15.1251,71.3059 15.1251,71.3059 C15.1251,64.8237 15.1251,64.8237 15.1251,64.8237 C12.4842,64.8237 12.4842,64.8237 12.4842,64.8237 Z M16.0854,64.8237 C16.0854,66.2641 16.0854,66.2641 16.0854,66.2641 C17.0458,67.7046 17.5259,68.4249 17.5259,70.5856 C17.5259,70.8257 17.5259,71.0658 17.5259,71.3059 C18.7263,71.3059 18.7263,71.3059 18.7263,71.3059 C18.7263,64.8237 18.7263,64.8237 18.7263,64.8237 C16.0854,64.8237 16.0854,64.8237 16.0854,64.8237 Z M8.8830,64.8237 C8.8830,66.2641 8.8830,66.2641 8.8830,66.2641 C9.6032,67.7046 10.3235,68.4249 10.3235,70.5856 C10.3235,70.8257 10.0834,71.0658 10.0834,71.3059 C11.5239,71.3059 11.5239,71.3059 11.5239,71.3059 C11.5239,64.8237 11.5239,64.8237 11.5239,64.8237 C8.8830,64.8237 8.8830,64.8237 8.8830,64.8237 Z M5.2818,64.8237 C5.2818,66.2641 5.2818,66.2641 5.2818,66.2641 C6.0020,67.7046 6.4822,68.4249 6.4822,70.5856 C6.4822,70.8257 6.4822,71.0658 6.4822,71.3059 C7.9227,71.3059 7.9227,71.3059 7.9227,71.3059 C7.9227,64.8237 7.9227,64.8237 7.9227,64.8237 C5.2818,64.8237 5.2818,64.8237 5.2818,64.8237 Z M19.6867,41.5358 C19.6867,42.9763 19.6867,42.9763 19.6867,42.9763 C20.6470,44.4168 21.1271,45.1370 21.1271,47.2977 C21.1271,47.5378 21.1271,47.7779 21.1271,48.0180 C22.5676,48.0180 22.5676,48.0180 22.5676,48.0180 C22.5676,41.5358 22.5676,41.5358 22.5676,41.5358 C19.6867,41.5358 19.6867,41.5358 19.6867,41.5358 Z M23.5280,41.5358 C23.5280,42.9763 23.5280,42.9763 23.5280,42.9763 C24.2482,44.4168 24.7284,45.1370 24.7284,47.2977 C24.7284,47.5378 24.7284,47.7779 24.7284,48.0180 C26.1689,48.0180 26.1689,48.0180 26.1689,48.0180 C26.1689,41.5358 26.1689,41.5358 26.1689,41.5358 C23.5280,41.5358 23.5280,41.5358 23.5280,41.5358 Z M27.1292,41.5358 C27.1292,42.9763 27.1292,42.9763 27.1292,42.9763 C27.8494,44.4168 28.3296,45.1370 28.3296,47.2977 C28.3296,47.5378 28.3296,47.7779 28.3296,48.0180 C29.7701,48.0180 29.7701,48.0180 29.7701,48.0180 C29.7701,41.5358 29.7701,41.5358 29.7701,41.5358 C27.1292,41.5358 27.1292,41.5358 27.1292,41.5358 Z M30.7304,41.5358 C30.7304,42.9763 30.7304,42.9763 30.7304,42.9763 C31.4506,44.4168 32.1709,45.1370 32.1709,47.2977 C32.1709,47.5378 31.9308,47.7779 31.9308,48.0180 C33.3713,48.0180 33.3713,48.0180 33.3713,48.0180 C33.3713,41.5358 33.3713,41.5358 33.3713,41.5358 C30.7304,41.5358 30.7304,41.5358 30.7304,41.5358 Z M34.3316,41.5358 C34.3316,42.9763 34.3316,42.9763 34.3316,42.9763 C35.0519,44.4168 35.7721,45.1370 35.7721,47.2977 C35.7721,47.5378 35.7721,47.7779 35.7721,48.0180 C36.9725,48.0180 36.9725,48.0180 36.9725,48.0180 C36.9725,41.5358 36.9725,41.5358 36.9725,41.5358 C34.3316,41.5358 34.3316,41.5358 34.3316,41.5358 Z M37.9328,41.5358 C37.9328,42.9763 37.9328,42.9763 37.9328,42.9763 C38.8932,44.4168 39.3733,45.1370 39.3733,47.2977 C39.3733,47.5378 39.3733,47.7779 39.3733,48.0180 C40.5737,48.0180 40.5737,48.0180 40.5737,48.0180 C40.5737,41.5358 40.5737,41.5358 40.5737,41.5358 C37.9328,41.5358 37.9328,41.5358 37.9328,41.5358 Z M41.5340,41.5358 C41.5340,42.9763 41.5340,42.9763 41.5340,42.9763 C42.4944,44.4168 42.9745,45.1370 42.9745,47.2977 C42.9745,47.5378 42.9745,47.7779 42.9745,48.0180 C44.1749,48.0180 44.1749,48.0180 44.1749,48.0180 C44.1749,41.5358 44.1749,41.5358 44.1749,41.5358 C41.5340,41.5358 41.5340,41.5358 41.5340,41.5358 Z M5.2818,41.5358 C5.2818,42.9763 5.2818,42.9763 5.2818,42.9763 C6.0020,44.4168 6.4822,45.1370 6.4822,47.2977 C6.4822,47.5378 6.4822,47.7779 6.4822,48.0180 C7.9227,48.0180 7.9227,48.0180 7.9227,48.0180 C7.9227,41.5358 7.9227,41.5358 7.9227,41.5358 C5.2818,41.5358 5.2818,41.5358 5.2818,41.5358 Z M8.8830,41.5358 C8.8830,42.9763 8.8830,42.9763 8.8830,42.9763 C9.6032,44.4168 10.3235,45.1370 10.3235,47.2977 C10.3235,47.5378 10.0834,47.7779 10.0834,48.0180 C11.5239,48.0180 11.5239,48.0180 11.5239,48.0180 C11.5239,41.5358 11.5239,41.5358 11.5239,41.5358 C8.8830,41.5358 8.8830,41.5358 8.8830,41.5358 Z M12.4842,41.5358 C12.4842,42.9763 12.4842,42.9763 12.4842,42.9763 C13.2045,44.4168 13.9247,45.1370 13.9247,47.2977 C13.9247,47.5378 13.9247,47.7779 13.9247,48.0180 C15.1251,48.0180 15.1251,48.0180 15.1251,48.0180 C15.1251,41.5358 15.1251,41.5358 15.1251,41.5358 C12.4842,41.5358 12.4842,41.5358 12.4842,41.5358 Z M16.0854,41.5358 C16.0854,42.9763 16.0854,42.9763 16.0854,42.9763 C17.0458,44.4168 17.5259,45.1370 17.5259,47.2977 C17.5259,47.5378 17.5259,47.7779 17.5259,48.0180 C18.7263,48.0180 18.7263,48.0180 18.7263,48.0180 C18.7263,41.5358 18.7263,41.5358 18.7263,41.5358 C16.0854,41.5358 16.0854,41.5358 16.0854,41.5358 Z M5.2818,30.0119 C5.2818,31.4524 5.2818,31.4524 5.2818,31.4524 C6.0020,32.6528 6.4822,33.3730 6.4822,35.7738 C6.4822,36.0139 6.4822,36.2540 6.4822,36.2540 C7.9227,36.2540 7.9227,36.2540 7.9227,36.2540 C7.9227,30.0119 7.9227,30.0119 7.9227,30.0119 C5.2818,30.0119 5.2818,30.0119 5.2818,30.0119 Z M8.8830,30.0119 C8.8830,31.4524 8.8830,31.4524 8.8830,31.4524 C9.6032,32.6528 10.3235,33.3730 10.3235,35.7738 C10.3235,36.0139 10.0834,36.2540 10.0834,36.2540 C11.5239,36.2540 11.5239,36.2540 11.5239,36.2540 C11.5239,30.0119 11.5239,30.0119 11.5239,30.0119 C8.8830,30.0119 8.8830,30.0119 8.8830,30.0119 Z M12.4842,30.0119 C12.4842,31.4524 12.4842,31.4524 12.4842,31.4524 C13.2045,32.6528 13.9247,33.3730 13.9247,35.7738 C13.9247,36.0139 13.9247,36.2540 13.9247,36.2540 C15.1251,36.2540 15.1251,36.2540 15.1251,36.2540 C15.1251,30.0119 15.1251,30.0119 15.1251,30.0119 C12.4842,30.0119 12.4842,30.0119 12.4842,30.0119 Z M16.0854,30.0119 C16.0854,31.4524 16.0854,31.4524 16.0854,31.4524 C17.0458,32.6528 17.5259,33.3730 17.5259,35.7738 C17.5259,36.0139 17.5259,36.2540 17.5259,36.2540 C18.7263,36.2540 18.7263,36.2540 18.7263,36.2540 C18.7263,30.0119 18.7263,30.0119 18.7263,30.0119 C16.0854,30.0119 16.0854,30.0119 16.0854,30.0119 Z M19.6867,30.0119 C19.6867,31.4524 19.6867,31.4524 19.6867,31.4524 C20.6470,32.6528 21.1271,33.3730 21.1271,35.7738 C21.1271,36.0139 21.1271,36.2540 21.1271,36.2540 C22.5676,36.2540 22.5676,36.2540 22.5676,36.2540 C22.5676,30.0119 22.5676,30.0119 22.5676,30.0119 C19.6867,30.0119 19.6867,30.0119 19.6867,30.0119 Z M23.5280,30.0119 C23.5280,31.4524 23.5280,31.4524 23.5280,31.4524 C24.2482,32.6528 24.7284,33.3730 24.7284,35.7738 C24.7284,36.0139 24.7284,36.2540 24.7284,36.2540 C26.1689,36.2540 26.1689,36.2540 26.1689,36.2540 C26.1689,30.0119 26.1689,30.0119 26.1689,30.0119 C23.5280,30.0119 23.5280,30.0119 23.5280,30.0119 Z M27.1292,30.0119 C27.1292,31.4524 27.1292,31.4524 27.1292,31.4524 C27.8494,32.6528 28.3296,33.3730 28.3296,35.7738 C28.3296,36.0139 28.3296,36.2540 28.3296,36.2540 C29.7701,36.2540 29.7701,36.2540 29.7701,36.2540 C29.7701,30.0119 29.7701,30.0119 29.7701,30.0119 C27.1292,30.0119 27.1292,30.0119 27.1292,30.0119 Z M30.7304,30.0119 C30.7304,31.4524 30.7304,31.4524 30.7304,31.4524 C31.4506,32.6528 32.1709,33.3730 32.1709,35.7738 C32.1709,36.0139 31.9308,36.2540 31.9308,36.2540 C33.3713,36.2540 33.3713,36.2540 33.3713,36.2540 C33.3713,30.0119 33.3713,30.0119 33.3713,30.0119 C30.7304,30.0119 30.7304,30.0119 30.7304,30.0119 Z M34.3316,30.0119 C34.3316,31.4524 34.3316,31.4524 34.3316,31.4524 C35.0519,32.6528 35.7721,33.3730 35.7721,35.7738 C35.7721,36.0139 35.7721,36.2540 35.7721,36.2540 C36.9725,36.2540 36.9725,36.2540 36.9725,36.2540 C36.9725,30.0119 36.9725,30.0119 36.9725,30.0119 C34.3316,30.0119 34.3316,30.0119 34.3316,30.0119 Z M37.9328,30.0119 C37.9328,31.4524 37.9328,31.4524 37.9328,31.4524 C38.8932,32.6528 39.3733,33.3730 39.3733,35.7738 C39.3733,36.0139 39.3733,36.2540 39.3733,36.2540 C40.5737,36.2540 40.5737,36.2540 40.5737,36.2540 C40.5737,30.0119 40.5737,30.0119 40.5737,30.0119 C37.9328,30.0119 37.9328,30.0119 37.9328,30.0119 Z M41.5340,30.0119 C41.5340,31.4524 41.5340,31.4524 41.5340,31.4524 C42.4944,32.6528 42.9745,33.3730 42.9745,35.7738 C42.9745,36.0139 42.9745,36.2540 42.9745,36.2540 C44.1749,36.2540 44.1749,36.2540 44.1749,36.2540 C44.1749,30.0119 44.1749,30.0119 44.1749,30.0119 C41.5340,30.0119 41.5340,30.0119 41.5340,30.0119 Z M19.6867,146.4513 C19.6867,147.8918 19.6867,147.8918 19.6867,147.8918 C20.6470,149.3322 21.1271,150.0525 21.1271,152.2132 C21.1271,152.4533 21.1271,152.6934 21.1271,152.9335 C22.5676,152.9335 22.5676,152.9335 22.5676,152.9335 C22.5676,146.4513 22.5676,146.4513 22.5676,146.4513 C19.6867,146.4513 19.6867,146.4513 19.6867,146.4513 Z M23.5280,146.4513 C23.5280,147.8918 23.5280,147.8918 23.5280,147.8918 C24.2482,149.3322 24.7284,150.0525 24.7284,152.2132 C24.7284,152.4533 24.7284,152.6934 24.7284,152.9335 C26.1689,152.9335 26.1689,152.9335 26.1689,152.9335 C26.1689,146.4513 26.1689,146.4513 26.1689,146.4513 C23.5280,146.4513 23.5280,146.4513 23.5280,146.4513 Z M27.1292,146.4513 C27.1292,147.8918 27.1292,147.8918 27.1292,147.8918 C27.8494,149.3322 28.3296,150.0525 28.3296,152.2132 C28.3296,152.4533 28.3296,152.6934 28.3296,152.9335 C29.7701,152.9335 29.7701,152.9335 29.7701,152.9335 C29.7701,146.4513 29.7701,146.4513 29.7701,146.4513 C27.1292,146.4513 27.1292,146.4513 27.1292,146.4513 Z M30.7304,146.4513 C30.7304,147.8918 30.7304,147.8918 30.7304,147.8918 C31.4506,149.3322 32.1709,150.0525 32.1709,152.2132 C32.1709,152.4533 31.9308,152.6934 31.9308,152.9335 C33.3713,152.9335 33.3713,152.9335 33.3713,152.9335 C33.3713,146.4513 33.3713,146.4513 33.3713,146.4513 C30.7304,146.4513 30.7304,146.4513 30.7304,146.4513 Z M34.3316,146.4513 C34.3316,147.8918 34.3316,147.8918 34.3316,147.8918 C35.0519,149.3322 35.7721,150.0525 35.7721,152.2132 C35.7721,152.4533 35.7721,152.6934 35.7721,152.9335 C36.9725,152.9335 36.9725,152.9335 36.9725,152.9335 C36.9725,146.4513 36.9725,146.4513 36.9725,146.4513 C34.3316,146.4513 34.3316,146.4513 34.3316,146.4513 Z M37.9328,146.4513 C37.9328,147.8918 37.9328,147.8918 37.9328,147.8918 C38.8932,149.3322 39.3733,150.0525 39.3733,152.2132 C39.3733,152.4533 39.3733,152.6934 39.3733,152.9335 C40.5737,152.9335 40.5737,152.9335 40.5737,152.9335 C40.5737,146.4513 40.5737,146.4513 40.5737,146.4513 C37.9328,146.4513 37.9328,146.4513 37.9328,146.4513 Z M41.5340,146.4513 C41.5340,147.8918 41.5340,147.8918 41.5340,147.8918 C42.4944,149.3322 42.9745,150.0525 42.9745,152.2132 C42.9745,152.4533 42.9745,152.6934 42.9745,152.9335 C44.1749,152.9335 44.1749,152.9335 44.1749,152.9335 C44.1749,146.4513 44.1749,146.4513 44.1749,146.4513 C41.5340,146.4513 41.5340,146.4513 41.5340,146.4513 Z M5.2818,146.4513 C5.2818,147.8918 5.2818,147.8918 5.2818,147.8918 C6.0020,149.3322 6.4822,150.0525 6.4822,152.2132 C6.4822,152.4533 6.4822,152.6934 6.4822,152.9335 C7.9227,152.9335 7.9227,152.9335 7.9227,152.9335 C7.9227,146.4513 7.9227,146.4513 7.9227,146.4513 C5.2818,146.4513 5.2818,146.4513 5.2818,146.4513 Z M8.8830,146.4513 C8.8830,147.8918 8.8830,147.8918 8.8830,147.8918 C9.6032,149.3322 10.3235,150.0525 10.3235,152.2132 C10.3235,152.4533 10.0834,152.6934 10.0834,152.9335 C11.5239,152.9335 11.5239,152.9335 11.5239,152.9335 C11.5239,146.4513 11.5239,146.4513 11.5239,146.4513 C8.8830,146.4513 8.8830,146.4513 8.8830,146.4513 Z M12.4842,146.4513 C12.4842,147.8918 12.4842,147.8918 12.4842,147.8918 C13.2045,149.3322 13.9247,150.0525 13.9247,152.2132 C13.9247,152.4533 13.9247,152.6934 13.9247,152.9335 C15.1251,152.9335 15.1251,152.9335 15.1251,152.9335 C15.1251,146.4513 15.1251,146.4513 15.1251,146.4513 C12.4842,146.4513 12.4842,146.4513 12.4842,146.4513 Z M16.0854,146.4513 C16.0854,147.8918 16.0854,147.8918 16.0854,147.8918 C17.0458,149.3322 17.5259,150.0525 17.5259,152.2132 C17.5259,152.4533 17.5259,152.6934 17.5259,152.9335 C18.7263,152.9335 18.7263,152.9335 18.7263,152.9335 C18.7263,146.4513 18.7263,146.4513 18.7263,146.4513 C16.0854,146.4513 16.0854,146.4513 16.0854,146.4513 Z M5.2818,158.2152 C5.2818,159.6557 5.2818,159.6557 5.2818,159.6557 C6.0020,160.8561 6.4822,161.5764 6.4822,163.9772 C6.4822,164.2173 6.4822,164.2173 6.4822,164.4574 C7.9227,164.4574 7.9227,164.4574 7.9227,164.4574 C7.9227,158.2152 7.9227,158.2152 7.9227,158.2152 C5.2818,158.2152 5.2818,158.2152 5.2818,158.2152 Z M8.8830,158.2152 C8.8830,159.6557 8.8830,159.6557 8.8830,159.6557 C9.6032,160.8561 10.3235,161.5764 10.3235,163.9772 C10.3235,164.2173 10.0834,164.2173 10.0834,164.4574 C11.5239,164.4574 11.5239,164.4574 11.5239,164.4574 C11.5239,158.2152 11.5239,158.2152 11.5239,158.2152 C8.8830,158.2152 8.8830,158.2152 8.8830,158.2152 Z M12.4842,158.2152 C12.4842,159.6557 12.4842,159.6557 12.4842,159.6557 C13.2045,160.8561 13.9247,161.5764 13.9247,163.9772 C13.9247,164.2173 13.9247,164.2173 13.9247,164.4574 C15.1251,164.4574 15.1251,164.4574 15.1251,164.4574 C15.1251,158.2152 15.1251,158.2152 15.1251,158.2152 C12.4842,158.2152 12.4842,158.2152 12.4842,158.2152 Z M16.0854,158.2152 C16.0854,159.6557 16.0854,159.6557 16.0854,159.6557 C17.0458,160.8561 17.5259,161.5764 17.5259,163.9772 C17.5259,164.2173 17.5259,164.2173 17.5259,164.4574 C18.7263,164.4574 18.7263,164.4574 18.7263,164.4574 C18.7263,158.2152 18.7263,158.2152 18.7263,158.2152 C16.0854,158.2152 16.0854,158.2152 16.0854,158.2152 Z M19.6867,158.2152 C19.6867,159.6557 19.6867,159.6557 19.6867,159.6557 C20.6470,160.8561 21.1271,161.5764 21.1271,163.9772 C21.1271,164.2173 21.1271,164.2173 21.1271,164.4574 C22.5676,164.4574 22.5676,164.4574 22.5676,164.4574 C22.5676,158.2152 22.5676,158.2152 22.5676,158.2152 C19.6867,158.2152 19.6867,158.2152 19.6867,158.2152 Z M23.5280,158.2152 C23.5280,159.6557 23.5280,159.6557 23.5280,159.6557 C24.2482,160.8561 24.7284,161.5764 24.7284,163.9772 C24.7284,164.2173 24.7284,164.2173 24.7284,164.4574 C26.1689,164.4574 26.1689,164.4574 26.1689,164.4574 C26.1689,158.2152 26.1689,158.2152 26.1689,158.2152 C23.5280,158.2152 23.5280,158.2152 23.5280,158.2152 Z M27.1292,158.2152 C27.1292,159.6557 27.1292,159.6557 27.1292,159.6557 C27.8494,160.8561 28.3296,161.5764 28.3296,163.9772 C28.3296,164.2173 28.3296,164.2173 28.3296,164.4574 C29.7701,164.4574 29.7701,164.4574 29.7701,164.4574 C29.7701,158.2152 29.7701,158.2152 29.7701,158.2152 C27.1292,158.2152 27.1292,158.2152 27.1292,158.2152 Z M30.7304,158.2152 C30.7304,159.6557 30.7304,159.6557 30.7304,159.6557 C31.4506,160.8561 32.1709,161.5764 32.1709,163.9772 C32.1709,164.2173 31.9308,164.2173 31.9308,164.4574 C33.3713,164.4574 33.3713,164.4574 33.3713,164.4574 C33.3713,158.2152 33.3713,158.2152 33.3713,158.2152 C30.7304,158.2152 30.7304,158.2152 30.7304,158.2152 Z M34.3316,158.2152 C34.3316,159.6557 34.3316,159.6557 34.3316,159.6557 C35.0519,160.8561 35.7721,161.5764 35.7721,163.9772 C35.7721,164.2173 35.7721,164.2173 35.7721,164.4574 C36.9725,164.4574 36.9725,164.4574 36.9725,164.4574 C36.9725,158.2152 36.9725,158.2152 36.9725,158.2152 C34.3316,158.2152 34.3316,158.2152 34.3316,158.2152 Z M37.9328,158.2152 C37.9328,159.6557 37.9328,159.6557 37.9328,159.6557 C38.8932,160.8561 39.3733,161.5764 39.3733,163.9772 C39.3733,164.2173 39.3733,164.2173 39.3733,164.4574 C40.5737,164.4574 40.5737,164.4574 40.5737,164.4574 C40.5737,158.2152 40.5737,158.2152 40.5737,158.2152 C37.9328,158.2152 37.9328,158.2152 37.9328,158.2152 Z M41.5340,158.2152 C41.5340,159.6557 41.5340,159.6557 41.5340,159.6557 C42.4944,160.8561 42.9745,161.5764 42.9745,163.9772 C42.9745,164.2173 42.9745,164.2173 42.9745,164.4574 C44.1749,164.4574 44.1749,164.4574 44.1749,164.4574 C44.1749,158.2152 44.1749,158.2152 44.1749,158.2152 C41.5340,158.2152 41.5340,158.2152 41.5340,158.2152 Z M5.2818,123.1634 C5.2818,124.6039 5.2818,124.6039 5.2818,124.6039 C6.0020,126.0444 6.4822,126.7646 6.4822,128.9253 C6.4822,129.1654 6.4822,129.4055 6.4822,129.6456 C7.9227,129.6456 7.9227,129.6456 7.9227,129.6456 C7.9227,123.1634 7.9227,123.1634 7.9227,123.1634 C5.2818,123.1634 5.2818,123.1634 5.2818,123.1634 Z M8.8830,123.1634 C8.8830,124.6039 8.8830,124.6039 8.8830,124.6039 C9.6032,126.0444 10.3235,126.7646 10.3235,128.9253 C10.3235,129.1654 10.0834,129.4055 10.0834,129.6456 C11.5239,129.6456 11.5239,129.6456 11.5239,129.6456 C11.5239,123.1634 11.5239,123.1634 11.5239,123.1634 C8.8830,123.1634 8.8830,123.1634 8.8830,123.1634 Z M12.4842,123.1634 C12.4842,124.6039 12.4842,124.6039 12.4842,124.6039 C13.2045,126.0444 13.9247,126.7646 13.9247,128.9253 C13.9247,129.1654 13.9247,129.4055 13.9247,129.6456 C15.1251,129.6456 15.1251,129.6456 15.1251,129.6456 C15.1251,123.1634 15.1251,123.1634 15.1251,123.1634 C12.4842,123.1634 12.4842,123.1634 12.4842,123.1634 Z M16.0854,123.1634 C16.0854,124.6039 16.0854,124.6039 16.0854,124.6039 C17.0458,126.0444 17.5259,126.7646 17.5259,128.9253 C17.5259,129.1654 17.5259,129.4055 17.5259,129.6456 C18.7263,129.6456 18.7263,129.6456 18.7263,129.6456 C18.7263,123.1634 18.7263,123.1634 18.7263,123.1634 C16.0854,123.1634 16.0854,123.1634 16.0854,123.1634 Z M19.6867,123.1634 C19.6867,124.6039 19.6867,124.6039 19.6867,124.6039 C20.6470,126.0444 21.1271,126.7646 21.1271,128.9253 C21.1271,129.1654 21.1271,129.4055 21.1271,129.6456 C22.5676,129.6456 22.5676,129.6456 22.5676,129.6456 C22.5676,123.1634 22.5676,123.1634 22.5676,123.1634 C19.6867,123.1634 19.6867,123.1634 19.6867,123.1634 Z M23.5280,123.1634 C23.5280,124.6039 23.5280,124.6039 23.5280,124.6039 C24.2482,126.0444 24.7284,126.7646 24.7284,128.9253 C24.7284,129.1654 24.7284,129.4055 24.7284,129.6456 C26.1689,129.6456 26.1689,129.6456 26.1689,129.6456 C26.1689,123.1634 26.1689,123.1634 26.1689,123.1634 C23.5280,123.1634 23.5280,123.1634 23.5280,123.1634 Z M27.1292,123.1634 C27.1292,124.6039 27.1292,124.6039 27.1292,124.6039 C27.8494,126.0444 28.3296,126.7646 28.3296,128.9253 C28.3296,129.1654 28.3296,129.4055 28.3296,129.6456 C29.7701,129.6456 29.7701,129.6456 29.7701,129.6456 C29.7701,123.1634 29.7701,123.1634 29.7701,123.1634 C27.1292,123.1634 27.1292,123.1634 27.1292,123.1634 Z M30.7304,123.1634 C30.7304,124.6039 30.7304,124.6039 30.7304,124.6039 C31.4506,126.0444 32.1709,126.7646 32.1709,128.9253 C32.1709,129.1654 31.9308,129.4055 31.9308,129.6456 C33.3713,129.6456 33.3713,129.6456 33.3713,129.6456 C33.3713,123.1634 33.3713,123.1634 33.3713,123.1634 C30.7304,123.1634 30.7304,123.1634 30.7304,123.1634 Z M34.3316,123.1634 C34.3316,124.6039 34.3316,124.6039 34.3316,124.6039 C35.0519,126.0444 35.7721,126.7646 35.7721,128.9253 C35.7721,129.1654 35.7721,129.4055 35.7721,129.6456 C36.9725,129.6456 36.9725,129.6456 36.9725,129.6456 C36.9725,123.1634 36.9725,123.1634 36.9725,123.1634 C34.3316,123.1634 34.3316,123.1634 34.3316,123.1634 Z M37.9328,123.1634 C37.9328,124.6039 37.9328,124.6039 37.9328,124.6039 C38.8932,126.0444 39.3733,126.7646 39.3733,128.9253 C39.3733,129.1654 39.3733,129.4055 39.3733,129.6456 C40.5737,129.6456 40.5737,129.6456 40.5737,129.6456 C40.5737,123.1634 40.5737,123.1634 40.5737,123.1634 C37.9328,123.1634 37.9328,123.1634 37.9328,123.1634 Z M41.5340,123.1634 C41.5340,124.6039 41.5340,124.6039 41.5340,124.6039 C42.4944,126.0444 42.9745,126.7646 42.9745,128.9253 C42.9745,129.1654 42.9745,129.4055 42.9745,129.6456 C44.1749,129.6456 44.1749,129.6456 44.1749,129.6456 C44.1749,123.1634 44.1749,123.1634 44.1749,123.1634 C41.5340,123.1634 41.5340,123.1634 41.5340,123.1634 Z M5.2818,134.9274 C5.2818,136.3679 5.2818,136.3679 5.2818,136.3679 C6.0020,137.5683 6.4822,138.2885 6.4822,140.6893 C6.4822,140.9294 6.4822,140.9294 6.4822,141.1695 C7.9227,141.1695 7.9227,141.1695 7.9227,141.1695 C7.9227,134.9274 7.9227,134.9274 7.9227,134.9274 C5.2818,134.9274 5.2818,134.9274 5.2818,134.9274 Z M8.8830,134.9274 C8.8830,136.3679 8.8830,136.3679 8.8830,136.3679 C9.6032,137.5683 10.3235,138.2885 10.3235,140.6893 C10.3235,140.9294 10.0834,140.9294 10.0834,141.1695 C11.5239,141.1695 11.5239,141.1695 11.5239,141.1695 C11.5239,134.9274 11.5239,134.9274 11.5239,134.9274 C8.8830,134.9274 8.8830,134.9274 8.8830,134.9274 Z M12.4842,134.9274 C12.4842,136.3679 12.4842,136.3679 12.4842,136.3679 C13.2045,137.5683 13.9247,138.2885 13.9247,140.6893 C13.9247,140.9294 13.9247,140.9294 13.9247,141.1695 C15.1251,141.1695 15.1251,141.1695 15.1251,141.1695 C15.1251,134.9274 15.1251,134.9274 15.1251,134.9274 C12.4842,134.9274 12.4842,134.9274 12.4842,134.9274 Z M16.0854,134.9274 C16.0854,136.3679 16.0854,136.3679 16.0854,136.3679 C17.0458,137.5683 17.5259,138.2885 17.5259,140.6893 C17.5259,140.9294 17.5259,140.9294 17.5259,141.1695 C18.7263,141.1695 18.7263,141.1695 18.7263,141.1695 C18.7263,134.9274 18.7263,134.9274 18.7263,134.9274 C16.0854,134.9274 16.0854,134.9274 16.0854,134.9274 Z M19.6867,134.9274 C19.6867,136.3679 19.6867,136.3679 19.6867,136.3679 C20.6470,137.5683 21.1271,138.2885 21.1271,140.6893 C21.1271,140.9294 21.1271,140.9294 21.1271,141.1695 C22.5676,141.1695 22.5676,141.1695 22.5676,141.1695 C22.5676,134.9274 22.5676,134.9274 22.5676,134.9274 C19.6867,134.9274 19.6867,134.9274 19.6867,134.9274 Z M23.5280,134.9274 C23.5280,136.3679 23.5280,136.3679 23.5280,136.3679 C24.2482,137.5683 24.7284,138.2885 24.7284,140.6893 C24.7284,140.9294 24.7284,140.9294 24.7284,141.1695 C26.1689,141.1695 26.1689,141.1695 26.1689,141.1695 C26.1689,134.9274 26.1689,134.9274 26.1689,134.9274 C23.5280,134.9274 23.5280,134.9274 23.5280,134.9274 Z M27.1292,134.9274 C27.1292,136.3679 27.1292,136.3679 27.1292,136.3679 C27.8494,137.5683 28.3296,138.2885 28.3296,140.6893 C28.3296,140.9294 28.3296,140.9294 28.3296,141.1695 C29.7701,141.1695 29.7701,141.1695 29.7701,141.1695 C29.7701,134.9274 29.7701,134.9274 29.7701,134.9274 C27.1292,134.9274 27.1292,134.9274 27.1292,134.9274 Z M30.7304,134.9274 C30.7304,136.3679 30.7304,136.3679 30.7304,136.3679 C31.4506,137.5683 32.1709,138.2885 32.1709,140.6893 C32.1709,140.9294 31.9308,140.9294 31.9308,141.1695 C33.3713,141.1695 33.3713,141.1695 33.3713,141.1695 C33.3713,134.9274 33.3713,134.9274 33.3713,134.9274 C30.7304,134.9274 30.7304,134.9274 30.7304,134.9274 Z M34.3316,134.9274 C34.3316,136.3679 34.3316,136.3679 34.3316,136.3679 C35.0519,137.5683 35.7721,138.2885 35.7721,140.6893 C35.7721,140.9294 35.7721,140.9294 35.7721,141.1695 C36.9725,141.1695 36.9725,141.1695 36.9725,141.1695 C36.9725,134.9274 36.9725,134.9274 36.9725,134.9274 C34.3316,134.9274 34.3316,134.9274 34.3316,134.9274 Z M37.9328,134.9274 C37.9328,136.3679 37.9328,136.3679 37.9328,136.3679 C38.8932,137.5683 39.3733,138.2885 39.3733,140.6893 C39.3733,140.9294 39.3733,140.9294 39.3733,141.1695 C40.5737,141.1695 40.5737,141.1695 40.5737,141.1695 C40.5737,134.9274 40.5737,134.9274 40.5737,134.9274 C37.9328,134.9274 37.9328,134.9274 37.9328,134.9274 Z M41.5340,134.9274 C41.5340,136.3679 41.5340,136.3679 41.5340,136.3679 C42.4944,137.5683 42.9745,138.2885 42.9745,140.6893 C42.9745,140.9294 42.9745,140.9294 42.9745,141.1695 C44.1749,141.1695 44.1749,141.1695 44.1749,141.1695 C44.1749,134.9274 44.1749,134.9274 44.1749,134.9274 C41.5340,134.9274 41.5340,134.9274 41.5340,134.9274 Z M19.6867,111.6395 C19.6867,113.0800 19.6867,113.0800 19.6867,113.0800 C20.6470,114.2804 21.1271,115.0006 21.1271,117.4014 C21.1271,117.6415 21.1271,117.8816 21.1271,117.8816 C22.5676,117.8816 22.5676,117.8816 22.5676,117.8816 C22.5676,111.6395 22.5676,111.6395 22.5676,111.6395 C19.6867,111.6395 19.6867,111.6395 19.6867,111.6395 Z M23.5280,111.6395 C23.5280,113.0800 23.5280,113.0800 23.5280,113.0800 C24.2482,114.2804 24.7284,115.0006 24.7284,117.4014 C24.7284,117.6415 24.7284,117.8816 24.7284,117.8816 C26.1689,117.8816 26.1689,117.8816 26.1689,117.8816 C26.1689,111.6395 26.1689,111.6395 26.1689,111.6395 C23.5280,111.6395 23.5280,111.6395 23.5280,111.6395 Z M27.1292,111.6395 C27.1292,113.0800 27.1292,113.0800 27.1292,113.0800 C27.8494,114.2804 28.3296,115.0006 28.3296,117.4014 C28.3296,117.6415 28.3296,117.8816 28.3296,117.8816 C29.7701,117.8816 29.7701,117.8816 29.7701,117.8816 C29.7701,111.6395 29.7701,111.6395 29.7701,111.6395 C27.1292,111.6395 27.1292,111.6395 27.1292,111.6395 Z M30.7304,111.6395 C30.7304,113.0800 30.7304,113.0800 30.7304,113.0800 C31.4506,114.2804 32.1709,115.0006 32.1709,117.4014 C32.1709,117.6415 31.9308,117.8816 31.9308,117.8816 C33.3713,117.8816 33.3713,117.8816 33.3713,117.8816 C33.3713,111.6395 33.3713,111.6395 33.3713,111.6395 C30.7304,111.6395 30.7304,111.6395 30.7304,111.6395 Z M34.3316,111.6395 C34.3316,113.0800 34.3316,113.0800 34.3316,113.0800 C35.0519,114.2804 35.7721,115.0006 35.7721,117.4014 C35.7721,117.6415 35.7721,117.8816 35.7721,117.8816 C36.9725,117.8816 36.9725,117.8816 36.9725,117.8816 C36.9725,111.6395 36.9725,111.6395 36.9725,111.6395 C34.3316,111.6395 34.3316,111.6395 34.3316,111.6395 Z M5.2818,111.6395 C5.2818,113.0800 5.2818,113.0800 5.2818,113.0800 C6.0020,114.2804 6.4822,115.0006 6.4822,117.4014 C6.4822,117.6415 6.4822,117.8816 6.4822,117.8816 C7.9227,117.8816 7.9227,117.8816 7.9227,117.8816 C7.9227,111.6395 7.9227,111.6395 7.9227,111.6395 C5.2818,111.6395 5.2818,111.6395 5.2818,111.6395 Z M8.8830,111.6395 C8.8830,113.0800 8.8830,113.0800 8.8830,113.0800 C9.6032,114.2804 10.3235,115.0006 10.3235,117.4014 C10.3235,117.6415 10.0834,117.8816 10.0834,117.8816 C11.5239,117.8816 11.5239,117.8816 11.5239,117.8816 C11.5239,111.6395 11.5239,111.6395 11.5239,111.6395 C8.8830,111.6395 8.8830,111.6395 8.8830,111.6395 Z M12.4842,111.6395 C12.4842,113.0800 12.4842,113.0800 12.4842,113.0800 C13.2045,114.2804 13.9247,115.0006 13.9247,117.4014 C13.9247,117.6415 13.9247,117.8816 13.9247,117.8816 C15.1251,117.8816 15.1251,117.8816 15.1251,117.8816 C15.1251,111.6395 15.1251,111.6395 15.1251,111.6395 C12.4842,111.6395 12.4842,111.6395 12.4842,111.6395 Z M16.0854,111.6395 C16.0854,113.0800 16.0854,113.0800 16.0854,113.0800 C17.0458,114.2804 17.5259,115.0006 17.5259,117.4014 C17.5259,117.6415 17.5259,117.8816 17.5259,117.8816 C18.7263,117.8816 18.7263,117.8816 18.7263,117.8816 C18.7263,111.6395 18.7263,111.6395 18.7263,111.6395 C16.0854,111.6395 16.0854,111.6395 16.0854,111.6395 Z M37.9328,111.6395 C37.9328,113.0800 37.9328,113.0800 37.9328,113.0800 C38.8932,114.2804 39.3733,115.0006 39.3733,117.4014 C39.3733,117.6415 39.3733,117.8816 39.3733,117.8816 C40.5737,117.8816 40.5737,117.8816 40.5737,117.8816 C40.5737,111.6395 40.5737,111.6395 40.5737,111.6395 C37.9328,111.6395 37.9328,111.6395 37.9328,111.6395 Z M41.5340,111.6395 C41.5340,113.0800 41.5340,113.0800 41.5340,113.0800 C42.4944,114.2804 42.9745,115.0006 42.9745,117.4014 C42.9745,117.6415 42.9745,117.8816 42.9745,117.8816 C44.1749,117.8816 44.1749,117.8816 44.1749,117.8816 C44.1749,111.6395 44.1749,111.6395 44.1749,111.6395 C41.5340,111.6395 41.5340,111.6395 41.5340,111.6395 Z M12.4842,99.8755 C12.4842,101.3160 12.4842,101.3160 12.4842,101.3160 C13.2045,102.7565 13.9247,103.4767 13.9247,105.8775 C13.9247,105.8775 13.9247,106.1176 13.9247,106.3577 C15.1251,106.3577 15.1251,106.3577 15.1251,106.3577 C15.1251,99.8755 15.1251,99.8755 15.1251,99.8755 C12.4842,99.8755 12.4842,99.8755 12.4842,99.8755 Z M16.0854,99.8755 C16.0854,101.3160 16.0854,101.3160 16.0854,101.3160 C17.0458,102.7565 17.5259,103.4767 17.5259,105.8775 C17.5259,105.8775 17.5259,106.1176 17.5259,106.3577 C18.7263,106.3577 18.7263,106.3577 18.7263,106.3577 C18.7263,99.8755 18.7263,99.8755 18.7263,99.8755 C16.0854,99.8755 16.0854,99.8755 16.0854,99.8755 Z M19.6867,99.8755 C19.6867,101.3160 19.6867,101.3160 19.6867,101.3160 C20.6470,102.7565 21.1271,103.4767 21.1271,105.8775 C21.1271,105.8775 21.1271,106.1176 21.1271,106.3577 C22.5676,106.3577 22.5676,106.3577 22.5676,106.3577 C22.5676,99.8755 22.5676,99.8755 22.5676,99.8755 C19.6867,99.8755 19.6867,99.8755 19.6867,99.8755 Z M23.5280,99.8755 C23.5280,101.3160 23.5280,101.3160 23.5280,101.3160 C24.2482,102.7565 24.7284,103.4767 24.7284,105.8775 C24.7284,105.8775 24.7284,106.1176 24.7284,106.3577 C26.1689,106.3577 26.1689,106.3577 26.1689,106.3577 C26.1689,99.8755 26.1689,99.8755 26.1689,99.8755 C23.5280,99.8755 23.5280,99.8755 23.5280,99.8755 Z M27.1292,99.8755 C27.1292,101.3160 27.1292,101.3160 27.1292,101.3160 C27.8494,102.7565 28.3296,103.4767 28.3296,105.8775 C28.3296,105.8775 28.3296,106.1176 28.3296,106.3577 C29.7701,106.3577 29.7701,106.3577 29.7701,106.3577 C29.7701,99.8755 29.7701,99.8755 29.7701,99.8755 C27.1292,99.8755 27.1292,99.8755 27.1292,99.8755 Z M30.7304,99.8755 C30.7304,101.3160 30.7304,101.3160 30.7304,101.3160 C31.4506,102.7565 32.1709,103.4767 32.1709,105.8775 C32.1709,105.8775 31.9308,106.1176 31.9308,106.3577 C33.3713,106.3577 33.3713,106.3577 33.3713,106.3577 C33.3713,99.8755 33.3713,99.8755 33.3713,99.8755 C30.7304,99.8755 30.7304,99.8755 30.7304,99.8755 Z M34.3316,99.8755 C34.3316,101.3160 34.3316,101.3160 34.3316,101.3160 C35.0519,102.7565 35.7721,103.4767 35.7721,105.8775 C35.7721,105.8775 35.7721,106.1176 35.7721,106.3577 C36.9725,106.3577 36.9725,106.3577 36.9725,106.3577 C36.9725,99.8755 36.9725,99.8755 36.9725,99.8755 C34.3316,99.8755 34.3316,99.8755 34.3316,99.8755 Z M37.9328,99.8755 C37.9328,101.3160 37.9328,101.3160 37.9328,101.3160 C38.8932,102.7565 39.3733,103.4767 39.3733,105.8775 C39.3733,105.8775 39.3733,106.1176 39.3733,106.3577 C40.5737,106.3577 40.5737,106.3577 40.5737,106.3577 C40.5737,99.8755 40.5737,99.8755 40.5737,99.8755 C37.9328,99.8755 37.9328,99.8755 37.9328,99.8755 Z M41.5340,99.8755 C41.5340,101.3160 41.5340,101.3160 41.5340,101.3160 C42.4944,102.7565 42.9745,103.4767 42.9745,105.8775 C42.9745,105.8775 42.9745,106.1176 42.9745,106.3577 C44.1749,106.3577 44.1749,106.3577 44.1749,106.3577 C44.1749,99.8755 44.1749,99.8755 44.1749,99.8755 C41.5340,99.8755 41.5340,99.8755 41.5340,99.8755 Z M5.2818,99.8755 C5.2818,101.3160 5.2818,101.3160 5.2818,101.3160 C6.0020,102.7565 6.4822,103.4767 6.4822,105.8775 C6.4822,105.8775 6.4822,106.1176 6.4822,106.3577 C7.9227,106.3577 7.9227,106.3577 7.9227,106.3577 C7.9227,99.8755 7.9227,99.8755 7.9227,99.8755 C5.2818,99.8755 5.2818,99.8755 5.2818,99.8755 Z M8.8830,99.8755 C8.8830,101.3160 8.8830,101.3160 8.8830,101.3160 C9.6032,102.7565 10.3235,103.4767 10.3235,105.8775 C10.3235,105.8775 10.0834,106.1176 10.0834,106.3577 C11.5239,106.3577 11.5239,106.3577 11.5239,106.3577 C11.5239,99.8755 11.5239,99.8755 11.5239,99.8755 C8.8830,99.8755 8.8830,99.8755 8.8830,99.8755 Z" style="fill-rule: evenodd; fill: #7f7f7f; "/>
    <text xmlns="http://www.w3.org/2000/svg" x="13.0884" y="176.2843">
      <tspan font-family="Arial" font-size="4.5000" fill="#000000" fill-opacity="1.0000" stroke-opacity="1.0000">
R200 Series</tspan>
    </text>
    <!--converted by libvisio2svg-->
  </g>
</svg>
