<svg xmlns="http://www.w3.org/2000/svg" xmlns:xlink="http://www.w3.org/1999/xlink" version="1.1" width="43.2000000000" height="7.2000000000">
  <title><![CDATA[SATA Storage Shelf]]></title>
  <g transform=" scale(1.000000) ">
    <g xmlns="http://www.w3.org/2000/svg" id="Layer1017">
      <path d="  M43.2281,-4.2958 L0.0281,-4.2958 L1.7881,-6.9945 L41.3081,-6.9945 L43.2281,-4.2958 Z" style="stroke-width: 0.0240; stroke-linecap: round; stroke-linejoin: round; fill-rule: evenodd; fill: #9a9898; "/>
      <path d="  M43.2281,-4.2958 L0.0281,-4.2958 L1.7881,-6.9945 L41.3081,-6.9945 L43.2281,-4.2958 Z" style="stroke-width: 0.0240; stroke: #ffffff; stroke-dasharray: none; stroke-linecap: round; stroke-linejoin: round; fill: none; "/>
    </g>
    <g xmlns="http://www.w3.org/2000/svg" id="Layer1018">
      <path d="  M43.2354,7.2281 L43.2354,-4.2958 L0.0208,-4.2958 L0.0208,7.2281 L43.2354,7.2281 Z" style="stroke-width: 0.0240; stroke-linecap: round; stroke-linejoin: round; fill-rule: evenodd; fill: #000000; "/>
      <path d="  M43.2354,7.2281 L43.2354,-4.2958 L0.0208,-4.2958 L0.0208,7.2281 L43.2354,7.2281 Z" style="stroke-width: 0.0240; stroke: #ffffff; stroke-dasharray: none; stroke-linecap: round; stroke-linejoin: round; fill: none; "/>
    </g>
    <path xmlns="http://www.w3.org/2000/svg" d="  M1.2808,-2.8971 C1.2808,-1.5341 1.2808,-1.5341 1.2808,-1.5341 C2.0597,-0.1711 2.6438,0.6078 2.6438,2.9444 C2.6438,3.1391 2.6438,3.3338 2.6438,3.5285 C4.0068,3.5285 4.0068,3.5285 4.0068,3.5285 C4.0068,-2.8971 4.0068,-2.8971 4.0068,-2.8971 C1.2808,-2.8971 1.2808,-2.8971 1.2808,-2.8971 Z M4.9804,-2.8971 C4.9804,-1.5341 4.9804,-1.5341 4.9804,-1.5341 C5.7593,-0.1711 6.3434,0.6078 6.3434,2.9444 C6.3434,3.1391 6.3434,3.3338 6.1487,3.5285 C7.5117,3.5285 7.5117,3.5285 7.5117,3.5285 C7.5117,-2.8971 7.5117,-2.8971 7.5117,-2.8971 C4.9804,-2.8971 4.9804,-2.8971 4.9804,-2.8971 Z M8.6800,-2.8971 C8.6800,-1.5341 8.6800,-1.5341 8.6800,-1.5341 C9.4589,-0.1711 10.0430,0.6078 10.0430,2.9444 C10.0430,3.1391 9.8483,3.3338 9.8483,3.5285 C11.2113,3.5285 11.2113,3.5285 11.2113,3.5285 C11.2113,-2.8971 11.2113,-2.8971 11.2113,-2.8971 C8.6800,-2.8971 8.6800,-2.8971 8.6800,-2.8971 Z M12.1849,-2.8971 C12.1849,-1.5341 12.1849,-1.5341 12.1849,-1.5341 C13.1585,-0.1711 13.5479,0.6078 13.5479,2.9444 C13.5479,3.1391 13.5479,3.3338 13.5479,3.5285 C14.9109,3.5285 14.9109,3.5285 14.9109,3.5285 C14.9109,-2.8971 14.9109,-2.8971 14.9109,-2.8971 C12.1849,-2.8971 12.1849,-2.8971 12.1849,-2.8971 Z M15.8845,-2.8971 C15.8845,-1.5341 15.8845,-1.5341 15.8845,-1.5341 C16.8581,-0.1711 17.2475,0.6078 17.2475,2.9444 C17.2475,3.1391 17.2475,3.3338 17.2475,3.5285 C18.6105,3.5285 18.6105,3.5285 18.6105,3.5285 C18.6105,-2.8971 18.6105,-2.8971 18.6105,-2.8971 C15.8845,-2.8971 15.8845,-2.8971 15.8845,-2.8971 Z M19.5841,-2.8971 C19.5841,-1.5341 19.5841,-1.5341 19.5841,-1.5341 C20.5577,-0.1711 20.9471,0.6078 20.9471,2.9444 C20.9471,3.1391 20.9471,3.3338 20.9471,3.5285 C22.3102,3.5285 22.3102,3.5285 22.3102,3.5285 C22.3102,-2.8971 22.3102,-2.8971 22.3102,-2.8971 C19.5841,-2.8971 19.5841,-2.8971 19.5841,-2.8971 Z M23.2837,-2.8971 C23.2837,-1.5341 23.2837,-1.5341 23.2837,-1.5341 C24.2573,-0.1711 24.6467,0.6078 24.6467,2.9444 C24.6467,3.1391 24.6467,3.3338 24.6467,3.5285 C26.0098,3.5285 26.0098,3.5285 26.0098,3.5285 C26.0098,-2.8971 26.0098,-2.8971 26.0098,-2.8971 C23.2837,-2.8971 23.2837,-2.8971 23.2837,-2.8971 Z M26.9833,-2.8971 C26.9833,-1.5341 26.9833,-1.5341 26.9833,-1.5341 C27.7622,-0.1711 28.3464,0.6078 28.3464,2.9444 C28.3464,3.1391 28.3464,3.3338 28.3464,3.5285 C29.7094,3.5285 29.7094,3.5285 29.7094,3.5285 C29.7094,-2.8971 29.7094,-2.8971 29.7094,-2.8971 C26.9833,-2.8971 26.9833,-2.8971 26.9833,-2.8971 Z M30.6829,-2.8971 C30.6829,-1.5341 30.6829,-1.5341 30.6829,-1.5341 C31.4618,-0.1711 32.0460,0.6078 32.0460,2.9444 C32.0460,3.1391 32.0460,3.3338 32.0460,3.5285 C33.4090,3.5285 33.4090,3.5285 33.4090,3.5285 C33.4090,-2.8971 33.4090,-2.8971 33.4090,-2.8971 C30.6829,-2.8971 30.6829,-2.8971 30.6829,-2.8971 Z M34.3826,-2.8971 C34.3826,-1.5341 34.3826,-1.5341 34.3826,-1.5341 C35.1614,-0.1711 35.7456,0.6078 35.7456,2.9444 C35.7456,3.1391 35.7456,3.3338 35.7456,3.5285 C37.1086,3.5285 37.1086,3.5285 37.1086,3.5285 C37.1086,-2.8971 37.1086,-2.8971 37.1086,-2.8971 C34.3826,-2.8971 34.3826,-2.8971 34.3826,-2.8971 Z M38.0822,-2.8971 C38.0822,-1.5341 38.0822,-1.5341 38.0822,-1.5341 C38.8610,-0.1711 39.4452,0.6078 39.4452,2.9444 C39.4452,3.1391 39.4452,3.3338 39.4452,3.5285 C40.8082,3.5285 40.8082,3.5285 40.8082,3.5285 C40.8082,-2.8971 40.8082,-2.8971 40.8082,-2.8971 C38.0822,-2.8971 38.0822,-2.8971 38.0822,-2.8971 Z" style="fill-rule: evenodd; fill: #7f7f7f; "/>
    <text xmlns="http://www.w3.org/2000/svg" x="2.6174" y="11.9724">
      <tspan font-family="Arial" font-size="4.5000" fill="#000000" fill-opacity="1.0000" stroke-opacity="1.0000">
SATA Storage Shelf</tspan>
    </text>
    <!--converted by libvisio2svg-->
  </g>
</svg>
