<svg xmlns="http://www.w3.org/2000/svg" xmlns:xlink="http://www.w3.org/1999/xlink" version="1.1" width="43.2000000000" height="7.2000000000">
  <title><![CDATA[SATA Storage Shelf rackmount]]></title>
  <g transform=" scale(1.000000) ">
    <g xmlns="http://www.w3.org/2000/svg" id="Layer1062">
      <path d="  M43.1792,7.2000 L43.1792,-4.3239 L-0.0354,-4.3239 L-0.0354,7.2000 L43.1792,7.2000 Z" style="stroke-width: 0.0240; stroke-linecap: round; stroke-linejoin: round; fill-rule: evenodd; fill: #000000; "/>
      <path d="  M43.1792,7.2000 L43.1792,-4.3239 L-0.0354,-4.3239 L-0.0354,7.2000 L43.1792,7.2000 Z" style="stroke-width: 0.0240; stroke: #ffffff; stroke-dasharray: none; stroke-linecap: round; stroke-linejoin: round; fill: none; "/>
    </g>
    <path xmlns="http://www.w3.org/2000/svg" d="  M1.2246,-2.9252 C1.2246,-1.5622 1.2246,-1.5622 1.2246,-1.5622 C2.0034,-0.1992 2.5876,0.5797 2.5876,2.9162 C2.5876,3.1110 2.5876,3.3057 2.5876,3.5004 C3.9506,3.5004 3.9506,3.5004 3.9506,3.5004 C3.9506,-2.9252 3.9506,-2.9252 3.9506,-2.9252 C1.2246,-2.9252 1.2246,-2.9252 1.2246,-2.9252 Z M4.9242,-2.9252 C4.9242,-1.5622 4.9242,-1.5622 4.9242,-1.5622 C5.7030,-0.1992 6.2872,0.5797 6.2872,2.9162 C6.2872,3.1110 6.2872,3.3057 6.0925,3.5004 C7.4555,3.5004 7.4555,3.5004 7.4555,3.5004 C7.4555,-2.9252 7.4555,-2.9252 7.4555,-2.9252 C4.9242,-2.9252 4.9242,-2.9252 4.9242,-2.9252 Z M8.6238,-2.9252 C8.6238,-1.5622 8.6238,-1.5622 8.6238,-1.5622 C9.4026,-0.1992 9.9868,0.5797 9.9868,2.9162 C9.9868,3.1110 9.7921,3.3057 9.7921,3.5004 C11.1551,3.5004 11.1551,3.5004 11.1551,3.5004 C11.1551,-2.9252 11.1551,-2.9252 11.1551,-2.9252 C8.6238,-2.9252 8.6238,-2.9252 8.6238,-2.9252 Z M12.1287,-2.9252 C12.1287,-1.5622 12.1287,-1.5622 12.1287,-1.5622 C13.1022,-0.1992 13.4917,0.5797 13.4917,2.9162 C13.4917,3.1110 13.4917,3.3057 13.4917,3.5004 C14.8547,3.5004 14.8547,3.5004 14.8547,3.5004 C14.8547,-2.9252 14.8547,-2.9252 14.8547,-2.9252 C12.1287,-2.9252 12.1287,-2.9252 12.1287,-2.9252 Z M15.8283,-2.9252 C15.8283,-1.5622 15.8283,-1.5622 15.8283,-1.5622 C16.8019,-0.1992 17.1913,0.5797 17.1913,2.9162 C17.1913,3.1110 17.1913,3.3057 17.1913,3.5004 C18.5543,3.5004 18.5543,3.5004 18.5543,3.5004 C18.5543,-2.9252 18.5543,-2.9252 18.5543,-2.9252 C15.8283,-2.9252 15.8283,-2.9252 15.8283,-2.9252 Z M19.5279,-2.9252 C19.5279,-1.5622 19.5279,-1.5622 19.5279,-1.5622 C20.5015,-0.1992 20.8909,0.5797 20.8909,2.9162 C20.8909,3.1110 20.8909,3.3057 20.8909,3.5004 C22.2539,3.5004 22.2539,3.5004 22.2539,3.5004 C22.2539,-2.9252 22.2539,-2.9252 22.2539,-2.9252 C19.5279,-2.9252 19.5279,-2.9252 19.5279,-2.9252 Z M23.2275,-2.9252 C23.2275,-1.5622 23.2275,-1.5622 23.2275,-1.5622 C24.2011,-0.1992 24.5905,0.5797 24.5905,2.9162 C24.5905,3.1110 24.5905,3.3057 24.5905,3.5004 C25.9535,3.5004 25.9535,3.5004 25.9535,3.5004 C25.9535,-2.9252 25.9535,-2.9252 25.9535,-2.9252 C23.2275,-2.9252 23.2275,-2.9252 23.2275,-2.9252 Z M26.9271,-2.9252 C26.9271,-1.5622 26.9271,-1.5622 26.9271,-1.5622 C27.7060,-0.1992 28.2901,0.5797 28.2901,2.9162 C28.2901,3.1110 28.2901,3.3057 28.2901,3.5004 C29.6531,3.5004 29.6531,3.5004 29.6531,3.5004 C29.6531,-2.9252 29.6531,-2.9252 29.6531,-2.9252 C26.9271,-2.9252 26.9271,-2.9252 26.9271,-2.9252 Z M30.6267,-2.9252 C30.6267,-1.5622 30.6267,-1.5622 30.6267,-1.5622 C31.4056,-0.1992 31.9897,0.5797 31.9897,2.9162 C31.9897,3.1110 31.9897,3.3057 31.9897,3.5004 C33.3527,3.5004 33.3527,3.5004 33.3527,3.5004 C33.3527,-2.9252 33.3527,-2.9252 33.3527,-2.9252 C30.6267,-2.9252 30.6267,-2.9252 30.6267,-2.9252 Z M34.3263,-2.9252 C34.3263,-1.5622 34.3263,-1.5622 34.3263,-1.5622 C35.1052,-0.1992 35.6893,0.5797 35.6893,2.9162 C35.6893,3.1110 35.6893,3.3057 35.6893,3.5004 C37.0523,3.5004 37.0523,3.5004 37.0523,3.5004 C37.0523,-2.9252 37.0523,-2.9252 37.0523,-2.9252 C34.3263,-2.9252 34.3263,-2.9252 34.3263,-2.9252 Z M38.0259,-2.9252 C38.0259,-1.5622 38.0259,-1.5622 38.0259,-1.5622 C38.8048,-0.1992 39.3889,0.5797 39.3889,2.9162 C39.3889,3.1110 39.3889,3.3057 39.3889,3.5004 C40.7519,3.5004 40.7519,3.5004 40.7519,3.5004 C40.7519,-2.9252 40.7519,-2.9252 40.7519,-2.9252 C38.0259,-2.9252 38.0259,-2.9252 38.0259,-2.9252 Z" style="fill-rule: evenodd; fill: #7f7f7f; "/>
    <!--converted by libvisio2svg-->
  </g>
</svg>
