<svg xmlns="http://www.w3.org/2000/svg" xmlns:xlink="http://www.w3.org/1999/xlink" version="1.1" width="43.2000000000" height="7.2000000000">
  <title><![CDATA[SnapLock Volume]]></title>
  <g transform=" scale(1.000000) ">
    <g xmlns="http://www.w3.org/2000/svg" id="Layer1066">
      <path d="  M43.2395,-15.8856 L0.0168,-15.8856 L0.0168,7.2281 L43.2395,7.2281 L43.2395,-15.8856 Z" style="stroke-width: 0.0240; stroke-linecap: round; stroke-linejoin: round; fill-rule: evenodd; fill: #171868; "/>
      <path d="  M43.2395,-15.8856 L0.0168,-15.8856 L0.0168,7.2281 L43.2395,7.2281 L43.2395,-15.8856 Z" style="stroke-width: 0.0240; stroke: #ffffff; stroke-dasharray: none; stroke-linecap: round; stroke-linejoin: round; fill: none; "/>
    </g>
    <path xmlns="http://www.w3.org/2000/svg" d="  M14.3473,0.7563 C14.3473,0.2940 13.8850,0.0629 13.8850,0.0629 C9.7246,0.0629 9.7246,0.0629 9.7246,0.0629 C9.7246,0.0629 9.0311,0.2940 9.0311,0.7563 C9.0311,0.9874 9.7246,1.2186 9.7246,1.2186 C13.8850,1.2186 13.8850,1.2186 13.8850,1.2186 C13.8850,1.2186 14.3473,0.9874 14.3473,0.7563 Z M27.2910,0.7563 C27.2910,0.2940 26.5976,0.0629 26.5976,0.0629 C22.4371,0.0629 22.4371,0.0629 22.4371,0.0629 C22.4371,0.0629 21.9748,0.2940 21.9748,0.7563 C21.9748,0.9874 22.4371,1.2186 22.4371,1.2186 C26.5976,1.2186 26.5976,1.2186 26.5976,1.2186 C26.5976,1.2186 27.2910,0.9874 27.2910,0.7563 Z M40.2347,0.7563 C40.2347,0.2940 39.5413,0.0629 39.5413,0.0629 C35.3808,0.0629 35.3808,0.0629 35.3808,0.0629 C35.3808,0.0629 34.9185,0.2940 34.6874,0.7563 C34.9185,0.9874 35.3808,1.2186 35.3808,1.2186 C39.5413,1.2186 39.5413,1.2186 39.5413,1.2186 C39.5413,1.2186 40.2347,0.9874 40.2347,0.7563 Z" style="fill-rule: evenodd; fill: #ffffff; "/>
    <path xmlns="http://www.w3.org/2000/svg" d="  M11.5737,-2.0174 C12.0359,-2.0174 12.0359,-2.0174 12.0359,-2.0174 C12.4982,-2.0174 12.7293,-1.5551 12.7293,-1.0928 C12.7293,0.7563 12.7293,0.7563 12.7293,0.7563 C12.7293,0.7563 12.9605,0.9874 13.1916,0.9874 C13.1916,0.9874 13.4228,0.7563 13.4228,0.7563 C13.4228,-1.3240 13.4228,-1.3240 13.4228,-1.3240 C13.4228,-2.0174 12.7293,-2.7108 12.0359,-2.7108 C11.3425,-2.7108 11.3425,-2.7108 11.3425,-2.7108 C11.5737,-2.0174 11.5737,-2.0174 11.5737,-2.0174 Z M24.2862,-2.0174 C24.7485,-2.0174 24.7485,-2.0174 24.7485,-2.0174 C25.2108,-2.0174 25.6730,-1.5551 25.6730,-1.0928 C25.6730,0.7563 25.6730,0.7563 25.6730,0.7563 C25.6730,0.7563 25.9042,0.9874 25.9042,0.9874 C26.1353,0.9874 26.3664,0.7563 26.3664,0.7563 C26.3664,-1.3240 26.3664,-1.3240 26.3664,-1.3240 C26.3664,-2.0174 25.6730,-2.7108 24.9796,-2.7108 C24.2862,-2.7108 24.2862,-2.7108 24.2862,-2.7108 C24.2862,-2.0174 24.2862,-2.0174 24.2862,-2.0174 Z M37.2299,-2.0174 C37.6922,-2.0174 37.6922,-2.0174 37.6922,-2.0174 C38.1544,-2.0174 38.6167,-1.5551 38.6167,-1.0928 C38.6167,0.7563 38.6167,0.7563 38.6167,0.7563 C38.6167,0.7563 38.6167,0.9874 38.8479,0.9874 C39.0790,0.9874 39.0790,0.7563 39.0790,0.7563 C39.3101,0.7563 39.3101,0.7563 39.3101,0.7563 C39.3101,-1.3240 39.3101,-1.3240 39.3101,-1.3240 C39.3101,-2.0174 38.6167,-2.7108 37.6922,-2.7108 C37.2299,-2.7108 37.2299,-2.7108 37.2299,-2.7108 C37.2299,-2.0174 37.2299,-2.0174 37.2299,-2.0174 Z" style="fill-rule: evenodd; fill: #cccccc; "/>
    <g xmlns="http://www.w3.org/2000/svg" id="Layer1067">
      <path d="  M12.4982,-1.3240 L3.2527,-1.3240 L3.2527,-13.5742 L12.4982,-13.5742 L12.4982,-1.3240 Z M25.4419,-1.3240 L15.9653,-1.3240 L15.9653,-13.5742 L25.4419,-13.5742 L25.4419,-1.3240 Z M38.3856,-1.3240 L28.9089,-1.3240 L28.9089,-13.5742 L38.3856,-13.5742 L38.3856,-1.3240 Z" style="stroke-width: 0.0500; stroke-linecap: round; stroke-linejoin: round; fill-rule: evenodd; fill: #ffffff; "/>
      <path d="  M12.4982,-1.3240 L3.2527,-1.3240 L3.2527,-13.5742 L12.4982,-13.5742 L12.4982,-1.3240 Z M25.4419,-1.3240 L15.9653,-1.3240 L15.9653,-13.5742 L25.4419,-13.5742 L25.4419,-1.3240 Z M38.3856,-1.3240 L28.9089,-1.3240 L28.9089,-13.5742 L38.3856,-13.5742 L38.3856,-1.3240 Z" style="stroke-width: 0.0500; stroke: #000000; stroke-dasharray: none; stroke-linecap: round; stroke-linejoin: round; fill: none; "/>
    </g>
    <path xmlns="http://www.w3.org/2000/svg" d="  M13.8850,2.3742 C9.4934,2.3742 9.4934,2.3742 9.4934,2.3742 C9.4934,2.3742 9.2623,2.3742 9.0311,2.1431 C9.0311,2.6054 9.0311,2.6054 9.0311,2.6054 C9.0311,2.8365 9.4934,3.0677 9.7246,3.0677 C9.7246,3.0677 13.6539,3.0677 13.8850,3.0677 C13.8850,3.0677 14.3473,2.8365 14.3473,2.6054 C14.3473,2.1431 14.3473,2.1431 14.3473,2.1431 C14.1162,2.3742 13.8850,2.3742 13.8850,2.3742 Z M13.8850,3.2988 C9.4934,3.2988 9.4934,3.2988 9.4934,3.2988 C9.4934,3.2988 9.2623,3.0677 9.0311,3.0677 C9.0311,3.5299 9.0311,3.5299 9.0311,3.5299 C9.0311,3.7611 9.4934,3.9922 9.7246,3.9922 C9.7246,3.9922 13.6539,3.9922 13.8850,3.9922 C13.8850,3.9922 14.3473,3.7611 14.3473,3.5299 C14.3473,3.0677 14.3473,3.0677 14.3473,3.0677 C14.1162,3.0677 13.8850,3.2988 13.8850,3.2988 Z M13.8850,1.4497 C9.4934,1.4497 9.4934,1.4497 9.4934,1.4497 C9.4934,1.4497 9.2623,1.4497 9.0311,1.2186 C9.0311,1.6808 9.0311,1.6808 9.0311,1.6808 C9.0311,1.9120 9.4934,2.1431 9.7246,2.1431 C9.7246,2.1431 13.6539,2.1431 13.8850,2.1431 C13.8850,2.1431 14.3473,1.9120 14.3473,1.6808 C14.3473,1.2186 14.3473,1.2186 14.3473,1.2186 C14.1162,1.4497 13.8850,1.4497 13.8850,1.4497 Z M13.8850,4.2233 C9.4934,4.2233 9.4934,4.2233 9.4934,4.2233 C9.4934,4.2233 9.2623,3.9922 9.0311,3.9922 C9.0311,4.4545 9.0311,4.4545 9.0311,4.4545 C9.0311,4.6856 9.7246,4.9168 9.7246,4.9168 C13.8850,4.9168 13.8850,4.9168 13.8850,4.9168 C13.8850,4.9168 14.3473,4.6856 14.3473,4.4545 C14.3473,3.9922 14.3473,3.9922 14.3473,3.9922 C14.1162,3.9922 13.8850,4.2233 13.8850,4.2233 Z M26.8287,2.3742 C22.4371,2.3742 22.4371,2.3742 22.4371,2.3742 C22.4371,2.3742 22.2060,2.3742 21.9748,2.1431 C21.9748,2.6054 21.9748,2.6054 21.9748,2.6054 C21.9748,2.8365 22.4371,3.0677 22.4371,3.0677 C22.6682,3.0677 26.5976,3.0677 26.5976,3.0677 C26.8287,3.0677 27.2910,2.8365 27.2910,2.6054 C27.2910,2.1431 27.2910,2.1431 27.2910,2.1431 C27.0599,2.3742 26.8287,2.3742 26.8287,2.3742 Z M26.8287,3.2988 C22.4371,3.2988 22.4371,3.2988 22.4371,3.2988 C22.4371,3.2988 22.2060,3.0677 21.9748,3.0677 C21.9748,3.5299 21.9748,3.5299 21.9748,3.5299 C21.9748,3.7611 22.4371,3.9922 22.4371,3.9922 C22.6682,3.9922 26.5976,3.9922 26.5976,3.9922 C26.8287,3.9922 27.2910,3.7611 27.2910,3.5299 C27.2910,3.0677 27.2910,3.0677 27.2910,3.0677 C27.0599,3.0677 26.8287,3.2988 26.8287,3.2988 Z M26.8287,1.4497 C22.4371,1.4497 22.4371,1.4497 22.4371,1.4497 C22.4371,1.4497 22.2060,1.4497 21.9748,1.2186 C21.9748,1.6808 21.9748,1.6808 21.9748,1.6808 C21.9748,1.9120 22.4371,2.1431 22.4371,2.1431 C22.6682,2.1431 26.5976,2.1431 26.5976,2.1431 C26.8287,2.1431 27.2910,1.9120 27.2910,1.6808 C27.2910,1.2186 27.2910,1.2186 27.2910,1.2186 C27.0599,1.4497 26.8287,1.4497 26.8287,1.4497 Z M26.8287,4.2233 C22.4371,4.2233 22.4371,4.2233 22.4371,4.2233 C22.4371,4.2233 22.2060,3.9922 21.9748,3.9922 C21.9748,4.4545 21.9748,4.4545 21.9748,4.4545 C21.9748,4.6856 22.4371,4.9168 22.4371,4.9168 C26.5976,4.9168 26.5976,4.9168 26.5976,4.9168 C26.5976,4.9168 27.2910,4.6856 27.2910,4.4545 C27.2910,3.9922 27.2910,3.9922 27.2910,3.9922 C27.0599,3.9922 26.8287,4.2233 26.8287,4.2233 Z M39.5413,2.3742 C35.3808,2.3742 35.3808,2.3742 35.3808,2.3742 C35.1497,2.3742 34.9185,2.3742 34.6874,2.1431 C34.6874,2.6054 34.6874,2.6054 34.6874,2.6054 C34.6874,2.8365 35.1497,3.0677 35.3808,3.0677 C35.3808,3.0677 39.5413,3.0677 39.5413,3.0677 C39.7724,3.0677 40.2347,2.8365 40.2347,2.6054 C40.2347,2.1431 40.2347,2.1431 40.2347,2.1431 C40.0035,2.3742 39.7724,2.3742 39.5413,2.3742 Z M39.5413,3.2988 C35.3808,3.2988 35.3808,3.2988 35.3808,3.2988 C35.1497,3.2988 34.9185,3.0677 34.6874,3.0677 C34.6874,3.5299 34.6874,3.5299 34.6874,3.5299 C34.6874,3.7611 35.1497,3.9922 35.3808,3.9922 C35.3808,3.9922 39.5413,3.9922 39.5413,3.9922 C39.7724,3.9922 40.2347,3.7611 40.2347,3.5299 C40.2347,3.0677 40.2347,3.0677 40.2347,3.0677 C40.0035,3.0677 39.7724,3.2988 39.5413,3.2988 Z M39.5413,1.4497 C35.3808,1.4497 35.3808,1.4497 35.3808,1.4497 C35.1497,1.4497 34.9185,1.4497 34.6874,1.2186 C34.6874,1.6808 34.6874,1.6808 34.6874,1.6808 C34.6874,1.9120 35.1497,2.1431 35.3808,2.1431 C35.3808,2.1431 39.5413,2.1431 39.5413,2.1431 C39.7724,2.1431 40.2347,1.9120 40.2347,1.6808 C40.2347,1.2186 40.2347,1.2186 40.2347,1.2186 C40.0035,1.4497 39.7724,1.4497 39.5413,1.4497 Z M39.5413,4.2233 C35.3808,4.2233 35.3808,4.2233 35.3808,4.2233 C35.1497,4.2233 34.9185,3.9922 34.6874,3.9922 C34.6874,4.4545 34.6874,4.4545 34.6874,4.4545 C34.6874,4.6856 35.3808,4.9168 35.3808,4.9168 C39.5413,4.9168 39.5413,4.9168 39.5413,4.9168 C39.5413,4.9168 40.2347,4.6856 40.2347,4.4545 C40.2347,3.9922 40.2347,3.9922 40.2347,3.9922 C40.0035,3.9922 39.7724,4.2233 39.5413,4.2233 Z" style="fill-rule: evenodd; fill: #ffffff; "/>
    <path xmlns="http://www.w3.org/2000/svg" d="  M11.5737,-2.4796 C11.5737,-2.4796 11.3425,-2.7108 11.3425,-2.7108 C10.6491,-2.7108 9.9557,-2.0174 9.9557,-1.3240 C9.9557,0.7563 9.9557,0.7563 9.9557,0.7563 C9.9557,0.7563 10.1868,0.9874 10.4180,0.9874 C10.4180,0.9874 10.6491,0.7563 10.6491,0.7563 C10.6491,-1.0928 10.6491,-1.0928 10.6491,-1.0928 C10.6491,-1.5551 11.1114,-2.0174 11.5737,-2.0174 C11.5737,-2.0174 11.5737,-2.0174 11.5737,-2.4796 Z M24.5173,-2.4796 C24.5173,-2.4796 24.2862,-2.7108 24.2862,-2.7108 C23.5928,-2.7108 22.8994,-2.0174 22.8994,-1.3240 C22.8994,0.7563 22.8994,0.7563 22.8994,0.7563 C22.8994,0.7563 23.1305,0.9874 23.1305,0.9874 C23.3617,0.9874 23.3617,0.7563 23.5928,0.7563 C23.5928,-1.0928 23.5928,-1.0928 23.5928,-1.0928 C23.5928,-1.5551 23.8239,-2.0174 24.2862,-2.0174 C24.2862,-2.0174 24.5173,-2.0174 24.5173,-2.4796 Z M37.4610,-2.4796 C37.4610,-2.4796 37.2299,-2.7108 37.2299,-2.7108 C36.3053,-2.7108 35.8431,-2.0174 35.8431,-1.3240 C35.8431,0.7563 35.8431,0.7563 35.8431,0.7563 C35.8431,0.7563 36.0742,0.9874 36.0742,0.9874 C36.0742,0.9874 36.3053,0.7563 36.3053,0.7563 C36.3053,-1.0928 36.3053,-1.0928 36.3053,-1.0928 C36.3053,-1.5551 36.7676,-2.0174 37.2299,-2.0174 C37.2299,-2.0174 37.4610,-2.0174 37.4610,-2.4796 Z" style="fill-rule: evenodd; fill: #cccccc; "/>
    <path xmlns="http://www.w3.org/2000/svg" d="  M4.6395,-10.1072 L11.1114,-10.1072 M4.6395,-8.3736 L11.1114,-8.3736 M4.6395,-6.6401 L11.1114,-6.6401 M4.6395,-4.9066 L11.1114,-4.9066 M4.6395,-3.1731 L11.1114,-3.1731 M17.4677,-10.1072 L23.9395,-10.1072 M17.4677,-8.3736 L23.9395,-8.3736 M17.4677,-6.6401 L23.9395,-6.6401 M17.4677,-4.9066 L23.9395,-4.9066 M17.4677,-3.1731 L23.9395,-3.1731 M30.4113,-10.1072 L36.8832,-10.1072 M30.4113,-8.3736 L36.8832,-8.3736 M30.4113,-6.6401 L36.8832,-6.6401 M30.4113,-4.9066 L36.8832,-4.9066 M30.4113,-3.1731 L36.8832,-3.1731" style="stroke-width: 0.0591; stroke: #000000; stroke-dasharray: none; stroke-linecap: round; stroke-linejoin: round; fill: none; "/>
    <text xmlns="http://www.w3.org/2000/svg" x="3.3217" y="11.8824">
      <tspan font-family="Arial" font-size="4.5000" fill="#000000" fill-opacity="1.0000" stroke-opacity="1.0000">
SnapLock Volume</tspan>
    </text>
    <!--converted by libvisio2svg-->
  </g>
</svg>
