<svg xmlns="http://www.w3.org/2000/svg" xmlns:xlink="http://www.w3.org/1999/xlink" version="1.1" width="43.2000000000" height="7.2000000000">
  <title><![CDATA[SpinServer rackmount]]></title>
  <g transform=" scale(1.000000) ">
    <g xmlns="http://www.w3.org/2000/svg" id="Layer1065">
      <path d="  M43.3029,7.2000 L43.3029,-4.3239 L0.0883,-4.3239 L0.0883,7.2000 L43.3029,7.2000 Z" style="stroke-width: 0.0240; stroke-linecap: round; stroke-linejoin: round; fill-rule: evenodd; fill: #171868; "/>
      <path d="  M43.3029,7.2000 L43.3029,-4.3239 L0.0883,-4.3239 L0.0883,7.2000 L43.3029,7.2000 Z" style="stroke-width: 0.0240; stroke: #ffffff; stroke-dasharray: none; stroke-linecap: round; stroke-linejoin: round; fill: none; "/>
    </g>
    <path xmlns="http://www.w3.org/2000/svg" d="  M37.9633,6.3553 L36.4428,6.3553 L36.4428,-1.5851 L37.9633,-1.5851 L37.9633,6.3553 Z M35.5981,6.3553 L34.2465,6.3553 L34.2465,-1.5851 L35.5981,-1.5851 L35.5981,6.3553 Z M33.4018,6.3553 L31.8813,6.3553 L31.8813,-1.5851 L33.4018,-1.5851 L33.4018,6.3553 Z M31.0366,6.3553 L29.6850,6.3553 L29.6850,-1.5851 L31.0366,-1.5851 L31.0366,6.3553 Z M42.1869,4.6658 L41.0043,4.6658 L41.0043,-1.5851 L42.1869,-1.5851 L42.1869,4.6658 Z M25.9682,6.3553 L19.0415,6.3553 L19.0415,-0.9094 L25.9682,-0.9094 L25.9682,6.3553 Z M18.5347,6.3553 L11.6079,6.3553 L11.6079,-0.9094 L18.5347,-0.9094 L18.5347,6.3553 Z M11.1011,6.3553 L4.3433,6.3553 L4.3433,-0.9094 L11.1011,-0.9094 L11.1011,6.3553 Z M2.1470,4.6658 L0.9644,4.6658 L0.9644,-1.5851 L2.1470,-1.5851 L2.1470,4.6658 Z" style="fill-rule: evenodd; fill: #8275a3; "/>
    <path xmlns="http://www.w3.org/2000/svg" d="  M10.4253,5.5106 L5.0191,5.5106 L5.0191,5.0037 L10.4253,5.0037 L10.4253,5.5106 Z M17.8589,5.5106 L12.4526,5.5106 L12.4526,5.0037 L17.8589,5.0037 L17.8589,5.5106 Z M25.1235,5.5106 L19.7173,5.5106 L19.7173,5.0037 L25.1235,5.0037 L25.1235,5.5106 Z" style="fill-rule: evenodd; fill: #171868; "/>
    <!--converted by libvisio2svg-->
  </g>
</svg>
