<svg xmlns="http://www.w3.org/2000/svg" xmlns:xlink="http://www.w3.org/1999/xlink" version="1.1" width="7.2000000000" height="171.3600000000">
  <title><![CDATA[Standalone ATA/FC Combo Cabinet]]></title>
  <g transform=" scale(1.000000) ">
    <path xmlns="http://www.w3.org/2000/svg" d="  M46.5166,2.1020 L-2.7000,2.1020 L-0.0591,-1.4992 L44.1158,-1.4992 L46.5166,2.1020 Z" style="fill-rule: evenodd; fill: #b3b3b3; "/>
    <path xmlns="http://www.w3.org/2000/svg" d="  M46.5166,2.1020 L-2.7000,2.1020 L-2.7000,173.5200 L46.5166,173.5200 L46.5166,2.1020 Z" style="fill-rule: evenodd; fill: #7f7f7f; "/>
    <g xmlns="http://www.w3.org/2000/svg" id="Layer1048">
      <path d="  M0.4211,18.0674 L43.6357,18.0674 L43.6357,6.3034 L0.4211,6.3034 L0.4211,18.0674 Z M0.4211,29.5913 L43.6357,29.5913 L43.6357,18.0674 L0.4211,18.0674 L0.4211,29.5913 Z M0.4211,41.1152 L43.6357,41.1152 L43.6357,29.5913 L0.4211,29.5913 L0.4211,41.1152 Z M0.4211,52.8792 L43.6357,52.8792 L43.6357,41.1152 L0.4211,41.1152 L0.4211,52.8792 Z M0.4211,64.4031 L43.6357,64.4031 L43.6357,52.8792 L0.4211,52.8792 L0.4211,64.4031 Z M0.4211,64.4031 L0.4211,76.1671 L43.6357,76.1671 L43.6357,64.4031 L0.4211,64.4031 Z M43.6357,99.3430 L43.6357,76.5190 L0.4211,76.5190 L0.4211,99.3430 L43.6357,99.3430 Z" style="stroke-width: 0.0240; stroke-linecap: round; stroke-linejoin: round; fill-rule: evenodd; fill: #000000; "/>
      <path d="  M0.4211,18.0674 L43.6357,18.0674 L43.6357,6.3034 L0.4211,6.3034 L0.4211,18.0674 Z M0.4211,29.5913 L43.6357,29.5913 L43.6357,18.0674 L0.4211,18.0674 L0.4211,29.5913 Z M0.4211,41.1152 L43.6357,41.1152 L43.6357,29.5913 L0.4211,29.5913 L0.4211,41.1152 Z M0.4211,52.8792 L43.6357,52.8792 L43.6357,41.1152 L0.4211,41.1152 L0.4211,52.8792 Z M0.4211,64.4031 L43.6357,64.4031 L43.6357,52.8792 L0.4211,52.8792 L0.4211,64.4031 Z M0.4211,64.4031 L0.4211,76.1671 L43.6357,76.1671 L43.6357,64.4031 L0.4211,64.4031 Z M43.6357,99.3430 L43.6357,76.5190 L0.4211,76.5190 L0.4211,99.3430 L43.6357,99.3430 Z" style="stroke-width: 0.0240; stroke: #ffffff; stroke-dasharray: none; stroke-linecap: round; stroke-linejoin: round; fill: none; "/>
    </g>
    <g xmlns="http://www.w3.org/2000/svg" id="Layer1049">
      <path d="  M0.4211,111.2189 L43.6357,111.2189 L43.6357,99.6950 L0.4211,99.6950 L0.4211,111.2189 Z M0.4211,111.2189 L0.4211,122.7428 L43.6357,122.7428 L43.6357,111.2189 L0.4211,111.2189 Z M0.4211,122.7428 L0.4211,134.5068 L43.6357,134.5068 L43.6357,122.7428 L0.4211,122.7428 Z M0.4211,134.5068 L0.4211,146.0307 L43.6357,146.0307 L43.6357,134.5068 L0.4211,134.5068 Z M0.4211,146.0307 L0.4211,157.7947 L43.6357,157.7947 L43.6357,146.0307 L0.4211,146.0307 Z M0.4211,157.7947 L0.4211,169.3186 L43.6357,169.3186 L43.6357,157.7947 L0.4211,157.7947 Z" style="stroke-width: 0.0240; stroke-linecap: round; stroke-linejoin: round; fill-rule: evenodd; fill: #171868; "/>
      <path d="  M0.4211,111.2189 L43.6357,111.2189 L43.6357,99.6950 L0.4211,99.6950 L0.4211,111.2189 Z M0.4211,111.2189 L0.4211,122.7428 L43.6357,122.7428 L43.6357,111.2189 L0.4211,111.2189 Z M0.4211,122.7428 L0.4211,134.5068 L43.6357,134.5068 L43.6357,122.7428 L0.4211,122.7428 Z M0.4211,134.5068 L0.4211,146.0307 L43.6357,146.0307 L43.6357,134.5068 L0.4211,134.5068 Z M0.4211,146.0307 L0.4211,157.7947 L43.6357,157.7947 L43.6357,146.0307 L0.4211,146.0307 Z M0.4211,157.7947 L0.4211,169.3186 L43.6357,169.3186 L43.6357,157.7947 L0.4211,157.7947 Z" style="stroke-width: 0.0240; stroke: #ffffff; stroke-dasharray: none; stroke-linecap: round; stroke-linejoin: round; fill: none; "/>
    </g>
    <path xmlns="http://www.w3.org/2000/svg" d="  M2.4617,19.9881 C2.4617,21.6686 2.4617,21.6686 2.4617,21.6686 C3.4221,22.8690 3.9022,23.5893 3.9022,25.9901 C3.9022,25.9901 3.9022,26.2302 3.9022,26.4703 C5.3427,26.4703 5.3427,26.4703 5.3427,26.4703 C5.3427,19.9881 5.3427,19.9881 5.3427,19.9881 C2.4617,19.9881 2.4617,19.9881 2.4617,19.9881 Z M6.3030,19.9881 C6.3030,21.6686 6.3030,21.6686 6.3030,21.6686 C7.0233,22.8690 7.5035,23.5893 7.5035,25.9901 C7.5035,25.9901 7.5035,26.2302 7.5035,26.4703 C8.9439,26.4703 8.9439,26.4703 8.9439,26.4703 C8.9439,19.9881 8.9439,19.9881 8.9439,19.9881 C6.3030,19.9881 6.3030,19.9881 6.3030,19.9881 Z M9.9043,19.9881 C9.9043,21.6686 9.9043,21.6686 9.9043,21.6686 C10.6245,22.8690 11.1047,23.5893 11.1047,25.9901 C11.1047,25.9901 11.1047,26.2302 11.1047,26.4703 C12.5452,26.4703 12.5452,26.4703 12.5452,26.4703 C12.5452,19.9881 12.5452,19.9881 12.5452,19.9881 C9.9043,19.9881 9.9043,19.9881 9.9043,19.9881 Z M13.5055,19.9881 C13.5055,21.6686 13.5055,21.6686 13.5055,21.6686 C14.2257,22.8690 14.9460,23.5893 14.9460,25.9901 C14.9460,25.9901 14.7059,26.2302 14.7059,26.4703 C16.1464,26.4703 16.1464,26.4703 16.1464,26.4703 C16.1464,19.9881 16.1464,19.9881 16.1464,19.9881 C13.5055,19.9881 13.5055,19.9881 13.5055,19.9881 Z M17.1067,19.9881 C17.1067,21.6686 17.1067,21.6686 17.1067,21.6686 C17.8269,22.8690 18.5472,23.5893 18.5472,25.9901 C18.5472,25.9901 18.5472,26.2302 18.5472,26.4703 C19.7476,26.4703 19.7476,26.4703 19.7476,26.4703 C19.7476,19.9881 19.7476,19.9881 19.7476,19.9881 C17.1067,19.9881 17.1067,19.9881 17.1067,19.9881 Z M20.7079,19.9881 C20.7079,21.6686 20.7079,21.6686 20.7079,21.6686 C21.6682,22.8690 22.1484,23.5893 22.1484,25.9901 C22.1484,25.9901 22.1484,26.2302 22.1484,26.4703 C23.3488,26.4703 23.3488,26.4703 23.3488,26.4703 C23.3488,19.9881 23.3488,19.9881 23.3488,19.9881 C20.7079,19.9881 20.7079,19.9881 20.7079,19.9881 Z M24.3091,19.9881 C24.3091,21.6686 24.3091,21.6686 24.3091,21.6686 C25.2695,22.8690 25.7496,23.5893 25.7496,25.9901 C25.7496,25.9901 25.7496,26.2302 25.7496,26.4703 C26.9500,26.4703 26.9500,26.4703 26.9500,26.4703 C26.9500,19.9881 26.9500,19.9881 26.9500,19.9881 C24.3091,19.9881 24.3091,19.9881 24.3091,19.9881 Z M28.1504,19.9881 C28.1504,21.6686 28.1504,21.6686 28.1504,21.6686 C28.8707,22.8690 29.3508,23.5893 29.3508,25.9901 C29.3508,25.9901 29.3508,26.2302 29.3508,26.4703 C30.7913,26.4703 30.7913,26.4703 30.7913,26.4703 C30.7913,19.9881 30.7913,19.9881 30.7913,19.9881 C28.1504,19.9881 28.1504,19.9881 28.1504,19.9881 Z M31.7517,19.9881 C31.7517,21.6686 31.7517,21.6686 31.7517,21.6686 C32.4719,22.8690 32.9521,23.5893 32.9521,25.9901 C32.9521,25.9901 32.9521,26.2302 32.9521,26.4703 C34.3925,26.4703 34.3925,26.4703 34.3925,26.4703 C34.3925,19.9881 34.3925,19.9881 34.3925,19.9881 C31.7517,19.9881 31.7517,19.9881 31.7517,19.9881 Z M35.3529,19.9881 C35.3529,21.6686 35.3529,21.6686 35.3529,21.6686 C36.0731,22.8690 36.5533,23.5893 36.5533,25.9901 C36.5533,25.9901 36.5533,26.2302 36.5533,26.4703 C37.9938,26.4703 37.9938,26.4703 37.9938,26.4703 C37.9938,19.9881 37.9938,19.9881 37.9938,19.9881 C35.3529,19.9881 35.3529,19.9881 35.3529,19.9881 Z M38.9541,19.9881 C38.9541,21.6686 38.9541,21.6686 38.9541,21.6686 C39.6743,22.8690 40.3946,23.5893 40.3946,25.9901 C40.3946,25.9901 40.3946,26.2302 40.3946,26.4703 C41.5950,26.4703 41.5950,26.4703 41.5950,26.4703 C41.5950,19.9881 41.5950,19.9881 41.5950,19.9881 C38.9541,19.9881 38.9541,19.9881 38.9541,19.9881 Z M2.4617,8.4642 C2.4617,9.9047 2.4617,9.9047 2.4617,9.9047 C3.4221,11.3451 3.9022,12.0654 3.9022,14.2261 C3.9022,14.4662 3.9022,14.7063 3.9022,14.9464 C5.3427,14.9464 5.3427,14.9464 5.3427,14.9464 C5.3427,8.4642 5.3427,8.4642 5.3427,8.4642 C2.4617,8.4642 2.4617,8.4642 2.4617,8.4642 Z M6.3030,8.4642 C6.3030,9.9047 6.3030,9.9047 6.3030,9.9047 C7.0233,11.3451 7.5035,12.0654 7.5035,14.2261 C7.5035,14.4662 7.5035,14.7063 7.5035,14.9464 C8.9439,14.9464 8.9439,14.9464 8.9439,14.9464 C8.9439,8.4642 8.9439,8.4642 8.9439,8.4642 C6.3030,8.4642 6.3030,8.4642 6.3030,8.4642 Z M9.9043,8.4642 C9.9043,9.9047 9.9043,9.9047 9.9043,9.9047 C10.6245,11.3451 11.1047,12.0654 11.1047,14.2261 C11.1047,14.4662 11.1047,14.7063 11.1047,14.9464 C12.5452,14.9464 12.5452,14.9464 12.5452,14.9464 C12.5452,8.4642 12.5452,8.4642 12.5452,8.4642 C9.9043,8.4642 9.9043,8.4642 9.9043,8.4642 Z M13.5055,8.4642 C13.5055,9.9047 13.5055,9.9047 13.5055,9.9047 C14.2257,11.3451 14.9460,12.0654 14.9460,14.2261 C14.9460,14.4662 14.7059,14.7063 14.7059,14.9464 C16.1464,14.9464 16.1464,14.9464 16.1464,14.9464 C16.1464,8.4642 16.1464,8.4642 16.1464,8.4642 C13.5055,8.4642 13.5055,8.4642 13.5055,8.4642 Z M17.1067,8.4642 C17.1067,9.9047 17.1067,9.9047 17.1067,9.9047 C17.8269,11.3451 18.5472,12.0654 18.5472,14.2261 C18.5472,14.4662 18.5472,14.7063 18.5472,14.9464 C19.7476,14.9464 19.7476,14.9464 19.7476,14.9464 C19.7476,8.4642 19.7476,8.4642 19.7476,8.4642 C17.1067,8.4642 17.1067,8.4642 17.1067,8.4642 Z M20.7079,8.4642 C20.7079,9.9047 20.7079,9.9047 20.7079,9.9047 C21.6682,11.3451 22.1484,12.0654 22.1484,14.2261 C22.1484,14.4662 22.1484,14.7063 22.1484,14.9464 C23.3488,14.9464 23.3488,14.9464 23.3488,14.9464 C23.3488,8.4642 23.3488,8.4642 23.3488,8.4642 C20.7079,8.4642 20.7079,8.4642 20.7079,8.4642 Z M24.3091,8.4642 C24.3091,9.9047 24.3091,9.9047 24.3091,9.9047 C25.2695,11.3451 25.7496,12.0654 25.7496,14.2261 C25.7496,14.4662 25.7496,14.7063 25.7496,14.9464 C26.9500,14.9464 26.9500,14.9464 26.9500,14.9464 C26.9500,8.4642 26.9500,8.4642 26.9500,8.4642 C24.3091,8.4642 24.3091,8.4642 24.3091,8.4642 Z M28.1504,8.4642 C28.1504,9.9047 28.1504,9.9047 28.1504,9.9047 C28.8707,11.3451 29.3508,12.0654 29.3508,14.2261 C29.3508,14.4662 29.3508,14.7063 29.3508,14.9464 C30.7913,14.9464 30.7913,14.9464 30.7913,14.9464 C30.7913,8.4642 30.7913,8.4642 30.7913,8.4642 C28.1504,8.4642 28.1504,8.4642 28.1504,8.4642 Z M31.7517,8.4642 C31.7517,9.9047 31.7517,9.9047 31.7517,9.9047 C32.4719,11.3451 32.9521,12.0654 32.9521,14.2261 C32.9521,14.4662 32.9521,14.7063 32.9521,14.9464 C34.3925,14.9464 34.3925,14.9464 34.3925,14.9464 C34.3925,8.4642 34.3925,8.4642 34.3925,8.4642 C31.7517,8.4642 31.7517,8.4642 31.7517,8.4642 Z M35.3529,8.4642 C35.3529,9.9047 35.3529,9.9047 35.3529,9.9047 C36.0731,11.3451 36.5533,12.0654 36.5533,14.2261 C36.5533,14.4662 36.5533,14.7063 36.5533,14.9464 C37.9938,14.9464 37.9938,14.9464 37.9938,14.9464 C37.9938,8.4642 37.9938,8.4642 37.9938,8.4642 C35.3529,8.4642 35.3529,8.4642 35.3529,8.4642 Z M38.9541,8.4642 C38.9541,9.9047 38.9541,9.9047 38.9541,9.9047 C39.6743,11.3451 40.3946,12.0654 40.3946,14.2261 C40.3946,14.4662 40.3946,14.7063 40.3946,14.9464 C41.5950,14.9464 41.5950,14.9464 41.5950,14.9464 C41.5950,8.4642 41.5950,8.4642 41.5950,8.4642 C38.9541,8.4642 38.9541,8.4642 38.9541,8.4642 Z M31.7517,55.0399 C31.7517,56.4804 31.7517,56.4804 31.7517,56.4804 C32.4719,57.6808 32.9521,58.4011 32.9521,60.8019 C32.9521,61.0420 32.9521,61.2820 32.9521,61.2820 C34.3925,61.2820 34.3925,61.2820 34.3925,61.2820 C34.3925,55.0399 34.3925,55.0399 34.3925,55.0399 C31.7517,55.0399 31.7517,55.0399 31.7517,55.0399 Z M35.3529,55.0399 C35.3529,56.4804 35.3529,56.4804 35.3529,56.4804 C36.0731,57.6808 36.5533,58.4011 36.5533,60.8019 C36.5533,61.0420 36.5533,61.2820 36.5533,61.2820 C37.9938,61.2820 37.9938,61.2820 37.9938,61.2820 C37.9938,55.0399 37.9938,55.0399 37.9938,55.0399 C35.3529,55.0399 35.3529,55.0399 35.3529,55.0399 Z M38.9541,55.0399 C38.9541,56.4804 38.9541,56.4804 38.9541,56.4804 C39.6743,57.6808 40.3946,58.4011 40.3946,60.8019 C40.3946,61.0420 40.3946,61.2820 40.3946,61.2820 C41.5950,61.2820 41.5950,61.2820 41.5950,61.2820 C41.5950,55.0399 41.5950,55.0399 41.5950,55.0399 C38.9541,55.0399 38.9541,55.0399 38.9541,55.0399 Z M9.9043,66.5638 C9.9043,68.0043 9.9043,68.0043 9.9043,68.0043 C10.6245,69.4448 11.1047,70.1650 11.1047,72.3258 C11.1047,72.5659 11.1047,72.8059 11.1047,73.0460 C12.5452,73.0460 12.5452,73.0460 12.5452,73.0460 C12.5452,66.5638 12.5452,66.5638 12.5452,66.5638 C9.9043,66.5638 9.9043,66.5638 9.9043,66.5638 Z M13.5055,66.5638 C13.5055,68.0043 13.5055,68.0043 13.5055,68.0043 C14.2257,69.4448 14.9460,70.1650 14.9460,72.3258 C14.9460,72.5659 14.7059,72.8059 14.7059,73.0460 C16.1464,73.0460 16.1464,73.0460 16.1464,73.0460 C16.1464,66.5638 16.1464,66.5638 16.1464,66.5638 C13.5055,66.5638 13.5055,66.5638 13.5055,66.5638 Z M17.1067,66.5638 C17.1067,68.0043 17.1067,68.0043 17.1067,68.0043 C17.8269,69.4448 18.5472,70.1650 18.5472,72.3258 C18.5472,72.5659 18.5472,72.8059 18.5472,73.0460 C19.7476,73.0460 19.7476,73.0460 19.7476,73.0460 C19.7476,66.5638 19.7476,66.5638 19.7476,66.5638 C17.1067,66.5638 17.1067,66.5638 17.1067,66.5638 Z M20.7079,66.5638 C20.7079,68.0043 20.7079,68.0043 20.7079,68.0043 C21.6682,69.4448 22.1484,70.1650 22.1484,72.3258 C22.1484,72.5659 22.1484,72.8059 22.1484,73.0460 C23.3488,73.0460 23.3488,73.0460 23.3488,73.0460 C23.3488,66.5638 23.3488,66.5638 23.3488,66.5638 C20.7079,66.5638 20.7079,66.5638 20.7079,66.5638 Z M24.3091,66.5638 C24.3091,68.0043 24.3091,68.0043 24.3091,68.0043 C25.2695,69.4448 25.7496,70.1650 25.7496,72.3258 C25.7496,72.5659 25.7496,72.8059 25.7496,73.0460 C26.9500,73.0460 26.9500,73.0460 26.9500,73.0460 C26.9500,66.5638 26.9500,66.5638 26.9500,66.5638 C24.3091,66.5638 24.3091,66.5638 24.3091,66.5638 Z M28.1504,66.5638 C28.1504,68.0043 28.1504,68.0043 28.1504,68.0043 C28.8707,69.4448 29.3508,70.1650 29.3508,72.3258 C29.3508,72.5659 29.3508,72.8059 29.3508,73.0460 C30.7913,73.0460 30.7913,73.0460 30.7913,73.0460 C30.7913,66.5638 30.7913,66.5638 30.7913,66.5638 C28.1504,66.5638 28.1504,66.5638 28.1504,66.5638 Z M2.4617,66.5638 C2.4617,68.0043 2.4617,68.0043 2.4617,68.0043 C3.4221,69.4448 3.9022,70.1650 3.9022,72.3258 C3.9022,72.5659 3.9022,72.8059 3.9022,73.0460 C5.3427,73.0460 5.3427,73.0460 5.3427,73.0460 C5.3427,66.5638 5.3427,66.5638 5.3427,66.5638 C2.4617,66.5638 2.4617,66.5638 2.4617,66.5638 Z M6.3030,66.5638 C6.3030,68.0043 6.3030,68.0043 6.3030,68.0043 C7.0233,69.4448 7.5035,70.1650 7.5035,72.3258 C7.5035,72.5659 7.5035,72.8059 7.5035,73.0460 C8.9439,73.0460 8.9439,73.0460 8.9439,73.0460 C8.9439,66.5638 8.9439,66.5638 8.9439,66.5638 C6.3030,66.5638 6.3030,66.5638 6.3030,66.5638 Z M2.4617,55.0399 C2.4617,56.4804 2.4617,56.4804 2.4617,56.4804 C3.4221,57.6808 3.9022,58.4011 3.9022,60.8019 C3.9022,61.0420 3.9022,61.2820 3.9022,61.2820 C5.3427,61.2820 5.3427,61.2820 5.3427,61.2820 C5.3427,55.0399 5.3427,55.0399 5.3427,55.0399 C2.4617,55.0399 2.4617,55.0399 2.4617,55.0399 Z M6.3030,55.0399 C6.3030,56.4804 6.3030,56.4804 6.3030,56.4804 C7.0233,57.6808 7.5035,58.4011 7.5035,60.8019 C7.5035,61.0420 7.5035,61.2820 7.5035,61.2820 C8.9439,61.2820 8.9439,61.2820 8.9439,61.2820 C8.9439,55.0399 8.9439,55.0399 8.9439,55.0399 C6.3030,55.0399 6.3030,55.0399 6.3030,55.0399 Z M9.9043,55.0399 C9.9043,56.4804 9.9043,56.4804 9.9043,56.4804 C10.6245,57.6808 11.1047,58.4011 11.1047,60.8019 C11.1047,61.0420 11.1047,61.2820 11.1047,61.2820 C12.5452,61.2820 12.5452,61.2820 12.5452,61.2820 C12.5452,55.0399 12.5452,55.0399 12.5452,55.0399 C9.9043,55.0399 9.9043,55.0399 9.9043,55.0399 Z M13.5055,55.0399 C13.5055,56.4804 13.5055,56.4804 13.5055,56.4804 C14.2257,57.6808 14.9460,58.4011 14.9460,60.8019 C14.9460,61.0420 14.7059,61.2820 14.7059,61.2820 C16.1464,61.2820 16.1464,61.2820 16.1464,61.2820 C16.1464,55.0399 16.1464,55.0399 16.1464,55.0399 C13.5055,55.0399 13.5055,55.0399 13.5055,55.0399 Z M17.1067,55.0399 C17.1067,56.4804 17.1067,56.4804 17.1067,56.4804 C17.8269,57.6808 18.5472,58.4011 18.5472,60.8019 C18.5472,61.0420 18.5472,61.2820 18.5472,61.2820 C19.7476,61.2820 19.7476,61.2820 19.7476,61.2820 C19.7476,55.0399 19.7476,55.0399 19.7476,55.0399 C17.1067,55.0399 17.1067,55.0399 17.1067,55.0399 Z M20.7079,55.0399 C20.7079,56.4804 20.7079,56.4804 20.7079,56.4804 C21.6682,57.6808 22.1484,58.4011 22.1484,60.8019 C22.1484,61.0420 22.1484,61.2820 22.1484,61.2820 C23.3488,61.2820 23.3488,61.2820 23.3488,61.2820 C23.3488,55.0399 23.3488,55.0399 23.3488,55.0399 C20.7079,55.0399 20.7079,55.0399 20.7079,55.0399 Z M24.3091,55.0399 C24.3091,56.4804 24.3091,56.4804 24.3091,56.4804 C25.2695,57.6808 25.7496,58.4011 25.7496,60.8019 C25.7496,61.0420 25.7496,61.2820 25.7496,61.2820 C26.9500,61.2820 26.9500,61.2820 26.9500,61.2820 C26.9500,55.0399 26.9500,55.0399 26.9500,55.0399 C24.3091,55.0399 24.3091,55.0399 24.3091,55.0399 Z M28.1504,55.0399 C28.1504,56.4804 28.1504,56.4804 28.1504,56.4804 C28.8707,57.6808 29.3508,58.4011 29.3508,60.8019 C29.3508,61.0420 29.3508,61.2820 29.3508,61.2820 C30.7913,61.2820 30.7913,61.2820 30.7913,61.2820 C30.7913,55.0399 30.7913,55.0399 30.7913,55.0399 C28.1504,55.0399 28.1504,55.0399 28.1504,55.0399 Z M31.7517,66.5638 C31.7517,68.0043 31.7517,68.0043 31.7517,68.0043 C32.4719,69.4448 32.9521,70.1650 32.9521,72.3258 C32.9521,72.5659 32.9521,72.8059 32.9521,73.0460 C34.3925,73.0460 34.3925,73.0460 34.3925,73.0460 C34.3925,66.5638 34.3925,66.5638 34.3925,66.5638 C31.7517,66.5638 31.7517,66.5638 31.7517,66.5638 Z M35.3529,66.5638 C35.3529,68.0043 35.3529,68.0043 35.3529,68.0043 C36.0731,69.4448 36.5533,70.1650 36.5533,72.3258 C36.5533,72.5659 36.5533,72.8059 36.5533,73.0460 C37.9938,73.0460 37.9938,73.0460 37.9938,73.0460 C37.9938,66.5638 37.9938,66.5638 37.9938,66.5638 C35.3529,66.5638 35.3529,66.5638 35.3529,66.5638 Z M38.9541,66.5638 C38.9541,68.0043 38.9541,68.0043 38.9541,68.0043 C39.6743,69.4448 40.3946,70.1650 40.3946,72.3258 C40.3946,72.5659 40.3946,72.8059 40.3946,73.0460 C41.5950,73.0460 41.5950,73.0460 41.5950,73.0460 C41.5950,66.5638 41.5950,66.5638 41.5950,66.5638 C38.9541,66.5638 38.9541,66.5638 38.9541,66.5638 Z M17.1067,43.2759 C17.1067,44.7164 17.1067,44.7164 17.1067,44.7164 C17.8269,46.1569 18.5472,46.8772 18.5472,49.0379 C18.5472,49.2780 18.5472,49.5181 18.5472,49.7581 C19.7476,49.7581 19.7476,49.7581 19.7476,49.7581 C19.7476,43.2759 19.7476,43.2759 19.7476,43.2759 C17.1067,43.2759 17.1067,43.2759 17.1067,43.2759 Z M20.7079,43.2759 C20.7079,44.7164 20.7079,44.7164 20.7079,44.7164 C21.6682,46.1569 22.1484,46.8772 22.1484,49.0379 C22.1484,49.2780 22.1484,49.5181 22.1484,49.7581 C23.3488,49.7581 23.3488,49.7581 23.3488,49.7581 C23.3488,43.2759 23.3488,43.2759 23.3488,43.2759 C20.7079,43.2759 20.7079,43.2759 20.7079,43.2759 Z M24.3091,43.2759 C24.3091,44.7164 24.3091,44.7164 24.3091,44.7164 C25.2695,46.1569 25.7496,46.8772 25.7496,49.0379 C25.7496,49.2780 25.7496,49.5181 25.7496,49.7581 C26.9500,49.7581 26.9500,49.7581 26.9500,49.7581 C26.9500,43.2759 26.9500,43.2759 26.9500,43.2759 C24.3091,43.2759 24.3091,43.2759 24.3091,43.2759 Z M28.1504,43.2759 C28.1504,44.7164 28.1504,44.7164 28.1504,44.7164 C28.8707,46.1569 29.3508,46.8772 29.3508,49.0379 C29.3508,49.2780 29.3508,49.5181 29.3508,49.7581 C30.7913,49.7581 30.7913,49.7581 30.7913,49.7581 C30.7913,43.2759 30.7913,43.2759 30.7913,43.2759 C28.1504,43.2759 28.1504,43.2759 28.1504,43.2759 Z M31.7517,43.2759 C31.7517,44.7164 31.7517,44.7164 31.7517,44.7164 C32.4719,46.1569 32.9521,46.8772 32.9521,49.0379 C32.9521,49.2780 32.9521,49.5181 32.9521,49.7581 C34.3925,49.7581 34.3925,49.7581 34.3925,49.7581 C34.3925,43.2759 34.3925,43.2759 34.3925,43.2759 C31.7517,43.2759 31.7517,43.2759 31.7517,43.2759 Z M35.3529,43.2759 C35.3529,44.7164 35.3529,44.7164 35.3529,44.7164 C36.0731,46.1569 36.5533,46.8772 36.5533,49.0379 C36.5533,49.2780 36.5533,49.5181 36.5533,49.7581 C37.9938,49.7581 37.9938,49.7581 37.9938,49.7581 C37.9938,43.2759 37.9938,43.2759 37.9938,43.2759 C35.3529,43.2759 35.3529,43.2759 35.3529,43.2759 Z M38.9541,43.2759 C38.9541,44.7164 38.9541,44.7164 38.9541,44.7164 C39.6743,46.1569 40.3946,46.8772 40.3946,49.0379 C40.3946,49.2780 40.3946,49.5181 40.3946,49.7581 C41.5950,49.7581 41.5950,49.7581 41.5950,49.7581 C41.5950,43.2759 41.5950,43.2759 41.5950,43.2759 C38.9541,43.2759 38.9541,43.2759 38.9541,43.2759 Z M2.4617,43.2759 C2.4617,44.7164 2.4617,44.7164 2.4617,44.7164 C3.4221,46.1569 3.9022,46.8772 3.9022,49.0379 C3.9022,49.2780 3.9022,49.5181 3.9022,49.7581 C5.3427,49.7581 5.3427,49.7581 5.3427,49.7581 C5.3427,43.2759 5.3427,43.2759 5.3427,43.2759 C2.4617,43.2759 2.4617,43.2759 2.4617,43.2759 Z M6.3030,43.2759 C6.3030,44.7164 6.3030,44.7164 6.3030,44.7164 C7.0233,46.1569 7.5035,46.8772 7.5035,49.0379 C7.5035,49.2780 7.5035,49.5181 7.5035,49.7581 C8.9439,49.7581 8.9439,49.7581 8.9439,49.7581 C8.9439,43.2759 8.9439,43.2759 8.9439,43.2759 C6.3030,43.2759 6.3030,43.2759 6.3030,43.2759 Z M9.9043,43.2759 C9.9043,44.7164 9.9043,44.7164 9.9043,44.7164 C10.6245,46.1569 11.1047,46.8772 11.1047,49.0379 C11.1047,49.2780 11.1047,49.5181 11.1047,49.7581 C12.5452,49.7581 12.5452,49.7581 12.5452,49.7581 C12.5452,43.2759 12.5452,43.2759 12.5452,43.2759 C9.9043,43.2759 9.9043,43.2759 9.9043,43.2759 Z M13.5055,43.2759 C13.5055,44.7164 13.5055,44.7164 13.5055,44.7164 C14.2257,46.1569 14.9460,46.8772 14.9460,49.0379 C14.9460,49.2780 14.7059,49.5181 14.7059,49.7581 C16.1464,49.7581 16.1464,49.7581 16.1464,49.7581 C16.1464,43.2759 16.1464,43.2759 16.1464,43.2759 C13.5055,43.2759 13.5055,43.2759 13.5055,43.2759 Z M2.4617,31.7520 C2.4617,33.1925 2.4617,33.1925 2.4617,33.1925 C3.4221,34.3929 3.9022,35.3533 3.9022,37.5140 C3.9022,37.7541 3.9022,37.9942 3.9022,37.9942 C5.3427,37.9942 5.3427,37.9942 5.3427,37.9942 C5.3427,31.7520 5.3427,31.7520 5.3427,31.7520 C2.4617,31.7520 2.4617,31.7520 2.4617,31.7520 Z M6.3030,31.7520 C6.3030,33.1925 6.3030,33.1925 6.3030,33.1925 C7.0233,34.3929 7.5035,35.3533 7.5035,37.5140 C7.5035,37.7541 7.5035,37.9942 7.5035,37.9942 C8.9439,37.9942 8.9439,37.9942 8.9439,37.9942 C8.9439,31.7520 8.9439,31.7520 8.9439,31.7520 C6.3030,31.7520 6.3030,31.7520 6.3030,31.7520 Z M9.9043,31.7520 C9.9043,33.1925 9.9043,33.1925 9.9043,33.1925 C10.6245,34.3929 11.1047,35.3533 11.1047,37.5140 C11.1047,37.7541 11.1047,37.9942 11.1047,37.9942 C12.5452,37.9942 12.5452,37.9942 12.5452,37.9942 C12.5452,31.7520 12.5452,31.7520 12.5452,31.7520 C9.9043,31.7520 9.9043,31.7520 9.9043,31.7520 Z M13.5055,31.7520 C13.5055,33.1925 13.5055,33.1925 13.5055,33.1925 C14.2257,34.3929 14.9460,35.3533 14.9460,37.5140 C14.9460,37.7541 14.7059,37.9942 14.7059,37.9942 C16.1464,37.9942 16.1464,37.9942 16.1464,37.9942 C16.1464,31.7520 16.1464,31.7520 16.1464,31.7520 C13.5055,31.7520 13.5055,31.7520 13.5055,31.7520 Z M17.1067,31.7520 C17.1067,33.1925 17.1067,33.1925 17.1067,33.1925 C17.8269,34.3929 18.5472,35.3533 18.5472,37.5140 C18.5472,37.7541 18.5472,37.9942 18.5472,37.9942 C19.7476,37.9942 19.7476,37.9942 19.7476,37.9942 C19.7476,31.7520 19.7476,31.7520 19.7476,31.7520 C17.1067,31.7520 17.1067,31.7520 17.1067,31.7520 Z M20.7079,31.7520 C20.7079,33.1925 20.7079,33.1925 20.7079,33.1925 C21.6682,34.3929 22.1484,35.3533 22.1484,37.5140 C22.1484,37.7541 22.1484,37.9942 22.1484,37.9942 C23.3488,37.9942 23.3488,37.9942 23.3488,37.9942 C23.3488,31.7520 23.3488,31.7520 23.3488,31.7520 C20.7079,31.7520 20.7079,31.7520 20.7079,31.7520 Z M24.3091,31.7520 C24.3091,33.1925 24.3091,33.1925 24.3091,33.1925 C25.2695,34.3929 25.7496,35.3533 25.7496,37.5140 C25.7496,37.7541 25.7496,37.9942 25.7496,37.9942 C26.9500,37.9942 26.9500,37.9942 26.9500,37.9942 C26.9500,31.7520 26.9500,31.7520 26.9500,31.7520 C24.3091,31.7520 24.3091,31.7520 24.3091,31.7520 Z M28.1504,31.7520 C28.1504,33.1925 28.1504,33.1925 28.1504,33.1925 C28.8707,34.3929 29.3508,35.3533 29.3508,37.5140 C29.3508,37.7541 29.3508,37.9942 29.3508,37.9942 C30.7913,37.9942 30.7913,37.9942 30.7913,37.9942 C30.7913,31.7520 30.7913,31.7520 30.7913,31.7520 C28.1504,31.7520 28.1504,31.7520 28.1504,31.7520 Z M31.7517,31.7520 C31.7517,33.1925 31.7517,33.1925 31.7517,33.1925 C32.4719,34.3929 32.9521,35.3533 32.9521,37.5140 C32.9521,37.7541 32.9521,37.9942 32.9521,37.9942 C34.3925,37.9942 34.3925,37.9942 34.3925,37.9942 C34.3925,31.7520 34.3925,31.7520 34.3925,31.7520 C31.7517,31.7520 31.7517,31.7520 31.7517,31.7520 Z M35.3529,31.7520 C35.3529,33.1925 35.3529,33.1925 35.3529,33.1925 C36.0731,34.3929 36.5533,35.3533 36.5533,37.5140 C36.5533,37.7541 36.5533,37.9942 36.5533,37.9942 C37.9938,37.9942 37.9938,37.9942 37.9938,37.9942 C37.9938,31.7520 37.9938,31.7520 37.9938,31.7520 C35.3529,31.7520 35.3529,31.7520 35.3529,31.7520 Z M38.9541,31.7520 C38.9541,33.1925 38.9541,33.1925 38.9541,33.1925 C39.6743,34.3929 40.3946,35.3533 40.3946,37.5140 C40.3946,37.7541 40.3946,37.9942 40.3946,37.9942 C41.5950,37.9942 41.5950,37.9942 41.5950,37.9942 C41.5950,31.7520 41.5950,31.7520 41.5950,31.7520 C38.9541,31.7520 38.9541,31.7520 38.9541,31.7520 Z" style="fill-rule: evenodd; fill: #7f7f7f; "/>
    <path xmlns="http://www.w3.org/2000/svg" d="  M13.5055,159.2352 C13.5055,160.6757 13.5055,160.6757 13.5055,160.6757 C14.2257,161.8761 14.9460,162.8364 14.9460,164.9971 C14.9460,165.2372 14.7059,165.4773 14.7059,165.4773 C16.1464,165.4773 16.1464,165.4773 16.1464,165.4773 C16.1464,159.2352 16.1464,159.2352 16.1464,159.2352 C13.5055,159.2352 13.5055,159.2352 13.5055,159.2352 Z M17.1067,159.2352 C17.1067,160.6757 17.1067,160.6757 17.1067,160.6757 C17.8269,161.8761 18.5472,162.8364 18.5472,164.9971 C18.5472,165.2372 18.5472,165.4773 18.5472,165.4773 C19.7476,165.4773 19.7476,165.4773 19.7476,165.4773 C19.7476,159.2352 19.7476,159.2352 19.7476,159.2352 C17.1067,159.2352 17.1067,159.2352 17.1067,159.2352 Z M20.7079,159.2352 C20.7079,160.6757 20.7079,160.6757 20.7079,160.6757 C21.6682,161.8761 22.1484,162.8364 22.1484,164.9971 C22.1484,165.2372 22.1484,165.4773 22.1484,165.4773 C23.3488,165.4773 23.3488,165.4773 23.3488,165.4773 C23.3488,159.2352 23.3488,159.2352 23.3488,159.2352 C20.7079,159.2352 20.7079,159.2352 20.7079,159.2352 Z M24.3091,159.2352 C24.3091,160.6757 24.3091,160.6757 24.3091,160.6757 C25.2695,161.8761 25.7496,162.8364 25.7496,164.9971 C25.7496,165.2372 25.7496,165.4773 25.7496,165.4773 C26.9500,165.4773 26.9500,165.4773 26.9500,165.4773 C26.9500,159.2352 26.9500,159.2352 26.9500,159.2352 C24.3091,159.2352 24.3091,159.2352 24.3091,159.2352 Z M28.1504,159.2352 C28.1504,160.6757 28.1504,160.6757 28.1504,160.6757 C28.8707,161.8761 29.3508,162.8364 29.3508,164.9971 C29.3508,165.2372 29.3508,165.4773 29.3508,165.4773 C30.7913,165.4773 30.7913,165.4773 30.7913,165.4773 C30.7913,159.2352 30.7913,159.2352 30.7913,159.2352 C28.1504,159.2352 28.1504,159.2352 28.1504,159.2352 Z M31.7517,159.2352 C31.7517,160.6757 31.7517,160.6757 31.7517,160.6757 C32.4719,161.8761 32.9521,162.8364 32.9521,164.9971 C32.9521,165.2372 32.9521,165.4773 32.9521,165.4773 C34.3925,165.4773 34.3925,165.4773 34.3925,165.4773 C34.3925,159.2352 34.3925,159.2352 34.3925,159.2352 C31.7517,159.2352 31.7517,159.2352 31.7517,159.2352 Z M35.3529,159.2352 C35.3529,160.6757 35.3529,160.6757 35.3529,160.6757 C36.0731,161.8761 36.5533,162.8364 36.5533,164.9971 C36.5533,165.2372 36.5533,165.4773 36.5533,165.4773 C37.9938,165.4773 37.9938,165.4773 37.9938,165.4773 C37.9938,159.2352 37.9938,159.2352 37.9938,159.2352 C35.3529,159.2352 35.3529,159.2352 35.3529,159.2352 Z M38.9541,159.2352 C38.9541,160.6757 38.9541,160.6757 38.9541,160.6757 C39.6743,161.8761 40.3946,162.8364 40.3946,164.9971 C40.3946,165.2372 40.3946,165.4773 40.3946,165.4773 C41.5950,165.4773 41.5950,165.4773 41.5950,165.4773 C41.5950,159.2352 41.5950,159.2352 41.5950,159.2352 C38.9541,159.2352 38.9541,159.2352 38.9541,159.2352 Z M2.4617,159.2352 C2.4617,160.6757 2.4617,160.6757 2.4617,160.6757 C3.4221,161.8761 3.9022,162.8364 3.9022,164.9971 C3.9022,165.2372 3.9022,165.4773 3.9022,165.4773 C5.3427,165.4773 5.3427,165.4773 5.3427,165.4773 C5.3427,159.2352 5.3427,159.2352 5.3427,159.2352 C2.4617,159.2352 2.4617,159.2352 2.4617,159.2352 Z M6.3030,159.2352 C6.3030,160.6757 6.3030,160.6757 6.3030,160.6757 C7.0233,161.8761 7.5035,162.8364 7.5035,164.9971 C7.5035,165.2372 7.5035,165.4773 7.5035,165.4773 C8.9439,165.4773 8.9439,165.4773 8.9439,165.4773 C8.9439,159.2352 8.9439,159.2352 8.9439,159.2352 C6.3030,159.2352 6.3030,159.2352 6.3030,159.2352 Z M9.9043,159.2352 C9.9043,160.6757 9.9043,160.6757 9.9043,160.6757 C10.6245,161.8761 11.1047,162.8364 11.1047,164.9971 C11.1047,165.2372 11.1047,165.4773 11.1047,165.4773 C12.5452,165.4773 12.5452,165.4773 12.5452,165.4773 C12.5452,159.2352 12.5452,159.2352 12.5452,159.2352 C9.9043,159.2352 9.9043,159.2352 9.9043,159.2352 Z M13.5055,147.4712 C13.5055,149.1518 13.5055,149.1518 13.5055,149.1518 C14.2257,150.3522 14.9460,151.0724 14.9460,153.4732 C14.9460,153.4732 14.7059,153.7133 14.7059,153.9534 C16.1464,153.9534 16.1464,153.9534 16.1464,153.9534 C16.1464,147.4712 16.1464,147.4712 16.1464,147.4712 C13.5055,147.4712 13.5055,147.4712 13.5055,147.4712 Z M17.1067,147.4712 C17.1067,149.1518 17.1067,149.1518 17.1067,149.1518 C17.8269,150.3522 18.5472,151.0724 18.5472,153.4732 C18.5472,153.4732 18.5472,153.7133 18.5472,153.9534 C19.7476,153.9534 19.7476,153.9534 19.7476,153.9534 C19.7476,147.4712 19.7476,147.4712 19.7476,147.4712 C17.1067,147.4712 17.1067,147.4712 17.1067,147.4712 Z M20.7079,147.4712 C20.7079,149.1518 20.7079,149.1518 20.7079,149.1518 C21.6682,150.3522 22.1484,151.0724 22.1484,153.4732 C22.1484,153.4732 22.1484,153.7133 22.1484,153.9534 C23.3488,153.9534 23.3488,153.9534 23.3488,153.9534 C23.3488,147.4712 23.3488,147.4712 23.3488,147.4712 C20.7079,147.4712 20.7079,147.4712 20.7079,147.4712 Z M24.3091,147.4712 C24.3091,149.1518 24.3091,149.1518 24.3091,149.1518 C25.2695,150.3522 25.7496,151.0724 25.7496,153.4732 C25.7496,153.4732 25.7496,153.7133 25.7496,153.9534 C26.9500,153.9534 26.9500,153.9534 26.9500,153.9534 C26.9500,147.4712 26.9500,147.4712 26.9500,147.4712 C24.3091,147.4712 24.3091,147.4712 24.3091,147.4712 Z M28.1504,147.4712 C28.1504,149.1518 28.1504,149.1518 28.1504,149.1518 C28.8707,150.3522 29.3508,151.0724 29.3508,153.4732 C29.3508,153.4732 29.3508,153.7133 29.3508,153.9534 C30.7913,153.9534 30.7913,153.9534 30.7913,153.9534 C30.7913,147.4712 30.7913,147.4712 30.7913,147.4712 C28.1504,147.4712 28.1504,147.4712 28.1504,147.4712 Z M31.7517,147.4712 C31.7517,149.1518 31.7517,149.1518 31.7517,149.1518 C32.4719,150.3522 32.9521,151.0724 32.9521,153.4732 C32.9521,153.4732 32.9521,153.7133 32.9521,153.9534 C34.3925,153.9534 34.3925,153.9534 34.3925,153.9534 C34.3925,147.4712 34.3925,147.4712 34.3925,147.4712 C31.7517,147.4712 31.7517,147.4712 31.7517,147.4712 Z M35.3529,147.4712 C35.3529,149.1518 35.3529,149.1518 35.3529,149.1518 C36.0731,150.3522 36.5533,151.0724 36.5533,153.4732 C36.5533,153.4732 36.5533,153.7133 36.5533,153.9534 C37.9938,153.9534 37.9938,153.9534 37.9938,153.9534 C37.9938,147.4712 37.9938,147.4712 37.9938,147.4712 C35.3529,147.4712 35.3529,147.4712 35.3529,147.4712 Z M38.9541,147.4712 C38.9541,149.1518 38.9541,149.1518 38.9541,149.1518 C39.6743,150.3522 40.3946,151.0724 40.3946,153.4732 C40.3946,153.4732 40.3946,153.7133 40.3946,153.9534 C41.5950,153.9534 41.5950,153.9534 41.5950,153.9534 C41.5950,147.4712 41.5950,147.4712 41.5950,147.4712 C38.9541,147.4712 38.9541,147.4712 38.9541,147.4712 Z M2.4617,147.4712 C2.4617,149.1518 2.4617,149.1518 2.4617,149.1518 C3.4221,150.3522 3.9022,151.0724 3.9022,153.4732 C3.9022,153.4732 3.9022,153.7133 3.9022,153.9534 C5.3427,153.9534 5.3427,153.9534 5.3427,153.9534 C5.3427,147.4712 5.3427,147.4712 5.3427,147.4712 C2.4617,147.4712 2.4617,147.4712 2.4617,147.4712 Z M6.3030,147.4712 C6.3030,149.1518 6.3030,149.1518 6.3030,149.1518 C7.0233,150.3522 7.5035,151.0724 7.5035,153.4732 C7.5035,153.4732 7.5035,153.7133 7.5035,153.9534 C8.9439,153.9534 8.9439,153.9534 8.9439,153.9534 C8.9439,147.4712 8.9439,147.4712 8.9439,147.4712 C6.3030,147.4712 6.3030,147.4712 6.3030,147.4712 Z M9.9043,147.4712 C9.9043,149.1518 9.9043,149.1518 9.9043,149.1518 C10.6245,150.3522 11.1047,151.0724 11.1047,153.4732 C11.1047,153.4732 11.1047,153.7133 11.1047,153.9534 C12.5452,153.9534 12.5452,153.9534 12.5452,153.9534 C12.5452,147.4712 12.5452,147.4712 12.5452,147.4712 C9.9043,147.4712 9.9043,147.4712 9.9043,147.4712 Z M17.1067,135.9473 C17.1067,137.3878 17.1067,137.3878 17.1067,137.3878 C17.8269,138.8283 18.5472,139.5485 18.5472,141.7092 C18.5472,141.9493 18.5472,142.1894 18.5472,142.4295 C19.7476,142.4295 19.7476,142.4295 19.7476,142.4295 C19.7476,135.9473 19.7476,135.9473 19.7476,135.9473 C17.1067,135.9473 17.1067,135.9473 17.1067,135.9473 Z M20.7079,135.9473 C20.7079,137.3878 20.7079,137.3878 20.7079,137.3878 C21.6682,138.8283 22.1484,139.5485 22.1484,141.7092 C22.1484,141.9493 22.1484,142.1894 22.1484,142.4295 C23.3488,142.4295 23.3488,142.4295 23.3488,142.4295 C23.3488,135.9473 23.3488,135.9473 23.3488,135.9473 C20.7079,135.9473 20.7079,135.9473 20.7079,135.9473 Z M24.3091,135.9473 C24.3091,137.3878 24.3091,137.3878 24.3091,137.3878 C25.2695,138.8283 25.7496,139.5485 25.7496,141.7092 C25.7496,141.9493 25.7496,142.1894 25.7496,142.4295 C26.9500,142.4295 26.9500,142.4295 26.9500,142.4295 C26.9500,135.9473 26.9500,135.9473 26.9500,135.9473 C24.3091,135.9473 24.3091,135.9473 24.3091,135.9473 Z M28.1504,135.9473 C28.1504,137.3878 28.1504,137.3878 28.1504,137.3878 C28.8707,138.8283 29.3508,139.5485 29.3508,141.7092 C29.3508,141.9493 29.3508,142.1894 29.3508,142.4295 C30.7913,142.4295 30.7913,142.4295 30.7913,142.4295 C30.7913,135.9473 30.7913,135.9473 30.7913,135.9473 C28.1504,135.9473 28.1504,135.9473 28.1504,135.9473 Z M31.7517,135.9473 C31.7517,137.3878 31.7517,137.3878 31.7517,137.3878 C32.4719,138.8283 32.9521,139.5485 32.9521,141.7092 C32.9521,141.9493 32.9521,142.1894 32.9521,142.4295 C34.3925,142.4295 34.3925,142.4295 34.3925,142.4295 C34.3925,135.9473 34.3925,135.9473 34.3925,135.9473 C31.7517,135.9473 31.7517,135.9473 31.7517,135.9473 Z M35.3529,135.9473 C35.3529,137.3878 35.3529,137.3878 35.3529,137.3878 C36.0731,138.8283 36.5533,139.5485 36.5533,141.7092 C36.5533,141.9493 36.5533,142.1894 36.5533,142.4295 C37.9938,142.4295 37.9938,142.4295 37.9938,142.4295 C37.9938,135.9473 37.9938,135.9473 37.9938,135.9473 C35.3529,135.9473 35.3529,135.9473 35.3529,135.9473 Z M38.9541,135.9473 C38.9541,137.3878 38.9541,137.3878 38.9541,137.3878 C39.6743,138.8283 40.3946,139.5485 40.3946,141.7092 C40.3946,141.9493 40.3946,142.1894 40.3946,142.4295 C41.5950,142.4295 41.5950,142.4295 41.5950,142.4295 C41.5950,135.9473 41.5950,135.9473 41.5950,135.9473 C38.9541,135.9473 38.9541,135.9473 38.9541,135.9473 Z M2.4617,135.9473 C2.4617,137.3878 2.4617,137.3878 2.4617,137.3878 C3.4221,138.8283 3.9022,139.5485 3.9022,141.7092 C3.9022,141.9493 3.9022,142.1894 3.9022,142.4295 C5.3427,142.4295 5.3427,142.4295 5.3427,142.4295 C5.3427,135.9473 5.3427,135.9473 5.3427,135.9473 C2.4617,135.9473 2.4617,135.9473 2.4617,135.9473 Z M6.3030,135.9473 C6.3030,137.3878 6.3030,137.3878 6.3030,137.3878 C7.0233,138.8283 7.5035,139.5485 7.5035,141.7092 C7.5035,141.9493 7.5035,142.1894 7.5035,142.4295 C8.9439,142.4295 8.9439,142.4295 8.9439,142.4295 C8.9439,135.9473 8.9439,135.9473 8.9439,135.9473 C6.3030,135.9473 6.3030,135.9473 6.3030,135.9473 Z M9.9043,135.9473 C9.9043,137.3878 9.9043,137.3878 9.9043,137.3878 C10.6245,138.8283 11.1047,139.5485 11.1047,141.7092 C11.1047,141.9493 11.1047,142.1894 11.1047,142.4295 C12.5452,142.4295 12.5452,142.4295 12.5452,142.4295 C12.5452,135.9473 12.5452,135.9473 12.5452,135.9473 C9.9043,135.9473 9.9043,135.9473 9.9043,135.9473 Z M13.5055,135.9473 C13.5055,137.3878 13.5055,137.3878 13.5055,137.3878 C14.2257,138.8283 14.9460,139.5485 14.9460,141.7092 C14.9460,141.9493 14.7059,142.1894 14.7059,142.4295 C16.1464,142.4295 16.1464,142.4295 16.1464,142.4295 C16.1464,135.9473 16.1464,135.9473 16.1464,135.9473 C13.5055,135.9473 13.5055,135.9473 13.5055,135.9473 Z M31.7517,124.1833 C31.7517,125.8639 31.7517,125.8639 31.7517,125.8639 C32.4719,127.0643 32.9521,127.7845 32.9521,130.1853 C32.9521,130.4254 32.9521,130.4254 32.9521,130.6655 C34.3925,130.6655 34.3925,130.6655 34.3925,130.6655 C34.3925,124.1833 34.3925,124.1833 34.3925,124.1833 C31.7517,124.1833 31.7517,124.1833 31.7517,124.1833 Z M35.3529,124.1833 C35.3529,125.8639 35.3529,125.8639 35.3529,125.8639 C36.0731,127.0643 36.5533,127.7845 36.5533,130.1853 C36.5533,130.4254 36.5533,130.4254 36.5533,130.6655 C37.9938,130.6655 37.9938,130.6655 37.9938,130.6655 C37.9938,124.1833 37.9938,124.1833 37.9938,124.1833 C35.3529,124.1833 35.3529,124.1833 35.3529,124.1833 Z M38.9541,124.1833 C38.9541,125.8639 38.9541,125.8639 38.9541,125.8639 C39.6743,127.0643 40.3946,127.7845 40.3946,130.1853 C40.3946,130.4254 40.3946,130.4254 40.3946,130.6655 C41.5950,130.6655 41.5950,130.6655 41.5950,130.6655 C41.5950,124.1833 41.5950,124.1833 41.5950,124.1833 C38.9541,124.1833 38.9541,124.1833 38.9541,124.1833 Z M2.4617,124.1833 C2.4617,125.8639 2.4617,125.8639 2.4617,125.8639 C3.4221,127.0643 3.9022,127.7845 3.9022,130.1853 C3.9022,130.4254 3.9022,130.4254 3.9022,130.6655 C5.3427,130.6655 5.3427,130.6655 5.3427,130.6655 C5.3427,124.1833 5.3427,124.1833 5.3427,124.1833 C2.4617,124.1833 2.4617,124.1833 2.4617,124.1833 Z M6.3030,124.1833 C6.3030,125.8639 6.3030,125.8639 6.3030,125.8639 C7.0233,127.0643 7.5035,127.7845 7.5035,130.1853 C7.5035,130.4254 7.5035,130.4254 7.5035,130.6655 C8.9439,130.6655 8.9439,130.6655 8.9439,130.6655 C8.9439,124.1833 8.9439,124.1833 8.9439,124.1833 C6.3030,124.1833 6.3030,124.1833 6.3030,124.1833 Z M9.9043,124.1833 C9.9043,125.8639 9.9043,125.8639 9.9043,125.8639 C10.6245,127.0643 11.1047,127.7845 11.1047,130.1853 C11.1047,130.4254 11.1047,130.4254 11.1047,130.6655 C12.5452,130.6655 12.5452,130.6655 12.5452,130.6655 C12.5452,124.1833 12.5452,124.1833 12.5452,124.1833 C9.9043,124.1833 9.9043,124.1833 9.9043,124.1833 Z M13.5055,124.1833 C13.5055,125.8639 13.5055,125.8639 13.5055,125.8639 C14.2257,127.0643 14.9460,127.7845 14.9460,130.1853 C14.9460,130.4254 14.7059,130.4254 14.7059,130.6655 C16.1464,130.6655 16.1464,130.6655 16.1464,130.6655 C16.1464,124.1833 16.1464,124.1833 16.1464,124.1833 C13.5055,124.1833 13.5055,124.1833 13.5055,124.1833 Z M17.1067,124.1833 C17.1067,125.8639 17.1067,125.8639 17.1067,125.8639 C17.8269,127.0643 18.5472,127.7845 18.5472,130.1853 C18.5472,130.4254 18.5472,130.4254 18.5472,130.6655 C19.7476,130.6655 19.7476,130.6655 19.7476,130.6655 C19.7476,124.1833 19.7476,124.1833 19.7476,124.1833 C17.1067,124.1833 17.1067,124.1833 17.1067,124.1833 Z M20.7079,124.1833 C20.7079,125.8639 20.7079,125.8639 20.7079,125.8639 C21.6682,127.0643 22.1484,127.7845 22.1484,130.1853 C22.1484,130.4254 22.1484,130.4254 22.1484,130.6655 C23.3488,130.6655 23.3488,130.6655 23.3488,130.6655 C23.3488,124.1833 23.3488,124.1833 23.3488,124.1833 C20.7079,124.1833 20.7079,124.1833 20.7079,124.1833 Z M24.3091,124.1833 C24.3091,125.8639 24.3091,125.8639 24.3091,125.8639 C25.2695,127.0643 25.7496,127.7845 25.7496,130.1853 C25.7496,130.4254 25.7496,130.4254 25.7496,130.6655 C26.9500,130.6655 26.9500,130.6655 26.9500,130.6655 C26.9500,124.1833 26.9500,124.1833 26.9500,124.1833 C24.3091,124.1833 24.3091,124.1833 24.3091,124.1833 Z M28.1504,124.1833 C28.1504,125.8639 28.1504,125.8639 28.1504,125.8639 C28.8707,127.0643 29.3508,127.7845 29.3508,130.1853 C29.3508,130.4254 29.3508,130.4254 29.3508,130.6655 C30.7913,130.6655 30.7913,130.6655 30.7913,130.6655 C30.7913,124.1833 30.7913,124.1833 30.7913,124.1833 C28.1504,124.1833 28.1504,124.1833 28.1504,124.1833 Z M17.1067,101.1355 C17.1067,102.5760 17.1067,102.5760 17.1067,102.5760 C17.8269,103.7764 18.5472,104.4967 18.5472,106.8975 C18.5472,107.1375 18.5472,107.1375 18.5472,107.3776 C19.7476,107.3776 19.7476,107.3776 19.7476,107.3776 C19.7476,101.1355 19.7476,101.1355 19.7476,101.1355 C17.1067,101.1355 17.1067,101.1355 17.1067,101.1355 Z M20.7079,101.1355 C20.7079,102.5760 20.7079,102.5760 20.7079,102.5760 C21.6682,103.7764 22.1484,104.4967 22.1484,106.8975 C22.1484,107.1375 22.1484,107.1375 22.1484,107.3776 C23.3488,107.3776 23.3488,107.3776 23.3488,107.3776 C23.3488,101.1355 23.3488,101.1355 23.3488,101.1355 C20.7079,101.1355 20.7079,101.1355 20.7079,101.1355 Z M24.3091,101.1355 C24.3091,102.5760 24.3091,102.5760 24.3091,102.5760 C25.2695,103.7764 25.7496,104.4967 25.7496,106.8975 C25.7496,107.1375 25.7496,107.1375 25.7496,107.3776 C26.9500,107.3776 26.9500,107.3776 26.9500,107.3776 C26.9500,101.1355 26.9500,101.1355 26.9500,101.1355 C24.3091,101.1355 24.3091,101.1355 24.3091,101.1355 Z M28.1504,101.1355 C28.1504,102.5760 28.1504,102.5760 28.1504,102.5760 C28.8707,103.7764 29.3508,104.4967 29.3508,106.8975 C29.3508,107.1375 29.3508,107.1375 29.3508,107.3776 C30.7913,107.3776 30.7913,107.3776 30.7913,107.3776 C30.7913,101.1355 30.7913,101.1355 30.7913,101.1355 C28.1504,101.1355 28.1504,101.1355 28.1504,101.1355 Z M31.7517,101.1355 C31.7517,102.5760 31.7517,102.5760 31.7517,102.5760 C32.4719,103.7764 32.9521,104.4967 32.9521,106.8975 C32.9521,107.1375 32.9521,107.1375 32.9521,107.3776 C34.3925,107.3776 34.3925,107.3776 34.3925,107.3776 C34.3925,101.1355 34.3925,101.1355 34.3925,101.1355 C31.7517,101.1355 31.7517,101.1355 31.7517,101.1355 Z M35.3529,101.1355 C35.3529,102.5760 35.3529,102.5760 35.3529,102.5760 C36.0731,103.7764 36.5533,104.4967 36.5533,106.8975 C36.5533,107.1375 36.5533,107.1375 36.5533,107.3776 C37.9938,107.3776 37.9938,107.3776 37.9938,107.3776 C37.9938,101.1355 37.9938,101.1355 37.9938,101.1355 C35.3529,101.1355 35.3529,101.1355 35.3529,101.1355 Z M38.9541,101.1355 C38.9541,102.5760 38.9541,102.5760 38.9541,102.5760 C39.6743,103.7764 40.3946,104.4967 40.3946,106.8975 C40.3946,107.1375 40.3946,107.1375 40.3946,107.3776 C41.5950,107.3776 41.5950,107.3776 41.5950,107.3776 C41.5950,101.1355 41.5950,101.1355 41.5950,101.1355 C38.9541,101.1355 38.9541,101.1355 38.9541,101.1355 Z M2.4617,101.1355 C2.4617,102.5760 2.4617,102.5760 2.4617,102.5760 C3.4221,103.7764 3.9022,104.4967 3.9022,106.8975 C3.9022,107.1375 3.9022,107.1375 3.9022,107.3776 C5.3427,107.3776 5.3427,107.3776 5.3427,107.3776 C5.3427,101.1355 5.3427,101.1355 5.3427,101.1355 C2.4617,101.1355 2.4617,101.1355 2.4617,101.1355 Z M6.3030,101.1355 C6.3030,102.5760 6.3030,102.5760 6.3030,102.5760 C7.0233,103.7764 7.5035,104.4967 7.5035,106.8975 C7.5035,107.1375 7.5035,107.1375 7.5035,107.3776 C8.9439,107.3776 8.9439,107.3776 8.9439,107.3776 C8.9439,101.1355 8.9439,101.1355 8.9439,101.1355 C6.3030,101.1355 6.3030,101.1355 6.3030,101.1355 Z M9.9043,101.1355 C9.9043,102.5760 9.9043,102.5760 9.9043,102.5760 C10.6245,103.7764 11.1047,104.4967 11.1047,106.8975 C11.1047,107.1375 11.1047,107.1375 11.1047,107.3776 C12.5452,107.3776 12.5452,107.3776 12.5452,107.3776 C12.5452,101.1355 12.5452,101.1355 12.5452,101.1355 C9.9043,101.1355 9.9043,101.1355 9.9043,101.1355 Z M13.5055,101.1355 C13.5055,102.5760 13.5055,102.5760 13.5055,102.5760 C14.2257,103.7764 14.9460,104.4967 14.9460,106.8975 C14.9460,107.1375 14.7059,107.1375 14.7059,107.3776 C16.1464,107.3776 16.1464,107.3776 16.1464,107.3776 C16.1464,101.1355 16.1464,101.1355 16.1464,101.1355 C13.5055,101.1355 13.5055,101.1355 13.5055,101.1355 Z M17.1067,112.6594 C17.1067,114.0999 17.1067,114.0999 17.1067,114.0999 C17.8269,115.5404 18.5472,116.2606 18.5472,118.4214 C18.5472,118.6614 18.5472,118.9015 18.5472,119.1416 C19.7476,119.1416 19.7476,119.1416 19.7476,119.1416 C19.7476,112.6594 19.7476,112.6594 19.7476,112.6594 C17.1067,112.6594 17.1067,112.6594 17.1067,112.6594 Z M20.7079,112.6594 C20.7079,114.0999 20.7079,114.0999 20.7079,114.0999 C21.6682,115.5404 22.1484,116.2606 22.1484,118.4214 C22.1484,118.6614 22.1484,118.9015 22.1484,119.1416 C23.3488,119.1416 23.3488,119.1416 23.3488,119.1416 C23.3488,112.6594 23.3488,112.6594 23.3488,112.6594 C20.7079,112.6594 20.7079,112.6594 20.7079,112.6594 Z M24.3091,112.6594 C24.3091,114.0999 24.3091,114.0999 24.3091,114.0999 C25.2695,115.5404 25.7496,116.2606 25.7496,118.4214 C25.7496,118.6614 25.7496,118.9015 25.7496,119.1416 C26.9500,119.1416 26.9500,119.1416 26.9500,119.1416 C26.9500,112.6594 26.9500,112.6594 26.9500,112.6594 C24.3091,112.6594 24.3091,112.6594 24.3091,112.6594 Z M28.1504,112.6594 C28.1504,114.0999 28.1504,114.0999 28.1504,114.0999 C28.8707,115.5404 29.3508,116.2606 29.3508,118.4214 C29.3508,118.6614 29.3508,118.9015 29.3508,119.1416 C30.7913,119.1416 30.7913,119.1416 30.7913,119.1416 C30.7913,112.6594 30.7913,112.6594 30.7913,112.6594 C28.1504,112.6594 28.1504,112.6594 28.1504,112.6594 Z M31.7517,112.6594 C31.7517,114.0999 31.7517,114.0999 31.7517,114.0999 C32.4719,115.5404 32.9521,116.2606 32.9521,118.4214 C32.9521,118.6614 32.9521,118.9015 32.9521,119.1416 C34.3925,119.1416 34.3925,119.1416 34.3925,119.1416 C34.3925,112.6594 34.3925,112.6594 34.3925,112.6594 C31.7517,112.6594 31.7517,112.6594 31.7517,112.6594 Z M35.3529,112.6594 C35.3529,114.0999 35.3529,114.0999 35.3529,114.0999 C36.0731,115.5404 36.5533,116.2606 36.5533,118.4214 C36.5533,118.6614 36.5533,118.9015 36.5533,119.1416 C37.9938,119.1416 37.9938,119.1416 37.9938,119.1416 C37.9938,112.6594 37.9938,112.6594 37.9938,112.6594 C35.3529,112.6594 35.3529,112.6594 35.3529,112.6594 Z M38.9541,112.6594 C38.9541,114.0999 38.9541,114.0999 38.9541,114.0999 C39.6743,115.5404 40.3946,116.2606 40.3946,118.4214 C40.3946,118.6614 40.3946,118.9015 40.3946,119.1416 C41.5950,119.1416 41.5950,119.1416 41.5950,119.1416 C41.5950,112.6594 41.5950,112.6594 41.5950,112.6594 C38.9541,112.6594 38.9541,112.6594 38.9541,112.6594 Z M2.4617,112.6594 C2.4617,114.0999 2.4617,114.0999 2.4617,114.0999 C3.4221,115.5404 3.9022,116.2606 3.9022,118.4214 C3.9022,118.6614 3.9022,118.9015 3.9022,119.1416 C5.3427,119.1416 5.3427,119.1416 5.3427,119.1416 C5.3427,112.6594 5.3427,112.6594 5.3427,112.6594 C2.4617,112.6594 2.4617,112.6594 2.4617,112.6594 Z M6.3030,112.6594 C6.3030,114.0999 6.3030,114.0999 6.3030,114.0999 C7.0233,115.5404 7.5035,116.2606 7.5035,118.4214 C7.5035,118.6614 7.5035,118.9015 7.5035,119.1416 C8.9439,119.1416 8.9439,119.1416 8.9439,119.1416 C8.9439,112.6594 8.9439,112.6594 8.9439,112.6594 C6.3030,112.6594 6.3030,112.6594 6.3030,112.6594 Z M9.9043,112.6594 C9.9043,114.0999 9.9043,114.0999 9.9043,114.0999 C10.6245,115.5404 11.1047,116.2606 11.1047,118.4214 C11.1047,118.6614 11.1047,118.9015 11.1047,119.1416 C12.5452,119.1416 12.5452,119.1416 12.5452,119.1416 C12.5452,112.6594 12.5452,112.6594 12.5452,112.6594 C9.9043,112.6594 9.9043,112.6594 9.9043,112.6594 Z M13.5055,112.6594 C13.5055,114.0999 13.5055,114.0999 13.5055,114.0999 C14.2257,115.5404 14.9460,116.2606 14.9460,118.4214 C14.9460,118.6614 14.7059,118.9015 14.7059,119.1416 C16.1464,119.1416 16.1464,119.1416 16.1464,119.1416 C16.1464,112.6594 16.1464,112.6594 16.1464,112.6594 C13.5055,112.6594 13.5055,112.6594 13.5055,112.6594 Z" style="fill-rule: evenodd; fill: #8275a3; "/>
    <text xmlns="http://www.w3.org/2000/svg" x="-17.2400" y="182.4600">
      <tspan font-family="Arial" font-size="4.5000" fill="#000000" fill-opacity="1.0000" stroke-opacity="1.0000">
Standalone ATA/FC Combo Cabinet</tspan>
    </text>
    <!--converted by libvisio2svg-->
  </g>
</svg>
