<svg xmlns="http://www.w3.org/2000/svg" xmlns:xlink="http://www.w3.org/1999/xlink" version="1.1" width="43.2000000000" height="7.2000000000">
  <title><![CDATA[V-Series]]></title>
  <g transform=" scale(1.000000) ">
    <g xmlns="http://www.w3.org/2000/svg" id="Layer1001">
      <path d="  M43.3406,7.2000 L0.0780,7.2000 L0.0780,-13.0109 L43.3406,-13.0109 L43.3406,7.2000 Z" style="stroke-width: 0.0240; stroke-linecap: round; stroke-linejoin: round; fill-rule: evenodd; fill: #000000; "/>
      <path d="  M43.3406,7.2000 L0.0780,7.2000 L0.0780,-13.0109 L43.3406,-13.0109 L43.3406,7.2000 Z" style="stroke-width: 0.0240; stroke: #ffffff; stroke-dasharray: none; stroke-linecap: round; stroke-linejoin: round; fill: none; "/>
    </g>
    <path xmlns="http://www.w3.org/2000/svg" d="  M3.0000,-13.0109 C3.0000,-13.0109 1.5390,-13.0109 1.5390,-2.9460 C1.5390,7.2000 3.0812,7.2000 3.0812,7.2000 C3.1624,7.2000 40.3374,7.2000 40.3374,7.2000 C40.3374,7.2000 41.8796,7.2000 41.8796,-2.9460 C41.8796,-13.0109 40.3374,-13.0109 40.3374,-13.0109 C40.2562,-13.0109 3.1624,-13.0109 3.0000,-13.0109 Z" style="fill-rule: evenodd; fill: #000000; "/>
    <path xmlns="http://www.w3.org/2000/svg" d="  M3.0000,-13.0109 C3.0000,-13.0109 1.5390,-13.0109 1.5390,-2.9460 C1.5390,7.2000 3.0812,7.2000 3.0812,7.2000 C3.1624,7.2000 40.3374,7.2000 40.3374,7.2000 C40.3374,7.2000 41.8796,7.2000 41.8796,-2.9460 C41.8796,-13.0109 40.3374,-13.0109 40.3374,-13.0109 C40.2562,-13.0109 3.1624,-13.0109 3.0000,-13.0109 Z" style="stroke-width: 0.0240; stroke: #ffffff; stroke-dasharray: none; stroke-linecap: round; stroke-linejoin: round; fill: none; "/>
    <path xmlns="http://www.w3.org/2000/svg" d="  M21.7499,-11.9557 C29.1362,-11.9557 37.5777,-11.2252 39.7692,-10.9817 C39.9316,-9.8453 40.1751,-6.6798 40.1751,-2.9460 C40.1751,0.7877 39.9316,3.9533 39.7692,5.1708 C37.5777,5.3331 29.0550,6.1448 21.7499,6.1448 C14.3636,6.1448 5.8409,5.3331 3.6494,5.1708 C3.4870,3.9533 3.2435,0.7877 3.2435,-2.9460 C3.2435,-6.6798 3.4870,-9.8453 3.6494,-10.9817 C5.9221,-11.2252 14.3636,-11.9557 21.7499,-11.9557 Z" style="fill-rule: evenodd; fill: #333333; "/>
    <path xmlns="http://www.w3.org/2000/svg" d="  M43.3406,-13.0109 L0.0780,-13.0109 L1.9448,-15.6894 L41.4738,-15.6894 L43.3406,-13.0109 Z" style="fill-rule: evenodd; fill: #000000; "/>
    <path xmlns="http://www.w3.org/2000/svg" d="  M43.3406,-13.0109 L0.0780,-13.0109 L1.9448,-15.6894 L41.4738,-15.6894 L43.3406,-13.0109 Z" style="fill-rule: evenodd; fill: #000000; "/>
    <path xmlns="http://www.w3.org/2000/svg" d="  M43.3406,-13.0109 L0.0780,-13.0109 L1.9448,-15.6894 L41.4738,-15.6894 L43.3406,-13.0109 Z" style="stroke-width: 0.0240; stroke: #ffffff; stroke-dasharray: none; stroke-linecap: round; stroke-linejoin: round; fill: none; "/>
    <path xmlns="http://www.w3.org/2000/svg" d="  M25.6460,-4.8129 C25.6460,-4.4071 25.3213,-4.0824 24.9154,-4.0824 C18.5031,-4.0824 18.5031,-4.0824 18.5031,-4.0824 C18.0973,-4.0824 17.7726,-4.4071 17.7726,-4.8129 C17.7726,-10.3323 17.7726,-10.3323 17.7726,-10.3323 C17.7726,-10.7382 18.0973,-11.0629 18.5031,-11.0629 C24.9154,-11.0629 24.9154,-11.0629 24.9154,-11.0629 C25.3213,-11.0629 25.6460,-10.7382 25.6460,-10.3323 C25.6460,-4.8129 25.6460,-4.8129 25.6460,-4.8129 Z" style="fill-rule: evenodd; fill: #5c5c5c; "/>
    <path xmlns="http://www.w3.org/2000/svg" d="  M25.5648,-5.6246 C25.5648,-5.2187 25.3213,-4.9752 24.9966,-4.9752 C18.4220,-4.9752 18.4220,-4.9752 18.4220,-4.9752 C18.0973,-4.9752 17.8538,-5.2187 17.8538,-5.6246 C17.8538,-8.2220 17.8538,-8.2220 17.8538,-8.2220 C17.8538,-8.6278 18.0973,-8.8713 18.4220,-8.8713 C24.9966,-8.8713 24.9966,-8.8713 24.9966,-8.8713 C25.3213,-8.8713 25.5648,-8.6278 25.5648,-8.2220 C25.5648,-5.6246 25.5648,-5.6246 25.5648,-5.6246 Z" style="fill-rule: evenodd; fill: #8c8c8c; "/>
    <path xmlns="http://www.w3.org/2000/svg" d="  M24.7937,-5.7869 C24.7937,-5.6246 24.5502,-5.4622 24.3067,-5.4622 C19.0307,-5.4622 19.0307,-5.4622 19.0307,-5.4622 C18.7872,-5.4622 18.6249,-5.6246 18.6249,-5.7869 C18.6249,-7.4914 18.6249,-7.4914 18.6249,-7.4914 C18.6249,-7.7350 18.7872,-7.8973 19.0307,-7.8973 C24.3067,-7.8973 24.3067,-7.8973 24.3067,-7.8973 C24.5502,-7.8973 24.7937,-7.7350 24.7937,-7.4914 C24.7937,-5.7869 24.7937,-5.7869 24.7937,-5.7869 Z" style="fill-rule: evenodd; fill: #000000; "/>
    <path xmlns="http://www.w3.org/2000/svg" d="  M10.9004,-10.8599 C10.7381,-9.7236 10.4946,-6.5580 10.4946,-2.9054 C10.4946,0.8283 10.7381,3.9127 10.9004,5.0490 C11.8744,5.0490 11.8744,5.0490 11.8744,5.0490 C11.8744,-10.8599 11.8744,-10.8599 11.8744,-10.8599 C10.9004,-10.8599 10.9004,-10.8599 10.9004,-10.8599 Z M14.1201,-10.9817 C13.8766,-9.8453 13.7142,-6.6798 13.7142,-2.9460 C13.7142,0.7877 13.8766,3.9533 14.1201,5.1708 C15.0941,5.1708 15.0941,5.1708 15.0941,5.1708 C15.0941,-10.9817 15.0941,-10.9817 15.0941,-10.9817 C14.1201,-10.9817 14.1201,-10.9817 14.1201,-10.9817 Z M4.4610,-10.4135 C4.2175,-9.3583 4.0552,-6.4363 4.0552,-2.9460 C4.0552,0.5442 4.2175,3.4663 4.4610,4.6026 C5.4351,4.6026 5.4351,4.6026 5.4351,4.6026 C5.4351,-10.4135 5.4351,-10.4135 5.4351,-10.4135 C4.4610,-10.4135 4.4610,-10.4135 4.4610,-10.4135 Z M7.6401,-10.6570 C7.4778,-9.6018 7.2343,-6.5174 7.2343,-2.9460 C7.2343,0.7065 7.4778,3.7098 7.6401,4.8461 C8.6953,4.8461 8.6953,4.8461 8.6953,4.8461 C8.6953,-10.6570 8.6953,-10.6570 8.6953,-10.6570 C7.6401,-10.6570 7.6401,-10.6570 7.6401,-10.6570 Z M35.7785,4.8461 C35.9408,3.7098 36.1843,0.7065 36.1843,-2.9460 C36.1843,-6.5174 35.9408,-9.6018 35.7785,-10.6570 C34.7233,-10.6570 34.7233,-10.6570 34.7233,-10.6570 C34.7233,4.8461 34.7233,4.8461 34.7233,4.8461 C35.7785,4.8461 35.7785,4.8461 35.7785,4.8461 Z M38.9575,4.6026 C39.2010,3.4663 39.3634,0.5442 39.3634,-2.9460 C39.3634,-6.4363 39.2010,-9.3583 38.9575,-10.4135 C37.9835,-10.4135 37.9835,-10.4135 37.9835,-10.4135 C37.9835,4.6026 37.9835,4.6026 37.9835,4.6026 C38.9575,4.6026 38.9575,4.6026 38.9575,4.6026 Z M29.2985,5.1708 C29.5420,4.0344 29.7044,0.7877 29.7044,-2.9460 C29.7044,-6.6798 29.5420,-9.8453 29.2985,-10.9817 C28.3245,-10.9817 28.3245,-10.9817 28.3245,-10.9817 C28.3245,5.1708 28.3245,5.1708 28.3245,5.1708 C29.2985,5.1708 29.2985,5.1708 29.2985,5.1708 Z M32.5182,5.0490 C32.6805,3.9127 32.9240,0.8283 32.9240,-2.9054 C32.9240,-6.5580 32.6805,-9.7236 32.5182,-10.8599 C31.5442,-10.8599 31.5442,-10.8599 31.5442,-10.8599 C31.5442,5.0490 31.5442,5.0490 31.5442,5.0490 C32.5182,5.0490 32.5182,5.0490 32.5182,5.0490 Z" style="fill-rule: evenodd; fill: #ffffff; "/>
    <path xmlns="http://www.w3.org/2000/svg" d="  M20.7759,-4.9752 C20.7759,-4.8941 20.6947,-4.8129 20.6135,-4.8129 C19.9642,-4.8129 19.9642,-4.8129 19.9642,-4.8129 C19.8830,-4.8129 19.8018,-4.8941 19.8018,-4.9752 C19.8018,-5.0564 19.8830,-5.1376 19.9642,-5.1376 C20.6135,-5.1376 20.6135,-5.1376 20.6135,-5.1376 C20.6947,-5.1376 20.7759,-5.0564 20.7759,-4.9752 Z M22.2369,-4.9752 C22.2369,-4.8941 22.1557,-4.8129 21.9934,-4.8129 C21.4252,-4.8129 21.4252,-4.8129 21.4252,-4.8129 C21.2629,-4.8129 21.1817,-4.8941 21.1817,-4.9752 C21.1817,-5.0564 21.2629,-5.1376 21.4252,-5.1376 C21.9934,-5.1376 21.9934,-5.1376 21.9934,-5.1376 C22.1557,-5.1376 22.2369,-5.0564 22.2369,-4.9752 Z M23.6167,-4.9752 C23.6167,-4.8941 23.5356,-4.8129 23.4544,-4.8129 C22.8051,-4.8129 22.8051,-4.8129 22.8051,-4.8129 C22.7239,-4.8129 22.6427,-4.8941 22.6427,-4.9752 C22.6427,-5.0564 22.7239,-5.1376 22.8051,-5.1376 C23.4544,-5.1376 23.4544,-5.1376 23.4544,-5.1376 C23.5356,-5.1376 23.6167,-5.0564 23.6167,-4.9752 Z" style="fill-rule: evenodd; fill: #ffffff; "/>
    <text xmlns="http://www.w3.org/2000/svg" x="13.6434" y="11.9571">
      <tspan font-family="Arial" font-size="4.5000" fill="#000000" fill-opacity="1.0000" stroke-opacity="1.0000">
V-Series</tspan>
    </text>
    <!--converted by libvisio2svg-->
  </g>
</svg>
