<svg xmlns="http://www.w3.org/2000/svg" xmlns:xlink="http://www.w3.org/1999/xlink" version="1.1" width="43.2146000000" height="7.2000000000">
  <title><![CDATA[V-Series rackmount]]></title>
  <g transform=" scale(1.000000) ">
    <g xmlns="http://www.w3.org/2000/svg" id="Layer1059">
      <path d="  M43.3647,7.3406 L0.0874,7.3406 L0.0874,-12.8771 L43.3647,-12.8771 L43.3647,7.3406 Z" style="stroke-width: 0.0240; stroke-linecap: round; stroke-linejoin: round; fill-rule: evenodd; fill: #000000; "/>
      <path d="  M43.3647,7.3406 L0.0874,7.3406 L0.0874,-12.8771 L43.3647,-12.8771 L43.3647,7.3406 Z" style="stroke-width: 0.0240; stroke: #ffffff; stroke-dasharray: none; stroke-linecap: round; stroke-linejoin: round; fill: none; "/>
    </g>
    <path xmlns="http://www.w3.org/2000/svg" d="  M3.0104,-12.8771 C3.0104,-12.8771 1.5489,-12.8771 1.5489,-2.8088 C1.5489,7.3406 3.0916,7.3406 3.0916,7.3406 C3.1728,7.3406 40.3604,7.3406 40.3604,7.3406 C40.3604,7.3406 41.9031,7.3406 41.9031,-2.8088 C41.9031,-12.8771 40.3604,-12.8771 40.3604,-12.8771 C40.2792,-12.8771 3.1728,-12.8771 3.0104,-12.8771 Z" style="fill-rule: evenodd; fill: #000000; "/>
    <path xmlns="http://www.w3.org/2000/svg" d="  M3.0104,-12.8771 C3.0104,-12.8771 1.5489,-12.8771 1.5489,-2.8088 C1.5489,7.3406 3.0916,7.3406 3.0916,7.3406 C3.1728,7.3406 40.3604,7.3406 40.3604,7.3406 C40.3604,7.3406 41.9031,7.3406 41.9031,-2.8088 C41.9031,-12.8771 40.3604,-12.8771 40.3604,-12.8771 C40.2792,-12.8771 3.1728,-12.8771 3.0104,-12.8771 Z" style="stroke-width: 0.0240; stroke: #ffffff; stroke-dasharray: none; stroke-linecap: round; stroke-linejoin: round; fill: none; "/>
    <path xmlns="http://www.w3.org/2000/svg" d="  M21.7666,-11.8216 C29.1554,-11.8216 37.5998,-11.0908 39.7920,-10.8472 C39.9544,-9.7105 40.1980,-6.5438 40.1980,-2.8088 C40.1980,0.9262 39.9544,4.0928 39.7920,5.3107 C37.5998,5.4731 29.0742,6.2851 21.7666,6.2851 C14.3778,6.2851 5.8522,5.4731 3.6600,5.3107 C3.4976,4.0928 3.2540,0.9262 3.2540,-2.8088 C3.2540,-6.5438 3.4976,-9.7105 3.6600,-10.8472 C5.9334,-11.0908 14.3778,-11.8216 21.7666,-11.8216 Z" style="fill-rule: evenodd; fill: #333333; "/>
    <path xmlns="http://www.w3.org/2000/svg" d="  M25.6640,-4.6763 C25.6640,-4.2704 25.3392,-3.9456 24.9332,-3.9456 C18.5188,-3.9456 18.5188,-3.9456 18.5188,-3.9456 C18.1128,-3.9456 17.7880,-4.2704 17.7880,-4.6763 C17.7880,-10.1976 17.7880,-10.1976 17.7880,-10.1976 C17.7880,-10.6036 18.1128,-10.9284 18.5188,-10.9284 C24.9332,-10.9284 24.9332,-10.9284 24.9332,-10.9284 C25.3392,-10.9284 25.6640,-10.6036 25.6640,-10.1976 C25.6640,-4.6763 25.6640,-4.6763 25.6640,-4.6763 Z" style="fill-rule: evenodd; fill: #5c5c5c; "/>
    <path xmlns="http://www.w3.org/2000/svg" d="  M25.5828,-5.4883 C25.5828,-5.0823 25.3392,-4.8387 25.0144,-4.8387 C18.4376,-4.8387 18.4376,-4.8387 18.4376,-4.8387 C18.1128,-4.8387 17.8692,-5.0823 17.8692,-5.4883 C17.8692,-8.0866 17.8692,-8.0866 17.8692,-8.0866 C17.8692,-8.4925 18.1128,-8.7361 18.4376,-8.7361 C25.0144,-8.7361 25.0144,-8.7361 25.0144,-8.7361 C25.3392,-8.7361 25.5828,-8.4925 25.5828,-8.0866 C25.5828,-5.4883 25.5828,-5.4883 25.5828,-5.4883 Z" style="fill-rule: evenodd; fill: #8c8c8c; "/>
    <path xmlns="http://www.w3.org/2000/svg" d="  M24.8114,-5.6507 C24.8114,-5.4883 24.5679,-5.3259 24.3243,-5.3259 C19.0465,-5.3259 19.0465,-5.3259 19.0465,-5.3259 C18.8030,-5.3259 18.6406,-5.4883 18.6406,-5.6507 C18.6406,-7.3558 18.6406,-7.3558 18.6406,-7.3558 C18.6406,-7.5994 18.8030,-7.7618 19.0465,-7.7618 C24.3243,-7.7618 24.3243,-7.7618 24.3243,-7.7618 C24.5679,-7.7618 24.8114,-7.5994 24.8114,-7.3558 C24.8114,-5.6507 24.8114,-5.6507 24.8114,-5.6507 Z" style="fill-rule: evenodd; fill: #000000; "/>
    <path xmlns="http://www.w3.org/2000/svg" d="  M10.9134,-10.7254 C10.7511,-9.5887 10.5075,-6.4220 10.5075,-2.7682 C10.5075,0.9668 10.7511,4.0522 10.9134,5.1889 C11.8878,5.1889 11.8878,5.1889 11.8878,5.1889 C11.8878,-10.7254 11.8878,-10.7254 11.8878,-10.7254 C10.9134,-10.7254 10.9134,-10.7254 10.9134,-10.7254 Z M14.1342,-10.8472 C13.8906,-9.7105 13.7282,-6.5438 13.7282,-2.8088 C13.7282,0.9262 13.8906,4.0928 14.1342,5.3107 C15.1086,5.3107 15.1086,5.3107 15.1086,5.3107 C15.1086,-10.8472 15.1086,-10.8472 15.1086,-10.8472 C14.1342,-10.8472 14.1342,-10.8472 14.1342,-10.8472 Z M4.4719,-10.2788 C4.2283,-9.2233 4.0659,-6.3003 4.0659,-2.8088 C4.0659,0.6826 4.2283,3.6056 4.4719,4.7424 C5.4463,4.7424 5.4463,4.7424 5.4463,4.7424 C5.4463,-10.2788 5.4463,-10.2788 5.4463,-10.2788 C4.4719,-10.2788 4.4719,-10.2788 4.4719,-10.2788 Z M7.6521,-10.5224 C7.4897,-9.4669 7.2461,-6.3814 7.2461,-2.8088 C7.2461,0.8450 7.4897,3.8492 7.6521,4.9859 C8.7076,4.9859 8.7076,4.9859 8.7076,4.9859 C8.7076,-10.5224 8.7076,-10.5224 8.7076,-10.5224 C7.6521,-10.5224 7.6521,-10.5224 7.6521,-10.5224 Z M35.7999,4.9859 C35.9623,3.8492 36.2059,0.8450 36.2059,-2.8088 C36.2059,-6.3814 35.9623,-9.4669 35.7999,-10.5224 C34.7444,-10.5224 34.7444,-10.5224 34.7444,-10.5224 C34.7444,4.9859 34.7444,4.9859 34.7444,4.9859 C35.7999,4.9859 35.7999,4.9859 35.7999,4.9859 Z M38.9801,4.7424 C39.2237,3.6056 39.3861,0.6826 39.3861,-2.8088 C39.3861,-6.3003 39.2237,-9.2233 38.9801,-10.2788 C38.0057,-10.2788 38.0057,-10.2788 38.0057,-10.2788 C38.0057,4.7424 38.0057,4.7424 38.0057,4.7424 C38.9801,4.7424 38.9801,4.7424 38.9801,4.7424 Z M29.3178,5.3107 C29.5614,4.1740 29.7238,0.9262 29.7238,-2.8088 C29.7238,-6.5438 29.5614,-9.7105 29.3178,-10.8472 C28.3435,-10.8472 28.3435,-10.8472 28.3435,-10.8472 C28.3435,5.3107 28.3435,5.3107 28.3435,5.3107 C29.3178,5.3107 29.3178,5.3107 29.3178,5.3107 Z M32.5386,5.1889 C32.7010,4.0522 32.9445,0.9668 32.9445,-2.7682 C32.9445,-6.4220 32.7010,-9.5887 32.5386,-10.7254 C31.5642,-10.7254 31.5642,-10.7254 31.5642,-10.7254 C31.5642,5.1889 31.5642,5.1889 31.5642,5.1889 C32.5386,5.1889 32.5386,5.1889 32.5386,5.1889 Z" style="fill-rule: evenodd; fill: #ffffff; "/>
    <path xmlns="http://www.w3.org/2000/svg" d="  M20.7923,-4.8387 C20.7923,-4.7575 20.7111,-4.6763 20.6299,-4.6763 C19.9803,-4.6763 19.9803,-4.6763 19.9803,-4.6763 C19.8991,-4.6763 19.8179,-4.7575 19.8179,-4.8387 C19.8179,-4.9199 19.8991,-5.0011 19.9803,-5.0011 C20.6299,-5.0011 20.6299,-5.0011 20.6299,-5.0011 C20.7111,-5.0011 20.7923,-4.9199 20.7923,-4.8387 Z M22.2538,-4.8387 C22.2538,-4.7575 22.1726,-4.6763 22.0102,-4.6763 C21.4418,-4.6763 21.4418,-4.6763 21.4418,-4.6763 C21.2794,-4.6763 21.1982,-4.7575 21.1982,-4.8387 C21.1982,-4.9199 21.2794,-5.0011 21.4418,-5.0011 C22.0102,-5.0011 22.0102,-5.0011 22.0102,-5.0011 C22.1726,-5.0011 22.2538,-4.9199 22.2538,-4.8387 Z M23.6341,-4.8387 C23.6341,-4.7575 23.5529,-4.6763 23.4717,-4.6763 C22.8221,-4.6763 22.8221,-4.6763 22.8221,-4.6763 C22.7410,-4.6763 22.6598,-4.7575 22.6598,-4.8387 C22.6598,-4.9199 22.7410,-5.0011 22.8221,-5.0011 C23.4717,-5.0011 23.4717,-5.0011 23.4717,-5.0011 C23.5529,-5.0011 23.6341,-4.9199 23.6341,-4.8387 Z" style="fill-rule: evenodd; fill: #ffffff; "/>
    <!--converted by libvisio2svg-->
  </g>
</svg>
