<svg xmlns="http://www.w3.org/2000/svg" xmlns:xlink="http://www.w3.org/1999/xlink" version="1.1" width="7.2000000000" height="171.3600000000">
  <title><![CDATA[VTL1200 Series racked]]></title>
  <g transform=" scale(1.000000) ">
    <path xmlns="http://www.w3.org/2000/svg" d="  M47.4166,2.4020 L-1.8000,2.4020 L0.8409,-1.1992 L45.0158,-1.1992 L47.4166,2.4020 Z" style="fill-rule: evenodd; fill: #b3b3b3; "/>
    <path xmlns="http://www.w3.org/2000/svg" d="  M47.4166,2.4020 L-1.8000,2.4020 L-1.8000,173.8200 L47.4166,173.8200 L47.4166,2.4020 Z" style="fill-rule: evenodd; fill: #7f7f7f; "/>
    <g xmlns="http://www.w3.org/2000/svg" id="Layer1055">
      <path d="  M44.5357,6.4834 L1.3211,6.4834 L1.3211,18.2474 L44.5357,18.2474 L44.5357,6.4834 Z M44.5357,18.2474 L1.3211,18.2474 L1.3211,29.7713 L44.5357,29.7713 L44.5357,18.2474 Z M44.5357,29.7713 L1.3211,29.7713 L1.3211,41.5353 L44.5357,41.5353 L44.5357,29.7713 Z M44.5357,41.5353 L1.3211,41.5353 L1.3211,53.0592 L44.5357,53.0592 L44.5357,41.5353 Z M44.5357,53.0592 L1.3211,53.0592 L1.3211,64.8231 L44.5357,64.8231 L44.5357,53.0592 Z M44.5357,64.8231 L1.3211,64.8231 L1.3211,76.3470 L44.5357,76.3470 L44.5357,64.8231 Z M44.5357,76.5071 L1.3211,76.5071 L1.3211,88.0310 L44.5357,88.0310 L44.5357,76.5071 Z M44.5357,88.1910 L1.3211,88.1910 L1.3211,99.7149 L44.5357,99.7149 L44.5357,88.1910 Z M44.5357,99.8750 L1.3211,99.8750 L1.3211,111.3989 L44.5357,111.3989 L44.5357,99.8750 Z M44.5357,111.3989 L1.3211,111.3989 L1.3211,123.1629 L44.5357,123.1629 L44.5357,111.3989 Z M44.5357,123.1629 L1.3211,123.1629 L1.3211,134.6868 L44.5357,134.6868 L44.5357,123.1629 Z M44.5357,134.6868 L1.3211,134.6868 L1.3211,146.4507 L44.5357,146.4507 L44.5357,134.6868 Z M44.5357,146.4507 L1.3211,146.4507 L1.3211,157.9746 L44.5357,157.9746 L44.5357,146.4507 Z M44.5357,157.9746 L1.3211,157.9746 L1.3211,169.7386 L44.5357,169.7386 L44.5357,157.9746 Z" style="stroke-width: 0.0240; stroke-linecap: round; stroke-linejoin: round; fill-rule: evenodd; fill: #000000; "/>
      <path d="  M44.5357,6.4834 L1.3211,6.4834 L1.3211,18.2474 L44.5357,18.2474 L44.5357,6.4834 Z M44.5357,18.2474 L1.3211,18.2474 L1.3211,29.7713 L44.5357,29.7713 L44.5357,18.2474 Z M44.5357,29.7713 L1.3211,29.7713 L1.3211,41.5353 L44.5357,41.5353 L44.5357,29.7713 Z M44.5357,41.5353 L1.3211,41.5353 L1.3211,53.0592 L44.5357,53.0592 L44.5357,41.5353 Z M44.5357,53.0592 L1.3211,53.0592 L1.3211,64.8231 L44.5357,64.8231 L44.5357,53.0592 Z M44.5357,64.8231 L1.3211,64.8231 L1.3211,76.3470 L44.5357,76.3470 L44.5357,64.8231 Z M44.5357,76.5071 L1.3211,76.5071 L1.3211,88.0310 L44.5357,88.0310 L44.5357,76.5071 Z M44.5357,88.1910 L1.3211,88.1910 L1.3211,99.7149 L44.5357,99.7149 L44.5357,88.1910 Z M44.5357,99.8750 L1.3211,99.8750 L1.3211,111.3989 L44.5357,111.3989 L44.5357,99.8750 Z M44.5357,111.3989 L1.3211,111.3989 L1.3211,123.1629 L44.5357,123.1629 L44.5357,111.3989 Z M44.5357,123.1629 L1.3211,123.1629 L1.3211,134.6868 L44.5357,134.6868 L44.5357,123.1629 Z M44.5357,134.6868 L1.3211,134.6868 L1.3211,146.4507 L44.5357,146.4507 L44.5357,134.6868 Z M44.5357,146.4507 L1.3211,146.4507 L1.3211,157.9746 L44.5357,157.9746 L44.5357,146.4507 Z M44.5357,157.9746 L1.3211,157.9746 L1.3211,169.7386 L44.5357,169.7386 L44.5357,157.9746 Z" style="stroke-width: 0.0240; stroke: #ffffff; stroke-dasharray: none; stroke-linecap: round; stroke-linejoin: round; fill: none; "/>
    </g>
    <path xmlns="http://www.w3.org/2000/svg" d="  M3.2417,19.9279 C3.2417,21.3684 3.2417,21.3684 3.2417,21.3684 C4.2020,22.5688 4.6822,23.2891 4.6822,25.6899 C4.6822,25.9300 4.6822,25.9300 4.6822,26.1701 C6.1227,26.1701 6.1227,26.1701 6.1227,26.1701 C6.1227,19.9279 6.1227,19.9279 6.1227,19.9279 C3.2417,19.9279 3.2417,19.9279 3.2417,19.9279 Z M7.0830,19.9279 C7.0830,21.3684 7.0830,21.3684 7.0830,21.3684 C7.8032,22.5688 8.2834,23.2891 8.2834,25.6899 C8.2834,25.9300 8.2834,25.9300 8.2834,26.1701 C9.7239,26.1701 9.7239,26.1701 9.7239,26.1701 C9.7239,19.9279 9.7239,19.9279 9.7239,19.9279 C7.0830,19.9279 7.0830,19.9279 7.0830,19.9279 Z M10.6842,19.9279 C10.6842,21.3684 10.6842,21.3684 10.6842,21.3684 C11.4045,22.5688 11.8846,23.2891 11.8846,25.6899 C11.8846,25.9300 11.8846,25.9300 11.8846,26.1701 C13.3251,26.1701 13.3251,26.1701 13.3251,26.1701 C13.3251,19.9279 13.3251,19.9279 13.3251,19.9279 C10.6842,19.9279 10.6842,19.9279 10.6842,19.9279 Z M14.2854,19.9279 C14.2854,21.3684 14.2854,21.3684 14.2854,21.3684 C15.0057,22.5688 15.7259,23.2891 15.7259,25.6899 C15.7259,25.9300 15.4858,25.9300 15.4858,26.1701 C16.9263,26.1701 16.9263,26.1701 16.9263,26.1701 C16.9263,19.9279 16.9263,19.9279 16.9263,19.9279 C14.2854,19.9279 14.2854,19.9279 14.2854,19.9279 Z M17.8867,19.9279 C17.8867,21.3684 17.8867,21.3684 17.8867,21.3684 C18.6069,22.5688 19.3271,23.2891 19.3271,25.6899 C19.3271,25.9300 19.3271,25.9300 19.3271,26.1701 C20.5276,26.1701 20.5276,26.1701 20.5276,26.1701 C20.5276,19.9279 20.5276,19.9279 20.5276,19.9279 C17.8867,19.9279 17.8867,19.9279 17.8867,19.9279 Z M21.4879,19.9279 C21.4879,21.3684 21.4879,21.3684 21.4879,21.3684 C22.4482,22.5688 22.9284,23.2891 22.9284,25.6899 C22.9284,25.9300 22.9284,25.9300 22.9284,26.1701 C24.1288,26.1701 24.1288,26.1701 24.1288,26.1701 C24.1288,19.9279 24.1288,19.9279 24.1288,19.9279 C21.4879,19.9279 21.4879,19.9279 21.4879,19.9279 Z M25.0891,19.9279 C25.0891,21.3684 25.0891,21.3684 25.0891,21.3684 C26.0494,22.5688 26.5296,23.2891 26.5296,25.6899 C26.5296,25.9300 26.5296,25.9300 26.5296,26.1701 C27.7300,26.1701 27.7300,26.1701 27.7300,26.1701 C27.7300,19.9279 27.7300,19.9279 27.7300,19.9279 C25.0891,19.9279 25.0891,19.9279 25.0891,19.9279 Z M28.9304,19.9279 C28.9304,21.3684 28.9304,21.3684 28.9304,21.3684 C29.6506,22.5688 30.1308,23.2891 30.1308,25.6899 C30.1308,25.9300 30.1308,25.9300 30.1308,26.1701 C31.5713,26.1701 31.5713,26.1701 31.5713,26.1701 C31.5713,19.9279 31.5713,19.9279 31.5713,19.9279 C28.9304,19.9279 28.9304,19.9279 28.9304,19.9279 Z M32.5316,19.9279 C32.5316,21.3684 32.5316,21.3684 32.5316,21.3684 C33.2519,22.5688 33.7320,23.2891 33.7320,25.6899 C33.7320,25.9300 33.7320,25.9300 33.7320,26.1701 C35.1725,26.1701 35.1725,26.1701 35.1725,26.1701 C35.1725,19.9279 35.1725,19.9279 35.1725,19.9279 C32.5316,19.9279 32.5316,19.9279 32.5316,19.9279 Z M36.1328,19.9279 C36.1328,21.3684 36.1328,21.3684 36.1328,21.3684 C36.8531,22.5688 37.3332,23.2891 37.3332,25.6899 C37.3332,25.9300 37.3332,25.9300 37.3332,26.1701 C38.7737,26.1701 38.7737,26.1701 38.7737,26.1701 C38.7737,19.9279 38.7737,19.9279 38.7737,19.9279 C36.1328,19.9279 36.1328,19.9279 36.1328,19.9279 Z M39.7340,19.9279 C39.7340,21.3684 39.7340,21.3684 39.7340,21.3684 C40.4543,22.5688 41.1745,23.2891 41.1745,25.6899 C41.1745,25.9300 41.1745,25.9300 41.1745,26.1701 C42.3749,26.1701 42.3749,26.1701 42.3749,26.1701 C42.3749,19.9279 42.3749,19.9279 42.3749,19.9279 C39.7340,19.9279 39.7340,19.9279 39.7340,19.9279 Z M3.2417,8.1640 C3.2417,9.6045 3.2417,9.6045 3.2417,9.6045 C4.2020,11.0449 4.6822,11.7652 4.6822,13.9259 C4.6822,14.1660 4.6822,14.4061 4.6822,14.6462 C6.1227,14.6462 6.1227,14.6462 6.1227,14.6462 C6.1227,8.1640 6.1227,8.1640 6.1227,8.1640 C3.2417,8.1640 3.2417,8.1640 3.2417,8.1640 Z M7.0830,8.1640 C7.0830,9.6045 7.0830,9.6045 7.0830,9.6045 C7.8032,11.0449 8.2834,11.7652 8.2834,13.9259 C8.2834,14.1660 8.2834,14.4061 8.2834,14.6462 C9.7239,14.6462 9.7239,14.6462 9.7239,14.6462 C9.7239,8.1640 9.7239,8.1640 9.7239,8.1640 C7.0830,8.1640 7.0830,8.1640 7.0830,8.1640 Z M10.6842,8.1640 C10.6842,9.6045 10.6842,9.6045 10.6842,9.6045 C11.4045,11.0449 11.8846,11.7652 11.8846,13.9259 C11.8846,14.1660 11.8846,14.4061 11.8846,14.6462 C13.3251,14.6462 13.3251,14.6462 13.3251,14.6462 C13.3251,8.1640 13.3251,8.1640 13.3251,8.1640 C10.6842,8.1640 10.6842,8.1640 10.6842,8.1640 Z M14.2854,8.1640 C14.2854,9.6045 14.2854,9.6045 14.2854,9.6045 C15.0057,11.0449 15.7259,11.7652 15.7259,13.9259 C15.7259,14.1660 15.4858,14.4061 15.4858,14.6462 C16.9263,14.6462 16.9263,14.6462 16.9263,14.6462 C16.9263,8.1640 16.9263,8.1640 16.9263,8.1640 C14.2854,8.1640 14.2854,8.1640 14.2854,8.1640 Z M17.8867,8.1640 C17.8867,9.6045 17.8867,9.6045 17.8867,9.6045 C18.6069,11.0449 19.3271,11.7652 19.3271,13.9259 C19.3271,14.1660 19.3271,14.4061 19.3271,14.6462 C20.5276,14.6462 20.5276,14.6462 20.5276,14.6462 C20.5276,8.1640 20.5276,8.1640 20.5276,8.1640 C17.8867,8.1640 17.8867,8.1640 17.8867,8.1640 Z M21.4879,8.1640 C21.4879,9.6045 21.4879,9.6045 21.4879,9.6045 C22.4482,11.0449 22.9284,11.7652 22.9284,13.9259 C22.9284,14.1660 22.9284,14.4061 22.9284,14.6462 C24.1288,14.6462 24.1288,14.6462 24.1288,14.6462 C24.1288,8.1640 24.1288,8.1640 24.1288,8.1640 C21.4879,8.1640 21.4879,8.1640 21.4879,8.1640 Z M25.0891,8.1640 C25.0891,9.6045 25.0891,9.6045 25.0891,9.6045 C26.0494,11.0449 26.5296,11.7652 26.5296,13.9259 C26.5296,14.1660 26.5296,14.4061 26.5296,14.6462 C27.7300,14.6462 27.7300,14.6462 27.7300,14.6462 C27.7300,8.1640 27.7300,8.1640 27.7300,8.1640 C25.0891,8.1640 25.0891,8.1640 25.0891,8.1640 Z M28.9304,8.1640 C28.9304,9.6045 28.9304,9.6045 28.9304,9.6045 C29.6506,11.0449 30.1308,11.7652 30.1308,13.9259 C30.1308,14.1660 30.1308,14.4061 30.1308,14.6462 C31.5713,14.6462 31.5713,14.6462 31.5713,14.6462 C31.5713,8.1640 31.5713,8.1640 31.5713,8.1640 C28.9304,8.1640 28.9304,8.1640 28.9304,8.1640 Z M32.5316,8.1640 C32.5316,9.6045 32.5316,9.6045 32.5316,9.6045 C33.2519,11.0449 33.7320,11.7652 33.7320,13.9259 C33.7320,14.1660 33.7320,14.4061 33.7320,14.6462 C35.1725,14.6462 35.1725,14.6462 35.1725,14.6462 C35.1725,8.1640 35.1725,8.1640 35.1725,8.1640 C32.5316,8.1640 32.5316,8.1640 32.5316,8.1640 Z M36.1328,8.1640 C36.1328,9.6045 36.1328,9.6045 36.1328,9.6045 C36.8531,11.0449 37.3332,11.7652 37.3332,13.9259 C37.3332,14.1660 37.3332,14.4061 37.3332,14.6462 C38.7737,14.6462 38.7737,14.6462 38.7737,14.6462 C38.7737,8.1640 38.7737,8.1640 38.7737,8.1640 C36.1328,8.1640 36.1328,8.1640 36.1328,8.1640 Z M39.7340,8.1640 C39.7340,9.6045 39.7340,9.6045 39.7340,9.6045 C40.4543,11.0449 41.1745,11.7652 41.1745,13.9259 C41.1745,14.1660 41.1745,14.4061 41.1745,14.6462 C42.3749,14.6462 42.3749,14.6462 42.3749,14.6462 C42.3749,8.1640 42.3749,8.1640 42.3749,8.1640 C39.7340,8.1640 39.7340,8.1640 39.7340,8.1640 Z M32.5316,54.7397 C32.5316,56.1802 32.5316,56.1802 32.5316,56.1802 C33.2519,57.6207 33.7320,58.3409 33.7320,60.5017 C33.7320,60.7417 33.7320,60.9818 33.7320,61.2219 C35.1725,61.2219 35.1725,61.2219 35.1725,61.2219 C35.1725,54.7397 35.1725,54.7397 35.1725,54.7397 C32.5316,54.7397 32.5316,54.7397 32.5316,54.7397 Z M32.5316,66.2636 C32.5316,67.9442 32.5316,67.9442 32.5316,67.9442 C33.2519,69.1446 33.7320,69.8648 33.7320,72.2656 C33.7320,72.2656 33.7320,72.5057 33.7320,72.7458 C35.1725,72.7458 35.1725,72.7458 35.1725,72.7458 C35.1725,66.2636 35.1725,66.2636 35.1725,66.2636 C32.5316,66.2636 32.5316,66.2636 32.5316,66.2636 Z M36.1328,66.2636 C36.1328,67.9442 36.1328,67.9442 36.1328,67.9442 C36.8531,69.1446 37.3332,69.8648 37.3332,72.2656 C37.3332,72.2656 37.3332,72.5057 37.3332,72.7458 C38.7737,72.7458 38.7737,72.7458 38.7737,72.7458 C38.7737,66.2636 38.7737,66.2636 38.7737,66.2636 C36.1328,66.2636 36.1328,66.2636 36.1328,66.2636 Z M21.4879,54.7397 C21.4879,56.1802 21.4879,56.1802 21.4879,56.1802 C22.4482,57.6207 22.9284,58.3409 22.9284,60.5017 C22.9284,60.7417 22.9284,60.9818 22.9284,61.2219 C24.1288,61.2219 24.1288,61.2219 24.1288,61.2219 C24.1288,54.7397 24.1288,54.7397 24.1288,54.7397 C21.4879,54.7397 21.4879,54.7397 21.4879,54.7397 Z M36.1328,54.7397 C36.1328,56.1802 36.1328,56.1802 36.1328,56.1802 C36.8531,57.6207 37.3332,58.3409 37.3332,60.5017 C37.3332,60.7417 37.3332,60.9818 37.3332,61.2219 C38.7737,61.2219 38.7737,61.2219 38.7737,61.2219 C38.7737,54.7397 38.7737,54.7397 38.7737,54.7397 C36.1328,54.7397 36.1328,54.7397 36.1328,54.7397 Z M21.4879,66.2636 C21.4879,67.9442 21.4879,67.9442 21.4879,67.9442 C22.4482,69.1446 22.9284,69.8648 22.9284,72.2656 C22.9284,72.2656 22.9284,72.5057 22.9284,72.7458 C24.1288,72.7458 24.1288,72.7458 24.1288,72.7458 C24.1288,66.2636 24.1288,66.2636 24.1288,66.2636 C21.4879,66.2636 21.4879,66.2636 21.4879,66.2636 Z M28.9304,66.2636 C28.9304,67.9442 28.9304,67.9442 28.9304,67.9442 C29.6506,69.1446 30.1308,69.8648 30.1308,72.2656 C30.1308,72.2656 30.1308,72.5057 30.1308,72.7458 C31.5713,72.7458 31.5713,72.7458 31.5713,72.7458 C31.5713,66.2636 31.5713,66.2636 31.5713,66.2636 C28.9304,66.2636 28.9304,66.2636 28.9304,66.2636 Z M14.2854,66.2636 C14.2854,67.9442 14.2854,67.9442 14.2854,67.9442 C15.0057,69.1446 15.7259,69.8648 15.7259,72.2656 C15.7259,72.2656 15.4858,72.5057 15.4858,72.7458 C16.9263,72.7458 16.9263,72.7458 16.9263,72.7458 C16.9263,66.2636 16.9263,66.2636 16.9263,66.2636 C14.2854,66.2636 14.2854,66.2636 14.2854,66.2636 Z M28.9304,54.7397 C28.9304,56.1802 28.9304,56.1802 28.9304,56.1802 C29.6506,57.6207 30.1308,58.3409 30.1308,60.5017 C30.1308,60.7417 30.1308,60.9818 30.1308,61.2219 C31.5713,61.2219 31.5713,61.2219 31.5713,61.2219 C31.5713,54.7397 31.5713,54.7397 31.5713,54.7397 C28.9304,54.7397 28.9304,54.7397 28.9304,54.7397 Z M39.7340,66.2636 C39.7340,67.9442 39.7340,67.9442 39.7340,67.9442 C40.4543,69.1446 41.1745,69.8648 41.1745,72.2656 C41.1745,72.2656 41.1745,72.5057 41.1745,72.7458 C42.3749,72.7458 42.3749,72.7458 42.3749,72.7458 C42.3749,66.2636 42.3749,66.2636 42.3749,66.2636 C39.7340,66.2636 39.7340,66.2636 39.7340,66.2636 Z M17.8867,54.7397 C17.8867,56.1802 17.8867,56.1802 17.8867,56.1802 C18.6069,57.6207 19.3271,58.3409 19.3271,60.5017 C19.3271,60.7417 19.3271,60.9818 19.3271,61.2219 C20.5276,61.2219 20.5276,61.2219 20.5276,61.2219 C20.5276,54.7397 20.5276,54.7397 20.5276,54.7397 C17.8867,54.7397 17.8867,54.7397 17.8867,54.7397 Z M14.2854,54.7397 C14.2854,56.1802 14.2854,56.1802 14.2854,56.1802 C15.0057,57.6207 15.7259,58.3409 15.7259,60.5017 C15.7259,60.7417 15.4858,60.9818 15.4858,61.2219 C16.9263,61.2219 16.9263,61.2219 16.9263,61.2219 C16.9263,54.7397 16.9263,54.7397 16.9263,54.7397 C14.2854,54.7397 14.2854,54.7397 14.2854,54.7397 Z M17.8867,66.2636 C17.8867,67.9442 17.8867,67.9442 17.8867,67.9442 C18.6069,69.1446 19.3271,69.8648 19.3271,72.2656 C19.3271,72.2656 19.3271,72.5057 19.3271,72.7458 C20.5276,72.7458 20.5276,72.7458 20.5276,72.7458 C20.5276,66.2636 20.5276,66.2636 20.5276,66.2636 C17.8867,66.2636 17.8867,66.2636 17.8867,66.2636 Z M25.0891,54.7397 C25.0891,56.1802 25.0891,56.1802 25.0891,56.1802 C26.0494,57.6207 26.5296,58.3409 26.5296,60.5017 C26.5296,60.7417 26.5296,60.9818 26.5296,61.2219 C27.7300,61.2219 27.7300,61.2219 27.7300,61.2219 C27.7300,54.7397 27.7300,54.7397 27.7300,54.7397 C25.0891,54.7397 25.0891,54.7397 25.0891,54.7397 Z M25.0891,66.2636 C25.0891,67.9442 25.0891,67.9442 25.0891,67.9442 C26.0494,69.1446 26.5296,69.8648 26.5296,72.2656 C26.5296,72.2656 26.5296,72.5057 26.5296,72.7458 C27.7300,72.7458 27.7300,72.7458 27.7300,72.7458 C27.7300,66.2636 27.7300,66.2636 27.7300,66.2636 C25.0891,66.2636 25.0891,66.2636 25.0891,66.2636 Z M10.6842,54.7397 C10.6842,56.1802 10.6842,56.1802 10.6842,56.1802 C11.4045,57.6207 11.8846,58.3409 11.8846,60.5017 C11.8846,60.7417 11.8846,60.9818 11.8846,61.2219 C13.3251,61.2219 13.3251,61.2219 13.3251,61.2219 C13.3251,54.7397 13.3251,54.7397 13.3251,54.7397 C10.6842,54.7397 10.6842,54.7397 10.6842,54.7397 Z M39.7340,54.7397 C39.7340,56.1802 39.7340,56.1802 39.7340,56.1802 C40.4543,57.6207 41.1745,58.3409 41.1745,60.5017 C41.1745,60.7417 41.1745,60.9818 41.1745,61.2219 C42.3749,61.2219 42.3749,61.2219 42.3749,61.2219 C42.3749,54.7397 42.3749,54.7397 42.3749,54.7397 C39.7340,54.7397 39.7340,54.7397 39.7340,54.7397 Z M10.6842,66.2636 C10.6842,67.9442 10.6842,67.9442 10.6842,67.9442 C11.4045,69.1446 11.8846,69.8648 11.8846,72.2656 C11.8846,72.2656 11.8846,72.5057 11.8846,72.7458 C13.3251,72.7458 13.3251,72.7458 13.3251,72.7458 C13.3251,66.2636 13.3251,66.2636 13.3251,66.2636 C10.6842,66.2636 10.6842,66.2636 10.6842,66.2636 Z M3.2417,54.7397 C3.2417,56.1802 3.2417,56.1802 3.2417,56.1802 C4.2020,57.6207 4.6822,58.3409 4.6822,60.5017 C4.6822,60.7417 4.6822,60.9818 4.6822,61.2219 C6.1227,61.2219 6.1227,61.2219 6.1227,61.2219 C6.1227,54.7397 6.1227,54.7397 6.1227,54.7397 C3.2417,54.7397 3.2417,54.7397 3.2417,54.7397 Z M7.0830,54.7397 C7.0830,56.1802 7.0830,56.1802 7.0830,56.1802 C7.8032,57.6207 8.2834,58.3409 8.2834,60.5017 C8.2834,60.7417 8.2834,60.9818 8.2834,61.2219 C9.7239,61.2219 9.7239,61.2219 9.7239,61.2219 C9.7239,54.7397 9.7239,54.7397 9.7239,54.7397 C7.0830,54.7397 7.0830,54.7397 7.0830,54.7397 Z M7.0830,66.2636 C7.0830,67.9442 7.0830,67.9442 7.0830,67.9442 C7.8032,69.1446 8.2834,69.8648 8.2834,72.2656 C8.2834,72.2656 8.2834,72.5057 8.2834,72.7458 C9.7239,72.7458 9.7239,72.7458 9.7239,72.7458 C9.7239,66.2636 9.7239,66.2636 9.7239,66.2636 C7.0830,66.2636 7.0830,66.2636 7.0830,66.2636 Z M3.2417,66.2636 C3.2417,67.9442 3.2417,67.9442 3.2417,67.9442 C4.2020,69.1446 4.6822,69.8648 4.6822,72.2656 C4.6822,72.2656 4.6822,72.5057 4.6822,72.7458 C6.1227,72.7458 6.1227,72.7458 6.1227,72.7458 C6.1227,66.2636 6.1227,66.2636 6.1227,66.2636 C3.2417,66.2636 3.2417,66.2636 3.2417,66.2636 Z M17.8867,43.2158 C17.8867,44.6563 17.8867,44.6563 17.8867,44.6563 C18.6069,45.8567 19.3271,46.5770 19.3271,48.9778 C19.3271,49.2179 19.3271,49.2179 19.3271,49.4579 C20.5276,49.4579 20.5276,49.4579 20.5276,49.4579 C20.5276,43.2158 20.5276,43.2158 20.5276,43.2158 C17.8867,43.2158 17.8867,43.2158 17.8867,43.2158 Z M21.4879,43.2158 C21.4879,44.6563 21.4879,44.6563 21.4879,44.6563 C22.4482,45.8567 22.9284,46.5770 22.9284,48.9778 C22.9284,49.2179 22.9284,49.2179 22.9284,49.4579 C24.1288,49.4579 24.1288,49.4579 24.1288,49.4579 C24.1288,43.2158 24.1288,43.2158 24.1288,43.2158 C21.4879,43.2158 21.4879,43.2158 21.4879,43.2158 Z M25.0891,43.2158 C25.0891,44.6563 25.0891,44.6563 25.0891,44.6563 C26.0494,45.8567 26.5296,46.5770 26.5296,48.9778 C26.5296,49.2179 26.5296,49.2179 26.5296,49.4579 C27.7300,49.4579 27.7300,49.4579 27.7300,49.4579 C27.7300,43.2158 27.7300,43.2158 27.7300,43.2158 C25.0891,43.2158 25.0891,43.2158 25.0891,43.2158 Z M28.9304,43.2158 C28.9304,44.6563 28.9304,44.6563 28.9304,44.6563 C29.6506,45.8567 30.1308,46.5770 30.1308,48.9778 C30.1308,49.2179 30.1308,49.2179 30.1308,49.4579 C31.5713,49.4579 31.5713,49.4579 31.5713,49.4579 C31.5713,43.2158 31.5713,43.2158 31.5713,43.2158 C28.9304,43.2158 28.9304,43.2158 28.9304,43.2158 Z M32.5316,43.2158 C32.5316,44.6563 32.5316,44.6563 32.5316,44.6563 C33.2519,45.8567 33.7320,46.5770 33.7320,48.9778 C33.7320,49.2179 33.7320,49.2179 33.7320,49.4579 C35.1725,49.4579 35.1725,49.4579 35.1725,49.4579 C35.1725,43.2158 35.1725,43.2158 35.1725,43.2158 C32.5316,43.2158 32.5316,43.2158 32.5316,43.2158 Z M36.1328,43.2158 C36.1328,44.6563 36.1328,44.6563 36.1328,44.6563 C36.8531,45.8567 37.3332,46.5770 37.3332,48.9778 C37.3332,49.2179 37.3332,49.2179 37.3332,49.4579 C38.7737,49.4579 38.7737,49.4579 38.7737,49.4579 C38.7737,43.2158 38.7737,43.2158 38.7737,43.2158 C36.1328,43.2158 36.1328,43.2158 36.1328,43.2158 Z M39.7340,43.2158 C39.7340,44.6563 39.7340,44.6563 39.7340,44.6563 C40.4543,45.8567 41.1745,46.5770 41.1745,48.9778 C41.1745,49.2179 41.1745,49.2179 41.1745,49.4579 C42.3749,49.4579 42.3749,49.4579 42.3749,49.4579 C42.3749,43.2158 42.3749,43.2158 42.3749,43.2158 C39.7340,43.2158 39.7340,43.2158 39.7340,43.2158 Z M3.2417,43.2158 C3.2417,44.6563 3.2417,44.6563 3.2417,44.6563 C4.2020,45.8567 4.6822,46.5770 4.6822,48.9778 C4.6822,49.2179 4.6822,49.2179 4.6822,49.4579 C6.1227,49.4579 6.1227,49.4579 6.1227,49.4579 C6.1227,43.2158 6.1227,43.2158 6.1227,43.2158 C3.2417,43.2158 3.2417,43.2158 3.2417,43.2158 Z M7.0830,43.2158 C7.0830,44.6563 7.0830,44.6563 7.0830,44.6563 C7.8032,45.8567 8.2834,46.5770 8.2834,48.9778 C8.2834,49.2179 8.2834,49.2179 8.2834,49.4579 C9.7239,49.4579 9.7239,49.4579 9.7239,49.4579 C9.7239,43.2158 9.7239,43.2158 9.7239,43.2158 C7.0830,43.2158 7.0830,43.2158 7.0830,43.2158 Z M10.6842,43.2158 C10.6842,44.6563 10.6842,44.6563 10.6842,44.6563 C11.4045,45.8567 11.8846,46.5770 11.8846,48.9778 C11.8846,49.2179 11.8846,49.2179 11.8846,49.4579 C13.3251,49.4579 13.3251,49.4579 13.3251,49.4579 C13.3251,43.2158 13.3251,43.2158 13.3251,43.2158 C10.6842,43.2158 10.6842,43.2158 10.6842,43.2158 Z M14.2854,43.2158 C14.2854,44.6563 14.2854,44.6563 14.2854,44.6563 C15.0057,45.8567 15.7259,46.5770 15.7259,48.9778 C15.7259,49.2179 15.4858,49.2179 15.4858,49.4579 C16.9263,49.4579 16.9263,49.4579 16.9263,49.4579 C16.9263,43.2158 16.9263,43.2158 16.9263,43.2158 C14.2854,43.2158 14.2854,43.2158 14.2854,43.2158 Z M21.4879,31.4518 C21.4879,32.8923 21.4879,32.8923 21.4879,32.8923 C22.4482,34.3328 22.9284,35.0531 22.9284,37.2138 C22.9284,37.4539 22.9284,37.6940 22.9284,37.9340 C24.1288,37.9340 24.1288,37.9340 24.1288,37.9340 C24.1288,31.4518 24.1288,31.4518 24.1288,31.4518 C21.4879,31.4518 21.4879,31.4518 21.4879,31.4518 Z M25.0891,31.4518 C25.0891,32.8923 25.0891,32.8923 25.0891,32.8923 C26.0494,34.3328 26.5296,35.0531 26.5296,37.2138 C26.5296,37.4539 26.5296,37.6940 26.5296,37.9340 C27.7300,37.9340 27.7300,37.9340 27.7300,37.9340 C27.7300,31.4518 27.7300,31.4518 27.7300,31.4518 C25.0891,31.4518 25.0891,31.4518 25.0891,31.4518 Z M28.9304,31.4518 C28.9304,32.8923 28.9304,32.8923 28.9304,32.8923 C29.6506,34.3328 30.1308,35.0531 30.1308,37.2138 C30.1308,37.4539 30.1308,37.6940 30.1308,37.9340 C31.5713,37.9340 31.5713,37.9340 31.5713,37.9340 C31.5713,31.4518 31.5713,31.4518 31.5713,31.4518 C28.9304,31.4518 28.9304,31.4518 28.9304,31.4518 Z M32.5316,31.4518 C32.5316,32.8923 32.5316,32.8923 32.5316,32.8923 C33.2519,34.3328 33.7320,35.0531 33.7320,37.2138 C33.7320,37.4539 33.7320,37.6940 33.7320,37.9340 C35.1725,37.9340 35.1725,37.9340 35.1725,37.9340 C35.1725,31.4518 35.1725,31.4518 35.1725,31.4518 C32.5316,31.4518 32.5316,31.4518 32.5316,31.4518 Z M36.1328,31.4518 C36.1328,32.8923 36.1328,32.8923 36.1328,32.8923 C36.8531,34.3328 37.3332,35.0531 37.3332,37.2138 C37.3332,37.4539 37.3332,37.6940 37.3332,37.9340 C38.7737,37.9340 38.7737,37.9340 38.7737,37.9340 C38.7737,31.4518 38.7737,31.4518 38.7737,31.4518 C36.1328,31.4518 36.1328,31.4518 36.1328,31.4518 Z M39.7340,31.4518 C39.7340,32.8923 39.7340,32.8923 39.7340,32.8923 C40.4543,34.3328 41.1745,35.0531 41.1745,37.2138 C41.1745,37.4539 41.1745,37.6940 41.1745,37.9340 C42.3749,37.9340 42.3749,37.9340 42.3749,37.9340 C42.3749,31.4518 42.3749,31.4518 42.3749,31.4518 C39.7340,31.4518 39.7340,31.4518 39.7340,31.4518 Z M3.2417,31.4518 C3.2417,32.8923 3.2417,32.8923 3.2417,32.8923 C4.2020,34.3328 4.6822,35.0531 4.6822,37.2138 C4.6822,37.4539 4.6822,37.6940 4.6822,37.9340 C6.1227,37.9340 6.1227,37.9340 6.1227,37.9340 C6.1227,31.4518 6.1227,31.4518 6.1227,31.4518 C3.2417,31.4518 3.2417,31.4518 3.2417,31.4518 Z M7.0830,31.4518 C7.0830,32.8923 7.0830,32.8923 7.0830,32.8923 C7.8032,34.3328 8.2834,35.0531 8.2834,37.2138 C8.2834,37.4539 8.2834,37.6940 8.2834,37.9340 C9.7239,37.9340 9.7239,37.9340 9.7239,37.9340 C9.7239,31.4518 9.7239,31.4518 9.7239,31.4518 C7.0830,31.4518 7.0830,31.4518 7.0830,31.4518 Z M10.6842,31.4518 C10.6842,32.8923 10.6842,32.8923 10.6842,32.8923 C11.4045,34.3328 11.8846,35.0531 11.8846,37.2138 C11.8846,37.4539 11.8846,37.6940 11.8846,37.9340 C13.3251,37.9340 13.3251,37.9340 13.3251,37.9340 C13.3251,31.4518 13.3251,31.4518 13.3251,31.4518 C10.6842,31.4518 10.6842,31.4518 10.6842,31.4518 Z M14.2854,31.4518 C14.2854,32.8923 14.2854,32.8923 14.2854,32.8923 C15.0057,34.3328 15.7259,35.0531 15.7259,37.2138 C15.7259,37.4539 15.4858,37.6940 15.4858,37.9340 C16.9263,37.9340 16.9263,37.9340 16.9263,37.9340 C16.9263,31.4518 16.9263,31.4518 16.9263,31.4518 C14.2854,31.4518 14.2854,31.4518 14.2854,31.4518 Z M17.8867,31.4518 C17.8867,32.8923 17.8867,32.8923 17.8867,32.8923 C18.6069,34.3328 19.3271,35.0531 19.3271,37.2138 C19.3271,37.4539 19.3271,37.6940 19.3271,37.9340 C20.5276,37.9340 20.5276,37.9340 20.5276,37.9340 C20.5276,31.4518 20.5276,31.4518 20.5276,31.4518 C17.8867,31.4518 17.8867,31.4518 17.8867,31.4518 Z" style="fill-rule: evenodd; fill: #7f7f7f; "/>
    <path xmlns="http://www.w3.org/2000/svg" d="  M25.3292,147.8912 C25.3292,149.5718 25.3292,149.5718 25.3292,149.5718 C26.0494,150.7722 26.5296,151.4924 26.5296,153.8933 C26.5296,153.8933 26.5296,154.1333 26.5296,154.3734 C27.9701,154.3734 27.9701,154.3734 27.9701,154.3734 C27.9701,147.8912 27.9701,147.8912 27.9701,147.8912 C25.3292,147.8912 25.3292,147.8912 25.3292,147.8912 Z M28.9304,147.8912 C28.9304,149.5718 28.9304,149.5718 28.9304,149.5718 C29.6506,150.7722 30.3709,151.4924 30.3709,153.8933 C30.3709,153.8933 30.1308,154.1333 30.1308,154.3734 C31.5713,154.3734 31.5713,154.3734 31.5713,154.3734 C31.5713,147.8912 31.5713,147.8912 31.5713,147.8912 C28.9304,147.8912 28.9304,147.8912 28.9304,147.8912 Z M32.5316,147.8912 C32.5316,149.5718 32.5316,149.5718 32.5316,149.5718 C33.2519,150.7722 33.9721,151.4924 33.9721,153.8933 C33.9721,153.8933 33.9721,154.1333 33.9721,154.3734 C35.1725,154.3734 35.1725,154.3734 35.1725,154.3734 C35.1725,147.8912 35.1725,147.8912 35.1725,147.8912 C32.5316,147.8912 32.5316,147.8912 32.5316,147.8912 Z M36.1328,147.8912 C36.1328,149.5718 36.1328,149.5718 36.1328,149.5718 C37.0932,150.7722 37.5733,151.4924 37.5733,153.8933 C37.5733,153.8933 37.5733,154.1333 37.5733,154.3734 C38.7737,154.3734 38.7737,154.3734 38.7737,154.3734 C38.7737,147.8912 38.7737,147.8912 38.7737,147.8912 C36.1328,147.8912 36.1328,147.8912 36.1328,147.8912 Z M39.7340,147.8912 C39.7340,149.5718 39.7340,149.5718 39.7340,149.5718 C40.6944,150.7722 41.1745,151.4924 41.1745,153.8933 C41.1745,153.8933 41.1745,154.1333 41.1745,154.3734 C42.3749,154.3734 42.3749,154.3734 42.3749,154.3734 C42.3749,147.8912 42.3749,147.8912 42.3749,147.8912 C39.7340,147.8912 39.7340,147.8912 39.7340,147.8912 Z M3.4818,147.8912 C3.4818,149.5718 3.4818,149.5718 3.4818,149.5718 C4.2020,150.7722 4.6822,151.4924 4.6822,153.8933 C4.6822,153.8933 4.6822,154.1333 4.6822,154.3734 C6.1227,154.3734 6.1227,154.3734 6.1227,154.3734 C6.1227,147.8912 6.1227,147.8912 6.1227,147.8912 C3.4818,147.8912 3.4818,147.8912 3.4818,147.8912 Z M7.0830,147.8912 C7.0830,149.5718 7.0830,149.5718 7.0830,149.5718 C7.8032,150.7722 8.5235,151.4924 8.5235,153.8933 C8.5235,153.8933 8.2834,154.1333 8.2834,154.3734 C9.7239,154.3734 9.7239,154.3734 9.7239,154.3734 C9.7239,147.8912 9.7239,147.8912 9.7239,147.8912 C7.0830,147.8912 7.0830,147.8912 7.0830,147.8912 Z M10.6842,147.8912 C10.6842,149.5718 10.6842,149.5718 10.6842,149.5718 C11.4045,150.7722 12.1247,151.4924 12.1247,153.8933 C12.1247,153.8933 12.1247,154.1333 12.1247,154.3734 C13.3251,154.3734 13.3251,154.3734 13.3251,154.3734 C13.3251,147.8912 13.3251,147.8912 13.3251,147.8912 C10.6842,147.8912 10.6842,147.8912 10.6842,147.8912 Z M14.2854,147.8912 C14.2854,149.5718 14.2854,149.5718 14.2854,149.5718 C15.2458,150.7722 15.7259,151.4924 15.7259,153.8933 C15.7259,153.8933 15.7259,154.1333 15.7259,154.3734 C16.9263,154.3734 16.9263,154.3734 16.9263,154.3734 C16.9263,147.8912 16.9263,147.8912 16.9263,147.8912 C14.2854,147.8912 14.2854,147.8912 14.2854,147.8912 Z M17.8867,147.8912 C17.8867,149.5718 17.8867,149.5718 17.8867,149.5718 C18.8470,150.7722 19.3271,151.4924 19.3271,153.8933 C19.3271,153.8933 19.3271,154.1333 19.3271,154.3734 C20.7676,154.3734 20.7676,154.3734 20.7676,154.3734 C20.7676,147.8912 20.7676,147.8912 20.7676,147.8912 C17.8867,147.8912 17.8867,147.8912 17.8867,147.8912 Z M21.7280,147.8912 C21.7280,149.5718 21.7280,149.5718 21.7280,149.5718 C22.4482,150.7722 22.9284,151.4924 22.9284,153.8933 C22.9284,153.8933 22.9284,154.1333 22.9284,154.3734 C24.3689,154.3734 24.3689,154.3734 24.3689,154.3734 C24.3689,147.8912 24.3689,147.8912 24.3689,147.8912 C21.7280,147.8912 21.7280,147.8912 21.7280,147.8912 Z M17.8867,159.6552 C17.8867,161.0957 17.8867,161.0957 17.8867,161.0957 C18.8470,162.2961 19.3271,163.2564 19.3271,165.4172 C19.3271,165.6572 19.3271,165.8973 19.3271,166.1374 C20.7676,166.1374 20.7676,166.1374 20.7676,166.1374 C20.7676,159.6552 20.7676,159.6552 20.7676,159.6552 C17.8867,159.6552 17.8867,159.6552 17.8867,159.6552 Z M21.7280,159.6552 C21.7280,161.0957 21.7280,161.0957 21.7280,161.0957 C22.4482,162.2961 22.9284,163.2564 22.9284,165.4172 C22.9284,165.6572 22.9284,165.8973 22.9284,166.1374 C24.3689,166.1374 24.3689,166.1374 24.3689,166.1374 C24.3689,159.6552 24.3689,159.6552 24.3689,159.6552 C21.7280,159.6552 21.7280,159.6552 21.7280,159.6552 Z M25.3292,159.6552 C25.3292,161.0957 25.3292,161.0957 25.3292,161.0957 C26.0494,162.2961 26.5296,163.2564 26.5296,165.4172 C26.5296,165.6572 26.5296,165.8973 26.5296,166.1374 C27.9701,166.1374 27.9701,166.1374 27.9701,166.1374 C27.9701,159.6552 27.9701,159.6552 27.9701,159.6552 C25.3292,159.6552 25.3292,159.6552 25.3292,159.6552 Z M28.9304,159.6552 C28.9304,161.0957 28.9304,161.0957 28.9304,161.0957 C29.6506,162.2961 30.3709,163.2564 30.3709,165.4172 C30.3709,165.6572 30.1308,165.8973 30.1308,166.1374 C31.5713,166.1374 31.5713,166.1374 31.5713,166.1374 C31.5713,159.6552 31.5713,159.6552 31.5713,159.6552 C28.9304,159.6552 28.9304,159.6552 28.9304,159.6552 Z M32.5316,159.6552 C32.5316,161.0957 32.5316,161.0957 32.5316,161.0957 C33.2519,162.2961 33.9721,163.2564 33.9721,165.4172 C33.9721,165.6572 33.9721,165.8973 33.9721,166.1374 C35.1725,166.1374 35.1725,166.1374 35.1725,166.1374 C35.1725,159.6552 35.1725,159.6552 35.1725,159.6552 C32.5316,159.6552 32.5316,159.6552 32.5316,159.6552 Z M36.1328,159.6552 C36.1328,161.0957 36.1328,161.0957 36.1328,161.0957 C37.0932,162.2961 37.5733,163.2564 37.5733,165.4172 C37.5733,165.6572 37.5733,165.8973 37.5733,166.1374 C38.7737,166.1374 38.7737,166.1374 38.7737,166.1374 C38.7737,159.6552 38.7737,159.6552 38.7737,159.6552 C36.1328,159.6552 36.1328,159.6552 36.1328,159.6552 Z M39.7340,159.6552 C39.7340,161.0957 39.7340,161.0957 39.7340,161.0957 C40.6944,162.2961 41.1745,163.2564 41.1745,165.4172 C41.1745,165.6572 41.1745,165.8973 41.1745,166.1374 C42.3749,166.1374 42.3749,166.1374 42.3749,166.1374 C42.3749,159.6552 42.3749,159.6552 42.3749,159.6552 C39.7340,159.6552 39.7340,159.6552 39.7340,159.6552 Z M3.4818,159.6552 C3.4818,161.0957 3.4818,161.0957 3.4818,161.0957 C4.2020,162.2961 4.6822,163.2564 4.6822,165.4172 C4.6822,165.6572 4.6822,165.8973 4.6822,166.1374 C6.1227,166.1374 6.1227,166.1374 6.1227,166.1374 C6.1227,159.6552 6.1227,159.6552 6.1227,159.6552 C3.4818,159.6552 3.4818,159.6552 3.4818,159.6552 Z M7.0830,159.6552 C7.0830,161.0957 7.0830,161.0957 7.0830,161.0957 C7.8032,162.2961 8.5235,163.2564 8.5235,165.4172 C8.5235,165.6572 8.2834,165.8973 8.2834,166.1374 C9.7239,166.1374 9.7239,166.1374 9.7239,166.1374 C9.7239,159.6552 9.7239,159.6552 9.7239,159.6552 C7.0830,159.6552 7.0830,159.6552 7.0830,159.6552 Z M10.6842,159.6552 C10.6842,161.0957 10.6842,161.0957 10.6842,161.0957 C11.4045,162.2961 12.1247,163.2564 12.1247,165.4172 C12.1247,165.6572 12.1247,165.8973 12.1247,166.1374 C13.3251,166.1374 13.3251,166.1374 13.3251,166.1374 C13.3251,159.6552 13.3251,159.6552 13.3251,159.6552 C10.6842,159.6552 10.6842,159.6552 10.6842,159.6552 Z M14.2854,159.6552 C14.2854,161.0957 14.2854,161.0957 14.2854,161.0957 C15.2458,162.2961 15.7259,163.2564 15.7259,165.4172 C15.7259,165.6572 15.7259,165.8973 15.7259,166.1374 C16.9263,166.1374 16.9263,166.1374 16.9263,166.1374 C16.9263,159.6552 16.9263,159.6552 16.9263,159.6552 C14.2854,159.6552 14.2854,159.6552 14.2854,159.6552 Z M17.8867,124.8434 C17.8867,126.2839 17.8867,126.2839 17.8867,126.2839 C18.8470,127.4843 19.3271,128.2046 19.3271,130.6054 C19.3271,130.8455 19.3271,130.8455 19.3271,131.0855 C20.7676,131.0855 20.7676,131.0855 20.7676,131.0855 C20.7676,124.8434 20.7676,124.8434 20.7676,124.8434 C17.8867,124.8434 17.8867,124.8434 17.8867,124.8434 Z M21.7280,124.8434 C21.7280,126.2839 21.7280,126.2839 21.7280,126.2839 C22.4482,127.4843 22.9284,128.2046 22.9284,130.6054 C22.9284,130.8455 22.9284,130.8455 22.9284,131.0855 C24.3689,131.0855 24.3689,131.0855 24.3689,131.0855 C24.3689,124.8434 24.3689,124.8434 24.3689,124.8434 C21.7280,124.8434 21.7280,124.8434 21.7280,124.8434 Z M25.3292,124.8434 C25.3292,126.2839 25.3292,126.2839 25.3292,126.2839 C26.0494,127.4843 26.5296,128.2046 26.5296,130.6054 C26.5296,130.8455 26.5296,130.8455 26.5296,131.0855 C27.9701,131.0855 27.9701,131.0855 27.9701,131.0855 C27.9701,124.8434 27.9701,124.8434 27.9701,124.8434 C25.3292,124.8434 25.3292,124.8434 25.3292,124.8434 Z M28.9304,124.8434 C28.9304,126.2839 28.9304,126.2839 28.9304,126.2839 C29.6506,127.4843 30.3709,128.2046 30.3709,130.6054 C30.3709,130.8455 30.1308,130.8455 30.1308,131.0855 C31.5713,131.0855 31.5713,131.0855 31.5713,131.0855 C31.5713,124.8434 31.5713,124.8434 31.5713,124.8434 C28.9304,124.8434 28.9304,124.8434 28.9304,124.8434 Z M32.5316,124.8434 C32.5316,126.2839 32.5316,126.2839 32.5316,126.2839 C33.2519,127.4843 33.9721,128.2046 33.9721,130.6054 C33.9721,130.8455 33.9721,130.8455 33.9721,131.0855 C35.1725,131.0855 35.1725,131.0855 35.1725,131.0855 C35.1725,124.8434 35.1725,124.8434 35.1725,124.8434 C32.5316,124.8434 32.5316,124.8434 32.5316,124.8434 Z M36.1328,124.8434 C36.1328,126.2839 36.1328,126.2839 36.1328,126.2839 C37.0932,127.4843 37.5733,128.2046 37.5733,130.6054 C37.5733,130.8455 37.5733,130.8455 37.5733,131.0855 C38.7737,131.0855 38.7737,131.0855 38.7737,131.0855 C38.7737,124.8434 38.7737,124.8434 38.7737,124.8434 C36.1328,124.8434 36.1328,124.8434 36.1328,124.8434 Z M39.7340,124.8434 C39.7340,126.2839 39.7340,126.2839 39.7340,126.2839 C40.6944,127.4843 41.1745,128.2046 41.1745,130.6054 C41.1745,130.8455 41.1745,130.8455 41.1745,131.0855 C42.3749,131.0855 42.3749,131.0855 42.3749,131.0855 C42.3749,124.8434 42.3749,124.8434 42.3749,124.8434 C39.7340,124.8434 39.7340,124.8434 39.7340,124.8434 Z M3.4818,124.8434 C3.4818,126.2839 3.4818,126.2839 3.4818,126.2839 C4.2020,127.4843 4.6822,128.2046 4.6822,130.6054 C4.6822,130.8455 4.6822,130.8455 4.6822,131.0855 C6.1227,131.0855 6.1227,131.0855 6.1227,131.0855 C6.1227,124.8434 6.1227,124.8434 6.1227,124.8434 C3.4818,124.8434 3.4818,124.8434 3.4818,124.8434 Z M7.0830,124.8434 C7.0830,126.2839 7.0830,126.2839 7.0830,126.2839 C7.8032,127.4843 8.5235,128.2046 8.5235,130.6054 C8.5235,130.8455 8.2834,130.8455 8.2834,131.0855 C9.7239,131.0855 9.7239,131.0855 9.7239,131.0855 C9.7239,124.8434 9.7239,124.8434 9.7239,124.8434 C7.0830,124.8434 7.0830,124.8434 7.0830,124.8434 Z M10.6842,124.8434 C10.6842,126.2839 10.6842,126.2839 10.6842,126.2839 C11.4045,127.4843 12.1247,128.2046 12.1247,130.6054 C12.1247,130.8455 12.1247,130.8455 12.1247,131.0855 C13.3251,131.0855 13.3251,131.0855 13.3251,131.0855 C13.3251,124.8434 13.3251,124.8434 13.3251,124.8434 C10.6842,124.8434 10.6842,124.8434 10.6842,124.8434 Z M14.2854,124.8434 C14.2854,126.2839 14.2854,126.2839 14.2854,126.2839 C15.2458,127.4843 15.7259,128.2046 15.7259,130.6054 C15.7259,130.8455 15.7259,130.8455 15.7259,131.0855 C16.9263,131.0855 16.9263,131.0855 16.9263,131.0855 C16.9263,124.8434 16.9263,124.8434 16.9263,124.8434 C14.2854,124.8434 14.2854,124.8434 14.2854,124.8434 Z M17.8867,136.3673 C17.8867,137.8078 17.8867,137.8078 17.8867,137.8078 C18.8470,139.2483 19.3271,139.9685 19.3271,142.1293 C19.3271,142.3694 19.3271,142.6094 19.3271,142.8495 C20.7676,142.8495 20.7676,142.8495 20.7676,142.8495 C20.7676,136.3673 20.7676,136.3673 20.7676,136.3673 C17.8867,136.3673 17.8867,136.3673 17.8867,136.3673 Z M21.7280,136.3673 C21.7280,137.8078 21.7280,137.8078 21.7280,137.8078 C22.4482,139.2483 22.9284,139.9685 22.9284,142.1293 C22.9284,142.3694 22.9284,142.6094 22.9284,142.8495 C24.3689,142.8495 24.3689,142.8495 24.3689,142.8495 C24.3689,136.3673 24.3689,136.3673 24.3689,136.3673 C21.7280,136.3673 21.7280,136.3673 21.7280,136.3673 Z M25.3292,136.3673 C25.3292,137.8078 25.3292,137.8078 25.3292,137.8078 C26.0494,139.2483 26.5296,139.9685 26.5296,142.1293 C26.5296,142.3694 26.5296,142.6094 26.5296,142.8495 C27.9701,142.8495 27.9701,142.8495 27.9701,142.8495 C27.9701,136.3673 27.9701,136.3673 27.9701,136.3673 C25.3292,136.3673 25.3292,136.3673 25.3292,136.3673 Z M28.9304,136.3673 C28.9304,137.8078 28.9304,137.8078 28.9304,137.8078 C29.6506,139.2483 30.3709,139.9685 30.3709,142.1293 C30.3709,142.3694 30.1308,142.6094 30.1308,142.8495 C31.5713,142.8495 31.5713,142.8495 31.5713,142.8495 C31.5713,136.3673 31.5713,136.3673 31.5713,136.3673 C28.9304,136.3673 28.9304,136.3673 28.9304,136.3673 Z M32.5316,136.3673 C32.5316,137.8078 32.5316,137.8078 32.5316,137.8078 C33.2519,139.2483 33.9721,139.9685 33.9721,142.1293 C33.9721,142.3694 33.9721,142.6094 33.9721,142.8495 C35.1725,142.8495 35.1725,142.8495 35.1725,142.8495 C35.1725,136.3673 35.1725,136.3673 35.1725,136.3673 C32.5316,136.3673 32.5316,136.3673 32.5316,136.3673 Z M36.1328,136.3673 C36.1328,137.8078 36.1328,137.8078 36.1328,137.8078 C37.0932,139.2483 37.5733,139.9685 37.5733,142.1293 C37.5733,142.3694 37.5733,142.6094 37.5733,142.8495 C38.7737,142.8495 38.7737,142.8495 38.7737,142.8495 C38.7737,136.3673 38.7737,136.3673 38.7737,136.3673 C36.1328,136.3673 36.1328,136.3673 36.1328,136.3673 Z M39.7340,136.3673 C39.7340,137.8078 39.7340,137.8078 39.7340,137.8078 C40.6944,139.2483 41.1745,139.9685 41.1745,142.1293 C41.1745,142.3694 41.1745,142.6094 41.1745,142.8495 C42.3749,142.8495 42.3749,142.8495 42.3749,142.8495 C42.3749,136.3673 42.3749,136.3673 42.3749,136.3673 C39.7340,136.3673 39.7340,136.3673 39.7340,136.3673 Z M3.4818,136.3673 C3.4818,137.8078 3.4818,137.8078 3.4818,137.8078 C4.2020,139.2483 4.6822,139.9685 4.6822,142.1293 C4.6822,142.3694 4.6822,142.6094 4.6822,142.8495 C6.1227,142.8495 6.1227,142.8495 6.1227,142.8495 C6.1227,136.3673 6.1227,136.3673 6.1227,136.3673 C3.4818,136.3673 3.4818,136.3673 3.4818,136.3673 Z M7.0830,136.3673 C7.0830,137.8078 7.0830,137.8078 7.0830,137.8078 C7.8032,139.2483 8.5235,139.9685 8.5235,142.1293 C8.5235,142.3694 8.2834,142.6094 8.2834,142.8495 C9.7239,142.8495 9.7239,142.8495 9.7239,142.8495 C9.7239,136.3673 9.7239,136.3673 9.7239,136.3673 C7.0830,136.3673 7.0830,136.3673 7.0830,136.3673 Z M10.6842,136.3673 C10.6842,137.8078 10.6842,137.8078 10.6842,137.8078 C11.4045,139.2483 12.1247,139.9685 12.1247,142.1293 C12.1247,142.3694 12.1247,142.6094 12.1247,142.8495 C13.3251,142.8495 13.3251,142.8495 13.3251,142.8495 C13.3251,136.3673 13.3251,136.3673 13.3251,136.3673 C10.6842,136.3673 10.6842,136.3673 10.6842,136.3673 Z M14.2854,136.3673 C14.2854,137.8078 14.2854,137.8078 14.2854,137.8078 C15.2458,139.2483 15.7259,139.9685 15.7259,142.1293 C15.7259,142.3694 15.7259,142.6094 15.7259,142.8495 C16.9263,142.8495 16.9263,142.8495 16.9263,142.8495 C16.9263,136.3673 16.9263,136.3673 16.9263,136.3673 C14.2854,136.3673 14.2854,136.3673 14.2854,136.3673 Z M3.4818,101.5556 C3.4818,102.9960 3.4818,102.9960 3.4818,102.9960 C4.2020,104.1964 4.6822,104.9167 4.6822,107.3175 C4.6822,107.5576 4.6822,107.5576 4.6822,107.7977 C6.1227,107.7977 6.1227,107.7977 6.1227,107.7977 C6.1227,101.5556 6.1227,101.5556 6.1227,101.5556 C3.4818,101.5556 3.4818,101.5556 3.4818,101.5556 Z M7.0830,101.5556 C7.0830,102.9960 7.0830,102.9960 7.0830,102.9960 C7.8032,104.1964 8.5235,104.9167 8.5235,107.3175 C8.5235,107.5576 8.2834,107.5576 8.2834,107.7977 C9.7239,107.7977 9.7239,107.7977 9.7239,107.7977 C9.7239,101.5556 9.7239,101.5556 9.7239,101.5556 C7.0830,101.5556 7.0830,101.5556 7.0830,101.5556 Z M10.6842,101.5556 C10.6842,102.9960 10.6842,102.9960 10.6842,102.9960 C11.4045,104.1964 12.1247,104.9167 12.1247,107.3175 C12.1247,107.5576 12.1247,107.5576 12.1247,107.7977 C13.3251,107.7977 13.3251,107.7977 13.3251,107.7977 C13.3251,101.5556 13.3251,101.5556 13.3251,101.5556 C10.6842,101.5556 10.6842,101.5556 10.6842,101.5556 Z M14.2854,101.5556 C14.2854,102.9960 14.2854,102.9960 14.2854,102.9960 C15.2458,104.1964 15.7259,104.9167 15.7259,107.3175 C15.7259,107.5576 15.7259,107.5576 15.7259,107.7977 C16.9263,107.7977 16.9263,107.7977 16.9263,107.7977 C16.9263,101.5556 16.9263,101.5556 16.9263,101.5556 C14.2854,101.5556 14.2854,101.5556 14.2854,101.5556 Z M17.8867,101.5556 C17.8867,102.9960 17.8867,102.9960 17.8867,102.9960 C18.8470,104.1964 19.3271,104.9167 19.3271,107.3175 C19.3271,107.5576 19.3271,107.5576 19.3271,107.7977 C20.7676,107.7977 20.7676,107.7977 20.7676,107.7977 C20.7676,101.5556 20.7676,101.5556 20.7676,101.5556 C17.8867,101.5556 17.8867,101.5556 17.8867,101.5556 Z M21.7280,101.5556 C21.7280,102.9960 21.7280,102.9960 21.7280,102.9960 C22.4482,104.1964 22.9284,104.9167 22.9284,107.3175 C22.9284,107.5576 22.9284,107.5576 22.9284,107.7977 C24.3689,107.7977 24.3689,107.7977 24.3689,107.7977 C24.3689,101.5556 24.3689,101.5556 24.3689,101.5556 C21.7280,101.5556 21.7280,101.5556 21.7280,101.5556 Z M25.3292,101.5556 C25.3292,102.9960 25.3292,102.9960 25.3292,102.9960 C26.0494,104.1964 26.5296,104.9167 26.5296,107.3175 C26.5296,107.5576 26.5296,107.5576 26.5296,107.7977 C27.9701,107.7977 27.9701,107.7977 27.9701,107.7977 C27.9701,101.5556 27.9701,101.5556 27.9701,101.5556 C25.3292,101.5556 25.3292,101.5556 25.3292,101.5556 Z M28.9304,101.5556 C28.9304,102.9960 28.9304,102.9960 28.9304,102.9960 C29.6506,104.1964 30.3709,104.9167 30.3709,107.3175 C30.3709,107.5576 30.1308,107.5576 30.1308,107.7977 C31.5713,107.7977 31.5713,107.7977 31.5713,107.7977 C31.5713,101.5556 31.5713,101.5556 31.5713,101.5556 C28.9304,101.5556 28.9304,101.5556 28.9304,101.5556 Z M32.5316,101.5556 C32.5316,102.9960 32.5316,102.9960 32.5316,102.9960 C33.2519,104.1964 33.9721,104.9167 33.9721,107.3175 C33.9721,107.5576 33.9721,107.5576 33.9721,107.7977 C35.1725,107.7977 35.1725,107.7977 35.1725,107.7977 C35.1725,101.5556 35.1725,101.5556 35.1725,101.5556 C32.5316,101.5556 32.5316,101.5556 32.5316,101.5556 Z M36.1328,101.5556 C36.1328,102.9960 36.1328,102.9960 36.1328,102.9960 C37.0932,104.1964 37.5733,104.9167 37.5733,107.3175 C37.5733,107.5576 37.5733,107.5576 37.5733,107.7977 C38.7737,107.7977 38.7737,107.7977 38.7737,107.7977 C38.7737,101.5556 38.7737,101.5556 38.7737,101.5556 C36.1328,101.5556 36.1328,101.5556 36.1328,101.5556 Z M39.7340,101.5556 C39.7340,102.9960 39.7340,102.9960 39.7340,102.9960 C40.6944,104.1964 41.1745,104.9167 41.1745,107.3175 C41.1745,107.5576 41.1745,107.5576 41.1745,107.7977 C42.3749,107.7977 42.3749,107.7977 42.3749,107.7977 C42.3749,101.5556 42.3749,101.5556 42.3749,101.5556 C39.7340,101.5556 39.7340,101.5556 39.7340,101.5556 Z M21.7280,113.0795 C21.7280,114.5199 21.7280,114.5199 21.7280,114.5199 C22.4482,115.9604 22.9284,116.6807 22.9284,118.8414 C22.9284,119.0815 22.9284,119.3216 22.9284,119.5616 C24.3689,119.5616 24.3689,119.5616 24.3689,119.5616 C24.3689,113.0795 24.3689,113.0795 24.3689,113.0795 C21.7280,113.0795 21.7280,113.0795 21.7280,113.0795 Z M25.3292,113.0795 C25.3292,114.5199 25.3292,114.5199 25.3292,114.5199 C26.0494,115.9604 26.5296,116.6807 26.5296,118.8414 C26.5296,119.0815 26.5296,119.3216 26.5296,119.5616 C27.9701,119.5616 27.9701,119.5616 27.9701,119.5616 C27.9701,113.0795 27.9701,113.0795 27.9701,113.0795 C25.3292,113.0795 25.3292,113.0795 25.3292,113.0795 Z M28.9304,113.0795 C28.9304,114.5199 28.9304,114.5199 28.9304,114.5199 C29.6506,115.9604 30.3709,116.6807 30.3709,118.8414 C30.3709,119.0815 30.1308,119.3216 30.1308,119.5616 C31.5713,119.5616 31.5713,119.5616 31.5713,119.5616 C31.5713,113.0795 31.5713,113.0795 31.5713,113.0795 C28.9304,113.0795 28.9304,113.0795 28.9304,113.0795 Z M32.5316,113.0795 C32.5316,114.5199 32.5316,114.5199 32.5316,114.5199 C33.2519,115.9604 33.9721,116.6807 33.9721,118.8414 C33.9721,119.0815 33.9721,119.3216 33.9721,119.5616 C35.1725,119.5616 35.1725,119.5616 35.1725,119.5616 C35.1725,113.0795 35.1725,113.0795 35.1725,113.0795 C32.5316,113.0795 32.5316,113.0795 32.5316,113.0795 Z M36.1328,113.0795 C36.1328,114.5199 36.1328,114.5199 36.1328,114.5199 C37.0932,115.9604 37.5733,116.6807 37.5733,118.8414 C37.5733,119.0815 37.5733,119.3216 37.5733,119.5616 C38.7737,119.5616 38.7737,119.5616 38.7737,119.5616 C38.7737,113.0795 38.7737,113.0795 38.7737,113.0795 C36.1328,113.0795 36.1328,113.0795 36.1328,113.0795 Z M39.7340,113.0795 C39.7340,114.5199 39.7340,114.5199 39.7340,114.5199 C40.6944,115.9604 41.1745,116.6807 41.1745,118.8414 C41.1745,119.0815 41.1745,119.3216 41.1745,119.5616 C42.3749,119.5616 42.3749,119.5616 42.3749,119.5616 C42.3749,113.0795 42.3749,113.0795 42.3749,113.0795 C39.7340,113.0795 39.7340,113.0795 39.7340,113.0795 Z M3.4818,113.0795 C3.4818,114.5199 3.4818,114.5199 3.4818,114.5199 C4.2020,115.9604 4.6822,116.6807 4.6822,118.8414 C4.6822,119.0815 4.6822,119.3216 4.6822,119.5616 C6.1227,119.5616 6.1227,119.5616 6.1227,119.5616 C6.1227,113.0795 6.1227,113.0795 6.1227,113.0795 C3.4818,113.0795 3.4818,113.0795 3.4818,113.0795 Z M7.0830,113.0795 C7.0830,114.5199 7.0830,114.5199 7.0830,114.5199 C7.8032,115.9604 8.5235,116.6807 8.5235,118.8414 C8.5235,119.0815 8.2834,119.3216 8.2834,119.5616 C9.7239,119.5616 9.7239,119.5616 9.7239,119.5616 C9.7239,113.0795 9.7239,113.0795 9.7239,113.0795 C7.0830,113.0795 7.0830,113.0795 7.0830,113.0795 Z M10.6842,113.0795 C10.6842,114.5199 10.6842,114.5199 10.6842,114.5199 C11.4045,115.9604 12.1247,116.6807 12.1247,118.8414 C12.1247,119.0815 12.1247,119.3216 12.1247,119.5616 C13.3251,119.5616 13.3251,119.5616 13.3251,119.5616 C13.3251,113.0795 13.3251,113.0795 13.3251,113.0795 C10.6842,113.0795 10.6842,113.0795 10.6842,113.0795 Z M14.2854,113.0795 C14.2854,114.5199 14.2854,114.5199 14.2854,114.5199 C15.2458,115.9604 15.7259,116.6807 15.7259,118.8414 C15.7259,119.0815 15.7259,119.3216 15.7259,119.5616 C16.9263,119.5616 16.9263,119.5616 16.9263,119.5616 C16.9263,113.0795 16.9263,113.0795 16.9263,113.0795 C14.2854,113.0795 14.2854,113.0795 14.2854,113.0795 Z M17.8867,113.0795 C17.8867,114.5199 17.8867,114.5199 17.8867,114.5199 C18.8470,115.9604 19.3271,116.6807 19.3271,118.8414 C19.3271,119.0815 19.3271,119.3216 19.3271,119.5616 C20.7676,119.5616 20.7676,119.5616 20.7676,119.5616 C20.7676,113.0795 20.7676,113.0795 20.7676,113.0795 C17.8867,113.0795 17.8867,113.0795 17.8867,113.0795 Z" style="fill-rule: evenodd; fill: #7f7f7f; "/>
    <path xmlns="http://www.w3.org/2000/svg" d="  M11.6445,89.7916 C4.6822,90.0317 4.6822,90.2717 4.6822,90.7519 C4.6822,97.2341 4.6822,97.2341 4.6822,97.2341 C4.6822,97.7143 4.6822,97.9543 11.6445,98.1944 C15.4858,98.1944 20.0474,98.4345 22.9284,98.4345 C26.0494,98.4345 30.6110,98.1944 34.4523,98.1944 C41.4146,97.9543 41.4146,97.7143 41.4146,97.2341 C41.4146,90.7519 41.4146,90.7519 41.4146,90.7519 C41.4146,90.2717 41.4146,90.0317 34.4523,89.7916 C30.6110,89.5515 26.0494,89.5515 22.9284,89.5515 C20.0474,89.5515 15.4858,89.5515 11.6445,89.7916 Z M11.6445,78.1476 C4.6822,78.3877 4.6822,78.6278 4.6822,79.1080 C4.6822,85.5902 4.6822,85.5902 4.6822,85.5902 C4.6822,86.0703 4.6822,86.3104 11.6445,86.5505 C15.4858,86.5505 20.0474,86.7906 22.9284,86.7906 C26.0494,86.7906 30.6110,86.5505 34.4523,86.5505 C41.4146,86.3104 41.4146,86.0703 41.4146,85.5902 C41.4146,79.1080 41.4146,79.1080 41.4146,79.1080 C41.4146,78.6278 41.4146,78.3877 34.4523,78.1476 C30.6110,77.9076 26.0494,77.9076 22.9284,77.9076 C20.0474,77.9076 15.4858,77.9076 11.6445,78.1476 Z" style="fill-rule: evenodd; fill: #ffffff; "/>
    <path xmlns="http://www.w3.org/2000/svg" d="  M33.9721,82.2290 C33.9721,80.5484 33.7320,78.6278 33.2519,78.6278 C32.7717,78.6278 32.7717,78.6278 32.7717,78.6278 C32.5316,78.6278 32.2915,78.8679 32.2915,79.1080 C32.2915,85.5902 32.2915,85.5902 32.2915,85.5902 C32.2915,85.8302 32.5316,85.8302 32.7717,85.8302 C33.2519,85.8302 33.2519,85.8302 33.2519,85.8302 C33.7320,85.8302 33.9721,84.1497 33.9721,82.2290 Z M37.3332,82.2290 C37.3332,80.5484 36.8531,78.8679 36.3729,78.8679 C35.8928,78.8679 35.8928,78.8679 35.8928,78.8679 C35.6527,78.8679 35.6527,79.1080 35.6527,79.3480 C35.6527,85.3501 35.6527,85.3501 35.6527,85.3501 C35.6527,85.5902 35.6527,85.8302 35.8928,85.8302 C36.3729,85.8302 36.3729,85.8302 36.3729,85.8302 C36.8531,85.8302 37.3332,84.1497 37.3332,82.2290 Z M38.7737,85.3501 C38.7737,85.5902 39.0138,85.8302 39.2539,85.8302 C39.7340,85.8302 39.7340,85.8302 39.7340,85.8302 C40.2142,85.8302 40.4543,84.1497 40.4543,82.2290 C40.4543,80.5484 40.2142,78.8679 39.7340,78.8679 C39.2539,78.8679 39.2539,78.8679 39.2539,78.8679 C39.0138,78.8679 38.7737,79.1080 38.7737,79.3480 C38.7737,85.3501 38.7737,85.3501 38.7737,85.3501 Z M31.0911,85.3501 C31.0911,85.8302 30.8510,86.0703 30.3709,86.0703 C22.2081,86.0703 22.2081,86.0703 22.2081,86.0703 C21.7280,86.0703 21.4879,85.8302 21.4879,85.3501 C21.4879,81.9889 21.4879,81.9889 21.4879,81.9889 C21.4879,81.7489 21.7280,81.2687 22.2081,81.2687 C30.3709,81.2687 30.3709,81.2687 30.3709,81.2687 C30.8510,81.2687 31.0911,81.7489 31.0911,81.9889 C31.0911,85.3501 31.0911,85.3501 31.0911,85.3501 Z M20.2875,85.5902 C20.2875,85.8302 20.0474,86.0703 19.8073,86.0703 C19.3271,86.0703 19.3271,86.0703 19.3271,86.0703 C18.8470,86.0703 18.6069,84.1497 18.6069,82.2290 C18.6069,80.5484 18.8470,78.6278 19.3271,78.6278 C19.8073,78.6278 19.8073,78.6278 19.8073,78.6278 C20.0474,78.6278 20.2875,78.6278 20.2875,79.1080 C20.2875,85.5902 20.2875,85.5902 20.2875,85.5902 Z M15.2458,82.2290 C15.2458,80.5484 15.7259,78.6278 15.9660,78.6278 C16.6863,78.6278 16.6863,78.6278 16.6863,78.6278 C16.9263,78.6278 17.1664,78.8679 17.1664,79.1080 C17.1664,85.5902 17.1664,85.5902 17.1664,85.5902 C17.1664,85.8302 16.9263,86.0703 16.6863,86.0703 C15.9660,86.0703 15.9660,86.0703 15.9660,86.0703 C15.7259,86.0703 15.2458,84.1497 15.2458,82.2290 Z M12.1247,82.2290 C12.1247,80.5484 12.3648,78.6278 12.8450,78.6278 C13.3251,78.6278 13.3251,78.6278 13.3251,78.6278 C13.5652,78.6278 13.8053,78.8679 13.8053,79.1080 C13.8053,85.5902 13.8053,85.5902 13.8053,85.5902 C13.8053,85.8302 13.5652,85.8302 13.3251,85.8302 C12.8450,85.8302 12.8450,85.8302 12.8450,85.8302 C12.3648,85.8302 12.1247,84.1497 12.1247,82.2290 Z M8.7636,82.2290 C8.7636,80.5484 9.2437,78.8679 9.7239,78.8679 C10.2041,78.8679 10.2041,78.8679 10.2041,78.8679 C10.4441,78.8679 10.4441,79.1080 10.4441,79.3480 C10.4441,85.3501 10.4441,85.3501 10.4441,85.3501 C10.4441,85.5902 10.4441,85.8302 10.2041,85.8302 C9.7239,85.8302 9.7239,85.8302 9.7239,85.8302 C9.2437,85.8302 8.7636,84.1497 8.7636,82.2290 Z M7.3231,85.3501 C7.3231,85.5902 7.0830,85.8302 6.8429,85.8302 C6.3628,85.8302 6.3628,85.8302 6.3628,85.8302 C5.8826,85.8302 5.6425,84.1497 5.6425,82.2290 C5.6425,80.5484 5.8826,78.8679 6.3628,78.8679 C6.8429,78.8679 6.8429,78.8679 6.8429,78.8679 C7.0830,78.8679 7.3231,79.1080 7.3231,79.3480 C7.3231,85.3501 7.3231,85.3501 7.3231,85.3501 Z M33.9721,93.8730 C33.9721,92.1924 33.7320,90.2717 33.2519,90.2717 C32.7717,90.2717 32.7717,90.2717 32.7717,90.2717 C32.5316,90.2717 32.2915,90.5118 32.2915,90.7519 C32.2915,97.2341 32.2915,97.2341 32.2915,97.2341 C32.2915,97.4742 32.5316,97.4742 32.7717,97.4742 C33.2519,97.4742 33.2519,97.4742 33.2519,97.4742 C33.7320,97.4742 33.9721,95.7936 33.9721,93.8730 Z M37.3332,93.8730 C37.3332,92.1924 36.8531,90.5118 36.3729,90.5118 C35.8928,90.5118 35.8928,90.5118 35.8928,90.5118 C35.6527,90.5118 35.6527,90.7519 35.6527,90.9920 C35.6527,96.9940 35.6527,96.9940 35.6527,96.9940 C35.6527,97.2341 35.6527,97.4742 35.8928,97.4742 C36.3729,97.4742 36.3729,97.4742 36.3729,97.4742 C36.8531,97.4742 37.3332,95.7936 37.3332,93.8730 Z M38.7737,96.9940 C38.7737,97.2341 39.0138,97.4742 39.2539,97.4742 C39.7340,97.4742 39.7340,97.4742 39.7340,97.4742 C40.2142,97.4742 40.4543,95.7936 40.4543,93.8730 C40.4543,92.1924 40.2142,90.5118 39.7340,90.5118 C39.2539,90.5118 39.2539,90.5118 39.2539,90.5118 C39.0138,90.5118 38.7737,90.7519 38.7737,90.9920 C38.7737,96.9940 38.7737,96.9940 38.7737,96.9940 Z M31.0911,96.9940 C31.0911,97.4742 30.8510,97.7143 30.3709,97.7143 C22.2081,97.7143 22.2081,97.7143 22.2081,97.7143 C21.7280,97.7143 21.4879,97.4742 21.4879,96.9940 C21.4879,93.6329 21.4879,93.6329 21.4879,93.6329 C21.4879,93.3928 21.7280,92.9126 22.2081,92.9126 C30.3709,92.9126 30.3709,92.9126 30.3709,92.9126 C30.8510,92.9126 31.0911,93.3928 31.0911,93.6329 C31.0911,96.9940 31.0911,96.9940 31.0911,96.9940 Z M20.2875,97.2341 C20.2875,97.4742 20.0474,97.7143 19.8073,97.7143 C19.3271,97.7143 19.3271,97.7143 19.3271,97.7143 C18.8470,97.7143 18.6069,95.7936 18.6069,93.8730 C18.6069,92.1924 18.8470,90.2717 19.3271,90.2717 C19.8073,90.2717 19.8073,90.2717 19.8073,90.2717 C20.0474,90.2717 20.2875,90.2717 20.2875,90.7519 C20.2875,97.2341 20.2875,97.2341 20.2875,97.2341 Z M15.2458,93.8730 C15.2458,92.1924 15.7259,90.2717 15.9660,90.2717 C16.6863,90.2717 16.6863,90.2717 16.6863,90.2717 C16.9263,90.2717 17.1664,90.5118 17.1664,90.7519 C17.1664,97.2341 17.1664,97.2341 17.1664,97.2341 C17.1664,97.4742 16.9263,97.7143 16.6863,97.7143 C15.9660,97.7143 15.9660,97.7143 15.9660,97.7143 C15.7259,97.7143 15.2458,95.7936 15.2458,93.8730 Z M12.1247,93.8730 C12.1247,92.1924 12.3648,90.2717 12.8450,90.2717 C13.3251,90.2717 13.3251,90.2717 13.3251,90.2717 C13.5652,90.2717 13.8053,90.5118 13.8053,90.7519 C13.8053,97.2341 13.8053,97.2341 13.8053,97.2341 C13.8053,97.4742 13.5652,97.4742 13.3251,97.4742 C12.8450,97.4742 12.8450,97.4742 12.8450,97.4742 C12.3648,97.4742 12.1247,95.7936 12.1247,93.8730 Z M8.7636,93.8730 C8.7636,92.1924 9.2437,90.5118 9.7239,90.5118 C10.2041,90.5118 10.2041,90.5118 10.2041,90.5118 C10.4441,90.5118 10.4441,90.7519 10.4441,90.9920 C10.4441,96.9940 10.4441,96.9940 10.4441,96.9940 C10.4441,97.2341 10.4441,97.4742 10.2041,97.4742 C9.7239,97.4742 9.7239,97.4742 9.7239,97.4742 C9.2437,97.4742 8.7636,95.7936 8.7636,93.8730 Z M7.3231,96.9940 C7.3231,97.2341 7.0830,97.4742 6.8429,97.4742 C6.3628,97.4742 6.3628,97.4742 6.3628,97.4742 C5.8826,97.4742 5.6425,95.7936 5.6425,93.8730 C5.6425,92.1924 5.8826,90.5118 6.3628,90.5118 C6.8429,90.5118 6.8429,90.5118 6.8429,90.5118 C7.0830,90.5118 7.3231,90.7519 7.3231,90.9920 C7.3231,96.9940 7.3231,96.9940 7.3231,96.9940 Z" style="fill-rule: evenodd; fill: #000000; "/>
    <path xmlns="http://www.w3.org/2000/svg" d="  M30.1308,85.5902 C30.1308,85.8302 29.8907,86.0703 29.6506,86.0703 C22.9284,86.0703 22.9284,86.0703 22.9284,86.0703 C22.6883,86.0703 22.4482,85.8302 22.4482,85.5902 C22.4482,82.9493 22.4482,82.9493 22.4482,82.9493 C22.4482,82.4691 22.6883,82.2290 22.9284,82.2290 C29.6506,82.2290 29.6506,82.2290 29.6506,82.2290 C29.8907,82.2290 30.1308,82.4691 30.1308,82.9493 C30.1308,85.5902 30.1308,85.5902 30.1308,85.5902 Z M30.1308,97.2341 C30.1308,97.4742 29.8907,97.7143 29.6506,97.7143 C22.9284,97.7143 22.9284,97.7143 22.9284,97.7143 C22.6883,97.7143 22.4482,97.4742 22.4482,97.2341 C22.4482,94.5932 22.4482,94.5932 22.4482,94.5932 C22.4482,94.1130 22.6883,93.8730 22.9284,93.8730 C29.6506,93.8730 29.6506,93.8730 29.6506,93.8730 C29.8907,93.8730 30.1308,94.1130 30.1308,94.5932 C30.1308,97.2341 30.1308,97.2341 30.1308,97.2341 Z" style="fill-rule: evenodd; fill: #9a9a9a; "/>
    <path xmlns="http://www.w3.org/2000/svg" d="  M29.4106,85.3501 C29.4106,85.5902 29.1705,85.5902 28.9304,85.5902 C23.6486,85.5902 23.6486,85.5902 23.6486,85.5902 C23.4085,85.5902 23.1684,85.5902 23.1684,85.3501 C23.1684,83.6695 23.1684,83.6695 23.1684,83.6695 C23.1684,83.4294 23.4085,83.1893 23.6486,83.1893 C28.9304,83.1893 28.9304,83.1893 28.9304,83.1893 C29.1705,83.1893 29.4106,83.4294 29.4106,83.6695 C29.4106,85.3501 29.4106,85.3501 29.4106,85.3501 Z M25.3292,86.0703 C25.3292,86.3104 25.3292,86.3104 25.0891,86.3104 C24.6089,86.3104 24.6089,86.3104 24.6089,86.3104 C24.3689,86.3104 24.3689,86.3104 24.3689,86.0703 C24.3689,86.0703 24.3689,86.0703 24.6089,86.0703 C25.0891,86.0703 25.0891,86.0703 25.0891,86.0703 C25.3292,86.0703 25.3292,86.0703 25.3292,86.0703 Z M26.7697,86.0703 C26.7697,86.3104 26.7697,86.3104 26.5296,86.3104 C26.0494,86.3104 26.0494,86.3104 26.0494,86.3104 C25.8093,86.3104 25.8093,86.3104 25.8093,86.0703 C25.8093,86.0703 25.8093,86.0703 26.0494,86.0703 C26.5296,86.0703 26.5296,86.0703 26.5296,86.0703 C26.7697,86.0703 26.7697,86.0703 26.7697,86.0703 Z M28.2102,86.0703 C28.2102,86.3104 28.2102,86.3104 27.9701,86.3104 C27.4899,86.3104 27.4899,86.3104 27.4899,86.3104 C27.2498,86.3104 27.2498,86.3104 27.2498,86.0703 C27.2498,86.0703 27.2498,86.0703 27.4899,86.0703 C27.9701,86.0703 27.9701,86.0703 27.9701,86.0703 C28.2102,86.0703 28.2102,86.0703 28.2102,86.0703 Z M29.4106,96.9940 C29.4106,97.2341 29.1705,97.2341 28.9304,97.2341 C23.6486,97.2341 23.6486,97.2341 23.6486,97.2341 C23.4085,97.2341 23.1684,97.2341 23.1684,96.9940 C23.1684,95.3134 23.1684,95.3134 23.1684,95.3134 C23.1684,95.0734 23.4085,94.8333 23.6486,94.8333 C28.9304,94.8333 28.9304,94.8333 28.9304,94.8333 C29.1705,94.8333 29.4106,95.0734 29.4106,95.3134 C29.4106,96.9940 29.4106,96.9940 29.4106,96.9940 Z M25.3292,97.7143 C25.3292,97.9543 25.3292,97.9543 25.0891,97.9543 C24.6089,97.9543 24.6089,97.9543 24.6089,97.9543 C24.3689,97.9543 24.3689,97.9543 24.3689,97.7143 C24.3689,97.7143 24.3689,97.7143 24.6089,97.7143 C25.0891,97.7143 25.0891,97.7143 25.0891,97.7143 C25.3292,97.7143 25.3292,97.7143 25.3292,97.7143 Z M26.7697,97.7143 C26.7697,97.9543 26.7697,97.9543 26.5296,97.9543 C26.0494,97.9543 26.0494,97.9543 26.0494,97.9543 C25.8093,97.9543 25.8093,97.9543 25.8093,97.7143 C25.8093,97.7143 25.8093,97.7143 26.0494,97.7143 C26.5296,97.7143 26.5296,97.7143 26.5296,97.7143 C26.7697,97.7143 26.7697,97.7143 26.7697,97.7143 Z M28.2102,97.7143 C28.2102,97.9543 28.2102,97.9543 27.9701,97.9543 C27.4899,97.9543 27.4899,97.9543 27.4899,97.9543 C27.2498,97.9543 27.2498,97.9543 27.2498,97.7143 C27.2498,97.7143 27.2498,97.7143 27.4899,97.7143 C27.9701,97.7143 27.9701,97.7143 27.9701,97.7143 C28.2102,97.7143 28.2102,97.7143 28.2102,97.7143 Z" style="fill-rule: evenodd; fill: #000000; "/>
    <text xmlns="http://www.w3.org/2000/svg" x="6.0055" y="179.0143">
      <tspan font-family="Arial" font-size="4.5000" fill="#000000" fill-opacity="1.0000" stroke-opacity="1.0000">
VTL1200 Series</tspan>
    </text>
    <!--converted by libvisio2svg-->
  </g>
</svg>
