<svg xmlns="http://www.w3.org/2000/svg" xmlns:xlink="http://www.w3.org/1999/xlink" version="1.1" width="7.2000000000" height="171.3600000000">
  <title><![CDATA[VTL600 Series racked]]></title>
  <g transform=" scale(1.000000) ">
    <path xmlns="http://www.w3.org/2000/svg" d="  M46.5166,1.8020 L-2.7000,1.8020 L-0.0591,-1.7992 L44.1158,-1.7992 L46.5166,1.8020 Z" style="fill-rule: evenodd; fill: #b3b3b3; "/>
    <path xmlns="http://www.w3.org/2000/svg" d="  M46.5166,1.8020 L-2.7000,1.8020 L-2.7000,173.2200 L46.5166,173.2200 L46.5166,1.8020 Z" style="fill-rule: evenodd; fill: #7f7f7f; "/>
    <g xmlns="http://www.w3.org/2000/svg" id="Layer1054">
      <path d="  M43.6357,5.8834 L0.4211,5.8834 L0.4211,17.6474 L43.6357,17.6474 L43.6357,5.8834 Z M43.6357,17.6474 L0.4211,17.6474 L0.4211,29.1713 L43.6357,29.1713 L43.6357,17.6474 Z M43.6357,29.1713 L0.4211,29.1713 L0.4211,40.9353 L43.6357,40.9353 L43.6357,29.1713 Z M43.6357,40.9353 L0.4211,40.9353 L0.4211,52.4592 L43.6357,52.4592 L43.6357,40.9353 Z M43.6357,52.4592 L0.4211,52.4592 L0.4211,64.2231 L43.6357,64.2231 L43.6357,52.4592 Z M43.6357,64.2231 L0.4211,64.2231 L0.4211,75.7470 L43.6357,75.7470 L43.6357,64.2231 Z M43.6357,75.9071 L0.4211,75.9071 L0.4211,87.4310 L43.6357,87.4310 L43.6357,75.9071 Z M43.6357,87.5910 L0.4211,87.5910 L0.4211,99.1149 L43.6357,99.1149 L43.6357,87.5910 Z M43.6357,99.2750 L0.4211,99.2750 L0.4211,110.7989 L43.6357,110.7989 L43.6357,99.2750 Z M43.6357,110.7989 L0.4211,110.7989 L0.4211,122.5629 L43.6357,122.5629 L43.6357,110.7989 Z M43.6357,122.5629 L0.4211,122.5629 L0.4211,134.0868 L43.6357,134.0868 L43.6357,122.5629 Z M43.6357,134.0868 L0.4211,134.0868 L0.4211,145.8507 L43.6357,145.8507 L43.6357,134.0868 Z M43.6357,145.8507 L0.4211,145.8507 L0.4211,157.3746 L43.6357,157.3746 L43.6357,145.8507 Z M43.6357,157.3746 L0.4211,157.3746 L0.4211,169.1386 L43.6357,169.1386 L43.6357,157.3746 Z" style="stroke-width: 0.0240; stroke-linecap: round; stroke-linejoin: round; fill-rule: evenodd; fill: #000000; "/>
      <path d="  M43.6357,5.8834 L0.4211,5.8834 L0.4211,17.6474 L43.6357,17.6474 L43.6357,5.8834 Z M43.6357,17.6474 L0.4211,17.6474 L0.4211,29.1713 L43.6357,29.1713 L43.6357,17.6474 Z M43.6357,29.1713 L0.4211,29.1713 L0.4211,40.9353 L43.6357,40.9353 L43.6357,29.1713 Z M43.6357,40.9353 L0.4211,40.9353 L0.4211,52.4592 L43.6357,52.4592 L43.6357,40.9353 Z M43.6357,52.4592 L0.4211,52.4592 L0.4211,64.2231 L43.6357,64.2231 L43.6357,52.4592 Z M43.6357,64.2231 L0.4211,64.2231 L0.4211,75.7470 L43.6357,75.7470 L43.6357,64.2231 Z M43.6357,75.9071 L0.4211,75.9071 L0.4211,87.4310 L43.6357,87.4310 L43.6357,75.9071 Z M43.6357,87.5910 L0.4211,87.5910 L0.4211,99.1149 L43.6357,99.1149 L43.6357,87.5910 Z M43.6357,99.2750 L0.4211,99.2750 L0.4211,110.7989 L43.6357,110.7989 L43.6357,99.2750 Z M43.6357,110.7989 L0.4211,110.7989 L0.4211,122.5629 L43.6357,122.5629 L43.6357,110.7989 Z M43.6357,122.5629 L0.4211,122.5629 L0.4211,134.0868 L43.6357,134.0868 L43.6357,122.5629 Z M43.6357,134.0868 L0.4211,134.0868 L0.4211,145.8507 L43.6357,145.8507 L43.6357,134.0868 Z M43.6357,145.8507 L0.4211,145.8507 L0.4211,157.3746 L43.6357,157.3746 L43.6357,145.8507 Z M43.6357,157.3746 L0.4211,157.3746 L0.4211,169.1386 L43.6357,169.1386 L43.6357,157.3746 Z" style="stroke-width: 0.0240; stroke: #ffffff; stroke-dasharray: none; stroke-linecap: round; stroke-linejoin: round; fill: none; "/>
    </g>
    <path xmlns="http://www.w3.org/2000/svg" d="  M10.7445,77.4676 C3.7822,77.7077 3.7822,77.9478 3.7822,78.4279 C3.7822,84.9101 3.7822,84.9101 3.7822,84.9101 C3.7822,85.3903 3.7822,85.6304 10.7445,85.8705 C14.5858,85.8705 19.1474,86.1105 22.0284,86.1105 C25.1494,86.1105 29.7110,85.8705 33.5523,85.8705 C40.5146,85.6304 40.5146,85.3903 40.5146,84.9101 C40.5146,78.4279 40.5146,78.4279 40.5146,78.4279 C40.5146,77.9478 40.5146,77.7077 33.5523,77.4676 C29.7110,77.2275 25.1494,77.2275 22.0284,77.2275 C19.1474,77.2275 14.5858,77.2275 10.7445,77.4676 Z" style="fill-rule: evenodd; fill: #ffffff; "/>
    <path xmlns="http://www.w3.org/2000/svg" d="  M33.0721,81.5490 C33.0721,79.8684 32.8320,77.9478 32.3519,77.9478 C31.8717,77.9478 31.8717,77.9478 31.8717,77.9478 C31.6316,77.9478 31.3915,78.1879 31.3915,78.4279 C31.3915,84.9101 31.3915,84.9101 31.3915,84.9101 C31.3915,85.1502 31.6316,85.1502 31.8717,85.1502 C32.3519,85.1502 32.3519,85.1502 32.3519,85.1502 C32.8320,85.1502 33.0721,83.4696 33.0721,81.5490 Z M36.4332,81.5490 C36.4332,79.8684 35.9531,78.1879 35.4729,78.1879 C34.9928,78.1879 34.9928,78.1879 34.9928,78.1879 C34.7527,78.1879 34.7527,78.4279 34.7527,78.6680 C34.7527,84.6700 34.7527,84.6700 34.7527,84.6700 C34.7527,84.9101 34.7527,85.1502 34.9928,85.1502 C35.4729,85.1502 35.4729,85.1502 35.4729,85.1502 C35.9531,85.1502 36.4332,83.4696 36.4332,81.5490 Z M37.8737,84.6700 C37.8737,84.9101 38.1138,85.1502 38.3539,85.1502 C38.8340,85.1502 38.8340,85.1502 38.8340,85.1502 C39.3142,85.1502 39.5543,83.4696 39.5543,81.5490 C39.5543,79.8684 39.3142,78.1879 38.8340,78.1879 C38.3539,78.1879 38.3539,78.1879 38.3539,78.1879 C38.1138,78.1879 37.8737,78.4279 37.8737,78.6680 C37.8737,84.6700 37.8737,84.6700 37.8737,84.6700 Z M30.1911,84.6700 C30.1911,85.1502 29.9510,85.3903 29.4709,85.3903 C21.3081,85.3903 21.3081,85.3903 21.3081,85.3903 C20.8280,85.3903 20.5879,85.1502 20.5879,84.6700 C20.5879,81.3089 20.5879,81.3089 20.5879,81.3089 C20.5879,81.0688 20.8280,80.5887 21.3081,80.5887 C29.4709,80.5887 29.4709,80.5887 29.4709,80.5887 C29.9510,80.5887 30.1911,81.0688 30.1911,81.3089 C30.1911,84.6700 30.1911,84.6700 30.1911,84.6700 Z M19.3875,84.9101 C19.3875,85.1502 19.1474,85.3903 18.9073,85.3903 C18.4271,85.3903 18.4271,85.3903 18.4271,85.3903 C17.9470,85.3903 17.7069,83.4696 17.7069,81.5490 C17.7069,79.8684 17.9470,77.9478 18.4271,77.9478 C18.9073,77.9478 18.9073,77.9478 18.9073,77.9478 C19.1474,77.9478 19.3875,77.9478 19.3875,78.4279 C19.3875,84.9101 19.3875,84.9101 19.3875,84.9101 Z M14.3458,81.5490 C14.3458,79.8684 14.8259,77.9478 15.0660,77.9478 C15.7863,77.9478 15.7863,77.9478 15.7863,77.9478 C16.0263,77.9478 16.2664,78.1879 16.2664,78.4279 C16.2664,84.9101 16.2664,84.9101 16.2664,84.9101 C16.2664,85.1502 16.0263,85.3903 15.7863,85.3903 C15.0660,85.3903 15.0660,85.3903 15.0660,85.3903 C14.8259,85.3903 14.3458,83.4696 14.3458,81.5490 Z M11.2247,81.5490 C11.2247,79.8684 11.4648,77.9478 11.9450,77.9478 C12.4251,77.9478 12.4251,77.9478 12.4251,77.9478 C12.6652,77.9478 12.9053,78.1879 12.9053,78.4279 C12.9053,84.9101 12.9053,84.9101 12.9053,84.9101 C12.9053,85.1502 12.6652,85.1502 12.4251,85.1502 C11.9450,85.1502 11.9450,85.1502 11.9450,85.1502 C11.4648,85.1502 11.2247,83.4696 11.2247,81.5490 Z M7.8636,81.5490 C7.8636,79.8684 8.3437,78.1879 8.8239,78.1879 C9.3041,78.1879 9.3041,78.1879 9.3041,78.1879 C9.5441,78.1879 9.5441,78.4279 9.5441,78.6680 C9.5441,84.6700 9.5441,84.6700 9.5441,84.6700 C9.5441,84.9101 9.5441,85.1502 9.3041,85.1502 C8.8239,85.1502 8.8239,85.1502 8.8239,85.1502 C8.3437,85.1502 7.8636,83.4696 7.8636,81.5490 Z M6.4231,84.6700 C6.4231,84.9101 6.1830,85.1502 5.9429,85.1502 C5.4628,85.1502 5.4628,85.1502 5.4628,85.1502 C4.9826,85.1502 4.7425,83.4696 4.7425,81.5490 C4.7425,79.8684 4.9826,78.1879 5.4628,78.1879 C5.9429,78.1879 5.9429,78.1879 5.9429,78.1879 C6.1830,78.1879 6.4231,78.4279 6.4231,78.6680 C6.4231,84.6700 6.4231,84.6700 6.4231,84.6700 Z" style="fill-rule: evenodd; fill: #000000; "/>
    <path xmlns="http://www.w3.org/2000/svg" d="  M29.2308,84.9101 C29.2308,85.1502 28.9907,85.3903 28.7506,85.3903 C22.0284,85.3903 22.0284,85.3903 22.0284,85.3903 C21.7883,85.3903 21.5482,85.1502 21.5482,84.9101 C21.5482,82.2692 21.5482,82.2692 21.5482,82.2692 C21.5482,81.7891 21.7883,81.5490 22.0284,81.5490 C28.7506,81.5490 28.7506,81.5490 28.7506,81.5490 C28.9907,81.5490 29.2308,81.7891 29.2308,82.2692 C29.2308,84.9101 29.2308,84.9101 29.2308,84.9101 Z" style="fill-rule: evenodd; fill: #9a9a9a; "/>
    <path xmlns="http://www.w3.org/2000/svg" d="  M28.5106,84.6700 C28.5106,84.9101 28.2705,84.9101 28.0304,84.9101 C22.7486,84.9101 22.7486,84.9101 22.7486,84.9101 C22.5085,84.9101 22.2684,84.9101 22.2684,84.6700 C22.2684,82.9895 22.2684,82.9895 22.2684,82.9895 C22.2684,82.7494 22.5085,82.5093 22.7486,82.5093 C28.0304,82.5093 28.0304,82.5093 28.0304,82.5093 C28.2705,82.5093 28.5106,82.7494 28.5106,82.9895 C28.5106,84.6700 28.5106,84.6700 28.5106,84.6700 Z M24.4292,85.3903 C24.4292,85.6304 24.4292,85.6304 24.1891,85.6304 C23.7089,85.6304 23.7089,85.6304 23.7089,85.6304 C23.4689,85.6304 23.4689,85.6304 23.4689,85.3903 C23.4689,85.3903 23.4689,85.3903 23.7089,85.3903 C24.1891,85.3903 24.1891,85.3903 24.1891,85.3903 C24.4292,85.3903 24.4292,85.3903 24.4292,85.3903 Z M25.8697,85.3903 C25.8697,85.6304 25.8697,85.6304 25.6296,85.6304 C25.1494,85.6304 25.1494,85.6304 25.1494,85.6304 C24.9093,85.6304 24.9093,85.6304 24.9093,85.3903 C24.9093,85.3903 24.9093,85.3903 25.1494,85.3903 C25.6296,85.3903 25.6296,85.3903 25.6296,85.3903 C25.8697,85.3903 25.8697,85.3903 25.8697,85.3903 Z M27.3102,85.3903 C27.3102,85.6304 27.3102,85.6304 27.0701,85.6304 C26.5899,85.6304 26.5899,85.6304 26.5899,85.6304 C26.3498,85.6304 26.3498,85.6304 26.3498,85.3903 C26.3498,85.3903 26.3498,85.3903 26.5899,85.3903 C27.0701,85.3903 27.0701,85.3903 27.0701,85.3903 C27.3102,85.3903 27.3102,85.3903 27.3102,85.3903 Z" style="fill-rule: evenodd; fill: #000000; "/>
    <path xmlns="http://www.w3.org/2000/svg" d="  M2.3417,19.3279 C2.3417,20.7684 2.3417,20.7684 2.3417,20.7684 C3.3020,21.9688 3.7822,22.6891 3.7822,25.0899 C3.7822,25.3300 3.7822,25.3300 3.7822,25.5701 C5.2227,25.5701 5.2227,25.5701 5.2227,25.5701 C5.2227,19.3279 5.2227,19.3279 5.2227,19.3279 C2.3417,19.3279 2.3417,19.3279 2.3417,19.3279 Z M6.1830,19.3279 C6.1830,20.7684 6.1830,20.7684 6.1830,20.7684 C6.9032,21.9688 7.3834,22.6891 7.3834,25.0899 C7.3834,25.3300 7.3834,25.3300 7.3834,25.5701 C8.8239,25.5701 8.8239,25.5701 8.8239,25.5701 C8.8239,19.3279 8.8239,19.3279 8.8239,19.3279 C6.1830,19.3279 6.1830,19.3279 6.1830,19.3279 Z M9.7842,19.3279 C9.7842,20.7684 9.7842,20.7684 9.7842,20.7684 C10.5045,21.9688 10.9846,22.6891 10.9846,25.0899 C10.9846,25.3300 10.9846,25.3300 10.9846,25.5701 C12.4251,25.5701 12.4251,25.5701 12.4251,25.5701 C12.4251,19.3279 12.4251,19.3279 12.4251,19.3279 C9.7842,19.3279 9.7842,19.3279 9.7842,19.3279 Z M13.3854,19.3279 C13.3854,20.7684 13.3854,20.7684 13.3854,20.7684 C14.1057,21.9688 14.8259,22.6891 14.8259,25.0899 C14.8259,25.3300 14.5858,25.3300 14.5858,25.5701 C16.0263,25.5701 16.0263,25.5701 16.0263,25.5701 C16.0263,19.3279 16.0263,19.3279 16.0263,19.3279 C13.3854,19.3279 13.3854,19.3279 13.3854,19.3279 Z M16.9867,19.3279 C16.9867,20.7684 16.9867,20.7684 16.9867,20.7684 C17.7069,21.9688 18.4271,22.6891 18.4271,25.0899 C18.4271,25.3300 18.4271,25.3300 18.4271,25.5701 C19.6276,25.5701 19.6276,25.5701 19.6276,25.5701 C19.6276,19.3279 19.6276,19.3279 19.6276,19.3279 C16.9867,19.3279 16.9867,19.3279 16.9867,19.3279 Z M20.5879,19.3279 C20.5879,20.7684 20.5879,20.7684 20.5879,20.7684 C21.5482,21.9688 22.0284,22.6891 22.0284,25.0899 C22.0284,25.3300 22.0284,25.3300 22.0284,25.5701 C23.2288,25.5701 23.2288,25.5701 23.2288,25.5701 C23.2288,19.3279 23.2288,19.3279 23.2288,19.3279 C20.5879,19.3279 20.5879,19.3279 20.5879,19.3279 Z M24.1891,19.3279 C24.1891,20.7684 24.1891,20.7684 24.1891,20.7684 C25.1494,21.9688 25.6296,22.6891 25.6296,25.0899 C25.6296,25.3300 25.6296,25.3300 25.6296,25.5701 C26.8300,25.5701 26.8300,25.5701 26.8300,25.5701 C26.8300,19.3279 26.8300,19.3279 26.8300,19.3279 C24.1891,19.3279 24.1891,19.3279 24.1891,19.3279 Z M28.0304,19.3279 C28.0304,20.7684 28.0304,20.7684 28.0304,20.7684 C28.7506,21.9688 29.2308,22.6891 29.2308,25.0899 C29.2308,25.3300 29.2308,25.3300 29.2308,25.5701 C30.6713,25.5701 30.6713,25.5701 30.6713,25.5701 C30.6713,19.3279 30.6713,19.3279 30.6713,19.3279 C28.0304,19.3279 28.0304,19.3279 28.0304,19.3279 Z M31.6316,19.3279 C31.6316,20.7684 31.6316,20.7684 31.6316,20.7684 C32.3519,21.9688 32.8320,22.6891 32.8320,25.0899 C32.8320,25.3300 32.8320,25.3300 32.8320,25.5701 C34.2725,25.5701 34.2725,25.5701 34.2725,25.5701 C34.2725,19.3279 34.2725,19.3279 34.2725,19.3279 C31.6316,19.3279 31.6316,19.3279 31.6316,19.3279 Z M35.2328,19.3279 C35.2328,20.7684 35.2328,20.7684 35.2328,20.7684 C35.9531,21.9688 36.4332,22.6891 36.4332,25.0899 C36.4332,25.3300 36.4332,25.3300 36.4332,25.5701 C37.8737,25.5701 37.8737,25.5701 37.8737,25.5701 C37.8737,19.3279 37.8737,19.3279 37.8737,19.3279 C35.2328,19.3279 35.2328,19.3279 35.2328,19.3279 Z M38.8340,19.3279 C38.8340,20.7684 38.8340,20.7684 38.8340,20.7684 C39.5543,21.9688 40.2745,22.6891 40.2745,25.0899 C40.2745,25.3300 40.2745,25.3300 40.2745,25.5701 C41.4749,25.5701 41.4749,25.5701 41.4749,25.5701 C41.4749,19.3279 41.4749,19.3279 41.4749,19.3279 C38.8340,19.3279 38.8340,19.3279 38.8340,19.3279 Z M2.3417,7.5640 C2.3417,9.0045 2.3417,9.0045 2.3417,9.0045 C3.3020,10.4449 3.7822,11.1652 3.7822,13.3259 C3.7822,13.5660 3.7822,13.8061 3.7822,14.0462 C5.2227,14.0462 5.2227,14.0462 5.2227,14.0462 C5.2227,7.5640 5.2227,7.5640 5.2227,7.5640 C2.3417,7.5640 2.3417,7.5640 2.3417,7.5640 Z M6.1830,7.5640 C6.1830,9.0045 6.1830,9.0045 6.1830,9.0045 C6.9032,10.4449 7.3834,11.1652 7.3834,13.3259 C7.3834,13.5660 7.3834,13.8061 7.3834,14.0462 C8.8239,14.0462 8.8239,14.0462 8.8239,14.0462 C8.8239,7.5640 8.8239,7.5640 8.8239,7.5640 C6.1830,7.5640 6.1830,7.5640 6.1830,7.5640 Z M9.7842,7.5640 C9.7842,9.0045 9.7842,9.0045 9.7842,9.0045 C10.5045,10.4449 10.9846,11.1652 10.9846,13.3259 C10.9846,13.5660 10.9846,13.8061 10.9846,14.0462 C12.4251,14.0462 12.4251,14.0462 12.4251,14.0462 C12.4251,7.5640 12.4251,7.5640 12.4251,7.5640 C9.7842,7.5640 9.7842,7.5640 9.7842,7.5640 Z M13.3854,7.5640 C13.3854,9.0045 13.3854,9.0045 13.3854,9.0045 C14.1057,10.4449 14.8259,11.1652 14.8259,13.3259 C14.8259,13.5660 14.5858,13.8061 14.5858,14.0462 C16.0263,14.0462 16.0263,14.0462 16.0263,14.0462 C16.0263,7.5640 16.0263,7.5640 16.0263,7.5640 C13.3854,7.5640 13.3854,7.5640 13.3854,7.5640 Z M16.9867,7.5640 C16.9867,9.0045 16.9867,9.0045 16.9867,9.0045 C17.7069,10.4449 18.4271,11.1652 18.4271,13.3259 C18.4271,13.5660 18.4271,13.8061 18.4271,14.0462 C19.6276,14.0462 19.6276,14.0462 19.6276,14.0462 C19.6276,7.5640 19.6276,7.5640 19.6276,7.5640 C16.9867,7.5640 16.9867,7.5640 16.9867,7.5640 Z M20.5879,7.5640 C20.5879,9.0045 20.5879,9.0045 20.5879,9.0045 C21.5482,10.4449 22.0284,11.1652 22.0284,13.3259 C22.0284,13.5660 22.0284,13.8061 22.0284,14.0462 C23.2288,14.0462 23.2288,14.0462 23.2288,14.0462 C23.2288,7.5640 23.2288,7.5640 23.2288,7.5640 C20.5879,7.5640 20.5879,7.5640 20.5879,7.5640 Z M24.1891,7.5640 C24.1891,9.0045 24.1891,9.0045 24.1891,9.0045 C25.1494,10.4449 25.6296,11.1652 25.6296,13.3259 C25.6296,13.5660 25.6296,13.8061 25.6296,14.0462 C26.8300,14.0462 26.8300,14.0462 26.8300,14.0462 C26.8300,7.5640 26.8300,7.5640 26.8300,7.5640 C24.1891,7.5640 24.1891,7.5640 24.1891,7.5640 Z M28.0304,7.5640 C28.0304,9.0045 28.0304,9.0045 28.0304,9.0045 C28.7506,10.4449 29.2308,11.1652 29.2308,13.3259 C29.2308,13.5660 29.2308,13.8061 29.2308,14.0462 C30.6713,14.0462 30.6713,14.0462 30.6713,14.0462 C30.6713,7.5640 30.6713,7.5640 30.6713,7.5640 C28.0304,7.5640 28.0304,7.5640 28.0304,7.5640 Z M31.6316,7.5640 C31.6316,9.0045 31.6316,9.0045 31.6316,9.0045 C32.3519,10.4449 32.8320,11.1652 32.8320,13.3259 C32.8320,13.5660 32.8320,13.8061 32.8320,14.0462 C34.2725,14.0462 34.2725,14.0462 34.2725,14.0462 C34.2725,7.5640 34.2725,7.5640 34.2725,7.5640 C31.6316,7.5640 31.6316,7.5640 31.6316,7.5640 Z M35.2328,7.5640 C35.2328,9.0045 35.2328,9.0045 35.2328,9.0045 C35.9531,10.4449 36.4332,11.1652 36.4332,13.3259 C36.4332,13.5660 36.4332,13.8061 36.4332,14.0462 C37.8737,14.0462 37.8737,14.0462 37.8737,14.0462 C37.8737,7.5640 37.8737,7.5640 37.8737,7.5640 C35.2328,7.5640 35.2328,7.5640 35.2328,7.5640 Z M38.8340,7.5640 C38.8340,9.0045 38.8340,9.0045 38.8340,9.0045 C39.5543,10.4449 40.2745,11.1652 40.2745,13.3259 C40.2745,13.5660 40.2745,13.8061 40.2745,14.0462 C41.4749,14.0462 41.4749,14.0462 41.4749,14.0462 C41.4749,7.5640 41.4749,7.5640 41.4749,7.5640 C38.8340,7.5640 38.8340,7.5640 38.8340,7.5640 Z M31.6316,54.1397 C31.6316,55.5802 31.6316,55.5802 31.6316,55.5802 C32.3519,57.0207 32.8320,57.7409 32.8320,59.9017 C32.8320,60.1417 32.8320,60.3818 32.8320,60.6219 C34.2725,60.6219 34.2725,60.6219 34.2725,60.6219 C34.2725,54.1397 34.2725,54.1397 34.2725,54.1397 C31.6316,54.1397 31.6316,54.1397 31.6316,54.1397 Z M31.6316,65.6636 C31.6316,67.3442 31.6316,67.3442 31.6316,67.3442 C32.3519,68.5446 32.8320,69.2648 32.8320,71.6656 C32.8320,71.6656 32.8320,71.9057 32.8320,72.1458 C34.2725,72.1458 34.2725,72.1458 34.2725,72.1458 C34.2725,65.6636 34.2725,65.6636 34.2725,65.6636 C31.6316,65.6636 31.6316,65.6636 31.6316,65.6636 Z M35.2328,65.6636 C35.2328,67.3442 35.2328,67.3442 35.2328,67.3442 C35.9531,68.5446 36.4332,69.2648 36.4332,71.6656 C36.4332,71.6656 36.4332,71.9057 36.4332,72.1458 C37.8737,72.1458 37.8737,72.1458 37.8737,72.1458 C37.8737,65.6636 37.8737,65.6636 37.8737,65.6636 C35.2328,65.6636 35.2328,65.6636 35.2328,65.6636 Z M20.5879,54.1397 C20.5879,55.5802 20.5879,55.5802 20.5879,55.5802 C21.5482,57.0207 22.0284,57.7409 22.0284,59.9017 C22.0284,60.1417 22.0284,60.3818 22.0284,60.6219 C23.2288,60.6219 23.2288,60.6219 23.2288,60.6219 C23.2288,54.1397 23.2288,54.1397 23.2288,54.1397 C20.5879,54.1397 20.5879,54.1397 20.5879,54.1397 Z M35.2328,54.1397 C35.2328,55.5802 35.2328,55.5802 35.2328,55.5802 C35.9531,57.0207 36.4332,57.7409 36.4332,59.9017 C36.4332,60.1417 36.4332,60.3818 36.4332,60.6219 C37.8737,60.6219 37.8737,60.6219 37.8737,60.6219 C37.8737,54.1397 37.8737,54.1397 37.8737,54.1397 C35.2328,54.1397 35.2328,54.1397 35.2328,54.1397 Z M20.5879,65.6636 C20.5879,67.3442 20.5879,67.3442 20.5879,67.3442 C21.5482,68.5446 22.0284,69.2648 22.0284,71.6656 C22.0284,71.6656 22.0284,71.9057 22.0284,72.1458 C23.2288,72.1458 23.2288,72.1458 23.2288,72.1458 C23.2288,65.6636 23.2288,65.6636 23.2288,65.6636 C20.5879,65.6636 20.5879,65.6636 20.5879,65.6636 Z M28.0304,65.6636 C28.0304,67.3442 28.0304,67.3442 28.0304,67.3442 C28.7506,68.5446 29.2308,69.2648 29.2308,71.6656 C29.2308,71.6656 29.2308,71.9057 29.2308,72.1458 C30.6713,72.1458 30.6713,72.1458 30.6713,72.1458 C30.6713,65.6636 30.6713,65.6636 30.6713,65.6636 C28.0304,65.6636 28.0304,65.6636 28.0304,65.6636 Z M13.3854,65.6636 C13.3854,67.3442 13.3854,67.3442 13.3854,67.3442 C14.1057,68.5446 14.8259,69.2648 14.8259,71.6656 C14.8259,71.6656 14.5858,71.9057 14.5858,72.1458 C16.0263,72.1458 16.0263,72.1458 16.0263,72.1458 C16.0263,65.6636 16.0263,65.6636 16.0263,65.6636 C13.3854,65.6636 13.3854,65.6636 13.3854,65.6636 Z M28.0304,54.1397 C28.0304,55.5802 28.0304,55.5802 28.0304,55.5802 C28.7506,57.0207 29.2308,57.7409 29.2308,59.9017 C29.2308,60.1417 29.2308,60.3818 29.2308,60.6219 C30.6713,60.6219 30.6713,60.6219 30.6713,60.6219 C30.6713,54.1397 30.6713,54.1397 30.6713,54.1397 C28.0304,54.1397 28.0304,54.1397 28.0304,54.1397 Z M38.8340,65.6636 C38.8340,67.3442 38.8340,67.3442 38.8340,67.3442 C39.5543,68.5446 40.2745,69.2648 40.2745,71.6656 C40.2745,71.6656 40.2745,71.9057 40.2745,72.1458 C41.4749,72.1458 41.4749,72.1458 41.4749,72.1458 C41.4749,65.6636 41.4749,65.6636 41.4749,65.6636 C38.8340,65.6636 38.8340,65.6636 38.8340,65.6636 Z M16.9867,54.1397 C16.9867,55.5802 16.9867,55.5802 16.9867,55.5802 C17.7069,57.0207 18.4271,57.7409 18.4271,59.9017 C18.4271,60.1417 18.4271,60.3818 18.4271,60.6219 C19.6276,60.6219 19.6276,60.6219 19.6276,60.6219 C19.6276,54.1397 19.6276,54.1397 19.6276,54.1397 C16.9867,54.1397 16.9867,54.1397 16.9867,54.1397 Z M13.3854,54.1397 C13.3854,55.5802 13.3854,55.5802 13.3854,55.5802 C14.1057,57.0207 14.8259,57.7409 14.8259,59.9017 C14.8259,60.1417 14.5858,60.3818 14.5858,60.6219 C16.0263,60.6219 16.0263,60.6219 16.0263,60.6219 C16.0263,54.1397 16.0263,54.1397 16.0263,54.1397 C13.3854,54.1397 13.3854,54.1397 13.3854,54.1397 Z M16.9867,65.6636 C16.9867,67.3442 16.9867,67.3442 16.9867,67.3442 C17.7069,68.5446 18.4271,69.2648 18.4271,71.6656 C18.4271,71.6656 18.4271,71.9057 18.4271,72.1458 C19.6276,72.1458 19.6276,72.1458 19.6276,72.1458 C19.6276,65.6636 19.6276,65.6636 19.6276,65.6636 C16.9867,65.6636 16.9867,65.6636 16.9867,65.6636 Z M24.1891,54.1397 C24.1891,55.5802 24.1891,55.5802 24.1891,55.5802 C25.1494,57.0207 25.6296,57.7409 25.6296,59.9017 C25.6296,60.1417 25.6296,60.3818 25.6296,60.6219 C26.8300,60.6219 26.8300,60.6219 26.8300,60.6219 C26.8300,54.1397 26.8300,54.1397 26.8300,54.1397 C24.1891,54.1397 24.1891,54.1397 24.1891,54.1397 Z M24.1891,65.6636 C24.1891,67.3442 24.1891,67.3442 24.1891,67.3442 C25.1494,68.5446 25.6296,69.2648 25.6296,71.6656 C25.6296,71.6656 25.6296,71.9057 25.6296,72.1458 C26.8300,72.1458 26.8300,72.1458 26.8300,72.1458 C26.8300,65.6636 26.8300,65.6636 26.8300,65.6636 C24.1891,65.6636 24.1891,65.6636 24.1891,65.6636 Z M9.7842,54.1397 C9.7842,55.5802 9.7842,55.5802 9.7842,55.5802 C10.5045,57.0207 10.9846,57.7409 10.9846,59.9017 C10.9846,60.1417 10.9846,60.3818 10.9846,60.6219 C12.4251,60.6219 12.4251,60.6219 12.4251,60.6219 C12.4251,54.1397 12.4251,54.1397 12.4251,54.1397 C9.7842,54.1397 9.7842,54.1397 9.7842,54.1397 Z M38.8340,54.1397 C38.8340,55.5802 38.8340,55.5802 38.8340,55.5802 C39.5543,57.0207 40.2745,57.7409 40.2745,59.9017 C40.2745,60.1417 40.2745,60.3818 40.2745,60.6219 C41.4749,60.6219 41.4749,60.6219 41.4749,60.6219 C41.4749,54.1397 41.4749,54.1397 41.4749,54.1397 C38.8340,54.1397 38.8340,54.1397 38.8340,54.1397 Z M9.7842,65.6636 C9.7842,67.3442 9.7842,67.3442 9.7842,67.3442 C10.5045,68.5446 10.9846,69.2648 10.9846,71.6656 C10.9846,71.6656 10.9846,71.9057 10.9846,72.1458 C12.4251,72.1458 12.4251,72.1458 12.4251,72.1458 C12.4251,65.6636 12.4251,65.6636 12.4251,65.6636 C9.7842,65.6636 9.7842,65.6636 9.7842,65.6636 Z M2.3417,54.1397 C2.3417,55.5802 2.3417,55.5802 2.3417,55.5802 C3.3020,57.0207 3.7822,57.7409 3.7822,59.9017 C3.7822,60.1417 3.7822,60.3818 3.7822,60.6219 C5.2227,60.6219 5.2227,60.6219 5.2227,60.6219 C5.2227,54.1397 5.2227,54.1397 5.2227,54.1397 C2.3417,54.1397 2.3417,54.1397 2.3417,54.1397 Z M6.1830,54.1397 C6.1830,55.5802 6.1830,55.5802 6.1830,55.5802 C6.9032,57.0207 7.3834,57.7409 7.3834,59.9017 C7.3834,60.1417 7.3834,60.3818 7.3834,60.6219 C8.8239,60.6219 8.8239,60.6219 8.8239,60.6219 C8.8239,54.1397 8.8239,54.1397 8.8239,54.1397 C6.1830,54.1397 6.1830,54.1397 6.1830,54.1397 Z M6.1830,65.6636 C6.1830,67.3442 6.1830,67.3442 6.1830,67.3442 C6.9032,68.5446 7.3834,69.2648 7.3834,71.6656 C7.3834,71.6656 7.3834,71.9057 7.3834,72.1458 C8.8239,72.1458 8.8239,72.1458 8.8239,72.1458 C8.8239,65.6636 8.8239,65.6636 8.8239,65.6636 C6.1830,65.6636 6.1830,65.6636 6.1830,65.6636 Z M2.3417,65.6636 C2.3417,67.3442 2.3417,67.3442 2.3417,67.3442 C3.3020,68.5446 3.7822,69.2648 3.7822,71.6656 C3.7822,71.6656 3.7822,71.9057 3.7822,72.1458 C5.2227,72.1458 5.2227,72.1458 5.2227,72.1458 C5.2227,65.6636 5.2227,65.6636 5.2227,65.6636 C2.3417,65.6636 2.3417,65.6636 2.3417,65.6636 Z M16.9867,42.6158 C16.9867,44.0563 16.9867,44.0563 16.9867,44.0563 C17.7069,45.2567 18.4271,45.9770 18.4271,48.3778 C18.4271,48.6179 18.4271,48.6179 18.4271,48.8579 C19.6276,48.8579 19.6276,48.8579 19.6276,48.8579 C19.6276,42.6158 19.6276,42.6158 19.6276,42.6158 C16.9867,42.6158 16.9867,42.6158 16.9867,42.6158 Z M20.5879,42.6158 C20.5879,44.0563 20.5879,44.0563 20.5879,44.0563 C21.5482,45.2567 22.0284,45.9770 22.0284,48.3778 C22.0284,48.6179 22.0284,48.6179 22.0284,48.8579 C23.2288,48.8579 23.2288,48.8579 23.2288,48.8579 C23.2288,42.6158 23.2288,42.6158 23.2288,42.6158 C20.5879,42.6158 20.5879,42.6158 20.5879,42.6158 Z M24.1891,42.6158 C24.1891,44.0563 24.1891,44.0563 24.1891,44.0563 C25.1494,45.2567 25.6296,45.9770 25.6296,48.3778 C25.6296,48.6179 25.6296,48.6179 25.6296,48.8579 C26.8300,48.8579 26.8300,48.8579 26.8300,48.8579 C26.8300,42.6158 26.8300,42.6158 26.8300,42.6158 C24.1891,42.6158 24.1891,42.6158 24.1891,42.6158 Z M28.0304,42.6158 C28.0304,44.0563 28.0304,44.0563 28.0304,44.0563 C28.7506,45.2567 29.2308,45.9770 29.2308,48.3778 C29.2308,48.6179 29.2308,48.6179 29.2308,48.8579 C30.6713,48.8579 30.6713,48.8579 30.6713,48.8579 C30.6713,42.6158 30.6713,42.6158 30.6713,42.6158 C28.0304,42.6158 28.0304,42.6158 28.0304,42.6158 Z M31.6316,42.6158 C31.6316,44.0563 31.6316,44.0563 31.6316,44.0563 C32.3519,45.2567 32.8320,45.9770 32.8320,48.3778 C32.8320,48.6179 32.8320,48.6179 32.8320,48.8579 C34.2725,48.8579 34.2725,48.8579 34.2725,48.8579 C34.2725,42.6158 34.2725,42.6158 34.2725,42.6158 C31.6316,42.6158 31.6316,42.6158 31.6316,42.6158 Z M35.2328,42.6158 C35.2328,44.0563 35.2328,44.0563 35.2328,44.0563 C35.9531,45.2567 36.4332,45.9770 36.4332,48.3778 C36.4332,48.6179 36.4332,48.6179 36.4332,48.8579 C37.8737,48.8579 37.8737,48.8579 37.8737,48.8579 C37.8737,42.6158 37.8737,42.6158 37.8737,42.6158 C35.2328,42.6158 35.2328,42.6158 35.2328,42.6158 Z M38.8340,42.6158 C38.8340,44.0563 38.8340,44.0563 38.8340,44.0563 C39.5543,45.2567 40.2745,45.9770 40.2745,48.3778 C40.2745,48.6179 40.2745,48.6179 40.2745,48.8579 C41.4749,48.8579 41.4749,48.8579 41.4749,48.8579 C41.4749,42.6158 41.4749,42.6158 41.4749,42.6158 C38.8340,42.6158 38.8340,42.6158 38.8340,42.6158 Z M2.3417,42.6158 C2.3417,44.0563 2.3417,44.0563 2.3417,44.0563 C3.3020,45.2567 3.7822,45.9770 3.7822,48.3778 C3.7822,48.6179 3.7822,48.6179 3.7822,48.8579 C5.2227,48.8579 5.2227,48.8579 5.2227,48.8579 C5.2227,42.6158 5.2227,42.6158 5.2227,42.6158 C2.3417,42.6158 2.3417,42.6158 2.3417,42.6158 Z M6.1830,42.6158 C6.1830,44.0563 6.1830,44.0563 6.1830,44.0563 C6.9032,45.2567 7.3834,45.9770 7.3834,48.3778 C7.3834,48.6179 7.3834,48.6179 7.3834,48.8579 C8.8239,48.8579 8.8239,48.8579 8.8239,48.8579 C8.8239,42.6158 8.8239,42.6158 8.8239,42.6158 C6.1830,42.6158 6.1830,42.6158 6.1830,42.6158 Z M9.7842,42.6158 C9.7842,44.0563 9.7842,44.0563 9.7842,44.0563 C10.5045,45.2567 10.9846,45.9770 10.9846,48.3778 C10.9846,48.6179 10.9846,48.6179 10.9846,48.8579 C12.4251,48.8579 12.4251,48.8579 12.4251,48.8579 C12.4251,42.6158 12.4251,42.6158 12.4251,42.6158 C9.7842,42.6158 9.7842,42.6158 9.7842,42.6158 Z M13.3854,42.6158 C13.3854,44.0563 13.3854,44.0563 13.3854,44.0563 C14.1057,45.2567 14.8259,45.9770 14.8259,48.3778 C14.8259,48.6179 14.5858,48.6179 14.5858,48.8579 C16.0263,48.8579 16.0263,48.8579 16.0263,48.8579 C16.0263,42.6158 16.0263,42.6158 16.0263,42.6158 C13.3854,42.6158 13.3854,42.6158 13.3854,42.6158 Z M20.5879,30.8518 C20.5879,32.2923 20.5879,32.2923 20.5879,32.2923 C21.5482,33.7328 22.0284,34.4531 22.0284,36.6138 C22.0284,36.8539 22.0284,37.0940 22.0284,37.3340 C23.2288,37.3340 23.2288,37.3340 23.2288,37.3340 C23.2288,30.8518 23.2288,30.8518 23.2288,30.8518 C20.5879,30.8518 20.5879,30.8518 20.5879,30.8518 Z M24.1891,30.8518 C24.1891,32.2923 24.1891,32.2923 24.1891,32.2923 C25.1494,33.7328 25.6296,34.4531 25.6296,36.6138 C25.6296,36.8539 25.6296,37.0940 25.6296,37.3340 C26.8300,37.3340 26.8300,37.3340 26.8300,37.3340 C26.8300,30.8518 26.8300,30.8518 26.8300,30.8518 C24.1891,30.8518 24.1891,30.8518 24.1891,30.8518 Z M28.0304,30.8518 C28.0304,32.2923 28.0304,32.2923 28.0304,32.2923 C28.7506,33.7328 29.2308,34.4531 29.2308,36.6138 C29.2308,36.8539 29.2308,37.0940 29.2308,37.3340 C30.6713,37.3340 30.6713,37.3340 30.6713,37.3340 C30.6713,30.8518 30.6713,30.8518 30.6713,30.8518 C28.0304,30.8518 28.0304,30.8518 28.0304,30.8518 Z M31.6316,30.8518 C31.6316,32.2923 31.6316,32.2923 31.6316,32.2923 C32.3519,33.7328 32.8320,34.4531 32.8320,36.6138 C32.8320,36.8539 32.8320,37.0940 32.8320,37.3340 C34.2725,37.3340 34.2725,37.3340 34.2725,37.3340 C34.2725,30.8518 34.2725,30.8518 34.2725,30.8518 C31.6316,30.8518 31.6316,30.8518 31.6316,30.8518 Z M35.2328,30.8518 C35.2328,32.2923 35.2328,32.2923 35.2328,32.2923 C35.9531,33.7328 36.4332,34.4531 36.4332,36.6138 C36.4332,36.8539 36.4332,37.0940 36.4332,37.3340 C37.8737,37.3340 37.8737,37.3340 37.8737,37.3340 C37.8737,30.8518 37.8737,30.8518 37.8737,30.8518 C35.2328,30.8518 35.2328,30.8518 35.2328,30.8518 Z M38.8340,30.8518 C38.8340,32.2923 38.8340,32.2923 38.8340,32.2923 C39.5543,33.7328 40.2745,34.4531 40.2745,36.6138 C40.2745,36.8539 40.2745,37.0940 40.2745,37.3340 C41.4749,37.3340 41.4749,37.3340 41.4749,37.3340 C41.4749,30.8518 41.4749,30.8518 41.4749,30.8518 C38.8340,30.8518 38.8340,30.8518 38.8340,30.8518 Z M2.3417,30.8518 C2.3417,32.2923 2.3417,32.2923 2.3417,32.2923 C3.3020,33.7328 3.7822,34.4531 3.7822,36.6138 C3.7822,36.8539 3.7822,37.0940 3.7822,37.3340 C5.2227,37.3340 5.2227,37.3340 5.2227,37.3340 C5.2227,30.8518 5.2227,30.8518 5.2227,30.8518 C2.3417,30.8518 2.3417,30.8518 2.3417,30.8518 Z M6.1830,30.8518 C6.1830,32.2923 6.1830,32.2923 6.1830,32.2923 C6.9032,33.7328 7.3834,34.4531 7.3834,36.6138 C7.3834,36.8539 7.3834,37.0940 7.3834,37.3340 C8.8239,37.3340 8.8239,37.3340 8.8239,37.3340 C8.8239,30.8518 8.8239,30.8518 8.8239,30.8518 C6.1830,30.8518 6.1830,30.8518 6.1830,30.8518 Z M9.7842,30.8518 C9.7842,32.2923 9.7842,32.2923 9.7842,32.2923 C10.5045,33.7328 10.9846,34.4531 10.9846,36.6138 C10.9846,36.8539 10.9846,37.0940 10.9846,37.3340 C12.4251,37.3340 12.4251,37.3340 12.4251,37.3340 C12.4251,30.8518 12.4251,30.8518 12.4251,30.8518 C9.7842,30.8518 9.7842,30.8518 9.7842,30.8518 Z M13.3854,30.8518 C13.3854,32.2923 13.3854,32.2923 13.3854,32.2923 C14.1057,33.7328 14.8259,34.4531 14.8259,36.6138 C14.8259,36.8539 14.5858,37.0940 14.5858,37.3340 C16.0263,37.3340 16.0263,37.3340 16.0263,37.3340 C16.0263,30.8518 16.0263,30.8518 16.0263,30.8518 C13.3854,30.8518 13.3854,30.8518 13.3854,30.8518 Z M16.9867,30.8518 C16.9867,32.2923 16.9867,32.2923 16.9867,32.2923 C17.7069,33.7328 18.4271,34.4531 18.4271,36.6138 C18.4271,36.8539 18.4271,37.0940 18.4271,37.3340 C19.6276,37.3340 19.6276,37.3340 19.6276,37.3340 C19.6276,30.8518 19.6276,30.8518 19.6276,30.8518 C16.9867,30.8518 16.9867,30.8518 16.9867,30.8518 Z M16.9867,147.2912 C16.9867,148.9718 16.9867,148.9718 16.9867,148.9718 C17.7069,150.1722 18.4271,150.8924 18.4271,153.2933 C18.4271,153.2933 18.4271,153.5333 18.4271,153.7734 C19.6276,153.7734 19.6276,153.7734 19.6276,153.7734 C19.6276,147.2912 19.6276,147.2912 19.6276,147.2912 C16.9867,147.2912 16.9867,147.2912 16.9867,147.2912 Z M20.5879,147.2912 C20.5879,148.9718 20.5879,148.9718 20.5879,148.9718 C21.5482,150.1722 22.0284,150.8924 22.0284,153.2933 C22.0284,153.2933 22.0284,153.5333 22.0284,153.7734 C23.2288,153.7734 23.2288,153.7734 23.2288,153.7734 C23.2288,147.2912 23.2288,147.2912 23.2288,147.2912 C20.5879,147.2912 20.5879,147.2912 20.5879,147.2912 Z M24.1891,147.2912 C24.1891,148.9718 24.1891,148.9718 24.1891,148.9718 C25.1494,150.1722 25.6296,150.8924 25.6296,153.2933 C25.6296,153.2933 25.6296,153.5333 25.6296,153.7734 C26.8300,153.7734 26.8300,153.7734 26.8300,153.7734 C26.8300,147.2912 26.8300,147.2912 26.8300,147.2912 C24.1891,147.2912 24.1891,147.2912 24.1891,147.2912 Z M28.0304,147.2912 C28.0304,148.9718 28.0304,148.9718 28.0304,148.9718 C28.7506,150.1722 29.2308,150.8924 29.2308,153.2933 C29.2308,153.2933 29.2308,153.5333 29.2308,153.7734 C30.6713,153.7734 30.6713,153.7734 30.6713,153.7734 C30.6713,147.2912 30.6713,147.2912 30.6713,147.2912 C28.0304,147.2912 28.0304,147.2912 28.0304,147.2912 Z M31.6316,147.2912 C31.6316,148.9718 31.6316,148.9718 31.6316,148.9718 C32.3519,150.1722 32.8320,150.8924 32.8320,153.2933 C32.8320,153.2933 32.8320,153.5333 32.8320,153.7734 C34.2725,153.7734 34.2725,153.7734 34.2725,153.7734 C34.2725,147.2912 34.2725,147.2912 34.2725,147.2912 C31.6316,147.2912 31.6316,147.2912 31.6316,147.2912 Z M35.2328,147.2912 C35.2328,148.9718 35.2328,148.9718 35.2328,148.9718 C35.9531,150.1722 36.4332,150.8924 36.4332,153.2933 C36.4332,153.2933 36.4332,153.5333 36.4332,153.7734 C37.8737,153.7734 37.8737,153.7734 37.8737,153.7734 C37.8737,147.2912 37.8737,147.2912 37.8737,147.2912 C35.2328,147.2912 35.2328,147.2912 35.2328,147.2912 Z M38.8340,147.2912 C38.8340,148.9718 38.8340,148.9718 38.8340,148.9718 C39.5543,150.1722 40.2745,150.8924 40.2745,153.2933 C40.2745,153.2933 40.2745,153.5333 40.2745,153.7734 C41.4749,153.7734 41.4749,153.7734 41.4749,153.7734 C41.4749,147.2912 41.4749,147.2912 41.4749,147.2912 C38.8340,147.2912 38.8340,147.2912 38.8340,147.2912 Z M2.3417,147.2912 C2.3417,148.9718 2.3417,148.9718 2.3417,148.9718 C3.3020,150.1722 3.7822,150.8924 3.7822,153.2933 C3.7822,153.2933 3.7822,153.5333 3.7822,153.7734 C5.2227,153.7734 5.2227,153.7734 5.2227,153.7734 C5.2227,147.2912 5.2227,147.2912 5.2227,147.2912 C2.3417,147.2912 2.3417,147.2912 2.3417,147.2912 Z M6.1830,147.2912 C6.1830,148.9718 6.1830,148.9718 6.1830,148.9718 C6.9032,150.1722 7.3834,150.8924 7.3834,153.2933 C7.3834,153.2933 7.3834,153.5333 7.3834,153.7734 C8.8239,153.7734 8.8239,153.7734 8.8239,153.7734 C8.8239,147.2912 8.8239,147.2912 8.8239,147.2912 C6.1830,147.2912 6.1830,147.2912 6.1830,147.2912 Z M9.7842,147.2912 C9.7842,148.9718 9.7842,148.9718 9.7842,148.9718 C10.5045,150.1722 10.9846,150.8924 10.9846,153.2933 C10.9846,153.2933 10.9846,153.5333 10.9846,153.7734 C12.4251,153.7734 12.4251,153.7734 12.4251,153.7734 C12.4251,147.2912 12.4251,147.2912 12.4251,147.2912 C9.7842,147.2912 9.7842,147.2912 9.7842,147.2912 Z M13.3854,147.2912 C13.3854,148.9718 13.3854,148.9718 13.3854,148.9718 C14.1057,150.1722 14.8259,150.8924 14.8259,153.2933 C14.8259,153.2933 14.5858,153.5333 14.5858,153.7734 C16.0263,153.7734 16.0263,153.7734 16.0263,153.7734 C16.0263,147.2912 16.0263,147.2912 16.0263,147.2912 C13.3854,147.2912 13.3854,147.2912 13.3854,147.2912 Z M2.3417,159.0552 C2.3417,160.4957 2.3417,160.4957 2.3417,160.4957 C3.3020,161.6961 3.7822,162.6564 3.7822,164.8172 C3.7822,165.0572 3.7822,165.2973 3.7822,165.5374 C5.2227,165.5374 5.2227,165.5374 5.2227,165.5374 C5.2227,159.0552 5.2227,159.0552 5.2227,159.0552 C2.3417,159.0552 2.3417,159.0552 2.3417,159.0552 Z M6.1830,159.0552 C6.1830,160.4957 6.1830,160.4957 6.1830,160.4957 C6.9032,161.6961 7.3834,162.6564 7.3834,164.8172 C7.3834,165.0572 7.3834,165.2973 7.3834,165.5374 C8.8239,165.5374 8.8239,165.5374 8.8239,165.5374 C8.8239,159.0552 8.8239,159.0552 8.8239,159.0552 C6.1830,159.0552 6.1830,159.0552 6.1830,159.0552 Z M9.7842,159.0552 C9.7842,160.4957 9.7842,160.4957 9.7842,160.4957 C10.5045,161.6961 10.9846,162.6564 10.9846,164.8172 C10.9846,165.0572 10.9846,165.2973 10.9846,165.5374 C12.4251,165.5374 12.4251,165.5374 12.4251,165.5374 C12.4251,159.0552 12.4251,159.0552 12.4251,159.0552 C9.7842,159.0552 9.7842,159.0552 9.7842,159.0552 Z M13.3854,159.0552 C13.3854,160.4957 13.3854,160.4957 13.3854,160.4957 C14.1057,161.6961 14.8259,162.6564 14.8259,164.8172 C14.8259,165.0572 14.5858,165.2973 14.5858,165.5374 C16.0263,165.5374 16.0263,165.5374 16.0263,165.5374 C16.0263,159.0552 16.0263,159.0552 16.0263,159.0552 C13.3854,159.0552 13.3854,159.0552 13.3854,159.0552 Z M16.9867,159.0552 C16.9867,160.4957 16.9867,160.4957 16.9867,160.4957 C17.7069,161.6961 18.4271,162.6564 18.4271,164.8172 C18.4271,165.0572 18.4271,165.2973 18.4271,165.5374 C19.6276,165.5374 19.6276,165.5374 19.6276,165.5374 C19.6276,159.0552 19.6276,159.0552 19.6276,159.0552 C16.9867,159.0552 16.9867,159.0552 16.9867,159.0552 Z M20.5879,159.0552 C20.5879,160.4957 20.5879,160.4957 20.5879,160.4957 C21.5482,161.6961 22.0284,162.6564 22.0284,164.8172 C22.0284,165.0572 22.0284,165.2973 22.0284,165.5374 C23.2288,165.5374 23.2288,165.5374 23.2288,165.5374 C23.2288,159.0552 23.2288,159.0552 23.2288,159.0552 C20.5879,159.0552 20.5879,159.0552 20.5879,159.0552 Z M24.1891,159.0552 C24.1891,160.4957 24.1891,160.4957 24.1891,160.4957 C25.1494,161.6961 25.6296,162.6564 25.6296,164.8172 C25.6296,165.0572 25.6296,165.2973 25.6296,165.5374 C26.8300,165.5374 26.8300,165.5374 26.8300,165.5374 C26.8300,159.0552 26.8300,159.0552 26.8300,159.0552 C24.1891,159.0552 24.1891,159.0552 24.1891,159.0552 Z M28.0304,159.0552 C28.0304,160.4957 28.0304,160.4957 28.0304,160.4957 C28.7506,161.6961 29.2308,162.6564 29.2308,164.8172 C29.2308,165.0572 29.2308,165.2973 29.2308,165.5374 C30.6713,165.5374 30.6713,165.5374 30.6713,165.5374 C30.6713,159.0552 30.6713,159.0552 30.6713,159.0552 C28.0304,159.0552 28.0304,159.0552 28.0304,159.0552 Z M31.6316,159.0552 C31.6316,160.4957 31.6316,160.4957 31.6316,160.4957 C32.3519,161.6961 32.8320,162.6564 32.8320,164.8172 C32.8320,165.0572 32.8320,165.2973 32.8320,165.5374 C34.2725,165.5374 34.2725,165.5374 34.2725,165.5374 C34.2725,159.0552 34.2725,159.0552 34.2725,159.0552 C31.6316,159.0552 31.6316,159.0552 31.6316,159.0552 Z M35.2328,159.0552 C35.2328,160.4957 35.2328,160.4957 35.2328,160.4957 C35.9531,161.6961 36.4332,162.6564 36.4332,164.8172 C36.4332,165.0572 36.4332,165.2973 36.4332,165.5374 C37.8737,165.5374 37.8737,165.5374 37.8737,165.5374 C37.8737,159.0552 37.8737,159.0552 37.8737,159.0552 C35.2328,159.0552 35.2328,159.0552 35.2328,159.0552 Z M38.8340,159.0552 C38.8340,160.4957 38.8340,160.4957 38.8340,160.4957 C39.5543,161.6961 40.2745,162.6564 40.2745,164.8172 C40.2745,165.0572 40.2745,165.2973 40.2745,165.5374 C41.4749,165.5374 41.4749,165.5374 41.4749,165.5374 C41.4749,159.0552 41.4749,159.0552 41.4749,159.0552 C38.8340,159.0552 38.8340,159.0552 38.8340,159.0552 Z M16.9867,124.2434 C16.9867,125.6839 16.9867,125.6839 16.9867,125.6839 C17.7069,126.8843 18.4271,127.6046 18.4271,130.0054 C18.4271,130.2455 18.4271,130.2455 18.4271,130.4855 C19.6276,130.4855 19.6276,130.4855 19.6276,130.4855 C19.6276,124.2434 19.6276,124.2434 19.6276,124.2434 C16.9867,124.2434 16.9867,124.2434 16.9867,124.2434 Z M20.5879,124.2434 C20.5879,125.6839 20.5879,125.6839 20.5879,125.6839 C21.5482,126.8843 22.0284,127.6046 22.0284,130.0054 C22.0284,130.2455 22.0284,130.2455 22.0284,130.4855 C23.2288,130.4855 23.2288,130.4855 23.2288,130.4855 C23.2288,124.2434 23.2288,124.2434 23.2288,124.2434 C20.5879,124.2434 20.5879,124.2434 20.5879,124.2434 Z M24.1891,124.2434 C24.1891,125.6839 24.1891,125.6839 24.1891,125.6839 C25.1494,126.8843 25.6296,127.6046 25.6296,130.0054 C25.6296,130.2455 25.6296,130.2455 25.6296,130.4855 C26.8300,130.4855 26.8300,130.4855 26.8300,130.4855 C26.8300,124.2434 26.8300,124.2434 26.8300,124.2434 C24.1891,124.2434 24.1891,124.2434 24.1891,124.2434 Z M28.0304,124.2434 C28.0304,125.6839 28.0304,125.6839 28.0304,125.6839 C28.7506,126.8843 29.2308,127.6046 29.2308,130.0054 C29.2308,130.2455 29.2308,130.2455 29.2308,130.4855 C30.6713,130.4855 30.6713,130.4855 30.6713,130.4855 C30.6713,124.2434 30.6713,124.2434 30.6713,124.2434 C28.0304,124.2434 28.0304,124.2434 28.0304,124.2434 Z M31.6316,124.2434 C31.6316,125.6839 31.6316,125.6839 31.6316,125.6839 C32.3519,126.8843 32.8320,127.6046 32.8320,130.0054 C32.8320,130.2455 32.8320,130.2455 32.8320,130.4855 C34.2725,130.4855 34.2725,130.4855 34.2725,130.4855 C34.2725,124.2434 34.2725,124.2434 34.2725,124.2434 C31.6316,124.2434 31.6316,124.2434 31.6316,124.2434 Z M35.2328,124.2434 C35.2328,125.6839 35.2328,125.6839 35.2328,125.6839 C35.9531,126.8843 36.4332,127.6046 36.4332,130.0054 C36.4332,130.2455 36.4332,130.2455 36.4332,130.4855 C37.8737,130.4855 37.8737,130.4855 37.8737,130.4855 C37.8737,124.2434 37.8737,124.2434 37.8737,124.2434 C35.2328,124.2434 35.2328,124.2434 35.2328,124.2434 Z M38.8340,124.2434 C38.8340,125.6839 38.8340,125.6839 38.8340,125.6839 C39.5543,126.8843 40.2745,127.6046 40.2745,130.0054 C40.2745,130.2455 40.2745,130.2455 40.2745,130.4855 C41.4749,130.4855 41.4749,130.4855 41.4749,130.4855 C41.4749,124.2434 41.4749,124.2434 41.4749,124.2434 C38.8340,124.2434 38.8340,124.2434 38.8340,124.2434 Z M2.3417,124.2434 C2.3417,125.6839 2.3417,125.6839 2.3417,125.6839 C3.3020,126.8843 3.7822,127.6046 3.7822,130.0054 C3.7822,130.2455 3.7822,130.2455 3.7822,130.4855 C5.2227,130.4855 5.2227,130.4855 5.2227,130.4855 C5.2227,124.2434 5.2227,124.2434 5.2227,124.2434 C2.3417,124.2434 2.3417,124.2434 2.3417,124.2434 Z M6.1830,124.2434 C6.1830,125.6839 6.1830,125.6839 6.1830,125.6839 C6.9032,126.8843 7.3834,127.6046 7.3834,130.0054 C7.3834,130.2455 7.3834,130.2455 7.3834,130.4855 C8.8239,130.4855 8.8239,130.4855 8.8239,130.4855 C8.8239,124.2434 8.8239,124.2434 8.8239,124.2434 C6.1830,124.2434 6.1830,124.2434 6.1830,124.2434 Z M9.7842,124.2434 C9.7842,125.6839 9.7842,125.6839 9.7842,125.6839 C10.5045,126.8843 10.9846,127.6046 10.9846,130.0054 C10.9846,130.2455 10.9846,130.2455 10.9846,130.4855 C12.4251,130.4855 12.4251,130.4855 12.4251,130.4855 C12.4251,124.2434 12.4251,124.2434 12.4251,124.2434 C9.7842,124.2434 9.7842,124.2434 9.7842,124.2434 Z M13.3854,124.2434 C13.3854,125.6839 13.3854,125.6839 13.3854,125.6839 C14.1057,126.8843 14.8259,127.6046 14.8259,130.0054 C14.8259,130.2455 14.5858,130.2455 14.5858,130.4855 C16.0263,130.4855 16.0263,130.4855 16.0263,130.4855 C16.0263,124.2434 16.0263,124.2434 16.0263,124.2434 C13.3854,124.2434 13.3854,124.2434 13.3854,124.2434 Z M2.3417,135.7673 C2.3417,137.2078 2.3417,137.2078 2.3417,137.2078 C3.3020,138.6483 3.7822,139.3685 3.7822,141.5293 C3.7822,141.7694 3.7822,142.0094 3.7822,142.2495 C5.2227,142.2495 5.2227,142.2495 5.2227,142.2495 C5.2227,135.7673 5.2227,135.7673 5.2227,135.7673 C2.3417,135.7673 2.3417,135.7673 2.3417,135.7673 Z M6.1830,135.7673 C6.1830,137.2078 6.1830,137.2078 6.1830,137.2078 C6.9032,138.6483 7.3834,139.3685 7.3834,141.5293 C7.3834,141.7694 7.3834,142.0094 7.3834,142.2495 C8.8239,142.2495 8.8239,142.2495 8.8239,142.2495 C8.8239,135.7673 8.8239,135.7673 8.8239,135.7673 C6.1830,135.7673 6.1830,135.7673 6.1830,135.7673 Z M9.7842,135.7673 C9.7842,137.2078 9.7842,137.2078 9.7842,137.2078 C10.5045,138.6483 10.9846,139.3685 10.9846,141.5293 C10.9846,141.7694 10.9846,142.0094 10.9846,142.2495 C12.4251,142.2495 12.4251,142.2495 12.4251,142.2495 C12.4251,135.7673 12.4251,135.7673 12.4251,135.7673 C9.7842,135.7673 9.7842,135.7673 9.7842,135.7673 Z M13.3854,135.7673 C13.3854,137.2078 13.3854,137.2078 13.3854,137.2078 C14.1057,138.6483 14.8259,139.3685 14.8259,141.5293 C14.8259,141.7694 14.5858,142.0094 14.5858,142.2495 C16.0263,142.2495 16.0263,142.2495 16.0263,142.2495 C16.0263,135.7673 16.0263,135.7673 16.0263,135.7673 C13.3854,135.7673 13.3854,135.7673 13.3854,135.7673 Z M16.9867,135.7673 C16.9867,137.2078 16.9867,137.2078 16.9867,137.2078 C17.7069,138.6483 18.4271,139.3685 18.4271,141.5293 C18.4271,141.7694 18.4271,142.0094 18.4271,142.2495 C19.6276,142.2495 19.6276,142.2495 19.6276,142.2495 C19.6276,135.7673 19.6276,135.7673 19.6276,135.7673 C16.9867,135.7673 16.9867,135.7673 16.9867,135.7673 Z M20.5879,135.7673 C20.5879,137.2078 20.5879,137.2078 20.5879,137.2078 C21.5482,138.6483 22.0284,139.3685 22.0284,141.5293 C22.0284,141.7694 22.0284,142.0094 22.0284,142.2495 C23.2288,142.2495 23.2288,142.2495 23.2288,142.2495 C23.2288,135.7673 23.2288,135.7673 23.2288,135.7673 C20.5879,135.7673 20.5879,135.7673 20.5879,135.7673 Z M24.1891,135.7673 C24.1891,137.2078 24.1891,137.2078 24.1891,137.2078 C25.1494,138.6483 25.6296,139.3685 25.6296,141.5293 C25.6296,141.7694 25.6296,142.0094 25.6296,142.2495 C26.8300,142.2495 26.8300,142.2495 26.8300,142.2495 C26.8300,135.7673 26.8300,135.7673 26.8300,135.7673 C24.1891,135.7673 24.1891,135.7673 24.1891,135.7673 Z M28.0304,135.7673 C28.0304,137.2078 28.0304,137.2078 28.0304,137.2078 C28.7506,138.6483 29.2308,139.3685 29.2308,141.5293 C29.2308,141.7694 29.2308,142.0094 29.2308,142.2495 C30.6713,142.2495 30.6713,142.2495 30.6713,142.2495 C30.6713,135.7673 30.6713,135.7673 30.6713,135.7673 C28.0304,135.7673 28.0304,135.7673 28.0304,135.7673 Z M31.6316,135.7673 C31.6316,137.2078 31.6316,137.2078 31.6316,137.2078 C32.3519,138.6483 32.8320,139.3685 32.8320,141.5293 C32.8320,141.7694 32.8320,142.0094 32.8320,142.2495 C34.2725,142.2495 34.2725,142.2495 34.2725,142.2495 C34.2725,135.7673 34.2725,135.7673 34.2725,135.7673 C31.6316,135.7673 31.6316,135.7673 31.6316,135.7673 Z M35.2328,135.7673 C35.2328,137.2078 35.2328,137.2078 35.2328,137.2078 C35.9531,138.6483 36.4332,139.3685 36.4332,141.5293 C36.4332,141.7694 36.4332,142.0094 36.4332,142.2495 C37.8737,142.2495 37.8737,142.2495 37.8737,142.2495 C37.8737,135.7673 37.8737,135.7673 37.8737,135.7673 C35.2328,135.7673 35.2328,135.7673 35.2328,135.7673 Z M38.8340,135.7673 C38.8340,137.2078 38.8340,137.2078 38.8340,137.2078 C39.5543,138.6483 40.2745,139.3685 40.2745,141.5293 C40.2745,141.7694 40.2745,142.0094 40.2745,142.2495 C41.4749,142.2495 41.4749,142.2495 41.4749,142.2495 C41.4749,135.7673 41.4749,135.7673 41.4749,135.7673 C38.8340,135.7673 38.8340,135.7673 38.8340,135.7673 Z M13.3854,100.9556 C13.3854,102.3960 13.3854,102.3960 13.3854,102.3960 C14.1057,103.5964 14.8259,104.3167 14.8259,106.7175 C14.8259,106.9576 14.5858,106.9576 14.5858,107.1977 C16.0263,107.1977 16.0263,107.1977 16.0263,107.1977 C16.0263,100.9556 16.0263,100.9556 16.0263,100.9556 C13.3854,100.9556 13.3854,100.9556 13.3854,100.9556 Z M16.9867,100.9556 C16.9867,102.3960 16.9867,102.3960 16.9867,102.3960 C17.7069,103.5964 18.4271,104.3167 18.4271,106.7175 C18.4271,106.9576 18.4271,106.9576 18.4271,107.1977 C19.6276,107.1977 19.6276,107.1977 19.6276,107.1977 C19.6276,100.9556 19.6276,100.9556 19.6276,100.9556 C16.9867,100.9556 16.9867,100.9556 16.9867,100.9556 Z M20.5879,100.9556 C20.5879,102.3960 20.5879,102.3960 20.5879,102.3960 C21.5482,103.5964 22.0284,104.3167 22.0284,106.7175 C22.0284,106.9576 22.0284,106.9576 22.0284,107.1977 C23.2288,107.1977 23.2288,107.1977 23.2288,107.1977 C23.2288,100.9556 23.2288,100.9556 23.2288,100.9556 C20.5879,100.9556 20.5879,100.9556 20.5879,100.9556 Z M24.1891,100.9556 C24.1891,102.3960 24.1891,102.3960 24.1891,102.3960 C25.1494,103.5964 25.6296,104.3167 25.6296,106.7175 C25.6296,106.9576 25.6296,106.9576 25.6296,107.1977 C26.8300,107.1977 26.8300,107.1977 26.8300,107.1977 C26.8300,100.9556 26.8300,100.9556 26.8300,100.9556 C24.1891,100.9556 24.1891,100.9556 24.1891,100.9556 Z M28.0304,100.9556 C28.0304,102.3960 28.0304,102.3960 28.0304,102.3960 C28.7506,103.5964 29.2308,104.3167 29.2308,106.7175 C29.2308,106.9576 29.2308,106.9576 29.2308,107.1977 C30.6713,107.1977 30.6713,107.1977 30.6713,107.1977 C30.6713,100.9556 30.6713,100.9556 30.6713,100.9556 C28.0304,100.9556 28.0304,100.9556 28.0304,100.9556 Z M31.6316,100.9556 C31.6316,102.3960 31.6316,102.3960 31.6316,102.3960 C32.3519,103.5964 32.8320,104.3167 32.8320,106.7175 C32.8320,106.9576 32.8320,106.9576 32.8320,107.1977 C34.2725,107.1977 34.2725,107.1977 34.2725,107.1977 C34.2725,100.9556 34.2725,100.9556 34.2725,100.9556 C31.6316,100.9556 31.6316,100.9556 31.6316,100.9556 Z M35.2328,100.9556 C35.2328,102.3960 35.2328,102.3960 35.2328,102.3960 C35.9531,103.5964 36.4332,104.3167 36.4332,106.7175 C36.4332,106.9576 36.4332,106.9576 36.4332,107.1977 C37.8737,107.1977 37.8737,107.1977 37.8737,107.1977 C37.8737,100.9556 37.8737,100.9556 37.8737,100.9556 C35.2328,100.9556 35.2328,100.9556 35.2328,100.9556 Z M38.8340,100.9556 C38.8340,102.3960 38.8340,102.3960 38.8340,102.3960 C39.5543,103.5964 40.2745,104.3167 40.2745,106.7175 C40.2745,106.9576 40.2745,106.9576 40.2745,107.1977 C41.4749,107.1977 41.4749,107.1977 41.4749,107.1977 C41.4749,100.9556 41.4749,100.9556 41.4749,100.9556 C38.8340,100.9556 38.8340,100.9556 38.8340,100.9556 Z M2.3417,100.9556 C2.3417,102.3960 2.3417,102.3960 2.3417,102.3960 C3.3020,103.5964 3.7822,104.3167 3.7822,106.7175 C3.7822,106.9576 3.7822,106.9576 3.7822,107.1977 C5.2227,107.1977 5.2227,107.1977 5.2227,107.1977 C5.2227,100.9556 5.2227,100.9556 5.2227,100.9556 C2.3417,100.9556 2.3417,100.9556 2.3417,100.9556 Z M6.1830,100.9556 C6.1830,102.3960 6.1830,102.3960 6.1830,102.3960 C6.9032,103.5964 7.3834,104.3167 7.3834,106.7175 C7.3834,106.9576 7.3834,106.9576 7.3834,107.1977 C8.8239,107.1977 8.8239,107.1977 8.8239,107.1977 C8.8239,100.9556 8.8239,100.9556 8.8239,100.9556 C6.1830,100.9556 6.1830,100.9556 6.1830,100.9556 Z M9.7842,100.9556 C9.7842,102.3960 9.7842,102.3960 9.7842,102.3960 C10.5045,103.5964 10.9846,104.3167 10.9846,106.7175 C10.9846,106.9576 10.9846,106.9576 10.9846,107.1977 C12.4251,107.1977 12.4251,107.1977 12.4251,107.1977 C12.4251,100.9556 12.4251,100.9556 12.4251,100.9556 C9.7842,100.9556 9.7842,100.9556 9.7842,100.9556 Z M2.3417,112.4795 C2.3417,113.9199 2.3417,113.9199 2.3417,113.9199 C3.3020,115.3604 3.7822,116.0807 3.7822,118.2414 C3.7822,118.4815 3.7822,118.7216 3.7822,118.9616 C5.2227,118.9616 5.2227,118.9616 5.2227,118.9616 C5.2227,112.4795 5.2227,112.4795 5.2227,112.4795 C2.3417,112.4795 2.3417,112.4795 2.3417,112.4795 Z M20.5879,112.4795 C20.5879,113.9199 20.5879,113.9199 20.5879,113.9199 C21.5482,115.3604 22.0284,116.0807 22.0284,118.2414 C22.0284,118.4815 22.0284,118.7216 22.0284,118.9616 C23.2288,118.9616 23.2288,118.9616 23.2288,118.9616 C23.2288,112.4795 23.2288,112.4795 23.2288,112.4795 C20.5879,112.4795 20.5879,112.4795 20.5879,112.4795 Z M24.1891,112.4795 C24.1891,113.9199 24.1891,113.9199 24.1891,113.9199 C25.1494,115.3604 25.6296,116.0807 25.6296,118.2414 C25.6296,118.4815 25.6296,118.7216 25.6296,118.9616 C26.8300,118.9616 26.8300,118.9616 26.8300,118.9616 C26.8300,112.4795 26.8300,112.4795 26.8300,112.4795 C24.1891,112.4795 24.1891,112.4795 24.1891,112.4795 Z M28.0304,112.4795 C28.0304,113.9199 28.0304,113.9199 28.0304,113.9199 C28.7506,115.3604 29.2308,116.0807 29.2308,118.2414 C29.2308,118.4815 29.2308,118.7216 29.2308,118.9616 C30.6713,118.9616 30.6713,118.9616 30.6713,118.9616 C30.6713,112.4795 30.6713,112.4795 30.6713,112.4795 C28.0304,112.4795 28.0304,112.4795 28.0304,112.4795 Z M31.6316,112.4795 C31.6316,113.9199 31.6316,113.9199 31.6316,113.9199 C32.3519,115.3604 32.8320,116.0807 32.8320,118.2414 C32.8320,118.4815 32.8320,118.7216 32.8320,118.9616 C34.2725,118.9616 34.2725,118.9616 34.2725,118.9616 C34.2725,112.4795 34.2725,112.4795 34.2725,112.4795 C31.6316,112.4795 31.6316,112.4795 31.6316,112.4795 Z M35.2328,112.4795 C35.2328,113.9199 35.2328,113.9199 35.2328,113.9199 C35.9531,115.3604 36.4332,116.0807 36.4332,118.2414 C36.4332,118.4815 36.4332,118.7216 36.4332,118.9616 C37.8737,118.9616 37.8737,118.9616 37.8737,118.9616 C37.8737,112.4795 37.8737,112.4795 37.8737,112.4795 C35.2328,112.4795 35.2328,112.4795 35.2328,112.4795 Z M38.8340,112.4795 C38.8340,113.9199 38.8340,113.9199 38.8340,113.9199 C39.5543,115.3604 40.2745,116.0807 40.2745,118.2414 C40.2745,118.4815 40.2745,118.7216 40.2745,118.9616 C41.4749,118.9616 41.4749,118.9616 41.4749,118.9616 C41.4749,112.4795 41.4749,112.4795 41.4749,112.4795 C38.8340,112.4795 38.8340,112.4795 38.8340,112.4795 Z M6.1830,112.4795 C6.1830,113.9199 6.1830,113.9199 6.1830,113.9199 C6.9032,115.3604 7.3834,116.0807 7.3834,118.2414 C7.3834,118.4815 7.3834,118.7216 7.3834,118.9616 C8.8239,118.9616 8.8239,118.9616 8.8239,118.9616 C8.8239,112.4795 8.8239,112.4795 8.8239,112.4795 C6.1830,112.4795 6.1830,112.4795 6.1830,112.4795 Z M9.7842,112.4795 C9.7842,113.9199 9.7842,113.9199 9.7842,113.9199 C10.5045,115.3604 10.9846,116.0807 10.9846,118.2414 C10.9846,118.4815 10.9846,118.7216 10.9846,118.9616 C12.4251,118.9616 12.4251,118.9616 12.4251,118.9616 C12.4251,112.4795 12.4251,112.4795 12.4251,112.4795 C9.7842,112.4795 9.7842,112.4795 9.7842,112.4795 Z M13.3854,112.4795 C13.3854,113.9199 13.3854,113.9199 13.3854,113.9199 C14.1057,115.3604 14.8259,116.0807 14.8259,118.2414 C14.8259,118.4815 14.5858,118.7216 14.5858,118.9616 C16.0263,118.9616 16.0263,118.9616 16.0263,118.9616 C16.0263,112.4795 16.0263,112.4795 16.0263,112.4795 C13.3854,112.4795 13.3854,112.4795 13.3854,112.4795 Z M16.9867,112.4795 C16.9867,113.9199 16.9867,113.9199 16.9867,113.9199 C17.7069,115.3604 18.4271,116.0807 18.4271,118.2414 C18.4271,118.4815 18.4271,118.7216 18.4271,118.9616 C19.6276,118.9616 19.6276,118.9616 19.6276,118.9616 C19.6276,112.4795 19.6276,112.4795 19.6276,112.4795 C16.9867,112.4795 16.9867,112.4795 16.9867,112.4795 Z M2.3417,88.7114 C2.3417,90.3920 2.3417,90.3920 2.3417,90.3920 C3.3020,91.5924 3.7822,92.3126 3.7822,94.7134 C3.7822,94.7134 3.7822,94.9535 3.7822,95.1936 C5.2227,95.1936 5.2227,95.1936 5.2227,95.1936 C5.2227,88.7114 5.2227,88.7114 5.2227,88.7114 C2.3417,88.7114 2.3417,88.7114 2.3417,88.7114 Z M6.1830,88.7114 C6.1830,90.3920 6.1830,90.3920 6.1830,90.3920 C6.9032,91.5924 7.3834,92.3126 7.3834,94.7134 C7.3834,94.7134 7.3834,94.9535 7.3834,95.1936 C8.8239,95.1936 8.8239,95.1936 8.8239,95.1936 C8.8239,88.7114 8.8239,88.7114 8.8239,88.7114 C6.1830,88.7114 6.1830,88.7114 6.1830,88.7114 Z M24.1891,88.7114 C24.1891,90.3920 24.1891,90.3920 24.1891,90.3920 C25.1494,91.5924 25.6296,92.3126 25.6296,94.7134 C25.6296,94.7134 25.6296,94.9535 25.6296,95.1936 C26.8300,95.1936 26.8300,95.1936 26.8300,95.1936 C26.8300,88.7114 26.8300,88.7114 26.8300,88.7114 C24.1891,88.7114 24.1891,88.7114 24.1891,88.7114 Z M28.0304,88.7114 C28.0304,90.3920 28.0304,90.3920 28.0304,90.3920 C28.7506,91.5924 29.2308,92.3126 29.2308,94.7134 C29.2308,94.7134 29.2308,94.9535 29.2308,95.1936 C30.6713,95.1936 30.6713,95.1936 30.6713,95.1936 C30.6713,88.7114 30.6713,88.7114 30.6713,88.7114 C28.0304,88.7114 28.0304,88.7114 28.0304,88.7114 Z M31.6316,88.7114 C31.6316,90.3920 31.6316,90.3920 31.6316,90.3920 C32.3519,91.5924 32.8320,92.3126 32.8320,94.7134 C32.8320,94.7134 32.8320,94.9535 32.8320,95.1936 C34.2725,95.1936 34.2725,95.1936 34.2725,95.1936 C34.2725,88.7114 34.2725,88.7114 34.2725,88.7114 C31.6316,88.7114 31.6316,88.7114 31.6316,88.7114 Z M35.2328,88.7114 C35.2328,90.3920 35.2328,90.3920 35.2328,90.3920 C35.9531,91.5924 36.4332,92.3126 36.4332,94.7134 C36.4332,94.7134 36.4332,94.9535 36.4332,95.1936 C37.8737,95.1936 37.8737,95.1936 37.8737,95.1936 C37.8737,88.7114 37.8737,88.7114 37.8737,88.7114 C35.2328,88.7114 35.2328,88.7114 35.2328,88.7114 Z M38.8340,88.7114 C38.8340,90.3920 38.8340,90.3920 38.8340,90.3920 C39.5543,91.5924 40.2745,92.3126 40.2745,94.7134 C40.2745,94.7134 40.2745,94.9535 40.2745,95.1936 C41.4749,95.1936 41.4749,95.1936 41.4749,95.1936 C41.4749,88.7114 41.4749,88.7114 41.4749,88.7114 C38.8340,88.7114 38.8340,88.7114 38.8340,88.7114 Z M9.7842,88.7114 C9.7842,90.3920 9.7842,90.3920 9.7842,90.3920 C10.5045,91.5924 10.9846,92.3126 10.9846,94.7134 C10.9846,94.7134 10.9846,94.9535 10.9846,95.1936 C12.4251,95.1936 12.4251,95.1936 12.4251,95.1936 C12.4251,88.7114 12.4251,88.7114 12.4251,88.7114 C9.7842,88.7114 9.7842,88.7114 9.7842,88.7114 Z M13.3854,88.7114 C13.3854,90.3920 13.3854,90.3920 13.3854,90.3920 C14.1057,91.5924 14.8259,92.3126 14.8259,94.7134 C14.8259,94.7134 14.5858,94.9535 14.5858,95.1936 C16.0263,95.1936 16.0263,95.1936 16.0263,95.1936 C16.0263,88.7114 16.0263,88.7114 16.0263,88.7114 C13.3854,88.7114 13.3854,88.7114 13.3854,88.7114 Z M16.9867,88.7114 C16.9867,90.3920 16.9867,90.3920 16.9867,90.3920 C17.9470,91.5924 18.4271,92.3126 18.4271,94.7134 C18.4271,94.7134 18.4271,94.9535 18.4271,95.1936 C19.6276,95.1936 19.6276,95.1936 19.6276,95.1936 C19.6276,88.7114 19.6276,88.7114 19.6276,88.7114 C16.9867,88.7114 16.9867,88.7114 16.9867,88.7114 Z M20.5879,88.7114 C20.5879,90.3920 20.5879,90.3920 20.5879,90.3920 C21.5482,91.5924 22.0284,92.3126 22.0284,94.7134 C22.0284,94.7134 22.0284,94.9535 22.0284,95.1936 C23.2288,95.1936 23.2288,95.1936 23.2288,95.1936 C23.2288,88.7114 23.2288,88.7114 23.2288,88.7114 C20.5879,88.7114 20.5879,88.7114 20.5879,88.7114 Z" style="fill-rule: evenodd; fill: #7f7f7f; "/>
    <text xmlns="http://www.w3.org/2000/svg" x="4.6918" y="178.4143">
      <tspan font-family="Arial" font-size="4.5000" fill="#000000" fill-opacity="1.0000" stroke-opacity="1.0000">
VTL600 Series</tspan>
    </text>
    <!--converted by libvisio2svg-->
  </g>
</svg>
