<svg xmlns="http://www.w3.org/2000/svg" xmlns:xlink="http://www.w3.org/1999/xlink" version="1.1" width="43.2146000000" height="7.2000000000">
  <title><![CDATA[VTL6000 rackmount]]></title>
  <g transform=" scale(1.000000) ">
    <g xmlns="http://www.w3.org/2000/svg" id="Layer1060">
      <path d="  M43.3176,-4.3278 L0.0883,-4.3278 L0.0883,7.2000 L43.3176,7.2000 L43.3176,-4.3278 Z" style="stroke-width: 0.0240; stroke-linecap: round; stroke-linejoin: round; fill-rule: evenodd; fill: #000000; "/>
      <path d="  M43.3176,-4.3278 L0.0883,-4.3278 L0.0883,7.2000 L43.3176,7.2000 L43.3176,-4.3278 Z" style="stroke-width: 0.0240; stroke: #ffffff; stroke-dasharray: none; stroke-linecap: round; stroke-linejoin: round; fill: none; "/>
    </g>
    <path xmlns="http://www.w3.org/2000/svg" d="  M10.4153,-2.7667 C3.4506,-2.5266 3.4506,-2.2864 3.4506,-1.8061 C3.4506,4.6783 3.4506,4.6783 3.4506,4.6783 C3.4506,5.1586 3.4506,5.3988 10.4153,5.6389 C14.2579,5.6389 18.8210,5.8791 21.7029,5.8791 C24.8250,5.8791 29.3881,5.6389 33.2307,5.6389 C40.1954,5.3988 40.1954,5.1586 40.1954,4.6783 C40.1954,-1.8061 40.1954,-1.8061 40.1954,-1.8061 C40.1954,-2.2864 40.1954,-2.5266 33.2307,-2.7667 C29.3881,-3.0069 24.8250,-3.0069 21.7029,-3.0069 C18.8210,-3.0069 14.2579,-3.0069 10.4153,-2.7667 Z" style="fill-rule: evenodd; fill: #ffffff; "/>
    <path xmlns="http://www.w3.org/2000/svg" d="  M32.7504,1.3160 C32.7504,-0.3651 32.5102,-2.2864 32.0299,-2.2864 C31.5496,-2.2864 31.5496,-2.2864 31.5496,-2.2864 C31.3094,-2.2864 31.0693,-2.0463 31.0693,-1.8061 C31.0693,4.6783 31.0693,4.6783 31.0693,4.6783 C31.0693,4.9185 31.3094,4.9185 31.5496,4.9185 C32.0299,4.9185 32.0299,4.9185 32.0299,4.9185 C32.5102,4.9185 32.7504,3.2373 32.7504,1.3160 Z M36.1127,1.3160 C36.1127,-0.3651 35.6324,-2.0463 35.1520,-2.0463 C34.6717,-2.0463 34.6717,-2.0463 34.6717,-2.0463 C34.4315,-2.0463 34.4315,-1.8061 34.4315,-1.5659 C34.4315,4.4381 34.4315,4.4381 34.4315,4.4381 C34.4315,4.6783 34.4315,4.9185 34.6717,4.9185 C35.1520,4.9185 35.1520,4.9185 35.1520,4.9185 C35.6324,4.9185 36.1127,3.2373 36.1127,1.3160 Z M37.5537,4.4381 C37.5537,4.6783 37.7938,4.9185 38.0340,4.9185 C38.5143,4.9185 38.5143,4.9185 38.5143,4.9185 C38.9946,4.9185 39.2348,3.2373 39.2348,1.3160 C39.2348,-0.3651 38.9946,-2.0463 38.5143,-2.0463 C38.0340,-2.0463 38.0340,-2.0463 38.0340,-2.0463 C37.7938,-2.0463 37.5537,-1.8061 37.5537,-1.5659 C37.5537,4.4381 37.5537,4.4381 37.5537,4.4381 Z M29.8685,4.4381 C29.8685,4.9185 29.6283,5.1586 29.1480,5.1586 C20.9824,5.1586 20.9824,5.1586 20.9824,5.1586 C20.5021,5.1586 20.2620,4.9185 20.2620,4.4381 C20.2620,1.0759 20.2620,1.0759 20.2620,1.0759 C20.2620,0.8357 20.5021,0.3554 20.9824,0.3554 C29.1480,0.3554 29.1480,0.3554 29.1480,0.3554 C29.6283,0.3554 29.8685,0.8357 29.8685,1.0759 C29.8685,4.4381 29.8685,4.4381 29.8685,4.4381 Z M19.0611,4.6783 C19.0611,4.9185 18.8210,5.1586 18.5808,5.1586 C18.1005,5.1586 18.1005,5.1586 18.1005,5.1586 C17.6202,5.1586 17.3800,3.2373 17.3800,1.3160 C17.3800,-0.3651 17.6202,-2.2864 18.1005,-2.2864 C18.5808,-2.2864 18.5808,-2.2864 18.5808,-2.2864 C18.8210,-2.2864 19.0611,-2.2864 19.0611,-1.8061 C19.0611,4.6783 19.0611,4.6783 19.0611,4.6783 Z M14.0177,1.3160 C14.0177,-0.3651 14.4981,-2.2864 14.7382,-2.2864 C15.4587,-2.2864 15.4587,-2.2864 15.4587,-2.2864 C15.6989,-2.2864 15.9390,-2.0463 15.9390,-1.8061 C15.9390,4.6783 15.9390,4.6783 15.9390,4.6783 C15.9390,4.9185 15.6989,5.1586 15.4587,5.1586 C14.7382,5.1586 14.7382,5.1586 14.7382,5.1586 C14.4981,5.1586 14.0177,3.2373 14.0177,1.3160 Z M10.8956,1.3160 C10.8956,-0.3651 11.1358,-2.2864 11.6161,-2.2864 C12.0964,-2.2864 12.0964,-2.2864 12.0964,-2.2864 C12.3366,-2.2864 12.5768,-2.0463 12.5768,-1.8061 C12.5768,4.6783 12.5768,4.6783 12.5768,4.6783 C12.5768,4.9185 12.3366,4.9185 12.0964,4.9185 C11.6161,4.9185 11.6161,4.9185 11.6161,4.9185 C11.1358,4.9185 10.8956,3.2373 10.8956,1.3160 Z M7.5333,1.3160 C7.5333,-0.3651 8.0137,-2.0463 8.4940,-2.0463 C8.9743,-2.0463 8.9743,-2.0463 8.9743,-2.0463 C9.2145,-2.0463 9.2145,-1.8061 9.2145,-1.5659 C9.2145,4.4381 9.2145,4.4381 9.2145,4.4381 C9.2145,4.6783 9.2145,4.9185 8.9743,4.9185 C8.4940,4.9185 8.4940,4.9185 8.4940,4.9185 C8.0137,4.9185 7.5333,3.2373 7.5333,1.3160 Z M6.0924,4.4381 C6.0924,4.6783 5.8522,4.9185 5.6120,4.9185 C5.1317,4.9185 5.1317,4.9185 5.1317,4.9185 C4.6514,4.9185 4.4112,3.2373 4.4112,1.3160 C4.4112,-0.3651 4.6514,-2.0463 5.1317,-2.0463 C5.6120,-2.0463 5.6120,-2.0463 5.6120,-2.0463 C5.8522,-2.0463 6.0924,-1.8061 6.0924,-1.5659 C6.0924,4.4381 6.0924,4.4381 6.0924,4.4381 Z" style="fill-rule: evenodd; fill: #000000; "/>
    <path xmlns="http://www.w3.org/2000/svg" d="  M28.9078,4.6783 C28.9078,4.9185 28.6676,5.1586 28.4275,5.1586 C21.7029,5.1586 21.7029,5.1586 21.7029,5.1586 C21.4628,5.1586 21.2226,4.9185 21.2226,4.6783 C21.2226,2.0365 21.2226,2.0365 21.2226,2.0365 C21.2226,1.5562 21.4628,1.3160 21.7029,1.3160 C28.4275,1.3160 28.4275,1.3160 28.4275,1.3160 C28.6676,1.3160 28.9078,1.5562 28.9078,2.0365 C28.9078,4.6783 28.9078,4.6783 28.9078,4.6783 Z" style="fill-rule: evenodd; fill: #9a9a9a; "/>
    <path xmlns="http://www.w3.org/2000/svg" d="  M28.1873,4.4381 C28.1873,4.6783 27.9472,4.6783 27.7070,4.6783 C22.4234,4.6783 22.4234,4.6783 22.4234,4.6783 C22.1833,4.6783 21.9431,4.6783 21.9431,4.4381 C21.9431,2.7570 21.9431,2.7570 21.9431,2.7570 C21.9431,2.5168 22.1833,2.2767 22.4234,2.2767 C27.7070,2.2767 27.7070,2.2767 27.7070,2.2767 C27.9472,2.2767 28.1873,2.5168 28.1873,2.7570 C28.1873,4.4381 28.1873,4.4381 28.1873,4.4381 Z M24.1046,5.1586 C24.1046,5.3988 24.1046,5.3988 23.8644,5.3988 C23.3841,5.3988 23.3841,5.3988 23.3841,5.3988 C23.1439,5.3988 23.1439,5.3988 23.1439,5.1586 C23.1439,5.1586 23.1439,5.1586 23.3841,5.1586 C23.8644,5.1586 23.8644,5.1586 23.8644,5.1586 C24.1046,5.1586 24.1046,5.1586 24.1046,5.1586 Z M25.5455,5.1586 C25.5455,5.3988 25.5455,5.3988 25.3054,5.3988 C24.8250,5.3988 24.8250,5.3988 24.8250,5.3988 C24.5849,5.3988 24.5849,5.3988 24.5849,5.1586 C24.5849,5.1586 24.5849,5.1586 24.8250,5.1586 C25.3054,5.1586 25.3054,5.1586 25.3054,5.1586 C25.5455,5.1586 25.5455,5.1586 25.5455,5.1586 Z M26.9865,5.1586 C26.9865,5.3988 26.9865,5.3988 26.7463,5.3988 C26.2660,5.3988 26.2660,5.3988 26.2660,5.3988 C26.0259,5.3988 26.0259,5.3988 26.0259,5.1586 C26.0259,5.1586 26.0259,5.1586 26.2660,5.1586 C26.7463,5.1586 26.7463,5.1586 26.7463,5.1586 C26.9865,5.1586 26.9865,5.1586 26.9865,5.1586 Z" style="fill-rule: evenodd; fill: #000000; "/>
    <!--converted by libvisio2svg-->
  </g>
</svg>
