<svg xmlns="http://www.w3.org/2000/svg" xmlns:xlink="http://www.w3.org/1999/xlink" version="1.1" width="43.2000000000" height="7.2000000000">
  <title><![CDATA[VTL Series]]></title>
  <g transform=" scale(1.000000) ">
    <g xmlns="http://www.w3.org/2000/svg" id="Layer1022">
      <path d="  M43.2354,-4.2958 L0.0208,-4.2958 L0.0208,7.2281 L43.2354,7.2281 L43.2354,-4.2958 Z" style="stroke-width: 0.0240; stroke-linecap: round; stroke-linejoin: round; fill-rule: evenodd; fill: #000000; "/>
      <path d="  M43.2354,-4.2958 L0.0208,-4.2958 L0.0208,7.2281 L43.2354,7.2281 L43.2354,-4.2958 Z" style="stroke-width: 0.0240; stroke: #ffffff; stroke-dasharray: none; stroke-linecap: round; stroke-linejoin: round; fill: none; "/>
    </g>
    <path xmlns="http://www.w3.org/2000/svg" d="  M10.3443,-2.7352 C3.3820,-2.4952 3.3820,-2.2551 3.3820,-1.7749 C3.3820,4.7073 3.3820,4.7073 3.3820,4.7073 C3.3820,5.1874 3.3820,5.4275 10.3443,5.6676 C14.1856,5.6676 18.7472,5.9077 21.6281,5.9077 C24.7492,5.9077 29.3107,5.6676 33.1520,5.6676 C40.1144,5.4275 40.1144,5.1874 40.1144,4.7073 C40.1144,-1.7749 40.1144,-1.7749 40.1144,-1.7749 C40.1144,-2.2551 40.1144,-2.4952 33.1520,-2.7352 C29.3107,-2.9753 24.7492,-2.9753 21.6281,-2.9753 C18.7472,-2.9753 14.1856,-2.9753 10.3443,-2.7352 Z" style="fill-rule: evenodd; fill: #ffffff; "/>
    <path xmlns="http://www.w3.org/2000/svg" d="  M32.6719,1.3461 C32.6719,-0.3344 32.4318,-2.2551 31.9516,-2.2551 C31.4715,-2.2551 31.4715,-2.2551 31.4715,-2.2551 C31.2314,-2.2551 30.9913,-2.0150 30.9913,-1.7749 C30.9913,4.7073 30.9913,4.7073 30.9913,4.7073 C30.9913,4.9474 31.2314,4.9474 31.4715,4.9474 C31.9516,4.9474 31.9516,4.9474 31.9516,4.9474 C32.4318,4.9474 32.6719,3.2668 32.6719,1.3461 Z M36.0330,1.3461 C36.0330,-0.3344 35.5528,-2.0150 35.0727,-2.0150 C34.5925,-2.0150 34.5925,-2.0150 34.5925,-2.0150 C34.3524,-2.0150 34.3524,-1.7749 34.3524,-1.5348 C34.3524,4.4672 34.3524,4.4672 34.3524,4.4672 C34.3524,4.7073 34.3524,4.9474 34.5925,4.9474 C35.0727,4.9474 35.0727,4.9474 35.0727,4.9474 C35.5528,4.9474 36.0330,3.2668 36.0330,1.3461 Z M37.4735,4.4672 C37.4735,4.7073 37.7136,4.9474 37.9536,4.9474 C38.4338,4.9474 38.4338,4.9474 38.4338,4.9474 C38.9140,4.9474 39.1541,3.2668 39.1541,1.3461 C39.1541,-0.3344 38.9140,-2.0150 38.4338,-2.0150 C37.9536,-2.0150 37.9536,-2.0150 37.9536,-2.0150 C37.7136,-2.0150 37.4735,-1.7749 37.4735,-1.5348 C37.4735,4.4672 37.4735,4.4672 37.4735,4.4672 Z M29.7909,4.4672 C29.7909,4.9474 29.5508,5.1874 29.0706,5.1874 C20.9079,5.1874 20.9079,5.1874 20.9079,5.1874 C20.4277,5.1874 20.1876,4.9474 20.1876,4.4672 C20.1876,1.1061 20.1876,1.1061 20.1876,1.1061 C20.1876,0.8660 20.4277,0.3858 20.9079,0.3858 C29.0706,0.3858 29.0706,0.3858 29.0706,0.3858 C29.5508,0.3858 29.7909,0.8660 29.7909,1.1061 C29.7909,4.4672 29.7909,4.4672 29.7909,4.4672 Z M18.9872,4.7073 C18.9872,4.9474 18.7472,5.1874 18.5071,5.1874 C18.0269,5.1874 18.0269,5.1874 18.0269,5.1874 C17.5467,5.1874 17.3067,3.2668 17.3067,1.3461 C17.3067,-0.3344 17.5467,-2.2551 18.0269,-2.2551 C18.5071,-2.2551 18.5071,-2.2551 18.5071,-2.2551 C18.7472,-2.2551 18.9872,-2.2551 18.9872,-1.7749 C18.9872,4.7073 18.9872,4.7073 18.9872,4.7073 Z M13.9455,1.3461 C13.9455,-0.3344 14.4257,-2.2551 14.6658,-2.2551 C15.3860,-2.2551 15.3860,-2.2551 15.3860,-2.2551 C15.6261,-2.2551 15.8662,-2.0150 15.8662,-1.7749 C15.8662,4.7073 15.8662,4.7073 15.8662,4.7073 C15.8662,4.9474 15.6261,5.1874 15.3860,5.1874 C14.6658,5.1874 14.6658,5.1874 14.6658,5.1874 C14.4257,5.1874 13.9455,3.2668 13.9455,1.3461 Z M10.8245,1.3461 C10.8245,-0.3344 11.0646,-2.2551 11.5447,-2.2551 C12.0249,-2.2551 12.0249,-2.2551 12.0249,-2.2551 C12.2650,-2.2551 12.5050,-2.0150 12.5050,-1.7749 C12.5050,4.7073 12.5050,4.7073 12.5050,4.7073 C12.5050,4.9474 12.2650,4.9474 12.0249,4.9474 C11.5447,4.9474 11.5447,4.9474 11.5447,4.9474 C11.0646,4.9474 10.8245,3.2668 10.8245,1.3461 Z M7.4633,1.3461 C7.4633,-0.3344 7.9435,-2.0150 8.4237,-2.0150 C8.9038,-2.0150 8.9038,-2.0150 8.9038,-2.0150 C9.1439,-2.0150 9.1439,-1.7749 9.1439,-1.5348 C9.1439,4.4672 9.1439,4.4672 9.1439,4.4672 C9.1439,4.7073 9.1439,4.9474 8.9038,4.9474 C8.4237,4.9474 8.4237,4.9474 8.4237,4.9474 C7.9435,4.9474 7.4633,3.2668 7.4633,1.3461 Z M6.0228,4.4672 C6.0228,4.7073 5.7828,4.9474 5.5427,4.9474 C5.0625,4.9474 5.0625,4.9474 5.0625,4.9474 C4.5824,4.9474 4.3423,3.2668 4.3423,1.3461 C4.3423,-0.3344 4.5824,-2.0150 5.0625,-2.0150 C5.5427,-2.0150 5.5427,-2.0150 5.5427,-2.0150 C5.7828,-2.0150 6.0228,-1.7749 6.0228,-1.5348 C6.0228,4.4672 6.0228,4.4672 6.0228,4.4672 Z" style="fill-rule: evenodd; fill: #000000; "/>
    <path xmlns="http://www.w3.org/2000/svg" d="  M28.8306,4.7073 C28.8306,4.9474 28.5905,5.1874 28.3504,5.1874 C21.6281,5.1874 21.6281,5.1874 21.6281,5.1874 C21.3880,5.1874 21.1480,4.9474 21.1480,4.7073 C21.1480,2.0664 21.1480,2.0664 21.1480,2.0664 C21.1480,1.5862 21.3880,1.3461 21.6281,1.3461 C28.3504,1.3461 28.3504,1.3461 28.3504,1.3461 C28.5905,1.3461 28.8306,1.5862 28.8306,2.0664 C28.8306,4.7073 28.8306,4.7073 28.8306,4.7073 Z" style="fill-rule: evenodd; fill: #9a9a9a; "/>
    <path xmlns="http://www.w3.org/2000/svg" d="  M28.1103,4.4672 C28.1103,4.7073 27.8702,4.7073 27.6302,4.7073 C22.3484,4.7073 22.3484,4.7073 22.3484,4.7073 C22.1083,4.7073 21.8682,4.7073 21.8682,4.4672 C21.8682,2.7866 21.8682,2.7866 21.8682,2.7866 C21.8682,2.5465 22.1083,2.3065 22.3484,2.3065 C27.6302,2.3065 27.6302,2.3065 27.6302,2.3065 C27.8702,2.3065 28.1103,2.5465 28.1103,2.7866 C28.1103,4.4672 28.1103,4.4672 28.1103,4.4672 Z M24.0289,5.1874 C24.0289,5.4275 24.0289,5.4275 23.7889,5.4275 C23.3087,5.4275 23.3087,5.4275 23.3087,5.4275 C23.0686,5.4275 23.0686,5.4275 23.0686,5.1874 C23.0686,5.1874 23.0686,5.1874 23.3087,5.1874 C23.7889,5.1874 23.7889,5.1874 23.7889,5.1874 C24.0289,5.1874 24.0289,5.1874 24.0289,5.1874 Z M25.4694,5.1874 C25.4694,5.4275 25.4694,5.4275 25.2293,5.4275 C24.7492,5.4275 24.7492,5.4275 24.7492,5.4275 C24.5091,5.4275 24.5091,5.4275 24.5091,5.1874 C24.5091,5.1874 24.5091,5.1874 24.7492,5.1874 C25.2293,5.1874 25.2293,5.1874 25.2293,5.1874 C25.4694,5.1874 25.4694,5.1874 25.4694,5.1874 Z M26.9099,5.1874 C26.9099,5.4275 26.9099,5.4275 26.6698,5.4275 C26.1897,5.4275 26.1897,5.4275 26.1897,5.4275 C25.9496,5.4275 25.9496,5.4275 25.9496,5.1874 C25.9496,5.1874 25.9496,5.1874 26.1897,5.1874 C26.6698,5.1874 26.6698,5.1874 26.6698,5.1874 C26.9099,5.1874 26.9099,5.1874 26.9099,5.1874 Z" style="fill-rule: evenodd; fill: #000000; "/>
    <g xmlns="http://www.w3.org/2000/svg" id="Layer1023">
      <path d="  M43.2281,-4.2958 L0.0281,-4.2958 L1.7881,-6.9945 L41.3081,-6.9945 L43.2281,-4.2958 Z" style="stroke-width: 0.0240; stroke-linecap: round; stroke-linejoin: round; fill-rule: evenodd; fill: #9a9898; "/>
      <path d="  M43.2281,-4.2958 L0.0281,-4.2958 L1.7881,-6.9945 L41.3081,-6.9945 L43.2281,-4.2958 Z" style="stroke-width: 0.0240; stroke: #ffffff; stroke-dasharray: none; stroke-linecap: round; stroke-linejoin: round; fill: none; "/>
    </g>
    <text xmlns="http://www.w3.org/2000/svg" x="10.5890" y="12.4224">
      <tspan font-family="Arial" font-size="4.5000" fill="#000000" fill-opacity="1.0000" stroke-opacity="1.0000">
VTL Series</tspan>
    </text>
    <!--converted by libvisio2svg-->
  </g>
</svg>
