<svg xmlns="http://www.w3.org/2000/svg" xmlns:xlink="http://www.w3.org/1999/xlink" version="1.1" width="43.2000000000" height="7.2000000000">
  <title><![CDATA[WORM Volume]]></title>
  <g transform=" scale(1.000000) ">
    <g xmlns="http://www.w3.org/2000/svg" id="Layer1072">
      <path d="  M0.0168,7.2281 L43.2395,7.2281 L43.2395,-15.8856 L0.0168,-15.8856 L0.0168,7.2281 Z" style="stroke-width: 0.0240; stroke-linecap: round; stroke-linejoin: round; fill-rule: evenodd; fill: #f29d3c; "/>
      <path d="  M0.0168,7.2281 L43.2395,7.2281 L43.2395,-15.8856 L0.0168,-15.8856 L0.0168,7.2281 Z" style="stroke-width: 0.0240; stroke: #ffffff; stroke-dasharray: none; stroke-linecap: round; stroke-linejoin: round; fill: none; "/>
    </g>
    <path xmlns="http://www.w3.org/2000/svg" d="  M24.5173,-5.0222 C24.5173,-8.4892 24.5173,-8.4892 24.5173,-8.4892 C24.5173,-9.8760 23.3617,-11.0317 22.2060,-11.0317 C21.0503,-11.0317 21.0503,-11.0317 21.0503,-11.0317 C19.6635,-11.0317 18.7389,-9.8760 18.7389,-8.4892 C18.7389,-5.0222 18.7389,-5.0222 18.7389,-5.0222 C18.7389,-5.0222 18.9700,-5.0222 18.9700,-5.0222 C19.2012,-5.0222 19.4323,-5.0222 19.4323,-5.0222 C19.4323,-8.4892 19.4323,-8.4892 19.4323,-8.4892 C19.4323,-9.4138 20.1257,-10.1072 21.0503,-10.1072 C21.9748,-10.1072 21.9748,-10.1072 21.9748,-10.1072 C22.8994,-10.1072 23.5928,-9.4138 23.5928,-8.4892 C23.5928,-5.0222 23.5928,-5.0222 23.5928,-5.0222 C23.5928,-5.0222 23.8239,-5.0222 24.0551,-5.0222 C24.2862,-5.0222 24.5173,-5.0222 24.5173,-5.0222 Z" style="fill-rule: evenodd; fill: #ffffff; "/>
    <path xmlns="http://www.w3.org/2000/svg" d="  M25.4419,-2.0174 C17.8144,-2.0174 17.8144,-2.0174 17.8144,-2.0174 C17.5832,-2.0174 17.5832,-2.0174 17.5832,-2.0174 C17.5832,-2.0174 17.1209,-2.2485 16.8898,-2.7108 C16.8898,-1.7862 16.8898,-1.7862 16.8898,-1.7862 C16.8898,-1.5551 16.8898,-1.5551 16.8898,-1.5551 C16.8898,-1.3240 17.5832,-0.8617 17.8144,-0.8617 C18.0455,-0.8617 25.2108,-0.8617 25.2108,-0.8617 C25.6730,-0.8617 26.3664,-1.3240 26.3664,-1.5551 C26.3664,-1.7862 26.3664,-1.7862 26.3664,-1.7862 C26.3664,-2.7108 26.3664,-2.7108 26.3664,-2.7108 C26.1353,-2.2485 25.4419,-2.0174 25.4419,-2.0174 Z M25.4419,-0.3994 C17.8144,-0.3994 17.8144,-0.3994 17.8144,-0.3994 C17.5832,-0.3994 17.5832,-0.3994 17.5832,-0.3994 C17.5832,-0.3994 17.1209,-0.6305 16.8898,-1.0928 C16.8898,-0.1683 16.8898,-0.1683 16.8898,-0.1683 C16.8898,0.0629 16.8898,0.0629 16.8898,0.0629 C16.8898,0.2940 17.5832,0.7563 17.8144,0.7563 C18.0455,0.7563 25.2108,0.7563 25.2108,0.7563 C25.6730,0.7563 26.3664,0.2940 26.3664,0.0629 C26.3664,-0.1683 26.3664,-0.1683 26.3664,-0.1683 C26.3664,-1.0928 26.3664,-1.0928 26.3664,-1.0928 C26.1353,-0.6305 25.4419,-0.3994 25.4419,-0.3994 Z M25.4419,-3.6353 C17.8144,-3.6353 17.8144,-3.6353 17.8144,-3.6353 C17.5832,-3.6353 17.5832,-3.6353 17.5832,-3.6353 C17.5832,-3.6353 17.1209,-3.8665 16.8898,-4.3287 C16.8898,-3.4042 16.8898,-3.4042 16.8898,-3.4042 C16.8898,-3.1731 16.8898,-3.1731 16.8898,-3.1731 C16.8898,-2.9419 17.5832,-2.7108 17.8144,-2.4796 C18.0455,-2.4796 25.2108,-2.4796 25.2108,-2.4796 C25.6730,-2.7108 26.3664,-2.9419 26.3664,-3.1731 C26.3664,-3.4042 26.3664,-3.4042 26.3664,-3.4042 C26.3664,-4.3287 26.3664,-4.3287 26.3664,-4.3287 C26.1353,-3.8665 25.4419,-3.6353 25.4419,-3.6353 Z M25.4419,1.2186 C17.8144,1.2186 17.8144,1.2186 17.8144,1.2186 C17.5832,1.2186 17.5832,1.2186 17.5832,1.2186 C17.5832,1.2186 17.1209,0.9874 16.8898,0.5251 C16.8898,1.4497 16.8898,1.4497 16.8898,1.4497 C16.8898,1.9120 17.8144,2.3742 17.8144,2.3742 C25.4419,2.3742 25.4419,2.3742 25.4419,2.3742 C25.4419,2.3742 26.3664,1.9120 26.3664,1.4497 C26.3664,0.5251 26.3664,0.5251 26.3664,0.5251 C26.1353,0.9874 25.4419,1.2186 25.4419,1.2186 Z M26.3664,-5.0222 C26.3664,-5.7156 25.4419,-6.1778 25.4419,-6.1778 C17.8144,-6.1778 17.8144,-6.1778 17.8144,-6.1778 C17.8144,-6.1778 16.8898,-5.7156 16.8898,-5.0222 C16.8898,-4.5599 17.8144,-4.0976 17.8144,-4.0976 C25.4419,-4.0976 25.4419,-4.0976 25.4419,-4.0976 C25.4419,-4.0976 26.3664,-4.5599 26.3664,-5.0222 Z" style="fill-rule: evenodd; fill: #ffffff; "/>
    <path xmlns="http://www.w3.org/2000/svg" d="  M21.0503,-11.0317 C19.6635,-11.0317 18.5078,-9.8760 18.5078,-8.4892 C18.5078,-5.0222 18.5078,-5.0222 18.5078,-5.0222 C18.5078,-4.7910 18.5078,-4.7910 18.5078,-4.7910 C18.5078,-4.7910 18.9700,-4.7910 18.9700,-4.7910 C19.2012,-4.7910 19.4323,-4.7910 19.6635,-4.7910 C19.6635,-5.0222 19.6635,-5.0222 19.6635,-5.0222 C19.6635,-8.4892 19.6635,-8.4892 19.6635,-8.4892 C19.6635,-9.1826 20.3569,-9.8760 21.0503,-9.8760 C21.9748,-9.8760 21.9748,-9.8760 21.9748,-9.8760 C22.6682,-9.8760 23.3617,-9.1826 23.3617,-8.4892 C23.3617,-5.0222 23.3617,-5.0222 23.3617,-5.0222 C23.5928,-4.7910 23.5928,-4.7910 23.5928,-4.7910 C23.5928,-4.7910 23.8239,-4.7910 24.0551,-4.7910 C24.2862,-4.7910 24.5173,-4.7910 24.5173,-4.7910 C24.7485,-5.0222 24.7485,-5.0222 24.7485,-5.0222 C24.7485,-8.4892 24.7485,-8.4892 24.7485,-8.4892 C24.7485,-9.8760 23.5928,-11.0317 22.2060,-11.0317 C21.0503,-11.0317 21.0503,-11.0317 21.0503,-11.0317 Z" style="fill-rule: evenodd; fill: #e6e6e6; "/>
    <text xmlns="http://www.w3.org/2000/svg" x="7.4412" y="12.3324">
      <tspan font-family="Arial" font-size="4.5000" fill="#000000" fill-opacity="1.0000" stroke-opacity="1.0000">
WORM Volume</tspan>
    </text>
    <!--converted by libvisio2svg-->
  </g>
</svg>
