<svg xmlns="http://www.w3.org/2000/svg" xmlns:xlink="http://www.w3.org/1999/xlink" version="1.1" width="43.2000000000" height="7.2000000000">
  <title><![CDATA[Blade Server]]></title>
  <g transform=" scale(1.000000) ">
    <path xmlns="http://www.w3.org/2000/svg" d="  M-0.0246,-18.6287 L-0.0246,7.4250 L43.2246,7.4250 L43.2246,-18.6287 L-0.0246,-18.6287 Z" style="fill-rule: evenodd; fill: #7f7f7f; "/>
    <path xmlns="http://www.w3.org/2000/svg" d="  M43.2246,-18.6287 L-0.0246,-18.6287 L2.0597,-21.5815 L41.1403,-21.5815 L43.2246,-18.6287 Z" style="fill-rule: evenodd; fill: #b3b3b3; "/>
    <path xmlns="http://www.w3.org/2000/svg" d="  M4.4911,6.3820 L1.8863,6.3820 L1.8863,-16.8910 L4.4911,-16.8910 L4.4911,6.3820 Z M8.1733,6.3820 L5.5686,6.3820 L5.5686,-16.8910 L8.1733,-16.8910 L8.1733,6.3820 Z M11.8556,6.3820 L9.2509,6.3820 L9.2509,-16.8910 L11.8556,-16.8910 L11.8556,6.3820 Z M15.5378,6.3820 L12.9331,6.3820 L12.9331,-16.8910 L15.5378,-16.8910 L15.5378,6.3820 Z M19.2201,6.3820 L16.6154,6.3820 L16.6154,-16.8910 L19.2201,-16.8910 L19.2201,6.3820 Z M22.9024,6.3820 L20.2976,6.3820 L20.2976,-16.8910 L22.9024,-16.8910 L22.9024,6.3820 Z M26.5846,6.3820 L23.9799,6.3820 L23.9799,-16.8910 L26.5846,-16.8910 L26.5846,6.3820 Z M30.2669,6.3820 L27.6622,6.3820 L27.6622,-16.8910 L30.2669,-16.8910 L30.2669,6.3820 Z M33.9491,6.3820 L31.3444,6.3820 L31.3444,-16.8910 L33.9491,-16.8910 L33.9491,6.3820 Z M37.6314,6.3820 L35.0267,6.3820 L35.0267,-16.8910 L37.6314,-16.8910 L37.6314,6.3820 Z M41.3137,6.3820 L38.7089,6.3820 L38.7089,-16.8910 L41.3137,-16.8910 L41.3137,6.3820 Z" style="fill-rule: evenodd; fill: #333333; "/>
    <text xmlns="http://www.w3.org/2000/svg" x="-8.3900" y="12.8250">
      <tspan font-family="Arial" font-size="4.5000" fill="#000000" fill-opacity="1.0000" stroke-opacity="1.0000">
Blade Server</tspan>
    </text>
    <!--converted by libvisio2svg-->
  </g>
</svg>
