<svg xmlns="http://www.w3.org/2000/svg" xmlns:xlink="http://www.w3.org/1999/xlink" version="1.1" width="41.6160000000" height="7.2000000000">
  <title><![CDATA[Branch Office]]></title>
  <g transform=" scale(1.000000) ">
    <path xmlns="http://www.w3.org/2000/svg" d="  M43.2093,-46.6650 L-0.0093,-46.6650 L2.7494,-50.6497 L40.4506,-50.6497 L43.2093,-46.6650 Z" style="fill-rule: evenodd; fill: #e6e6e6; "/>
    <path xmlns="http://www.w3.org/2000/svg" d="  M43.2093,-46.6650 L-0.0093,-46.6650 L2.7494,-50.6497 L40.4506,-50.6497 L43.2093,-46.6650 Z" style="stroke-width: 0.0591; stroke: #ffffff; stroke-dasharray: none; stroke-linecap: round; stroke-linejoin: round; fill: none; "/>
    <path xmlns="http://www.w3.org/2000/svg" d="  M43.2093,6.9750 L-0.0093,6.9750 L-0.0093,-46.6650 L43.2093,-46.6650 L43.2093,6.9750 Z" style="fill-rule: evenodd; fill: #b3b3b3; "/>
    <path xmlns="http://www.w3.org/2000/svg" d="  M43.2093,6.9750 L-0.0093,6.9750 L-0.0093,-46.6650 L43.2093,-46.6650 L43.2093,6.9750 Z" style="stroke-width: 0.0591; stroke: #ffffff; stroke-dasharray: none; stroke-linecap: round; stroke-linejoin: round; fill: none; "/>
    <path xmlns="http://www.w3.org/2000/svg" d="  M5.5080,-8.9638 L4.8950,-8.9638 L4.8950,-3.4465 L8.2666,-3.4465 L8.2666,-4.3660 L5.5080,-4.3660 L5.5080,-8.9638 Z M5.5080,-17.2396 L4.8950,-17.2396 L4.8950,-11.7224 L8.2666,-11.7224 L8.2666,-12.6419 L5.5080,-12.6419 L5.5080,-17.2396 Z M5.5080,-25.5155 L4.8950,-25.5155 L4.8950,-19.9983 L8.2666,-19.9983 L8.2666,-20.9178 L5.5080,-20.9178 L5.5080,-25.5155 Z M5.5080,-33.7914 L4.8950,-33.7914 L4.8950,-28.2742 L8.2666,-28.2742 L8.2666,-29.1937 L5.5080,-29.1937 L5.5080,-33.7914 Z M5.5080,-42.0673 L4.8950,-42.0673 L4.8950,-36.5501 L8.2666,-36.5501 L8.2666,-37.4696 L5.5080,-37.4696 L5.5080,-42.0673 Z M17.7686,-42.0673 L16.8490,-42.0673 L16.8490,-36.5501 L20.2207,-36.5501 L20.2207,-37.4696 L17.7686,-37.4696 L17.7686,-42.0673 Z M11.6383,-8.9638 L10.7187,-8.9638 L10.7187,-3.4465 L14.0904,-3.4465 L14.0904,-4.3660 L11.6383,-4.3660 L11.6383,-8.9638 Z M11.6383,-17.2396 L10.7187,-17.2396 L10.7187,-11.7224 L14.0904,-11.7224 L14.0904,-12.6419 L11.6383,-12.6419 L11.6383,-17.2396 Z M11.6383,-25.5155 L10.7187,-25.5155 L10.7187,-19.9983 L14.0904,-19.9983 L14.0904,-20.9178 L11.6383,-20.9178 L11.6383,-25.5155 Z M11.6383,-33.7914 L10.7187,-33.7914 L10.7187,-28.2742 L14.0904,-28.2742 L14.0904,-29.1937 L11.6383,-29.1937 L11.6383,-33.7914 Z M11.6383,-42.0673 L10.7187,-42.0673 L10.7187,-36.5501 L14.0904,-36.5501 L14.0904,-37.4696 L11.6383,-37.4696 L11.6383,-42.0673 Z M17.7686,-8.9638 L16.8490,-8.9638 L16.8490,-3.4465 L20.2207,-3.4465 L20.2207,-4.3660 L17.7686,-4.3660 L17.7686,-8.9638 Z M17.7686,-17.2396 L16.8490,-17.2396 L16.8490,-11.7224 L20.2207,-11.7224 L20.2207,-12.6419 L17.7686,-12.6419 L17.7686,-17.2396 Z M17.7686,-25.5155 L16.8490,-25.5155 L16.8490,-19.9983 L20.2207,-19.9983 L20.2207,-20.9178 L17.7686,-20.9178 L17.7686,-25.5155 Z M17.7686,-33.7914 L16.8490,-33.7914 L16.8490,-28.2742 L20.2207,-28.2742 L20.2207,-29.1937 L17.7686,-29.1937 L17.7686,-33.7914 Z M35.8529,-42.0673 L34.9334,-42.0673 L34.9334,-36.5501 L38.3050,-36.5501 L38.3050,-37.4696 L35.8529,-37.4696 L35.8529,-42.0673 Z M29.7226,-33.7914 L28.8031,-33.7914 L28.8031,-28.2742 L32.1747,-28.2742 L32.1747,-29.1937 L29.7226,-29.1937 L29.7226,-33.7914 Z M23.5923,-8.9638 L22.9793,-8.9638 L22.9793,-3.4465 L26.3510,-3.4465 L26.3510,-4.3660 L23.5923,-4.3660 L23.5923,-8.9638 Z M23.5923,-17.2396 L22.9793,-17.2396 L22.9793,-11.7224 L26.3510,-11.7224 L26.3510,-12.6419 L23.5923,-12.6419 L23.5923,-17.2396 Z M23.5923,-25.5155 L22.9793,-25.5155 L22.9793,-19.9983 L26.3510,-19.9983 L26.3510,-20.9178 L23.5923,-20.9178 L23.5923,-25.5155 Z M23.5923,-33.7914 L22.9793,-33.7914 L22.9793,-28.2742 L26.3510,-28.2742 L26.3510,-29.1937 L23.5923,-29.1937 L23.5923,-33.7914 Z M29.7226,-8.9638 L28.8031,-8.9638 L28.8031,-3.4465 L32.1747,-3.4465 L32.1747,-4.3660 L29.7226,-4.3660 L29.7226,-8.9638 Z M29.7226,-17.2396 L28.8031,-17.2396 L28.8031,-11.7224 L32.1747,-11.7224 L32.1747,-12.6419 L29.7226,-12.6419 L29.7226,-17.2396 Z M29.7226,-25.5155 L28.8031,-25.5155 L28.8031,-19.9983 L32.1747,-19.9983 L32.1747,-20.9178 L29.7226,-20.9178 L29.7226,-25.5155 Z M23.5923,-42.0673 L22.9793,-42.0673 L22.9793,-36.5501 L26.3510,-36.5501 L26.3510,-37.4696 L23.5923,-37.4696 L23.5923,-42.0673 Z M29.7226,-42.0673 L28.8031,-42.0673 L28.8031,-36.5501 L32.1747,-36.5501 L32.1747,-37.4696 L29.7226,-37.4696 L29.7226,-42.0673 Z M35.8529,-8.9638 L34.9334,-8.9638 L34.9334,-3.4465 L38.3050,-3.4465 L38.3050,-4.3660 L35.8529,-4.3660 L35.8529,-8.9638 Z M35.8529,-17.2396 L34.9334,-17.2396 L34.9334,-11.7224 L38.3050,-11.7224 L38.3050,-12.6419 L35.8529,-12.6419 L35.8529,-17.2396 Z M35.8529,-25.5155 L34.9334,-25.5155 L34.9334,-19.9983 L38.3050,-19.9983 L38.3050,-20.9178 L35.8529,-20.9178 L35.8529,-25.5155 Z M35.8529,-33.7914 L34.9334,-33.7914 L34.9334,-28.2742 L38.3050,-28.2742 L38.3050,-29.1937 L35.8529,-29.1937 L35.8529,-33.7914 Z" style="fill-rule: evenodd; fill: #e6e6e6; "/>
    <text xmlns="http://www.w3.org/2000/svg" x="-9.2590" y="14.2622">
      <tspan font-family="Arial" font-size="4.5000" fill="#000000" fill-opacity="1.0000" stroke-opacity="1.0000">
Branch Office</tspan>
    </text>
    <!--converted by libvisio2svg-->
  </g>
</svg>
