<svg xmlns="http://www.w3.org/2000/svg" xmlns:xlink="http://www.w3.org/1999/xlink" version="1.1" width="21.6000000000" height="7.2000000000">
  <title><![CDATA[Cell Phone]]></title>
  <g transform=" scale(1.000000) ">
    <path xmlns="http://www.w3.org/2000/svg" d="  M14.5648,-41.7419 C14.5648,-35.3197 14.5648,-35.3197 14.5648,-35.3197 C14.5648,-34.6553 15.0077,-33.9909 15.8935,-33.9909 C16.5579,-33.9909 17.0008,-34.6553 17.0008,-35.3197 C17.0008,-41.7419 17.0008,-41.7419 17.0008,-41.7419 C17.0008,-42.4063 16.5579,-42.8492 15.8935,-42.8492 C15.0077,-42.8492 14.5648,-42.4063 14.5648,-41.7419 Z" style="fill-rule: evenodd; fill: #333333; "/>
    <path xmlns="http://www.w3.org/2000/svg" d="  M21.6514,-0.3295 C21.6514,1.8850 19.8797,7.2000 17.8866,7.2000 C3.7134,7.2000 3.7134,7.2000 3.7134,7.2000 C1.7203,7.2000 -0.0514,1.8850 -0.0514,-0.3295 C-0.0514,-30.2262 -0.0514,-30.2262 -0.0514,-30.2262 C-0.0514,-32.2193 1.7203,-37.5343 3.7134,-37.5343 C17.8866,-37.5343 17.8866,-37.5343 17.8866,-37.5343 C19.8797,-37.5343 21.6514,-32.2193 21.6514,-30.2262 C21.6514,-0.3295 21.6514,-0.3295 21.6514,-0.3295 Z" style="fill-rule: evenodd; fill: #7f7f7f; "/>
    <path xmlns="http://www.w3.org/2000/svg" d="  M19.2154,-21.4523 C19.2154,-19.4592 17.6652,-17.9090 15.6720,-17.9090 C5.9280,-17.9090 5.9280,-17.9090 5.9280,-17.9090 C3.9348,-17.9090 2.3846,-19.4592 2.3846,-21.4523 C2.3846,-28.5389 2.3846,-28.5389 2.3846,-28.5389 C2.3846,-30.5320 3.9348,-32.0822 5.9280,-32.0822 C15.6720,-32.0822 15.6720,-32.0822 15.6720,-32.0822 C17.6652,-32.0822 19.2154,-30.5320 19.2154,-28.5389 C19.2154,-21.4523 19.2154,-21.4523 19.2154,-21.4523 Z" style="fill-rule: evenodd; fill: #b3b3b3; "/>
    <path xmlns="http://www.w3.org/2000/svg" d="  M5.9280,-32.4407 C3.7134,-32.4407 1.9417,-30.4476 1.9417,-28.4545 C1.9417,-21.3679 1.9417,-21.3679 1.9417,-21.3679 C1.9417,-19.3748 3.7134,-17.6031 5.9280,-17.6031 C15.6720,-17.6031 15.6720,-17.6031 15.6720,-17.6031 C17.8866,-17.6031 19.6583,-19.3748 19.6583,-21.3679 C19.6583,-28.4545 19.6583,-28.4545 19.6583,-28.4545 C19.6583,-30.4476 17.8866,-32.4407 15.6720,-32.4407 C5.9280,-32.4407 5.9280,-32.4407 5.9280,-32.4407 Z M2.6061,-21.3679 C2.6061,-28.4545 2.6061,-28.4545 2.6061,-28.4545 C2.6061,-30.2262 4.1563,-31.7764 5.9280,-31.7764 C15.6720,-31.7764 15.6720,-31.7764 15.6720,-31.7764 C17.4437,-31.7764 18.9939,-30.2262 18.9939,-28.4545 C18.9939,-21.3679 18.9939,-21.3679 18.9939,-21.3679 C18.9939,-19.5963 17.4437,-18.0461 15.6720,-18.0461 C5.9280,-18.0461 5.9280,-18.0461 5.9280,-18.0461 C4.1563,-18.0461 2.6061,-19.5963 2.6061,-21.3679 Z" style="fill-rule: evenodd; fill: #ffffff; "/>
    <path xmlns="http://www.w3.org/2000/svg" d="  M7.0346,-2.3226 C7.0346,-1.4370 5.9276,-0.7728 4.3778,-0.7728 C3.0494,-0.7728 1.9424,-1.4370 1.9424,-2.3226 C1.9424,-2.9868 3.0494,-3.8724 4.3778,-3.8724 C5.9276,-3.8724 7.0346,-2.9868 7.0346,-2.3226 Z M13.3461,-2.3226 C13.3461,-1.4370 12.0177,-0.7728 10.6893,-0.7728 C9.3609,-0.7728 8.2539,-1.4370 8.2539,-2.3226 C8.2539,-2.9868 9.3609,-3.8724 10.6893,-3.8724 C12.0177,-3.8724 13.3461,-2.9868 13.3461,-2.3226 Z M19.6576,-2.3226 C19.6576,-1.4370 18.5506,-0.7728 17.2222,-0.7728 C15.6724,-0.7728 14.5654,-1.4370 14.5654,-2.3226 C14.5654,-2.9868 15.6724,-3.8724 17.2222,-3.8724 C18.5506,-3.8724 19.6576,-2.9868 19.6576,-2.3226 Z M7.0346,-6.0874 C7.0346,-5.2018 5.9276,-4.5376 4.3778,-4.5376 C3.0494,-4.5376 1.9424,-5.2018 1.9424,-6.0874 C1.9424,-6.9730 3.0494,-7.6372 4.3778,-7.6372 C5.9276,-7.6372 7.0346,-6.9730 7.0346,-6.0874 Z M7.0346,-9.8522 C7.0346,-8.9666 5.9276,-8.3024 4.3778,-8.3024 C3.0494,-8.3024 1.9424,-8.9666 1.9424,-9.8522 C1.9424,-10.7378 3.0494,-11.4020 4.3778,-11.4020 C5.9276,-11.4020 7.0346,-10.7378 7.0346,-9.8522 Z M7.0346,-13.6169 C7.0346,-12.7313 5.9276,-12.0671 4.3778,-12.0671 C3.0494,-12.0671 1.9424,-12.7313 1.9424,-13.6169 C1.9424,-14.5025 3.0494,-15.1667 4.3778,-15.1667 C5.9276,-15.1667 7.0346,-14.5025 7.0346,-13.6169 Z M13.3461,-13.6169 C13.3461,-12.7313 12.0177,-12.0671 10.6893,-12.0671 C9.3609,-12.0671 8.2539,-12.7313 8.2539,-13.6169 C8.2539,-14.5025 9.3609,-15.1667 10.6893,-15.1667 C12.0177,-15.1667 13.3461,-14.5025 13.3461,-13.6169 Z M13.3461,-9.8522 C13.3461,-8.9666 12.0177,-8.3024 10.6893,-8.3024 C9.3609,-8.3024 8.2539,-8.9666 8.2539,-9.8522 C8.2539,-10.7378 9.3609,-11.4020 10.6893,-11.4020 C12.0177,-11.4020 13.3461,-10.7378 13.3461,-9.8522 Z M13.3461,-6.0874 C13.3461,-5.2018 12.0177,-4.5376 10.6893,-4.5376 C9.3609,-4.5376 8.2539,-5.2018 8.2539,-6.0874 C8.2539,-6.9730 9.3609,-7.6372 10.6893,-7.6372 C12.0177,-7.6372 13.3461,-6.9730 13.3461,-6.0874 Z M19.6576,-6.0874 C19.6576,-5.2018 18.5506,-4.5376 17.2222,-4.5376 C15.6724,-4.5376 14.5654,-5.2018 14.5654,-6.0874 C14.5654,-6.9730 15.6724,-7.6372 17.2222,-7.6372 C18.5506,-7.6372 19.6576,-6.9730 19.6576,-6.0874 Z M19.6576,-9.8522 C19.6576,-8.9666 18.5506,-8.3024 17.2222,-8.3024 C15.6724,-8.3024 14.5654,-8.9666 14.5654,-9.8522 C14.5654,-10.7378 15.6724,-11.4020 17.2222,-11.4020 C18.5506,-11.4020 19.6576,-10.7378 19.6576,-9.8522 Z M19.6576,-13.6169 C19.6576,-12.7313 18.5506,-12.0671 17.2222,-12.0671 C15.6724,-12.0671 14.5654,-12.7313 14.5654,-13.6169 C14.5654,-14.5025 15.6724,-15.1667 17.2222,-15.1667 C18.5506,-15.1667 19.6576,-14.5025 19.6576,-13.6169 Z" style="fill-rule: evenodd; fill: #333333; "/>
    <text xmlns="http://www.w3.org/2000/svg" x="-6.8400" y="18.1200">
      <tspan font-family="Arial" font-size="4.5000" fill="#000000" fill-opacity="1.0000" stroke-opacity="1.0000">
Cell Phone</tspan>
    </text>
    <!--converted by libvisio2svg-->
  </g>
</svg>
