<svg xmlns="http://www.w3.org/2000/svg" xmlns:xlink="http://www.w3.org/1999/xlink" version="1.1" width="136.0800000000" height="7.2000000000">
  <title><![CDATA[Competitors Storage (3)]]></title>
  <g transform=" scale(1.000000) ">
    <path xmlns="http://www.w3.org/2000/svg" d="  M57.3411,-124.7835 L-0.4016,-124.7835 L-0.4016,7.2000 L57.3411,7.2000 L57.3411,-124.7835 Z M115.4589,-124.7835 L57.3411,-124.7835 L57.3411,7.2000 L115.4589,7.2000 L115.4589,-124.7835 Z M173.2016,-124.7835 L115.4589,-124.7835 L115.4589,7.2000 L173.2016,7.2000 L173.2016,-124.7835 Z" style="fill-rule: evenodd; fill: #7f7f7f; "/>
    <path xmlns="http://www.w3.org/2000/svg" d="  M115.4589,-124.7835 L115.4589,7.2000 M57.3411,-124.7835 L57.3411,7.2000" style="stroke-width: 0.0295; stroke: #333333; stroke-dasharray: none; stroke-linecap: butt; stroke-linejoin: miter; fill: none; "/>
    <path xmlns="http://www.w3.org/2000/svg" d="  M57.3411,-124.7835 L-0.4016,-124.7835 L2.5980,-129.2829 L54.3415,-129.2829 L57.3411,-124.7835 Z M115.4589,-124.7835 L57.3411,-124.7835 L60.3408,-129.2829 L112.4592,-129.2829 L115.4589,-124.7835 Z M173.2016,-124.7835 L115.4589,-124.7835 L118.0835,-129.2829 L170.2020,-129.2829 L173.2016,-124.7835 Z" style="fill-rule: evenodd; fill: #b3b3b3; "/>
    <path xmlns="http://www.w3.org/2000/svg" d="  M57.3411,-124.7835 C57.3411,-124.7835 44.5927,-119.1592 28.4697,-119.1592 C12.7217,-119.1592 -0.4016,-124.7835 -0.4016,-124.7835 C57.3411,-124.7835 57.3411,-124.7835 57.3411,-124.7835 Z M115.4589,-124.7835 C115.4589,-124.7835 102.3355,-119.1592 86.2125,-119.1592 C70.4645,-119.1592 57.3411,-124.7835 57.3411,-124.7835 C115.4589,-124.7835 115.4589,-124.7835 115.4589,-124.7835 Z M173.2016,-124.7835 C173.2016,-124.7835 160.0783,-119.1592 144.3303,-119.1592 C128.2073,-119.1592 115.4589,-124.7835 115.4589,-124.7835 C173.2016,-124.7835 173.2016,-124.7835 173.2016,-124.7835 Z" style="fill-rule: evenodd; fill: #b3b3b3; "/>
    <path xmlns="http://www.w3.org/2000/svg" d="  M147.6977,-65.5415 L119.9583,-65.5415 L119.9583,-70.0398 L147.6977,-70.0398 L147.6977,-65.5415 Z M147.6977,-58.1674 L119.9583,-58.1674 L119.9583,-62.6657 L147.6977,-62.6657 L147.6977,-58.1674 Z M147.6977,-50.7933 L119.9583,-50.7933 L119.9583,-55.2916 L147.6977,-55.2916 L147.6977,-50.7933 Z M147.6977,-43.4192 L119.9583,-43.4192 L119.9583,-47.9175 L147.6977,-47.9175 L147.6977,-43.4192 Z M147.6977,-36.0452 L119.9583,-36.0452 L119.9583,-40.5435 L147.6977,-40.5435 L147.6977,-36.0452 Z M147.6977,-28.6711 L119.9583,-28.6711 L119.9583,-33.1694 L147.6977,-33.1694 L147.6977,-28.6711 Z M147.6977,-21.2970 L119.9583,-21.2970 L119.9583,-25.7953 L147.6977,-25.7953 L147.6977,-21.2970 Z M147.6977,-13.9229 L119.9583,-13.9229 L119.9583,-18.4212 L147.6977,-18.4212 L147.6977,-13.9229 Z M147.6977,-6.5489 L119.9583,-6.5489 L119.9583,-11.0471 L147.6977,-11.0471 L147.6977,-6.5489 Z M147.6977,0.8252 L119.9583,0.8252 L119.9583,-3.6731 L147.6977,-3.6731 L147.6977,0.8252 Z M89.9567,-65.5415 L62.2173,-65.5415 L62.2173,-70.0398 L89.9567,-70.0398 L89.9567,-65.5415 Z M89.9567,-58.1674 L62.2173,-58.1674 L62.2173,-62.6657 L89.9567,-62.6657 L89.9567,-58.1674 Z M89.9567,-50.7933 L62.2173,-50.7933 L62.2173,-55.2916 L89.9567,-55.2916 L89.9567,-50.7933 Z M89.9567,-43.4192 L62.2173,-43.4192 L62.2173,-47.9175 L89.9567,-47.9175 L89.9567,-43.4192 Z M89.9567,-36.0452 L62.2173,-36.0452 L62.2173,-40.5435 L89.9567,-40.5435 L89.9567,-36.0452 Z M89.9567,-28.6711 L62.2173,-28.6711 L62.2173,-33.1694 L89.9567,-33.1694 L89.9567,-28.6711 Z M89.9567,-21.2970 L62.2173,-21.2970 L62.2173,-25.7953 L89.9567,-25.7953 L89.9567,-21.2970 Z M89.9567,-13.9229 L62.2173,-13.9229 L62.2173,-18.4212 L89.9567,-18.4212 L89.9567,-13.9229 Z M89.9567,-6.5489 L62.2173,-6.5489 L62.2173,-11.0471 L89.9567,-11.0471 L89.9567,-6.5489 Z M89.9567,0.8252 L62.2173,0.8252 L62.2173,-3.6731 L89.9567,-3.6731 L89.9567,0.8252 Z M32.2157,-65.5415 L4.4763,-65.5415 L4.4763,-70.0398 L32.2157,-70.0398 L32.2157,-65.5415 Z M32.2157,-58.1674 L4.4763,-58.1674 L4.4763,-62.6657 L32.2157,-62.6657 L32.2157,-58.1674 Z M32.2157,-50.7933 L4.4763,-50.7933 L4.4763,-55.2916 L32.2157,-55.2916 L32.2157,-50.7933 Z M32.2157,-43.4192 L4.4763,-43.4192 L4.4763,-47.9175 L32.2157,-47.9175 L32.2157,-43.4192 Z M32.2157,-36.0452 L4.4763,-36.0452 L4.4763,-40.5435 L32.2157,-40.5435 L32.2157,-36.0452 Z M32.2157,-28.6711 L4.4763,-28.6711 L4.4763,-33.1694 L32.2157,-33.1694 L32.2157,-28.6711 Z M32.2157,-21.2970 L4.4763,-21.2970 L4.4763,-25.7953 L32.2157,-25.7953 L32.2157,-21.2970 Z M32.2157,-13.9229 L4.4763,-13.9229 L4.4763,-18.4212 L32.2157,-18.4212 L32.2157,-13.9229 Z M32.2157,-6.5489 L4.4763,-6.5489 L4.4763,-11.0471 L32.2157,-11.0471 L32.2157,-6.5489 Z M32.2157,0.8252 L4.4763,0.8252 L4.4763,-3.6731 L32.2157,-3.6731 L32.2157,0.8252 Z M154.4540,0.8258 L151.4544,0.8258 L151.4544,-117.2844 L154.4540,-117.2844 L154.4540,0.8258 Z M166.0775,-76.4145 L156.7037,-76.4145 L156.7037,-102.6613 L166.0775,-102.6613 L166.0775,-76.4145 Z M166.0775,-104.9110 L156.7037,-104.9110 L156.7037,-109.7854 L166.0775,-109.7854 L166.0775,-104.9110 Z" style="fill-rule: evenodd; fill: #333333; "/>
    <text xmlns="http://www.w3.org/2000/svg" x="-46.0495" y="15.8857">
      <tspan font-family="Arial" font-size="4.5000" fill="#000000" fill-opacity="1.0000" stroke-opacity="1.0000">
Competitors Storage (3)</tspan>
    </text>
    <!--converted by libvisio2svg-->
  </g>
</svg>
