<svg xmlns="http://www.w3.org/2000/svg" xmlns:xlink="http://www.w3.org/1999/xlink" version="1.1" width="45.3600000000" height="7.2000000000">
  <title><![CDATA[Competitors Storage]]></title>
  <g transform=" scale(1.000000) ">
    <path xmlns="http://www.w3.org/2000/svg" d="  M57.6714,-124.7835 L-0.0714,-124.7835 L-0.0714,7.2000 L57.6714,7.2000 L57.6714,-124.7835 Z" style="fill-rule: evenodd; fill: #7f7f7f; "/>
    <path xmlns="http://www.w3.org/2000/svg" d="  M57.6714,-124.7835 C57.6714,-124.7835 44.9230,-119.1592 28.8000,-119.1592 C13.0520,-119.1592 -0.0714,-124.7835 -0.0714,-124.7835 C57.6714,-124.7835 57.6714,-124.7835 57.6714,-124.7835 Z" style="fill-rule: evenodd; fill: #b3b3b3; "/>
    <path xmlns="http://www.w3.org/2000/svg" d="  M31.9745,-65.5415 L3.8602,-65.5415 L3.8602,-70.0398 L31.9745,-70.0398 L31.9745,-65.5415 Z M31.9745,-58.1674 L3.8602,-58.1674 L3.8602,-62.6657 L31.9745,-62.6657 L31.9745,-58.1674 Z M31.9745,-50.7933 L3.8602,-50.7933 L3.8602,-55.2916 L31.9745,-55.2916 L31.9745,-50.7933 Z M31.9745,-43.4192 L3.8602,-43.4192 L3.8602,-47.9175 L31.9745,-47.9175 L31.9745,-43.4192 Z M31.9745,-36.0452 L3.8602,-36.0452 L3.8602,-40.5435 L31.9745,-40.5435 L31.9745,-36.0452 Z M31.9745,-28.6711 L3.8602,-28.6711 L3.8602,-33.1694 L31.9745,-33.1694 L31.9745,-28.6711 Z M31.9745,-21.2970 L3.8602,-21.2970 L3.8602,-25.7953 L31.9745,-25.7953 L31.9745,-21.2970 Z M31.9745,-13.9229 L3.8602,-13.9229 L3.8602,-18.4212 L31.9745,-18.4212 L31.9745,-13.9229 Z M31.9745,-6.5489 L3.8602,-6.5489 L3.8602,-11.0471 L31.9745,-11.0471 L31.9745,-6.5489 Z M31.9745,0.8252 L3.8602,0.8252 L3.8602,-3.6731 L31.9745,-3.6731 L31.9745,0.8252 Z M38.9237,0.8258 L35.9241,0.8258 L35.9241,-117.2844 L38.9237,-117.2844 L38.9237,0.8258 Z M50.5473,-76.4145 L41.5484,-76.4145 L41.5484,-102.6613 L50.5473,-102.6613 L50.5473,-76.4145 Z M50.5473,-104.9110 L41.5484,-104.9110 L41.5484,-109.7854 L50.5473,-109.7854 L50.5473,-104.9110 Z" style="fill-rule: evenodd; fill: #333333; "/>
    <path xmlns="http://www.w3.org/2000/svg" d="  M57.6714,-124.6883 L-0.0714,-124.6883 L2.9282,-129.1877 L54.6718,-129.1877 L57.6714,-124.6883 Z" style="fill-rule: evenodd; fill: #b3b3b3; "/>
    <text xmlns="http://www.w3.org/2000/svg" x="-13.1548" y="20.5959">
      <tspan font-family="Arial" font-size="4.5000" fill="#000000" fill-opacity="1.0000" stroke-opacity="1.0000">
Competitors Storage</tspan>
    </text>
    <!--converted by libvisio2svg-->
  </g>
</svg>
