<svg xmlns="http://www.w3.org/2000/svg" xmlns:xlink="http://www.w3.org/1999/xlink" version="1.1" width="43.2000000000" height="7.2000000000">
  <title><![CDATA[Database Volume]]></title>
  <g transform=" scale(1.000000) ">
    <g xmlns="http://www.w3.org/2000/svg" id="Layer1032">
      <defs>
        <linearGradient id="grad17">
          <stop offset="0%" stop-color="#cdcdcd" stop-opacity="1.0000"/>
          <stop offset="100%" stop-color="#1a1a1a" stop-opacity="1.0000"/>
        </linearGradient>
      </defs>
      <path d="  M44.4839,2.6587 C44.4839,5.3161 34.4445,9.4500 21.7476,9.4500 C9.0508,9.4500 -1.2839,5.3161 -1.2839,2.6587 C-1.2839,-37.7941 -1.2839,-37.7941 -1.2839,-37.7941 C-1.2839,-35.1366 9.0508,-33.0697 21.7476,-33.0697 C34.4445,-33.0697 44.4839,-35.1366 44.4839,-37.7941 C44.4839,2.6587 44.4839,2.6587 44.4839,2.6587 Z" style="stroke-width: 0.0000; stroke-linecap: round; stroke-linejoin: round; fill-rule: evenodd; fill: url(#grad17); "/>
      <path d="  M44.4839,2.6587 C44.4839,5.3161 34.4445,9.4500 21.7476,9.4500 C9.0508,9.4500 -1.2839,5.3161 -1.2839,2.6587 C-1.2839,-37.7941 -1.2839,-37.7941 -1.2839,-37.7941 C-1.2839,-35.1366 9.0508,-33.0697 21.7476,-33.0697 C34.4445,-33.0697 44.4839,-35.1366 44.4839,-37.7941 C44.4839,2.6587 44.4839,2.6587 44.4839,2.6587 Z" style="stroke-width: 0.0000; stroke: #c0c0c0; stroke-dasharray: none; stroke-linecap: round; stroke-linejoin: round; fill: none; "/>
    </g>
    <path xmlns="http://www.w3.org/2000/svg" d="  M1.3500,-0.4230 C1.3500,1.7436 1.3500,1.7436 1.3500,1.7436 C1.3500,2.0531 1.6640,2.0531 1.6640,2.0531 C1.9779,2.0531 2.2919,2.0531 2.2919,1.7436 C2.2919,-0.4230 2.2919,-0.4230 2.2919,-0.4230 C2.2919,-0.7325 1.9779,-0.7325 1.6640,-0.7325 C1.6640,-0.7325 1.3500,-0.7325 1.3500,-0.4230 Z M1.3500,-5.4009 C1.3500,-3.2344 1.3500,-3.2344 1.3500,-3.2344 C1.3500,-2.9248 1.6640,-2.9248 1.6640,-2.9248 C1.9779,-2.9248 2.2919,-2.9248 2.2919,-3.2344 C2.2919,-5.4009 2.2919,-5.4009 2.2919,-5.4009 C2.2919,-5.7104 1.9779,-5.7104 1.6640,-5.7104 C1.6640,-5.7104 1.3500,-5.7104 1.3500,-5.4009 Z M1.3500,-10.3788 C1.3500,-8.2123 1.3500,-8.2123 1.3500,-8.2123 C1.3500,-7.9028 1.6640,-7.9028 1.6640,-7.9028 C1.9779,-7.9028 2.2919,-7.9028 2.2919,-8.2123 C2.2919,-10.3788 2.2919,-10.3788 2.2919,-10.3788 C2.2919,-10.6883 1.9779,-10.6883 1.6640,-10.6883 C1.6640,-10.6883 1.3500,-10.6883 1.3500,-10.3788 Z M1.3500,-15.3567 C1.3500,-13.1902 1.3500,-13.1902 1.3500,-13.1902 C1.3500,-12.8807 1.6640,-12.8807 1.6640,-12.8807 C1.9779,-12.8807 2.2919,-12.8807 2.2919,-13.1902 C2.2919,-15.3567 2.2919,-15.3567 2.2919,-15.3567 C2.2919,-15.6662 1.9779,-15.6662 1.6640,-15.6662 C1.6640,-15.6662 1.3500,-15.6662 1.3500,-15.3567 Z M1.3500,-20.3347 C1.3500,-18.1681 1.3500,-18.1681 1.3500,-18.1681 C1.3500,-17.8586 1.6640,-17.8586 1.6640,-17.8586 C1.9779,-17.8586 2.2919,-17.8586 2.2919,-18.1681 C2.2919,-20.3347 2.2919,-20.3347 2.2919,-20.3347 C2.2919,-20.6442 1.9779,-20.6442 1.6640,-20.6442 C1.6640,-20.6442 1.3500,-20.6442 1.3500,-20.3347 Z M1.3500,-25.3126 C1.3500,-23.1460 1.3500,-23.1460 1.3500,-23.1460 C1.3500,-22.8365 1.6640,-22.8365 1.6640,-22.8365 C1.9779,-22.8365 2.2919,-22.8365 2.2919,-23.1460 C2.2919,-25.3126 2.2919,-25.3126 2.2919,-25.3126 C2.2919,-25.6221 1.9779,-25.6221 1.6640,-25.6221 C1.6640,-25.6221 1.3500,-25.6221 1.3500,-25.3126 Z M1.3500,-30.2905 C1.3500,-28.1239 1.3500,-28.1239 1.3500,-28.1239 C1.3500,-27.8144 1.6640,-27.8144 1.6640,-27.8144 C1.9779,-27.8144 2.2919,-27.8144 2.2919,-28.1239 C2.2919,-30.2905 2.2919,-30.2905 2.2919,-30.2905 C2.2919,-30.6000 1.9779,-30.6000 1.6640,-30.6000 C1.6640,-30.6000 1.3500,-30.6000 1.3500,-30.2905 Z M3.6769,0.4909 C3.6769,2.6575 3.6769,2.6575 3.6769,2.6575 C3.6769,2.9670 3.9909,2.9670 3.9909,2.9670 C4.3049,2.9670 4.6188,2.9670 4.6188,2.6575 C4.6188,0.4909 4.6188,0.4909 4.6188,0.4909 C4.6188,0.1814 4.3049,0.1814 3.9909,0.1814 C3.9909,0.1814 3.6769,0.1814 3.6769,0.4909 Z M3.6769,-4.4870 C3.6769,-2.3205 3.6769,-2.3205 3.6769,-2.3205 C3.6769,-2.0109 3.9909,-2.0109 3.9909,-2.0109 C4.3049,-2.0109 4.6188,-2.0109 4.6188,-2.3205 C4.6188,-4.4870 4.6188,-4.4870 4.6188,-4.4870 C4.6188,-4.7965 4.3049,-4.7965 3.9909,-4.7965 C3.9909,-4.7965 3.6769,-4.7965 3.6769,-4.4870 Z M3.6769,-9.4649 C3.6769,-7.2984 3.6769,-7.2984 3.6769,-7.2984 C3.6769,-6.9889 3.9909,-6.9889 3.9909,-6.9889 C4.3049,-6.9889 4.6188,-6.9889 4.6188,-7.2984 C4.6188,-9.4649 4.6188,-9.4649 4.6188,-9.4649 C4.6188,-9.7744 4.3049,-9.7744 3.9909,-9.7744 C3.9909,-9.7744 3.6769,-9.7744 3.6769,-9.4649 Z M3.6769,-14.4428 C3.6769,-12.2763 3.6769,-12.2763 3.6769,-12.2763 C3.6769,-11.9668 3.9909,-11.9668 3.9909,-11.9668 C4.3049,-11.9668 4.6188,-11.9668 4.6188,-12.2763 C4.6188,-14.4428 4.6188,-14.4428 4.6188,-14.4428 C4.6188,-14.7523 4.3049,-14.7523 3.9909,-14.7523 C3.9909,-14.7523 3.6769,-14.7523 3.6769,-14.4428 Z M3.6769,-19.4208 C3.6769,-17.2542 3.6769,-17.2542 3.6769,-17.2542 C3.6769,-16.9447 3.9909,-16.9447 3.9909,-16.9447 C4.3049,-16.9447 4.6188,-16.9447 4.6188,-17.2542 C4.6188,-19.4208 4.6188,-19.4208 4.6188,-19.4208 C4.6188,-19.7303 4.3049,-19.7303 3.9909,-19.7303 C3.9909,-19.7303 3.6769,-19.7303 3.6769,-19.4208 Z M3.6769,-24.3987 C3.6769,-22.2321 3.6769,-22.2321 3.6769,-22.2321 C3.6769,-21.9226 3.9909,-21.9226 3.9909,-21.9226 C4.3049,-21.9226 4.6188,-21.9226 4.6188,-22.2321 C4.6188,-24.3987 4.6188,-24.3987 4.6188,-24.3987 C4.6188,-24.7082 4.3049,-24.7082 3.9909,-24.7082 C3.9909,-24.7082 3.6769,-24.7082 3.6769,-24.3987 Z M3.6769,-29.3766 C3.6769,-27.2100 3.6769,-27.2100 3.6769,-27.2100 C3.6769,-26.9005 3.9909,-26.9005 3.9909,-26.9005 C4.3049,-26.9005 4.6188,-26.9005 4.6188,-27.2100 C4.6188,-29.3766 4.6188,-29.3766 4.6188,-29.3766 C4.6188,-29.6861 4.3049,-29.6861 3.9909,-29.6861 C3.9909,-29.6861 3.6769,-29.6861 3.6769,-29.3766 Z M6.0039,1.1690 C6.0039,3.3355 6.0039,3.3355 6.0039,3.3355 C6.0039,3.6450 6.3179,3.6450 6.3179,3.6450 C6.6318,3.6450 6.9458,3.6450 6.9458,3.3355 C6.9458,1.1690 6.9458,1.1690 6.9458,1.1690 C6.9458,0.8595 6.6318,0.8595 6.3179,0.8595 C6.3179,0.8595 6.0039,0.8595 6.0039,1.1690 Z M6.0039,-3.8090 C6.0039,-1.6424 6.0039,-1.6424 6.0039,-1.6424 C6.0039,-1.3329 6.3179,-1.3329 6.3179,-1.3329 C6.6318,-1.3329 6.9458,-1.3329 6.9458,-1.6424 C6.9458,-3.8090 6.9458,-3.8090 6.9458,-3.8090 C6.9458,-4.1185 6.6318,-4.1185 6.3179,-4.1185 C6.3179,-4.1185 6.0039,-4.1185 6.0039,-3.8090 Z M6.0039,-8.7869 C6.0039,-6.6203 6.0039,-6.6203 6.0039,-6.6203 C6.0039,-6.3108 6.3179,-6.3108 6.3179,-6.3108 C6.6318,-6.3108 6.9458,-6.3108 6.9458,-6.6203 C6.9458,-8.7869 6.9458,-8.7869 6.9458,-8.7869 C6.9458,-9.0964 6.6318,-9.0964 6.3179,-9.0964 C6.3179,-9.0964 6.0039,-9.0964 6.0039,-8.7869 Z M6.0039,-13.7648 C6.0039,-11.5982 6.0039,-11.5982 6.0039,-11.5982 C6.0039,-11.2887 6.3179,-11.2887 6.3179,-11.2887 C6.6318,-11.2887 6.9458,-11.2887 6.9458,-11.5982 C6.9458,-13.7648 6.9458,-13.7648 6.9458,-13.7648 C6.9458,-14.0743 6.6318,-14.0743 6.3179,-14.0743 C6.3179,-14.0743 6.0039,-14.0743 6.0039,-13.7648 Z M6.0039,-18.7427 C6.0039,-16.5761 6.0039,-16.5761 6.0039,-16.5761 C6.0039,-16.2666 6.3179,-16.2666 6.3179,-16.2666 C6.6318,-16.2666 6.9458,-16.2666 6.9458,-16.5761 C6.9458,-18.7427 6.9458,-18.7427 6.9458,-18.7427 C6.9458,-19.0522 6.6318,-19.0522 6.3179,-19.0522 C6.3179,-19.0522 6.0039,-19.0522 6.0039,-18.7427 Z M6.0039,-23.7206 C6.0039,-21.5541 6.0039,-21.5541 6.0039,-21.5541 C6.0039,-21.2446 6.3179,-21.2446 6.3179,-21.2446 C6.6318,-21.2446 6.9458,-21.2446 6.9458,-21.5541 C6.9458,-23.7206 6.9458,-23.7206 6.9458,-23.7206 C6.9458,-24.0301 6.6318,-24.0301 6.3179,-24.0301 C6.3179,-24.0301 6.0039,-24.0301 6.0039,-23.7206 Z M6.0039,-28.6985 C6.0039,-26.5320 6.0039,-26.5320 6.0039,-26.5320 C6.0039,-26.2225 6.3179,-26.2225 6.3179,-26.2225 C6.6318,-26.2225 6.9458,-26.2225 6.9458,-26.5320 C6.9458,-28.6985 6.9458,-28.6985 6.9458,-28.6985 C6.9458,-29.0080 6.6318,-29.0080 6.3179,-29.0080 C6.3179,-29.0080 6.0039,-29.0080 6.0039,-28.6985 Z M8.3308,1.7291 C8.3308,3.8957 8.3308,3.8957 8.3308,3.8957 C8.3308,4.2052 8.6448,4.2052 8.6448,4.2052 C8.9588,4.2052 9.2727,4.2052 9.2727,3.8957 C9.2727,1.7291 9.2727,1.7291 9.2727,1.7291 C9.2727,1.4196 8.9588,1.4196 8.6448,1.4196 C8.6448,1.4196 8.3308,1.4196 8.3308,1.7291 Z M8.3308,-3.2488 C8.3308,-1.0823 8.3308,-1.0823 8.3308,-1.0823 C8.3308,-0.7728 8.6448,-0.7728 8.6448,-0.7728 C8.9588,-0.7728 9.2727,-0.7728 9.2727,-1.0823 C9.2727,-3.2488 9.2727,-3.2488 9.2727,-3.2488 C9.2727,-3.5583 8.9588,-3.5583 8.6448,-3.5583 C8.6448,-3.5583 8.3308,-3.5583 8.3308,-3.2488 Z M8.3308,-8.2267 C8.3308,-6.0602 8.3308,-6.0602 8.3308,-6.0602 C8.3308,-5.7507 8.6448,-5.7507 8.6448,-5.7507 C8.9588,-5.7507 9.2727,-5.7507 9.2727,-6.0602 C9.2727,-8.2267 9.2727,-8.2267 9.2727,-8.2267 C9.2727,-8.5362 8.9588,-8.5362 8.6448,-8.5362 C8.6448,-8.5362 8.3308,-8.5362 8.3308,-8.2267 Z M8.3308,-13.2047 C8.3308,-11.0381 8.3308,-11.0381 8.3308,-11.0381 C8.3308,-10.7286 8.6448,-10.7286 8.6448,-10.7286 C8.9588,-10.7286 9.2727,-10.7286 9.2727,-11.0381 C9.2727,-13.2047 9.2727,-13.2047 9.2727,-13.2047 C9.2727,-13.5142 8.9588,-13.5142 8.6448,-13.5142 C8.6448,-13.5142 8.3308,-13.5142 8.3308,-13.2047 Z M8.3308,-18.1826 C8.3308,-16.0160 8.3308,-16.0160 8.3308,-16.0160 C8.3308,-15.7065 8.6448,-15.7065 8.6448,-15.7065 C8.9588,-15.7065 9.2727,-15.7065 9.2727,-16.0160 C9.2727,-18.1826 9.2727,-18.1826 9.2727,-18.1826 C9.2727,-18.4921 8.9588,-18.4921 8.6448,-18.4921 C8.6448,-18.4921 8.3308,-18.4921 8.3308,-18.1826 Z M8.3308,-23.1605 C8.3308,-20.9939 8.3308,-20.9939 8.3308,-20.9939 C8.3308,-20.6844 8.6448,-20.6844 8.6448,-20.6844 C8.9588,-20.6844 9.2727,-20.6844 9.2727,-20.9939 C9.2727,-23.1605 9.2727,-23.1605 9.2727,-23.1605 C9.2727,-23.4700 8.9588,-23.4700 8.6448,-23.4700 C8.6448,-23.4700 8.3308,-23.4700 8.3308,-23.1605 Z M8.3308,-28.1384 C8.3308,-25.9719 8.3308,-25.9719 8.3308,-25.9719 C8.3308,-25.6623 8.6448,-25.6623 8.6448,-25.6623 C8.9588,-25.6623 9.2727,-25.6623 9.2727,-25.9719 C9.2727,-28.1384 9.2727,-28.1384 9.2727,-28.1384 C9.2727,-28.4479 8.9588,-28.4479 8.6448,-28.4479 C8.6448,-28.4479 8.3308,-28.4479 8.3308,-28.1384 Z M10.6578,2.2008 C10.6578,4.3673 10.6578,4.3673 10.6578,4.3673 C10.6578,4.6768 10.9718,4.6768 10.9718,4.6768 C11.2857,4.6768 11.5997,4.6768 11.5997,4.3673 C11.5997,2.2008 11.5997,2.2008 11.5997,2.2008 C11.5997,1.8913 11.2857,1.8913 10.9718,1.8913 C10.9718,1.8913 10.6578,1.8913 10.6578,2.2008 Z M10.6578,-2.7771 C10.6578,-0.6106 10.6578,-0.6106 10.6578,-0.6106 C10.6578,-0.3011 10.9718,-0.3011 10.9718,-0.3011 C11.2857,-0.3011 11.5997,-0.3011 11.5997,-0.6106 C11.5997,-2.7771 11.5997,-2.7771 11.5997,-2.7771 C11.5997,-3.0866 11.2857,-3.0866 10.9718,-3.0866 C10.9718,-3.0866 10.6578,-3.0866 10.6578,-2.7771 Z M10.6578,-7.7550 C10.6578,-5.5885 10.6578,-5.5885 10.6578,-5.5885 C10.6578,-5.2790 10.9718,-5.2790 10.9718,-5.2790 C11.2857,-5.2790 11.5997,-5.2790 11.5997,-5.5885 C11.5997,-7.7550 11.5997,-7.7550 11.5997,-7.7550 C11.5997,-8.0646 11.2857,-8.0646 10.9718,-8.0646 C10.9718,-8.0646 10.6578,-8.0646 10.6578,-7.7550 Z M10.6578,-12.7330 C10.6578,-10.5664 10.6578,-10.5664 10.6578,-10.5664 C10.6578,-10.2569 10.9718,-10.2569 10.9718,-10.2569 C11.2857,-10.2569 11.5997,-10.2569 11.5997,-10.5664 C11.5997,-12.7330 11.5997,-12.7330 11.5997,-12.7330 C11.5997,-13.0425 11.2857,-13.0425 10.9718,-13.0425 C10.9718,-13.0425 10.6578,-13.0425 10.6578,-12.7330 Z M10.6578,-17.7109 C10.6578,-15.5443 10.6578,-15.5443 10.6578,-15.5443 C10.6578,-15.2348 10.9718,-15.2348 10.9718,-15.2348 C11.2857,-15.2348 11.5997,-15.2348 11.5997,-15.5443 C11.5997,-17.7109 11.5997,-17.7109 11.5997,-17.7109 C11.5997,-18.0204 11.2857,-18.0204 10.9718,-18.0204 C10.9718,-18.0204 10.6578,-18.0204 10.6578,-17.7109 Z M10.6578,-22.6888 C10.6578,-20.5222 10.6578,-20.5222 10.6578,-20.5222 C10.6578,-20.2127 10.9718,-20.2127 10.9718,-20.2127 C11.2857,-20.2127 11.5997,-20.2127 11.5997,-20.5222 C11.5997,-22.6888 11.5997,-22.6888 11.5997,-22.6888 C11.5997,-22.9983 11.2857,-22.9983 10.9718,-22.9983 C10.9718,-22.9983 10.6578,-22.9983 10.6578,-22.6888 Z M10.6578,-27.6667 C10.6578,-25.5002 10.6578,-25.5002 10.6578,-25.5002 C10.6578,-25.1907 10.9718,-25.1907 10.9718,-25.1907 C11.2857,-25.1907 11.5997,-25.1907 11.5997,-25.5002 C11.5997,-27.6667 11.5997,-27.6667 11.5997,-27.6667 C11.5997,-27.9762 11.2857,-27.9762 10.9718,-27.9762 C10.9718,-27.9762 10.6578,-27.9762 10.6578,-27.6667 Z M12.9847,2.5546 C12.9847,4.7211 12.9847,4.7211 12.9847,4.7211 C12.9847,5.0306 13.2987,5.0306 13.2987,5.0306 C13.6127,5.0306 13.9266,5.0306 13.9266,4.7211 C13.9266,2.5546 13.9266,2.5546 13.9266,2.5546 C13.9266,2.2450 13.6127,2.2450 13.2987,2.2450 C13.2987,2.2450 12.9847,2.2450 12.9847,2.5546 Z M12.9847,-2.4234 C12.9847,-0.2568 12.9847,-0.2568 12.9847,-0.2568 C12.9847,0.0527 13.2987,0.0527 13.2987,0.0527 C13.6127,0.0527 13.9266,0.0527 13.9266,-0.2568 C13.9266,-2.4234 13.9266,-2.4234 13.9266,-2.4234 C13.9266,-2.7329 13.6127,-2.7329 13.2987,-2.7329 C13.2987,-2.7329 12.9847,-2.7329 12.9847,-2.4234 Z M12.9847,-7.4013 C12.9847,-5.2347 12.9847,-5.2347 12.9847,-5.2347 C12.9847,-4.9252 13.2987,-4.9252 13.2987,-4.9252 C13.6127,-4.9252 13.9266,-4.9252 13.9266,-5.2347 C13.9266,-7.4013 13.9266,-7.4013 13.9266,-7.4013 C13.9266,-7.7108 13.6127,-7.7108 13.2987,-7.7108 C13.2987,-7.7108 12.9847,-7.7108 12.9847,-7.4013 Z M12.9847,-12.3792 C12.9847,-10.2126 12.9847,-10.2126 12.9847,-10.2126 C12.9847,-9.9031 13.2987,-9.9031 13.2987,-9.9031 C13.6127,-9.9031 13.9266,-9.9031 13.9266,-10.2126 C13.9266,-12.3792 13.9266,-12.3792 13.9266,-12.3792 C13.9266,-12.6887 13.6127,-12.6887 13.2987,-12.6887 C13.2987,-12.6887 12.9847,-12.6887 12.9847,-12.3792 Z M12.9847,-17.3571 C12.9847,-15.1906 12.9847,-15.1906 12.9847,-15.1906 C12.9847,-14.8811 13.2987,-14.8811 13.2987,-14.8811 C13.6127,-14.8811 13.9266,-14.8811 13.9266,-15.1906 C13.9266,-17.3571 13.9266,-17.3571 13.9266,-17.3571 C13.9266,-17.6666 13.6127,-17.6666 13.2987,-17.6666 C13.2987,-17.6666 12.9847,-17.6666 12.9847,-17.3571 Z M12.9847,-22.3350 C12.9847,-20.1685 12.9847,-20.1685 12.9847,-20.1685 C12.9847,-19.8590 13.2987,-19.8590 13.2987,-19.8590 C13.6127,-19.8590 13.9266,-19.8590 13.9266,-20.1685 C13.9266,-22.3350 13.9266,-22.3350 13.9266,-22.3350 C13.9266,-22.6445 13.6127,-22.6445 13.2987,-22.6445 C13.2987,-22.6445 12.9847,-22.6445 12.9847,-22.3350 Z M12.9847,-27.3129 C12.9847,-25.1464 12.9847,-25.1464 12.9847,-25.1464 C12.9847,-24.8369 13.2987,-24.8369 13.2987,-24.8369 C13.6127,-24.8369 13.9266,-24.8369 13.9266,-25.1464 C13.9266,-27.3129 13.9266,-27.3129 13.9266,-27.3129 C13.9266,-27.6225 13.6127,-27.6225 13.2987,-27.6225 C13.2987,-27.6225 12.9847,-27.6225 12.9847,-27.3129 Z M15.3117,2.8199 C15.3117,4.9864 15.3117,4.9864 15.3117,4.9864 C15.3117,5.2959 15.6256,5.2959 15.6256,5.2959 C15.9396,5.2959 16.2536,5.2959 16.2536,4.9864 C16.2536,2.8199 16.2536,2.8199 16.2536,2.8199 C16.2536,2.5104 15.9396,2.5104 15.6256,2.5104 C15.6256,2.5104 15.3117,2.5104 15.3117,2.8199 Z M15.3117,-2.1580 C15.3117,0.0085 15.3117,0.0085 15.3117,0.0085 C15.3117,0.3180 15.6256,0.3180 15.6256,0.3180 C15.9396,0.3180 16.2536,0.3180 16.2536,0.0085 C16.2536,-2.1580 16.2536,-2.1580 16.2536,-2.1580 C16.2536,-2.4675 15.9396,-2.4675 15.6256,-2.4675 C15.6256,-2.4675 15.3117,-2.4675 15.3117,-2.1580 Z M15.3117,-7.1360 C15.3117,-4.9694 15.3117,-4.9694 15.3117,-4.9694 C15.3117,-4.6599 15.6256,-4.6599 15.6256,-4.6599 C15.9396,-4.6599 16.2536,-4.6599 16.2536,-4.9694 C16.2536,-7.1360 16.2536,-7.1360 16.2536,-7.1360 C16.2536,-7.4455 15.9396,-7.4455 15.6256,-7.4455 C15.6256,-7.4455 15.3117,-7.4455 15.3117,-7.1360 Z M15.3117,-12.1139 C15.3117,-9.9473 15.3117,-9.9473 15.3117,-9.9473 C15.3117,-9.6378 15.6256,-9.6378 15.6256,-9.6378 C15.9396,-9.6378 16.2536,-9.6378 16.2536,-9.9473 C16.2536,-12.1139 16.2536,-12.1139 16.2536,-12.1139 C16.2536,-12.4234 15.9396,-12.4234 15.6256,-12.4234 C15.6256,-12.4234 15.3117,-12.4234 15.3117,-12.1139 Z M15.3117,-17.0918 C15.3117,-14.9252 15.3117,-14.9252 15.3117,-14.9252 C15.3117,-14.6157 15.6256,-14.6157 15.6256,-14.6157 C15.9396,-14.6157 16.2536,-14.6157 16.2536,-14.9252 C16.2536,-17.0918 16.2536,-17.0918 16.2536,-17.0918 C16.2536,-17.4013 15.9396,-17.4013 15.6256,-17.4013 C15.6256,-17.4013 15.3117,-17.4013 15.3117,-17.0918 Z M15.3117,-22.0697 C15.3117,-19.9032 15.3117,-19.9032 15.3117,-19.9032 C15.3117,-19.5936 15.6256,-19.5936 15.6256,-19.5936 C15.9396,-19.5936 16.2536,-19.5936 16.2536,-19.9032 C16.2536,-22.0697 16.2536,-22.0697 16.2536,-22.0697 C16.2536,-22.3792 15.9396,-22.3792 15.6256,-22.3792 C15.6256,-22.3792 15.3117,-22.3792 15.3117,-22.0697 Z M15.3117,-27.0476 C15.3117,-24.8811 15.3117,-24.8811 15.3117,-24.8811 C15.3117,-24.5716 15.6256,-24.5716 15.6256,-24.5716 C15.9396,-24.5716 16.2536,-24.5716 16.2536,-24.8811 C16.2536,-27.0476 16.2536,-27.0476 16.2536,-27.0476 C16.2536,-27.3571 15.9396,-27.3571 15.6256,-27.3571 C15.6256,-27.3571 15.3117,-27.3571 15.3117,-27.0476 Z M17.6386,2.9968 C17.6386,5.1633 17.6386,5.1633 17.6386,5.1633 C17.6386,5.4728 17.9526,5.4728 17.9526,5.4728 C18.2666,5.4728 18.5805,5.4728 18.5805,5.1633 C18.5805,2.9968 18.5805,2.9968 18.5805,2.9968 C18.5805,2.6873 18.2666,2.6873 17.9526,2.6873 C17.9526,2.6873 17.6386,2.6873 17.6386,2.9968 Z M17.6386,-1.9812 C17.6386,0.1854 17.6386,0.1854 17.6386,0.1854 C17.6386,0.4949 17.9526,0.4949 17.9526,0.4949 C18.2666,0.4949 18.5805,0.4949 18.5805,0.1854 C18.5805,-1.9812 18.5805,-1.9812 18.5805,-1.9812 C18.5805,-2.2907 18.2666,-2.2907 17.9526,-2.2907 C17.9526,-2.2907 17.6386,-2.2907 17.6386,-1.9812 Z M17.6386,-6.9591 C17.6386,-4.7925 17.6386,-4.7925 17.6386,-4.7925 C17.6386,-4.4830 17.9526,-4.4830 17.9526,-4.4830 C18.2666,-4.4830 18.5805,-4.4830 18.5805,-4.7925 C18.5805,-6.9591 18.5805,-6.9591 18.5805,-6.9591 C18.5805,-7.2686 18.2666,-7.2686 17.9526,-7.2686 C17.9526,-7.2686 17.6386,-7.2686 17.6386,-6.9591 Z M17.6386,-11.9370 C17.6386,-9.7704 17.6386,-9.7704 17.6386,-9.7704 C17.6386,-9.4609 17.9526,-9.4609 17.9526,-9.4609 C18.2666,-9.4609 18.5805,-9.4609 18.5805,-9.7704 C18.5805,-11.9370 18.5805,-11.9370 18.5805,-11.9370 C18.5805,-12.2465 18.2666,-12.2465 17.9526,-12.2465 C17.9526,-12.2465 17.6386,-12.2465 17.6386,-11.9370 Z M17.6386,-16.9149 C17.6386,-14.7484 17.6386,-14.7484 17.6386,-14.7484 C17.6386,-14.4388 17.9526,-14.4388 17.9526,-14.4388 C18.2666,-14.4388 18.5805,-14.4388 18.5805,-14.7484 C18.5805,-16.9149 18.5805,-16.9149 18.5805,-16.9149 C18.5805,-17.2244 18.2666,-17.2244 17.9526,-17.2244 C17.9526,-17.2244 17.6386,-17.2244 17.6386,-16.9149 Z M17.6386,-21.8928 C17.6386,-19.7263 17.6386,-19.7263 17.6386,-19.7263 C17.6386,-19.4168 17.9526,-19.4168 17.9526,-19.4168 C18.2666,-19.4168 18.5805,-19.4168 18.5805,-19.7263 C18.5805,-21.8928 18.5805,-21.8928 18.5805,-21.8928 C18.5805,-22.2023 18.2666,-22.2023 17.9526,-22.2023 C17.9526,-22.2023 17.6386,-22.2023 17.6386,-21.8928 Z M17.6386,-26.8707 C17.6386,-24.7042 17.6386,-24.7042 17.6386,-24.7042 C17.6386,-24.3947 17.9526,-24.3947 17.9526,-24.3947 C18.2666,-24.3947 18.5805,-24.3947 18.5805,-24.7042 C18.5805,-26.8707 18.5805,-26.8707 18.5805,-26.8707 C18.5805,-27.1802 18.2666,-27.1802 17.9526,-27.1802 C17.9526,-27.1802 17.6386,-27.1802 17.6386,-26.8707 Z M19.9656,3.1147 C19.9656,5.2812 19.9656,5.2812 19.9656,5.2812 C19.9656,5.5907 20.2795,5.5907 20.2795,5.5907 C20.5935,5.5907 20.9075,5.5907 20.9075,5.2812 C20.9075,3.1147 20.9075,3.1147 20.9075,3.1147 C20.9075,2.8052 20.5935,2.8052 20.2795,2.8052 C20.2795,2.8052 19.9656,2.8052 19.9656,3.1147 Z M19.9656,-1.8632 C19.9656,0.3033 19.9656,0.3033 19.9656,0.3033 C19.9656,0.6128 20.2795,0.6128 20.2795,0.6128 C20.5935,0.6128 20.9075,0.6128 20.9075,0.3033 C20.9075,-1.8632 20.9075,-1.8632 20.9075,-1.8632 C20.9075,-2.1727 20.5935,-2.1727 20.2795,-2.1727 C20.2795,-2.1727 19.9656,-2.1727 19.9656,-1.8632 Z M19.9656,-6.8411 C19.9656,-4.6746 19.9656,-4.6746 19.9656,-4.6746 C19.9656,-4.3651 20.2795,-4.3651 20.2795,-4.3651 C20.5935,-4.3651 20.9075,-4.3651 20.9075,-4.6746 C20.9075,-6.8411 20.9075,-6.8411 20.9075,-6.8411 C20.9075,-7.1507 20.5935,-7.1507 20.2795,-7.1507 C20.2795,-7.1507 19.9656,-7.1507 19.9656,-6.8411 Z M19.9656,-11.8191 C19.9656,-9.6525 19.9656,-9.6525 19.9656,-9.6525 C19.9656,-9.3430 20.2795,-9.3430 20.2795,-9.3430 C20.5935,-9.3430 20.9075,-9.3430 20.9075,-9.6525 C20.9075,-11.8191 20.9075,-11.8191 20.9075,-11.8191 C20.9075,-12.1286 20.5935,-12.1286 20.2795,-12.1286 C20.2795,-12.1286 19.9656,-12.1286 19.9656,-11.8191 Z M19.9656,-16.7970 C19.9656,-14.6304 19.9656,-14.6304 19.9656,-14.6304 C19.9656,-14.3209 20.2795,-14.3209 20.2795,-14.3209 C20.5935,-14.3209 20.9075,-14.3209 20.9075,-14.6304 C20.9075,-16.7970 20.9075,-16.7970 20.9075,-16.7970 C20.9075,-17.1065 20.5935,-17.1065 20.2795,-17.1065 C20.2795,-17.1065 19.9656,-17.1065 19.9656,-16.7970 Z M19.9656,-21.7749 C19.9656,-19.6083 19.9656,-19.6083 19.9656,-19.6083 C19.9656,-19.2988 20.2795,-19.2988 20.2795,-19.2988 C20.5935,-19.2988 20.9075,-19.2988 20.9075,-19.6083 C20.9075,-21.7749 20.9075,-21.7749 20.9075,-21.7749 C20.9075,-22.0844 20.5935,-22.0844 20.2795,-22.0844 C20.2795,-22.0844 19.9656,-22.0844 19.9656,-21.7749 Z M19.9656,-26.7528 C19.9656,-24.5863 19.9656,-24.5863 19.9656,-24.5863 C19.9656,-24.2768 20.2795,-24.2768 20.2795,-24.2768 C20.5935,-24.2768 20.9075,-24.2768 20.9075,-24.5863 C20.9075,-26.7528 20.9075,-26.7528 20.9075,-26.7528 C20.9075,-27.0623 20.5935,-27.0623 20.2795,-27.0623 C20.2795,-27.0623 19.9656,-27.0623 19.9656,-26.7528 Z M22.2925,3.1147 C22.2925,5.2812 22.2925,5.2812 22.2925,5.2812 C22.2925,5.5907 22.6065,5.5907 22.6065,5.5907 C22.9205,5.5907 23.2344,5.5907 23.2344,5.2812 C23.2344,3.1147 23.2344,3.1147 23.2344,3.1147 C23.2344,2.8052 22.9205,2.8052 22.6065,2.8052 C22.6065,2.8052 22.2925,2.8052 22.2925,3.1147 Z M22.2925,-1.8632 C22.2925,0.3033 22.2925,0.3033 22.2925,0.3033 C22.2925,0.6128 22.6065,0.6128 22.6065,0.6128 C22.9205,0.6128 23.2344,0.6128 23.2344,0.3033 C23.2344,-1.8632 23.2344,-1.8632 23.2344,-1.8632 C23.2344,-2.1727 22.9205,-2.1727 22.6065,-2.1727 C22.6065,-2.1727 22.2925,-2.1727 22.2925,-1.8632 Z M22.2925,-6.8411 C22.2925,-4.6746 22.2925,-4.6746 22.2925,-4.6746 C22.2925,-4.3651 22.6065,-4.3651 22.6065,-4.3651 C22.9205,-4.3651 23.2344,-4.3651 23.2344,-4.6746 C23.2344,-6.8411 23.2344,-6.8411 23.2344,-6.8411 C23.2344,-7.1507 22.9205,-7.1507 22.6065,-7.1507 C22.6065,-7.1507 22.2925,-7.1507 22.2925,-6.8411 Z M22.2925,-11.8191 C22.2925,-9.6525 22.2925,-9.6525 22.2925,-9.6525 C22.2925,-9.3430 22.6065,-9.3430 22.6065,-9.3430 C22.9205,-9.3430 23.2344,-9.3430 23.2344,-9.6525 C23.2344,-11.8191 23.2344,-11.8191 23.2344,-11.8191 C23.2344,-12.1286 22.9205,-12.1286 22.6065,-12.1286 C22.6065,-12.1286 22.2925,-12.1286 22.2925,-11.8191 Z M22.2925,-16.7970 C22.2925,-14.6304 22.2925,-14.6304 22.2925,-14.6304 C22.2925,-14.3209 22.6065,-14.3209 22.6065,-14.3209 C22.9205,-14.3209 23.2344,-14.3209 23.2344,-14.6304 C23.2344,-16.7970 23.2344,-16.7970 23.2344,-16.7970 C23.2344,-17.1065 22.9205,-17.1065 22.6065,-17.1065 C22.6065,-17.1065 22.2925,-17.1065 22.2925,-16.7970 Z M22.2925,-21.7749 C22.2925,-19.6083 22.2925,-19.6083 22.2925,-19.6083 C22.2925,-19.2988 22.6065,-19.2988 22.6065,-19.2988 C22.9205,-19.2988 23.2344,-19.2988 23.2344,-19.6083 C23.2344,-21.7749 23.2344,-21.7749 23.2344,-21.7749 C23.2344,-22.0844 22.9205,-22.0844 22.6065,-22.0844 C22.6065,-22.0844 22.2925,-22.0844 22.2925,-21.7749 Z M22.2925,-26.7528 C22.2925,-24.5863 22.2925,-24.5863 22.2925,-24.5863 C22.2925,-24.2768 22.6065,-24.2768 22.6065,-24.2768 C22.9205,-24.2768 23.2344,-24.2768 23.2344,-24.5863 C23.2344,-26.7528 23.2344,-26.7528 23.2344,-26.7528 C23.2344,-27.0623 22.9205,-27.0623 22.6065,-27.0623 C22.6065,-27.0623 22.2925,-27.0623 22.2925,-26.7528 Z M24.6195,2.9968 C24.6195,5.1633 24.6195,5.1633 24.6195,5.1633 C24.6195,5.4728 24.9334,5.4728 24.9334,5.4728 C25.2474,5.4728 25.5614,5.4728 25.5614,5.1633 C25.5614,2.9968 25.5614,2.9968 25.5614,2.9968 C25.5614,2.6873 25.2474,2.6873 24.9334,2.6873 C24.9334,2.6873 24.6195,2.6873 24.6195,2.9968 Z M24.6195,-1.9812 C24.6195,0.1854 24.6195,0.1854 24.6195,0.1854 C24.6195,0.4949 24.9334,0.4949 24.9334,0.4949 C25.2474,0.4949 25.5614,0.4949 25.5614,0.1854 C25.5614,-1.9812 25.5614,-1.9812 25.5614,-1.9812 C25.5614,-2.2907 25.2474,-2.2907 24.9334,-2.2907 C24.9334,-2.2907 24.6195,-2.2907 24.6195,-1.9812 Z M24.6195,-6.9591 C24.6195,-4.7925 24.6195,-4.7925 24.6195,-4.7925 C24.6195,-4.4830 24.9334,-4.4830 24.9334,-4.4830 C25.2474,-4.4830 25.5614,-4.4830 25.5614,-4.7925 C25.5614,-6.9591 25.5614,-6.9591 25.5614,-6.9591 C25.5614,-7.2686 25.2474,-7.2686 24.9334,-7.2686 C24.9334,-7.2686 24.6195,-7.2686 24.6195,-6.9591 Z M24.6195,-11.9370 C24.6195,-9.7704 24.6195,-9.7704 24.6195,-9.7704 C24.6195,-9.4609 24.9334,-9.4609 24.9334,-9.4609 C25.2474,-9.4609 25.5614,-9.4609 25.5614,-9.7704 C25.5614,-11.9370 25.5614,-11.9370 25.5614,-11.9370 C25.5614,-12.2465 25.2474,-12.2465 24.9334,-12.2465 C24.9334,-12.2465 24.6195,-12.2465 24.6195,-11.9370 Z M24.6195,-16.9149 C24.6195,-14.7484 24.6195,-14.7484 24.6195,-14.7484 C24.6195,-14.4388 24.9334,-14.4388 24.9334,-14.4388 C25.2474,-14.4388 25.5614,-14.4388 25.5614,-14.7484 C25.5614,-16.9149 25.5614,-16.9149 25.5614,-16.9149 C25.5614,-17.2244 25.2474,-17.2244 24.9334,-17.2244 C24.9334,-17.2244 24.6195,-17.2244 24.6195,-16.9149 Z M24.6195,-21.8928 C24.6195,-19.7263 24.6195,-19.7263 24.6195,-19.7263 C24.6195,-19.4168 24.9334,-19.4168 24.9334,-19.4168 C25.2474,-19.4168 25.5614,-19.4168 25.5614,-19.7263 C25.5614,-21.8928 25.5614,-21.8928 25.5614,-21.8928 C25.5614,-22.2023 25.2474,-22.2023 24.9334,-22.2023 C24.9334,-22.2023 24.6195,-22.2023 24.6195,-21.8928 Z M24.6195,-26.8707 C24.6195,-24.7042 24.6195,-24.7042 24.6195,-24.7042 C24.6195,-24.3947 24.9334,-24.3947 24.9334,-24.3947 C25.2474,-24.3947 25.5614,-24.3947 25.5614,-24.7042 C25.5614,-26.8707 25.5614,-26.8707 25.5614,-26.8707 C25.5614,-27.1802 25.2474,-27.1802 24.9334,-27.1802 C24.9334,-27.1802 24.6195,-27.1802 24.6195,-26.8707 Z M26.9464,2.8199 C26.9464,4.9864 26.9464,4.9864 26.9464,4.9864 C26.9464,5.2959 27.2604,5.2959 27.2604,5.2959 C27.5744,5.2959 27.8883,5.2959 27.8883,4.9864 C27.8883,2.8199 27.8883,2.8199 27.8883,2.8199 C27.8883,2.5104 27.5744,2.5104 27.2604,2.5104 C27.2604,2.5104 26.9464,2.5104 26.9464,2.8199 Z M26.9464,-2.1580 C26.9464,0.0085 26.9464,0.0085 26.9464,0.0085 C26.9464,0.3180 27.2604,0.3180 27.2604,0.3180 C27.5744,0.3180 27.8883,0.3180 27.8883,0.0085 C27.8883,-2.1580 27.8883,-2.1580 27.8883,-2.1580 C27.8883,-2.4675 27.5744,-2.4675 27.2604,-2.4675 C27.2604,-2.4675 26.9464,-2.4675 26.9464,-2.1580 Z M26.9464,-7.1360 C26.9464,-4.9694 26.9464,-4.9694 26.9464,-4.9694 C26.9464,-4.6599 27.2604,-4.6599 27.2604,-4.6599 C27.5744,-4.6599 27.8883,-4.6599 27.8883,-4.9694 C27.8883,-7.1360 27.8883,-7.1360 27.8883,-7.1360 C27.8883,-7.4455 27.5744,-7.4455 27.2604,-7.4455 C27.2604,-7.4455 26.9464,-7.4455 26.9464,-7.1360 Z M26.9464,-12.1139 C26.9464,-9.9473 26.9464,-9.9473 26.9464,-9.9473 C26.9464,-9.6378 27.2604,-9.6378 27.2604,-9.6378 C27.5744,-9.6378 27.8883,-9.6378 27.8883,-9.9473 C27.8883,-12.1139 27.8883,-12.1139 27.8883,-12.1139 C27.8883,-12.4234 27.5744,-12.4234 27.2604,-12.4234 C27.2604,-12.4234 26.9464,-12.4234 26.9464,-12.1139 Z M26.9464,-17.0918 C26.9464,-14.9252 26.9464,-14.9252 26.9464,-14.9252 C26.9464,-14.6157 27.2604,-14.6157 27.2604,-14.6157 C27.5744,-14.6157 27.8883,-14.6157 27.8883,-14.9252 C27.8883,-17.0918 27.8883,-17.0918 27.8883,-17.0918 C27.8883,-17.4013 27.5744,-17.4013 27.2604,-17.4013 C27.2604,-17.4013 26.9464,-17.4013 26.9464,-17.0918 Z M26.9464,-22.0697 C26.9464,-19.9032 26.9464,-19.9032 26.9464,-19.9032 C26.9464,-19.5936 27.2604,-19.5936 27.2604,-19.5936 C27.5744,-19.5936 27.8883,-19.5936 27.8883,-19.9032 C27.8883,-22.0697 27.8883,-22.0697 27.8883,-22.0697 C27.8883,-22.3792 27.5744,-22.3792 27.2604,-22.3792 C27.2604,-22.3792 26.9464,-22.3792 26.9464,-22.0697 Z M26.9464,-27.0476 C26.9464,-24.8811 26.9464,-24.8811 26.9464,-24.8811 C26.9464,-24.5716 27.2604,-24.5716 27.2604,-24.5716 C27.5744,-24.5716 27.8883,-24.5716 27.8883,-24.8811 C27.8883,-27.0476 27.8883,-27.0476 27.8883,-27.0476 C27.8883,-27.3571 27.5744,-27.3571 27.2604,-27.3571 C27.2604,-27.3571 26.9464,-27.3571 26.9464,-27.0476 Z M29.2734,2.5546 C29.2734,4.7211 29.2734,4.7211 29.2734,4.7211 C29.2734,5.0306 29.5873,5.0306 29.5873,5.0306 C29.9013,5.0306 30.2153,5.0306 30.2153,4.7211 C30.2153,2.5546 30.2153,2.5546 30.2153,2.5546 C30.2153,2.2450 29.9013,2.2450 29.5873,2.2450 C29.5873,2.2450 29.2734,2.2450 29.2734,2.5546 Z M29.2734,-2.4234 C29.2734,-0.2568 29.2734,-0.2568 29.2734,-0.2568 C29.2734,0.0527 29.5873,0.0527 29.5873,0.0527 C29.9013,0.0527 30.2153,0.0527 30.2153,-0.2568 C30.2153,-2.4234 30.2153,-2.4234 30.2153,-2.4234 C30.2153,-2.7329 29.9013,-2.7329 29.5873,-2.7329 C29.5873,-2.7329 29.2734,-2.7329 29.2734,-2.4234 Z M29.2734,-7.4013 C29.2734,-5.2347 29.2734,-5.2347 29.2734,-5.2347 C29.2734,-4.9252 29.5873,-4.9252 29.5873,-4.9252 C29.9013,-4.9252 30.2153,-4.9252 30.2153,-5.2347 C30.2153,-7.4013 30.2153,-7.4013 30.2153,-7.4013 C30.2153,-7.7108 29.9013,-7.7108 29.5873,-7.7108 C29.5873,-7.7108 29.2734,-7.7108 29.2734,-7.4013 Z M29.2734,-12.3792 C29.2734,-10.2126 29.2734,-10.2126 29.2734,-10.2126 C29.2734,-9.9031 29.5873,-9.9031 29.5873,-9.9031 C29.9013,-9.9031 30.2153,-9.9031 30.2153,-10.2126 C30.2153,-12.3792 30.2153,-12.3792 30.2153,-12.3792 C30.2153,-12.6887 29.9013,-12.6887 29.5873,-12.6887 C29.5873,-12.6887 29.2734,-12.6887 29.2734,-12.3792 Z M29.2734,-17.3571 C29.2734,-15.1906 29.2734,-15.1906 29.2734,-15.1906 C29.2734,-14.8811 29.5873,-14.8811 29.5873,-14.8811 C29.9013,-14.8811 30.2153,-14.8811 30.2153,-15.1906 C30.2153,-17.3571 30.2153,-17.3571 30.2153,-17.3571 C30.2153,-17.6666 29.9013,-17.6666 29.5873,-17.6666 C29.5873,-17.6666 29.2734,-17.6666 29.2734,-17.3571 Z M29.2734,-22.3350 C29.2734,-20.1685 29.2734,-20.1685 29.2734,-20.1685 C29.2734,-19.8590 29.5873,-19.8590 29.5873,-19.8590 C29.9013,-19.8590 30.2153,-19.8590 30.2153,-20.1685 C30.2153,-22.3350 30.2153,-22.3350 30.2153,-22.3350 C30.2153,-22.6445 29.9013,-22.6445 29.5873,-22.6445 C29.5873,-22.6445 29.2734,-22.6445 29.2734,-22.3350 Z M29.2734,-27.3129 C29.2734,-25.1464 29.2734,-25.1464 29.2734,-25.1464 C29.2734,-24.8369 29.5873,-24.8369 29.5873,-24.8369 C29.9013,-24.8369 30.2153,-24.8369 30.2153,-25.1464 C30.2153,-27.3129 30.2153,-27.3129 30.2153,-27.3129 C30.2153,-27.6225 29.9013,-27.6225 29.5873,-27.6225 C29.5873,-27.6225 29.2734,-27.6225 29.2734,-27.3129 Z M31.6003,2.2008 C31.6003,4.3673 31.6003,4.3673 31.6003,4.3673 C31.6003,4.6768 31.9143,4.6768 31.9143,4.6768 C32.2282,4.6768 32.5422,4.6768 32.5422,4.3673 C32.5422,2.2008 32.5422,2.2008 32.5422,2.2008 C32.5422,1.8913 32.2282,1.8913 31.9143,1.8913 C31.9143,1.8913 31.6003,1.8913 31.6003,2.2008 Z M31.6003,-2.7771 C31.6003,-0.6106 31.6003,-0.6106 31.6003,-0.6106 C31.6003,-0.3011 31.9143,-0.3011 31.9143,-0.3011 C32.2282,-0.3011 32.5422,-0.3011 32.5422,-0.6106 C32.5422,-2.7771 32.5422,-2.7771 32.5422,-2.7771 C32.5422,-3.0866 32.2282,-3.0866 31.9143,-3.0866 C31.9143,-3.0866 31.6003,-3.0866 31.6003,-2.7771 Z M31.6003,-7.7550 C31.6003,-5.5885 31.6003,-5.5885 31.6003,-5.5885 C31.6003,-5.2790 31.9143,-5.2790 31.9143,-5.2790 C32.2282,-5.2790 32.5422,-5.2790 32.5422,-5.5885 C32.5422,-7.7550 32.5422,-7.7550 32.5422,-7.7550 C32.5422,-8.0646 32.2282,-8.0646 31.9143,-8.0646 C31.9143,-8.0646 31.6003,-8.0646 31.6003,-7.7550 Z M31.6003,-12.7330 C31.6003,-10.5664 31.6003,-10.5664 31.6003,-10.5664 C31.6003,-10.2569 31.9143,-10.2569 31.9143,-10.2569 C32.2282,-10.2569 32.5422,-10.2569 32.5422,-10.5664 C32.5422,-12.7330 32.5422,-12.7330 32.5422,-12.7330 C32.5422,-13.0425 32.2282,-13.0425 31.9143,-13.0425 C31.9143,-13.0425 31.6003,-13.0425 31.6003,-12.7330 Z M31.6003,-17.7109 C31.6003,-15.5443 31.6003,-15.5443 31.6003,-15.5443 C31.6003,-15.2348 31.9143,-15.2348 31.9143,-15.2348 C32.2282,-15.2348 32.5422,-15.2348 32.5422,-15.5443 C32.5422,-17.7109 32.5422,-17.7109 32.5422,-17.7109 C32.5422,-18.0204 32.2282,-18.0204 31.9143,-18.0204 C31.9143,-18.0204 31.6003,-18.0204 31.6003,-17.7109 Z M31.6003,-22.6888 C31.6003,-20.5222 31.6003,-20.5222 31.6003,-20.5222 C31.6003,-20.2127 31.9143,-20.2127 31.9143,-20.2127 C32.2282,-20.2127 32.5422,-20.2127 32.5422,-20.5222 C32.5422,-22.6888 32.5422,-22.6888 32.5422,-22.6888 C32.5422,-22.9983 32.2282,-22.9983 31.9143,-22.9983 C31.9143,-22.9983 31.6003,-22.9983 31.6003,-22.6888 Z M31.6003,-27.6667 C31.6003,-25.5002 31.6003,-25.5002 31.6003,-25.5002 C31.6003,-25.1907 31.9143,-25.1907 31.9143,-25.1907 C32.2282,-25.1907 32.5422,-25.1907 32.5422,-25.5002 C32.5422,-27.6667 32.5422,-27.6667 32.5422,-27.6667 C32.5422,-27.9762 32.2282,-27.9762 31.9143,-27.9762 C31.9143,-27.9762 31.6003,-27.9762 31.6003,-27.6667 Z M33.9273,1.7291 C33.9273,3.8957 33.9273,3.8957 33.9273,3.8957 C33.9273,4.2052 34.2412,4.2052 34.2412,4.2052 C34.5552,4.2052 34.8692,4.2052 34.8692,3.8957 C34.8692,1.7291 34.8692,1.7291 34.8692,1.7291 C34.8692,1.4196 34.5552,1.4196 34.2412,1.4196 C34.2412,1.4196 33.9273,1.4196 33.9273,1.7291 Z M33.9273,-3.2488 C33.9273,-1.0823 33.9273,-1.0823 33.9273,-1.0823 C33.9273,-0.7728 34.2412,-0.7728 34.2412,-0.7728 C34.5552,-0.7728 34.8692,-0.7728 34.8692,-1.0823 C34.8692,-3.2488 34.8692,-3.2488 34.8692,-3.2488 C34.8692,-3.5583 34.5552,-3.5583 34.2412,-3.5583 C34.2412,-3.5583 33.9273,-3.5583 33.9273,-3.2488 Z M33.9273,-8.2267 C33.9273,-6.0602 33.9273,-6.0602 33.9273,-6.0602 C33.9273,-5.7507 34.2412,-5.7507 34.2412,-5.7507 C34.5552,-5.7507 34.8692,-5.7507 34.8692,-6.0602 C34.8692,-8.2267 34.8692,-8.2267 34.8692,-8.2267 C34.8692,-8.5362 34.5552,-8.5362 34.2412,-8.5362 C34.2412,-8.5362 33.9273,-8.5362 33.9273,-8.2267 Z M33.9273,-13.2047 C33.9273,-11.0381 33.9273,-11.0381 33.9273,-11.0381 C33.9273,-10.7286 34.2412,-10.7286 34.2412,-10.7286 C34.5552,-10.7286 34.8692,-10.7286 34.8692,-11.0381 C34.8692,-13.2047 34.8692,-13.2047 34.8692,-13.2047 C34.8692,-13.5142 34.5552,-13.5142 34.2412,-13.5142 C34.2412,-13.5142 33.9273,-13.5142 33.9273,-13.2047 Z M33.9273,-18.1826 C33.9273,-16.0160 33.9273,-16.0160 33.9273,-16.0160 C33.9273,-15.7065 34.2412,-15.7065 34.2412,-15.7065 C34.5552,-15.7065 34.8692,-15.7065 34.8692,-16.0160 C34.8692,-18.1826 34.8692,-18.1826 34.8692,-18.1826 C34.8692,-18.4921 34.5552,-18.4921 34.2412,-18.4921 C34.2412,-18.4921 33.9273,-18.4921 33.9273,-18.1826 Z M33.9273,-23.1605 C33.9273,-20.9939 33.9273,-20.9939 33.9273,-20.9939 C33.9273,-20.6844 34.2412,-20.6844 34.2412,-20.6844 C34.5552,-20.6844 34.8692,-20.6844 34.8692,-20.9939 C34.8692,-23.1605 34.8692,-23.1605 34.8692,-23.1605 C34.8692,-23.4700 34.5552,-23.4700 34.2412,-23.4700 C34.2412,-23.4700 33.9273,-23.4700 33.9273,-23.1605 Z M33.9273,-28.1384 C33.9273,-25.9719 33.9273,-25.9719 33.9273,-25.9719 C33.9273,-25.6623 34.2412,-25.6623 34.2412,-25.6623 C34.5552,-25.6623 34.8692,-25.6623 34.8692,-25.9719 C34.8692,-28.1384 34.8692,-28.1384 34.8692,-28.1384 C34.8692,-28.4479 34.5552,-28.4479 34.2412,-28.4479 C34.2412,-28.4479 33.9273,-28.4479 33.9273,-28.1384 Z M36.2542,1.1690 C36.2542,3.3355 36.2542,3.3355 36.2542,3.3355 C36.2542,3.6450 36.5682,3.6450 36.5682,3.6450 C36.8821,3.6450 37.1961,3.6450 37.1961,3.3355 C37.1961,1.1690 37.1961,1.1690 37.1961,1.1690 C37.1961,0.8595 36.8821,0.8595 36.5682,0.8595 C36.5682,0.8595 36.2542,0.8595 36.2542,1.1690 Z M36.2542,-3.8090 C36.2542,-1.6424 36.2542,-1.6424 36.2542,-1.6424 C36.2542,-1.3329 36.5682,-1.3329 36.5682,-1.3329 C36.8821,-1.3329 37.1961,-1.3329 37.1961,-1.6424 C37.1961,-3.8090 37.1961,-3.8090 37.1961,-3.8090 C37.1961,-4.1185 36.8821,-4.1185 36.5682,-4.1185 C36.5682,-4.1185 36.2542,-4.1185 36.2542,-3.8090 Z M36.2542,-8.7869 C36.2542,-6.6203 36.2542,-6.6203 36.2542,-6.6203 C36.2542,-6.3108 36.5682,-6.3108 36.5682,-6.3108 C36.8821,-6.3108 37.1961,-6.3108 37.1961,-6.6203 C37.1961,-8.7869 37.1961,-8.7869 37.1961,-8.7869 C37.1961,-9.0964 36.8821,-9.0964 36.5682,-9.0964 C36.5682,-9.0964 36.2542,-9.0964 36.2542,-8.7869 Z M36.2542,-13.7648 C36.2542,-11.5982 36.2542,-11.5982 36.2542,-11.5982 C36.2542,-11.2887 36.5682,-11.2887 36.5682,-11.2887 C36.8821,-11.2887 37.1961,-11.2887 37.1961,-11.5982 C37.1961,-13.7648 37.1961,-13.7648 37.1961,-13.7648 C37.1961,-14.0743 36.8821,-14.0743 36.5682,-14.0743 C36.5682,-14.0743 36.2542,-14.0743 36.2542,-13.7648 Z M36.2542,-18.7427 C36.2542,-16.5761 36.2542,-16.5761 36.2542,-16.5761 C36.2542,-16.2666 36.5682,-16.2666 36.5682,-16.2666 C36.8821,-16.2666 37.1961,-16.2666 37.1961,-16.5761 C37.1961,-18.7427 37.1961,-18.7427 37.1961,-18.7427 C37.1961,-19.0522 36.8821,-19.0522 36.5682,-19.0522 C36.5682,-19.0522 36.2542,-19.0522 36.2542,-18.7427 Z M36.2542,-23.7206 C36.2542,-21.5541 36.2542,-21.5541 36.2542,-21.5541 C36.2542,-21.2446 36.5682,-21.2446 36.5682,-21.2446 C36.8821,-21.2446 37.1961,-21.2446 37.1961,-21.5541 C37.1961,-23.7206 37.1961,-23.7206 37.1961,-23.7206 C37.1961,-24.0301 36.8821,-24.0301 36.5682,-24.0301 C36.5682,-24.0301 36.2542,-24.0301 36.2542,-23.7206 Z M36.2542,-28.6985 C36.2542,-26.5320 36.2542,-26.5320 36.2542,-26.5320 C36.2542,-26.2225 36.5682,-26.2225 36.5682,-26.2225 C36.8821,-26.2225 37.1961,-26.2225 37.1961,-26.5320 C37.1961,-28.6985 37.1961,-28.6985 37.1961,-28.6985 C37.1961,-29.0080 36.8821,-29.0080 36.5682,-29.0080 C36.5682,-29.0080 36.2542,-29.0080 36.2542,-28.6985 Z M38.5812,0.4909 C38.5812,2.6575 38.5812,2.6575 38.5812,2.6575 C38.5812,2.9670 38.8951,2.9670 38.8951,2.9670 C39.2091,2.9670 39.5231,2.9670 39.5231,2.6575 C39.5231,0.4909 39.5231,0.4909 39.5231,0.4909 C39.5231,0.1814 39.2091,0.1814 38.8951,0.1814 C38.8951,0.1814 38.5812,0.1814 38.5812,0.4909 Z M38.5812,-4.4870 C38.5812,-2.3205 38.5812,-2.3205 38.5812,-2.3205 C38.5812,-2.0109 38.8951,-2.0109 38.8951,-2.0109 C39.2091,-2.0109 39.5231,-2.0109 39.5231,-2.3205 C39.5231,-4.4870 39.5231,-4.4870 39.5231,-4.4870 C39.5231,-4.7965 39.2091,-4.7965 38.8951,-4.7965 C38.8951,-4.7965 38.5812,-4.7965 38.5812,-4.4870 Z M38.5812,-9.4649 C38.5812,-7.2984 38.5812,-7.2984 38.5812,-7.2984 C38.5812,-6.9889 38.8951,-6.9889 38.8951,-6.9889 C39.2091,-6.9889 39.5231,-6.9889 39.5231,-7.2984 C39.5231,-9.4649 39.5231,-9.4649 39.5231,-9.4649 C39.5231,-9.7744 39.2091,-9.7744 38.8951,-9.7744 C38.8951,-9.7744 38.5812,-9.7744 38.5812,-9.4649 Z M38.5812,-14.4428 C38.5812,-12.2763 38.5812,-12.2763 38.5812,-12.2763 C38.5812,-11.9668 38.8951,-11.9668 38.8951,-11.9668 C39.2091,-11.9668 39.5231,-11.9668 39.5231,-12.2763 C39.5231,-14.4428 39.5231,-14.4428 39.5231,-14.4428 C39.5231,-14.7523 39.2091,-14.7523 38.8951,-14.7523 C38.8951,-14.7523 38.5812,-14.7523 38.5812,-14.4428 Z M38.5812,-19.4208 C38.5812,-17.2542 38.5812,-17.2542 38.5812,-17.2542 C38.5812,-16.9447 38.8951,-16.9447 38.8951,-16.9447 C39.2091,-16.9447 39.5231,-16.9447 39.5231,-17.2542 C39.5231,-19.4208 39.5231,-19.4208 39.5231,-19.4208 C39.5231,-19.7303 39.2091,-19.7303 38.8951,-19.7303 C38.8951,-19.7303 38.5812,-19.7303 38.5812,-19.4208 Z M38.5812,-24.3987 C38.5812,-22.2321 38.5812,-22.2321 38.5812,-22.2321 C38.5812,-21.9226 38.8951,-21.9226 38.8951,-21.9226 C39.2091,-21.9226 39.5231,-21.9226 39.5231,-22.2321 C39.5231,-24.3987 39.5231,-24.3987 39.5231,-24.3987 C39.5231,-24.7082 39.2091,-24.7082 38.8951,-24.7082 C38.8951,-24.7082 38.5812,-24.7082 38.5812,-24.3987 Z M38.5812,-29.3766 C38.5812,-27.2100 38.5812,-27.2100 38.5812,-27.2100 C38.5812,-26.9005 38.8951,-26.9005 38.8951,-26.9005 C39.2091,-26.9005 39.5231,-26.9005 39.5231,-27.2100 C39.5231,-29.3766 39.5231,-29.3766 39.5231,-29.3766 C39.5231,-29.6861 39.2091,-29.6861 38.8951,-29.6861 C38.8951,-29.6861 38.5812,-29.6861 38.5812,-29.3766 Z M40.9081,-0.4230 C40.9081,1.7436 40.9081,1.7436 40.9081,1.7436 C40.9081,2.0531 41.2221,2.0531 41.2221,2.0531 C41.5360,2.0531 41.8500,2.0531 41.8500,1.7436 C41.8500,-0.4230 41.8500,-0.4230 41.8500,-0.4230 C41.8500,-0.7325 41.5360,-0.7325 41.2221,-0.7325 C41.2221,-0.7325 40.9081,-0.7325 40.9081,-0.4230 Z M40.9081,-5.4009 C40.9081,-3.2344 40.9081,-3.2344 40.9081,-3.2344 C40.9081,-2.9248 41.2221,-2.9248 41.2221,-2.9248 C41.5360,-2.9248 41.8500,-2.9248 41.8500,-3.2344 C41.8500,-5.4009 41.8500,-5.4009 41.8500,-5.4009 C41.8500,-5.7104 41.5360,-5.7104 41.2221,-5.7104 C41.2221,-5.7104 40.9081,-5.7104 40.9081,-5.4009 Z M40.9081,-10.3788 C40.9081,-8.2123 40.9081,-8.2123 40.9081,-8.2123 C40.9081,-7.9028 41.2221,-7.9028 41.2221,-7.9028 C41.5360,-7.9028 41.8500,-7.9028 41.8500,-8.2123 C41.8500,-10.3788 41.8500,-10.3788 41.8500,-10.3788 C41.8500,-10.6883 41.5360,-10.6883 41.2221,-10.6883 C41.2221,-10.6883 40.9081,-10.6883 40.9081,-10.3788 Z M40.9081,-15.3567 C40.9081,-13.1902 40.9081,-13.1902 40.9081,-13.1902 C40.9081,-12.8807 41.2221,-12.8807 41.2221,-12.8807 C41.5360,-12.8807 41.8500,-12.8807 41.8500,-13.1902 C41.8500,-15.3567 41.8500,-15.3567 41.8500,-15.3567 C41.8500,-15.6662 41.5360,-15.6662 41.2221,-15.6662 C41.2221,-15.6662 40.9081,-15.6662 40.9081,-15.3567 Z M40.9081,-20.3347 C40.9081,-18.1681 40.9081,-18.1681 40.9081,-18.1681 C40.9081,-17.8586 41.2221,-17.8586 41.2221,-17.8586 C41.5360,-17.8586 41.8500,-17.8586 41.8500,-18.1681 C41.8500,-20.3347 41.8500,-20.3347 41.8500,-20.3347 C41.8500,-20.6442 41.5360,-20.6442 41.2221,-20.6442 C41.2221,-20.6442 40.9081,-20.6442 40.9081,-20.3347 Z M40.9081,-25.3126 C40.9081,-23.1460 40.9081,-23.1460 40.9081,-23.1460 C40.9081,-22.8365 41.2221,-22.8365 41.2221,-22.8365 C41.5360,-22.8365 41.8500,-22.8365 41.8500,-23.1460 C41.8500,-25.3126 41.8500,-25.3126 41.8500,-25.3126 C41.8500,-25.6221 41.5360,-25.6221 41.2221,-25.6221 C41.2221,-25.6221 40.9081,-25.6221 40.9081,-25.3126 Z M40.9081,-30.2905 C40.9081,-28.1239 40.9081,-28.1239 40.9081,-28.1239 C40.9081,-27.8144 41.2221,-27.8144 41.2221,-27.8144 C41.5360,-27.8144 41.8500,-27.8144 41.8500,-28.1239 C41.8500,-30.2905 41.8500,-30.2905 41.8500,-30.2905 C41.8500,-30.6000 41.5360,-30.6000 41.2221,-30.6000 C41.2221,-30.6000 40.9081,-30.6000 40.9081,-30.2905 Z" style="fill-rule: evenodd; fill: #ffffff; "/>
    <g xmlns="http://www.w3.org/2000/svg" id="Layer1033">
      <path d="  M44.4600,-37.7527 C44.4600,-34.3497 34.4311,-31.7029 21.7475,-31.7029 C9.0639,-31.7029 -1.2600,-34.3497 -1.2600,-37.7527 C-1.2600,-41.1557 9.0639,-44.1805 21.7475,-44.1805 C34.4311,-44.1805 44.4600,-41.1557 44.4600,-37.7527 Z" style="stroke-width: 0.0240; stroke-linecap: round; stroke-linejoin: round; fill-rule: evenodd; fill: #b3b3b3; "/>
      <path d="  M44.4600,-37.7527 C44.4600,-34.3497 34.4311,-31.7029 21.7475,-31.7029 C9.0639,-31.7029 -1.2600,-34.3497 -1.2600,-37.7527 C-1.2600,-41.1557 9.0639,-44.1805 21.7475,-44.1805 C34.4311,-44.1805 44.4600,-41.1557 44.4600,-37.7527 Z" style="stroke-width: 0.0240; stroke: #ffffff; stroke-dasharray: none; stroke-linecap: round; stroke-linejoin: round; fill: none; "/>
    </g>
    <text xmlns="http://www.w3.org/2000/svg" x="-8.0386" y="19.2921">
      <tspan font-family="Arial" font-size="4.5000" fill="#000000" fill-opacity="1.0000" stroke-opacity="1.0000">
Database Volume</tspan>
    </text>
    <!--converted by libvisio2svg-->
  </g>
</svg>
