<svg xmlns="http://www.w3.org/2000/svg" xmlns:xlink="http://www.w3.org/1999/xlink" version="1.1" width="64.8000000000" height="7.2000000000">
  <title><![CDATA[ECM]]></title>
  <g transform=" scale(1.000000) ">
    <g xmlns="http://www.w3.org/2000/svg" id="Layer1034">
      <defs>
        <linearGradient id="grad18">
          <stop offset="0%" stop-color="#cdcdcd" stop-opacity="1.0000"/>
          <stop offset="100%" stop-color="#1a1a1a" stop-opacity="1.0000"/>
        </linearGradient>
      </defs>
      <path d="  M45.8584,0.4953 L45.8584,-45.1679 L-2.8448,-45.1679 L-2.8448,0.4953 C-2.8450,6.0461 8.2012,10.0629 21.2557,10.0629 C34.8124,10.0629 45.8585,6.0461 45.8585,0.5230 Z" style="stroke-width: 0.0000; stroke-linecap: round; stroke-linejoin: round; fill-rule: evenodd; fill: url(#grad18); "/>
      <path d="  M45.8584,0.4953 L45.8584,-45.1679 L-2.8448,-45.1679 L-2.8448,0.4953 C-2.8450,6.0461 8.2012,10.0629 21.2557,10.0629 C34.8124,10.0629 45.8585,6.0461 45.8585,0.5230" style="stroke-width: 0.0000; stroke: #c0c0c0; stroke-dasharray: none; stroke-linecap: round; stroke-linejoin: round; fill: none; "/>
    </g>
    <g xmlns="http://www.w3.org/2000/svg" id="Layer1035">
      <path d="  M45.8585,-45.1679 C45.8585,-39.6448 34.8124,-35.6280 21.2557,-35.6280 C8.2012,-35.6280 -2.8450,-39.6448 -2.8450,-45.1679 C-2.8450,-50.1888 8.2012,-54.7077 21.2557,-54.7077 C34.8124,-54.7077 45.8585,-50.1888 45.8585,-45.1679 Z" style="stroke-width: 0.0240; stroke-linecap: round; stroke-linejoin: round; fill-rule: evenodd; fill: #cccccc; "/>
      <path d="  M45.8585,-45.1679 C45.8585,-39.6448 34.8124,-35.6280 21.2557,-35.6280 C8.2012,-35.6280 -2.8450,-39.6448 -2.8450,-45.1679 C-2.8450,-50.1888 8.2012,-54.7077 21.2557,-54.7077 C34.8124,-54.7077 45.8585,-50.1888 45.8585,-45.1679 Z" style="stroke-width: 0.0240; stroke: #ffffff; stroke-dasharray: none; stroke-linecap: round; stroke-linejoin: round; fill: none; "/>
    </g>
    <path xmlns="http://www.w3.org/2000/svg" d="  M64.5745,-19.1227 L47.6633,-19.1227 L47.6633,-30.6224 L64.5745,-30.6224 L64.5745,-19.1227 Z" style="fill-rule: evenodd; fill: #ffffff; "/>
    <path xmlns="http://www.w3.org/2000/svg" d="  M64.5745,-19.1227 L47.6633,-19.1227 L47.6633,-30.6224 L64.5745,-30.6224 L64.5745,-19.1227 Z" style="stroke-width: 0.0295; stroke: #7f7f7f; stroke-dasharray: none; stroke-linecap: round; stroke-linejoin: round; fill: none; "/>
    <path xmlns="http://www.w3.org/2000/svg" d="  M63.8981,-29.0440 C63.8981,-29.0440 56.6826,-24.5343 56.2316,-24.0834 C56.0062,-24.3088 48.1142,-29.0440 48.1142,-29.0440 C48.1142,-29.2695 47.8888,-30.6224 47.8888,-30.6224 C47.4378,-30.6224 47.4378,-30.6224 47.4378,-30.6224 C47.8888,-28.8185 47.8888,-28.8185 47.8888,-28.8185 C47.8888,-28.8185 56.0062,-23.8579 56.0062,-23.8579 C56.0062,-23.6324 56.2316,-23.6324 56.2316,-23.8579 C64.3490,-28.8185 64.3490,-28.8185 64.3490,-28.8185 C64.3490,-28.8185 64.8000,-30.6224 64.8000,-30.6224 C64.5745,-30.6224 64.5745,-30.6224 64.5745,-30.6224 C64.5745,-30.6224 63.8981,-29.0440 63.8981,-29.0440 Z" style="fill-rule: evenodd; fill: #7f7f7f; "/>
    <path xmlns="http://www.w3.org/2000/svg" d="  M47.8888,-20.7011 C47.4378,-19.1227 47.4378,-19.1227 47.4378,-19.1227 C47.8888,-19.1227 47.8888,-19.1227 47.8888,-19.1227 C48.3397,-20.4756 48.3397,-20.4756 48.3397,-20.4756 C48.5652,-20.7011 51.7220,-23.6324 53.7513,-25.4363 C53.5258,-25.6617 53.5258,-25.6617 53.5258,-25.6617 C52.8494,-25.2108 48.3397,-20.9266 47.8888,-20.7011 Z" style="fill-rule: evenodd; fill: #7f7f7f; "/>
    <path xmlns="http://www.w3.org/2000/svg" d="  M58.4865,-25.4363 C60.5158,-23.6324 63.6726,-20.7011 63.8981,-20.4756 C63.8981,-20.4756 64.5745,-19.1227 64.5745,-19.1227 C64.8000,-19.1227 64.8000,-19.1227 64.8000,-19.1227 C64.3490,-20.7011 64.3490,-20.7011 64.3490,-20.7011 C63.8981,-20.9266 59.3884,-25.2108 58.7120,-25.6617 C58.4865,-25.4363 58.4865,-25.4363 58.4865,-25.4363 Z" style="fill-rule: evenodd; fill: #7f7f7f; "/>
    <path xmlns="http://www.w3.org/2000/svg" d="  M64.8000,5.6804 C64.8000,5.0040 63.6726,4.5530 63.6726,4.5530 C55.5552,4.5530 55.5552,4.5530 55.5552,4.5530 C55.5552,4.5530 54.6533,5.0040 54.6533,5.6804 C54.6533,11.7685 54.6533,11.7685 54.6533,11.7685 C54.6533,12.6704 54.6533,12.6704 54.6533,12.6704 C54.6533,13.1214 55.5552,13.7978 55.5552,13.7978 C63.6726,13.7978 63.6726,13.7978 63.6726,13.7978 C63.6726,13.7978 64.8000,13.1214 64.8000,12.6704 C64.8000,11.7685 64.8000,11.7685 64.8000,11.7685 C64.8000,5.6804 64.8000,5.6804 64.8000,5.6804 Z" style="fill-rule: evenodd; fill: #000000; "/>
    <path xmlns="http://www.w3.org/2000/svg" d="  M64.8000,5.6804 C64.8000,5.0040 63.6726,4.5530 63.6726,4.5530 C55.5552,4.5530 55.5552,4.5530 55.5552,4.5530 C55.5552,4.5530 54.6533,5.0040 54.6533,5.6804 C54.6533,11.7685 54.6533,11.7685 54.6533,11.7685 C54.6533,12.6704 54.6533,12.6704 54.6533,12.6704 C54.6533,13.1214 55.5552,13.7978 55.5552,13.7978 C63.6726,13.7978 63.6726,13.7978 63.6726,13.7978 C63.6726,13.7978 64.8000,13.1214 64.8000,12.6704 C64.8000,11.7685 64.8000,11.7685 64.8000,11.7685 C64.8000,5.6804 64.8000,5.6804 64.8000,5.6804 Z" style="stroke-width: 0.0295; stroke: #ffffff; stroke-dasharray: none; stroke-linecap: round; stroke-linejoin: round; fill: none; "/>
    <path xmlns="http://www.w3.org/2000/svg" d="  M59.1629,0.2688 C60.0649,0.2688 60.0649,0.2688 60.0649,0.2688 C60.9668,0.2688 61.6432,0.9453 61.6432,1.8472 C61.6432,5.4549 61.6432,5.4549 61.6432,5.4549 C61.8687,5.6804 61.8687,5.6804 61.8687,5.6804 C61.8687,5.6804 62.0942,5.6804 62.3197,5.6804 C62.5452,5.6804 62.7707,5.6804 62.9961,5.4549 C62.9961,1.6217 62.9961,1.6217 62.9961,1.6217 C62.9961,0.0433 61.8687,-1.0841 60.2903,-1.0841 C58.9374,-1.0841 58.9374,-1.0841 58.9374,-1.0841 C59.1629,0.2688 59.1629,0.2688 59.1629,0.2688 Z" style="fill-rule: evenodd; fill: #000000; "/>
    <path xmlns="http://www.w3.org/2000/svg" d="  M59.1629,0.2688 C60.0649,0.2688 60.0649,0.2688 60.0649,0.2688 C60.9668,0.2688 61.6432,0.9453 61.6432,1.8472 C61.6432,5.4549 61.6432,5.4549 61.6432,5.4549 C61.8687,5.6804 61.8687,5.6804 61.8687,5.6804 C61.8687,5.6804 62.0942,5.6804 62.3197,5.6804 C62.5452,5.6804 62.7707,5.6804 62.9961,5.4549 C62.9961,1.6217 62.9961,1.6217 62.9961,1.6217 C62.9961,0.0433 61.8687,-1.0841 60.2903,-1.0841 C58.9374,-1.0841 58.9374,-1.0841 58.9374,-1.0841 C59.1629,0.2688 59.1629,0.2688 59.1629,0.2688 Z" style="stroke-width: 0.0295; stroke: #ffffff; stroke-dasharray: none; stroke-linecap: round; stroke-linejoin: round; fill: none; "/>
    <path xmlns="http://www.w3.org/2000/svg" d="  M52.1729,-15.7405 L52.1729,-11.2308 L47.6633,-11.2308 L47.6633,1.6217 L61.1923,1.6217 L61.1923,-15.7405 L52.1729,-15.7405 Z" style="fill-rule: evenodd; fill: #ffffff; "/>
    <path xmlns="http://www.w3.org/2000/svg" d="  M52.1729,-15.7405 L52.1729,-11.2308 L47.6633,-11.2308 L47.6633,1.6217 L61.1923,1.6217 L61.1923,-15.7405 L52.1729,-15.7405 Z" style="stroke-width: 0.0295; stroke: #7f7f7f; stroke-dasharray: none; stroke-linecap: round; stroke-linejoin: round; fill: none; "/>
    <path xmlns="http://www.w3.org/2000/svg" d="  M52.1729,-15.7405 L47.6633,-11.2308 L52.1729,-11.2308 L52.1729,-15.7405 Z" style="fill-rule: evenodd; fill: #b3b3b3; "/>
    <path xmlns="http://www.w3.org/2000/svg" d="  M52.1729,-15.7405 L47.6633,-11.2308 L52.1729,-11.2308 L52.1729,-15.7405 Z" style="stroke-width: 0.0295; stroke: #7f7f7f; stroke-dasharray: none; stroke-linecap: round; stroke-linejoin: round; fill: none; "/>
    <path xmlns="http://www.w3.org/2000/svg" d="  M20.1543,-1.7605 L12.0369,-0.1821 L12.0369,-10.7798 L20.1543,-12.1327 L20.1543,-1.7605 Z" style="fill-rule: evenodd; fill: #171868; "/>
    <path xmlns="http://www.w3.org/2000/svg" d="  M3.6941,-1.7605 L12.0369,-0.1821 L12.0369,-10.7798 L3.6941,-12.1327 L3.6941,-1.7605 Z" style="fill-rule: evenodd; fill: #8b8bb3; "/>
    <path xmlns="http://www.w3.org/2000/svg" d="  M12.0369,-13.4856 L20.1543,-12.1327 L12.0369,-10.7798 L3.6941,-12.1327 L12.0369,-13.4856 Z" style="fill-rule: evenodd; fill: #d1d1e1; "/>
    <path xmlns="http://www.w3.org/2000/svg" d="  M39.7714,-20.4756 L31.6540,-19.1227 L31.6540,-29.4950 L39.7714,-31.0733 L39.7714,-20.4756 Z" style="fill-rule: evenodd; fill: #f07600; "/>
    <path xmlns="http://www.w3.org/2000/svg" d="  M23.3111,-20.4756 L31.6540,-19.1227 L31.6540,-29.4950 L23.3111,-31.0733 L23.3111,-20.4756 Z" style="fill-rule: evenodd; fill: #f5b86b; "/>
    <path xmlns="http://www.w3.org/2000/svg" d="  M31.6540,-32.4262 L39.7714,-31.0733 L31.6540,-29.4950 L23.3111,-31.0733 L31.6540,-32.4262 Z" style="fill-rule: evenodd; fill: #fbe3bf; "/>
    <path xmlns="http://www.w3.org/2000/svg" d="  M39.7714,-1.7605 L31.6540,-0.1821 L31.6540,-10.7798 L39.7714,-12.1327 L39.7714,-1.7605 Z" style="fill-rule: evenodd; fill: #999999; "/>
    <path xmlns="http://www.w3.org/2000/svg" d="  M23.3111,-1.7605 L31.6540,-0.1821 L31.6540,-10.7798 L23.3111,-12.1327 L23.3111,-1.7605 Z" style="fill-rule: evenodd; fill: #cccccc; "/>
    <path xmlns="http://www.w3.org/2000/svg" d="  M31.6540,-13.4856 L39.7714,-12.1327 L31.6540,-10.7798 L23.3111,-12.1327 L31.6540,-13.4856 Z" style="fill-rule: evenodd; fill: #ffffff; "/>
    <path xmlns="http://www.w3.org/2000/svg" d="  M59.6139,-0.6331 C59.6139,-0.8586 58.9374,-1.0841 58.9374,-1.0841 C57.5845,-1.0841 56.2316,0.0433 56.2316,1.6217 C56.2316,5.4549 56.2316,5.4549 56.2316,5.4549 C56.4571,5.6804 56.4571,5.6804 56.4571,5.6804 C56.4571,5.6804 56.6826,5.6804 56.9081,5.6804 C57.1336,5.6804 57.5845,5.6804 57.5845,5.6804 C57.5845,5.4549 57.5845,5.4549 57.5845,5.4549 C57.5845,1.8472 57.5845,1.8472 57.5845,1.8472 C57.5845,0.9453 58.2610,0.2688 59.1629,0.2688 C59.1629,0.2688 59.6139,0.2688 59.6139,-0.6331 Z" style="fill-rule: evenodd; fill: #000000; "/>
    <path xmlns="http://www.w3.org/2000/svg" d="  M59.6139,-0.6331 C59.6139,-0.8586 58.9374,-1.0841 58.9374,-1.0841 C57.5845,-1.0841 56.2316,0.0433 56.2316,1.6217 C56.2316,5.4549 56.2316,5.4549 56.2316,5.4549 C56.4571,5.6804 56.4571,5.6804 56.4571,5.6804 C56.4571,5.6804 56.6826,5.6804 56.9081,5.6804 C57.1336,5.6804 57.5845,5.6804 57.5845,5.6804 C57.5845,5.4549 57.5845,5.4549 57.5845,5.4549 C57.5845,1.8472 57.5845,1.8472 57.5845,1.8472 C57.5845,0.9453 58.2610,0.2688 59.1629,0.2688 C59.1629,0.2688 59.6139,0.2688 59.6139,-0.6331 Z" style="stroke-width: 0.0295; stroke: #ffffff; stroke-dasharray: none; stroke-linecap: round; stroke-linejoin: round; fill: none; "/>
    <path xmlns="http://www.w3.org/2000/svg" d="  M-14.3446,-36.2594 L-14.3446,-31.7498 L-18.8543,-31.7498 L-18.8543,-18.6718 L-5.3253,-18.6718 L-5.3253,-36.2594 L-14.3446,-36.2594 Z" style="fill-rule: evenodd; fill: #ffffff; "/>
    <path xmlns="http://www.w3.org/2000/svg" d="  M-14.3446,-36.2594 L-14.3446,-31.7498 L-18.8543,-31.7498 L-18.8543,-18.6718 L-5.3253,-18.6718 L-5.3253,-36.2594 L-14.3446,-36.2594 Z" style="stroke-width: 0.0295; stroke: #7f7f7f; stroke-dasharray: none; stroke-linecap: round; stroke-linejoin: round; fill: none; "/>
    <path xmlns="http://www.w3.org/2000/svg" d="  M-14.3446,-36.2594 L-18.8543,-31.7498 L-14.3446,-31.7498 L-14.3446,-36.2594 Z" style="fill-rule: evenodd; fill: #b3b3b3; "/>
    <path xmlns="http://www.w3.org/2000/svg" d="  M-14.3446,-36.2594 L-18.8543,-31.7498 L-14.3446,-31.7498 L-14.3446,-36.2594 Z" style="stroke-width: 0.0295; stroke: #7f7f7f; stroke-dasharray: none; stroke-linecap: round; stroke-linejoin: round; fill: none; "/>
    <path xmlns="http://www.w3.org/2000/svg" d="  M16.3211,-14.6131 C16.3211,-15.2895 15.1937,-15.7405 15.1937,-15.7405 C7.3018,-15.7405 7.3018,-15.7405 7.3018,-15.7405 C7.3018,-15.7405 6.1744,-15.2895 6.1744,-14.6131 C6.1744,-8.5250 6.1744,-8.5250 6.1744,-8.5250 C6.1744,-7.6231 6.1744,-7.6231 6.1744,-7.6231 C6.1744,-6.9466 7.3018,-6.4957 7.3018,-6.4957 C15.1937,-6.4957 15.1937,-6.4957 15.1937,-6.4957 C15.1937,-6.4957 16.3211,-6.9466 16.3211,-7.6231 C16.3211,-8.5250 16.3211,-8.5250 16.3211,-8.5250 C16.3211,-14.6131 16.3211,-14.6131 16.3211,-14.6131 Z" style="fill-rule: evenodd; fill: #000000; "/>
    <path xmlns="http://www.w3.org/2000/svg" d="  M16.3211,-14.6131 C16.3211,-15.2895 15.1937,-15.7405 15.1937,-15.7405 C7.3018,-15.7405 7.3018,-15.7405 7.3018,-15.7405 C7.3018,-15.7405 6.1744,-15.2895 6.1744,-14.6131 C6.1744,-8.5250 6.1744,-8.5250 6.1744,-8.5250 C6.1744,-7.6231 6.1744,-7.6231 6.1744,-7.6231 C6.1744,-6.9466 7.3018,-6.4957 7.3018,-6.4957 C15.1937,-6.4957 15.1937,-6.4957 15.1937,-6.4957 C15.1937,-6.4957 16.3211,-6.9466 16.3211,-7.6231 C16.3211,-8.5250 16.3211,-8.5250 16.3211,-8.5250 C16.3211,-14.6131 16.3211,-14.6131 16.3211,-14.6131 Z" style="stroke-width: 0.0295; stroke: #ffffff; stroke-dasharray: none; stroke-linecap: round; stroke-linejoin: round; fill: none; "/>
    <path xmlns="http://www.w3.org/2000/svg" d="  M10.9095,-20.0247 C11.5860,-20.0247 11.5860,-20.0247 11.5860,-20.0247 C12.4879,-20.0247 13.1644,-19.3482 13.1644,-18.4463 C13.1644,-14.8385 13.1644,-14.8385 13.1644,-14.8385 C13.3898,-14.6131 13.3898,-14.6131 13.3898,-14.6131 C13.3898,-14.6131 13.6153,-14.6131 13.8408,-14.6131 C14.2918,-14.6131 14.5173,-14.6131 14.5173,-14.6131 C14.5173,-14.8385 14.5173,-14.8385 14.5173,-14.8385 C14.5173,-18.6718 14.5173,-18.6718 14.5173,-18.6718 C14.5173,-20.2501 13.3898,-21.3776 11.8115,-21.3776 C10.6840,-21.3776 10.6840,-21.3776 10.6840,-21.3776 C10.9095,-20.0247 10.9095,-20.0247 10.9095,-20.0247 Z" style="fill-rule: evenodd; fill: #000000; "/>
    <path xmlns="http://www.w3.org/2000/svg" d="  M10.9095,-20.0247 C11.5860,-20.0247 11.5860,-20.0247 11.5860,-20.0247 C12.4879,-20.0247 13.1644,-19.3482 13.1644,-18.4463 C13.1644,-14.8385 13.1644,-14.8385 13.1644,-14.8385 C13.3898,-14.6131 13.3898,-14.6131 13.3898,-14.6131 C13.3898,-14.6131 13.6153,-14.6131 13.8408,-14.6131 C14.2918,-14.6131 14.5173,-14.6131 14.5173,-14.6131 C14.5173,-14.8385 14.5173,-14.8385 14.5173,-14.8385 C14.5173,-18.6718 14.5173,-18.6718 14.5173,-18.6718 C14.5173,-20.2501 13.3898,-21.3776 11.8115,-21.3776 C10.6840,-21.3776 10.6840,-21.3776 10.6840,-21.3776 C10.9095,-20.0247 10.9095,-20.0247 10.9095,-20.0247 Z" style="stroke-width: 0.0295; stroke: #ffffff; stroke-dasharray: none; stroke-linecap: round; stroke-linejoin: round; fill: none; "/>
    <path xmlns="http://www.w3.org/2000/svg" d="  M20.1543,-20.4756 L12.0369,-19.1227 L12.0369,-29.4950 L20.1543,-31.0733 L20.1543,-20.4756 Z" style="fill-rule: evenodd; fill: #2061a2; "/>
    <path xmlns="http://www.w3.org/2000/svg" d="  M3.6941,-20.4756 L12.0369,-19.1227 L12.0369,-29.4950 L3.6941,-31.0733 L3.6941,-20.4756 Z" style="fill-rule: evenodd; fill: #8ca7ca; "/>
    <path xmlns="http://www.w3.org/2000/svg" d="  M12.0369,-32.4262 L20.1543,-31.0733 L12.0369,-29.4950 L3.6941,-31.0733 L12.0369,-32.4262 Z" style="fill-rule: evenodd; fill: #d0dae9; "/>
    <path xmlns="http://www.w3.org/2000/svg" d="  M6.8508,-26.3382 C-6.6782,-26.3382 -6.6782,-26.3382 -6.6782,-26.3382 C-6.6782,-29.2695 -6.6782,-29.2695 -6.6782,-29.2695 C-12.7662,-24.9853 -12.7662,-24.9853 -12.7662,-24.9853 C-6.6782,-20.4756 -6.6782,-20.4756 -6.6782,-20.4756 C-6.6782,-23.4069 -6.6782,-23.4069 -6.6782,-23.4069 C6.8508,-23.4069 6.8508,-23.4069 6.8508,-23.4069 C7.5273,-23.4069 8.2037,-24.0834 8.2037,-24.7598 C8.2037,-25.6617 7.5273,-26.3382 6.8508,-26.3382 Z" style="fill-rule: evenodd; fill: #f07600; "/>
    <path xmlns="http://www.w3.org/2000/svg" d="  M50.1436,-7.3976 C41.3497,-7.3976 41.3497,-7.3976 41.3497,-7.3976 C41.3497,-10.3289 41.3497,-10.3289 41.3497,-10.3289 C35.2617,-5.8192 35.2617,-5.8192 35.2617,-5.8192 C41.3497,-1.3096 41.3497,-1.3096 41.3497,-1.3096 C41.3497,-4.4663 41.3497,-4.4663 41.3497,-4.4663 C50.1436,-4.4663 50.1436,-4.4663 50.1436,-4.4663 C51.0455,-4.4663 51.7220,-5.1428 51.7220,-5.8192 C51.7220,-6.7212 51.0455,-7.3976 50.1436,-7.3976 Z" style="fill-rule: evenodd; fill: #2061a2; "/>
    <path xmlns="http://www.w3.org/2000/svg" d="  M50.1436,-26.3382 C41.3497,-26.3382 41.3497,-26.3382 41.3497,-26.3382 C41.3497,-29.2695 41.3497,-29.2695 41.3497,-29.2695 C35.2617,-24.9853 35.2617,-24.9853 35.2617,-24.9853 C41.3497,-20.4756 41.3497,-20.4756 41.3497,-20.4756 C41.3497,-23.4069 41.3497,-23.4069 41.3497,-23.4069 C50.1436,-23.4069 50.1436,-23.4069 50.1436,-23.4069 C51.0455,-23.4069 51.7220,-24.0834 51.7220,-24.7598 C51.7220,-25.6617 51.0455,-26.3382 50.1436,-26.3382 Z" style="fill-rule: evenodd; fill: #2061a2; "/>
    <path xmlns="http://www.w3.org/2000/svg" d="  M11.1350,-20.9266 C11.1350,-21.1521 10.6840,-21.3776 10.6840,-21.3776 C9.1057,-21.3776 7.9782,-20.2501 7.9782,-18.6718 C7.9782,-14.8385 7.9782,-14.8385 7.9782,-14.8385 C7.9782,-14.6131 7.9782,-14.6131 7.9782,-14.6131 C7.9782,-14.6131 8.4292,-14.6131 8.6547,-14.6131 C8.8802,-14.6131 9.1057,-14.6131 9.1057,-14.6131 C9.3311,-14.8385 9.3311,-14.8385 9.3311,-14.8385 C9.3311,-18.4463 9.3311,-18.4463 9.3311,-18.4463 C9.3311,-19.3482 10.0076,-20.0247 10.9095,-20.0247 C10.9095,-20.0247 11.1350,-20.0247 11.1350,-20.9266 Z" style="fill-rule: evenodd; fill: #000000; "/>
    <path xmlns="http://www.w3.org/2000/svg" d="  M11.1350,-20.9266 C11.1350,-21.1521 10.6840,-21.3776 10.6840,-21.3776 C9.1057,-21.3776 7.9782,-20.2501 7.9782,-18.6718 C7.9782,-14.8385 7.9782,-14.8385 7.9782,-14.8385 C7.9782,-14.6131 7.9782,-14.6131 7.9782,-14.6131 C7.9782,-14.6131 8.4292,-14.6131 8.6547,-14.6131 C8.8802,-14.6131 9.1057,-14.6131 9.1057,-14.6131 C9.3311,-14.8385 9.3311,-14.8385 9.3311,-14.8385 C9.3311,-18.4463 9.3311,-18.4463 9.3311,-18.4463 C9.3311,-19.3482 10.0076,-20.0247 10.9095,-20.0247 C10.9095,-20.0247 11.1350,-20.0247 11.1350,-20.9266 Z" style="stroke-width: 0.0295; stroke: #ffffff; stroke-dasharray: none; stroke-linecap: round; stroke-linejoin: round; fill: none; "/>
    <text xmlns="http://www.w3.org/2000/svg" x="-18.6800" y="16.1743">
      <tspan font-family="Arial" font-size="4.5000" fill="#000000" fill-opacity="1.0000" stroke-opacity="1.0000">
ECM</tspan>
    </text>
    <!--converted by libvisio2svg-->
  </g>
</svg>
