<svg xmlns="http://www.w3.org/2000/svg" xmlns:xlink="http://www.w3.org/1999/xlink" version="1.1" width="42.1920000000" height="7.2000000000">
  <title><![CDATA[Enterprise Tape Library]]></title>
  <g transform=" scale(1.000000) ">
    <path xmlns="http://www.w3.org/2000/svg" d="  M57.6221,-104.4136 L-0.0221,-104.4136 L3.2027,-108.8478 L54.3973,-108.8478 L57.6221,-104.4136 Z" style="fill-rule: evenodd; fill: #b3b3b3; "/>
    <path xmlns="http://www.w3.org/2000/svg" d="  M57.6221,-104.4136 L-0.0221,-104.4136 L-0.0221,7.6500 L57.6221,7.6500 L57.6221,-104.4136 Z" style="fill-rule: evenodd; fill: #7f7f7f; "/>
    <path xmlns="http://www.w3.org/2000/svg" d="  M35.8544,-7.2649 C39.0792,-9.6836 41.0948,-13.3115 41.0948,-17.3426 C41.0948,-24.1954 35.8544,-29.8389 29.0016,-29.8389 C22.1487,-29.8389 16.5052,-24.1954 16.5052,-17.3426 C16.5052,-10.4898 22.1487,-5.2494 29.0016,-5.2494 C43.5134,-5.2494 43.5134,-5.2494 43.5134,-5.2494 C43.5134,-7.2649 43.5134,-7.2649 43.5134,-7.2649 C35.8544,-7.2649 35.8544,-7.2649 35.8544,-7.2649 Z" style="fill-rule: evenodd; fill: #b3b3b3; "/>
    <path xmlns="http://www.w3.org/2000/svg" d="  M32.6295,-17.3426 C32.6295,-15.3271 31.0171,-13.7147 29.0016,-13.7147 C26.5829,-13.7147 24.9705,-15.3271 24.9705,-17.3426 C24.9705,-19.3581 26.5829,-21.3737 29.0016,-21.3737 C31.0171,-21.3737 32.6295,-19.3581 32.6295,-17.3426 Z" style="fill-rule: evenodd; fill: #ffffff; "/>
    <path xmlns="http://www.w3.org/2000/svg" d="  M41.4966,-86.6766 L31.4215,-86.6766 L31.4215,-53.2194 L41.4966,-53.2194 L41.4966,-86.6766 Z M26.1785,-86.6766 L16.1034,-86.6766 L16.1034,-53.2194 L26.1785,-53.2194 L26.1785,-86.6766 Z" style="fill-rule: evenodd; fill: #333333; "/>
    <path xmlns="http://www.w3.org/2000/svg" d="  M54.3966,-98.7674 L49.1576,-98.7674 L49.1576,-0.4149 L54.3966,-0.4149 L54.3966,-98.7674 Z M8.4424,-98.7674 L3.2034,-98.7674 L3.2034,-0.4149 L8.4424,-0.4149 L8.4424,-98.7674 Z" style="fill-rule: evenodd; fill: #333333; "/>
    <path xmlns="http://www.w3.org/2000/svg" d="  M27.2735,-39.1110 L26.0939,-39.1110 L26.0939,-44.3501 L27.2735,-44.3501 L27.2735,-39.1110 Z M31.5061,-39.1110 L30.3265,-39.1110 L30.3265,-44.3501 L31.5061,-44.3501 L31.5061,-39.1110 Z" style="fill-rule: evenodd; fill: #333333; "/>
    <text xmlns="http://www.w3.org/2000/svg" x="-11.4861" y="21.2473">
      <tspan font-family="Arial" font-size="4.5000" fill="#000000" fill-opacity="1.0000" stroke-opacity="1.0000">
Enterprise Tape Library</tspan>
    </text>
    <!--converted by libvisio2svg-->
  </g>
</svg>
