<svg xmlns="http://www.w3.org/2000/svg" xmlns:xlink="http://www.w3.org/1999/xlink" version="1.1" width="42.1920000000" height="7.2000000000">
  <title><![CDATA[Enterprise Storage Array]]></title>
  <g transform=" scale(1.000000) ">
    <path xmlns="http://www.w3.org/2000/svg" d="  M57.6221,-104.8636 L-0.0221,-104.8636 L3.2027,-109.2978 L54.3973,-109.2978 L57.6221,-104.8636 Z" style="fill-rule: evenodd; fill: #b3b3b3; "/>
    <path xmlns="http://www.w3.org/2000/svg" d="  M57.6221,-104.8636 L-0.0221,-104.8636 L-0.0221,7.2000 L57.6221,7.2000 L57.6221,-104.8636 Z" style="fill-rule: evenodd; fill: #7f7f7f; "/>
    <path xmlns="http://www.w3.org/2000/svg" d="  M28.5984,-77.7211 C29.4047,-77.7211 29.8078,-77.7211 30.6140,-77.7211 C30.6140,-91.4268 30.6140,-91.4268 30.6140,-91.4268 C26.9860,-91.4268 26.9860,-91.4268 26.9860,-91.4268 C26.9860,-77.7211 26.9860,-77.7211 26.9860,-77.7211 C27.7922,-77.7211 28.1953,-77.7211 28.5984,-77.7211 Z M34.6450,-72.7495 C34.6450,-70.3308 31.8233,-68.3153 28.5984,-68.3153 C25.7767,-68.3153 22.9550,-70.3308 22.9550,-72.7495 C22.9550,-75.1681 25.7767,-76.7805 28.5984,-76.7805 C31.8233,-76.7805 34.6450,-75.1681 34.6450,-72.7495 Z M28.5984,-66.9716 C28.1953,-66.9716 27.7922,-67.3747 26.9860,-67.3747 C26.9860,5.5876 26.9860,5.5876 26.9860,5.5876 C30.6140,5.5876 30.6140,5.5876 30.6140,5.5876 C30.6140,-67.3747 30.6140,-67.3747 30.6140,-67.3747 C29.8078,-67.3747 29.4047,-66.9716 28.5984,-66.9716 Z" style="fill-rule: evenodd; fill: #b3b3b3; "/>
    <path xmlns="http://www.w3.org/2000/svg" d="  M56.0093,-103.2471 L52.7853,-103.2471 L52.7853,5.5835 L56.0093,5.5835 L56.0093,-103.2471 Z M4.4116,-103.2471 L1.1876,-103.2471 L1.1876,5.5835 L4.4116,5.5835 L4.4116,-103.2471 Z" style="fill-rule: evenodd; fill: #b3b3b3; "/>
    <path xmlns="http://www.w3.org/2000/svg" d="  M41.0948,-104.8636 C41.0948,-98.0108 35.8544,-92.3673 28.5984,-92.3673 C21.7456,-92.3673 16.5052,-98.0108 16.5052,-104.8636 C41.0948,-104.8636 41.0948,-104.8636 41.0948,-104.8636 Z" style="fill-rule: evenodd; fill: #333333; "/>
    <text xmlns="http://www.w3.org/2000/svg" x="-12.9196" y="20.7973">
      <tspan font-family="Arial" font-size="4.5000" fill="#000000" fill-opacity="1.0000" stroke-opacity="1.0000">
Enterprise Storage Array</tspan>
    </text>
    <!--converted by libvisio2svg-->
  </g>
</svg>
