<svg xmlns="http://www.w3.org/2000/svg" xmlns:xlink="http://www.w3.org/1999/xlink" version="1.1" width="43.2000000000" height="7.2000000000">
  <title><![CDATA[Ethernet Switch]]></title>
  <g transform=" scale(1.000000) ">
    <path xmlns="http://www.w3.org/2000/svg" d="  M43.2017,7.2000 L-0.0017,7.2000 L-0.0017,-36.0035 L43.2017,-36.0035 L43.2017,7.2000 Z" style="fill-rule: evenodd; fill: #ffffff; "/>
    <path xmlns="http://www.w3.org/2000/svg" d="  M43.2017,7.2000 L-0.0017,7.2000 L-0.0017,-36.0035 L43.2017,-36.0035 L43.2017,7.2000 Z" style="stroke-width: 0.0591; stroke: #7f7f7f; stroke-dasharray: none; stroke-linecap: round; stroke-linejoin: round; fill: none; "/>
    <path xmlns="http://www.w3.org/2000/svg" d="  M28.2826,-20.4627 C18.3364,-20.4627 18.3364,-20.4627 18.3364,-20.4627 C18.3364,-22.9492 18.3364,-22.9492 18.3364,-22.9492 C13.9850,-19.5302 13.9850,-19.5302 13.9850,-19.5302 C18.3364,-16.4220 18.3364,-16.4220 18.3364,-16.4220 C18.3364,-18.5978 18.3364,-18.5978 18.3364,-18.5978 C28.2826,-18.5978 28.2826,-18.5978 28.2826,-18.5978 C28.9042,-18.5978 29.2150,-19.2194 29.2150,-19.5302 C29.2150,-20.1518 28.9042,-20.4627 28.2826,-20.4627 Z M14.9174,-25.4357 C25.1744,-25.4357 25.1744,-25.4357 25.1744,-25.4357 C25.1744,-22.9492 25.1744,-22.9492 25.1744,-22.9492 C29.2150,-26.3682 29.2150,-26.3682 29.2150,-26.3682 C25.1744,-29.4763 25.1744,-29.4763 25.1744,-29.4763 C25.1744,-27.3006 25.1744,-27.3006 25.1744,-27.3006 C14.9174,-27.3006 14.9174,-27.3006 14.9174,-27.3006 C14.2958,-27.3006 13.9850,-26.6790 13.9850,-26.3682 C13.9850,-25.7465 14.2958,-25.4357 14.9174,-25.4357 Z M28.2826,-3.3678 C18.3364,-3.3678 18.3364,-3.3678 18.3364,-3.3678 C18.3364,-5.8543 18.3364,-5.8543 18.3364,-5.8543 C13.9850,-2.4353 13.9850,-2.4353 13.9850,-2.4353 C18.3364,0.6729 18.3364,0.6729 18.3364,0.6729 C18.3364,-1.5029 18.3364,-1.5029 18.3364,-1.5029 C28.2826,-1.5029 28.2826,-1.5029 28.2826,-1.5029 C28.9042,-1.5029 29.2150,-2.1245 29.2150,-2.4353 C29.2150,-3.0569 28.9042,-3.3678 28.2826,-3.3678 Z M25.1744,-10.2057 C14.9174,-10.2057 14.9174,-10.2057 14.9174,-10.2057 C14.2958,-10.2057 13.9850,-9.5841 13.9850,-9.2733 C13.9850,-8.6516 14.2958,-8.3408 14.9174,-8.3408 C25.1744,-8.3408 25.1744,-8.3408 25.1744,-8.3408 C25.1744,-6.1651 25.1744,-6.1651 25.1744,-6.1651 C29.2150,-9.2733 29.2150,-9.2733 29.2150,-9.2733 C25.1744,-12.3814 25.1744,-12.3814 25.1744,-12.3814 C25.1744,-10.2057 25.1744,-10.2057 25.1744,-10.2057 Z" style="fill-rule: evenodd; fill: #2061a2; "/>
    <text xmlns="http://www.w3.org/2000/svg" x="-7.7000" y="13.7400">
      <tspan font-family="Arial" font-size="4.5000" fill="#000000" fill-opacity="1.0000" stroke-opacity="1.0000">
Ethernet Switch</tspan>
    </text>
    <!--converted by libvisio2svg-->
  </g>
</svg>
