<svg xmlns="http://www.w3.org/2000/svg" xmlns:xlink="http://www.w3.org/1999/xlink" version="1.1" width="43.2000000000" height="7.2000000000">
  <title><![CDATA[Failure]]></title>
  <g transform=" scale(1.000000) ">
    <path xmlns="http://www.w3.org/2000/svg" d="  M20.9332,-52.5330 L20.3998,-38.1312 L22.5335,-38.1312 L22.0001,-52.5330 L20.9332,-52.5330 Z" style="fill-rule: evenodd; fill: #f07600; "/>
    <path xmlns="http://www.w3.org/2000/svg" d="  M20.6665,1.3405 L21.1999,8.2747 L22.0001,8.2747 L22.8002,1.3405 L20.6665,1.3405 Z" style="fill-rule: evenodd; fill: #f07600; "/>
    <path xmlns="http://www.w3.org/2000/svg" d="  M12.6655,-51.1995 L15.8659,-34.9308 L17.9995,-35.4642 L13.4656,-51.4662 L12.6655,-51.1995 Z" style="fill-rule: evenodd; fill: #f07600; "/>
    <path xmlns="http://www.w3.org/2000/svg" d="  M24.1337,-5.8604 L28.4009,8.2747 L29.2010,8.0080 L26.5340,-6.3938 L24.1337,-5.8604 Z" style="fill-rule: evenodd; fill: #f07600; "/>
    <path xmlns="http://www.w3.org/2000/svg" d="  M6.7981,-44.2653 L11.5987,-34.9308 L13.4656,-36.2643 L7.3315,-44.7987 L6.7981,-44.2653 Z" style="fill-rule: evenodd; fill: #f07600; "/>
    <path xmlns="http://www.w3.org/2000/svg" d="  M30.8012,-1.0598 L38.5355,10.4083 L39.3356,10.1416 L32.6681,-2.3933 L30.8012,-1.0598 Z" style="fill-rule: evenodd; fill: #f07600; "/>
    <path xmlns="http://www.w3.org/2000/svg" d="  M3.5977,-37.3311 L11.0653,-28.7966 L12.6655,-30.3969 L4.3978,-37.8645 L3.5977,-37.3311 Z" style="fill-rule: evenodd; fill: #f07600; "/>
    <path xmlns="http://www.w3.org/2000/svg" d="  M29.7344,-9.0608 L41.4692,1.0738 L42.0026,0.2737 L31.3346,-10.6610 L29.7344,-9.0608 Z" style="fill-rule: evenodd; fill: #f07600; "/>
    <path xmlns="http://www.w3.org/2000/svg" d="  M-3.0698,-33.8640 L4.9312,-28.5299 L5.9980,-30.3969 L-2.5364,-34.3974 L-3.0698,-33.8640 Z" style="fill-rule: evenodd; fill: #f07600; "/>
    <path xmlns="http://www.w3.org/2000/svg" d="  M39.0689,-7.9940 L46.0031,-5.3270 L46.2698,-6.1271 L40.1357,-10.1276 L39.0689,-7.9940 Z" style="fill-rule: evenodd; fill: #f07600; "/>
    <path xmlns="http://www.w3.org/2000/svg" d="  M-10.2707,-27.7298 L6.5314,-22.6625 L7.0648,-25.0628 L-10.0040,-28.5299 L-10.2707,-27.7298 Z" style="fill-rule: evenodd; fill: #f07600; "/>
    <path xmlns="http://www.w3.org/2000/svg" d="  M33.4682,-15.9950 L52.9373,-10.9277 L53.2040,-11.7278 L34.0016,-18.1286 L33.4682,-15.9950 Z" style="fill-rule: evenodd; fill: #f07600; "/>
    <path xmlns="http://www.w3.org/2000/svg" d="  M-5.7368,-19.9955 L-5.7368,-19.1954 L3.0643,-19.7288 L3.0643,-21.8624 L-5.7368,-19.9955 Z" style="fill-rule: evenodd; fill: #f07600; "/>
    <path xmlns="http://www.w3.org/2000/svg" d="  M39.0689,-18.6620 L43.0694,-19.1954 L43.0694,-19.9955 L39.0689,-20.7956 L39.0689,-18.6620 Z" style="fill-rule: evenodd; fill: #f07600; "/>
    <path xmlns="http://www.w3.org/2000/svg" d="  M-10.2707,-11.7278 L-10.0040,-10.9277 L4.1311,-14.3948 L3.8644,-16.2617 L-10.2707,-11.7278 Z" style="fill-rule: evenodd; fill: #f07600; "/>
    <path xmlns="http://www.w3.org/2000/svg" d="  M33.7349,-24.7961 L34.2683,-22.3958 L53.2040,-27.7298 L52.9373,-28.5299 L33.7349,-24.7961 Z" style="fill-rule: evenodd; fill: #f07600; "/>
    <path xmlns="http://www.w3.org/2000/svg" d="  M-3.3365,-6.1271 L-2.8031,-5.3270 L9.4651,-11.1944 L8.3983,-13.3280 L-3.3365,-6.1271 Z" style="fill-rule: evenodd; fill: #f07600; "/>
    <path xmlns="http://www.w3.org/2000/svg" d="  M36.1352,-29.8634 L37.2020,-27.9965 L45.2030,-33.0639 L44.9363,-33.8640 L36.1352,-29.8634 Z" style="fill-rule: evenodd; fill: #f07600; "/>
    <path xmlns="http://www.w3.org/2000/svg" d="  M-2.0030,2.9407 L-1.2029,3.7408 L11.0653,-7.4606 L9.4651,-9.0608 L-2.0030,2.9407 Z" style="fill-rule: evenodd; fill: #f07600; "/>
    <path xmlns="http://www.w3.org/2000/svg" d="  M30.8012,-30.1301 L32.4014,-28.5299 L44.9363,-42.6651 L44.1362,-43.1985 L30.8012,-30.1301 Z" style="fill-rule: evenodd; fill: #f07600; "/>
    <path xmlns="http://www.w3.org/2000/svg" d="  M9.1984,0.8071 L9.7318,1.3405 L12.9322,-1.5932 L11.0653,-2.6600 L9.1984,0.8071 Z" style="fill-rule: evenodd; fill: #f07600; "/>
    <path xmlns="http://www.w3.org/2000/svg" d="  M29.2010,-36.2643 L31.3346,-34.9308 L32.6681,-38.1312 L32.1347,-38.6646 L29.2010,-36.2643 Z" style="fill-rule: evenodd; fill: #f07600; "/>
    <path xmlns="http://www.w3.org/2000/svg" d="  M12.6655,11.7418 L13.4656,11.7418 L17.9995,-1.8599 L15.8659,-2.3933 L12.6655,11.7418 Z" style="fill-rule: evenodd; fill: #f07600; "/>
    <path xmlns="http://www.w3.org/2000/svg" d="  M26.2673,-40.7982 L28.4009,-40.2648 L29.7344,-49.8660 L28.9343,-49.8660 L26.2673,-40.7982 Z" style="fill-rule: evenodd; fill: #f07600; "/>
    <path xmlns="http://www.w3.org/2000/svg" d="  M26.2673,-51.9996 L24.9338,-37.5978 L22.8002,-37.8645 L25.4672,-52.2663 L26.2673,-51.9996 Z" style="fill-rule: evenodd; fill: #f07600; "/>
    <path xmlns="http://www.w3.org/2000/svg" d="  M19.5997,1.3405 L17.9995,8.0080 L17.1994,8.0080 L17.4661,1.0738 L19.5997,1.3405 Z" style="fill-rule: evenodd; fill: #f07600; "/>
    <path xmlns="http://www.w3.org/2000/svg" d="  M34.5350,-49.8660 L28.9343,-33.8640 L27.0674,-34.9308 L33.4682,-50.1327 L34.5350,-49.8660 Z" style="fill-rule: evenodd; fill: #f07600; "/>
    <path xmlns="http://www.w3.org/2000/svg" d="  M16.9327,-6.3938 L11.0653,6.9412 L9.9985,6.6745 L14.7991,-7.1939 L16.9327,-6.3938 Z" style="fill-rule: evenodd; fill: #f07600; "/>
    <path xmlns="http://www.w3.org/2000/svg" d="  M39.3356,-42.1317 L33.2015,-33.5973 L31.6013,-34.9308 L38.8022,-42.6651 L39.3356,-42.1317 Z" style="fill-rule: evenodd; fill: #f07600; "/>
    <path xmlns="http://www.w3.org/2000/svg" d="  M9.9985,-2.3933 L0.6640,8.0080 L-0.1361,7.4746 L8.1316,-3.9935 L9.9985,-2.3933 Z" style="fill-rule: evenodd; fill: #f07600; "/>
    <path xmlns="http://www.w3.org/2000/svg" d="  M41.4692,-34.6641 L32.9348,-27.4631 L31.6013,-29.0633 L40.9358,-35.4642 L41.4692,-34.6641 Z" style="fill-rule: evenodd; fill: #f07600; "/>
    <path xmlns="http://www.w3.org/2000/svg" d="  M11.8654,-10.1276 L-0.9362,-1.8599 L-1.4696,-2.6600 L10.5319,-11.9945 L11.8654,-10.1276 Z" style="fill-rule: evenodd; fill: #f07600; "/>
    <path xmlns="http://www.w3.org/2000/svg" d="  M47.6033,-30.3969 L39.0689,-26.3963 L38.2688,-28.5299 L47.3366,-31.1970 L47.6033,-30.3969 Z" style="fill-rule: evenodd; fill: #f07600; "/>
    <path xmlns="http://www.w3.org/2000/svg" d="  M2.5309,-10.3943 L-4.6700,-8.5274 L-4.9367,-9.3275 L1.7308,-12.5279 L2.5309,-10.3943 Z" style="fill-rule: evenodd; fill: #f07600; "/>
    <path xmlns="http://www.w3.org/2000/svg" d="  M54.0041,-23.7293 L36.9353,-20.7956 L36.6686,-23.1959 L53.7374,-24.5294 L54.0041,-23.7293 Z" style="fill-rule: evenodd; fill: #f07600; "/>
    <path xmlns="http://www.w3.org/2000/svg" d="  M9.1984,-17.5952 L-10.8041,-15.1949 L-10.8041,-15.9950 L8.9317,-19.7288 L9.1984,-17.5952 Z" style="fill-rule: evenodd; fill: #f07600; "/>
    <path xmlns="http://www.w3.org/2000/svg" d="  M48.6701,-16.5284 L48.4034,-15.7283 L39.8690,-17.3285 L40.1357,-19.4621 L48.6701,-16.5284 Z" style="fill-rule: evenodd; fill: #f07600; "/>
    <path xmlns="http://www.w3.org/2000/svg" d="  M3.8644,-20.7956 L0.1306,-22.1291 L0.1306,-22.9292 L4.1311,-23.1959 L3.8644,-20.7956 Z" style="fill-rule: evenodd; fill: #f07600; "/>
    <path xmlns="http://www.w3.org/2000/svg" d="  M51.8705,-7.7273 L51.6038,-6.9272 L38.0021,-12.2612 L38.5355,-13.8614 L51.8705,-7.7273 Z" style="fill-rule: evenodd; fill: #f07600; "/>
    <path xmlns="http://www.w3.org/2000/svg" d="  M9.9985,-26.3963 L9.1984,-24.2627 L-8.6705,-31.7304 L-8.4038,-32.7972 L9.9985,-26.3963 Z" style="fill-rule: evenodd; fill: #f07600; "/>
    <path xmlns="http://www.w3.org/2000/svg" d="  M44.1362,-2.9267 L43.6028,-2.3933 L32.4014,-9.8609 L33.7349,-11.7278 L44.1362,-2.9267 Z" style="fill-rule: evenodd; fill: #f07600; "/>
    <path xmlns="http://www.w3.org/2000/svg" d="  M8.1316,-31.7304 L6.7981,-29.8634 L-0.4028,-35.9976 L0.1306,-36.7977 L8.1316,-31.7304 Z" style="fill-rule: evenodd; fill: #f07600; "/>
    <path xmlns="http://www.w3.org/2000/svg" d="  M41.7359,5.8744 L40.9358,6.4078 L30.2678,-6.3938 L31.8680,-7.7273 L41.7359,5.8744 Z" style="fill-rule: evenodd; fill: #f07600; "/>
    <path xmlns="http://www.w3.org/2000/svg" d="  M13.7323,-31.1970 L11.8654,-29.8634 L1.1974,-45.3321 L1.9975,-45.8655 L13.7323,-31.1970 Z" style="fill-rule: evenodd; fill: #f07600; "/>
    <path xmlns="http://www.w3.org/2000/svg" d="  M31.0679,2.4073 L30.2678,2.6740 L27.6008,-0.5264 L29.7344,-1.5932 L31.0679,2.4073 Z" style="fill-rule: evenodd; fill: #f07600; "/>
    <path xmlns="http://www.w3.org/2000/svg" d="  M15.8659,-37.0644 L13.7323,-35.9976 L12.6655,-39.4647 L13.4656,-39.9981 L15.8659,-37.0644 Z" style="fill-rule: evenodd; fill: #f07600; "/>
    <path xmlns="http://www.w3.org/2000/svg" d="  M26.2673,12.5419 L25.4672,12.5419 L22.8002,-1.5932 L24.9338,-1.8599 L26.2673,12.5419 Z" style="fill-rule: evenodd; fill: #f07600; "/>
    <path xmlns="http://www.w3.org/2000/svg" d="  M19.5997,-41.3316 L17.4661,-41.0649 L17.1994,-50.6661 L17.9995,-50.6661 L19.5997,-41.3316 Z" style="fill-rule: evenodd; fill: #f07600; "/>
    <text xmlns="http://www.w3.org/2000/svg" x="-7.7900" y="16.1100">
      <tspan font-family="Arial" font-size="4.5000" fill="#000000" fill-opacity="1.0000" stroke-opacity="1.0000">
Failure</tspan>
    </text>
    <!--converted by libvisio2svg-->
  </g>
</svg>
