<svg xmlns="http://www.w3.org/2000/svg" xmlns:xlink="http://www.w3.org/1999/xlink" version="1.1" width="43.2000000000" height="7.2000000000">
  <title><![CDATA[FC Switch]]></title>
  <g transform=" scale(1.000000) ">
    <path xmlns="http://www.w3.org/2000/svg" d="  M43.2017,7.2000 L-0.0017,7.2000 L-0.0017,-36.0035 L43.2017,-36.0035 L43.2017,7.2000 Z" style="fill-rule: evenodd; fill: #ffffff; "/>
    <path xmlns="http://www.w3.org/2000/svg" d="  M43.2017,7.2000 L-0.0017,7.2000 L-0.0017,-36.0035 L43.2017,-36.0035 L43.2017,7.2000 Z" style="stroke-width: 0.0591; stroke: #7f7f7f; stroke-dasharray: none; stroke-linecap: round; stroke-linejoin: round; fill: none; "/>
    <path xmlns="http://www.w3.org/2000/svg" d="  M18.0256,-27.3006 C7.7687,-27.3006 7.7687,-27.3006 7.7687,-27.3006 C7.7687,-29.4763 7.7687,-29.4763 7.7687,-29.4763 C3.7281,-26.3682 3.7281,-26.3682 3.7281,-26.3682 C7.7687,-22.9492 7.7687,-22.9492 7.7687,-22.9492 C7.7687,-25.4357 7.7687,-25.4357 7.7687,-25.4357 C18.0256,-25.4357 18.0256,-25.4357 18.0256,-25.4357 C18.6472,-25.4357 18.9581,-25.7465 18.9581,-26.3682 C18.9581,-26.6790 18.6472,-27.3006 18.0256,-27.3006 Z M25.1744,-25.4357 C35.4313,-25.4357 35.4313,-25.4357 35.4313,-25.4357 C35.4313,-22.9492 35.4313,-22.9492 35.4313,-22.9492 C39.7828,-26.3682 39.7828,-26.3682 39.7828,-26.3682 C35.4313,-29.4763 35.4313,-29.4763 35.4313,-29.4763 C35.4313,-27.3006 35.4313,-27.3006 35.4313,-27.3006 C25.1744,-27.3006 25.1744,-27.3006 25.1744,-27.3006 C24.5528,-27.3006 24.2419,-26.6790 24.2419,-26.3682 C24.2419,-25.7465 24.5528,-25.4357 25.1744,-25.4357 Z M18.0256,-3.3678 C7.7687,-3.3678 7.7687,-3.3678 7.7687,-3.3678 C7.7687,-5.8543 7.7687,-5.8543 7.7687,-5.8543 C3.7281,-2.4353 3.7281,-2.4353 3.7281,-2.4353 C7.7687,0.6729 7.7687,0.6729 7.7687,0.6729 C7.7687,-1.5029 7.7687,-1.5029 7.7687,-1.5029 C18.0256,-1.5029 18.0256,-1.5029 18.0256,-1.5029 C18.6472,-1.5029 18.9581,-2.1245 18.9581,-2.4353 C18.9581,-3.0569 18.6472,-3.3678 18.0256,-3.3678 Z M35.4313,-3.3678 C25.1744,-3.3678 25.1744,-3.3678 25.1744,-3.3678 C24.5528,-3.3678 24.2419,-3.0569 24.2419,-2.4353 C24.2419,-2.1245 24.5528,-1.5029 25.1744,-1.5029 C35.4313,-1.5029 35.4313,-1.5029 35.4313,-1.5029 C35.4313,0.6729 35.4313,0.6729 35.4313,0.6729 C39.7828,-2.4353 39.7828,-2.4353 39.7828,-2.4353 C35.4313,-5.8543 35.4313,-5.8543 35.4313,-5.8543 C35.4313,-3.3678 35.4313,-3.3678 35.4313,-3.3678 Z" style="fill-rule: evenodd; fill: #2061a2; "/>
    <path xmlns="http://www.w3.org/2000/svg" d="  M29.8366,-19.5302 C29.8366,-18.5978 26.1068,-17.6653 21.4446,-17.6653 C17.0932,-17.6653 13.3634,-18.5978 13.3634,-19.5302 C13.3634,-20.4627 17.0932,-21.3951 21.4446,-21.3951 C26.1068,-21.3951 29.8366,-20.4627 29.8366,-19.5302 Z" style="fill-rule: evenodd; fill: #b3b3b3; "/>
    <path xmlns="http://www.w3.org/2000/svg" d="  M29.8366,-9.2733 C29.8366,-8.3408 26.1068,-7.4084 21.4446,-7.4084 C17.0932,-7.4084 13.3634,-8.3408 13.3634,-9.2733 C13.3634,-19.5302 13.3634,-19.5302 13.3634,-19.5302 C13.3634,-18.5978 17.0932,-17.6653 21.4446,-17.6653 C26.1068,-17.6653 29.8366,-18.5978 29.8366,-19.5302 C29.8366,-9.2733 29.8366,-9.2733 29.8366,-9.2733 Z" style="fill-rule: evenodd; fill: #7f7f7f; "/>
    <text xmlns="http://www.w3.org/2000/svg" x="-8.7800" y="13.7400">
      <tspan font-family="Arial" font-size="4.5000" fill="#000000" fill-opacity="1.0000" stroke-opacity="1.0000">
FC Switch</tspan>
    </text>
    <!--converted by libvisio2svg-->
  </g>
</svg>
