<svg xmlns="http://www.w3.org/2000/svg" xmlns:xlink="http://www.w3.org/1999/xlink" version="1.1" width="43.2000000000" height="7.2000000000">
  <title><![CDATA[Fibre Channel Switch Fabric Mod]]></title>
  <g transform=" scale(1.000000) ">
    <path xmlns="http://www.w3.org/2000/svg" d="  M43.2169,-4.9017 L-0.0169,-4.9017 L4.8644,-14.8966 L38.1032,-14.8966 L43.2169,-4.9017 Z" style="stroke-width: 0.0591; stroke: #ffffff; stroke-dasharray: none; stroke-linecap: round; stroke-linejoin: round; fill: none; "/>
    <path xmlns="http://www.w3.org/2000/svg" d="  M43.2169,7.6500 L-0.0169,7.6500 L-0.0169,-4.9017 L43.2169,-4.9017 L43.2169,7.6500 Z" style="fill-rule: evenodd; fill: #7f7f7f; "/>
    <path xmlns="http://www.w3.org/2000/svg" d="  M43.2169,7.6500 L-0.0169,7.6500 L-0.0169,-4.9017 L43.2169,-4.9017 L43.2169,7.6500 Z" style="stroke-width: 0.0591; stroke: #ffffff; stroke-dasharray: none; stroke-linecap: round; stroke-linejoin: round; fill: none; "/>
    <path xmlns="http://www.w3.org/2000/svg" d="  M43.2169,-4.9017 L-0.0169,-4.9017 L4.8644,-14.8966 L38.1032,-14.8966 L43.2169,-4.9017 Z" style="fill-rule: evenodd; fill: #b3b3b3; "/>
    <path xmlns="http://www.w3.org/2000/svg" d="  M43.2169,-4.9017 L-0.0169,-4.9017 L4.8644,-14.8966 L38.1032,-14.8966 L43.2169,-4.9017 Z" style="stroke-width: 0.0591; stroke: #ffffff; stroke-dasharray: none; stroke-linecap: round; stroke-linejoin: round; fill: none; "/>
    <path xmlns="http://www.w3.org/2000/svg" d="  M25.0866,-1.8800 C25.0866,-0.9503 23.4595,-0.2529 21.6000,-0.2529 C19.7405,-0.2529 18.1134,-0.9503 18.1134,-1.8800 C18.1134,-2.5773 19.7405,-3.2747 21.6000,-3.2747 C23.4595,-3.2747 25.0866,-2.5773 25.0866,-1.8800 Z" style="fill-rule: evenodd; fill: #ffffff; "/>
    <path xmlns="http://www.w3.org/2000/svg" d="  M18.1134,-1.6476 C18.1134,4.6283 18.1134,4.6283 18.1134,4.6283 C18.1134,5.3256 19.7405,6.0229 21.6000,6.0229 C23.4595,6.0229 25.0866,5.3256 25.0866,4.6283 C25.0866,-1.8800 25.0866,-1.8800 25.0866,-1.8800 L18.1134,-1.6476 Z" style="fill-rule: evenodd; fill: #ffffff; "/>
    <path xmlns="http://www.w3.org/2000/svg" d="  M25.0866,-1.8800 C25.0866,-0.9503 23.4595,-0.2529 21.6000,-0.2529 C19.7405,-0.2529 18.1134,-0.9503 18.1134,-1.8800 C18.1134,-2.5773 19.7405,-3.2747 21.6000,-3.2747 C23.4595,-3.2747 25.0866,-2.5773 25.0866,-1.8800 Z M18.1134,-1.6476 C18.1134,4.6283 18.1134,4.6283 18.1134,4.6283 C18.1134,5.3256 19.7405,6.0229 21.6000,6.0229 C23.4595,6.0229 25.0866,5.3256 25.0866,4.6283 C25.0866,-1.8800 25.0866,-1.8800 25.0866,-1.8800" style="stroke-width: 0.0591; stroke: #b3b3b3; stroke-dasharray: none; stroke-linecap: round; stroke-linejoin: round; fill: none; "/>
    <path xmlns="http://www.w3.org/2000/svg" d="  M36.9410,-1.4151 L33.4544,-2.5773 L33.4544,-1.6476 L28.1083,-1.6476 L28.1083,-0.9503 L33.4544,-0.9503 L33.4544,-0.2529 L36.9410,-1.4151 Z" style="fill-rule: evenodd; fill: #ffffff; "/>
    <path xmlns="http://www.w3.org/2000/svg" d="  M36.9410,3.9310 L33.4544,2.7688 L33.4544,3.6985 L28.1083,3.6985 L28.1083,4.3958 L33.4544,4.3958 L33.4544,5.3256 L36.9410,3.9310 Z" style="fill-rule: evenodd; fill: #ffffff; "/>
    <path xmlns="http://www.w3.org/2000/svg" d="  M6.0266,4.1634 L9.7456,5.3256 L9.7456,4.3958 L14.8593,4.3958 L14.8593,3.6985 L9.7456,3.6985 L9.7456,3.0012 L6.0266,4.1634 Z" style="fill-rule: evenodd; fill: #ffffff; "/>
    <path xmlns="http://www.w3.org/2000/svg" d="  M6.0266,-1.1827 L9.7456,-0.2529 L9.7456,-0.9503 L14.8593,-0.9503 L14.8593,-1.6476 L9.7456,-1.6476 L9.7456,-2.5773 L6.0266,-1.4151 L6.0266,-1.1827 Z" style="fill-rule: evenodd; fill: #ffffff; "/>
    <text xmlns="http://www.w3.org/2000/svg" x="-8.9600" y="24.2100">
      <tspan font-family="Arial" font-size="4.5000" fill="#000000" fill-opacity="1.0000" stroke-opacity="1.0000">
Fibre Channel Switch Fabric Mode</tspan>
    </text>
    <!--converted by libvisio2svg-->
  </g>
</svg>
