<svg xmlns="http://www.w3.org/2000/svg" xmlns:xlink="http://www.w3.org/1999/xlink" version="1.1" width="43.2000000000" height="7.2000000000">
  <title><![CDATA[Fibre Channel Loop Mode]]></title>
  <g transform=" scale(1.000000) ">
    <path xmlns="http://www.w3.org/2000/svg" d="  M43.2168,-5.4642 L-0.0168,-5.4642 L4.8644,-15.4591 L38.1031,-15.4591 L43.2168,-5.4642 Z" style="stroke-width: 0.0591; stroke: #ffffff; stroke-dasharray: none; stroke-linecap: round; stroke-linejoin: round; fill: none; "/>
    <path xmlns="http://www.w3.org/2000/svg" d="  M43.2168,7.0875 L-0.0168,7.0875 L-0.0168,-5.4642 L43.2168,-5.4642 L43.2168,7.0875 Z" style="fill-rule: evenodd; fill: #7f7f7f; "/>
    <path xmlns="http://www.w3.org/2000/svg" d="  M43.2168,7.0875 L-0.0168,7.0875 L-0.0168,-5.4642 L43.2168,-5.4642 L43.2168,7.0875 Z" style="stroke-width: 0.0591; stroke: #ffffff; stroke-dasharray: none; stroke-linecap: round; stroke-linejoin: round; fill: none; "/>
    <path xmlns="http://www.w3.org/2000/svg" d="  M43.2168,-5.4642 L-0.0168,-5.4642 L4.8644,-15.4591 L38.1031,-15.4591 L43.2168,-5.4642 Z" style="fill-rule: evenodd; fill: #b3b3b3; "/>
    <path xmlns="http://www.w3.org/2000/svg" d="  M43.2168,-5.4642 L-0.0168,-5.4642 L4.8644,-15.4591 L38.1031,-15.4591 L43.2168,-5.4642 Z" style="stroke-width: 0.0591; stroke: #ffffff; stroke-dasharray: none; stroke-linecap: round; stroke-linejoin: round; fill: none; "/>
    <path xmlns="http://www.w3.org/2000/svg" d="  M25.0866,-2.4425 C25.0866,-1.5127 23.4595,-0.8154 21.6000,-0.8154 C19.7405,-0.8154 18.1134,-1.5127 18.1134,-2.4425 C18.1134,-3.1398 19.7405,-3.8371 21.6000,-3.8371 C23.4595,-3.8371 25.0866,-3.1398 25.0866,-2.4425 Z" style="fill-rule: evenodd; fill: #ffffff; "/>
    <path xmlns="http://www.w3.org/2000/svg" d="  M18.1134,-2.2100 C18.1134,4.0658 18.1134,4.0658 18.1134,4.0658 C18.1134,4.7631 19.7405,5.4604 21.6000,5.4604 C23.4595,5.4604 25.0866,4.7631 25.0866,4.0658 C25.0866,-2.4425 25.0866,-2.4425 25.0866,-2.4425 L18.1134,-2.2100 Z" style="fill-rule: evenodd; fill: #ffffff; "/>
    <path xmlns="http://www.w3.org/2000/svg" d="  M18.1134,-2.2100 C18.1134,4.0658 18.1134,4.0658 18.1134,4.0658 C18.1134,4.7631 19.7405,5.4604 21.6000,5.4604 C23.4595,5.4604 25.0866,4.7631 25.0866,4.0658 C25.0866,-2.4425 25.0866,-2.4425 25.0866,-2.4425" style="stroke-width: 0.0591; stroke: #b3b3b3; stroke-dasharray: none; stroke-linecap: round; stroke-linejoin: round; fill: none; "/>
    <path xmlns="http://www.w3.org/2000/svg" d="  M13.4646,1.2765 C13.4646,0.5792 13.6971,-0.1181 13.9295,-0.5830 C14.6268,-0.1181 14.6268,-0.1181 14.6268,-0.1181 C15.7890,-3.8371 15.7890,-3.8371 15.7890,-3.8371 C15.5566,-3.8371 15.5566,-3.8371 15.5566,-3.8371 C12.7673,-1.5127 12.7673,-1.5127 12.7673,-1.5127 C13.2322,-1.0479 13.2322,-1.0479 13.2322,-1.0479 C13.4646,-1.0479 13.4646,-1.0479 13.4646,-1.0479 C12.9998,-0.3505 12.7673,0.5792 12.7673,1.2765 C12.7673,2.6712 13.2322,3.8334 14.1620,4.7631 C14.1620,4.7631 14.3944,4.7631 14.6268,4.7631 C14.6268,4.5307 14.6268,4.2982 14.6268,4.2982 C13.9295,3.6009 13.4646,2.4387 13.4646,1.2765 Z" style="fill-rule: evenodd; fill: #ffffff; "/>
    <path xmlns="http://www.w3.org/2000/svg" d="  M29.7354,0.1143 C29.7354,0.8117 29.5029,1.5090 29.0380,2.2063 C28.3407,1.7414 28.3407,1.7414 28.3407,1.7414 C27.4110,5.2280 27.4110,5.2280 27.4110,5.2280 C27.4110,5.4604 27.4110,5.4604 27.4110,5.4604 C30.4327,3.1360 30.4327,3.1360 30.4327,3.1360 C29.7354,2.6712 29.7354,2.6712 29.7354,2.6712 C30.2002,1.7414 30.4327,1.0441 30.4327,0.1143 C30.4327,-1.0479 29.7354,-2.4425 29.0380,-3.1398 C28.8056,-3.3722 28.5732,-3.3722 28.5732,-3.1398 C28.3407,-3.1398 28.3407,-2.9074 28.5732,-2.6749 C29.2705,-1.9776 29.7354,-1.0479 29.7354,0.1143 Z" style="fill-rule: evenodd; fill: #ffffff; "/>
    <path xmlns="http://www.w3.org/2000/svg" d="  M25.0866,-2.4425 C25.0866,-1.5127 23.4595,-0.8154 21.6000,-0.8154 C19.7405,-0.8154 18.1134,-1.5127 18.1134,-2.4425 C18.1134,-3.1398 19.7405,-3.8371 21.6000,-3.8371 C23.4595,-3.8371 25.0866,-3.1398 25.0866,-2.4425 Z" style="stroke-width: 0.0591; stroke: #b3b3b3; stroke-dasharray: none; stroke-linecap: round; stroke-linejoin: round; fill: none; "/>
    <text xmlns="http://www.w3.org/2000/svg" x="-9.4314" y="18.3075">
      <tspan font-family="Arial" font-size="4.5000" fill="#000000" fill-opacity="1.0000" stroke-opacity="1.0000">
Fibre Channel Loop Mode</tspan>
    </text>
    <!--converted by libvisio2svg-->
  </g>
</svg>
