<svg xmlns="http://www.w3.org/2000/svg" xmlns:xlink="http://www.w3.org/1999/xlink" version="1.1" width="43.2000000000" height="7.2000000000">
  <title><![CDATA[Firewall]]></title>
  <g transform=" scale(1.000000) ">
    <path xmlns="http://www.w3.org/2000/svg" d="  M21.5072,2.1911 L10.7475,2.1911 L10.7475,-3.0032 L21.5072,-3.0032 L21.5072,2.1911 Z" style="fill-rule: evenodd; fill: #b3b3b3; "/>
    <path xmlns="http://www.w3.org/2000/svg" d="  M21.5072,2.1911 L10.7475,2.1911 L10.7475,-3.0032 L21.5072,-3.0032 L21.5072,2.1911 Z" style="stroke-width: 0.0591; stroke: #ffffff; stroke-dasharray: none; stroke-linecap: round; stroke-linejoin: round; fill: none; "/>
    <path xmlns="http://www.w3.org/2000/svg" d="  M32.4525,2.1911 L21.5072,2.1911 L21.5072,-3.0032 L32.4525,-3.0032 L32.4525,2.1911 Z" style="fill-rule: evenodd; fill: #b3b3b3; "/>
    <path xmlns="http://www.w3.org/2000/svg" d="  M32.4525,2.1911 L21.5072,2.1911 L21.5072,-3.0032 L32.4525,-3.0032 L32.4525,2.1911 Z" style="stroke-width: 0.0591; stroke: #ffffff; stroke-dasharray: none; stroke-linecap: round; stroke-linejoin: round; fill: none; "/>
    <path xmlns="http://www.w3.org/2000/svg" d="  M43.2123,2.1911 L32.4525,2.1911 L32.4525,-3.0032 L43.2123,-3.0032 L43.2123,2.1911 Z" style="fill-rule: evenodd; fill: #b3b3b3; "/>
    <path xmlns="http://www.w3.org/2000/svg" d="  M43.2123,2.1911 L32.4525,2.1911 L32.4525,-3.0032 L43.2123,-3.0032 L43.2123,2.1911 Z" style="stroke-width: 0.0591; stroke: #ffffff; stroke-dasharray: none; stroke-linecap: round; stroke-linejoin: round; fill: none; "/>
    <path xmlns="http://www.w3.org/2000/svg" d="  M10.7475,2.1911 L-0.0123,2.1911 L-0.0123,-3.0032 L10.7475,-3.0032 L10.7475,2.1911 Z" style="fill-rule: evenodd; fill: #b3b3b3; "/>
    <path xmlns="http://www.w3.org/2000/svg" d="  M10.7475,2.1911 L-0.0123,2.1911 L-0.0123,-3.0032 L10.7475,-3.0032 L10.7475,2.1911 Z" style="stroke-width: 0.0591; stroke: #ffffff; stroke-dasharray: none; stroke-linecap: round; stroke-linejoin: round; fill: none; "/>
    <path xmlns="http://www.w3.org/2000/svg" d="  M16.1274,7.2000 L5.3676,7.2000 L5.3676,2.1911 L16.1274,2.1911 L16.1274,7.2000 Z" style="fill-rule: evenodd; fill: #b3b3b3; "/>
    <path xmlns="http://www.w3.org/2000/svg" d="  M16.1274,7.2000 L5.3676,7.2000 L5.3676,2.1911 L16.1274,2.1911 L16.1274,7.2000 Z" style="stroke-width: 0.0591; stroke: #ffffff; stroke-dasharray: none; stroke-linecap: round; stroke-linejoin: round; fill: none; "/>
    <path xmlns="http://www.w3.org/2000/svg" d="  M27.0726,7.2000 L16.1274,7.2000 L16.1274,2.1911 L27.0726,2.1911 L27.0726,7.2000 Z" style="fill-rule: evenodd; fill: #b3b3b3; "/>
    <path xmlns="http://www.w3.org/2000/svg" d="  M27.0726,7.2000 L16.1274,7.2000 L16.1274,2.1911 L27.0726,2.1911 L27.0726,7.2000 Z" style="stroke-width: 0.0591; stroke: #ffffff; stroke-dasharray: none; stroke-linecap: round; stroke-linejoin: round; fill: none; "/>
    <path xmlns="http://www.w3.org/2000/svg" d="  M37.8324,7.2000 L27.0726,7.2000 L27.0726,2.1911 L37.8324,2.1911 L37.8324,7.2000 Z" style="fill-rule: evenodd; fill: #b3b3b3; "/>
    <path xmlns="http://www.w3.org/2000/svg" d="  M37.8324,7.2000 L27.0726,7.2000 L27.0726,2.1911 L37.8324,2.1911 L37.8324,7.2000 Z" style="stroke-width: 0.0591; stroke: #ffffff; stroke-dasharray: none; stroke-linecap: round; stroke-linejoin: round; fill: none; "/>
    <path xmlns="http://www.w3.org/2000/svg" d="  M5.3676,7.2000 L-0.0123,7.2000 L-0.0123,2.1911 L5.3676,2.1911 L5.3676,7.2000 Z" style="fill-rule: evenodd; fill: #b3b3b3; "/>
    <path xmlns="http://www.w3.org/2000/svg" d="  M5.3676,7.2000 L-0.0123,7.2000 L-0.0123,2.1911 L5.3676,2.1911 L5.3676,7.2000 Z" style="stroke-width: 0.0591; stroke: #ffffff; stroke-dasharray: none; stroke-linecap: round; stroke-linejoin: round; fill: none; "/>
    <path xmlns="http://www.w3.org/2000/svg" d="  M43.2123,7.2000 L37.8324,7.2000 L37.8324,2.1911 L43.2123,2.1911 L43.2123,7.2000 Z" style="fill-rule: evenodd; fill: #b3b3b3; "/>
    <path xmlns="http://www.w3.org/2000/svg" d="  M43.2123,7.2000 L37.8324,7.2000 L37.8324,2.1911 L43.2123,2.1911 L43.2123,7.2000 Z" style="stroke-width: 0.0591; stroke: #ffffff; stroke-dasharray: none; stroke-linecap: round; stroke-linejoin: round; fill: none; "/>
    <path xmlns="http://www.w3.org/2000/svg" d="  M16.1274,-3.0032 L5.3676,-3.0032 L5.3676,-8.0121 L16.1274,-8.0121 L16.1274,-3.0032 Z" style="fill-rule: evenodd; fill: #b3b3b3; "/>
    <path xmlns="http://www.w3.org/2000/svg" d="  M16.1274,-3.0032 L5.3676,-3.0032 L5.3676,-8.0121 L16.1274,-8.0121 L16.1274,-3.0032 Z" style="stroke-width: 0.0591; stroke: #ffffff; stroke-dasharray: none; stroke-linecap: round; stroke-linejoin: round; fill: none; "/>
    <path xmlns="http://www.w3.org/2000/svg" d="  M27.0726,-3.0032 L16.1274,-3.0032 L16.1274,-8.0121 L27.0726,-8.0121 L27.0726,-3.0032 Z" style="fill-rule: evenodd; fill: #b3b3b3; "/>
    <path xmlns="http://www.w3.org/2000/svg" d="  M27.0726,-3.0032 L16.1274,-3.0032 L16.1274,-8.0121 L27.0726,-8.0121 L27.0726,-3.0032 Z" style="stroke-width: 0.0591; stroke: #ffffff; stroke-dasharray: none; stroke-linecap: round; stroke-linejoin: round; fill: none; "/>
    <path xmlns="http://www.w3.org/2000/svg" d="  M37.8324,-3.0032 L27.0726,-3.0032 L27.0726,-8.0121 L37.8324,-8.0121 L37.8324,-3.0032 Z" style="fill-rule: evenodd; fill: #b3b3b3; "/>
    <path xmlns="http://www.w3.org/2000/svg" d="  M37.8324,-3.0032 L27.0726,-3.0032 L27.0726,-8.0121 L37.8324,-8.0121 L37.8324,-3.0032 Z" style="stroke-width: 0.0591; stroke: #ffffff; stroke-dasharray: none; stroke-linecap: round; stroke-linejoin: round; fill: none; "/>
    <path xmlns="http://www.w3.org/2000/svg" d="  M5.3676,-3.0032 L-0.0123,-3.0032 L-0.0123,-8.0121 L5.3676,-8.0121 L5.3676,-3.0032 Z" style="fill-rule: evenodd; fill: #b3b3b3; "/>
    <path xmlns="http://www.w3.org/2000/svg" d="  M5.3676,-3.0032 L-0.0123,-3.0032 L-0.0123,-8.0121 L5.3676,-8.0121 L5.3676,-3.0032 Z" style="stroke-width: 0.0591; stroke: #ffffff; stroke-dasharray: none; stroke-linecap: round; stroke-linejoin: round; fill: none; "/>
    <path xmlns="http://www.w3.org/2000/svg" d="  M43.2123,-3.0032 L37.8324,-3.0032 L37.8324,-8.0121 L43.2123,-8.0121 L43.2123,-3.0032 Z" style="fill-rule: evenodd; fill: #b3b3b3; "/>
    <path xmlns="http://www.w3.org/2000/svg" d="  M43.2123,-3.0032 L37.8324,-3.0032 L37.8324,-8.0121 L43.2123,-8.0121 L43.2123,-3.0032 Z" style="stroke-width: 0.0591; stroke: #ffffff; stroke-dasharray: none; stroke-linecap: round; stroke-linejoin: round; fill: none; "/>
    <path xmlns="http://www.w3.org/2000/svg" d="  M21.5072,-8.0121 L10.7475,-8.0121 L10.7475,-13.2065 L21.5072,-13.2065 L21.5072,-8.0121 Z" style="fill-rule: evenodd; fill: #b3b3b3; "/>
    <path xmlns="http://www.w3.org/2000/svg" d="  M21.5072,-8.0121 L10.7475,-8.0121 L10.7475,-13.2065 L21.5072,-13.2065 L21.5072,-8.0121 Z" style="stroke-width: 0.0591; stroke: #ffffff; stroke-dasharray: none; stroke-linecap: round; stroke-linejoin: round; fill: none; "/>
    <path xmlns="http://www.w3.org/2000/svg" d="  M32.4525,-8.0121 L21.5072,-8.0121 L21.5072,-13.2065 L32.4525,-13.2065 L32.4525,-8.0121 Z" style="fill-rule: evenodd; fill: #b3b3b3; "/>
    <path xmlns="http://www.w3.org/2000/svg" d="  M32.4525,-8.0121 L21.5072,-8.0121 L21.5072,-13.2065 L32.4525,-13.2065 L32.4525,-8.0121 Z" style="stroke-width: 0.0591; stroke: #ffffff; stroke-dasharray: none; stroke-linecap: round; stroke-linejoin: round; fill: none; "/>
    <path xmlns="http://www.w3.org/2000/svg" d="  M43.2123,-8.0121 L32.4525,-8.0121 L32.4525,-13.2065 L43.2123,-13.2065 L43.2123,-8.0121 Z" style="fill-rule: evenodd; fill: #b3b3b3; "/>
    <path xmlns="http://www.w3.org/2000/svg" d="  M43.2123,-8.0121 L32.4525,-8.0121 L32.4525,-13.2065 L43.2123,-13.2065 L43.2123,-8.0121 Z" style="stroke-width: 0.0591; stroke: #ffffff; stroke-dasharray: none; stroke-linecap: round; stroke-linejoin: round; fill: none; "/>
    <path xmlns="http://www.w3.org/2000/svg" d="  M10.7475,-8.0121 L-0.0123,-8.0121 L-0.0123,-13.2065 L10.7475,-13.2065 L10.7475,-8.0121 Z" style="fill-rule: evenodd; fill: #b3b3b3; "/>
    <path xmlns="http://www.w3.org/2000/svg" d="  M10.7475,-8.0121 L-0.0123,-8.0121 L-0.0123,-13.2065 L10.7475,-13.2065 L10.7475,-8.0121 Z" style="stroke-width: 0.0591; stroke: #ffffff; stroke-dasharray: none; stroke-linecap: round; stroke-linejoin: round; fill: none; "/>
    <path xmlns="http://www.w3.org/2000/svg" d="  M16.1274,-13.2065 L5.3676,-13.2065 L5.3676,-18.2153 L16.1274,-18.2153 L16.1274,-13.2065 Z" style="fill-rule: evenodd; fill: #b3b3b3; "/>
    <path xmlns="http://www.w3.org/2000/svg" d="  M16.1274,-13.2065 L5.3676,-13.2065 L5.3676,-18.2153 L16.1274,-18.2153 L16.1274,-13.2065 Z" style="stroke-width: 0.0591; stroke: #ffffff; stroke-dasharray: none; stroke-linecap: round; stroke-linejoin: round; fill: none; "/>
    <path xmlns="http://www.w3.org/2000/svg" d="  M27.0726,-13.2065 L16.1274,-13.2065 L16.1274,-18.2153 L27.0726,-18.2153 L27.0726,-13.2065 Z" style="fill-rule: evenodd; fill: #b3b3b3; "/>
    <path xmlns="http://www.w3.org/2000/svg" d="  M27.0726,-13.2065 L16.1274,-13.2065 L16.1274,-18.2153 L27.0726,-18.2153 L27.0726,-13.2065 Z" style="stroke-width: 0.0591; stroke: #ffffff; stroke-dasharray: none; stroke-linecap: round; stroke-linejoin: round; fill: none; "/>
    <path xmlns="http://www.w3.org/2000/svg" d="  M37.8324,-13.2065 L27.0726,-13.2065 L27.0726,-18.2153 L37.8324,-18.2153 L37.8324,-13.2065 Z" style="fill-rule: evenodd; fill: #b3b3b3; "/>
    <path xmlns="http://www.w3.org/2000/svg" d="  M37.8324,-13.2065 L27.0726,-13.2065 L27.0726,-18.2153 L37.8324,-18.2153 L37.8324,-13.2065 Z" style="stroke-width: 0.0591; stroke: #ffffff; stroke-dasharray: none; stroke-linecap: round; stroke-linejoin: round; fill: none; "/>
    <path xmlns="http://www.w3.org/2000/svg" d="  M5.3676,-13.2065 L-0.0123,-13.2065 L-0.0123,-18.2153 L5.3676,-18.2153 L5.3676,-13.2065 Z" style="fill-rule: evenodd; fill: #b3b3b3; "/>
    <path xmlns="http://www.w3.org/2000/svg" d="  M5.3676,-13.2065 L-0.0123,-13.2065 L-0.0123,-18.2153 L5.3676,-18.2153 L5.3676,-13.2065 Z" style="stroke-width: 0.0591; stroke: #ffffff; stroke-dasharray: none; stroke-linecap: round; stroke-linejoin: round; fill: none; "/>
    <path xmlns="http://www.w3.org/2000/svg" d="  M43.2123,-13.2065 L37.8324,-13.2065 L37.8324,-18.2153 L43.2123,-18.2153 L43.2123,-13.2065 Z" style="fill-rule: evenodd; fill: #b3b3b3; "/>
    <path xmlns="http://www.w3.org/2000/svg" d="  M43.2123,-13.2065 L37.8324,-13.2065 L37.8324,-18.2153 L43.2123,-18.2153 L43.2123,-13.2065 Z" style="stroke-width: 0.0591; stroke: #ffffff; stroke-dasharray: none; stroke-linecap: round; stroke-linejoin: round; fill: none; "/>
    <text xmlns="http://www.w3.org/2000/svg" x="-9.0650" y="13.0200">
      <tspan font-family="Arial" font-size="4.5000" fill="#000000" fill-opacity="1.0000" stroke-opacity="1.0000">
Firewall</tspan>
    </text>
    <!--converted by libvisio2svg-->
  </g>
</svg>
