<svg xmlns="http://www.w3.org/2000/svg" xmlns:xlink="http://www.w3.org/1999/xlink" version="1.1" width="43.2000000000" height="7.2000000000">
  <title><![CDATA[Flatscreen Monitor]]></title>
  <g transform=" scale(1.000000) ">
    <path xmlns="http://www.w3.org/2000/svg" d="  M43.4926,-2.9237 L-0.2926,-2.9237 L-0.2926,-36.0790 L43.4926,-36.0790 L43.4926,-2.9237 Z" style="fill-rule: evenodd; fill: #7f7f7f; "/>
    <path xmlns="http://www.w3.org/2000/svg" d="  M38.6838,-7.4794 L4.5162,-7.4794 L4.5162,-31.5233 L38.6838,-31.5233 L38.6838,-7.4794 Z" style="fill-rule: evenodd; fill: #ffffff; "/>
    <path xmlns="http://www.w3.org/2000/svg" d="  M25.0168,3.1505 C24.0044,1.1258 23.2451,-1.9114 23.7513,-4.6954 C19.4487,-4.6954 19.4487,-4.6954 19.4487,-4.6954 C19.9549,-1.9114 19.1956,1.1258 18.1832,3.1505 C9.0719,3.6567 2.2384,5.1753 2.2384,7.2000 C40.9616,7.2000 40.9616,7.2000 40.9616,7.2000 C40.9616,5.1753 34.1281,3.6567 25.0168,3.1505 Z" style="fill-rule: evenodd; fill: #7f7f7f; "/>
    <text xmlns="http://www.w3.org/2000/svg" x="-8.4200" y="18.0000">
      <tspan font-family="Arial" font-size="4.5000" fill="#000000" fill-opacity="1.0000" stroke-opacity="1.0000">
Flatscreen Monitor</tspan>
    </text>
    <!--converted by libvisio2svg-->
  </g>
</svg>
