<svg xmlns="http://www.w3.org/2000/svg" xmlns:xlink="http://www.w3.org/1999/xlink" version="1.1" width="21.6000000000" height="7.2000000000">
  <title><![CDATA[FlexClone]]></title>
  <g transform=" scale(1.000000) ">
    <path xmlns="http://www.w3.org/2000/svg" d="  M24.6797,-43.5307 C24.6797,-43.5307 24.6797,-43.2354 24.6797,-43.2354 C24.6797,-16.6606 24.6797,-16.6606 24.6797,-16.6606 C24.6797,-13.4126 31.1758,-11.0504 39.1482,-11.0504 C46.8254,-11.0504 53.3215,-13.4126 53.3215,-16.6606 C53.3215,-16.6606 53.3215,-36.4441 53.3215,-36.4441 C53.3215,-43.2354 53.3215,-43.2354 53.3215,-43.2354 L24.6797,-43.5307 Z" style="fill-rule: evenodd; fill: #ffffff; "/>
    <path xmlns="http://www.w3.org/2000/svg" d="  M24.6797,-43.5307 C24.6797,-43.5307 24.6797,-43.2354 24.6797,-43.2354 C24.6797,-16.6606 24.6797,-16.6606 24.6797,-16.6606 C24.6797,-13.4126 31.1758,-11.0504 39.1482,-11.0504 C46.8254,-11.0504 53.3215,-13.4126 53.3215,-16.6606 C53.3215,-16.6606 53.3215,-36.4441 53.3215,-36.4441 C53.3215,-43.2354 53.3215,-43.2354 53.3215,-43.2354" style="stroke-width: 0.0240; stroke: #7f7f7f; stroke-dasharray: 0.0480, 0.0480, 0.0480, 0.0480; stroke-linecap: round; stroke-linejoin: round; fill: none; "/>
    <path xmlns="http://www.w3.org/2000/svg" d="  M8.7348,-32.9008 C8.7348,-32.6055 8.7348,-32.6055 8.7348,-32.6055 C8.7348,-6.0307 8.7348,-6.0307 8.7348,-6.0307 C8.7348,-2.7827 15.2309,-0.4205 22.9081,-0.4205 C30.8805,-0.4205 37.0813,-2.7827 37.0813,-6.0307 C37.0813,-6.0307 37.0813,-25.5189 37.0813,-25.5189 C37.0813,-32.6055 37.0813,-32.6055 37.0813,-32.6055 L8.7348,-32.9008 Z" style="fill-rule: evenodd; fill: #ffffff; "/>
    <path xmlns="http://www.w3.org/2000/svg" d="  M53.3215,-43.5307 C53.3215,-40.2827 46.8254,-37.9205 39.1482,-37.9205 C31.1758,-37.9205 24.9750,-40.2827 24.9750,-43.5307 C24.9750,-46.7787 31.1758,-49.1409 39.1482,-49.1409 C46.8254,-49.1409 53.3215,-46.7787 53.3215,-43.5307 Z" style="fill-rule: evenodd; fill: #ffffff; "/>
    <path xmlns="http://www.w3.org/2000/svg" d="  M53.3215,-43.5307 C53.3215,-40.2827 46.8254,-37.9205 39.1482,-37.9205 C31.1758,-37.9205 24.9750,-40.2827 24.9750,-43.5307 C24.9750,-46.7787 31.1758,-49.1409 39.1482,-49.1409 C46.8254,-49.1409 53.3215,-46.7787 53.3215,-43.5307 Z" style="stroke-width: 0.0240; stroke: #7f7f7f; stroke-dasharray: 0.0480, 0.0480, 0.0480, 0.0480; stroke-linecap: round; stroke-linejoin: round; fill: none; "/>
    <path xmlns="http://www.w3.org/2000/svg" d="  M8.7348,-32.9008 C8.7348,-32.6055 8.7348,-32.6055 8.7348,-32.6055 C8.7348,-6.0307 8.7348,-6.0307 8.7348,-6.0307 C8.7348,-2.7827 15.2309,-0.4205 22.9081,-0.4205 C30.8805,-0.4205 37.0813,-2.7827 37.0813,-6.0307 C37.0813,-6.0307 37.0813,-25.5189 37.0813,-25.5189 C37.0813,-32.6055 37.0813,-32.6055 37.0813,-32.6055" style="stroke-width: 0.0240; stroke: #7f7f7f; stroke-dasharray: 0.0480, 0.0480, 0.0480, 0.0480; stroke-linecap: round; stroke-linejoin: round; fill: none; "/>
    <path xmlns="http://www.w3.org/2000/svg" d="  M37.3766,-32.9008 C37.3766,-29.6528 30.8805,-27.2906 22.9081,-27.2906 C15.2309,-27.2906 8.7348,-29.6528 8.7348,-32.9008 C8.7348,-35.8535 15.2309,-38.5110 22.9081,-38.5110 C30.8805,-38.5110 37.3766,-35.8535 37.3766,-32.9008 Z" style="fill-rule: evenodd; fill: #ffffff; "/>
    <path xmlns="http://www.w3.org/2000/svg" d="  M37.3766,-32.9008 C37.3766,-29.6528 30.8805,-27.2906 22.9081,-27.2906 C15.2309,-27.2906 8.7348,-29.6528 8.7348,-32.9008 C8.7348,-35.8535 15.2309,-38.5110 22.9081,-38.5110 C30.8805,-38.5110 37.3766,-35.8535 37.3766,-32.9008 Z" style="stroke-width: 0.0240; stroke: #7f7f7f; stroke-dasharray: 0.0480, 0.0480, 0.0480, 0.0480; stroke-linecap: round; stroke-linejoin: round; fill: none; "/>
    <g xmlns="http://www.w3.org/2000/svg" id="Layer1003">
      <defs>
        <linearGradient id="grad2">
          <stop offset="0%" stop-color="#cdcdcd" stop-opacity="1.0000"/>
          <stop offset="100%" stop-color="#1a1a1a" stop-opacity="1.0000"/>
        </linearGradient>
      </defs>
      <path d="  M25.2702,5.2128 L25.2702,-21.6803 L-3.3714,-21.6803 L-3.3714,5.2128 C-3.3715,8.4378 3.1246,10.8000 10.8018,10.8000 C18.7742,10.8000 25.2703,8.4378 25.2703,5.1898 Z" style="stroke-width: 0.0000; stroke-linecap: round; stroke-linejoin: round; fill-rule: evenodd; fill: url(#grad2); "/>
      <path d="  M25.2702,5.2128 L25.2702,-21.6803 L-3.3714,-21.6803 L-3.3714,5.2128 C-3.3715,8.4378 3.1246,10.8000 10.8018,10.8000 C18.7742,10.8000 25.2703,8.4378 25.2703,5.1898" style="stroke-width: 0.0000; stroke: #c0c0c0; stroke-dasharray: none; stroke-linecap: round; stroke-linejoin: round; fill: none; "/>
    </g>
    <path xmlns="http://www.w3.org/2000/svg" d="  M24.2368,-4.2591 C16.8549,-9.8693 16.8549,-9.8693 16.8549,-9.8693 C16.8549,-6.0307 16.8549,-6.0307 16.8549,-6.0307 C9.4730,-6.0307 9.4730,-6.0307 9.4730,-6.0307 C9.4730,-6.0307 9.1778,-6.0307 9.1778,-6.0307 C5.0439,-6.0307 5.0439,-6.0307 5.0439,-6.0307 C5.0439,-9.8693 5.0439,-9.8693 5.0439,-9.8693 C-2.3380,-4.2591 -2.3380,-4.2591 -2.3380,-4.2591 C5.0439,1.0559 5.0439,1.0559 5.0439,1.0559 C5.0439,-2.4874 5.0439,-2.4874 5.0439,-2.4874 C12.4258,-2.4874 12.4258,-2.4874 12.4258,-2.4874 C12.7211,-2.4874 12.7211,-2.4874 13.0163,-2.4874 C16.8549,-2.4874 16.8549,-2.4874 16.8549,-2.4874 C16.8549,1.0559 16.8549,1.0559 16.8549,1.0559 C24.2368,-4.2591 24.2368,-4.2591 24.2368,-4.2591 Z" style="fill-rule: evenodd; fill: #2061a2; "/>
    <g xmlns="http://www.w3.org/2000/svg" id="Layer1004">
      <path d="  M25.2703,-21.6803 C25.2703,-18.4323 18.7742,-16.0701 10.8018,-16.0701 C3.1246,-16.0701 -3.3715,-18.4323 -3.3715,-21.6803 C-3.3715,-24.9283 3.1246,-27.2906 10.8018,-27.2906 C18.7742,-27.2906 25.2703,-24.9283 25.2703,-21.6803 Z" style="stroke-width: 0.0240; stroke-linecap: round; stroke-linejoin: round; fill-rule: evenodd; fill: #cccccc; "/>
      <path d="  M25.2703,-21.6803 C25.2703,-18.4323 18.7742,-16.0701 10.8018,-16.0701 C3.1246,-16.0701 -3.3715,-18.4323 -3.3715,-21.6803 C-3.3715,-24.9283 3.1246,-27.2906 10.8018,-27.2906 C18.7742,-27.2906 25.2703,-24.9283 25.2703,-21.6803 Z" style="stroke-width: 0.0240; stroke: #ffffff; stroke-dasharray: none; stroke-linecap: round; stroke-linejoin: round; fill: none; "/>
    </g>
    <text xmlns="http://www.w3.org/2000/svg" x="-6.0050" y="18.2400">
      <tspan font-family="Arial" font-size="4.5000" fill="#000000" fill-opacity="1.0000" stroke-opacity="1.0000">
FlexClone</tspan>
    </text>
    <!--converted by libvisio2svg-->
  </g>
</svg>
