<svg xmlns="http://www.w3.org/2000/svg" xmlns:xlink="http://www.w3.org/1999/xlink" version="1.1" width="21.6000000000" height="7.2000000000">
  <title><![CDATA[FlexVol]]></title>
  <g transform=" scale(1.000000) ">
    <g xmlns="http://www.w3.org/2000/svg" id="Layer1001">
      <defs>
        <linearGradient id="grad1">
          <stop offset="0%" stop-color="#cdcdcd" stop-opacity="1.0000"/>
          <stop offset="100%" stop-color="#1a1a1a" stop-opacity="1.0000"/>
        </linearGradient>
      </defs>
      <path d="  M25.5708,4.6728 L25.5708,-22.2203 L-3.0708,-22.2203 L-3.0708,4.6728 C-3.0709,7.8978 3.4252,10.2600 11.1024,10.2600 C19.0748,10.2600 25.5709,7.8978 25.5709,4.6498 Z" style="stroke-width: 0.0000; stroke-linecap: round; stroke-linejoin: round; fill-rule: evenodd; fill: url(#grad1); "/>
      <path d="  M25.5708,4.6728 L25.5708,-22.2203 L-3.0708,-22.2203 L-3.0708,4.6728 C-3.0709,7.8978 3.4252,10.2600 11.1024,10.2600 C19.0748,10.2600 25.5709,7.8978 25.5709,4.6498" style="stroke-width: 0.0000; stroke: #c0c0c0; stroke-dasharray: none; stroke-linecap: round; stroke-linejoin: round; fill: none; "/>
    </g>
    <g xmlns="http://www.w3.org/2000/svg" id="Layer1002">
      <path d="  M25.5709,-22.2203 C25.5709,-18.9723 19.0748,-16.6101 11.1024,-16.6101 C3.4252,-16.6101 -3.0709,-18.9723 -3.0709,-22.2203 C-3.0709,-25.1731 3.4252,-27.8306 11.1024,-27.8306 C19.0748,-27.8306 25.5709,-25.1731 25.5709,-22.2203 Z" style="stroke-width: 0.0240; stroke-linecap: round; stroke-linejoin: round; fill-rule: evenodd; fill: #cccccc; "/>
      <path d="  M25.5709,-22.2203 C25.5709,-18.9723 19.0748,-16.6101 11.1024,-16.6101 C3.4252,-16.6101 -3.0709,-18.9723 -3.0709,-22.2203 C-3.0709,-25.1731 3.4252,-27.8306 11.1024,-27.8306 C19.0748,-27.8306 25.5709,-25.1731 25.5709,-22.2203 Z" style="stroke-width: 0.0240; stroke: #ffffff; stroke-dasharray: none; stroke-linecap: round; stroke-linejoin: round; fill: none; "/>
    </g>
    <path xmlns="http://www.w3.org/2000/svg" d="  M24.3898,-4.7991 C17.0079,-10.4093 17.0079,-10.4093 17.0079,-10.4093 C17.0079,-6.5707 17.0079,-6.5707 17.0079,-6.5707 C9.6260,-6.5707 9.6260,-6.5707 9.6260,-6.5707 C9.6260,-6.5707 9.3307,-6.5707 9.3307,-6.5707 C5.1969,-6.5707 5.1969,-6.5707 5.1969,-6.5707 C5.1969,-10.4093 5.1969,-10.4093 5.1969,-10.4093 C-2.1850,-4.7991 -2.1850,-4.7991 -2.1850,-4.7991 C5.1969,0.5159 5.1969,0.5159 5.1969,0.5159 C5.1969,-3.0274 5.1969,-3.0274 5.1969,-3.0274 C12.5787,-3.0274 12.5787,-3.0274 12.5787,-3.0274 C12.8740,-3.0274 12.8740,-3.0274 13.1693,-3.0274 C17.0079,-3.0274 17.0079,-3.0274 17.0079,-3.0274 C17.0079,0.5159 17.0079,0.5159 17.0079,0.5159 C24.3898,-4.7991 24.3898,-4.7991 24.3898,-4.7991 Z" style="fill-rule: evenodd; fill: #2061a2; "/>
    <text xmlns="http://www.w3.org/2000/svg" x="-20.0900" y="17.7000">
      <tspan font-family="Arial" font-size="4.5000" fill="#000000" fill-opacity="1.0000" stroke-opacity="1.0000">
FlexVol</tspan>
    </text>
    <!--converted by libvisio2svg-->
  </g>
</svg>
