<svg xmlns="http://www.w3.org/2000/svg" xmlns:xlink="http://www.w3.org/1999/xlink" version="1.1" width="43.2000000000" height="7.2000000000">
  <title><![CDATA[Flip]]></title>
  <g transform=" scale(1.000000) ">
    <path xmlns="http://www.w3.org/2000/svg" d="  M52.4681,-19.3861 C52.4681,-11.5604 48.5552,-2.8652 43.7728,1.0477 C44.2076,-0.2566 44.6424,-2.4304 44.6424,-2.4304 C44.6424,-2.8652 44.2076,-3.2999 43.7728,-3.2999 C43.3381,-3.2999 43.3381,-2.8652 43.3381,-2.4304 C42.4686,2.7867 42.4686,2.7867 42.4686,2.7867 C47.6857,3.6562 47.6857,3.6562 47.6857,3.6562 C48.1205,3.6562 48.5552,3.2215 48.5552,2.7867 C48.5552,2.3520 48.1205,2.3520 48.1205,2.3520 C48.1205,2.3520 45.9466,1.9172 44.6424,1.9172 C50.2943,-2.4304 53.7724,-11.9952 53.7724,-19.3861 C53.7724,-27.6466 49.8595,-38.0809 43.3381,-41.5590 C42.9033,-41.9937 42.4686,-41.9937 42.4686,-41.5590 C42.4686,-41.1242 42.4686,-40.6894 42.9033,-40.6894 C48.1205,-37.6461 52.4681,-28.0813 52.4681,-19.3861 Z" style="fill-rule: evenodd; fill: #000000; "/>
    <path xmlns="http://www.w3.org/2000/svg" d="  M-9.2681,-18.9514 C-9.2681,-26.7771 -5.7900,-35.4723 -1.0076,-39.3851 C-1.0076,-38.0809 -1.4424,-35.9071 -1.4424,-35.9071 C-1.4424,-35.4723 -1.4424,-35.0375 -1.0076,-35.0375 C-0.5728,-35.0375 -0.1381,-35.4723 -0.1381,-35.9071 C0.7314,-41.1242 0.7314,-41.1242 0.7314,-41.1242 C-4.9205,-41.9937 -4.9205,-41.9937 -4.9205,-41.9937 C-5.3552,-41.9937 -5.3552,-41.5590 -5.7900,-41.1242 C-5.7900,-40.6894 -5.3552,-40.6894 -4.9205,-40.6894 C-4.9205,-40.6894 -3.1814,-40.2547 -1.8771,-40.2547 C-7.5290,-35.9071 -10.5724,-26.3423 -10.5724,-18.9514 C-10.5724,-10.6909 -6.6595,-0.2566 -0.5728,3.2215 C-0.1381,3.6563 0.2967,3.6563 0.2967,3.2215 C0.7314,2.7867 0.7314,2.3520 0.2967,2.3520 C-4.9205,-0.6914 -9.2681,-10.2561 -9.2681,-18.9514 Z" style="fill-rule: evenodd; fill: #000000; "/>
    <text xmlns="http://www.w3.org/2000/svg" x="-8.9150" y="8.4863">
      <tspan font-family="Arial" font-size="4.5000" fill="#000000" fill-opacity="1.0000" stroke-opacity="1.0000">
Flip</tspan>
    </text>
    <!--converted by libvisio2svg-->
  </g>
</svg>
