<svg xmlns="http://www.w3.org/2000/svg" xmlns:xlink="http://www.w3.org/1999/xlink" version="1.1" width="43.2000000000" height="7.2000000000">
  <title><![CDATA[Generic Switch]]></title>
  <g transform=" scale(1.000000) ">
    <path xmlns="http://www.w3.org/2000/svg" d="  M43.2002,3.1395 L-0.0002,3.1395 L2.3271,0.0850 L41.0184,0.0850 L43.2002,3.1395 Z" style="fill-rule: evenodd; fill: #b3b3b3; "/>
    <path xmlns="http://www.w3.org/2000/svg" d="  M43.2002,7.2000 L-0.0002,7.2000 L-0.0002,3.1272 L43.2002,3.1272 L43.2002,7.2000 Z" style="fill-rule: evenodd; fill: #7f7f7f; "/>
    <path xmlns="http://www.w3.org/2000/svg" d="  M30.9349,6.4070 L29.5162,6.4070 L29.5162,5.5203 L30.9349,5.5203 L30.9349,6.4070 Z M30.9349,4.8797 L29.5162,4.8797 L29.5162,3.9930 L30.9349,3.9930 L30.9349,4.8797 Z M32.5931,6.4070 L31.1744,6.4070 L31.1744,5.5203 L32.5931,5.5203 L32.5931,6.4070 Z M32.5931,4.8797 L31.1744,4.8797 L31.1744,3.9930 L32.5931,3.9930 L32.5931,4.8797 Z M34.2513,6.4070 L32.8326,6.4070 L32.8326,5.5203 L34.2513,5.5203 L34.2513,6.4070 Z M34.2513,4.8797 L32.8326,4.8797 L32.8326,3.9930 L34.2513,3.9930 L34.2513,4.8797 Z M35.9095,6.4070 L34.4908,6.4070 L34.4908,5.5203 L35.9095,5.5203 L35.9095,6.4070 Z M35.9095,4.8797 L34.4908,4.8797 L34.4908,3.9930 L35.9095,3.9930 L35.9095,4.8797 Z M29.2767,4.8797 L27.8580,4.8797 L27.8580,3.9930 L29.2767,3.9930 L29.2767,4.8797 Z M27.6185,6.4070 L26.1998,6.4070 L26.1998,5.5203 L27.6185,5.5203 L27.6185,6.4070 Z M27.6185,4.8797 L26.1998,4.8797 L26.1998,3.9930 L27.6185,3.9930 L27.6185,4.8797 Z M29.2767,6.4070 L27.8580,6.4070 L27.8580,5.5203 L29.2767,5.5203 L29.2767,6.4070 Z" style="fill-rule: evenodd; fill: #000000; "/>
    <path xmlns="http://www.w3.org/2000/svg" d="  M19.8802,6.4070 L18.4615,6.4070 L18.4615,5.5203 L19.8802,5.5203 L19.8802,6.4070 Z M19.8802,4.8797 L18.4615,4.8797 L18.4615,3.9930 L19.8802,3.9930 L19.8802,4.8797 Z M21.5384,6.4070 L20.1197,6.4070 L20.1197,5.5203 L21.5384,5.5203 L21.5384,6.4070 Z M21.5384,4.8797 L20.1197,4.8797 L20.1197,3.9930 L21.5384,3.9930 L21.5384,4.8797 Z M23.1966,6.4070 L21.7779,6.4070 L21.7779,5.5203 L23.1966,5.5203 L23.1966,6.4070 Z M23.1966,4.8797 L21.7779,4.8797 L21.7779,3.9930 L23.1966,3.9930 L23.1966,4.8797 Z M24.8548,6.4070 L23.4361,6.4070 L23.4361,5.5203 L24.8548,5.5203 L24.8548,6.4070 Z M24.8548,4.8797 L23.4361,4.8797 L23.4361,3.9930 L24.8548,3.9930 L24.8548,4.8797 Z M18.2220,4.8797 L16.8033,4.8797 L16.8033,3.9930 L18.2220,3.9930 L18.2220,4.8797 Z M16.5638,6.4070 L15.1451,6.4070 L15.1451,5.5203 L16.5638,5.5203 L16.5638,6.4070 Z M16.5638,4.8797 L15.1451,4.8797 L15.1451,3.9930 L16.5638,3.9930 L16.5638,4.8797 Z M18.2220,6.4070 L16.8033,6.4070 L16.8033,5.5203 L18.2220,5.5203 L18.2220,6.4070 Z" style="fill-rule: evenodd; fill: #000000; "/>
    <path xmlns="http://www.w3.org/2000/svg" d="  M5.0619,6.3307 L1.3378,6.3307 L1.3378,5.1602 L5.0619,5.1602 L5.0619,6.3307 Z M9.7892,6.3307 L6.0651,6.3307 L6.0651,5.1602 L9.7892,5.1602 L9.7892,6.3307 Z" style="fill-rule: evenodd; fill: #000000; "/>
    <text xmlns="http://www.w3.org/2000/svg" x="-8.8850" y="12.4800">
      <tspan font-family="Arial" font-size="4.5000" fill="#000000" fill-opacity="1.0000" stroke-opacity="1.0000">
Generic Switch</tspan>
    </text>
    <!--converted by libvisio2svg-->
  </g>
</svg>
