<svg xmlns="http://www.w3.org/2000/svg" xmlns:xlink="http://www.w3.org/1999/xlink" version="1.1" width="43.2000000000" height="7.2000000000">
  <title><![CDATA[Generic Server 2]]></title>
  <g transform=" scale(1.000000) ">
    <path xmlns="http://www.w3.org/2000/svg" d="  M43.2029,-38.6111 L-0.0029,-38.6111 L1.9511,-41.4336 L41.2489,-41.4336 L43.2029,-38.6111 Z" style="fill-rule: evenodd; fill: #b3b3b3; "/>
    <path xmlns="http://www.w3.org/2000/svg" d="  M43.2029,7.2000 L-0.0029,7.2000 L-0.0029,-38.6111 L43.2029,-38.6111 L43.2029,7.2000 Z" style="fill-rule: evenodd; fill: #7f7f7f; "/>
    <path xmlns="http://www.w3.org/2000/svg" d="  M31.6958,-33.4004 L2.6025,-33.4004 L2.6025,-35.7887 L31.6958,-35.7887 L31.6958,-33.4004 Z M31.6958,-27.8950 L2.6025,-27.8950 L2.6025,-30.5004 L31.6958,-30.5004 L31.6958,-27.8950 Z M31.6958,-22.4981 L2.6025,-22.4981 L2.6025,-25.1035 L31.6958,-25.1035 L31.6958,-22.4981 Z M31.6958,-17.1013 L2.6025,-17.1013 L2.6025,-19.7067 L31.6958,-19.7067 L31.6958,-17.1013 Z M31.6958,-11.7045 L2.6025,-11.7045 L2.6025,-14.3098 L31.6958,-14.3098 L31.6958,-11.7045 Z M31.6958,-6.3076 L2.6025,-6.3076 L2.6025,-8.9130 L31.6958,-8.9130 L31.6958,-6.3076 Z M31.6958,-1.0193 L2.6025,-1.0193 L2.6025,-3.4076 L31.6958,-3.4076 L31.6958,-1.0193 Z M31.6958,4.3775 L2.6025,4.3775 L2.6025,1.9893 L31.6958,1.9893 L31.6958,4.3775 Z M41.4660,-37.3085 L41.4660,5.6802 L33.6498,5.6802 L33.6498,-37.3085 L41.4660,-37.3085 Z" style="fill-rule: evenodd; fill: #333333; "/>
    <path xmlns="http://www.w3.org/2000/svg" d="  M39.0773,-28.8419 L36.0385,-28.8419 L36.0385,-36.0048 L39.0773,-36.0048 L39.0773,-28.8419 Z M39.0773,-20.3744 L36.0385,-20.3744 L36.0385,-27.5374 L39.0773,-27.5374 L39.0773,-20.3744 Z M39.0773,-11.9070 L36.0385,-11.9070 L36.0385,-19.0699 L39.0773,-19.0699 L39.0773,-11.9070 Z M39.0773,-3.4395 L36.0385,-3.4395 L36.0385,-10.6025 L39.0773,-10.6025 L39.0773,-3.4395 Z M39.0773,5.0279 L36.0385,5.0279 L36.0385,-2.1350 L39.0773,-2.1350 L39.0773,5.0279 Z" style="fill-rule: evenodd; fill: #7f7f7f; "/>
    <text xmlns="http://www.w3.org/2000/svg" x="-9.4250" y="13.3800">
      <tspan font-family="Arial" font-size="4.5000" fill="#000000" fill-opacity="1.0000" stroke-opacity="1.0000">
Generic Server</tspan>
    </text>
    <!--converted by libvisio2svg-->
  </g>
</svg>
