<svg xmlns="http://www.w3.org/2000/svg" xmlns:xlink="http://www.w3.org/1999/xlink" version="1.1" width="43.2000000000" height="7.2000000000">
  <title><![CDATA[Gigabit Ethernet or FC Switch]]></title>
  <g transform=" scale(1.000000) ">
    <path xmlns="http://www.w3.org/2000/svg" d="  M43.2017,7.2000 L-0.0017,7.2000 L-0.0017,-36.0035 L43.2017,-36.0035 L43.2017,7.2000 Z" style="fill-rule: evenodd; fill: #ffffff; "/>
    <path xmlns="http://www.w3.org/2000/svg" d="  M43.2017,7.2000 L-0.0017,7.2000 L-0.0017,-36.0035 L43.2017,-36.0035 L43.2017,7.2000 Z" style="stroke-width: 0.0591; stroke: #7f7f7f; stroke-dasharray: none; stroke-linecap: round; stroke-linejoin: round; fill: none; "/>
    <path xmlns="http://www.w3.org/2000/svg" d="  M10.5660,-15.4896 C11.1877,-15.4896 11.4985,-14.8680 11.4985,-14.2463 C11.4985,-13.9355 11.1877,-13.3139 10.5660,-13.3139 C5.5930,-13.3139 5.5930,-13.3139 5.5930,-13.3139 C5.2821,-13.3139 4.6605,-13.9355 4.6605,-14.2463 C4.6605,-14.8680 5.2821,-15.4896 5.5930,-15.4896 C10.5660,-15.4896 10.5660,-15.4896 10.5660,-15.4896 Z" style="fill-rule: evenodd; fill: #2061a2; "/>
    <path xmlns="http://www.w3.org/2000/svg" d="  M5.9038,-11.1382 L5.9038,-17.6653 L1.8632,-14.5571 L5.9038,-11.1382 Z" style="fill-rule: evenodd; fill: #2061a2; "/>
    <path xmlns="http://www.w3.org/2000/svg" d="  M37.6070,-15.3342 C37.9179,-15.3342 38.5395,-14.7126 38.5395,-14.4017 C38.5395,-13.7801 37.9179,-13.4693 37.6070,-13.4693 C32.6340,-13.4693 32.6340,-13.4693 32.6340,-13.4693 C32.0123,-13.4693 31.7015,-13.7801 31.7015,-14.4017 C31.7015,-14.7126 32.0123,-15.3342 32.6340,-15.3342 C37.6070,-15.3342 37.6070,-15.3342 37.6070,-15.3342 Z" style="fill-rule: evenodd; fill: #2061a2; "/>
    <path xmlns="http://www.w3.org/2000/svg" d="  M37.2962,-17.6653 L37.2962,-11.1382 L41.6477,-14.2463 L37.2962,-17.6653 Z" style="fill-rule: evenodd; fill: #2061a2; "/>
    <path xmlns="http://www.w3.org/2000/svg" d="  M32.3232,-26.3682 C28.9042,-22.9492 28.9042,-22.9492 28.9042,-22.9492 C28.5934,-22.6384 28.5934,-22.0167 28.9042,-21.7059 C29.2150,-21.3951 29.8366,-21.3951 30.1475,-21.7059 C33.5664,-25.1249 33.5664,-25.1249 33.5664,-25.1249 C33.8772,-25.4357 33.8772,-26.0574 33.5664,-26.3682 C33.2556,-26.6790 32.6340,-26.6790 32.3232,-26.3682 Z" style="fill-rule: evenodd; fill: #2061a2; "/>
    <path xmlns="http://www.w3.org/2000/svg" d="  M30.4583,-27.6114 L34.8097,-23.2600 L35.7421,-28.5439 L30.4583,-27.6114 Z" style="fill-rule: evenodd; fill: #2061a2; "/>
    <path xmlns="http://www.w3.org/2000/svg" d="  M34.8097,-5.5435 L30.4583,-1.1920 L35.7421,-0.2596 L34.8097,-5.5435 Z" style="fill-rule: evenodd; fill: #2061a2; "/>
    <path xmlns="http://www.w3.org/2000/svg" d="  M20.6676,-3.3678 C20.6676,1.6053 20.6676,1.6053 20.6676,1.6053 C20.6676,2.2269 20.9784,2.5378 21.6000,2.5378 C21.9108,2.5378 22.5324,2.2269 22.5324,1.6053 C22.5324,-3.3678 22.5324,-3.3678 22.5324,-3.3678 C22.5324,-3.6786 21.9108,-4.3002 21.6000,-4.3002 C20.9784,-4.3002 20.6676,-3.6786 20.6676,-3.3678 Z" style="fill-rule: evenodd; fill: #2061a2; "/>
    <path xmlns="http://www.w3.org/2000/svg" d="  M24.8636,1.2945 L18.3364,1.2945 L21.7554,5.6459 L24.8636,1.2945 Z" style="fill-rule: evenodd; fill: #2061a2; "/>
    <path xmlns="http://www.w3.org/2000/svg" d="  M20.6676,-25.4357 C20.6676,-30.4088 20.6676,-30.4088 20.6676,-30.4088 C20.6676,-30.7196 20.9784,-31.3412 21.6000,-31.3412 C21.9108,-31.3412 22.5324,-30.7196 22.5324,-30.4088 C22.5324,-25.4357 22.5324,-25.4357 22.5324,-25.4357 C22.5324,-24.8141 21.9108,-24.5033 21.6000,-24.5033 C20.9784,-24.5033 20.6676,-24.8141 20.6676,-25.4357 Z" style="fill-rule: evenodd; fill: #2061a2; "/>
    <path xmlns="http://www.w3.org/2000/svg" d="  M18.3364,-30.0980 L24.8636,-30.0980 L21.7554,-34.4494 L18.3364,-30.0980 Z" style="fill-rule: evenodd; fill: #2061a2; "/>
    <path xmlns="http://www.w3.org/2000/svg" d="  M12.7417,-1.1920 L8.3903,-5.5435 L7.4579,-0.2596 L12.7417,-1.1920 Z" style="fill-rule: evenodd; fill: #2061a2; "/>
    <path xmlns="http://www.w3.org/2000/svg" d="  M8.3903,-23.2600 L12.7417,-27.6114 L7.4579,-28.5439 L8.3903,-23.2600 Z" style="fill-rule: evenodd; fill: #2061a2; "/>
    <path xmlns="http://www.w3.org/2000/svg" d="  M29.8366,-19.5302 C29.8366,-18.5978 26.1068,-17.6653 21.7554,-17.6653 C17.0932,-17.6653 13.3634,-18.5978 13.3634,-19.5302 C13.3634,-20.4627 17.0932,-21.3951 21.7554,-21.3951 C26.1068,-21.3951 29.8366,-20.4627 29.8366,-19.5302 Z" style="fill-rule: evenodd; fill: #b3b3b3; "/>
    <path xmlns="http://www.w3.org/2000/svg" d="  M29.8366,-9.2733 C29.8366,-8.3408 26.1068,-7.4084 21.7554,-7.4084 C17.0932,-7.4084 13.3634,-8.3408 13.3634,-9.2733 C13.3634,-19.5302 13.3634,-19.5302 13.3634,-19.5302 C13.3634,-18.5978 17.0932,-17.6653 21.7554,-17.6653 C26.1068,-17.6653 29.8366,-18.5978 29.8366,-19.5302 C29.8366,-9.2733 29.8366,-9.2733 29.8366,-9.2733 Z" style="fill-rule: evenodd; fill: #7f7f7f; "/>
    <path xmlns="http://www.w3.org/2000/svg" d="  M10.9934,-26.2609 C14.4124,-22.8420 14.4124,-22.8420 14.4124,-22.8420 C14.7232,-22.5311 14.7232,-21.9095 14.4124,-21.5987 C14.1016,-21.2879 13.4799,-21.2879 13.1691,-21.5987 C9.7501,-25.0177 9.7501,-25.0177 9.7501,-25.0177 C9.4393,-25.3285 9.4393,-25.9501 9.7501,-26.2609 C10.0609,-26.5718 10.6826,-26.5718 10.9934,-26.2609 Z" style="fill-rule: evenodd; fill: #2061a2; "/>
    <path xmlns="http://www.w3.org/2000/svg" d="  M13.2080,-7.2048 C9.7890,-3.7858 9.7890,-3.7858 9.7890,-3.7858 C9.4782,-3.4750 9.4782,-2.8534 9.7890,-2.5425 C10.0998,-2.2317 10.7214,-2.2317 11.0322,-2.5425 C14.4512,-5.9615 14.4512,-5.9615 14.4512,-5.9615 C14.7620,-6.2723 14.7620,-6.8940 14.4512,-7.2048 C14.1404,-7.5156 13.5188,-7.5156 13.2080,-7.2048 Z" style="fill-rule: evenodd; fill: #2061a2; "/>
    <path xmlns="http://www.w3.org/2000/svg" d="  M30.1475,-7.2048 C33.5664,-3.7858 33.5664,-3.7858 33.5664,-3.7858 C33.8772,-3.4750 33.8772,-2.8534 33.5664,-2.5425 C33.2556,-2.2317 32.6340,-2.2317 32.3232,-2.5425 C28.9042,-5.9615 28.9042,-5.9615 28.9042,-5.9615 C28.5934,-6.2723 28.5934,-6.8940 28.9042,-7.2048 C29.2150,-7.5156 29.8366,-7.5156 30.1475,-7.2048 Z" style="fill-rule: evenodd; fill: #2061a2; "/>
    <text xmlns="http://www.w3.org/2000/svg" x="-7.6304" y="17.8650">
      <tspan font-family="Arial" font-size="4.5000" fill="#000000" fill-opacity="1.0000" stroke-opacity="1.0000">
Gigabit Ethernet or FC Switch</tspan>
    </text>
    <!--converted by libvisio2svg-->
  </g>
</svg>
