<svg xmlns="http://www.w3.org/2000/svg" xmlns:xlink="http://www.w3.org/1999/xlink" version="1.1" width="43.2000000000" height="7.2000000000">
  <title><![CDATA[Gigabit Ethernet Switch]]></title>
  <g transform=" scale(1.000000) ">
    <path xmlns="http://www.w3.org/2000/svg" d="  M43.2017,7.4250 L-0.0017,7.4250 L-0.0017,-35.7785 L43.2017,-35.7785 L43.2017,7.4250 Z" style="fill-rule: evenodd; fill: #ffffff; "/>
    <path xmlns="http://www.w3.org/2000/svg" d="  M43.2017,7.4250 L-0.0017,7.4250 L-0.0017,-35.7785 L43.2017,-35.7785 L43.2017,7.4250 Z" style="stroke-width: 0.0591; stroke: #7f7f7f; stroke-dasharray: none; stroke-linecap: round; stroke-linejoin: round; fill: none; "/>
    <path xmlns="http://www.w3.org/2000/svg" d="  M7.4579,-15.2646 C6.8362,-15.2646 6.5254,-14.6430 6.5254,-14.0213 C6.5254,-13.7105 6.8362,-13.0889 7.4579,-13.0889 C18.0256,-13.0889 18.0256,-13.0889 18.0256,-13.0889 C18.6472,-13.0889 18.9581,-13.7105 18.9581,-14.0213 C18.9581,-14.6430 18.6472,-15.2646 18.0256,-15.2646 C7.4579,-15.2646 7.4579,-15.2646 7.4579,-15.2646 Z" style="fill-rule: evenodd; fill: #2061a2; "/>
    <path xmlns="http://www.w3.org/2000/svg" d="  M7.7687,-10.9132 L7.7687,-17.4403 L3.7281,-14.3321 L7.7687,-10.9132 Z" style="fill-rule: evenodd; fill: #2061a2; "/>
    <path xmlns="http://www.w3.org/2000/svg" d="  M25.1744,-15.2646 C24.5528,-15.2646 24.2419,-14.6430 24.2419,-14.3321 C24.2419,-13.7105 24.5528,-13.3997 25.1744,-13.3997 C35.7421,-13.3997 35.7421,-13.3997 35.7421,-13.3997 C36.3638,-13.3997 36.6746,-13.7105 36.6746,-14.3321 C36.6746,-14.6430 36.3638,-15.2646 35.7421,-15.2646 C25.1744,-15.2646 25.1744,-15.2646 25.1744,-15.2646 Z" style="fill-rule: evenodd; fill: #2061a2; "/>
    <path xmlns="http://www.w3.org/2000/svg" d="  M35.4313,-17.4403 L35.4313,-10.9132 L39.7828,-14.0213 L35.4313,-17.4403 Z" style="fill-rule: evenodd; fill: #2061a2; "/>
    <path xmlns="http://www.w3.org/2000/svg" d="  M20.8230,-10.6024 C20.8230,-0.0346 20.8230,-0.0346 20.8230,-0.0346 C20.8230,0.5870 21.1338,0.8979 21.7554,0.8979 C22.0662,0.8979 22.6879,0.5870 22.6879,-0.0346 C22.6879,-10.6024 22.6879,-10.6024 22.6879,-10.6024 C22.6879,-11.2240 22.0662,-11.5348 21.7554,-11.5348 C21.1338,-11.5348 20.8230,-11.2240 20.8230,-10.6024 Z" style="fill-rule: evenodd; fill: #2061a2; "/>
    <path xmlns="http://www.w3.org/2000/svg" d="  M24.8636,-0.3454 L18.3364,-0.3454 L21.7554,3.6952 L24.8636,-0.3454 Z" style="fill-rule: evenodd; fill: #2061a2; "/>
    <path xmlns="http://www.w3.org/2000/svg" d="  M20.8230,-28.3189 C20.8230,-17.7511 20.8230,-17.7511 20.8230,-17.7511 C20.8230,-17.1295 21.1338,-16.8187 21.7554,-16.8187 C22.0662,-16.8187 22.6879,-17.1295 22.6879,-17.7511 C22.6879,-28.3189 22.6879,-28.3189 22.6879,-28.3189 C22.6879,-28.9405 22.0662,-29.2513 21.7554,-29.2513 C21.1338,-29.2513 20.8230,-28.9405 20.8230,-28.3189 Z" style="fill-rule: evenodd; fill: #2061a2; "/>
    <path xmlns="http://www.w3.org/2000/svg" d="  M18.3364,-28.0081 L24.8636,-28.0081 L21.7554,-32.3595 L18.3364,-28.0081 Z" style="fill-rule: evenodd; fill: #2061a2; "/>
    <path xmlns="http://www.w3.org/2000/svg" d="  M18.3364,-12.4673 C10.8768,-5.0077 10.8768,-5.0077 10.8768,-5.0077 C10.5660,-4.3860 10.5660,-3.7644 10.8768,-3.4536 C11.4985,-3.1428 11.8093,-3.1428 12.4309,-3.4536 C19.8905,-10.9132 19.8905,-10.9132 19.8905,-10.9132 C20.2013,-11.2240 20.2013,-11.8456 19.8905,-12.4673 C19.2689,-12.7781 18.9581,-12.7781 18.3364,-12.4673 Z" style="fill-rule: evenodd; fill: #2061a2; "/>
    <path xmlns="http://www.w3.org/2000/svg" d="  M14.2958,-2.2103 L9.6336,-6.5617 L9.0119,-1.5887 L14.2958,-2.2103 Z" style="fill-rule: evenodd; fill: #2061a2; "/>
    <path xmlns="http://www.w3.org/2000/svg" d="  M31.0799,-24.8999 C23.3095,-17.4403 23.3095,-17.4403 23.3095,-17.4403 C22.9987,-17.1295 22.9987,-16.5079 23.3095,-15.8862 C23.9311,-15.5754 24.5528,-15.5754 24.8636,-15.8862 C32.3232,-23.6566 32.3232,-23.6566 32.3232,-23.6566 C32.6340,-23.9675 32.6340,-24.5891 32.3232,-24.8999 C32.0123,-25.2107 31.3907,-25.2107 31.0799,-24.8999 Z" style="fill-rule: evenodd; fill: #2061a2; "/>
    <path xmlns="http://www.w3.org/2000/svg" d="  M29.2150,-26.1432 L33.5664,-21.7917 L34.4989,-26.7648 L29.2150,-26.1432 Z" style="fill-rule: evenodd; fill: #2061a2; "/>
    <path xmlns="http://www.w3.org/2000/svg" d="  M23.6203,-12.4673 C22.9987,-11.8456 22.9987,-11.5348 23.6203,-10.9132 C31.0799,-3.4536 31.0799,-3.4536 31.0799,-3.4536 C31.3907,-3.1428 32.0123,-3.1428 32.3232,-3.4536 C32.6340,-3.7644 32.6340,-4.3860 32.3232,-5.0077 C24.8636,-12.4673 24.8636,-12.4673 24.8636,-12.4673 C24.5528,-12.7781 23.9311,-12.7781 23.6203,-12.4673 Z" style="fill-rule: evenodd; fill: #2061a2; "/>
    <path xmlns="http://www.w3.org/2000/svg" d="  M33.5664,-6.5617 L29.2150,-2.2103 L34.4989,-1.5887 L33.5664,-6.5617 Z" style="fill-rule: evenodd; fill: #2061a2; "/>
    <path xmlns="http://www.w3.org/2000/svg" d="  M10.8768,-24.8999 C10.5660,-24.5891 10.5660,-23.9675 10.8768,-23.3458 C18.3364,-15.8862 18.3364,-15.8862 18.3364,-15.8862 C18.6472,-15.5754 19.2689,-15.5754 19.8905,-15.8862 C20.2013,-16.5079 20.2013,-17.1295 19.8905,-17.4403 C12.4309,-24.8999 12.4309,-24.8999 12.4309,-24.8999 C11.8093,-25.2107 11.1877,-25.2107 10.8768,-24.8999 Z" style="fill-rule: evenodd; fill: #2061a2; "/>
    <path xmlns="http://www.w3.org/2000/svg" d="  M9.6336,-21.7917 L14.2958,-26.1432 L9.0119,-27.0756 L9.6336,-21.7917 Z" style="fill-rule: evenodd; fill: #2061a2; "/>
    <text xmlns="http://www.w3.org/2000/svg" x="-10.0154" y="18.2175">
      <tspan font-family="Arial" font-size="4.5000" fill="#000000" fill-opacity="1.0000" stroke-opacity="1.0000">
Gigabit Ethernet Switch</tspan>
    </text>
    <!--converted by libvisio2svg-->
  </g>
</svg>
