<svg xmlns="http://www.w3.org/2000/svg" xmlns:xlink="http://www.w3.org/1999/xlink" version="1.1" width="43.2000000000" height="7.2000000000">
  <title><![CDATA[Load Balancer]]></title>
  <g transform=" scale(1.000000) ">
    <path xmlns="http://www.w3.org/2000/svg" d="  M43.2246,-5.8269 L-0.0246,-5.8269 L-0.0246,7.2000 L43.2246,7.2000 L43.2246,-5.8269 Z" style="fill-rule: evenodd; fill: #333333; "/>
    <path xmlns="http://www.w3.org/2000/svg" d="  M43.2246,-5.8269 L-0.0246,-5.8269 L2.0597,-8.7796 L41.1403,-8.7796 L43.2246,-5.8269 Z" style="fill-rule: evenodd; fill: #b3b3b3; "/>
    <path xmlns="http://www.w3.org/2000/svg" d="  M41.3137,-0.4416 L38.7089,-0.4416 L38.7089,-4.2619 L41.3137,-4.2619 L41.3137,-0.4416 Z M41.3137,5.6350 L38.7089,5.6350 L38.7089,1.8148 L41.3137,1.8148 L41.3137,5.6350 Z M25.6816,5.6355 L24.1187,5.6355 L24.1187,-4.2624 L25.6816,-4.2624 L25.6816,5.6355 Z M27.8701,5.6355 L26.3072,5.6355 L26.3072,-4.2624 L27.8701,-4.2624 L27.8701,5.6355 Z M30.0586,5.6355 L28.4958,5.6355 L28.4958,-4.2624 L30.0586,-4.2624 L30.0586,5.6355 Z M32.2471,5.6355 L30.6843,5.6355 L30.6843,-4.2624 L32.2471,-4.2624 L32.2471,5.6355 Z M34.4356,5.6355 L32.8728,5.6355 L32.8728,-4.2624 L34.4356,-4.2624 L34.4356,5.6355 Z M36.6241,5.6355 L35.0613,5.6355 L35.0613,-4.2624 L36.6241,-4.2624 L36.6241,5.6355 Z" style="fill-rule: evenodd; fill: #7f7f7f; "/>
    <text xmlns="http://www.w3.org/2000/svg" x="-8.3450" y="13.0200">
      <tspan font-family="Arial" font-size="4.5000" fill="#000000" fill-opacity="1.0000" stroke-opacity="1.0000">
Load Balancer</tspan>
    </text>
    <!--converted by libvisio2svg-->
  </g>
</svg>
