<svg xmlns="http://www.w3.org/2000/svg" xmlns:xlink="http://www.w3.org/1999/xlink" version="1.1" width="43.2000000000" height="7.2000000000">
  <title><![CDATA[LockVault]]></title>
  <g transform=" scale(1.000000) ">
    <path xmlns="http://www.w3.org/2000/svg" d="  M-16.4906,9.9000 L3.2929,-1.3205 L3.2929,-34.0961 L-16.4906,-22.5803 L-16.4906,9.9000 Z" style="fill-rule: evenodd; fill: #e6e6e6; "/>
    <path xmlns="http://www.w3.org/2000/svg" d="  M-16.4906,9.9000 L3.2929,-1.3205 L3.2929,-34.0961 L-16.4906,-22.5803 L-16.4906,9.9000 Z" style="stroke-width: 0.0591; stroke: #7f7f7f; stroke-dasharray: none; stroke-linecap: round; stroke-linejoin: round; fill: none; "/>
    <path xmlns="http://www.w3.org/2000/svg" d="  M8.0173,-11.6551 C-1.4315,-11.6551 -1.4315,-11.6551 -1.4315,-11.6551 C-2.6126,-11.6551 -3.7937,-10.7693 -3.7937,-9.2929 C-3.7937,-7.8165 -2.6126,-6.9307 -1.4315,-6.9307 C8.0173,-6.9307 8.0173,-6.9307 8.0173,-6.9307 C8.0173,-1.6157 8.0173,-1.6157 8.0173,-1.6157 C18.0567,-9.2929 18.0567,-9.2929 18.0567,-9.2929 C8.0173,-16.6748 8.0173,-16.6748 8.0173,-16.6748 C8.0173,-11.6551 8.0173,-11.6551 8.0173,-11.6551 Z" style="fill-rule: evenodd; fill: #f07600; "/>
    <path xmlns="http://www.w3.org/2000/svg" d="  M16.2850,9.9000 L35.7732,-1.3205 L35.7732,-34.0961 L16.2850,-22.5803 L16.2850,9.9000 Z" style="fill-rule: evenodd; fill: #e6e6e6; "/>
    <path xmlns="http://www.w3.org/2000/svg" d="  M16.2850,9.9000 L35.7732,-1.3205 L35.7732,-34.0961 L16.2850,-22.5803 L16.2850,9.9000 Z" style="stroke-width: 0.0591; stroke: #7f7f7f; stroke-dasharray: none; stroke-linecap: round; stroke-linejoin: round; fill: none; "/>
    <path xmlns="http://www.w3.org/2000/svg" d="  M24.2575,9.9000 L43.7457,-1.3205 L43.7457,-34.0961 L24.2575,-22.5803 L24.2575,9.9000 Z" style="fill-rule: evenodd; fill: #e6e6e6; "/>
    <path xmlns="http://www.w3.org/2000/svg" d="  M24.2575,9.9000 L43.7457,-1.3205 L43.7457,-34.0961 L24.2575,-22.5803 L24.2575,9.9000 Z" style="stroke-width: 0.0591; stroke: #7f7f7f; stroke-dasharray: none; stroke-linecap: round; stroke-linejoin: round; fill: none; "/>
    <path xmlns="http://www.w3.org/2000/svg" d="  M31.9346,9.9000 L51.7181,-1.3205 L51.7181,-34.0961 L31.9346,-22.5803 L31.9346,9.9000 Z" style="fill-rule: evenodd; fill: #e6e6e6; "/>
    <path xmlns="http://www.w3.org/2000/svg" d="  M31.9346,9.9000 L51.7181,-1.3205 L51.7181,-34.0961 L31.9346,-22.5803 L31.9346,9.9000 Z" style="stroke-width: 0.0591; stroke: #7f7f7f; stroke-dasharray: none; stroke-linecap: round; stroke-linejoin: round; fill: none; "/>
    <path xmlns="http://www.w3.org/2000/svg" d="  M39.9071,9.9000 L59.6906,-1.3205 L59.6906,-34.0961 L39.9071,-22.5803 L39.9071,9.9000 Z" style="fill-rule: evenodd; fill: #e6e6e6; "/>
    <path xmlns="http://www.w3.org/2000/svg" d="  M39.9071,9.9000 L59.6906,-1.3205 L59.6906,-34.0961 L39.9071,-22.5803 L39.9071,9.9000 Z" style="stroke-width: 0.0591; stroke: #7f7f7f; stroke-dasharray: none; stroke-linecap: round; stroke-linejoin: round; fill: none; "/>
    <path xmlns="http://www.w3.org/2000/svg" d="  M59.6906,-7.2260 L39.9071,3.9945 L39.9071,-16.6748 L59.6906,-28.1906 L59.6906,-7.2260 Z" style="fill-rule: evenodd; fill: #7f7f7f; "/>
    <path xmlns="http://www.w3.org/2000/svg" d="  M39.9071,3.9945 L16.2850,3.9945 L16.2850,-16.6748 L39.9071,-16.6748 L39.9071,3.9945 Z" style="fill-rule: evenodd; fill: #7f7f7f; "/>
    <path xmlns="http://www.w3.org/2000/svg" d="  M34.0016,-7.2260 C34.0016,-8.1118 32.8205,-8.4071 32.8205,-8.4071 C23.3717,-8.4071 23.3717,-8.4071 23.3717,-8.4071 C23.3717,-8.4071 22.1906,-8.1118 22.1906,-7.2260 C22.1906,-6.6354 23.3717,-6.0449 23.3717,-6.0449 C32.8205,-6.0449 32.8205,-6.0449 32.8205,-6.0449 C32.8205,-6.0449 34.0016,-6.6354 34.0016,-7.2260 Z" style="fill-rule: evenodd; fill: #ffffff; "/>
    <path xmlns="http://www.w3.org/2000/svg" d="  M31.6394,-7.2260 C31.6394,-11.6551 31.6394,-11.6551 31.6394,-11.6551 C31.6394,-13.1315 30.4583,-14.3126 28.6866,-14.3126 C27.5055,-14.3126 27.5055,-14.3126 27.5055,-14.3126 C25.7339,-14.3126 24.5528,-13.1315 24.5528,-11.6551 C24.5528,-7.2260 24.5528,-7.2260 24.5528,-7.2260 C24.5528,-7.2260 24.8480,-7.2260 25.1433,-7.2260 C25.1433,-7.2260 25.4386,-7.2260 25.4386,-7.2260 C25.4386,-11.3598 25.4386,-11.3598 25.4386,-11.3598 C25.4386,-12.5409 26.3244,-13.4268 27.5055,-13.4268 C28.6866,-13.4268 28.6866,-13.4268 28.6866,-13.4268 C29.5724,-13.4268 30.7535,-12.5409 30.7535,-11.3598 C30.7535,-7.2260 30.7535,-7.2260 30.7535,-7.2260 C30.7535,-7.2260 30.7535,-7.2260 31.0488,-7.2260 C31.3441,-7.2260 31.6394,-7.2260 31.6394,-7.2260 Z" style="fill-rule: evenodd; fill: #ffffff; "/>
    <path xmlns="http://www.w3.org/2000/svg" d="  M27.5055,-14.6079 C25.7339,-14.6079 24.2575,-13.1315 24.2575,-11.6551 C24.2575,-7.2260 24.2575,-7.2260 24.2575,-7.2260 C24.5528,-6.9307 24.5528,-6.9307 24.5528,-6.9307 C24.5528,-6.9307 24.8480,-6.9307 25.1433,-6.9307 C25.1433,-6.9307 25.7339,-6.9307 25.7339,-6.9307 C25.7339,-7.2260 25.7339,-7.2260 25.7339,-7.2260 C25.7339,-11.3598 25.7339,-11.3598 25.7339,-11.3598 C25.7339,-12.2457 26.6197,-13.1315 27.5055,-13.1315 C28.6866,-13.1315 28.6866,-13.1315 28.6866,-13.1315 C29.5724,-13.1315 30.4583,-12.2457 30.4583,-11.3598 C30.4583,-7.2260 30.4583,-7.2260 30.4583,-7.2260 C30.4583,-6.9307 30.4583,-6.9307 30.4583,-6.9307 C30.4583,-6.9307 30.7535,-6.9307 31.0488,-6.9307 C31.3441,-6.9307 31.6394,-6.9307 31.6394,-6.9307 C31.9346,-7.2260 31.9346,-7.2260 31.9346,-7.2260 C31.9346,-11.6551 31.9346,-11.6551 31.9346,-11.6551 C31.9346,-13.1315 30.4583,-14.6079 28.6866,-14.6079 C27.5055,-14.6079 27.5055,-14.6079 27.5055,-14.6079 Z" style="fill-rule: evenodd; fill: #b3b3b3; "/>
    <path xmlns="http://www.w3.org/2000/svg" d="  M32.8205,-3.3874 C23.3717,-3.3874 23.3717,-3.3874 23.3717,-3.3874 C23.3717,-3.6827 22.4858,-3.9780 22.1906,-4.2732 C22.1906,-3.3874 22.1906,-3.3874 22.1906,-3.3874 C22.1906,-3.0921 22.1906,-3.0921 22.1906,-3.0921 C22.1906,-2.7969 23.0764,-2.2063 23.6669,-2.2063 C23.6669,-2.2063 32.5252,-2.2063 32.5252,-2.2063 C33.1157,-2.2063 34.0016,-2.7969 34.0016,-3.0921 C34.0016,-3.3874 34.0016,-3.3874 34.0016,-3.3874 C34.0016,-4.2732 34.0016,-4.2732 34.0016,-4.2732 C33.4110,-3.9780 32.8205,-3.6827 32.8205,-3.3874 Z M32.8205,-1.6157 C23.3717,-1.6157 23.3717,-1.6157 23.3717,-1.6157 C23.3717,-1.6157 22.4858,-1.9110 22.1906,-2.2063 C22.1906,-1.3205 22.1906,-1.3205 22.1906,-1.3205 C22.1906,-1.0252 22.1906,-1.0252 22.1906,-1.0252 C22.1906,-0.7299 23.0764,-0.1394 23.6669,-0.1394 C23.6669,-0.1394 32.5252,-0.1394 32.5252,-0.1394 C33.1157,-0.1394 34.0016,-0.7299 34.0016,-1.0252 C34.0016,-1.3205 34.0016,-1.3205 34.0016,-1.3205 C34.0016,-2.2063 34.0016,-2.2063 34.0016,-2.2063 C33.4110,-1.9110 32.8205,-1.6157 32.8205,-1.6157 Z M32.8205,-5.4543 C23.3717,-5.4543 23.3717,-5.4543 23.3717,-5.4543 C23.3717,-5.4543 22.4858,-5.7496 22.1906,-6.3402 C22.1906,-5.1591 22.1906,-5.1591 22.1906,-5.1591 C22.1906,-4.8638 22.1906,-4.8638 22.1906,-4.8638 C22.1906,-4.5685 23.0764,-4.2732 23.6669,-3.9780 C23.6669,-3.9780 32.5252,-3.9780 32.5252,-3.9780 C33.1157,-4.2732 34.0016,-4.5685 34.0016,-4.8638 C34.0016,-5.1591 34.0016,-5.1591 34.0016,-5.1591 C34.0016,-6.3402 34.0016,-6.3402 34.0016,-6.3402 C33.4110,-5.7496 32.8205,-5.4543 32.8205,-5.4543 Z M32.8205,0.4512 C23.3717,0.4512 23.3717,0.4512 23.3717,0.4512 C23.3717,0.4512 22.4858,0.1559 22.1906,-0.1394 C22.1906,0.7465 22.1906,0.7465 22.1906,0.7465 C22.1906,1.3370 23.3717,1.9276 23.3717,1.9276 C32.8205,1.9276 32.8205,1.9276 32.8205,1.9276 C32.8205,1.9276 34.0016,1.3370 34.0016,0.7465 C34.0016,-0.1394 34.0016,-0.1394 34.0016,-0.1394 C33.4110,0.1559 32.8205,0.4512 32.8205,0.4512 Z" style="fill-rule: evenodd; fill: #e6e6e6; "/>
    <text xmlns="http://www.w3.org/2000/svg" x="-6.2300" y="14.8200">
      <tspan font-family="Arial" font-size="4.5000" fill="#000000" fill-opacity="1.0000" stroke-opacity="1.0000">
LockVault</tspan>
    </text>
    <!--converted by libvisio2svg-->
  </g>
</svg>
