<svg xmlns="http://www.w3.org/2000/svg" xmlns:xlink="http://www.w3.org/1999/xlink" version="1.1" width="61.7040000000" height="7.2000000000">
  <title><![CDATA[Network Cloud]]></title>
  <g transform=" scale(1.000000) ">
    <path xmlns="http://www.w3.org/2000/svg" d="  M64.8045,0.8697 C64.8045,-4.4019 59.2229,-8.7431 52.0908,-8.7431 C51.7807,-8.7431 51.4706,-8.7431 50.8504,-8.4331 C49.6101,-12.7743 44.6486,-15.8752 38.7569,-15.8752 C33.7954,-15.8752 29.7642,-13.7046 27.5936,-10.9138 C26.3532,-11.2239 24.8028,-11.5340 23.2523,-11.5340 C17.6707,-11.5340 12.7092,-8.7431 11.1588,-4.7120 C4.9569,-4.0918 -0.0045,-0.0606 -0.0045,4.5908 C-0.0045,9.8623 5.8872,14.2036 12.7092,14.2036 C14.5698,14.2036 16.4303,13.5834 18.2909,12.9632 C20.1514,16.0641 24.4927,17.9247 29.1440,17.9247 C33.1752,17.9247 36.8963,16.3742 39.0670,14.2036 C41.2376,15.4440 43.7183,16.0641 46.5091,16.0641 C52.4009,16.0641 57.0522,12.9632 58.6027,8.9320 C62.3238,7.3816 64.8045,4.2807 64.8045,0.8697 Z" style="fill-rule: evenodd; fill: #ffffff; "/>
    <path xmlns="http://www.w3.org/2000/svg" d="  M64.8045,0.8697 C64.8045,-4.4019 59.2229,-8.7431 52.0908,-8.7431 C51.7807,-8.7431 51.4706,-8.7431 50.8504,-8.4331 C49.6101,-12.7743 44.6486,-15.8752 38.7569,-15.8752 C33.7954,-15.8752 29.7642,-13.7046 27.5936,-10.9138 C26.3532,-11.2239 24.8028,-11.5340 23.2523,-11.5340 C17.6707,-11.5340 12.7092,-8.7431 11.1588,-4.7120 C4.9569,-4.0918 -0.0045,-0.0606 -0.0045,4.5908 C-0.0045,9.8623 5.8872,14.2036 12.7092,14.2036 C14.5698,14.2036 16.4303,13.5834 18.2909,12.9632 C20.1514,16.0641 24.4927,17.9247 29.1440,17.9247 C33.1752,17.9247 36.8963,16.3742 39.0670,14.2036 C41.2376,15.4440 43.7183,16.0641 46.5091,16.0641 C52.4009,16.0641 57.0522,12.9632 58.6027,8.9320 C62.3238,7.3816 64.8045,4.2807 64.8045,0.8697 Z" style="stroke-width: 0.0591; stroke: #000000; stroke-dasharray: none; stroke-linecap: round; stroke-linejoin: round; fill: none; "/>
    <text xmlns="http://www.w3.org/2000/svg" x="-15.4400" y="3.4756">
      <tspan font-family="Arial" font-size="4.5000" fill="#000000" fill-opacity="1.0000" stroke-opacity="1.0000">
Network Cloud</tspan>
    </text>
    <!--converted by libvisio2svg-->
  </g>
</svg>
