<svg xmlns="http://www.w3.org/2000/svg" xmlns:xlink="http://www.w3.org/1999/xlink" version="1.1" width="70.2720000000" height="7.2000000000">
  <title><![CDATA[Office Buildings]]></title>
  <g transform=" scale(1.000000) ">
    <path xmlns="http://www.w3.org/2000/svg" d="  M38.3902,-62.5044 L-0.0017,-62.5044 L2.4489,-65.7718 L35.9397,-65.7718 L38.3902,-62.5044 Z" style="fill-rule: evenodd; fill: #e6e6e6; "/>
    <path xmlns="http://www.w3.org/2000/svg" d="  M38.3902,-62.5044 L-0.0017,-62.5044 L2.4489,-65.7718 L35.9397,-65.7718 L38.3902,-62.5044 Z" style="stroke-width: 0.0591; stroke: #ffffff; stroke-dasharray: none; stroke-linecap: round; stroke-linejoin: round; fill: none; "/>
    <path xmlns="http://www.w3.org/2000/svg" d="  M38.3902,7.2000 L-0.0017,7.2000 L-0.0017,-62.5044 L38.3902,-62.5044 L38.3902,7.2000 Z" style="fill-rule: evenodd; fill: #b3b3b3; "/>
    <path xmlns="http://www.w3.org/2000/svg" d="  M38.3902,7.2000 L-0.0017,7.2000 L-0.0017,-62.5044 L38.3902,-62.5044 L38.3902,7.2000 Z" style="stroke-width: 0.0591; stroke: #ffffff; stroke-dasharray: none; stroke-linecap: round; stroke-linejoin: round; fill: none; "/>
    <path xmlns="http://www.w3.org/2000/svg" d="  M64.8017,7.2000 L38.3902,7.2000 L38.3902,-40.1772 L64.8017,-40.1772 L64.8017,7.2000 Z" style="fill-rule: evenodd; fill: #b3b3b3; "/>
    <path xmlns="http://www.w3.org/2000/svg" d="  M64.8017,7.2000 L38.3902,7.2000 L38.3902,-40.1772 L64.8017,-40.1772 L64.8017,7.2000 Z" style="stroke-width: 0.0591; stroke: #ffffff; stroke-dasharray: none; stroke-linecap: round; stroke-linejoin: round; fill: none; "/>
    <path xmlns="http://www.w3.org/2000/svg" d="  M38.3902,-40.1772 L64.8017,-40.1772 L62.3511,-43.7169 L38.3902,-43.7169 L38.3902,-40.1772 Z" style="fill-rule: evenodd; fill: #e6e6e6; "/>
    <path xmlns="http://www.w3.org/2000/svg" d="  M38.3902,-40.1772 L64.8017,-40.1772 L62.3511,-43.7169 L38.3902,-43.7169 L38.3902,-40.1772 Z" style="stroke-width: 0.0591; stroke: #ffffff; stroke-dasharray: none; stroke-linecap: round; stroke-linejoin: round; fill: none; "/>
    <path xmlns="http://www.w3.org/2000/svg" d="  M58.8114,-36.0930 L57.9946,-36.0930 L57.9946,-31.1919 L60.9897,-31.1919 L60.9897,-32.0087 L58.8114,-32.0087 L58.8114,-36.0930 Z M48.1924,-28.7413 L47.3756,-28.7413 L47.3756,-23.8402 L50.3707,-23.8402 L50.3707,-24.6571 L48.1924,-24.6571 L48.1924,-28.7413 Z M53.3658,-28.7413 L52.8212,-28.7413 L52.8212,-23.8402 L55.8163,-23.8402 L55.8163,-24.6571 L53.3658,-24.6571 L53.3658,-28.7413 Z M42.7467,-6.6864 L41.9299,-6.6864 L41.9299,-1.7853 L44.9250,-1.7853 L44.9250,-2.6022 L42.7467,-2.6022 L42.7467,-6.6864 Z M42.7467,-14.0381 L41.9299,-14.0381 L41.9299,-9.1370 L44.9250,-9.1370 L44.9250,-9.9538 L42.7467,-9.9538 L42.7467,-14.0381 Z M42.7467,-21.3897 L41.9299,-21.3897 L41.9299,-16.4886 L44.9250,-16.4886 L44.9250,-17.3055 L42.7467,-17.3055 L42.7467,-21.3897 Z M42.7467,-28.7413 L41.9299,-28.7413 L41.9299,-23.8402 L44.9250,-23.8402 L44.9250,-24.6571 L42.7467,-24.6571 L42.7467,-28.7413 Z M53.3658,-21.3897 L52.8212,-21.3897 L52.8212,-16.4886 L55.8163,-16.4886 L55.8163,-17.3055 L53.3658,-17.3055 L53.3658,-21.3897 Z M48.1924,-6.6864 L47.3756,-6.6864 L47.3756,-1.7853 L50.3707,-1.7853 L50.3707,-2.6022 L48.1924,-2.6022 L48.1924,-6.6864 Z M48.1924,-14.0381 L47.3756,-14.0381 L47.3756,-9.1370 L50.3707,-9.1370 L50.3707,-9.9538 L48.1924,-9.9538 L48.1924,-14.0381 Z M48.1924,-21.3897 L47.3756,-21.3897 L47.3756,-16.4886 L50.3707,-16.4886 L50.3707,-17.3055 L48.1924,-17.3055 L48.1924,-21.3897 Z M53.3658,-6.6864 L52.8212,-6.6864 L52.8212,-1.7853 L55.8163,-1.7853 L55.8163,-2.6022 L53.3658,-2.6022 L53.3658,-6.6864 Z M53.3658,-14.0381 L52.8212,-14.0381 L52.8212,-9.1370 L55.8163,-9.1370 L55.8163,-9.9538 L53.3658,-9.9538 L53.3658,-14.0381 Z M42.7467,-36.0930 L41.9299,-36.0930 L41.9299,-31.1919 L44.9250,-31.1919 L44.9250,-32.0087 L42.7467,-32.0087 L42.7467,-36.0930 Z M48.1924,-36.0930 L47.3756,-36.0930 L47.3756,-31.1919 L50.3707,-31.1919 L50.3707,-32.0087 L48.1924,-32.0087 L48.1924,-36.0930 Z M53.3658,-36.0930 L52.8212,-36.0930 L52.8212,-31.1919 L55.8163,-31.1919 L55.8163,-32.0087 L53.3658,-32.0087 L53.3658,-36.0930 Z M58.8114,-6.6864 L57.9946,-6.6864 L57.9946,-1.7853 L60.9897,-1.7853 L60.9897,-2.6022 L58.8114,-2.6022 L58.8114,-6.6864 Z M58.8114,-14.0381 L57.9946,-14.0381 L57.9946,-9.1370 L60.9897,-9.1370 L60.9897,-9.9538 L58.8114,-9.9538 L58.8114,-14.0381 Z M58.8114,-21.3897 L57.9946,-21.3897 L57.9946,-16.4886 L60.9897,-16.4886 L60.9897,-17.3055 L58.8114,-17.3055 L58.8114,-21.3897 Z M58.8114,-28.7413 L57.9946,-28.7413 L57.9946,-23.8402 L60.9897,-23.8402 L60.9897,-24.6571 L58.8114,-24.6571 L58.8114,-28.7413 Z M21.2364,-58.1479 L20.4196,-58.1479 L20.4196,-53.2468 L23.4147,-53.2468 L23.4147,-54.0636 L21.2364,-54.0636 L21.2364,-58.1479 Z M15.7907,-14.0381 L14.9739,-14.0381 L14.9739,-9.1370 L17.9690,-9.1370 L17.9690,-9.9538 L15.7907,-9.9538 L15.7907,-14.0381 Z M26.4098,-50.7962 L25.8652,-50.7962 L25.8652,-45.8951 L28.5880,-45.8951 L28.5880,-46.7120 L26.4098,-46.7120 L26.4098,-50.7962 Z M10.3451,-43.4446 L9.8005,-43.4446 L9.8005,-38.5435 L12.5234,-38.5435 L12.5234,-39.3604 L10.3451,-39.3604 L10.3451,-43.4446 Z M10.3451,-14.0381 L9.8005,-14.0381 L9.8005,-9.1370 L12.5234,-9.1370 L12.5234,-9.9538 L10.3451,-9.9538 L10.3451,-14.0381 Z M21.2364,-43.4446 L20.4196,-43.4446 L20.4196,-38.5435 L23.4147,-38.5435 L23.4147,-39.3604 L21.2364,-39.3604 L21.2364,-43.4446 Z M21.2364,-6.6864 L20.4196,-6.6864 L20.4196,-1.7853 L23.4147,-1.7853 L23.4147,-2.6022 L21.2364,-2.6022 L21.2364,-6.6864 Z M21.2364,-50.7962 L20.4196,-50.7962 L20.4196,-45.8951 L23.4147,-45.8951 L23.4147,-46.7120 L21.2364,-46.7120 L21.2364,-50.7962 Z M5.1717,-21.3897 L4.3549,-21.3897 L4.3549,-16.4886 L7.3500,-16.4886 L7.3500,-17.3055 L5.1717,-17.3055 L5.1717,-21.3897 Z M21.2364,-14.0381 L20.4196,-14.0381 L20.4196,-9.1370 L23.4147,-9.1370 L23.4147,-9.9538 L21.2364,-9.9538 L21.2364,-14.0381 Z M10.3451,-50.7962 L9.8005,-50.7962 L9.8005,-45.8951 L12.5234,-45.8951 L12.5234,-46.7120 L10.3451,-46.7120 L10.3451,-50.7962 Z M15.7907,-50.7962 L14.9739,-50.7962 L14.9739,-45.8951 L17.9690,-45.8951 L17.9690,-46.7120 L15.7907,-46.7120 L15.7907,-50.7962 Z M5.1717,-43.4446 L4.3549,-43.4446 L4.3549,-38.5435 L7.3500,-38.5435 L7.3500,-39.3604 L5.1717,-39.3604 L5.1717,-43.4446 Z M15.7907,-21.3897 L14.9739,-21.3897 L14.9739,-16.4886 L17.9690,-16.4886 L17.9690,-17.3055 L15.7907,-17.3055 L15.7907,-21.3897 Z M21.2364,-21.3897 L20.4196,-21.3897 L20.4196,-16.4886 L23.4147,-16.4886 L23.4147,-17.3055 L21.2364,-17.3055 L21.2364,-21.3897 Z M15.7907,-43.4446 L14.9739,-43.4446 L14.9739,-38.5435 L17.9690,-38.5435 L17.9690,-39.3604 L15.7907,-39.3604 L15.7907,-43.4446 Z M26.4098,-43.4446 L25.8652,-43.4446 L25.8652,-38.5435 L28.5880,-38.5435 L28.5880,-39.3604 L26.4098,-39.3604 L26.4098,-43.4446 Z M21.2364,-36.0930 L20.4196,-36.0930 L20.4196,-31.1919 L23.4147,-31.1919 L23.4147,-32.0087 L21.2364,-32.0087 L21.2364,-36.0930 Z M15.7907,-28.7413 L14.9739,-28.7413 L14.9739,-23.8402 L17.9690,-23.8402 L17.9690,-24.6571 L15.7907,-24.6571 L15.7907,-28.7413 Z M5.1717,-6.6864 L4.3549,-6.6864 L4.3549,-1.7853 L7.3500,-1.7853 L7.3500,-2.6022 L5.1717,-2.6022 L5.1717,-6.6864 Z M15.7907,-36.0930 L14.9739,-36.0930 L14.9739,-31.1919 L17.9690,-31.1919 L17.9690,-32.0087 L15.7907,-32.0087 L15.7907,-36.0930 Z M10.3451,-21.3897 L9.8005,-21.3897 L9.8005,-16.4886 L12.5234,-16.4886 L12.5234,-17.3055 L10.3451,-17.3055 L10.3451,-21.3897 Z M26.4098,-6.6864 L25.8652,-6.6864 L25.8652,-1.7853 L28.5880,-1.7853 L28.5880,-2.6022 L26.4098,-2.6022 L26.4098,-6.6864 Z M5.1717,-28.7413 L4.3549,-28.7413 L4.3549,-23.8402 L7.3500,-23.8402 L7.3500,-24.6571 L5.1717,-24.6571 L5.1717,-28.7413 Z M15.7907,-58.1479 L14.9739,-58.1479 L14.9739,-53.2468 L17.9690,-53.2468 L17.9690,-54.0636 L15.7907,-54.0636 L15.7907,-58.1479 Z M10.3451,-28.7413 L9.8005,-28.7413 L9.8005,-23.8402 L12.5234,-23.8402 L12.5234,-24.6571 L10.3451,-24.6571 L10.3451,-28.7413 Z M10.3451,-36.0930 L9.8005,-36.0930 L9.8005,-31.1919 L12.5234,-31.1919 L12.5234,-32.0087 L10.3451,-32.0087 L10.3451,-36.0930 Z M26.4098,-21.3897 L25.8652,-21.3897 L25.8652,-16.4886 L28.5880,-16.4886 L28.5880,-17.3055 L26.4098,-17.3055 L26.4098,-21.3897 Z M5.1717,-14.0381 L4.3549,-14.0381 L4.3549,-9.1370 L7.3500,-9.1370 L7.3500,-9.9538 L5.1717,-9.9538 L5.1717,-14.0381 Z M26.4098,-28.7413 L25.8652,-28.7413 L25.8652,-23.8402 L28.5880,-23.8402 L28.5880,-24.6571 L26.4098,-24.6571 L26.4098,-28.7413 Z M15.7907,-6.6864 L14.9739,-6.6864 L14.9739,-1.7853 L17.9690,-1.7853 L17.9690,-2.6022 L15.7907,-2.6022 L15.7907,-6.6864 Z M21.2364,-28.7413 L20.4196,-28.7413 L20.4196,-23.8402 L23.4147,-23.8402 L23.4147,-24.6571 L21.2364,-24.6571 L21.2364,-28.7413 Z M26.4098,-14.0381 L25.8652,-14.0381 L25.8652,-9.1370 L28.5880,-9.1370 L28.5880,-9.9538 L26.4098,-9.9538 L26.4098,-14.0381 Z M5.1717,-50.7962 L4.3549,-50.7962 L4.3549,-45.8951 L7.3500,-45.8951 L7.3500,-46.7120 L5.1717,-46.7120 L5.1717,-50.7962 Z M26.4098,-36.0930 L25.8652,-36.0930 L25.8652,-31.1919 L28.5880,-31.1919 L28.5880,-32.0087 L26.4098,-32.0087 L26.4098,-36.0930 Z M5.1717,-58.1479 L4.3549,-58.1479 L4.3549,-53.2468 L7.3500,-53.2468 L7.3500,-54.0636 L5.1717,-54.0636 L5.1717,-58.1479 Z M10.3451,-58.1479 L9.8005,-58.1479 L9.8005,-53.2468 L12.5234,-53.2468 L12.5234,-54.0636 L10.3451,-54.0636 L10.3451,-58.1479 Z M26.4098,-58.1479 L25.8652,-58.1479 L25.8652,-53.2468 L28.5880,-53.2468 L28.5880,-54.0636 L26.4098,-54.0636 L26.4098,-58.1479 Z M10.3451,-6.6864 L9.8005,-6.6864 L9.8005,-1.7853 L12.5234,-1.7853 L12.5234,-2.6022 L10.3451,-2.6022 L10.3451,-6.6864 Z M5.1717,-36.0930 L4.3549,-36.0930 L4.3549,-31.1919 L7.3500,-31.1919 L7.3500,-32.0087 L5.1717,-32.0087 L5.1717,-36.0930 Z M31.8554,-6.6864 L31.0386,-6.6864 L31.0386,-1.7853 L34.0337,-1.7853 L34.0337,-2.6022 L31.8554,-2.6022 L31.8554,-6.6864 Z M31.8554,-14.0381 L31.0386,-14.0381 L31.0386,-9.1370 L34.0337,-9.1370 L34.0337,-9.9538 L31.8554,-9.9538 L31.8554,-14.0381 Z M31.8554,-21.3897 L31.0386,-21.3897 L31.0386,-16.4886 L34.0337,-16.4886 L34.0337,-17.3055 L31.8554,-17.3055 L31.8554,-21.3897 Z M31.8554,-28.7413 L31.0386,-28.7413 L31.0386,-23.8402 L34.0337,-23.8402 L34.0337,-24.6571 L31.8554,-24.6571 L31.8554,-28.7413 Z M31.8554,-36.0930 L31.0386,-36.0930 L31.0386,-31.1919 L34.0337,-31.1919 L34.0337,-32.0087 L31.8554,-32.0087 L31.8554,-36.0930 Z M31.8554,-43.4446 L31.0386,-43.4446 L31.0386,-38.5435 L34.0337,-38.5435 L34.0337,-39.3604 L31.8554,-39.3604 L31.8554,-43.4446 Z M31.8554,-50.7962 L31.0386,-50.7962 L31.0386,-45.8951 L34.0337,-45.8951 L34.0337,-46.7120 L31.8554,-46.7120 L31.8554,-50.7962 Z M31.8554,-58.1479 L31.0386,-58.1479 L31.0386,-53.2468 L34.0337,-53.2468 L34.0337,-54.0636 L31.8554,-54.0636 L31.8554,-58.1479 Z" style="fill-rule: evenodd; fill: #e6e6e6; "/>
    <text xmlns="http://www.w3.org/2000/svg" x="-14.8923" y="14.6693">
      <tspan font-family="Arial" font-size="4.5000" fill="#000000" fill-opacity="1.0000" stroke-opacity="1.0000">
Office Buildings</tspan>
    </text>
    <!--converted by libvisio2svg-->
  </g>
</svg>
