<svg xmlns="http://www.w3.org/2000/svg" xmlns:xlink="http://www.w3.org/1999/xlink" version="1.1" width="66.3840000000" height="7.2000000000">
  <title><![CDATA[Optical Jukebox]]></title>
  <g transform=" scale(1.000000) ">
    <path xmlns="http://www.w3.org/2000/svg" d="  M42.5909,-38.7550 L22.2091,-38.7550 L22.2091,7.6500 L42.5909,7.6500 L42.5909,-38.7550 Z" style="fill-rule: evenodd; fill: #7f7f7f; "/>
    <path xmlns="http://www.w3.org/2000/svg" d="  M23.0325,-41.6373 L-0.0259,-41.6373 L1.9917,-44.5196 L24.4737,-44.5196 L23.0325,-41.6373 Z" style="fill-rule: evenodd; fill: #b3b3b3; "/>
    <path xmlns="http://www.w3.org/2000/svg" d="  M23.0325,-41.6373 L-0.0259,-41.6373 L-0.0259,7.6500 L23.0325,7.6500 L23.0325,-41.6373 Z" style="fill-rule: evenodd; fill: #7f7f7f; "/>
    <path xmlns="http://www.w3.org/2000/svg" d="  M64.8259,-41.6373 L41.7675,-41.6373 L40.3263,-44.5196 L62.8083,-44.5196 L64.8259,-41.6373 Z" style="fill-rule: evenodd; fill: #b3b3b3; "/>
    <path xmlns="http://www.w3.org/2000/svg" d="  M64.8259,-41.6373 L41.7675,-41.6373 L41.7675,7.6500 L64.8259,7.6500 L64.8259,-41.6373 Z" style="fill-rule: evenodd; fill: #7f7f7f; "/>
    <path xmlns="http://www.w3.org/2000/svg" d="  M41.7675,-38.7550 L23.0325,-38.7550 L24.4737,-41.6373 L40.3263,-41.6373 L41.7675,-38.7550 Z" style="fill-rule: evenodd; fill: #b3b3b3; "/>
    <path xmlns="http://www.w3.org/2000/svg" d="  M24.4737,-44.5196 L23.0325,-41.6373 L23.0325,-38.7550 L24.4737,-41.6373 L24.4737,-44.5196 Z" style="fill-rule: evenodd; fill: #9a9999; "/>
    <path xmlns="http://www.w3.org/2000/svg" d="  M40.3263,-44.5196 L41.7675,-41.6373 L41.7675,-38.7550 L40.3263,-41.6373 L40.3263,-44.5196 Z" style="fill-rule: evenodd; fill: #9a9999; "/>
    <path xmlns="http://www.w3.org/2000/svg" d="  M41.7675,-38.7550 L23.0325,-38.7550 L23.0325,-3.5910 L41.7675,-3.5910 L41.7675,-38.7550 Z" style="fill-rule: evenodd; fill: #333333; "/>
    <path xmlns="http://www.w3.org/2000/svg" d="  M52.2883,-27.8023 L64.5933,-27.8023 M52.2883,-24.3435 L64.5933,-24.3435 M52.2883,-20.8848 L64.5933,-20.8848 M52.2883,-17.4260 L64.5933,-17.4260 M52.2883,-13.9672 L64.5933,-13.9672 M52.2883,-10.5085 L64.5933,-10.5085 M52.2883,-7.0497 L64.5933,-7.0497 M52.2883,-3.5910 L64.5933,-3.5910 M0.2067,-27.8023 L12.7979,-27.8023 M0.2067,-24.3435 L12.7979,-24.3435 M0.2067,-20.8848 L12.7979,-20.8848 M0.2067,-17.4260 L12.7979,-17.4260 M0.2067,-13.9672 L12.7979,-13.9672 M0.2067,-10.5085 L12.7979,-10.5085 M0.2067,-7.0497 L12.7979,-7.0497 M0.2067,-3.5910 L12.7979,-3.5910" style="stroke-width: 0.0591; stroke: #ffffff; stroke-dasharray: none; stroke-linecap: butt; stroke-linejoin: miter; fill: none; "/>
    <text xmlns="http://www.w3.org/2000/svg" x="-14.4268" y="13.4483">
      <tspan font-family="Arial" font-size="4.5000" fill="#000000" fill-opacity="1.0000" stroke-opacity="1.0000">
Optical Jukebox</tspan>
    </text>
    <!--converted by libvisio2svg-->
  </g>
</svg>
