<svg xmlns="http://www.w3.org/2000/svg" xmlns:xlink="http://www.w3.org/1999/xlink" version="1.1" width="21.6000000000" height="7.2000000000">
  <title><![CDATA[PDA]]></title>
  <g transform=" scale(1.000000) ">
    <path xmlns="http://www.w3.org/2000/svg" d="  M21.6144,5.7687 C21.6144,6.5639 21.1373,7.2000 20.3421,7.2000 C1.2579,7.2000 1.2579,7.2000 1.2579,7.2000 C0.4627,7.2000 -0.0144,6.5639 -0.0144,5.7687 C-0.0144,-21.7444 -0.0144,-21.7444 -0.0144,-21.7444 C-0.0144,-22.5396 0.4627,-23.1757 1.2579,-23.1757 C20.3421,-23.1757 20.3421,-23.1757 20.3421,-23.1757 C21.1373,-23.1757 21.6144,-22.5396 21.6144,-21.7444 C21.6144,5.7687 21.6144,5.7687 21.6144,5.7687 Z" style="fill-rule: evenodd; fill: #7f7f7f; "/>
    <path xmlns="http://www.w3.org/2000/svg" d="  M19.3879,-0.4337 L2.2121,-0.4337 L2.2121,-20.9493 L19.3879,-20.9493 L19.3879,-0.4337 Z" style="fill-rule: evenodd; fill: #ffffff; "/>
    <path xmlns="http://www.w3.org/2000/svg" d="  M4.2796,3.5422 C4.2796,4.0193 3.8024,4.3374 3.0073,4.3374 C2.3711,4.3374 1.8940,4.0193 1.8940,3.5422 C1.8940,3.0651 2.3711,2.7470 3.0073,2.7470 C3.8024,2.7470 4.2796,3.0651 4.2796,3.5422 Z M7.6193,3.5422 C7.6193,4.0193 7.1422,4.3374 6.3470,4.3374 C5.7109,4.3374 5.2338,4.0193 5.2338,3.5422 C5.2338,3.0651 5.7109,2.7470 6.3470,2.7470 C7.1422,2.7470 7.6193,3.0651 7.6193,3.5422 Z M12.7084,3.6217 C12.7084,4.5759 11.7542,5.3711 10.8000,5.3711 C9.8458,5.3711 8.8916,4.5759 8.8916,3.6217 C8.8916,2.5085 9.8458,1.7133 10.8000,1.7133 C11.7542,1.7133 12.7084,2.5085 12.7084,3.6217 Z M16.3662,3.5422 C16.3662,4.0193 15.8891,4.3374 15.2530,4.3374 C14.4578,4.3374 13.9807,4.0193 13.9807,3.5422 C13.9807,3.0651 14.4578,2.7470 15.2530,2.7470 C15.8891,2.7470 16.3662,3.0651 16.3662,3.5422 Z M19.7060,3.5422 C19.7060,4.0193 19.2289,4.3374 18.5927,4.3374 C17.7976,4.3374 17.3204,4.0193 17.3204,3.5422 C17.3204,3.0651 17.7976,2.7470 18.5927,2.7470 C19.2289,2.7470 19.7060,3.0651 19.7060,3.5422 Z" style="fill-rule: evenodd; fill: #333333; "/>
    <text xmlns="http://www.w3.org/2000/svg" x="-2.3900" y="14.0400">
      <tspan font-family="Arial" font-size="4.5000" fill="#000000" fill-opacity="1.0000" stroke-opacity="1.0000">
PDA</tspan>
    </text>
    <!--converted by libvisio2svg-->
  </g>
</svg>
