<svg xmlns="http://www.w3.org/2000/svg" xmlns:xlink="http://www.w3.org/1999/xlink" version="1.1" width="43.2000000000" height="7.2000000000">
  <title><![CDATA[Printer]]></title>
  <g transform=" scale(1.000000) ">
    <path xmlns="http://www.w3.org/2000/svg" d="  M43.2000,7.2000 L0.0000,7.2000 L0.0000,-19.1971 L43.2000,-19.1971 L43.2000,7.2000 Z" style="fill-rule: evenodd; fill: #7f7f7f; "/>
    <path xmlns="http://www.w3.org/2000/svg" d="  M43.0477,-19.1971 L0.1523,-19.1971 L5.2287,-29.0961 L37.9713,-29.0961 L43.0477,-19.1971 Z" style="fill-rule: evenodd; fill: #b3b3b3; "/>
    <path xmlns="http://www.w3.org/2000/svg" d="  M43.0477,-19.1971 L0.1523,-19.1971 L5.2287,-29.0961 L37.9713,-29.0961 L43.0477,-19.1971 Z" style="stroke-width: 0.0591; stroke: #ffffff; stroke-dasharray: none; stroke-linecap: round; stroke-linejoin: round; fill: none; "/>
    <path xmlns="http://www.w3.org/2000/svg" d="  M43.0477,-19.1971 L0.1523,-19.1971 L5.2287,-29.0961 L37.9713,-29.0961 L43.0477,-19.1971 Z" style="stroke-width: 0.0240; stroke: #ffffff; stroke-dasharray: none; stroke-linecap: round; stroke-linejoin: round; fill: none; "/>
    <path xmlns="http://www.w3.org/2000/svg" d="  M38.7328,-14.3746 L4.4672,-14.3746 L8.5283,-25.2888 L34.6717,-25.2888 L38.7328,-14.3746 Z" style="fill-rule: evenodd; fill: #ffffff; "/>
    <path xmlns="http://www.w3.org/2000/svg" d="  M38.7328,-14.3746 L4.4672,-14.3746 L8.5283,-25.2888 L34.6717,-25.2888 L38.7328,-14.3746 Z" style="stroke-width: 0.0591; stroke: #7f7f7f; stroke-dasharray: none; stroke-linecap: round; stroke-linejoin: round; fill: none; "/>
    <path xmlns="http://www.w3.org/2000/svg" d="  M7.0054,-26.0502 L36.1946,-26.0502" style="stroke-width: 0.1181; stroke: #000000; stroke-dasharray: none; stroke-linecap: round; stroke-linejoin: round; fill: none; "/>
    <path xmlns="http://www.w3.org/2000/svg" d="  M38.7328,-18.6895 L4.4672,-18.6895 L8.5283,-25.2888 L34.6717,-25.2888 L38.7328,-18.6895 Z" style="fill-rule: evenodd; fill: #ffffff; "/>
    <path xmlns="http://www.w3.org/2000/svg" d="  M38.7328,-18.6895 L4.4672,-18.6895 L8.5283,-25.2888 L34.6717,-25.2888 L38.7328,-18.6895 Z" style="stroke-width: 0.0591; stroke: #7f7f7f; stroke-dasharray: none; stroke-linecap: round; stroke-linejoin: round; fill: none; "/>
    <path xmlns="http://www.w3.org/2000/svg" d="  M38.7328,-23.0044 L4.4672,-23.0044 L8.5283,-25.2888 L34.6717,-25.2888 L38.7328,-23.0044 Z" style="fill-rule: evenodd; fill: #ffffff; "/>
    <path xmlns="http://www.w3.org/2000/svg" d="  M38.7328,-23.0044 L4.4672,-23.0044 L8.5283,-25.2888 L34.6717,-25.2888 L38.7328,-23.0044 Z" style="stroke-width: 0.0591; stroke: #7f7f7f; stroke-dasharray: none; stroke-linecap: round; stroke-linejoin: round; fill: none; "/>
    <path xmlns="http://www.w3.org/2000/svg" d="  M43.0477,0.3469 L0.1523,0.3469" style="stroke-width: 0.0591; stroke: #ffffff; stroke-dasharray: none; stroke-linecap: butt; stroke-linejoin: miter; fill: none; "/>
    <text xmlns="http://www.w3.org/2000/svg" x="-8.8829" y="11.4171">
      <tspan font-family="Arial" font-size="4.5000" fill="#000000" fill-opacity="1.0000" stroke-opacity="1.0000">
Printer</tspan>
    </text>
    <!--converted by libvisio2svg-->
  </g>
</svg>
