<svg xmlns="http://www.w3.org/2000/svg" xmlns:xlink="http://www.w3.org/1999/xlink" version="1.1" width="52.3800000000" height="7.2000000000">
  <title><![CDATA[Race Car]]></title>
  <g transform=" scale(1.000000) ">
    <path xmlns="http://www.w3.org/2000/svg" d="  M35.6187,-13.1375 C35.6187,-10.2152 32.6964,-7.9423 28.8000,-7.9423 C25.2283,-7.9423 21.9813,-10.2152 21.9813,-13.1375 C21.9813,-15.7351 25.2283,-18.0081 28.8000,-18.0081 C32.6964,-18.0081 35.6187,-15.7351 35.6187,-13.1375 Z" style="fill-rule: evenodd; fill: #333333; "/>
    <path xmlns="http://www.w3.org/2000/svg" d="  M62.5690,-10.5399 C62.5690,-8.5917 60.2961,-6.6435 57.0490,-6.6435 C54.4514,-6.6435 54.4514,-6.6435 54.4514,-6.6435 C51.5291,-6.6435 48.9315,-8.5917 48.9315,-10.5399 C48.9315,-23.8527 48.9315,-23.8527 48.9315,-23.8527 C48.9315,-25.8009 51.5291,-27.7491 54.4514,-27.7491 C57.0490,-27.7491 57.0490,-27.7491 57.0490,-27.7491 C60.2961,-27.7491 62.5690,-25.8009 62.5690,-23.8527 C62.5690,-10.5399 62.5690,-10.5399 62.5690,-10.5399 Z" style="fill-rule: evenodd; fill: #333333; "/>
    <path xmlns="http://www.w3.org/2000/svg" d="  M46.9833,-36.1913 L11.2661,-36.1913 L11.2661,-30.6714 L27.1765,-30.6714 L27.1765,-24.5021 L30.0988,-24.5021 L30.0988,-30.6714 L46.9833,-30.6714 L46.9833,-36.1913 Z" style="fill-rule: evenodd; fill: #7f7f7f; "/>
    <path xmlns="http://www.w3.org/2000/svg" d="  M23.6048,-19.9563 C23.9295,-21.2551 26.2024,-27.7491 26.8518,-29.0479 C27.5012,-30.3467 30.0988,-30.3467 31.0729,-29.0479 C32.0470,-28.0738 34.3199,-20.9304 34.3199,-19.6316" style="stroke-width: 0.0591; stroke: #333333; stroke-dasharray: none; stroke-linecap: round; stroke-linejoin: round; fill: none; "/>
    <path xmlns="http://www.w3.org/2000/svg" d="  M24.9036,-17.6834 C25.5530,-17.0339 25.8777,-16.3845 26.5271,-15.7351 C27.1765,-15.4104 28.1506,-14.7610 29.1247,-14.7610 C29.7741,-14.7610 30.4235,-15.0857 31.7223,-15.7351 C32.3717,-16.0598 33.6705,-18.6575 32.6964,-19.3069 C32.0470,-19.6316 30.4235,-18.0081 29.7741,-18.0081 C28.1506,-18.3328 26.5271,-18.3328 24.9036,-18.3328 C24.9036,-18.0081 24.9036,-18.0081 25.2283,-18.0081 L24.9036,-17.6834 Z" style="fill-rule: evenodd; fill: #7f7f7f; "/>
    <path xmlns="http://www.w3.org/2000/svg" d="  M8.6685,-10.5399 C8.6685,-8.5917 6.0709,-6.6435 3.1486,-6.6435 C0.5510,-6.6435 0.5510,-6.6435 0.5510,-6.6435 C-2.3714,-6.6435 -4.9690,-8.5917 -4.9690,-10.5399 C-4.9690,-23.8527 -4.9690,-23.8527 -4.9690,-23.8527 C-4.9690,-25.8009 -2.3714,-27.7491 0.5510,-27.7491 C3.1486,-27.7491 3.1486,-27.7491 3.1486,-27.7491 C6.0709,-27.7491 8.6685,-25.8009 8.6685,-23.8527 C8.6685,-10.5399 8.6685,-10.5399 8.6685,-10.5399 Z" style="fill-rule: evenodd; fill: #333333; "/>
    <path xmlns="http://www.w3.org/2000/svg" d="  M51.8538,-19.9563 C49.9056,-14.4363 49.9056,-14.4363 49.9056,-14.4363 C35.9434,-15.0857 35.9434,-15.0857 35.9434,-15.0857 C35.2940,-12.8128 35.2940,-12.8128 35.2940,-12.8128 C35.2940,-13.1375 35.2940,-13.1375 35.2940,-13.1375 C33.6705,-16.3845 29.7741,-10.5399 29.7741,-10.5399 C30.7482,3.4223 30.7482,3.4223 30.7482,3.4223 C28.8000,6.9940 28.8000,6.9940 28.8000,6.9940 C32.3717,5.6952 32.3717,5.6952 32.3717,5.6952 C33.9952,1.4740 33.9952,1.4740 33.9952,1.4740 C34.6446,-0.7989 34.6446,-0.7989 34.6446,-0.7989 C48.6068,0.4999 48.6068,0.4999 48.6068,0.4999 C48.6068,0.4999 47.9574,-6.6435 48.9315,-6.9682 C49.9056,-7.2929 49.9056,-7.2929 49.9056,-7.2929 C54.7761,-7.6176 54.7761,-7.6176 54.7761,-7.6176 C55.1008,-18.9822 55.1008,-18.9822 55.1008,-18.9822 C51.8538,-19.9563 51.8538,-19.9563 51.8538,-19.9563 Z" style="fill-rule: evenodd; fill: #7f7f7f; "/>
    <path xmlns="http://www.w3.org/2000/svg" d="  M27.1765,3.4223 C25.8777,-12.1634 25.8777,-12.1634 25.8777,-12.1634 C25.8777,-12.1634 24.9036,-15.7351 21.9813,-13.1375 C21.3319,-15.0857 21.3319,-15.0857 21.3319,-15.0857 C7.6944,-13.7869 7.6944,-13.7869 7.6944,-13.7869 C5.4215,-19.6316 5.4215,-19.6316 5.4215,-19.6316 C2.4992,-18.9822 2.4992,-18.9822 2.4992,-18.9822 C2.8239,-7.6176 2.8239,-7.6176 2.8239,-7.6176 C7.3697,-7.2929 7.3697,-7.2929 7.3697,-7.2929 C7.3697,-7.2929 7.3697,-7.2929 8.3438,-6.9682 C9.3179,-6.3188 8.6685,0.4999 8.6685,0.4999 C22.9554,-0.7989 22.9554,-0.7989 22.9554,-0.7989 C23.6048,1.4740 23.6048,1.4740 23.6048,1.4740 C25.2283,5.6952 25.2283,5.6952 25.2283,5.6952 C28.8000,6.9940 28.8000,6.9940 28.8000,6.9940 C27.1765,3.4223 27.1765,3.4223 27.1765,3.4223 Z" style="fill-rule: evenodd; fill: #7f7f7f; "/>
    <path xmlns="http://www.w3.org/2000/svg" d="  M21.9813,-13.1375 C22.3060,-13.4622 23.6048,-13.7869 24.2542,-13.7869 C27.1765,-8.9164 26.5271,3.4223 26.5271,3.4223 C28.8000,6.9940 28.8000,6.9940 28.8000,6.9940 C31.0729,3.4223 31.0729,3.4223 31.0729,3.4223 C31.0729,3.4223 30.0988,-8.5917 33.0211,-13.7869 C33.9952,-13.7869 34.6446,-13.4622 35.2940,-13.1375 C34.6446,-14.4363 31.3976,-15.0857 29.1247,-15.0857 C27.8259,-15.4104 23.2801,-15.4104 21.9813,-13.1375 Z" style="fill-rule: evenodd; fill: #b3b3b3; "/>
    <path xmlns="http://www.w3.org/2000/svg" d="  M53.8020,-5.9941 L35.9434,-5.9941 M38.8658,-7.6176 L51.5291,-0.4742 M19.3837,-7.6176 L5.7462,0.1752 M5.4215,-5.9941 L19.3837,-5.9941" style="stroke-width: 0.0295; stroke: #333333; stroke-dasharray: none; stroke-linecap: round; stroke-linejoin: round; fill: none; "/>
    <path xmlns="http://www.w3.org/2000/svg" d="  M22.3060,-5.0200 L21.9813,-8.5917 L19.0589,-8.5917 L19.0589,-5.3447 L22.3060,-5.0200 Z" style="fill-rule: evenodd; fill: #333333; "/>
    <path xmlns="http://www.w3.org/2000/svg" d="  M35.9434,-5.3447 L35.9434,-8.5917 L39.1905,-8.9164 L39.1905,-5.3447 L35.9434,-5.3447 Z" style="fill-rule: evenodd; fill: #333333; "/>
    <path xmlns="http://www.w3.org/2000/svg" d="  M11.2661,-28.7232 L10.2920,-28.7232 L10.2920,-37.8149 L11.2661,-37.8149 L11.2661,-28.7232 Z" style="fill-rule: evenodd; fill: #7f7f7f; "/>
    <path xmlns="http://www.w3.org/2000/svg" d="  M47.3080,-28.7232 L46.3339,-28.7232 L46.3339,-37.8149 L47.3080,-37.8149 L47.3080,-28.7232 Z" style="fill-rule: evenodd; fill: #7f7f7f; "/>
    <path xmlns="http://www.w3.org/2000/svg" d="  M24.2542,-19.9563 C24.2542,-20.2810 24.2542,-20.2810 24.2542,-20.2810 C33.0211,-19.9563 33.0211,-19.9563 33.0211,-19.9563 C33.3458,-19.6316 33.3458,-19.6316 33.3458,-19.6316 C33.0211,-18.0081 33.0211,-18.0081 33.0211,-18.0081 C32.0470,-16.0598 29.4494,-16.7092 29.4494,-16.7092 C25.8777,-16.7092 24.9036,-18.0081 24.9036,-18.0081 C24.2542,-19.9563 24.2542,-19.9563 24.2542,-19.9563 Z" style="fill-rule: evenodd; fill: #333333; "/>
    <path xmlns="http://www.w3.org/2000/svg" d="  M33.3458,-19.9563 C33.6705,-19.9563 33.3458,-20.6057 33.3458,-21.2551 C33.3458,-23.5280 31.3976,-25.4762 28.8000,-25.4762 C26.2024,-25.4762 24.2542,-23.5280 24.2542,-21.2551 C24.2542,-20.9304 24.2542,-20.6057 24.2542,-20.6057 C24.2542,-20.6057 28.4753,-17.6834 33.3458,-19.9563 Z" style="fill-rule: evenodd; fill: #7f7f7f; "/>
    <path xmlns="http://www.w3.org/2000/svg" d="  M24.2542,-20.6057 C23.2801,-21.2551 22.3060,-20.2810 21.9813,-19.3069 C20.6825,-18.0081 19.7084,-16.0598 19.3837,-14.4363 C19.3837,-13.4622 19.7084,-12.8128 21.0072,-12.8128 C21.9813,-12.8128 22.6307,-13.7869 22.9554,-14.7610 C23.9295,-16.7092 23.9295,-18.3328 24.2542,-20.6057 Z" style="fill-rule: evenodd; fill: #7f7f7f; "/>
    <path xmlns="http://www.w3.org/2000/svg" d="  M33.6705,-20.6057 C34.6446,-21.2551 35.6187,-20.2810 36.2681,-19.3069 C37.2422,-18.0081 38.5411,-16.0598 38.5411,-14.4363 C38.8658,-13.4622 38.2163,-12.8128 37.2422,-12.8128 C35.9434,-12.8128 35.2940,-13.7869 34.9693,-14.7610 C34.3199,-16.7092 33.9952,-18.3328 33.6705,-20.6057 Z" style="fill-rule: evenodd; fill: #7f7f7f; "/>
    <path xmlns="http://www.w3.org/2000/svg" d="  M60.6208,3.4223 C60.6208,5.3705 58.9973,7.3187 56.7243,7.3187 C54.7761,7.3187 54.7761,7.3187 54.7761,7.3187 C52.5032,7.3187 50.8797,5.3705 50.8797,3.4223 C50.8797,-9.8905 50.8797,-9.8905 50.8797,-9.8905 C50.8797,-12.1634 52.5032,-13.7869 54.7761,-13.7869 C56.7243,-13.7869 56.7243,-13.7869 56.7243,-13.7869 C58.9973,-13.7869 60.6208,-12.1634 60.6208,-9.8905 C60.6208,3.4223 60.6208,3.4223 60.6208,3.4223 Z" style="fill-rule: evenodd; fill: #333333; "/>
    <path xmlns="http://www.w3.org/2000/svg" d="  M54.7761,7.9681 L38.2163,8.2928 L31.0729,5.6952 L32.3717,3.0976 L33.0211,2.7729 L45.3598,2.4482 L47.3080,0.8246 L54.4514,1.1493 L54.7761,7.9681 Z" style="fill-rule: evenodd; fill: #7f7f7f; "/>
    <path xmlns="http://www.w3.org/2000/svg" d="  M6.7203,3.4223 C6.7203,5.3705 5.0968,7.3187 2.8239,7.3187 C0.8757,7.3187 0.8757,7.3187 0.8757,7.3187 C-1.0726,7.3187 -3.0208,5.3705 -3.0208,3.4223 C-3.0208,-9.8905 -3.0208,-9.8905 -3.0208,-9.8905 C-3.0208,-12.1634 -1.0726,-13.7869 0.8757,-13.7869 C2.8239,-13.7869 2.8239,-13.7869 2.8239,-13.7869 C5.0968,-13.7869 6.7203,-12.1634 6.7203,-9.8905 C6.7203,3.4223 6.7203,3.4223 6.7203,3.4223 Z" style="fill-rule: evenodd; fill: #333333; "/>
    <path xmlns="http://www.w3.org/2000/svg" d="  M4.0520,7.9681 L20.6118,8.2928 L26.4564,5.6952 L25.8070,4.3964 L25.1576,3.0976 L24.5082,2.7729 L12.1695,2.4482 L10.5460,0.8246 L4.0520,1.1493 L4.0520,7.9681 Z" style="fill-rule: evenodd; fill: #7f7f7f; "/>
    <path xmlns="http://www.w3.org/2000/svg" d="  M4.1227,7.9681 L2.4992,7.9681 L1.8498,-2.7471 L4.1227,-4.3706 L4.1227,7.9681 Z" style="fill-rule: evenodd; fill: #7f7f7f; "/>
    <path xmlns="http://www.w3.org/2000/svg" d="  M54.7761,7.9681 L55.7502,-3.0718 L53.4773,-4.3706 L53.4773,7.9681 L54.7761,7.9681 Z" style="fill-rule: evenodd; fill: #7f7f7f; "/>
    <text xmlns="http://www.w3.org/2000/svg" x="-12.1913" y="15.1175">
      <tspan font-family="Arial" font-size="4.5000" fill="#000000" fill-opacity="1.0000" stroke-opacity="1.0000">
Race Car</tspan>
    </text>
    <!--converted by libvisio2svg-->
  </g>
</svg>
