<svg xmlns="http://www.w3.org/2000/svg" xmlns:xlink="http://www.w3.org/1999/xlink" version="1.1" width="94.1143000000" height="7.2000000000">
  <title><![CDATA[RAID Group/Aggregate Storage]]></title>
  <g transform=" scale(1.000000) ">
    <path xmlns="http://www.w3.org/2000/svg" d="  M27.6133,-50.5836 C27.6133,-53.0232 21.6497,-55.1918 14.6018,-55.1918 C7.2829,-55.1918 1.3193,-53.0232 1.3193,-50.5836 C1.3193,-25.1028 1.3193,-25.1028 1.3193,-25.1028 C1.3193,-22.3920 7.2829,-20.4945 14.6018,-20.4945 C21.6497,-20.4945 27.6133,-22.3920 27.6133,-25.1028 C27.6133,-50.5836 27.6133,-50.5836 27.6133,-50.5836 Z" style="fill-rule: evenodd; fill: #ffffff; "/>
    <g xmlns="http://www.w3.org/2000/svg" id="Layer1016">
      <path d="  M27.6133,-50.5836 C27.6133,-48.1439 21.6497,-45.9754 14.6018,-45.9754 C7.2829,-45.9754 1.3193,-48.1439 1.3193,-50.5836 C1.3193,-53.0232 7.2829,-55.1918 14.6018,-55.1918 C21.6497,-55.1918 27.6133,-53.0232 27.6133,-50.5836 Z" style="stroke-width: 0.0240; stroke-linecap: round; stroke-linejoin: round; fill-rule: evenodd; fill: #b3b3b3; "/>
      <path d="  M27.6133,-50.5836 C27.6133,-48.1439 21.6497,-45.9754 14.6018,-45.9754 C7.2829,-45.9754 1.3193,-48.1439 1.3193,-50.5836 C1.3193,-53.0232 7.2829,-55.1918 14.6018,-55.1918 C21.6497,-55.1918 27.6133,-53.0232 27.6133,-50.5836 Z" style="stroke-width: 0.0240; stroke: #ffffff; stroke-dasharray: none; stroke-linecap: round; stroke-linejoin: round; fill: none; "/>
    </g>
    <g xmlns="http://www.w3.org/2000/svg" id="Layer1017">
      <defs>
        <linearGradient id="grad9">
          <stop offset="0%" stop-color="#cdcdcd" stop-opacity="1.0000"/>
          <stop offset="100%" stop-color="#1a1a1a" stop-opacity="1.0000"/>
        </linearGradient>
      </defs>
      <path d="  M14.6018,-44.8911 C8.0961,-44.8911 2.9457,-46.5175 1.3193,-48.6861 C1.3193,-46.2464 1.3193,-46.2464 1.3193,-46.2464 C1.3193,-43.8068 7.2829,-41.6382 14.6018,-41.6382 C21.6497,-41.6382 27.6133,-43.8068 27.6133,-46.2464 C27.6133,-48.6861 27.6133,-48.6861 27.6133,-48.6861 C25.9869,-46.2464 20.0233,-44.8911 14.6018,-44.8911 Z M14.6018,-40.5539 C8.0961,-40.5539 2.9457,-42.1803 1.3193,-44.3489 C1.3193,-42.1803 1.3193,-42.1803 1.3193,-42.1803 C1.3193,-39.4696 7.2829,-37.5721 14.6018,-37.5721 C21.6497,-37.5721 27.6133,-39.4696 27.6133,-42.1803 C27.6133,-44.3489 27.6133,-44.3489 27.6133,-44.3489 C25.9869,-41.9093 20.0233,-40.5539 14.6018,-40.5539 Z M14.6018,-36.4878 C8.0961,-36.4878 2.9457,-37.8432 1.3193,-40.0118 C1.3193,-37.8432 1.3193,-37.8432 1.3193,-37.8432 C1.3193,-35.4035 7.2829,-33.2349 14.6018,-33.2349 C21.6497,-33.2349 27.6133,-35.4035 27.6133,-37.8432 C27.6133,-40.0118 27.6133,-40.0118 27.6133,-40.0118 C25.9869,-37.8432 20.0233,-36.4878 14.6018,-36.4878 Z M14.6018,-32.1507 C8.0961,-32.1507 2.9457,-33.7771 1.3193,-35.9457 C1.3193,-33.5060 1.3193,-33.5060 1.3193,-33.5060 C1.3193,-31.0664 7.2829,-28.8978 14.6018,-28.8978 C21.6497,-28.8978 27.6133,-31.0664 27.6133,-33.5060 C27.6133,-35.6746 27.6133,-35.6746 27.6133,-35.6746 C25.9869,-33.5060 20.0233,-32.1507 14.6018,-32.1507 Z M14.6018,-27.8135 C8.0961,-27.8135 2.9457,-29.4399 1.3193,-31.6085 C1.3193,-29.1689 1.3193,-29.1689 1.3193,-29.1689 C1.3193,-26.7292 7.2829,-24.5606 14.6018,-24.5606 C21.6497,-24.5606 27.6133,-26.7292 27.6133,-29.1689 C27.6133,-31.6085 27.6133,-31.6085 27.6133,-31.6085 C25.9869,-29.1689 20.0233,-27.8135 14.6018,-27.8135 Z M14.6018,-23.4763 C8.0961,-23.4763 2.9457,-25.1028 1.3193,-27.2713 C1.3193,-25.1028 1.3193,-25.1028 1.3193,-25.1028 C1.3193,-22.3920 7.2829,-20.4945 14.6018,-20.4945 C21.6497,-20.4945 27.6133,-22.3920 27.6133,-25.1028 C27.6133,-27.2713 27.6133,-27.2713 27.6133,-27.2713 C25.9869,-24.8317 20.0233,-23.4763 14.6018,-23.4763 Z" style="stroke-width: 0.0000; stroke-linecap: round; stroke-linejoin: round; fill-rule: evenodd; fill: url(#grad9); "/>
      <path d="  M14.6018,-44.8911 C8.0961,-44.8911 2.9457,-46.5175 1.3193,-48.6861 C1.3193,-46.2464 1.3193,-46.2464 1.3193,-46.2464 C1.3193,-43.8068 7.2829,-41.6382 14.6018,-41.6382 C21.6497,-41.6382 27.6133,-43.8068 27.6133,-46.2464 C27.6133,-48.6861 27.6133,-48.6861 27.6133,-48.6861 C25.9869,-46.2464 20.0233,-44.8911 14.6018,-44.8911 Z M14.6018,-40.5539 C8.0961,-40.5539 2.9457,-42.1803 1.3193,-44.3489 C1.3193,-42.1803 1.3193,-42.1803 1.3193,-42.1803 C1.3193,-39.4696 7.2829,-37.5721 14.6018,-37.5721 C21.6497,-37.5721 27.6133,-39.4696 27.6133,-42.1803 C27.6133,-44.3489 27.6133,-44.3489 27.6133,-44.3489 C25.9869,-41.9093 20.0233,-40.5539 14.6018,-40.5539 Z M14.6018,-36.4878 C8.0961,-36.4878 2.9457,-37.8432 1.3193,-40.0118 C1.3193,-37.8432 1.3193,-37.8432 1.3193,-37.8432 C1.3193,-35.4035 7.2829,-33.2349 14.6018,-33.2349 C21.6497,-33.2349 27.6133,-35.4035 27.6133,-37.8432 C27.6133,-40.0118 27.6133,-40.0118 27.6133,-40.0118 C25.9869,-37.8432 20.0233,-36.4878 14.6018,-36.4878 Z M14.6018,-32.1507 C8.0961,-32.1507 2.9457,-33.7771 1.3193,-35.9457 C1.3193,-33.5060 1.3193,-33.5060 1.3193,-33.5060 C1.3193,-31.0664 7.2829,-28.8978 14.6018,-28.8978 C21.6497,-28.8978 27.6133,-31.0664 27.6133,-33.5060 C27.6133,-35.6746 27.6133,-35.6746 27.6133,-35.6746 C25.9869,-33.5060 20.0233,-32.1507 14.6018,-32.1507 Z M14.6018,-27.8135 C8.0961,-27.8135 2.9457,-29.4399 1.3193,-31.6085 C1.3193,-29.1689 1.3193,-29.1689 1.3193,-29.1689 C1.3193,-26.7292 7.2829,-24.5606 14.6018,-24.5606 C21.6497,-24.5606 27.6133,-26.7292 27.6133,-29.1689 C27.6133,-31.6085 27.6133,-31.6085 27.6133,-31.6085 C25.9869,-29.1689 20.0233,-27.8135 14.6018,-27.8135 Z M14.6018,-23.4763 C8.0961,-23.4763 2.9457,-25.1028 1.3193,-27.2713 C1.3193,-25.1028 1.3193,-25.1028 1.3193,-25.1028 C1.3193,-22.3920 7.2829,-20.4945 14.6018,-20.4945 C21.6497,-20.4945 27.6133,-22.3920 27.6133,-25.1028 C27.6133,-27.2713 27.6133,-27.2713 27.6133,-27.2713 C25.9869,-24.8317 20.0233,-23.4763 14.6018,-23.4763 Z" style="stroke-width: 0.0000; stroke: #c0c0c0; stroke-dasharray: none; stroke-linecap: round; stroke-linejoin: round; fill: none; "/>
    </g>
    <path xmlns="http://www.w3.org/2000/svg" d="  M55.5338,-58.1736 C55.5338,-60.6133 49.5702,-62.7819 42.5223,-62.7819 C35.2034,-62.7819 29.2398,-60.6133 29.2398,-58.1736 C29.2398,-32.6928 29.2398,-32.6928 29.2398,-32.6928 C29.2398,-29.9821 35.2034,-28.0846 42.5223,-28.0846 C49.5702,-28.0846 55.5338,-29.9821 55.5338,-32.6928 C55.5338,-58.1736 55.5338,-58.1736 55.5338,-58.1736 Z" style="fill-rule: evenodd; fill: #ffffff; "/>
    <g xmlns="http://www.w3.org/2000/svg" id="Layer1018">
      <path d="  M55.5338,-58.1736 C55.5338,-55.7340 49.5702,-53.5654 42.5223,-53.5654 C35.2034,-53.5654 29.2398,-55.7340 29.2398,-58.1736 C29.2398,-60.6133 35.2034,-62.7819 42.5223,-62.7819 C49.5702,-62.7819 55.5338,-60.6133 55.5338,-58.1736 Z" style="stroke-width: 0.0240; stroke-linecap: round; stroke-linejoin: round; fill-rule: evenodd; fill: #b3b3b3; "/>
      <path d="  M55.5338,-58.1736 C55.5338,-55.7340 49.5702,-53.5654 42.5223,-53.5654 C35.2034,-53.5654 29.2398,-55.7340 29.2398,-58.1736 C29.2398,-60.6133 35.2034,-62.7819 42.5223,-62.7819 C49.5702,-62.7819 55.5338,-60.6133 55.5338,-58.1736 Z" style="stroke-width: 0.0240; stroke: #ffffff; stroke-dasharray: none; stroke-linecap: round; stroke-linejoin: round; fill: none; "/>
    </g>
    <g xmlns="http://www.w3.org/2000/svg" id="Layer1019">
      <defs>
        <linearGradient id="grad10">
          <stop offset="0%" stop-color="#cdcdcd" stop-opacity="1.0000"/>
          <stop offset="100%" stop-color="#1a1a1a" stop-opacity="1.0000"/>
        </linearGradient>
      </defs>
      <path d="  M42.5223,-52.4811 C36.0166,-52.4811 30.8662,-54.1075 29.2398,-56.2761 C29.2398,-53.8365 29.2398,-53.8365 29.2398,-53.8365 C29.2398,-51.3968 35.2034,-49.2282 42.5223,-49.2282 C49.5702,-49.2282 55.5338,-51.3968 55.5338,-53.8365 C55.5338,-56.2761 55.5338,-56.2761 55.5338,-56.2761 C53.9074,-53.8365 47.9438,-52.4811 42.5223,-52.4811 Z M42.5223,-48.1439 C36.0166,-48.1439 30.8662,-49.7704 29.2398,-51.9390 C29.2398,-49.7704 29.2398,-49.7704 29.2398,-49.7704 C29.2398,-47.0596 35.2034,-45.1621 42.5223,-45.1621 C49.5702,-45.1621 55.5338,-47.0596 55.5338,-49.7704 C55.5338,-51.9390 55.5338,-51.9390 55.5338,-51.9390 C53.9074,-49.4993 47.9438,-48.1439 42.5223,-48.1439 Z M42.5223,-44.0778 C36.0166,-44.0778 30.8662,-45.4332 29.2398,-47.6018 C29.2398,-45.4332 29.2398,-45.4332 29.2398,-45.4332 C29.2398,-42.9936 35.2034,-40.8250 42.5223,-40.8250 C49.5702,-40.8250 55.5338,-42.9936 55.5338,-45.4332 C55.5338,-47.6018 55.5338,-47.6018 55.5338,-47.6018 C53.9074,-45.4332 47.9438,-44.0778 42.5223,-44.0778 Z M42.5223,-39.7407 C36.0166,-39.7407 30.8662,-41.3671 29.2398,-43.5357 C29.2398,-41.0961 29.2398,-41.0961 29.2398,-41.0961 C29.2398,-38.6564 35.2034,-36.4878 42.5223,-36.4878 C49.5702,-36.4878 55.5338,-38.6564 55.5338,-41.0961 C55.5338,-43.2646 55.5338,-43.2646 55.5338,-43.2646 C53.9074,-41.0961 47.9438,-39.7407 42.5223,-39.7407 Z M42.5223,-35.4035 C36.0166,-35.4035 30.8662,-37.0300 29.2398,-39.1985 C29.2398,-36.7589 29.2398,-36.7589 29.2398,-36.7589 C29.2398,-34.3192 35.2034,-32.1507 42.5223,-32.1507 C49.5702,-32.1507 55.5338,-34.3192 55.5338,-36.7589 C55.5338,-39.1985 55.5338,-39.1985 55.5338,-39.1985 C53.9074,-36.7589 47.9438,-35.4035 42.5223,-35.4035 Z M42.5223,-31.0664 C36.0166,-31.0664 30.8662,-32.6928 29.2398,-34.8614 C29.2398,-32.6928 29.2398,-32.6928 29.2398,-32.6928 C29.2398,-29.9821 35.2034,-28.0846 42.5223,-28.0846 C49.5702,-28.0846 55.5338,-29.9821 55.5338,-32.6928 C55.5338,-34.8614 55.5338,-34.8614 55.5338,-34.8614 C53.9074,-32.4217 47.9438,-31.0664 42.5223,-31.0664 Z" style="stroke-width: 0.0000; stroke-linecap: round; stroke-linejoin: round; fill-rule: evenodd; fill: url(#grad10); "/>
      <path d="  M42.5223,-52.4811 C36.0166,-52.4811 30.8662,-54.1075 29.2398,-56.2761 C29.2398,-53.8365 29.2398,-53.8365 29.2398,-53.8365 C29.2398,-51.3968 35.2034,-49.2282 42.5223,-49.2282 C49.5702,-49.2282 55.5338,-51.3968 55.5338,-53.8365 C55.5338,-56.2761 55.5338,-56.2761 55.5338,-56.2761 C53.9074,-53.8365 47.9438,-52.4811 42.5223,-52.4811 Z M42.5223,-48.1439 C36.0166,-48.1439 30.8662,-49.7704 29.2398,-51.9390 C29.2398,-49.7704 29.2398,-49.7704 29.2398,-49.7704 C29.2398,-47.0596 35.2034,-45.1621 42.5223,-45.1621 C49.5702,-45.1621 55.5338,-47.0596 55.5338,-49.7704 C55.5338,-51.9390 55.5338,-51.9390 55.5338,-51.9390 C53.9074,-49.4993 47.9438,-48.1439 42.5223,-48.1439 Z M42.5223,-44.0778 C36.0166,-44.0778 30.8662,-45.4332 29.2398,-47.6018 C29.2398,-45.4332 29.2398,-45.4332 29.2398,-45.4332 C29.2398,-42.9936 35.2034,-40.8250 42.5223,-40.8250 C49.5702,-40.8250 55.5338,-42.9936 55.5338,-45.4332 C55.5338,-47.6018 55.5338,-47.6018 55.5338,-47.6018 C53.9074,-45.4332 47.9438,-44.0778 42.5223,-44.0778 Z M42.5223,-39.7407 C36.0166,-39.7407 30.8662,-41.3671 29.2398,-43.5357 C29.2398,-41.0961 29.2398,-41.0961 29.2398,-41.0961 C29.2398,-38.6564 35.2034,-36.4878 42.5223,-36.4878 C49.5702,-36.4878 55.5338,-38.6564 55.5338,-41.0961 C55.5338,-43.2646 55.5338,-43.2646 55.5338,-43.2646 C53.9074,-41.0961 47.9438,-39.7407 42.5223,-39.7407 Z M42.5223,-35.4035 C36.0166,-35.4035 30.8662,-37.0300 29.2398,-39.1985 C29.2398,-36.7589 29.2398,-36.7589 29.2398,-36.7589 C29.2398,-34.3192 35.2034,-32.1507 42.5223,-32.1507 C49.5702,-32.1507 55.5338,-34.3192 55.5338,-36.7589 C55.5338,-39.1985 55.5338,-39.1985 55.5338,-39.1985 C53.9074,-36.7589 47.9438,-35.4035 42.5223,-35.4035 Z M42.5223,-31.0664 C36.0166,-31.0664 30.8662,-32.6928 29.2398,-34.8614 C29.2398,-32.6928 29.2398,-32.6928 29.2398,-32.6928 C29.2398,-29.9821 35.2034,-28.0846 42.5223,-28.0846 C49.5702,-28.0846 55.5338,-29.9821 55.5338,-32.6928 C55.5338,-34.8614 55.5338,-34.8614 55.5338,-34.8614 C53.9074,-32.4217 47.9438,-31.0664 42.5223,-31.0664 Z" style="stroke-width: 0.0000; stroke: #c0c0c0; stroke-dasharray: none; stroke-linecap: round; stroke-linejoin: round; fill: none; "/>
    </g>
    <path xmlns="http://www.w3.org/2000/svg" d="  M83.4543,-50.5836 C83.4543,-53.0232 77.4907,-55.1918 70.4428,-55.1918 C63.1238,-55.1918 57.1602,-53.0232 57.1602,-50.5836 C57.1602,-25.1028 57.1602,-25.1028 57.1602,-25.1028 C57.1602,-22.3920 63.1238,-20.4945 70.4428,-20.4945 C77.4907,-20.4945 83.4543,-22.3920 83.4543,-25.1028 C83.4543,-50.5836 83.4543,-50.5836 83.4543,-50.5836 Z" style="fill-rule: evenodd; fill: #ffffff; "/>
    <g xmlns="http://www.w3.org/2000/svg" id="Layer1020">
      <path d="  M83.4543,-50.5836 C83.4543,-48.1439 77.4907,-45.9754 70.4428,-45.9754 C63.1238,-45.9754 57.1602,-48.1439 57.1602,-50.5836 C57.1602,-53.0232 63.1238,-55.1918 70.4428,-55.1918 C77.4907,-55.1918 83.4543,-53.0232 83.4543,-50.5836 Z" style="stroke-width: 0.0240; stroke-linecap: round; stroke-linejoin: round; fill-rule: evenodd; fill: #b3b3b3; "/>
      <path d="  M83.4543,-50.5836 C83.4543,-48.1439 77.4907,-45.9754 70.4428,-45.9754 C63.1238,-45.9754 57.1602,-48.1439 57.1602,-50.5836 C57.1602,-53.0232 63.1238,-55.1918 70.4428,-55.1918 C77.4907,-55.1918 83.4543,-53.0232 83.4543,-50.5836 Z" style="stroke-width: 0.0240; stroke: #ffffff; stroke-dasharray: none; stroke-linecap: round; stroke-linejoin: round; fill: none; "/>
    </g>
    <g xmlns="http://www.w3.org/2000/svg" id="Layer1021">
      <defs>
        <linearGradient id="grad11">
          <stop offset="0%" stop-color="#cdcdcd" stop-opacity="1.0000"/>
          <stop offset="100%" stop-color="#1a1a1a" stop-opacity="1.0000"/>
        </linearGradient>
      </defs>
      <path d="  M70.4428,-44.8911 C63.9371,-44.8911 58.7867,-46.5175 57.1602,-48.6861 C57.1602,-46.2464 57.1602,-46.2464 57.1602,-46.2464 C57.1602,-43.8068 63.1238,-41.6382 70.4428,-41.6382 C77.4907,-41.6382 83.4543,-43.8068 83.4543,-46.2464 C83.4543,-48.6861 83.4543,-48.6861 83.4543,-48.6861 C81.8279,-46.2464 75.8643,-44.8911 70.4428,-44.8911 Z M70.4428,-40.5539 C63.9371,-40.5539 58.7867,-42.1803 57.1602,-44.3489 C57.1602,-42.1803 57.1602,-42.1803 57.1602,-42.1803 C57.1602,-39.4696 63.1238,-37.5721 70.4428,-37.5721 C77.4907,-37.5721 83.4543,-39.4696 83.4543,-42.1803 C83.4543,-44.3489 83.4543,-44.3489 83.4543,-44.3489 C81.8279,-41.9093 75.8643,-40.5539 70.4428,-40.5539 Z M70.4428,-36.4878 C63.9371,-36.4878 58.7867,-37.8432 57.1602,-40.0118 C57.1602,-37.8432 57.1602,-37.8432 57.1602,-37.8432 C57.1602,-35.4035 63.1238,-33.2349 70.4428,-33.2349 C77.4907,-33.2349 83.4543,-35.4035 83.4543,-37.8432 C83.4543,-40.0118 83.4543,-40.0118 83.4543,-40.0118 C81.8279,-37.8432 75.8643,-36.4878 70.4428,-36.4878 Z M70.4428,-32.1507 C63.9371,-32.1507 58.7867,-33.7771 57.1602,-35.9457 C57.1602,-33.5060 57.1602,-33.5060 57.1602,-33.5060 C57.1602,-31.0664 63.1238,-28.8978 70.4428,-28.8978 C77.4907,-28.8978 83.4543,-31.0664 83.4543,-33.5060 C83.4543,-35.6746 83.4543,-35.6746 83.4543,-35.6746 C81.8279,-33.5060 75.8643,-32.1507 70.4428,-32.1507 Z M70.4428,-27.8135 C63.9371,-27.8135 58.7867,-29.4399 57.1602,-31.6085 C57.1602,-29.1689 57.1602,-29.1689 57.1602,-29.1689 C57.1602,-26.7292 63.1238,-24.5606 70.4428,-24.5606 C77.4907,-24.5606 83.4543,-26.7292 83.4543,-29.1689 C83.4543,-31.6085 83.4543,-31.6085 83.4543,-31.6085 C81.8279,-29.1689 75.8643,-27.8135 70.4428,-27.8135 Z M70.4428,-23.4763 C63.9371,-23.4763 58.7867,-25.1028 57.1602,-27.2713 C57.1602,-25.1028 57.1602,-25.1028 57.1602,-25.1028 C57.1602,-22.3920 63.1238,-20.4945 70.4428,-20.4945 C77.4907,-20.4945 83.4543,-22.3920 83.4543,-25.1028 C83.4543,-27.2713 83.4543,-27.2713 83.4543,-27.2713 C81.8279,-24.8317 75.8643,-23.4763 70.4428,-23.4763 Z" style="stroke-width: 0.0000; stroke-linecap: round; stroke-linejoin: round; fill-rule: evenodd; fill: url(#grad11); "/>
      <path d="  M70.4428,-44.8911 C63.9371,-44.8911 58.7867,-46.5175 57.1602,-48.6861 C57.1602,-46.2464 57.1602,-46.2464 57.1602,-46.2464 C57.1602,-43.8068 63.1238,-41.6382 70.4428,-41.6382 C77.4907,-41.6382 83.4543,-43.8068 83.4543,-46.2464 C83.4543,-48.6861 83.4543,-48.6861 83.4543,-48.6861 C81.8279,-46.2464 75.8643,-44.8911 70.4428,-44.8911 Z M70.4428,-40.5539 C63.9371,-40.5539 58.7867,-42.1803 57.1602,-44.3489 C57.1602,-42.1803 57.1602,-42.1803 57.1602,-42.1803 C57.1602,-39.4696 63.1238,-37.5721 70.4428,-37.5721 C77.4907,-37.5721 83.4543,-39.4696 83.4543,-42.1803 C83.4543,-44.3489 83.4543,-44.3489 83.4543,-44.3489 C81.8279,-41.9093 75.8643,-40.5539 70.4428,-40.5539 Z M70.4428,-36.4878 C63.9371,-36.4878 58.7867,-37.8432 57.1602,-40.0118 C57.1602,-37.8432 57.1602,-37.8432 57.1602,-37.8432 C57.1602,-35.4035 63.1238,-33.2349 70.4428,-33.2349 C77.4907,-33.2349 83.4543,-35.4035 83.4543,-37.8432 C83.4543,-40.0118 83.4543,-40.0118 83.4543,-40.0118 C81.8279,-37.8432 75.8643,-36.4878 70.4428,-36.4878 Z M70.4428,-32.1507 C63.9371,-32.1507 58.7867,-33.7771 57.1602,-35.9457 C57.1602,-33.5060 57.1602,-33.5060 57.1602,-33.5060 C57.1602,-31.0664 63.1238,-28.8978 70.4428,-28.8978 C77.4907,-28.8978 83.4543,-31.0664 83.4543,-33.5060 C83.4543,-35.6746 83.4543,-35.6746 83.4543,-35.6746 C81.8279,-33.5060 75.8643,-32.1507 70.4428,-32.1507 Z M70.4428,-27.8135 C63.9371,-27.8135 58.7867,-29.4399 57.1602,-31.6085 C57.1602,-29.1689 57.1602,-29.1689 57.1602,-29.1689 C57.1602,-26.7292 63.1238,-24.5606 70.4428,-24.5606 C77.4907,-24.5606 83.4543,-26.7292 83.4543,-29.1689 C83.4543,-31.6085 83.4543,-31.6085 83.4543,-31.6085 C81.8279,-29.1689 75.8643,-27.8135 70.4428,-27.8135 Z M70.4428,-23.4763 C63.9371,-23.4763 58.7867,-25.1028 57.1602,-27.2713 C57.1602,-25.1028 57.1602,-25.1028 57.1602,-25.1028 C57.1602,-22.3920 63.1238,-20.4945 70.4428,-20.4945 C77.4907,-20.4945 83.4543,-22.3920 83.4543,-25.1028 C83.4543,-27.2713 83.4543,-27.2713 83.4543,-27.2713 C81.8279,-24.8317 75.8643,-23.4763 70.4428,-23.4763 Z" style="stroke-width: 0.0000; stroke: #c0c0c0; stroke-dasharray: none; stroke-linecap: round; stroke-linejoin: round; fill: none; "/>
    </g>
    <path xmlns="http://www.w3.org/2000/svg" d="  M13.7886,-34.9969 C13.7886,-37.7076 7.8250,-39.6052 0.7771,-39.6052 C-6.5418,-39.6052 -12.2344,-37.7076 -12.2344,-34.9969 C-12.2344,-9.5161 -12.2344,-9.5161 -12.2344,-9.5161 C-12.2344,-7.0764 -6.5418,-4.9078 0.7771,-4.9078 C7.8250,-4.9078 13.7886,-7.0764 13.7886,-9.5161 C13.7886,-34.9969 13.7886,-34.9969 13.7886,-34.9969 Z" style="fill-rule: evenodd; fill: #ffffff; "/>
    <g xmlns="http://www.w3.org/2000/svg" id="Layer1022">
      <path d="  M13.7886,-34.9969 C13.7886,-32.5573 7.8250,-30.3887 0.7771,-30.3887 C-6.5418,-30.3887 -12.2344,-32.5573 -12.2344,-34.9969 C-12.2344,-37.7076 -6.5418,-39.6052 0.7771,-39.6052 C7.8250,-39.6052 13.7886,-37.7076 13.7886,-34.9969 Z" style="stroke-width: 0.0240; stroke-linecap: round; stroke-linejoin: round; fill-rule: evenodd; fill: #b3b3b3; "/>
      <path d="  M13.7886,-34.9969 C13.7886,-32.5573 7.8250,-30.3887 0.7771,-30.3887 C-6.5418,-30.3887 -12.2344,-32.5573 -12.2344,-34.9969 C-12.2344,-37.7076 -6.5418,-39.6052 0.7771,-39.6052 C7.8250,-39.6052 13.7886,-37.7076 13.7886,-34.9969 Z" style="stroke-width: 0.0240; stroke: #ffffff; stroke-dasharray: none; stroke-linecap: round; stroke-linejoin: round; fill: none; "/>
    </g>
    <g xmlns="http://www.w3.org/2000/svg" id="Layer1023">
      <defs>
        <linearGradient id="grad12">
          <stop offset="0%" stop-color="#cdcdcd" stop-opacity="1.0000"/>
          <stop offset="100%" stop-color="#1a1a1a" stop-opacity="1.0000"/>
        </linearGradient>
      </defs>
      <path d="  M0.7771,-29.3044 C-5.7286,-29.3044 -10.8790,-30.9308 -12.2344,-33.0994 C-12.2344,-30.9308 -12.2344,-30.9308 -12.2344,-30.9308 C-12.2344,-28.2201 -6.5418,-26.3226 0.7771,-26.3226 C7.8250,-26.3226 13.7886,-28.2201 13.7886,-30.9308 C13.7886,-33.0994 13.7886,-33.0994 13.7886,-33.0994 C12.1622,-30.6598 6.4697,-29.3044 0.7771,-29.3044 Z M0.7771,-25.2383 C-5.7286,-25.2383 -10.8790,-26.5937 -12.2344,-28.7622 C-12.2344,-26.5937 -12.2344,-26.5937 -12.2344,-26.5937 C-12.2344,-24.1540 -6.5418,-21.9854 0.7771,-21.9854 C7.8250,-21.9854 13.7886,-24.1540 13.7886,-26.5937 C13.7886,-28.7622 13.7886,-28.7622 13.7886,-28.7622 C12.1622,-26.5937 6.4697,-25.2383 0.7771,-25.2383 Z M0.7771,-20.9011 C-5.7286,-20.9011 -10.8790,-22.5276 -12.2344,-24.6962 C-12.2344,-22.2565 -12.2344,-22.2565 -12.2344,-22.2565 C-12.2344,-19.8168 -6.5418,-17.6483 0.7771,-17.6483 C7.8250,-17.6483 13.7886,-19.8168 13.7886,-22.2565 C13.7886,-24.6962 13.7886,-24.6962 13.7886,-24.6962 C12.1622,-22.2565 6.4697,-20.9011 0.7771,-20.9011 Z M0.7771,-16.5640 C-5.7286,-16.5640 -10.8790,-18.1904 -12.2344,-20.3590 C-12.2344,-18.1904 -12.2344,-18.1904 -12.2344,-18.1904 C-12.2344,-15.4797 -6.5418,-13.5822 0.7771,-13.5822 C7.8250,-13.5822 13.7886,-15.4797 13.7886,-18.1904 C13.7886,-20.3590 13.7886,-20.3590 13.7886,-20.3590 C12.1622,-17.9193 6.4697,-16.5640 0.7771,-16.5640 Z M0.7771,-12.2268 C-5.7286,-12.2268 -10.8790,-13.8532 -12.2344,-16.0218 C-12.2344,-13.8532 -12.2344,-13.8532 -12.2344,-13.8532 C-12.2344,-11.1425 -6.5418,-9.2450 0.7771,-9.2450 C7.8250,-9.2450 13.7886,-11.1425 13.7886,-13.8532 C13.7886,-16.0218 13.7886,-16.0218 13.7886,-16.0218 C12.1622,-13.5822 6.4697,-12.2268 0.7771,-12.2268 Z M0.7771,-8.1607 C-5.7286,-8.1607 -10.8790,-9.5161 -12.2344,-11.6847 C-12.2344,-9.5161 -12.2344,-9.5161 -12.2344,-9.5161 C-12.2344,-7.0764 -6.5418,-4.9078 0.7771,-4.9078 C7.8250,-4.9078 13.7886,-7.0764 13.7886,-9.5161 C13.7886,-11.6847 13.7886,-11.6847 13.7886,-11.6847 C12.1622,-9.5161 6.4697,-8.1607 0.7771,-8.1607 Z" style="stroke-width: 0.0000; stroke-linecap: round; stroke-linejoin: round; fill-rule: evenodd; fill: url(#grad12); "/>
      <path d="  M0.7771,-29.3044 C-5.7286,-29.3044 -10.8790,-30.9308 -12.2344,-33.0994 C-12.2344,-30.9308 -12.2344,-30.9308 -12.2344,-30.9308 C-12.2344,-28.2201 -6.5418,-26.3226 0.7771,-26.3226 C7.8250,-26.3226 13.7886,-28.2201 13.7886,-30.9308 C13.7886,-33.0994 13.7886,-33.0994 13.7886,-33.0994 C12.1622,-30.6598 6.4697,-29.3044 0.7771,-29.3044 Z M0.7771,-25.2383 C-5.7286,-25.2383 -10.8790,-26.5937 -12.2344,-28.7622 C-12.2344,-26.5937 -12.2344,-26.5937 -12.2344,-26.5937 C-12.2344,-24.1540 -6.5418,-21.9854 0.7771,-21.9854 C7.8250,-21.9854 13.7886,-24.1540 13.7886,-26.5937 C13.7886,-28.7622 13.7886,-28.7622 13.7886,-28.7622 C12.1622,-26.5937 6.4697,-25.2383 0.7771,-25.2383 Z M0.7771,-20.9011 C-5.7286,-20.9011 -10.8790,-22.5276 -12.2344,-24.6962 C-12.2344,-22.2565 -12.2344,-22.2565 -12.2344,-22.2565 C-12.2344,-19.8168 -6.5418,-17.6483 0.7771,-17.6483 C7.8250,-17.6483 13.7886,-19.8168 13.7886,-22.2565 C13.7886,-24.6962 13.7886,-24.6962 13.7886,-24.6962 C12.1622,-22.2565 6.4697,-20.9011 0.7771,-20.9011 Z M0.7771,-16.5640 C-5.7286,-16.5640 -10.8790,-18.1904 -12.2344,-20.3590 C-12.2344,-18.1904 -12.2344,-18.1904 -12.2344,-18.1904 C-12.2344,-15.4797 -6.5418,-13.5822 0.7771,-13.5822 C7.8250,-13.5822 13.7886,-15.4797 13.7886,-18.1904 C13.7886,-20.3590 13.7886,-20.3590 13.7886,-20.3590 C12.1622,-17.9193 6.4697,-16.5640 0.7771,-16.5640 Z M0.7771,-12.2268 C-5.7286,-12.2268 -10.8790,-13.8532 -12.2344,-16.0218 C-12.2344,-13.8532 -12.2344,-13.8532 -12.2344,-13.8532 C-12.2344,-11.1425 -6.5418,-9.2450 0.7771,-9.2450 C7.8250,-9.2450 13.7886,-11.1425 13.7886,-13.8532 C13.7886,-16.0218 13.7886,-16.0218 13.7886,-16.0218 C12.1622,-13.5822 6.4697,-12.2268 0.7771,-12.2268 Z M0.7771,-8.1607 C-5.7286,-8.1607 -10.8790,-9.5161 -12.2344,-11.6847 C-12.2344,-9.5161 -12.2344,-9.5161 -12.2344,-9.5161 C-12.2344,-7.0764 -6.5418,-4.9078 0.7771,-4.9078 C7.8250,-4.9078 13.7886,-7.0764 13.7886,-9.5161 C13.7886,-11.6847 13.7886,-11.6847 13.7886,-11.6847 C12.1622,-9.5161 6.4697,-8.1607 0.7771,-8.1607 Z" style="stroke-width: 0.0000; stroke: #c0c0c0; stroke-dasharray: none; stroke-linecap: round; stroke-linejoin: round; fill: none; "/>
    </g>
    <path xmlns="http://www.w3.org/2000/svg" d="  M27.6133,-16.0218 C27.6133,-18.4615 21.6497,-20.6301 14.6018,-20.6301 C7.2829,-20.6301 1.3193,-18.4615 1.3193,-16.0218 C1.3193,9.4590 1.3193,9.4590 1.3193,9.4590 C1.3193,12.1697 7.2829,14.0672 14.6018,14.0672 C21.6497,14.0672 27.6133,12.1697 27.6133,9.4590 C27.6133,-16.0218 27.6133,-16.0218 27.6133,-16.0218 Z" style="fill-rule: evenodd; fill: #ffffff; "/>
    <g xmlns="http://www.w3.org/2000/svg" id="Layer1024">
      <path d="  M27.6133,-16.0218 C27.6133,-13.5822 21.6497,-11.4136 14.6018,-11.4136 C7.2829,-11.4136 1.3193,-13.5822 1.3193,-16.0218 C1.3193,-18.4615 7.2829,-20.6301 14.6018,-20.6301 C21.6497,-20.6301 27.6133,-18.4615 27.6133,-16.0218 Z" style="stroke-width: 0.0240; stroke-linecap: round; stroke-linejoin: round; fill-rule: evenodd; fill: #b3b3b3; "/>
      <path d="  M27.6133,-16.0218 C27.6133,-13.5822 21.6497,-11.4136 14.6018,-11.4136 C7.2829,-11.4136 1.3193,-13.5822 1.3193,-16.0218 C1.3193,-18.4615 7.2829,-20.6301 14.6018,-20.6301 C21.6497,-20.6301 27.6133,-18.4615 27.6133,-16.0218 Z" style="stroke-width: 0.0240; stroke: #ffffff; stroke-dasharray: none; stroke-linecap: round; stroke-linejoin: round; fill: none; "/>
    </g>
    <g xmlns="http://www.w3.org/2000/svg" id="Layer1025">
      <defs>
        <linearGradient id="grad13">
          <stop offset="0%" stop-color="#cdcdcd" stop-opacity="1.0000"/>
          <stop offset="100%" stop-color="#1a1a1a" stop-opacity="1.0000"/>
        </linearGradient>
      </defs>
      <path d="  M14.6018,-10.3293 C8.0961,-10.3293 2.9457,-11.9557 1.3193,-14.1243 C1.3193,-11.6847 1.3193,-11.6847 1.3193,-11.6847 C1.3193,-9.2450 7.2829,-7.0764 14.6018,-7.0764 C21.6497,-7.0764 27.6133,-9.2450 27.6133,-11.6847 C27.6133,-14.1243 27.6133,-14.1243 27.6133,-14.1243 C25.9869,-11.6847 20.0233,-10.3293 14.6018,-10.3293 Z M14.6018,-5.9921 C8.0961,-5.9921 2.9457,-7.6186 1.3193,-9.7872 C1.3193,-7.6186 1.3193,-7.6186 1.3193,-7.6186 C1.3193,-4.9078 7.2829,-3.0103 14.6018,-3.0103 C21.6497,-3.0103 27.6133,-4.9078 27.6133,-7.6186 C27.6133,-9.7872 27.6133,-9.7872 27.6133,-9.7872 C25.9869,-7.3475 20.0233,-5.9921 14.6018,-5.9921 Z M14.6018,-1.9260 C8.0961,-1.9260 2.9457,-3.2814 1.3193,-5.4500 C1.3193,-3.2814 1.3193,-3.2814 1.3193,-3.2814 C1.3193,-0.8418 7.2829,1.3268 14.6018,1.3268 C21.6497,1.3268 27.6133,-0.8418 27.6133,-3.2814 C27.6133,-5.4500 27.6133,-5.4500 27.6133,-5.4500 C25.9869,-3.2814 20.0233,-1.9260 14.6018,-1.9260 Z M14.6018,2.4111 C8.0961,2.4111 2.9457,0.7847 1.3193,-1.3839 C1.3193,1.0558 1.3193,1.0558 1.3193,1.0558 C1.3193,3.4954 7.2829,5.6640 14.6018,5.6640 C21.6497,5.6640 27.6133,3.4954 27.6133,1.0558 C27.6133,-1.1128 27.6133,-1.1128 27.6133,-1.1128 C25.9869,1.0558 20.0233,2.4111 14.6018,2.4111 Z M14.6018,6.7483 C8.0961,6.7483 2.9457,5.1218 1.3193,2.9533 C1.3193,5.3929 1.3193,5.3929 1.3193,5.3929 C1.3193,7.8326 7.2829,10.0011 14.6018,10.0011 C21.6497,10.0011 27.6133,7.8326 27.6133,5.3929 C27.6133,2.9533 27.6133,2.9533 27.6133,2.9533 C25.9869,5.3929 20.0233,6.7483 14.6018,6.7483 Z M14.6018,11.0854 C8.0961,11.0854 2.9457,9.4590 1.3193,7.2904 C1.3193,9.4590 1.3193,9.4590 1.3193,9.4590 C1.3193,12.1697 7.2829,14.0672 14.6018,14.0672 C21.6497,14.0672 27.6133,12.1697 27.6133,9.4590 C27.6133,7.2904 27.6133,7.2904 27.6133,7.2904 C25.9869,9.7301 20.0233,11.0854 14.6018,11.0854 Z" style="stroke-width: 0.0000; stroke-linecap: round; stroke-linejoin: round; fill-rule: evenodd; fill: url(#grad13); "/>
      <path d="  M14.6018,-10.3293 C8.0961,-10.3293 2.9457,-11.9557 1.3193,-14.1243 C1.3193,-11.6847 1.3193,-11.6847 1.3193,-11.6847 C1.3193,-9.2450 7.2829,-7.0764 14.6018,-7.0764 C21.6497,-7.0764 27.6133,-9.2450 27.6133,-11.6847 C27.6133,-14.1243 27.6133,-14.1243 27.6133,-14.1243 C25.9869,-11.6847 20.0233,-10.3293 14.6018,-10.3293 Z M14.6018,-5.9921 C8.0961,-5.9921 2.9457,-7.6186 1.3193,-9.7872 C1.3193,-7.6186 1.3193,-7.6186 1.3193,-7.6186 C1.3193,-4.9078 7.2829,-3.0103 14.6018,-3.0103 C21.6497,-3.0103 27.6133,-4.9078 27.6133,-7.6186 C27.6133,-9.7872 27.6133,-9.7872 27.6133,-9.7872 C25.9869,-7.3475 20.0233,-5.9921 14.6018,-5.9921 Z M14.6018,-1.9260 C8.0961,-1.9260 2.9457,-3.2814 1.3193,-5.4500 C1.3193,-3.2814 1.3193,-3.2814 1.3193,-3.2814 C1.3193,-0.8418 7.2829,1.3268 14.6018,1.3268 C21.6497,1.3268 27.6133,-0.8418 27.6133,-3.2814 C27.6133,-5.4500 27.6133,-5.4500 27.6133,-5.4500 C25.9869,-3.2814 20.0233,-1.9260 14.6018,-1.9260 Z M14.6018,2.4111 C8.0961,2.4111 2.9457,0.7847 1.3193,-1.3839 C1.3193,1.0558 1.3193,1.0558 1.3193,1.0558 C1.3193,3.4954 7.2829,5.6640 14.6018,5.6640 C21.6497,5.6640 27.6133,3.4954 27.6133,1.0558 C27.6133,-1.1128 27.6133,-1.1128 27.6133,-1.1128 C25.9869,1.0558 20.0233,2.4111 14.6018,2.4111 Z M14.6018,6.7483 C8.0961,6.7483 2.9457,5.1218 1.3193,2.9533 C1.3193,5.3929 1.3193,5.3929 1.3193,5.3929 C1.3193,7.8326 7.2829,10.0011 14.6018,10.0011 C21.6497,10.0011 27.6133,7.8326 27.6133,5.3929 C27.6133,2.9533 27.6133,2.9533 27.6133,2.9533 C25.9869,5.3929 20.0233,6.7483 14.6018,6.7483 Z M14.6018,11.0854 C8.0961,11.0854 2.9457,9.4590 1.3193,7.2904 C1.3193,9.4590 1.3193,9.4590 1.3193,9.4590 C1.3193,12.1697 7.2829,14.0672 14.6018,14.0672 C21.6497,14.0672 27.6133,12.1697 27.6133,9.4590 C27.6133,7.2904 27.6133,7.2904 27.6133,7.2904 C25.9869,9.7301 20.0233,11.0854 14.6018,11.0854 Z" style="stroke-width: 0.0000; stroke: #c0c0c0; stroke-dasharray: none; stroke-linecap: round; stroke-linejoin: round; fill: none; "/>
    </g>
    <path xmlns="http://www.w3.org/2000/svg" d="  M98.6344,-34.9969 C98.6344,-37.4366 92.6708,-39.6052 85.6229,-39.6052 C78.3039,-39.6052 72.3403,-37.4366 72.3403,-34.9969 C72.3403,-9.5161 72.3403,-9.5161 72.3403,-9.5161 C72.3403,-6.8054 78.3039,-4.9078 85.6229,-4.9078 C92.6708,-4.9078 98.6344,-6.8054 98.6344,-9.5161 C98.6344,-34.9969 98.6344,-34.9969 98.6344,-34.9969 Z" style="fill-rule: evenodd; fill: #ffffff; "/>
    <g xmlns="http://www.w3.org/2000/svg" id="Layer1026">
      <path d="  M98.6344,-34.9969 C98.6344,-32.5573 92.6708,-30.3887 85.6229,-30.3887 C78.3039,-30.3887 72.3403,-32.5573 72.3403,-34.9969 C72.3403,-37.4366 78.3039,-39.6052 85.6229,-39.6052 C92.6708,-39.6052 98.6344,-37.4366 98.6344,-34.9969 Z" style="stroke-width: 0.0240; stroke-linecap: round; stroke-linejoin: round; fill-rule: evenodd; fill: #b3b3b3; "/>
      <path d="  M98.6344,-34.9969 C98.6344,-32.5573 92.6708,-30.3887 85.6229,-30.3887 C78.3039,-30.3887 72.3403,-32.5573 72.3403,-34.9969 C72.3403,-37.4366 78.3039,-39.6052 85.6229,-39.6052 C92.6708,-39.6052 98.6344,-37.4366 98.6344,-34.9969 Z" style="stroke-width: 0.0240; stroke: #ffffff; stroke-dasharray: none; stroke-linecap: round; stroke-linejoin: round; fill: none; "/>
    </g>
    <g xmlns="http://www.w3.org/2000/svg" id="Layer1027">
      <defs>
        <linearGradient id="grad14">
          <stop offset="0%" stop-color="#cdcdcd" stop-opacity="1.0000"/>
          <stop offset="100%" stop-color="#1a1a1a" stop-opacity="1.0000"/>
        </linearGradient>
      </defs>
      <path d="  M85.6229,-29.3044 C79.1171,-29.3044 73.9667,-30.9308 72.3403,-33.0994 C72.3403,-30.6598 72.3403,-30.6598 72.3403,-30.6598 C72.3403,-28.2201 78.3039,-26.0515 85.6229,-26.0515 C92.6708,-26.0515 98.6344,-28.2201 98.6344,-30.6598 C98.6344,-33.0994 98.6344,-33.0994 98.6344,-33.0994 C97.0079,-30.6598 91.0443,-29.3044 85.6229,-29.3044 Z M85.6229,-24.9672 C79.1171,-24.9672 73.9667,-26.5937 72.3403,-28.7622 C72.3403,-26.5937 72.3403,-26.5937 72.3403,-26.5937 C72.3403,-23.8829 78.3039,-21.9854 85.6229,-21.9854 C92.6708,-21.9854 98.6344,-23.8829 98.6344,-26.5937 C98.6344,-28.7622 98.6344,-28.7622 98.6344,-28.7622 C97.0079,-26.3226 91.0443,-24.9672 85.6229,-24.9672 Z M85.6229,-20.9011 C79.1171,-20.9011 73.9667,-22.2565 72.3403,-24.4251 C72.3403,-22.2565 72.3403,-22.2565 72.3403,-22.2565 C72.3403,-19.8168 78.3039,-17.6483 85.6229,-17.6483 C92.6708,-17.6483 98.6344,-19.8168 98.6344,-22.2565 C98.6344,-24.4251 98.6344,-24.4251 98.6344,-24.4251 C97.0079,-22.2565 91.0443,-20.9011 85.6229,-20.9011 Z M85.6229,-16.5640 C79.1171,-16.5640 73.9667,-18.1904 72.3403,-20.3590 C72.3403,-17.9193 72.3403,-17.9193 72.3403,-17.9193 C72.3403,-15.4797 78.3039,-13.3111 85.6229,-13.3111 C92.6708,-13.3111 98.6344,-15.4797 98.6344,-17.9193 C98.6344,-20.0879 98.6344,-20.0879 98.6344,-20.0879 C97.0079,-17.9193 91.0443,-16.5640 85.6229,-16.5640 Z M85.6229,-12.2268 C79.1171,-12.2268 73.9667,-13.8532 72.3403,-16.0218 C72.3403,-13.5822 72.3403,-13.5822 72.3403,-13.5822 C72.3403,-11.1425 78.3039,-8.9739 85.6229,-8.9739 C92.6708,-8.9739 98.6344,-11.1425 98.6344,-13.5822 C98.6344,-16.0218 98.6344,-16.0218 98.6344,-16.0218 C97.0079,-13.5822 91.0443,-12.2268 85.6229,-12.2268 Z M85.6229,-7.8896 C79.1171,-7.8896 73.9667,-9.5161 72.3403,-11.6847 C72.3403,-9.5161 72.3403,-9.5161 72.3403,-9.5161 C72.3403,-6.8054 78.3039,-4.9078 85.6229,-4.9078 C92.6708,-4.9078 98.6344,-6.8054 98.6344,-9.5161 C98.6344,-11.6847 98.6344,-11.6847 98.6344,-11.6847 C97.0079,-9.2450 91.0443,-7.8896 85.6229,-7.8896 Z" style="stroke-width: 0.0000; stroke-linecap: round; stroke-linejoin: round; fill-rule: evenodd; fill: url(#grad14); "/>
      <path d="  M85.6229,-29.3044 C79.1171,-29.3044 73.9667,-30.9308 72.3403,-33.0994 C72.3403,-30.6598 72.3403,-30.6598 72.3403,-30.6598 C72.3403,-28.2201 78.3039,-26.0515 85.6229,-26.0515 C92.6708,-26.0515 98.6344,-28.2201 98.6344,-30.6598 C98.6344,-33.0994 98.6344,-33.0994 98.6344,-33.0994 C97.0079,-30.6598 91.0443,-29.3044 85.6229,-29.3044 Z M85.6229,-24.9672 C79.1171,-24.9672 73.9667,-26.5937 72.3403,-28.7622 C72.3403,-26.5937 72.3403,-26.5937 72.3403,-26.5937 C72.3403,-23.8829 78.3039,-21.9854 85.6229,-21.9854 C92.6708,-21.9854 98.6344,-23.8829 98.6344,-26.5937 C98.6344,-28.7622 98.6344,-28.7622 98.6344,-28.7622 C97.0079,-26.3226 91.0443,-24.9672 85.6229,-24.9672 Z M85.6229,-20.9011 C79.1171,-20.9011 73.9667,-22.2565 72.3403,-24.4251 C72.3403,-22.2565 72.3403,-22.2565 72.3403,-22.2565 C72.3403,-19.8168 78.3039,-17.6483 85.6229,-17.6483 C92.6708,-17.6483 98.6344,-19.8168 98.6344,-22.2565 C98.6344,-24.4251 98.6344,-24.4251 98.6344,-24.4251 C97.0079,-22.2565 91.0443,-20.9011 85.6229,-20.9011 Z M85.6229,-16.5640 C79.1171,-16.5640 73.9667,-18.1904 72.3403,-20.3590 C72.3403,-17.9193 72.3403,-17.9193 72.3403,-17.9193 C72.3403,-15.4797 78.3039,-13.3111 85.6229,-13.3111 C92.6708,-13.3111 98.6344,-15.4797 98.6344,-17.9193 C98.6344,-20.0879 98.6344,-20.0879 98.6344,-20.0879 C97.0079,-17.9193 91.0443,-16.5640 85.6229,-16.5640 Z M85.6229,-12.2268 C79.1171,-12.2268 73.9667,-13.8532 72.3403,-16.0218 C72.3403,-13.5822 72.3403,-13.5822 72.3403,-13.5822 C72.3403,-11.1425 78.3039,-8.9739 85.6229,-8.9739 C92.6708,-8.9739 98.6344,-11.1425 98.6344,-13.5822 C98.6344,-16.0218 98.6344,-16.0218 98.6344,-16.0218 C97.0079,-13.5822 91.0443,-12.2268 85.6229,-12.2268 Z M85.6229,-7.8896 C79.1171,-7.8896 73.9667,-9.5161 72.3403,-11.6847 C72.3403,-9.5161 72.3403,-9.5161 72.3403,-9.5161 C72.3403,-6.8054 78.3039,-4.9078 85.6229,-4.9078 C92.6708,-4.9078 98.6344,-6.8054 98.6344,-9.5161 C98.6344,-11.6847 98.6344,-11.6847 98.6344,-11.6847 C97.0079,-9.2450 91.0443,-7.8896 85.6229,-7.8896 Z" style="stroke-width: 0.0000; stroke: #c0c0c0; stroke-dasharray: none; stroke-linecap: round; stroke-linejoin: round; fill: none; "/>
    </g>
    <path xmlns="http://www.w3.org/2000/svg" d="  M55.5338,-7.6186 C55.5338,-10.0582 49.5702,-12.2268 42.5223,-12.2268 C35.2034,-12.2268 29.2398,-10.0582 29.2398,-7.6186 C29.2398,17.8623 29.2398,17.8623 29.2398,17.8623 C29.2398,20.5730 35.2034,22.4705 42.5223,22.4705 C49.5702,22.4705 55.5338,20.5730 55.5338,17.8623 C55.5338,-7.6186 55.5338,-7.6186 55.5338,-7.6186 Z" style="fill-rule: evenodd; fill: #ffffff; "/>
    <g xmlns="http://www.w3.org/2000/svg" id="Layer1028">
      <path d="  M55.5338,-7.6186 C55.5338,-5.1789 49.5702,-3.0103 42.5223,-3.0103 C35.2034,-3.0103 29.2398,-5.1789 29.2398,-7.6186 C29.2398,-10.0582 35.2034,-12.2268 42.5223,-12.2268 C49.5702,-12.2268 55.5338,-10.0582 55.5338,-7.6186 Z" style="stroke-width: 0.0240; stroke-linecap: round; stroke-linejoin: round; fill-rule: evenodd; fill: #b3b3b3; "/>
      <path d="  M55.5338,-7.6186 C55.5338,-5.1789 49.5702,-3.0103 42.5223,-3.0103 C35.2034,-3.0103 29.2398,-5.1789 29.2398,-7.6186 C29.2398,-10.0582 35.2034,-12.2268 42.5223,-12.2268 C49.5702,-12.2268 55.5338,-10.0582 55.5338,-7.6186 Z" style="stroke-width: 0.0240; stroke: #ffffff; stroke-dasharray: none; stroke-linecap: round; stroke-linejoin: round; fill: none; "/>
    </g>
    <g xmlns="http://www.w3.org/2000/svg" id="Layer1029">
      <defs>
        <linearGradient id="grad15">
          <stop offset="0%" stop-color="#cdcdcd" stop-opacity="1.0000"/>
          <stop offset="100%" stop-color="#1a1a1a" stop-opacity="1.0000"/>
        </linearGradient>
      </defs>
      <path d="  M42.5223,-1.9260 C36.0166,-1.9260 30.8662,-3.5525 29.2398,-5.7211 C29.2398,-3.2814 29.2398,-3.2814 29.2398,-3.2814 C29.2398,-0.8418 35.2034,1.3268 42.5223,1.3268 C49.5702,1.3268 55.5338,-0.8418 55.5338,-3.2814 C55.5338,-5.7211 55.5338,-5.7211 55.5338,-5.7211 C53.9074,-3.2814 47.9438,-1.9260 42.5223,-1.9260 Z M42.5223,2.4111 C36.0166,2.4111 30.8662,0.7847 29.2398,-1.3839 C29.2398,0.7847 29.2398,0.7847 29.2398,0.7847 C29.2398,3.4954 35.2034,5.3929 42.5223,5.3929 C49.5702,5.3929 55.5338,3.4954 55.5338,0.7847 C55.5338,-1.3839 55.5338,-1.3839 55.5338,-1.3839 C53.9074,1.0558 47.9438,2.4111 42.5223,2.4111 Z M42.5223,6.4772 C36.0166,6.4772 30.8662,5.1218 29.2398,2.9533 C29.2398,5.1218 29.2398,5.1218 29.2398,5.1218 C29.2398,7.5615 35.2034,9.7301 42.5223,9.7301 C49.5702,9.7301 55.5338,7.5615 55.5338,5.1218 C55.5338,2.9533 55.5338,2.9533 55.5338,2.9533 C53.9074,5.1218 47.9438,6.4772 42.5223,6.4772 Z M42.5223,10.8144 C36.0166,10.8144 30.8662,9.1879 29.2398,7.0193 C29.2398,9.4590 29.2398,9.4590 29.2398,9.4590 C29.2398,11.8987 35.2034,14.0672 42.5223,14.0672 C49.5702,14.0672 55.5338,11.8987 55.5338,9.4590 C55.5338,7.2904 55.5338,7.2904 55.5338,7.2904 C53.9074,9.4590 47.9438,10.8144 42.5223,10.8144 Z M42.5223,15.1515 C36.0166,15.1515 30.8662,13.5251 29.2398,11.3565 C29.2398,13.7962 29.2398,13.7962 29.2398,13.7962 C29.2398,16.2358 35.2034,18.4044 42.5223,18.4044 C49.5702,18.4044 55.5338,16.2358 55.5338,13.7962 C55.5338,11.3565 55.5338,11.3565 55.5338,11.3565 C53.9074,13.7962 47.9438,15.1515 42.5223,15.1515 Z M42.5223,19.4887 C36.0166,19.4887 30.8662,17.8623 29.2398,15.6937 C29.2398,17.8623 29.2398,17.8623 29.2398,17.8623 C29.2398,20.5730 35.2034,22.4705 42.5223,22.4705 C49.5702,22.4705 55.5338,20.5730 55.5338,17.8623 C55.5338,15.6937 55.5338,15.6937 55.5338,15.6937 C53.9074,18.1333 47.9438,19.4887 42.5223,19.4887 Z" style="stroke-width: 0.0000; stroke-linecap: round; stroke-linejoin: round; fill-rule: evenodd; fill: url(#grad15); "/>
      <path d="  M42.5223,-1.9260 C36.0166,-1.9260 30.8662,-3.5525 29.2398,-5.7211 C29.2398,-3.2814 29.2398,-3.2814 29.2398,-3.2814 C29.2398,-0.8418 35.2034,1.3268 42.5223,1.3268 C49.5702,1.3268 55.5338,-0.8418 55.5338,-3.2814 C55.5338,-5.7211 55.5338,-5.7211 55.5338,-5.7211 C53.9074,-3.2814 47.9438,-1.9260 42.5223,-1.9260 Z M42.5223,2.4111 C36.0166,2.4111 30.8662,0.7847 29.2398,-1.3839 C29.2398,0.7847 29.2398,0.7847 29.2398,0.7847 C29.2398,3.4954 35.2034,5.3929 42.5223,5.3929 C49.5702,5.3929 55.5338,3.4954 55.5338,0.7847 C55.5338,-1.3839 55.5338,-1.3839 55.5338,-1.3839 C53.9074,1.0558 47.9438,2.4111 42.5223,2.4111 Z M42.5223,6.4772 C36.0166,6.4772 30.8662,5.1218 29.2398,2.9533 C29.2398,5.1218 29.2398,5.1218 29.2398,5.1218 C29.2398,7.5615 35.2034,9.7301 42.5223,9.7301 C49.5702,9.7301 55.5338,7.5615 55.5338,5.1218 C55.5338,2.9533 55.5338,2.9533 55.5338,2.9533 C53.9074,5.1218 47.9438,6.4772 42.5223,6.4772 Z M42.5223,10.8144 C36.0166,10.8144 30.8662,9.1879 29.2398,7.0193 C29.2398,9.4590 29.2398,9.4590 29.2398,9.4590 C29.2398,11.8987 35.2034,14.0672 42.5223,14.0672 C49.5702,14.0672 55.5338,11.8987 55.5338,9.4590 C55.5338,7.2904 55.5338,7.2904 55.5338,7.2904 C53.9074,9.4590 47.9438,10.8144 42.5223,10.8144 Z M42.5223,15.1515 C36.0166,15.1515 30.8662,13.5251 29.2398,11.3565 C29.2398,13.7962 29.2398,13.7962 29.2398,13.7962 C29.2398,16.2358 35.2034,18.4044 42.5223,18.4044 C49.5702,18.4044 55.5338,16.2358 55.5338,13.7962 C55.5338,11.3565 55.5338,11.3565 55.5338,11.3565 C53.9074,13.7962 47.9438,15.1515 42.5223,15.1515 Z M42.5223,19.4887 C36.0166,19.4887 30.8662,17.8623 29.2398,15.6937 C29.2398,17.8623 29.2398,17.8623 29.2398,17.8623 C29.2398,20.5730 35.2034,22.4705 42.5223,22.4705 C49.5702,22.4705 55.5338,20.5730 55.5338,17.8623 C55.5338,15.6937 55.5338,15.6937 55.5338,15.6937 C53.9074,18.1333 47.9438,19.4887 42.5223,19.4887 Z" style="stroke-width: 0.0000; stroke: #c0c0c0; stroke-dasharray: none; stroke-linecap: round; stroke-linejoin: round; fill: none; "/>
    </g>
    <path xmlns="http://www.w3.org/2000/svg" d="  M83.4543,-16.0218 C83.4543,-18.4615 77.4907,-20.6301 70.4428,-20.6301 C63.1238,-20.6301 57.1602,-18.4615 57.1602,-16.0218 C57.1602,9.4590 57.1602,9.4590 57.1602,9.4590 C57.1602,12.1697 63.1238,14.0672 70.4428,14.0672 C77.4907,14.0672 83.4543,12.1697 83.4543,9.4590 C83.4543,-16.0218 83.4543,-16.0218 83.4543,-16.0218 Z" style="fill-rule: evenodd; fill: #ffffff; "/>
    <g xmlns="http://www.w3.org/2000/svg" id="Layer1030">
      <path d="  M83.4543,-16.0218 C83.4543,-13.5822 77.4907,-11.4136 70.4428,-11.4136 C63.1238,-11.4136 57.1602,-13.5822 57.1602,-16.0218 C57.1602,-18.4615 63.1238,-20.6301 70.4428,-20.6301 C77.4907,-20.6301 83.4543,-18.4615 83.4543,-16.0218 Z" style="stroke-width: 0.0240; stroke-linecap: round; stroke-linejoin: round; fill-rule: evenodd; fill: #b3b3b3; "/>
      <path d="  M83.4543,-16.0218 C83.4543,-13.5822 77.4907,-11.4136 70.4428,-11.4136 C63.1238,-11.4136 57.1602,-13.5822 57.1602,-16.0218 C57.1602,-18.4615 63.1238,-20.6301 70.4428,-20.6301 C77.4907,-20.6301 83.4543,-18.4615 83.4543,-16.0218 Z" style="stroke-width: 0.0240; stroke: #ffffff; stroke-dasharray: none; stroke-linecap: round; stroke-linejoin: round; fill: none; "/>
    </g>
    <g xmlns="http://www.w3.org/2000/svg" id="Layer1031">
      <defs>
        <linearGradient id="grad16">
          <stop offset="0%" stop-color="#cdcdcd" stop-opacity="1.0000"/>
          <stop offset="100%" stop-color="#1a1a1a" stop-opacity="1.0000"/>
        </linearGradient>
      </defs>
      <path d="  M70.4428,-10.3293 C63.9371,-10.3293 58.7867,-11.9557 57.1602,-14.1243 C57.1602,-11.6847 57.1602,-11.6847 57.1602,-11.6847 C57.1602,-9.2450 63.1238,-7.0764 70.4428,-7.0764 C77.4907,-7.0764 83.4543,-9.2450 83.4543,-11.6847 C83.4543,-14.1243 83.4543,-14.1243 83.4543,-14.1243 C81.8279,-11.6847 75.8643,-10.3293 70.4428,-10.3293 Z M70.4428,-5.9921 C63.9371,-5.9921 58.7867,-7.6186 57.1602,-9.7872 C57.1602,-7.6186 57.1602,-7.6186 57.1602,-7.6186 C57.1602,-4.9078 63.1238,-3.0103 70.4428,-3.0103 C77.4907,-3.0103 83.4543,-4.9078 83.4543,-7.6186 C83.4543,-9.7872 83.4543,-9.7872 83.4543,-9.7872 C81.8279,-7.3475 75.8643,-5.9921 70.4428,-5.9921 Z M70.4428,-1.9260 C63.9371,-1.9260 58.7867,-3.2814 57.1602,-5.4500 C57.1602,-3.2814 57.1602,-3.2814 57.1602,-3.2814 C57.1602,-0.8418 63.1238,1.3268 70.4428,1.3268 C77.4907,1.3268 83.4543,-0.8418 83.4543,-3.2814 C83.4543,-5.4500 83.4543,-5.4500 83.4543,-5.4500 C81.8279,-3.2814 75.8643,-1.9260 70.4428,-1.9260 Z M70.4428,2.4111 C63.9371,2.4111 58.7867,0.7847 57.1602,-1.3839 C57.1602,1.0558 57.1602,1.0558 57.1602,1.0558 C57.1602,3.4954 63.1238,5.6640 70.4428,5.6640 C77.4907,5.6640 83.4543,3.4954 83.4543,1.0558 C83.4543,-1.1128 83.4543,-1.1128 83.4543,-1.1128 C81.8279,1.0558 75.8643,2.4111 70.4428,2.4111 Z M70.4428,6.7483 C63.9371,6.7483 58.7867,5.1218 57.1602,2.9533 C57.1602,5.3929 57.1602,5.3929 57.1602,5.3929 C57.1602,7.8326 63.1238,10.0011 70.4428,10.0011 C77.4907,10.0011 83.4543,7.8326 83.4543,5.3929 C83.4543,2.9533 83.4543,2.9533 83.4543,2.9533 C81.8279,5.3929 75.8643,6.7483 70.4428,6.7483 Z M70.4428,11.0854 C63.9371,11.0854 58.7867,9.4590 57.1602,7.2904 C57.1602,9.4590 57.1602,9.4590 57.1602,9.4590 C57.1602,12.1697 63.1238,14.0672 70.4428,14.0672 C77.4907,14.0672 83.4543,12.1697 83.4543,9.4590 C83.4543,7.2904 83.4543,7.2904 83.4543,7.2904 C81.8279,9.7301 75.8643,11.0854 70.4428,11.0854 Z" style="stroke-width: 0.0000; stroke-linecap: round; stroke-linejoin: round; fill-rule: evenodd; fill: url(#grad16); "/>
      <path d="  M70.4428,-10.3293 C63.9371,-10.3293 58.7867,-11.9557 57.1602,-14.1243 C57.1602,-11.6847 57.1602,-11.6847 57.1602,-11.6847 C57.1602,-9.2450 63.1238,-7.0764 70.4428,-7.0764 C77.4907,-7.0764 83.4543,-9.2450 83.4543,-11.6847 C83.4543,-14.1243 83.4543,-14.1243 83.4543,-14.1243 C81.8279,-11.6847 75.8643,-10.3293 70.4428,-10.3293 Z M70.4428,-5.9921 C63.9371,-5.9921 58.7867,-7.6186 57.1602,-9.7872 C57.1602,-7.6186 57.1602,-7.6186 57.1602,-7.6186 C57.1602,-4.9078 63.1238,-3.0103 70.4428,-3.0103 C77.4907,-3.0103 83.4543,-4.9078 83.4543,-7.6186 C83.4543,-9.7872 83.4543,-9.7872 83.4543,-9.7872 C81.8279,-7.3475 75.8643,-5.9921 70.4428,-5.9921 Z M70.4428,-1.9260 C63.9371,-1.9260 58.7867,-3.2814 57.1602,-5.4500 C57.1602,-3.2814 57.1602,-3.2814 57.1602,-3.2814 C57.1602,-0.8418 63.1238,1.3268 70.4428,1.3268 C77.4907,1.3268 83.4543,-0.8418 83.4543,-3.2814 C83.4543,-5.4500 83.4543,-5.4500 83.4543,-5.4500 C81.8279,-3.2814 75.8643,-1.9260 70.4428,-1.9260 Z M70.4428,2.4111 C63.9371,2.4111 58.7867,0.7847 57.1602,-1.3839 C57.1602,1.0558 57.1602,1.0558 57.1602,1.0558 C57.1602,3.4954 63.1238,5.6640 70.4428,5.6640 C77.4907,5.6640 83.4543,3.4954 83.4543,1.0558 C83.4543,-1.1128 83.4543,-1.1128 83.4543,-1.1128 C81.8279,1.0558 75.8643,2.4111 70.4428,2.4111 Z M70.4428,6.7483 C63.9371,6.7483 58.7867,5.1218 57.1602,2.9533 C57.1602,5.3929 57.1602,5.3929 57.1602,5.3929 C57.1602,7.8326 63.1238,10.0011 70.4428,10.0011 C77.4907,10.0011 83.4543,7.8326 83.4543,5.3929 C83.4543,2.9533 83.4543,2.9533 83.4543,2.9533 C81.8279,5.3929 75.8643,6.7483 70.4428,6.7483 Z M70.4428,11.0854 C63.9371,11.0854 58.7867,9.4590 57.1602,7.2904 C57.1602,9.4590 57.1602,9.4590 57.1602,9.4590 C57.1602,12.1697 63.1238,14.0672 70.4428,14.0672 C77.4907,14.0672 83.4543,12.1697 83.4543,9.4590 C83.4543,7.2904 83.4543,7.2904 83.4543,7.2904 C81.8279,9.7301 75.8643,11.0854 70.4428,11.0854 Z" style="stroke-width: 0.0000; stroke: #c0c0c0; stroke-dasharray: none; stroke-linecap: round; stroke-linejoin: round; fill: none; "/>
    </g>
    <text xmlns="http://www.w3.org/2000/svg" x="-15.9397" y="28.7911">
      <tspan font-family="Arial" font-size="4.5000" fill="#000000" fill-opacity="1.0000" stroke-opacity="1.0000">
RAID Group/Aggregate Storage</tspan>
    </text>
    <!--converted by libvisio2svg-->
  </g>
</svg>
