<svg xmlns="http://www.w3.org/2000/svg" xmlns:xlink="http://www.w3.org/1999/xlink" version="1.1" width="64.8000000000" height="0.0072000000">
  <title><![CDATA[Satellite Dish]]></title>
  <g transform=" scale(1.000000) ">
    <path xmlns="http://www.w3.org/2000/svg" d="  M57.2427,-59.5698 C56.9955,-60.5586 56.7483,-61.5475 56.0067,-62.5363 C51.3097,-69.4581 33.7580,-65.5028 17.4423,-53.8840 C1.1266,-42.5125 -8.2673,-27.6800 -3.3231,-20.7582 C-2.8287,-20.0166 -1.8399,-19.2750 -0.8511,-18.5334 C6.0708,-15.0725 20.6560,-19.0278 34.9940,-28.9161 C49.3321,-39.0516 58.4787,-51.9064 57.2427,-59.5698 Z" style="fill-rule: evenodd; fill: #b3b3b3; "/>
    <path xmlns="http://www.w3.org/2000/svg" d="  M64.9061,-2.4649 L-0.1094,-2.4649 L2.3626,-4.4425 L62.4341,-4.4425 L64.9061,-2.4649 Z" style="fill-rule: evenodd; fill: #b3b3b3; "/>
    <path xmlns="http://www.w3.org/2000/svg" d="  M64.9061,0.0072 L-0.1094,0.0072 L-0.1094,-2.4649 L64.9061,-2.4649 L64.9061,0.0072 Z" style="fill-rule: evenodd; fill: #7f7f7f; "/>
    <path xmlns="http://www.w3.org/2000/svg" d="  M17.4423,-54.1312 C1.1266,-42.7597 -8.2673,-27.6800 -3.5703,-20.7582 C-2.3343,-19.0278 -0.3566,-18.0389 2.3626,-17.5445 C10.2733,-16.0613 23.1281,-20.5110 34.9940,-28.9161 C51.5569,-40.5348 61.1980,-55.6145 56.2539,-62.5363 C51.3097,-69.4581 34.0052,-65.7500 17.4423,-54.1312 Z M2.3626,-17.7917 C-0.1094,-18.2862 -2.0871,-19.2750 -3.3231,-21.0054 C-8.0201,-27.6800 1.3738,-42.5125 17.6895,-53.8840 C34.0052,-65.2556 51.3097,-69.2109 56.0067,-62.2891 C56.7483,-61.3003 57.2427,-59.8170 57.2427,-58.3338 C57.2427,-50.6703 48.0960,-38.5572 34.7468,-29.1633 C22.8809,-20.7582 10.2733,-16.3085 2.3626,-17.7917 Z" style="fill-rule: evenodd; fill: #ffffff; "/>
    <path xmlns="http://www.w3.org/2000/svg" d="  M34.2524,-34.1074 C34.7468,-33.6130 34.2524,-32.3770 33.0164,-31.6354 C31.7803,-30.6465 30.5443,-30.6465 30.0499,-31.1409 C29.5555,-31.8826 30.2971,-32.8714 31.5331,-33.8602 C32.5220,-34.6018 34.0052,-34.8491 34.2524,-34.1074 Z" style="fill-rule: evenodd; fill: #ffffff; "/>
    <path xmlns="http://www.w3.org/2000/svg" d="  M43.8935,-24.9608 C46.8600,-27.9272 48.5904,-31.3881 49.0849,-34.8491 C56.5011,-43.5013 58.9732,-52.4008 57.2427,-59.3226 C57.2427,-59.3226 57.2427,-59.5698 57.2427,-59.5698 C58.4787,-51.9064 49.3321,-39.0516 34.9940,-28.9161 C20.6560,-19.0278 6.0708,-15.0725 -0.8511,-18.5334 C-0.6038,-18.5334 -0.6038,-18.5334 -0.3566,-18.2862 C5.3291,-14.3308 14.4758,-13.8364 25.1057,-18.0389 C28.5666,-17.5445 32.5220,-18.0389 36.4773,-19.5222 C36.4773,-19.5222 36.7245,-19.5222 36.7245,-19.5222 C26.8362,-3.4537 26.8362,-3.4537 26.8362,-3.4537 C28.3194,-3.4537 28.3194,-3.4537 28.3194,-3.4537 C33.5108,-11.6116 33.5108,-11.6116 33.5108,-11.6116 C38.4549,-3.7009 38.4549,-3.7009 38.4549,-3.7009 C38.4549,-3.4537 38.4549,-3.4537 38.4549,-3.4537 C38.7021,-3.4537 38.7021,-3.4537 38.7021,-3.4537 C42.6575,-3.4537 42.6575,-3.4537 42.6575,-3.4537 C42.9047,-3.4537 42.9047,-3.4537 42.9047,-3.4537 C42.9047,-3.7009 42.9047,-3.7009 42.9047,-3.7009 C47.8488,-11.8588 47.8488,-11.8588 47.8488,-11.8588 C53.0402,-3.4537 53.0402,-3.4537 53.0402,-3.4537 C54.7706,-3.4537 54.7706,-3.4537 54.7706,-3.4537 C43.1519,-21.7471 43.1519,-21.7471 43.1519,-21.7471 C43.8935,-22.7359 44.1407,-23.9719 43.8935,-24.9608 Z M42.9047,-19.7694 C46.6128,-13.8364 46.6128,-13.8364 46.6128,-13.8364 C42.9047,-13.8364 42.9047,-13.8364 42.9047,-13.8364 C42.9047,-19.7694 42.9047,-19.7694 42.9047,-19.7694 Z M38.4549,-19.0278 C38.4549,-13.8364 38.4549,-13.8364 38.4549,-13.8364 C34.7468,-13.8364 34.7468,-13.8364 34.7468,-13.8364 C38.2077,-19.0278 38.2077,-19.0278 38.2077,-19.0278 C38.2077,-19.0278 38.4549,-19.0278 38.4549,-19.0278 Z M34.7468,-12.3532 C38.4549,-12.3532 38.4549,-12.3532 38.4549,-12.3532 C38.4549,-6.4202 38.4549,-6.4202 38.4549,-6.4202 C34.7468,-12.3532 34.7468,-12.3532 34.7468,-12.3532 Z M42.9047,-12.3532 C46.6128,-12.3532 46.6128,-12.3532 46.6128,-12.3532 C42.9047,-6.1730 42.9047,-6.1730 42.9047,-6.1730 C42.9047,-12.3532 42.9047,-12.3532 42.9047,-12.3532 Z" style="fill-rule: evenodd; fill: #7f7f7f; "/>
    <path xmlns="http://www.w3.org/2000/svg" d="  M12.2509,-66.2444 C12.4981,-65.7500 11.5093,-64.7612 10.2733,-64.0195 C8.7900,-63.0307 7.5540,-62.7835 7.3068,-63.0307 C7.0596,-63.5251 8.0484,-64.5139 9.2845,-65.5028 C10.5205,-66.2444 12.0037,-66.7388 12.2509,-66.2444 Z" style="fill-rule: evenodd; fill: #b3b3b3; "/>
    <path xmlns="http://www.w3.org/2000/svg" d="  M17.4423,-54.1312 C1.1266,-42.7597 -8.2673,-27.6800 -3.5703,-20.7582 C-2.3343,-19.0278 -0.3566,-18.0389 2.3626,-17.5445 C10.2733,-16.0613 23.1281,-20.5110 34.9940,-28.9161 C51.5569,-40.5348 61.1980,-55.6145 56.2539,-62.5363 C51.3097,-69.4581 34.0052,-65.7500 17.4423,-54.1312 Z M2.3626,-17.7917 C-0.1094,-18.2862 -2.0871,-19.2750 -3.3231,-21.0054 C-8.0201,-27.6800 1.3738,-42.5125 17.6895,-53.8840 C34.0052,-65.2556 51.3097,-69.2109 56.0067,-62.2891 C56.7483,-61.3003 57.2427,-59.8170 57.2427,-58.3338 C57.2427,-50.6703 48.0960,-38.5572 34.7468,-29.1633 C22.8809,-20.7582 10.2733,-16.3085 2.3626,-17.7917 Z" style="fill-rule: evenodd; fill: #ffffff; "/>
    <path xmlns="http://www.w3.org/2000/svg" d="  M14.9702,-61.3003 C51.3097,-65.2556 51.3097,-65.2556 51.3097,-65.2556 C51.5569,-65.5028 51.5569,-65.5028 51.5569,-65.5028 C50.8153,-65.9972 50.8153,-65.9972 50.8153,-65.9972 C48.8376,-65.7500 48.8376,-65.7500 48.8376,-65.7500 C14.9702,-62.0419 14.9702,-62.0419 14.9702,-62.0419 C12.2509,-66.2444 12.2509,-66.2444 12.2509,-66.2444 C12.0037,-66.7388 10.5205,-66.2444 9.2845,-65.5028 C8.0484,-64.5139 7.0596,-63.5251 7.3068,-63.0307 C10.0261,-59.0754 10.0261,-59.0754 10.0261,-59.0754 C-2.5815,-21.2526 -2.5815,-21.2526 -2.5815,-21.2526 C-2.3343,-20.0166 -2.3343,-20.0166 -2.3343,-20.0166 C-1.5927,-19.5222 -1.5927,-19.5222 -1.5927,-19.5222 C11.5093,-58.8282 11.5093,-58.8282 11.5093,-58.8282 C12.2509,-50.4231 12.2509,-50.4231 12.2509,-50.4231 C12.9926,-50.6703 12.9926,-50.6703 12.9926,-50.6703 C12.2509,-59.3226 12.2509,-59.3226 12.2509,-59.3226 C12.4981,-59.3226 12.7454,-59.5698 12.9926,-59.5698 C13.2398,-59.8170 13.2398,-59.8170 13.4870,-59.8170 C42.4103,-34.6018 42.4103,-34.6018 42.4103,-34.6018 C42.9047,-35.0963 42.9047,-35.0963 42.9047,-35.0963 C13.9814,-60.3114 13.9814,-60.3114 13.9814,-60.3114 C14.4758,-60.8058 14.7230,-61.0530 14.9702,-61.3003 Z" style="fill-rule: evenodd; fill: #7f7f7f; "/>
    <text xmlns="http://www.w3.org/2000/svg" x="-15.0633" y="5.1812">
      <tspan font-family="Arial" font-size="4.5000" fill="#000000" fill-opacity="1.0000" stroke-opacity="1.0000">
Satellite Dish</tspan>
    </text>
    <!--converted by libvisio2svg-->
  </g>
</svg>
