<svg xmlns="http://www.w3.org/2000/svg" xmlns:xlink="http://www.w3.org/1999/xlink" version="1.1" width="72.0000000000" height="7.2000000000">
  <title><![CDATA[Satellite]]></title>
  <g transform=" scale(1.000000) ">
    <path xmlns="http://www.w3.org/2000/svg" d="  M38.0622,2.6119 L28.1409,-0.2227 L28.8496,-2.3487 L38.4165,0.4859 L38.0622,2.6119 Z" style="fill-rule: evenodd; fill: #b3b3b3; "/>
    <path xmlns="http://www.w3.org/2000/svg" d="  M26.7236,7.2182 L-9.7724,-2.7031 L-3.3945,-18.2936 L31.3299,-9.0810 L26.7236,7.2182 Z" style="fill-rule: evenodd; fill: #333333; "/>
    <path xmlns="http://www.w3.org/2000/svg" d="  M0.5031,-1.2857 L-8.0008,-3.4117 L-2.6858,-16.8763 L5.4638,-14.7503 L0.5031,-1.2857 Z" style="fill-rule: evenodd; fill: #333333; "/>
    <path xmlns="http://www.w3.org/2000/svg" d="  M0.5031,-1.2857 L-8.0008,-3.4117 L-2.6858,-16.8763 L5.4638,-14.7503 L0.5031,-1.2857 Z" style="stroke-width: 0.0591; stroke: #ffffff; stroke-dasharray: none; stroke-linecap: round; stroke-linejoin: round; fill: none; "/>
    <path xmlns="http://www.w3.org/2000/svg" d="  M9.0071,1.1946 L0.5031,-1.2857 L5.4638,-14.7503 L13.6134,-12.6243 L9.0071,1.1946 Z" style="fill-rule: evenodd; fill: #333333; "/>
    <path xmlns="http://www.w3.org/2000/svg" d="  M9.0071,1.1946 L0.5031,-1.2857 L5.4638,-14.7503 L13.6134,-12.6243 L9.0071,1.1946 Z" style="stroke-width: 0.0591; stroke: #ffffff; stroke-dasharray: none; stroke-linecap: round; stroke-linejoin: round; fill: none; "/>
    <path xmlns="http://www.w3.org/2000/svg" d="  M17.5110,3.3206 L9.0071,1.1946 L13.6134,-12.6243 L21.7630,-10.4983 L17.5110,3.3206 Z" style="fill-rule: evenodd; fill: #333333; "/>
    <path xmlns="http://www.w3.org/2000/svg" d="  M17.5110,3.3206 L9.0071,1.1946 L13.6134,-12.6243 L21.7630,-10.4983 L17.5110,3.3206 Z" style="stroke-width: 0.0591; stroke: #ffffff; stroke-dasharray: none; stroke-linecap: round; stroke-linejoin: round; fill: none; "/>
    <path xmlns="http://www.w3.org/2000/svg" d="  M26.0150,5.4465 L17.5110,3.3206 L21.7630,-10.4983 L29.9126,-8.3724 L26.0150,5.4465 Z" style="fill-rule: evenodd; fill: #333333; "/>
    <path xmlns="http://www.w3.org/2000/svg" d="  M26.0150,5.4465 L17.5110,3.3206 L21.7630,-10.4983 L29.9126,-8.3724 L26.0150,5.4465 Z" style="stroke-width: 0.0591; stroke: #ffffff; stroke-dasharray: none; stroke-linecap: round; stroke-linejoin: round; fill: none; "/>
    <path xmlns="http://www.w3.org/2000/svg" d="  M60.0307,8.6355 L50.1094,5.8009 L50.8181,3.6749 L60.3850,6.1552 L60.0307,8.6355 Z" style="fill-rule: evenodd; fill: #b3b3b3; "/>
    <path xmlns="http://www.w3.org/2000/svg" d="  M93.6921,25.2891 L57.1961,15.3678 L61.4480,-1.2857 L96.1724,8.2812 L93.6921,25.2891 Z" style="fill-rule: evenodd; fill: #333333; "/>
    <path xmlns="http://www.w3.org/2000/svg" d="  M67.4717,16.7851 L58.9677,14.3048 L62.1567,0.4859 L70.3063,2.6119 L67.4717,16.7851 Z" style="fill-rule: evenodd; fill: #333333; "/>
    <path xmlns="http://www.w3.org/2000/svg" d="  M67.4717,16.7851 L58.9677,14.3048 L62.1567,0.4859 L70.3063,2.6119 L67.4717,16.7851 Z" style="stroke-width: 0.0591; stroke: #ffffff; stroke-dasharray: none; stroke-linecap: round; stroke-linejoin: round; fill: none; "/>
    <path xmlns="http://www.w3.org/2000/svg" d="  M75.9756,18.9111 L67.4717,16.7851 L70.3063,2.6119 L78.4559,4.7379 L75.9756,18.9111 Z" style="fill-rule: evenodd; fill: #333333; "/>
    <path xmlns="http://www.w3.org/2000/svg" d="  M75.9756,18.9111 L67.4717,16.7851 L70.3063,2.6119 L78.4559,4.7379 L75.9756,18.9111 Z" style="stroke-width: 0.0591; stroke: #ffffff; stroke-dasharray: none; stroke-linecap: round; stroke-linejoin: round; fill: none; "/>
    <path xmlns="http://www.w3.org/2000/svg" d="  M84.4795,21.3914 L75.9756,18.9111 L78.4559,4.7379 L86.2512,6.8639 L84.4795,21.3914 Z" style="fill-rule: evenodd; fill: #333333; "/>
    <path xmlns="http://www.w3.org/2000/svg" d="  M84.4795,21.3914 L75.9756,18.9111 L78.4559,4.7379 L86.2512,6.8639 L84.4795,21.3914 Z" style="stroke-width: 0.0591; stroke: #ffffff; stroke-dasharray: none; stroke-linecap: round; stroke-linejoin: round; fill: none; "/>
    <path xmlns="http://www.w3.org/2000/svg" d="  M92.9835,23.5174 L84.4795,21.3914 L86.2512,6.8639 L94.4008,8.9899 L92.9835,23.5174 Z" style="fill-rule: evenodd; fill: #333333; "/>
    <path xmlns="http://www.w3.org/2000/svg" d="  M92.9835,23.5174 L84.4795,21.3914 L86.2512,6.8639 L94.4008,8.9899 L92.9835,23.5174 Z" style="stroke-width: 0.0591; stroke: #ffffff; stroke-dasharray: none; stroke-linecap: round; stroke-linejoin: round; fill: none; "/>
    <path xmlns="http://www.w3.org/2000/svg" d="  M45.8575,14.6591 C45.1488,16.7851 42.6685,18.2025 40.5425,17.4938 C38.0622,17.1395 36.6449,14.6591 37.3535,12.5332 C38.0622,10.0528 40.1882,8.6355 42.6685,9.3442 C44.7945,10.0528 46.2118,12.1788 45.8575,14.6591 Z" style="fill-rule: evenodd; fill: #333333; "/>
    <path xmlns="http://www.w3.org/2000/svg" d="  M50.4638,14.6591 C49.7551,16.0765 45.8575,16.4308 40.8969,15.3678 C36.2906,13.9505 32.7472,11.8245 33.4559,10.0528 C38.7709,-10.4983 38.7709,-10.4983 38.7709,-10.4983 C38.4165,-9.0810 41.9598,-6.6007 46.5661,-5.5377 C51.1724,-4.1204 55.4244,-4.4747 55.7787,-6.2464 C50.4638,14.6591 50.4638,14.6591 50.4638,14.6591 Z" style="fill-rule: evenodd; fill: #7f7f7f; "/>
    <path xmlns="http://www.w3.org/2000/svg" d="  M55.7787,-6.2464 C55.4244,-4.4747 51.1724,-4.1204 46.5661,-5.5377 C41.9598,-6.6007 38.4165,-9.0810 38.7709,-10.4983 C39.4795,-12.2700 43.3772,-12.6243 48.3378,-11.2070 C52.9441,-10.1440 56.4874,-7.6637 55.7787,-6.2464 Z" style="fill-rule: evenodd; fill: #b3b3b3; "/>
    <path xmlns="http://www.w3.org/2000/svg" d="  M55.7787,-6.2464 C55.4244,-4.4747 51.1724,-4.1204 46.5661,-5.5377 C41.9598,-6.6007 38.4165,-9.0810 38.7709,-10.4983 C39.4795,-12.2700 43.3772,-12.6243 48.3378,-11.2070 C52.9441,-10.1440 56.4874,-7.6637 55.7787,-6.2464 Z" style="stroke-width: 0.0591; stroke: #ffffff; stroke-dasharray: none; stroke-linecap: round; stroke-linejoin: round; fill: none; "/>
    <text xmlns="http://www.w3.org/2000/svg" x="-21.8120" y="26.8280">
      <tspan font-family="Arial" font-size="4.5000" fill="#000000" fill-opacity="1.0000" stroke-opacity="1.0000">
Satellite</tspan>
    </text>
    <!--converted by libvisio2svg-->
  </g>
</svg>
