<svg xmlns="http://www.w3.org/2000/svg" xmlns:xlink="http://www.w3.org/1999/xlink" version="1.1" width="48.0960000000" height="7.2000000000">
  <title><![CDATA[Small Tape Library]]></title>
  <g transform=" scale(1.000000) ">
    <path xmlns="http://www.w3.org/2000/svg" d="  M48.1130,7.2000 L-0.0170,7.2000 L-0.0170,-56.2843 L48.1130,-56.2843 L48.1130,7.2000 Z" style="fill-rule: evenodd; fill: #ffffff; "/>
    <path xmlns="http://www.w3.org/2000/svg" d="  M48.1130,7.2000 L-0.0170,7.2000 L-0.0170,-56.2843 L48.1130,-56.2843 L48.1130,7.2000 Z" style="stroke-width: 0.0591; stroke: #7f7f7f; stroke-dasharray: none; stroke-linecap: round; stroke-linejoin: round; fill: none; "/>
    <path xmlns="http://www.w3.org/2000/svg" d="  M30.3964,-27.6425 C33.9397,-30.0047 36.0067,-34.1386 36.0067,-38.5677 C36.0067,-45.9496 30.1011,-51.8551 23.0145,-51.8551 C15.6326,-51.8551 9.7271,-45.9496 9.7271,-38.5677 C9.7271,-31.4811 15.6326,-25.5756 23.0145,-25.5756 C38.3689,-25.5756 38.3689,-25.5756 38.3689,-25.5756 C38.3689,-27.6425 38.3689,-27.6425 38.3689,-27.6425 C30.3964,-27.6425 30.3964,-27.6425 30.3964,-27.6425 Z" style="fill-rule: evenodd; fill: #7f7f7f; "/>
    <path xmlns="http://www.w3.org/2000/svg" d="  M26.8531,-38.5677 C26.8531,-36.5008 25.0815,-34.4339 23.0145,-34.4339 C20.6523,-34.4339 18.8807,-36.5008 18.8807,-38.5677 C18.8807,-40.9299 20.6523,-42.7016 23.0145,-42.7016 C25.0815,-42.7016 26.8531,-40.9299 26.8531,-38.5677 Z" style="fill-rule: evenodd; fill: #ffffff; "/>
    <path xmlns="http://www.w3.org/2000/svg" d="  M30.3964,0.4087 C33.9397,-1.9535 36.0067,-5.7921 36.0067,-10.5165 C36.0067,-17.6031 30.1011,-23.5087 23.0145,-23.5087 C15.6326,-23.5087 9.7271,-17.6031 9.7271,-10.5165 C9.7271,-3.1346 15.6326,2.7709 23.0145,2.7709 C38.3689,2.7709 38.3689,2.7709 38.3689,2.7709 C38.3689,0.4087 38.3689,0.4087 38.3689,0.4087 C30.3964,0.4087 30.3964,0.4087 30.3964,0.4087 Z" style="fill-rule: evenodd; fill: #7f7f7f; "/>
    <path xmlns="http://www.w3.org/2000/svg" d="  M26.8531,-10.5165 C26.8531,-8.1543 25.0815,-6.3827 23.0145,-6.3827 C20.6523,-6.3827 18.8807,-8.1543 18.8807,-10.5165 C18.8807,-12.5835 20.6523,-14.3551 23.0145,-14.3551 C25.0815,-14.3551 26.8531,-12.5835 26.8531,-10.5165 Z" style="fill-rule: evenodd; fill: #ffffff; "/>
    <text xmlns="http://www.w3.org/2000/svg" x="-9.8768" y="14.4600">
      <tspan font-family="Arial" font-size="4.5000" fill="#000000" fill-opacity="1.0000" stroke-opacity="1.0000">
Small Tape Library</tspan>
    </text>
    <!--converted by libvisio2svg-->
  </g>
</svg>
