<svg xmlns="http://www.w3.org/2000/svg" xmlns:xlink="http://www.w3.org/1999/xlink" version="1.1" width="43.2000000000" height="0.0000000000">
  <title><![CDATA[SnapVault.]]></title>
  <g transform=" scale(1.000000) ">
    <path xmlns="http://www.w3.org/2000/svg" d="  M25.2909,-24.2126 L25.2909,-14.1732 L18.4996,-19.1929 L25.2909,-24.2126 Z" style="fill-rule: evenodd; fill: #e8c08d; "/>
    <path xmlns="http://www.w3.org/2000/svg" d="  M-10.1421,0.0000 L9.6413,-11.5157 L9.6413,-43.9961 L-10.1421,-32.7756 L-10.1421,0.0000 Z" style="fill-rule: evenodd; fill: #e6e6e6; "/>
    <path xmlns="http://www.w3.org/2000/svg" d="  M-10.1421,0.0000 L9.6413,-11.5157 L9.6413,-43.9961 L-10.1421,-32.7756 L-10.1421,0.0000 Z" style="stroke-width: 0.0591; stroke: #7f7f7f; stroke-dasharray: none; stroke-linecap: round; stroke-linejoin: round; fill: none; "/>
    <path xmlns="http://www.w3.org/2000/svg" d="  M-2.1697,0.0000 L17.6138,-11.5157 L17.6138,-43.9961 L-2.1697,-32.7756 L-2.1697,0.0000 Z" style="fill-rule: evenodd; fill: #e6e6e6; "/>
    <path xmlns="http://www.w3.org/2000/svg" d="  M-2.1697,0.0000 L17.6138,-11.5157 L17.6138,-43.9961 L-2.1697,-32.7756 L-2.1697,0.0000 Z" style="stroke-width: 0.0591; stroke: #7f7f7f; stroke-dasharray: none; stroke-linecap: round; stroke-linejoin: round; fill: none; "/>
    <path xmlns="http://www.w3.org/2000/svg" d="  M5.8028,0.0000 L25.2909,-11.5157 L25.2909,-43.9961 L5.8028,-32.7756 L5.8028,0.0000 Z" style="fill-rule: evenodd; fill: #e6e6e6; "/>
    <path xmlns="http://www.w3.org/2000/svg" d="  M5.8028,0.0000 L25.2909,-11.5157 L25.2909,-43.9961 L5.8028,-32.7756 L5.8028,0.0000 Z" style="stroke-width: 0.0591; stroke: #7f7f7f; stroke-dasharray: none; stroke-linecap: round; stroke-linejoin: round; fill: none; "/>
    <path xmlns="http://www.w3.org/2000/svg" d="  M28.8343,-21.8504 L28.8343,-26.8701 L25.2909,-24.2126 L18.4996,-19.1929 L25.2909,-14.1732 L28.8343,-11.8110 L28.8343,-16.8307 L33.5587,-16.8307 L33.5587,-21.8504 L28.8343,-21.8504 Z" style="fill-rule: evenodd; fill: #f07600; "/>
    <path xmlns="http://www.w3.org/2000/svg" d="  M33.5587,-32.7756 C33.5587,-21.8504 33.5587,-21.8504 33.5587,-21.8504 C38.2831,-21.8504 38.2831,-21.8504 38.2831,-21.8504 C39.4642,-21.8504 40.6453,-20.6693 40.6453,-19.4882 C40.6453,-18.0118 39.4642,-16.8307 38.2831,-16.8307 C33.5587,-16.8307 33.5587,-16.8307 33.5587,-16.8307 C33.5587,0.0000 33.5587,0.0000 33.5587,0.0000 C53.3421,-11.5157 53.3421,-11.5157 53.3421,-11.5157 C53.3421,-43.9961 53.3421,-43.9961 53.3421,-43.9961 C33.5587,-32.7756 33.5587,-32.7756 33.5587,-32.7756 Z" style="fill-rule: evenodd; fill: #e6e6e6; "/>
    <path xmlns="http://www.w3.org/2000/svg" d="  M40.6453,-19.4882 C40.6453,-20.6693 39.4642,-21.8504 38.2831,-21.8504 C33.5587,-21.8504 33.5587,-21.8504 33.5587,-21.8504 C33.5587,-16.8307 33.5587,-16.8307 33.5587,-16.8307 C38.2831,-16.8307 38.2831,-16.8307 38.2831,-16.8307 C39.4642,-16.8307 40.6453,-18.0118 40.6453,-19.4882 Z" style="fill-rule: evenodd; fill: #e8c08d; "/>
    <path xmlns="http://www.w3.org/2000/svg" d="  M33.5587,0.0000 L53.3421,-11.5157 L53.3421,-43.9961 L33.5587,-32.7756 L33.5587,0.0000 Z" style="stroke-width: 0.0591; stroke: #7f7f7f; stroke-dasharray: none; stroke-linecap: round; stroke-linejoin: round; fill: none; "/>
    <text xmlns="http://www.w3.org/2000/svg" x="-9.2000" y="7.4400">
      <tspan font-family="Arial" font-size="4.5000" fill="#000000" fill-opacity="1.0000" stroke-opacity="1.0000">
SnapVault</tspan>
    </text>
    <!--converted by libvisio2svg-->
  </g>
</svg>
