<svg xmlns="http://www.w3.org/2000/svg" xmlns:xlink="http://www.w3.org/1999/xlink" version="1.1" width="43.2000000000" height="7.2000000000">
  <title><![CDATA[SnapShot Copies (3)]]></title>
  <g transform=" scale(1.000000) ">
    <path xmlns="http://www.w3.org/2000/svg" d="  M3.8835,7.2000 L23.6669,-4.0205 L23.6669,-36.7961 L3.8835,-25.2803 L3.8835,7.2000 Z" style="fill-rule: evenodd; fill: #e6e6e6; "/>
    <path xmlns="http://www.w3.org/2000/svg" d="  M3.8835,7.2000 L23.6669,-4.0205 L23.6669,-36.7961 L3.8835,-25.2803 L3.8835,7.2000 Z" style="stroke-width: 0.0591; stroke: #7f7f7f; stroke-dasharray: none; stroke-linecap: round; stroke-linejoin: round; fill: none; "/>
    <path xmlns="http://www.w3.org/2000/svg" d="  M11.8559,7.2000 L31.6394,-4.0205 L31.6394,-36.7961 L11.8559,-25.2803 L11.8559,7.2000 Z" style="fill-rule: evenodd; fill: #e6e6e6; "/>
    <path xmlns="http://www.w3.org/2000/svg" d="  M11.8559,7.2000 L31.6394,-4.0205 L31.6394,-36.7961 L11.8559,-25.2803 L11.8559,7.2000 Z" style="stroke-width: 0.0591; stroke: #7f7f7f; stroke-dasharray: none; stroke-linecap: round; stroke-linejoin: round; fill: none; "/>
    <path xmlns="http://www.w3.org/2000/svg" d="  M19.8283,7.2000 L39.3165,-4.0205 L39.3165,-36.7961 L19.8283,-25.2803 L19.8283,7.2000 Z" style="fill-rule: evenodd; fill: #e6e6e6; "/>
    <path xmlns="http://www.w3.org/2000/svg" d="  M19.8283,7.2000 L39.3165,-4.0205 L39.3165,-36.7961 L19.8283,-25.2803 L19.8283,7.2000 Z" style="stroke-width: 0.0591; stroke: #7f7f7f; stroke-dasharray: none; stroke-linecap: round; stroke-linejoin: round; fill: none; "/>
    <text xmlns="http://www.w3.org/2000/svg" x="-9.0200" y="16.0200">
      <tspan font-family="Arial" font-size="4.5000" fill="#000000" fill-opacity="1.0000" stroke-opacity="1.0000">
SnapShot Copies (3)</tspan>
    </text>
    <!--converted by libvisio2svg-->
  </g>
</svg>
