<svg xmlns="http://www.w3.org/2000/svg" xmlns:xlink="http://www.w3.org/1999/xlink" version="1.1" width="64.8000000000" height="7.2000000000">
  <title><![CDATA[SnapLock Data Flow]]></title>
  <g transform=" scale(1.000000) ">
    <path xmlns="http://www.w3.org/2000/svg" d="  M0.0460,11.0491 L38.0305,11.0491 L38.0305,23.6132 L65.2040,3.4522 L38.0305,-16.4166 L38.0305,-3.5603 L0.0460,-3.5603 L0.0460,11.0491 Z" style="fill-rule: evenodd; fill: #2061a2; "/>
    <path xmlns="http://www.w3.org/2000/svg" d="  M50.0102,1.4069 C50.0102,-2.6838 50.0102,-2.6838 50.0102,-2.6838 C50.0102,-3.8525 48.8415,-5.0213 47.6727,-5.0213 C46.2118,-5.0213 46.2118,-5.0213 46.2118,-5.0213 C45.0430,-5.0213 43.8743,-3.8525 43.8743,-2.6838 C43.8743,1.4069 43.8743,1.4069 43.8743,1.4069 C43.8743,1.4069 44.1665,1.4069 44.1665,1.4069 C44.4586,1.4069 44.7508,1.4069 44.7508,1.4069 C44.7508,-2.3916 44.7508,-2.3916 44.7508,-2.3916 C44.7508,-3.2681 45.6274,-4.1447 46.5040,-4.1447 C47.3805,-4.1447 47.3805,-4.1447 47.3805,-4.1447 C48.2571,-4.1447 49.1337,-3.2681 49.1337,-2.3916 C49.1337,1.4069 49.1337,1.4069 49.1337,1.4069 C49.1337,1.4069 49.4258,1.4069 49.7180,1.4069 C50.0102,1.4069 50.0102,1.4069 50.0102,1.4069 Z" style="fill-rule: evenodd; fill: #ffffff; "/>
    <path xmlns="http://www.w3.org/2000/svg" d="  M51.1790,4.6210 C42.7055,4.6210 42.7055,4.6210 42.7055,4.6210 C42.7055,4.6210 42.1211,4.3288 41.8289,4.0366 C41.8289,4.9131 41.8289,4.9131 41.8289,4.9131 C41.8289,5.4975 42.7055,5.7897 42.9977,5.7897 C42.9977,5.7897 50.8868,5.7897 50.8868,5.7897 C51.1790,5.7897 52.0555,5.4975 52.0555,4.9131 C52.0555,4.0366 52.0555,4.0366 52.0555,4.0366 C51.7634,4.3288 51.1790,4.6210 51.1790,4.6210 Z M51.1790,6.3741 C42.7055,6.3741 42.7055,6.3741 42.7055,6.3741 C42.7055,6.3741 42.1211,6.0819 41.8289,5.7897 C41.8289,6.6663 41.8289,6.6663 41.8289,6.6663 C41.8289,6.9585 41.8289,6.9585 41.8289,6.9585 C41.8289,7.2507 42.7055,7.5428 42.9977,7.5428 C42.9977,7.5428 50.8868,7.5428 50.8868,7.5428 C51.1790,7.5428 52.0555,7.2507 52.0555,6.9585 C52.0555,6.6663 52.0555,6.6663 52.0555,6.6663 C52.0555,5.7897 52.0555,5.7897 52.0555,5.7897 C51.7634,6.0819 51.1790,6.3741 51.1790,6.3741 Z M51.1790,2.8678 C42.7055,2.8678 42.7055,2.8678 42.7055,2.8678 C42.7055,2.8678 42.1211,2.5756 41.8289,1.9913 C41.8289,2.8678 41.8289,2.8678 41.8289,2.8678 C41.8289,3.1600 41.8289,3.1600 41.8289,3.1600 C41.8289,3.4522 42.7055,4.0366 42.9977,4.0366 C42.9977,4.0366 50.8868,4.0366 50.8868,4.0366 C51.1790,4.0366 52.0555,3.4522 52.0555,3.1600 C52.0555,2.8678 52.0555,2.8678 52.0555,2.8678 C52.0555,1.9913 52.0555,1.9913 52.0555,1.9913 C51.7634,2.5756 51.1790,2.8678 51.1790,2.8678 Z M51.1790,8.1272 C42.7055,8.1272 42.7055,8.1272 42.7055,8.1272 C42.7055,8.1272 42.1211,7.8350 41.8289,7.5428 C41.8289,8.4194 41.8289,8.4194 41.8289,8.4194 C41.8289,9.0038 42.7055,9.5882 42.7055,9.5882 C51.1790,9.5882 51.1790,9.5882 51.1790,9.5882 C51.1790,9.5882 52.0555,9.0038 52.0555,8.4194 C52.0555,7.5428 52.0555,7.5428 52.0555,7.5428 C51.7634,7.8350 51.1790,8.1272 51.1790,8.1272 Z M52.0555,1.1147 C52.0555,0.5303 51.1790,0.2381 51.1790,0.2381 C42.7055,0.2381 42.7055,0.2381 42.7055,0.2381 C42.7055,0.2381 41.8289,0.5303 41.8289,1.1147 C41.8289,1.6991 42.7055,2.2834 42.7055,2.2834 C51.1790,2.2834 51.1790,2.2834 51.1790,2.2834 C51.1790,2.2834 52.0555,1.6991 52.0555,1.1147 Z" style="fill-rule: evenodd; fill: #ffffff; "/>
    <path xmlns="http://www.w3.org/2000/svg" d="  M46.2118,-5.3135 C44.7508,-5.3135 43.5821,-4.1447 43.5821,-2.6838 C43.5821,1.4069 43.5821,1.4069 43.5821,1.4069 C43.5821,1.4069 44.1665,1.6991 44.1665,1.6991 C44.4586,1.6991 44.7508,1.4069 44.7508,1.4069 C44.7508,-2.3916 44.7508,-2.3916 44.7508,-2.3916 C44.7508,-3.2681 45.6274,-4.1447 46.5040,-4.1447 C47.3805,-4.1447 47.3805,-4.1447 47.3805,-4.1447 C48.2571,-4.1447 49.1337,-3.2681 49.1337,-2.3916 C49.1337,1.4069 49.1337,1.4069 49.1337,1.4069 C49.1337,1.4069 49.4258,1.6991 49.7180,1.6991 C50.0102,1.6991 50.3024,1.4069 50.3024,1.4069 C50.3024,-2.6838 50.3024,-2.6838 50.3024,-2.6838 C50.3024,-4.1447 49.1337,-5.3135 47.6727,-5.3135 C46.2118,-5.3135 46.2118,-5.3135 46.2118,-5.3135 Z" style="fill-rule: evenodd; fill: #ffffff; "/>
    <text xmlns="http://www.w3.org/2000/svg" x="-12.7550" y="29.2200">
      <tspan font-family="Arial" font-size="4.5000" fill="#000000" fill-opacity="1.0000" stroke-opacity="1.0000">
SnapLock Data Flow</tspan>
    </text>
    <!--converted by libvisio2svg-->
  </g>
</svg>
