<svg xmlns="http://www.w3.org/2000/svg" xmlns:xlink="http://www.w3.org/1999/xlink" version="1.1" width="43.2000000000" height="0.0000000000">
  <title><![CDATA[SnapVault]]></title>
  <g transform=" scale(1.000000) ">
    <path xmlns="http://www.w3.org/2000/svg" d="  M-9.9945,0.0000 L9.4937,-11.5157 L9.4937,-43.9961 L-9.9945,-32.7756 L-9.9945,0.0000 Z" style="fill-rule: evenodd; fill: #e6e6e6; "/>
    <path xmlns="http://www.w3.org/2000/svg" d="  M-9.9945,0.0000 L9.4937,-11.5157 L9.4937,-43.9961 L-9.9945,-32.7756 L-9.9945,0.0000 Z" style="stroke-width: 0.0591; stroke: #7f7f7f; stroke-dasharray: none; stroke-linecap: round; stroke-linejoin: round; fill: none; "/>
    <path xmlns="http://www.w3.org/2000/svg" d="  M14.5134,-26.8701 C14.5134,-21.8504 14.5134,-21.8504 14.5134,-21.8504 C5.0646,-21.8504 5.0646,-21.8504 5.0646,-21.8504 C3.5882,-21.8504 2.7024,-20.6693 2.7024,-19.4882 C2.7024,-18.0118 3.5882,-16.8307 5.0646,-16.8307 C14.5134,-16.8307 14.5134,-16.8307 14.5134,-16.8307 C14.5134,-11.8110 14.5134,-11.8110 14.5134,-11.8110 C17.7614,-14.1732 17.7614,-14.1732 17.7614,-14.1732 C17.7614,-24.2126 17.7614,-24.2126 17.7614,-24.2126 C14.5134,-26.8701 14.5134,-26.8701 14.5134,-26.8701 Z" style="fill-rule: evenodd; fill: #f07600; "/>
    <path xmlns="http://www.w3.org/2000/svg" d="  M17.7614,-32.7756 L17.7614,-24.2126 L24.5528,-19.1929 L17.7614,-14.1732 L17.7614,0.0000 L37.5449,-11.5157 L37.5449,-43.9961 L17.7614,-32.7756 Z" style="fill-rule: evenodd; fill: #e6e6e6; "/>
    <path xmlns="http://www.w3.org/2000/svg" d="  M17.7614,-24.2126 L17.7614,-14.1732 L24.5528,-19.1929 L17.7614,-24.2126 Z" style="fill-rule: evenodd; fill: #e8c08d; "/>
    <path xmlns="http://www.w3.org/2000/svg" d="  M17.7614,0.0000 L37.5449,-11.5157 L37.5449,-43.9961 L17.7614,-32.7756 L17.7614,0.0000 Z" style="stroke-width: 0.0591; stroke: #7f7f7f; stroke-dasharray: none; stroke-linecap: round; stroke-linejoin: round; fill: none; "/>
    <path xmlns="http://www.w3.org/2000/svg" d="  M25.7339,0.0000 L45.2220,-11.5157 L45.2220,-43.9961 L25.7339,-32.7756 L25.7339,0.0000 Z" style="fill-rule: evenodd; fill: #e6e6e6; "/>
    <path xmlns="http://www.w3.org/2000/svg" d="  M25.7339,0.0000 L45.2220,-11.5157 L45.2220,-43.9961 L25.7339,-32.7756 L25.7339,0.0000 Z" style="stroke-width: 0.0591; stroke: #7f7f7f; stroke-dasharray: none; stroke-linecap: round; stroke-linejoin: round; fill: none; "/>
    <path xmlns="http://www.w3.org/2000/svg" d="  M33.7063,0.0000 L53.1945,-11.5157 L53.1945,-43.9961 L33.7063,-32.7756 L33.7063,0.0000 Z" style="fill-rule: evenodd; fill: #e6e6e6; "/>
    <path xmlns="http://www.w3.org/2000/svg" d="  M33.7063,0.0000 L53.1945,-11.5157 L53.1945,-43.9961 L33.7063,-32.7756 L33.7063,0.0000 Z" style="stroke-width: 0.0591; stroke: #7f7f7f; stroke-dasharray: none; stroke-linecap: round; stroke-linejoin: round; fill: none; "/>
    <text xmlns="http://www.w3.org/2000/svg" x="-7.7600" y="7.4400">
      <tspan font-family="Arial" font-size="4.5000" fill="#000000" fill-opacity="1.0000" stroke-opacity="1.0000">
SnapVault</tspan>
    </text>
    <!--converted by libvisio2svg-->
  </g>
</svg>
