<svg xmlns="http://www.w3.org/2000/svg" xmlns:xlink="http://www.w3.org/1999/xlink" version="1.1" width="43.2000000000" height="0.0000000000">
  <title><![CDATA[SnapMirror]]></title>
  <g transform=" scale(1.000000) ">
    <path xmlns="http://www.w3.org/2000/svg" d="  M25.5862,-32.7756 C25.5862,-30.4134 25.5862,-30.4134 25.5862,-30.4134 C30.0154,-30.4134 30.0154,-30.4134 30.0154,-30.4134 C31.4917,-30.4134 32.3776,-29.5276 32.3776,-28.0512 C32.3776,-26.8701 31.4917,-25.6890 30.0154,-25.6890 C25.5862,-25.6890 25.5862,-25.6890 25.5862,-25.6890 C25.5862,-20.9646 25.5862,-20.9646 25.5862,-20.9646 C32.3776,-15.9449 32.3776,-15.9449 32.3776,-15.9449 C25.5862,-10.9252 25.5862,-10.9252 25.5862,-10.9252 C25.5862,0.0000 25.5862,0.0000 25.5862,0.0000 C45.3697,-11.5157 45.3697,-11.5157 45.3697,-11.5157 C45.3697,-43.9961 45.3697,-43.9961 45.3697,-43.9961 C25.5862,-32.7756 25.5862,-32.7756 25.5862,-32.7756 Z M-2.1697,0.0000 L17.3185,-11.5157 L17.3185,-43.9961 L-2.1697,-32.7756 L-2.1697,0.0000 Z" style="fill-rule: evenodd; fill: #e6e6e6; "/>
    <path xmlns="http://www.w3.org/2000/svg" d="  M-2.1697,0.0000 L17.3185,-11.5157 L17.3185,-43.9961 L-2.1697,-32.7756 L-2.1697,0.0000 Z" style="stroke-width: 0.0591; stroke: #7f7f7f; stroke-dasharray: none; stroke-linecap: round; stroke-linejoin: round; fill: none; "/>
    <path xmlns="http://www.w3.org/2000/svg" d="  M25.5862,-20.9646 L25.5862,-10.9252 L32.3776,-15.9449 L25.5862,-20.9646 Z M32.3776,-28.0512 C32.3776,-29.5276 31.4917,-30.4134 30.0154,-30.4134 C25.5862,-30.4134 25.5862,-30.4134 25.5862,-30.4134 C25.5862,-25.6890 25.5862,-25.6890 25.5862,-25.6890 C30.0154,-25.6890 30.0154,-25.6890 30.0154,-25.6890 C31.4917,-25.6890 32.3776,-26.8701 32.3776,-28.0512 Z" style="fill-rule: evenodd; fill: #a2b3cb; "/>
    <path xmlns="http://www.w3.org/2000/svg" d="  M22.3382,-23.6220 C22.3382,-18.6024 22.3382,-18.6024 22.3382,-18.6024 C12.8894,-18.6024 12.8894,-18.6024 12.8894,-18.6024 C11.4130,-18.6024 10.5272,-17.4213 10.5272,-15.9449 C10.5272,-14.7638 11.4130,-13.5827 12.8894,-13.5827 C22.3382,-13.5827 22.3382,-13.5827 22.3382,-13.5827 C22.3382,-8.5630 22.3382,-8.5630 22.3382,-8.5630 C25.5862,-10.9252 25.5862,-10.9252 25.5862,-10.9252 C25.5862,-20.9646 25.5862,-20.9646 25.5862,-20.9646 C22.3382,-23.6220 22.3382,-23.6220 22.3382,-23.6220 Z M20.5665,-30.4134 L20.5665,-35.7283 L10.5272,-28.0512 L20.5665,-20.6693 L20.5665,-25.6890 L25.5862,-25.6890 L25.5862,-30.4134 L20.5665,-30.4134 Z" style="fill-rule: evenodd; fill: #2061a2; "/>
    <path xmlns="http://www.w3.org/2000/svg" d="  M25.5862,0.0000 L45.3697,-11.5157 L45.3697,-43.9961 L25.5862,-32.7756 L25.5862,0.0000 Z" style="stroke-width: 0.0591; stroke: #7f7f7f; stroke-dasharray: none; stroke-linecap: round; stroke-linejoin: round; fill: none; "/>
    <text xmlns="http://www.w3.org/2000/svg" x="-8.1200" y="5.6400">
      <tspan font-family="Arial" font-size="4.5000" fill="#000000" fill-opacity="1.0000" stroke-opacity="1.0000">
SnapMirror</tspan>
    </text>
    <!--converted by libvisio2svg-->
  </g>
</svg>
