<svg xmlns="http://www.w3.org/2000/svg" xmlns:xlink="http://www.w3.org/1999/xlink" version="1.1" width="31.2480000000" height="7.2000000000">
  <title><![CDATA[Software]]></title>
  <g transform=" scale(1.000000) ">
    <path xmlns="http://www.w3.org/2000/svg" d="  M31.2736,6.9750 L-0.0256,6.9750 L-0.0256,-34.9541 L31.2736,-34.9541 L31.2736,6.9750 Z" style="fill-rule: evenodd; fill: #e6e6e6; "/>
    <path xmlns="http://www.w3.org/2000/svg" d="  M31.2736,6.9750 L-0.0256,6.9750 L-0.0256,-34.9541 L31.2736,-34.9541 L31.2736,6.9750 Z" style="stroke-width: 0.0591; stroke: #7f7f7f; stroke-dasharray: none; stroke-linecap: round; stroke-linejoin: round; fill: none; "/>
    <path xmlns="http://www.w3.org/2000/svg" d="  M8.5374,-17.8281 C7.0610,-17.8281 7.0610,-17.8281 7.0610,-17.8281 C7.0610,-24.9148 7.0610,-24.9148 7.0610,-24.9148 C4.6988,-24.9148 4.6988,-24.9148 4.6988,-24.9148 C4.6988,-25.8006 4.6988,-25.8006 4.6988,-25.8006 C6.4705,-26.0959 7.0610,-26.0959 7.3563,-27.8675 C8.5374,-27.8675 8.5374,-27.8675 8.5374,-27.8675 C8.5374,-17.8281 8.5374,-17.8281 8.5374,-17.8281 Z" style="fill-rule: evenodd; fill: #333333; "/>
    <path xmlns="http://www.w3.org/2000/svg" d="  M9.7185,-5.7219 C9.7185,-3.0644 9.1279,-1.5880 7.6516,-1.5880 C6.4705,-1.5880 5.5846,-3.0644 5.5846,-5.7219 C5.5846,-8.0841 6.4705,-9.5604 7.6516,-9.5604 C9.1279,-9.5604 9.7185,-8.0841 9.7185,-5.7219 Z M11.1949,-5.7219 C11.1949,-7.7888 10.6043,-10.7415 7.6516,-10.7415 C4.9941,-10.7415 4.4035,-7.7888 4.4035,-5.7219 C4.4035,-3.6549 4.9941,-0.4069 7.6516,-0.4069 C10.6043,-0.4069 11.1949,-3.6549 11.1949,-5.7219 Z" style="fill-rule: evenodd; fill: #333333; "/>
    <path xmlns="http://www.w3.org/2000/svg" d="  M19.1673,-22.5526 C19.1673,-20.1904 18.5768,-18.7140 17.1004,-18.7140 C15.6240,-18.7140 15.0334,-20.1904 15.0334,-22.5526 C15.0334,-25.2100 15.6240,-26.6864 17.1004,-26.6864 C18.5768,-26.6864 19.1673,-25.2100 19.1673,-22.5526 Z M20.3484,-22.5526 C20.3484,-24.6195 19.7579,-27.8675 17.1004,-27.8675 C14.1476,-27.8675 13.5571,-24.6195 13.5571,-22.5526 C13.5571,-20.4856 14.1476,-17.5329 17.1004,-17.5329 C19.7579,-17.5329 20.3484,-20.4856 20.3484,-22.5526 Z" style="fill-rule: evenodd; fill: #333333; "/>
    <path xmlns="http://www.w3.org/2000/svg" d="  M19.1673,-5.7219 C19.1673,-3.0644 18.5768,-1.5880 17.1004,-1.5880 C15.6240,-1.5880 15.0334,-3.0644 15.0334,-5.7219 C15.0334,-8.0841 15.6240,-9.5604 17.1004,-9.5604 C18.5768,-9.5604 19.1673,-8.0841 19.1673,-5.7219 Z M20.3484,-5.7219 C20.3484,-7.7888 19.7579,-10.7415 17.1004,-10.7415 C14.1476,-10.7415 13.5571,-7.7888 13.5571,-5.7219 C13.5571,-3.6549 14.1476,-0.4069 17.1004,-0.4069 C19.7579,-0.4069 20.3484,-3.6549 20.3484,-5.7219 Z" style="fill-rule: evenodd; fill: #333333; "/>
    <path xmlns="http://www.w3.org/2000/svg" d="  M26.8445,-17.8281 C25.6634,-17.8281 25.6634,-17.8281 25.6634,-17.8281 C25.6634,-24.9148 25.6634,-24.9148 25.6634,-24.9148 C23.3012,-24.9148 23.3012,-24.9148 23.3012,-24.9148 C23.3012,-25.8006 23.3012,-25.8006 23.3012,-25.8006 C24.7775,-26.0959 25.6634,-26.0959 25.9586,-27.8675 C26.8445,-27.8675 26.8445,-27.8675 26.8445,-27.8675 C26.8445,-17.8281 26.8445,-17.8281 26.8445,-17.8281 Z" style="fill-rule: evenodd; fill: #333333; "/>
    <path xmlns="http://www.w3.org/2000/svg" d="  M26.8445,-0.7022 C25.6634,-0.7022 25.6634,-0.7022 25.6634,-0.7022 C25.6634,-7.7888 25.6634,-7.7888 25.6634,-7.7888 C23.3012,-7.7888 23.3012,-7.7888 23.3012,-7.7888 C23.3012,-8.6746 23.3012,-8.6746 23.3012,-8.6746 C24.7775,-8.9699 25.6634,-8.9699 25.9586,-10.7415 C26.8445,-10.7415 26.8445,-10.7415 26.8445,-10.7415 C26.8445,-0.7022 26.8445,-0.7022 26.8445,-0.7022 Z" style="fill-rule: evenodd; fill: #333333; "/>
    <text xmlns="http://www.w3.org/2000/svg" x="-5.8784" y="14.8950">
      <tspan font-family="Arial" font-size="4.5000" fill="#000000" fill-opacity="1.0000" stroke-opacity="1.0000">
Software</tspan>
    </text>
    <!--converted by libvisio2svg-->
  </g>
</svg>
