<svg xmlns="http://www.w3.org/2000/svg" xmlns:xlink="http://www.w3.org/1999/xlink" version="1.1" width="43.2000000000" height="7.2000000000">
  <title><![CDATA[Tablet PC]]></title>
  <g transform=" scale(1.000000) ">
    <path xmlns="http://www.w3.org/2000/svg" d="  M43.2184,4.6691 C43.2184,6.1454 42.1638,7.2000 40.6875,7.2000 C2.7235,7.2000 2.7235,7.2000 2.7235,7.2000 C1.2471,7.2000 -0.0184,6.1454 -0.0184,4.6691 C-0.0184,-50.3787 -0.0184,-50.3787 -0.0184,-50.3787 C-0.0184,-51.6442 1.2471,-52.9097 2.7235,-52.9097 C40.6875,-52.9097 40.6875,-52.9097 40.6875,-52.9097 C42.1638,-52.9097 43.2184,-51.6442 43.2184,-50.3787 C43.2184,4.6691 43.2184,4.6691 43.2184,4.6691 Z" style="fill-rule: evenodd; fill: #7f7f7f; "/>
    <path xmlns="http://www.w3.org/2000/svg" d="  M38.7893,-0.8146 L4.4107,-0.8146 L4.4107,-48.4805 L38.7893,-48.4805 L38.7893,-0.8146 Z" style="fill-rule: evenodd; fill: #ffffff; "/>
    <path xmlns="http://www.w3.org/2000/svg" d="  M41.1093,-12.2038 C40.4765,-12.2038 39.8438,-12.6256 39.8438,-13.2584 C39.8438,-13.8911 40.4765,-14.3129 41.1093,-14.3129 C41.7420,-14.3129 42.1638,-13.8911 42.1638,-13.2584 C42.1638,-12.6256 41.7420,-12.2038 41.1093,-12.2038 Z M41.1093,-8.4074 C40.4765,-8.4074 39.8438,-8.8292 39.8438,-9.4620 C39.8438,-10.0947 40.4765,-10.5165 41.1093,-10.5165 C41.7420,-10.5165 42.1638,-10.0947 42.1638,-9.4620 C42.1638,-8.8292 41.7420,-8.4074 41.1093,-8.4074 Z M41.1093,-4.6110 C40.4765,-4.6110 39.8438,-5.0328 39.8438,-5.6656 C39.8438,-6.2983 40.4765,-6.7201 41.1093,-6.7201 C41.7420,-6.7201 42.1638,-6.2983 42.1638,-5.6656 C42.1638,-5.0328 41.7420,-4.6110 41.1093,-4.6110 Z M41.1093,-0.8146 C40.4765,-0.8146 39.8438,-1.2364 39.8438,-1.8692 C39.8438,-2.5019 40.4765,-2.9237 41.1093,-2.9237 C41.7420,-2.9237 42.1638,-2.5019 42.1638,-1.8692 C42.1638,-1.2364 41.7420,-0.8146 41.1093,-0.8146 Z" style="fill-rule: evenodd; fill: #000000; "/>
    <text xmlns="http://www.w3.org/2000/svg" x="-8.9600" y="12.9600">
      <tspan font-family="Arial" font-size="4.5000" fill="#000000" fill-opacity="1.0000" stroke-opacity="1.0000">
Tablet PC</tspan>
    </text>
    <!--converted by libvisio2svg-->
  </g>
</svg>
