<svg xmlns="http://www.w3.org/2000/svg" xmlns:xlink="http://www.w3.org/1999/xlink" version="1.1" width="25.9200000000" height="7.2000000000">
  <title><![CDATA[Tape Drive]]></title>
  <g transform=" scale(1.000000) ">
    <path xmlns="http://www.w3.org/2000/svg" d="  M19.3084,5.7378 C22.8517,3.3756 24.9187,-0.4630 24.9187,-4.8921 C24.9187,-12.2740 19.0131,-18.1795 11.9265,-18.1795 C4.5446,-18.1795 -1.3609,-12.2740 -1.3609,-4.8921 C-1.3609,2.1945 4.5446,8.1000 11.9265,8.1000 C27.2809,8.1000 27.2809,8.1000 27.2809,8.1000 C27.2809,5.7378 27.2809,5.7378 27.2809,5.7378 C19.3084,5.7378 19.3084,5.7378 19.3084,5.7378 Z" style="fill-rule: evenodd; fill: #7f7f7f; "/>
    <path xmlns="http://www.w3.org/2000/svg" d="  M15.7651,-4.8921 C15.7651,-2.8252 13.9935,-1.0535 11.9265,-1.0535 C9.5643,-1.0535 7.7927,-2.8252 7.7927,-4.8921 C7.7927,-7.2543 9.5643,-9.0260 11.9265,-9.0260 C13.9935,-9.0260 15.7651,-7.2543 15.7651,-4.8921 Z" style="fill-rule: evenodd; fill: #ffffff; "/>
    <text xmlns="http://www.w3.org/2000/svg" x="-3.2960" y="19.1400">
      <tspan font-family="Arial" font-size="4.5000" fill="#000000" fill-opacity="1.0000" stroke-opacity="1.0000">
Tape Drive</tspan>
    </text>
    <!--converted by libvisio2svg-->
  </g>
</svg>
