<svg xmlns="http://www.w3.org/2000/svg" xmlns:xlink="http://www.w3.org/1999/xlink" version="1.1" width="36.0000000000" height="7.2000000000">
  <title><![CDATA[vFiler Administrator]]></title>
  <g transform=" scale(1.000000) ">
    <path xmlns="http://www.w3.org/2000/svg" d="  M12.6087,-29.2947 L-11.4446,-29.2947 L-11.4446,-33.8566 L12.6087,-33.8566 L12.6087,-29.2947 Z" style="fill-rule: evenodd; fill: #7f7f7f; "/>
    <path xmlns="http://www.w3.org/2000/svg" d="  M16.3411,-35.1007 L-15.5917,-35.1007 L-15.5917,-59.1541 L16.3411,-59.1541 L16.3411,-35.1007 Z" style="fill-rule: evenodd; fill: #7f7f7f; "/>
    <path xmlns="http://www.w3.org/2000/svg" d="  M13.0234,-38.4184 L-11.8593,-38.4184 L-11.8593,-55.8364 L13.0234,-55.8364 L13.0234,-38.4184 Z" style="fill-rule: evenodd; fill: #ffffff; "/>
    <path xmlns="http://www.w3.org/2000/svg" d="  M16.3411,-30.5389 L-15.1770,-30.5389 L-17.6653,-27.2212 L-17.6653,-25.9770 L18.8294,-25.9770 L18.8294,-27.2212 L16.3411,-30.5389 Z" style="fill-rule: evenodd; fill: #b3b3b3; "/>
    <path xmlns="http://www.w3.org/2000/svg" d="  M16.3411,-59.1541 L-15.5917,-59.1541 L-11.0299,-65.7895 L11.7793,-65.7895 L16.3411,-59.1541 Z" style="fill-rule: evenodd; fill: #b3b3b3; "/>
    <path xmlns="http://www.w3.org/2000/svg" d="  M16.3411,-59.1541 L-15.5917,-59.1541 L-11.0299,-65.7895 L11.7793,-65.7895 L16.3411,-59.1541 Z" style="stroke-width: 0.0591; stroke: #ffffff; stroke-dasharray: none; stroke-linecap: round; stroke-linejoin: round; fill: none; "/>
    <path xmlns="http://www.w3.org/2000/svg" d="  M-17.6653,-27.2212 L-17.6653,-25.9770 L18.8294,-25.9770 L18.8294,-27.2212 L-17.6653,-27.2212 Z" style="fill-rule: evenodd; fill: #7f7f7f; "/>
    <path xmlns="http://www.w3.org/2000/svg" d="  M47.4446,-29.2947 L23.3913,-29.2947 L23.3913,-33.8566 L47.4446,-33.8566 L47.4446,-29.2947 Z" style="fill-rule: evenodd; fill: #7f7f7f; "/>
    <path xmlns="http://www.w3.org/2000/svg" d="  M51.5917,-35.1007 L19.6589,-35.1007 L19.6589,-59.1541 L51.5917,-59.1541 L51.5917,-35.1007 Z" style="fill-rule: evenodd; fill: #7f7f7f; "/>
    <path xmlns="http://www.w3.org/2000/svg" d="  M47.8593,-38.4184 L22.9766,-38.4184 L22.9766,-55.8364 L47.8593,-55.8364 L47.8593,-38.4184 Z" style="fill-rule: evenodd; fill: #ffffff; "/>
    <path xmlns="http://www.w3.org/2000/svg" d="  M51.1770,-30.5389 L19.6589,-30.5389 L17.1706,-27.2212 L17.1706,-25.9770 L53.6653,-25.9770 L53.6653,-27.2212 L51.1770,-30.5389 Z" style="fill-rule: evenodd; fill: #b3b3b3; "/>
    <path xmlns="http://www.w3.org/2000/svg" d="  M51.5917,-59.1541 L19.6589,-59.1541 L24.2207,-65.7895 L47.0299,-65.7895 L51.5917,-59.1541 Z" style="fill-rule: evenodd; fill: #b3b3b3; "/>
    <path xmlns="http://www.w3.org/2000/svg" d="  M51.5917,-59.1541 L19.6589,-59.1541 L24.2207,-65.7895 L47.0299,-65.7895 L51.5917,-59.1541 Z" style="stroke-width: 0.0591; stroke: #ffffff; stroke-dasharray: none; stroke-linecap: round; stroke-linejoin: round; fill: none; "/>
    <path xmlns="http://www.w3.org/2000/svg" d="  M17.1706,-27.2212 L17.1706,-25.9770 L53.6653,-25.9770 L53.6653,-27.2212 L17.1706,-27.2212 Z" style="fill-rule: evenodd; fill: #7f7f7f; "/>
    <path xmlns="http://www.w3.org/2000/svg" d="  M12.6087,-12.7062 L-11.4446,-12.7062 L-11.4446,-17.2681 L12.6087,-17.2681 L12.6087,-12.7062 Z" style="fill-rule: evenodd; fill: #7f7f7f; "/>
    <path xmlns="http://www.w3.org/2000/svg" d="  M16.3411,-18.5122 L-15.5917,-18.5122 L-15.5917,-42.5655 L16.3411,-42.5655 L16.3411,-18.5122 Z" style="fill-rule: evenodd; fill: #7f7f7f; "/>
    <path xmlns="http://www.w3.org/2000/svg" d="  M13.0234,-21.8299 L-11.8593,-21.8299 L-11.8593,-39.2478 L13.0234,-39.2478 L13.0234,-21.8299 Z" style="fill-rule: evenodd; fill: #ffffff; "/>
    <path xmlns="http://www.w3.org/2000/svg" d="  M16.3411,-14.3651 L-15.1770,-14.3651 L-17.6653,-10.6327 L-17.6653,-9.3885 L18.8294,-9.3885 L18.8294,-10.6327 L16.3411,-14.3651 Z" style="fill-rule: evenodd; fill: #b3b3b3; "/>
    <path xmlns="http://www.w3.org/2000/svg" d="  M16.3411,-42.5655 L-15.5917,-42.5655 L-11.0299,-49.2010 L11.7793,-49.2010 L16.3411,-42.5655 Z" style="fill-rule: evenodd; fill: #b3b3b3; "/>
    <path xmlns="http://www.w3.org/2000/svg" d="  M16.3411,-42.5655 L-15.5917,-42.5655 L-11.0299,-49.2010 L11.7793,-49.2010 L16.3411,-42.5655 Z" style="stroke-width: 0.0591; stroke: #ffffff; stroke-dasharray: none; stroke-linecap: round; stroke-linejoin: round; fill: none; "/>
    <path xmlns="http://www.w3.org/2000/svg" d="  M-17.6653,-10.6327 L-17.6653,-9.3885 L18.8294,-9.3885 L18.8294,-10.6327 L-17.6653,-10.6327 Z" style="fill-rule: evenodd; fill: #7f7f7f; "/>
    <path xmlns="http://www.w3.org/2000/svg" d="  M47.4446,-12.7062 L23.3913,-12.7062 L23.3913,-17.2681 L47.4446,-17.2681 L47.4446,-12.7062 Z" style="fill-rule: evenodd; fill: #7f7f7f; "/>
    <path xmlns="http://www.w3.org/2000/svg" d="  M51.5917,-18.5122 L19.6589,-18.5122 L19.6589,-42.5655 L51.5917,-42.5655 L51.5917,-18.5122 Z" style="fill-rule: evenodd; fill: #7f7f7f; "/>
    <path xmlns="http://www.w3.org/2000/svg" d="  M47.8593,-21.8299 L22.9766,-21.8299 L22.9766,-39.2478 L47.8593,-39.2478 L47.8593,-21.8299 Z" style="fill-rule: evenodd; fill: #ffffff; "/>
    <path xmlns="http://www.w3.org/2000/svg" d="  M51.1770,-14.3651 L19.6589,-14.3651 L17.1706,-10.6327 L17.1706,-9.3885 L53.6653,-9.3885 L53.6653,-10.6327 L51.1770,-14.3651 Z" style="fill-rule: evenodd; fill: #b3b3b3; "/>
    <path xmlns="http://www.w3.org/2000/svg" d="  M51.5917,-42.5655 L19.6589,-42.5655 L24.2207,-49.2010 L47.0299,-49.2010 L51.5917,-42.5655 Z" style="fill-rule: evenodd; fill: #b3b3b3; "/>
    <path xmlns="http://www.w3.org/2000/svg" d="  M51.5917,-42.5655 L19.6589,-42.5655 L24.2207,-49.2010 L47.0299,-49.2010 L51.5917,-42.5655 Z" style="stroke-width: 0.0591; stroke: #ffffff; stroke-dasharray: none; stroke-linecap: round; stroke-linejoin: round; fill: none; "/>
    <path xmlns="http://www.w3.org/2000/svg" d="  M17.1706,-10.6327 L17.1706,-9.3885 L53.6653,-9.3885 L53.6653,-10.6327 L17.1706,-10.6327 Z" style="fill-rule: evenodd; fill: #7f7f7f; "/>
    <path xmlns="http://www.w3.org/2000/svg" d="  M30.0267,3.8823 L5.9733,3.8823 L5.9733,-1.0943 L30.0267,-1.0943 L30.0267,3.8823 Z" style="fill-rule: evenodd; fill: #7f7f7f; "/>
    <path xmlns="http://www.w3.org/2000/svg" d="  M34.1738,-1.9237 L1.8262,-1.9237 L1.8262,-26.3917 L34.1738,-26.3917 L34.1738,-1.9237 Z" style="fill-rule: evenodd; fill: #7f7f7f; "/>
    <path xmlns="http://www.w3.org/2000/svg" d="  M30.4414,-5.2414 L5.5586,-5.2414 L5.5586,-22.6593 L30.4414,-22.6593 L30.4414,-5.2414 Z" style="fill-rule: evenodd; fill: #ffffff; "/>
    <path xmlns="http://www.w3.org/2000/svg" d="  M33.7591,2.2234 L2.2409,2.2234 L-0.2474,5.9559 L-0.2474,7.2000 L36.2474,7.2000 L36.2474,5.9559 L33.7591,2.2234 Z" style="fill-rule: evenodd; fill: #b3b3b3; "/>
    <path xmlns="http://www.w3.org/2000/svg" d="  M34.1738,-26.3917 L1.8262,-26.3917 L6.3880,-32.6124 L29.1972,-32.6124 L34.1738,-26.3917 Z" style="fill-rule: evenodd; fill: #b3b3b3; "/>
    <path xmlns="http://www.w3.org/2000/svg" d="  M34.1738,-26.3917 L1.8262,-26.3917 L6.3880,-32.6124 L29.1972,-32.6124 L34.1738,-26.3917 Z" style="stroke-width: 0.0591; stroke: #ffffff; stroke-dasharray: none; stroke-linecap: round; stroke-linejoin: round; fill: none; "/>
    <path xmlns="http://www.w3.org/2000/svg" d="  M-0.2474,5.9559 L-0.2474,7.2000 L36.2474,7.2000 L36.2474,5.9559 L-0.2474,5.9559 Z" style="fill-rule: evenodd; fill: #7f7f7f; "/>
    <text xmlns="http://www.w3.org/2000/svg" x="-24.0800" y="14.2200">
      <tspan font-family="Arial" font-size="4.5000" fill="#000000" fill-opacity="1.0000" stroke-opacity="1.0000">
vFiler Administrator</tspan>
    </text>
    <!--converted by libvisio2svg-->
  </g>
</svg>
