<svg xmlns="http://www.w3.org/2000/svg" xmlns:xlink="http://www.w3.org/1999/xlink" version="1.1" width="50.4000000000" height="7.2000000000">
  <title><![CDATA[Video Camera]]></title>
  <g transform=" scale(1.000000) ">
    <path xmlns="http://www.w3.org/2000/svg" d="  M7.2942,-112.9132 L1.1783,-111.5541 L1.1783,-105.0985 L7.2942,-103.7394 L7.2942,-97.9633 L-1.8796,-97.9633 L-1.8796,-98.3031 L-9.3545,-101.0212 L-9.3545,-83.0135 L-1.8796,-85.3919 L-1.8796,-85.7316 L7.2942,-85.7316 L51.1244,-85.7316 L51.1244,-112.9132 L7.2942,-112.9132 Z" style="fill-rule: evenodd; fill: #7f7f7f; "/>
    <path xmlns="http://www.w3.org/2000/svg" d="  M48.4062,-95.9247 C48.4062,-95.2452 47.7267,-94.5656 47.0472,-94.5656 C25.9815,-94.5656 25.9815,-94.5656 25.9815,-94.5656 C24.9622,-94.5656 24.2826,-95.2452 24.2826,-95.9247 C24.2826,-102.7201 24.2826,-102.7201 24.2826,-102.7201 C24.2826,-103.3996 24.9622,-104.0792 25.9815,-104.0792 C47.0472,-104.0792 47.0472,-104.0792 47.0472,-104.0792 C47.7267,-104.0792 48.4062,-103.3996 48.4062,-102.7201 C48.4062,-95.9247 48.4062,-95.9247 48.4062,-95.9247 Z" style="fill-rule: evenodd; fill: #ffffff; "/>
    <path xmlns="http://www.w3.org/2000/svg" d="  M32.7769,-83.6930 C32.7769,-85.7316 32.7769,-85.7316 32.7769,-85.7316 C32.7769,-86.0714 32.4371,-86.7509 31.7575,-86.7509 C18.8463,-86.7509 18.8463,-86.7509 18.8463,-86.7509 C18.1668,-86.7509 17.8270,-86.0714 17.8270,-85.7316 C17.8270,-83.6930 17.8270,-83.6930 17.8270,-83.6930 C17.8270,-83.3533 18.1668,-82.6737 18.8463,-82.6737 C21.9042,-82.6737 21.9042,-82.6737 21.9042,-82.6737 C21.5645,-81.9942 21.2247,-81.3146 21.2247,-80.2953 C21.2247,-79.6158 21.5645,-78.9363 21.9042,-78.2567 C18.8463,-78.2567 18.8463,-78.2567 18.8463,-78.2567 C18.1668,-78.2567 17.8270,-77.5772 17.8270,-76.8976 C17.8270,-75.1988 17.8270,-75.1988 17.8270,-75.1988 C17.8270,-74.5193 18.1668,-74.1795 18.8463,-74.1795 C31.7575,-74.1795 31.7575,-74.1795 31.7575,-74.1795 C32.4371,-74.1795 32.7769,-74.5193 32.7769,-75.1988 C32.7769,-76.8976 32.7769,-76.8976 32.7769,-76.8976 C32.7769,-77.5772 32.4371,-78.2567 31.7575,-78.2567 C28.6996,-78.2567 28.6996,-78.2567 28.6996,-78.2567 C29.0394,-78.9363 29.3792,-79.6158 29.3792,-80.2953 C29.3792,-81.3146 29.0394,-81.9942 28.6996,-82.6737 C31.7575,-82.6737 31.7575,-82.6737 31.7575,-82.6737 C32.4371,-82.6737 32.7769,-83.3533 32.7769,-83.6930 Z" style="fill-rule: evenodd; fill: #7f7f7f; "/>
    <path xmlns="http://www.w3.org/2000/svg" d="  M26.6610,-39.5230 C26.6610,-76.2181 26.6610,-76.2181 26.6610,-76.2181 C23.9429,-76.2181 23.9429,-76.2181 23.9429,-76.2181 C23.9429,-39.5230 23.9429,-39.5230 23.9429,-39.5230 C23.6031,-39.1833 22.9235,-38.8435 22.9235,-38.1640 C22.9235,-31.0288 22.9235,-31.0288 22.9235,-31.0288 C22.9235,-30.3493 23.6031,-29.6697 23.9429,-29.3300 C23.9429,7.3651 23.9429,7.3651 23.9429,7.3651 C26.6610,7.3651 26.6610,7.3651 26.6610,7.3651 C26.6610,-29.3300 26.6610,-29.3300 26.6610,-29.3300 C27.0008,-29.6697 27.6803,-30.3493 27.6803,-31.0288 C27.6803,-38.1640 27.6803,-38.1640 27.6803,-38.1640 C27.6803,-38.8435 27.0008,-39.1833 26.6610,-39.5230 Z" style="fill-rule: evenodd; fill: #7f7f7f; "/>
    <path xmlns="http://www.w3.org/2000/svg" d="  M14.4293,-40.8821 C23.9429,-76.2181 23.9429,-76.2181 23.9429,-76.2181 C21.5645,-76.8976 21.5645,-76.8976 21.5645,-76.8976 C12.0509,-41.5616 12.0509,-41.5616 12.0509,-41.5616 C11.3714,-41.5616 11.0316,-40.8821 10.6919,-40.2026 C8.9930,-33.4072 8.9930,-33.4072 8.9930,-33.4072 C8.6532,-32.7276 8.9930,-32.0481 9.3328,-31.7083 C-0.1808,3.6277 -0.1808,3.6277 -0.1808,3.6277 C2.5374,4.3072 2.5374,4.3072 2.5374,4.3072 C11.7112,-31.0288 11.7112,-31.0288 11.7112,-31.0288 C12.3907,-31.0288 13.0702,-31.3686 13.0702,-32.0481 C15.1089,-39.1833 15.1089,-39.1833 15.1089,-39.1833 C15.1089,-39.8628 15.1089,-40.5423 14.4293,-40.8821 Z" style="fill-rule: evenodd; fill: #7f7f7f; "/>
    <path xmlns="http://www.w3.org/2000/svg" d="  M38.5529,-41.5616 C29.0394,-76.8976 29.0394,-76.8976 29.0394,-76.8976 C26.6610,-76.2181 26.6610,-76.2181 26.6610,-76.2181 C36.1745,-40.8821 36.1745,-40.8821 36.1745,-40.8821 C35.4950,-40.5423 35.4950,-39.8628 35.4950,-39.1833 C37.5336,-32.0481 37.5336,-32.0481 37.5336,-32.0481 C37.5336,-31.3686 38.2132,-31.0288 38.8927,-31.0288 C48.0665,4.3072 48.0665,4.3072 48.0665,4.3072 C50.7846,3.6277 50.7846,3.6277 50.7846,3.6277 C41.2711,-31.7083 41.2711,-31.7083 41.2711,-31.7083 C41.6109,-32.0481 41.9506,-32.7276 41.6109,-33.4072 C39.9120,-40.2026 39.9120,-40.2026 39.9120,-40.2026 C39.5722,-40.8821 39.2325,-41.5616 38.5529,-41.5616 Z" style="fill-rule: evenodd; fill: #7f7f7f; "/>
    <text xmlns="http://www.w3.org/2000/svg" x="-10.3100" y="11.7579">
      <tspan font-family="Arial" font-size="4.5000" fill="#000000" fill-opacity="1.0000" stroke-opacity="1.0000">
Video Camera</tspan>
    </text>
    <!--converted by libvisio2svg-->
  </g>
</svg>
