<svg xmlns="http://www.w3.org/2000/svg" xmlns:xlink="http://www.w3.org/1999/xlink" version="1.1" width="83.5200000000" height="7.2000000000">
  <title><![CDATA[Wide Cylinder/Volume]]></title>
  <g transform=" scale(1.000000) ">
    <g xmlns="http://www.w3.org/2000/svg" id="Layer1008">
      <defs>
        <linearGradient id="grad5">
          <stop offset="0%" stop-color="#cdcdcd" stop-opacity="1.0000"/>
          <stop offset="100%" stop-color="#1a1a1a" stop-opacity="1.0000"/>
        </linearGradient>
      </defs>
      <path d="  M86.4222,3.7383 C86.4222,8.6256 67.1784,16.2621 43.3527,16.2621 C19.5270,16.2621 -0.0222,8.6256 -0.0222,3.7383 C-0.0222,-27.1129 -0.0222,-27.1129 -0.0222,-27.1129 C-0.0222,-21.9201 19.5270,-17.9492 43.3527,-17.9492 C67.1784,-17.9492 86.4222,-21.9201 86.4222,-27.1129 C86.4222,3.7383 86.4222,3.7383 86.4222,3.7383 Z" style="stroke-width: 0.0000; stroke-linecap: round; stroke-linejoin: round; fill-rule: evenodd; fill: url(#grad5); "/>
      <path d="  M86.4222,3.7383 C86.4222,8.6256 67.1784,16.2621 43.3527,16.2621 C19.5270,16.2621 -0.0222,8.6256 -0.0222,3.7383 C-0.0222,-27.1129 -0.0222,-27.1129 -0.0222,-27.1129 C-0.0222,-21.9201 19.5270,-17.9492 43.3527,-17.9492 C67.1784,-17.9492 86.4222,-21.9201 86.4222,-27.1129 C86.4222,3.7383 86.4222,3.7383 86.4222,3.7383 Z" style="stroke-width: 0.0000; stroke: #c0c0c0; stroke-dasharray: none; stroke-linecap: round; stroke-linejoin: round; fill: none; "/>
    </g>
    <g xmlns="http://www.w3.org/2000/svg" id="Layer1009">
      <path d="  M86.4222,-27.1129 C86.4222,-21.9201 67.1784,-17.9492 43.3527,-17.9492 C19.5270,-17.9492 -0.0222,-21.9201 -0.0222,-27.1129 C-0.0222,-32.0002 19.5270,-35.9712 43.3527,-35.9712 C67.1784,-35.9712 86.4222,-32.0002 86.4222,-27.1129 Z" style="stroke-width: 0.0240; stroke-linecap: round; stroke-linejoin: round; fill-rule: evenodd; fill: #b3b3b3; "/>
      <path d="  M86.4222,-27.1129 C86.4222,-21.9201 67.1784,-17.9492 43.3527,-17.9492 C19.5270,-17.9492 -0.0222,-21.9201 -0.0222,-27.1129 C-0.0222,-32.0002 19.5270,-35.9712 43.3527,-35.9712 C67.1784,-35.9712 86.4222,-32.0002 86.4222,-27.1129 Z" style="stroke-width: 0.0240; stroke: #ffffff; stroke-dasharray: none; stroke-linecap: round; stroke-linejoin: round; fill: none; "/>
    </g>
    <text xmlns="http://www.w3.org/2000/svg" x="-22.8688" y="22.4246">
      <tspan font-family="Arial" font-size="4.5000" fill="#000000" fill-opacity="1.0000" stroke-opacity="1.0000">
Wide Cylinder/Volume</tspan>
    </text>
    <!--converted by libvisio2svg-->
  </g>
</svg>
