<svg xmlns="http://www.w3.org/2000/svg" xmlns:xlink="http://www.w3.org/1999/xlink" version="1.1" width="43.2000000000" height="7.2000000000">
  <title><![CDATA[Windows Server with Storage]]></title>
  <g transform=" scale(1.000000) ">
    <path xmlns="http://www.w3.org/2000/svg" d="  M43.2000,-7.8392 L43.2000,7.3588 L0.0000,7.3588 L0.0000,-7.8392 L43.2000,-7.8392 Z" style="fill-rule: evenodd; fill: #333333; "/>
    <path xmlns="http://www.w3.org/2000/svg" d="  M43.2000,-38.3861 L0.0000,-38.3861 L1.9538,-41.4257 L41.2462,-41.4257 L43.2000,-38.3861 Z" style="fill-rule: evenodd; fill: #b3b3b3; "/>
    <path xmlns="http://www.w3.org/2000/svg" d="  M43.2000,-7.7730 L0.0000,-7.7730 L0.0000,-38.3861 L43.2000,-38.3861 L43.2000,-7.7730 Z" style="fill-rule: evenodd; fill: #7f7f7f; "/>
    <path xmlns="http://www.w3.org/2000/svg" d="  M0.1080,-12.7666 L43.0920,-12.7666" style="stroke-width: 0.0591; stroke: #000000; stroke-dasharray: none; stroke-linecap: butt; stroke-linejoin: miter; fill: none; "/>
    <path xmlns="http://www.w3.org/2000/svg" d="  M9.6259,-33.8326 L7.0318,-33.8326 L7.0318,-36.2150 L9.6259,-36.2150 L9.6259,-33.8326 Z M9.6259,-29.7346 L7.0318,-29.7346 L7.0318,-32.1170 L9.6259,-32.1170 L9.6259,-29.7346 Z M14.0496,-29.7346 L11.4555,-29.7346 L11.4555,-32.1170 L14.0496,-32.1170 L14.0496,-29.7346 Z M14.0496,-33.8326 L11.4555,-33.8326 L11.4555,-36.2150 L14.0496,-36.2150 L14.0496,-33.8326 Z M18.4734,-29.7346 L15.8792,-29.7346 L15.8792,-32.1170 L18.4734,-32.1170 L18.4734,-29.7346 Z M18.4734,-33.8326 L15.8792,-33.8326 L15.8792,-36.2150 L18.4734,-36.2150 L18.4734,-33.8326 Z M5.2022,-17.4405 L2.6081,-17.4405 L2.6081,-19.8229 L5.2022,-19.8229 L5.2022,-17.4405 Z M5.2022,-21.5385 L2.6081,-21.5385 L2.6081,-23.9209 L5.2022,-23.9209 L5.2022,-21.5385 Z M5.2022,-25.6366 L2.6081,-25.6366 L2.6081,-28.0189 L5.2022,-28.0189 L5.2022,-25.6366 Z M5.2022,-33.8326 L2.6081,-33.8326 L2.6081,-36.2150 L5.2022,-36.2150 L5.2022,-33.8326 Z M5.2022,-29.7346 L2.6081,-29.7346 L2.6081,-32.1170 L5.2022,-32.1170 L5.2022,-29.7346 Z M9.6259,-17.4405 L7.0318,-17.4405 L7.0318,-19.8229 L9.6259,-19.8229 L9.6259,-17.4405 Z M9.6259,-21.5385 L7.0318,-21.5385 L7.0318,-23.9209 L9.6259,-23.9209 L9.6259,-21.5385 Z M9.6259,-25.6366 L7.0318,-25.6366 L7.0318,-28.0189 L9.6259,-28.0189 L9.6259,-25.6366 Z M14.0496,-17.4405 L11.4555,-17.4405 L11.4555,-19.8229 L14.0496,-19.8229 L14.0496,-17.4405 Z M14.0496,-21.5385 L11.4555,-21.5385 L11.4555,-23.9209 L14.0496,-23.9209 L14.0496,-21.5385 Z M14.0496,-25.6366 L11.4555,-25.6366 L11.4555,-28.0189 L14.0496,-28.0189 L14.0496,-25.6366 Z M18.4734,-17.4405 L15.8792,-17.4405 L15.8792,-19.8229 L18.4734,-19.8229 L18.4734,-17.4405 Z M18.4734,-21.5385 L15.8792,-21.5385 L15.8792,-23.9209 L18.4734,-23.9209 L18.4734,-21.5385 Z M18.4734,-25.6366 L15.8792,-25.6366 L15.8792,-28.0189 L18.4734,-28.0189 L18.4734,-25.6366 Z M36.1682,-33.8326 L33.5741,-33.8326 L33.5741,-36.2150 L36.1682,-36.2150 L36.1682,-33.8326 Z M36.1682,-29.7346 L33.5741,-29.7346 L33.5741,-32.1170 L36.1682,-32.1170 L36.1682,-29.7346 Z M40.5919,-29.7346 L37.9978,-29.7346 L37.9978,-32.1170 L40.5919,-32.1170 L40.5919,-29.7346 Z M40.5919,-33.8326 L37.9978,-33.8326 L37.9978,-36.2150 L40.5919,-36.2150 L40.5919,-33.8326 Z M27.3208,-25.6366 L24.7266,-25.6366 L24.7266,-28.0189 L27.3208,-28.0189 L27.3208,-25.6366 Z M31.7445,-25.6366 L29.1504,-25.6366 L29.1504,-28.0189 L31.7445,-28.0189 L31.7445,-25.6366 Z M22.8971,-17.4405 L20.3029,-17.4405 L20.3029,-19.8229 L22.8971,-19.8229 L22.8971,-17.4405 Z M22.8971,-21.5385 L20.3029,-21.5385 L20.3029,-23.9209 L22.8971,-23.9209 L22.8971,-21.5385 Z M22.8971,-25.6366 L20.3029,-25.6366 L20.3029,-28.0189 L22.8971,-28.0189 L22.8971,-25.6366 Z M27.3208,-17.4405 L24.7266,-17.4405 L24.7266,-19.8229 L27.3208,-19.8229 L27.3208,-17.4405 Z M27.3208,-21.5385 L24.7266,-21.5385 L24.7266,-23.9209 L27.3208,-23.9209 L27.3208,-21.5385 Z M31.7445,-17.4405 L29.1504,-17.4405 L29.1504,-19.8229 L31.7445,-19.8229 L31.7445,-17.4405 Z M31.7445,-21.5385 L29.1504,-21.5385 L29.1504,-23.9209 L31.7445,-23.9209 L31.7445,-21.5385 Z M22.8971,-29.7346 L20.3029,-29.7346 L20.3029,-32.1170 L22.8971,-32.1170 L22.8971,-29.7346 Z M22.8971,-33.8326 L20.3029,-33.8326 L20.3029,-36.2150 L22.8971,-36.2150 L22.8971,-33.8326 Z M27.3208,-33.8326 L24.7266,-33.8326 L24.7266,-36.2150 L27.3208,-36.2150 L27.3208,-33.8326 Z M27.3208,-29.7346 L24.7266,-29.7346 L24.7266,-32.1170 L27.3208,-32.1170 L27.3208,-29.7346 Z M31.7445,-33.8326 L29.1504,-33.8326 L29.1504,-36.2150 L31.7445,-36.2150 L31.7445,-33.8326 Z M31.7445,-29.7346 L29.1504,-29.7346 L29.1504,-32.1170 L31.7445,-32.1170 L31.7445,-29.7346 Z M36.1682,-17.4405 L33.5741,-17.4405 L33.5741,-19.8229 L36.1682,-19.8229 L36.1682,-17.4405 Z M36.1682,-21.5385 L33.5741,-21.5385 L33.5741,-23.9209 L36.1682,-23.9209 L36.1682,-21.5385 Z M36.1682,-25.6366 L33.5741,-25.6366 L33.5741,-28.0189 L36.1682,-28.0189 L36.1682,-25.6366 Z M40.5919,-17.4405 L37.9978,-17.4405 L37.9978,-19.8229 L40.5919,-19.8229 L40.5919,-17.4405 Z M40.5919,-21.5385 L37.9978,-21.5385 L37.9978,-23.9209 L40.5919,-23.9209 L40.5919,-21.5385 Z M40.5919,-25.6366 L37.9978,-25.6366 L37.9978,-28.0189 L40.5919,-28.0189 L40.5919,-25.6366 Z" style="fill-rule: evenodd; fill: #333333; "/>
    <path xmlns="http://www.w3.org/2000/svg" d="  M5.6417,5.2529 L2.6029,5.2529 L2.6029,-1.9100 L5.6417,-1.9100 L5.6417,5.2529 Z M10.0111,5.2529 L6.9723,5.2529 L6.9723,-1.9100 L10.0111,-1.9100 L10.0111,5.2529 Z M14.3806,5.2529 L11.3417,5.2529 L11.3417,-1.9100 L14.3806,-1.9100 L14.3806,5.2529 Z M18.7500,5.2529 L15.7112,5.2529 L15.7112,-1.9100 L18.7500,-1.9100 L18.7500,5.2529 Z M23.1194,5.2529 L20.0806,5.2529 L20.0806,-1.9100 L23.1194,-1.9100 L23.1194,5.2529 Z M27.4888,5.2529 L24.4500,5.2529 L24.4500,-1.9100 L27.4888,-1.9100 L27.4888,5.2529 Z M31.8583,5.2529 L28.8194,5.2529 L28.8194,-1.9100 L31.8583,-1.9100 L31.8583,5.2529 Z M36.2277,5.2529 L33.1889,5.2529 L33.1889,-1.9100 L36.2277,-1.9100 L36.2277,5.2529 Z M40.5971,5.2529 L37.5583,5.2529 L37.5583,-1.9100 L40.5971,-1.9100 L40.5971,5.2529 Z" style="fill-rule: evenodd; fill: #7f7f7f; "/>
    <text xmlns="http://www.w3.org/2000/svg" x="-7.8800" y="18.8250">
      <tspan font-family="Arial" font-size="4.5000" fill="#000000" fill-opacity="1.0000" stroke-opacity="1.0000">
Windows Server with Storage</tspan>
    </text>
    <!--converted by libvisio2svg-->
  </g>
</svg>
