<svg xmlns="http://www.w3.org/2000/svg" xmlns:xlink="http://www.w3.org/1999/xlink" version="1.1" width="43.2000000000" height="7.2000000000">
  <title><![CDATA[Windows Server]]></title>
  <g transform=" scale(1.000000) ">
    <path xmlns="http://www.w3.org/2000/svg" d="  M43.2000,-23.4131 L0.0000,-23.4131 L1.9538,-26.4527 L41.2462,-26.4527 L43.2000,-23.4131 Z" style="fill-rule: evenodd; fill: #b3b3b3; "/>
    <path xmlns="http://www.w3.org/2000/svg" d="  M43.2000,7.2000 L0.0000,7.2000 L0.0000,-23.4131 L43.2000,-23.4131 L43.2000,7.2000 Z" style="fill-rule: evenodd; fill: #7f7f7f; "/>
    <path xmlns="http://www.w3.org/2000/svg" d="  M0.1080,2.2064 L43.0920,2.2064" style="stroke-width: 0.0591; stroke: #000000; stroke-dasharray: none; stroke-linecap: butt; stroke-linejoin: miter; fill: none; "/>
    <path xmlns="http://www.w3.org/2000/svg" d="  M9.6259,-18.8567 L7.0318,-18.8567 L7.0318,-21.2390 L9.6259,-21.2390 L9.6259,-18.8567 Z M9.6259,-14.7586 L7.0318,-14.7586 L7.0318,-17.1410 L9.6259,-17.1410 L9.6259,-14.7586 Z M14.0496,-14.7586 L11.4555,-14.7586 L11.4555,-17.1410 L14.0496,-17.1410 L14.0496,-14.7586 Z M14.0496,-18.8567 L11.4555,-18.8567 L11.4555,-21.2390 L14.0496,-21.2390 L14.0496,-18.8567 Z M18.4734,-14.7586 L15.8792,-14.7586 L15.8792,-17.1410 L18.4734,-17.1410 L18.4734,-14.7586 Z M18.4734,-18.8567 L15.8792,-18.8567 L15.8792,-21.2390 L18.4734,-21.2390 L18.4734,-18.8567 Z M5.2022,-2.4645 L2.6081,-2.4645 L2.6081,-4.8469 L5.2022,-4.8469 L5.2022,-2.4645 Z M5.2022,-6.5626 L2.6081,-6.5626 L2.6081,-8.9449 L5.2022,-8.9449 L5.2022,-6.5626 Z M5.2022,-10.6606 L2.6081,-10.6606 L2.6081,-13.0430 L5.2022,-13.0430 L5.2022,-10.6606 Z M5.2022,-18.8567 L2.6081,-18.8567 L2.6081,-21.2390 L5.2022,-21.2390 L5.2022,-18.8567 Z M5.2022,-14.7586 L2.6081,-14.7586 L2.6081,-17.1410 L5.2022,-17.1410 L5.2022,-14.7586 Z M9.6259,-2.4645 L7.0318,-2.4645 L7.0318,-4.8469 L9.6259,-4.8469 L9.6259,-2.4645 Z M9.6259,-6.5626 L7.0318,-6.5626 L7.0318,-8.9449 L9.6259,-8.9449 L9.6259,-6.5626 Z M9.6259,-10.6606 L7.0318,-10.6606 L7.0318,-13.0430 L9.6259,-13.0430 L9.6259,-10.6606 Z M14.0496,-2.4645 L11.4555,-2.4645 L11.4555,-4.8469 L14.0496,-4.8469 L14.0496,-2.4645 Z M14.0496,-6.5626 L11.4555,-6.5626 L11.4555,-8.9449 L14.0496,-8.9449 L14.0496,-6.5626 Z M14.0496,-10.6606 L11.4555,-10.6606 L11.4555,-13.0430 L14.0496,-13.0430 L14.0496,-10.6606 Z M18.4734,-2.4645 L15.8792,-2.4645 L15.8792,-4.8469 L18.4734,-4.8469 L18.4734,-2.4645 Z M18.4734,-6.5626 L15.8792,-6.5626 L15.8792,-8.9449 L18.4734,-8.9449 L18.4734,-6.5626 Z M18.4734,-10.6606 L15.8792,-10.6606 L15.8792,-13.0430 L18.4734,-13.0430 L18.4734,-10.6606 Z M36.1682,-18.8567 L33.5741,-18.8567 L33.5741,-21.2390 L36.1682,-21.2390 L36.1682,-18.8567 Z M36.1682,-14.7586 L33.5741,-14.7586 L33.5741,-17.1410 L36.1682,-17.1410 L36.1682,-14.7586 Z M40.5919,-14.7586 L37.9978,-14.7586 L37.9978,-17.1410 L40.5919,-17.1410 L40.5919,-14.7586 Z M40.5919,-18.8567 L37.9978,-18.8567 L37.9978,-21.2390 L40.5919,-21.2390 L40.5919,-18.8567 Z M27.3208,-10.6606 L24.7266,-10.6606 L24.7266,-13.0430 L27.3208,-13.0430 L27.3208,-10.6606 Z M31.7445,-10.6606 L29.1504,-10.6606 L29.1504,-13.0430 L31.7445,-13.0430 L31.7445,-10.6606 Z M22.8971,-2.4645 L20.3029,-2.4645 L20.3029,-4.8469 L22.8971,-4.8469 L22.8971,-2.4645 Z M22.8971,-6.5626 L20.3029,-6.5626 L20.3029,-8.9449 L22.8971,-8.9449 L22.8971,-6.5626 Z M22.8971,-10.6606 L20.3029,-10.6606 L20.3029,-13.0430 L22.8971,-13.0430 L22.8971,-10.6606 Z M27.3208,-2.4645 L24.7266,-2.4645 L24.7266,-4.8469 L27.3208,-4.8469 L27.3208,-2.4645 Z M27.3208,-6.5626 L24.7266,-6.5626 L24.7266,-8.9449 L27.3208,-8.9449 L27.3208,-6.5626 Z M31.7445,-2.4645 L29.1504,-2.4645 L29.1504,-4.8469 L31.7445,-4.8469 L31.7445,-2.4645 Z M31.7445,-6.5626 L29.1504,-6.5626 L29.1504,-8.9449 L31.7445,-8.9449 L31.7445,-6.5626 Z M22.8971,-14.7586 L20.3029,-14.7586 L20.3029,-17.1410 L22.8971,-17.1410 L22.8971,-14.7586 Z M22.8971,-18.8567 L20.3029,-18.8567 L20.3029,-21.2390 L22.8971,-21.2390 L22.8971,-18.8567 Z M27.3208,-18.8567 L24.7266,-18.8567 L24.7266,-21.2390 L27.3208,-21.2390 L27.3208,-18.8567 Z M27.3208,-14.7586 L24.7266,-14.7586 L24.7266,-17.1410 L27.3208,-17.1410 L27.3208,-14.7586 Z M31.7445,-18.8567 L29.1504,-18.8567 L29.1504,-21.2390 L31.7445,-21.2390 L31.7445,-18.8567 Z M31.7445,-14.7586 L29.1504,-14.7586 L29.1504,-17.1410 L31.7445,-17.1410 L31.7445,-14.7586 Z M36.1682,-2.4645 L33.5741,-2.4645 L33.5741,-4.8469 L36.1682,-4.8469 L36.1682,-2.4645 Z M36.1682,-6.5626 L33.5741,-6.5626 L33.5741,-8.9449 L36.1682,-8.9449 L36.1682,-6.5626 Z M36.1682,-10.6606 L33.5741,-10.6606 L33.5741,-13.0430 L36.1682,-13.0430 L36.1682,-10.6606 Z M40.5919,-2.4645 L37.9978,-2.4645 L37.9978,-4.8469 L40.5919,-4.8469 L40.5919,-2.4645 Z M40.5919,-6.5626 L37.9978,-6.5626 L37.9978,-8.9449 L40.5919,-8.9449 L40.5919,-6.5626 Z M40.5919,-10.6606 L37.9978,-10.6606 L37.9978,-13.0430 L40.5919,-13.0430 L40.5919,-10.6606 Z" style="fill-rule: evenodd; fill: #333333; "/>
    <text xmlns="http://www.w3.org/2000/svg" x="-9.0200" y="13.2000">
      <tspan font-family="Arial" font-size="4.5000" fill="#000000" fill-opacity="1.0000" stroke-opacity="1.0000">
Windows Server</tspan>
    </text>
    <!--converted by libvisio2svg-->
  </g>
</svg>
