<svg xmlns="http://www.w3.org/2000/svg" xmlns:xlink="http://www.w3.org/1999/xlink" version="1.1" width="43.2000000000" height="7.2000000000">
  <title><![CDATA[WorkGroup Servers]]></title>
  <g transform=" scale(1.000000) ">
    <path xmlns="http://www.w3.org/2000/svg" d="  M43.2116,3.4127 L-0.0116,3.4127 L2.1769,0.3123 L41.0231,0.3123 L43.2116,3.4127 Z M43.2116,-3.1528 L-0.0116,-3.1528 L2.1769,-6.2532 L41.0231,-6.2532 L43.2116,-3.1528 Z" style="fill-rule: evenodd; fill: #b3b3b3; "/>
    <path xmlns="http://www.w3.org/2000/svg" d="  M43.2116,0.8595 L-0.0116,0.8595 L-0.0116,-3.1528 L43.2116,-3.1528 L43.2116,0.8595 Z M43.2116,7.4250 L-0.0116,7.4250 L-0.0116,3.4127 L43.2116,3.4127 L43.2116,7.4250 Z" style="fill-rule: evenodd; fill: #333333; "/>
    <path xmlns="http://www.w3.org/2000/svg" d="  M8.9249,0.4947 L1.4474,0.4947 L1.4474,-2.6057 L8.9249,-2.6057 L8.9249,0.4947 Z M8.9249,6.8779 L1.4474,6.8779 L1.4474,3.7775 L8.9249,3.7775 L8.9249,6.8779 Z M34.2751,0.4947 L41.7526,0.4947 L41.7526,-2.6057 L34.2751,-2.6057 L34.2751,0.4947 Z M34.2751,6.8779 L41.7526,6.8779 L41.7526,3.7775 L34.2751,3.7775 L34.2751,6.8779 Z" style="fill-rule: evenodd; fill: #7f7f7f; "/>
    <path xmlns="http://www.w3.org/2000/svg" d="  M1.0827,6.8779 C1.9946,6.8779 2.7241,6.3307 2.7241,5.4189 C2.7241,4.5070 1.9946,3.7775 1.0827,3.7775 C1.0827,6.8779 1.0827,6.8779 1.0827,6.8779 Z M1.0827,0.4947 C1.9946,0.4947 2.7241,-0.2348 2.7241,-1.1467 C2.7241,-2.0586 1.9946,-2.6057 1.0827,-2.6057 C1.0827,0.4947 1.0827,0.4947 1.0827,0.4947 Z M42.1173,0.4947 C41.2054,0.4947 40.4759,-0.2348 40.4759,-1.1467 C40.4759,-2.0586 41.2054,-2.6057 42.1173,-2.6057 C42.1173,0.4947 42.1173,0.4947 42.1173,0.4947 Z M42.1173,6.8779 C41.2054,6.8779 40.4759,6.3307 40.4759,5.4189 C40.4759,4.5070 41.2054,3.7775 42.1173,3.7775 C42.1173,6.8779 42.1173,6.8779 42.1173,6.8779 Z" style="fill-rule: evenodd; fill: #333333; "/>
    <path xmlns="http://www.w3.org/2000/svg" d="  M23.6973,5.4189 C23.6973,6.1484 22.7854,6.8779 21.5088,6.8779 C20.4146,6.8779 19.5027,6.1484 19.5027,5.4189 C19.5027,4.6894 20.4146,3.9599 21.5088,3.9599 C22.7854,3.9599 23.6973,4.6894 23.6973,5.4189 Z M23.6973,-1.1467 C23.6973,-0.2348 22.7854,0.3123 21.5088,0.3123 C20.4146,0.3123 19.5027,-0.2348 19.5027,-1.1467 C19.5027,-1.8762 20.4146,-2.6057 21.5088,-2.6057 C22.7854,-2.6057 23.6973,-1.8762 23.6973,-1.1467 Z" style="fill-rule: evenodd; fill: #ffffff; "/>
    <text xmlns="http://www.w3.org/2000/svg" x="-8.2850" y="15.3000">
      <tspan font-family="Arial" font-size="4.5000" fill="#000000" fill-opacity="1.0000" stroke-opacity="1.0000">
WorkGroup Servers</tspan>
    </text>
    <!--converted by libvisio2svg-->
  </g>
</svg>
