<svg xmlns="http://www.w3.org/2000/svg" xmlns:xlink="http://www.w3.org/1999/xlink" version="1.1" width="43.2000000000" height="7.2000000000">
  <title><![CDATA[WorkGroup Servers.]]></title>
  <g transform=" scale(1.000000) ">
    <path xmlns="http://www.w3.org/2000/svg" d="  M43.3939,3.1877 L-0.1939,3.1877 L2.1769,-0.0950 L41.2054,-0.0950 L43.3939,3.1877 Z M43.3939,-3.3778 L-0.1939,-3.3778 L2.1769,-6.4782 L41.2054,-6.4782 L43.3939,-3.3778 Z M43.3939,-9.9434 L-0.1939,-9.9434 L2.1769,-13.0437 L41.2054,-13.0437 L43.3939,-9.9434 Z M43.3939,-16.5089 L-0.1939,-16.5089 L2.1769,-19.6093 L41.2054,-19.6093 L43.3939,-16.5089 Z" style="fill-rule: evenodd; fill: #b3b3b3; "/>
    <path xmlns="http://www.w3.org/2000/svg" d="  M43.3939,7.2000 L-0.1939,7.2000 L-0.1939,3.1877 L43.3939,3.1877 L43.3939,7.2000 Z M43.3939,0.6345 L-0.1939,0.6345 L-0.1939,-3.3778 L43.3939,-3.3778 L43.3939,0.6345 Z M43.3939,-5.9311 L-0.1939,-5.9311 L-0.1939,-9.9434 L43.3939,-9.9434 L43.3939,-5.9311 Z M43.3939,-12.4966 L-0.1939,-12.4966 L-0.1939,-16.5089 L43.3939,-16.5089 L43.3939,-12.4966 Z" style="fill-rule: evenodd; fill: #333333; "/>
    <path xmlns="http://www.w3.org/2000/svg" d="  M8.7425,6.8352 L1.2651,6.8352 L1.2651,3.5525 L8.7425,3.5525 L8.7425,6.8352 Z M8.7425,0.2697 L1.2651,0.2697 L1.2651,-3.0131 L8.7425,-3.0131 L8.7425,0.2697 Z M8.7425,-6.2958 L1.2651,-6.2958 L1.2651,-9.5786 L8.7425,-9.5786 L8.7425,-6.2958 Z M8.7425,-12.8614 L1.2651,-12.8614 L1.2651,-15.9618 L8.7425,-15.9618 L8.7425,-12.8614 Z M34.4575,-12.8614 L41.9349,-12.8614 L41.9349,-15.9618 L34.4575,-15.9618 L34.4575,-12.8614 Z M34.4575,-6.2958 L41.9349,-6.2958 L41.9349,-9.5786 L34.4575,-9.5786 L34.4575,-6.2958 Z M34.4575,0.2697 L41.9349,0.2697 L41.9349,-3.0131 L34.4575,-3.0131 L34.4575,0.2697 Z M34.4575,6.8352 L41.9349,6.8352 L41.9349,3.5525 L34.4575,3.5525 L34.4575,6.8352 Z" style="fill-rule: evenodd; fill: #7f7f7f; "/>
    <path xmlns="http://www.w3.org/2000/svg" d="  M1.0827,6.8352 C1.8122,6.8352 2.5417,6.1057 2.5417,5.1939 C2.5417,4.2820 1.8122,3.5525 1.0827,3.5525 C1.0827,6.8352 1.0827,6.8352 1.0827,6.8352 Z M1.0827,0.2697 C1.8122,0.2697 2.5417,-0.4598 2.5417,-1.3717 C2.5417,-2.2836 1.8122,-3.0131 1.0827,-3.0131 C1.0827,0.2697 1.0827,0.2697 1.0827,0.2697 Z M1.0827,-6.2958 C1.8122,-6.2958 2.5417,-7.0253 2.5417,-7.9372 C2.5417,-8.8491 1.8122,-9.5786 1.0827,-9.5786 C1.0827,-6.2958 1.0827,-6.2958 1.0827,-6.2958 Z M1.0827,-12.8614 C1.8122,-12.8614 2.5417,-13.5909 2.5417,-14.5028 C2.5417,-15.4146 1.8122,-15.9618 1.0827,-15.9618 C1.0827,-12.8614 1.0827,-12.8614 1.0827,-12.8614 Z M42.2997,-12.8614 C41.3878,-12.8614 40.6583,-13.5909 40.6583,-14.5028 C40.6583,-15.4146 41.3878,-15.9618 42.2997,-15.9618 C42.2997,-12.8614 42.2997,-12.8614 42.2997,-12.8614 Z M42.2997,-6.2958 C41.3878,-6.2958 40.6583,-7.0253 40.6583,-7.9372 C40.6583,-8.8491 41.3878,-9.5786 42.2997,-9.5786 C42.2997,-6.2958 42.2997,-6.2958 42.2997,-6.2958 Z M42.2997,0.2697 C41.3878,0.2697 40.6583,-0.4598 40.6583,-1.3717 C40.6583,-2.2836 41.3878,-3.0131 42.2997,-3.0131 C42.2997,0.2697 42.2997,0.2697 42.2997,0.2697 Z M42.2997,6.8352 C41.3878,6.8352 40.6583,6.1057 40.6583,5.1939 C40.6583,4.2820 41.3878,3.5525 42.2997,3.5525 C42.2997,6.8352 42.2997,6.8352 42.2997,6.8352 Z" style="fill-rule: evenodd; fill: #333333; "/>
    <path xmlns="http://www.w3.org/2000/svg" d="  M23.8797,5.1939 C23.8797,5.9234 22.7854,6.6529 21.6912,6.6529 C20.4146,6.6529 19.3203,5.9234 19.3203,5.1939 C19.3203,4.4644 20.4146,3.7349 21.6912,3.7349 C22.7854,3.7349 23.8797,4.4644 23.8797,5.1939 Z M23.8797,-1.3717 C23.8797,-0.6422 22.7854,0.0873 21.6912,0.0873 C20.4146,0.0873 19.3203,-0.6422 19.3203,-1.3717 C19.3203,-2.1012 20.4146,-2.8307 21.6912,-2.8307 C22.7854,-2.8307 23.8797,-2.1012 23.8797,-1.3717 Z M23.8797,-7.9372 C23.8797,-7.2077 22.7854,-6.4782 21.6912,-6.4782 C20.4146,-6.4782 19.3203,-7.2077 19.3203,-7.9372 C19.3203,-8.6667 20.4146,-9.3962 21.6912,-9.3962 C22.7854,-9.3962 23.8797,-8.6667 23.8797,-7.9372 Z M23.8797,-14.5028 C23.8797,-13.5909 22.7854,-13.0437 21.6912,-13.0437 C20.4146,-13.0437 19.3203,-13.5909 19.3203,-14.5028 C19.3203,-15.2323 20.4146,-15.9618 21.6912,-15.9618 C22.7854,-15.9618 23.8797,-15.2323 23.8797,-14.5028 Z" style="fill-rule: evenodd; fill: #ffffff; "/>
    <text xmlns="http://www.w3.org/2000/svg" x="-9.1100" y="16.8429">
      <tspan font-family="Arial" font-size="4.5000" fill="#000000" fill-opacity="1.0000" stroke-opacity="1.0000">
WorkGroup Servers</tspan>
    </text>
    <!--converted by libvisio2svg-->
  </g>
</svg>
