<svg xmlns="http://www.w3.org/2000/svg" xmlns:xlink="http://www.w3.org/1999/xlink" version="1.1" width="43.2000000000" height="7.2000000000">
  <title><![CDATA[Worm to Worm with SnapMirror]]></title>
  <g transform=" scale(1.000000) ">
    <path xmlns="http://www.w3.org/2000/svg" d="  M30.9012,6.3142 C30.9012,-7.5638 30.9012,-7.5638 30.9012,-7.5638 C33.8539,-9.6307 33.8539,-9.6307 33.8539,-9.6307 C30.9012,-11.6976 30.9012,-11.6976 30.9012,-11.6976 C30.9012,-18.1937 30.9012,-18.1937 30.9012,-18.1937 C31.1965,-18.1937 31.1965,-18.1937 31.1965,-18.1937 C32.6728,-18.1937 33.8539,-19.3748 33.8539,-20.5559 C33.8539,-22.0323 32.6728,-23.2134 31.1965,-23.2134 C30.9012,-23.2134 30.9012,-23.2134 30.9012,-23.2134 C30.9012,-25.5756 30.9012,-25.5756 30.9012,-25.5756 C49.7988,-36.5008 49.7988,-36.5008 49.7988,-36.5008 C49.7988,-4.6110 49.7988,-4.6110 49.7988,-4.6110 C30.9012,6.3142 30.9012,6.3142 30.9012,6.3142 Z M-6.8941,6.9047 L12.5941,-4.6110 L12.5941,-37.0913 L-6.8941,-25.8709 L-6.8941,6.9047 Z" style="fill-rule: evenodd; fill: #f2f2f2; "/>
    <path xmlns="http://www.w3.org/2000/svg" d="  M6.0980,-17.8984 C6.0980,-21.7370 6.0980,-21.7370 6.0980,-21.7370 C6.0980,-23.2134 4.9169,-23.5087 3.4406,-22.9181 C2.2594,-22.0323 2.2594,-22.0323 2.2594,-22.0323 C0.7831,-21.1465 -0.3980,-19.3748 -0.3980,-17.8984 C-0.3980,-14.0598 -0.3980,-14.0598 -0.3980,-14.0598 C-0.3980,-14.0598 -0.1028,-14.0598 0.1925,-14.3551 C0.1925,-14.3551 0.4878,-14.6504 0.4878,-14.6504 C0.4878,-18.4890 0.4878,-18.4890 0.4878,-18.4890 C0.4878,-19.3748 1.3736,-20.5559 2.2594,-21.1465 C3.1453,-21.7370 3.1453,-21.7370 3.1453,-21.7370 C4.3264,-22.3276 5.2122,-22.0323 5.2122,-20.8512 C5.2122,-17.3079 5.2122,-17.3079 5.2122,-17.3079 C5.2122,-17.3079 5.2122,-17.3079 5.5075,-17.3079 C5.8028,-17.6031 6.0980,-17.8984 6.0980,-17.8984 Z" style="fill-rule: evenodd; fill: #7f7f7f; "/>
    <path xmlns="http://www.w3.org/2000/svg" d="  M-7.0417,6.9047 L12.7417,-4.3157 L12.7417,-37.0913 L-7.0417,-25.5756 L-7.0417,6.9047 Z" style="stroke-width: 0.0591; stroke: #7f7f7f; stroke-dasharray: none; stroke-linecap: round; stroke-linejoin: round; fill: none; "/>
    <path xmlns="http://www.w3.org/2000/svg" d="  M33.8539,-9.6307 C24.7004,-16.4220 24.7004,-16.4220 24.7004,-16.4220 C24.7004,-11.9929 24.7004,-11.9929 24.7004,-11.9929 C12.0035,-11.9929 12.0035,-11.9929 12.0035,-11.9929 C10.5272,-11.9929 9.3461,-11.1071 9.3461,-9.6307 C9.3461,-8.4496 10.5272,-7.2685 12.0035,-7.2685 C24.7004,-7.2685 24.7004,-7.2685 24.7004,-7.2685 C24.7004,-2.8394 24.7004,-2.8394 24.7004,-2.8394 C33.8539,-9.6307 33.8539,-9.6307 33.8539,-9.6307 Z M9.3461,-20.5559 C18.4996,-13.7646 18.4996,-13.7646 18.4996,-13.7646 C18.4996,-18.1937 18.4996,-18.1937 18.4996,-18.1937 C31.1965,-18.1937 31.1965,-18.1937 31.1965,-18.1937 C32.6728,-18.1937 33.8539,-19.3748 33.8539,-20.5559 C33.8539,-22.0323 32.6728,-23.2134 31.1965,-23.2134 C18.4996,-23.2134 18.4996,-23.2134 18.4996,-23.2134 C18.4996,-27.3472 18.4996,-27.3472 18.4996,-27.3472 C9.3461,-20.5559 9.3461,-20.5559 9.3461,-20.5559 Z" style="fill-rule: evenodd; fill: #2061a2; "/>
    <path xmlns="http://www.w3.org/2000/svg" d="  M30.6059,6.9047 L30.9012,7.2000 L50.3894,-4.0205 L50.6846,-4.6110 L50.6846,-37.0913 L50.0941,-37.3866 L30.3106,-26.1661 L30.3106,-25.8709 L30.3106,6.9047 L30.9012,7.2000 L30.6059,6.9047 L30.9012,6.9047 L30.9012,-25.8709 L30.6059,-25.8709 L30.9012,-25.5756 L50.3894,-36.7961 L50.0941,-37.0913 L49.7988,-37.0913 L49.7988,-4.6110 L50.0941,-4.6110 L50.0941,-4.9063 L30.3106,6.6094 L30.6059,6.9047 L30.9012,6.9047 L30.6059,6.9047 Z" style="fill-rule: evenodd; fill: #7f7f7f; "/>
    <path xmlns="http://www.w3.org/2000/svg" d="  M30.9012,6.3142 L49.7988,-4.6110 L49.7988,-36.5008 L49.7988,-4.6110 L30.9012,6.3142 Z" style="fill-rule: evenodd; fill: #b0aeac; "/>
    <path xmlns="http://www.w3.org/2000/svg" d="  M30.3106,-6.9732 L30.3106,-12.2882 L30.9012,-11.6976 L30.9012,-7.5638 L30.3106,-6.9732 Z" style="fill-rule: evenodd; fill: #537091; "/>
    <path xmlns="http://www.w3.org/2000/svg" d="  M30.9012,-11.6976 L30.3106,-12.2882 L30.3106,-18.1937 L30.9012,-18.1937 L30.9012,-11.6976 Z" style="fill-rule: evenodd; fill: #7f7f7f; "/>
    <path xmlns="http://www.w3.org/2000/svg" d="  M30.9012,-18.1937 L30.3106,-18.1937 L30.3106,-23.2134 L30.9012,-23.2134 L30.9012,-18.1937 Z" style="fill-rule: evenodd; fill: #537091; "/>
    <path xmlns="http://www.w3.org/2000/svg" d="  M43.5980,-17.8984 C43.5980,-21.7370 43.5980,-21.7370 43.5980,-21.7370 C43.5980,-23.2134 42.4169,-23.5087 40.9406,-22.9181 C39.7594,-22.0323 39.7594,-22.0323 39.7594,-22.0323 C38.2831,-21.1465 37.1020,-19.3748 37.1020,-17.8984 C37.1020,-14.0598 37.1020,-14.0598 37.1020,-14.0598 C37.1020,-14.0598 37.3972,-14.0598 37.6925,-14.3551 C37.9878,-14.3551 37.9878,-14.6504 37.9878,-14.6504 C37.9878,-18.4890 37.9878,-18.4890 37.9878,-18.4890 C37.9878,-19.3748 38.8736,-20.5559 40.0547,-21.1465 C40.9406,-21.7370 40.9406,-21.7370 40.9406,-21.7370 C41.8264,-22.3276 42.7122,-22.0323 42.7122,-20.8512 C42.7122,-17.3079 42.7122,-17.3079 42.7122,-17.3079 C42.7122,-17.3079 43.0075,-17.3079 43.3028,-17.3079 C43.3028,-17.6031 43.5980,-17.8984 43.5980,-17.8984 Z" style="fill-rule: evenodd; fill: #7f7f7f; "/>
    <path xmlns="http://www.w3.org/2000/svg" d="  M30.9012,-7.5638 L30.9012,-11.6976 L33.8539,-9.6307 L30.9012,-7.5638 Z M31.1965,-18.1937 C30.9012,-18.1937 30.9012,-18.1937 30.9012,-18.1937 C30.9012,-23.2134 30.9012,-23.2134 30.9012,-23.2134 C31.1965,-23.2134 31.1965,-23.2134 31.1965,-23.2134 C32.6728,-23.2134 33.8539,-22.0323 33.8539,-20.5559 C33.8539,-19.3748 32.6728,-18.1937 31.1965,-18.1937 Z" style="fill-rule: evenodd; fill: #819dc1; "/>
    <path xmlns="http://www.w3.org/2000/svg" d="  M50.0941,-4.6110 Z M50.0941,-4.6110 Z M30.9012,7.2000 L30.6059,6.9047 L30.9012,7.2000 L30.6059,6.9047 L30.9012,7.2000 L30.3106,6.9047 L30.3106,-6.9732 L30.9012,-7.5638 L30.9012,6.3142 L49.7988,-4.6110 L49.7988,-36.5008 L30.9012,-25.5756 L30.9012,-23.2134 L30.3106,-23.2134 L30.3106,-25.8709 L30.3106,-26.1661 L50.0941,-37.3866 L50.6846,-37.0913 L50.6846,-4.6110 L50.3894,-4.0205 L30.9012,7.2000 Z" style="fill-rule: evenodd; fill: #7f7f7f; "/>
    <path xmlns="http://www.w3.org/2000/svg" d="  M44.4839,-14.9457 C36.2161,-10.2213 36.2161,-10.2213 36.2161,-10.2213 C35.9209,-10.2213 35.9209,-10.2213 35.9209,-10.2213 C35.9209,-10.2213 35.3303,-9.9260 35.0350,-10.2213 C35.0350,-9.3354 35.0350,-9.3354 35.0350,-9.3354 C35.0350,-9.0402 35.0350,-9.0402 35.0350,-9.0402 C35.0350,-8.7449 35.9209,-9.0402 36.2161,-9.0402 C44.4839,-13.7646 44.4839,-13.7646 44.4839,-13.7646 C44.7791,-14.0598 45.6650,-14.9457 45.6650,-15.2409 C45.6650,-15.5362 45.6650,-15.5362 45.6650,-15.5362 C45.6650,-16.4220 45.6650,-16.4220 45.6650,-16.4220 C45.3697,-15.8315 44.7791,-15.2409 44.4839,-14.9457 Z M44.4839,-13.1740 C36.2161,-8.4496 36.2161,-8.4496 36.2161,-8.4496 C35.9209,-8.4496 35.9209,-8.4496 35.9209,-8.4496 C35.9209,-8.4496 35.3303,-8.1543 35.0350,-8.4496 C35.0350,-7.5638 35.0350,-7.5638 35.0350,-7.5638 C35.0350,-7.2685 35.0350,-7.2685 35.0350,-7.2685 C35.0350,-6.9732 35.9209,-6.9732 36.2161,-6.9732 C44.4839,-11.6976 44.4839,-11.6976 44.4839,-11.6976 C44.7791,-12.2882 45.6650,-13.1740 45.6650,-13.4693 C45.6650,-14.6504 45.6650,-14.6504 45.6650,-14.6504 C45.3697,-14.0598 44.7791,-13.4693 44.4839,-13.1740 Z M44.4839,-16.7173 C36.2161,-11.9929 36.2161,-11.9929 36.2161,-11.9929 C35.9209,-11.9929 35.9209,-11.9929 35.9209,-11.9929 C35.9209,-11.9929 35.3303,-11.9929 35.0350,-11.9929 C35.0350,-11.1071 35.0350,-11.1071 35.0350,-11.1071 C35.0350,-10.8118 35.0350,-10.8118 35.0350,-10.8118 C35.0350,-10.5165 35.9209,-10.8118 36.2161,-10.8118 C44.4839,-15.5362 44.4839,-15.5362 44.4839,-15.5362 C44.7791,-15.8315 45.6650,-16.7173 45.6650,-17.0126 C45.6650,-17.3079 45.6650,-17.3079 45.6650,-17.3079 C45.6650,-18.1937 45.6650,-18.1937 45.6650,-18.1937 C45.3697,-17.6031 44.7791,-17.0126 44.4839,-16.7173 Z M44.4839,-11.4024 C36.2161,-6.3827 36.2161,-6.3827 36.2161,-6.3827 C35.9209,-6.3827 35.9209,-6.3827 35.9209,-6.3827 C35.9209,-6.3827 35.3303,-6.3827 35.0350,-6.6780 C35.0350,-5.7921 35.0350,-5.7921 35.0350,-5.7921 C35.0350,-5.2016 36.2161,-5.2016 36.2161,-5.2016 C44.4839,-9.9260 44.4839,-9.9260 44.4839,-9.9260 C44.4839,-9.9260 45.6650,-11.1071 45.6650,-11.6976 C45.6650,-12.5835 45.6650,-12.5835 45.6650,-12.5835 C45.3697,-11.9929 44.7791,-11.4024 44.4839,-11.4024 Z M45.6650,-19.0795 C45.6650,-19.6701 44.4839,-19.3748 44.4839,-19.3748 C36.2161,-14.6504 36.2161,-14.6504 36.2161,-14.6504 C36.2161,-14.6504 35.0350,-13.4693 35.0350,-12.8787 C35.0350,-12.2882 36.2161,-12.5835 36.2161,-12.5835 C44.4839,-17.3079 44.4839,-17.3079 44.4839,-17.3079 C44.4839,-17.3079 45.6650,-18.4890 45.6650,-19.0795 Z M8.1650,-19.0795 C8.1650,-19.6701 6.9839,-19.3748 6.9839,-19.3748 C-1.2839,-14.6504 -1.2839,-14.6504 -1.2839,-14.6504 C-1.2839,-14.6504 -2.4650,-13.4693 -2.4650,-12.8787 C-2.4650,-12.2882 -1.2839,-12.5835 -1.2839,-12.5835 C6.9839,-17.3079 6.9839,-17.3079 6.9839,-17.3079 C6.9839,-17.3079 8.1650,-18.4890 8.1650,-19.0795 Z M6.9839,-14.9457 C-1.2839,-10.2213 -1.2839,-10.2213 -1.2839,-10.2213 C-1.5791,-10.2213 -1.5791,-10.2213 -1.5791,-10.2213 C-1.5791,-10.2213 -2.1697,-9.9260 -2.4650,-10.2213 C-2.4650,-9.3354 -2.4650,-9.3354 -2.4650,-9.3354 C-2.4650,-9.0402 -2.4650,-9.0402 -2.4650,-9.0402 C-2.4650,-8.7449 -1.5791,-9.0402 -1.2839,-9.0402 C6.9839,-13.7646 6.9839,-13.7646 6.9839,-13.7646 C7.2791,-14.0598 8.1650,-14.9457 8.1650,-15.2409 C8.1650,-15.5362 8.1650,-15.5362 8.1650,-15.5362 C8.1650,-16.4220 8.1650,-16.4220 8.1650,-16.4220 C7.8697,-15.8315 7.2791,-15.2409 6.9839,-14.9457 Z M6.9839,-13.1740 C-1.2839,-8.4496 -1.2839,-8.4496 -1.2839,-8.4496 C-1.5791,-8.4496 -1.5791,-8.4496 -1.5791,-8.4496 C-1.5791,-8.4496 -2.1697,-8.1543 -2.4650,-8.4496 C-2.4650,-7.5638 -2.4650,-7.5638 -2.4650,-7.5638 C-2.4650,-7.2685 -2.4650,-7.2685 -2.4650,-7.2685 C-2.4650,-6.9732 -1.5791,-6.9732 -1.2839,-6.9732 C6.9839,-11.6976 6.9839,-11.6976 6.9839,-11.6976 C7.2791,-12.2882 8.1650,-13.1740 8.1650,-13.4693 C8.1650,-14.6504 8.1650,-14.6504 8.1650,-14.6504 C7.8697,-14.0598 7.2791,-13.4693 6.9839,-13.1740 Z M6.9839,-16.7173 C-1.2839,-11.9929 -1.2839,-11.9929 -1.2839,-11.9929 C-1.5791,-11.9929 -1.5791,-11.9929 -1.5791,-11.9929 C-1.5791,-11.9929 -2.1697,-11.9929 -2.4650,-11.9929 C-2.4650,-11.1071 -2.4650,-11.1071 -2.4650,-11.1071 C-2.4650,-10.8118 -2.4650,-10.8118 -2.4650,-10.8118 C-2.4650,-10.5165 -1.5791,-10.8118 -1.2839,-10.8118 C6.9839,-15.5362 6.9839,-15.5362 6.9839,-15.5362 C7.2791,-15.8315 8.1650,-16.7173 8.1650,-17.0126 C8.1650,-17.3079 8.1650,-17.3079 8.1650,-17.3079 C8.1650,-18.1937 8.1650,-18.1937 8.1650,-18.1937 C7.8697,-17.6031 7.2791,-17.0126 6.9839,-16.7173 Z M6.9839,-11.4024 C-1.2839,-6.3827 -1.2839,-6.3827 -1.2839,-6.3827 C-1.5791,-6.3827 -1.5791,-6.3827 -1.5791,-6.3827 C-1.5791,-6.3827 -2.1697,-6.3827 -2.4650,-6.6780 C-2.4650,-5.7921 -2.4650,-5.7921 -2.4650,-5.7921 C-2.4650,-5.2016 -1.2839,-5.2016 -1.2839,-5.2016 C6.9839,-9.9260 6.9839,-9.9260 6.9839,-9.9260 C6.9839,-9.9260 8.1650,-11.1071 8.1650,-11.6976 C8.1650,-12.5835 8.1650,-12.5835 8.1650,-12.5835 C7.8697,-11.9929 7.2791,-11.4024 6.9839,-11.4024 Z" style="fill-rule: evenodd; fill: #7f7f7f; "/>
    <path xmlns="http://www.w3.org/2000/svg" d="  M2.2594,-22.3276 C0.7831,-21.4417 -0.6933,-19.3748 -0.6933,-17.8984 C-0.6933,-13.7646 -0.6933,-13.7646 -0.6933,-13.7646 C-0.3980,-13.7646 -0.3980,-13.7646 -0.3980,-13.7646 C-0.3980,-13.7646 -0.1028,-13.7646 0.1925,-14.0598 C0.1925,-14.0598 0.4878,-14.3551 0.4878,-14.3551 C0.7831,-14.6504 0.7831,-14.6504 0.7831,-14.6504 C0.7831,-18.4890 0.7831,-18.4890 0.7831,-18.4890 C0.7831,-19.3748 1.3736,-20.5559 2.2594,-21.1465 C3.1453,-21.4417 3.1453,-21.4417 3.1453,-21.4417 C4.0311,-22.0323 4.9169,-21.7370 4.9169,-20.8512 C4.9169,-17.0126 4.9169,-17.0126 4.9169,-17.0126 C4.9169,-17.0126 5.2122,-17.0126 5.5075,-17.3079 C5.8028,-17.3079 6.0980,-17.6031 6.0980,-17.6031 C6.0980,-17.8984 6.0980,-17.8984 6.0980,-17.8984 C6.0980,-21.7370 6.0980,-21.7370 6.0980,-21.7370 C6.0980,-23.2134 4.9169,-23.8039 3.4406,-22.9181 C2.2594,-22.3276 2.2594,-22.3276 2.2594,-22.3276 Z M39.7594,-22.3276 C38.2831,-21.4417 37.1020,-19.3748 37.1020,-17.8984 C37.1020,-13.7646 37.1020,-13.7646 37.1020,-13.7646 C37.1020,-13.7646 37.3972,-13.7646 37.6925,-14.0598 C37.9878,-14.0598 38.2831,-14.3551 38.2831,-14.3551 C38.2831,-14.6504 38.2831,-14.6504 38.2831,-14.6504 C38.2831,-18.4890 38.2831,-18.4890 38.2831,-18.4890 C38.2831,-19.3748 39.1689,-20.5559 40.0547,-21.1465 C40.9406,-21.4417 40.9406,-21.4417 40.9406,-21.4417 C41.8264,-22.0323 42.4169,-21.7370 42.4169,-20.8512 C42.4169,-17.0126 42.4169,-17.0126 42.4169,-17.0126 C42.7122,-17.0126 42.7122,-17.0126 42.7122,-17.0126 C42.7122,-17.0126 43.0075,-17.0126 43.3028,-17.3079 C43.5980,-17.3079 43.5980,-17.6031 43.5980,-17.6031 C43.8933,-17.8984 43.8933,-17.8984 43.8933,-17.8984 C43.8933,-21.7370 43.8933,-21.7370 43.8933,-21.7370 C43.8933,-23.2134 42.7122,-23.8039 40.9406,-22.9181 C39.7594,-22.3276 39.7594,-22.3276 39.7594,-22.3276 Z" style="fill-rule: evenodd; fill: #7f7f7f; "/>
    <text xmlns="http://www.w3.org/2000/svg" x="-7.4000" y="16.7400">
      <tspan font-family="Arial" font-size="4.5000" fill="#000000" fill-opacity="1.0000" stroke-opacity="1.0000">
Worm to Worm with SnapMirror</tspan>
    </text>
    <!--converted by libvisio2svg-->
  </g>
</svg>
