<svg xmlns="http://www.w3.org/2000/svg" xmlns:xlink="http://www.w3.org/1999/xlink" version="1.1" width="29.8800000000" height="7.2000000000">
  <title><![CDATA[Disk Drive]]></title>
  <g transform=" scale(1.000000) ">
    <path xmlns="http://www.w3.org/2000/svg" d="  M30.5298,7.0192 L30.5298,3.0952 L29.8098,3.0952 L29.8098,0.1792 A0.1800,0.1800 0.0000 0,0 29.6298,-0.0008 L0.1098,-0.0008 A0.1800,0.1800 0.0000 0,0 -0.0702,0.1792 L-0.0702,7.0192 A0.1800,0.1800 0.0000 0,0 0.1098,7.1992 L29.8098,7.1992 L30.3498,7.1992 A0.1800,0.1800 0.0000 0,0 30.5298,7.0192 Z" style="fill-rule: evenodd; fill: #333333; "/>
    <defs xmlns="http://www.w3.org/2000/svg">
      <linearGradient id="grad1">
        <stop offset="0%" stop-color="#333333" stop-opacity="1.0000"/>
        <stop offset="50%" stop-color="#808080" stop-opacity="1.0000"/>
        <stop offset="100%" stop-color="#333333" stop-opacity="1.0000"/>
      </linearGradient>
    </defs>
    <path xmlns="http://www.w3.org/2000/svg" d="  M4.4417,-0.0008 L2.6435,-0.0008 L0.1098,-0.0008 A0.1800,0.1800 0.0000 0,0 -0.0702,0.1792 L-0.0702,7.0192 A0.1800,0.1800 0.0000 0,0 0.1098,7.1992 L2.6914,7.1992 L4.4417,7.1992 L7.3098,7.1992 L7.3098,-0.0008 L4.3938,-0.0008 Z" style="fill-rule: evenodd; fill: url(#grad1); "/>
    <g xmlns="http://www.w3.org/2000/svg" id="Layer1001">
      <defs>
        <linearGradient id="grad2">
          <stop offset="0%" stop-color="#333333" stop-opacity="1.0000"/>
          <stop offset="50%" stop-color="#808080" stop-opacity="1.0000"/>
          <stop offset="100%" stop-color="#333333" stop-opacity="1.0000"/>
        </linearGradient>
      </defs>
      <path d="  M25.0938,7.1992 L27.0036,7.1992 L30.3498,7.1992 A0.1800,0.1800 0.0000 0,0 30.5298,7.0192 L30.5298,3.0952 L29.8098,3.0952 L29.8098,0.1792 A0.1800,0.1800 0.0000 0,0 29.6298,-0.0008 L26.9546,-0.0008 L25.0938,-0.0008 L22.4217,-0.0008 L22.4217,7.1992 L25.1199,7.1992 Z" style="fill-rule: evenodd; fill: url(#grad2); "/>
      <text x="26.4217" y="3.5992">
        <tspan font-family="Arial" font-size="6.0000" fill="#000000" fill-opacity="1.0000" stroke-opacity="1.0000">
</tspan>
      </text>
    </g>
    <defs xmlns="http://www.w3.org/2000/svg">
      <linearGradient id="grad3">
        <stop offset="0%" stop-color="#333333" stop-opacity="1.0000"/>
        <stop offset="50%" stop-color="#666666" stop-opacity="1.0000"/>
        <stop offset="100%" stop-color="#333333" stop-opacity="1.0000"/>
      </linearGradient>
    </defs>
    <path xmlns="http://www.w3.org/2000/svg" d="  M19.3338,7.1992 L22.4478,7.1992 L22.4478,-0.0008 L19.3338,-0.0008 L7.2927,-0.0008 L7.2927,7.1992 L19.3509,7.1992 Z" style="fill-rule: evenodd; fill: url(#grad3); "/>
    <g xmlns="http://www.w3.org/2000/svg" xmlns:xlink="http://www.w3.org/1999/xlink" id="Layer1002">
      <defs>
        <linearGradient id="grad4">
          <stop offset="0%" stop-color="#333333" stop-opacity="1.0000"/>
          <stop offset="50%" stop-color="#1a1a1a" stop-opacity="1.0000"/>
          <stop offset="100%" stop-color="#333333" stop-opacity="1.0000"/>
        </linearGradient>
        <linearGradient xlink:href="#grad4" id="grad5" x1="0" y1="0" x2="0" y2="1" gradientTransform="rotate(-0 .5 .5)" gradientUnits="objectBoundingBox">
  </linearGradient>
      </defs>
      <path d="  M2.5002,6.6592 L30.3498,6.6592 A0.1800,0.1800 0.0000 0,1 30.5298,6.8392 L30.5298,6.6592 L30.5298,3.0952 L29.8098,3.0952 L29.8098,0.3592 A0.1800,0.1800 0.0000 0,1 29.6298,0.5392 L2.5002,0.5392 A1.8000,3.0600 0.0000 1,0 2.5002,6.6592 Z" style="stroke-width: 0.0000; stroke-linecap: round; stroke-linejoin: round; fill-rule: evenodd; fill: url(#grad5); "/>
      <path d="  M2.5002,6.6592 L30.3498,6.6592 A0.1800,0.1800 0.0000 0,1 30.5298,6.8392 L30.5298,6.6592 L30.5298,3.0952 L29.8098,3.0952 L29.8098,0.3592 A0.1800,0.1800 0.0000 0,1 29.6298,0.5392 L2.5002,0.5392 A1.8000,3.0600 0.0000 1,0 2.5002,6.6592 Z" style="stroke-width: 0.0000; stroke: #333333; stroke-dasharray: none; stroke-linecap: round; stroke-linejoin: round; fill: none; "/>
    </g>
    <g xmlns="http://www.w3.org/2000/svg" id="Layer1003">
      <defs>
        <linearGradient id="grad6">
          <stop offset="0%" stop-color="#808080" stop-opacity="1.0000"/>
          <stop offset="50%" stop-color="#ffffff" stop-opacity="1.0000"/>
          <stop offset="100%" stop-color="#808080" stop-opacity="1.0000"/>
        </linearGradient>
      </defs>
      <path d="  M5.4918,6.4432 L24.2478,6.4432 L24.2478,0.7552 L5.4918,0.7552 L5.4918,6.4432 Z" style="stroke-width: 0.0000; stroke-linecap: round; stroke-linejoin: round; fill-rule: evenodd; fill: url(#grad6); "/>
      <path d="  M5.4918,6.4432 L24.2478,6.4432 L24.2478,0.7552 L5.4918,0.7552 L5.4918,6.4432 Z" style="stroke-width: 0.0000; stroke: #4d4d4d; stroke-dasharray: none; stroke-linecap: round; stroke-linejoin: round; fill: none; "/>
    </g>
    <path xmlns="http://www.w3.org/2000/svg" d="  M21.9632,5.7808 L22.2488,6.2731 L22.8202,6.2731 L23.1058,5.7808 L22.8202,5.2884 L22.2488,5.2884 L21.9632,5.7808 Z M23.0581,5.1531 L23.3438,5.6455 L23.9151,5.6455 L24.2008,5.1531 L23.9151,4.6608 L23.3438,4.6608 L23.0581,5.1531 Z M15.4411,6.4084 L14.2985,6.4084 L14.5841,5.9161 L15.1555,5.9161 L15.4411,6.4084 Z M17.6310,6.4084 L16.4884,6.4084 L16.7741,5.9161 L17.3454,5.9161 L17.6310,6.4084 Z M19.8209,6.4084 L18.6783,6.4084 L18.9640,5.9161 L19.5353,5.9161 L19.8209,6.4084 Z M20.8682,6.4084 L21.1539,5.9161 L21.7252,5.9161 L22.0109,6.4084 L20.8682,6.4084 Z M14.2985,5.1531 L14.5841,5.6455 L15.1555,5.6455 L15.4411,5.1531 L15.1555,4.6608 L14.5841,4.6608 L14.2985,5.1531 Z M15.3934,5.7808 L15.6791,6.2731 L16.2504,6.2731 L16.5361,5.7808 L16.2504,5.2884 L15.6791,5.2884 L15.3934,5.7808 Z M16.4884,5.1531 L16.7741,5.6455 L17.3454,5.6455 L17.6310,5.1531 L17.3454,4.6608 L16.7741,4.6608 L16.4884,5.1531 Z M17.5834,5.7808 L17.8690,6.2731 L18.4403,6.2731 L18.7260,5.7808 L18.4403,5.2884 L17.8690,5.2884 L17.5834,5.7808 Z M18.6783,5.1531 L18.9640,5.6455 L19.5353,5.6455 L19.8209,5.1531 L19.5353,4.6608 L18.9640,4.6608 L18.6783,5.1531 Z M19.7733,5.7808 L20.0589,6.2731 L20.6302,6.2731 L20.9159,5.7808 L20.6302,5.2884 L20.0589,5.2884 L19.7733,5.7808 Z M20.8682,5.1531 L21.1539,5.6455 L21.7252,5.6455 L22.0109,5.1531 L21.7252,4.6608 L21.1539,4.6608 L20.8682,5.1531 Z M23.0581,6.4084 L23.3438,5.9161 L23.9151,5.9161 L24.2008,6.4084 L23.0581,6.4084 Z M9.9187,5.1531 L10.2043,5.6455 L10.7756,5.6455 L11.0613,5.1531 L10.7756,4.6608 L10.2043,4.6608 L9.9187,5.1531 Z M12.1086,5.1531 L12.3942,5.6455 L12.9655,5.6455 L13.2512,5.1531 L12.9655,4.6608 L12.3942,4.6608 L12.1086,5.1531 Z M6.6338,5.7808 L6.9194,6.2731 L7.4908,6.2731 L7.7764,5.7808 L7.4908,5.2884 L6.9194,5.2884 L6.6338,5.7808 Z M8.8237,5.7808 L9.1094,6.2731 L9.6807,6.2731 L9.9663,5.7808 L9.6807,5.2884 L9.1094,5.2884 L8.8237,5.7808 Z M6.6815,6.4084 L5.5388,6.4084 L5.8245,5.9161 L6.3958,5.9161 L6.6815,6.4084 Z M8.8714,6.4084 L7.7287,6.4084 L8.0144,5.9161 L8.5857,5.9161 L8.8714,6.4084 Z M5.5388,5.1531 L5.8245,5.6455 L6.3958,5.6455 L6.6815,5.1531 L6.3958,4.6608 L5.8245,4.6608 L5.5388,5.1531 Z M7.7287,5.1531 L8.0144,5.6455 L8.5857,5.6455 L8.8714,5.1531 L8.5857,4.6608 L8.0144,4.6608 L7.7287,5.1531 Z M11.0613,6.4084 L9.9187,6.4084 L10.2043,5.9161 L10.7756,5.9161 L11.0613,6.4084 Z M11.0136,5.7808 L11.2993,6.2731 L11.8706,6.2731 L12.1562,5.7808 L11.8706,5.2884 L11.2993,5.2884 L11.0136,5.7808 Z M13.2512,6.4084 L12.1086,6.4084 L12.3942,5.9161 L12.9655,5.9161 L13.2512,6.4084 Z M13.2035,5.7808 L13.4892,6.2731 L14.0605,6.2731 L14.3462,5.7808 L14.0605,5.2884 L13.4892,5.2884 L13.2035,5.7808 Z M20.8682,1.4176 L21.1539,1.9099 L21.7252,1.9099 L22.0109,1.4176 L21.7252,0.9253 L21.1539,0.9253 L20.8682,1.4176 Z M21.9632,0.7900 L22.2488,1.2823 L22.8202,1.2823 L23.1058,0.7900 L21.9632,0.7900 Z M23.0581,1.4176 L23.3438,1.9099 L23.9151,1.9099 L24.2008,1.4176 L23.9151,0.9253 L23.3438,0.9253 L23.0581,1.4176 Z M17.5834,2.0452 L17.8690,2.5375 L18.4403,2.5375 L18.7260,2.0452 L18.4403,1.5529 L17.8690,1.5529 L17.5834,2.0452 Z M19.7733,2.0452 L20.0589,2.5375 L20.6302,2.5375 L20.9159,2.0452 L20.6302,1.5529 L20.0589,1.5529 L19.7733,2.0452 Z M16.4884,1.4176 L16.7741,1.9099 L17.3454,1.9099 L17.6310,1.4176 L17.3454,0.9253 L16.7741,0.9253 L16.4884,1.4176 Z M18.7260,0.7900 L17.5834,0.7900 L17.8690,1.2823 L18.4403,1.2823 L18.7260,0.7900 Z M18.6783,1.4176 L18.9640,1.9099 L19.5353,1.9099 L19.8209,1.4176 L19.5353,0.9253 L18.9640,0.9253 L18.6783,1.4176 Z M20.9159,0.7900 L19.7733,0.7900 L20.0589,1.2823 L20.6302,1.2823 L20.9159,0.7900 Z M21.9632,2.0452 L22.2488,2.5375 L22.8202,2.5375 L23.1058,2.0452 L22.8202,1.5529 L22.2488,1.5529 L21.9632,2.0452 Z M9.9187,2.6729 L10.2043,3.1652 L10.7756,3.1652 L11.0613,2.6729 L10.7756,2.1805 L10.2043,2.1805 L9.9187,2.6729 Z M12.1086,2.6729 L12.3942,3.1652 L12.9655,3.1652 L13.2512,2.6729 L12.9655,2.1805 L12.3942,2.1805 L12.1086,2.6729 Z M14.2985,2.6729 L14.5841,3.1652 L15.1555,3.1652 L15.4411,2.6729 L15.1555,2.1805 L14.5841,2.1805 L14.2985,2.6729 Z M14.3462,0.7900 L13.2035,0.7900 L13.4892,1.2823 L14.0605,1.2823 L14.3462,0.7900 Z M14.2985,1.4176 L14.5841,1.9099 L15.1555,1.9099 L15.4411,1.4176 L15.1555,0.9253 L14.5841,0.9253 L14.2985,1.4176 Z M16.5361,0.7900 L15.3934,0.7900 L15.6791,1.2823 L16.2504,1.2823 L16.5361,0.7900 Z M11.0136,2.0452 L11.2993,2.5375 L11.8706,2.5375 L12.1562,2.0452 L11.8706,1.5529 L11.2993,1.5529 L11.0136,2.0452 Z M9.9187,1.4176 L10.2043,1.9099 L10.7756,1.9099 L11.0613,1.4176 L10.7756,0.9253 L10.2043,0.9253 L9.9187,1.4176 Z M12.1562,0.7900 L11.0136,0.7900 L11.2993,1.2823 L11.8706,1.2823 L12.1562,0.7900 Z M12.1086,1.4176 L12.3942,1.9099 L12.9655,1.9099 L13.2512,1.4176 L12.9655,0.9253 L12.3942,0.9253 L12.1086,1.4176 Z M13.2035,2.0452 L13.4892,2.5375 L14.0605,2.5375 L14.3462,2.0452 L14.0605,1.5529 L13.4892,1.5529 L13.2035,2.0452 Z M15.3934,2.0452 L15.6791,2.5375 L16.2504,2.5375 L16.5361,2.0452 L16.2504,1.5529 L15.6791,1.5529 L15.3934,2.0452 Z M16.4884,2.6729 L16.7741,3.1652 L17.3454,3.1652 L17.6310,2.6729 L17.3454,2.1805 L16.7741,2.1805 L16.4884,2.6729 Z M18.6783,2.6729 L18.9640,3.1652 L19.5353,3.1652 L19.8209,2.6729 L19.5353,2.1805 L18.9640,2.1805 L18.6783,2.6729 Z M20.8682,2.6729 L21.1539,3.1652 L21.7252,3.1652 L22.0109,2.6729 L21.7252,2.1805 L21.1539,2.1805 L20.8682,2.6729 Z M23.0581,2.6729 L23.3438,3.1652 L23.9151,3.1652 L24.2008,2.6729 L23.9151,2.1805 L23.3438,2.1805 L23.0581,2.6729 Z M5.5388,3.8979 L5.8245,4.3902 L6.3958,4.3902 L6.6815,3.8979 L6.3958,3.4055 L5.8245,3.4055 L5.5388,3.8979 Z M6.6338,4.5255 L6.9194,5.0178 L7.4908,5.0178 L7.7764,4.5255 L7.4908,4.0332 L6.9194,4.0332 L6.6338,4.5255 Z M6.6338,3.3005 L6.9194,3.7928 L7.4908,3.7928 L7.7764,3.3005 L7.4908,2.8082 L6.9194,2.8082 L6.6338,3.3005 Z M7.7287,3.8979 L8.0144,4.3902 L8.5857,4.3902 L8.8714,3.8979 L8.5857,3.4055 L8.0144,3.4055 L7.7287,3.8979 Z M8.8237,4.5255 L9.1094,5.0178 L9.6807,5.0178 L9.9663,4.5255 L9.6807,4.0332 L9.1094,4.0332 L8.8237,4.5255 Z M8.8237,3.3005 L9.1094,3.7928 L9.6807,3.7928 L9.9663,3.3005 L9.6807,2.8082 L9.1094,2.8082 L8.8237,3.3005 Z M5.5388,1.4176 L5.8245,1.9099 L6.3958,1.9099 L6.6815,1.4176 L6.3958,0.9253 L5.8245,0.9253 L5.5388,1.4176 Z M6.6338,2.0452 L6.9194,2.5375 L7.4908,2.5375 L7.7764,2.0452 L7.4908,1.5529 L6.9194,1.5529 L6.6338,2.0452 Z M7.7764,0.7900 L6.6338,0.7900 L6.9194,1.2823 L7.4908,1.2823 L7.7764,0.7900 Z M7.7287,1.4176 L8.0144,1.9099 L8.5857,1.9099 L8.8714,1.4176 L8.5857,0.9253 L8.0144,0.9253 L7.7287,1.4176 Z M8.8237,2.0452 L9.1094,2.5375 L9.6807,2.5375 L9.9663,2.0452 L9.6807,1.5529 L9.1094,1.5529 L8.8237,2.0452 Z M9.9663,0.7900 L8.8237,0.7900 L9.1094,1.2823 L9.6807,1.2823 L9.9663,0.7900 Z M5.5388,2.6729 L5.8245,3.1652 L6.3958,3.1652 L6.6815,2.6729 L6.3958,2.1805 L5.8245,2.1805 L5.5388,2.6729 Z M7.7287,2.6729 L8.0144,3.1652 L8.5857,3.1652 L8.8714,2.6729 L8.5857,2.1805 L8.0144,2.1805 L7.7287,2.6729 Z M16.4884,3.8979 L16.7741,4.3902 L17.3454,4.3902 L17.6310,3.8979 L17.3454,3.4055 L16.7741,3.4055 L16.4884,3.8979 Z M17.5834,3.3005 L17.8690,3.7928 L18.4403,3.7928 L18.7260,3.3005 L18.4403,2.8082 L17.8690,2.8082 L17.5834,3.3005 Z M18.6783,3.8979 L18.9640,4.3902 L19.5353,4.3902 L19.8209,3.8979 L19.5353,3.4055 L18.9640,3.4055 L18.6783,3.8979 Z M19.7733,3.3005 L20.0589,3.7928 L20.6302,3.7928 L20.9159,3.3005 L20.6302,2.8082 L20.0589,2.8082 L19.7733,3.3005 Z M20.8682,3.8979 L21.1539,4.3902 L21.7252,4.3902 L22.0109,3.8979 L21.7252,3.4055 L21.1539,3.4055 L20.8682,3.8979 Z M21.9632,3.3005 L22.2488,3.7928 L22.8202,3.7928 L23.1058,3.3005 L22.8202,2.8082 L22.2488,2.8082 L21.9632,3.3005 Z M23.0581,3.8979 L23.3438,4.3902 L23.9151,4.3902 L24.2008,3.8979 L23.9151,3.4055 L23.3438,3.4055 L23.0581,3.8979 Z M11.0136,4.5255 L11.2993,5.0178 L11.8706,5.0178 L12.1562,4.5255 L11.8706,4.0332 L11.2993,4.0332 L11.0136,4.5255 Z M13.2035,4.5255 L13.4892,5.0178 L14.0605,5.0178 L14.3462,4.5255 L14.0605,4.0332 L13.4892,4.0332 L13.2035,4.5255 Z M15.3934,4.5255 L15.6791,5.0178 L16.2504,5.0178 L16.5361,4.5255 L16.2504,4.0332 L15.6791,4.0332 L15.3934,4.5255 Z M9.9187,3.8979 L10.2043,4.3902 L10.7756,4.3902 L11.0613,3.8979 L10.7756,3.4055 L10.2043,3.4055 L9.9187,3.8979 Z M11.0136,3.3005 L11.2993,3.7928 L11.8706,3.7928 L12.1562,3.3005 L11.8706,2.8082 L11.2993,2.8082 L11.0136,3.3005 Z M12.1086,3.8979 L12.3942,4.3902 L12.9655,4.3902 L13.2512,3.8979 L12.9655,3.4055 L12.3942,3.4055 L12.1086,3.8979 Z M13.2035,3.3005 L13.4892,3.7928 L14.0605,3.7928 L14.3462,3.3005 L14.0605,2.8082 L13.4892,2.8082 L13.2035,3.3005 Z M14.2985,3.8979 L14.5841,4.3902 L15.1555,4.3902 L15.4411,3.8979 L15.1555,3.4055 L14.5841,3.4055 L14.2985,3.8979 Z M15.3934,3.3005 L15.6791,3.7928 L16.2504,3.7928 L16.5361,3.3005 L16.2504,2.8082 L15.6791,2.8082 L15.3934,3.3005 Z M17.5834,4.5255 L17.8690,5.0178 L18.4403,5.0178 L18.7260,4.5255 L18.4403,4.0332 L17.8690,4.0332 L17.5834,4.5255 Z M19.7733,4.5255 L20.0589,5.0178 L20.6302,5.0178 L20.9159,4.5255 L20.6302,4.0332 L20.0589,4.0332 L19.7733,4.5255 Z M21.9632,4.5255 L22.2488,5.0178 L22.8202,5.0178 L23.1058,4.5255 L22.8202,4.0332 L22.2488,4.0332 L21.9632,4.5255 Z" style="fill-rule: evenodd; fill: #292929; "/>
    <g xmlns="http://www.w3.org/2000/svg" id="Layer1004">
      <path d="  M5.2675,6.6592 L5.5195,6.6592 L5.5195,0.5392 L5.2675,0.5392 L5.2675,6.6592 Z M10.0195,6.6592 L10.2715,6.6592 L10.2715,0.5392 L10.0195,0.5392 L10.0195,6.6592 Z M14.7715,6.6592 L15.0235,6.6592 L15.0235,0.5392 L14.7715,0.5392 L14.7715,6.6592 Z M19.5235,6.6592 L19.7755,6.6592 L19.7755,0.5392 L19.5235,0.5392 L19.5235,6.6592 Z M24.2755,6.6592 L24.5275,6.6592 L24.5275,0.5392 L24.2755,0.5392 L24.2755,6.6592 Z" style="stroke-width: 0.0000; stroke-linecap: round; stroke-linejoin: round; fill-rule: evenodd; fill: #4d4d4d; "/>
      <path d="  M5.2675,6.6592 L5.5195,6.6592 L5.5195,0.5392 L5.2675,0.5392 L5.2675,6.6592 Z M10.0195,6.6592 L10.2715,6.6592 L10.2715,0.5392 L10.0195,0.5392 L10.0195,6.6592 Z M14.7715,6.6592 L15.0235,6.6592 L15.0235,0.5392 L14.7715,0.5392 L14.7715,6.6592 Z M19.5235,6.6592 L19.7755,6.6592 L19.7755,0.5392 L19.5235,0.5392 L19.5235,6.6592 Z M24.2755,6.6592 L24.5275,6.6592 L24.5275,0.5392 L24.2755,0.5392 L24.2755,6.6592 Z" style="stroke-width: 0.0000; stroke: #333333; stroke-dasharray: none; stroke-linecap: round; stroke-linejoin: round; fill: none; "/>
    </g>
    <path xmlns="http://www.w3.org/2000/svg" d="  M30.5298,7.0192 L30.5298,3.0952 L29.8098,3.0952 L29.8098,0.1792 A0.1800,0.1800 0.0000 0,0 29.6298,-0.0008 L0.1098,-0.0008 A0.1800,0.1800 0.0000 0,0 -0.0702,0.1792 L-0.0702,7.0192 A0.1800,0.1800 0.0000 0,0 0.1098,7.1992 L29.8098,7.1992 L30.3498,7.1992 A0.1800,0.1800 0.0000 0,0 30.5298,7.0192 Z" style="stroke-width: 0.0000; stroke: #333333; stroke-dasharray: none; stroke-linecap: round; stroke-linejoin: round; fill: none; "/>
    <text xmlns="http://www.w3.org/2000/svg" x="3.6400" y="3.5992">
      <tspan font-family="Arial" font-size="1.8232" fill="#000000" fill-opacity="1.0000" stroke-opacity="1.0000">
</tspan>
    </text>
    <!--converted by libvisio2svg-->
    <g transform=" translate(-0.090000,-0.334000) ">
      <!--emf-blob start-->
      <g transform="translate(-0.0000, -0.0000)">
        <defs>
          <clipPath id="clip-1804289383">
            <path d="M 24.8716,1.5074 L 28.6401,1.5074 L 28.6401,6.7832 L 24.8716,6.7832 L 24.8716,1.5074 Z Z"/>
          </clipPath>
        </defs>
        <path clip-path="url(#clip-1804289383)" d="M 24.1179,0.7537 L 24.1179,6.7832 L 24.8716,6.7832 L 24.8716,0.7537 L 24.1179,0.7537 Z" stroke-width="1px" stroke="#B7B7B7" fill="#B7B7B7"/>
        <path clip-path="url(#clip-1804289383)" d="M 24.8716,0.7537 L 24.8716,6.7832 L 25.6253,6.7832 L 25.6253,0.7537 L 24.8716,0.7537 Z" stroke-width="1px" stroke="#E2E2E2" fill="#E2E2E2"/>
        <path clip-path="url(#clip-1804289383)" d="M 25.6253,0.7537 L 25.6253,6.7832 L 26.3790,6.7832 L 26.3790,0.7537 L 25.6253,0.7537 Z" stroke-width="1px" stroke="#D8D8D8" fill="#D8D8D8"/>
        <path clip-path="url(#clip-1804289383)" d="M 26.3790,0.7537 L 26.3790,6.7832 L 27.1327,6.7832 L 27.1327,0.7537 L 26.3790,0.7537 Z" stroke-width="1px" stroke="#CFCFCF" fill="#CFCFCF"/>
        <path clip-path="url(#clip-1804289383)" d="M 27.1327,0.7537 L 27.1327,6.7832 L 27.8864,6.7832 L 27.8864,0.7537 L 27.1327,0.7537 Z" stroke-width="1px" stroke="#C5C5C5" fill="#C5C5C5"/>
        <path clip-path="url(#clip-1804289383)" d="M 27.8864,0.7537 L 27.8864,6.7832 L 28.6401,6.7832 L 28.6401,0.7537 L 27.8864,0.7537 Z" stroke-width="1px" stroke="#BCBCBC" fill="#BCBCBC"/>
        <g transform="matrix(0.0625 0.0000 0.0000 0.0625 0.0000 0.0000)">
          <path d="M 72.3538,18.0885 L 72.3538,107.7771 L 94.9644,107.7771 L 94.9644,18.0885 L 72.3538,18.0885 Z" stroke-width="1px" stroke="#4D4D4D" fill="#4D4D4D"/>
        </g>
        <g transform="matrix(1.0000 0.0000 0.0000 1.0000 0.0000 0.0000)">
</g>
        <g transform="matrix(0.0625 0.0000 0.0000 0.0625 0.0000 0.0000)">
          <path d="M 72.3538,107.7771 L 94.9644,107.7771 L 94.9644,18.0885 L 72.3538,18.0885 L 72.3538,107.7771 Z" stroke="#333333" stroke-width="0.7537" stroke-linecap="round" stroke-linejoin="round" fill="none"/>
        </g>
        <g transform="matrix(1.0000 0.0000 0.0000 1.0000 0.0000 0.0000)">
          <path d="M 30.9011,6.7832 L 30.9011,3.7684 L 30.1474,3.7684 L 30.1474,1.5074 L 28.6401,1.5074 L 28.6401,6.7832 L 30.9011,6.7832 " fill="none" stroke="none"/>
          <defs>
            <clipPath id="clip-846930886">
              <path d="M 30.9011,6.7832 L 30.9011,3.7684 L 30.1474,3.7684 L 30.1474,1.5074 L 28.6401,1.5074 L 28.6401,6.7832 L 30.9011,6.7832 Z"/>
            </clipPath>
          </defs>
          <path clip-path="url(#clip-846930886)" d="M 27.8864,0.7537 L 27.8864,6.7832 L 28.6401,6.7832 L 28.6401,0.7537 L 27.8864,0.7537 Z" stroke-width="1px" stroke="#707070" fill="#707070"/>
          <path clip-path="url(#clip-846930886)" d="M 28.6401,0.7537 L 28.6401,6.7832 L 29.3937,6.7832 L 29.3937,0.7537 L 28.6401,0.7537 Z" stroke-width="1px" stroke="#ADADAD" fill="#ADADAD"/>
          <path clip-path="url(#clip-846930886)" d="M 29.3937,0.7537 L 29.3937,6.7832 L 30.1474,6.7832 L 30.1474,0.7537 L 29.3937,0.7537 Z" stroke-width="1px" stroke="#838383" fill="#838383"/>
          <path d="M 6.7832,6.0295 C 6.7832,6.0295 6.7832,5.2758 7.5369,5.2758 C 12.0590,5.2758 19.5958,5.2758 24.1179,5.2758 C 24.8716,5.2758 24.8716,5.2758 24.8716,5.2758 L 24.8716,5.2758 L 24.8716,3.0147 C 20.3495,3.0147 12.0590,3.0147 7.5369,3.0147 C 7.5369,3.0147 7.5369,3.0147 7.5369,3.0147 C 6.7832,3.0147 6.7832,3.0147 6.7832,2.2611 L 6.7832,1.5074 C 6.7832,1.5074 6.7832,1.5074 6.7832,1.5074 C 6.7832,1.5074 6.7832,1.5074 6.7832,1.5074 L 6.0295,1.5074 C 6.0295,1.5074 6.0295,1.5074 6.0295,1.5074 L 6.0295,1.5074 L 6.0295,6.7832 C 6.0295,6.7832 6.0295,6.7832 6.0295,6.7832 L 6.0295,6.7832 L 6.7832,6.7832 C 6.7832,6.7832 6.7832,6.7832 6.7832,6.7832 C 6.7832,6.7832 6.7832,6.7832 6.7832,6.7832 L 6.7832,6.7832 L 6.7832,6.0295 Z " fill="none" stroke="none"/>
          <defs>
            <clipPath id="clip-1681692777">
              <path d="M 6.7832,6.0295 C 6.7832,6.0295 6.7832,5.2758 7.5369,5.2758 C 12.0590,5.2758 19.5958,5.2758 24.1179,5.2758 C 24.8716,5.2758 24.8716,5.2758 24.8716,5.2758 L 24.8716,5.2758 L 24.8716,3.0147 C 20.3495,3.0147 12.0590,3.0147 7.5369,3.0147 C 7.5369,3.0147 7.5369,3.0147 7.5369,3.0147 C 6.7832,3.0147 6.7832,3.0147 6.7832,2.2611 L 6.7832,1.5074 C 6.7832,1.5074 6.7832,1.5074 6.7832,1.5074 C 6.7832,1.5074 6.7832,1.5074 6.7832,1.5074 L 6.0295,1.5074 C 6.0295,1.5074 6.0295,1.5074 6.0295,1.5074 L 6.0295,1.5074 L 6.0295,6.7832 C 6.0295,6.7832 6.0295,6.7832 6.0295,6.7832 L 6.0295,6.7832 L 6.7832,6.7832 C 6.7832,6.7832 6.7832,6.7832 6.7832,6.7832 C 6.7832,6.7832 6.7832,6.7832 6.7832,6.7832 L 6.7832,6.7832 L 6.7832,6.0295 Z"/>
            </clipPath>
          </defs>
          <path clip-path="url(#clip-1681692777)" d="M 5.2758,0.7537 L 5.2758,6.7832 L 6.0295,6.7832 L 6.0295,0.7537 L 5.2758,0.7537 Z" stroke-width="1px" stroke="#E8E8E8" fill="#E8E8E8"/>
          <path clip-path="url(#clip-1681692777)" d="M 6.0295,0.7537 L 6.0295,6.7832 L 6.7832,6.7832 L 6.7832,0.7537 L 6.0295,0.7537 Z" stroke-width="1px" stroke="#E6E6E6" fill="#E6E6E6"/>
          <path clip-path="url(#clip-1681692777)" d="M 6.7832,0.7537 L 6.7832,6.7832 L 7.5369,6.7832 L 7.5369,0.7537 L 6.7832,0.7537 Z" stroke-width="1px" stroke="#E8E8E8" fill="#E8E8E8"/>
          <path clip-path="url(#clip-1681692777)" d="M 7.5369,0.7537 L 7.5369,6.7832 L 8.2905,6.7832 L 8.2905,0.7537 L 7.5369,0.7537 Z" stroke-width="1px" stroke="#EAEAEA" fill="#EAEAEA"/>
          <path clip-path="url(#clip-1681692777)" d="M 8.2905,0.7537 L 8.2905,6.7832 L 9.0442,6.7832 L 9.0442,0.7537 L 8.2905,0.7537 Z" stroke-width="1px" stroke="#ECECEC" fill="#ECECEC"/>
          <path clip-path="url(#clip-1681692777)" d="M 9.0442,0.7537 L 9.0442,6.7832 L 9.7979,6.7832 L 9.7979,0.7537 L 9.0442,0.7537 Z" stroke-width="1px" stroke="#EEEEEE" fill="#EEEEEE"/>
          <path clip-path="url(#clip-1681692777)" d="M 9.7979,0.7537 L 9.7979,6.7832 L 10.5516,6.7832 L 10.5516,0.7537 L 9.7979,0.7537 Z" stroke-width="1px" stroke="#F1F1F1" fill="#F1F1F1"/>
          <path clip-path="url(#clip-1681692777)" d="M 10.5516,0.7537 L 10.5516,6.7832 L 11.3053,6.7832 L 11.3053,0.7537 L 10.5516,0.7537 Z" stroke-width="1px" stroke="#F3F3F3" fill="#F3F3F3"/>
          <path clip-path="url(#clip-1681692777)" d="M 11.3053,0.7537 L 11.3053,6.7832 L 12.0590,6.7832 L 12.0590,0.7537 L 11.3053,0.7537 Z" stroke-width="1px" stroke="#F5F5F5" fill="#F5F5F5"/>
          <path clip-path="url(#clip-1681692777)" d="M 12.0590,0.7537 L 12.0590,6.7832 L 12.8127,6.7832 L 12.8127,0.7537 L 12.0590,0.7537 Z" stroke-width="1px" stroke="#F7F7F7" fill="#F7F7F7"/>
          <path clip-path="url(#clip-1681692777)" d="M 12.8127,0.7537 L 12.8127,6.7832 L 13.5663,6.7832 L 13.5663,0.7537 L 12.8127,0.7537 Z" stroke-width="1px" stroke="#F9F9F9" fill="#F9F9F9"/>
          <path clip-path="url(#clip-1681692777)" d="M 13.5663,0.7537 L 13.5663,6.7832 L 14.3200,6.7832 L 14.3200,0.7537 L 13.5663,0.7537 Z" stroke-width="1px" stroke="#FBFBFB" fill="#FBFBFB"/>
          <path clip-path="url(#clip-1681692777)" d="M 14.3200,0.7537 L 14.3200,6.7832 L 15.0737,6.7832 L 15.0737,0.7537 L 14.3200,0.7537 Z" stroke-width="1px" stroke="#FDFDFD" fill="#FDFDFD"/>
          <path clip-path="url(#clip-1681692777)" d="M 15.0737,0.7537 L 15.0737,6.7832 L 15.8274,6.7832 L 15.8274,0.7537 L 15.0737,0.7537 Z" stroke-width="1px" stroke="#FFFFFF" fill="#FFFFFF"/>
          <path clip-path="url(#clip-1681692777)" d="M 15.8274,0.7537 L 15.8274,6.7832 L 16.5811,6.7832 L 16.5811,0.7537 L 15.8274,0.7537 Z" stroke-width="1px" stroke="#FDFDFD" fill="#FDFDFD"/>
          <path clip-path="url(#clip-1681692777)" d="M 16.5811,0.7537 L 16.5811,6.7832 L 17.3348,6.7832 L 17.3348,0.7537 L 16.5811,0.7537 Z" stroke-width="1px" stroke="#FBFBFB" fill="#FBFBFB"/>
          <path clip-path="url(#clip-1681692777)" d="M 17.3348,0.7537 L 17.3348,6.7832 L 18.0885,6.7832 L 18.0885,0.7537 L 17.3348,0.7537 Z" stroke-width="1px" stroke="#F9F9F9" fill="#F9F9F9"/>
          <path clip-path="url(#clip-1681692777)" d="M 18.0885,0.7537 L 18.0885,6.7832 L 18.8421,6.7832 L 18.8421,0.7537 L 18.0885,0.7537 Z" stroke-width="1px" stroke="#F8F8F8" fill="#F8F8F8"/>
          <path clip-path="url(#clip-1681692777)" d="M 18.8421,0.7537 L 18.8421,6.7832 L 19.5958,6.7832 L 19.5958,0.7537 L 18.8421,0.7537 Z" stroke-width="1px" stroke="#F6F6F6" fill="#F6F6F6"/>
          <path clip-path="url(#clip-1681692777)" d="M 19.5958,0.7537 L 19.5958,6.7832 L 20.3495,6.7832 L 20.3495,0.7537 L 19.5958,0.7537 Z" stroke-width="1px" stroke="#F4F4F4" fill="#F4F4F4"/>
          <path clip-path="url(#clip-1681692777)" d="M 20.3495,0.7537 L 20.3495,6.7832 L 21.1032,6.7832 L 21.1032,0.7537 L 20.3495,0.7537 Z" stroke-width="1px" stroke="#F1F1F1" fill="#F1F1F1"/>
          <path clip-path="url(#clip-1681692777)" d="M 21.1032,0.7537 L 21.1032,6.7832 L 21.8569,6.7832 L 21.8569,0.7537 L 21.1032,0.7537 Z" stroke-width="1px" stroke="#EFEFEF" fill="#EFEFEF"/>
          <path clip-path="url(#clip-1681692777)" d="M 21.8569,0.7537 L 21.8569,6.7832 L 22.6106,6.7832 L 22.6106,0.7537 L 21.8569,0.7537 Z" stroke-width="1px" stroke="#EDEDED" fill="#EDEDED"/>
          <path clip-path="url(#clip-1681692777)" d="M 22.6106,0.7537 L 22.6106,6.7832 L 23.3643,6.7832 L 23.3643,0.7537 L 22.6106,0.7537 Z" stroke-width="1px" stroke="#EBEBEB" fill="#EBEBEB"/>
          <path clip-path="url(#clip-1681692777)" d="M 23.3643,0.7537 L 23.3643,6.7832 L 24.1179,6.7832 L 24.1179,0.7537 L 23.3643,0.7537 Z" stroke-width="1px" stroke="#E9E9E9" fill="#E9E9E9"/>
        </g>
        <g transform="matrix(0.0625 0.0000 0.0000 0.0625 0.0000 0.0000)">
          <path d="M 102.5013,91.9497 C 104.0086,87.4275 109.2844,83.6591 114.5602,83.6591 C 182.3919,79.8907 303.7353,79.1370 384.3797,82.1517 C 387.3945,82.1517 389.6555,82.9054 391.9166,82.9054 L 391.9166,82.9054 L 391.9166,43.7138 C 315.0406,46.7285 193.6972,46.7285 121.3434,42.9601 C 119.0823,42.9601 116.8213,42.9601 114.5602,42.9601 C 109.2844,42.2064 104.0086,39.1917 102.5013,33.9159 L 102.5013,19.5958 C 102.5013,18.8421 101.7476,18.0885 100.9939,18.0885 C 100.9939,18.0885 100.9939,18.0885 100.9939,18.0885 L 94.9644,18.0885 C 94.9644,18.0885 94.2107,18.8421 94.2107,19.5958 L 94.2107,19.5958 L 94.2107,107.0234 C 94.2107,107.0234 94.9644,107.7771 94.9644,107.7771 L 94.9644,107.7771 L 100.9939,107.7771 C 101.7476,107.7771 102.5013,107.0234 102.5013,107.0234 C 102.5013,107.0234 102.5013,107.0234 102.5013,107.0234 L 102.5013,107.0234 L 102.5013,91.9497 " stroke="#E6E6E6" stroke-width="0.7537" stroke-linecap="round" stroke-linejoin="round" fill="none"/>
        </g>
        <g transform="matrix(1.0000 0.0000 0.0000 1.0000 0.0000 0.0000)">
          <defs>
            <clipPath id="clip-1714636915">
              <path d="M 4.5221,1.5074 L 5.2758,1.5074 L 5.2758,6.7832 L 4.5221,6.7832 L 4.5221,1.5074 Z Z"/>
            </clipPath>
          </defs>
          <path clip-path="url(#clip-1714636915)" d="M 3.7684,0.7537 L 3.7684,6.7832 L 4.5221,6.7832 L 4.5221,0.7537 L 3.7684,0.7537 Z" stroke-width="1px" stroke="#310100" fill="#310100"/>
          <defs>
            <clipPath id="clip-1957747793">
              <path d="M 3.0147,1.5074 L 4.5221,1.5074 L 4.5221,6.7832 L 3.0147,6.7832 L 3.0147,1.5074 Z Z"/>
            </clipPath>
          </defs>
          <path clip-path="url(#clip-1957747793)" d="M 2.2611,0.7537 L 2.2611,6.7832 L 3.0147,6.7832 L 3.0147,0.7537 L 2.2611,0.7537 Z" stroke-width="1px" stroke="#C7C7C7" fill="#C7C7C7"/>
          <path clip-path="url(#clip-1957747793)" d="M 3.0147,0.7537 L 3.0147,6.7832 L 3.7684,6.7832 L 3.7684,0.7537 L 3.0147,0.7537 Z" stroke-width="1px" stroke="#DCDCDC" fill="#DCDCDC"/>
        </g>
        <g transform="matrix(0.0625 0.0000 0.0000 0.0625 0.0000 0.0000)">
          <path d="M 60.2949,107.7771 L 72.3538,107.7771 C 73.1075,107.7771 73.1075,107.0234 73.1075,107.0234 C 73.1075,107.0234 73.1075,107.0234 73.1075,107.0234 L 73.1075,107.0234 L 73.1075,19.5958 C 73.1075,18.8421 73.1075,18.0885 72.3538,18.0885 C 72.3538,18.0885 72.3538,18.0885 72.3538,18.0885 L 53.5117,18.0885 C 49.7433,18.0885 46.7285,21.1032 46.7285,24.8716 L 46.7285,24.8716 L 44.4675,62.5559 C 44.4675,63.3096 44.4675,63.3096 44.4675,63.3096 L 46.7285,100.9939 C 46.7285,104.7623 49.7433,107.7771 53.5117,107.7771 L 53.5117,107.7771 L 60.2949,107.7771 " stroke="#808080" stroke-width="0.7537" stroke-linecap="round" stroke-linejoin="round" fill="none"/>
        </g>
        <g transform="matrix(1.0000 0.0000 0.0000 1.0000 0.0000 0.0000)">
</g>
        <g transform="matrix(0.0625 0.0000 0.0000 0.0625 0.0000 0.0000)">
          <path d="M 100.9939,107.7771 C 101.7476,107.7771 102.5013,107.0234 102.5013,107.0234 C 102.5013,107.0234 102.5013,107.0234 102.5013,107.0234 L 102.5013,107.0234 L 102.5013,99.4865 C 102.5013,91.9497 107.7771,85.9202 116.0676,85.1665 C 183.1456,81.3981 300.7206,80.6444 382.1187,83.6591 C 387.3945,84.4128 391.9166,88.9349 391.9166,94.9644 L 391.9166,94.9644 L 391.9166,107.7771 L 401.7145,107.7771 L 401.7145,94.9644 C 401.7145,88.9349 406.2366,83.6591 413.0198,83.6591 C 413.0198,83.6591 413.0198,83.6591 413.7735,83.6591 C 348.9565,79.8907 228.3668,79.1370 144.7077,82.1517 C 133.4024,82.9054 123.6045,82.9054 114.5602,83.6591 C 107.0234,83.6591 100.9939,90.4423 100.9939,97.9791 L 100.9939,97.9791 L 100.9939,107.0234 C 100.9939,107.0234 100.2402,107.7771 99.4865,107.7771 C 99.4865,107.7771 99.4865,107.7771 99.4865,107.7771 L 99.4865,107.7771 L 100.9939,107.7771 Z M 100.9939,18.0885 C 101.7476,18.0885 102.5013,18.8421 102.5013,19.5958 C 102.5013,19.5958 102.5013,19.5958 102.5013,19.5958 L 102.5013,19.5958 L 102.5013,26.3790 C 102.5013,34.6695 107.7771,40.6990 116.0676,40.6990 C 183.1456,44.4675 300.7206,45.2211 382.1187,42.2064 C 387.3945,42.2064 391.9166,36.9306 391.9166,31.6548 L 391.9166,31.6548 L 391.9166,18.0885 L 401.7145,18.0885 L 401.7145,30.9011 C 401.7145,36.9306 406.2366,42.2064 413.0198,42.2064 C 413.0198,42.2064 413.0198,42.2064 413.7735,42.2064 C 348.9565,45.9748 228.3668,46.7285 144.7077,43.7138 C 133.4024,43.7138 123.6045,42.9601 114.5602,42.9601 C 107.0234,42.2064 100.9939,36.1769 100.9939,28.6401 L 100.9939,28.6401 L 100.9939,19.5958 C 100.9939,18.8421 100.2402,18.0885 99.4865,18.0885 C 99.4865,18.0885 99.4865,18.0885 99.4865,18.0885 L 100.9939,18.0885 Z " fill="#CDCDCD" stroke="none"/>
        </g>
        <g transform="matrix(1.0000 0.0000 0.0000 1.0000 0.0000 0.0000)">
</g>
        <g transform="matrix(0.0625 0.0000 0.0000 0.0625 0.0000 0.0000)">
          <path d="M 100.9939,107.7771 C 101.7476,107.7771 102.5013,107.0234 102.5013,107.0234 C 102.5013,107.0234 102.5013,107.0234 102.5013,107.0234 L 102.5013,107.0234 L 102.5013,99.4865 C 102.5013,91.9497 107.7771,85.9202 116.0676,85.1665 C 183.1456,81.3981 300.7206,80.6444 382.1187,83.6591 C 387.3945,84.4128 391.9166,88.9349 391.9166,94.9644 L 391.9166,94.9644 L 391.9166,107.7771 L 401.7145,107.7771 L 401.7145,94.9644 C 401.7145,88.9349 406.2366,83.6591 413.0198,83.6591 C 413.0198,83.6591 413.0198,83.6591 413.7735,83.6591 C 348.9565,79.8907 228.3668,79.1370 144.7077,82.1517 C 133.4024,82.9054 123.6045,82.9054 114.5602,83.6591 C 107.0234,83.6591 100.9939,90.4423 100.9939,97.9791 L 100.9939,97.9791 L 100.9939,107.0234 C 100.9939,107.0234 100.2402,107.7771 99.4865,107.7771 C 99.4865,107.7771 99.4865,107.7771 99.4865,107.7771 L 99.4865,107.7771 L 100.9939,107.7771 Z M 100.9939,18.0885 C 101.7476,18.0885 102.5013,18.8421 102.5013,19.5958 C 102.5013,19.5958 102.5013,19.5958 102.5013,19.5958 L 102.5013,19.5958 L 102.5013,26.3790 C 102.5013,34.6695 107.7771,40.6990 116.0676,40.6990 C 183.1456,44.4675 300.7206,45.2211 382.1187,42.2064 C 387.3945,42.2064 391.9166,36.9306 391.9166,31.6548 L 391.9166,31.6548 L 391.9166,18.0885 L 401.7145,18.0885 L 401.7145,30.9011 C 401.7145,36.9306 406.2366,42.2064 413.0198,42.2064 C 413.0198,42.2064 413.0198,42.2064 413.7735,42.2064 C 348.9565,45.9748 228.3668,46.7285 144.7077,43.7138 C 133.4024,43.7138 123.6045,42.9601 114.5602,42.9601 C 107.0234,42.2064 100.9939,36.1769 100.9939,28.6401 L 100.9939,28.6401 L 100.9939,19.5958 C 100.9939,18.8421 100.2402,18.0885 99.4865,18.0885 C 99.4865,18.0885 99.4865,18.0885 99.4865,18.0885 L 100.9939,18.0885 Z " stroke="#C0C0C0" stroke-width="0.7537" stroke-linecap="round" stroke-linejoin="round" fill="none"/>
        </g>
        <g transform="matrix(1.0000 0.0000 0.0000 1.0000 0.0000 0.0000)">
          <defs>
            <clipPath id="clip-424238335">
              <path d="M 27.1327,2.2611 L 28.6401,2.2611 L 28.6401,6.7832 L 27.1327,6.7832 L 27.1327,2.2611 Z Z"/>
            </clipPath>
          </defs>
          <path clip-path="url(#clip-424238335)" d="M 26.3790,1.5074 L 26.3790,6.7832 L 27.1327,6.7832 L 27.1327,1.5074 L 26.3790,1.5074 Z" stroke-width="1px" stroke="#C1C1C1" fill="#C1C1C1"/>
          <path clip-path="url(#clip-424238335)" d="M 27.1327,1.5074 L 27.1327,6.7832 L 27.8864,6.7832 L 27.8864,1.5074 L 27.1327,1.5074 Z" stroke-width="1px" stroke="#CBCBCB" fill="#CBCBCB"/>
        </g>
        <g transform="matrix(0.0625 0.0000 0.0000 0.0625 0.0000 0.0000)">
          <path d="M 434.8767,99.4865 L 451.4577,99.4865 C 452.2114,99.4865 452.9651,98.7328 452.9651,97.2255 C 452.9651,97.2255 452.9651,97.2255 452.9651,97.2255 L 452.9651,97.2255 L 452.9651,26.3790 C 452.9651,25.6253 452.2114,24.8716 451.4577,24.8716 L 451.4577,24.8716 L 434.8767,24.8716 C 434.1230,24.8716 433.3693,25.6253 433.3693,26.3790 L 433.3693,26.3790 L 433.3693,97.2255 C 433.3693,98.7328 434.1230,99.4865 434.8767,99.4865 " stroke="#9A9A9A" stroke-width="0.7537" stroke-linecap="round" stroke-linejoin="round" fill="none"/>
        </g>
        <g transform="matrix(1.0000 0.0000 0.0000 1.0000 0.0000 0.0000)">
</g>
        <g transform="matrix(0.0625 0.0000 0.0000 0.0625 0.0000 0.0000)">
          <path d="M 391.9166,94.9644 L 391.9166,107.7771 L 486.8810,107.7771 L 486.8810,58.7875 L 474.0683,58.7875 L 474.0683,18.0885 L 391.9166,18.0885 L 391.9166,31.6548 C 391.9166,36.9306 387.3945,42.2064 382.1187,42.2064 C 300.7206,45.2211 183.1456,44.4675 116.0676,40.6990 C 107.7771,40.6990 102.5013,34.6695 102.5013,26.3790 L 102.5013,26.3790 L 102.5013,19.5958 C 102.5013,18.8421 101.7476,18.0885 100.9939,18.0885 L 94.9644,18.0885 C 94.9644,18.0885 94.2107,18.8421 94.2107,19.5958 L 94.2107,19.5958 L 94.2107,107.0234 C 94.2107,107.0234 94.9644,107.7771 94.9644,107.7771 L 94.9644,107.7771 L 100.9939,107.7771 C 101.7476,107.7771 102.5013,107.0234 102.5013,107.0234 C 102.5013,107.0234 102.5013,107.0234 102.5013,107.0234 L 102.5013,107.0234 L 102.5013,99.4865 C 102.5013,91.9497 107.7771,85.9202 116.0676,85.1665 C 183.1456,81.3981 300.7206,80.6444 382.1187,83.6591 C 387.3945,84.4128 391.9166,88.9349 391.9166,94.9644 " stroke="#4D4D4D" stroke-width="0.7537" stroke-linecap="round" stroke-linejoin="round" fill="none"/>
        </g>
        <g transform="matrix(1.0000 0.0000 0.0000 1.0000 0.0000 0.0000)">
</g>
        <g transform="matrix(0.0625 0.0000 0.0000 0.0625 0.0000 0.0000)">
          <path d="M 18.0885,59.5412 L 32.4085,59.5412 L 32.4085,44.4675 L 18.0885,44.4675 L 18.0885,59.5412 Z M 18.0885,82.1517 L 32.4085,82.1517 L 32.4085,66.3243 L 18.0885,66.3243 L 18.0885,82.1517 Z " fill="#1A1A1A" stroke-width="1px" stroke="#1A1A1A"/>
        </g>
        <g transform="matrix(1.0000 0.0000 0.0000 1.0000 0.0000 0.0000)">
</g>
        <g transform="matrix(0.0625 0.0000 0.0000 0.0625 0.0000 0.0000)">
          <path d="M 18.0885,59.5412 L 32.4085,59.5412 L 32.4085,44.4675 L 18.0885,44.4675 L 18.0885,59.5412 Z" stroke="#808080" stroke-width="0.7537" stroke-linecap="round" stroke-linejoin="round" fill="none"/>
          <path d="M 18.0885,82.1517 L 32.4085,82.1517 L 32.4085,66.3243 L 18.0885,66.3243 L 18.0885,82.1517 Z" stroke="#808080" stroke-width="0.7537" stroke-linecap="round" stroke-linejoin="round" fill="none"/>
        </g>
        <g transform="matrix(1.0000 0.0000 0.0000 1.0000 0.0000 0.0000)">
</g>
        <g transform="matrix(0.0625 0.0000 0.0000 0.0625 0.0000 0.0000)">
          <path d="M 20.3495,46.7285 L 20.3495,57.2801 L 30.1474,57.2801 L 30.1474,46.7285 L 20.3495,46.7285 Z" stroke-width="1px" stroke="#4D4D4D" fill="#4D4D4D"/>
        </g>
        <g transform="matrix(1.0000 0.0000 0.0000 1.0000 0.0000 0.0000)">
</g>
        <g transform="matrix(0.0625 0.0000 0.0000 0.0625 0.0000 0.0000)">
          <path d="M 20.3495,57.2801 L 30.1474,57.2801 L 30.1474,46.7285 L 20.3495,46.7285 L 20.3495,57.2801 Z" stroke="#333333" stroke-width="0.7537" stroke-linecap="round" stroke-linejoin="round" fill="none"/>
        </g>
        <g transform="matrix(1.0000 0.0000 0.0000 1.0000 0.0000 0.0000)">
</g>
      </g>
      <!--emf-blob end-->
    </g>
  </g>
</svg>
