<svg xmlns="http://www.w3.org/2000/svg" xmlns:xlink="http://www.w3.org/1999/xlink" version="1.1" width="3.6000000000" height="20.8800000000">
  <title><![CDATA[FAS2650 Disk]]></title>
  <g transform=" scale(1.000000) ">
    <!--converted by libvisio2svg-->
    <g transform=" translate(-0.745700,-1.012200) ">
      <!--emf-blob start-->
      <g transform="translate(-0.0000, -0.0000)">
        <path d="M 4.8474,22.3724 L 4.8474,22.3724 L 4.8474,22.3724 C 4.8474,18.6437 4.8474,14.9150 4.8474,11.5591 L 4.8474,11.5591 C 4.8474,7.8303 4.8474,4.4745 4.8474,0.7457 C 4.1016,0.7457 3.7287,0.7457 2.9830,0.7457 C 2.2372,0.7457 1.4915,0.7457 0.7457,0.7457 C 0.7457,4.4745 0.7457,7.8303 0.7457,11.5591 C 0.7457,14.9150 0.7457,18.6437 0.7457,22.3724 L 0.7457,22.3724 L 1.1186,22.3724 L 1.4915,21.9996 C 1.8644,21.9996 2.2372,22.3724 2.9830,22.3724 C 3.3559,22.3724 3.7287,21.9996 4.1016,21.9996 L 4.1016,21.9996 L 4.8474,22.3724 Z " fill="none" stroke="none"/>
        <defs>
          <clipPath id="clip-2143124030">
            <path d="M 4.8474,22.3724 L 4.8474,22.3724 L 4.8474,22.3724 C 4.8474,18.6437 4.8474,14.9150 4.8474,11.5591 L 4.8474,11.5591 C 4.8474,7.8303 4.8474,4.4745 4.8474,0.7457 C 4.1016,0.7457 3.7287,0.7457 2.9830,0.7457 C 2.2372,0.7457 1.4915,0.7457 0.7457,0.7457 C 0.7457,4.4745 0.7457,7.8303 0.7457,11.5591 C 0.7457,14.9150 0.7457,18.6437 0.7457,22.3724 L 0.7457,22.3724 L 1.1186,22.3724 L 1.4915,21.9996 C 1.8644,21.9996 2.2372,22.3724 2.9830,22.3724 C 3.3559,22.3724 3.7287,21.9996 4.1016,21.9996 L 4.1016,21.9996 L 4.8474,22.3724 Z"/>
          </clipPath>
        </defs>
        <path clip-path="url(#clip-2143124030)" d="M 0.0000,0.0000 L 0.0000,22.3724 L 0.7457,22.3724 L 0.7457,0.0000 L 0.0000,0.0000 Z" stroke-width="1px" stroke="#686868" fill="#686868"/>
        <path clip-path="url(#clip-2143124030)" d="M 0.7457,0.0000 L 0.7457,22.3724 L 1.1186,22.3724 L 1.1186,0.0000 L 0.7457,0.0000 Z" stroke-width="1px" stroke="#6C6C6C" fill="#6C6C6C"/>
        <path clip-path="url(#clip-2143124030)" d="M 1.1186,0.0000 L 1.1186,22.3724 L 1.4915,22.3724 L 1.4915,0.0000 L 1.1186,0.0000 Z" stroke-width="1px" stroke="#707070" fill="#707070"/>
        <path clip-path="url(#clip-2143124030)" d="M 1.4915,0.0000 L 1.4915,22.3724 L 1.8644,22.3724 L 1.8644,0.0000 L 1.4915,0.0000 Z" stroke-width="1px" stroke="#747474" fill="#747474"/>
        <path clip-path="url(#clip-2143124030)" d="M 1.8644,0.0000 L 1.8644,22.3724 L 2.2372,22.3724 L 2.2372,0.0000 L 1.8644,0.0000 Z" stroke-width="1px" stroke="#787878" fill="#787878"/>
        <path clip-path="url(#clip-2143124030)" d="M 2.2372,0.0000 L 2.2372,22.3724 L 2.6101,22.3724 L 2.6101,0.0000 L 2.2372,0.0000 Z" stroke-width="1px" stroke="#7C7C7C" fill="#7C7C7C"/>
        <path clip-path="url(#clip-2143124030)" d="M 2.6101,0.0000 L 2.6101,22.3724 L 2.9830,22.3724 L 2.9830,0.0000 L 2.6101,0.0000 Z" stroke-width="1px" stroke="#7F7F7F" fill="#7F7F7F"/>
        <path clip-path="url(#clip-2143124030)" d="M 2.9830,0.0000 L 2.9830,22.3724 L 3.3559,22.3724 L 3.3559,0.0000 L 2.9830,0.0000 Z" stroke-width="1px" stroke="#7D7D7D" fill="#7D7D7D"/>
        <path clip-path="url(#clip-2143124030)" d="M 3.3559,0.0000 L 3.3559,22.3724 L 3.7287,22.3724 L 3.7287,0.0000 L 3.3559,0.0000 Z" stroke-width="1px" stroke="#797979" fill="#797979"/>
        <path clip-path="url(#clip-2143124030)" d="M 3.7287,0.0000 L 3.7287,22.3724 L 4.1016,22.3724 L 4.1016,0.0000 L 3.7287,0.0000 Z" stroke-width="1px" stroke="#757575" fill="#757575"/>
        <path clip-path="url(#clip-2143124030)" d="M 4.1016,0.0000 L 4.1016,22.3724 L 4.4745,22.3724 L 4.4745,0.0000 L 4.1016,0.0000 Z" stroke-width="1px" stroke="#717171" fill="#717171"/>
        <path clip-path="url(#clip-2143124030)" d="M 4.4745,0.0000 L 4.4745,22.3724 L 4.8474,22.3724 L 4.8474,0.0000 L 4.4745,0.0000 Z" stroke-width="1px" stroke="#6E6E6E" fill="#6E6E6E"/>
        <path clip-path="url(#clip-2143124030)" d="M 4.8474,0.0000 L 4.8474,22.3724 L 5.2202,22.3724 L 5.2202,0.0000 L 4.8474,0.0000 Z" stroke-width="1px" stroke="#696969" fill="#696969"/>
        <g transform="matrix(0.0625 0.0000 0.0000 0.0625 0.0000 0.0000)">
          <path d="M 71.9646,352.7386 L 74.5748,352.7386 L 74.5748,352.7386 C 76.0662,295.6889 76.8120,238.2663 76.8120,180.8438 L 76.8120,180.8438 C 76.8120,124.5398 76.0662,67.8630 74.5748,11.5591 C 65.2529,10.0676 54.0667,8.9490 42.8805,8.9490 C 31.6943,8.9490 20.8809,10.0676 11.1862,11.5591 C 9.6947,67.8630 8.9490,124.5398 8.9490,180.8438 C 8.9490,238.2663 10.0676,295.3160 11.5591,352.7386 L 11.5591,352.7386 L 13.7963,352.7386 L 20.8809,350.5013 C 28.3384,351.9928 35.4230,352.7386 42.8805,352.7386 C 50.3380,352.7386 57.4226,351.9928 64.8800,350.5013 L 64.8800,350.5013 L 71.9646,352.7386 Z " stroke="#404040" stroke-width="0.3729" stroke-linecap="round" stroke-linejoin="round" fill="none"/>
        </g>
        <g transform="matrix(1.0000 0.0000 0.0000 1.0000 0.0000 0.0000)">
</g>
        <g transform="matrix(0.0625 0.0000 0.0000 0.0625 0.0000 0.0000)">
          <path d="M 72.7104,32.0671 L 66.3715,33.1858 C 61.8970,32.0671 57.4226,31.3214 52.9481,30.9485 C 46.9821,30.2028 41.3890,30.2028 35.7959,30.5756 C 30.5756,30.9485 24.9825,32.0671 19.7623,33.1858 L 13.0506,32.0671 C 12.6777,55.1853 12.3048,78.6764 11.9320,101.7945 L 73.8290,101.7945 C 73.8290,78.6764 73.0833,55.1853 72.7104,32.0671 Z M 74.5748,180.8438 C 74.5748,154.7426 74.2019,128.2686 73.8290,101.7945 L 11.9320,101.7945 C 11.5591,128.2686 11.5591,154.7426 11.5591,180.8438 C 11.5591,237.5206 12.3048,293.8245 13.7963,350.5013 L 13.7963,352.7386 L 20.8809,350.5013 C 28.3384,351.9928 35.4230,352.7386 42.8805,352.7386 C 50.3380,352.7386 57.4226,351.9928 64.8800,350.5013 L 64.8800,350.5013 L 71.9646,352.7386 L 72.3375,350.5013 C 73.8290,293.8245 74.5748,237.5206 74.5748,180.8438 Z " fill="#595959" stroke="none"/>
        </g>
        <g transform="matrix(1.0000 0.0000 0.0000 1.0000 0.0000 0.0000)">
</g>
        <g transform="matrix(0.0625 0.0000 0.0000 0.0625 0.0000 0.0000)">
          <path d="M 72.7104,32.0671 L 66.3715,33.1858 C 61.8970,32.0671 57.4226,31.3214 52.9481,30.9485 C 46.9821,30.2028 41.3890,30.2028 35.7959,30.5756 C 30.5756,30.9485 24.9825,32.0671 19.7623,33.1858 L 13.0506,32.0671 C 12.6777,55.1853 12.3048,78.6764 11.9320,101.7945 L 73.8290,101.7945 C 73.8290,78.6764 73.0833,55.1853 72.7104,32.0671 Z M 74.5748,180.8438 C 74.5748,154.7426 74.2019,128.2686 73.8290,101.7945 L 11.9320,101.7945 C 11.5591,128.2686 11.5591,154.7426 11.5591,180.8438 C 11.5591,237.5206 12.3048,293.8245 13.7963,350.5013 L 13.7963,352.7386 L 20.8809,350.5013 C 28.3384,351.9928 35.4230,352.7386 42.8805,352.7386 C 50.3380,352.7386 57.4226,351.9928 64.8800,350.5013 L 64.8800,350.5013 L 71.9646,352.7386 L 72.3375,350.5013 C 73.8290,293.8245 74.5748,237.5206 74.5748,180.8438 Z " stroke="#4D4D4D" stroke-width="0.3729" stroke-linecap="round" stroke-linejoin="round" fill="none"/>
        </g>
        <g transform="matrix(1.0000 0.0000 0.0000 1.0000 0.0000 0.0000)">
          <path d="M 1.4915,21.9996 C 2.2372,22.3724 3.3559,22.3724 4.1016,21.9996 C 4.4745,16.7793 4.4745,11.5591 4.4745,6.7117 C 3.3559,6.3389 2.2372,6.3389 1.1186,6.7117 C 1.1186,11.5591 1.1186,16.7793 1.4915,21.9996 Z M 1.1186,6.7117 C 2.2372,6.3389 3.3559,6.3389 4.4745,6.7117 C 4.4745,6.3389 4.4745,5.9660 4.4745,5.9660 L 4.4745,5.9660 C 4.1016,5.9660 3.7287,5.9660 3.3559,5.9660 C 2.9830,5.9660 2.6101,5.9660 2.2372,5.9660 C 1.8644,5.9660 1.4915,5.9660 1.1186,5.9660 C 1.1186,5.9660 1.1186,6.3389 1.1186,6.7117 Z " fill="none" stroke="none"/>
          <defs>
            <clipPath id="clip-76593093">
              <path d="M 1.4915,21.9996 C 2.2372,22.3724 3.3559,22.3724 4.1016,21.9996 C 4.4745,16.7793 4.4745,11.5591 4.4745,6.7117 C 3.3559,6.3389 2.2372,6.3389 1.1186,6.7117 C 1.1186,11.5591 1.1186,16.7793 1.4915,21.9996 M 1.1186,6.7117 C 2.2372,6.3389 3.3559,6.3389 4.4745,6.7117 C 4.4745,6.3389 4.4745,5.9660 4.4745,5.9660 L 4.4745,5.9660 C 4.1016,5.9660 3.7287,5.9660 3.3559,5.9660 C 2.9830,5.9660 2.6101,5.9660 2.2372,5.9660 C 1.8644,5.9660 1.4915,5.9660 1.1186,5.9660 C 1.1186,5.9660 1.1186,6.3389 1.1186,6.7117 Z"/>
            </clipPath>
          </defs>
          <path clip-path="url(#clip-76593093)" d="M 0.3729,5.2202 L 0.3729,22.7453 L 0.7457,22.7453 L 0.7457,5.2202 L 0.3729,5.2202 Z" stroke-width="1px" stroke="#515151" fill="#515151"/>
          <path clip-path="url(#clip-76593093)" d="M 0.7457,5.2202 L 0.7457,22.7453 L 1.1186,22.7453 L 1.1186,5.2202 L 0.7457,5.2202 Z" stroke-width="1px" stroke="#505050" fill="#505050"/>
          <path clip-path="url(#clip-76593093)" d="M 1.1186,5.2202 L 1.1186,22.7453 L 1.4915,22.7453 L 1.4915,5.2202 L 1.1186,5.2202 Z" stroke-width="1px" stroke="#575757" fill="#575757"/>
          <path clip-path="url(#clip-76593093)" d="M 1.4915,5.2202 L 1.4915,22.7453 L 1.8644,22.7453 L 1.8644,5.2202 L 1.4915,5.2202 Z" stroke-width="1px" stroke="#5D5D5D" fill="#5D5D5D"/>
          <path clip-path="url(#clip-76593093)" d="M 1.8644,5.2202 L 1.8644,22.7453 L 2.2372,22.7453 L 2.2372,5.2202 L 1.8644,5.2202 Z" stroke-width="1px" stroke="#656565" fill="#656565"/>
          <path clip-path="url(#clip-76593093)" d="M 2.2372,5.2202 L 2.2372,22.7453 L 2.6101,22.7453 L 2.6101,5.2202 L 2.2372,5.2202 Z" stroke-width="1px" stroke="#6B6B6B" fill="#6B6B6B"/>
          <path clip-path="url(#clip-76593093)" d="M 2.6101,5.2202 L 2.6101,22.7453 L 2.9830,22.7453 L 2.9830,5.2202 L 2.6101,5.2202 Z" stroke-width="1px" stroke="#727272" fill="#727272"/>
          <path clip-path="url(#clip-76593093)" d="M 2.9830,5.2202 L 2.9830,22.7453 L 3.3559,22.7453 L 3.3559,5.2202 L 2.9830,5.2202 Z" stroke-width="1px" stroke="#6D6D6D" fill="#6D6D6D"/>
          <path clip-path="url(#clip-76593093)" d="M 3.3559,5.2202 L 3.3559,22.7453 L 3.7287,22.7453 L 3.7287,5.2202 L 3.3559,5.2202 Z" stroke-width="1px" stroke="#676767" fill="#676767"/>
          <path clip-path="url(#clip-76593093)" d="M 3.7287,5.2202 L 3.7287,22.7453 L 4.1016,22.7453 L 4.1016,5.2202 L 3.7287,5.2202 Z" stroke-width="1px" stroke="#606060" fill="#606060"/>
          <path clip-path="url(#clip-76593093)" d="M 4.1016,5.2202 L 4.1016,22.7453 L 4.4745,22.7453 L 4.4745,5.2202 L 4.1016,5.2202 Z" stroke-width="1px" stroke="#595959" fill="#595959"/>
          <path clip-path="url(#clip-76593093)" d="M 4.4745,5.2202 L 4.4745,22.7453 L 4.8474,22.7453 L 4.8474,5.2202 L 4.4745,5.2202 Z" stroke-width="1px" stroke="#535353" fill="#535353"/>
        </g>
        <g transform="matrix(0.0625 0.0000 0.0000 0.0625 0.0000 0.0000)">
          <path d="M 20.8809,350.5013 C 35.4230,353.4843 50.3380,353.4843 64.8800,350.5013 C 70.1003,268.0962 71.5918,184.9454 69.3545,101.7945 C 51.8295,98.4387 33.9315,98.4387 16.7793,101.7945 C 14.1692,184.9454 15.6607,268.0962 20.8809,350.5013 Z M 16.7793,101.7945 C 33.9315,98.4387 51.8295,98.4387 69.3545,101.7945 C 68.9816,98.8115 68.9816,95.8286 68.9816,92.8456 L 68.9816,92.8456 C 63.3885,91.7269 58.1683,90.9812 52.9481,90.6083 C 46.9821,89.8626 41.3890,89.8626 35.7959,90.2355 C 29.4570,90.6083 23.1182,91.3541 16.7793,92.8456 C 16.7793,95.8286 16.7793,98.8115 16.7793,101.7945 Z " stroke="#4D4D4D" stroke-width="0.3729" stroke-linecap="round" stroke-linejoin="round" fill="none"/>
        </g>
        <g transform="matrix(1.0000 0.0000 0.0000 1.0000 0.0000 0.0000)">
</g>
        <g transform="matrix(0.0625 0.0000 0.0000 0.0625 0.0000 0.0000)">
          <path d="M 75.6934,301.2820 C 75.6934,300.5363 75.6934,299.4176 75.6934,298.6719 L 75.6934,298.6719 L 10.0676,298.6719 C 10.0676,299.4176 10.0676,300.5363 10.0676,301.2820 L 10.0676,301.2820 L 75.6934,301.2820 Z " fill="#595959" stroke="none"/>
        </g>
        <g transform="matrix(1.0000 0.0000 0.0000 1.0000 0.0000 0.0000)">
</g>
        <g transform="matrix(0.0625 0.0000 0.0000 0.0625 0.0000 0.0000)">
          <path d="M 75.6934,301.2820 C 75.6934,300.5363 75.6934,299.4176 75.6934,298.6719 L 75.6934,298.6719 L 10.0676,298.6719 C 10.0676,299.4176 10.0676,300.5363 10.0676,301.2820 L 10.0676,301.2820 L 75.6934,301.2820 Z " stroke="#595959" stroke-width="0.3729" stroke-linecap="round" stroke-linejoin="round" fill="none"/>
        </g>
        <g transform="matrix(1.0000 0.0000 0.0000 1.0000 0.0000 0.0000)">
</g>
        <g transform="matrix(0.0625 0.0000 0.0000 0.0625 0.0000 0.0000)">
          <path d="M 18.2708,184.1996 L 67.4902,184.1996 C 67.4902,183.0810 67.4902,181.9624 67.4902,180.8438 C 67.4902,163.3187 67.1173,145.4208 65.9987,129.0143 C 65.6258,126.0313 63.0157,123.7941 60.0327,123.7941 L 25.7283,123.7941 C 22.7453,123.7941 20.1352,126.0313 20.1352,129.0143 C 19.0166,145.4208 18.2708,163.3187 18.2708,180.8438 C 18.2708,181.9624 18.2708,183.0810 18.2708,184.1996 L 18.2708,184.1996 L 18.2708,184.1996 Z " fill="#333333" stroke="none"/>
        </g>
        <g transform="matrix(1.0000 0.0000 0.0000 1.0000 0.0000 0.0000)">
</g>
        <g transform="matrix(0.0625 0.0000 0.0000 0.0625 0.0000 0.0000)">
          <path d="M 18.2708,184.1996 L 67.4902,184.1996 C 67.4902,183.0810 67.4902,181.9624 67.4902,180.8438 C 67.4902,163.3187 67.1173,145.4208 65.9987,129.0143 C 65.6258,126.0313 63.0157,123.7941 60.0327,123.7941 L 25.7283,123.7941 C 22.7453,123.7941 20.1352,126.0313 20.1352,129.0143 C 19.0166,145.4208 18.2708,163.3187 18.2708,180.8438 C 18.2708,181.9624 18.2708,183.0810 18.2708,184.1996 " stroke="#404040" stroke-width="0.3729" stroke-linecap="round" stroke-linejoin="round" fill="none"/>
        </g>
        <g transform="matrix(1.0000 0.0000 0.0000 1.0000 0.0000 0.0000)">
</g>
        <g transform="matrix(0.0625 0.0000 0.0000 0.0625 0.0000 0.0000)">
          <path d="M 67.4902,184.1996 C 67.4902,183.4539 67.4902,182.3353 67.4902,181.2167 C 67.4902,164.4373 67.1173,147.6580 65.9987,131.9973 C 65.6258,129.3872 63.0157,127.1500 60.0327,127.1500 L 25.7283,127.1500 C 22.7453,127.1500 20.1352,129.3872 20.1352,131.9973 C 19.0166,147.6580 18.2708,164.4373 18.2708,181.2167 C 18.2708,182.3353 18.2708,183.4539 18.2708,184.1996 C 18.2708,202.8433 18.6437,221.4870 18.6437,239.3850 C 19.0166,242.7408 21.2538,244.9781 24.6097,244.9781 L 24.6097,244.9781 L 61.1513,244.9781 C 64.5072,244.9781 67.1173,242.7408 67.1173,239.3850 C 67.4902,221.4870 67.4902,202.8433 67.4902,184.1996 L 67.4902,184.1996 L 67.4902,184.1996 Z " fill="#404040" stroke="none"/>
        </g>
        <g transform="matrix(1.0000 0.0000 0.0000 1.0000 0.0000 0.0000)">
</g>
        <g transform="matrix(0.0625 0.0000 0.0000 0.0625 0.0000 0.0000)">
          <path d="M 67.4902,184.1996 C 67.4902,183.4539 67.4902,182.3353 67.4902,181.2167 C 67.4902,164.4373 67.1173,147.6580 65.9987,131.9973 C 65.6258,129.3872 63.0157,127.1500 60.0327,127.1500 L 25.7283,127.1500 C 22.7453,127.1500 20.1352,129.3872 20.1352,131.9973 C 19.0166,147.6580 18.2708,164.4373 18.2708,181.2167 C 18.2708,182.3353 18.2708,183.4539 18.2708,184.1996 C 18.2708,202.8433 18.6437,221.4870 18.6437,239.3850 C 19.0166,242.7408 21.2538,244.9781 24.6097,244.9781 L 24.6097,244.9781 L 61.1513,244.9781 C 64.5072,244.9781 67.1173,242.7408 67.1173,239.3850 C 67.4902,221.4870 67.4902,202.8433 67.4902,184.1996 " stroke="#404040" stroke-width="0.3729" stroke-linecap="round" stroke-linejoin="round" fill="none"/>
        </g>
        <g transform="matrix(1.0000 0.0000 0.0000 1.0000 0.0000 0.0000)">
</g>
        <g transform="matrix(0.0625 0.0000 0.0000 0.0625 0.0000 0.0000)">
          <path d="M 66.7444,150.2681 L 66.7444,149.8953 L 60.4056,153.6240 L 60.4056,160.7086 L 66.7444,164.0645 L 67.4902,163.6916 C 67.1173,159.2171 67.1173,154.7426 66.7444,150.2681 Z M 19.0166,150.6410 L 23.1182,148.4038 L 23.1182,144.6750 L 19.0166,144.6750 C 19.0166,146.5394 19.0166,148.7766 19.0166,150.6410 Z M 18.6437,161.0815 L 23.8639,164.0645 L 30.2028,160.7086 L 30.2028,153.6240 L 23.8639,149.8953 L 19.0166,152.8782 C 18.6437,155.4884 18.6437,158.4714 18.6437,161.0815 Z M 18.2708,175.6235 L 23.1182,173.0134 L 23.1182,165.9288 L 18.6437,163.3187 C 18.2708,167.4203 18.2708,171.5219 18.2708,175.6235 Z M 18.2708,185.6911 L 23.8639,188.6741 L 30.2028,185.3183 L 30.2028,178.2337 L 23.8639,174.5049 L 18.2708,177.8608 C 18.2708,178.9794 18.2708,180.0980 18.2708,181.2167 C 18.2708,182.3353 18.2708,183.4539 18.2708,184.1996 L 18.2708,184.1996 L 18.2708,185.6911 Z M 18.2708,200.2332 L 23.1182,197.6231 L 23.1182,190.5385 L 18.2708,187.5555 C 18.2708,192.0300 18.2708,196.1316 18.2708,200.2332 Z M 18.2708,210.3008 L 23.8639,213.2838 L 30.2028,209.9279 L 30.2028,202.8433 L 23.8639,199.1146 L 18.2708,202.4705 C 18.2708,205.0806 18.2708,207.6907 18.2708,210.3008 Z M 18.6437,224.8429 L 23.1182,222.2328 L 23.1182,215.1482 L 18.2708,212.5380 C 18.6437,216.6397 18.6437,220.7413 18.6437,224.8429 Z M 18.6437,234.9105 L 23.8639,237.8935 L 30.2028,234.5376 L 30.2028,227.4530 L 23.8639,223.7243 L 18.6437,227.0801 C 18.6437,229.6902 18.6437,232.3004 18.6437,234.9105 Z M 23.1182,244.9781 L 23.1182,239.7578 L 18.6437,237.1477 C 18.6437,237.8935 18.6437,238.6392 18.6437,239.3850 C 19.0166,241.9951 20.5081,244.2323 23.1182,244.9781 Z M 37.2874,244.9781 L 37.2874,239.7578 L 30.9485,236.0291 L 24.9825,239.7578 L 24.9825,244.9781 L 37.2874,244.9781 Z M 51.4566,244.9781 L 51.4566,239.7578 L 45.1177,236.0291 L 39.1517,239.7578 L 39.1517,244.9781 L 51.4566,244.9781 Z M 65.6258,243.1137 L 65.6258,239.7578 L 59.6598,236.0291 L 53.3209,239.7578 L 53.3209,244.9781 L 61.1513,244.9781 C 63.0157,244.9781 64.5072,244.2323 65.6258,243.1137 Z M 67.1173,224.0971 L 66.7444,223.7243 L 60.4056,227.4530 L 60.4056,234.5376 L 66.7444,237.8935 L 67.1173,237.8935 C 67.1173,233.4190 67.1173,228.5716 67.1173,224.0971 Z M 67.4902,199.8603 L 66.7444,199.1146 L 60.4056,202.8433 L 60.4056,209.9279 L 66.7444,213.2838 L 67.4902,212.9109 C 67.4902,208.4364 67.4902,203.9620 67.4902,199.8603 Z M 67.4902,184.1996 C 67.4902,183.4539 67.4902,182.3353 67.4902,181.2167 C 67.4902,178.9794 67.4902,177.1150 67.4902,175.2507 L 67.4902,175.2507 L 66.7444,174.5049 L 60.4056,178.2337 L 60.4056,185.3183 L 66.7444,188.6741 L 67.4902,188.3013 C 67.4902,186.8098 67.4902,185.6911 67.4902,184.1996 L 67.4902,184.1996 L 67.4902,184.1996 Z M 65.6258,190.5385 L 59.6598,186.8098 L 53.3209,190.5385 L 53.3209,197.6231 L 59.6598,200.9790 L 65.6258,197.6231 L 65.6258,190.5385 Z M 65.6258,215.1482 L 59.6598,211.4194 L 53.3209,215.1482 L 53.3209,222.2328 L 59.6598,225.5886 L 65.6258,222.2328 L 65.6258,215.1482 Z M 58.5412,153.6240 L 52.2023,149.8953 L 46.2363,153.6240 L 46.2363,160.7086 L 52.2023,164.0645 L 58.5412,160.7086 L 58.5412,153.6240 Z M 58.5412,178.2337 L 52.2023,174.5049 L 46.2363,178.2337 L 46.2363,185.3183 L 52.2023,188.6741 L 58.5412,185.3183 L 58.5412,178.2337 Z M 51.4566,165.9288 L 45.1177,162.2001 L 39.1517,165.9288 L 39.1517,173.0134 L 45.1177,176.3693 L 51.4566,173.0134 L 51.4566,165.9288 Z M 58.5412,202.8433 L 52.2023,199.1146 L 46.2363,202.8433 L 46.2363,209.9279 L 52.2023,213.2838 L 58.5412,209.9279 L 58.5412,202.8433 Z M 58.5412,227.4530 L 52.2023,223.7243 L 46.2363,227.4530 L 46.2363,234.5376 L 52.2023,237.8935 L 58.5412,234.5376 L 58.5412,227.4530 Z M 51.4566,190.5385 L 45.1177,186.8098 L 39.1517,190.5385 L 39.1517,197.6231 L 45.1177,200.9790 L 51.4566,197.6231 L 51.4566,190.5385 Z M 51.4566,215.1482 L 45.1177,211.4194 L 39.1517,215.1482 L 39.1517,222.2328 L 45.1177,225.5886 L 51.4566,222.2328 L 51.4566,215.1482 Z M 65.6258,165.9288 L 59.6598,162.2001 L 53.3209,165.9288 L 53.3209,173.0134 L 59.6598,176.3693 L 65.6258,173.0134 L 65.6258,165.9288 Z M 37.2874,144.6750 L 24.9825,144.6750 L 24.9825,148.4038 L 30.9485,151.7596 L 37.2874,148.4038 L 37.2874,144.6750 Z M 44.3720,202.8433 L 38.0331,199.1146 L 32.0671,202.8433 L 32.0671,209.9279 L 38.0331,213.2838 L 44.3720,209.9279 L 44.3720,202.8433 Z M 44.3720,227.4530 L 38.0331,223.7243 L 32.0671,227.4530 L 32.0671,234.5376 L 38.0331,237.8935 L 44.3720,234.5376 L 44.3720,227.4530 Z M 37.2874,190.5385 L 30.9485,186.8098 L 24.9825,190.5385 L 24.9825,197.6231 L 30.9485,200.9790 L 37.2874,197.6231 L 37.2874,190.5385 Z M 37.2874,215.1482 L 30.9485,211.4194 L 24.9825,215.1482 L 24.9825,222.2328 L 30.9485,225.5886 L 37.2874,222.2328 L 37.2874,215.1482 Z M 44.3720,153.6240 L 38.0331,149.8953 L 32.0671,153.6240 L 32.0671,160.7086 L 38.0331,164.0645 L 44.3720,160.7086 L 44.3720,153.6240 Z M 44.3720,178.2337 L 38.0331,174.5049 L 32.0671,178.2337 L 32.0671,185.3183 L 38.0331,188.6741 L 44.3720,185.3183 L 44.3720,178.2337 Z M 37.2874,165.9288 L 30.9485,162.2001 L 24.9825,165.9288 L 24.9825,173.0134 L 30.9485,176.3693 L 37.2874,173.0134 L 37.2874,165.9288 Z M 65.6258,144.6750 L 53.3209,144.6750 L 53.3209,148.4038 L 59.6598,151.7596 L 65.6258,148.4038 L 65.6258,144.6750 Z M 51.4566,144.6750 L 39.1517,144.6750 L 39.1517,148.4038 L 45.1177,151.7596 L 51.4566,148.4038 L 51.4566,144.6750 Z " fill="#1A1A1A" stroke="none"/>
        </g>
        <g transform="matrix(1.0000 0.0000 0.0000 1.0000 0.0000 0.0000)">
          <path d="M 4.4745,2.2372 C 4.1016,2.2372 3.7287,2.2372 3.3559,2.2372 C 2.9830,2.2372 2.6101,1.8644 2.2372,2.2372 C 2.2372,2.2372 1.8644,2.2372 1.4915,2.2372 C 1.4915,3.3559 1.1186,4.8474 1.1186,5.9660 L 1.1186,5.9660 C 1.4915,5.9660 1.8644,5.9660 2.2372,5.9660 C 2.6101,5.9660 2.9830,5.9660 3.3559,5.9660 C 3.7287,5.9660 4.1016,5.9660 4.4745,5.9660 C 4.4745,4.8474 4.4745,3.3559 4.4745,2.2372 Z " fill="none" stroke="none"/>
          <defs>
            <clipPath id="clip-1124311574">
              <path d="M 4.4745,2.2372 C 4.1016,2.2372 3.7287,2.2372 3.3559,2.2372 C 2.9830,2.2372 2.6101,1.8644 2.2372,2.2372 C 2.2372,2.2372 1.8644,2.2372 1.4915,2.2372 C 1.4915,3.3559 1.1186,4.8474 1.1186,5.9660 L 1.1186,5.9660 C 1.4915,5.9660 1.8644,5.9660 2.2372,5.9660 C 2.6101,5.9660 2.9830,5.9660 3.3559,5.9660 C 3.7287,5.9660 4.1016,5.9660 4.4745,5.9660 C 4.4745,4.8474 4.4745,3.3559 4.4745,2.2372 Z"/>
            </clipPath>
          </defs>
          <path clip-path="url(#clip-1124311574)" d="M 0.3729,1.4915 L 0.3729,6.3389 L 0.7457,6.3389 L 0.7457,1.4915 L 0.3729,1.4915 Z" stroke-width="1px" stroke="#5F5F5F" fill="#5F5F5F"/>
          <path clip-path="url(#clip-1124311574)" d="M 0.7457,1.4915 L 0.7457,6.3389 L 1.1186,6.3389 L 1.1186,1.4915 L 0.7457,1.4915 Z" stroke-width="1px" stroke="#5A5A5A" fill="#5A5A5A"/>
          <path clip-path="url(#clip-1124311574)" d="M 1.1186,1.4915 L 1.1186,6.3389 L 1.4915,6.3389 L 1.4915,1.4915 L 1.1186,1.4915 Z" stroke-width="1px" stroke="#626262" fill="#626262"/>
          <path clip-path="url(#clip-1124311574)" d="M 1.4915,1.4915 L 1.4915,6.3389 L 1.8644,6.3389 L 1.8644,1.4915 L 1.4915,1.4915 Z" stroke-width="1px" stroke="#696969" fill="#696969"/>
          <path clip-path="url(#clip-1124311574)" d="M 1.8644,1.4915 L 1.8644,6.3389 L 2.2372,6.3389 L 2.2372,1.4915 L 1.8644,1.4915 Z" stroke-width="1px" stroke="#707070" fill="#707070"/>
          <path clip-path="url(#clip-1124311574)" d="M 2.2372,1.4915 L 2.2372,6.3389 L 2.6101,6.3389 L 2.6101,1.4915 L 2.2372,1.4915 Z" stroke-width="1px" stroke="#777777" fill="#777777"/>
          <path clip-path="url(#clip-1124311574)" d="M 2.6101,1.4915 L 2.6101,6.3389 L 2.9830,6.3389 L 2.9830,1.4915 L 2.6101,1.4915 Z" stroke-width="1px" stroke="#7F7F7F" fill="#7F7F7F"/>
          <path clip-path="url(#clip-1124311574)" d="M 2.9830,1.4915 L 2.9830,6.3389 L 3.3559,6.3389 L 3.3559,1.4915 L 2.9830,1.4915 Z" stroke-width="1px" stroke="#7A7A7A" fill="#7A7A7A"/>
          <path clip-path="url(#clip-1124311574)" d="M 3.3559,1.4915 L 3.3559,6.3389 L 3.7287,6.3389 L 3.7287,1.4915 L 3.3559,1.4915 Z" stroke-width="1px" stroke="#727272" fill="#727272"/>
          <path clip-path="url(#clip-1124311574)" d="M 3.7287,1.4915 L 3.7287,6.3389 L 4.1016,6.3389 L 4.1016,1.4915 L 3.7287,1.4915 Z" stroke-width="1px" stroke="#6C6C6C" fill="#6C6C6C"/>
          <path clip-path="url(#clip-1124311574)" d="M 4.1016,1.4915 L 4.1016,6.3389 L 4.4745,6.3389 L 4.4745,1.4915 L 4.1016,1.4915 Z" stroke-width="1px" stroke="#646464" fill="#646464"/>
        </g>
        <g transform="matrix(0.0625 0.0000 0.0000 0.0625 0.0000 0.0000)">
          <path d="M 65.9987,33.1858 C 61.5242,32.0671 57.4226,31.3214 52.9481,30.9485 C 46.9821,30.2028 41.3890,30.2028 35.7959,30.5756 C 30.2028,30.9485 24.9825,32.0671 19.7623,33.1858 C 18.6437,52.9481 17.5251,72.7104 16.7793,92.8456 L 16.7793,92.8456 C 23.1182,91.3541 29.4570,90.6083 35.7959,90.2355 C 41.3890,89.8626 46.9821,89.8626 52.9481,90.6083 C 58.1683,90.9812 63.3885,91.7269 68.9816,92.8456 C 68.2359,72.7104 67.4902,52.9481 65.9987,33.1858 Z " stroke="#4D4D4D" stroke-width="0.3729" stroke-linecap="round" stroke-linejoin="round" fill="none"/>
        </g>
        <g transform="matrix(1.0000 0.0000 0.0000 1.0000 0.0000 0.0000)">
          <defs>
            <clipPath id="clip-431530126">
              <path d="M 2.6101,3.7287 L 3.3559,3.7287 L 3.3559,4.4745 L 2.6101,4.4745 L 2.6101,3.7287 Z Z"/>
            </clipPath>
          </defs>
          <path clip-path="url(#clip-431530126)" d="M 1.8644,2.9830 L 1.8644,3.3559 L 3.7287,3.3559 L 3.7287,2.9830 L 1.8644,2.9830 Z" stroke-width="1px" stroke="#7F7F7F" fill="#7F7F7F"/>
          <path clip-path="url(#clip-431530126)" d="M 1.8644,3.3559 L 1.8644,3.7287 L 3.7287,3.7287 L 3.7287,3.3559 L 1.8644,3.3559 Z" stroke-width="1px" stroke="#616161" fill="#616161"/>
          <path clip-path="url(#clip-431530126)" d="M 1.8644,3.7287 L 1.8644,4.1016 L 3.7287,4.1016 L 3.7287,3.7287 L 1.8644,3.7287 Z" stroke-width="1px" stroke="#6A6A6A" fill="#6A6A6A"/>
          <path clip-path="url(#clip-431530126)" d="M 1.8644,4.1016 L 1.8644,4.4745 L 3.7287,4.4745 L 3.7287,4.1016 L 1.8644,4.1016 Z" stroke-width="1px" stroke="#727272" fill="#727272"/>
          <path clip-path="url(#clip-431530126)" d="M 1.8644,4.4745 L 1.8644,4.8474 L 3.7287,4.8474 L 3.7287,4.4745 L 1.8644,4.4745 Z" stroke-width="1px" stroke="#7B7B7B" fill="#7B7B7B"/>
        </g>
        <g transform="matrix(0.0625 0.0000 0.0000 0.0625 0.0000 0.0000)">
          <path d="M 1.8644,4.4745 M 49.9651,61.8970 C 49.9651,57.7954 46.9821,54.4396 42.8805,54.4396 C 38.7789,54.4396 35.7959,57.7954 35.7959,61.8970 C 35.7959,65.9987 38.7789,69.3545 42.8805,69.3545 C 46.9821,69.3545 49.9651,65.9987 49.9651,61.8970 " stroke="#595959" stroke-width="0.3729" stroke-linecap="round" stroke-linejoin="round" fill="none"/>
        </g>
        <g transform="matrix(1.0000 0.0000 0.0000 1.0000 0.0000 0.0000)">
</g>
        <g transform="matrix(0.0625 0.0000 0.0000 0.0625 0.0000 0.0000)">
          <path d="M 72.7104,32.0671 C 52.9481,21.9996 32.8129,21.9996 13.0506,32.0671 L 13.0506,32.0671 L 19.7623,33.1858 C 24.9825,32.0671 30.5756,30.9485 35.7959,30.5756 C 41.3890,30.2028 46.9821,30.2028 52.9481,30.9485 C 57.4226,31.3214 61.8970,32.0671 66.3715,33.1858 L 72.7104,32.0671 Z " fill="#4D4D4D" stroke="none"/>
        </g>
        <g transform="matrix(1.0000 0.0000 0.0000 1.0000 0.0000 0.0000)">
</g>
        <g transform="matrix(0.0625 0.0000 0.0000 0.0625 0.0000 0.0000)">
          <path d="M 72.7104,32.0671 C 52.9481,21.9996 32.8129,21.9996 13.0506,32.0671 L 13.0506,32.0671 L 19.7623,33.1858 C 24.9825,32.0671 30.5756,30.9485 35.7959,30.5756 C 41.3890,30.2028 46.9821,30.2028 52.9481,30.9485 C 57.4226,31.3214 61.8970,32.0671 66.3715,33.1858 L 72.7104,32.0671 Z " stroke="#4D4D4D" stroke-width="0.3729" stroke-linecap="round" stroke-linejoin="round" fill="none"/>
        </g>
        <g transform="matrix(1.0000 0.0000 0.0000 1.0000 0.0000 0.0000)">
</g>
        <g transform="matrix(0.0625 0.0000 0.0000 0.0625 0.0000 0.0000)">
          <path d="M 73.4561,298.6719 L 12.3048,298.6719 C 12.6777,299.4176 12.6777,300.5363 12.6777,301.2820 L 73.4561,301.2820 C 73.4561,300.5363 73.4561,299.4176 73.4561,298.6719 Z " fill="#4D4D4D" stroke="none"/>
        </g>
        <g transform="matrix(1.0000 0.0000 0.0000 1.0000 0.0000 0.0000)">
</g>
        <g transform="matrix(0.0625 0.0000 0.0000 0.0625 0.0000 0.0000)">
          <path d="M 73.4561,298.6719 L 12.3048,298.6719 C 12.6777,299.4176 12.6777,300.5363 12.6777,301.2820 L 73.4561,301.2820 C 73.4561,300.5363 73.4561,299.4176 73.4561,298.6719 Z " stroke="#595959" stroke-width="0.3729" stroke-linecap="round" stroke-linejoin="round" fill="none"/>
        </g>
        <g transform="matrix(1.0000 0.0000 0.0000 1.0000 0.0000 0.0000)">
</g>
        <g transform="matrix(0.0625 0.0000 0.0000 0.0625 0.0000 0.0000)">
          <path d="M 18.2708,298.6719 C 18.2708,299.4176 18.2708,300.5363 18.2708,301.2820 L 18.2708,301.2820 L 67.4902,301.2820 C 67.4902,300.5363 67.8630,299.4176 67.8630,298.6719 L 67.8630,298.6719 L 18.2708,298.6719 Z " stroke="#595959" stroke-width="0.3729" stroke-linecap="round" stroke-linejoin="round" fill="none"/>
        </g>
        <g transform="matrix(1.0000 0.0000 0.0000 1.0000 0.0000 0.0000)">
</g>
        <g transform="matrix(0.0625 0.0000 0.0000 0.0625 0.0000 0.0000)">
          <path d="M 38.0331,321.7901 L 49.9651,321.7901 C 51.0837,321.7901 52.2023,320.6714 52.2023,319.5528 C 52.2023,319.5528 52.2023,319.5528 52.2023,319.5528 L 52.2023,273.3165 C 52.2023,272.1979 51.0837,271.0792 49.9651,271.0792 L 38.0331,271.0792 C 36.9145,271.0792 36.1688,272.1979 36.1688,273.3165 L 36.1688,319.5528 C 36.1688,320.6714 36.9145,321.7901 38.0331,321.7901 Z " fill="#666666" stroke="none"/>
        </g>
        <g transform="matrix(1.0000 0.0000 0.0000 1.0000 0.0000 0.0000)">
</g>
        <g transform="matrix(0.0625 0.0000 0.0000 0.0625 0.0000 0.0000)">
          <path d="M 38.0331,321.7901 L 49.9651,321.7901 C 51.0837,321.7901 52.2023,320.6714 52.2023,319.5528 C 52.2023,319.5528 52.2023,319.5528 52.2023,319.5528 L 52.2023,273.3165 C 52.2023,272.1979 51.0837,271.0792 49.9651,271.0792 L 38.0331,271.0792 C 36.9145,271.0792 36.1688,272.1979 36.1688,273.3165 L 36.1688,319.5528 C 36.1688,320.6714 36.9145,321.7901 38.0331,321.7901 Z " stroke="#404040" stroke-width="0.3729" stroke-linecap="round" stroke-linejoin="round" fill="none"/>
        </g>
        <g transform="matrix(1.0000 0.0000 0.0000 1.0000 0.0000 0.0000)">
</g>
        <g transform="matrix(0.0625 0.0000 0.0000 0.0625 0.0000 0.0000)">
          <path d="M 41.0161,17.5251 C 41.0161,14.9150 39.1517,12.6777 36.5416,12.6777 C 33.9315,12.6777 32.0671,14.9150 32.0671,17.5251 C 32.0671,20.1352 33.9315,21.9996 36.5416,21.9996 C 39.1517,21.9996 41.0161,20.1352 41.0161,17.5251 " fill="#8C8C8C" stroke="none"/>
        </g>
        <g transform="matrix(1.0000 0.0000 0.0000 1.0000 0.0000 0.0000)">
</g>
        <g transform="matrix(0.0625 0.0000 0.0000 0.0625 0.0000 0.0000)">
          <path d="M 41.0161,17.5251 M 41.0161,17.5251 C 41.0161,14.9150 39.1517,12.6777 36.5416,12.6777 C 33.9315,12.6777 32.0671,14.9150 32.0671,17.5251 C 32.0671,20.1352 33.9315,21.9996 36.5416,21.9996 C 39.1517,21.9996 41.0161,20.1352 41.0161,17.5251 " stroke="#595959" stroke-width="0.3729" stroke-linecap="round" stroke-linejoin="round" fill="none"/>
        </g>
        <g transform="matrix(1.0000 0.0000 0.0000 1.0000 0.0000 0.0000)">
</g>
        <g transform="matrix(0.0625 0.0000 0.0000 0.0625 0.0000 0.0000)">
          <path d="M 28.3384,18.6437 C 28.3384,16.0336 26.1012,14.1692 23.4910,14.1692 C 21.2538,14.1692 19.0166,16.0336 19.0166,18.6437 C 19.0166,21.2538 21.2538,23.1182 23.4910,23.1182 C 26.1012,23.1182 28.3384,21.2538 28.3384,18.6437 " fill="#8C8C8C" stroke="none"/>
        </g>
        <g transform="matrix(1.0000 0.0000 0.0000 1.0000 0.0000 0.0000)">
</g>
        <g transform="matrix(0.0625 0.0000 0.0000 0.0625 0.0000 0.0000)">
          <path d="M 28.3384,18.6437 M 28.3384,18.6437 C 28.3384,16.0336 26.1012,14.1692 23.4910,14.1692 C 21.2538,14.1692 19.0166,16.0336 19.0166,18.6437 C 19.0166,21.2538 21.2538,23.1182 23.4910,23.1182 C 26.1012,23.1182 28.3384,21.2538 28.3384,18.6437 " stroke="#595959" stroke-width="0.3729" stroke-linecap="round" stroke-linejoin="round" fill="none"/>
        </g>
        <g transform="matrix(1.0000 0.0000 0.0000 1.0000 0.0000 0.0000)">
</g>
      </g>
      <!--emf-blob end-->
    </g>
    <g transform=" translate(0.911300,15.615800) ">
      <!--emf-blob start-->
      <g transform="translate(-0.5916, -1.1833)">
        <text font-family="Arial" fill="#404040" transform="rotate(-270, 1.1833, 2.2482) translate(0, 1.0649)" style="white-space:pre;" font-weight="400" text-anchor="start" x="1.1833" y="1.1833" font-size="1.1833"><![CDATA[1]]></text>
        <text font-family="Arial" fill="#404040" transform="rotate(-270, 1.1833, 2.8398) translate(0, 1.0649)" style="white-space:pre;" font-weight="400" text-anchor="start" x="1.1833" y="1.7749" font-size="1.1833"><![CDATA[2]]></text>
        <text font-family="Arial" fill="#404040" transform="rotate(-270, 1.1833, 3.4314) translate(0, 1.0649)" style="white-space:pre;" font-weight="400" text-anchor="start" x="1.1833" y="2.3665" font-size="1.1833"><![CDATA[0]]></text>
        <text font-family="Arial" fill="#404040" transform="rotate(-270, 1.1833, 4.0231) translate(0, 1.0649)" style="white-space:pre;" font-weight="400" text-anchor="start" x="1.1833" y="2.9581" font-size="1.1833"><![CDATA[0]]></text>
        <text font-family="Arial" fill="#404040" transform="rotate(-270, 1.1833, 4.6147) translate(0, 1.0649)" style="white-space:pre;" font-weight="400" text-anchor="start" x="1.1833" y="3.5498" font-size="1.1833"><![CDATA[G]]></text>
        <text font-family="Arial" fill="#404040" transform="rotate(-270, 1.1833, 5.7980) translate(0, 1.0649)" style="white-space:pre;" font-weight="400" text-anchor="start" x="1.1833" y="4.7330" font-size="1.1833"><![CDATA[B]]></text>
      </g>
      <!--emf-blob end-->
    </g>
  </g>
</svg>
