<svg xmlns="http://www.w3.org/2000/svg" xmlns:xlink="http://www.w3.org/1999/xlink" version="1.1" width="28.8000000000" height="6.4800000000">
  <title><![CDATA[FAS2220 Disk]]></title>
  <g transform=" scale(1.000000) ">
    <g xmlns="http://www.w3.org/2000/svg" id="Layer1878">
      <path d="  M0.1578,6.9241 L30.4698,6.9241 A0.1440,0.1440 0.0000 0,0 30.6138,6.7801 L30.6138,-0.1319 A0.1440,0.1440 0.0000 0,0 30.4698,-0.2759 L0.1578,-0.2759 A0.1440,0.1440 0.0000 0,0 0.0138,-0.1319 L0.0138,6.7801 A0.1440,0.1440 0.0000 0,0 0.1578,6.9241 Z" style="stroke-width: 0.0000; stroke-linecap: round; stroke-linejoin: round; fill-rule: evenodd; fill: #666666; "/>
      <path d="  M0.1578,6.9241 L30.4698,6.9241 A0.1440,0.1440 0.0000 0,0 30.6138,6.7801 L30.6138,-0.1319 A0.1440,0.1440 0.0000 0,0 30.4698,-0.2759 L0.1578,-0.2759 A0.1440,0.1440 0.0000 0,0 0.0138,-0.1319 L0.0138,6.7801 A0.1440,0.1440 0.0000 0,0 0.1578,6.9241 Z" style="stroke-width: 0.0000; stroke: #4d4d4d; stroke-dasharray: none; stroke-linecap: round; stroke-linejoin: round; fill: none; "/>
    </g>
    <g xmlns="http://www.w3.org/2000/svg" id="Layer1879">
      <path d="  M30.6138,0.0838 C30.3002,0.0698 29.9843,0.0562 29.6662,0.0431 C27.1379,-0.0613 24.4674,-0.1380 21.7332,-0.1847 C18.3021,-0.2432 14.7707,-0.2545 11.3020,-0.2179 C8.3186,-0.1864 5.3816,-0.1196 2.5916,-0.0197 C1.7169,0.0116 0.8567,0.0462 0.0138,0.0838 L0.0138,6.5662 C1.3608,6.6264 2.7518,6.6786 4.1751,6.7224 C7.0070,6.8096 9.9668,6.8633 12.9536,6.8818 C16.5805,6.9041 20.2473,6.8744 23.7708,6.7941 C26.1334,6.7403 28.4315,6.6637 30.6138,6.5662 L30.6138,0.0838 Z" style="stroke-width: 0.0000; stroke-linecap: round; stroke-linejoin: round; fill-rule: evenodd; fill: #7e7e7e; "/>
      <path d="  M30.6138,0.0838 C30.3002,0.0698 29.9843,0.0562 29.6662,0.0431 C27.1379,-0.0613 24.4674,-0.1380 21.7332,-0.1847 C18.3021,-0.2432 14.7707,-0.2545 11.3020,-0.2179 C8.3186,-0.1864 5.3816,-0.1196 2.5916,-0.0197 C1.7169,0.0116 0.8567,0.0462 0.0138,0.0838 L0.0138,6.5662 C1.3608,6.6264 2.7518,6.6786 4.1751,6.7224 C7.0070,6.8096 9.9668,6.8633 12.9536,6.8818 C16.5805,6.9041 20.2473,6.8744 23.7708,6.7941 C26.1334,6.7403 28.4315,6.6637 30.6138,6.5662 L30.6138,0.0838 Z" style="stroke-width: 0.0000; stroke: #7e7e7e; stroke-dasharray: none; stroke-linecap: round; stroke-linejoin: round; fill: none; "/>
    </g>
    <g xmlns="http://www.w3.org/2000/svg" id="Layer1880">
      <path d="  M30.6138,0.5883 A34.2000,3.0600 0.0000 0,0 0.0138,0.5883 L0.0138,6.0617 A34.2000,3.0600 0.0000 0,0 30.6138,6.0617 L30.6138,0.5883 Z" style="stroke-width: 0.0000; stroke-linecap: round; stroke-linejoin: round; fill-rule: evenodd; fill: #6f6f6f; "/>
      <path d="  M30.6138,0.5883 A34.2000,3.0600 0.0000 0,0 0.0138,0.5883 L0.0138,6.0617 A34.2000,3.0600 0.0000 0,0 30.6138,6.0617 L30.6138,0.5883 Z" style="stroke-width: 0.0000; stroke: #666666; stroke-dasharray: none; stroke-linecap: round; stroke-linejoin: round; fill: none; "/>
    </g>
    <g xmlns="http://www.w3.org/2000/svg" id="Layer1881">
      <path d="  M30.6138,0.9362 A34.2000,2.6700 0.0000 0,0 0.0138,0.9362 L0.0138,5.7121 A34.2000,2.6700 0.0000 0,0 30.6138,5.7121 L30.6138,0.9362 Z" style="stroke-width: 0.0000; stroke-linecap: round; stroke-linejoin: round; fill-rule: evenodd; fill: #7a7a7a; "/>
      <path d="  M30.6138,0.9362 A34.2000,2.6700 0.0000 0,0 0.0138,0.9362 L0.0138,5.7121 A34.2000,2.6700 0.0000 0,0 30.6138,5.7121 L30.6138,0.9362 Z" style="stroke-width: 0.0000; stroke: #666666; stroke-dasharray: none; stroke-linecap: round; stroke-linejoin: round; fill: none; "/>
    </g>
    <path xmlns="http://www.w3.org/2000/svg" d="  M0.1578,6.9241 L30.4698,6.9241 A0.1440,0.1440 0.0000 0,0 30.6138,6.7801 L30.6138,-0.1319 A0.1440,0.1440 0.0000 0,0 30.4698,-0.2759 L0.1578,-0.2759 A0.1440,0.1440 0.0000 0,0 0.0138,-0.1319 L0.0138,6.7801 A0.1440,0.1440 0.0000 0,0 0.1578,6.9241 Z" style="stroke-width: 0.0000; stroke: #333333; stroke-dasharray: none; stroke-linecap: round; stroke-linejoin: round; fill: none; "/>
    <!--converted by libvisio2svg-->
    <g transform=" translate(1.432900,-1.383800) ">
      <!--emf-blob start-->
      <g transform="translate(-0.0000, -0.0000)">
        <g transform="matrix(0.0625 0.0000 0.0000 0.0625 0.0000 0.0000)">
          <path d="M 39.8864,29.7335 C 36.2604,29.7335 31.9091,29.7335 28.2831,29.7335 C 13.7789,57.2914 13.7789,88.4753 28.2831,115.3080 C 31.9091,116.0332 36.2604,116.0332 39.8864,116.0332 C 34.8100,87.7501 34.8100,58.0166 39.8864,29.7335 " fill="#737373" stroke="none"/>
        </g>
        <g transform="matrix(1.0000 0.0000 0.0000 1.0000 0.0000 0.0000)">
</g>
        <g transform="matrix(0.0625 0.0000 0.0000 0.0625 0.0000 0.0000)">
          <path d="M 39.8864,29.7335 M 39.8864,29.7335 C 36.2604,29.7335 31.9091,29.7335 28.2831,29.7335 C 13.7789,57.2914 13.7789,88.4753 28.2831,115.3080 C 31.9091,116.0332 36.2604,116.0332 39.8864,116.0332 C 34.8100,87.7501 34.8100,58.0166 39.8864,29.7335 " stroke="#4D4D4D" stroke-width="0.7252" stroke-linecap="round" stroke-linejoin="round" fill="none"/>
        </g>
        <g transform="matrix(1.0000 0.0000 0.0000 1.0000 0.0000 0.0000)">
</g>
        <g transform="matrix(0.0625 0.0000 0.0000 0.0625 0.0000 0.0000)">
          <path d="M 412.6432,29.0083 C 414.0936,29.0083 416.2692,29.7335 418.4448,29.7335 C 424.9717,57.2914 424.9717,88.4753 418.4448,116.0332 C 416.2692,116.0332 414.0936,116.0332 412.6432,116.7584 C 414.8188,87.7501 414.8188,58.0166 412.6432,29.0083 " fill="#737373" stroke="none"/>
        </g>
        <g transform="matrix(1.0000 0.0000 0.0000 1.0000 0.0000 0.0000)">
</g>
        <g transform="matrix(0.0625 0.0000 0.0000 0.0625 0.0000 0.0000)">
          <path d="M 412.6432,29.0083 M 412.6432,29.0083 C 414.0936,29.0083 416.2692,29.7335 418.4448,29.7335 C 424.9717,57.2914 424.9717,88.4753 418.4448,116.0332 C 416.2692,116.0332 414.0936,116.0332 412.6432,116.7584 C 414.8188,87.7501 414.8188,58.0166 412.6432,29.0083 " stroke="#666666" stroke-width="0.7252" stroke-linecap="round" stroke-linejoin="round" fill="none"/>
        </g>
        <g transform="matrix(1.0000 0.0000 0.0000 1.0000 0.0000 0.0000)">
          <path d="M 2.9008,7.9773 C 10.1529,7.9773 18.8554,7.9773 26.1075,7.9773 C 26.8327,5.8017 26.8327,3.6260 26.1075,2.1756 C 18.8554,1.4504 10.1529,1.4504 2.9008,2.1756 C 2.1756,3.6260 2.1756,5.8017 2.9008,7.9773 " fill="none" stroke="none"/>
          <defs>
            <clipPath id="clip-656184096">
              <path d="M 2.9008,7.9773 C 10.1529,7.9773 18.8554,7.9773 26.1075,7.9773 C 26.8327,5.8017 26.8327,3.6260 26.1075,2.1756 C 18.8554,1.4504 10.1529,1.4504 2.9008,2.1756 C 2.1756,3.6260 2.1756,5.8017 2.9008,7.9773 Z"/>
            </clipPath>
          </defs>
          <path clip-path="url(#clip-656184096)" d="M 2.1756,0.7252 L 2.1756,1.4504 L 26.1075,1.4504 L 26.1075,0.7252 L 2.1756,0.7252 Z" stroke-width="1px" stroke="#848484" fill="#848484"/>
          <path clip-path="url(#clip-656184096)" d="M 2.1756,1.4504 L 2.1756,2.1756 L 26.1075,2.1756 L 26.1075,1.4504 L 2.1756,1.4504 Z" stroke-width="1px" stroke="#808080" fill="#808080"/>
          <path clip-path="url(#clip-656184096)" d="M 2.1756,2.1756 L 2.1756,2.9008 L 26.1075,2.9008 L 26.1075,2.1756 L 2.1756,2.1756 Z" stroke-width="1px" stroke="#858585" fill="#858585"/>
          <path clip-path="url(#clip-656184096)" d="M 2.1756,2.9008 L 2.1756,3.6260 L 26.1075,3.6260 L 26.1075,2.9008 L 2.1756,2.9008 Z" stroke-width="1px" stroke="#8A8A8A" fill="#8A8A8A"/>
          <path clip-path="url(#clip-656184096)" d="M 2.1756,3.6260 L 2.1756,4.3512 L 26.1075,4.3512 L 26.1075,3.6260 L 2.1756,3.6260 Z" stroke-width="1px" stroke="#8E8E8E" fill="#8E8E8E"/>
          <path clip-path="url(#clip-656184096)" d="M 2.1756,4.3512 L 2.1756,5.0765 L 26.1075,5.0765 L 26.1075,4.3512 L 2.1756,4.3512 Z" stroke-width="1px" stroke="#939393" fill="#939393"/>
          <path clip-path="url(#clip-656184096)" d="M 2.1756,5.0765 L 2.1756,5.8017 L 26.1075,5.8017 L 26.1075,5.0765 L 2.1756,5.0765 Z" stroke-width="1px" stroke="#919191" fill="#919191"/>
          <path clip-path="url(#clip-656184096)" d="M 2.1756,5.8017 L 2.1756,6.5269 L 26.1075,6.5269 L 26.1075,5.8017 L 2.1756,5.8017 Z" stroke-width="1px" stroke="#8C8C8C" fill="#8C8C8C"/>
          <path clip-path="url(#clip-656184096)" d="M 2.1756,6.5269 L 2.1756,7.2521 L 26.1075,7.2521 L 26.1075,6.5269 L 2.1756,6.5269 Z" stroke-width="1px" stroke="#888888" fill="#888888"/>
        </g>
        <g transform="matrix(0.0625 0.0000 0.0000 0.0625 0.0000 0.0000)">
          <path d="M 2.1756,6.5269 M 39.8864,120.3845 C 161.7213,124.0105 294.4343,124.0105 414.0936,118.9341 C 419.8953,88.4753 419.8953,57.2914 414.0936,26.8327 C 294.4343,21.7562 161.7213,21.7562 39.8864,25.3823 C 34.0848,56.5662 34.0848,89.2005 39.8864,120.3845 " stroke="#7E7E7E" stroke-width="0.7252" stroke-linecap="round" stroke-linejoin="round" fill="none"/>
        </g>
        <g transform="matrix(1.0000 0.0000 0.0000 1.0000 0.0000 0.0000)">
          <path d="M 5.8017,2.1756 C 5.0765,3.6260 5.0765,5.8017 5.8017,7.9773 C 7.2521,7.9773 9.4277,7.9773 10.8781,7.9773 C 10.8781,5.8017 10.8781,3.6260 10.8781,2.1756 C 9.4277,2.1756 7.2521,2.1756 5.8017,2.1756 " fill="none" stroke="none"/>
          <defs>
            <clipPath id="clip-1255251761">
              <path d="M 5.8017,2.1756 C 5.0765,3.6260 5.0765,5.8017 5.8017,7.9773 C 7.2521,7.9773 9.4277,7.9773 10.8781,7.9773 C 10.8781,5.8017 10.8781,3.6260 10.8781,2.1756 C 9.4277,2.1756 7.2521,2.1756 5.8017,2.1756 Z"/>
            </clipPath>
          </defs>
          <path clip-path="url(#clip-1255251761)" d="M 4.3512,1.4504 L 4.3512,2.1756 L 10.1529,2.1756 L 10.1529,1.4504 L 4.3512,1.4504 Z" stroke-width="1px" stroke="#696969" fill="#696969"/>
          <path clip-path="url(#clip-1255251761)" d="M 4.3512,2.1756 L 4.3512,2.9008 L 10.1529,2.9008 L 10.1529,2.1756 L 4.3512,2.1756 Z" stroke-width="1px" stroke="#595959" fill="#595959"/>
          <path clip-path="url(#clip-1255251761)" d="M 4.3512,2.9008 L 4.3512,3.6260 L 10.1529,3.6260 L 10.1529,2.9008 L 4.3512,2.9008 Z" stroke-width="1px" stroke="#3E3E3E" fill="#3E3E3E"/>
          <path clip-path="url(#clip-1255251761)" d="M 4.3512,3.6260 L 4.3512,4.3512 L 10.1529,4.3512 L 10.1529,3.6260 L 4.3512,3.6260 Z" stroke-width="1px" stroke="#232323" fill="#232323"/>
          <path clip-path="url(#clip-1255251761)" d="M 4.3512,4.3512 L 4.3512,5.0765 L 10.1529,5.0765 L 10.1529,4.3512 L 4.3512,4.3512 Z" stroke-width="1px" stroke="#070707" fill="#070707"/>
          <path clip-path="url(#clip-1255251761)" d="M 4.3512,5.0765 L 4.3512,5.8017 L 10.1529,5.8017 L 10.1529,5.0765 L 4.3512,5.0765 Z" stroke-width="1px" stroke="#151515" fill="#151515"/>
          <path clip-path="url(#clip-1255251761)" d="M 4.3512,5.8017 L 4.3512,6.5269 L 10.1529,6.5269 L 10.1529,5.8017 L 4.3512,5.8017 Z" stroke-width="1px" stroke="#313131" fill="#313131"/>
          <path clip-path="url(#clip-1255251761)" d="M 4.3512,6.5269 L 4.3512,7.2521 L 10.1529,7.2521 L 10.1529,6.5269 L 4.3512,6.5269 Z" stroke-width="1px" stroke="#4B4B4B" fill="#4B4B4B"/>
          <path clip-path="url(#clip-1255251761)" d="M 4.3512,7.2521 L 4.3512,7.9773 L 10.1529,7.9773 L 10.1529,7.2521 L 4.3512,7.2521 Z" stroke-width="1px" stroke="#676767" fill="#676767"/>
        </g>
        <g transform="matrix(0.0625 0.0000 0.0000 0.0625 0.0000 0.0000)">
          <path d="M 4.3512,7.2521 M 84.8493,27.5579 C 77.5972,57.2914 77.5972,88.4753 84.8493,118.2089 C 113.1324,118.9341 141.4155,119.6593 170.4238,119.6593 C 164.6221,89.2005 164.6221,56.5662 170.4238,26.1075 C 141.4155,26.1075 113.1324,26.8327 84.8493,27.5579 " stroke="#6F6F6F" stroke-width="0.7252" stroke-linecap="round" stroke-linejoin="round" fill="none"/>
        </g>
        <g transform="matrix(1.0000 0.0000 0.0000 1.0000 0.0000 0.0000)">
          <path d="M 21.7562,1.4504 L 21.0310,1.4504 L 21.0310,1.4504 C 22.4814,3.6260 22.4814,6.5269 21.0310,7.9773 L 21.0310,7.9773 L 21.7562,7.9773 L 21.7562,7.9773 C 23.2066,6.5269 23.2066,3.6260 21.7562,1.4504 Z " fill="none" stroke="none"/>
          <defs>
            <clipPath id="clip-1405097218">
              <path d="M 21.7562,1.4504 L 21.0310,1.4504 L 21.0310,1.4504 C 22.4814,3.6260 22.4814,6.5269 21.0310,7.9773 L 21.0310,7.9773 L 21.7562,7.9773 L 21.7562,7.9773 C 23.2066,6.5269 23.2066,3.6260 21.7562,1.4504 Z"/>
            </clipPath>
          </defs>
          <path clip-path="url(#clip-1405097218)" d="M 21.0310,0.7252 L 21.0310,2.1756 L 22.4814,2.1756 L 22.4814,0.7252 L 21.0310,0.7252 Z" stroke-width="1px" stroke="#6C6C6C" fill="#6C6C6C"/>
          <path clip-path="url(#clip-1405097218)" d="M 21.0310,2.1756 L 21.0310,2.9008 L 22.4814,2.9008 L 22.4814,2.1756 L 21.0310,2.1756 Z" stroke-width="1px" stroke="#777777" fill="#777777"/>
          <path clip-path="url(#clip-1405097218)" d="M 21.0310,2.9008 L 21.0310,3.6260 L 22.4814,3.6260 L 22.4814,2.9008 L 21.0310,2.9008 Z" stroke-width="1px" stroke="#828282" fill="#828282"/>
          <path clip-path="url(#clip-1405097218)" d="M 21.0310,3.6260 L 21.0310,4.3512 L 22.4814,4.3512 L 22.4814,3.6260 L 21.0310,3.6260 Z" stroke-width="1px" stroke="#8C8C8C" fill="#8C8C8C"/>
          <path clip-path="url(#clip-1405097218)" d="M 21.0310,4.3512 L 21.0310,5.0765 L 22.4814,5.0765 L 22.4814,4.3512 L 21.0310,4.3512 Z" stroke-width="1px" stroke="#979797" fill="#979797"/>
          <path clip-path="url(#clip-1405097218)" d="M 21.0310,5.0765 L 21.0310,5.8017 L 22.4814,5.8017 L 22.4814,5.0765 L 21.0310,5.0765 Z" stroke-width="1px" stroke="#929292" fill="#929292"/>
          <path clip-path="url(#clip-1405097218)" d="M 21.0310,5.8017 L 21.0310,6.5269 L 22.4814,6.5269 L 22.4814,5.8017 L 21.0310,5.8017 Z" stroke-width="1px" stroke="#878787" fill="#878787"/>
          <path clip-path="url(#clip-1405097218)" d="M 21.0310,6.5269 L 21.0310,7.2521 L 22.4814,7.2521 L 22.4814,6.5269 L 21.0310,6.5269 Z" stroke-width="1px" stroke="#7C7C7C" fill="#7C7C7C"/>
          <path clip-path="url(#clip-1405097218)" d="M 21.0310,7.2521 L 21.0310,7.9773 L 22.4814,7.9773 L 22.4814,7.2521 L 21.0310,7.2521 Z" stroke-width="1px" stroke="#717171" fill="#717171"/>
        </g>
        <g transform="matrix(0.0625 0.0000 0.0000 0.0625 0.0000 0.0000)">
          <path d="M 342.2980,17.4050 L 336.4964,17.4050 L 336.4964,17.4050 C 357.5274,51.4897 357.5274,94.2770 336.4964,128.3618 L 336.4964,128.3618 L 342.2980,128.3618 L 342.2980,128.3618 C 363.3291,94.2770 363.3291,51.4897 342.2980,17.4050 " stroke="#7E7E7E" stroke-width="0.7252" stroke-linecap="round" stroke-linejoin="round" fill="none"/>
        </g>
        <g transform="matrix(1.0000 0.0000 0.0000 1.0000 0.0000 0.0000)">
          <path d="M 21.7562,1.4504 L 21.0310,1.4504 L 21.0310,1.4504 C 22.4814,3.6260 22.4814,6.5269 21.0310,7.9773 L 21.0310,7.9773 L 21.7562,7.9773 L 21.7562,7.9773 C 22.4814,6.5269 22.4814,3.6260 21.7562,1.4504 Z " fill="none" stroke="none"/>
          <defs>
            <clipPath id="clip-1915664225">
              <path d="M 21.7562,1.4504 L 21.0310,1.4504 L 21.0310,1.4504 C 22.4814,3.6260 22.4814,6.5269 21.0310,7.9773 L 21.0310,7.9773 L 21.7562,7.9773 L 21.7562,7.9773 C 22.4814,6.5269 22.4814,3.6260 21.7562,1.4504 Z"/>
            </clipPath>
          </defs>
          <path clip-path="url(#clip-1915664225)" d="M 20.3058,0.7252 L 20.3058,1.4504 L 21.7562,1.4504 L 21.7562,0.7252 L 20.3058,0.7252 Z" stroke-width="1px" stroke="#686868" fill="#686868"/>
          <path clip-path="url(#clip-1915664225)" d="M 20.3058,1.4504 L 20.3058,2.1756 L 21.7562,2.1756 L 21.7562,1.4504 L 20.3058,1.4504 Z" stroke-width="1px" stroke="#696969" fill="#696969"/>
          <path clip-path="url(#clip-1915664225)" d="M 20.3058,2.1756 L 20.3058,2.9008 L 21.7562,2.9008 L 21.7562,2.1756 L 20.3058,2.1756 Z" stroke-width="1px" stroke="#6F6F6F" fill="#6F6F6F"/>
          <path clip-path="url(#clip-1915664225)" d="M 20.3058,2.9008 L 20.3058,3.6260 L 21.7562,3.6260 L 21.7562,2.9008 L 20.3058,2.9008 Z" stroke-width="1px" stroke="#747474" fill="#747474"/>
          <path clip-path="url(#clip-1915664225)" d="M 20.3058,3.6260 L 20.3058,4.3512 L 21.7562,4.3512 L 21.7562,3.6260 L 20.3058,3.6260 Z" stroke-width="1px" stroke="#7A7A7A" fill="#7A7A7A"/>
          <path clip-path="url(#clip-1915664225)" d="M 20.3058,4.3512 L 20.3058,5.0765 L 21.7562,5.0765 L 21.7562,4.3512 L 20.3058,4.3512 Z" stroke-width="1px" stroke="#7F7F7F" fill="#7F7F7F"/>
          <path clip-path="url(#clip-1915664225)" d="M 20.3058,5.0765 L 20.3058,5.8017 L 21.7562,5.8017 L 21.7562,5.0765 L 20.3058,5.0765 Z" stroke-width="1px" stroke="#7C7C7C" fill="#7C7C7C"/>
          <path clip-path="url(#clip-1915664225)" d="M 20.3058,5.8017 L 20.3058,6.5269 L 21.7562,6.5269 L 21.7562,5.8017 L 20.3058,5.8017 Z" stroke-width="1px" stroke="#767676" fill="#767676"/>
          <path clip-path="url(#clip-1915664225)" d="M 20.3058,6.5269 L 20.3058,7.2521 L 21.7562,7.2521 L 21.7562,6.5269 L 20.3058,6.5269 Z" stroke-width="1px" stroke="#717171" fill="#717171"/>
          <path clip-path="url(#clip-1915664225)" d="M 20.3058,7.2521 L 20.3058,7.9773 L 21.7562,7.9773 L 21.7562,7.2521 L 20.3058,7.2521 Z" stroke-width="1px" stroke="#6C6C6C" fill="#6C6C6C"/>
        </g>
        <g transform="matrix(0.0625 0.0000 0.0000 0.0625 0.0000 0.0000)">
          <path d="M 339.3972,17.4050 L 334.3207,17.4050 L 334.3207,17.4050 C 353.1761,51.4897 353.1761,94.2770 334.3207,128.3618 L 334.3207,128.3618 L 339.3972,128.3618 L 339.3972,128.3618 C 358.2526,94.2770 358.2526,51.4897 339.3972,17.4050 " stroke="#666666" stroke-width="0.7252" stroke-linecap="round" stroke-linejoin="round" fill="none"/>
        </g>
        <g transform="matrix(1.0000 0.0000 0.0000 1.0000 0.0000 0.0000)">
</g>
        <g transform="matrix(0.0625 0.0000 0.0000 0.0625 0.0000 0.0000)">
          <path d="M 353.1761,87.0249 L 417.7196,87.0249 C 418.4448,77.5972 418.4448,68.1695 417.7196,58.7418 L 417.7196,58.7418 L 353.1761,58.7418 C 353.1761,58.7418 354.6266,69.6199 353.1761,86.2997 C 353.1761,87.0249 353.1761,87.0249 353.1761,87.0249 " stroke="#757575" stroke-width="0.7252" stroke-linecap="round" stroke-linejoin="round" fill="none"/>
        </g>
        <g transform="matrix(1.0000 0.0000 0.0000 1.0000 0.0000 0.0000)">
</g>
        <g transform="matrix(0.0625 0.0000 0.0000 0.0625 0.0000 0.0000)">
          <path d="M 165.3474,110.9568 L 165.3474,34.8100 C 163.1717,34.8100 160.9961,34.8100 158.8205,34.8100 C 133.4382,35.5352 108.7812,35.5352 84.1241,36.2604 L 84.1241,109.5064 C 92.8266,109.5064 101.5291,110.2316 110.2316,110.2316 C 128.3618,110.2316 147.2172,110.9568 165.3474,110.9568 Z " fill="#4D4D4D" stroke="none"/>
        </g>
        <g transform="matrix(1.0000 0.0000 0.0000 1.0000 0.0000 0.0000)">
</g>
        <g transform="matrix(0.0625 0.0000 0.0000 0.0625 0.0000 0.0000)">
          <path d="M 165.3474,110.9568 L 165.3474,34.8100 C 163.1717,34.8100 160.9961,34.8100 158.8205,34.8100 C 133.4382,35.5352 108.7812,35.5352 84.1241,36.2604 L 84.1241,109.5064 C 92.8266,109.5064 101.5291,110.2316 110.2316,110.2316 C 128.3618,110.2316 147.2172,110.9568 165.3474,110.9568 Z " stroke="#4D4D4D" stroke-width="0.7252" stroke-linecap="round" stroke-linejoin="round" fill="none"/>
        </g>
        <g transform="matrix(1.0000 0.0000 0.0000 1.0000 0.0000 0.0000)">
</g>
        <g transform="matrix(0.0625 0.0000 0.0000 0.0625 0.0000 0.0000)">
          <path d="M 438.0254,26.8327 C 438.0254,22.4814 435.1246,19.5806 431.4986,19.5806 C 427.8725,19.5806 424.2465,22.4814 424.2465,26.8327 C 424.2465,30.4587 427.8725,33.3596 431.4986,33.3596 C 435.1246,33.3596 438.0254,30.4587 438.0254,26.8327 " fill="#7E7E7E" stroke="none"/>
        </g>
        <g transform="matrix(1.0000 0.0000 0.0000 1.0000 0.0000 0.0000)">
</g>
        <g transform="matrix(0.0625 0.0000 0.0000 0.0625 0.0000 0.0000)">
          <path d="M 438.0254,26.8327 M 438.0254,26.8327 C 438.0254,22.4814 435.1246,19.5806 431.4986,19.5806 C 427.8725,19.5806 424.2465,22.4814 424.2465,26.8327 C 424.2465,30.4587 427.8725,33.3596 431.4986,33.3596 C 435.1246,33.3596 438.0254,30.4587 438.0254,26.8327 " stroke="#7E7E7E" stroke-width="0.7252" stroke-linecap="round" stroke-linejoin="round" fill="none"/>
        </g>
        <g transform="matrix(1.0000 0.0000 0.0000 1.0000 0.0000 0.0000)">
</g>
        <g transform="matrix(0.0625 0.0000 0.0000 0.0625 0.0000 0.0000)">
          <path d="M 438.0254,26.8327 M 435.1246,26.8327 C 435.1246,23.9319 433.6742,22.4814 431.4986,22.4814 C 428.5977,22.4814 427.1473,23.9319 427.1473,26.8327 C 427.1473,29.0083 428.5977,30.4587 431.4986,30.4587 C 433.6742,30.4587 435.1246,29.0083 435.1246,26.8327 " stroke="#666666" stroke-width="0.7252" stroke-linecap="round" stroke-linejoin="round" fill="none"/>
        </g>
        <g transform="matrix(1.0000 0.0000 0.0000 1.0000 0.0000 0.0000)">
</g>
        <g transform="matrix(0.0625 0.0000 0.0000 0.0625 0.0000 0.0000)">
          <path d="M 438.0254,118.9341 C 438.0254,115.3080 435.1246,112.4072 431.4986,112.4072 C 427.8725,112.4072 424.2465,115.3080 424.2465,118.9341 C 424.2465,122.5601 427.8725,126.1861 431.4986,126.1861 C 435.1246,126.1861 438.0254,122.5601 438.0254,118.9341 " fill="#7E7E7E" stroke="none"/>
        </g>
        <g transform="matrix(1.0000 0.0000 0.0000 1.0000 0.0000 0.0000)">
</g>
        <g transform="matrix(0.0625 0.0000 0.0000 0.0625 0.0000 0.0000)">
          <path d="M 438.0254,118.9341 M 438.0254,118.9341 C 438.0254,115.3080 435.1246,112.4072 431.4986,112.4072 C 427.8725,112.4072 424.2465,115.3080 424.2465,118.9341 C 424.2465,122.5601 427.8725,126.1861 431.4986,126.1861 C 435.1246,126.1861 438.0254,122.5601 438.0254,118.9341 " stroke="#7E7E7E" stroke-width="0.7252" stroke-linecap="round" stroke-linejoin="round" fill="none"/>
        </g>
        <g transform="matrix(1.0000 0.0000 0.0000 1.0000 0.0000 0.0000)">
</g>
        <g transform="matrix(0.0625 0.0000 0.0000 0.0625 0.0000 0.0000)">
          <path d="M 438.0254,118.9341 M 435.1246,118.9341 C 435.1246,116.7584 433.6742,115.3080 431.4986,115.3080 C 428.5977,115.3080 427.1473,116.7584 427.1473,118.9341 C 427.1473,121.8349 428.5977,123.2853 431.4986,123.2853 C 433.6742,123.2853 435.1246,121.8349 435.1246,118.9341 " stroke="#666666" stroke-width="0.7252" stroke-linecap="round" stroke-linejoin="round" fill="none"/>
        </g>
        <g transform="matrix(1.0000 0.0000 0.0000 1.0000 0.0000 0.0000)">
</g>
        <g transform="matrix(0.0625 0.0000 0.0000 0.0625 0.0000 0.0000)">
          <path d="M 165.3474,110.9568 C 166.0726,110.9568 167.5230,110.9568 168.9734,110.9568 C 164.6221,85.5745 164.6221,60.1922 168.9734,34.8100 L 168.9734,34.8100 C 167.5230,34.8100 166.0726,34.8100 165.3474,34.8100 L 165.3474,110.9568 Z M 84.1241,36.2604 C 84.1241,36.2604 83.3989,36.2604 83.3989,36.2604 C 78.3224,60.1922 78.3224,85.5745 83.3989,109.5064 L 83.3989,109.5064 C 83.3989,109.5064 84.1241,109.5064 84.1241,109.5064 L 84.1241,36.2604 Z " fill="#333333" stroke="none"/>
        </g>
        <g transform="matrix(1.0000 0.0000 0.0000 1.0000 0.0000 0.0000)">
</g>
      </g>
      <!--emf-blob end-->
    </g>
    <g transform=" translate(24.405700,1.540300) ">
      <!--emf-blob start-->
      <g transform="translate(-3.3190, -1.6595)">
        <text font-family="Arial" fill="#333333" style="white-space:pre;" font-weight="700" text-anchor="start" x="3.3190" y="4.9785" font-size="1.6595"><![CDATA[3]]></text>
        <text font-family="Arial" fill="#333333" style="white-space:pre;" font-weight="700" text-anchor="start" x="3.3190" y="4.9785" font-size="1.6595"><![CDATA[.]]></text>
        <text font-family="Arial" fill="#333333" style="white-space:pre;" font-weight="700" text-anchor="start" x="4.9785" y="4.9785" font-size="1.6595"><![CDATA[0]]></text>
        <text font-family="Arial" fill="#333333" style="white-space:pre;" font-weight="700" text-anchor="start" x="4.9785" y="4.9785" font-size="1.6595"><![CDATA[TB]]></text>
      </g>
      <!--emf-blob end-->
    </g>
  </g>
</svg>
