<svg xmlns="http://www.w3.org/2000/svg" xmlns:xlink="http://www.w3.org/1999/xlink" version="1.1" width="48.2400000000" height="5.6160000000">
  <title><![CDATA[FAS9000 DCPM]]></title>
  <g transform=" scale(1.000000) ">
    <!--converted by libvisio2svg-->
    <g transform=" translate(-0.011500,-0.396600) ">
      <!--emf-blob start-->
      <g transform="translate(-0.0000, -0.0000)">
        <g transform="matrix(0.2500 0.0000 0.0000 0.2500 0.0000 0.0000)">
          <path d="M 1.4850,25.3950 L 192.1425,25.3950 C 192.9375,25.3950 193.5825,24.7500 193.5825,23.9550 C 193.5825,23.9550 193.5825,23.9550 193.5825,23.9550 L 193.5825,1.4850 C 193.5825,0.6900 192.9375,0.0450 192.1425,0.0450 C 192.1425,0.0450 192.1425,0.0450 192.1425,0.0450 L 192.1425,0.0450 L 1.4850,0.0450 C 0.6900,0.0450 0.0450,0.6900 0.0450,1.4850 L 0.0450,1.4850 L 0.0450,23.9550 C 0.0450,24.7500 0.6900,25.3950 1.4850,25.3950 Z " fill="#CCCCCC" stroke="none"/>
        </g>
        <g transform="matrix(1.0000 0.0000 0.0000 1.0000 0.0000 0.0000)">
</g>
        <g transform="matrix(0.2500 0.0000 0.0000 0.2500 0.0000 0.0000)">
          <path d="M 1.4850,25.3950 L 192.1425,25.3950 C 192.9375,25.3950 193.5825,24.7500 193.5825,23.9550 C 193.5825,23.9550 193.5825,23.9550 193.5825,23.9550 L 193.5825,1.4850 C 193.5825,0.6900 192.9375,0.0450 192.1425,0.0450 C 192.1425,0.0450 192.1425,0.0450 192.1425,0.0450 L 192.1425,0.0450 L 1.4850,0.0450 C 0.6900,0.0450 0.0450,0.6900 0.0450,1.4850 L 0.0450,1.4850 L 0.0450,23.9550 C 0.0450,24.7500 0.6900,25.3950 1.4850,25.3950 Z " stroke="#808080" stroke-width="0.0075" stroke-linecap="round" stroke-linejoin="round" fill="none"/>
        </g>
        <g transform="matrix(1.0000 0.0000 0.0000 1.0000 0.0000 0.0000)">
</g>
        <g transform="matrix(0.2500 0.0000 0.0000 0.2500 0.0000 0.0000)">
          <path d="M 1.4850,24.2400 L 192.1425,24.2400 C 192.3000,24.2400 192.4350,24.1125 192.4350,23.9550 C 192.4350,23.9550 192.4350,23.9550 192.4350,23.9550 L 192.4350,23.9550 L 192.4350,1.4850 C 192.4350,1.3275 192.3000,1.2000 192.1425,1.2000 C 192.1425,1.2000 192.1425,1.2000 192.1425,1.2000 L 1.4850,1.2000 C 1.3275,1.2000 1.2000,1.3275 1.2000,1.4850 L 1.2000,1.4850 L 1.2000,23.9550 C 1.2000,24.1125 1.3275,24.2400 1.4850,24.2400 Z " fill="#1A1A1A" stroke="none"/>
        </g>
        <g transform="matrix(1.0000 0.0000 0.0000 1.0000 0.0000 0.0000)">
</g>
        <g transform="matrix(0.2500 0.0000 0.0000 0.2500 0.0000 0.0000)">
          <path d="M 192.1425,0.0450 L 1.4850,0.0450 L 1.4850,8.6850 C 1.4850,9.4875 0.8475,10.1250 0.0450,10.1250 L 0.0450,10.1250 L 0.0450,23.9550 C 0.8475,23.9550 1.4850,24.6000 1.4850,25.3950 C 1.4850,25.3950 1.4850,25.3950 1.4850,25.3950 L 1.4850,25.3950 L 192.1425,25.3950 C 192.1425,24.6000 192.7875,23.9550 193.5825,23.9550 L 193.5825,10.1250 C 192.7875,10.1250 192.1425,9.4875 192.1425,8.6850 L 192.1425,8.6850 L 192.1425,0.0450 Z " fill="#E6E6E6" stroke="none"/>
        </g>
        <g transform="matrix(1.0000 0.0000 0.0000 1.0000 0.0000 0.0000)">
</g>
        <g transform="matrix(0.2500 0.0000 0.0000 0.2500 0.0000 0.0000)">
          <path d="M 192.1425,0.0450 L 1.4850,0.0450 L 1.4850,8.6850 C 1.4850,9.4875 0.8475,10.1250 0.0450,10.1250 L 0.0450,10.1250 L 0.0450,23.9550 C 0.8475,23.9550 1.4850,24.6000 1.4850,25.3950 C 1.4850,25.3950 1.4850,25.3950 1.4850,25.3950 L 1.4850,25.3950 L 192.1425,25.3950 C 192.1425,24.6000 192.7875,23.9550 193.5825,23.9550 L 193.5825,10.1250 C 192.7875,10.1250 192.1425,9.4875 192.1425,8.6850 L 192.1425,8.6850 L 192.1425,0.0450 Z " stroke="#808080" stroke-width="0.0075" stroke-linecap="round" stroke-linejoin="round" fill="none"/>
        </g>
        <g transform="matrix(1.0000 0.0000 0.0000 1.0000 0.0000 0.0000)">
</g>
        <g transform="matrix(0.2500 0.0000 0.0000 0.2500 0.0000 0.0000)">
          <path d="M 107.5575,22.2600 L 109.0950,23.1450 L 110.6250,22.2600 L 110.6250,20.4900 L 109.0950,19.6050 L 107.5575,20.4900 L 107.5575,22.2600 Z M 109.4925,18.9150 L 111.0225,19.8000 L 112.5525,18.9150 L 112.5525,17.1450 L 111.0225,16.2600 L 109.4925,17.1450 L 109.4925,18.9150 Z M 107.5575,15.5700 L 109.0950,16.4550 L 110.6250,15.5700 L 110.6250,13.8000 L 109.0950,12.9150 L 107.5575,13.8000 L 107.5575,15.5700 Z M 109.4925,12.2325 L 111.0225,13.1175 L 112.5525,12.2325 L 112.5525,10.4625 L 111.0225,9.5775 L 109.4925,10.4625 L 109.4925,12.2325 Z M 103.6950,22.2600 L 105.2325,23.1450 L 106.7625,22.2600 L 106.7625,20.4900 L 105.2325,19.6050 L 103.6950,20.4900 L 103.6950,22.2600 Z M 105.6300,18.9150 L 107.1600,19.8000 L 108.6975,18.9150 L 108.6975,17.1450 L 107.1600,16.2600 L 105.6300,17.1450 L 105.6300,18.9150 Z M 103.6950,15.5700 L 105.2325,16.4550 L 106.7625,15.5700 L 106.7625,13.8000 L 105.2325,12.9150 L 103.6950,13.8000 L 103.6950,15.5700 Z M 105.6300,12.2325 L 107.1600,13.1175 L 108.6975,12.2325 L 108.6975,10.4625 L 107.1600,9.5775 L 105.6300,10.4625 L 105.6300,12.2325 Z M 99.8400,22.2600 L 101.3700,23.1450 L 102.9000,22.2600 L 102.9000,20.4900 L 101.3700,19.6050 L 99.8400,20.4900 L 99.8400,22.2600 Z M 101.7675,18.9150 L 103.2975,19.8000 L 104.8350,18.9150 L 104.8350,17.1450 L 103.2975,16.2600 L 101.7675,17.1450 L 101.7675,18.9150 Z M 99.8400,15.5700 L 101.3700,16.4550 L 102.9000,15.5700 L 102.9000,13.8000 L 101.3700,12.9150 L 99.8400,13.8000 L 99.8400,15.5700 Z M 101.7675,12.2325 L 103.2975,13.1175 L 104.8350,12.2325 L 104.8350,10.4625 L 103.2975,9.5775 L 101.7675,10.4625 L 101.7675,12.2325 Z M 95.9775,22.2600 L 97.5075,23.1450 L 99.0375,22.2600 L 99.0375,20.4900 L 97.5075,19.6050 L 95.9775,20.4900 L 95.9775,22.2600 Z M 97.9050,18.9150 L 99.4425,19.8000 L 100.9725,18.9150 L 100.9725,17.1450 L 99.4425,16.2600 L 97.9050,17.1450 L 97.9050,18.9150 Z M 95.9775,15.5700 L 97.5075,16.4550 L 99.0375,15.5700 L 99.0375,13.8000 L 97.5075,12.9150 L 95.9775,13.8000 L 95.9775,15.5700 Z M 97.9050,12.2325 L 99.4425,13.1175 L 100.9725,12.2325 L 100.9725,10.4625 L 99.4425,9.5775 L 97.9050,10.4625 L 97.9050,12.2325 Z M 92.1150,22.2600 L 93.6450,23.1450 L 95.1825,22.2600 L 95.1825,20.4900 L 93.6450,19.6050 L 92.1150,20.4900 L 92.1150,22.2600 Z M 94.0425,18.9150 L 95.5800,19.8000 L 97.1100,18.9150 L 97.1100,17.1450 L 95.5800,16.2600 L 94.0425,17.1450 L 94.0425,18.9150 Z M 92.1150,15.5700 L 93.6450,16.4550 L 95.1825,15.5700 L 95.1825,13.8000 L 93.6450,12.9150 L 92.1150,13.8000 L 92.1150,15.5700 Z M 94.0425,12.2325 L 95.5800,13.1175 L 97.1100,12.2325 L 97.1100,10.4625 L 95.5800,9.5775 L 94.0425,10.4625 L 94.0425,12.2325 Z M 88.2525,22.2600 L 89.7825,23.1450 L 91.3200,22.2600 L 91.3200,20.4900 L 89.7825,19.6050 L 88.2525,20.4900 L 88.2525,22.2600 Z M 90.1800,18.9150 L 91.7175,19.8000 L 93.2475,18.9150 L 93.2475,17.1450 L 91.7175,16.2600 L 90.1800,17.1450 L 90.1800,18.9150 Z M 88.2525,15.5700 L 89.7825,16.4550 L 91.3200,15.5700 L 91.3200,13.8000 L 89.7825,12.9150 L 88.2525,13.8000 L 88.2525,15.5700 Z M 90.1800,12.2325 L 91.7175,13.1175 L 93.2475,12.2325 L 93.2475,10.4625 L 91.7175,9.5775 L 90.1800,10.4625 L 90.1800,12.2325 Z M 84.3900,22.2600 L 85.9275,23.1450 L 87.4575,22.2600 L 87.4575,20.4900 L 85.9275,19.6050 L 84.3900,20.4900 L 84.3900,22.2600 Z M 86.3250,18.9150 L 87.8550,19.8000 L 89.3850,18.9150 L 89.3850,17.1450 L 87.8550,16.2600 L 86.3250,17.1450 L 86.3250,18.9150 Z M 84.3900,15.5700 L 85.9275,16.4550 L 87.4575,15.5700 L 87.4575,13.8000 L 85.9275,12.9150 L 84.3900,13.8000 L 84.3900,15.5700 Z M 86.3250,12.2325 L 87.8550,13.1175 L 89.3850,12.2325 L 89.3850,10.4625 L 87.8550,9.5775 L 86.3250,10.4625 L 86.3250,12.2325 Z M 80.5275,22.2600 L 82.0650,23.1450 L 83.5950,22.2600 L 83.5950,20.4900 L 82.0650,19.6050 L 80.5275,20.4900 L 80.5275,22.2600 Z M 82.4625,18.9150 L 83.9925,19.8000 L 85.5225,18.9150 L 85.5225,17.1450 L 83.9925,16.2600 L 82.4625,17.1450 L 82.4625,18.9150 Z M 80.5275,15.5700 L 82.0650,16.4550 L 83.5950,15.5700 L 83.5950,13.8000 L 82.0650,12.9150 L 80.5275,13.8000 L 80.5275,15.5700 Z M 82.4625,12.2325 L 83.9925,13.1175 L 85.5225,12.2325 L 85.5225,10.4625 L 83.9925,9.5775 L 82.4625,10.4625 L 82.4625,12.2325 Z M 76.6725,22.2600 L 78.2025,23.1450 L 79.7325,22.2600 L 79.7325,20.4900 L 78.2025,19.6050 L 76.6725,20.4900 L 76.6725,22.2600 Z M 78.6000,18.9150 L 80.1300,19.8000 L 81.6675,18.9150 L 81.6675,17.1450 L 80.1300,16.2600 L 78.6000,17.1450 L 78.6000,18.9150 Z M 76.6725,15.5700 L 78.2025,16.4550 L 79.7325,15.5700 L 79.7325,13.8000 L 78.2025,12.9150 L 76.6725,13.8000 L 76.6725,15.5700 Z M 78.6000,12.2325 L 80.1300,13.1175 L 81.6675,12.2325 L 81.6675,10.4625 L 80.1300,9.5775 L 78.6000,10.4625 L 78.6000,12.2325 Z M 72.8100,22.2600 L 74.3400,23.1450 L 75.8700,22.2600 L 75.8700,20.4900 L 74.3400,19.6050 L 72.8100,20.4900 L 72.8100,22.2600 Z M 74.7375,18.9150 L 76.2675,19.8000 L 77.8050,18.9150 L 77.8050,17.1450 L 76.2675,16.2600 L 74.7375,17.1450 L 74.7375,18.9150 Z M 72.8100,15.5700 L 74.3400,16.4550 L 75.8700,15.5700 L 75.8700,13.8000 L 74.3400,12.9150 L 72.8100,13.8000 L 72.8100,15.5700 Z M 74.7375,12.2325 L 76.2675,13.1175 L 77.8050,12.2325 L 77.8050,10.4625 L 76.2675,9.5775 L 74.7375,10.4625 L 74.7375,12.2325 Z M 68.9475,22.2600 L 70.4775,23.1450 L 72.0150,22.2600 L 72.0150,20.4900 L 70.4775,19.6050 L 68.9475,20.4900 L 68.9475,22.2600 Z M 70.8750,18.9150 L 72.4125,19.8000 L 73.9425,18.9150 L 73.9425,17.1450 L 72.4125,16.2600 L 70.8750,17.1450 L 70.8750,18.9150 Z M 68.9475,15.5700 L 70.4775,16.4550 L 72.0150,15.5700 L 72.0150,13.8000 L 70.4775,12.9150 L 68.9475,13.8000 L 68.9475,15.5700 Z M 70.8750,12.2325 L 72.4125,13.1175 L 73.9425,12.2325 L 73.9425,10.4625 L 72.4125,9.5775 L 70.8750,10.4625 L 70.8750,12.2325 Z M 65.0850,22.2600 L 66.6150,23.1450 L 68.1525,22.2600 L 68.1525,20.4900 L 66.6150,19.6050 L 65.0850,20.4900 L 65.0850,22.2600 Z M 67.0125,18.9150 L 68.5500,19.8000 L 70.0800,18.9150 L 70.0800,17.1450 L 68.5500,16.2600 L 67.0125,17.1450 L 67.0125,18.9150 Z M 65.0850,15.5700 L 66.6150,16.4550 L 68.1525,15.5700 L 68.1525,13.8000 L 66.6150,12.9150 L 65.0850,13.8000 L 65.0850,15.5700 Z M 67.0125,12.2325 L 68.5500,13.1175 L 70.0800,12.2325 L 70.0800,10.4625 L 68.5500,9.5775 L 67.0125,10.4625 L 67.0125,12.2325 Z M 61.2225,22.2600 L 62.7525,23.1450 L 64.2900,22.2600 L 64.2900,20.4900 L 62.7525,19.6050 L 61.2225,20.4900 L 61.2225,22.2600 Z M 63.1575,18.9150 L 64.6875,19.8000 L 66.2175,18.9150 L 66.2175,17.1450 L 64.6875,16.2600 L 63.1575,17.1450 L 63.1575,18.9150 Z M 61.2225,15.5700 L 62.7525,16.4550 L 64.2900,15.5700 L 64.2900,13.8000 L 62.7525,12.9150 L 61.2225,13.8000 L 61.2225,15.5700 Z M 63.1575,12.2325 L 64.6875,13.1175 L 66.2175,12.2325 L 66.2175,10.4625 L 64.6875,9.5775 L 63.1575,10.4625 L 63.1575,12.2325 Z M 57.3600,22.2600 L 58.8975,23.1450 L 60.4275,22.2600 L 60.4275,20.4900 L 58.8975,19.6050 L 57.3600,20.4900 L 57.3600,22.2600 Z M 59.2950,18.9150 L 60.8250,19.8000 L 62.3550,18.9150 L 62.3550,17.1450 L 60.8250,16.2600 L 59.2950,17.1450 L 59.2950,18.9150 Z M 57.3600,15.5700 L 58.8975,16.4550 L 60.4275,15.5700 L 60.4275,13.8000 L 58.8975,12.9150 L 57.3600,13.8000 L 57.3600,15.5700 Z M 59.2950,12.2325 L 60.8250,13.1175 L 62.3550,12.2325 L 62.3550,10.4625 L 60.8250,9.5775 L 59.2950,10.4625 L 59.2950,12.2325 Z M 53.4975,22.2600 L 55.0350,23.1450 L 56.5650,22.2600 L 56.5650,20.4900 L 55.0350,19.6050 L 53.4975,20.4900 L 53.4975,22.2600 Z M 55.4325,18.9150 L 56.9625,19.8000 L 58.5000,18.9150 L 58.5000,17.1450 L 56.9625,16.2600 L 55.4325,17.1450 L 55.4325,18.9150 Z M 53.4975,15.5700 L 55.0350,16.4550 L 56.5650,15.5700 L 56.5650,13.8000 L 55.0350,12.9150 L 53.4975,13.8000 L 53.4975,15.5700 Z M 55.4325,12.2325 L 56.9625,13.1175 L 58.5000,12.2325 L 58.5000,10.4625 L 56.9625,9.5775 L 55.4325,10.4625 L 55.4325,12.2325 Z M 49.6425,22.2600 L 51.1725,23.1450 L 52.7025,22.2600 L 52.7025,20.4900 L 51.1725,19.6050 L 49.6425,20.4900 L 49.6425,22.2600 Z M 51.5700,18.9150 L 53.1000,19.8000 L 54.6375,18.9150 L 54.6375,17.1450 L 53.1000,16.2600 L 51.5700,17.1450 L 51.5700,18.9150 Z M 49.6425,15.5700 L 51.1725,16.4550 L 52.7025,15.5700 L 52.7025,13.8000 L 51.1725,12.9150 L 49.6425,13.8000 L 49.6425,15.5700 Z M 51.5700,12.2325 L 53.1000,13.1175 L 54.6375,12.2325 L 54.6375,10.4625 L 53.1000,9.5775 L 51.5700,10.4625 L 51.5700,12.2325 Z M 45.7800,22.2600 L 47.3100,23.1450 L 48.8400,22.2600 L 48.8400,20.4900 L 47.3100,19.6050 L 45.7800,20.4900 L 45.7800,22.2600 Z M 47.7075,18.9150 L 49.2375,19.8000 L 50.7750,18.9150 L 50.7750,17.1450 L 49.2375,16.2600 L 47.7075,17.1450 L 47.7075,18.9150 Z M 45.7800,15.5700 L 47.3100,16.4550 L 48.8400,15.5700 L 48.8400,13.8000 L 47.3100,12.9150 L 45.7800,13.8000 L 45.7800,15.5700 Z M 47.7075,12.2325 L 49.2375,13.1175 L 50.7750,12.2325 L 50.7750,10.4625 L 49.2375,9.5775 L 47.7075,10.4625 L 47.7075,12.2325 Z M 41.9175,22.2600 L 43.4475,23.1450 L 44.9850,22.2600 L 44.9850,20.4900 L 43.4475,19.6050 L 41.9175,20.4900 L 41.9175,22.2600 Z M 43.8450,18.9150 L 45.3825,19.8000 L 46.9125,18.9150 L 46.9125,17.1450 L 45.3825,16.2600 L 43.8450,17.1450 L 43.8450,18.9150 Z M 41.9175,15.5700 L 43.4475,16.4550 L 44.9850,15.5700 L 44.9850,13.8000 L 43.4475,12.9150 L 41.9175,13.8000 L 41.9175,15.5700 Z M 38.0550,22.2600 L 39.5850,23.1450 L 41.1225,22.2600 L 41.1225,20.4900 L 39.5850,19.6050 L 38.0550,20.4900 L 38.0550,22.2600 Z M 39.9825,18.9150 L 41.5200,19.8000 L 43.0500,18.9150 L 43.0500,17.1450 L 41.5200,16.2600 L 39.9825,17.1450 L 39.9825,18.9150 Z M 38.0550,15.5700 L 39.5850,16.4550 L 41.1225,15.5700 L 41.1225,13.8000 L 39.5850,12.9150 L 38.0550,13.8000 L 38.0550,15.5700 Z M 34.1925,22.2600 L 35.7300,23.1450 L 37.2600,22.2600 L 37.2600,20.4900 L 35.7300,19.6050 L 34.1925,20.4900 L 34.1925,22.2600 Z M 36.1275,18.9150 L 37.6575,19.8000 L 39.1875,18.9150 L 39.1875,17.1450 L 37.6575,16.2600 L 36.1275,17.1450 L 36.1275,18.9150 Z M 184.7850,22.2600 L 186.3225,23.1450 L 187.8525,22.2600 L 187.8525,20.4900 L 186.3225,19.6050 L 184.7850,20.4900 L 184.7850,22.2600 Z M 186.7200,18.9150 L 188.2500,19.8000 L 189.7800,18.9150 L 189.7800,17.1450 L 188.2500,16.2600 L 186.7200,17.1450 L 186.7200,18.9150 Z M 184.7850,15.5700 L 186.3225,16.4550 L 187.8525,15.5700 L 187.8525,13.8000 L 186.3225,12.9150 L 184.7850,13.8000 L 184.7850,15.5700 Z M 186.7200,12.2325 L 188.2500,13.1175 L 189.7800,12.2325 L 189.7800,10.4625 L 188.2500,9.5775 L 186.7200,10.4625 L 186.7200,12.2325 Z M 180.9225,22.2600 L 182.4600,23.1450 L 183.9900,22.2600 L 183.9900,20.4900 L 182.4600,19.6050 L 180.9225,20.4900 L 180.9225,22.2600 Z M 182.8575,18.9150 L 184.3875,19.8000 L 185.9250,18.9150 L 185.9250,17.1450 L 184.3875,16.2600 L 182.8575,17.1450 L 182.8575,18.9150 Z M 180.9225,15.5700 L 182.4600,16.4550 L 183.9900,15.5700 L 183.9900,13.8000 L 182.4600,12.9150 L 180.9225,13.8000 L 180.9225,15.5700 Z M 182.8575,12.2325 L 184.3875,13.1175 L 185.9250,12.2325 L 185.9250,10.4625 L 184.3875,9.5775 L 182.8575,10.4625 L 182.8575,12.2325 Z M 177.0675,22.2600 L 178.5975,23.1450 L 180.1275,22.2600 L 180.1275,20.4900 L 178.5975,19.6050 L 177.0675,20.4900 L 177.0675,22.2600 Z M 178.9950,18.9150 L 180.5250,19.8000 L 182.0625,18.9150 L 182.0625,17.1450 L 180.5250,16.2600 L 178.9950,17.1450 L 178.9950,18.9150 Z M 177.0675,15.5700 L 178.5975,16.4550 L 180.1275,15.5700 L 180.1275,13.8000 L 178.5975,12.9150 L 177.0675,13.8000 L 177.0675,15.5700 Z M 178.9950,12.2325 L 180.5250,13.1175 L 182.0625,12.2325 L 182.0625,10.4625 L 180.5250,9.5775 L 178.9950,10.4625 L 178.9950,12.2325 Z M 173.2050,22.2600 L 174.7350,23.1450 L 176.2650,22.2600 L 176.2650,20.4900 L 174.7350,19.6050 L 173.2050,20.4900 L 173.2050,22.2600 Z M 175.1325,18.9150 L 176.6625,19.8000 L 178.2000,18.9150 L 178.2000,17.1450 L 176.6625,16.2600 L 175.1325,17.1450 L 175.1325,18.9150 Z M 173.2050,15.5700 L 174.7350,16.4550 L 176.2650,15.5700 L 176.2650,13.8000 L 174.7350,12.9150 L 173.2050,13.8000 L 173.2050,15.5700 Z M 175.1325,12.2325 L 176.6625,13.1175 L 178.2000,12.2325 L 178.2000,10.4625 L 176.6625,9.5775 L 175.1325,10.4625 L 175.1325,12.2325 Z M 169.3425,22.2600 L 170.8725,23.1450 L 172.4100,22.2600 L 172.4100,20.4900 L 170.8725,19.6050 L 169.3425,20.4900 L 169.3425,22.2600 Z M 171.2700,18.9150 L 172.8075,19.8000 L 174.3375,18.9150 L 174.3375,17.1450 L 172.8075,16.2600 L 171.2700,17.1450 L 171.2700,18.9150 Z M 169.3425,15.5700 L 170.8725,16.4550 L 172.4100,15.5700 L 172.4100,13.8000 L 170.8725,12.9150 L 169.3425,13.8000 L 169.3425,15.5700 Z M 171.2700,12.2325 L 172.8075,13.1175 L 174.3375,12.2325 L 174.3375,10.4625 L 172.8075,9.5775 L 171.2700,10.4625 L 171.2700,12.2325 Z M 165.4800,22.2600 L 167.0100,23.1450 L 168.5475,22.2600 L 168.5475,20.4900 L 167.0100,19.6050 L 165.4800,20.4900 L 165.4800,22.2600 Z M 167.4075,18.9150 L 168.9450,19.8000 L 170.4750,18.9150 L 170.4750,17.1450 L 168.9450,16.2600 L 167.4075,17.1450 L 167.4075,18.9150 Z M 165.4800,15.5700 L 167.0100,16.4550 L 168.5475,15.5700 L 168.5475,13.8000 L 167.0100,12.9150 L 165.4800,13.8000 L 165.4800,15.5700 Z M 167.4075,12.2325 L 168.9450,13.1175 L 170.4750,12.2325 L 170.4750,10.4625 L 168.9450,9.5775 L 167.4075,10.4625 L 167.4075,12.2325 Z M 161.6175,22.2600 L 163.1550,23.1450 L 164.6850,22.2600 L 164.6850,20.4900 L 163.1550,19.6050 L 161.6175,20.4900 L 161.6175,22.2600 Z M 163.5525,18.9150 L 165.0825,19.8000 L 166.6125,18.9150 L 166.6125,17.1450 L 165.0825,16.2600 L 163.5525,17.1450 L 163.5525,18.9150 Z M 161.6175,15.5700 L 163.1550,16.4550 L 164.6850,15.5700 L 164.6850,13.8000 L 163.1550,12.9150 L 161.6175,13.8000 L 161.6175,15.5700 Z M 163.5525,12.2325 L 165.0825,13.1175 L 166.6125,12.2325 L 166.6125,10.4625 L 165.0825,9.5775 L 163.5525,10.4625 L 163.5525,12.2325 Z M 157.7550,22.2600 L 159.2925,23.1450 L 160.8225,22.2600 L 160.8225,20.4900 L 159.2925,19.6050 L 157.7550,20.4900 L 157.7550,22.2600 Z M 159.6900,18.9150 L 161.2200,19.8000 L 162.7500,18.9150 L 162.7500,17.1450 L 161.2200,16.2600 L 159.6900,17.1450 L 159.6900,18.9150 Z M 157.7550,15.5700 L 159.2925,16.4550 L 160.8225,15.5700 L 160.8225,13.8000 L 159.2925,12.9150 L 157.7550,13.8000 L 157.7550,15.5700 Z M 159.6900,12.2325 L 161.2200,13.1175 L 162.7500,12.2325 L 162.7500,10.4625 L 161.2200,9.5775 L 159.6900,10.4625 L 159.6900,12.2325 Z M 153.8925,22.2600 L 155.4300,23.1450 L 156.9600,22.2600 L 156.9600,20.4900 L 155.4300,19.6050 L 153.8925,20.4900 L 153.8925,22.2600 Z M 155.8275,18.9150 L 157.3575,19.8000 L 158.8950,18.9150 L 158.8950,17.1450 L 157.3575,16.2600 L 155.8275,17.1450 L 155.8275,18.9150 Z M 153.8925,15.5700 L 155.4300,16.4550 L 156.9600,15.5700 L 156.9600,13.8000 L 155.4300,12.9150 L 153.8925,13.8000 L 153.8925,15.5700 Z M 155.8275,12.2325 L 157.3575,13.1175 L 158.8950,12.2325 L 158.8950,10.4625 L 157.3575,9.5775 L 155.8275,10.4625 L 155.8275,12.2325 Z M 150.0375,22.2600 L 151.5675,23.1450 L 153.0975,22.2600 L 153.0975,20.4900 L 151.5675,19.6050 L 150.0375,20.4900 L 150.0375,22.2600 Z M 151.9650,18.9150 L 153.4950,19.8000 L 155.0325,18.9150 L 155.0325,17.1450 L 153.4950,16.2600 L 151.9650,17.1450 L 151.9650,18.9150 Z M 150.0375,15.5700 L 151.5675,16.4550 L 153.0975,15.5700 L 153.0975,13.8000 L 151.5675,12.9150 L 150.0375,13.8000 L 150.0375,15.5700 Z M 151.9650,12.2325 L 153.4950,13.1175 L 155.0325,12.2325 L 155.0325,10.4625 L 153.4950,9.5775 L 151.9650,10.4625 L 151.9650,12.2325 Z M 146.1750,22.2600 L 147.7050,23.1450 L 149.2350,22.2600 L 149.2350,20.4900 L 147.7050,19.6050 L 146.1750,20.4900 L 146.1750,22.2600 Z M 148.1025,18.9150 L 149.6400,19.8000 L 151.1700,18.9150 L 151.1700,17.1450 L 149.6400,16.2600 L 148.1025,17.1450 L 148.1025,18.9150 Z M 146.1750,15.5700 L 147.7050,16.4550 L 149.2350,15.5700 L 149.2350,13.8000 L 147.7050,12.9150 L 146.1750,13.8000 L 146.1750,15.5700 Z M 148.1025,12.2325 L 149.6400,13.1175 L 151.1700,12.2325 L 151.1700,10.4625 L 149.6400,9.5775 L 148.1025,10.4625 L 148.1025,12.2325 Z M 142.3125,22.2600 L 143.8425,23.1450 L 145.3800,22.2600 L 145.3800,20.4900 L 143.8425,19.6050 L 142.3125,20.4900 L 142.3125,22.2600 Z M 144.2400,18.9150 L 145.7775,19.8000 L 147.3075,18.9150 L 147.3075,17.1450 L 145.7775,16.2600 L 144.2400,17.1450 L 144.2400,18.9150 Z M 142.3125,15.5700 L 143.8425,16.4550 L 145.3800,15.5700 L 145.3800,13.8000 L 143.8425,12.9150 L 142.3125,13.8000 L 142.3125,15.5700 Z M 144.2400,12.2325 L 145.7775,13.1175 L 147.3075,12.2325 L 147.3075,10.4625 L 145.7775,9.5775 L 144.2400,10.4625 L 144.2400,12.2325 Z M 138.4500,22.2600 L 139.9800,23.1450 L 141.5175,22.2600 L 141.5175,20.4900 L 139.9800,19.6050 L 138.4500,20.4900 L 138.4500,22.2600 Z M 140.3775,18.9150 L 141.9150,19.8000 L 143.4450,18.9150 L 143.4450,17.1450 L 141.9150,16.2600 L 140.3775,17.1450 L 140.3775,18.9150 Z M 138.4500,15.5700 L 139.9800,16.4550 L 141.5175,15.5700 L 141.5175,13.8000 L 139.9800,12.9150 L 138.4500,13.8000 L 138.4500,15.5700 Z M 140.3775,12.2325 L 141.9150,13.1175 L 143.4450,12.2325 L 143.4450,10.4625 L 141.9150,9.5775 L 140.3775,10.4625 L 140.3775,12.2325 Z M 134.5875,22.2600 L 136.1250,23.1450 L 137.6550,22.2600 L 137.6550,20.4900 L 136.1250,19.6050 L 134.5875,20.4900 L 134.5875,22.2600 Z M 136.5225,18.9150 L 138.0525,19.8000 L 139.5825,18.9150 L 139.5825,17.1450 L 138.0525,16.2600 L 136.5225,17.1450 L 136.5225,18.9150 Z M 134.5875,15.5700 L 136.1250,16.4550 L 137.6550,15.5700 L 137.6550,13.8000 L 136.1250,12.9150 L 134.5875,13.8000 L 134.5875,15.5700 Z M 136.5225,12.2325 L 138.0525,13.1175 L 139.5825,12.2325 L 139.5825,10.4625 L 138.0525,9.5775 L 136.5225,10.4625 L 136.5225,12.2325 Z M 130.7250,22.2600 L 132.2625,23.1450 L 133.7925,22.2600 L 133.7925,20.4900 L 132.2625,19.6050 L 130.7250,20.4900 L 130.7250,22.2600 Z M 132.6600,18.9150 L 134.1900,19.8000 L 135.7275,18.9150 L 135.7275,17.1450 L 134.1900,16.2600 L 132.6600,17.1450 L 132.6600,18.9150 Z M 130.7250,15.5700 L 132.2625,16.4550 L 133.7925,15.5700 L 133.7925,13.8000 L 132.2625,12.9150 L 130.7250,13.8000 L 130.7250,15.5700 Z M 132.6600,12.2325 L 134.1900,13.1175 L 135.7275,12.2325 L 135.7275,10.4625 L 134.1900,9.5775 L 132.6600,10.4625 L 132.6600,12.2325 Z M 126.8700,22.2600 L 128.4000,23.1450 L 129.9300,22.2600 L 129.9300,20.4900 L 128.4000,19.6050 L 126.8700,20.4900 L 126.8700,22.2600 Z M 128.7975,18.9150 L 130.3275,19.8000 L 131.8650,18.9150 L 131.8650,17.1450 L 130.3275,16.2600 L 128.7975,17.1450 L 128.7975,18.9150 Z M 126.8700,15.5700 L 128.4000,16.4550 L 129.9300,15.5700 L 129.9300,13.8000 L 128.4000,12.9150 L 126.8700,13.8000 L 126.8700,15.5700 Z M 128.7975,12.2325 L 130.3275,13.1175 L 131.8650,12.2325 L 131.8650,10.4625 L 130.3275,9.5775 L 128.7975,10.4625 L 128.7975,12.2325 Z M 123.0075,22.2600 L 124.5375,23.1450 L 126.0675,22.2600 L 126.0675,20.4900 L 124.5375,19.6050 L 123.0075,20.4900 L 123.0075,22.2600 Z M 124.9350,18.9150 L 126.4650,19.8000 L 128.0025,18.9150 L 128.0025,17.1450 L 126.4650,16.2600 L 124.9350,17.1450 L 124.9350,18.9150 Z M 123.0075,15.5700 L 124.5375,16.4550 L 126.0675,15.5700 L 126.0675,13.8000 L 124.5375,12.9150 L 123.0075,13.8000 L 123.0075,15.5700 Z M 124.9350,12.2325 L 126.4650,13.1175 L 128.0025,12.2325 L 128.0025,10.4625 L 126.4650,9.5775 L 124.9350,10.4625 L 124.9350,12.2325 Z M 119.1450,22.2600 L 120.6750,23.1450 L 122.2125,22.2600 L 122.2125,20.4900 L 120.6750,19.6050 L 119.1450,20.4900 L 119.1450,22.2600 Z M 121.0725,18.9150 L 122.6100,19.8000 L 124.1400,18.9150 L 124.1400,17.1450 L 122.6100,16.2600 L 121.0725,17.1450 L 121.0725,18.9150 Z M 119.1450,15.5700 L 120.6750,16.4550 L 122.2125,15.5700 L 122.2125,13.8000 L 120.6750,12.9150 L 119.1450,13.8000 L 119.1450,15.5700 Z M 121.0725,12.2325 L 122.6100,13.1175 L 124.1400,12.2325 L 124.1400,10.4625 L 122.6100,9.5775 L 121.0725,10.4625 L 121.0725,12.2325 Z M 115.2825,22.2600 L 116.8125,23.1450 L 118.3500,22.2600 L 118.3500,20.4900 L 116.8125,19.6050 L 115.2825,20.4900 L 115.2825,22.2600 Z M 117.2100,18.9150 L 118.7475,19.8000 L 120.2775,18.9150 L 120.2775,17.1450 L 118.7475,16.2600 L 117.2100,17.1450 L 117.2100,18.9150 Z M 115.2825,15.5700 L 116.8125,16.4550 L 118.3500,15.5700 L 118.3500,13.8000 L 116.8125,12.9150 L 115.2825,13.8000 L 115.2825,15.5700 Z M 117.2100,12.2325 L 118.7475,13.1175 L 120.2775,12.2325 L 120.2775,10.4625 L 118.7475,9.5775 L 117.2100,10.4625 L 117.2100,12.2325 Z M 111.4200,22.2600 L 112.9500,23.1450 L 114.4875,22.2600 L 114.4875,20.4900 L 112.9500,19.6050 L 111.4200,20.4900 L 111.4200,22.2600 Z M 113.3550,18.9150 L 114.8850,19.8000 L 116.4150,18.9150 L 116.4150,17.1450 L 114.8850,16.2600 L 113.3550,17.1450 L 113.3550,18.9150 Z M 111.4200,15.5700 L 112.9500,16.4550 L 114.4875,15.5700 L 114.4875,13.8000 L 112.9500,12.9150 L 111.4200,13.8000 L 111.4200,15.5700 Z M 113.3550,12.2325 L 114.8850,13.1175 L 116.4150,12.2325 L 116.4150,10.4625 L 114.8850,9.5775 L 113.3550,10.4625 L 113.3550,12.2325 Z M 34.1925,15.5700 L 35.7300,16.4550 L 37.2600,15.5700 L 37.2600,13.8000 L 35.7300,12.9150 L 34.1925,13.8000 L 34.1925,15.5700 Z M 30.3300,22.2600 L 31.8675,23.1450 L 33.3975,22.2600 L 33.3975,20.4900 L 31.8675,19.6050 L 30.3300,20.4900 L 30.3300,22.2600 Z M 32.2650,18.9150 L 33.7950,19.8000 L 35.3250,18.9150 L 35.3250,17.1450 L 33.7950,16.2600 L 32.2650,17.1450 L 32.2650,18.9150 Z M 30.3300,15.5700 L 31.8675,16.4550 L 33.3975,15.5700 L 33.3975,13.8000 L 31.8675,12.9150 L 30.3300,13.8000 L 30.3300,15.5700 Z M 26.4675,22.2600 L 28.0050,23.1450 L 29.5350,22.2600 L 29.5350,20.4900 L 28.0050,19.6050 L 26.4675,20.4900 L 26.4675,22.2600 Z M 28.4025,18.9150 L 29.9325,19.8000 L 31.4700,18.9150 L 31.4700,17.1450 L 29.9325,16.2600 L 28.4025,17.1450 L 28.4025,18.9150 Z M 26.4675,15.5700 L 28.0050,16.4550 L 29.5350,15.5700 L 29.5350,13.8000 L 28.0050,12.9150 L 26.4675,13.8000 L 26.4675,15.5700 Z M 22.6125,22.2600 L 24.1425,23.1450 L 25.6725,22.2600 L 25.6725,20.4900 L 24.1425,19.6050 L 22.6125,20.4900 L 22.6125,22.2600 Z M 24.5400,18.9150 L 26.0700,19.8000 L 27.6075,18.9150 L 27.6075,17.1450 L 26.0700,16.2600 L 24.5400,17.1450 L 24.5400,18.9150 Z M 22.6125,15.5700 L 24.1425,16.4550 L 25.6725,15.5700 L 25.6725,13.8000 L 24.1425,12.9150 L 22.6125,13.8000 L 22.6125,15.5700 Z M 18.7500,22.2600 L 20.2800,23.1450 L 21.8100,22.2600 L 21.8100,20.4900 L 20.2800,19.6050 L 18.7500,20.4900 L 18.7500,22.2600 Z M 20.6775,18.9150 L 22.2150,19.8000 L 23.7450,18.9150 L 23.7450,17.1450 L 22.2150,16.2600 L 20.6775,17.1450 L 20.6775,18.9150 Z M 18.7500,15.5700 L 20.2800,16.4550 L 21.8100,15.5700 L 21.8100,13.8000 L 20.2800,12.9150 L 18.7500,13.8000 L 18.7500,15.5700 Z M 14.8875,22.2600 L 16.4175,23.1450 L 17.9550,22.2600 L 17.9550,20.4900 L 16.4175,19.6050 L 14.8875,20.4900 L 14.8875,22.2600 Z M 16.8150,18.9150 L 18.3525,19.8000 L 19.8825,18.9150 L 19.8825,17.1450 L 18.3525,16.2600 L 16.8150,17.1450 L 16.8150,18.9150 Z M 14.8875,15.5700 L 16.4175,16.4550 L 17.9550,15.5700 L 17.9550,13.8000 L 16.4175,12.9150 L 14.8875,13.8000 L 14.8875,15.5700 Z M 11.0250,22.2600 L 12.5550,23.1450 L 14.0925,22.2600 L 14.0925,20.4900 L 12.5550,19.6050 L 11.0250,20.4900 L 11.0250,22.2600 Z M 12.9600,18.9150 L 14.4900,19.8000 L 16.0200,18.9150 L 16.0200,17.1450 L 14.4900,16.2600 L 12.9600,17.1450 L 12.9600,18.9150 Z M 11.0250,15.5700 L 12.5550,16.4550 L 14.0925,15.5700 L 14.0925,13.8000 L 12.5550,12.9150 L 11.0250,13.8000 L 11.0250,15.5700 Z M 7.1625,22.2600 L 8.7000,23.1450 L 10.2300,22.2600 L 10.2300,20.4900 L 8.7000,19.6050 L 7.1625,20.4900 L 7.1625,22.2600 Z M 9.0975,18.9150 L 10.6275,19.8000 L 12.1575,18.9150 L 12.1575,17.1450 L 10.6275,16.2600 L 9.0975,17.1450 L 9.0975,18.9150 Z M 7.1625,15.5700 L 8.7000,16.4550 L 10.2300,15.5700 L 10.2300,13.8000 L 8.7000,12.9150 L 7.1625,13.8000 L 7.1625,15.5700 Z M 3.3000,22.2600 L 4.8375,23.1450 L 6.3675,22.2600 L 6.3675,20.4900 L 4.8375,19.6050 L 3.3000,20.4900 L 3.3000,22.2600 Z M 5.2350,18.9150 L 6.7650,19.8000 L 8.3025,18.9150 L 8.3025,17.1450 L 6.7650,16.2600 L 5.2350,17.1450 L 5.2350,18.9150 Z M 3.3000,15.5700 L 4.8375,16.4550 L 6.3675,15.5700 L 6.3675,13.8000 L 4.8375,12.9150 L 3.3000,13.8000 L 3.3000,15.5700 Z " fill="#1A1A1A" stroke-width="1px" stroke="#1A1A1A"/>
        </g>
        <g transform="matrix(1.0000 0.0000 0.0000 1.0000 0.0000 0.0000)">
          <path d="M 32.2350,2.5725 L 11.6775,2.5725 C 11.3175,2.5725 11.0325,2.8575 11.0325,3.2175 L 11.0325,3.2175 L 11.0325,5.6325 L 11.2800,5.6325 C 11.3400,5.6325 11.3925,5.5800 11.3925,5.5200 C 11.3925,5.5200 11.3925,5.5200 11.3925,5.5200 L 11.3925,3.2175 C 11.3925,3.0600 11.5200,2.9325 11.6775,2.9325 L 11.6775,2.9325 L 32.9850,2.9325 C 33.2625,2.9325 33.4950,2.7375 33.4950,2.4975 C 33.4950,2.4975 33.4950,2.4975 33.4950,2.4975 L 33.4950,2.4975 L 33.4950,0.3375 C 33.4950,0.2775 33.4500,0.2325 33.3900,0.2325 L 33.3900,0.2325 L 33.1350,0.2325 L 33.1350,1.8150 C 33.1350,2.2350 32.7300,2.5725 32.2350,2.5725 Z " fill="none" stroke="none"/>
          <defs>
            <clipPath id="clip-1390598089">
              <path d="M 32.2350,2.5725 L 11.6775,2.5725 C 11.3175,2.5725 11.0325,2.8575 11.0325,3.2175 L 11.0325,3.2175 L 11.0325,5.6325 L 11.2800,5.6325 C 11.3400,5.6325 11.3925,5.5800 11.3925,5.5200 C 11.3925,5.5200 11.3925,5.5200 11.3925,5.5200 L 11.3925,3.2175 C 11.3925,3.0600 11.5200,2.9325 11.6775,2.9325 L 11.6775,2.9325 L 32.9850,2.9325 C 33.2625,2.9325 33.4950,2.7375 33.4950,2.4975 C 33.4950,2.4975 33.4950,2.4975 33.4950,2.4975 L 33.4950,2.4975 L 33.4950,0.3375 C 33.4950,0.2775 33.4500,0.2325 33.3900,0.2325 L 33.3900,0.2325 L 33.1350,0.2325 L 33.1350,1.8150 C 33.1350,2.2350 32.7300,2.5725 32.2350,2.5725 Z"/>
            </clipPath>
          </defs>
          <path clip-path="url(#clip-1390598089)" d="M 11.0175,0.2175 L 11.0175,0.2250 L 33.4950,0.2250 L 33.4950,0.2175 L 11.0175,0.2175 Z" stroke-width="1px" stroke="#404040" fill="#404040"/>
          <path clip-path="url(#clip-1390598089)" d="M 11.0175,0.2250 L 11.0175,0.3225 L 33.4950,0.3225 L 33.4950,0.2250 L 11.0175,0.2250 Z" stroke-width="1px" stroke="#8C8C8C" fill="#8C8C8C"/>
          <path clip-path="url(#clip-1390598089)" d="M 11.0175,0.3225 L 11.0175,0.4575 L 33.4950,0.4575 L 33.4950,0.3225 L 11.0175,0.3225 Z" stroke-width="1px" stroke="#8A8A8A" fill="#8A8A8A"/>
          <path clip-path="url(#clip-1390598089)" d="M 11.0175,0.4575 L 11.0175,0.6075 L 33.4950,0.6075 L 33.4950,0.4575 L 11.0175,0.4575 Z" stroke-width="1px" stroke="#888888" fill="#888888"/>
          <path clip-path="url(#clip-1390598089)" d="M 11.0175,0.6075 L 11.0175,0.7725 L 33.4950,0.7725 L 33.4950,0.6075 L 11.0175,0.6075 Z" stroke-width="1px" stroke="#868686" fill="#868686"/>
          <path clip-path="url(#clip-1390598089)" d="M 11.0175,0.7725 L 11.0175,0.9300 L 33.4950,0.9300 L 33.4950,0.7725 L 11.0175,0.7725 Z" stroke-width="1px" stroke="#848484" fill="#848484"/>
          <path clip-path="url(#clip-1390598089)" d="M 11.0175,0.9300 L 11.0175,1.0725 L 33.4950,1.0725 L 33.4950,0.9300 L 11.0175,0.9300 Z" stroke-width="1px" stroke="#828282" fill="#828282"/>
          <path clip-path="url(#clip-1390598089)" d="M 11.0175,1.0725 L 11.0175,1.2075 L 33.4950,1.2075 L 33.4950,1.0725 L 11.0175,1.0725 Z" stroke-width="1px" stroke="#808080" fill="#808080"/>
          <path clip-path="url(#clip-1390598089)" d="M 11.0175,1.2075 L 11.0175,1.3425 L 33.4950,1.3425 L 33.4950,1.2075 L 11.0175,1.2075 Z" stroke-width="1px" stroke="#7E7E7E" fill="#7E7E7E"/>
          <path clip-path="url(#clip-1390598089)" d="M 11.0175,1.3425 L 11.0175,1.4775 L 33.4950,1.4775 L 33.4950,1.3425 L 11.0175,1.3425 Z" stroke-width="1px" stroke="#7C7C7C" fill="#7C7C7C"/>
          <path clip-path="url(#clip-1390598089)" d="M 11.0175,1.4775 L 11.0175,1.6125 L 33.4950,1.6125 L 33.4950,1.4775 L 11.0175,1.4775 Z" stroke-width="1px" stroke="#7A7A7A" fill="#7A7A7A"/>
          <path clip-path="url(#clip-1390598089)" d="M 11.0175,1.6125 L 11.0175,1.7475 L 33.4950,1.7475 L 33.4950,1.6125 L 11.0175,1.6125 Z" stroke-width="1px" stroke="#787878" fill="#787878"/>
          <path clip-path="url(#clip-1390598089)" d="M 11.0175,1.7475 L 11.0175,1.8825 L 33.4950,1.8825 L 33.4950,1.7475 L 11.0175,1.7475 Z" stroke-width="1px" stroke="#767676" fill="#767676"/>
          <path clip-path="url(#clip-1390598089)" d="M 11.0175,1.8825 L 11.0175,2.0400 L 33.4950,2.0400 L 33.4950,1.8825 L 11.0175,1.8825 Z" stroke-width="1px" stroke="#747474" fill="#747474"/>
          <path clip-path="url(#clip-1390598089)" d="M 11.0175,2.0400 L 11.0175,2.2125 L 33.4950,2.2125 L 33.4950,2.0400 L 11.0175,2.0400 Z" stroke-width="1px" stroke="#727272" fill="#727272"/>
          <path clip-path="url(#clip-1390598089)" d="M 11.0175,2.2125 L 11.0175,2.3550 L 33.4950,2.3550 L 33.4950,2.2125 L 11.0175,2.2125 Z" stroke-width="1px" stroke="#707070" fill="#707070"/>
          <path clip-path="url(#clip-1390598089)" d="M 11.0175,2.3550 L 11.0175,2.4900 L 33.4950,2.4900 L 33.4950,2.3550 L 11.0175,2.3550 Z" stroke-width="1px" stroke="#6E6E6E" fill="#6E6E6E"/>
          <path clip-path="url(#clip-1390598089)" d="M 11.0175,2.4900 L 11.0175,2.6250 L 33.4950,2.6250 L 33.4950,2.4900 L 11.0175,2.4900 Z" stroke-width="1px" stroke="#6C6C6C" fill="#6C6C6C"/>
          <path clip-path="url(#clip-1390598089)" d="M 11.0175,2.6250 L 11.0175,2.7600 L 33.4950,2.7600 L 33.4950,2.6250 L 11.0175,2.6250 Z" stroke-width="1px" stroke="#6A6A6A" fill="#6A6A6A"/>
          <path clip-path="url(#clip-1390598089)" d="M 11.0175,2.7600 L 11.0175,2.8950 L 33.4950,2.8950 L 33.4950,2.7600 L 11.0175,2.7600 Z" stroke-width="1px" stroke="#686868" fill="#686868"/>
          <path clip-path="url(#clip-1390598089)" d="M 11.0175,2.8950 L 11.0175,3.0300 L 33.4950,3.0300 L 33.4950,2.8950 L 11.0175,2.8950 Z" stroke-width="1px" stroke="#666666" fill="#666666"/>
          <path clip-path="url(#clip-1390598089)" d="M 11.0175,3.0300 L 11.0175,3.1650 L 33.4950,3.1650 L 33.4950,3.0300 L 11.0175,3.0300 Z" stroke-width="1px" stroke="#646464" fill="#646464"/>
          <path clip-path="url(#clip-1390598089)" d="M 11.0175,3.1650 L 11.0175,3.3150 L 33.4950,3.3150 L 33.4950,3.1650 L 11.0175,3.1650 Z" stroke-width="1px" stroke="#626262" fill="#626262"/>
          <path clip-path="url(#clip-1390598089)" d="M 11.0175,3.3150 L 11.0175,3.4800 L 33.4950,3.4800 L 33.4950,3.3150 L 11.0175,3.3150 Z" stroke-width="1px" stroke="#606060" fill="#606060"/>
          <path clip-path="url(#clip-1390598089)" d="M 11.0175,3.4800 L 11.0175,3.6450 L 33.4950,3.6450 L 33.4950,3.4800 L 11.0175,3.4800 Z" stroke-width="1px" stroke="#5E5E5E" fill="#5E5E5E"/>
          <path clip-path="url(#clip-1390598089)" d="M 11.0175,3.6450 L 11.0175,3.7800 L 33.4950,3.7800 L 33.4950,3.6450 L 11.0175,3.6450 Z" stroke-width="1px" stroke="#5C5C5C" fill="#5C5C5C"/>
          <path clip-path="url(#clip-1390598089)" d="M 11.0175,3.7800 L 11.0175,3.9150 L 33.4950,3.9150 L 33.4950,3.7800 L 11.0175,3.7800 Z" stroke-width="1px" stroke="#5A5A5A" fill="#5A5A5A"/>
          <path clip-path="url(#clip-1390598089)" d="M 11.0175,3.9150 L 11.0175,4.0500 L 33.4950,4.0500 L 33.4950,3.9150 L 11.0175,3.9150 Z" stroke-width="1px" stroke="#585858" fill="#585858"/>
          <path clip-path="url(#clip-1390598089)" d="M 11.0175,4.0500 L 11.0175,4.1850 L 33.4950,4.1850 L 33.4950,4.0500 L 11.0175,4.0500 Z" stroke-width="1px" stroke="#565656" fill="#565656"/>
          <path clip-path="url(#clip-1390598089)" d="M 11.0175,4.1850 L 11.0175,4.3200 L 33.4950,4.3200 L 33.4950,4.1850 L 11.0175,4.1850 Z" stroke-width="1px" stroke="#545454" fill="#545454"/>
          <path clip-path="url(#clip-1390598089)" d="M 11.0175,4.3200 L 11.0175,4.4550 L 33.4950,4.4550 L 33.4950,4.3200 L 11.0175,4.3200 Z" stroke-width="1px" stroke="#525252" fill="#525252"/>
          <path clip-path="url(#clip-1390598089)" d="M 11.0175,4.4550 L 11.0175,4.5900 L 33.4950,4.5900 L 33.4950,4.4550 L 11.0175,4.4550 Z" stroke-width="1px" stroke="#505050" fill="#505050"/>
          <path clip-path="url(#clip-1390598089)" d="M 11.0175,4.5900 L 11.0175,4.7475 L 33.4950,4.7475 L 33.4950,4.5900 L 11.0175,4.5900 Z" stroke-width="1px" stroke="#4E4E4E" fill="#4E4E4E"/>
          <path clip-path="url(#clip-1390598089)" d="M 11.0175,4.7475 L 11.0175,4.9200 L 33.4950,4.9200 L 33.4950,4.7475 L 11.0175,4.7475 Z" stroke-width="1px" stroke="#4C4C4C" fill="#4C4C4C"/>
          <path clip-path="url(#clip-1390598089)" d="M 11.0175,4.9200 L 11.0175,5.0625 L 33.4950,5.0625 L 33.4950,4.9200 L 11.0175,4.9200 Z" stroke-width="1px" stroke="#4A4A4A" fill="#4A4A4A"/>
          <path clip-path="url(#clip-1390598089)" d="M 11.0175,5.0625 L 11.0175,5.1975 L 33.4950,5.1975 L 33.4950,5.0625 L 11.0175,5.0625 Z" stroke-width="1px" stroke="#484848" fill="#484848"/>
          <path clip-path="url(#clip-1390598089)" d="M 11.0175,5.1975 L 11.0175,5.3325 L 33.4950,5.3325 L 33.4950,5.1975 L 11.0175,5.1975 Z" stroke-width="1px" stroke="#464646" fill="#464646"/>
          <path clip-path="url(#clip-1390598089)" d="M 11.0175,5.3325 L 11.0175,5.4675 L 33.4950,5.4675 L 33.4950,5.3325 L 11.0175,5.3325 Z" stroke-width="1px" stroke="#444444" fill="#444444"/>
          <path clip-path="url(#clip-1390598089)" d="M 11.0175,5.4675 L 11.0175,5.6025 L 33.4950,5.6025 L 33.4950,5.4675 L 11.0175,5.4675 Z" stroke-width="1px" stroke="#424242" fill="#424242"/>
          <path clip-path="url(#clip-1390598089)" d="M 11.0175,5.6025 L 11.0175,5.6325 L 33.4950,5.6325 L 33.4950,5.6025 L 11.0175,5.6025 Z" stroke-width="1px" stroke="#404040" fill="#404040"/>
        </g>
        <g transform="matrix(0.2500 0.0000 0.0000 0.2500 0.0000 0.0000)">
          <path d="M 128.9250,10.2750 L 46.7025,10.2750 C 45.2700,10.2750 44.1150,11.4300 44.1150,12.8625 L 44.1150,12.8625 L 44.1150,22.5150 L 45.1200,22.5150 C 45.3600,22.5150 45.5550,22.3200 45.5550,22.0800 C 45.5550,22.0800 45.5550,22.0800 45.5550,22.0800 L 45.5550,12.8625 C 45.5550,12.2250 46.0650,11.7150 46.7025,11.7150 L 46.7025,11.7150 L 131.9175,11.7150 C 133.0500,11.7150 133.9650,10.9425 133.9650,9.9900 C 133.9650,9.9900 133.9650,9.9900 133.9650,9.9900 L 133.9650,9.9900 L 133.9650,1.3425 C 133.9650,1.1025 133.7775,0.9150 133.5375,0.9150 L 133.5375,0.9150 L 132.5250,0.9150 L 132.5250,7.2450 C 132.5250,8.9175 130.9200,10.2750 128.9250,10.2750 Z " stroke="#333333" stroke-width="0.0075" stroke-linecap="round" stroke-linejoin="round" fill="none"/>
        </g>
        <g transform="matrix(1.0000 0.0000 0.0000 1.0000 0.0000 0.0000)">
          <path d="M 33.1350,0.2325 L 8.5500,0.2325 C 8.4900,0.2325 8.4375,0.2775 8.4375,0.3375 L 8.4375,0.3375 L 8.4375,5.5200 C 8.4375,5.5800 8.4900,5.6325 8.5500,5.6325 L 8.5500,5.6325 L 11.0325,5.6325 L 11.0325,3.2175 C 11.0325,2.8575 11.3175,2.5725 11.6775,2.5725 L 11.6775,2.5725 L 32.2350,2.5725 C 32.7300,2.5725 33.1350,2.2350 33.1350,1.8150 C 33.1350,1.8150 33.1350,1.8150 33.1350,1.8150 L 33.1350,1.8150 L 33.1350,0.2325 Z " fill="none" stroke="none"/>
          <defs>
            <clipPath id="clip-1028363610">
              <path d="M 33.1350,0.2325 L 8.5500,0.2325 C 8.4900,0.2325 8.4375,0.2775 8.4375,0.3375 L 8.4375,0.3375 L 8.4375,5.5200 C 8.4375,5.5800 8.4900,5.6325 8.5500,5.6325 L 8.5500,5.6325 L 11.0325,5.6325 L 11.0325,3.2175 C 11.0325,2.8575 11.3175,2.5725 11.6775,2.5725 L 11.6775,2.5725 L 32.2350,2.5725 C 32.7300,2.5725 33.1350,2.2350 33.1350,1.8150 C 33.1350,1.8150 33.1350,1.8150 33.1350,1.8150 L 33.1350,1.8150 L 33.1350,0.2325 Z"/>
            </clipPath>
          </defs>
          <path clip-path="url(#clip-1028363610)" d="M 8.4225,0.2175 L 8.4225,0.2250 L 33.1350,0.2250 L 33.1350,0.2175 L 8.4225,0.2175 Z" stroke-width="1px" stroke="#BFBFBF" fill="#BFBFBF"/>
          <path clip-path="url(#clip-1028363610)" d="M 8.4225,0.2250 L 8.4225,0.3525 L 33.1350,0.3525 L 33.1350,0.2250 L 8.4225,0.2250 Z" stroke-width="1px" stroke="#F8F8F8" fill="#F8F8F8"/>
          <path clip-path="url(#clip-1028363610)" d="M 8.4225,0.3525 L 8.4225,0.5175 L 33.1350,0.5175 L 33.1350,0.3525 L 8.4225,0.3525 Z" stroke-width="1px" stroke="#F6F6F6" fill="#F6F6F6"/>
          <path clip-path="url(#clip-1028363610)" d="M 8.4225,0.5175 L 8.4225,0.7350 L 33.1350,0.7350 L 33.1350,0.5175 L 8.4225,0.5175 Z" stroke-width="1px" stroke="#F4F4F4" fill="#F4F4F4"/>
          <path clip-path="url(#clip-1028363610)" d="M 8.4225,0.7350 L 8.4225,0.9450 L 33.1350,0.9450 L 33.1350,0.7350 L 8.4225,0.7350 Z" stroke-width="1px" stroke="#F2F2F2" fill="#F2F2F2"/>
          <path clip-path="url(#clip-1028363610)" d="M 8.4225,0.9450 L 8.4225,1.1100 L 33.1350,1.1100 L 33.1350,0.9450 L 8.4225,0.9450 Z" stroke-width="1px" stroke="#F0F0F0" fill="#F0F0F0"/>
          <path clip-path="url(#clip-1028363610)" d="M 8.4225,1.1100 L 8.4225,1.2975 L 33.1350,1.2975 L 33.1350,1.1100 L 8.4225,1.1100 Z" stroke-width="1px" stroke="#EEEEEE" fill="#EEEEEE"/>
          <path clip-path="url(#clip-1028363610)" d="M 8.4225,1.2975 L 8.4225,1.5225 L 33.1350,1.5225 L 33.1350,1.2975 L 8.4225,1.2975 Z" stroke-width="1px" stroke="#ECECEC" fill="#ECECEC"/>
          <path clip-path="url(#clip-1028363610)" d="M 8.4225,1.5225 L 8.4225,1.7025 L 33.1350,1.7025 L 33.1350,1.5225 L 8.4225,1.5225 Z" stroke-width="1px" stroke="#EAEAEA" fill="#EAEAEA"/>
          <path clip-path="url(#clip-1028363610)" d="M 8.4225,1.7025 L 8.4225,1.8750 L 33.1350,1.8750 L 33.1350,1.7025 L 8.4225,1.7025 Z" stroke-width="1px" stroke="#E8E8E8" fill="#E8E8E8"/>
          <path clip-path="url(#clip-1028363610)" d="M 8.4225,1.8750 L 8.4225,2.0850 L 33.1350,2.0850 L 33.1350,1.8750 L 8.4225,1.8750 Z" stroke-width="1px" stroke="#E6E6E6" fill="#E6E6E6"/>
          <path clip-path="url(#clip-1028363610)" d="M 8.4225,2.0850 L 8.4225,2.2950 L 33.1350,2.2950 L 33.1350,2.0850 L 8.4225,2.0850 Z" stroke-width="1px" stroke="#E4E4E4" fill="#E4E4E4"/>
          <path clip-path="url(#clip-1028363610)" d="M 8.4225,2.2950 L 8.4225,2.4675 L 33.1350,2.4675 L 33.1350,2.2950 L 8.4225,2.2950 Z" stroke-width="1px" stroke="#E2E2E2" fill="#E2E2E2"/>
          <path clip-path="url(#clip-1028363610)" d="M 8.4225,2.4675 L 8.4225,2.6475 L 33.1350,2.6475 L 33.1350,2.4675 L 8.4225,2.4675 Z" stroke-width="1px" stroke="#E0E0E0" fill="#E0E0E0"/>
          <path clip-path="url(#clip-1028363610)" d="M 8.4225,2.6475 L 8.4225,2.8725 L 33.1350,2.8725 L 33.1350,2.6475 L 8.4225,2.6475 Z" stroke-width="1px" stroke="#DEDEDE" fill="#DEDEDE"/>
          <path clip-path="url(#clip-1028363610)" d="M 8.4225,2.8725 L 8.4225,3.0600 L 33.1350,3.0600 L 33.1350,2.8725 L 8.4225,2.8725 Z" stroke-width="1px" stroke="#DCDCDC" fill="#DCDCDC"/>
          <path clip-path="url(#clip-1028363610)" d="M 8.4225,3.0600 L 8.4225,3.2250 L 33.1350,3.2250 L 33.1350,3.0600 L 8.4225,3.0600 Z" stroke-width="1px" stroke="#DADADA" fill="#DADADA"/>
          <path clip-path="url(#clip-1028363610)" d="M 8.4225,3.2250 L 8.4225,3.3975 L 33.1350,3.3975 L 33.1350,3.2250 L 8.4225,3.2250 Z" stroke-width="1px" stroke="#D8D8D8" fill="#D8D8D8"/>
          <path clip-path="url(#clip-1028363610)" d="M 8.4225,3.3975 L 8.4225,3.5700 L 33.1350,3.5700 L 33.1350,3.3975 L 8.4225,3.3975 Z" stroke-width="1px" stroke="#D6D6D6" fill="#D6D6D6"/>
          <path clip-path="url(#clip-1028363610)" d="M 8.4225,3.5700 L 8.4225,3.7800 L 33.1350,3.7800 L 33.1350,3.5700 L 8.4225,3.5700 Z" stroke-width="1px" stroke="#D4D4D4" fill="#D4D4D4"/>
          <path clip-path="url(#clip-1028363610)" d="M 8.4225,3.7800 L 8.4225,3.9900 L 33.1350,3.9900 L 33.1350,3.7800 L 8.4225,3.7800 Z" stroke-width="1px" stroke="#D2D2D2" fill="#D2D2D2"/>
          <path clip-path="url(#clip-1028363610)" d="M 8.4225,3.9900 L 8.4225,4.1550 L 33.1350,4.1550 L 33.1350,3.9900 L 8.4225,3.9900 Z" stroke-width="1px" stroke="#D0D0D0" fill="#D0D0D0"/>
          <path clip-path="url(#clip-1028363610)" d="M 8.4225,4.1550 L 8.4225,4.3425 L 33.1350,4.3425 L 33.1350,4.1550 L 8.4225,4.1550 Z" stroke-width="1px" stroke="#CECECE" fill="#CECECE"/>
          <path clip-path="url(#clip-1028363610)" d="M 8.4225,4.3425 L 8.4225,4.5675 L 33.1350,4.5675 L 33.1350,4.3425 L 8.4225,4.3425 Z" stroke-width="1px" stroke="#CCCCCC" fill="#CCCCCC"/>
          <path clip-path="url(#clip-1028363610)" d="M 8.4225,4.5675 L 8.4225,4.7475 L 33.1350,4.7475 L 33.1350,4.5675 L 8.4225,4.5675 Z" stroke-width="1px" stroke="#CACACA" fill="#CACACA"/>
          <path clip-path="url(#clip-1028363610)" d="M 8.4225,4.7475 L 8.4225,4.9200 L 33.1350,4.9200 L 33.1350,4.7475 L 8.4225,4.7475 Z" stroke-width="1px" stroke="#C8C8C8" fill="#C8C8C8"/>
          <path clip-path="url(#clip-1028363610)" d="M 8.4225,4.9200 L 8.4225,5.1300 L 33.1350,5.1300 L 33.1350,4.9200 L 8.4225,4.9200 Z" stroke-width="1px" stroke="#C6C6C6" fill="#C6C6C6"/>
          <path clip-path="url(#clip-1028363610)" d="M 8.4225,5.1300 L 8.4225,5.3400 L 33.1350,5.3400 L 33.1350,5.1300 L 8.4225,5.1300 Z" stroke-width="1px" stroke="#C4C4C4" fill="#C4C4C4"/>
          <path clip-path="url(#clip-1028363610)" d="M 8.4225,5.3400 L 8.4225,5.5125 L 33.1350,5.5125 L 33.1350,5.3400 L 8.4225,5.3400 Z" stroke-width="1px" stroke="#C2C2C2" fill="#C2C2C2"/>
          <path clip-path="url(#clip-1028363610)" d="M 8.4225,5.5125 L 8.4225,5.6325 L 33.1350,5.6325 L 33.1350,5.5125 L 8.4225,5.5125 Z" stroke-width="1px" stroke="#BFBFBF" fill="#BFBFBF"/>
        </g>
        <g transform="matrix(0.2500 0.0000 0.0000 0.2500 0.0000 0.0000)">
          <path d="M 132.5250,0.9150 L 34.1775,0.9150 C 33.9375,0.9150 33.7425,1.1025 33.7425,1.3425 L 33.7425,1.3425 L 33.7425,22.0800 C 33.7425,22.3200 33.9375,22.5150 34.1775,22.5150 L 34.1775,22.5150 L 44.1150,22.5150 L 44.1150,12.8625 C 44.1150,11.4300 45.2700,10.2750 46.7025,10.2750 L 46.7025,10.2750 L 128.9250,10.2750 C 130.9200,10.2750 132.5250,8.9175 132.5250,7.2450 C 132.5250,7.2450 132.5250,7.2450 132.5250,7.2450 L 132.5250,7.2450 L 132.5250,0.9150 Z " stroke="#808080" stroke-width="0.0075" stroke-linecap="round" stroke-linejoin="round" fill="none"/>
        </g>
        <g transform="matrix(1.0000 0.0000 0.0000 1.0000 0.0000 0.0000)">
          <defs>
            <clipPath id="clip-1531585205">
              <path d="M 7.5750,0.5925 L 8.4375,0.5925 L 8.4375,5.2725 L 7.5750,5.2725 L 7.5750,0.5925 Z Z"/>
            </clipPath>
          </defs>
          <path clip-path="url(#clip-1531585205)" d="M 7.5600,0.5775 L 7.5600,0.5850 L 8.4450,0.5850 L 8.4450,0.5775 L 7.5600,0.5775 Z" stroke-width="1px" stroke="#D9680D" fill="#D9680D"/>
          <path clip-path="url(#clip-1531585205)" d="M 7.5600,0.5850 L 7.5600,0.6450 L 8.4450,0.6450 L 8.4450,0.5850 L 7.5600,0.5850 Z" stroke-width="1px" stroke="#F8B57E" fill="#F8B57E"/>
          <path clip-path="url(#clip-1531585205)" d="M 7.5600,0.6450 L 7.5600,0.7275 L 8.4450,0.7275 L 8.4450,0.6450 L 7.5600,0.6450 Z" stroke-width="1px" stroke="#F8B47C" fill="#F8B47C"/>
          <path clip-path="url(#clip-1531585205)" d="M 7.5600,0.7275 L 7.5600,0.8175 L 8.4450,0.8175 L 8.4450,0.7275 L 7.5600,0.7275 Z" stroke-width="1px" stroke="#F7B27A" fill="#F7B27A"/>
          <path clip-path="url(#clip-1531585205)" d="M 7.5600,0.8175 L 7.5600,0.9000 L 8.4450,0.9000 L 8.4450,0.8175 L 7.5600,0.8175 Z" stroke-width="1px" stroke="#F6B178" fill="#F6B178"/>
          <path clip-path="url(#clip-1531585205)" d="M 7.5600,0.9000 L 7.5600,0.9675 L 8.4450,0.9675 L 8.4450,0.9000 L 7.5600,0.9000 Z" stroke-width="1px" stroke="#F6B076" fill="#F6B076"/>
          <path clip-path="url(#clip-1531585205)" d="M 7.5600,0.9675 L 7.5600,1.0200 L 8.4450,1.0200 L 8.4450,0.9675 L 7.5600,0.9675 Z" stroke-width="1px" stroke="#F5AE75" fill="#F5AE75"/>
          <path clip-path="url(#clip-1531585205)" d="M 7.5600,1.0200 L 7.5600,1.1100 L 8.4450,1.1100 L 8.4450,1.0200 L 7.5600,1.0200 Z" stroke-width="1px" stroke="#F5AD73" fill="#F5AD73"/>
          <path clip-path="url(#clip-1531585205)" d="M 7.5600,1.1100 L 7.5600,1.1925 L 8.4450,1.1925 L 8.4450,1.1100 L 7.5600,1.1100 Z" stroke-width="1px" stroke="#F4AC71" fill="#F4AC71"/>
          <path clip-path="url(#clip-1531585205)" d="M 7.5600,1.1925 L 7.5600,1.2750 L 8.4450,1.2750 L 8.4450,1.1925 L 7.5600,1.1925 Z" stroke-width="1px" stroke="#F4AB6F" fill="#F4AB6F"/>
          <path clip-path="url(#clip-1531585205)" d="M 7.5600,1.2750 L 7.5600,1.3575 L 8.4450,1.3575 L 8.4450,1.2750 L 7.5600,1.2750 Z" stroke-width="1px" stroke="#F3AA6D" fill="#F3AA6D"/>
          <path clip-path="url(#clip-1531585205)" d="M 7.5600,1.3575 L 7.5600,1.4400 L 8.4450,1.4400 L 8.4450,1.3575 L 7.5600,1.3575 Z" stroke-width="1px" stroke="#F3A86B" fill="#F3A86B"/>
          <path clip-path="url(#clip-1531585205)" d="M 7.5600,1.4400 L 7.5600,1.5225 L 8.4450,1.5225 L 8.4450,1.4400 L 7.5600,1.4400 Z" stroke-width="1px" stroke="#F2A769" fill="#F2A769"/>
          <path clip-path="url(#clip-1531585205)" d="M 7.5600,1.5225 L 7.5600,1.6125 L 8.4450,1.6125 L 8.4450,1.5225 L 7.5600,1.5225 Z" stroke-width="1px" stroke="#F2A667" fill="#F2A667"/>
          <path clip-path="url(#clip-1531585205)" d="M 7.5600,1.6125 L 7.5600,1.6950 L 8.4450,1.6950 L 8.4450,1.6125 L 7.5600,1.6125 Z" stroke-width="1px" stroke="#F1A465" fill="#F1A465"/>
          <path clip-path="url(#clip-1531585205)" d="M 7.5600,1.6950 L 7.5600,1.7775 L 8.4450,1.7775 L 8.4450,1.6950 L 7.5600,1.6950 Z" stroke-width="1px" stroke="#F0A363" fill="#F0A363"/>
          <path clip-path="url(#clip-1531585205)" d="M 7.5600,1.7775 L 7.5600,1.8450 L 8.4450,1.8450 L 8.4450,1.7775 L 7.5600,1.7775 Z" stroke-width="1px" stroke="#F0A261" fill="#F0A261"/>
          <path clip-path="url(#clip-1531585205)" d="M 7.5600,1.8450 L 7.5600,1.9050 L 8.4450,1.9050 L 8.4450,1.8450 L 7.5600,1.8450 Z" stroke-width="1px" stroke="#EFA060" fill="#EFA060"/>
          <path clip-path="url(#clip-1531585205)" d="M 7.5600,1.9050 L 7.5600,1.9875 L 8.4450,1.9875 L 8.4450,1.9050 L 7.5600,1.9050 Z" stroke-width="1px" stroke="#EF9F5E" fill="#EF9F5E"/>
          <path clip-path="url(#clip-1531585205)" d="M 7.5600,1.9875 L 7.5600,2.0700 L 8.4450,2.0700 L 8.4450,1.9875 L 7.5600,1.9875 Z" stroke-width="1px" stroke="#EE9E5C" fill="#EE9E5C"/>
          <path clip-path="url(#clip-1531585205)" d="M 7.5600,2.0700 L 7.5600,2.1375 L 8.4450,2.1375 L 8.4450,2.0700 L 7.5600,2.0700 Z" stroke-width="1px" stroke="#EE9D5A" fill="#EE9D5A"/>
          <path clip-path="url(#clip-1531585205)" d="M 7.5600,2.1375 L 7.5600,2.1975 L 8.4450,2.1975 L 8.4450,2.1375 L 7.5600,2.1375 Z" stroke-width="1px" stroke="#ED9B59" fill="#ED9B59"/>
          <path clip-path="url(#clip-1531585205)" d="M 7.5600,2.1975 L 7.5600,2.2800 L 8.4450,2.2800 L 8.4450,2.1975 L 7.5600,2.1975 Z" stroke-width="1px" stroke="#ED9A57" fill="#ED9A57"/>
          <path clip-path="url(#clip-1531585205)" d="M 7.5600,2.2800 L 7.5600,2.3625 L 8.4450,2.3625 L 8.4450,2.2800 L 7.5600,2.2800 Z" stroke-width="1px" stroke="#EC9955" fill="#EC9955"/>
          <path clip-path="url(#clip-1531585205)" d="M 7.5600,2.3625 L 7.5600,2.4300 L 8.4450,2.4300 L 8.4450,2.3625 L 7.5600,2.3625 Z" stroke-width="1px" stroke="#EC9853" fill="#EC9853"/>
          <path clip-path="url(#clip-1531585205)" d="M 7.5600,2.4300 L 7.5600,2.4900 L 8.4450,2.4900 L 8.4450,2.4300 L 7.5600,2.4300 Z" stroke-width="1px" stroke="#EB9652" fill="#EB9652"/>
          <path clip-path="url(#clip-1531585205)" d="M 7.5600,2.4900 L 7.5600,2.5725 L 8.4450,2.5725 L 8.4450,2.4900 L 7.5600,2.4900 Z" stroke-width="1px" stroke="#EB9550" fill="#EB9550"/>
          <path clip-path="url(#clip-1531585205)" d="M 7.5600,2.5725 L 7.5600,2.6550 L 8.4450,2.6550 L 8.4450,2.5725 L 7.5600,2.5725 Z" stroke-width="1px" stroke="#EA944E" fill="#EA944E"/>
          <path clip-path="url(#clip-1531585205)" d="M 7.5600,2.6550 L 7.5600,2.7450 L 8.4450,2.7450 L 8.4450,2.6550 L 7.5600,2.6550 Z" stroke-width="1px" stroke="#EA934C" fill="#EA934C"/>
          <path clip-path="url(#clip-1531585205)" d="M 7.5600,2.7450 L 7.5600,2.8275 L 8.4450,2.8275 L 8.4450,2.7450 L 7.5600,2.7450 Z" stroke-width="1px" stroke="#EA914A" fill="#EA914A"/>
          <path clip-path="url(#clip-1531585205)" d="M 7.5600,2.8275 L 7.5600,2.9100 L 8.4450,2.9100 L 8.4450,2.8275 L 7.5600,2.8275 Z" stroke-width="1px" stroke="#E99048" fill="#E99048"/>
          <path clip-path="url(#clip-1531585205)" d="M 7.5600,2.9100 L 7.5600,2.9850 L 8.4450,2.9850 L 8.4450,2.9100 L 7.5600,2.9100 Z" stroke-width="1px" stroke="#E98F46" fill="#E98F46"/>
          <path clip-path="url(#clip-1531585205)" d="M 7.5600,2.9850 L 7.5600,3.0600 L 8.4450,3.0600 L 8.4450,2.9850 L 7.5600,2.9850 Z" stroke-width="1px" stroke="#E98E44" fill="#E98E44"/>
          <path clip-path="url(#clip-1531585205)" d="M 7.5600,3.0600 L 7.5600,3.1350 L 8.4450,3.1350 L 8.4450,3.0600 L 7.5600,3.0600 Z" stroke-width="1px" stroke="#E88D42" fill="#E88D42"/>
          <path clip-path="url(#clip-1531585205)" d="M 7.5600,3.1350 L 7.5600,3.2025 L 8.4450,3.2025 L 8.4450,3.1350 L 7.5600,3.1350 Z" stroke-width="1px" stroke="#E88B40" fill="#E88B40"/>
          <path clip-path="url(#clip-1531585205)" d="M 7.5600,3.2025 L 7.5600,3.2850 L 8.4450,3.2850 L 8.4450,3.2025 L 7.5600,3.2025 Z" stroke-width="1px" stroke="#E78A3E" fill="#E78A3E"/>
          <path clip-path="url(#clip-1531585205)" d="M 7.5600,3.2850 L 7.5600,3.3675 L 8.4450,3.3675 L 8.4450,3.2850 L 7.5600,3.2850 Z" stroke-width="1px" stroke="#E7893C" fill="#E7893C"/>
          <path clip-path="url(#clip-1531585205)" d="M 7.5600,3.3675 L 7.5600,3.4575 L 8.4450,3.4575 L 8.4450,3.3675 L 7.5600,3.3675 Z" stroke-width="1px" stroke="#E6873A" fill="#E6873A"/>
          <path clip-path="url(#clip-1531585205)" d="M 7.5600,3.4575 L 7.5600,3.5400 L 8.4450,3.5400 L 8.4450,3.4575 L 7.5600,3.4575 Z" stroke-width="1px" stroke="#E58638" fill="#E58638"/>
          <path clip-path="url(#clip-1531585205)" d="M 7.5600,3.5400 L 7.5600,3.6075 L 8.4450,3.6075 L 8.4450,3.5400 L 7.5600,3.5400 Z" stroke-width="1px" stroke="#E58536" fill="#E58536"/>
          <path clip-path="url(#clip-1531585205)" d="M 7.5600,3.6075 L 7.5600,3.6675 L 8.4450,3.6675 L 8.4450,3.6075 L 7.5600,3.6075 Z" stroke-width="1px" stroke="#E48335" fill="#E48335"/>
          <path clip-path="url(#clip-1531585205)" d="M 7.5600,3.6675 L 7.5600,3.7500 L 8.4450,3.7500 L 8.4450,3.6675 L 7.5600,3.6675 Z" stroke-width="1px" stroke="#E48233" fill="#E48233"/>
          <path clip-path="url(#clip-1531585205)" d="M 7.5600,3.7500 L 7.5600,3.8325 L 8.4450,3.8325 L 8.4450,3.7500 L 7.5600,3.7500 Z" stroke-width="1px" stroke="#E38131" fill="#E38131"/>
          <path clip-path="url(#clip-1531585205)" d="M 7.5600,3.8325 L 7.5600,3.9000 L 8.4450,3.9000 L 8.4450,3.8325 L 7.5600,3.8325 Z" stroke-width="1px" stroke="#E3802F" fill="#E3802F"/>
          <path clip-path="url(#clip-1531585205)" d="M 7.5600,3.9000 L 7.5600,3.9600 L 8.4450,3.9600 L 8.4450,3.9000 L 7.5600,3.9000 Z" stroke-width="1px" stroke="#E27E2E" fill="#E27E2E"/>
          <path clip-path="url(#clip-1531585205)" d="M 7.5600,3.9600 L 7.5600,4.0425 L 8.4450,4.0425 L 8.4450,3.9600 L 7.5600,3.9600 Z" stroke-width="1px" stroke="#E27D2C" fill="#E27D2C"/>
          <path clip-path="url(#clip-1531585205)" d="M 7.5600,4.0425 L 7.5600,4.1250 L 8.4450,4.1250 L 8.4450,4.0425 L 7.5600,4.0425 Z" stroke-width="1px" stroke="#E17C2A" fill="#E17C2A"/>
          <path clip-path="url(#clip-1531585205)" d="M 7.5600,4.1250 L 7.5600,4.1925 L 8.4450,4.1925 L 8.4450,4.1250 L 7.5600,4.1250 Z" stroke-width="1px" stroke="#E17B28" fill="#E17B28"/>
          <path clip-path="url(#clip-1531585205)" d="M 7.5600,4.1925 L 7.5600,4.2525 L 8.4450,4.2525 L 8.4450,4.1925 L 7.5600,4.1925 Z" stroke-width="1px" stroke="#E07927" fill="#E07927"/>
          <path clip-path="url(#clip-1531585205)" d="M 7.5600,4.2525 L 7.5600,4.3350 L 8.4450,4.3350 L 8.4450,4.2525 L 7.5600,4.2525 Z" stroke-width="1px" stroke="#E07825" fill="#E07825"/>
          <path clip-path="url(#clip-1531585205)" d="M 7.5600,4.3350 L 7.5600,4.4175 L 8.4450,4.4175 L 8.4450,4.3350 L 7.5600,4.3350 Z" stroke-width="1px" stroke="#DF7723" fill="#DF7723"/>
          <path clip-path="url(#clip-1531585205)" d="M 7.5600,4.4175 L 7.5600,4.5000 L 8.4450,4.5000 L 8.4450,4.4175 L 7.5600,4.4175 Z" stroke-width="1px" stroke="#DF7621" fill="#DF7621"/>
          <path clip-path="url(#clip-1531585205)" d="M 7.5600,4.5000 L 7.5600,4.5825 L 8.4450,4.5825 L 8.4450,4.5000 L 7.5600,4.5000 Z" stroke-width="1px" stroke="#DE751F" fill="#DE751F"/>
          <path clip-path="url(#clip-1531585205)" d="M 7.5600,4.5825 L 7.5600,4.6275 L 8.4450,4.6275 L 8.4450,4.5825 L 7.5600,4.5825 Z" stroke-width="1px" stroke="#DE731E" fill="#DE731E"/>
          <path clip-path="url(#clip-1531585205)" d="M 7.5600,4.6275 L 7.5600,4.7100 L 8.4450,4.7100 L 8.4450,4.6275 L 7.5600,4.6275 Z" stroke-width="1px" stroke="#DD731C" fill="#DD731C"/>
          <path clip-path="url(#clip-1531585205)" d="M 7.5600,4.7100 L 7.5600,4.7775 L 8.4450,4.7775 L 8.4450,4.7100 L 7.5600,4.7100 Z" stroke-width="1px" stroke="#DD721A" fill="#DD721A"/>
          <path clip-path="url(#clip-1531585205)" d="M 7.5600,4.7775 L 7.5600,4.8375 L 8.4450,4.8375 L 8.4450,4.7775 L 7.5600,4.7775 Z" stroke-width="1px" stroke="#DC7019" fill="#DC7019"/>
          <path clip-path="url(#clip-1531585205)" d="M 7.5600,4.8375 L 7.5600,4.9200 L 8.4450,4.9200 L 8.4450,4.8375 L 7.5600,4.8375 Z" stroke-width="1px" stroke="#DC6F17" fill="#DC6F17"/>
          <path clip-path="url(#clip-1531585205)" d="M 7.5600,4.9200 L 7.5600,5.0025 L 8.4450,5.0025 L 8.4450,4.9200 L 7.5600,4.9200 Z" stroke-width="1px" stroke="#DB6E15" fill="#DB6E15"/>
          <path clip-path="url(#clip-1531585205)" d="M 7.5600,5.0025 L 7.5600,5.0700 L 8.4450,5.0700 L 8.4450,5.0025 L 7.5600,5.0025 Z" stroke-width="1px" stroke="#DB6D13" fill="#DB6D13"/>
          <path clip-path="url(#clip-1531585205)" d="M 7.5600,5.0700 L 7.5600,5.1300 L 8.4450,5.1300 L 8.4450,5.0700 L 7.5600,5.0700 Z" stroke-width="1px" stroke="#DA6B12" fill="#DA6B12"/>
          <path clip-path="url(#clip-1531585205)" d="M 7.5600,5.1300 L 7.5600,5.2125 L 8.4450,5.2125 L 8.4450,5.1300 L 7.5600,5.1300 Z" stroke-width="1px" stroke="#DA6A10" fill="#DA6A10"/>
          <path clip-path="url(#clip-1531585205)" d="M 7.5600,5.2125 L 7.5600,5.2725 L 8.4450,5.2725 L 8.4450,5.2125 L 7.5600,5.2125 Z" stroke-width="1px" stroke="#D9680D" fill="#D9680D"/>
        </g>
        <g transform="matrix(0.0625 0.0000 0.0000 0.0625 0.0000 0.0000)">
          <path d="M 134.9700,84.2775 L 134.9700,9.3975 L 121.1400,9.3975 L 121.1400,84.2775 L 134.9700,84.2775 Z" stroke="#996600" stroke-width="0.0075" stroke-linecap="round" stroke-linejoin="round" fill="none"/>
        </g>
        <g transform="matrix(1.0000 0.0000 0.0000 1.0000 0.0000 0.0000)">
          <path d="M 5.9475,0.2925 C 6.3300,0.2925 6.6375,1.4775 6.6375,2.9325 C 6.6375,4.3875 6.3300,5.5650 5.9475,5.5650 C 5.9475,5.5650 5.9475,5.5650 5.9475,5.5650 L 5.9475,5.5650 L 7.5750,5.6325 L 7.5750,0.2325 L 5.9475,0.2925 Z " fill="none" stroke="none"/>
          <defs>
            <clipPath id="clip-1260995960">
              <path d="M 5.9475,0.2925 C 6.3300,0.2925 6.6375,1.4775 6.6375,2.9325 C 6.6375,4.3875 6.3300,5.5650 5.9475,5.5650 C 5.9475,5.5650 5.9475,5.5650 5.9475,5.5650 L 5.9475,5.5650 L 7.5750,5.6325 L 7.5750,0.2325 L 5.9475,0.2925 Z"/>
            </clipPath>
          </defs>
          <path clip-path="url(#clip-1260995960)" d="M 5.9325,0.2175 L 5.9325,0.2250 L 7.5750,0.2250 L 7.5750,0.2175 L 5.9325,0.2175 Z" stroke-width="1px" stroke="#D9680D" fill="#D9680D"/>
          <path clip-path="url(#clip-1260995960)" d="M 5.9325,0.2250 L 5.9325,0.3900 L 7.5750,0.3900 L 7.5750,0.2250 L 5.9325,0.2250 Z" stroke-width="1px" stroke="#F9951C" fill="#F9951C"/>
          <path clip-path="url(#clip-1260995960)" d="M 5.9325,0.3900 L 5.9325,0.6150 L 7.5750,0.6150 L 7.5750,0.3900 L 5.9325,0.3900 Z" stroke-width="1px" stroke="#F8931B" fill="#F8931B"/>
          <path clip-path="url(#clip-1260995960)" d="M 5.9325,0.6150 L 5.9325,0.8175 L 7.5750,0.8175 L 7.5750,0.6150 L 5.9325,0.6150 Z" stroke-width="1px" stroke="#F7911B" fill="#F7911B"/>
          <path clip-path="url(#clip-1260995960)" d="M 5.9325,0.8175 L 5.9325,0.9825 L 7.5750,0.9825 L 7.5750,0.8175 L 5.9325,0.8175 Z" stroke-width="1px" stroke="#F5901A" fill="#F5901A"/>
          <path clip-path="url(#clip-1260995960)" d="M 5.9325,0.9825 L 5.9325,1.2975 L 7.5750,1.2975 L 7.5750,0.9825 L 5.9325,0.9825 Z" stroke-width="1px" stroke="#F48E1A" fill="#F48E1A"/>
          <path clip-path="url(#clip-1260995960)" d="M 5.9325,1.2975 L 5.9325,1.4925 L 7.5750,1.4925 L 7.5750,1.2975 L 5.9325,1.2975 Z" stroke-width="1px" stroke="#F38C19" fill="#F38C19"/>
          <path clip-path="url(#clip-1260995960)" d="M 5.9325,1.4925 L 5.9325,1.6350 L 7.5750,1.6350 L 7.5750,1.4925 L 5.9325,1.4925 Z" stroke-width="1px" stroke="#F18B18" fill="#F18B18"/>
          <path clip-path="url(#clip-1260995960)" d="M 5.9325,1.6350 L 5.9325,1.8300 L 7.5750,1.8300 L 7.5750,1.6350 L 5.9325,1.6350 Z" stroke-width="1px" stroke="#F18918" fill="#F18918"/>
          <path clip-path="url(#clip-1260995960)" d="M 5.9325,1.8300 L 5.9325,1.9725 L 7.5750,1.9725 L 7.5750,1.8300 L 5.9325,1.8300 Z" stroke-width="1px" stroke="#EF8817" fill="#EF8817"/>
          <path clip-path="url(#clip-1260995960)" d="M 5.9325,1.9725 L 5.9325,2.1675 L 7.5750,2.1675 L 7.5750,1.9725 L 5.9325,1.9725 Z" stroke-width="1px" stroke="#EF8617" fill="#EF8617"/>
          <path clip-path="url(#clip-1260995960)" d="M 5.9325,2.1675 L 5.9325,2.3100 L 7.5750,2.3100 L 7.5750,2.1675 L 5.9325,2.1675 Z" stroke-width="1px" stroke="#ED8516" fill="#ED8516"/>
          <path clip-path="url(#clip-1260995960)" d="M 5.9325,2.3100 L 5.9325,2.5050 L 7.5750,2.5050 L 7.5750,2.3100 L 5.9325,2.3100 Z" stroke-width="1px" stroke="#ED8316" fill="#ED8316"/>
          <path clip-path="url(#clip-1260995960)" d="M 5.9325,2.5050 L 5.9325,2.6775 L 7.5750,2.6775 L 7.5750,2.5050 L 5.9325,2.5050 Z" stroke-width="1px" stroke="#EB8215" fill="#EB8215"/>
          <path clip-path="url(#clip-1260995960)" d="M 5.9325,2.6775 L 5.9325,2.9850 L 7.5750,2.9850 L 7.5750,2.6775 L 5.9325,2.6775 Z" stroke-width="1px" stroke="#EA8015" fill="#EA8015"/>
          <path clip-path="url(#clip-1260995960)" d="M 5.9325,2.9850 L 5.9325,3.1875 L 7.5750,3.1875 L 7.5750,2.9850 L 5.9325,2.9850 Z" stroke-width="1px" stroke="#E97E15" fill="#E97E15"/>
          <path clip-path="url(#clip-1260995960)" d="M 5.9325,3.1875 L 5.9325,3.3225 L 7.5750,3.3225 L 7.5750,3.1875 L 5.9325,3.1875 Z" stroke-width="1px" stroke="#E77D14" fill="#E77D14"/>
          <path clip-path="url(#clip-1260995960)" d="M 5.9325,3.3225 L 5.9325,3.5250 L 7.5750,3.5250 L 7.5750,3.3225 L 5.9325,3.3225 Z" stroke-width="1px" stroke="#E77B14" fill="#E77B14"/>
          <path clip-path="url(#clip-1260995960)" d="M 5.9325,3.5250 L 5.9325,3.6675 L 7.5750,3.6675 L 7.5750,3.5250 L 5.9325,3.5250 Z" stroke-width="1px" stroke="#E57A13" fill="#E57A13"/>
          <path clip-path="url(#clip-1260995960)" d="M 5.9325,3.6675 L 5.9325,3.8625 L 7.5750,3.8625 L 7.5750,3.6675 L 5.9325,3.6675 Z" stroke-width="1px" stroke="#E57813" fill="#E57813"/>
          <path clip-path="url(#clip-1260995960)" d="M 5.9325,3.8625 L 5.9325,4.0050 L 7.5750,4.0050 L 7.5750,3.8625 L 5.9325,3.8625 Z" stroke-width="1px" stroke="#E37712" fill="#E37712"/>
          <path clip-path="url(#clip-1260995960)" d="M 5.9325,4.0050 L 5.9325,4.2000 L 7.5750,4.2000 L 7.5750,4.0050 L 5.9325,4.0050 Z" stroke-width="1px" stroke="#E37512" fill="#E37512"/>
          <path clip-path="url(#clip-1260995960)" d="M 5.9325,4.2000 L 5.9325,4.3425 L 7.5750,4.3425 L 7.5750,4.2000 L 5.9325,4.2000 Z" stroke-width="1px" stroke="#E17411" fill="#E17411"/>
          <path clip-path="url(#clip-1260995960)" d="M 5.9325,4.3425 L 5.9325,4.5375 L 7.5750,4.5375 L 7.5750,4.3425 L 5.9325,4.3425 Z" stroke-width="1px" stroke="#E17211" fill="#E17211"/>
          <path clip-path="url(#clip-1260995960)" d="M 5.9325,4.5375 L 5.9325,4.7100 L 7.5750,4.7100 L 7.5750,4.5375 L 5.9325,4.5375 Z" stroke-width="1px" stroke="#DF7110" fill="#DF7110"/>
          <path clip-path="url(#clip-1260995960)" d="M 5.9325,4.7100 L 5.9325,5.0175 L 7.5750,5.0175 L 7.5750,4.7100 L 5.9325,4.7100 Z" stroke-width="1px" stroke="#DE6F10" fill="#DE6F10"/>
          <path clip-path="url(#clip-1260995960)" d="M 5.9325,5.0175 L 5.9325,5.2200 L 7.5750,5.2200 L 7.5750,5.0175 L 5.9325,5.0175 Z" stroke-width="1px" stroke="#DD6D0F" fill="#DD6D0F"/>
          <path clip-path="url(#clip-1260995960)" d="M 5.9325,5.2200 L 5.9325,5.3550 L 7.5750,5.3550 L 7.5750,5.2200 L 5.9325,5.2200 Z" stroke-width="1px" stroke="#DB6C0E" fill="#DB6C0E"/>
          <path clip-path="url(#clip-1260995960)" d="M 5.9325,5.3550 L 5.9325,5.5575 L 7.5750,5.5575 L 7.5750,5.3550 L 5.9325,5.3550 Z" stroke-width="1px" stroke="#DB6A0E" fill="#DB6A0E"/>
          <path clip-path="url(#clip-1260995960)" d="M 5.9325,5.5575 L 5.9325,5.6325 L 7.5750,5.6325 L 7.5750,5.5575 L 5.9325,5.5575 Z" stroke-width="1px" stroke="#D9680D" fill="#D9680D"/>
          <path d="M 5.9475,5.5650 C 6.3300,5.5650 6.6375,4.3875 6.6375,2.9325 C 6.6375,1.4775 6.3300,0.2925 5.9475,0.2925 C 5.8500,0.3000 5.7750,0.3825 5.7750,0.4725 L 5.7750,0.4725 L 5.7750,5.3850 C 5.7750,5.4825 5.8500,5.5650 5.9475,5.5650 Z " fill="none" stroke="none"/>
          <defs>
            <clipPath id="clip-573666704">
              <path d="M 5.9475,5.5650 C 6.3300,5.5650 6.6375,4.3875 6.6375,2.9325 C 6.6375,1.4775 6.3300,0.2925 5.9475,0.2925 C 5.8500,0.3000 5.7750,0.3825 5.7750,0.4725 L 5.7750,0.4725 L 5.7750,5.3850 C 5.7750,5.4825 5.8500,5.5650 5.9475,5.5650 Z"/>
            </clipPath>
          </defs>
          <path clip-path="url(#clip-573666704)" d="M 5.7600,0.2850 L 5.7600,5.5725 L 5.7675,5.5725 L 5.7675,0.2850 L 5.7600,0.2850 Z" stroke-width="1px" stroke="#F9951C" fill="#F9951C"/>
          <path clip-path="url(#clip-573666704)" d="M 5.7675,0.2850 L 5.7675,5.5725 L 5.7750,5.5725 L 5.7750,0.2850 L 5.7675,0.2850 Z" stroke-width="1px" stroke="#D9680D" fill="#D9680D"/>
          <path clip-path="url(#clip-573666704)" d="M 5.7750,0.2850 L 5.7750,5.5725 L 5.7825,5.5725 L 5.7825,0.2850 L 5.7750,0.2850 Z" stroke-width="1px" stroke="#D9690D" fill="#D9690D"/>
          <path clip-path="url(#clip-573666704)" d="M 5.7825,0.2850 L 5.7825,5.5725 L 5.7975,5.5725 L 5.7975,0.2850 L 5.7825,0.2850 Z" stroke-width="1px" stroke="#DA690D" fill="#DA690D"/>
          <path clip-path="url(#clip-573666704)" d="M 5.7975,0.2850 L 5.7975,5.5725 L 5.8050,5.5725 L 5.8050,0.2850 L 5.7975,0.2850 Z" stroke-width="1px" stroke="#DA6A0E" fill="#DA6A0E"/>
          <path clip-path="url(#clip-573666704)" d="M 5.8050,0.2850 L 5.8050,5.5725 L 5.8125,5.5725 L 5.8125,0.2850 L 5.8050,0.2850 Z" stroke-width="1px" stroke="#DB6A0E" fill="#DB6A0E"/>
          <path clip-path="url(#clip-573666704)" d="M 5.8125,0.2850 L 5.8125,5.5725 L 5.8350,5.5725 L 5.8350,0.2850 L 5.8125,0.2850 Z" stroke-width="1px" stroke="#DB6B0E" fill="#DB6B0E"/>
          <path clip-path="url(#clip-573666704)" d="M 5.8350,0.2850 L 5.8350,5.5725 L 5.8500,5.5725 L 5.8500,0.2850 L 5.8350,0.2850 Z" stroke-width="1px" stroke="#DC6C0E" fill="#DC6C0E"/>
          <path clip-path="url(#clip-573666704)" d="M 5.8500,0.2850 L 5.8500,5.5725 L 5.8650,5.5725 L 5.8650,0.2850 L 5.8500,0.2850 Z" stroke-width="1px" stroke="#DC6D0F" fill="#DC6D0F"/>
          <path clip-path="url(#clip-573666704)" d="M 5.8650,0.2850 L 5.8650,5.5725 L 5.8875,5.5725 L 5.8875,0.2850 L 5.8650,0.2850 Z" stroke-width="1px" stroke="#DD6E0F" fill="#DD6E0F"/>
          <path clip-path="url(#clip-573666704)" d="M 5.8875,0.2850 L 5.8875,5.5725 L 5.9025,5.5725 L 5.9025,0.2850 L 5.8875,0.2850 Z" stroke-width="1px" stroke="#DE6F0F" fill="#DE6F0F"/>
          <path clip-path="url(#clip-573666704)" d="M 5.9025,0.2850 L 5.9025,5.5725 L 5.9175,5.5725 L 5.9175,0.2850 L 5.9025,0.2850 Z" stroke-width="1px" stroke="#DE6F10" fill="#DE6F10"/>
          <path clip-path="url(#clip-573666704)" d="M 5.9175,0.2850 L 5.9175,5.5725 L 5.9400,5.5725 L 5.9400,0.2850 L 5.9175,0.2850 Z" stroke-width="1px" stroke="#DF7010" fill="#DF7010"/>
          <path clip-path="url(#clip-573666704)" d="M 5.9400,0.2850 L 5.9400,5.5725 L 5.9475,5.5725 L 5.9475,0.2850 L 5.9400,0.2850 Z" stroke-width="1px" stroke="#DF7110" fill="#DF7110"/>
          <path clip-path="url(#clip-573666704)" d="M 5.9475,0.2850 L 5.9475,5.5725 L 5.9625,5.5725 L 5.9625,0.2850 L 5.9475,0.2850 Z" stroke-width="1px" stroke="#E07110" fill="#E07110"/>
          <path clip-path="url(#clip-573666704)" d="M 5.9625,0.2850 L 5.9625,5.5725 L 5.9700,5.5725 L 5.9700,0.2850 L 5.9625,0.2850 Z" stroke-width="1px" stroke="#E07211" fill="#E07211"/>
          <path clip-path="url(#clip-573666704)" d="M 5.9700,0.2850 L 5.9700,5.5725 L 5.9775,5.5725 L 5.9775,0.2850 L 5.9700,0.2850 Z" stroke-width="1px" stroke="#E17211" fill="#E17211"/>
          <path clip-path="url(#clip-573666704)" d="M 5.9775,0.2850 L 5.9775,5.5725 L 6.0000,5.5725 L 6.0000,0.2850 L 5.9775,0.2850 Z" stroke-width="1px" stroke="#E17311" fill="#E17311"/>
          <path clip-path="url(#clip-573666704)" d="M 6.0000,0.2850 L 6.0000,5.5725 L 6.0150,5.5725 L 6.0150,0.2850 L 6.0000,0.2850 Z" stroke-width="1px" stroke="#E27411" fill="#E27411"/>
          <path clip-path="url(#clip-573666704)" d="M 6.0150,0.2850 L 6.0150,5.5725 L 6.0300,5.5725 L 6.0300,0.2850 L 6.0150,0.2850 Z" stroke-width="1px" stroke="#E27512" fill="#E27512"/>
          <path clip-path="url(#clip-573666704)" d="M 6.0300,0.2850 L 6.0300,5.5725 L 6.0525,5.5725 L 6.0525,0.2850 L 6.0300,0.2850 Z" stroke-width="1px" stroke="#E37612" fill="#E37612"/>
          <path clip-path="url(#clip-573666704)" d="M 6.0525,0.2850 L 6.0525,5.5725 L 6.0675,5.5725 L 6.0675,0.2850 L 6.0525,0.2850 Z" stroke-width="1px" stroke="#E47712" fill="#E47712"/>
          <path clip-path="url(#clip-573666704)" d="M 6.0675,0.2850 L 6.0675,5.5725 L 6.0825,5.5725 L 6.0825,0.2850 L 6.0675,0.2850 Z" stroke-width="1px" stroke="#E47813" fill="#E47813"/>
          <path clip-path="url(#clip-573666704)" d="M 6.0825,0.2850 L 6.0825,5.5725 L 6.0900,5.5725 L 6.0900,0.2850 L 6.0825,0.2850 Z" stroke-width="1px" stroke="#E57813" fill="#E57813"/>
          <path clip-path="url(#clip-573666704)" d="M 6.0900,0.2850 L 6.0900,5.5725 L 6.1050,5.5725 L 6.1050,0.2850 L 6.0900,0.2850 Z" stroke-width="1px" stroke="#E57913" fill="#E57913"/>
          <path clip-path="url(#clip-573666704)" d="M 6.1050,0.2850 L 6.1050,5.5725 L 6.1125,5.5725 L 6.1125,0.2850 L 6.1050,0.2850 Z" stroke-width="1px" stroke="#E57A13" fill="#E57A13"/>
          <path clip-path="url(#clip-573666704)" d="M 6.1125,0.2850 L 6.1125,5.5725 L 6.1275,5.5725 L 6.1275,0.2850 L 6.1125,0.2850 Z" stroke-width="1px" stroke="#E67A13" fill="#E67A13"/>
          <path clip-path="url(#clip-573666704)" d="M 6.1275,0.2850 L 6.1275,5.5725 L 6.1350,5.5725 L 6.1350,0.2850 L 6.1275,0.2850 Z" stroke-width="1px" stroke="#E67B14" fill="#E67B14"/>
          <path clip-path="url(#clip-573666704)" d="M 6.1350,0.2850 L 6.1350,5.5725 L 6.1425,5.5725 L 6.1425,0.2850 L 6.1350,0.2850 Z" stroke-width="1px" stroke="#E77B14" fill="#E77B14"/>
          <path clip-path="url(#clip-573666704)" d="M 6.1425,0.2850 L 6.1425,5.5725 L 6.1650,5.5725 L 6.1650,0.2850 L 6.1425,0.2850 Z" stroke-width="1px" stroke="#E77C14" fill="#E77C14"/>
          <path clip-path="url(#clip-573666704)" d="M 6.1650,0.2850 L 6.1650,5.5725 L 6.1800,5.5725 L 6.1800,0.2850 L 6.1650,0.2850 Z" stroke-width="1px" stroke="#E87D14" fill="#E87D14"/>
          <path clip-path="url(#clip-573666704)" d="M 6.1800,0.2850 L 6.1800,5.5725 L 6.1950,5.5725 L 6.1950,0.2850 L 6.1800,0.2850 Z" stroke-width="1px" stroke="#E87E15" fill="#E87E15"/>
          <path clip-path="url(#clip-573666704)" d="M 6.1950,0.2850 L 6.1950,5.5725 L 6.2175,5.5725 L 6.2175,0.2850 L 6.1950,0.2850 Z" stroke-width="1px" stroke="#E97F15" fill="#E97F15"/>
          <path clip-path="url(#clip-573666704)" d="M 6.2175,0.2850 L 6.2175,5.5725 L 6.2475,5.5725 L 6.2475,0.2850 L 6.2175,0.2850 Z" stroke-width="1px" stroke="#EA8015" fill="#EA8015"/>
          <path clip-path="url(#clip-573666704)" d="M 6.2475,0.2850 L 6.2475,5.5725 L 6.2700,5.5725 L 6.2700,0.2850 L 6.2475,0.2850 Z" stroke-width="1px" stroke="#EB8115" fill="#EB8115"/>
          <path clip-path="url(#clip-573666704)" d="M 6.2700,0.2850 L 6.2700,5.5725 L 6.2775,5.5725 L 6.2775,0.2850 L 6.2700,0.2850 Z" stroke-width="1px" stroke="#EB8215" fill="#EB8215"/>
          <path clip-path="url(#clip-573666704)" d="M 6.2775,0.2850 L 6.2775,5.5725 L 6.2925,5.5725 L 6.2925,0.2850 L 6.2775,0.2850 Z" stroke-width="1px" stroke="#EC8215" fill="#EC8215"/>
          <path clip-path="url(#clip-573666704)" d="M 6.2925,0.2850 L 6.2925,5.5725 L 6.3000,5.5725 L 6.3000,0.2850 L 6.2925,0.2850 Z" stroke-width="1px" stroke="#EC8316" fill="#EC8316"/>
          <path clip-path="url(#clip-573666704)" d="M 6.3000,0.2850 L 6.3000,5.5725 L 6.3075,5.5725 L 6.3075,0.2850 L 6.3000,0.2850 Z" stroke-width="1px" stroke="#ED8316" fill="#ED8316"/>
          <path clip-path="url(#clip-573666704)" d="M 6.3075,0.2850 L 6.3075,5.5725 L 6.3225,5.5725 L 6.3225,0.2850 L 6.3075,0.2850 Z" stroke-width="1px" stroke="#ED8416" fill="#ED8416"/>
          <path clip-path="url(#clip-573666704)" d="M 6.3225,0.2850 L 6.3225,5.5725 L 6.3300,5.5725 L 6.3300,0.2850 L 6.3225,0.2850 Z" stroke-width="1px" stroke="#ED8516" fill="#ED8516"/>
          <path clip-path="url(#clip-573666704)" d="M 6.3300,0.2850 L 6.3300,5.5725 L 6.3450,5.5725 L 6.3450,0.2850 L 6.3300,0.2850 Z" stroke-width="1px" stroke="#EE8516" fill="#EE8516"/>
          <path clip-path="url(#clip-573666704)" d="M 6.3450,0.2850 L 6.3450,5.5725 L 6.3600,5.5725 L 6.3600,0.2850 L 6.3450,0.2850 Z" stroke-width="1px" stroke="#EE8617" fill="#EE8617"/>
          <path clip-path="url(#clip-573666704)" d="M 6.3600,0.2850 L 6.3600,5.5725 L 6.3825,5.5725 L 6.3825,0.2850 L 6.3600,0.2850 Z" stroke-width="1px" stroke="#EF8717" fill="#EF8717"/>
          <path clip-path="url(#clip-573666704)" d="M 6.3825,0.2850 L 6.3825,5.5725 L 6.3975,5.5725 L 6.3975,0.2850 L 6.3825,0.2850 Z" stroke-width="1px" stroke="#F08817" fill="#F08817"/>
          <path clip-path="url(#clip-573666704)" d="M 6.3975,0.2850 L 6.3975,5.5725 L 6.4125,5.5725 L 6.4125,0.2850 L 6.3975,0.2850 Z" stroke-width="1px" stroke="#F08918" fill="#F08918"/>
          <path clip-path="url(#clip-573666704)" d="M 6.4125,0.2850 L 6.4125,5.5725 L 6.4200,5.5725 L 6.4200,0.2850 L 6.4125,0.2850 Z" stroke-width="1px" stroke="#F18918" fill="#F18918"/>
          <path clip-path="url(#clip-573666704)" d="M 6.4200,0.2850 L 6.4200,5.5725 L 6.4350,5.5725 L 6.4350,0.2850 L 6.4200,0.2850 Z" stroke-width="1px" stroke="#F18A18" fill="#F18A18"/>
          <path clip-path="url(#clip-573666704)" d="M 6.4350,0.2850 L 6.4350,5.5725 L 6.4425,5.5725 L 6.4425,0.2850 L 6.4350,0.2850 Z" stroke-width="1px" stroke="#F18B18" fill="#F18B18"/>
          <path clip-path="url(#clip-573666704)" d="M 6.4425,0.2850 L 6.4425,5.5725 L 6.4575,5.5725 L 6.4575,0.2850 L 6.4425,0.2850 Z" stroke-width="1px" stroke="#F28B18" fill="#F28B18"/>
          <path clip-path="url(#clip-573666704)" d="M 6.4575,0.2850 L 6.4575,5.5725 L 6.4650,5.5725 L 6.4650,0.2850 L 6.4575,0.2850 Z" stroke-width="1px" stroke="#F28C19" fill="#F28C19"/>
          <path clip-path="url(#clip-573666704)" d="M 6.4650,0.2850 L 6.4650,5.5725 L 6.4725,5.5725 L 6.4725,0.2850 L 6.4650,0.2850 Z" stroke-width="1px" stroke="#F38C19" fill="#F38C19"/>
          <path clip-path="url(#clip-573666704)" d="M 6.4725,0.2850 L 6.4725,5.5725 L 6.4950,5.5725 L 6.4950,0.2850 L 6.4725,0.2850 Z" stroke-width="1px" stroke="#F38D19" fill="#F38D19"/>
          <path clip-path="url(#clip-573666704)" d="M 6.4950,0.2850 L 6.4950,5.5725 L 6.5100,5.5725 L 6.5100,0.2850 L 6.4950,0.2850 Z" stroke-width="1px" stroke="#F48E19" fill="#F48E19"/>
          <path clip-path="url(#clip-573666704)" d="M 6.5100,0.2850 L 6.5100,5.5725 L 6.5250,5.5725 L 6.5250,0.2850 L 6.5100,0.2850 Z" stroke-width="1px" stroke="#F48E1A" fill="#F48E1A"/>
          <path clip-path="url(#clip-573666704)" d="M 6.5250,0.2850 L 6.5250,5.5725 L 6.5475,5.5725 L 6.5475,0.2850 L 6.5250,0.2850 Z" stroke-width="1px" stroke="#F58F1A" fill="#F58F1A"/>
          <path clip-path="url(#clip-573666704)" d="M 6.5475,0.2850 L 6.5475,5.5725 L 6.5625,5.5725 L 6.5625,0.2850 L 6.5475,0.2850 Z" stroke-width="1px" stroke="#F6901A" fill="#F6901A"/>
          <path clip-path="url(#clip-573666704)" d="M 6.5625,0.2850 L 6.5625,5.5725 L 6.5775,5.5725 L 6.5775,0.2850 L 6.5625,0.2850 Z" stroke-width="1px" stroke="#F6911B" fill="#F6911B"/>
          <path clip-path="url(#clip-573666704)" d="M 6.5775,0.2850 L 6.5775,5.5725 L 6.5850,5.5725 L 6.5850,0.2850 L 6.5775,0.2850 Z" stroke-width="1px" stroke="#F7911B" fill="#F7911B"/>
          <path clip-path="url(#clip-573666704)" d="M 6.5850,0.2850 L 6.5850,5.5725 L 6.6000,5.5725 L 6.6000,0.2850 L 6.5850,0.2850 Z" stroke-width="1px" stroke="#F7921B" fill="#F7921B"/>
          <path clip-path="url(#clip-573666704)" d="M 6.6000,0.2850 L 6.6000,5.5725 L 6.6075,5.5725 L 6.6075,0.2850 L 6.6000,0.2850 Z" stroke-width="1px" stroke="#F7931B" fill="#F7931B"/>
          <path clip-path="url(#clip-573666704)" d="M 6.6075,0.2850 L 6.6075,5.5725 L 6.6225,5.5725 L 6.6225,0.2850 L 6.6075,0.2850 Z" stroke-width="1px" stroke="#F8931B" fill="#F8931B"/>
          <path clip-path="url(#clip-573666704)" d="M 6.6225,0.2850 L 6.6225,5.5725 L 6.6300,5.5725 L 6.6300,0.2850 L 6.6225,0.2850 Z" stroke-width="1px" stroke="#F8941C" fill="#F8941C"/>
          <path clip-path="url(#clip-573666704)" d="M 6.6300,0.2850 L 6.6300,5.5725 L 6.6375,5.5725 L 6.6375,0.2850 L 6.6300,0.2850 Z" stroke-width="1px" stroke="#F9941C" fill="#F9941C"/>
          <path clip-path="url(#clip-573666704)" d="M 6.6375,0.2850 L 6.6375,5.5725 L 6.6450,5.5725 L 6.6450,0.2850 L 6.6375,0.2850 Z" stroke-width="1px" stroke="#F9951C" fill="#F9951C"/>
        </g>
        <g transform="matrix(0.0625 0.0000 0.0000 0.0625 0.0000 0.0000)">
          <path d="M 95.1075,88.9950 C 101.2125,88.9950 106.1700,70.1250 106.1700,46.8375 C 106.1700,23.5575 101.2125,4.6800 95.1075,4.6800 C 93.5625,4.7400 92.3400,6.0150 92.3400,7.5600 L 92.3400,7.5600 L 92.3400,86.1225 C 92.3400,87.6675 93.5625,88.9350 95.1075,88.9950 Z " stroke="#F9951C" stroke-width="0.0075" stroke-linecap="round" stroke-linejoin="round" fill="none"/>
        </g>
        <g transform="matrix(1.0000 0.0000 0.0000 1.0000 0.0000 0.0000)">
</g>
        <g transform="matrix(0.0625 0.0000 0.0000 0.0625 0.0000 0.0000)">
          <path d="M 95.1075,88.9950 L 121.1400,90.0375 L 121.1400,3.6375 L 95.1075,4.6800 C 93.5625,4.7400 92.3400,6.0150 92.3400,7.5600 L 92.3400,7.5600 L 92.3400,86.1225 C 92.3400,87.6675 93.5625,88.9350 95.1075,88.9950 Z " stroke="#996600" stroke-width="0.0075" stroke-linecap="round" stroke-linejoin="round" fill="none"/>
        </g>
        <g transform="matrix(1.0000 0.0000 0.0000 1.0000 0.0000 0.0000)">
</g>
        <g transform="matrix(0.0625 0.0000 0.0000 0.0625 0.0000 0.0000)">
          <path d="M 9.2100,49.7175 L 81.7800,49.7175 C 82.7400,49.7175 83.5125,48.9450 83.5125,47.9925 C 83.5125,47.9925 83.5125,47.9925 83.5125,47.9925 L 83.5125,9.3975 C 83.5125,8.4450 82.7400,7.6725 81.7800,7.6725 L 81.7800,7.6725 L 9.2100,7.6725 C 8.2500,7.6725 7.4775,8.4450 7.4775,9.3975 L 7.4775,9.3975 L 7.4775,47.9925 C 7.4775,48.9450 8.2500,49.7175 9.2100,49.7175 Z " fill="#333333" stroke="none"/>
        </g>
        <g transform="matrix(1.0000 0.0000 0.0000 1.0000 0.0000 0.0000)">
</g>
        <g transform="matrix(0.0625 0.0000 0.0000 0.0625 0.0000 0.0000)">
          <path d="M 36.2775,20.9175 C 36.2775,17.7375 33.6975,15.1575 30.5175,15.1575 C 27.3375,15.1575 24.7575,17.7375 24.7575,20.9175 C 24.7575,24.0975 27.3375,26.6775 30.5175,26.6775 C 33.6975,26.6775 36.2775,24.0975 36.2775,20.9175 " fill="#B3B3B3" stroke="none"/>
        </g>
        <g transform="matrix(1.0000 0.0000 0.0000 1.0000 0.0000 0.0000)">
</g>
        <g transform="matrix(0.0625 0.0000 0.0000 0.0625 0.0000 0.0000)">
          <path d="M 36.2775,20.9175 M 36.2775,20.9175 C 36.2775,17.7375 33.6975,15.1575 30.5175,15.1575 C 27.3375,15.1575 24.7575,17.7375 24.7575,20.9175 C 24.7575,24.0975 27.3375,26.6775 30.5175,26.6775 C 33.6975,26.6775 36.2775,24.0975 36.2775,20.9175 " stroke="#A6A6A6" stroke-width="0.0075" stroke-linecap="round" stroke-linejoin="round" fill="none"/>
        </g>
        <g transform="matrix(1.0000 0.0000 0.0000 1.0000 0.0000 0.0000)">
</g>
        <g transform="matrix(0.0625 0.0000 0.0000 0.0625 0.0000 0.0000)">
          <path d="M 67.3800,20.9175 C 67.3800,17.7375 64.8075,15.1575 61.6200,15.1575 C 58.4400,15.1575 55.8600,17.7375 55.8600,20.9175 C 55.8600,24.0975 58.4400,26.6775 61.6200,26.6775 C 64.8075,26.6775 67.3800,24.0975 67.3800,20.9175 " fill="#B3B3B3" stroke="none"/>
        </g>
        <g transform="matrix(1.0000 0.0000 0.0000 1.0000 0.0000 0.0000)">
</g>
        <g transform="matrix(0.0625 0.0000 0.0000 0.0625 0.0000 0.0000)">
          <path d="M 67.3800,20.9175 M 67.3800,20.9175 C 67.3800,17.7375 64.8075,15.1575 61.6200,15.1575 C 58.4400,15.1575 55.8600,17.7375 55.8600,20.9175 C 55.8600,24.0975 58.4400,26.6775 61.6200,26.6775 C 64.8075,26.6775 67.3800,24.0975 67.3800,20.9175 " stroke="#A6A6A6" stroke-width="0.0075" stroke-linecap="round" stroke-linejoin="round" fill="none"/>
        </g>
        <g transform="matrix(1.0000 0.0000 0.0000 1.0000 0.0000 0.0000)">
</g>
        <g transform="matrix(0.0625 0.0000 0.0000 0.0625 0.0000 0.0000)">
          <path d="M 65.4450,33.0075 L 63.7275,33.0075 L 63.7275,31.2900 L 62.7675,31.2900 L 62.7675,33.0075 L 61.0500,33.0075 L 61.0500,31.2900 L 60.0975,31.2900 L 60.0975,33.0075 L 58.3800,33.0075 L 58.3800,31.2900 L 57.4275,31.2900 L 57.4275,33.0075 C 57.0000,33.0075 56.6625,33.3450 56.6625,33.7725 L 56.6625,33.7725 L 54.9450,33.7725 L 54.9450,34.7250 L 56.6625,34.7250 L 56.6625,36.4425 L 54.9450,36.4425 L 54.9450,37.3950 L 56.6625,37.3950 L 56.6625,39.1200 L 54.9450,39.1200 L 54.9450,40.0725 L 56.6625,40.0725 L 56.6625,41.7900 L 54.9450,41.7900 L 54.9450,42.7425 L 56.6625,42.7425 C 56.6625,43.1625 57.0000,43.5075 57.4275,43.5075 L 57.4275,45.2250 L 58.3800,45.2250 L 58.3800,43.5075 L 60.0975,43.5075 L 60.0975,45.2250 L 61.0500,45.2250 L 61.0500,43.5075 L 62.7675,43.5075 L 62.7675,45.2250 L 63.7275,45.2250 L 63.7275,43.5075 L 65.4450,43.5075 L 65.4450,45.2250 L 66.3975,45.2250 L 66.3975,43.5075 C 66.8175,43.5075 67.1625,43.1625 67.1625,42.7425 C 67.1625,42.7425 67.1625,42.7425 67.1625,42.7425 L 68.8800,42.7425 L 68.8800,41.7900 L 67.1625,41.7900 L 67.1625,40.0725 L 68.8800,40.0725 L 68.8800,39.1200 L 67.1625,39.1200 L 67.1625,37.3950 L 68.8800,37.3950 L 68.8800,36.4425 L 67.1625,36.4425 L 67.1625,34.7250 L 68.8800,34.7250 L 68.8800,33.7725 L 67.1625,33.7725 C 67.1625,33.3450 66.8175,33.0075 66.3975,33.0075 L 66.3975,31.2900 L 65.4450,31.2900 L 65.4450,33.0075 Z M 30.0150,41.7825 L 31.1475,41.7825 L 31.6575,34.1550 L 31.6575,30.9600 L 29.4750,30.9600 L 29.4750,34.1550 L 30.0150,41.7825 Z M 29.5500,45.3525 L 31.5825,45.3525 L 31.5825,43.3425 L 29.5500,43.3425 L 29.5500,45.3525 Z " fill="#D9D9D9" stroke="none"/>
        </g>
        <g transform="matrix(1.0000 0.0000 0.0000 1.0000 0.0000 0.0000)">
          <text font-family="Kalinga" fill="#333333" style="white-space:pre;" font-weight="700" text-anchor="start" x="3.6000" y="2.5425" font-size="0.4200"><![CDATA[NV]]></text>
        </g>
      </g>
      <!--emf-blob end-->
    </g>
  </g>
</svg>
