<svg xmlns="http://www.w3.org/2000/svg" xmlns:xlink="http://www.w3.org/1999/xlink" version="1.1" width="3.8880000000" height="2.8800000000">
  <title><![CDATA[FAS Fibre SFP]]></title>
  <g transform=" scale(1.000000) ">
    <!--converted by libvisio2svg-->
    <g transform=" translate(0.048500,-0.196700) ">
      <!--emf-blob start-->
      <g transform="translate(-0.0000, -0.0000)">
        <g transform="matrix(0.0625 0.0000 0.0000 0.0625 0.0000 0.0000)">
          <path d="M 0.1799,45.2149 L 0.1799,54.4797 L 60.6563,54.4797 L 60.6563,45.2149 L 0.1799,45.2149 Z" stroke-width="1px" stroke="#9A9A9A" fill="#9A9A9A"/>
        </g>
        <g transform="matrix(1.0000 0.0000 0.0000 1.0000 0.0000 0.0000)">
</g>
        <g transform="matrix(0.0625 0.0000 0.0000 0.0625 0.0000 0.0000)">
          <path d="M 60.6563,54.4797 L 60.6563,45.2149 L 0.1799,45.2149 L 0.1799,54.4797 L 60.6563,54.4797 Z" stroke="#808080" stroke-width="0.0075" stroke-linecap="round" stroke-linejoin="round" fill="none"/>
        </g>
        <g transform="matrix(1.0000 0.0000 0.0000 1.0000 0.0000 0.0000)">
          <path d="M 3.7929,3.2907 C 3.7929,3.2232 3.7404,3.1707 3.6805,3.1707 L 0.1349,3.1707 C 0.0675,3.1707 0.0150,3.2232 0.0150,3.2907 C 0.0150,3.3581 0.0675,3.4106 0.1349,3.4106 L 0.1349,3.4106 L 3.6805,3.4106 C 3.7404,3.4106 3.7929,3.3581 3.7929,3.2907 C 3.7929,3.2907 3.7929,3.2907 3.7929,3.2907 Z " fill="none" stroke="none"/>
          <defs>
            <clipPath id="clip-1828585542">
              <path d="M 3.7929,3.2907 C 3.7929,3.2232 3.7404,3.1707 3.6805,3.1707 L 0.1349,3.1707 C 0.0675,3.1707 0.0150,3.2232 0.0150,3.2907 C 0.0150,3.3581 0.0675,3.4106 0.1349,3.4106 L 0.1349,3.4106 L 3.6805,3.4106 C 3.7404,3.4106 3.7929,3.3581 3.7929,3.2907 C 3.7929,3.2907 3.7929,3.2907 3.7929,3.2907 Z"/>
            </clipPath>
          </defs>
          <path clip-path="url(#clip-1828585542)" d="M 0.0000,3.1632 L 0.0000,3.1707 L 3.8004,3.1707 L 3.8004,3.1632 L 0.0000,3.1632 Z" stroke-width="1px" stroke="#CCD3D7" fill="#CCD3D7"/>
          <path clip-path="url(#clip-1828585542)" d="M 0.0000,3.1707 L 0.0000,3.1782 L 3.8004,3.1782 L 3.8004,3.1707 L 0.0000,3.1707 Z" stroke-width="1px" stroke="#CDD4D8" fill="#CDD4D8"/>
          <path clip-path="url(#clip-1828585542)" d="M 0.0000,3.1782 L 0.0000,3.1857 L 3.8004,3.1857 L 3.8004,3.1782 L 0.0000,3.1782 Z" stroke-width="1px" stroke="#CED5D9" fill="#CED5D9"/>
          <path clip-path="url(#clip-1828585542)" d="M 0.0000,3.1857 L 0.0000,3.1932 L 3.8004,3.1932 L 3.8004,3.1857 L 0.0000,3.1857 Z" stroke-width="1px" stroke="#CFD6DA" fill="#CFD6DA"/>
          <path clip-path="url(#clip-1828585542)" d="M 0.0000,3.1932 L 0.0000,3.2007 L 3.8004,3.2007 L 3.8004,3.1932 L 0.0000,3.1932 Z" stroke-width="1px" stroke="#D1D7DB" fill="#D1D7DB"/>
          <path clip-path="url(#clip-1828585542)" d="M 0.0000,3.2007 L 0.0000,3.2082 L 3.8004,3.2082 L 3.8004,3.2007 L 0.0000,3.2007 Z" stroke-width="1px" stroke="#D2D8DC" fill="#D2D8DC"/>
          <path clip-path="url(#clip-1828585542)" d="M 0.0000,3.2082 L 0.0000,3.2157 L 3.8004,3.2157 L 3.8004,3.2082 L 0.0000,3.2082 Z" stroke-width="1px" stroke="#D3D9DD" fill="#D3D9DD"/>
          <path clip-path="url(#clip-1828585542)" d="M 0.0000,3.2157 L 0.0000,3.2232 L 3.8004,3.2232 L 3.8004,3.2157 L 0.0000,3.2157 Z" stroke-width="1px" stroke="#D4DADE" fill="#D4DADE"/>
          <path clip-path="url(#clip-1828585542)" d="M 0.0000,3.2232 L 0.0000,3.2307 L 3.8004,3.2307 L 3.8004,3.2232 L 0.0000,3.2232 Z" stroke-width="1px" stroke="#D6DBDF" fill="#D6DBDF"/>
          <path clip-path="url(#clip-1828585542)" d="M 0.0000,3.2307 L 0.0000,3.2382 L 3.8004,3.2382 L 3.8004,3.2307 L 0.0000,3.2307 Z" stroke-width="1px" stroke="#D7DCDF" fill="#D7DCDF"/>
          <path clip-path="url(#clip-1828585542)" d="M 0.0000,3.2382 L 0.0000,3.2457 L 3.8004,3.2457 L 3.8004,3.2382 L 0.0000,3.2382 Z" stroke-width="1px" stroke="#D8DDE0" fill="#D8DDE0"/>
          <path clip-path="url(#clip-1828585542)" d="M 0.0000,3.2457 L 0.0000,3.2532 L 3.8004,3.2532 L 3.8004,3.2457 L 0.0000,3.2457 Z" stroke-width="1px" stroke="#D9DEE1" fill="#D9DEE1"/>
          <path clip-path="url(#clip-1828585542)" d="M 0.0000,3.2532 L 0.0000,3.2607 L 3.8004,3.2607 L 3.8004,3.2532 L 0.0000,3.2532 Z" stroke-width="1px" stroke="#DADFE2" fill="#DADFE2"/>
          <path clip-path="url(#clip-1828585542)" d="M 0.0000,3.2607 L 0.0000,3.2682 L 3.8004,3.2682 L 3.8004,3.2607 L 0.0000,3.2607 Z" stroke-width="1px" stroke="#DBE0E3" fill="#DBE0E3"/>
          <path clip-path="url(#clip-1828585542)" d="M 0.0000,3.2682 L 0.0000,3.2757 L 3.8004,3.2757 L 3.8004,3.2682 L 0.0000,3.2682 Z" stroke-width="1px" stroke="#DCE1E4" fill="#DCE1E4"/>
          <path clip-path="url(#clip-1828585542)" d="M 0.0000,3.2757 L 0.0000,3.2832 L 3.8004,3.2832 L 3.8004,3.2757 L 0.0000,3.2757 Z" stroke-width="1px" stroke="#DDE1E4" fill="#DDE1E4"/>
          <path clip-path="url(#clip-1828585542)" d="M 0.0000,3.2832 L 0.0000,3.2907 L 3.8004,3.2907 L 3.8004,3.2832 L 0.0000,3.2832 Z" stroke-width="1px" stroke="#DEE2E5" fill="#DEE2E5"/>
          <path clip-path="url(#clip-1828585542)" d="M 0.0000,3.2907 L 0.0000,3.2982 L 3.8004,3.2982 L 3.8004,3.2907 L 0.0000,3.2907 Z" stroke-width="1px" stroke="#DFE3E6" fill="#DFE3E6"/>
          <path clip-path="url(#clip-1828585542)" d="M 0.0000,3.2982 L 0.0000,3.3057 L 3.8004,3.3057 L 3.8004,3.2982 L 0.0000,3.2982 Z" stroke-width="1px" stroke="#DEE2E5" fill="#DEE2E5"/>
          <path clip-path="url(#clip-1828585542)" d="M 0.0000,3.3057 L 0.0000,3.3132 L 3.8004,3.3132 L 3.8004,3.3057 L 0.0000,3.3057 Z" stroke-width="1px" stroke="#DDE1E4" fill="#DDE1E4"/>
          <path clip-path="url(#clip-1828585542)" d="M 0.0000,3.3132 L 0.0000,3.3207 L 3.8004,3.3207 L 3.8004,3.3132 L 0.0000,3.3132 Z" stroke-width="1px" stroke="#DBE0E3" fill="#DBE0E3"/>
          <path clip-path="url(#clip-1828585542)" d="M 0.0000,3.3207 L 0.0000,3.3281 L 3.8004,3.3281 L 3.8004,3.3207 L 0.0000,3.3207 Z" stroke-width="1px" stroke="#DADFE2" fill="#DADFE2"/>
          <path clip-path="url(#clip-1828585542)" d="M 0.0000,3.3281 L 0.0000,3.3356 L 3.8004,3.3356 L 3.8004,3.3281 L 0.0000,3.3281 Z" stroke-width="1px" stroke="#D9DEE1" fill="#D9DEE1"/>
          <path clip-path="url(#clip-1828585542)" d="M 0.0000,3.3356 L 0.0000,3.3431 L 3.8004,3.3431 L 3.8004,3.3356 L 0.0000,3.3356 Z" stroke-width="1px" stroke="#D8DDE0" fill="#D8DDE0"/>
          <path clip-path="url(#clip-1828585542)" d="M 0.0000,3.3431 L 0.0000,3.3506 L 3.8004,3.3506 L 3.8004,3.3431 L 0.0000,3.3431 Z" stroke-width="1px" stroke="#D7DCDF" fill="#D7DCDF"/>
          <path clip-path="url(#clip-1828585542)" d="M 0.0000,3.3506 L 0.0000,3.3581 L 3.8004,3.3581 L 3.8004,3.3506 L 0.0000,3.3506 Z" stroke-width="1px" stroke="#D6DBDF" fill="#D6DBDF"/>
          <path clip-path="url(#clip-1828585542)" d="M 0.0000,3.3581 L 0.0000,3.3656 L 3.8004,3.3656 L 3.8004,3.3581 L 0.0000,3.3581 Z" stroke-width="1px" stroke="#D4DADE" fill="#D4DADE"/>
          <path clip-path="url(#clip-1828585542)" d="M 0.0000,3.3656 L 0.0000,3.3731 L 3.8004,3.3731 L 3.8004,3.3656 L 0.0000,3.3656 Z" stroke-width="1px" stroke="#D3D9DD" fill="#D3D9DD"/>
          <path clip-path="url(#clip-1828585542)" d="M 0.0000,3.3731 L 0.0000,3.3806 L 3.8004,3.3806 L 3.8004,3.3731 L 0.0000,3.3731 Z" stroke-width="1px" stroke="#D2D8DC" fill="#D2D8DC"/>
          <path clip-path="url(#clip-1828585542)" d="M 0.0000,3.3806 L 0.0000,3.3881 L 3.8004,3.3881 L 3.8004,3.3806 L 0.0000,3.3806 Z" stroke-width="1px" stroke="#D1D7DB" fill="#D1D7DB"/>
          <path clip-path="url(#clip-1828585542)" d="M 0.0000,3.3881 L 0.0000,3.3956 L 3.8004,3.3956 L 3.8004,3.3881 L 0.0000,3.3881 Z" stroke-width="1px" stroke="#D0D6DA" fill="#D0D6DA"/>
          <path clip-path="url(#clip-1828585542)" d="M 0.0000,3.3956 L 0.0000,3.4031 L 3.8004,3.4031 L 3.8004,3.3956 L 0.0000,3.3956 Z" stroke-width="1px" stroke="#CED5D9" fill="#CED5D9"/>
          <path clip-path="url(#clip-1828585542)" d="M 0.0000,3.4031 L 0.0000,3.4106 L 3.8004,3.4106 L 3.8004,3.4031 L 0.0000,3.4031 Z" stroke-width="1px" stroke="#CDD4D8" fill="#CDD4D8"/>
          <path clip-path="url(#clip-1828585542)" d="M 0.0000,3.4106 L 0.0000,3.4181 L 3.8004,3.4181 L 3.8004,3.4106 L 0.0000,3.4106 Z" stroke-width="1px" stroke="#CCD3D7" fill="#CCD3D7"/>
        </g>
        <g transform="matrix(0.0625 0.0000 0.0000 0.0625 0.0000 0.0000)">
          <path d="M 60.6563,52.6058 C 60.6563,51.5713 59.8093,50.7318 58.7748,50.7318 L 2.0614,50.7318 C 1.0269,50.7318 0.1799,51.5713 0.1799,52.6058 C 0.1799,53.6402 1.0269,54.4797 2.0614,54.4797 L 2.0614,54.4797 L 58.7748,54.4797 C 59.8093,54.4797 60.6563,53.6402 60.6563,52.6058 C 60.6563,52.6058 60.6563,52.6058 60.6563,52.6058 Z " stroke="#A0B0B6" stroke-width="0.0075" stroke-linecap="round" stroke-linejoin="round" fill="none"/>
        </g>
        <g transform="matrix(1.0000 0.0000 0.0000 1.0000 0.0000 0.0000)">
</g>
        <g transform="matrix(0.0625 0.0000 0.0000 0.0625 0.0000 0.0000)">
          <path d="M 36.5947,15.4114 L 0.1799,15.4114 L 0.1799,45.2149 L 9.0100,45.2149 L 9.0100,54.4797 L 51.8262,54.4797 L 51.8262,45.2149 L 60.6563,45.2149 L 60.6563,15.4114 L 36.5947,15.4114 Z" stroke-width="1px" stroke="#D9D9D9" fill="#D9D9D9"/>
        </g>
        <g transform="matrix(1.0000 0.0000 0.0000 1.0000 0.0000 0.0000)">
</g>
        <g transform="matrix(0.0625 0.0000 0.0000 0.0625 0.0000 0.0000)">
          <path d="M 36.5947,15.4114 L 0.1799,15.4114 L 0.1799,45.2149 L 9.0100,45.2149 L 9.0100,54.4797 L 51.8262,54.4797 L 51.8262,45.2149 L 60.6563,45.2149 L 60.6563,15.4114 L 36.5947,15.4114 Z" stroke="#A6A6A6" stroke-width="0.0075" stroke-linecap="round" stroke-linejoin="round" fill="none"/>
        </g>
        <g transform="matrix(1.0000 0.0000 0.0000 1.0000 0.0000 0.0000)">
          <defs>
            <clipPath id="clip-464661174">
              <path d="M 0.0150,0.4273 L 3.7929,0.4273 L 3.7929,0.9670 L 0.0150,0.9670 L 0.0150,0.4273 Z Z"/>
            </clipPath>
          </defs>
          <path clip-path="url(#clip-464661174)" d="M 0.0000,0.4123 L 0.0000,0.4198 L 3.8004,0.4198 L 3.8004,0.4123 L 0.0000,0.4123 Z" stroke-width="1px" stroke="#E6E6E6" fill="#E6E6E6"/>
          <path clip-path="url(#clip-464661174)" d="M 0.0000,0.4198 L 0.0000,0.4273 L 3.8004,0.4273 L 3.8004,0.4198 L 0.0000,0.4198 Z" stroke-width="1px" stroke="#B3B3B3" fill="#B3B3B3"/>
          <path clip-path="url(#clip-464661174)" d="M 0.0000,0.4273 L 0.0000,0.4348 L 3.8004,0.4348 L 3.8004,0.4273 L 0.0000,0.4273 Z" stroke-width="1px" stroke="#B4B4B4" fill="#B4B4B4"/>
          <path clip-path="url(#clip-464661174)" d="M 0.0000,0.4348 L 0.0000,0.4497 L 3.8004,0.4497 L 3.8004,0.4348 L 0.0000,0.4348 Z" stroke-width="1px" stroke="#B5B5B5" fill="#B5B5B5"/>
          <path clip-path="url(#clip-464661174)" d="M 0.0000,0.4497 L 0.0000,0.4647 L 3.8004,0.4647 L 3.8004,0.4497 L 0.0000,0.4497 Z" stroke-width="1px" stroke="#B6B6B6" fill="#B6B6B6"/>
          <path clip-path="url(#clip-464661174)" d="M 0.0000,0.4647 L 0.0000,0.4722 L 3.8004,0.4722 L 3.8004,0.4647 L 0.0000,0.4647 Z" stroke-width="1px" stroke="#B7B7B7" fill="#B7B7B7"/>
          <path clip-path="url(#clip-464661174)" d="M 0.0000,0.4722 L 0.0000,0.4872 L 3.8004,0.4872 L 3.8004,0.4722 L 0.0000,0.4722 Z" stroke-width="1px" stroke="#B8B8B8" fill="#B8B8B8"/>
          <path clip-path="url(#clip-464661174)" d="M 0.0000,0.4872 L 0.0000,0.4947 L 3.8004,0.4947 L 3.8004,0.4872 L 0.0000,0.4872 Z" stroke-width="1px" stroke="#B9B9B9" fill="#B9B9B9"/>
          <path clip-path="url(#clip-464661174)" d="M 0.0000,0.4947 L 0.0000,0.5022 L 3.8004,0.5022 L 3.8004,0.4947 L 0.0000,0.4947 Z" stroke-width="1px" stroke="#BABABA" fill="#BABABA"/>
          <path clip-path="url(#clip-464661174)" d="M 0.0000,0.5022 L 0.0000,0.5097 L 3.8004,0.5097 L 3.8004,0.5022 L 0.0000,0.5022 Z" stroke-width="1px" stroke="#BBBBBB" fill="#BBBBBB"/>
          <path clip-path="url(#clip-464661174)" d="M 0.0000,0.5097 L 0.0000,0.5172 L 3.8004,0.5172 L 3.8004,0.5097 L 0.0000,0.5097 Z" stroke-width="1px" stroke="#BCBCBC" fill="#BCBCBC"/>
          <path clip-path="url(#clip-464661174)" d="M 0.0000,0.5172 L 0.0000,0.5322 L 3.8004,0.5322 L 3.8004,0.5172 L 0.0000,0.5172 Z" stroke-width="1px" stroke="#BDBDBD" fill="#BDBDBD"/>
          <path clip-path="url(#clip-464661174)" d="M 0.0000,0.5322 L 0.0000,0.5397 L 3.8004,0.5397 L 3.8004,0.5322 L 0.0000,0.5322 Z" stroke-width="1px" stroke="#BEBEBE" fill="#BEBEBE"/>
          <path clip-path="url(#clip-464661174)" d="M 0.0000,0.5397 L 0.0000,0.5547 L 3.8004,0.5547 L 3.8004,0.5397 L 0.0000,0.5397 Z" stroke-width="1px" stroke="#BFBFBF" fill="#BFBFBF"/>
          <path clip-path="url(#clip-464661174)" d="M 0.0000,0.5547 L 0.0000,0.5622 L 3.8004,0.5622 L 3.8004,0.5547 L 0.0000,0.5547 Z" stroke-width="1px" stroke="#C0C0C0" fill="#C0C0C0"/>
          <path clip-path="url(#clip-464661174)" d="M 0.0000,0.5622 L 0.0000,0.5772 L 3.8004,0.5772 L 3.8004,0.5622 L 0.0000,0.5622 Z" stroke-width="1px" stroke="#C1C1C1" fill="#C1C1C1"/>
          <path clip-path="url(#clip-464661174)" d="M 0.0000,0.5772 L 0.0000,0.5847 L 3.8004,0.5847 L 3.8004,0.5772 L 0.0000,0.5772 Z" stroke-width="1px" stroke="#C2C2C2" fill="#C2C2C2"/>
          <path clip-path="url(#clip-464661174)" d="M 0.0000,0.5847 L 0.0000,0.5997 L 3.8004,0.5997 L 3.8004,0.5847 L 0.0000,0.5847 Z" stroke-width="1px" stroke="#C3C3C3" fill="#C3C3C3"/>
          <path clip-path="url(#clip-464661174)" d="M 0.0000,0.5997 L 0.0000,0.6147 L 3.8004,0.6147 L 3.8004,0.5997 L 0.0000,0.5997 Z" stroke-width="1px" stroke="#C4C4C4" fill="#C4C4C4"/>
          <path clip-path="url(#clip-464661174)" d="M 0.0000,0.6147 L 0.0000,0.6222 L 3.8004,0.6222 L 3.8004,0.6147 L 0.0000,0.6147 Z" stroke-width="1px" stroke="#C5C5C5" fill="#C5C5C5"/>
          <path clip-path="url(#clip-464661174)" d="M 0.0000,0.6222 L 0.0000,0.6371 L 3.8004,0.6371 L 3.8004,0.6222 L 0.0000,0.6222 Z" stroke-width="1px" stroke="#C6C6C6" fill="#C6C6C6"/>
          <path clip-path="url(#clip-464661174)" d="M 0.0000,0.6371 L 0.0000,0.6446 L 3.8004,0.6446 L 3.8004,0.6371 L 0.0000,0.6371 Z" stroke-width="1px" stroke="#C7C7C7" fill="#C7C7C7"/>
          <path clip-path="url(#clip-464661174)" d="M 0.0000,0.6446 L 0.0000,0.6596 L 3.8004,0.6596 L 3.8004,0.6446 L 0.0000,0.6446 Z" stroke-width="1px" stroke="#C8C8C8" fill="#C8C8C8"/>
          <path clip-path="url(#clip-464661174)" d="M 0.0000,0.6596 L 0.0000,0.6671 L 3.8004,0.6671 L 3.8004,0.6596 L 0.0000,0.6596 Z" stroke-width="1px" stroke="#C9C9C9" fill="#C9C9C9"/>
          <path clip-path="url(#clip-464661174)" d="M 0.0000,0.6671 L 0.0000,0.6746 L 3.8004,0.6746 L 3.8004,0.6671 L 0.0000,0.6671 Z" stroke-width="1px" stroke="#CACACA" fill="#CACACA"/>
          <path clip-path="url(#clip-464661174)" d="M 0.0000,0.6746 L 0.0000,0.6821 L 3.8004,0.6821 L 3.8004,0.6746 L 0.0000,0.6746 Z" stroke-width="1px" stroke="#CBCBCB" fill="#CBCBCB"/>
          <path clip-path="url(#clip-464661174)" d="M 0.0000,0.6821 L 0.0000,0.6971 L 3.8004,0.6971 L 3.8004,0.6821 L 0.0000,0.6821 Z" stroke-width="1px" stroke="#CCCCCC" fill="#CCCCCC"/>
          <path clip-path="url(#clip-464661174)" d="M 0.0000,0.6971 L 0.0000,0.7046 L 3.8004,0.7046 L 3.8004,0.6971 L 0.0000,0.6971 Z" stroke-width="1px" stroke="#CDCDCD" fill="#CDCDCD"/>
          <path clip-path="url(#clip-464661174)" d="M 0.0000,0.7046 L 0.0000,0.7121 L 3.8004,0.7121 L 3.8004,0.7046 L 0.0000,0.7046 Z" stroke-width="1px" stroke="#CECECE" fill="#CECECE"/>
          <path clip-path="url(#clip-464661174)" d="M 0.0000,0.7121 L 0.0000,0.7271 L 3.8004,0.7271 L 3.8004,0.7121 L 0.0000,0.7121 Z" stroke-width="1px" stroke="#CFCFCF" fill="#CFCFCF"/>
          <path clip-path="url(#clip-464661174)" d="M 0.0000,0.7271 L 0.0000,0.7346 L 3.8004,0.7346 L 3.8004,0.7271 L 0.0000,0.7271 Z" stroke-width="1px" stroke="#D0D0D0" fill="#D0D0D0"/>
          <path clip-path="url(#clip-464661174)" d="M 0.0000,0.7346 L 0.0000,0.7496 L 3.8004,0.7496 L 3.8004,0.7346 L 0.0000,0.7346 Z" stroke-width="1px" stroke="#D1D1D1" fill="#D1D1D1"/>
          <path clip-path="url(#clip-464661174)" d="M 0.0000,0.7496 L 0.0000,0.7646 L 3.8004,0.7646 L 3.8004,0.7496 L 0.0000,0.7496 Z" stroke-width="1px" stroke="#D2D2D2" fill="#D2D2D2"/>
          <path clip-path="url(#clip-464661174)" d="M 0.0000,0.7646 L 0.0000,0.7721 L 3.8004,0.7721 L 3.8004,0.7646 L 0.0000,0.7646 Z" stroke-width="1px" stroke="#D3D3D3" fill="#D3D3D3"/>
          <path clip-path="url(#clip-464661174)" d="M 0.0000,0.7721 L 0.0000,0.7871 L 3.8004,0.7871 L 3.8004,0.7721 L 0.0000,0.7721 Z" stroke-width="1px" stroke="#D4D4D4" fill="#D4D4D4"/>
          <path clip-path="url(#clip-464661174)" d="M 0.0000,0.7871 L 0.0000,0.7946 L 3.8004,0.7946 L 3.8004,0.7871 L 0.0000,0.7871 Z" stroke-width="1px" stroke="#D5D5D5" fill="#D5D5D5"/>
          <path clip-path="url(#clip-464661174)" d="M 0.0000,0.7946 L 0.0000,0.8095 L 3.8004,0.8095 L 3.8004,0.7946 L 0.0000,0.7946 Z" stroke-width="1px" stroke="#D6D6D6" fill="#D6D6D6"/>
          <path clip-path="url(#clip-464661174)" d="M 0.0000,0.8095 L 0.0000,0.8170 L 3.8004,0.8170 L 3.8004,0.8095 L 0.0000,0.8095 Z" stroke-width="1px" stroke="#D7D7D7" fill="#D7D7D7"/>
          <path clip-path="url(#clip-464661174)" d="M 0.0000,0.8170 L 0.0000,0.8320 L 3.8004,0.8320 L 3.8004,0.8170 L 0.0000,0.8170 Z" stroke-width="1px" stroke="#D8D8D8" fill="#D8D8D8"/>
          <path clip-path="url(#clip-464661174)" d="M 0.0000,0.8320 L 0.0000,0.8395 L 3.8004,0.8395 L 3.8004,0.8320 L 0.0000,0.8320 Z" stroke-width="1px" stroke="#D9D9D9" fill="#D9D9D9"/>
          <path clip-path="url(#clip-464661174)" d="M 0.0000,0.8395 L 0.0000,0.8545 L 3.8004,0.8545 L 3.8004,0.8395 L 0.0000,0.8395 Z" stroke-width="1px" stroke="#DADADA" fill="#DADADA"/>
          <path clip-path="url(#clip-464661174)" d="M 0.0000,0.8545 L 0.0000,0.8620 L 3.8004,0.8620 L 3.8004,0.8545 L 0.0000,0.8545 Z" stroke-width="1px" stroke="#DBDBDB" fill="#DBDBDB"/>
          <path clip-path="url(#clip-464661174)" d="M 0.0000,0.8620 L 0.0000,0.8770 L 3.8004,0.8770 L 3.8004,0.8620 L 0.0000,0.8620 Z" stroke-width="1px" stroke="#DCDCDC" fill="#DCDCDC"/>
          <path clip-path="url(#clip-464661174)" d="M 0.0000,0.8770 L 0.0000,0.8845 L 3.8004,0.8845 L 3.8004,0.8770 L 0.0000,0.8770 Z" stroke-width="1px" stroke="#DDDDDD" fill="#DDDDDD"/>
          <path clip-path="url(#clip-464661174)" d="M 0.0000,0.8845 L 0.0000,0.8920 L 3.8004,0.8920 L 3.8004,0.8845 L 0.0000,0.8845 Z" stroke-width="1px" stroke="#DEDEDE" fill="#DEDEDE"/>
          <path clip-path="url(#clip-464661174)" d="M 0.0000,0.8920 L 0.0000,0.8995 L 3.8004,0.8995 L 3.8004,0.8920 L 0.0000,0.8920 Z" stroke-width="1px" stroke="#DFDFDF" fill="#DFDFDF"/>
          <path clip-path="url(#clip-464661174)" d="M 0.0000,0.8995 L 0.0000,0.9145 L 3.8004,0.9145 L 3.8004,0.8995 L 0.0000,0.8995 Z" stroke-width="1px" stroke="#E0E0E0" fill="#E0E0E0"/>
          <path clip-path="url(#clip-464661174)" d="M 0.0000,0.9145 L 0.0000,0.9220 L 3.8004,0.9220 L 3.8004,0.9145 L 0.0000,0.9145 Z" stroke-width="1px" stroke="#E1E1E1" fill="#E1E1E1"/>
          <path clip-path="url(#clip-464661174)" d="M 0.0000,0.9220 L 0.0000,0.9370 L 3.8004,0.9370 L 3.8004,0.9220 L 0.0000,0.9220 Z" stroke-width="1px" stroke="#E2E2E2" fill="#E2E2E2"/>
          <path clip-path="url(#clip-464661174)" d="M 0.0000,0.9370 L 0.0000,0.9445 L 3.8004,0.9445 L 3.8004,0.9370 L 0.0000,0.9370 Z" stroke-width="1px" stroke="#E3E3E3" fill="#E3E3E3"/>
          <path clip-path="url(#clip-464661174)" d="M 0.0000,0.9445 L 0.0000,0.9595 L 3.8004,0.9595 L 3.8004,0.9445 L 0.0000,0.9445 Z" stroke-width="1px" stroke="#E4E4E4" fill="#E4E4E4"/>
          <path clip-path="url(#clip-464661174)" d="M 0.0000,0.9595 L 0.0000,0.9670 L 3.8004,0.9670 L 3.8004,0.9595 L 0.0000,0.9595 Z" stroke-width="1px" stroke="#E5E5E5" fill="#E5E5E5"/>
        </g>
        <g transform="matrix(0.0625 0.0000 0.0000 0.0625 0.0000 0.0000)">
          <path d="M 0.1799,15.4189 L 60.6563,15.4189 L 60.6563,6.8062 L 0.1799,6.8062 L 0.1799,15.4189 Z" stroke="#A6A6A6" stroke-width="0.0075" stroke-linecap="round" stroke-linejoin="round" fill="none"/>
        </g>
        <g transform="matrix(1.0000 0.0000 0.0000 1.0000 0.0000 0.0000)">
          <path d="M 3.7929,0.2249 C 3.7929,0.1574 3.7404,0.1049 3.6805,0.1049 L 3.6805,0.1049 L 0.1349,0.1049 C 0.0675,0.1049 0.0150,0.1574 0.0150,0.2249 C 0.0150,0.2848 0.0675,0.3373 0.1349,0.3373 L 0.1349,0.3373 L 3.6805,0.3373 C 3.7404,0.3373 3.7929,0.2848 3.7929,0.2249 C 3.7929,0.2249 3.7929,0.2249 3.7929,0.2249 Z " fill="none" stroke="none"/>
          <defs>
            <clipPath id="clip-209331367">
              <path d="M 3.7929,0.2249 C 3.7929,0.1574 3.7404,0.1049 3.6805,0.1049 L 3.6805,0.1049 L 0.1349,0.1049 C 0.0675,0.1049 0.0150,0.1574 0.0150,0.2249 C 0.0150,0.2848 0.0675,0.3373 0.1349,0.3373 L 0.1349,0.3373 L 3.6805,0.3373 C 3.7404,0.3373 3.7929,0.2848 3.7929,0.2249 C 3.7929,0.2249 3.7929,0.2249 3.7929,0.2249 Z"/>
            </clipPath>
          </defs>
          <path clip-path="url(#clip-209331367)" d="M 0.0000,0.0900 L 0.0000,0.0974 L 3.8004,0.0974 L 3.8004,0.0900 L 0.0000,0.0900 Z" stroke-width="1px" stroke="#CCD3D7" fill="#CCD3D7"/>
          <path clip-path="url(#clip-209331367)" d="M 0.0000,0.0974 L 0.0000,0.1124 L 3.8004,0.1124 L 3.8004,0.0974 L 0.0000,0.0974 Z" stroke-width="1px" stroke="#CDD4D8" fill="#CDD4D8"/>
          <path clip-path="url(#clip-209331367)" d="M 0.0000,0.1124 L 0.0000,0.1199 L 3.8004,0.1199 L 3.8004,0.1124 L 0.0000,0.1124 Z" stroke-width="1px" stroke="#CFD5D9" fill="#CFD5D9"/>
          <path clip-path="url(#clip-209331367)" d="M 0.0000,0.1199 L 0.0000,0.1274 L 3.8004,0.1274 L 3.8004,0.1199 L 0.0000,0.1199 Z" stroke-width="1px" stroke="#D0D6DA" fill="#D0D6DA"/>
          <path clip-path="url(#clip-209331367)" d="M 0.0000,0.1274 L 0.0000,0.1349 L 3.8004,0.1349 L 3.8004,0.1274 L 0.0000,0.1274 Z" stroke-width="1px" stroke="#D1D7DB" fill="#D1D7DB"/>
          <path clip-path="url(#clip-209331367)" d="M 0.0000,0.1349 L 0.0000,0.1424 L 3.8004,0.1424 L 3.8004,0.1349 L 0.0000,0.1349 Z" stroke-width="1px" stroke="#D2D8DC" fill="#D2D8DC"/>
          <path clip-path="url(#clip-209331367)" d="M 0.0000,0.1424 L 0.0000,0.1499 L 3.8004,0.1499 L 3.8004,0.1424 L 0.0000,0.1424 Z" stroke-width="1px" stroke="#D3D9DD" fill="#D3D9DD"/>
          <path clip-path="url(#clip-209331367)" d="M 0.0000,0.1499 L 0.0000,0.1574 L 3.8004,0.1574 L 3.8004,0.1499 L 0.0000,0.1499 Z" stroke-width="1px" stroke="#D5DADE" fill="#D5DADE"/>
          <path clip-path="url(#clip-209331367)" d="M 0.0000,0.1574 L 0.0000,0.1649 L 3.8004,0.1649 L 3.8004,0.1574 L 0.0000,0.1574 Z" stroke-width="1px" stroke="#D6DBDF" fill="#D6DBDF"/>
          <path clip-path="url(#clip-209331367)" d="M 0.0000,0.1649 L 0.0000,0.1724 L 3.8004,0.1724 L 3.8004,0.1649 L 0.0000,0.1649 Z" stroke-width="1px" stroke="#D7DCE0" fill="#D7DCE0"/>
          <path clip-path="url(#clip-209331367)" d="M 0.0000,0.1724 L 0.0000,0.1799 L 3.8004,0.1799 L 3.8004,0.1724 L 0.0000,0.1724 Z" stroke-width="1px" stroke="#D8DDE0" fill="#D8DDE0"/>
          <path clip-path="url(#clip-209331367)" d="M 0.0000,0.1799 L 0.0000,0.1874 L 3.8004,0.1874 L 3.8004,0.1799 L 0.0000,0.1799 Z" stroke-width="1px" stroke="#D9DEE1" fill="#D9DEE1"/>
          <path clip-path="url(#clip-209331367)" d="M 0.0000,0.1874 L 0.0000,0.1949 L 3.8004,0.1949 L 3.8004,0.1874 L 0.0000,0.1874 Z" stroke-width="1px" stroke="#DADFE2" fill="#DADFE2"/>
          <path clip-path="url(#clip-209331367)" d="M 0.0000,0.1949 L 0.0000,0.2024 L 3.8004,0.2024 L 3.8004,0.1949 L 0.0000,0.1949 Z" stroke-width="1px" stroke="#DCE0E3" fill="#DCE0E3"/>
          <path clip-path="url(#clip-209331367)" d="M 0.0000,0.2024 L 0.0000,0.2099 L 3.8004,0.2099 L 3.8004,0.2024 L 0.0000,0.2024 Z" stroke-width="1px" stroke="#DDE1E4" fill="#DDE1E4"/>
          <path clip-path="url(#clip-209331367)" d="M 0.0000,0.2099 L 0.0000,0.2174 L 3.8004,0.2174 L 3.8004,0.2099 L 0.0000,0.2099 Z" stroke-width="1px" stroke="#DEE2E5" fill="#DEE2E5"/>
          <path clip-path="url(#clip-209331367)" d="M 0.0000,0.2174 L 0.0000,0.2249 L 3.8004,0.2249 L 3.8004,0.2174 L 0.0000,0.2174 Z" stroke-width="1px" stroke="#DFE3E6" fill="#DFE3E6"/>
          <path clip-path="url(#clip-209331367)" d="M 0.0000,0.2249 L 0.0000,0.2324 L 3.8004,0.2324 L 3.8004,0.2249 L 0.0000,0.2249 Z" stroke-width="1px" stroke="#DEE2E5" fill="#DEE2E5"/>
          <path clip-path="url(#clip-209331367)" d="M 0.0000,0.2324 L 0.0000,0.2399 L 3.8004,0.2399 L 3.8004,0.2324 L 0.0000,0.2324 Z" stroke-width="1px" stroke="#DDE1E4" fill="#DDE1E4"/>
          <path clip-path="url(#clip-209331367)" d="M 0.0000,0.2399 L 0.0000,0.2474 L 3.8004,0.2474 L 3.8004,0.2399 L 0.0000,0.2399 Z" stroke-width="1px" stroke="#DCE0E3" fill="#DCE0E3"/>
          <path clip-path="url(#clip-209331367)" d="M 0.0000,0.2474 L 0.0000,0.2549 L 3.8004,0.2549 L 3.8004,0.2474 L 0.0000,0.2474 Z" stroke-width="1px" stroke="#DADFE2" fill="#DADFE2"/>
          <path clip-path="url(#clip-209331367)" d="M 0.0000,0.2549 L 0.0000,0.2624 L 3.8004,0.2624 L 3.8004,0.2549 L 0.0000,0.2549 Z" stroke-width="1px" stroke="#D9DEE1" fill="#D9DEE1"/>
          <path clip-path="url(#clip-209331367)" d="M 0.0000,0.2624 L 0.0000,0.2699 L 3.8004,0.2699 L 3.8004,0.2624 L 0.0000,0.2624 Z" stroke-width="1px" stroke="#D8DDE0" fill="#D8DDE0"/>
          <path clip-path="url(#clip-209331367)" d="M 0.0000,0.2699 L 0.0000,0.2773 L 3.8004,0.2773 L 3.8004,0.2699 L 0.0000,0.2699 Z" stroke-width="1px" stroke="#D7DCE0" fill="#D7DCE0"/>
          <path clip-path="url(#clip-209331367)" d="M 0.0000,0.2773 L 0.0000,0.2848 L 3.8004,0.2848 L 3.8004,0.2773 L 0.0000,0.2773 Z" stroke-width="1px" stroke="#D6DBDF" fill="#D6DBDF"/>
          <path clip-path="url(#clip-209331367)" d="M 0.0000,0.2848 L 0.0000,0.2923 L 3.8004,0.2923 L 3.8004,0.2848 L 0.0000,0.2848 Z" stroke-width="1px" stroke="#D5DADE" fill="#D5DADE"/>
          <path clip-path="url(#clip-209331367)" d="M 0.0000,0.2923 L 0.0000,0.2998 L 3.8004,0.2998 L 3.8004,0.2923 L 0.0000,0.2923 Z" stroke-width="1px" stroke="#D4D9DD" fill="#D4D9DD"/>
          <path clip-path="url(#clip-209331367)" d="M 0.0000,0.2998 L 0.0000,0.3073 L 3.8004,0.3073 L 3.8004,0.2998 L 0.0000,0.2998 Z" stroke-width="1px" stroke="#D3D9DD" fill="#D3D9DD"/>
          <path clip-path="url(#clip-209331367)" d="M 0.0000,0.3073 L 0.0000,0.3148 L 3.8004,0.3148 L 3.8004,0.3073 L 0.0000,0.3073 Z" stroke-width="1px" stroke="#D2D8DC" fill="#D2D8DC"/>
          <path clip-path="url(#clip-209331367)" d="M 0.0000,0.3148 L 0.0000,0.3223 L 3.8004,0.3223 L 3.8004,0.3148 L 0.0000,0.3148 Z" stroke-width="1px" stroke="#D0D7DB" fill="#D0D7DB"/>
          <path clip-path="url(#clip-209331367)" d="M 0.0000,0.3223 L 0.0000,0.3298 L 3.8004,0.3298 L 3.8004,0.3223 L 0.0000,0.3223 Z" stroke-width="1px" stroke="#CFD6DA" fill="#CFD6DA"/>
          <path clip-path="url(#clip-209331367)" d="M 0.0000,0.3298 L 0.0000,0.3373 L 3.8004,0.3373 L 3.8004,0.3298 L 0.0000,0.3298 Z" stroke-width="1px" stroke="#CED5D9" fill="#CED5D9"/>
          <path clip-path="url(#clip-209331367)" d="M 0.0000,0.3373 L 0.0000,0.3448 L 3.8004,0.3448 L 3.8004,0.3373 L 0.0000,0.3373 Z" stroke-width="1px" stroke="#CDD4D8" fill="#CDD4D8"/>
        </g>
        <g transform="matrix(0.0625 0.0000 0.0000 0.0625 0.0000 0.0000)">
          <path d="M 60.6563,3.4931 C 60.6563,2.4586 59.8093,1.6191 58.7748,1.6191 L 58.7748,1.6191 L 2.0614,1.6191 C 1.0269,1.6191 0.1799,2.4586 0.1799,3.4931 C 0.1799,4.5275 1.0269,5.3670 2.0614,5.3670 L 2.0614,5.3670 L 58.7748,5.3670 C 59.8093,5.3670 60.6563,4.5275 60.6563,3.4931 C 60.6563,3.4931 60.6563,3.4931 60.6563,3.4931 Z " stroke="#A0B0B6" stroke-width="0.0075" stroke-linecap="round" stroke-linejoin="round" fill="none"/>
        </g>
        <g transform="matrix(1.0000 0.0000 0.0000 1.0000 0.0000 0.0000)">
</g>
        <g transform="matrix(0.0625 0.0000 0.0000 0.0625 0.0000 0.0000)">
          <path d="M 16.7382,45.2149 L 16.7382,54.4797 L 44.0980,54.4797 L 44.0980,45.2149 L 16.7382,45.2149 Z" stroke-width="1px" stroke="#BFBFBF" fill="#BFBFBF"/>
        </g>
        <g transform="matrix(1.0000 0.0000 0.0000 1.0000 0.0000 0.0000)">
</g>
        <g transform="matrix(0.0625 0.0000 0.0000 0.0625 0.0000 0.0000)">
          <path d="M 44.0980,54.4797 L 44.0980,45.2149 L 16.7382,45.2149 L 16.7382,54.4797 L 44.0980,54.4797 Z" stroke="#808080" stroke-width="0.0075" stroke-linecap="round" stroke-linejoin="round" fill="none"/>
        </g>
        <g transform="matrix(1.0000 0.0000 0.0000 1.0000 0.0000 0.0000)">
          <path d="M 0.1349,3.4106 C 0.1949,3.4106 0.2474,3.3581 0.2474,3.2907 C 0.2474,3.2907 0.2474,3.2907 0.2474,3.2907 L 0.2474,0.2249 C 0.2474,0.1574 0.1949,0.1049 0.1349,0.1049 C 0.1349,0.1049 0.1349,0.1049 0.1349,0.1049 C 0.0675,0.1049 0.0150,0.1574 0.0150,0.2249 L 0.0150,0.2249 L 0.0150,3.2907 C 0.0150,3.3581 0.0675,3.4106 0.1349,3.4106 Z " fill="none" stroke="none"/>
          <defs>
            <clipPath id="clip-233706647">
              <path d="M 0.1349,3.4106 C 0.1949,3.4106 0.2474,3.3581 0.2474,3.2907 C 0.2474,3.2907 0.2474,3.2907 0.2474,3.2907 L 0.2474,0.2249 C 0.2474,0.1574 0.1949,0.1049 0.1349,0.1049 C 0.1349,0.1049 0.1349,0.1049 0.1349,0.1049 C 0.0675,0.1049 0.0150,0.1574 0.0150,0.2249 L 0.0150,0.2249 L 0.0150,3.2907 C 0.0150,3.3581 0.0675,3.4106 0.1349,3.4106 Z"/>
            </clipPath>
          </defs>
          <path clip-path="url(#clip-233706647)" d="M 0.0000,0.0900 L 0.0000,3.4106 L 0.0150,3.4106 L 0.0150,0.0900 L 0.0000,0.0900 Z" stroke-width="1px" stroke="#CCD3D7" fill="#CCD3D7"/>
          <path clip-path="url(#clip-233706647)" d="M 0.0150,0.0900 L 0.0150,3.4106 L 0.0225,3.4106 L 0.0225,0.0900 L 0.0150,0.0900 Z" stroke-width="1px" stroke="#CDD4D8" fill="#CDD4D8"/>
          <path clip-path="url(#clip-233706647)" d="M 0.0225,0.0900 L 0.0225,3.4106 L 0.0300,3.4106 L 0.0300,0.0900 L 0.0225,0.0900 Z" stroke-width="1px" stroke="#CFD5D9" fill="#CFD5D9"/>
          <path clip-path="url(#clip-233706647)" d="M 0.0300,0.0900 L 0.0300,3.4106 L 0.0375,3.4106 L 0.0375,0.0900 L 0.0300,0.0900 Z" stroke-width="1px" stroke="#D0D6DA" fill="#D0D6DA"/>
          <path clip-path="url(#clip-233706647)" d="M 0.0375,0.0900 L 0.0375,3.4106 L 0.0450,3.4106 L 0.0450,0.0900 L 0.0375,0.0900 Z" stroke-width="1px" stroke="#D1D7DB" fill="#D1D7DB"/>
          <path clip-path="url(#clip-233706647)" d="M 0.0450,0.0900 L 0.0450,3.4106 L 0.0525,3.4106 L 0.0525,0.0900 L 0.0450,0.0900 Z" stroke-width="1px" stroke="#D2D8DC" fill="#D2D8DC"/>
          <path clip-path="url(#clip-233706647)" d="M 0.0525,0.0900 L 0.0525,3.4106 L 0.0600,3.4106 L 0.0600,0.0900 L 0.0525,0.0900 Z" stroke-width="1px" stroke="#D3D9DD" fill="#D3D9DD"/>
          <path clip-path="url(#clip-233706647)" d="M 0.0600,0.0900 L 0.0600,3.4106 L 0.0675,3.4106 L 0.0675,0.0900 L 0.0600,0.0900 Z" stroke-width="1px" stroke="#D5DADE" fill="#D5DADE"/>
          <path clip-path="url(#clip-233706647)" d="M 0.0675,0.0900 L 0.0675,3.4106 L 0.0750,3.4106 L 0.0750,0.0900 L 0.0675,0.0900 Z" stroke-width="1px" stroke="#D6DBDF" fill="#D6DBDF"/>
          <path clip-path="url(#clip-233706647)" d="M 0.0750,0.0900 L 0.0750,3.4106 L 0.0825,3.4106 L 0.0825,0.0900 L 0.0750,0.0900 Z" stroke-width="1px" stroke="#D7DCE0" fill="#D7DCE0"/>
          <path clip-path="url(#clip-233706647)" d="M 0.0825,0.0900 L 0.0825,3.4106 L 0.0900,3.4106 L 0.0900,0.0900 L 0.0825,0.0900 Z" stroke-width="1px" stroke="#D8DDE0" fill="#D8DDE0"/>
          <path clip-path="url(#clip-233706647)" d="M 0.0900,0.0900 L 0.0900,3.4106 L 0.0974,3.4106 L 0.0974,0.0900 L 0.0900,0.0900 Z" stroke-width="1px" stroke="#D9DEE1" fill="#D9DEE1"/>
          <path clip-path="url(#clip-233706647)" d="M 0.0974,0.0900 L 0.0974,3.4106 L 0.1049,3.4106 L 0.1049,0.0900 L 0.0974,0.0900 Z" stroke-width="1px" stroke="#DADFE2" fill="#DADFE2"/>
          <path clip-path="url(#clip-233706647)" d="M 0.1049,0.0900 L 0.1049,3.4106 L 0.1124,3.4106 L 0.1124,0.0900 L 0.1049,0.0900 Z" stroke-width="1px" stroke="#DBE0E3" fill="#DBE0E3"/>
          <path clip-path="url(#clip-233706647)" d="M 0.1124,0.0900 L 0.1124,3.4106 L 0.1199,3.4106 L 0.1199,0.0900 L 0.1124,0.0900 Z" stroke-width="1px" stroke="#DDE1E4" fill="#DDE1E4"/>
          <path clip-path="url(#clip-233706647)" d="M 0.1199,0.0900 L 0.1199,3.4106 L 0.1274,3.4106 L 0.1274,0.0900 L 0.1199,0.0900 Z" stroke-width="1px" stroke="#DEE2E5" fill="#DEE2E5"/>
          <path clip-path="url(#clip-233706647)" d="M 0.1274,0.0900 L 0.1274,3.4106 L 0.1349,3.4106 L 0.1349,0.0900 L 0.1274,0.0900 Z" stroke-width="1px" stroke="#DFE3E6" fill="#DFE3E6"/>
          <path clip-path="url(#clip-233706647)" d="M 0.1349,0.0900 L 0.1349,3.4106 L 0.1424,3.4106 L 0.1424,0.0900 L 0.1349,0.0900 Z" stroke-width="1px" stroke="#DEE2E5" fill="#DEE2E5"/>
          <path clip-path="url(#clip-233706647)" d="M 0.1424,0.0900 L 0.1424,3.4106 L 0.1499,3.4106 L 0.1499,0.0900 L 0.1424,0.0900 Z" stroke-width="1px" stroke="#DDE1E4" fill="#DDE1E4"/>
          <path clip-path="url(#clip-233706647)" d="M 0.1499,0.0900 L 0.1499,3.4106 L 0.1574,3.4106 L 0.1574,0.0900 L 0.1499,0.0900 Z" stroke-width="1px" stroke="#DCE0E3" fill="#DCE0E3"/>
          <path clip-path="url(#clip-233706647)" d="M 0.1574,0.0900 L 0.1574,3.4106 L 0.1649,3.4106 L 0.1649,0.0900 L 0.1574,0.0900 Z" stroke-width="1px" stroke="#DADFE2" fill="#DADFE2"/>
          <path clip-path="url(#clip-233706647)" d="M 0.1649,0.0900 L 0.1649,3.4106 L 0.1724,3.4106 L 0.1724,0.0900 L 0.1649,0.0900 Z" stroke-width="1px" stroke="#D9DEE1" fill="#D9DEE1"/>
          <path clip-path="url(#clip-233706647)" d="M 0.1724,0.0900 L 0.1724,3.4106 L 0.1799,3.4106 L 0.1799,0.0900 L 0.1724,0.0900 Z" stroke-width="1px" stroke="#D8DDE0" fill="#D8DDE0"/>
          <path clip-path="url(#clip-233706647)" d="M 0.1799,0.0900 L 0.1799,3.4106 L 0.1874,3.4106 L 0.1874,0.0900 L 0.1799,0.0900 Z" stroke-width="1px" stroke="#D7DCE0" fill="#D7DCE0"/>
          <path clip-path="url(#clip-233706647)" d="M 0.1874,0.0900 L 0.1874,3.4106 L 0.1949,3.4106 L 0.1949,0.0900 L 0.1874,0.0900 Z" stroke-width="1px" stroke="#D6DBDF" fill="#D6DBDF"/>
          <path clip-path="url(#clip-233706647)" d="M 0.1949,0.0900 L 0.1949,3.4106 L 0.2024,3.4106 L 0.2024,0.0900 L 0.1949,0.0900 Z" stroke-width="1px" stroke="#D5DADE" fill="#D5DADE"/>
          <path clip-path="url(#clip-233706647)" d="M 0.2024,0.0900 L 0.2024,3.4106 L 0.2099,3.4106 L 0.2099,0.0900 L 0.2024,0.0900 Z" stroke-width="1px" stroke="#D4DADE" fill="#D4DADE"/>
          <path clip-path="url(#clip-233706647)" d="M 0.2099,0.0900 L 0.2099,3.4106 L 0.2174,3.4106 L 0.2174,0.0900 L 0.2099,0.0900 Z" stroke-width="1px" stroke="#D3D9DD" fill="#D3D9DD"/>
          <path clip-path="url(#clip-233706647)" d="M 0.2174,0.0900 L 0.2174,3.4106 L 0.2249,3.4106 L 0.2249,0.0900 L 0.2174,0.0900 Z" stroke-width="1px" stroke="#D2D8DC" fill="#D2D8DC"/>
          <path clip-path="url(#clip-233706647)" d="M 0.2249,0.0900 L 0.2249,3.4106 L 0.2324,3.4106 L 0.2324,0.0900 L 0.2249,0.0900 Z" stroke-width="1px" stroke="#D0D7DB" fill="#D0D7DB"/>
          <path clip-path="url(#clip-233706647)" d="M 0.2324,0.0900 L 0.2324,3.4106 L 0.2399,3.4106 L 0.2399,0.0900 L 0.2324,0.0900 Z" stroke-width="1px" stroke="#CFD6DA" fill="#CFD6DA"/>
          <path clip-path="url(#clip-233706647)" d="M 0.2399,0.0900 L 0.2399,3.4106 L 0.2474,3.4106 L 0.2474,0.0900 L 0.2399,0.0900 Z" stroke-width="1px" stroke="#CED5D9" fill="#CED5D9"/>
          <path clip-path="url(#clip-233706647)" d="M 0.2474,0.0900 L 0.2474,3.4106 L 0.2549,3.4106 L 0.2549,0.0900 L 0.2474,0.0900 Z" stroke-width="1px" stroke="#CDD4D8" fill="#CDD4D8"/>
        </g>
        <g transform="matrix(0.0625 0.0000 0.0000 0.0625 0.0000 0.0000)">
          <path d="M 2.0614,54.4797 C 3.0958,54.4797 3.9353,53.6402 3.9353,52.6058 C 3.9353,52.6058 3.9353,52.6058 3.9353,52.6058 L 3.9353,3.4931 C 3.9353,2.4586 3.0958,1.6191 2.0614,1.6191 C 2.0614,1.6191 2.0614,1.6191 2.0614,1.6191 C 1.0269,1.6191 0.1799,2.4586 0.1799,3.4931 L 0.1799,3.4931 L 0.1799,52.6058 C 0.1799,53.6402 1.0269,54.4797 2.0614,54.4797 Z " stroke="#A0B0B6" stroke-width="0.0075" stroke-linecap="round" stroke-linejoin="round" fill="none"/>
        </g>
        <g transform="matrix(1.0000 0.0000 0.0000 1.0000 0.0000 0.0000)">
          <path d="M 3.6805,3.4106 C 3.7404,3.4106 3.7929,3.3581 3.7929,3.2907 C 3.7929,3.2907 3.7929,3.2907 3.7929,3.2907 L 3.7929,0.2249 C 3.7929,0.1574 3.7404,0.1049 3.6805,0.1049 C 3.6805,0.1049 3.6805,0.1049 3.6805,0.1049 C 3.6130,0.1049 3.5605,0.1574 3.5605,0.2249 L 3.5605,0.2249 L 3.5605,3.2907 C 3.5605,3.3581 3.6130,3.4106 3.6805,3.4106 Z " fill="none" stroke="none"/>
          <defs>
            <clipPath id="clip-1818982353">
              <path d="M 3.6805,3.4106 C 3.7404,3.4106 3.7929,3.3581 3.7929,3.2907 C 3.7929,3.2907 3.7929,3.2907 3.7929,3.2907 L 3.7929,0.2249 C 3.7929,0.1574 3.7404,0.1049 3.6805,0.1049 C 3.6805,0.1049 3.6805,0.1049 3.6805,0.1049 C 3.6130,0.1049 3.5605,0.1574 3.5605,0.2249 L 3.5605,0.2249 L 3.5605,3.2907 C 3.5605,3.3581 3.6130,3.4106 3.6805,3.4106 Z"/>
            </clipPath>
          </defs>
          <path clip-path="url(#clip-1818982353)" d="M 3.5455,0.0900 L 3.5455,3.4106 L 3.5530,3.4106 L 3.5530,0.0900 L 3.5455,0.0900 Z" stroke-width="1px" stroke="#CCD3D7" fill="#CCD3D7"/>
          <path clip-path="url(#clip-1818982353)" d="M 3.5530,0.0900 L 3.5530,3.4106 L 3.5605,3.4106 L 3.5605,0.0900 L 3.5530,0.0900 Z" stroke-width="1px" stroke="#CDD4D8" fill="#CDD4D8"/>
          <path clip-path="url(#clip-1818982353)" d="M 3.5605,0.0900 L 3.5605,3.4106 L 3.5680,3.4106 L 3.5680,0.0900 L 3.5605,0.0900 Z" stroke-width="1px" stroke="#CED5D9" fill="#CED5D9"/>
          <path clip-path="url(#clip-1818982353)" d="M 3.5680,0.0900 L 3.5680,3.4106 L 3.5755,3.4106 L 3.5755,0.0900 L 3.5680,0.0900 Z" stroke-width="1px" stroke="#CFD5D9" fill="#CFD5D9"/>
          <path clip-path="url(#clip-1818982353)" d="M 3.5755,0.0900 L 3.5755,3.4106 L 3.5830,3.4106 L 3.5830,0.0900 L 3.5755,0.0900 Z" stroke-width="1px" stroke="#D0D6DA" fill="#D0D6DA"/>
          <path clip-path="url(#clip-1818982353)" d="M 3.5830,0.0900 L 3.5830,3.4106 L 3.5905,3.4106 L 3.5905,0.0900 L 3.5830,0.0900 Z" stroke-width="1px" stroke="#D1D7DB" fill="#D1D7DB"/>
          <path clip-path="url(#clip-1818982353)" d="M 3.5905,0.0900 L 3.5905,3.4106 L 3.5980,3.4106 L 3.5980,0.0900 L 3.5905,0.0900 Z" stroke-width="1px" stroke="#D2D8DC" fill="#D2D8DC"/>
          <path clip-path="url(#clip-1818982353)" d="M 3.5980,0.0900 L 3.5980,3.4106 L 3.6055,3.4106 L 3.6055,0.0900 L 3.5980,0.0900 Z" stroke-width="1px" stroke="#D4D9DD" fill="#D4D9DD"/>
          <path clip-path="url(#clip-1818982353)" d="M 3.6055,0.0900 L 3.6055,3.4106 L 3.6130,3.4106 L 3.6130,0.0900 L 3.6055,0.0900 Z" stroke-width="1px" stroke="#D5DADE" fill="#D5DADE"/>
          <path clip-path="url(#clip-1818982353)" d="M 3.6130,0.0900 L 3.6130,3.4106 L 3.6205,3.4106 L 3.6205,0.0900 L 3.6130,0.0900 Z" stroke-width="1px" stroke="#D6DBDF" fill="#D6DBDF"/>
          <path clip-path="url(#clip-1818982353)" d="M 3.6205,0.0900 L 3.6205,3.4106 L 3.6280,3.4106 L 3.6280,0.0900 L 3.6205,0.0900 Z" stroke-width="1px" stroke="#D7DCE0" fill="#D7DCE0"/>
          <path clip-path="url(#clip-1818982353)" d="M 3.6280,0.0900 L 3.6280,3.4106 L 3.6355,3.4106 L 3.6355,0.0900 L 3.6280,0.0900 Z" stroke-width="1px" stroke="#D8DDE0" fill="#D8DDE0"/>
          <path clip-path="url(#clip-1818982353)" d="M 3.6355,0.0900 L 3.6355,3.4106 L 3.6430,3.4106 L 3.6430,0.0900 L 3.6355,0.0900 Z" stroke-width="1px" stroke="#D9DEE1" fill="#D9DEE1"/>
          <path clip-path="url(#clip-1818982353)" d="M 3.6430,0.0900 L 3.6430,3.4106 L 3.6505,3.4106 L 3.6505,0.0900 L 3.6430,0.0900 Z" stroke-width="1px" stroke="#DADFE2" fill="#DADFE2"/>
          <path clip-path="url(#clip-1818982353)" d="M 3.6505,0.0900 L 3.6505,3.4106 L 3.6580,3.4106 L 3.6580,0.0900 L 3.6505,0.0900 Z" stroke-width="1px" stroke="#DCE0E3" fill="#DCE0E3"/>
          <path clip-path="url(#clip-1818982353)" d="M 3.6580,0.0900 L 3.6580,3.4106 L 3.6655,3.4106 L 3.6655,0.0900 L 3.6580,0.0900 Z" stroke-width="1px" stroke="#DDE1E4" fill="#DDE1E4"/>
          <path clip-path="url(#clip-1818982353)" d="M 3.6655,0.0900 L 3.6655,3.4106 L 3.6730,3.4106 L 3.6730,0.0900 L 3.6655,0.0900 Z" stroke-width="1px" stroke="#DEE2E5" fill="#DEE2E5"/>
          <path clip-path="url(#clip-1818982353)" d="M 3.6730,0.0900 L 3.6730,3.4106 L 3.6805,3.4106 L 3.6805,0.0900 L 3.6730,0.0900 Z" stroke-width="1px" stroke="#DFE3E6" fill="#DFE3E6"/>
          <path clip-path="url(#clip-1818982353)" d="M 3.6805,0.0900 L 3.6805,3.4106 L 3.6880,3.4106 L 3.6880,0.0900 L 3.6805,0.0900 Z" stroke-width="1px" stroke="#DEE2E5" fill="#DEE2E5"/>
          <path clip-path="url(#clip-1818982353)" d="M 3.6880,0.0900 L 3.6880,3.4106 L 3.6954,3.4106 L 3.6954,0.0900 L 3.6880,0.0900 Z" stroke-width="1px" stroke="#DDE1E4" fill="#DDE1E4"/>
          <path clip-path="url(#clip-1818982353)" d="M 3.6954,0.0900 L 3.6954,3.4106 L 3.7029,3.4106 L 3.7029,0.0900 L 3.6954,0.0900 Z" stroke-width="1px" stroke="#DCE0E3" fill="#DCE0E3"/>
          <path clip-path="url(#clip-1818982353)" d="M 3.7029,0.0900 L 3.7029,3.4106 L 3.7104,3.4106 L 3.7104,0.0900 L 3.7029,0.0900 Z" stroke-width="1px" stroke="#DADFE2" fill="#DADFE2"/>
          <path clip-path="url(#clip-1818982353)" d="M 3.7104,0.0900 L 3.7104,3.4106 L 3.7179,3.4106 L 3.7179,0.0900 L 3.7104,0.0900 Z" stroke-width="1px" stroke="#D9DEE1" fill="#D9DEE1"/>
          <path clip-path="url(#clip-1818982353)" d="M 3.7179,0.0900 L 3.7179,3.4106 L 3.7254,3.4106 L 3.7254,0.0900 L 3.7179,0.0900 Z" stroke-width="1px" stroke="#D8DDE0" fill="#D8DDE0"/>
          <path clip-path="url(#clip-1818982353)" d="M 3.7254,0.0900 L 3.7254,3.4106 L 3.7329,3.4106 L 3.7329,0.0900 L 3.7254,0.0900 Z" stroke-width="1px" stroke="#D7DCE0" fill="#D7DCE0"/>
          <path clip-path="url(#clip-1818982353)" d="M 3.7329,0.0900 L 3.7329,3.4106 L 3.7404,3.4106 L 3.7404,0.0900 L 3.7329,0.0900 Z" stroke-width="1px" stroke="#D6DBDF" fill="#D6DBDF"/>
          <path clip-path="url(#clip-1818982353)" d="M 3.7404,0.0900 L 3.7404,3.4106 L 3.7479,3.4106 L 3.7479,0.0900 L 3.7404,0.0900 Z" stroke-width="1px" stroke="#D5DADE" fill="#D5DADE"/>
          <path clip-path="url(#clip-1818982353)" d="M 3.7479,0.0900 L 3.7479,3.4106 L 3.7554,3.4106 L 3.7554,0.0900 L 3.7479,0.0900 Z" stroke-width="1px" stroke="#D4D9DD" fill="#D4D9DD"/>
          <path clip-path="url(#clip-1818982353)" d="M 3.7554,0.0900 L 3.7554,3.4106 L 3.7704,3.4106 L 3.7704,0.0900 L 3.7554,0.0900 Z" stroke-width="1px" stroke="#D2D8DC" fill="#D2D8DC"/>
          <path clip-path="url(#clip-1818982353)" d="M 3.7704,0.0900 L 3.7704,3.4106 L 3.7779,3.4106 L 3.7779,0.0900 L 3.7704,0.0900 Z" stroke-width="1px" stroke="#D0D7DB" fill="#D0D7DB"/>
          <path clip-path="url(#clip-1818982353)" d="M 3.7779,0.0900 L 3.7779,3.4106 L 3.7854,3.4106 L 3.7854,0.0900 L 3.7779,0.0900 Z" stroke-width="1px" stroke="#CFD6DA" fill="#CFD6DA"/>
          <path clip-path="url(#clip-1818982353)" d="M 3.7854,0.0900 L 3.7854,3.4106 L 3.7929,3.4106 L 3.7929,0.0900 L 3.7854,0.0900 Z" stroke-width="1px" stroke="#CED5D9" fill="#CED5D9"/>
          <path clip-path="url(#clip-1818982353)" d="M 3.7929,0.0900 L 3.7929,3.4106 L 3.8004,3.4106 L 3.8004,0.0900 L 3.7929,0.0900 Z" stroke-width="1px" stroke="#CDD4D8" fill="#CDD4D8"/>
        </g>
        <g transform="matrix(0.0625 0.0000 0.0000 0.0625 0.0000 0.0000)">
          <path d="M 58.7748,54.4797 C 59.8093,54.4797 60.6563,53.6402 60.6563,52.6058 C 60.6563,52.6058 60.6563,52.6058 60.6563,52.6058 L 60.6563,3.4931 C 60.6563,2.4586 59.8093,1.6191 58.7748,1.6191 C 58.7748,1.6191 58.7748,1.6191 58.7748,1.6191 C 57.7404,1.6191 56.9009,2.4586 56.9009,3.4931 L 56.9009,3.4931 L 56.9009,52.6058 C 56.9009,53.6402 57.7404,54.4797 58.7748,54.4797 Z " stroke="#A0B0B6" stroke-width="0.0075" stroke-linecap="round" stroke-linejoin="round" fill="none"/>
        </g>
        <g transform="matrix(1.0000 0.0000 0.0000 1.0000 0.0000 0.0000)">
</g>
        <g transform="matrix(0.0625 0.0000 0.0000 0.0625 0.0000 0.0000)">
          <path d="M 10.9214,6.4614 L 10.9214,11.0414 L 6.8737,11.0414 L 6.8737,15.4189 L 9.0625,15.4189 L 9.0625,19.2568 L 6.4314,19.2568 L 6.4314,35.8376 L 4.4900,35.8376 L 4.4900,39.8479 L 28.9714,39.8479 L 28.9714,35.8376 L 27.0225,35.8376 L 27.0225,19.2568 L 24.3989,19.2568 L 24.3989,15.4189 L 26.5877,15.4189 L 26.5877,11.0339 L 22.5325,11.0339 L 22.5325,6.4539 L 10.9214,6.4614 Z M 38.3637,6.4614 L 38.3637,11.0414 L 34.3084,11.0414 L 34.3084,15.4189 L 36.5047,15.4189 L 36.5047,19.2568 L 33.8737,19.2568 L 33.8737,35.8376 L 31.9248,35.8376 L 31.9248,39.8479 L 56.4136,39.8479 L 56.4136,35.8376 L 54.4647,35.8376 L 54.4647,19.2568 L 51.8412,19.2568 L 51.8412,15.4189 L 54.0300,15.4189 L 54.0300,11.0339 L 49.9747,11.0339 L 49.9747,6.4539 L 38.3637,6.4614 Z " fill="#666666" stroke-width="1px" stroke="#666666"/>
        </g>
        <g transform="matrix(1.0000 0.0000 0.0000 1.0000 0.0000 0.0000)">
</g>
        <g transform="matrix(0.0625 0.0000 0.0000 0.0625 0.0000 0.0000)">
          <path d="M 10.9214,6.4614 L 10.9214,11.0414 L 6.8737,11.0414 L 6.8737,15.4189 L 9.0625,15.4189 L 9.0625,19.2568 L 6.4314,19.2568 L 6.4314,35.8376 L 4.4900,35.8376 L 4.4900,39.8479 L 28.9714,39.8479 L 28.9714,35.8376 L 27.0225,35.8376 L 27.0225,19.2568 L 24.3989,19.2568 L 24.3989,15.4189 L 26.5877,15.4189 L 26.5877,11.0339 L 22.5325,11.0339 L 22.5325,6.4539 L 10.9214,6.4614 Z" stroke="#969696" stroke-width="0.0075" stroke-linecap="round" stroke-linejoin="round" fill="none"/>
          <path d="M 38.3637,6.4614 L 38.3637,11.0414 L 34.3084,11.0414 L 34.3084,15.4189 L 36.5047,15.4189 L 36.5047,19.2568 L 33.8737,19.2568 L 33.8737,35.8376 L 31.9248,35.8376 L 31.9248,39.8479 L 56.4136,39.8479 L 56.4136,35.8376 L 54.4647,35.8376 L 54.4647,19.2568 L 51.8412,19.2568 L 51.8412,15.4189 L 54.0300,15.4189 L 54.0300,11.0339 L 49.9747,11.0339 L 49.9747,6.4539 L 38.3637,6.4614 Z" stroke="#969696" stroke-width="0.0075" stroke-linecap="round" stroke-linejoin="round" fill="none"/>
        </g>
        <g transform="matrix(1.0000 0.0000 0.0000 1.0000 0.0000 0.0000)">
          <defs>
            <clipPath id="clip-2130324323">
              <path d="M 0.3898,0.0150 L 3.4181,0.0150 L 3.4181,0.4273 L 0.3898,0.4273 L 0.3898,0.0150 Z Z"/>
            </clipPath>
          </defs>
          <path clip-path="url(#clip-2130324323)" d="M 0.3748,0.0000 L 0.3748,0.0150 L 3.4256,0.0150 L 3.4256,0.0000 L 0.3748,0.0000 Z" stroke-width="1px" stroke="#8D8D8D" fill="#8D8D8D"/>
          <path clip-path="url(#clip-2130324323)" d="M 0.3748,0.0150 L 0.3748,0.0225 L 3.4256,0.0225 L 3.4256,0.0150 L 0.3748,0.0150 Z" stroke-width="1px" stroke="#909090" fill="#909090"/>
          <path clip-path="url(#clip-2130324323)" d="M 0.3748,0.0225 L 0.3748,0.0300 L 3.4256,0.0300 L 3.4256,0.0225 L 0.3748,0.0225 Z" stroke-width="1px" stroke="#939393" fill="#939393"/>
          <path clip-path="url(#clip-2130324323)" d="M 0.3748,0.0300 L 0.3748,0.0375 L 3.4256,0.0375 L 3.4256,0.0300 L 0.3748,0.0300 Z" stroke-width="1px" stroke="#969696" fill="#969696"/>
          <path clip-path="url(#clip-2130324323)" d="M 0.3748,0.0375 L 0.3748,0.0450 L 3.4256,0.0450 L 3.4256,0.0375 L 0.3748,0.0375 Z" stroke-width="1px" stroke="#989898" fill="#989898"/>
          <path clip-path="url(#clip-2130324323)" d="M 0.3748,0.0450 L 0.3748,0.0525 L 3.4256,0.0525 L 3.4256,0.0450 L 0.3748,0.0450 Z" stroke-width="1px" stroke="#9B9B9B" fill="#9B9B9B"/>
          <path clip-path="url(#clip-2130324323)" d="M 0.3748,0.0525 L 0.3748,0.0600 L 3.4256,0.0600 L 3.4256,0.0525 L 0.3748,0.0525 Z" stroke-width="1px" stroke="#9D9D9D" fill="#9D9D9D"/>
          <path clip-path="url(#clip-2130324323)" d="M 0.3748,0.0600 L 0.3748,0.0675 L 3.4256,0.0675 L 3.4256,0.0600 L 0.3748,0.0600 Z" stroke-width="1px" stroke="#A0A0A0" fill="#A0A0A0"/>
          <path clip-path="url(#clip-2130324323)" d="M 0.3748,0.0675 L 0.3748,0.0750 L 3.4256,0.0750 L 3.4256,0.0675 L 0.3748,0.0675 Z" stroke-width="1px" stroke="#A3A3A3" fill="#A3A3A3"/>
          <path clip-path="url(#clip-2130324323)" d="M 0.3748,0.0750 L 0.3748,0.0825 L 3.4256,0.0825 L 3.4256,0.0750 L 0.3748,0.0750 Z" stroke-width="1px" stroke="#A6A6A6" fill="#A6A6A6"/>
          <path clip-path="url(#clip-2130324323)" d="M 0.3748,0.0825 L 0.3748,0.0900 L 3.4256,0.0900 L 3.4256,0.0825 L 0.3748,0.0825 Z" stroke-width="1px" stroke="#A8A8A8" fill="#A8A8A8"/>
          <path clip-path="url(#clip-2130324323)" d="M 0.3748,0.0900 L 0.3748,0.0974 L 3.4256,0.0974 L 3.4256,0.0900 L 0.3748,0.0900 Z" stroke-width="1px" stroke="#ABABAB" fill="#ABABAB"/>
          <path clip-path="url(#clip-2130324323)" d="M 0.3748,0.0974 L 0.3748,0.1049 L 3.4256,0.1049 L 3.4256,0.0974 L 0.3748,0.0974 Z" stroke-width="1px" stroke="#AEAEAE" fill="#AEAEAE"/>
          <path clip-path="url(#clip-2130324323)" d="M 0.3748,0.1049 L 0.3748,0.1124 L 3.4256,0.1124 L 3.4256,0.1049 L 0.3748,0.1049 Z" stroke-width="1px" stroke="#B1B1B1" fill="#B1B1B1"/>
          <path clip-path="url(#clip-2130324323)" d="M 0.3748,0.1124 L 0.3748,0.1199 L 3.4256,0.1199 L 3.4256,0.1124 L 0.3748,0.1124 Z" stroke-width="1px" stroke="#B4B4B4" fill="#B4B4B4"/>
          <path clip-path="url(#clip-2130324323)" d="M 0.3748,0.1199 L 0.3748,0.1274 L 3.4256,0.1274 L 3.4256,0.1199 L 0.3748,0.1199 Z" stroke-width="1px" stroke="#B6B6B6" fill="#B6B6B6"/>
          <path clip-path="url(#clip-2130324323)" d="M 0.3748,0.1274 L 0.3748,0.1349 L 3.4256,0.1349 L 3.4256,0.1274 L 0.3748,0.1274 Z" stroke-width="1px" stroke="#B9B9B9" fill="#B9B9B9"/>
          <path clip-path="url(#clip-2130324323)" d="M 0.3748,0.1349 L 0.3748,0.1424 L 3.4256,0.1424 L 3.4256,0.1349 L 0.3748,0.1349 Z" stroke-width="1px" stroke="#BBBBBB" fill="#BBBBBB"/>
          <path clip-path="url(#clip-2130324323)" d="M 0.3748,0.1424 L 0.3748,0.1499 L 3.4256,0.1499 L 3.4256,0.1424 L 0.3748,0.1424 Z" stroke-width="1px" stroke="#BEBEBE" fill="#BEBEBE"/>
          <path clip-path="url(#clip-2130324323)" d="M 0.3748,0.1499 L 0.3748,0.1574 L 3.4256,0.1574 L 3.4256,0.1499 L 0.3748,0.1499 Z" stroke-width="1px" stroke="#C1C1C1" fill="#C1C1C1"/>
          <path clip-path="url(#clip-2130324323)" d="M 0.3748,0.1574 L 0.3748,0.1649 L 3.4256,0.1649 L 3.4256,0.1574 L 0.3748,0.1574 Z" stroke-width="1px" stroke="#C3C3C3" fill="#C3C3C3"/>
          <path clip-path="url(#clip-2130324323)" d="M 0.3748,0.1649 L 0.3748,0.1724 L 3.4256,0.1724 L 3.4256,0.1649 L 0.3748,0.1649 Z" stroke-width="1px" stroke="#C6C6C6" fill="#C6C6C6"/>
          <path clip-path="url(#clip-2130324323)" d="M 0.3748,0.1724 L 0.3748,0.1799 L 3.4256,0.1799 L 3.4256,0.1724 L 0.3748,0.1724 Z" stroke-width="1px" stroke="#C9C9C9" fill="#C9C9C9"/>
          <path clip-path="url(#clip-2130324323)" d="M 0.3748,0.1799 L 0.3748,0.1874 L 3.4256,0.1874 L 3.4256,0.1799 L 0.3748,0.1799 Z" stroke-width="1px" stroke="#CBCBCB" fill="#CBCBCB"/>
          <path clip-path="url(#clip-2130324323)" d="M 0.3748,0.1874 L 0.3748,0.1949 L 3.4256,0.1949 L 3.4256,0.1874 L 0.3748,0.1874 Z" stroke-width="1px" stroke="#CECECE" fill="#CECECE"/>
          <path clip-path="url(#clip-2130324323)" d="M 0.3748,0.1949 L 0.3748,0.2024 L 3.4256,0.2024 L 3.4256,0.1949 L 0.3748,0.1949 Z" stroke-width="1px" stroke="#D0D0D0" fill="#D0D0D0"/>
          <path clip-path="url(#clip-2130324323)" d="M 0.3748,0.2024 L 0.3748,0.2099 L 3.4256,0.2099 L 3.4256,0.2024 L 0.3748,0.2024 Z" stroke-width="1px" stroke="#D3D3D3" fill="#D3D3D3"/>
          <path clip-path="url(#clip-2130324323)" d="M 0.3748,0.2099 L 0.3748,0.2174 L 3.4256,0.2174 L 3.4256,0.2099 L 0.3748,0.2099 Z" stroke-width="1px" stroke="#D6D6D6" fill="#D6D6D6"/>
          <path clip-path="url(#clip-2130324323)" d="M 0.3748,0.2174 L 0.3748,0.2249 L 3.4256,0.2249 L 3.4256,0.2174 L 0.3748,0.2174 Z" stroke-width="1px" stroke="#D9D9D9" fill="#D9D9D9"/>
          <path clip-path="url(#clip-2130324323)" d="M 0.3748,0.2249 L 0.3748,0.2324 L 3.4256,0.2324 L 3.4256,0.2249 L 0.3748,0.2249 Z" stroke-width="1px" stroke="#D6D6D6" fill="#D6D6D6"/>
          <path clip-path="url(#clip-2130324323)" d="M 0.3748,0.2324 L 0.3748,0.2399 L 3.4256,0.2399 L 3.4256,0.2324 L 0.3748,0.2324 Z" stroke-width="1px" stroke="#D4D4D4" fill="#D4D4D4"/>
          <path clip-path="url(#clip-2130324323)" d="M 0.3748,0.2399 L 0.3748,0.2474 L 3.4256,0.2474 L 3.4256,0.2399 L 0.3748,0.2399 Z" stroke-width="1px" stroke="#D1D1D1" fill="#D1D1D1"/>
          <path clip-path="url(#clip-2130324323)" d="M 0.3748,0.2474 L 0.3748,0.2549 L 3.4256,0.2549 L 3.4256,0.2474 L 0.3748,0.2474 Z" stroke-width="1px" stroke="#CECECE" fill="#CECECE"/>
          <path clip-path="url(#clip-2130324323)" d="M 0.3748,0.2549 L 0.3748,0.2624 L 3.4256,0.2624 L 3.4256,0.2549 L 0.3748,0.2549 Z" stroke-width="1px" stroke="#CCCCCC" fill="#CCCCCC"/>
          <path clip-path="url(#clip-2130324323)" d="M 0.3748,0.2624 L 0.3748,0.2699 L 3.4256,0.2699 L 3.4256,0.2624 L 0.3748,0.2624 Z" stroke-width="1px" stroke="#C9C9C9" fill="#C9C9C9"/>
          <path clip-path="url(#clip-2130324323)" d="M 0.3748,0.2699 L 0.3748,0.2773 L 3.4256,0.2773 L 3.4256,0.2699 L 0.3748,0.2699 Z" stroke-width="1px" stroke="#C7C7C7" fill="#C7C7C7"/>
          <path clip-path="url(#clip-2130324323)" d="M 0.3748,0.2773 L 0.3748,0.2848 L 3.4256,0.2848 L 3.4256,0.2773 L 0.3748,0.2773 Z" stroke-width="1px" stroke="#C4C4C4" fill="#C4C4C4"/>
          <path clip-path="url(#clip-2130324323)" d="M 0.3748,0.2848 L 0.3748,0.2923 L 3.4256,0.2923 L 3.4256,0.2848 L 0.3748,0.2848 Z" stroke-width="1px" stroke="#C1C1C1" fill="#C1C1C1"/>
          <path clip-path="url(#clip-2130324323)" d="M 0.3748,0.2923 L 0.3748,0.2998 L 3.4256,0.2998 L 3.4256,0.2923 L 0.3748,0.2923 Z" stroke-width="1px" stroke="#BEBEBE" fill="#BEBEBE"/>
          <path clip-path="url(#clip-2130324323)" d="M 0.3748,0.2998 L 0.3748,0.3073 L 3.4256,0.3073 L 3.4256,0.2998 L 0.3748,0.2998 Z" stroke-width="1px" stroke="#BCBCBC" fill="#BCBCBC"/>
          <path clip-path="url(#clip-2130324323)" d="M 0.3748,0.3073 L 0.3748,0.3148 L 3.4256,0.3148 L 3.4256,0.3073 L 0.3748,0.3073 Z" stroke-width="1px" stroke="#B9B9B9" fill="#B9B9B9"/>
          <path clip-path="url(#clip-2130324323)" d="M 0.3748,0.3148 L 0.3748,0.3223 L 3.4256,0.3223 L 3.4256,0.3148 L 0.3748,0.3148 Z" stroke-width="1px" stroke="#B7B7B7" fill="#B7B7B7"/>
          <path clip-path="url(#clip-2130324323)" d="M 0.3748,0.3223 L 0.3748,0.3298 L 3.4256,0.3298 L 3.4256,0.3223 L 0.3748,0.3223 Z" stroke-width="1px" stroke="#B4B4B4" fill="#B4B4B4"/>
          <path clip-path="url(#clip-2130324323)" d="M 0.3748,0.3298 L 0.3748,0.3373 L 3.4256,0.3373 L 3.4256,0.3298 L 0.3748,0.3298 Z" stroke-width="1px" stroke="#B1B1B1" fill="#B1B1B1"/>
          <path clip-path="url(#clip-2130324323)" d="M 0.3748,0.3373 L 0.3748,0.3448 L 3.4256,0.3448 L 3.4256,0.3373 L 0.3748,0.3373 Z" stroke-width="1px" stroke="#AFAFAF" fill="#AFAFAF"/>
          <path clip-path="url(#clip-2130324323)" d="M 0.3748,0.3448 L 0.3748,0.3523 L 3.4256,0.3523 L 3.4256,0.3448 L 0.3748,0.3448 Z" stroke-width="1px" stroke="#ACACAC" fill="#ACACAC"/>
          <path clip-path="url(#clip-2130324323)" d="M 0.3748,0.3523 L 0.3748,0.3598 L 3.4256,0.3598 L 3.4256,0.3523 L 0.3748,0.3523 Z" stroke-width="1px" stroke="#A9A9A9" fill="#A9A9A9"/>
          <path clip-path="url(#clip-2130324323)" d="M 0.3748,0.3598 L 0.3748,0.3673 L 3.4256,0.3673 L 3.4256,0.3598 L 0.3748,0.3598 Z" stroke-width="1px" stroke="#A6A6A6" fill="#A6A6A6"/>
          <path clip-path="url(#clip-2130324323)" d="M 0.3748,0.3673 L 0.3748,0.3748 L 3.4256,0.3748 L 3.4256,0.3673 L 0.3748,0.3673 Z" stroke-width="1px" stroke="#A3A3A3" fill="#A3A3A3"/>
          <path clip-path="url(#clip-2130324323)" d="M 0.3748,0.3748 L 0.3748,0.3823 L 3.4256,0.3823 L 3.4256,0.3748 L 0.3748,0.3748 Z" stroke-width="1px" stroke="#A1A1A1" fill="#A1A1A1"/>
          <path clip-path="url(#clip-2130324323)" d="M 0.3748,0.3823 L 0.3748,0.3898 L 3.4256,0.3898 L 3.4256,0.3823 L 0.3748,0.3823 Z" stroke-width="1px" stroke="#9E9E9E" fill="#9E9E9E"/>
          <path clip-path="url(#clip-2130324323)" d="M 0.3748,0.3898 L 0.3748,0.3973 L 3.4256,0.3973 L 3.4256,0.3898 L 0.3748,0.3898 Z" stroke-width="1px" stroke="#9B9B9B" fill="#9B9B9B"/>
          <path clip-path="url(#clip-2130324323)" d="M 0.3748,0.3973 L 0.3748,0.4048 L 3.4256,0.4048 L 3.4256,0.3973 L 0.3748,0.3973 Z" stroke-width="1px" stroke="#999999" fill="#999999"/>
          <path clip-path="url(#clip-2130324323)" d="M 0.3748,0.4048 L 0.3748,0.4123 L 3.4256,0.4123 L 3.4256,0.4048 L 0.3748,0.4048 Z" stroke-width="1px" stroke="#969696" fill="#969696"/>
          <path clip-path="url(#clip-2130324323)" d="M 0.3748,0.4123 L 0.3748,0.4198 L 3.4256,0.4198 L 3.4256,0.4123 L 0.3748,0.4123 Z" stroke-width="1px" stroke="#949494" fill="#949494"/>
          <path clip-path="url(#clip-2130324323)" d="M 0.3748,0.4198 L 0.3748,0.4273 L 3.4256,0.4273 L 3.4256,0.4198 L 0.3748,0.4198 Z" stroke-width="1px" stroke="#919191" fill="#919191"/>
          <path clip-path="url(#clip-2130324323)" d="M 0.3748,0.4273 L 0.3748,0.4348 L 3.4256,0.4348 L 3.4256,0.4273 L 0.3748,0.4273 Z" stroke-width="1px" stroke="#8E8E8E" fill="#8E8E8E"/>
        </g>
        <g transform="matrix(0.0625 0.0000 0.0000 0.0625 0.0000 0.0000)">
          <path d="M 6.1391,6.8062 L 54.6971,6.8062 L 54.6971,0.1799 L 6.1391,0.1799 L 6.1391,6.8062 Z" stroke="#808080" stroke-width="0.0075" stroke-linecap="round" stroke-linejoin="round" fill="none"/>
        </g>
        <g transform="matrix(1.0000 0.0000 0.0000 1.0000 0.0000 0.0000)">
</g>
        <g transform="matrix(0.0625 0.0000 0.0000 0.0625 0.0000 0.0000)">
          <path d="M 49.2476,29.6535 C 49.2476,26.8501 46.9764,24.5713 44.1729,24.5713 C 41.3695,24.5713 39.0983,26.8426 39.0983,29.6535 C 39.0983,32.4570 41.3695,34.7282 44.1729,34.7282 C 46.9764,34.7282 49.2476,32.4570 49.2476,29.6535 Z M 21.8054,29.6535 C 21.8054,26.8501 19.5341,24.5713 16.7307,24.5713 C 13.9273,24.5713 11.6560,26.8426 11.6560,29.6535 C 11.6560,32.4570 13.9273,34.7282 16.7307,34.7282 C 19.5341,34.7282 21.8054,32.4570 21.8054,29.6535 Z " fill="#4D4D4D" stroke="none"/>
        </g>
        <g transform="matrix(1.0000 0.0000 0.0000 1.0000 0.0000 0.0000)">
</g>
        <g transform="matrix(0.0625 0.0000 0.0000 0.0625 0.0000 0.0000)">
          <path d="M 49.2476,29.6535 C 49.2476,26.8501 46.9764,24.5713 44.1729,24.5713 C 41.3695,24.5713 39.0983,26.8426 39.0983,29.6535 C 39.0983,32.4570 41.3695,34.7282 44.1729,34.7282 C 46.9764,34.7282 49.2476,32.4570 49.2476,29.6535 Z M 21.8054,29.6535 C 21.8054,26.8501 19.5341,24.5713 16.7307,24.5713 C 13.9273,24.5713 11.6560,26.8426 11.6560,29.6535 C 11.6560,32.4570 13.9273,34.7282 16.7307,34.7282 C 19.5341,34.7282 21.8054,32.4570 21.8054,29.6535 Z " stroke="#333333" stroke-width="0.0075" stroke-linecap="round" stroke-linejoin="round" fill="none"/>
        </g>
        <g transform="matrix(1.0000 0.0000 0.0000 1.0000 0.0000 0.0000)">
</g>
        <g transform="matrix(0.0625 0.0000 0.0000 0.0625 0.0000 0.0000)">
          <path d="M 19.4892,29.6535 C 19.4892,28.1244 18.2524,26.8876 16.7307,26.8876 C 15.2090,26.8876 13.9722,28.1244 13.9722,29.6535 C 13.9722,31.1752 15.2090,32.4120 16.7307,32.4120 C 18.2524,32.4120 19.4892,31.1752 19.4892,29.6535 Z M 46.9314,29.6535 C 46.9314,28.1244 45.6946,26.8876 44.1729,26.8876 C 42.6438,26.8876 41.4145,28.1244 41.4145,29.6535 C 41.4145,31.1752 42.6438,32.4120 44.1729,32.4120 C 45.6946,32.4120 46.9314,31.1752 46.9314,29.6535 Z " fill="#1A1A1A" stroke="none"/>
        </g>
        <g transform="matrix(1.0000 0.0000 0.0000 1.0000 0.0000 0.0000)">
</g>
        <g transform="matrix(0.0625 0.0000 0.0000 0.0625 0.0000 0.0000)">
          <path d="M 19.4892,29.6535 C 19.4892,28.1244 18.2524,26.8876 16.7307,26.8876 C 15.2090,26.8876 13.9722,28.1244 13.9722,29.6535 C 13.9722,31.1752 15.2090,32.4120 16.7307,32.4120 C 18.2524,32.4120 19.4892,31.1752 19.4892,29.6535 Z M 46.9314,29.6535 C 46.9314,28.1244 45.6946,26.8876 44.1729,26.8876 C 42.6438,26.8876 41.4145,28.1244 41.4145,29.6535 C 41.4145,31.1752 42.6438,32.4120 44.1729,32.4120 C 45.6946,32.4120 46.9314,31.1752 46.9314,29.6535 Z " stroke="#666666" stroke-width="0.0075" stroke-linecap="round" stroke-linejoin="round" fill="none"/>
        </g>
        <g transform="matrix(1.0000 0.0000 0.0000 1.0000 0.0000 0.0000)">
</g>
      </g>
      <!--emf-blob end-->
    </g>
  </g>
</svg>
