<svg xmlns="http://www.w3.org/2000/svg" xmlns:xlink="http://www.w3.org/1999/xlink" version="1.1" width="5.0400000000" height="2.2320000000">
  <title><![CDATA[MPO QSFP]]></title>
  <g transform=" scale(1.000000) ">
    <!--converted by libvisio2svg-->
    <g transform=" translate(-0.223800,-0.257400) ">
      <!--emf-blob start-->
      <g transform="translate(-0.0000, -0.0000)">
        <g transform="matrix(0.0625 0.0000 0.0000 0.0625 0.0000 0.0000)">
          <path d="M 1.7990,1.7990 L 1.7990,41.5272 L 85.3032,41.5272 L 85.3032,1.7990 L 1.7990,1.7990 Z" stroke-width="1px" stroke="#F2F2F2" fill="#F2F2F2"/>
        </g>
        <g transform="matrix(1.0000 0.0000 0.0000 1.0000 0.0000 0.0000)">
</g>
        <g transform="matrix(0.0625 0.0000 0.0000 0.0625 0.0000 0.0000)">
          <path d="M 1.7990,41.5272 L 85.3032,41.5272 L 85.3032,1.7990 L 1.7990,1.7990 L 1.7990,41.5272 Z" stroke="#595959" stroke-width="0.0750" stroke-linecap="round" stroke-linejoin="round" fill="none"/>
        </g>
        <g transform="matrix(1.0000 0.0000 0.0000 1.0000 0.0000 0.0000)">
</g>
        <g transform="matrix(0.0625 0.0000 0.0000 0.0625 0.0000 0.0000)">
          <path d="M 14.7669,21.6631 C 14.7669,28.1845 17.0157,34.4811 21.0635,39.5783 L 21.0635,39.5783 L 66.1138,39.5783 C 70.1615,34.4811 72.3353,28.1845 72.3353,21.6631 C 72.3353,15.2167 70.1615,8.8452 66.1138,3.8229 L 66.1138,3.8229 L 21.0635,3.8229 C 17.0157,8.8452 14.7669,15.2167 14.7669,21.6631 Z " fill="#808080" stroke="none"/>
        </g>
        <g transform="matrix(1.0000 0.0000 0.0000 1.0000 0.0000 0.0000)">
</g>
        <g transform="matrix(0.0625 0.0000 0.0000 0.0625 0.0000 0.0000)">
          <path d="M 14.7669,21.6631 C 14.7669,28.1845 17.0157,34.4811 21.0635,39.5783 L 21.0635,39.5783 L 66.1138,39.5783 C 70.1615,34.4811 72.3353,28.1845 72.3353,21.6631 C 72.3353,15.2167 70.1615,8.8452 66.1138,3.8229 L 66.1138,3.8229 L 21.0635,3.8229 C 17.0157,8.8452 14.7669,15.2167 14.7669,21.6631 Z " stroke="#9A9A9A" stroke-width="0.0750" stroke-linecap="round" stroke-linejoin="round" fill="none"/>
        </g>
        <g transform="matrix(1.0000 0.0000 0.0000 1.0000 0.0000 0.0000)">
</g>
        <g transform="matrix(0.0625 0.0000 0.0000 0.0625 0.0000 0.0000)">
          <path d="M 70.7612,31.1829 C 71.8106,28.1845 72.3353,24.9613 72.3353,21.6631 C 72.3353,18.4399 71.8106,15.2167 70.7612,12.1433 L 70.7612,12.1433 L 16.4160,12.1433 C 15.3666,15.2167 14.7669,18.4399 14.7669,21.6631 C 14.7669,24.9613 15.3666,28.1845 16.4160,31.1829 L 16.4160,31.1829 L 70.7612,31.1829 Z " fill="#666666" stroke="none"/>
        </g>
        <g transform="matrix(1.0000 0.0000 0.0000 1.0000 0.0000 0.0000)">
</g>
        <g transform="matrix(0.0625 0.0000 0.0000 0.0625 0.0000 0.0000)">
          <path d="M 70.7612,31.1829 C 71.8106,28.1845 72.3353,24.9613 72.3353,21.6631 C 72.3353,18.4399 71.8106,15.2167 70.7612,12.1433 L 70.7612,12.1433 L 16.4160,12.1433 C 15.3666,15.2167 14.7669,18.4399 14.7669,21.6631 C 14.7669,24.9613 15.3666,28.1845 16.4160,31.1829 L 16.4160,31.1829 L 70.7612,31.1829 Z " stroke="#9A9A9A" stroke-width="0.0750" stroke-linecap="round" stroke-linejoin="round" fill="none"/>
        </g>
        <g transform="matrix(1.0000 0.0000 0.0000 1.0000 0.0000 0.0000)">
</g>
        <g transform="matrix(0.0625 0.0000 0.0000 0.0625 0.0000 0.0000)">
          <path d="M 21.2883,21.6631 C 21.2883,25.7109 22.4127,29.6088 24.4366,33.0569 L 24.4366,33.0569 L 62.6656,33.0569 C 64.7645,29.6088 65.8139,25.7109 65.8139,21.6631 C 65.8139,17.6903 64.7645,13.7924 62.6656,10.3443 L 62.6656,10.3443 L 24.4366,10.3443 C 22.4127,13.7924 21.2883,17.6903 21.2883,21.6631 Z " fill="#1A1A1A" stroke="none"/>
        </g>
        <g transform="matrix(1.0000 0.0000 0.0000 1.0000 0.0000 0.0000)">
</g>
        <g transform="matrix(0.0625 0.0000 0.0000 0.0625 0.0000 0.0000)">
          <path d="M 21.2883,21.6631 C 21.2883,25.7109 22.4127,29.6088 24.4366,33.0569 L 24.4366,33.0569 L 62.6656,33.0569 C 64.7645,29.6088 65.8139,25.7109 65.8139,21.6631 C 65.8139,17.6903 64.7645,13.7924 62.6656,10.3443 L 62.6656,10.3443 L 24.4366,10.3443 C 22.4127,13.7924 21.2883,17.6903 21.2883,21.6631 Z " stroke="#333333" stroke-width="0.0750" stroke-linecap="round" stroke-linejoin="round" fill="none"/>
        </g>
        <g transform="matrix(1.0000 0.0000 0.0000 1.0000 0.0000 0.0000)">
</g>
        <g transform="matrix(0.0625 0.0000 0.0000 0.0625 0.0000 0.0000)">
          <path d="M 35.6055,6.8962 L 35.6055,10.3443 L 51.4968,10.3443 L 51.4968,6.8962 L 35.6055,6.8962 Z" stroke-width="1px" stroke="#333333" fill="#333333"/>
        </g>
        <g transform="matrix(1.0000 0.0000 0.0000 1.0000 0.0000 0.0000)">
</g>
        <g transform="matrix(0.0625 0.0000 0.0000 0.0625 0.0000 0.0000)">
          <path d="M 35.6055,10.3443 L 51.4968,10.3443 L 51.4968,6.8962 L 35.6055,6.8962 L 35.6055,10.3443 Z" stroke="#333333" stroke-width="0.0750" stroke-linecap="round" stroke-linejoin="round" fill="none"/>
        </g>
        <g transform="matrix(1.0000 0.0000 0.0000 1.0000 0.0000 0.0000)">
</g>
        <g transform="matrix(0.0625 0.0000 0.0000 0.0625 0.0000 0.0000)">
          <path d="M 67.4630,27.3600 L 70.1615,27.3600 C 70.5363,25.4860 70.7612,23.6121 70.7612,21.6631 C 70.7612,19.7892 70.5363,17.9152 70.1615,16.0412 L 67.4630,16.0412 C 67.8378,17.9152 68.0627,19.7892 68.0627,21.6631 C 68.0627,23.6121 67.8378,25.4860 67.4630,27.3600 Z M 19.7142,16.0412 L 16.9407,16.0412 C 16.5659,17.9152 16.3410,19.7892 16.3410,21.6631 C 16.3410,23.6121 16.5659,25.4860 16.9407,27.3600 L 16.9407,27.3600 L 19.7142,27.3600 C 19.2644,25.4860 19.1145,23.6121 19.1145,21.6631 C 19.1145,19.7892 19.2644,17.9152 19.7142,16.0412 Z " fill="#B3B3B3" stroke="none"/>
        </g>
        <g transform="matrix(1.0000 0.0000 0.0000 1.0000 0.0000 0.0000)">
</g>
        <g transform="matrix(0.0625 0.0000 0.0000 0.0625 0.0000 0.0000)">
          <path d="M 67.4630,27.3600 L 70.1615,27.3600 C 70.5363,25.4860 70.7612,23.6121 70.7612,21.6631 C 70.7612,19.7892 70.5363,17.9152 70.1615,16.0412 L 67.4630,16.0412 C 67.8378,17.9152 68.0627,19.7892 68.0627,21.6631 C 68.0627,23.6121 67.8378,25.4860 67.4630,27.3600 Z M 19.7142,16.0412 L 16.9407,16.0412 C 16.5659,17.9152 16.3410,19.7892 16.3410,21.6631 C 16.3410,23.6121 16.5659,25.4860 16.9407,27.3600 L 16.9407,27.3600 L 19.7142,27.3600 C 19.2644,25.4860 19.1145,23.6121 19.1145,21.6631 C 19.1145,19.7892 19.2644,17.9152 19.7142,16.0412 Z " stroke="#9A9A9A" stroke-width="0.0750" stroke-linecap="round" stroke-linejoin="round" fill="none"/>
        </g>
        <g transform="matrix(1.0000 0.0000 0.0000 1.0000 0.0000 0.0000)">
          <path d="M 1.5741,1.0494 L 1.2743,1.0494 C 1.2743,1.1244 1.1993,1.2743 1.1993,1.4242 C 1.1993,1.4992 1.2743,1.6491 1.2743,1.7241 L 1.2743,1.7241 L 1.5741,1.7241 C 1.5741,1.6491 1.5741,1.4992 1.5741,1.4242 C 1.5741,1.2743 1.5741,1.1244 1.5741,1.0494 Z M 3.9728,1.0494 C 3.9728,1.1244 3.9728,1.2743 3.9728,1.4242 C 3.9728,1.4992 3.9728,1.6491 3.9728,1.7241 L 3.9728,1.7241 L 4.2727,1.7241 C 4.2727,1.6491 4.2727,1.4992 4.2727,1.4242 C 4.2727,1.2743 4.2727,1.1244 4.2727,1.0494 L 4.2727,1.0494 L 3.9728,1.0494 Z " fill="none" stroke="none"/>
          <defs>
            <clipPath id="clip-849394218">
              <path d="M 1.5741,1.0494 L 1.2743,1.0494 C 1.2743,1.1244 1.1993,1.2743 1.1993,1.4242 C 1.1993,1.4992 1.2743,1.6491 1.2743,1.7241 L 1.2743,1.7241 L 1.5741,1.7241 C 1.5741,1.6491 1.5741,1.4992 1.5741,1.4242 C 1.5741,1.2743 1.5741,1.1244 1.5741,1.0494 M 3.9728,1.0494 C 3.9728,1.1244 3.9728,1.2743 3.9728,1.4242 C 3.9728,1.4992 3.9728,1.6491 3.9728,1.7241 L 3.9728,1.7241 L 4.2727,1.7241 C 4.2727,1.6491 4.2727,1.4992 4.2727,1.4242 C 4.2727,1.2743 4.2727,1.1244 4.2727,1.0494 L 4.2727,1.0494 L 3.9728,1.0494 Z"/>
            </clipPath>
          </defs>
          <path clip-path="url(#clip-849394218)" d="M 1.0494,0.8995 L 1.0494,1.7990 L 1.1244,1.7990 L 1.1244,0.8995 L 1.0494,0.8995 Z" stroke-width="1px" stroke="#949494" fill="#949494"/>
          <path clip-path="url(#clip-849394218)" d="M 1.1244,0.8995 L 1.1244,1.7990 L 1.1993,1.7990 L 1.1993,0.8995 L 1.1244,0.8995 Z" stroke-width="1px" stroke="#999999" fill="#999999"/>
          <path clip-path="url(#clip-849394218)" d="M 1.1993,0.8995 L 1.1993,1.7990 L 1.2743,1.7990 L 1.2743,0.8995 L 1.1993,0.8995 Z" stroke-width="1px" stroke="#929292" fill="#929292"/>
          <path clip-path="url(#clip-849394218)" d="M 1.2743,0.8995 L 1.2743,1.7990 L 1.3493,1.7990 L 1.3493,0.8995 L 1.2743,0.8995 Z" stroke-width="1px" stroke="#8B8B8B" fill="#8B8B8B"/>
          <path clip-path="url(#clip-849394218)" d="M 1.3493,0.8995 L 1.3493,1.7990 L 1.4242,1.7990 L 1.4242,0.8995 L 1.3493,0.8995 Z" stroke-width="1px" stroke="#848484" fill="#848484"/>
          <path clip-path="url(#clip-849394218)" d="M 1.4242,0.8995 L 1.4242,1.7990 L 1.4992,1.7990 L 1.4992,0.8995 L 1.4242,0.8995 Z" stroke-width="1px" stroke="#7D7D7D" fill="#7D7D7D"/>
          <path clip-path="url(#clip-849394218)" d="M 1.4992,0.8995 L 1.4992,1.7990 L 1.5741,1.7990 L 1.5741,0.8995 L 1.4992,0.8995 Z" stroke-width="1px" stroke="#767676" fill="#767676"/>
          <path clip-path="url(#clip-849394218)" d="M 1.5741,0.8995 L 1.5741,1.7990 L 1.6491,1.7990 L 1.6491,0.8995 L 1.5741,0.8995 Z" stroke-width="1px" stroke="#6E6E6E" fill="#6E6E6E"/>
          <path clip-path="url(#clip-849394218)" d="M 1.6491,0.8995 L 1.6491,1.7990 L 1.7241,1.7990 L 1.7241,0.8995 L 1.6491,0.8995 Z" stroke-width="1px" stroke="#676767" fill="#676767"/>
          <path clip-path="url(#clip-849394218)" d="M 1.7241,0.8995 L 1.7241,1.7990 L 1.7990,1.7990 L 1.7990,0.8995 L 1.7241,0.8995 Z" stroke-width="1px" stroke="#5F5F5F" fill="#5F5F5F"/>
          <path clip-path="url(#clip-849394218)" d="M 1.7990,0.8995 L 1.7990,1.7990 L 1.8740,1.7990 L 1.8740,0.8995 L 1.7990,0.8995 Z" stroke-width="1px" stroke="#585858" fill="#585858"/>
          <path clip-path="url(#clip-849394218)" d="M 1.8740,0.8995 L 1.8740,1.7990 L 1.9489,1.7990 L 1.9489,0.8995 L 1.8740,0.8995 Z" stroke-width="1px" stroke="#515151" fill="#515151"/>
          <path clip-path="url(#clip-849394218)" d="M 1.9489,0.8995 L 1.9489,1.7990 L 2.0239,1.7990 L 2.0239,0.8995 L 1.9489,0.8995 Z" stroke-width="1px" stroke="#4A4A4A" fill="#4A4A4A"/>
          <path clip-path="url(#clip-849394218)" d="M 2.0239,0.8995 L 2.0239,1.7990 L 2.0988,1.7990 L 2.0988,0.8995 L 2.0239,0.8995 Z" stroke-width="1px" stroke="#434343" fill="#434343"/>
          <path clip-path="url(#clip-849394218)" d="M 2.0988,0.8995 L 2.0988,1.7990 L 2.1738,1.7990 L 2.1738,0.8995 L 2.0988,0.8995 Z" stroke-width="1px" stroke="#3C3C3C" fill="#3C3C3C"/>
          <path clip-path="url(#clip-849394218)" d="M 2.1738,0.8995 L 2.1738,1.7990 L 2.2488,1.7990 L 2.2488,0.8995 L 2.1738,0.8995 Z" stroke-width="1px" stroke="#353535" fill="#353535"/>
          <path clip-path="url(#clip-849394218)" d="M 2.2488,0.8995 L 2.2488,1.7990 L 2.3237,1.7990 L 2.3237,0.8995 L 2.2488,0.8995 Z" stroke-width="1px" stroke="#2E2E2E" fill="#2E2E2E"/>
          <path clip-path="url(#clip-849394218)" d="M 2.3237,0.8995 L 2.3237,1.7990 L 2.3987,1.7990 L 2.3987,0.8995 L 2.3237,0.8995 Z" stroke-width="1px" stroke="#272727" fill="#272727"/>
          <path clip-path="url(#clip-849394218)" d="M 2.3987,0.8995 L 2.3987,1.7990 L 2.4736,1.7990 L 2.4736,0.8995 L 2.3987,0.8995 Z" stroke-width="1px" stroke="#1F1F1F" fill="#1F1F1F"/>
          <path clip-path="url(#clip-849394218)" d="M 2.4736,0.8995 L 2.4736,1.7990 L 2.5486,1.7990 L 2.5486,0.8995 L 2.4736,0.8995 Z" stroke-width="1px" stroke="#181818" fill="#181818"/>
          <path clip-path="url(#clip-849394218)" d="M 2.5486,0.8995 L 2.5486,1.7990 L 2.6236,1.7990 L 2.6236,0.8995 L 2.5486,0.8995 Z" stroke-width="1px" stroke="#101010" fill="#101010"/>
          <path clip-path="url(#clip-849394218)" d="M 2.6236,0.8995 L 2.6236,1.7990 L 2.6985,1.7990 L 2.6985,0.8995 L 2.6236,0.8995 Z" stroke-width="1px" stroke="#090909" fill="#090909"/>
          <path clip-path="url(#clip-849394218)" d="M 2.6985,0.8995 L 2.6985,1.7990 L 2.7735,1.7990 L 2.7735,0.8995 L 2.6985,0.8995 Z" stroke-width="1px" stroke="#020202" fill="#020202"/>
          <path clip-path="url(#clip-849394218)" d="M 2.7735,0.8995 L 2.7735,1.7990 L 2.8484,1.7990 L 2.8484,0.8995 L 2.7735,0.8995 Z" stroke-width="1px" stroke="#050505" fill="#050505"/>
          <path clip-path="url(#clip-849394218)" d="M 2.8484,0.8995 L 2.8484,1.7990 L 2.9234,1.7990 L 2.9234,0.8995 L 2.8484,0.8995 Z" stroke-width="1px" stroke="#0C0C0C" fill="#0C0C0C"/>
          <path clip-path="url(#clip-849394218)" d="M 2.9234,0.8995 L 2.9234,1.7990 L 2.9984,1.7990 L 2.9984,0.8995 L 2.9234,0.8995 Z" stroke-width="1px" stroke="#131313" fill="#131313"/>
          <path clip-path="url(#clip-849394218)" d="M 2.9984,0.8995 L 2.9984,1.7990 L 3.0733,1.7990 L 3.0733,0.8995 L 2.9984,0.8995 Z" stroke-width="1px" stroke="#1B1B1B" fill="#1B1B1B"/>
          <path clip-path="url(#clip-849394218)" d="M 3.0733,0.8995 L 3.0733,1.7990 L 3.1483,1.7990 L 3.1483,0.8995 L 3.0733,0.8995 Z" stroke-width="1px" stroke="#222222" fill="#222222"/>
          <path clip-path="url(#clip-849394218)" d="M 3.1483,0.8995 L 3.1483,1.7990 L 3.2232,1.7990 L 3.2232,0.8995 L 3.1483,0.8995 Z" stroke-width="1px" stroke="#292929" fill="#292929"/>
          <path clip-path="url(#clip-849394218)" d="M 3.2232,0.8995 L 3.2232,1.7990 L 3.2982,1.7990 L 3.2982,0.8995 L 3.2232,0.8995 Z" stroke-width="1px" stroke="#313131" fill="#313131"/>
          <path clip-path="url(#clip-849394218)" d="M 3.2982,0.8995 L 3.2982,1.7990 L 3.3732,1.7990 L 3.3732,0.8995 L 3.2982,0.8995 Z" stroke-width="1px" stroke="#383838" fill="#383838"/>
          <path clip-path="url(#clip-849394218)" d="M 3.3732,0.8995 L 3.3732,1.7990 L 3.4481,1.7990 L 3.4481,0.8995 L 3.3732,0.8995 Z" stroke-width="1px" stroke="#3F3F3F" fill="#3F3F3F"/>
          <path clip-path="url(#clip-849394218)" d="M 3.4481,0.8995 L 3.4481,1.7990 L 3.5231,1.7990 L 3.5231,0.8995 L 3.4481,0.8995 Z" stroke-width="1px" stroke="#464646" fill="#464646"/>
          <path clip-path="url(#clip-849394218)" d="M 3.5231,0.8995 L 3.5231,1.7990 L 3.5980,1.7990 L 3.5980,0.8995 L 3.5231,0.8995 Z" stroke-width="1px" stroke="#4D4D4D" fill="#4D4D4D"/>
          <path clip-path="url(#clip-849394218)" d="M 3.5980,0.8995 L 3.5980,1.7990 L 3.6730,1.7990 L 3.6730,0.8995 L 3.5980,0.8995 Z" stroke-width="1px" stroke="#545454" fill="#545454"/>
          <path clip-path="url(#clip-849394218)" d="M 3.6730,0.8995 L 3.6730,1.7990 L 3.7479,1.7990 L 3.7479,0.8995 L 3.6730,0.8995 Z" stroke-width="1px" stroke="#5B5B5B" fill="#5B5B5B"/>
          <path clip-path="url(#clip-849394218)" d="M 3.7479,0.8995 L 3.7479,1.7990 L 3.8229,1.7990 L 3.8229,0.8995 L 3.7479,0.8995 Z" stroke-width="1px" stroke="#626262" fill="#626262"/>
          <path clip-path="url(#clip-849394218)" d="M 3.8229,0.8995 L 3.8229,1.7990 L 3.8979,1.7990 L 3.8979,0.8995 L 3.8229,0.8995 Z" stroke-width="1px" stroke="#6A6A6A" fill="#6A6A6A"/>
          <path clip-path="url(#clip-849394218)" d="M 3.8979,0.8995 L 3.8979,1.7990 L 3.9728,1.7990 L 3.9728,0.8995 L 3.8979,0.8995 Z" stroke-width="1px" stroke="#717171" fill="#717171"/>
          <path clip-path="url(#clip-849394218)" d="M 3.9728,0.8995 L 3.9728,1.7990 L 4.0478,1.7990 L 4.0478,0.8995 L 3.9728,0.8995 Z" stroke-width="1px" stroke="#797979" fill="#797979"/>
          <path clip-path="url(#clip-849394218)" d="M 4.0478,0.8995 L 4.0478,1.7990 L 4.1227,1.7990 L 4.1227,0.8995 L 4.0478,0.8995 Z" stroke-width="1px" stroke="#808080" fill="#808080"/>
          <path clip-path="url(#clip-849394218)" d="M 4.1227,0.8995 L 4.1227,1.7990 L 4.1977,1.7990 L 4.1977,0.8995 L 4.1227,0.8995 Z" stroke-width="1px" stroke="#878787" fill="#878787"/>
          <path clip-path="url(#clip-849394218)" d="M 4.1977,0.8995 L 4.1977,1.7990 L 4.2727,1.7990 L 4.2727,0.8995 L 4.1977,0.8995 Z" stroke-width="1px" stroke="#8E8E8E" fill="#8E8E8E"/>
        </g>
        <g transform="matrix(0.0625 0.0000 0.0000 0.0625 0.0000 0.0000)">
          <path d="M 24.6615,16.0412 L 19.7142,16.0412 C 19.2644,17.9152 19.1145,19.7892 19.1145,21.6631 C 19.1145,23.6121 19.2644,25.4860 19.7142,27.3600 L 19.7142,27.3600 L 24.6615,27.3600 C 24.2867,25.4860 24.0618,23.6121 24.0618,21.6631 C 24.0618,19.7892 24.2867,17.9152 24.6615,16.0412 Z M 62.4408,16.0412 C 62.8905,17.9152 63.0404,19.7892 63.0404,21.6631 C 63.0404,23.6121 62.8905,25.4860 62.4408,27.3600 L 62.4408,27.3600 L 67.4630,27.3600 C 67.8378,25.4860 68.0627,23.6121 68.0627,21.6631 C 68.0627,19.7892 67.8378,17.9152 67.4630,16.0412 L 67.4630,16.0412 L 62.4408,16.0412 Z " stroke="#9A9A9A" stroke-width="0.0750" stroke-linecap="round" stroke-linejoin="round" fill="none"/>
        </g>
        <g transform="matrix(1.0000 0.0000 0.0000 1.0000 0.0000 0.0000)">
</g>
        <g transform="matrix(0.0625 0.0000 0.0000 0.0625 0.0000 0.0000)">
          <path d="M 27.7348,15.1417 L 27.7348,28.2595 C 27.7348,28.8592 28.1845,29.3839 28.8592,29.3839 L 58.3180,29.3839 C 58.9177,29.3839 59.4424,28.8592 59.4424,28.2595 C 59.4424,28.2595 59.4424,28.2595 59.4424,28.2595 L 59.4424,15.1417 C 59.4424,14.4671 58.9177,14.0173 58.3180,14.0173 L 58.3180,14.0173 L 28.8592,14.0173 C 28.1845,14.0173 27.7348,14.4671 27.7348,15.1417 Z " fill="#808080" stroke="none"/>
        </g>
        <g transform="matrix(1.0000 0.0000 0.0000 1.0000 0.0000 0.0000)">
</g>
        <g transform="matrix(0.0625 0.0000 0.0000 0.0625 0.0000 0.0000)">
          <path d="M 27.7348,15.1417 L 27.7348,28.2595 C 27.7348,28.8592 28.1845,29.3839 28.8592,29.3839 L 58.3180,29.3839 C 58.9177,29.3839 59.4424,28.8592 59.4424,28.2595 C 59.4424,28.2595 59.4424,28.2595 59.4424,28.2595 L 59.4424,15.1417 C 59.4424,14.4671 58.9177,14.0173 58.3180,14.0173 L 58.3180,14.0173 L 28.8592,14.0173 C 28.1845,14.0173 27.7348,14.4671 27.7348,15.1417 Z " stroke="#333333" stroke-width="0.0750" stroke-linecap="round" stroke-linejoin="round" fill="none"/>
        </g>
        <g transform="matrix(1.0000 0.0000 0.0000 1.0000 0.0000 0.0000)">
</g>
        <g transform="matrix(0.0625 0.0000 0.0000 0.0625 0.0000 0.0000)">
          <path d="M 55.6945,21.6631 C 55.6945,20.7636 54.9449,20.0140 53.9704,20.0140 C 53.0709,20.0140 52.3213,20.7636 52.3213,21.6631 C 52.3213,22.6376 53.0709,23.3872 53.9704,23.3872 C 54.9449,23.3872 55.6945,22.6376 55.6945,21.6631 " fill="#1A1A1A" stroke="none"/>
        </g>
        <g transform="matrix(1.0000 0.0000 0.0000 1.0000 0.0000 0.0000)">
</g>
        <g transform="matrix(0.0625 0.0000 0.0000 0.0625 0.0000 0.0000)">
          <path d="M 55.6945,21.6631 M 55.6945,21.6631 C 55.6945,20.7636 54.9449,20.0140 53.9704,20.0140 C 53.0709,20.0140 52.3213,20.7636 52.3213,21.6631 C 52.3213,22.6376 53.0709,23.3872 53.9704,23.3872 C 54.9449,23.3872 55.6945,22.6376 55.6945,21.6631 " stroke="#333333" stroke-width="0.0750" stroke-linecap="round" stroke-linejoin="round" fill="none"/>
        </g>
        <g transform="matrix(1.0000 0.0000 0.0000 1.0000 0.0000 0.0000)">
</g>
        <g transform="matrix(0.0625 0.0000 0.0000 0.0625 0.0000 0.0000)">
          <path d="M 34.8559,21.6631 C 34.8559,20.7636 34.1063,20.0140 33.1318,20.0140 C 32.2323,20.0140 31.4827,20.7636 31.4827,21.6631 C 31.4827,22.6376 32.2323,23.3872 33.1318,23.3872 C 34.1063,23.3872 34.8559,22.6376 34.8559,21.6631 " fill="#1A1A1A" stroke="none"/>
        </g>
        <g transform="matrix(1.0000 0.0000 0.0000 1.0000 0.0000 0.0000)">
</g>
        <g transform="matrix(0.0625 0.0000 0.0000 0.0625 0.0000 0.0000)">
          <path d="M 34.8559,21.6631 M 34.8559,21.6631 C 34.8559,20.7636 34.1063,20.0140 33.1318,20.0140 C 32.2323,20.0140 31.4827,20.7636 31.4827,21.6631 C 31.4827,22.6376 32.2323,23.3872 33.1318,23.3872 C 34.1063,23.3872 34.8559,22.6376 34.8559,21.6631 " stroke="#333333" stroke-width="0.0750" stroke-linecap="round" stroke-linejoin="round" fill="none"/>
        </g>
        <g transform="matrix(1.0000 0.0000 0.0000 1.0000 0.0000 0.0000)">
</g>
      </g>
      <!--emf-blob end-->
    </g>
  </g>
</svg>
