<svg xmlns="http://www.w3.org/2000/svg" xmlns:xlink="http://www.w3.org/1999/xlink" version="1.1" width="22.4640000000" height="7.2000000000">
  <title><![CDATA[X1150A Fibre Module]]></title>
  <g transform=" scale(1.000000) ">
    <g xmlns="http://www.w3.org/2000/svg" id="Layer1668">
      <path d="  M19.2949,5.3400 L19.0365,0.4080 L18.8376,0.4080 A0.1800,0.1800 0.0000 0,1 18.6576,0.2280 L18.6576,0.0480 L3.4485,0.0480 L3.4485,0.2280 A0.1800,0.1800 0.0000 0,1 3.2685,0.4080 L3.0696,0.4080 L2.8111,5.3400 L2.9530,5.3400 A0.1800,0.1800 0.0000 0,1 3.1330,5.5200 L3.1330,5.7360 L18.9730,5.7360 L18.9730,5.5200 A0.1800,0.1800 0.0000 0,1 19.1530,5.3400 L19.2949,5.3400 Z" style="stroke-width: 0.0000; stroke-linecap: round; stroke-linejoin: round; fill-rule: evenodd; fill: #e6e6e6; "/>
      <path d="  M19.2949,5.3400 L19.0365,0.4080 L18.8376,0.4080 A0.1800,0.1800 0.0000 0,1 18.6576,0.2280 L18.6576,0.0480 L3.4485,0.0480 L3.4485,0.2280 A0.1800,0.1800 0.0000 0,1 3.2685,0.4080 L3.0696,0.4080 L2.8111,5.3400 L2.9530,5.3400 A0.1800,0.1800 0.0000 0,1 3.1330,5.5200 L3.1330,5.7360 L18.9730,5.7360 L18.9730,5.5200 A0.1800,0.1800 0.0000 0,1 19.1530,5.3400 L19.2949,5.3400 Z" style="stroke-width: 0.0000; stroke: #808080; stroke-dasharray: none; stroke-linecap: round; stroke-linejoin: round; fill: none; "/>
    </g>
    <g xmlns="http://www.w3.org/2000/svg" id="Layer1669">
      <path d="  M7.1640,7.1760 L8.6040,7.1760 L8.6040,5.0160 L7.1640,5.0160 L7.1640,7.1760 Z" style="stroke-width: 0.0000; stroke-linecap: round; stroke-linejoin: round; fill-rule: evenodd; fill: #595959; "/>
      <path d="  M7.1640,7.1760 L8.6040,7.1760 L8.6040,5.0160 L7.1640,5.0160 L7.1640,7.1760 Z" style="stroke-width: 0.0000; stroke: #404040; stroke-dasharray: none; stroke-linecap: round; stroke-linejoin: round; fill: none; "/>
    </g>
    <g xmlns="http://www.w3.org/2000/svg" id="Layer1670">
      <path d="  M14.4820,5.7360 A3.6000,3.6000 0.0000 0,1 13.6111,5.6291 L11.5811,5.1229 A3.6000,3.6000 0.0000 0,0 10.7102,5.0160 L8.5320,5.0160 A0.1440,0.1440 0.0000 0,0 8.3880,5.1600 L8.3880,7.0320 A0.1440,0.1440 0.0000 0,0 8.5320,7.1760 L22.4640,7.1760 L22.4640,5.7360 L14.4820,5.7360 Z M5.0616,5.7360 L0.0000,5.7360 L0.0000,7.1760 L7.2360,7.1760 A0.1440,0.1440 0.0000 0,0 7.3800,7.0320 L7.3800,5.1600 A0.1440,0.1440 0.0000 0,0 7.2360,5.0160 L6.2424,5.0160 A0.3600,0.3600 0.0000 0,0 6.0229,5.0907 L5.2811,5.6613 A0.3600,0.3600 0.0000 0,1 5.0616,5.7360 Z" style="stroke-width: 0.0000; stroke-linecap: round; stroke-linejoin: round; fill-rule: evenodd; fill: #666666; "/>
      <path d="  M14.4820,5.7360 A3.6000,3.6000 0.0000 0,1 13.6111,5.6291 L11.5811,5.1229 A3.6000,3.6000 0.0000 0,0 10.7102,5.0160 L8.5320,5.0160 A0.1440,0.1440 0.0000 0,0 8.3880,5.1600 L8.3880,7.0320 A0.1440,0.1440 0.0000 0,0 8.5320,7.1760 L22.4640,7.1760 L22.4640,5.7360 L14.4820,5.7360 Z M5.0616,5.7360 L0.0000,5.7360 L0.0000,7.1760 L7.2360,7.1760 A0.1440,0.1440 0.0000 0,0 7.3800,7.0320 L7.3800,5.1600 A0.1440,0.1440 0.0000 0,0 7.2360,5.0160 L6.2424,5.0160 A0.3600,0.3600 0.0000 0,0 6.0229,5.0907 L5.2811,5.6613 A0.3600,0.3600 0.0000 0,1 5.0616,5.7360 Z" style="stroke-width: 0.0000; stroke: #404040; stroke-dasharray: none; stroke-linecap: round; stroke-linejoin: round; fill: none; "/>
    </g>
    <path xmlns="http://www.w3.org/2000/svg" d="  M9.1800,6.9600 L21.3120,6.9600 L21.3120,5.9520 L14.1220,5.9520 A3.8160,3.8160 0.0000 0,1 13.1989,5.8386 L11.1689,5.3325 A3.3840,3.3840 0.0000 0,0 10.3502,5.2320 L9.1800,5.2320 L9.1800,6.9600 Z" style="fill-rule: evenodd; fill: #d9680d; "/>
    <path xmlns="http://www.w3.org/2000/svg" d="  M10.8634,6.0815 L10.2408,5.7562 L10.2394,6.4402 L10.8634,6.0815 Z" style="fill-rule: evenodd; fill: #404040; "/>
    <!--converted by libvisio2svg-->
    <g transform=" translate(2.011400,-1.001200) ">
      <!--emf-blob start-->
      <g transform="translate(-0.8248, -0.8248)">
        <g transform="matrix(0.0625 0.0000 0.0000 0.0625 0.0000 0.0000)">
          <path d="M 24.7448,113.0013 L 295.2882,113.0013 C 297.7626,113.0013 299.4123,110.5269 299.4123,108.0524 C 299.4123,108.0524 299.4123,108.0524 299.4123,108.0524 L 295.2882,28.0441 C 295.2882,26.3945 293.6385,23.9200 291.1640,23.9200 L 291.1640,23.9200 L 28.8690,23.9200 C 26.3945,23.9200 24.7448,26.3945 24.7448,28.0441 L 19.7959,108.0524 C 19.7959,110.5269 22.2703,113.0013 24.7448,113.0013 C 24.7448,113.0013 24.7448,113.0013 24.7448,113.0013 Z " fill="#333333" stroke="none"/>
        </g>
        <g transform="matrix(1.0000 0.0000 0.0000 1.0000 0.0000 0.0000)">
</g>
        <g transform="matrix(0.0625 0.0000 0.0000 0.0625 0.0000 0.0000)">
          <path d="M 74.2345,23.9200 L 74.2345,79.1834 L 60.2124,79.1834 L 60.2124,85.7820 L 74.2345,85.7820 L 74.2345,113.0013 L 245.7985,113.0013 L 245.7985,85.7820 L 258.9958,85.7820 L 258.9958,79.1834 L 245.7985,79.1834 L 245.7985,23.9200 L 74.2345,23.9200 Z" stroke-width="1px" stroke="#D9D9D9" fill="#D9D9D9"/>
        </g>
        <g transform="matrix(1.0000 0.0000 0.0000 1.0000 0.0000 0.0000)">
</g>
        <g transform="matrix(0.0625 0.0000 0.0000 0.0625 0.0000 0.0000)">
          <path d="M 65.1614,82.4827 C 65.1614,80.0082 63.5117,77.5338 60.2124,77.5338 C 57.7379,77.5338 56.0883,80.0082 56.0883,82.4827 C 56.0883,84.9572 57.7379,87.4317 60.2124,87.4317 C 63.5117,87.4317 65.1614,84.9572 65.1614,82.4827 Z M 263.9447,82.4827 C 263.9447,80.0082 262.2951,77.5338 258.9958,77.5338 C 256.5213,77.5338 254.8716,80.0082 254.8716,82.4827 C 254.8716,84.9572 256.5213,87.4317 258.9958,87.4317 C 262.2951,87.4317 263.9447,84.9572 263.9447,82.4827 Z " fill="#A6A6A6" stroke="none"/>
        </g>
        <g transform="matrix(1.0000 0.0000 0.0000 1.0000 0.0000 0.0000)">
</g>
        <g transform="matrix(0.0625 0.0000 0.0000 0.0625 0.0000 0.0000)">
          <path d="M 65.1614,82.4827 C 65.1614,80.0082 63.5117,77.5338 60.2124,77.5338 C 57.7379,77.5338 56.0883,80.0082 56.0883,82.4827 C 56.0883,84.9572 57.7379,87.4317 60.2124,87.4317 C 63.5117,87.4317 65.1614,84.9572 65.1614,82.4827 Z M 263.9447,82.4827 C 263.9447,80.0082 262.2951,77.5338 258.9958,77.5338 C 256.5213,77.5338 254.8716,80.0082 254.8716,82.4827 C 254.8716,84.9572 256.5213,87.4317 258.9958,87.4317 C 262.2951,87.4317 263.9447,84.9572 263.9447,82.4827 Z " stroke="#808080" stroke-width="0.8248" stroke-linecap="round" stroke-linejoin="round" fill="none"/>
        </g>
        <g transform="matrix(1.0000 0.0000 0.0000 1.0000 0.0000 0.0000)">
</g>
        <g transform="matrix(0.0625 0.0000 0.0000 0.0625 0.0000 0.0000)">
          <path d="M 164.1406,105.5779 L 158.3668,105.5779 L 158.3668,103.1034 L 150.9434,106.4027 L 161.6661,106.4027 L 161.6661,108.8772 L 169.0896,105.5779 L 164.1406,105.5779 Z M 150.9434,101.4538 L 169.0896,101.4538 L 169.0896,100.6289 L 150.9434,100.6289 L 150.9434,101.4538 Z M 150.9434,110.5269 L 169.0896,110.5269 L 169.0896,109.7020 L 150.9434,109.7020 L 150.9434,110.5269 Z " fill="#333333" stroke-width="1px" stroke="#333333"/>
        </g>
        <g transform="matrix(1.0000 0.0000 0.0000 1.0000 0.0000 0.0000)">
          <text font-family="Arial" fill="#D9D9D9" style="white-space:pre;" font-weight="400" text-anchor="start" x="1.6497" y="5.7738" font-size="0.8248"><![CDATA[LNK]]></text>
          <text font-family="Arial" fill="#D9D9D9" style="white-space:pre;" font-weight="400" text-anchor="start" x="16.4965" y="5.7738" font-size="0.8248"><![CDATA[LNK]]></text>
          <text font-family="Arial" fill="#333333" style="white-space:pre;" font-weight="400" text-anchor="start" x="7.4234" y="2.4745" font-size="1.6497"><![CDATA[1]]></text>
          <text font-family="Arial" fill="#333333" style="white-space:pre;" font-weight="400" text-anchor="start" x="7.4234" y="2.4745" font-size="1.6497"><![CDATA[a]]></text>
          <text font-family="Arial" fill="#333333" style="white-space:pre;" font-weight="400" text-anchor="start" x="11.5476" y="2.4745" font-size="1.6497"><![CDATA[1]]></text>
          <text font-family="Arial" fill="#333333" style="white-space:pre;" font-weight="400" text-anchor="start" x="12.3724" y="2.4745" font-size="1.6497"><![CDATA[b]]></text>
        </g>
        <g transform="matrix(0.0625 0.0000 0.0000 0.0625 0.0000 0.0000)">
          <path d="M 86.6069,43.7158 L 86.6069,95.6800 L 233.4261,95.6800 L 233.4261,43.7158 L 86.6069,43.7158 Z" stroke-width="1px" stroke="#1A1A1A" fill="#1A1A1A"/>
        </g>
        <g transform="matrix(1.0000 0.0000 0.0000 1.0000 0.0000 0.0000)">
</g>
        <g transform="matrix(0.0625 0.0000 0.0000 0.0625 0.0000 0.0000)">
          <path d="M 177.3379,92.3807 L 160.0165,92.3807 L 160.0165,45.3655 L 230.9516,45.3655 L 230.9516,92.3807 L 213.6303,92.3807 L 210.3310,95.6800 L 180.6372,95.6800 L 177.3379,92.3807 Z M 106.4027,92.3807 L 89.0813,92.3807 L 89.0813,45.3655 L 160.0165,45.3655 L 160.0165,92.3807 L 142.6951,92.3807 L 139.3958,95.6800 L 109.7020,95.6800 L 106.4027,92.3807 Z " fill="#1A1A1A" stroke-width="1px" stroke="#1A1A1A"/>
        </g>
        <g transform="matrix(1.0000 0.0000 0.0000 1.0000 0.0000 0.0000)">
</g>
        <g transform="matrix(0.0625 0.0000 0.0000 0.0625 0.0000 0.0000)">
          <path d="M 177.3379,92.3807 L 160.0165,92.3807 L 160.0165,45.3655 L 230.9516,45.3655 L 230.9516,92.3807 L 213.6303,92.3807 L 210.3310,95.6800 L 180.6372,95.6800 L 177.3379,92.3807 Z" stroke="#FFFFFF" stroke-width="1.6497" stroke-linecap="round" stroke-linejoin="round" fill="none"/>
          <path d="M 106.4027,92.3807 L 89.0813,92.3807 L 89.0813,45.3655 L 160.0165,45.3655 L 160.0165,92.3807 L 142.6951,92.3807 L 139.3958,95.6800 L 109.7020,95.6800 L 106.4027,92.3807 Z" stroke="#FFFFFF" stroke-width="1.6497" stroke-linecap="round" stroke-linejoin="round" fill="none"/>
        </g>
        <g transform="matrix(1.0000 0.0000 0.0000 1.0000 0.0000 0.0000)">
</g>
        <g transform="matrix(0.0625 0.0000 0.0000 0.0625 0.0000 0.0000)">
          <path d="M 182.2868,91.5558 L 160.0165,91.5558 L 160.0165,46.1903 L 230.9516,46.1903 L 230.9516,91.5558 L 208.6813,91.5558 L 206.2068,89.0813 L 184.7613,89.0813 L 182.2868,91.5558 Z M 111.3517,91.5558 L 89.0813,91.5558 L 89.0813,46.1903 L 160.0165,46.1903 L 160.0165,91.5558 L 136.9213,91.5558 L 135.2717,89.0813 L 113.8262,89.0813 L 111.3517,91.5558 Z " fill="#333333" stroke-width="1px" stroke="#333333"/>
        </g>
        <g transform="matrix(1.0000 0.0000 0.0000 1.0000 0.0000 0.0000)">
</g>
        <g transform="matrix(0.0625 0.0000 0.0000 0.0625 0.0000 0.0000)">
          <path d="M 182.2868,91.5558 L 160.0165,91.5558 L 160.0165,46.1903 L 230.9516,46.1903 L 230.9516,91.5558 L 208.6813,91.5558 L 206.2068,89.0813 L 184.7613,89.0813 L 182.2868,91.5558 Z" stroke="#FFFFFF" stroke-width="1.6497" stroke-linecap="round" stroke-linejoin="round" fill="none"/>
          <path d="M 111.3517,91.5558 L 89.0813,91.5558 L 89.0813,46.1903 L 160.0165,46.1903 L 160.0165,91.5558 L 136.9213,91.5558 L 135.2717,89.0813 L 113.8262,89.0813 L 111.3517,91.5558 Z" stroke="#FFFFFF" stroke-width="1.6497" stroke-linecap="round" stroke-linejoin="round" fill="none"/>
        </g>
        <g transform="matrix(1.0000 0.0000 0.0000 1.0000 0.0000 0.0000)">
</g>
      </g>
      <!--emf-blob end-->
    </g>
    <g transform=" translate(7.157600,1.222200) ">
      <!--emf-blob start-->
      <g transform="translate(-0.0000, -0.0000)">
        <g transform="matrix(0.0625 0.0000 0.0000 0.0625 0.0000 0.0000)">
          <path d="M 125.3494,54.5239 L 125.3494,45.2515 L 64.8315,45.2515 L 64.8315,54.5239 L 125.3494,54.5239 Z M 60.6980,54.5239 L 60.6980,45.2515 L 0.1800,45.2515 L 0.1800,54.5239 L 60.6980,54.5239 Z " fill="#9A9A9A" stroke-width="1px" stroke="#9A9A9A"/>
        </g>
        <g transform="matrix(1.0000 0.0000 0.0000 1.0000 0.0000 0.0000)">
</g>
        <g transform="matrix(0.0625 0.0000 0.0000 0.0625 0.0000 0.0000)">
          <path d="M 125.3494,54.5239 L 125.3494,45.2515 L 64.8315,45.2515 L 64.8315,54.5239 L 125.3494,54.5239 Z" stroke="#808080" stroke-width="0.0075" stroke-linecap="round" stroke-linejoin="round" fill="none"/>
          <path d="M 60.6980,54.5239 L 60.6980,45.2515 L 0.1800,45.2515 L 0.1800,54.5239 L 60.6980,54.5239 Z" stroke="#808080" stroke-width="0.0075" stroke-linecap="round" stroke-linejoin="round" fill="none"/>
        </g>
        <g transform="matrix(1.0000 0.0000 0.0000 1.0000 0.0000 0.0000)">
          <path d="M 7.8395,3.2933 C 7.8395,3.2258 7.7870,3.1733 7.7195,3.1733 L 4.1711,3.1733 C 4.1110,3.1733 4.0585,3.2258 4.0585,3.2933 C 4.0585,3.3609 4.1110,3.4134 4.1711,3.4134 L 7.7195,3.4134 C 7.7870,3.4134 7.8395,3.3609 7.8395,3.2933 C 7.8395,3.2933 7.8395,3.2933 7.8395,3.2933 Z M 3.7960,3.2933 C 3.7960,3.2258 3.7435,3.1733 3.6834,3.1733 L 0.1350,3.1733 C 0.0675,3.1733 0.0150,3.2258 0.0150,3.2933 C 0.0150,3.3609 0.0675,3.4134 0.1350,3.4134 L 0.1350,3.4134 L 3.6834,3.4134 C 3.7435,3.4134 3.7960,3.3609 3.7960,3.2933 C 3.7960,3.2933 3.7960,3.2933 3.7960,3.2933 Z " fill="none" stroke="none"/>
          <defs>
            <clipPath id="clip-76810012">
              <path d="M 7.8395,3.2933 C 7.8395,3.2258 7.7870,3.1733 7.7195,3.1733 L 4.1711,3.1733 C 4.1110,3.1733 4.0585,3.2258 4.0585,3.2933 C 4.0585,3.3609 4.1110,3.4134 4.1711,3.4134 L 7.7195,3.4134 C 7.7870,3.4134 7.8395,3.3609 7.8395,3.2933 C 7.8395,3.2933 7.8395,3.2933 7.8395,3.2933 M 3.7960,3.2933 C 3.7960,3.2258 3.7435,3.1733 3.6834,3.1733 L 0.1350,3.1733 C 0.0675,3.1733 0.0150,3.2258 0.0150,3.2933 C 0.0150,3.3609 0.0675,3.4134 0.1350,3.4134 L 0.1350,3.4134 L 3.6834,3.4134 C 3.7435,3.4134 3.7960,3.3609 3.7960,3.2933 C 3.7960,3.2933 3.7960,3.2933 3.7960,3.2933 Z"/>
            </clipPath>
          </defs>
          <path clip-path="url(#clip-76810012)" d="M 0.0000,3.1658 L 0.0000,3.1733 L 7.8395,3.1733 L 7.8395,3.1658 L 0.0000,3.1658 Z" stroke-width="1px" stroke="#CCD3D7" fill="#CCD3D7"/>
          <path clip-path="url(#clip-76810012)" d="M 0.0000,3.1733 L 0.0000,3.1808 L 7.8395,3.1808 L 7.8395,3.1733 L 0.0000,3.1733 Z" stroke-width="1px" stroke="#CDD4D8" fill="#CDD4D8"/>
          <path clip-path="url(#clip-76810012)" d="M 0.0000,3.1808 L 0.0000,3.1883 L 7.8395,3.1883 L 7.8395,3.1808 L 0.0000,3.1808 Z" stroke-width="1px" stroke="#CED5D9" fill="#CED5D9"/>
          <path clip-path="url(#clip-76810012)" d="M 0.0000,3.1883 L 0.0000,3.1958 L 7.8395,3.1958 L 7.8395,3.1883 L 0.0000,3.1883 Z" stroke-width="1px" stroke="#CFD6DA" fill="#CFD6DA"/>
          <path clip-path="url(#clip-76810012)" d="M 0.0000,3.1958 L 0.0000,3.2033 L 7.8395,3.2033 L 7.8395,3.1958 L 0.0000,3.1958 Z" stroke-width="1px" stroke="#D1D7DB" fill="#D1D7DB"/>
          <path clip-path="url(#clip-76810012)" d="M 0.0000,3.2033 L 0.0000,3.2108 L 7.8395,3.2108 L 7.8395,3.2033 L 0.0000,3.2033 Z" stroke-width="1px" stroke="#D2D8DC" fill="#D2D8DC"/>
          <path clip-path="url(#clip-76810012)" d="M 0.0000,3.2108 L 0.0000,3.2183 L 7.8395,3.2183 L 7.8395,3.2108 L 0.0000,3.2108 Z" stroke-width="1px" stroke="#D3D9DD" fill="#D3D9DD"/>
          <path clip-path="url(#clip-76810012)" d="M 0.0000,3.2183 L 0.0000,3.2258 L 7.8395,3.2258 L 7.8395,3.2183 L 0.0000,3.2183 Z" stroke-width="1px" stroke="#D4DADE" fill="#D4DADE"/>
          <path clip-path="url(#clip-76810012)" d="M 0.0000,3.2258 L 0.0000,3.2333 L 7.8395,3.2333 L 7.8395,3.2258 L 0.0000,3.2258 Z" stroke-width="1px" stroke="#D6DBDF" fill="#D6DBDF"/>
          <path clip-path="url(#clip-76810012)" d="M 0.0000,3.2333 L 0.0000,3.2408 L 7.8395,3.2408 L 7.8395,3.2333 L 0.0000,3.2333 Z" stroke-width="1px" stroke="#D7DCDF" fill="#D7DCDF"/>
          <path clip-path="url(#clip-76810012)" d="M 0.0000,3.2408 L 0.0000,3.2483 L 7.8395,3.2483 L 7.8395,3.2408 L 0.0000,3.2408 Z" stroke-width="1px" stroke="#D8DDE0" fill="#D8DDE0"/>
          <path clip-path="url(#clip-76810012)" d="M 0.0000,3.2483 L 0.0000,3.2558 L 7.8395,3.2558 L 7.8395,3.2483 L 0.0000,3.2483 Z" stroke-width="1px" stroke="#D9DEE1" fill="#D9DEE1"/>
          <path clip-path="url(#clip-76810012)" d="M 0.0000,3.2558 L 0.0000,3.2633 L 7.8395,3.2633 L 7.8395,3.2558 L 0.0000,3.2558 Z" stroke-width="1px" stroke="#DADFE2" fill="#DADFE2"/>
          <path clip-path="url(#clip-76810012)" d="M 0.0000,3.2633 L 0.0000,3.2708 L 7.8395,3.2708 L 7.8395,3.2633 L 0.0000,3.2633 Z" stroke-width="1px" stroke="#DBE0E3" fill="#DBE0E3"/>
          <path clip-path="url(#clip-76810012)" d="M 0.0000,3.2708 L 0.0000,3.2783 L 7.8395,3.2783 L 7.8395,3.2708 L 0.0000,3.2708 Z" stroke-width="1px" stroke="#DCE1E4" fill="#DCE1E4"/>
          <path clip-path="url(#clip-76810012)" d="M 0.0000,3.2783 L 0.0000,3.2858 L 7.8395,3.2858 L 7.8395,3.2783 L 0.0000,3.2783 Z" stroke-width="1px" stroke="#DDE1E4" fill="#DDE1E4"/>
          <path clip-path="url(#clip-76810012)" d="M 0.0000,3.2858 L 0.0000,3.2933 L 7.8395,3.2933 L 7.8395,3.2858 L 0.0000,3.2858 Z" stroke-width="1px" stroke="#DEE2E5" fill="#DEE2E5"/>
          <path clip-path="url(#clip-76810012)" d="M 0.0000,3.2933 L 0.0000,3.3008 L 7.8395,3.3008 L 7.8395,3.2933 L 0.0000,3.2933 Z" stroke-width="1px" stroke="#DFE3E6" fill="#DFE3E6"/>
          <path clip-path="url(#clip-76810012)" d="M 0.0000,3.3008 L 0.0000,3.3083 L 7.8395,3.3083 L 7.8395,3.3008 L 0.0000,3.3008 Z" stroke-width="1px" stroke="#DEE2E5" fill="#DEE2E5"/>
          <path clip-path="url(#clip-76810012)" d="M 0.0000,3.3083 L 0.0000,3.3158 L 7.8395,3.3158 L 7.8395,3.3083 L 0.0000,3.3083 Z" stroke-width="1px" stroke="#DDE1E4" fill="#DDE1E4"/>
          <path clip-path="url(#clip-76810012)" d="M 0.0000,3.3158 L 0.0000,3.3233 L 7.8395,3.3233 L 7.8395,3.3158 L 0.0000,3.3158 Z" stroke-width="1px" stroke="#DBE0E3" fill="#DBE0E3"/>
          <path clip-path="url(#clip-76810012)" d="M 0.0000,3.3233 L 0.0000,3.3308 L 7.8395,3.3308 L 7.8395,3.3233 L 0.0000,3.3233 Z" stroke-width="1px" stroke="#DADFE2" fill="#DADFE2"/>
          <path clip-path="url(#clip-76810012)" d="M 0.0000,3.3308 L 0.0000,3.3384 L 7.8395,3.3384 L 7.8395,3.3308 L 0.0000,3.3308 Z" stroke-width="1px" stroke="#D9DEE1" fill="#D9DEE1"/>
          <path clip-path="url(#clip-76810012)" d="M 0.0000,3.3384 L 0.0000,3.3459 L 7.8395,3.3459 L 7.8395,3.3384 L 0.0000,3.3384 Z" stroke-width="1px" stroke="#D8DDE0" fill="#D8DDE0"/>
          <path clip-path="url(#clip-76810012)" d="M 0.0000,3.3459 L 0.0000,3.3534 L 7.8395,3.3534 L 7.8395,3.3459 L 0.0000,3.3459 Z" stroke-width="1px" stroke="#D7DCDF" fill="#D7DCDF"/>
          <path clip-path="url(#clip-76810012)" d="M 0.0000,3.3534 L 0.0000,3.3609 L 7.8395,3.3609 L 7.8395,3.3534 L 0.0000,3.3534 Z" stroke-width="1px" stroke="#D6DBDF" fill="#D6DBDF"/>
          <path clip-path="url(#clip-76810012)" d="M 0.0000,3.3609 L 0.0000,3.3684 L 7.8395,3.3684 L 7.8395,3.3609 L 0.0000,3.3609 Z" stroke-width="1px" stroke="#D4DADE" fill="#D4DADE"/>
          <path clip-path="url(#clip-76810012)" d="M 0.0000,3.3684 L 0.0000,3.3759 L 7.8395,3.3759 L 7.8395,3.3684 L 0.0000,3.3684 Z" stroke-width="1px" stroke="#D3D9DD" fill="#D3D9DD"/>
          <path clip-path="url(#clip-76810012)" d="M 0.0000,3.3759 L 0.0000,3.3834 L 7.8395,3.3834 L 7.8395,3.3759 L 0.0000,3.3759 Z" stroke-width="1px" stroke="#D2D8DC" fill="#D2D8DC"/>
          <path clip-path="url(#clip-76810012)" d="M 0.0000,3.3834 L 0.0000,3.3909 L 7.8395,3.3909 L 7.8395,3.3834 L 0.0000,3.3834 Z" stroke-width="1px" stroke="#D1D7DB" fill="#D1D7DB"/>
          <path clip-path="url(#clip-76810012)" d="M 0.0000,3.3909 L 0.0000,3.3984 L 7.8395,3.3984 L 7.8395,3.3909 L 0.0000,3.3909 Z" stroke-width="1px" stroke="#D0D6DA" fill="#D0D6DA"/>
          <path clip-path="url(#clip-76810012)" d="M 0.0000,3.3984 L 0.0000,3.4059 L 7.8395,3.4059 L 7.8395,3.3984 L 0.0000,3.3984 Z" stroke-width="1px" stroke="#CED5D9" fill="#CED5D9"/>
          <path clip-path="url(#clip-76810012)" d="M 0.0000,3.4059 L 0.0000,3.4134 L 7.8395,3.4134 L 7.8395,3.4059 L 0.0000,3.4059 Z" stroke-width="1px" stroke="#CDD4D8" fill="#CDD4D8"/>
          <path clip-path="url(#clip-76810012)" d="M 0.0000,3.4134 L 0.0000,3.4209 L 7.8395,3.4209 L 7.8395,3.4134 L 0.0000,3.4134 Z" stroke-width="1px" stroke="#CCD3D7" fill="#CCD3D7"/>
        </g>
        <g transform="matrix(0.0625 0.0000 0.0000 0.0625 0.0000 0.0000)">
          <path d="M 125.3494,52.6484 C 125.3494,51.6132 124.5017,50.7729 123.4665,50.7729 L 66.7070,50.7729 C 65.6717,50.7729 64.8315,51.6132 64.8315,52.6484 C 64.8315,53.6837 65.6717,54.5239 66.7070,54.5239 L 123.4665,54.5239 C 124.5017,54.5239 125.3494,53.6837 125.3494,52.6484 C 125.3494,52.6484 125.3494,52.6484 125.3494,52.6484 Z M 60.6980,52.6484 C 60.6980,51.6132 59.8578,50.7729 58.8225,50.7729 L 2.0630,50.7729 C 1.0278,50.7729 0.1800,51.6132 0.1800,52.6484 C 0.1800,53.6837 1.0278,54.5239 2.0630,54.5239 L 2.0630,54.5239 L 58.8225,54.5239 C 59.8578,54.5239 60.6980,53.6837 60.6980,52.6484 C 60.6980,52.6484 60.6980,52.6484 60.6980,52.6484 Z " stroke="#A0B0B6" stroke-width="0.0075" stroke-linecap="round" stroke-linejoin="round" fill="none"/>
        </g>
        <g transform="matrix(1.0000 0.0000 0.0000 1.0000 0.0000 0.0000)">
</g>
        <g transform="matrix(0.0625 0.0000 0.0000 0.0625 0.0000 0.0000)">
          <path d="M 36.6243,15.4239 L 0.1800,15.4239 L 0.1800,45.2515 L 9.0173,45.2515 L 9.0173,54.5239 L 51.8682,54.5239 L 51.8682,45.2515 L 60.6980,45.2515 L 60.6980,15.4239 L 36.6243,15.4239 Z M 101.2683,15.4239 L 64.8315,15.4239 L 64.8315,45.2515 L 73.6613,45.2515 L 73.6613,54.5239 L 116.5122,54.5239 L 116.5122,45.2515 L 125.3494,45.2515 L 125.3494,15.4239 L 101.2683,15.4239 Z " fill="#D9D9D9" stroke-width="1px" stroke="#D9D9D9"/>
        </g>
        <g transform="matrix(1.0000 0.0000 0.0000 1.0000 0.0000 0.0000)">
</g>
        <g transform="matrix(0.0625 0.0000 0.0000 0.0625 0.0000 0.0000)">
          <path d="M 36.6243,15.4239 L 0.1800,15.4239 L 0.1800,45.2515 L 9.0173,45.2515 L 9.0173,54.5239 L 51.8682,54.5239 L 51.8682,45.2515 L 60.6980,45.2515 L 60.6980,15.4239 L 36.6243,15.4239 Z" stroke="#A6A6A6" stroke-width="0.0075" stroke-linecap="round" stroke-linejoin="round" fill="none"/>
          <path d="M 101.2683,15.4239 L 64.8315,15.4239 L 64.8315,45.2515 L 73.6613,45.2515 L 73.6613,54.5239 L 116.5122,54.5239 L 116.5122,45.2515 L 125.3494,45.2515 L 125.3494,15.4239 L 101.2683,15.4239 Z" stroke="#A6A6A6" stroke-width="0.0075" stroke-linecap="round" stroke-linejoin="round" fill="none"/>
        </g>
        <g transform="matrix(1.0000 0.0000 0.0000 1.0000 0.0000 0.0000)">
</g>
        <g transform="matrix(0.0625 0.0000 0.0000 0.0625 0.0000 0.0000)">
          <path d="M 108.7777,54.5239 L 108.7777,45.2515 L 81.3957,45.2515 L 81.3957,54.5239 L 108.7777,54.5239 Z M 44.1337,54.5239 L 44.1337,45.2515 L 16.7518,45.2515 L 16.7518,54.5239 L 44.1337,54.5239 Z " fill="#BFBFBF" stroke-width="1px" stroke="#BFBFBF"/>
        </g>
        <g transform="matrix(1.0000 0.0000 0.0000 1.0000 0.0000 0.0000)">
</g>
        <g transform="matrix(0.0625 0.0000 0.0000 0.0625 0.0000 0.0000)">
          <path d="M 108.7777,54.5239 L 108.7777,45.2515 L 81.3957,45.2515 L 81.3957,54.5239 L 108.7777,54.5239 Z" stroke="#808080" stroke-width="0.0075" stroke-linecap="round" stroke-linejoin="round" fill="none"/>
          <path d="M 44.1337,54.5239 L 44.1337,45.2515 L 16.7518,45.2515 L 16.7518,54.5239 L 44.1337,54.5239 Z" stroke="#808080" stroke-width="0.0075" stroke-linecap="round" stroke-linejoin="round" fill="none"/>
        </g>
        <g transform="matrix(1.0000 0.0000 0.0000 1.0000 0.0000 0.0000)">
          <path d="M 0.0150,0.9677 L 3.7960,0.9677 L 3.7960,0.4276 L 0.0150,0.4276 L 0.0150,0.9677 Z M 4.0585,0.9677 L 7.8395,0.9677 L 7.8395,0.4276 L 4.0585,0.4276 L 4.0585,0.9677 Z " fill="none" stroke="none"/>
          <defs>
            <clipPath id="clip-2047140186">
              <path d="M 0.0150,0.9677 L 3.7960,0.9677 L 3.7960,0.4276 L 0.0150,0.4276 L 0.0150,0.9677 Z M 4.0585,0.9677 L 7.8395,0.9677 L 7.8395,0.4276 L 4.0585,0.4276 L 4.0585,0.9677 Z Z"/>
            </clipPath>
          </defs>
          <path clip-path="url(#clip-2047140186)" d="M 0.0000,0.4126 L 0.0000,0.4201 L 7.8395,0.4201 L 7.8395,0.4126 L 0.0000,0.4126 Z" stroke-width="1px" stroke="#E6E6E6" fill="#E6E6E6"/>
          <path clip-path="url(#clip-2047140186)" d="M 0.0000,0.4201 L 0.0000,0.4276 L 7.8395,0.4276 L 7.8395,0.4201 L 0.0000,0.4201 Z" stroke-width="1px" stroke="#B3B3B3" fill="#B3B3B3"/>
          <path clip-path="url(#clip-2047140186)" d="M 0.0000,0.4276 L 0.0000,0.4351 L 7.8395,0.4351 L 7.8395,0.4276 L 0.0000,0.4276 Z" stroke-width="1px" stroke="#B4B4B4" fill="#B4B4B4"/>
          <path clip-path="url(#clip-2047140186)" d="M 0.0000,0.4351 L 0.0000,0.4501 L 7.8395,0.4501 L 7.8395,0.4351 L 0.0000,0.4351 Z" stroke-width="1px" stroke="#B5B5B5" fill="#B5B5B5"/>
          <path clip-path="url(#clip-2047140186)" d="M 0.0000,0.4501 L 0.0000,0.4651 L 7.8395,0.4651 L 7.8395,0.4501 L 0.0000,0.4501 Z" stroke-width="1px" stroke="#B6B6B6" fill="#B6B6B6"/>
          <path clip-path="url(#clip-2047140186)" d="M 0.0000,0.4651 L 0.0000,0.4726 L 7.8395,0.4726 L 7.8395,0.4651 L 0.0000,0.4651 Z" stroke-width="1px" stroke="#B7B7B7" fill="#B7B7B7"/>
          <path clip-path="url(#clip-2047140186)" d="M 0.0000,0.4726 L 0.0000,0.4876 L 7.8395,0.4876 L 7.8395,0.4726 L 0.0000,0.4726 Z" stroke-width="1px" stroke="#B8B8B8" fill="#B8B8B8"/>
          <path clip-path="url(#clip-2047140186)" d="M 0.0000,0.4876 L 0.0000,0.4951 L 7.8395,0.4951 L 7.8395,0.4876 L 0.0000,0.4876 Z" stroke-width="1px" stroke="#B9B9B9" fill="#B9B9B9"/>
          <path clip-path="url(#clip-2047140186)" d="M 0.0000,0.4951 L 0.0000,0.5026 L 7.8395,0.5026 L 7.8395,0.4951 L 0.0000,0.4951 Z" stroke-width="1px" stroke="#BABABA" fill="#BABABA"/>
          <path clip-path="url(#clip-2047140186)" d="M 0.0000,0.5026 L 0.0000,0.5101 L 7.8395,0.5101 L 7.8395,0.5026 L 0.0000,0.5026 Z" stroke-width="1px" stroke="#BBBBBB" fill="#BBBBBB"/>
          <path clip-path="url(#clip-2047140186)" d="M 0.0000,0.5101 L 0.0000,0.5176 L 7.8395,0.5176 L 7.8395,0.5101 L 0.0000,0.5101 Z" stroke-width="1px" stroke="#BCBCBC" fill="#BCBCBC"/>
          <path clip-path="url(#clip-2047140186)" d="M 0.0000,0.5176 L 0.0000,0.5326 L 7.8395,0.5326 L 7.8395,0.5176 L 0.0000,0.5176 Z" stroke-width="1px" stroke="#BDBDBD" fill="#BDBDBD"/>
          <path clip-path="url(#clip-2047140186)" d="M 0.0000,0.5326 L 0.0000,0.5401 L 7.8395,0.5401 L 7.8395,0.5326 L 0.0000,0.5326 Z" stroke-width="1px" stroke="#BEBEBE" fill="#BEBEBE"/>
          <path clip-path="url(#clip-2047140186)" d="M 0.0000,0.5401 L 0.0000,0.5551 L 7.8395,0.5551 L 7.8395,0.5401 L 0.0000,0.5401 Z" stroke-width="1px" stroke="#BFBFBF" fill="#BFBFBF"/>
          <path clip-path="url(#clip-2047140186)" d="M 0.0000,0.5551 L 0.0000,0.5626 L 7.8395,0.5626 L 7.8395,0.5551 L 0.0000,0.5551 Z" stroke-width="1px" stroke="#C0C0C0" fill="#C0C0C0"/>
          <path clip-path="url(#clip-2047140186)" d="M 0.0000,0.5626 L 0.0000,0.5776 L 7.8395,0.5776 L 7.8395,0.5626 L 0.0000,0.5626 Z" stroke-width="1px" stroke="#C1C1C1" fill="#C1C1C1"/>
          <path clip-path="url(#clip-2047140186)" d="M 0.0000,0.5776 L 0.0000,0.5851 L 7.8395,0.5851 L 7.8395,0.5776 L 0.0000,0.5776 Z" stroke-width="1px" stroke="#C2C2C2" fill="#C2C2C2"/>
          <path clip-path="url(#clip-2047140186)" d="M 0.0000,0.5851 L 0.0000,0.6002 L 7.8395,0.6002 L 7.8395,0.5851 L 0.0000,0.5851 Z" stroke-width="1px" stroke="#C3C3C3" fill="#C3C3C3"/>
          <path clip-path="url(#clip-2047140186)" d="M 0.0000,0.6002 L 0.0000,0.6152 L 7.8395,0.6152 L 7.8395,0.6002 L 0.0000,0.6002 Z" stroke-width="1px" stroke="#C4C4C4" fill="#C4C4C4"/>
          <path clip-path="url(#clip-2047140186)" d="M 0.0000,0.6152 L 0.0000,0.6227 L 7.8395,0.6227 L 7.8395,0.6152 L 0.0000,0.6152 Z" stroke-width="1px" stroke="#C5C5C5" fill="#C5C5C5"/>
          <path clip-path="url(#clip-2047140186)" d="M 0.0000,0.6227 L 0.0000,0.6377 L 7.8395,0.6377 L 7.8395,0.6227 L 0.0000,0.6227 Z" stroke-width="1px" stroke="#C6C6C6" fill="#C6C6C6"/>
          <path clip-path="url(#clip-2047140186)" d="M 0.0000,0.6377 L 0.0000,0.6452 L 7.8395,0.6452 L 7.8395,0.6377 L 0.0000,0.6377 Z" stroke-width="1px" stroke="#C7C7C7" fill="#C7C7C7"/>
          <path clip-path="url(#clip-2047140186)" d="M 0.0000,0.6452 L 0.0000,0.6602 L 7.8395,0.6602 L 7.8395,0.6452 L 0.0000,0.6452 Z" stroke-width="1px" stroke="#C8C8C8" fill="#C8C8C8"/>
          <path clip-path="url(#clip-2047140186)" d="M 0.0000,0.6602 L 0.0000,0.6677 L 7.8395,0.6677 L 7.8395,0.6602 L 0.0000,0.6602 Z" stroke-width="1px" stroke="#C9C9C9" fill="#C9C9C9"/>
          <path clip-path="url(#clip-2047140186)" d="M 0.0000,0.6677 L 0.0000,0.6752 L 7.8395,0.6752 L 7.8395,0.6677 L 0.0000,0.6677 Z" stroke-width="1px" stroke="#CACACA" fill="#CACACA"/>
          <path clip-path="url(#clip-2047140186)" d="M 0.0000,0.6752 L 0.0000,0.6827 L 7.8395,0.6827 L 7.8395,0.6752 L 0.0000,0.6752 Z" stroke-width="1px" stroke="#CBCBCB" fill="#CBCBCB"/>
          <path clip-path="url(#clip-2047140186)" d="M 0.0000,0.6827 L 0.0000,0.6977 L 7.8395,0.6977 L 7.8395,0.6827 L 0.0000,0.6827 Z" stroke-width="1px" stroke="#CCCCCC" fill="#CCCCCC"/>
          <path clip-path="url(#clip-2047140186)" d="M 0.0000,0.6977 L 0.0000,0.7052 L 7.8395,0.7052 L 7.8395,0.6977 L 0.0000,0.6977 Z" stroke-width="1px" stroke="#CDCDCD" fill="#CDCDCD"/>
          <path clip-path="url(#clip-2047140186)" d="M 0.0000,0.7052 L 0.0000,0.7127 L 7.8395,0.7127 L 7.8395,0.7052 L 0.0000,0.7052 Z" stroke-width="1px" stroke="#CECECE" fill="#CECECE"/>
          <path clip-path="url(#clip-2047140186)" d="M 0.0000,0.7127 L 0.0000,0.7277 L 7.8395,0.7277 L 7.8395,0.7127 L 0.0000,0.7127 Z" stroke-width="1px" stroke="#CFCFCF" fill="#CFCFCF"/>
          <path clip-path="url(#clip-2047140186)" d="M 0.0000,0.7277 L 0.0000,0.7352 L 7.8395,0.7352 L 7.8395,0.7277 L 0.0000,0.7277 Z" stroke-width="1px" stroke="#D0D0D0" fill="#D0D0D0"/>
          <path clip-path="url(#clip-2047140186)" d="M 0.0000,0.7352 L 0.0000,0.7502 L 7.8395,0.7502 L 7.8395,0.7352 L 0.0000,0.7352 Z" stroke-width="1px" stroke="#D1D1D1" fill="#D1D1D1"/>
          <path clip-path="url(#clip-2047140186)" d="M 0.0000,0.7502 L 0.0000,0.7652 L 7.8395,0.7652 L 7.8395,0.7502 L 0.0000,0.7502 Z" stroke-width="1px" stroke="#D2D2D2" fill="#D2D2D2"/>
          <path clip-path="url(#clip-2047140186)" d="M 0.0000,0.7652 L 0.0000,0.7727 L 7.8395,0.7727 L 7.8395,0.7652 L 0.0000,0.7652 Z" stroke-width="1px" stroke="#D3D3D3" fill="#D3D3D3"/>
          <path clip-path="url(#clip-2047140186)" d="M 0.0000,0.7727 L 0.0000,0.7877 L 7.8395,0.7877 L 7.8395,0.7727 L 0.0000,0.7727 Z" stroke-width="1px" stroke="#D4D4D4" fill="#D4D4D4"/>
          <path clip-path="url(#clip-2047140186)" d="M 0.0000,0.7877 L 0.0000,0.7952 L 7.8395,0.7952 L 7.8395,0.7877 L 0.0000,0.7877 Z" stroke-width="1px" stroke="#D5D5D5" fill="#D5D5D5"/>
          <path clip-path="url(#clip-2047140186)" d="M 0.0000,0.7952 L 0.0000,0.8102 L 7.8395,0.8102 L 7.8395,0.7952 L 0.0000,0.7952 Z" stroke-width="1px" stroke="#D6D6D6" fill="#D6D6D6"/>
          <path clip-path="url(#clip-2047140186)" d="M 0.0000,0.8102 L 0.0000,0.8177 L 7.8395,0.8177 L 7.8395,0.8102 L 0.0000,0.8102 Z" stroke-width="1px" stroke="#D7D7D7" fill="#D7D7D7"/>
          <path clip-path="url(#clip-2047140186)" d="M 0.0000,0.8177 L 0.0000,0.8327 L 7.8395,0.8327 L 7.8395,0.8177 L 0.0000,0.8177 Z" stroke-width="1px" stroke="#D8D8D8" fill="#D8D8D8"/>
          <path clip-path="url(#clip-2047140186)" d="M 0.0000,0.8327 L 0.0000,0.8402 L 7.8395,0.8402 L 7.8395,0.8327 L 0.0000,0.8327 Z" stroke-width="1px" stroke="#D9D9D9" fill="#D9D9D9"/>
          <path clip-path="url(#clip-2047140186)" d="M 0.0000,0.8402 L 0.0000,0.8552 L 7.8395,0.8552 L 7.8395,0.8402 L 0.0000,0.8402 Z" stroke-width="1px" stroke="#DADADA" fill="#DADADA"/>
          <path clip-path="url(#clip-2047140186)" d="M 0.0000,0.8552 L 0.0000,0.8627 L 7.8395,0.8627 L 7.8395,0.8552 L 0.0000,0.8552 Z" stroke-width="1px" stroke="#DBDBDB" fill="#DBDBDB"/>
          <path clip-path="url(#clip-2047140186)" d="M 0.0000,0.8627 L 0.0000,0.8777 L 7.8395,0.8777 L 7.8395,0.8627 L 0.0000,0.8627 Z" stroke-width="1px" stroke="#DCDCDC" fill="#DCDCDC"/>
          <path clip-path="url(#clip-2047140186)" d="M 0.0000,0.8777 L 0.0000,0.8852 L 7.8395,0.8852 L 7.8395,0.8777 L 0.0000,0.8777 Z" stroke-width="1px" stroke="#DDDDDD" fill="#DDDDDD"/>
          <path clip-path="url(#clip-2047140186)" d="M 0.0000,0.8852 L 0.0000,0.8927 L 7.8395,0.8927 L 7.8395,0.8852 L 0.0000,0.8852 Z" stroke-width="1px" stroke="#DEDEDE" fill="#DEDEDE"/>
          <path clip-path="url(#clip-2047140186)" d="M 0.0000,0.8927 L 0.0000,0.9002 L 7.8395,0.9002 L 7.8395,0.8927 L 0.0000,0.8927 Z" stroke-width="1px" stroke="#DFDFDF" fill="#DFDFDF"/>
          <path clip-path="url(#clip-2047140186)" d="M 0.0000,0.9002 L 0.0000,0.9152 L 7.8395,0.9152 L 7.8395,0.9002 L 0.0000,0.9002 Z" stroke-width="1px" stroke="#E0E0E0" fill="#E0E0E0"/>
          <path clip-path="url(#clip-2047140186)" d="M 0.0000,0.9152 L 0.0000,0.9227 L 7.8395,0.9227 L 7.8395,0.9152 L 0.0000,0.9152 Z" stroke-width="1px" stroke="#E1E1E1" fill="#E1E1E1"/>
          <path clip-path="url(#clip-2047140186)" d="M 0.0000,0.9227 L 0.0000,0.9377 L 7.8395,0.9377 L 7.8395,0.9227 L 0.0000,0.9227 Z" stroke-width="1px" stroke="#E2E2E2" fill="#E2E2E2"/>
          <path clip-path="url(#clip-2047140186)" d="M 0.0000,0.9377 L 0.0000,0.9452 L 7.8395,0.9452 L 7.8395,0.9377 L 0.0000,0.9377 Z" stroke-width="1px" stroke="#E3E3E3" fill="#E3E3E3"/>
          <path clip-path="url(#clip-2047140186)" d="M 0.0000,0.9452 L 0.0000,0.9602 L 7.8395,0.9602 L 7.8395,0.9452 L 0.0000,0.9452 Z" stroke-width="1px" stroke="#E4E4E4" fill="#E4E4E4"/>
          <path clip-path="url(#clip-2047140186)" d="M 0.0000,0.9602 L 0.0000,0.9677 L 7.8395,0.9677 L 7.8395,0.9602 L 0.0000,0.9602 Z" stroke-width="1px" stroke="#E5E5E5" fill="#E5E5E5"/>
        </g>
        <g transform="matrix(0.0625 0.0000 0.0000 0.0625 0.0000 0.0000)">
          <path d="M 0.1800,15.4314 L 60.6980,15.4314 L 60.6980,6.8117 L 0.1800,6.8117 L 0.1800,15.4314 Z" stroke="#A6A6A6" stroke-width="0.0075" stroke-linecap="round" stroke-linejoin="round" fill="none"/>
          <path d="M 64.8315,15.4314 L 125.3494,15.4314 L 125.3494,6.8117 L 64.8315,6.8117 L 64.8315,15.4314 Z" stroke="#A6A6A6" stroke-width="0.0075" stroke-linecap="round" stroke-linejoin="round" fill="none"/>
        </g>
        <g transform="matrix(1.0000 0.0000 0.0000 1.0000 0.0000 0.0000)">
</g>
        <g transform="matrix(0.0625 0.0000 0.0000 0.0625 0.0000 0.0000)">
          <path d="M 10.9303,6.4666 L 10.9303,11.0503 L 6.8793,11.0503 L 6.8793,15.4314 L 9.0698,15.4314 L 9.0698,19.2724 L 6.4366,19.2724 L 6.4366,35.8666 L 4.4936,35.8666 L 4.4936,39.8802 L 28.9949,39.8802 L 28.9949,35.8666 L 27.0444,35.8666 L 27.0444,19.2724 L 24.4187,19.2724 L 24.4187,15.4314 L 26.6093,15.4314 L 26.6093,11.0428 L 22.5507,11.0428 L 22.5507,6.4591 L 10.9303,6.4666 Z M 38.3948,6.4666 L 38.3948,11.0503 L 34.3363,11.0503 L 34.3363,15.4314 L 36.5343,15.4314 L 36.5343,19.2724 L 33.9011,19.2724 L 33.9011,35.8666 L 31.9506,35.8666 L 31.9506,39.8802 L 56.4594,39.8802 L 56.4594,35.8666 L 54.5089,35.8666 L 54.5089,19.2724 L 51.8832,19.2724 L 51.8832,15.4314 L 54.0738,15.4314 L 54.0738,11.0428 L 50.0152,11.0428 L 50.0152,6.4591 L 38.3948,6.4666 Z M 75.5743,6.4666 L 75.5743,11.0503 L 71.5232,11.0503 L 71.5232,15.4314 L 73.7138,15.4314 L 73.7138,19.2724 L 71.0881,19.2724 L 71.0881,35.8666 L 69.1376,35.8666 L 69.1376,39.8802 L 93.6389,39.8802 L 93.6389,35.8666 L 91.6884,35.8666 L 91.6884,19.2724 L 89.0627,19.2724 L 89.0627,15.4314 L 91.2533,15.4314 L 91.2533,11.0428 L 87.2022,11.0428 L 87.2022,6.4591 L 75.5743,6.4666 Z M 103.0388,6.4666 L 103.0388,11.0503 L 98.9802,11.0503 L 98.9802,15.4314 L 101.1783,15.4314 L 101.1783,19.2724 L 98.5451,19.2724 L 98.5451,35.8666 L 96.5946,35.8666 L 96.5946,39.8802 L 121.1034,39.8802 L 121.1034,35.8666 L 119.1529,35.8666 L 119.1529,19.2724 L 116.5272,19.2724 L 116.5272,15.4314 L 118.7178,15.4314 L 118.7178,11.0428 L 114.6592,11.0428 L 114.6592,6.4591 L 103.0388,6.4666 Z " fill="#666666" stroke-width="1px" stroke="#666666"/>
        </g>
        <g transform="matrix(1.0000 0.0000 0.0000 1.0000 0.0000 0.0000)">
</g>
        <g transform="matrix(0.0625 0.0000 0.0000 0.0625 0.0000 0.0000)">
          <path d="M 10.9303,6.4666 L 10.9303,11.0503 L 6.8793,11.0503 L 6.8793,15.4314 L 9.0698,15.4314 L 9.0698,19.2724 L 6.4366,19.2724 L 6.4366,35.8666 L 4.4936,35.8666 L 4.4936,39.8802 L 28.9949,39.8802 L 28.9949,35.8666 L 27.0444,35.8666 L 27.0444,19.2724 L 24.4187,19.2724 L 24.4187,15.4314 L 26.6093,15.4314 L 26.6093,11.0428 L 22.5507,11.0428 L 22.5507,6.4591 L 10.9303,6.4666 Z" stroke="#969696" stroke-width="0.0075" stroke-linecap="round" stroke-linejoin="round" fill="none"/>
          <path d="M 38.3948,6.4666 L 38.3948,11.0503 L 34.3363,11.0503 L 34.3363,15.4314 L 36.5343,15.4314 L 36.5343,19.2724 L 33.9011,19.2724 L 33.9011,35.8666 L 31.9506,35.8666 L 31.9506,39.8802 L 56.4594,39.8802 L 56.4594,35.8666 L 54.5089,35.8666 L 54.5089,19.2724 L 51.8832,19.2724 L 51.8832,15.4314 L 54.0738,15.4314 L 54.0738,11.0428 L 50.0152,11.0428 L 50.0152,6.4591 L 38.3948,6.4666 Z" stroke="#969696" stroke-width="0.0075" stroke-linecap="round" stroke-linejoin="round" fill="none"/>
          <path d="M 75.5743,6.4666 L 75.5743,11.0503 L 71.5232,11.0503 L 71.5232,15.4314 L 73.7138,15.4314 L 73.7138,19.2724 L 71.0881,19.2724 L 71.0881,35.8666 L 69.1376,35.8666 L 69.1376,39.8802 L 93.6389,39.8802 L 93.6389,35.8666 L 91.6884,35.8666 L 91.6884,19.2724 L 89.0627,19.2724 L 89.0627,15.4314 L 91.2533,15.4314 L 91.2533,11.0428 L 87.2022,11.0428 L 87.2022,6.4591 L 75.5743,6.4666 Z" stroke="#969696" stroke-width="0.0075" stroke-linecap="round" stroke-linejoin="round" fill="none"/>
          <path d="M 103.0388,6.4666 L 103.0388,11.0503 L 98.9802,11.0503 L 98.9802,15.4314 L 101.1783,15.4314 L 101.1783,19.2724 L 98.5451,19.2724 L 98.5451,35.8666 L 96.5946,35.8666 L 96.5946,39.8802 L 121.1034,39.8802 L 121.1034,35.8666 L 119.1529,35.8666 L 119.1529,19.2724 L 116.5272,19.2724 L 116.5272,15.4314 L 118.7178,15.4314 L 118.7178,11.0428 L 114.6592,11.0428 L 114.6592,6.4591 L 103.0388,6.4666 Z" stroke="#969696" stroke-width="0.0075" stroke-linecap="round" stroke-linejoin="round" fill="none"/>
        </g>
        <g transform="matrix(1.0000 0.0000 0.0000 1.0000 0.0000 0.0000)">
          <path d="M 7.8395,0.2251 C 7.8395,0.1575 7.7870,0.1050 7.7195,0.1050 L 7.7195,0.1050 L 4.1711,0.1050 C 4.1110,0.1050 4.0585,0.1575 4.0585,0.2251 C 4.0585,0.2851 4.1110,0.3376 4.1711,0.3376 L 7.7195,0.3376 C 7.7870,0.3376 7.8395,0.2851 7.8395,0.2251 C 7.8395,0.2251 7.8395,0.2251 7.8395,0.2251 Z M 3.7960,0.2251 C 3.7960,0.1575 3.7435,0.1050 3.6834,0.1050 L 3.6834,0.1050 L 0.1350,0.1050 C 0.0675,0.1050 0.0150,0.1575 0.0150,0.2251 C 0.0150,0.2851 0.0675,0.3376 0.1350,0.3376 L 0.1350,0.3376 L 3.6834,0.3376 C 3.7435,0.3376 3.7960,0.2851 3.7960,0.2251 C 3.7960,0.2251 3.7960,0.2251 3.7960,0.2251 Z " fill="none" stroke="none"/>
          <defs>
            <clipPath id="clip-1945972417">
              <path d="M 7.8395,0.2251 C 7.8395,0.1575 7.7870,0.1050 7.7195,0.1050 L 7.7195,0.1050 L 4.1711,0.1050 C 4.1110,0.1050 4.0585,0.1575 4.0585,0.2251 C 4.0585,0.2851 4.1110,0.3376 4.1711,0.3376 L 7.7195,0.3376 C 7.7870,0.3376 7.8395,0.2851 7.8395,0.2251 C 7.8395,0.2251 7.8395,0.2251 7.8395,0.2251 M 3.7960,0.2251 C 3.7960,0.1575 3.7435,0.1050 3.6834,0.1050 L 3.6834,0.1050 L 0.1350,0.1050 C 0.0675,0.1050 0.0150,0.1575 0.0150,0.2251 C 0.0150,0.2851 0.0675,0.3376 0.1350,0.3376 L 0.1350,0.3376 L 3.6834,0.3376 C 3.7435,0.3376 3.7960,0.2851 3.7960,0.2251 C 3.7960,0.2251 3.7960,0.2251 3.7960,0.2251 Z"/>
            </clipPath>
          </defs>
          <path clip-path="url(#clip-1945972417)" d="M 0.0000,0.0900 L 0.0000,0.0975 L 7.8395,0.0975 L 7.8395,0.0900 L 0.0000,0.0900 Z" stroke-width="1px" stroke="#CCD3D7" fill="#CCD3D7"/>
          <path clip-path="url(#clip-1945972417)" d="M 0.0000,0.0975 L 0.0000,0.1125 L 7.8395,0.1125 L 7.8395,0.0975 L 0.0000,0.0975 Z" stroke-width="1px" stroke="#CDD4D8" fill="#CDD4D8"/>
          <path clip-path="url(#clip-1945972417)" d="M 0.0000,0.1125 L 0.0000,0.1200 L 7.8395,0.1200 L 7.8395,0.1125 L 0.0000,0.1125 Z" stroke-width="1px" stroke="#CFD5D9" fill="#CFD5D9"/>
          <path clip-path="url(#clip-1945972417)" d="M 0.0000,0.1200 L 0.0000,0.1275 L 7.8395,0.1275 L 7.8395,0.1200 L 0.0000,0.1200 Z" stroke-width="1px" stroke="#D0D6DA" fill="#D0D6DA"/>
          <path clip-path="url(#clip-1945972417)" d="M 0.0000,0.1275 L 0.0000,0.1350 L 7.8395,0.1350 L 7.8395,0.1275 L 0.0000,0.1275 Z" stroke-width="1px" stroke="#D1D7DB" fill="#D1D7DB"/>
          <path clip-path="url(#clip-1945972417)" d="M 0.0000,0.1350 L 0.0000,0.1425 L 7.8395,0.1425 L 7.8395,0.1350 L 0.0000,0.1350 Z" stroke-width="1px" stroke="#D2D8DC" fill="#D2D8DC"/>
          <path clip-path="url(#clip-1945972417)" d="M 0.0000,0.1425 L 0.0000,0.1500 L 7.8395,0.1500 L 7.8395,0.1425 L 0.0000,0.1425 Z" stroke-width="1px" stroke="#D3D9DD" fill="#D3D9DD"/>
          <path clip-path="url(#clip-1945972417)" d="M 0.0000,0.1500 L 0.0000,0.1575 L 7.8395,0.1575 L 7.8395,0.1500 L 0.0000,0.1500 Z" stroke-width="1px" stroke="#D5DADE" fill="#D5DADE"/>
          <path clip-path="url(#clip-1945972417)" d="M 0.0000,0.1575 L 0.0000,0.1650 L 7.8395,0.1650 L 7.8395,0.1575 L 0.0000,0.1575 Z" stroke-width="1px" stroke="#D6DBDF" fill="#D6DBDF"/>
          <path clip-path="url(#clip-1945972417)" d="M 0.0000,0.1650 L 0.0000,0.1725 L 7.8395,0.1725 L 7.8395,0.1650 L 0.0000,0.1650 Z" stroke-width="1px" stroke="#D7DCE0" fill="#D7DCE0"/>
          <path clip-path="url(#clip-1945972417)" d="M 0.0000,0.1725 L 0.0000,0.1800 L 7.8395,0.1800 L 7.8395,0.1725 L 0.0000,0.1725 Z" stroke-width="1px" stroke="#D8DDE0" fill="#D8DDE0"/>
          <path clip-path="url(#clip-1945972417)" d="M 0.0000,0.1800 L 0.0000,0.1875 L 7.8395,0.1875 L 7.8395,0.1800 L 0.0000,0.1800 Z" stroke-width="1px" stroke="#D9DEE1" fill="#D9DEE1"/>
          <path clip-path="url(#clip-1945972417)" d="M 0.0000,0.1875 L 0.0000,0.1950 L 7.8395,0.1950 L 7.8395,0.1875 L 0.0000,0.1875 Z" stroke-width="1px" stroke="#DADFE2" fill="#DADFE2"/>
          <path clip-path="url(#clip-1945972417)" d="M 0.0000,0.1950 L 0.0000,0.2026 L 7.8395,0.2026 L 7.8395,0.1950 L 0.0000,0.1950 Z" stroke-width="1px" stroke="#DCE0E3" fill="#DCE0E3"/>
          <path clip-path="url(#clip-1945972417)" d="M 0.0000,0.2026 L 0.0000,0.2101 L 7.8395,0.2101 L 7.8395,0.2026 L 0.0000,0.2026 Z" stroke-width="1px" stroke="#DDE1E4" fill="#DDE1E4"/>
          <path clip-path="url(#clip-1945972417)" d="M 0.0000,0.2101 L 0.0000,0.2176 L 7.8395,0.2176 L 7.8395,0.2101 L 0.0000,0.2101 Z" stroke-width="1px" stroke="#DEE2E5" fill="#DEE2E5"/>
          <path clip-path="url(#clip-1945972417)" d="M 0.0000,0.2176 L 0.0000,0.2251 L 7.8395,0.2251 L 7.8395,0.2176 L 0.0000,0.2176 Z" stroke-width="1px" stroke="#DFE3E6" fill="#DFE3E6"/>
          <path clip-path="url(#clip-1945972417)" d="M 0.0000,0.2251 L 0.0000,0.2326 L 7.8395,0.2326 L 7.8395,0.2251 L 0.0000,0.2251 Z" stroke-width="1px" stroke="#DEE2E5" fill="#DEE2E5"/>
          <path clip-path="url(#clip-1945972417)" d="M 0.0000,0.2326 L 0.0000,0.2401 L 7.8395,0.2401 L 7.8395,0.2326 L 0.0000,0.2326 Z" stroke-width="1px" stroke="#DDE1E4" fill="#DDE1E4"/>
          <path clip-path="url(#clip-1945972417)" d="M 0.0000,0.2401 L 0.0000,0.2476 L 7.8395,0.2476 L 7.8395,0.2401 L 0.0000,0.2401 Z" stroke-width="1px" stroke="#DCE0E3" fill="#DCE0E3"/>
          <path clip-path="url(#clip-1945972417)" d="M 0.0000,0.2476 L 0.0000,0.2551 L 7.8395,0.2551 L 7.8395,0.2476 L 0.0000,0.2476 Z" stroke-width="1px" stroke="#DADFE2" fill="#DADFE2"/>
          <path clip-path="url(#clip-1945972417)" d="M 0.0000,0.2551 L 0.0000,0.2626 L 7.8395,0.2626 L 7.8395,0.2551 L 0.0000,0.2551 Z" stroke-width="1px" stroke="#D9DEE1" fill="#D9DEE1"/>
          <path clip-path="url(#clip-1945972417)" d="M 0.0000,0.2626 L 0.0000,0.2701 L 7.8395,0.2701 L 7.8395,0.2626 L 0.0000,0.2626 Z" stroke-width="1px" stroke="#D8DDE0" fill="#D8DDE0"/>
          <path clip-path="url(#clip-1945972417)" d="M 0.0000,0.2701 L 0.0000,0.2776 L 7.8395,0.2776 L 7.8395,0.2701 L 0.0000,0.2701 Z" stroke-width="1px" stroke="#D7DCE0" fill="#D7DCE0"/>
          <path clip-path="url(#clip-1945972417)" d="M 0.0000,0.2776 L 0.0000,0.2851 L 7.8395,0.2851 L 7.8395,0.2776 L 0.0000,0.2776 Z" stroke-width="1px" stroke="#D6DBDF" fill="#D6DBDF"/>
          <path clip-path="url(#clip-1945972417)" d="M 0.0000,0.2851 L 0.0000,0.2926 L 7.8395,0.2926 L 7.8395,0.2851 L 0.0000,0.2851 Z" stroke-width="1px" stroke="#D5DADE" fill="#D5DADE"/>
          <path clip-path="url(#clip-1945972417)" d="M 0.0000,0.2926 L 0.0000,0.3001 L 7.8395,0.3001 L 7.8395,0.2926 L 0.0000,0.2926 Z" stroke-width="1px" stroke="#D4D9DD" fill="#D4D9DD"/>
          <path clip-path="url(#clip-1945972417)" d="M 0.0000,0.3001 L 0.0000,0.3076 L 7.8395,0.3076 L 7.8395,0.3001 L 0.0000,0.3001 Z" stroke-width="1px" stroke="#D3D9DD" fill="#D3D9DD"/>
          <path clip-path="url(#clip-1945972417)" d="M 0.0000,0.3076 L 0.0000,0.3151 L 7.8395,0.3151 L 7.8395,0.3076 L 0.0000,0.3076 Z" stroke-width="1px" stroke="#D2D8DC" fill="#D2D8DC"/>
          <path clip-path="url(#clip-1945972417)" d="M 0.0000,0.3151 L 0.0000,0.3226 L 7.8395,0.3226 L 7.8395,0.3151 L 0.0000,0.3151 Z" stroke-width="1px" stroke="#D0D7DB" fill="#D0D7DB"/>
          <path clip-path="url(#clip-1945972417)" d="M 0.0000,0.3226 L 0.0000,0.3301 L 7.8395,0.3301 L 7.8395,0.3226 L 0.0000,0.3226 Z" stroke-width="1px" stroke="#CFD6DA" fill="#CFD6DA"/>
          <path clip-path="url(#clip-1945972417)" d="M 0.0000,0.3301 L 0.0000,0.3376 L 7.8395,0.3376 L 7.8395,0.3301 L 0.0000,0.3301 Z" stroke-width="1px" stroke="#CED5D9" fill="#CED5D9"/>
          <path clip-path="url(#clip-1945972417)" d="M 0.0000,0.3376 L 0.0000,0.3451 L 7.8395,0.3451 L 7.8395,0.3376 L 0.0000,0.3376 Z" stroke-width="1px" stroke="#CDD4D8" fill="#CDD4D8"/>
        </g>
        <g transform="matrix(0.0625 0.0000 0.0000 0.0625 0.0000 0.0000)">
          <path d="M 125.3494,3.4959 C 125.3494,2.4606 124.5017,1.6204 123.4665,1.6204 L 123.4665,1.6204 L 66.7070,1.6204 C 65.6717,1.6204 64.8315,2.4606 64.8315,3.4959 C 64.8315,4.5312 65.6717,5.3714 66.7070,5.3714 L 123.4665,5.3714 C 124.5017,5.3714 125.3494,4.5312 125.3494,3.4959 C 125.3494,3.4959 125.3494,3.4959 125.3494,3.4959 Z M 60.6980,3.4959 C 60.6980,2.4606 59.8578,1.6204 58.8225,1.6204 L 58.8225,1.6204 L 2.0630,1.6204 C 1.0278,1.6204 0.1800,2.4606 0.1800,3.4959 C 0.1800,4.5312 1.0278,5.3714 2.0630,5.3714 L 2.0630,5.3714 L 58.8225,5.3714 C 59.8578,5.3714 60.6980,4.5312 60.6980,3.4959 C 60.6980,3.4959 60.6980,3.4959 60.6980,3.4959 Z " stroke="#A0B0B6" stroke-width="0.0075" stroke-linecap="round" stroke-linejoin="round" fill="none"/>
        </g>
        <g transform="matrix(1.0000 0.0000 0.0000 1.0000 0.0000 0.0000)">
          <path d="M 0.1350,3.4134 C 0.1950,3.4134 0.2476,3.3609 0.2476,3.2933 C 0.2476,3.2933 0.2476,3.2933 0.2476,3.2933 L 0.2476,0.2251 C 0.2476,0.1575 0.1950,0.1050 0.1350,0.1050 C 0.1350,0.1050 0.1350,0.1050 0.1350,0.1050 C 0.0675,0.1050 0.0150,0.1575 0.0150,0.2251 L 0.0150,0.2251 L 0.0150,3.2933 C 0.0150,3.3609 0.0675,3.4134 0.1350,3.4134 Z " fill="none" stroke="none"/>
          <defs>
            <clipPath id="clip-442357055">
              <path d="M 0.1350,3.4134 C 0.1950,3.4134 0.2476,3.3609 0.2476,3.2933 C 0.2476,3.2933 0.2476,3.2933 0.2476,3.2933 L 0.2476,0.2251 C 0.2476,0.1575 0.1950,0.1050 0.1350,0.1050 C 0.1350,0.1050 0.1350,0.1050 0.1350,0.1050 C 0.0675,0.1050 0.0150,0.1575 0.0150,0.2251 L 0.0150,0.2251 L 0.0150,3.2933 C 0.0150,3.3609 0.0675,3.4134 0.1350,3.4134 Z"/>
            </clipPath>
          </defs>
          <path clip-path="url(#clip-442357055)" d="M 0.0000,0.0900 L 0.0000,3.4134 L 0.0150,3.4134 L 0.0150,0.0900 L 0.0000,0.0900 Z" stroke-width="1px" stroke="#CCD3D7" fill="#CCD3D7"/>
          <path clip-path="url(#clip-442357055)" d="M 0.0150,0.0900 L 0.0150,3.4134 L 0.0225,3.4134 L 0.0225,0.0900 L 0.0150,0.0900 Z" stroke-width="1px" stroke="#CDD4D8" fill="#CDD4D8"/>
          <path clip-path="url(#clip-442357055)" d="M 0.0225,0.0900 L 0.0225,3.4134 L 0.0300,3.4134 L 0.0300,0.0900 L 0.0225,0.0900 Z" stroke-width="1px" stroke="#CFD5D9" fill="#CFD5D9"/>
          <path clip-path="url(#clip-442357055)" d="M 0.0300,0.0900 L 0.0300,3.4134 L 0.0375,3.4134 L 0.0375,0.0900 L 0.0300,0.0900 Z" stroke-width="1px" stroke="#D0D6DA" fill="#D0D6DA"/>
          <path clip-path="url(#clip-442357055)" d="M 0.0375,0.0900 L 0.0375,3.4134 L 0.0450,3.4134 L 0.0450,0.0900 L 0.0375,0.0900 Z" stroke-width="1px" stroke="#D1D7DB" fill="#D1D7DB"/>
          <path clip-path="url(#clip-442357055)" d="M 0.0450,0.0900 L 0.0450,3.4134 L 0.0525,3.4134 L 0.0525,0.0900 L 0.0450,0.0900 Z" stroke-width="1px" stroke="#D2D8DC" fill="#D2D8DC"/>
          <path clip-path="url(#clip-442357055)" d="M 0.0525,0.0900 L 0.0525,3.4134 L 0.0600,3.4134 L 0.0600,0.0900 L 0.0525,0.0900 Z" stroke-width="1px" stroke="#D3D9DD" fill="#D3D9DD"/>
          <path clip-path="url(#clip-442357055)" d="M 0.0600,0.0900 L 0.0600,3.4134 L 0.0675,3.4134 L 0.0675,0.0900 L 0.0600,0.0900 Z" stroke-width="1px" stroke="#D5DADE" fill="#D5DADE"/>
          <path clip-path="url(#clip-442357055)" d="M 0.0675,0.0900 L 0.0675,3.4134 L 0.0750,3.4134 L 0.0750,0.0900 L 0.0675,0.0900 Z" stroke-width="1px" stroke="#D6DBDF" fill="#D6DBDF"/>
          <path clip-path="url(#clip-442357055)" d="M 0.0750,0.0900 L 0.0750,3.4134 L 0.0825,3.4134 L 0.0825,0.0900 L 0.0750,0.0900 Z" stroke-width="1px" stroke="#D7DCE0" fill="#D7DCE0"/>
          <path clip-path="url(#clip-442357055)" d="M 0.0825,0.0900 L 0.0825,3.4134 L 0.0900,3.4134 L 0.0900,0.0900 L 0.0825,0.0900 Z" stroke-width="1px" stroke="#D8DDE0" fill="#D8DDE0"/>
          <path clip-path="url(#clip-442357055)" d="M 0.0900,0.0900 L 0.0900,3.4134 L 0.0975,3.4134 L 0.0975,0.0900 L 0.0900,0.0900 Z" stroke-width="1px" stroke="#D9DEE1" fill="#D9DEE1"/>
          <path clip-path="url(#clip-442357055)" d="M 0.0975,0.0900 L 0.0975,3.4134 L 0.1050,3.4134 L 0.1050,0.0900 L 0.0975,0.0900 Z" stroke-width="1px" stroke="#DADFE2" fill="#DADFE2"/>
          <path clip-path="url(#clip-442357055)" d="M 0.1050,0.0900 L 0.1050,3.4134 L 0.1125,3.4134 L 0.1125,0.0900 L 0.1050,0.0900 Z" stroke-width="1px" stroke="#DBE0E3" fill="#DBE0E3"/>
          <path clip-path="url(#clip-442357055)" d="M 0.1125,0.0900 L 0.1125,3.4134 L 0.1200,3.4134 L 0.1200,0.0900 L 0.1125,0.0900 Z" stroke-width="1px" stroke="#DDE1E4" fill="#DDE1E4"/>
          <path clip-path="url(#clip-442357055)" d="M 0.1200,0.0900 L 0.1200,3.4134 L 0.1275,3.4134 L 0.1275,0.0900 L 0.1200,0.0900 Z" stroke-width="1px" stroke="#DEE2E5" fill="#DEE2E5"/>
          <path clip-path="url(#clip-442357055)" d="M 0.1275,0.0900 L 0.1275,3.4134 L 0.1350,3.4134 L 0.1350,0.0900 L 0.1275,0.0900 Z" stroke-width="1px" stroke="#DFE3E6" fill="#DFE3E6"/>
          <path clip-path="url(#clip-442357055)" d="M 0.1350,0.0900 L 0.1350,3.4134 L 0.1425,3.4134 L 0.1425,0.0900 L 0.1350,0.0900 Z" stroke-width="1px" stroke="#DEE2E5" fill="#DEE2E5"/>
          <path clip-path="url(#clip-442357055)" d="M 0.1425,0.0900 L 0.1425,3.4134 L 0.1500,3.4134 L 0.1500,0.0900 L 0.1425,0.0900 Z" stroke-width="1px" stroke="#DDE1E4" fill="#DDE1E4"/>
          <path clip-path="url(#clip-442357055)" d="M 0.1500,0.0900 L 0.1500,3.4134 L 0.1575,3.4134 L 0.1575,0.0900 L 0.1500,0.0900 Z" stroke-width="1px" stroke="#DCE0E3" fill="#DCE0E3"/>
          <path clip-path="url(#clip-442357055)" d="M 0.1575,0.0900 L 0.1575,3.4134 L 0.1650,3.4134 L 0.1650,0.0900 L 0.1575,0.0900 Z" stroke-width="1px" stroke="#DADFE2" fill="#DADFE2"/>
          <path clip-path="url(#clip-442357055)" d="M 0.1650,0.0900 L 0.1650,3.4134 L 0.1725,3.4134 L 0.1725,0.0900 L 0.1650,0.0900 Z" stroke-width="1px" stroke="#D9DEE1" fill="#D9DEE1"/>
          <path clip-path="url(#clip-442357055)" d="M 0.1725,0.0900 L 0.1725,3.4134 L 0.1800,3.4134 L 0.1800,0.0900 L 0.1725,0.0900 Z" stroke-width="1px" stroke="#D8DDE0" fill="#D8DDE0"/>
          <path clip-path="url(#clip-442357055)" d="M 0.1800,0.0900 L 0.1800,3.4134 L 0.1875,3.4134 L 0.1875,0.0900 L 0.1800,0.0900 Z" stroke-width="1px" stroke="#D7DCE0" fill="#D7DCE0"/>
          <path clip-path="url(#clip-442357055)" d="M 0.1875,0.0900 L 0.1875,3.4134 L 0.1950,3.4134 L 0.1950,0.0900 L 0.1875,0.0900 Z" stroke-width="1px" stroke="#D6DBDF" fill="#D6DBDF"/>
          <path clip-path="url(#clip-442357055)" d="M 0.1950,0.0900 L 0.1950,3.4134 L 0.2026,3.4134 L 0.2026,0.0900 L 0.1950,0.0900 Z" stroke-width="1px" stroke="#D5DADE" fill="#D5DADE"/>
          <path clip-path="url(#clip-442357055)" d="M 0.2026,0.0900 L 0.2026,3.4134 L 0.2101,3.4134 L 0.2101,0.0900 L 0.2026,0.0900 Z" stroke-width="1px" stroke="#D4DADE" fill="#D4DADE"/>
          <path clip-path="url(#clip-442357055)" d="M 0.2101,0.0900 L 0.2101,3.4134 L 0.2176,3.4134 L 0.2176,0.0900 L 0.2101,0.0900 Z" stroke-width="1px" stroke="#D3D9DD" fill="#D3D9DD"/>
          <path clip-path="url(#clip-442357055)" d="M 0.2176,0.0900 L 0.2176,3.4134 L 0.2251,3.4134 L 0.2251,0.0900 L 0.2176,0.0900 Z" stroke-width="1px" stroke="#D2D8DC" fill="#D2D8DC"/>
          <path clip-path="url(#clip-442357055)" d="M 0.2251,0.0900 L 0.2251,3.4134 L 0.2326,3.4134 L 0.2326,0.0900 L 0.2251,0.0900 Z" stroke-width="1px" stroke="#D0D7DB" fill="#D0D7DB"/>
          <path clip-path="url(#clip-442357055)" d="M 0.2326,0.0900 L 0.2326,3.4134 L 0.2401,3.4134 L 0.2401,0.0900 L 0.2326,0.0900 Z" stroke-width="1px" stroke="#CFD6DA" fill="#CFD6DA"/>
          <path clip-path="url(#clip-442357055)" d="M 0.2401,0.0900 L 0.2401,3.4134 L 0.2476,3.4134 L 0.2476,0.0900 L 0.2401,0.0900 Z" stroke-width="1px" stroke="#CED5D9" fill="#CED5D9"/>
          <path clip-path="url(#clip-442357055)" d="M 0.2476,0.0900 L 0.2476,3.4134 L 0.2551,3.4134 L 0.2551,0.0900 L 0.2476,0.0900 Z" stroke-width="1px" stroke="#CDD4D8" fill="#CDD4D8"/>
        </g>
        <g transform="matrix(0.0625 0.0000 0.0000 0.0625 0.0000 0.0000)">
          <path d="M 2.0630,54.5239 C 3.0983,54.5239 3.9385,53.6837 3.9385,52.6484 C 3.9385,52.6484 3.9385,52.6484 3.9385,52.6484 L 3.9385,3.4959 C 3.9385,2.4606 3.0983,1.6204 2.0630,1.6204 C 2.0630,1.6204 2.0630,1.6204 2.0630,1.6204 C 1.0278,1.6204 0.1800,2.4606 0.1800,3.4959 L 0.1800,3.4959 L 0.1800,52.6484 C 0.1800,53.6837 1.0278,54.5239 2.0630,54.5239 Z " stroke="#A0B0B6" stroke-width="0.0075" stroke-linecap="round" stroke-linejoin="round" fill="none"/>
        </g>
        <g transform="matrix(1.0000 0.0000 0.0000 1.0000 0.0000 0.0000)">
          <path d="M 3.6834,3.4134 C 3.7435,3.4134 3.7960,3.3609 3.7960,3.2933 C 3.7960,3.2933 3.7960,3.2933 3.7960,3.2933 L 3.7960,0.2251 C 3.7960,0.1575 3.7435,0.1050 3.6834,0.1050 C 3.6834,0.1050 3.6834,0.1050 3.6834,0.1050 C 3.6159,0.1050 3.5634,0.1575 3.5634,0.2251 L 3.5634,0.2251 L 3.5634,3.2933 C 3.5634,3.3609 3.6159,3.4134 3.6834,3.4134 Z " fill="none" stroke="none"/>
          <defs>
            <clipPath id="clip-1930334779">
              <path d="M 3.6834,3.4134 C 3.7435,3.4134 3.7960,3.3609 3.7960,3.2933 C 3.7960,3.2933 3.7960,3.2933 3.7960,3.2933 L 3.7960,0.2251 C 3.7960,0.1575 3.7435,0.1050 3.6834,0.1050 C 3.6834,0.1050 3.6834,0.1050 3.6834,0.1050 C 3.6159,0.1050 3.5634,0.1575 3.5634,0.2251 L 3.5634,0.2251 L 3.5634,3.2933 C 3.5634,3.3609 3.6159,3.4134 3.6834,3.4134 Z"/>
            </clipPath>
          </defs>
          <path clip-path="url(#clip-1930334779)" d="M 3.5484,0.0900 L 3.5484,3.4134 L 3.5559,3.4134 L 3.5559,0.0900 L 3.5484,0.0900 Z" stroke-width="1px" stroke="#CCD3D7" fill="#CCD3D7"/>
          <path clip-path="url(#clip-1930334779)" d="M 3.5559,0.0900 L 3.5559,3.4134 L 3.5634,3.4134 L 3.5634,0.0900 L 3.5559,0.0900 Z" stroke-width="1px" stroke="#CDD4D8" fill="#CDD4D8"/>
          <path clip-path="url(#clip-1930334779)" d="M 3.5634,0.0900 L 3.5634,3.4134 L 3.5709,3.4134 L 3.5709,0.0900 L 3.5634,0.0900 Z" stroke-width="1px" stroke="#CED5D9" fill="#CED5D9"/>
          <path clip-path="url(#clip-1930334779)" d="M 3.5709,0.0900 L 3.5709,3.4134 L 3.5784,3.4134 L 3.5784,0.0900 L 3.5709,0.0900 Z" stroke-width="1px" stroke="#CFD6DA" fill="#CFD6DA"/>
          <path clip-path="url(#clip-1930334779)" d="M 3.5784,0.0900 L 3.5784,3.4134 L 3.5859,3.4134 L 3.5859,0.0900 L 3.5784,0.0900 Z" stroke-width="1px" stroke="#D0D6DA" fill="#D0D6DA"/>
          <path clip-path="url(#clip-1930334779)" d="M 3.5859,0.0900 L 3.5859,3.4134 L 3.5934,3.4134 L 3.5934,0.0900 L 3.5859,0.0900 Z" stroke-width="1px" stroke="#D1D7DB" fill="#D1D7DB"/>
          <path clip-path="url(#clip-1930334779)" d="M 3.5934,0.0900 L 3.5934,3.4134 L 3.6009,3.4134 L 3.6009,0.0900 L 3.5934,0.0900 Z" stroke-width="1px" stroke="#D2D8DC" fill="#D2D8DC"/>
          <path clip-path="url(#clip-1930334779)" d="M 3.6009,0.0900 L 3.6009,3.4134 L 3.6084,3.4134 L 3.6084,0.0900 L 3.6009,0.0900 Z" stroke-width="1px" stroke="#D4D9DD" fill="#D4D9DD"/>
          <path clip-path="url(#clip-1930334779)" d="M 3.6084,0.0900 L 3.6084,3.4134 L 3.6159,3.4134 L 3.6159,0.0900 L 3.6084,0.0900 Z" stroke-width="1px" stroke="#D5DADE" fill="#D5DADE"/>
          <path clip-path="url(#clip-1930334779)" d="M 3.6159,0.0900 L 3.6159,3.4134 L 3.6234,3.4134 L 3.6234,0.0900 L 3.6159,0.0900 Z" stroke-width="1px" stroke="#D6DBDF" fill="#D6DBDF"/>
          <path clip-path="url(#clip-1930334779)" d="M 3.6234,0.0900 L 3.6234,3.4134 L 3.6309,3.4134 L 3.6309,0.0900 L 3.6234,0.0900 Z" stroke-width="1px" stroke="#D7DCE0" fill="#D7DCE0"/>
          <path clip-path="url(#clip-1930334779)" d="M 3.6309,0.0900 L 3.6309,3.4134 L 3.6384,3.4134 L 3.6384,0.0900 L 3.6309,0.0900 Z" stroke-width="1px" stroke="#D8DDE0" fill="#D8DDE0"/>
          <path clip-path="url(#clip-1930334779)" d="M 3.6384,0.0900 L 3.6384,3.4134 L 3.6459,3.4134 L 3.6459,0.0900 L 3.6384,0.0900 Z" stroke-width="1px" stroke="#D9DEE1" fill="#D9DEE1"/>
          <path clip-path="url(#clip-1930334779)" d="M 3.6459,0.0900 L 3.6459,3.4134 L 3.6534,3.4134 L 3.6534,0.0900 L 3.6459,0.0900 Z" stroke-width="1px" stroke="#DADFE2" fill="#DADFE2"/>
          <path clip-path="url(#clip-1930334779)" d="M 3.6534,0.0900 L 3.6534,3.4134 L 3.6609,3.4134 L 3.6609,0.0900 L 3.6534,0.0900 Z" stroke-width="1px" stroke="#DCE0E3" fill="#DCE0E3"/>
          <path clip-path="url(#clip-1930334779)" d="M 3.6609,0.0900 L 3.6609,3.4134 L 3.6684,3.4134 L 3.6684,0.0900 L 3.6609,0.0900 Z" stroke-width="1px" stroke="#DDE1E4" fill="#DDE1E4"/>
          <path clip-path="url(#clip-1930334779)" d="M 3.6684,0.0900 L 3.6684,3.4134 L 3.6759,3.4134 L 3.6759,0.0900 L 3.6684,0.0900 Z" stroke-width="1px" stroke="#DEE2E5" fill="#DEE2E5"/>
          <path clip-path="url(#clip-1930334779)" d="M 3.6759,0.0900 L 3.6759,3.4134 L 3.6834,3.4134 L 3.6834,0.0900 L 3.6759,0.0900 Z" stroke-width="1px" stroke="#DFE3E6" fill="#DFE3E6"/>
          <path clip-path="url(#clip-1930334779)" d="M 3.6834,0.0900 L 3.6834,3.4134 L 3.6909,3.4134 L 3.6909,0.0900 L 3.6834,0.0900 Z" stroke-width="1px" stroke="#DEE2E5" fill="#DEE2E5"/>
          <path clip-path="url(#clip-1930334779)" d="M 3.6909,0.0900 L 3.6909,3.4134 L 3.6984,3.4134 L 3.6984,0.0900 L 3.6909,0.0900 Z" stroke-width="1px" stroke="#DDE1E4" fill="#DDE1E4"/>
          <path clip-path="url(#clip-1930334779)" d="M 3.6984,0.0900 L 3.6984,3.4134 L 3.7059,3.4134 L 3.7059,0.0900 L 3.6984,0.0900 Z" stroke-width="1px" stroke="#DCE0E3" fill="#DCE0E3"/>
          <path clip-path="url(#clip-1930334779)" d="M 3.7059,0.0900 L 3.7059,3.4134 L 3.7134,3.4134 L 3.7134,0.0900 L 3.7059,0.0900 Z" stroke-width="1px" stroke="#DADFE2" fill="#DADFE2"/>
          <path clip-path="url(#clip-1930334779)" d="M 3.7134,0.0900 L 3.7134,3.4134 L 3.7209,3.4134 L 3.7209,0.0900 L 3.7134,0.0900 Z" stroke-width="1px" stroke="#D9DEE1" fill="#D9DEE1"/>
          <path clip-path="url(#clip-1930334779)" d="M 3.7209,0.0900 L 3.7209,3.4134 L 3.7285,3.4134 L 3.7285,0.0900 L 3.7209,0.0900 Z" stroke-width="1px" stroke="#D8DDE0" fill="#D8DDE0"/>
          <path clip-path="url(#clip-1930334779)" d="M 3.7285,0.0900 L 3.7285,3.4134 L 3.7360,3.4134 L 3.7360,0.0900 L 3.7285,0.0900 Z" stroke-width="1px" stroke="#D7DCE0" fill="#D7DCE0"/>
          <path clip-path="url(#clip-1930334779)" d="M 3.7360,0.0900 L 3.7360,3.4134 L 3.7435,3.4134 L 3.7435,0.0900 L 3.7360,0.0900 Z" stroke-width="1px" stroke="#D6DBDF" fill="#D6DBDF"/>
          <path clip-path="url(#clip-1930334779)" d="M 3.7435,0.0900 L 3.7435,3.4134 L 3.7510,3.4134 L 3.7510,0.0900 L 3.7435,0.0900 Z" stroke-width="1px" stroke="#D5DADE" fill="#D5DADE"/>
          <path clip-path="url(#clip-1930334779)" d="M 3.7510,0.0900 L 3.7510,3.4134 L 3.7585,3.4134 L 3.7585,0.0900 L 3.7510,0.0900 Z" stroke-width="1px" stroke="#D4D9DD" fill="#D4D9DD"/>
          <path clip-path="url(#clip-1930334779)" d="M 3.7585,0.0900 L 3.7585,3.4134 L 3.7735,3.4134 L 3.7735,0.0900 L 3.7585,0.0900 Z" stroke-width="1px" stroke="#D2D8DC" fill="#D2D8DC"/>
          <path clip-path="url(#clip-1930334779)" d="M 3.7735,0.0900 L 3.7735,3.4134 L 3.7810,3.4134 L 3.7810,0.0900 L 3.7735,0.0900 Z" stroke-width="1px" stroke="#D0D7DB" fill="#D0D7DB"/>
          <path clip-path="url(#clip-1930334779)" d="M 3.7810,0.0900 L 3.7810,3.4134 L 3.7885,3.4134 L 3.7885,0.0900 L 3.7810,0.0900 Z" stroke-width="1px" stroke="#CFD6DA" fill="#CFD6DA"/>
          <path clip-path="url(#clip-1930334779)" d="M 3.7885,0.0900 L 3.7885,3.4134 L 3.7960,3.4134 L 3.7960,0.0900 L 3.7885,0.0900 Z" stroke-width="1px" stroke="#CED5D9" fill="#CED5D9"/>
          <path clip-path="url(#clip-1930334779)" d="M 3.7960,0.0900 L 3.7960,3.4134 L 3.8035,3.4134 L 3.8035,0.0900 L 3.7960,0.0900 Z" stroke-width="1px" stroke="#CDD4D8" fill="#CDD4D8"/>
        </g>
        <g transform="matrix(0.0625 0.0000 0.0000 0.0625 0.0000 0.0000)">
          <path d="M 58.8225,54.5239 C 59.8578,54.5239 60.6980,53.6837 60.6980,52.6484 C 60.6980,52.6484 60.6980,52.6484 60.6980,52.6484 L 60.6980,3.4959 C 60.6980,2.4606 59.8578,1.6204 58.8225,1.6204 C 58.8225,1.6204 58.8225,1.6204 58.8225,1.6204 C 57.7872,1.6204 56.9470,2.4606 56.9470,3.4959 L 56.9470,3.4959 L 56.9470,52.6484 C 56.9470,53.6837 57.7872,54.5239 58.8225,54.5239 Z " stroke="#A0B0B6" stroke-width="0.0075" stroke-linecap="round" stroke-linejoin="round" fill="none"/>
        </g>
        <g transform="matrix(1.0000 0.0000 0.0000 1.0000 0.0000 0.0000)">
          <path d="M 4.1711,3.4134 C 4.2386,3.4134 4.2911,3.3609 4.2911,3.2933 C 4.2911,3.2933 4.2911,3.2933 4.2911,3.2933 L 4.2911,3.2933 L 4.2911,0.2251 C 4.2911,0.1575 4.2386,0.1050 4.1711,0.1050 C 4.1711,0.1050 4.1711,0.1050 4.1711,0.1050 C 4.1110,0.1050 4.0585,0.1575 4.0585,0.2251 L 4.0585,0.2251 L 4.0585,3.2933 C 4.0585,3.3609 4.1110,3.4134 4.1711,3.4134 Z " fill="none" stroke="none"/>
          <defs>
            <clipPath id="clip-639854683">
              <path d="M 4.1711,3.4134 C 4.2386,3.4134 4.2911,3.3609 4.2911,3.2933 C 4.2911,3.2933 4.2911,3.2933 4.2911,3.2933 L 4.2911,3.2933 L 4.2911,0.2251 C 4.2911,0.1575 4.2386,0.1050 4.1711,0.1050 C 4.1711,0.1050 4.1711,0.1050 4.1711,0.1050 C 4.1110,0.1050 4.0585,0.1575 4.0585,0.2251 L 4.0585,0.2251 L 4.0585,3.2933 C 4.0585,3.3609 4.1110,3.4134 4.1711,3.4134 Z"/>
            </clipPath>
          </defs>
          <path clip-path="url(#clip-639854683)" d="M 4.0435,0.0900 L 4.0435,3.4134 L 4.0510,3.4134 L 4.0510,0.0900 L 4.0435,0.0900 Z" stroke-width="1px" stroke="#CCD3D7" fill="#CCD3D7"/>
          <path clip-path="url(#clip-639854683)" d="M 4.0510,0.0900 L 4.0510,3.4134 L 4.0585,3.4134 L 4.0585,0.0900 L 4.0510,0.0900 Z" stroke-width="1px" stroke="#CDD4D8" fill="#CDD4D8"/>
          <path clip-path="url(#clip-639854683)" d="M 4.0585,0.0900 L 4.0585,3.4134 L 4.0660,3.4134 L 4.0660,0.0900 L 4.0585,0.0900 Z" stroke-width="1px" stroke="#CED5D9" fill="#CED5D9"/>
          <path clip-path="url(#clip-639854683)" d="M 4.0660,0.0900 L 4.0660,3.4134 L 4.0735,3.4134 L 4.0735,0.0900 L 4.0660,0.0900 Z" stroke-width="1px" stroke="#CFD6DA" fill="#CFD6DA"/>
          <path clip-path="url(#clip-639854683)" d="M 4.0735,0.0900 L 4.0735,3.4134 L 4.0810,3.4134 L 4.0810,0.0900 L 4.0735,0.0900 Z" stroke-width="1px" stroke="#D1D7DB" fill="#D1D7DB"/>
          <path clip-path="url(#clip-639854683)" d="M 4.0810,0.0900 L 4.0810,3.4134 L 4.0885,3.4134 L 4.0885,0.0900 L 4.0810,0.0900 Z" stroke-width="1px" stroke="#D2D8DC" fill="#D2D8DC"/>
          <path clip-path="url(#clip-639854683)" d="M 4.0885,0.0900 L 4.0885,3.4134 L 4.0960,3.4134 L 4.0960,0.0900 L 4.0885,0.0900 Z" stroke-width="1px" stroke="#D3D9DD" fill="#D3D9DD"/>
          <path clip-path="url(#clip-639854683)" d="M 4.0960,0.0900 L 4.0960,3.4134 L 4.1035,3.4134 L 4.1035,0.0900 L 4.0960,0.0900 Z" stroke-width="1px" stroke="#D4DADE" fill="#D4DADE"/>
          <path clip-path="url(#clip-639854683)" d="M 4.1035,0.0900 L 4.1035,3.4134 L 4.1110,3.4134 L 4.1110,0.0900 L 4.1035,0.0900 Z" stroke-width="1px" stroke="#D5DBDF" fill="#D5DBDF"/>
          <path clip-path="url(#clip-639854683)" d="M 4.1110,0.0900 L 4.1110,3.4134 L 4.1185,3.4134 L 4.1185,0.0900 L 4.1110,0.0900 Z" stroke-width="1px" stroke="#D7DCDF" fill="#D7DCDF"/>
          <path clip-path="url(#clip-639854683)" d="M 4.1185,0.0900 L 4.1185,3.4134 L 4.1261,3.4134 L 4.1261,0.0900 L 4.1185,0.0900 Z" stroke-width="1px" stroke="#D8DDE0" fill="#D8DDE0"/>
          <path clip-path="url(#clip-639854683)" d="M 4.1261,0.0900 L 4.1261,3.4134 L 4.1411,3.4134 L 4.1411,0.0900 L 4.1261,0.0900 Z" stroke-width="1px" stroke="#D9DEE1" fill="#D9DEE1"/>
          <path clip-path="url(#clip-639854683)" d="M 4.1411,0.0900 L 4.1411,3.4134 L 4.1486,3.4134 L 4.1486,0.0900 L 4.1411,0.0900 Z" stroke-width="1px" stroke="#DBDFE2" fill="#DBDFE2"/>
          <path clip-path="url(#clip-639854683)" d="M 4.1486,0.0900 L 4.1486,3.4134 L 4.1561,3.4134 L 4.1561,0.0900 L 4.1486,0.0900 Z" stroke-width="1px" stroke="#DCE0E3" fill="#DCE0E3"/>
          <path clip-path="url(#clip-639854683)" d="M 4.1561,0.0900 L 4.1561,3.4134 L 4.1636,3.4134 L 4.1636,0.0900 L 4.1561,0.0900 Z" stroke-width="1px" stroke="#DDE1E4" fill="#DDE1E4"/>
          <path clip-path="url(#clip-639854683)" d="M 4.1636,0.0900 L 4.1636,3.4134 L 4.1711,3.4134 L 4.1711,0.0900 L 4.1636,0.0900 Z" stroke-width="1px" stroke="#DEE2E5" fill="#DEE2E5"/>
          <path clip-path="url(#clip-639854683)" d="M 4.1711,0.0900 L 4.1711,3.4134 L 4.1786,3.4134 L 4.1786,0.0900 L 4.1711,0.0900 Z" stroke-width="1px" stroke="#DFE3E6" fill="#DFE3E6"/>
          <path clip-path="url(#clip-639854683)" d="M 4.1786,0.0900 L 4.1786,3.4134 L 4.1861,3.4134 L 4.1861,0.0900 L 4.1786,0.0900 Z" stroke-width="1px" stroke="#DEE2E5" fill="#DEE2E5"/>
          <path clip-path="url(#clip-639854683)" d="M 4.1861,0.0900 L 4.1861,3.4134 L 4.1936,3.4134 L 4.1936,0.0900 L 4.1861,0.0900 Z" stroke-width="1px" stroke="#DDE1E4" fill="#DDE1E4"/>
          <path clip-path="url(#clip-639854683)" d="M 4.1936,0.0900 L 4.1936,3.4134 L 4.2011,3.4134 L 4.2011,0.0900 L 4.1936,0.0900 Z" stroke-width="1px" stroke="#DBE0E3" fill="#DBE0E3"/>
          <path clip-path="url(#clip-639854683)" d="M 4.2011,0.0900 L 4.2011,3.4134 L 4.2086,3.4134 L 4.2086,0.0900 L 4.2011,0.0900 Z" stroke-width="1px" stroke="#DADFE2" fill="#DADFE2"/>
          <path clip-path="url(#clip-639854683)" d="M 4.2086,0.0900 L 4.2086,3.4134 L 4.2161,3.4134 L 4.2161,0.0900 L 4.2086,0.0900 Z" stroke-width="1px" stroke="#D9DEE1" fill="#D9DEE1"/>
          <path clip-path="url(#clip-639854683)" d="M 4.2161,0.0900 L 4.2161,3.4134 L 4.2236,3.4134 L 4.2236,0.0900 L 4.2161,0.0900 Z" stroke-width="1px" stroke="#D8DDE0" fill="#D8DDE0"/>
          <path clip-path="url(#clip-639854683)" d="M 4.2236,0.0900 L 4.2236,3.4134 L 4.2311,3.4134 L 4.2311,0.0900 L 4.2236,0.0900 Z" stroke-width="1px" stroke="#D7DCE0" fill="#D7DCE0"/>
          <path clip-path="url(#clip-639854683)" d="M 4.2311,0.0900 L 4.2311,3.4134 L 4.2386,3.4134 L 4.2386,0.0900 L 4.2311,0.0900 Z" stroke-width="1px" stroke="#D6DBDF" fill="#D6DBDF"/>
          <path clip-path="url(#clip-639854683)" d="M 4.2386,0.0900 L 4.2386,3.4134 L 4.2461,3.4134 L 4.2461,0.0900 L 4.2386,0.0900 Z" stroke-width="1px" stroke="#D5DADE" fill="#D5DADE"/>
          <path clip-path="url(#clip-639854683)" d="M 4.2461,0.0900 L 4.2461,3.4134 L 4.2536,3.4134 L 4.2536,0.0900 L 4.2461,0.0900 Z" stroke-width="1px" stroke="#D3D9DD" fill="#D3D9DD"/>
          <path clip-path="url(#clip-639854683)" d="M 4.2536,0.0900 L 4.2536,3.4134 L 4.2611,3.4134 L 4.2611,0.0900 L 4.2536,0.0900 Z" stroke-width="1px" stroke="#D2D8DC" fill="#D2D8DC"/>
          <path clip-path="url(#clip-639854683)" d="M 4.2611,0.0900 L 4.2611,3.4134 L 4.2686,3.4134 L 4.2686,0.0900 L 4.2611,0.0900 Z" stroke-width="1px" stroke="#D1D7DB" fill="#D1D7DB"/>
          <path clip-path="url(#clip-639854683)" d="M 4.2686,0.0900 L 4.2686,3.4134 L 4.2761,3.4134 L 4.2761,0.0900 L 4.2686,0.0900 Z" stroke-width="1px" stroke="#D0D6DA" fill="#D0D6DA"/>
          <path clip-path="url(#clip-639854683)" d="M 4.2761,0.0900 L 4.2761,3.4134 L 4.2836,3.4134 L 4.2836,0.0900 L 4.2761,0.0900 Z" stroke-width="1px" stroke="#CED5D9" fill="#CED5D9"/>
          <path clip-path="url(#clip-639854683)" d="M 4.2836,0.0900 L 4.2836,3.4134 L 4.2911,3.4134 L 4.2911,0.0900 L 4.2836,0.0900 Z" stroke-width="1px" stroke="#CDD4D8" fill="#CDD4D8"/>
          <path clip-path="url(#clip-639854683)" d="M 4.2911,0.0900 L 4.2911,3.4134 L 4.2986,3.4134 L 4.2986,0.0900 L 4.2911,0.0900 Z" stroke-width="1px" stroke="#CCD3D7" fill="#CCD3D7"/>
        </g>
        <g transform="matrix(0.0625 0.0000 0.0000 0.0625 0.0000 0.0000)">
          <path d="M 66.7070,54.5239 C 67.7423,54.5239 68.5825,53.6837 68.5825,52.6484 C 68.5825,52.6484 68.5825,52.6484 68.5825,52.6484 L 68.5825,52.6484 L 68.5825,3.4959 C 68.5825,2.4606 67.7423,1.6204 66.7070,1.6204 C 66.7070,1.6204 66.7070,1.6204 66.7070,1.6204 C 65.6717,1.6204 64.8315,2.4606 64.8315,3.4959 L 64.8315,3.4959 L 64.8315,52.6484 C 64.8315,53.6837 65.6717,54.5239 66.7070,54.5239 Z " stroke="#A0B0B6" stroke-width="0.0075" stroke-linecap="round" stroke-linejoin="round" fill="none"/>
        </g>
        <g transform="matrix(1.0000 0.0000 0.0000 1.0000 0.0000 0.0000)">
          <path d="M 7.7195,3.4134 C 7.7870,3.4134 7.8395,3.3609 7.8395,3.2933 C 7.8395,3.2933 7.8395,3.2933 7.8395,3.2933 L 7.8395,0.2251 C 7.8395,0.1575 7.7870,0.1050 7.7195,0.1050 C 7.7195,0.1050 7.7195,0.1050 7.7195,0.1050 C 7.6520,0.1050 7.5994,0.1575 7.5994,0.2251 L 7.5994,0.2251 L 7.5994,3.2933 C 7.5994,3.3609 7.6520,3.4134 7.7195,3.4134 Z " fill="none" stroke="none"/>
          <defs>
            <clipPath id="clip-1361478979">
              <path d="M 7.7195,3.4134 C 7.7870,3.4134 7.8395,3.3609 7.8395,3.2933 C 7.8395,3.2933 7.8395,3.2933 7.8395,3.2933 L 7.8395,0.2251 C 7.8395,0.1575 7.7870,0.1050 7.7195,0.1050 C 7.7195,0.1050 7.7195,0.1050 7.7195,0.1050 C 7.6520,0.1050 7.5994,0.1575 7.5994,0.2251 L 7.5994,0.2251 L 7.5994,3.2933 C 7.5994,3.3609 7.6520,3.4134 7.7195,3.4134 Z"/>
            </clipPath>
          </defs>
          <path clip-path="url(#clip-1361478979)" d="M 7.5919,0.0900 L 7.5919,3.4134 L 7.5994,3.4134 L 7.5994,0.0900 L 7.5919,0.0900 Z" stroke-width="1px" stroke="#CCD3D7" fill="#CCD3D7"/>
          <path clip-path="url(#clip-1361478979)" d="M 7.5994,0.0900 L 7.5994,3.4134 L 7.6069,3.4134 L 7.6069,0.0900 L 7.5994,0.0900 Z" stroke-width="1px" stroke="#CDD4D8" fill="#CDD4D8"/>
          <path clip-path="url(#clip-1361478979)" d="M 7.6069,0.0900 L 7.6069,3.4134 L 7.6144,3.4134 L 7.6144,0.0900 L 7.6069,0.0900 Z" stroke-width="1px" stroke="#CED5D9" fill="#CED5D9"/>
          <path clip-path="url(#clip-1361478979)" d="M 7.6144,0.0900 L 7.6144,3.4134 L 7.6219,3.4134 L 7.6219,0.0900 L 7.6144,0.0900 Z" stroke-width="1px" stroke="#CFD6DA" fill="#CFD6DA"/>
          <path clip-path="url(#clip-1361478979)" d="M 7.6219,0.0900 L 7.6219,3.4134 L 7.6294,3.4134 L 7.6294,0.0900 L 7.6219,0.0900 Z" stroke-width="1px" stroke="#D1D7DB" fill="#D1D7DB"/>
          <path clip-path="url(#clip-1361478979)" d="M 7.6294,0.0900 L 7.6294,3.4134 L 7.6369,3.4134 L 7.6369,0.0900 L 7.6294,0.0900 Z" stroke-width="1px" stroke="#D2D8DC" fill="#D2D8DC"/>
          <path clip-path="url(#clip-1361478979)" d="M 7.6369,0.0900 L 7.6369,3.4134 L 7.6444,3.4134 L 7.6444,0.0900 L 7.6369,0.0900 Z" stroke-width="1px" stroke="#D3D9DD" fill="#D3D9DD"/>
          <path clip-path="url(#clip-1361478979)" d="M 7.6444,0.0900 L 7.6444,3.4134 L 7.6520,3.4134 L 7.6520,0.0900 L 7.6444,0.0900 Z" stroke-width="1px" stroke="#D4DADE" fill="#D4DADE"/>
          <path clip-path="url(#clip-1361478979)" d="M 7.6520,0.0900 L 7.6520,3.4134 L 7.6595,3.4134 L 7.6595,0.0900 L 7.6520,0.0900 Z" stroke-width="1px" stroke="#D6DBDF" fill="#D6DBDF"/>
          <path clip-path="url(#clip-1361478979)" d="M 7.6595,0.0900 L 7.6595,3.4134 L 7.6670,3.4134 L 7.6670,0.0900 L 7.6595,0.0900 Z" stroke-width="1px" stroke="#D7DCDF" fill="#D7DCDF"/>
          <path clip-path="url(#clip-1361478979)" d="M 7.6670,0.0900 L 7.6670,3.4134 L 7.6745,3.4134 L 7.6745,0.0900 L 7.6670,0.0900 Z" stroke-width="1px" stroke="#D8DDE0" fill="#D8DDE0"/>
          <path clip-path="url(#clip-1361478979)" d="M 7.6745,0.0900 L 7.6745,3.4134 L 7.6820,3.4134 L 7.6820,0.0900 L 7.6745,0.0900 Z" stroke-width="1px" stroke="#D9DEE1" fill="#D9DEE1"/>
          <path clip-path="url(#clip-1361478979)" d="M 7.6820,0.0900 L 7.6820,3.4134 L 7.6895,3.4134 L 7.6895,0.0900 L 7.6820,0.0900 Z" stroke-width="1px" stroke="#DADFE2" fill="#DADFE2"/>
          <path clip-path="url(#clip-1361478979)" d="M 7.6895,0.0900 L 7.6895,3.4134 L 7.6970,3.4134 L 7.6970,0.0900 L 7.6895,0.0900 Z" stroke-width="1px" stroke="#DBE0E3" fill="#DBE0E3"/>
          <path clip-path="url(#clip-1361478979)" d="M 7.6970,0.0900 L 7.6970,3.4134 L 7.7045,3.4134 L 7.7045,0.0900 L 7.6970,0.0900 Z" stroke-width="1px" stroke="#DCE0E3" fill="#DCE0E3"/>
          <path clip-path="url(#clip-1361478979)" d="M 7.7045,0.0900 L 7.7045,3.4134 L 7.7120,3.4134 L 7.7120,0.0900 L 7.7045,0.0900 Z" stroke-width="1px" stroke="#DDE1E4" fill="#DDE1E4"/>
          <path clip-path="url(#clip-1361478979)" d="M 7.7120,0.0900 L 7.7120,3.4134 L 7.7195,3.4134 L 7.7195,0.0900 L 7.7120,0.0900 Z" stroke-width="1px" stroke="#DEE2E5" fill="#DEE2E5"/>
          <path clip-path="url(#clip-1361478979)" d="M 7.7195,0.0900 L 7.7195,3.4134 L 7.7270,3.4134 L 7.7270,0.0900 L 7.7195,0.0900 Z" stroke-width="1px" stroke="#DFE3E6" fill="#DFE3E6"/>
          <path clip-path="url(#clip-1361478979)" d="M 7.7270,0.0900 L 7.7270,3.4134 L 7.7345,3.4134 L 7.7345,0.0900 L 7.7270,0.0900 Z" stroke-width="1px" stroke="#DEE2E5" fill="#DEE2E5"/>
          <path clip-path="url(#clip-1361478979)" d="M 7.7345,0.0900 L 7.7345,3.4134 L 7.7420,3.4134 L 7.7420,0.0900 L 7.7345,0.0900 Z" stroke-width="1px" stroke="#DDE1E4" fill="#DDE1E4"/>
          <path clip-path="url(#clip-1361478979)" d="M 7.7420,0.0900 L 7.7420,3.4134 L 7.7495,3.4134 L 7.7495,0.0900 L 7.7420,0.0900 Z" stroke-width="1px" stroke="#DBE0E3" fill="#DBE0E3"/>
          <path clip-path="url(#clip-1361478979)" d="M 7.7495,0.0900 L 7.7495,3.4134 L 7.7570,3.4134 L 7.7570,0.0900 L 7.7495,0.0900 Z" stroke-width="1px" stroke="#DADFE2" fill="#DADFE2"/>
          <path clip-path="url(#clip-1361478979)" d="M 7.7570,0.0900 L 7.7570,3.4134 L 7.7645,3.4134 L 7.7645,0.0900 L 7.7570,0.0900 Z" stroke-width="1px" stroke="#D9DEE1" fill="#D9DEE1"/>
          <path clip-path="url(#clip-1361478979)" d="M 7.7645,0.0900 L 7.7645,3.4134 L 7.7720,3.4134 L 7.7720,0.0900 L 7.7645,0.0900 Z" stroke-width="1px" stroke="#D8DDE0" fill="#D8DDE0"/>
          <path clip-path="url(#clip-1361478979)" d="M 7.7720,0.0900 L 7.7720,3.4134 L 7.7795,3.4134 L 7.7795,0.0900 L 7.7720,0.0900 Z" stroke-width="1px" stroke="#D7DCDF" fill="#D7DCDF"/>
          <path clip-path="url(#clip-1361478979)" d="M 7.7795,0.0900 L 7.7795,3.4134 L 7.7870,3.4134 L 7.7870,0.0900 L 7.7795,0.0900 Z" stroke-width="1px" stroke="#D6DBDF" fill="#D6DBDF"/>
          <path clip-path="url(#clip-1361478979)" d="M 7.7870,0.0900 L 7.7870,3.4134 L 7.7945,3.4134 L 7.7945,0.0900 L 7.7870,0.0900 Z" stroke-width="1px" stroke="#D4DADE" fill="#D4DADE"/>
          <path clip-path="url(#clip-1361478979)" d="M 7.7945,0.0900 L 7.7945,3.4134 L 7.8020,3.4134 L 7.8020,0.0900 L 7.7945,0.0900 Z" stroke-width="1px" stroke="#D3D9DD" fill="#D3D9DD"/>
          <path clip-path="url(#clip-1361478979)" d="M 7.8020,0.0900 L 7.8020,3.4134 L 7.8095,3.4134 L 7.8095,0.0900 L 7.8020,0.0900 Z" stroke-width="1px" stroke="#D2D8DC" fill="#D2D8DC"/>
          <path clip-path="url(#clip-1361478979)" d="M 7.8095,0.0900 L 7.8095,3.4134 L 7.8170,3.4134 L 7.8170,0.0900 L 7.8095,0.0900 Z" stroke-width="1px" stroke="#D1D7DB" fill="#D1D7DB"/>
          <path clip-path="url(#clip-1361478979)" d="M 7.8170,0.0900 L 7.8170,3.4134 L 7.8245,3.4134 L 7.8245,0.0900 L 7.8170,0.0900 Z" stroke-width="1px" stroke="#D0D6DA" fill="#D0D6DA"/>
          <path clip-path="url(#clip-1361478979)" d="M 7.8245,0.0900 L 7.8245,3.4134 L 7.8320,3.4134 L 7.8320,0.0900 L 7.8245,0.0900 Z" stroke-width="1px" stroke="#CED5D9" fill="#CED5D9"/>
          <path clip-path="url(#clip-1361478979)" d="M 7.8320,0.0900 L 7.8320,3.4134 L 7.8395,3.4134 L 7.8395,0.0900 L 7.8320,0.0900 Z" stroke-width="1px" stroke="#CDD4D8" fill="#CDD4D8"/>
          <path clip-path="url(#clip-1361478979)" d="M 7.8395,0.0900 L 7.8395,3.4134 L 7.8470,3.4134 L 7.8470,0.0900 L 7.8395,0.0900 Z" stroke-width="1px" stroke="#CCD3D7" fill="#CCD3D7"/>
        </g>
        <g transform="matrix(0.0625 0.0000 0.0000 0.0625 0.0000 0.0000)">
          <path d="M 123.4665,54.5239 C 124.5017,54.5239 125.3494,53.6837 125.3494,52.6484 C 125.3494,52.6484 125.3494,52.6484 125.3494,52.6484 L 125.3494,3.4959 C 125.3494,2.4606 124.5017,1.6204 123.4665,1.6204 C 123.4665,1.6204 123.4665,1.6204 123.4665,1.6204 C 122.4312,1.6204 121.5910,2.4606 121.5910,3.4959 L 121.5910,3.4959 L 121.5910,52.6484 C 121.5910,53.6837 122.4312,54.5239 123.4665,54.5239 Z " stroke="#A0B0B6" stroke-width="0.0075" stroke-linecap="round" stroke-linejoin="round" fill="none"/>
        </g>
        <g transform="matrix(1.0000 0.0000 0.0000 1.0000 0.0000 0.0000)">
</g>
        <g transform="matrix(0.0625 0.0000 0.0000 0.0625 0.0000 0.0000)">
          <path d="M 49.2876,29.6776 C 49.2876,26.8718 47.0145,24.5913 44.2088,24.5913 C 41.4031,24.5913 39.1225,26.8643 39.1225,29.6776 C 39.1225,32.4833 41.4031,34.7564 44.2088,34.7564 C 47.0145,34.7564 49.2876,32.4833 49.2876,29.6776 Z M 21.8231,29.6776 C 21.8231,26.8718 19.5500,24.5913 16.7443,24.5913 C 13.9386,24.5913 11.6655,26.8643 11.6655,29.6776 C 11.6655,32.4833 13.9386,34.7564 16.7443,34.7564 C 19.5500,34.7564 21.8231,32.4833 21.8231,29.6776 Z M 113.9315,29.6776 C 113.9315,26.8718 111.6585,24.5913 108.8527,24.5913 C 106.0470,24.5913 103.7739,26.8643 103.7739,29.6776 C 103.7739,32.4833 106.0470,34.7564 108.8527,34.7564 C 111.6585,34.7564 113.9315,32.4833 113.9315,29.6776 Z M 86.4670,29.6776 C 86.4670,26.8718 84.1940,24.5913 81.3882,24.5913 C 78.5825,24.5913 76.3094,26.8643 76.3094,29.6776 C 76.3094,32.4833 78.5825,34.7564 81.3882,34.7564 C 84.1940,34.7564 86.4670,32.4833 86.4670,29.6776 Z " fill="#4D4D4D" stroke="none"/>
        </g>
        <g transform="matrix(1.0000 0.0000 0.0000 1.0000 0.0000 0.0000)">
</g>
        <g transform="matrix(0.0625 0.0000 0.0000 0.0625 0.0000 0.0000)">
          <path d="M 49.2876,29.6776 C 49.2876,26.8718 47.0145,24.5913 44.2088,24.5913 C 41.4031,24.5913 39.1225,26.8643 39.1225,29.6776 C 39.1225,32.4833 41.4031,34.7564 44.2088,34.7564 C 47.0145,34.7564 49.2876,32.4833 49.2876,29.6776 Z M 21.8231,29.6776 C 21.8231,26.8718 19.5500,24.5913 16.7443,24.5913 C 13.9386,24.5913 11.6655,26.8643 11.6655,29.6776 C 11.6655,32.4833 13.9386,34.7564 16.7443,34.7564 C 19.5500,34.7564 21.8231,32.4833 21.8231,29.6776 Z M 113.9315,29.6776 C 113.9315,26.8718 111.6585,24.5913 108.8527,24.5913 C 106.0470,24.5913 103.7739,26.8643 103.7739,29.6776 C 103.7739,32.4833 106.0470,34.7564 108.8527,34.7564 C 111.6585,34.7564 113.9315,32.4833 113.9315,29.6776 Z M 86.4670,29.6776 C 86.4670,26.8718 84.1940,24.5913 81.3882,24.5913 C 78.5825,24.5913 76.3094,26.8643 76.3094,29.6776 C 76.3094,32.4833 78.5825,34.7564 81.3882,34.7564 C 84.1940,34.7564 86.4670,32.4833 86.4670,29.6776 Z " stroke="#333333" stroke-width="0.0075" stroke-linecap="round" stroke-linejoin="round" fill="none"/>
        </g>
        <g transform="matrix(1.0000 0.0000 0.0000 1.0000 0.0000 0.0000)">
          <path d="M 0.3901,0.4276 L 3.4209,0.4276 L 3.4209,0.0150 L 0.3901,0.0150 L 0.3901,0.4276 Z M 4.4261,0.4276 L 7.4644,0.4276 L 7.4644,0.0150 L 4.4261,0.0150 L 4.4261,0.4276 Z " fill="none" stroke="none"/>
          <defs>
            <clipPath id="clip-689034589">
              <path d="M 0.3901,0.4276 L 3.4209,0.4276 L 3.4209,0.0150 L 0.3901,0.0150 L 0.3901,0.4276 Z M 4.4261,0.4276 L 7.4644,0.4276 L 7.4644,0.0150 L 4.4261,0.0150 L 4.4261,0.4276 Z Z"/>
            </clipPath>
          </defs>
          <path clip-path="url(#clip-689034589)" d="M 0.3751,0.0000 L 0.3751,0.0150 L 7.4719,0.0150 L 7.4719,0.0000 L 0.3751,0.0000 Z" stroke-width="1px" stroke="#8D8D8D" fill="#8D8D8D"/>
          <path clip-path="url(#clip-689034589)" d="M 0.3751,0.0150 L 0.3751,0.0225 L 7.4719,0.0225 L 7.4719,0.0150 L 0.3751,0.0150 Z" stroke-width="1px" stroke="#909090" fill="#909090"/>
          <path clip-path="url(#clip-689034589)" d="M 0.3751,0.0225 L 0.3751,0.0300 L 7.4719,0.0300 L 7.4719,0.0225 L 0.3751,0.0225 Z" stroke-width="1px" stroke="#939393" fill="#939393"/>
          <path clip-path="url(#clip-689034589)" d="M 0.3751,0.0300 L 0.3751,0.0375 L 7.4719,0.0375 L 7.4719,0.0300 L 0.3751,0.0300 Z" stroke-width="1px" stroke="#969696" fill="#969696"/>
          <path clip-path="url(#clip-689034589)" d="M 0.3751,0.0375 L 0.3751,0.0450 L 7.4719,0.0450 L 7.4719,0.0375 L 0.3751,0.0375 Z" stroke-width="1px" stroke="#989898" fill="#989898"/>
          <path clip-path="url(#clip-689034589)" d="M 0.3751,0.0450 L 0.3751,0.0525 L 7.4719,0.0525 L 7.4719,0.0450 L 0.3751,0.0450 Z" stroke-width="1px" stroke="#9B9B9B" fill="#9B9B9B"/>
          <path clip-path="url(#clip-689034589)" d="M 0.3751,0.0525 L 0.3751,0.0600 L 7.4719,0.0600 L 7.4719,0.0525 L 0.3751,0.0525 Z" stroke-width="1px" stroke="#9D9D9D" fill="#9D9D9D"/>
          <path clip-path="url(#clip-689034589)" d="M 0.3751,0.0600 L 0.3751,0.0675 L 7.4719,0.0675 L 7.4719,0.0600 L 0.3751,0.0600 Z" stroke-width="1px" stroke="#A0A0A0" fill="#A0A0A0"/>
          <path clip-path="url(#clip-689034589)" d="M 0.3751,0.0675 L 0.3751,0.0750 L 7.4719,0.0750 L 7.4719,0.0675 L 0.3751,0.0675 Z" stroke-width="1px" stroke="#A3A3A3" fill="#A3A3A3"/>
          <path clip-path="url(#clip-689034589)" d="M 0.3751,0.0750 L 0.3751,0.0825 L 7.4719,0.0825 L 7.4719,0.0750 L 0.3751,0.0750 Z" stroke-width="1px" stroke="#A6A6A6" fill="#A6A6A6"/>
          <path clip-path="url(#clip-689034589)" d="M 0.3751,0.0825 L 0.3751,0.0900 L 7.4719,0.0900 L 7.4719,0.0825 L 0.3751,0.0825 Z" stroke-width="1px" stroke="#A8A8A8" fill="#A8A8A8"/>
          <path clip-path="url(#clip-689034589)" d="M 0.3751,0.0900 L 0.3751,0.0975 L 7.4719,0.0975 L 7.4719,0.0900 L 0.3751,0.0900 Z" stroke-width="1px" stroke="#ABABAB" fill="#ABABAB"/>
          <path clip-path="url(#clip-689034589)" d="M 0.3751,0.0975 L 0.3751,0.1050 L 7.4719,0.1050 L 7.4719,0.0975 L 0.3751,0.0975 Z" stroke-width="1px" stroke="#AEAEAE" fill="#AEAEAE"/>
          <path clip-path="url(#clip-689034589)" d="M 0.3751,0.1050 L 0.3751,0.1125 L 7.4719,0.1125 L 7.4719,0.1050 L 0.3751,0.1050 Z" stroke-width="1px" stroke="#B1B1B1" fill="#B1B1B1"/>
          <path clip-path="url(#clip-689034589)" d="M 0.3751,0.1125 L 0.3751,0.1200 L 7.4719,0.1200 L 7.4719,0.1125 L 0.3751,0.1125 Z" stroke-width="1px" stroke="#B4B4B4" fill="#B4B4B4"/>
          <path clip-path="url(#clip-689034589)" d="M 0.3751,0.1200 L 0.3751,0.1275 L 7.4719,0.1275 L 7.4719,0.1200 L 0.3751,0.1200 Z" stroke-width="1px" stroke="#B6B6B6" fill="#B6B6B6"/>
          <path clip-path="url(#clip-689034589)" d="M 0.3751,0.1275 L 0.3751,0.1350 L 7.4719,0.1350 L 7.4719,0.1275 L 0.3751,0.1275 Z" stroke-width="1px" stroke="#B9B9B9" fill="#B9B9B9"/>
          <path clip-path="url(#clip-689034589)" d="M 0.3751,0.1350 L 0.3751,0.1425 L 7.4719,0.1425 L 7.4719,0.1350 L 0.3751,0.1350 Z" stroke-width="1px" stroke="#BBBBBB" fill="#BBBBBB"/>
          <path clip-path="url(#clip-689034589)" d="M 0.3751,0.1425 L 0.3751,0.1500 L 7.4719,0.1500 L 7.4719,0.1425 L 0.3751,0.1425 Z" stroke-width="1px" stroke="#BEBEBE" fill="#BEBEBE"/>
          <path clip-path="url(#clip-689034589)" d="M 0.3751,0.1500 L 0.3751,0.1575 L 7.4719,0.1575 L 7.4719,0.1500 L 0.3751,0.1500 Z" stroke-width="1px" stroke="#C1C1C1" fill="#C1C1C1"/>
          <path clip-path="url(#clip-689034589)" d="M 0.3751,0.1575 L 0.3751,0.1650 L 7.4719,0.1650 L 7.4719,0.1575 L 0.3751,0.1575 Z" stroke-width="1px" stroke="#C3C3C3" fill="#C3C3C3"/>
          <path clip-path="url(#clip-689034589)" d="M 0.3751,0.1650 L 0.3751,0.1725 L 7.4719,0.1725 L 7.4719,0.1650 L 0.3751,0.1650 Z" stroke-width="1px" stroke="#C6C6C6" fill="#C6C6C6"/>
          <path clip-path="url(#clip-689034589)" d="M 0.3751,0.1725 L 0.3751,0.1800 L 7.4719,0.1800 L 7.4719,0.1725 L 0.3751,0.1725 Z" stroke-width="1px" stroke="#C9C9C9" fill="#C9C9C9"/>
          <path clip-path="url(#clip-689034589)" d="M 0.3751,0.1800 L 0.3751,0.1875 L 7.4719,0.1875 L 7.4719,0.1800 L 0.3751,0.1800 Z" stroke-width="1px" stroke="#CBCBCB" fill="#CBCBCB"/>
          <path clip-path="url(#clip-689034589)" d="M 0.3751,0.1875 L 0.3751,0.1950 L 7.4719,0.1950 L 7.4719,0.1875 L 0.3751,0.1875 Z" stroke-width="1px" stroke="#CECECE" fill="#CECECE"/>
          <path clip-path="url(#clip-689034589)" d="M 0.3751,0.1950 L 0.3751,0.2026 L 7.4719,0.2026 L 7.4719,0.1950 L 0.3751,0.1950 Z" stroke-width="1px" stroke="#D0D0D0" fill="#D0D0D0"/>
          <path clip-path="url(#clip-689034589)" d="M 0.3751,0.2026 L 0.3751,0.2101 L 7.4719,0.2101 L 7.4719,0.2026 L 0.3751,0.2026 Z" stroke-width="1px" stroke="#D3D3D3" fill="#D3D3D3"/>
          <path clip-path="url(#clip-689034589)" d="M 0.3751,0.2101 L 0.3751,0.2176 L 7.4719,0.2176 L 7.4719,0.2101 L 0.3751,0.2101 Z" stroke-width="1px" stroke="#D6D6D6" fill="#D6D6D6"/>
          <path clip-path="url(#clip-689034589)" d="M 0.3751,0.2176 L 0.3751,0.2251 L 7.4719,0.2251 L 7.4719,0.2176 L 0.3751,0.2176 Z" stroke-width="1px" stroke="#D9D9D9" fill="#D9D9D9"/>
          <path clip-path="url(#clip-689034589)" d="M 0.3751,0.2251 L 0.3751,0.2326 L 7.4719,0.2326 L 7.4719,0.2251 L 0.3751,0.2251 Z" stroke-width="1px" stroke="#D6D6D6" fill="#D6D6D6"/>
          <path clip-path="url(#clip-689034589)" d="M 0.3751,0.2326 L 0.3751,0.2401 L 7.4719,0.2401 L 7.4719,0.2326 L 0.3751,0.2326 Z" stroke-width="1px" stroke="#D4D4D4" fill="#D4D4D4"/>
          <path clip-path="url(#clip-689034589)" d="M 0.3751,0.2401 L 0.3751,0.2476 L 7.4719,0.2476 L 7.4719,0.2401 L 0.3751,0.2401 Z" stroke-width="1px" stroke="#D1D1D1" fill="#D1D1D1"/>
          <path clip-path="url(#clip-689034589)" d="M 0.3751,0.2476 L 0.3751,0.2551 L 7.4719,0.2551 L 7.4719,0.2476 L 0.3751,0.2476 Z" stroke-width="1px" stroke="#CECECE" fill="#CECECE"/>
          <path clip-path="url(#clip-689034589)" d="M 0.3751,0.2551 L 0.3751,0.2626 L 7.4719,0.2626 L 7.4719,0.2551 L 0.3751,0.2551 Z" stroke-width="1px" stroke="#CCCCCC" fill="#CCCCCC"/>
          <path clip-path="url(#clip-689034589)" d="M 0.3751,0.2626 L 0.3751,0.2701 L 7.4719,0.2701 L 7.4719,0.2626 L 0.3751,0.2626 Z" stroke-width="1px" stroke="#C9C9C9" fill="#C9C9C9"/>
          <path clip-path="url(#clip-689034589)" d="M 0.3751,0.2701 L 0.3751,0.2776 L 7.4719,0.2776 L 7.4719,0.2701 L 0.3751,0.2701 Z" stroke-width="1px" stroke="#C7C7C7" fill="#C7C7C7"/>
          <path clip-path="url(#clip-689034589)" d="M 0.3751,0.2776 L 0.3751,0.2851 L 7.4719,0.2851 L 7.4719,0.2776 L 0.3751,0.2776 Z" stroke-width="1px" stroke="#C4C4C4" fill="#C4C4C4"/>
          <path clip-path="url(#clip-689034589)" d="M 0.3751,0.2851 L 0.3751,0.2926 L 7.4719,0.2926 L 7.4719,0.2851 L 0.3751,0.2851 Z" stroke-width="1px" stroke="#C1C1C1" fill="#C1C1C1"/>
          <path clip-path="url(#clip-689034589)" d="M 0.3751,0.2926 L 0.3751,0.3001 L 7.4719,0.3001 L 7.4719,0.2926 L 0.3751,0.2926 Z" stroke-width="1px" stroke="#BEBEBE" fill="#BEBEBE"/>
          <path clip-path="url(#clip-689034589)" d="M 0.3751,0.3001 L 0.3751,0.3076 L 7.4719,0.3076 L 7.4719,0.3001 L 0.3751,0.3001 Z" stroke-width="1px" stroke="#BCBCBC" fill="#BCBCBC"/>
          <path clip-path="url(#clip-689034589)" d="M 0.3751,0.3076 L 0.3751,0.3151 L 7.4719,0.3151 L 7.4719,0.3076 L 0.3751,0.3076 Z" stroke-width="1px" stroke="#B9B9B9" fill="#B9B9B9"/>
          <path clip-path="url(#clip-689034589)" d="M 0.3751,0.3151 L 0.3751,0.3226 L 7.4719,0.3226 L 7.4719,0.3151 L 0.3751,0.3151 Z" stroke-width="1px" stroke="#B7B7B7" fill="#B7B7B7"/>
          <path clip-path="url(#clip-689034589)" d="M 0.3751,0.3226 L 0.3751,0.3301 L 7.4719,0.3301 L 7.4719,0.3226 L 0.3751,0.3226 Z" stroke-width="1px" stroke="#B4B4B4" fill="#B4B4B4"/>
          <path clip-path="url(#clip-689034589)" d="M 0.3751,0.3301 L 0.3751,0.3376 L 7.4719,0.3376 L 7.4719,0.3301 L 0.3751,0.3301 Z" stroke-width="1px" stroke="#B1B1B1" fill="#B1B1B1"/>
          <path clip-path="url(#clip-689034589)" d="M 0.3751,0.3376 L 0.3751,0.3451 L 7.4719,0.3451 L 7.4719,0.3376 L 0.3751,0.3376 Z" stroke-width="1px" stroke="#AFAFAF" fill="#AFAFAF"/>
          <path clip-path="url(#clip-689034589)" d="M 0.3751,0.3451 L 0.3751,0.3526 L 7.4719,0.3526 L 7.4719,0.3451 L 0.3751,0.3451 Z" stroke-width="1px" stroke="#ACACAC" fill="#ACACAC"/>
          <path clip-path="url(#clip-689034589)" d="M 0.3751,0.3526 L 0.3751,0.3601 L 7.4719,0.3601 L 7.4719,0.3526 L 0.3751,0.3526 Z" stroke-width="1px" stroke="#A9A9A9" fill="#A9A9A9"/>
          <path clip-path="url(#clip-689034589)" d="M 0.3751,0.3601 L 0.3751,0.3676 L 7.4719,0.3676 L 7.4719,0.3601 L 0.3751,0.3601 Z" stroke-width="1px" stroke="#A6A6A6" fill="#A6A6A6"/>
          <path clip-path="url(#clip-689034589)" d="M 0.3751,0.3676 L 0.3751,0.3751 L 7.4719,0.3751 L 7.4719,0.3676 L 0.3751,0.3676 Z" stroke-width="1px" stroke="#A3A3A3" fill="#A3A3A3"/>
          <path clip-path="url(#clip-689034589)" d="M 0.3751,0.3751 L 0.3751,0.3826 L 7.4719,0.3826 L 7.4719,0.3751 L 0.3751,0.3751 Z" stroke-width="1px" stroke="#A1A1A1" fill="#A1A1A1"/>
          <path clip-path="url(#clip-689034589)" d="M 0.3751,0.3826 L 0.3751,0.3901 L 7.4719,0.3901 L 7.4719,0.3826 L 0.3751,0.3826 Z" stroke-width="1px" stroke="#9E9E9E" fill="#9E9E9E"/>
          <path clip-path="url(#clip-689034589)" d="M 0.3751,0.3901 L 0.3751,0.3976 L 7.4719,0.3976 L 7.4719,0.3901 L 0.3751,0.3901 Z" stroke-width="1px" stroke="#9B9B9B" fill="#9B9B9B"/>
          <path clip-path="url(#clip-689034589)" d="M 0.3751,0.3976 L 0.3751,0.4051 L 7.4719,0.4051 L 7.4719,0.3976 L 0.3751,0.3976 Z" stroke-width="1px" stroke="#999999" fill="#999999"/>
          <path clip-path="url(#clip-689034589)" d="M 0.3751,0.4051 L 0.3751,0.4126 L 7.4719,0.4126 L 7.4719,0.4051 L 0.3751,0.4051 Z" stroke-width="1px" stroke="#969696" fill="#969696"/>
          <path clip-path="url(#clip-689034589)" d="M 0.3751,0.4126 L 0.3751,0.4201 L 7.4719,0.4201 L 7.4719,0.4126 L 0.3751,0.4126 Z" stroke-width="1px" stroke="#949494" fill="#949494"/>
          <path clip-path="url(#clip-689034589)" d="M 0.3751,0.4201 L 0.3751,0.4276 L 7.4719,0.4276 L 7.4719,0.4201 L 0.3751,0.4201 Z" stroke-width="1px" stroke="#919191" fill="#919191"/>
          <path clip-path="url(#clip-689034589)" d="M 0.3751,0.4276 L 0.3751,0.4351 L 7.4719,0.4351 L 7.4719,0.4276 L 0.3751,0.4276 Z" stroke-width="1px" stroke="#8E8E8E" fill="#8E8E8E"/>
        </g>
        <g transform="matrix(0.0625 0.0000 0.0000 0.0625 0.0000 0.0000)">
          <path d="M 6.1441,6.8117 L 54.7340,6.8117 L 54.7340,0.1800 L 6.1441,0.1800 L 6.1441,6.8117 Z" stroke="#808080" stroke-width="0.0075" stroke-linecap="round" stroke-linejoin="round" fill="none"/>
          <path d="M 70.7955,6.8117 L 119.3854,6.8117 L 119.3854,0.1800 L 70.7955,0.1800 L 70.7955,6.8117 Z" stroke="#808080" stroke-width="0.0075" stroke-linecap="round" stroke-linejoin="round" fill="none"/>
        </g>
        <g transform="matrix(1.0000 0.0000 0.0000 1.0000 0.0000 0.0000)">
</g>
        <g transform="matrix(0.0625 0.0000 0.0000 0.0625 0.0000 0.0000)">
          <path d="M 19.5050,29.6776 C 19.5050,28.1472 18.2672,26.9094 16.7443,26.9094 C 15.2214,26.9094 13.9836,28.1472 13.9836,29.6776 C 13.9836,31.2005 15.2214,32.4383 16.7443,32.4383 C 18.2672,32.4383 19.5050,31.2005 19.5050,29.6776 Z M 46.9695,29.6776 C 46.9695,28.1472 45.7317,26.9094 44.2088,26.9094 C 42.6784,26.9094 41.4481,28.1472 41.4481,29.6776 C 41.4481,31.2005 42.6784,32.4383 44.2088,32.4383 C 45.7317,32.4383 46.9695,31.2005 46.9695,29.6776 Z M 84.1489,29.6776 C 84.1489,28.1472 82.9111,26.9094 81.3882,26.9094 C 79.8654,26.9094 78.6275,28.1472 78.6275,29.6776 C 78.6275,31.2005 79.8654,32.4383 81.3882,32.4383 C 82.9111,32.4383 84.1489,31.2005 84.1489,29.6776 Z M 111.6134,29.6776 C 111.6134,28.1472 110.3756,26.9094 108.8527,26.9094 C 107.3224,26.9094 106.0920,28.1472 106.0920,29.6776 C 106.0920,31.2005 107.3224,32.4383 108.8527,32.4383 C 110.3756,32.4383 111.6134,31.2005 111.6134,29.6776 Z " fill="#1A1A1A" stroke="none"/>
        </g>
        <g transform="matrix(1.0000 0.0000 0.0000 1.0000 0.0000 0.0000)">
</g>
        <g transform="matrix(0.0625 0.0000 0.0000 0.0625 0.0000 0.0000)">
          <path d="M 19.5050,29.6776 C 19.5050,28.1472 18.2672,26.9094 16.7443,26.9094 C 15.2214,26.9094 13.9836,28.1472 13.9836,29.6776 C 13.9836,31.2005 15.2214,32.4383 16.7443,32.4383 C 18.2672,32.4383 19.5050,31.2005 19.5050,29.6776 Z M 46.9695,29.6776 C 46.9695,28.1472 45.7317,26.9094 44.2088,26.9094 C 42.6784,26.9094 41.4481,28.1472 41.4481,29.6776 C 41.4481,31.2005 42.6784,32.4383 44.2088,32.4383 C 45.7317,32.4383 46.9695,31.2005 46.9695,29.6776 Z M 84.1489,29.6776 C 84.1489,28.1472 82.9111,26.9094 81.3882,26.9094 C 79.8654,26.9094 78.6275,28.1472 78.6275,29.6776 C 78.6275,31.2005 79.8654,32.4383 81.3882,32.4383 C 82.9111,32.4383 84.1489,31.2005 84.1489,29.6776 Z M 111.6134,29.6776 C 111.6134,28.1472 110.3756,26.9094 108.8527,26.9094 C 107.3224,26.9094 106.0920,28.1472 106.0920,29.6776 C 106.0920,31.2005 107.3224,32.4383 108.8527,32.4383 C 110.3756,32.4383 111.6134,31.2005 111.6134,29.6776 Z " stroke="#666666" stroke-width="0.0075" stroke-linecap="round" stroke-linejoin="round" fill="none"/>
        </g>
        <g transform="matrix(1.0000 0.0000 0.0000 1.0000 0.0000 0.0000)">
</g>
      </g>
      <!--emf-blob end-->
    </g>
  </g>
</svg>
