<svg xmlns="http://www.w3.org/2000/svg" xmlns:xlink="http://www.w3.org/1999/xlink" version="1.1" width="22.4777000000" height="7.2000000000">
  <title><![CDATA[X1160A 10GbE Module]]></title>
  <g transform=" scale(1.000000) ">
    <g xmlns="http://www.w3.org/2000/svg" id="Layer1671">
      <path d="  M19.3043,5.3278 L19.0457,0.3928 L18.8467,0.3928 A0.1801,0.1801 0.0000 0,1 18.6666,0.2126 L18.6666,0.0325 L3.4482,0.0325 L3.4482,0.2126 A0.1801,0.1801 0.0000 0,1 3.2681,0.3928 L3.0691,0.3928 L2.8105,5.3278 L2.9525,5.3278 A0.1801,0.1801 0.0000 0,1 3.1326,5.5079 L3.1326,5.7240 L18.9822,5.7240 L18.9822,5.5079 A0.1801,0.1801 0.0000 0,1 19.1623,5.3278 L19.3043,5.3278 Z" style="stroke-width: 0.0000; stroke-linecap: round; stroke-linejoin: round; fill-rule: evenodd; fill: #e6e6e6; "/>
      <path d="  M19.3043,5.3278 L19.0457,0.3928 L18.8467,0.3928 A0.1801,0.1801 0.0000 0,1 18.6666,0.2126 L18.6666,0.0325 L3.4482,0.0325 L3.4482,0.2126 A0.1801,0.1801 0.0000 0,1 3.2681,0.3928 L3.0691,0.3928 L2.8105,5.3278 L2.9525,5.3278 A0.1801,0.1801 0.0000 0,1 3.1326,5.5079 L3.1326,5.7240 L18.9822,5.7240 L18.9822,5.5079 A0.1801,0.1801 0.0000 0,1 19.1623,5.3278 L19.3043,5.3278 Z" style="stroke-width: 0.0000; stroke: #808080; stroke-dasharray: none; stroke-linecap: round; stroke-linejoin: round; fill: none; "/>
    </g>
    <g xmlns="http://www.w3.org/2000/svg" id="Layer1672">
      <path d="  M7.1684,7.1649 L8.6092,7.1649 L8.6092,5.0036 L7.1684,5.0036 L7.1684,7.1649 Z" style="stroke-width: 0.0000; stroke-linecap: round; stroke-linejoin: round; fill-rule: evenodd; fill: #595959; "/>
      <path d="  M7.1684,7.1649 L8.6092,7.1649 L8.6092,5.0036 L7.1684,5.0036 L7.1684,7.1649 Z" style="stroke-width: 0.0000; stroke: #404040; stroke-dasharray: none; stroke-linecap: round; stroke-linejoin: round; fill: none; "/>
    </g>
    <g xmlns="http://www.w3.org/2000/svg" id="Layer1673">
      <path d="  M14.4908,5.7240 A3.6022,3.6022 0.0000 0,1 13.6194,5.6170 L11.5882,5.1106 A3.6022,3.6022 0.0000 0,0 10.7167,5.0036 L8.5372,5.0036 A0.1441,0.1441 0.0000 0,0 8.3931,5.1476 L8.3931,7.0208 A0.1441,0.1441 0.0000 0,0 8.5372,7.1649 L22.4777,7.1649 L22.4777,5.7240 L14.4908,5.7240 Z M5.0646,5.7240 L0.0000,5.7240 L0.0000,7.1649 L7.2404,7.1649 A0.1441,0.1441 0.0000 0,0 7.3845,7.0208 L7.3845,5.1476 A0.1441,0.1441 0.0000 0,0 7.2404,5.0036 L6.2462,5.0036 A0.3602,0.3602 0.0000 0,0 6.0266,5.0783 L5.2843,5.6493 A0.3602,0.3602 0.0000 0,1 5.0646,5.7240 Z" style="stroke-width: 0.0000; stroke-linecap: round; stroke-linejoin: round; fill-rule: evenodd; fill: #666666; "/>
      <path d="  M14.4908,5.7240 A3.6022,3.6022 0.0000 0,1 13.6194,5.6170 L11.5882,5.1106 A3.6022,3.6022 0.0000 0,0 10.7167,5.0036 L8.5372,5.0036 A0.1441,0.1441 0.0000 0,0 8.3931,5.1476 L8.3931,7.0208 A0.1441,0.1441 0.0000 0,0 8.5372,7.1649 L22.4777,7.1649 L22.4777,5.7240 L14.4908,5.7240 Z M5.0646,5.7240 L0.0000,5.7240 L0.0000,7.1649 L7.2404,7.1649 A0.1441,0.1441 0.0000 0,0 7.3845,7.0208 L7.3845,5.1476 A0.1441,0.1441 0.0000 0,0 7.2404,5.0036 L6.2462,5.0036 A0.3602,0.3602 0.0000 0,0 6.0266,5.0783 L5.2843,5.6493 A0.3602,0.3602 0.0000 0,1 5.0646,5.7240 Z" style="stroke-width: 0.0000; stroke: #404040; stroke-dasharray: none; stroke-linecap: round; stroke-linejoin: round; fill: none; "/>
    </g>
    <path xmlns="http://www.w3.org/2000/svg" d="  M9.1856,6.9487 L21.3250,6.9487 L21.3250,5.9401 L14.1306,5.9401 A3.8183,3.8183 0.0000 0,1 13.2069,5.8267 L11.1757,5.3203 A3.3861,3.3861 0.0000 0,0 10.3565,5.2197 L9.1856,5.2197 L9.1856,6.9487 Z" style="fill-rule: evenodd; fill: #d9680d; "/>
    <path xmlns="http://www.w3.org/2000/svg" d="  M10.8700,6.0697 L10.2470,5.7442 L10.2457,6.4286 L10.8700,6.0697 Z" style="fill-rule: evenodd; fill: #404040; "/>
    <!--converted by libvisio2svg-->
    <g transform=" translate(1.999400,-1.015300) ">
      <!--emf-blob start-->
      <g transform="translate(-0.8253, -0.8253)">
        <g transform="matrix(0.0625 0.0000 0.0000 0.0625 0.0000 0.0000)">
          <path d="M 24.7598,113.0698 L 295.4672,113.0698 C 297.9431,113.0698 299.5938,110.5939 299.5938,108.1179 C 299.5938,108.1179 299.5938,108.1179 299.5938,108.1179 L 295.4672,28.0611 C 295.4672,26.4105 293.8165,23.9345 291.3405,23.9345 L 291.3405,23.9345 L 28.8865,23.9345 C 26.4105,23.9345 24.7598,26.4105 24.7598,28.0611 L 19.8079,108.1179 C 19.8079,110.5939 22.2838,113.0698 24.7598,113.0698 C 24.7598,113.0698 24.7598,113.0698 24.7598,113.0698 Z " fill="#333333" stroke="none"/>
        </g>
        <g transform="matrix(1.0000 0.0000 0.0000 1.0000 0.0000 0.0000)">
          <text font-family="Arial" fill="#D9D9D9" style="white-space:pre;" font-weight="400" text-anchor="start" x="1.6507" y="5.7773" font-size="0.8253"><![CDATA[LNK]]></text>
          <text font-family="Arial" fill="#D9D9D9" style="white-space:pre;" font-weight="400" text-anchor="start" x="16.5065" y="5.7773" font-size="0.8253"><![CDATA[LNK]]></text>
        </g>
        <g transform="matrix(0.0625 0.0000 0.0000 0.0625 0.0000 0.0000)">
          <path d="M 38.7904,59.4236 L 37.9651,60.2489 C 37.9651,60.2489 37.9651,60.2489 37.9651,60.2489 C 37.9651,60.2489 37.9651,60.2489 37.9651,60.2489 L 37.1397,48.6943 C 37.1397,48.6943 37.1397,48.6943 37.1397,48.6943 L 37.1397,48.6943 L 35.4891,48.6943 C 35.4891,48.6943 35.4891,48.6943 35.4891,48.6943 L 33.8384,58.5982 C 33.8384,58.5982 33.8384,58.5982 33.8384,58.5982 L 25.5851,58.5982 C 25.5851,58.5982 25.5851,58.5982 25.5851,58.5982 L 25.5851,58.5982 L 25.5851,59.4236 C 25.5851,59.4236 25.5851,59.4236 25.5851,59.4236 L 25.5851,59.4236 L 35.4891,59.4236 C 35.4891,59.4236 35.4891,59.4236 35.4891,59.4236 L 35.4891,59.4236 L 36.3144,53.6463 C 36.3144,53.6463 36.3144,53.6463 36.3144,53.6463 C 36.3144,53.6463 36.3144,53.6463 36.3144,53.6463 L 36.3144,53.6463 L 37.1397,64.3755 C 37.1397,64.3755 37.1397,64.3755 37.1397,64.3755 L 37.1397,64.3755 L 37.9651,64.3755 C 38.7904,64.3755 38.7904,64.3755 38.7904,64.3755 L 39.6157,59.4236 C 39.6157,59.4236 39.6157,59.4236 39.6157,59.4236 C 39.6157,59.4236 39.6157,59.4236 39.6157,59.4236 L 39.6157,59.4236 L 40.4410,59.4236 C 40.4410,59.4236 40.4410,59.4236 40.4410,59.4236 L 40.4410,59.4236 L 43.7423,59.4236 C 43.7423,59.4236 43.7423,59.4236 43.7423,59.4236 C 44.5677,60.2489 45.3930,61.0742 46.2183,60.2489 C 46.2183,60.2489 47.0437,59.4236 46.2183,58.5982 C 46.2183,57.7729 45.3930,57.7729 44.5677,57.7729 C 44.5677,57.7729 44.5677,58.5982 43.7423,58.5982 C 43.7423,58.5982 43.7423,58.5982 43.7423,58.5982 L 41.2664,58.5982 C 41.2664,58.5982 41.2664,58.5982 40.4410,58.5982 L 39.6157,56.1223 C 39.6157,56.1223 39.6157,56.1223 39.6157,56.1223 C 39.6157,56.1223 39.6157,56.1223 39.6157,56.1223 L 38.7904,59.4236 Z " fill="#FFFFFF" stroke="none"/>
        </g>
        <g transform="matrix(1.0000 0.0000 0.0000 1.0000 0.0000 0.0000)">
</g>
        <g transform="matrix(0.0625 0.0000 0.0000 0.0625 0.0000 0.0000)">
          <path d="M 285.5632,59.4236 L 285.5632,60.2489 C 285.5632,60.2489 285.5632,60.2489 285.5632,60.2489 C 285.5632,60.2489 285.5632,60.2489 285.5632,60.2489 L 285.5632,60.2489 L 284.7379,48.6943 C 284.7379,48.6943 283.9126,48.6943 283.9126,48.6943 L 283.9126,48.6943 L 283.0873,48.6943 C 283.0873,48.6943 283.0873,48.6943 283.0873,48.6943 L 281.4366,58.5982 C 281.4366,58.5982 281.4366,58.5982 281.4366,58.5982 L 273.1833,58.5982 C 273.1833,58.5982 273.1833,58.5982 273.1833,58.5982 L 273.1833,59.4236 C 273.1833,59.4236 273.1833,59.4236 273.1833,59.4236 L 273.1833,59.4236 L 282.2619,59.4236 C 282.2619,59.4236 282.2619,59.4236 282.2619,59.4236 L 283.0873,53.6463 C 283.0873,53.6463 283.0873,53.6463 283.0873,53.6463 C 283.9126,53.6463 283.9126,53.6463 283.9126,53.6463 L 283.9126,53.6463 L 284.7379,64.3755 C 284.7379,64.3755 284.7379,64.3755 284.7379,64.3755 L 284.7379,64.3755 L 285.5632,64.3755 C 285.5632,64.3755 285.5632,64.3755 285.5632,64.3755 L 287.2139,59.4236 C 287.2139,59.4236 287.2139,59.4236 287.2139,59.4236 C 287.2139,59.4236 287.2139,59.4236 287.2139,59.4236 L 287.2139,59.4236 L 287.2139,59.4236 C 287.2139,59.4236 287.2139,59.4236 287.2139,59.4236 L 287.2139,59.4236 L 291.3405,59.4236 C 291.3405,59.4236 291.3405,59.4236 291.3405,59.4236 C 292.1659,60.2489 292.9912,61.0742 292.9912,60.2489 C 293.8165,60.2489 294.6418,59.4236 293.8165,58.5982 C 293.8165,57.7729 292.9912,57.7729 292.1659,57.7729 C 292.1659,57.7729 291.3405,58.5982 291.3405,58.5982 C 291.3405,58.5982 291.3405,58.5982 291.3405,58.5982 L 288.0392,58.5982 C 288.0392,58.5982 288.0392,58.5982 288.0392,58.5982 L 287.2139,56.1223 C 287.2139,56.1223 287.2139,56.1223 287.2139,56.1223 C 287.2139,56.1223 287.2139,56.1223 287.2139,56.1223 L 285.5632,59.4236 Z " fill="#FFFFFF" stroke="none"/>
        </g>
        <g transform="matrix(1.0000 0.0000 0.0000 1.0000 0.0000 0.0000)">
</g>
        <g transform="matrix(0.0625 0.0000 0.0000 0.0625 0.0000 0.0000)">
          <path d="M 159.2882,23.9345 L 74.2795,23.9345 L 74.2795,26.4105 L 74.2795,53.6463 L 60.2489,53.6463 L 60.2489,59.4236 L 74.2795,59.4236 L 74.2795,79.2314 L 60.2489,79.2314 L 60.2489,85.8340 L 74.2795,85.8340 L 74.2795,100.6899 L 74.2795,113.0698 L 245.9475,113.0698 L 245.9475,85.8340 L 259.1528,85.8340 L 259.1528,79.2314 L 245.9475,79.2314 L 245.9475,59.4236 L 259.1528,59.4236 L 259.1528,53.6463 L 245.1222,53.6463 L 245.9475,23.9345 L 160.9388,23.9345 L 160.9388,44.5677 L 159.2882,44.5677 L 159.2882,23.9345 Z" stroke-width="1px" stroke="#D9D9D9" fill="#D9D9D9"/>
        </g>
        <g transform="matrix(1.0000 0.0000 0.0000 1.0000 0.0000 0.0000)">
          <text font-family="Arial" fill="#333333" style="white-space:pre;" font-weight="400" text-anchor="start" x="6.6026" y="2.4760" font-size="1.6507"><![CDATA[e]]></text>
          <text font-family="Arial" fill="#333333" style="white-space:pre;" font-weight="400" text-anchor="start" x="7.4279" y="2.4760" font-size="1.6507"><![CDATA[1]]></text>
          <text font-family="Arial" fill="#333333" style="white-space:pre;" font-weight="400" text-anchor="start" x="8.2533" y="2.4760" font-size="1.6507"><![CDATA[a]]></text>
          <text font-family="Arial" fill="#333333" style="white-space:pre;" font-weight="400" text-anchor="start" x="10.7293" y="2.4760" font-size="1.6507"><![CDATA[e]]></text>
          <text font-family="Arial" fill="#333333" style="white-space:pre;" font-weight="400" text-anchor="start" x="11.5546" y="2.4760" font-size="1.6507"><![CDATA[1]]></text>
          <text font-family="Arial" fill="#333333" style="white-space:pre;" font-weight="400" text-anchor="start" x="12.3799" y="2.4760" font-size="1.6507"><![CDATA[b]]></text>
        </g>
        <g transform="matrix(0.0625 0.0000 0.0000 0.0625 0.0000 0.0000)">
          <path d="M 86.6594,43.7423 L 86.6594,95.7380 L 233.5676,95.7380 L 233.5676,43.7423 L 86.6594,43.7423 Z" stroke-width="1px" stroke="#1A1A1A" fill="#1A1A1A"/>
        </g>
        <g transform="matrix(1.0000 0.0000 0.0000 1.0000 0.0000 0.0000)">
</g>
        <g transform="matrix(0.0625 0.0000 0.0000 0.0625 0.0000 0.0000)">
          <path d="M 177.4454,92.4367 L 160.1135,92.4367 L 160.1135,45.3930 L 231.0916,45.3930 L 231.0916,92.4367 L 213.7598,92.4367 L 210.4585,95.7380 L 180.7467,95.7380 L 177.4454,92.4367 Z M 106.4672,92.4367 L 89.1353,92.4367 L 89.1353,45.3930 L 160.1135,45.3930 L 160.1135,92.4367 L 142.7816,92.4367 L 139.4803,95.7380 L 109.7685,95.7380 L 106.4672,92.4367 Z " fill="#1A1A1A" stroke-width="1px" stroke="#1A1A1A"/>
        </g>
        <g transform="matrix(1.0000 0.0000 0.0000 1.0000 0.0000 0.0000)">
</g>
        <g transform="matrix(0.0625 0.0000 0.0000 0.0625 0.0000 0.0000)">
          <path d="M 177.4454,92.4367 L 160.1135,92.4367 L 160.1135,45.3930 L 231.0916,45.3930 L 231.0916,92.4367 L 213.7598,92.4367 L 210.4585,95.7380 L 180.7467,95.7380 L 177.4454,92.4367 Z" stroke="#FFFFFF" stroke-width="1.6507" stroke-linecap="round" stroke-linejoin="round" fill="none"/>
          <path d="M 106.4672,92.4367 L 89.1353,92.4367 L 89.1353,45.3930 L 160.1135,45.3930 L 160.1135,92.4367 L 142.7816,92.4367 L 139.4803,95.7380 L 109.7685,95.7380 L 106.4672,92.4367 Z" stroke="#FFFFFF" stroke-width="1.6507" stroke-linecap="round" stroke-linejoin="round" fill="none"/>
        </g>
        <g transform="matrix(1.0000 0.0000 0.0000 1.0000 0.0000 0.0000)">
</g>
        <g transform="matrix(0.0625 0.0000 0.0000 0.0625 0.0000 0.0000)">
          <path d="M 182.3973,91.6113 L 160.1135,91.6113 L 160.1135,46.2183 L 231.0916,46.2183 L 231.0916,91.6113 L 208.8078,91.6113 L 206.3318,89.1353 L 184.8733,89.1353 L 182.3973,91.6113 Z M 111.4192,91.6113 L 89.1353,91.6113 L 89.1353,46.2183 L 160.1135,46.2183 L 160.1135,91.6113 L 137.0043,91.6113 L 135.3537,89.1353 L 113.8952,89.1353 L 111.4192,91.6113 Z " fill="#333333" stroke-width="1px" stroke="#333333"/>
        </g>
        <g transform="matrix(1.0000 0.0000 0.0000 1.0000 0.0000 0.0000)">
</g>
        <g transform="matrix(0.0625 0.0000 0.0000 0.0625 0.0000 0.0000)">
          <path d="M 182.3973,91.6113 L 160.1135,91.6113 L 160.1135,46.2183 L 231.0916,46.2183 L 231.0916,91.6113 L 208.8078,91.6113 L 206.3318,89.1353 L 184.8733,89.1353 L 182.3973,91.6113 Z" stroke="#FFFFFF" stroke-width="1.6507" stroke-linecap="round" stroke-linejoin="round" fill="none"/>
          <path d="M 111.4192,91.6113 L 89.1353,91.6113 L 89.1353,46.2183 L 160.1135,46.2183 L 160.1135,91.6113 L 137.0043,91.6113 L 135.3537,89.1353 L 113.8952,89.1353 L 111.4192,91.6113 Z" stroke="#FFFFFF" stroke-width="1.6507" stroke-linecap="round" stroke-linejoin="round" fill="none"/>
        </g>
        <g transform="matrix(1.0000 0.0000 0.0000 1.0000 0.0000 0.0000)">
</g>
        <g transform="matrix(0.0625 0.0000 0.0000 0.0625 0.0000 0.0000)">
          <path d="M 156.8122,103.1659 L 159.2882,103.1659 L 159.2882,108.9432 L 160.1135,108.9432 L 160.1135,106.4672 L 161.7641,106.4672 L 161.7641,108.1179 L 165.0655,108.1179 L 165.0655,103.9912 L 161.7641,103.9912 L 161.7641,105.6419 L 160.1135,105.6419 L 160.1135,99.0393 L 161.7641,99.0393 L 161.7641,100.6899 L 165.0655,100.6899 L 165.0655,96.5633 L 161.7641,96.5633 L 161.7641,98.2139 L 160.1135,98.2139 L 160.1135,96.5633 L 159.2882,96.5633 L 159.2882,101.5153 L 156.8122,101.5153 L 156.8122,99.8646 L 153.5109,99.8646 L 153.5109,103.9912 L 156.8122,103.9912 L 156.8122,103.1659 Z" stroke-width="1px" stroke="#000000" fill="#000000"/>
        </g>
        <g transform="matrix(1.0000 0.0000 0.0000 1.0000 0.0000 0.0000)">
</g>
        <g transform="matrix(0.0625 0.0000 0.0000 0.0625 0.0000 0.0000)">
          <path d="M 65.2009,82.5327 C 65.2009,80.0567 63.5502,77.5808 60.2489,77.5808 C 57.7729,77.5808 56.1223,80.0567 56.1223,82.5327 C 56.1223,85.0087 57.7729,87.4847 60.2489,87.4847 C 63.5502,87.4847 65.2009,85.0087 65.2009,82.5327 Z M 264.1047,82.5327 C 264.1047,80.0567 262.4541,77.5808 259.1528,77.5808 C 256.6768,77.5808 255.0261,80.0567 255.0261,82.5327 C 255.0261,85.0087 256.6768,87.4847 259.1528,87.4847 C 262.4541,87.4847 264.1047,85.0087 264.1047,82.5327 Z " fill="#A6A6A6" stroke="none"/>
        </g>
        <g transform="matrix(1.0000 0.0000 0.0000 1.0000 0.0000 0.0000)">
</g>
        <g transform="matrix(0.0625 0.0000 0.0000 0.0625 0.0000 0.0000)">
          <path d="M 65.2009,82.5327 C 65.2009,80.0567 63.5502,77.5808 60.2489,77.5808 C 57.7729,77.5808 56.1223,80.0567 56.1223,82.5327 C 56.1223,85.0087 57.7729,87.4847 60.2489,87.4847 C 63.5502,87.4847 65.2009,85.0087 65.2009,82.5327 Z M 264.1047,82.5327 C 264.1047,80.0567 262.4541,77.5808 259.1528,77.5808 C 256.6768,77.5808 255.0261,80.0567 255.0261,82.5327 C 255.0261,85.0087 256.6768,87.4847 259.1528,87.4847 C 262.4541,87.4847 264.1047,85.0087 264.1047,82.5327 Z " stroke="#808080" stroke-width="0.8253" stroke-linecap="round" stroke-linejoin="round" fill="none"/>
        </g>
        <g transform="matrix(1.0000 0.0000 0.0000 1.0000 0.0000 0.0000)">
</g>
        <g transform="matrix(0.0625 0.0000 0.0000 0.0625 0.0000 0.0000)">
          <path d="M 65.2009,56.9476 C 65.2009,53.6463 63.5502,51.9956 60.2489,51.9956 C 57.7729,51.9956 56.1223,53.6463 56.1223,56.9476 C 56.1223,59.4236 57.7729,61.0742 60.2489,61.0742 C 63.5502,61.0742 65.2009,59.4236 65.2009,56.9476 Z M 264.1047,56.9476 C 264.1047,53.6463 262.4541,51.9956 259.1528,51.9956 C 256.6768,51.9956 255.0261,53.6463 255.0261,56.9476 C 255.0261,59.4236 256.6768,61.0742 259.1528,61.0742 C 262.4541,61.0742 264.1047,59.4236 264.1047,56.9476 Z " fill="#A6A6A6" stroke="none"/>
        </g>
        <g transform="matrix(1.0000 0.0000 0.0000 1.0000 0.0000 0.0000)">
</g>
        <g transform="matrix(0.0625 0.0000 0.0000 0.0625 0.0000 0.0000)">
          <path d="M 65.2009,56.9476 C 65.2009,53.6463 63.5502,51.9956 60.2489,51.9956 C 57.7729,51.9956 56.1223,53.6463 56.1223,56.9476 C 56.1223,59.4236 57.7729,61.0742 60.2489,61.0742 C 63.5502,61.0742 65.2009,59.4236 65.2009,56.9476 Z M 264.1047,56.9476 C 264.1047,53.6463 262.4541,51.9956 259.1528,51.9956 C 256.6768,51.9956 255.0261,53.6463 255.0261,56.9476 C 255.0261,59.4236 256.6768,61.0742 259.1528,61.0742 C 262.4541,61.0742 264.1047,59.4236 264.1047,56.9476 Z " stroke="#808080" stroke-width="0.8253" stroke-linecap="round" stroke-linejoin="round" fill="none"/>
        </g>
        <g transform="matrix(1.0000 0.0000 0.0000 1.0000 0.0000 0.0000)">
</g>
      </g>
      <!--emf-blob end-->
    </g>
  </g>
</svg>
