<svg xmlns="http://www.w3.org/2000/svg" xmlns:xlink="http://www.w3.org/1999/xlink" version="1.1" width="21.6000000000" height="20.0880000000">
  <title><![CDATA[R910 Disk Carrier]]></title>
  <g transform=" scale(1.000000) ">
    <g xmlns="http://www.w3.org/2000/svg" id="Layer2252">
      <path d="  M19.6431,0.0000 L1.9580,0.0000 L1.9580,0.4383 L-0.0715,0.4383 L-0.0715,19.5036 L0.7258,19.5036 L0.7258,20.0880 L20.8752,20.0880 L20.8752,19.5036 L21.6725,19.5036 L21.6725,0.4383 L19.6431,0.4383 L19.6431,0.0000 Z" style="stroke-width: 0.0000; stroke-linecap: round; stroke-linejoin: round; fill-rule: evenodd; fill: #1a1a1a; "/>
      <path d="  M19.6431,0.0000 L1.9580,0.0000 L1.9580,0.4383 L-0.0715,0.4383 L-0.0715,19.5036 L0.7258,19.5036 L0.7258,20.0880 L20.8752,20.0880 L20.8752,19.5036 L21.6725,19.5036 L21.6725,0.4383 L19.6431,0.4383 L19.6431,0.0000 Z" style="stroke-width: 0.0000; stroke: #1a1a1a; stroke-dasharray: none; stroke-linecap: round; stroke-linejoin: round; fill: none; "/>
    </g>
    <g xmlns="http://www.w3.org/2000/svg" id="Layer2253">
      <path d="  M0.3605,20.0340 L21.2405,20.0340 A0.3600,0.3600 0.0000 0,0 21.6005,19.6740 L21.6005,16.0740 A0.3600,0.3600 0.0000 0,0 21.2405,15.7140 L0.3605,15.7140 A0.3600,0.3600 0.0000 0,0 0.0005,16.0740 L0.0005,19.6740 A0.3600,0.3600 0.0000 0,0 0.3605,20.0340 Z M0.3605,14.8140 L21.2405,14.8140 A0.3600,0.3600 0.0000 0,0 21.6005,14.4540 L21.6005,10.8540 A0.3600,0.3600 0.0000 0,0 21.2405,10.4940 L0.3605,10.4940 A0.3600,0.3600 0.0000 0,0 0.0005,10.8540 L0.0005,14.4540 A0.3600,0.3600 0.0000 0,0 0.3605,14.8140 Z M0.3605,9.5940 L21.2405,9.5940 A0.3600,0.3600 0.0000 0,0 21.6005,9.2340 L21.6005,5.6340 A0.3600,0.3600 0.0000 0,0 21.2405,5.2740 L0.3605,5.2740 A0.3600,0.3600 0.0000 0,0 0.0005,5.6340 L0.0005,9.2340 A0.3600,0.3600 0.0000 0,0 0.3605,9.5940 Z M0.3605,4.3740 L21.2405,4.3740 A0.3600,0.3600 0.0000 0,0 21.6005,4.0140 L21.6005,0.4140 A0.3600,0.3600 0.0000 0,0 21.2405,0.0540 L0.3605,0.0540 A0.3600,0.3600 0.0000 0,0 0.0005,0.4140 L0.0005,4.0140 A0.3600,0.3600 0.0000 0,0 0.3605,4.3740 Z" style="stroke-width: 0.0000; stroke-linecap: round; stroke-linejoin: round; fill-rule: evenodd; fill: #595959; "/>
      <path d="  M0.3605,20.0340 L21.2405,20.0340 A0.3600,0.3600 0.0000 0,0 21.6005,19.6740 L21.6005,16.0740 A0.3600,0.3600 0.0000 0,0 21.2405,15.7140 L0.3605,15.7140 A0.3600,0.3600 0.0000 0,0 0.0005,16.0740 L0.0005,19.6740 A0.3600,0.3600 0.0000 0,0 0.3605,20.0340 Z M0.3605,14.8140 L21.2405,14.8140 A0.3600,0.3600 0.0000 0,0 21.6005,14.4540 L21.6005,10.8540 A0.3600,0.3600 0.0000 0,0 21.2405,10.4940 L0.3605,10.4940 A0.3600,0.3600 0.0000 0,0 0.0005,10.8540 L0.0005,14.4540 A0.3600,0.3600 0.0000 0,0 0.3605,14.8140 Z M0.3605,9.5940 L21.2405,9.5940 A0.3600,0.3600 0.0000 0,0 21.6005,9.2340 L21.6005,5.6340 A0.3600,0.3600 0.0000 0,0 21.2405,5.2740 L0.3605,5.2740 A0.3600,0.3600 0.0000 0,0 0.0005,5.6340 L0.0005,9.2340 A0.3600,0.3600 0.0000 0,0 0.3605,9.5940 Z M0.3605,4.3740 L21.2405,4.3740 A0.3600,0.3600 0.0000 0,0 21.6005,4.0140 L21.6005,0.4140 A0.3600,0.3600 0.0000 0,0 21.2405,0.0540 L0.3605,0.0540 A0.3600,0.3600 0.0000 0,0 0.0005,0.4140 L0.0005,4.0140 A0.3600,0.3600 0.0000 0,0 0.3605,4.3740 Z" style="stroke-width: 0.0000; stroke: #333333; stroke-dasharray: none; stroke-linecap: round; stroke-linejoin: round; fill: none; "/>
    </g>
    <defs xmlns="http://www.w3.org/2000/svg" xmlns:xlink="http://www.w3.org/1999/xlink">
      <linearGradient id="grad997">
        <stop offset="0%" stop-color="#595959" stop-opacity="1.0000"/>
        <stop offset="100%" stop-color="#333333" stop-opacity="1.0000"/>
      </linearGradient>
      <linearGradient xlink:href="#grad997" id="grad998" x1="0" y1="0" x2="0" y2="1" gradientTransform="rotate(180 .5 .5)" gradientUnits="objectBoundingBox">
  </linearGradient>
    </defs>
    <path xmlns="http://www.w3.org/2000/svg" d="  M3.5056,0.7738 L18.6787,0.7738 L18.6787,0.0540 L3.5056,0.0540 L3.5056,0.7738 Z" style="fill-rule: evenodd; fill: url(#grad998); "/>
    <defs xmlns="http://www.w3.org/2000/svg" xmlns:xlink="http://www.w3.org/1999/xlink">
      <linearGradient id="grad999">
        <stop offset="0%" stop-color="#595959" stop-opacity="1.0000"/>
        <stop offset="100%" stop-color="#333333" stop-opacity="1.0000"/>
      </linearGradient>
      <linearGradient xlink:href="#grad999" id="grad1000" x1="0" y1="0" x2="0" y2="1" gradientTransform="rotate(-0 .5 .5)" gradientUnits="objectBoundingBox">
  </linearGradient>
    </defs>
    <path xmlns="http://www.w3.org/2000/svg" d="  M3.5056,4.3740 L18.6787,4.3740 L18.6787,3.6542 L3.5056,3.6542 L3.5056,4.3740 Z" style="fill-rule: evenodd; fill: url(#grad1000); "/>
    <defs xmlns="http://www.w3.org/2000/svg" xmlns:xlink="http://www.w3.org/1999/xlink">
      <linearGradient id="grad1001">
        <stop offset="0%" stop-color="#595959" stop-opacity="1.0000"/>
        <stop offset="100%" stop-color="#333333" stop-opacity="1.0000"/>
      </linearGradient>
      <linearGradient xlink:href="#grad1001" id="grad1002" x1="0" y1="0" x2="0" y2="1" gradientTransform="rotate(180 .5 .5)" gradientUnits="objectBoundingBox">
  </linearGradient>
    </defs>
    <path xmlns="http://www.w3.org/2000/svg" d="  M3.5056,16.4338 L18.6787,16.4338 L18.6787,15.7140 L3.5056,15.7140 L3.5056,16.4338 Z" style="fill-rule: evenodd; fill: url(#grad1002); "/>
    <defs xmlns="http://www.w3.org/2000/svg" xmlns:xlink="http://www.w3.org/1999/xlink">
      <linearGradient id="grad1003">
        <stop offset="0%" stop-color="#595959" stop-opacity="1.0000"/>
        <stop offset="100%" stop-color="#333333" stop-opacity="1.0000"/>
      </linearGradient>
      <linearGradient xlink:href="#grad1003" id="grad1004" x1="0" y1="0" x2="0" y2="1" gradientTransform="rotate(-0 .5 .5)" gradientUnits="objectBoundingBox">
  </linearGradient>
    </defs>
    <path xmlns="http://www.w3.org/2000/svg" d="  M3.5056,20.0340 L18.6787,20.0340 L18.6787,19.3142 L3.5056,19.3142 L3.5056,20.0340 Z" style="fill-rule: evenodd; fill: url(#grad1004); "/>
    <defs xmlns="http://www.w3.org/2000/svg" xmlns:xlink="http://www.w3.org/1999/xlink">
      <linearGradient id="grad1005">
        <stop offset="0%" stop-color="#595959" stop-opacity="1.0000"/>
        <stop offset="100%" stop-color="#333333" stop-opacity="1.0000"/>
      </linearGradient>
      <linearGradient xlink:href="#grad1005" id="grad1006" x1="0" y1="0" x2="0" y2="1" gradientTransform="rotate(180 .5 .5)" gradientUnits="objectBoundingBox">
  </linearGradient>
    </defs>
    <path xmlns="http://www.w3.org/2000/svg" d="  M3.5056,11.2138 L18.6787,11.2138 L18.6787,10.4940 L3.5056,10.4940 L3.5056,11.2138 Z" style="fill-rule: evenodd; fill: url(#grad1006); "/>
    <defs xmlns="http://www.w3.org/2000/svg" xmlns:xlink="http://www.w3.org/1999/xlink">
      <linearGradient id="grad1007">
        <stop offset="0%" stop-color="#595959" stop-opacity="1.0000"/>
        <stop offset="100%" stop-color="#333333" stop-opacity="1.0000"/>
      </linearGradient>
      <linearGradient xlink:href="#grad1007" id="grad1008" x1="0" y1="0" x2="0" y2="1" gradientTransform="rotate(-0 .5 .5)" gradientUnits="objectBoundingBox">
  </linearGradient>
    </defs>
    <path xmlns="http://www.w3.org/2000/svg" d="  M3.5056,14.8140 L18.6787,14.8140 L18.6787,14.0942 L3.5056,14.0942 L3.5056,14.8140 Z" style="fill-rule: evenodd; fill: url(#grad1008); "/>
    <defs xmlns="http://www.w3.org/2000/svg" xmlns:xlink="http://www.w3.org/1999/xlink">
      <linearGradient id="grad1009">
        <stop offset="0%" stop-color="#595959" stop-opacity="1.0000"/>
        <stop offset="100%" stop-color="#333333" stop-opacity="1.0000"/>
      </linearGradient>
      <linearGradient xlink:href="#grad1009" id="grad1010" x1="0" y1="0" x2="0" y2="1" gradientTransform="rotate(180 .5 .5)" gradientUnits="objectBoundingBox">
  </linearGradient>
    </defs>
    <path xmlns="http://www.w3.org/2000/svg" d="  M3.5056,5.9938 L18.6787,5.9938 L18.6787,5.2740 L3.5056,5.2740 L3.5056,5.9938 Z" style="fill-rule: evenodd; fill: url(#grad1010); "/>
    <defs xmlns="http://www.w3.org/2000/svg" xmlns:xlink="http://www.w3.org/1999/xlink">
      <linearGradient id="grad1011">
        <stop offset="0%" stop-color="#595959" stop-opacity="1.0000"/>
        <stop offset="100%" stop-color="#333333" stop-opacity="1.0000"/>
      </linearGradient>
      <linearGradient xlink:href="#grad1011" id="grad1012" x1="0" y1="0" x2="0" y2="1" gradientTransform="rotate(-0 .5 .5)" gradientUnits="objectBoundingBox">
  </linearGradient>
    </defs>
    <path xmlns="http://www.w3.org/2000/svg" d="  M3.5056,9.5940 L18.6787,9.5940 L18.6787,8.8742 L3.5056,8.8742 L3.5056,9.5940 Z" style="fill-rule: evenodd; fill: url(#grad1012); "/>
    <g xmlns="http://www.w3.org/2000/svg" id="Layer2254">
      <path d="  M7.6135,4.1400 L14.5707,4.1400 L14.5707,0.2880 L7.6135,0.2880 L7.6135,4.1400 Z M7.6135,9.3600 L14.5707,9.3600 L14.5707,5.5080 L7.6135,5.5080 L7.6135,9.3600 Z M7.6135,14.5800 L14.5707,14.5800 L14.5707,10.7280 L7.6135,10.7280 L7.6135,14.5800 Z M7.6135,19.8000 L14.5707,19.8000 L14.5707,15.9480 L7.6135,15.9480 L7.6135,19.8000 Z" style="stroke-width: 0.0000; stroke-linecap: round; stroke-linejoin: round; fill-rule: evenodd; fill: #595959; "/>
      <path d="  M7.6135,4.1400 L14.5707,4.1400 L14.5707,0.2880 L7.6135,0.2880 L7.6135,4.1400 Z M7.6135,9.3600 L14.5707,9.3600 L14.5707,5.5080 L7.6135,5.5080 L7.6135,9.3600 Z M7.6135,14.5800 L14.5707,14.5800 L14.5707,10.7280 L7.6135,10.7280 L7.6135,14.5800 Z M7.6135,19.8000 L14.5707,19.8000 L14.5707,15.9480 L7.6135,15.9480 L7.6135,19.8000 Z" style="stroke-width: 0.0000; stroke: #4d4d4d; stroke-dasharray: none; stroke-linecap: round; stroke-linejoin: round; fill: none; "/>
    </g>
    <g xmlns="http://www.w3.org/2000/svg" id="Layer2255">
      <path d="  M18.0611,15.9551 L18.1328,15.9271 Z M18.1328,19.8209 L18.0611,19.7929 Z M17.9724,19.7672 L17.3087,19.4991 A0.3600,0.3600 0.0000 0,1 17.0836,19.1653 L17.0836,16.5827 A0.3600,0.3600 0.0000 0,1 17.3087,16.2489 L17.9724,15.9808 A0.4500,0.4500 0.0000 0,1 18.0611,15.9551 L18.6787,15.7140 L18.6787,20.0340 L18.1328,19.8209 A6.1484,6.1484 0.0000 0,1 17.9724,19.7672 Z M14.5707,19.8000 A0.4500,0.4500 180.0000 0,0 14.7393,19.7672 L15.4030,19.4991 A0.3600,0.3600 180.0000 0,0 15.6281,19.1653 L15.6281,16.5827 A0.3600,0.3600 180.0000 0,0 15.4030,16.2489 L14.7393,15.9808 A0.4500,0.4500 180.0000 0,0 14.5707,15.9480 L14.5707,19.8000 Z M7.6135,19.8000 L7.6135,15.9480 A0.4500,0.4500 180.0000 0,0 7.4449,15.9808 L6.7813,16.2489 A0.3600,0.3600 180.0000 0,0 6.5561,16.5827 L6.5561,19.1653 A0.3600,0.3600 180.0000 0,0 6.7813,19.4991 L7.4449,19.7672 A0.4500,0.4500 180.0000 0,0 7.6135,19.8000 Z M4.1232,15.9551 L4.0515,15.9271 Z M4.0515,19.8209 L4.1232,19.7929 Z M4.2119,19.7672 L4.8756,19.4991 A0.3600,0.3600 180.0000 0,0 5.1007,19.1653 L5.1007,16.5827 A0.3600,0.3600 180.0000 0,0 4.8756,16.2489 L4.2119,15.9808 A0.4500,0.4500 180.0000 0,0 4.1232,15.9551 L3.5056,15.7140 L3.5056,20.0340 L4.0515,19.8209 A6.1484,6.1484 180.0000 0,0 4.2119,19.7672 Z M4.1232,10.7351 L4.0515,10.7071 Z M4.0515,14.6009 L4.1232,14.5729 Z M4.2119,14.5472 L4.8756,14.2791 A0.3600,0.3600 180.0000 0,0 5.1007,13.9453 L5.1007,11.3627 A0.3600,0.3600 180.0000 0,0 4.8756,11.0289 L4.2119,10.7608 A0.4500,0.4500 180.0000 0,0 4.1232,10.7351 L3.5056,10.4940 L3.5056,14.8140 L4.0515,14.6009 A6.1484,6.1484 180.0000 0,0 4.2119,14.5472 Z M7.6135,14.5800 L7.6135,10.7280 A0.4500,0.4500 180.0000 0,0 7.4449,10.7608 L6.7813,11.0289 A0.3600,0.3600 180.0000 0,0 6.5561,11.3627 L6.5561,13.9453 A0.3600,0.3600 180.0000 0,0 6.7813,14.2791 L7.4449,14.5472 A0.4500,0.4500 180.0000 0,0 7.6135,14.5800 Z M14.5707,14.5800 A0.4500,0.4500 180.0000 0,0 14.7393,14.5472 L15.4030,14.2791 A0.3600,0.3600 180.0000 0,0 15.6281,13.9453 L15.6281,11.3627 A0.3600,0.3600 180.0000 0,0 15.4030,11.0289 L14.7393,10.7608 A0.4500,0.4500 180.0000 0,0 14.5707,10.7280 L14.5707,14.5800 Z M18.0611,10.7351 L18.1328,10.7071 Z M18.1328,14.6009 L18.0611,14.5729 Z M17.9724,14.5472 L17.3087,14.2791 A0.3600,0.3600 0.0000 0,1 17.0836,13.9453 L17.0836,11.3627 A0.3600,0.3600 0.0000 0,1 17.3087,11.0289 L17.9724,10.7608 A0.4500,0.4500 0.0000 0,1 18.0611,10.7351 L18.6787,10.4940 L18.6787,14.8140 L18.1328,14.6009 A6.1484,6.1484 0.0000 0,1 17.9724,14.5472 Z M18.0611,5.5151 L18.1328,5.4871 Z M18.1328,9.3809 L18.0611,9.3529 Z M17.9724,9.3272 L17.3087,9.0591 A0.3600,0.3600 0.0000 0,1 17.0836,8.7253 L17.0836,6.1427 A0.3600,0.3600 0.0000 0,1 17.3087,5.8089 L17.9724,5.5408 A0.4500,0.4500 0.0000 0,1 18.0611,5.5151 L18.6787,5.2740 L18.6787,9.5940 L18.1328,9.3809 A6.1484,6.1484 0.0000 0,1 17.9724,9.3272 Z M14.5707,9.3600 A0.4500,0.4500 180.0000 0,0 14.7393,9.3272 L15.4030,9.0591 A0.3600,0.3600 180.0000 0,0 15.6281,8.7253 L15.6281,6.1427 A0.3600,0.3600 180.0000 0,0 15.4030,5.8089 L14.7393,5.5408 A0.4500,0.4500 180.0000 0,0 14.5707,5.5080 L14.5707,9.3600 Z M7.6135,9.3600 L7.6135,5.5080 A0.4500,0.4500 180.0000 0,0 7.4449,5.5408 L6.7813,5.8089 A0.3600,0.3600 180.0000 0,0 6.5561,6.1427 L6.5561,8.7253 A0.3600,0.3600 180.0000 0,0 6.7813,9.0591 L7.4449,9.3272 A0.4500,0.4500 180.0000 0,0 7.6135,9.3600 Z M4.1232,5.5151 L4.0515,5.4871 Z M4.0515,9.3809 L4.1232,9.3529 Z M4.2119,9.3272 L4.8756,9.0591 A0.3600,0.3600 180.0000 0,0 5.1007,8.7253 L5.1007,6.1427 A0.3600,0.3600 180.0000 0,0 4.8756,5.8089 L4.2119,5.5408 A0.4500,0.4500 180.0000 0,0 4.1232,5.5151 L3.5056,5.2740 L3.5056,9.5940 L4.0515,9.3809 A6.1484,6.1484 180.0000 0,0 4.2119,9.3272 Z M4.1232,0.2951 L4.0515,0.2671 Z M4.0515,4.1609 L4.1232,4.1329 Z M4.2119,4.1072 L4.8756,3.8391 A0.3600,0.3600 180.0000 0,0 5.1007,3.5053 L5.1007,0.9227 A0.3600,0.3600 180.0000 0,0 4.8756,0.5889 L4.2119,0.3208 A0.4500,0.4500 180.0000 0,0 4.1232,0.2951 L3.5056,0.0540 L3.5056,4.3740 L4.0515,4.1609 A6.1484,6.1484 180.0000 0,0 4.2119,4.1072 Z M7.6135,4.1400 L7.6135,0.2880 A0.4500,0.4500 180.0000 0,0 7.4449,0.3208 L6.7813,0.5889 A0.3600,0.3600 180.0000 0,0 6.5561,0.9227 L6.5561,3.5053 A0.3600,0.3600 180.0000 0,0 6.7813,3.8391 L7.4449,4.1072 A0.4500,0.4500 180.0000 0,0 7.6135,4.1400 Z M14.5707,4.1400 A0.4500,0.4500 180.0000 0,0 14.7393,4.1072 L15.4030,3.8391 A0.3600,0.3600 180.0000 0,0 15.6281,3.5053 L15.6281,0.9227 A0.3600,0.3600 180.0000 0,0 15.4030,0.5889 L14.7393,0.3208 A0.4500,0.4500 180.0000 0,0 14.5707,0.2880 L14.5707,4.1400 Z M18.0611,0.2951 L18.1328,0.2671 Z M18.1328,4.1609 L18.0611,4.1329 Z M17.9724,4.1072 L17.3087,3.8391 A0.3600,0.3600 0.0000 0,1 17.0836,3.5053 L17.0836,0.9227 A0.3600,0.3600 0.0000 0,1 17.3087,0.5889 L17.9724,0.3208 A0.4500,0.4500 0.0000 0,1 18.0611,0.2951 L18.6787,0.0540 L18.6787,4.3740 L18.1328,4.1609 A6.1484,6.1484 0.0000 0,1 17.9724,4.1072 Z" style="stroke-width: 0.0000; stroke-linecap: round; stroke-linejoin: round; fill-rule: evenodd; fill: #4d4d4d; "/>
      <path d="  M18.0611,15.9551 L18.1328,15.9271 M18.1328,19.8209 L18.0611,19.7929 M17.9724,19.7672 L17.3087,19.4991 A0.3600,0.3600 0.0000 0,1 17.0836,19.1653 L17.0836,16.5827 A0.3600,0.3600 0.0000 0,1 17.3087,16.2489 L17.9724,15.9808 A0.4500,0.4500 0.0000 0,1 18.0611,15.9551 L18.6787,15.7140 L18.6787,20.0340 L18.1328,19.8209 A6.1484,6.1484 0.0000 0,1 17.9724,19.7672 Z M14.5707,19.8000 A0.4500,0.4500 180.0000 0,0 14.7393,19.7672 L15.4030,19.4991 A0.3600,0.3600 180.0000 0,0 15.6281,19.1653 L15.6281,16.5827 A0.3600,0.3600 180.0000 0,0 15.4030,16.2489 L14.7393,15.9808 A0.4500,0.4500 180.0000 0,0 14.5707,15.9480 L14.5707,19.8000 Z M7.6135,19.8000 L7.6135,15.9480 A0.4500,0.4500 180.0000 0,0 7.4449,15.9808 L6.7813,16.2489 A0.3600,0.3600 180.0000 0,0 6.5561,16.5827 L6.5561,19.1653 A0.3600,0.3600 180.0000 0,0 6.7813,19.4991 L7.4449,19.7672 A0.4500,0.4500 180.0000 0,0 7.6135,19.8000 Z M4.1232,15.9551 L4.0515,15.9271 M4.0515,19.8209 L4.1232,19.7929 M4.2119,19.7672 L4.8756,19.4991 A0.3600,0.3600 180.0000 0,0 5.1007,19.1653 L5.1007,16.5827 A0.3600,0.3600 180.0000 0,0 4.8756,16.2489 L4.2119,15.9808 A0.4500,0.4500 180.0000 0,0 4.1232,15.9551 L3.5056,15.7140 L3.5056,20.0340 L4.0515,19.8209 A6.1484,6.1484 180.0000 0,0 4.2119,19.7672 Z M4.1232,10.7351 L4.0515,10.7071 M4.0515,14.6009 L4.1232,14.5729 M4.2119,14.5472 L4.8756,14.2791 A0.3600,0.3600 180.0000 0,0 5.1007,13.9453 L5.1007,11.3627 A0.3600,0.3600 180.0000 0,0 4.8756,11.0289 L4.2119,10.7608 A0.4500,0.4500 180.0000 0,0 4.1232,10.7351 L3.5056,10.4940 L3.5056,14.8140 L4.0515,14.6009 A6.1484,6.1484 180.0000 0,0 4.2119,14.5472 Z M7.6135,14.5800 L7.6135,10.7280 A0.4500,0.4500 180.0000 0,0 7.4449,10.7608 L6.7813,11.0289 A0.3600,0.3600 180.0000 0,0 6.5561,11.3627 L6.5561,13.9453 A0.3600,0.3600 180.0000 0,0 6.7813,14.2791 L7.4449,14.5472 A0.4500,0.4500 180.0000 0,0 7.6135,14.5800 Z M14.5707,14.5800 A0.4500,0.4500 180.0000 0,0 14.7393,14.5472 L15.4030,14.2791 A0.3600,0.3600 180.0000 0,0 15.6281,13.9453 L15.6281,11.3627 A0.3600,0.3600 180.0000 0,0 15.4030,11.0289 L14.7393,10.7608 A0.4500,0.4500 180.0000 0,0 14.5707,10.7280 L14.5707,14.5800 Z M18.0611,10.7351 L18.1328,10.7071 M18.1328,14.6009 L18.0611,14.5729 M17.9724,14.5472 L17.3087,14.2791 A0.3600,0.3600 0.0000 0,1 17.0836,13.9453 L17.0836,11.3627 A0.3600,0.3600 0.0000 0,1 17.3087,11.0289 L17.9724,10.7608 A0.4500,0.4500 0.0000 0,1 18.0611,10.7351 L18.6787,10.4940 L18.6787,14.8140 L18.1328,14.6009 A6.1484,6.1484 0.0000 0,1 17.9724,14.5472 Z M18.0611,5.5151 L18.1328,5.4871 M18.1328,9.3809 L18.0611,9.3529 M17.9724,9.3272 L17.3087,9.0591 A0.3600,0.3600 0.0000 0,1 17.0836,8.7253 L17.0836,6.1427 A0.3600,0.3600 0.0000 0,1 17.3087,5.8089 L17.9724,5.5408 A0.4500,0.4500 0.0000 0,1 18.0611,5.5151 L18.6787,5.2740 L18.6787,9.5940 L18.1328,9.3809 A6.1484,6.1484 0.0000 0,1 17.9724,9.3272 Z M14.5707,9.3600 A0.4500,0.4500 180.0000 0,0 14.7393,9.3272 L15.4030,9.0591 A0.3600,0.3600 180.0000 0,0 15.6281,8.7253 L15.6281,6.1427 A0.3600,0.3600 180.0000 0,0 15.4030,5.8089 L14.7393,5.5408 A0.4500,0.4500 180.0000 0,0 14.5707,5.5080 L14.5707,9.3600 Z M7.6135,9.3600 L7.6135,5.5080 A0.4500,0.4500 180.0000 0,0 7.4449,5.5408 L6.7813,5.8089 A0.3600,0.3600 180.0000 0,0 6.5561,6.1427 L6.5561,8.7253 A0.3600,0.3600 180.0000 0,0 6.7813,9.0591 L7.4449,9.3272 A0.4500,0.4500 180.0000 0,0 7.6135,9.3600 Z M4.1232,5.5151 L4.0515,5.4871 M4.0515,9.3809 L4.1232,9.3529 M4.2119,9.3272 L4.8756,9.0591 A0.3600,0.3600 180.0000 0,0 5.1007,8.7253 L5.1007,6.1427 A0.3600,0.3600 180.0000 0,0 4.8756,5.8089 L4.2119,5.5408 A0.4500,0.4500 180.0000 0,0 4.1232,5.5151 L3.5056,5.2740 L3.5056,9.5940 L4.0515,9.3809 A6.1484,6.1484 180.0000 0,0 4.2119,9.3272 Z M4.1232,0.2951 L4.0515,0.2671 M4.0515,4.1609 L4.1232,4.1329 M4.2119,4.1072 L4.8756,3.8391 A0.3600,0.3600 180.0000 0,0 5.1007,3.5053 L5.1007,0.9227 A0.3600,0.3600 180.0000 0,0 4.8756,0.5889 L4.2119,0.3208 A0.4500,0.4500 180.0000 0,0 4.1232,0.2951 L3.5056,0.0540 L3.5056,4.3740 L4.0515,4.1609 A6.1484,6.1484 180.0000 0,0 4.2119,4.1072 Z M7.6135,4.1400 L7.6135,0.2880 A0.4500,0.4500 180.0000 0,0 7.4449,0.3208 L6.7813,0.5889 A0.3600,0.3600 180.0000 0,0 6.5561,0.9227 L6.5561,3.5053 A0.3600,0.3600 180.0000 0,0 6.7813,3.8391 L7.4449,4.1072 A0.4500,0.4500 180.0000 0,0 7.6135,4.1400 Z M14.5707,4.1400 A0.4500,0.4500 180.0000 0,0 14.7393,4.1072 L15.4030,3.8391 A0.3600,0.3600 180.0000 0,0 15.6281,3.5053 L15.6281,0.9227 A0.3600,0.3600 180.0000 0,0 15.4030,0.5889 L14.7393,0.3208 A0.4500,0.4500 180.0000 0,0 14.5707,0.2880 L14.5707,4.1400 Z M18.0611,0.2951 L18.1328,0.2671 M18.1328,4.1609 L18.0611,4.1329 M17.9724,4.1072 L17.3087,3.8391 A0.3600,0.3600 0.0000 0,1 17.0836,3.5053 L17.0836,0.9227 A0.3600,0.3600 0.0000 0,1 17.3087,0.5889 L17.9724,0.3208 A0.4500,0.4500 0.0000 0,1 18.0611,0.2951 L18.6787,0.0540 L18.6787,4.3740 L18.1328,4.1609 A6.1484,6.1484 0.0000 0,1 17.9724,4.1072 Z" style="stroke-width: 0.0000; stroke: #4d4d4d; stroke-dasharray: none; stroke-linecap: round; stroke-linejoin: round; fill: none; "/>
    </g>
    <g xmlns="http://www.w3.org/2000/svg" id="Layer2256">
      <path d="  M18.7925,3.8391 L18.7925,0.5889 L18.6908,0.5889 L17.5753,0.8865 A0.1800,0.1800 0.0000 0,0 17.4427,1.0602 L17.4427,3.3678 A0.1800,0.1800 0.0000 0,0 17.5753,3.5415 L18.6434,3.8327 L18.7925,3.8391 Z M18.7925,9.0591 L18.7925,5.8089 L18.6908,5.8089 L17.5753,6.1065 A0.1800,0.1800 0.0000 0,0 17.4427,6.2802 L17.4427,8.5878 A0.1800,0.1800 0.0000 0,0 17.5753,8.7615 L18.6434,9.0527 L18.7925,9.0591 Z M18.7925,14.2791 L18.7925,11.0289 L18.6908,11.0289 L17.5753,11.3265 A0.1800,0.1800 0.0000 0,0 17.4427,11.5002 L17.4427,13.8078 A0.1800,0.1800 0.0000 0,0 17.5753,13.9815 L18.6434,14.2727 L18.7925,14.2791 Z M18.7925,19.4991 L18.7925,16.2489 L18.6908,16.2489 L17.5753,16.5465 A0.1800,0.1800 0.0000 0,0 17.4427,16.7202 L17.4427,19.0278 A0.1800,0.1800 0.0000 0,0 17.5753,19.2015 L18.6434,19.4927 L18.7925,19.4991 Z" style="stroke-width: 0.0000; stroke-linecap: round; stroke-linejoin: round; fill-rule: evenodd; fill: #595959; "/>
      <path d="  M18.7925,3.8391 L18.7925,0.5889 L18.6908,0.5889 L17.5753,0.8865 A0.1800,0.1800 0.0000 0,0 17.4427,1.0602 L17.4427,3.3678 A0.1800,0.1800 0.0000 0,0 17.5753,3.5415 L18.6434,3.8327 L18.7925,3.8391 Z M18.7925,9.0591 L18.7925,5.8089 L18.6908,5.8089 L17.5753,6.1065 A0.1800,0.1800 0.0000 0,0 17.4427,6.2802 L17.4427,8.5878 A0.1800,0.1800 0.0000 0,0 17.5753,8.7615 L18.6434,9.0527 L18.7925,9.0591 Z M18.7925,14.2791 L18.7925,11.0289 L18.6908,11.0289 L17.5753,11.3265 A0.1800,0.1800 0.0000 0,0 17.4427,11.5002 L17.4427,13.8078 A0.1800,0.1800 0.0000 0,0 17.5753,13.9815 L18.6434,14.2727 L18.7925,14.2791 Z M18.7925,19.4991 L18.7925,16.2489 L18.6908,16.2489 L17.5753,16.5465 A0.1800,0.1800 0.0000 0,0 17.4427,16.7202 L17.4427,19.0278 A0.1800,0.1800 0.0000 0,0 17.5753,19.2015 L18.6434,19.4927 L18.7925,19.4991 Z" style="stroke-width: 0.0000; stroke: #333333; stroke-dasharray: none; stroke-linecap: round; stroke-linejoin: round; fill: none; "/>
    </g>
    <g xmlns="http://www.w3.org/2000/svg" id="Layer2257">
      <path d="  M18.7925,14.2791 L19.0687,14.2791 A0.1800,0.1800 0.0000 0,0 19.2487,14.0991 L19.2487,11.2089 A0.1800,0.1800 0.0000 0,0 19.0687,11.0289 L18.7925,11.0289 L18.7925,14.2791 Z M18.7925,19.4991 L19.0687,19.4991 A0.1800,0.1800 0.0000 0,0 19.2487,19.3191 L19.2487,16.4289 A0.1800,0.1800 0.0000 0,0 19.0687,16.2489 L18.7925,16.2489 L18.7925,19.4991 Z M18.7925,3.8391 L19.0687,3.8391 A0.1800,0.1800 0.0000 0,0 19.2487,3.6591 L19.2487,0.7689 A0.1800,0.1800 0.0000 0,0 19.0687,0.5889 L18.7925,0.5889 L18.7925,3.8391 Z M18.7925,9.0591 L19.0687,9.0591 A0.1800,0.1800 0.0000 0,0 19.2487,8.8791 L19.2487,5.9889 A0.1800,0.1800 0.0000 0,0 19.0687,5.8089 L18.7925,5.8089 L18.7925,9.0591 Z" style="stroke-width: 0.0000; stroke-linecap: round; stroke-linejoin: round; fill-rule: evenodd; fill: #4d4d4d; "/>
      <path d="  M18.7925,14.2791 L19.0687,14.2791 A0.1800,0.1800 0.0000 0,0 19.2487,14.0991 L19.2487,11.2089 A0.1800,0.1800 0.0000 0,0 19.0687,11.0289 L18.7925,11.0289 L18.7925,14.2791 Z M18.7925,19.4991 L19.0687,19.4991 A0.1800,0.1800 0.0000 0,0 19.2487,19.3191 L19.2487,16.4289 A0.1800,0.1800 0.0000 0,0 19.0687,16.2489 L18.7925,16.2489 L18.7925,19.4991 Z M18.7925,3.8391 L19.0687,3.8391 A0.1800,0.1800 0.0000 0,0 19.2487,3.6591 L19.2487,0.7689 A0.1800,0.1800 0.0000 0,0 19.0687,0.5889 L18.7925,0.5889 L18.7925,3.8391 Z M18.7925,9.0591 L19.0687,9.0591 A0.1800,0.1800 0.0000 0,0 19.2487,8.8791 L19.2487,5.9889 A0.1800,0.1800 0.0000 0,0 19.0687,5.8089 L18.7925,5.8089 L18.7925,9.0591 Z" style="stroke-width: 0.0000; stroke: #333333; stroke-dasharray: none; stroke-linecap: round; stroke-linejoin: round; fill: none; "/>
    </g>
    <g xmlns="http://www.w3.org/2000/svg" id="Layer2258">
      <path d="  M13.3437,8.5500 L13.3437,6.3180 A0.1440,0.1440 180.0000 0,1 13.4877,6.1740 L14.5677,6.1740 A0.3600,0.3600 180.0000 0,1 14.9277,6.5340 L14.9277,8.3340 A0.3600,0.3600 180.0000 0,1 14.5677,8.6940 L13.4877,8.6940 A0.1440,0.1440 180.0000 0,1 13.3437,8.5500 Z M12.9724,8.5500 L12.9724,6.3180 A0.1440,0.1440 180.0000 0,0 12.8284,6.1740 L11.4028,6.1740 A0.1440,0.1440 180.0000 0,0 11.2588,6.3180 L11.2588,8.5500 A0.1440,0.1440 180.0000 0,0 11.4028,8.6940 L12.8284,8.6940 A0.1440,0.1440 180.0000 0,0 12.9724,8.5500 Z M10.8874,8.5500 L10.8874,6.3180 A0.1440,0.1440 180.0000 0,0 10.7434,6.1740 L9.3178,6.1740 A0.1440,0.1440 180.0000 0,0 9.1738,6.3180 L9.1738,8.5500 A0.1440,0.1440 180.0000 0,0 9.3178,8.6940 L10.7434,8.6940 A0.1440,0.1440 180.0000 0,0 10.8874,8.5500 Z M8.8025,8.5500 L8.8025,6.3180 A0.1440,0.1440 180.0000 0,0 8.6585,6.1740 L7.5785,6.1740 A0.3600,0.3600 180.0000 0,0 7.2185,6.5340 L7.2185,8.3340 A0.3600,0.3600 180.0000 0,0 7.5785,8.6940 L8.6585,8.6940 A0.1440,0.1440 180.0000 0,0 8.8025,8.5500 Z M3.1156,9.0591 L3.4935,9.0591 A0.1800,0.1800 0.0000 0,0 3.5408,9.0527 L4.6089,8.7615 A0.1800,0.1800 0.0000 0,0 4.7416,8.5878 L4.7416,6.2802 A0.1800,0.1800 0.0000 0,0 4.6089,6.1065 L3.5408,5.8153 A0.1800,0.1800 0.0000 0,0 3.4935,5.8089 L3.1156,5.8089 A0.1800,0.1800 0.0000 0,0 2.9356,5.9889 L2.9356,8.8791 A0.1800,0.1800 0.0000 0,0 3.1156,9.0591 Z M13.3437,3.3300 L13.3437,1.0980 A0.1440,0.1440 180.0000 0,1 13.4877,0.9540 L14.5677,0.9540 A0.3600,0.3600 180.0000 0,1 14.9277,1.3140 L14.9277,3.1140 A0.3600,0.3600 180.0000 0,1 14.5677,3.4740 L13.4877,3.4740 A0.1440,0.1440 180.0000 0,1 13.3437,3.3300 Z M12.9724,3.3300 L12.9724,1.0980 A0.1440,0.1440 180.0000 0,0 12.8284,0.9540 L11.4028,0.9540 A0.1440,0.1440 180.0000 0,0 11.2588,1.0980 L11.2588,3.3300 A0.1440,0.1440 180.0000 0,0 11.4028,3.4740 L12.8284,3.4740 A0.1440,0.1440 180.0000 0,0 12.9724,3.3300 Z M10.8874,3.3300 L10.8874,1.0980 A0.1440,0.1440 180.0000 0,0 10.7434,0.9540 L9.3178,0.9540 A0.1440,0.1440 180.0000 0,0 9.1738,1.0980 L9.1738,3.3300 A0.1440,0.1440 180.0000 0,0 9.3178,3.4740 L10.7434,3.4740 A0.1440,0.1440 180.0000 0,0 10.8874,3.3300 Z M8.8025,3.3300 L8.8025,1.0980 A0.1440,0.1440 180.0000 0,0 8.6585,0.9540 L7.5785,0.9540 A0.3600,0.3600 180.0000 0,0 7.2185,1.3140 L7.2185,3.1140 A0.3600,0.3600 180.0000 0,0 7.5785,3.4740 L8.6585,3.4740 A0.1440,0.1440 180.0000 0,0 8.8025,3.3300 Z M3.1156,3.8391 L3.4935,3.8391 A0.1800,0.1800 0.0000 0,0 3.5408,3.8327 L4.6089,3.5415 A0.1800,0.1800 0.0000 0,0 4.7416,3.3678 L4.7416,1.0602 A0.1800,0.1800 0.0000 0,0 4.6089,0.8865 L3.5408,0.5953 A0.1800,0.1800 0.0000 0,0 3.4935,0.5889 L3.1156,0.5889 A0.1800,0.1800 0.0000 0,0 2.9356,0.7689 L2.9356,3.6591 A0.1800,0.1800 0.0000 0,0 3.1156,3.8391 Z M13.3437,13.7700 L13.3437,11.5380 A0.1440,0.1440 180.0000 0,1 13.4877,11.3940 L14.5677,11.3940 A0.3600,0.3600 180.0000 0,1 14.9277,11.7540 L14.9277,13.5540 A0.3600,0.3600 180.0000 0,1 14.5677,13.9140 L13.4877,13.9140 A0.1440,0.1440 180.0000 0,1 13.3437,13.7700 Z M12.9724,13.7700 L12.9724,11.5380 A0.1440,0.1440 180.0000 0,0 12.8284,11.3940 L11.4028,11.3940 A0.1440,0.1440 180.0000 0,0 11.2588,11.5380 L11.2588,13.7700 A0.1440,0.1440 180.0000 0,0 11.4028,13.9140 L12.8284,13.9140 A0.1440,0.1440 180.0000 0,0 12.9724,13.7700 Z M10.8874,13.7700 L10.8874,11.5380 A0.1440,0.1440 180.0000 0,0 10.7434,11.3940 L9.3178,11.3940 A0.1440,0.1440 180.0000 0,0 9.1738,11.5380 L9.1738,13.7700 A0.1440,0.1440 180.0000 0,0 9.3178,13.9140 L10.7434,13.9140 A0.1440,0.1440 180.0000 0,0 10.8874,13.7700 Z M8.8025,13.7700 L8.8025,11.5380 A0.1440,0.1440 180.0000 0,0 8.6585,11.3940 L7.5785,11.3940 A0.3600,0.3600 180.0000 0,0 7.2185,11.7540 L7.2185,13.5540 A0.3600,0.3600 180.0000 0,0 7.5785,13.9140 L8.6585,13.9140 A0.1440,0.1440 180.0000 0,0 8.8025,13.7700 Z M3.1156,14.2791 L3.4935,14.2791 A0.1800,0.1800 0.0000 0,0 3.5408,14.2727 L4.6089,13.9815 A0.1800,0.1800 0.0000 0,0 4.7416,13.8078 L4.7416,11.5002 A0.1800,0.1800 0.0000 0,0 4.6089,11.3265 L3.5408,11.0353 A0.1800,0.1800 0.0000 0,0 3.4935,11.0289 L3.1156,11.0289 A0.1800,0.1800 0.0000 0,0 2.9356,11.2089 L2.9356,14.0991 A0.1800,0.1800 0.0000 0,0 3.1156,14.2791 Z M13.3437,18.9900 L13.3437,16.7580 A0.1440,0.1440 180.0000 0,1 13.4877,16.6140 L14.5677,16.6140 A0.3600,0.3600 180.0000 0,1 14.9277,16.9740 L14.9277,18.7740 A0.3600,0.3600 180.0000 0,1 14.5677,19.1340 L13.4877,19.1340 A0.1440,0.1440 180.0000 0,1 13.3437,18.9900 Z M12.9724,18.9900 L12.9724,16.7580 A0.1440,0.1440 180.0000 0,0 12.8284,16.6140 L11.4028,16.6140 A0.1440,0.1440 180.0000 0,0 11.2588,16.7580 L11.2588,18.9900 A0.1440,0.1440 180.0000 0,0 11.4028,19.1340 L12.8284,19.1340 A0.1440,0.1440 180.0000 0,0 12.9724,18.9900 Z M10.8874,18.9900 L10.8874,16.7580 A0.1440,0.1440 180.0000 0,0 10.7434,16.6140 L9.3178,16.6140 A0.1440,0.1440 180.0000 0,0 9.1738,16.7580 L9.1738,18.9900 A0.1440,0.1440 180.0000 0,0 9.3178,19.1340 L10.7434,19.1340 A0.1440,0.1440 180.0000 0,0 10.8874,18.9900 Z M8.8025,18.9900 L8.8025,16.7580 A0.1440,0.1440 180.0000 0,0 8.6585,16.6140 L7.5785,16.6140 A0.3600,0.3600 180.0000 0,0 7.2185,16.9740 L7.2185,18.7740 A0.3600,0.3600 180.0000 0,0 7.5785,19.1340 L8.6585,19.1340 A0.1440,0.1440 180.0000 0,0 8.8025,18.9900 Z M3.1156,19.4991 L3.4935,19.4991 A0.1800,0.1800 0.0000 0,0 3.5408,19.4927 L4.6089,19.2015 A0.1800,0.1800 0.0000 0,0 4.7416,19.0278 L4.7416,16.7202 A0.1800,0.1800 0.0000 0,0 4.6089,16.5465 L3.5408,16.2553 A0.1800,0.1800 0.0000 0,0 3.4935,16.2489 L3.1156,16.2489 A0.1800,0.1800 0.0000 0,0 2.9356,16.4289 L2.9356,19.3191 A0.1800,0.1800 0.0000 0,0 3.1156,19.4991 Z" style="stroke-width: 0.0000; stroke-linecap: round; stroke-linejoin: round; fill-rule: evenodd; fill: #1a1a1a; "/>
      <path d="  M13.3437,8.5500 L13.3437,6.3180 A0.1440,0.1440 180.0000 0,1 13.4877,6.1740 L14.5677,6.1740 A0.3600,0.3600 180.0000 0,1 14.9277,6.5340 L14.9277,8.3340 A0.3600,0.3600 180.0000 0,1 14.5677,8.6940 L13.4877,8.6940 A0.1440,0.1440 180.0000 0,1 13.3437,8.5500 Z M12.9724,8.5500 L12.9724,6.3180 A0.1440,0.1440 180.0000 0,0 12.8284,6.1740 L11.4028,6.1740 A0.1440,0.1440 180.0000 0,0 11.2588,6.3180 L11.2588,8.5500 A0.1440,0.1440 180.0000 0,0 11.4028,8.6940 L12.8284,8.6940 A0.1440,0.1440 180.0000 0,0 12.9724,8.5500 Z M10.8874,8.5500 L10.8874,6.3180 A0.1440,0.1440 180.0000 0,0 10.7434,6.1740 L9.3178,6.1740 A0.1440,0.1440 180.0000 0,0 9.1738,6.3180 L9.1738,8.5500 A0.1440,0.1440 180.0000 0,0 9.3178,8.6940 L10.7434,8.6940 A0.1440,0.1440 180.0000 0,0 10.8874,8.5500 Z M8.8025,8.5500 L8.8025,6.3180 A0.1440,0.1440 180.0000 0,0 8.6585,6.1740 L7.5785,6.1740 A0.3600,0.3600 180.0000 0,0 7.2185,6.5340 L7.2185,8.3340 A0.3600,0.3600 180.0000 0,0 7.5785,8.6940 L8.6585,8.6940 A0.1440,0.1440 180.0000 0,0 8.8025,8.5500 Z M3.1156,9.0591 L3.4935,9.0591 A0.1800,0.1800 0.0000 0,0 3.5408,9.0527 L4.6089,8.7615 A0.1800,0.1800 0.0000 0,0 4.7416,8.5878 L4.7416,6.2802 A0.1800,0.1800 0.0000 0,0 4.6089,6.1065 L3.5408,5.8153 A0.1800,0.1800 0.0000 0,0 3.4935,5.8089 L3.1156,5.8089 A0.1800,0.1800 0.0000 0,0 2.9356,5.9889 L2.9356,8.8791 A0.1800,0.1800 0.0000 0,0 3.1156,9.0591 Z M13.3437,3.3300 L13.3437,1.0980 A0.1440,0.1440 180.0000 0,1 13.4877,0.9540 L14.5677,0.9540 A0.3600,0.3600 180.0000 0,1 14.9277,1.3140 L14.9277,3.1140 A0.3600,0.3600 180.0000 0,1 14.5677,3.4740 L13.4877,3.4740 A0.1440,0.1440 180.0000 0,1 13.3437,3.3300 Z M12.9724,3.3300 L12.9724,1.0980 A0.1440,0.1440 180.0000 0,0 12.8284,0.9540 L11.4028,0.9540 A0.1440,0.1440 180.0000 0,0 11.2588,1.0980 L11.2588,3.3300 A0.1440,0.1440 180.0000 0,0 11.4028,3.4740 L12.8284,3.4740 A0.1440,0.1440 180.0000 0,0 12.9724,3.3300 Z M10.8874,3.3300 L10.8874,1.0980 A0.1440,0.1440 180.0000 0,0 10.7434,0.9540 L9.3178,0.9540 A0.1440,0.1440 180.0000 0,0 9.1738,1.0980 L9.1738,3.3300 A0.1440,0.1440 180.0000 0,0 9.3178,3.4740 L10.7434,3.4740 A0.1440,0.1440 180.0000 0,0 10.8874,3.3300 Z M8.8025,3.3300 L8.8025,1.0980 A0.1440,0.1440 180.0000 0,0 8.6585,0.9540 L7.5785,0.9540 A0.3600,0.3600 180.0000 0,0 7.2185,1.3140 L7.2185,3.1140 A0.3600,0.3600 180.0000 0,0 7.5785,3.4740 L8.6585,3.4740 A0.1440,0.1440 180.0000 0,0 8.8025,3.3300 Z M3.1156,3.8391 L3.4935,3.8391 A0.1800,0.1800 0.0000 0,0 3.5408,3.8327 L4.6089,3.5415 A0.1800,0.1800 0.0000 0,0 4.7416,3.3678 L4.7416,1.0602 A0.1800,0.1800 0.0000 0,0 4.6089,0.8865 L3.5408,0.5953 A0.1800,0.1800 0.0000 0,0 3.4935,0.5889 L3.1156,0.5889 A0.1800,0.1800 0.0000 0,0 2.9356,0.7689 L2.9356,3.6591 A0.1800,0.1800 0.0000 0,0 3.1156,3.8391 Z M13.3437,13.7700 L13.3437,11.5380 A0.1440,0.1440 180.0000 0,1 13.4877,11.3940 L14.5677,11.3940 A0.3600,0.3600 180.0000 0,1 14.9277,11.7540 L14.9277,13.5540 A0.3600,0.3600 180.0000 0,1 14.5677,13.9140 L13.4877,13.9140 A0.1440,0.1440 180.0000 0,1 13.3437,13.7700 Z M12.9724,13.7700 L12.9724,11.5380 A0.1440,0.1440 180.0000 0,0 12.8284,11.3940 L11.4028,11.3940 A0.1440,0.1440 180.0000 0,0 11.2588,11.5380 L11.2588,13.7700 A0.1440,0.1440 180.0000 0,0 11.4028,13.9140 L12.8284,13.9140 A0.1440,0.1440 180.0000 0,0 12.9724,13.7700 Z M10.8874,13.7700 L10.8874,11.5380 A0.1440,0.1440 180.0000 0,0 10.7434,11.3940 L9.3178,11.3940 A0.1440,0.1440 180.0000 0,0 9.1738,11.5380 L9.1738,13.7700 A0.1440,0.1440 180.0000 0,0 9.3178,13.9140 L10.7434,13.9140 A0.1440,0.1440 180.0000 0,0 10.8874,13.7700 Z M8.8025,13.7700 L8.8025,11.5380 A0.1440,0.1440 180.0000 0,0 8.6585,11.3940 L7.5785,11.3940 A0.3600,0.3600 180.0000 0,0 7.2185,11.7540 L7.2185,13.5540 A0.3600,0.3600 180.0000 0,0 7.5785,13.9140 L8.6585,13.9140 A0.1440,0.1440 180.0000 0,0 8.8025,13.7700 Z M3.1156,14.2791 L3.4935,14.2791 A0.1800,0.1800 0.0000 0,0 3.5408,14.2727 L4.6089,13.9815 A0.1800,0.1800 0.0000 0,0 4.7416,13.8078 L4.7416,11.5002 A0.1800,0.1800 0.0000 0,0 4.6089,11.3265 L3.5408,11.0353 A0.1800,0.1800 0.0000 0,0 3.4935,11.0289 L3.1156,11.0289 A0.1800,0.1800 0.0000 0,0 2.9356,11.2089 L2.9356,14.0991 A0.1800,0.1800 0.0000 0,0 3.1156,14.2791 Z M13.3437,18.9900 L13.3437,16.7580 A0.1440,0.1440 180.0000 0,1 13.4877,16.6140 L14.5677,16.6140 A0.3600,0.3600 180.0000 0,1 14.9277,16.9740 L14.9277,18.7740 A0.3600,0.3600 180.0000 0,1 14.5677,19.1340 L13.4877,19.1340 A0.1440,0.1440 180.0000 0,1 13.3437,18.9900 Z M12.9724,18.9900 L12.9724,16.7580 A0.1440,0.1440 180.0000 0,0 12.8284,16.6140 L11.4028,16.6140 A0.1440,0.1440 180.0000 0,0 11.2588,16.7580 L11.2588,18.9900 A0.1440,0.1440 180.0000 0,0 11.4028,19.1340 L12.8284,19.1340 A0.1440,0.1440 180.0000 0,0 12.9724,18.9900 Z M10.8874,18.9900 L10.8874,16.7580 A0.1440,0.1440 180.0000 0,0 10.7434,16.6140 L9.3178,16.6140 A0.1440,0.1440 180.0000 0,0 9.1738,16.7580 L9.1738,18.9900 A0.1440,0.1440 180.0000 0,0 9.3178,19.1340 L10.7434,19.1340 A0.1440,0.1440 180.0000 0,0 10.8874,18.9900 Z M8.8025,18.9900 L8.8025,16.7580 A0.1440,0.1440 180.0000 0,0 8.6585,16.6140 L7.5785,16.6140 A0.3600,0.3600 180.0000 0,0 7.2185,16.9740 L7.2185,18.7740 A0.3600,0.3600 180.0000 0,0 7.5785,19.1340 L8.6585,19.1340 A0.1440,0.1440 180.0000 0,0 8.8025,18.9900 Z M3.1156,19.4991 L3.4935,19.4991 A0.1800,0.1800 0.0000 0,0 3.5408,19.4927 L4.6089,19.2015 A0.1800,0.1800 0.0000 0,0 4.7416,19.0278 L4.7416,16.7202 A0.1800,0.1800 0.0000 0,0 4.6089,16.5465 L3.5408,16.2553 A0.1800,0.1800 0.0000 0,0 3.4935,16.2489 L3.1156,16.2489 A0.1800,0.1800 0.0000 0,0 2.9356,16.4289 L2.9356,19.3191 A0.1800,0.1800 0.0000 0,0 3.1156,19.4991 Z" style="stroke-width: 0.0000; stroke: #333333; stroke-dasharray: none; stroke-linecap: round; stroke-linejoin: round; fill: none; "/>
    </g>
    <!--converted by libvisio2svg-->
  </g>
</svg>
